<?xml version="1.0" encoding="UTF-8" standalone="no"?>
<!DOCTYPE svg PUBLIC "-//W3C//DTD SVG 1.1//EN"
 "http://www.w3.org/Graphics/SVG/1.1/DTD/svg11.dtd">
<!-- Generated by graphviz version 2.40.1 (20161225.0304)
 -->
<!-- Title: AngularForceVector3.h Pages: 1 -->
<svg width="5111pt" height="263pt"
 viewBox="0.00 0.00 5110.80 263.00" xmlns="http://www.w3.org/2000/svg" xmlns:xlink="http://www.w3.org/1999/xlink">
<g id="graph0" class="graph" transform="scale(1 1) rotate(0) translate(4 259)">
<title>AngularForceVector3.h</title>
<!-- Node24 -->
<g id="node1" class="node">
<title>Node24</title>
<polygon fill="#bfbfbf" stroke="#000000" points="4743.301,-235.5 4743.301,-254.5 4869.301,-254.5 4869.301,-235.5 4743.301,-235.5"/>
<text text-anchor="middle" x="4806.301" y="-242.5" font-family="FreeSans.ttf" font-size="10.00" fill="#000000">AngularForceVector3.h</text>
</g>
<!-- Node25 -->
<g id="node2" class="node">
<title>Node25</title>
<g id="a_node2"><a xlink:href="SpatialForceVector_8h.html" target="_top" xlink:title="SpatialForceVector.h">
<polygon fill="none" stroke="#000000" points="4466.301,-179.5 4466.301,-198.5 4582.301,-198.5 4582.301,-179.5 4466.301,-179.5"/>
<text text-anchor="middle" x="4524.301" y="-186.5" font-family="FreeSans.ttf" font-size="10.00" fill="#000000">SpatialForceVector.h</text>
</a>
</g>
</g>
<!-- Node24&#45;&gt;Node25 -->
<g id="edge1" class="edge">
<title>Node24&#45;&gt;Node25</title>
<path fill="none" stroke="#191970" d="M4748.0709,-233.4366C4696.0829,-223.1127 4620.8547,-208.1738 4572.2595,-198.5237"/>
<polygon fill="#191970" stroke="#191970" points="4747.6537,-236.922 4758.1439,-235.4369 4749.0172,-230.0561 4747.6537,-236.922"/>
</g>
<!-- Node223 -->
<g id="node47" class="node">
<title>Node223</title>
<g id="a_node47"><a xlink:href="AngularForceVector3_8cpp.html" target="_top" xlink:title="AngularForceVector3.cpp">
<polygon fill="none" stroke="#000000" points="4600.801,-179.5 4600.801,-198.5 4737.801,-198.5 4737.801,-179.5 4600.801,-179.5"/>
<text text-anchor="middle" x="4669.301" y="-186.5" font-family="FreeSans.ttf" font-size="10.00" fill="#000000">AngularForceVector3.cpp</text>
</a>
</g>
</g>
<!-- Node24&#45;&gt;Node223 -->
<g id="edge62" class="edge">
<title>Node24&#45;&gt;Node223</title>
<path fill="none" stroke="#191970" d="M4773.3204,-231.5189C4748.3698,-221.3201 4714.7276,-207.5685 4692.5448,-198.5011"/>
<polygon fill="#191970" stroke="#191970" points="4772.169,-234.8293 4782.7499,-235.3733 4774.8176,-228.3497 4772.169,-234.8293"/>
</g>
<!-- Node224 -->
<g id="node48" class="node">
<title>Node224</title>
<g id="a_node48"><a xlink:href="ForceVector3_8cpp.html" target="_top" xlink:title="ForceVector3.cpp">
<polygon fill="none" stroke="#000000" points="4756.301,-179.5 4756.301,-198.5 4856.301,-198.5 4856.301,-179.5 4756.301,-179.5"/>
<text text-anchor="middle" x="4806.301" y="-186.5" font-family="FreeSans.ttf" font-size="10.00" fill="#000000">ForceVector3.cpp</text>
</a>
</g>
</g>
<!-- Node24&#45;&gt;Node224 -->
<g id="edge63" class="edge">
<title>Node24&#45;&gt;Node224</title>
<path fill="none" stroke="#191970" d="M4806.301,-225.1575C4806.301,-216.155 4806.301,-205.9199 4806.301,-198.6427"/>
<polygon fill="#191970" stroke="#191970" points="4802.8011,-225.2455 4806.301,-235.2455 4809.8011,-225.2456 4802.8011,-225.2455"/>
</g>
<!-- Node225 -->
<g id="node49" class="node">
<title>Node225</title>
<g id="a_node49"><a xlink:href="GeomVector3_8cpp.html" target="_top" xlink:title="GeomVector3.cpp">
<polygon fill="none" stroke="#000000" points="4874.801,-179.5 4874.801,-198.5 4977.801,-198.5 4977.801,-179.5 4874.801,-179.5"/>
<text text-anchor="middle" x="4926.301" y="-186.5" font-family="FreeSans.ttf" font-size="10.00" fill="#000000">GeomVector3.cpp</text>
</a>
</g>
</g>
<!-- Node24&#45;&gt;Node225 -->
<g id="edge64" class="edge">
<title>Node24&#45;&gt;Node225</title>
<path fill="none" stroke="#191970" d="M4836.0634,-231.1109C4857.8242,-220.9559 4886.7692,-207.4482 4905.9414,-198.5011"/>
<polygon fill="#191970" stroke="#191970" points="4834.5114,-227.9727 4826.9297,-235.3733 4837.4717,-234.316 4834.5114,-227.9727"/>
</g>
<!-- Node226 -->
<g id="node50" class="node">
<title>Node226</title>
<g id="a_node50"><a xlink:href="MotionVector3_8cpp.html" target="_top" xlink:title="MotionVector3.cpp">
<polygon fill="none" stroke="#000000" points="4995.801,-179.5 4995.801,-198.5 5102.801,-198.5 5102.801,-179.5 4995.801,-179.5"/>
<text text-anchor="middle" x="5049.301" y="-186.5" font-family="FreeSans.ttf" font-size="10.00" fill="#000000">MotionVector3.cpp</text>
</a>
</g>
</g>
<!-- Node24&#45;&gt;Node226 -->
<g id="edge65" class="edge">
<title>Node24&#45;&gt;Node226</title>
<path fill="none" stroke="#191970" d="M4857.6021,-233.1775C4902.355,-222.8641 4966.4494,-208.0934 5007.9751,-198.5237"/>
<polygon fill="#191970" stroke="#191970" points="4856.7567,-229.7805 4847.7981,-235.4369 4858.3287,-236.6017 4856.7567,-229.7805"/>
</g>
<!-- Node26 -->
<g id="node3" class="node">
<title>Node26</title>
<g id="a_node3"><a xlink:href="EigenHelpers_8h.html" target="_top" xlink:title="EigenHelpers.h">
<polygon fill="none" stroke="#ff0000" points="2393.301,-123.5 2393.301,-142.5 2483.301,-142.5 2483.301,-123.5 2393.301,-123.5"/>
<text text-anchor="middle" x="2438.301" y="-130.5" font-family="FreeSans.ttf" font-size="10.00" fill="#000000">EigenHelpers.h</text>
</a>
</g>
</g>
<!-- Node25&#45;&gt;Node26 -->
<g id="edge2" class="edge">
<title>Node25&#45;&gt;Node26</title>
<path fill="none" stroke="#191970" d="M4455.858,-187.1626C4131.2058,-178.4471 2751.0912,-141.3971 2483.3843,-134.2103"/>
<polygon fill="#191970" stroke="#191970" points="4455.9675,-190.6667 4466.0579,-187.4364 4456.1554,-183.6692 4455.9675,-190.6667"/>
</g>
<!-- Node29 -->
<g id="node5" class="node">
<title>Node29</title>
<g id="a_node5"><a xlink:href="SpatialInertiaRaw_8cpp.html" target="_top" xlink:title="SpatialInertiaRaw.cpp">
<polygon fill="none" stroke="#000000" points="3528.301,-.5 3528.301,-19.5 3650.301,-19.5 3650.301,-.5 3528.301,-.5"/>
<text text-anchor="middle" x="3589.301" y="-7.5" font-family="FreeSans.ttf" font-size="10.00" fill="#000000">SpatialInertiaRaw.cpp</text>
</a>
</g>
</g>
<!-- Node25&#45;&gt;Node29 -->
<g id="edge54" class="edge">
<title>Node25&#45;&gt;Node29</title>
<path fill="none" stroke="#191970" d="M4592.752,-179.3032C4671.653,-173.8809 4983.0995,-175.8943 5013.301,-143 5019.3127,-136.4523 5016.6717,-131.225 5013.301,-123 4997.4505,-84.3229 4985.5791,-72.7913 4947.301,-56 4887.2519,-29.6585 3906.8381,-14.3706 3650.324,-10.809"/>
<polygon fill="#191970" stroke="#191970" points="4592.1643,-175.8412 4582.5089,-180.2028 4592.7768,-182.8144 4592.1643,-175.8412"/>
</g>
<!-- Node31 -->
<g id="node6" class="node">
<title>Node31</title>
<g id="a_node6"><a xlink:href="SpatialMotionVector_8cpp.html" target="_top" xlink:title="SpatialMotionVector.cpp">
<polygon fill="none" stroke="#000000" points="107.301,-.5 107.301,-19.5 241.301,-19.5 241.301,-.5 107.301,-.5"/>
<text text-anchor="middle" x="174.301" y="-7.5" font-family="FreeSans.ttf" font-size="10.00" fill="#000000">SpatialMotionVector.cpp</text>
</a>
</g>
</g>
<!-- Node25&#45;&gt;Node31 -->
<g id="edge55" class="edge">
<title>Node25&#45;&gt;Node31</title>
<path fill="none" stroke="#191970" d="M4456.0731,-188.711C4013.6261,-186.754 1545.6459,-174.5547 792.301,-143 618.0094,-135.6996 128.1707,-214.6748 9.301,-87 -25.1102,-50.0398 47.6772,-29.2234 107.2743,-18.7952"/>
<polygon fill="#191970" stroke="#191970" points="4456.1307,-192.2112 4466.146,-188.7554 4456.1615,-185.2113 4456.1307,-192.2112"/>
</g>
<!-- Node41 -->
<g id="node13" class="node">
<title>Node41</title>
<g id="a_node13"><a xlink:href="SpatialForceVector_8cpp.html" target="_top" xlink:title="SpatialForceVector.cpp">
<polygon fill="none" stroke="#000000" points="18.801,-62 18.801,-81 145.801,-81 145.801,-62 18.801,-62"/>
<text text-anchor="middle" x="82.301" y="-69" font-family="FreeSans.ttf" font-size="10.00" fill="#000000">SpatialForceVector.cpp</text>
</a>
</g>
</g>
<!-- Node25&#45;&gt;Node41 -->
<g id="edge53" class="edge">
<title>Node25&#45;&gt;Node41</title>
<path fill="none" stroke="#191970" d="M4455.7663,-188.7949C3971.0718,-187.1346 1054.028,-173.6247 172.301,-87 158.4154,-85.6358 143.4414,-83.378 129.768,-81.002"/>
<polygon fill="#191970" stroke="#191970" points="4456.0841,-192.2959 4466.0959,-188.8298 4456.1078,-185.296 4456.0841,-192.2959"/>
</g>
<!-- Node100 -->
<g id="node40" class="node">
<title>Node100</title>
<g id="a_node40"><a xlink:href="SpatialMomentum_8h.html" target="_top" xlink:title="SpatialMomentum.h">
<polygon fill="none" stroke="#ff0000" points="4354.801,-123.5 4354.801,-142.5 4469.801,-142.5 4469.801,-123.5 4354.801,-123.5"/>
<text text-anchor="middle" x="4412.301" y="-130.5" font-family="FreeSans.ttf" font-size="10.00" fill="#000000">SpatialMomentum.h</text>
</a>
</g>
</g>
<!-- Node25&#45;&gt;Node100 -->
<g id="edge40" class="edge">
<title>Node25&#45;&gt;Node100</title>
<path fill="none" stroke="#191970" d="M4495.9747,-174.8368C4475.7289,-164.7139 4449.0368,-151.3679 4431.3032,-142.5011"/>
<polygon fill="#191970" stroke="#191970" points="4494.538,-178.0316 4505.0475,-179.3733 4497.6685,-171.7706 4494.538,-178.0316"/>
</g>
<!-- Node190 -->
<g id="node41" class="node">
<title>Node190</title>
<g id="a_node41"><a xlink:href="Wrench_8h.html" target="_top" xlink:title="Wrench.h">
<polygon fill="none" stroke="#ff0000" points="4273.301,-123.5 4273.301,-142.5 4335.301,-142.5 4335.301,-123.5 4273.301,-123.5"/>
<text text-anchor="middle" x="4304.301" y="-130.5" font-family="FreeSans.ttf" font-size="10.00" fill="#000000">Wrench.h</text>
</a>
</g>
</g>
<!-- Node25&#45;&gt;Node190 -->
<g id="edge46" class="edge">
<title>Node25&#45;&gt;Node190</title>
<path fill="none" stroke="#191970" d="M4476.5842,-176.8539C4433.838,-165.9731 4372.3757,-150.3281 4335.5853,-140.9633"/>
<polygon fill="#191970" stroke="#191970" points="4475.9273,-180.2982 4486.4816,-179.3733 4477.6541,-173.5145 4475.9273,-180.2982"/>
</g>
<!-- Node220 -->
<g id="node42" class="node">
<title>Node220</title>
<g id="a_node42"><a xlink:href="PositionRaw_8cpp.html" target="_top" xlink:title="PositionRaw.cpp">
<polygon fill="none" stroke="#000000" points="4579.301,-123.5 4579.301,-142.5 4675.301,-142.5 4675.301,-123.5 4579.301,-123.5"/>
<text text-anchor="middle" x="4627.301" y="-130.5" font-family="FreeSans.ttf" font-size="10.00" fill="#000000">PositionRaw.cpp</text>
</a>
</g>
</g>
<!-- Node25&#45;&gt;Node220 -->
<g id="edge51" class="edge">
<title>Node25&#45;&gt;Node220</title>
<path fill="none" stroke="#191970" d="M4551.0442,-174.46C4569.476,-164.4388 4593.4594,-151.3993 4609.5654,-142.6427"/>
<polygon fill="#191970" stroke="#191970" points="4549.3559,-171.394 4542.2422,-179.2455 4552.6995,-177.5438 4549.3559,-171.394"/>
</g>
<!-- Node221 -->
<g id="node43" class="node">
<title>Node221</title>
<g id="a_node43"><a xlink:href="RotationRaw_8cpp.html" target="_top" xlink:title="RotationRaw.cpp">
<polygon fill="none" stroke="#000000" points="4693.301,-123.5 4693.301,-142.5 4791.301,-142.5 4791.301,-123.5 4693.301,-123.5"/>
<text text-anchor="middle" x="4742.301" y="-130.5" font-family="FreeSans.ttf" font-size="10.00" fill="#000000">RotationRaw.cpp</text>
</a>
</g>
</g>
<!-- Node25&#45;&gt;Node221 -->
<g id="edge52" class="edge">
<title>Node25&#45;&gt;Node221</title>
<path fill="none" stroke="#191970" d="M4571.5949,-176.8511C4611.7103,-166.5462 4668.4545,-151.9697 4705.3145,-142.5011"/>
<polygon fill="#191970" stroke="#191970" points="4570.5912,-173.4952 4561.7765,-179.3733 4572.3329,-180.2751 4570.5912,-173.4952"/>
</g>
<!-- Node102 -->
<g id="node44" class="node">
<title>Node102</title>
<g id="a_node44"><a xlink:href="TestUtils_8cpp.html" target="_top" xlink:title="TestUtils.cpp">
<polygon fill="none" stroke="#000000" points="4809.801,-123.5 4809.801,-142.5 4888.801,-142.5 4888.801,-123.5 4809.801,-123.5"/>
<text text-anchor="middle" x="4849.301" y="-130.5" font-family="FreeSans.ttf" font-size="10.00" fill="#000000">TestUtils.cpp</text>
</a>
</g>
</g>
<!-- Node25&#45;&gt;Node102 -->
<g id="edge56" class="edge">
<title>Node25&#45;&gt;Node102</title>
<path fill="none" stroke="#191970" d="M4592.7018,-178.3052C4648.6267,-169.3917 4729.7048,-156.0823 4800.301,-143 4803.3743,-142.4305 4806.5522,-141.8234 4809.7446,-141.2005"/>
<polygon fill="#191970" stroke="#191970" points="4591.8868,-174.8908 4582.5604,-179.9174 4592.9859,-181.804 4591.8868,-174.8908"/>
</g>
<!-- Node103 -->
<g id="node45" class="node">
<title>Node103</title>
<g id="a_node45"><a xlink:href="DynamicsUtils_8h.html" target="_top" xlink:title="DynamicsUtils.h">
<polygon fill="none" stroke="#000000" points="4906.801,-123.5 4906.801,-142.5 5003.801,-142.5 5003.801,-123.5 4906.801,-123.5"/>
<text text-anchor="middle" x="4955.301" y="-130.5" font-family="FreeSans.ttf" font-size="10.00" fill="#000000">DynamicsUtils.h</text>
</a>
</g>
</g>
<!-- Node25&#45;&gt;Node103 -->
<g id="edge57" class="edge">
<title>Node25&#45;&gt;Node103</title>
<path fill="none" stroke="#191970" d="M4592.5769,-179.0028C4729.7399,-161.1089 4765.9834,-162.3744 4898.301,-143 4900.9851,-142.607 4903.737,-142.1856 4906.5126,-141.7463"/>
<polygon fill="#191970" stroke="#191970" points="4591.9823,-175.5508 4582.5241,-180.3248 4592.8951,-182.491 4591.9823,-175.5508"/>
</g>
<!-- Node222 -->
<g id="node46" class="node">
<title>Node222</title>
<g id="a_node46"><a xlink:href="JointState_8h.html" target="_top" xlink:title="JointState.h">
<polygon fill="none" stroke="#ff0000" points="4487.801,-123.5 4487.801,-142.5 4560.801,-142.5 4560.801,-123.5 4487.801,-123.5"/>
<text text-anchor="middle" x="4524.301" y="-130.5" font-family="FreeSans.ttf" font-size="10.00" fill="#000000">JointState.h</text>
</a>
</g>
</g>
<!-- Node25&#45;&gt;Node222 -->
<g id="edge58" class="edge">
<title>Node25&#45;&gt;Node222</title>
<path fill="none" stroke="#191970" d="M4524.301,-169.1575C4524.301,-160.155 4524.301,-149.9199 4524.301,-142.6427"/>
<polygon fill="#191970" stroke="#191970" points="4520.8011,-169.2455 4524.301,-179.2455 4527.8011,-169.2456 4520.8011,-169.2455"/>
</g>
<!-- Node27 -->
<g id="node4" class="node">
<title>Node27</title>
<g id="a_node4"><a xlink:href="PrivateUtils_8h.html" target="_top" xlink:title="PrivateUtils.h">
<polygon fill="none" stroke="#ff0000" points="2105.801,-62 2105.801,-81 2188.801,-81 2188.801,-62 2105.801,-62"/>
<text text-anchor="middle" x="2147.301" y="-69" font-family="FreeSans.ttf" font-size="10.00" fill="#000000">PrivateUtils.h</text>
</a>
</g>
</g>
<!-- Node26&#45;&gt;Node27 -->
<g id="edge3" class="edge">
<title>Node26&#45;&gt;Node27</title>
<path fill="none" stroke="#191970" d="M2382.8212,-124.0796C2333.9445,-115.8145 2260.9772,-102.4848 2198.301,-87 2191.2935,-85.2687 2183.8217,-83.1535 2176.819,-81.0491"/>
<polygon fill="#191970" stroke="#191970" points="2382.4317,-127.563 2392.8729,-125.7653 2383.5895,-120.6595 2382.4317,-127.563"/>
</g>
<!-- Node26&#45;&gt;Node31 -->
<g id="edge14" class="edge">
<title>Node26&#45;&gt;Node31</title>
<path fill="none" stroke="#191970" d="M2383.0302,-132.79C2042.0403,-131.383 237.4023,-122.2767 193.301,-87 172.9791,-70.7445 172.3076,-36.5217 173.3481,-19.7217"/>
<polygon fill="#191970" stroke="#191970" points="2383.1392,-136.2904 2393.1534,-132.8313 2383.1678,-129.2905 2383.1392,-136.2904"/>
</g>
<!-- Node35 -->
<g id="node7" class="node">
<title>Node35</title>
<g id="a_node7"><a xlink:href="ArticulatedBodyInertia_8cpp.html" target="_top" xlink:title="ArticulatedBodyInertia.cpp">
<polygon fill="none" stroke="#000000" points="4101.301,-62 4101.301,-81 4247.301,-81 4247.301,-62 4101.301,-62"/>
<text text-anchor="middle" x="4174.301" y="-69" font-family="FreeSans.ttf" font-size="10.00" fill="#000000">ArticulatedBodyInertia.cpp</text>
</a>
</g>
</g>
<!-- Node26&#45;&gt;Node35 -->
<g id="edge6" class="edge">
<title>Node26&#45;&gt;Node35</title>
<path fill="none" stroke="#191970" d="M2493.8544,-132.6425C2744.5622,-130.8467 3772.1945,-121.4838 4092.301,-87 4104.9773,-85.6344 4118.6281,-83.3762 4131.0855,-81.0003"/>
<polygon fill="#191970" stroke="#191970" points="2493.5115,-129.1447 2483.5365,-132.7152 2493.561,-136.1445 2493.5115,-129.1447"/>
</g>
<!-- Node36 -->
<g id="node8" class="node">
<title>Node36</title>
<g id="a_node8"><a xlink:href="CubicSpline_8cpp.html" target="_top" xlink:title="CubicSpline.cpp">
<polygon fill="none" stroke="#000000" points="2207.301,-62 2207.301,-81 2301.301,-81 2301.301,-62 2207.301,-62"/>
<text text-anchor="middle" x="2254.301" y="-69" font-family="FreeSans.ttf" font-size="10.00" fill="#000000">CubicSpline.cpp</text>
</a>
</g>
</g>
<!-- Node26&#45;&gt;Node36 -->
<g id="edge7" class="edge">
<title>Node26&#45;&gt;Node36</title>
<path fill="none" stroke="#191970" d="M2399.7084,-120.1009C2364.8104,-108.4366 2314.2287,-91.5302 2282.8491,-81.0419"/>
<polygon fill="#191970" stroke="#191970" points="2398.9572,-123.54 2409.551,-123.3906 2401.1763,-116.9011 2398.9572,-123.54"/>
</g>
<!-- Node37 -->
<g id="node9" class="node">
<title>Node37</title>
<g id="a_node9"><a xlink:href="Direction_8cpp.html" target="_top" xlink:title="Direction.cpp">
<polygon fill="none" stroke="#000000" points="2319.801,-62 2319.801,-81 2400.801,-81 2400.801,-62 2319.801,-62"/>
<text text-anchor="middle" x="2360.301" y="-69" font-family="FreeSans.ttf" font-size="10.00" fill="#000000">Direction.cpp</text>
</a>
</g>
</g>
<!-- Node26&#45;&gt;Node37 -->
<g id="edge8" class="edge">
<title>Node26&#45;&gt;Node37</title>
<path fill="none" stroke="#191970" d="M2418.1974,-117.1491C2403.7045,-105.722 2384.6204,-90.6749 2372.4029,-81.0419"/>
<polygon fill="#191970" stroke="#191970" points="2416.0937,-119.9475 2426.1135,-123.3906 2420.4278,-114.4506 2416.0937,-119.9475"/>
</g>
<!-- Node38 -->
<g id="node10" class="node">
<title>Node38</title>
<g id="a_node10"><a xlink:href="InertiaNonLinearParametrization_8cpp.html" target="_top" xlink:title="InertiaNonLinearParametrization.cpp">
<polygon fill="none" stroke="#000000" points="2418.801,-62 2418.801,-81 2613.801,-81 2613.801,-62 2418.801,-62"/>
<text text-anchor="middle" x="2516.301" y="-69" font-family="FreeSans.ttf" font-size="10.00" fill="#000000">InertiaNonLinearParametrization.cpp</text>
</a>
</g>
</g>
<!-- Node26&#45;&gt;Node38 -->
<g id="edge9" class="edge">
<title>Node26&#45;&gt;Node38</title>
<path fill="none" stroke="#191970" d="M2458.4046,-117.1491C2472.8975,-105.722 2491.9816,-90.6749 2504.1991,-81.0419"/>
<polygon fill="#191970" stroke="#191970" points="2456.1741,-114.4506 2450.4885,-123.3906 2460.5083,-119.9475 2456.1741,-114.4506"/>
</g>
<!-- Node39 -->
<g id="node11" class="node">
<title>Node39</title>
<g id="a_node11"><a xlink:href="Rotation_8cpp.html" target="_top" xlink:title="Rotation.cpp">
<polygon fill="none" stroke="#000000" points="4265.801,-62 4265.801,-81 4342.801,-81 4342.801,-62 4265.801,-62"/>
<text text-anchor="middle" x="4304.301" y="-69" font-family="FreeSans.ttf" font-size="10.00" fill="#000000">Rotation.cpp</text>
</a>
</g>
</g>
<!-- Node26&#45;&gt;Node39 -->
<g id="edge10" class="edge">
<title>Node26&#45;&gt;Node39</title>
<path fill="none" stroke="#191970" d="M2493.5963,-132.5445C2779.0174,-130.0669 4079.1397,-117.1961 4256.301,-87 4263.8976,-85.7052 4271.9435,-83.469 4279.232,-81.0917"/>
<polygon fill="#191970" stroke="#191970" points="2493.4531,-129.0455 2483.4836,-132.6316 2493.5134,-136.0453 2493.4531,-129.0455"/>
</g>
<!-- Node40 -->
<g id="node12" class="node">
<title>Node40</title>
<g id="a_node12"><a xlink:href="SO3Utils_8cpp.html" target="_top" xlink:title="SO3Utils.cpp">
<polygon fill="none" stroke="#000000" points="2631.801,-62 2631.801,-81 2710.801,-81 2710.801,-62 2631.801,-62"/>
<text text-anchor="middle" x="2671.301" y="-69" font-family="FreeSans.ttf" font-size="10.00" fill="#000000">SO3Utils.cpp</text>
</a>
</g>
</g>
<!-- Node26&#45;&gt;Node40 -->
<g id="edge11" class="edge">
<title>Node26&#45;&gt;Node40</title>
<path fill="none" stroke="#191970" d="M2490.1409,-121.1161C2527.369,-112.3374 2578.6476,-99.7449 2623.301,-87 2629.7008,-85.1734 2636.5311,-83.0652 2642.9724,-81.0037"/>
<polygon fill="#191970" stroke="#191970" points="2488.9668,-117.7964 2480.0305,-123.4879 2490.5656,-124.6114 2488.9668,-117.7964"/>
</g>
<!-- Node26&#45;&gt;Node41 -->
<g id="edge12" class="edge">
<title>Node26&#45;&gt;Node41</title>
<path fill="none" stroke="#191970" d="M2382.7856,-132.4646C2055.7615,-129.2325 387.1542,-111.6363 160.301,-87 148.2223,-85.6883 135.231,-83.4468 123.3816,-81.0698"/>
<polygon fill="#191970" stroke="#191970" points="2382.9268,-135.966 2392.9608,-132.5648 2382.9958,-128.9664 2382.9268,-135.966"/>
</g>
<!-- Node42 -->
<g id="node14" class="node">
<title>Node42</title>
<g id="a_node14"><a xlink:href="SpatialInertia_8cpp.html" target="_top" xlink:title="SpatialInertia.cpp">
<polygon fill="none" stroke="#000000" points="4361.301,-62 4361.301,-81 4463.301,-81 4463.301,-62 4361.301,-62"/>
<text text-anchor="middle" x="4412.301" y="-69" font-family="FreeSans.ttf" font-size="10.00" fill="#000000">SpatialInertia.cpp</text>
</a>
</g>
</g>
<!-- Node26&#45;&gt;Node42 -->
<g id="edge13" class="edge">
<title>Node26&#45;&gt;Node42</title>
<path fill="none" stroke="#191970" d="M2493.6275,-132.4251C2788.0281,-129.2648 4164.3093,-113.1888 4352.301,-87 4361.678,-85.6937 4371.6982,-83.4539 4380.8113,-81.0768"/>
<polygon fill="#191970" stroke="#191970" points="2493.5769,-128.9253 2483.6149,-132.5321 2493.6517,-135.9249 2493.5769,-128.9253"/>
</g>
<!-- Node43 -->
<g id="node15" class="node">
<title>Node43</title>
<g id="a_node15"><a xlink:href="TransformDerivative_8cpp.html" target="_top" xlink:title="TransformDerivative.cpp">
<polygon fill="none" stroke="#000000" points="2728.801,-62 2728.801,-81 2865.801,-81 2865.801,-62 2728.801,-62"/>
<text text-anchor="middle" x="2797.301" y="-69" font-family="FreeSans.ttf" font-size="10.00" fill="#000000">TransformDerivative.cpp</text>
</a>
</g>
</g>
<!-- Node26&#45;&gt;Node43 -->
<g id="edge15" class="edge">
<title>Node26&#45;&gt;Node43</title>
<path fill="none" stroke="#191970" d="M2493.5419,-124.6068C2550.4705,-115.8124 2641.7386,-101.3098 2720.301,-87 2730.3626,-85.1673 2741.1377,-83.0781 2751.3446,-81.04"/>
<polygon fill="#191970" stroke="#191970" points="2492.673,-121.1993 2483.3225,-126.1812 2493.7388,-128.1177 2492.673,-121.1993"/>
</g>
<!-- Node44 -->
<g id="node16" class="node">
<title>Node44</title>
<g id="a_node16"><a xlink:href="AttitudeEstimatorUtils_8h.html" target="_top" xlink:title="AttitudeEstimatorUtils.h">
<polygon fill="none" stroke="#ff0000" points="2884.301,-62 2884.301,-81 3018.301,-81 3018.301,-62 2884.301,-62"/>
<text text-anchor="middle" x="2951.301" y="-69" font-family="FreeSans.ttf" font-size="10.00" fill="#000000">AttitudeEstimatorUtils.h</text>
</a>
</g>
</g>
<!-- Node26&#45;&gt;Node44 -->
<g id="edge16" class="edge">
<title>Node26&#45;&gt;Node44</title>
<path fill="none" stroke="#191970" d="M2493.4434,-128.9095C2576.5423,-122.3585 2738.6896,-108.0707 2875.301,-87 2885.9479,-85.3578 2897.3624,-83.2283 2908.025,-81.0765"/>
<polygon fill="#191970" stroke="#191970" points="2493.1627,-125.4206 2483.4656,-129.6887 2493.7078,-132.3994 2493.1627,-125.4206"/>
</g>
<!-- Node48 -->
<g id="node17" class="node">
<title>Node48</title>
<g id="a_node17"><a xlink:href="GravityCompensationHelpers_8h.html" target="_top" xlink:title="GravityCompensationHelpers.h">
<polygon fill="none" stroke="#ff0000" points="3036.301,-62 3036.301,-81 3206.301,-81 3206.301,-62 3036.301,-62"/>
<text text-anchor="middle" x="3121.301" y="-69" font-family="FreeSans.ttf" font-size="10.00" fill="#000000">GravityCompensationHelpers.h</text>
</a>
</g>
</g>
<!-- Node26&#45;&gt;Node48 -->
<g id="edge17" class="edge">
<title>Node26&#45;&gt;Node48</title>
<path fill="none" stroke="#191970" d="M2493.508,-130.2667C2597.9884,-124.7442 2831.6972,-110.7211 3027.301,-87 3040.6008,-85.3871 3054.8949,-83.2431 3068.2227,-81.0656"/>
<polygon fill="#191970" stroke="#191970" points="2493.3099,-126.7722 2483.5066,-130.7902 2493.6759,-133.7626 2493.3099,-126.7722"/>
</g>
<!-- Node50 -->
<g id="node18" class="node">
<title>Node50</title>
<g id="a_node18"><a xlink:href="KalmanFilter_8h.html" target="_top" xlink:title="KalmanFilter.h">
<polygon fill="none" stroke="#ff0000" points="3224.301,-62 3224.301,-81 3310.301,-81 3310.301,-62 3224.301,-62"/>
<text text-anchor="middle" x="3267.301" y="-69" font-family="FreeSans.ttf" font-size="10.00" fill="#000000">KalmanFilter.h</text>
</a>
</g>
</g>
<!-- Node26&#45;&gt;Node50 -->
<g id="edge18" class="edge">
<title>Node26&#45;&gt;Node50</title>
<path fill="none" stroke="#191970" d="M2493.5731,-131.3839C2647.063,-126.6325 3076.3457,-111.4843 3215.301,-87 3223.2795,-85.5942 3231.7659,-83.3836 3239.5185,-81.0677"/>
<polygon fill="#191970" stroke="#191970" points="2493.3245,-127.8898 2483.4366,-131.6949 2493.5393,-134.8865 2493.3245,-127.8898"/>
</g>
<!-- Node52 -->
<g id="node19" class="node">
<title>Node52</title>
<g id="a_node19"><a xlink:href="BerdyHelper_8cpp.html" target="_top" xlink:title="BerdyHelper.cpp">
<polygon fill="none" stroke="#000000" points="3328.801,-62 3328.801,-81 3425.801,-81 3425.801,-62 3328.801,-62"/>
<text text-anchor="middle" x="3377.301" y="-69" font-family="FreeSans.ttf" font-size="10.00" fill="#000000">BerdyHelper.cpp</text>
</a>
</g>
</g>
<!-- Node26&#45;&gt;Node52 -->
<g id="edge19" class="edge">
<title>Node26&#45;&gt;Node52</title>
<path fill="none" stroke="#191970" d="M2493.3672,-131.6313C2660.2885,-127.2443 3158.9868,-112.3211 3319.301,-87 3328.1549,-85.6016 3337.6056,-83.3935 3346.2529,-81.0775"/>
<polygon fill="#191970" stroke="#191970" points="2493.2304,-128.1336 2483.3251,-131.893 2493.4129,-135.1312 2493.2304,-128.1336"/>
</g>
<!-- Node53 -->
<g id="node20" class="node">
<title>Node53</title>
<g id="a_node20"><a xlink:href="BerdySparseMAPSolver_8cpp.html" target="_top" xlink:title="BerdySparseMAPSolver.cpp">
<polygon fill="none" stroke="#000000" points="3443.801,-62 3443.801,-81 3592.801,-81 3592.801,-62 3443.801,-62"/>
<text text-anchor="middle" x="3518.301" y="-69" font-family="FreeSans.ttf" font-size="10.00" fill="#000000">BerdySparseMAPSolver.cpp</text>
</a>
</g>
</g>
<!-- Node26&#45;&gt;Node53 -->
<g id="edge20" class="edge">
<title>Node26&#45;&gt;Node53</title>
<path fill="none" stroke="#191970" d="M2493.6403,-131.458C2675.0427,-126.2442 3250.6268,-108.3996 3435.301,-87 3447.8238,-85.5489 3461.2997,-83.3235 3473.6751,-81.0078"/>
<polygon fill="#191970" stroke="#191970" points="2493.423,-127.9627 2483.5272,-131.7473 2493.6232,-134.9598 2493.423,-127.9627"/>
</g>
<!-- Node54 -->
<g id="node21" class="node">
<title>Node54</title>
<g id="a_node21"><a xlink:href="ExtendedKalmanFilter_8cpp.html" target="_top" xlink:title="ExtendedKalmanFilter.cpp">
<polygon fill="none" stroke="#000000" points="3610.801,-62 3610.801,-81 3753.801,-81 3753.801,-62 3610.801,-62"/>
<text text-anchor="middle" x="3682.301" y="-69" font-family="FreeSans.ttf" font-size="10.00" fill="#000000">ExtendedKalmanFilter.cpp</text>
</a>
</g>
</g>
<!-- Node26&#45;&gt;Node54 -->
<g id="edge21" class="edge">
<title>Node26&#45;&gt;Node54</title>
<path fill="none" stroke="#191970" d="M2493.6024,-131.9296C2694.2367,-127.8722 3383.4887,-112.3722 3602.301,-87 3614.3866,-85.5986 3627.3805,-83.3896 3639.3085,-81.0736"/>
<polygon fill="#191970" stroke="#191970" points="2493.5129,-128.4306 2483.5853,-132.1308 2493.6536,-135.4291 2493.5129,-128.4306"/>
</g>
<!-- Node55 -->
<g id="node22" class="node">
<title>Node55</title>
<g id="a_node22"><a xlink:href="ExternalWrenchesEstimation_8cpp.html" target="_top" xlink:title="ExternalWrenchesEstimation.cpp">
<polygon fill="none" stroke="#000000" points="4481.801,-62 4481.801,-81 4658.801,-81 4658.801,-62 4481.801,-62"/>
<text text-anchor="middle" x="4570.301" y="-69" font-family="FreeSans.ttf" font-size="10.00" fill="#000000">ExternalWrenchesEstimation.cpp</text>
</a>
</g>
</g>
<!-- Node26&#45;&gt;Node55 -->
<g id="edge22" class="edge">
<title>Node26&#45;&gt;Node55</title>
<path fill="none" stroke="#191970" d="M2493.6639,-132.7542C2777.5659,-131.3406 4072.242,-122.9971 4472.301,-87 4487.3983,-85.6415 4503.6963,-83.3855 4518.5856,-81.0094"/>
<polygon fill="#191970" stroke="#191970" points="2493.588,-129.2545 2483.6053,-132.8035 2493.6224,-136.2544 2493.588,-129.2545"/>
</g>
<!-- Node56 -->
<g id="node23" class="node">
<title>Node56</title>
<g id="a_node23"><a xlink:href="ExtWrenchesAndJointTorquesEstimator_8cpp.html" target="_top" xlink:title="ExtWrenchesAndJointTorques\lEstimator.cpp">
<polygon fill="none" stroke="#000000" points="4676.301,-56.5 4676.301,-86.5 4834.301,-86.5 4834.301,-56.5 4676.301,-56.5"/>
<text text-anchor="start" x="4684.301" y="-74.5" font-family="FreeSans.ttf" font-size="10.00" fill="#000000">ExtWrenchesAndJointTorques</text>
<text text-anchor="middle" x="4755.301" y="-63.5" font-family="FreeSans.ttf" font-size="10.00" fill="#000000">Estimator.cpp</text>
</a>
</g>
</g>
<!-- Node26&#45;&gt;Node56 -->
<g id="edge23" class="edge">
<title>Node26&#45;&gt;Node56</title>
<path fill="none" stroke="#191970" d="M2493.6738,-132.3745C2816.2349,-128.6621 4446.2405,-108.9368 4668.301,-87 4670.8965,-86.7436 4673.5309,-86.4529 4676.1877,-86.1336"/>
<polygon fill="#191970" stroke="#191970" points="2493.591,-128.8751 2483.6318,-132.4898 2493.6714,-135.8747 2493.591,-128.8751"/>
</g>
<!-- Node57 -->
<g id="node24" class="node">
<title>Node57</title>
<g id="a_node24"><a xlink:href="SimpleLeggedOdometry_8cpp.html" target="_top" xlink:title="SimpleLeggedOdometry.cpp">
<polygon fill="none" stroke="#000000" points="3771.801,-62 3771.801,-81 3924.801,-81 3924.801,-62 3771.801,-62"/>
<text text-anchor="middle" x="3848.301" y="-69" font-family="FreeSans.ttf" font-size="10.00" fill="#000000">SimpleLeggedOdometry.cpp</text>
</a>
</g>
</g>
<!-- Node26&#45;&gt;Node57 -->
<g id="edge24" class="edge">
<title>Node26&#45;&gt;Node57</title>
<path fill="none" stroke="#191970" d="M2493.8067,-132.1518C2712.0149,-128.6502 3511.2667,-114.208 3763.301,-87 3776.2759,-85.5993 3790.2488,-83.3605 3803.043,-81.015"/>
<polygon fill="#191970" stroke="#191970" points="2493.5012,-128.6562 2483.5583,-132.3151 2493.6128,-135.6553 2493.5012,-128.6562"/>
</g>
<!-- Node58 -->
<g id="node25" class="node">
<title>Node58</title>
<g id="a_node25"><a xlink:href="KinDynComputations_8cpp.html" target="_top" xlink:title="KinDynComputations.cpp">
<polygon fill="none" stroke="#000000" points="3943.301,-62 3943.301,-81 4083.301,-81 4083.301,-62 3943.301,-62"/>
<text text-anchor="middle" x="4013.301" y="-69" font-family="FreeSans.ttf" font-size="10.00" fill="#000000">KinDynComputations.cpp</text>
</a>
</g>
</g>
<!-- Node26&#45;&gt;Node58 -->
<g id="edge25" class="edge">
<title>Node26&#45;&gt;Node58</title>
<path fill="none" stroke="#191970" d="M2493.4823,-132.5084C2728.4865,-130.2291 3646.9568,-119.3877 3934.301,-87 3946.3843,-85.638 3959.3787,-83.4116 3971.2694,-81.0656"/>
<polygon fill="#191970" stroke="#191970" points="2493.4249,-129.0087 2483.4589,-132.6044 2493.492,-136.0084 2493.4249,-129.0087"/>
</g>
<!-- Node59 -->
<g id="node26" class="node">
<title>Node59</title>
<g id="a_node26"><a xlink:href="BoundingBoxHelpers_8cpp.html" target="_top" xlink:title="BoundingBoxHelpers.cpp">
<polygon fill="none" stroke="#000000" points="202.801,-62 202.801,-81 341.801,-81 341.801,-62 202.801,-62"/>
<text text-anchor="middle" x="272.301" y="-69" font-family="FreeSans.ttf" font-size="10.00" fill="#000000">BoundingBoxHelpers.cpp</text>
</a>
</g>
</g>
<!-- Node26&#45;&gt;Node59 -->
<g id="edge26" class="edge">
<title>Node26&#45;&gt;Node59</title>
<path fill="none" stroke="#191970" d="M2383.0344,-132.3583C2073.0779,-128.6823 557.2268,-109.6645 350.301,-87 338.2235,-85.6772 325.2325,-83.4322 313.3832,-81.0555"/>
<polygon fill="#191970" stroke="#191970" points="2383.0848,-135.859 2393.1255,-132.4776 2383.1676,-128.8595 2383.0848,-135.859"/>
</g>
<!-- Node60 -->
<g id="node27" class="node">
<title>Node60</title>
<g id="a_node27"><a xlink:href="ConvexHullHelpers_8cpp.html" target="_top" xlink:title="ConvexHullHelpers.cpp">
<polygon fill="none" stroke="#000000" points="359.801,-62 359.801,-81 490.801,-81 490.801,-62 359.801,-62"/>
<text text-anchor="middle" x="425.301" y="-69" font-family="FreeSans.ttf" font-size="10.00" fill="#000000">ConvexHullHelpers.cpp</text>
</a>
</g>
</g>
<!-- Node26&#45;&gt;Node60 -->
<g id="edge27" class="edge">
<title>Node26&#45;&gt;Node60</title>
<path fill="none" stroke="#191970" d="M2382.784,-132.2792C2085.8238,-128.3438 691.3476,-108.8286 500.301,-87 488.6762,-85.6718 476.1811,-83.4252 464.7877,-81.0485"/>
<polygon fill="#191970" stroke="#191970" points="2382.8356,-135.7801 2392.881,-132.4126 2382.9281,-128.7807 2382.8356,-135.7801"/>
</g>
<!-- Node61 -->
<g id="node28" class="node">
<title>Node61</title>
<g id="a_node28"><a xlink:href="InverseKinematicsData_8cpp.html" target="_top" xlink:title="InverseKinematicsData.cpp">
<polygon fill="none" stroke="#000000" points="508.801,-62 508.801,-81 659.801,-81 659.801,-62 508.801,-62"/>
<text text-anchor="middle" x="584.301" y="-69" font-family="FreeSans.ttf" font-size="10.00" fill="#000000">InverseKinematicsData.cpp</text>
</a>
</g>
</g>
<!-- Node26&#45;&gt;Node61 -->
<g id="edge28" class="edge">
<title>Node26&#45;&gt;Node61</title>
<path fill="none" stroke="#191970" d="M2382.7689,-132.711C2121.5572,-131.1749 1013.4734,-122.6398 669.301,-87 656.1709,-85.6404 642.0239,-83.3839 629.1104,-81.0079"/>
<polygon fill="#191970" stroke="#191970" points="2383.1187,-136.213 2393.1387,-132.7709 2383.1592,-129.2131 2383.1187,-136.213"/>
</g>
<!-- Node62 -->
<g id="node29" class="node">
<title>Node62</title>
<g id="a_node29"><a xlink:href="InverseKinematicsNLP_8cpp.html" target="_top" xlink:title="InverseKinematicsNLP.cpp">
<polygon fill="none" stroke="#000000" points="677.801,-62 677.801,-81 822.801,-81 822.801,-62 677.801,-62"/>
<text text-anchor="middle" x="750.301" y="-69" font-family="FreeSans.ttf" font-size="10.00" fill="#000000">InverseKinematicsNLP.cpp</text>
</a>
</g>
</g>
<!-- Node26&#45;&gt;Node62 -->
<g id="edge29" class="edge">
<title>Node26&#45;&gt;Node62</title>
<path fill="none" stroke="#191970" d="M2383.1489,-132.5922C2137.6366,-130.5969 1142.5986,-120.5575 832.301,-87 819.7693,-85.6447 806.2848,-83.4205 793.9424,-81.0744"/>
<polygon fill="#191970" stroke="#191970" points="2383.2322,-136.0929 2393.26,-132.6733 2383.2884,-129.0931 2383.2322,-136.0929"/>
</g>
<!-- Node63 -->
<g id="node30" class="node">
<title>Node63</title>
<g id="a_node30"><a xlink:href="DenavitHartenberg_8cpp.html" target="_top" xlink:title="DenavitHartenberg.cpp">
<polygon fill="none" stroke="#000000" points="841.301,-62 841.301,-81 971.301,-81 971.301,-62 841.301,-62"/>
<text text-anchor="middle" x="906.301" y="-69" font-family="FreeSans.ttf" font-size="10.00" fill="#000000">DenavitHartenberg.cpp</text>
</a>
</g>
</g>
<!-- Node26&#45;&gt;Node63 -->
<g id="edge30" class="edge">
<title>Node26&#45;&gt;Node63</title>
<path fill="none" stroke="#191970" d="M2383.0605,-132.5292C2151.7835,-130.3615 1260.383,-119.9946 981.301,-87 969.8135,-85.6419 957.4719,-83.4167 946.1834,-81.0707"/>
<polygon fill="#191970" stroke="#191970" points="2383.2198,-136.0307 2393.2518,-132.6234 2383.2846,-129.031 2383.2198,-136.0307"/>
</g>
<!-- Node64 -->
<g id="node31" class="node">
<title>Node64</title>
<g id="a_node31"><a xlink:href="Dynamics_8cpp.html" target="_top" xlink:title="Dynamics.cpp">
<polygon fill="none" stroke="#000000" points="4852.301,-62 4852.301,-81 4938.301,-81 4938.301,-62 4852.301,-62"/>
<text text-anchor="middle" x="4895.301" y="-69" font-family="FreeSans.ttf" font-size="10.00" fill="#000000">Dynamics.cpp</text>
</a>
</g>
</g>
<!-- Node26&#45;&gt;Node64 -->
<g id="edge31" class="edge">
<title>Node26&#45;&gt;Node64</title>
<path fill="none" stroke="#191970" d="M2493.7067,-132.8377C2831.2488,-131.7299 4604.5079,-124.1674 4843.301,-87 4851.5853,-85.7106 4860.3944,-83.4443 4868.3621,-81.0362"/>
<polygon fill="#191970" stroke="#191970" points="2493.67,-129.3377 2483.6814,-132.8701 2493.6926,-136.3377 2493.67,-129.3377"/>
</g>
<!-- Node65 -->
<g id="node32" class="node">
<title>Node65</title>
<g id="a_node32"><a xlink:href="DynamicsLinearization_8cpp.html" target="_top" xlink:title="DynamicsLinearization.cpp">
<polygon fill="none" stroke="#000000" points="989.801,-62 989.801,-81 1138.801,-81 1138.801,-62 989.801,-62"/>
<text text-anchor="middle" x="1064.301" y="-69" font-family="FreeSans.ttf" font-size="10.00" fill="#000000">DynamicsLinearization.cpp</text>
</a>
</g>
</g>
<!-- Node26&#45;&gt;Node65 -->
<g id="edge32" class="edge">
<title>Node26&#45;&gt;Node65</title>
<path fill="none" stroke="#191970" d="M2383.1428,-132.1304C2168.9861,-128.5839 1392.3954,-114.099 1147.301,-87 1134.625,-85.5985 1120.9788,-83.3594 1108.4857,-81.0139"/>
<polygon fill="#191970" stroke="#191970" points="2383.151,-135.6309 2393.2073,-132.2958 2383.2662,-128.6318 2383.151,-135.6309"/>
</g>
<!-- Node66 -->
<g id="node33" class="node">
<title>Node66</title>
<g id="a_node33"><a xlink:href="DynamicsLinearizationHelpers_8cpp.html" target="_top" xlink:title="DynamicsLinearizationHelpers.cpp">
<polygon fill="none" stroke="#000000" points="1156.301,-62 1156.301,-81 1342.301,-81 1342.301,-62 1156.301,-62"/>
<text text-anchor="middle" x="1249.301" y="-69" font-family="FreeSans.ttf" font-size="10.00" fill="#000000">DynamicsLinearizationHelpers.cpp</text>
</a>
</g>
</g>
<!-- Node26&#45;&gt;Node66 -->
<g id="edge33" class="edge">
<title>Node26&#45;&gt;Node66</title>
<path fill="none" stroke="#191970" d="M2382.9554,-131.4407C2191.1481,-125.9138 1555.5428,-106.5403 1352.301,-87 1337.0007,-85.529 1320.5056,-83.326 1305.2958,-81.0393"/>
<polygon fill="#191970" stroke="#191970" points="2382.9899,-134.943 2393.0863,-131.7316 2383.1909,-127.9459 2382.9899,-134.943"/>
</g>
<!-- Node67 -->
<g id="node34" class="node">
<title>Node67</title>
<g id="a_node34"><a xlink:href="Jacobians_8cpp.html" target="_top" xlink:title="Jacobians.cpp">
<polygon fill="none" stroke="#000000" points="1360.801,-62 1360.801,-81 1443.801,-81 1443.801,-62 1360.801,-62"/>
<text text-anchor="middle" x="1402.301" y="-69" font-family="FreeSans.ttf" font-size="10.00" fill="#000000">Jacobians.cpp</text>
</a>
</g>
</g>
<!-- Node26&#45;&gt;Node67 -->
<g id="edge34" class="edge">
<title>Node26&#45;&gt;Node67</title>
<path fill="none" stroke="#191970" d="M2383.2058,-132.225C2203.289,-129.4123 1634.2001,-118.2125 1453.301,-87 1445.3672,-85.6311 1436.9357,-83.4025 1429.2611,-81.0566"/>
<polygon fill="#191970" stroke="#191970" points="2383.1854,-135.725 2393.2381,-132.3795 2383.2932,-128.7259 2383.1854,-135.725"/>
</g>
<!-- Node68 -->
<g id="node35" class="node">
<title>Node68</title>
<g id="a_node35"><a xlink:href="Model_8cpp.html" target="_top" xlink:title="Model.cpp">
<polygon fill="none" stroke="#000000" points="1462.301,-62 1462.301,-81 1528.301,-81 1528.301,-62 1462.301,-62"/>
<text text-anchor="middle" x="1495.301" y="-69" font-family="FreeSans.ttf" font-size="10.00" fill="#000000">Model.cpp</text>
</a>
</g>
</g>
<!-- Node26&#45;&gt;Node68 -->
<g id="edge35" class="edge">
<title>Node26&#45;&gt;Node68</title>
<path fill="none" stroke="#191970" d="M2382.8226,-132.2997C2212.8705,-129.8182 1701.1189,-119.7535 1538.301,-87 1531.6105,-85.6541 1524.5625,-83.4632 1518.1522,-81.147"/>
<polygon fill="#191970" stroke="#191970" points="2382.9927,-135.8024 2393.0417,-132.4458 2383.0928,-128.8032 2382.9927,-135.8024"/>
</g>
<!-- Node69 -->
<g id="node36" class="node">
<title>Node69</title>
<g id="a_node36"><a xlink:href="URDFModelExport_8cpp.html" target="_top" xlink:title="URDFModelExport.cpp">
<polygon fill="none" stroke="#000000" points="1546.801,-62 1546.801,-81 1671.801,-81 1671.801,-62 1546.801,-62"/>
<text text-anchor="middle" x="1609.301" y="-69" font-family="FreeSans.ttf" font-size="10.00" fill="#000000">URDFModelExport.cpp</text>
</a>
</g>
</g>
<!-- Node26&#45;&gt;Node69 -->
<g id="edge36" class="edge">
<title>Node26&#45;&gt;Node69</title>
<path fill="none" stroke="#191970" d="M2383.1627,-132.5018C2257.8664,-130.7479 1942.3502,-122.8207 1681.301,-87 1670.5335,-85.5225 1658.9786,-83.3174 1648.3464,-81.0307"/>
<polygon fill="#191970" stroke="#191970" points="2383.228,-136.0029 2393.2734,-132.6356 2383.3206,-129.0035 2383.228,-136.0029"/>
</g>
<!-- Node70 -->
<g id="node37" class="node">
<title>Node70</title>
<g id="a_node37"><a xlink:href="AlglibInterface_8cpp.html" target="_top" xlink:title="AlglibInterface.cpp">
<polygon fill="none" stroke="#000000" points="1690.301,-62 1690.301,-81 1798.301,-81 1798.301,-62 1690.301,-62"/>
<text text-anchor="middle" x="1744.301" y="-69" font-family="FreeSans.ttf" font-size="10.00" fill="#000000">AlglibInterface.cpp</text>
</a>
</g>
</g>
<!-- Node26&#45;&gt;Node70 -->
<g id="edge37" class="edge">
<title>Node26&#45;&gt;Node70</title>
<path fill="none" stroke="#191970" d="M2383.0421,-132.0939C2272.864,-129.6009 2018.2853,-120.4007 1807.301,-87 1797.8446,-85.503 1787.7225,-83.2913 1778.4192,-81.0045"/>
<polygon fill="#191970" stroke="#191970" points="2383.1739,-135.5975 2393.2474,-132.3148 2383.3255,-128.5991 2383.1739,-135.5975"/>
</g>
<!-- Node71 -->
<g id="node38" class="node">
<title>Node71</title>
<g id="a_node38"><a xlink:href="ConstraintsGroup_8cpp.html" target="_top" xlink:title="ConstraintsGroup.cpp">
<polygon fill="none" stroke="#000000" points="1816.301,-62 1816.301,-81 1938.301,-81 1938.301,-62 1816.301,-62"/>
<text text-anchor="middle" x="1877.301" y="-69" font-family="FreeSans.ttf" font-size="10.00" fill="#000000">ConstraintsGroup.cpp</text>
</a>
</g>
</g>
<!-- Node26&#45;&gt;Node71 -->
<g id="edge38" class="edge">
<title>Node26&#45;&gt;Node71</title>
<path fill="none" stroke="#191970" d="M2383.0603,-130.0052C2292.0364,-124.5806 2104.9983,-111.3674 1948.301,-87 1938.0782,-85.4103 1927.1197,-83.2487 1916.9458,-81.0447"/>
<polygon fill="#191970" stroke="#191970" points="2382.9612,-133.5054 2393.1493,-130.5979 2383.3718,-126.5174 2382.9612,-133.5054"/>
</g>
<!-- Node72 -->
<g id="node39" class="node">
<title>Node72</title>
<g id="a_node39"><a xlink:href="FixedStepIntegrator_8cpp.html" target="_top" xlink:title="FixedStepIntegrator.cpp">
<polygon fill="none" stroke="#000000" points="1956.801,-62 1956.801,-81 2087.801,-81 2087.801,-62 1956.801,-62"/>
<text text-anchor="middle" x="2022.301" y="-69" font-family="FreeSans.ttf" font-size="10.00" fill="#000000">FixedStepIntegrator.cpp</text>
</a>
</g>
</g>
<!-- Node26&#45;&gt;Node72 -->
<g id="edge39" class="edge">
<title>Node26&#45;&gt;Node72</title>
<path fill="none" stroke="#191970" d="M2383.1929,-126.7646C2315.6231,-118.8434 2197.7021,-104.1253 2097.301,-87 2087.0778,-85.2562 2076.1217,-83.1361 2065.8285,-81.0309"/>
<polygon fill="#191970" stroke="#191970" points="2382.8537,-130.2487 2393.1917,-127.9302 2383.6642,-123.2958 2382.8537,-130.2487"/>
</g>
<!-- Node27&#45;&gt;Node29 -->
<g id="edge4" class="edge">
<title>Node27&#45;&gt;Node29</title>
<path fill="none" stroke="#191970" d="M2183.7293,-59.1742C2188.5831,-57.9027 2193.5307,-56.7897 2198.301,-56 2330.3789,-34.1356 3276.2918,-15.6523 3527.9398,-11.0828"/>
<polygon fill="#191970" stroke="#191970" points="2182.6412,-55.8449 2173.9849,-61.9538 2184.5614,-62.5764 2182.6412,-55.8449"/>
</g>
<!-- Node27&#45;&gt;Node31 -->
<g id="edge5" class="edge">
<title>Node27&#45;&gt;Node31</title>
<path fill="none" stroke="#191970" d="M2111.767,-59.1745C2106.9537,-57.8918 2102.0404,-56.7758 2097.301,-56 1911.4583,-25.5775 560.2005,-13.0539 241.5081,-10.506"/>
<polygon fill="#191970" stroke="#191970" points="2110.8394,-62.5497 2121.4193,-61.9858 2112.797,-55.8289 2110.8394,-62.5497"/>
</g>
<!-- Node100&#45;&gt;Node39 -->
<g id="edge41" class="edge">
<title>Node100&#45;&gt;Node39</title>
<path fill="none" stroke="#191970" d="M4386.6883,-118.415C4366.3871,-106.8546 4338.6064,-91.035 4321.0575,-81.0419"/>
<polygon fill="#191970" stroke="#191970" points="4385.0042,-121.4836 4395.426,-123.3906 4388.4681,-115.4007 4385.0042,-121.4836"/>
</g>
<!-- Node100&#45;&gt;Node42 -->
<g id="edge42" class="edge">
<title>Node100&#45;&gt;Node42</title>
<path fill="none" stroke="#191970" d="M4412.301,-113.2462C4412.301,-102.5519 4412.301,-89.814 4412.301,-81.2449"/>
<polygon fill="#191970" stroke="#191970" points="4408.8011,-113.3906 4412.301,-123.3906 4415.8011,-113.3907 4408.8011,-113.3906"/>
</g>
<!-- Node100&#45;&gt;Node55 -->
<g id="edge43" class="edge">
<title>Node100&#45;&gt;Node55</title>
<path fill="none" stroke="#191970" d="M4446.6044,-119.6477C4476.5228,-108.0023 4519.1882,-91.3952 4545.7868,-81.0419"/>
<polygon fill="#191970" stroke="#191970" points="4445.0379,-116.5016 4436.9885,-123.3906 4447.577,-123.0249 4445.0379,-116.5016"/>
</g>
<!-- Node100&#45;&gt;Node56 -->
<g id="edge44" class="edge">
<title>Node100&#45;&gt;Node56</title>
<path fill="none" stroke="#191970" d="M4475.4038,-121.6856C4531.9428,-111.5482 4615.1182,-96.6348 4676.108,-85.6993"/>
<polygon fill="#191970" stroke="#191970" points="4474.7437,-118.2481 4465.5184,-123.4581 4475.9792,-125.1382 4474.7437,-118.2481"/>
</g>
<!-- Node100&#45;&gt;Node64 -->
<g id="edge45" class="edge">
<title>Node100&#45;&gt;Node64</title>
<path fill="none" stroke="#191970" d="M4480.3576,-122.9405C4642.4514,-103.6055 4687.0591,-117.7191 4843.301,-87 4851.0654,-85.4734 4859.333,-83.2798 4866.9377,-81.0213"/>
<polygon fill="#191970" stroke="#191970" points="4479.5231,-119.5162 4470.0197,-124.1997 4480.3695,-126.4649 4479.5231,-119.5162"/>
</g>
<!-- Node190&#45;&gt;Node35 -->
<g id="edge47" class="edge">
<title>Node190&#45;&gt;Node35</title>
<path fill="none" stroke="#191970" d="M4274.7829,-119.0357C4250.2433,-107.4265 4215.9752,-91.2151 4194.4709,-81.0419"/>
<polygon fill="#191970" stroke="#191970" points="4273.4522,-122.278 4283.9885,-123.3906 4276.4457,-115.9504 4273.4522,-122.278"/>
</g>
<!-- Node190&#45;&gt;Node39 -->
<g id="edge48" class="edge">
<title>Node190&#45;&gt;Node39</title>
<path fill="none" stroke="#191970" d="M4304.301,-113.2462C4304.301,-102.5519 4304.301,-89.814 4304.301,-81.2449"/>
<polygon fill="#191970" stroke="#191970" points="4300.8011,-113.3906 4304.301,-123.3906 4307.8011,-113.3907 4300.8011,-113.3906"/>
</g>
<!-- Node190&#45;&gt;Node42 -->
<g id="edge49" class="edge">
<title>Node190&#45;&gt;Node42</title>
<path fill="none" stroke="#191970" d="M4329.9137,-118.415C4350.2149,-106.8546 4377.9956,-91.035 4395.5445,-81.0419"/>
<polygon fill="#191970" stroke="#191970" points="4328.1339,-115.4007 4321.176,-123.3906 4331.5978,-121.4836 4328.1339,-115.4007"/>
</g>
<!-- Node190&#45;&gt;Node58 -->
<g id="edge50" class="edge">
<title>Node190&#45;&gt;Node58</title>
<path fill="none" stroke="#191970" d="M4263.2352,-124.3211C4209.1794,-112.897 4114.4685,-92.8808 4058.4505,-81.0419"/>
<polygon fill="#191970" stroke="#191970" points="4262.6513,-127.775 4273.1589,-126.4184 4264.0987,-120.9263 4262.6513,-127.775"/>
</g>
<!-- Node222&#45;&gt;Node55 -->
<g id="edge59" class="edge">
<title>Node222&#45;&gt;Node55</title>
<path fill="none" stroke="#191970" d="M4537.5801,-115.2465C4545.8593,-104.1775 4556.1979,-90.3552 4563.0122,-81.2449"/>
<polygon fill="#191970" stroke="#191970" points="4534.6754,-113.2864 4531.4885,-123.3906 4540.2808,-117.4792 4534.6754,-113.2864"/>
</g>
<!-- Node222&#45;&gt;Node56 -->
<g id="edge60" class="edge">
<title>Node222&#45;&gt;Node56</title>
<path fill="none" stroke="#191970" d="M4570.1296,-120.7989C4607.05,-110.9694 4659.135,-97.1026 4698.665,-86.5784"/>
<polygon fill="#191970" stroke="#191970" points="4568.9042,-117.5031 4560.1413,-123.4581 4570.7052,-124.2675 4568.9042,-117.5031"/>
</g>
<!-- Node222&#45;&gt;Node64 -->
<g id="edge61" class="edge">
<title>Node222&#45;&gt;Node64</title>
<path fill="none" stroke="#191970" d="M4570.9862,-123.0228C4692.6541,-102.5156 4726.7719,-111.8862 4843.301,-87 4850.8553,-85.3867 4858.9053,-83.2166 4866.3584,-81.012"/>
<polygon fill="#191970" stroke="#191970" points="4570.1678,-119.612 4560.9054,-124.7558 4571.3539,-126.5108 4570.1678,-119.612"/>
</g>
</g>
</svg>
