<?xml version="1.0" encoding="UTF-8" standalone="no"?>
<!DOCTYPE svg PUBLIC "-//W3C//DTD SVG 1.1//EN"
 "http://www.w3.org/Graphics/SVG/1.1/DTD/svg11.dtd">
<!-- Generated by graphviz version 2.40.1 (20161225.0304)
 -->
<!-- Title: BerdyHelper.h Pages: 1 -->
<svg width="2615pt" height="643pt"
 viewBox="0.00 0.00 2615.00 643.00" xmlns="http://www.w3.org/2000/svg" xmlns:xlink="http://www.w3.org/1999/xlink">
<g id="graph0" class="graph" transform="scale(1 1) rotate(0) translate(4 639)">
<title>BerdyHelper.h</title>
<!-- Node0 -->
<g id="node1" class="node">
<title>Node0</title>
<polygon fill="#bfbfbf" stroke="#000000" points="1371.5,-615.5 1371.5,-634.5 1457.5,-634.5 1457.5,-615.5 1371.5,-615.5"/>
<text text-anchor="middle" x="1414.5" y="-622.5" font-family="FreeSans.ttf" font-size="10.00" fill="#000000">BerdyHelper.h</text>
</g>
<!-- Node1 -->
<g id="node2" class="node">
<title>Node1</title>
<g id="a_node2"><a xlink:href="Direction_8h.html" target="_top" xlink:title="iDynTree/Core/Direction.h">
<polygon fill="none" stroke="#000000" points="551,-241 551,-260 692,-260 692,-241 551,-241"/>
<text text-anchor="middle" x="621.5" y="-248" font-family="FreeSans.ttf" font-size="10.00" fill="#000000">iDynTree/Core/Direction.h</text>
</a>
</g>
</g>
<!-- Node0&#45;&gt;Node1 -->
<g id="edge1" class="edge">
<title>Node0&#45;&gt;Node1</title>
<path fill="none" stroke="#191970" d="M1371.212,-624.0729C1178.1201,-619.816 402.8555,-601.3891 356.5,-579 318.6252,-560.7069 294.5,-549.5611 294.5,-507.5 294.5,-507.5 294.5,-507.5 294.5,-440.5 294.5,-326.8302 444.0474,-280.0088 540.8755,-261.6063"/>
<polygon fill="#191970" stroke="#191970" points="541.7446,-265.0054 550.9485,-259.7576 540.4809,-258.1203 541.7446,-265.0054"/>
</g>
<!-- Node3 -->
<g id="node4" class="node">
<title>Node3</title>
<g id="a_node4"><a xlink:href="VectorFixSize_8h.html" target="_top" xlink:title="iDynTree/Core/VectorFixSize.h">
<polygon fill="none" stroke="#000000" points="698,-174 698,-193 859,-193 859,-174 698,-174"/>
<text text-anchor="middle" x="778.5" y="-181" font-family="FreeSans.ttf" font-size="10.00" fill="#000000">iDynTree/Core/VectorFixSize.h</text>
</a>
</g>
</g>
<!-- Node0&#45;&gt;Node3 -->
<g id="edge48" class="edge">
<title>Node0&#45;&gt;Node3</title>
<path fill="none" stroke="#191970" d="M1371.2304,-624.5507C1202.7836,-622.5615 596.2563,-613.0764 517.5,-579 445.0901,-547.6696 420.4171,-528.5873 389.5,-456 338.289,-335.7667 487.5009,-353.1335 597.5,-302 641.4744,-281.5584 659.8004,-292.3657 700.5,-266 727.5117,-248.5015 751.7976,-219.7628 765.8462,-201.2408"/>
<polygon fill="#191970" stroke="#191970" points="768.7607,-203.186 771.8875,-193.063 763.1304,-199.0266 768.7607,-203.186"/>
</g>
<!-- Node4 -->
<g id="node5" class="node">
<title>Node4</title>
<g id="a_node5"><a xlink:href="Utils_8h.html" target="_top" xlink:title="iDynTree/Core/Utils.h">
<polygon fill="none" stroke="#000000" points="618,-56.5 618,-75.5 737,-75.5 737,-56.5 618,-56.5"/>
<text text-anchor="middle" x="677.5" y="-63.5" font-family="FreeSans.ttf" font-size="10.00" fill="#000000">iDynTree/Core/Utils.h</text>
</a>
</g>
</g>
<!-- Node0&#45;&gt;Node4 -->
<g id="edge49" class="edge">
<title>Node0&#45;&gt;Node4</title>
<path fill="none" stroke="#191970" d="M1371.3554,-623.8781C1281.3108,-620.9537 1067.0808,-610.9497 890.5,-579 798.8247,-562.4127 770.1195,-567.9196 688.5,-523 632.1264,-491.9746 484.5,-381.8471 484.5,-317.5 484.5,-317.5 484.5,-317.5 484.5,-250.5 484.5,-163.4799 588.2858,-104.8711 643.6421,-79.7998"/>
<polygon fill="#191970" stroke="#191970" points="645.3192,-82.8855 653.0564,-75.6477 642.4944,-76.4808 645.3192,-82.8855"/>
</g>
<!-- Node17 -->
<g id="node18" class="node">
<title>Node17</title>
<g id="a_node18"><a xlink:href="Position_8h.html" target="_top" xlink:title="iDynTree/Core/Position.h">
<polygon fill="none" stroke="#000000" points="1639.5,-308 1639.5,-327 1775.5,-327 1775.5,-308 1639.5,-308"/>
<text text-anchor="middle" x="1707.5" y="-315" font-family="FreeSans.ttf" font-size="10.00" fill="#000000">iDynTree/Core/Position.h</text>
</a>
</g>
</g>
<!-- Node0&#45;&gt;Node17 -->
<g id="edge21" class="edge">
<title>Node0&#45;&gt;Node17</title>
<path fill="none" stroke="#191970" d="M1457.5989,-622.9884C1580.3823,-617.0764 1930.4094,-598.9156 2043.5,-579 2133.566,-563.1391 2161.4951,-567.3021 2241.5,-523 2280.3132,-501.5075 2297.5103,-496.5557 2315.5,-456 2321.0866,-443.4057 2324.2422,-435.649 2315.5,-425 2249.5767,-344.6983 1934.876,-324.3701 1785.954,-319.2327"/>
<polygon fill="#191970" stroke="#191970" points="1785.6339,-315.7204 1775.5238,-318.8885 1785.4029,-322.7165 1785.6339,-315.7204"/>
</g>
<!-- Node25 -->
<g id="node26" class="node">
<title>Node25</title>
<g id="a_node26"><a xlink:href="MatrixDynSize_8h.html" target="_top" xlink:title="iDynTree/Core/MatrixDynSize.h">
<polygon fill="none" stroke="#000000" points="2440,-559.5 2440,-578.5 2607,-578.5 2607,-559.5 2440,-559.5"/>
<text text-anchor="middle" x="2523.5" y="-566.5" font-family="FreeSans.ttf" font-size="10.00" fill="#000000">iDynTree/Core/MatrixDynSize.h</text>
</a>
</g>
</g>
<!-- Node0&#45;&gt;Node25 -->
<g id="edge43" class="edge">
<title>Node0&#45;&gt;Node25</title>
<path fill="none" stroke="#191970" d="M1457.9527,-623.9153C1598.2896,-620.2215 2052.0348,-606.7899 2426.5,-579 2427.5974,-578.9186 2428.7016,-578.8348 2429.8116,-578.7489"/>
<polygon fill="#191970" stroke="#191970" points="2430.2463,-582.2252 2439.9282,-577.9226 2429.6764,-575.2484 2430.2463,-582.2252"/>
</g>
<!-- Node26 -->
<g id="node27" class="node">
<title>Node26</title>
<g id="a_node27"><a xlink:href="VectorDynSize_8h.html" target="_top" xlink:title="iDynTree/Core/VectorDynSize.h">
<polygon fill="none" stroke="#000000" points="550,-369.5 550,-388.5 717,-388.5 717,-369.5 550,-369.5"/>
<text text-anchor="middle" x="633.5" y="-376.5" font-family="FreeSans.ttf" font-size="10.00" fill="#000000">iDynTree/Core/VectorDynSize.h</text>
</a>
</g>
</g>
<!-- Node0&#45;&gt;Node26 -->
<g id="edge45" class="edge">
<title>Node0&#45;&gt;Node26</title>
<path fill="none" stroke="#191970" d="M1371.363,-623.5775C1265.8206,-618.9541 987.3737,-599.8207 770.5,-523 714.3794,-503.1211 690.8449,-503.1565 654.5,-456 641.7168,-439.4142 636.708,-415.5768 634.7494,-398.8295"/>
<polygon fill="#191970" stroke="#191970" points="638.206,-398.1898 633.8227,-388.5442 631.2343,-398.818 638.206,-398.1898"/>
</g>
<!-- Node27 -->
<g id="node28" class="node">
<title>Node27</title>
<g id="a_node28"><a xlink:href="Triplets_8h.html" target="_top" xlink:title="iDynTree/Core/Triplets.h">
<polygon fill="none" stroke="#000000" points="398.5,-431 398.5,-450 530.5,-450 530.5,-431 398.5,-431"/>
<text text-anchor="middle" x="464.5" y="-438" font-family="FreeSans.ttf" font-size="10.00" fill="#000000">iDynTree/Core/Triplets.h</text>
</a>
</g>
</g>
<!-- Node0&#45;&gt;Node27 -->
<g id="edge50" class="edge">
<title>Node0&#45;&gt;Node27</title>
<path fill="none" stroke="#191970" d="M1371.2911,-623.8564C1200.5014,-619.1901 580.063,-600.7995 544.5,-579 500.451,-551.9987 478.1724,-491.0845 469.2872,-459.817"/>
<polygon fill="#191970" stroke="#191970" points="472.653,-458.8549 466.6893,-450.0979 465.8904,-460.6626 472.653,-458.8549"/>
</g>
<!-- Node28 -->
<g id="node29" class="node">
<title>Node28</title>
<polygon fill="none" stroke="#bfbfbf" points="1577,-369.5 1577,-388.5 1624,-388.5 1624,-369.5 1577,-369.5"/>
<text text-anchor="middle" x="1600.5" y="-376.5" font-family="FreeSans.ttf" font-size="10.00" fill="#000000">vector</text>
</g>
<!-- Node0&#45;&gt;Node28 -->
<g id="edge119" class="edge">
<title>Node0&#45;&gt;Node28</title>
<path fill="none" stroke="#191970" d="M1457.6495,-618.6499C1484.0038,-612.6421 1516.5531,-601.0814 1537.5,-579 1586.299,-527.5581 1597.3108,-438.6201 1599.7868,-399.0206"/>
<polygon fill="#191970" stroke="#191970" points="1603.293,-398.9824 1600.2987,-388.8196 1596.3018,-398.6316 1603.293,-398.9824"/>
</g>
<!-- Node29 -->
<g id="node30" class="node">
<title>Node29</title>
<g id="a_node30"><a xlink:href="Indices_8h.html" target="_top" xlink:title="iDynTree/Model/Indices.h">
<polygon fill="none" stroke="#000000" points="1886.5,-369.5 1886.5,-388.5 2024.5,-388.5 2024.5,-369.5 1886.5,-369.5"/>
<text text-anchor="middle" x="1955.5" y="-376.5" font-family="FreeSans.ttf" font-size="10.00" fill="#000000">iDynTree/Model/Indices.h</text>
</a>
</g>
</g>
<!-- Node0&#45;&gt;Node29 -->
<g id="edge55" class="edge">
<title>Node0&#45;&gt;Node29</title>
<path fill="none" stroke="#191970" d="M1457.7271,-624.1665C1621.3119,-619.9683 2198.2038,-595.3442 2297.5,-456 2305.4956,-444.7796 2306.5698,-435.3714 2297.5,-425 2280.4481,-405.5011 2130.3448,-391.3535 2034.7462,-384.2263"/>
<polygon fill="#191970" stroke="#191970" points="2034.7519,-380.7174 2024.5223,-383.4752 2034.239,-387.6986 2034.7519,-380.7174"/>
</g>
<!-- Node30 -->
<g id="node31" class="node">
<title>Node30</title>
<g id="a_node31"><a xlink:href="LinkState_8h.html" target="_top" xlink:title="iDynTree/Model/LinkState.h">
<polygon fill="none" stroke="#000000" points="962,-431 962,-450 1111,-450 1111,-431 962,-431"/>
<text text-anchor="middle" x="1036.5" y="-438" font-family="FreeSans.ttf" font-size="10.00" fill="#000000">iDynTree/Model/LinkState.h</text>
</a>
</g>
</g>
<!-- Node0&#45;&gt;Node30 -->
<g id="edge57" class="edge">
<title>Node0&#45;&gt;Node30</title>
<path fill="none" stroke="#191970" d="M1397.5982,-615.4109C1357.3297,-592.721 1252.3017,-534.4595 1161.5,-492 1131.4682,-477.957 1096.5224,-463.7321 1071.228,-453.8014"/>
<polygon fill="#191970" stroke="#191970" points="1072.2876,-450.4578 1061.6993,-450.0841 1069.7435,-456.9792 1072.2876,-450.4578"/>
</g>
<!-- Node50 -->
<g id="node41" class="node">
<title>Node50</title>
<g id="a_node41"><a xlink:href="Traversal_8h.html" target="_top" xlink:title="iDynTree/Model/Traversal.h">
<polygon fill="none" stroke="#000000" points="1614.5,-431 1614.5,-450 1762.5,-450 1762.5,-431 1614.5,-431"/>
<text text-anchor="middle" x="1688.5" y="-438" font-family="FreeSans.ttf" font-size="10.00" fill="#000000">iDynTree/Model/Traversal.h</text>
</a>
</g>
</g>
<!-- Node0&#45;&gt;Node50 -->
<g id="edge80" class="edge">
<title>Node0&#45;&gt;Node50</title>
<path fill="none" stroke="#191970" d="M1457.7094,-618.1414C1505.2362,-609.9411 1577.8847,-595.2688 1600.5,-579 1643.1152,-548.3439 1669.9762,-490.0593 1681.6827,-459.8053"/>
<polygon fill="#191970" stroke="#191970" points="1684.9885,-460.9572 1685.1924,-450.3643 1678.4272,-458.518 1684.9885,-460.9572"/>
</g>
<!-- Node51 -->
<g id="node42" class="node">
<title>Node51</title>
<g id="a_node42"><a xlink:href="FreeFloatingState_8h.html" target="_top" xlink:title="iDynTree/Model/FreeFloating\lState.h">
<polygon fill="none" stroke="#000000" points="998.5,-492.5 998.5,-522.5 1152.5,-522.5 1152.5,-492.5 998.5,-492.5"/>
<text text-anchor="start" x="1006.5" y="-510.5" font-family="FreeSans.ttf" font-size="10.00" fill="#000000">iDynTree/Model/FreeFloating</text>
<text text-anchor="middle" x="1075.5" y="-499.5" font-family="FreeSans.ttf" font-size="10.00" fill="#000000">State.h</text>
</a>
</g>
</g>
<!-- Node0&#45;&gt;Node51 -->
<g id="edge83" class="edge">
<title>Node0&#45;&gt;Node51</title>
<path fill="none" stroke="#191970" d="M1373.1496,-615.4814C1338.4286,-607.0927 1287.7102,-593.9093 1244.5,-579 1199.9051,-563.6129 1150.356,-542.104 1116.5046,-526.7035"/>
<polygon fill="#191970" stroke="#191970" points="1117.9397,-523.5112 1107.3902,-522.532 1115.0265,-529.8762 1117.9397,-523.5112"/>
</g>
<!-- Node53 -->
<g id="node44" class="node">
<title>Node53</title>
<g id="a_node44"><a xlink:href="Sensors_8h.html" target="_top" xlink:title="iDynTree/Sensors/Sensors.h">
<polygon fill="none" stroke="#000000" points="1378,-559.5 1378,-578.5 1529,-578.5 1529,-559.5 1378,-559.5"/>
<text text-anchor="middle" x="1453.5" y="-566.5" font-family="FreeSans.ttf" font-size="10.00" fill="#000000">iDynTree/Sensors/Sensors.h</text>
</a>
</g>
</g>
<!-- Node0&#45;&gt;Node53 -->
<g id="edge95" class="edge">
<title>Node0&#45;&gt;Node53</title>
<path fill="none" stroke="#191970" d="M1421.2933,-615.2455C1426.7178,-607.4564 1434.4661,-596.3308 1441.0033,-586.9439"/>
<polygon fill="#191970" stroke="#191970" points="1443.9417,-588.849 1446.7846,-578.6427 1438.1975,-584.8485 1443.9417,-588.849"/>
</g>
<!-- Node63 -->
<g id="node50" class="node">
<title>Node63</title>
<g id="a_node50"><a xlink:href="LinkTraversalsCache_8h.html" target="_top" xlink:title="iDynTree/Model/LinkTraversals\lCache.h">
<polygon fill="none" stroke="#000000" points="2106.5,-425.5 2106.5,-455.5 2270.5,-455.5 2270.5,-425.5 2106.5,-425.5"/>
<text text-anchor="start" x="2114.5" y="-443.5" font-family="FreeSans.ttf" font-size="10.00" fill="#000000">iDynTree/Model/LinkTraversals</text>
<text text-anchor="middle" x="2188.5" y="-432.5" font-family="FreeSans.ttf" font-size="10.00" fill="#000000">Cache.h</text>
</a>
</g>
</g>
<!-- Node0&#45;&gt;Node63 -->
<g id="edge116" class="edge">
<title>Node0&#45;&gt;Node63</title>
<path fill="none" stroke="#191970" d="M1457.8148,-615.9085C1500.5216,-606.8618 1567.6116,-592.428 1625.5,-579 1804.0804,-537.5759 2013.5167,-484.9936 2119.5212,-458.0954"/>
<polygon fill="#191970" stroke="#191970" points="2120.6213,-461.4272 2129.4524,-455.5738 2118.8985,-454.6425 2120.6213,-461.4272"/>
</g>
<!-- Node2 -->
<g id="node3" class="node">
<title>Node2</title>
<polygon fill="none" stroke="#bfbfbf" points="1500.5,-56.5 1500.5,-75.5 1544.5,-75.5 1544.5,-56.5 1500.5,-56.5"/>
<text text-anchor="middle" x="1522.5" y="-63.5" font-family="FreeSans.ttf" font-size="10.00" fill="#000000">string</text>
</g>
<!-- Node1&#45;&gt;Node2 -->
<g id="edge2" class="edge">
<title>Node1&#45;&gt;Node2</title>
<path fill="none" stroke="#191970" d="M626.1059,-240.7316C635.1781,-222.7323 657.2312,-184.6521 688.5,-168 845.6575,-84.3063 917.9799,-186.4614 1087.5,-132 1104.1914,-126.6376 1104.8748,-117.5642 1121.5,-112 1189.9357,-89.0954 1407.8328,-73.27 1490.3834,-67.9594"/>
<polygon fill="#191970" stroke="#191970" points="1490.6762,-71.448 1500.4346,-67.322 1490.2331,-64.462 1490.6762,-71.448"/>
</g>
<!-- Node1&#45;&gt;Node3 -->
<g id="edge3" class="edge">
<title>Node1&#45;&gt;Node3</title>
<path fill="none" stroke="#191970" d="M643.9943,-240.9005C670.9253,-229.4077 716.2067,-210.0838 746.7064,-197.068"/>
<polygon fill="#191970" stroke="#191970" points="748.2237,-200.2259 756.0475,-193.0817 745.4762,-193.7876 748.2237,-200.2259"/>
</g>
<!-- Node1&#45;&gt;Node4 -->
<g id="edge20" class="edge">
<title>Node1&#45;&gt;Node4</title>
<path fill="none" stroke="#191970" d="M621.4853,-240.6664C621.7798,-217.3669 624.4835,-157.3548 643.5,-112 647.8319,-101.6682 654.9485,-91.5094 661.5543,-83.3775"/>
<polygon fill="#191970" stroke="#191970" points="664.27,-85.5872 668.1151,-75.7147 658.9527,-81.0345 664.27,-85.5872"/>
</g>
<!-- Node3&#45;&gt;Node2 -->
<g id="edge16" class="edge">
<title>Node3&#45;&gt;Node2</title>
<path fill="none" stroke="#191970" d="M857.2511,-173.9541C942.6443,-163.1989 1073.2119,-145.4636 1121.5,-132 1143.762,-125.793 1147.1787,-117.9902 1169.5,-112 1284.8921,-81.0329 1427.3039,-70.6039 1490.1269,-67.3533"/>
<polygon fill="#191970" stroke="#191970" points="1490.3938,-70.8445 1500.2103,-66.8586 1490.0508,-63.8529 1490.3938,-70.8445"/>
</g>
<!-- Node3&#45;&gt;Node4 -->
<g id="edge4" class="edge">
<title>Node3&#45;&gt;Node4</title>
<path fill="none" stroke="#191970" d="M717.2868,-173.926C692.5565,-166.7214 666.387,-154.1014 651.5,-132 641.3582,-116.9435 651.5162,-97.3438 661.959,-83.4249"/>
<polygon fill="#191970" stroke="#191970" points="664.7377,-85.5552 668.319,-75.5839 659.3012,-81.1455 664.7377,-85.5552"/>
</g>
<!-- Node6 -->
<g id="node7" class="node">
<title>Node6</title>
<g id="a_node7"><a xlink:href="Span_8h.html" target="_top" xlink:title="iDynTree/Core/Span.h">
<polygon fill="none" stroke="#000000" points="297,-112.5 297,-131.5 418,-131.5 418,-112.5 297,-112.5"/>
<text text-anchor="middle" x="357.5" y="-119.5" font-family="FreeSans.ttf" font-size="10.00" fill="#000000">iDynTree/Core/Span.h</text>
</a>
</g>
</g>
<!-- Node3&#45;&gt;Node6 -->
<g id="edge6" class="edge">
<title>Node3&#45;&gt;Node6</title>
<path fill="none" stroke="#191970" d="M713.1807,-173.9581C635.882,-162.6663 507.6582,-143.9352 428.1168,-132.3158"/>
<polygon fill="#191970" stroke="#191970" points="428.5868,-128.8473 418.1859,-130.865 427.5749,-135.7738 428.5868,-128.8473"/>
</g>
<!-- Node7 -->
<g id="node8" class="node">
<title>Node7</title>
<polygon fill="none" stroke="#bfbfbf" points="547.5,-56.5 547.5,-75.5 599.5,-75.5 599.5,-56.5 547.5,-56.5"/>
<text text-anchor="middle" x="573.5" y="-63.5" font-family="FreeSans.ttf" font-size="10.00" fill="#000000">cassert</text>
</g>
<!-- Node3&#45;&gt;Node7 -->
<g id="edge18" class="edge">
<title>Node3&#45;&gt;Node7</title>
<path fill="none" stroke="#191970" d="M742.3294,-173.9252C714.0723,-165.475 674.5257,-151.461 643.5,-132 622.2093,-118.6453 601.7636,-98.1884 588.5249,-83.5919"/>
<polygon fill="#191970" stroke="#191970" points="590.8572,-80.9458 581.611,-75.7729 585.6132,-85.5827 590.8572,-80.9458"/>
</g>
<!-- Node15 -->
<g id="node16" class="node">
<title>Node15</title>
<polygon fill="none" stroke="#bfbfbf" points="755.5,-56.5 755.5,-75.5 811.5,-75.5 811.5,-56.5 755.5,-56.5"/>
<text text-anchor="middle" x="783.5" y="-63.5" font-family="FreeSans.ttf" font-size="10.00" fill="#000000">sstream</text>
</g>
<!-- Node3&#45;&gt;Node15 -->
<g id="edge17" class="edge">
<title>Node3&#45;&gt;Node15</title>
<path fill="none" stroke="#191970" d="M731.1649,-173.9621C689.5691,-163.2968 638.7925,-143.2942 660.5,-112 665.6447,-104.5833 711.4954,-88.739 745.72,-77.7324"/>
<polygon fill="#191970" stroke="#191970" points="746.9997,-80.9981 755.465,-74.6271 744.8744,-74.3285 746.9997,-80.9981"/>
</g>
<!-- Node16 -->
<g id="node17" class="node">
<title>Node16</title>
<polygon fill="none" stroke="#bfbfbf" points="829.5,-56.5 829.5,-75.5 879.5,-75.5 879.5,-56.5 829.5,-56.5"/>
<text text-anchor="middle" x="854.5" y="-63.5" font-family="FreeSans.ttf" font-size="10.00" fill="#000000">cstring</text>
</g>
<!-- Node3&#45;&gt;Node16 -->
<g id="edge19" class="edge">
<title>Node3&#45;&gt;Node16</title>
<path fill="none" stroke="#191970" d="M750.3126,-173.8955C718.4822,-161.5049 673.5572,-138.3817 693.5,-112 727.082,-67.5756 760.5539,-89.7177 819.5632,-75.9825"/>
<polygon fill="#191970" stroke="#191970" points="820.464,-79.3647 829.2571,-73.4544 818.6974,-72.5913 820.464,-79.3647"/>
</g>
<!-- Node5 -->
<g id="node6" class="node">
<title>Node5</title>
<polygon fill="none" stroke="#bfbfbf" points="353,-.5 353,-19.5 406,-19.5 406,-.5 353,-.5"/>
<text text-anchor="middle" x="379.5" y="-7.5" font-family="FreeSans.ttf" font-size="10.00" fill="#000000">cstddef</text>
</g>
<!-- Node4&#45;&gt;Node5 -->
<g id="edge5" class="edge">
<title>Node4&#45;&gt;Node5</title>
<path fill="none" stroke="#191970" d="M626.6106,-56.4369C566.766,-45.1909 468.9101,-26.8019 416.0826,-16.8746"/>
<polygon fill="#191970" stroke="#191970" points="416.6165,-13.4137 406.1421,-15.0066 415.3236,-20.2933 416.6165,-13.4137"/>
</g>
<!-- Node6&#45;&gt;Node5 -->
<g id="edge10" class="edge">
<title>Node6&#45;&gt;Node5</title>
<path fill="none" stroke="#191970" d="M296.916,-113.1439C222.9466,-102.041 106.8182,-83.5495 100.5,-76 94.7951,-69.1834 94.7485,-62.7774 100.5,-56 116.016,-37.7163 270.3763,-20.5455 342.5979,-13.4398"/>
<polygon fill="#191970" stroke="#191970" points="343.0163,-16.9158 352.6312,-12.4656 342.3397,-9.9485 343.0163,-16.9158"/>
</g>
<!-- Node6&#45;&gt;Node7 -->
<g id="edge7" class="edge">
<title>Node6&#45;&gt;Node7</title>
<path fill="none" stroke="#191970" d="M395.8339,-112.4485C432.3159,-103.3005 488.726,-89.0049 537.5,-76 537.5979,-75.9739 537.696,-75.9477 537.7942,-75.9215"/>
<polygon fill="#191970" stroke="#191970" points="538.4341,-79.3744 547.1711,-73.3814 536.6038,-72.6179 538.4341,-79.3744"/>
</g>
<!-- Node8 -->
<g id="node9" class="node">
<title>Node8</title>
<polygon fill="none" stroke="#bfbfbf" points="109.5,-56.5 109.5,-75.5 173.5,-75.5 173.5,-56.5 109.5,-56.5"/>
<text text-anchor="middle" x="141.5" y="-63.5" font-family="FreeSans.ttf" font-size="10.00" fill="#000000">algorithm</text>
</g>
<!-- Node6&#45;&gt;Node8 -->
<g id="edge8" class="edge">
<title>Node6&#45;&gt;Node8</title>
<path fill="none" stroke="#191970" d="M320.3683,-112.3733C282.3086,-102.5059 223.226,-87.1882 183.4872,-76.8856"/>
<polygon fill="#191970" stroke="#191970" points="184.1343,-73.4377 173.5759,-74.316 182.3775,-80.2137 184.1343,-73.4377"/>
</g>
<!-- Node9 -->
<g id="node10" class="node">
<title>Node9</title>
<polygon fill="none" stroke="#bfbfbf" points="191.5,-56.5 191.5,-75.5 233.5,-75.5 233.5,-56.5 191.5,-56.5"/>
<text text-anchor="middle" x="212.5" y="-63.5" font-family="FreeSans.ttf" font-size="10.00" fill="#000000">array</text>
</g>
<!-- Node6&#45;&gt;Node9 -->
<g id="edge9" class="edge">
<title>Node6&#45;&gt;Node9</title>
<path fill="none" stroke="#191970" d="M332.5736,-112.3733C307.8746,-102.8343 269.9869,-88.2018 243.3917,-77.9306"/>
<polygon fill="#191970" stroke="#191970" points="244.3922,-74.5651 233.8027,-74.2273 241.8702,-81.095 244.3922,-74.5651"/>
</g>
<!-- Node10 -->
<g id="node11" class="node">
<title>Node10</title>
<polygon fill="none" stroke="#bfbfbf" points="0,-56.5 0,-75.5 53,-75.5 53,-56.5 0,-56.5"/>
<text text-anchor="middle" x="26.5" y="-63.5" font-family="FreeSans.ttf" font-size="10.00" fill="#000000">iterator</text>
</g>
<!-- Node6&#45;&gt;Node10 -->
<g id="edge11" class="edge">
<title>Node6&#45;&gt;Node10</title>
<path fill="none" stroke="#191970" d="M296.9796,-113.8735C238.1337,-105.6252 146.3402,-91.8398 67.5,-76 66.0634,-75.7114 64.601,-75.4068 63.1256,-75.0905"/>
<polygon fill="#191970" stroke="#191970" points="63.8614,-71.6686 53.3359,-72.8789 62.3188,-78.4966 63.8614,-71.6686"/>
</g>
<!-- Node11 -->
<g id="node12" class="node">
<title>Node11</title>
<polygon fill="none" stroke="#bfbfbf" points="251.5,-56.5 251.5,-75.5 295.5,-75.5 295.5,-56.5 251.5,-56.5"/>
<text text-anchor="middle" x="273.5" y="-63.5" font-family="FreeSans.ttf" font-size="10.00" fill="#000000">limits</text>
</g>
<!-- Node6&#45;&gt;Node11 -->
<g id="edge12" class="edge">
<title>Node6&#45;&gt;Node11</title>
<path fill="none" stroke="#191970" d="M342.8683,-112.2455C330.1006,-103.7337 311.3562,-91.2375 296.5701,-81.3801"/>
<polygon fill="#191970" stroke="#191970" points="298.226,-78.2775 287.964,-75.6427 294.3431,-84.1019 298.226,-78.2775"/>
</g>
<!-- Node12 -->
<g id="node13" class="node">
<title>Node12</title>
<polygon fill="none" stroke="#bfbfbf" points="314,-56.5 314,-75.5 379,-75.5 379,-56.5 314,-56.5"/>
<text text-anchor="middle" x="346.5" y="-63.5" font-family="FreeSans.ttf" font-size="10.00" fill="#000000">stdexcept</text>
</g>
<!-- Node6&#45;&gt;Node12 -->
<g id="edge13" class="edge">
<title>Node6&#45;&gt;Node12</title>
<path fill="none" stroke="#191970" d="M355.5839,-112.2455C354.1486,-104.9382 352.1364,-94.6944 350.3705,-85.7046"/>
<polygon fill="#191970" stroke="#191970" points="353.756,-84.7805 348.3941,-75.6427 346.8873,-86.1298 353.756,-84.7805"/>
</g>
<!-- Node13 -->
<g id="node14" class="node">
<title>Node13</title>
<polygon fill="none" stroke="#bfbfbf" points="397,-56.5 397,-75.5 466,-75.5 466,-56.5 397,-56.5"/>
<text text-anchor="middle" x="431.5" y="-63.5" font-family="FreeSans.ttf" font-size="10.00" fill="#000000">type_traits</text>
</g>
<!-- Node6&#45;&gt;Node13 -->
<g id="edge14" class="edge">
<title>Node6&#45;&gt;Node13</title>
<path fill="none" stroke="#191970" d="M370.3898,-112.2455C381.4254,-103.8943 397.5292,-91.7076 410.4353,-81.9408"/>
<polygon fill="#191970" stroke="#191970" points="412.8959,-84.4681 418.7579,-75.6427 408.6717,-78.8862 412.8959,-84.4681"/>
</g>
<!-- Node14 -->
<g id="node15" class="node">
<title>Node14</title>
<polygon fill="none" stroke="#bfbfbf" points="484,-56.5 484,-75.5 529,-75.5 529,-56.5 484,-56.5"/>
<text text-anchor="middle" x="506.5" y="-63.5" font-family="FreeSans.ttf" font-size="10.00" fill="#000000">utility</text>
</g>
<!-- Node6&#45;&gt;Node14 -->
<g id="edge15" class="edge">
<title>Node6&#45;&gt;Node14</title>
<path fill="none" stroke="#191970" d="M383.114,-112.3733C408.3097,-102.9037 446.8616,-88.4144 474.158,-78.1554"/>
<polygon fill="#191970" stroke="#191970" points="475.5303,-81.3787 483.6597,-74.5843 473.0676,-74.8262 475.5303,-81.3787"/>
</g>
<!-- Node17&#45;&gt;Node2 -->
<g id="edge42" class="edge">
<title>Node17&#45;&gt;Node2</title>
<path fill="none" stroke="#191970" d="M1716.4923,-307.7645C1724.8209,-298.03 1736.631,-282.2123 1741.5,-266 1745.4629,-252.8045 1745.7797,-248.0962 1741.5,-235 1720.4592,-170.6127 1705.7992,-152.4974 1651.5,-112 1622.5997,-90.4456 1582.679,-78.2869 1554.9314,-71.9554"/>
<polygon fill="#191970" stroke="#191970" points="1555.4537,-68.4877 1544.9413,-69.8067 1553.9817,-75.3312 1555.4537,-68.4877"/>
</g>
<!-- Node18 -->
<g id="node19" class="node">
<title>Node18</title>
<g id="a_node19"><a xlink:href="PositionRaw_8h.html" target="_top" xlink:title="iDynTree/Core/PositionRaw.h">
<polygon fill="none" stroke="#000000" points="1576.5,-241 1576.5,-260 1732.5,-260 1732.5,-241 1576.5,-241"/>
<text text-anchor="middle" x="1654.5" y="-248" font-family="FreeSans.ttf" font-size="10.00" fill="#000000">iDynTree/Core/PositionRaw.h</text>
</a>
</g>
</g>
<!-- Node17&#45;&gt;Node18 -->
<g id="edge22" class="edge">
<title>Node17&#45;&gt;Node18</title>
<path fill="none" stroke="#191970" d="M1699.9064,-307.9005C1691.7202,-297.552 1678.5115,-280.8542 1668.4457,-268.1295"/>
<polygon fill="#191970" stroke="#191970" points="1671.0286,-265.7531 1662.0795,-260.0817 1665.5386,-270.0959 1671.0286,-265.7531"/>
</g>
<!-- Node19 -->
<g id="node20" class="node">
<title>Node19</title>
<g id="a_node20"><a xlink:href="PositionSemantics_8h.html" target="_top" xlink:title="iDynTree/Core/PositionSemantics.h">
<polygon fill="none" stroke="#000000" points="1741,-174 1741,-193 1928,-193 1928,-174 1741,-174"/>
<text text-anchor="middle" x="1834.5" y="-181" font-family="FreeSans.ttf" font-size="10.00" fill="#000000">iDynTree/Core/PositionSemantics.h</text>
</a>
</g>
</g>
<!-- Node17&#45;&gt;Node19 -->
<g id="edge25" class="edge">
<title>Node17&#45;&gt;Node19</title>
<path fill="none" stroke="#191970" d="M1722.3285,-307.9381C1736.5966,-298.3322 1758.3279,-282.6071 1774.5,-266 1793.9951,-245.9806 1812.2512,-219.2994 1823.3901,-201.773"/>
<polygon fill="#191970" stroke="#191970" points="1826.49,-203.4163 1828.8088,-193.0783 1820.5492,-199.7139 1826.49,-203.4163"/>
</g>
<!-- Node20 -->
<g id="node21" class="node">
<title>Node20</title>
<g id="a_node21"><a xlink:href="Rotation_8h.html" target="_top" xlink:title="iDynTree/Core/Rotation.h">
<polygon fill="none" stroke="#000000" points="1338,-241 1338,-260 1475,-260 1475,-241 1338,-241"/>
<text text-anchor="middle" x="1406.5" y="-248" font-family="FreeSans.ttf" font-size="10.00" fill="#000000">iDynTree/Core/Rotation.h</text>
</a>
</g>
</g>
<!-- Node17&#45;&gt;Node20 -->
<g id="edge27" class="edge">
<title>Node17&#45;&gt;Node20</title>
<path fill="none" stroke="#191970" d="M1664.6937,-307.9717C1610.6863,-295.9501 1517.8239,-275.2797 1459.4217,-262.2799"/>
<polygon fill="#191970" stroke="#191970" points="1460.1676,-258.8603 1449.646,-260.1039 1458.6466,-265.6931 1460.1676,-258.8603"/>
</g>
<!-- Node18&#45;&gt;Node2 -->
<g id="edge24" class="edge">
<title>Node18&#45;&gt;Node2</title>
<path fill="none" stroke="#191970" d="M1655.8104,-240.8703C1658.5809,-216.4429 1662.4511,-151.2274 1631.5,-112 1612.7975,-88.2964 1579.6334,-76.6475 1554.7826,-71.0249"/>
<polygon fill="#191970" stroke="#191970" points="1555.2059,-67.5391 1544.7077,-68.9666 1553.8047,-74.3975 1555.2059,-67.5391"/>
</g>
<!-- Node18&#45;&gt;Node3 -->
<g id="edge23" class="edge">
<title>Node18&#45;&gt;Node3</title>
<path fill="none" stroke="#191970" d="M1576.2066,-243.1136C1547.1063,-240.4445 1513.8041,-237.4801 1483.5,-235 1263.1153,-216.9637 1003.7158,-198.8044 869.3952,-189.6301"/>
<polygon fill="#191970" stroke="#191970" points="869.3699,-186.1203 859.1548,-188.9315 868.8934,-193.1041 869.3699,-186.1203"/>
</g>
<!-- Node19&#45;&gt;Node2 -->
<g id="edge26" class="edge">
<title>Node19&#45;&gt;Node2</title>
<path fill="none" stroke="#191970" d="M1823.1408,-173.8087C1804.4518,-158.3712 1765.4907,-128.2824 1727.5,-112 1669.3644,-87.0837 1595.9282,-74.8164 1554.5934,-69.4943"/>
<polygon fill="#191970" stroke="#191970" points="1554.9129,-66.0073 1544.56,-68.2586 1554.0572,-72.9548 1554.9129,-66.0073"/>
</g>
<!-- Node20&#45;&gt;Node2 -->
<g id="edge28" class="edge">
<title>Node20&#45;&gt;Node2</title>
<path fill="none" stroke="#191970" d="M1439.8447,-240.8948C1460.8815,-233.0674 1486.7726,-219.8349 1501.5,-199 1525.5744,-164.942 1526.2921,-113.7547 1524.5161,-85.8575"/>
<polygon fill="#191970" stroke="#191970" points="1527.9939,-85.442 1523.6945,-75.7587 1521.017,-86.0096 1527.9939,-85.442"/>
</g>
<!-- Node20&#45;&gt;Node3 -->
<g id="edge41" class="edge">
<title>Node20&#45;&gt;Node3</title>
<path fill="none" stroke="#191970" d="M1337.7973,-243.1703C1223.9194,-231.0209 996.0539,-206.7104 869.1374,-193.1699"/>
<polygon fill="#191970" stroke="#191970" points="869.3675,-189.6747 859.0526,-192.094 868.6249,-196.6352 869.3675,-189.6747"/>
</g>
<!-- Node21 -->
<g id="node22" class="node">
<title>Node21</title>
<g id="a_node22"><a xlink:href="RotationRaw_8h.html" target="_top" xlink:title="iDynTree/Core/RotationRaw.h">
<polygon fill="none" stroke="#000000" points="1317.5,-174 1317.5,-193 1475.5,-193 1475.5,-174 1317.5,-174"/>
<text text-anchor="middle" x="1396.5" y="-181" font-family="FreeSans.ttf" font-size="10.00" fill="#000000">iDynTree/Core/RotationRaw.h</text>
</a>
</g>
</g>
<!-- Node20&#45;&gt;Node21 -->
<g id="edge29" class="edge">
<title>Node20&#45;&gt;Node21</title>
<path fill="none" stroke="#191970" d="M1405.0672,-240.9005C1403.5969,-231.0495 1401.2679,-215.4451 1399.4091,-202.9912"/>
<polygon fill="#191970" stroke="#191970" points="1402.868,-202.4554 1397.9301,-193.0817 1395.9447,-203.4888 1402.868,-202.4554"/>
</g>
<!-- Node24 -->
<g id="node25" class="node">
<title>Node24</title>
<g id="a_node25"><a xlink:href="RotationSemantics_8h.html" target="_top" xlink:title="iDynTree/Core/RotationSemantics.h">
<polygon fill="none" stroke="#000000" points="1249.5,-112.5 1249.5,-131.5 1437.5,-131.5 1437.5,-112.5 1249.5,-112.5"/>
<text text-anchor="middle" x="1343.5" y="-119.5" font-family="FreeSans.ttf" font-size="10.00" fill="#000000">iDynTree/Core/RotationSemantics.h</text>
</a>
</g>
</g>
<!-- Node20&#45;&gt;Node24 -->
<g id="edge38" class="edge">
<title>Node20&#45;&gt;Node24</title>
<path fill="none" stroke="#191970" d="M1433.0159,-240.8573C1451.0979,-232.7255 1473.6589,-219.1488 1484.5,-199 1491.0282,-186.867 1492.5917,-179.1513 1484.5,-168 1474.3492,-154.0111 1436.0694,-142.0439 1401.9542,-133.8249"/>
<polygon fill="#191970" stroke="#191970" points="1402.538,-130.3671 1392.0042,-131.5022 1400.9467,-137.1839 1402.538,-130.3671"/>
</g>
<!-- Node21&#45;&gt;Node2 -->
<g id="edge37" class="edge">
<title>Node21&#45;&gt;Node2</title>
<path fill="none" stroke="#191970" d="M1417.3414,-173.8314C1435.2673,-164.8005 1461.073,-150.0243 1479.5,-132 1493.5032,-118.3029 1505.2977,-99.2718 1512.9714,-85.1634"/>
<polygon fill="#191970" stroke="#191970" points="1516.2785,-86.3915 1517.8034,-75.9069 1510.0731,-83.1521 1516.2785,-86.3915"/>
</g>
<!-- Node22 -->
<g id="node23" class="node">
<title>Node22</title>
<g id="a_node23"><a xlink:href="MatrixFixSize_8h.html" target="_top" xlink:title="iDynTree/Core/MatrixFixSize.h">
<polygon fill="none" stroke="#000000" points="703,-112.5 703,-131.5 864,-131.5 864,-112.5 703,-112.5"/>
<text text-anchor="middle" x="783.5" y="-119.5" font-family="FreeSans.ttf" font-size="10.00" fill="#000000">iDynTree/Core/MatrixFixSize.h</text>
</a>
</g>
</g>
<!-- Node21&#45;&gt;Node22 -->
<g id="edge30" class="edge">
<title>Node21&#45;&gt;Node22</title>
<path fill="none" stroke="#191970" d="M1321.6666,-173.9753C1304.5364,-171.9039 1286.3971,-169.7968 1269.5,-168 1096.5937,-149.6135 1050.4616,-149.8755 874.1623,-132.1506"/>
<polygon fill="#191970" stroke="#191970" points="874.3232,-128.6491 864.0219,-131.1258 873.6193,-135.6136 874.3232,-128.6491"/>
</g>
<!-- Node22&#45;&gt;Node2 -->
<g id="edge34" class="edge">
<title>Node22&#45;&gt;Node2</title>
<path fill="none" stroke="#191970" d="M864.015,-112.8028C866.8777,-112.5237 869.7129,-112.2551 872.5,-112 1109.253,-90.3311 1395.326,-73.2398 1490.2021,-67.8128"/>
<polygon fill="#191970" stroke="#191970" points="1490.5209,-71.3004 1500.3058,-67.2377 1490.1231,-64.3118 1490.5209,-71.3004"/>
</g>
<!-- Node22&#45;&gt;Node4 -->
<g id="edge31" class="edge">
<title>Node22&#45;&gt;Node4</title>
<path fill="none" stroke="#191970" d="M765.0362,-112.2455C748.3926,-103.4527 723.7007,-90.4079 704.7808,-80.4125"/>
<polygon fill="#191970" stroke="#191970" points="706.2291,-77.2193 695.7522,-75.6427 702.9592,-83.4086 706.2291,-77.2193"/>
</g>
<!-- Node22&#45;&gt;Node7 -->
<g id="edge32" class="edge">
<title>Node22&#45;&gt;Node7</title>
<path fill="none" stroke="#191970" d="M746.2278,-112.4476C712.8353,-103.835 662.2728,-90.6606 609.6939,-76.2914"/>
<polygon fill="#191970" stroke="#191970" points="610.4259,-72.863 599.8565,-73.5953 608.5757,-79.6141 610.4259,-72.863"/>
</g>
<!-- Node22&#45;&gt;Node15 -->
<g id="edge36" class="edge">
<title>Node22&#45;&gt;Node15</title>
<path fill="none" stroke="#191970" d="M783.5,-112.2455C783.5,-104.9382 783.5,-94.6944 783.5,-85.7046"/>
<polygon fill="#191970" stroke="#191970" points="787.0001,-85.6426 783.5,-75.6427 780.0001,-85.6427 787.0001,-85.6426"/>
</g>
<!-- Node22&#45;&gt;Node16 -->
<g id="edge33" class="edge">
<title>Node22&#45;&gt;Node16</title>
<path fill="none" stroke="#191970" d="M795.8673,-112.2455C806.4554,-103.8943 821.9064,-91.7076 834.2893,-81.9408"/>
<polygon fill="#191970" stroke="#191970" points="836.5903,-84.5837 842.2745,-75.6427 832.2553,-79.0875 836.5903,-84.5837"/>
</g>
<!-- Node23 -->
<g id="node24" class="node">
<title>Node23</title>
<polygon fill="none" stroke="#bfbfbf" points="897.5,-56.5 897.5,-75.5 957.5,-75.5 957.5,-56.5 897.5,-56.5"/>
<text text-anchor="middle" x="927.5" y="-63.5" font-family="FreeSans.ttf" font-size="10.00" fill="#000000">iostream</text>
</g>
<!-- Node22&#45;&gt;Node23 -->
<g id="edge35" class="edge">
<title>Node22&#45;&gt;Node23</title>
<path fill="none" stroke="#191970" d="M808.2545,-112.3733C831.7849,-103.2226 867.3687,-89.3844 893.5426,-79.2057"/>
<polygon fill="#191970" stroke="#191970" points="895.0171,-82.3877 903.0685,-75.5011 892.4799,-75.8636 895.0171,-82.3877"/>
</g>
<!-- Node24&#45;&gt;Node2 -->
<g id="edge39" class="edge">
<title>Node24&#45;&gt;Node2</title>
<path fill="none" stroke="#191970" d="M1374.2712,-112.3733C1406.7921,-102.1991 1457.8349,-86.2304 1490.7293,-75.9394"/>
<polygon fill="#191970" stroke="#191970" points="1491.8158,-79.2669 1500.3146,-72.9407 1489.7257,-72.5862 1491.8158,-79.2669"/>
</g>
<!-- Node24&#45;&gt;Node4 -->
<g id="edge40" class="edge">
<title>Node24&#45;&gt;Node4</title>
<path fill="none" stroke="#191970" d="M1249.4811,-116.7096C1133.837,-109.7611 931.3051,-96.1614 747.437,-76.0355"/>
<polygon fill="#191970" stroke="#191970" points="747.6312,-72.5358 737.3077,-74.918 746.8636,-79.4936 747.6312,-72.5358"/>
</g>
<!-- Node25&#45;&gt;Node2 -->
<g id="edge44" class="edge">
<title>Node25&#45;&gt;Node2</title>
<path fill="none" stroke="#191970" d="M2518.6629,-559.2793C2508.6336,-538.198 2486.5,-486.4665 2486.5,-440.5 2486.5,-440.5 2486.5,-440.5 2486.5,-183.5 2486.5,-87.5037 1723.522,-69.3151 1555.1275,-66.4698"/>
<polygon fill="#191970" stroke="#191970" points="1554.9654,-62.9668 1544.9099,-66.3039 1554.8517,-69.9659 1554.9654,-62.9668"/>
</g>
<!-- Node26&#45;&gt;Node2 -->
<g id="edge47" class="edge">
<title>Node26&#45;&gt;Node2</title>
<path fill="none" stroke="#191970" d="M654.1288,-369.3794C685.7555,-354.6674 748.1691,-325.7823 801.5,-302 938.2132,-241.0343 972.6701,-226.3971 1110.5,-168 1149.0306,-151.675 1159.1864,-148.8278 1197.5,-132 1216.7978,-123.5241 1220.355,-118.199 1240.5,-112 1328.5459,-84.9065 1437.248,-72.9146 1490.3056,-68.3718"/>
<polygon fill="#191970" stroke="#191970" points="1490.7752,-71.8451 1500.4544,-67.5365 1490.2009,-64.8687 1490.7752,-71.8451"/>
</g>
<!-- Node26&#45;&gt;Node6 -->
<g id="edge46" class="edge">
<title>Node26&#45;&gt;Node6</title>
<path fill="none" stroke="#191970" d="M623.0175,-369.2391C581.5186,-330.597 428.4308,-188.0479 375.5818,-138.8371"/>
<polygon fill="#191970" stroke="#191970" points="377.6966,-136.0238 367.993,-131.7706 372.9263,-141.1468 377.6966,-136.0238"/>
</g>
<!-- Node27&#45;&gt;Node2 -->
<g id="edge53" class="edge">
<title>Node27&#45;&gt;Node2</title>
<path fill="none" stroke="#191970" d="M472.4954,-430.9847C485.4559,-416.0599 512.4425,-386.9962 540.5,-369 740.3661,-240.8048 811.1866,-245.8714 1035.5,-168 1089.7129,-149.1798 1106.2822,-153.4732 1159.5,-132 1177.1988,-124.8586 1179.3393,-117.8683 1197.5,-112 1300.8723,-78.5971 1430.5106,-69.434 1489.9732,-66.9323"/>
<polygon fill="#191970" stroke="#191970" points="1490.3789,-70.4194 1500.2373,-66.5384 1490.1104,-63.4246 1490.3789,-70.4194"/>
</g>
<!-- Node27&#45;&gt;Node4 -->
<g id="edge51" class="edge">
<title>Node27&#45;&gt;Node4</title>
<path fill="none" stroke="#191970" d="M462.0724,-430.6865C457.1592,-409.9351 446.5,-360.0158 446.5,-317.5 446.5,-317.5 446.5,-317.5 446.5,-250.5 446.5,-183.0582 453.6174,-151.1956 508.5,-112 526.1595,-99.3881 576.6618,-86.5402 617.8946,-77.64"/>
<polygon fill="#191970" stroke="#191970" points="618.8253,-81.0205 627.8812,-75.5213 617.3725,-74.1729 618.8253,-81.0205"/>
</g>
<!-- Node27&#45;&gt;Node10 -->
<g id="edge52" class="edge">
<title>Node27&#45;&gt;Node10</title>
<path fill="none" stroke="#191970" d="M461.1261,-430.7222C445.1097,-385.8662 372.1724,-198.2857 244.5,-112 229.6104,-101.9371 121.4538,-82.2426 63.2903,-72.2036"/>
<polygon fill="#191970" stroke="#191970" points="63.8333,-68.7457 53.3854,-70.504 62.6494,-75.6449 63.8333,-68.7457"/>
</g>
<!-- Node27&#45;&gt;Node28 -->
<g id="edge54" class="edge">
<title>Node27&#45;&gt;Node28</title>
<path fill="none" stroke="#191970" d="M530.6459,-436.3846C584.2466,-433.1091 661.7297,-428.5085 729.5,-425 1084.496,-406.6215 1174.5161,-421.4859 1528.5,-389 1541.0387,-387.8493 1554.7403,-386.0766 1566.7938,-384.3415"/>
<polygon fill="#191970" stroke="#191970" points="1567.5135,-387.7731 1576.8914,-382.8429 1566.4859,-380.8489 1567.5135,-387.7731"/>
</g>
<!-- Node29&#45;&gt;Node2 -->
<g id="edge56" class="edge">
<title>Node29&#45;&gt;Node2</title>
<path fill="none" stroke="#191970" d="M1955.5,-369.3281C1955.5,-347.9175 1955.5,-294.895 1955.5,-250.5 1955.5,-250.5 1955.5,-250.5 1955.5,-183.5 1955.5,-100.455 1655.0955,-74.233 1554.7192,-67.7893"/>
<polygon fill="#191970" stroke="#191970" points="1554.7647,-64.2855 1544.5678,-67.1619 1554.3328,-71.2722 1554.7647,-64.2855"/>
</g>
<!-- Node30&#45;&gt;Node28 -->
<g id="edge79" class="edge">
<title>Node30&#45;&gt;Node28</title>
<path fill="none" stroke="#191970" d="M1111.1886,-433.4724C1207.6762,-424.2123 1380.7977,-406.9823 1528.5,-389 1540.9991,-387.4783 1554.692,-385.6237 1566.7496,-383.9269"/>
<polygon fill="#191970" stroke="#191970" points="1567.4466,-387.3631 1576.8536,-382.4888 1566.4601,-380.4329 1567.4466,-387.3631"/>
</g>
<!-- Node30&#45;&gt;Node29 -->
<g id="edge78" class="edge">
<title>Node30&#45;&gt;Node29</title>
<path fill="none" stroke="#191970" d="M1111.3175,-434.3497C1148.1098,-431.3925 1193.1198,-427.8747 1233.5,-425 1467.0224,-408.375 1743.2441,-391.5733 1876.1885,-383.6657"/>
<polygon fill="#191970" stroke="#191970" points="1876.5091,-387.1529 1886.2839,-383.0659 1876.0939,-380.1652 1876.5091,-387.1529"/>
</g>
<!-- Node31 -->
<g id="node32" class="node">
<title>Node31</title>
<g id="a_node32"><a xlink:href="Transform_8h.html" target="_top" xlink:title="iDynTree/Core/Transform.h">
<polygon fill="none" stroke="#000000" points="1306.5,-369.5 1306.5,-388.5 1452.5,-388.5 1452.5,-369.5 1306.5,-369.5"/>
<text text-anchor="middle" x="1379.5" y="-376.5" font-family="FreeSans.ttf" font-size="10.00" fill="#000000">iDynTree/Core/Transform.h</text>
</a>
</g>
</g>
<!-- Node30&#45;&gt;Node31 -->
<g id="edge58" class="edge">
<title>Node30&#45;&gt;Node31</title>
<path fill="none" stroke="#191970" d="M1089.7174,-430.9581C1150.8924,-419.9894 1251.2167,-402.0012 1316.3072,-390.3305"/>
<polygon fill="#191970" stroke="#191970" points="1317.2147,-393.7237 1326.44,-388.5137 1315.9792,-386.8336 1317.2147,-393.7237"/>
</g>
<!-- Node33 -->
<g id="node34" class="node">
<title>Node33</title>
<g id="a_node34"><a xlink:href="Twist_8h.html" target="_top" xlink:title="iDynTree/Core/Twist.h">
<polygon fill="none" stroke="#000000" points="962.5,-369.5 962.5,-388.5 1084.5,-388.5 1084.5,-369.5 962.5,-369.5"/>
<text text-anchor="middle" x="1023.5" y="-376.5" font-family="FreeSans.ttf" font-size="10.00" fill="#000000">iDynTree/Core/Twist.h</text>
</a>
</g>
</g>
<!-- Node30&#45;&gt;Node33 -->
<g id="edge66" class="edge">
<title>Node30&#45;&gt;Node33</title>
<path fill="none" stroke="#191970" d="M1034.4688,-430.8906C1032.6478,-422.276 1029.9198,-409.3708 1027.6401,-398.5858"/>
<polygon fill="#191970" stroke="#191970" points="1031.0524,-397.8048 1025.5599,-388.7449 1024.2038,-399.2525 1031.0524,-397.8048"/>
</g>
<!-- Node43 -->
<g id="node37" class="node">
<title>Node43</title>
<g id="a_node37"><a xlink:href="SpatialAcc_8h.html" target="_top" xlink:title="iDynTree/Core/SpatialAcc.h">
<polygon fill="none" stroke="#000000" points="1102.5,-369.5 1102.5,-388.5 1250.5,-388.5 1250.5,-369.5 1102.5,-369.5"/>
<text text-anchor="middle" x="1176.5" y="-376.5" font-family="FreeSans.ttf" font-size="10.00" fill="#000000">iDynTree/Core/SpatialAcc.h</text>
</a>
</g>
</g>
<!-- Node30&#45;&gt;Node43 -->
<g id="edge70" class="edge">
<title>Node30&#45;&gt;Node43</title>
<path fill="none" stroke="#191970" d="M1058.375,-430.8906C1081.7996,-420.6005 1119.1596,-404.1888 1145.5841,-392.5809"/>
<polygon fill="#191970" stroke="#191970" points="1147.0307,-395.7683 1154.7786,-388.5419 1144.2154,-389.3594 1147.0307,-395.7683"/>
</g>
<!-- Node44 -->
<g id="node38" class="node">
<title>Node44</title>
<g id="a_node38"><a xlink:href="Wrench_8h.html" target="_top" xlink:title="iDynTree/Core/Wrench.h">
<polygon fill="none" stroke="#000000" points="811,-369.5 811,-388.5 944,-388.5 944,-369.5 811,-369.5"/>
<text text-anchor="middle" x="877.5" y="-376.5" font-family="FreeSans.ttf" font-size="10.00" fill="#000000">iDynTree/Core/Wrench.h</text>
</a>
</g>
</g>
<!-- Node30&#45;&gt;Node44 -->
<g id="edge72" class="edge">
<title>Node30&#45;&gt;Node44</title>
<path fill="none" stroke="#191970" d="M1011.6563,-430.8906C984.8193,-420.5103 941.8767,-403.9004 911.8247,-392.2766"/>
<polygon fill="#191970" stroke="#191970" points="912.7586,-388.8851 902.1693,-388.5419 910.2333,-395.4138 912.7586,-388.8851"/>
</g>
<!-- Node49 -->
<g id="node40" class="node">
<title>Node49</title>
<g id="a_node40"><a xlink:href="ArticulatedBodyInertia_8h.html" target="_top" xlink:title="iDynTree/Core/Articulated\lBodyInertia.h">
<polygon fill="none" stroke="#000000" points="1120,-168.5 1120,-198.5 1261,-198.5 1261,-168.5 1120,-168.5"/>
<text text-anchor="start" x="1128" y="-186.5" font-family="FreeSans.ttf" font-size="10.00" fill="#000000">iDynTree/Core/Articulated</text>
<text text-anchor="middle" x="1190.5" y="-175.5" font-family="FreeSans.ttf" font-size="10.00" fill="#000000">BodyInertia.h</text>
</a>
</g>
</g>
<!-- Node30&#45;&gt;Node49 -->
<g id="edge75" class="edge">
<title>Node30&#45;&gt;Node49</title>
<path fill="none" stroke="#191970" d="M1094.3126,-430.9599C1156.8715,-420.0508 1249.1426,-402.022 1259.5,-389 1303.9916,-333.0624 1244.4957,-247.0224 1210.8142,-206.3291"/>
<polygon fill="#191970" stroke="#191970" points="1213.3951,-203.9607 1204.263,-198.5889 1208.052,-208.4831 1213.3951,-203.9607"/>
</g>
<!-- Node31&#45;&gt;Node2 -->
<g id="edge65" class="edge">
<title>Node31&#45;&gt;Node2</title>
<path fill="none" stroke="#191970" d="M1390.7519,-369.4888C1419.0585,-344.7904 1493.128,-275.2109 1523.5,-199 1538.026,-162.5507 1545.0364,-150.6889 1538.5,-112 1536.955,-102.8551 1533.7966,-93.1019 1530.691,-84.9405"/>
<polygon fill="#191970" stroke="#191970" points="1533.9127,-83.5713 1526.911,-75.6198 1527.4258,-86.2021 1533.9127,-83.5713"/>
</g>
<!-- Node31&#45;&gt;Node17 -->
<g id="edge59" class="edge">
<title>Node31&#45;&gt;Node17</title>
<path fill="none" stroke="#191970" d="M1430.3901,-369.4581C1488.7695,-358.512 1584.4321,-340.5752 1646.6861,-328.9026"/>
<polygon fill="#191970" stroke="#191970" points="1647.5767,-332.2967 1656.7604,-327.0137 1646.2866,-325.4166 1647.5767,-332.2967"/>
</g>
<!-- Node31&#45;&gt;Node20 -->
<g id="edge60" class="edge">
<title>Node31&#45;&gt;Node20</title>
<path fill="none" stroke="#191970" d="M1381.5294,-369.3416C1385.9467,-348.3184 1396.5069,-298.0598 1402.3809,-270.1038"/>
<polygon fill="#191970" stroke="#191970" points="1405.8159,-270.7765 1404.4471,-260.2705 1398.9655,-269.337 1405.8159,-270.7765"/>
</g>
<!-- Node31&#45;&gt;Node22 -->
<g id="edge64" class="edge">
<title>Node31&#45;&gt;Node22</title>
<path fill="none" stroke="#191970" d="M1365.9868,-369.387C1330.3105,-344.3567 1230.0397,-276.2506 1138.5,-235 1033.6794,-187.7647 903.2652,-151.6442 833.3388,-133.9773"/>
<polygon fill="#191970" stroke="#191970" points="834.0217,-130.5403 823.471,-131.5055 832.3208,-137.3306 834.0217,-130.5403"/>
</g>
<!-- Node32 -->
<g id="node33" class="node">
<title>Node32</title>
<g id="a_node33"><a xlink:href="TransformSemantics_8h.html" target="_top" xlink:title="iDynTree/Core/TransformSemantics.h">
<polygon fill="none" stroke="#000000" points="882,-112.5 882,-131.5 1079,-131.5 1079,-112.5 882,-112.5"/>
<text text-anchor="middle" x="980.5" y="-119.5" font-family="FreeSans.ttf" font-size="10.00" fill="#000000">iDynTree/Core/TransformSemantics.h</text>
</a>
</g>
</g>
<!-- Node31&#45;&gt;Node32 -->
<g id="edge61" class="edge">
<title>Node31&#45;&gt;Node32</title>
<path fill="none" stroke="#191970" d="M1375.0566,-369.2648C1356.8531,-329.5638 1288.0644,-181.3669 1269.5,-168 1240.9605,-147.4509 1158.7704,-135.6744 1089.3032,-129.192"/>
<polygon fill="#191970" stroke="#191970" points="1089.4289,-125.6891 1079.1542,-128.2735 1088.798,-132.6606 1089.4289,-125.6891"/>
</g>
<!-- Node32&#45;&gt;Node2 -->
<g id="edge62" class="edge">
<title>Node32&#45;&gt;Node2</title>
<path fill="none" stroke="#191970" d="M1072.7499,-112.4686C1196.3831,-99.6947 1409.6108,-77.6638 1490.3019,-69.3267"/>
<polygon fill="#191970" stroke="#191970" points="1490.7616,-72.798 1500.3489,-68.2887 1490.0421,-65.835 1490.7616,-72.798"/>
</g>
<!-- Node32&#45;&gt;Node4 -->
<g id="edge63" class="edge">
<title>Node32&#45;&gt;Node4</title>
<path fill="none" stroke="#191970" d="M928.7567,-112.4369C876.247,-102.7321 794.9556,-87.708 739.1423,-77.3926"/>
<polygon fill="#191970" stroke="#191970" points="739.4994,-73.8994 729.0299,-75.5237 738.2272,-80.7829 739.4994,-73.8994"/>
</g>
<!-- Node34 -->
<g id="node35" class="node">
<title>Node34</title>
<g id="a_node35"><a xlink:href="SpatialMotionVector_8h.html" target="_top" xlink:title="iDynTree/Core/SpatialMotion\lVector.h">
<polygon fill="none" stroke="#ff0000" points="977,-302.5 977,-332.5 1132,-332.5 1132,-302.5 977,-302.5"/>
<text text-anchor="start" x="985" y="-320.5" font-family="FreeSans.ttf" font-size="10.00" fill="#000000">iDynTree/Core/SpatialMotion</text>
<text text-anchor="middle" x="1054.5" y="-309.5" font-family="FreeSans.ttf" font-size="10.00" fill="#000000">Vector.h</text>
</a>
</g>
</g>
<!-- Node33&#45;&gt;Node34 -->
<g id="edge67" class="edge">
<title>Node33&#45;&gt;Node34</title>
<path fill="none" stroke="#191970" d="M1028.3438,-369.3906C1032.0731,-361.9922 1037.3975,-351.4291 1042.2702,-341.7623"/>
<polygon fill="#191970" stroke="#191970" points="1045.5407,-343.0497 1046.9165,-332.5446 1039.2899,-339.8989 1045.5407,-343.0497"/>
</g>
<!-- Node34&#45;&gt;Node3 -->
<g id="edge68" class="edge">
<title>Node34&#45;&gt;Node3</title>
<path fill="none" stroke="#191970" d="M1023.3758,-302.389C969.4923,-276.2281 859.5953,-222.8724 807.3414,-197.5027"/>
<polygon fill="#191970" stroke="#191970" points="808.8062,-194.3232 798.2817,-193.1042 805.7489,-200.6203 808.8062,-194.3232"/>
</g>
<!-- Node35 -->
<g id="node36" class="node">
<title>Node35</title>
<g id="a_node36"><a xlink:href="LinearMotionVector3_8h.html" target="_top" xlink:title="iDynTree/Core/LinearMotion\lVector3.h">
<polygon fill="none" stroke="#ff0000" points="979,-235.5 979,-265.5 1130,-265.5 1130,-235.5 979,-235.5"/>
<text text-anchor="start" x="987" y="-253.5" font-family="FreeSans.ttf" font-size="10.00" fill="#000000">iDynTree/Core/LinearMotion</text>
<text text-anchor="middle" x="1054.5" y="-242.5" font-family="FreeSans.ttf" font-size="10.00" fill="#000000">Vector3.h</text>
</a>
</g>
</g>
<!-- Node34&#45;&gt;Node35 -->
<g id="edge69" class="edge">
<title>Node34&#45;&gt;Node35</title>
<path fill="none" stroke="#191970" d="M1054.5,-302.2967C1054.5,-294.5013 1054.5,-284.7991 1054.5,-275.9064"/>
<polygon fill="#191970" stroke="#191970" points="1058.0001,-275.6431 1054.5,-265.6432 1051.0001,-275.6432 1058.0001,-275.6431"/>
</g>
<!-- Node43&#45;&gt;Node34 -->
<g id="edge71" class="edge">
<title>Node43&#45;&gt;Node34</title>
<path fill="none" stroke="#191970" d="M1157.4375,-369.3906C1140.3912,-360.7976 1114.8764,-347.9356 1093.5144,-337.1671"/>
<polygon fill="#191970" stroke="#191970" points="1094.8497,-333.9207 1084.3446,-332.5446 1091.6986,-340.1714 1094.8497,-333.9207"/>
</g>
<!-- Node45 -->
<g id="node39" class="node">
<title>Node45</title>
<g id="a_node39"><a xlink:href="SpatialForceVector_8h.html" target="_top" xlink:title="iDynTree/Core/SpatialForce\lVector.h">
<polygon fill="none" stroke="#ff0000" points="810.5,-302.5 810.5,-332.5 958.5,-332.5 958.5,-302.5 810.5,-302.5"/>
<text text-anchor="start" x="818.5" y="-320.5" font-family="FreeSans.ttf" font-size="10.00" fill="#000000">iDynTree/Core/SpatialForce</text>
<text text-anchor="middle" x="884.5" y="-309.5" font-family="FreeSans.ttf" font-size="10.00" fill="#000000">Vector.h</text>
</a>
</g>
</g>
<!-- Node44&#45;&gt;Node45 -->
<g id="edge73" class="edge">
<title>Node44&#45;&gt;Node45</title>
<path fill="none" stroke="#191970" d="M878.5938,-369.3906C879.4095,-362.2234 880.5634,-352.0862 881.635,-342.671"/>
<polygon fill="#191970" stroke="#191970" points="885.1342,-342.8763 882.7876,-332.5446 878.1791,-342.0846 885.1342,-342.8763"/>
</g>
<!-- Node45&#45;&gt;Node3 -->
<g id="edge74" class="edge">
<title>Node45&#45;&gt;Node3</title>
<path fill="none" stroke="#191970" d="M872.5465,-302.389C852.7967,-277.4222 813.4534,-227.6864 792.4589,-201.1462"/>
<polygon fill="#191970" stroke="#191970" points="795.0464,-198.7756 786.0973,-193.1042 789.5564,-203.1184 795.0464,-198.7756"/>
</g>
<!-- Node49&#45;&gt;Node2 -->
<g id="edge77" class="edge">
<title>Node49&#45;&gt;Node2</title>
<path fill="none" stroke="#191970" d="M1261.1088,-173.4411C1325.2284,-163.5611 1414.5103,-147.7223 1446.5,-132 1470.584,-120.1633 1493.1209,-98.7787 1507.3007,-83.5601"/>
<polygon fill="#191970" stroke="#191970" points="1510.1691,-85.6062 1514.2754,-75.8395 1504.9747,-80.9137 1510.1691,-85.6062"/>
</g>
<!-- Node49&#45;&gt;Node22 -->
<g id="edge76" class="edge">
<title>Node49&#45;&gt;Node22</title>
<path fill="none" stroke="#191970" d="M1119.606,-172.7875C1045.9757,-161.6616 931.3224,-144.3368 856.8098,-133.0775"/>
<polygon fill="#191970" stroke="#191970" points="856.9813,-129.5638 846.5706,-131.5303 855.9353,-136.4852 856.9813,-129.5638"/>
</g>
<!-- Node50&#45;&gt;Node28 -->
<g id="edge82" class="edge">
<title>Node50&#45;&gt;Node28</title>
<path fill="none" stroke="#191970" d="M1674.75,-430.8906C1660.8009,-421.1421 1638.9902,-405.8994 1622.6103,-394.4521"/>
<polygon fill="#191970" stroke="#191970" points="1624.3551,-391.4015 1614.1534,-388.5419 1620.3452,-397.1392 1624.3551,-391.4015"/>
</g>
<!-- Node50&#45;&gt;Node29 -->
<g id="edge81" class="edge">
<title>Node50&#45;&gt;Node29</title>
<path fill="none" stroke="#191970" d="M1729.9258,-430.9581C1776.8894,-420.1406 1853.4933,-402.4959 1904.1979,-390.8168"/>
<polygon fill="#191970" stroke="#191970" points="1905.0178,-394.2196 1913.977,-388.5643 1903.4465,-387.3983 1905.0178,-394.2196"/>
</g>
<!-- Node51&#45;&gt;Node26 -->
<g id="edge86" class="edge">
<title>Node51&#45;&gt;Node26</title>
<path fill="none" stroke="#191970" d="M998.3001,-500.7424C911.4497,-492.3139 776.3869,-476.4837 729.5,-456 720.8368,-452.2153 678.2646,-416.8579 652.8122,-395.394"/>
<polygon fill="#191970" stroke="#191970" points="654.8067,-392.497 644.9105,-388.7133 650.2871,-397.8425 654.8067,-392.497"/>
</g>
<!-- Node51&#45;&gt;Node28 -->
<g id="edge94" class="edge">
<title>Node51&#45;&gt;Node28</title>
<path fill="none" stroke="#191970" d="M1152.6831,-501.1342C1222.1283,-494.1486 1326.4727,-480.517 1414.5,-456 1445.0038,-447.5042 1525.5146,-412.4569 1569.9566,-392.7025"/>
<polygon fill="#191970" stroke="#191970" points="1571.4136,-395.8851 1579.1229,-388.6176 1568.5641,-389.4913 1571.4136,-395.8851"/>
</g>
<!-- Node51&#45;&gt;Node29 -->
<g id="edge87" class="edge">
<title>Node51&#45;&gt;Node29</title>
<path fill="none" stroke="#191970" d="M1152.6337,-499.5201C1232.1101,-490.8002 1359.4314,-475.4435 1468.5,-456 1529.9593,-445.0437 1544.0428,-435.9679 1605.5,-425 1697.9394,-408.5029 1805.0986,-395.2756 1876.2466,-387.3134"/>
<polygon fill="#191970" stroke="#191970" points="1876.924,-390.7598 1886.4765,-386.1771 1876.1512,-383.8026 1876.924,-390.7598"/>
</g>
<!-- Node51&#45;&gt;Node30 -->
<g id="edge88" class="edge">
<title>Node51&#45;&gt;Node30</title>
<path fill="none" stroke="#191970" d="M1066.6503,-492.2967C1060.8689,-482.3645 1053.2858,-469.3371 1047.1709,-458.8321"/>
<polygon fill="#191970" stroke="#191970" points="1050.1175,-456.9367 1042.0618,-450.055 1044.0677,-460.4582 1050.1175,-456.9367"/>
</g>
<!-- Node51&#45;&gt;Node31 -->
<g id="edge84" class="edge">
<title>Node51&#45;&gt;Node31</title>
<path fill="none" stroke="#191970" d="M1095.6511,-492.3656C1120.8478,-474.0807 1165.8686,-443.4782 1208.5,-425 1243.7766,-409.7096 1285.3966,-398.3805 1318.743,-390.7914"/>
<polygon fill="#191970" stroke="#191970" points="1319.8066,-394.1406 1328.8102,-388.556 1318.2892,-387.307 1319.8066,-394.1406"/>
</g>
<!-- Node51&#45;&gt;Node33 -->
<g id="edge85" class="edge">
<title>Node51&#45;&gt;Node33</title>
<path fill="none" stroke="#191970" d="M1001.6559,-492.373C982.4646,-484.7328 963.9783,-473.2497 952.5,-456 944.8674,-444.5296 945.9193,-437.1046 952.5,-425 960.1377,-410.9511 974.1209,-400.5317 987.6708,-393.1958"/>
<polygon fill="#191970" stroke="#191970" points="989.5059,-396.1921 996.899,-388.603 986.387,-389.9253 989.5059,-396.1921"/>
</g>
<!-- Node52 -->
<g id="node43" class="node">
<title>Node52</title>
<g id="a_node43"><a xlink:href="JointState_8h.html" target="_top" xlink:title="iDynTree/Model/JointState.h">
<polygon fill="none" stroke="#000000" points="739,-431 739,-450 890,-450 890,-431 739,-431"/>
<text text-anchor="middle" x="814.5" y="-438" font-family="FreeSans.ttf" font-size="10.00" fill="#000000">iDynTree/Model/JointState.h</text>
</a>
</g>
</g>
<!-- Node51&#45;&gt;Node52 -->
<g id="edge89" class="edge">
<title>Node51&#45;&gt;Node52</title>
<path fill="none" stroke="#191970" d="M1016.9265,-492.4639C969.937,-480.4015 904.8542,-463.6944 861.2963,-452.5128"/>
<polygon fill="#191970" stroke="#191970" points="862.0843,-449.1017 851.5281,-450.0053 860.3437,-455.8819 862.0843,-449.1017"/>
</g>
<!-- Node52&#45;&gt;Node3 -->
<g id="edge90" class="edge">
<title>Node52&#45;&gt;Node3</title>
<path fill="none" stroke="#191970" d="M809.5278,-430.9288C804.5286,-420.808 797.0665,-404.2303 793.5,-389 777.8978,-322.3717 777.2374,-240.5712 777.9002,-203.4778"/>
<polygon fill="#191970" stroke="#191970" points="781.4085,-203.1609 778.1447,-193.0814 774.4105,-202.9963 781.4085,-203.1609"/>
</g>
<!-- Node52&#45;&gt;Node26 -->
<g id="edge91" class="edge">
<title>Node52&#45;&gt;Node26</title>
<path fill="none" stroke="#191970" d="M786.2188,-430.8906C755.27,-420.3749 705.5058,-403.466 671.243,-391.8243"/>
<polygon fill="#191970" stroke="#191970" points="672.1771,-388.4452 661.5827,-388.5419 669.925,-395.073 672.1771,-388.4452"/>
</g>
<!-- Node52&#45;&gt;Node28 -->
<g id="edge93" class="edge">
<title>Node52&#45;&gt;Node28</title>
<path fill="none" stroke="#191970" d="M890.3552,-431.298C910.5323,-429.037 932.3253,-426.7624 952.5,-425 1208.0264,-402.6783 1273.2874,-414.6614 1528.5,-389 1541.0282,-387.7403 1554.7276,-385.9435 1566.7821,-384.2197"/>
<polygon fill="#191970" stroke="#191970" points="1567.4949,-387.6527 1576.8814,-382.7389 1566.4794,-380.7267 1567.4949,-387.6527"/>
</g>
<!-- Node52&#45;&gt;Node45 -->
<g id="edge92" class="edge">
<title>Node52&#45;&gt;Node45</title>
<path fill="none" stroke="#191970" d="M808.8236,-430.5839C801.3711,-416.1316 790.4586,-388.8452 801.5,-369 808.9359,-355.6351 821.4338,-345.2953 834.5042,-337.5077"/>
<polygon fill="#191970" stroke="#191970" points="836.5089,-340.3999 843.5892,-332.5184 833.1393,-334.2643 836.5089,-340.3999"/>
</g>
<!-- Node53&#45;&gt;Node2 -->
<g id="edge96" class="edge">
<title>Node53&#45;&gt;Node2</title>
<path fill="none" stroke="#191970" d="M1529.0695,-566.1368C1676.0912,-560.1569 1995.6403,-545.0433 2103.5,-523 2237.1302,-495.69 2374.5,-515.3923 2374.5,-379 2374.5,-379 2374.5,-379 2374.5,-183.5 2374.5,-99.1995 1711.4852,-72.1933 1555.2109,-66.9987"/>
<polygon fill="#191970" stroke="#191970" points="1554.9595,-63.4887 1544.851,-66.6619 1554.732,-70.485 1554.9595,-63.4887"/>
</g>
<!-- Node53&#45;&gt;Node10 -->
<g id="edge98" class="edge">
<title>Node53&#45;&gt;Node10</title>
<path fill="none" stroke="#191970" d="M1377.9585,-566.55C1251.7617,-561.867 990.2395,-549.6434 770.5,-523 599.8184,-502.3049 540.577,-538.0746 389.5,-456 213.98,-360.6464 76.279,-148.6518 37.4872,-84.6502"/>
<polygon fill="#191970" stroke="#191970" points="40.2611,-82.4699 32.12,-75.6896 34.256,-86.0669 40.2611,-82.4699"/>
</g>
<!-- Node53&#45;&gt;Node26 -->
<g id="edge99" class="edge">
<title>Node53&#45;&gt;Node26</title>
<path fill="none" stroke="#191970" d="M1377.7202,-566.0436C1207.0314,-558.1005 798.6213,-531.5252 686.5,-456 665.1351,-441.6086 649.8886,-415.461 641.3868,-397.6686"/>
<polygon fill="#191970" stroke="#191970" points="644.5699,-396.213 637.2632,-388.5408 638.1906,-399.0949 644.5699,-396.213"/>
</g>
<!-- Node53&#45;&gt;Node28 -->
<g id="edge97" class="edge">
<title>Node53&#45;&gt;Node28</title>
<path fill="none" stroke="#191970" d="M1476.3509,-559.4483C1492.6671,-551.6597 1514.1763,-539.288 1528.5,-523 1560.0291,-487.1472 1550.2667,-467.2515 1572.5,-425 1577.4347,-415.6223 1583.4884,-405.5313 1588.703,-397.1969"/>
<polygon fill="#191970" stroke="#191970" points="1591.7159,-398.9815 1594.1295,-388.6652 1585.8094,-395.2247 1591.7159,-398.9815"/>
</g>
<!-- Node53&#45;&gt;Node29 -->
<g id="edge115" class="edge">
<title>Node53&#45;&gt;Node29</title>
<path fill="none" stroke="#191970" d="M1529.0476,-564.2509C1723.6639,-551.2518 2230.4049,-512.2688 2279.5,-456 2288.5581,-445.6184 2288.5317,-435.4046 2279.5,-425 2263.6378,-406.7267 2125.3987,-392.4026 2034.687,-384.8642"/>
<polygon fill="#191970" stroke="#191970" points="2034.9472,-381.3738 2024.6947,-384.0451 2034.3753,-388.3504 2034.9472,-381.3738"/>
</g>
<!-- Node54 -->
<g id="node45" class="node">
<title>Node54</title>
<g id="a_node45"><a xlink:href="Model_8h.html" target="_top" xlink:title="iDynTree/Model/Model.h">
<polygon fill="none" stroke="#000000" points="1387,-498 1387,-517 1520,-517 1520,-498 1387,-498"/>
<text text-anchor="middle" x="1453.5" y="-505" font-family="FreeSans.ttf" font-size="10.00" fill="#000000">iDynTree/Model/Model.h</text>
</a>
</g>
</g>
<!-- Node53&#45;&gt;Node54 -->
<g id="edge100" class="edge">
<title>Node53&#45;&gt;Node54</title>
<path fill="none" stroke="#191970" d="M1453.5,-559.3906C1453.5,-550.8657 1453.5,-538.1392 1453.5,-527.4235"/>
<polygon fill="#191970" stroke="#191970" points="1457.0001,-527.2448 1453.5,-517.2449 1450.0001,-527.2449 1457.0001,-527.2448"/>
</g>
<!-- Node54&#45;&gt;Node28 -->
<g id="edge114" class="edge">
<title>Node54&#45;&gt;Node28</title>
<path fill="none" stroke="#191970" d="M1461.9604,-497.7735C1476.1461,-481.7299 1505.9842,-449.0981 1534.5,-425 1547.6338,-413.9009 1563.4,-402.8382 1576.2288,-394.3439"/>
<polygon fill="#191970" stroke="#191970" points="1578.5028,-397.0398 1584.9715,-388.6489 1574.682,-391.1744 1578.5028,-397.0398"/>
</g>
<!-- Node54&#45;&gt;Node29 -->
<g id="edge106" class="edge">
<title>Node54&#45;&gt;Node29</title>
<path fill="none" stroke="#191970" d="M1520.1458,-506.8049C1670.0565,-504.5495 2023.5838,-495.098 2059.5,-456 2068.8208,-445.8535 2067.018,-436.5459 2059.5,-425 2049.2287,-409.2257 2032.1825,-398.8207 2014.8325,-391.9735"/>
<polygon fill="#191970" stroke="#191970" points="2015.798,-388.6016 2005.2035,-388.524 2013.4372,-395.1915 2015.798,-388.6016"/>
</g>
<!-- Node54&#45;&gt;Node31 -->
<g id="edge105" class="edge">
<title>Node54&#45;&gt;Node31</title>
<path fill="none" stroke="#191970" d="M1386.8059,-501.9917C1325.2004,-495.3561 1240.1864,-481.7342 1219.5,-456 1191.739,-421.4648 1245.5917,-401.4364 1298.1624,-390.5117"/>
<polygon fill="#191970" stroke="#191970" points="1299.1565,-393.8831 1308.2887,-388.5115 1297.8,-387.0158 1299.1565,-393.8831"/>
</g>
<!-- Node55 -->
<g id="node46" class="node">
<title>Node55</title>
<g id="a_node46"><a xlink:href="IJoint_8h.html" target="_top" xlink:title="iDynTree/Model/IJoint.h">
<polygon fill="none" stroke="#000000" points="1780.5,-431 1780.5,-450 1908.5,-450 1908.5,-431 1780.5,-431"/>
<text text-anchor="middle" x="1844.5" y="-438" font-family="FreeSans.ttf" font-size="10.00" fill="#000000">iDynTree/Model/IJoint.h</text>
</a>
</g>
</g>
<!-- Node54&#45;&gt;Node55 -->
<g id="edge101" class="edge">
<title>Node54&#45;&gt;Node55</title>
<path fill="none" stroke="#191970" d="M1518.2195,-497.9627C1582.5892,-488.255 1684.0906,-472.3477 1771.5,-456 1777.8517,-454.8121 1784.4994,-453.4987 1791.0865,-452.1538"/>
<polygon fill="#191970" stroke="#191970" points="1792.2558,-455.4859 1801.3367,-450.0281 1790.8342,-448.6317 1792.2558,-455.4859"/>
</g>
<!-- Node56 -->
<g id="node47" class="node">
<title>Node56</title>
<g id="a_node47"><a xlink:href="Link_8h.html" target="_top" xlink:title="iDynTree/Model/Link.h">
<polygon fill="none" stroke="#ff0000" points="1926.5,-431 1926.5,-450 2050.5,-450 2050.5,-431 1926.5,-431"/>
<text text-anchor="middle" x="1988.5" y="-438" font-family="FreeSans.ttf" font-size="10.00" fill="#000000">iDynTree/Model/Link.h</text>
</a>
</g>
</g>
<!-- Node54&#45;&gt;Node56 -->
<g id="edge103" class="edge">
<title>Node54&#45;&gt;Node56</title>
<path fill="none" stroke="#191970" d="M1520.2632,-502.2943C1610.6833,-494.7423 1776.9363,-479.0792 1917.5,-456 1924.2755,-454.8875 1931.379,-453.5476 1938.3647,-452.1271"/>
<polygon fill="#191970" stroke="#191970" points="1939.3967,-455.4868 1948.4635,-450.0055 1937.9575,-448.6363 1939.3967,-455.4868"/>
</g>
<!-- Node61 -->
<g id="node48" class="node">
<title>Node61</title>
<g id="a_node48"><a xlink:href="SolidShapes_8h.html" target="_top" xlink:title="iDynTree/Model/SolidShapes.h">
<polygon fill="none" stroke="#000000" points="1243,-431 1243,-450 1406,-450 1406,-431 1243,-431"/>
<text text-anchor="middle" x="1324.5" y="-438" font-family="FreeSans.ttf" font-size="10.00" fill="#000000">iDynTree/Model/SolidShapes.h</text>
</a>
</g>
</g>
<!-- Node54&#45;&gt;Node61 -->
<g id="edge107" class="edge">
<title>Node54&#45;&gt;Node61</title>
<path fill="none" stroke="#191970" d="M1435.0174,-497.9005C1413.2725,-486.6067 1376.9677,-467.7506 1351.936,-454.7497"/>
<polygon fill="#191970" stroke="#191970" points="1353.4359,-451.5849 1342.9483,-450.0817 1350.2095,-457.797 1353.4359,-451.5849"/>
</g>
<!-- Node62 -->
<g id="node49" class="node">
<title>Node62</title>
<polygon fill="none" stroke="#bfbfbf" points="1471,-369.5 1471,-388.5 1520,-388.5 1520,-369.5 1471,-369.5"/>
<text text-anchor="middle" x="1495.5" y="-376.5" font-family="FreeSans.ttf" font-size="10.00" fill="#000000">cstdlib</text>
</g>
<!-- Node54&#45;&gt;Node62 -->
<g id="edge113" class="edge">
<title>Node54&#45;&gt;Node62</title>
<path fill="none" stroke="#191970" d="M1386.7444,-504.1935C1306.2766,-497.7888 1187.2584,-479.1158 1233.5,-425 1265.0651,-388.0599 1396.512,-398.9048 1460.6565,-388.6189"/>
<polygon fill="#191970" stroke="#191970" points="1461.5515,-392.0112 1470.7147,-386.6927 1460.2348,-385.1361 1461.5515,-392.0112"/>
</g>
<!-- Node55&#45;&gt;Node29 -->
<g id="edge102" class="edge">
<title>Node55&#45;&gt;Node29</title>
<path fill="none" stroke="#191970" d="M1861.8438,-430.8906C1879.9273,-420.8713 1908.4859,-405.0483 1929.3165,-393.5071"/>
<polygon fill="#191970" stroke="#191970" points="1931.2271,-396.4498 1938.278,-388.5419 1927.8346,-390.3268 1931.2271,-396.4498"/>
</g>
<!-- Node56&#45;&gt;Node29 -->
<g id="edge104" class="edge">
<title>Node56&#45;&gt;Node29</title>
<path fill="none" stroke="#191970" d="M1983.3438,-430.8906C1978.5768,-422.0068 1971.3615,-408.5601 1965.4703,-397.5811"/>
<polygon fill="#191970" stroke="#191970" points="1968.5412,-395.9016 1960.7289,-388.7449 1962.3731,-399.2114 1968.5412,-395.9016"/>
</g>
<!-- Node61&#45;&gt;Node2 -->
<g id="edge109" class="edge">
<title>Node61&#45;&gt;Node2</title>
<path fill="none" stroke="#191970" d="M1374.4124,-430.9974C1431.4693,-419.6611 1518.3403,-400.7684 1528.5,-389 1603.5225,-302.0985 1548.7149,-246.6594 1554.5,-132 1554.9479,-123.1224 1557.16,-120.4816 1554.5,-112 1551.2504,-101.6383 1544.7506,-91.5669 1538.4529,-83.5026"/>
<polygon fill="#191970" stroke="#191970" points="1540.9619,-81.047 1531.8618,-75.6212 1535.5921,-85.5376 1540.9619,-81.047"/>
</g>
<!-- Node61&#45;&gt;Node28 -->
<g id="edge110" class="edge">
<title>Node61&#45;&gt;Node28</title>
<path fill="none" stroke="#191970" d="M1371.6038,-430.9482C1419.7189,-421.0411 1496.5158,-404.813 1562.5,-389 1563.9512,-388.6522 1565.4318,-388.2909 1566.9263,-387.9208"/>
<polygon fill="#191970" stroke="#191970" points="1567.9954,-391.2604 1576.8241,-385.4034 1566.2699,-384.4764 1567.9954,-391.2604"/>
</g>
<!-- Node61&#45;&gt;Node29 -->
<g id="edge112" class="edge">
<title>Node61&#45;&gt;Node29</title>
<path fill="none" stroke="#191970" d="M1406.0226,-432.5544C1527.7436,-420.691 1755.5397,-398.489 1876.0459,-386.7439"/>
<polygon fill="#191970" stroke="#191970" points="1876.6906,-390.1978 1886.3039,-385.7441 1876.0116,-383.2308 1876.6906,-390.1978"/>
</g>
<!-- Node61&#45;&gt;Node31 -->
<g id="edge111" class="edge">
<title>Node61&#45;&gt;Node31</title>
<path fill="none" stroke="#191970" d="M1333.0938,-430.8906C1341.3597,-421.6478 1354.0426,-407.466 1364.0617,-396.2628"/>
<polygon fill="#191970" stroke="#191970" points="1366.7278,-398.5321 1370.7851,-388.7449 1361.51,-393.8657 1366.7278,-398.5321"/>
</g>
<!-- Node61&#45;&gt;Node62 -->
<g id="edge108" class="edge">
<title>Node61&#45;&gt;Node62</title>
<path fill="none" stroke="#191970" d="M1351.2188,-430.8906C1380.928,-420.2057 1428.9898,-402.9203 1461.3931,-391.2665"/>
<polygon fill="#191970" stroke="#191970" points="1462.6835,-394.522 1470.9089,-387.8442 1460.3144,-387.935 1462.6835,-394.522"/>
</g>
<!-- Node63&#45;&gt;Node28 -->
<g id="edge117" class="edge">
<title>Node63&#45;&gt;Node28</title>
<path fill="none" stroke="#191970" d="M2106.2925,-430.3767C2090.7561,-428.5332 2074.6343,-426.6674 2059.5,-425 1900.5994,-407.493 1710.4349,-389.3204 1634.3701,-382.1641"/>
<polygon fill="#191970" stroke="#191970" points="1634.6929,-378.6791 1624.4094,-381.2286 1634.0383,-385.6484 1634.6929,-378.6791"/>
</g>
<!-- Node63&#45;&gt;Node29 -->
<g id="edge118" class="edge">
<title>Node63&#45;&gt;Node29</title>
<path fill="none" stroke="#191970" d="M2131.5018,-425.4554C2091.6021,-414.9239 2038.9738,-401.0328 2001.6919,-391.1923"/>
<polygon fill="#191970" stroke="#191970" points="2002.1688,-387.6984 1991.6067,-388.5303 2000.3823,-394.4666 2002.1688,-387.6984"/>
</g>
</g>
</svg>
