<?xml version="1.0" encoding="UTF-8" standalone="no"?>
<!DOCTYPE svg PUBLIC "-//W3C//DTD SVG 1.1//EN"
 "http://www.w3.org/Graphics/SVG/1.1/DTD/svg11.dtd">
<!-- Generated by graphviz version 2.40.1 (20161225.0304)
 -->
<!-- Title: ChartsManager.cpp Pages: 1 -->
<svg width="2414pt" height="196pt"
 viewBox="0.00 0.00 2413.50 196.00" xmlns="http://www.w3.org/2000/svg" xmlns:xlink="http://www.w3.org/1999/xlink">
<g id="graph0" class="graph" transform="scale(1 1) rotate(0) translate(4 192)">
<title>ChartsManager.cpp</title>
<!-- Node0 -->
<g id="node1" class="node">
<title>Node0</title>
<polygon fill="#bfbfbf" stroke="#000000" points="1617.5,-168.5 1617.5,-187.5 1727.5,-187.5 1727.5,-168.5 1617.5,-168.5"/>
<text text-anchor="middle" x="1672.5" y="-175.5" font-family="FreeSans.ttf" font-size="10.00" fill="#000000">ChartsManager.cpp</text>
</g>
<!-- Node1 -->
<g id="node2" class="node">
<title>Node1</title>
<g id="a_node2"><a xlink:href="ChartsManager_8h.html" target="_top" xlink:title="ChartsManager.h">
<polygon fill="none" stroke="#000000" points="550.5,-112.5 550.5,-131.5 648.5,-131.5 648.5,-112.5 550.5,-112.5"/>
<text text-anchor="middle" x="599.5" y="-119.5" font-family="FreeSans.ttf" font-size="10.00" fill="#000000">ChartsManager.h</text>
</a>
</g>
</g>
<!-- Node0&#45;&gt;Node1 -->
<g id="edge1" class="edge">
<title>Node0&#45;&gt;Node1</title>
<path fill="none" stroke="#191970" d="M1617.443,-175.1266C1434.4771,-165.5776 847.6765,-134.9524 658.7235,-125.0909"/>
<polygon fill="#191970" stroke="#191970" points="658.8718,-121.594 648.703,-124.5679 658.5069,-128.5844 658.8718,-121.594"/>
</g>
<!-- Node8 -->
<g id="node9" class="node">
<title>Node8</title>
<polygon fill="none" stroke="#bfbfbf" points="872.5,-56.5 872.5,-75.5 920.5,-75.5 920.5,-56.5 872.5,-56.5"/>
<text text-anchor="middle" x="896.5" y="-63.5" font-family="FreeSans.ttf" font-size="10.00" fill="#000000">mutex</text>
</g>
<!-- Node0&#45;&gt;Node8 -->
<g id="edge25" class="edge">
<title>Node0&#45;&gt;Node8</title>
<path fill="none" stroke="#191970" d="M1617.2182,-177.1993C1457.4769,-174.5122 1002.9046,-164.1003 944.5,-132 925.759,-121.6996 912.4312,-100.602 904.6483,-85.0199"/>
<polygon fill="#191970" stroke="#191970" points="907.7252,-83.336 900.3334,-75.7457 901.3785,-86.2889 907.7252,-83.336"/>
</g>
<!-- Node11 -->
<g id="node12" class="node">
<title>Node11</title>
<g id="a_node12"><a xlink:href="ChartsManagerWindow_8h.html" target="_top" xlink:title="ChartsManagerWindow.h">
<polygon fill="none" stroke="#000000" points="939,-56.5 939,-75.5 1076,-75.5 1076,-56.5 939,-56.5"/>
<text text-anchor="middle" x="1007.5" y="-63.5" font-family="FreeSans.ttf" font-size="10.00" fill="#000000">ChartsManagerWindow.h</text>
</a>
</g>
</g>
<!-- Node0&#45;&gt;Node11 -->
<g id="edge13" class="edge">
<title>Node0&#45;&gt;Node11</title>
<path fill="none" stroke="#191970" d="M1617.2193,-176.508C1452.6888,-171.801 976.1375,-156.1321 953.5,-132 937.8128,-115.2771 960.8706,-94.6322 981.535,-80.9313"/>
<polygon fill="#191970" stroke="#191970" points="983.5318,-83.81 990.1247,-75.5164 979.7988,-77.8884 983.5318,-83.81"/>
</g>
<!-- Node13 -->
<g id="node14" class="node">
<title>Node13</title>
<polygon fill="none" stroke="#bfbfbf" points="963,-112.5 963,-131.5 1100,-131.5 1100,-112.5 963,-112.5"/>
<text text-anchor="middle" x="1031.5" y="-119.5" font-family="FreeSans.ttf" font-size="10.00" fill="#000000">yarp/os/ResourceFinder.h</text>
</g>
<!-- Node0&#45;&gt;Node13 -->
<g id="edge14" class="edge">
<title>Node0&#45;&gt;Node13</title>
<path fill="none" stroke="#191970" d="M1617.2812,-174.3347C1518.0618,-167.5636 1302.8214,-152.0331 1110.399,-132.052"/>
<polygon fill="#191970" stroke="#191970" points="1110.693,-128.5637 1100.3834,-131.0057 1109.9657,-135.5258 1110.693,-128.5637"/>
</g>
<!-- Node14 -->
<g id="node15" class="node">
<title>Node14</title>
<polygon fill="none" stroke="#bfbfbf" points="1118.5,-112.5 1118.5,-131.5 1246.5,-131.5 1246.5,-112.5 1118.5,-112.5"/>
<text text-anchor="middle" x="1182.5" y="-119.5" font-family="FreeSans.ttf" font-size="10.00" fill="#000000">yarp/os/SystemClock.h</text>
</g>
<!-- Node0&#45;&gt;Node14 -->
<g id="edge15" class="edge">
<title>Node0&#45;&gt;Node14</title>
<path fill="none" stroke="#191970" d="M1617.469,-172.3947C1539.5847,-164.3585 1392.4764,-148.8018 1256.7488,-132.129"/>
<polygon fill="#191970" stroke="#191970" points="1256.9349,-128.6255 1246.5817,-130.8753 1256.0781,-135.5729 1256.9349,-128.6255"/>
</g>
<!-- Node15 -->
<g id="node16" class="node">
<title>Node15</title>
<polygon fill="none" stroke="#bfbfbf" points="1264.5,-112.5 1264.5,-131.5 1384.5,-131.5 1384.5,-112.5 1264.5,-112.5"/>
<text text-anchor="middle" x="1324.5" y="-119.5" font-family="FreeSans.ttf" font-size="10.00" fill="#000000">QtCharts/QChartView</text>
</g>
<!-- Node0&#45;&gt;Node15 -->
<g id="edge16" class="edge">
<title>Node0&#45;&gt;Node15</title>
<path fill="none" stroke="#191970" d="M1617.3584,-169.1266C1556.8696,-159.3928 1459.6715,-143.7517 1394.0073,-133.1851"/>
<polygon fill="#191970" stroke="#191970" points="1394.1789,-129.6677 1383.7498,-131.5345 1393.0667,-136.5788 1394.1789,-129.6677"/>
</g>
<!-- Node16 -->
<g id="node17" class="node">
<title>Node16</title>
<polygon fill="none" stroke="#bfbfbf" points="1402.5,-112.5 1402.5,-131.5 1522.5,-131.5 1522.5,-112.5 1402.5,-112.5"/>
<text text-anchor="middle" x="1462.5" y="-119.5" font-family="FreeSans.ttf" font-size="10.00" fill="#000000">QtCharts/QLineSeries</text>
</g>
<!-- Node0&#45;&gt;Node16 -->
<g id="edge17" class="edge">
<title>Node0&#45;&gt;Node16</title>
<path fill="none" stroke="#191970" d="M1636.3997,-168.3733C1600.8752,-158.9001 1546.512,-144.4032 1508.0381,-134.1435"/>
<polygon fill="#191970" stroke="#191970" points="1508.6934,-130.696 1498.1292,-131.5011 1506.8897,-137.4596 1508.6934,-130.696"/>
</g>
<!-- Node17 -->
<g id="node18" class="node">
<title>Node17</title>
<polygon fill="none" stroke="#bfbfbf" points="1540.5,-112.5 1540.5,-131.5 1658.5,-131.5 1658.5,-112.5 1540.5,-112.5"/>
<text text-anchor="middle" x="1599.5" y="-119.5" font-family="FreeSans.ttf" font-size="10.00" fill="#000000">QtCharts/QValueAxis</text>
</g>
<!-- Node0&#45;&gt;Node17 -->
<g id="edge18" class="edge">
<title>Node0&#45;&gt;Node17</title>
<path fill="none" stroke="#191970" d="M1659.7844,-168.2455C1648.898,-159.8943 1633.0117,-147.7076 1620.28,-137.9408"/>
<polygon fill="#191970" stroke="#191970" points="1622.1346,-134.9523 1612.0699,-131.6427 1617.8739,-140.5063 1622.1346,-134.9523"/>
</g>
<!-- Node18 -->
<g id="node19" class="node">
<title>Node18</title>
<polygon fill="none" stroke="#bfbfbf" points="1676.5,-112.5 1676.5,-131.5 1816.5,-131.5 1816.5,-112.5 1676.5,-112.5"/>
<text text-anchor="middle" x="1746.5" y="-119.5" font-family="FreeSans.ttf" font-size="10.00" fill="#000000">QtWidgets/QMainWindow</text>
</g>
<!-- Node0&#45;&gt;Node18 -->
<g id="edge19" class="edge">
<title>Node0&#45;&gt;Node18</title>
<path fill="none" stroke="#191970" d="M1685.3898,-168.2455C1696.4254,-159.8943 1712.5292,-147.7076 1725.4353,-137.9408"/>
<polygon fill="#191970" stroke="#191970" points="1727.8959,-140.4681 1733.7579,-131.6427 1723.6717,-134.8862 1727.8959,-140.4681"/>
</g>
<!-- Node19 -->
<g id="node20" class="node">
<title>Node19</title>
<polygon fill="none" stroke="#bfbfbf" points="1835,-112.5 1835,-131.5 1914,-131.5 1914,-112.5 1835,-112.5"/>
<text text-anchor="middle" x="1874.5" y="-119.5" font-family="FreeSans.ttf" font-size="10.00" fill="#000000">QApplication</text>
</g>
<!-- Node0&#45;&gt;Node19 -->
<g id="edge20" class="edge">
<title>Node0&#45;&gt;Node19</title>
<path fill="none" stroke="#191970" d="M1707.225,-168.3733C1741.2508,-158.9404 1793.2437,-144.5265 1830.2234,-134.2747"/>
<polygon fill="#191970" stroke="#191970" points="1831.5266,-137.5455 1840.2281,-131.5011 1829.6565,-130.7999 1831.5266,-137.5455"/>
</g>
<!-- Node20 -->
<g id="node21" class="node">
<title>Node20</title>
<polygon fill="none" stroke="#bfbfbf" points="1932,-112.5 1932,-131.5 1985,-131.5 1985,-112.5 1932,-112.5"/>
<text text-anchor="middle" x="1958.5" y="-119.5" font-family="FreeSans.ttf" font-size="10.00" fill="#000000">QTimer</text>
</g>
<!-- Node0&#45;&gt;Node20 -->
<g id="edge21" class="edge">
<title>Node0&#45;&gt;Node20</title>
<path fill="none" stroke="#191970" d="M1727.6571,-169.4727C1776.4317,-161.5756 1849.6909,-148.8479 1921.6712,-132.2761"/>
<polygon fill="#191970" stroke="#191970" points="1922.8718,-135.5902 1931.8168,-129.9124 1921.2834,-128.7728 1922.8718,-135.5902"/>
</g>
<!-- Node21 -->
<g id="node22" class="node">
<title>Node21</title>
<polygon fill="none" stroke="#bfbfbf" points="2003.5,-112.5 2003.5,-131.5 2059.5,-131.5 2059.5,-112.5 2003.5,-112.5"/>
<text text-anchor="middle" x="2031.5" y="-119.5" font-family="FreeSans.ttf" font-size="10.00" fill="#000000">QObject</text>
</g>
<!-- Node0&#45;&gt;Node21 -->
<g id="edge22" class="edge">
<title>Node0&#45;&gt;Node21</title>
<path fill="none" stroke="#191970" d="M1727.5473,-172.2083C1789.8661,-165.1894 1894.5572,-152.0051 1993.4455,-132.0204"/>
<polygon fill="#191970" stroke="#191970" points="1994.209,-135.4368 2003.3033,-130.0013 1992.8044,-128.5792 1994.209,-135.4368"/>
</g>
<!-- Node22 -->
<g id="node23" class="node">
<title>Node22</title>
<polygon fill="none" stroke="#bfbfbf" points="2078,-112.5 2078,-131.5 2127,-131.5 2127,-112.5 2078,-112.5"/>
<text text-anchor="middle" x="2102.5" y="-119.5" font-family="FreeSans.ttf" font-size="10.00" fill="#000000">cstdlib</text>
</g>
<!-- Node0&#45;&gt;Node22 -->
<g id="edge23" class="edge">
<title>Node0&#45;&gt;Node22</title>
<path fill="none" stroke="#191970" d="M1727.7373,-174.5673C1802.7469,-169.2482 1941.0388,-157.1114 2067.8536,-131.8163"/>
<polygon fill="#191970" stroke="#191970" points="2068.6349,-135.2292 2077.7403,-129.8124 2067.2443,-128.3687 2068.6349,-135.2292"/>
</g>
<!-- Node23 -->
<g id="node24" class="node">
<title>Node23</title>
<polygon fill="none" stroke="#bfbfbf" points="2145.5,-112.5 2145.5,-131.5 2205.5,-131.5 2205.5,-112.5 2145.5,-112.5"/>
<text text-anchor="middle" x="2175.5" y="-119.5" font-family="FreeSans.ttf" font-size="10.00" fill="#000000">iostream</text>
</g>
<!-- Node0&#45;&gt;Node23 -->
<g id="edge24" class="edge">
<title>Node0&#45;&gt;Node23</title>
<path fill="none" stroke="#191970" d="M1727.5126,-175.2615C1812.8938,-170.4162 1982.5332,-158.4151 2135.3265,-131.9725"/>
<polygon fill="#191970" stroke="#191970" points="2136.1213,-135.3866 2145.3653,-130.2098 2134.9107,-128.4921 2136.1213,-135.3866"/>
</g>
<!-- Node24 -->
<g id="node25" class="node">
<title>Node24</title>
<polygon fill="none" stroke="#bfbfbf" points="2224,-112.5 2224,-131.5 2331,-131.5 2331,-112.5 2224,-112.5"/>
<text text-anchor="middle" x="2277.5" y="-119.5" font-family="FreeSans.ttf" font-size="10.00" fill="#000000">condition_variable</text>
</g>
<!-- Node0&#45;&gt;Node24 -->
<g id="edge26" class="edge">
<title>Node0&#45;&gt;Node24</title>
<path fill="none" stroke="#191970" d="M1727.6453,-174.6502C1824.0056,-168.5057 2029.4902,-154.1123 2213.7717,-132.0044"/>
<polygon fill="#191970" stroke="#191970" points="2214.4139,-135.4523 2223.921,-130.7763 2213.573,-128.503 2214.4139,-135.4523"/>
</g>
<!-- Node25 -->
<g id="node26" class="node">
<title>Node25</title>
<polygon fill="none" stroke="#bfbfbf" points="2349.5,-112.5 2349.5,-131.5 2405.5,-131.5 2405.5,-112.5 2349.5,-112.5"/>
<text text-anchor="middle" x="2377.5" y="-119.5" font-family="FreeSans.ttf" font-size="10.00" fill="#000000">sstream</text>
</g>
<!-- Node0&#45;&gt;Node25 -->
<g id="edge27" class="edge">
<title>Node0&#45;&gt;Node25</title>
<path fill="none" stroke="#191970" d="M1727.7331,-175.5883C1862.2565,-169.4962 2205.0607,-152.6062 2339.2853,-131.848"/>
<polygon fill="#191970" stroke="#191970" points="2340.0325,-135.2727 2349.3437,-130.2179 2338.9126,-128.3628 2340.0325,-135.2727"/>
</g>
<!-- Node2 -->
<g id="node3" class="node">
<title>Node2</title>
<polygon fill="none" stroke="#bfbfbf" points="176,-56.5 176,-75.5 269,-75.5 269,-56.5 176,-56.5"/>
<text text-anchor="middle" x="222.5" y="-63.5" font-family="FreeSans.ttf" font-size="10.00" fill="#000000">ChartsService.h</text>
</g>
<!-- Node1&#45;&gt;Node2 -->
<g id="edge2" class="edge">
<title>Node1&#45;&gt;Node2</title>
<path fill="none" stroke="#191970" d="M550.476,-115.508C489.4176,-107.3039 381.6604,-92.437 279.1343,-76.0582"/>
<polygon fill="#191970" stroke="#191970" points="279.6588,-72.5977 269.2305,-74.4686 278.5494,-79.5092 279.6588,-72.5977"/>
</g>
<!-- Node3 -->
<g id="node4" class="node">
<title>Node3</title>
<polygon fill="none" stroke="#bfbfbf" points="287.5,-56.5 287.5,-75.5 417.5,-75.5 417.5,-56.5 287.5,-56.5"/>
<text text-anchor="middle" x="352.5" y="-63.5" font-family="FreeSans.ttf" font-size="10.00" fill="#000000">RealTimeStreamData.h</text>
</g>
<!-- Node1&#45;&gt;Node3 -->
<g id="edge3" class="edge">
<title>Node1&#45;&gt;Node3</title>
<path fill="none" stroke="#191970" d="M557.3198,-112.4369C515.0477,-102.8529 449.8938,-88.0812 404.4583,-77.78"/>
<polygon fill="#191970" stroke="#191970" points="405.0326,-74.3215 394.5062,-75.5237 403.4848,-81.1482 405.0326,-74.3215"/>
</g>
<!-- Node4 -->
<g id="node5" class="node">
<title>Node4</title>
<polygon fill="none" stroke="#bfbfbf" points="435.5,-56.5 435.5,-75.5 519.5,-75.5 519.5,-56.5 435.5,-56.5"/>
<text text-anchor="middle" x="477.5" y="-63.5" font-family="FreeSans.ttf" font-size="10.00" fill="#000000">yarp/os/Port.h</text>
</g>
<!-- Node1&#45;&gt;Node4 -->
<g id="edge4" class="edge">
<title>Node1&#45;&gt;Node4</title>
<path fill="none" stroke="#191970" d="M578.5275,-112.3733C558.9433,-103.3838 529.5039,-89.8706 507.449,-79.7471"/>
<polygon fill="#191970" stroke="#191970" points="508.7473,-76.4919 498.1989,-75.5011 505.8271,-82.8538 508.7473,-76.4919"/>
</g>
<!-- Node5 -->
<g id="node6" class="node">
<title>Node5</title>
<polygon fill="none" stroke="#bfbfbf" points="537,-56.5 537,-75.5 662,-75.5 662,-56.5 537,-56.5"/>
<text text-anchor="middle" x="599.5" y="-63.5" font-family="FreeSans.ttf" font-size="10.00" fill="#000000">yarp/os/BufferedPort.h</text>
</g>
<!-- Node1&#45;&gt;Node5 -->
<g id="edge5" class="edge">
<title>Node1&#45;&gt;Node5</title>
<path fill="none" stroke="#191970" d="M599.5,-112.2455C599.5,-104.9382 599.5,-94.6944 599.5,-85.7046"/>
<polygon fill="#191970" stroke="#191970" points="603.0001,-85.6426 599.5,-75.6427 596.0001,-85.6427 603.0001,-85.6426"/>
</g>
<!-- Node6 -->
<g id="node7" class="node">
<title>Node6</title>
<polygon fill="none" stroke="#bfbfbf" points="680.5,-56.5 680.5,-75.5 778.5,-75.5 778.5,-56.5 680.5,-56.5"/>
<text text-anchor="middle" x="729.5" y="-63.5" font-family="FreeSans.ttf" font-size="10.00" fill="#000000">yarp/sig/Vector.h</text>
</g>
<!-- Node1&#45;&gt;Node6 -->
<g id="edge6" class="edge">
<title>Node1&#45;&gt;Node6</title>
<path fill="none" stroke="#191970" d="M621.8478,-112.3733C642.9033,-103.3032 674.6495,-89.6279 698.2175,-79.4755"/>
<polygon fill="#191970" stroke="#191970" points="699.6444,-82.6719 707.4438,-75.5011 696.875,-76.243 699.6444,-82.6719"/>
</g>
<!-- Node7 -->
<g id="node8" class="node">
<title>Node7</title>
<polygon fill="none" stroke="#bfbfbf" points="796.5,-56.5 796.5,-75.5 854.5,-75.5 854.5,-56.5 796.5,-56.5"/>
<text text-anchor="middle" x="825.5" y="-63.5" font-family="FreeSans.ttf" font-size="10.00" fill="#000000">memory</text>
</g>
<!-- Node1&#45;&gt;Node7 -->
<g id="edge7" class="edge">
<title>Node1&#45;&gt;Node7</title>
<path fill="none" stroke="#191970" d="M639.525,-112.4196C675.5362,-103.7523 730.1494,-90.4909 786.6464,-76.1877"/>
<polygon fill="#191970" stroke="#191970" points="787.6354,-79.5478 796.4673,-73.6956 785.9136,-72.7628 787.6354,-79.5478"/>
</g>
<!-- Node1&#45;&gt;Node8 -->
<g id="edge8" class="edge">
<title>Node1&#45;&gt;Node8</title>
<path fill="none" stroke="#191970" d="M648.52,-115.2838C699.7196,-107.8624 782.4878,-94.7227 862.6776,-75.9741"/>
<polygon fill="#191970" stroke="#191970" points="863.5185,-79.3719 872.4417,-73.6599 861.9041,-72.5606 863.5185,-79.3719"/>
</g>
<!-- Node9 -->
<g id="node10" class="node">
<title>Node9</title>
<polygon fill="none" stroke="#bfbfbf" points="0,-56.5 0,-75.5 93,-75.5 93,-56.5 0,-56.5"/>
<text text-anchor="middle" x="46.5" y="-63.5" font-family="FreeSans.ttf" font-size="10.00" fill="#000000">unordered_map</text>
</g>
<!-- Node1&#45;&gt;Node9 -->
<g id="edge9" class="edge">
<title>Node1&#45;&gt;Node9</title>
<path fill="none" stroke="#191970" d="M550.2109,-118.887C462.3606,-113.025 272.7567,-98.9569 103.3614,-76.1632"/>
<polygon fill="#191970" stroke="#191970" points="103.6435,-72.6695 93.2632,-74.7907 102.7007,-79.6057 103.6435,-72.6695"/>
</g>
<!-- Node10 -->
<g id="node11" class="node">
<title>Node10</title>
<polygon fill="none" stroke="#bfbfbf" points="111,-56.5 111,-75.5 158,-75.5 158,-56.5 111,-56.5"/>
<text text-anchor="middle" x="134.5" y="-63.5" font-family="FreeSans.ttf" font-size="10.00" fill="#000000">vector</text>
</g>
<!-- Node1&#45;&gt;Node10 -->
<g id="edge10" class="edge">
<title>Node1&#45;&gt;Node10</title>
<path fill="none" stroke="#191970" d="M550.3124,-119.9305C471.2958,-115.9195 311.2129,-104.966 167.9746,-75.9809"/>
<polygon fill="#191970" stroke="#191970" points="168.6292,-72.5424 158.1289,-73.9542 167.2179,-79.3986 168.6292,-72.5424"/>
</g>
<!-- Node1&#45;&gt;Node11 -->
<g id="edge11" class="edge">
<title>Node1&#45;&gt;Node11</title>
<path fill="none" stroke="#191970" d="M648.7143,-115.2451C718.1954,-105.7085 845.7911,-88.1953 928.5964,-76.8299"/>
<polygon fill="#191970" stroke="#191970" points="929.2853,-80.2683 938.7164,-75.4409 928.3333,-73.3333 929.2853,-80.2683"/>
</g>
<!-- Node12 -->
<g id="node13" class="node">
<title>Node12</title>
<polygon fill="none" stroke="#bfbfbf" points="964.5,-.5 964.5,-19.5 1050.5,-19.5 1050.5,-.5 964.5,-.5"/>
<text text-anchor="middle" x="1007.5" y="-7.5" font-family="FreeSans.ttf" font-size="10.00" fill="#000000">QMainWindow</text>
</g>
<!-- Node11&#45;&gt;Node12 -->
<g id="edge12" class="edge">
<title>Node11&#45;&gt;Node12</title>
<path fill="none" stroke="#191970" d="M1007.5,-56.2455C1007.5,-48.9382 1007.5,-38.6944 1007.5,-29.7046"/>
<polygon fill="#191970" stroke="#191970" points="1011.0001,-29.6426 1007.5,-19.6427 1004.0001,-29.6427 1011.0001,-29.6426"/>
</g>
</g>
</svg>
