<?xml version="1.0" encoding="UTF-8" standalone="no"?>
<!DOCTYPE svg PUBLIC "-//W3C//DTD SVG 1.1//EN"
 "http://www.w3.org/Graphics/SVG/1.1/DTD/svg11.dtd">
<!-- Generated by graphviz version 2.40.1 (20161225.0304)
 -->
<!-- Title: ConvexHullHelpers.h Pages: 1 -->
<svg width="955pt" height="207pt"
 viewBox="0.00 0.00 954.50 207.00" xmlns="http://www.w3.org/2000/svg" xmlns:xlink="http://www.w3.org/1999/xlink">
<g id="graph0" class="graph" transform="scale(1 1) rotate(0) translate(4 203)">
<title>ConvexHullHelpers.h</title>
<!-- Node29 -->
<g id="node1" class="node">
<title>Node29</title>
<polygon fill="#bfbfbf" stroke="#000000" points="374,-179.5 374,-198.5 493,-198.5 493,-179.5 374,-179.5"/>
<text text-anchor="middle" x="433.5" y="-186.5" font-family="FreeSans.ttf" font-size="10.00" fill="#000000">ConvexHullHelpers.h</text>
</g>
<!-- Node30 -->
<g id="node2" class="node">
<title>Node30</title>
<g id="a_node2"><a xlink:href="BoundingBoxHelpers_8h.html" target="_top" xlink:title="BoundingBoxHelpers.h">
<polygon fill="none" stroke="#000000" points="55.5,-123.5 55.5,-142.5 183.5,-142.5 183.5,-123.5 55.5,-123.5"/>
<text text-anchor="middle" x="119.5" y="-130.5" font-family="FreeSans.ttf" font-size="10.00" fill="#000000">BoundingBoxHelpers.h</text>
</a>
</g>
</g>
<!-- Node29&#45;&gt;Node30 -->
<g id="edge1" class="edge">
<title>Node29&#45;&gt;Node30</title>
<path fill="none" stroke="#191970" d="M369.7446,-177.6296C311.8231,-167.2997 227.3484,-152.2341 172.9006,-142.5237"/>
<polygon fill="#191970" stroke="#191970" points="369.4191,-181.1267 379.8783,-179.4369 370.6481,-174.2354 369.4191,-181.1267"/>
</g>
<!-- Node32 -->
<g id="node4" class="node">
<title>Node32</title>
<g id="a_node4"><a xlink:href="InverseKinematics_8h.html" target="_top" xlink:title="InverseKinematics.h">
<polygon fill="none" stroke="#000000" points="304.5,-123.5 304.5,-142.5 420.5,-142.5 420.5,-123.5 304.5,-123.5"/>
<text text-anchor="middle" x="362.5" y="-130.5" font-family="FreeSans.ttf" font-size="10.00" fill="#000000">InverseKinematics.h</text>
</a>
</g>
</g>
<!-- Node29&#45;&gt;Node32 -->
<g id="edge3" class="edge">
<title>Node29&#45;&gt;Node32</title>
<path fill="none" stroke="#191970" d="M413.123,-172.928C400.7129,-163.1397 385.27,-150.9595 374.7255,-142.6427"/>
<polygon fill="#191970" stroke="#191970" points="411.1136,-175.8007 421.1327,-179.2455 415.4486,-170.3046 411.1136,-175.8007"/>
</g>
<!-- Node33 -->
<g id="node5" class="node">
<title>Node33</title>
<g id="a_node5"><a xlink:href="InverseKinematicsData_8h.html" target="_top" xlink:title="InverseKinematicsData.h">
<polygon fill="none" stroke="#000000" points="157.5,-67.5 157.5,-86.5 297.5,-86.5 297.5,-67.5 157.5,-67.5"/>
<text text-anchor="middle" x="227.5" y="-74.5" font-family="FreeSans.ttf" font-size="10.00" fill="#000000">InverseKinematicsData.h</text>
</a>
</g>
</g>
<!-- Node29&#45;&gt;Node33 -->
<g id="edge12" class="edge">
<title>Node29&#45;&gt;Node33</title>
<path fill="none" stroke="#191970" d="M378.5861,-176.7903C352.2399,-169.4473 320.9513,-158.4685 295.5,-143 270.1939,-127.6197 246.8563,-101.2386 235.23,-86.9303"/>
<polygon fill="#191970" stroke="#191970" points="377.8537,-180.2175 388.4191,-179.4283 379.6676,-173.4566 377.8537,-180.2175"/>
</g>
<!-- Node39 -->
<g id="node11" class="node">
<title>Node39</title>
<g id="a_node11"><a xlink:href="ConvexHullHelpers_8cpp.html" target="_top" xlink:title="ConvexHullHelpers.cpp">
<polygon fill="none" stroke="#000000" points="439,-123.5 439,-142.5 570,-142.5 570,-123.5 439,-123.5"/>
<text text-anchor="middle" x="504.5" y="-130.5" font-family="FreeSans.ttf" font-size="10.00" fill="#000000">ConvexHullHelpers.cpp</text>
</a>
</g>
</g>
<!-- Node29&#45;&gt;Node39 -->
<g id="edge13" class="edge">
<title>Node29&#45;&gt;Node39</title>
<path fill="none" stroke="#191970" d="M453.877,-172.928C466.2871,-163.1397 481.73,-150.9595 492.2745,-142.6427"/>
<polygon fill="#191970" stroke="#191970" points="451.5514,-170.3046 445.8673,-179.2455 455.8864,-175.8007 451.5514,-170.3046"/>
</g>
<!-- Node40 -->
<g id="node12" class="node">
<title>Node40</title>
<g id="a_node12"><a xlink:href="ObserverThread_8h.html" target="_top" xlink:title="ObserverThread.h">
<polygon fill="none" stroke="#000000" points="626.5,-123.5 626.5,-142.5 730.5,-142.5 730.5,-123.5 626.5,-123.5"/>
<text text-anchor="middle" x="678.5" y="-130.5" font-family="FreeSans.ttf" font-size="10.00" fill="#000000">ObserverThread.h</text>
</a>
</g>
</g>
<!-- Node29&#45;&gt;Node40 -->
<g id="edge14" class="edge">
<title>Node29&#45;&gt;Node40</title>
<path fill="none" stroke="#191970" d="M485.2233,-177.1775C530.3445,-166.8641 594.9665,-152.0934 636.8339,-142.5237"/>
<polygon fill="#191970" stroke="#191970" points="484.3073,-173.7966 475.3386,-179.4369 485.8671,-180.6206 484.3073,-173.7966"/>
</g>
<!-- Node41 -->
<g id="node13" class="node">
<title>Node41</title>
<g id="a_node13"><a xlink:href="ObserverThread_8cpp.html" target="_top" xlink:title="ObserverThread.cpp">
<polygon fill="none" stroke="#000000" points="606,-67.5 606,-86.5 721,-86.5 721,-67.5 606,-67.5"/>
<text text-anchor="middle" x="663.5" y="-74.5" font-family="FreeSans.ttf" font-size="10.00" fill="#000000">ObserverThread.cpp</text>
</a>
</g>
</g>
<!-- Node29&#45;&gt;Node41 -->
<g id="edge19" class="edge">
<title>Node29&#45;&gt;Node41</title>
<path fill="none" stroke="#191970" d="M486.6539,-176.9682C514.8953,-169.3978 549.6384,-158.1622 578.5,-143 608.2715,-127.3598 638.1995,-101.0843 653.3454,-86.8616"/>
<polygon fill="#191970" stroke="#191970" points="485.7514,-173.5864 476.9561,-179.4935 487.5154,-180.3605 485.7514,-173.5864"/>
</g>
<!-- Node31 -->
<g id="node3" class="node">
<title>Node31</title>
<g id="a_node3"><a xlink:href="BoundingBoxHelpers_8cpp.html" target="_top" xlink:title="BoundingBoxHelpers.cpp">
<polygon fill="none" stroke="#000000" points="0,-67.5 0,-86.5 139,-86.5 139,-67.5 0,-67.5"/>
<text text-anchor="middle" x="69.5" y="-74.5" font-family="FreeSans.ttf" font-size="10.00" fill="#000000">BoundingBoxHelpers.cpp</text>
</a>
</g>
</g>
<!-- Node30&#45;&gt;Node31 -->
<g id="edge2" class="edge">
<title>Node30&#45;&gt;Node31</title>
<path fill="none" stroke="#191970" d="M103.8753,-115.5004C95.3727,-105.9775 85.1782,-94.5596 78.1095,-86.6427"/>
<polygon fill="#191970" stroke="#191970" points="101.5197,-118.1172 110.7907,-123.2455 106.7413,-113.4551 101.5197,-118.1172"/>
</g>
<!-- Node32&#45;&gt;Node33 -->
<g id="edge4" class="edge">
<title>Node32&#45;&gt;Node33</title>
<path fill="none" stroke="#191970" d="M330.0009,-119.5189C305.4146,-109.3201 272.2634,-95.5685 250.4045,-86.5011"/>
<polygon fill="#191970" stroke="#191970" points="328.7148,-122.7745 339.2927,-123.3733 331.3969,-116.3087 328.7148,-122.7745"/>
</g>
<!-- Node36 -->
<g id="node8" class="node">
<title>Node36</title>
<g id="a_node8"><a xlink:href="TransformConstraint_8h.html" target="_top" xlink:title="TransformConstraint.h">
<polygon fill="none" stroke="#000000" points="316,-67.5 316,-86.5 441,-86.5 441,-67.5 316,-67.5"/>
<text text-anchor="middle" x="378.5" y="-74.5" font-family="FreeSans.ttf" font-size="10.00" fill="#000000">TransformConstraint.h</text>
</a>
</g>
</g>
<!-- Node32&#45;&gt;Node36 -->
<g id="edge7" class="edge">
<title>Node32&#45;&gt;Node36</title>
<path fill="none" stroke="#191970" d="M368.0846,-113.4538C370.677,-104.3803 373.6429,-93.9998 375.745,-86.6427"/>
<polygon fill="#191970" stroke="#191970" points="364.6689,-112.6688 365.287,-123.2455 371.3996,-114.5919 364.6689,-112.6688"/>
</g>
<!-- Node38 -->
<g id="node10" class="node">
<title>Node38</title>
<g id="a_node10"><a xlink:href="InverseKinematics_8cpp.html" target="_top" xlink:title="InverseKinematics.cpp">
<polygon fill="none" stroke="#000000" points="459.5,-67.5 459.5,-86.5 587.5,-86.5 587.5,-67.5 459.5,-67.5"/>
<text text-anchor="middle" x="523.5" y="-74.5" font-family="FreeSans.ttf" font-size="10.00" fill="#000000">InverseKinematics.cpp</text>
</a>
</g>
</g>
<!-- Node32&#45;&gt;Node38 -->
<g id="edge11" class="edge">
<title>Node32&#45;&gt;Node38</title>
<path fill="none" stroke="#191970" d="M399.7111,-120.057C429.1759,-109.8084 469.6541,-95.729 496.1843,-86.5011"/>
<polygon fill="#191970" stroke="#191970" points="398.472,-116.7822 390.1769,-123.3733 400.7717,-123.3937 398.472,-116.7822"/>
</g>
<!-- Node34 -->
<g id="node6" class="node">
<title>Node34</title>
<g id="a_node6"><a xlink:href="InverseKinematicsData_8cpp.html" target="_top" xlink:title="InverseKinematicsData.cpp">
<polygon fill="none" stroke="#000000" points="303,-6 303,-25 454,-25 454,-6 303,-6"/>
<text text-anchor="middle" x="378.5" y="-13" font-family="FreeSans.ttf" font-size="10.00" fill="#000000">InverseKinematicsData.cpp</text>
</a>
</g>
</g>
<!-- Node33&#45;&gt;Node34 -->
<g id="edge5" class="edge">
<title>Node33&#45;&gt;Node34</title>
<path fill="none" stroke="#191970" d="M260.6573,-63.4955C289.2308,-51.858 329.7623,-35.3501 355.0719,-25.0419"/>
<polygon fill="#191970" stroke="#191970" points="259.0349,-60.3771 251.0938,-67.3906 261.6753,-66.86 259.0349,-60.3771"/>
</g>
<!-- Node35 -->
<g id="node7" class="node">
<title>Node35</title>
<g id="a_node7"><a xlink:href="InverseKinematicsNLP_8cpp.html" target="_top" xlink:title="InverseKinematicsNLP.cpp">
<polygon fill="none" stroke="#000000" points="140,-6 140,-25 285,-25 285,-6 140,-6"/>
<text text-anchor="middle" x="212.5" y="-13" font-family="FreeSans.ttf" font-size="10.00" fill="#000000">InverseKinematicsNLP.cpp</text>
</a>
</g>
</g>
<!-- Node33&#45;&gt;Node35 -->
<g id="edge6" class="edge">
<title>Node33&#45;&gt;Node35</title>
<path fill="none" stroke="#191970" d="M222.7642,-57.5832C220.1392,-46.8205 216.9888,-33.9042 214.8768,-25.2449"/>
<polygon fill="#191970" stroke="#191970" points="219.3863,-58.5048 225.1563,-67.3906 226.1869,-56.846 219.3863,-58.5048"/>
</g>
<!-- Node36&#45;&gt;Node34 -->
<g id="edge8" class="edge">
<title>Node36&#45;&gt;Node34</title>
<path fill="none" stroke="#191970" d="M378.5,-57.2462C378.5,-46.5519 378.5,-33.814 378.5,-25.2449"/>
<polygon fill="#191970" stroke="#191970" points="375.0001,-57.3906 378.5,-67.3906 382.0001,-57.3907 375.0001,-57.3906"/>
</g>
<!-- Node36&#45;&gt;Node35 -->
<g id="edge9" class="edge">
<title>Node36&#45;&gt;Node35</title>
<path fill="none" stroke="#191970" d="M342.8689,-63.7993C311.4166,-52.1468 266.3222,-35.4402 238.2554,-25.0419"/>
<polygon fill="#191970" stroke="#191970" points="341.9694,-67.1985 352.5625,-67.3906 344.4013,-60.6345 341.9694,-67.1985"/>
</g>
<!-- Node37 -->
<g id="node9" class="node">
<title>Node37</title>
<g id="a_node9"><a xlink:href="TransformConstraint_8cpp.html" target="_top" xlink:title="TransformConstraint.cpp">
<polygon fill="none" stroke="#000000" points="472.5,-6 472.5,-25 608.5,-25 608.5,-6 472.5,-6"/>
<text text-anchor="middle" x="540.5" y="-13" font-family="FreeSans.ttf" font-size="10.00" fill="#000000">TransformConstraint.cpp</text>
</a>
</g>
</g>
<!-- Node36&#45;&gt;Node37 -->
<g id="edge10" class="edge">
<title>Node36&#45;&gt;Node37</title>
<path fill="none" stroke="#191970" d="M413.2725,-63.7993C443.9669,-52.1468 487.9747,-35.4402 515.3652,-25.0419"/>
<polygon fill="#191970" stroke="#191970" points="411.9193,-60.5693 403.8125,-67.3906 414.4037,-67.1136 411.9193,-60.5693"/>
</g>
<!-- Node40&#45;&gt;Node41 -->
<g id="edge15" class="edge">
<title>Node40&#45;&gt;Node41</title>
<path fill="none" stroke="#191970" d="M673.2644,-113.4538C670.834,-104.3803 668.0535,-93.9998 666.0829,-86.6427"/>
<polygon fill="#191970" stroke="#191970" points="669.9189,-114.4917 675.8872,-123.2455 676.6806,-112.6805 669.9189,-114.4917"/>
</g>
<!-- Node42 -->
<g id="node14" class="node">
<title>Node42</title>
<g id="a_node14"><a xlink:href="qticubskinguiplugin_8h.html" target="_top" xlink:title="qticubskinguiplugin.h">
<polygon fill="none" stroke="#000000" points="739,-67.5 739,-86.5 860,-86.5 860,-67.5 739,-67.5"/>
<text text-anchor="middle" x="799.5" y="-74.5" font-family="FreeSans.ttf" font-size="10.00" fill="#000000">qticubskinguiplugin.h</text>
</a>
</g>
</g>
<!-- Node40&#45;&gt;Node42 -->
<g id="edge16" class="edge">
<title>Node40&#45;&gt;Node42</title>
<path fill="none" stroke="#191970" d="M708.5104,-119.1109C730.4525,-108.9559 759.6388,-95.4482 778.9708,-86.5011"/>
<polygon fill="#191970" stroke="#191970" points="706.9058,-115.9968 699.3006,-123.3733 709.8459,-122.3494 706.9058,-115.9968"/>
</g>
<!-- Node43 -->
<g id="node15" class="node">
<title>Node43</title>
<g id="a_node15"><a xlink:href="qticubskinguiplugin_8cpp.html" target="_top" xlink:title="qticubskinguiplugin.cpp">
<polygon fill="none" stroke="#000000" points="814.5,-6 814.5,-25 946.5,-25 946.5,-6 814.5,-6"/>
<text text-anchor="middle" x="880.5" y="-13" font-family="FreeSans.ttf" font-size="10.00" fill="#000000">qticubskinguiplugin.cpp</text>
</a>
</g>
</g>
<!-- Node42&#45;&gt;Node43 -->
<g id="edge17" class="edge">
<title>Node42&#45;&gt;Node43</title>
<path fill="none" stroke="#191970" d="M820.3768,-61.1491C835.4271,-49.722 855.2452,-34.6749 867.9326,-25.0419"/>
<polygon fill="#191970" stroke="#191970" points="818.0042,-58.5559 812.1563,-67.3906 822.2372,-64.1311 818.0042,-58.5559"/>
</g>
<!-- Node44 -->
<g id="node16" class="node">
<title>Node44</title>
<g id="a_node16"><a xlink:href="qticubskinguiplugin__plugin_8cpp.html" target="_top" xlink:title="qticubskinguiplugin\l_plugin.cpp">
<polygon fill="none" stroke="#000000" points="684.5,-.5 684.5,-30.5 796.5,-30.5 796.5,-.5 684.5,-.5"/>
<text text-anchor="start" x="692.5" y="-18.5" font-family="FreeSans.ttf" font-size="10.00" fill="#000000">qticubskinguiplugin</text>
<text text-anchor="middle" x="740.5" y="-7.5" font-family="FreeSans.ttf" font-size="10.00" fill="#000000">_plugin.cpp</text>
</a>
</g>
</g>
<!-- Node42&#45;&gt;Node44 -->
<g id="edge18" class="edge">
<title>Node42&#45;&gt;Node44</title>
<path fill="none" stroke="#191970" d="M783.1252,-59.9314C774.2808,-50.7122 763.4592,-39.4321 754.933,-30.5446"/>
<polygon fill="#191970" stroke="#191970" points="780.8327,-62.5974 790.2813,-67.3906 785.884,-57.7514 780.8327,-62.5974"/>
</g>
</g>
</svg>
