<?xml version="1.0" encoding="UTF-8" standalone="no"?>
<!DOCTYPE svg PUBLIC "-//W3C//DTD SVG 1.1//EN"
 "http://www.w3.org/Graphics/SVG/1.1/DTD/svg11.dtd">
<!-- Generated by graphviz version 2.40.1 (20161225.0304)
 -->
<!-- Title: Dynamics.cpp Pages: 1 -->
<svg width="2393pt" height="699pt"
 viewBox="0.00 0.00 2392.50 699.00" xmlns="http://www.w3.org/2000/svg" xmlns:xlink="http://www.w3.org/1999/xlink">
<g id="graph0" class="graph" transform="scale(1 1) rotate(0) translate(4 695)">
<title>Dynamics.cpp</title>
<!-- Node0 -->
<g id="node1" class="node">
<title>Node0</title>
<polygon fill="#bfbfbf" stroke="#000000" points="966,-671.5 966,-690.5 1052,-690.5 1052,-671.5 966,-671.5"/>
<text text-anchor="middle" x="1009" y="-678.5" font-family="FreeSans.ttf" font-size="10.00" fill="#000000">Dynamics.cpp</text>
</g>
<!-- Node1 -->
<g id="node2" class="node">
<title>Node1</title>
<g id="a_node2"><a xlink:href="Model_8h.html" target="_top" xlink:title="iDynTree/Model/Model.h">
<polygon fill="none" stroke="#000000" points="270.5,-610 270.5,-629 403.5,-629 403.5,-610 270.5,-610"/>
<text text-anchor="middle" x="337" y="-617" font-family="FreeSans.ttf" font-size="10.00" fill="#000000">iDynTree/Model/Model.h</text>
</a>
</g>
</g>
<!-- Node0&#45;&gt;Node1 -->
<g id="edge1" class="edge">
<title>Node0&#45;&gt;Node1</title>
<path fill="none" stroke="#191970" d="M965.9411,-677.0593C854.5927,-666.869 555.9511,-639.5379 413.9925,-626.5462"/>
<polygon fill="#191970" stroke="#191970" points="413.9121,-623.0243 403.6347,-625.5983 413.2741,-629.9952 413.9121,-623.0243"/>
</g>
<!-- Node6 -->
<g id="node7" class="node">
<title>Node6</title>
<g id="a_node7"><a xlink:href="SpatialInertia_8h.html" target="_top" xlink:title="iDynTree/Core/SpatialInertia.h">
<polygon fill="none" stroke="#000000" points="1024,-481.5 1024,-500.5 1186,-500.5 1186,-481.5 1024,-481.5"/>
<text text-anchor="middle" x="1105" y="-488.5" font-family="FreeSans.ttf" font-size="10.00" fill="#000000">iDynTree/Core/SpatialInertia.h</text>
</a>
</g>
</g>
<!-- Node0&#45;&gt;Node6 -->
<g id="edge113" class="edge">
<title>Node0&#45;&gt;Node6</title>
<path fill="none" stroke="#191970" d="M1016.1469,-671.4335C1022.7741,-662.3335 1032.6856,-648.1225 1040,-635 1064.0384,-591.8739 1086.4085,-538.2007 1097.5716,-510.1344"/>
<polygon fill="#191970" stroke="#191970" points="1100.8765,-511.294 1101.2814,-500.7069 1094.3627,-508.7307 1100.8765,-511.294"/>
</g>
<!-- Node41 -->
<g id="node28" class="node">
<title>Node41</title>
<g id="a_node28"><a xlink:href="SpatialMomentum_8h.html" target="_top" xlink:title="iDynTree/Core/SpatialMomentum.h">
<polygon fill="none" stroke="#000000" points="1353,-425.5 1353,-444.5 1539,-444.5 1539,-425.5 1353,-425.5"/>
<text text-anchor="middle" x="1446" y="-432.5" font-family="FreeSans.ttf" font-size="10.00" fill="#000000">iDynTree/Core/SpatialMomentum.h</text>
</a>
</g>
</g>
<!-- Node0&#45;&gt;Node41 -->
<g id="edge114" class="edge">
<title>Node0&#45;&gt;Node41</title>
<path fill="none" stroke="#191970" d="M1047.5291,-671.4309C1123.1293,-651.0616 1293.0943,-597.2324 1403,-501 1418.0476,-487.8244 1429.9361,-468.1625 1437.3639,-453.7255"/>
<polygon fill="#191970" stroke="#191970" points="1440.5244,-455.2298 1441.7776,-444.7093 1434.2373,-452.152 1440.5244,-455.2298"/>
</g>
<!-- Node53 -->
<g id="node39" class="node">
<title>Node53</title>
<g id="a_node39"><a xlink:href="Traversal_8h.html" target="_top" xlink:title="iDynTree/Model/Traversal.h">
<polygon fill="none" stroke="#000000" points="425,-481.5 425,-500.5 573,-500.5 573,-481.5 425,-481.5"/>
<text text-anchor="middle" x="499" y="-488.5" font-family="FreeSans.ttf" font-size="10.00" fill="#000000">iDynTree/Model/Traversal.h</text>
</a>
</g>
</g>
<!-- Node0&#45;&gt;Node53 -->
<g id="edge81" class="edge">
<title>Node0&#45;&gt;Node53</title>
<path fill="none" stroke="#191970" d="M965.7954,-679.8226C878.1597,-676.7944 682.9035,-666.6069 625,-635 575.4007,-607.926 581.7907,-579.0113 544,-537 535.0762,-527.0796 524.684,-516.403 516.1361,-507.8354"/>
<polygon fill="#191970" stroke="#191970" points="518.4592,-505.2096 508.8994,-500.6421 513.5243,-510.1742 518.4592,-505.2096"/>
</g>
<!-- Node54 -->
<g id="node40" class="node">
<title>Node54</title>
<g id="a_node40"><a xlink:href="FreeFloatingState_8h.html" target="_top" xlink:title="iDynTree/Model/FreeFloating\lState.h">
<polygon fill="none" stroke="#000000" points="854,-537.5 854,-567.5 1008,-567.5 1008,-537.5 854,-537.5"/>
<text text-anchor="start" x="862" y="-555.5" font-family="FreeSans.ttf" font-size="10.00" fill="#000000">iDynTree/Model/FreeFloating</text>
<text text-anchor="middle" x="931" y="-544.5" font-family="FreeSans.ttf" font-size="10.00" fill="#000000">State.h</text>
</a>
</g>
</g>
<!-- Node0&#45;&gt;Node54 -->
<g id="edge84" class="edge">
<title>Node0&#45;&gt;Node54</title>
<path fill="none" stroke="#191970" d="M1003.1373,-671.3416C990.989,-651.328 962.7581,-604.8194 945.4345,-576.2799"/>
<polygon fill="#191970" stroke="#191970" points="948.4083,-574.4339 940.2274,-567.7016 942.4245,-578.0662 948.4083,-574.4339"/>
</g>
<!-- Node56 -->
<g id="node42" class="node">
<title>Node56</title>
<g id="a_node42"><a xlink:href="LinkState_8h.html" target="_top" xlink:title="iDynTree/Model/LinkState.h">
<polygon fill="none" stroke="#000000" points="856.5,-481.5 856.5,-500.5 1005.5,-500.5 1005.5,-481.5 856.5,-481.5"/>
<text text-anchor="middle" x="931" y="-488.5" font-family="FreeSans.ttf" font-size="10.00" fill="#000000">iDynTree/Model/LinkState.h</text>
</a>
</g>
</g>
<!-- Node0&#45;&gt;Node56 -->
<g id="edge110" class="edge">
<title>Node0&#45;&gt;Node56</title>
<path fill="none" stroke="#191970" d="M1012.9672,-671.3743C1022.3816,-646.8834 1043.382,-581.0302 1017,-537 1007.9913,-521.9649 992.2066,-511.5677 976.5987,-504.5159"/>
<polygon fill="#191970" stroke="#191970" points="977.5449,-501.1203 966.9657,-500.546 974.8777,-507.5923 977.5449,-501.1203"/>
</g>
<!-- Node57 -->
<g id="node43" class="node">
<title>Node57</title>
<g id="a_node43"><a xlink:href="ArticulatedBodyInertia_8h.html" target="_top" xlink:title="iDynTree/Core/Articulated\lBodyInertia.h">
<polygon fill="none" stroke="#000000" points="460.5,-291.5 460.5,-321.5 601.5,-321.5 601.5,-291.5 460.5,-291.5"/>
<text text-anchor="start" x="468.5" y="-309.5" font-family="FreeSans.ttf" font-size="10.00" fill="#000000">iDynTree/Core/Articulated</text>
<text text-anchor="middle" x="531" y="-298.5" font-family="FreeSans.ttf" font-size="10.00" fill="#000000">BodyInertia.h</text>
</a>
</g>
</g>
<!-- Node0&#45;&gt;Node57 -->
<g id="edge112" class="edge">
<title>Node0&#45;&gt;Node57</title>
<path fill="none" stroke="#191970" d="M965.7879,-675.9052C897.4688,-665.9226 763.2257,-638.2669 675,-568 615.6965,-520.7681 641.987,-471.3607 582,-425 541.9661,-394.06 503.5843,-430.046 474,-389 459.1725,-368.428 479.6731,-344.5566 500.099,-327.801"/>
<polygon fill="#191970" stroke="#191970" points="502.4106,-330.4369 508.1464,-321.5289 498.1075,-324.9157 502.4106,-330.4369"/>
</g>
<!-- Node58 -->
<g id="node44" class="node">
<title>Node58</title>
<g id="a_node44"><a xlink:href="JointState_8h.html" target="_top" xlink:title="iDynTree/Model/JointState.h">
<polygon fill="none" stroke="#000000" points="1242.5,-481.5 1242.5,-500.5 1393.5,-500.5 1393.5,-481.5 1242.5,-481.5"/>
<text text-anchor="middle" x="1318" y="-488.5" font-family="FreeSans.ttf" font-size="10.00" fill="#000000">iDynTree/Model/JointState.h</text>
</a>
</g>
</g>
<!-- Node0&#45;&gt;Node58 -->
<g id="edge111" class="edge">
<title>Node0&#45;&gt;Node58</title>
<path fill="none" stroke="#191970" d="M1024.7482,-671.3167C1075.1664,-640.3152 1232.8522,-543.3562 1293.7051,-505.9386"/>
<polygon fill="#191970" stroke="#191970" points="1295.5983,-508.8833 1302.2835,-500.6638 1291.9318,-502.9203 1295.5983,-508.8833"/>
</g>
<!-- Node59 -->
<g id="node45" class="node">
<title>Node59</title>
<g id="a_node45"><a xlink:href="FreeFloatingMatrices_8h.html" target="_top" xlink:title="iDynTree/Model/FreeFloating\lMatrices.h">
<polygon fill="none" stroke="#000000" points="0,-604.5 0,-634.5 154,-634.5 154,-604.5 0,-604.5"/>
<text text-anchor="start" x="8" y="-622.5" font-family="FreeSans.ttf" font-size="10.00" fill="#000000">iDynTree/Model/FreeFloating</text>
<text text-anchor="middle" x="77" y="-611.5" font-family="FreeSans.ttf" font-size="10.00" fill="#000000">Matrices.h</text>
</a>
</g>
</g>
<!-- Node0&#45;&gt;Node59 -->
<g id="edge107" class="edge">
<title>Node0&#45;&gt;Node59</title>
<path fill="none" stroke="#191970" d="M965.972,-678.6954C851.3255,-672.4808 528.9595,-654.5232 261,-635 229.5455,-632.7083 195.0932,-629.8889 164.5923,-627.2858"/>
<polygon fill="#191970" stroke="#191970" points="164.6727,-623.7799 154.4101,-626.4124 164.0744,-630.7543 164.6727,-623.7799"/>
</g>
<!-- Node61 -->
<g id="node47" class="node">
<title>Node61</title>
<g id="a_node47"><a xlink:href="EigenHelpers_8h.html" target="_top" xlink:title="iDynTree/Core/EigenHelpers.h">
<polygon fill="none" stroke="#000000" points="1595.5,-425.5 1595.5,-444.5 1756.5,-444.5 1756.5,-425.5 1595.5,-425.5"/>
<text text-anchor="middle" x="1676" y="-432.5" font-family="FreeSans.ttf" font-size="10.00" fill="#000000">iDynTree/Core/EigenHelpers.h</text>
</a>
</g>
</g>
<!-- Node0&#45;&gt;Node61 -->
<g id="edge115" class="edge">
<title>Node0&#45;&gt;Node61</title>
<path fill="none" stroke="#191970" d="M1052.214,-673.673C1093.9421,-666.0348 1158.6277,-652.7033 1213,-635 1383.1698,-579.5939 1576.7426,-485.1747 1647.8796,-449.3544"/>
<polygon fill="#191970" stroke="#191970" points="1649.7439,-452.3339 1657.0896,-444.6991 1646.586,-446.0866 1649.7439,-452.3339"/>
</g>
<!-- Node63 -->
<g id="node49" class="node">
<title>Node63</title>
<g id="a_node49"><a xlink:href="Dynamics_8h.html" target="_top" xlink:title="iDynTree/Model/Dynamics.h">
<polygon fill="none" stroke="#000000" points="684,-543 684,-562 836,-562 836,-543 684,-543"/>
<text text-anchor="middle" x="760" y="-550" font-family="FreeSans.ttf" font-size="10.00" fill="#000000">iDynTree/Model/Dynamics.h</text>
</a>
</g>
</g>
<!-- Node0&#45;&gt;Node63 -->
<g id="edge125" class="edge">
<title>Node0&#45;&gt;Node63</title>
<path fill="none" stroke="#191970" d="M990.2845,-671.3416C946.8269,-648.9147 838.9013,-593.2181 787.7442,-566.8178"/>
<polygon fill="#191970" stroke="#191970" points="789.0845,-563.5709 778.593,-562.0952 785.8743,-569.7915 789.0845,-563.5709"/>
</g>
<!-- Node64 -->
<g id="node50" class="node">
<title>Node64</title>
<polygon fill="none" stroke="#bfbfbf" points="1796.5,-610 1796.5,-629 1865.5,-629 1865.5,-610 1796.5,-610"/>
<text text-anchor="middle" x="1831" y="-617" font-family="FreeSans.ttf" font-size="10.00" fill="#000000">Eigen/Core</text>
</g>
<!-- Node0&#45;&gt;Node64 -->
<g id="edge130" class="edge">
<title>Node0&#45;&gt;Node64</title>
<path fill="none" stroke="#191970" d="M1052.1781,-679.8329C1193.3392,-675.7975 1640.2194,-661.2251 1782,-635 1786.4128,-634.1838 1790.9831,-633.0899 1795.4787,-631.8591"/>
<polygon fill="#191970" stroke="#191970" points="1796.5199,-635.2011 1805.1107,-629.0004 1794.5281,-628.4904 1796.5199,-635.2011"/>
</g>
<!-- Node2 -->
<g id="node3" class="node">
<title>Node2</title>
<g id="a_node3"><a xlink:href="IJoint_8h.html" target="_top" xlink:title="iDynTree/Model/IJoint.h">
<polygon fill="none" stroke="#000000" points="227,-543 227,-562 355,-562 355,-543 227,-543"/>
<text text-anchor="middle" x="291" y="-550" font-family="FreeSans.ttf" font-size="10.00" fill="#000000">iDynTree/Model/IJoint.h</text>
</a>
</g>
</g>
<!-- Node1&#45;&gt;Node2 -->
<g id="edge2" class="edge">
<title>Node1&#45;&gt;Node2</title>
<path fill="none" stroke="#191970" d="M330.4093,-609.9005C323.3727,-599.6515 312.0602,-583.1747 303.3566,-570.4976"/>
<polygon fill="#191970" stroke="#191970" points="306.124,-568.3446 297.5785,-562.0817 300.3532,-572.3067 306.124,-568.3446"/>
</g>
<!-- Node3 -->
<g id="node4" class="node">
<title>Node3</title>
<g id="a_node4"><a xlink:href="Indices_8h.html" target="_top" xlink:title="iDynTree/Model/Indices.h">
<polygon fill="none" stroke="#000000" points="328,-425.5 328,-444.5 466,-444.5 466,-425.5 328,-425.5"/>
<text text-anchor="middle" x="397" y="-432.5" font-family="FreeSans.ttf" font-size="10.00" fill="#000000">iDynTree/Model/Indices.h</text>
</a>
</g>
</g>
<!-- Node1&#45;&gt;Node3 -->
<g id="edge72" class="edge">
<title>Node1&#45;&gt;Node3</title>
<path fill="none" stroke="#191970" d="M342.8985,-609.9523C348.9228,-599.8506 358.1923,-583.2883 364,-568 378.8587,-528.8858 388.8767,-480.7414 393.6922,-454.4358"/>
<polygon fill="#191970" stroke="#191970" points="397.1384,-455.0463 395.4364,-444.5891 390.2457,-453.8253 397.1384,-455.0463"/>
</g>
<!-- Node5 -->
<g id="node6" class="node">
<title>Node5</title>
<g id="a_node6"><a xlink:href="Link_8h.html" target="_top" xlink:title="iDynTree/Model/Link.h">
<polygon fill="none" stroke="#000000" points="411,-543 411,-562 535,-562 535,-543 411,-543"/>
<text text-anchor="middle" x="473" y="-550" font-family="FreeSans.ttf" font-size="10.00" fill="#000000">iDynTree/Model/Link.h</text>
</a>
</g>
</g>
<!-- Node1&#45;&gt;Node5 -->
<g id="edge5" class="edge">
<title>Node1&#45;&gt;Node5</title>
<path fill="none" stroke="#191970" d="M356.4855,-609.9005C379.5113,-598.5569 418.0228,-579.5844 444.4232,-566.5783"/>
<polygon fill="#191970" stroke="#191970" points="446.1269,-569.6407 453.5507,-562.0817 443.0334,-563.3613 446.1269,-569.6407"/>
</g>
<!-- Node48 -->
<g id="node34" class="node">
<title>Node48</title>
<g id="a_node34"><a xlink:href="Transform_8h.html" target="_top" xlink:title="iDynTree/Core/Transform.h">
<polygon fill="none" stroke="#000000" points="877,-364 877,-383 1023,-383 1023,-364 877,-364"/>
<text text-anchor="middle" x="950" y="-371" font-family="FreeSans.ttf" font-size="10.00" fill="#000000">iDynTree/Core/Transform.h</text>
</a>
</g>
</g>
<!-- Node1&#45;&gt;Node48 -->
<g id="edge64" class="edge">
<title>Node1&#45;&gt;Node48</title>
<path fill="none" stroke="#191970" d="M282.6381,-609.909C258.5591,-602.6631 232.4601,-590.014 218,-568 210.4359,-556.4843 212.0316,-549.418 218,-537 229.095,-513.9154 245.2524,-519.4668 263,-501 292.0732,-470.7486 282.1918,-445.1383 319,-425 426.2584,-366.3174 746.7095,-404.3825 868,-389 876.7721,-387.8875 886.0221,-386.4245 895.0237,-384.8413"/>
<polygon fill="#191970" stroke="#191970" points="895.8322,-388.2517 905.0424,-383.0151 894.5769,-381.3652 895.8322,-388.2517"/>
</g>
<!-- Node50 -->
<g id="node36" class="node">
<title>Node50</title>
<g id="a_node36"><a xlink:href="SolidShapes_8h.html" target="_top" xlink:title="iDynTree/Model/SolidShapes.h">
<polygon fill="none" stroke="#000000" points="91.5,-481.5 91.5,-500.5 254.5,-500.5 254.5,-481.5 91.5,-481.5"/>
<text text-anchor="middle" x="173" y="-488.5" font-family="FreeSans.ttf" font-size="10.00" fill="#000000">iDynTree/Model/SolidShapes.h</text>
</a>
</g>
</g>
<!-- Node1&#45;&gt;Node50 -->
<g id="edge73" class="edge">
<title>Node1&#45;&gt;Node50</title>
<path fill="none" stroke="#191970" d="M293.0814,-609.9517C253.4032,-600.4146 199.1245,-584.7909 185,-568 171.6401,-552.118 169.9824,-527.6221 170.7996,-510.5379"/>
<polygon fill="#191970" stroke="#191970" points="174.2903,-510.793 171.5959,-500.5465 167.3124,-510.2368 174.2903,-510.793"/>
</g>
<!-- Node51 -->
<g id="node37" class="node">
<title>Node51</title>
<polygon fill="none" stroke="#bfbfbf" points="91.5,-425.5 91.5,-444.5 140.5,-444.5 140.5,-425.5 91.5,-425.5"/>
<text text-anchor="middle" x="116" y="-432.5" font-family="FreeSans.ttf" font-size="10.00" fill="#000000">cstdlib</text>
</g>
<!-- Node1&#45;&gt;Node51 -->
<g id="edge79" class="edge">
<title>Node1&#45;&gt;Node51</title>
<path fill="none" stroke="#191970" d="M270.2696,-611.4618C206.9049,-599.6713 116.3771,-570.8642 82,-501 73.8001,-484.3354 85.6029,-465.5206 97.4886,-452.2559"/>
<polygon fill="#191970" stroke="#191970" points="100.2819,-454.4025 104.7218,-444.7828 95.252,-449.5341 100.2819,-454.4025"/>
</g>
<!-- Node52 -->
<g id="node38" class="node">
<title>Node52</title>
<polygon fill="none" stroke="#bfbfbf" points="525.5,-425.5 525.5,-444.5 572.5,-444.5 572.5,-425.5 525.5,-425.5"/>
<text text-anchor="middle" x="549" y="-432.5" font-family="FreeSans.ttf" font-size="10.00" fill="#000000">vector</text>
</g>
<!-- Node1&#45;&gt;Node52 -->
<g id="edge80" class="edge">
<title>Node1&#45;&gt;Node52</title>
<path fill="none" stroke="#191970" d="M397.0556,-609.9704C449.619,-600.6715 521.067,-585.4105 544,-568 577.6065,-542.4863 594.9179,-521.1681 582,-481 578.6054,-470.4445 571.7942,-460.2592 565.2369,-452.1676"/>
<polygon fill="#191970" stroke="#191970" points="567.8431,-449.8307 558.6492,-444.5654 562.553,-454.4149 567.8431,-449.8307"/>
</g>
<!-- Node2&#45;&gt;Node3 -->
<g id="edge3" class="edge">
<title>Node2&#45;&gt;Node3</title>
<path fill="none" stroke="#191970" d="M297.4235,-542.7703C307.0111,-528.5503 325.9818,-501.5503 345,-481 354.8497,-470.3569 366.9266,-459.5575 376.9618,-451.0996"/>
<polygon fill="#191970" stroke="#191970" points="379.3435,-453.6717 384.8174,-444.6004 374.8813,-448.2782 379.3435,-453.6717"/>
</g>
<!-- Node4 -->
<g id="node5" class="node">
<title>Node4</title>
<polygon fill="none" stroke="#bfbfbf" points="721,-56.5 721,-75.5 765,-75.5 765,-56.5 721,-56.5"/>
<text text-anchor="middle" x="743" y="-63.5" font-family="FreeSans.ttf" font-size="10.00" fill="#000000">string</text>
</g>
<!-- Node3&#45;&gt;Node4 -->
<g id="edge4" class="edge">
<title>Node3&#45;&gt;Node4</title>
<path fill="none" stroke="#191970" d="M396.62,-425.3299C395.8128,-403.9229 394,-350.9071 394,-306.5 394,-306.5 394,-306.5 394,-178 394,-142.7457 408.0826,-130.6498 438,-112 541.1091,-47.7242 590.143,-101.2167 709,-76 709.6019,-75.8723 710.2086,-75.7393 710.8189,-75.6017"/>
<polygon fill="#191970" stroke="#191970" points="711.9849,-78.9166 720.8128,-73.0584 710.2585,-72.1328 711.9849,-78.9166"/>
</g>
<!-- Node5&#45;&gt;Node3 -->
<g id="edge63" class="edge">
<title>Node5&#45;&gt;Node3</title>
<path fill="none" stroke="#191970" d="M458.4965,-542.9646C445.5349,-533.7153 426.9486,-518.5344 416,-501 407.1301,-486.7946 402.2738,-468.3099 399.697,-454.5175"/>
<polygon fill="#191970" stroke="#191970" points="403.1492,-453.9404 398.086,-444.6337 396.2404,-455.0665 403.1492,-453.9404"/>
</g>
<!-- Node5&#45;&gt;Node6 -->
<g id="edge6" class="edge">
<title>Node5&#45;&gt;Node6</title>
<path fill="none" stroke="#191970" d="M535.2159,-546.9129C634.1516,-537.9566 833.7109,-519.5994 1013.4019,-501.1527"/>
<polygon fill="#191970" stroke="#191970" points="1013.9819,-504.6116 1023.5712,-500.1064 1013.2655,-497.6483 1013.9819,-504.6116"/>
</g>
<!-- Node7 -->
<g id="node8" class="node">
<title>Node7</title>
<g id="a_node8"><a xlink:href="SpatialInertiaRaw_8h.html" target="_top" xlink:title="iDynTree/Core/SpatialInertia\lRaw.h">
<polygon fill="none" stroke="#000000" points="705.5,-358.5 705.5,-388.5 858.5,-388.5 858.5,-358.5 705.5,-358.5"/>
<text text-anchor="start" x="713.5" y="-376.5" font-family="FreeSans.ttf" font-size="10.00" fill="#000000">iDynTree/Core/SpatialInertia</text>
<text text-anchor="middle" x="782" y="-365.5" font-family="FreeSans.ttf" font-size="10.00" fill="#000000">Raw.h</text>
</a>
</g>
</g>
<!-- Node6&#45;&gt;Node7 -->
<g id="edge7" class="edge">
<title>Node6&#45;&gt;Node7</title>
<path fill="none" stroke="#191970" d="M1105.8722,-481.3139C1106.5938,-466.8226 1105.5888,-439.6406 1090,-425 1055.5621,-392.6568 931.8713,-396.8279 869.1302,-388.9275"/>
<polygon fill="#191970" stroke="#191970" points="869.2841,-385.4127 858.8823,-387.4257 868.2691,-392.3387 869.2841,-385.4127"/>
</g>
<!-- Node16 -->
<g id="node17" class="node">
<title>Node16</title>
<g id="a_node17"><a xlink:href="VectorFixSize_8h.html" target="_top" xlink:title="iDynTree/Core/VectorFixSize.h">
<polygon fill="none" stroke="#000000" points="1234.5,-112.5 1234.5,-131.5 1395.5,-131.5 1395.5,-112.5 1234.5,-112.5"/>
<text text-anchor="middle" x="1315" y="-119.5" font-family="FreeSans.ttf" font-size="10.00" fill="#000000">iDynTree/Core/VectorFixSize.h</text>
</a>
</g>
</g>
<!-- Node6&#45;&gt;Node16 -->
<g id="edge17" class="edge">
<title>Node6&#45;&gt;Node16</title>
<path fill="none" stroke="#191970" d="M1106.0322,-481.4992C1106.993,-472.2074 1108.3687,-457.6499 1109,-445 1109.2132,-440.7272 1109.0006,-294.7822 1111,-291 1148.2835,-220.4735 1198.8103,-241.4849 1258,-188 1274.4023,-173.1786 1290.6373,-153.7931 1301.5598,-139.8718"/>
<polygon fill="#191970" stroke="#191970" points="1304.5897,-141.6738 1307.9186,-131.6155 1299.0438,-137.4025 1304.5897,-141.6738"/>
</g>
<!-- Node25 -->
<g id="node19" class="node">
<title>Node25</title>
<g id="a_node19"><a xlink:href="Twist_8h.html" target="_top" xlink:title="iDynTree/Core/Twist.h">
<polygon fill="none" stroke="#000000" points="1175,-425.5 1175,-444.5 1297,-444.5 1297,-425.5 1175,-425.5"/>
<text text-anchor="middle" x="1236" y="-432.5" font-family="FreeSans.ttf" font-size="10.00" fill="#000000">iDynTree/Core/Twist.h</text>
</a>
</g>
</g>
<!-- Node6&#45;&gt;Node25 -->
<g id="edge26" class="edge">
<title>Node6&#45;&gt;Node25</title>
<path fill="none" stroke="#191970" d="M1127.5197,-481.3733C1148.7372,-472.3032 1180.7276,-458.6279 1204.4769,-448.4755"/>
<polygon fill="#191970" stroke="#191970" points="1205.9548,-451.6502 1213.7742,-444.5011 1203.2033,-445.2136 1205.9548,-451.6502"/>
</g>
<!-- Node6&#45;&gt;Node41 -->
<g id="edge49" class="edge">
<title>Node6&#45;&gt;Node41</title>
<path fill="none" stroke="#191970" d="M1163.2325,-481.4369C1222.6955,-471.6717 1314.9541,-456.5207 1377.7965,-446.2006"/>
<polygon fill="#191970" stroke="#191970" points="1378.707,-449.598 1388.0076,-444.5237 1377.5726,-442.6905 1378.707,-449.598"/>
</g>
<!-- Node46 -->
<g id="node32" class="node">
<title>Node46</title>
<g id="a_node32"><a xlink:href="SpatialAcc_8h.html" target="_top" xlink:title="iDynTree/Core/SpatialAcc.h">
<polygon fill="none" stroke="#000000" points="781,-425.5 781,-444.5 929,-444.5 929,-425.5 781,-425.5"/>
<text text-anchor="middle" x="855" y="-432.5" font-family="FreeSans.ttf" font-size="10.00" fill="#000000">iDynTree/Core/SpatialAcc.h</text>
</a>
</g>
</g>
<!-- Node6&#45;&gt;Node46 -->
<g id="edge59" class="edge">
<title>Node6&#45;&gt;Node46</title>
<path fill="none" stroke="#191970" d="M1062.3075,-481.4369C1019.4321,-471.8328 953.2995,-457.0191 907.2998,-446.7152"/>
<polygon fill="#191970" stroke="#191970" points="908.0396,-443.2942 897.5164,-444.5237 906.5095,-450.1249 908.0396,-443.2942"/>
</g>
<!-- Node47 -->
<g id="node33" class="node">
<title>Node47</title>
<g id="a_node33"><a xlink:href="Wrench_8h.html" target="_top" xlink:title="iDynTree/Core/Wrench.h">
<polygon fill="none" stroke="#000000" points="947.5,-425.5 947.5,-444.5 1080.5,-444.5 1080.5,-425.5 947.5,-425.5"/>
<text text-anchor="middle" x="1014" y="-432.5" font-family="FreeSans.ttf" font-size="10.00" fill="#000000">iDynTree/Core/Wrench.h</text>
</a>
</g>
</g>
<!-- Node6&#45;&gt;Node47 -->
<g id="edge61" class="edge">
<title>Node6&#45;&gt;Node47</title>
<path fill="none" stroke="#191970" d="M1089.149,-481.2455C1075.1868,-472.6534 1054.6272,-460.0014 1038.5404,-450.1018"/>
<polygon fill="#191970" stroke="#191970" points="1040.0203,-446.9029 1029.6693,-444.6427 1036.3516,-452.8645 1040.0203,-446.9029"/>
</g>
<!-- Node8 -->
<g id="node9" class="node">
<title>Node8</title>
<g id="a_node9"><a xlink:href="RotationalInertiaRaw_8h.html" target="_top" xlink:title="iDynTree/Core/Rotational\lInertiaRaw.h">
<polygon fill="none" stroke="#000000" points="658.5,-291.5 658.5,-321.5 795.5,-321.5 795.5,-291.5 658.5,-291.5"/>
<text text-anchor="start" x="666.5" y="-309.5" font-family="FreeSans.ttf" font-size="10.00" fill="#000000">iDynTree/Core/Rotational</text>
<text text-anchor="middle" x="727" y="-298.5" font-family="FreeSans.ttf" font-size="10.00" fill="#000000">InertiaRaw.h</text>
</a>
</g>
</g>
<!-- Node7&#45;&gt;Node8 -->
<g id="edge8" class="edge">
<title>Node7&#45;&gt;Node8</title>
<path fill="none" stroke="#191970" d="M769.5196,-358.2967C762.5579,-349.816 753.7436,-339.0785 745.9476,-329.5817"/>
<polygon fill="#191970" stroke="#191970" points="748.4812,-327.1517 739.431,-321.6432 743.0707,-331.5932 748.4812,-327.1517"/>
</g>
<!-- Node9 -->
<g id="node10" class="node">
<title>Node9</title>
<g id="a_node10"><a xlink:href="MatrixFixSize_8h.html" target="_top" xlink:title="iDynTree/Core/MatrixFixSize.h">
<polygon fill="none" stroke="#000000" points="644.5,-230 644.5,-249 805.5,-249 805.5,-230 644.5,-230"/>
<text text-anchor="middle" x="725" y="-237" font-family="FreeSans.ttf" font-size="10.00" fill="#000000">iDynTree/Core/MatrixFixSize.h</text>
</a>
</g>
</g>
<!-- Node8&#45;&gt;Node9 -->
<g id="edge9" class="edge">
<title>Node8&#45;&gt;Node9</title>
<path fill="none" stroke="#191970" d="M726.5462,-291.2967C726.2618,-281.7699 725.8924,-269.3954 725.586,-259.1306"/>
<polygon fill="#191970" stroke="#191970" points="729.0821,-258.9461 725.2852,-249.055 722.0853,-259.155 729.0821,-258.9461"/>
</g>
<!-- Node9&#45;&gt;Node4 -->
<g id="edge14" class="edge">
<title>Node9&#45;&gt;Node4</title>
<path fill="none" stroke="#191970" d="M707.0805,-229.9469C692.7195,-221.1758 673.5979,-206.7105 665,-188 650.8963,-157.3076 648.2465,-141.3302 665,-112 674.9078,-94.6546 694.1957,-83.1954 711.1116,-76.0523"/>
<polygon fill="#191970" stroke="#191970" points="712.6487,-79.2104 720.7085,-72.3335 710.1194,-72.6833 712.6487,-79.2104"/>
</g>
<!-- Node10 -->
<g id="node11" class="node">
<title>Node10</title>
<g id="a_node11"><a xlink:href="Utils_8h.html" target="_top" xlink:title="iDynTree/Core/Utils.h">
<polygon fill="none" stroke="#000000" points="1479.5,-56.5 1479.5,-75.5 1598.5,-75.5 1598.5,-56.5 1479.5,-56.5"/>
<text text-anchor="middle" x="1539" y="-63.5" font-family="FreeSans.ttf" font-size="10.00" fill="#000000">iDynTree/Core/Utils.h</text>
</a>
</g>
</g>
<!-- Node9&#45;&gt;Node10 -->
<g id="edge10" class="edge">
<title>Node9&#45;&gt;Node10</title>
<path fill="none" stroke="#191970" d="M738.0719,-229.8023C759.9858,-214.0742 806.064,-183.2317 850,-168 1067.2528,-92.683 1341.9061,-72.9783 1468.8204,-67.8245"/>
<polygon fill="#191970" stroke="#191970" points="1469.3122,-71.3082 1479.1691,-67.4234 1469.0411,-64.3134 1469.3122,-71.3082"/>
</g>
<!-- Node12 -->
<g id="node13" class="node">
<title>Node12</title>
<polygon fill="none" stroke="#bfbfbf" points="1317,-.5 1317,-19.5 1369,-19.5 1369,-.5 1317,-.5"/>
<text text-anchor="middle" x="1343" y="-7.5" font-family="FreeSans.ttf" font-size="10.00" fill="#000000">cassert</text>
</g>
<!-- Node9&#45;&gt;Node12 -->
<g id="edge12" class="edge">
<title>Node9&#45;&gt;Node12</title>
<path fill="none" stroke="#191970" d="M701.9768,-229.9754C685.0888,-221.6282 663.3669,-207.7261 653,-188 623.1054,-131.1168 653.1131,-81.7237 712,-56 766.4647,-32.208 1179.889,-15.765 1306.3571,-11.2514"/>
<polygon fill="#191970" stroke="#191970" points="1306.7976,-14.7381 1316.6678,-10.8872 1306.5505,-7.7425 1306.7976,-14.7381"/>
</g>
<!-- Node13 -->
<g id="node14" class="node">
<title>Node13</title>
<polygon fill="none" stroke="#bfbfbf" points="1052,-56.5 1052,-75.5 1102,-75.5 1102,-56.5 1052,-56.5"/>
<text text-anchor="middle" x="1077" y="-63.5" font-family="FreeSans.ttf" font-size="10.00" fill="#000000">cstring</text>
</g>
<!-- Node9&#45;&gt;Node13 -->
<g id="edge13" class="edge">
<title>Node9&#45;&gt;Node13</title>
<path fill="none" stroke="#191970" d="M718.6768,-229.7599C704.3243,-206.3141 672.7888,-146.1547 703,-112 725.2829,-86.8085 953.0958,-72.4067 1041.8626,-67.7154"/>
<polygon fill="#191970" stroke="#191970" points="1042.1699,-71.2042 1051.9753,-67.1913 1041.8076,-64.2136 1042.1699,-71.2042"/>
</g>
<!-- Node14 -->
<g id="node15" class="node">
<title>Node14</title>
<polygon fill="none" stroke="#bfbfbf" points="859,-168.5 859,-187.5 919,-187.5 919,-168.5 859,-168.5"/>
<text text-anchor="middle" x="889" y="-175.5" font-family="FreeSans.ttf" font-size="10.00" fill="#000000">iostream</text>
</g>
<!-- Node9&#45;&gt;Node14 -->
<g id="edge15" class="edge">
<title>Node9&#45;&gt;Node14</title>
<path fill="none" stroke="#191970" d="M750.625,-229.8906C778.4263,-219.4652 822.9844,-202.7559 853.9994,-191.1252"/>
<polygon fill="#191970" stroke="#191970" points="855.4206,-194.3303 863.5549,-187.5419 852.9627,-187.776 855.4206,-194.3303"/>
</g>
<!-- Node15 -->
<g id="node16" class="node">
<title>Node15</title>
<polygon fill="none" stroke="#bfbfbf" points="1259,-56.5 1259,-75.5 1315,-75.5 1315,-56.5 1259,-56.5"/>
<text text-anchor="middle" x="1287" y="-63.5" font-family="FreeSans.ttf" font-size="10.00" fill="#000000">sstream</text>
</g>
<!-- Node9&#45;&gt;Node15 -->
<g id="edge16" class="edge">
<title>Node9&#45;&gt;Node15</title>
<path fill="none" stroke="#191970" d="M722.2938,-229.8043C716.2833,-205.9248 704.7623,-143.9042 737,-112 746.12,-102.9743 1125.2275,-76.8353 1248.6232,-68.5506"/>
<polygon fill="#191970" stroke="#191970" points="1249.0018,-72.0331 1258.7455,-67.8725 1248.5339,-65.0488 1249.0018,-72.0331"/>
</g>
<!-- Node11 -->
<g id="node12" class="node">
<title>Node11</title>
<polygon fill="none" stroke="#bfbfbf" points="1581.5,-.5 1581.5,-19.5 1634.5,-19.5 1634.5,-.5 1581.5,-.5"/>
<text text-anchor="middle" x="1608" y="-7.5" font-family="FreeSans.ttf" font-size="10.00" fill="#000000">cstddef</text>
</g>
<!-- Node10&#45;&gt;Node11 -->
<g id="edge11" class="edge">
<title>Node10&#45;&gt;Node11</title>
<path fill="none" stroke="#191970" d="M1551.0189,-56.2455C1561.2098,-47.9746 1576.0362,-35.9416 1588.0107,-26.2232"/>
<polygon fill="#191970" stroke="#191970" points="1590.5598,-28.662 1596.1188,-19.6427 1586.1486,-23.2268 1590.5598,-28.662"/>
</g>
<!-- Node16&#45;&gt;Node4 -->
<g id="edge22" class="edge">
<title>Node16&#45;&gt;Node4</title>
<path fill="none" stroke="#191970" d="M1234.2596,-114.0953C1106.4025,-101.5779 862.8695,-77.7355 775.3394,-69.1661"/>
<polygon fill="#191970" stroke="#191970" points="775.5143,-65.6666 765.2208,-68.1755 774.8322,-72.6333 775.5143,-65.6666"/>
</g>
<!-- Node16&#45;&gt;Node10 -->
<g id="edge18" class="edge">
<title>Node16&#45;&gt;Node10</title>
<path fill="none" stroke="#191970" d="M1353.2525,-112.4369C1391.3467,-102.9133 1449.9313,-88.2672 1491.0987,-77.9753"/>
<polygon fill="#191970" stroke="#191970" points="1492.0528,-81.3446 1500.9053,-75.5237 1490.355,-74.5536 1492.0528,-81.3446"/>
</g>
<!-- Node16&#45;&gt;Node12 -->
<g id="edge24" class="edge">
<title>Node16&#45;&gt;Node12</title>
<path fill="none" stroke="#191970" d="M1317.3873,-112.4509C1321.9747,-94.1013 1332.1023,-53.5908 1338.1577,-29.3693"/>
<polygon fill="#191970" stroke="#191970" points="1341.5888,-30.0752 1340.6188,-19.5249 1334.7978,-28.3774 1341.5888,-30.0752"/>
</g>
<!-- Node16&#45;&gt;Node13 -->
<g id="edge25" class="edge">
<title>Node16&#45;&gt;Node13</title>
<path fill="none" stroke="#191970" d="M1274.3568,-112.4369C1228.6338,-101.6785 1155.1284,-84.3831 1111.9026,-74.2124"/>
<polygon fill="#191970" stroke="#191970" points="1112.6561,-70.7941 1102.1202,-71.9106 1111.0527,-77.6081 1112.6561,-70.7941"/>
</g>
<!-- Node16&#45;&gt;Node15 -->
<g id="edge23" class="edge">
<title>Node16&#45;&gt;Node15</title>
<path fill="none" stroke="#191970" d="M1310.1228,-112.2455C1306.3487,-104.6973 1301.0079,-94.0158 1296.4099,-84.8197"/>
<polygon fill="#191970" stroke="#191970" points="1299.424,-83.0217 1291.8213,-75.6427 1293.163,-86.1522 1299.424,-83.0217"/>
</g>
<!-- Node17 -->
<g id="node18" class="node">
<title>Node17</title>
<g id="a_node18"><a xlink:href="Span_8h.html" target="_top" xlink:title="iDynTree/Core/Span.h">
<polygon fill="none" stroke="#ff0000" points="1616.5,-56.5 1616.5,-75.5 1737.5,-75.5 1737.5,-56.5 1616.5,-56.5"/>
<text text-anchor="middle" x="1677" y="-63.5" font-family="FreeSans.ttf" font-size="10.00" fill="#000000">iDynTree/Core/Span.h</text>
</a>
</g>
</g>
<!-- Node16&#45;&gt;Node17 -->
<g id="edge19" class="edge">
<title>Node16&#45;&gt;Node17</title>
<path fill="none" stroke="#191970" d="M1376.8187,-112.4369C1440.492,-102.5869 1539.5882,-87.2571 1606.328,-76.9327"/>
<polygon fill="#191970" stroke="#191970" points="1606.9939,-80.3714 1616.3412,-75.3837 1605.9237,-73.4537 1606.9939,-80.3714"/>
</g>
<!-- Node17&#45;&gt;Node11 -->
<g id="edge21" class="edge">
<title>Node17&#45;&gt;Node11</title>
<path fill="none" stroke="#191970" d="M1664.9811,-56.2455C1654.7902,-47.9746 1639.9638,-35.9416 1627.9893,-26.2232"/>
<polygon fill="#191970" stroke="#191970" points="1629.8514,-23.2268 1619.8812,-19.6427 1625.4402,-28.662 1629.8514,-23.2268"/>
</g>
<!-- Node17&#45;&gt;Node12 -->
<g id="edge20" class="edge">
<title>Node17&#45;&gt;Node12</title>
<path fill="none" stroke="#191970" d="M1619.9629,-56.4369C1551.0306,-44.8794 1437.1021,-25.7776 1379.1995,-16.0694"/>
<polygon fill="#191970" stroke="#191970" points="1379.5044,-12.5717 1369.0633,-14.3699 1378.3469,-19.4754 1379.5044,-12.5717"/>
</g>
<!-- Node26 -->
<g id="node20" class="node">
<title>Node26</title>
<g id="a_node20"><a xlink:href="SpatialMotionVector_8h.html" target="_top" xlink:title="iDynTree/Core/SpatialMotion\lVector.h">
<polygon fill="none" stroke="#000000" points="1200.5,-358.5 1200.5,-388.5 1355.5,-388.5 1355.5,-358.5 1200.5,-358.5"/>
<text text-anchor="start" x="1208.5" y="-376.5" font-family="FreeSans.ttf" font-size="10.00" fill="#000000">iDynTree/Core/SpatialMotion</text>
<text text-anchor="middle" x="1278" y="-365.5" font-family="FreeSans.ttf" font-size="10.00" fill="#000000">Vector.h</text>
</a>
</g>
</g>
<!-- Node25&#45;&gt;Node26 -->
<g id="edge27" class="edge">
<title>Node25&#45;&gt;Node26</title>
<path fill="none" stroke="#191970" d="M1242.5625,-425.3906C1247.773,-417.761 1255.2819,-406.7658 1262.0477,-396.8588"/>
<polygon fill="#191970" stroke="#191970" points="1264.9763,-398.7765 1267.7256,-388.5446 1259.1957,-394.8287 1264.9763,-398.7765"/>
</g>
<!-- Node26&#45;&gt;Node16 -->
<g id="edge28" class="edge">
<title>Node26&#45;&gt;Node16</title>
<path fill="none" stroke="#191970" d="M1204.0422,-358.4936C1155.8402,-345.3418 1106.4285,-323.2406 1133,-291 1186.2741,-226.3597 1259.6486,-315.0966 1318,-255 1347.3751,-224.7463 1333.3239,-169.996 1322.8477,-141.0793"/>
<polygon fill="#191970" stroke="#191970" points="1326.0924,-139.7657 1319.2368,-131.6879 1319.5587,-142.2778 1326.0924,-139.7657"/>
</g>
<!-- Node27 -->
<g id="node21" class="node">
<title>Node27</title>
<g id="a_node21"><a xlink:href="LinearMotionVector3_8h.html" target="_top" xlink:title="iDynTree/Core/LinearMotion\lVector3.h">
<polygon fill="none" stroke="#ff0000" points="1535.5,-291.5 1535.5,-321.5 1686.5,-321.5 1686.5,-291.5 1535.5,-291.5"/>
<text text-anchor="start" x="1543.5" y="-309.5" font-family="FreeSans.ttf" font-size="10.00" fill="#000000">iDynTree/Core/LinearMotion</text>
<text text-anchor="middle" x="1611" y="-298.5" font-family="FreeSans.ttf" font-size="10.00" fill="#000000">Vector3.h</text>
</a>
</g>
</g>
<!-- Node26&#45;&gt;Node27 -->
<g id="edge29" class="edge">
<title>Node26&#45;&gt;Node27</title>
<path fill="none" stroke="#191970" d="M1352.7317,-358.4639C1404.2705,-348.0942 1472.8694,-334.2921 1526.4148,-323.5186"/>
<polygon fill="#191970" stroke="#191970" points="1527.1171,-326.9476 1536.2302,-321.5438 1525.7363,-320.0851 1527.1171,-326.9476"/>
</g>
<!-- Node33 -->
<g id="node22" class="node">
<title>Node33</title>
<g id="a_node22"><a xlink:href="PrivateMotionForceVertorAssociations_8h.html" target="_top" xlink:title="iDynTree/Core/PrivateMotion\lForceVertorAssociations.h">
<polygon fill="none" stroke="#000000" points="1681.5,-224.5 1681.5,-254.5 1836.5,-254.5 1836.5,-224.5 1681.5,-224.5"/>
<text text-anchor="start" x="1689.5" y="-242.5" font-family="FreeSans.ttf" font-size="10.00" fill="#000000">iDynTree/Core/PrivateMotion</text>
<text text-anchor="middle" x="1759" y="-231.5" font-family="FreeSans.ttf" font-size="10.00" fill="#000000">ForceVertorAssociations.h</text>
</a>
</g>
</g>
<!-- Node26&#45;&gt;Node33 -->
<g id="edge48" class="edge">
<title>Node26&#45;&gt;Node33</title>
<path fill="none" stroke="#191970" d="M1355.5826,-362.7077C1396.4485,-355.0177 1446.5463,-342.3346 1488,-322 1507.8791,-312.2485 1507.0145,-300.5317 1527,-291 1552.4606,-278.857 1616.9126,-264.993 1671.4385,-254.7109"/>
<polygon fill="#191970" stroke="#191970" points="1672.3047,-258.1097 1681.4925,-252.8339 1671.02,-251.2286 1672.3047,-258.1097"/>
</g>
<!-- Node34 -->
<g id="node23" class="node">
<title>Node34</title>
<g id="a_node23"><a xlink:href="AngularMotionVector3_8h.html" target="_top" xlink:title="iDynTree/Core/AngularMotion\lVector3.h">
<polygon fill="none" stroke="#ff0000" points="1321,-291.5 1321,-321.5 1479,-321.5 1479,-291.5 1321,-291.5"/>
<text text-anchor="start" x="1329" y="-309.5" font-family="FreeSans.ttf" font-size="10.00" fill="#000000">iDynTree/Core/AngularMotion</text>
<text text-anchor="middle" x="1400" y="-298.5" font-family="FreeSans.ttf" font-size="10.00" fill="#000000">Vector3.h</text>
</a>
</g>
</g>
<!-- Node26&#45;&gt;Node34 -->
<g id="edge31" class="edge">
<title>Node26&#45;&gt;Node34</title>
<path fill="none" stroke="#191970" d="M1305.3792,-358.4639C1322.5254,-349.0475 1344.8254,-336.8008 1363.4697,-326.5617"/>
<polygon fill="#191970" stroke="#191970" points="1365.2097,-329.5993 1372.2901,-321.7177 1361.8401,-323.4636 1365.2097,-329.5993"/>
</g>
<!-- Node35 -->
<g id="node24" class="node">
<title>Node35</title>
<g id="a_node24"><a xlink:href="SpatialVector_8h.html" target="_top" xlink:title="iDynTree/Core/SpatialVector.h">
<polygon fill="none" stroke="#ff0000" points="1141.5,-297 1141.5,-316 1302.5,-316 1302.5,-297 1141.5,-297"/>
<text text-anchor="middle" x="1222" y="-304" font-family="FreeSans.ttf" font-size="10.00" fill="#000000">iDynTree/Core/SpatialVector.h</text>
</a>
</g>
</g>
<!-- Node26&#45;&gt;Node35 -->
<g id="edge34" class="edge">
<title>Node26&#45;&gt;Node35</title>
<path fill="none" stroke="#191970" d="M1265.2927,-358.2967C1256.7371,-348.0605 1245.4335,-334.5366 1236.5221,-323.8746"/>
<polygon fill="#191970" stroke="#191970" points="1239.0849,-321.4832 1229.9862,-316.055 1233.7139,-325.9724 1239.0849,-321.4832"/>
</g>
<!-- Node27&#45;&gt;Node33 -->
<g id="edge30" class="edge">
<title>Node27&#45;&gt;Node33</title>
<path fill="none" stroke="#191970" d="M1644.2141,-291.4639C1665.562,-281.7996 1693.4957,-269.154 1716.4616,-258.7572"/>
<polygon fill="#191970" stroke="#191970" points="1717.9745,-261.9144 1725.641,-254.6017 1715.0876,-255.5374 1717.9745,-261.9144"/>
</g>
<!-- Node34&#45;&gt;Node10 -->
<g id="edge33" class="edge">
<title>Node34&#45;&gt;Node10</title>
<path fill="none" stroke="#191970" d="M1477.4453,-291.4677C1541.9588,-278.5742 1624.0914,-261.1351 1629,-255 1668.7054,-205.3735 1662.1736,-166.2109 1629,-112 1619.6591,-96.7354 1603.4772,-86.3326 1587.3874,-79.3404"/>
<polygon fill="#191970" stroke="#191970" points="1588.5629,-76.0414 1577.977,-75.6067 1585.9813,-82.548 1588.5629,-76.0414"/>
</g>
<!-- Node34&#45;&gt;Node33 -->
<g id="edge32" class="edge">
<title>Node34&#45;&gt;Node33</title>
<path fill="none" stroke="#191970" d="M1479.2285,-291.7136C1536.0303,-281.1127 1612.5563,-266.8307 1671.2149,-255.8833"/>
<polygon fill="#191970" stroke="#191970" points="1672.0205,-259.2935 1681.2086,-254.0182 1670.7362,-252.4123 1672.0205,-259.2935"/>
</g>
<!-- Node35&#45;&gt;Node10 -->
<g id="edge45" class="edge">
<title>Node35&#45;&gt;Node10</title>
<path fill="none" stroke="#191970" d="M1265.802,-296.9463C1295.9892,-288.9783 1336.0802,-275.5624 1367,-255 1439.5406,-206.7587 1501.993,-121.3274 1527.1551,-84.1396"/>
<polygon fill="#191970" stroke="#191970" points="1530.0959,-86.0381 1532.7322,-75.7765 1524.2721,-82.1544 1530.0959,-86.0381"/>
</g>
<!-- Node35&#45;&gt;Node14 -->
<g id="edge46" class="edge">
<title>Node35&#45;&gt;Node14</title>
<path fill="none" stroke="#191970" d="M1141.2138,-303.0287C1059.9779,-297.8642 942.1484,-285.2597 909,-255 893.1938,-240.5712 889.1947,-215.3989 888.5003,-197.7752"/>
<polygon fill="#191970" stroke="#191970" points="891.9998,-197.6802 888.4245,-187.7069 885,-197.733 891.9998,-197.6802"/>
</g>
<!-- Node35&#45;&gt;Node15 -->
<g id="edge47" class="edge">
<title>Node35&#45;&gt;Node15</title>
<path fill="none" stroke="#191970" d="M1259.5998,-296.9316C1284.5086,-289.041 1316.599,-275.7219 1339,-255 1384.5421,-212.8716 1389.8772,-192.168 1405,-132 1407.1668,-123.3792 1410.0157,-119.3386 1405,-112 1395.568,-98.1997 1355.7156,-84.5657 1324.9048,-75.7685"/>
<polygon fill="#191970" stroke="#191970" points="1325.8413,-72.3962 1315.269,-73.0882 1323.9653,-79.1401 1325.8413,-72.3962"/>
</g>
<!-- Node35&#45;&gt;Node33 -->
<g id="edge44" class="edge">
<title>Node35&#45;&gt;Node33</title>
<path fill="none" stroke="#191970" d="M1274.2694,-296.9751C1286.6198,-294.8697 1299.7572,-292.7479 1312,-291 1452.371,-270.9588 1488.1564,-271.3937 1629,-255 1642.6255,-253.414 1657.0517,-251.7144 1671.1437,-250.0428"/>
<polygon fill="#191970" stroke="#191970" points="1671.8124,-253.4881 1681.3296,-248.8327 1670.9865,-246.537 1671.8124,-253.4881"/>
</g>
<!-- Node36 -->
<g id="node25" class="node">
<title>Node36</title>
<g id="a_node25"><a xlink:href="Position_8h.html" target="_top" xlink:title="Position.h">
<polygon fill="none" stroke="#ff0000" points="917.5,-230 917.5,-249 982.5,-249 982.5,-230 917.5,-230"/>
<text text-anchor="middle" x="950" y="-237" font-family="FreeSans.ttf" font-size="10.00" fill="#000000">Position.h</text>
</a>
</g>
</g>
<!-- Node35&#45;&gt;Node36 -->
<g id="edge35" class="edge">
<title>Node35&#45;&gt;Node36</title>
<path fill="none" stroke="#191970" d="M1183.3179,-296.9717C1132.8547,-284.5414 1044.852,-262.8643 992.5509,-249.9813"/>
<polygon fill="#191970" stroke="#191970" points="993.1353,-246.5207 982.5884,-247.5273 991.461,-253.3175 993.1353,-246.5207"/>
</g>
<!-- Node30 -->
<g id="node27" class="node">
<title>Node30</title>
<g id="a_node27"><a xlink:href="Rotation_8h.html" target="_top" xlink:title="iDynTree/Core/Rotation.h">
<polygon fill="none" stroke="#ff0000" points="1111.5,-168.5 1111.5,-187.5 1248.5,-187.5 1248.5,-168.5 1111.5,-168.5"/>
<text text-anchor="middle" x="1180" y="-175.5" font-family="FreeSans.ttf" font-size="10.00" fill="#000000">iDynTree/Core/Rotation.h</text>
</a>
</g>
</g>
<!-- Node35&#45;&gt;Node30 -->
<g id="edge43" class="edge">
<title>Node35&#45;&gt;Node30</title>
<path fill="none" stroke="#191970" d="M1218.8432,-296.8416C1211.9718,-275.8184 1195.5448,-225.5598 1186.4075,-197.6038"/>
<polygon fill="#191970" stroke="#191970" points="1189.6271,-196.1882 1183.1935,-187.7705 1182.9735,-198.363 1189.6271,-196.1882"/>
</g>
<!-- Node36&#45;&gt;Node4 -->
<g id="edge42" class="edge">
<title>Node36&#45;&gt;Node4</title>
<path fill="none" stroke="#191970" d="M917.2761,-230.9404C880.6206,-219.6862 828.9213,-197.7926 850,-168 879.8699,-125.782 984.4011,-152.308 952,-112 930.2232,-84.9089 828.6299,-72.8458 775.5285,-68.3151"/>
<polygon fill="#191970" stroke="#191970" points="775.5364,-64.8043 765.286,-67.4835 774.9699,-71.7814 775.5364,-64.8043"/>
</g>
<!-- Node37 -->
<g id="node26" class="node">
<title>Node37</title>
<g id="a_node26"><a xlink:href="PositionRaw_8h.html" target="_top" xlink:title="iDynTree/Core/PositionRaw.h">
<polygon fill="none" stroke="#000000" points="937,-168.5 937,-187.5 1093,-187.5 1093,-168.5 937,-168.5"/>
<text text-anchor="middle" x="1015" y="-175.5" font-family="FreeSans.ttf" font-size="10.00" fill="#000000">iDynTree/Core/PositionRaw.h</text>
</a>
</g>
</g>
<!-- Node36&#45;&gt;Node37 -->
<g id="edge36" class="edge">
<title>Node36&#45;&gt;Node37</title>
<path fill="none" stroke="#191970" d="M960.1563,-229.8906C970.0199,-220.5581 985.2055,-206.1902 997.0987,-194.9374"/>
<polygon fill="#191970" stroke="#191970" points="999.8421,-197.1601 1004.7006,-187.7449 995.0311,-192.0753 999.8421,-197.1601"/>
</g>
<!-- Node36&#45;&gt;Node30 -->
<g id="edge39" class="edge">
<title>Node36&#45;&gt;Node30</title>
<path fill="none" stroke="#191970" d="M977.7313,-229.986C984.0387,-227.925 990.7288,-225.8197 997,-224 1040.9994,-211.2329 1091.5397,-198.6869 1128.3433,-189.9305"/>
<polygon fill="#191970" stroke="#191970" points="1129.4174,-193.2731 1138.3426,-187.5642 1127.8054,-186.4612 1129.4174,-193.2731"/>
</g>
<!-- Node37&#45;&gt;Node4 -->
<g id="edge38" class="edge">
<title>Node37&#45;&gt;Node4</title>
<path fill="none" stroke="#191970" d="M1013.4442,-168.1918C1010.5762,-153.5409 1003.012,-126.1534 985,-112 952.7895,-86.6898 833.2634,-73.5002 775.1445,-68.4646"/>
<polygon fill="#191970" stroke="#191970" points="775.2993,-64.9654 765.0419,-67.6182 774.7148,-71.941 775.2993,-64.9654"/>
</g>
<!-- Node37&#45;&gt;Node16 -->
<g id="edge37" class="edge">
<title>Node37&#45;&gt;Node16</title>
<path fill="none" stroke="#191970" d="M1066.231,-168.4369C1118.2208,-158.7321 1198.7073,-143.708 1253.9681,-133.3926"/>
<polygon fill="#191970" stroke="#191970" points="1254.7924,-136.7993 1263.9803,-131.5237 1253.5079,-129.9182 1254.7924,-136.7993"/>
</g>
<!-- Node30&#45;&gt;Node4 -->
<g id="edge40" class="edge">
<title>Node30&#45;&gt;Node4</title>
<path fill="none" stroke="#191970" d="M1158.736,-168.4277C1126.3759,-154.2083 1062.5489,-127.5195 1006,-112 924.377,-89.5991 825.3865,-75.7509 775.3326,-69.6515"/>
<polygon fill="#191970" stroke="#191970" points="775.4754,-66.1438 765.131,-68.4337 774.6456,-73.0944 775.4754,-66.1438"/>
</g>
<!-- Node30&#45;&gt;Node16 -->
<g id="edge41" class="edge">
<title>Node30&#45;&gt;Node16</title>
<path fill="none" stroke="#191970" d="M1203.2073,-168.3733C1225.1699,-159.2629 1258.3332,-145.5062 1282.8401,-135.3404"/>
<polygon fill="#191970" stroke="#191970" points="1284.1997,-138.5657 1292.0955,-131.5011 1281.5176,-132.0999 1284.1997,-138.5657"/>
</g>
<!-- Node42 -->
<g id="node29" class="node">
<title>Node42</title>
<g id="a_node29"><a xlink:href="SpatialForceVector_8h.html" target="_top" xlink:title="iDynTree/Core/SpatialForce\lVector.h">
<polygon fill="none" stroke="#000000" points="1539,-358.5 1539,-388.5 1687,-388.5 1687,-358.5 1539,-358.5"/>
<text text-anchor="start" x="1547" y="-376.5" font-family="FreeSans.ttf" font-size="10.00" fill="#000000">iDynTree/Core/SpatialForce</text>
<text text-anchor="middle" x="1613" y="-365.5" font-family="FreeSans.ttf" font-size="10.00" fill="#000000">Vector.h</text>
</a>
</g>
</g>
<!-- Node41&#45;&gt;Node42 -->
<g id="edge50" class="edge">
<title>Node41&#45;&gt;Node42</title>
<path fill="none" stroke="#191970" d="M1472.0938,-425.3906C1496.2647,-416.4893 1532.8745,-403.0073 1562.7194,-392.0165"/>
<polygon fill="#191970" stroke="#191970" points="1563.9728,-395.2848 1572.1472,-388.5446 1561.5538,-388.716 1563.9728,-395.2848"/>
</g>
<!-- Node42&#45;&gt;Node16 -->
<g id="edge51" class="edge">
<title>Node42&#45;&gt;Node16</title>
<path fill="none" stroke="#191970" d="M1687.1024,-371.0877C1817.4535,-366.0753 2076.6472,-352.3718 2104,-322 2113.2202,-311.7621 2112.5463,-301.8068 2104,-291 2060.9363,-236.5457 2019.1171,-272.7495 1952,-255 1904.5469,-242.4507 1894.1245,-233.6602 1846,-224 1705.2467,-195.7461 1665.4639,-217.6595 1525,-188 1461.7848,-174.6519 1390.4784,-150.1499 1349.3369,-135.0473"/>
<polygon fill="#191970" stroke="#191970" points="1350.39,-131.7051 1339.7969,-131.5148 1347.9593,-138.2695 1350.39,-131.7051"/>
</g>
<!-- Node42&#45;&gt;Node33 -->
<g id="edge58" class="edge">
<title>Node42&#45;&gt;Node33</title>
<path fill="none" stroke="#191970" d="M1642.8376,-358.4741C1659.5003,-349.2618 1680.0519,-336.4741 1696,-322 1715.2052,-304.5699 1732.7272,-280.6645 1744.3892,-263.0727"/>
<polygon fill="#191970" stroke="#191970" points="1747.4323,-264.8125 1749.9313,-254.5166 1741.5572,-261.0069 1747.4323,-264.8125"/>
</g>
<!-- Node42&#45;&gt;Node35 -->
<g id="edge57" class="edge">
<title>Node42&#45;&gt;Node35</title>
<path fill="none" stroke="#191970" d="M1538.7772,-360.824C1477.8525,-350.4135 1389.333,-335.2749 1312,-322 1304.0012,-320.6269 1295.6029,-319.1833 1287.2846,-317.7521"/>
<polygon fill="#191970" stroke="#191970" points="1287.6589,-314.2651 1277.2102,-316.0182 1286.4716,-321.1637 1287.6589,-314.2651"/>
</g>
<!-- Node43 -->
<g id="node30" class="node">
<title>Node43</title>
<g id="a_node30"><a xlink:href="LinearForceVector3_8h.html" target="_top" xlink:title="iDynTree/Core/LinearForce\lVector3.h">
<polygon fill="none" stroke="#ff0000" points="1781,-291.5 1781,-321.5 1925,-321.5 1925,-291.5 1781,-291.5"/>
<text text-anchor="start" x="1789" y="-309.5" font-family="FreeSans.ttf" font-size="10.00" fill="#000000">iDynTree/Core/LinearForce</text>
<text text-anchor="middle" x="1853" y="-298.5" font-family="FreeSans.ttf" font-size="10.00" fill="#000000">Vector3.h</text>
</a>
</g>
</g>
<!-- Node42&#45;&gt;Node43 -->
<g id="edge52" class="edge">
<title>Node42&#45;&gt;Node43</title>
<path fill="none" stroke="#191970" d="M1666.8607,-358.4639C1703.0175,-348.3701 1750.8244,-335.024 1788.935,-324.3848"/>
<polygon fill="#191970" stroke="#191970" points="1790.2138,-327.6617 1798.9044,-321.6017 1788.3316,-320.9195 1790.2138,-327.6617"/>
</g>
<!-- Node45 -->
<g id="node31" class="node">
<title>Node45</title>
<g id="a_node31"><a xlink:href="AngularForceVector3_8h.html" target="_top" xlink:title="iDynTree/Core/AngularForce\lVector3.h">
<polygon fill="none" stroke="#ff0000" points="1943,-291.5 1943,-321.5 2095,-321.5 2095,-291.5 1943,-291.5"/>
<text text-anchor="start" x="1951" y="-309.5" font-family="FreeSans.ttf" font-size="10.00" fill="#000000">iDynTree/Core/AngularForce</text>
<text text-anchor="middle" x="2019" y="-298.5" font-family="FreeSans.ttf" font-size="10.00" fill="#000000">Vector3.h</text>
</a>
</g>
</g>
<!-- Node42&#45;&gt;Node45 -->
<g id="edge54" class="edge">
<title>Node42&#45;&gt;Node45</title>
<path fill="none" stroke="#191970" d="M1687.0218,-362.0822C1749.7783,-352.2967 1842.451,-337.6 1932.4495,-322.2478"/>
<polygon fill="#191970" stroke="#191970" points="1933.2913,-325.6547 1942.5579,-320.5187 1932.111,-318.755 1933.2913,-325.6547"/>
</g>
<!-- Node43&#45;&gt;Node33 -->
<g id="edge53" class="edge">
<title>Node43&#45;&gt;Node33</title>
<path fill="none" stroke="#191970" d="M1831.6699,-291.2967C1818.9303,-282.2163 1802.5611,-270.5488 1788.5848,-260.587"/>
<polygon fill="#191970" stroke="#191970" points="1790.4203,-257.5973 1780.2456,-254.6432 1786.3574,-263.2975 1790.4203,-257.5973"/>
</g>
<!-- Node45&#45;&gt;Node10 -->
<g id="edge56" class="edge">
<title>Node45&#45;&gt;Node10</title>
<path fill="none" stroke="#191970" d="M1991.9346,-291.3113C1931.2212,-257.4623 1779.1979,-173.9424 1648,-112 1623.1954,-100.289 1594.6074,-88.2782 1572.9336,-79.4674"/>
<polygon fill="#191970" stroke="#191970" points="1574.0833,-76.1571 1563.5003,-75.6569 1571.4615,-82.6476 1574.0833,-76.1571"/>
</g>
<!-- Node45&#45;&gt;Node33 -->
<g id="edge55" class="edge">
<title>Node45&#45;&gt;Node33</title>
<path fill="none" stroke="#191970" d="M1960.6509,-291.4639C1921.1477,-281.2842 1868.8077,-267.7966 1827.3519,-257.1138"/>
<polygon fill="#191970" stroke="#191970" points="1828.1606,-253.7079 1817.6036,-254.6017 1826.4138,-260.4864 1828.1606,-253.7079"/>
</g>
<!-- Node46&#45;&gt;Node26 -->
<g id="edge60" class="edge">
<title>Node46&#45;&gt;Node26</title>
<path fill="none" stroke="#191970" d="M920.6296,-425.4581C993.0659,-414.9266 1110.0105,-397.924 1190.2688,-386.2552"/>
<polygon fill="#191970" stroke="#191970" points="1190.9667,-389.6907 1200.359,-384.7882 1189.9595,-382.7635 1190.9667,-389.6907"/>
</g>
<!-- Node47&#45;&gt;Node42 -->
<g id="edge62" class="edge">
<title>Node47&#45;&gt;Node42</title>
<path fill="none" stroke="#191970" d="M1080.6805,-428.1538C1190.3151,-416.8975 1408.4525,-394.5011 1528.6557,-382.1597"/>
<polygon fill="#191970" stroke="#191970" points="1529.3211,-385.6099 1538.9113,-381.1068 1528.6061,-378.6465 1529.3211,-385.6099"/>
</g>
<!-- Node48&#45;&gt;Node4 -->
<g id="edge71" class="edge">
<title>Node48&#45;&gt;Node4</title>
<path fill="none" stroke="#191970" d="M900.6016,-363.9709C889.8625,-361.9529 878.5571,-359.8692 868,-358 819.6514,-349.4396 685.4463,-355.9768 650,-322 582.6184,-257.412 597.5907,-187.8389 652,-112 659.5395,-101.491 688.1209,-87.9917 711.2663,-78.3397"/>
<polygon fill="#191970" stroke="#191970" points="712.8397,-81.4779 720.7757,-74.4587 710.1946,-74.9969 712.8397,-81.4779"/>
</g>
<!-- Node48&#45;&gt;Node9 -->
<g id="edge70" class="edge">
<title>Node48&#45;&gt;Node9</title>
<path fill="none" stroke="#191970" d="M928.7745,-363.9772C907.7734,-354.2805 874.9541,-338.3814 848,-322 827.8668,-309.7641 824.4673,-304.2698 805,-291 786.5167,-278.4009 765.2019,-264.7201 749.2234,-254.6276"/>
<polygon fill="#191970" stroke="#191970" points="750.8219,-251.4983 740.4939,-249.1353 747.0941,-257.4231 750.8219,-251.4983"/>
</g>
<!-- Node48&#45;&gt;Node36 -->
<g id="edge65" class="edge">
<title>Node48&#45;&gt;Node36</title>
<path fill="none" stroke="#191970" d="M950,-363.8631C950,-342.0364 950,-288.4605 950,-259.2589"/>
<polygon fill="#191970" stroke="#191970" points="953.5001,-259.0496 950,-249.0496 946.5001,-259.0497 953.5001,-259.0496"/>
</g>
<!-- Node48&#45;&gt;Node30 -->
<g id="edge66" class="edge">
<title>Node48&#45;&gt;Node30</title>
<path fill="none" stroke="#191970" d="M957.2695,-363.9783C969.7484,-347.9509 996.4726,-314.9863 1023,-291 1066.5298,-251.64 1123.7879,-213.3614 1155.7486,-193.0283"/>
<polygon fill="#191970" stroke="#191970" points="1157.846,-195.8435 1164.4363,-187.5477 1154.1111,-189.9231 1157.846,-195.8435"/>
</g>
<!-- Node49 -->
<g id="node35" class="node">
<title>Node49</title>
<g id="a_node35"><a xlink:href="TransformSemantics_8h.html" target="_top" xlink:title="iDynTree/Core/TransformSemantics.h">
<polygon fill="none" stroke="#000000" points="745.5,-112.5 745.5,-131.5 942.5,-131.5 942.5,-112.5 745.5,-112.5"/>
<text text-anchor="middle" x="844" y="-119.5" font-family="FreeSans.ttf" font-size="10.00" fill="#000000">iDynTree/Core/TransformSemantics.h</text>
</a>
</g>
</g>
<!-- Node48&#45;&gt;Node49 -->
<g id="edge67" class="edge">
<title>Node48&#45;&gt;Node49</title>
<path fill="none" stroke="#191970" d="M941.7795,-363.9137C920.0371,-337.8457 861.2978,-262.6092 841,-188 836.8598,-172.7817 838.0325,-154.871 840.0053,-141.5505"/>
<polygon fill="#191970" stroke="#191970" points="843.4702,-142.0553 841.7516,-131.6007 836.5756,-140.8451 843.4702,-142.0553"/>
</g>
<!-- Node49&#45;&gt;Node4 -->
<g id="edge68" class="edge">
<title>Node49&#45;&gt;Node4</title>
<path fill="none" stroke="#191970" d="M826.4071,-112.2455C810.621,-103.4928 787.2361,-90.527 769.2413,-80.5496"/>
<polygon fill="#191970" stroke="#191970" points="770.8341,-77.4308 760.3913,-75.6427 767.4397,-83.5528 770.8341,-77.4308"/>
</g>
<!-- Node49&#45;&gt;Node10 -->
<g id="edge69" class="edge">
<title>Node49&#45;&gt;Node10</title>
<path fill="none" stroke="#191970" d="M942.8385,-114.036C1085.3629,-102.5521 1345.0804,-81.6252 1469.2552,-71.6197"/>
<polygon fill="#191970" stroke="#191970" points="1469.7142,-75.0942 1479.4008,-70.8022 1469.1519,-68.1168 1469.7142,-75.0942"/>
</g>
<!-- Node50&#45;&gt;Node3 -->
<g id="edge78" class="edge">
<title>Node50&#45;&gt;Node3</title>
<path fill="none" stroke="#191970" d="M211.2525,-481.4369C249.3467,-471.9133 307.9313,-457.2672 349.0987,-446.9753"/>
<polygon fill="#191970" stroke="#191970" points="350.0528,-450.3446 358.9053,-444.5237 348.355,-443.5536 350.0528,-450.3446"/>
</g>
<!-- Node50&#45;&gt;Node4 -->
<g id="edge75" class="edge">
<title>Node50&#45;&gt;Node4</title>
<path fill="none" stroke="#191970" d="M177.8714,-481.2187C187.2727,-461.41 207,-414.9105 207,-373.5 207,-373.5 207,-373.5 207,-178 207,-99.1845 634.1525,-91.3554 709,-76 709.6027,-75.8763 710.2102,-75.7471 710.8213,-75.6129"/>
<polygon fill="#191970" stroke="#191970" points="711.9753,-78.9318 720.8219,-73.102 710.2706,-72.1426 711.9753,-78.9318"/>
</g>
<!-- Node50&#45;&gt;Node48 -->
<g id="edge77" class="edge">
<title>Node50&#45;&gt;Node48</title>
<path fill="none" stroke="#191970" d="M182.8917,-481.3933C199.2386,-466.2155 233.6158,-437.1658 269,-425 395.1059,-381.6424 735.6631,-405.417 868,-389 876.7751,-387.9114 886.0267,-386.4609 895.0289,-384.8829"/>
<polygon fill="#191970" stroke="#191970" points="895.8363,-388.2936 905.048,-383.0597 894.5829,-381.4067 895.8363,-388.2936"/>
</g>
<!-- Node50&#45;&gt;Node51 -->
<g id="edge74" class="edge">
<title>Node50&#45;&gt;Node51</title>
<path fill="none" stroke="#191970" d="M163.0714,-481.2455C154.8162,-473.1352 142.8791,-461.4075 133.0918,-451.7919"/>
<polygon fill="#191970" stroke="#191970" points="135.4011,-449.1542 125.8149,-444.6427 130.4954,-454.1476 135.4011,-449.1542"/>
</g>
<!-- Node50&#45;&gt;Node52 -->
<g id="edge76" class="edge">
<title>Node50&#45;&gt;Node52</title>
<path fill="none" stroke="#191970" d="M237.2095,-481.4369C317.7094,-469.4475 452.72,-449.3396 515.2852,-440.0214"/>
<polygon fill="#191970" stroke="#191970" points="516.0164,-443.4511 525.3916,-438.5161 514.9851,-436.5275 516.0164,-443.4511"/>
</g>
<!-- Node53&#45;&gt;Node3 -->
<g id="edge82" class="edge">
<title>Node53&#45;&gt;Node3</title>
<path fill="none" stroke="#191970" d="M481.233,-481.2455C465.2905,-472.4928 441.6741,-459.527 423.5011,-449.5496"/>
<polygon fill="#191970" stroke="#191970" points="425.0137,-446.3873 414.5634,-444.6427 421.6448,-452.5233 425.0137,-446.3873"/>
</g>
<!-- Node53&#45;&gt;Node52 -->
<g id="edge83" class="edge">
<title>Node53&#45;&gt;Node52</title>
<path fill="none" stroke="#191970" d="M507.7093,-481.2455C514.8073,-473.2958 525.0084,-461.8706 533.495,-452.3656"/>
<polygon fill="#191970" stroke="#191970" points="536.3411,-454.4331 540.3905,-444.6427 531.1195,-449.771 536.3411,-454.4331"/>
</g>
<!-- Node54&#45;&gt;Node3 -->
<g id="edge90" class="edge">
<title>Node54&#45;&gt;Node3</title>
<path fill="none" stroke="#191970" d="M868.5834,-537.4836C806.4413,-522.6576 708.2824,-499.5744 623,-481 566.4407,-468.6814 501.6894,-455.6064 456.0352,-446.5576"/>
<polygon fill="#191970" stroke="#191970" points="456.5053,-443.0828 446.0162,-444.5757 455.1468,-449.9498 456.5053,-443.0828"/>
</g>
<!-- Node54&#45;&gt;Node25 -->
<g id="edge86" class="edge">
<title>Node54&#45;&gt;Node25</title>
<path fill="none" stroke="#191970" d="M1008.2655,-544.3316C1075.004,-536.046 1165.2565,-521.5146 1195,-501 1211.4204,-489.6746 1222.5509,-469.4113 1229.024,-454.3147"/>
<polygon fill="#191970" stroke="#191970" points="1232.3396,-455.4481 1232.769,-444.862 1225.8317,-452.8698 1232.3396,-455.4481"/>
</g>
<!-- Node54&#45;&gt;Node48 -->
<g id="edge85" class="edge">
<title>Node54&#45;&gt;Node48</title>
<path fill="none" stroke="#191970" d="M900.0171,-537.3298C855.6902,-514.9038 777.8619,-472.5888 763,-445 758.7844,-437.1744 757.6133,-432.0708 763,-425 771.1717,-414.2736 842.3258,-396.8084 894.4483,-385.2364"/>
<polygon fill="#191970" stroke="#191970" points="895.2527,-388.6432 904.2669,-383.0758 893.7483,-381.8068 895.2527,-388.6432"/>
</g>
<!-- Node54&#45;&gt;Node52 -->
<g id="edge106" class="edge">
<title>Node54&#45;&gt;Node52</title>
<path fill="none" stroke="#191970" d="M896.8244,-537.3895C850.7301,-517.0401 773.601,-483.1112 767,-481 703.1827,-460.5896 625.92,-446.7397 582.6245,-439.9166"/>
<polygon fill="#191970" stroke="#191970" points="583.0517,-436.4412 572.6344,-438.3725 581.9824,-443.359 583.0517,-436.4412"/>
</g>
<!-- Node55 -->
<g id="node41" class="node">
<title>Node55</title>
<g id="a_node41"><a xlink:href="VectorDynSize_8h.html" target="_top" xlink:title="iDynTree/Core/VectorDynSize.h">
<polygon fill="none" stroke="#000000" points="2217.5,-364 2217.5,-383 2384.5,-383 2384.5,-364 2217.5,-364"/>
<text text-anchor="middle" x="2301" y="-371" font-family="FreeSans.ttf" font-size="10.00" fill="#000000">iDynTree/Core/VectorDynSize.h</text>
</a>
</g>
</g>
<!-- Node54&#45;&gt;Node55 -->
<g id="edge87" class="edge">
<title>Node54&#45;&gt;Node55</title>
<path fill="none" stroke="#191970" d="M1008.345,-544.7857C1101.905,-535.2867 1264.1447,-518.279 1403,-501 1759.712,-456.6112 1848.503,-442.2516 2204,-389 2213.263,-387.6125 2223.016,-386.1069 2232.6225,-384.5977"/>
<polygon fill="#191970" stroke="#191970" points="2233.2226,-388.0464 2242.5538,-383.0286 2232.13,-381.1322 2233.2226,-388.0464"/>
</g>
<!-- Node54&#45;&gt;Node56 -->
<g id="edge91" class="edge">
<title>Node54&#45;&gt;Node56</title>
<path fill="none" stroke="#191970" d="M931,-537.2977C931,-529.3834 931,-519.6043 931,-511.0759"/>
<polygon fill="#191970" stroke="#191970" points="934.5001,-510.8469 931,-500.8469 927.5001,-510.847 934.5001,-510.8469"/>
</g>
<!-- Node54&#45;&gt;Node58 -->
<g id="edge101" class="edge">
<title>Node54&#45;&gt;Node58</title>
<path fill="none" stroke="#191970" d="M1008.3851,-540.2024C1078.3563,-529.0829 1180.4724,-512.8552 1248.0429,-502.1172"/>
<polygon fill="#191970" stroke="#191970" points="1248.8402,-505.5345 1258.1669,-500.5084 1247.7415,-498.6213 1248.8402,-505.5345"/>
</g>
<!-- Node55&#45;&gt;Node4 -->
<g id="edge89" class="edge">
<title>Node55&#45;&gt;Node4</title>
<path fill="none" stroke="#191970" d="M2286.0678,-363.9321C2243.975,-337.4072 2120.0571,-262.3697 2007,-224 1749.2905,-136.5378 1674.9666,-146.3778 1405,-112 1164.2793,-81.3464 871.5253,-69.9946 775.3231,-66.9339"/>
<polygon fill="#191970" stroke="#191970" points="775.1942,-63.4283 765.0904,-66.6163 774.977,-70.4249 775.1942,-63.4283"/>
</g>
<!-- Node55&#45;&gt;Node17 -->
<g id="edge88" class="edge">
<title>Node55&#45;&gt;Node17</title>
<path fill="none" stroke="#191970" d="M2299.8964,-363.7633C2297.4932,-341.6889 2292,-286.1326 2292,-239.5 2292,-239.5 2292,-239.5 2292,-178 2292,-132.2481 2255.3025,-129.428 2213,-112 2130.6852,-78.0874 1873.7226,-69.1737 1747.8778,-66.8326"/>
<polygon fill="#191970" stroke="#191970" points="1747.6425,-63.328 1737.5821,-66.6504 1747.5185,-70.3269 1747.6425,-63.328"/>
</g>
<!-- Node56&#45;&gt;Node3 -->
<g id="edge99" class="edge">
<title>Node56&#45;&gt;Node3</title>
<path fill="none" stroke="#191970" d="M856.4687,-483.184C756.2669,-472.6759 578.8787,-454.0734 476.2961,-443.3157"/>
<polygon fill="#191970" stroke="#191970" points="476.6132,-439.8298 466.3027,-442.2677 475.8831,-446.7917 476.6132,-439.8298"/>
</g>
<!-- Node56&#45;&gt;Node25 -->
<g id="edge93" class="edge">
<title>Node56&#45;&gt;Node25</title>
<path fill="none" stroke="#191970" d="M983.0848,-481.4369C1035.9412,-471.7321 1117.7691,-456.708 1173.9509,-446.3926"/>
<polygon fill="#191970" stroke="#191970" points="1174.9265,-449.7721 1184.13,-444.5237 1173.6623,-442.8872 1174.9265,-449.7721"/>
</g>
<!-- Node56&#45;&gt;Node46 -->
<g id="edge94" class="edge">
<title>Node56&#45;&gt;Node46</title>
<path fill="none" stroke="#191970" d="M917.7618,-481.2455C906.319,-472.814 889.5704,-460.4729 876.2525,-450.6598"/>
<polygon fill="#191970" stroke="#191970" points="878.2133,-447.757 868.0865,-444.6427 874.0609,-453.3924 878.2133,-447.757"/>
</g>
<!-- Node56&#45;&gt;Node47 -->
<g id="edge95" class="edge">
<title>Node56&#45;&gt;Node47</title>
<path fill="none" stroke="#191970" d="M945.4575,-481.2455C958.0732,-472.7337 976.5944,-460.2375 991.2045,-450.3801"/>
<polygon fill="#191970" stroke="#191970" points="993.3761,-453.1371 999.7082,-444.6427 989.4609,-447.3343 993.3761,-453.1371"/>
</g>
<!-- Node56&#45;&gt;Node48 -->
<g id="edge92" class="edge">
<title>Node56&#45;&gt;Node48</title>
<path fill="none" stroke="#191970" d="M871.7842,-481.4607C831.8393,-473.6782 784.2594,-461.3088 772,-445 766.6589,-437.8947 766.659,-432.1054 772,-425 779.7535,-414.6852 847.7078,-397.0703 897.3563,-385.3576"/>
<polygon fill="#191970" stroke="#191970" points="898.391,-388.7102 907.3314,-383.0252 896.7971,-381.894 898.391,-388.7102"/>
</g>
<!-- Node56&#45;&gt;Node52 -->
<g id="edge100" class="edge">
<title>Node56&#45;&gt;Node52</title>
<path fill="none" stroke="#191970" d="M865.7659,-481.4369C783.7799,-469.418 646.1404,-449.2405 582.7845,-439.9527"/>
<polygon fill="#191970" stroke="#191970" points="582.9618,-436.4414 572.5598,-438.4538 581.9464,-443.3673 582.9618,-436.4414"/>
</g>
<!-- Node56&#45;&gt;Node57 -->
<g id="edge96" class="edge">
<title>Node56&#45;&gt;Node57</title>
<path fill="none" stroke="#191970" d="M872.7239,-481.4557C839.2986,-474.441 797.2986,-462.941 763,-445 736.3007,-431.034 684.8505,-373.4807 659,-358 636.8827,-344.755 610.7388,-333.5443 587.863,-324.9984"/>
<polygon fill="#191970" stroke="#191970" points="588.8743,-321.6418 578.2804,-321.5009 586.4742,-328.2175 588.8743,-321.6418"/>
</g>
<!-- Node57&#45;&gt;Node4 -->
<g id="edge98" class="edge">
<title>Node57&#45;&gt;Node4</title>
<path fill="none" stroke="#191970" d="M530.9263,-291.4473C531.5913,-255.2495 538.4319,-162.5914 589,-112 606.112,-94.8801 670.7624,-79.8372 710.6563,-71.9193"/>
<polygon fill="#191970" stroke="#191970" points="711.5555,-75.3102 720.7066,-69.9709 710.2232,-68.4382 711.5555,-75.3102"/>
</g>
<!-- Node57&#45;&gt;Node9 -->
<g id="edge97" class="edge">
<title>Node57&#45;&gt;Node9</title>
<path fill="none" stroke="#191970" d="M574.5374,-291.4639C608.6556,-279.6808 655.6068,-263.4657 687.9419,-252.2984"/>
<polygon fill="#191970" stroke="#191970" points="689.1676,-255.578 697.4772,-249.0053 686.8825,-248.9615 689.1676,-255.578"/>
</g>
<!-- Node58&#45;&gt;Node16 -->
<g id="edge102" class="edge">
<title>Node58&#45;&gt;Node16</title>
<path fill="none" stroke="#191970" d="M1319.1198,-481.1614C1320.1622,-466.9674 1319.8603,-440.7272 1306,-425 1270.8698,-385.138 1237.8126,-415.9132 1192,-389 1154.5903,-367.0232 1138.1827,-361.84 1121,-322 1115.5436,-309.3487 1112.521,-301.8597 1121,-291 1161.5986,-239.0023 1215.5257,-298.6382 1265,-255 1298.4805,-225.4689 1309.6118,-171.2226 1313.2606,-141.964"/>
<polygon fill="#191970" stroke="#191970" points="1316.7697,-142.0651 1314.3529,-131.7496 1309.8094,-141.3207 1316.7697,-142.0651"/>
</g>
<!-- Node58&#45;&gt;Node42 -->
<g id="edge104" class="edge">
<title>Node58&#45;&gt;Node42</title>
<path fill="none" stroke="#191970" d="M1390.831,-481.4852C1447.7696,-473.122 1521.5561,-459.9723 1548,-445 1568.4469,-433.4232 1585.9771,-413.1114 1597.6616,-397.0882"/>
<polygon fill="#191970" stroke="#191970" points="1600.66,-398.9082 1603.5329,-388.7103 1594.9276,-394.8908 1600.66,-398.9082"/>
</g>
<!-- Node58&#45;&gt;Node52 -->
<g id="edge105" class="edge">
<title>Node58&#45;&gt;Node52</title>
<path fill="none" stroke="#191970" d="M1242.2258,-484.7193C1226.6113,-483.4589 1210.2743,-482.1647 1195,-481 960.7791,-463.1401 678.6129,-443.7948 582.747,-437.2831"/>
<polygon fill="#191970" stroke="#191970" points="582.9775,-433.7908 572.7635,-436.6057 582.5036,-440.7748 582.9775,-433.7908"/>
</g>
<!-- Node58&#45;&gt;Node55 -->
<g id="edge103" class="edge">
<title>Node58&#45;&gt;Node55</title>
<path fill="none" stroke="#191970" d="M1393.7119,-486.2779C1502.6171,-478.9653 1697.8769,-463.7683 1766,-445 1786.3201,-439.4017 1788.6482,-430.4821 1809,-425 1979.216,-379.1496 2029.085,-410.9205 2204,-389 2214.1946,-387.7224 2224.963,-386.1877 2235.4706,-384.5877"/>
<polygon fill="#191970" stroke="#191970" points="2236.0933,-388.033 2245.4377,-383.0398 2235.019,-381.1159 2236.0933,-388.033"/>
</g>
<!-- Node60 -->
<g id="node46" class="node">
<title>Node60</title>
<g id="a_node46"><a xlink:href="MatrixDynSize_8h.html" target="_top" xlink:title="iDynTree/Core/MatrixDynSize.h">
<polygon fill="none" stroke="#000000" points="482.5,-364 482.5,-383 649.5,-383 649.5,-364 482.5,-364"/>
<text text-anchor="middle" x="566" y="-371" font-family="FreeSans.ttf" font-size="10.00" fill="#000000">iDynTree/Core/MatrixDynSize.h</text>
</a>
</g>
</g>
<!-- Node59&#45;&gt;Node60 -->
<g id="edge108" class="edge">
<title>Node59&#45;&gt;Node60</title>
<path fill="none" stroke="#191970" d="M71.4097,-604.4453C58.8972,-567.8335 33.3763,-473.5883 82,-425 109.0163,-398.0034 339.2615,-383.4526 472.2166,-377.233"/>
<polygon fill="#191970" stroke="#191970" points="472.5761,-380.7202 482.4045,-376.7638 472.254,-373.7277 472.5761,-380.7202"/>
</g>
<!-- Node60&#45;&gt;Node4 -->
<g id="edge109" class="edge">
<title>Node60&#45;&gt;Node4</title>
<path fill="none" stroke="#191970" d="M522.869,-363.9763C498.687,-356.4768 469.8796,-343.5684 452,-322 427.9215,-292.9538 432,-277.2287 432,-239.5 432,-239.5 432,-239.5 432,-178 432,-46.8076 582.5211,-110.8503 709,-76 709.5932,-75.8366 710.1919,-75.6706 710.7948,-75.5026"/>
<polygon fill="#191970" stroke="#191970" points="712.0622,-78.7808 720.7188,-72.6723 710.1423,-72.0492 712.0622,-78.7808"/>
</g>
<!-- Node61&#45;&gt;Node9 -->
<g id="edge120" class="edge">
<title>Node61&#45;&gt;Node9</title>
<path fill="none" stroke="#191970" d="M1681.8843,-425.3449C1696.7393,-399.6128 1732.0901,-328.7787 1696,-291 1665.7668,-259.3522 952.6759,-257.8375 909,-255 878.6668,-253.0293 845.561,-250.3921 815.8979,-247.8523"/>
<polygon fill="#191970" stroke="#191970" points="815.8236,-244.333 805.5594,-246.9593 815.2211,-251.307 815.8236,-244.333"/>
</g>
<!-- Node61&#45;&gt;Node10 -->
<g id="edge124" class="edge">
<title>Node61&#45;&gt;Node10</title>
<path fill="none" stroke="#191970" d="M1756.5605,-425.5633C1758.3905,-425.3713 1760.2056,-425.1833 1762,-425 1807.3841,-420.365 2137.2103,-419.6505 2171,-389 2221.0695,-343.5822 2199,-307.0998 2199,-239.5 2199,-239.5 2199,-239.5 2199,-178 2199,-170.579 1778.5533,-103.6556 1608.8174,-76.9407"/>
<polygon fill="#191970" stroke="#191970" points="1609.1571,-73.4512 1598.7346,-75.3547 1608.0693,-80.3662 1609.1571,-73.4512"/>
</g>
<!-- Node61&#45;&gt;Node16 -->
<g id="edge118" class="edge">
<title>Node61&#45;&gt;Node16</title>
<path fill="none" stroke="#191970" d="M1728.3152,-425.4233C1840.619,-404.3487 2096.623,-353.3408 2121,-322 2129.4589,-311.1246 2129.1125,-302.1362 2121,-291 2078.1274,-232.1481 1593.1309,-159.9474 1396.784,-132.9068"/>
<polygon fill="#191970" stroke="#191970" points="1397.191,-129.43 1386.8079,-131.5376 1396.2391,-136.365 1397.191,-129.43"/>
</g>
<!-- Node61&#45;&gt;Node26 -->
<g id="edge121" class="edge">
<title>Node61&#45;&gt;Node26</title>
<path fill="none" stroke="#191970" d="M1614.2492,-425.4581C1547.5911,-415.1579 1440.8747,-398.6678 1365.5714,-387.0318"/>
<polygon fill="#191970" stroke="#191970" points="1366.0422,-383.5631 1355.625,-385.4948 1364.9732,-390.481 1366.0422,-383.5631"/>
</g>
<!-- Node61&#45;&gt;Node42 -->
<g id="edge122" class="edge">
<title>Node61&#45;&gt;Node42</title>
<path fill="none" stroke="#191970" d="M1666.1563,-425.3906C1658.0247,-417.4527 1646.1614,-405.8718 1635.7041,-395.6635"/>
<polygon fill="#191970" stroke="#191970" points="1638.0122,-393.0255 1628.4115,-388.5446 1633.1224,-398.0345 1638.0122,-393.0255"/>
</g>
<!-- Node61&#45;&gt;Node48 -->
<g id="edge123" class="edge">
<title>Node61&#45;&gt;Node48</title>
<path fill="none" stroke="#191970" d="M1595.1819,-428.1538C1456.3597,-416.3941 1174.004,-392.4755 1033.4144,-380.5661"/>
<polygon fill="#191970" stroke="#191970" points="1033.3902,-377.0516 1023.1304,-379.6949 1032.7993,-384.0266 1033.3902,-377.0516"/>
</g>
<!-- Node61&#45;&gt;Node55 -->
<g id="edge117" class="edge">
<title>Node61&#45;&gt;Node55</title>
<path fill="none" stroke="#191970" d="M1756.5812,-426.3943C1761.459,-425.9117 1766.2943,-425.4432 1771,-425 1963.2575,-406.8912 2012.2966,-412.252 2204,-389 2214.3279,-387.7473 2225.2417,-386.2115 2235.8758,-384.5986"/>
<polygon fill="#191970" stroke="#191970" points="2236.6118,-388.0264 2245.9574,-383.0353 2235.5391,-381.109 2236.6118,-388.0264"/>
</g>
<!-- Node61&#45;&gt;Node60 -->
<g id="edge119" class="edge">
<title>Node61&#45;&gt;Node60</title>
<path fill="none" stroke="#191970" d="M1595.459,-428.2671C1579.7275,-427.0766 1563.3523,-425.9241 1548,-425 1170.1235,-402.2538 1074.349,-419.2622 697,-389 681.12,-387.7265 664.1975,-386.0006 647.9716,-384.1622"/>
<polygon fill="#191970" stroke="#191970" points="648.3102,-380.6781 637.9743,-383.0061 647.506,-387.6318 648.3102,-380.6781"/>
</g>
<!-- Node62 -->
<g id="node48" class="node">
<title>Node62</title>
<polygon fill="none" stroke="#bfbfbf" points="2084.5,-364 2084.5,-383 2161.5,-383 2161.5,-364 2084.5,-364"/>
<text text-anchor="middle" x="2123" y="-371" font-family="FreeSans.ttf" font-size="10.00" fill="#000000">Eigen/Dense</text>
</g>
<!-- Node61&#45;&gt;Node62 -->
<g id="edge116" class="edge">
<title>Node61&#45;&gt;Node62</title>
<path fill="none" stroke="#191970" d="M1756.8728,-426.2947C1863.2195,-414.7334 2040.1359,-395.0653 2070,-389 2074.4538,-388.0954 2079.0756,-386.9944 2083.6504,-385.8006"/>
<polygon fill="#191970" stroke="#191970" points="2084.7989,-389.1145 2093.5069,-383.0794 2082.936,-382.3669 2084.7989,-389.1145"/>
</g>
<!-- Node63&#45;&gt;Node3 -->
<g id="edge127" class="edge">
<title>Node63&#45;&gt;Node3</title>
<path fill="none" stroke="#191970" d="M738.9782,-542.9492C706.0285,-528.2333 639.986,-499.7558 582,-481 539.2564,-467.1744 489.8293,-455.0778 452.8233,-446.7635"/>
<polygon fill="#191970" stroke="#191970" points="453.2521,-443.2735 442.7309,-444.5205 451.7334,-450.1067 453.2521,-443.2735"/>
</g>
<!-- Node63&#45;&gt;Node56 -->
<g id="edge128" class="edge">
<title>Node63&#45;&gt;Node56</title>
<path fill="none" stroke="#191970" d="M786.7188,-542.8906C815.8321,-532.42 862.5692,-515.6111 894.9247,-503.9745"/>
<polygon fill="#191970" stroke="#191970" points="896.2435,-507.2197 904.4689,-500.5419 893.8744,-500.6328 896.2435,-507.2197"/>
</g>
<!-- Node63&#45;&gt;Node58 -->
<g id="edge129" class="edge">
<title>Node63&#45;&gt;Node58</title>
<path fill="none" stroke="#191970" d="M808.433,-542.9468C820.3573,-540.7943 833.1149,-538.6586 845,-537 917.4783,-526.8853 1116.6355,-508.7002 1232.1036,-498.4864"/>
<polygon fill="#191970" stroke="#191970" points="1232.6707,-501.95 1242.324,-497.5838 1232.0549,-494.9772 1232.6707,-501.95"/>
</g>
<!-- Node63&#45;&gt;Node60 -->
<g id="edge126" class="edge">
<title>Node63&#45;&gt;Node60</title>
<path fill="none" stroke="#191970" d="M749.5697,-542.8762C718.056,-513.7991 623.5593,-426.6088 583.8667,-389.9852"/>
<polygon fill="#191970" stroke="#191970" points="586.2048,-387.3803 576.4819,-383.1714 581.4579,-392.525 586.2048,-387.3803"/>
</g>
</g>
</svg>
