<?xml version="1.0" encoding="UTF-8" standalone="no"?>
<!DOCTYPE svg PUBLIC "-//W3C//DTD SVG 1.1//EN"
 "http://www.w3.org/Graphics/SVG/1.1/DTD/svg11.dtd">
<!-- Generated by graphviz version 2.40.1 (20161225.0304)
 -->
<!-- Title: GeometryElement.cpp Pages: 1 -->
<svg width="1974pt" height="476pt"
 viewBox="0.00 0.00 1974.00 476.00" xmlns="http://www.w3.org/2000/svg" xmlns:xlink="http://www.w3.org/1999/xlink">
<g id="graph0" class="graph" transform="scale(1 1) rotate(0) translate(4 472)">
<title>GeometryElement.cpp</title>
<!-- Node0 -->
<g id="node1" class="node">
<title>Node0</title>
<polygon fill="#bfbfbf" stroke="#000000" points="451.5,-448.5 451.5,-467.5 577.5,-467.5 577.5,-448.5 451.5,-448.5"/>
<text text-anchor="middle" x="514.5" y="-455.5" font-family="FreeSans.ttf" font-size="10.00" fill="#000000">GeometryElement.cpp</text>
</g>
<!-- Node1 -->
<g id="node2" class="node">
<title>Node1</title>
<g id="a_node2"><a xlink:href="GeometryElement_8h.html" target="_top" xlink:title="GeometryElement.h">
<polygon fill="none" stroke="#000000" points="199,-392.5 199,-411.5 314,-411.5 314,-392.5 199,-392.5"/>
<text text-anchor="middle" x="256.5" y="-399.5" font-family="FreeSans.ttf" font-size="10.00" fill="#000000">GeometryElement.h</text>
</a>
</g>
</g>
<!-- Node0&#45;&gt;Node1 -->
<g id="edge1" class="edge">
<title>Node0&#45;&gt;Node1</title>
<path fill="none" stroke="#191970" d="M470.4414,-448.4369C426.1011,-438.8127 357.6589,-423.957 310.1751,-413.6504"/>
<polygon fill="#191970" stroke="#191970" points="310.8918,-410.2245 300.3769,-411.5237 309.4069,-417.0653 310.8918,-410.2245"/>
</g>
<!-- Node8 -->
<g id="node9" class="node">
<title>Node8</title>
<g id="a_node9"><a xlink:href="URDFParsingUtils_8h.html" target="_top" xlink:title="URDFParsingUtils.h">
<polygon fill="none" stroke="#000000" points="1044.5,-392.5 1044.5,-411.5 1154.5,-411.5 1154.5,-392.5 1044.5,-392.5"/>
<text text-anchor="middle" x="1099.5" y="-399.5" font-family="FreeSans.ttf" font-size="10.00" fill="#000000">URDFParsingUtils.h</text>
</a>
</g>
</g>
<!-- Node0&#45;&gt;Node8 -->
<g id="edge8" class="edge">
<title>Node0&#45;&gt;Node8</title>
<path fill="none" stroke="#191970" d="M577.6611,-451.9538C689.3966,-441.2578 920.7874,-419.1075 1034.0998,-408.2605"/>
<polygon fill="#191970" stroke="#191970" points="1034.7388,-411.7155 1044.3597,-407.2784 1034.0717,-404.7473 1034.7388,-411.7155"/>
</g>
<!-- Node16 -->
<g id="node17" class="node">
<title>Node16</title>
<g id="a_node17"><a xlink:href="Utils_8h.html" target="_top" xlink:title="iDynTree/Core/Utils.h">
<polygon fill="none" stroke="#000000" points="1177,-56.5 1177,-75.5 1296,-75.5 1296,-56.5 1177,-56.5"/>
<text text-anchor="middle" x="1236.5" y="-63.5" font-family="FreeSans.ttf" font-size="10.00" fill="#000000">iDynTree/Core/Utils.h</text>
</a>
</g>
</g>
<!-- Node0&#45;&gt;Node16 -->
<g id="edge63" class="edge">
<title>Node0&#45;&gt;Node16</title>
<path fill="none" stroke="#191970" d="M577.7117,-456.2206C773.2959,-449.8842 1355.5,-424.4351 1355.5,-346 1355.5,-346 1355.5,-346 1355.5,-290 1355.5,-244.9826 1279.5949,-128.9922 1249.0294,-84.1101"/>
<polygon fill="#191970" stroke="#191970" points="1251.78,-81.9323 1243.2389,-75.6632 1246.0063,-85.8902 1251.78,-81.9323"/>
</g>
<!-- Node36 -->
<g id="node37" class="node">
<title>Node36</title>
<g id="a_node37"><a xlink:href="XMLAttribute_8h.html" target="_top" xlink:title="iDynTree/XMLAttribute.h">
<polygon fill="none" stroke="#000000" points="308.5,-168.5 308.5,-187.5 442.5,-187.5 442.5,-168.5 308.5,-168.5"/>
<text text-anchor="middle" x="375.5" y="-175.5" font-family="FreeSans.ttf" font-size="10.00" fill="#000000">iDynTree/XMLAttribute.h</text>
</a>
</g>
</g>
<!-- Node0&#45;&gt;Node36 -->
<g id="edge61" class="edge">
<title>Node0&#45;&gt;Node36</title>
<path fill="none" stroke="#191970" d="M469.0368,-448.3923C419.2829,-434.899 346.5,-405.0659 346.5,-346 346.5,-346 346.5,-346 346.5,-290 346.5,-256.5134 358.7995,-219.1413 367.3785,-197.1469"/>
<polygon fill="#191970" stroke="#191970" points="370.7072,-198.2517 371.221,-187.6693 364.2201,-195.6216 370.7072,-198.2517"/>
</g>
<!-- Node37 -->
<g id="node38" class="node">
<title>Node37</title>
<g id="a_node38"><a xlink:href="SolidShapes_8h.html" target="_top" xlink:title="iDynTree/Model/SolidShapes.h">
<polygon fill="none" stroke="#000000" points="433,-392.5 433,-411.5 596,-411.5 596,-392.5 433,-392.5"/>
<text text-anchor="middle" x="514.5" y="-399.5" font-family="FreeSans.ttf" font-size="10.00" fill="#000000">iDynTree/Model/SolidShapes.h</text>
</a>
</g>
</g>
<!-- Node0&#45;&gt;Node37 -->
<g id="edge64" class="edge">
<title>Node0&#45;&gt;Node37</title>
<path fill="none" stroke="#191970" d="M514.5,-448.2455C514.5,-440.9382 514.5,-430.6944 514.5,-421.7046"/>
<polygon fill="#191970" stroke="#191970" points="518.0001,-421.6426 514.5,-411.6427 511.0001,-421.6427 518.0001,-421.6426"/>
</g>
<!-- Node2 -->
<g id="node3" class="node">
<title>Node2</title>
<g id="a_node3"><a xlink:href="XMLElement_8h.html" target="_top" xlink:title="iDynTree/XMLElement.h">
<polygon fill="none" stroke="#000000" points="172.5,-336.5 172.5,-355.5 304.5,-355.5 304.5,-336.5 172.5,-336.5"/>
<text text-anchor="middle" x="238.5" y="-343.5" font-family="FreeSans.ttf" font-size="10.00" fill="#000000">iDynTree/XMLElement.h</text>
</a>
</g>
</g>
<!-- Node1&#45;&gt;Node2 -->
<g id="edge2" class="edge">
<title>Node1&#45;&gt;Node2</title>
<path fill="none" stroke="#191970" d="M253.3646,-392.2455C250.99,-384.8579 247.6507,-374.4689 244.7385,-365.4087"/>
<polygon fill="#191970" stroke="#191970" points="247.9917,-364.0919 241.5994,-355.6427 241.3275,-366.234 247.9917,-364.0919"/>
</g>
<!-- Node3 -->
<g id="node4" class="node">
<title>Node3</title>
<polygon fill="none" stroke="#bfbfbf" points="111,-280.5 111,-299.5 176,-299.5 176,-280.5 111,-280.5"/>
<text text-anchor="middle" x="143.5" y="-287.5" font-family="FreeSans.ttf" font-size="10.00" fill="#000000">functional</text>
</g>
<!-- Node2&#45;&gt;Node3 -->
<g id="edge3" class="edge">
<title>Node2&#45;&gt;Node3</title>
<path fill="none" stroke="#191970" d="M221.9523,-336.2455C207.2401,-327.5731 185.5112,-314.7645 168.6495,-304.825"/>
<polygon fill="#191970" stroke="#191970" points="170.2502,-301.7057 159.8581,-299.6427 166.6954,-307.736 170.2502,-301.7057"/>
</g>
<!-- Node4 -->
<g id="node5" class="node">
<title>Node4</title>
<polygon fill="none" stroke="#bfbfbf" points="194.5,-280.5 194.5,-299.5 252.5,-299.5 252.5,-280.5 194.5,-280.5"/>
<text text-anchor="middle" x="223.5" y="-287.5" font-family="FreeSans.ttf" font-size="10.00" fill="#000000">memory</text>
</g>
<!-- Node2&#45;&gt;Node4 -->
<g id="edge4" class="edge">
<title>Node2&#45;&gt;Node4</title>
<path fill="none" stroke="#191970" d="M235.8872,-336.2455C233.9084,-328.8579 231.1256,-318.4689 228.6988,-309.4087"/>
<polygon fill="#191970" stroke="#191970" points="232.0511,-308.3966 226.0829,-299.6427 225.2895,-310.2078 232.0511,-308.3966"/>
</g>
<!-- Node5 -->
<g id="node6" class="node">
<title>Node5</title>
<polygon fill="none" stroke="#bfbfbf" points="670.5,-56.5 670.5,-75.5 714.5,-75.5 714.5,-56.5 670.5,-56.5"/>
<text text-anchor="middle" x="692.5" y="-63.5" font-family="FreeSans.ttf" font-size="10.00" fill="#000000">string</text>
</g>
<!-- Node2&#45;&gt;Node5 -->
<g id="edge5" class="edge">
<title>Node2&#45;&gt;Node5</title>
<path fill="none" stroke="#191970" d="M244.8789,-336.2715C256.6283,-317.3847 280.5,-274.0797 280.5,-234 280.5,-234 280.5,-234 280.5,-178 280.5,-99.4102 563.1813,-74.1705 660.2408,-67.8207"/>
<polygon fill="#191970" stroke="#191970" points="660.5888,-71.3058 670.3491,-67.1844 660.1489,-64.3196 660.5888,-71.3058"/>
</g>
<!-- Node6 -->
<g id="node7" class="node">
<title>Node6</title>
<polygon fill="none" stroke="#bfbfbf" points="0,-280.5 0,-299.5 93,-299.5 93,-280.5 0,-280.5"/>
<text text-anchor="middle" x="46.5" y="-287.5" font-family="FreeSans.ttf" font-size="10.00" fill="#000000">unordered_map</text>
</g>
<!-- Node2&#45;&gt;Node6 -->
<g id="edge6" class="edge">
<title>Node2&#45;&gt;Node6</title>
<path fill="none" stroke="#191970" d="M205.494,-336.3733C173.2909,-326.9807 124.1558,-312.6496 89.0361,-302.4064"/>
<polygon fill="#191970" stroke="#191970" points="89.6553,-298.9412 79.0753,-299.5011 87.6953,-305.6612 89.6553,-298.9412"/>
</g>
<!-- Node7 -->
<g id="node8" class="node">
<title>Node7</title>
<polygon fill="none" stroke="#bfbfbf" points="439,-280.5 439,-299.5 486,-299.5 486,-280.5 439,-280.5"/>
<text text-anchor="middle" x="462.5" y="-287.5" font-family="FreeSans.ttf" font-size="10.00" fill="#000000">vector</text>
</g>
<!-- Node2&#45;&gt;Node7 -->
<g id="edge7" class="edge">
<title>Node2&#45;&gt;Node7</title>
<path fill="none" stroke="#191970" d="M276.7525,-336.4369C319.6043,-325.7239 388.3841,-308.529 429.134,-298.3415"/>
<polygon fill="#191970" stroke="#191970" points="430.0049,-301.7316 438.8574,-295.9106 428.3071,-294.9406 430.0049,-301.7316"/>
</g>
<!-- Node8&#45;&gt;Node5 -->
<g id="edge12" class="edge">
<title>Node8&#45;&gt;Node5</title>
<path fill="none" stroke="#191970" d="M1102.3841,-392.1295C1106.1867,-379.1994 1113.1409,-355.8385 1119.5,-336 1151.2979,-236.8 1258.6771,-188.9866 1188.5,-112 1157.2398,-77.7065 829.7556,-68.5823 724.7252,-66.5289"/>
<polygon fill="#191970" stroke="#191970" points="724.7758,-63.0293 714.7121,-66.3416 724.6449,-70.0281 724.7758,-63.0293"/>
</g>
<!-- Node8&#45;&gt;Node7 -->
<g id="edge13" class="edge">
<title>Node8&#45;&gt;Node7</title>
<path fill="none" stroke="#191970" d="M1044.2701,-393.1077C988.3291,-384.0352 899.3347,-369.422 822.5,-356 702.1353,-334.9739 559.4724,-308.2963 495.9233,-296.321"/>
<polygon fill="#191970" stroke="#191970" points="496.5384,-292.8753 486.063,-294.4612 495.241,-299.7541 496.5384,-292.8753"/>
</g>
<!-- Node9 -->
<g id="node10" class="node">
<title>Node9</title>
<polygon fill="none" stroke="#bfbfbf" points="1128,-336.5 1128,-355.5 1175,-355.5 1175,-336.5 1128,-336.5"/>
<text text-anchor="middle" x="1151.5" y="-343.5" font-family="FreeSans.ttf" font-size="10.00" fill="#000000">cmath</text>
</g>
<!-- Node8&#45;&gt;Node9 -->
<g id="edge9" class="edge">
<title>Node8&#45;&gt;Node9</title>
<path fill="none" stroke="#191970" d="M1108.5577,-392.2455C1116.0142,-384.2155 1126.7634,-372.6394 1135.6417,-363.0781"/>
<polygon fill="#191970" stroke="#191970" points="1138.3063,-365.3522 1142.5461,-355.6427 1133.1768,-360.589 1138.3063,-365.3522"/>
</g>
<!-- Node10 -->
<g id="node11" class="node">
<title>Node10</title>
<polygon fill="none" stroke="#bfbfbf" points="589,-336.5 589,-355.5 638,-355.5 638,-336.5 589,-336.5"/>
<text text-anchor="middle" x="613.5" y="-343.5" font-family="FreeSans.ttf" font-size="10.00" fill="#000000">cstdlib</text>
</g>
<!-- Node8&#45;&gt;Node10 -->
<g id="edge10" class="edge">
<title>Node8&#45;&gt;Node10</title>
<path fill="none" stroke="#191970" d="M1044.2228,-395.6306C943.182,-383.988 731.4253,-359.5881 648.1724,-349.9952"/>
<polygon fill="#191970" stroke="#191970" points="648.5491,-346.5155 638.2142,-348.8477 647.7478,-353.4695 648.5491,-346.5155"/>
</g>
<!-- Node11 -->
<g id="node12" class="node">
<title>Node11</title>
<polygon fill="none" stroke="#bfbfbf" points="1498.5,-56.5 1498.5,-75.5 1554.5,-75.5 1554.5,-56.5 1498.5,-56.5"/>
<text text-anchor="middle" x="1526.5" y="-63.5" font-family="FreeSans.ttf" font-size="10.00" fill="#000000">sstream</text>
</g>
<!-- Node8&#45;&gt;Node11 -->
<g id="edge11" class="edge">
<title>Node8&#45;&gt;Node11</title>
<path fill="none" stroke="#191970" d="M1154.6663,-392.6182C1191.5062,-385.26 1240.5291,-373.333 1281.5,-356 1456.0963,-282.136 1552.1251,-297.5495 1644.5,-132 1663.8892,-97.2517 1605.8558,-79.5825 1564.4357,-71.6103"/>
<polygon fill="#191970" stroke="#191970" points="1565.0443,-68.1637 1554.5816,-69.8319 1563.801,-75.0524 1565.0443,-68.1637"/>
</g>
<!-- Node12 -->
<g id="node13" class="node">
<title>Node12</title>
<g id="a_node13"><a xlink:href="Transform_8h.html" target="_top" xlink:title="iDynTree/Core/Transform.h">
<polygon fill="none" stroke="#000000" points="831.5,-336.5 831.5,-355.5 977.5,-355.5 977.5,-336.5 831.5,-336.5"/>
<text text-anchor="middle" x="904.5" y="-343.5" font-family="FreeSans.ttf" font-size="10.00" fill="#000000">iDynTree/Core/Transform.h</text>
</a>
</g>
</g>
<!-- Node8&#45;&gt;Node12 -->
<g id="edge14" class="edge">
<title>Node8&#45;&gt;Node12</title>
<path fill="none" stroke="#191970" d="M1065.9783,-392.3733C1033.1317,-382.9404 982.9405,-368.5265 947.2422,-358.2747"/>
<polygon fill="#191970" stroke="#191970" points="948.1619,-354.8974 937.5843,-355.5011 946.2297,-361.6255 948.1619,-354.8974"/>
</g>
<!-- Node15 -->
<g id="node16" class="node">
<title>Node15</title>
<g id="a_node16"><a xlink:href="VectorFixSize_8h.html" target="_top" xlink:title="iDynTree/Core/VectorFixSize.h">
<polygon fill="none" stroke="#000000" points="1474,-112.5 1474,-131.5 1635,-131.5 1635,-112.5 1474,-112.5"/>
<text text-anchor="middle" x="1554.5" y="-119.5" font-family="FreeSans.ttf" font-size="10.00" fill="#000000">iDynTree/Core/VectorFixSize.h</text>
</a>
</g>
</g>
<!-- Node8&#45;&gt;Node15 -->
<g id="edge59" class="edge">
<title>Node8&#45;&gt;Node15</title>
<path fill="none" stroke="#191970" d="M1153.1565,-392.4604C1193.842,-384.196 1245.2737,-371.1959 1260.5,-356 1282.1057,-334.4374 1279.5,-320.5246 1279.5,-290 1279.5,-290 1279.5,-290 1279.5,-234 1279.5,-187.7769 1414.4457,-151.3534 1495.276,-133.6823"/>
<polygon fill="#191970" stroke="#191970" points="1496.2951,-137.0433 1505.3355,-131.5186 1494.8231,-130.1998 1496.2951,-137.0433"/>
</g>
<!-- Node35 -->
<g id="node36" class="node">
<title>Node35</title>
<polygon fill="none" stroke="#bfbfbf" points="1193.5,-336.5 1193.5,-355.5 1251.5,-355.5 1251.5,-336.5 1193.5,-336.5"/>
<text text-anchor="middle" x="1222.5" y="-343.5" font-family="FreeSans.ttf" font-size="10.00" fill="#000000">fpconv.h</text>
</g>
<!-- Node8&#45;&gt;Node35 -->
<g id="edge60" class="edge">
<title>Node8&#45;&gt;Node35</title>
<path fill="none" stroke="#191970" d="M1120.6445,-392.3733C1140.3892,-383.3838 1170.0698,-369.8706 1192.3055,-359.7471"/>
<polygon fill="#191970" stroke="#191970" points="1193.9806,-362.8302 1201.6315,-355.5011 1191.08,-356.4594 1193.9806,-362.8302"/>
</g>
<!-- Node12&#45;&gt;Node5 -->
<g id="edge58" class="edge">
<title>Node12&#45;&gt;Node5</title>
<path fill="none" stroke="#191970" d="M835.3638,-336.4884C739.6694,-321.3504 578.5,-287.8598 578.5,-234 578.5,-234 578.5,-234 578.5,-178 578.5,-131.4628 627.4383,-97.828 661.1864,-80.1659"/>
<polygon fill="#191970" stroke="#191970" points="662.8862,-83.2289 670.249,-75.6105 659.7424,-76.9746 662.8862,-83.2289"/>
</g>
<!-- Node13 -->
<g id="node14" class="node">
<title>Node13</title>
<g id="a_node14"><a xlink:href="Position_8h.html" target="_top" xlink:title="iDynTree/Core/Position.h">
<polygon fill="none" stroke="#000000" points="740.5,-280.5 740.5,-299.5 876.5,-299.5 876.5,-280.5 740.5,-280.5"/>
<text text-anchor="middle" x="808.5" y="-287.5" font-family="FreeSans.ttf" font-size="10.00" fill="#000000">iDynTree/Core/Position.h</text>
</a>
</g>
</g>
<!-- Node12&#45;&gt;Node13 -->
<g id="edge15" class="edge">
<title>Node12&#45;&gt;Node13</title>
<path fill="none" stroke="#191970" d="M887.7781,-336.2455C872.9111,-327.5731 850.9534,-314.7645 833.9142,-304.825"/>
<polygon fill="#191970" stroke="#191970" points="835.4317,-301.6582 825.0303,-299.6427 831.9045,-307.7047 835.4317,-301.6582"/>
</g>
<!-- Node29 -->
<g id="node30" class="node">
<title>Node29</title>
<g id="a_node30"><a xlink:href="Rotation_8h.html" target="_top" xlink:title="iDynTree/Core/Rotation.h">
<polygon fill="none" stroke="#000000" points="933,-224.5 933,-243.5 1070,-243.5 1070,-224.5 933,-224.5"/>
<text text-anchor="middle" x="1001.5" y="-231.5" font-family="FreeSans.ttf" font-size="10.00" fill="#000000">iDynTree/Core/Rotation.h</text>
</a>
</g>
</g>
<!-- Node12&#45;&gt;Node29 -->
<g id="edge53" class="edge">
<title>Node12&#45;&gt;Node29</title>
<path fill="none" stroke="#191970" d="M912.7702,-336.4509C929.1634,-317.5227 965.9789,-275.014 986.666,-251.1279"/>
<polygon fill="#191970" stroke="#191970" points="989.3497,-253.3754 993.2508,-243.5249 984.0583,-248.7927 989.3497,-253.3754"/>
</g>
<!-- Node31 -->
<g id="node32" class="node">
<title>Node31</title>
<g id="a_node32"><a xlink:href="MatrixFixSize_8h.html" target="_top" xlink:title="iDynTree/Core/MatrixFixSize.h">
<polygon fill="none" stroke="#000000" points="1295,-112.5 1295,-131.5 1456,-131.5 1456,-112.5 1295,-112.5"/>
<text text-anchor="middle" x="1375.5" y="-119.5" font-family="FreeSans.ttf" font-size="10.00" fill="#000000">iDynTree/Core/MatrixFixSize.h</text>
</a>
</g>
</g>
<!-- Node12&#45;&gt;Node31 -->
<g id="edge57" class="edge">
<title>Node12&#45;&gt;Node31</title>
<path fill="none" stroke="#191970" d="M923.0948,-336.321C976.0774,-308.8535 1132.5729,-228.4951 1265.5,-168 1290.8242,-156.4749 1319.8803,-144.3711 1341.768,-135.4734"/>
<polygon fill="#191970" stroke="#191970" points="1343.3236,-138.6197 1351.2809,-131.6246 1340.6981,-132.1307 1343.3236,-138.6197"/>
</g>
<!-- Node34 -->
<g id="node35" class="node">
<title>Node34</title>
<g id="a_node35"><a xlink:href="TransformSemantics_8h.html" target="_top" xlink:title="iDynTree/Core/TransformSemantics.h">
<polygon fill="none" stroke="#000000" points="759,-112.5 759,-131.5 956,-131.5 956,-112.5 759,-112.5"/>
<text text-anchor="middle" x="857.5" y="-119.5" font-family="FreeSans.ttf" font-size="10.00" fill="#000000">iDynTree/Core/TransformSemantics.h</text>
</a>
</g>
</g>
<!-- Node12&#45;&gt;Node34 -->
<g id="edge54" class="edge">
<title>Node12&#45;&gt;Node34</title>
<path fill="none" stroke="#191970" d="M904.9209,-336.4247C905.8148,-309.2301 906.3365,-229.5209 885.5,-168 882.1442,-158.0919 876.373,-148.0575 870.9388,-139.8998"/>
<polygon fill="#191970" stroke="#191970" points="873.7109,-137.7574 865.0934,-131.5939 867.9864,-141.7861 873.7109,-137.7574"/>
</g>
<!-- Node13&#45;&gt;Node5 -->
<g id="edge52" class="edge">
<title>Node13&#45;&gt;Node5</title>
<path fill="none" stroke="#191970" d="M810.6332,-280.291C813.1142,-266.2583 815.3806,-240.2172 802.5,-224 770.7692,-184.0498 727.251,-226.2588 693.5,-188 668.6225,-159.7999 677.7697,-112.037 685.7136,-85.4085"/>
<polygon fill="#191970" stroke="#191970" points="689.1023,-86.3036 688.8364,-75.7121 682.4394,-84.1576 689.1023,-86.3036"/>
</g>
<!-- Node14 -->
<g id="node15" class="node">
<title>Node14</title>
<g id="a_node15"><a xlink:href="PositionRaw_8h.html" target="_top" xlink:title="iDynTree/Core/PositionRaw.h">
<polygon fill="none" stroke="#000000" points="720.5,-168.5 720.5,-187.5 876.5,-187.5 876.5,-168.5 720.5,-168.5"/>
<text text-anchor="middle" x="798.5" y="-175.5" font-family="FreeSans.ttf" font-size="10.00" fill="#000000">iDynTree/Core/PositionRaw.h</text>
</a>
</g>
</g>
<!-- Node13&#45;&gt;Node14 -->
<g id="edge16" class="edge">
<title>Node13&#45;&gt;Node14</title>
<path fill="none" stroke="#191970" d="M816.9438,-280.2588C826.9633,-267.4684 841.4848,-244.2584 834.5,-224 830.7813,-213.2144 823.3787,-203.0249 816.2481,-194.9904"/>
<polygon fill="#191970" stroke="#191970" points="818.7791,-192.5729 809.3548,-187.7321 813.7033,-197.3934 818.7791,-192.5729"/>
</g>
<!-- Node28 -->
<g id="node29" class="node">
<title>Node28</title>
<g id="a_node29"><a xlink:href="PositionSemantics_8h.html" target="_top" xlink:title="iDynTree/Core/PositionSemantics.h">
<polygon fill="none" stroke="#000000" points="606,-224.5 606,-243.5 793,-243.5 793,-224.5 606,-224.5"/>
<text text-anchor="middle" x="699.5" y="-231.5" font-family="FreeSans.ttf" font-size="10.00" fill="#000000">iDynTree/Core/PositionSemantics.h</text>
</a>
</g>
</g>
<!-- Node13&#45;&gt;Node28 -->
<g id="edge35" class="edge">
<title>Node13&#45;&gt;Node28</title>
<path fill="none" stroke="#191970" d="M789.5136,-280.2455C772.3208,-271.4125 746.7762,-258.2887 727.2868,-248.2758"/>
<polygon fill="#191970" stroke="#191970" points="728.763,-245.0993 718.2688,-243.6427 725.5641,-251.3257 728.763,-245.0993"/>
</g>
<!-- Node13&#45;&gt;Node29 -->
<g id="edge37" class="edge">
<title>Node13&#45;&gt;Node29</title>
<path fill="none" stroke="#191970" d="M841.6779,-280.3733C874.0487,-270.9807 923.4398,-256.6496 958.7424,-246.4064"/>
<polygon fill="#191970" stroke="#191970" points="960.1265,-249.6492 968.7551,-243.5011 958.1758,-242.9264 960.1265,-249.6492"/>
</g>
<!-- Node14&#45;&gt;Node5 -->
<g id="edge34" class="edge">
<title>Node14&#45;&gt;Node5</title>
<path fill="none" stroke="#191970" d="M787.9506,-168.3792C778.0542,-159.2407 762.9544,-145.0038 750.5,-132 735.2669,-116.095 718.7684,-97.138 707.2768,-83.6301"/>
<polygon fill="#191970" stroke="#191970" points="709.6405,-81.0047 700.5118,-75.6272 704.2946,-85.5238 709.6405,-81.0047"/>
</g>
<!-- Node14&#45;&gt;Node15 -->
<g id="edge17" class="edge">
<title>Node14&#45;&gt;Node15</title>
<path fill="none" stroke="#191970" d="M876.6042,-173.0379C1023.3294,-163.6477 1336.1581,-143.2854 1464.0122,-132.0925"/>
<polygon fill="#191970" stroke="#191970" points="1464.3357,-135.5776 1473.9856,-131.2037 1463.7143,-128.6052 1464.3357,-135.5776"/>
</g>
<!-- Node15&#45;&gt;Node5 -->
<g id="edge30" class="edge">
<title>Node15&#45;&gt;Node5</title>
<path fill="none" stroke="#191970" d="M1473.9886,-112.7623C1471.1248,-112.4947 1468.2885,-112.2395 1465.5,-112 1178.661,-87.3679 830.8064,-71.7574 724.7293,-67.3114"/>
<polygon fill="#191970" stroke="#191970" points="724.8048,-63.8117 714.6679,-66.893 724.5138,-70.8056 724.8048,-63.8117"/>
</g>
<!-- Node15&#45;&gt;Node11 -->
<g id="edge31" class="edge">
<title>Node15&#45;&gt;Node11</title>
<path fill="none" stroke="#191970" d="M1549.6228,-112.2455C1545.8487,-104.6973 1540.5079,-94.0158 1535.9099,-84.8197"/>
<polygon fill="#191970" stroke="#191970" points="1538.924,-83.0217 1531.3213,-75.6427 1532.663,-86.1522 1538.924,-83.0217"/>
</g>
<!-- Node15&#45;&gt;Node16 -->
<g id="edge18" class="edge">
<title>Node15&#45;&gt;Node16</title>
<path fill="none" stroke="#191970" d="M1500.1952,-112.4369C1444.8573,-102.6918 1359.0617,-87.5832 1300.4661,-77.2645"/>
<polygon fill="#191970" stroke="#191970" points="1301.0363,-73.8111 1290.5808,-75.5237 1299.8223,-80.705 1301.0363,-73.8111"/>
</g>
<!-- Node18 -->
<g id="node19" class="node">
<title>Node18</title>
<g id="a_node19"><a xlink:href="Span_8h.html" target="_top" xlink:title="iDynTree/Core/Span.h">
<polygon fill="none" stroke="#000000" points="1611,-56.5 1611,-75.5 1732,-75.5 1732,-56.5 1611,-56.5"/>
<text text-anchor="middle" x="1671.5" y="-63.5" font-family="FreeSans.ttf" font-size="10.00" fill="#000000">iDynTree/Core/Span.h</text>
</a>
</g>
</g>
<!-- Node15&#45;&gt;Node18 -->
<g id="edge20" class="edge">
<title>Node15&#45;&gt;Node18</title>
<path fill="none" stroke="#191970" d="M1574.613,-112.3733C1593.3103,-103.4241 1621.3744,-89.9917 1642.4934,-79.8835"/>
<polygon fill="#191970" stroke="#191970" points="1644.1405,-82.9755 1651.6494,-75.5011 1641.1183,-76.6614 1644.1405,-82.9755"/>
</g>
<!-- Node19 -->
<g id="node20" class="node">
<title>Node19</title>
<polygon fill="none" stroke="#bfbfbf" points="1404.5,-.5 1404.5,-19.5 1456.5,-19.5 1456.5,-.5 1404.5,-.5"/>
<text text-anchor="middle" x="1430.5" y="-7.5" font-family="FreeSans.ttf" font-size="10.00" fill="#000000">cassert</text>
</g>
<!-- Node15&#45;&gt;Node19 -->
<g id="edge32" class="edge">
<title>Node15&#45;&gt;Node19</title>
<path fill="none" stroke="#191970" d="M1559.6017,-112.486C1566.2208,-98.6963 1575.5762,-72.9548 1563.5,-56 1560.5399,-51.844 1504.7973,-33.5207 1466.4266,-21.2918"/>
<polygon fill="#191970" stroke="#191970" points="1467.1965,-17.8642 1456.6062,-18.1739 1465.0782,-24.536 1467.1965,-17.8642"/>
</g>
<!-- Node27 -->
<g id="node28" class="node">
<title>Node27</title>
<polygon fill="none" stroke="#bfbfbf" points="1430.5,-56.5 1430.5,-75.5 1480.5,-75.5 1480.5,-56.5 1430.5,-56.5"/>
<text text-anchor="middle" x="1455.5" y="-63.5" font-family="FreeSans.ttf" font-size="10.00" fill="#000000">cstring</text>
</g>
<!-- Node15&#45;&gt;Node27 -->
<g id="edge33" class="edge">
<title>Node15&#45;&gt;Node27</title>
<path fill="none" stroke="#191970" d="M1537.2555,-112.2455C1521.9239,-103.5731 1499.2801,-90.7645 1481.7084,-80.825"/>
<polygon fill="#191970" stroke="#191970" points="1482.9741,-77.5198 1472.5469,-75.6427 1479.5276,-83.6126 1482.9741,-77.5198"/>
</g>
<!-- Node17 -->
<g id="node18" class="node">
<title>Node17</title>
<polygon fill="none" stroke="#bfbfbf" points="1286,-.5 1286,-19.5 1339,-19.5 1339,-.5 1286,-.5"/>
<text text-anchor="middle" x="1312.5" y="-7.5" font-family="FreeSans.ttf" font-size="10.00" fill="#000000">cstddef</text>
</g>
<!-- Node16&#45;&gt;Node17 -->
<g id="edge19" class="edge">
<title>Node16&#45;&gt;Node17</title>
<path fill="none" stroke="#191970" d="M1249.7382,-56.2455C1261.181,-47.814 1277.9296,-35.4729 1291.2475,-25.6598"/>
<polygon fill="#191970" stroke="#191970" points="1293.4391,-28.3924 1299.4135,-19.6427 1289.2867,-22.757 1293.4391,-28.3924"/>
</g>
<!-- Node18&#45;&gt;Node17 -->
<g id="edge24" class="edge">
<title>Node18&#45;&gt;Node17</title>
<path fill="none" stroke="#191970" d="M1610.6005,-56.5004C1535.714,-44.8189 1410.9782,-25.3615 1349.3185,-15.7433"/>
<polygon fill="#191970" stroke="#191970" points="1349.6924,-12.2593 1339.2724,-14.1762 1348.6135,-19.1757 1349.6924,-12.2593"/>
</g>
<!-- Node18&#45;&gt;Node19 -->
<g id="edge21" class="edge">
<title>Node18&#45;&gt;Node19</title>
<path fill="none" stroke="#191970" d="M1625.0904,-56.4488C1585.4261,-48.1033 1526.6215,-35.301 1466.8218,-20.2376"/>
<polygon fill="#191970" stroke="#191970" points="1467.3822,-16.7689 1456.8285,-17.7012 1465.6601,-23.5538 1467.3822,-16.7689"/>
</g>
<!-- Node20 -->
<g id="node21" class="node">
<title>Node20</title>
<polygon fill="none" stroke="#bfbfbf" points="1474.5,-.5 1474.5,-19.5 1538.5,-19.5 1538.5,-.5 1474.5,-.5"/>
<text text-anchor="middle" x="1506.5" y="-7.5" font-family="FreeSans.ttf" font-size="10.00" fill="#000000">algorithm</text>
</g>
<!-- Node18&#45;&gt;Node20 -->
<g id="edge22" class="edge">
<title>Node18&#45;&gt;Node20</title>
<path fill="none" stroke="#191970" d="M1643.1355,-56.3733C1615.8173,-47.1016 1574.3204,-33.0178 1544.2262,-22.804"/>
<polygon fill="#191970" stroke="#191970" points="1545.0887,-19.4008 1534.4944,-19.5011 1542.839,-26.0294 1545.0887,-19.4008"/>
</g>
<!-- Node21 -->
<g id="node22" class="node">
<title>Node21</title>
<polygon fill="none" stroke="#bfbfbf" points="1556.5,-.5 1556.5,-19.5 1598.5,-19.5 1598.5,-.5 1556.5,-.5"/>
<text text-anchor="middle" x="1577.5" y="-7.5" font-family="FreeSans.ttf" font-size="10.00" fill="#000000">array</text>
</g>
<!-- Node18&#45;&gt;Node21 -->
<g id="edge23" class="edge">
<title>Node18&#45;&gt;Node21</title>
<path fill="none" stroke="#191970" d="M1655.1264,-56.2455C1640.5692,-47.5731 1619.069,-34.7645 1602.3848,-24.825"/>
<polygon fill="#191970" stroke="#191970" points="1604.0683,-21.7539 1593.6859,-19.6427 1600.4856,-27.7676 1604.0683,-21.7539"/>
</g>
<!-- Node22 -->
<g id="node23" class="node">
<title>Node22</title>
<polygon fill="none" stroke="#bfbfbf" points="1617,-.5 1617,-19.5 1670,-19.5 1670,-.5 1617,-.5"/>
<text text-anchor="middle" x="1643.5" y="-7.5" font-family="FreeSans.ttf" font-size="10.00" fill="#000000">iterator</text>
</g>
<!-- Node18&#45;&gt;Node22 -->
<g id="edge25" class="edge">
<title>Node18&#45;&gt;Node22</title>
<path fill="none" stroke="#191970" d="M1666.6228,-56.2455C1662.8487,-48.6973 1657.5079,-38.0158 1652.9099,-28.8197"/>
<polygon fill="#191970" stroke="#191970" points="1655.924,-27.0217 1648.3213,-19.6427 1649.663,-30.1522 1655.924,-27.0217"/>
</g>
<!-- Node23 -->
<g id="node24" class="node">
<title>Node23</title>
<polygon fill="none" stroke="#bfbfbf" points="1688.5,-.5 1688.5,-19.5 1732.5,-19.5 1732.5,-.5 1688.5,-.5"/>
<text text-anchor="middle" x="1710.5" y="-7.5" font-family="FreeSans.ttf" font-size="10.00" fill="#000000">limits</text>
</g>
<!-- Node18&#45;&gt;Node23 -->
<g id="edge26" class="edge">
<title>Node18&#45;&gt;Node23</title>
<path fill="none" stroke="#191970" d="M1678.2933,-56.2455C1683.7178,-48.4564 1691.4661,-37.3308 1698.0033,-27.9439"/>
<polygon fill="#191970" stroke="#191970" points="1700.9417,-29.849 1703.7846,-19.6427 1695.1975,-25.8485 1700.9417,-29.849"/>
</g>
<!-- Node24 -->
<g id="node25" class="node">
<title>Node24</title>
<polygon fill="none" stroke="#bfbfbf" points="1751,-.5 1751,-19.5 1816,-19.5 1816,-.5 1751,-.5"/>
<text text-anchor="middle" x="1783.5" y="-7.5" font-family="FreeSans.ttf" font-size="10.00" fill="#000000">stdexcept</text>
</g>
<!-- Node18&#45;&gt;Node24 -->
<g id="edge27" class="edge">
<title>Node18&#45;&gt;Node24</title>
<path fill="none" stroke="#191970" d="M1690.7535,-56.3733C1708.5712,-47.4644 1735.2747,-34.1127 1755.4594,-24.0203"/>
<polygon fill="#191970" stroke="#191970" points="1757.1187,-27.1038 1764.4978,-19.5011 1753.9882,-20.8428 1757.1187,-27.1038"/>
</g>
<!-- Node25 -->
<g id="node26" class="node">
<title>Node25</title>
<polygon fill="none" stroke="#bfbfbf" points="1834,-.5 1834,-19.5 1903,-19.5 1903,-.5 1834,-.5"/>
<text text-anchor="middle" x="1868.5" y="-7.5" font-family="FreeSans.ttf" font-size="10.00" fill="#000000">type_traits</text>
</g>
<!-- Node18&#45;&gt;Node25 -->
<g id="edge28" class="edge">
<title>Node18&#45;&gt;Node25</title>
<path fill="none" stroke="#191970" d="M1705.3655,-56.3733C1738.549,-46.9404 1789.255,-32.5265 1825.3194,-22.2747"/>
<polygon fill="#191970" stroke="#191970" points="1826.4145,-25.6021 1835.0764,-19.5011 1824.5005,-18.8689 1826.4145,-25.6021"/>
</g>
<!-- Node26 -->
<g id="node27" class="node">
<title>Node26</title>
<polygon fill="none" stroke="#bfbfbf" points="1921,-.5 1921,-19.5 1966,-19.5 1966,-.5 1921,-.5"/>
<text text-anchor="middle" x="1943.5" y="-7.5" font-family="FreeSans.ttf" font-size="10.00" fill="#000000">utility</text>
</g>
<!-- Node18&#45;&gt;Node26 -->
<g id="edge29" class="edge">
<title>Node18&#45;&gt;Node26</title>
<path fill="none" stroke="#191970" d="M1732.3737,-56.5194C1779.0796,-48.7577 1845.2776,-36.7066 1911.1872,-20.1236"/>
<polygon fill="#191970" stroke="#191970" points="1912.0827,-23.5073 1920.9072,-17.644 1910.3523,-16.7245 1912.0827,-23.5073"/>
</g>
<!-- Node28&#45;&gt;Node5 -->
<g id="edge36" class="edge">
<title>Node28&#45;&gt;Node5</title>
<path fill="none" stroke="#191970" d="M679.3439,-224.4543C665.6185,-216.7394 648.5365,-204.4561 640.5,-188 625.6775,-157.6482 626.6259,-142.7969 640.5,-112 646.0697,-99.6369 656.7863,-89.2563 667.0506,-81.5033"/>
<polygon fill="#191970" stroke="#191970" points="669.2618,-84.2277 675.4433,-75.623 665.2451,-78.4948 669.2618,-84.2277"/>
</g>
<!-- Node29&#45;&gt;Node5 -->
<g id="edge38" class="edge">
<title>Node29&#45;&gt;Node5</title>
<path fill="none" stroke="#191970" d="M932.9677,-227.3688C852.2032,-218.9063 726.9554,-203.499 711.5,-188 684.6145,-161.0387 685.8908,-112.7577 689.1923,-85.722"/>
<polygon fill="#191970" stroke="#191970" points="692.6945,-85.9568 690.655,-75.5602 685.7659,-84.9595 692.6945,-85.9568"/>
</g>
<!-- Node29&#45;&gt;Node15 -->
<g id="edge51" class="edge">
<title>Node29&#45;&gt;Node15</title>
<path fill="none" stroke="#191970" d="M1035.8756,-224.3862C1086.0481,-210.5876 1182.4114,-184.9651 1265.5,-168 1335.2337,-153.7617 1415.1894,-141.3317 1473.2978,-132.9945"/>
<polygon fill="#191970" stroke="#191970" points="1474.1152,-136.4135 1483.5213,-131.5375 1473.1275,-129.4835 1474.1152,-136.4135"/>
</g>
<!-- Node30 -->
<g id="node31" class="node">
<title>Node30</title>
<g id="a_node31"><a xlink:href="RotationRaw_8h.html" target="_top" xlink:title="iDynTree/Core/RotationRaw.h">
<polygon fill="none" stroke="#000000" points="970.5,-168.5 970.5,-187.5 1128.5,-187.5 1128.5,-168.5 970.5,-168.5"/>
<text text-anchor="middle" x="1049.5" y="-175.5" font-family="FreeSans.ttf" font-size="10.00" fill="#000000">iDynTree/Core/RotationRaw.h</text>
</a>
</g>
</g>
<!-- Node29&#45;&gt;Node30 -->
<g id="edge39" class="edge">
<title>Node29&#45;&gt;Node30</title>
<path fill="none" stroke="#191970" d="M1009.861,-224.2455C1016.675,-216.2958 1026.4681,-204.8706 1034.6152,-195.3656"/>
<polygon fill="#191970" stroke="#191970" points="1037.3843,-197.513 1041.2349,-187.6427 1032.0695,-192.9575 1037.3843,-197.513"/>
</g>
<!-- Node33 -->
<g id="node34" class="node">
<title>Node33</title>
<g id="a_node34"><a xlink:href="RotationSemantics_8h.html" target="_top" xlink:title="iDynTree/Core/RotationSemantics.h">
<polygon fill="none" stroke="#000000" points="974.5,-112.5 974.5,-131.5 1162.5,-131.5 1162.5,-112.5 974.5,-112.5"/>
<text text-anchor="middle" x="1068.5" y="-119.5" font-family="FreeSans.ttf" font-size="10.00" fill="#000000">iDynTree/Core/RotationSemantics.h</text>
</a>
</g>
</g>
<!-- Node29&#45;&gt;Node33 -->
<g id="edge48" class="edge">
<title>Node29&#45;&gt;Node33</title>
<path fill="none" stroke="#191970" d="M988.4228,-224.4621C972.2999,-211.504 948.5298,-187.6939 961.5,-168 971.916,-152.1843 989.0319,-141.784 1006.5513,-134.9536"/>
<polygon fill="#191970" stroke="#191970" points="1008.0229,-138.1457 1016.2858,-131.5144 1005.691,-131.5455 1008.0229,-138.1457"/>
</g>
<!-- Node30&#45;&gt;Node5 -->
<g id="edge47" class="edge">
<title>Node30&#45;&gt;Node5</title>
<path fill="none" stroke="#191970" d="M1101.9491,-168.4806C1145.6063,-158.3486 1196.8432,-139.8936 1171.5,-112 1141.4542,-78.9306 827.1249,-69.0077 724.6232,-66.6393"/>
<polygon fill="#191970" stroke="#191970" points="724.6341,-63.1388 714.5587,-66.4156 724.4784,-70.1371 724.6341,-63.1388"/>
</g>
<!-- Node30&#45;&gt;Node31 -->
<g id="edge40" class="edge">
<title>Node30&#45;&gt;Node31</title>
<path fill="none" stroke="#191970" d="M1105.171,-168.4369C1161.9011,-158.6918 1249.855,-143.5832 1309.9247,-133.2645"/>
<polygon fill="#191970" stroke="#191970" points="1310.7956,-136.6662 1320.0586,-131.5237 1309.6104,-129.7673 1310.7956,-136.6662"/>
</g>
<!-- Node31&#45;&gt;Node5 -->
<g id="edge44" class="edge">
<title>Node31&#45;&gt;Node5</title>
<path fill="none" stroke="#191970" d="M1294.8061,-115.3838C1144.286,-103.0425 826.7172,-77.0046 724.7485,-68.6441"/>
<polygon fill="#191970" stroke="#191970" points="725.0023,-65.1532 714.7497,-67.8243 724.4302,-72.1298 725.0023,-65.1532"/>
</g>
<!-- Node31&#45;&gt;Node11 -->
<g id="edge46" class="edge">
<title>Node31&#45;&gt;Node11</title>
<path fill="none" stroke="#191970" d="M1401.4578,-112.3733C1426.2407,-103.1822 1463.7746,-89.2624 1491.254,-79.0713"/>
<polygon fill="#191970" stroke="#191970" points="1492.7219,-82.26 1500.8809,-75.5011 1490.2879,-75.6968 1492.7219,-82.26"/>
</g>
<!-- Node31&#45;&gt;Node16 -->
<g id="edge41" class="edge">
<title>Node31&#45;&gt;Node16</title>
<path fill="none" stroke="#191970" d="M1351.605,-112.3733C1328.9918,-103.2629 1294.8458,-89.5062 1269.6127,-79.3404"/>
<polygon fill="#191970" stroke="#191970" points="1270.6666,-75.9917 1260.0831,-75.5011 1268.0507,-82.4845 1270.6666,-75.9917"/>
</g>
<!-- Node31&#45;&gt;Node19 -->
<g id="edge42" class="edge">
<title>Node31&#45;&gt;Node19</title>
<path fill="none" stroke="#191970" d="M1380.1893,-112.4509C1389.2814,-93.936 1409.4531,-52.8591 1421.3078,-28.7187"/>
<polygon fill="#191970" stroke="#191970" points="1424.5563,-30.0438 1425.8226,-19.5249 1418.273,-26.9582 1424.5563,-30.0438"/>
</g>
<!-- Node31&#45;&gt;Node27 -->
<g id="edge43" class="edge">
<title>Node31&#45;&gt;Node27</title>
<path fill="none" stroke="#191970" d="M1389.4349,-112.2455C1401.5947,-103.7337 1419.4464,-91.2375 1433.5285,-81.3801"/>
<polygon fill="#191970" stroke="#191970" points="1435.5395,-84.2447 1441.7248,-75.6427 1431.5253,-78.51 1435.5395,-84.2447"/>
</g>
<!-- Node32 -->
<g id="node33" class="node">
<title>Node32</title>
<polygon fill="none" stroke="#bfbfbf" points="1314.5,-56.5 1314.5,-75.5 1374.5,-75.5 1374.5,-56.5 1314.5,-56.5"/>
<text text-anchor="middle" x="1344.5" y="-63.5" font-family="FreeSans.ttf" font-size="10.00" fill="#000000">iostream</text>
</g>
<!-- Node31&#45;&gt;Node32 -->
<g id="edge45" class="edge">
<title>Node31&#45;&gt;Node32</title>
<path fill="none" stroke="#191970" d="M1370.1002,-112.2455C1365.8773,-104.617 1359.8827,-93.7881 1354.7559,-84.5267"/>
<polygon fill="#191970" stroke="#191970" points="1357.7432,-82.6965 1349.8379,-75.6427 1351.619,-86.0867 1357.7432,-82.6965"/>
</g>
<!-- Node33&#45;&gt;Node5 -->
<g id="edge49" class="edge">
<title>Node33&#45;&gt;Node5</title>
<path fill="none" stroke="#191970" d="M1004.2905,-112.4369C923.1957,-100.3589 786.7818,-80.042 724.8398,-70.8166"/>
<polygon fill="#191970" stroke="#191970" points="725.2689,-67.342 714.8624,-69.3306 724.2377,-74.2656 725.2689,-67.342"/>
</g>
<!-- Node33&#45;&gt;Node16 -->
<g id="edge50" class="edge">
<title>Node33&#45;&gt;Node16</title>
<path fill="none" stroke="#191970" d="M1097.3802,-112.3733C1125.3161,-103.0613 1167.8142,-88.8953 1198.4869,-78.671"/>
<polygon fill="#191970" stroke="#191970" points="1199.6166,-81.9839 1207.9966,-75.5011 1197.403,-75.3431 1199.6166,-81.9839"/>
</g>
<!-- Node34&#45;&gt;Node5 -->
<g id="edge55" class="edge">
<title>Node34&#45;&gt;Node5</title>
<path fill="none" stroke="#191970" d="M829.1355,-112.3733C799.9961,-102.4835 754.7244,-87.1186 724.3669,-76.8154"/>
<polygon fill="#191970" stroke="#191970" points="725.2827,-73.4302 714.6884,-73.5306 723.033,-80.0589 725.2827,-73.4302"/>
</g>
<!-- Node34&#45;&gt;Node16 -->
<g id="edge56" class="edge">
<title>Node34&#45;&gt;Node16</title>
<path fill="none" stroke="#191970" d="M922.2218,-112.4369C990.2312,-102.388 1096.8397,-86.6358 1166.6994,-76.3135"/>
<polygon fill="#191970" stroke="#191970" points="1167.35,-79.7555 1176.731,-74.8313 1166.3267,-72.8307 1167.35,-79.7555"/>
</g>
<!-- Node36&#45;&gt;Node5 -->
<g id="edge62" class="edge">
<title>Node36&#45;&gt;Node5</title>
<path fill="none" stroke="#191970" d="M384.3974,-168.1547C398.2762,-153.4554 426.6038,-126.0054 456.5,-112 524.3589,-80.2103 613.0965,-70.3851 660.0625,-67.3518"/>
<polygon fill="#191970" stroke="#191970" points="660.4678,-70.8342 670.2477,-66.7594 660.0613,-63.846 660.4678,-70.8342"/>
</g>
<!-- Node37&#45;&gt;Node5 -->
<g id="edge66" class="edge">
<title>Node37&#45;&gt;Node5</title>
<path fill="none" stroke="#191970" d="M500.1513,-392.3436C463.1682,-366.1931 369.7857,-291.4286 403.5,-224 415.4257,-200.1486 430.7301,-204.7248 451.5,-188 491.7506,-155.5885 494.2031,-136.8758 539.5,-112 578.2712,-90.7079 628.1105,-78.0927 660.183,-71.6065"/>
<polygon fill="#191970" stroke="#191970" points="661.1858,-74.9774 670.3369,-69.6382 659.8536,-68.1053 661.1858,-74.9774"/>
</g>
<!-- Node37&#45;&gt;Node7 -->
<g id="edge67" class="edge">
<title>Node37&#45;&gt;Node7</title>
<path fill="none" stroke="#191970" d="M510.0665,-392.4509C501.4703,-373.936 482.3989,-332.8591 471.1908,-308.7187"/>
<polygon fill="#191970" stroke="#191970" points="474.308,-307.1211 466.9223,-299.5249 467.9589,-310.0689 474.308,-307.1211"/>
</g>
<!-- Node37&#45;&gt;Node10 -->
<g id="edge65" class="edge">
<title>Node37&#45;&gt;Node10</title>
<path fill="none" stroke="#191970" d="M531.7445,-392.2455C547.0761,-383.5731 569.7199,-370.7645 587.2916,-360.825"/>
<polygon fill="#191970" stroke="#191970" points="589.4724,-363.6126 596.4531,-355.6427 586.0259,-357.5198 589.4724,-363.6126"/>
</g>
<!-- Node37&#45;&gt;Node12 -->
<g id="edge68" class="edge">
<title>Node37&#45;&gt;Node12</title>
<path fill="none" stroke="#191970" d="M581.1003,-392.4369C649.6686,-382.5912 756.3664,-367.2705 828.2674,-356.9462"/>
<polygon fill="#191970" stroke="#191970" points="828.7735,-360.4095 838.1744,-355.5237 827.7785,-353.4806 828.7735,-360.4095"/>
</g>
<!-- Node38 -->
<g id="node39" class="node">
<title>Node38</title>
<g id="a_node39"><a xlink:href="Indices_8h.html" target="_top" xlink:title="iDynTree/Model/Indices.h">
<polygon fill="none" stroke="#000000" points="412.5,-224.5 412.5,-243.5 550.5,-243.5 550.5,-224.5 412.5,-224.5"/>
<text text-anchor="middle" x="481.5" y="-231.5" font-family="FreeSans.ttf" font-size="10.00" fill="#000000">iDynTree/Model/Indices.h</text>
</a>
</g>
</g>
<!-- Node37&#45;&gt;Node38 -->
<g id="edge69" class="edge">
<title>Node37&#45;&gt;Node38</title>
<path fill="none" stroke="#191970" d="M513.4741,-392.4218C511.1561,-371.7285 504.968,-321.3735 495.5,-280 493.4801,-271.1734 490.6585,-261.5684 488.0772,-253.4291"/>
<polygon fill="#191970" stroke="#191970" points="491.3497,-252.1756 484.91,-243.7625 484.6976,-254.3552 491.3497,-252.1756"/>
</g>
<!-- Node38&#45;&gt;Node5 -->
<g id="edge70" class="edge">
<title>Node38&#45;&gt;Node5</title>
<path fill="none" stroke="#191970" d="M485.5609,-224.2357C495.5656,-201.3307 523.5946,-143.6944 564.5,-112 592.8034,-90.0699 632.4835,-77.9805 660.134,-71.768"/>
<polygon fill="#191970" stroke="#191970" points="661.0317,-75.1558 670.0936,-69.6665 659.5864,-68.3066 661.0317,-75.1558"/>
</g>
</g>
</svg>
