<?xml version="1.0" encoding="UTF-8" standalone="no"?>
<!DOCTYPE svg PUBLIC "-//W3C//DTD SVG 1.1//EN"
 "http://www.w3.org/Graphics/SVG/1.1/DTD/svg11.dtd">
<!-- Generated by graphviz version 2.40.1 (20161225.0304)
 -->
<!-- Title: GravityCompensationHelpers.h Pages: 1 -->
<svg width="2324pt" height="755pt"
 viewBox="0.00 0.00 2324.00 755.00" xmlns="http://www.w3.org/2000/svg" xmlns:xlink="http://www.w3.org/1999/xlink">
<g id="graph0" class="graph" transform="scale(1 1) rotate(0) translate(4 751)">
<title>GravityCompensationHelpers.h</title>
<!-- Node0 -->
<g id="node1" class="node">
<title>Node0</title>
<polygon fill="#bfbfbf" stroke="#000000" points="1249.5,-727.5 1249.5,-746.5 1419.5,-746.5 1419.5,-727.5 1249.5,-727.5"/>
<text text-anchor="middle" x="1334.5" y="-734.5" font-family="FreeSans.ttf" font-size="10.00" fill="#000000">GravityCompensationHelpers.h</text>
</g>
<!-- Node1 -->
<g id="node2" class="node">
<title>Node1</title>
<g id="a_node2"><a xlink:href="FreeFloatingState_8h.html" target="_top" xlink:title="iDynTree/Model/FreeFloating\lState.h">
<polygon fill="none" stroke="#000000" points="1122.5,-604.5 1122.5,-634.5 1276.5,-634.5 1276.5,-604.5 1122.5,-604.5"/>
<text text-anchor="start" x="1130.5" y="-622.5" font-family="FreeSans.ttf" font-size="10.00" fill="#000000">iDynTree/Model/FreeFloating</text>
<text text-anchor="middle" x="1199.5" y="-611.5" font-family="FreeSans.ttf" font-size="10.00" fill="#000000">State.h</text>
</a>
</g>
</g>
<!-- Node0&#45;&gt;Node1 -->
<g id="edge1" class="edge">
<title>Node0&#45;&gt;Node1</title>
<path fill="none" stroke="#191970" d="M1323.4524,-727.3845C1302.0397,-708.7476 1254.3979,-667.2815 1224.81,-641.5291"/>
<polygon fill="#191970" stroke="#191970" points="1226.8212,-638.6395 1216.9803,-634.7143 1222.2255,-643.9197 1226.8212,-638.6395"/>
</g>
<!-- Node6 -->
<g id="node7" class="node">
<title>Node6</title>
<g id="a_node7"><a xlink:href="Utils_8h.html" target="_top" xlink:title="iDynTree/Core/Utils.h">
<polygon fill="none" stroke="#000000" points="1785,-56.5 1785,-75.5 1904,-75.5 1904,-56.5 1785,-56.5"/>
<text text-anchor="middle" x="1844.5" y="-63.5" font-family="FreeSans.ttf" font-size="10.00" fill="#000000">iDynTree/Core/Utils.h</text>
</a>
</g>
</g>
<!-- Node0&#45;&gt;Node6 -->
<g id="edge123" class="edge">
<title>Node0&#45;&gt;Node6</title>
<path fill="none" stroke="#191970" d="M1419.7441,-736.2875C1586.9644,-734.1361 1952.1872,-725.51 2072.5,-691 2136.6342,-672.604 2204.5,-686.2203 2204.5,-619.5 2204.5,-619.5 2204.5,-619.5 2204.5,-245 2204.5,-154.8994 2131.9478,-152.5742 2051.5,-112 2008.6835,-90.4053 1955.846,-78.8769 1914.2709,-72.7618"/>
<polygon fill="#191970" stroke="#191970" points="1914.6171,-69.2762 1904.2286,-71.3569 1913.6472,-76.2087 1914.6171,-69.2762"/>
</g>
<!-- Node49 -->
<g id="node37" class="node">
<title>Node49</title>
<g id="a_node37"><a xlink:href="Model_8h.html" target="_top" xlink:title="iDynTree/Model/Model.h">
<polygon fill="none" stroke="#000000" points="307,-671.5 307,-690.5 440,-690.5 440,-671.5 307,-671.5"/>
<text text-anchor="middle" x="373.5" y="-678.5" font-family="FreeSans.ttf" font-size="10.00" fill="#000000">iDynTree/Model/Model.h</text>
</a>
</g>
</g>
<!-- Node0&#45;&gt;Node49 -->
<g id="edge84" class="edge">
<title>Node0&#45;&gt;Node49</title>
<path fill="none" stroke="#191970" d="M1249.2177,-732.0304C1064.0156,-721.2382 627.4775,-695.7999 450.2705,-685.4736"/>
<polygon fill="#191970" stroke="#191970" points="450.434,-681.9773 440.2473,-684.8895 450.0267,-688.9654 450.434,-681.9773"/>
</g>
<!-- Node58 -->
<g id="node43" class="node">
<title>Node58</title>
<g id="a_node43"><a xlink:href="Traversal_8h.html" target="_top" xlink:title="iDynTree/Model/Traversal.h">
<polygon fill="none" stroke="#000000" points="591.5,-548.5 591.5,-567.5 739.5,-567.5 739.5,-548.5 591.5,-548.5"/>
<text text-anchor="middle" x="665.5" y="-555.5" font-family="FreeSans.ttf" font-size="10.00" fill="#000000">iDynTree/Model/Traversal.h</text>
</a>
</g>
</g>
<!-- Node0&#45;&gt;Node58 -->
<g id="edge104" class="edge">
<title>Node0&#45;&gt;Node58</title>
<path fill="none" stroke="#191970" d="M1314.6436,-727.4157C1256.8191,-699.6498 1088.9535,-620.1075 1030.5,-604 1017.1109,-600.3105 853.38,-580.3947 749.8104,-568.0085"/>
<polygon fill="#191970" stroke="#191970" points="750.0165,-564.5083 739.6718,-566.7971 749.1859,-571.4589 750.0165,-564.5083"/>
</g>
<!-- Node59 -->
<g id="node44" class="node">
<title>Node59</title>
<g id="a_node44"><a xlink:href="Dynamics_8h.html" target="_top" xlink:title="iDynTree/Model/Dynamics.h">
<polygon fill="none" stroke="#000000" points="869.5,-610 869.5,-629 1021.5,-629 1021.5,-610 869.5,-610"/>
<text text-anchor="middle" x="945.5" y="-617" font-family="FreeSans.ttf" font-size="10.00" fill="#000000">iDynTree/Model/Dynamics.h</text>
</a>
</g>
</g>
<!-- Node0&#45;&gt;Node59 -->
<g id="edge107" class="edge">
<title>Node0&#45;&gt;Node59</title>
<path fill="none" stroke="#191970" d="M1249.4896,-731.6218C1193.7144,-725.9855 1119.9948,-714.4737 1058.5,-691 1023.0436,-677.4656 986.791,-652.0602 965.2177,-635.4641"/>
<polygon fill="#191970" stroke="#191970" points="967.2063,-632.5757 957.1772,-629.1601 962.8873,-638.0845 967.2063,-632.5757"/>
</g>
<!-- Node61 -->
<g id="node46" class="node">
<title>Node61</title>
<g id="a_node46"><a xlink:href="EigenHelpers_8h.html" target="_top" xlink:title="iDynTree/Core/EigenHelpers.h">
<polygon fill="none" stroke="#000000" points="1466,-492.5 1466,-511.5 1627,-511.5 1627,-492.5 1466,-492.5"/>
<text text-anchor="middle" x="1546.5" y="-499.5" font-family="FreeSans.ttf" font-size="10.00" fill="#000000">iDynTree/Core/EigenHelpers.h</text>
</a>
</g>
</g>
<!-- Node0&#45;&gt;Node61 -->
<g id="edge113" class="edge">
<title>Node0&#45;&gt;Node61</title>
<path fill="none" stroke="#191970" d="M1360.0558,-727.4738C1397.0296,-712.6112 1465.7896,-680.7836 1509.5,-635 1532.6994,-610.7002 1535.9981,-600.5024 1544.5,-568 1548.449,-552.9031 1548.7638,-535.2002 1548.1928,-521.9313"/>
<polygon fill="#191970" stroke="#191970" points="1551.6626,-521.3455 1547.532,-511.5891 1544.6768,-521.792 1551.6626,-521.3455"/>
</g>
<!-- Node63 -->
<g id="node48" class="node">
<title>Node63</title>
<g id="a_node48"><a xlink:href="ClassicalAcc_8h.html" target="_top" xlink:title="iDynTree/Core/ClassicalAcc.h">
<polygon fill="none" stroke="#000000" points="1905.5,-671.5 1905.5,-690.5 2063.5,-690.5 2063.5,-671.5 1905.5,-671.5"/>
<text text-anchor="middle" x="1984.5" y="-678.5" font-family="FreeSans.ttf" font-size="10.00" fill="#000000">iDynTree/Core/ClassicalAcc.h</text>
</a>
</g>
</g>
<!-- Node0&#45;&gt;Node63 -->
<g id="edge124" class="edge">
<title>Node0&#45;&gt;Node63</title>
<path fill="none" stroke="#191970" d="M1419.8101,-729.6502C1543.01,-719.0361 1769.6792,-699.5076 1895.1154,-688.7008"/>
<polygon fill="#191970" stroke="#191970" points="1895.7871,-692.156 1905.4498,-687.8105 1895.1862,-685.1818 1895.7871,-692.156"/>
</g>
<!-- Node64 -->
<g id="node49" class="node">
<title>Node64</title>
<g id="a_node49"><a xlink:href="ExternalWrenchesEstimation_8h.html" target="_top" xlink:title="iDynTree/Estimation\l/ExternalWrenchesEstimation.h">
<polygon fill="none" stroke="#000000" points="1332,-604.5 1332,-634.5 1501,-634.5 1501,-604.5 1332,-604.5"/>
<text text-anchor="start" x="1340" y="-622.5" font-family="FreeSans.ttf" font-size="10.00" fill="#000000">iDynTree/Estimation</text>
<text text-anchor="middle" x="1416.5" y="-611.5" font-family="FreeSans.ttf" font-size="10.00" fill="#000000">/ExternalWrenchesEstimation.h</text>
</a>
</g>
</g>
<!-- Node0&#45;&gt;Node64 -->
<g id="edge126" class="edge">
<title>Node0&#45;&gt;Node64</title>
<path fill="none" stroke="#191970" d="M1341.2104,-727.3845C1353.9387,-709.1458 1381.9252,-669.0432 1399.9597,-643.201"/>
<polygon fill="#191970" stroke="#191970" points="1403.0296,-644.9179 1405.8824,-634.7143 1397.2892,-640.9118 1403.0296,-644.9179"/>
</g>
<!-- Node2 -->
<g id="node3" class="node">
<title>Node2</title>
<g id="a_node3"><a xlink:href="Transform_8h.html" target="_top" xlink:title="iDynTree/Core/Transform.h">
<polygon fill="none" stroke="#000000" points="572.5,-364 572.5,-383 718.5,-383 718.5,-364 572.5,-364"/>
<text text-anchor="middle" x="645.5" y="-371" font-family="FreeSans.ttf" font-size="10.00" fill="#000000">iDynTree/Core/Transform.h</text>
</a>
</g>
</g>
<!-- Node1&#45;&gt;Node2 -->
<g id="edge2" class="edge">
<title>Node1&#45;&gt;Node2</title>
<path fill="none" stroke="#191970" d="M1122.0988,-608.8489C1025.9974,-595.456 873.2024,-573.5398 861.5,-568 770.3331,-524.8421 689.8495,-430.5046 658.945,-391.2194"/>
<polygon fill="#191970" stroke="#191970" points="661.6948,-389.0538 652.8007,-383.2966 656.1633,-393.3437 661.6948,-389.0538"/>
</g>
<!-- Node27 -->
<g id="node20" class="node">
<title>Node27</title>
<g id="a_node20"><a xlink:href="Twist_8h.html" target="_top" xlink:title="iDynTree/Core/Twist.h">
<polygon fill="none" stroke="#000000" points="1168.5,-492.5 1168.5,-511.5 1290.5,-511.5 1290.5,-492.5 1168.5,-492.5"/>
<text text-anchor="middle" x="1229.5" y="-499.5" font-family="FreeSans.ttf" font-size="10.00" fill="#000000">iDynTree/Core/Twist.h</text>
</a>
</g>
</g>
<!-- Node1&#45;&gt;Node27 -->
<g id="edge37" class="edge">
<title>Node1&#45;&gt;Node27</title>
<path fill="none" stroke="#191970" d="M1203.422,-604.1389C1208.8516,-582.873 1218.6565,-544.4702 1224.5735,-521.2956"/>
<polygon fill="#191970" stroke="#191970" points="1227.9766,-522.1145 1227.0593,-511.5595 1221.1942,-520.3828 1227.9766,-522.1145"/>
</g>
<!-- Node37 -->
<g id="node26" class="node">
<title>Node37</title>
<g id="a_node26"><a xlink:href="VectorDynSize_8h.html" target="_top" xlink:title="iDynTree/Core/VectorDynSize.h">
<polygon fill="none" stroke="#000000" points="1752,-431 1752,-450 1919,-450 1919,-431 1752,-431"/>
<text text-anchor="middle" x="1835.5" y="-438" font-family="FreeSans.ttf" font-size="10.00" fill="#000000">iDynTree/Core/VectorDynSize.h</text>
</a>
</g>
</g>
<!-- Node1&#45;&gt;Node37 -->
<g id="edge53" class="edge">
<title>Node1&#45;&gt;Node37</title>
<path fill="none" stroke="#191970" d="M1276.5359,-609.2156C1362.1458,-597.5711 1494.8709,-578.817 1544.5,-568 1632.184,-548.8886 1658.0109,-551.6891 1738.5,-512 1768.4398,-497.2367 1798.7409,-473.0999 1817.3215,-457.0099"/>
<polygon fill="#191970" stroke="#191970" points="1819.8058,-459.4856 1824.9904,-450.246 1815.1755,-454.2358 1819.8058,-459.4856"/>
</g>
<!-- Node38 -->
<g id="node27" class="node">
<title>Node38</title>
<g id="a_node27"><a xlink:href="Indices_8h.html" target="_top" xlink:title="iDynTree/Model/Indices.h">
<polygon fill="none" stroke="#000000" points="398.5,-492.5 398.5,-511.5 536.5,-511.5 536.5,-492.5 398.5,-492.5"/>
<text text-anchor="middle" x="467.5" y="-499.5" font-family="FreeSans.ttf" font-size="10.00" fill="#000000">iDynTree/Model/Indices.h</text>
</a>
</g>
</g>
<!-- Node1&#45;&gt;Node38 -->
<g id="edge56" class="edge">
<title>Node1&#45;&gt;Node38</title>
<path fill="none" stroke="#191970" d="M1122.1289,-612.0401C1093.3696,-609.363 1060.4557,-606.4123 1030.5,-604 972.8813,-599.36 561.4906,-597.0239 511.5,-568 493.6953,-557.6628 481.6803,-536.8907 474.7648,-521.3966"/>
<polygon fill="#191970" stroke="#191970" points="477.8213,-519.6259 470.7835,-511.7063 471.3465,-522.2862 477.8213,-519.6259"/>
</g>
<!-- Node39 -->
<g id="node28" class="node">
<title>Node39</title>
<g id="a_node28"><a xlink:href="LinkState_8h.html" target="_top" xlink:title="iDynTree/Model/LinkState.h">
<polygon fill="none" stroke="#000000" points="871,-548.5 871,-567.5 1020,-567.5 1020,-548.5 871,-548.5"/>
<text text-anchor="middle" x="945.5" y="-555.5" font-family="FreeSans.ttf" font-size="10.00" fill="#000000">iDynTree/Model/LinkState.h</text>
</a>
</g>
</g>
<!-- Node1&#45;&gt;Node39 -->
<g id="edge58" class="edge">
<title>Node1&#45;&gt;Node39</title>
<path fill="none" stroke="#191970" d="M1137.3646,-604.4554C1093.497,-593.8339 1035.5155,-579.7951 994.8167,-569.9408"/>
<polygon fill="#191970" stroke="#191970" points="995.4038,-566.4819 984.861,-567.5303 993.7565,-573.2854 995.4038,-566.4819"/>
</g>
<!-- Node47 -->
<g id="node35" class="node">
<title>Node47</title>
<polygon fill="none" stroke="#bfbfbf" points="1347,-492.5 1347,-511.5 1394,-511.5 1394,-492.5 1347,-492.5"/>
<text text-anchor="middle" x="1370.5" y="-499.5" font-family="FreeSans.ttf" font-size="10.00" fill="#000000">vector</text>
</g>
<!-- Node1&#45;&gt;Node47 -->
<g id="edge83" class="edge">
<title>Node1&#45;&gt;Node47</title>
<path fill="none" stroke="#191970" d="M1217.0533,-604.4662C1234.9714,-589.4218 1263.8577,-565.9894 1290.5,-548 1307.4333,-536.5662 1327.3491,-525.1084 1343.0735,-516.4881"/>
<polygon fill="#191970" stroke="#191970" points="1345.1324,-519.3534 1352.2583,-511.513 1341.7984,-513.1983 1345.1324,-519.3534"/>
</g>
<!-- Node48 -->
<g id="node36" class="node">
<title>Node48</title>
<g id="a_node36"><a xlink:href="JointState_8h.html" target="_top" xlink:title="iDynTree/Model/JointState.h">
<polygon fill="none" stroke="#000000" points="1385,-548.5 1385,-567.5 1536,-567.5 1536,-548.5 1385,-548.5"/>
<text text-anchor="middle" x="1460.5" y="-555.5" font-family="FreeSans.ttf" font-size="10.00" fill="#000000">iDynTree/Model/JointState.h</text>
</a>
</g>
</g>
<!-- Node1&#45;&gt;Node48 -->
<g id="edge78" class="edge">
<title>Node1&#45;&gt;Node48</title>
<path fill="none" stroke="#191970" d="M1263.3478,-604.4554C1308.5198,-593.8114 1368.2563,-579.7356 1410.0898,-569.8783"/>
<polygon fill="#191970" stroke="#191970" points="1411.1236,-573.2306 1420.0543,-567.5303 1409.5181,-566.4172 1411.1236,-573.2306"/>
</g>
<!-- Node3 -->
<g id="node4" class="node">
<title>Node3</title>
<g id="a_node4"><a xlink:href="Position_8h.html" target="_top" xlink:title="iDynTree/Core/Position.h">
<polygon fill="none" stroke="#000000" points="549.5,-297 549.5,-316 685.5,-316 685.5,-297 549.5,-297"/>
<text text-anchor="middle" x="617.5" y="-304" font-family="FreeSans.ttf" font-size="10.00" fill="#000000">iDynTree/Core/Position.h</text>
</a>
</g>
</g>
<!-- Node2&#45;&gt;Node3 -->
<g id="edge3" class="edge">
<title>Node2&#45;&gt;Node3</title>
<path fill="none" stroke="#191970" d="M641.4883,-363.9005C637.3298,-353.95 630.7182,-338.1292 625.4883,-325.6147"/>
<polygon fill="#191970" stroke="#191970" points="628.5896,-323.9588 621.5043,-316.0817 622.1309,-326.658 628.5896,-323.9588"/>
</g>
<!-- Node17 -->
<g id="node11" class="node">
<title>Node17</title>
<polygon fill="none" stroke="#bfbfbf" points="618.5,-56.5 618.5,-75.5 662.5,-75.5 662.5,-56.5 618.5,-56.5"/>
<text text-anchor="middle" x="640.5" y="-63.5" font-family="FreeSans.ttf" font-size="10.00" fill="#000000">string</text>
</g>
<!-- Node2&#45;&gt;Node17 -->
<g id="edge36" class="edge">
<title>Node2&#45;&gt;Node17</title>
<path fill="none" stroke="#191970" d="M572.0173,-367.5137C445.6248,-355.1733 200.5,-321.3928 200.5,-245 200.5,-245 200.5,-245 200.5,-183.5 200.5,-99.1085 506.452,-73.7576 608.1053,-67.6638"/>
<polygon fill="#191970" stroke="#191970" points="608.5965,-71.1414 618.3788,-67.0724 608.1942,-64.1529 608.5965,-71.1414"/>
</g>
<!-- Node21 -->
<g id="node15" class="node">
<title>Node21</title>
<g id="a_node15"><a xlink:href="Rotation_8h.html" target="_top" xlink:title="iDynTree/Core/Rotation.h">
<polygon fill="none" stroke="#ff0000" points="714,-235.5 714,-254.5 851,-254.5 851,-235.5 714,-235.5"/>
<text text-anchor="middle" x="782.5" y="-242.5" font-family="FreeSans.ttf" font-size="10.00" fill="#000000">iDynTree/Core/Rotation.h</text>
</a>
</g>
</g>
<!-- Node2&#45;&gt;Node21 -->
<g id="edge31" class="edge">
<title>Node2&#45;&gt;Node21</title>
<path fill="none" stroke="#191970" d="M655.7973,-363.8416C679.0046,-342.0742 735.6268,-288.965 764.6727,-261.7212"/>
<polygon fill="#191970" stroke="#191970" points="767.1839,-264.1645 772.0832,-254.7705 762.3951,-259.0589 767.1839,-264.1645"/>
</g>
<!-- Node23 -->
<g id="node17" class="node">
<title>Node23</title>
<g id="a_node17"><a xlink:href="MatrixFixSize_8h.html" target="_top" xlink:title="iDynTree/Core/MatrixFixSize.h">
<polygon fill="none" stroke="#000000" points="1113,-112.5 1113,-131.5 1274,-131.5 1274,-112.5 1113,-112.5"/>
<text text-anchor="middle" x="1193.5" y="-119.5" font-family="FreeSans.ttf" font-size="10.00" fill="#000000">iDynTree/Core/MatrixFixSize.h</text>
</a>
</g>
</g>
<!-- Node2&#45;&gt;Node23 -->
<g id="edge35" class="edge">
<title>Node2&#45;&gt;Node23</title>
<path fill="none" stroke="#191970" d="M697.1424,-363.9719C732.3022,-356.0719 779.0685,-342.7258 816.5,-322 907.4307,-271.6516 899.921,-215.2492 992.5,-168 1026.4542,-150.6709 1066.9398,-139.7992 1102.6479,-133.0111"/>
<polygon fill="#191970" stroke="#191970" points="1103.3717,-136.437 1112.5833,-131.2028 1102.1182,-129.5501 1103.3717,-136.437"/>
</g>
<!-- Node26 -->
<g id="node19" class="node">
<title>Node26</title>
<g id="a_node19"><a xlink:href="TransformSemantics_8h.html" target="_top" xlink:title="iDynTree/Core/TransformSemantics.h">
<polygon fill="none" stroke="#000000" points="783,-112.5 783,-131.5 980,-131.5 980,-112.5 783,-112.5"/>
<text text-anchor="middle" x="881.5" y="-119.5" font-family="FreeSans.ttf" font-size="10.00" fill="#000000">iDynTree/Core/TransformSemantics.h</text>
</a>
</g>
</g>
<!-- Node2&#45;&gt;Node26 -->
<g id="edge32" class="edge">
<title>Node2&#45;&gt;Node26</title>
<path fill="none" stroke="#191970" d="M680.1683,-363.8968C727.9775,-348.8208 813.4493,-314.9481 859.5,-255 885.0631,-221.7224 885.6102,-169.8181 883.6431,-141.7023"/>
<polygon fill="#191970" stroke="#191970" points="887.1124,-141.1998 882.7457,-131.5467 880.1396,-141.816 887.1124,-141.1998"/>
</g>
<!-- Node4 -->
<g id="node5" class="node">
<title>Node4</title>
<g id="a_node5"><a xlink:href="PositionRaw_8h.html" target="_top" xlink:title="iDynTree/Core/PositionRaw.h">
<polygon fill="none" stroke="#000000" points="539.5,-235.5 539.5,-254.5 695.5,-254.5 695.5,-235.5 539.5,-235.5"/>
<text text-anchor="middle" x="617.5" y="-242.5" font-family="FreeSans.ttf" font-size="10.00" fill="#000000">iDynTree/Core/PositionRaw.h</text>
</a>
</g>
</g>
<!-- Node3&#45;&gt;Node4 -->
<g id="edge4" class="edge">
<title>Node3&#45;&gt;Node4</title>
<path fill="none" stroke="#191970" d="M617.5,-296.8906C617.5,-288.3657 617.5,-275.6392 617.5,-264.9235"/>
<polygon fill="#191970" stroke="#191970" points="621.0001,-264.7448 617.5,-254.7449 614.0001,-264.7449 621.0001,-264.7448"/>
</g>
<!-- Node3&#45;&gt;Node17 -->
<g id="edge30" class="edge">
<title>Node3&#45;&gt;Node17</title>
<path fill="none" stroke="#191970" d="M588.6883,-296.9058C534.5446,-277.2111 426.1065,-228.9049 461.5,-168 493.2107,-113.4324 566.2472,-85.6292 608.5757,-73.6191"/>
<polygon fill="#191970" stroke="#191970" points="609.6418,-76.9565 618.3793,-70.9642 607.812,-70.1999 609.6418,-76.9565"/>
</g>
<!-- Node20 -->
<g id="node14" class="node">
<title>Node20</title>
<g id="a_node14"><a xlink:href="PositionSemantics_8h.html" target="_top" xlink:title="iDynTree/Core/PositionSemantics.h">
<polygon fill="none" stroke="#000000" points="228,-174 228,-193 415,-193 415,-174 228,-174"/>
<text text-anchor="middle" x="321.5" y="-181" font-family="FreeSans.ttf" font-size="10.00" fill="#000000">iDynTree/Core/PositionSemantics.h</text>
</a>
</g>
</g>
<!-- Node3&#45;&gt;Node20 -->
<g id="edge16" class="edge">
<title>Node3&#45;&gt;Node20</title>
<path fill="none" stroke="#191970" d="M564.9949,-296.9568C526.1658,-288.7757 472.6001,-275.0948 428.5,-255 395.7672,-240.0848 361.8852,-215.6503 341.246,-199.5692"/>
<polygon fill="#191970" stroke="#191970" points="343.2661,-196.7044 333.2534,-193.2408 338.9208,-202.1925 343.2661,-196.7044"/>
</g>
<!-- Node3&#45;&gt;Node21 -->
<g id="edge18" class="edge">
<title>Node3&#45;&gt;Node21</title>
<path fill="none" stroke="#191970" d="M643.2813,-296.8906C671.252,-286.4652 716.0819,-269.7559 747.286,-258.1252"/>
<polygon fill="#191970" stroke="#191970" points="748.7519,-261.3141 756.8998,-254.5419 746.3071,-254.7549 748.7519,-261.3141"/>
</g>
<!-- Node5 -->
<g id="node6" class="node">
<title>Node5</title>
<g id="a_node6"><a xlink:href="VectorFixSize_8h.html" target="_top" xlink:title="iDynTree/Core/VectorFixSize.h">
<polygon fill="none" stroke="#000000" points="1622,-174 1622,-193 1783,-193 1783,-174 1622,-174"/>
<text text-anchor="middle" x="1702.5" y="-181" font-family="FreeSans.ttf" font-size="10.00" fill="#000000">iDynTree/Core/VectorFixSize.h</text>
</a>
</g>
</g>
<!-- Node4&#45;&gt;Node5 -->
<g id="edge5" class="edge">
<title>Node4&#45;&gt;Node5</title>
<path fill="none" stroke="#191970" d="M695.7316,-235.7728C698.6906,-235.4985 701.6213,-235.2395 704.5,-235 1038.2431,-207.2359 1436.0995,-192.061 1611.6338,-186.2755"/>
<polygon fill="#191970" stroke="#191970" points="1611.9768,-189.7662 1621.8569,-185.9409 1611.7478,-182.77 1611.9768,-189.7662"/>
</g>
<!-- Node4&#45;&gt;Node17 -->
<g id="edge15" class="edge">
<title>Node4&#45;&gt;Node17</title>
<path fill="none" stroke="#191970" d="M618.7366,-235.3762C622.3557,-207.2097 632.9816,-124.5126 637.921,-86.0713"/>
<polygon fill="#191970" stroke="#191970" points="641.4542,-86.0359 639.2573,-75.6714 634.5113,-85.1438 641.4542,-86.0359"/>
</g>
<!-- Node5&#45;&gt;Node6 -->
<g id="edge6" class="edge">
<title>Node5&#45;&gt;Node6</title>
<path fill="none" stroke="#191970" d="M1714.1205,-173.8845C1738.4597,-153.7446 1795.0175,-106.945 1825.0122,-82.1255"/>
<polygon fill="#191970" stroke="#191970" points="1827.2459,-84.8201 1832.719,-75.7484 1822.7832,-79.427 1827.2459,-84.8201"/>
</g>
<!-- Node8 -->
<g id="node9" class="node">
<title>Node8</title>
<g id="a_node9"><a xlink:href="Span_8h.html" target="_top" xlink:title="iDynTree/Core/Span.h">
<polygon fill="none" stroke="#ff0000" points="2195,-112.5 2195,-131.5 2316,-131.5 2316,-112.5 2195,-112.5"/>
<text text-anchor="middle" x="2255.5" y="-119.5" font-family="FreeSans.ttf" font-size="10.00" fill="#000000">iDynTree/Core/Span.h</text>
</a>
</g>
</g>
<!-- Node5&#45;&gt;Node8 -->
<g id="edge8" class="edge">
<title>Node5&#45;&gt;Node8</title>
<path fill="none" stroke="#191970" d="M1783.2069,-174.5245C1891.4214,-162.4898 2081.812,-141.3161 2184.7131,-129.8723"/>
<polygon fill="#191970" stroke="#191970" points="2185.1437,-133.3461 2194.6955,-128.7622 2184.3699,-126.389 2185.1437,-133.3461"/>
</g>
<!-- Node9 -->
<g id="node10" class="node">
<title>Node9</title>
<polygon fill="none" stroke="#bfbfbf" points="2064.5,-56.5 2064.5,-75.5 2116.5,-75.5 2116.5,-56.5 2064.5,-56.5"/>
<text text-anchor="middle" x="2090.5" y="-63.5" font-family="FreeSans.ttf" font-size="10.00" fill="#000000">cassert</text>
</g>
<!-- Node5&#45;&gt;Node9 -->
<g id="edge13" class="edge">
<title>Node5&#45;&gt;Node9</title>
<path fill="none" stroke="#191970" d="M1733.923,-173.984C1805.171,-152.4076 1978.6561,-99.8703 2054.2699,-76.9718"/>
<polygon fill="#191970" stroke="#191970" points="2055.7126,-80.1919 2064.2689,-73.9437 2053.6837,-73.4924 2055.7126,-80.1919"/>
</g>
<!-- Node5&#45;&gt;Node17 -->
<g id="edge11" class="edge">
<title>Node5&#45;&gt;Node17</title>
<path fill="none" stroke="#191970" d="M1621.9485,-181.0073C1501.3637,-176.3588 1267.066,-163.7761 1070.5,-132 1033.468,-126.0135 1025.3704,-118.9124 988.5,-112 873.2279,-90.389 734.6059,-75.2745 672.8818,-69.1018"/>
<polygon fill="#191970" stroke="#191970" points="672.9129,-65.5879 662.6171,-68.0872 672.2243,-72.554 672.9129,-65.5879"/>
</g>
<!-- Node18 -->
<g id="node12" class="node">
<title>Node18</title>
<polygon fill="none" stroke="#bfbfbf" points="1274.5,-56.5 1274.5,-75.5 1330.5,-75.5 1330.5,-56.5 1274.5,-56.5"/>
<text text-anchor="middle" x="1302.5" y="-63.5" font-family="FreeSans.ttf" font-size="10.00" fill="#000000">sstream</text>
</g>
<!-- Node5&#45;&gt;Node18 -->
<g id="edge12" class="edge">
<title>Node5&#45;&gt;Node18</title>
<path fill="none" stroke="#191970" d="M1667.4981,-173.968C1630.429,-163.8112 1570.2344,-147.1416 1518.5,-132 1455.9627,-113.6966 1383.5989,-91.3453 1340.5175,-77.9139"/>
<polygon fill="#191970" stroke="#191970" points="1341.3296,-74.5009 1330.7409,-74.8622 1339.2438,-81.1829 1341.3296,-74.5009"/>
</g>
<!-- Node19 -->
<g id="node13" class="node">
<title>Node19</title>
<polygon fill="none" stroke="#bfbfbf" points="1370.5,-56.5 1370.5,-75.5 1420.5,-75.5 1420.5,-56.5 1370.5,-56.5"/>
<text text-anchor="middle" x="1395.5" y="-63.5" font-family="FreeSans.ttf" font-size="10.00" fill="#000000">cstring</text>
</g>
<!-- Node5&#45;&gt;Node19 -->
<g id="edge14" class="edge">
<title>Node5&#45;&gt;Node19</title>
<path fill="none" stroke="#191970" d="M1677.6369,-173.984C1623.0315,-153.0845 1492.5282,-103.1362 1430.0212,-79.2125"/>
<polygon fill="#191970" stroke="#191970" points="1431.1855,-75.9106 1420.5951,-75.6048 1428.6833,-82.4481 1431.1855,-75.9106"/>
</g>
<!-- Node7 -->
<g id="node8" class="node">
<title>Node7</title>
<polygon fill="none" stroke="#bfbfbf" points="2003,-.5 2003,-19.5 2056,-19.5 2056,-.5 2003,-.5"/>
<text text-anchor="middle" x="2029.5" y="-7.5" font-family="FreeSans.ttf" font-size="10.00" fill="#000000">cstddef</text>
</g>
<!-- Node6&#45;&gt;Node7 -->
<g id="edge7" class="edge">
<title>Node6&#45;&gt;Node7</title>
<path fill="none" stroke="#191970" d="M1876.3026,-56.3733C1908.6965,-46.5676 1958.8718,-31.3793 1992.8991,-21.0792"/>
<polygon fill="#191970" stroke="#191970" points="1994.3462,-24.2981 2002.9033,-18.0509 1992.3181,-17.5983 1994.3462,-24.2981"/>
</g>
<!-- Node8&#45;&gt;Node7 -->
<g id="edge10" class="edge">
<title>Node8&#45;&gt;Node7</title>
<path fill="none" stroke="#191970" d="M2237.053,-112.4667C2211.9146,-99.5139 2165.4509,-75.7097 2125.5,-56 2103.2397,-45.0179 2077.9128,-32.8977 2058.8642,-23.8563"/>
<polygon fill="#191970" stroke="#191970" points="2060.3277,-20.6768 2049.7921,-19.5577 2057.3303,-27.0026 2060.3277,-20.6768"/>
</g>
<!-- Node8&#45;&gt;Node9 -->
<g id="edge9" class="edge">
<title>Node8&#45;&gt;Node9</title>
<path fill="none" stroke="#191970" d="M2227.1355,-112.3733C2199.2378,-102.9049 2156.5535,-88.4182 2126.3267,-78.1594"/>
<polygon fill="#191970" stroke="#191970" points="2127.1872,-74.7554 2116.5928,-74.8557 2124.9374,-81.384 2127.1872,-74.7554"/>
</g>
<!-- Node20&#45;&gt;Node17 -->
<g id="edge17" class="edge">
<title>Node20&#45;&gt;Node17</title>
<path fill="none" stroke="#191970" d="M332.846,-173.7777C351.5164,-158.2967 390.452,-128.1481 428.5,-112 489.0648,-86.2954 565.6933,-74.2516 608.2582,-69.1942"/>
<polygon fill="#191970" stroke="#191970" points="608.7729,-72.6584 618.3154,-68.0549 607.9849,-65.7029 608.7729,-72.6584"/>
</g>
<!-- Node21&#45;&gt;Node5 -->
<g id="edge29" class="edge">
<title>Node21&#45;&gt;Node5</title>
<path fill="none" stroke="#191970" d="M851.2733,-240.4027C1014.9382,-229.462 1427.5994,-201.8765 1611.5574,-189.5793"/>
<polygon fill="#191970" stroke="#191970" points="1611.9981,-193.0578 1621.7424,-188.8985 1611.5312,-186.0733 1611.9981,-193.0578"/>
</g>
<!-- Node21&#45;&gt;Node17 -->
<g id="edge19" class="edge">
<title>Node21&#45;&gt;Node17</title>
<path fill="none" stroke="#191970" d="M754.521,-235.4279C736.251,-227.9587 712.9973,-215.9784 697.5,-199 666.9997,-165.5846 651.2035,-113.3624 644.5176,-85.3315"/>
<polygon fill="#191970" stroke="#191970" points="647.927,-84.5399 642.3235,-75.5482 641.0967,-86.0717 647.927,-84.5399"/>
</g>
<!-- Node22 -->
<g id="node16" class="node">
<title>Node22</title>
<g id="a_node16"><a xlink:href="RotationRaw_8h.html" target="_top" xlink:title="iDynTree/Core/RotationRaw.h">
<polygon fill="none" stroke="#000000" points="706.5,-174 706.5,-193 864.5,-193 864.5,-174 706.5,-174"/>
<text text-anchor="middle" x="785.5" y="-181" font-family="FreeSans.ttf" font-size="10.00" fill="#000000">iDynTree/Core/RotationRaw.h</text>
</a>
</g>
</g>
<!-- Node21&#45;&gt;Node22 -->
<g id="edge20" class="edge">
<title>Node21&#45;&gt;Node22</title>
<path fill="none" stroke="#191970" d="M782.9688,-235.3906C783.3846,-226.8657 784.0054,-214.1392 784.5281,-203.4235"/>
<polygon fill="#191970" stroke="#191970" points="788.0332,-203.4035 785.0246,-193.2449 781.0415,-203.0624 788.0332,-203.4035"/>
</g>
<!-- Node22&#45;&gt;Node17 -->
<g id="edge28" class="edge">
<title>Node22&#45;&gt;Node17</title>
<path fill="none" stroke="#191970" d="M773.634,-173.8845C748.7805,-153.7446 691.0279,-106.945 660.3995,-82.1255"/>
<polygon fill="#191970" stroke="#191970" points="662.5028,-79.325 652.5299,-75.7484 658.0957,-84.7635 662.5028,-79.325"/>
</g>
<!-- Node22&#45;&gt;Node23 -->
<g id="edge21" class="edge">
<title>Node22&#45;&gt;Node23</title>
<path fill="none" stroke="#191970" d="M848.8023,-173.9581C922.1692,-162.8991 1042.874,-144.7047 1120.2351,-133.0436"/>
<polygon fill="#191970" stroke="#191970" points="1121.0183,-136.4652 1130.3849,-131.5137 1119.9748,-129.5434 1121.0183,-136.4652"/>
</g>
<!-- Node23&#45;&gt;Node6 -->
<g id="edge22" class="edge">
<title>Node23&#45;&gt;Node6</title>
<path fill="none" stroke="#191970" d="M1274.3056,-115.049C1403.1804,-103.963 1653.0891,-82.4655 1774.6768,-72.0063"/>
<polygon fill="#191970" stroke="#191970" points="1775.3117,-75.4647 1784.9749,-71.1204 1774.7117,-68.4905 1775.3117,-75.4647"/>
</g>
<!-- Node23&#45;&gt;Node9 -->
<g id="edge23" class="edge">
<title>Node23&#45;&gt;Node9</title>
<path fill="none" stroke="#191970" d="M1274.2881,-116.9564C1462.1279,-105.2295 1922.3078,-76.5003 2054.4683,-68.2495"/>
<polygon fill="#191970" stroke="#191970" points="2054.7094,-71.7413 2064.4718,-67.6249 2054.2732,-64.7549 2054.7094,-71.7413"/>
</g>
<!-- Node23&#45;&gt;Node17 -->
<g id="edge25" class="edge">
<title>Node23&#45;&gt;Node17</title>
<path fill="none" stroke="#191970" d="M1112.9094,-113.4899C1108.0339,-112.9834 1103.2017,-112.4836 1098.5,-112 939.0078,-95.5963 748.1979,-76.6504 673.1223,-69.2225"/>
<polygon fill="#191970" stroke="#191970" points="673.1988,-65.7131 662.9029,-68.2118 672.5098,-72.6791 673.1988,-65.7131"/>
</g>
<!-- Node23&#45;&gt;Node18 -->
<g id="edge27" class="edge">
<title>Node23&#45;&gt;Node18</title>
<path fill="none" stroke="#191970" d="M1212.4864,-112.2455C1229.6792,-103.4125 1255.2238,-90.2887 1274.7132,-80.2758"/>
<polygon fill="#191970" stroke="#191970" points="1276.4359,-83.3257 1283.7312,-75.6427 1273.237,-77.0993 1276.4359,-83.3257"/>
</g>
<!-- Node23&#45;&gt;Node19 -->
<g id="edge24" class="edge">
<title>Node23&#45;&gt;Node19</title>
<path fill="none" stroke="#191970" d="M1228.225,-112.3733C1265.2409,-102.1114 1323.5206,-85.9547 1360.6024,-75.6746"/>
<polygon fill="#191970" stroke="#191970" points="1361.7625,-78.9851 1370.464,-72.9407 1359.8924,-72.2395 1361.7625,-78.9851"/>
</g>
<!-- Node24 -->
<g id="node18" class="node">
<title>Node24</title>
<polygon fill="none" stroke="#bfbfbf" points="1089.5,-56.5 1089.5,-75.5 1149.5,-75.5 1149.5,-56.5 1089.5,-56.5"/>
<text text-anchor="middle" x="1119.5" y="-63.5" font-family="FreeSans.ttf" font-size="10.00" fill="#000000">iostream</text>
</g>
<!-- Node23&#45;&gt;Node24 -->
<g id="edge26" class="edge">
<title>Node23&#45;&gt;Node24</title>
<path fill="none" stroke="#191970" d="M1180.6102,-112.2455C1169.5746,-103.8943 1153.4708,-91.7076 1140.5647,-81.9408"/>
<polygon fill="#191970" stroke="#191970" points="1142.3283,-78.8862 1132.2421,-75.6427 1138.1041,-84.4681 1142.3283,-78.8862"/>
</g>
<!-- Node26&#45;&gt;Node6 -->
<g id="edge34" class="edge">
<title>Node26&#45;&gt;Node6</title>
<path fill="none" stroke="#191970" d="M980.0323,-116.2702C1175.1047,-104.9264 1606.179,-79.8588 1774.879,-70.0486"/>
<polygon fill="#191970" stroke="#191970" points="1775.1052,-73.5414 1784.8852,-69.4667 1774.6988,-66.5532 1775.1052,-73.5414"/>
</g>
<!-- Node26&#45;&gt;Node17 -->
<g id="edge33" class="edge">
<title>Node26&#45;&gt;Node17</title>
<path fill="none" stroke="#191970" d="M840.3445,-112.4369C792.9008,-101.4126 715.9168,-83.5242 672.6542,-73.4715"/>
<polygon fill="#191970" stroke="#191970" points="673.2088,-70.0072 662.6761,-71.1529 671.6244,-76.8255 673.2088,-70.0072"/>
</g>
<!-- Node28 -->
<g id="node21" class="node">
<title>Node28</title>
<g id="a_node21"><a xlink:href="SpatialMotionVector_8h.html" target="_top" xlink:title="iDynTree/Core/SpatialMotion\lVector.h">
<polygon fill="none" stroke="#000000" points="1155,-425.5 1155,-455.5 1310,-455.5 1310,-425.5 1155,-425.5"/>
<text text-anchor="start" x="1163" y="-443.5" font-family="FreeSans.ttf" font-size="10.00" fill="#000000">iDynTree/Core/SpatialMotion</text>
<text text-anchor="middle" x="1232.5" y="-432.5" font-family="FreeSans.ttf" font-size="10.00" fill="#000000">Vector.h</text>
</a>
</g>
</g>
<!-- Node27&#45;&gt;Node28 -->
<g id="edge38" class="edge">
<title>Node27&#45;&gt;Node28</title>
<path fill="none" stroke="#191970" d="M1229.9688,-492.3906C1230.3184,-485.2234 1230.8129,-475.0862 1231.2721,-465.671"/>
<polygon fill="#191970" stroke="#191970" points="1234.7746,-465.7033 1231.7661,-455.5446 1227.783,-465.3622 1234.7746,-465.7033"/>
</g>
<!-- Node28&#45;&gt;Node5 -->
<g id="edge39" class="edge">
<title>Node28&#45;&gt;Node5</title>
<path fill="none" stroke="#191970" d="M1310.0551,-428.0482C1316.6314,-427.0103 1323.1807,-425.9828 1329.5,-425 1435.2102,-408.5595 1477.4235,-446.7162 1567.5,-389 1638.9174,-343.2396 1680.801,-244.7103 1695.9719,-202.8978"/>
<polygon fill="#191970" stroke="#191970" points="1699.3172,-203.9349 1699.3284,-193.3401 1692.7126,-201.6155 1699.3172,-203.9349"/>
</g>
<!-- Node29 -->
<g id="node22" class="node">
<title>Node29</title>
<g id="a_node22"><a xlink:href="LinearMotionVector3_8h.html" target="_top" xlink:title="iDynTree/Core/LinearMotion\lVector3.h">
<polygon fill="none" stroke="#ff0000" points="1169,-358.5 1169,-388.5 1320,-388.5 1320,-358.5 1169,-358.5"/>
<text text-anchor="start" x="1177" y="-376.5" font-family="FreeSans.ttf" font-size="10.00" fill="#000000">iDynTree/Core/LinearMotion</text>
<text text-anchor="middle" x="1244.5" y="-365.5" font-family="FreeSans.ttf" font-size="10.00" fill="#000000">Vector3.h</text>
</a>
</g>
</g>
<!-- Node28&#45;&gt;Node29 -->
<g id="edge40" class="edge">
<title>Node28&#45;&gt;Node29</title>
<path fill="none" stroke="#191970" d="M1235.223,-425.2967C1236.6345,-417.4156 1238.3951,-407.5857 1240.0021,-398.6135"/>
<polygon fill="#191970" stroke="#191970" points="1243.4699,-399.1036 1241.7878,-388.6432 1236.5795,-397.8695 1243.4699,-399.1036"/>
</g>
<!-- Node32 -->
<g id="node23" class="node">
<title>Node32</title>
<g id="a_node23"><a xlink:href="PrivateMotionForceVertorAssociations_8h.html" target="_top" xlink:title="iDynTree/Core/PrivateMotion\lForceVertorAssociations.h">
<polygon fill="none" stroke="#000000" points="1407,-291.5 1407,-321.5 1562,-321.5 1562,-291.5 1407,-291.5"/>
<text text-anchor="start" x="1415" y="-309.5" font-family="FreeSans.ttf" font-size="10.00" fill="#000000">iDynTree/Core/PrivateMotion</text>
<text text-anchor="middle" x="1484.5" y="-298.5" font-family="FreeSans.ttf" font-size="10.00" fill="#000000">ForceVertorAssociations.h</text>
</a>
</g>
</g>
<!-- Node28&#45;&gt;Node32 -->
<g id="edge52" class="edge">
<title>Node28&#45;&gt;Node32</title>
<path fill="none" stroke="#191970" d="M1260.9177,-425.389C1306.6016,-401.0968 1396.383,-353.3559 1447.1752,-326.3473"/>
<polygon fill="#191970" stroke="#191970" points="1449,-329.3411 1456.1861,-321.5558 1445.7135,-323.1605 1449,-329.3411"/>
</g>
<!-- Node33 -->
<g id="node24" class="node">
<title>Node33</title>
<g id="a_node24"><a xlink:href="AngularMotionVector3_8h.html" target="_top" xlink:title="iDynTree/Core/AngularMotion\lVector3.h">
<polygon fill="none" stroke="#ff0000" points="992.5,-358.5 992.5,-388.5 1150.5,-388.5 1150.5,-358.5 992.5,-358.5"/>
<text text-anchor="start" x="1000.5" y="-376.5" font-family="FreeSans.ttf" font-size="10.00" fill="#000000">iDynTree/Core/AngularMotion</text>
<text text-anchor="middle" x="1071.5" y="-365.5" font-family="FreeSans.ttf" font-size="10.00" fill="#000000">Vector3.h</text>
</a>
</g>
</g>
<!-- Node28&#45;&gt;Node33 -->
<g id="edge42" class="edge">
<title>Node28&#45;&gt;Node33</title>
<path fill="none" stroke="#191970" d="M1196.3685,-425.4639C1172.939,-415.7137 1142.2172,-402.9289 1117.1099,-392.4805"/>
<polygon fill="#191970" stroke="#191970" points="1118.3664,-389.2125 1107.7891,-388.6017 1115.6769,-395.6752 1118.3664,-389.2125"/>
</g>
<!-- Node34 -->
<g id="node25" class="node">
<title>Node34</title>
<g id="a_node25"><a xlink:href="SpatialVector_8h.html" target="_top" xlink:title="iDynTree/Core/SpatialVector.h">
<polygon fill="none" stroke="#ff0000" points="813,-364 813,-383 974,-383 974,-364 813,-364"/>
<text text-anchor="middle" x="893.5" y="-371" font-family="FreeSans.ttf" font-size="10.00" fill="#000000">iDynTree/Core/SpatialVector.h</text>
</a>
</g>
</g>
<!-- Node28&#45;&gt;Node34 -->
<g id="edge45" class="edge">
<title>Node28&#45;&gt;Node34</title>
<path fill="none" stroke="#191970" d="M1156.4218,-425.4639C1094.3616,-413.1983 1008.0025,-396.1303 951.4469,-384.9526"/>
<polygon fill="#191970" stroke="#191970" points="952.0828,-381.5107 941.5939,-383.0053 950.7255,-388.3778 952.0828,-381.5107"/>
</g>
<!-- Node29&#45;&gt;Node32 -->
<g id="edge41" class="edge">
<title>Node29&#45;&gt;Node32</title>
<path fill="none" stroke="#191970" d="M1298.3607,-358.4639C1334.5175,-348.3701 1382.3244,-335.024 1420.435,-324.3848"/>
<polygon fill="#191970" stroke="#191970" points="1421.7138,-327.6617 1430.4044,-321.6017 1419.8316,-320.9195 1421.7138,-327.6617"/>
</g>
<!-- Node33&#45;&gt;Node6 -->
<g id="edge44" class="edge">
<title>Node33&#45;&gt;Node6</title>
<path fill="none" stroke="#191970" d="M1150.8144,-359.5005C1232.8618,-344.9541 1349.7469,-324.0226 1354.5,-322 1376.1786,-312.775 1377.6923,-303.756 1397.5,-291 1490.0556,-231.3948 1514.1968,-217.5559 1612.5,-168 1681.6797,-133.1256 1765.4501,-97.9705 1811.0119,-79.4195"/>
<polygon fill="#191970" stroke="#191970" points="1812.4517,-82.6125 1820.4032,-75.6107 1809.8209,-76.1256 1812.4517,-82.6125"/>
</g>
<!-- Node33&#45;&gt;Node32 -->
<g id="edge43" class="edge">
<title>Node33&#45;&gt;Node32</title>
<path fill="none" stroke="#191970" d="M1150.6406,-359.4794C1153.6309,-358.9754 1156.592,-358.4807 1159.5,-358 1262.8814,-340.9108 1289.0558,-338.7047 1392.5,-322 1393.8042,-321.7894 1395.1187,-321.5765 1396.4415,-321.3616"/>
<polygon fill="#191970" stroke="#191970" points="1397.4084,-324.75 1406.7125,-319.682 1396.2787,-317.8418 1397.4084,-324.75"/>
</g>
<!-- Node34&#45;&gt;Node3 -->
<g id="edge46" class="edge">
<title>Node34&#45;&gt;Node3</title>
<path fill="none" stroke="#191970" d="M854.249,-363.9717C805.0343,-352.0246 720.632,-331.5357 667.0256,-318.5225"/>
<polygon fill="#191970" stroke="#191970" points="667.6059,-315.0618 657.0624,-316.1039 665.9545,-321.8642 667.6059,-315.0618"/>
</g>
<!-- Node34&#45;&gt;Node6 -->
<g id="edge49" class="edge">
<title>Node34&#45;&gt;Node6</title>
<path fill="none" stroke="#191970" d="M948.235,-363.9424C1030.4663,-349.556 1176.9349,-323.8128 1182.5,-322 1256.7759,-297.8047 1340.5,-323.1174 1340.5,-245 1340.5,-245 1340.5,-245 1340.5,-183.5 1340.5,-95.4088 1636.2153,-73.3295 1774.6175,-67.8199"/>
<polygon fill="#191970" stroke="#191970" points="1774.8455,-71.3139 1784.7054,-67.4366 1774.5797,-64.3189 1774.8455,-71.3139"/>
</g>
<!-- Node34&#45;&gt;Node18 -->
<g id="edge51" class="edge">
<title>Node34&#45;&gt;Node18</title>
<path fill="none" stroke="#191970" d="M939.6225,-363.9461C1046.5864,-341.1521 1302.5,-282.6797 1302.5,-245 1302.5,-245 1302.5,-245 1302.5,-183.5 1302.5,-149.1399 1302.5,-109.128 1302.5,-85.7764"/>
<polygon fill="#191970" stroke="#191970" points="1306.0001,-85.7489 1302.5,-75.7489 1299.0001,-85.749 1306.0001,-85.7489"/>
</g>
<!-- Node34&#45;&gt;Node21 -->
<g id="edge47" class="edge">
<title>Node34&#45;&gt;Node21</title>
<path fill="none" stroke="#191970" d="M885.157,-363.8416C866.5147,-342.2602 821.2598,-289.8706 797.5523,-262.4254"/>
<polygon fill="#191970" stroke="#191970" points="800.1255,-260.0501 790.9399,-254.7705 794.8282,-264.626 800.1255,-260.0501"/>
</g>
<!-- Node34&#45;&gt;Node24 -->
<g id="edge50" class="edge">
<title>Node34&#45;&gt;Node24</title>
<path fill="none" stroke="#191970" d="M931.893,-363.9168C956.5995,-356.0987 987.9936,-342.8683 1009.5,-322 1036.7488,-295.5598 1046.5,-282.9681 1046.5,-245 1046.5,-245 1046.5,-245 1046.5,-183.5 1046.5,-142.4332 1079.0713,-103.8027 1100.7007,-82.677"/>
<polygon fill="#191970" stroke="#191970" points="1103.2139,-85.1179 1108.0938,-75.7137 1098.4145,-80.0222 1103.2139,-85.1179"/>
</g>
<!-- Node34&#45;&gt;Node32 -->
<g id="edge48" class="edge">
<title>Node34&#45;&gt;Node32</title>
<path fill="none" stroke="#191970" d="M944.8008,-363.9914C957.4259,-361.8375 970.9291,-359.6901 983.5,-358 1147.6862,-335.9265 1189.7965,-339.8077 1354.5,-322 1368.138,-320.5255 1382.5708,-318.8847 1396.6656,-317.2381"/>
<polygon fill="#191970" stroke="#191970" points="1397.3301,-320.6842 1406.853,-316.0403 1396.5126,-313.732 1397.3301,-320.6842"/>
</g>
<!-- Node37&#45;&gt;Node8 -->
<g id="edge54" class="edge">
<title>Node37&#45;&gt;Node8</title>
<path fill="none" stroke="#191970" d="M1886.1321,-430.9442C1978.8551,-411.9891 2166.5,-366.2484 2166.5,-306.5 2166.5,-306.5 2166.5,-306.5 2166.5,-245 2166.5,-199.3347 2207.2621,-159.144 2233.6142,-137.9326"/>
<polygon fill="#191970" stroke="#191970" points="2235.8465,-140.6304 2241.5938,-131.7299 2231.5505,-135.1038 2235.8465,-140.6304"/>
</g>
<!-- Node37&#45;&gt;Node17 -->
<g id="edge55" class="edge">
<title>Node37&#45;&gt;Node17</title>
<path fill="none" stroke="#191970" d="M1751.754,-431.9885C1724.5809,-429.4492 1694.2813,-426.8523 1666.5,-425 1618.6202,-421.8077 836.7167,-423.6312 803.5,-389 793.9628,-379.0567 800.1048,-371.3529 803.5,-358 825.6768,-270.7821 925.2473,-241.6274 873.5,-168 846.3383,-129.3535 816.9508,-150.5294 773.5,-132 735.9106,-115.9701 693.873,-94.4836 667.3114,-80.4458"/>
<polygon fill="#191970" stroke="#191970" points="668.7353,-77.239 658.2626,-75.6349 665.4492,-83.4197 668.7353,-77.239"/>
</g>
<!-- Node38&#45;&gt;Node17 -->
<g id="edge57" class="edge">
<title>Node38&#45;&gt;Node17</title>
<path fill="none" stroke="#191970" d="M398.0888,-493.7081C297.8632,-477.4312 124.5,-431.2467 124.5,-306.5 124.5,-306.5 124.5,-306.5 124.5,-183.5 124.5,-139.0283 154.4438,-131.3191 194.5,-112 267.7692,-76.6623 518.6799,-68.3645 608.3343,-66.5088"/>
<polygon fill="#191970" stroke="#191970" points="608.5153,-70.0061 618.4456,-66.3131 608.3797,-63.0074 608.5153,-70.0061"/>
</g>
<!-- Node39&#45;&gt;Node2 -->
<g id="edge59" class="edge">
<title>Node39&#45;&gt;Node2</title>
<path fill="none" stroke="#191970" d="M908.8006,-548.4847C887.1279,-541.3527 860.3364,-529.7227 841.5,-512 809.7946,-482.1692 829.4833,-453.4115 796.5,-425 773.791,-405.4387 743.3004,-393.2128 715.6641,-385.616"/>
<polygon fill="#191970" stroke="#191970" points="716.189,-382.1367 705.6312,-383.0216 714.4365,-388.9138 716.189,-382.1367"/>
</g>
<!-- Node39&#45;&gt;Node27 -->
<g id="edge60" class="edge">
<title>Node39&#45;&gt;Node27</title>
<path fill="none" stroke="#191970" d="M993.9986,-548.4369C1043.0115,-538.7724 1118.7777,-523.8326 1171.0707,-513.5213"/>
<polygon fill="#191970" stroke="#191970" points="1172.0674,-516.8922 1181.2014,-511.5237 1170.7132,-510.0244 1172.0674,-516.8922"/>
</g>
<!-- Node39&#45;&gt;Node38 -->
<g id="edge76" class="edge">
<title>Node39&#45;&gt;Node38</title>
<path fill="none" stroke="#191970" d="M870.8125,-549.25C782.7015,-538.9274 636.8421,-521.8392 546.78,-511.288"/>
<polygon fill="#191970" stroke="#191970" points="546.9617,-507.7855 536.6223,-510.098 546.1471,-514.7379 546.9617,-507.7855"/>
</g>
<!-- Node40 -->
<g id="node29" class="node">
<title>Node40</title>
<g id="a_node29"><a xlink:href="SpatialAcc_8h.html" target="_top" xlink:title="iDynTree/Core/SpatialAcc.h">
<polygon fill="none" stroke="#000000" points="850.5,-492.5 850.5,-511.5 998.5,-511.5 998.5,-492.5 850.5,-492.5"/>
<text text-anchor="middle" x="924.5" y="-499.5" font-family="FreeSans.ttf" font-size="10.00" fill="#000000">iDynTree/Core/SpatialAcc.h</text>
</a>
</g>
</g>
<!-- Node39&#45;&gt;Node40 -->
<g id="edge61" class="edge">
<title>Node39&#45;&gt;Node40</title>
<path fill="none" stroke="#191970" d="M941.8421,-548.2455C939.0416,-540.7776 935.091,-530.2427 931.6676,-521.1137"/>
<polygon fill="#191970" stroke="#191970" points="934.9045,-519.777 928.116,-511.6427 928.3501,-522.2349 934.9045,-519.777"/>
</g>
<!-- Node41 -->
<g id="node30" class="node">
<title>Node41</title>
<g id="a_node30"><a xlink:href="Wrench_8h.html" target="_top" xlink:title="iDynTree/Core/Wrench.h">
<polygon fill="none" stroke="#000000" points="1017,-492.5 1017,-511.5 1150,-511.5 1150,-492.5 1017,-492.5"/>
<text text-anchor="middle" x="1083.5" y="-499.5" font-family="FreeSans.ttf" font-size="10.00" fill="#000000">iDynTree/Core/Wrench.h</text>
</a>
</g>
</g>
<!-- Node39&#45;&gt;Node41 -->
<g id="edge63" class="edge">
<title>Node39&#45;&gt;Node41</title>
<path fill="none" stroke="#191970" d="M969.223,-548.3733C991.6737,-539.2629 1025.5739,-525.5062 1050.6255,-515.3404"/>
<polygon fill="#191970" stroke="#191970" points="1052.1365,-518.5045 1060.0865,-511.5011 1049.5043,-512.0182 1052.1365,-518.5045"/>
</g>
<!-- Node46 -->
<g id="node34" class="node">
<title>Node46</title>
<g id="a_node34"><a xlink:href="ArticulatedBodyInertia_8h.html" target="_top" xlink:title="iDynTree/Core/Articulated\lBodyInertia.h">
<polygon fill="none" stroke="#000000" points="471,-168.5 471,-198.5 612,-198.5 612,-168.5 471,-168.5"/>
<text text-anchor="start" x="479" y="-186.5" font-family="FreeSans.ttf" font-size="10.00" fill="#000000">iDynTree/Core/Articulated</text>
<text text-anchor="middle" x="541.5" y="-175.5" font-family="FreeSans.ttf" font-size="10.00" fill="#000000">BodyInertia.h</text>
</a>
</g>
</g>
<!-- Node39&#45;&gt;Node46 -->
<g id="edge73" class="edge">
<title>Node39&#45;&gt;Node46</title>
<path fill="none" stroke="#191970" d="M916.9899,-548.3844C892.0026,-539.6899 854.8758,-526.1207 823.5,-512 747.9005,-477.9764 734.5077,-458.1017 658.5,-425 614.04,-405.6374 587.7447,-425.2199 555.5,-389 510.7829,-338.7701 524.2106,-251.4387 534.4867,-208.624"/>
<polygon fill="#191970" stroke="#191970" points="537.9257,-209.3016 536.9941,-198.7478 531.1409,-207.579 537.9257,-209.3016"/>
</g>
<!-- Node39&#45;&gt;Node47 -->
<g id="edge77" class="edge">
<title>Node39&#45;&gt;Node47</title>
<path fill="none" stroke="#191970" d="M1020.1171,-548.5396C1091.78,-539.3981 1203.0789,-525.0545 1299.5,-512 1311.7121,-510.3466 1325.0971,-508.4765 1336.9214,-506.8045"/>
<polygon fill="#191970" stroke="#191970" points="1337.4331,-510.2671 1346.8421,-505.3967 1336.4495,-503.3365 1337.4331,-510.2671"/>
</g>
<!-- Node40&#45;&gt;Node28 -->
<g id="edge62" class="edge">
<title>Node40&#45;&gt;Node28</title>
<path fill="none" stroke="#191970" d="M972.2871,-492.4581C1018.9108,-483.1485 1090.8585,-468.7823 1147.2928,-457.5138"/>
<polygon fill="#191970" stroke="#191970" points="1148.1603,-460.9097 1157.2813,-455.5193 1146.7895,-454.0452 1148.1603,-460.9097"/>
</g>
<!-- Node42 -->
<g id="node31" class="node">
<title>Node42</title>
<g id="a_node31"><a xlink:href="SpatialForceVector_8h.html" target="_top" xlink:title="iDynTree/Core/SpatialForce\lVector.h">
<polygon fill="none" stroke="#000000" points="1338.5,-425.5 1338.5,-455.5 1486.5,-455.5 1486.5,-425.5 1338.5,-425.5"/>
<text text-anchor="start" x="1346.5" y="-443.5" font-family="FreeSans.ttf" font-size="10.00" fill="#000000">iDynTree/Core/SpatialForce</text>
<text text-anchor="middle" x="1412.5" y="-432.5" font-family="FreeSans.ttf" font-size="10.00" fill="#000000">Vector.h</text>
</a>
</g>
</g>
<!-- Node41&#45;&gt;Node42 -->
<g id="edge64" class="edge">
<title>Node41&#45;&gt;Node42</title>
<path fill="none" stroke="#191970" d="M1134.5453,-492.4581C1186.2638,-482.7904 1267.1543,-467.6695 1328.3643,-456.2275"/>
<polygon fill="#191970" stroke="#191970" points="1329.2091,-459.6303 1338.3956,-454.3523 1327.9228,-452.7495 1329.2091,-459.6303"/>
</g>
<!-- Node42&#45;&gt;Node5 -->
<g id="edge65" class="edge">
<title>Node42&#45;&gt;Node5</title>
<path fill="none" stroke="#191970" d="M1486.8791,-427.1611C1491.4848,-426.409 1496.0533,-425.6823 1500.5,-425 1561.4195,-415.6521 1734.8459,-435.3229 1775.5,-389 1802.9586,-357.7126 1756.2789,-328.7112 1726.5,-255 1719.543,-237.7794 1712.9274,-217.6913 1708.4107,-203.2"/>
<polygon fill="#191970" stroke="#191970" points="1711.6691,-201.887 1705.3949,-193.3497 1704.9758,-203.9362 1711.6691,-201.887"/>
</g>
<!-- Node42&#45;&gt;Node32 -->
<g id="edge72" class="edge">
<title>Node42&#45;&gt;Node32</title>
<path fill="none" stroke="#191970" d="M1406.509,-425.4833C1400.6054,-408.1272 1393.9957,-379.2326 1405.5,-358 1412.661,-344.7836 1424.8468,-334.4229 1437.5322,-326.5696"/>
<polygon fill="#191970" stroke="#191970" points="1439.3984,-329.5343 1446.3386,-321.529 1435.921,-323.4591 1439.3984,-329.5343"/>
</g>
<!-- Node42&#45;&gt;Node34 -->
<g id="edge71" class="edge">
<title>Node42&#45;&gt;Node34</title>
<path fill="none" stroke="#191970" d="M1338.4131,-427.8832C1331.6874,-426.8589 1324.9736,-425.8808 1318.5,-425 1170.1212,-404.8104 1131.806,-409.7182 983.5,-389 974.5054,-387.7435 965.03,-386.2732 955.7393,-384.7478"/>
<polygon fill="#191970" stroke="#191970" points="956.2024,-381.2767 945.7619,-383.0784 955.0472,-388.1807 956.2024,-381.2767"/>
</g>
<!-- Node43 -->
<g id="node32" class="node">
<title>Node43</title>
<g id="a_node32"><a xlink:href="LinearForceVector3_8h.html" target="_top" xlink:title="iDynTree/Core/LinearForce\lVector3.h">
<polygon fill="none" stroke="#ff0000" points="1414.5,-358.5 1414.5,-388.5 1558.5,-388.5 1558.5,-358.5 1414.5,-358.5"/>
<text text-anchor="start" x="1422.5" y="-376.5" font-family="FreeSans.ttf" font-size="10.00" fill="#000000">iDynTree/Core/LinearForce</text>
<text text-anchor="middle" x="1486.5" y="-365.5" font-family="FreeSans.ttf" font-size="10.00" fill="#000000">Vector3.h</text>
</a>
</g>
</g>
<!-- Node42&#45;&gt;Node43 -->
<g id="edge66" class="edge">
<title>Node42&#45;&gt;Node43</title>
<path fill="none" stroke="#191970" d="M1429.2917,-425.2967C1439.037,-416.4733 1451.4801,-405.2072 1462.2713,-395.4368"/>
<polygon fill="#191970" stroke="#191970" points="1464.7108,-397.9495 1469.7747,-388.6432 1460.0126,-392.7604 1464.7108,-397.9495"/>
</g>
<!-- Node45 -->
<g id="node33" class="node">
<title>Node45</title>
<g id="a_node33"><a xlink:href="AngularForceVector3_8h.html" target="_top" xlink:title="iDynTree/Core/AngularForce\lVector3.h">
<polygon fill="none" stroke="#ff0000" points="1614.5,-358.5 1614.5,-388.5 1766.5,-388.5 1766.5,-358.5 1614.5,-358.5"/>
<text text-anchor="start" x="1622.5" y="-376.5" font-family="FreeSans.ttf" font-size="10.00" fill="#000000">iDynTree/Core/AngularForce</text>
<text text-anchor="middle" x="1690.5" y="-365.5" font-family="FreeSans.ttf" font-size="10.00" fill="#000000">Vector3.h</text>
</a>
</g>
</g>
<!-- Node42&#45;&gt;Node45 -->
<g id="edge68" class="edge">
<title>Node42&#45;&gt;Node45</title>
<path fill="none" stroke="#191970" d="M1474.8886,-425.4639C1517.305,-415.2412 1573.5627,-401.6827 1617.9765,-390.9787"/>
<polygon fill="#191970" stroke="#191970" points="1618.9377,-394.3473 1627.8393,-388.6017 1617.2975,-387.5422 1618.9377,-394.3473"/>
</g>
<!-- Node43&#45;&gt;Node32 -->
<g id="edge67" class="edge">
<title>Node43&#45;&gt;Node32</title>
<path fill="none" stroke="#191970" d="M1486.0462,-358.2967C1485.8135,-350.5013 1485.5239,-340.7991 1485.2584,-331.9064"/>
<polygon fill="#191970" stroke="#191970" points="1488.7489,-331.5343 1484.952,-321.6432 1481.7521,-331.7432 1488.7489,-331.5343"/>
</g>
<!-- Node45&#45;&gt;Node6 -->
<g id="edge70" class="edge">
<title>Node45&#45;&gt;Node6</title>
<path fill="none" stroke="#191970" d="M1752.2077,-358.4987C1854.8173,-332.9442 2051.2277,-281.1975 2070.5,-255 2130.0129,-174.102 1965.2796,-106.1149 1885.2831,-78.8248"/>
<polygon fill="#191970" stroke="#191970" points="1886.1018,-75.4079 1875.5079,-75.5487 1883.8774,-82.0451 1886.1018,-75.4079"/>
</g>
<!-- Node45&#45;&gt;Node32 -->
<g id="edge69" class="edge">
<title>Node45&#45;&gt;Node32</title>
<path fill="none" stroke="#191970" d="M1644.2696,-358.4639C1613.6311,-348.499 1573.2467,-335.3642 1540.7459,-324.7936"/>
<polygon fill="#191970" stroke="#191970" points="1541.5243,-321.3663 1530.9321,-321.6017 1539.3592,-328.0231 1541.5243,-321.3663"/>
</g>
<!-- Node46&#45;&gt;Node17 -->
<g id="edge75" class="edge">
<title>Node46&#45;&gt;Node17</title>
<path fill="none" stroke="#191970" d="M554.4425,-168.1389C572.8466,-146.2957 606.4841,-106.3724 625.8038,-83.4424"/>
<polygon fill="#191970" stroke="#191970" points="628.6788,-85.4621 632.4456,-75.5595 623.3256,-80.9517 628.6788,-85.4621"/>
</g>
<!-- Node46&#45;&gt;Node23 -->
<g id="edge74" class="edge">
<title>Node46&#45;&gt;Node23</title>
<path fill="none" stroke="#191970" d="M612.1588,-176.3804C638.8917,-173.7129 669.5952,-170.6802 697.5,-168 838.9845,-154.4105 1003.2411,-139.3099 1102.7124,-130.2399"/>
<polygon fill="#191970" stroke="#191970" points="1103.0872,-133.7203 1112.7282,-129.3271 1102.4518,-126.7492 1103.0872,-133.7203"/>
</g>
<!-- Node48&#45;&gt;Node5 -->
<g id="edge79" class="edge">
<title>Node48&#45;&gt;Node5</title>
<path fill="none" stroke="#191970" d="M1521.9275,-548.4903C1556.5806,-541.5252 1599.9276,-530.0631 1635.5,-512 1690.1495,-484.2498 1688.119,-453.2729 1742.5,-425 1794.5536,-397.9371 1834.1215,-435.801 1869.5,-389 1877.2247,-378.7813 1881.1249,-319.5886 1867.5,-291 1851.0948,-256.5777 1834.1136,-256.3215 1802.5,-235 1780.6965,-220.2948 1754.1589,-206.8092 1733.9019,-197.3294"/>
<polygon fill="#191970" stroke="#191970" points="1735.3414,-194.1391 1724.7939,-193.138 1732.415,-200.498 1735.3414,-194.1391"/>
</g>
<!-- Node48&#45;&gt;Node37 -->
<g id="edge80" class="edge">
<title>Node48&#45;&gt;Node37</title>
<path fill="none" stroke="#191970" d="M1536.0684,-549.3909C1584.0999,-542.4948 1647.0712,-530.7928 1700.5,-512 1741.9039,-497.4368 1786.1918,-471.8234 1812.3331,-455.5321"/>
<polygon fill="#191970" stroke="#191970" points="1814.2025,-458.4911 1820.7883,-450.1918 1810.4645,-452.5727 1814.2025,-458.4911"/>
</g>
<!-- Node48&#45;&gt;Node42 -->
<g id="edge81" class="edge">
<title>Node48&#45;&gt;Node42</title>
<path fill="none" stroke="#191970" d="M1456.572,-548.3845C1449.2189,-530.3847 1433.1666,-491.0901 1422.6,-465.2239"/>
<polygon fill="#191970" stroke="#191970" points="1425.7371,-463.648 1418.7152,-455.7143 1419.2569,-466.2953 1425.7371,-463.648"/>
</g>
<!-- Node48&#45;&gt;Node47 -->
<g id="edge82" class="edge">
<title>Node48&#45;&gt;Node47</title>
<path fill="none" stroke="#191970" d="M1444.8232,-548.2455C1431.0144,-539.6534 1410.6807,-527.0014 1394.7708,-517.1018"/>
<polygon fill="#191970" stroke="#191970" points="1396.3368,-513.954 1385.9972,-511.6427 1392.6387,-519.8974 1396.3368,-513.954"/>
</g>
<!-- Node49&#45;&gt;Node2 -->
<g id="edge94" class="edge">
<title>Node49&#45;&gt;Node2</title>
<path fill="none" stroke="#191970" d="M381.1619,-671.4654C387.7487,-662.6125 396.7597,-648.7614 400.5,-635 417.2188,-573.4883 361.8454,-549.432 389.5,-492 420.7108,-427.1827 500.3901,-397.7341 562.64,-384.4059"/>
<polygon fill="#191970" stroke="#191970" points="563.3714,-387.8288 572.471,-382.4022 561.9734,-380.9698 563.3714,-387.8288"/>
</g>
<!-- Node49&#45;&gt;Node38 -->
<g id="edge95" class="edge">
<title>Node49&#45;&gt;Node38</title>
<path fill="none" stroke="#191970" d="M335.8629,-671.4397C304.7157,-662.6768 264.081,-648.9756 254.5,-635 246.7095,-623.6362 247.157,-615.6579 254.5,-604 286.663,-552.9374 352.2528,-526.8738 402.1998,-513.9425"/>
<polygon fill="#191970" stroke="#191970" points="403.0985,-517.3258 411.9661,-511.5278 401.4184,-510.5304 403.0985,-517.3258"/>
</g>
<!-- Node49&#45;&gt;Node47 -->
<g id="edge103" class="edge">
<title>Node49&#45;&gt;Node47</title>
<path fill="none" stroke="#191970" d="M440.0345,-679.3086C644.019,-673.9047 1249.0658,-656.1648 1285.5,-635 1329.1843,-609.6236 1354.0326,-551.8204 1364.5189,-521.4557"/>
<polygon fill="#191970" stroke="#191970" points="1367.9536,-522.2137 1367.7408,-511.621 1361.3014,-520.0344 1367.9536,-522.2137"/>
</g>
<!-- Node50 -->
<g id="node38" class="node">
<title>Node50</title>
<g id="a_node38"><a xlink:href="IJoint_8h.html" target="_top" xlink:title="iDynTree/Model/IJoint.h">
<polygon fill="none" stroke="#000000" points="263.5,-610 263.5,-629 391.5,-629 391.5,-610 263.5,-610"/>
<text text-anchor="middle" x="327.5" y="-617" font-family="FreeSans.ttf" font-size="10.00" fill="#000000">iDynTree/Model/IJoint.h</text>
</a>
</g>
</g>
<!-- Node49&#45;&gt;Node50 -->
<g id="edge85" class="edge">
<title>Node49&#45;&gt;Node50</title>
<path fill="none" stroke="#191970" d="M366.3125,-671.3906C359.5334,-662.3273 349.2022,-648.5149 340.9027,-637.4188"/>
<polygon fill="#191970" stroke="#191970" points="343.5812,-635.1563 334.7888,-629.2449 337.9757,-639.349 343.5812,-635.1563"/>
</g>
<!-- Node51 -->
<g id="node39" class="node">
<title>Node51</title>
<g id="a_node39"><a xlink:href="Link_8h.html" target="_top" xlink:title="iDynTree/Model/Link.h">
<polygon fill="none" stroke="#000000" points="447.5,-610 447.5,-629 571.5,-629 571.5,-610 447.5,-610"/>
<text text-anchor="middle" x="509.5" y="-617" font-family="FreeSans.ttf" font-size="10.00" fill="#000000">iDynTree/Model/Link.h</text>
</a>
</g>
</g>
<!-- Node49&#45;&gt;Node51 -->
<g id="edge87" class="edge">
<title>Node49&#45;&gt;Node51</title>
<path fill="none" stroke="#191970" d="M394.75,-671.3906C417.4055,-661.1457 453.4798,-644.8326 479.1291,-633.2339"/>
<polygon fill="#191970" stroke="#191970" points="480.7297,-636.3514 488.3992,-629.0419 477.8454,-629.9732 480.7297,-636.3514"/>
</g>
<!-- Node56 -->
<g id="node41" class="node">
<title>Node56</title>
<g id="a_node41"><a xlink:href="SolidShapes_8h.html" target="_top" xlink:title="iDynTree/Model/SolidShapes.h">
<polygon fill="none" stroke="#000000" points="44,-548.5 44,-567.5 207,-567.5 207,-548.5 44,-548.5"/>
<text text-anchor="middle" x="125.5" y="-555.5" font-family="FreeSans.ttf" font-size="10.00" fill="#000000">iDynTree/Model/SolidShapes.h</text>
</a>
</g>
</g>
<!-- Node49&#45;&gt;Node56 -->
<g id="edge96" class="edge">
<title>Node49&#45;&gt;Node56</title>
<path fill="none" stroke="#191970" d="M325.454,-671.4319C294.5986,-664.1061 254.3073,-652.2863 221.5,-635 190.8476,-618.8491 160.5077,-592.2626 142.384,-574.9422"/>
<polygon fill="#191970" stroke="#191970" points="144.5639,-572.1795 134.9593,-567.707 139.6785,-577.1928 144.5639,-572.1795"/>
</g>
<!-- Node57 -->
<g id="node42" class="node">
<title>Node57</title>
<polygon fill="none" stroke="#bfbfbf" points="0,-492.5 0,-511.5 49,-511.5 49,-492.5 0,-492.5"/>
<text text-anchor="middle" x="24.5" y="-499.5" font-family="FreeSans.ttf" font-size="10.00" fill="#000000">cstdlib</text>
</g>
<!-- Node49&#45;&gt;Node57 -->
<g id="edge102" class="edge">
<title>Node49&#45;&gt;Node57</title>
<path fill="none" stroke="#191970" d="M322.8087,-671.454C237.058,-654.175 69.2768,-615.1005 34.5,-568 24.7229,-554.7582 22.7165,-535.8941 22.8678,-521.7222"/>
<polygon fill="#191970" stroke="#191970" points="26.372,-521.7128 23.3446,-511.5598 19.3797,-521.3847 26.372,-521.7128"/>
</g>
<!-- Node50&#45;&gt;Node38 -->
<g id="edge86" class="edge">
<title>Node50&#45;&gt;Node38</title>
<path fill="none" stroke="#191970" d="M338.9568,-609.8845C362.8507,-589.8306 418.2385,-543.3445 447.9061,-518.4449"/>
<polygon fill="#191970" stroke="#191970" points="450.4752,-520.858 455.8849,-511.7484 445.9751,-515.4962 450.4752,-520.858"/>
</g>
<!-- Node51&#45;&gt;Node38 -->
<g id="edge93" class="edge">
<title>Node51&#45;&gt;Node38</title>
<path fill="none" stroke="#191970" d="M485.0319,-609.8518C467.7391,-601.5834 445.8636,-587.8389 435.5,-568 427.004,-551.7363 438.2104,-532.8712 449.6313,-519.4858"/>
<polygon fill="#191970" stroke="#191970" points="452.3906,-521.6564 456.5959,-511.9318 447.2442,-516.9114 452.3906,-521.6564"/>
</g>
<!-- Node52 -->
<g id="node40" class="node">
<title>Node52</title>
<g id="a_node40"><a xlink:href="SpatialInertia_8h.html" target="_top" xlink:title="iDynTree/Core/SpatialInertia.h">
<polygon fill="none" stroke="#ff0000" points="1038.5,-548.5 1038.5,-567.5 1200.5,-567.5 1200.5,-548.5 1038.5,-548.5"/>
<text text-anchor="middle" x="1119.5" y="-555.5" font-family="FreeSans.ttf" font-size="10.00" fill="#000000">iDynTree/Core/SpatialInertia.h</text>
</a>
</g>
</g>
<!-- Node51&#45;&gt;Node52 -->
<g id="edge88" class="edge">
<title>Node51&#45;&gt;Node52</title>
<path fill="none" stroke="#191970" d="M571.8355,-613.5287C667.4455,-604.3225 856.3293,-585.948 1028.1534,-568.0268"/>
<polygon fill="#191970" stroke="#191970" points="1028.5577,-571.5037 1038.1399,-566.9837 1027.8304,-564.5415 1028.5577,-571.5037"/>
</g>
<!-- Node52&#45;&gt;Node5 -->
<g id="edge89" class="edge">
<title>Node52&#45;&gt;Node5</title>
<path fill="none" stroke="#191970" d="M1169.7515,-548.4619C1206.4047,-540.7158 1256.905,-528.3908 1299.5,-512 1317.312,-505.1458 1319.5998,-498.6204 1337.5,-492 1405.0499,-467.0165 1428.4194,-482.2175 1495.5,-456 1521.2749,-445.9262 1523.3513,-434.0594 1549.5,-425 1601.4968,-406.9853 1758.528,-430.6439 1794.5,-389 1845.5506,-329.8999 1760.8848,-237.8835 1721.2427,-200.3241"/>
<polygon fill="#191970" stroke="#191970" points="1723.2424,-197.4049 1713.5319,-193.1673 1718.4804,-202.5355 1723.2424,-197.4049"/>
</g>
<!-- Node52&#45;&gt;Node27 -->
<g id="edge90" class="edge">
<title>Node52&#45;&gt;Node27</title>
<path fill="none" stroke="#191970" d="M1138.6605,-548.2455C1156.0111,-539.4125 1181.7901,-526.2887 1201.4583,-516.2758"/>
<polygon fill="#191970" stroke="#191970" points="1203.2353,-519.2986 1210.559,-511.6427 1200.0595,-513.0605 1203.2353,-519.2986"/>
</g>
<!-- Node52&#45;&gt;Node40 -->
<g id="edge91" class="edge">
<title>Node52&#45;&gt;Node40</title>
<path fill="none" stroke="#191970" d="M1085.9783,-548.3733C1053.1317,-538.9404 1002.9405,-524.5265 967.2422,-514.2747"/>
<polygon fill="#191970" stroke="#191970" points="968.1619,-510.8974 957.5843,-511.5011 966.2297,-517.6255 968.1619,-510.8974"/>
</g>
<!-- Node52&#45;&gt;Node41 -->
<g id="edge92" class="edge">
<title>Node52&#45;&gt;Node41</title>
<path fill="none" stroke="#191970" d="M1113.2293,-548.2455C1108.2736,-540.5367 1101.217,-529.5598 1095.2224,-520.2348"/>
<polygon fill="#191970" stroke="#191970" points="1098.0506,-518.1618 1089.6989,-511.6427 1092.1624,-521.9471 1098.0506,-518.1618"/>
</g>
<!-- Node56&#45;&gt;Node2 -->
<g id="edge100" class="edge">
<title>Node56&#45;&gt;Node2</title>
<path fill="none" stroke="#191970" d="M138.2432,-548.4957C171.9341,-523.8675 266.9298,-457.6324 356.5,-425 423.4943,-400.5925 503.5788,-387.4812 562.4364,-380.609"/>
<polygon fill="#191970" stroke="#191970" points="562.8885,-384.0803 572.4316,-379.478 562.1014,-377.1247 562.8885,-384.0803"/>
</g>
<!-- Node56&#45;&gt;Node17 -->
<g id="edge98" class="edge">
<title>Node56&#45;&gt;Node17</title>
<path fill="none" stroke="#191970" d="M119.9123,-548.3042C109.1284,-528.6493 86.5,-482.4126 86.5,-440.5 86.5,-440.5 86.5,-440.5 86.5,-183.5 86.5,-140.8513 112.4208,-131.2065 150.5,-112 191.2549,-91.4439 505.3815,-73.1542 608.1072,-67.6698"/>
<polygon fill="#191970" stroke="#191970" points="608.3964,-71.1595 618.1976,-67.1362 608.0267,-64.1693 608.3964,-71.1595"/>
</g>
<!-- Node56&#45;&gt;Node38 -->
<g id="edge101" class="edge">
<title>Node56&#45;&gt;Node38</title>
<path fill="none" stroke="#191970" d="M183.9033,-548.4369C243.5406,-538.6717 336.0698,-523.5207 399.0965,-513.2006"/>
<polygon fill="#191970" stroke="#191970" points="400.0346,-516.5937 409.3376,-511.5237 398.9034,-509.6857 400.0346,-516.5937"/>
</g>
<!-- Node56&#45;&gt;Node47 -->
<g id="edge99" class="edge">
<title>Node56&#45;&gt;Node47</title>
<path fill="none" stroke="#191970" d="M207.3902,-555.8674C437.5011,-549.7034 1086.9453,-531.0839 1299.5,-512 1311.7742,-510.898 1325.1732,-509.1528 1336.9915,-507.4267"/>
<polygon fill="#191970" stroke="#191970" points="1337.5364,-510.8842 1346.9023,-505.9314 1336.492,-503.9625 1337.5364,-510.8842"/>
</g>
<!-- Node56&#45;&gt;Node57 -->
<g id="edge97" class="edge">
<title>Node56&#45;&gt;Node57</title>
<path fill="none" stroke="#191970" d="M107.9071,-548.2455C92.121,-539.4928 68.7361,-526.527 50.7413,-516.5496"/>
<polygon fill="#191970" stroke="#191970" points="52.3341,-513.4308 41.8913,-511.6427 48.9397,-519.5528 52.3341,-513.4308"/>
</g>
<!-- Node58&#45;&gt;Node38 -->
<g id="edge105" class="edge">
<title>Node58&#45;&gt;Node38</title>
<path fill="none" stroke="#191970" d="M631.4626,-548.3733C598.1106,-538.9404 547.1473,-524.5265 510.8998,-514.2747"/>
<polygon fill="#191970" stroke="#191970" points="511.6684,-510.8548 501.0933,-511.5011 509.7632,-517.5906 511.6684,-510.8548"/>
</g>
<!-- Node58&#45;&gt;Node47 -->
<g id="edge106" class="edge">
<title>Node58&#45;&gt;Node47</title>
<path fill="none" stroke="#191970" d="M739.8258,-554.2375C858.3965,-547.8685 1097.5834,-533.5197 1299.5,-512 1311.7542,-510.694 1325.1487,-508.9026 1336.9689,-507.1965"/>
<polygon fill="#191970" stroke="#191970" points="1337.5009,-510.656 1346.8828,-505.7336 1336.479,-503.731 1337.5009,-510.656"/>
</g>
<!-- Node59&#45;&gt;Node38 -->
<g id="edge110" class="edge">
<title>Node59&#45;&gt;Node38</title>
<path fill="none" stroke="#191970" d="M869.2824,-616.3919C742.7963,-610.4782 500.6652,-595.6592 473.5,-568 461.8075,-556.0949 461.4376,-536.496 463.3138,-521.7417"/>
<polygon fill="#191970" stroke="#191970" points="466.8105,-522.0563 465.0361,-511.6111 459.9095,-520.883 466.8105,-522.0563"/>
</g>
<!-- Node59&#45;&gt;Node39 -->
<g id="edge111" class="edge">
<title>Node59&#45;&gt;Node39</title>
<path fill="none" stroke="#191970" d="M945.5,-609.8906C945.5,-601.3657 945.5,-588.6392 945.5,-577.9235"/>
<polygon fill="#191970" stroke="#191970" points="949.0001,-577.7448 945.5,-567.7449 942.0001,-577.7449 949.0001,-577.7448"/>
</g>
<!-- Node59&#45;&gt;Node48 -->
<g id="edge112" class="edge">
<title>Node59&#45;&gt;Node48</title>
<path fill="none" stroke="#191970" d="M1021.7671,-610.3924C1116.0117,-599.1379 1275.9525,-580.0382 1374.4822,-568.272"/>
<polygon fill="#191970" stroke="#191970" points="1375.1921,-571.7122 1384.7065,-567.0511 1374.362,-564.7616 1375.1921,-571.7122"/>
</g>
<!-- Node60 -->
<g id="node45" class="node">
<title>Node60</title>
<g id="a_node45"><a xlink:href="MatrixDynSize_8h.html" target="_top" xlink:title="iDynTree/Core/MatrixDynSize.h">
<polygon fill="none" stroke="#000000" points="483,-431 483,-450 650,-450 650,-431 483,-431"/>
<text text-anchor="middle" x="566.5" y="-438" font-family="FreeSans.ttf" font-size="10.00" fill="#000000">iDynTree/Core/MatrixDynSize.h</text>
</a>
</g>
</g>
<!-- Node59&#45;&gt;Node60 -->
<g id="edge108" class="edge">
<title>Node59&#45;&gt;Node60</title>
<path fill="none" stroke="#191970" d="M869.1993,-613.5855C768.6914,-605.0577 602.2833,-588.1043 582.5,-568 554.4447,-539.4895 557.8396,-488.3727 562.3925,-460.3008"/>
<polygon fill="#191970" stroke="#191970" points="565.8966,-460.5973 564.2612,-450.1295 559.0118,-459.3325 565.8966,-460.5973"/>
</g>
<!-- Node60&#45;&gt;Node17 -->
<g id="edge109" class="edge">
<title>Node60&#45;&gt;Node17</title>
<path fill="none" stroke="#191970" d="M489.5598,-430.9332C372.3428,-414.1803 162.5,-374.6694 162.5,-306.5 162.5,-306.5 162.5,-306.5 162.5,-183.5 162.5,-132.7608 204.7119,-131.6302 251.5,-112 315.8662,-84.9949 527.1397,-71.7208 608.3252,-67.5212"/>
<polygon fill="#191970" stroke="#191970" points="608.6379,-71.01 618.4486,-67.01 608.2848,-64.0189 608.6379,-71.01"/>
</g>
<!-- Node61&#45;&gt;Node2 -->
<g id="edge121" class="edge">
<title>Node61&#45;&gt;Node2</title>
<path fill="none" stroke="#191970" d="M1465.7701,-496.3907C1445.1418,-494.9583 1423.0002,-493.4214 1402.5,-492 1286.9453,-483.9877 992.4052,-492.5777 882.5,-456 858.4038,-447.9805 857.6912,-435.3492 834.5,-425 793.5894,-406.7435 744.7383,-393.6393 706.9506,-385.2189"/>
<polygon fill="#191970" stroke="#191970" points="707.6147,-381.7815 697.099,-383.0734 706.1251,-388.6212 707.6147,-381.7815"/>
</g>
<!-- Node61&#45;&gt;Node5 -->
<g id="edge116" class="edge">
<title>Node61&#45;&gt;Node5</title>
<path fill="none" stroke="#191970" d="M1546.5432,-492.4274C1547.1808,-475.858 1551.0722,-441.9808 1571.5,-425 1666.2914,-346.2037 1765.1918,-481.6459 1846.5,-389 1875.2301,-356.2637 1866.022,-329.9356 1846.5,-291 1843.1362,-284.2912 1763.4537,-226.9194 1724.0969,-198.8465"/>
<polygon fill="#191970" stroke="#191970" points="1726.0852,-195.9657 1715.9097,-193.0144 1722.0238,-201.667 1726.0852,-195.9657"/>
</g>
<!-- Node61&#45;&gt;Node6 -->
<g id="edge122" class="edge">
<title>Node61&#45;&gt;Node6</title>
<path fill="none" stroke="#191970" d="M1571.8441,-492.4635C1596.1729,-483.2668 1633.9266,-468.8848 1666.5,-456 1700.4222,-442.5817 1708.0095,-436.8816 1742.5,-425 1905.2487,-368.935 2006.0375,-404.9883 2090.5,-255 2100.1816,-237.8074 2103.4433,-202.9819 2082.5,-168 2047.6462,-109.7831 1971.1565,-84.7575 1914.2442,-74.0218"/>
<polygon fill="#191970" stroke="#191970" points="1914.6763,-70.5438 1904.2179,-72.2385 1913.4504,-77.4357 1914.6763,-70.5438"/>
</g>
<!-- Node61&#45;&gt;Node23 -->
<g id="edge118" class="edge">
<title>Node61&#45;&gt;Node23</title>
<path fill="none" stroke="#191970" d="M1465.8357,-495.7444C1282.1457,-480.6662 845.2964,-439.7791 803.5,-389 794.7441,-378.3623 796.7343,-370.0022 803.5,-358 813.9649,-339.4356 1082.9858,-184.9978 1168.0019,-136.5078"/>
<polygon fill="#191970" stroke="#191970" points="1169.809,-139.5064 1176.7639,-131.5139 1166.3428,-133.4248 1169.809,-139.5064"/>
</g>
<!-- Node61&#45;&gt;Node28 -->
<g id="edge119" class="edge">
<title>Node61&#45;&gt;Node28</title>
<path fill="none" stroke="#191970" d="M1497.782,-492.4581C1450.1517,-483.1292 1376.5969,-468.7228 1319.01,-457.4438"/>
<polygon fill="#191970" stroke="#191970" points="1319.6703,-454.0067 1309.184,-455.5193 1318.3248,-460.8762 1319.6703,-454.0067"/>
</g>
<!-- Node61&#45;&gt;Node37 -->
<g id="edge115" class="edge">
<title>Node61&#45;&gt;Node37</title>
<path fill="none" stroke="#191970" d="M1591.3392,-492.4581C1642.3843,-481.5956 1725.7798,-463.8488 1780.6553,-452.1711"/>
<polygon fill="#191970" stroke="#191970" points="1781.5032,-455.5691 1790.5556,-450.0643 1780.0461,-448.7224 1781.5032,-455.5691"/>
</g>
<!-- Node61&#45;&gt;Node42 -->
<g id="edge120" class="edge">
<title>Node61&#45;&gt;Node42</title>
<path fill="none" stroke="#191970" d="M1525.5625,-492.3906C1506.5876,-483.682 1478.0593,-470.5888 1454.4074,-459.7336"/>
<polygon fill="#191970" stroke="#191970" points="1455.8285,-456.5349 1445.2801,-455.5446 1452.9087,-462.8968 1455.8285,-456.5349"/>
</g>
<!-- Node61&#45;&gt;Node60 -->
<g id="edge117" class="edge">
<title>Node61&#45;&gt;Node60</title>
<path fill="none" stroke="#191970" d="M1465.7773,-496.2828C1445.1489,-494.8524 1423.0054,-493.3436 1402.5,-492 1133.3515,-474.3647 815.3404,-455.2481 660.5753,-446.0552"/>
<polygon fill="#191970" stroke="#191970" points="660.3582,-442.5362 650.1683,-445.4374 659.9433,-449.5239 660.3582,-442.5362"/>
</g>
<!-- Node62 -->
<g id="node47" class="node">
<title>Node62</title>
<polygon fill="none" stroke="#bfbfbf" points="1581,-431 1581,-450 1658,-450 1658,-431 1581,-431"/>
<text text-anchor="middle" x="1619.5" y="-438" font-family="FreeSans.ttf" font-size="10.00" fill="#000000">Eigen/Dense</text>
</g>
<!-- Node61&#45;&gt;Node62 -->
<g id="edge114" class="edge">
<title>Node61&#45;&gt;Node62</title>
<path fill="none" stroke="#191970" d="M1557.9063,-492.3906C1569.1969,-482.8786 1586.6967,-468.1357 1600.1619,-456.7917"/>
<polygon fill="#191970" stroke="#191970" points="1602.5402,-459.3646 1607.9329,-450.2449 1598.0301,-454.0111 1602.5402,-459.3646"/>
</g>
<!-- Node63&#45;&gt;Node5 -->
<g id="edge125" class="edge">
<title>Node63&#45;&gt;Node5</title>
<path fill="none" stroke="#191970" d="M1986.3537,-671.4157C1994.835,-624.6905 2025.9006,-417.8947 1938.5,-291 1900.5736,-235.9357 1827.2307,-208.5815 1772.3249,-195.3181"/>
<polygon fill="#191970" stroke="#191970" points="1772.8313,-191.843 1762.3,-193.002 1771.2555,-198.6633 1772.8313,-191.843"/>
</g>
<!-- Node64&#45;&gt;Node3 -->
<g id="edge131" class="edge">
<title>Node64&#45;&gt;Node3</title>
<path fill="none" stroke="#191970" d="M1331.9822,-609.0839C1316.5288,-607.2978 1300.5377,-605.5276 1285.5,-604 1097.3459,-584.8863 1039.2084,-632.7073 861.5,-568 757.8004,-530.2408 755.9801,-476.7397 658.5,-425 618.6175,-403.8315 589.1543,-426.1561 563.5,-389 547.6152,-365.9934 573.9767,-338.7639 595.1461,-322.0634"/>
<polygon fill="#191970" stroke="#191970" points="597.309,-324.8161 603.1909,-316.0039 593.0974,-319.2247 597.309,-324.8161"/>
</g>
<!-- Node64&#45;&gt;Node5 -->
<g id="edge134" class="edge">
<title>Node64&#45;&gt;Node5</title>
<path fill="none" stroke="#191970" d="M1501.0865,-615.2359C1579.8698,-609.6131 1699.948,-596.7988 1800.5,-568 1868.9586,-548.393 1946.5,-573.211 1946.5,-502 1946.5,-502 1946.5,-502 1946.5,-373.5 1946.5,-273.7652 1818.0226,-218.7287 1747.5233,-196.0362"/>
<polygon fill="#191970" stroke="#191970" points="1748.5687,-192.6961 1737.9797,-193.0476 1746.4767,-199.3762 1748.5687,-192.6961"/>
</g>
<!-- Node64&#45;&gt;Node37 -->
<g id="edge133" class="edge">
<title>Node64&#45;&gt;Node37</title>
<path fill="none" stroke="#191970" d="M1501.0298,-616.5875C1593.4735,-611.8361 1734.1431,-599.5197 1776.5,-568 1811.9122,-541.6482 1826.7419,-488.8348 1832.3925,-460.143"/>
<polygon fill="#191970" stroke="#191970" points="1835.8715,-460.5701 1834.1842,-450.1105 1828.9806,-459.3394 1835.8715,-460.5701"/>
</g>
<!-- Node64&#45;&gt;Node38 -->
<g id="edge135" class="edge">
<title>Node64&#45;&gt;Node38</title>
<path fill="none" stroke="#191970" d="M1331.6697,-608.6273C1316.3213,-606.8982 1300.4471,-605.2656 1285.5,-604 1129.6308,-590.8025 732.5689,-612.1443 582.5,-568 546.5919,-557.4373 509.9053,-533.6671 487.9149,-517.728"/>
<polygon fill="#191970" stroke="#191970" points="489.8207,-514.784 479.7029,-511.6408 485.6522,-520.4076 489.8207,-514.784"/>
</g>
<!-- Node64&#45;&gt;Node39 -->
<g id="edge136" class="edge">
<title>Node64&#45;&gt;Node39</title>
<path fill="none" stroke="#191970" d="M1331.7507,-608.434C1245.8551,-597.2183 1113.8003,-579.9755 1028.5278,-568.8412"/>
<polygon fill="#191970" stroke="#191970" points="1028.7359,-565.3388 1018.3669,-567.5145 1027.8295,-572.2798 1028.7359,-565.3388"/>
</g>
<!-- Node64&#45;&gt;Node47 -->
<g id="edge137" class="edge">
<title>Node64&#45;&gt;Node47</title>
<path fill="none" stroke="#191970" d="M1400.425,-604.4043C1391.4157,-594.8943 1380.9277,-581.8299 1375.5,-568 1369.7276,-553.2918 1368.7136,-535.3433 1369.0117,-521.8785"/>
<polygon fill="#191970" stroke="#191970" points="1372.5123,-521.9481 1369.495,-511.792 1365.5203,-521.613 1372.5123,-521.9481"/>
</g>
<!-- Node64&#45;&gt;Node60 -->
<g id="edge132" class="edge">
<title>Node64&#45;&gt;Node60</title>
<path fill="none" stroke="#191970" d="M1331.9896,-609.0104C1316.5355,-607.2317 1300.5422,-605.4831 1285.5,-604 1083.1837,-584.0524 1027.6267,-613.5586 829.5,-568 733.9325,-546.0246 632.7763,-484.569 588.9304,-455.7634"/>
<polygon fill="#191970" stroke="#191970" points="590.7324,-452.7585 580.4667,-450.1381 586.8577,-458.5884 590.7324,-452.7585"/>
</g>
<!-- Node65 -->
<g id="node50" class="node">
<title>Node65</title>
<g id="a_node50"><a xlink:href="Direction_8h.html" target="_top" xlink:title="iDynTree/Core/Direction.h">
<polygon fill="none" stroke="#000000" points="1921,-235.5 1921,-254.5 2062,-254.5 2062,-235.5 1921,-235.5"/>
<text text-anchor="middle" x="1991.5" y="-242.5" font-family="FreeSans.ttf" font-size="10.00" fill="#000000">iDynTree/Core/Direction.h</text>
</a>
</g>
</g>
<!-- Node64&#45;&gt;Node65 -->
<g id="edge127" class="edge">
<title>Node64&#45;&gt;Node65</title>
<path fill="none" stroke="#191970" d="M1501.2196,-617.1115C1645.8,-612.219 1927.8204,-598.8101 1960.5,-568 2046.7698,-486.6653 2012.1408,-320.746 1997.0938,-264.2993"/>
<polygon fill="#191970" stroke="#191970" points="2000.4295,-263.2299 1994.3872,-254.527 1993.6835,-265.0985 2000.4295,-263.2299"/>
</g>
<!-- Node65&#45;&gt;Node5 -->
<g id="edge129" class="edge">
<title>Node65&#45;&gt;Node5</title>
<path fill="none" stroke="#191970" d="M1946.6608,-235.4581C1895.6157,-224.5956 1812.2202,-206.8488 1757.3447,-195.1711"/>
<polygon fill="#191970" stroke="#191970" points="1757.9539,-191.7224 1747.4444,-193.0643 1756.4968,-198.5691 1757.9539,-191.7224"/>
</g>
<!-- Node65&#45;&gt;Node6 -->
<g id="edge130" class="edge">
<title>Node65&#45;&gt;Node6</title>
<path fill="none" stroke="#191970" d="M1983.5966,-235.3762C1959.967,-206.6027 1889.6042,-120.9228 1858.9935,-83.6485"/>
<polygon fill="#191970" stroke="#191970" points="1861.4938,-81.1782 1852.4424,-75.6714 1856.0841,-85.6207 1861.4938,-81.1782"/>
</g>
<!-- Node65&#45;&gt;Node17 -->
<g id="edge128" class="edge">
<title>Node65&#45;&gt;Node17</title>
<path fill="none" stroke="#191970" d="M1972.8092,-235.4923C1938.1267,-218.3816 1861.0051,-182.8067 1791.5,-168 1492.0239,-104.2023 1404.3572,-188.9298 1103.5,-132 1075.881,-126.7738 1070.9457,-118.0712 1043.5,-112 907.747,-81.9705 741.6813,-70.8996 672.8071,-67.4059"/>
<polygon fill="#191970" stroke="#191970" points="672.7659,-63.8998 662.6073,-66.9085 672.4249,-70.8915 672.7659,-63.8998"/>
</g>
</g>
</svg>
