<?xml version="1.0" encoding="UTF-8" standalone="no"?>
<!DOCTYPE svg PUBLIC "-//W3C//DTD SVG 1.1//EN"
 "http://www.w3.org/Graphics/SVG/1.1/DTD/svg11.dtd">
<!-- Generated by graphviz version 2.40.1 (20161225.0304)
 -->
<!-- Title: idyntree&#45;model&#45;view.cpp Pages: 1 -->
<svg width="2068pt" height="677pt"
 viewBox="0.00 0.00 2067.50 677.00" xmlns="http://www.w3.org/2000/svg" xmlns:xlink="http://www.w3.org/1999/xlink">
<g id="graph0" class="graph" transform="scale(1 1) rotate(0) translate(4 673)">
<title>idyntree&#45;model&#45;view.cpp</title>
<!-- Node0 -->
<g id="node1" class="node">
<title>Node0</title>
<polygon fill="#bfbfbf" stroke="#000000" points="1258,-649.5 1258,-668.5 1396,-668.5 1396,-649.5 1258,-649.5"/>
<text text-anchor="middle" x="1327" y="-656.5" font-family="FreeSans.ttf" font-size="10.00" fill="#000000">idyntree&#45;model&#45;view.cpp</text>
</g>
<!-- Node1 -->
<g id="node2" class="node">
<title>Node1</title>
<g id="a_node2"><a xlink:href="Model_8h.html" target="_top" xlink:title="iDynTree/Model/Model.h">
<polygon fill="none" stroke="#000000" points="936.5,-481.5 936.5,-500.5 1069.5,-500.5 1069.5,-481.5 936.5,-481.5"/>
<text text-anchor="middle" x="1003" y="-488.5" font-family="FreeSans.ttf" font-size="10.00" fill="#000000">iDynTree/Model/Model.h</text>
</a>
</g>
</g>
<!-- Node0&#45;&gt;Node1 -->
<g id="edge1" class="edge">
<title>Node0&#45;&gt;Node1</title>
<path fill="none" stroke="#191970" d="M1257.7859,-653.3641C1193.1135,-646.8825 1102.3934,-634.2951 1074,-613 1043.7882,-590.3412 1055.5125,-569.3332 1036,-537 1030.1822,-527.3596 1022.9627,-517.1353 1016.7611,-508.7804"/>
<polygon fill="#191970" stroke="#191970" points="1019.3702,-506.4279 1010.5458,-500.5643 1013.7875,-510.651 1019.3702,-506.4279"/>
</g>
<!-- Node14 -->
<g id="node33" class="node">
<title>Node14</title>
<polygon fill="none" stroke="#bfbfbf" points="1928,-56.5 1928,-75.5 1988,-75.5 1988,-56.5 1928,-56.5"/>
<text text-anchor="middle" x="1958" y="-63.5" font-family="FreeSans.ttf" font-size="10.00" fill="#000000">iostream</text>
</g>
<!-- Node0&#45;&gt;Node14 -->
<g id="edge117" class="edge">
<title>Node0&#45;&gt;Node14</title>
<path fill="none" stroke="#191970" d="M1396.2567,-655.1148C1572.8327,-644.2881 2026,-610.333 2026,-547 2026,-547 2026,-547 2026,-250.5 2026,-186.1507 1989.1318,-116.5338 1969.6896,-84.2954"/>
<polygon fill="#191970" stroke="#191970" points="1972.5109,-82.203 1964.2754,-75.5377 1966.5569,-85.884 1972.5109,-82.203"/>
</g>
<!-- Node51 -->
<g id="node37" class="node">
<title>Node51</title>
<polygon fill="none" stroke="#bfbfbf" points="1588.5,-369.5 1588.5,-388.5 1637.5,-388.5 1637.5,-369.5 1588.5,-369.5"/>
<text text-anchor="middle" x="1613" y="-376.5" font-family="FreeSans.ttf" font-size="10.00" fill="#000000">cstdlib</text>
</g>
<!-- Node0&#45;&gt;Node51 -->
<g id="edge118" class="edge">
<title>Node0&#45;&gt;Node51</title>
<path fill="none" stroke="#191970" d="M1385.7504,-649.4485C1473.3469,-633.5212 1628,-598.1573 1628,-547 1628,-547 1628,-547 1628,-491 1628,-458.2739 1621.6307,-420.641 1617.193,-398.3923"/>
<polygon fill="#191970" stroke="#191970" points="1620.6058,-397.6123 1615.1491,-388.5307 1613.7515,-399.0329 1620.6058,-397.6123"/>
</g>
<!-- Node53 -->
<g id="node39" class="node">
<title>Node53</title>
<g id="a_node39"><a xlink:href="ModelLoader_8h.html" target="_top" xlink:title="iDynTree/ModelIO/ModelLoader.h">
<polygon fill="none" stroke="#000000" points="1083,-593.5 1083,-612.5 1259,-612.5 1259,-593.5 1083,-593.5"/>
<text text-anchor="middle" x="1171" y="-600.5" font-family="FreeSans.ttf" font-size="10.00" fill="#000000">iDynTree/ModelIO/ModelLoader.h</text>
</a>
</g>
</g>
<!-- Node0&#45;&gt;Node53 -->
<g id="edge70" class="edge">
<title>Node0&#45;&gt;Node53</title>
<path fill="none" stroke="#191970" d="M1300.1826,-649.3733C1274.4668,-640.1419 1235.462,-626.1402 1207.0401,-615.9375"/>
<polygon fill="#191970" stroke="#191970" points="1208.0619,-612.5857 1197.4674,-612.5011 1205.6968,-619.174 1208.0619,-612.5857"/>
</g>
<!-- Node57 -->
<g id="node43" class="node">
<title>Node57</title>
<g id="a_node43"><a xlink:href="Visualizer_8h.html" target="_top" xlink:title="iDynTree/Visualizer.h">
<polygon fill="none" stroke="#000000" points="344.5,-481.5 344.5,-500.5 463.5,-500.5 463.5,-481.5 344.5,-481.5"/>
<text text-anchor="middle" x="404" y="-488.5" font-family="FreeSans.ttf" font-size="10.00" fill="#000000">iDynTree/Visualizer.h</text>
</a>
</g>
</g>
<!-- Node0&#45;&gt;Node57 -->
<g id="edge84" class="edge">
<title>Node0&#45;&gt;Node57</title>
<path fill="none" stroke="#191970" d="M1267.9316,-649.4762C1212.2027,-640.4063 1126.3485,-626.2157 1052,-613 834.2787,-574.2993 576.1737,-524.5395 462.595,-502.4456"/>
<polygon fill="#191970" stroke="#191970" points="463.1957,-498.9969 452.7112,-500.5218 461.8583,-505.868 463.1957,-498.9969"/>
</g>
<!-- Node62 -->
<g id="node48" class="node">
<title>Node62</title>
<g id="a_node48"><a xlink:href="cmdline_8h.html" target="_top" xlink:title="cmdline.h">
<polygon fill="none" stroke="#000000" points="1680.5,-425.5 1680.5,-444.5 1745.5,-444.5 1745.5,-425.5 1680.5,-425.5"/>
<text text-anchor="middle" x="1713" y="-432.5" font-family="FreeSans.ttf" font-size="10.00" fill="#000000">cmdline.h</text>
</a>
</g>
</g>
<!-- Node0&#45;&gt;Node62 -->
<g id="edge106" class="edge">
<title>Node0&#45;&gt;Node62</title>
<path fill="none" stroke="#191970" d="M1396.2077,-656.819C1477.1947,-652.9333 1604.961,-642.2319 1642,-613 1692.4132,-573.2129 1707.1681,-492.2235 1711.3766,-454.7886"/>
<polygon fill="#191970" stroke="#191970" points="1714.8768,-454.9574 1712.3719,-444.663 1707.9103,-454.2726 1714.8768,-454.9574"/>
</g>
<!-- Node2 -->
<g id="node3" class="node">
<title>Node2</title>
<g id="a_node3"><a xlink:href="IJoint_8h.html" target="_top" xlink:title="iDynTree/Model/IJoint.h">
<polygon fill="none" stroke="#000000" points="520,-425.5 520,-444.5 648,-444.5 648,-425.5 520,-425.5"/>
<text text-anchor="middle" x="584" y="-432.5" font-family="FreeSans.ttf" font-size="10.00" fill="#000000">iDynTree/Model/IJoint.h</text>
</a>
</g>
</g>
<!-- Node1&#45;&gt;Node2 -->
<g id="edge2" class="edge">
<title>Node1&#45;&gt;Node2</title>
<path fill="none" stroke="#191970" d="M936.1449,-482.0647C860.4122,-471.9429 737.3185,-455.4912 658.5446,-444.963"/>
<polygon fill="#191970" stroke="#191970" points="658.5861,-441.4375 648.2105,-443.5818 657.6587,-448.3758 658.5861,-441.4375"/>
</g>
<!-- Node3 -->
<g id="node4" class="node">
<title>Node3</title>
<g id="a_node4"><a xlink:href="Indices_8h.html" target="_top" xlink:title="iDynTree/Model/Indices.h">
<polygon fill="none" stroke="#000000" points="470,-369.5 470,-388.5 608,-388.5 608,-369.5 470,-369.5"/>
<text text-anchor="middle" x="539" y="-376.5" font-family="FreeSans.ttf" font-size="10.00" fill="#000000">iDynTree/Model/Indices.h</text>
</a>
</g>
</g>
<!-- Node1&#45;&gt;Node3 -->
<g id="edge61" class="edge">
<title>Node1&#45;&gt;Node3</title>
<path fill="none" stroke="#191970" d="M936.4633,-483.6961C878.8551,-476.5327 793.6059,-463.9104 721,-445 692.4245,-437.5574 617.3347,-409.2387 573.0447,-392.2075"/>
<polygon fill="#191970" stroke="#191970" points="574.1474,-388.8816 563.5577,-388.551 571.6299,-395.4133 574.1474,-388.8816"/>
</g>
<!-- Node5 -->
<g id="node6" class="node">
<title>Node5</title>
<g id="a_node6"><a xlink:href="Link_8h.html" target="_top" xlink:title="iDynTree/Model/Link.h">
<polygon fill="none" stroke="#000000" points="742,-425.5 742,-444.5 866,-444.5 866,-425.5 742,-425.5"/>
<text text-anchor="middle" x="804" y="-432.5" font-family="FreeSans.ttf" font-size="10.00" fill="#000000">iDynTree/Model/Link.h</text>
</a>
</g>
</g>
<!-- Node1&#45;&gt;Node5 -->
<g id="edge5" class="edge">
<title>Node1&#45;&gt;Node5</title>
<path fill="none" stroke="#191970" d="M968.7907,-481.3733C935.2703,-471.9404 884.0495,-457.5265 847.619,-447.2747"/>
<polygon fill="#191970" stroke="#191970" points="848.3372,-443.8409 837.7629,-444.5011 846.4409,-450.5792 848.3372,-443.8409"/>
</g>
<!-- Node48 -->
<g id="node26" class="node">
<title>Node48</title>
<g id="a_node26"><a xlink:href="Transform_8h.html" target="_top" xlink:title="iDynTree/Core/Transform.h">
<polygon fill="none" stroke="#000000" points="664,-369.5 664,-388.5 810,-388.5 810,-369.5 664,-369.5"/>
<text text-anchor="middle" x="737" y="-376.5" font-family="FreeSans.ttf" font-size="10.00" fill="#000000">iDynTree/Core/Transform.h</text>
</a>
</g>
</g>
<!-- Node1&#45;&gt;Node48 -->
<g id="edge32" class="edge">
<title>Node1&#45;&gt;Node48</title>
<path fill="none" stroke="#191970" d="M936.4738,-484.1426C860.8221,-475.661 746.0348,-460.4433 733,-445 722.2755,-432.2938 724.9673,-412.8376 729.3267,-398.3372"/>
<polygon fill="#191970" stroke="#191970" points="732.6568,-399.4167 732.6278,-388.8219 726.0435,-397.1223 732.6568,-399.4167"/>
</g>
<!-- Node50 -->
<g id="node36" class="node">
<title>Node50</title>
<g id="a_node36"><a xlink:href="SolidShapes_8h.html" target="_top" xlink:title="iDynTree/Model/SolidShapes.h">
<polygon fill="none" stroke="#000000" points="1051.5,-425.5 1051.5,-444.5 1214.5,-444.5 1214.5,-425.5 1051.5,-425.5"/>
<text text-anchor="middle" x="1133" y="-432.5" font-family="FreeSans.ttf" font-size="10.00" fill="#000000">iDynTree/Model/SolidShapes.h</text>
</a>
</g>
</g>
<!-- Node1&#45;&gt;Node50 -->
<g id="edge62" class="edge">
<title>Node1&#45;&gt;Node50</title>
<path fill="none" stroke="#191970" d="M1025.3478,-481.3733C1046.4033,-472.3032 1078.1495,-458.6279 1101.7175,-448.4755"/>
<polygon fill="#191970" stroke="#191970" points="1103.1444,-451.6719 1110.9438,-444.5011 1100.375,-445.243 1103.1444,-451.6719"/>
</g>
<!-- Node1&#45;&gt;Node51 -->
<g id="edge68" class="edge">
<title>Node1&#45;&gt;Node51</title>
<path fill="none" stroke="#191970" d="M1069.536,-487.8961C1183.5584,-482.0433 1411.4142,-467.8691 1488,-445 1526.3657,-433.5437 1566.6018,-409.8818 1590.7405,-394.2257"/>
<polygon fill="#191970" stroke="#191970" points="1592.7517,-397.0919 1599.1662,-388.6595 1588.8932,-391.2513 1592.7517,-397.0919"/>
</g>
<!-- Node52 -->
<g id="node38" class="node">
<title>Node52</title>
<polygon fill="none" stroke="#bfbfbf" points="1523.5,-369.5 1523.5,-388.5 1570.5,-388.5 1570.5,-369.5 1523.5,-369.5"/>
<text text-anchor="middle" x="1547" y="-376.5" font-family="FreeSans.ttf" font-size="10.00" fill="#000000">vector</text>
</g>
<!-- Node1&#45;&gt;Node52 -->
<g id="edge69" class="edge">
<title>Node1&#45;&gt;Node52</title>
<path fill="none" stroke="#191970" d="M1069.5319,-488.5478C1178.0417,-483.8345 1387.948,-471.5338 1457,-445 1485.5997,-434.0103 1513.2058,-411.4162 1530.1343,-395.746"/>
<polygon fill="#191970" stroke="#191970" points="1532.7155,-398.1212 1537.5445,-388.6908 1527.8887,-393.0515 1532.7155,-398.1212"/>
</g>
<!-- Node2&#45;&gt;Node3 -->
<g id="edge3" class="edge">
<title>Node2&#45;&gt;Node3</title>
<path fill="none" stroke="#191970" d="M576.1616,-425.2455C569.838,-417.3761 560.7776,-406.101 553.1864,-396.6542"/>
<polygon fill="#191970" stroke="#191970" points="555.7408,-394.2454 546.7486,-388.6427 550.2842,-398.6302 555.7408,-394.2454"/>
</g>
<!-- Node4 -->
<g id="node5" class="node">
<title>Node4</title>
<polygon fill="none" stroke="#bfbfbf" points="526,-56.5 526,-75.5 570,-75.5 570,-56.5 526,-56.5"/>
<text text-anchor="middle" x="548" y="-63.5" font-family="FreeSans.ttf" font-size="10.00" fill="#000000">string</text>
</g>
<!-- Node3&#45;&gt;Node4 -->
<g id="edge4" class="edge">
<title>Node3&#45;&gt;Node4</title>
<path fill="none" stroke="#191970" d="M518.7162,-369.3457C503.3634,-361.2734 482.513,-348.5859 468,-333 434.1105,-296.6051 450.7842,-268.4666 414,-235 384.2581,-207.9406 353.0617,-232.6165 331,-199 323.4405,-187.4813 323.615,-179.6314 331,-168 352.163,-134.6681 461.1101,-94.7287 516.1272,-76.2754"/>
<polygon fill="#191970" stroke="#191970" points="517.3502,-79.5573 525.7392,-73.0862 515.1458,-72.9134 517.3502,-79.5573"/>
</g>
<!-- Node5&#45;&gt;Node3 -->
<g id="edge31" class="edge">
<title>Node5&#45;&gt;Node3</title>
<path fill="none" stroke="#191970" d="M758.746,-425.4369C713.2027,-415.8127 642.9035,-400.957 594.1314,-390.6504"/>
<polygon fill="#191970" stroke="#191970" points="594.575,-387.1669 584.0674,-388.5237 593.1276,-394.0157 594.575,-387.1669"/>
</g>
<!-- Node6 -->
<g id="node7" class="node">
<title>Node6</title>
<g id="a_node7"><a xlink:href="SpatialInertia_8h.html" target="_top" xlink:title="iDynTree/Core/SpatialInertia.h">
<polygon fill="none" stroke="#000000" points="1159,-369.5 1159,-388.5 1321,-388.5 1321,-369.5 1159,-369.5"/>
<text text-anchor="middle" x="1240" y="-376.5" font-family="FreeSans.ttf" font-size="10.00" fill="#000000">iDynTree/Core/SpatialInertia.h</text>
</a>
</g>
</g>
<!-- Node5&#45;&gt;Node6 -->
<g id="edge6" class="edge">
<title>Node5&#45;&gt;Node6</title>
<path fill="none" stroke="#191970" d="M866.0462,-426.3331C869.4126,-425.8783 872.7473,-425.4314 876,-425 970.3814,-412.4826 1078.638,-398.9008 1152.3928,-389.7647"/>
<polygon fill="#191970" stroke="#191970" points="1153.0715,-393.2075 1162.5659,-388.5056 1152.2117,-386.2605 1153.0715,-393.2075"/>
</g>
<!-- Node7 -->
<g id="node8" class="node">
<title>Node7</title>
<g id="a_node8"><a xlink:href="SpatialInertiaRaw_8h.html" target="_top" xlink:title="iDynTree/Core/SpatialInertia\lRaw.h">
<polygon fill="none" stroke="#ff0000" points="1351.5,-302.5 1351.5,-332.5 1504.5,-332.5 1504.5,-302.5 1351.5,-302.5"/>
<text text-anchor="start" x="1359.5" y="-320.5" font-family="FreeSans.ttf" font-size="10.00" fill="#000000">iDynTree/Core/SpatialInertia</text>
<text text-anchor="middle" x="1428" y="-309.5" font-family="FreeSans.ttf" font-size="10.00" fill="#000000">Raw.h</text>
</a>
</g>
</g>
<!-- Node6&#45;&gt;Node7 -->
<g id="edge7" class="edge">
<title>Node6&#45;&gt;Node7</title>
<path fill="none" stroke="#191970" d="M1269.375,-369.3906C1296.821,-360.4123 1338.5135,-346.7735 1372.2676,-335.7316"/>
<polygon fill="#191970" stroke="#191970" points="1373.5939,-338.9803 1382.01,-332.5446 1371.4174,-332.3273 1373.5939,-338.9803"/>
</g>
<!-- Node16 -->
<g id="node9" class="node">
<title>Node16</title>
<g id="a_node9"><a xlink:href="VectorFixSize_8h.html" target="_top" xlink:title="iDynTree/Core/VectorFixSize.h">
<polygon fill="none" stroke="#000000" points="1521.5,-174 1521.5,-193 1682.5,-193 1682.5,-174 1521.5,-174"/>
<text text-anchor="middle" x="1602" y="-181" font-family="FreeSans.ttf" font-size="10.00" fill="#000000">iDynTree/Core/VectorFixSize.h</text>
</a>
</g>
</g>
<!-- Node6&#45;&gt;Node16 -->
<g id="edge8" class="edge">
<title>Node6&#45;&gt;Node16</title>
<path fill="none" stroke="#191970" d="M1321.3155,-375.9473C1438.2775,-370.7083 1642.5056,-358.0605 1665,-333 1700.75,-293.1718 1648.7179,-230.1018 1619.522,-200.2367"/>
<polygon fill="#191970" stroke="#191970" points="1621.8767,-197.6421 1612.3211,-193.066 1616.9374,-202.6023 1621.8767,-197.6421"/>
</g>
<!-- Node25 -->
<g id="node19" class="node">
<title>Node25</title>
<g id="a_node19"><a xlink:href="Twist_8h.html" target="_top" xlink:title="iDynTree/Core/Twist.h">
<polygon fill="none" stroke="#ff0000" points="1007,-308 1007,-327 1129,-327 1129,-308 1007,-308"/>
<text text-anchor="middle" x="1068" y="-315" font-family="FreeSans.ttf" font-size="10.00" fill="#000000">iDynTree/Core/Twist.h</text>
</a>
</g>
</g>
<!-- Node6&#45;&gt;Node25 -->
<g id="edge21" class="edge">
<title>Node6&#45;&gt;Node25</title>
<path fill="none" stroke="#191970" d="M1213.125,-369.3906C1183.8414,-358.92 1136.831,-342.1111 1104.2863,-330.4745"/>
<polygon fill="#191970" stroke="#191970" points="1105.2809,-327.1131 1094.6863,-327.0419 1102.9241,-333.7045 1105.2809,-327.1131"/>
</g>
<!-- Node41 -->
<g id="node20" class="node">
<title>Node41</title>
<g id="a_node20"><a xlink:href="SpatialMomentum_8h.html" target="_top" xlink:title="iDynTree/Core/SpatialMomentum.h">
<polygon fill="none" stroke="#000000" points="1147,-308 1147,-327 1333,-327 1333,-308 1147,-308"/>
<text text-anchor="middle" x="1240" y="-315" font-family="FreeSans.ttf" font-size="10.00" fill="#000000">iDynTree/Core/SpatialMomentum.h</text>
</a>
</g>
</g>
<!-- Node6&#45;&gt;Node41 -->
<g id="edge22" class="edge">
<title>Node6&#45;&gt;Node41</title>
<path fill="none" stroke="#191970" d="M1240,-369.3906C1240,-360.8657 1240,-348.1392 1240,-337.4235"/>
<polygon fill="#191970" stroke="#191970" points="1243.5001,-337.2448 1240,-327.2449 1236.5001,-337.2449 1243.5001,-337.2448"/>
</g>
<!-- Node46 -->
<g id="node24" class="node">
<title>Node46</title>
<g id="a_node24"><a xlink:href="SpatialAcc_8h.html" target="_top" xlink:title="iDynTree/Core/SpatialAcc.h">
<polygon fill="none" stroke="#ff0000" points="803,-308 803,-327 951,-327 951,-308 803,-308"/>
<text text-anchor="middle" x="877" y="-315" font-family="FreeSans.ttf" font-size="10.00" fill="#000000">iDynTree/Core/SpatialAcc.h</text>
</a>
</g>
</g>
<!-- Node6&#45;&gt;Node46 -->
<g id="edge28" class="edge">
<title>Node6&#45;&gt;Node46</title>
<path fill="none" stroke="#191970" d="M1183.6795,-369.4581C1118.671,-358.4443 1011.8888,-340.3531 943.0289,-328.6867"/>
<polygon fill="#191970" stroke="#191970" points="943.5981,-325.2333 933.1539,-327.0137 942.4287,-332.135 943.5981,-325.2333"/>
</g>
<!-- Node47 -->
<g id="node25" class="node">
<title>Node47</title>
<g id="a_node25"><a xlink:href="Wrench_8h.html" target="_top" xlink:title="iDynTree/Core/Wrench.h">
<polygon fill="none" stroke="#000000" points="1522.5,-308 1522.5,-327 1655.5,-327 1655.5,-308 1522.5,-308"/>
<text text-anchor="middle" x="1589" y="-315" font-family="FreeSans.ttf" font-size="10.00" fill="#000000">iDynTree/Core/Wrench.h</text>
</a>
</g>
</g>
<!-- Node6&#45;&gt;Node47 -->
<g id="edge29" class="edge">
<title>Node6&#45;&gt;Node47</title>
<path fill="none" stroke="#191970" d="M1300.788,-369.4645C1356.389,-360.5836 1440.8678,-346.6909 1514,-333 1520.5855,-331.7671 1527.4844,-330.4191 1534.3181,-329.0489"/>
<polygon fill="#191970" stroke="#191970" points="1535.1348,-332.4546 1544.2395,-327.0366 1533.7433,-325.5943 1535.1348,-332.4546"/>
</g>
<!-- Node16&#45;&gt;Node4 -->
<g id="edge17" class="edge">
<title>Node16&#45;&gt;Node4</title>
<path fill="none" stroke="#191970" d="M1547.0806,-173.9758C1465.2484,-159.7706 1319.618,-134.4316 1308,-132 1271.2828,-124.3151 1263.0718,-117.7352 1226,-112 1099.0875,-92.3661 697.7074,-72.8591 580.4584,-67.4621"/>
<polygon fill="#191970" stroke="#191970" points="580.4747,-63.9593 570.3251,-66.9984 580.1546,-70.952 580.4747,-63.9593"/>
</g>
<!-- Node10 -->
<g id="node10" class="node">
<title>Node10</title>
<g id="a_node10"><a xlink:href="Utils_8h.html" target="_top" xlink:title="iDynTree/Core/Utils.h">
<polygon fill="none" stroke="#000000" points="1190.5,-56.5 1190.5,-75.5 1309.5,-75.5 1309.5,-56.5 1190.5,-56.5"/>
<text text-anchor="middle" x="1250" y="-63.5" font-family="FreeSans.ttf" font-size="10.00" fill="#000000">iDynTree/Core/Utils.h</text>
</a>
</g>
</g>
<!-- Node16&#45;&gt;Node10 -->
<g id="edge9" class="edge">
<title>Node16&#45;&gt;Node10</title>
<path fill="none" stroke="#191970" d="M1590.0376,-173.969C1569.9684,-158.4806 1527.7054,-127.9748 1487,-112 1432.9078,-90.7716 1367.8953,-79.0449 1319.6548,-72.7544"/>
<polygon fill="#191970" stroke="#191970" points="1319.9839,-69.2683 1309.6253,-71.4932 1319.1104,-76.2136 1319.9839,-69.2683"/>
</g>
<!-- Node17 -->
<g id="node12" class="node">
<title>Node17</title>
<g id="a_node12"><a xlink:href="Span_8h.html" target="_top" xlink:title="iDynTree/Core/Span.h">
<polygon fill="none" stroke="#ff0000" points="1724.5,-112.5 1724.5,-131.5 1845.5,-131.5 1845.5,-112.5 1724.5,-112.5"/>
<text text-anchor="middle" x="1785" y="-119.5" font-family="FreeSans.ttf" font-size="10.00" fill="#000000">iDynTree/Core/Span.h</text>
</a>
</g>
</g>
<!-- Node16&#45;&gt;Node17 -->
<g id="edge11" class="edge">
<title>Node16&#45;&gt;Node17</title>
<path fill="none" stroke="#191970" d="M1630.5938,-173.8906C1661.8845,-163.3749 1712.1986,-146.466 1746.84,-134.8243"/>
<polygon fill="#191970" stroke="#191970" points="1748.243,-138.0452 1756.607,-131.5419 1746.013,-131.4099 1748.243,-138.0452"/>
</g>
<!-- Node12 -->
<g id="node13" class="node">
<title>Node12</title>
<polygon fill="none" stroke="#bfbfbf" points="1654,-56.5 1654,-75.5 1706,-75.5 1706,-56.5 1654,-56.5"/>
<text text-anchor="middle" x="1680" y="-63.5" font-family="FreeSans.ttf" font-size="10.00" fill="#000000">cassert</text>
</g>
<!-- Node16&#45;&gt;Node12 -->
<g id="edge19" class="edge">
<title>Node16&#45;&gt;Node12</title>
<path fill="none" stroke="#191970" d="M1608.3831,-173.8845C1621.3526,-154.3471 1650.9766,-109.7211 1667.7785,-84.4106"/>
<polygon fill="#191970" stroke="#191970" points="1670.9141,-86.0155 1673.5287,-75.7484 1665.0821,-82.1441 1670.9141,-86.0155"/>
</g>
<!-- Node15 -->
<g id="node17" class="node">
<title>Node15</title>
<polygon fill="none" stroke="#bfbfbf" points="1580,-56.5 1580,-75.5 1636,-75.5 1636,-56.5 1580,-56.5"/>
<text text-anchor="middle" x="1608" y="-63.5" font-family="FreeSans.ttf" font-size="10.00" fill="#000000">sstream</text>
</g>
<!-- Node16&#45;&gt;Node15 -->
<g id="edge18" class="edge">
<title>Node16&#45;&gt;Node15</title>
<path fill="none" stroke="#191970" d="M1602.491,-173.8845C1603.4711,-154.6913 1605.6875,-111.286 1606.9907,-85.7663"/>
<polygon fill="#191970" stroke="#191970" points="1610.4876,-85.9139 1607.5022,-75.7484 1603.4967,-85.5568 1610.4876,-85.9139"/>
</g>
<!-- Node13 -->
<g id="node18" class="node">
<title>Node13</title>
<polygon fill="none" stroke="#bfbfbf" points="1512,-56.5 1512,-75.5 1562,-75.5 1562,-56.5 1512,-56.5"/>
<text text-anchor="middle" x="1537" y="-63.5" font-family="FreeSans.ttf" font-size="10.00" fill="#000000">cstring</text>
</g>
<!-- Node16&#45;&gt;Node13 -->
<g id="edge20" class="edge">
<title>Node16&#45;&gt;Node13</title>
<path fill="none" stroke="#191970" d="M1595.0493,-173.8909C1587.8522,-163.7391 1576.4928,-147.1364 1568,-132 1559.3974,-116.6678 1551.0055,-98.5477 1545.1272,-85.1764"/>
<polygon fill="#191970" stroke="#191970" points="1548.1753,-83.4065 1540.9959,-75.615 1541.7495,-86.183 1548.1753,-83.4065"/>
</g>
<!-- Node11 -->
<g id="node11" class="node">
<title>Node11</title>
<polygon fill="none" stroke="#bfbfbf" points="1468.5,-.5 1468.5,-19.5 1521.5,-19.5 1521.5,-.5 1468.5,-.5"/>
<text text-anchor="middle" x="1495" y="-7.5" font-family="FreeSans.ttf" font-size="10.00" fill="#000000">cstddef</text>
</g>
<!-- Node10&#45;&gt;Node11 -->
<g id="edge10" class="edge">
<title>Node10&#45;&gt;Node11</title>
<path fill="none" stroke="#191970" d="M1291.8386,-56.4369C1338.7521,-45.7138 1414.078,-28.4965 1458.6323,-18.3126"/>
<polygon fill="#191970" stroke="#191970" points="1459.4872,-21.7076 1468.4559,-16.0672 1457.9274,-14.8836 1459.4872,-21.7076"/>
</g>
<!-- Node17&#45;&gt;Node11 -->
<g id="edge14" class="edge">
<title>Node17&#45;&gt;Node11</title>
<path fill="none" stroke="#191970" d="M1777.5898,-112.1699C1765.9601,-97.4905 1741.949,-70.0662 1715,-56 1683.5431,-39.5808 1585.7409,-23.2737 1531.7408,-15.2068"/>
<polygon fill="#191970" stroke="#191970" points="1531.961,-11.7015 1521.5574,-13.7057 1530.9401,-18.6266 1531.961,-11.7015"/>
</g>
<!-- Node17&#45;&gt;Node12 -->
<g id="edge12" class="edge">
<title>Node17&#45;&gt;Node12</title>
<path fill="none" stroke="#191970" d="M1766.7104,-112.2455C1750.2238,-103.4527 1725.7648,-90.4079 1707.0235,-80.4125"/>
<polygon fill="#191970" stroke="#191970" points="1708.5506,-77.2604 1698.08,-75.6427 1705.2565,-83.4368 1708.5506,-77.2604"/>
</g>
<!-- Node18 -->
<g id="node14" class="node">
<title>Node18</title>
<polygon fill="none" stroke="#bfbfbf" points="1762,-56.5 1762,-75.5 1826,-75.5 1826,-56.5 1762,-56.5"/>
<text text-anchor="middle" x="1794" y="-63.5" font-family="FreeSans.ttf" font-size="10.00" fill="#000000">algorithm</text>
</g>
<!-- Node17&#45;&gt;Node18 -->
<g id="edge13" class="edge">
<title>Node17&#45;&gt;Node18</title>
<path fill="none" stroke="#191970" d="M1786.5677,-112.2455C1787.7421,-104.9382 1789.3884,-94.6944 1790.8332,-85.7046"/>
<polygon fill="#191970" stroke="#191970" points="1794.3191,-86.0714 1792.4503,-75.6427 1787.4078,-84.9606 1794.3191,-86.0714"/>
</g>
<!-- Node20 -->
<g id="node15" class="node">
<title>Node20</title>
<polygon fill="none" stroke="#bfbfbf" points="2006.5,-56.5 2006.5,-75.5 2059.5,-75.5 2059.5,-56.5 2006.5,-56.5"/>
<text text-anchor="middle" x="2033" y="-63.5" font-family="FreeSans.ttf" font-size="10.00" fill="#000000">iterator</text>
</g>
<!-- Node17&#45;&gt;Node20 -->
<g id="edge15" class="edge">
<title>Node17&#45;&gt;Node20</title>
<path fill="none" stroke="#191970" d="M1832.7519,-112.4534C1873.6497,-104.0937 1934.3287,-91.2576 1996.3464,-76.0571"/>
<polygon fill="#191970" stroke="#191970" points="1997.439,-79.3926 2006.3085,-73.5976 1995.7611,-72.5966 1997.439,-79.3926"/>
</g>
<!-- Node22 -->
<g id="node16" class="node">
<title>Node22</title>
<polygon fill="none" stroke="#bfbfbf" points="1844.5,-56.5 1844.5,-75.5 1909.5,-75.5 1909.5,-56.5 1844.5,-56.5"/>
<text text-anchor="middle" x="1877" y="-63.5" font-family="FreeSans.ttf" font-size="10.00" fill="#000000">stdexcept</text>
</g>
<!-- Node17&#45;&gt;Node22 -->
<g id="edge16" class="edge">
<title>Node17&#45;&gt;Node22</title>
<path fill="none" stroke="#191970" d="M1801.0252,-112.2455C1815.1408,-103.6534 1835.9263,-91.0014 1852.1899,-81.1018"/>
<polygon fill="#191970" stroke="#191970" points="1854.4363,-83.8319 1861.1585,-75.6427 1850.7966,-77.8525 1854.4363,-83.8319"/>
</g>
<!-- Node42 -->
<g id="node21" class="node">
<title>Node42</title>
<g id="a_node21"><a xlink:href="SpatialForceVector_8h.html" target="_top" xlink:title="iDynTree/Core/SpatialForce\lVector.h">
<polygon fill="none" stroke="#ff0000" points="1434,-235.5 1434,-265.5 1582,-265.5 1582,-235.5 1434,-235.5"/>
<text text-anchor="start" x="1442" y="-253.5" font-family="FreeSans.ttf" font-size="10.00" fill="#000000">iDynTree/Core/SpatialForce</text>
<text text-anchor="middle" x="1508" y="-242.5" font-family="FreeSans.ttf" font-size="10.00" fill="#000000">Vector.h</text>
</a>
</g>
</g>
<!-- Node41&#45;&gt;Node42 -->
<g id="edge23" class="edge">
<title>Node41&#45;&gt;Node42</title>
<path fill="none" stroke="#191970" d="M1278.1133,-307.9717C1319.5701,-297.6075 1386.7406,-280.8148 1437.795,-268.0512"/>
<polygon fill="#191970" stroke="#191970" points="1438.9261,-271.3763 1447.7786,-265.5553 1437.2283,-264.5853 1438.9261,-271.3763"/>
</g>
<!-- Node42&#45;&gt;Node16 -->
<g id="edge24" class="edge">
<title>Node42&#45;&gt;Node16</title>
<path fill="none" stroke="#191970" d="M1529.3301,-235.2967C1544.5445,-224.4524 1564.9357,-209.9182 1580.2453,-199.006"/>
<polygon fill="#191970" stroke="#191970" points="1582.4828,-201.7093 1588.5945,-193.055 1578.4198,-196.0091 1582.4828,-201.7093"/>
</g>
<!-- Node43 -->
<g id="node22" class="node">
<title>Node43</title>
<g id="a_node22"><a xlink:href="LinearForceVector3_8h.html" target="_top" xlink:title="iDynTree/Core/LinearForce\lVector3.h">
<polygon fill="none" stroke="#ff0000" points="1189,-168.5 1189,-198.5 1333,-198.5 1333,-168.5 1189,-168.5"/>
<text text-anchor="start" x="1197" y="-186.5" font-family="FreeSans.ttf" font-size="10.00" fill="#000000">iDynTree/Core/LinearForce</text>
<text text-anchor="middle" x="1261" y="-175.5" font-family="FreeSans.ttf" font-size="10.00" fill="#000000">Vector3.h</text>
</a>
</g>
</g>
<!-- Node42&#45;&gt;Node43 -->
<g id="edge25" class="edge">
<title>Node42&#45;&gt;Node43</title>
<path fill="none" stroke="#191970" d="M1452.5684,-235.4639C1415.1986,-225.3272 1365.7367,-211.9104 1326.4334,-201.2491"/>
<polygon fill="#191970" stroke="#191970" points="1327.2409,-197.8418 1316.6734,-198.6017 1325.4083,-204.5976 1327.2409,-197.8418"/>
</g>
<!-- Node45 -->
<g id="node23" class="node">
<title>Node45</title>
<g id="a_node23"><a xlink:href="AngularForceVector3_8h.html" target="_top" xlink:title="iDynTree/Core/AngularForce\lVector3.h">
<polygon fill="none" stroke="#ff0000" points="1351,-168.5 1351,-198.5 1503,-198.5 1503,-168.5 1351,-168.5"/>
<text text-anchor="start" x="1359" y="-186.5" font-family="FreeSans.ttf" font-size="10.00" fill="#000000">iDynTree/Core/AngularForce</text>
<text text-anchor="middle" x="1427" y="-175.5" font-family="FreeSans.ttf" font-size="10.00" fill="#000000">Vector3.h</text>
</a>
</g>
</g>
<!-- Node42&#45;&gt;Node45 -->
<g id="edge26" class="edge">
<title>Node42&#45;&gt;Node45</title>
<path fill="none" stroke="#191970" d="M1489.6198,-235.2967C1478.8492,-226.3876 1465.0678,-214.9882 1453.1771,-205.1527"/>
<polygon fill="#191970" stroke="#191970" points="1455.2438,-202.32 1445.3074,-198.6432 1450.7822,-207.7139 1455.2438,-202.32"/>
</g>
<!-- Node45&#45;&gt;Node10 -->
<g id="edge27" class="edge">
<title>Node45&#45;&gt;Node10</title>
<path fill="none" stroke="#191970" d="M1379.5549,-168.474C1356.6673,-159.8971 1329.5686,-147.6973 1308,-132 1289.6153,-118.6199 1272.976,-98.4447 1262.2826,-83.924"/>
<polygon fill="#191970" stroke="#191970" points="1265.0888,-81.831 1256.4304,-75.7249 1259.3912,-85.8976 1265.0888,-81.831"/>
</g>
<!-- Node47&#45;&gt;Node42 -->
<g id="edge30" class="edge">
<title>Node47&#45;&gt;Node42</title>
<path fill="none" stroke="#191970" d="M1577.3947,-307.9005C1566.1004,-298.5583 1548.5505,-284.0417 1533.926,-271.945"/>
<polygon fill="#191970" stroke="#191970" points="1536.097,-269.1986 1526.1606,-265.5218 1531.6354,-274.5925 1536.097,-269.1986"/>
</g>
<!-- Node48&#45;&gt;Node4 -->
<g id="edge60" class="edge">
<title>Node48&#45;&gt;Node4</title>
<path fill="none" stroke="#191970" d="M686.3155,-369.4516C644.3791,-360.7487 588.8978,-347.1296 571,-333 492.8335,-271.2908 519.3421,-210.5047 534,-112 535.3327,-103.0439 538.0494,-93.419 540.7381,-85.3"/>
<polygon fill="#191970" stroke="#191970" points="544.1067,-86.272 544.1376,-75.6772 537.5064,-83.9402 544.1067,-86.272"/>
</g>
<!-- Node36 -->
<g id="node27" class="node">
<title>Node36</title>
<g id="a_node27"><a xlink:href="Position_8h.html" target="_top" xlink:title="Position.h">
<polygon fill="none" stroke="#000000" points="314.5,-308 314.5,-327 379.5,-327 379.5,-308 314.5,-308"/>
<text text-anchor="middle" x="347" y="-315" font-family="FreeSans.ttf" font-size="10.00" fill="#000000">Position.h</text>
</a>
</g>
</g>
<!-- Node48&#45;&gt;Node36 -->
<g id="edge33" class="edge">
<title>Node48&#45;&gt;Node36</title>
<path fill="none" stroke="#191970" d="M676.4904,-369.4581C597.0214,-356.9265 459.4492,-335.2324 389.8994,-324.2649"/>
<polygon fill="#191970" stroke="#191970" points="390.1664,-320.7638 379.7433,-322.6634 389.076,-327.6784 390.1664,-320.7638"/>
</g>
<!-- Node30 -->
<g id="node30" class="node">
<title>Node30</title>
<g id="a_node30"><a xlink:href="Rotation_8h.html" target="_top" xlink:title="iDynTree/Core/Rotation.h">
<polygon fill="none" stroke="#000000" points="576.5,-241 576.5,-260 713.5,-260 713.5,-241 576.5,-241"/>
<text text-anchor="middle" x="645" y="-248" font-family="FreeSans.ttf" font-size="10.00" fill="#000000">iDynTree/Core/Rotation.h</text>
</a>
</g>
</g>
<!-- Node48&#45;&gt;Node30 -->
<g id="edge55" class="edge">
<title>Node48&#45;&gt;Node30</title>
<path fill="none" stroke="#191970" d="M723.2575,-369.2799C711.9019,-360.7211 695.9272,-347.4039 685,-333 670.1018,-313.3617 658.5909,-287.2935 651.8209,-269.7608"/>
<polygon fill="#191970" stroke="#191970" points="654.9897,-268.2396 648.2304,-260.081 648.4267,-270.6741 654.9897,-268.2396"/>
</g>
<!-- Node9 -->
<g id="node32" class="node">
<title>Node9</title>
<g id="a_node32"><a xlink:href="MatrixFixSize_8h.html" target="_top" xlink:title="iDynTree/Core/MatrixFixSize.h">
<polygon fill="none" stroke="#000000" points="1316.5,-112.5 1316.5,-131.5 1477.5,-131.5 1477.5,-112.5 1316.5,-112.5"/>
<text text-anchor="middle" x="1397" y="-119.5" font-family="FreeSans.ttf" font-size="10.00" fill="#000000">iDynTree/Core/MatrixFixSize.h</text>
</a>
</g>
</g>
<!-- Node48&#45;&gt;Node9 -->
<g id="edge59" class="edge">
<title>Node48&#45;&gt;Node9</title>
<path fill="none" stroke="#191970" d="M740.9669,-369.4558C748.5208,-352.6141 766.691,-317.9016 794,-302 908.5244,-235.314 972.1148,-326.547 1090,-266 1142.6035,-238.9823 1128.6338,-197.3018 1180,-168 1203.8048,-154.4206 1268.2145,-141.722 1320.7212,-133.1223"/>
<polygon fill="#191970" stroke="#191970" points="1321.3956,-136.5588 1330.7109,-131.5115 1320.2812,-129.6481 1321.3956,-136.5588"/>
</g>
<!-- Node49 -->
<g id="node35" class="node">
<title>Node49</title>
<g id="a_node35"><a xlink:href="TransformSemantics_8h.html" target="_top" xlink:title="iDynTree/Core/TransformSemantics.h">
<polygon fill="none" stroke="#000000" points="986.5,-112.5 986.5,-131.5 1183.5,-131.5 1183.5,-112.5 986.5,-112.5"/>
<text text-anchor="middle" x="1085" y="-119.5" font-family="FreeSans.ttf" font-size="10.00" fill="#000000">iDynTree/Core/TransformSemantics.h</text>
</a>
</g>
</g>
<!-- Node48&#45;&gt;Node49 -->
<g id="edge56" class="edge">
<title>Node48&#45;&gt;Node49</title>
<path fill="none" stroke="#191970" d="M736.8871,-369.4117C737.2603,-352.8179 740.638,-318.9043 761,-302 866.3614,-214.5301 969.8201,-362.4783 1067,-266 1099.9628,-233.2751 1094.7842,-173.0027 1089.3044,-141.8314"/>
<polygon fill="#191970" stroke="#191970" points="1092.6915,-140.914 1087.3419,-131.7689 1085.8209,-142.2539 1092.6915,-140.914"/>
</g>
<!-- Node36&#45;&gt;Node4 -->
<g id="edge54" class="edge">
<title>Node36&#45;&gt;Node4</title>
<path fill="none" stroke="#191970" d="M314.3509,-311.4631C289.2373,-304.9205 256.1812,-291.7461 240,-266 232.6685,-254.3348 235.6587,-248.0759 240,-235 261.5104,-170.2107 274.4733,-148.7562 332,-112 362.151,-92.7353 463.1506,-77.1103 515.6653,-70.0578"/>
<polygon fill="#191970" stroke="#191970" points="516.3326,-73.5002 525.7897,-68.7238 515.4181,-66.5602 516.3326,-73.5002"/>
</g>
<!-- Node37 -->
<g id="node28" class="node">
<title>Node37</title>
<g id="a_node28"><a xlink:href="PositionRaw_8h.html" target="_top" xlink:title="iDynTree/Core/PositionRaw.h">
<polygon fill="none" stroke="#000000" points="249,-241 249,-260 405,-260 405,-241 249,-241"/>
<text text-anchor="middle" x="327" y="-248" font-family="FreeSans.ttf" font-size="10.00" fill="#000000">iDynTree/Core/PositionRaw.h</text>
</a>
</g>
</g>
<!-- Node36&#45;&gt;Node37 -->
<g id="edge34" class="edge">
<title>Node36&#45;&gt;Node37</title>
<path fill="none" stroke="#191970" d="M344.1345,-307.9005C341.1939,-298.0495 336.5358,-282.4451 332.8183,-269.9912"/>
<polygon fill="#191970" stroke="#191970" points="336.0744,-268.6627 329.8602,-260.0817 329.3669,-270.665 336.0744,-268.6627"/>
</g>
<!-- Node38 -->
<g id="node29" class="node">
<title>Node38</title>
<g id="a_node29"><a xlink:href="PositionSemantics_8h.html" target="_top" xlink:title="iDynTree/Core/PositionSemantics.h">
<polygon fill="none" stroke="#000000" points="103.5,-112.5 103.5,-131.5 290.5,-131.5 290.5,-112.5 103.5,-112.5"/>
<text text-anchor="middle" x="197" y="-119.5" font-family="FreeSans.ttf" font-size="10.00" fill="#000000">iDynTree/Core/PositionSemantics.h</text>
</a>
</g>
</g>
<!-- Node36&#45;&gt;Node38 -->
<g id="edge37" class="edge">
<title>Node36&#45;&gt;Node38</title>
<path fill="none" stroke="#191970" d="M314.3626,-309.8468C277.2776,-300.4401 220.1746,-283.5546 207,-266 179.5228,-229.3879 186.166,-171.7093 192.2271,-141.6676"/>
<polygon fill="#191970" stroke="#191970" points="195.7096,-142.1281 194.4492,-131.6085 188.8744,-140.6181 195.7096,-142.1281"/>
</g>
<!-- Node36&#45;&gt;Node30 -->
<g id="edge39" class="edge">
<title>Node36&#45;&gt;Node30</title>
<path fill="none" stroke="#191970" d="M379.7437,-310.1382C431.1606,-298.578 531.2952,-276.0645 592.7484,-262.2478"/>
<polygon fill="#191970" stroke="#191970" points="593.6483,-265.633 602.637,-260.0246 592.1128,-258.8034 593.6483,-265.633"/>
</g>
<!-- Node37&#45;&gt;Node4 -->
<g id="edge36" class="edge">
<title>Node37&#45;&gt;Node4</title>
<path fill="none" stroke="#191970" d="M318.7234,-240.9694C306.0982,-225.2074 284.8147,-192.9713 298,-168 318.6065,-128.974 339.9447,-130.5264 380,-112 425.0211,-91.1768 481.3215,-78.1528 515.9631,-71.4825"/>
<polygon fill="#191970" stroke="#191970" points="516.7929,-74.8882 525.9821,-69.6148 515.51,-68.0067 516.7929,-74.8882"/>
</g>
<!-- Node37&#45;&gt;Node16 -->
<g id="edge35" class="edge">
<title>Node37&#45;&gt;Node16</title>
<path fill="none" stroke="#191970" d="M405.1168,-244.9577C452.2696,-241.7414 513.5666,-237.7879 568,-235 987.3109,-213.5243 1094.4226,-242.7259 1512,-199 1522.2768,-197.9239 1533.154,-196.3911 1543.6599,-194.704"/>
<polygon fill="#191970" stroke="#191970" points="1544.2988,-198.1458 1553.587,-193.0489 1543.1476,-191.2411 1544.2988,-198.1458"/>
</g>
<!-- Node38&#45;&gt;Node4 -->
<g id="edge38" class="edge">
<title>Node38&#45;&gt;Node4</title>
<path fill="none" stroke="#191970" d="M256.9402,-112.4369C331.7773,-100.4971 457.0809,-80.5056 515.7994,-71.1374"/>
<polygon fill="#191970" stroke="#191970" points="516.6377,-74.548 525.9614,-69.5161 515.5348,-67.6354 516.6377,-74.548"/>
</g>
<!-- Node30&#45;&gt;Node4 -->
<g id="edge40" class="edge">
<title>Node30&#45;&gt;Node4</title>
<path fill="none" stroke="#191970" d="M639.9214,-240.8402C624.5344,-211.5732 578.2378,-123.5142 557.8366,-84.7099"/>
<polygon fill="#191970" stroke="#191970" points="560.7798,-82.7867 553.0283,-75.5641 554.5839,-86.0441 560.7798,-82.7867"/>
</g>
<!-- Node30&#45;&gt;Node16 -->
<g id="edge53" class="edge">
<title>Node30&#45;&gt;Node16</title>
<path fill="none" stroke="#191970" d="M686.9131,-240.9666C698.5429,-238.6508 711.2131,-236.4318 723,-235 1071.47,-192.6709 1163.0165,-236.863 1512,-199 1522.0486,-197.9098 1532.6737,-196.4013 1542.965,-194.7506"/>
<polygon fill="#191970" stroke="#191970" points="1543.8213,-198.1563 1553.1113,-193.0626 1542.6725,-191.2512 1543.8213,-198.1563"/>
</g>
<!-- Node31 -->
<g id="node31" class="node">
<title>Node31</title>
<g id="a_node31"><a xlink:href="RotationRaw_8h.html" target="_top" xlink:title="iDynTree/Core/RotationRaw.h">
<polygon fill="none" stroke="#000000" points="861,-174 861,-193 1019,-193 1019,-174 861,-174"/>
<text text-anchor="middle" x="940" y="-181" font-family="FreeSans.ttf" font-size="10.00" fill="#000000">iDynTree/Core/RotationRaw.h</text>
</a>
</g>
</g>
<!-- Node30&#45;&gt;Node31 -->
<g id="edge41" class="edge">
<title>Node30&#45;&gt;Node31</title>
<path fill="none" stroke="#191970" d="M686.953,-240.9717C739.7745,-228.975 830.5192,-208.3651 887.778,-195.3606"/>
<polygon fill="#191970" stroke="#191970" points="888.7376,-198.7319 897.7141,-193.1039 887.1872,-191.9057 888.7376,-198.7319"/>
</g>
<!-- Node32 -->
<g id="node34" class="node">
<title>Node32</title>
<g id="a_node34"><a xlink:href="RotationSemantics_8h.html" target="_top" xlink:title="iDynTree/Core/RotationSemantics.h">
<polygon fill="none" stroke="#000000" points="614,-112.5 614,-131.5 802,-131.5 802,-112.5 614,-112.5"/>
<text text-anchor="middle" x="708" y="-119.5" font-family="FreeSans.ttf" font-size="10.00" fill="#000000">iDynTree/Core/RotationSemantics.h</text>
</a>
</g>
</g>
<!-- Node30&#45;&gt;Node32 -->
<g id="edge50" class="edge">
<title>Node30&#45;&gt;Node32</title>
<path fill="none" stroke="#191970" d="M649.7352,-240.8416C660.1336,-219.6323 685.12,-168.6679 698.7501,-140.8669"/>
<polygon fill="#191970" stroke="#191970" points="701.9503,-142.2902 703.2098,-131.7705 695.665,-139.2086 701.9503,-142.2902"/>
</g>
<!-- Node31&#45;&gt;Node4 -->
<g id="edge49" class="edge">
<title>Node31&#45;&gt;Node4</title>
<path fill="none" stroke="#191970" d="M935.3062,-173.9147C926.9857,-158.0601 908.0412,-126.6714 882,-112 830.7202,-83.1094 653.8843,-71.2222 580.4088,-67.4529"/>
<polygon fill="#191970" stroke="#191970" points="580.5062,-63.9535 570.3454,-66.9546 580.16,-70.9449 580.5062,-63.9535"/>
</g>
<!-- Node31&#45;&gt;Node9 -->
<g id="edge42" class="edge">
<title>Node31&#45;&gt;Node9</title>
<path fill="none" stroke="#191970" d="M1010.6546,-173.9918C1093.1972,-162.8837 1229.4795,-144.5438 1316.165,-132.8782"/>
<polygon fill="#191970" stroke="#191970" points="1316.7782,-136.3274 1326.222,-131.5248 1315.8445,-129.3899 1316.7782,-136.3274"/>
</g>
<!-- Node9&#45;&gt;Node4 -->
<g id="edge46" class="edge">
<title>Node9&#45;&gt;Node4</title>
<path fill="none" stroke="#191970" d="M1316.4297,-113.2715C1311.5492,-112.8196 1306.7103,-112.3914 1302,-112 1023.0348,-88.8193 685.092,-72.3153 580.4507,-67.469"/>
<polygon fill="#191970" stroke="#191970" points="580.3811,-63.9622 570.2307,-66.9985 580.0591,-70.9548 580.3811,-63.9622"/>
</g>
<!-- Node9&#45;&gt;Node10 -->
<g id="edge43" class="edge">
<title>Node9&#45;&gt;Node10</title>
<path fill="none" stroke="#191970" d="M1371.7298,-112.3733C1347.6034,-103.1822 1311.0638,-89.2624 1284.3123,-79.0713"/>
<polygon fill="#191970" stroke="#191970" points="1285.5313,-75.7904 1274.9404,-75.5011 1283.0393,-82.3318 1285.5313,-75.7904"/>
</g>
<!-- Node9&#45;&gt;Node12 -->
<g id="edge44" class="edge">
<title>Node9&#45;&gt;Node12</title>
<path fill="none" stroke="#191970" d="M1457.2161,-112.4756C1505.3796,-104.4826 1574.7999,-92.1259 1643.9443,-76.0915"/>
<polygon fill="#191970" stroke="#191970" points="1644.76,-79.4953 1653.6969,-73.8047 1643.1619,-72.6801 1644.76,-79.4953"/>
</g>
<!-- Node9&#45;&gt;Node15 -->
<g id="edge48" class="edge">
<title>Node9&#45;&gt;Node15</title>
<path fill="none" stroke="#191970" d="M1433.3408,-112.4549C1466.4894,-103.7345 1517.0902,-90.3884 1569.8498,-76.2984"/>
<polygon fill="#191970" stroke="#191970" points="1570.9654,-79.6231 1579.7226,-73.6597 1569.1579,-72.8605 1570.9654,-79.6231"/>
</g>
<!-- Node9&#45;&gt;Node13 -->
<g id="edge45" class="edge">
<title>Node9&#45;&gt;Node13</title>
<path fill="none" stroke="#191970" d="M1421.0669,-112.3733C1443.8428,-103.2629 1478.2344,-89.5062 1503.649,-79.3404"/>
<polygon fill="#191970" stroke="#191970" points="1505.2623,-82.4648 1513.2472,-75.5011 1502.6625,-75.9654 1505.2623,-82.4648"/>
</g>
<!-- Node9&#45;&gt;Node14 -->
<g id="edge47" class="edge">
<title>Node9&#45;&gt;Node14</title>
<path fill="none" stroke="#191970" d="M1477.5581,-118.9785C1578.4369,-114.2826 1756.5954,-102.9798 1917.7706,-75.9608"/>
<polygon fill="#191970" stroke="#191970" points="1918.5995,-79.3702 1927.8711,-74.2429 1917.4258,-72.4693 1918.5995,-79.3702"/>
</g>
<!-- Node32&#45;&gt;Node4 -->
<g id="edge51" class="edge">
<title>Node32&#45;&gt;Node4</title>
<path fill="none" stroke="#191970" d="M680.495,-112.3733C652.5213,-102.5825 609.2157,-87.4255 579.7891,-77.1262"/>
<polygon fill="#191970" stroke="#191970" points="580.6021,-73.7026 570.0073,-73.7026 578.2896,-80.3096 580.6021,-73.7026"/>
</g>
<!-- Node32&#45;&gt;Node10 -->
<g id="edge52" class="edge">
<title>Node32&#45;&gt;Node10</title>
<path fill="none" stroke="#191970" d="M800.2499,-112.4686C907.9449,-101.3415 1083.6232,-83.1902 1180.463,-73.1846"/>
<polygon fill="#191970" stroke="#191970" points="1180.8542,-76.6629 1190.4415,-72.1536 1180.1347,-69.7 1180.8542,-76.6629"/>
</g>
<!-- Node49&#45;&gt;Node4 -->
<g id="edge57" class="edge">
<title>Node49&#45;&gt;Node4</title>
<path fill="none" stroke="#191970" d="M993.6011,-112.4686C871.2518,-99.7097 660.3418,-77.7153 580.1821,-69.356"/>
<polygon fill="#191970" stroke="#191970" points="580.5048,-65.8708 570.1956,-68.3146 579.7786,-72.833 580.5048,-65.8708"/>
</g>
<!-- Node49&#45;&gt;Node10 -->
<g id="edge58" class="edge">
<title>Node49&#45;&gt;Node10</title>
<path fill="none" stroke="#191970" d="M1113.3645,-112.3733C1140.6827,-103.1016 1182.1796,-89.0178 1212.2738,-78.804"/>
<polygon fill="#191970" stroke="#191970" points="1213.661,-82.0294 1222.0056,-75.5011 1211.4113,-75.4008 1213.661,-82.0294"/>
</g>
<!-- Node50&#45;&gt;Node3 -->
<g id="edge67" class="edge">
<title>Node50&#45;&gt;Node3</title>
<path fill="none" stroke="#191970" d="M1051.0907,-425.8299C1048.3618,-425.5464 1045.659,-425.269 1043,-425 962.9425,-416.8997 739.4434,-396.8429 618.7422,-386.0854"/>
<polygon fill="#191970" stroke="#191970" points="618.7277,-382.5703 608.4565,-385.169 618.1065,-389.5427 618.7277,-382.5703"/>
</g>
<!-- Node50&#45;&gt;Node4 -->
<g id="edge64" class="edge">
<title>Node50&#45;&gt;Node4</title>
<path fill="none" stroke="#191970" d="M1053.187,-425.4614C1000.7632,-418.1069 931.0335,-406.244 871,-389 866.6347,-387.7461 570.7212,-269.6364 568,-266 527.2784,-211.5825 536.9442,-124.1968 543.8969,-85.51"/>
<polygon fill="#191970" stroke="#191970" points="547.3595,-86.0388 545.8255,-75.5556 540.4873,-84.7073 547.3595,-86.0388"/>
</g>
<!-- Node50&#45;&gt;Node48 -->
<g id="edge66" class="edge">
<title>Node50&#45;&gt;Node48</title>
<path fill="none" stroke="#191970" d="M1065.3751,-425.4369C995.7519,-415.5912 887.4125,-400.2705 814.4054,-389.9462"/>
<polygon fill="#191970" stroke="#191970" points="814.7375,-386.4584 804.346,-388.5237 813.7573,-393.3895 814.7375,-386.4584"/>
</g>
<!-- Node50&#45;&gt;Node51 -->
<g id="edge63" class="edge">
<title>Node50&#45;&gt;Node51</title>
<path fill="none" stroke="#191970" d="M1214.6301,-428.4878C1319.5218,-419.8071 1496.9099,-403.9927 1578.3534,-388.9738"/>
<polygon fill="#191970" stroke="#191970" points="1579.113,-392.3918 1588.2636,-387.0517 1577.7801,-385.5199 1579.113,-392.3918"/>
</g>
<!-- Node50&#45;&gt;Node52 -->
<g id="edge65" class="edge">
<title>Node50&#45;&gt;Node52</title>
<path fill="none" stroke="#191970" d="M1203.6987,-425.4369C1293.7967,-413.2497 1445.9111,-392.6739 1513.2217,-383.569"/>
<polygon fill="#191970" stroke="#191970" points="1513.8335,-387.0183 1523.274,-382.2093 1512.8951,-380.0814 1513.8335,-387.0183"/>
</g>
<!-- Node53&#45;&gt;Node1 -->
<g id="edge71" class="edge">
<title>Node53&#45;&gt;Node1</title>
<path fill="none" stroke="#191970" d="M1170.9447,-593.054C1170.3176,-578.7262 1167.0304,-552.3209 1152,-537 1138.9159,-523.663 1096.6281,-511.3358 1060.4306,-502.8064"/>
<polygon fill="#191970" stroke="#191970" points="1060.9418,-499.3327 1050.4119,-500.5037 1059.3737,-506.1548 1060.9418,-499.3327"/>
</g>
<!-- Node53&#45;&gt;Node4 -->
<g id="edge82" class="edge">
<title>Node53&#45;&gt;Node4</title>
<path fill="none" stroke="#191970" d="M1082.9847,-599.1841C810.6552,-586.8016 0,-545.3753 0,-491 0,-491 0,-491 0,-183.5 0,-144.976 15.7799,-131.5071 49,-112 89.1684,-88.4128 411.38,-72.0962 515.6037,-67.3938"/>
<polygon fill="#191970" stroke="#191970" points="515.9934,-70.88 525.8277,-66.9384 515.6818,-63.8869 515.9934,-70.88"/>
</g>
<!-- Node53&#45;&gt;Node52 -->
<g id="edge83" class="edge">
<title>Node53&#45;&gt;Node52</title>
<path fill="none" stroke="#191970" d="M1212.5649,-593.4865C1282.7443,-575.5264 1425.6965,-530.5238 1514,-445 1527.1995,-432.216 1535.9676,-413.0378 1541.1263,-398.6442"/>
<polygon fill="#191970" stroke="#191970" points="1544.5792,-399.3481 1544.3812,-388.7551 1537.9301,-397.1596 1544.5792,-399.3481"/>
</g>
<!-- Node54 -->
<g id="node40" class="node">
<title>Node54</title>
<g id="a_node40"><a xlink:href="Sensors_8h.html" target="_top" xlink:title="iDynTree/Sensors/Sensors.h">
<polygon fill="none" stroke="#000000" points="875.5,-537.5 875.5,-556.5 1026.5,-556.5 1026.5,-537.5 875.5,-537.5"/>
<text text-anchor="middle" x="951" y="-544.5" font-family="FreeSans.ttf" font-size="10.00" fill="#000000">iDynTree/Sensors/Sensors.h</text>
</a>
</g>
</g>
<!-- Node53&#45;&gt;Node54 -->
<g id="edge72" class="edge">
<title>Node53&#45;&gt;Node54</title>
<path fill="none" stroke="#191970" d="M1133.1807,-593.3733C1095.8062,-583.8598 1038.5276,-569.2797 998.1929,-559.0127"/>
<polygon fill="#191970" stroke="#191970" points="998.8802,-555.5761 988.3258,-556.5011 997.1534,-562.3598 998.8802,-555.5761"/>
</g>
<!-- Node56 -->
<g id="node42" class="node">
<title>Node56</title>
<polygon fill="none" stroke="#bfbfbf" points="1085,-537.5 1085,-556.5 1143,-556.5 1143,-537.5 1085,-537.5"/>
<text text-anchor="middle" x="1114" y="-544.5" font-family="FreeSans.ttf" font-size="10.00" fill="#000000">memory</text>
</g>
<!-- Node53&#45;&gt;Node56 -->
<g id="edge81" class="edge">
<title>Node53&#45;&gt;Node56</title>
<path fill="none" stroke="#191970" d="M1161.0714,-593.2455C1152.8162,-585.1352 1140.8791,-573.4075 1131.0918,-563.7919"/>
<polygon fill="#191970" stroke="#191970" points="1133.4011,-561.1542 1123.8149,-556.6427 1128.4954,-566.1476 1133.4011,-561.1542"/>
</g>
<!-- Node54&#45;&gt;Node1 -->
<g id="edge79" class="edge">
<title>Node54&#45;&gt;Node1</title>
<path fill="none" stroke="#191970" d="M960.0577,-537.2455C967.5142,-529.2155 978.2634,-517.6394 987.1417,-508.0781"/>
<polygon fill="#191970" stroke="#191970" points="989.8063,-510.3522 994.0461,-500.6427 984.6768,-505.589 989.8063,-510.3522"/>
</g>
<!-- Node54&#45;&gt;Node3 -->
<g id="edge80" class="edge">
<title>Node54&#45;&gt;Node3</title>
<path fill="none" stroke="#191970" d="M875.425,-540.5973C761.8615,-529.234 555.7007,-501.2485 511,-445 499.4772,-430.5005 510.8089,-410.5591 522.32,-396.4003"/>
<polygon fill="#191970" stroke="#191970" points="525.0022,-398.6499 528.9469,-388.8168 519.7312,-394.0438 525.0022,-398.6499"/>
</g>
<!-- Node54&#45;&gt;Node4 -->
<g id="edge73" class="edge">
<title>Node54&#45;&gt;Node4</title>
<path fill="none" stroke="#191970" d="M875.119,-545.6168C656.0316,-540.6245 38,-519.0895 38,-435 38,-435 38,-435 38,-183.5 38,-147.513 46.0914,-132.0134 76,-112 112.4352,-87.6193 414.9643,-71.9661 515.5921,-67.3945"/>
<polygon fill="#191970" stroke="#191970" points="515.9317,-70.8829 525.7651,-66.939 515.6185,-63.8899 515.9317,-70.8829"/>
</g>
<!-- Node54&#45;&gt;Node20 -->
<g id="edge75" class="edge">
<title>Node54&#45;&gt;Node20</title>
<path fill="none" stroke="#191970" d="M1026.6701,-539.3972C1199.137,-521.7456 1617.0939,-477.0505 1755,-445 1869.9816,-418.2774 1988,-435.546 1988,-317.5 1988,-317.5 1988,-317.5 1988,-250.5 1988,-188.619 2012.1882,-118.3031 2025.0972,-85.1824"/>
<polygon fill="#191970" stroke="#191970" points="2028.3882,-86.3787 2028.8472,-75.7938 2021.8876,-83.7822 2028.3882,-86.3787"/>
</g>
<!-- Node54&#45;&gt;Node52 -->
<g id="edge74" class="edge">
<title>Node54&#45;&gt;Node52</title>
<path fill="none" stroke="#191970" d="M1026.5631,-538.7058C1155.1161,-523.6048 1410.0372,-489.0734 1488,-445 1508.1652,-433.6004 1525.0367,-412.7467 1535.5031,-397.5224"/>
<polygon fill="#191970" stroke="#191970" points="1538.5986,-399.1849 1541.1644,-388.9054 1532.7483,-395.3412 1538.5986,-399.1849"/>
</g>
<!-- Node55 -->
<g id="node41" class="node">
<title>Node55</title>
<g id="a_node41"><a xlink:href="VectorDynSize_8h.html" target="_top" xlink:title="iDynTree/Core/VectorDynSize.h">
<polygon fill="none" stroke="#000000" points="890.5,-241 890.5,-260 1057.5,-260 1057.5,-241 890.5,-241"/>
<text text-anchor="middle" x="974" y="-248" font-family="FreeSans.ttf" font-size="10.00" fill="#000000">iDynTree/Core/VectorDynSize.h</text>
</a>
</g>
</g>
<!-- Node54&#45;&gt;Node55 -->
<g id="edge76" class="edge">
<title>Node54&#45;&gt;Node55</title>
<path fill="none" stroke="#191970" d="M875.3797,-544.0697C714.8525,-537.482 353.1358,-520.5406 335,-501 276.1068,-437.545 139.2262,-535.2235 461,-369 538.6087,-328.9085 786.2779,-282.6294 906.818,-261.7487"/>
<polygon fill="#191970" stroke="#191970" points="907.4163,-265.1972 916.676,-260.0486 906.2266,-258.2991 907.4163,-265.1972"/>
</g>
<!-- Node55&#45;&gt;Node4 -->
<g id="edge78" class="edge">
<title>Node55&#45;&gt;Node4</title>
<path fill="none" stroke="#191970" d="M926.3518,-240.9907C900.9595,-233.5892 871.1067,-220.7732 852,-199 825.5435,-168.8513 857.8299,-138.8154 828,-112 791.9946,-79.6332 646.2132,-69.8511 580.4545,-67.0534"/>
<polygon fill="#191970" stroke="#191970" points="580.3799,-63.5478 570.2489,-66.6484 580.1022,-70.5422 580.3799,-63.5478"/>
</g>
<!-- Node55&#45;&gt;Node17 -->
<g id="edge77" class="edge">
<title>Node55&#45;&gt;Node17</title>
<path fill="none" stroke="#191970" d="M1057.6849,-247.368C1234.4606,-240.338 1634.4426,-222.0947 1692,-199 1724.0536,-186.1386 1753.3712,-157.9362 1770.1968,-139.468"/>
<polygon fill="#191970" stroke="#191970" points="1773.0121,-141.5678 1777.0134,-131.7576 1767.7677,-136.9314 1773.0121,-141.5678"/>
</g>
<!-- Node57&#45;&gt;Node4 -->
<g id="edge85" class="edge">
<title>Node57&#45;&gt;Node4</title>
<path fill="none" stroke="#191970" d="M384.9795,-481.483C300.1689,-437.8996 -33.8183,-253.4234 94,-112 122.2533,-80.7394 417.0971,-69.6675 515.9201,-66.8185"/>
<polygon fill="#191970" stroke="#191970" points="516.0212,-70.3172 525.9195,-66.5393 515.8257,-63.3199 516.0212,-70.3172"/>
</g>
<!-- Node57&#45;&gt;Node36 -->
<g id="edge90" class="edge">
<title>Node57&#45;&gt;Node36</title>
<path fill="none" stroke="#191970" d="M400.8542,-481.4248C391.8052,-453.8807 365.5776,-374.0477 353.3787,-336.916"/>
<polygon fill="#191970" stroke="#191970" points="356.6527,-335.6675 350.2063,-327.2595 350.0024,-337.8524 356.6527,-335.6675"/>
</g>
<!-- Node58 -->
<g id="node44" class="node">
<title>Node58</title>
<g id="a_node44"><a xlink:href="Direction_8h.html" target="_top" xlink:title="iDynTree/Core/Direction.h">
<polygon fill="none" stroke="#000000" points="731.5,-241 731.5,-260 872.5,-260 872.5,-241 731.5,-241"/>
<text text-anchor="middle" x="802" y="-248" font-family="FreeSans.ttf" font-size="10.00" fill="#000000">iDynTree/Core/Direction.h</text>
</a>
</g>
</g>
<!-- Node57&#45;&gt;Node58 -->
<g id="edge86" class="edge">
<title>Node57&#45;&gt;Node58</title>
<path fill="none" stroke="#191970" d="M405.8585,-481.2279C410.7192,-458.306 425.9388,-400.6359 461,-369 504.9318,-329.3601 669.5755,-283.7271 752.9573,-262.5079"/>
<polygon fill="#191970" stroke="#191970" points="753.8718,-265.8869 762.7094,-260.0433 752.1566,-259.1003 753.8718,-265.8869"/>
</g>
<!-- Node59 -->
<g id="node45" class="node">
<title>Node59</title>
<g id="a_node45"><a xlink:href="JointState_8h.html" target="_top" xlink:title="iDynTree/Model/JointState.h">
<polygon fill="none" stroke="#000000" points="1296.5,-425.5 1296.5,-444.5 1447.5,-444.5 1447.5,-425.5 1296.5,-425.5"/>
<text text-anchor="middle" x="1372" y="-432.5" font-family="FreeSans.ttf" font-size="10.00" fill="#000000">iDynTree/Model/JointState.h</text>
</a>
</g>
</g>
<!-- Node57&#45;&gt;Node59 -->
<g id="edge91" class="edge">
<title>Node57&#45;&gt;Node59</title>
<path fill="none" stroke="#191970" d="M463.6887,-487.8859C598.9877,-480.7756 939.3737,-462.5986 1224,-445 1244.1199,-443.756 1265.7726,-442.3378 1286.1398,-440.9683"/>
<polygon fill="#191970" stroke="#191970" points="1286.5978,-444.4454 1296.3392,-440.2794 1286.126,-437.4613 1286.5978,-444.4454"/>
</g>
<!-- Node60 -->
<g id="node46" class="node">
<title>Node60</title>
<g id="a_node46"><a xlink:href="LinkState_8h.html" target="_top" xlink:title="iDynTree/Model/LinkState.h">
<polygon fill="none" stroke="#000000" points="884.5,-425.5 884.5,-444.5 1033.5,-444.5 1033.5,-425.5 884.5,-425.5"/>
<text text-anchor="middle" x="959" y="-432.5" font-family="FreeSans.ttf" font-size="10.00" fill="#000000">iDynTree/Model/LinkState.h</text>
</a>
</g>
</g>
<!-- Node57&#45;&gt;Node60 -->
<g id="edge96" class="edge">
<title>Node57&#45;&gt;Node60</title>
<path fill="none" stroke="#191970" d="M463.5228,-485.5933C551.0021,-477.5571 719.7084,-461.7173 874.1998,-445.0672"/>
<polygon fill="#191970" stroke="#191970" points="874.7885,-448.524 884.3543,-443.9694 874.036,-441.5646 874.7885,-448.524"/>
</g>
<!-- Node58&#45;&gt;Node4 -->
<g id="edge87" class="edge">
<title>Node58&#45;&gt;Node4</title>
<path fill="none" stroke="#191970" d="M804.2525,-240.9701C810.6354,-212.9304 827.3538,-131.4624 811,-112 781.8951,-77.3627 644.2559,-68.8026 580.5262,-66.6903"/>
<polygon fill="#191970" stroke="#191970" points="580.3426,-63.1834 570.243,-66.3846 580.1346,-70.1803 580.3426,-63.1834"/>
</g>
<!-- Node58&#45;&gt;Node16 -->
<g id="edge88" class="edge">
<title>Node58&#45;&gt;Node16</title>
<path fill="none" stroke="#191970" d="M845.4259,-240.9861C857.2394,-238.6994 870.0676,-236.49 882,-235 1160.2954,-200.2485 1233.3578,-230.8513 1512,-199 1521.924,-197.8656 1532.4142,-196.3508 1542.5908,-194.7116"/>
<polygon fill="#191970" stroke="#191970" points="1543.3408,-198.135 1552.6303,-193.0403 1542.1913,-191.23 1543.3408,-198.135"/>
</g>
<!-- Node58&#45;&gt;Node10 -->
<g id="edge89" class="edge">
<title>Node58&#45;&gt;Node10</title>
<path fill="none" stroke="#191970" d="M850.8746,-240.9656C915.6361,-228.1012 1022.424,-205.9896 1028,-199 1036.5922,-188.2296 1034.2813,-180.2626 1028,-168 1015.516,-143.6283 990.484,-156.3717 978,-132 973.9475,-124.0886 972.2625,-118.7892 978,-112 990.9803,-96.6401 1104.0116,-81.6343 1180.2215,-73.1297"/>
<polygon fill="#191970" stroke="#191970" points="1180.6952,-76.5987 1190.2515,-72.024 1179.9282,-69.6409 1180.6952,-76.5987"/>
</g>
<!-- Node59&#45;&gt;Node16 -->
<g id="edge92" class="edge">
<title>Node59&#45;&gt;Node16</title>
<path fill="none" stroke="#191970" d="M1393.5773,-425.4955C1414.282,-416.3221 1446.3902,-401.9562 1474,-389 1492.3543,-380.387 1495.8276,-375.5941 1515,-369 1588.0322,-343.8816 1636.3742,-393.0014 1685,-333 1698.9541,-315.7815 1682.7636,-252.0137 1672,-235 1662.047,-219.2675 1645.4263,-206.7365 1630.8777,-197.9758"/>
<polygon fill="#191970" stroke="#191970" points="1632.5867,-194.9214 1622.1651,-193.0134 1629.1222,-201.0039 1632.5867,-194.9214"/>
</g>
<!-- Node59&#45;&gt;Node42 -->
<g id="edge94" class="edge">
<title>Node59&#45;&gt;Node42</title>
<path fill="none" stroke="#191970" d="M1384.6438,-425.2826C1404.1965,-410.7505 1443.4451,-383.5158 1481,-369 1558.7243,-338.9578 1612.0361,-397.3306 1665,-333 1692.487,-299.6139 1642.5584,-278.0291 1591.8852,-265.3454"/>
<polygon fill="#191970" stroke="#191970" points="1592.639,-261.927 1582.0989,-263.0032 1591.0096,-268.7348 1592.639,-261.927"/>
</g>
<!-- Node59&#45;&gt;Node52 -->
<g id="edge95" class="edge">
<title>Node59&#45;&gt;Node52</title>
<path fill="none" stroke="#191970" d="M1402.0836,-425.3733C1433.1234,-415.4405 1481.4222,-399.9849 1513.6208,-389.6813"/>
<polygon fill="#191970" stroke="#191970" points="1515.0094,-392.9119 1523.4669,-386.5306 1512.8759,-386.2449 1515.0094,-392.9119"/>
</g>
<!-- Node59&#45;&gt;Node55 -->
<g id="edge93" class="edge">
<title>Node59&#45;&gt;Node55</title>
<path fill="none" stroke="#191970" d="M1296.16,-430.3273C1215.96,-424.4254 1086.0673,-412.1232 976,-389 934.5883,-380.3001 819.1398,-367.0383 794,-333 785.8146,-321.9173 785.7051,-313.001 794,-302 807.4628,-284.1451 858.4522,-270.606 902.7397,-261.9014"/>
<polygon fill="#191970" stroke="#191970" points="903.4873,-265.322 912.654,-260.0096 902.1752,-258.4461 903.4873,-265.322"/>
</g>
<!-- Node60&#45;&gt;Node3 -->
<g id="edge104" class="edge">
<title>Node60&#45;&gt;Node3</title>
<path fill="none" stroke="#191970" d="M887.2766,-425.4369C812.6101,-415.4813 695.9599,-399.928 618.5196,-389.6026"/>
<polygon fill="#191970" stroke="#191970" points="618.7082,-386.0969 608.3333,-388.2444 617.783,-393.0355 618.7082,-386.0969"/>
</g>
<!-- Node60&#45;&gt;Node25 -->
<g id="edge98" class="edge">
<title>Node60&#45;&gt;Node25</title>
<path fill="none" stroke="#191970" d="M967.9199,-425.3845C986.3634,-405.5028 1028.9079,-359.6406 1052.1455,-334.5908"/>
<polygon fill="#191970" stroke="#191970" points="1054.7218,-336.96 1058.9568,-327.2484 1049.5899,-332.1993 1054.7218,-336.96"/>
</g>
<!-- Node60&#45;&gt;Node46 -->
<g id="edge99" class="edge">
<title>Node60&#45;&gt;Node46</title>
<path fill="none" stroke="#191970" d="M952.2896,-425.3845C938.5949,-405.761 907.237,-360.8274 889.6156,-335.5772"/>
<polygon fill="#191970" stroke="#191970" points="892.3963,-333.4459 883.8031,-327.2484 886.6559,-337.4519 892.3963,-333.4459"/>
</g>
<!-- Node60&#45;&gt;Node47 -->
<g id="edge100" class="edge">
<title>Node60&#45;&gt;Node47</title>
<path fill="none" stroke="#191970" d="M1033.8926,-425.9979C1138.0792,-413.4333 1315.6775,-391.849 1330,-389 1409.1838,-373.2488 1499.683,-346.1143 1550.0039,-330.1881"/>
<polygon fill="#191970" stroke="#191970" points="1551.3489,-333.433 1559.8153,-327.0635 1549.2247,-326.7631 1551.3489,-333.433"/>
</g>
<!-- Node60&#45;&gt;Node48 -->
<g id="edge97" class="edge">
<title>Node60&#45;&gt;Node48</title>
<path fill="none" stroke="#191970" d="M921.0891,-425.4369C883.335,-415.9133 825.2735,-401.2672 784.4736,-390.9753"/>
<polygon fill="#191970" stroke="#191970" points="785.3069,-387.576 774.7546,-388.5237 783.5947,-394.3633 785.3069,-387.576"/>
</g>
<!-- Node60&#45;&gt;Node52 -->
<g id="edge105" class="edge">
<title>Node60&#45;&gt;Node52</title>
<path fill="none" stroke="#191970" d="M1033.6431,-426.0061C1036.8035,-425.6594 1039.9328,-425.3225 1043,-425 1219.8719,-406.4039 1432.1304,-388.4572 1513.2433,-381.7585"/>
<polygon fill="#191970" stroke="#191970" points="1513.6817,-385.2344 1523.3606,-380.9252 1513.107,-378.258 1513.6817,-385.2344"/>
</g>
<!-- Node61 -->
<g id="node47" class="node">
<title>Node61</title>
<g id="a_node47"><a xlink:href="ArticulatedBodyInertia_8h.html" target="_top" xlink:title="iDynTree/Core/Articulated\lBodyInertia.h">
<polygon fill="none" stroke="#000000" points="340.5,-168.5 340.5,-198.5 481.5,-198.5 481.5,-168.5 340.5,-168.5"/>
<text text-anchor="start" x="348.5" y="-186.5" font-family="FreeSans.ttf" font-size="10.00" fill="#000000">iDynTree/Core/Articulated</text>
<text text-anchor="middle" x="411" y="-175.5" font-family="FreeSans.ttf" font-size="10.00" fill="#000000">BodyInertia.h</text>
</a>
</g>
</g>
<!-- Node60&#45;&gt;Node61 -->
<g id="edge101" class="edge">
<title>Node60&#45;&gt;Node61</title>
<path fill="none" stroke="#191970" d="M887.5191,-425.4594C804.6612,-414.1997 676.6483,-396.1099 655,-389 636.8676,-383.0449 634.6831,-376.1802 617,-369 564.6198,-347.7312 538.1977,-369.4693 495,-333 457.9413,-301.7134 471.6336,-276.7778 447,-235 441.4315,-225.556 434.6869,-215.59 428.5479,-206.9673"/>
<polygon fill="#191970" stroke="#191970" points="431.3773,-204.907 422.6766,-198.8614 425.7082,-209.0133 431.3773,-204.907"/>
</g>
<!-- Node61&#45;&gt;Node4 -->
<g id="edge103" class="edge">
<title>Node61&#45;&gt;Node4</title>
<path fill="none" stroke="#191970" d="M428.6299,-168.3795C454.4535,-146.2315 502.3742,-105.1316 528.9706,-82.3209"/>
<polygon fill="#191970" stroke="#191970" points="531.4894,-84.7716 536.8014,-75.6046 526.9322,-79.4581 531.4894,-84.7716"/>
</g>
<!-- Node61&#45;&gt;Node9 -->
<g id="edge102" class="edge">
<title>Node61&#45;&gt;Node9</title>
<path fill="none" stroke="#191970" d="M481.515,-179.1018C656.6702,-168.1768 1111.43,-139.8119 1306.2478,-127.6605"/>
<polygon fill="#191970" stroke="#191970" points="1306.6897,-131.1398 1316.4524,-127.024 1306.2539,-124.1534 1306.6897,-131.1398"/>
</g>
<!-- Node62&#45;&gt;Node4 -->
<g id="edge111" class="edge">
<title>Node62&#45;&gt;Node4</title>
<path fill="none" stroke="#191970" d="M1680.4201,-433.5008C1576.2835,-428.5266 1252.3471,-411.5922 1150,-389 1079.6979,-373.4814 1039.1786,-392.0554 998,-333 951.9917,-267.0182 1078.875,-274.3563 1090,-266 1150.0605,-220.8867 1168.8249,-203.1199 1193,-132 1195.8608,-123.584 1199.0577,-118.5051 1193,-112 1171.906,-89.3481 708.3354,-71.5814 580.4292,-67.0977"/>
<polygon fill="#191970" stroke="#191970" points="580.2356,-63.5889 570.1201,-66.7397 579.9926,-70.5847 580.2356,-63.5889"/>
</g>
<!-- Node62&#45;&gt;Node18 -->
<g id="edge115" class="edge">
<title>Node62&#45;&gt;Node18</title>
<path fill="none" stroke="#191970" d="M1745.5361,-432.2618C1776.3537,-427.9845 1821.9704,-417.0322 1850,-389 1873.7013,-365.2965 1874,-351.0202 1874,-317.5 1874,-317.5 1874,-317.5 1874,-183.5 1874,-150.6194 1873.3537,-139.2815 1855,-112 1846.5041,-99.3715 1833.3685,-88.8219 1821.4596,-81.0248"/>
<polygon fill="#191970" stroke="#191970" points="1823.0367,-77.8852 1812.689,-75.61 1819.3593,-83.8415 1823.0367,-77.8852"/>
</g>
<!-- Node62&#45;&gt;Node22 -->
<g id="edge112" class="edge">
<title>Node62&#45;&gt;Node22</title>
<path fill="none" stroke="#191970" d="M1745.5999,-432.6373C1780.0243,-428.6388 1834.2921,-417.8869 1871,-389 1899.787,-366.3464 1912,-354.1316 1912,-317.5 1912,-317.5 1912,-317.5 1912,-183.5 1912,-147.5066 1896.7284,-107.7955 1886.3607,-84.9832"/>
<polygon fill="#191970" stroke="#191970" points="1889.445,-83.3176 1882.0146,-75.765 1883.1134,-86.3027 1889.445,-83.3176"/>
</g>
<!-- Node62&#45;&gt;Node15 -->
<g id="edge108" class="edge">
<title>Node62&#45;&gt;Node15</title>
<path fill="none" stroke="#191970" d="M1745.8913,-430.0855C1770.089,-424.5611 1801.3792,-412.9897 1817,-389 1825.4754,-375.9838 1865.3259,-343.1402 1812,-235 1791.7503,-193.9354 1679.5967,-114.5171 1630.7476,-81.2459"/>
<polygon fill="#191970" stroke="#191970" points="1632.6415,-78.3015 1622.3995,-75.5902 1628.7153,-84.0967 1632.6415,-78.3015"/>
</g>
<!-- Node62&#45;&gt;Node13 -->
<g id="edge114" class="edge">
<title>Node62&#45;&gt;Node13</title>
<path fill="none" stroke="#191970" d="M1704.7911,-425.1677C1697.9886,-416.3343 1688.8369,-402.6831 1685,-389 1682.6,-380.4412 1683.1547,-377.6952 1685,-369 1688.6347,-351.8723 1697.3653,-350.1277 1701,-333 1710.6039,-287.7446 1720.6837,-217.1897 1692,-168 1665.1871,-122.0186 1608.4136,-92.9009 1571.5257,-78.0336"/>
<polygon fill="#191970" stroke="#191970" points="1572.7372,-74.7495 1562.1486,-74.3875 1570.2003,-81.2736 1572.7372,-74.7495"/>
</g>
<!-- Node62&#45;&gt;Node14 -->
<g id="edge107" class="edge">
<title>Node62&#45;&gt;Node14</title>
<path fill="none" stroke="#191970" d="M1745.6918,-429.4819C1791.3806,-421.3203 1871.4894,-405.238 1896,-389 1929.1981,-367.0066 1950,-357.3224 1950,-317.5 1950,-317.5 1950,-317.5 1950,-183.5 1950,-149.0604 1953.4633,-109.0735 1955.8324,-85.7484"/>
<polygon fill="#191970" stroke="#191970" points="1959.3204,-86.0454 1956.8876,-75.7337 1952.359,-85.3119 1959.3204,-86.0454"/>
</g>
<!-- Node62&#45;&gt;Node51 -->
<g id="edge116" class="edge">
<title>Node62&#45;&gt;Node51</title>
<path fill="none" stroke="#191970" d="M1695.5813,-425.2455C1679.9515,-416.4928 1656.7981,-403.527 1638.9815,-393.5496"/>
<polygon fill="#191970" stroke="#191970" points="1640.6543,-390.475 1630.2191,-388.6427 1637.234,-396.5825 1640.6543,-390.475"/>
</g>
<!-- Node62&#45;&gt;Node52 -->
<g id="edge109" class="edge">
<title>Node62&#45;&gt;Node52</title>
<path fill="none" stroke="#191970" d="M1684.4636,-425.3733C1655.564,-415.624 1610.8922,-400.554 1580.3705,-390.2575"/>
<polygon fill="#191970" stroke="#191970" points="1581.1996,-386.8435 1570.6054,-386.9633 1578.962,-393.4762 1581.1996,-386.8435"/>
</g>
<!-- Node63 -->
<g id="node49" class="node">
<title>Node63</title>
<polygon fill="none" stroke="#bfbfbf" points="1694,-369.5 1694,-388.5 1732,-388.5 1732,-369.5 1694,-369.5"/>
<text text-anchor="middle" x="1713" y="-376.5" font-family="FreeSans.ttf" font-size="10.00" fill="#000000">map</text>
</g>
<!-- Node62&#45;&gt;Node63 -->
<g id="edge110" class="edge">
<title>Node62&#45;&gt;Node63</title>
<path fill="none" stroke="#191970" d="M1713,-425.2455C1713,-417.9382 1713,-407.6944 1713,-398.7046"/>
<polygon fill="#191970" stroke="#191970" points="1716.5001,-398.6426 1713,-388.6427 1709.5001,-398.6427 1716.5001,-398.6426"/>
</g>
<!-- Node64 -->
<g id="node50" class="node">
<title>Node64</title>
<polygon fill="none" stroke="#bfbfbf" points="1750.5,-369.5 1750.5,-388.5 1807.5,-388.5 1807.5,-369.5 1750.5,-369.5"/>
<text text-anchor="middle" x="1779" y="-376.5" font-family="FreeSans.ttf" font-size="10.00" fill="#000000">typeinfo</text>
</g>
<!-- Node62&#45;&gt;Node64 -->
<g id="edge113" class="edge">
<title>Node62&#45;&gt;Node64</title>
<path fill="none" stroke="#191970" d="M1724.4963,-425.2455C1734.2442,-416.9746 1748.4259,-404.9416 1759.8798,-395.2232"/>
<polygon fill="#191970" stroke="#191970" points="1762.2747,-397.7813 1767.6354,-388.6427 1757.7459,-392.4437 1762.2747,-397.7813"/>
</g>
</g>
</svg>
