<?xml version="1.0" encoding="UTF-8" standalone="no"?>
<!DOCTYPE svg PUBLIC "-//W3C//DTD SVG 1.1//EN"
 "http://www.w3.org/Graphics/SVG/1.1/DTD/svg11.dtd">
<!-- Generated by graphviz version 2.40.1 (20161225.0304)
 -->
<!-- Title: idyntree&#45;model&#45;info.cpp Pages: 1 -->
<svg width="2281pt" height="677pt"
 viewBox="0.00 0.00 2281.00 677.00" xmlns="http://www.w3.org/2000/svg" xmlns:xlink="http://www.w3.org/1999/xlink">
<g id="graph0" class="graph" transform="scale(1 1) rotate(0) translate(4 673)">
<title>idyntree&#45;model&#45;info.cpp</title>
<!-- Node0 -->
<g id="node1" class="node">
<title>Node0</title>
<polygon fill="#bfbfbf" stroke="#000000" points="1421,-649.5 1421,-668.5 1555,-668.5 1555,-649.5 1421,-649.5"/>
<text text-anchor="middle" x="1488" y="-656.5" font-family="FreeSans.ttf" font-size="10.00" fill="#000000">idyntree&#45;model&#45;info.cpp</text>
</g>
<!-- Node1 -->
<g id="node2" class="node">
<title>Node1</title>
<g id="a_node2"><a xlink:href="Model_8h.html" target="_top" xlink:title="iDynTree/Model/Model.h">
<polygon fill="none" stroke="#000000" points="1165.5,-481.5 1165.5,-500.5 1298.5,-500.5 1298.5,-481.5 1165.5,-481.5"/>
<text text-anchor="middle" x="1232" y="-488.5" font-family="FreeSans.ttf" font-size="10.00" fill="#000000">iDynTree/Model/Model.h</text>
</a>
</g>
</g>
<!-- Node0&#45;&gt;Node1 -->
<g id="edge1" class="edge">
<title>Node0&#45;&gt;Node1</title>
<path fill="none" stroke="#191970" d="M1480.7737,-649.2933C1463.337,-626.5126 1416.5669,-569.1256 1365,-537 1340.3769,-521.6601 1309.9829,-510.6541 1284.4685,-503.2619"/>
<polygon fill="#191970" stroke="#191970" points="1285.1634,-499.8222 1274.5908,-500.5074 1283.2831,-506.5649 1285.1634,-499.8222"/>
</g>
<!-- Node14 -->
<g id="node33" class="node">
<title>Node14</title>
<polygon fill="none" stroke="#bfbfbf" points="2213,-56.5 2213,-75.5 2273,-75.5 2273,-56.5 2213,-56.5"/>
<text text-anchor="middle" x="2243" y="-63.5" font-family="FreeSans.ttf" font-size="10.00" fill="#000000">iostream</text>
</g>
<!-- Node0&#45;&gt;Node14 -->
<g id="edge112" class="edge">
<title>Node0&#45;&gt;Node14</title>
<path fill="none" stroke="#191970" d="M1555.2439,-656.0367C1740.0455,-647.0031 2242,-616.1058 2242,-547 2242,-547 2242,-547 2242,-183.5 2242,-149.1387 2242.4329,-109.1271 2242.7291,-85.7759"/>
<polygon fill="#191970" stroke="#191970" points="2246.229,-85.7939 2242.861,-75.7487 2239.2296,-85.7018 2246.229,-85.7939"/>
</g>
<!-- Node51 -->
<g id="node37" class="node">
<title>Node51</title>
<polygon fill="none" stroke="#bfbfbf" points="1521.5,-358.5 1521.5,-377.5 1570.5,-377.5 1570.5,-358.5 1521.5,-358.5"/>
<text text-anchor="middle" x="1546" y="-365.5" font-family="FreeSans.ttf" font-size="10.00" fill="#000000">cstdlib</text>
</g>
<!-- Node0&#45;&gt;Node51 -->
<g id="edge113" class="edge">
<title>Node0&#45;&gt;Node51</title>
<path fill="none" stroke="#191970" d="M1507.5616,-649.2614C1537.6879,-632.7191 1592,-596.0892 1592,-547 1592,-547 1592,-547 1592,-491 1592,-451.9003 1571.3554,-409.9863 1557.7268,-386.5764"/>
<polygon fill="#191970" stroke="#191970" points="1560.5581,-384.4939 1552.3961,-377.7387 1554.564,-388.1094 1560.5581,-384.4939"/>
</g>
<!-- Node53 -->
<g id="node39" class="node">
<title>Node53</title>
<g id="a_node39"><a xlink:href="ModelLoader_8h.html" target="_top" xlink:title="iDynTree/ModelIO/ModelLoader.h">
<polygon fill="none" stroke="#000000" points="1180,-593.5 1180,-612.5 1356,-612.5 1356,-593.5 1180,-593.5"/>
<text text-anchor="middle" x="1268" y="-600.5" font-family="FreeSans.ttf" font-size="10.00" fill="#000000">iDynTree/ModelIO/ModelLoader.h</text>
</a>
</g>
</g>
<!-- Node0&#45;&gt;Node53 -->
<g id="edge67" class="edge">
<title>Node0&#45;&gt;Node53</title>
<path fill="none" stroke="#191970" d="M1450.1807,-649.3733C1412.8062,-639.8598 1355.5276,-625.2797 1315.1929,-615.0127"/>
<polygon fill="#191970" stroke="#191970" points="1315.8802,-611.5761 1305.3258,-612.5011 1314.1534,-618.3598 1315.8802,-611.5761"/>
</g>
<!-- Node57 -->
<g id="node43" class="node">
<title>Node57</title>
<g id="a_node43"><a xlink:href="KinDynComputations_8h.html" target="_top" xlink:title="iDynTree/KinDynComputations.h">
<polygon fill="none" stroke="#000000" points="350.5,-481.5 350.5,-500.5 525.5,-500.5 525.5,-481.5 350.5,-481.5"/>
<text text-anchor="middle" x="438" y="-488.5" font-family="FreeSans.ttf" font-size="10.00" fill="#000000">iDynTree/KinDynComputations.h</text>
</a>
</g>
</g>
<!-- Node0&#45;&gt;Node57 -->
<g id="edge81" class="edge">
<title>Node0&#45;&gt;Node57</title>
<path fill="none" stroke="#191970" d="M1420.8417,-649.6682C1356.6346,-640.6486 1257.1319,-626.4157 1171,-613 924.022,-574.5313 631.0178,-524.4087 503.1304,-502.3082"/>
<polygon fill="#191970" stroke="#191970" points="503.558,-498.8303 493.1078,-500.5751 502.3652,-505.7279 503.558,-498.8303"/>
</g>
<!-- Node62 -->
<g id="node48" class="node">
<title>Node62</title>
<g id="a_node48"><a xlink:href="cmdline_8h.html" target="_top" xlink:title="cmdline.h">
<polygon fill="none" stroke="#000000" points="1857.5,-420 1857.5,-439 1922.5,-439 1922.5,-420 1857.5,-420"/>
<text text-anchor="middle" x="1890" y="-427" font-family="FreeSans.ttf" font-size="10.00" fill="#000000">cmdline.h</text>
</a>
</g>
</g>
<!-- Node0&#45;&gt;Node62 -->
<g id="edge101" class="edge">
<title>Node0&#45;&gt;Node62</title>
<path fill="none" stroke="#191970" d="M1520.1477,-649.4964C1583.7527,-629.5873 1728.13,-578.8048 1828,-501 1847.7191,-485.6376 1865.898,-463.2818 1877.4027,-447.6707"/>
<polygon fill="#191970" stroke="#191970" points="1880.3785,-449.5272 1883.3665,-439.3624 1874.6918,-445.4452 1880.3785,-449.5272"/>
</g>
<!-- Node2 -->
<g id="node3" class="node">
<title>Node2</title>
<g id="a_node3"><a xlink:href="IJoint_8h.html" target="_top" xlink:title="iDynTree/Model/IJoint.h">
<polygon fill="none" stroke="#000000" points="543,-420 543,-439 671,-439 671,-420 543,-420"/>
<text text-anchor="middle" x="607" y="-427" font-family="FreeSans.ttf" font-size="10.00" fill="#000000">iDynTree/Model/IJoint.h</text>
</a>
</g>
</g>
<!-- Node1&#45;&gt;Node2 -->
<g id="edge2" class="edge">
<title>Node1&#45;&gt;Node2</title>
<path fill="none" stroke="#191970" d="M1165.2105,-487.8049C1061.8851,-482.317 857.221,-469.275 685,-445 677.0301,-443.8766 668.6451,-442.4611 660.4474,-440.9447"/>
<polygon fill="#191970" stroke="#191970" points="661.061,-437.4987 650.5815,-439.0579 659.746,-444.3741 661.061,-437.4987"/>
</g>
<!-- Node3 -->
<g id="node4" class="node">
<title>Node3</title>
<g id="a_node4"><a xlink:href="Indices_8h.html" target="_top" xlink:title="iDynTree/Model/Indices.h">
<polygon fill="none" stroke="#000000" points="438,-358.5 438,-377.5 576,-377.5 576,-358.5 438,-358.5"/>
<text text-anchor="middle" x="507" y="-365.5" font-family="FreeSans.ttf" font-size="10.00" fill="#000000">iDynTree/Model/Indices.h</text>
</a>
</g>
</g>
<!-- Node1&#45;&gt;Node3 -->
<g id="edge58" class="edge">
<title>Node1&#45;&gt;Node3</title>
<path fill="none" stroke="#191970" d="M1165.2146,-489.8624C1045.0077,-487.0207 797.3444,-477.3162 718,-445 697.8142,-436.7785 699.4119,-423.9116 680,-414 648.0178,-397.67 609.6625,-386.7101 577.2025,-379.5994"/>
<polygon fill="#191970" stroke="#191970" points="577.8391,-376.1567 567.3316,-377.5145 576.3924,-383.0056 577.8391,-376.1567"/>
</g>
<!-- Node5 -->
<g id="node6" class="node">
<title>Node5</title>
<g id="a_node6"><a xlink:href="Link_8h.html" target="_top" xlink:title="iDynTree/Model/Link.h">
<polygon fill="none" stroke="#000000" points="727,-420 727,-439 851,-439 851,-420 727,-420"/>
<text text-anchor="middle" x="789" y="-427" font-family="FreeSans.ttf" font-size="10.00" fill="#000000">iDynTree/Model/Link.h</text>
</a>
</g>
</g>
<!-- Node1&#45;&gt;Node5 -->
<g id="edge5" class="edge">
<title>Node1&#45;&gt;Node5</title>
<path fill="none" stroke="#191970" d="M1165.3931,-484.5402C1090.9364,-476.9018 966.9075,-462.9291 861,-445 854.3084,-443.8672 847.2965,-442.5378 840.3848,-441.142"/>
<polygon fill="#191970" stroke="#191970" points="840.8816,-437.6706 830.3789,-439.0648 839.4586,-444.5245 840.8816,-437.6706"/>
</g>
<!-- Node48 -->
<g id="node26" class="node">
<title>Node48</title>
<g id="a_node26"><a xlink:href="Transform_8h.html" target="_top" xlink:title="iDynTree/Core/Transform.h">
<polygon fill="none" stroke="#000000" points="1093,-358.5 1093,-377.5 1239,-377.5 1239,-358.5 1093,-358.5"/>
<text text-anchor="middle" x="1166" y="-365.5" font-family="FreeSans.ttf" font-size="10.00" fill="#000000">iDynTree/Core/Transform.h</text>
</a>
</g>
</g>
<!-- Node1&#45;&gt;Node48 -->
<g id="edge29" class="edge">
<title>Node1&#45;&gt;Node48</title>
<path fill="none" stroke="#191970" d="M1193.023,-481.3933C1174.1381,-474.5635 1153.1742,-463.2604 1142,-445 1130.7583,-426.6293 1141.6892,-402.5372 1152.207,-386.2306"/>
<polygon fill="#191970" stroke="#191970" points="1155.3501,-387.8409 1158.1813,-377.6313 1149.6013,-383.8469 1155.3501,-387.8409"/>
</g>
<!-- Node50 -->
<g id="node36" class="node">
<title>Node50</title>
<g id="a_node36"><a xlink:href="SolidShapes_8h.html" target="_top" xlink:title="iDynTree/Model/SolidShapes.h">
<polygon fill="none" stroke="#000000" points="1150.5,-420 1150.5,-439 1313.5,-439 1313.5,-420 1150.5,-420"/>
<text text-anchor="middle" x="1232" y="-427" font-family="FreeSans.ttf" font-size="10.00" fill="#000000">iDynTree/Model/SolidShapes.h</text>
</a>
</g>
</g>
<!-- Node1&#45;&gt;Node50 -->
<g id="edge59" class="edge">
<title>Node1&#45;&gt;Node50</title>
<path fill="none" stroke="#191970" d="M1232,-481.3906C1232,-472.8657 1232,-460.1392 1232,-449.4235"/>
<polygon fill="#191970" stroke="#191970" points="1235.5001,-449.2448 1232,-439.2449 1228.5001,-449.2449 1235.5001,-449.2448"/>
</g>
<!-- Node1&#45;&gt;Node51 -->
<g id="edge65" class="edge">
<title>Node1&#45;&gt;Node51</title>
<path fill="none" stroke="#191970" d="M1266.3397,-481.4938C1296.192,-472.9197 1340.4263,-459.4652 1378,-445 1428.4161,-425.5908 1485.1901,-398.4027 1518.148,-382.0652"/>
<polygon fill="#191970" stroke="#191970" points="1519.7941,-385.1554 1527.1828,-377.5621 1516.6716,-378.8904 1519.7941,-385.1554"/>
</g>
<!-- Node52 -->
<g id="node38" class="node">
<title>Node52</title>
<polygon fill="none" stroke="#bfbfbf" points="1356.5,-358.5 1356.5,-377.5 1403.5,-377.5 1403.5,-358.5 1356.5,-358.5"/>
<text text-anchor="middle" x="1380" y="-365.5" font-family="FreeSans.ttf" font-size="10.00" fill="#000000">vector</text>
</g>
<!-- Node1&#45;&gt;Node52 -->
<g id="edge66" class="edge">
<title>Node1&#45;&gt;Node52</title>
<path fill="none" stroke="#191970" d="M1288.7676,-481.423C1312.3583,-474.7979 1338.3046,-463.6607 1356,-445 1370.7798,-429.414 1376.4644,-404.8594 1378.647,-387.6806"/>
<polygon fill="#191970" stroke="#191970" points="1382.1403,-387.9198 1379.636,-377.6252 1375.1739,-387.2345 1382.1403,-387.9198"/>
</g>
<!-- Node2&#45;&gt;Node3 -->
<g id="edge3" class="edge">
<title>Node2&#45;&gt;Node3</title>
<path fill="none" stroke="#191970" d="M591.375,-419.8906C575.2302,-409.9616 549.8178,-394.333 531.0977,-382.8201"/>
<polygon fill="#191970" stroke="#191970" points="532.8669,-379.7992 522.5153,-377.5419 529.1998,-385.7619 532.8669,-379.7992"/>
</g>
<!-- Node4 -->
<g id="node5" class="node">
<title>Node4</title>
<polygon fill="none" stroke="#bfbfbf" points="720,-56.5 720,-75.5 764,-75.5 764,-56.5 720,-56.5"/>
<text text-anchor="middle" x="742" y="-63.5" font-family="FreeSans.ttf" font-size="10.00" fill="#000000">string</text>
</g>
<!-- Node3&#45;&gt;Node4 -->
<g id="edge4" class="edge">
<title>Node3&#45;&gt;Node4</title>
<path fill="none" stroke="#191970" d="M437.8707,-362.3399C346.7426,-354.2825 195.6074,-338.6284 176,-322 148.6614,-298.8151 152,-280.846 152,-245 152,-245 152,-245 152,-183.5 152,-149.9798 149.6022,-132.6581 176,-112 218.1197,-79.0385 595.5163,-68.9051 709.5268,-66.5825"/>
<polygon fill="#191970" stroke="#191970" points="709.7887,-70.0781 719.7177,-66.3816 709.6507,-63.0795 709.7887,-70.0781"/>
</g>
<!-- Node5&#45;&gt;Node3 -->
<g id="edge28" class="edge">
<title>Node5&#45;&gt;Node3</title>
<path fill="none" stroke="#191970" d="M745.2469,-419.9581C695.5415,-409.1181 614.4001,-391.4224 560.8499,-379.7439"/>
<polygon fill="#191970" stroke="#191970" points="561.3719,-376.2755 550.8557,-377.5643 559.8803,-383.1148 561.3719,-376.2755"/>
</g>
<!-- Node6 -->
<g id="node7" class="node">
<title>Node6</title>
<g id="a_node7"><a xlink:href="SpatialInertia_8h.html" target="_top" xlink:title="iDynTree/Core/SpatialInertia.h">
<polygon fill="none" stroke="#000000" points="708,-358.5 708,-377.5 870,-377.5 870,-358.5 708,-358.5"/>
<text text-anchor="middle" x="789" y="-365.5" font-family="FreeSans.ttf" font-size="10.00" fill="#000000">iDynTree/Core/SpatialInertia.h</text>
</a>
</g>
</g>
<!-- Node5&#45;&gt;Node6 -->
<g id="edge6" class="edge">
<title>Node5&#45;&gt;Node6</title>
<path fill="none" stroke="#191970" d="M789,-419.8906C789,-411.3657 789,-398.6392 789,-387.9235"/>
<polygon fill="#191970" stroke="#191970" points="792.5001,-387.7448 789,-377.7449 785.5001,-387.7449 792.5001,-387.7448"/>
</g>
<!-- Node7 -->
<g id="node8" class="node">
<title>Node7</title>
<g id="a_node8"><a xlink:href="SpatialInertiaRaw_8h.html" target="_top" xlink:title="iDynTree/Core/SpatialInertia\lRaw.h">
<polygon fill="none" stroke="#ff0000" points="524.5,-291.5 524.5,-321.5 677.5,-321.5 677.5,-291.5 524.5,-291.5"/>
<text text-anchor="start" x="532.5" y="-309.5" font-family="FreeSans.ttf" font-size="10.00" fill="#000000">iDynTree/Core/SpatialInertia</text>
<text text-anchor="middle" x="601" y="-298.5" font-family="FreeSans.ttf" font-size="10.00" fill="#000000">Raw.h</text>
</a>
</g>
</g>
<!-- Node6&#45;&gt;Node7 -->
<g id="edge7" class="edge">
<title>Node6&#45;&gt;Node7</title>
<path fill="none" stroke="#191970" d="M759.625,-358.3906C732.179,-349.4123 690.4865,-335.7735 656.7324,-324.7316"/>
<polygon fill="#191970" stroke="#191970" points="657.5826,-321.3273 646.99,-321.5446 655.4061,-327.9803 657.5826,-321.3273"/>
</g>
<!-- Node16 -->
<g id="node9" class="node">
<title>Node16</title>
<g id="a_node9"><a xlink:href="VectorFixSize_8h.html" target="_top" xlink:title="iDynTree/Core/VectorFixSize.h">
<polygon fill="none" stroke="#000000" points="1624.5,-174 1624.5,-193 1785.5,-193 1785.5,-174 1624.5,-174"/>
<text text-anchor="middle" x="1705" y="-181" font-family="FreeSans.ttf" font-size="10.00" fill="#000000">iDynTree/Core/VectorFixSize.h</text>
</a>
</g>
</g>
<!-- Node6&#45;&gt;Node16 -->
<g id="edge8" class="edge">
<title>Node6&#45;&gt;Node16</title>
<path fill="none" stroke="#191970" d="M870.096,-362.8076C953.9768,-356.5468 1088.4853,-344.0149 1203,-322 1379.1757,-288.131 1583.8487,-223.5531 1666.9893,-196.2226"/>
<polygon fill="#191970" stroke="#191970" points="1668.1164,-199.5364 1676.5159,-193.0788 1665.9227,-192.889 1668.1164,-199.5364"/>
</g>
<!-- Node25 -->
<g id="node22" class="node">
<title>Node25</title>
<g id="a_node22"><a xlink:href="Twist_8h.html" target="_top" xlink:title="iDynTree/Core/Twist.h">
<polygon fill="none" stroke="#ff0000" points="218,-297 218,-316 340,-316 340,-297 218,-297"/>
<text text-anchor="middle" x="279" y="-304" font-family="FreeSans.ttf" font-size="10.00" fill="#000000">iDynTree/Core/Twist.h</text>
</a>
</g>
</g>
<!-- Node6&#45;&gt;Node25 -->
<g id="edge24" class="edge">
<title>Node6&#45;&gt;Node25</title>
<path fill="none" stroke="#191970" d="M707.8942,-359.4576C703.1934,-358.964 698.5358,-358.4754 694,-358 540.6739,-341.9306 501.1735,-346.7048 349,-322 342.3136,-320.9145 335.3065,-319.59 328.4174,-318.1772"/>
<polygon fill="#191970" stroke="#191970" points="328.9685,-314.7163 318.4594,-316.0617 327.5138,-321.5635 328.9685,-314.7163"/>
</g>
<!-- Node41 -->
<g id="node23" class="node">
<title>Node41</title>
<g id="a_node23"><a xlink:href="SpatialMomentum_8h.html" target="_top" xlink:title="iDynTree/Core/SpatialMomentum.h">
<polygon fill="none" stroke="#ff0000" points="696,-297 696,-316 882,-316 882,-297 696,-297"/>
<text text-anchor="middle" x="789" y="-304" font-family="FreeSans.ttf" font-size="10.00" fill="#000000">iDynTree/Core/SpatialMomentum.h</text>
</a>
</g>
</g>
<!-- Node6&#45;&gt;Node41 -->
<g id="edge25" class="edge">
<title>Node6&#45;&gt;Node41</title>
<path fill="none" stroke="#191970" d="M789,-358.3906C789,-349.8657 789,-337.1392 789,-326.4235"/>
<polygon fill="#191970" stroke="#191970" points="792.5001,-326.2448 789,-316.2449 785.5001,-326.2449 792.5001,-326.2448"/>
</g>
<!-- Node46 -->
<g id="node24" class="node">
<title>Node46</title>
<g id="a_node24"><a xlink:href="SpatialAcc_8h.html" target="_top" xlink:title="iDynTree/Core/SpatialAcc.h">
<polygon fill="none" stroke="#ff0000" points="358,-297 358,-316 506,-316 506,-297 358,-297"/>
<text text-anchor="middle" x="432" y="-304" font-family="FreeSans.ttf" font-size="10.00" fill="#000000">iDynTree/Core/SpatialAcc.h</text>
</a>
</g>
</g>
<!-- Node6&#45;&gt;Node46 -->
<g id="edge26" class="edge">
<title>Node6&#45;&gt;Node46</title>
<path fill="none" stroke="#191970" d="M730.9062,-358.4799C675.608,-349.3544 590.0751,-335.0743 516,-322 508.5874,-320.6917 500.8121,-319.2928 493.1092,-317.8908"/>
<polygon fill="#191970" stroke="#191970" points="493.5278,-314.4094 483.0613,-316.0532 492.2684,-321.2952 493.5278,-314.4094"/>
</g>
<!-- Node47 -->
<g id="node25" class="node">
<title>Node47</title>
<g id="a_node25"><a xlink:href="Wrench_8h.html" target="_top" xlink:title="iDynTree/Core/Wrench.h">
<polygon fill="none" stroke="#ff0000" points="900.5,-297 900.5,-316 1033.5,-316 1033.5,-297 900.5,-297"/>
<text text-anchor="middle" x="967" y="-304" font-family="FreeSans.ttf" font-size="10.00" fill="#000000">iDynTree/Core/Wrench.h</text>
</a>
</g>
</g>
<!-- Node6&#45;&gt;Node47 -->
<g id="edge27" class="edge">
<title>Node6&#45;&gt;Node47</title>
<path fill="none" stroke="#191970" d="M816.8125,-358.3906C847.2483,-347.8749 896.1877,-330.966 929.8826,-319.3243"/>
<polygon fill="#191970" stroke="#191970" points="931.074,-322.6157 939.3828,-316.0419 928.788,-315.9995 931.074,-322.6157"/>
</g>
<!-- Node16&#45;&gt;Node4 -->
<g id="edge20" class="edge">
<title>Node16&#45;&gt;Node4</title>
<path fill="none" stroke="#191970" d="M1650.3678,-173.9705C1586.9901,-162.6514 1486.5253,-143.8191 1450,-132 1429.5624,-125.3866 1426.8243,-117.2707 1406,-112 1284.1982,-81.1716 890.1993,-69.5254 774.3327,-66.7176"/>
<polygon fill="#191970" stroke="#191970" points="774.3912,-63.2181 764.3111,-66.4802 774.2253,-70.2162 774.3912,-63.2181"/>
</g>
<!-- Node10 -->
<g id="node10" class="node">
<title>Node10</title>
<g id="a_node10"><a xlink:href="Utils_8h.html" target="_top" xlink:title="iDynTree/Core/Utils.h">
<polygon fill="none" stroke="#000000" points="1336.5,-56.5 1336.5,-75.5 1455.5,-75.5 1455.5,-56.5 1336.5,-56.5"/>
<text text-anchor="middle" x="1396" y="-63.5" font-family="FreeSans.ttf" font-size="10.00" fill="#000000">iDynTree/Core/Utils.h</text>
</a>
</g>
</g>
<!-- Node16&#45;&gt;Node10 -->
<g id="edge9" class="edge">
<title>Node16&#45;&gt;Node10</title>
<path fill="none" stroke="#191970" d="M1697.782,-173.8417C1685.5078,-158.1703 1658.9664,-127.4074 1629,-112 1601.0668,-97.6379 1523.8581,-84.0783 1465.9176,-75.4527"/>
<polygon fill="#191970" stroke="#191970" points="1466.1067,-71.943 1455.7043,-73.9532 1465.0899,-78.8687 1466.1067,-71.943"/>
</g>
<!-- Node17 -->
<g id="node12" class="node">
<title>Node17</title>
<g id="a_node12"><a xlink:href="Span_8h.html" target="_top" xlink:title="iDynTree/Core/Span.h">
<polygon fill="none" stroke="#ff0000" points="1866.5,-112.5 1866.5,-131.5 1987.5,-131.5 1987.5,-112.5 1866.5,-112.5"/>
<text text-anchor="middle" x="1927" y="-119.5" font-family="FreeSans.ttf" font-size="10.00" fill="#000000">iDynTree/Core/Span.h</text>
</a>
</g>
</g>
<!-- Node16&#45;&gt;Node17 -->
<g id="edge11" class="edge">
<title>Node16&#45;&gt;Node17</title>
<path fill="none" stroke="#191970" d="M1739.6875,-173.8906C1778.2984,-163.1944 1840.786,-145.8836 1882.8548,-134.2294"/>
<polygon fill="#191970" stroke="#191970" points="1883.8535,-137.5847 1892.5561,-131.5419 1881.9846,-130.8387 1883.8535,-137.5847"/>
</g>
<!-- Node12 -->
<g id="node13" class="node">
<title>Node12</title>
<polygon fill="none" stroke="#bfbfbf" points="1659,-56.5 1659,-75.5 1711,-75.5 1711,-56.5 1659,-56.5"/>
<text text-anchor="middle" x="1685" y="-63.5" font-family="FreeSans.ttf" font-size="10.00" fill="#000000">cassert</text>
</g>
<!-- Node16&#45;&gt;Node12 -->
<g id="edge22" class="edge">
<title>Node16&#45;&gt;Node12</title>
<path fill="none" stroke="#191970" d="M1727.5503,-173.9553C1753.8562,-161.3687 1791.8542,-137.7789 1776,-112 1769.549,-101.5107 1743.2333,-88.8365 1720.5493,-79.4501"/>
<polygon fill="#191970" stroke="#191970" points="1721.7017,-76.141 1711.1184,-75.6447 1719.0822,-82.6324 1721.7017,-76.141"/>
</g>
<!-- Node15 -->
<g id="node20" class="node">
<title>Node15</title>
<polygon fill="none" stroke="#bfbfbf" points="1585,-56.5 1585,-75.5 1641,-75.5 1641,-56.5 1585,-56.5"/>
<text text-anchor="middle" x="1613" y="-63.5" font-family="FreeSans.ttf" font-size="10.00" fill="#000000">sstream</text>
</g>
<!-- Node16&#45;&gt;Node15 -->
<g id="edge21" class="edge">
<title>Node16&#45;&gt;Node15</title>
<path fill="none" stroke="#191970" d="M1707.0856,-173.7884C1709.6708,-159.1107 1712.3566,-130.9792 1700,-112 1688.7523,-94.7241 1668.7812,-83.5147 1650.808,-76.4909"/>
<polygon fill="#191970" stroke="#191970" points="1651.6911,-73.0893 1641.0966,-73.0075 1649.3276,-79.6783 1651.6911,-73.0893"/>
</g>
<!-- Node13 -->
<g id="node21" class="node">
<title>Node13</title>
<polygon fill="none" stroke="#bfbfbf" points="1517,-56.5 1517,-75.5 1567,-75.5 1567,-56.5 1517,-56.5"/>
<text text-anchor="middle" x="1542" y="-63.5" font-family="FreeSans.ttf" font-size="10.00" fill="#000000">cstring</text>
</g>
<!-- Node16&#45;&gt;Node13 -->
<g id="edge23" class="edge">
<title>Node16&#45;&gt;Node13</title>
<path fill="none" stroke="#191970" d="M1701.556,-173.7775C1695.7026,-158.5688 1682.4244,-129.1232 1662,-112 1648.7509,-100.8923 1607.5636,-86.3747 1577.121,-76.6467"/>
<polygon fill="#191970" stroke="#191970" points="1577.8544,-73.2083 1567.2649,-73.5432 1575.7519,-79.8851 1577.8544,-73.2083"/>
</g>
<!-- Node11 -->
<g id="node11" class="node">
<title>Node11</title>
<polygon fill="none" stroke="#bfbfbf" points="1560.5,-.5 1560.5,-19.5 1613.5,-19.5 1613.5,-.5 1560.5,-.5"/>
<text text-anchor="middle" x="1587" y="-7.5" font-family="FreeSans.ttf" font-size="10.00" fill="#000000">cstddef</text>
</g>
<!-- Node10&#45;&gt;Node11 -->
<g id="edge10" class="edge">
<title>Node10&#45;&gt;Node11</title>
<path fill="none" stroke="#191970" d="M1428.8341,-56.3733C1462.7139,-46.4399 1515.433,-30.983 1550.5755,-20.6794"/>
<polygon fill="#191970" stroke="#191970" points="1551.8223,-23.9613 1560.4336,-17.7891 1549.8528,-17.244 1551.8223,-23.9613"/>
</g>
<!-- Node17&#45;&gt;Node11 -->
<g id="edge15" class="edge">
<title>Node17&#45;&gt;Node11</title>
<path fill="none" stroke="#191970" d="M1881.2961,-112.4195C1846.7864,-104.5049 1798.601,-91.987 1758,-76 1740.2418,-69.0076 1737.5131,-63.5854 1720,-56 1688.0926,-42.1801 1650.5569,-29.5093 1623.5121,-20.9811"/>
<polygon fill="#191970" stroke="#191970" points="1624.2827,-17.5553 1613.6942,-17.9217 1622.2001,-24.2384 1624.2827,-17.5553"/>
</g>
<!-- Node17&#45;&gt;Node12 -->
<g id="edge12" class="edge">
<title>Node17&#45;&gt;Node12</title>
<path fill="none" stroke="#191970" d="M1883.9871,-112.4807C1843.0506,-103.3557 1779.7489,-89.0759 1725,-76 1723.7468,-75.7007 1722.472,-75.394 1721.185,-75.0825"/>
<polygon fill="#191970" stroke="#191970" points="1721.7765,-71.624 1711.2307,-72.6416 1720.1094,-78.4225 1721.7765,-71.624"/>
</g>
<!-- Node18 -->
<g id="node14" class="node">
<title>Node18</title>
<polygon fill="none" stroke="#bfbfbf" points="2131,-56.5 2131,-75.5 2195,-75.5 2195,-56.5 2131,-56.5"/>
<text text-anchor="middle" x="2163" y="-63.5" font-family="FreeSans.ttf" font-size="10.00" fill="#000000">algorithm</text>
</g>
<!-- Node17&#45;&gt;Node18 -->
<g id="edge13" class="edge">
<title>Node17&#45;&gt;Node18</title>
<path fill="none" stroke="#191970" d="M1967.7307,-112.4863C2005.114,-103.7334 2062.2993,-90.291 2120.9678,-76.2361"/>
<polygon fill="#191970" stroke="#191970" points="2121.8686,-79.6194 2130.7766,-73.8837 2120.2361,-72.8124 2121.8686,-79.6194"/>
</g>
<!-- Node19 -->
<g id="node15" class="node">
<title>Node19</title>
<polygon fill="none" stroke="#bfbfbf" points="1767,-56.5 1767,-75.5 1809,-75.5 1809,-56.5 1767,-56.5"/>
<text text-anchor="middle" x="1788" y="-63.5" font-family="FreeSans.ttf" font-size="10.00" fill="#000000">array</text>
</g>
<!-- Node17&#45;&gt;Node19 -->
<g id="edge14" class="edge">
<title>Node17&#45;&gt;Node19</title>
<path fill="none" stroke="#191970" d="M1903.105,-112.3733C1879.8065,-102.9868 1844.2658,-88.6682 1818.844,-78.4263"/>
<polygon fill="#191970" stroke="#191970" points="1819.8909,-75.0748 1809.3074,-74.5843 1817.275,-81.5677 1819.8909,-75.0748"/>
</g>
<!-- Node20 -->
<g id="node16" class="node">
<title>Node20</title>
<polygon fill="none" stroke="#bfbfbf" points="1976.5,-56.5 1976.5,-75.5 2029.5,-75.5 2029.5,-56.5 1976.5,-56.5"/>
<text text-anchor="middle" x="2003" y="-63.5" font-family="FreeSans.ttf" font-size="10.00" fill="#000000">iterator</text>
</g>
<!-- Node17&#45;&gt;Node20 -->
<g id="edge16" class="edge">
<title>Node17&#45;&gt;Node20</title>
<path fill="none" stroke="#191970" d="M1940.2382,-112.2455C1951.681,-103.814 1968.4296,-91.4729 1981.7475,-81.6598"/>
<polygon fill="#191970" stroke="#191970" points="1983.9391,-84.3924 1989.9135,-75.6427 1979.7867,-78.757 1983.9391,-84.3924"/>
</g>
<!-- Node21 -->
<g id="node17" class="node">
<title>Node21</title>
<polygon fill="none" stroke="#bfbfbf" points="1827,-56.5 1827,-75.5 1871,-75.5 1871,-56.5 1827,-56.5"/>
<text text-anchor="middle" x="1849" y="-63.5" font-family="FreeSans.ttf" font-size="10.00" fill="#000000">limits</text>
</g>
<!-- Node17&#45;&gt;Node21 -->
<g id="edge17" class="edge">
<title>Node17&#45;&gt;Node21</title>
<path fill="none" stroke="#191970" d="M1913.4134,-112.2455C1901.6695,-103.814 1884.4801,-91.4729 1870.8118,-81.6598"/>
<polygon fill="#191970" stroke="#191970" points="1872.5954,-78.6316 1862.4309,-75.6427 1868.5129,-84.3179 1872.5954,-78.6316"/>
</g>
<!-- Node22 -->
<g id="node18" class="node">
<title>Node22</title>
<polygon fill="none" stroke="#bfbfbf" points="2047.5,-56.5 2047.5,-75.5 2112.5,-75.5 2112.5,-56.5 2047.5,-56.5"/>
<text text-anchor="middle" x="2080" y="-63.5" font-family="FreeSans.ttf" font-size="10.00" fill="#000000">stdexcept</text>
</g>
<!-- Node17&#45;&gt;Node22 -->
<g id="edge18" class="edge">
<title>Node17&#45;&gt;Node22</title>
<path fill="none" stroke="#191970" d="M1953.3016,-112.3733C1978.4128,-103.1822 2016.4438,-89.2624 2044.2872,-79.0713"/>
<polygon fill="#191970" stroke="#191970" points="2045.8538,-82.2251 2054.0416,-75.5011 2043.4478,-75.6516 2045.8538,-82.2251"/>
</g>
<!-- Node23 -->
<g id="node19" class="node">
<title>Node23</title>
<polygon fill="none" stroke="#bfbfbf" points="1889.5,-56.5 1889.5,-75.5 1958.5,-75.5 1958.5,-56.5 1889.5,-56.5"/>
<text text-anchor="middle" x="1924" y="-63.5" font-family="FreeSans.ttf" font-size="10.00" fill="#000000">type_traits</text>
</g>
<!-- Node17&#45;&gt;Node23 -->
<g id="edge19" class="edge">
<title>Node17&#45;&gt;Node23</title>
<path fill="none" stroke="#191970" d="M1926.4774,-112.2455C1926.086,-104.9382 1925.5372,-94.6944 1925.0556,-85.7046"/>
<polygon fill="#191970" stroke="#191970" points="1928.5466,-85.4411 1924.5166,-75.6427 1921.5566,-85.8156 1928.5466,-85.4411"/>
</g>
<!-- Node48&#45;&gt;Node4 -->
<g id="edge57" class="edge">
<title>Node48&#45;&gt;Node4</title>
<path fill="none" stroke="#191970" d="M1154.7054,-358.417C1134.0687,-341.5137 1088.2171,-306.7068 1043,-291 973.7333,-266.9393 773.2456,-299.5448 715,-255 664.2745,-216.2064 674.0922,-169.9137 701,-112 706.0711,-101.0854 714.6031,-90.8803 722.5748,-82.8688"/>
<polygon fill="#191970" stroke="#191970" points="725.3526,-85.0589 730.2108,-75.6436 720.5415,-79.9743 725.3526,-85.0589"/>
</g>
<!-- Node36 -->
<g id="node27" class="node">
<title>Node36</title>
<g id="a_node27"><a xlink:href="Position_8h.html" target="_top" xlink:title="Position.h">
<polygon fill="none" stroke="#000000" points="1128.5,-297 1128.5,-316 1193.5,-316 1193.5,-297 1128.5,-297"/>
<text text-anchor="middle" x="1161" y="-304" font-family="FreeSans.ttf" font-size="10.00" fill="#000000">Position.h</text>
</a>
</g>
</g>
<!-- Node48&#45;&gt;Node36 -->
<g id="edge30" class="edge">
<title>Node48&#45;&gt;Node36</title>
<path fill="none" stroke="#191970" d="M1165.2188,-358.3906C1164.5257,-349.8657 1163.491,-337.1392 1162.6198,-326.4235"/>
<polygon fill="#191970" stroke="#191970" points="1166.0912,-325.9283 1161.7923,-316.2449 1159.1142,-326.4956 1166.0912,-325.9283"/>
</g>
<!-- Node30 -->
<g id="node30" class="node">
<title>Node30</title>
<g id="a_node30"><a xlink:href="Rotation_8h.html" target="_top" xlink:title="iDynTree/Core/Rotation.h">
<polygon fill="none" stroke="#000000" points="1132.5,-235.5 1132.5,-254.5 1269.5,-254.5 1269.5,-235.5 1132.5,-235.5"/>
<text text-anchor="middle" x="1201" y="-242.5" font-family="FreeSans.ttf" font-size="10.00" fill="#000000">iDynTree/Core/Rotation.h</text>
</a>
</g>
</g>
<!-- Node48&#45;&gt;Node30 -->
<g id="edge52" class="edge">
<title>Node48&#45;&gt;Node30</title>
<path fill="none" stroke="#191970" d="M1177.1502,-358.3293C1186.0671,-349.8007 1197.8921,-336.5 1203,-322 1209.5071,-303.5281 1207.9144,-280.9906 1205.3598,-265.0848"/>
<polygon fill="#191970" stroke="#191970" points="1208.719,-264.0091 1203.4318,-254.8278 1201.8395,-265.3023 1208.719,-264.0091"/>
</g>
<!-- Node9 -->
<g id="node32" class="node">
<title>Node9</title>
<g id="a_node32"><a xlink:href="MatrixFixSize_8h.html" target="_top" xlink:title="iDynTree/Core/MatrixFixSize.h">
<polygon fill="none" stroke="#000000" points="1458.5,-112.5 1458.5,-131.5 1619.5,-131.5 1619.5,-112.5 1458.5,-112.5"/>
<text text-anchor="middle" x="1539" y="-119.5" font-family="FreeSans.ttf" font-size="10.00" fill="#000000">iDynTree/Core/MatrixFixSize.h</text>
</a>
</g>
</g>
<!-- Node48&#45;&gt;Node9 -->
<g id="edge56" class="edge">
<title>Node48&#45;&gt;Node9</title>
<path fill="none" stroke="#191970" d="M1191.0316,-358.4051C1210.1898,-350.3648 1236.6862,-337.6913 1257,-322 1329.265,-266.1794 1316.4352,-217.7595 1393,-168 1417.9066,-151.8132 1448.8964,-140.9921 1475.9093,-133.9369"/>
<polygon fill="#191970" stroke="#191970" points="1476.8067,-137.3204 1485.6629,-131.5051 1475.1132,-130.5283 1476.8067,-137.3204"/>
</g>
<!-- Node49 -->
<g id="node35" class="node">
<title>Node49</title>
<g id="a_node35"><a xlink:href="TransformSemantics_8h.html" target="_top" xlink:title="iDynTree/Core/TransformSemantics.h">
<polygon fill="none" stroke="#000000" points="1128.5,-112.5 1128.5,-131.5 1325.5,-131.5 1325.5,-112.5 1128.5,-112.5"/>
<text text-anchor="middle" x="1227" y="-119.5" font-family="FreeSans.ttf" font-size="10.00" fill="#000000">iDynTree/Core/TransformSemantics.h</text>
</a>
</g>
</g>
<!-- Node48&#45;&gt;Node49 -->
<g id="edge53" class="edge">
<title>Node48&#45;&gt;Node49</title>
<path fill="none" stroke="#191970" d="M1182.1643,-358.3594C1208.7176,-341.4184 1260.4728,-303.4606 1279,-255 1292.8081,-218.8829 1294.8822,-203.2543 1279,-168 1273.4303,-155.6369 1262.7137,-145.2563 1252.4494,-137.5033"/>
<polygon fill="#191970" stroke="#191970" points="1254.2549,-134.4948 1244.0567,-131.623 1250.2382,-140.2277 1254.2549,-134.4948"/>
</g>
<!-- Node36&#45;&gt;Node4 -->
<g id="edge51" class="edge">
<title>Node36&#45;&gt;Node4</title>
<path fill="none" stroke="#191970" d="M1135.4239,-296.9275C1128.5499,-294.6694 1121.0621,-292.4888 1114,-291 1033.1662,-273.9589 814.2283,-298.5026 744,-255 688.5505,-220.6521 690.8322,-174.0297 711,-112 714.3238,-101.7769 720.643,-91.7233 726.7134,-83.6349"/>
<polygon fill="#191970" stroke="#191970" points="729.5356,-85.7099 733.0492,-75.7146 724.0694,-81.3372 729.5356,-85.7099"/>
</g>
<!-- Node37 -->
<g id="node28" class="node">
<title>Node37</title>
<g id="a_node28"><a xlink:href="PositionRaw_8h.html" target="_top" xlink:title="iDynTree/Core/PositionRaw.h">
<polygon fill="none" stroke="#000000" points="958,-235.5 958,-254.5 1114,-254.5 1114,-235.5 958,-235.5"/>
<text text-anchor="middle" x="1036" y="-242.5" font-family="FreeSans.ttf" font-size="10.00" fill="#000000">iDynTree/Core/PositionRaw.h</text>
</a>
</g>
</g>
<!-- Node36&#45;&gt;Node37 -->
<g id="edge31" class="edge">
<title>Node36&#45;&gt;Node37</title>
<path fill="none" stroke="#191970" d="M1141.4688,-296.8906C1120.8292,-286.7359 1088.0724,-270.6196 1064.5398,-259.0416"/>
<polygon fill="#191970" stroke="#191970" points="1065.912,-255.8161 1055.3941,-254.5419 1062.8218,-262.0971 1065.912,-255.8161"/>
</g>
<!-- Node38 -->
<g id="node29" class="node">
<title>Node38</title>
<g id="a_node29"><a xlink:href="PositionSemantics_8h.html" target="_top" xlink:title="iDynTree/Core/PositionSemantics.h">
<polygon fill="none" stroke="#000000" points="752.5,-235.5 752.5,-254.5 939.5,-254.5 939.5,-235.5 752.5,-235.5"/>
<text text-anchor="middle" x="846" y="-242.5" font-family="FreeSans.ttf" font-size="10.00" fill="#000000">iDynTree/Core/PositionSemantics.h</text>
</a>
</g>
</g>
<!-- Node36&#45;&gt;Node38 -->
<g id="edge34" class="edge">
<title>Node36&#45;&gt;Node38</title>
<path fill="none" stroke="#191970" d="M1134.3581,-296.9522C1127.7605,-294.7994 1120.6695,-292.6624 1114,-291 1052.6775,-275.7155 982.2024,-263.8374 928.9167,-255.9827"/>
<polygon fill="#191970" stroke="#191970" points="929.2353,-252.4923 918.8352,-254.5143 928.2263,-259.4192 929.2353,-252.4923"/>
</g>
<!-- Node36&#45;&gt;Node30 -->
<g id="edge36" class="edge">
<title>Node36&#45;&gt;Node30</title>
<path fill="none" stroke="#191970" d="M1167.25,-296.8906C1173.0865,-287.917 1181.9509,-274.2879 1189.1306,-263.2491"/>
<polygon fill="#191970" stroke="#191970" points="1192.1436,-265.0361 1194.6619,-254.7449 1186.2755,-261.2194 1192.1436,-265.0361"/>
</g>
<!-- Node37&#45;&gt;Node4 -->
<g id="edge33" class="edge">
<title>Node37&#45;&gt;Node4</title>
<path fill="none" stroke="#191970" d="M1008.0588,-235.3372C985.3201,-227.0014 952.7318,-213.9652 926,-199 905.4425,-187.4913 903.3737,-179.831 883,-168 849.6331,-148.6238 835.356,-154.4853 804,-132 784.9561,-118.3436 767.069,-98.2138 755.4483,-83.7794"/>
<polygon fill="#191970" stroke="#191970" points="757.9909,-81.3496 749.0682,-75.6367 752.4808,-85.6669 757.9909,-81.3496"/>
</g>
<!-- Node37&#45;&gt;Node16 -->
<g id="edge32" class="edge">
<title>Node37&#45;&gt;Node16</title>
<path fill="none" stroke="#191970" d="M1114.1955,-235.9744C1117.507,-235.6364 1120.7859,-235.31 1124,-235 1325.4764,-215.5701 1376.6059,-219.2654 1578,-199 1592.096,-197.5816 1607.0515,-195.9078 1621.5631,-194.194"/>
<polygon fill="#191970" stroke="#191970" points="1622.0087,-197.6657 1631.5227,-193.0037 1621.178,-190.7152 1622.0087,-197.6657"/>
</g>
<!-- Node38&#45;&gt;Node4 -->
<g id="edge35" class="edge">
<title>Node38&#45;&gt;Node4</title>
<path fill="none" stroke="#191970" d="M807.1145,-235.4838C775.2324,-226.8019 733.8185,-213.1953 724,-199 700.0357,-164.3531 718.8983,-112.3075 732.0485,-84.7193"/>
<polygon fill="#191970" stroke="#191970" points="735.1973,-86.2481 736.545,-75.7393 728.9381,-83.1139 735.1973,-86.2481"/>
</g>
<!-- Node30&#45;&gt;Node4 -->
<g id="edge37" class="edge">
<title>Node30&#45;&gt;Node4</title>
<path fill="none" stroke="#191970" d="M1164.3503,-235.4566C1083.4201,-214.1128 891.8865,-162.0413 832,-132 830.1133,-131.0536 789.076,-100.8014 763.0738,-81.5877"/>
<polygon fill="#191970" stroke="#191970" points="765.0323,-78.683 754.9103,-75.5532 760.8712,-84.312 765.0323,-78.683"/>
</g>
<!-- Node30&#45;&gt;Node16 -->
<g id="edge50" class="edge">
<title>Node30&#45;&gt;Node16</title>
<path fill="none" stroke="#191970" d="M1269.759,-236.6098C1359.867,-225.6144 1518.0179,-206.3163 1616.8377,-194.2579"/>
<polygon fill="#191970" stroke="#191970" points="1617.3017,-197.7273 1626.8041,-193.0418 1616.4537,-190.7789 1617.3017,-197.7273"/>
</g>
<!-- Node31 -->
<g id="node31" class="node">
<title>Node31</title>
<g id="a_node31"><a xlink:href="RotationRaw_8h.html" target="_top" xlink:title="iDynTree/Core/RotationRaw.h">
<polygon fill="none" stroke="#000000" points="1112,-174 1112,-193 1270,-193 1270,-174 1112,-174"/>
<text text-anchor="middle" x="1191" y="-181" font-family="FreeSans.ttf" font-size="10.00" fill="#000000">iDynTree/Core/RotationRaw.h</text>
</a>
</g>
</g>
<!-- Node30&#45;&gt;Node31 -->
<g id="edge38" class="edge">
<title>Node30&#45;&gt;Node31</title>
<path fill="none" stroke="#191970" d="M1199.4375,-235.3906C1198.0513,-226.8657 1195.982,-214.1392 1194.2396,-203.4235"/>
<polygon fill="#191970" stroke="#191970" points="1197.6442,-202.5535 1192.5845,-193.2449 1190.7349,-203.677 1197.6442,-202.5535"/>
</g>
<!-- Node32 -->
<g id="node34" class="node">
<title>Node32</title>
<g id="a_node34"><a xlink:href="RotationSemantics_8h.html" target="_top" xlink:title="iDynTree/Core/RotationSemantics.h">
<polygon fill="none" stroke="#000000" points="922,-112.5 922,-131.5 1110,-131.5 1110,-112.5 922,-112.5"/>
<text text-anchor="middle" x="1016" y="-119.5" font-family="FreeSans.ttf" font-size="10.00" fill="#000000">iDynTree/Core/RotationSemantics.h</text>
</a>
</g>
</g>
<!-- Node30&#45;&gt;Node32 -->
<g id="edge47" class="edge">
<title>Node30&#45;&gt;Node32</title>
<path fill="none" stroke="#191970" d="M1175.3852,-235.3394C1154.9714,-227.0941 1126.0848,-214.1799 1103,-199 1076.351,-181.4764 1049.4304,-156.2233 1032.7409,-139.475"/>
<polygon fill="#191970" stroke="#191970" points="1034.917,-136.6954 1025.4157,-132.0075 1029.9198,-141.5973 1034.917,-136.6954"/>
</g>
<!-- Node31&#45;&gt;Node4 -->
<g id="edge46" class="edge">
<title>Node31&#45;&gt;Node4</title>
<path fill="none" stroke="#191970" d="M1111.9274,-176.6207C1048.1999,-169.6061 956.8656,-156.208 880,-132 858.1554,-125.1203 803.1058,-97.5526 769.509,-80.2959"/>
<polygon fill="#191970" stroke="#191970" points="770.7316,-76.9884 760.2395,-75.5167 767.5238,-83.2102 770.7316,-76.9884"/>
</g>
<!-- Node31&#45;&gt;Node9 -->
<g id="edge39" class="edge">
<title>Node31&#45;&gt;Node9</title>
<path fill="none" stroke="#191970" d="M1244.9932,-173.9581C1307.1877,-162.9668 1409.2657,-144.9272 1475.2933,-133.2585"/>
<polygon fill="#191970" stroke="#191970" points="1475.9282,-136.7006 1485.1665,-131.5137 1474.71,-129.8074 1475.9282,-136.7006"/>
</g>
<!-- Node9&#45;&gt;Node4 -->
<g id="edge43" class="edge">
<title>Node9&#45;&gt;Node4</title>
<path fill="none" stroke="#191970" d="M1458.4276,-113.2966C1453.5476,-112.8384 1448.7094,-112.402 1444,-112 1185.9794,-89.9749 873.8185,-72.8794 774.1864,-67.656"/>
<polygon fill="#191970" stroke="#191970" points="774.3237,-64.1585 764.1549,-67.1327 773.9589,-71.149 774.3237,-64.1585"/>
</g>
<!-- Node9&#45;&gt;Node10 -->
<g id="edge40" class="edge">
<title>Node9&#45;&gt;Node10</title>
<path fill="none" stroke="#191970" d="M1514.4174,-112.3733C1491.0504,-103.2226 1455.7138,-89.3844 1429.7216,-79.2057"/>
<polygon fill="#191970" stroke="#191970" points="1430.8495,-75.8886 1420.2618,-75.5011 1428.297,-82.4066 1430.8495,-75.8886"/>
</g>
<!-- Node9&#45;&gt;Node12 -->
<g id="edge41" class="edge">
<title>Node9&#45;&gt;Node12</title>
<path fill="none" stroke="#191970" d="M1564.0983,-112.3733C1587.9555,-103.2226 1624.0335,-89.3844 1650.571,-79.2057"/>
<polygon fill="#191970" stroke="#191970" points="1652.1459,-82.3503 1660.2292,-75.5011 1649.639,-75.8145 1652.1459,-82.3503"/>
</g>
<!-- Node9&#45;&gt;Node15 -->
<g id="edge45" class="edge">
<title>Node9&#45;&gt;Node15</title>
<path fill="none" stroke="#191970" d="M1551.8898,-112.2455C1562.9254,-103.8943 1579.0292,-91.7076 1591.9353,-81.9408"/>
<polygon fill="#191970" stroke="#191970" points="1594.3959,-84.4681 1600.2579,-75.6427 1590.1717,-78.8862 1594.3959,-84.4681"/>
</g>
<!-- Node9&#45;&gt;Node13 -->
<g id="edge42" class="edge">
<title>Node9&#45;&gt;Node13</title>
<path fill="none" stroke="#191970" d="M1539.5226,-112.2455C1539.914,-104.9382 1540.4628,-94.6944 1540.9444,-85.7046"/>
<polygon fill="#191970" stroke="#191970" points="1544.4434,-85.8156 1541.4834,-75.6427 1537.4534,-85.4411 1544.4434,-85.8156"/>
</g>
<!-- Node9&#45;&gt;Node14 -->
<g id="edge44" class="edge">
<title>Node9&#45;&gt;Node14</title>
<path fill="none" stroke="#191970" d="M1619.6736,-118.2611C1767.2027,-111.1268 2076.179,-94.7362 2202.6543,-75.8948"/>
<polygon fill="#191970" stroke="#191970" points="2203.5393,-79.2992 2212.8806,-74.3001 2202.4607,-72.3828 2203.5393,-79.2992"/>
</g>
<!-- Node32&#45;&gt;Node4 -->
<g id="edge48" class="edge">
<title>Node32&#45;&gt;Node4</title>
<path fill="none" stroke="#191970" d="M969.209,-112.4369C913.5312,-101.0575 822.0692,-82.3645 773.925,-72.5248"/>
<polygon fill="#191970" stroke="#191970" points="774.5565,-69.0816 764.0581,-70.5082 773.1547,-75.9398 774.5565,-69.0816"/>
</g>
<!-- Node32&#45;&gt;Node10 -->
<g id="edge49" class="edge">
<title>Node32&#45;&gt;Node10</title>
<path fill="none" stroke="#191970" d="M1080.8926,-112.4369C1149.1825,-102.3731 1256.288,-86.5891 1326.3263,-76.2677"/>
<polygon fill="#191970" stroke="#191970" points="1326.999,-79.7065 1336.3818,-74.7858 1325.9784,-72.7813 1326.999,-79.7065"/>
</g>
<!-- Node49&#45;&gt;Node4 -->
<g id="edge54" class="edge">
<title>Node49&#45;&gt;Node4</title>
<path fill="none" stroke="#191970" d="M1144.4516,-112.4686C1035.6896,-99.9105 849.4413,-78.4056 774.5722,-69.7609"/>
<polygon fill="#191970" stroke="#191970" points="774.692,-66.2516 764.3565,-68.5814 773.8891,-73.2054 774.692,-66.2516"/>
</g>
<!-- Node49&#45;&gt;Node10 -->
<g id="edge55" class="edge">
<title>Node49&#45;&gt;Node10</title>
<path fill="none" stroke="#191970" d="M1256.0521,-112.3733C1284.1543,-103.0613 1326.9054,-88.8953 1357.7607,-78.671"/>
<polygon fill="#191970" stroke="#191970" points="1358.9355,-81.969 1367.327,-75.5011 1356.7336,-75.3243 1358.9355,-81.969"/>
</g>
<!-- Node50&#45;&gt;Node3 -->
<g id="edge64" class="edge">
<title>Node50&#45;&gt;Node3</title>
<path fill="none" stroke="#191970" d="M1150.2426,-422.5647C1009.8841,-410.6584 724.8393,-386.4788 586.2355,-374.7214"/>
<polygon fill="#191970" stroke="#191970" points="586.3696,-371.2202 576.1095,-373.8624 585.7778,-378.1952 586.3696,-371.2202"/>
</g>
<!-- Node50&#45;&gt;Node4 -->
<g id="edge61" class="edge">
<title>Node50&#45;&gt;Node4</title>
<path fill="none" stroke="#191970" d="M1150.0495,-423.5608C1045.2088,-415.509 858.137,-399.6146 699,-378 648.0275,-371.0767 635.9755,-364.9011 585,-358 501.8211,-346.7392 272.5365,-376.8511 209,-322 182.3185,-298.9659 190,-280.2487 190,-245 190,-245 190,-245 190,-183.5 190,-130.0545 590.9801,-82.3585 709.4306,-69.435"/>
<polygon fill="#191970" stroke="#191970" points="710.1114,-72.8818 719.6773,-68.3271 709.359,-65.9224 710.1114,-72.8818"/>
</g>
<!-- Node50&#45;&gt;Node48 -->
<g id="edge63" class="edge">
<title>Node50&#45;&gt;Node48</title>
<path fill="none" stroke="#191970" d="M1221.6875,-419.8906C1211.5758,-410.4683 1195.9558,-395.9134 1183.8293,-384.6137"/>
<polygon fill="#191970" stroke="#191970" points="1186.1601,-382.0015 1176.4579,-377.7449 1181.388,-387.1228 1186.1601,-382.0015"/>
</g>
<!-- Node50&#45;&gt;Node51 -->
<g id="edge60" class="edge">
<title>Node50&#45;&gt;Node51</title>
<path fill="none" stroke="#191970" d="M1280.718,-419.9581C1344.6406,-407.4382 1455.2561,-385.7731 1511.3027,-374.7958"/>
<polygon fill="#191970" stroke="#191970" points="1512.2912,-378.1688 1521.432,-372.8119 1510.9457,-371.2993 1512.2912,-378.1688"/>
</g>
<!-- Node50&#45;&gt;Node52 -->
<g id="edge62" class="edge">
<title>Node50&#45;&gt;Node52</title>
<path fill="none" stroke="#191970" d="M1255.125,-419.8906C1279.9967,-409.5554 1319.7298,-393.0447 1347.6844,-381.4284"/>
<polygon fill="#191970" stroke="#191970" points="1349.146,-384.6113 1357.0374,-377.5419 1346.4598,-378.1472 1349.146,-384.6113"/>
</g>
<!-- Node53&#45;&gt;Node1 -->
<g id="edge68" class="edge">
<title>Node53&#45;&gt;Node1</title>
<path fill="none" stroke="#191970" d="M1264.9307,-593.4509C1259.0326,-575.1013 1246.0113,-534.5908 1238.2259,-510.3693"/>
<polygon fill="#191970" stroke="#191970" points="1241.4538,-508.9741 1235.0616,-500.5249 1234.7896,-511.1162 1241.4538,-508.9741"/>
</g>
<!-- Node53&#45;&gt;Node4 -->
<g id="edge79" class="edge">
<title>Node53&#45;&gt;Node4</title>
<path fill="none" stroke="#191970" d="M1179.8434,-599.8341C892.2893,-588.9322 0,-550.3236 0,-491 0,-491 0,-491 0,-183.5 0,-142.5815 21.6718,-130.8303 58,-112 116.2676,-81.7977 581.906,-69.4916 709.6726,-66.6638"/>
<polygon fill="#191970" stroke="#191970" points="710.0429,-70.1567 719.9646,-66.4405 709.891,-63.1584 710.0429,-70.1567"/>
</g>
<!-- Node53&#45;&gt;Node52 -->
<g id="edge80" class="edge">
<title>Node53&#45;&gt;Node52</title>
<path fill="none" stroke="#191970" d="M1269.6038,-593.47C1272.1591,-580.1056 1278.0244,-555.375 1289,-537 1318.1733,-488.1588 1355.9822,-497.4572 1378,-445 1385.6212,-426.8424 1385.1364,-404.0961 1383.3493,-388.0483"/>
<polygon fill="#191970" stroke="#191970" points="1386.7559,-387.1326 1381.9153,-377.7082 1379.8223,-388.0943 1386.7559,-387.1326"/>
</g>
<!-- Node54 -->
<g id="node40" class="node">
<title>Node54</title>
<g id="a_node40"><a xlink:href="Sensors_8h.html" target="_top" xlink:title="iDynTree/Sensors/Sensors.h">
<polygon fill="none" stroke="#000000" points="1412.5,-537.5 1412.5,-556.5 1563.5,-556.5 1563.5,-537.5 1412.5,-537.5"/>
<text text-anchor="middle" x="1488" y="-544.5" font-family="FreeSans.ttf" font-size="10.00" fill="#000000">iDynTree/Sensors/Sensors.h</text>
</a>
</g>
</g>
<!-- Node53&#45;&gt;Node54 -->
<g id="edge69" class="edge">
<title>Node53&#45;&gt;Node54</title>
<path fill="none" stroke="#191970" d="M1305.8193,-593.3733C1343.1938,-583.8598 1400.4724,-569.2797 1440.8071,-559.0127"/>
<polygon fill="#191970" stroke="#191970" points="1441.8466,-562.3598 1450.6742,-556.5011 1440.1198,-555.5761 1441.8466,-562.3598"/>
</g>
<!-- Node56 -->
<g id="node42" class="node">
<title>Node56</title>
<polygon fill="none" stroke="#bfbfbf" points="1298,-537.5 1298,-556.5 1356,-556.5 1356,-537.5 1298,-537.5"/>
<text text-anchor="middle" x="1327" y="-544.5" font-family="FreeSans.ttf" font-size="10.00" fill="#000000">memory</text>
</g>
<!-- Node53&#45;&gt;Node56 -->
<g id="edge78" class="edge">
<title>Node53&#45;&gt;Node56</title>
<path fill="none" stroke="#191970" d="M1278.277,-593.2455C1286.8218,-585.1352 1299.1778,-573.4075 1309.3085,-563.7919"/>
<polygon fill="#191970" stroke="#191970" points="1311.9972,-566.0655 1316.8408,-556.6427 1307.1782,-560.9884 1311.9972,-566.0655"/>
</g>
<!-- Node54&#45;&gt;Node1 -->
<g id="edge76" class="edge">
<title>Node54&#45;&gt;Node1</title>
<path fill="none" stroke="#191970" d="M1444.2829,-537.4369C1400.3784,-527.8328 1332.6587,-513.0191 1285.555,-502.7152"/>
<polygon fill="#191970" stroke="#191970" points="1286.0537,-499.2416 1275.5368,-500.5237 1284.5578,-506.0799 1286.0537,-499.2416"/>
</g>
<!-- Node54&#45;&gt;Node3 -->
<g id="edge77" class="edge">
<title>Node54&#45;&gt;Node3</title>
<path fill="none" stroke="#191970" d="M1412.3185,-539.9913C1189.6502,-519.2314 551.2377,-458.6574 534,-445 516.6214,-431.2309 510.4005,-405.516 508.1899,-387.6092"/>
<polygon fill="#191970" stroke="#191970" points="511.6745,-387.2803 507.2679,-377.6454 504.7043,-387.9254 511.6745,-387.2803"/>
</g>
<!-- Node54&#45;&gt;Node4 -->
<g id="edge70" class="edge">
<title>Node54&#45;&gt;Node4</title>
<path fill="none" stroke="#191970" d="M1412.2546,-540.2913C1396.6379,-539.0629 1380.2927,-537.89 1365,-537 910.377,-510.542 792.344,-561.5865 341,-501 203.8648,-482.5916 38,-567.8652 38,-429.5 38,-429.5 38,-429.5 38,-183.5 38,-143.4081 57.6811,-130.9718 93,-112 147.5753,-82.6844 585.2146,-69.8321 709.3074,-66.755"/>
<polygon fill="#191970" stroke="#191970" points="709.7554,-70.2452 719.6672,-66.5029 709.585,-63.2473 709.7554,-70.2452"/>
</g>
<!-- Node54&#45;&gt;Node20 -->
<g id="edge72" class="edge">
<title>Node54&#45;&gt;Node20</title>
<path fill="none" stroke="#191970" d="M1550.8561,-537.4792C1645.5879,-521.3341 1814,-484.8484 1814,-429.5 1814,-429.5 1814,-429.5 1814,-245 1814,-149.4103 1946.6996,-213.285 1997,-132 2005.5036,-118.2583 2006.4823,-99.7285 2005.6335,-85.8009"/>
<polygon fill="#191970" stroke="#191970" points="2009.1127,-85.4156 2004.6698,-75.7973 2002.1449,-86.0869 2009.1127,-85.4156"/>
</g>
<!-- Node54&#45;&gt;Node52 -->
<g id="edge71" class="edge">
<title>Node54&#45;&gt;Node52</title>
<path fill="none" stroke="#191970" d="M1485.5151,-537.2313C1479.316,-514.1535 1461.5095,-455.1143 1432,-414 1423.7639,-402.525 1412.1717,-391.9165 1402.0218,-383.7857"/>
<polygon fill="#191970" stroke="#191970" points="1404.002,-380.8933 1393.9406,-377.574 1399.736,-386.4432 1404.002,-380.8933"/>
</g>
<!-- Node55 -->
<g id="node41" class="node">
<title>Node55</title>
<g id="a_node41"><a xlink:href="VectorDynSize_8h.html" target="_top" xlink:title="iDynTree/Core/VectorDynSize.h">
<polygon fill="none" stroke="#000000" points="1401.5,-174 1401.5,-193 1568.5,-193 1568.5,-174 1401.5,-174"/>
<text text-anchor="middle" x="1485" y="-181" font-family="FreeSans.ttf" font-size="10.00" fill="#000000">iDynTree/Core/VectorDynSize.h</text>
</a>
</g>
</g>
<!-- Node54&#45;&gt;Node55 -->
<g id="edge73" class="edge">
<title>Node54&#45;&gt;Node55</title>
<path fill="none" stroke="#191970" d="M1487.9198,-537.2773C1487.5172,-488.5019 1485.7153,-270.1683 1485.1621,-203.1363"/>
<polygon fill="#191970" stroke="#191970" points="1488.6616,-203.0547 1485.0791,-193.0839 1481.6618,-203.1125 1488.6616,-203.0547"/>
</g>
<!-- Node55&#45;&gt;Node4 -->
<g id="edge75" class="edge">
<title>Node55&#45;&gt;Node4</title>
<path fill="none" stroke="#191970" d="M1401.4483,-176.7591C1248.3132,-164.295 936.1563,-138.3366 913,-132 893.0581,-126.543 890.0951,-119.9268 871,-112 838.4304,-98.4796 800.3012,-85.1856 773.9859,-76.3938"/>
<polygon fill="#191970" stroke="#191970" points="774.7649,-72.9648 764.1715,-73.1406 772.5624,-79.6093 774.7649,-72.9648"/>
</g>
<!-- Node55&#45;&gt;Node17 -->
<g id="edge74" class="edge">
<title>Node55&#45;&gt;Node17</title>
<path fill="none" stroke="#191970" d="M1553.5775,-173.9581C1635.8621,-162.509 1773.1114,-143.4121 1856.3194,-131.8345"/>
<polygon fill="#191970" stroke="#191970" points="1857.0188,-135.271 1866.441,-130.4262 1856.0541,-128.3378 1857.0188,-135.271"/>
</g>
<!-- Node57&#45;&gt;Node3 -->
<g id="edge88" class="edge">
<title>Node57&#45;&gt;Node3</title>
<path fill="none" stroke="#191970" d="M443.4143,-481.3484C454.8517,-460.9601 481.6421,-413.2033 496.5401,-386.6459"/>
<polygon fill="#191970" stroke="#191970" points="499.7708,-388.0406 501.6108,-377.6068 493.6658,-384.6158 499.7708,-388.0406"/>
</g>
<!-- Node57&#45;&gt;Node4 -->
<g id="edge82" class="edge">
<title>Node57&#45;&gt;Node4</title>
<path fill="none" stroke="#191970" d="M366.0476,-481.449C260.4775,-465.3901 76,-428.6511 76,-368 76,-368 76,-368 76,-183.5 76,-144.4666 92.9899,-131.155 127,-112 177.9437,-83.3077 589.6898,-70.0893 709.4436,-66.8275"/>
<polygon fill="#191970" stroke="#191970" points="709.8828,-70.3171 719.7857,-66.5509 709.6956,-63.3196 709.8828,-70.3171"/>
</g>
<!-- Node57&#45;&gt;Node16 -->
<g id="edge84" class="edge">
<title>Node57&#45;&gt;Node16</title>
<path fill="none" stroke="#191970" d="M525.5031,-487.5242C692.6441,-480.5014 1045.4449,-463.6899 1098,-445 1120.5389,-436.9846 1120.1883,-423.8234 1142,-414 1205.3008,-385.4911 1228.4871,-400.9742 1294,-378 1445.277,-324.9498 1615.1773,-233.673 1678.9612,-198.1996"/>
<polygon fill="#191970" stroke="#191970" points="1680.9051,-201.1229 1687.9284,-193.1905 1677.4913,-195.0118 1680.9051,-201.1229"/>
</g>
<!-- Node57&#45;&gt;Node10 -->
<g id="edge87" class="edge">
<title>Node57&#45;&gt;Node10</title>
<path fill="none" stroke="#191970" d="M525.7186,-487.7987C666.242,-482.0584 935.4209,-468.3785 1028,-445 1060.9898,-436.6693 1065.7691,-424.904 1098,-414 1162.9439,-392.0289 1194.7635,-421.2009 1248,-378 1260.6213,-367.7579 1358.0955,-150.9063 1387.579,-84.8979"/>
<polygon fill="#191970" stroke="#191970" points="1390.8251,-86.2122 1391.7037,-75.6539 1384.4326,-83.3598 1390.8251,-86.2122"/>
</g>
<!-- Node57&#45;&gt;Node52 -->
<g id="edge83" class="edge">
<title>Node57&#45;&gt;Node52</title>
<path fill="none" stroke="#191970" d="M525.6378,-488.459C742.32,-481.906 1288.2864,-463.6384 1323,-445 1346.4917,-432.3869 1362.9141,-405.3752 1371.9088,-386.9446"/>
<polygon fill="#191970" stroke="#191970" points="1375.1458,-388.2823 1376.1393,-377.7342 1368.7848,-385.3605 1375.1458,-388.2823"/>
</g>
<!-- Node58 -->
<g id="node44" class="node">
<title>Node58</title>
<g id="a_node44"><a xlink:href="MatrixDynSize_8h.html" target="_top" xlink:title="iDynTree/Core/MatrixDynSize.h">
<polygon fill="none" stroke="#000000" points="183.5,-358.5 183.5,-377.5 350.5,-377.5 350.5,-358.5 183.5,-358.5"/>
<text text-anchor="middle" x="267" y="-365.5" font-family="FreeSans.ttf" font-size="10.00" fill="#000000">iDynTree/Core/MatrixDynSize.h</text>
</a>
</g>
</g>
<!-- Node57&#45;&gt;Node58 -->
<g id="edge85" class="edge">
<title>Node57&#45;&gt;Node58</title>
<path fill="none" stroke="#191970" d="M387.9471,-481.4165C349.3135,-473.0355 300.1421,-459.8965 286,-445 271.4578,-429.682 267.5213,-405.0742 266.7018,-387.8097"/>
<polygon fill="#191970" stroke="#191970" points="270.1995,-387.6366 266.5332,-377.6964 263.2005,-387.7533 270.1995,-387.6366"/>
</g>
<!-- Node59 -->
<g id="node45" class="node">
<title>Node59</title>
<g id="a_node45"><a xlink:href="FreeFloatingMatrices_8h.html" target="_top" xlink:title="iDynTree/Model/FreeFloating\lMatrices.h">
<polygon fill="none" stroke="#000000" points="295,-414.5 295,-444.5 449,-444.5 449,-414.5 295,-414.5"/>
<text text-anchor="start" x="303" y="-432.5" font-family="FreeSans.ttf" font-size="10.00" fill="#000000">iDynTree/Model/FreeFloating</text>
<text text-anchor="middle" x="372" y="-421.5" font-family="FreeSans.ttf" font-size="10.00" fill="#000000">Matrices.h</text>
</a>
</g>
</g>
<!-- Node57&#45;&gt;Node59 -->
<g id="edge89" class="edge">
<title>Node57&#45;&gt;Node59</title>
<path fill="none" stroke="#191970" d="M427.6875,-481.3906C419.086,-473.3756 406.4988,-461.6466 395.4666,-451.3666"/>
<polygon fill="#191970" stroke="#191970" points="397.8476,-448.8012 388.1454,-444.5446 393.0755,-453.9225 397.8476,-448.8012"/>
</g>
<!-- Node60 -->
<g id="node46" class="node">
<title>Node60</title>
<g id="a_node46"><a xlink:href="LinkState_8h.html" target="_top" xlink:title="iDynTree/Model/LinkState.h">
<polygon fill="none" stroke="#000000" points="869.5,-420 869.5,-439 1018.5,-439 1018.5,-420 869.5,-420"/>
<text text-anchor="middle" x="944" y="-427" font-family="FreeSans.ttf" font-size="10.00" fill="#000000">iDynTree/Model/LinkState.h</text>
</a>
</g>
</g>
<!-- Node57&#45;&gt;Node60 -->
<g id="edge91" class="edge">
<title>Node57&#45;&gt;Node60</title>
<path fill="none" stroke="#191970" d="M525.5273,-483.3613C611.0425,-475.4502 744.7882,-461.8854 860,-445 868.3314,-443.779 877.0994,-442.337 885.7005,-440.8323"/>
<polygon fill="#191970" stroke="#191970" points="886.4571,-444.2526 895.6846,-439.0464 885.2245,-437.3619 886.4571,-444.2526"/>
</g>
<!-- Node58&#45;&gt;Node4 -->
<g id="edge86" class="edge">
<title>Node58&#45;&gt;Node4</title>
<path fill="none" stroke="#191970" d="M221.673,-358.4476C198.2583,-351.5884 170.5734,-340.2415 151,-322 123.2241,-296.1141 114,-282.9681 114,-245 114,-245 114,-245 114,-183.5 114,-146.8684 124.0452,-131.5876 155,-112 202.0135,-82.2507 593.5775,-69.8326 709.6776,-66.783"/>
<polygon fill="#191970" stroke="#191970" points="709.8201,-70.2806 719.7268,-66.5246 709.6401,-63.2829 709.8201,-70.2806"/>
</g>
<!-- Node59&#45;&gt;Node58 -->
<g id="edge90" class="edge">
<title>Node59&#45;&gt;Node58</title>
<path fill="none" stroke="#191970" d="M346.3141,-414.4554C329.8703,-404.8241 308.6292,-392.3828 292.2677,-382.7996"/>
<polygon fill="#191970" stroke="#191970" points="293.669,-379.5643 283.2713,-377.5303 290.1312,-385.6045 293.669,-379.5643"/>
</g>
<!-- Node60&#45;&gt;Node3 -->
<g id="edge99" class="edge">
<title>Node60&#45;&gt;Node3</title>
<path fill="none" stroke="#191970" d="M894.7714,-419.9658C883.3738,-417.8837 871.28,-415.7744 860,-414 808.9076,-405.9629 673.7319,-388.7722 586.2601,-377.8326"/>
<polygon fill="#191970" stroke="#191970" points="586.4593,-374.3304 576.1025,-376.5636 585.5914,-381.2764 586.4593,-374.3304"/>
</g>
<!-- Node60&#45;&gt;Node25 -->
<g id="edge93" class="edge">
<title>Node60&#45;&gt;Node25</title>
<path fill="none" stroke="#191970" d="M893.8553,-419.9675C882.721,-417.929 870.9693,-415.8377 860,-414 754.0559,-396.2513 722.6833,-412.6362 621,-378 603.6742,-372.0984 602.3203,-363.9179 585,-358 484.5966,-323.6949 453.2987,-341.48 349,-322 342.8172,-320.8452 336.3479,-319.5424 329.9461,-318.195"/>
<polygon fill="#191970" stroke="#191970" points="330.5047,-314.7352 319.9925,-316.0558 329.0338,-321.579 330.5047,-314.7352"/>
</g>
<!-- Node60&#45;&gt;Node46 -->
<g id="edge94" class="edge">
<title>Node60&#45;&gt;Node46</title>
<path fill="none" stroke="#191970" d="M894.5507,-419.9278C844.9414,-410.1317 766.4294,-394.1028 699,-378 619.4142,-358.9941 527.3959,-333.5865 474.8135,-318.7367"/>
<polygon fill="#191970" stroke="#191970" points="475.7274,-315.3579 465.1521,-316.0016 473.8206,-322.0932 475.7274,-315.3579"/>
</g>
<!-- Node60&#45;&gt;Node47 -->
<g id="edge95" class="edge">
<title>Node60&#45;&gt;Node47</title>
<path fill="none" stroke="#191970" d="M945.8048,-419.8484C949.5668,-399.7295 958.3122,-352.9608 963.3144,-326.2098"/>
<polygon fill="#191970" stroke="#191970" points="966.8058,-326.5797 965.2036,-316.1068 959.9251,-325.293 966.8058,-326.5797"/>
</g>
<!-- Node60&#45;&gt;Node48 -->
<g id="edge92" class="edge">
<title>Node60&#45;&gt;Node48</title>
<path fill="none" stroke="#191970" d="M978.6875,-419.8906C1017.2984,-409.1944 1079.786,-391.8836 1121.8548,-380.2294"/>
<polygon fill="#191970" stroke="#191970" points="1122.8535,-383.5847 1131.5561,-377.5419 1120.9846,-376.8387 1122.8535,-383.5847"/>
</g>
<!-- Node60&#45;&gt;Node52 -->
<g id="edge100" class="edge">
<title>Node60&#45;&gt;Node52</title>
<path fill="none" stroke="#191970" d="M1011.6466,-419.9581C1106.0628,-406.6402 1273.842,-382.9741 1345.7425,-372.8322"/>
<polygon fill="#191970" stroke="#191970" points="1346.6215,-376.2429 1356.0346,-371.3804 1345.6437,-369.3116 1346.6215,-376.2429"/>
</g>
<!-- Node61 -->
<g id="node47" class="node">
<title>Node61</title>
<g id="a_node47"><a xlink:href="ArticulatedBodyInertia_8h.html" target="_top" xlink:title="iDynTree/Core/Articulated\lBodyInertia.h">
<polygon fill="none" stroke="#000000" points="732.5,-168.5 732.5,-198.5 873.5,-198.5 873.5,-168.5 732.5,-168.5"/>
<text text-anchor="start" x="740.5" y="-186.5" font-family="FreeSans.ttf" font-size="10.00" fill="#000000">iDynTree/Core/Articulated</text>
<text text-anchor="middle" x="803" y="-175.5" font-family="FreeSans.ttf" font-size="10.00" fill="#000000">BodyInertia.h</text>
</a>
</g>
</g>
<!-- Node60&#45;&gt;Node61 -->
<g id="edge96" class="edge">
<title>Node60&#45;&gt;Node61</title>
<path fill="none" stroke="#191970" d="M960.0919,-419.9211C997.2325,-396.6761 1082.8096,-335.8902 1043,-291 954.1916,-190.8575 832.8084,-355.1425 744,-255 729.1715,-238.2791 747.7913,-218.6597 767.9347,-204.2065"/>
<polygon fill="#191970" stroke="#191970" points="769.9591,-207.0625 776.2639,-198.5478 766.0253,-201.2724 769.9591,-207.0625"/>
</g>
<!-- Node61&#45;&gt;Node4 -->
<g id="edge98" class="edge">
<title>Node61&#45;&gt;Node4</title>
<path fill="none" stroke="#191970" d="M790.4937,-168.4472C782.7038,-158.5438 772.8892,-145.045 766,-132 758.0928,-117.0275 751.7018,-98.8768 747.5089,-85.4022"/>
<polygon fill="#191970" stroke="#191970" points="750.842,-84.3316 744.6306,-75.7485 744.1338,-86.3317 750.842,-84.3316"/>
</g>
<!-- Node61&#45;&gt;Node9 -->
<g id="edge97" class="edge">
<title>Node61&#45;&gt;Node9</title>
<path fill="none" stroke="#191970" d="M873.5708,-177.6031C1007.8373,-166.3838 1299.8803,-141.9808 1448.3793,-129.5722"/>
<polygon fill="#191970" stroke="#191970" points="1448.7107,-133.0568 1458.3845,-128.7362 1448.1278,-126.0812 1448.7107,-133.0568"/>
</g>
<!-- Node62&#45;&gt;Node4 -->
<g id="edge106" class="edge">
<title>Node62&#45;&gt;Node4</title>
<path fill="none" stroke="#191970" d="M1878.705,-419.97C1823.274,-373.2084 1582.5003,-170.1847 1578,-168 1507.7405,-133.892 1481.854,-150.5989 1406,-132 1374.1595,-124.1929 1367.2772,-117.74 1335,-112 1225.7753,-92.5759 882.1417,-73.3521 774.5435,-67.6764"/>
<polygon fill="#191970" stroke="#191970" points="774.4814,-64.1685 764.3119,-67.1401 774.1149,-71.1589 774.4814,-64.1685"/>
</g>
<!-- Node62&#45;&gt;Node18 -->
<g id="edge110" class="edge">
<title>Node62&#45;&gt;Node18</title>
<path fill="none" stroke="#191970" d="M1922.835,-427.0875C1984.0773,-421.925 2112.3952,-407.7726 2144,-378 2167.9335,-355.454 2163,-339.3806 2163,-306.5 2163,-306.5 2163,-306.5 2163,-183.5 2163,-149.1399 2163,-109.128 2163,-85.7764"/>
<polygon fill="#191970" stroke="#191970" points="2166.5001,-85.7489 2163,-75.7489 2159.5001,-85.749 2166.5001,-85.7489"/>
</g>
<!-- Node62&#45;&gt;Node22 -->
<g id="edge107" class="edge">
<title>Node62&#45;&gt;Node22</title>
<path fill="none" stroke="#191970" d="M1895.082,-419.7773C1920.6821,-370.8004 2035.6435,-150.861 2070.1665,-84.8131"/>
<polygon fill="#191970" stroke="#191970" points="2073.46,-86.0676 2074.9905,-75.5839 2067.2563,-82.825 2073.46,-86.0676"/>
</g>
<!-- Node62&#45;&gt;Node15 -->
<g id="edge103" class="edge">
<title>Node62&#45;&gt;Node15</title>
<path fill="none" stroke="#191970" d="M1890,-419.9309C1890,-399.238 1890,-348.7813 1890,-306.5 1890,-306.5 1890,-306.5 1890,-245 1890,-209.154 1890.2988,-194.3535 1866,-168 1835.894,-135.3483 1714.0978,-95.7899 1651.1253,-76.9719"/>
<polygon fill="#191970" stroke="#191970" points="1651.7634,-73.5107 1641.1812,-74.0267 1649.7755,-80.2225 1651.7634,-73.5107"/>
</g>
<!-- Node62&#45;&gt;Node13 -->
<g id="edge109" class="edge">
<title>Node62&#45;&gt;Node13</title>
<path fill="none" stroke="#191970" d="M1884.8752,-419.9277C1874.5028,-399.6328 1852,-350.5296 1852,-306.5 1852,-306.5 1852,-306.5 1852,-245 1852,-149.7675 1772.072,-148.2292 1684,-112 1664.5324,-103.9918 1612.5843,-87.6218 1577.2218,-76.7283"/>
<polygon fill="#191970" stroke="#191970" points="1577.8685,-73.2657 1567.2816,-73.6757 1575.8136,-79.9572 1577.8685,-73.2657"/>
</g>
<!-- Node62&#45;&gt;Node14 -->
<g id="edge102" class="edge">
<title>Node62&#45;&gt;Node14</title>
<path fill="none" stroke="#191970" d="M1922.9003,-426.898C1987.2535,-421.2453 2126.8366,-406.0429 2165,-378 2193.9996,-356.6907 2203,-342.487 2203,-306.5 2203,-306.5 2203,-306.5 2203,-183.5 2203,-146.8963 2220.6108,-107.136 2232.4619,-84.5237"/>
<polygon fill="#191970" stroke="#191970" points="2235.5696,-86.1351 2237.269,-75.6774 2229.419,-82.7928 2235.5696,-86.1351"/>
</g>
<!-- Node62&#45;&gt;Node51 -->
<g id="edge111" class="edge">
<title>Node62&#45;&gt;Node51</title>
<path fill="none" stroke="#191970" d="M1857.3304,-424.9016C1801.3251,-416.8141 1683.4952,-398.9048 1585,-378 1583.547,-377.6916 1582.0665,-377.3655 1580.5731,-377.0268"/>
<polygon fill="#191970" stroke="#191970" points="1581.224,-373.5838 1570.6841,-374.6615 1579.5956,-380.3918 1581.224,-373.5838"/>
</g>
<!-- Node62&#45;&gt;Node52 -->
<g id="edge104" class="edge">
<title>Node62&#45;&gt;Node52</title>
<path fill="none" stroke="#191970" d="M1857.3214,-425.5593C1765.6596,-414.506 1506.7622,-383.286 1413.778,-372.0732"/>
<polygon fill="#191970" stroke="#191970" points="1414.1328,-368.5907 1403.7857,-370.8683 1413.2947,-375.5404 1414.1328,-368.5907"/>
</g>
<!-- Node63 -->
<g id="node49" class="node">
<title>Node63</title>
<polygon fill="none" stroke="#bfbfbf" points="2021,-358.5 2021,-377.5 2059,-377.5 2059,-358.5 2021,-358.5"/>
<text text-anchor="middle" x="2040" y="-365.5" font-family="FreeSans.ttf" font-size="10.00" fill="#000000">map</text>
</g>
<!-- Node62&#45;&gt;Node63 -->
<g id="edge105" class="edge">
<title>Node62&#45;&gt;Node63</title>
<path fill="none" stroke="#191970" d="M1913.4375,-419.8906C1939.8246,-409.0719 1982.7162,-391.4863 2011.143,-379.8314"/>
<polygon fill="#191970" stroke="#191970" points="2012.6191,-383.009 2020.5439,-375.977 2009.9636,-376.5322 2012.6191,-383.009"/>
</g>
<!-- Node64 -->
<g id="node50" class="node">
<title>Node64</title>
<polygon fill="none" stroke="#bfbfbf" points="2077.5,-358.5 2077.5,-377.5 2134.5,-377.5 2134.5,-358.5 2077.5,-358.5"/>
<text text-anchor="middle" x="2106" y="-365.5" font-family="FreeSans.ttf" font-size="10.00" fill="#000000">typeinfo</text>
</g>
<!-- Node62&#45;&gt;Node64 -->
<g id="edge108" class="edge">
<title>Node62&#45;&gt;Node64</title>
<path fill="none" stroke="#191970" d="M1922.8058,-420.1595C1961.7289,-409.0772 2026.5206,-390.6296 2067.7036,-378.9038"/>
<polygon fill="#191970" stroke="#191970" points="2068.722,-382.253 2077.3813,-376.1484 2066.8051,-375.5206 2068.722,-382.253"/>
</g>
</g>
</svg>
