<?xml version="1.0" encoding="UTF-8" standalone="no"?>
<!DOCTYPE svg PUBLIC "-//W3C//DTD SVG 1.1//EN"
 "http://www.w3.org/Graphics/SVG/1.1/DTD/svg11.dtd">
<!-- Generated by graphviz version 2.40.1 (20161225.0304)
 -->
<!-- Title: Indices.h Pages: 1 -->
<svg width="3473pt" height="330pt"
 viewBox="0.00 0.00 3473.00 330.00" xmlns="http://www.w3.org/2000/svg" xmlns:xlink="http://www.w3.org/1999/xlink">
<g id="graph0" class="graph" transform="scale(1 1) rotate(0) translate(4 326)">
<title>Indices.h</title>
<!-- Node2 -->
<g id="node1" class="node">
<title>Node2</title>
<polygon fill="#bfbfbf" stroke="#000000" points="1787.5,-302.5 1787.5,-321.5 1847.5,-321.5 1847.5,-302.5 1787.5,-302.5"/>
<text text-anchor="middle" x="1817.5" y="-309.5" font-family="FreeSans.ttf" font-size="10.00" fill="#000000">Indices.h</text>
</g>
<!-- Node3 -->
<g id="node2" class="node">
<title>Node3</title>
<g id="a_node2"><a xlink:href="BerdyHelper_8h.html" target="_top" xlink:title="BerdyHelper.h">
<polygon fill="none" stroke="#000000" points="2101.5,-73 2101.5,-92 2187.5,-92 2187.5,-73 2101.5,-73"/>
<text text-anchor="middle" x="2144.5" y="-80" font-family="FreeSans.ttf" font-size="10.00" fill="#000000">BerdyHelper.h</text>
</a>
</g>
</g>
<!-- Node2&#45;&gt;Node3 -->
<g id="edge1" class="edge">
<title>Node2&#45;&gt;Node3</title>
<path fill="none" stroke="#191970" d="M1821.8644,-292.3162C1828.7198,-265.7132 1844.4443,-218.3564 1874.5,-190 1893.1245,-172.4285 2051.9876,-115.1284 2116.9685,-92.1557"/>
<polygon fill="#191970" stroke="#191970" points="1818.3913,-291.7895 1819.4535,-302.3309 1825.1969,-293.4279 1818.3913,-291.7895"/>
</g>
<!-- Node6 -->
<g id="node5" class="node">
<title>Node6</title>
<g id="a_node5"><a xlink:href="BerdySparseMAPSolver_8h.html" target="_top" xlink:title="BerdySparseMAPSolver.h">
<polygon fill="none" stroke="#000000" points="414.5,-190.5 414.5,-209.5 552.5,-209.5 552.5,-190.5 414.5,-190.5"/>
<text text-anchor="middle" x="483.5" y="-197.5" font-family="FreeSans.ttf" font-size="10.00" fill="#000000">BerdySparseMAPSolver.h</text>
</a>
</g>
</g>
<!-- Node2&#45;&gt;Node6 -->
<g id="edge4" class="edge">
<title>Node2&#45;&gt;Node6</title>
<path fill="none" stroke="#191970" d="M1777.2648,-311.3058C1608.6672,-308.2351 958.4267,-294.7348 755.5,-266 666.4918,-253.3963 564.0811,-224.5415 514.1217,-209.5057"/>
<polygon fill="#191970" stroke="#191970" points="1777.377,-314.8083 1787.4385,-311.489 1777.5032,-307.8094 1777.377,-314.8083"/>
</g>
<!-- Node7 -->
<g id="node6" class="node">
<title>Node7</title>
<g id="a_node6"><a xlink:href="ExternalWrenchesEstimation_8h.html" target="_top" xlink:title="ExternalWrenchesEstimation.h">
<polygon fill="none" stroke="#000000" points="2294.5,-134.5 2294.5,-153.5 2460.5,-153.5 2460.5,-134.5 2294.5,-134.5"/>
<text text-anchor="middle" x="2377.5" y="-141.5" font-family="FreeSans.ttf" font-size="10.00" fill="#000000">ExternalWrenchesEstimation.h</text>
</a>
</g>
</g>
<!-- Node2&#45;&gt;Node7 -->
<g id="edge6" class="edge">
<title>Node2&#45;&gt;Node7</title>
<path fill="none" stroke="#191970" d="M1857.8098,-311.5907C1978.8041,-309.9616 2332.7236,-302.1235 2368.5,-266 2398.8382,-235.3674 2386.7211,-176.6027 2380.4035,-153.5834"/>
<polygon fill="#191970" stroke="#191970" points="1857.4608,-308.0948 1847.5062,-311.7218 1857.55,-315.0942 1857.4608,-308.0948"/>
</g>
<!-- Node13 -->
<g id="node11" class="node">
<title>Node13</title>
<g id="a_node11"><a xlink:href="skinDynLibConversions_8h.html" target="_top" xlink:title="skinDynLibConversions.h">
<polygon fill="none" stroke="#000000" points="2955.5,-73 2955.5,-92 3095.5,-92 3095.5,-73 2955.5,-73"/>
<text text-anchor="middle" x="3025.5" y="-80" font-family="FreeSans.ttf" font-size="10.00" fill="#000000">skinDynLibConversions.h</text>
</a>
</g>
</g>
<!-- Node2&#45;&gt;Node13 -->
<g id="edge28" class="edge">
<title>Node2&#45;&gt;Node13</title>
<path fill="none" stroke="#191970" d="M1857.788,-310.3892C1983.7909,-305.1725 2369.3145,-287.8084 2492.5,-266 2580.448,-250.4299 2599.7929,-235.1313 2685.5,-210 2769.57,-185.3487 2792.6662,-185.284 2874.5,-154 2924.0809,-135.0459 2979.9378,-106.6536 3007.7621,-92.0024"/>
<polygon fill="#191970" stroke="#191970" points="1857.636,-306.8924 1847.7881,-310.8002 1857.9235,-313.8865 1857.636,-306.8924"/>
</g>
<!-- Node16 -->
<g id="node14" class="node">
<title>Node16</title>
<g id="a_node14"><a xlink:href="SimpleLeggedOdometry_8h.html" target="_top" xlink:title="SimpleLeggedOdometry.h">
<polygon fill="none" stroke="#000000" points="1145.5,-73 1145.5,-92 1287.5,-92 1287.5,-73 1145.5,-73"/>
<text text-anchor="middle" x="1216.5" y="-80" font-family="FreeSans.ttf" font-size="10.00" fill="#000000">SimpleLeggedOdometry.h</text>
</a>
</g>
</g>
<!-- Node2&#45;&gt;Node16 -->
<g id="edge16" class="edge">
<title>Node2&#45;&gt;Node16</title>
<path fill="none" stroke="#191970" d="M1777.407,-309.6458C1673.8863,-303.3223 1403.2169,-285.1457 1367.5,-266 1289.6844,-224.2878 1236.4493,-124.085 1221.076,-92.3286"/>
<polygon fill="#191970" stroke="#191970" points="1777.2717,-313.1439 1787.4651,-310.2549 1777.6949,-306.1567 1777.2717,-313.1439"/>
</g>
<!-- Node17 -->
<g id="node15" class="node">
<title>Node17</title>
<g id="a_node15"><a xlink:href="SimpleLeggedOdometry_8cpp.html" target="_top" xlink:title="SimpleLeggedOdometry.cpp">
<polygon fill="none" stroke="#000000" points="855,-6 855,-25 1008,-25 1008,-6 855,-6"/>
<text text-anchor="middle" x="931.5" y="-13" font-family="FreeSans.ttf" font-size="10.00" fill="#000000">SimpleLeggedOdometry.cpp</text>
</a>
</g>
</g>
<!-- Node2&#45;&gt;Node17 -->
<g id="edge18" class="edge">
<title>Node2&#45;&gt;Node17</title>
<path fill="none" stroke="#191970" d="M1777.1926,-311.3829C1527.0574,-307.296 197.5,-281.7286 197.5,-200 197.5,-200 197.5,-200 197.5,-144 197.5,-105.4356 205.3033,-88.227 237.5,-67 288.0602,-33.6661 685.1271,-20.9562 854.9165,-17.0119"/>
<polygon fill="#191970" stroke="#191970" points="1777.2407,-314.884 1787.2958,-311.5458 1777.3536,-307.8849 1777.2407,-314.884"/>
</g>
<!-- Node18 -->
<g id="node16" class="node">
<title>Node18</title>
<g id="a_node16"><a xlink:href="KinDynComputations_8h.html" target="_top" xlink:title="KinDynComputations.h">
<polygon fill="none" stroke="#000000" points="614,-134.5 614,-153.5 743,-153.5 743,-134.5 614,-134.5"/>
<text text-anchor="middle" x="678.5" y="-141.5" font-family="FreeSans.ttf" font-size="10.00" fill="#000000">KinDynComputations.h</text>
</a>
</g>
</g>
<!-- Node2&#45;&gt;Node18 -->
<g id="edge19" class="edge">
<title>Node2&#45;&gt;Node18</title>
<path fill="none" stroke="#191970" d="M1777.0911,-310.5418C1646.1707,-305.6374 1234.5725,-288.7613 1103.5,-266 948.8312,-239.1411 770.0663,-177.3421 704.4008,-153.5646"/>
<polygon fill="#191970" stroke="#191970" points="1776.9757,-314.0398 1787.0989,-310.9137 1777.2358,-307.0446 1776.9757,-314.0398"/>
</g>
<!-- Node33 -->
<g id="node24" class="node">
<title>Node33</title>
<g id="a_node24"><a xlink:href="Centroidal_8h.html" target="_top" xlink:title="Centroidal.h">
<polygon fill="none" stroke="#000000" points="1387.5,-246.5 1387.5,-265.5 1463.5,-265.5 1463.5,-246.5 1387.5,-246.5"/>
<text text-anchor="middle" x="1425.5" y="-253.5" font-family="FreeSans.ttf" font-size="10.00" fill="#000000">Centroidal.h</text>
</a>
</g>
</g>
<!-- Node2&#45;&gt;Node33 -->
<g id="edge29" class="edge">
<title>Node2&#45;&gt;Node33</title>
<path fill="none" stroke="#191970" d="M1777.3724,-307.3031C1713.6639,-299.6814 1585.526,-283.6808 1477.5,-266 1472.9638,-265.2575 1468.2158,-264.4236 1463.512,-263.5623"/>
<polygon fill="#191970" stroke="#191970" points="1777.0551,-310.7899 1787.3988,-308.4969 1777.8828,-303.839 1777.0551,-310.7899"/>
</g>
<!-- Node34 -->
<g id="node25" class="node">
<title>Node34</title>
<g id="a_node25"><a xlink:href="ContactWrench_8h.html" target="_top" xlink:title="ContactWrench.h">
<polygon fill="none" stroke="#000000" points="2766,-134.5 2766,-153.5 2865,-153.5 2865,-134.5 2766,-134.5"/>
<text text-anchor="middle" x="2815.5" y="-141.5" font-family="FreeSans.ttf" font-size="10.00" fill="#000000">ContactWrench.h</text>
</a>
</g>
</g>
<!-- Node2&#45;&gt;Node34 -->
<g id="edge30" class="edge">
<title>Node2&#45;&gt;Node34</title>
<path fill="none" stroke="#191970" d="M1857.6615,-310.2712C1976.5998,-304.9536 2325.6781,-287.8684 2437.5,-266 2575.8981,-238.9342 2734.3954,-177.2588 2792.5648,-153.5395"/>
<polygon fill="#191970" stroke="#191970" points="1857.3692,-306.7806 1847.5341,-310.7203 1857.6794,-313.7738 1857.3692,-306.7806"/>
</g>
<!-- Node36 -->
<g id="node27" class="node">
<title>Node36</title>
<g id="a_node27"><a xlink:href="DenavitHartenberg_8h.html" target="_top" xlink:title="DenavitHartenberg.h">
<polygon fill="none" stroke="#000000" points="857,-134.5 857,-153.5 976,-153.5 976,-134.5 857,-134.5"/>
<text text-anchor="middle" x="916.5" y="-141.5" font-family="FreeSans.ttf" font-size="10.00" fill="#000000">DenavitHartenberg.h</text>
</a>
</g>
</g>
<!-- Node2&#45;&gt;Node36 -->
<g id="edge36" class="edge">
<title>Node2&#45;&gt;Node36</title>
<path fill="none" stroke="#191970" d="M1777.0503,-311.1981C1653.1347,-308.4206 1280.1271,-297.5878 1163.5,-266 1068.8632,-240.3681 967.4042,-177.5547 930.7352,-153.5448"/>
<polygon fill="#191970" stroke="#191970" points="1777.1637,-314.7013 1787.2378,-311.4207 1777.3167,-307.7029 1777.1637,-314.7013"/>
</g>
<!-- Node39 -->
<g id="node30" class="node">
<title>Node39</title>
<g id="a_node30"><a xlink:href="Dynamics_8h.html" target="_top" xlink:title="Dynamics.h">
<polygon fill="none" stroke="#ff0000" points="1576.5,-134.5 1576.5,-153.5 1650.5,-153.5 1650.5,-134.5 1576.5,-134.5"/>
<text text-anchor="middle" x="1613.5" y="-141.5" font-family="FreeSans.ttf" font-size="10.00" fill="#000000">Dynamics.h</text>
</a>
</g>
</g>
<!-- Node2&#45;&gt;Node39 -->
<g id="edge40" class="edge">
<title>Node2&#45;&gt;Node39</title>
<path fill="none" stroke="#191970" d="M1777.6899,-302.3231C1753.8549,-295.1202 1723.9332,-283.4724 1701.5,-266 1659.8808,-233.5842 1629.1514,-176.365 1618.0392,-153.668"/>
<polygon fill="#191970" stroke="#191970" points="1776.9147,-305.742 1787.4926,-305.142 1778.8493,-299.0146 1776.9147,-305.742"/>
</g>
<!-- Node46 -->
<g id="node34" class="node">
<title>Node46</title>
<g id="a_node34"><a xlink:href="FixedJoint_8h.html" target="_top" xlink:title="FixedJoint.h">
<polygon fill="none" stroke="#ff0000" points="1461,-190.5 1461,-209.5 1534,-209.5 1534,-190.5 1461,-190.5"/>
<text text-anchor="middle" x="1497.5" y="-197.5" font-family="FreeSans.ttf" font-size="10.00" fill="#000000">FixedJoint.h</text>
</a>
</g>
</g>
<!-- Node2&#45;&gt;Node46 -->
<g id="edge49" class="edge">
<title>Node2&#45;&gt;Node46</title>
<path fill="none" stroke="#191970" d="M1777.4439,-310.7982C1674.1509,-307.2884 1404.9651,-295.3831 1378.5,-266 1350.8313,-235.2806 1416.5997,-215.7186 1460.9887,-206.4149"/>
<polygon fill="#191970" stroke="#191970" points="1777.3723,-314.2976 1787.4827,-311.1304 1777.604,-307.3015 1777.3723,-314.2976"/>
</g>
<!-- Node52 -->
<g id="node35" class="node">
<title>Node52</title>
<g id="a_node35"><a xlink:href="ForwardKinematics_8h.html" target="_top" xlink:title="ForwardKinematics.h">
<polygon fill="none" stroke="#ff0000" points="994,-134.5 994,-153.5 1113,-153.5 1113,-134.5 994,-134.5"/>
<text text-anchor="middle" x="1053.5" y="-141.5" font-family="FreeSans.ttf" font-size="10.00" fill="#000000">ForwardKinematics.h</text>
</a>
</g>
</g>
<!-- Node2&#45;&gt;Node52 -->
<g id="edge51" class="edge">
<title>Node2&#45;&gt;Node52</title>
<path fill="none" stroke="#191970" d="M1777.0516,-303.1056C1645.8606,-274.2573 1232.8215,-183.4319 1097.1533,-153.5992"/>
<polygon fill="#191970" stroke="#191970" points="1776.5605,-306.5811 1787.0788,-305.3105 1778.0639,-299.7445 1776.5605,-306.5811"/>
</g>
<!-- Node55 -->
<g id="node36" class="node">
<title>Node55</title>
<g id="a_node36"><a xlink:href="FreeFloatingState_8h.html" target="_top" xlink:title="FreeFloatingState.h">
<polygon fill="none" stroke="#ff0000" points="1744.5,-134.5 1744.5,-153.5 1854.5,-153.5 1854.5,-134.5 1744.5,-134.5"/>
<text text-anchor="middle" x="1799.5" y="-141.5" font-family="FreeSans.ttf" font-size="10.00" fill="#000000">FreeFloatingState.h</text>
</a>
</g>
</g>
<!-- Node2&#45;&gt;Node55 -->
<g id="edge56" class="edge">
<title>Node2&#45;&gt;Node55</title>
<path fill="none" stroke="#191970" d="M1815.385,-292.2601C1811.5179,-256.1669 1803.4392,-180.7656 1800.553,-153.8279"/>
<polygon fill="#191970" stroke="#191970" points="1811.9352,-292.916 1816.4807,-302.4862 1818.8953,-292.1702 1811.9352,-292.916"/>
</g>
<!-- Node57 -->
<g id="node37" class="node">
<title>Node57</title>
<g id="a_node37"><a xlink:href="IJoint_8h.html" target="_top" xlink:title="IJoint.h">
<polygon fill="none" stroke="#ff0000" points="1720.5,-246.5 1720.5,-265.5 1770.5,-265.5 1770.5,-246.5 1720.5,-246.5"/>
<text text-anchor="middle" x="1745.5" y="-253.5" font-family="FreeSans.ttf" font-size="10.00" fill="#000000">IJoint.h</text>
</a>
</g>
</g>
<!-- Node2&#45;&gt;Node57 -->
<g id="edge63" class="edge">
<title>Node2&#45;&gt;Node57</title>
<path fill="none" stroke="#191970" d="M1796.836,-295.928C1784.2511,-286.1397 1768.5908,-273.9595 1757.8977,-265.6427"/>
<polygon fill="#191970" stroke="#191970" points="1794.9162,-298.8688 1804.9586,-302.2455 1799.2138,-293.3434 1794.9162,-298.8688"/>
</g>
<!-- Node58 -->
<g id="node38" class="node">
<title>Node58</title>
<g id="a_node38"><a xlink:href="Model_8h.html" target="_top" xlink:title="Model.h">
<polygon fill="none" stroke="#ff0000" points="2079,-190.5 2079,-209.5 2134,-209.5 2134,-190.5 2079,-190.5"/>
<text text-anchor="middle" x="2106.5" y="-197.5" font-family="FreeSans.ttf" font-size="10.00" fill="#000000">Model.h</text>
</a>
</g>
</g>
<!-- Node2&#45;&gt;Node58 -->
<g id="edge108" class="edge">
<title>Node2&#45;&gt;Node58</title>
<path fill="none" stroke="#191970" d="M1857.9135,-309.8432C1948.0747,-304.6187 2159.4158,-289.9247 2180.5,-266 2199.9628,-243.9152 2160.407,-221.8863 2131.9939,-209.6924"/>
<polygon fill="#191970" stroke="#191970" points="1857.5781,-306.3565 1847.7932,-310.4192 1857.976,-313.3452 1857.5781,-306.3565"/>
</g>
<!-- Node86 -->
<g id="node39" class="node">
<title>Node86</title>
<g id="a_node39"><a xlink:href="Sensors_8h.html" target="_top" xlink:title="Sensors.h">
<polygon fill="none" stroke="#ff0000" points="2592.5,-134.5 2592.5,-153.5 2656.5,-153.5 2656.5,-134.5 2592.5,-134.5"/>
<text text-anchor="middle" x="2624.5" y="-141.5" font-family="FreeSans.ttf" font-size="10.00" fill="#000000">Sensors.h</text>
</a>
</g>
</g>
<!-- Node2&#45;&gt;Node86 -->
<g id="edge131" class="edge">
<title>Node2&#45;&gt;Node86</title>
<path fill="none" stroke="#191970" d="M1857.9294,-309.7022C1927.7075,-305.1587 2074.9546,-293.0272 2196.5,-266 2224.3509,-259.807 2230.1927,-254.2666 2257.5,-246 2380.6062,-208.7325 2528.4972,-169.2153 2592.4494,-152.3793"/>
<polygon fill="#191970" stroke="#191970" points="1857.5686,-306.218 1847.8097,-310.3429 1858.0109,-313.204 1857.5686,-306.218"/>
</g>
<!-- Node138 -->
<g id="node40" class="node">
<title>Node138</title>
<g id="a_node40"><a xlink:href="Indeces_8h.html" target="_top" xlink:title="Indeces.h">
<polygon fill="none" stroke="#000000" points="1941,-246.5 1941,-265.5 2004,-265.5 2004,-246.5 1941,-246.5"/>
<text text-anchor="middle" x="1972.5" y="-253.5" font-family="FreeSans.ttf" font-size="10.00" fill="#000000">Indeces.h</text>
</a>
</g>
</g>
<!-- Node2&#45;&gt;Node138 -->
<g id="edge85" class="edge">
<title>Node2&#45;&gt;Node138</title>
<path fill="none" stroke="#191970" d="M1853.6949,-298.9231C1882.0297,-288.686 1920.7718,-274.6889 1946.2022,-265.5011"/>
<polygon fill="#191970" stroke="#191970" points="1852.3612,-295.6835 1844.1454,-302.3733 1854.7398,-302.267 1852.3612,-295.6835"/>
</g>
<!-- Node139 -->
<g id="node41" class="node">
<title>Node139</title>
<g id="a_node41"><a xlink:href="Jacobians_8h.html" target="_top" xlink:title="Jacobians.h">
<polygon fill="none" stroke="#ff0000" points="1552.5,-190.5 1552.5,-209.5 1624.5,-209.5 1624.5,-190.5 1552.5,-190.5"/>
<text text-anchor="middle" x="1588.5" y="-197.5" font-family="FreeSans.ttf" font-size="10.00" fill="#000000">Jacobians.h</text>
</a>
</g>
</g>
<!-- Node2&#45;&gt;Node139 -->
<g id="edge86" class="edge">
<title>Node2&#45;&gt;Node139</title>
<path fill="none" stroke="#191970" d="M1776.8739,-309.2187C1738.4256,-304.9116 1680.5011,-293.9401 1638.5,-266 1616.7167,-251.5093 1600.6349,-224.264 1593.1578,-209.7237"/>
<polygon fill="#191970" stroke="#191970" points="1776.8698,-312.7362 1787.1725,-310.2653 1777.5776,-305.7721 1776.8698,-312.7362"/>
</g>
<!-- Node140 -->
<g id="node42" class="node">
<title>Node140</title>
<g id="a_node42"><a xlink:href="Link_8h.html" target="_top" xlink:title="Link.h">
<polygon fill="none" stroke="#ff0000" points="2125.5,-246.5 2125.5,-265.5 2171.5,-265.5 2171.5,-246.5 2125.5,-246.5"/>
<text text-anchor="middle" x="2148.5" y="-253.5" font-family="FreeSans.ttf" font-size="10.00" fill="#000000">Link.h</text>
</a>
</g>
</g>
<!-- Node2&#45;&gt;Node140 -->
<g id="edge88" class="edge">
<title>Node2&#45;&gt;Node140</title>
<path fill="none" stroke="#191970" d="M1858.1074,-307.714C1915.9631,-301.165 2025.2252,-287.1565 2116.5,-266 2119.3351,-265.3429 2122.2834,-264.5609 2125.1926,-263.7281"/>
<polygon fill="#191970" stroke="#191970" points="1857.4692,-304.2633 1847.9187,-308.85 1858.245,-311.2202 1857.4692,-304.2633"/>
</g>
<!-- Node143 -->
<g id="node43" class="node">
<title>Node143</title>
<g id="a_node43"><a xlink:href="LinkState_8h.html" target="_top" xlink:title="LinkState.h">
<polygon fill="none" stroke="#ff0000" points="1681,-190.5 1681,-209.5 1752,-209.5 1752,-190.5 1681,-190.5"/>
<text text-anchor="middle" x="1716.5" y="-197.5" font-family="FreeSans.ttf" font-size="10.00" fill="#000000">LinkState.h</text>
</a>
</g>
</g>
<!-- Node2&#45;&gt;Node143 -->
<g id="edge90" class="edge">
<title>Node2&#45;&gt;Node143</title>
<path fill="none" stroke="#191970" d="M1776.9605,-305.5978C1753.56,-299.5967 1725.9758,-288.062 1711.5,-266 1700.2789,-248.8984 1707.0795,-223.6704 1712.2652,-209.8847"/>
<polygon fill="#191970" stroke="#191970" points="1776.4877,-309.0804 1787.0182,-307.9146 1778.0591,-302.2591 1776.4877,-309.0804"/>
</g>
<!-- Node157 -->
<g id="node44" class="node">
<title>Node157</title>
<g id="a_node44"><a xlink:href="LinkTraversalsCache_8h.html" target="_top" xlink:title="LinkTraversalsCache.h">
<polygon fill="none" stroke="#ff0000" points="2113,-134.5 2113,-153.5 2238,-153.5 2238,-134.5 2113,-134.5"/>
<text text-anchor="middle" x="2175.5" y="-141.5" font-family="FreeSans.ttf" font-size="10.00" fill="#000000">LinkTraversalsCache.h</text>
</a>
</g>
</g>
<!-- Node2&#45;&gt;Node157 -->
<g id="edge103" class="edge">
<title>Node2&#45;&gt;Node157</title>
<path fill="none" stroke="#191970" d="M1841.502,-297.0615C1864.4438,-283.0638 1900.2178,-261.9627 1932.5,-246 2009.8101,-207.7721 2105.0185,-170.5385 2149.8513,-153.5613"/>
<polygon fill="#191970" stroke="#191970" points="1839.4821,-294.1946 1832.7928,-302.4107 1843.1457,-300.1593 1839.4821,-294.1946"/>
</g>
<!-- Node133 -->
<g id="node45" class="node">
<title>Node133</title>
<g id="a_node45"><a xlink:href="PrismaticJoint_8h.html" target="_top" xlink:title="PrismaticJoint.h">
<polygon fill="none" stroke="#ff0000" points="2266,-246.5 2266,-265.5 2359,-265.5 2359,-246.5 2266,-246.5"/>
<text text-anchor="middle" x="2312.5" y="-253.5" font-family="FreeSans.ttf" font-size="10.00" fill="#000000">PrismaticJoint.h</text>
</a>
</g>
</g>
<!-- Node2&#45;&gt;Node133 -->
<g id="edge109" class="edge">
<title>Node2&#45;&gt;Node133</title>
<path fill="none" stroke="#191970" d="M1857.7424,-308.5057C1934.4856,-301.6713 2106.9914,-285.4872 2251.5,-266 2256.1796,-265.369 2261.0525,-264.6594 2265.9142,-263.917"/>
<polygon fill="#191970" stroke="#191970" points="1857.2143,-305.0387 1847.5621,-309.4074 1857.8319,-312.0114 1857.2143,-305.0387"/>
</g>
<!-- Node135 -->
<g id="node46" class="node">
<title>Node135</title>
<g id="a_node46"><a xlink:href="RevoluteJoint_8h.html" target="_top" xlink:title="RevoluteJoint.h">
<polygon fill="none" stroke="#ff0000" points="1088.5,-190.5 1088.5,-209.5 1178.5,-209.5 1178.5,-190.5 1088.5,-190.5"/>
<text text-anchor="middle" x="1133.5" y="-197.5" font-family="FreeSans.ttf" font-size="10.00" fill="#000000">RevoluteJoint.h</text>
</a>
</g>
</g>
<!-- Node2&#45;&gt;Node135 -->
<g id="edge110" class="edge">
<title>Node2&#45;&gt;Node135</title>
<path fill="none" stroke="#191970" d="M1777.1836,-310.7809C1647.2354,-306.6108 1244.7801,-291.7333 1192.5,-266 1167.1277,-253.5112 1147.7486,-224.8794 1138.8548,-209.7618"/>
<polygon fill="#191970" stroke="#191970" points="1777.3773,-314.2887 1787.4832,-311.1072 1777.5991,-307.2922 1777.3773,-314.2887"/>
</g>
<!-- Node158 -->
<g id="node47" class="node">
<title>Node158</title>
<g id="a_node47"><a xlink:href="SolidShapes_8h.html" target="_top" xlink:title="SolidShapes.h">
<polygon fill="none" stroke="#ff0000" points="2022,-246.5 2022,-265.5 2107,-265.5 2107,-246.5 2022,-246.5"/>
<text text-anchor="middle" x="2064.5" y="-253.5" font-family="FreeSans.ttf" font-size="10.00" fill="#000000">SolidShapes.h</text>
</a>
</g>
</g>
<!-- Node2&#45;&gt;Node158 -->
<g id="edge112" class="edge">
<title>Node2&#45;&gt;Node158</title>
<path fill="none" stroke="#191970" d="M1857.5565,-302.9184C1902.8478,-292.6499 1976.2685,-276.0039 2022.3899,-265.5472"/>
<polygon fill="#191970" stroke="#191970" points="1856.7656,-299.5088 1847.787,-305.1333 1858.3135,-306.3355 1856.7656,-299.5088"/>
</g>
<!-- Node163 -->
<g id="node48" class="node">
<title>Node163</title>
<g id="a_node48"><a xlink:href="SubModel_8h.html" target="_top" xlink:title="SubModel.h">
<polygon fill="none" stroke="#ff0000" points="2675,-134.5 2675,-153.5 2748,-153.5 2748,-134.5 2675,-134.5"/>
<text text-anchor="middle" x="2711.5" y="-141.5" font-family="FreeSans.ttf" font-size="10.00" fill="#000000">SubModel.h</text>
</a>
</g>
</g>
<!-- Node2&#45;&gt;Node163 -->
<g id="edge114" class="edge">
<title>Node2&#45;&gt;Node163</title>
<path fill="none" stroke="#191970" d="M1857.9056,-310.2197C1970.6588,-305.0175 2287.09,-288.7587 2388.5,-266 2508.1086,-239.1571 2642.7386,-177.3485 2692.0656,-153.5665"/>
<polygon fill="#191970" stroke="#191970" points="1857.4737,-306.7357 1847.6439,-310.6884 1857.7932,-313.7284 1857.4737,-306.7357"/>
</g>
<!-- Node164 -->
<g id="node49" class="node">
<title>Node164</title>
<g id="a_node49"><a xlink:href="Traversal_8h.html" target="_top" xlink:title="Traversal.h">
<polygon fill="none" stroke="#ff0000" points="2024.5,-134.5 2024.5,-153.5 2094.5,-153.5 2094.5,-134.5 2024.5,-134.5"/>
<text text-anchor="middle" x="2059.5" y="-141.5" font-family="FreeSans.ttf" font-size="10.00" fill="#000000">Traversal.h</text>
</a>
</g>
</g>
<!-- Node2&#45;&gt;Node164 -->
<g id="edge118" class="edge">
<title>Node2&#45;&gt;Node164</title>
<path fill="none" stroke="#191970" d="M1830.828,-293.9432C1836.94,-285.5312 1844.2092,-275.3387 1850.5,-266 1872.8201,-232.866 1866.5249,-213.9508 1898.5,-190 1908.6791,-182.3754 1980.1768,-163.6792 2024.4024,-152.6114"/>
<polygon fill="#191970" stroke="#191970" points="1827.832,-292.1107 1824.751,-302.2476 1833.481,-296.2445 1827.832,-292.1107"/>
</g>
<!-- Node165 -->
<g id="node50" class="node">
<title>Node165</title>
<g id="a_node50"><a xlink:href="Indices_8cpp.html" target="_top" xlink:title="Indices.cpp">
<polygon fill="none" stroke="#000000" points="3394,-246.5 3394,-265.5 3465,-265.5 3465,-246.5 3394,-246.5"/>
<text text-anchor="middle" x="3429.5" y="-253.5" font-family="FreeSans.ttf" font-size="10.00" fill="#000000">Indices.cpp</text>
</a>
</g>
</g>
<!-- Node2&#45;&gt;Node165 -->
<g id="edge130" class="edge">
<title>Node2&#45;&gt;Node165</title>
<path fill="none" stroke="#191970" d="M1857.6784,-311.7313C2070.9024,-310.1664 3071.8415,-301.0445 3379.5,-266 3384.1617,-265.469 3389.0362,-264.7293 3393.8357,-263.8899"/>
<polygon fill="#191970" stroke="#191970" points="1857.5347,-308.2322 1847.5602,-311.8042 1857.5852,-315.232 1857.5347,-308.2322"/>
</g>
<!-- Node4 -->
<g id="node3" class="node">
<title>Node4</title>
<g id="a_node3"><a xlink:href="BerdyHelper_8cpp.html" target="_top" xlink:title="BerdyHelper.cpp">
<polygon fill="none" stroke="#000000" points="2167,-6 2167,-25 2264,-25 2264,-6 2167,-6"/>
<text text-anchor="middle" x="2215.5" y="-13" font-family="FreeSans.ttf" font-size="10.00" fill="#000000">BerdyHelper.cpp</text>
</a>
</g>
</g>
<!-- Node3&#45;&gt;Node4 -->
<g id="edge2" class="edge">
<title>Node3&#45;&gt;Node4</title>
<path fill="none" stroke="#191970" d="M2162.0486,-65.94C2175.668,-53.0879 2194.0715,-35.7212 2205.3463,-25.0817"/>
<polygon fill="#191970" stroke="#191970" points="2159.5434,-63.4917 2154.6726,-72.9005 2164.3477,-68.5828 2159.5434,-63.4917"/>
</g>
<!-- Node5 -->
<g id="node4" class="node">
<title>Node5</title>
<g id="a_node4"><a xlink:href="BerdySparseMAPSolver_8cpp.html" target="_top" xlink:title="BerdySparseMAPSolver.cpp">
<polygon fill="none" stroke="#000000" points="1780,-6 1780,-25 1929,-25 1929,-6 1780,-6"/>
<text text-anchor="middle" x="1854.5" y="-13" font-family="FreeSans.ttf" font-size="10.00" fill="#000000">BerdySparseMAPSolver.cpp</text>
</a>
</g>
</g>
<!-- Node3&#45;&gt;Node5 -->
<g id="edge3" class="edge">
<title>Node3&#45;&gt;Node5</title>
<path fill="none" stroke="#191970" d="M2104.1494,-70.1432C2100.2238,-69.0402 2096.2922,-67.974 2092.5,-67 2027.804,-50.3841 1952.3081,-34.6611 1903.9874,-25.0581"/>
<polygon fill="#191970" stroke="#191970" points="2103.2344,-73.5219 2113.8126,-72.9286 2105.1733,-66.7957 2103.2344,-73.5219"/>
</g>
<!-- Node6&#45;&gt;Node5 -->
<g id="edge5" class="edge">
<title>Node6&#45;&gt;Node5</title>
<path fill="none" stroke="#191970" d="M423.2656,-188.2781C337.3035,-169.1211 195.9553,-127.1208 254.5,-67 280.7682,-40.0247 1571.8857,-32.6889 1609.5,-31 1666.6594,-28.4334 1731.2459,-24.2961 1779.7503,-20.9413"/>
<polygon fill="#191970" stroke="#191970" points="422.6837,-191.7334 433.2,-190.4459 424.1761,-184.8944 422.6837,-191.7334"/>
</g>
<!-- Node7&#45;&gt;Node4 -->
<g id="edge10" class="edge">
<title>Node7&#45;&gt;Node4</title>
<path fill="none" stroke="#191970" d="M2357.4663,-128.1091C2323.5089,-101.1737 2255.6306,-47.332 2227.8176,-25.2705"/>
<polygon fill="#191970" stroke="#191970" points="2355.314,-130.8692 2365.3237,-134.3416 2359.6642,-125.385 2355.314,-130.8692"/>
</g>
<!-- Node8 -->
<g id="node7" class="node">
<title>Node8</title>
<g id="a_node7"><a xlink:href="ExtWrenchesAndJointTorquesEstimator_8h.html" target="_top" xlink:title="ExtWrenchesAndJointTorques\lEstimator.h">
<polygon fill="none" stroke="#000000" points="2433.5,-67.5 2433.5,-97.5 2591.5,-97.5 2591.5,-67.5 2433.5,-67.5"/>
<text text-anchor="start" x="2441.5" y="-85.5" font-family="FreeSans.ttf" font-size="10.00" fill="#000000">ExtWrenchesAndJointTorques</text>
<text text-anchor="middle" x="2512.5" y="-74.5" font-family="FreeSans.ttf" font-size="10.00" fill="#000000">Estimator.h</text>
</a>
</g>
</g>
<!-- Node7&#45;&gt;Node8 -->
<g id="edge7" class="edge">
<title>Node7&#45;&gt;Node8</title>
<path fill="none" stroke="#191970" d="M2407.8255,-130.185C2429.1251,-120.4819 2457.6015,-107.5093 2479.4753,-97.5446"/>
<polygon fill="#191970" stroke="#191970" points="2406.243,-127.0598 2398.5938,-134.3906 2409.145,-133.43 2406.243,-127.0598"/>
</g>
<!-- Node9 -->
<g id="node8" class="node">
<title>Node9</title>
<g id="a_node8"><a xlink:href="ExtWrenchesAndJointTorquesEstimator_8cpp.html" target="_top" xlink:title="ExtWrenchesAndJointTorques\lEstimator.cpp">
<polygon fill="none" stroke="#000000" points="2433.5,-.5 2433.5,-30.5 2591.5,-30.5 2591.5,-.5 2433.5,-.5"/>
<text text-anchor="start" x="2441.5" y="-18.5" font-family="FreeSans.ttf" font-size="10.00" fill="#000000">ExtWrenchesAndJointTorques</text>
<text text-anchor="middle" x="2512.5" y="-7.5" font-family="FreeSans.ttf" font-size="10.00" fill="#000000">Estimator.cpp</text>
</a>
</g>
</g>
<!-- Node7&#45;&gt;Node9 -->
<g id="edge12" class="edge">
<title>Node7&#45;&gt;Node9</title>
<path fill="none" stroke="#191970" d="M2385.7361,-125.1261C2393.7705,-108.3383 2407.2845,-83.8992 2424.5,-67 2439.9116,-51.8714 2460.6199,-39.466 2478.0763,-30.6241"/>
<polygon fill="#191970" stroke="#191970" points="2382.4454,-123.9056 2381.4576,-134.4543 2388.808,-126.824 2382.4454,-123.9056"/>
</g>
<!-- Node10 -->
<g id="node9" class="node">
<title>Node10</title>
<g id="a_node9"><a xlink:href="GravityCompensationHelpers_8h.html" target="_top" xlink:title="GravityCompensationHelpers.h">
<polygon fill="none" stroke="#ff0000" points="1913.5,-73 1913.5,-92 2083.5,-92 2083.5,-73 1913.5,-73"/>
<text text-anchor="middle" x="1998.5" y="-80" font-family="FreeSans.ttf" font-size="10.00" fill="#000000">GravityCompensationHelpers.h</text>
</a>
</g>
</g>
<!-- Node7&#45;&gt;Node10 -->
<g id="edge9" class="edge">
<title>Node7&#45;&gt;Node10</title>
<path fill="none" stroke="#191970" d="M2308.1661,-132.8768C2250.4486,-123.601 2166.1121,-110.0097 2092.5,-98 2080.7467,-96.0825 2068.1691,-94.0175 2056.1606,-92.0397"/>
<polygon fill="#191970" stroke="#191970" points="2307.8379,-136.3689 2318.2665,-134.4997 2308.9484,-129.4575 2307.8379,-136.3689"/>
</g>
<!-- Node12 -->
<g id="node10" class="node">
<title>Node12</title>
<g id="a_node10"><a xlink:href="ExternalWrenchesEstimation_8cpp.html" target="_top" xlink:title="ExternalWrenchesEstimation.cpp">
<polygon fill="none" stroke="#000000" points="2609,-73 2609,-92 2786,-92 2786,-73 2609,-73"/>
<text text-anchor="middle" x="2697.5" y="-80" font-family="FreeSans.ttf" font-size="10.00" fill="#000000">ExternalWrenchesEstimation.cpp</text>
</a>
</g>
</g>
<!-- Node7&#45;&gt;Node12 -->
<g id="edge11" class="edge">
<title>Node7&#45;&gt;Node12</title>
<path fill="none" stroke="#191970" d="M2436.9873,-132.5673C2497.7789,-120.8839 2591.1051,-102.9478 2647.9979,-92.0137"/>
<polygon fill="#191970" stroke="#191970" points="2436.3086,-129.1336 2427.1489,-134.4581 2437.6298,-136.0078 2436.3086,-129.1336"/>
</g>
<!-- Node7&#45;&gt;Node13 -->
<g id="edge13" class="edge">
<title>Node7&#45;&gt;Node13</title>
<path fill="none" stroke="#191970" d="M2470.5866,-135.1654C2601.6911,-122.7226 2837.8122,-100.313 2955.2361,-89.1686"/>
<polygon fill="#191970" stroke="#191970" points="2470.1822,-131.6879 2460.5577,-136.1172 2470.8437,-138.6566 2470.1822,-131.6879"/>
</g>
<!-- Node8&#45;&gt;Node9 -->
<g id="edge8" class="edge">
<title>Node8&#45;&gt;Node9</title>
<path fill="none" stroke="#191970" d="M2512.5,-57.0249C2512.5,-48.128 2512.5,-38.4287 2512.5,-30.6432"/>
<polygon fill="#191970" stroke="#191970" points="2509.0001,-57.2966 2512.5,-67.2967 2516.0001,-57.2967 2509.0001,-57.2966"/>
</g>
<!-- Node14 -->
<g id="node12" class="node">
<title>Node14</title>
<g id="a_node12"><a xlink:href="iCub_2skinDynLibConversions_8h.html" target="_top" xlink:title="skinDynLibConversions.h">
<polygon fill="none" stroke="#000000" points="2889.5,-6 2889.5,-25 3029.5,-25 3029.5,-6 2889.5,-6"/>
<text text-anchor="middle" x="2959.5" y="-13" font-family="FreeSans.ttf" font-size="10.00" fill="#000000">skinDynLibConversions.h</text>
</a>
</g>
</g>
<!-- Node13&#45;&gt;Node14 -->
<g id="edge14" class="edge">
<title>Node13&#45;&gt;Node14</title>
<path fill="none" stroke="#191970" d="M3008.8311,-65.5785C2996.2077,-52.7639 2979.3215,-35.6218 2968.9386,-25.0817"/>
<polygon fill="#191970" stroke="#191970" points="3006.5327,-68.2327 3016.0438,-72.9005 3011.5195,-63.3203 3006.5327,-68.2327"/>
</g>
<!-- Node15 -->
<g id="node13" class="node">
<title>Node15</title>
<g id="a_node13"><a xlink:href="skinDynLibConversions_8cpp.html" target="_top" xlink:title="skinDynLibConversions.cpp">
<polygon fill="none" stroke="#000000" points="3048,-6 3048,-25 3199,-25 3199,-6 3048,-6"/>
<text text-anchor="middle" x="3123.5" y="-13" font-family="FreeSans.ttf" font-size="10.00" fill="#000000">skinDynLibConversions.cpp</text>
</a>
</g>
</g>
<!-- Node13&#45;&gt;Node15 -->
<g id="edge15" class="edge">
<title>Node13&#45;&gt;Node15</title>
<path fill="none" stroke="#191970" d="M3047.8991,-67.1864C3066.8483,-54.2312 3093.4136,-36.0693 3109.485,-25.0817"/>
<polygon fill="#191970" stroke="#191970" points="3045.8208,-64.3674 3039.541,-72.9005 3049.7715,-70.146 3045.8208,-64.3674"/>
</g>
<!-- Node16&#45;&gt;Node17 -->
<g id="edge17" class="edge">
<title>Node16&#45;&gt;Node17</title>
<path fill="none" stroke="#191970" d="M1166.0528,-70.6405C1110.8513,-57.6633 1023.4308,-37.1118 972.3525,-25.1039"/>
<polygon fill="#191970" stroke="#191970" points="1165.4335,-74.0902 1175.9691,-72.9717 1167.0355,-67.276 1165.4335,-74.0902"/>
</g>
<!-- Node19 -->
<g id="node17" class="node">
<title>Node19</title>
<g id="a_node17"><a xlink:href="KinDynComputations_8cpp.html" target="_top" xlink:title="KinDynComputations.cpp">
<polygon fill="none" stroke="#000000" points="1305.5,-73 1305.5,-92 1445.5,-92 1445.5,-73 1305.5,-73"/>
<text text-anchor="middle" x="1375.5" y="-80" font-family="FreeSans.ttf" font-size="10.00" fill="#000000">KinDynComputations.cpp</text>
</a>
</g>
</g>
<!-- Node18&#45;&gt;Node19 -->
<g id="edge20" class="edge">
<title>Node18&#45;&gt;Node19</title>
<path fill="none" stroke="#191970" d="M753.3035,-139.5561C894.0878,-131.006 1193.5196,-111.8846 1296.5,-98 1307.9967,-96.4499 1320.3428,-94.2757 1331.779,-92.0449"/>
<polygon fill="#191970" stroke="#191970" points="752.8078,-136.0796 743.0377,-140.1779 753.2311,-143.0668 752.8078,-136.0796"/>
</g>
<!-- Node20 -->
<g id="node18" class="node">
<title>Node20</title>
<g id="a_node18"><a xlink:href="InverseKinematicsData_8h.html" target="_top" xlink:title="InverseKinematicsData.h">
<polygon fill="none" stroke="#ff0000" points="763.5,-73 763.5,-92 903.5,-92 903.5,-73 763.5,-73"/>
<text text-anchor="middle" x="833.5" y="-80" font-family="FreeSans.ttf" font-size="10.00" fill="#000000">InverseKinematicsData.h</text>
</a>
</g>
</g>
<!-- Node18&#45;&gt;Node20 -->
<g id="edge21" class="edge">
<title>Node18&#45;&gt;Node20</title>
<path fill="none" stroke="#191970" d="M712.1521,-130.6477C741.5024,-119.0023 783.3577,-102.3952 809.4513,-92.0419"/>
<polygon fill="#191970" stroke="#191970" points="710.723,-127.4492 702.7188,-134.3906 713.3047,-133.9558 710.723,-127.4492"/>
</g>
<!-- Node23 -->
<g id="node19" class="node">
<title>Node23</title>
<g id="a_node19"><a xlink:href="idyntree-model-info_8cpp.html" target="_top" xlink:title="idyntree&#45;model&#45;info.cpp">
<polygon fill="none" stroke="#000000" points="611.5,-73 611.5,-92 745.5,-92 745.5,-73 611.5,-73"/>
<text text-anchor="middle" x="678.5" y="-80" font-family="FreeSans.ttf" font-size="10.00" fill="#000000">idyntree&#45;model&#45;info.cpp</text>
</a>
</g>
</g>
<!-- Node18&#45;&gt;Node23 -->
<g id="edge22" class="edge">
<title>Node18&#45;&gt;Node23</title>
<path fill="none" stroke="#191970" d="M678.5,-124.2462C678.5,-113.5519 678.5,-100.814 678.5,-92.2449"/>
<polygon fill="#191970" stroke="#191970" points="675.0001,-124.3906 678.5,-134.3906 682.0001,-124.3907 675.0001,-124.3906"/>
</g>
<!-- Node24 -->
<g id="node20" class="node">
<title>Node24</title>
<g id="a_node20"><a xlink:href="ObserverThread_8h.html" target="_top" xlink:title="ObserverThread.h">
<polygon fill="none" stroke="#ff0000" points="263.5,-73 263.5,-92 367.5,-92 367.5,-73 263.5,-73"/>
<text text-anchor="middle" x="315.5" y="-80" font-family="FreeSans.ttf" font-size="10.00" fill="#000000">ObserverThread.h</text>
</a>
</g>
</g>
<!-- Node18&#45;&gt;Node24 -->
<g id="edge23" class="edge">
<title>Node18&#45;&gt;Node24</title>
<path fill="none" stroke="#191970" d="M603.984,-134.7134C542.6417,-126.5748 453.5561,-113.6196 376.5,-98 368.0399,-96.2851 358.9922,-94.1525 350.5253,-92.0234"/>
<polygon fill="#191970" stroke="#191970" points="603.5926,-138.192 613.964,-136.0275 604.5065,-131.2519 603.5926,-138.192"/>
</g>
<!-- Node29 -->
<g id="node21" class="node">
<title>Node29</title>
<g id="a_node21"><a xlink:href="urdf2dh_8cpp.html" target="_top" xlink:title="urdf2dh.cpp">
<polygon fill="none" stroke="#000000" points="385.5,-73 385.5,-92 459.5,-92 459.5,-73 385.5,-73"/>
<text text-anchor="middle" x="422.5" y="-80" font-family="FreeSans.ttf" font-size="10.00" fill="#000000">urdf2dh.cpp</text>
</a>
</g>
</g>
<!-- Node18&#45;&gt;Node29 -->
<g id="edge24" class="edge">
<title>Node18&#45;&gt;Node29</title>
<path fill="none" stroke="#191970" d="M617.7864,-132.5305C575.6157,-124.1188 518.2804,-111.7945 468.5,-98 462.1654,-96.2446 455.4206,-94.12 449.1036,-92.0141"/>
<polygon fill="#191970" stroke="#191970" points="617.1355,-135.9694 627.6247,-134.4768 618.4941,-129.1025 617.1355,-135.9694"/>
</g>
<!-- Node30 -->
<g id="node22" class="node">
<title>Node30</title>
<g id="a_node22"><a xlink:href="robotstatepublisher_8h.html" target="_top" xlink:title="robotstatepublisher.h">
<polygon fill="none" stroke="#ff0000" points="49.5,-73 49.5,-92 169.5,-92 169.5,-73 49.5,-73"/>
<text text-anchor="middle" x="109.5" y="-80" font-family="FreeSans.ttf" font-size="10.00" fill="#000000">robotstatepublisher.h</text>
</a>
</g>
</g>
<!-- Node18&#45;&gt;Node30 -->
<g id="edge25" class="edge">
<title>Node18&#45;&gt;Node30</title>
<path fill="none" stroke="#191970" d="M603.7407,-135.9197C489.7191,-123.5957 274.5883,-100.3435 169.849,-89.0228"/>
<polygon fill="#191970" stroke="#191970" points="603.4642,-139.4101 613.7824,-137.005 604.2165,-132.4506 603.4642,-139.4101"/>
</g>
<!-- Node32 -->
<g id="node23" class="node">
<title>Node32</title>
<g id="a_node23"><a xlink:href="robotstatepublisher_8cpp.html" target="_top" xlink:title="robotstatepublisher.cpp">
<polygon fill="none" stroke="#000000" points="0,-6 0,-25 131,-25 131,-6 0,-6"/>
<text text-anchor="middle" x="65.5" y="-13" font-family="FreeSans.ttf" font-size="10.00" fill="#000000">robotstatepublisher.cpp</text>
</a>
</g>
</g>
<!-- Node18&#45;&gt;Node32 -->
<g id="edge27" class="edge">
<title>Node18&#45;&gt;Node32</title>
<path fill="none" stroke="#191970" d="M603.7389,-141.3061C439.3389,-135.0193 59.4412,-118.356 40.5,-98 21.2314,-77.2921 44.0406,-42.1933 57.2996,-25.2397"/>
<polygon fill="#191970" stroke="#191970" points="603.6508,-144.8052 613.7765,-141.6873 603.9165,-137.8103 603.6508,-144.8052"/>
</g>
<!-- Node30&#45;&gt;Node32 -->
<g id="edge26" class="edge">
<title>Node30&#45;&gt;Node32</title>
<path fill="none" stroke="#191970" d="M97.6662,-64.4803C89.3381,-51.7989 78.5184,-35.3235 71.7924,-25.0817"/>
<polygon fill="#191970" stroke="#191970" points="94.781,-66.4631 103.1959,-72.9005 100.6321,-62.6206 94.781,-66.4631"/>
</g>
<!-- Node34&#45;&gt;Node8 -->
<g id="edge31" class="edge">
<title>Node34&#45;&gt;Node8</title>
<path fill="none" stroke="#191970" d="M2758.4462,-132.4198C2709.7801,-122.542 2639.484,-108.274 2586.4976,-97.5193"/>
<polygon fill="#191970" stroke="#191970" points="2757.9923,-135.8989 2768.4887,-134.4581 2759.3848,-129.0388 2757.9923,-135.8989"/>
</g>
<!-- Node34&#45;&gt;Node9 -->
<g id="edge33" class="edge">
<title>Node34&#45;&gt;Node9</title>
<path fill="none" stroke="#191970" d="M2837.2745,-127.9873C2856.821,-111.6988 2880.0809,-86.1912 2863.5,-67 2845.9593,-46.6978 2689.6777,-30.1734 2591.6537,-21.6901"/>
<polygon fill="#191970" stroke="#191970" points="2834.9062,-125.3986 2829.2517,-134.3584 2839.2594,-130.8804 2834.9062,-125.3986"/>
</g>
<!-- Node34&#45;&gt;Node12 -->
<g id="edge32" class="edge">
<title>Node34&#45;&gt;Node12</title>
<path fill="none" stroke="#191970" d="M2788.1133,-129.7264C2765.8826,-118.1401 2735.1546,-102.1251 2715.808,-92.0419"/>
<polygon fill="#191970" stroke="#191970" points="2786.577,-132.8725 2797.0625,-134.3906 2789.8123,-126.665 2786.577,-132.8725"/>
</g>
<!-- Node34&#45;&gt;Node15 -->
<g id="edge34" class="edge">
<title>Node34&#45;&gt;Node15</title>
<path fill="none" stroke="#191970" d="M2875.4337,-142.1536C2950.2045,-138.5833 3072.1817,-128.1767 3104.5,-98 3125.0187,-78.841 3125.4961,-42.3467 3124.4158,-25.0496"/>
<polygon fill="#191970" stroke="#191970" points="2875.0433,-138.6675 2865.2107,-142.6133 2875.3579,-145.6604 2875.0433,-138.6675"/>
</g>
<!-- Node35 -->
<g id="node26" class="node">
<title>Node35</title>
<g id="a_node26"><a xlink:href="ContactWrench_8cpp.html" target="_top" xlink:title="ContactWrench.cpp">
<polygon fill="none" stroke="#000000" points="3151.5,-73 3151.5,-92 3261.5,-92 3261.5,-73 3151.5,-73"/>
<text text-anchor="middle" x="3206.5" y="-80" font-family="FreeSans.ttf" font-size="10.00" fill="#000000">ContactWrench.cpp</text>
</a>
</g>
</g>
<!-- Node34&#45;&gt;Node35 -->
<g id="edge35" class="edge">
<title>Node34&#45;&gt;Node35</title>
<path fill="none" stroke="#191970" d="M2875.1023,-136.9186C2939.9084,-128.8854 3046.4212,-114.7085 3137.5,-98 3146.9194,-96.272 3157.0044,-94.1581 3166.475,-92.0538"/>
<polygon fill="#191970" stroke="#191970" points="2874.5652,-133.4582 2865.0681,-138.1546 2875.421,-140.4057 2874.5652,-133.4582"/>
</g>
<!-- Node36&#45;&gt;Node29 -->
<g id="edge39" class="edge">
<title>Node36&#45;&gt;Node29</title>
<path fill="none" stroke="#191970" d="M846.912,-138.7588C739.6154,-130.3548 538.82,-113.2577 468.5,-98 461.582,-96.499 454.2514,-94.3142 447.5236,-92.0559"/>
<polygon fill="#191970" stroke="#191970" points="846.7544,-142.257 856.9962,-139.5446 847.2983,-135.2782 846.7544,-142.257"/>
</g>
<!-- Node37 -->
<g id="node28" class="node">
<title>Node37</title>
<g id="a_node28"><a xlink:href="iKinConversions_8cpp.html" target="_top" xlink:title="iKinConversions.cpp">
<polygon fill="none" stroke="#000000" points="477.5,-73 477.5,-92 593.5,-92 593.5,-73 477.5,-73"/>
<text text-anchor="middle" x="535.5" y="-80" font-family="FreeSans.ttf" font-size="10.00" fill="#000000">iKinConversions.cpp</text>
</a>
</g>
</g>
<!-- Node36&#45;&gt;Node37 -->
<g id="edge37" class="edge">
<title>Node36&#45;&gt;Node37</title>
<path fill="none" stroke="#191970" d="M846.9897,-135.4779C783.1807,-127.2615 686.1404,-113.7739 602.5,-98 593.3488,-96.2741 583.5542,-94.1611 574.3578,-92.0569"/>
<polygon fill="#191970" stroke="#191970" points="846.5747,-138.9532 856.9381,-136.7508 847.4633,-132.0099 846.5747,-138.9532"/>
</g>
<!-- Node38 -->
<g id="node29" class="node">
<title>Node38</title>
<g id="a_node29"><a xlink:href="DenavitHartenberg_8cpp.html" target="_top" xlink:title="DenavitHartenberg.cpp">
<polygon fill="none" stroke="#000000" points="997.5,-73 997.5,-92 1127.5,-92 1127.5,-73 997.5,-73"/>
<text text-anchor="middle" x="1062.5" y="-80" font-family="FreeSans.ttf" font-size="10.00" fill="#000000">DenavitHartenberg.cpp</text>
</a>
</g>
</g>
<!-- Node36&#45;&gt;Node38 -->
<g id="edge38" class="edge">
<title>Node36&#45;&gt;Node38</title>
<path fill="none" stroke="#191970" d="M948.5594,-130.4955C976.1867,-118.858 1015.3761,-102.3501 1039.8477,-92.0419"/>
<polygon fill="#191970" stroke="#191970" points="947.1696,-127.2831 939.3125,-134.3906 949.887,-133.7341 947.1696,-127.2831"/>
</g>
<!-- Node39&#45;&gt;Node4 -->
<g id="edge42" class="edge">
<title>Node39&#45;&gt;Node4</title>
<path fill="none" stroke="#191970" d="M1638.0887,-129.0357C1652.3632,-120.2173 1670.6082,-108.7203 1686.5,-98 1706.0313,-84.8246 1707.4932,-75.4119 1729.5,-67 1808.6557,-36.7434 2060.175,-22.3491 2166.8843,-17.4842"/>
<polygon fill="#191970" stroke="#191970" points="1636.0332,-126.1908 1629.3463,-134.4088 1639.6985,-132.1545 1636.0332,-126.1908"/>
</g>
<!-- Node39&#45;&gt;Node9 -->
<g id="edge43" class="edge">
<title>Node39&#45;&gt;Node9</title>
<path fill="none" stroke="#191970" d="M1649.2786,-130.7485C1670.7023,-122.3298 1698.2079,-110.6589 1721.5,-98 1743.1612,-86.2274 1744.1847,-75.0124 1767.5,-67 1775.3117,-64.3155 2243.1838,-33.2439 2433.3899,-20.702"/>
<polygon fill="#191970" stroke="#191970" points="1647.962,-127.505 1639.9003,-134.3795 1650.4895,-134.0328 1647.962,-127.505"/>
</g>
<!-- Node39&#45;&gt;Node10 -->
<g id="edge41" class="edge">
<title>Node39&#45;&gt;Node10</title>
<path fill="none" stroke="#191970" d="M1660.6141,-136.651C1718.1758,-127.6495 1818.5206,-111.8842 1904.5,-98 1916.2564,-96.1015 1928.8353,-94.0449 1940.8442,-92.0692"/>
<polygon fill="#191970" stroke="#191970" points="1660.0604,-133.1949 1650.7209,-138.1973 1661.1415,-140.1109 1660.0604,-133.1949"/>
</g>
<!-- Node39&#45;&gt;Node19 -->
<g id="edge44" class="edge">
<title>Node39&#45;&gt;Node19</title>
<path fill="none" stroke="#191970" d="M1566.7296,-131.9144C1521.5617,-120.2428 1454.063,-102.8009 1412.513,-92.0643"/>
<polygon fill="#191970" stroke="#191970" points="1566.016,-135.3449 1576.5736,-134.4581 1567.7673,-128.5675 1566.016,-135.3449"/>
</g>
<!-- Node40 -->
<g id="node31" class="node">
<title>Node40</title>
<g id="a_node31"><a xlink:href="DynamicsLinearization_8h.html" target="_top" xlink:title="DynamicsLinearization.h">
<polygon fill="none" stroke="#ff0000" points="1463,-6 1463,-25 1600,-25 1600,-6 1463,-6"/>
<text text-anchor="middle" x="1531.5" y="-13" font-family="FreeSans.ttf" font-size="10.00" fill="#000000">DynamicsLinearization.h</text>
</a>
</g>
</g>
<!-- Node39&#45;&gt;Node40 -->
<g id="edge45" class="edge">
<title>Node39&#45;&gt;Node40</title>
<path fill="none" stroke="#191970" d="M1566.5977,-131.9282C1536.8134,-123.2064 1502.2739,-110.7597 1493.5,-98 1476.8813,-73.8316 1504.4716,-41.2317 1520.8026,-25.2107"/>
<polygon fill="#191970" stroke="#191970" points="1565.896,-135.3674 1576.4721,-134.7382 1567.812,-128.6347 1565.896,-135.3674"/>
</g>
<!-- Node42 -->
<g id="node32" class="node">
<title>Node42</title>
<g id="a_node32"><a xlink:href="DynamicsLinearizationHelpers_8h.html" target="_top" xlink:title="DynamicsLinearizationHelpers.h">
<polygon fill="none" stroke="#ff0000" points="1502,-73 1502,-92 1677,-92 1677,-73 1502,-73"/>
<text text-anchor="middle" x="1589.5" y="-80" font-family="FreeSans.ttf" font-size="10.00" fill="#000000">DynamicsLinearizationHelpers.h</text>
</a>
</g>
</g>
<!-- Node39&#45;&gt;Node42 -->
<g id="edge46" class="edge">
<title>Node39&#45;&gt;Node42</title>
<path fill="none" stroke="#191970" d="M1606.0537,-124.9189C1601.8278,-114.0901 1596.7173,-100.9944 1593.3029,-92.2449"/>
<polygon fill="#191970" stroke="#191970" points="1602.854,-126.3473 1609.75,-134.3906 1609.375,-123.8024 1602.854,-126.3473"/>
</g>
<!-- Node44 -->
<g id="node33" class="node">
<title>Node44</title>
<g id="a_node33"><a xlink:href="Dynamics_8cpp.html" target="_top" xlink:title="Dynamics.cpp">
<polygon fill="none" stroke="#000000" points="1809.5,-73 1809.5,-92 1895.5,-92 1895.5,-73 1809.5,-73"/>
<text text-anchor="middle" x="1852.5" y="-80" font-family="FreeSans.ttf" font-size="10.00" fill="#000000">Dynamics.cpp</text>
</a>
</g>
</g>
<!-- Node39&#45;&gt;Node44 -->
<g id="edge48" class="edge">
<title>Node39&#45;&gt;Node44</title>
<path fill="none" stroke="#191970" d="M1660.467,-131.9144C1705.8245,-120.2428 1773.6069,-102.8009 1815.3315,-92.0643"/>
<polygon fill="#191970" stroke="#191970" points="1659.3938,-128.5764 1650.5815,-134.4581 1661.1383,-135.3556 1659.3938,-128.5764"/>
</g>
<!-- Node42&#45;&gt;Node40 -->
<g id="edge47" class="edge">
<title>Node42&#45;&gt;Node40</title>
<path fill="none" stroke="#191970" d="M1574.5366,-65.2147C1563.4788,-52.441 1548.8328,-35.5224 1539.7946,-25.0817"/>
<polygon fill="#191970" stroke="#191970" points="1571.9987,-67.6307 1581.19,-72.9005 1577.2912,-63.0491 1571.9987,-67.6307"/>
</g>
<!-- Node46&#45;&gt;Node38 -->
<g id="edge50" class="edge">
<title>Node46&#45;&gt;Node38</title>
<path fill="none" stroke="#191970" d="M1450.6203,-190.7522C1386.2138,-178.0223 1277.2735,-156.3919 1268.5,-154 1201.4786,-135.7283 1124.6963,-106.9143 1086.5818,-92.0593"/>
<polygon fill="#191970" stroke="#191970" points="1450.0638,-194.2098 1460.5526,-192.7145 1451.4206,-187.3426 1450.0638,-194.2098"/>
</g>
<!-- Node52&#45;&gt;Node4 -->
<g id="edge52" class="edge">
<title>Node52&#45;&gt;Node4</title>
<path fill="none" stroke="#191970" d="M1021.3663,-129.5718C1008.7195,-122.0964 995.5546,-111.635 988.5,-98 982.1687,-85.7631 978.9439,-76.9251 988.5,-67 1025.1324,-28.9532 1885.7424,-33.4755 1938.5,-31 2018.6074,-27.2412 2111.6858,-21.8152 2166.9767,-18.4806"/>
<polygon fill="#191970" stroke="#191970" points="1019.9334,-132.7769 1030.3888,-134.4901 1023.2837,-126.6308 1019.9334,-132.7769"/>
</g>
<!-- Node52&#45;&gt;Node17 -->
<g id="edge53" class="edge">
<title>Node52&#45;&gt;Node17</title>
<path fill="none" stroke="#191970" d="M1005.4862,-130.7859C987.5884,-123.6915 968.4869,-113.1854 955.5,-98 937.1763,-76.5743 932.8273,-41.8176 931.8059,-25.0922"/>
<polygon fill="#191970" stroke="#191970" points="1004.6656,-134.2134 1015.2591,-134.3842 1007.0843,-127.6445 1004.6656,-134.2134"/>
</g>
<!-- Node52&#45;&gt;Node19 -->
<g id="edge54" class="edge">
<title>Node52&#45;&gt;Node19</title>
<path fill="none" stroke="#191970" d="M1114.0896,-132.6461C1163.2632,-123.4036 1234.3768,-109.9742 1296.5,-98 1306.3814,-96.0954 1316.9535,-94.036 1327.0462,-92.0596"/>
<polygon fill="#191970" stroke="#191970" points="1113.4307,-129.2086 1104.2489,-134.4949 1114.7232,-136.0883 1113.4307,-129.2086"/>
</g>
<!-- Node52&#45;&gt;Node38 -->
<g id="edge55" class="edge">
<title>Node52&#45;&gt;Node38</title>
<path fill="none" stroke="#191970" d="M1056.3908,-124.2462C1057.9558,-113.5519 1059.8199,-100.814 1061.0739,-92.2449"/>
<polygon fill="#191970" stroke="#191970" points="1052.8912,-123.9892 1054.9063,-134.3906 1059.8174,-125.0028 1052.8912,-123.9892"/>
</g>
<!-- Node55&#45;&gt;Node3 -->
<g id="edge57" class="edge">
<title>Node55&#45;&gt;Node3</title>
<path fill="none" stroke="#191970" d="M1864.77,-136.3007C1924.4632,-128.6579 2015.0002,-115.551 2092.5,-98 2099.8501,-96.3355 2107.6845,-94.1976 2114.9828,-92.0448"/>
<polygon fill="#191970" stroke="#191970" points="1864.2094,-132.8437 1854.7283,-137.5721 1865.0887,-139.7882 1864.2094,-132.8437"/>
</g>
<!-- Node55&#45;&gt;Node8 -->
<g id="edge58" class="edge">
<title>Node55&#45;&gt;Node8</title>
<path fill="none" stroke="#191970" d="M1864.8609,-138.3623C1996.1846,-127.0349 2291.6089,-101.553 2433.4996,-89.3142"/>
<polygon fill="#191970" stroke="#191970" points="1864.2212,-134.9044 1854.559,-139.2509 1864.8228,-141.8785 1864.2212,-134.9044"/>
</g>
<!-- Node55&#45;&gt;Node10 -->
<g id="edge59" class="edge">
<title>Node55&#45;&gt;Node10</title>
<path fill="none" stroke="#191970" d="M1840.2706,-131.4001C1878.041,-119.7273 1933.3955,-102.6202 1967.6246,-92.0419"/>
<polygon fill="#191970" stroke="#191970" points="1839.1144,-128.0939 1830.5938,-134.3906 1841.1814,-134.7818 1839.1144,-128.0939"/>
</g>
<!-- Node55&#45;&gt;Node19 -->
<g id="edge60" class="edge">
<title>Node55&#45;&gt;Node19</title>
<path fill="none" stroke="#191970" d="M1734.1572,-134.5222C1654.5236,-122.9716 1520.7549,-103.5688 1441.0345,-92.0056"/>
<polygon fill="#191970" stroke="#191970" points="1733.6705,-137.9882 1744.0694,-135.9599 1734.6754,-131.0607 1733.6705,-137.9882"/>
</g>
<!-- Node55&#45;&gt;Node38 -->
<g id="edge61" class="edge">
<title>Node55&#45;&gt;Node38</title>
<path fill="none" stroke="#191970" d="M1734.1006,-139.2935C1710.5812,-137.6102 1683.8505,-135.7077 1659.5,-134 1427.0764,-117.6999 1367.2922,-129.9589 1136.5,-98 1125.5784,-96.4876 1113.8568,-94.2989 1103.0361,-92.0406"/>
<polygon fill="#191970" stroke="#191970" points="1734.0884,-142.8015 1744.3129,-140.0251 1734.5886,-135.8194 1734.0884,-142.8015"/>
</g>
<!-- Node55&#45;&gt;Node44 -->
<g id="edge62" class="edge">
<title>Node55&#45;&gt;Node44</title>
<path fill="none" stroke="#191970" d="M1814.5172,-126.5744C1824.1026,-115.4517 1836.1731,-101.4454 1844.102,-92.2449"/>
<polygon fill="#191970" stroke="#191970" points="1811.6582,-124.5306 1807.7813,-134.3906 1816.9608,-129.1003 1811.6582,-124.5306"/>
</g>
<!-- Node57&#45;&gt;Node46 -->
<g id="edge64" class="edge">
<title>Node57&#45;&gt;Node46</title>
<path fill="none" stroke="#191970" d="M1710.415,-248.0776C1663.7939,-237.5502 1581.7994,-219.0354 1534.3196,-208.3141"/>
<polygon fill="#191970" stroke="#191970" points="1709.8303,-251.5336 1720.3557,-250.3222 1711.3722,-244.7055 1709.8303,-251.5336"/>
</g>
<!-- Node57&#45;&gt;Node58 -->
<g id="edge65" class="edge">
<title>Node57&#45;&gt;Node58</title>
<path fill="none" stroke="#191970" d="M1780.9114,-250.5068C1852.6297,-239.3815 2013.7332,-214.3904 2078.6277,-204.3237"/>
<polygon fill="#191970" stroke="#191970" points="1779.9435,-247.115 1770.5982,-252.1066 1781.0166,-254.0323 1779.9435,-247.115"/>
</g>
<!-- Node58&#45;&gt;Node4 -->
<g id="edge69" class="edge">
<title>Node58&#45;&gt;Node4</title>
<path fill="none" stroke="#191970" d="M2144.1299,-192.8797C2181.5782,-184.9385 2235.1977,-170.954 2247.5,-154 2277.0673,-113.2529 2239.1914,-49.4976 2222.5844,-25.2783"/>
<polygon fill="#191970" stroke="#191970" points="2143.1326,-189.5116 2134.0441,-194.9568 2144.5446,-196.3677 2143.1326,-189.5116"/>
</g>
<!-- Node58&#45;&gt;Node8 -->
<g id="edge66" class="edge">
<title>Node58&#45;&gt;Node8</title>
<path fill="none" stroke="#191970" d="M2144.0842,-196.1287C2234.1644,-186.7303 2455.9508,-162.8325 2469.5,-154 2489.7646,-140.7898 2501.889,-114.3878 2507.8699,-97.6268"/>
<polygon fill="#191970" stroke="#191970" points="2143.6091,-192.6592 2134.0249,-197.175 2144.3334,-199.6216 2143.6091,-192.6592"/>
</g>
<!-- Node58&#45;&gt;Node9 -->
<g id="edge71" class="edge">
<title>Node58&#45;&gt;Node9</title>
<path fill="none" stroke="#191970" d="M2144.2379,-199.7648C2335.992,-198.1732 3196.1772,-186.1328 3270.5,-98 3279.3821,-87.4674 3279.9064,-77.0671 3270.5,-67 3259.0114,-54.7044 2783.9165,-29.2738 2591.8449,-19.4724"/>
<polygon fill="#191970" stroke="#191970" points="2144.0611,-196.2659 2134.0888,-199.8443 2144.116,-203.2657 2144.0611,-196.2659"/>
</g>
<!-- Node58&#45;&gt;Node10 -->
<g id="edge67" class="edge">
<title>Node58&#45;&gt;Node10</title>
<path fill="none" stroke="#191970" d="M2069.4753,-189.5761C2050.69,-182.4668 2029.041,-171.1588 2015.5,-154 2001.1143,-135.7708 1998.5909,-107.3229 1998.3341,-92.3996"/>
<polygon fill="#191970" stroke="#191970" points="2068.3849,-192.9026 2078.9797,-192.9198 2070.708,-186.2994 2068.3849,-192.9026"/>
</g>
<!-- Node58&#45;&gt;Node12 -->
<g id="edge70" class="edge">
<title>Node58&#45;&gt;Node12</title>
<path fill="none" stroke="#191970" d="M2144.1559,-196.5628C2227.7629,-188.7608 2426.683,-169.2094 2492.5,-154 2560.8087,-138.2148 2638.0744,-107.6231 2675.2218,-92.0735"/>
<polygon fill="#191970" stroke="#191970" points="2143.7142,-193.0887 2134.0805,-197.4982 2144.3613,-200.0587 2143.7142,-193.0887"/>
</g>
<!-- Node58&#45;&gt;Node15 -->
<g id="edge73" class="edge">
<title>Node58&#45;&gt;Node15</title>
<path fill="none" stroke="#191970" d="M2144.3057,-199.0599C2319.1725,-194.6124 3045.2736,-175.0217 3144.5,-154 3211.2731,-139.8537 3249.0294,-154.3807 3287.5,-98 3315.1644,-57.4564 3250.1972,-35.8369 3194.0346,-25.0453"/>
<polygon fill="#191970" stroke="#191970" points="2143.966,-195.5673 2134.0577,-199.3192 2144.1431,-202.565 2143.966,-195.5673"/>
</g>
<!-- Node58&#45;&gt;Node16 -->
<g id="edge68" class="edge">
<title>Node58&#45;&gt;Node16</title>
<path fill="none" stroke="#191970" d="M2068.6372,-198.9788C1975.4241,-196.0388 1727.5854,-185.6339 1523.5,-154 1422.9126,-138.4086 1306.4281,-107.7291 1250.2464,-92.117"/>
<polygon fill="#191970" stroke="#191970" points="2068.6119,-202.4796 2078.714,-199.2862 2068.8255,-195.4828 2068.6119,-202.4796"/>
</g>
<!-- Node58&#45;&gt;Node19 -->
<g id="edge72" class="edge">
<title>Node58&#45;&gt;Node19</title>
<path fill="none" stroke="#191970" d="M2068.6965,-198.6255C1962.3357,-194.4657 1662.1121,-180.6326 1567.5,-154 1548.3674,-148.6143 1545.8444,-141.6515 1527.5,-134 1486.9986,-117.1068 1438.7989,-101.5067 1407.7037,-92.0029"/>
<polygon fill="#191970" stroke="#191970" points="2068.8255,-202.133 2078.9527,-199.02 2069.0946,-195.1382 2068.8255,-202.133"/>
</g>
<!-- Node58&#45;&gt;Node20 -->
<g id="edge74" class="edge">
<title>Node58&#45;&gt;Node20</title>
<path fill="none" stroke="#191970" d="M2068.6766,-199.2619C1943.2131,-196.5353 1541.6483,-185.5025 1416.5,-154 1395.6689,-148.7564 1393.2587,-139.5234 1372.5,-134 1206.8485,-89.9239 1159.1163,-114.5283 988.5,-98 960.7745,-95.3141 930.2679,-92.2804 903.7063,-89.6135"/>
<polygon fill="#191970" stroke="#191970" points="2068.8575,-202.7665 2078.9295,-199.4795 2069.006,-195.768 2068.8575,-202.7665"/>
</g>
<!-- Node58&#45;&gt;Node23 -->
<g id="edge84" class="edge">
<title>Node58&#45;&gt;Node23</title>
<path fill="none" stroke="#191970" d="M2068.7055,-198.003C1960.2864,-192.194 1638.9301,-174.4159 1372.5,-154 1303.7535,-148.7321 822.7167,-108.0156 754.5,-98 743.575,-96.396 731.8512,-94.2292 720.9612,-92.0248"/>
<polygon fill="#191970" stroke="#191970" points="2068.6458,-201.5047 2078.8182,-198.5431 2069.0192,-194.5146 2068.6458,-201.5047"/>
</g>
<!-- Node58&#45;&gt;Node35 -->
<g id="edge76" class="edge">
<title>Node58&#45;&gt;Node35</title>
<path fill="none" stroke="#191970" d="M2144.3215,-198.4994C2278.4258,-193.0591 2730.8323,-173.6562 2874.5,-154 2983.7383,-139.0543 3110.5363,-107.792 3170.9526,-92.0255"/>
<polygon fill="#191970" stroke="#191970" points="2143.9898,-195.0098 2134.1392,-198.9104 2144.2722,-202.0041 2143.9898,-195.0098"/>
</g>
<!-- Node58&#45;&gt;Node36 -->
<g id="edge75" class="edge">
<title>Node58&#45;&gt;Node36</title>
<path fill="none" stroke="#191970" d="M2068.3936,-198.9643C1897.7434,-194.2452 1202.6724,-174.1391 985.5,-154 982.4868,-153.7206 979.4042,-153.4004 976.2943,-153.05"/>
<polygon fill="#191970" stroke="#191970" points="2068.547,-202.4698 2078.6396,-199.2466 2068.7398,-195.4725 2068.547,-202.4698"/>
</g>
<!-- Node58&#45;&gt;Node44 -->
<g id="edge77" class="edge">
<title>Node58&#45;&gt;Node44</title>
<path fill="none" stroke="#191970" d="M2074.1898,-186.3815C2053.1143,-177.3994 2025.0599,-165.256 2000.5,-154 1953.8059,-132.5998 1899.6064,-105.9451 1871.5409,-92.005"/>
<polygon fill="#191970" stroke="#191970" points="2073.064,-189.7059 2083.6364,-190.3951 2075.8013,-183.2633 2073.064,-189.7059"/>
</g>
<!-- Node58&#45;&gt;Node86 -->
<g id="edge78" class="edge">
<title>Node58&#45;&gt;Node86</title>
<path fill="none" stroke="#191970" d="M2144.3468,-196.5685C2248.7709,-187.0644 2536.0359,-160.6615 2578.5,-154 2583.0214,-153.2907 2587.7658,-152.4132 2592.4194,-151.4751"/>
<polygon fill="#191970" stroke="#191970" points="2143.8942,-193.0952 2134.2523,-197.4865 2144.5282,-200.0664 2143.8942,-193.0952"/>
</g>
<!-- Node86&#45;&gt;Node3 -->
<g id="edge79" class="edge">
<title>Node86&#45;&gt;Node3</title>
<path fill="none" stroke="#191970" d="M2582.3408,-138.5984C2491.7266,-126.9884 2279.2215,-99.7612 2187.6905,-88.0338"/>
<polygon fill="#191970" stroke="#191970" points="2581.8968,-142.07 2592.2605,-139.8693 2582.7864,-135.1267 2581.8968,-142.07"/>
</g>
<!-- Node86&#45;&gt;Node4 -->
<g id="edge81" class="edge">
<title>Node86&#45;&gt;Node4</title>
<path fill="none" stroke="#191970" d="M2666.4717,-133.3745C2716.4463,-120.6272 2793.4823,-100.6322 2795.5,-98 2803.882,-87.0652 2804.8016,-77.1641 2795.5,-67 2791.0159,-62.1001 2402.6782,-30.5111 2264.021,-19.377"/>
<polygon fill="#191970" stroke="#191970" points="2665.3887,-130.0385 2656.5616,-135.8979 2667.116,-136.8221 2665.3887,-130.0385"/>
</g>
<!-- Node86&#45;&gt;Node8 -->
<g id="edge80" class="edge">
<title>Node86&#45;&gt;Node8</title>
<path fill="none" stroke="#191970" d="M2597.8954,-129.3912C2580.3972,-119.7829 2557.555,-107.24 2539.8983,-97.5446"/>
<polygon fill="#191970" stroke="#191970" points="2596.5499,-132.6453 2607,-134.3906 2599.9192,-126.5095 2596.5499,-132.6453"/>
</g>
<!-- Node86&#45;&gt;Node9 -->
<g id="edge83" class="edge">
<title>Node86&#45;&gt;Node9</title>
<path fill="none" stroke="#191970" d="M2666.1983,-134.0697C2666.299,-134.0464 2666.3996,-134.0232 2666.5,-134 2742.0184,-116.5675 2877.6881,-126.0598 2827.5,-67 2812.3393,-49.1594 2679.9165,-32.4299 2591.6613,-23.1196"/>
<polygon fill="#191970" stroke="#191970" points="2665.5361,-130.6301 2656.5929,-136.3108 2667.1267,-137.447 2665.5361,-130.6301"/>
</g>
<!-- Node86&#45;&gt;Node12 -->
<g id="edge82" class="edge">
<title>Node86&#45;&gt;Node12</title>
<path fill="none" stroke="#191970" d="M2643.6471,-127.8692C2657.0739,-116.5576 2674.5837,-101.8062 2685.9329,-92.2449"/>
<polygon fill="#191970" stroke="#191970" points="2641.299,-125.2709 2635.9063,-134.3906 2645.8091,-130.6243 2641.299,-125.2709"/>
</g>
<!-- Node139&#45;&gt;Node19 -->
<g id="edge87" class="edge">
<title>Node139&#45;&gt;Node19</title>
<path fill="none" stroke="#191970" d="M1558.7204,-185.7666C1540.5748,-176.932 1517.0101,-165.1695 1496.5,-154 1457.9281,-132.9943 1413.7774,-106.1793 1390.9624,-92.1093"/>
<polygon fill="#191970" stroke="#191970" points="1557.6641,-189.1437 1568.1899,-190.3511 1560.7144,-182.8433 1557.6641,-189.1437"/>
</g>
<!-- Node140&#45;&gt;Node58 -->
<g id="edge89" class="edge">
<title>Node140&#45;&gt;Node58</title>
<path fill="none" stroke="#191970" d="M2135.1584,-238.2112C2128.0604,-228.7472 2119.6097,-217.4797 2113.732,-209.6427"/>
<polygon fill="#191970" stroke="#191970" points="2132.3841,-240.3455 2141.1842,-246.2455 2137.9841,-236.1455 2132.3841,-240.3455"/>
</g>
<!-- Node143&#45;&gt;Node3 -->
<g id="edge91" class="edge">
<title>Node143&#45;&gt;Node3</title>
<path fill="none" stroke="#191970" d="M1762.0214,-188.0409C1832.8362,-169.3491 1973.6075,-131.8403 2092.5,-98 2099.1141,-96.1174 2106.1845,-94.0481 2112.913,-92.0517"/>
<polygon fill="#191970" stroke="#191970" points="1760.8687,-184.7251 1752.0919,-190.6595 1762.6538,-191.4937 1760.8687,-184.7251"/>
</g>
<!-- Node143&#45;&gt;Node7 -->
<g id="edge92" class="edge">
<title>Node143&#45;&gt;Node7</title>
<path fill="none" stroke="#191970" d="M1762.1401,-196.1334C1872.1533,-186.813 2153.2705,-162.9968 2294.2495,-151.053"/>
<polygon fill="#191970" stroke="#191970" points="1761.707,-192.6574 1752.0382,-196.9892 1762.298,-199.6324 1761.707,-192.6574"/>
</g>
<!-- Node143&#45;&gt;Node9 -->
<g id="edge95" class="edge">
<title>Node143&#45;&gt;Node9</title>
<path fill="none" stroke="#191970" d="M1713.3504,-180.2027C1712.112,-166.516 1712.382,-148.2744 1719.5,-134 1722.1061,-128.7738 1795.0802,-69.1751 1800.5,-67 1815.0389,-61.1652 2251.0084,-32.4055 2433.4405,-20.5859"/>
<polygon fill="#191970" stroke="#191970" points="1709.9167,-180.9516 1714.6284,-190.4411 1716.8628,-180.0845 1709.9167,-180.9516"/>
</g>
<!-- Node143&#45;&gt;Node12 -->
<g id="edge94" class="edge">
<title>Node143&#45;&gt;Node12</title>
<path fill="none" stroke="#191970" d="M1762.4382,-198.4766C1915.4893,-193.2238 2402.213,-175.0311 2469.5,-154 2485.8691,-148.8837 2486.7141,-140.7028 2502.5,-134 2549.0722,-114.2252 2605.1972,-100.366 2645.2525,-92.0447"/>
<polygon fill="#191970" stroke="#191970" points="1762.3007,-194.9791 1752.4258,-198.818 1762.5393,-201.975 1762.3007,-194.9791"/>
</g>
<!-- Node143&#45;&gt;Node16 -->
<g id="edge93" class="edge">
<title>Node143&#45;&gt;Node16</title>
<path fill="none" stroke="#191970" d="M1670.5685,-193.3848C1618.7274,-185.5547 1532.0321,-171.3615 1458.5,-154 1380.2611,-135.5272 1289.846,-106.8004 1244.9093,-92.0109"/>
<polygon fill="#191970" stroke="#191970" points="1670.3632,-196.893 1680.7711,-194.9115 1671.3992,-189.9701 1670.3632,-196.893"/>
</g>
<!-- Node143&#45;&gt;Node18 -->
<g id="edge96" class="edge">
<title>Node143&#45;&gt;Node18</title>
<path fill="none" stroke="#191970" d="M1670.3593,-193.8254C1658.3751,-192.3907 1645.4702,-190.9942 1633.5,-190 1285.4429,-161.0917 1197.2782,-172.2549 848.5,-154 813.6611,-152.1765 774.8205,-149.9095 743.0693,-147.9951"/>
<polygon fill="#191970" stroke="#191970" points="1670.2546,-197.3388 1680.6073,-195.0869 1671.1099,-190.3913 1670.2546,-197.3388"/>
</g>
<!-- Node143&#45;&gt;Node19 -->
<g id="edge97" class="edge">
<title>Node143&#45;&gt;Node19</title>
<path fill="none" stroke="#191970" d="M1670.9001,-191.2072C1633.6069,-183.3701 1579.8224,-170.5801 1534.5,-154 1515.4594,-147.0345 1511.9062,-142.5013 1493.5,-134 1460.6264,-118.8166 1422.1052,-102.2264 1398.2484,-92.0902"/>
<polygon fill="#191970" stroke="#191970" points="1670.4593,-194.69 1680.9606,-193.2854 1671.8754,-187.8347 1670.4593,-194.69"/>
</g>
<!-- Node143&#45;&gt;Node34 -->
<g id="edge98" class="edge">
<title>Node143&#45;&gt;Node34</title>
<path fill="none" stroke="#191970" d="M1762.1675,-198.7527C1936.5039,-193.8714 2560.1973,-175.2816 2757.5,-154 2760.243,-153.7041 2763.0525,-153.3594 2765.884,-152.9795"/>
<polygon fill="#191970" stroke="#191970" points="1761.9518,-195.2573 1752.0532,-199.0346 1762.1469,-202.2545 1761.9518,-195.2573"/>
</g>
<!-- Node143&#45;&gt;Node38 -->
<g id="edge101" class="edge">
<title>Node143&#45;&gt;Node38</title>
<path fill="none" stroke="#191970" d="M1670.7706,-194.2302C1592.3229,-184.2499 1435.258,-163.8858 1380.5,-154 1278.3154,-135.552 1159.2343,-106.8144 1099.9817,-92.0169"/>
<polygon fill="#191970" stroke="#191970" points="1670.4839,-197.7218 1680.8452,-195.5098 1671.366,-190.7776 1670.4839,-197.7218"/>
</g>
<!-- Node143&#45;&gt;Node39 -->
<g id="edge99" class="edge">
<title>Node143&#45;&gt;Node39</title>
<path fill="none" stroke="#191970" d="M1689.7568,-185.46C1671.325,-175.4388 1647.3416,-162.3993 1631.2356,-153.6427"/>
<polygon fill="#191970" stroke="#191970" points="1688.1015,-188.5438 1698.5588,-190.2455 1691.4451,-182.394 1688.1015,-188.5438"/>
</g>
<!-- Node143&#45;&gt;Node44 -->
<g id="edge102" class="edge">
<title>Node143&#45;&gt;Node44</title>
<path fill="none" stroke="#191970" d="M1717.818,-179.9865C1719.7289,-165.6698 1724.3557,-146.7519 1735.5,-134 1747.585,-120.1717 1792.9437,-102.6989 1823.5034,-92.0733"/>
<polygon fill="#191970" stroke="#191970" points="1714.3016,-179.9789 1716.7951,-190.2761 1721.2672,-180.6714 1714.3016,-179.9789"/>
</g>
<!-- Node143&#45;&gt;Node55 -->
<g id="edge100" class="edge">
<title>Node143&#45;&gt;Node55</title>
<path fill="none" stroke="#191970" d="M1739.488,-184.49C1754.1322,-174.6096 1772.6444,-162.1194 1785.2082,-153.6427"/>
<polygon fill="#191970" stroke="#191970" points="1737.2896,-181.7511 1730.9575,-190.2455 1741.2047,-187.5539 1737.2896,-181.7511"/>
</g>
<!-- Node157&#45;&gt;Node3 -->
<g id="edge104" class="edge">
<title>Node157&#45;&gt;Node3</title>
<path fill="none" stroke="#191970" d="M2166.0503,-125.253C2160.5598,-114.3606 2153.8679,-101.0846 2149.412,-92.2449"/>
<polygon fill="#191970" stroke="#191970" points="2163.0296,-127.0363 2170.6563,-134.3906 2169.2804,-123.8855 2163.0296,-127.0363"/>
</g>
<!-- Node157&#45;&gt;Node8 -->
<g id="edge105" class="edge">
<title>Node157&#45;&gt;Node8</title>
<path fill="none" stroke="#191970" d="M2237.7751,-132.6353C2292.9257,-122.5707 2373.7135,-107.8275 2433.4165,-96.9321"/>
<polygon fill="#191970" stroke="#191970" points="2236.9956,-129.2196 2227.7865,-134.4581 2238.2524,-136.1059 2236.9956,-129.2196"/>
</g>
<!-- Node157&#45;&gt;Node12 -->
<g id="edge106" class="edge">
<title>Node157&#45;&gt;Node12</title>
<path fill="none" stroke="#191970" d="M2248.3044,-137.2515C2333.0511,-129.1339 2477.1538,-114.5194 2600.5,-98 2613.5998,-96.2456 2627.658,-94.1329 2640.8937,-92.0396"/>
<polygon fill="#191970" stroke="#191970" points="2247.8915,-133.7749 2238.2691,-138.2089 2248.5564,-140.7432 2247.8915,-133.7749"/>
</g>
<!-- Node157&#45;&gt;Node19 -->
<g id="edge107" class="edge">
<title>Node157&#45;&gt;Node19</title>
<path fill="none" stroke="#191970" d="M2102.5647,-133.9867C1831.5094,-107.6927 1760.5636,-123.3878 1493.5,-98 1476.6331,-96.3966 1458.4648,-94.2301 1441.5593,-92.0257"/>
<polygon fill="#191970" stroke="#191970" points="2102.4124,-137.4884 2112.7062,-134.9809 2103.0954,-130.5218 2102.4124,-137.4884"/>
</g>
<!-- Node135&#45;&gt;Node38 -->
<g id="edge111" class="edge">
<title>Node135&#45;&gt;Node38</title>
<path fill="none" stroke="#191970" d="M1133.6768,-180.0761C1132.993,-166.3312 1130.4327,-148.0721 1122.5,-134 1112.2534,-115.8232 1093.0223,-101.0756 1079.0881,-92.093"/>
<polygon fill="#191970" stroke="#191970" points="1130.1835,-180.4424 1133.8866,-190.369 1137.182,-180.2997 1130.1835,-180.4424"/>
</g>
<!-- Node158&#45;&gt;Node58 -->
<g id="edge113" class="edge">
<title>Node158&#45;&gt;Node58</title>
<path fill="none" stroke="#191970" d="M2077.8416,-238.2112C2084.9396,-228.7472 2093.3903,-217.4797 2099.268,-209.6427"/>
<polygon fill="#191970" stroke="#191970" points="2075.0159,-236.1455 2071.8158,-246.2455 2080.6159,-240.3455 2075.0159,-236.1455"/>
</g>
<!-- Node163&#45;&gt;Node8 -->
<g id="edge115" class="edge">
<title>Node163&#45;&gt;Node8</title>
<path fill="none" stroke="#191970" d="M2670.563,-131.3486C2638.8202,-121.5386 2594.7317,-107.9133 2561.1809,-97.5446"/>
<polygon fill="#191970" stroke="#191970" points="2669.8186,-134.7818 2680.4063,-134.3906 2671.8856,-128.0939 2669.8186,-134.7818"/>
</g>
<!-- Node163&#45;&gt;Node9 -->
<g id="edge117" class="edge">
<title>Node163&#45;&gt;Node9</title>
<path fill="none" stroke="#191970" d="M2755.9158,-131.6493C2793.0896,-120.8665 2840.9439,-105.763 2846.5,-98 2854.5188,-86.7962 2855.4694,-77.4584 2846.5,-67 2830.0999,-47.8774 2685.3704,-31.233 2591.8853,-22.3488"/>
<polygon fill="#191970" stroke="#191970" points="2754.8884,-128.3028 2746.2437,-134.4281 2756.8214,-135.0306 2754.8884,-128.3028"/>
</g>
<!-- Node163&#45;&gt;Node12 -->
<g id="edge116" class="edge">
<title>Node163&#45;&gt;Node12</title>
<path fill="none" stroke="#191970" d="M2707.0799,-124.5832C2704.6299,-113.8205 2701.6896,-100.9042 2699.7183,-92.2449"/>
<polygon fill="#191970" stroke="#191970" points="2703.6801,-125.417 2709.3125,-134.3906 2710.5055,-123.8632 2703.6801,-125.417"/>
</g>
<!-- Node164&#45;&gt;Node3 -->
<g id="edge119" class="edge">
<title>Node164&#45;&gt;Node3</title>
<path fill="none" stroke="#191970" d="M2080.9662,-128.4685C2096.8119,-117.0037 2117.8736,-101.765 2131.312,-92.0419"/>
<polygon fill="#191970" stroke="#191970" points="2078.8314,-125.6931 2072.7813,-134.3906 2082.9347,-131.3643 2078.8314,-125.6931"/>
</g>
<!-- Node164&#45;&gt;Node4 -->
<g id="edge123" class="edge">
<title>Node164&#45;&gt;Node4</title>
<path fill="none" stroke="#191970" d="M2104.5265,-133.9125C2139.4349,-125.2048 2183.9209,-111.8707 2196.5,-98 2215.1613,-77.4227 2216.6241,-42.2617 2216.1116,-25.2666"/>
<polygon fill="#191970" stroke="#191970" points="2103.3966,-130.5853 2094.5086,-136.352 2105.0528,-137.3865 2103.3966,-130.5853"/>
</g>
<!-- Node164&#45;&gt;Node8 -->
<g id="edge120" class="edge">
<title>Node164&#45;&gt;Node8</title>
<path fill="none" stroke="#191970" d="M2105.0755,-134.0743C2245.2359,-110.9931 2283.2275,-117.1302 2419.5,-98 2424.0387,-97.3629 2428.6971,-96.6797 2433.3947,-95.9681"/>
<polygon fill="#191970" stroke="#191970" points="2104.0926,-130.6898 2094.8047,-135.7874 2105.2442,-137.5945 2104.0926,-130.6898"/>
</g>
<!-- Node164&#45;&gt;Node9 -->
<g id="edge125" class="edge">
<title>Node164&#45;&gt;Node9</title>
<path fill="none" stroke="#191970" d="M2102.8514,-131.7028C2186.3092,-108.0287 2369.0318,-56.1968 2459.5382,-30.5234"/>
<polygon fill="#191970" stroke="#191970" points="2101.8438,-128.3504 2093.1785,-134.4466 2103.7541,-135.0847 2101.8438,-128.3504"/>
</g>
<!-- Node164&#45;&gt;Node10 -->
<g id="edge121" class="edge">
<title>Node164&#45;&gt;Node10</title>
<path fill="none" stroke="#191970" d="M2042.8617,-127.2253C2031.7304,-116.0028 2017.4703,-101.6258 2008.1656,-92.2449"/>
<polygon fill="#191970" stroke="#191970" points="2040.4416,-129.7555 2049.9688,-134.3906 2045.4115,-124.826 2040.4416,-129.7555"/>
</g>
<!-- Node164&#45;&gt;Node12 -->
<g id="edge124" class="edge">
<title>Node164&#45;&gt;Node12</title>
<path fill="none" stroke="#191970" d="M2104.7112,-134.2018C2324.9138,-102.5613 2384.1632,-123.0885 2600.5,-98 2614.3911,-96.3891 2629.3354,-94.2198 2643.233,-92.0152"/>
<polygon fill="#191970" stroke="#191970" points="2104.1739,-130.743 2094.7827,-135.6478 2105.1828,-137.67 2104.1739,-130.743"/>
</g>
<!-- Node164&#45;&gt;Node15 -->
<g id="edge127" class="edge">
<title>Node164&#45;&gt;Node15</title>
<path fill="none" stroke="#191970" d="M2104.655,-134.0217C2189.4438,-116.6735 2212.3006,-115.0883 2292.5,-98 2351.4397,-85.4415 2364.8663,-75.6847 2424.5,-67 2695.004,-27.6056 2767.0909,-63.5798 3038.5,-31 3051.0104,-29.4983 3064.4625,-27.3132 3076.8913,-25.055"/>
<polygon fill="#191970" stroke="#191970" points="2103.9404,-130.5953 2094.8521,-136.0408 2105.3526,-137.4514 2103.9404,-130.5953"/>
</g>
<!-- Node164&#45;&gt;Node16 -->
<g id="edge122" class="edge">
<title>Node164&#45;&gt;Node16</title>
<path fill="none" stroke="#191970" d="M2014.2019,-141.6169C1860.9548,-133.5065 1367.5263,-106.9823 1296.5,-98 1284.7103,-96.509 1272.0443,-94.3277 1260.3464,-92.0695"/>
<polygon fill="#191970" stroke="#191970" points="2014.0464,-145.1135 2024.2173,-142.1464 2014.416,-138.1232 2014.0464,-145.1135"/>
</g>
<!-- Node164&#45;&gt;Node19 -->
<g id="edge126" class="edge">
<title>Node164&#45;&gt;Node19</title>
<path fill="none" stroke="#191970" d="M2014.104,-141.0768C1917.9543,-134.7168 1686.7397,-118.5314 1493.5,-98 1477.2683,-96.2754 1459.8175,-94.1392 1443.4457,-92.0095"/>
<polygon fill="#191970" stroke="#191970" points="2014.1304,-144.586 2024.3387,-141.7503 2014.5901,-137.6011 2014.1304,-144.586"/>
</g>
<!-- Node164&#45;&gt;Node38 -->
<g id="edge128" class="edge">
<title>Node164&#45;&gt;Node38</title>
<path fill="none" stroke="#191970" d="M2014.2893,-141.6741C1974.564,-139.635 1915.1983,-136.5988 1863.5,-134 1540.401,-117.758 1457.3614,-139.2883 1136.5,-98 1125.3039,-96.5593 1113.279,-94.3373 1102.2457,-92.0216"/>
<polygon fill="#191970" stroke="#191970" points="2014.2827,-145.1783 2024.449,-142.1958 2014.6417,-138.1875 2014.2827,-145.1783"/>
</g>
<!-- Node164&#45;&gt;Node44 -->
<g id="edge129" class="edge">
<title>Node164&#45;&gt;Node44</title>
<path fill="none" stroke="#191970" d="M2017.7677,-131.6296C1986.5661,-122.3772 1942.8585,-109.4088 1904.5,-98 1897.9988,-96.0664 1891.0413,-93.9944 1884.3984,-92.0147"/>
<polygon fill="#191970" stroke="#191970" points="2016.8536,-135.0092 2027.4361,-134.4964 2018.8436,-128.298 2016.8536,-135.0092"/>
</g>
</g>
</svg>
