<?xml version="1.0" encoding="UTF-8" standalone="no"?>
<!DOCTYPE svg PUBLIC "-//W3C//DTD SVG 1.1//EN"
 "http://www.w3.org/Graphics/SVG/1.1/DTD/svg11.dtd">
<!-- Generated by graphviz version 2.40.1 (20161225.0304)
 -->
<!-- Title: InverseKinematicsNLP.cpp Pages: 1 -->
<svg width="2849pt" height="688pt"
 viewBox="0.00 0.00 2849.35 688.00" xmlns="http://www.w3.org/2000/svg" xmlns:xlink="http://www.w3.org/1999/xlink">
<g id="graph0" class="graph" transform="scale(1 1) rotate(0) translate(4 684)">
<title>InverseKinematicsNLP.cpp</title>
<!-- Node0 -->
<g id="node1" class="node">
<title>Node0</title>
<polygon fill="#bfbfbf" stroke="#000000" points="1468.3505,-660.5 1468.3505,-679.5 1613.3505,-679.5 1613.3505,-660.5 1468.3505,-660.5"/>
<text text-anchor="middle" x="1540.8505" y="-667.5" font-family="FreeSans.ttf" font-size="10.00" fill="#000000">InverseKinematicsNLP.cpp</text>
</g>
<!-- Node1 -->
<g id="node2" class="node">
<title>Node1</title>
<g id="a_node2"><a xlink:href="InverseKinematicsNLP_8h.html" target="_top" xlink:title="InverseKinematicsNLP.h">
<polygon fill="none" stroke="#000000" points="997.8505,-487 997.8505,-506 1131.8505,-506 1131.8505,-487 997.8505,-487"/>
<text text-anchor="middle" x="1064.8505" y="-494" font-family="FreeSans.ttf" font-size="10.00" fill="#000000">InverseKinematicsNLP.h</text>
</a>
</g>
</g>
<!-- Node0&#45;&gt;Node1 -->
<g id="edge1" class="edge">
<title>Node0&#45;&gt;Node1</title>
<path fill="none" stroke="#191970" d="M1468.001,-665.0626C1348.0346,-655.2643 1117.1361,-628.8182 1066.8505,-568 1055.0206,-553.6922 1056.3256,-531.7113 1059.4588,-515.8987"/>
<polygon fill="#191970" stroke="#191970" points="1062.8788,-516.6449 1061.781,-506.1071 1056.0678,-515.0295 1062.8788,-516.6449"/>
</g>
<!-- Node7 -->
<g id="node8" class="node">
<title>Node7</title>
<polygon fill="none" stroke="#bfbfbf" points="1044.8505,-.5 1044.8505,-19.5 1096.8505,-19.5 1096.8505,-.5 1044.8505,-.5"/>
<text text-anchor="middle" x="1070.8505" y="-7.5" font-family="FreeSans.ttf" font-size="10.00" fill="#000000">cassert</text>
</g>
<!-- Node0&#45;&gt;Node7 -->
<g id="edge130" class="edge">
<title>Node0&#45;&gt;Node7</title>
<path fill="none" stroke="#191970" d="M1613.7687,-666.6607C1864.9373,-654.6833 2678.8505,-611.7256 2678.8505,-558 2678.8505,-558 2678.8505,-558 2678.8505,-122 2678.8505,-40.4806 1346.3136,-14.566 1107.3239,-10.5738"/>
<polygon fill="#191970" stroke="#191970" points="1107.1446,-7.0705 1097.0883,-10.4051 1107.0292,-14.0695 1107.1446,-7.0705"/>
</g>
<!-- Node41 -->
<g id="node27" class="node">
<title>Node41</title>
<g id="a_node27"><a xlink:href="InverseKinematicsData_8h.html" target="_top" xlink:title="InverseKinematicsData.h">
<polygon fill="none" stroke="#000000" points="1470.8505,-604.5 1470.8505,-623.5 1610.8505,-623.5 1610.8505,-604.5 1470.8505,-604.5"/>
<text text-anchor="middle" x="1540.8505" y="-611.5" font-family="FreeSans.ttf" font-size="10.00" fill="#000000">InverseKinematicsData.h</text>
</a>
</g>
</g>
<!-- Node0&#45;&gt;Node41 -->
<g id="edge53" class="edge">
<title>Node0&#45;&gt;Node41</title>
<path fill="none" stroke="#191970" d="M1540.8505,-660.2455C1540.8505,-652.9382 1540.8505,-642.6944 1540.8505,-633.7046"/>
<polygon fill="#191970" stroke="#191970" points="1544.3506,-633.6426 1540.8505,-623.6427 1537.3506,-633.6427 1544.3506,-633.6426"/>
</g>
<!-- Node68 -->
<g id="node43" class="node">
<title>Node68</title>
<g id="a_node43"><a xlink:href="TransformConstraint_8h.html" target="_top" xlink:title="TransformConstraint.h">
<polygon fill="none" stroke="#000000" points="1093.3505,-548.5 1093.3505,-567.5 1218.3505,-567.5 1218.3505,-548.5 1093.3505,-548.5"/>
<text text-anchor="middle" x="1155.8505" y="-555.5" font-family="FreeSans.ttf" font-size="10.00" fill="#000000">TransformConstraint.h</text>
</a>
</g>
</g>
<!-- Node0&#45;&gt;Node68 -->
<g id="edge108" class="edge">
<title>Node0&#45;&gt;Node68</title>
<path fill="none" stroke="#191970" d="M1508.0257,-660.4509C1438.4138,-640.2002 1276.0216,-592.9589 1198.5041,-570.4083"/>
<polygon fill="#191970" stroke="#191970" points="1199.172,-566.9576 1188.5923,-567.5249 1197.2166,-573.6789 1199.172,-566.9576"/>
</g>
<!-- Node69 -->
<g id="node44" class="node">
<title>Node69</title>
<polygon fill="none" stroke="#bfbfbf" points="2707.3505,-604.5 2707.3505,-623.5 2776.3505,-623.5 2776.3505,-604.5 2707.3505,-604.5"/>
<text text-anchor="middle" x="2741.8505" y="-611.5" font-family="FreeSans.ttf" font-size="10.00" fill="#000000">Eigen/Core</text>
</g>
<!-- Node0&#45;&gt;Node69 -->
<g id="edge111" class="edge">
<title>Node0&#45;&gt;Node69</title>
<path fill="none" stroke="#191970" d="M1613.352,-668.6375C1831.9527,-664.2869 2482.4714,-649.4983 2692.8505,-624 2694.305,-623.8237 2695.7807,-623.6272 2697.2684,-623.4139"/>
<polygon fill="#191970" stroke="#191970" points="2697.8593,-626.8639 2707.1652,-621.7992 2696.732,-619.9552 2697.8593,-626.8639"/>
</g>
<!-- Node70 -->
<g id="node45" class="node">
<title>Node70</title>
<g id="a_node45"><a xlink:href="EigenHelpers_8h.html" target="_top" xlink:title="iDynTree/Core/EigenHelpers.h">
<polygon fill="none" stroke="#000000" points="601.3505,-425.5 601.3505,-444.5 762.3505,-444.5 762.3505,-425.5 601.3505,-425.5"/>
<text text-anchor="middle" x="681.8505" y="-432.5" font-family="FreeSans.ttf" font-size="10.00" fill="#000000">iDynTree/Core/EigenHelpers.h</text>
</a>
</g>
</g>
<!-- Node0&#45;&gt;Node70 -->
<g id="edge112" class="edge">
<title>Node0&#45;&gt;Node70</title>
<path fill="none" stroke="#191970" d="M1468.1107,-667.562C1384.3055,-663.4688 1242.9636,-652.6067 1124.8505,-624 989.3561,-591.1836 959.1638,-568.8066 831.8505,-512 787.467,-492.1963 737.5598,-465.6919 707.9628,-449.5084"/>
<polygon fill="#191970" stroke="#191970" points="709.5493,-446.3866 699.0997,-444.6382 706.1783,-452.5215 709.5493,-446.3866"/>
</g>
<!-- Node72 -->
<g id="node50" class="node">
<title>Node72</title>
<polygon fill="none" stroke="#bfbfbf" points="2794.3505,-604.5 2794.3505,-623.5 2841.3505,-623.5 2841.3505,-604.5 2794.3505,-604.5"/>
<text text-anchor="middle" x="2817.8505" y="-611.5" font-family="FreeSans.ttf" font-size="10.00" fill="#000000">cmath</text>
</g>
<!-- Node0&#45;&gt;Node72 -->
<g id="edge131" class="edge">
<title>Node0&#45;&gt;Node72</title>
<path fill="none" stroke="#191970" d="M1613.6746,-668.4379C1856.5316,-663.0762 2631.5447,-644.6895 2783.9993,-623.7205"/>
<polygon fill="#191970" stroke="#191970" points="2784.906,-627.1222 2794.2571,-622.1415 2783.841,-620.2037 2784.906,-627.1222"/>
</g>
<!-- Node2 -->
<g id="node3" class="node">
<title>Node2</title>
<polygon fill="none" stroke="#bfbfbf" points="996.8505,-425.5 996.8505,-444.5 1066.8505,-444.5 1066.8505,-425.5 996.8505,-425.5"/>
<text text-anchor="middle" x="1031.8505" y="-432.5" font-family="FreeSans.ttf" font-size="10.00" fill="#000000">IpTNLP.hpp</text>
</g>
<!-- Node1&#45;&gt;Node2 -->
<g id="edge2" class="edge">
<title>Node1&#45;&gt;Node2</title>
<path fill="none" stroke="#191970" d="M1059.6943,-486.8906C1054.9273,-478.0068 1047.712,-464.5601 1041.8209,-453.5811"/>
<polygon fill="#191970" stroke="#191970" points="1044.8918,-451.9016 1037.0795,-444.7449 1038.7236,-455.2114 1044.8918,-451.9016"/>
</g>
<!-- Node3 -->
<g id="node4" class="node">
<title>Node3</title>
<g id="a_node4"><a xlink:href="VectorFixSize_8h.html" target="_top" xlink:title="iDynTree/Core/VectorFixSize.h">
<polygon fill="none" stroke="#000000" points="861.3505,-112.5 861.3505,-131.5 1022.3505,-131.5 1022.3505,-112.5 861.3505,-112.5"/>
<text text-anchor="middle" x="941.8505" y="-119.5" font-family="FreeSans.ttf" font-size="10.00" fill="#000000">iDynTree/Core/VectorFixSize.h</text>
</a>
</g>
</g>
<!-- Node1&#45;&gt;Node3 -->
<g id="edge3" class="edge">
<title>Node1&#45;&gt;Node3</title>
<path fill="none" stroke="#191970" d="M1069.9946,-486.6434C1078.5205,-471.2509 1097.0278,-441.558 1120.8505,-425 1164.1321,-394.9172 1202.7465,-431.5536 1233.8505,-389 1241.9809,-377.8768 1239.4791,-370.5756 1233.8505,-358 1197.3307,-276.4058 1153.5844,-279.9329 1083.8505,-224 1043.2556,-191.4392 993.3459,-156.7429 964.805,-137.3753"/>
<polygon fill="#191970" stroke="#191970" points="966.5736,-134.3463 956.3282,-131.6479 962.6547,-140.1465 966.5736,-134.3463"/>
</g>
<!-- Node18 -->
<g id="node12" class="node">
<title>Node18</title>
<g id="a_node12"><a xlink:href="VectorDynSize_8h.html" target="_top" xlink:title="iDynTree/Core/VectorDynSize.h">
<polygon fill="none" stroke="#000000" points="1058.3505,-364 1058.3505,-383 1225.3505,-383 1225.3505,-364 1058.3505,-364"/>
<text text-anchor="middle" x="1141.8505" y="-371" font-family="FreeSans.ttf" font-size="10.00" fill="#000000">iDynTree/Core/VectorDynSize.h</text>
</a>
</g>
</g>
<!-- Node1&#45;&gt;Node18 -->
<g id="edge13" class="edge">
<title>Node1&#45;&gt;Node18</title>
<path fill="none" stroke="#191970" d="M1040.0015,-486.9025C1011.0572,-474.2601 969.4097,-450.6115 987.8505,-425 999.5319,-408.7764 1045.5366,-394.7222 1084.2485,-385.413"/>
<polygon fill="#191970" stroke="#191970" points="1085.4824,-388.7189 1094.4222,-383.0329 1083.8878,-381.903 1085.4824,-388.7189"/>
</g>
<!-- Node19 -->
<g id="node13" class="node">
<title>Node19</title>
<g id="a_node13"><a xlink:href="MatrixDynSize_8h.html" target="_top" xlink:title="iDynTree/Core/MatrixDynSize.h">
<polygon fill="none" stroke="#000000" points="2367.3505,-364 2367.3505,-383 2534.3505,-383 2534.3505,-364 2367.3505,-364"/>
<text text-anchor="middle" x="2450.8505" y="-371" font-family="FreeSans.ttf" font-size="10.00" fill="#000000">iDynTree/Core/MatrixDynSize.h</text>
</a>
</g>
</g>
<!-- Node1&#45;&gt;Node19 -->
<g id="edge16" class="edge">
<title>Node1&#45;&gt;Node19</title>
<path fill="none" stroke="#191970" d="M1132.184,-494.0771C1401.4617,-484.3646 2386.7354,-448.5986 2393.8505,-445 2416.1136,-433.7402 2432.5236,-409.3593 2441.8768,-392.2105"/>
<polygon fill="#191970" stroke="#191970" points="2445.0994,-393.597 2446.5592,-383.1032 2438.874,-390.3963 2445.0994,-393.597"/>
</g>
<!-- Node20 -->
<g id="node14" class="node">
<title>Node20</title>
<g id="a_node14"><a xlink:href="Twist_8h.html" target="_top" xlink:title="iDynTree/Core/Twist.h">
<polygon fill="none" stroke="#000000" points="818.8505,-425.5 818.8505,-444.5 940.8505,-444.5 940.8505,-425.5 818.8505,-425.5"/>
<text text-anchor="middle" x="879.8505" y="-432.5" font-family="FreeSans.ttf" font-size="10.00" fill="#000000">iDynTree/Core/Twist.h</text>
</a>
</g>
</g>
<!-- Node1&#45;&gt;Node20 -->
<g id="edge18" class="edge">
<title>Node1&#45;&gt;Node20</title>
<path fill="none" stroke="#191970" d="M1035.9443,-486.8906C1004.3116,-476.3749 953.4476,-459.466 918.4276,-447.8243"/>
<polygon fill="#191970" stroke="#191970" points="919.1473,-444.3753 908.5538,-444.5419 916.9391,-451.0178 919.1473,-444.3753"/>
</g>
<!-- Node38 -->
<g id="node23" class="node">
<title>Node38</title>
<g id="a_node23"><a xlink:href="Transform_8h.html" target="_top" xlink:title="iDynTree/Core/Transform.h">
<polygon fill="none" stroke="#000000" points="1356.8505,-364 1356.8505,-383 1502.8505,-383 1502.8505,-364 1356.8505,-364"/>
<text text-anchor="middle" x="1429.8505" y="-371" font-family="FreeSans.ttf" font-size="10.00" fill="#000000">iDynTree/Core/Transform.h</text>
</a>
</g>
</g>
<!-- Node1&#45;&gt;Node38 -->
<g id="edge38" class="edge">
<title>Node1&#45;&gt;Node38</title>
<path fill="none" stroke="#191970" d="M1074.031,-486.8545C1089.5263,-471.2014 1122.5501,-440.4643 1156.8505,-425 1216.9743,-397.8932 1290.757,-385.0509 1346.4538,-378.9682"/>
<polygon fill="#191970" stroke="#191970" points="1347.0515,-382.425 1356.6357,-377.9092 1346.3273,-375.4626 1347.0515,-382.425"/>
</g>
<!-- Node40 -->
<g id="node26" class="node">
<title>Node40</title>
<polygon fill="none" stroke="#bfbfbf" points="1198.8505,-425.5 1198.8505,-444.5 1236.8505,-444.5 1236.8505,-425.5 1198.8505,-425.5"/>
<text text-anchor="middle" x="1217.8505" y="-432.5" font-family="FreeSans.ttf" font-size="10.00" fill="#000000">map</text>
</g>
<!-- Node1&#45;&gt;Node40 -->
<g id="edge52" class="edge">
<title>Node1&#45;&gt;Node40</title>
<path fill="none" stroke="#191970" d="M1088.7568,-486.8906C1115.822,-476.0115 1159.9104,-458.2896 1188.901,-446.6366"/>
<polygon fill="#191970" stroke="#191970" points="1190.4999,-449.7661 1198.473,-442.789 1187.8891,-443.2712 1190.4999,-449.7661"/>
</g>
<!-- Node4 -->
<g id="node5" class="node">
<title>Node4</title>
<g id="a_node5"><a xlink:href="Utils_8h.html" target="_top" xlink:title="iDynTree/Core/Utils.h">
<polygon fill="none" stroke="#000000" points="655.3505,-56.5 655.3505,-75.5 774.3505,-75.5 774.3505,-56.5 655.3505,-56.5"/>
<text text-anchor="middle" x="714.8505" y="-63.5" font-family="FreeSans.ttf" font-size="10.00" fill="#000000">iDynTree/Core/Utils.h</text>
</a>
</g>
</g>
<!-- Node3&#45;&gt;Node4 -->
<g id="edge4" class="edge">
<title>Node3&#45;&gt;Node4</title>
<path fill="none" stroke="#191970" d="M903.0858,-112.4369C864.4813,-102.9133 805.1121,-88.2672 763.3933,-77.9753"/>
<polygon fill="#191970" stroke="#191970" points="764.0027,-74.5208 753.4554,-75.5237 762.326,-81.317 764.0027,-74.5208"/>
</g>
<!-- Node6 -->
<g id="node7" class="node">
<title>Node6</title>
<g id="a_node7"><a xlink:href="Span_8h.html" target="_top" xlink:title="iDynTree/Core/Span.h">
<polygon fill="none" stroke="#ff0000" points="792.3505,-56.5 792.3505,-75.5 913.3505,-75.5 913.3505,-56.5 792.3505,-56.5"/>
<text text-anchor="middle" x="852.8505" y="-63.5" font-family="FreeSans.ttf" font-size="10.00" fill="#000000">iDynTree/Core/Span.h</text>
</a>
</g>
</g>
<!-- Node3&#45;&gt;Node6 -->
<g id="edge6" class="edge">
<title>Node3&#45;&gt;Node6</title>
<path fill="none" stroke="#191970" d="M926.3479,-112.2455C912.6926,-103.6534 892.5848,-91.0014 876.8516,-81.1018"/>
<polygon fill="#191970" stroke="#191970" points="878.5034,-78.006 868.1755,-75.6427 874.7755,-83.9307 878.5034,-78.006"/>
</g>
<!-- Node3&#45;&gt;Node7 -->
<g id="edge11" class="edge">
<title>Node3&#45;&gt;Node7</title>
<path fill="none" stroke="#191970" d="M942.1061,-112.2412C942.9827,-98.1466 946.5777,-72.029 960.8505,-56 979.8814,-34.6275 1010.4381,-22.9234 1034.5216,-16.6782"/>
<polygon fill="#191970" stroke="#191970" points="1035.4791,-20.0481 1044.3943,-14.3237 1033.8552,-13.2391 1035.4791,-20.0481"/>
</g>
<!-- Node15 -->
<g id="node9" class="node">
<title>Node15</title>
<polygon fill="none" stroke="#bfbfbf" points="1595.8505,-56.5 1595.8505,-75.5 1639.8505,-75.5 1639.8505,-56.5 1595.8505,-56.5"/>
<text text-anchor="middle" x="1617.8505" y="-63.5" font-family="FreeSans.ttf" font-size="10.00" fill="#000000">string</text>
</g>
<!-- Node3&#45;&gt;Node15 -->
<g id="edge9" class="edge">
<title>Node3&#45;&gt;Node15</title>
<path fill="none" stroke="#191970" d="M1022.3681,-112.8301C1025.2301,-112.5433 1028.0644,-112.2656 1030.8505,-112 1242.0973,-91.8608 1496.7335,-74.1355 1585.481,-68.1521"/>
<polygon fill="#191970" stroke="#191970" points="1585.9619,-71.6277 1595.7048,-67.4653 1585.4927,-64.6435 1585.9619,-71.6277"/>
</g>
<!-- Node16 -->
<g id="node10" class="node">
<title>Node16</title>
<polygon fill="none" stroke="#bfbfbf" points="1115.8505,-56.5 1115.8505,-75.5 1171.8505,-75.5 1171.8505,-56.5 1115.8505,-56.5"/>
<text text-anchor="middle" x="1143.8505" y="-63.5" font-family="FreeSans.ttf" font-size="10.00" fill="#000000">sstream</text>
</g>
<!-- Node3&#45;&gt;Node16 -->
<g id="edge10" class="edge">
<title>Node3&#45;&gt;Node16</title>
<path fill="none" stroke="#191970" d="M976.5756,-112.3733C1012.5604,-102.3973 1068.6409,-86.8502 1105.8058,-76.5471"/>
<polygon fill="#191970" stroke="#191970" points="1107.0527,-79.8335 1115.7542,-73.7891 1105.1826,-73.0879 1107.0527,-79.8335"/>
</g>
<!-- Node17 -->
<g id="node11" class="node">
<title>Node17</title>
<polygon fill="none" stroke="#bfbfbf" points="1047.8505,-56.5 1047.8505,-75.5 1097.8505,-75.5 1097.8505,-56.5 1047.8505,-56.5"/>
<text text-anchor="middle" x="1072.8505" y="-63.5" font-family="FreeSans.ttf" font-size="10.00" fill="#000000">cstring</text>
</g>
<!-- Node3&#45;&gt;Node17 -->
<g id="edge12" class="edge">
<title>Node3&#45;&gt;Node17</title>
<path fill="none" stroke="#191970" d="M964.3702,-112.3733C985.5877,-103.3032 1017.5782,-89.6279 1041.3274,-79.4755"/>
<polygon fill="#191970" stroke="#191970" points="1042.8054,-82.6502 1050.6247,-75.5011 1040.0538,-76.2136 1042.8054,-82.6502"/>
</g>
<!-- Node5 -->
<g id="node6" class="node">
<title>Node5</title>
<polygon fill="none" stroke="#bfbfbf" points="757.3505,-.5 757.3505,-19.5 810.3505,-19.5 810.3505,-.5 757.3505,-.5"/>
<text text-anchor="middle" x="783.8505" y="-7.5" font-family="FreeSans.ttf" font-size="10.00" fill="#000000">cstddef</text>
</g>
<!-- Node4&#45;&gt;Node5 -->
<g id="edge5" class="edge">
<title>Node4&#45;&gt;Node5</title>
<path fill="none" stroke="#191970" d="M726.8694,-56.2455C737.0604,-47.9746 751.8867,-35.9416 763.8612,-26.2232"/>
<polygon fill="#191970" stroke="#191970" points="766.4104,-28.662 771.9694,-19.6427 761.9992,-23.2268 766.4104,-28.662"/>
</g>
<!-- Node6&#45;&gt;Node5 -->
<g id="edge8" class="edge">
<title>Node6&#45;&gt;Node5</title>
<path fill="none" stroke="#191970" d="M840.8317,-56.2455C830.6407,-47.9746 815.8143,-35.9416 803.8399,-26.2232"/>
<polygon fill="#191970" stroke="#191970" points="805.7019,-23.2268 795.7317,-19.6427 801.2907,-28.662 805.7019,-23.2268"/>
</g>
<!-- Node6&#45;&gt;Node7 -->
<g id="edge7" class="edge">
<title>Node6&#45;&gt;Node7</title>
<path fill="none" stroke="#191970" d="M890.3261,-56.3733C930.866,-45.9593 995.0391,-29.4745 1034.9529,-19.2214"/>
<polygon fill="#191970" stroke="#191970" points="1035.9784,-22.5717 1044.7931,-16.6936 1034.2367,-15.7918 1035.9784,-22.5717"/>
</g>
<!-- Node18&#45;&gt;Node6 -->
<g id="edge14" class="edge">
<title>Node18&#45;&gt;Node6</title>
<path fill="none" stroke="#191970" d="M1083.1469,-363.9352C1031.7842,-354.6116 962.0161,-339.3342 939.8505,-322 865.48,-263.8398 863.1309,-224.6251 844.8505,-132 841.8125,-116.6067 844.2567,-98.9515 847.2175,-85.7769"/>
<polygon fill="#191970" stroke="#191970" points="850.6535,-86.4654 849.717,-75.9121 843.868,-84.746 850.6535,-86.4654"/>
</g>
<!-- Node18&#45;&gt;Node15 -->
<g id="edge15" class="edge">
<title>Node18&#45;&gt;Node15</title>
<path fill="none" stroke="#191970" d="M1153.4133,-363.8099C1190.8829,-332.6997 1313.0158,-233.5611 1424.8505,-168 1457.7887,-148.6906 1468.9265,-149.5197 1502.8505,-132 1534.6688,-115.5678 1570.2831,-94.7344 1593.3302,-80.9169"/>
<polygon fill="#191970" stroke="#191970" points="1595.3382,-83.7934 1602.0979,-75.6351 1591.726,-77.7973 1595.3382,-83.7934"/>
</g>
<!-- Node19&#45;&gt;Node15 -->
<g id="edge17" class="edge">
<title>Node19&#45;&gt;Node15</title>
<path fill="none" stroke="#191970" d="M2367.0029,-365.9007C2289.3662,-353.7089 2185.8505,-321.9869 2185.8505,-239.5 2185.8505,-239.5 2185.8505,-239.5 2185.8505,-178 2185.8505,-122.9976 1770.5769,-80.1702 1650.1915,-68.9104"/>
<polygon fill="#191970" stroke="#191970" points="1650.3969,-65.4145 1640.1168,-67.9776 1649.7516,-72.3847 1650.3969,-65.4145"/>
</g>
<!-- Node21 -->
<g id="node15" class="node">
<title>Node21</title>
<g id="a_node15"><a xlink:href="SpatialMotionVector_8h.html" target="_top" xlink:title="iDynTree/Core/SpatialMotion\lVector.h">
<polygon fill="none" stroke="#000000" points="736.3505,-358.5 736.3505,-388.5 891.3505,-388.5 891.3505,-358.5 736.3505,-358.5"/>
<text text-anchor="start" x="744.3505" y="-376.5" font-family="FreeSans.ttf" font-size="10.00" fill="#000000">iDynTree/Core/SpatialMotion</text>
<text text-anchor="middle" x="813.8505" y="-365.5" font-family="FreeSans.ttf" font-size="10.00" fill="#000000">Vector.h</text>
</a>
</g>
</g>
<!-- Node20&#45;&gt;Node21 -->
<g id="edge19" class="edge">
<title>Node20&#45;&gt;Node21</title>
<path fill="none" stroke="#191970" d="M869.538,-425.3906C860.9366,-417.3756 848.3494,-405.6466 837.3171,-395.3666"/>
<polygon fill="#191970" stroke="#191970" points="839.6981,-392.8012 829.996,-388.5446 834.926,-397.9225 839.6981,-392.8012"/>
</g>
<!-- Node21&#45;&gt;Node3 -->
<g id="edge20" class="edge">
<title>Node21&#45;&gt;Node3</title>
<path fill="none" stroke="#191970" d="M891.6504,-365.5759C977.1102,-356.0713 1104.2686,-339.2506 1118.8505,-322 1171.2358,-260.0278 1100.0257,-283.2564 1002.8505,-188 986.6106,-172.0808 969.0899,-152.8948 957.0108,-139.322"/>
<polygon fill="#191970" stroke="#191970" points="959.4981,-136.8511 950.2532,-131.6758 954.2529,-141.4867 959.4981,-136.8511"/>
</g>
<!-- Node22 -->
<g id="node16" class="node">
<title>Node22</title>
<g id="a_node16"><a xlink:href="LinearMotionVector3_8h.html" target="_top" xlink:title="iDynTree/Core/LinearMotion\lVector3.h">
<polygon fill="none" stroke="#ff0000" points="565.3505,-291.5 565.3505,-321.5 716.3505,-321.5 716.3505,-291.5 565.3505,-291.5"/>
<text text-anchor="start" x="573.3505" y="-309.5" font-family="FreeSans.ttf" font-size="10.00" fill="#000000">iDynTree/Core/LinearMotion</text>
<text text-anchor="middle" x="640.8505" y="-298.5" font-family="FreeSans.ttf" font-size="10.00" fill="#000000">Vector3.h</text>
</a>
</g>
</g>
<!-- Node21&#45;&gt;Node22 -->
<g id="edge21" class="edge">
<title>Node21&#45;&gt;Node22</title>
<path fill="none" stroke="#191970" d="M775.026,-358.4639C749.7392,-348.6708 716.5476,-335.8162 689.5038,-325.3426"/>
<polygon fill="#191970" stroke="#191970" points="690.4336,-321.9494 679.8444,-321.6017 687.9055,-328.477 690.4336,-321.9494"/>
</g>
<!-- Node30 -->
<g id="node17" class="node">
<title>Node30</title>
<g id="a_node17"><a xlink:href="PrivateMotionForceVertorAssociations_8h.html" target="_top" xlink:title="iDynTree/Core/PrivateMotion\lForceVertorAssociations.h">
<polygon fill="none" stroke="#000000" points="459.3505,-224.5 459.3505,-254.5 614.3505,-254.5 614.3505,-224.5 459.3505,-224.5"/>
<text text-anchor="start" x="467.3505" y="-242.5" font-family="FreeSans.ttf" font-size="10.00" fill="#000000">iDynTree/Core/PrivateMotion</text>
<text text-anchor="middle" x="536.8505" y="-231.5" font-family="FreeSans.ttf" font-size="10.00" fill="#000000">ForceVertorAssociations.h</text>
</a>
</g>
</g>
<!-- Node21&#45;&gt;Node30 -->
<g id="edge37" class="edge">
<title>Node21&#45;&gt;Node30</title>
<path fill="none" stroke="#191970" d="M736.2763,-367.2248C669.8945,-360.2499 581.1635,-346.5811 555.8505,-322 540.6899,-307.2777 536.5656,-283.0685 535.863,-264.6731"/>
<polygon fill="#191970" stroke="#191970" points="539.3626,-264.6029 535.7871,-254.6297 532.3628,-264.6558 539.3626,-264.6029"/>
</g>
<!-- Node31 -->
<g id="node18" class="node">
<title>Node31</title>
<g id="a_node18"><a xlink:href="AngularMotionVector3_8h.html" target="_top" xlink:title="iDynTree/Core/AngularMotion\lVector3.h">
<polygon fill="none" stroke="#ff0000" points="734.8505,-291.5 734.8505,-321.5 892.8505,-321.5 892.8505,-291.5 734.8505,-291.5"/>
<text text-anchor="start" x="742.8505" y="-309.5" font-family="FreeSans.ttf" font-size="10.00" fill="#000000">iDynTree/Core/AngularMotion</text>
<text text-anchor="middle" x="813.8505" y="-298.5" font-family="FreeSans.ttf" font-size="10.00" fill="#000000">Vector3.h</text>
</a>
</g>
</g>
<!-- Node21&#45;&gt;Node31 -->
<g id="edge23" class="edge">
<title>Node21&#45;&gt;Node31</title>
<path fill="none" stroke="#191970" d="M813.8505,-358.2967C813.8505,-350.5013 813.8505,-340.7991 813.8505,-331.9064"/>
<polygon fill="#191970" stroke="#191970" points="817.3506,-331.6431 813.8505,-321.6432 810.3506,-331.6432 817.3506,-331.6431"/>
</g>
<!-- Node32 -->
<g id="node19" class="node">
<title>Node32</title>
<g id="a_node19"><a xlink:href="SpatialVector_8h.html" target="_top" xlink:title="iDynTree/Core/SpatialVector.h">
<polygon fill="none" stroke="#ff0000" points="949.3505,-297 949.3505,-316 1110.3505,-316 1110.3505,-297 949.3505,-297"/>
<text text-anchor="middle" x="1029.8505" y="-304" font-family="FreeSans.ttf" font-size="10.00" fill="#000000">iDynTree/Core/SpatialVector.h</text>
</a>
</g>
</g>
<!-- Node21&#45;&gt;Node32 -->
<g id="edge26" class="edge">
<title>Node21&#45;&gt;Node32</title>
<path fill="none" stroke="#191970" d="M862.3252,-358.4639C900.6399,-346.5792 953.4904,-330.1858 989.5174,-319.0108"/>
<polygon fill="#191970" stroke="#191970" points="990.6925,-322.3108 999.2066,-316.0053 988.6186,-315.6251 990.6925,-322.3108"/>
</g>
<!-- Node22&#45;&gt;Node30 -->
<g id="edge22" class="edge">
<title>Node22&#45;&gt;Node30</title>
<path fill="none" stroke="#191970" d="M617.5109,-291.4639C603.2931,-282.3044 584.9182,-270.4667 569.2983,-260.4038"/>
<polygon fill="#191970" stroke="#191970" points="570.7742,-257.1912 560.4721,-254.7177 566.9831,-263.0758 570.7742,-257.1912"/>
</g>
<!-- Node31&#45;&gt;Node4 -->
<g id="edge25" class="edge">
<title>Node31&#45;&gt;Node4</title>
<path fill="none" stroke="#191970" d="M748.2609,-291.4468C713.9003,-282.0921 676.9019,-269.1717 666.8505,-255 628.7359,-201.2609 676.3091,-120.0041 701.3177,-84.1226"/>
<polygon fill="#191970" stroke="#191970" points="704.4168,-85.8073 707.4044,-75.6424 698.73,-81.7256 704.4168,-85.8073"/>
</g>
<!-- Node31&#45;&gt;Node30 -->
<g id="edge24" class="edge">
<title>Node31&#45;&gt;Node30</title>
<path fill="none" stroke="#191970" d="M751.6863,-291.4639C709.4226,-281.2412 653.3672,-267.6827 609.1131,-256.9787"/>
<polygon fill="#191970" stroke="#191970" points="609.8285,-253.5508 599.2859,-254.6017 608.1827,-260.3546 609.8285,-253.5508"/>
</g>
<!-- Node32&#45;&gt;Node4 -->
<g id="edge34" class="edge">
<title>Node32&#45;&gt;Node4</title>
<path fill="none" stroke="#191970" d="M1002.2797,-296.9934C978.3346,-288.0663 943.2901,-273.3514 915.8505,-255 837.7059,-202.7372 761.2403,-119.5214 729.8105,-83.5323"/>
<polygon fill="#191970" stroke="#191970" points="732.3328,-81.0983 723.142,-75.8275 727.0399,-85.6793 732.3328,-81.0983"/>
</g>
<!-- Node32&#45;&gt;Node16 -->
<g id="edge36" class="edge">
<title>Node32&#45;&gt;Node16</title>
<path fill="none" stroke="#191970" d="M1067.8727,-296.9509C1116.3635,-282.5 1198.1963,-249.944 1233.8505,-188 1247.631,-164.0585 1216.3286,-119.9537 1209.8505,-112 1199.5592,-99.3643 1184.9385,-88.691 1172.0728,-80.8161"/>
<polygon fill="#191970" stroke="#191970" points="1173.504,-77.5992 1163.1017,-75.5885 1169.9796,-83.6473 1173.504,-77.5992"/>
</g>
<!-- Node32&#45;&gt;Node30 -->
<g id="edge33" class="edge">
<title>Node32&#45;&gt;Node30</title>
<path fill="none" stroke="#191970" d="M959.7392,-296.9717C871.5453,-284.9859 720.0902,-264.4028 624.3855,-251.3962"/>
<polygon fill="#191970" stroke="#191970" points="624.8198,-247.9232 614.4395,-250.0445 623.8771,-254.8594 624.8198,-247.9232"/>
</g>
<!-- Node33 -->
<g id="node20" class="node">
<title>Node33</title>
<g id="a_node20"><a xlink:href="Position_8h.html" target="_top" xlink:title="Position.h">
<polygon fill="none" stroke="#ff0000" points="1509.3505,-230 1509.3505,-249 1574.3505,-249 1574.3505,-230 1509.3505,-230"/>
<text text-anchor="middle" x="1541.8505" y="-237" font-family="FreeSans.ttf" font-size="10.00" fill="#000000">Position.h</text>
</a>
</g>
</g>
<!-- Node32&#45;&gt;Node33 -->
<g id="edge27" class="edge">
<title>Node32&#45;&gt;Node33</title>
<path fill="none" stroke="#191970" d="M1102.6639,-296.9717C1211.0381,-282.7899 1411.3912,-256.5718 1498.9824,-245.1097"/>
<polygon fill="#191970" stroke="#191970" points="1499.6302,-248.5549 1509.0915,-243.7868 1498.7219,-241.614 1499.6302,-248.5549"/>
</g>
<!-- Node25 -->
<g id="node21" class="node">
<title>Node25</title>
<g id="a_node21"><a xlink:href="Rotation_8h.html" target="_top" xlink:title="iDynTree/Core/Rotation.h">
<polygon fill="none" stroke="#ff0000" points="1433.3505,-168.5 1433.3505,-187.5 1570.3505,-187.5 1570.3505,-168.5 1433.3505,-168.5"/>
<text text-anchor="middle" x="1501.8505" y="-175.5" font-family="FreeSans.ttf" font-size="10.00" fill="#000000">iDynTree/Core/Rotation.h</text>
</a>
</g>
</g>
<!-- Node32&#45;&gt;Node25 -->
<g id="edge32" class="edge">
<title>Node32&#45;&gt;Node25</title>
<path fill="none" stroke="#191970" d="M1064.9416,-296.9466C1149.3542,-273.9656 1363.666,-215.6202 1457.1263,-190.176"/>
<polygon fill="#191970" stroke="#191970" points="1458.1198,-193.533 1466.8492,-187.529 1456.2809,-186.7788 1458.1198,-193.533"/>
</g>
<!-- Node28 -->
<g id="node22" class="node">
<title>Node28</title>
<polygon fill="none" stroke="#bfbfbf" points="969.8505,-56.5 969.8505,-75.5 1029.8505,-75.5 1029.8505,-56.5 969.8505,-56.5"/>
<text text-anchor="middle" x="999.8505" y="-63.5" font-family="FreeSans.ttf" font-size="10.00" fill="#000000">iostream</text>
</g>
<!-- Node32&#45;&gt;Node28 -->
<g id="edge35" class="edge">
<title>Node32&#45;&gt;Node28</title>
<path fill="none" stroke="#191970" d="M1013.3972,-296.9024C976.0566,-274.0335 885.5364,-212.1964 851.8505,-132 848.4082,-123.8047 846.5798,-119.1576 851.8505,-112 864.7663,-94.4604 920.5433,-80.707 959.8005,-72.9664"/>
<polygon fill="#191970" stroke="#191970" points="960.4742,-76.4011 969.6377,-71.0831 959.1579,-69.5259 960.4742,-76.4011"/>
</g>
<!-- Node33&#45;&gt;Node15 -->
<g id="edge31" class="edge">
<title>Node33&#45;&gt;Node15</title>
<path fill="none" stroke="#191970" d="M1550.4851,-229.896C1558.9822,-220.0122 1571.8177,-203.8601 1579.8505,-188 1597.1483,-153.8473 1608.3928,-110.3009 1613.8848,-85.5449"/>
<polygon fill="#191970" stroke="#191970" points="1617.3442,-86.1038 1616.0045,-75.594 1610.4978,-84.6454 1617.3442,-86.1038"/>
</g>
<!-- Node33&#45;&gt;Node25 -->
<g id="edge28" class="edge">
<title>Node33&#45;&gt;Node25</title>
<path fill="none" stroke="#191970" d="M1535.6005,-229.8906C1529.7641,-220.917 1520.8996,-207.2879 1513.7199,-196.2491"/>
<polygon fill="#191970" stroke="#191970" points="1516.575,-194.2194 1508.1887,-187.7449 1510.707,-198.0361 1516.575,-194.2194"/>
</g>
<!-- Node25&#45;&gt;Node3 -->
<g id="edge30" class="edge">
<title>Node25&#45;&gt;Node3</title>
<path fill="none" stroke="#191970" d="M1433.1766,-171.6083C1343.4977,-163.1911 1181.3345,-147.7295 1032.6048,-132.1731"/>
<polygon fill="#191970" stroke="#191970" points="1032.6855,-128.6625 1022.375,-131.1008 1031.9556,-135.6244 1032.6855,-128.6625"/>
</g>
<!-- Node25&#45;&gt;Node15 -->
<g id="edge29" class="edge">
<title>Node25&#45;&gt;Node15</title>
<path fill="none" stroke="#191970" d="M1511.7406,-168.4509C1531.5161,-149.3574 1576.1426,-106.2697 1600.7547,-82.5063"/>
<polygon fill="#191970" stroke="#191970" points="1603.2225,-84.9888 1607.9855,-75.5249 1598.3603,-79.9529 1603.2225,-84.9888"/>
</g>
<!-- Node38&#45;&gt;Node15 -->
<g id="edge51" class="edge">
<title>Node38&#45;&gt;Node15</title>
<path fill="none" stroke="#191970" d="M1451.1035,-363.9796C1485.5055,-347.3351 1552.6743,-309.4545 1583.8505,-255 1612.0304,-205.7792 1610.2258,-188.2019 1617.8505,-132 1619.9236,-116.7196 1619.8171,-99.2654 1619.2496,-86.1457"/>
<polygon fill="#191970" stroke="#191970" points="1622.7294,-85.6843 1618.6755,-75.8957 1615.7403,-86.0758 1622.7294,-85.6843"/>
</g>
<!-- Node38&#45;&gt;Node33 -->
<g id="edge39" class="edge">
<title>Node38&#45;&gt;Node33</title>
<path fill="none" stroke="#191970" d="M1445.1603,-363.8661C1459.2852,-354.4388 1480.2223,-339.043 1494.8505,-322 1511.6334,-302.4468 1525.4448,-276.0116 1533.6559,-258.3899"/>
<polygon fill="#191970" stroke="#191970" points="1536.9017,-259.7062 1537.8234,-249.1515 1530.5209,-256.8277 1536.9017,-259.7062"/>
</g>
<!-- Node38&#45;&gt;Node25 -->
<g id="edge40" class="edge">
<title>Node38&#45;&gt;Node25</title>
<path fill="none" stroke="#191970" d="M1435.5656,-363.8794C1441.4402,-353.7184 1450.5893,-337.1082 1456.8505,-322 1474.8213,-278.6369 1489.6842,-225.4172 1496.9837,-197.3915"/>
<polygon fill="#191970" stroke="#191970" points="1500.3894,-198.2004 1499.4803,-187.6447 1493.6084,-196.4634 1500.3894,-198.2004"/>
</g>
<!-- Node39 -->
<g id="node24" class="node">
<title>Node39</title>
<g id="a_node24"><a xlink:href="TransformSemantics_8h.html" target="_top" xlink:title="iDynTree/Core/TransformSemantics.h">
<polygon fill="none" stroke="#000000" points="1296.3505,-112.5 1296.3505,-131.5 1493.3505,-131.5 1493.3505,-112.5 1296.3505,-112.5"/>
<text text-anchor="middle" x="1394.8505" y="-119.5" font-family="FreeSans.ttf" font-size="10.00" fill="#000000">iDynTree/Core/TransformSemantics.h</text>
</a>
</g>
</g>
<!-- Node38&#45;&gt;Node39 -->
<g id="edge41" class="edge">
<title>Node38&#45;&gt;Node39</title>
<path fill="none" stroke="#191970" d="M1428.5212,-363.948C1423.367,-326.911 1404.6383,-192.3321 1397.5731,-141.5638"/>
<polygon fill="#191970" stroke="#191970" points="1401.0262,-140.9836 1396.1812,-131.5615 1394.093,-141.9485 1401.0262,-140.9836"/>
</g>
<!-- Node27 -->
<g id="node25" class="node">
<title>Node27</title>
<g id="a_node25"><a xlink:href="MatrixFixSize_8h.html" target="_top" xlink:title="iDynTree/Core/MatrixFixSize.h">
<polygon fill="none" stroke="#000000" points="1040.3505,-112.5 1040.3505,-131.5 1201.3505,-131.5 1201.3505,-112.5 1040.3505,-112.5"/>
<text text-anchor="middle" x="1120.8505" y="-119.5" font-family="FreeSans.ttf" font-size="10.00" fill="#000000">iDynTree/Core/MatrixFixSize.h</text>
</a>
</g>
</g>
<!-- Node38&#45;&gt;Node27 -->
<g id="edge44" class="edge">
<title>Node38&#45;&gt;Node27</title>
<path fill="none" stroke="#191970" d="M1426.9689,-363.9335C1416.5384,-331.0104 1377.4862,-221.4785 1304.8505,-168 1286.3003,-154.3422 1233.0626,-141.8727 1188.5961,-133.3724"/>
<polygon fill="#191970" stroke="#191970" points="1189.15,-129.9153 1178.6763,-131.5131 1187.8604,-136.7955 1189.15,-129.9153"/>
</g>
<!-- Node39&#45;&gt;Node4 -->
<g id="edge43" class="edge">
<title>Node39&#45;&gt;Node4</title>
<path fill="none" stroke="#191970" d="M1296.3403,-116.7544C1177.3662,-109.9306 970.9563,-96.5328 784.5118,-76.1224"/>
<polygon fill="#191970" stroke="#191970" points="784.8473,-72.6383 774.5237,-75.0201 784.0793,-79.596 784.8473,-72.6383"/>
</g>
<!-- Node39&#45;&gt;Node15 -->
<g id="edge42" class="edge">
<title>Node39&#45;&gt;Node15</title>
<path fill="none" stroke="#191970" d="M1432.9322,-112.4369C1476.0745,-101.6029 1545.6154,-84.1398 1585.9973,-73.999"/>
<polygon fill="#191970" stroke="#191970" points="1586.997,-77.3567 1595.8434,-71.5265 1585.292,-70.5675 1586.997,-77.3567"/>
</g>
<!-- Node27&#45;&gt;Node4 -->
<g id="edge45" class="edge">
<title>Node27&#45;&gt;Node4</title>
<path fill="none" stroke="#191970" d="M1049.2773,-112.4863C983.1134,-103.6397 881.7664,-89.9578 784.5495,-76.2306"/>
<polygon fill="#191970" stroke="#191970" points="784.941,-72.7512 774.5494,-74.8163 783.9607,-79.6822 784.941,-72.7512"/>
</g>
<!-- Node27&#45;&gt;Node7 -->
<g id="edge46" class="edge">
<title>Node27&#45;&gt;Node7</title>
<path fill="none" stroke="#191970" d="M1141.1553,-112.2935C1163.8243,-100.0855 1195.5249,-78.0423 1180.8505,-56 1164.5177,-31.4665 1132.3256,-19.9936 1106.968,-14.6423"/>
<polygon fill="#191970" stroke="#191970" points="1107.4092,-11.1641 1096.9354,-12.7609 1106.1189,-18.0442 1107.4092,-11.1641"/>
</g>
<!-- Node27&#45;&gt;Node15 -->
<g id="edge48" class="edge">
<title>Node27&#45;&gt;Node15</title>
<path fill="none" stroke="#191970" d="M1201.5313,-112.9092C1312.8511,-100.3661 1508.5129,-78.3197 1585.4632,-69.6493"/>
<polygon fill="#191970" stroke="#191970" points="1585.967,-73.1148 1595.5122,-68.517 1585.1832,-66.1588 1585.967,-73.1148"/>
</g>
<!-- Node27&#45;&gt;Node16 -->
<g id="edge50" class="edge">
<title>Node27&#45;&gt;Node16</title>
<path fill="none" stroke="#191970" d="M1124.8568,-112.2455C1127.924,-104.7776 1132.2509,-94.2427 1136.0003,-85.1137"/>
<polygon fill="#191970" stroke="#191970" points="1139.3285,-86.2226 1139.8902,-75.6427 1132.8533,-83.5631 1139.3285,-86.2226"/>
</g>
<!-- Node27&#45;&gt;Node17 -->
<g id="edge47" class="edge">
<title>Node27&#45;&gt;Node17</title>
<path fill="none" stroke="#191970" d="M1112.4896,-112.2455C1105.6755,-104.2958 1095.8824,-92.8706 1087.7353,-83.3656"/>
<polygon fill="#191970" stroke="#191970" points="1090.281,-80.9575 1081.1157,-75.6427 1084.9662,-85.513 1090.281,-80.9575"/>
</g>
<!-- Node27&#45;&gt;Node28 -->
<g id="edge49" class="edge">
<title>Node27&#45;&gt;Node28</title>
<path fill="none" stroke="#191970" d="M1100.0499,-112.3733C1080.6262,-103.3838 1051.4282,-89.8706 1029.5541,-79.7471"/>
<polygon fill="#191970" stroke="#191970" points="1030.925,-76.5249 1020.3797,-75.5011 1027.9849,-82.8776 1030.925,-76.5249"/>
</g>
<!-- Node41&#45;&gt;Node1 -->
<g id="edge54" class="edge">
<title>Node41&#45;&gt;Node1</title>
<path fill="none" stroke="#191970" d="M1470.6582,-611.2815C1349.8259,-605.97 1112.6432,-592.5332 1083.8505,-568 1069.076,-555.4111 1065.1239,-532.7683 1064.3653,-516.329"/>
<polygon fill="#191970" stroke="#191970" points="1067.8632,-516.1009 1064.2567,-506.1388 1060.8636,-516.1756 1067.8632,-516.1009"/>
</g>
<!-- Node41&#45;&gt;Node18 -->
<g id="edge100" class="edge">
<title>Node41&#45;&gt;Node18</title>
<path fill="none" stroke="#191970" d="M1470.661,-611.5195C1349.0638,-606.5993 1104.4179,-593.7804 1022.8505,-568 918.6159,-535.0553 864.505,-539.6737 809.8505,-445 739.7399,-323.5527 533.5598,-469.0124 1044.8505,-389 1053.8212,-387.5962 1063.2562,-386.1058 1072.5744,-384.6257"/>
<polygon fill="#191970" stroke="#191970" points="1073.2866,-388.0564 1082.6122,-383.0281 1072.1863,-381.1435 1073.2866,-388.0564"/>
</g>
<!-- Node41&#45;&gt;Node19 -->
<g id="edge101" class="edge">
<title>Node41&#45;&gt;Node19</title>
<path fill="none" stroke="#191970" d="M1610.8629,-612.351C1831.4058,-606.441 2500.9346,-582.7672 2564.8505,-512 2583.4956,-491.3563 2546.9847,-428.6322 2543.8505,-425 2529.1007,-407.9062 2507.2111,-395.3892 2488.3734,-386.9783"/>
<polygon fill="#191970" stroke="#191970" points="2489.7091,-383.7431 2479.136,-383.0646 2486.9783,-390.1885 2489.7091,-383.7431"/>
</g>
<!-- Node41&#45;&gt;Node20 -->
<g id="edge103" class="edge">
<title>Node41&#45;&gt;Node20</title>
<path fill="none" stroke="#191970" d="M1470.5257,-611.6164C1357.0483,-607.0295 1138.9771,-594.9416 1066.8505,-568 995.9343,-541.5105 927.2665,-481.0683 896.5809,-451.6717"/>
<polygon fill="#191970" stroke="#191970" points="898.8991,-449.0439 889.29,-444.581 894.0187,-454.0621 898.8991,-449.0439"/>
</g>
<!-- Node41&#45;&gt;Node38 -->
<g id="edge102" class="edge">
<title>Node41&#45;&gt;Node38</title>
<path fill="none" stroke="#191970" d="M1470.7061,-606.9685C1393.6551,-598.5227 1279.0068,-583.5397 1265.8505,-568 1208.825,-500.6433 1340.7256,-419.9432 1401.3745,-387.7624"/>
<polygon fill="#191970" stroke="#191970" points="1403.21,-390.7525 1410.4567,-383.0236 1399.9719,-384.5465 1403.21,-390.7525"/>
</g>
<!-- Node41&#45;&gt;Node40 -->
<g id="edge106" class="edge">
<title>Node41&#45;&gt;Node40</title>
<path fill="none" stroke="#191970" d="M1541.0885,-604.2386C1540.8702,-589.649 1538.1384,-562.3403 1521.8505,-548 1443.2042,-478.7576 1381.3246,-561.2777 1288.8505,-512 1263.023,-498.237 1241.6076,-471.3448 1229.265,-453.2717"/>
<polygon fill="#191970" stroke="#191970" points="1232.0773,-451.1781 1223.6623,-444.7409 1226.2263,-455.0208 1232.0773,-451.1781"/>
</g>
<!-- Node42 -->
<g id="node28" class="node">
<title>Node42</title>
<g id="a_node28"><a xlink:href="ConvexHullHelpers_8h.html" target="_top" xlink:title="iDynTree/ConvexHullHelpers.h">
<polygon fill="none" stroke="#000000" points="1445.3505,-425.5 1445.3505,-444.5 1610.3505,-444.5 1610.3505,-425.5 1445.3505,-425.5"/>
<text text-anchor="middle" x="1527.8505" y="-432.5" font-family="FreeSans.ttf" font-size="10.00" fill="#000000">iDynTree/ConvexHullHelpers.h</text>
</a>
</g>
</g>
<!-- Node41&#45;&gt;Node42 -->
<g id="edge55" class="edge">
<title>Node41&#45;&gt;Node42</title>
<path fill="none" stroke="#191970" d="M1544.7129,-604.3228C1548.1544,-595.1446 1552.9338,-580.8807 1554.8505,-568 1556.1588,-559.2079 1558.4156,-556.1426 1554.8505,-548 1545.3896,-526.3913 1525.3115,-533.6087 1515.8505,-512 1507.7047,-493.3951 1513.2386,-470.1327 1519.2097,-454.0725"/>
<polygon fill="#191970" stroke="#191970" points="1522.5053,-455.2605 1523.0573,-444.6801 1516.0277,-452.6069 1522.5053,-455.2605"/>
</g>
<!-- Node43 -->
<g id="node29" class="node">
<title>Node43</title>
<polygon fill="none" stroke="#bfbfbf" points="1741.3505,-364 1741.3505,-383 1788.3505,-383 1788.3505,-364 1741.3505,-364"/>
<text text-anchor="middle" x="1764.8505" y="-371" font-family="FreeSans.ttf" font-size="10.00" fill="#000000">vector</text>
</g>
<!-- Node41&#45;&gt;Node43 -->
<g id="edge105" class="edge">
<title>Node41&#45;&gt;Node43</title>
<path fill="none" stroke="#191970" d="M1562.1983,-604.4813C1594.6789,-589.0948 1656.8434,-555.9852 1695.8505,-512 1728.0929,-475.6429 1749.221,-421.5144 1758.8434,-392.8819"/>
<polygon fill="#191970" stroke="#191970" points="1762.2125,-393.8387 1761.9671,-383.2468 1755.5537,-391.6799 1762.2125,-393.8387"/>
</g>
<!-- Node44 -->
<g id="node30" class="node">
<title>Node44</title>
<g id="a_node30"><a xlink:href="InverseKinematics_8h.html" target="_top" xlink:title="iDynTree/InverseKinematics.h">
<polygon fill="none" stroke="#000000" points="1524.8505,-487 1524.8505,-506 1686.8505,-506 1686.8505,-487 1524.8505,-487"/>
<text text-anchor="middle" x="1605.8505" y="-494" font-family="FreeSans.ttf" font-size="10.00" fill="#000000">iDynTree/InverseKinematics.h</text>
</a>
</g>
</g>
<!-- Node41&#45;&gt;Node44 -->
<g id="edge62" class="edge">
<title>Node41&#45;&gt;Node44</title>
<path fill="none" stroke="#191970" d="M1556.6167,-604.3111C1568.5123,-596.1366 1584.2107,-583.3307 1592.8505,-568 1601.7356,-552.2342 1604.7452,-531.689 1605.6741,-516.6697"/>
<polygon fill="#191970" stroke="#191970" points="1609.1805,-516.5514 1606.0417,-506.4322 1602.185,-516.3002 1609.1805,-516.5514"/>
</g>
<!-- Node46 -->
<g id="node32" class="node">
<title>Node46</title>
<g id="a_node32"><a xlink:href="KinDynComputations_8h.html" target="_top" xlink:title="iDynTree/KinDynComputations.h">
<polygon fill="none" stroke="#000000" points="1831.3505,-548.5 1831.3505,-567.5 2006.3505,-567.5 2006.3505,-548.5 1831.3505,-548.5"/>
<text text-anchor="middle" x="1918.8505" y="-555.5" font-family="FreeSans.ttf" font-size="10.00" fill="#000000">iDynTree/KinDynComputations.h</text>
</a>
</g>
</g>
<!-- Node41&#45;&gt;Node46 -->
<g id="edge70" class="edge">
<title>Node41&#45;&gt;Node46</title>
<path fill="none" stroke="#191970" d="M1605.4016,-604.4369C1671.7242,-594.6113 1774.8521,-579.3331 1844.5356,-569.0096"/>
<polygon fill="#191970" stroke="#191970" points="1845.1867,-572.4515 1854.5658,-567.5237 1844.1608,-565.527 1845.1867,-572.4515"/>
</g>
<!-- Node57 -->
<g id="node36" class="node">
<title>Node57</title>
<g id="a_node36"><a xlink:href="Model_8h.html" target="_top" xlink:title="iDynTree/Model/Model.h">
<polygon fill="none" stroke="#000000" points="1965.3505,-487 1965.3505,-506 2098.3505,-506 2098.3505,-487 1965.3505,-487"/>
<text text-anchor="middle" x="2031.8505" y="-494" font-family="FreeSans.ttf" font-size="10.00" fill="#000000">iDynTree/Model/Model.h</text>
</a>
</g>
</g>
<!-- Node41&#45;&gt;Node57 -->
<g id="edge85" class="edge">
<title>Node41&#45;&gt;Node57</title>
<path fill="none" stroke="#191970" d="M1580.6152,-604.484C1669.5861,-583.1926 1884.5392,-531.7527 1982.1468,-508.3945"/>
<polygon fill="#191970" stroke="#191970" points="1983.1471,-511.754 1992.0579,-506.0227 1981.5179,-504.9462 1983.1471,-511.754"/>
</g>
<!-- Node66 -->
<g id="node41" class="node">
<title>Node66</title>
<polygon fill="none" stroke="#bfbfbf" points="1274.8505,-548.5 1274.8505,-567.5 1400.8505,-567.5 1400.8505,-548.5 1274.8505,-548.5"/>
<text text-anchor="middle" x="1337.8505" y="-555.5" font-family="FreeSans.ttf" font-size="10.00" fill="#000000">IpIpoptApplication.hpp</text>
</g>
<!-- Node41&#45;&gt;Node66 -->
<g id="edge104" class="edge">
<title>Node41&#45;&gt;Node66</title>
<path fill="none" stroke="#191970" d="M1505.9536,-604.3733C1471.7594,-594.9404 1419.5091,-580.5265 1382.3463,-570.2747"/>
<polygon fill="#191970" stroke="#191970" points="1382.8628,-566.7865 1372.2921,-567.5011 1381.0013,-573.5345 1382.8628,-566.7865"/>
</g>
<!-- Node67 -->
<g id="node42" class="node">
<title>Node67</title>
<polygon fill="none" stroke="#bfbfbf" points="1419.3505,-548.5 1419.3505,-567.5 1512.3505,-567.5 1512.3505,-548.5 1419.3505,-548.5"/>
<text text-anchor="middle" x="1465.8505" y="-555.5" font-family="FreeSans.ttf" font-size="10.00" fill="#000000">unordered_map</text>
</g>
<!-- Node41&#45;&gt;Node67 -->
<g id="edge107" class="edge">
<title>Node41&#45;&gt;Node67</title>
<path fill="none" stroke="#191970" d="M1527.7865,-604.2455C1516.4943,-595.814 1499.966,-583.4729 1486.8234,-573.6598"/>
<polygon fill="#191970" stroke="#191970" points="1488.8717,-570.8211 1478.7648,-567.6427 1484.6836,-576.4301 1488.8717,-570.8211"/>
</g>
<!-- Node42&#45;&gt;Node15 -->
<g id="edge56" class="edge">
<title>Node42&#45;&gt;Node15</title>
<path fill="none" stroke="#191970" d="M1555.1556,-425.4375C1597.6669,-408.6026 1674.8505,-369.3789 1674.8505,-306.5 1674.8505,-306.5 1674.8505,-306.5 1674.8505,-178 1674.8505,-141.1826 1650.083,-104.2377 1633.2005,-83.3313"/>
<polygon fill="#191970" stroke="#191970" points="1635.8636,-81.06 1626.7568,-75.6456 1630.4995,-85.5574 1635.8636,-81.06"/>
</g>
<!-- Node42&#45;&gt;Node18 -->
<g id="edge61" class="edge">
<title>Node42&#45;&gt;Node18</title>
<path fill="none" stroke="#191970" d="M1467.9616,-425.4581C1398.6924,-414.4217 1284.8205,-396.2789 1211.6135,-384.6151"/>
<polygon fill="#191970" stroke="#191970" points="1211.9886,-381.1308 1201.5624,-383.0137 1210.8871,-388.0436 1211.9886,-381.1308"/>
</g>
<!-- Node42&#45;&gt;Node19 -->
<g id="edge58" class="edge">
<title>Node42&#45;&gt;Node19</title>
<path fill="none" stroke="#191970" d="M1610.4222,-430.2404C1745.5941,-422.3475 2022.5253,-405.7527 2256.8505,-389 2289.542,-386.6628 2325.3127,-383.8713 2357.1353,-381.3055"/>
<polygon fill="#191970" stroke="#191970" points="2357.6347,-384.7766 2367.3197,-380.4812 2357.0699,-377.7994 2357.6347,-384.7766"/>
</g>
<!-- Node42&#45;&gt;Node33 -->
<g id="edge59" class="edge">
<title>Node42&#45;&gt;Node33</title>
<path fill="none" stroke="#191970" d="M1528.5448,-425.3051C1530.7235,-394.8813 1537.456,-300.8666 1540.4222,-259.4452"/>
<polygon fill="#191970" stroke="#191970" points="1543.9288,-259.4779 1541.1521,-249.2534 1536.9466,-258.9778 1543.9288,-259.4779"/>
</g>
<!-- Node42&#45;&gt;Node38 -->
<g id="edge60" class="edge">
<title>Node42&#45;&gt;Node38</title>
<path fill="none" stroke="#191970" d="M1512.538,-425.3906C1496.7881,-415.5067 1472.0382,-399.9749 1453.7168,-388.4773"/>
<polygon fill="#191970" stroke="#191970" points="1455.3862,-385.3929 1445.0555,-383.0419 1451.6653,-391.3221 1455.3862,-385.3929"/>
</g>
<!-- Node42&#45;&gt;Node43 -->
<g id="edge57" class="edge">
<title>Node42&#45;&gt;Node43</title>
<path fill="none" stroke="#191970" d="M1564.6218,-425.4581C1610.2411,-413.6202 1687.3683,-393.6061 1731.3949,-382.1815"/>
<polygon fill="#191970" stroke="#191970" points="1732.5117,-385.5077 1741.312,-379.6081 1730.7535,-378.7321 1732.5117,-385.5077"/>
</g>
<!-- Node44&#45;&gt;Node15 -->
<g id="edge63" class="edge">
<title>Node44&#45;&gt;Node15</title>
<path fill="none" stroke="#191970" d="M1616.1101,-486.895C1642.8914,-460.7254 1712.8505,-384.8644 1712.8505,-306.5 1712.8505,-306.5 1712.8505,-306.5 1712.8505,-178 1712.8505,-134.9765 1671.5771,-100.0102 1643.4396,-81.1715"/>
<polygon fill="#191970" stroke="#191970" points="1645.1375,-78.102 1634.8346,-75.632 1641.3484,-83.9879 1645.1375,-78.102"/>
</g>
<!-- Node44&#45;&gt;Node42 -->
<g id="edge65" class="edge">
<title>Node44&#45;&gt;Node42</title>
<path fill="none" stroke="#191970" d="M1593.663,-486.8906C1581.4136,-477.2324 1562.3243,-462.1812 1547.8528,-450.771"/>
<polygon fill="#191970" stroke="#191970" points="1549.9722,-447.985 1539.9525,-444.5419 1545.6381,-453.4819 1549.9722,-447.985"/>
</g>
<!-- Node44&#45;&gt;Node43 -->
<g id="edge64" class="edge">
<title>Node44&#45;&gt;Node43</title>
<path fill="none" stroke="#191970" d="M1618.327,-486.8484C1645.6115,-465.7415 1710.8123,-415.3032 1744.2721,-389.4192"/>
<polygon fill="#191970" stroke="#191970" points="1746.664,-391.9939 1752.432,-383.1068 1742.3809,-386.4572 1746.664,-391.9939"/>
</g>
<!-- Node45 -->
<g id="node31" class="node">
<title>Node45</title>
<g id="a_node31"><a xlink:href="Direction_8h.html" target="_top" xlink:title="iDynTree/Core/Direction.h">
<polygon fill="none" stroke="#000000" points="1083.3505,-168.5 1083.3505,-187.5 1224.3505,-187.5 1224.3505,-168.5 1083.3505,-168.5"/>
<text text-anchor="middle" x="1153.8505" y="-175.5" font-family="FreeSans.ttf" font-size="10.00" fill="#000000">iDynTree/Core/Direction.h</text>
</a>
</g>
</g>
<!-- Node44&#45;&gt;Node45 -->
<g id="edge66" class="edge">
<title>Node44&#45;&gt;Node45</title>
<path fill="none" stroke="#191970" d="M1548.7901,-486.9944C1494.8468,-477.2495 1418.4669,-461.2591 1392.8505,-445 1297.3912,-384.4103 1351.7985,-298.6153 1266.8505,-224 1249.2656,-208.554 1225.808,-197.8718 1204.8238,-190.7187"/>
<polygon fill="#191970" stroke="#191970" points="1205.6646,-187.3126 1195.0731,-187.5809 1203.5201,-193.9761 1205.6646,-187.3126"/>
</g>
<!-- Node45&#45;&gt;Node3 -->
<g id="edge68" class="edge">
<title>Node45&#45;&gt;Node3</title>
<path fill="none" stroke="#191970" d="M1117.4064,-168.3733C1081.5436,-158.9001 1026.6627,-144.4032 987.8223,-134.1435"/>
<polygon fill="#191970" stroke="#191970" points="988.3813,-130.6712 977.8191,-131.5011 986.5936,-137.439 988.3813,-130.6712"/>
</g>
<!-- Node45&#45;&gt;Node4 -->
<g id="edge69" class="edge">
<title>Node45&#45;&gt;Node4</title>
<path fill="none" stroke="#191970" d="M1083.2575,-173.2176C1021.1923,-167.6147 928.9892,-155.866 851.8505,-132 810.5634,-119.2262 766.0596,-95.8016 739.3351,-80.5707"/>
<polygon fill="#191970" stroke="#191970" points="741.0676,-77.5296 730.6582,-75.556 737.5648,-83.5902 741.0676,-77.5296"/>
</g>
<!-- Node45&#45;&gt;Node15 -->
<g id="edge67" class="edge">
<title>Node45&#45;&gt;Node15</title>
<path fill="none" stroke="#191970" d="M1169.2584,-168.3604C1193.5047,-153.6748 1242.4866,-125.9374 1287.8505,-112 1393.5218,-79.5342 1525.324,-69.9057 1585.3559,-67.1105"/>
<polygon fill="#191970" stroke="#191970" points="1585.8675,-70.5917 1595.7074,-66.6641 1585.5659,-63.5982 1585.8675,-70.5917"/>
</g>
<!-- Node46&#45;&gt;Node3 -->
<g id="edge73" class="edge">
<title>Node46&#45;&gt;Node3</title>
<path fill="none" stroke="#191970" d="M1831.1991,-551.0984C1730.9848,-542.6614 1573.3721,-527.5739 1515.8505,-512 1444.589,-492.706 1424.4954,-487.1031 1363.8505,-445 1285.3649,-390.5107 1286.22,-353.3839 1213.8505,-291 1175.2651,-257.7386 1162.7176,-253.0226 1120.8505,-224 1083.9751,-198.4376 1075.8006,-190.2739 1036.8505,-168 1016.1249,-156.1479 991.8885,-144.4448 973.0832,-135.8091"/>
<polygon fill="#191970" stroke="#191970" points="974.344,-132.5376 963.7917,-131.5882 971.4487,-138.9108 974.344,-132.5376"/>
</g>
<!-- Node46&#45;&gt;Node4 -->
<g id="edge75" class="edge">
<title>Node46&#45;&gt;Node4</title>
<path fill="none" stroke="#191970" d="M1831.1922,-555.8539C1666.0998,-551.3261 1297.8573,-538.9169 988.8505,-512 769.3135,-492.8766 150.6909,-554.2054 4.8505,-389 -4.2676,-378.6711 2.2156,-371.5235 4.8505,-358 15.7178,-302.2255 52.8505,-296.3233 52.8505,-239.5 52.8505,-239.5 52.8505,-239.5 52.8505,-178 52.8505,-148.2109 475.0771,-94.5684 645.1275,-74.1721"/>
<polygon fill="#191970" stroke="#191970" points="645.7141,-77.627 655.2277,-72.9642 644.8828,-70.6765 645.7141,-77.627"/>
</g>
<!-- Node46&#45;&gt;Node15 -->
<g id="edge71" class="edge">
<title>Node46&#45;&gt;Node15</title>
<path fill="none" stroke="#191970" d="M2006.4117,-556.3835C2172.0755,-552.6563 2518.9699,-541.4084 2564.8505,-512 2623.9637,-474.1099 2640.8505,-443.7141 2640.8505,-373.5 2640.8505,-373.5 2640.8505,-373.5 2640.8505,-178 2640.8505,-126.9215 1824.3219,-77.7153 1650.2445,-67.8054"/>
<polygon fill="#191970" stroke="#191970" points="1650.3506,-64.3059 1640.1687,-67.2349 1649.9549,-71.2947 1650.3506,-64.3059"/>
</g>
<!-- Node46&#45;&gt;Node19 -->
<g id="edge74" class="edge">
<title>Node46&#45;&gt;Node19</title>
<path fill="none" stroke="#191970" d="M2006.5697,-554.6898C2174.786,-547.9139 2527.7744,-531.4508 2545.8505,-512 2583.2458,-471.7608 2514.1505,-415.7382 2475.0498,-388.9559"/>
<polygon fill="#191970" stroke="#191970" points="2476.5528,-385.7506 2466.2945,-383.1015 2472.6619,-391.5696 2476.5528,-385.7506"/>
</g>
<!-- Node46&#45;&gt;Node43 -->
<g id="edge72" class="edge">
<title>Node46&#45;&gt;Node43</title>
<path fill="none" stroke="#191970" d="M1919.2542,-548.4986C1919.4131,-532.6344 1917.4684,-500.5681 1900.8505,-481 1873.763,-449.1036 1846.3583,-471.3506 1813.8505,-445 1796.2056,-430.6972 1782.3338,-408.4048 1773.9197,-392.5163"/>
<polygon fill="#191970" stroke="#191970" points="1776.8228,-390.5001 1769.1938,-383.1483 1770.5731,-393.653 1776.8228,-390.5001"/>
</g>
<!-- Node47 -->
<g id="node33" class="node">
<title>Node47</title>
<g id="a_node33"><a xlink:href="Indices_8h.html" target="_top" xlink:title="iDynTree/Model/Indices.h">
<polygon fill="none" stroke="#000000" points="2109.8505,-364 2109.8505,-383 2247.8505,-383 2247.8505,-364 2109.8505,-364"/>
<text text-anchor="middle" x="2178.8505" y="-371" font-family="FreeSans.ttf" font-size="10.00" fill="#000000">iDynTree/Model/Indices.h</text>
</a>
</g>
</g>
<!-- Node46&#45;&gt;Node47 -->
<g id="edge76" class="edge">
<title>Node46&#45;&gt;Node47</title>
<path fill="none" stroke="#191970" d="M2006.573,-550.6657C2133.9597,-537.9909 2360.3797,-507.1494 2409.8505,-445 2415.3864,-438.0454 2415.4102,-431.9356 2409.8505,-425 2390.9013,-401.3609 2317.13,-387.867 2257.985,-380.6742"/>
<polygon fill="#191970" stroke="#191970" points="2258.2203,-377.1779 2247.8805,-379.4884 2257.4044,-384.1302 2258.2203,-377.1779"/>
</g>
<!-- Node48 -->
<g id="node34" class="node">
<title>Node48</title>
<g id="a_node34"><a xlink:href="FreeFloatingMatrices_8h.html" target="_top" xlink:title="iDynTree/Model/FreeFloating\lMatrices.h">
<polygon fill="none" stroke="#000000" points="2382.8505,-481.5 2382.8505,-511.5 2536.8505,-511.5 2536.8505,-481.5 2382.8505,-481.5"/>
<text text-anchor="start" x="2390.8505" y="-499.5" font-family="FreeSans.ttf" font-size="10.00" fill="#000000">iDynTree/Model/FreeFloating</text>
<text text-anchor="middle" x="2459.8505" y="-488.5" font-family="FreeSans.ttf" font-size="10.00" fill="#000000">Matrices.h</text>
</a>
</g>
</g>
<!-- Node46&#45;&gt;Node48 -->
<g id="edge78" class="edge">
<title>Node46&#45;&gt;Node48</title>
<path fill="none" stroke="#191970" d="M2006.586,-550.7795C2097.4304,-542.8937 2243.3746,-529.0799 2368.8505,-512 2369.9621,-511.8487 2371.0809,-511.6941 2372.2058,-511.5364"/>
<polygon fill="#191970" stroke="#191970" points="2373.0673,-514.948 2382.4589,-510.044 2372.059,-508.021 2373.0673,-514.948"/>
</g>
<!-- Node49 -->
<g id="node35" class="node">
<title>Node49</title>
<g id="a_node35"><a xlink:href="LinkState_8h.html" target="_top" xlink:title="iDynTree/Model/LinkState.h">
<polygon fill="none" stroke="#ff0000" points="1742.3505,-487 1742.3505,-506 1891.3505,-506 1891.3505,-487 1742.3505,-487"/>
<text text-anchor="middle" x="1816.8505" y="-494" font-family="FreeSans.ttf" font-size="10.00" fill="#000000">iDynTree/Model/LinkState.h</text>
</a>
</g>
</g>
<!-- Node46&#45;&gt;Node49 -->
<g id="edge80" class="edge">
<title>Node46&#45;&gt;Node49</title>
<path fill="none" stroke="#191970" d="M1902.913,-548.3906C1886.4454,-538.4616 1860.5247,-522.833 1841.4301,-511.3201"/>
<polygon fill="#191970" stroke="#191970" points="1843.0472,-508.2081 1832.6761,-506.0419 1839.4327,-514.2027 1843.0472,-508.2081"/>
</g>
<!-- Node47&#45;&gt;Node15 -->
<g id="edge77" class="edge">
<title>Node47&#45;&gt;Node15</title>
<path fill="none" stroke="#191970" d="M2153.0709,-363.9521C2110.6679,-346.3852 2030.8505,-304.6634 2030.8505,-239.5 2030.8505,-239.5 2030.8505,-239.5 2030.8505,-178 2030.8505,-99.2325 1747.4831,-74.1095 1650.188,-67.805"/>
<polygon fill="#191970" stroke="#191970" points="1650.2536,-64.3024 1640.0552,-67.1735 1649.8181,-71.2888 1650.2536,-64.3024"/>
</g>
<!-- Node48&#45;&gt;Node19 -->
<g id="edge79" class="edge">
<title>Node48&#45;&gt;Node19</title>
<path fill="none" stroke="#191970" d="M2478.9791,-481.2981C2494.132,-467.2806 2511.4368,-445.5883 2502.8505,-425 2496.9267,-410.7957 2484.9675,-398.5036 2474.0103,-389.4942"/>
<polygon fill="#191970" stroke="#191970" points="2475.9978,-386.607 2465.9431,-383.2672 2471.7205,-392.1482 2475.9978,-386.607"/>
</g>
<!-- Node49&#45;&gt;Node20 -->
<g id="edge82" class="edge">
<title>Node49&#45;&gt;Node20</title>
<path fill="none" stroke="#191970" d="M1749.748,-486.9745C1732.2336,-484.7435 1713.359,-482.5642 1695.8505,-481 1382.0273,-452.9627 1302.1172,-467.5294 987.8505,-445 975.9651,-444.1479 963.3563,-443.1061 951.1082,-442.0203"/>
<polygon fill="#191970" stroke="#191970" points="951.2026,-438.5147 940.9283,-441.1012 950.573,-445.4863 951.2026,-438.5147"/>
</g>
<!-- Node49&#45;&gt;Node38 -->
<g id="edge81" class="edge">
<title>Node49&#45;&gt;Node38</title>
<path fill="none" stroke="#191970" d="M1742.9509,-486.9721C1727.396,-484.9838 1711.0855,-482.9117 1695.8505,-481 1630.7602,-472.8323 1446.3169,-494.1338 1402.8505,-445 1389.3497,-429.7388 1401.7612,-407.0592 1413.8557,-391.3524"/>
<polygon fill="#191970" stroke="#191970" points="1416.7204,-393.3795 1420.3757,-383.4351 1411.3169,-388.9295 1416.7204,-393.3795"/>
</g>
<!-- Node49&#45;&gt;Node43 -->
<g id="edge84" class="edge">
<title>Node49&#45;&gt;Node43</title>
<path fill="none" stroke="#191970" d="M1806.9116,-486.8386C1797.588,-477.1591 1784.0351,-461.381 1776.8505,-445 1769.5989,-428.4661 1766.7062,-408.0136 1765.5644,-393.2242"/>
<polygon fill="#191970" stroke="#191970" points="1769.0552,-392.961 1764.9893,-383.1774 1762.0666,-393.3611 1769.0552,-392.961"/>
</g>
<!-- Node49&#45;&gt;Node47 -->
<g id="edge83" class="edge">
<title>Node49&#45;&gt;Node47</title>
<path fill="none" stroke="#191970" d="M1869.8316,-486.9154C1913.4829,-478.2564 1976.6322,-463.9644 2029.8505,-445 2074.5303,-429.0784 2123.6383,-403.9044 2152.8242,-388.0668"/>
<polygon fill="#191970" stroke="#191970" points="2154.8356,-390.9557 2161.9231,-383.0805 2151.4715,-384.817 2154.8356,-390.9557"/>
</g>
<!-- Node57&#45;&gt;Node38 -->
<g id="edge90" class="edge">
<title>Node57&#45;&gt;Node38</title>
<path fill="none" stroke="#191970" d="M1965.2637,-488.0945C1944.6361,-485.6325 1921.8198,-483.0532 1900.8505,-481 1849.3861,-475.961 1473.7821,-481.1944 1436.8505,-445 1423.5333,-431.9485 1423.3829,-409.7566 1425.5626,-393.551"/>
<polygon fill="#191970" stroke="#191970" points="1429.0499,-393.9251 1427.3107,-383.474 1422.1529,-392.7286 1429.0499,-393.9251"/>
</g>
<!-- Node57&#45;&gt;Node43 -->
<g id="edge99" class="edge">
<title>Node57&#45;&gt;Node43</title>
<path fill="none" stroke="#191970" d="M1974.6148,-486.9939C1937.2711,-479.2329 1888.3151,-466.0375 1848.8505,-445 1822.1278,-430.7548 1796.3691,-406.8285 1780.5788,-390.6156"/>
<polygon fill="#191970" stroke="#191970" points="1783.0964,-388.184 1773.6675,-383.3523 1778.0253,-393.0094 1783.0964,-388.184"/>
</g>
<!-- Node57&#45;&gt;Node47 -->
<g id="edge91" class="edge">
<title>Node57&#45;&gt;Node47</title>
<path fill="none" stroke="#191970" d="M2098.7267,-491.676C2198.0122,-483.8261 2374.8157,-466.9345 2393.8505,-445 2399.6765,-438.2865 2399.3554,-431.9792 2393.8505,-425 2376.8998,-403.5095 2312.1037,-389.9798 2258.0348,-382.211"/>
<polygon fill="#191970" stroke="#191970" points="2258.4645,-378.7372 2248.0778,-380.8268 2257.5006,-385.6705 2258.4645,-378.7372"/>
</g>
<!-- Node58 -->
<g id="node37" class="node">
<title>Node58</title>
<g id="a_node37"><a xlink:href="IJoint_8h.html" target="_top" xlink:title="iDynTree/Model/IJoint.h">
<polygon fill="none" stroke="#000000" points="2114.8505,-425.5 2114.8505,-444.5 2242.8505,-444.5 2242.8505,-425.5 2114.8505,-425.5"/>
<text text-anchor="middle" x="2178.8505" y="-432.5" font-family="FreeSans.ttf" font-size="10.00" fill="#000000">iDynTree/Model/IJoint.h</text>
</a>
</g>
</g>
<!-- Node57&#45;&gt;Node58 -->
<g id="edge86" class="edge">
<title>Node57&#45;&gt;Node58</title>
<path fill="none" stroke="#191970" d="M2054.8193,-486.8906C2079.523,-476.5554 2118.9875,-460.0447 2146.7533,-448.4284"/>
<polygon fill="#191970" stroke="#191970" points="2148.1687,-451.6303 2156.0431,-444.5419 2145.467,-445.1727 2148.1687,-451.6303"/>
</g>
<!-- Node59 -->
<g id="node38" class="node">
<title>Node59</title>
<g id="a_node38"><a xlink:href="Link_8h.html" target="_top" xlink:title="iDynTree/Model/Link.h">
<polygon fill="none" stroke="#ff0000" points="2260.8505,-425.5 2260.8505,-444.5 2384.8505,-444.5 2384.8505,-425.5 2260.8505,-425.5"/>
<text text-anchor="middle" x="2322.8505" y="-432.5" font-family="FreeSans.ttf" font-size="10.00" fill="#000000">iDynTree/Model/Link.h</text>
</a>
</g>
</g>
<!-- Node57&#45;&gt;Node59 -->
<g id="edge88" class="edge">
<title>Node57&#45;&gt;Node59</title>
<path fill="none" stroke="#191970" d="M2077,-486.9581C2128.3984,-476.0956 2212.371,-458.3488 2267.6263,-446.6711"/>
<polygon fill="#191970" stroke="#191970" points="2268.535,-450.0565 2277.5952,-444.5643 2267.0875,-443.2077 2268.535,-450.0565"/>
</g>
<!-- Node64 -->
<g id="node39" class="node">
<title>Node64</title>
<g id="a_node39"><a xlink:href="SolidShapes_8h.html" target="_top" xlink:title="iDynTree/Model/SolidShapes.h">
<polygon fill="none" stroke="#000000" points="1857.3505,-425.5 1857.3505,-444.5 2020.3505,-444.5 2020.3505,-425.5 1857.3505,-425.5"/>
<text text-anchor="middle" x="1938.8505" y="-432.5" font-family="FreeSans.ttf" font-size="10.00" fill="#000000">iDynTree/Model/SolidShapes.h</text>
</a>
</g>
</g>
<!-- Node57&#45;&gt;Node64 -->
<g id="edge92" class="edge">
<title>Node57&#45;&gt;Node64</title>
<path fill="none" stroke="#191970" d="M2017.3193,-486.8906C2002.4412,-477.0519 1979.1001,-461.6167 1961.7377,-450.1351"/>
<polygon fill="#191970" stroke="#191970" points="1963.5515,-447.1385 1953.2797,-444.5419 1959.6903,-452.9773 1963.5515,-447.1385"/>
</g>
<!-- Node65 -->
<g id="node40" class="node">
<title>Node65</title>
<polygon fill="none" stroke="#bfbfbf" points="1969.3505,-364 1969.3505,-383 2018.3505,-383 2018.3505,-364 1969.3505,-364"/>
<text text-anchor="middle" x="1993.8505" y="-371" font-family="FreeSans.ttf" font-size="10.00" fill="#000000">cstdlib</text>
</g>
<!-- Node57&#45;&gt;Node65 -->
<g id="edge98" class="edge">
<title>Node57&#45;&gt;Node65</title>
<path fill="none" stroke="#191970" d="M2033.28,-486.9486C2035.0018,-472.9507 2036.8611,-446.2247 2029.8505,-425 2025.7117,-412.4695 2017.446,-400.2818 2009.8777,-390.9109"/>
<polygon fill="#191970" stroke="#191970" points="2012.4187,-388.4969 2003.2617,-383.1678 2007.0968,-393.0442 2012.4187,-388.4969"/>
</g>
<!-- Node58&#45;&gt;Node47 -->
<g id="edge87" class="edge">
<title>Node58&#45;&gt;Node47</title>
<path fill="none" stroke="#191970" d="M2178.8505,-425.3906C2178.8505,-416.8657 2178.8505,-404.1392 2178.8505,-393.4235"/>
<polygon fill="#191970" stroke="#191970" points="2182.3506,-393.2448 2178.8505,-383.2449 2175.3506,-393.2449 2182.3506,-393.2448"/>
</g>
<!-- Node59&#45;&gt;Node47 -->
<g id="edge89" class="edge">
<title>Node59&#45;&gt;Node47</title>
<path fill="none" stroke="#191970" d="M2300.3505,-425.3906C2276.2567,-415.1005 2237.8292,-398.6888 2210.6497,-387.0809"/>
<polygon fill="#191970" stroke="#191970" points="2211.7636,-383.7508 2201.1925,-383.0419 2209.0143,-390.1883 2211.7636,-383.7508"/>
</g>
<!-- Node64&#45;&gt;Node15 -->
<g id="edge94" class="edge">
<title>Node64&#45;&gt;Node15</title>
<path fill="none" stroke="#191970" d="M1924.9805,-425.4752C1898.8328,-406.2687 1844.8505,-360.1233 1844.8505,-306.5 1844.8505,-306.5 1844.8505,-306.5 1844.8505,-178 1844.8505,-135.019 1712.3158,-92.3302 1649.7867,-74.5817"/>
<polygon fill="#191970" stroke="#191970" points="1650.6027,-71.1757 1640.0296,-71.8537 1648.7178,-77.9171 1650.6027,-71.1757"/>
</g>
<!-- Node64&#45;&gt;Node38 -->
<g id="edge96" class="edge">
<title>Node64&#45;&gt;Node38</title>
<path fill="none" stroke="#191970" d="M1860.1565,-425.4918C1765.9617,-414.1107 1608.9338,-395.1378 1512.8651,-383.5302"/>
<polygon fill="#191970" stroke="#191970" points="1513.2479,-380.0511 1502.9002,-382.3262 1512.4082,-387.0006 1513.2479,-380.0511"/>
</g>
<!-- Node64&#45;&gt;Node43 -->
<g id="edge95" class="edge">
<title>Node64&#45;&gt;Node43</title>
<path fill="none" stroke="#191970" d="M1911.663,-425.3906C1880.9994,-414.5526 1831.1224,-396.9237 1798.1486,-385.2692"/>
<polygon fill="#191970" stroke="#191970" points="1799.0928,-381.8907 1788.498,-381.8582 1796.7601,-388.4906 1799.0928,-381.8907"/>
</g>
<!-- Node64&#45;&gt;Node47 -->
<g id="edge97" class="edge">
<title>Node64&#45;&gt;Node47</title>
<path fill="none" stroke="#191970" d="M1976.0872,-425.4581C2017.9499,-414.7308 2086.0134,-397.2895 2131.592,-385.61"/>
<polygon fill="#191970" stroke="#191970" points="2132.7083,-388.9371 2141.5265,-383.0643 2130.9707,-382.1562 2132.7083,-388.9371"/>
</g>
<!-- Node64&#45;&gt;Node65 -->
<g id="edge93" class="edge">
<title>Node64&#45;&gt;Node65</title>
<path fill="none" stroke="#191970" d="M1947.4443,-425.3906C1955.7102,-416.1478 1968.3931,-401.966 1978.4122,-390.7628"/>
<polygon fill="#191970" stroke="#191970" points="1981.0783,-393.0321 1985.1356,-383.2449 1975.8605,-388.3657 1981.0783,-393.0321"/>
</g>
<!-- Node68&#45;&gt;Node38 -->
<g id="edge109" class="edge">
<title>Node68&#45;&gt;Node38</title>
<path fill="none" stroke="#191970" d="M1155.1685,-548.3002C1154.018,-523.781 1154.6378,-458.8689 1189.8505,-425 1212.1343,-403.5667 1286.2643,-389.8849 1346.3063,-382.0534"/>
<polygon fill="#191970" stroke="#191970" points="1347.0919,-385.4819 1356.5726,-380.7525 1346.2119,-378.5374 1347.0919,-385.4819"/>
</g>
<!-- Node68&#45;&gt;Node44 -->
<g id="edge110" class="edge">
<title>Node68&#45;&gt;Node44</title>
<path fill="none" stroke="#191970" d="M1218.4211,-549.4487C1298.7628,-538.4687 1438.268,-519.4029 1526.1326,-507.3948"/>
<polygon fill="#191970" stroke="#191970" points="1526.6209,-510.8607 1536.0549,-506.0387 1525.673,-503.9251 1526.6209,-510.8607"/>
</g>
<!-- Node70&#45;&gt;Node3 -->
<g id="edge115" class="edge">
<title>Node70&#45;&gt;Node3</title>
<path fill="none" stroke="#191970" d="M601.2548,-428.9455C429.6079,-414.4034 48.399,-372.516 109.8505,-291 198.3693,-173.5791 654.3344,-136.532 851.1837,-125.9013"/>
<polygon fill="#191970" stroke="#191970" points="851.4122,-129.3942 861.2132,-125.3705 851.0422,-122.404 851.4122,-129.3942"/>
</g>
<!-- Node70&#45;&gt;Node4 -->
<g id="edge129" class="edge">
<title>Node70&#45;&gt;Node4</title>
<path fill="none" stroke="#191970" d="M601.272,-430.8494C465.8014,-423.4241 203.3642,-406.9547 164.8505,-389 122.196,-369.1149 14.8505,-286.562 14.8505,-239.5 14.8505,-239.5 14.8505,-239.5 14.8505,-178 14.8505,-146.7875 13.9083,-130.7645 38.8505,-112 86.4223,-76.2108 481.4464,-68.2591 644.6857,-66.4983"/>
<polygon fill="#191970" stroke="#191970" points="645.1333,-69.994 655.0967,-66.3911 645.0611,-62.9944 645.1333,-69.994"/>
</g>
<!-- Node70&#45;&gt;Node18 -->
<g id="edge114" class="edge">
<title>Node70&#45;&gt;Node18</title>
<path fill="none" stroke="#191970" d="M762.6895,-425.5168C836.3196,-416.6985 948.0104,-402.8694 1044.8505,-389 1054.3102,-387.6452 1064.2761,-386.1409 1074.0734,-384.6174"/>
<polygon fill="#191970" stroke="#191970" points="1074.8578,-388.0372 1084.1939,-383.0282 1073.772,-381.1219 1074.8578,-388.0372"/>
</g>
<!-- Node70&#45;&gt;Node19 -->
<g id="edge116" class="edge">
<title>Node70&#45;&gt;Node19</title>
<path fill="none" stroke="#191970" d="M762.3796,-428.0532C778.1121,-426.8813 794.4908,-425.7905 809.8505,-425 1452.3104,-391.9354 1614.4201,-422.6303 2256.8505,-389 2289.4284,-387.2946 2325.0279,-384.6708 2356.7358,-382.064"/>
<polygon fill="#191970" stroke="#191970" points="2357.2098,-385.5367 2366.885,-381.2194 2356.6292,-378.5608 2357.2098,-385.5367"/>
</g>
<!-- Node70&#45;&gt;Node21 -->
<g id="edge118" class="edge">
<title>Node70&#45;&gt;Node21</title>
<path fill="none" stroke="#191970" d="M702.4755,-425.3906C721.0845,-416.7205 749.0212,-403.7046 772.259,-392.8779"/>
<polygon fill="#191970" stroke="#191970" points="773.9734,-395.9404 781.5597,-388.5446 771.0171,-389.5953 773.9734,-395.9404"/>
</g>
<!-- Node70&#45;&gt;Node38 -->
<g id="edge128" class="edge">
<title>Node70&#45;&gt;Node38</title>
<path fill="none" stroke="#191970" d="M762.6103,-428.36C905.5639,-416.6065 1201.6943,-392.2588 1346.4858,-380.3542"/>
<polygon fill="#191970" stroke="#191970" points="1346.9655,-383.8267 1356.645,-379.5189 1346.3918,-376.8502 1346.9655,-383.8267"/>
</g>
<!-- Node70&#45;&gt;Node27 -->
<g id="edge117" class="edge">
<title>Node70&#45;&gt;Node27</title>
<path fill="none" stroke="#191970" d="M729.2835,-425.4248C839.86,-402.8098 1107.9582,-346.1765 1141.8505,-322 1206.7571,-275.7 1278.3471,-234.1558 1233.8505,-168 1223.2279,-152.2067 1206.1399,-141.833 1188.4342,-135.0202"/>
<polygon fill="#191970" stroke="#191970" points="1189.1661,-131.5691 1178.5713,-131.5898 1186.8665,-138.1807 1189.1661,-131.5691"/>
</g>
<!-- Node71 -->
<g id="node46" class="node">
<title>Node71</title>
<polygon fill="none" stroke="#bfbfbf" points="14.3505,-364 14.3505,-383 91.3505,-383 91.3505,-364 14.3505,-364"/>
<text text-anchor="middle" x="52.8505" y="-371" font-family="FreeSans.ttf" font-size="10.00" fill="#000000">Eigen/Dense</text>
</g>
<!-- Node70&#45;&gt;Node71 -->
<g id="edge113" class="edge">
<title>Node70&#45;&gt;Node71</title>
<path fill="none" stroke="#191970" d="M601.1493,-430.6022C465.7593,-422.8806 198.5905,-406.0776 105.8505,-389 101.0922,-388.1238 96.1501,-386.9906 91.2817,-385.7359"/>
<polygon fill="#191970" stroke="#191970" points="92.0451,-382.3158 81.4745,-383.033 90.1852,-389.0642 92.0451,-382.3158"/>
</g>
<!-- Node52 -->
<g id="node47" class="node">
<title>Node52</title>
<g id="a_node47"><a xlink:href="SpatialForceVector_8h.html" target="_top" xlink:title="iDynTree/Core/SpatialForce\lVector.h">
<polygon fill="none" stroke="#000000" points="374.8505,-358.5 374.8505,-388.5 522.8505,-388.5 522.8505,-358.5 374.8505,-358.5"/>
<text text-anchor="start" x="382.8505" y="-376.5" font-family="FreeSans.ttf" font-size="10.00" fill="#000000">iDynTree/Core/SpatialForce</text>
<text text-anchor="middle" x="448.8505" y="-365.5" font-family="FreeSans.ttf" font-size="10.00" fill="#000000">Vector.h</text>
</a>
</g>
</g>
<!-- Node70&#45;&gt;Node52 -->
<g id="edge119" class="edge">
<title>Node70&#45;&gt;Node52</title>
<path fill="none" stroke="#191970" d="M645.6999,-425.4581C611.0729,-416.3183 557.981,-402.3048 515.6574,-391.1336"/>
<polygon fill="#191970" stroke="#191970" points="516.539,-387.7465 505.9769,-388.5784 514.7525,-394.5147 516.539,-387.7465"/>
</g>
<!-- Node52&#45;&gt;Node3 -->
<g id="edge120" class="edge">
<title>Node52&#45;&gt;Node3</title>
<path fill="none" stroke="#191970" d="M382.6169,-358.4777C340.6734,-345.5057 297.8134,-323.6408 317.8505,-291 425.8682,-115.0372 570.2972,-237.0821 770.8505,-188 822.4742,-175.366 879.5209,-151.1257 912.9426,-135.8003"/>
<polygon fill="#191970" stroke="#191970" points="914.523,-138.9255 922.1215,-131.5422 911.5771,-132.5755 914.523,-138.9255"/>
</g>
<!-- Node52&#45;&gt;Node30 -->
<g id="edge127" class="edge">
<title>Node52&#45;&gt;Node30</title>
<path fill="none" stroke="#191970" d="M458.7742,-358.389C473.9588,-335.267 503.0945,-290.9012 521.1615,-263.3901"/>
<polygon fill="#191970" stroke="#191970" points="524.2643,-265.0414 526.8281,-254.7614 518.4132,-261.1988 524.2643,-265.0414"/>
</g>
<!-- Node52&#45;&gt;Node32 -->
<g id="edge126" class="edge">
<title>Node52&#45;&gt;Node32</title>
<path fill="none" stroke="#191970" d="M523.0211,-365.236C612.7552,-355.1991 768.4056,-337.6649 901.8505,-322 914.7833,-320.4818 928.4478,-318.8533 941.8437,-317.2429"/>
<polygon fill="#191970" stroke="#191970" points="942.5092,-320.6881 952.0188,-316.0171 941.6719,-313.7384 942.5092,-320.6881"/>
</g>
<!-- Node53 -->
<g id="node48" class="node">
<title>Node53</title>
<g id="a_node48"><a xlink:href="LinearForceVector3_8h.html" target="_top" xlink:title="iDynTree/Core/LinearForce\lVector3.h">
<polygon fill="none" stroke="#ff0000" points="326.8505,-291.5 326.8505,-321.5 470.8505,-321.5 470.8505,-291.5 326.8505,-291.5"/>
<text text-anchor="start" x="334.8505" y="-309.5" font-family="FreeSans.ttf" font-size="10.00" fill="#000000">iDynTree/Core/LinearForce</text>
<text text-anchor="middle" x="398.8505" y="-298.5" font-family="FreeSans.ttf" font-size="10.00" fill="#000000">Vector3.h</text>
</a>
</g>
</g>
<!-- Node52&#45;&gt;Node53 -->
<g id="edge121" class="edge">
<title>Node52&#45;&gt;Node53</title>
<path fill="none" stroke="#191970" d="M437.5048,-358.2967C431.2398,-349.9016 423.3246,-339.2952 416.2907,-329.8698"/>
<polygon fill="#191970" stroke="#191970" points="418.9373,-327.5642 410.1514,-321.6432 413.3273,-331.7508 418.9373,-327.5642"/>
</g>
<!-- Node55 -->
<g id="node49" class="node">
<title>Node55</title>
<g id="a_node49"><a xlink:href="AngularForceVector3_8h.html" target="_top" xlink:title="iDynTree/Core/AngularForce\lVector3.h">
<polygon fill="none" stroke="#ff0000" points="118.8505,-291.5 118.8505,-321.5 270.8505,-321.5 270.8505,-291.5 118.8505,-291.5"/>
<text text-anchor="start" x="126.8505" y="-309.5" font-family="FreeSans.ttf" font-size="10.00" fill="#000000">iDynTree/Core/AngularForce</text>
<text text-anchor="middle" x="194.8505" y="-298.5" font-family="FreeSans.ttf" font-size="10.00" fill="#000000">Vector3.h</text>
</a>
</g>
</g>
<!-- Node52&#45;&gt;Node55 -->
<g id="edge123" class="edge">
<title>Node52&#45;&gt;Node55</title>
<path fill="none" stroke="#191970" d="M391.848,-358.4639C353.3377,-348.3057 302.3399,-334.8535 261.8815,-324.1814"/>
<polygon fill="#191970" stroke="#191970" points="262.6637,-320.7681 252.1017,-321.6017 260.8783,-327.5366 262.6637,-320.7681"/>
</g>
<!-- Node53&#45;&gt;Node30 -->
<g id="edge122" class="edge">
<title>Node53&#45;&gt;Node30</title>
<path fill="none" stroke="#191970" d="M429.8204,-291.4639C449.4798,-281.9191 475.129,-269.4663 496.3898,-259.144"/>
<polygon fill="#191970" stroke="#191970" points="498.0394,-262.2339 505.5065,-254.7177 494.9821,-255.9368 498.0394,-262.2339"/>
</g>
<!-- Node55&#45;&gt;Node4 -->
<g id="edge125" class="edge">
<title>Node55&#45;&gt;Node4</title>
<path fill="none" stroke="#191970" d="M220.2655,-291.3738C249.5892,-274.1702 299.4762,-245.6624 343.8505,-224 465.0255,-164.8454 613.879,-105.2629 680.1645,-79.3835"/>
<polygon fill="#191970" stroke="#191970" points="681.6563,-82.5586 689.7051,-75.669 679.1166,-76.0356 681.6563,-82.5586"/>
</g>
<!-- Node55&#45;&gt;Node30 -->
<g id="edge124" class="edge">
<title>Node55&#45;&gt;Node30</title>
<path fill="none" stroke="#191970" d="M271.1763,-291.5473C324.1809,-281.1634 394.9066,-267.3077 450.0583,-256.5032"/>
<polygon fill="#191970" stroke="#191970" points="451.0267,-259.88 460.1673,-254.5227 449.6809,-253.0106 451.0267,-259.88"/>
</g>
</g>
</svg>
