<?xml version="1.0" encoding="UTF-8" standalone="no"?>
<!DOCTYPE svg PUBLIC "-//W3C//DTD SVG 1.1//EN"
 "http://www.w3.org/Graphics/SVG/1.1/DTD/svg11.dtd">
<!-- Generated by graphviz version 2.40.1 (20161225.0304)
 -->
<!-- Title: InverseKinematicsData.cpp Pages: 1 -->
<svg width="2958pt" height="621pt"
 viewBox="0.00 0.00 2957.95 621.00" xmlns="http://www.w3.org/2000/svg" xmlns:xlink="http://www.w3.org/1999/xlink">
<g id="graph0" class="graph" transform="scale(1 1) rotate(0) translate(4 617)">
<title>InverseKinematicsData.cpp</title>
<!-- Node0 -->
<g id="node1" class="node">
<title>Node0</title>
<polygon fill="#bfbfbf" stroke="#000000" points="650.5,-593.5 650.5,-612.5 801.5,-612.5 801.5,-593.5 650.5,-593.5"/>
<text text-anchor="middle" x="726" y="-600.5" font-family="FreeSans.ttf" font-size="10.00" fill="#000000">InverseKinematicsData.cpp</text>
</g>
<!-- Node1 -->
<g id="node2" class="node">
<title>Node1</title>
<g id="a_node2"><a xlink:href="InverseKinematicsData_8h.html" target="_top" xlink:title="InverseKinematicsData.h">
<polygon fill="none" stroke="#000000" points="1144,-481.5 1144,-500.5 1284,-500.5 1284,-481.5 1144,-481.5"/>
<text text-anchor="middle" x="1214" y="-488.5" font-family="FreeSans.ttf" font-size="10.00" fill="#000000">InverseKinematicsData.h</text>
</a>
</g>
</g>
<!-- Node0&#45;&gt;Node1 -->
<g id="edge1" class="edge">
<title>Node0&#45;&gt;Node1</title>
<path fill="none" stroke="#191970" d="M767.6066,-593.4509C856.6523,-573.0142 1065.4698,-525.0889 1162.6149,-502.7933"/>
<polygon fill="#191970" stroke="#191970" points="1163.5351,-506.1732 1172.4987,-500.5249 1161.9692,-499.3506 1163.5351,-506.1732"/>
</g>
<!-- Node2 -->
<g id="node3" class="node">
<title>Node2</title>
<g id="a_node3"><a xlink:href="InverseKinematicsNLP_8h.html" target="_top" xlink:title="InverseKinematicsNLP.h">
<polygon fill="none" stroke="#000000" points="757,-364 757,-383 891,-383 891,-364 757,-364"/>
<text text-anchor="middle" x="824" y="-371" font-family="FreeSans.ttf" font-size="10.00" fill="#000000">InverseKinematicsNLP.h</text>
</a>
</g>
</g>
<!-- Node0&#45;&gt;Node2 -->
<g id="edge101" class="edge">
<title>Node0&#45;&gt;Node2</title>
<path fill="none" stroke="#191970" d="M730.0862,-593.4309C744.9045,-558.7288 795.9918,-439.0906 815.935,-392.3868"/>
<polygon fill="#191970" stroke="#191970" points="819.188,-393.6811 819.8964,-383.11 812.7504,-390.9321 819.188,-393.6811"/>
</g>
<!-- Node8 -->
<g id="node9" class="node">
<title>Node8</title>
<polygon fill="none" stroke="#bfbfbf" points="727,-.5 727,-19.5 779,-19.5 779,-.5 727,-.5"/>
<text text-anchor="middle" x="753" y="-7.5" font-family="FreeSans.ttf" font-size="10.00" fill="#000000">cassert</text>
</g>
<!-- Node0&#45;&gt;Node8 -->
<g id="edge136" class="edge">
<title>Node0&#45;&gt;Node8</title>
<path fill="none" stroke="#191970" d="M663.8302,-593.4678C507.4226,-567.7436 110,-490.8353 110,-373.5 110,-373.5 110,-373.5 110,-122 110,-59.9422 580.8542,-22.079 716.7127,-12.4458"/>
<polygon fill="#191970" stroke="#191970" points="717.2663,-15.9157 726.9973,-11.7253 716.7771,-8.9328 717.2663,-15.9157"/>
</g>
<!-- Node21 -->
<g id="node15" class="node">
<title>Node21</title>
<g id="a_node15"><a xlink:href="Twist_8h.html" target="_top" xlink:title="iDynTree/Core/Twist.h">
<polygon fill="none" stroke="#000000" points="462,-302.5 462,-321.5 584,-321.5 584,-302.5 462,-302.5"/>
<text text-anchor="middle" x="523" y="-309.5" font-family="FreeSans.ttf" font-size="10.00" fill="#000000">iDynTree/Core/Twist.h</text>
</a>
</g>
</g>
<!-- Node0&#45;&gt;Node21 -->
<g id="edge110" class="edge">
<title>Node0&#45;&gt;Node21</title>
<path fill="none" stroke="#191970" d="M689.205,-593.4434C644.2202,-579.2795 574,-548.0354 574,-491 574,-491 574,-491 574,-435 574,-395.1773 550.9066,-353.2532 535.7995,-330.088"/>
<polygon fill="#191970" stroke="#191970" points="538.5886,-327.9641 530.0913,-321.6359 532.7876,-331.8819 538.5886,-327.9641"/>
</g>
<!-- Node50 -->
<g id="node34" class="node">
<title>Node50</title>
<g id="a_node34"><a xlink:href="SpatialAcc_8h.html" target="_top" xlink:title="iDynTree/Core/SpatialAcc.h">
<polygon fill="none" stroke="#000000" points="602,-302.5 602,-321.5 750,-321.5 750,-302.5 602,-302.5"/>
<text text-anchor="middle" x="676" y="-309.5" font-family="FreeSans.ttf" font-size="10.00" fill="#000000">iDynTree/Core/SpatialAcc.h</text>
</a>
</g>
</g>
<!-- Node0&#45;&gt;Node50 -->
<g id="edge113" class="edge">
<title>Node0&#45;&gt;Node50</title>
<path fill="none" stroke="#191970" d="M720.393,-593.4834C709.8226,-574.6141 688,-530.8343 688,-491 688,-491 688,-491 688,-435 688,-398.3261 682.6502,-355.7908 679.0947,-331.5711"/>
<polygon fill="#191970" stroke="#191970" points="682.5327,-330.8983 677.5688,-321.5382 675.6123,-331.9508 682.5327,-330.8983"/>
</g>
<!-- Node68 -->
<g id="node42" class="node">
<title>Node68</title>
<g id="a_node42"><a xlink:href="TransformConstraint_8h.html" target="_top" xlink:title="TransformConstraint.h">
<polygon fill="none" stroke="#000000" points="1534.5,-481.5 1534.5,-500.5 1659.5,-500.5 1659.5,-481.5 1534.5,-481.5"/>
<text text-anchor="middle" x="1597" y="-488.5" font-family="FreeSans.ttf" font-size="10.00" fill="#000000">TransformConstraint.h</text>
</a>
</g>
</g>
<!-- Node0&#45;&gt;Node68 -->
<g id="edge102" class="edge">
<title>Node0&#45;&gt;Node68</title>
<path fill="none" stroke="#191970" d="M799.8852,-593.4993C964.7431,-572.3005 1360.9455,-521.3537 1524.4993,-500.3227"/>
<polygon fill="#191970" stroke="#191970" points="1524.9902,-503.7885 1534.4621,-499.0416 1524.0974,-496.8457 1524.9902,-503.7885"/>
</g>
<!-- Node69 -->
<g id="node43" class="node">
<title>Node69</title>
<g id="a_node43"><a xlink:href="Axis_8h.html" target="_top" xlink:title="iDynTree/Core/Axis.h">
<polygon fill="none" stroke="#000000" points="2396,-302.5 2396,-321.5 2514,-321.5 2514,-302.5 2396,-302.5"/>
<text text-anchor="middle" x="2455" y="-309.5" font-family="FreeSans.ttf" font-size="10.00" fill="#000000">iDynTree/Core/Axis.h</text>
</a>
</g>
</g>
<!-- Node0&#45;&gt;Node69 -->
<g id="edge105" class="edge">
<title>Node0&#45;&gt;Node69</title>
<path fill="none" stroke="#191970" d="M801.5606,-602.6453C1058.2222,-601.117 1895.3965,-593.3956 2162,-557 2415.6661,-522.3705 2587.5699,-612.1882 2713,-389 2719.7501,-376.989 2721.8461,-368.5628 2713,-358 2689.3472,-329.7571 2592.3822,-318.8387 2524.319,-314.6282"/>
<polygon fill="#191970" stroke="#191970" points="2524.2661,-311.1193 2514.0793,-314.0314 2523.8587,-318.1074 2524.2661,-311.1193"/>
</g>
<!-- Node70 -->
<g id="node44" class="node">
<title>Node70</title>
<g id="a_node44"><a xlink:href="ClassicalAcc_8h.html" target="_top" xlink:title="iDynTree/Core/ClassicalAcc.h">
<polygon fill="none" stroke="#000000" points="0,-537.5 0,-556.5 158,-556.5 158,-537.5 0,-537.5"/>
<text text-anchor="middle" x="79" y="-544.5" font-family="FreeSans.ttf" font-size="10.00" fill="#000000">iDynTree/Core/ClassicalAcc.h</text>
</a>
</g>
</g>
<!-- Node0&#45;&gt;Node70 -->
<g id="edge111" class="edge">
<title>Node0&#45;&gt;Node70</title>
<path fill="none" stroke="#191970" d="M650.2282,-597.294C543.4849,-589.1225 342.7761,-573.2691 172,-557 170.727,-556.8787 169.4442,-556.7554 168.1536,-556.6304"/>
<polygon fill="#191970" stroke="#191970" points="168.4301,-553.1408 158.1345,-555.6412 167.7422,-560.1069 168.4301,-553.1408"/>
</g>
<!-- Node71 -->
<g id="node45" class="node">
<title>Node71</title>
<g id="a_node45"><a xlink:href="ModelLoader_8h.html" target="_top" xlink:title="iDynTree/ModelIO/ModelLoader.h">
<polygon fill="none" stroke="#000000" points="1977,-537.5 1977,-556.5 2153,-556.5 2153,-537.5 1977,-537.5"/>
<text text-anchor="middle" x="2065" y="-544.5" font-family="FreeSans.ttf" font-size="10.00" fill="#000000">iDynTree/ModelIO/ModelLoader.h</text>
</a>
</g>
</g>
<!-- Node0&#45;&gt;Node71 -->
<g id="edge114" class="edge">
<title>Node0&#45;&gt;Node71</title>
<path fill="none" stroke="#191970" d="M801.827,-599.8287C1030.1675,-590.279 1711.2231,-561.7957 1966.7198,-551.1103"/>
<polygon fill="#191970" stroke="#191970" points="1966.8849,-554.6066 1976.7299,-550.6917 1966.5924,-547.6127 1966.8849,-554.6066"/>
</g>
<!-- Node74 -->
<g id="node48" class="node">
<title>Node74</title>
<g id="a_node48"><a xlink:href="EigenHelpers_8h.html" target="_top" xlink:title="iDynTree/Core/EigenHelpers.h">
<polygon fill="none" stroke="#000000" points="334.5,-364 334.5,-383 495.5,-383 495.5,-364 334.5,-364"/>
<text text-anchor="middle" x="415" y="-371" font-family="FreeSans.ttf" font-size="10.00" fill="#000000">iDynTree/Core/EigenHelpers.h</text>
</a>
</g>
</g>
<!-- Node0&#45;&gt;Node74 -->
<g id="edge125" class="edge">
<title>Node0&#45;&gt;Node74</title>
<path fill="none" stroke="#191970" d="M654.829,-593.4749C623.7938,-586.8476 588.1515,-575.6943 560,-557 494.1452,-513.2685 444.5908,-429.918 424.6336,-392.5058"/>
<polygon fill="#191970" stroke="#191970" points="427.5294,-390.4896 419.8005,-383.2429 421.3234,-393.7277 427.5294,-390.4896"/>
</g>
<!-- Node1&#45;&gt;Node2 -->
<g id="edge2" class="edge">
<title>Node1&#45;&gt;Node2</title>
<path fill="none" stroke="#191970" d="M1143.8601,-485.211C1066.1162,-477.9825 946.2454,-464.1904 905,-445 877.9181,-432.3995 853.1866,-407.8093 838.3604,-391.0211"/>
<polygon fill="#191970" stroke="#191970" points="840.7095,-388.3829 831.5501,-383.0579 835.3897,-392.9325 840.7095,-388.3829"/>
</g>
<!-- Node19 -->
<g id="node13" class="node">
<title>Node19</title>
<g id="a_node13"><a xlink:href="VectorDynSize_8h.html" target="_top" xlink:title="iDynTree/Core/VectorDynSize.h">
<polygon fill="none" stroke="#000000" points="949.5,-302.5 949.5,-321.5 1116.5,-321.5 1116.5,-302.5 949.5,-302.5"/>
<text text-anchor="middle" x="1033" y="-309.5" font-family="FreeSans.ttf" font-size="10.00" fill="#000000">iDynTree/Core/VectorDynSize.h</text>
</a>
</g>
</g>
<!-- Node1&#45;&gt;Node19 -->
<g id="edge93" class="edge">
<title>Node1&#45;&gt;Node19</title>
<path fill="none" stroke="#191970" d="M1143.885,-487.09C1081.5085,-481.9719 996.9936,-470.4397 976,-445 946.4575,-409.2008 989.2487,-355.798 1015.3518,-328.8488"/>
<polygon fill="#191970" stroke="#191970" points="1017.9178,-331.2325 1022.5085,-321.6838 1012.9652,-326.2856 1017.9178,-331.2325"/>
</g>
<!-- Node20 -->
<g id="node14" class="node">
<title>Node20</title>
<g id="a_node14"><a xlink:href="MatrixDynSize_8h.html" target="_top" xlink:title="iDynTree/Core/MatrixDynSize.h">
<polygon fill="none" stroke="#000000" points="1209.5,-302.5 1209.5,-321.5 1376.5,-321.5 1376.5,-302.5 1209.5,-302.5"/>
<text text-anchor="middle" x="1293" y="-309.5" font-family="FreeSans.ttf" font-size="10.00" fill="#000000">iDynTree/Core/MatrixDynSize.h</text>
</a>
</g>
</g>
<!-- Node1&#45;&gt;Node20 -->
<g id="edge94" class="edge">
<title>Node1&#45;&gt;Node20</title>
<path fill="none" stroke="#191970" d="M1221.2652,-481.4823C1230.8435,-467.688 1245.0399,-441.9408 1232,-425 1193.8614,-375.4523 1134.1386,-438.5477 1096,-389 1087.5961,-378.0821 1087.4366,-368.7933 1096,-358 1109.3943,-341.1178 1155.2167,-329.8507 1199.2991,-322.6946"/>
<polygon fill="#191970" stroke="#191970" points="1199.9156,-326.1409 1209.2564,-321.1409 1198.8363,-319.2246 1199.9156,-326.1409"/>
</g>
<!-- Node1&#45;&gt;Node21 -->
<g id="edge96" class="edge">
<title>Node1&#45;&gt;Node21</title>
<path fill="none" stroke="#191970" d="M1143.7893,-486.3662C1073.8183,-480.636 963.725,-468.5961 871,-445 748.9832,-413.9499 611.3123,-353.2188 552.3458,-325.8992"/>
<polygon fill="#191970" stroke="#191970" points="553.7883,-322.7101 543.2458,-321.6581 550.8312,-329.0548 553.7883,-322.7101"/>
</g>
<!-- Node39 -->
<g id="node18" class="node">
<title>Node39</title>
<g id="a_node18"><a xlink:href="Transform_8h.html" target="_top" xlink:title="iDynTree/Core/Transform.h">
<polygon fill="none" stroke="#000000" points="1395,-302.5 1395,-321.5 1541,-321.5 1541,-302.5 1395,-302.5"/>
<text text-anchor="middle" x="1468" y="-309.5" font-family="FreeSans.ttf" font-size="10.00" fill="#000000">iDynTree/Core/Transform.h</text>
</a>
</g>
</g>
<!-- Node1&#45;&gt;Node39 -->
<g id="edge95" class="edge">
<title>Node1&#45;&gt;Node39</title>
<path fill="none" stroke="#191970" d="M1284.221,-486.9727C1349.2587,-481.7196 1439.5122,-470.0479 1464,-445 1493.3551,-414.9734 1483.0388,-360.5306 1474.5891,-331.4851"/>
<polygon fill="#191970" stroke="#191970" points="1477.8543,-330.1998 1471.5287,-321.7006 1471.1735,-332.2895 1477.8543,-330.1998"/>
</g>
<!-- Node41 -->
<g id="node25" class="node">
<title>Node41</title>
<polygon fill="none" stroke="#bfbfbf" points="894,-302.5 894,-321.5 932,-321.5 932,-302.5 894,-302.5"/>
<text text-anchor="middle" x="913" y="-309.5" font-family="FreeSans.ttf" font-size="10.00" fill="#000000">map</text>
</g>
<!-- Node1&#45;&gt;Node41 -->
<g id="edge99" class="edge">
<title>Node1&#45;&gt;Node41</title>
<path fill="none" stroke="#191970" d="M1143.9246,-485.8347C1079.4534,-479.7461 989.8958,-467.4812 963,-445 928.5795,-416.2292 917.8303,-361.2167 914.4911,-331.7652"/>
<polygon fill="#191970" stroke="#191970" points="917.9468,-331.1326 913.515,-321.5092 910.9783,-331.7958 917.9468,-331.1326"/>
</g>
<!-- Node42 -->
<g id="node26" class="node">
<title>Node42</title>
<g id="a_node26"><a xlink:href="ConvexHullHelpers_8h.html" target="_top" xlink:title="iDynTree/ConvexHullHelpers.h">
<polygon fill="none" stroke="#000000" points="1633.5,-364 1633.5,-383 1798.5,-383 1798.5,-364 1633.5,-364"/>
<text text-anchor="middle" x="1716" y="-371" font-family="FreeSans.ttf" font-size="10.00" fill="#000000">iDynTree/ConvexHullHelpers.h</text>
</a>
</g>
</g>
<!-- Node1&#45;&gt;Node42 -->
<g id="edge46" class="edge">
<title>Node1&#45;&gt;Node42</title>
<path fill="none" stroke="#191970" d="M1284.1953,-484.2079C1342.076,-477.5132 1425.9188,-465.283 1497,-445 1519.224,-438.6584 1523.2402,-432.787 1545,-425 1587.1119,-409.9298 1636.0633,-395.4904 1670.7733,-385.7564"/>
<polygon fill="#191970" stroke="#191970" points="1671.9213,-389.0699 1680.6157,-383.0152 1670.0432,-382.3266 1671.9213,-389.0699"/>
</g>
<!-- Node43 -->
<g id="node27" class="node">
<title>Node43</title>
<polygon fill="none" stroke="#bfbfbf" points="1931.5,-302.5 1931.5,-321.5 1978.5,-321.5 1978.5,-302.5 1931.5,-302.5"/>
<text text-anchor="middle" x="1955" y="-309.5" font-family="FreeSans.ttf" font-size="10.00" fill="#000000">vector</text>
</g>
<!-- Node1&#45;&gt;Node43 -->
<g id="edge98" class="edge">
<title>Node1&#45;&gt;Node43</title>
<path fill="none" stroke="#191970" d="M1284.1271,-483.7161C1426.101,-468.3067 1742.5781,-430.4046 1843,-389 1879.2375,-374.059 1915.6045,-346.0874 1936.6753,-328.2866"/>
<polygon fill="#191970" stroke="#191970" points="1939.1813,-330.7474 1944.4731,-321.5688 1934.6124,-325.444 1939.1813,-330.7474"/>
</g>
<!-- Node44 -->
<g id="node28" class="node">
<title>Node44</title>
<g id="a_node28"><a xlink:href="InverseKinematics_8h.html" target="_top" xlink:title="iDynTree/InverseKinematics.h">
<polygon fill="none" stroke="#000000" points="1729,-425.5 1729,-444.5 1891,-444.5 1891,-425.5 1729,-425.5"/>
<text text-anchor="middle" x="1810" y="-432.5" font-family="FreeSans.ttf" font-size="10.00" fill="#000000">iDynTree/InverseKinematics.h</text>
</a>
</g>
</g>
<!-- Node1&#45;&gt;Node44 -->
<g id="edge53" class="edge">
<title>Node1&#45;&gt;Node44</title>
<path fill="none" stroke="#191970" d="M1284.1214,-484.4114C1392.0589,-474.2696 1598.933,-454.8318 1718.5155,-443.5959"/>
<polygon fill="#191970" stroke="#191970" points="1719.1157,-447.055 1728.7444,-442.6348 1718.4608,-440.0857 1719.1157,-447.055"/>
</g>
<!-- Node46 -->
<g id="node30" class="node">
<title>Node46</title>
<g id="a_node30"><a xlink:href="KinDynComputations_8h.html" target="_top" xlink:title="iDynTree/KinDynComputations.h">
<polygon fill="none" stroke="#000000" points="1279.5,-425.5 1279.5,-444.5 1454.5,-444.5 1454.5,-425.5 1279.5,-425.5"/>
<text text-anchor="middle" x="1367" y="-432.5" font-family="FreeSans.ttf" font-size="10.00" fill="#000000">iDynTree/KinDynComputations.h</text>
</a>
</g>
</g>
<!-- Node1&#45;&gt;Node46 -->
<g id="edge61" class="edge">
<title>Node1&#45;&gt;Node46</title>
<path fill="none" stroke="#191970" d="M1240.3016,-481.3733C1265.4128,-472.1822 1303.4438,-458.2624 1331.2872,-448.0713"/>
<polygon fill="#191970" stroke="#191970" points="1332.8538,-451.2251 1341.0416,-444.5011 1330.4478,-444.6516 1332.8538,-451.2251"/>
</g>
<!-- Node57 -->
<g id="node35" class="node">
<title>Node57</title>
<g id="a_node35"><a xlink:href="Model_8h.html" target="_top" xlink:title="iDynTree/Model/Model.h">
<polygon fill="none" stroke="#000000" points="2163.5,-425.5 2163.5,-444.5 2296.5,-444.5 2296.5,-425.5 2163.5,-425.5"/>
<text text-anchor="middle" x="2230" y="-432.5" font-family="FreeSans.ttf" font-size="10.00" fill="#000000">iDynTree/Model/Model.h</text>
</a>
</g>
</g>
<!-- Node1&#45;&gt;Node57 -->
<g id="edge78" class="edge">
<title>Node1&#45;&gt;Node57</title>
<path fill="none" stroke="#191970" d="M1284.2347,-487.1288C1468.0447,-476.9975 1962.2006,-449.7606 2153.1879,-439.2337"/>
<polygon fill="#191970" stroke="#191970" points="2153.6259,-442.715 2163.418,-438.6699 2153.2406,-435.7256 2153.6259,-442.715"/>
</g>
<!-- Node66 -->
<g id="node40" class="node">
<title>Node66</title>
<polygon fill="none" stroke="#bfbfbf" points="985,-425.5 985,-444.5 1111,-444.5 1111,-425.5 985,-425.5"/>
<text text-anchor="middle" x="1048" y="-432.5" font-family="FreeSans.ttf" font-size="10.00" fill="#000000">IpIpoptApplication.hpp</text>
</g>
<!-- Node1&#45;&gt;Node66 -->
<g id="edge97" class="edge">
<title>Node1&#45;&gt;Node66</title>
<path fill="none" stroke="#191970" d="M1185.4636,-481.3733C1157.9798,-472.1016 1116.2314,-458.0178 1085.9548,-447.804"/>
<polygon fill="#191970" stroke="#191970" points="1086.7582,-444.3813 1076.164,-444.5011 1084.5206,-451.0141 1086.7582,-444.3813"/>
</g>
<!-- Node67 -->
<g id="node41" class="node">
<title>Node67</title>
<polygon fill="none" stroke="#bfbfbf" points="1129.5,-425.5 1129.5,-444.5 1222.5,-444.5 1222.5,-425.5 1129.5,-425.5"/>
<text text-anchor="middle" x="1176" y="-432.5" font-family="FreeSans.ttf" font-size="10.00" fill="#000000">unordered_map</text>
</g>
<!-- Node1&#45;&gt;Node67 -->
<g id="edge100" class="edge">
<title>Node1&#45;&gt;Node67</title>
<path fill="none" stroke="#191970" d="M1207.3809,-481.2455C1202.0954,-473.4564 1194.5459,-462.3308 1188.1762,-452.9439"/>
<polygon fill="#191970" stroke="#191970" points="1191.0545,-450.9522 1182.5432,-444.6427 1185.2621,-454.8827 1191.0545,-450.9522"/>
</g>
<!-- Node3 -->
<g id="node4" class="node">
<title>Node3</title>
<polygon fill="none" stroke="#bfbfbf" points="806,-302.5 806,-321.5 876,-321.5 876,-302.5 806,-302.5"/>
<text text-anchor="middle" x="841" y="-309.5" font-family="FreeSans.ttf" font-size="10.00" fill="#000000">IpTNLP.hpp</text>
</g>
<!-- Node2&#45;&gt;Node3 -->
<g id="edge3" class="edge">
<title>Node2&#45;&gt;Node3</title>
<path fill="none" stroke="#191970" d="M826.6563,-363.8906C829.0375,-355.276 832.6048,-342.3708 835.586,-331.5858"/>
<polygon fill="#191970" stroke="#191970" points="839.0154,-332.3159 838.3063,-321.7449 832.2684,-330.4509 839.0154,-332.3159"/>
</g>
<!-- Node4 -->
<g id="node5" class="node">
<title>Node4</title>
<g id="a_node5"><a xlink:href="VectorFixSize_8h.html" target="_top" xlink:title="iDynTree/Core/VectorFixSize.h">
<polygon fill="none" stroke="#000000" points="718.5,-112.5 718.5,-131.5 879.5,-131.5 879.5,-112.5 718.5,-112.5"/>
<text text-anchor="middle" x="799" y="-119.5" font-family="FreeSans.ttf" font-size="10.00" fill="#000000">iDynTree/Core/VectorFixSize.h</text>
</a>
</g>
</g>
<!-- Node2&#45;&gt;Node4 -->
<g id="edge4" class="edge">
<title>Node2&#45;&gt;Node4</title>
<path fill="none" stroke="#191970" d="M817.0863,-363.8217C810.4434,-353.8801 800.862,-337.6839 797,-322 781.1926,-257.8051 790.0043,-178.4709 795.5588,-142.0247"/>
<polygon fill="#191970" stroke="#191970" points="799.0754,-142.2019 797.2124,-131.7721 792.1647,-141.0872 799.0754,-142.2019"/>
</g>
<!-- Node2&#45;&gt;Node19 -->
<g id="edge14" class="edge">
<title>Node2&#45;&gt;Node19</title>
<path fill="none" stroke="#191970" d="M856.6563,-363.8906C892.8528,-353.2395 951.3386,-336.0296 990.9375,-324.3772"/>
<polygon fill="#191970" stroke="#191970" points="991.9678,-327.7225 1000.5731,-321.5419 989.9917,-321.0072 991.9678,-327.7225"/>
</g>
<!-- Node2&#45;&gt;Node20 -->
<g id="edge17" class="edge">
<title>Node2&#45;&gt;Node20</title>
<path fill="none" stroke="#191970" d="M891.1963,-364.6885C975.4227,-353.6439 1119.7332,-334.7205 1210.5521,-322.8114"/>
<polygon fill="#191970" stroke="#191970" points="1211.0742,-326.273 1220.5342,-321.5024 1210.164,-319.3324 1211.0742,-326.273"/>
</g>
<!-- Node2&#45;&gt;Node21 -->
<g id="edge19" class="edge">
<title>Node2&#45;&gt;Node21</title>
<path fill="none" stroke="#191970" d="M777.299,-363.9581C724.0241,-353.073 636.9155,-335.2751 579.7666,-323.5985"/>
<polygon fill="#191970" stroke="#191970" points="580.3088,-320.137 569.8106,-321.5643 578.9075,-326.9953 580.3088,-320.137"/>
</g>
<!-- Node2&#45;&gt;Node39 -->
<g id="edge23" class="edge">
<title>Node2&#45;&gt;Node39</title>
<path fill="none" stroke="#191970" d="M891.1092,-368.0049C994.6573,-359.3811 1199.8833,-341.7148 1384.525,-322.1328"/>
<polygon fill="#191970" stroke="#191970" points="1385.1216,-325.5891 1394.6949,-321.05 1384.3805,-318.6285 1385.1216,-325.5891"/>
</g>
<!-- Node2&#45;&gt;Node41 -->
<g id="edge45" class="edge">
<title>Node2&#45;&gt;Node41</title>
<path fill="none" stroke="#191970" d="M837.9063,-363.8906C852.0138,-354.1421 874.0724,-338.8994 890.6385,-327.4521"/>
<polygon fill="#191970" stroke="#191970" points="892.9542,-330.1063 899.1914,-321.5419 888.9747,-324.3474 892.9542,-330.1063"/>
</g>
<!-- Node5 -->
<g id="node6" class="node">
<title>Node5</title>
<g id="a_node6"><a xlink:href="Utils_8h.html" target="_top" xlink:title="iDynTree/Core/Utils.h">
<polygon fill="none" stroke="#000000" points="1017.5,-56.5 1017.5,-75.5 1136.5,-75.5 1136.5,-56.5 1017.5,-56.5"/>
<text text-anchor="middle" x="1077" y="-63.5" font-family="FreeSans.ttf" font-size="10.00" fill="#000000">iDynTree/Core/Utils.h</text>
</a>
</g>
</g>
<!-- Node4&#45;&gt;Node5 -->
<g id="edge5" class="edge">
<title>Node4&#45;&gt;Node5</title>
<path fill="none" stroke="#191970" d="M846.474,-112.4369C894.4514,-102.7724 968.617,-87.8326 1019.8051,-77.5213"/>
<polygon fill="#191970" stroke="#191970" points="1020.6099,-80.9296 1029.7218,-75.5237 1019.2275,-74.0674 1020.6099,-80.9296"/>
</g>
<!-- Node7 -->
<g id="node8" class="node">
<title>Node7</title>
<g id="a_node8"><a xlink:href="Span_8h.html" target="_top" xlink:title="iDynTree/Core/Span.h">
<polygon fill="none" stroke="#ff0000" points="648.5,-56.5 648.5,-75.5 769.5,-75.5 769.5,-56.5 648.5,-56.5"/>
<text text-anchor="middle" x="709" y="-63.5" font-family="FreeSans.ttf" font-size="10.00" fill="#000000">iDynTree/Core/Span.h</text>
</a>
</g>
</g>
<!-- Node4&#45;&gt;Node7 -->
<g id="edge7" class="edge">
<title>Node4&#45;&gt;Node7</title>
<path fill="none" stroke="#191970" d="M783.3232,-112.2455C769.5144,-103.6534 749.1807,-91.0014 733.2708,-81.1018"/>
<polygon fill="#191970" stroke="#191970" points="734.8368,-77.954 724.4972,-75.6427 731.1387,-83.8974 734.8368,-77.954"/>
</g>
<!-- Node4&#45;&gt;Node8 -->
<g id="edge12" class="edge">
<title>Node4&#45;&gt;Node8</title>
<path fill="none" stroke="#191970" d="M796.5606,-112.3959C793.1123,-99.3628 786.2984,-75.468 778,-56 774.0037,-46.6248 768.7122,-36.6377 764.0268,-28.3732"/>
<polygon fill="#191970" stroke="#191970" points="766.9759,-26.4823 758.9187,-19.6025 760.927,-30.0053 766.9759,-26.4823"/>
</g>
<!-- Node16 -->
<g id="node10" class="node">
<title>Node16</title>
<polygon fill="none" stroke="#bfbfbf" points="1706,-56.5 1706,-75.5 1750,-75.5 1750,-56.5 1706,-56.5"/>
<text text-anchor="middle" x="1728" y="-63.5" font-family="FreeSans.ttf" font-size="10.00" fill="#000000">string</text>
</g>
<!-- Node4&#45;&gt;Node16 -->
<g id="edge10" class="edge">
<title>Node4&#45;&gt;Node16</title>
<path fill="none" stroke="#191970" d="M879.9323,-112.7916C882.9925,-112.512 886.0232,-112.2468 889,-112 1202.7491,-85.989 1583.7686,-71.1421 1695.6609,-67.1218"/>
<polygon fill="#191970" stroke="#191970" points="1696.062,-70.6099 1705.9311,-66.7562 1695.8129,-63.6143 1696.062,-70.6099"/>
</g>
<!-- Node17 -->
<g id="node11" class="node">
<title>Node17</title>
<polygon fill="none" stroke="#bfbfbf" points="894,-56.5 894,-75.5 950,-75.5 950,-56.5 894,-56.5"/>
<text text-anchor="middle" x="922" y="-63.5" font-family="FreeSans.ttf" font-size="10.00" fill="#000000">sstream</text>
</g>
<!-- Node4&#45;&gt;Node17 -->
<g id="edge11" class="edge">
<title>Node4&#45;&gt;Node17</title>
<path fill="none" stroke="#191970" d="M820.1445,-112.3733C839.8892,-103.3838 869.5698,-89.8706 891.8055,-79.7471"/>
<polygon fill="#191970" stroke="#191970" points="893.4806,-82.8302 901.1315,-75.5011 890.58,-76.4594 893.4806,-82.8302"/>
</g>
<!-- Node18 -->
<g id="node12" class="node">
<title>Node18</title>
<polygon fill="none" stroke="#bfbfbf" points="826,-56.5 826,-75.5 876,-75.5 876,-56.5 826,-56.5"/>
<text text-anchor="middle" x="851" y="-63.5" font-family="FreeSans.ttf" font-size="10.00" fill="#000000">cstring</text>
</g>
<!-- Node4&#45;&gt;Node18 -->
<g id="edge13" class="edge">
<title>Node4&#45;&gt;Node18</title>
<path fill="none" stroke="#191970" d="M808.0577,-112.2455C815.5142,-104.2155 826.2634,-92.6394 835.1417,-83.0781"/>
<polygon fill="#191970" stroke="#191970" points="837.8063,-85.3522 842.0461,-75.6427 832.6768,-80.589 837.8063,-85.3522"/>
</g>
<!-- Node6 -->
<g id="node7" class="node">
<title>Node6</title>
<polygon fill="none" stroke="#bfbfbf" points="923.5,-.5 923.5,-19.5 976.5,-19.5 976.5,-.5 923.5,-.5"/>
<text text-anchor="middle" x="950" y="-7.5" font-family="FreeSans.ttf" font-size="10.00" fill="#000000">cstddef</text>
</g>
<!-- Node5&#45;&gt;Node6 -->
<g id="edge6" class="edge">
<title>Node5&#45;&gt;Node6</title>
<path fill="none" stroke="#191970" d="M1055.1679,-56.3733C1034.6897,-47.3435 1003.8601,-33.7494 980.8681,-23.6111"/>
<polygon fill="#191970" stroke="#191970" points="982.1093,-20.3333 971.5472,-19.5011 979.285,-26.7383 982.1093,-20.3333"/>
</g>
<!-- Node7&#45;&gt;Node6 -->
<g id="edge9" class="edge">
<title>Node7&#45;&gt;Node6</title>
<path fill="none" stroke="#191970" d="M750.1555,-56.4369C795.957,-45.7942 869.2894,-28.7543 913.235,-18.5429"/>
<polygon fill="#191970" stroke="#191970" points="914.2599,-21.8981 923.2082,-16.2255 912.6755,-15.0797 914.2599,-21.8981"/>
</g>
<!-- Node7&#45;&gt;Node8 -->
<g id="edge8" class="edge">
<title>Node7&#45;&gt;Node8</title>
<path fill="none" stroke="#191970" d="M716.6642,-56.2455C722.8473,-48.3761 731.7063,-37.101 739.1289,-27.6542"/>
<polygon fill="#191970" stroke="#191970" points="741.9975,-29.6683 745.4236,-19.6427 736.4932,-25.3435 741.9975,-29.6683"/>
</g>
<!-- Node19&#45;&gt;Node7 -->
<g id="edge15" class="edge">
<title>Node19&#45;&gt;Node7</title>
<path fill="none" stroke="#191970" d="M988.6695,-302.496C915.1637,-284.0798 770.1044,-235.8477 709,-132 700.8385,-118.1294 701.6325,-99.6121 704.012,-85.7221"/>
<polygon fill="#191970" stroke="#191970" points="707.4757,-86.2595 706.1194,-75.7518 700.627,-84.8119 707.4757,-86.2595"/>
</g>
<!-- Node19&#45;&gt;Node16 -->
<g id="edge16" class="edge">
<title>Node19&#45;&gt;Node16</title>
<path fill="none" stroke="#191970" d="M1049.4703,-302.251C1111.5891,-265.639 1332.0475,-137.1629 1409,-112 1510.1362,-78.9292 1637.041,-69.6077 1695.6248,-67.0005"/>
<polygon fill="#191970" stroke="#191970" points="1695.8979,-70.4924 1705.747,-66.5876 1695.6126,-63.4982 1695.8979,-70.4924"/>
</g>
<!-- Node20&#45;&gt;Node16 -->
<g id="edge18" class="edge">
<title>Node20&#45;&gt;Node16</title>
<path fill="none" stroke="#191970" d="M1296.5576,-302.3189C1309.7442,-268.0876 1359.5335,-152.6427 1445,-112 1489.0726,-91.0417 1631.6617,-75.2021 1695.9926,-68.9357"/>
<polygon fill="#191970" stroke="#191970" points="1696.3579,-72.4168 1705.9784,-67.9789 1695.6902,-65.4487 1696.3579,-72.4168"/>
</g>
<!-- Node22 -->
<g id="node16" class="node">
<title>Node22</title>
<g id="a_node16"><a xlink:href="SpatialMotionVector_8h.html" target="_top" xlink:title="iDynTree/Core/SpatialMotion\lVector.h">
<polygon fill="none" stroke="#ff0000" points="456.5,-235.5 456.5,-265.5 611.5,-265.5 611.5,-235.5 456.5,-235.5"/>
<text text-anchor="start" x="464.5" y="-253.5" font-family="FreeSans.ttf" font-size="10.00" fill="#000000">iDynTree/Core/SpatialMotion</text>
<text text-anchor="middle" x="534" y="-242.5" font-family="FreeSans.ttf" font-size="10.00" fill="#000000">Vector.h</text>
</a>
</g>
</g>
<!-- Node21&#45;&gt;Node22 -->
<g id="edge20" class="edge">
<title>Node21&#45;&gt;Node22</title>
<path fill="none" stroke="#191970" d="M524.7188,-302.3906C526.0007,-295.2234 527.8138,-285.0862 529.4979,-275.671"/>
<polygon fill="#191970" stroke="#191970" points="532.9937,-276.0046 531.3091,-265.5446 526.103,-274.7721 532.9937,-276.0046"/>
</g>
<!-- Node22&#45;&gt;Node4 -->
<g id="edge21" class="edge">
<title>Node22&#45;&gt;Node4</title>
<path fill="none" stroke="#191970" d="M499.1494,-235.4293C466.905,-219.4298 427.0311,-193.0452 449,-168 465.906,-148.7266 610.2412,-134.996 708.2007,-127.7964"/>
<polygon fill="#191970" stroke="#191970" points="708.6978,-131.2697 718.4189,-127.0566 708.1923,-124.2879 708.6978,-131.2697"/>
</g>
<!-- Node23 -->
<g id="node17" class="node">
<title>Node23</title>
<g id="a_node17"><a xlink:href="LinearMotionVector3_8h.html" target="_top" xlink:title="iDynTree/Core/LinearMotion\lVector3.h">
<polygon fill="none" stroke="#ff0000" points="458.5,-168.5 458.5,-198.5 609.5,-198.5 609.5,-168.5 458.5,-168.5"/>
<text text-anchor="start" x="466.5" y="-186.5" font-family="FreeSans.ttf" font-size="10.00" fill="#000000">iDynTree/Core/LinearMotion</text>
<text text-anchor="middle" x="534" y="-175.5" font-family="FreeSans.ttf" font-size="10.00" fill="#000000">Vector3.h</text>
</a>
</g>
</g>
<!-- Node22&#45;&gt;Node23 -->
<g id="edge22" class="edge">
<title>Node22&#45;&gt;Node23</title>
<path fill="none" stroke="#191970" d="M534,-235.2967C534,-227.5013 534,-217.7991 534,-208.9064"/>
<polygon fill="#191970" stroke="#191970" points="537.5001,-208.6431 534,-198.6432 530.5001,-208.6432 537.5001,-208.6431"/>
</g>
<!-- Node39&#45;&gt;Node16 -->
<g id="edge44" class="edge">
<title>Node39&#45;&gt;Node16</title>
<path fill="none" stroke="#191970" d="M1455.922,-302.174C1428.0644,-278.3017 1363.9951,-215.7091 1395,-168 1428.5129,-116.4317 1619.045,-82.4108 1695.8816,-70.6132"/>
<polygon fill="#191970" stroke="#191970" points="1696.5745,-74.0484 1705.9408,-69.0965 1695.5308,-67.1266 1696.5745,-74.0484"/>
</g>
<!-- Node34 -->
<g id="node19" class="node">
<title>Node34</title>
<g id="a_node19"><a xlink:href="Position_8h.html" target="_top" xlink:title="Position.h">
<polygon fill="none" stroke="#000000" points="1683.5,-241 1683.5,-260 1748.5,-260 1748.5,-241 1683.5,-241"/>
<text text-anchor="middle" x="1716" y="-248" font-family="FreeSans.ttf" font-size="10.00" fill="#000000">Position.h</text>
</a>
</g>
</g>
<!-- Node39&#45;&gt;Node34 -->
<g id="edge24" class="edge">
<title>Node39&#45;&gt;Node34</title>
<path fill="none" stroke="#191970" d="M1506.4779,-302.4581C1551.7282,-291.2368 1626.6036,-272.6689 1673.5204,-261.0343"/>
<polygon fill="#191970" stroke="#191970" points="1674.5101,-264.3949 1683.3737,-258.5908 1672.8252,-257.6007 1674.5101,-264.3949"/>
</g>
<!-- Node26 -->
<g id="node22" class="node">
<title>Node26</title>
<g id="a_node22"><a xlink:href="Rotation_8h.html" target="_top" xlink:title="iDynTree/Core/Rotation.h">
<polygon fill="none" stroke="#ff0000" points="1403.5,-174 1403.5,-193 1540.5,-193 1540.5,-174 1403.5,-174"/>
<text text-anchor="middle" x="1472" y="-181" font-family="FreeSans.ttf" font-size="10.00" fill="#000000">iDynTree/Core/Rotation.h</text>
</a>
</g>
</g>
<!-- Node39&#45;&gt;Node26 -->
<g id="edge34" class="edge">
<title>Node39&#45;&gt;Node26</title>
<path fill="none" stroke="#191970" d="M1468.3007,-302.3416C1468.9522,-281.4114 1470.5057,-231.504 1471.3782,-203.4762"/>
<polygon fill="#191970" stroke="#191970" points="1474.8829,-203.3746 1471.6959,-193.2705 1467.8863,-203.1567 1474.8829,-203.3746"/>
</g>
<!-- Node40 -->
<g id="node23" class="node">
<title>Node40</title>
<g id="a_node23"><a xlink:href="TransformSemantics_8h.html" target="_top" xlink:title="iDynTree/Core/TransformSemantics.h">
<polygon fill="none" stroke="#000000" points="1153.5,-112.5 1153.5,-131.5 1350.5,-131.5 1350.5,-112.5 1153.5,-112.5"/>
<text text-anchor="middle" x="1252" y="-119.5" font-family="FreeSans.ttf" font-size="10.00" fill="#000000">iDynTree/Core/TransformSemantics.h</text>
</a>
</g>
</g>
<!-- Node39&#45;&gt;Node40 -->
<g id="edge35" class="edge">
<title>Node39&#45;&gt;Node40</title>
<path fill="none" stroke="#191970" d="M1434.2704,-302.4947C1411.9191,-295.0545 1382.8085,-283.0815 1361,-266 1315.315,-230.2174 1278.7156,-170.9087 1261.9431,-140.7935"/>
<polygon fill="#191970" stroke="#191970" points="1264.888,-138.883 1257.0306,-131.7758 1258.7409,-142.2317 1264.888,-138.883"/>
</g>
<!-- Node28 -->
<g id="node24" class="node">
<title>Node28</title>
<g id="a_node24"><a xlink:href="MatrixFixSize_8h.html" target="_top" xlink:title="iDynTree/Core/MatrixFixSize.h">
<polygon fill="none" stroke="#ff0000" points="897.5,-112.5 897.5,-131.5 1058.5,-131.5 1058.5,-112.5 897.5,-112.5"/>
<text text-anchor="middle" x="978" y="-119.5" font-family="FreeSans.ttf" font-size="10.00" fill="#000000">iDynTree/Core/MatrixFixSize.h</text>
</a>
</g>
</g>
<!-- Node39&#45;&gt;Node28 -->
<g id="edge38" class="edge">
<title>Node39&#45;&gt;Node28</title>
<path fill="none" stroke="#191970" d="M1434.2802,-302.433C1405.2292,-293.8703 1362.3583,-280.4655 1326,-266 1231.7943,-228.5194 1214.2057,-205.4806 1120,-168 1087.4764,-155.0602 1049.7415,-142.9691 1021.3491,-134.4334"/>
<polygon fill="#191970" stroke="#191970" points="1022.3028,-131.0656 1011.7198,-131.567 1020.3056,-137.7747 1022.3028,-131.0656"/>
</g>
<!-- Node34&#45;&gt;Node16 -->
<g id="edge33" class="edge">
<title>Node34&#45;&gt;Node16</title>
<path fill="none" stroke="#191970" d="M1731.8037,-240.8977C1758.8819,-223.3349 1812.9724,-183.0956 1831,-132 1833.9575,-123.6175 1835.837,-119.4576 1831,-112 1815.4971,-88.0976 1784.3535,-76.5065 1760.351,-70.9532"/>
<polygon fill="#191970" stroke="#191970" points="1760.7394,-67.4596 1750.2381,-68.8642 1759.3233,-74.3149 1760.7394,-67.4596"/>
</g>
<!-- Node35 -->
<g id="node20" class="node">
<title>Node35</title>
<g id="a_node20"><a xlink:href="PositionRaw_8h.html" target="_top" xlink:title="iDynTree/Core/PositionRaw.h">
<polygon fill="none" stroke="#000000" points="1597,-174 1597,-193 1753,-193 1753,-174 1597,-174"/>
<text text-anchor="middle" x="1675" y="-181" font-family="FreeSans.ttf" font-size="10.00" fill="#000000">iDynTree/Core/PositionRaw.h</text>
</a>
</g>
</g>
<!-- Node34&#45;&gt;Node35 -->
<g id="edge25" class="edge">
<title>Node34&#45;&gt;Node35</title>
<path fill="none" stroke="#191970" d="M1710.1257,-240.9005C1703.9148,-230.751 1693.9665,-214.4941 1686.2401,-201.8679"/>
<polygon fill="#191970" stroke="#191970" points="1689.0685,-199.7844 1680.8634,-193.0817 1683.0977,-203.4382 1689.0685,-199.7844"/>
</g>
<!-- Node36 -->
<g id="node21" class="node">
<title>Node36</title>
<g id="a_node21"><a xlink:href="PositionSemantics_8h.html" target="_top" xlink:title="iDynTree/Core/PositionSemantics.h">
<polygon fill="none" stroke="#000000" points="1634.5,-112.5 1634.5,-131.5 1821.5,-131.5 1821.5,-112.5 1634.5,-112.5"/>
<text text-anchor="middle" x="1728" y="-119.5" font-family="FreeSans.ttf" font-size="10.00" fill="#000000">iDynTree/Core/PositionSemantics.h</text>
</a>
</g>
</g>
<!-- Node34&#45;&gt;Node36 -->
<g id="edge28" class="edge">
<title>Node34&#45;&gt;Node36</title>
<path fill="none" stroke="#191970" d="M1728.954,-240.7027C1740.1088,-231.3819 1755.4182,-216.2489 1762,-199 1766.9118,-186.1275 1766.3112,-181.0859 1762,-168 1758.4944,-157.3594 1751.4759,-147.164 1744.7213,-139.0877"/>
<polygon fill="#191970" stroke="#191970" points="1747.214,-136.6247 1737.9362,-131.5087 1741.9986,-141.2937 1747.214,-136.6247"/>
</g>
<!-- Node34&#45;&gt;Node26 -->
<g id="edge30" class="edge">
<title>Node34&#45;&gt;Node26</title>
<path fill="none" stroke="#191970" d="M1683.3463,-241.5336C1640.4289,-229.7489 1564.8575,-208.9978 1516.67,-195.7659"/>
<polygon fill="#191970" stroke="#191970" points="1517.3944,-192.3354 1506.8245,-193.0625 1515.5408,-199.0855 1517.3944,-192.3354"/>
</g>
<!-- Node35&#45;&gt;Node4 -->
<g id="edge26" class="edge">
<title>Node35&#45;&gt;Node4</title>
<path fill="none" stroke="#191970" d="M1605.34,-173.9986C1587.339,-171.7806 1567.9695,-169.6015 1550,-168 1260.2395,-142.1752 1183.9179,-155.9371 890.031,-132.0388"/>
<polygon fill="#191970" stroke="#191970" points="890.1851,-128.5397 879.9322,-131.2098 889.6123,-135.5163 890.1851,-128.5397"/>
</g>
<!-- Node35&#45;&gt;Node16 -->
<g id="edge27" class="edge">
<title>Node35&#45;&gt;Node16</title>
<path fill="none" stroke="#191970" d="M1660.0773,-173.8981C1640.8323,-160.2781 1611.465,-134.4997 1626,-112 1641.3343,-88.263 1672.178,-76.6493 1695.953,-71.0457"/>
<polygon fill="#191970" stroke="#191970" points="1696.9078,-74.4214 1705.9702,-68.933 1695.4632,-67.572 1696.9078,-74.4214"/>
</g>
<!-- Node36&#45;&gt;Node16 -->
<g id="edge29" class="edge">
<title>Node36&#45;&gt;Node16</title>
<path fill="none" stroke="#191970" d="M1728,-112.2455C1728,-104.9382 1728,-94.6944 1728,-85.7046"/>
<polygon fill="#191970" stroke="#191970" points="1731.5001,-85.6426 1728,-75.6427 1724.5001,-85.6427 1731.5001,-85.6426"/>
</g>
<!-- Node26&#45;&gt;Node4 -->
<g id="edge32" class="edge">
<title>Node26&#45;&gt;Node4</title>
<path fill="none" stroke="#191970" d="M1403.2951,-177.9358C1296.0923,-169.1421 1082.2543,-151.1532 889.9543,-132.0769"/>
<polygon fill="#191970" stroke="#191970" points="890.2414,-128.5882 879.9439,-131.0809 889.5483,-135.5539 890.2414,-128.5882"/>
</g>
<!-- Node26&#45;&gt;Node16 -->
<g id="edge31" class="edge">
<title>Node26&#45;&gt;Node16</title>
<path fill="none" stroke="#191970" d="M1480.6583,-173.5893C1494.7119,-158.1228 1524.0486,-128.3303 1555,-112 1600.657,-87.9108 1659.8979,-75.716 1695.8737,-70.1218"/>
<polygon fill="#191970" stroke="#191970" points="1696.4312,-73.5775 1705.812,-68.653 1695.4077,-66.6528 1696.4312,-73.5775"/>
</g>
<!-- Node40&#45;&gt;Node5 -->
<g id="edge37" class="edge">
<title>Node40&#45;&gt;Node5</title>
<path fill="none" stroke="#191970" d="M1221.9164,-112.3733C1192.8166,-103.0613 1148.5477,-88.8953 1116.597,-78.671"/>
<polygon fill="#191970" stroke="#191970" points="1117.282,-75.2155 1106.691,-75.5011 1115.1485,-81.8824 1117.282,-75.2155"/>
</g>
<!-- Node40&#45;&gt;Node16 -->
<g id="edge36" class="edge">
<title>Node40&#45;&gt;Node16</title>
<path fill="none" stroke="#191970" d="M1333.0165,-112.4686C1439.5074,-99.9403 1621.6866,-78.5075 1695.5081,-69.8226"/>
<polygon fill="#191970" stroke="#191970" points="1696.0691,-73.2808 1705.5916,-68.6363 1695.2511,-66.3288 1696.0691,-73.2808"/>
</g>
<!-- Node28&#45;&gt;Node5 -->
<g id="edge39" class="edge">
<title>Node28&#45;&gt;Node5</title>
<path fill="none" stroke="#191970" d="M995.2445,-112.2455C1010.5761,-103.5731 1033.2199,-90.7645 1050.7916,-80.825"/>
<polygon fill="#191970" stroke="#191970" points="1052.9724,-83.6126 1059.9531,-75.6427 1049.5259,-77.5198 1052.9724,-83.6126"/>
</g>
<!-- Node28&#45;&gt;Node8 -->
<g id="edge40" class="edge">
<title>Node28&#45;&gt;Node8</title>
<path fill="none" stroke="#191970" d="M978.1164,-112.3722C977.7392,-97.957 974.8029,-70.873 959,-56 934.8464,-33.2676 841.8426,-19.683 789.4404,-13.6759"/>
<polygon fill="#191970" stroke="#191970" points="789.5489,-10.1665 779.2237,-12.5417 788.7765,-17.1238 789.5489,-10.1665"/>
</g>
<!-- Node28&#45;&gt;Node16 -->
<g id="edge42" class="edge">
<title>Node28&#45;&gt;Node16</title>
<path fill="none" stroke="#191970" d="M1058.6191,-115.9804C1221.9183,-103.7874 1585.6071,-76.632 1695.7657,-68.4068"/>
<polygon fill="#191970" stroke="#191970" points="1696.1987,-71.8843 1705.9103,-67.6494 1695.6774,-64.9038 1696.1987,-71.8843"/>
</g>
<!-- Node28&#45;&gt;Node17 -->
<g id="edge43" class="edge">
<title>Node28&#45;&gt;Node17</title>
<path fill="none" stroke="#191970" d="M968.2455,-112.2455C960.1352,-104.1352 948.4075,-92.4075 938.7919,-82.7919"/>
<polygon fill="#191970" stroke="#191970" points="941.1887,-80.2389 931.6427,-75.6427 936.2389,-85.1887 941.1887,-80.2389"/>
</g>
<!-- Node28&#45;&gt;Node18 -->
<g id="edge41" class="edge">
<title>Node28&#45;&gt;Node18</title>
<path fill="none" stroke="#191970" d="M956.1679,-112.3733C935.6897,-103.3435 904.8601,-89.7494 881.8681,-79.6111"/>
<polygon fill="#191970" stroke="#191970" points="883.1093,-76.3333 872.5472,-75.5011 880.285,-82.7383 883.1093,-76.3333"/>
</g>
<!-- Node42&#45;&gt;Node16 -->
<g id="edge47" class="edge">
<title>Node42&#45;&gt;Node16</title>
<path fill="none" stroke="#191970" d="M1723.8239,-363.7088C1748.2755,-332.3678 1822.9937,-230.7778 1846,-132 1848.0163,-123.3428 1851.0157,-119.3386 1846,-112 1835.9242,-97.2579 1791.1341,-82.7055 1759.7353,-74.0364"/>
<polygon fill="#191970" stroke="#191970" points="1760.6384,-70.655 1750.0724,-71.4357 1758.8191,-77.4144 1760.6384,-70.655"/>
</g>
<!-- Node42&#45;&gt;Node19 -->
<g id="edge52" class="edge">
<title>Node42&#45;&gt;Node19</title>
<path fill="none" stroke="#191970" d="M1661.2175,-363.9607C1647.4646,-361.7825 1632.717,-359.6317 1619,-358 1526.4417,-346.99 1267.5847,-328.2696 1126.8979,-318.4494"/>
<polygon fill="#191970" stroke="#191970" points="1126.7814,-314.9328 1116.5623,-317.7291 1126.2947,-321.9159 1126.7814,-314.9328"/>
</g>
<!-- Node42&#45;&gt;Node20 -->
<g id="edge49" class="edge">
<title>Node42&#45;&gt;Node20</title>
<path fill="none" stroke="#191970" d="M1657.552,-363.9833C1644.8493,-361.9645 1631.4795,-359.8774 1619,-358 1535.1312,-345.3831 1438.9637,-331.9381 1372.9311,-322.8637"/>
<polygon fill="#191970" stroke="#191970" points="1373.3889,-319.3938 1363.0058,-321.5015 1372.437,-326.3288 1373.3889,-319.3938"/>
</g>
<!-- Node42&#45;&gt;Node39 -->
<g id="edge51" class="edge">
<title>Node42&#45;&gt;Node39</title>
<path fill="none" stroke="#191970" d="M1677.5221,-363.9581C1634.1731,-353.2082 1563.6361,-335.7162 1516.5373,-324.0365"/>
<polygon fill="#191970" stroke="#191970" points="1517.1166,-320.5742 1506.5682,-321.5643 1515.4317,-327.3684 1517.1166,-320.5742"/>
</g>
<!-- Node42&#45;&gt;Node34 -->
<g id="edge50" class="edge">
<title>Node42&#45;&gt;Node34</title>
<path fill="none" stroke="#191970" d="M1716,-363.8484C1716,-343.7295 1716,-296.9608 1716,-270.2098"/>
<polygon fill="#191970" stroke="#191970" points="1719.5001,-270.1067 1716,-260.1068 1712.5001,-270.1068 1719.5001,-270.1067"/>
</g>
<!-- Node42&#45;&gt;Node43 -->
<g id="edge48" class="edge">
<title>Node42&#45;&gt;Node43</title>
<path fill="none" stroke="#191970" d="M1753.0815,-363.9581C1799.1829,-352.0952 1877.1923,-332.0217 1921.5426,-320.6093"/>
<polygon fill="#191970" stroke="#191970" points="1922.4506,-323.9898 1931.2628,-318.1081 1920.7061,-317.2106 1922.4506,-323.9898"/>
</g>
<!-- Node44&#45;&gt;Node16 -->
<g id="edge54" class="edge">
<title>Node44&#45;&gt;Node16</title>
<path fill="none" stroke="#191970" d="M1891.2411,-427.6223C1962.5584,-416.1487 2055,-386.8418 2055,-312 2055,-312 2055,-312 2055,-183.5 2055,-121.3019 1842.826,-83.0666 1760.2955,-70.5467"/>
<polygon fill="#191970" stroke="#191970" points="1760.6249,-67.0572 1750.219,-69.0487 1759.5956,-73.9812 1760.6249,-67.0572"/>
</g>
<!-- Node44&#45;&gt;Node42 -->
<g id="edge56" class="edge">
<title>Node44&#45;&gt;Node42</title>
<path fill="none" stroke="#191970" d="M1795.3125,-425.3906C1780.2744,-415.5519 1756.6824,-400.1167 1739.1333,-388.6351"/>
<polygon fill="#191970" stroke="#191970" points="1740.8687,-385.588 1730.5844,-383.0419 1737.0363,-391.4457 1740.8687,-385.588"/>
</g>
<!-- Node44&#45;&gt;Node43 -->
<g id="edge55" class="edge">
<title>Node44&#45;&gt;Node43</title>
<path fill="none" stroke="#191970" d="M1849.1608,-425.4439C1871.2662,-418.4052 1898.152,-406.885 1917,-389 1933.588,-373.2595 1943.9407,-348.7355 1949.5745,-331.6061"/>
<polygon fill="#191970" stroke="#191970" points="1953.061,-332.1695 1952.6135,-321.5841 1946.3622,-330.1382 1953.061,-332.1695"/>
</g>
<!-- Node45 -->
<g id="node29" class="node">
<title>Node45</title>
<g id="a_node29"><a xlink:href="Direction_8h.html" target="_top" xlink:title="iDynTree/Core/Direction.h">
<polygon fill="none" stroke="#000000" points="1885.5,-174 1885.5,-193 2026.5,-193 2026.5,-174 1885.5,-174"/>
<text text-anchor="middle" x="1956" y="-181" font-family="FreeSans.ttf" font-size="10.00" fill="#000000">iDynTree/Core/Direction.h</text>
</a>
</g>
</g>
<!-- Node44&#45;&gt;Node45 -->
<g id="edge57" class="edge">
<title>Node44&#45;&gt;Node45</title>
<path fill="none" stroke="#191970" d="M1815.5451,-425.448C1837.2264,-388.0997 1916.4881,-251.5634 1945.3755,-201.8017"/>
<polygon fill="#191970" stroke="#191970" points="1948.4557,-203.4671 1950.4494,-193.0615 1942.4019,-199.9527 1948.4557,-203.4671"/>
</g>
<!-- Node45&#45;&gt;Node4 -->
<g id="edge59" class="edge">
<title>Node45&#45;&gt;Node4</title>
<path fill="none" stroke="#191970" d="M1885.0965,-177.1762C1848.3807,-174.0686 1802.8086,-170.4707 1762,-168 1377.6922,-144.7323 1277.9095,-161.1733 890.0219,-132.0242"/>
<polygon fill="#191970" stroke="#191970" points="890.1638,-128.525 879.9282,-131.2603 889.6355,-135.505 890.1638,-128.525"/>
</g>
<!-- Node45&#45;&gt;Node5 -->
<g id="edge60" class="edge">
<title>Node45&#45;&gt;Node5</title>
<path fill="none" stroke="#191970" d="M1885.0776,-177.4666C1848.3569,-174.4358 1802.786,-170.8189 1762,-168 1624.9826,-158.5302 1270.7205,-187.2976 1145,-132 1121.8366,-121.8117 1101.9599,-100.0405 1089.7824,-84.283"/>
<polygon fill="#191970" stroke="#191970" points="1092.2947,-81.7937 1083.5355,-75.8332 1086.6659,-85.955 1092.2947,-81.7937"/>
</g>
<!-- Node45&#45;&gt;Node16 -->
<g id="edge58" class="edge">
<title>Node45&#45;&gt;Node16</title>
<path fill="none" stroke="#191970" d="M1951.0871,-173.5043C1942.9044,-157.9213 1924.9846,-127.972 1901,-112 1857.68,-83.1519 1797.0032,-72.3618 1760.217,-68.3488"/>
<polygon fill="#191970" stroke="#191970" points="1760.3565,-64.8457 1750.0613,-67.3477 1759.6697,-71.8119 1760.3565,-64.8457"/>
</g>
<!-- Node46&#45;&gt;Node4 -->
<g id="edge64" class="edge">
<title>Node46&#45;&gt;Node4</title>
<path fill="none" stroke="#191970" d="M1279.4473,-427.5404C1194.7256,-419.4139 1077.0749,-405.3648 1063,-389 1054.0159,-378.5542 1056.0846,-369.9165 1063,-358 1079.1867,-330.1075 1109.8133,-349.8925 1126,-322 1130.4616,-314.3119 1130.5227,-309.6523 1126,-302 1067.0696,-202.2926 931.0406,-154.0724 854.2885,-134.0464"/>
<polygon fill="#191970" stroke="#191970" points="854.8749,-130.5844 844.3213,-131.5174 853.1533,-137.3694 854.8749,-130.5844"/>
</g>
<!-- Node46&#45;&gt;Node5 -->
<g id="edge66" class="edge">
<title>Node46&#45;&gt;Node5</title>
<path fill="none" stroke="#191970" d="M1279.3089,-425.7666C1204.7614,-417.0109 1107.9317,-403.1277 1096,-389 1087.1101,-378.474 1090.0316,-370.418 1096,-358 1107.095,-334.9154 1129.905,-345.0846 1141,-322 1144.8506,-313.9884 1142.1735,-310.8111 1141,-302 1130.0134,-219.5107 1098.3263,-124.9733 1084.0827,-85.2062"/>
<polygon fill="#191970" stroke="#191970" points="1087.3349,-83.9077 1080.6342,-75.7009 1080.7545,-86.295 1087.3349,-83.9077"/>
</g>
<!-- Node46&#45;&gt;Node16 -->
<g id="edge62" class="edge">
<title>Node46&#45;&gt;Node16</title>
<path fill="none" stroke="#191970" d="M1395.1728,-425.4748C1417.2341,-417.3905 1448.2277,-404.6261 1473,-389 1536.347,-349.0414 1569,-325.3968 1569,-250.5 1569,-250.5 1569,-250.5 1569,-183.5 1569,-120.9556 1649.557,-87.9173 1695.9914,-74.0687"/>
<polygon fill="#191970" stroke="#191970" points="1697.2315,-77.3548 1705.8917,-71.2514 1695.3156,-70.6221 1697.2315,-77.3548"/>
</g>
<!-- Node46&#45;&gt;Node20 -->
<g id="edge65" class="edge">
<title>Node46&#45;&gt;Node20</title>
<path fill="none" stroke="#191970" d="M1347.5935,-425.4995C1333.7282,-417.6637 1315.8487,-405.2101 1306,-389 1295.4759,-371.6784 1292.8102,-348.328 1292.4135,-331.8975"/>
<polygon fill="#191970" stroke="#191970" points="1295.9136,-331.794 1292.4328,-321.7873 1288.9137,-331.7806 1295.9136,-331.794"/>
</g>
<!-- Node46&#45;&gt;Node43 -->
<g id="edge63" class="edge">
<title>Node46&#45;&gt;Node43</title>
<path fill="none" stroke="#191970" d="M1454.7041,-428.29C1573.8784,-418.799 1775.8803,-401.2473 1808,-389 1830.0137,-380.6061 1830.5607,-369.7173 1851,-358 1873.7708,-344.946 1900.9389,-333.0446 1921.796,-324.6192"/>
<polygon fill="#191970" stroke="#191970" points="1923.1875,-327.8325 1931.1881,-320.8869 1920.6024,-321.3273 1923.1875,-327.8325"/>
</g>
<!-- Node47 -->
<g id="node31" class="node">
<title>Node47</title>
<g id="a_node31"><a xlink:href="Indices_8h.html" target="_top" xlink:title="iDynTree/Model/Indices.h">
<polygon fill="none" stroke="#000000" points="2172,-302.5 2172,-321.5 2310,-321.5 2310,-302.5 2172,-302.5"/>
<text text-anchor="middle" x="2241" y="-309.5" font-family="FreeSans.ttf" font-size="10.00" fill="#000000">iDynTree/Model/Indices.h</text>
</a>
</g>
</g>
<!-- Node46&#45;&gt;Node47 -->
<g id="edge67" class="edge">
<title>Node46&#45;&gt;Node47</title>
<path fill="none" stroke="#191970" d="M1454.8921,-432.4064C1690.061,-425.2603 2316.9626,-404.7712 2332,-389 2341.5076,-379.0284 2339.2177,-369.7359 2332,-358 2322.6199,-342.7479 2306.4458,-332.3672 2290.311,-325.3894"/>
<polygon fill="#191970" stroke="#191970" points="2291.4539,-322.0778 2280.8672,-321.6631 2288.8846,-328.5893 2291.4539,-322.0778"/>
</g>
<!-- Node48 -->
<g id="node32" class="node">
<title>Node48</title>
<g id="a_node32"><a xlink:href="FreeFloatingMatrices_8h.html" target="_top" xlink:title="iDynTree/Model/FreeFloating\lMatrices.h">
<polygon fill="none" stroke="#000000" points="1105,-358.5 1105,-388.5 1259,-388.5 1259,-358.5 1105,-358.5"/>
<text text-anchor="start" x="1113" y="-376.5" font-family="FreeSans.ttf" font-size="10.00" fill="#000000">iDynTree/Model/FreeFloating</text>
<text text-anchor="middle" x="1182" y="-365.5" font-family="FreeSans.ttf" font-size="10.00" fill="#000000">Matrices.h</text>
</a>
</g>
</g>
<!-- Node46&#45;&gt;Node48 -->
<g id="edge69" class="edge">
<title>Node46&#45;&gt;Node48</title>
<path fill="none" stroke="#191970" d="M1338.0938,-425.3906C1311.0857,-416.4123 1270.0585,-402.7735 1236.8431,-391.7316"/>
<polygon fill="#191970" stroke="#191970" points="1237.8496,-388.378 1227.2561,-388.5446 1235.6414,-395.0205 1237.8496,-388.378"/>
</g>
<!-- Node49 -->
<g id="node33" class="node">
<title>Node49</title>
<g id="a_node33"><a xlink:href="LinkState_8h.html" target="_top" xlink:title="iDynTree/Model/LinkState.h">
<polygon fill="none" stroke="#ff0000" points="1314.5,-364 1314.5,-383 1463.5,-383 1463.5,-364 1314.5,-364"/>
<text text-anchor="middle" x="1389" y="-371" font-family="FreeSans.ttf" font-size="10.00" fill="#000000">iDynTree/Model/LinkState.h</text>
</a>
</g>
</g>
<!-- Node46&#45;&gt;Node49 -->
<g id="edge71" class="edge">
<title>Node46&#45;&gt;Node49</title>
<path fill="none" stroke="#191970" d="M1370.4375,-425.3906C1373.5513,-416.6862 1378.232,-403.6015 1382.114,-392.7494"/>
<polygon fill="#191970" stroke="#191970" points="1385.4412,-393.8394 1385.514,-383.2449 1378.8503,-391.4817 1385.4412,-393.8394"/>
</g>
<!-- Node47&#45;&gt;Node16 -->
<g id="edge68" class="edge">
<title>Node47&#45;&gt;Node16</title>
<path fill="none" stroke="#191970" d="M2237.8427,-302.3371C2226.4383,-269.144 2183.934,-159.2359 2107,-112 2049.1585,-76.4865 1841.2944,-68.3545 1760.4696,-66.5223"/>
<polygon fill="#191970" stroke="#191970" points="1760.4472,-63.0212 1750.3764,-66.3118 1760.3011,-70.0197 1760.4472,-63.0212"/>
</g>
<!-- Node48&#45;&gt;Node20 -->
<g id="edge70" class="edge">
<title>Node48&#45;&gt;Node20</title>
<path fill="none" stroke="#191970" d="M1209.1537,-358.4554C1226.6995,-348.734 1249.4122,-336.15 1266.7721,-326.5317"/>
<polygon fill="#191970" stroke="#191970" points="1268.748,-329.4383 1275.7989,-321.5303 1265.3555,-323.3153 1268.748,-329.4383"/>
</g>
<!-- Node49&#45;&gt;Node21 -->
<g id="edge73" class="edge">
<title>Node49&#45;&gt;Node21</title>
<path fill="none" stroke="#191970" d="M1321.5781,-363.9639C1304.1531,-361.7465 1285.4011,-359.5764 1268,-358 972.159,-331.1996 893.75,-350.8204 594.3335,-322.0449"/>
<polygon fill="#191970" stroke="#191970" points="594.3365,-318.5288 584.045,-321.0455 593.6597,-325.496 594.3365,-318.5288"/>
</g>
<!-- Node49&#45;&gt;Node39 -->
<g id="edge72" class="edge">
<title>Node49&#45;&gt;Node39</title>
<path fill="none" stroke="#191970" d="M1401.3438,-363.8906C1413.7503,-354.2324 1433.0843,-339.1812 1447.7413,-327.771"/>
<polygon fill="#191970" stroke="#191970" points="1450.0021,-330.4466 1455.7429,-321.5419 1445.7021,-324.923 1450.0021,-330.4466"/>
</g>
<!-- Node49&#45;&gt;Node43 -->
<g id="edge77" class="edge">
<title>Node49&#45;&gt;Node43</title>
<path fill="none" stroke="#191970" d="M1463.5766,-365.3967C1587.7572,-351.9036 1832.0814,-325.356 1921.3348,-315.658"/>
<polygon fill="#191970" stroke="#191970" points="1921.8687,-319.1206 1931.4321,-314.5608 1921.1125,-312.1616 1921.8687,-319.1206"/>
</g>
<!-- Node49&#45;&gt;Node47 -->
<g id="edge76" class="edge">
<title>Node49&#45;&gt;Node47</title>
<path fill="none" stroke="#191970" d="M1463.8626,-368.0962C1623.9507,-356.5405 1998.2775,-329.5205 2161.9918,-317.7031"/>
<polygon fill="#191970" stroke="#191970" points="2162.272,-321.192 2171.994,-316.9811 2161.768,-314.2102 2162.272,-321.192"/>
</g>
<!-- Node49&#45;&gt;Node50 -->
<g id="edge74" class="edge">
<title>Node49&#45;&gt;Node50</title>
<path fill="none" stroke="#191970" d="M1319.6456,-363.9971C1302.7655,-361.8552 1284.7497,-359.7118 1268,-358 1059.144,-336.6552 1006.283,-338.646 797,-322 785.1806,-321.0599 772.7135,-320.0501 760.4538,-319.0467"/>
<polygon fill="#191970" stroke="#191970" points="760.4762,-315.5369 750.2233,-318.207 759.9035,-322.5134 760.4762,-315.5369"/>
</g>
<!-- Node50&#45;&gt;Node22 -->
<g id="edge75" class="edge">
<title>Node50&#45;&gt;Node22</title>
<path fill="none" stroke="#191970" d="M653.8125,-302.3906C633.6158,-293.6435 603.2056,-280.4728 578.077,-269.5897"/>
<polygon fill="#191970" stroke="#191970" points="579.3045,-266.3072 568.7371,-265.5446 576.5224,-272.7306 579.3045,-266.3072"/>
</g>
<!-- Node57&#45;&gt;Node39 -->
<g id="edge83" class="edge">
<title>Node57&#45;&gt;Node39</title>
<path fill="none" stroke="#191970" d="M2181.7073,-425.4408C2103.4271,-410.1144 1943.8872,-379.578 1808,-358 1720.5294,-344.1103 1619.9706,-330.8375 1551.0345,-322.1505"/>
<polygon fill="#191970" stroke="#191970" points="1551.4566,-318.6761 1541.0984,-320.9026 1550.5843,-325.6216 1551.4566,-318.6761"/>
</g>
<!-- Node57&#45;&gt;Node43 -->
<g id="edge92" class="edge">
<title>Node57&#45;&gt;Node43</title>
<path fill="none" stroke="#191970" d="M2212.4806,-425.3734C2196.2973,-416.3466 2171.7037,-402.2859 2151,-389 2130.8671,-376.0804 2128.5003,-368.4873 2107,-358 2068.2617,-339.1045 2020.154,-326.1328 1988.5654,-318.8963"/>
<polygon fill="#191970" stroke="#191970" points="1989.0449,-315.4175 1978.5234,-316.6618 1987.5244,-322.2504 1989.0449,-315.4175"/>
</g>
<!-- Node57&#45;&gt;Node47 -->
<g id="edge84" class="edge">
<title>Node57&#45;&gt;Node47</title>
<path fill="none" stroke="#191970" d="M2275.411,-425.4711C2310.2926,-417.1225 2354.2638,-404.0006 2365,-389 2373.0188,-377.7962 2372.8678,-369.3104 2365,-358 2356.008,-345.0735 2321.0575,-332.794 2290.5451,-324.1788"/>
<polygon fill="#191970" stroke="#191970" points="2291.4026,-320.7848 2280.8329,-321.5143 2289.5505,-327.5354 2291.4026,-320.7848"/>
</g>
<!-- Node58 -->
<g id="node36" class="node">
<title>Node58</title>
<g id="a_node36"><a xlink:href="IJoint_8h.html" target="_top" xlink:title="iDynTree/Model/IJoint.h">
<polygon fill="none" stroke="#000000" points="2417,-364 2417,-383 2545,-383 2545,-364 2417,-364"/>
<text text-anchor="middle" x="2481" y="-371" font-family="FreeSans.ttf" font-size="10.00" fill="#000000">iDynTree/Model/IJoint.h</text>
</a>
</g>
</g>
<!-- Node57&#45;&gt;Node58 -->
<g id="edge79" class="edge">
<title>Node57&#45;&gt;Node58</title>
<path fill="none" stroke="#191970" d="M2268.9434,-425.4581C2312.9087,-414.6857 2384.5065,-397.1428 2432.1751,-385.4631"/>
<polygon fill="#191970" stroke="#191970" points="2433.0855,-388.8436 2441.9653,-383.0643 2431.4196,-382.0447 2433.0855,-388.8436"/>
</g>
<!-- Node59 -->
<g id="node37" class="node">
<title>Node59</title>
<g id="a_node37"><a xlink:href="Link_8h.html" target="_top" xlink:title="iDynTree/Model/Link.h">
<polygon fill="none" stroke="#ff0000" points="2563,-364 2563,-383 2687,-383 2687,-364 2563,-364"/>
<text text-anchor="middle" x="2625" y="-371" font-family="FreeSans.ttf" font-size="10.00" fill="#000000">iDynTree/Model/Link.h</text>
</a>
</g>
</g>
<!-- Node57&#45;&gt;Node59 -->
<g id="edge81" class="edge">
<title>Node57&#45;&gt;Node59</title>
<path fill="none" stroke="#191970" d="M2296.6261,-427.003C2362.29,-418.7776 2465.3723,-404.9431 2554,-389 2560.3562,-387.8566 2567.0091,-386.5508 2573.586,-385.1931"/>
<polygon fill="#191970" stroke="#191970" points="2574.745,-388.5256 2583.8049,-383.033 2573.2973,-381.6769 2574.745,-388.5256"/>
</g>
<!-- Node64 -->
<g id="node38" class="node">
<title>Node64</title>
<g id="a_node38"><a xlink:href="SolidShapes_8h.html" target="_top" xlink:title="iDynTree/Model/SolidShapes.h">
<polygon fill="none" stroke="#000000" points="2159.5,-364 2159.5,-383 2322.5,-383 2322.5,-364 2159.5,-364"/>
<text text-anchor="middle" x="2241" y="-371" font-family="FreeSans.ttf" font-size="10.00" fill="#000000">iDynTree/Model/SolidShapes.h</text>
</a>
</g>
</g>
<!-- Node57&#45;&gt;Node64 -->
<g id="edge85" class="edge">
<title>Node57&#45;&gt;Node64</title>
<path fill="none" stroke="#191970" d="M2231.7188,-425.3906C2233.2435,-416.8657 2235.5198,-404.1392 2237.4364,-393.4235"/>
<polygon fill="#191970" stroke="#191970" points="2240.9416,-393.7049 2239.257,-383.2449 2234.0509,-392.4724 2240.9416,-393.7049"/>
</g>
<!-- Node65 -->
<g id="node39" class="node">
<title>Node65</title>
<polygon fill="none" stroke="#bfbfbf" points="2328.5,-302.5 2328.5,-321.5 2377.5,-321.5 2377.5,-302.5 2328.5,-302.5"/>
<text text-anchor="middle" x="2353" y="-309.5" font-family="FreeSans.ttf" font-size="10.00" fill="#000000">cstdlib</text>
</g>
<!-- Node57&#45;&gt;Node65 -->
<g id="edge91" class="edge">
<title>Node57&#45;&gt;Node65</title>
<path fill="none" stroke="#191970" d="M2296.9422,-433.2646C2419.4753,-429.3925 2669.7293,-417.9916 2696,-389 2705.2515,-378.7903 2705.1613,-368.2906 2696,-358 2651.9177,-308.4837 2470.508,-333.5247 2387.8106,-321.5586"/>
<polygon fill="#191970" stroke="#191970" points="2388.2116,-318.0759 2377.7599,-319.8114 2387.0127,-324.9724 2388.2116,-318.0759"/>
</g>
<!-- Node58&#45;&gt;Node47 -->
<g id="edge80" class="edge">
<title>Node58&#45;&gt;Node47</title>
<path fill="none" stroke="#191970" d="M2443.7633,-363.9581C2401.9006,-353.2308 2333.8372,-335.7895 2288.2585,-324.11"/>
<polygon fill="#191970" stroke="#191970" points="2288.8799,-320.6562 2278.324,-321.5643 2287.1422,-327.4371 2288.8799,-320.6562"/>
</g>
<!-- Node59&#45;&gt;Node47 -->
<g id="edge82" class="edge">
<title>Node59&#45;&gt;Node47</title>
<path fill="none" stroke="#191970" d="M2583.4236,-363.9203C2573.7884,-361.8402 2563.5572,-359.7433 2554,-358 2474.7592,-343.5455 2383.5877,-330.5558 2320.1601,-322.0964"/>
<polygon fill="#191970" stroke="#191970" points="2320.5982,-318.6239 2310.2246,-320.778 2319.6773,-325.5631 2320.5982,-318.6239"/>
</g>
<!-- Node64&#45;&gt;Node16 -->
<g id="edge87" class="edge">
<title>Node64&#45;&gt;Node16</title>
<path fill="none" stroke="#191970" d="M2211.4057,-363.983C2168.2155,-348.0218 2093,-311.4726 2093,-250.5 2093,-250.5 2093,-250.5 2093,-183.5 2093,-149.9798 2094.8413,-133.3503 2069,-112 2045.3654,-92.4729 1840.3643,-74.6838 1760.0654,-68.4017"/>
<polygon fill="#191970" stroke="#191970" points="1760.2715,-64.9073 1750.0315,-67.626 1759.7319,-71.8865 1760.2715,-64.9073"/>
</g>
<!-- Node64&#45;&gt;Node39 -->
<g id="edge89" class="edge">
<title>Node64&#45;&gt;Node39</title>
<path fill="none" stroke="#191970" d="M2159.3722,-367.0057C2011.4157,-355.2342 1700.4719,-330.4955 1551.2983,-318.6272"/>
<polygon fill="#191970" stroke="#191970" points="1551.5218,-315.134 1541.2757,-317.8298 1550.9666,-322.112 1551.5218,-315.134"/>
</g>
<!-- Node64&#45;&gt;Node43 -->
<g id="edge88" class="edge">
<title>Node64&#45;&gt;Node43</title>
<path fill="none" stroke="#191970" d="M2196.6263,-363.9581C2139.233,-351.6165 2040.5133,-330.3884 1988.8145,-319.2713"/>
<polygon fill="#191970" stroke="#191970" points="1989.3401,-315.8044 1978.8277,-317.1238 1987.8684,-322.648 1989.3401,-315.8044"/>
</g>
<!-- Node64&#45;&gt;Node47 -->
<g id="edge90" class="edge">
<title>Node64&#45;&gt;Node47</title>
<path fill="none" stroke="#191970" d="M2241,-363.8906C2241,-355.3657 2241,-342.6392 2241,-331.9235"/>
<polygon fill="#191970" stroke="#191970" points="2244.5001,-331.7448 2241,-321.7449 2237.5001,-331.7449 2244.5001,-331.7448"/>
</g>
<!-- Node64&#45;&gt;Node65 -->
<g id="edge86" class="edge">
<title>Node64&#45;&gt;Node65</title>
<path fill="none" stroke="#191970" d="M2258.5,-363.8906C2276.7465,-353.8713 2305.5624,-338.0483 2326.5806,-326.5071"/>
<polygon fill="#191970" stroke="#191970" points="2328.542,-329.423 2335.6229,-321.5419 2325.1728,-323.2872 2328.542,-329.423"/>
</g>
<!-- Node68&#45;&gt;Node39 -->
<g id="edge103" class="edge">
<title>Node68&#45;&gt;Node39</title>
<path fill="none" stroke="#191970" d="M1595.2211,-481.2206C1590.5002,-457.609 1575.7126,-396.5899 1543,-358 1531.5757,-344.5232 1515.1646,-333.8341 1500.605,-326.1649"/>
<polygon fill="#191970" stroke="#191970" points="1501.8865,-322.8929 1491.3756,-321.5622 1498.7625,-329.1572 1501.8865,-322.8929"/>
</g>
<!-- Node68&#45;&gt;Node44 -->
<g id="edge104" class="edge">
<title>Node68&#45;&gt;Node44</title>
<path fill="none" stroke="#191970" d="M1633.616,-481.3733C1669.648,-471.9001 1724.7878,-457.4032 1763.8114,-447.1435"/>
<polygon fill="#191970" stroke="#191970" points="1765.0804,-450.4289 1773.8618,-444.5011 1763.3005,-443.6589 1765.0804,-450.4289"/>
</g>
<!-- Node69&#45;&gt;Node5 -->
<g id="edge109" class="edge">
<title>Node69&#45;&gt;Node5</title>
<path fill="none" stroke="#191970" d="M2433.2802,-302.4087C2372.1527,-275.886 2192.8763,-201.323 2036,-168 1857.0689,-129.9922 1807.9423,-150.9192 1626,-132 1453.4303,-114.0554 1250.8949,-88.5528 1146.7152,-75.1076"/>
<polygon fill="#191970" stroke="#191970" points="1147.0059,-71.6161 1136.6397,-73.8053 1146.1085,-78.5584 1147.0059,-71.6161"/>
</g>
<!-- Node69&#45;&gt;Node16 -->
<g id="edge106" class="edge">
<title>Node69&#45;&gt;Node16</title>
<path fill="none" stroke="#191970" d="M2443.7069,-302.2949C2404.1957,-268.9639 2267.2701,-158.6594 2133,-112 2064.0805,-88.0502 1843.4077,-72.837 1760.1783,-67.8254"/>
<polygon fill="#191970" stroke="#191970" points="1760.2399,-64.323 1750.0504,-67.2253 1759.8258,-71.3107 1760.2399,-64.323"/>
</g>
<!-- Node69&#45;&gt;Node34 -->
<g id="edge108" class="edge">
<title>Node69&#45;&gt;Node34</title>
<path fill="none" stroke="#191970" d="M2395.6933,-303.031C2392.7562,-302.6645 2389.8461,-302.3181 2387,-302 2150.1786,-275.5308 1864.7969,-258.5486 1758.5544,-252.738"/>
<polygon fill="#191970" stroke="#191970" points="1758.7202,-249.2419 1748.5452,-252.1947 1758.3408,-256.2316 1758.7202,-249.2419"/>
</g>
<!-- Node69&#45;&gt;Node45 -->
<g id="edge107" class="edge">
<title>Node69&#45;&gt;Node45</title>
<path fill="none" stroke="#191970" d="M2395.8429,-302.7518C2330.7443,-292.3727 2230.3767,-275.7189 2193,-266 2118.5588,-246.6434 2034.0762,-214.7483 1988.8057,-196.8144"/>
<polygon fill="#191970" stroke="#191970" points="1990.0785,-193.554 1979.4933,-193.1027 1987.4867,-200.0565 1990.0785,-193.554"/>
</g>
<!-- Node70&#45;&gt;Node4 -->
<g id="edge112" class="edge">
<title>Node70&#45;&gt;Node4</title>
<path fill="none" stroke="#191970" d="M90.086,-537.4418C109.5907,-519.4968 148,-478.6211 148,-435 148,-435 148,-435 148,-312 148,-223.0478 206.7619,-206.3972 287,-168 323.9622,-150.3121 571.3975,-134.3283 708.2966,-126.7069"/>
<polygon fill="#191970" stroke="#191970" points="708.5701,-130.1972 718.3616,-126.1505 708.1837,-123.2079 708.5701,-130.1972"/>
</g>
<!-- Node71&#45;&gt;Node16 -->
<g id="edge123" class="edge">
<title>Node71&#45;&gt;Node16</title>
<path fill="none" stroke="#191970" d="M2148.5584,-537.4941C2353.9706,-513.8483 2867,-452.9908 2867,-435 2867,-435 2867,-435 2867,-183.5 2867,-142.9443 3203.0377,-190.5623 2514,-112 2222.8367,-78.8023 1868.1033,-68.9466 1760.4728,-66.6197"/>
<polygon fill="#191970" stroke="#191970" points="1760.3416,-63.1162 1750.2705,-66.4059 1760.1949,-70.1147 1760.3416,-63.1162"/>
</g>
<!-- Node71&#45;&gt;Node43 -->
<g id="edge124" class="edge">
<title>Node71&#45;&gt;Node43</title>
<path fill="none" stroke="#191970" d="M2068.888,-537.3769C2073.5873,-524.3223 2080.1459,-500.4032 2074,-481 2053.8939,-417.5234 2000.4157,-357.2781 1972.5062,-328.9285"/>
<polygon fill="#191970" stroke="#191970" points="1974.9133,-326.3859 1965.3613,-321.8021 1969.9699,-331.3421 1974.9133,-326.3859"/>
</g>
<!-- Node71&#45;&gt;Node57 -->
<g id="edge115" class="edge">
<title>Node71&#45;&gt;Node57</title>
<path fill="none" stroke="#191970" d="M2042.3363,-537.3556C2016.5487,-525.0364 1980.1772,-502.7036 1998,-481 2017.4916,-457.2642 2093.4252,-445.561 2153.1801,-439.9329"/>
<polygon fill="#191970" stroke="#191970" points="2153.7281,-443.3978 2163.3743,-439.0159 2153.101,-436.4259 2153.7281,-443.3978"/>
</g>
<!-- Node72 -->
<g id="node46" class="node">
<title>Node72</title>
<g id="a_node46"><a xlink:href="Sensors_8h.html" target="_top" xlink:title="iDynTree/Sensors/Sensors.h">
<polygon fill="none" stroke="#ff0000" points="2143.5,-481.5 2143.5,-500.5 2294.5,-500.5 2294.5,-481.5 2143.5,-481.5"/>
<text text-anchor="middle" x="2219" y="-488.5" font-family="FreeSans.ttf" font-size="10.00" fill="#000000">iDynTree/Sensors/Sensors.h</text>
</a>
</g>
</g>
<!-- Node71&#45;&gt;Node72 -->
<g id="edge116" class="edge">
<title>Node71&#45;&gt;Node72</title>
<path fill="none" stroke="#191970" d="M2091.4735,-537.3733C2116.8597,-528.1419 2155.3645,-514.1402 2183.422,-503.9375"/>
<polygon fill="#191970" stroke="#191970" points="2184.6701,-507.2079 2192.8719,-500.5011 2182.2778,-500.6293 2184.6701,-507.2079"/>
</g>
<!-- Node73 -->
<g id="node47" class="node">
<title>Node73</title>
<polygon fill="none" stroke="#bfbfbf" points="2007,-481.5 2007,-500.5 2065,-500.5 2065,-481.5 2007,-481.5"/>
<text text-anchor="middle" x="2036" y="-488.5" font-family="FreeSans.ttf" font-size="10.00" fill="#000000">memory</text>
</g>
<!-- Node71&#45;&gt;Node73 -->
<g id="edge122" class="edge">
<title>Node71&#45;&gt;Node73</title>
<path fill="none" stroke="#191970" d="M2059.9486,-537.2455C2055.9981,-529.617 2050.3903,-518.7881 2045.5942,-509.5267"/>
<polygon fill="#191970" stroke="#191970" points="2048.7001,-507.9131 2040.9935,-500.6427 2042.4841,-511.1321 2048.7001,-507.9131"/>
</g>
<!-- Node72&#45;&gt;Node16 -->
<g id="edge117" class="edge">
<title>Node72&#45;&gt;Node16</title>
<path fill="none" stroke="#191970" d="M2294.6486,-487.2505C2376.0698,-482.0801 2508.9776,-470.3463 2621,-445 2716.3437,-423.4274 2829,-471.2538 2829,-373.5 2829,-373.5 2829,-373.5 2829,-183.5 2829,-128.3117 1942.7952,-77.5728 1760.5334,-67.7212"/>
<polygon fill="#191970" stroke="#191970" points="1760.6653,-64.2233 1750.4918,-67.1814 1760.2895,-71.2133 1760.6653,-64.2233"/>
</g>
<!-- Node72&#45;&gt;Node19 -->
<g id="edge119" class="edge">
<title>Node72&#45;&gt;Node19</title>
<path fill="none" stroke="#191970" d="M2143.3735,-485.0627C2014.009,-474.7524 1760.2378,-453.7992 1720,-445 1606.2985,-420.1358 1586.5472,-383.5598 1473,-358 1409.2392,-343.6473 1235.796,-328.048 1126.6816,-319.2028"/>
<polygon fill="#191970" stroke="#191970" points="1126.9048,-315.7096 1116.6558,-318.3944 1126.3421,-322.6869 1126.9048,-315.7096"/>
</g>
<!-- Node72&#45;&gt;Node43 -->
<g id="edge118" class="edge">
<title>Node72&#45;&gt;Node43</title>
<path fill="none" stroke="#191970" d="M2204.8062,-481.3762C2161.474,-451.9956 2030.6342,-363.2823 1977.6465,-327.355"/>
<polygon fill="#191970" stroke="#191970" points="1979.505,-324.3865 1969.264,-321.6714 1975.5766,-330.1803 1979.505,-324.3865"/>
</g>
<!-- Node72&#45;&gt;Node47 -->
<g id="edge121" class="edge">
<title>Node72&#45;&gt;Node47</title>
<path fill="none" stroke="#191970" d="M2294.8901,-486.0661C2416.4937,-476.4035 2646.4077,-450.3181 2696,-389 2704.6641,-378.2874 2705.2665,-368.1961 2696,-358 2669.2617,-328.5794 2393.2193,-326.7535 2320.5206,-321.767"/>
<polygon fill="#191970" stroke="#191970" points="2320.6091,-318.2619 2310.3479,-320.8995 2320.0143,-325.2366 2320.6091,-318.2619"/>
</g>
<!-- Node72&#45;&gt;Node57 -->
<g id="edge120" class="edge">
<title>Node72&#45;&gt;Node57</title>
<path fill="none" stroke="#191970" d="M2220.9161,-481.2455C2222.3514,-473.9382 2224.3636,-463.6944 2226.1295,-454.7046"/>
<polygon fill="#191970" stroke="#191970" points="2229.6127,-455.1298 2228.1059,-444.6427 2222.744,-453.7805 2229.6127,-455.1298"/>
</g>
<!-- Node74&#45;&gt;Node4 -->
<g id="edge128" class="edge">
<title>Node74&#45;&gt;Node4</title>
<path fill="none" stroke="#191970" d="M358.1339,-363.9685C313.6123,-355.2105 256.9602,-340.7524 243,-322 219.9104,-290.9842 222.3882,-267.7149 243,-235 291.8412,-157.4798 563.3161,-132.953 708.0563,-125.3368"/>
<polygon fill="#191970" stroke="#191970" points="708.4449,-128.8216 718.2538,-124.8172 708.0886,-121.8307 708.4449,-128.8216"/>
</g>
<!-- Node74&#45;&gt;Node5 -->
<g id="edge135" class="edge">
<title>Node74&#45;&gt;Node5</title>
<path fill="none" stroke="#191970" d="M350.6064,-363.9268C302.8755,-355.3987 243.5203,-341.2796 228,-322 182.0384,-264.9056 221.9208,-201.7185 287,-168 350.4248,-135.1386 826.0677,-88.8796 1007.2234,-72.2545"/>
<polygon fill="#191970" stroke="#191970" points="1007.796,-75.7169 1017.4355,-71.3201 1007.1581,-68.746 1007.796,-75.7169"/>
</g>
<!-- Node74&#45;&gt;Node19 -->
<g id="edge127" class="edge">
<title>Node74&#45;&gt;Node19</title>
<path fill="none" stroke="#191970" d="M495.6767,-365.8707C596.8155,-356.2456 775.8013,-339.0121 939.0357,-322.1954"/>
<polygon fill="#191970" stroke="#191970" points="939.6792,-325.6477 949.2671,-321.1397 938.9607,-318.6846 939.6792,-325.6477"/>
</g>
<!-- Node74&#45;&gt;Node20 -->
<g id="edge129" class="edge">
<title>Node74&#45;&gt;Node20</title>
<path fill="none" stroke="#191970" d="M495.6349,-367.8519C658.465,-356.4464 1025.7355,-330.7207 1199.0681,-318.5795"/>
<polygon fill="#191970" stroke="#191970" points="1199.4616,-322.0606 1209.1926,-317.8703 1198.9724,-315.0777 1199.4616,-322.0606"/>
</g>
<!-- Node74&#45;&gt;Node22 -->
<g id="edge131" class="edge">
<title>Node74&#45;&gt;Node22</title>
<path fill="none" stroke="#191970" d="M418.3348,-363.7388C423.7495,-348.9962 435.6265,-320.7811 453,-302 464.4177,-289.6573 479.4179,-279.0438 493.4029,-270.7138"/>
<polygon fill="#191970" stroke="#191970" points="495.4521,-273.5741 502.3987,-265.5744 491.9796,-267.4961 495.4521,-273.5741"/>
</g>
<!-- Node74&#45;&gt;Node39 -->
<g id="edge134" class="edge">
<title>Node74&#45;&gt;Node39</title>
<path fill="none" stroke="#191970" d="M495.777,-369.5341C706.3262,-359.1529 1263.4782,-331.3883 1384.6578,-322.013"/>
<polygon fill="#191970" stroke="#191970" points="1385.0276,-325.4945 1394.7084,-321.1898 1384.4561,-318.5179 1385.0276,-325.4945"/>
</g>
<!-- Node74&#45;&gt;Node28 -->
<g id="edge130" class="edge">
<title>Node74&#45;&gt;Node28</title>
<path fill="none" stroke="#191970" d="M415.096,-363.7983C415.6791,-326.7443 419.8053,-194.8849 449,-168 483.3565,-136.3616 806.9241,-136.6314 887.2769,-131.9116"/>
<polygon fill="#191970" stroke="#191970" points="887.7664,-135.3851 897.4812,-131.1575 887.2504,-128.4041 887.7664,-135.3851"/>
</g>
<!-- Node75 -->
<g id="node49" class="node">
<title>Node75</title>
<polygon fill="none" stroke="#bfbfbf" points="252.5,-302.5 252.5,-321.5 329.5,-321.5 329.5,-302.5 252.5,-302.5"/>
<text text-anchor="middle" x="291" y="-309.5" font-family="FreeSans.ttf" font-size="10.00" fill="#000000">Eigen/Dense</text>
</g>
<!-- Node74&#45;&gt;Node75 -->
<g id="edge126" class="edge">
<title>Node74&#45;&gt;Node75</title>
<path fill="none" stroke="#191970" d="M395.625,-363.8906C375.1505,-353.7359 342.6558,-337.6196 319.3115,-326.0416"/>
<polygon fill="#191970" stroke="#191970" points="320.7528,-322.8496 310.2389,-321.5419 317.6425,-329.1207 320.7528,-322.8496"/>
</g>
<!-- Node52 -->
<g id="node50" class="node">
<title>Node52</title>
<g id="a_node50"><a xlink:href="SpatialForceVector_8h.html" target="_top" xlink:title="iDynTree/Core/SpatialForce\lVector.h">
<polygon fill="none" stroke="#ff0000" points="252,-235.5 252,-265.5 400,-265.5 400,-235.5 252,-235.5"/>
<text text-anchor="start" x="260" y="-253.5" font-family="FreeSans.ttf" font-size="10.00" fill="#000000">iDynTree/Core/SpatialForce</text>
<text text-anchor="middle" x="326" y="-242.5" font-family="FreeSans.ttf" font-size="10.00" fill="#000000">Vector.h</text>
</a>
</g>
</g>
<!-- Node74&#45;&gt;Node52 -->
<g id="edge132" class="edge">
<title>Node74&#45;&gt;Node52</title>
<path fill="none" stroke="#191970" d="M408.0163,-363.8484C394.1131,-344.6339 362.6214,-301.1115 342.9566,-273.9344"/>
<polygon fill="#191970" stroke="#191970" points="345.7225,-271.7863 337.0248,-265.7365 340.0514,-275.8898 345.7225,-271.7863"/>
</g>
<!-- Node52&#45;&gt;Node4 -->
<g id="edge133" class="edge">
<title>Node52&#45;&gt;Node4</title>
<path fill="none" stroke="#191970" d="M341.2675,-235.3407C361.6409,-216.1274 399.7322,-183.6323 439,-168 486.4193,-149.1227 617.9951,-135.7157 708.222,-128.4154"/>
<polygon fill="#191970" stroke="#191970" points="708.7725,-131.8827 718.4625,-127.5986 708.2158,-124.9049 708.7725,-131.8827"/>
</g>
</g>
</svg>
