<?xml version="1.0" encoding="UTF-8" standalone="no"?>
<!DOCTYPE svg PUBLIC "-//W3C//DTD SVG 1.1//EN"
 "http://www.w3.org/Graphics/SVG/1.1/DTD/svg11.dtd">
<!-- Generated by graphviz version 2.40.1 (20161225.0304)
 -->
<!-- Title: LinearForceVector3.h Pages: 1 -->
<svg width="5110pt" height="263pt"
 viewBox="0.00 0.00 5109.79 263.00" xmlns="http://www.w3.org/2000/svg" xmlns:xlink="http://www.w3.org/1999/xlink">
<g id="graph0" class="graph" transform="scale(1 1) rotate(0) translate(4 259)">
<title>LinearForceVector3.h</title>
<!-- Node24 -->
<g id="node1" class="node">
<title>Node24</title>
<polygon fill="#bfbfbf" stroke="#000000" points="4656.7862,-235.5 4656.7862,-254.5 4775.7862,-254.5 4775.7862,-235.5 4656.7862,-235.5"/>
<text text-anchor="middle" x="4716.2862" y="-242.5" font-family="FreeSans.ttf" font-size="10.00" fill="#000000">LinearForceVector3.h</text>
</g>
<!-- Node25 -->
<g id="node2" class="node">
<title>Node25</title>
<g id="a_node2"><a xlink:href="SpatialForceVector_8h.html" target="_top" xlink:title="SpatialForceVector.h">
<polygon fill="none" stroke="#000000" points="4316.2862,-179.5 4316.2862,-198.5 4432.2862,-198.5 4432.2862,-179.5 4316.2862,-179.5"/>
<text text-anchor="middle" x="4374.2862" y="-186.5" font-family="FreeSans.ttf" font-size="10.00" fill="#000000">SpatialForceVector.h</text>
</a>
</g>
</g>
<!-- Node24&#45;&gt;Node25 -->
<g id="edge1" class="edge">
<title>Node24&#45;&gt;Node25</title>
<path fill="none" stroke="#191970" d="M4647.6278,-233.7577C4584.5217,-223.4245 4491.9972,-208.2743 4432.4487,-198.5237"/>
<polygon fill="#191970" stroke="#191970" points="4647.4488,-237.2749 4657.8829,-235.4369 4648.5799,-230.3669 4647.4488,-237.2749"/>
</g>
<!-- Node223 -->
<g id="node46" class="node">
<title>Node223</title>
<g id="a_node46"><a xlink:href="AngularForceVector3_8cpp.html" target="_top" xlink:title="AngularForceVector3.cpp">
<polygon fill="none" stroke="#000000" points="4450.7862,-179.5 4450.7862,-198.5 4587.7862,-198.5 4587.7862,-179.5 4450.7862,-179.5"/>
<text text-anchor="middle" x="4519.2862" y="-186.5" font-family="FreeSans.ttf" font-size="10.00" fill="#000000">AngularForceVector3.cpp</text>
</a>
</g>
</g>
<!-- Node24&#45;&gt;Node223 -->
<g id="edge61" class="edge">
<title>Node24&#45;&gt;Node223</title>
<path fill="none" stroke="#191970" d="M4672.6233,-232.5882C4636.4293,-222.2996 4585.7368,-207.8895 4552.7098,-198.5011"/>
<polygon fill="#191970" stroke="#191970" points="4671.8448,-236.0055 4682.4207,-235.3733 4673.7588,-229.2723 4671.8448,-236.0055"/>
</g>
<!-- Node224 -->
<g id="node47" class="node">
<title>Node224</title>
<g id="a_node47"><a xlink:href="ForceVector3_8cpp.html" target="_top" xlink:title="ForceVector3.cpp">
<polygon fill="none" stroke="#000000" points="4606.2862,-179.5 4606.2862,-198.5 4706.2862,-198.5 4706.2862,-179.5 4606.2862,-179.5"/>
<text text-anchor="middle" x="4656.2862" y="-186.5" font-family="FreeSans.ttf" font-size="10.00" fill="#000000">ForceVector3.cpp</text>
</a>
</g>
</g>
<!-- Node24&#45;&gt;Node224 -->
<g id="edge62" class="edge">
<title>Node24&#45;&gt;Node224</title>
<path fill="none" stroke="#191970" d="M4698.4584,-228.3607C4688.0784,-218.6727 4675.3572,-206.7995 4666.6177,-198.6427"/>
<polygon fill="#191970" stroke="#191970" points="4696.1363,-230.981 4705.835,-235.2455 4700.9126,-225.8636 4696.1363,-230.981"/>
</g>
<!-- Node225 -->
<g id="node48" class="node">
<title>Node225</title>
<g id="a_node48"><a xlink:href="GeomVector3_8cpp.html" target="_top" xlink:title="GeomVector3.cpp">
<polygon fill="none" stroke="#000000" points="4724.7862,-179.5 4724.7862,-198.5 4827.7862,-198.5 4827.7862,-179.5 4724.7862,-179.5"/>
<text text-anchor="middle" x="4776.2862" y="-186.5" font-family="FreeSans.ttf" font-size="10.00" fill="#000000">GeomVector3.cpp</text>
</a>
</g>
</g>
<!-- Node24&#45;&gt;Node225 -->
<g id="edge63" class="edge">
<title>Node24&#45;&gt;Node225</title>
<path fill="none" stroke="#191970" d="M4734.114,-228.3607C4744.4941,-218.6727 4757.2153,-206.7995 4765.9548,-198.6427"/>
<polygon fill="#191970" stroke="#191970" points="4731.6599,-225.8636 4726.7374,-235.2455 4736.4361,-230.981 4731.6599,-225.8636"/>
</g>
<!-- Node226 -->
<g id="node49" class="node">
<title>Node226</title>
<g id="a_node49"><a xlink:href="LinearForceVector3_8cpp.html" target="_top" xlink:title="LinearForceVector3.cpp">
<polygon fill="none" stroke="#000000" points="4846.2862,-179.5 4846.2862,-198.5 4976.2862,-198.5 4976.2862,-179.5 4846.2862,-179.5"/>
<text text-anchor="middle" x="4911.2862" y="-186.5" font-family="FreeSans.ttf" font-size="10.00" fill="#000000">LinearForceVector3.cpp</text>
</a>
</g>
</g>
<!-- Node24&#45;&gt;Node226 -->
<g id="edge64" class="edge">
<title>Node24&#45;&gt;Node226</title>
<path fill="none" stroke="#191970" d="M4759.5058,-232.5882C4795.3324,-222.2996 4845.5103,-207.8895 4878.202,-198.5011"/>
<polygon fill="#191970" stroke="#191970" points="4758.4533,-229.2489 4749.8079,-235.3733 4760.3855,-235.977 4758.4533,-229.2489"/>
</g>
<!-- Node227 -->
<g id="node50" class="node">
<title>Node227</title>
<g id="a_node50"><a xlink:href="MotionVector3_8cpp.html" target="_top" xlink:title="MotionVector3.cpp">
<polygon fill="none" stroke="#000000" points="4994.7862,-179.5 4994.7862,-198.5 5101.7862,-198.5 5101.7862,-179.5 4994.7862,-179.5"/>
<text text-anchor="middle" x="5048.2862" y="-186.5" font-family="FreeSans.ttf" font-size="10.00" fill="#000000">MotionVector3.cpp</text>
</a>
</g>
</g>
<!-- Node24&#45;&gt;Node227 -->
<g id="edge65" class="edge">
<title>Node24&#45;&gt;Node227</title>
<path fill="none" stroke="#191970" d="M4783.0922,-233.7315C4845.3301,-223.2336 4936.9456,-207.7804 4994.5735,-198.06"/>
<polygon fill="#191970" stroke="#191970" points="4782.2604,-230.3223 4772.9818,-235.4369 4783.4247,-237.2248 4782.2604,-230.3223"/>
</g>
<!-- Node26 -->
<g id="node3" class="node">
<title>Node26</title>
<g id="a_node3"><a xlink:href="EigenHelpers_8h.html" target="_top" xlink:title="EigenHelpers.h">
<polygon fill="none" stroke="#ff0000" points="2344.2862,-123.5 2344.2862,-142.5 2434.2862,-142.5 2434.2862,-123.5 2344.2862,-123.5"/>
<text text-anchor="middle" x="2389.2862" y="-130.5" font-family="FreeSans.ttf" font-size="10.00" fill="#000000">EigenHelpers.h</text>
</a>
</g>
</g>
<!-- Node25&#45;&gt;Node26 -->
<g id="edge2" class="edge">
<title>Node25&#45;&gt;Node26</title>
<path fill="none" stroke="#191970" d="M4305.9117,-187.071C3992.0813,-178.2174 2693.8364,-141.5918 2434.4894,-134.2753"/>
<polygon fill="#191970" stroke="#191970" points="4306.1265,-190.5784 4316.2213,-187.3619 4306.324,-183.5812 4306.1265,-190.5784"/>
</g>
<!-- Node29 -->
<g id="node5" class="node">
<title>Node29</title>
<g id="a_node5"><a xlink:href="SpatialInertiaRaw_8cpp.html" target="_top" xlink:title="SpatialInertiaRaw.cpp">
<polygon fill="none" stroke="#000000" points="3861.2862,-.5 3861.2862,-19.5 3983.2862,-19.5 3983.2862,-.5 3861.2862,-.5"/>
<text text-anchor="middle" x="3922.2862" y="-7.5" font-family="FreeSans.ttf" font-size="10.00" fill="#000000">SpatialInertiaRaw.cpp</text>
</a>
</g>
</g>
<!-- Node25&#45;&gt;Node29 -->
<g id="edge53" class="edge">
<title>Node25&#45;&gt;Node29</title>
<path fill="none" stroke="#191970" d="M4442.7373,-179.3032C4521.6382,-173.8809 4833.0847,-175.8943 4863.2862,-143 4869.2979,-136.4523 4866.657,-131.225 4863.2862,-123 4847.4357,-84.3229 4835.406,-73.1477 4797.2862,-56 4723.6296,-22.8664 4169.9907,-13.0493 3983.4382,-10.6656"/>
<polygon fill="#191970" stroke="#191970" points="4442.1496,-175.8412 4432.4942,-180.2028 4442.762,-182.8144 4442.1496,-175.8412"/>
</g>
<!-- Node31 -->
<g id="node6" class="node">
<title>Node31</title>
<g id="a_node6"><a xlink:href="SpatialMotionVector_8cpp.html" target="_top" xlink:title="SpatialMotionVector.cpp">
<polygon fill="none" stroke="#000000" points="107.2862,-.5 107.2862,-19.5 241.2862,-19.5 241.2862,-.5 107.2862,-.5"/>
<text text-anchor="middle" x="174.2862" y="-7.5" font-family="FreeSans.ttf" font-size="10.00" fill="#000000">SpatialMotionVector.cpp</text>
</a>
</g>
</g>
<!-- Node25&#45;&gt;Node31 -->
<g id="edge54" class="edge">
<title>Node25&#45;&gt;Node31</title>
<path fill="none" stroke="#191970" d="M4306.0324,-188.6945C3872.4737,-186.6688 1497.2166,-174.2799 771.2862,-143 601.6536,-135.6906 124.8624,-211.3816 9.2862,-87 -25.0888,-50.0061 47.6897,-29.1981 107.2749,-18.7809"/>
<polygon fill="#191970" stroke="#191970" points="4306.1942,-192.1952 4316.2104,-188.7418 4306.2268,-185.1953 4306.1942,-192.1952"/>
</g>
<!-- Node41 -->
<g id="node13" class="node">
<title>Node41</title>
<g id="a_node13"><a xlink:href="SpatialForceVector_8cpp.html" target="_top" xlink:title="SpatialForceVector.cpp">
<polygon fill="none" stroke="#000000" points="18.7862,-62 18.7862,-81 145.7862,-81 145.7862,-62 18.7862,-62"/>
<text text-anchor="middle" x="82.2862" y="-69" font-family="FreeSans.ttf" font-size="10.00" fill="#000000">SpatialForceVector.cpp</text>
</a>
</g>
</g>
<!-- Node25&#45;&gt;Node41 -->
<g id="edge52" class="edge">
<title>Node25&#45;&gt;Node41</title>
<path fill="none" stroke="#191970" d="M4305.8667,-188.7268C3831.1853,-186.6232 1022.2641,-170.7515 172.2862,-87 158.5588,-85.6474 143.7673,-83.424 130.2204,-81.0779"/>
<polygon fill="#191970" stroke="#191970" points="4305.9755,-192.2272 4315.9908,-188.7711 4306.0062,-185.2273 4305.9755,-192.2272"/>
</g>
<!-- Node100 -->
<g id="node39" class="node">
<title>Node100</title>
<g id="a_node39"><a xlink:href="SpatialMomentum_8h.html" target="_top" xlink:title="SpatialMomentum.h">
<polygon fill="none" stroke="#ff0000" points="4204.7862,-123.5 4204.7862,-142.5 4319.7862,-142.5 4319.7862,-123.5 4204.7862,-123.5"/>
<text text-anchor="middle" x="4262.2862" y="-130.5" font-family="FreeSans.ttf" font-size="10.00" fill="#000000">SpatialMomentum.h</text>
</a>
</g>
</g>
<!-- Node25&#45;&gt;Node100 -->
<g id="edge39" class="edge">
<title>Node25&#45;&gt;Node100</title>
<path fill="none" stroke="#191970" d="M4345.9599,-174.8368C4325.7141,-164.7139 4299.0221,-151.3679 4281.2885,-142.5011"/>
<polygon fill="#191970" stroke="#191970" points="4344.5232,-178.0316 4355.0327,-179.3733 4347.6537,-171.7706 4344.5232,-178.0316"/>
</g>
<!-- Node190 -->
<g id="node40" class="node">
<title>Node190</title>
<g id="a_node40"><a xlink:href="Wrench_8h.html" target="_top" xlink:title="Wrench.h">
<polygon fill="none" stroke="#ff0000" points="4123.2862,-123.5 4123.2862,-142.5 4185.2862,-142.5 4185.2862,-123.5 4123.2862,-123.5"/>
<text text-anchor="middle" x="4154.2862" y="-130.5" font-family="FreeSans.ttf" font-size="10.00" fill="#000000">Wrench.h</text>
</a>
</g>
</g>
<!-- Node25&#45;&gt;Node190 -->
<g id="edge45" class="edge">
<title>Node25&#45;&gt;Node190</title>
<path fill="none" stroke="#191970" d="M4326.5694,-176.8539C4283.8233,-165.9731 4222.3609,-150.3281 4185.5705,-140.9633"/>
<polygon fill="#191970" stroke="#191970" points="4325.9125,-180.2982 4336.4669,-179.3733 4327.6393,-173.5145 4325.9125,-180.2982"/>
</g>
<!-- Node220 -->
<g id="node41" class="node">
<title>Node220</title>
<g id="a_node41"><a xlink:href="PositionRaw_8cpp.html" target="_top" xlink:title="PositionRaw.cpp">
<polygon fill="none" stroke="#000000" points="4429.2862,-123.5 4429.2862,-142.5 4525.2862,-142.5 4525.2862,-123.5 4429.2862,-123.5"/>
<text text-anchor="middle" x="4477.2862" y="-130.5" font-family="FreeSans.ttf" font-size="10.00" fill="#000000">PositionRaw.cpp</text>
</a>
</g>
</g>
<!-- Node25&#45;&gt;Node220 -->
<g id="edge50" class="edge">
<title>Node25&#45;&gt;Node220</title>
<path fill="none" stroke="#191970" d="M4401.0295,-174.46C4419.4613,-164.4388 4443.4447,-151.3993 4459.5506,-142.6427"/>
<polygon fill="#191970" stroke="#191970" points="4399.3411,-171.394 4392.2275,-179.2455 4402.6848,-177.5438 4399.3411,-171.394"/>
</g>
<!-- Node221 -->
<g id="node42" class="node">
<title>Node221</title>
<g id="a_node42"><a xlink:href="RotationRaw_8cpp.html" target="_top" xlink:title="RotationRaw.cpp">
<polygon fill="none" stroke="#000000" points="4543.2862,-123.5 4543.2862,-142.5 4641.2862,-142.5 4641.2862,-123.5 4543.2862,-123.5"/>
<text text-anchor="middle" x="4592.2862" y="-130.5" font-family="FreeSans.ttf" font-size="10.00" fill="#000000">RotationRaw.cpp</text>
</a>
</g>
</g>
<!-- Node25&#45;&gt;Node221 -->
<g id="edge51" class="edge">
<title>Node25&#45;&gt;Node221</title>
<path fill="none" stroke="#191970" d="M4421.5801,-176.8511C4461.6955,-166.5462 4518.4397,-151.9697 4555.2997,-142.5011"/>
<polygon fill="#191970" stroke="#191970" points="4420.5765,-173.4952 4411.7618,-179.3733 4422.3182,-180.2751 4420.5765,-173.4952"/>
</g>
<!-- Node102 -->
<g id="node43" class="node">
<title>Node102</title>
<g id="a_node43"><a xlink:href="TestUtils_8cpp.html" target="_top" xlink:title="TestUtils.cpp">
<polygon fill="none" stroke="#000000" points="4659.7862,-123.5 4659.7862,-142.5 4738.7862,-142.5 4738.7862,-123.5 4659.7862,-123.5"/>
<text text-anchor="middle" x="4699.2862" y="-130.5" font-family="FreeSans.ttf" font-size="10.00" fill="#000000">TestUtils.cpp</text>
</a>
</g>
</g>
<!-- Node25&#45;&gt;Node102 -->
<g id="edge55" class="edge">
<title>Node25&#45;&gt;Node102</title>
<path fill="none" stroke="#191970" d="M4442.6871,-178.3052C4498.6119,-169.3917 4579.6901,-156.0823 4650.2862,-143 4653.3595,-142.4305 4656.5375,-141.8234 4659.7298,-141.2005"/>
<polygon fill="#191970" stroke="#191970" points="4441.8721,-174.8908 4432.5456,-179.9174 4442.9711,-181.804 4441.8721,-174.8908"/>
</g>
<!-- Node103 -->
<g id="node44" class="node">
<title>Node103</title>
<g id="a_node44"><a xlink:href="DynamicsUtils_8h.html" target="_top" xlink:title="DynamicsUtils.h">
<polygon fill="none" stroke="#000000" points="4756.7862,-123.5 4756.7862,-142.5 4853.7862,-142.5 4853.7862,-123.5 4756.7862,-123.5"/>
<text text-anchor="middle" x="4805.2862" y="-130.5" font-family="FreeSans.ttf" font-size="10.00" fill="#000000">DynamicsUtils.h</text>
</a>
</g>
</g>
<!-- Node25&#45;&gt;Node103 -->
<g id="edge56" class="edge">
<title>Node25&#45;&gt;Node103</title>
<path fill="none" stroke="#191970" d="M4442.5622,-179.0028C4579.7252,-161.1089 4615.9687,-162.3744 4748.2862,-143 4750.9703,-142.607 4753.7222,-142.1856 4756.4979,-141.7463"/>
<polygon fill="#191970" stroke="#191970" points="4441.9676,-175.5508 4432.5093,-180.3248 4442.8803,-182.491 4441.9676,-175.5508"/>
</g>
<!-- Node222 -->
<g id="node45" class="node">
<title>Node222</title>
<g id="a_node45"><a xlink:href="JointState_8h.html" target="_top" xlink:title="JointState.h">
<polygon fill="none" stroke="#ff0000" points="4337.7862,-123.5 4337.7862,-142.5 4410.7862,-142.5 4410.7862,-123.5 4337.7862,-123.5"/>
<text text-anchor="middle" x="4374.2862" y="-130.5" font-family="FreeSans.ttf" font-size="10.00" fill="#000000">JointState.h</text>
</a>
</g>
</g>
<!-- Node25&#45;&gt;Node222 -->
<g id="edge57" class="edge">
<title>Node25&#45;&gt;Node222</title>
<path fill="none" stroke="#191970" d="M4374.2862,-169.1575C4374.2862,-160.155 4374.2862,-149.9199 4374.2862,-142.6427"/>
<polygon fill="#191970" stroke="#191970" points="4370.7863,-169.2455 4374.2862,-179.2455 4377.7863,-169.2456 4370.7863,-169.2455"/>
</g>
<!-- Node27 -->
<g id="node4" class="node">
<title>Node27</title>
<g id="a_node4"><a xlink:href="PrivateUtils_8h.html" target="_top" xlink:title="PrivateUtils.h">
<polygon fill="none" stroke="#ff0000" points="2920.7862,-62 2920.7862,-81 3003.7862,-81 3003.7862,-62 2920.7862,-62"/>
<text text-anchor="middle" x="2962.2862" y="-69" font-family="FreeSans.ttf" font-size="10.00" fill="#000000">PrivateUtils.h</text>
</a>
</g>
</g>
<!-- Node26&#45;&gt;Node27 -->
<g id="edge3" class="edge">
<title>Node26&#45;&gt;Node27</title>
<path fill="none" stroke="#191970" d="M2444.4493,-131.8834C2540.2543,-129.1144 2743.2476,-119.5739 2911.2862,-87 2919.0084,-85.5031 2927.2251,-83.2914 2934.7565,-81.0047"/>
<polygon fill="#191970" stroke="#191970" points="2444.3103,-128.3858 2434.4105,-132.1599 2444.5031,-135.3832 2444.3103,-128.3858"/>
</g>
<!-- Node26&#45;&gt;Node31 -->
<g id="edge14" class="edge">
<title>Node26&#45;&gt;Node31</title>
<path fill="none" stroke="#191970" d="M2333.8304,-132.296C1994.7399,-127.9365 214.8346,-104.2447 193.2862,-87 172.9681,-70.7399 172.2948,-36.5193 173.3341,-19.7207"/>
<polygon fill="#191970" stroke="#191970" points="2333.8579,-135.7966 2343.902,-132.4253 2333.9478,-128.7971 2333.8579,-135.7966"/>
</g>
<!-- Node35 -->
<g id="node7" class="node">
<title>Node35</title>
<g id="a_node7"><a xlink:href="ArticulatedBodyInertia_8cpp.html" target="_top" xlink:title="ArticulatedBodyInertia.cpp">
<polygon fill="none" stroke="#000000" points="3951.2862,-62 3951.2862,-81 4097.2862,-81 4097.2862,-62 3951.2862,-62"/>
<text text-anchor="middle" x="4024.2862" y="-69" font-family="FreeSans.ttf" font-size="10.00" fill="#000000">ArticulatedBodyInertia.cpp</text>
</a>
</g>
</g>
<!-- Node26&#45;&gt;Node35 -->
<g id="edge6" class="edge">
<title>Node26&#45;&gt;Node35</title>
<path fill="none" stroke="#191970" d="M2444.5552,-132.5287C2685.2152,-130.2972 3643.0454,-119.5096 3942.2862,-87 3954.8172,-85.6386 3968.3016,-83.4124 3980.644,-81.0664"/>
<polygon fill="#191970" stroke="#191970" points="2444.2696,-129.0311 2434.3021,-132.6226 2444.3338,-136.0308 2444.2696,-129.0311"/>
</g>
<!-- Node36 -->
<g id="node8" class="node">
<title>Node36</title>
<g id="a_node8"><a xlink:href="CubicSpline_8cpp.html" target="_top" xlink:title="CubicSpline.cpp">
<polygon fill="none" stroke="#000000" points="1799.2862,-62 1799.2862,-81 1893.2862,-81 1893.2862,-62 1799.2862,-62"/>
<text text-anchor="middle" x="1846.2862" y="-69" font-family="FreeSans.ttf" font-size="10.00" fill="#000000">CubicSpline.cpp</text>
</a>
</g>
</g>
<!-- Node26&#45;&gt;Node36 -->
<g id="edge7" class="edge">
<title>Node26&#45;&gt;Node36</title>
<path fill="none" stroke="#191970" d="M2333.994,-130.8475C2243.3705,-126.6321 2057.8434,-115.115 1903.2862,-87 1894.811,-85.4583 1885.7606,-83.2595 1877.4251,-81.0008"/>
<polygon fill="#191970" stroke="#191970" points="2333.8935,-134.3464 2344.0417,-131.3028 2334.2105,-127.3536 2333.8935,-134.3464"/>
</g>
<!-- Node37 -->
<g id="node9" class="node">
<title>Node37</title>
<g id="a_node9"><a xlink:href="Direction_8cpp.html" target="_top" xlink:title="Direction.cpp">
<polygon fill="none" stroke="#000000" points="1911.7862,-62 1911.7862,-81 1992.7862,-81 1992.7862,-62 1911.7862,-62"/>
<text text-anchor="middle" x="1952.2862" y="-69" font-family="FreeSans.ttf" font-size="10.00" fill="#000000">Direction.cpp</text>
</a>
</g>
</g>
<!-- Node26&#45;&gt;Node37 -->
<g id="edge8" class="edge">
<title>Node26&#45;&gt;Node37</title>
<path fill="none" stroke="#191970" d="M2333.9258,-129.6045C2258.3394,-124.2476 2118.9062,-111.7905 2002.2862,-87 1994.908,-85.4316 1987.0582,-83.2508 1979.8182,-81.0197"/>
<polygon fill="#191970" stroke="#191970" points="2333.9405,-133.1138 2344.1587,-130.3138 2334.4247,-126.1306 2333.9405,-133.1138"/>
</g>
<!-- Node38 -->
<g id="node10" class="node">
<title>Node38</title>
<g id="a_node10"><a xlink:href="InertiaNonLinearParametrization_8cpp.html" target="_top" xlink:title="InertiaNonLinearParametrization.cpp">
<polygon fill="none" stroke="#000000" points="2010.7862,-62 2010.7862,-81 2205.7862,-81 2205.7862,-62 2010.7862,-62"/>
<text text-anchor="middle" x="2108.2862" y="-69" font-family="FreeSans.ttf" font-size="10.00" fill="#000000">InertiaNonLinearParametrization.cpp</text>
</a>
</g>
</g>
<!-- Node26&#45;&gt;Node38 -->
<g id="edge9" class="edge">
<title>Node26&#45;&gt;Node38</title>
<path fill="none" stroke="#191970" d="M2335.7374,-121.2802C2282.4149,-109.61 2201.5586,-91.9137 2151.9865,-81.0643"/>
<polygon fill="#191970" stroke="#191970" points="2335.1712,-124.7391 2345.6883,-123.4581 2336.6679,-117.9009 2335.1712,-124.7391"/>
</g>
<!-- Node39 -->
<g id="node11" class="node">
<title>Node39</title>
<g id="a_node11"><a xlink:href="Rotation_8cpp.html" target="_top" xlink:title="Rotation.cpp">
<polygon fill="none" stroke="#000000" points="4115.7862,-62 4115.7862,-81 4192.7862,-81 4192.7862,-62 4115.7862,-62"/>
<text text-anchor="middle" x="4154.2862" y="-69" font-family="FreeSans.ttf" font-size="10.00" fill="#000000">Rotation.cpp</text>
</a>
</g>
</g>
<!-- Node26&#45;&gt;Node39 -->
<g id="edge10" class="edge">
<title>Node26&#45;&gt;Node39</title>
<path fill="none" stroke="#191970" d="M2444.5802,-132.456C2720.2631,-129.6178 3939.6088,-115.5368 4106.2862,-87 4113.8819,-85.6995 4121.9274,-83.4616 4129.216,-81.0844"/>
<polygon fill="#191970" stroke="#191970" points="2444.3815,-128.9578 2434.4178,-132.5599 2444.4531,-135.9574 2444.3815,-128.9578"/>
</g>
<!-- Node40 -->
<g id="node12" class="node">
<title>Node40</title>
<g id="a_node12"><a xlink:href="SO3Utils_8cpp.html" target="_top" xlink:title="SO3Utils.cpp">
<polygon fill="none" stroke="#000000" points="2223.7862,-62 2223.7862,-81 2302.7862,-81 2302.7862,-62 2223.7862,-62"/>
<text text-anchor="middle" x="2263.2862" y="-69" font-family="FreeSans.ttf" font-size="10.00" fill="#000000">SO3Utils.cpp</text>
</a>
</g>
</g>
<!-- Node26&#45;&gt;Node40 -->
<g id="edge11" class="edge">
<title>Node26&#45;&gt;Node40</title>
<path fill="none" stroke="#191970" d="M2360.3601,-118.8813C2336.5981,-107.2832 2303.5859,-91.1701 2282.8355,-81.0419"/>
<polygon fill="#191970" stroke="#191970" points="2359.0768,-122.1496 2369.5987,-123.3906 2362.1473,-115.8589 2359.0768,-122.1496"/>
</g>
<!-- Node26&#45;&gt;Node41 -->
<g id="edge12" class="edge">
<title>Node26&#45;&gt;Node41</title>
<path fill="none" stroke="#191970" d="M2333.9315,-132.4398C2011.4762,-129.0991 382.0185,-111.13 160.2862,-87 148.2079,-85.6856 135.2166,-83.4433 123.3672,-81.0663"/>
<polygon fill="#191970" stroke="#191970" points="2333.9345,-135.9399 2343.9701,-132.5435 2334.0068,-128.9403 2333.9345,-135.9399"/>
</g>
<!-- Node42 -->
<g id="node14" class="node">
<title>Node42</title>
<g id="a_node14"><a xlink:href="SpatialInertia_8cpp.html" target="_top" xlink:title="SpatialInertia.cpp">
<polygon fill="none" stroke="#000000" points="4211.2862,-62 4211.2862,-81 4313.2862,-81 4313.2862,-62 4211.2862,-62"/>
<text text-anchor="middle" x="4262.2862" y="-69" font-family="FreeSans.ttf" font-size="10.00" fill="#000000">SpatialInertia.cpp</text>
</a>
</g>
</g>
<!-- Node26&#45;&gt;Node42 -->
<g id="edge13" class="edge">
<title>Node26&#45;&gt;Node42</title>
<path fill="none" stroke="#191970" d="M2444.3995,-132.3482C2728.8848,-128.8837 4024.7947,-111.8471 4202.2862,-87 4211.6624,-85.6874 4221.6823,-83.4457 4230.7954,-81.0687"/>
<polygon fill="#191970" stroke="#191970" points="2444.2767,-128.8493 2434.32,-132.4704 2444.3617,-135.8488 2444.2767,-128.8493"/>
</g>
<!-- Node43 -->
<g id="node15" class="node">
<title>Node43</title>
<g id="a_node15"><a xlink:href="TransformDerivative_8cpp.html" target="_top" xlink:title="TransformDerivative.cpp">
<polygon fill="none" stroke="#000000" points="2320.7862,-62 2320.7862,-81 2457.7862,-81 2457.7862,-62 2320.7862,-62"/>
<text text-anchor="middle" x="2389.2862" y="-69" font-family="FreeSans.ttf" font-size="10.00" fill="#000000">TransformDerivative.cpp</text>
</a>
</g>
</g>
<!-- Node26&#45;&gt;Node43 -->
<g id="edge15" class="edge">
<title>Node26&#45;&gt;Node43</title>
<path fill="none" stroke="#191970" d="M2389.2862,-113.2462C2389.2862,-102.5519 2389.2862,-89.814 2389.2862,-81.2449"/>
<polygon fill="#191970" stroke="#191970" points="2385.7863,-113.3906 2389.2862,-123.3906 2392.7863,-113.3907 2385.7863,-113.3906"/>
</g>
<!-- Node44 -->
<g id="node16" class="node">
<title>Node44</title>
<g id="a_node16"><a xlink:href="AttitudeEstimatorUtils_8h.html" target="_top" xlink:title="AttitudeEstimatorUtils.h">
<polygon fill="none" stroke="#ff0000" points="2476.2862,-62 2476.2862,-81 2610.2862,-81 2610.2862,-62 2476.2862,-62"/>
<text text-anchor="middle" x="2543.2862" y="-69" font-family="FreeSans.ttf" font-size="10.00" fill="#000000">AttitudeEstimatorUtils.h</text>
</a>
</g>
</g>
<!-- Node26&#45;&gt;Node44 -->
<g id="edge16" class="edge">
<title>Node26&#45;&gt;Node44</title>
<path fill="none" stroke="#191970" d="M2422.7212,-119.6477C2451.8821,-108.0023 2493.4675,-91.3952 2519.3927,-81.0419"/>
<polygon fill="#191970" stroke="#191970" points="2421.3375,-116.4315 2413.3487,-123.3906 2423.9337,-122.9323 2421.3375,-116.4315"/>
</g>
<!-- Node48 -->
<g id="node17" class="node">
<title>Node48</title>
<g id="a_node17"><a xlink:href="GravityCompensationHelpers_8h.html" target="_top" xlink:title="GravityCompensationHelpers.h">
<polygon fill="none" stroke="#ff0000" points="2628.2862,-62 2628.2862,-81 2798.2862,-81 2798.2862,-62 2628.2862,-62"/>
<text text-anchor="middle" x="2713.2862" y="-69" font-family="FreeSans.ttf" font-size="10.00" fill="#000000">GravityCompensationHelpers.h</text>
</a>
</g>
</g>
<!-- Node26&#45;&gt;Node48 -->
<g id="edge17" class="edge">
<title>Node26&#45;&gt;Node48</title>
<path fill="none" stroke="#191970" d="M2444.2114,-122.5744C2505.4735,-110.9459 2603.7334,-92.2947 2663.0334,-81.0387"/>
<polygon fill="#191970" stroke="#191970" points="2443.5089,-119.1452 2434.337,-124.4487 2444.8144,-126.0224 2443.5089,-119.1452"/>
</g>
<!-- Node50 -->
<g id="node18" class="node">
<title>Node50</title>
<g id="a_node18"><a xlink:href="KalmanFilter_8h.html" target="_top" xlink:title="KalmanFilter.h">
<polygon fill="none" stroke="#ff0000" points="2816.2862,-62 2816.2862,-81 2902.2862,-81 2902.2862,-62 2816.2862,-62"/>
<text text-anchor="middle" x="2859.2862" y="-69" font-family="FreeSans.ttf" font-size="10.00" fill="#000000">KalmanFilter.h</text>
</a>
</g>
</g>
<!-- Node26&#45;&gt;Node50 -->
<g id="edge18" class="edge">
<title>Node26&#45;&gt;Node50</title>
<path fill="none" stroke="#191970" d="M2444.9464,-130.07C2525.5208,-125.1087 2679.0525,-112.9474 2807.2862,-87 2814.9498,-85.4493 2823.1101,-83.2748 2830.6395,-81.044"/>
<polygon fill="#191970" stroke="#191970" points="2444.3156,-126.6015 2434.5436,-130.6953 2444.7356,-133.5889 2444.3156,-126.6015"/>
</g>
<!-- Node52 -->
<g id="node19" class="node">
<title>Node52</title>
<g id="a_node19"><a xlink:href="BerdyHelper_8cpp.html" target="_top" xlink:title="BerdyHelper.cpp">
<polygon fill="none" stroke="#000000" points="3021.7862,-62 3021.7862,-81 3118.7862,-81 3118.7862,-62 3021.7862,-62"/>
<text text-anchor="middle" x="3070.2862" y="-69" font-family="FreeSans.ttf" font-size="10.00" fill="#000000">BerdyHelper.cpp</text>
</a>
</g>
</g>
<!-- Node26&#45;&gt;Node52 -->
<g id="edge19" class="edge">
<title>Node26&#45;&gt;Node52</title>
<path fill="none" stroke="#191970" d="M2444.9441,-130.2699C2576.6969,-123.5853 2904.7395,-105.5822 3013.2862,-87 3021.8782,-85.5291 3031.0485,-83.3262 3039.4658,-81.0396"/>
<polygon fill="#191970" stroke="#191970" points="2444.491,-126.7882 2434.6801,-130.7879 2444.8438,-133.7793 2444.491,-126.7882"/>
</g>
<!-- Node53 -->
<g id="node20" class="node">
<title>Node53</title>
<g id="a_node20"><a xlink:href="BerdySparseMAPSolver_8cpp.html" target="_top" xlink:title="BerdySparseMAPSolver.cpp">
<polygon fill="none" stroke="#000000" points="3136.7862,-62 3136.7862,-81 3285.7862,-81 3285.7862,-62 3136.7862,-62"/>
<text text-anchor="middle" x="3211.2862" y="-69" font-family="FreeSans.ttf" font-size="10.00" fill="#000000">BerdySparseMAPSolver.cpp</text>
</a>
</g>
</g>
<!-- Node26&#45;&gt;Node53 -->
<g id="edge20" class="edge">
<title>Node26&#45;&gt;Node53</title>
<path fill="none" stroke="#191970" d="M2444.7632,-131.8656C2568.0899,-128.8369 2874.1749,-118.5157 3128.2862,-87 3140.506,-85.4845 3153.6429,-83.2947 3165.7793,-81.0363"/>
<polygon fill="#191970" stroke="#191970" points="2444.3648,-128.3741 2434.4514,-132.1122 2444.5322,-135.3721 2444.3648,-128.3741"/>
</g>
<!-- Node54 -->
<g id="node21" class="node">
<title>Node54</title>
<g id="a_node21"><a xlink:href="ExtendedKalmanFilter_8cpp.html" target="_top" xlink:title="ExtendedKalmanFilter.cpp">
<polygon fill="none" stroke="#000000" points="3303.7862,-62 3303.7862,-81 3446.7862,-81 3446.7862,-62 3303.7862,-62"/>
<text text-anchor="middle" x="3375.2862" y="-69" font-family="FreeSans.ttf" font-size="10.00" fill="#000000">ExtendedKalmanFilter.cpp</text>
</a>
</g>
</g>
<!-- Node26&#45;&gt;Node54 -->
<g id="edge21" class="edge">
<title>Node26&#45;&gt;Node54</title>
<path fill="none" stroke="#191970" d="M2444.6599,-131.2114C2614.9246,-125.5502 3129.2299,-107.2005 3295.2862,-87 3307.2233,-85.5479 3320.053,-83.3512 3331.8666,-81.0646"/>
<polygon fill="#191970" stroke="#191970" points="2444.3028,-127.7212 2434.4241,-131.5502 2444.5345,-134.7174 2444.3028,-127.7212"/>
</g>
<!-- Node55 -->
<g id="node22" class="node">
<title>Node55</title>
<g id="a_node22"><a xlink:href="ExternalWrenchesEstimation_8cpp.html" target="_top" xlink:title="ExternalWrenchesEstimation.cpp">
<polygon fill="none" stroke="#000000" points="4435.7862,-62 4435.7862,-81 4612.7862,-81 4612.7862,-62 4435.7862,-62"/>
<text text-anchor="middle" x="4524.2862" y="-69" font-family="FreeSans.ttf" font-size="10.00" fill="#000000">ExternalWrenchesEstimation.cpp</text>
</a>
</g>
</g>
<!-- Node26&#45;&gt;Node55 -->
<g id="edge22" class="edge">
<title>Node26&#45;&gt;Node55</title>
<path fill="none" stroke="#191970" d="M2444.7308,-132.756C2729.0514,-131.351 4025.6369,-123.0435 4426.2862,-87 4441.3836,-85.6418 4457.6816,-83.3858 4472.5708,-81.0098"/>
<polygon fill="#191970" stroke="#191970" points="2444.6402,-129.2563 2434.6574,-132.8049 2444.6743,-136.2562 2444.6402,-129.2563"/>
</g>
<!-- Node56 -->
<g id="node23" class="node">
<title>Node56</title>
<g id="a_node23"><a xlink:href="ExtWrenchesAndJointTorquesEstimator_8cpp.html" target="_top" xlink:title="ExtWrenchesAndJointTorques\lEstimator.cpp">
<polygon fill="none" stroke="#000000" points="4630.2862,-56.5 4630.2862,-86.5 4788.2862,-86.5 4788.2862,-56.5 4630.2862,-56.5"/>
<text text-anchor="start" x="4638.2862" y="-74.5" font-family="FreeSans.ttf" font-size="10.00" fill="#000000">ExtWrenchesAndJointTorques</text>
<text text-anchor="middle" x="4709.2862" y="-63.5" font-family="FreeSans.ttf" font-size="10.00" fill="#000000">Estimator.cpp</text>
</a>
</g>
</g>
<!-- Node26&#45;&gt;Node56 -->
<g id="edge23" class="edge">
<title>Node26&#45;&gt;Node56</title>
<path fill="none" stroke="#191970" d="M2444.7335,-132.3753C2767.7286,-128.6674 4399.9268,-108.9632 4622.2862,-87 4624.8817,-86.7436 4627.5162,-86.453 4630.173,-86.1337"/>
<polygon fill="#191970" stroke="#191970" points="2444.6373,-128.8761 2434.678,-132.4904 2444.7175,-135.8756 2444.6373,-128.8761"/>
</g>
<!-- Node57 -->
<g id="node24" class="node">
<title>Node57</title>
<g id="a_node24"><a xlink:href="SimpleLeggedOdometry_8cpp.html" target="_top" xlink:title="SimpleLeggedOdometry.cpp">
<polygon fill="none" stroke="#000000" points="3464.7862,-62 3464.7862,-81 3617.7862,-81 3617.7862,-62 3464.7862,-62"/>
<text text-anchor="middle" x="3541.2862" y="-69" font-family="FreeSans.ttf" font-size="10.00" fill="#000000">SimpleLeggedOdometry.cpp</text>
</a>
</g>
</g>
<!-- Node26&#45;&gt;Node57 -->
<g id="edge24" class="edge">
<title>Node26&#45;&gt;Node57</title>
<path fill="none" stroke="#191970" d="M2444.3301,-131.6271C2633.6321,-126.749 3257.15,-109.3421 3456.2862,-87 3469.1061,-85.5617 3482.9051,-83.3405 3495.5788,-81.0247"/>
<polygon fill="#191970" stroke="#191970" points="2444.2346,-128.1283 2434.3276,-131.8836 2444.4141,-135.126 2444.2346,-128.1283"/>
</g>
<!-- Node58 -->
<g id="node25" class="node">
<title>Node58</title>
<g id="a_node25"><a xlink:href="KinDynComputations_8cpp.html" target="_top" xlink:title="KinDynComputations.cpp">
<polygon fill="none" stroke="#000000" points="3793.2862,-62 3793.2862,-81 3933.2862,-81 3933.2862,-62 3793.2862,-62"/>
<text text-anchor="middle" x="3863.2862" y="-69" font-family="FreeSans.ttf" font-size="10.00" fill="#000000">KinDynComputations.cpp</text>
</a>
</g>
</g>
<!-- Node26&#45;&gt;Node58 -->
<g id="edge25" class="edge">
<title>Node26&#45;&gt;Node58</title>
<path fill="none" stroke="#191970" d="M2444.7333,-132.363C2670.084,-129.5896 3517.9551,-117.3192 3784.2862,-87 3796.368,-85.6246 3809.3619,-83.3939 3821.2527,-81.0481"/>
<polygon fill="#191970" stroke="#191970" points="2444.4343,-128.8662 2434.4777,-132.4879 2444.5196,-135.8657 2444.4343,-128.8662"/>
</g>
<!-- Node59 -->
<g id="node26" class="node">
<title>Node59</title>
<g id="a_node26"><a xlink:href="BoundingBoxHelpers_8cpp.html" target="_top" xlink:title="BoundingBoxHelpers.cpp">
<polygon fill="none" stroke="#000000" points="3635.7862,-62 3635.7862,-81 3774.7862,-81 3774.7862,-62 3635.7862,-62"/>
<text text-anchor="middle" x="3705.2862" y="-69" font-family="FreeSans.ttf" font-size="10.00" fill="#000000">BoundingBoxHelpers.cpp</text>
</a>
</g>
</g>
<!-- Node26&#45;&gt;Node59 -->
<g id="edge26" class="edge">
<title>Node26&#45;&gt;Node59</title>
<path fill="none" stroke="#191970" d="M2444.5862,-132.1153C2653.3185,-128.5941 3393.3199,-114.4169 3627.2862,-87 3639.2162,-85.602 3652.0461,-83.3641 3663.7863,-81.0185"/>
<polygon fill="#191970" stroke="#191970" points="2444.414,-128.6176 2434.474,-132.2845 2444.5312,-135.6166 2444.414,-128.6176"/>
</g>
<!-- Node60 -->
<g id="node27" class="node">
<title>Node60</title>
<g id="a_node27"><a xlink:href="ConvexHullHelpers_8cpp.html" target="_top" xlink:title="ConvexHullHelpers.cpp">
<polygon fill="none" stroke="#000000" points="202.7862,-62 202.7862,-81 333.7862,-81 333.7862,-62 202.7862,-62"/>
<text text-anchor="middle" x="268.2862" y="-69" font-family="FreeSans.ttf" font-size="10.00" fill="#000000">ConvexHullHelpers.cpp</text>
</a>
</g>
</g>
<!-- Node26&#45;&gt;Node60 -->
<g id="edge27" class="edge">
<title>Node26&#45;&gt;Node60</title>
<path fill="none" stroke="#191970" d="M2333.6612,-132.3619C2026.5472,-128.7571 544.7102,-110.2735 342.2862,-87 330.8109,-85.6806 318.4808,-83.4368 307.2394,-81.06"/>
<polygon fill="#191970" stroke="#191970" points="2334.0463,-135.8666 2344.0866,-132.4838 2334.1282,-128.867 2334.0463,-135.8666"/>
</g>
<!-- Node61 -->
<g id="node28" class="node">
<title>Node61</title>
<g id="a_node28"><a xlink:href="InverseKinematicsData_8cpp.html" target="_top" xlink:title="InverseKinematicsData.cpp">
<polygon fill="none" stroke="#000000" points="351.7862,-62 351.7862,-81 502.7862,-81 502.7862,-62 351.7862,-62"/>
<text text-anchor="middle" x="427.2862" y="-69" font-family="FreeSans.ttf" font-size="10.00" fill="#000000">InverseKinematicsData.cpp</text>
</a>
</g>
</g>
<!-- Node26&#45;&gt;Node61 -->
<g id="edge28" class="edge">
<title>Node26&#45;&gt;Node61</title>
<path fill="none" stroke="#191970" d="M2333.9127,-132.8081C2063.4014,-131.6925 879.0659,-124.7037 512.2862,-87 499.1552,-85.6502 485.0078,-83.3968 472.0944,-81.0206"/>
<polygon fill="#191970" stroke="#191970" points="2334.2471,-136.3094 2344.2612,-132.8497 2334.2754,-129.3094 2334.2471,-136.3094"/>
</g>
<!-- Node62 -->
<g id="node29" class="node">
<title>Node62</title>
<g id="a_node29"><a xlink:href="InverseKinematicsNLP_8cpp.html" target="_top" xlink:title="InverseKinematicsNLP.cpp">
<polygon fill="none" stroke="#000000" points="520.7862,-62 520.7862,-81 665.7862,-81 665.7862,-62 520.7862,-62"/>
<text text-anchor="middle" x="593.2862" y="-69" font-family="FreeSans.ttf" font-size="10.00" fill="#000000">InverseKinematicsNLP.cpp</text>
</a>
</g>
</g>
<!-- Node26&#45;&gt;Node62 -->
<g id="edge29" class="edge">
<title>Node26&#45;&gt;Node62</title>
<path fill="none" stroke="#191970" d="M2333.8012,-132.7056C2077.6634,-131.1634 1007.9075,-122.6683 675.2862,-87 662.6093,-85.6406 648.9583,-83.3842 636.5009,-81.0082"/>
<polygon fill="#191970" stroke="#191970" points="2333.9588,-136.2065 2343.9794,-132.7658 2334.0003,-129.2066 2333.9588,-136.2065"/>
</g>
<!-- Node63 -->
<g id="node30" class="node">
<title>Node63</title>
<g id="a_node30"><a xlink:href="DenavitHartenberg_8cpp.html" target="_top" xlink:title="DenavitHartenberg.cpp">
<polygon fill="none" stroke="#000000" points="684.2862,-62 684.2862,-81 814.2862,-81 814.2862,-62 684.2862,-62"/>
<text text-anchor="middle" x="749.2862" y="-69" font-family="FreeSans.ttf" font-size="10.00" fill="#000000">DenavitHartenberg.cpp</text>
</a>
</g>
</g>
<!-- Node26&#45;&gt;Node63 -->
<g id="edge30" class="edge">
<title>Node26&#45;&gt;Node63</title>
<path fill="none" stroke="#191970" d="M2333.977,-132.6683C2092.0629,-131.0184 1125.7186,-122.3044 824.2862,-87 812.6652,-85.6389 800.1713,-83.382 788.7779,-81.0061"/>
<polygon fill="#191970" stroke="#191970" points="2334.258,-136.1701 2344.2812,-132.7373 2334.3049,-129.1703 2334.258,-136.1701"/>
</g>
<!-- Node64 -->
<g id="node31" class="node">
<title>Node64</title>
<g id="a_node31"><a xlink:href="Dynamics_8cpp.html" target="_top" xlink:title="Dynamics.cpp">
<polygon fill="none" stroke="#000000" points="4331.2862,-62 4331.2862,-81 4417.2862,-81 4417.2862,-62 4331.2862,-62"/>
<text text-anchor="middle" x="4374.2862" y="-69" font-family="FreeSans.ttf" font-size="10.00" fill="#000000">Dynamics.cpp</text>
</a>
</g>
</g>
<!-- Node26&#45;&gt;Node64 -->
<g id="edge31" class="edge">
<title>Node26&#45;&gt;Node64</title>
<path fill="none" stroke="#191970" d="M2444.6984,-132.5592C2741.0924,-130.0837 4132.8436,-116.9392 4322.2862,-87 4330.5675,-85.6912 4339.3757,-83.4191 4347.3435,-81.0115"/>
<polygon fill="#191970" stroke="#191970" points="2444.5912,-129.0598 2434.6206,-132.6427 2444.6493,-136.0596 2444.5912,-129.0598"/>
</g>
<!-- Node65 -->
<g id="node32" class="node">
<title>Node65</title>
<g id="a_node32"><a xlink:href="DynamicsLinearization_8cpp.html" target="_top" xlink:title="DynamicsLinearization.cpp">
<polygon fill="none" stroke="#000000" points="832.7862,-62 832.7862,-81 981.7862,-81 981.7862,-62 832.7862,-62"/>
<text text-anchor="middle" x="907.2862" y="-69" font-family="FreeSans.ttf" font-size="10.00" fill="#000000">DynamicsLinearization.cpp</text>
</a>
</g>
</g>
<!-- Node26&#45;&gt;Node65 -->
<g id="edge32" class="edge">
<title>Node26&#45;&gt;Node65</title>
<path fill="none" stroke="#191970" d="M2333.6877,-132.2997C2107.7204,-129.2789 1257.5175,-116.175 990.2862,-87 977.6084,-85.6159 963.9615,-83.3824 951.4685,-81.0367"/>
<polygon fill="#191970" stroke="#191970" points="2333.9259,-135.803 2343.9714,-132.4359 2334.0187,-128.8036 2333.9259,-135.803"/>
</g>
<!-- Node66 -->
<g id="node33" class="node">
<title>Node66</title>
<g id="a_node33"><a xlink:href="DynamicsLinearizationHelpers_8cpp.html" target="_top" xlink:title="DynamicsLinearizationHelpers.cpp">
<polygon fill="none" stroke="#000000" points="999.2862,-62 999.2862,-81 1185.2862,-81 1185.2862,-62 999.2862,-62"/>
<text text-anchor="middle" x="1092.2862" y="-69" font-family="FreeSans.ttf" font-size="10.00" fill="#000000">DynamicsLinearizationHelpers.cpp</text>
</a>
</g>
</g>
<!-- Node26&#45;&gt;Node66 -->
<g id="edge33" class="edge">
<title>Node26&#45;&gt;Node66</title>
<path fill="none" stroke="#191970" d="M2333.9773,-131.6848C2130.094,-126.7094 1420.7445,-108.2411 1195.2862,-87 1179.8932,-85.5498 1163.293,-83.3393 1148.0091,-81.0382"/>
<polygon fill="#191970" stroke="#191970" points="2334.0663,-135.1879 2344.1484,-131.932 2334.2365,-128.1899 2334.0663,-135.1879"/>
</g>
<!-- Node67 -->
<g id="node34" class="node">
<title>Node67</title>
<g id="a_node34"><a xlink:href="Jacobians_8cpp.html" target="_top" xlink:title="Jacobians.cpp">
<polygon fill="none" stroke="#000000" points="1203.7862,-62 1203.7862,-81 1286.7862,-81 1286.7862,-62 1203.7862,-62"/>
<text text-anchor="middle" x="1245.2862" y="-69" font-family="FreeSans.ttf" font-size="10.00" fill="#000000">Jacobians.cpp</text>
</a>
</g>
</g>
<!-- Node26&#45;&gt;Node67 -->
<g id="edge34" class="edge">
<title>Node26&#45;&gt;Node67</title>
<path fill="none" stroke="#191970" d="M2334.0992,-132.5197C2141.3853,-130.5549 1499.0965,-121.5123 1296.2862,-87 1288.3493,-85.6494 1279.9168,-83.4266 1272.2423,-81.0804"/>
<polygon fill="#191970" stroke="#191970" points="2334.2398,-136.0212 2344.2742,-132.6211 2334.3096,-129.0215 2334.2398,-136.0212"/>
</g>
<!-- Node68 -->
<g id="node35" class="node">
<title>Node68</title>
<g id="a_node35"><a xlink:href="Model_8cpp.html" target="_top" xlink:title="Model.cpp">
<polygon fill="none" stroke="#000000" points="1305.2862,-62 1305.2862,-81 1371.2862,-81 1371.2862,-62 1305.2862,-62"/>
<text text-anchor="middle" x="1338.2862" y="-69" font-family="FreeSans.ttf" font-size="10.00" fill="#000000">Model.cpp</text>
</a>
</g>
</g>
<!-- Node26&#45;&gt;Node68 -->
<g id="edge35" class="edge">
<title>Node26&#45;&gt;Node68</title>
<path fill="none" stroke="#191970" d="M2333.7814,-132.6538C2150.5078,-131.1683 1565.8628,-123.6063 1381.2862,-87 1374.4364,-85.6415 1367.2148,-83.3854 1360.6864,-81.0094"/>
<polygon fill="#191970" stroke="#191970" points="2333.9681,-136.1553 2343.9952,-132.7336 2334.0229,-129.1555 2333.9681,-136.1553"/>
</g>
<!-- Node69 -->
<g id="node36" class="node">
<title>Node69</title>
<g id="a_node36"><a xlink:href="URDFModelExport_8cpp.html" target="_top" xlink:title="URDFModelExport.cpp">
<polygon fill="none" stroke="#000000" points="1389.7862,-62 1389.7862,-81 1514.7862,-81 1514.7862,-62 1389.7862,-62"/>
<text text-anchor="middle" x="1452.2862" y="-69" font-family="FreeSans.ttf" font-size="10.00" fill="#000000">URDFModelExport.cpp</text>
</a>
</g>
</g>
<!-- Node26&#45;&gt;Node69 -->
<g id="edge36" class="edge">
<title>Node26&#45;&gt;Node69</title>
<path fill="none" stroke="#191970" d="M2333.6355,-131.1985C2168.2923,-125.6628 1681.7275,-107.9976 1524.2862,-87 1513.3865,-85.5463 1501.6845,-83.3201 1490.9494,-81.0044"/>
<polygon fill="#191970" stroke="#191970" points="2333.944,-134.7107 2344.0549,-131.5455 2334.177,-127.7145 2333.944,-134.7107"/>
</g>
<!-- Node70 -->
<g id="node37" class="node">
<title>Node70</title>
<g id="a_node37"><a xlink:href="AlglibInterface_8cpp.html" target="_top" xlink:title="AlglibInterface.cpp">
<polygon fill="none" stroke="#000000" points="1533.2862,-62 1533.2862,-81 1641.2862,-81 1641.2862,-62 1533.2862,-62"/>
<text text-anchor="middle" x="1587.2862" y="-69" font-family="FreeSans.ttf" font-size="10.00" fill="#000000">AlglibInterface.cpp</text>
</a>
</g>
</g>
<!-- Node26&#45;&gt;Node70 -->
<g id="edge37" class="edge">
<title>Node26&#45;&gt;Node70</title>
<path fill="none" stroke="#191970" d="M2334.0005,-130.8443C2185.8284,-124.8615 1782.1344,-107.1567 1650.2862,-87 1640.8221,-85.5531 1630.6973,-83.3583 1621.3939,-81.0717"/>
<polygon fill="#191970" stroke="#191970" points="2334.0876,-134.3506 2344.22,-131.2547 2334.3686,-127.3562 2334.0876,-134.3506"/>
</g>
<!-- Node71 -->
<g id="node38" class="node">
<title>Node71</title>
<g id="a_node38"><a xlink:href="ConstraintsGroup_8cpp.html" target="_top" xlink:title="ConstraintsGroup.cpp">
<polygon fill="none" stroke="#000000" points="1659.2862,-62 1659.2862,-81 1781.2862,-81 1781.2862,-62 1659.2862,-62"/>
<text text-anchor="middle" x="1720.2862" y="-69" font-family="FreeSans.ttf" font-size="10.00" fill="#000000">ConstraintsGroup.cpp</text>
</a>
</g>
</g>
<!-- Node26&#45;&gt;Node71 -->
<g id="edge38" class="edge">
<title>Node26&#45;&gt;Node71</title>
<path fill="none" stroke="#191970" d="M2333.8073,-131.3567C2227.7218,-127.6365 1988.9784,-116.4765 1790.2862,-87 1779.9438,-85.4657 1768.852,-83.2694 1758.6161,-81.0108"/>
<polygon fill="#191970" stroke="#191970" points="2333.8436,-134.8599 2343.9575,-131.704 2334.083,-127.864 2333.8436,-134.8599"/>
</g>
<!-- Node27&#45;&gt;Node29 -->
<g id="edge4" class="edge">
<title>Node27&#45;&gt;Node29</title>
<path fill="none" stroke="#191970" d="M2998.8934,-59.2097C3003.6919,-57.9433 3008.5771,-56.822 3013.2862,-56 3176.9248,-27.4373 3684.909,-14.7634 3861.2475,-11.1456"/>
<polygon fill="#191970" stroke="#191970" points="2997.9044,-55.8522 2989.2499,-61.9636 2999.8266,-62.5831 2997.9044,-55.8522"/>
</g>
<!-- Node27&#45;&gt;Node31 -->
<g id="edge5" class="edge">
<title>Node27&#45;&gt;Node31</title>
<path fill="none" stroke="#191970" d="M2926.0353,-59.1435C2921.1267,-57.8658 2916.1171,-56.7594 2911.2862,-56 2775.4686,-34.6489 648.2424,-14.3065 241.2897,-10.5995"/>
<polygon fill="#191970" stroke="#191970" points="2925.3032,-62.5742 2935.8797,-61.9505 2927.2228,-55.8425 2925.3032,-62.5742"/>
</g>
<!-- Node100&#45;&gt;Node39 -->
<g id="edge40" class="edge">
<title>Node100&#45;&gt;Node39</title>
<path fill="none" stroke="#191970" d="M4236.6736,-118.415C4216.3723,-106.8546 4188.5917,-91.035 4171.0427,-81.0419"/>
<polygon fill="#191970" stroke="#191970" points="4234.9894,-121.4836 4245.4112,-123.3906 4238.4533,-115.4007 4234.9894,-121.4836"/>
</g>
<!-- Node100&#45;&gt;Node42 -->
<g id="edge41" class="edge">
<title>Node100&#45;&gt;Node42</title>
<path fill="none" stroke="#191970" d="M4262.2862,-113.2462C4262.2862,-102.5519 4262.2862,-89.814 4262.2862,-81.2449"/>
<polygon fill="#191970" stroke="#191970" points="4258.7863,-113.3906 4262.2862,-123.3906 4265.7863,-113.3907 4258.7863,-113.3906"/>
</g>
<!-- Node100&#45;&gt;Node55 -->
<g id="edge42" class="edge">
<title>Node100&#45;&gt;Node55</title>
<path fill="none" stroke="#191970" d="M4312.8358,-121.1343C4362.5578,-109.463 4437.5127,-91.8686 4483.5408,-81.0643"/>
<polygon fill="#191970" stroke="#191970" points="4311.8718,-117.7654 4302.9363,-123.4581 4313.4715,-124.5802 4311.8718,-117.7654"/>
</g>
<!-- Node100&#45;&gt;Node56 -->
<g id="edge43" class="edge">
<title>Node100&#45;&gt;Node56</title>
<path fill="none" stroke="#191970" d="M4330.0303,-122.9325C4460.9715,-105.3608 4495.7115,-106.037 4622.2862,-87 4624.8654,-86.6121 4627.4856,-86.2074 4630.1301,-85.7897"/>
<polygon fill="#191970" stroke="#191970" points="4329.457,-119.4781 4320.0162,-124.2866 4330.395,-126.415 4329.457,-119.4781"/>
</g>
<!-- Node100&#45;&gt;Node64 -->
<g id="edge44" class="edge">
<title>Node100&#45;&gt;Node64</title>
<path fill="none" stroke="#191970" d="M4288.5635,-118.571C4309.6409,-106.9972 4338.6282,-91.0801 4356.9091,-81.0419"/>
<polygon fill="#191970" stroke="#191970" points="4286.8671,-115.5095 4279.7862,-123.3906 4290.2363,-121.6453 4286.8671,-115.5095"/>
</g>
<!-- Node190&#45;&gt;Node35 -->
<g id="edge46" class="edge">
<title>Node190&#45;&gt;Node35</title>
<path fill="none" stroke="#191970" d="M4124.7682,-119.0357C4100.2285,-107.4265 4065.9604,-91.2151 4044.4561,-81.0419"/>
<polygon fill="#191970" stroke="#191970" points="4123.4375,-122.278 4133.9737,-123.3906 4126.431,-115.9504 4123.4375,-122.278"/>
</g>
<!-- Node190&#45;&gt;Node39 -->
<g id="edge47" class="edge">
<title>Node190&#45;&gt;Node39</title>
<path fill="none" stroke="#191970" d="M4154.2862,-113.2462C4154.2862,-102.5519 4154.2862,-89.814 4154.2862,-81.2449"/>
<polygon fill="#191970" stroke="#191970" points="4150.7863,-113.3906 4154.2862,-123.3906 4157.7863,-113.3907 4150.7863,-113.3906"/>
</g>
<!-- Node190&#45;&gt;Node42 -->
<g id="edge48" class="edge">
<title>Node190&#45;&gt;Node42</title>
<path fill="none" stroke="#191970" d="M4179.8989,-118.415C4200.2002,-106.8546 4227.9808,-91.035 4245.5297,-81.0419"/>
<polygon fill="#191970" stroke="#191970" points="4178.1191,-115.4007 4171.1612,-123.3906 4181.583,-121.4836 4178.1191,-115.4007"/>
</g>
<!-- Node190&#45;&gt;Node58 -->
<g id="edge49" class="edge">
<title>Node190&#45;&gt;Node58</title>
<path fill="none" stroke="#191970" d="M4113.2205,-124.3211C4059.1647,-112.897 3964.4537,-92.8808 3908.4357,-81.0419"/>
<polygon fill="#191970" stroke="#191970" points="4112.6365,-127.775 4123.1441,-126.4184 4114.084,-120.9263 4112.6365,-127.775"/>
</g>
<!-- Node222&#45;&gt;Node55 -->
<g id="edge58" class="edge">
<title>Node222&#45;&gt;Node55</title>
<path fill="none" stroke="#191970" d="M4407.2239,-119.4955C4435.6082,-107.858 4475.8713,-91.3501 4501.0133,-81.0419"/>
<polygon fill="#191970" stroke="#191970" points="4405.6485,-116.3586 4397.7237,-123.3906 4408.304,-122.8354 4405.6485,-116.3586"/>
</g>
<!-- Node222&#45;&gt;Node56 -->
<g id="edge59" class="edge">
<title>Node222&#45;&gt;Node56</title>
<path fill="none" stroke="#191970" d="M4421.0252,-123.0163C4454.0966,-116.9633 4556.497,-98.7189 4630.1671,-85.5945"/>
<polygon fill="#191970" stroke="#191970" points="4420.1049,-119.6276 4410.9186,-124.9061 4421.3916,-126.5084 4420.1049,-119.6276"/>
</g>
<!-- Node222&#45;&gt;Node64 -->
<g id="edge60" class="edge">
<title>Node222&#45;&gt;Node64</title>
<path fill="none" stroke="#191970" d="M4374.2862,-113.2462C4374.2862,-102.5519 4374.2862,-89.814 4374.2862,-81.2449"/>
<polygon fill="#191970" stroke="#191970" points="4370.7863,-113.3906 4374.2862,-123.3906 4377.7863,-113.3907 4370.7863,-113.3906"/>
</g>
</g>
</svg>
