<?xml version="1.0" encoding="UTF-8" standalone="no"?>
<!DOCTYPE svg PUBLIC "-//W3C//DTD SVG 1.1//EN"
 "http://www.w3.org/Graphics/SVG/1.1/DTD/svg11.dtd">
<!-- Generated by graphviz version 2.40.1 (20161225.0304)
 -->
<!-- Title: ModelTestUtils.h Pages: 1 -->
<svg width="2423pt" height="766pt"
 viewBox="0.00 0.00 2422.50 766.00" xmlns="http://www.w3.org/2000/svg" xmlns:xlink="http://www.w3.org/1999/xlink">
<g id="graph0" class="graph" transform="scale(1 1) rotate(0) translate(4 762)">
<title>ModelTestUtils.h</title>
<!-- Node0 -->
<g id="node1" class="node">
<title>Node0</title>
<polygon fill="#bfbfbf" stroke="#000000" points="1156,-738.5 1156,-757.5 1253,-757.5 1253,-738.5 1156,-738.5"/>
<text text-anchor="middle" x="1204.5" y="-745.5" font-family="FreeSans.ttf" font-size="10.00" fill="#000000">ModelTestUtils.h</text>
</g>
<!-- Node1 -->
<g id="node2" class="node">
<title>Node1</title>
<g id="a_node2"><a xlink:href="Model_8h.html" target="_top" xlink:title="iDynTree/Model/Model.h">
<polygon fill="none" stroke="#000000" points="858,-682.5 858,-701.5 991,-701.5 991,-682.5 858,-682.5"/>
<text text-anchor="middle" x="924.5" y="-689.5" font-family="FreeSans.ttf" font-size="10.00" fill="#000000">iDynTree/Model/Model.h</text>
</a>
</g>
</g>
<!-- Node0&#45;&gt;Node1 -->
<g id="edge1" class="edge">
<title>Node0&#45;&gt;Node1</title>
<path fill="none" stroke="#191970" d="M1156.6844,-738.4369C1108.3619,-728.7724 1033.6628,-713.8326 982.1064,-703.5213"/>
<polygon fill="#191970" stroke="#191970" points="982.6106,-700.0529 972.1184,-701.5237 981.2377,-706.9169 982.6106,-700.0529"/>
</g>
<!-- Node2 -->
<g id="node3" class="node">
<title>Node2</title>
<g id="a_node3"><a xlink:href="IJoint_8h.html" target="_top" xlink:title="iDynTree/Model/IJoint.h">
<polygon fill="none" stroke="#000000" points="222.5,-559.5 222.5,-578.5 350.5,-578.5 350.5,-559.5 222.5,-559.5"/>
<text text-anchor="middle" x="286.5" y="-566.5" font-family="FreeSans.ttf" font-size="10.00" fill="#000000">iDynTree/Model/IJoint.h</text>
</a>
</g>
</g>
<!-- Node0&#45;&gt;Node2 -->
<g id="edge129" class="edge">
<title>Node0&#45;&gt;Node2</title>
<path fill="none" stroke="#191970" d="M1155.8472,-746.8878C1002.0468,-743.1219 527.614,-729.5217 376.5,-702 294.9083,-687.1401 247.5606,-712.8661 198.5,-646 190.3496,-634.8916 191.3625,-626.7849 198.5,-615 207.6826,-599.8386 223.6848,-589.4355 239.5472,-582.4143"/>
<polygon fill="#191970" stroke="#191970" points="240.8624,-585.6579 248.818,-578.6607 238.2353,-579.1695 240.8624,-585.6579"/>
</g>
<!-- Node12 -->
<g id="node13" class="node">
<title>Node12</title>
<polygon fill="none" stroke="#bfbfbf" points="2158.5,-56.5 2158.5,-75.5 2210.5,-75.5 2210.5,-56.5 2158.5,-56.5"/>
<text text-anchor="middle" x="2184.5" y="-63.5" font-family="FreeSans.ttf" font-size="10.00" fill="#000000">cassert</text>
</g>
<!-- Node0&#45;&gt;Node12 -->
<g id="edge128" class="edge">
<title>Node0&#45;&gt;Node12</title>
<path fill="none" stroke="#191970" d="M1253.0079,-745.3846C1465.1169,-733.6345 2300.5,-683.9635 2300.5,-630.5 2300.5,-630.5 2300.5,-630.5 2300.5,-569 2300.5,-375.8695 2218.2976,-151.4502 2192.2901,-85.2807"/>
<polygon fill="#191970" stroke="#191970" points="2195.441,-83.7322 2188.493,-75.7337 2188.9366,-86.3192 2195.441,-83.7322"/>
</g>
<!-- Node53 -->
<g id="node37" class="node">
<title>Node53</title>
<g id="a_node37"><a xlink:href="FixedJoint_8h.html" target="_top" xlink:title="iDynTree/Model/FixedJoint.h">
<polygon fill="none" stroke="#000000" points="0,-621 0,-640 151,-640 151,-621 0,-621"/>
<text text-anchor="middle" x="75.5" y="-628" font-family="FreeSans.ttf" font-size="10.00" fill="#000000">iDynTree/Model/FixedJoint.h</text>
</a>
</g>
</g>
<!-- Node0&#45;&gt;Node53 -->
<g id="edge75" class="edge">
<title>Node0&#45;&gt;Node53</title>
<path fill="none" stroke="#191970" d="M1155.8084,-747.6056C962.9741,-745.8044 258.7825,-736.8771 165.5,-702 135.3009,-690.709 107.3731,-665.1917 90.8777,-647.9018"/>
<polygon fill="#191970" stroke="#191970" points="93.095,-645.144 83.7386,-640.1733 87.9531,-649.8938 93.095,-645.144"/>
</g>
<!-- Node54 -->
<g id="node38" class="node">
<title>Node54</title>
<g id="a_node38"><a xlink:href="RevoluteJoint_8h.html" target="_top" xlink:title="iDynTree/Model/RevoluteJoint.h">
<polygon fill="none" stroke="#000000" points="385.5,-682.5 385.5,-701.5 553.5,-701.5 553.5,-682.5 385.5,-682.5"/>
<text text-anchor="middle" x="469.5" y="-689.5" font-family="FreeSans.ttf" font-size="10.00" fill="#000000">iDynTree/Model/RevoluteJoint.h</text>
</a>
</g>
</g>
<!-- Node0&#45;&gt;Node54 -->
<g id="edge79" class="edge">
<title>Node0&#45;&gt;Node54</title>
<path fill="none" stroke="#191970" d="M1155.9904,-744.304C1035.7511,-735.1429 722.2592,-711.2578 563.9254,-699.1943"/>
<polygon fill="#191970" stroke="#191970" points="563.9613,-695.687 553.7243,-698.4171 563.4294,-702.6668 563.9613,-695.687"/>
</g>
<!-- Node58 -->
<g id="node42" class="node">
<title>Node58</title>
<g id="a_node42"><a xlink:href="FreeFloatingState_8h.html" target="_top" xlink:title="iDynTree/Model/FreeFloating\lState.h">
<polygon fill="none" stroke="#000000" points="1425.5,-615.5 1425.5,-645.5 1579.5,-645.5 1579.5,-615.5 1425.5,-615.5"/>
<text text-anchor="start" x="1433.5" y="-633.5" font-family="FreeSans.ttf" font-size="10.00" fill="#000000">iDynTree/Model/FreeFloating</text>
<text text-anchor="middle" x="1502.5" y="-622.5" font-family="FreeSans.ttf" font-size="10.00" fill="#000000">State.h</text>
</a>
</g>
</g>
<!-- Node0&#45;&gt;Node58 -->
<g id="edge93" class="edge">
<title>Node0&#45;&gt;Node58</title>
<path fill="none" stroke="#191970" d="M1251.3938,-738.4278C1285.8746,-730.629 1333.4969,-718.2535 1373.5,-702 1408.0895,-687.9461 1445.1252,-666.7065 1470.5996,-651.0258"/>
<polygon fill="#191970" stroke="#191970" points="1472.4645,-653.9877 1479.1051,-645.7321 1468.7657,-648.0447 1472.4645,-653.9877"/>
</g>
<!-- Node60 -->
<g id="node44" class="node">
<title>Node60</title>
<g id="a_node44"><a xlink:href="LinkState_8h.html" target="_top" xlink:title="iDynTree/Model/LinkState.h">
<polygon fill="none" stroke="#000000" points="1376,-559.5 1376,-578.5 1525,-578.5 1525,-559.5 1376,-559.5"/>
<text text-anchor="middle" x="1450.5" y="-566.5" font-family="FreeSans.ttf" font-size="10.00" fill="#000000">iDynTree/Model/LinkState.h</text>
</a>
</g>
</g>
<!-- Node0&#45;&gt;Node60 -->
<g id="edge116" class="edge">
<title>Node0&#45;&gt;Node60</title>
<path fill="none" stroke="#191970" d="M1217.726,-738.3762C1258.0204,-709.0563 1379.5193,-620.6486 1429.0906,-584.5784"/>
<polygon fill="#191970" stroke="#191970" points="1431.1819,-587.3852 1437.2086,-578.6714 1427.0633,-581.725 1431.1819,-587.3852"/>
</g>
<!-- Node63 -->
<g id="node47" class="node">
<title>Node63</title>
<g id="a_node47"><a xlink:href="TestUtils_8h.html" target="_top" xlink:title="iDynTree/Core/TestUtils.h">
<polygon fill="none" stroke="#000000" points="2031,-559.5 2031,-578.5 2170,-578.5 2170,-559.5 2031,-559.5"/>
<text text-anchor="middle" x="2100.5" y="-566.5" font-family="FreeSans.ttf" font-size="10.00" fill="#000000">iDynTree/Core/TestUtils.h</text>
</a>
</g>
</g>
<!-- Node0&#45;&gt;Node63 -->
<g id="edge117" class="edge">
<title>Node0&#45;&gt;Node63</title>
<path fill="none" stroke="#191970" d="M1253.0963,-742.5147C1360.5809,-729.8906 1626.2475,-695.9778 1844.5,-646 1923.6468,-627.8761 2014.1745,-598.5631 2063.5649,-581.8181"/>
<polygon fill="#191970" stroke="#191970" points="2064.8341,-585.0833 2073.1701,-578.544 2062.5756,-578.4577 2064.8341,-585.0833"/>
</g>
<!-- Node1&#45;&gt;Node2 -->
<g id="edge2" class="edge">
<title>Node1&#45;&gt;Node2</title>
<path fill="none" stroke="#191970" d="M857.9926,-683.0847C797.4502,-674.6486 705.6978,-661.0617 626.5,-646 521.8082,-626.0899 400.2837,-597.141 334.6103,-581.0065"/>
<polygon fill="#191970" stroke="#191970" points="335.1078,-577.5245 324.5608,-578.5304 333.4331,-584.3212 335.1078,-577.5245"/>
</g>
<!-- Node3 -->
<g id="node4" class="node">
<title>Node3</title>
<g id="a_node4"><a xlink:href="Indices_8h.html" target="_top" xlink:title="iDynTree/Model/Indices.h">
<polygon fill="none" stroke="#000000" points="445.5,-498 445.5,-517 583.5,-517 583.5,-498 445.5,-498"/>
<text text-anchor="middle" x="514.5" y="-505" font-family="FreeSans.ttf" font-size="10.00" fill="#000000">iDynTree/Model/Indices.h</text>
</a>
</g>
</g>
<!-- Node1&#45;&gt;Node3 -->
<g id="edge66" class="edge">
<title>Node1&#45;&gt;Node3</title>
<path fill="none" stroke="#191970" d="M857.6777,-683.0121C782.059,-670.2123 657.932,-641.0223 569.5,-579 549.9629,-565.2975 534.1979,-542.5758 524.6362,-526.4262"/>
<polygon fill="#191970" stroke="#191970" points="527.4768,-524.3392 519.5061,-517.3594 521.3845,-527.7864 527.4768,-524.3392"/>
</g>
<!-- Node5 -->
<g id="node6" class="node">
<title>Node5</title>
<g id="a_node6"><a xlink:href="Link_8h.html" target="_top" xlink:title="iDynTree/Model/Link.h">
<polygon fill="none" stroke="#000000" points="907.5,-621 907.5,-640 1031.5,-640 1031.5,-621 907.5,-621"/>
<text text-anchor="middle" x="969.5" y="-628" font-family="FreeSans.ttf" font-size="10.00" fill="#000000">iDynTree/Model/Link.h</text>
</a>
</g>
</g>
<!-- Node1&#45;&gt;Node5 -->
<g id="edge5" class="edge">
<title>Node1&#45;&gt;Node5</title>
<path fill="none" stroke="#191970" d="M931.5313,-682.3906C938.163,-673.3273 948.2696,-659.5149 956.3887,-648.4188"/>
<polygon fill="#191970" stroke="#191970" points="959.2891,-650.382 962.3696,-640.2449 953.6399,-646.2484 959.2891,-650.382"/>
</g>
<!-- Node48 -->
<g id="node32" class="node">
<title>Node48</title>
<g id="a_node32"><a xlink:href="Transform_8h.html" target="_top" xlink:title="iDynTree/Core/Transform.h">
<polygon fill="none" stroke="#000000" points="639.5,-498 639.5,-517 785.5,-517 785.5,-498 639.5,-498"/>
<text text-anchor="middle" x="712.5" y="-505" font-family="FreeSans.ttf" font-size="10.00" fill="#000000">iDynTree/Core/Transform.h</text>
</a>
</g>
</g>
<!-- Node1&#45;&gt;Node48 -->
<g id="edge58" class="edge">
<title>Node1&#45;&gt;Node48</title>
<path fill="none" stroke="#191970" d="M918.6242,-682.2873C913.1495,-673.084 904.8933,-658.8032 898.5,-646 879.6498,-608.2506 891.4612,-587.6662 860.5,-559 839.3424,-539.4107 810.3366,-527.2145 783.6072,-519.6473"/>
<polygon fill="#191970" stroke="#191970" points="784.4448,-516.2485 773.8813,-517.0638 782.6476,-523.0139 784.4448,-516.2485"/>
</g>
<!-- Node50 -->
<g id="node34" class="node">
<title>Node50</title>
<g id="a_node34"><a xlink:href="SolidShapes_8h.html" target="_top" xlink:title="iDynTree/Model/SolidShapes.h">
<polygon fill="none" stroke="#000000" points="688,-559.5 688,-578.5 851,-578.5 851,-559.5 688,-559.5"/>
<text text-anchor="middle" x="769.5" y="-566.5" font-family="FreeSans.ttf" font-size="10.00" fill="#000000">iDynTree/Model/SolidShapes.h</text>
</a>
</g>
</g>
<!-- Node1&#45;&gt;Node50 -->
<g id="edge67" class="edge">
<title>Node1&#45;&gt;Node50</title>
<path fill="none" stroke="#191970" d="M911.8005,-682.1798C899.8252,-672.9005 881.3929,-658.5682 865.5,-646 838.9313,-624.9892 808.4519,-600.4707 789.0953,-584.8473"/>
<polygon fill="#191970" stroke="#191970" points="791.26,-582.0967 781.2815,-578.5359 786.8615,-587.5422 791.26,-582.0967"/>
</g>
<!-- Node51 -->
<g id="node35" class="node">
<title>Node51</title>
<polygon fill="none" stroke="#bfbfbf" points="1535,-498 1535,-517 1584,-517 1584,-498 1535,-498"/>
<text text-anchor="middle" x="1559.5" y="-505" font-family="FreeSans.ttf" font-size="10.00" fill="#000000">cstdlib</text>
</g>
<!-- Node1&#45;&gt;Node51 -->
<g id="edge73" class="edge">
<title>Node1&#45;&gt;Node51</title>
<path fill="none" stroke="#191970" d="M953.8515,-682.4206C1024.5816,-659.5051 1210.2376,-600.3577 1367.5,-559 1437.5727,-540.5719 1457.975,-546.5394 1526.5,-523 1528.1462,-522.4345 1529.8196,-521.8116 1531.4952,-521.1502"/>
<polygon fill="#191970" stroke="#191970" points="1533.1499,-524.2482 1540.9445,-517.0723 1530.3762,-517.8212 1533.1499,-524.2482"/>
</g>
<!-- Node52 -->
<g id="node36" class="node">
<title>Node52</title>
<polygon fill="none" stroke="#bfbfbf" points="1819,-498 1819,-517 1866,-517 1866,-498 1819,-498"/>
<text text-anchor="middle" x="1842.5" y="-505" font-family="FreeSans.ttf" font-size="10.00" fill="#000000">vector</text>
</g>
<!-- Node1&#45;&gt;Node52 -->
<g id="edge74" class="edge">
<title>Node1&#45;&gt;Node52</title>
<path fill="none" stroke="#191970" d="M991.2609,-689.4442C1136.1497,-683.5604 1475.4749,-667.8657 1588.5,-646 1683.4388,-627.6332 1718.587,-637.6097 1795.5,-579 1813.3338,-565.4102 1826.4765,-542.9901 1834.2603,-526.8766"/>
<polygon fill="#191970" stroke="#191970" points="1837.6374,-527.9059 1838.597,-517.3546 1831.267,-525.0045 1837.6374,-527.9059"/>
</g>
<!-- Node2&#45;&gt;Node3 -->
<g id="edge3" class="edge">
<title>Node2&#45;&gt;Node3</title>
<path fill="none" stroke="#191970" d="M322.125,-559.3906C361.8631,-548.6718 426.2268,-531.3105 469.4349,-519.6557"/>
<polygon fill="#191970" stroke="#191970" points="470.3818,-523.0255 479.1252,-517.0419 468.5587,-516.267 470.3818,-523.0255"/>
</g>
<!-- Node4 -->
<g id="node5" class="node">
<title>Node4</title>
<polygon fill="none" stroke="#bfbfbf" points="1068.5,-56.5 1068.5,-75.5 1112.5,-75.5 1112.5,-56.5 1068.5,-56.5"/>
<text text-anchor="middle" x="1090.5" y="-63.5" font-family="FreeSans.ttf" font-size="10.00" fill="#000000">string</text>
</g>
<!-- Node3&#45;&gt;Node4 -->
<g id="edge4" class="edge">
<title>Node3&#45;&gt;Node4</title>
<path fill="none" stroke="#191970" d="M515.8488,-497.7707C518.7861,-475.7115 525.5,-420.1843 525.5,-373.5 525.5,-373.5 525.5,-373.5 525.5,-183.5 525.5,-148.1192 531.3205,-132.0089 560.5,-112 601.5972,-83.819 950.0658,-70.4608 1058.4574,-66.9614"/>
<polygon fill="#191970" stroke="#191970" points="1058.5826,-70.4593 1068.4667,-66.6444 1058.3609,-63.4628 1058.5826,-70.4593"/>
</g>
<!-- Node5&#45;&gt;Node3 -->
<g id="edge57" class="edge">
<title>Node5&#45;&gt;Node3</title>
<path fill="none" stroke="#191970" d="M907.3915,-625.5031C818.6093,-617.7114 660.3044,-601.2244 607.5,-579 577.3341,-566.3037 548.3931,-541.3719 531.0266,-524.5692"/>
<polygon fill="#191970" stroke="#191970" points="533.0357,-521.6313 523.4763,-517.0629 528.1004,-526.5955 533.0357,-521.6313"/>
</g>
<!-- Node6 -->
<g id="node7" class="node">
<title>Node6</title>
<g id="a_node7"><a xlink:href="SpatialInertia_8h.html" target="_top" xlink:title="iDynTree/Core/SpatialInertia.h">
<polygon fill="none" stroke="#000000" points="1025.5,-559.5 1025.5,-578.5 1187.5,-578.5 1187.5,-559.5 1025.5,-559.5"/>
<text text-anchor="middle" x="1106.5" y="-566.5" font-family="FreeSans.ttf" font-size="10.00" fill="#000000">iDynTree/Core/SpatialInertia.h</text>
</a>
</g>
</g>
<!-- Node5&#45;&gt;Node6 -->
<g id="edge6" class="edge">
<title>Node5&#45;&gt;Node6</title>
<path fill="none" stroke="#191970" d="M990.9063,-620.8906C1013.7283,-610.6457 1050.0679,-594.3326 1075.9057,-582.7339"/>
<polygon fill="#191970" stroke="#191970" points="1077.5545,-585.8303 1085.2441,-578.5419 1074.6877,-579.4443 1077.5545,-585.8303"/>
</g>
<!-- Node7 -->
<g id="node8" class="node">
<title>Node7</title>
<g id="a_node8"><a xlink:href="SpatialInertiaRaw_8h.html" target="_top" xlink:title="iDynTree/Core/SpatialInertia\lRaw.h">
<polygon fill="none" stroke="#ff0000" points="804,-492.5 804,-522.5 957,-522.5 957,-492.5 804,-492.5"/>
<text text-anchor="start" x="812" y="-510.5" font-family="FreeSans.ttf" font-size="10.00" fill="#000000">iDynTree/Core/SpatialInertia</text>
<text text-anchor="middle" x="880.5" y="-499.5" font-family="FreeSans.ttf" font-size="10.00" fill="#000000">Raw.h</text>
</a>
</g>
</g>
<!-- Node6&#45;&gt;Node7 -->
<g id="edge7" class="edge">
<title>Node6&#45;&gt;Node7</title>
<path fill="none" stroke="#191970" d="M1071.1875,-559.3906C1037.6983,-550.2774 986.5646,-536.3627 945.6755,-525.2358"/>
<polygon fill="#191970" stroke="#191970" points="946.354,-521.7932 935.7858,-522.5446 944.5159,-528.5476 946.354,-521.7932"/>
</g>
<!-- Node16 -->
<g id="node9" class="node">
<title>Node16</title>
<g id="a_node9"><a xlink:href="VectorFixSize_8h.html" target="_top" xlink:title="iDynTree/Core/VectorFixSize.h">
<polygon fill="none" stroke="#ff0000" points="1400,-174 1400,-193 1561,-193 1561,-174 1400,-174"/>
<text text-anchor="middle" x="1480.5" y="-181" font-family="FreeSans.ttf" font-size="10.00" fill="#000000">iDynTree/Core/VectorFixSize.h</text>
</a>
</g>
</g>
<!-- Node6&#45;&gt;Node16 -->
<g id="edge8" class="edge">
<title>Node6&#45;&gt;Node16</title>
<path fill="none" stroke="#191970" d="M1058.5238,-559.4988C1038.2472,-552.8558 1016.5695,-541.6832 1004.5,-523 997.0238,-511.427 1002.1871,-505.5823 1004.5,-492 1015.0948,-429.783 1006.8883,-402.6431 1051.5,-358 1149.0706,-260.3608 1217.9629,-310.1524 1344.5,-255 1384.3114,-237.6478 1428.49,-213.4486 1455.3799,-198.1291"/>
<polygon fill="#191970" stroke="#191970" points="1457.2023,-201.1187 1464.1346,-193.1065 1453.7189,-195.0469 1457.2023,-201.1187"/>
</g>
<!-- Node25 -->
<g id="node15" class="node">
<title>Node25</title>
<g id="a_node15"><a xlink:href="Twist_8h.html" target="_top" xlink:title="iDynTree/Core/Twist.h">
<polygon fill="none" stroke="#000000" points="1602.5,-498 1602.5,-517 1724.5,-517 1724.5,-498 1602.5,-498"/>
<text text-anchor="middle" x="1663.5" y="-505" font-family="FreeSans.ttf" font-size="10.00" fill="#000000">iDynTree/Core/Twist.h</text>
</a>
</g>
</g>
<!-- Node6&#45;&gt;Node25 -->
<g id="edge17" class="edge">
<title>Node6&#45;&gt;Node25</title>
<path fill="none" stroke="#191970" d="M1187.8832,-564.4012C1284.8967,-558.2077 1451.7207,-545.3052 1593.5,-523 1600.2743,-521.9342 1607.3748,-520.6093 1614.3475,-519.1862"/>
<polygon fill="#191970" stroke="#191970" points="1615.363,-522.5487 1624.4188,-517.0495 1613.9102,-515.7011 1615.363,-522.5487"/>
</g>
<!-- Node41 -->
<g id="node28" class="node">
<title>Node41</title>
<g id="a_node28"><a xlink:href="SpatialMomentum_8h.html" target="_top" xlink:title="iDynTree/Core/SpatialMomentum.h">
<polygon fill="none" stroke="#000000" points="1013.5,-498 1013.5,-517 1199.5,-517 1199.5,-498 1013.5,-498"/>
<text text-anchor="middle" x="1106.5" y="-505" font-family="FreeSans.ttf" font-size="10.00" fill="#000000">iDynTree/Core/SpatialMomentum.h</text>
</a>
</g>
</g>
<!-- Node6&#45;&gt;Node41 -->
<g id="edge48" class="edge">
<title>Node6&#45;&gt;Node41</title>
<path fill="none" stroke="#191970" d="M1106.5,-559.3906C1106.5,-550.8657 1106.5,-538.1392 1106.5,-527.4235"/>
<polygon fill="#191970" stroke="#191970" points="1110.0001,-527.2448 1106.5,-517.2449 1103.0001,-527.2449 1110.0001,-527.2448"/>
</g>
<!-- Node46 -->
<g id="node30" class="node">
<title>Node46</title>
<g id="a_node30"><a xlink:href="SpatialAcc_8h.html" target="_top" xlink:title="iDynTree/Core/SpatialAcc.h">
<polygon fill="none" stroke="#000000" points="1217.5,-498 1217.5,-517 1365.5,-517 1365.5,-498 1217.5,-498"/>
<text text-anchor="middle" x="1291.5" y="-505" font-family="FreeSans.ttf" font-size="10.00" fill="#000000">iDynTree/Core/SpatialAcc.h</text>
</a>
</g>
</g>
<!-- Node6&#45;&gt;Node46 -->
<g id="edge53" class="edge">
<title>Node6&#45;&gt;Node46</title>
<path fill="none" stroke="#191970" d="M1135.4063,-559.3906C1167.039,-548.8749 1217.903,-531.966 1252.9229,-520.3243"/>
<polygon fill="#191970" stroke="#191970" points="1254.4115,-523.5178 1262.7967,-517.0419 1252.2032,-516.8753 1254.4115,-523.5178"/>
</g>
<!-- Node47 -->
<g id="node31" class="node">
<title>Node47</title>
<g id="a_node31"><a xlink:href="Wrench_8h.html" target="_top" xlink:title="iDynTree/Core/Wrench.h">
<polygon fill="none" stroke="#000000" points="1384,-498 1384,-517 1517,-517 1517,-498 1384,-498"/>
<text text-anchor="middle" x="1450.5" y="-505" font-family="FreeSans.ttf" font-size="10.00" fill="#000000">iDynTree/Core/Wrench.h</text>
</a>
</g>
</g>
<!-- Node6&#45;&gt;Node47 -->
<g id="edge55" class="edge">
<title>Node6&#45;&gt;Node47</title>
<path fill="none" stroke="#191970" d="M1165.1481,-559.4744C1219.5069,-550.5172 1302.5838,-536.5021 1374.5,-523 1381.0802,-521.7646 1387.9711,-520.4244 1394.8038,-519.0667"/>
<polygon fill="#191970" stroke="#191970" points="1395.6139,-522.474 1404.73,-517.0752 1394.2369,-515.6108 1395.6139,-522.474"/>
</g>
<!-- Node16&#45;&gt;Node4 -->
<g id="edge15" class="edge">
<title>Node16&#45;&gt;Node4</title>
<path fill="none" stroke="#191970" d="M1468.3433,-173.8634C1447.9448,-158.2232 1404.9744,-127.5041 1363.5,-112 1280.3144,-80.9032 1174.993,-70.7321 1122.8237,-67.4796"/>
<polygon fill="#191970" stroke="#191970" points="1123.0082,-63.9845 1112.8228,-66.9013 1122.604,-70.9728 1123.0082,-63.9845"/>
</g>
<!-- Node10 -->
<g id="node10" class="node">
<title>Node10</title>
<g id="a_node10"><a xlink:href="Utils_8h.html" target="_top" xlink:title="iDynTree/Core/Utils.h">
<polygon fill="none" stroke="#000000" points="1727,-56.5 1727,-75.5 1846,-75.5 1846,-56.5 1727,-56.5"/>
<text text-anchor="middle" x="1786.5" y="-63.5" font-family="FreeSans.ttf" font-size="10.00" fill="#000000">iDynTree/Core/Utils.h</text>
</a>
</g>
</g>
<!-- Node16&#45;&gt;Node10 -->
<g id="edge9" class="edge">
<title>Node16&#45;&gt;Node10</title>
<path fill="none" stroke="#191970" d="M1535.6611,-173.9745C1618.4197,-159.6318 1765.3417,-133.9472 1767.5,-132 1780.3398,-120.416 1784.7295,-100.7743 1786.1226,-85.9227"/>
<polygon fill="#191970" stroke="#191970" points="1789.6297,-85.8921 1786.6941,-75.7121 1782.6406,-85.5009 1789.6297,-85.8921"/>
</g>
<!-- Node17 -->
<g id="node12" class="node">
<title>Node17</title>
<g id="a_node12"><a xlink:href="Span_8h.html" target="_top" xlink:title="iDynTree/Core/Span.h">
<polygon fill="none" stroke="#ff0000" points="2265,-112.5 2265,-131.5 2386,-131.5 2386,-112.5 2265,-112.5"/>
<text text-anchor="middle" x="2325.5" y="-119.5" font-family="FreeSans.ttf" font-size="10.00" fill="#000000">iDynTree/Core/Span.h</text>
</a>
</g>
</g>
<!-- Node16&#45;&gt;Node17 -->
<g id="edge11" class="edge">
<title>Node16&#45;&gt;Node17</title>
<path fill="none" stroke="#191970" d="M1529.8736,-173.9934C1543.0333,-171.7348 1557.2708,-169.5375 1570.5,-168 1820.9451,-138.8934 2120.4052,-127.5718 2254.4861,-123.7301"/>
<polygon fill="#191970" stroke="#191970" points="2254.7272,-127.2248 2264.6248,-123.4449 2254.5303,-120.2275 2254.7272,-127.2248"/>
</g>
<!-- Node16&#45;&gt;Node12 -->
<g id="edge16" class="edge">
<title>Node16&#45;&gt;Node12</title>
<path fill="none" stroke="#191970" d="M1535.7026,-173.9377C1547.2005,-171.9615 1559.2441,-169.9029 1570.5,-168 1666.8948,-151.7036 1691.0583,-148.0163 1787.5,-132 1920.5869,-109.8979 2078.7626,-83.5899 2148.4686,-71.9943"/>
<polygon fill="#191970" stroke="#191970" points="2149.1987,-75.421 2158.4888,-70.3274 2148.05,-68.5159 2149.1987,-75.421"/>
</g>
<!-- Node11 -->
<g id="node11" class="node">
<title>Node11</title>
<polygon fill="none" stroke="#bfbfbf" points="1988,-.5 1988,-19.5 2041,-19.5 2041,-.5 1988,-.5"/>
<text text-anchor="middle" x="2014.5" y="-7.5" font-family="FreeSans.ttf" font-size="10.00" fill="#000000">cstddef</text>
</g>
<!-- Node10&#45;&gt;Node11 -->
<g id="edge10" class="edge">
<title>Node10&#45;&gt;Node11</title>
<path fill="none" stroke="#191970" d="M1825.4355,-56.4369C1868.205,-45.9321 1936.3497,-29.1948 1978.0883,-18.9432"/>
<polygon fill="#191970" stroke="#191970" points="1978.9685,-22.3311 1987.845,-16.5468 1977.2988,-15.5332 1978.9685,-22.3311"/>
</g>
<!-- Node17&#45;&gt;Node11 -->
<g id="edge14" class="edge">
<title>Node17&#45;&gt;Node11</title>
<path fill="none" stroke="#191970" d="M2313.2013,-112.3932C2294.183,-98.0056 2256.0098,-70.9571 2219.5,-56 2163.1805,-32.9274 2093.1871,-20.3895 2051.2715,-14.4555"/>
<polygon fill="#191970" stroke="#191970" points="2051.6269,-10.9716 2041.2453,-13.0867 2050.68,-17.9073 2051.6269,-10.9716"/>
</g>
<!-- Node17&#45;&gt;Node12 -->
<g id="edge12" class="edge">
<title>Node17&#45;&gt;Node12</title>
<path fill="none" stroke="#191970" d="M2301.2612,-112.3733C2278.2211,-103.2226 2243.3786,-89.3844 2217.7499,-79.2057"/>
<polygon fill="#191970" stroke="#191970" points="2219.0082,-75.9395 2208.4225,-75.5011 2216.4244,-82.4452 2219.0082,-75.9395"/>
</g>
<!-- Node18 -->
<g id="node14" class="node">
<title>Node18</title>
<polygon fill="none" stroke="#bfbfbf" points="2334.5,-56.5 2334.5,-75.5 2398.5,-75.5 2398.5,-56.5 2334.5,-56.5"/>
<text text-anchor="middle" x="2366.5" y="-63.5" font-family="FreeSans.ttf" font-size="10.00" fill="#000000">algorithm</text>
</g>
<!-- Node17&#45;&gt;Node18 -->
<g id="edge13" class="edge">
<title>Node17&#45;&gt;Node18</title>
<path fill="none" stroke="#191970" d="M2332.6417,-112.2455C2338.3444,-104.4564 2346.49,-93.3308 2353.3625,-83.9439"/>
<polygon fill="#191970" stroke="#191970" points="2356.3568,-85.7789 2359.4402,-75.6427 2350.7087,-81.6437 2356.3568,-85.7789"/>
</g>
<!-- Node26 -->
<g id="node16" class="node">
<title>Node26</title>
<g id="a_node16"><a xlink:href="SpatialMotionVector_8h.html" target="_top" xlink:title="iDynTree/Core/SpatialMotion\lVector.h">
<polygon fill="none" stroke="#000000" points="1239,-425.5 1239,-455.5 1394,-455.5 1394,-425.5 1239,-425.5"/>
<text text-anchor="start" x="1247" y="-443.5" font-family="FreeSans.ttf" font-size="10.00" fill="#000000">iDynTree/Core/SpatialMotion</text>
<text text-anchor="middle" x="1316.5" y="-432.5" font-family="FreeSans.ttf" font-size="10.00" fill="#000000">Vector.h</text>
</a>
</g>
</g>
<!-- Node25&#45;&gt;Node26 -->
<g id="edge18" class="edge">
<title>Node25&#45;&gt;Node26</title>
<path fill="none" stroke="#191970" d="M1621.3512,-497.9232C1612.1824,-495.9082 1602.5257,-493.8377 1593.5,-492 1530.3286,-479.1375 1458.7832,-465.8689 1404.2298,-456.0215"/>
<polygon fill="#191970" stroke="#191970" points="1404.7092,-452.5516 1394.2471,-454.2235 1403.4683,-459.4408 1404.7092,-452.5516"/>
</g>
<!-- Node26&#45;&gt;Node16 -->
<g id="edge19" class="edge">
<title>Node26&#45;&gt;Node16</title>
<path fill="none" stroke="#191970" d="M1394.2568,-429.8865C1492.4586,-416.3011 1649.2704,-393.9251 1653.5,-389 1714.6245,-317.8249 1572.849,-231.6104 1509.3176,-197.9462"/>
<polygon fill="#191970" stroke="#191970" points="1510.6753,-194.707 1500.1902,-193.1864 1507.4386,-200.9137 1510.6753,-194.707"/>
</g>
<!-- Node27 -->
<g id="node17" class="node">
<title>Node27</title>
<g id="a_node17"><a xlink:href="LinearMotionVector3_8h.html" target="_top" xlink:title="iDynTree/Core/LinearMotion\lVector3.h">
<polygon fill="none" stroke="#ff0000" points="1275,-358.5 1275,-388.5 1426,-388.5 1426,-358.5 1275,-358.5"/>
<text text-anchor="start" x="1283" y="-376.5" font-family="FreeSans.ttf" font-size="10.00" fill="#000000">iDynTree/Core/LinearMotion</text>
<text text-anchor="middle" x="1350.5" y="-365.5" font-family="FreeSans.ttf" font-size="10.00" fill="#000000">Vector3.h</text>
</a>
</g>
</g>
<!-- Node26&#45;&gt;Node27 -->
<g id="edge20" class="edge">
<title>Node26&#45;&gt;Node27</title>
<path fill="none" stroke="#191970" d="M1324.2151,-425.2967C1328.3449,-417.1586 1333.5292,-406.9425 1338.1998,-397.7386"/>
<polygon fill="#191970" stroke="#191970" points="1341.4112,-399.1445 1342.8154,-388.6432 1335.1689,-395.9768 1341.4112,-399.1445"/>
</g>
<!-- Node33 -->
<g id="node18" class="node">
<title>Node33</title>
<g id="a_node18"><a xlink:href="PrivateMotionForceVertorAssociations_8h.html" target="_top" xlink:title="iDynTree/Core/PrivateMotion\lForceVertorAssociations.h">
<polygon fill="none" stroke="#000000" points="1378,-291.5 1378,-321.5 1533,-321.5 1533,-291.5 1378,-291.5"/>
<text text-anchor="start" x="1386" y="-309.5" font-family="FreeSans.ttf" font-size="10.00" fill="#000000">iDynTree/Core/PrivateMotion</text>
<text text-anchor="middle" x="1455.5" y="-298.5" font-family="FreeSans.ttf" font-size="10.00" fill="#000000">ForceVertorAssociations.h</text>
</a>
</g>
</g>
<!-- Node26&#45;&gt;Node33 -->
<g id="edge47" class="edge">
<title>Node26&#45;&gt;Node33</title>
<path fill="none" stroke="#191970" d="M1296.0476,-425.2711C1275.6562,-408.2226 1249.622,-380.0924 1266.5,-358 1273.526,-348.8033 1326.5168,-334.8261 1374.6045,-323.7525"/>
<polygon fill="#191970" stroke="#191970" points="1375.4843,-327.1418 1384.4568,-321.5076 1373.9291,-320.3167 1375.4843,-327.1418"/>
</g>
<!-- Node34 -->
<g id="node19" class="node">
<title>Node34</title>
<g id="a_node19"><a xlink:href="AngularMotionVector3_8h.html" target="_top" xlink:title="iDynTree/Core/AngularMotion\lVector3.h">
<polygon fill="none" stroke="#ff0000" points="1060.5,-358.5 1060.5,-388.5 1218.5,-388.5 1218.5,-358.5 1060.5,-358.5"/>
<text text-anchor="start" x="1068.5" y="-376.5" font-family="FreeSans.ttf" font-size="10.00" fill="#000000">iDynTree/Core/AngularMotion</text>
<text text-anchor="middle" x="1139.5" y="-365.5" font-family="FreeSans.ttf" font-size="10.00" fill="#000000">Vector3.h</text>
</a>
</g>
</g>
<!-- Node26&#45;&gt;Node34 -->
<g id="edge22" class="edge">
<title>Node26&#45;&gt;Node34</title>
<path fill="none" stroke="#191970" d="M1276.7777,-425.4639C1250.7929,-415.6278 1216.6493,-402.7034 1188.9145,-392.2049"/>
<polygon fill="#191970" stroke="#191970" points="1189.987,-388.8686 1179.3955,-388.6017 1187.5088,-395.4153 1189.987,-388.8686"/>
</g>
<!-- Node35 -->
<g id="node20" class="node">
<title>Node35</title>
<g id="a_node20"><a xlink:href="SpatialVector_8h.html" target="_top" xlink:title="iDynTree/Core/SpatialVector.h">
<polygon fill="none" stroke="#ff0000" points="1483,-364 1483,-383 1644,-383 1644,-364 1483,-364"/>
<text text-anchor="middle" x="1563.5" y="-371" font-family="FreeSans.ttf" font-size="10.00" fill="#000000">iDynTree/Core/SpatialVector.h</text>
</a>
</g>
</g>
<!-- Node26&#45;&gt;Node35 -->
<g id="edge25" class="edge">
<title>Node26&#45;&gt;Node35</title>
<path fill="none" stroke="#191970" d="M1371.9316,-425.4639C1416.2133,-413.4522 1477.474,-396.835 1518.6921,-385.6544"/>
<polygon fill="#191970" stroke="#191970" points="1519.7232,-389.0012 1528.4581,-383.0053 1517.8906,-382.2454 1519.7232,-389.0012"/>
</g>
<!-- Node27&#45;&gt;Node33 -->
<g id="edge21" class="edge">
<title>Node27&#45;&gt;Node33</title>
<path fill="none" stroke="#191970" d="M1374.064,-358.4639C1388.5527,-349.2188 1407.3172,-337.2452 1423.1817,-327.1222"/>
<polygon fill="#191970" stroke="#191970" points="1425.104,-330.0474 1431.6513,-321.7177 1421.3386,-324.1464 1425.104,-330.0474"/>
</g>
<!-- Node34&#45;&gt;Node10 -->
<g id="edge24" class="edge">
<title>Node34&#45;&gt;Node10</title>
<path fill="none" stroke="#191970" d="M1178.1928,-358.3574C1223.5997,-340.883 1301.3581,-311.8774 1369.5,-291 1527.3974,-242.6233 1589.0359,-285.8432 1729.5,-199 1762.9998,-178.2884 1773.745,-168.9054 1787.5,-132 1793.003,-117.2352 1792.3061,-99.2909 1790.4818,-85.842"/>
<polygon fill="#191970" stroke="#191970" points="1793.8989,-85.0555 1788.7956,-75.7708 1786.995,-86.2115 1793.8989,-85.0555"/>
</g>
<!-- Node34&#45;&gt;Node33 -->
<g id="edge23" class="edge">
<title>Node34&#45;&gt;Node33</title>
<path fill="none" stroke="#191970" d="M1210.4166,-358.4639C1259.1213,-348.1373 1323.8811,-334.4065 1374.5997,-323.6529"/>
<polygon fill="#191970" stroke="#191970" points="1375.4907,-327.0419 1384.5473,-321.5438 1374.0388,-320.1941 1375.4907,-327.0419"/>
</g>
<!-- Node35&#45;&gt;Node10 -->
<g id="edge45" class="edge">
<title>Node35&#45;&gt;Node10</title>
<path fill="none" stroke="#191970" d="M1597.1397,-363.9202C1658.3296,-344.4594 1786.3326,-293.8862 1838.5,-199 1857.1287,-165.1166 1854.3822,-147.2543 1838.5,-112 1832.9303,-99.6369 1822.2137,-89.2563 1811.9494,-81.5033"/>
<polygon fill="#191970" stroke="#191970" points="1813.7549,-78.4948 1803.5567,-75.623 1809.7382,-84.2277 1813.7549,-78.4948"/>
</g>
<!-- Node35&#45;&gt;Node33 -->
<g id="edge44" class="edge">
<title>Node35&#45;&gt;Node33</title>
<path fill="none" stroke="#191970" d="M1548.0262,-363.9005C1532.5489,-354.2988 1508.2609,-339.2313 1488.4524,-326.9427"/>
<polygon fill="#191970" stroke="#191970" points="1490.0569,-323.8193 1479.7142,-321.5218 1486.3667,-329.7677 1490.0569,-323.8193"/>
</g>
<!-- Node36 -->
<g id="node21" class="node">
<title>Node36</title>
<g id="a_node21"><a xlink:href="Position_8h.html" target="_top" xlink:title="Position.h">
<polygon fill="none" stroke="#000000" points="839,-297 839,-316 904,-316 904,-297 839,-297"/>
<text text-anchor="middle" x="871.5" y="-304" font-family="FreeSans.ttf" font-size="10.00" fill="#000000">Position.h</text>
</a>
</g>
</g>
<!-- Node35&#45;&gt;Node36 -->
<g id="edge26" class="edge">
<title>Node35&#45;&gt;Node36</title>
<path fill="none" stroke="#191970" d="M1488.0749,-363.9919C1470.8099,-361.9197 1452.5285,-359.8081 1435.5,-358 1241.1268,-337.3615 1008.5242,-317.7205 914.2803,-309.9735"/>
<polygon fill="#191970" stroke="#191970" points="914.5267,-306.482 904.2741,-309.153 913.9546,-313.4586 914.5267,-306.482"/>
</g>
<!-- Node30 -->
<g id="node24" class="node">
<title>Node30</title>
<g id="a_node24"><a xlink:href="Rotation_8h.html" target="_top" xlink:title="iDynTree/Core/Rotation.h">
<polygon fill="none" stroke="#ff0000" points="1165,-235.5 1165,-254.5 1302,-254.5 1302,-235.5 1165,-235.5"/>
<text text-anchor="middle" x="1233.5" y="-242.5" font-family="FreeSans.ttf" font-size="10.00" fill="#000000">iDynTree/Core/Rotation.h</text>
</a>
</g>
</g>
<!-- Node35&#45;&gt;Node30 -->
<g id="edge43" class="edge">
<title>Node35&#45;&gt;Node30</title>
<path fill="none" stroke="#191970" d="M1564.1774,-363.9048C1564.8272,-346.5335 1563.4476,-309.923 1542.5,-291 1525.611,-275.7433 1398.0255,-260.7175 1312.1673,-252.1789"/>
<polygon fill="#191970" stroke="#191970" points="1312.4694,-248.6918 1302.1746,-251.1955 1311.7838,-255.6581 1312.4694,-248.6918"/>
</g>
<!-- Node14 -->
<g id="node27" class="node">
<title>Node14</title>
<polygon fill="none" stroke="#bfbfbf" points="2016.5,-56.5 2016.5,-75.5 2076.5,-75.5 2076.5,-56.5 2016.5,-56.5"/>
<text text-anchor="middle" x="2046.5" y="-63.5" font-family="FreeSans.ttf" font-size="10.00" fill="#000000">iostream</text>
</g>
<!-- Node35&#45;&gt;Node14 -->
<g id="edge46" class="edge">
<title>Node35&#45;&gt;Node14</title>
<path fill="none" stroke="#191970" d="M1644.2243,-369.5803C1769.7642,-362.7455 2000.3814,-346.9484 2028.5,-322 2054.7889,-298.675 2046.5,-280.1449 2046.5,-245 2046.5,-245 2046.5,-245 2046.5,-183.5 2046.5,-149.1399 2046.5,-109.128 2046.5,-85.7764"/>
<polygon fill="#191970" stroke="#191970" points="2050.0001,-85.7489 2046.5,-75.7489 2043.0001,-85.749 2050.0001,-85.7489"/>
</g>
<!-- Node36&#45;&gt;Node4 -->
<g id="edge42" class="edge">
<title>Node36&#45;&gt;Node4</title>
<path fill="none" stroke="#191970" d="M838.9412,-301.048C793.3846,-291.992 719.0998,-271.1696 746.5,-235 782.1848,-187.8944 823.2696,-228.4583 874.5,-199 891.6659,-189.1293 890.7773,-180.0372 906.5,-168 945.1128,-138.4383 957.938,-135.5227 1000.5,-112 1020.7152,-100.8277 1043.9351,-88.9835 1061.7259,-80.1119"/>
<polygon fill="#191970" stroke="#191970" points="1063.5948,-83.0918 1070.9975,-75.5121 1060.4838,-76.821 1063.5948,-83.0918"/>
</g>
<!-- Node37 -->
<g id="node22" class="node">
<title>Node37</title>
<g id="a_node22"><a xlink:href="PositionRaw_8h.html" target="_top" xlink:title="iDynTree/Core/PositionRaw.h">
<polygon fill="none" stroke="#000000" points="952.5,-235.5 952.5,-254.5 1108.5,-254.5 1108.5,-235.5 952.5,-235.5"/>
<text text-anchor="middle" x="1030.5" y="-242.5" font-family="FreeSans.ttf" font-size="10.00" fill="#000000">iDynTree/Core/PositionRaw.h</text>
</a>
</g>
</g>
<!-- Node36&#45;&gt;Node37 -->
<g id="edge27" class="edge">
<title>Node36&#45;&gt;Node37</title>
<path fill="none" stroke="#191970" d="M896.3438,-296.8906C923.1807,-286.5103 966.1233,-269.9004 996.1753,-258.2766"/>
<polygon fill="#191970" stroke="#191970" points="997.7667,-261.4138 1005.8307,-254.5419 995.2414,-254.8851 997.7667,-261.4138"/>
</g>
<!-- Node38 -->
<g id="node23" class="node">
<title>Node38</title>
<g id="a_node23"><a xlink:href="PositionSemantics_8h.html" target="_top" xlink:title="iDynTree/Core/PositionSemantics.h">
<polygon fill="none" stroke="#000000" points="678,-174 678,-193 865,-193 865,-174 678,-174"/>
<text text-anchor="middle" x="771.5" y="-181" font-family="FreeSans.ttf" font-size="10.00" fill="#000000">iDynTree/Core/PositionSemantics.h</text>
</a>
</g>
</g>
<!-- Node36&#45;&gt;Node38 -->
<g id="edge30" class="edge">
<title>Node36&#45;&gt;Node38</title>
<path fill="none" stroke="#191970" d="M838.6639,-300.534C796.6441,-292.1541 727.4754,-275.5919 712.5,-255 697.7746,-234.7519 722.7332,-212.7093 744.5831,-198.5303"/>
<polygon fill="#191970" stroke="#191970" points="746.6485,-201.3689 753.3255,-193.1428 742.976,-195.4096 746.6485,-201.3689"/>
</g>
<!-- Node36&#45;&gt;Node30 -->
<g id="edge32" class="edge">
<title>Node36&#45;&gt;Node30</title>
<path fill="none" stroke="#191970" d="M904.173,-300.4173C919.9696,-297.5083 939.21,-294.0119 956.5,-291 1027.2562,-278.6744 1108.316,-265.3001 1164.3845,-256.1666"/>
<polygon fill="#191970" stroke="#191970" points="1165.2468,-259.5724 1174.5548,-254.5117 1164.1225,-252.6633 1165.2468,-259.5724"/>
</g>
<!-- Node37&#45;&gt;Node4 -->
<g id="edge29" class="edge">
<title>Node37&#45;&gt;Node4</title>
<path fill="none" stroke="#191970" d="M1033.7259,-235.3762C1043.2078,-207.0883 1071.1261,-123.7987 1083.938,-85.5767"/>
<polygon fill="#191970" stroke="#191970" points="1087.3985,-86.2653 1087.2582,-75.6714 1080.7614,-84.0405 1087.3985,-86.2653"/>
</g>
<!-- Node37&#45;&gt;Node16 -->
<g id="edge28" class="edge">
<title>Node37&#45;&gt;Node16</title>
<path fill="none" stroke="#191970" d="M1100.3188,-235.4581C1181.5684,-224.354 1315.456,-206.056 1400.7355,-194.4011"/>
<polygon fill="#191970" stroke="#191970" points="1401.4538,-197.8356 1410.8877,-193.0137 1400.5058,-190.9001 1401.4538,-197.8356"/>
</g>
<!-- Node38&#45;&gt;Node4 -->
<g id="edge31" class="edge">
<title>Node38&#45;&gt;Node4</title>
<path fill="none" stroke="#191970" d="M782.846,-173.7777C801.5164,-158.2967 840.452,-128.1481 878.5,-112 939.0648,-86.2954 1015.6933,-74.2516 1058.2582,-69.1942"/>
<polygon fill="#191970" stroke="#191970" points="1058.7729,-72.6584 1068.3154,-68.0549 1057.9849,-65.7029 1058.7729,-72.6584"/>
</g>
<!-- Node30&#45;&gt;Node4 -->
<g id="edge33" class="edge">
<title>Node30&#45;&gt;Node4</title>
<path fill="none" stroke="#191970" d="M1209.9043,-235.4956C1193.0195,-227.7306 1170.6811,-215.3676 1155.5,-199 1124.1793,-165.2312 1104.8563,-113.5637 1096.0823,-85.6059"/>
<polygon fill="#191970" stroke="#191970" points="1099.3724,-84.3926 1093.1425,-75.8229 1092.6685,-86.4071 1099.3724,-84.3926"/>
</g>
<!-- Node30&#45;&gt;Node16 -->
<g id="edge41" class="edge">
<title>Node30&#45;&gt;Node16</title>
<path fill="none" stroke="#191970" d="M1271.8227,-235.4581C1314.997,-224.7082 1385.2495,-207.2162 1432.1584,-195.5365"/>
<polygon fill="#191970" stroke="#191970" points="1433.2293,-198.8768 1442.0874,-193.0643 1431.538,-192.0842 1433.2293,-198.8768"/>
</g>
<!-- Node31 -->
<g id="node25" class="node">
<title>Node31</title>
<g id="a_node25"><a xlink:href="RotationRaw_8h.html" target="_top" xlink:title="iDynTree/Core/RotationRaw.h">
<polygon fill="none" stroke="#000000" points="1164.5,-174 1164.5,-193 1322.5,-193 1322.5,-174 1164.5,-174"/>
<text text-anchor="middle" x="1243.5" y="-181" font-family="FreeSans.ttf" font-size="10.00" fill="#000000">iDynTree/Core/RotationRaw.h</text>
</a>
</g>
</g>
<!-- Node30&#45;&gt;Node31 -->
<g id="edge34" class="edge">
<title>Node30&#45;&gt;Node31</title>
<path fill="none" stroke="#191970" d="M1235.0625,-235.3906C1236.4487,-226.8657 1238.518,-214.1392 1240.2604,-203.4235"/>
<polygon fill="#191970" stroke="#191970" points="1243.7651,-203.677 1241.9155,-193.2449 1236.8558,-202.5535 1243.7651,-203.677"/>
</g>
<!-- Node31&#45;&gt;Node4 -->
<g id="edge40" class="edge">
<title>Node31&#45;&gt;Node4</title>
<path fill="none" stroke="#191970" d="M1220.6368,-173.8903C1200.4904,-164.7983 1170.9398,-149.8987 1148.5,-132 1130.9215,-117.9789 1114.3566,-98.2222 1103.4662,-83.9838"/>
<polygon fill="#191970" stroke="#191970" points="1106.2449,-81.8552 1097.4603,-75.9321 1100.6339,-86.0405 1106.2449,-81.8552"/>
</g>
<!-- Node9 -->
<g id="node26" class="node">
<title>Node9</title>
<g id="a_node26"><a xlink:href="MatrixFixSize_8h.html" target="_top" xlink:title="iDynTree/Core/MatrixFixSize.h">
<polygon fill="none" stroke="#ff0000" points="1597,-112.5 1597,-131.5 1758,-131.5 1758,-112.5 1597,-112.5"/>
<text text-anchor="middle" x="1677.5" y="-119.5" font-family="FreeSans.ttf" font-size="10.00" fill="#000000">iDynTree/Core/MatrixFixSize.h</text>
</a>
</g>
</g>
<!-- Node31&#45;&gt;Node9 -->
<g id="edge35" class="edge">
<title>Node31&#45;&gt;Node9</title>
<path fill="none" stroke="#191970" d="M1299.0253,-173.9559C1311.3521,-171.918 1324.3607,-169.8299 1336.5,-168 1423.3448,-154.9086 1522.9073,-141.6824 1591.9375,-132.7939"/>
<polygon fill="#191970" stroke="#191970" points="1592.4231,-136.2604 1601.8956,-131.5145 1591.5311,-129.3174 1592.4231,-136.2604"/>
</g>
<!-- Node9&#45;&gt;Node4 -->
<g id="edge38" class="edge">
<title>Node9&#45;&gt;Node4</title>
<path fill="none" stroke="#191970" d="M1596.9133,-113.4516C1592.0368,-112.9547 1587.2033,-112.4674 1582.5,-112 1409.2407,-94.7822 1201.4683,-75.9529 1122.8021,-68.8889"/>
<polygon fill="#191970" stroke="#191970" points="1122.8485,-65.3791 1112.5758,-67.9716 1122.2231,-72.3511 1122.8485,-65.3791"/>
</g>
<!-- Node9&#45;&gt;Node10 -->
<g id="edge36" class="edge">
<title>Node9&#45;&gt;Node10</title>
<path fill="none" stroke="#191970" d="M1696.4864,-112.2455C1713.6792,-103.4125 1739.2238,-90.2887 1758.7132,-80.2758"/>
<polygon fill="#191970" stroke="#191970" points="1760.4359,-83.3257 1767.7312,-75.6427 1757.237,-77.0993 1760.4359,-83.3257"/>
</g>
<!-- Node9&#45;&gt;Node12 -->
<g id="edge37" class="edge">
<title>Node9&#45;&gt;Node12</title>
<path fill="none" stroke="#191970" d="M1758.1158,-113.0957C1869.8848,-100.7504 2067.2928,-78.946 2148.2841,-70.0002"/>
<polygon fill="#191970" stroke="#191970" points="2148.9155,-73.4518 2158.4708,-68.875 2148.1469,-66.4941 2148.9155,-73.4518"/>
</g>
<!-- Node9&#45;&gt;Node14 -->
<g id="edge39" class="edge">
<title>Node9&#45;&gt;Node14</title>
<path fill="none" stroke="#191970" d="M1740.5141,-112.4369C1816.5588,-100.8962 1942.1702,-81.8333 2006.2271,-72.1119"/>
<polygon fill="#191970" stroke="#191970" points="2006.9722,-75.539 2016.3338,-70.5781 2005.9218,-68.6182 2006.9722,-75.539"/>
</g>
<!-- Node42 -->
<g id="node29" class="node">
<title>Node42</title>
<g id="a_node29"><a xlink:href="SpatialForceVector_8h.html" target="_top" xlink:title="iDynTree/Core/SpatialForce\lVector.h">
<polygon fill="none" stroke="#ff0000" points="1438.5,-425.5 1438.5,-455.5 1586.5,-455.5 1586.5,-425.5 1438.5,-425.5"/>
<text text-anchor="start" x="1446.5" y="-443.5" font-family="FreeSans.ttf" font-size="10.00" fill="#000000">iDynTree/Core/SpatialForce</text>
<text text-anchor="middle" x="1512.5" y="-432.5" font-family="FreeSans.ttf" font-size="10.00" fill="#000000">Vector.h</text>
</a>
</g>
</g>
<!-- Node41&#45;&gt;Node42 -->
<g id="edge49" class="edge">
<title>Node41&#45;&gt;Node42</title>
<path fill="none" stroke="#191970" d="M1164.2387,-497.9717C1233.3107,-486.5731 1349.5006,-467.3989 1428.5094,-454.3605"/>
<polygon fill="#191970" stroke="#191970" points="1429.1397,-457.8039 1438.4363,-452.7223 1427.9999,-450.8973 1429.1397,-457.8039"/>
</g>
<!-- Node42&#45;&gt;Node16 -->
<g id="edge50" class="edge">
<title>Node42&#45;&gt;Node16</title>
<path fill="none" stroke="#191970" d="M1586.6655,-427.682C1628.1851,-418.8304 1674.0576,-405.6587 1686.5,-389 1712.5642,-354.1038 1699.2924,-332.6346 1686.5,-291 1677.6659,-262.2485 1672.6967,-252.8665 1648.5,-235 1621.705,-215.215 1587.2067,-202.9387 1556.45,-195.365"/>
<polygon fill="#191970" stroke="#191970" points="1557.144,-191.933 1546.6101,-193.0677 1555.5525,-198.7497 1557.144,-191.933"/>
</g>
<!-- Node42&#45;&gt;Node33 -->
<g id="edge52" class="edge">
<title>Node42&#45;&gt;Node33</title>
<path fill="none" stroke="#191970" d="M1498.7035,-425.336C1490.5394,-415.6015 1480.6279,-402.3256 1474.5,-389 1466.138,-370.8162 1461.296,-348.6345 1458.5952,-331.853"/>
<polygon fill="#191970" stroke="#191970" points="1462.0212,-331.0912 1457.1141,-321.7013 1455.0945,-332.1018 1462.0212,-331.0912"/>
</g>
<!-- Node42&#45;&gt;Node35 -->
<g id="edge51" class="edge">
<title>Node42&#45;&gt;Node35</title>
<path fill="none" stroke="#191970" d="M1524.0727,-425.2967C1531.7873,-415.1618 1541.9551,-401.804 1550.0329,-391.1921"/>
<polygon fill="#191970" stroke="#191970" points="1552.9549,-393.1319 1556.2268,-383.055 1547.3849,-388.8921 1552.9549,-393.1319"/>
</g>
<!-- Node46&#45;&gt;Node26 -->
<g id="edge54" class="edge">
<title>Node46&#45;&gt;Node26</title>
<path fill="none" stroke="#191970" d="M1295.0819,-497.9005C1298.2773,-489.3368 1303.0951,-476.4252 1307.3525,-465.0152"/>
<polygon fill="#191970" stroke="#191970" points="1310.6781,-466.1144 1310.8949,-455.5218 1304.1197,-463.6672 1310.6781,-466.1144"/>
</g>
<!-- Node47&#45;&gt;Node42 -->
<g id="edge56" class="edge">
<title>Node47&#45;&gt;Node42</title>
<path fill="none" stroke="#191970" d="M1459.3831,-497.9005C1467.788,-488.8178 1480.7188,-474.8442 1491.7175,-462.9585"/>
<polygon fill="#191970" stroke="#191970" points="1494.3762,-465.2386 1498.5993,-455.5218 1489.2385,-460.4842 1494.3762,-465.2386"/>
</g>
<!-- Node48&#45;&gt;Node4 -->
<g id="edge65" class="edge">
<title>Node48&#45;&gt;Node4</title>
<path fill="none" stroke="#191970" d="M698.1724,-497.9427C670.5215,-478.2244 612.5,-430.1043 612.5,-373.5 612.5,-373.5 612.5,-373.5 612.5,-183.5 612.5,-133.1065 654.0818,-131.6177 700.5,-112 764.9584,-84.758 976.8192,-71.6269 1058.2339,-67.4933"/>
<polygon fill="#191970" stroke="#191970" points="1058.5713,-70.981 1068.3859,-66.9905 1058.225,-63.9896 1058.5713,-70.981"/>
</g>
<!-- Node48&#45;&gt;Node36 -->
<g id="edge59" class="edge">
<title>Node48&#45;&gt;Node36</title>
<path fill="none" stroke="#191970" d="M726.826,-497.746C752.8655,-479.343 808.239,-437.0083 840.5,-389 853.591,-369.5189 862.1242,-343.7623 866.8613,-326.2458"/>
<polygon fill="#191970" stroke="#191970" points="870.3752,-326.6267 869.4359,-316.0736 863.5892,-324.9091 870.3752,-326.6267"/>
</g>
<!-- Node48&#45;&gt;Node30 -->
<g id="edge60" class="edge">
<title>Node48&#45;&gt;Node30</title>
<path fill="none" stroke="#191970" d="M763.489,-497.9501C824.2546,-486.2019 919.2874,-466.5248 932.5,-456 970.435,-425.782 951.7346,-397.048 980.5,-358 1006.2334,-323.0678 1013.4655,-311.8768 1051.5,-291 1083.0877,-273.6618 1121.3383,-262.7197 1154.6048,-255.8829"/>
<polygon fill="#191970" stroke="#191970" points="1155.6174,-259.251 1164.756,-253.8904 1154.2691,-252.3821 1155.6174,-259.251"/>
</g>
<!-- Node48&#45;&gt;Node9 -->
<g id="edge64" class="edge">
<title>Node48&#45;&gt;Node9</title>
<path fill="none" stroke="#191970" d="M762.6074,-497.9745C831.898,-484.6566 949.4188,-461.4833 957.5,-456 1000.7491,-426.6543 988.9712,-398.0933 1022.5,-358 1050.1269,-324.9641 1053.9729,-310.2427 1092.5,-291 1180.745,-246.9252 1224.7053,-301.8663 1311.5,-255 1357.7213,-230.042 1345.2357,-192.8782 1391.5,-168 1424.4819,-150.2643 1515.8789,-137.5964 1586.5642,-130.102"/>
<polygon fill="#191970" stroke="#191970" points="1587.2493,-133.5498 1596.8335,-129.0339 1586.525,-126.5873 1587.2493,-133.5498"/>
</g>
<!-- Node49 -->
<g id="node33" class="node">
<title>Node49</title>
<g id="a_node33"><a xlink:href="TransformSemantics_8h.html" target="_top" xlink:title="iDynTree/Core/TransformSemantics.h">
<polygon fill="none" stroke="#000000" points="1157,-112.5 1157,-131.5 1354,-131.5 1354,-112.5 1157,-112.5"/>
<text text-anchor="middle" x="1255.5" y="-119.5" font-family="FreeSans.ttf" font-size="10.00" fill="#000000">iDynTree/Core/TransformSemantics.h</text>
</a>
</g>
</g>
<!-- Node48&#45;&gt;Node49 -->
<g id="edge61" class="edge">
<title>Node48&#45;&gt;Node49</title>
<path fill="none" stroke="#191970" d="M733.6786,-497.8809C753.8454,-488.3503 784.7126,-472.7828 809.5,-456 903.5083,-392.3499 905.1606,-345.9598 1004.5,-291 1050.6212,-265.4833 1078.3528,-290.2955 1117.5,-255 1148.8376,-226.7458 1125.954,-198.1228 1155.5,-168 1170.3137,-152.8971 1191.0154,-142.2543 1209.7427,-135.0384"/>
<polygon fill="#191970" stroke="#191970" points="1211.1037,-138.268 1219.3142,-131.5718 1208.72,-131.6863 1211.1037,-138.268"/>
</g>
<!-- Node49&#45;&gt;Node4 -->
<g id="edge62" class="edge">
<title>Node49&#45;&gt;Node4</title>
<path fill="none" stroke="#191970" d="M1227.1355,-112.3733C1197.9961,-102.4835 1152.7244,-87.1186 1122.3669,-76.8154"/>
<polygon fill="#191970" stroke="#191970" points="1123.2827,-73.4302 1112.6884,-73.5306 1121.033,-80.0589 1123.2827,-73.4302"/>
</g>
<!-- Node49&#45;&gt;Node10 -->
<g id="edge63" class="edge">
<title>Node49&#45;&gt;Node10</title>
<path fill="none" stroke="#191970" d="M1345.8777,-112.4686C1450.709,-101.413 1621.2907,-83.4232 1716.5358,-73.3785"/>
<polygon fill="#191970" stroke="#191970" points="1717.0626,-76.8425 1726.6403,-72.3129 1716.3284,-69.8811 1717.0626,-76.8425"/>
</g>
<!-- Node50&#45;&gt;Node3 -->
<g id="edge72" class="edge">
<title>Node50&#45;&gt;Node3</title>
<path fill="none" stroke="#191970" d="M729.936,-559.4581C685.27,-548.6857 612.5313,-531.1428 564.103,-519.4631"/>
<polygon fill="#191970" stroke="#191970" points="564.6987,-516.0065 554.1568,-517.0643 563.0574,-522.8113 564.6987,-516.0065"/>
</g>
<!-- Node50&#45;&gt;Node4 -->
<g id="edge69" class="edge">
<title>Node50&#45;&gt;Node4</title>
<path fill="none" stroke="#191970" d="M702.615,-559.4606C677.3438,-552.8807 650.0102,-541.7672 630.5,-523 579.3645,-473.8117 574.5,-444.4529 574.5,-373.5 574.5,-373.5 574.5,-373.5 574.5,-183.5 574.5,-139.0283 604.4438,-131.3191 644.5,-112 717.7692,-76.6623 968.6799,-68.3645 1058.3343,-66.5088"/>
<polygon fill="#191970" stroke="#191970" points="1058.5153,-70.0061 1068.4456,-66.3131 1058.3797,-63.0074 1058.5153,-70.0061"/>
</g>
<!-- Node50&#45;&gt;Node48 -->
<g id="edge71" class="edge">
<title>Node50&#45;&gt;Node48</title>
<path fill="none" stroke="#191970" d="M760.5938,-559.3906C752.0272,-550.1478 738.8831,-535.966 728.4997,-524.7628"/>
<polygon fill="#191970" stroke="#191970" points="730.8965,-522.2 721.5318,-517.2449 725.7625,-526.9584 730.8965,-522.2"/>
</g>
<!-- Node50&#45;&gt;Node51 -->
<g id="edge68" class="edge">
<title>Node50&#45;&gt;Node51</title>
<path fill="none" stroke="#191970" d="M851.1131,-565.7806C1033.3553,-558.3411 1462.4728,-539.3422 1526.5,-523 1528.4779,-522.4952 1530.4812,-521.8715 1532.4721,-521.1671"/>
<polygon fill="#191970" stroke="#191970" points="1534.2565,-524.2158 1542.1481,-517.1466 1531.5705,-517.7516 1534.2565,-524.2158"/>
</g>
<!-- Node50&#45;&gt;Node52 -->
<g id="edge70" class="edge">
<title>Node50&#45;&gt;Node52</title>
<path fill="none" stroke="#191970" d="M851.2651,-565.5386C1068.0767,-556.2976 1647.0223,-531.1938 1733.5,-523 1758.8469,-520.5984 1787.327,-516.4996 1808.8173,-513.12"/>
<polygon fill="#191970" stroke="#191970" points="1809.4397,-516.565 1818.7613,-511.5292 1808.334,-509.6529 1809.4397,-516.565"/>
</g>
<!-- Node53&#45;&gt;Node2 -->
<g id="edge78" class="edge">
<title>Node53&#45;&gt;Node2</title>
<path fill="none" stroke="#191970" d="M108.4688,-620.8906C145.0117,-610.2395 204.0571,-593.0296 244.035,-581.3772"/>
<polygon fill="#191970" stroke="#191970" points="245.1417,-584.7004 253.7628,-578.5419 243.1828,-577.98 245.1417,-584.7004"/>
</g>
<!-- Node53&#45;&gt;Node3 -->
<g id="edge77" class="edge">
<title>Node53&#45;&gt;Node3</title>
<path fill="none" stroke="#191970" d="M83.5264,-620.9355C97.4112,-605.1115 127.6019,-573.7667 160.5,-559 208.2371,-537.5726 346.5051,-522.0404 435.4419,-513.9263"/>
<polygon fill="#191970" stroke="#191970" points="435.8508,-517.4037 445.4968,-513.0213 435.2233,-510.4319 435.8508,-517.4037"/>
</g>
<!-- Node53&#45;&gt;Node48 -->
<g id="edge76" class="edge">
<title>Node53&#45;&gt;Node48</title>
<path fill="none" stroke="#191970" d="M89.6225,-620.8236C113.7728,-604.8346 165.0964,-573.253 213.5,-559 375.812,-511.2052 424.3496,-541.8403 592.5,-523 605.2261,-521.5741 618.6959,-519.9484 631.8336,-518.2988"/>
<polygon fill="#191970" stroke="#191970" points="632.3171,-521.7657 641.7975,-517.0357 631.4367,-514.8212 632.3171,-521.7657"/>
</g>
<!-- Node54&#45;&gt;Node3 -->
<g id="edge90" class="edge">
<title>Node54&#45;&gt;Node3</title>
<path fill="none" stroke="#191970" d="M471.856,-682.3402C478.9488,-653.26 500.1985,-566.136 509.7539,-526.959"/>
<polygon fill="#191970" stroke="#191970" points="513.198,-527.6087 512.1673,-517.0641 506.3973,-525.95 513.198,-527.6087"/>
</g>
<!-- Node54&#45;&gt;Node26 -->
<g id="edge81" class="edge">
<title>Node54&#45;&gt;Node26</title>
<path fill="none" stroke="#191970" d="M463.2369,-682.4887C443.1472,-650.6981 384.5851,-547.0419 436.5,-492 463.4074,-463.4719 1011.5008,-447.6093 1228.8304,-442.421"/>
<polygon fill="#191970" stroke="#191970" points="1229.0117,-445.9178 1238.926,-442.182 1228.8459,-438.9197 1229.0117,-445.9178"/>
</g>
<!-- Node54&#45;&gt;Node48 -->
<g id="edge80" class="edge">
<title>Node54&#45;&gt;Node48</title>
<path fill="none" stroke="#191970" d="M482.2226,-682.3402C521.7536,-652.326 642.7224,-560.4793 691.6431,-523.3358"/>
<polygon fill="#191970" stroke="#191970" points="694.0554,-525.8988 699.9033,-517.0641 689.8224,-520.3237 694.0554,-525.8988"/>
</g>
<!-- Node55 -->
<g id="node39" class="node">
<title>Node55</title>
<g id="a_node39"><a xlink:href="Axis_8h.html" target="_top" xlink:title="iDynTree/Core/Axis.h">
<polygon fill="none" stroke="#000000" points="713.5,-364 713.5,-383 831.5,-383 831.5,-364 713.5,-364"/>
<text text-anchor="middle" x="772.5" y="-371" font-family="FreeSans.ttf" font-size="10.00" fill="#000000">iDynTree/Core/Axis.h</text>
</a>
</g>
</g>
<!-- Node54&#45;&gt;Node55 -->
<g id="edge82" class="edge">
<title>Node54&#45;&gt;Node55</title>
<path fill="none" stroke="#191970" d="M457.0879,-682.4159C447.0012,-673.9401 433.2222,-660.6684 425.5,-646 393.5486,-585.3081 373.7203,-546.3953 415.5,-492 452.0685,-444.3894 620.252,-404.0435 712.1381,-385.085"/>
<polygon fill="#191970" stroke="#191970" points="713.0412,-388.4729 722.1392,-383.0438 711.6413,-381.6143 713.0412,-388.4729"/>
</g>
<!-- Node57 -->
<g id="node41" class="node">
<title>Node57</title>
<g id="a_node41"><a xlink:href="MovableJointImpl_8h.html" target="_top" xlink:title="iDynTree/Model/MovableJoint\lImpl.h">
<polygon fill="none" stroke="#000000" points="207.5,-615.5 207.5,-645.5 365.5,-645.5 365.5,-615.5 207.5,-615.5"/>
<text text-anchor="start" x="215.5" y="-633.5" font-family="FreeSans.ttf" font-size="10.00" fill="#000000">iDynTree/Model/MovableJoint</text>
<text text-anchor="middle" x="286.5" y="-622.5" font-family="FreeSans.ttf" font-size="10.00" fill="#000000">Impl.h</text>
</a>
</g>
</g>
<!-- Node54&#45;&gt;Node57 -->
<g id="edge91" class="edge">
<title>Node54&#45;&gt;Node57</title>
<path fill="none" stroke="#191970" d="M440.9063,-682.3906C414.1902,-673.4123 373.6065,-659.7735 340.7502,-648.7316"/>
<polygon fill="#191970" stroke="#191970" points="341.8609,-645.4126 331.2668,-645.5446 339.6309,-652.0479 341.8609,-645.4126"/>
</g>
<!-- Node55&#45;&gt;Node4 -->
<g id="edge83" class="edge">
<title>Node55&#45;&gt;Node4</title>
<path fill="none" stroke="#191970" d="M752.3542,-363.9355C717.7028,-345.9205 650.5,-303.448 650.5,-245 650.5,-245 650.5,-245 650.5,-183.5 650.5,-99.1085 956.452,-73.7576 1058.1053,-67.6638"/>
<polygon fill="#191970" stroke="#191970" points="1058.5965,-71.1414 1068.3788,-67.0724 1058.1942,-64.1529 1058.5965,-71.1414"/>
</g>
<!-- Node55&#45;&gt;Node10 -->
<g id="edge89" class="edge">
<title>Node55&#45;&gt;Node10</title>
<path fill="none" stroke="#191970" d="M777.1503,-363.9C785.6699,-347.1626 805.2502,-312.3878 830.5,-291 858.7133,-267.1019 872.8712,-272.3917 905.5,-255 1016.0846,-196.0564 1028.8561,-149.2646 1148.5,-112 1252.7795,-79.5208 1573.4783,-69.7956 1716.4508,-67.0329"/>
<polygon fill="#191970" stroke="#191970" points="1716.9117,-70.525 1726.8444,-66.8384 1716.7806,-63.5263 1716.9117,-70.525"/>
</g>
<!-- Node55&#45;&gt;Node36 -->
<g id="edge88" class="edge">
<title>Node55&#45;&gt;Node36</title>
<path fill="none" stroke="#191970" d="M786.6843,-363.9005C802.9311,-352.9052 829.7691,-334.7422 848.9034,-321.7927"/>
<polygon fill="#191970" stroke="#191970" points="851.022,-324.5851 857.342,-316.0817 847.0986,-318.7879 851.022,-324.5851"/>
</g>
<!-- Node56 -->
<g id="node40" class="node">
<title>Node56</title>
<g id="a_node40"><a xlink:href="Direction_8h.html" target="_top" xlink:title="iDynTree/Core/Direction.h">
<polygon fill="none" stroke="#000000" points="755,-235.5 755,-254.5 896,-254.5 896,-235.5 755,-235.5"/>
<text text-anchor="middle" x="825.5" y="-242.5" font-family="FreeSans.ttf" font-size="10.00" fill="#000000">iDynTree/Core/Direction.h</text>
</a>
</g>
</g>
<!-- Node55&#45;&gt;Node56 -->
<g id="edge84" class="edge">
<title>Node55&#45;&gt;Node56</title>
<path fill="none" stroke="#191970" d="M774.455,-363.5329C777.7668,-347.6989 785.2383,-316.0299 796.5,-291 800.8342,-281.3669 806.9197,-271.367 812.3975,-263.1613"/>
<polygon fill="#191970" stroke="#191970" points="815.3885,-264.9896 818.1983,-254.7741 809.6313,-261.0078 815.3885,-264.9896"/>
</g>
<!-- Node56&#45;&gt;Node4 -->
<g id="edge85" class="edge">
<title>Node56&#45;&gt;Node4</title>
<path fill="none" stroke="#191970" d="M843.5285,-235.4975C860.1666,-226.5563 885.4125,-212.5516 906.5,-199 967.9867,-159.4863 1036.9371,-107.435 1070.2791,-81.7402"/>
<polygon fill="#191970" stroke="#191970" points="1072.5645,-84.3973 1078.3338,-75.511 1068.2822,-78.86 1072.5645,-84.3973"/>
</g>
<!-- Node56&#45;&gt;Node16 -->
<g id="edge86" class="edge">
<title>Node56&#45;&gt;Node16</title>
<path fill="none" stroke="#191970" d="M896.3394,-238.8525C994.2181,-230.2917 1176.325,-214.1239 1331.5,-199 1350.3465,-197.1631 1370.5251,-195.1174 1389.7537,-193.1301"/>
<polygon fill="#191970" stroke="#191970" points="1390.1247,-196.6105 1399.7103,-192.0976 1389.4026,-189.6478 1390.1247,-196.6105"/>
</g>
<!-- Node56&#45;&gt;Node10 -->
<g id="edge87" class="edge">
<title>Node56&#45;&gt;Node10</title>
<path fill="none" stroke="#191970" d="M860.0244,-235.4946C884.3021,-227.8668 916.8929,-215.6725 942.5,-199 988.5898,-168.9914 980.287,-134.4375 1030.5,-112 1092.1493,-84.4523 1541.5848,-71.4967 1716.8158,-67.4519"/>
<polygon fill="#191970" stroke="#191970" points="1717.0385,-70.9478 1726.9561,-67.2207 1716.8789,-63.9496 1717.0385,-70.9478"/>
</g>
<!-- Node57&#45;&gt;Node2 -->
<g id="edge92" class="edge">
<title>Node57&#45;&gt;Node2</title>
<path fill="none" stroke="#191970" d="M286.5,-615.2977C286.5,-607.3834 286.5,-597.6043 286.5,-589.0759"/>
<polygon fill="#191970" stroke="#191970" points="290.0001,-588.8469 286.5,-578.8469 283.0001,-588.847 290.0001,-588.8469"/>
</g>
<!-- Node58&#45;&gt;Node3 -->
<g id="edge99" class="edge">
<title>Node58&#45;&gt;Node3</title>
<path fill="none" stroke="#191970" d="M1425.3209,-627.1919C1234.4925,-618.7957 750.7546,-596.1129 679.5,-579 627.7801,-566.5787 571.8193,-539.0216 540.1706,-521.977"/>
<polygon fill="#191970" stroke="#191970" points="541.6143,-518.7774 531.1607,-517.0531 538.2574,-524.92 541.6143,-518.7774"/>
</g>
<!-- Node58&#45;&gt;Node25 -->
<g id="edge95" class="edge">
<title>Node58&#45;&gt;Node25</title>
<path fill="none" stroke="#191970" d="M1522.2418,-615.4178C1552.9426,-591.9631 1611.8311,-546.9737 1642.993,-523.1668"/>
<polygon fill="#191970" stroke="#191970" points="1645.179,-525.9014 1651.0006,-517.0493 1640.9294,-520.3389 1645.179,-525.9014"/>
</g>
<!-- Node58&#45;&gt;Node48 -->
<g id="edge94" class="edge">
<title>Node58&#45;&gt;Node48</title>
<path fill="none" stroke="#191970" d="M1425.494,-625.3374C1329.319,-618.2026 1159.9577,-603.3724 1016.5,-579 923.0217,-563.1187 815.391,-535.5683 756.568,-519.7034"/>
<polygon fill="#191970" stroke="#191970" points="757.4287,-516.3105 746.8612,-517.0718 755.597,-523.0666 757.4287,-516.3105"/>
</g>
<!-- Node58&#45;&gt;Node52 -->
<g id="edge115" class="edge">
<title>Node58&#45;&gt;Node52</title>
<path fill="none" stroke="#191970" d="M1579.5853,-620.5415C1646.053,-611.0567 1736.2648,-595.771 1768.5,-579 1793.6016,-565.9404 1815.9695,-541.6705 1829.3773,-525.0615"/>
<polygon fill="#191970" stroke="#191970" points="1832.1408,-527.2093 1835.5391,-517.1743 1826.6246,-522.8999 1832.1408,-527.2093"/>
</g>
<!-- Node59 -->
<g id="node43" class="node">
<title>Node59</title>
<g id="a_node43"><a xlink:href="VectorDynSize_8h.html" target="_top" xlink:title="iDynTree/Core/VectorDynSize.h">
<polygon fill="none" stroke="#000000" points="1814,-431 1814,-450 1981,-450 1981,-431 1814,-431"/>
<text text-anchor="middle" x="1897.5" y="-438" font-family="FreeSans.ttf" font-size="10.00" fill="#000000">iDynTree/Core/VectorDynSize.h</text>
</a>
</g>
</g>
<!-- Node58&#45;&gt;Node59 -->
<g id="edge96" class="edge">
<title>Node58&#45;&gt;Node59</title>
<path fill="none" stroke="#191970" d="M1548.2982,-615.4261C1602.109,-596.9124 1693.3309,-562.9946 1766.5,-523 1787.4906,-511.5265 1790.4137,-504.9919 1810.5,-492 1830.5206,-479.0506 1853.791,-465.3428 1871.225,-455.3278"/>
<polygon fill="#191970" stroke="#191970" points="1873.3046,-458.1708 1880.2524,-450.1721 1869.833,-452.0923 1873.3046,-458.1708"/>
</g>
<!-- Node58&#45;&gt;Node60 -->
<g id="edge100" class="edge">
<title>Node58&#45;&gt;Node60</title>
<path fill="none" stroke="#191970" d="M1489.6461,-615.2977C1482.2776,-606.5831 1472.9974,-595.6075 1465.3223,-586.5302"/>
<polygon fill="#191970" stroke="#191970" points="1467.9552,-584.2233 1458.8259,-578.8469 1462.6098,-588.743 1467.9552,-584.2233"/>
</g>
<!-- Node62 -->
<g id="node46" class="node">
<title>Node62</title>
<g id="a_node46"><a xlink:href="JointState_8h.html" target="_top" xlink:title="iDynTree/Model/JointState.h">
<polygon fill="none" stroke="#000000" points="1859,-559.5 1859,-578.5 2010,-578.5 2010,-559.5 1859,-559.5"/>
<text text-anchor="middle" x="1934.5" y="-566.5" font-family="FreeSans.ttf" font-size="10.00" fill="#000000">iDynTree/Model/JointState.h</text>
</a>
</g>
</g>
<!-- Node58&#45;&gt;Node62 -->
<g id="edge110" class="edge">
<title>Node58&#45;&gt;Node62</title>
<path fill="none" stroke="#191970" d="M1579.7329,-619.505C1658.1221,-608.3455 1778.7965,-591.1661 1857.2072,-580.0035"/>
<polygon fill="#191970" stroke="#191970" points="1858.0986,-583.412 1867.5054,-578.5374 1857.1119,-576.4818 1858.0986,-583.412"/>
</g>
<!-- Node59&#45;&gt;Node4 -->
<g id="edge98" class="edge">
<title>Node59&#45;&gt;Node4</title>
<path fill="none" stroke="#191970" d="M1892.851,-430.7126C1871.464,-386.0965 1781.3668,-202.6668 1729.5,-168 1646.033,-112.2123 1603.9341,-156.1993 1506.5,-132 1479.6285,-125.326 1474.4745,-118.2444 1447.5,-112 1329.5182,-84.688 1185.5858,-72.3663 1122.5988,-67.9906"/>
<polygon fill="#191970" stroke="#191970" points="1122.7134,-64.4904 1112.5006,-67.3095 1122.2424,-71.4746 1122.7134,-64.4904"/>
</g>
<!-- Node59&#45;&gt;Node17 -->
<g id="edge97" class="edge">
<title>Node59&#45;&gt;Node17</title>
<path fill="none" stroke="#191970" d="M1911.0839,-430.7496C1939.1232,-410.5958 2005.3978,-362.8177 2060.5,-322 2152.1185,-254.1323 2260.3732,-171.7334 2304.8514,-137.782"/>
<polygon fill="#191970" stroke="#191970" points="2307.0495,-140.5072 2312.8729,-131.6563 2302.801,-134.9439 2307.0495,-140.5072"/>
</g>
<!-- Node60&#45;&gt;Node3 -->
<g id="edge108" class="edge">
<title>Node60&#45;&gt;Node3</title>
<path fill="none" stroke="#191970" d="M1375.8958,-565.551C1202.0613,-557.3951 773.9578,-536.588 630.5,-523 617.2021,-521.7404 603.0841,-520.1056 589.4441,-518.3713"/>
<polygon fill="#191970" stroke="#191970" points="589.496,-514.8487 579.1282,-517.0302 588.5935,-521.7903 589.496,-514.8487"/>
</g>
<!-- Node60&#45;&gt;Node25 -->
<g id="edge102" class="edge">
<title>Node60&#45;&gt;Node25</title>
<path fill="none" stroke="#191970" d="M1483.7813,-559.3906C1520.6705,-548.7395 1580.2757,-531.5296 1620.6325,-519.8772"/>
<polygon fill="#191970" stroke="#191970" points="1621.8158,-523.1786 1630.4525,-517.0419 1619.874,-516.4533 1621.8158,-523.1786"/>
</g>
<!-- Node60&#45;&gt;Node46 -->
<g id="edge103" class="edge">
<title>Node60&#45;&gt;Node46</title>
<path fill="none" stroke="#191970" d="M1425.6563,-559.3906C1398.8193,-549.0103 1355.8767,-532.4004 1325.8247,-520.7766"/>
<polygon fill="#191970" stroke="#191970" points="1326.7586,-517.3851 1316.1693,-517.0419 1324.2333,-523.9138 1326.7586,-517.3851"/>
</g>
<!-- Node60&#45;&gt;Node47 -->
<g id="edge104" class="edge">
<title>Node60&#45;&gt;Node47</title>
<path fill="none" stroke="#191970" d="M1450.5,-559.3906C1450.5,-550.8657 1450.5,-538.1392 1450.5,-527.4235"/>
<polygon fill="#191970" stroke="#191970" points="1454.0001,-527.2448 1450.5,-517.2449 1447.0001,-527.2449 1454.0001,-527.2448"/>
</g>
<!-- Node60&#45;&gt;Node48 -->
<g id="edge101" class="edge">
<title>Node60&#45;&gt;Node48</title>
<path fill="none" stroke="#191970" d="M1375.5703,-566.5293C1253.5933,-561.8817 1004.6831,-549.7881 795.5,-523 786.7316,-521.8771 777.4886,-520.4232 768.481,-518.8564"/>
<polygon fill="#191970" stroke="#191970" points="768.9109,-515.3776 758.4491,-517.0512 767.6711,-522.267 768.9109,-515.3776"/>
</g>
<!-- Node60&#45;&gt;Node52 -->
<g id="edge109" class="edge">
<title>Node60&#45;&gt;Node52</title>
<path fill="none" stroke="#191970" d="M1524.117,-559.4849C1588.281,-550.9052 1683.7613,-537.4473 1766.5,-523 1780.4214,-520.5691 1795.7008,-517.5265 1808.8854,-514.7821"/>
<polygon fill="#191970" stroke="#191970" points="1809.8806,-518.1494 1818.944,-512.6626 1808.4372,-511.2998 1809.8806,-518.1494"/>
</g>
<!-- Node61 -->
<g id="node45" class="node">
<title>Node61</title>
<g id="a_node45"><a xlink:href="ArticulatedBodyInertia_8h.html" target="_top" xlink:title="iDynTree/Core/Articulated\lBodyInertia.h">
<polygon fill="none" stroke="#000000" points="1579,-168.5 1579,-198.5 1720,-198.5 1720,-168.5 1579,-168.5"/>
<text text-anchor="start" x="1587" y="-186.5" font-family="FreeSans.ttf" font-size="10.00" fill="#000000">iDynTree/Core/Articulated</text>
<text text-anchor="middle" x="1649.5" y="-175.5" font-family="FreeSans.ttf" font-size="10.00" fill="#000000">BodyInertia.h</text>
</a>
</g>
</g>
<!-- Node60&#45;&gt;Node61 -->
<g id="edge105" class="edge">
<title>Node60&#45;&gt;Node61</title>
<path fill="none" stroke="#191970" d="M1525.2349,-561.5592C1604.2088,-552.9661 1719.325,-538.0692 1733.5,-523 1779.254,-474.3597 1748.5,-440.2781 1748.5,-373.5 1748.5,-373.5 1748.5,-373.5 1748.5,-306.5 1748.5,-263.0886 1710.6134,-226.3164 1681.7151,-204.5824"/>
<polygon fill="#191970" stroke="#191970" points="1683.6139,-201.6358 1673.4651,-198.5938 1679.5018,-207.3007 1683.6139,-201.6358"/>
</g>
<!-- Node61&#45;&gt;Node4 -->
<g id="edge107" class="edge">
<title>Node61&#45;&gt;Node4</title>
<path fill="none" stroke="#191970" d="M1599.3338,-168.4433C1537.5171,-150.0348 1435.9519,-120.3002 1397.5,-112 1298.2713,-90.5805 1178.8617,-75.7779 1122.6887,-69.451"/>
<polygon fill="#191970" stroke="#191970" points="1122.9636,-65.9601 1112.6381,-68.3338 1122.1902,-72.9172 1122.9636,-65.9601"/>
</g>
<!-- Node61&#45;&gt;Node9 -->
<g id="edge106" class="edge">
<title>Node61&#45;&gt;Node9</title>
<path fill="none" stroke="#191970" d="M1656.4214,-168.2977C1660.1461,-160.1166 1664.778,-149.943 1668.7504,-141.2179"/>
<polygon fill="#191970" stroke="#191970" points="1672.0586,-142.3983 1673.0168,-131.8469 1665.6878,-139.4978 1672.0586,-142.3983"/>
</g>
<!-- Node62&#45;&gt;Node16 -->
<g id="edge111" class="edge">
<title>Node62&#45;&gt;Node16</title>
<path fill="none" stroke="#191970" d="M1933.462,-559.3203C1931.2303,-543.1933 1924.5263,-510.7498 1905.5,-492 1871.855,-458.8439 1836.8526,-491.3316 1805.5,-456 1780.5261,-427.8565 1786.5,-411.1265 1786.5,-373.5 1786.5,-373.5 1786.5,-373.5 1786.5,-306.5 1786.5,-254.1941 1630.6313,-213.897 1541.3824,-195.1106"/>
<polygon fill="#191970" stroke="#191970" points="1541.8756,-191.6385 1531.3732,-193.0349 1540.4541,-198.4927 1541.8756,-191.6385"/>
</g>
<!-- Node62&#45;&gt;Node42 -->
<g id="edge113" class="edge">
<title>Node62&#45;&gt;Node42</title>
<path fill="none" stroke="#191970" d="M1930.1383,-559.2387C1922.0424,-542.3772 1902.9797,-508.0624 1875.5,-492 1829.6172,-465.1806 1689.1365,-451.4367 1596.9944,-445.1216"/>
<polygon fill="#191970" stroke="#191970" points="1597.0547,-441.6179 1586.8433,-444.4424 1596.5873,-448.6023 1597.0547,-441.6179"/>
</g>
<!-- Node62&#45;&gt;Node52 -->
<g id="edge114" class="edge">
<title>Node62&#45;&gt;Node52</title>
<path fill="none" stroke="#191970" d="M1920.125,-559.3906C1905.4069,-549.5519 1882.3168,-534.1167 1865.1411,-522.6351"/>
<polygon fill="#191970" stroke="#191970" points="1867.0327,-519.6896 1856.7741,-517.0419 1863.1425,-525.5091 1867.0327,-519.6896"/>
</g>
<!-- Node62&#45;&gt;Node59 -->
<g id="edge112" class="edge">
<title>Node62&#45;&gt;Node59</title>
<path fill="none" stroke="#191970" d="M1939.1126,-559.3956C1945.6089,-544.4587 1955.6896,-514.9902 1946.5,-492 1940.9338,-478.0746 1929.6115,-465.7656 1919.2518,-456.676"/>
<polygon fill="#191970" stroke="#191970" points="1921.2219,-453.7643 1911.2782,-450.1072 1916.7709,-459.167 1921.2219,-453.7643"/>
</g>
<!-- Node63&#45;&gt;Node4 -->
<g id="edge124" class="edge">
<title>Node63&#45;&gt;Node4</title>
<path fill="none" stroke="#191970" d="M2089.941,-559.2076C2081.4991,-550.6048 2070.3094,-537.2634 2065.5,-523 2061.0979,-509.9444 2064.7972,-505.7598 2065.5,-492 2069.7277,-409.2321 2084.5,-389.3758 2084.5,-306.5 2084.5,-306.5 2084.5,-306.5 2084.5,-245 2084.5,-115.0785 1929.3855,-195.9225 1802.5,-168 1708.3063,-147.2717 1680.7349,-160.193 1588.5,-132 1567.9573,-125.7208 1565.2378,-117.6012 1544.5,-112 1464.5745,-90.4124 1212.5438,-73.4129 1122.7025,-67.899"/>
<polygon fill="#191970" stroke="#191970" points="1122.7665,-64.3965 1112.5728,-67.284 1122.3422,-71.3836 1122.7665,-64.3965"/>
</g>
<!-- Node63&#45;&gt;Node10 -->
<g id="edge120" class="edge">
<title>Node63&#45;&gt;Node10</title>
<path fill="none" stroke="#191970" d="M2112.24,-559.4549C2121.631,-551.0029 2134.0909,-537.7442 2139.5,-523 2144.2453,-510.0652 2140.3666,-505.7505 2139.5,-492 2130.3708,-347.139 2190.9315,-279.9127 2098.5,-168 2066.1343,-128.8128 1927.4021,-94.7152 1846.2404,-77.6392"/>
<polygon fill="#191970" stroke="#191970" points="1846.6584,-74.1514 1836.1554,-75.5426 1845.2336,-81.0049 1846.6584,-74.1514"/>
</g>
<!-- Node63&#45;&gt;Node18 -->
<g id="edge121" class="edge">
<title>Node63&#45;&gt;Node18</title>
<path fill="none" stroke="#191970" d="M2149.9079,-559.452C2238.3347,-540.9396 2414.5,-496.9724 2414.5,-440.5 2414.5,-440.5 2414.5,-440.5 2414.5,-183.5 2414.5,-150.6194 2408.6401,-142.1409 2395.5,-112 2391.2786,-102.3169 2385.2074,-92.3108 2379.7098,-84.1137"/>
<polygon fill="#191970" stroke="#191970" points="2382.4645,-81.9449 2373.8757,-75.7414 2376.7213,-85.9469 2382.4645,-81.9449"/>
</g>
<!-- Node63&#45;&gt;Node14 -->
<g id="edge123" class="edge">
<title>Node63&#45;&gt;Node14</title>
<path fill="none" stroke="#191970" d="M2126.0557,-559.4138C2142.1193,-551.9971 2161.7689,-540.0824 2172.5,-523 2224.0527,-440.9356 2198.5,-403.4136 2198.5,-306.5 2198.5,-306.5 2198.5,-306.5 2198.5,-183.5 2198.5,-126.6343 2131.084,-93.3968 2086.0472,-77.5373"/>
<polygon fill="#191970" stroke="#191970" points="2087.1245,-74.207 2076.5303,-74.3244 2084.8854,-80.8392 2087.1245,-74.207"/>
</g>
<!-- Node63&#45;&gt;Node51 -->
<g id="edge126" class="edge">
<title>Node63&#45;&gt;Node51</title>
<path fill="none" stroke="#191970" d="M2030.7101,-560.2108C2026.9197,-559.7875 2023.1643,-559.3809 2019.5,-559 1830.51,-539.3558 1777.3149,-571.1164 1593.5,-523 1591.3074,-522.4261 1589.08,-521.7201 1586.8682,-520.9288"/>
<polygon fill="#191970" stroke="#191970" points="1588.0071,-517.6131 1577.4268,-517.0585 1585.352,-524.09 1588.0071,-517.6131"/>
</g>
<!-- Node63&#45;&gt;Node52 -->
<g id="edge125" class="edge">
<title>Node63&#45;&gt;Node52</title>
<path fill="none" stroke="#191970" d="M2060.4706,-559.4581C2009.7035,-547.3567 1923.0927,-526.711 1875.7738,-515.4315"/>
<polygon fill="#191970" stroke="#191970" points="1876.561,-512.0212 1866.022,-513.107 1874.9378,-518.8304 1876.561,-512.0212"/>
</g>
<!-- Node64 -->
<g id="node48" class="node">
<title>Node64</title>
<g id="a_node48"><a xlink:href="MatrixDynSize_8h.html" target="_top" xlink:title="iDynTree/Core/MatrixDynSize.h">
<polygon fill="none" stroke="#000000" points="1852,-297 1852,-316 2019,-316 2019,-297 1852,-297"/>
<text text-anchor="middle" x="1935.5" y="-304" font-family="FreeSans.ttf" font-size="10.00" fill="#000000">iDynTree/Core/MatrixDynSize.h</text>
</a>
</g>
</g>
<!-- Node63&#45;&gt;Node64 -->
<g id="edge118" class="edge">
<title>Node63&#45;&gt;Node64</title>
<path fill="none" stroke="#191970" d="M2080.3479,-559.3761C2065.4535,-551.4001 2045.5719,-538.8233 2032.5,-523 2002.3194,-486.467 2009.8104,-468.274 1990.5,-425 1974.7198,-389.6371 1955.5244,-348.735 1944.4882,-325.4115"/>
<polygon fill="#191970" stroke="#191970" points="1947.6087,-323.8235 1940.1622,-316.2869 1941.2836,-326.8222 1947.6087,-323.8235"/>
</g>
<!-- Node65 -->
<g id="node49" class="node">
<title>Node65</title>
<polygon fill="none" stroke="#bfbfbf" points="2074.5,-498 2074.5,-517 2130.5,-517 2130.5,-498 2074.5,-498"/>
<text text-anchor="middle" x="2102.5" y="-505" font-family="FreeSans.ttf" font-size="10.00" fill="#000000">iomanip</text>
</g>
<!-- Node63&#45;&gt;Node65 -->
<g id="edge122" class="edge">
<title>Node63&#45;&gt;Node65</title>
<path fill="none" stroke="#191970" d="M2100.8125,-559.3906C2101.0897,-550.8657 2101.5036,-538.1392 2101.8521,-527.4235"/>
<polygon fill="#191970" stroke="#191970" points="2105.3561,-527.3534 2102.1831,-517.2449 2098.3598,-527.1258 2105.3561,-527.3534"/>
</g>
<!-- Node66 -->
<g id="node50" class="node">
<title>Node66</title>
<polygon fill="none" stroke="#bfbfbf" points="2225,-498 2225,-517 2272,-517 2272,-498 2225,-498"/>
<text text-anchor="middle" x="2248.5" y="-505" font-family="FreeSans.ttf" font-size="10.00" fill="#000000">cmath</text>
</g>
<!-- Node63&#45;&gt;Node66 -->
<g id="edge127" class="edge">
<title>Node63&#45;&gt;Node66</title>
<path fill="none" stroke="#191970" d="M2123.625,-559.3906C2148.4967,-549.0554 2188.2298,-532.5447 2216.1844,-520.9284"/>
<polygon fill="#191970" stroke="#191970" points="2217.646,-524.1113 2225.5374,-517.0419 2214.9598,-517.6472 2217.646,-524.1113"/>
</g>
<!-- Node64&#45;&gt;Node4 -->
<g id="edge119" class="edge">
<title>Node64&#45;&gt;Node4</title>
<path fill="none" stroke="#191970" d="M1926.893,-296.8151C1903.4091,-271.0763 1835.1141,-200.7097 1762.5,-168 1676.9593,-129.4674 1644.5847,-158.2054 1554.5,-132 1532.3088,-125.5446 1528.8785,-117.7729 1506.5,-112 1433.7976,-93.2454 1207.3752,-74.7933 1122.799,-68.3775"/>
<polygon fill="#191970" stroke="#191970" points="1122.983,-64.8815 1112.7486,-67.6212 1122.4577,-71.8618 1122.983,-64.8815"/>
</g>
</g>
</svg>
