<?xml version="1.0" encoding="UTF-8" standalone="no"?>
<!DOCTYPE svg PUBLIC "-//W3C//DTD SVG 1.1//EN"
 "http://www.w3.org/Graphics/SVG/1.1/DTD/svg11.dtd">
<!-- Generated by graphviz version 2.40.1 (20161225.0304)
 -->
<!-- Title: ModelLoader.h Pages: 1 -->
<svg width="2323pt" height="151pt"
 viewBox="0.00 0.00 2322.50 151.00" xmlns="http://www.w3.org/2000/svg" xmlns:xlink="http://www.w3.org/1999/xlink">
<g id="graph0" class="graph" transform="scale(1 1) rotate(0) translate(4 147)">
<title>ModelLoader.h</title>
<!-- Node56 -->
<g id="node1" class="node">
<title>Node56</title>
<polygon fill="#bfbfbf" stroke="#000000" points="1124.5,-123.5 1124.5,-142.5 1211.5,-142.5 1211.5,-123.5 1124.5,-123.5"/>
<text text-anchor="middle" x="1168" y="-130.5" font-family="FreeSans.ttf" font-size="10.00" fill="#000000">ModelLoader.h</text>
</g>
<!-- Node57 -->
<g id="node2" class="node">
<title>Node57</title>
<g id="a_node2"><a xlink:href="ExtWrenchesAndJointTorquesEstimator_8cpp.html" target="_top" xlink:title="ExtWrenchesAndJointTorques\lEstimator.cpp">
<polygon fill="none" stroke="#000000" points="0,-56.5 0,-86.5 158,-86.5 158,-56.5 0,-56.5"/>
<text text-anchor="start" x="8" y="-74.5" font-family="FreeSans.ttf" font-size="10.00" fill="#000000">ExtWrenchesAndJointTorques</text>
<text text-anchor="middle" x="79" y="-63.5" font-family="FreeSans.ttf" font-size="10.00" fill="#000000">Estimator.cpp</text>
</a>
</g>
</g>
<!-- Node56&#45;&gt;Node57 -->
<g id="edge1" class="edge">
<title>Node56&#45;&gt;Node57</title>
<path fill="none" stroke="#191970" d="M1114.3062,-131.444C934.3103,-126.0847 353.1594,-107.5859 167,-87 164.0704,-86.676 161.0909,-86.3148 158.0851,-85.9236"/>
<polygon fill="#191970" stroke="#191970" points="1114.2301,-134.9431 1124.3295,-131.7411 1114.4376,-127.9462 1114.2301,-134.9431"/>
</g>
<!-- Node58 -->
<g id="node3" class="node">
<title>Node58</title>
<g id="a_node3"><a xlink:href="SimpleLeggedOdometry_8cpp.html" target="_top" xlink:title="SimpleLeggedOdometry.cpp">
<polygon fill="none" stroke="#000000" points="176.5,-62 176.5,-81 329.5,-81 329.5,-62 176.5,-62"/>
<text text-anchor="middle" x="253" y="-69" font-family="FreeSans.ttf" font-size="10.00" fill="#000000">SimpleLeggedOdometry.cpp</text>
</a>
</g>
</g>
<!-- Node56&#45;&gt;Node58 -->
<g id="edge2" class="edge">
<title>Node56&#45;&gt;Node58</title>
<path fill="none" stroke="#191970" d="M1113.9662,-132.2971C981.459,-130.0748 629.9701,-121.1628 339,-87 326.3432,-85.514 312.7331,-83.3343 300.1581,-81.0762"/>
<polygon fill="#191970" stroke="#191970" points="1114.1889,-135.801 1124.2443,-132.4633 1114.3022,-128.8019 1114.1889,-135.801"/>
</g>
<!-- Node59 -->
<g id="node4" class="node">
<title>Node59</title>
<g id="a_node4"><a xlink:href="KinDynComputations_8cpp.html" target="_top" xlink:title="KinDynComputations.cpp">
<polygon fill="none" stroke="#000000" points="348,-62 348,-81 488,-81 488,-62 348,-62"/>
<text text-anchor="middle" x="418" y="-69" font-family="FreeSans.ttf" font-size="10.00" fill="#000000">KinDynComputations.cpp</text>
</a>
</g>
</g>
<!-- Node56&#45;&gt;Node59 -->
<g id="edge3" class="edge">
<title>Node56&#45;&gt;Node59</title>
<path fill="none" stroke="#191970" d="M1114.0148,-131.5929C999.7413,-128.1111 725.1684,-117.0841 497,-87 485.3603,-85.4653 472.8535,-83.2689 461.3019,-81.0103"/>
<polygon fill="#191970" stroke="#191970" points="1114.1425,-135.0981 1124.2422,-131.8972 1114.3508,-128.1012 1114.1425,-135.0981"/>
</g>
<!-- Node60 -->
<g id="node5" class="node">
<title>Node60</title>
<g id="a_node5"><a xlink:href="InverseKinematicsData_8cpp.html" target="_top" xlink:title="InverseKinematicsData.cpp">
<polygon fill="none" stroke="#000000" points="506.5,-62 506.5,-81 657.5,-81 657.5,-62 506.5,-62"/>
<text text-anchor="middle" x="582" y="-69" font-family="FreeSans.ttf" font-size="10.00" fill="#000000">InverseKinematicsData.cpp</text>
</a>
</g>
</g>
<!-- Node56&#45;&gt;Node60 -->
<g id="edge4" class="edge">
<title>Node56&#45;&gt;Node60</title>
<path fill="none" stroke="#191970" d="M1114.3267,-129.4023C1023.1664,-122.9833 832.3579,-108.2116 672,-87 659.4255,-85.3367 645.921,-83.1993 633.2957,-81.0465"/>
<polygon fill="#191970" stroke="#191970" points="1114.1954,-132.9015 1124.415,-130.1071 1114.6833,-125.9185 1114.1954,-132.9015"/>
</g>
<!-- Node61 -->
<g id="node6" class="node">
<title>Node61</title>
<g id="a_node6"><a xlink:href="URDFDocument_8h.html" target="_top" xlink:title="URDFDocument.h">
<polygon fill="none" stroke="#000000" points="714.5,-62 714.5,-81 817.5,-81 817.5,-62 714.5,-62"/>
<text text-anchor="middle" x="766" y="-69" font-family="FreeSans.ttf" font-size="10.00" fill="#000000">URDFDocument.h</text>
</a>
</g>
</g>
<!-- Node56&#45;&gt;Node61 -->
<g id="edge5" class="edge">
<title>Node56&#45;&gt;Node61</title>
<path fill="none" stroke="#191970" d="M1114.4435,-127.6982C1047.0246,-120.584 927.8268,-106.5437 827,-87 818.4183,-85.3366 809.2431,-83.1991 800.6834,-81.0463"/>
<polygon fill="#191970" stroke="#191970" points="1114.0979,-131.1811 1124.4074,-128.7389 1114.8251,-124.219 1114.0979,-131.1811"/>
</g>
<!-- Node62 -->
<g id="node7" class="node">
<title>Node62</title>
<g id="a_node7"><a xlink:href="ModelLoader_8cpp.html" target="_top" xlink:title="ModelLoader.cpp">
<polygon fill="none" stroke="#000000" points="637,-.5 637,-19.5 735,-19.5 735,-.5 637,-.5"/>
<text text-anchor="middle" x="686" y="-7.5" font-family="FreeSans.ttf" font-size="10.00" fill="#000000">ModelLoader.cpp</text>
</a>
</g>
</g>
<!-- Node56&#45;&gt;Node62 -->
<g id="edge12" class="edge">
<title>Node56&#45;&gt;Node62</title>
<path fill="none" stroke="#191970" d="M1114.2899,-131.1042C998.9253,-126.5461 735.4086,-113.3467 705,-87 685.332,-69.9592 684.3489,-36.1106 685.1815,-19.5603"/>
<polygon fill="#191970" stroke="#191970" points="1114.1919,-134.6029 1124.3201,-131.4934 1114.4634,-127.6082 1114.1919,-134.6029"/>
</g>
<!-- Node64 -->
<g id="node9" class="node">
<title>Node64</title>
<g id="a_node9"><a xlink:href="URDFGenericSensorsImport_8cpp.html" target="_top" xlink:title="URDFGenericSensorsImport.cpp">
<polygon fill="none" stroke="#000000" points="836,-62 836,-81 1008,-81 1008,-62 836,-62"/>
<text text-anchor="middle" x="922" y="-69" font-family="FreeSans.ttf" font-size="10.00" fill="#000000">URDFGenericSensorsImport.cpp</text>
</a>
</g>
</g>
<!-- Node56&#45;&gt;Node64 -->
<g id="edge8" class="edge">
<title>Node56&#45;&gt;Node64</title>
<path fill="none" stroke="#191970" d="M1119.9514,-120.9878C1073.2646,-109.3162 1003.294,-91.8235 960.2571,-81.0643"/>
<polygon fill="#191970" stroke="#191970" points="1119.2821,-124.4282 1129.8324,-123.4581 1120.9799,-117.6372 1119.2821,-124.4282"/>
</g>
<!-- Node65 -->
<g id="node10" class="node">
<title>Node65</title>
<g id="a_node10"><a xlink:href="URDFModelImport_8cpp.html" target="_top" xlink:title="URDFModelImport.cpp">
<polygon fill="none" stroke="#000000" points="1026.5,-62 1026.5,-81 1151.5,-81 1151.5,-62 1026.5,-62"/>
<text text-anchor="middle" x="1089" y="-69" font-family="FreeSans.ttf" font-size="10.00" fill="#000000">URDFModelImport.cpp</text>
</a>
</g>
</g>
<!-- Node56&#45;&gt;Node65 -->
<g id="edge9" class="edge">
<title>Node56&#45;&gt;Node65</title>
<path fill="none" stroke="#191970" d="M1147.6387,-117.1491C1132.96,-105.722 1113.6312,-90.6749 1101.2571,-81.0419"/>
<polygon fill="#191970" stroke="#191970" points="1145.6154,-120.0095 1155.6563,-123.3906 1149.9154,-114.4859 1145.6154,-120.0095"/>
</g>
<!-- Node66 -->
<g id="node11" class="node">
<title>Node66</title>
<g id="a_node11"><a xlink:href="URDFSolidShapesImport_8cpp.html" target="_top" xlink:title="URDFSolidShapesImport.cpp">
<polygon fill="none" stroke="#000000" points="1169.5,-62 1169.5,-81 1324.5,-81 1324.5,-62 1169.5,-62"/>
<text text-anchor="middle" x="1247" y="-69" font-family="FreeSans.ttf" font-size="10.00" fill="#000000">URDFSolidShapesImport.cpp</text>
</a>
</g>
</g>
<!-- Node56&#45;&gt;Node66 -->
<g id="edge10" class="edge">
<title>Node56&#45;&gt;Node66</title>
<path fill="none" stroke="#191970" d="M1188.3613,-117.1491C1203.04,-105.722 1222.3688,-90.6749 1234.7429,-81.0419"/>
<polygon fill="#191970" stroke="#191970" points="1186.0846,-114.4859 1180.3438,-123.3906 1190.3846,-120.0095 1186.0846,-114.4859"/>
</g>
<!-- Node67 -->
<g id="node12" class="node">
<title>Node67</title>
<g id="a_node12"><a xlink:href="ModelCalibrationHelper_8cpp.html" target="_top" xlink:title="ModelCalibrationHelper.cpp">
<polygon fill="none" stroke="#000000" points="1342.5,-62 1342.5,-81 1493.5,-81 1493.5,-62 1342.5,-62"/>
<text text-anchor="middle" x="1418" y="-69" font-family="FreeSans.ttf" font-size="10.00" fill="#000000">ModelCalibrationHelper.cpp</text>
</a>
</g>
</g>
<!-- Node56&#45;&gt;Node67 -->
<g id="edge11" class="edge">
<title>Node56&#45;&gt;Node67</title>
<path fill="none" stroke="#191970" d="M1216.5318,-121.0612C1263.9775,-109.3895 1335.2925,-91.846 1379.1208,-81.0643"/>
<polygon fill="#191970" stroke="#191970" points="1215.6626,-117.6706 1206.7882,-123.4581 1217.3348,-124.4679 1215.6626,-117.6706"/>
</g>
<!-- Node68 -->
<g id="node13" class="node">
<title>Node68</title>
<g id="a_node13"><a xlink:href="URDFDofsImport_8cpp.html" target="_top" xlink:title="URDFDofsImport.cpp">
<polygon fill="none" stroke="#000000" points="1511.5,-62 1511.5,-81 1630.5,-81 1630.5,-62 1511.5,-62"/>
<text text-anchor="middle" x="1571" y="-69" font-family="FreeSans.ttf" font-size="10.00" fill="#000000">URDFDofsImport.cpp</text>
</a>
</g>
</g>
<!-- Node56&#45;&gt;Node68 -->
<g id="edge13" class="edge">
<title>Node56&#45;&gt;Node68</title>
<path fill="none" stroke="#191970" d="M1221.7715,-127.0884C1288.1378,-119.4539 1404.3219,-104.9856 1503,-87 1512.4106,-85.2848 1522.4887,-83.1521 1531.9262,-81.023"/>
<polygon fill="#191970" stroke="#191970" points="1221.0966,-123.6426 1211.5582,-128.2545 1221.8907,-130.5974 1221.0966,-123.6426"/>
</g>
<!-- Node69 -->
<g id="node14" class="node">
<title>Node69</title>
<g id="a_node14"><a xlink:href="idyntree-model-info_8cpp.html" target="_top" xlink:title="idyntree&#45;model&#45;info.cpp">
<polygon fill="none" stroke="#000000" points="1649,-62 1649,-81 1783,-81 1783,-62 1649,-62"/>
<text text-anchor="middle" x="1716" y="-69" font-family="FreeSans.ttf" font-size="10.00" fill="#000000">idyntree&#45;model&#45;info.cpp</text>
</a>
</g>
</g>
<!-- Node56&#45;&gt;Node69 -->
<g id="edge14" class="edge">
<title>Node56&#45;&gt;Node69</title>
<path fill="none" stroke="#191970" d="M1221.7818,-129.5877C1309.6305,-123.6043 1489.2389,-109.6573 1640,-87 1650.7864,-85.379 1662.3556,-83.232 1673.1324,-81.0542"/>
<polygon fill="#191970" stroke="#191970" points="1221.5282,-126.0968 1211.786,-130.261 1221.9987,-133.0809 1221.5282,-126.0968"/>
</g>
<!-- Node70 -->
<g id="node15" class="node">
<title>Node70</title>
<g id="a_node15"><a xlink:href="idyntree-model-view_8cpp.html" target="_top" xlink:title="idyntree&#45;model&#45;view.cpp">
<polygon fill="none" stroke="#000000" points="1801,-62 1801,-81 1939,-81 1939,-62 1801,-62"/>
<text text-anchor="middle" x="1870" y="-69" font-family="FreeSans.ttf" font-size="10.00" fill="#000000">idyntree&#45;model&#45;view.cpp</text>
</a>
</g>
</g>
<!-- Node56&#45;&gt;Node70 -->
<g id="edge15" class="edge">
<title>Node56&#45;&gt;Node70</title>
<path fill="none" stroke="#191970" d="M1221.7161,-131.2585C1330.0164,-127.259 1582.1425,-115.4771 1792,-87 1803.3553,-85.4591 1815.5466,-83.2881 1826.8381,-81.0575"/>
<polygon fill="#191970" stroke="#191970" points="1221.5574,-127.7619 1211.6906,-131.6216 1221.8108,-134.7573 1221.5574,-127.7619"/>
</g>
<!-- Node71 -->
<g id="node16" class="node">
<title>Node71</title>
<g id="a_node16"><a xlink:href="ObserverThread_8cpp.html" target="_top" xlink:title="ObserverThread.cpp">
<polygon fill="none" stroke="#000000" points="1957.5,-62 1957.5,-81 2072.5,-81 2072.5,-62 1957.5,-62"/>
<text text-anchor="middle" x="2015" y="-69" font-family="FreeSans.ttf" font-size="10.00" fill="#000000">ObserverThread.cpp</text>
</a>
</g>
</g>
<!-- Node56&#45;&gt;Node71 -->
<g id="edge16" class="edge">
<title>Node56&#45;&gt;Node71</title>
<path fill="none" stroke="#191970" d="M1222.0707,-130.9992C1374.789,-125.1591 1807.3993,-107.262 1948,-87 1958.0445,-85.5525 1968.8052,-83.3574 1978.6992,-81.0708"/>
<polygon fill="#191970" stroke="#191970" points="1221.8536,-127.5048 1211.9939,-131.3825 1222.1198,-134.4998 1221.8536,-127.5048"/>
</g>
<!-- Node72 -->
<g id="node17" class="node">
<title>Node72</title>
<g id="a_node17"><a xlink:href="urdf2dh_8cpp.html" target="_top" xlink:title="urdf2dh.cpp">
<polygon fill="none" stroke="#000000" points="2091,-62 2091,-81 2165,-81 2165,-62 2091,-62"/>
<text text-anchor="middle" x="2128" y="-69" font-family="FreeSans.ttf" font-size="10.00" fill="#000000">urdf2dh.cpp</text>
</a>
</g>
</g>
<!-- Node56&#45;&gt;Node72 -->
<g id="edge17" class="edge">
<title>Node56&#45;&gt;Node72</title>
<path fill="none" stroke="#191970" d="M1221.9458,-132.2253C1392.0184,-129.4777 1915.5396,-118.6076 2082,-87 2089.1203,-85.648 2096.6479,-83.4551 2103.5056,-81.1389"/>
<polygon fill="#191970" stroke="#191970" points="1221.6778,-128.729 1211.7346,-132.3873 1221.7889,-135.7281 1221.6778,-128.729"/>
</g>
<!-- Node73 -->
<g id="node18" class="node">
<title>Node73</title>
<g id="a_node18"><a xlink:href="robotstatepublisher_8cpp.html" target="_top" xlink:title="robotstatepublisher.cpp">
<polygon fill="none" stroke="#000000" points="2183.5,-62 2183.5,-81 2314.5,-81 2314.5,-62 2183.5,-62"/>
<text text-anchor="middle" x="2249" y="-69" font-family="FreeSans.ttf" font-size="10.00" fill="#000000">robotstatepublisher.cpp</text>
</a>
</g>
</g>
<!-- Node56&#45;&gt;Node73 -->
<g id="edge18" class="edge">
<title>Node56&#45;&gt;Node73</title>
<path fill="none" stroke="#191970" d="M1221.6777,-131.6666C1402.2945,-127.0041 1987.1286,-110.4331 2174,-87 2185.3457,-85.5773 2197.5326,-83.3612 2208.715,-81.0454"/>
<polygon fill="#191970" stroke="#191970" points="1221.5287,-128.1692 1211.6218,-131.9246 1221.7084,-135.1669 1221.5287,-128.1692"/>
</g>
<!-- Node61&#45;&gt;Node62 -->
<g id="edge6" class="edge">
<title>Node61&#45;&gt;Node62</title>
<path fill="none" stroke="#191970" d="M745.381,-55.6491C730.5164,-44.222 710.943,-29.1749 698.4122,-19.5419"/>
<polygon fill="#191970" stroke="#191970" points="743.4387,-58.5707 753.5,-61.8906 747.7051,-53.021 743.4387,-58.5707"/>
</g>
<!-- Node63 -->
<g id="node8" class="node">
<title>Node63</title>
<g id="a_node8"><a xlink:href="URDFDocument_8cpp.html" target="_top" xlink:title="URDFDocument.cpp">
<polygon fill="none" stroke="#000000" points="753,-.5 753,-19.5 867,-19.5 867,-.5 753,-.5"/>
<text text-anchor="middle" x="810" y="-7.5" font-family="FreeSans.ttf" font-size="10.00" fill="#000000">URDFDocument.cpp</text>
</a>
</g>
</g>
<!-- Node61&#45;&gt;Node63 -->
<g id="edge7" class="edge">
<title>Node61&#45;&gt;Node63</title>
<path fill="none" stroke="#191970" d="M778.7017,-53.7465C786.621,-42.6775 796.5101,-28.8552 803.0281,-19.7449"/>
<polygon fill="#191970" stroke="#191970" points="775.8472,-51.7212 772.875,-61.8906 781.5402,-55.7943 775.8472,-51.7212"/>
</g>
</g>
</svg>
