<?xml version="1.0" encoding="UTF-8" standalone="no"?>
<!DOCTYPE svg PUBLIC "-//W3C//DTD SVG 1.1//EN"
 "http://www.w3.org/Graphics/SVG/1.1/DTD/svg11.dtd">
<!-- Generated by graphviz version 2.40.1 (20161225.0304)
 -->
<!-- Title: PositionRaw.h Pages: 1 -->
<svg width="3033pt" height="364pt"
 viewBox="0.00 0.00 3032.54 364.00" xmlns="http://www.w3.org/2000/svg" xmlns:xlink="http://www.w3.org/1999/xlink">
<g id="graph0" class="graph" transform="scale(1 1) rotate(0) translate(4 360)">
<title>PositionRaw.h</title>
<!-- Node16 -->
<g id="node1" class="node">
<title>Node16</title>
<polygon fill="#bfbfbf" stroke="#000000" points="2785.7654,-336.5 2785.7654,-355.5 2870.7654,-355.5 2870.7654,-336.5 2785.7654,-336.5"/>
<text text-anchor="middle" x="2828.2654" y="-343.5" font-family="FreeSans.ttf" font-size="10.00" fill="#000000">PositionRaw.h</text>
</g>
<!-- Node17 -->
<g id="node2" class="node">
<title>Node17</title>
<g id="a_node2"><a xlink:href="Position_8h.html" target="_top" xlink:title="Position.h">
<polygon fill="none" stroke="#000000" points="2025.7654,-280.5 2025.7654,-299.5 2090.7654,-299.5 2090.7654,-280.5 2025.7654,-280.5"/>
<text text-anchor="middle" x="2058.2654" y="-287.5" font-family="FreeSans.ttf" font-size="10.00" fill="#000000">Position.h</text>
</a>
</g>
</g>
<!-- Node16&#45;&gt;Node17 -->
<g id="edge1" class="edge">
<title>Node16&#45;&gt;Node17</title>
<path fill="none" stroke="#191970" d="M2775.2832,-342.1467C2626.9236,-331.357 2210.4092,-301.065 2090.7744,-292.3643"/>
<polygon fill="#191970" stroke="#191970" points="2775.2664,-345.6547 2785.4939,-342.8893 2775.7742,-338.6731 2775.2664,-345.6547"/>
</g>
<!-- Node221 -->
<g id="node23" class="node">
<title>Node221</title>
<g id="a_node23"><a xlink:href="PositionRaw_8cpp.html" target="_top" xlink:title="PositionRaw.cpp">
<polygon fill="none" stroke="#000000" points="2914.2654,-112.5 2914.2654,-131.5 3010.2654,-131.5 3010.2654,-112.5 2914.2654,-112.5"/>
<text text-anchor="middle" x="2962.2654" y="-119.5" font-family="FreeSans.ttf" font-size="10.00" fill="#000000">PositionRaw.cpp</text>
</a>
</g>
</g>
<!-- Node16&#45;&gt;Node221 -->
<g id="edge109" class="edge">
<title>Node16&#45;&gt;Node221</title>
<path fill="none" stroke="#191970" d="M2839.2901,-327.5707C2866.4908,-282.1008 2936.0752,-165.7807 2956.5291,-131.5891"/>
<polygon fill="#191970" stroke="#191970" points="2836.1534,-325.9965 2834.0233,-336.375 2842.1606,-329.5901 2836.1534,-325.9965"/>
</g>
<!-- Node222 -->
<g id="node24" class="node">
<title>Node222</title>
<g id="a_node24"><a xlink:href="RotationRaw_8cpp.html" target="_top" xlink:title="RotationRaw.cpp">
<polygon fill="none" stroke="#000000" points="2798.2654,-112.5 2798.2654,-131.5 2896.2654,-131.5 2896.2654,-112.5 2798.2654,-112.5"/>
<text text-anchor="middle" x="2847.2654" y="-119.5" font-family="FreeSans.ttf" font-size="10.00" fill="#000000">RotationRaw.cpp</text>
</a>
</g>
</g>
<!-- Node16&#45;&gt;Node222 -->
<g id="edge110" class="edge">
<title>Node16&#45;&gt;Node222</title>
<path fill="none" stroke="#191970" d="M2829.9519,-326.1177C2833.8915,-279.6713 2843.5823,-165.4223 2846.4521,-131.5891"/>
<polygon fill="#191970" stroke="#191970" points="2826.4396,-326.1149 2829.0819,-336.375 2833.4146,-326.7066 2826.4396,-326.1149"/>
</g>
<!-- Node47 -->
<g id="node25" class="node">
<title>Node47</title>
<g id="a_node25"><a xlink:href="SpatialInertiaRaw_8cpp.html" target="_top" xlink:title="SpatialInertiaRaw.cpp">
<polygon fill="none" stroke="#000000" points="2658.2654,-112.5 2658.2654,-131.5 2780.2654,-131.5 2780.2654,-112.5 2658.2654,-112.5"/>
<text text-anchor="middle" x="2719.2654" y="-119.5" font-family="FreeSans.ttf" font-size="10.00" fill="#000000">SpatialInertiaRaw.cpp</text>
</a>
</g>
</g>
<!-- Node16&#45;&gt;Node47 -->
<g id="edge111" class="edge">
<title>Node16&#45;&gt;Node47</title>
<path fill="none" stroke="#191970" d="M2828.1017,-325.7965C2826.8819,-290.6831 2820.1121,-217.4279 2786.2654,-168 2775.0251,-151.5852 2755.8416,-139.2978 2740.8747,-131.5707"/>
<polygon fill="#191970" stroke="#191970" points="2824.6105,-326.2337 2828.3336,-336.1528 2831.6087,-326.0769 2824.6105,-326.2337"/>
</g>
<!-- Node18 -->
<g id="node3" class="node">
<title>Node18</title>
<g id="a_node3"><a xlink:href="Axis_8h.html" target="_top" xlink:title="Axis.h">
<polygon fill="none" stroke="#000000" points="1772.7654,-168.5 1772.7654,-187.5 1819.7654,-187.5 1819.7654,-168.5 1772.7654,-168.5"/>
<text text-anchor="middle" x="1796.2654" y="-175.5" font-family="FreeSans.ttf" font-size="10.00" fill="#000000">Axis.h</text>
</a>
</g>
</g>
<!-- Node17&#45;&gt;Node18 -->
<g id="edge2" class="edge">
<title>Node17&#45;&gt;Node18</title>
<path fill="none" stroke="#191970" d="M2026.5442,-276.4398C1972.7861,-253.4592 1865.0962,-207.4238 1818.5469,-187.5249"/>
<polygon fill="#191970" stroke="#191970" points="2025.3566,-279.7384 2035.9275,-280.4509 2028.1082,-273.3019 2025.3566,-279.7384"/>
</g>
<!-- Node20 -->
<g id="node5" class="node">
<title>Node20</title>
<g id="a_node5"><a xlink:href="Rotation_8cpp.html" target="_top" xlink:title="Rotation.cpp">
<polygon fill="none" stroke="#000000" points="2236.7654,-56.5 2236.7654,-75.5 2313.7654,-75.5 2313.7654,-56.5 2236.7654,-56.5"/>
<text text-anchor="middle" x="2275.2654" y="-63.5" font-family="FreeSans.ttf" font-size="10.00" fill="#000000">Rotation.cpp</text>
</a>
</g>
</g>
<!-- Node17&#45;&gt;Node20 -->
<g id="edge98" class="edge">
<title>Node17&#45;&gt;Node20</title>
<path fill="none" stroke="#191970" d="M2100.9113,-279.9379C2134.5468,-271.566 2182.4331,-258.6765 2223.2654,-244 2243.8618,-236.597 2247.9823,-232.2223 2268.2654,-224 2311.2678,-206.5678 2333.0911,-220.443 2366.2654,-188 2391.4061,-163.4136 2407.891,-141.1785 2388.2654,-112 2379.1334,-98.4229 2339.8659,-84.4791 2310.1636,-75.5565"/>
<polygon fill="#191970" stroke="#191970" points="2099.8279,-276.6 2090.9538,-282.3881 2101.5004,-283.3973 2099.8279,-276.6"/>
</g>
<!-- Node22 -->
<g id="node7" class="node">
<title>Node22</title>
<g id="a_node7"><a xlink:href="Transform_8cpp.html" target="_top" xlink:title="Transform.cpp">
<polygon fill="none" stroke="#000000" points="1488.2654,-112.5 1488.2654,-131.5 1574.2654,-131.5 1574.2654,-112.5 1488.2654,-112.5"/>
<text text-anchor="middle" x="1531.2654" y="-119.5" font-family="FreeSans.ttf" font-size="10.00" fill="#000000">Transform.cpp</text>
</a>
</g>
</g>
<!-- Node17&#45;&gt;Node22 -->
<g id="edge100" class="edge">
<title>Node17&#45;&gt;Node22</title>
<path fill="none" stroke="#191970" d="M2016.8631,-277.4906C1986.7124,-268.3351 1944.9106,-255.5475 1908.2654,-244 1778.3524,-203.0623 1623.8751,-152.469 1560.5461,-131.6453"/>
<polygon fill="#191970" stroke="#191970" points="2016.0317,-280.8958 2026.6171,-280.4491 2018.0636,-274.1972 2016.0317,-280.8958"/>
</g>
<!-- Node42 -->
<g id="node16" class="node">
<title>Node42</title>
<g id="a_node16"><a xlink:href="SpatialVector_8h.html" target="_top" xlink:title="SpatialVector.h">
<polygon fill="none" stroke="#000000" points="2682.7654,-224.5 2682.7654,-243.5 2771.7654,-243.5 2771.7654,-224.5 2682.7654,-224.5"/>
<text text-anchor="middle" x="2727.2654" y="-231.5" font-family="FreeSans.ttf" font-size="10.00" fill="#000000">SpatialVector.h</text>
</a>
</g>
</g>
<!-- Node17&#45;&gt;Node42 -->
<g id="edge17" class="edge">
<title>Node17&#45;&gt;Node42</title>
<path fill="none" stroke="#191970" d="M2101.1154,-288.3957C2201.4737,-284.2896 2459.4449,-271.7117 2673.2654,-244 2676.2911,-243.6079 2679.4042,-243.1575 2682.5354,-242.6696"/>
<polygon fill="#191970" stroke="#191970" points="2100.9129,-284.9009 2091.0617,-288.8001 2101.1944,-291.8953 2100.9129,-284.9009"/>
</g>
<!-- Node58 -->
<g id="node19" class="node">
<title>Node58</title>
<g id="a_node19"><a xlink:href="SpatialInertia_8cpp.html" target="_top" xlink:title="SpatialInertia.cpp">
<polygon fill="none" stroke="#000000" points="2832.2654,-56.5 2832.2654,-75.5 2934.2654,-75.5 2934.2654,-56.5 2832.2654,-56.5"/>
<text text-anchor="middle" x="2883.2654" y="-63.5" font-family="FreeSans.ttf" font-size="10.00" fill="#000000">SpatialInertia.cpp</text>
</a>
</g>
</g>
<!-- Node17&#45;&gt;Node58 -->
<g id="edge99" class="edge">
<title>Node17&#45;&gt;Node58</title>
<path fill="none" stroke="#191970" d="M2101.1363,-289.3612C2236.0359,-287.0233 2650.552,-277.2495 2780.2654,-244 2893.8989,-214.8723 2956.3302,-230.9957 3019.2654,-132 3042.005,-96.2313 2981.9278,-79.3257 2934.4754,-71.7187"/>
<polygon fill="#191970" stroke="#191970" points="2100.7426,-285.8673 2090.803,-289.5351 2100.8605,-292.8663 2100.7426,-285.8673"/>
</g>
<!-- Node230 -->
<g id="node27" class="node">
<title>Node230</title>
<g id="a_node27"><a xlink:href="Transform_8h.html" target="_top" xlink:title="Transform.h">
<polygon fill="none" stroke="#ff0000" points="1242.2654,-224.5 1242.2654,-243.5 1316.2654,-243.5 1316.2654,-224.5 1242.2654,-224.5"/>
<text text-anchor="middle" x="1279.2654" y="-231.5" font-family="FreeSans.ttf" font-size="10.00" fill="#000000">Transform.h</text>
</a>
</g>
</g>
<!-- Node17&#45;&gt;Node230 -->
<g id="edge42" class="edge">
<title>Node17&#45;&gt;Node230</title>
<path fill="none" stroke="#191970" d="M2015.0902,-286.8963C1876.8387,-276.9578 1446.5453,-246.0253 1316.7208,-236.6926"/>
<polygon fill="#191970" stroke="#191970" points="2015.0651,-290.4034 2025.2904,-287.6295 2015.5671,-283.4214 2015.0651,-290.4034"/>
</g>
<!-- Node232 -->
<g id="node29" class="node">
<title>Node232</title>
<g id="a_node29"><a xlink:href="TransformSemantics_8cpp.html" target="_top" xlink:title="TransformSemantics.cpp">
<polygon fill="none" stroke="#000000" points="2204.7654,-168.5 2204.7654,-187.5 2341.7654,-187.5 2341.7654,-168.5 2204.7654,-168.5"/>
<text text-anchor="middle" x="2273.2654" y="-175.5" font-family="FreeSans.ttf" font-size="10.00" fill="#000000">TransformSemantics.cpp</text>
</a>
</g>
</g>
<!-- Node17&#45;&gt;Node232 -->
<g id="edge101" class="edge">
<title>Node17&#45;&gt;Node232</title>
<path fill="none" stroke="#191970" d="M2085.6833,-275.7172C2130.2388,-252.5069 2217.1784,-207.2174 2254.9811,-187.5249"/>
<polygon fill="#191970" stroke="#191970" points="2083.848,-272.7268 2076.5962,-280.4509 2087.0821,-278.935 2083.848,-272.7268"/>
</g>
<!-- Node233 -->
<g id="node31" class="node">
<title>Node233</title>
<g id="a_node31"><a xlink:href="BoundingBoxHelpers_8h.html" target="_top" xlink:title="BoundingBoxHelpers.h">
<polygon fill="none" stroke="#000000" points="2116.2654,-112.5 2116.2654,-131.5 2244.2654,-131.5 2244.2654,-112.5 2116.2654,-112.5"/>
<text text-anchor="middle" x="2180.2654" y="-119.5" font-family="FreeSans.ttf" font-size="10.00" fill="#000000">BoundingBoxHelpers.h</text>
</a>
</g>
</g>
<!-- Node17&#45;&gt;Node233 -->
<g id="edge105" class="edge">
<title>Node17&#45;&gt;Node233</title>
<path fill="none" stroke="#191970" d="M2093.449,-276.7653C2140.9948,-258.8983 2221.4349,-228.7396 2235.2654,-224 2285.93,-206.6379 2318.5524,-231.1582 2350.2654,-188 2355.5289,-180.837 2355.668,-175.0587 2350.2654,-168 2337.1643,-150.8827 2286.9237,-138.6666 2244.4294,-131.1454"/>
<polygon fill="#191970" stroke="#191970" points="2091.9675,-273.5831 2083.8384,-280.3778 2094.4305,-280.1355 2091.9675,-273.5831"/>
</g>
<!-- Node234 -->
<g id="node32" class="node">
<title>Node234</title>
<g id="a_node32"><a xlink:href="ConvexHullHelpers_8h.html" target="_top" xlink:title="ConvexHullHelpers.h">
<polygon fill="none" stroke="#ff0000" points="1952.7654,-168.5 1952.7654,-187.5 2071.7654,-187.5 2071.7654,-168.5 1952.7654,-168.5"/>
<text text-anchor="middle" x="2012.2654" y="-175.5" font-family="FreeSans.ttf" font-size="10.00" fill="#000000">ConvexHullHelpers.h</text>
</a>
</g>
</g>
<!-- Node17&#45;&gt;Node234 -->
<g id="edge106" class="edge">
<title>Node17&#45;&gt;Node234</title>
<path fill="none" stroke="#191970" d="M2050.4312,-270.9253C2040.4932,-246.7284 2023.7398,-205.9376 2016.1775,-187.5249"/>
<polygon fill="#191970" stroke="#191970" points="2047.3067,-272.5305 2054.3435,-280.4509 2053.7818,-269.871 2047.3067,-272.5305"/>
</g>
<!-- Node150 -->
<g id="node40" class="node">
<title>Node150</title>
<g id="a_node40"><a xlink:href="BerdyHelper_8h.html" target="_top" xlink:title="BerdyHelper.h">
<polygon fill="none" stroke="#ff0000" points="170.2654,-56.5 170.2654,-75.5 256.2654,-75.5 256.2654,-56.5 170.2654,-56.5"/>
<text text-anchor="middle" x="213.2654" y="-63.5" font-family="FreeSans.ttf" font-size="10.00" fill="#000000">BerdyHelper.h</text>
</a>
</g>
</g>
<!-- Node17&#45;&gt;Node150 -->
<g id="edge102" class="edge">
<title>Node17&#45;&gt;Node150</title>
<path fill="none" stroke="#191970" d="M2015.454,-289.5048C1741.7594,-286.2721 245.5379,-267.5693 152.2654,-244 99.0777,-230.5598 82.4797,-225.3148 42.2654,-188 15.1402,-162.8305 -14.8591,-140.8884 8.2654,-112 28.1534,-87.1549 116.1784,-74.8075 170.2099,-69.4638"/>
<polygon fill="#191970" stroke="#191970" points="2015.7221,-293.0081 2025.7626,-289.6261 2015.8045,-286.0086 2015.7221,-293.0081"/>
</g>
<!-- Node196 -->
<g id="node42" class="node">
<title>Node196</title>
<g id="a_node42"><a xlink:href="ExternalWrenchesEstimation_8h.html" target="_top" xlink:title="ExternalWrenchesEstimation.h">
<polygon fill="none" stroke="#ff0000" points="25.2654,-112.5 25.2654,-131.5 191.2654,-131.5 191.2654,-112.5 25.2654,-112.5"/>
<text text-anchor="middle" x="108.2654" y="-119.5" font-family="FreeSans.ttf" font-size="10.00" fill="#000000">ExternalWrenchesEstimation.h</text>
</a>
</g>
</g>
<!-- Node17&#45;&gt;Node196 -->
<g id="edge103" class="edge">
<title>Node17&#45;&gt;Node196</title>
<path fill="none" stroke="#191970" d="M2015.353,-289.4391C1756.4568,-285.9826 411.0927,-266.9667 327.2654,-244 241.2157,-220.4244 152.5461,-156.374 120.632,-131.7896"/>
<polygon fill="#191970" stroke="#191970" points="2015.4408,-292.9405 2025.4864,-289.5738 2015.5339,-285.9411 2015.4408,-292.9405"/>
</g>
<!-- Node194 -->
<g id="node43" class="node">
<title>Node194</title>
<g id="a_node43"><a xlink:href="ContactWrench_8h.html" target="_top" xlink:title="ContactWrench.h">
<polygon fill="none" stroke="#ff0000" points="300.7654,-112.5 300.7654,-131.5 399.7654,-131.5 399.7654,-112.5 300.7654,-112.5"/>
<text text-anchor="middle" x="350.2654" y="-119.5" font-family="FreeSans.ttf" font-size="10.00" fill="#000000">ContactWrench.h</text>
</a>
</g>
</g>
<!-- Node17&#45;&gt;Node194 -->
<g id="edge107" class="edge">
<title>Node17&#45;&gt;Node194</title>
<path fill="none" stroke="#191970" d="M2015.588,-287.6973C1893.5764,-281.0975 1532.7915,-261.4663 1233.2654,-244 1028.79,-232.0764 453.6283,-337.1665 313.2654,-188 297.1519,-170.8758 321.6617,-145.4308 337.8636,-131.6734"/>
<polygon fill="#191970" stroke="#191970" points="2015.466,-291.1957 2025.6404,-288.2408 2015.8439,-284.2059 2015.466,-291.1957"/>
</g>
<!-- Node118 -->
<g id="node44" class="node">
<title>Node118</title>
<g id="a_node44"><a xlink:href="skinDynLibConversions_8cpp.html" target="_top" xlink:title="skinDynLibConversions.cpp">
<polygon fill="none" stroke="#000000" points="274.7654,-56.5 274.7654,-75.5 425.7654,-75.5 425.7654,-56.5 274.7654,-56.5"/>
<text text-anchor="middle" x="350.2654" y="-63.5" font-family="FreeSans.ttf" font-size="10.00" fill="#000000">skinDynLibConversions.cpp</text>
</a>
</g>
</g>
<!-- Node17&#45;&gt;Node118 -->
<g id="edge104" class="edge">
<title>Node17&#45;&gt;Node118</title>
<path fill="none" stroke="#191970" d="M2015.1749,-289.8997C1759.1664,-289.1699 443.336,-283.5093 268.2654,-244 148.7086,-217.0188 83.052,-234.7686 16.2654,-132 11.4218,-124.5467 10.4245,-118.7005 16.2654,-112 20.5023,-107.1396 177.2212,-87.1678 274.4532,-75.196"/>
<polygon fill="#191970" stroke="#191970" points="2015.5344,-293.4006 2025.544,-289.9282 2015.5537,-286.4006 2015.5344,-293.4006"/>
</g>
<!-- Node212 -->
<g id="node45" class="node">
<title>Node212</title>
<g id="a_node45"><a xlink:href="Visualizer_8h.html" target="_top" xlink:title="Visualizer.h">
<polygon fill="none" stroke="#ff0000" points="209.7654,-112.5 209.7654,-131.5 282.7654,-131.5 282.7654,-112.5 209.7654,-112.5"/>
<text text-anchor="middle" x="246.2654" y="-119.5" font-family="FreeSans.ttf" font-size="10.00" fill="#000000">Visualizer.h</text>
</a>
</g>
</g>
<!-- Node17&#45;&gt;Node212 -->
<g id="edge108" class="edge">
<title>Node17&#45;&gt;Node212</title>
<path fill="none" stroke="#191970" d="M2015.3908,-289.6929C1759.5542,-287.7533 442.8884,-276.23 364.2654,-244 308.0997,-220.9759 265.9181,-156.0085 251.5835,-131.5089"/>
<polygon fill="#191970" stroke="#191970" points="2015.7256,-293.1954 2025.7516,-289.7706 2015.7781,-286.1956 2015.7256,-293.1954"/>
</g>
<!-- Node260 -->
<g id="node48" class="node">
<title>Node260</title>
<g id="a_node48"><a xlink:href="AngularForceVector3_8cpp.html" target="_top" xlink:title="AngularForceVector3.cpp">
<polygon fill="none" stroke="#000000" points="2277.7654,-224.5 2277.7654,-243.5 2414.7654,-243.5 2414.7654,-224.5 2277.7654,-224.5"/>
<text text-anchor="middle" x="2346.2654" y="-231.5" font-family="FreeSans.ttf" font-size="10.00" fill="#000000">AngularForceVector3.cpp</text>
</a>
</g>
</g>
<!-- Node17&#45;&gt;Node260 -->
<g id="edge95" class="edge">
<title>Node17&#45;&gt;Node260</title>
<path fill="none" stroke="#191970" d="M2101.0009,-281.6903C2153.413,-271.4991 2242.0664,-254.2609 2297.2101,-243.5385"/>
<polygon fill="#191970" stroke="#191970" points="2100.1704,-278.2862 2091.0223,-283.6306 2101.5065,-285.1575 2100.1704,-278.2862"/>
</g>
<!-- Node261 -->
<g id="node49" class="node">
<title>Node261</title>
<g id="a_node49"><a xlink:href="LinearMotionVector3_8cpp.html" target="_top" xlink:title="LinearMotionVector3.cpp">
<polygon fill="none" stroke="#000000" points="2432.7654,-224.5 2432.7654,-243.5 2569.7654,-243.5 2569.7654,-224.5 2432.7654,-224.5"/>
<text text-anchor="middle" x="2501.2654" y="-231.5" font-family="FreeSans.ttf" font-size="10.00" fill="#000000">LinearMotionVector3.cpp</text>
</a>
</g>
</g>
<!-- Node17&#45;&gt;Node261 -->
<g id="edge96" class="edge">
<title>Node17&#45;&gt;Node261</title>
<path fill="none" stroke="#191970" d="M2100.9183,-284.6547C2169.0514,-276.1093 2306.6512,-258.8235 2423.2654,-244 2426.245,-243.6212 2429.2885,-243.2337 2432.363,-242.8418"/>
<polygon fill="#191970" stroke="#191970" points="2100.4737,-281.1829 2090.9869,-285.9001 2101.3448,-288.1285 2100.4737,-281.1829"/>
</g>
<!-- Node192 -->
<g id="node50" class="node">
<title>Node192</title>
<g id="a_node50"><a xlink:href="Position_8cpp.html" target="_top" xlink:title="Position.cpp">
<polygon fill="none" stroke="#000000" points="2588.2654,-224.5 2588.2654,-243.5 2664.2654,-243.5 2664.2654,-224.5 2588.2654,-224.5"/>
<text text-anchor="middle" x="2626.2654" y="-231.5" font-family="FreeSans.ttf" font-size="10.00" fill="#000000">Position.cpp</text>
</a>
</g>
</g>
<!-- Node17&#45;&gt;Node192 -->
<g id="edge97" class="edge">
<title>Node17&#45;&gt;Node192</title>
<path fill="none" stroke="#191970" d="M2100.9679,-287.9202C2190.0637,-283.2083 2402.1187,-270.0482 2578.2654,-244 2581.4653,-243.5268 2584.7728,-242.9738 2588.0855,-242.375"/>
<polygon fill="#191970" stroke="#191970" points="2100.7776,-284.4253 2090.9731,-288.4405 2101.1415,-291.4158 2100.7776,-284.4253"/>
</g>
<!-- Node19 -->
<g id="node4" class="node">
<title>Node19</title>
<g id="a_node4"><a xlink:href="Axis_8cpp.html" target="_top" xlink:title="Axis.cpp">
<polygon fill="none" stroke="#000000" points="1306.2654,-112.5 1306.2654,-131.5 1364.2654,-131.5 1364.2654,-112.5 1306.2654,-112.5"/>
<text text-anchor="middle" x="1335.2654" y="-119.5" font-family="FreeSans.ttf" font-size="10.00" fill="#000000">Axis.cpp</text>
</a>
</g>
</g>
<!-- Node18&#45;&gt;Node19 -->
<g id="edge3" class="edge">
<title>Node18&#45;&gt;Node19</title>
<path fill="none" stroke="#191970" d="M1762.4247,-176.0377C1690.3649,-171.4838 1516.6324,-158.5067 1373.2654,-132 1370.448,-131.4791 1367.5322,-130.8599 1364.6262,-130.1888"/>
<polygon fill="#191970" stroke="#191970" points="1762.5035,-179.5492 1772.7005,-176.6731 1762.9356,-172.5625 1762.5035,-179.5492"/>
</g>
<!-- Node18&#45;&gt;Node20 -->
<g id="edge4" class="edge">
<title>Node18&#45;&gt;Node20</title>
<path fill="none" stroke="#191970" d="M1829.7643,-167.2658C1855.66,-158.6341 1892.2093,-145.7198 1923.2654,-132 1940.723,-124.2877 1943.087,-117.813 1961.2654,-112 2074.8971,-75.6634 2109.6843,-96.1785 2227.2654,-76 2230.2857,-75.4817 2233.4057,-74.9114 2236.5378,-74.314"/>
<polygon fill="#191970" stroke="#191970" points="1828.4533,-164.0126 1820.0527,-170.4687 1830.6458,-170.6604 1828.4533,-164.0126"/>
</g>
<!-- Node21 -->
<g id="node6" class="node">
<title>Node21</title>
<g id="a_node6"><a xlink:href="TestUtils_8cpp.html" target="_top" xlink:title="TestUtils.cpp">
<polygon fill="none" stroke="#000000" points="2300.7654,-112.5 2300.7654,-131.5 2379.7654,-131.5 2379.7654,-112.5 2300.7654,-112.5"/>
<text text-anchor="middle" x="2340.2654" y="-119.5" font-family="FreeSans.ttf" font-size="10.00" fill="#000000">TestUtils.cpp</text>
</a>
</g>
</g>
<!-- Node18&#45;&gt;Node21 -->
<g id="edge5" class="edge">
<title>Node18&#45;&gt;Node21</title>
<path fill="none" stroke="#191970" d="M1830.447,-174.7259C1906.4746,-167.4069 2095.3334,-149.0241 2253.2654,-132 2268.6838,-130.338 2285.6271,-128.4129 2300.4325,-126.6982"/>
<polygon fill="#191970" stroke="#191970" points="1829.6848,-171.2829 1820.0656,-175.724 1830.3547,-178.2508 1829.6848,-171.2829"/>
</g>
<!-- Node18&#45;&gt;Node22 -->
<g id="edge6" class="edge">
<title>Node18&#45;&gt;Node22</title>
<path fill="none" stroke="#191970" d="M1762.9237,-170.9542C1715.2152,-160.8724 1627.4262,-142.3208 1574.6933,-131.1772"/>
<polygon fill="#191970" stroke="#191970" points="1762.2409,-174.3871 1772.7485,-173.0304 1763.6882,-167.5384 1762.2409,-174.3871"/>
</g>
<!-- Node23 -->
<g id="node8" class="node">
<title>Node23</title>
<g id="a_node8"><a xlink:href="BoundingBoxHelpers_8cpp.html" target="_top" xlink:title="BoundingBoxHelpers.cpp">
<polygon fill="none" stroke="#000000" points="1930.7654,-56.5 1930.7654,-75.5 2069.7654,-75.5 2069.7654,-56.5 1930.7654,-56.5"/>
<text text-anchor="middle" x="2000.2654" y="-63.5" font-family="FreeSans.ttf" font-size="10.00" fill="#000000">BoundingBoxHelpers.cpp</text>
</a>
</g>
</g>
<!-- Node18&#45;&gt;Node23 -->
<g id="edge7" class="edge">
<title>Node18&#45;&gt;Node23</title>
<path fill="none" stroke="#191970" d="M1816.1469,-162.1272C1834.6269,-147.847 1863.2853,-126.8839 1890.2654,-112 1917.2714,-97.1019 1950.1043,-83.9632 1972.8328,-75.5826"/>
<polygon fill="#191970" stroke="#191970" points="1813.9005,-159.4407 1808.1797,-168.3583 1818.2129,-164.9546 1813.9005,-159.4407"/>
</g>
<!-- Node24 -->
<g id="node9" class="node">
<title>Node24</title>
<g id="a_node9"><a xlink:href="ConvexHullHelpers_8cpp.html" target="_top" xlink:title="ConvexHullHelpers.cpp">
<polygon fill="none" stroke="#000000" points="2087.7654,-56.5 2087.7654,-75.5 2218.7654,-75.5 2218.7654,-56.5 2087.7654,-56.5"/>
<text text-anchor="middle" x="2153.2654" y="-63.5" font-family="FreeSans.ttf" font-size="10.00" fill="#000000">ConvexHullHelpers.cpp</text>
</a>
</g>
</g>
<!-- Node18&#45;&gt;Node24 -->
<g id="edge8" class="edge">
<title>Node18&#45;&gt;Node24</title>
<path fill="none" stroke="#191970" d="M1824.6866,-163.7859C1863.459,-144.3954 1928.1806,-112.0293 1928.2654,-112 1980.4588,-93.9674 2042.0343,-81.9826 2087.5634,-74.7797"/>
<polygon fill="#191970" stroke="#191970" points="1822.8218,-160.8052 1815.4435,-168.4085 1825.9529,-167.0659 1822.8218,-160.8052"/>
</g>
<!-- Node25 -->
<g id="node10" class="node">
<title>Node25</title>
<g id="a_node10"><a xlink:href="InverseKinematicsData_8cpp.html" target="_top" xlink:title="InverseKinematicsData.cpp">
<polygon fill="none" stroke="#000000" points="1119.7654,-.5 1119.7654,-19.5 1270.7654,-19.5 1270.7654,-.5 1119.7654,-.5"/>
<text text-anchor="middle" x="1195.2654" y="-7.5" font-family="FreeSans.ttf" font-size="10.00" fill="#000000">InverseKinematicsData.cpp</text>
</a>
</g>
</g>
<!-- Node18&#45;&gt;Node25 -->
<g id="edge9" class="edge">
<title>Node18&#45;&gt;Node25</title>
<path fill="none" stroke="#191970" d="M1763.0714,-167.2244C1721.2833,-153.7723 1647.2198,-130.3055 1583.2654,-112 1455.8723,-75.5366 1303.5375,-36.9359 1233.6909,-19.5131"/>
<polygon fill="#191970" stroke="#191970" points="1762.1344,-170.5997 1772.726,-170.3391 1764.2836,-163.9378 1762.1344,-170.5997"/>
</g>
<!-- Node26 -->
<g id="node11" class="node">
<title>Node26</title>
<g id="a_node11"><a xlink:href="PrismaticJoint_8h.html" target="_top" xlink:title="PrismaticJoint.h">
<polygon fill="none" stroke="#ff0000" points="1706.7654,-112.5 1706.7654,-131.5 1799.7654,-131.5 1799.7654,-112.5 1706.7654,-112.5"/>
<text text-anchor="middle" x="1753.2654" y="-119.5" font-family="FreeSans.ttf" font-size="10.00" fill="#000000">PrismaticJoint.h</text>
</a>
</g>
</g>
<!-- Node18&#45;&gt;Node26 -->
<g id="edge10" class="edge">
<title>Node18&#45;&gt;Node26</title>
<path fill="none" stroke="#191970" d="M1782.6062,-160.2112C1775.3392,-150.7472 1766.6873,-139.4797 1760.6696,-131.6427"/>
<polygon fill="#191970" stroke="#191970" points="1779.9091,-162.4456 1788.7754,-168.2455 1785.4612,-158.1824 1779.9091,-162.4456"/>
</g>
<!-- Node28 -->
<g id="node12" class="node">
<title>Node28</title>
<g id="a_node12"><a xlink:href="PrismaticJoint_8cpp.html" target="_top" xlink:title="PrismaticJoint.cpp">
<polygon fill="none" stroke="#000000" points="1668.2654,-56.5 1668.2654,-75.5 1772.2654,-75.5 1772.2654,-56.5 1668.2654,-56.5"/>
<text text-anchor="middle" x="1720.2654" y="-63.5" font-family="FreeSans.ttf" font-size="10.00" fill="#000000">PrismaticJoint.cpp</text>
</a>
</g>
</g>
<!-- Node18&#45;&gt;Node28 -->
<g id="edge14" class="edge">
<title>Node18&#45;&gt;Node28</title>
<path fill="none" stroke="#191970" d="M1762.7321,-172.0647C1740.003,-166.109 1711.5864,-154.4455 1697.2654,-132 1685.648,-113.7917 1701.3056,-88.996 1711.9255,-75.5765"/>
<polygon fill="#191970" stroke="#191970" points="1762.1674,-175.5275 1772.7039,-174.4177 1763.775,-168.7146 1762.1674,-175.5275"/>
</g>
<!-- Node32 -->
<g id="node13" class="node">
<title>Node32</title>
<g id="a_node13"><a xlink:href="RevoluteJoint_8h.html" target="_top" xlink:title="RevoluteJoint.h">
<polygon fill="none" stroke="#ff0000" points="1970.2654,-112.5 1970.2654,-131.5 2060.2654,-131.5 2060.2654,-112.5 1970.2654,-112.5"/>
<text text-anchor="middle" x="2015.2654" y="-119.5" font-family="FreeSans.ttf" font-size="10.00" fill="#000000">RevoluteJoint.h</text>
</a>
</g>
</g>
<!-- Node18&#45;&gt;Node32 -->
<g id="edge12" class="edge">
<title>Node18&#45;&gt;Node32</title>
<path fill="none" stroke="#191970" d="M1829.8553,-169.1442C1831.3454,-168.7565 1832.8207,-168.3737 1834.2654,-168 1883.7041,-155.2129 1940.8209,-140.7483 1977.455,-131.5104"/>
<polygon fill="#191970" stroke="#191970" points="1828.7634,-165.812 1819.9741,-171.7279 1830.5342,-172.5843 1828.7634,-165.812"/>
</g>
<!-- Node36 -->
<g id="node14" class="node">
<title>Node36</title>
<g id="a_node14"><a xlink:href="RevoluteJoint_8cpp.html" target="_top" xlink:title="RevoluteJoint.cpp">
<polygon fill="none" stroke="#000000" points="1790.7654,-56.5 1790.7654,-75.5 1891.7654,-75.5 1891.7654,-56.5 1790.7654,-56.5"/>
<text text-anchor="middle" x="1841.2654" y="-63.5" font-family="FreeSans.ttf" font-size="10.00" fill="#000000">RevoluteJoint.cpp</text>
</a>
</g>
</g>
<!-- Node18&#45;&gt;Node36 -->
<g id="edge15" class="edge">
<title>Node18&#45;&gt;Node36</title>
<path fill="none" stroke="#191970" d="M1803.9294,-158.9253C1813.6514,-134.7284 1830.0405,-93.9376 1837.4385,-75.5249"/>
<polygon fill="#191970" stroke="#191970" points="1800.5827,-157.867 1800.1021,-168.4509 1807.078,-160.4768 1800.5827,-157.867"/>
</g>
<!-- Node37 -->
<g id="node15" class="node">
<title>Node37</title>
<g id="a_node15"><a xlink:href="JointElement_8h.html" target="_top" xlink:title="JointElement.h">
<polygon fill="none" stroke="#ff0000" points="1382.2654,-112.5 1382.2654,-131.5 1470.2654,-131.5 1470.2654,-112.5 1382.2654,-112.5"/>
<text text-anchor="middle" x="1426.2654" y="-119.5" font-family="FreeSans.ttf" font-size="10.00" fill="#000000">JointElement.h</text>
</a>
</g>
</g>
<!-- Node18&#45;&gt;Node37 -->
<g id="edge16" class="edge">
<title>Node18&#45;&gt;Node37</title>
<path fill="none" stroke="#191970" d="M1762.7014,-173.6055C1704.7631,-165.9134 1582.2854,-149.1856 1479.2654,-132 1476.4023,-131.5224 1473.4553,-131.0138 1470.4869,-130.4887"/>
<polygon fill="#191970" stroke="#191970" points="1762.3767,-177.093 1772.7494,-174.9347 1763.2948,-170.1534 1762.3767,-177.093"/>
</g>
<!-- Node26&#45;&gt;Node28 -->
<g id="edge11" class="edge">
<title>Node26&#45;&gt;Node28</title>
<path fill="none" stroke="#191970" d="M1742.44,-103.6296C1736.9356,-94.2887 1730.4717,-83.3197 1725.9477,-75.6427"/>
<polygon fill="#191970" stroke="#191970" points="1739.4249,-105.4071 1747.5173,-112.2455 1745.4557,-101.8532 1739.4249,-105.4071"/>
</g>
<!-- Node32&#45;&gt;Node36 -->
<g id="edge13" class="edge">
<title>Node32&#45;&gt;Node36</title>
<path fill="none" stroke="#191970" d="M1975.4644,-109.1905C1943.5864,-98.9309 1899.5838,-84.7691 1870.7868,-75.5011"/>
<polygon fill="#191970" stroke="#191970" points="1974.7623,-112.6413 1985.3538,-112.3733 1976.9069,-105.9779 1974.7623,-112.6413"/>
</g>
<!-- Node43 -->
<g id="node17" class="node">
<title>Node43</title>
<g id="a_node17"><a xlink:href="SpatialForceVector_8h.html" target="_top" xlink:title="SpatialForceVector.h">
<polygon fill="none" stroke="#ff0000" points="2661.2654,-168.5 2661.2654,-187.5 2777.2654,-187.5 2777.2654,-168.5 2661.2654,-168.5"/>
<text text-anchor="middle" x="2719.2654" y="-175.5" font-family="FreeSans.ttf" font-size="10.00" fill="#000000">SpatialForceVector.h</text>
</a>
</g>
</g>
<!-- Node42&#45;&gt;Node43 -->
<g id="edge18" class="edge">
<title>Node42&#45;&gt;Node43</title>
<path fill="none" stroke="#191970" d="M2724.4308,-214.1575C2723.1447,-205.155 2721.6826,-194.9199 2720.643,-187.6427"/>
<polygon fill="#191970" stroke="#191970" points="2720.9928,-214.8411 2725.872,-224.2455 2727.9225,-213.851 2720.9928,-214.8411"/>
</g>
<!-- Node224 -->
<g id="node26" class="node">
<title>Node224</title>
<g id="a_node26"><a xlink:href="SpatialMotionVector_8h.html" target="_top" xlink:title="SpatialMotionVector.h">
<polygon fill="none" stroke="#ff0000" points="2521.2654,-168.5 2521.2654,-187.5 2643.2654,-187.5 2643.2654,-168.5 2521.2654,-168.5"/>
<text text-anchor="middle" x="2582.2654" y="-175.5" font-family="FreeSans.ttf" font-size="10.00" fill="#000000">SpatialMotionVector.h</text>
</a>
</g>
</g>
<!-- Node42&#45;&gt;Node224 -->
<g id="edge33" class="edge">
<title>Node42&#45;&gt;Node224</title>
<path fill="none" stroke="#191970" d="M2692.709,-220.6541C2666.2668,-210.4419 2630.4486,-196.6086 2606.8666,-187.5011"/>
<polygon fill="#191970" stroke="#191970" points="2691.7496,-224.0354 2702.3391,-224.3733 2694.2716,-217.5055 2691.7496,-224.0354"/>
</g>
<!-- Node43&#45;&gt;Node21 -->
<g id="edge32" class="edge">
<title>Node43&#45;&gt;Node21</title>
<path fill="none" stroke="#191970" d="M2651.1404,-167.835C2547.3737,-152.4486 2437.6431,-136.3055 2380.1622,-127.859"/>
<polygon fill="#191970" stroke="#191970" points="2650.7564,-171.3162 2661.1617,-169.3213 2651.7835,-164.392 2650.7564,-171.3162"/>
</g>
<!-- Node44 -->
<g id="node18" class="node">
<title>Node44</title>
<g id="a_node18"><a xlink:href="EigenHelpers_8h.html" target="_top" xlink:title="EigenHelpers.h">
<polygon fill="none" stroke="#ff0000" points="2436.2654,-112.5 2436.2654,-131.5 2526.2654,-131.5 2526.2654,-112.5 2436.2654,-112.5"/>
<text text-anchor="middle" x="2481.2654" y="-119.5" font-family="FreeSans.ttf" font-size="10.00" fill="#000000">EigenHelpers.h</text>
</a>
</g>
</g>
<!-- Node43&#45;&gt;Node44 -->
<g id="edge19" class="edge">
<title>Node43&#45;&gt;Node44</title>
<path fill="none" stroke="#191970" d="M2668.7434,-166.1125C2624.9242,-155.8021 2562.3268,-141.0733 2521.741,-131.5237"/>
<polygon fill="#191970" stroke="#191970" points="2668.0864,-169.5534 2678.6222,-168.4369 2669.6897,-162.7395 2668.0864,-169.5534"/>
</g>
<!-- Node49 -->
<g id="node20" class="node">
<title>Node49</title>
<g id="a_node20"><a xlink:href="SpatialMotionVector_8cpp.html" target="_top" xlink:title="SpatialMotionVector.cpp">
<polygon fill="none" stroke="#000000" points="2525.2654,-56.5 2525.2654,-75.5 2659.2654,-75.5 2659.2654,-56.5 2525.2654,-56.5"/>
<text text-anchor="middle" x="2592.2654" y="-63.5" font-family="FreeSans.ttf" font-size="10.00" fill="#000000">SpatialMotionVector.cpp</text>
</a>
</g>
</g>
<!-- Node43&#45;&gt;Node49 -->
<g id="edge31" class="edge">
<title>Node43&#45;&gt;Node49</title>
<path fill="none" stroke="#191970" d="M2693.0008,-163.1387C2679.3138,-154.8164 2662.6796,-143.763 2649.2654,-132 2629.0032,-114.2319 2609.361,-89.2642 2599.2725,-75.6991"/>
<polygon fill="#191970" stroke="#191970" points="2691.544,-166.3441 2701.9297,-168.4391 2695.1173,-160.3248 2691.544,-166.3441"/>
</g>
<!-- Node43&#45;&gt;Node221 -->
<g id="edge28" class="edge">
<title>Node43&#45;&gt;Node221</title>
<path fill="none" stroke="#191970" d="M2770.5665,-166.1775C2815.3194,-155.8641 2879.4138,-141.0934 2920.9395,-131.5237"/>
<polygon fill="#191970" stroke="#191970" points="2769.7211,-162.7805 2760.7625,-168.4369 2771.2931,-169.6017 2769.7211,-162.7805"/>
</g>
<!-- Node43&#45;&gt;Node222 -->
<g id="edge29" class="edge">
<title>Node43&#45;&gt;Node222</title>
<path fill="none" stroke="#191970" d="M2750.7002,-164.2473C2773.9464,-154.0771 2805.0065,-140.4883 2825.5486,-131.5011"/>
<polygon fill="#191970" stroke="#191970" points="2749.0281,-161.1585 2741.2694,-168.3733 2751.8339,-167.5716 2749.0281,-161.1585"/>
</g>
<!-- Node43&#45;&gt;Node47 -->
<g id="edge30" class="edge">
<title>Node43&#45;&gt;Node47</title>
<path fill="none" stroke="#191970" d="M2719.2654,-158.1575C2719.2654,-149.155 2719.2654,-138.9199 2719.2654,-131.6427"/>
<polygon fill="#191970" stroke="#191970" points="2715.7655,-158.2455 2719.2654,-168.2455 2722.7655,-158.2456 2715.7655,-158.2455"/>
</g>
<!-- Node44&#45;&gt;Node20 -->
<g id="edge20" class="edge">
<title>Node44&#45;&gt;Node20</title>
<path fill="none" stroke="#191970" d="M2436.0922,-109.7199C2398.2136,-99.4228 2344.8994,-84.9296 2310.216,-75.5011"/>
<polygon fill="#191970" stroke="#191970" points="2435.2848,-113.1274 2445.8528,-112.3733 2437.1211,-106.3725 2435.2848,-113.1274"/>
</g>
<!-- Node44&#45;&gt;Node23 -->
<g id="edge25" class="edge">
<title>Node44&#45;&gt;Node23</title>
<path fill="none" stroke="#191970" d="M2426.1799,-115.9569C2348.548,-107.3847 2202.5404,-91.0582 2078.2654,-76 2075.5548,-75.6716 2072.7916,-75.3334 2070.0006,-74.989"/>
<polygon fill="#191970" stroke="#191970" points="2425.8913,-119.4462 2436.2147,-117.0638 2426.6588,-112.4884 2425.8913,-119.4462"/>
</g>
<!-- Node44&#45;&gt;Node24 -->
<g id="edge26" class="edge">
<title>Node44&#45;&gt;Node24</title>
<path fill="none" stroke="#191970" d="M2425.9006,-112.5475C2365.5494,-102.2436 2269.5264,-85.8494 2209.0215,-75.5193"/>
<polygon fill="#191970" stroke="#191970" points="2425.5564,-116.0393 2436.0028,-114.2722 2426.7345,-109.1391 2425.5564,-116.0393"/>
</g>
<!-- Node44&#45;&gt;Node25 -->
<g id="edge27" class="edge">
<title>Node44&#45;&gt;Node25</title>
<path fill="none" stroke="#191970" d="M2486.3796,-102.1011C2488.8803,-87.2623 2489.1821,-67.6263 2477.2654,-56 2455.5705,-34.8337 1543.26,-16.3941 1271.1202,-11.3563"/>
<polygon fill="#191970" stroke="#191970" points="2482.8671,-101.7911 2484.2046,-112.3012 2489.7132,-103.251 2482.8671,-101.7911"/>
</g>
<!-- Node44&#45;&gt;Node58 -->
<g id="edge21" class="edge">
<title>Node44&#45;&gt;Node58</title>
<path fill="none" stroke="#191970" d="M2536.7321,-114.2733C2614.8948,-103.385 2756.3489,-83.6799 2832.1056,-73.1267"/>
<polygon fill="#191970" stroke="#191970" points="2536.02,-110.8386 2526.5985,-115.6849 2536.9858,-117.7717 2536.02,-110.8386"/>
</g>
<!-- Node44&#45;&gt;Node49 -->
<g id="edge22" class="edge">
<title>Node44&#45;&gt;Node49</title>
<path fill="none" stroke="#191970" d="M2509.3388,-107.8368C2529.4039,-97.7139 2555.8576,-84.3679 2573.4329,-75.5011"/>
<polygon fill="#191970" stroke="#191970" points="2507.6986,-104.7441 2500.347,-112.3733 2510.8517,-110.9938 2507.6986,-104.7441"/>
</g>
<!-- Node59 -->
<g id="node21" class="node">
<title>Node59</title>
<g id="a_node21"><a xlink:href="TransformDerivative_8cpp.html" target="_top" xlink:title="TransformDerivative.cpp">
<polygon fill="none" stroke="#000000" points="2331.7654,-56.5 2331.7654,-75.5 2468.7654,-75.5 2468.7654,-56.5 2331.7654,-56.5"/>
<text text-anchor="middle" x="2400.2654" y="-63.5" font-family="FreeSans.ttf" font-size="10.00" fill="#000000">TransformDerivative.cpp</text>
</a>
</g>
</g>
<!-- Node44&#45;&gt;Node59 -->
<g id="edge23" class="edge">
<title>Node44&#45;&gt;Node59</title>
<path fill="none" stroke="#191970" d="M2458.8314,-106.49C2444.5401,-96.6096 2426.4739,-84.1194 2414.2129,-75.6427"/>
<polygon fill="#191970" stroke="#191970" points="2456.9403,-109.4376 2467.1563,-112.2455 2460.9211,-103.6797 2456.9403,-109.4376"/>
</g>
<!-- Node74 -->
<g id="node22" class="node">
<title>Node74</title>
<g id="a_node22"><a xlink:href="KinDynComputations_8cpp.html" target="_top" xlink:title="KinDynComputations.cpp">
<polygon fill="none" stroke="#000000" points="444.2654,-56.5 444.2654,-75.5 584.2654,-75.5 584.2654,-56.5 444.2654,-56.5"/>
<text text-anchor="middle" x="514.2654" y="-63.5" font-family="FreeSans.ttf" font-size="10.00" fill="#000000">KinDynComputations.cpp</text>
</a>
</g>
</g>
<!-- Node44&#45;&gt;Node74 -->
<g id="edge24" class="edge">
<title>Node44&#45;&gt;Node74</title>
<path fill="none" stroke="#191970" d="M2425.7631,-115.2326C2413.435,-113.9526 2400.42,-112.7739 2388.2654,-112 1591.9397,-61.2979 1389.0795,-134.1841 593.2654,-76 590.37,-75.7883 587.418,-75.544 584.4381,-75.274"/>
<polygon fill="#191970" stroke="#191970" points="2425.6062,-118.7358 2435.9231,-116.3249 2426.3545,-111.7759 2425.6062,-118.7358"/>
</g>
<!-- Node224&#45;&gt;Node21 -->
<g id="edge39" class="edge">
<title>Node224&#45;&gt;Node21</title>
<path fill="none" stroke="#191970" d="M2531.0529,-166.1492C2485.9082,-155.7025 2421.071,-140.6988 2379.8153,-131.152"/>
<polygon fill="#191970" stroke="#191970" points="2530.4075,-169.5922 2540.9391,-168.4369 2531.9857,-162.7724 2530.4075,-169.5922"/>
</g>
<!-- Node224&#45;&gt;Node26 -->
<g id="edge40" class="edge">
<title>Node224&#45;&gt;Node26</title>
<path fill="none" stroke="#191970" d="M2510.8837,-173.1781C2345.1672,-161.9837 1937.9948,-134.4787 1799.9287,-125.1522"/>
<polygon fill="#191970" stroke="#191970" points="2510.7572,-176.6774 2520.9704,-173.8594 2511.2291,-169.6933 2510.7572,-176.6774"/>
</g>
<!-- Node224&#45;&gt;Node32 -->
<g id="edge41" class="edge">
<title>Node224&#45;&gt;Node32</title>
<path fill="none" stroke="#191970" d="M2511.0001,-171.3612C2418.0655,-162.6436 2250.4544,-146.7149 2107.2654,-132 2092.0824,-130.4397 2075.4987,-128.6603 2060.6447,-127.0394"/>
<polygon fill="#191970" stroke="#191970" points="2510.8486,-174.8623 2521.1316,-172.3108 2511.5019,-167.8928 2510.8486,-174.8623"/>
</g>
<!-- Node224&#45;&gt;Node44 -->
<g id="edge34" class="edge">
<title>Node224&#45;&gt;Node44</title>
<path fill="none" stroke="#191970" d="M2555.7936,-163.3225C2537.753,-153.3198 2514.3778,-140.3593 2498.6567,-131.6427"/>
<polygon fill="#191970" stroke="#191970" points="2554.2297,-166.4574 2564.6726,-168.2455 2557.6241,-160.3354 2554.2297,-166.4574"/>
</g>
<!-- Node224&#45;&gt;Node49 -->
<g id="edge38" class="edge">
<title>Node224&#45;&gt;Node49</title>
<path fill="none" stroke="#191970" d="M2584.027,-158.2702C2586.1942,-133.9985 2589.7858,-93.7725 2591.415,-75.5249"/>
<polygon fill="#191970" stroke="#191970" points="2580.5213,-158.1793 2583.118,-168.4509 2587.4936,-158.8019 2580.5213,-158.1793"/>
</g>
<!-- Node224&#45;&gt;Node221 -->
<g id="edge35" class="edge">
<title>Node224&#45;&gt;Node221</title>
<path fill="none" stroke="#191970" d="M2653.4395,-167.8375C2766.3806,-151.8343 2796.271,-149.3108 2905.2654,-132 2908.143,-131.543 2911.1001,-131.0612 2914.0817,-130.5661"/>
<polygon fill="#191970" stroke="#191970" points="2652.7565,-164.3993 2643.3485,-169.2718 2653.7416,-171.3296 2652.7565,-164.3993"/>
</g>
<!-- Node224&#45;&gt;Node222 -->
<g id="edge36" class="edge">
<title>Node224&#45;&gt;Node222</title>
<path fill="none" stroke="#191970" d="M2637.597,-166.3073C2686.4279,-155.9883 2756.7226,-141.1336 2802.1981,-131.5237"/>
<polygon fill="#191970" stroke="#191970" points="2636.5797,-162.9449 2627.5195,-168.4369 2638.0271,-169.7936 2636.5797,-162.9449"/>
</g>
<!-- Node224&#45;&gt;Node47 -->
<g id="edge37" class="edge">
<title>Node224&#45;&gt;Node47</title>
<path fill="none" stroke="#191970" d="M2615.246,-164.5189C2640.1966,-154.3201 2673.8389,-140.5685 2696.0216,-131.5011"/>
<polygon fill="#191970" stroke="#191970" points="2613.7488,-161.3497 2605.8166,-168.3733 2616.3975,-167.8293 2613.7488,-161.3497"/>
</g>
<!-- Node230&#45;&gt;Node19 -->
<g id="edge45" class="edge">
<title>Node230&#45;&gt;Node19</title>
<path fill="none" stroke="#191970" d="M1288.6406,-215.2498C1300.7181,-191.0946 1321.2554,-150.0202 1330.503,-131.5249"/>
<polygon fill="#191970" stroke="#191970" points="1285.3817,-213.9414 1284.04,-224.4509 1291.6427,-217.0719 1285.3817,-213.9414"/>
</g>
<!-- Node230&#45;&gt;Node21 -->
<g id="edge47" class="edge">
<title>Node230&#45;&gt;Node21</title>
<path fill="none" stroke="#191970" d="M1326.4824,-233.5608C1475.7361,-231.8164 1935.9862,-223.613 2080.2654,-188 2101.1205,-182.8523 2103.863,-174.7211 2124.2654,-168 2156.4935,-157.3833 2247.4134,-139.4575 2300.4589,-129.405"/>
<polygon fill="#191970" stroke="#191970" points="1326.2422,-230.0632 1316.2822,-233.6756 1326.321,-237.0628 1326.2422,-230.0632"/>
</g>
<!-- Node230&#45;&gt;Node22 -->
<g id="edge48" class="edge">
<title>Node230&#45;&gt;Node22</title>
<path fill="none" stroke="#191970" d="M1310.0985,-220.2964C1361.9118,-197.2683 1465.1547,-151.3826 1509.8345,-131.5249"/>
<polygon fill="#191970" stroke="#191970" points="1308.4674,-217.1912 1300.7508,-224.4509 1311.3105,-223.5878 1308.4674,-217.1912"/>
</g>
<!-- Node230&#45;&gt;Node26 -->
<g id="edge90" class="edge">
<title>Node230&#45;&gt;Node26</title>
<path fill="none" stroke="#191970" d="M1326.4463,-222.8518C1419.5892,-200.8433 1625.6183,-152.1614 1712.9164,-131.5339"/>
<polygon fill="#191970" stroke="#191970" points="1325.3866,-219.5057 1316.4594,-225.2115 1326.9963,-226.3181 1325.3866,-219.5057"/>
</g>
<!-- Node230&#45;&gt;Node32 -->
<g id="edge91" class="edge">
<title>Node230&#45;&gt;Node32</title>
<path fill="none" stroke="#191970" d="M1326.5276,-232.1162C1441.6241,-227.1956 1733.9167,-212.6055 1828.2654,-188 1849.0512,-182.5792 1852.2298,-175.7463 1872.2654,-168 1909.2387,-153.7051 1952.7193,-140.1686 1981.9453,-131.5294"/>
<polygon fill="#191970" stroke="#191970" points="1326.1212,-228.6302 1316.2777,-232.5488 1326.4164,-235.624 1326.1212,-228.6302"/>
</g>
<!-- Node230&#45;&gt;Node37 -->
<g id="edge94" class="edge">
<title>Node230&#45;&gt;Node37</title>
<path fill="none" stroke="#191970" d="M1299.7665,-218.3802C1330.7063,-194.807 1388.4052,-150.8459 1413.764,-131.5249"/>
<polygon fill="#191970" stroke="#191970" points="1297.6318,-215.6065 1291.7986,-224.4509 1301.8741,-221.1745 1297.6318,-215.6065"/>
</g>
<!-- Node230&#45;&gt;Node44 -->
<g id="edge43" class="edge">
<title>Node230&#45;&gt;Node44</title>
<path fill="none" stroke="#191970" d="M1326.5223,-233.5968C1480.1866,-231.9425 1964.5064,-223.9362 2116.2654,-188 2137.9588,-182.8631 2140.82,-174.0895 2162.2654,-168 2212.7954,-153.6519 2360.7897,-135.6074 2436.1093,-127.0058"/>
<polygon fill="#191970" stroke="#191970" points="1326.425,-230.0975 1316.4618,-233.701 1326.4976,-237.0971 1326.425,-230.0975"/>
</g>
<!-- Node230&#45;&gt;Node49 -->
<g id="edge46" class="edge">
<title>Node230&#45;&gt;Node49</title>
<path fill="none" stroke="#191970" d="M1326.4487,-232.5932C1496.6293,-227.3715 2073.0668,-208.3501 2153.2654,-188 2173.3054,-182.9149 2175.367,-173.6133 2195.2654,-168 2341.5134,-126.7436 2400.6195,-202.4346 2535.2654,-132 2559.9498,-119.0874 2578.5967,-90.641 2587.133,-75.6612"/>
<polygon fill="#191970" stroke="#191970" points="1326.1905,-229.0994 1316.302,-232.903 1326.4041,-236.0961 1326.1905,-229.0994"/>
</g>
<!-- Node230&#45;&gt;Node59 -->
<g id="edge49" class="edge">
<title>Node230&#45;&gt;Node59</title>
<path fill="none" stroke="#191970" d="M1326.4317,-232.8753C1446.981,-229.5891 1763.9191,-218.2492 1864.2654,-188 1881.7899,-182.7173 1883.1257,-174.4219 1900.2654,-168 1972.1797,-141.0552 1997.0511,-158.1297 2069.2654,-132 2087.212,-125.5063 2089.1497,-118.0054 2107.2654,-112 2128.1903,-105.0634 2252.2339,-86.8227 2332.0711,-75.5057"/>
<polygon fill="#191970" stroke="#191970" points="1326.3052,-229.3773 1316.4019,-233.1424 1326.4916,-236.3748 1326.3052,-229.3773"/>
</g>
<!-- Node230&#45;&gt;Node74 -->
<g id="edge52" class="edge">
<title>Node230&#45;&gt;Node74</title>
<path fill="none" stroke="#191970" d="M1231.8268,-232.0627C1099.1485,-226.406 730.6555,-208.9787 680.2654,-188 632.5569,-168.1377 634.2468,-142.136 592.2654,-112 572.7253,-97.9733 548.6807,-84.282 532.4955,-75.5354"/>
<polygon fill="#191970" stroke="#191970" points="1231.9373,-235.5705 1242.0763,-232.4963 1232.2332,-228.5767 1231.9373,-235.5705"/>
</g>
<!-- Node231 -->
<g id="node28" class="node">
<title>Node231</title>
<g id="a_node28"><a xlink:href="InertiaNonLinearParametrization_8h.html" target="_top" xlink:title="InertiaNonLinearParametrization.h">
<polygon fill="none" stroke="#ff0000" points="330.2654,-168.5 330.2654,-187.5 514.2654,-187.5 514.2654,-168.5 330.2654,-168.5"/>
<text text-anchor="middle" x="422.2654" y="-175.5" font-family="FreeSans.ttf" font-size="10.00" fill="#000000">InertiaNonLinearParametrization.h</text>
</a>
</g>
</g>
<!-- Node230&#45;&gt;Node231 -->
<g id="edge44" class="edge">
<title>Node230&#45;&gt;Node231</title>
<path fill="none" stroke="#191970" d="M1232.0415,-231.7502C1113.0104,-225.9437 791.095,-209.3994 523.2654,-188 520.3673,-187.7684 517.4232,-187.5252 514.451,-187.2727"/>
<polygon fill="#191970" stroke="#191970" points="1232.0994,-235.257 1242.2575,-232.2464 1232.4391,-228.2652 1232.0994,-235.257"/>
</g>
<!-- Node230&#45;&gt;Node232 -->
<g id="edge50" class="edge">
<title>Node230&#45;&gt;Node232</title>
<path fill="none" stroke="#191970" d="M1326.6596,-232.768C1461.7724,-229.0056 1860.4057,-216.1648 2190.2654,-188 2194.8931,-187.6049 2199.6607,-187.1523 2204.4609,-186.6628"/>
<polygon fill="#191970" stroke="#191970" points="1326.542,-229.2698 1316.6421,-233.0437 1326.7346,-236.2672 1326.542,-229.2698"/>
</g>
<!-- Node117 -->
<g id="node30" class="node">
<title>Node117</title>
<g id="a_node30"><a xlink:href="SimpleLeggedOdometry_8h.html" target="_top" xlink:title="SimpleLeggedOdometry.h">
<polygon fill="none" stroke="#ff0000" points="602.2654,-56.5 602.2654,-75.5 744.2654,-75.5 744.2654,-56.5 602.2654,-56.5"/>
<text text-anchor="middle" x="673.2654" y="-63.5" font-family="FreeSans.ttf" font-size="10.00" fill="#000000">SimpleLeggedOdometry.h</text>
</a>
</g>
</g>
<!-- Node230&#45;&gt;Node117 -->
<g id="edge51" class="edge">
<title>Node230&#45;&gt;Node117</title>
<path fill="none" stroke="#191970" d="M1232.209,-230.2148C1148.3201,-223.0983 976.3762,-206.7419 919.2654,-188 901.8746,-182.2929 899.5036,-176.446 883.2654,-168 814.7652,-132.3706 731.9261,-93.2857 694.02,-75.6177"/>
<polygon fill="#191970" stroke="#191970" points="1231.9737,-233.7073 1242.2315,-231.0566 1232.5596,-226.7318 1231.9737,-233.7073"/>
</g>
<!-- Node230&#45;&gt;Node233 -->
<g id="edge53" class="edge">
<title>Node230&#45;&gt;Node233</title>
<path fill="none" stroke="#191970" d="M1326.588,-232.6969C1452.2123,-228.8873 1791.8901,-216.2098 1900.2654,-188 1920.6629,-182.6906 1923.2158,-174.5006 1943.2654,-168 2000.3798,-149.4821 2067.7844,-137.2848 2116.0793,-130.1329"/>
<polygon fill="#191970" stroke="#191970" points="1326.4018,-229.2008 1316.5106,-232.9973 1326.6104,-236.1977 1326.4018,-229.2008"/>
</g>
<!-- Node230&#45;&gt;Node234 -->
<g id="edge55" class="edge">
<title>Node230&#45;&gt;Node234</title>
<path fill="none" stroke="#191970" d="M1326.7787,-231.7392C1435.3119,-226.344 1709.7061,-211.3955 1938.2654,-188 1942.9082,-187.5248 1947.7086,-186.9854 1952.5304,-186.4094"/>
<polygon fill="#191970" stroke="#191970" points="1326.3113,-228.2579 1316.4959,-232.2463 1326.6562,-235.2494 1326.3113,-228.2579"/>
</g>
<!-- Node119 -->
<g id="node33" class="node">
<title>Node119</title>
<g id="a_node33"><a xlink:href="InverseKinematicsData_8h.html" target="_top" xlink:title="InverseKinematicsData.h">
<polygon fill="none" stroke="#ff0000" points="1027.2654,-56.5 1027.2654,-75.5 1167.2654,-75.5 1167.2654,-56.5 1027.2654,-56.5"/>
<text text-anchor="middle" x="1097.2654" y="-63.5" font-family="FreeSans.ttf" font-size="10.00" fill="#000000">InverseKinematicsData.h</text>
</a>
</g>
</g>
<!-- Node230&#45;&gt;Node119 -->
<g id="edge63" class="edge">
<title>Node230&#45;&gt;Node119</title>
<path fill="none" stroke="#191970" d="M1249.3897,-219.9889C1192.0318,-193.0222 1071.883,-136.1813 1069.2654,-132 1057.6416,-113.4318 1075.2349,-89.1995 1087.3659,-75.8677"/>
<polygon fill="#191970" stroke="#191970" points="1248.1398,-223.2687 1258.679,-224.3531 1251.1164,-216.933 1248.1398,-223.2687"/>
</g>
<!-- Node229 -->
<g id="node34" class="node">
<title>Node229</title>
<g id="a_node34"><a xlink:href="InverseKinematicsNLP_8h.html" target="_top" xlink:title="InverseKinematicsNLP.h">
<polygon fill="none" stroke="#ff0000" points="1078.2654,-112.5 1078.2654,-131.5 1212.2654,-131.5 1212.2654,-112.5 1078.2654,-112.5"/>
<text text-anchor="middle" x="1145.2654" y="-119.5" font-family="FreeSans.ttf" font-size="10.00" fill="#000000">InverseKinematicsNLP.h</text>
</a>
</g>
</g>
<!-- Node230&#45;&gt;Node229 -->
<g id="edge60" class="edge">
<title>Node230&#45;&gt;Node229</title>
<path fill="none" stroke="#191970" d="M1259.8489,-217.7713C1231.4769,-194.0573 1179.5799,-150.6807 1156.6613,-131.5249"/>
<polygon fill="#191970" stroke="#191970" points="1257.9232,-220.7233 1267.8407,-224.4509 1262.4124,-215.3523 1257.9232,-220.7233"/>
</g>
<!-- Node236 -->
<g id="node35" class="node">
<title>Node236</title>
<g id="a_node35"><a xlink:href="TransformConstraint_8h.html" target="_top" xlink:title="TransformConstraint.h">
<polygon fill="none" stroke="#ff0000" points="969.7654,-168.5 969.7654,-187.5 1094.7654,-187.5 1094.7654,-168.5 969.7654,-168.5"/>
<text text-anchor="middle" x="1032.2654" y="-175.5" font-family="FreeSans.ttf" font-size="10.00" fill="#000000">TransformConstraint.h</text>
</a>
</g>
</g>
<!-- Node230&#45;&gt;Node236 -->
<g id="edge64" class="edge">
<title>Node230&#45;&gt;Node236</title>
<path fill="none" stroke="#191970" d="M1232.0924,-223.3049C1186.5238,-212.9735 1118.1494,-197.4717 1074.3723,-187.5465"/>
<polygon fill="#191970" stroke="#191970" points="1231.4932,-226.7578 1242.0196,-225.5556 1233.041,-219.9311 1231.4932,-226.7578"/>
</g>
<!-- Node237 -->
<g id="node36" class="node">
<title>Node237</title>
<g id="a_node36"><a xlink:href="TransformConstraint_8cpp.html" target="_top" xlink:title="TransformConstraint.cpp">
<polygon fill="none" stroke="#000000" points="886.2654,-112.5 886.2654,-131.5 1022.2654,-131.5 1022.2654,-112.5 886.2654,-112.5"/>
<text text-anchor="middle" x="954.2654" y="-119.5" font-family="FreeSans.ttf" font-size="10.00" fill="#000000">TransformConstraint.cpp</text>
</a>
</g>
</g>
<!-- Node230&#45;&gt;Node237 -->
<g id="edge67" class="edge">
<title>Node230&#45;&gt;Node237</title>
<path fill="none" stroke="#191970" d="M1239.706,-221.2645C1213.3008,-212.5075 1177.9291,-200.2822 1147.2654,-188 1127.3246,-180.0128 1123.3464,-175.6282 1103.2654,-168 1065.05,-153.483 1020.0774,-140.0874 989.6147,-131.541"/>
<polygon fill="#191970" stroke="#191970" points="1238.7655,-224.6396 1249.3585,-224.4437 1240.9554,-217.9909 1238.7655,-224.6396"/>
</g>
<!-- Node120 -->
<g id="node37" class="node">
<title>Node120</title>
<g id="a_node37"><a xlink:href="DenavitHartenberg_8h.html" target="_top" xlink:title="DenavitHartenberg.h">
<polygon fill="none" stroke="#ff0000" points="762.7654,-56.5 762.7654,-75.5 881.7654,-75.5 881.7654,-56.5 762.7654,-56.5"/>
<text text-anchor="middle" x="822.2654" y="-63.5" font-family="FreeSans.ttf" font-size="10.00" fill="#000000">DenavitHartenberg.h</text>
</a>
</g>
</g>
<!-- Node230&#45;&gt;Node120 -->
<g id="edge68" class="edge">
<title>Node230&#45;&gt;Node120</title>
<path fill="none" stroke="#191970" d="M1231.7228,-229.5645C1155.3995,-222.0391 1009.1505,-205.8393 960.2654,-188 938.1372,-179.9249 887.512,-148.0443 870.2654,-132 851.8007,-114.8224 835.8074,-89.6241 827.7757,-75.8635"/>
<polygon fill="#191970" stroke="#191970" points="1231.7182,-233.0805 1242.0108,-230.568 1232.3979,-226.1136 1231.7182,-233.0805"/>
</g>
<!-- Node239 -->
<g id="node38" class="node">
<title>Node239</title>
<g id="a_node38"><a xlink:href="FixedJoint_8h.html" target="_top" xlink:title="FixedJoint.h">
<polygon fill="none" stroke="#ff0000" points="698.7654,-168.5 698.7654,-187.5 771.7654,-187.5 771.7654,-168.5 698.7654,-168.5"/>
<text text-anchor="middle" x="735.2654" y="-175.5" font-family="FreeSans.ttf" font-size="10.00" fill="#000000">FixedJoint.h</text>
</a>
</g>
</g>
<!-- Node230&#45;&gt;Node239 -->
<g id="edge69" class="edge">
<title>Node230&#45;&gt;Node239</title>
<path fill="none" stroke="#191970" d="M1232.1033,-231.6494C1143.2645,-226.78 945.2095,-213.8232 780.2654,-188 777.5771,-187.5791 774.8092,-187.0937 772.0301,-186.5682"/>
<polygon fill="#191970" stroke="#191970" points="1231.9593,-235.1466 1242.1332,-232.19 1232.3362,-228.1567 1231.9593,-235.1466"/>
</g>
<!-- Node209 -->
<g id="node39" class="node">
<title>Node209</title>
<g id="a_node39"><a xlink:href="FreeFloatingState_8h.html" target="_top" xlink:title="FreeFloatingState.h">
<polygon fill="none" stroke="#ff0000" points="456.2654,-112.5 456.2654,-131.5 566.2654,-131.5 566.2654,-112.5 456.2654,-112.5"/>
<text text-anchor="middle" x="511.2654" y="-119.5" font-family="FreeSans.ttf" font-size="10.00" fill="#000000">FreeFloatingState.h</text>
</a>
</g>
</g>
<!-- Node230&#45;&gt;Node209 -->
<g id="edge70" class="edge">
<title>Node230&#45;&gt;Node209</title>
<path fill="none" stroke="#191970" d="M1232.0873,-233.5213C1043.5713,-231.3816 352.9944,-221.289 321.2654,-188 315.1326,-181.5656 315.7691,-174.9859 321.2654,-168 337.7919,-146.995 405.9006,-134.4244 455.8657,-127.8606"/>
<polygon fill="#191970" stroke="#191970" points="1232.1947,-237.0226 1242.2331,-233.6342 1232.2727,-230.023 1232.1947,-237.0226"/>
</g>
<!-- Node195 -->
<g id="node41" class="node">
<title>Node195</title>
<g id="a_node41"><a xlink:href="LinkState_8h.html" target="_top" xlink:title="LinkState.h">
<polygon fill="none" stroke="#ff0000" points="532.7654,-168.5 532.7654,-187.5 603.7654,-187.5 603.7654,-168.5 532.7654,-168.5"/>
<text text-anchor="middle" x="568.2654" y="-175.5" font-family="FreeSans.ttf" font-size="10.00" fill="#000000">LinkState.h</text>
</a>
</g>
</g>
<!-- Node230&#45;&gt;Node195 -->
<g id="edge73" class="edge">
<title>Node230&#45;&gt;Node195</title>
<path fill="none" stroke="#191970" d="M1231.8815,-232.7815C1123.04,-229.5294 846.9403,-218.6962 618.2654,-188 613.6153,-187.3758 608.7476,-186.5814 603.9516,-185.7141"/>
<polygon fill="#191970" stroke="#191970" points="1232.0926,-236.289 1242.1903,-233.0816 1232.2964,-229.292 1232.0926,-236.289"/>
</g>
<!-- Node115 -->
<g id="node46" class="node">
<title>Node115</title>
<g id="a_node46"><a xlink:href="Model_8h.html" target="_top" xlink:title="Model.h">
<polygon fill="none" stroke="#ff0000" points="698.7654,-112.5 698.7654,-131.5 753.7654,-131.5 753.7654,-112.5 698.7654,-112.5"/>
<text text-anchor="middle" x="726.2654" y="-119.5" font-family="FreeSans.ttf" font-size="10.00" fill="#000000">Model.h</text>
</a>
</g>
</g>
<!-- Node230&#45;&gt;Node115 -->
<g id="edge84" class="edge">
<title>Node230&#45;&gt;Node115</title>
<path fill="none" stroke="#191970" d="M1231.7474,-232.0392C1094.7598,-226.1585 707.6247,-207.8463 689.2654,-188 673.2981,-170.7393 697.7497,-145.3488 713.9033,-131.6363"/>
<polygon fill="#191970" stroke="#191970" points="1231.7936,-235.5442 1241.9336,-232.4733 1232.0917,-228.5506 1231.7936,-235.5442"/>
</g>
<!-- Node240 -->
<g id="node47" class="node">
<title>Node240</title>
<g id="a_node47"><a xlink:href="SolidShapes_8h.html" target="_top" xlink:title="SolidShapes.h">
<polygon fill="none" stroke="#ff0000" points="789.7654,-168.5 789.7654,-187.5 874.7654,-187.5 874.7654,-168.5 789.7654,-168.5"/>
<text text-anchor="middle" x="832.2654" y="-175.5" font-family="FreeSans.ttf" font-size="10.00" fill="#000000">SolidShapes.h</text>
</a>
</g>
</g>
<!-- Node230&#45;&gt;Node240 -->
<g id="edge92" class="edge">
<title>Node230&#45;&gt;Node240</title>
<path fill="none" stroke="#191970" d="M1231.753,-229.267C1158.1974,-221.7434 1012.3901,-206.047 889.2654,-188 884.5933,-187.3152 879.7154,-186.5447 874.8648,-185.7432"/>
<polygon fill="#191970" stroke="#191970" points="1231.7669,-232.7864 1242.07,-230.3171 1232.4758,-225.8224 1231.7669,-232.7864"/>
</g>
<!-- Node233&#45;&gt;Node23 -->
<g id="edge54" class="edge">
<title>Node233&#45;&gt;Node23</title>
<path fill="none" stroke="#191970" d="M2139.5196,-109.3235C2106.5091,-99.0536 2060.7238,-84.8093 2030.8048,-75.5011"/>
<polygon fill="#191970" stroke="#191970" points="2138.734,-112.7445 2149.3223,-112.3733 2140.8135,-106.0605 2138.734,-112.7445"/>
</g>
<!-- Node234&#45;&gt;Node24 -->
<g id="edge59" class="edge">
<title>Node234&#45;&gt;Node24</title>
<path fill="none" stroke="#191970" d="M2081.7972,-166.9422C2150.9975,-155.603 2247.718,-138.7064 2253.2654,-132 2274.8105,-105.9536 2228.7107,-86.3807 2192.1622,-75.5578"/>
<polygon fill="#191970" stroke="#191970" points="2081.1071,-163.5085 2071.8011,-168.5731 2082.2342,-170.4171 2081.1071,-163.5085"/>
</g>
<!-- Node234&#45;&gt;Node233 -->
<g id="edge56" class="edge">
<title>Node234&#45;&gt;Node233</title>
<path fill="none" stroke="#191970" d="M2050.694,-165.1905C2081.4728,-154.9309 2123.958,-140.7691 2151.7621,-131.5011"/>
<polygon fill="#191970" stroke="#191970" points="2049.5257,-161.8905 2041.1457,-168.3733 2051.7393,-168.5313 2049.5257,-161.8905"/>
</g>
<!-- Node234&#45;&gt;Node119 -->
<g id="edge57" class="edge">
<title>Node234&#45;&gt;Node119</title>
<path fill="none" stroke="#191970" d="M1942.7186,-168.4273C1878.8324,-159.4953 1781.5641,-145.5469 1697.2654,-132 1646.4766,-123.8382 1634.2447,-118.8734 1583.2654,-112 1435.8593,-92.1255 1262.1532,-77.882 1167.484,-70.8893"/>
<polygon fill="#191970" stroke="#191970" points="1942.2905,-171.9014 1952.6782,-169.8169 1943.2578,-164.9686 1942.2905,-171.9014"/>
</g>
<!-- Node119&#45;&gt;Node25 -->
<g id="edge58" class="edge">
<title>Node119&#45;&gt;Node25</title>
<path fill="none" stroke="#191970" d="M1123.4341,-51.0465C1140.8713,-41.0824 1163.2766,-28.2794 1178.3908,-19.6427"/>
<polygon fill="#191970" stroke="#191970" points="1121.2817,-48.2453 1114.3357,-56.2455 1124.7547,-54.323 1121.2817,-48.2453"/>
</g>
<!-- Node229&#45;&gt;Node25 -->
<g id="edge62" class="edge">
<title>Node229&#45;&gt;Node25</title>
<path fill="none" stroke="#191970" d="M1159.1548,-104.2269C1165.073,-95.9962 1171.6594,-85.8694 1176.2654,-76 1185.1404,-56.9833 1190.7928,-32.9193 1193.4588,-19.7363"/>
<polygon fill="#191970" stroke="#191970" points="1156.297,-102.2044 1153.1206,-112.3119 1161.9068,-106.3913 1156.297,-102.2044"/>
</g>
<!-- Node229&#45;&gt;Node119 -->
<g id="edge61" class="edge">
<title>Node229&#45;&gt;Node119</title>
<path fill="none" stroke="#191970" d="M1130.2658,-104.5004C1122.1033,-94.9775 1112.3166,-83.5596 1105.5306,-75.6427"/>
<polygon fill="#191970" stroke="#191970" points="1127.7391,-106.9307 1136.9045,-112.2455 1133.0539,-102.3752 1127.7391,-106.9307"/>
</g>
<!-- Node236&#45;&gt;Node25 -->
<g id="edge65" class="edge">
<title>Node236&#45;&gt;Node25</title>
<path fill="none" stroke="#191970" d="M965.1117,-166.2949C928.4144,-158.3828 888.238,-146.7019 877.2654,-132 871.9488,-124.8764 872.2731,-119.3545 877.2654,-112 907.0202,-68.1669 1056.3479,-34.936 1139.3669,-19.5078"/>
<polygon fill="#191970" stroke="#191970" points="964.8392,-169.8132 975.3428,-168.4259 966.2666,-162.9603 964.8392,-169.8132"/>
</g>
<!-- Node236&#45;&gt;Node237 -->
<g id="edge66" class="edge">
<title>Node236&#45;&gt;Node237</title>
<path fill="none" stroke="#191970" d="M1010.2718,-162.2097C996.5725,-152.3743 979.3918,-140.0394 967.6963,-131.6427"/>
<polygon fill="#191970" stroke="#191970" points="1008.5144,-165.2566 1018.6789,-168.2455 1012.5969,-159.5703 1008.5144,-165.2566"/>
</g>
<!-- Node209&#45;&gt;Node74 -->
<g id="edge72" class="edge">
<title>Node209&#45;&gt;Node74</title>
<path fill="none" stroke="#191970" d="M512.3284,-102.1575C512.8107,-93.155 513.359,-82.9199 513.7489,-75.6427"/>
<polygon fill="#191970" stroke="#191970" points="508.8281,-102.0726 511.788,-112.2455 515.818,-102.4471 508.8281,-102.0726"/>
</g>
<!-- Node209&#45;&gt;Node150 -->
<g id="edge71" class="edge">
<title>Node209&#45;&gt;Node150</title>
<path fill="none" stroke="#191970" d="M449.933,-110.6216C400.1553,-101.3651 328.1652,-87.9288 265.2654,-76 262.3751,-75.4519 259.3949,-74.8845 256.3924,-74.3113"/>
<polygon fill="#191970" stroke="#191970" points="449.4233,-114.0868 459.8946,-112.4734 450.7027,-107.2047 449.4233,-114.0868"/>
</g>
<!-- Node195&#45;&gt;Node28 -->
<g id="edge81" class="edge">
<title>Node195&#45;&gt;Node28</title>
<path fill="none" stroke="#191970" d="M614.0056,-174.0582C636.643,-172.1485 664.3847,-169.8699 689.2654,-168 925.5842,-150.24 991.7334,-190.9662 1221.2654,-132 1241.6797,-126.7556 1243.9404,-117.5802 1264.2654,-112 1339.1723,-91.4345 1565.074,-75.481 1668.0708,-69.0675"/>
<polygon fill="#191970" stroke="#191970" points="613.6611,-170.5747 603.9925,-174.9068 614.2524,-177.5497 613.6611,-170.5747"/>
</g>
<!-- Node195&#45;&gt;Node36 -->
<g id="edge82" class="edge">
<title>Node195&#45;&gt;Node36</title>
<path fill="none" stroke="#191970" d="M614.0022,-174.0121C636.6388,-172.0914 664.3807,-169.8167 689.2654,-168 815.4052,-158.7911 1135.1544,-164.9385 1257.2654,-132 1276.4557,-126.8236 1278.1038,-117.2814 1297.2654,-112 1505.2165,-54.6839 1567.1035,-101.7575 1781.2654,-76 1784.306,-75.6343 1787.4277,-75.2231 1790.5731,-74.7815"/>
<polygon fill="#191970" stroke="#191970" points="613.6556,-170.5289 603.9895,-174.8668 614.251,-177.5035 613.6556,-170.5289"/>
</g>
<!-- Node195&#45;&gt;Node74 -->
<g id="edge77" class="edge">
<title>Node195&#45;&gt;Node74</title>
<path fill="none" stroke="#191970" d="M575.6681,-158.6532C579.6747,-144.9423 582.4841,-126.4847 575.2654,-112 566.9827,-95.3801 549.5158,-83.1809 535.387,-75.5378"/>
<polygon fill="#191970" stroke="#191970" points="572.2386,-157.8709 572.3668,-168.4649 578.8731,-160.1032 572.2386,-157.8709"/>
</g>
<!-- Node195&#45;&gt;Node117 -->
<g id="edge76" class="edge">
<title>Node195&#45;&gt;Node117</title>
<path fill="none" stroke="#191970" d="M584.0589,-161.1536C606.4111,-137.3113 646.5321,-94.5156 664.3359,-75.5249"/>
<polygon fill="#191970" stroke="#191970" points="581.5037,-158.7617 577.2177,-168.4509 586.6105,-163.5493 581.5037,-158.7617"/>
</g>
<!-- Node195&#45;&gt;Node209 -->
<g id="edge80" class="edge">
<title>Node195&#45;&gt;Node209</title>
<path fill="none" stroke="#191970" d="M551.0384,-161.0751C541.2314,-151.4402 529.3014,-139.7196 521.0803,-131.6427"/>
<polygon fill="#191970" stroke="#191970" points="548.7505,-163.734 558.3368,-168.2455 553.6563,-158.7406 548.7505,-163.734"/>
</g>
<!-- Node195&#45;&gt;Node150 -->
<g id="edge74" class="edge">
<title>Node195&#45;&gt;Node150</title>
<path fill="none" stroke="#191970" d="M531.0182,-165.0476C506.8679,-156.3548 474.8775,-144.2835 447.2654,-132 429.4675,-124.0824 426.5456,-118.7299 408.2654,-112 380.7649,-101.8755 304.9862,-85.1503 256.397,-74.8999"/>
<polygon fill="#191970" stroke="#191970" points="529.9272,-168.3744 540.5218,-168.4399 532.2804,-161.7818 529.9272,-168.3744"/>
</g>
<!-- Node195&#45;&gt;Node196 -->
<g id="edge75" class="edge">
<title>Node195&#45;&gt;Node196</title>
<path fill="none" stroke="#191970" d="M522.2959,-168.263C476.0107,-162.351 298.9013,-142.884 191.6785,-131.1314"/>
<polygon fill="#191970" stroke="#191970" points="522.0853,-171.7673 532.4723,-169.6792 523.0502,-164.8342 522.0853,-171.7673"/>
</g>
<!-- Node195&#45;&gt;Node194 -->
<g id="edge78" class="edge">
<title>Node195&#45;&gt;Node194</title>
<path fill="none" stroke="#191970" d="M522.967,-166.3637C482.8764,-156.0652 425.0726,-141.2165 387.5871,-131.5872"/>
<polygon fill="#191970" stroke="#191970" points="522.1984,-169.7798 532.7548,-168.878 523.9401,-163 522.1984,-169.7798"/>
</g>
<!-- Node195&#45;&gt;Node212 -->
<g id="edge83" class="edge">
<title>Node195&#45;&gt;Node212</title>
<path fill="none" stroke="#191970" d="M522.5293,-167.9645C419.0267,-148.8127 390.7006,-150.7428 291.2654,-132 288.5915,-131.496 285.834,-130.9494 283.0624,-130.3806"/>
<polygon fill="#191970" stroke="#191970" points="521.9738,-171.4212 532.4471,-169.8211 523.2619,-164.5408 521.9738,-171.4212"/>
</g>
<!-- Node194&#45;&gt;Node118 -->
<g id="edge79" class="edge">
<title>Node194&#45;&gt;Node118</title>
<path fill="none" stroke="#191970" d="M350.2654,-102.1575C350.2654,-93.155 350.2654,-82.9199 350.2654,-75.6427"/>
<polygon fill="#191970" stroke="#191970" points="346.7655,-102.2455 350.2654,-112.2455 353.7655,-102.2456 346.7655,-102.2455"/>
</g>
<!-- Node115&#45;&gt;Node74 -->
<g id="edge86" class="edge">
<title>Node115&#45;&gt;Node74</title>
<path fill="none" stroke="#191970" d="M688.6353,-112.06C649.6079,-101.7508 589.0122,-85.7444 550.5063,-75.573"/>
<polygon fill="#191970" stroke="#191970" points="687.9879,-115.5089 698.5501,-114.679 689.7757,-108.7411 687.9879,-115.5089"/>
</g>
<!-- Node115&#45;&gt;Node117 -->
<g id="edge85" class="edge">
<title>Node115&#45;&gt;Node117</title>
<path fill="none" stroke="#191970" d="M709.9759,-104.7884C700.9092,-95.2085 689.9601,-83.6396 682.3915,-75.6427"/>
<polygon fill="#191970" stroke="#191970" points="707.6176,-107.3884 717.0336,-112.2455 712.7017,-102.5767 707.6176,-107.3884"/>
</g>
<!-- Node115&#45;&gt;Node119 -->
<g id="edge88" class="edge">
<title>Node115&#45;&gt;Node119</title>
<path fill="none" stroke="#191970" d="M763.8247,-116.3307C827.3463,-106.7425 956.6351,-87.2272 1034.2343,-75.5141"/>
<polygon fill="#191970" stroke="#191970" points="763.2132,-112.8832 753.8476,-117.8366 764.2581,-119.8048 763.2132,-112.8832"/>
</g>
<!-- Node115&#45;&gt;Node120 -->
<g id="edge89" class="edge">
<title>Node115&#45;&gt;Node120</title>
<path fill="none" stroke="#191970" d="M751.9,-107.0465C768.9814,-97.0824 790.9294,-84.2794 805.7351,-75.6427"/>
<polygon fill="#191970" stroke="#191970" points="749.8616,-104.1836 742.9874,-112.2455 753.3887,-110.23 749.8616,-104.1836"/>
</g>
<!-- Node115&#45;&gt;Node118 -->
<g id="edge87" class="edge">
<title>Node115&#45;&gt;Node118</title>
<path fill="none" stroke="#191970" d="M688.5355,-116.3806C624.3149,-106.8159 493.0768,-87.2698 414.28,-75.5341"/>
<polygon fill="#191970" stroke="#191970" points="688.2107,-119.8708 698.6173,-117.8822 689.242,-112.9472 688.2107,-119.8708"/>
</g>
<!-- Node240&#45;&gt;Node115 -->
<g id="edge93" class="edge">
<title>Node240&#45;&gt;Node115</title>
<path fill="none" stroke="#191970" d="M804.7433,-163.46C785.7746,-153.4388 761.0927,-140.3993 744.5177,-131.6427"/>
<polygon fill="#191970" stroke="#191970" points="803.3248,-166.669 813.8017,-168.2455 806.5947,-160.4796 803.3248,-166.669"/>
</g>
</g>
</svg>
