<?xml version="1.0" encoding="UTF-8" standalone="no"?>
<!DOCTYPE svg PUBLIC "-//W3C//DTD SVG 1.1//EN"
 "http://www.w3.org/Graphics/SVG/1.1/DTD/svg11.dtd">
<!-- Generated by graphviz version 2.40.1 (20161225.0304)
 -->
<!-- Title: RobotElement.h Pages: 1 -->
<svg width="1711pt" height="532pt"
 viewBox="0.00 0.00 1711.42 532.00" xmlns="http://www.w3.org/2000/svg" xmlns:xlink="http://www.w3.org/1999/xlink">
<g id="graph0" class="graph" transform="scale(1 1) rotate(0) translate(4 528)">
<title>RobotElement.h</title>
<!-- Node0 -->
<g id="node1" class="node">
<title>Node0</title>
<polygon fill="#bfbfbf" stroke="#000000" points="783.5,-504.5 783.5,-523.5 877.5,-523.5 877.5,-504.5 783.5,-504.5"/>
<text text-anchor="middle" x="830.5" y="-511.5" font-family="FreeSans.ttf" font-size="10.00" fill="#000000">RobotElement.h</text>
</g>
<!-- Node1 -->
<g id="node2" class="node">
<title>Node1</title>
<g id="a_node2"><a xlink:href="XMLElement_8h.html" target="_top" xlink:title="iDynTree/XMLElement.h">
<polygon fill="none" stroke="#000000" points="730.5,-336.5 730.5,-355.5 862.5,-355.5 862.5,-336.5 730.5,-336.5"/>
<text text-anchor="middle" x="796.5" y="-343.5" font-family="FreeSans.ttf" font-size="10.00" fill="#000000">iDynTree/XMLElement.h</text>
</a>
</g>
</g>
<!-- Node0&#45;&gt;Node1 -->
<g id="edge1" class="edge">
<title>Node0&#45;&gt;Node1</title>
<path fill="none" stroke="#191970" d="M828.5039,-504.4431C824.7397,-486.3898 816.3543,-446.0297 809.5,-412 806.3653,-396.4371 802.8941,-378.7924 800.3277,-365.6649"/>
<polygon fill="#191970" stroke="#191970" points="803.7621,-364.99 798.4119,-355.8452 796.8916,-366.3304 803.7621,-364.99"/>
</g>
<!-- Node5 -->
<g id="node6" class="node">
<title>Node5</title>
<polygon fill="none" stroke="#bfbfbf" points="368,-280.5 368,-299.5 461,-299.5 461,-280.5 368,-280.5"/>
<text text-anchor="middle" x="414.5" y="-287.5" font-family="FreeSans.ttf" font-size="10.00" fill="#000000">unordered_map</text>
</g>
<!-- Node0&#45;&gt;Node5 -->
<g id="edge85" class="edge">
<title>Node0&#45;&gt;Node5</title>
<path fill="none" stroke="#191970" d="M783.3515,-507.5748C702.7415,-494.1257 538.1812,-455.5443 445.5,-356 433.1265,-342.7102 424.8867,-323.5931 420.0329,-309.3509"/>
<polygon fill="#191970" stroke="#191970" points="423.3026,-308.0805 416.9688,-299.5873 416.6237,-310.1766 423.3026,-308.0805"/>
</g>
<!-- Node6 -->
<g id="node7" class="node">
<title>Node6</title>
<polygon fill="none" stroke="#bfbfbf" points="1495,-280.5 1495,-299.5 1542,-299.5 1542,-280.5 1495,-280.5"/>
<text text-anchor="middle" x="1518.5" y="-287.5" font-family="FreeSans.ttf" font-size="10.00" fill="#000000">vector</text>
</g>
<!-- Node0&#45;&gt;Node6 -->
<g id="edge86" class="edge">
<title>Node0&#45;&gt;Node6</title>
<path fill="none" stroke="#191970" d="M877.5078,-512.0359C1049.9551,-504.3566 1640.6503,-473.6975 1695.5,-412 1719.395,-385.1218 1682.6976,-355.04 1657.5,-336 1626.2061,-312.3534 1582.1362,-300.5006 1552.0617,-294.8151"/>
<polygon fill="#191970" stroke="#191970" points="1552.507,-291.3398 1542.0515,-293.0521 1551.2928,-298.2337 1552.507,-291.3398"/>
</g>
<!-- Node7 -->
<g id="node8" class="node">
<title>Node7</title>
<g id="a_node8"><a xlink:href="JointElement_8h.html" target="_top" xlink:title="JointElement.h">
<polygon fill="none" stroke="#000000" points="655.5,-392.5 655.5,-411.5 743.5,-411.5 743.5,-392.5 655.5,-392.5"/>
<text text-anchor="middle" x="699.5" y="-399.5" font-family="FreeSans.ttf" font-size="10.00" fill="#000000">JointElement.h</text>
</a>
</g>
</g>
<!-- Node0&#45;&gt;Node7 -->
<g id="edge7" class="edge">
<title>Node0&#45;&gt;Node7</title>
<path fill="none" stroke="#191970" d="M812.1117,-504.3701C796.7218,-495.8663 774.598,-482.5793 757.5,-468 740.3902,-453.4106 723.7542,-433.7401 712.7192,-419.6771"/>
<polygon fill="#191970" stroke="#191970" points="715.4877,-417.5357 706.6179,-411.741 709.9382,-421.8022 715.4877,-417.5357"/>
</g>
<!-- Node34 -->
<g id="node35" class="node">
<title>Node34</title>
<g id="a_node35"><a xlink:href="MaterialElement_8h.html" target="_top" xlink:title="MaterialElement.h">
<polygon fill="none" stroke="#000000" points="837.5,-392.5 837.5,-411.5 943.5,-411.5 943.5,-392.5 837.5,-392.5"/>
<text text-anchor="middle" x="890.5" y="-399.5" font-family="FreeSans.ttf" font-size="10.00" fill="#000000">MaterialElement.h</text>
</a>
</g>
</g>
<!-- Node0&#45;&gt;Node34 -->
<g id="edge65" class="edge">
<title>Node0&#45;&gt;Node34</title>
<path fill="none" stroke="#191970" d="M835.6156,-504.4509C845.5786,-485.8533 867.7365,-444.4919 880.6448,-420.3964"/>
<polygon fill="#191970" stroke="#191970" points="883.7603,-421.9925 885.3974,-411.5249 877.5899,-418.6869 883.7603,-421.9925"/>
</g>
<!-- Node35 -->
<g id="node36" class="node">
<title>Node35</title>
<g id="a_node36"><a xlink:href="VisualElement_8h.html" target="_top" xlink:title="VisualElement.h">
<polygon fill="none" stroke="#000000" points="923.5,-448.5 923.5,-467.5 1019.5,-467.5 1019.5,-448.5 923.5,-448.5"/>
<text text-anchor="middle" x="971.5" y="-455.5" font-family="FreeSans.ttf" font-size="10.00" fill="#000000">VisualElement.h</text>
</a>
</g>
</g>
<!-- Node0&#45;&gt;Node35 -->
<g id="edge70" class="edge">
<title>Node0&#45;&gt;Node35</title>
<path fill="none" stroke="#191970" d="M854.7388,-504.3733C877.7789,-495.2226 912.6214,-481.3844 938.2501,-471.2057"/>
<polygon fill="#191970" stroke="#191970" points="939.5756,-474.4452 947.5775,-467.5011 936.9918,-467.9395 939.5756,-474.4452"/>
</g>
<!-- Node2 -->
<g id="node3" class="node">
<title>Node2</title>
<polygon fill="none" stroke="#bfbfbf" points="693,-280.5 693,-299.5 758,-299.5 758,-280.5 693,-280.5"/>
<text text-anchor="middle" x="725.5" y="-287.5" font-family="FreeSans.ttf" font-size="10.00" fill="#000000">functional</text>
</g>
<!-- Node1&#45;&gt;Node2 -->
<g id="edge2" class="edge">
<title>Node1&#45;&gt;Node2</title>
<path fill="none" stroke="#191970" d="M784.1327,-336.2455C773.5446,-327.8943 758.0936,-315.7076 745.7107,-305.9408"/>
<polygon fill="#191970" stroke="#191970" points="747.7447,-303.0875 737.7255,-299.6427 743.4097,-308.5837 747.7447,-303.0875"/>
</g>
<!-- Node3 -->
<g id="node4" class="node">
<title>Node3</title>
<polygon fill="none" stroke="#bfbfbf" points="814.5,-280.5 814.5,-299.5 872.5,-299.5 872.5,-280.5 814.5,-280.5"/>
<text text-anchor="middle" x="843.5" y="-287.5" font-family="FreeSans.ttf" font-size="10.00" fill="#000000">memory</text>
</g>
<!-- Node1&#45;&gt;Node3 -->
<g id="edge3" class="edge">
<title>Node1&#45;&gt;Node3</title>
<path fill="none" stroke="#191970" d="M804.6868,-336.2455C811.3589,-328.2958 820.9479,-316.8706 828.9253,-307.3656"/>
<polygon fill="#191970" stroke="#191970" points="831.6592,-309.5525 835.407,-299.6427 826.2974,-305.0524 831.6592,-309.5525"/>
</g>
<!-- Node4 -->
<g id="node5" class="node">
<title>Node4</title>
<polygon fill="none" stroke="#bfbfbf" points="1197.5,-56.5 1197.5,-75.5 1241.5,-75.5 1241.5,-56.5 1197.5,-56.5"/>
<text text-anchor="middle" x="1219.5" y="-63.5" font-family="FreeSans.ttf" font-size="10.00" fill="#000000">string</text>
</g>
<!-- Node1&#45;&gt;Node4 -->
<g id="edge4" class="edge">
<title>Node1&#45;&gt;Node4</title>
<path fill="none" stroke="#191970" d="M796.0631,-336.0946C795.861,-322.7201 796.8839,-298.4396 805.5,-280 834.0014,-219.0032 848.2015,-199.8845 907.5,-168 999.0154,-118.7926 1043.5889,-174.2885 1138.5,-132 1164.4621,-120.4323 1188.9875,-98.3001 1204.1091,-82.8691"/>
<polygon fill="#191970" stroke="#191970" points="1206.7608,-85.1596 1211.1172,-75.5019 1201.689,-80.335 1206.7608,-85.1596"/>
</g>
<!-- Node1&#45;&gt;Node5 -->
<g id="edge5" class="edge">
<title>Node1&#45;&gt;Node5</title>
<path fill="none" stroke="#191970" d="M731.2659,-336.4369C658.1968,-325.7252 540.9215,-308.533 471.4252,-298.3451"/>
<polygon fill="#191970" stroke="#191970" points="471.5146,-294.8208 461.1127,-296.8333 470.4992,-301.7468 471.5146,-294.8208"/>
</g>
<!-- Node1&#45;&gt;Node6 -->
<g id="edge6" class="edge">
<title>Node1&#45;&gt;Node6</title>
<path fill="none" stroke="#191970" d="M862.808,-340.857C1012.5832,-329.2401 1372.7046,-301.3082 1484.686,-292.6227"/>
<polygon fill="#191970" stroke="#191970" points="1485.0335,-296.1063 1494.7329,-291.8434 1484.4922,-289.1273 1485.0335,-296.1063"/>
</g>
<!-- Node7&#45;&gt;Node1 -->
<g id="edge8" class="edge">
<title>Node7&#45;&gt;Node1</title>
<path fill="none" stroke="#191970" d="M716.3961,-392.2455C731.418,-383.5731 753.6043,-370.7645 770.821,-360.825"/>
<polygon fill="#191970" stroke="#191970" points="772.8871,-363.6737 779.7975,-355.6427 769.3872,-357.6114 772.8871,-363.6737"/>
</g>
<!-- Node7&#45;&gt;Node3 -->
<g id="edge62" class="edge">
<title>Node7&#45;&gt;Node3</title>
<path fill="none" stroke="#191970" d="M700.1806,-392.1459C701.6747,-377.9325 706.4283,-351.6684 721.5,-336 743.4855,-313.1442 777.9467,-301.5277 804.6436,-295.6942"/>
<polygon fill="#191970" stroke="#191970" points="805.3348,-299.1253 814.4531,-293.7302 803.9605,-292.2615 805.3348,-299.1253"/>
</g>
<!-- Node7&#45;&gt;Node4 -->
<g id="edge63" class="edge">
<title>Node7&#45;&gt;Node4</title>
<path fill="none" stroke="#191970" d="M694.5142,-392.3763C684.0499,-370.7248 662.4354,-317.17 683.5,-280 731.2647,-195.7158 779.4004,-200.9566 870.5,-168 968.2087,-132.6525 1003.2778,-165.8946 1101.5,-132 1106.393,-130.3115 1160.5785,-99.6079 1193.7962,-80.6806"/>
<polygon fill="#191970" stroke="#191970" points="1195.5978,-83.6824 1202.5509,-75.6884 1192.1302,-77.6016 1195.5978,-83.6824"/>
</g>
<!-- Node7&#45;&gt;Node5 -->
<g id="edge64" class="edge">
<title>Node7&#45;&gt;Node5</title>
<path fill="none" stroke="#191970" d="M655.3665,-396.0526C615.8629,-389.6392 557.0185,-377.3551 509.5,-356 480.8497,-343.1244 451.7468,-321.3457 433.4388,-306.3489"/>
<polygon fill="#191970" stroke="#191970" points="435.2844,-303.3298 425.3676,-299.6004 430.7942,-308.7 435.2844,-303.3298"/>
</g>
<!-- Node8 -->
<g id="node9" class="node">
<title>Node8</title>
<g id="a_node9"><a xlink:href="Axis_8h.html" target="_top" xlink:title="iDynTree/Core/Axis.h">
<polygon fill="none" stroke="#000000" points="518.5,-336.5 518.5,-355.5 636.5,-355.5 636.5,-336.5 518.5,-336.5"/>
<text text-anchor="middle" x="577.5" y="-343.5" font-family="FreeSans.ttf" font-size="10.00" fill="#000000">iDynTree/Core/Axis.h</text>
</a>
</g>
</g>
<!-- Node7&#45;&gt;Node8 -->
<g id="edge9" class="edge">
<title>Node7&#45;&gt;Node8</title>
<path fill="none" stroke="#191970" d="M678.5275,-392.3733C658.9433,-383.3838 629.5039,-369.8706 607.449,-359.7471"/>
<polygon fill="#191970" stroke="#191970" points="608.7473,-356.4919 598.1989,-355.5011 605.8271,-362.8538 608.7473,-356.4919"/>
</g>
<!-- Node32 -->
<g id="node33" class="node">
<title>Node32</title>
<g id="a_node33"><a xlink:href="Transform_8h.html" target="_top" xlink:title="iDynTree/Core/Transform.h">
<polygon fill="none" stroke="#000000" points="994.5,-336.5 994.5,-355.5 1140.5,-355.5 1140.5,-336.5 994.5,-336.5"/>
<text text-anchor="middle" x="1067.5" y="-343.5" font-family="FreeSans.ttf" font-size="10.00" fill="#000000">iDynTree/Core/Transform.h</text>
</a>
</g>
</g>
<!-- Node7&#45;&gt;Node32 -->
<g id="edge54" class="edge">
<title>Node7&#45;&gt;Node32</title>
<path fill="none" stroke="#191970" d="M743.5239,-395.3007C805.6572,-385.8456 919.8319,-368.4712 994.7009,-357.0781"/>
<polygon fill="#191970" stroke="#191970" points="995.6353,-360.4763 1004.9949,-355.5117 994.5821,-353.556 995.6353,-360.4763"/>
</g>
<!-- Node8&#45;&gt;Node4 -->
<g id="edge10" class="edge">
<title>Node8&#45;&gt;Node4</title>
<path fill="none" stroke="#191970" d="M584.1831,-336.3905C600.3277,-313.8199 643.7389,-256.854 692.5,-224 833.745,-128.8325 900.9777,-179.6178 1064.5,-132 1085.9042,-125.7671 1090.0079,-120.7785 1110.5,-112 1136.5326,-100.848 1166.143,-88.3647 1187.9253,-79.2193"/>
<polygon fill="#191970" stroke="#191970" points="1189.4741,-82.3651 1197.3415,-75.269 1186.7661,-75.9101 1189.4741,-82.3651"/>
</g>
<!-- Node9 -->
<g id="node10" class="node">
<title>Node9</title>
<g id="a_node10"><a xlink:href="Direction_8h.html" target="_top" xlink:title="iDynTree/Core/Direction.h">
<polygon fill="none" stroke="#000000" points="336,-168.5 336,-187.5 477,-187.5 477,-168.5 336,-168.5"/>
<text text-anchor="middle" x="406.5" y="-175.5" font-family="FreeSans.ttf" font-size="10.00" fill="#000000">iDynTree/Core/Direction.h</text>
</a>
</g>
</g>
<!-- Node8&#45;&gt;Node9 -->
<g id="edge11" class="edge">
<title>Node8&#45;&gt;Node9</title>
<path fill="none" stroke="#191970" d="M567.8163,-336.4862C539.9661,-309.1246 459.3805,-229.9528 423.7692,-194.9663"/>
<polygon fill="#191970" stroke="#191970" points="426.0897,-192.3394 416.5034,-187.8279 421.1839,-197.3328 426.0897,-192.3394"/>
</g>
<!-- Node11 -->
<g id="node12" class="node">
<title>Node11</title>
<g id="a_node12"><a xlink:href="Utils_8h.html" target="_top" xlink:title="iDynTree/Core/Utils.h">
<polygon fill="none" stroke="#000000" points="476,-56.5 476,-75.5 595,-75.5 595,-56.5 476,-56.5"/>
<text text-anchor="middle" x="535.5" y="-63.5" font-family="FreeSans.ttf" font-size="10.00" fill="#000000">iDynTree/Core/Utils.h</text>
</a>
</g>
</g>
<!-- Node8&#45;&gt;Node11 -->
<g id="edge53" class="edge">
<title>Node8&#45;&gt;Node11</title>
<path fill="none" stroke="#191970" d="M561.798,-336.4016C495.5649,-295.8789 242.1884,-140.4907 237.5,-132 233.2033,-124.2186 231.7139,-118.7478 237.5,-112 252.1793,-94.8809 382.1094,-79.9667 465.4896,-72.0451"/>
<polygon fill="#191970" stroke="#191970" points="466.0385,-75.5091 475.6681,-71.0908 465.385,-68.5397 466.0385,-75.5091"/>
</g>
<!-- Node24 -->
<g id="node25" class="node">
<title>Node24</title>
<g id="a_node25"><a xlink:href="Position_8h.html" target="_top" xlink:title="iDynTree/Core/Position.h">
<polygon fill="none" stroke="#000000" points="1042.5,-280.5 1042.5,-299.5 1178.5,-299.5 1178.5,-280.5 1042.5,-280.5"/>
<text text-anchor="middle" x="1110.5" y="-287.5" font-family="FreeSans.ttf" font-size="10.00" fill="#000000">iDynTree/Core/Position.h</text>
</a>
</g>
</g>
<!-- Node8&#45;&gt;Node24 -->
<g id="edge31" class="edge">
<title>Node8&#45;&gt;Node24</title>
<path fill="none" stroke="#191970" d="M636.5768,-339.7931C733.0717,-329.6548 924.5153,-309.5406 1032.2082,-298.2258"/>
<polygon fill="#191970" stroke="#191970" points="1032.7832,-301.6847 1042.3627,-297.1589 1032.0517,-294.723 1032.7832,-301.6847"/>
</g>
<!-- Node9&#45;&gt;Node4 -->
<g id="edge12" class="edge">
<title>Node9&#45;&gt;Node4</title>
<path fill="none" stroke="#191970" d="M477.0647,-174.226C628.9172,-165.8968 977.2168,-145.6026 1029.5,-132 1049.8981,-126.693 1052.8439,-119.6083 1072.5,-112 1111.3159,-96.9754 1157.2724,-83.2162 1187.3377,-74.7376"/>
<polygon fill="#191970" stroke="#191970" points="1188.5804,-78.0246 1197.2716,-71.9655 1186.6988,-71.2822 1188.5804,-78.0246"/>
</g>
<!-- Node10 -->
<g id="node11" class="node">
<title>Node10</title>
<g id="a_node11"><a xlink:href="VectorFixSize_8h.html" target="_top" xlink:title="iDynTree/Core/VectorFixSize.h">
<polygon fill="none" stroke="#000000" points="258,-112.5 258,-131.5 419,-131.5 419,-112.5 258,-112.5"/>
<text text-anchor="middle" x="338.5" y="-119.5" font-family="FreeSans.ttf" font-size="10.00" fill="#000000">iDynTree/Core/VectorFixSize.h</text>
</a>
</g>
</g>
<!-- Node9&#45;&gt;Node10 -->
<g id="edge13" class="edge">
<title>Node9&#45;&gt;Node10</title>
<path fill="none" stroke="#191970" d="M394.6553,-168.2455C384.612,-159.9746 370.0005,-147.9416 358.1996,-138.2232"/>
<polygon fill="#191970" stroke="#191970" points="360.1533,-135.298 350.209,-131.6427 355.7033,-140.7015 360.1533,-135.298"/>
</g>
<!-- Node9&#45;&gt;Node11 -->
<g id="edge30" class="edge">
<title>Node9&#45;&gt;Node11</title>
<path fill="none" stroke="#191970" d="M335.7516,-171.3156C280.9895,-163.3724 219.0412,-146.5564 248.5,-112 262.4705,-95.612 385.4144,-80.6266 465.7945,-72.4596"/>
<polygon fill="#191970" stroke="#191970" points="466.262,-75.9304 475.8627,-71.4496 465.5632,-68.9653 466.262,-75.9304"/>
</g>
<!-- Node10&#45;&gt;Node4 -->
<g id="edge26" class="edge">
<title>Node10&#45;&gt;Node4</title>
<path fill="none" stroke="#191970" d="M419.011,-112.7571C421.8748,-112.491 424.7113,-112.2375 427.5,-112 722.046,-86.9171 1079.4013,-71.5593 1187.2102,-67.2505"/>
<polygon fill="#191970" stroke="#191970" points="1187.5686,-70.7392 1197.4221,-66.8458 1187.2913,-63.7447 1187.5686,-70.7392"/>
</g>
<!-- Node10&#45;&gt;Node11 -->
<g id="edge14" class="edge">
<title>Node10&#45;&gt;Node11</title>
<path fill="none" stroke="#191970" d="M372.3655,-112.3733C405.549,-102.9404 456.255,-88.5265 492.3194,-78.2747"/>
<polygon fill="#191970" stroke="#191970" points="493.4145,-81.6021 502.0764,-75.5011 491.5005,-74.8689 493.4145,-81.6021"/>
</g>
<!-- Node13 -->
<g id="node14" class="node">
<title>Node13</title>
<g id="a_node14"><a xlink:href="Span_8h.html" target="_top" xlink:title="iDynTree/Core/Span.h">
<polygon fill="none" stroke="#000000" points="277,-56.5 277,-75.5 398,-75.5 398,-56.5 277,-56.5"/>
<text text-anchor="middle" x="337.5" y="-63.5" font-family="FreeSans.ttf" font-size="10.00" fill="#000000">iDynTree/Core/Span.h</text>
</a>
</g>
</g>
<!-- Node10&#45;&gt;Node13 -->
<g id="edge16" class="edge">
<title>Node10&#45;&gt;Node13</title>
<path fill="none" stroke="#191970" d="M338.3258,-112.2455C338.1953,-104.9382 338.0124,-94.6944 337.8519,-85.7046"/>
<polygon fill="#191970" stroke="#191970" points="341.3503,-85.5786 337.6722,-75.6427 334.3514,-85.7036 341.3503,-85.5786"/>
</g>
<!-- Node14 -->
<g id="node15" class="node">
<title>Node14</title>
<polygon fill="none" stroke="#bfbfbf" points="581.5,-.5 581.5,-19.5 633.5,-19.5 633.5,-.5 581.5,-.5"/>
<text text-anchor="middle" x="607.5" y="-7.5" font-family="FreeSans.ttf" font-size="10.00" fill="#000000">cassert</text>
</g>
<!-- Node10&#45;&gt;Node14 -->
<g id="edge28" class="edge">
<title>Node10&#45;&gt;Node14</title>
<path fill="none" stroke="#191970" d="M355.0661,-112.3611C379.0779,-98.6455 425.2042,-73.2512 466.5,-56 501.4616,-41.3949 542.8176,-28.3815 571.6656,-19.9555"/>
<polygon fill="#191970" stroke="#191970" points="572.6787,-23.306 581.3168,-17.1714 570.7385,-16.5803 572.6787,-23.306"/>
</g>
<!-- Node22 -->
<g id="node23" class="node">
<title>Node22</title>
<polygon fill="none" stroke="#bfbfbf" points="768.5,-56.5 768.5,-75.5 824.5,-75.5 824.5,-56.5 768.5,-56.5"/>
<text text-anchor="middle" x="796.5" y="-63.5" font-family="FreeSans.ttf" font-size="10.00" fill="#000000">sstream</text>
</g>
<!-- Node10&#45;&gt;Node22 -->
<g id="edge27" class="edge">
<title>Node10&#45;&gt;Node22</title>
<path fill="none" stroke="#191970" d="M419.3982,-112.8313C516.1284,-101.8112 672.2655,-83.8263 730.5,-76 739.5128,-74.7887 749.2014,-73.3805 758.3046,-72.0098"/>
<polygon fill="#191970" stroke="#191970" points="758.9085,-75.4583 768.2666,-70.4908 757.8532,-68.5383 758.9085,-75.4583"/>
</g>
<!-- Node23 -->
<g id="node24" class="node">
<title>Node23</title>
<polygon fill="none" stroke="#bfbfbf" points="671.5,-56.5 671.5,-75.5 721.5,-75.5 721.5,-56.5 671.5,-56.5"/>
<text text-anchor="middle" x="696.5" y="-63.5" font-family="FreeSans.ttf" font-size="10.00" fill="#000000">cstring</text>
</g>
<!-- Node10&#45;&gt;Node23 -->
<g id="edge29" class="edge">
<title>Node10&#45;&gt;Node23</title>
<path fill="none" stroke="#191970" d="M399.6356,-112.4369C474.9604,-100.6542 600.4119,-81.0305 661.2571,-71.5129"/>
<polygon fill="#191970" stroke="#191970" points="661.8072,-74.9695 671.1461,-69.966 660.7253,-68.0536 661.8072,-74.9695"/>
</g>
<!-- Node12 -->
<g id="node13" class="node">
<title>Node12</title>
<polygon fill="none" stroke="#bfbfbf" points="510,-.5 510,-19.5 563,-19.5 563,-.5 510,-.5"/>
<text text-anchor="middle" x="536.5" y="-7.5" font-family="FreeSans.ttf" font-size="10.00" fill="#000000">cstddef</text>
</g>
<!-- Node11&#45;&gt;Node12 -->
<g id="edge15" class="edge">
<title>Node11&#45;&gt;Node12</title>
<path fill="none" stroke="#191970" d="M535.6742,-56.2455C535.8047,-48.9382 535.9876,-38.6944 536.1481,-29.7046"/>
<polygon fill="#191970" stroke="#191970" points="539.6486,-29.7036 536.3278,-19.6427 532.6497,-29.5786 539.6486,-29.7036"/>
</g>
<!-- Node13&#45;&gt;Node12 -->
<g id="edge20" class="edge">
<title>Node13&#45;&gt;Node12</title>
<path fill="none" stroke="#191970" d="M371.7093,-56.3733C407.4644,-46.3115 463.3586,-30.5825 499.9603,-20.2825"/>
<polygon fill="#191970" stroke="#191970" points="501.0615,-23.6087 509.7395,-17.5306 499.1652,-16.8704 501.0615,-23.6087"/>
</g>
<!-- Node13&#45;&gt;Node14 -->
<g id="edge17" class="edge">
<title>Node13&#45;&gt;Node14</title>
<path fill="none" stroke="#191970" d="M392.1297,-56.4883C439.7169,-47.9107 510.4633,-34.4541 571.5,-20 571.5986,-19.9766 571.6974,-19.9532 571.7963,-19.9297"/>
<polygon fill="#191970" stroke="#191970" points="572.3748,-23.3935 581.2142,-17.5528 570.6618,-16.6063 572.3748,-23.3935"/>
</g>
<!-- Node15 -->
<g id="node16" class="node">
<title>Node15</title>
<polygon fill="none" stroke="#bfbfbf" points="233.5,-.5 233.5,-19.5 297.5,-19.5 297.5,-.5 233.5,-.5"/>
<text text-anchor="middle" x="265.5" y="-7.5" font-family="FreeSans.ttf" font-size="10.00" fill="#000000">algorithm</text>
</g>
<!-- Node13&#45;&gt;Node15 -->
<g id="edge18" class="edge">
<title>Node13&#45;&gt;Node15</title>
<path fill="none" stroke="#191970" d="M324.9586,-56.2455C314.2213,-47.8943 298.5527,-35.7076 285.9953,-25.9408"/>
<polygon fill="#191970" stroke="#191970" points="287.9401,-23.0194 277.8977,-19.6427 283.6425,-28.5449 287.9401,-23.0194"/>
</g>
<!-- Node16 -->
<g id="node17" class="node">
<title>Node16</title>
<polygon fill="none" stroke="#bfbfbf" points="315.5,-.5 315.5,-19.5 357.5,-19.5 357.5,-.5 315.5,-.5"/>
<text text-anchor="middle" x="336.5" y="-7.5" font-family="FreeSans.ttf" font-size="10.00" fill="#000000">array</text>
</g>
<!-- Node13&#45;&gt;Node16 -->
<g id="edge19" class="edge">
<title>Node13&#45;&gt;Node16</title>
<path fill="none" stroke="#191970" d="M337.3258,-56.2455C337.1953,-48.9382 337.0124,-38.6944 336.8519,-29.7046"/>
<polygon fill="#191970" stroke="#191970" points="340.3503,-29.5786 336.6722,-19.6427 333.3514,-29.7036 340.3503,-29.5786"/>
</g>
<!-- Node17 -->
<g id="node18" class="node">
<title>Node17</title>
<polygon fill="none" stroke="#bfbfbf" points="376,-.5 376,-19.5 429,-19.5 429,-.5 376,-.5"/>
<text text-anchor="middle" x="402.5" y="-7.5" font-family="FreeSans.ttf" font-size="10.00" fill="#000000">iterator</text>
</g>
<!-- Node13&#45;&gt;Node17 -->
<g id="edge21" class="edge">
<title>Node13&#45;&gt;Node17</title>
<path fill="none" stroke="#191970" d="M348.8221,-56.2455C358.4223,-47.9746 372.3892,-35.9416 383.6695,-26.2232"/>
<polygon fill="#191970" stroke="#191970" points="386.016,-28.8214 391.3076,-19.6427 381.447,-23.5182 386.016,-28.8214"/>
</g>
<!-- Node18 -->
<g id="node19" class="node">
<title>Node18</title>
<polygon fill="none" stroke="#bfbfbf" points="447.5,-.5 447.5,-19.5 491.5,-19.5 491.5,-.5 447.5,-.5"/>
<text text-anchor="middle" x="469.5" y="-7.5" font-family="FreeSans.ttf" font-size="10.00" fill="#000000">limits</text>
</g>
<!-- Node13&#45;&gt;Node18 -->
<g id="edge22" class="edge">
<title>Node13&#45;&gt;Node18</title>
<path fill="none" stroke="#191970" d="M360.1916,-56.3733C381.5711,-47.3032 413.8057,-33.6279 437.7362,-23.4755"/>
<polygon fill="#191970" stroke="#191970" points="439.2656,-26.6287 447.1045,-19.5011 436.5317,-20.1846 439.2656,-26.6287"/>
</g>
<!-- Node19 -->
<g id="node20" class="node">
<title>Node19</title>
<polygon fill="none" stroke="#bfbfbf" points="0,-.5 0,-19.5 65,-19.5 65,-.5 0,-.5"/>
<text text-anchor="middle" x="32.5" y="-7.5" font-family="FreeSans.ttf" font-size="10.00" fill="#000000">stdexcept</text>
</g>
<!-- Node13&#45;&gt;Node19 -->
<g id="edge23" class="edge">
<title>Node13&#45;&gt;Node19</title>
<path fill="none" stroke="#191970" d="M276.992,-56.6349C225.6464,-48.4198 149.8099,-35.6585 75.1727,-20.2566"/>
<polygon fill="#191970" stroke="#191970" points="75.6325,-16.7774 65.1291,-18.1663 74.2061,-23.6305 75.6325,-16.7774"/>
</g>
<!-- Node20 -->
<g id="node21" class="node">
<title>Node20</title>
<polygon fill="none" stroke="#bfbfbf" points="83,-.5 83,-19.5 152,-19.5 152,-.5 83,-.5"/>
<text text-anchor="middle" x="117.5" y="-7.5" font-family="FreeSans.ttf" font-size="10.00" fill="#000000">type_traits</text>
</g>
<!-- Node13&#45;&gt;Node20 -->
<g id="edge24" class="edge">
<title>Node13&#45;&gt;Node20</title>
<path fill="none" stroke="#191970" d="M299.6807,-56.3733C261.5134,-46.6579 202.5886,-31.6589 162.1494,-21.3653"/>
<polygon fill="#191970" stroke="#191970" points="162.8448,-17.9308 152.2904,-18.8557 161.118,-24.7144 162.8448,-17.9308"/>
</g>
<!-- Node21 -->
<g id="node22" class="node">
<title>Node21</title>
<polygon fill="none" stroke="#bfbfbf" points="170,-.5 170,-19.5 215,-19.5 215,-.5 170,-.5"/>
<text text-anchor="middle" x="192.5" y="-7.5" font-family="FreeSans.ttf" font-size="10.00" fill="#000000">utility</text>
</g>
<!-- Node13&#45;&gt;Node21 -->
<g id="edge25" class="edge">
<title>Node13&#45;&gt;Node21</title>
<path fill="none" stroke="#191970" d="M312.5736,-56.3733C288.3054,-47.0007 251.3045,-32.7107 224.7934,-22.472"/>
<polygon fill="#191970" stroke="#191970" points="225.7843,-19.1027 215.1948,-18.7649 223.2623,-25.6327 225.7843,-19.1027"/>
</g>
<!-- Node24&#45;&gt;Node4 -->
<g id="edge52" class="edge">
<title>Node24&#45;&gt;Node4</title>
<path fill="none" stroke="#191970" d="M1178.5079,-285.3038C1237.0398,-279.6778 1315.0548,-267.8442 1334.5,-244 1357.7822,-215.4508 1405.6707,-236.9631 1308.5,-112 1294.2256,-93.6429 1270.5866,-81.9135 1251.2576,-74.896"/>
<polygon fill="#191970" stroke="#191970" points="1252.2092,-71.5234 1241.6151,-71.6457 1249.9732,-78.1566 1252.2092,-71.5234"/>
</g>
<!-- Node25 -->
<g id="node26" class="node">
<title>Node25</title>
<g id="a_node26"><a xlink:href="PositionRaw_8h.html" target="_top" xlink:title="iDynTree/Core/PositionRaw.h">
<polygon fill="none" stroke="#000000" points="916.5,-168.5 916.5,-187.5 1072.5,-187.5 1072.5,-168.5 916.5,-168.5"/>
<text text-anchor="middle" x="994.5" y="-175.5" font-family="FreeSans.ttf" font-size="10.00" fill="#000000">iDynTree/Core/PositionRaw.h</text>
</a>
</g>
</g>
<!-- Node24&#45;&gt;Node25 -->
<g id="edge32" class="edge">
<title>Node24&#45;&gt;Node25</title>
<path fill="none" stroke="#191970" d="M1110.1443,-280.3283C1109.1431,-266.342 1105.3944,-240.3582 1091.5,-224 1078.5707,-208.7782 1059.4701,-198.2398 1041.6298,-191.1312"/>
<polygon fill="#191970" stroke="#191970" points="1042.4885,-187.7169 1031.8954,-187.5268 1040.0579,-194.2814 1042.4885,-187.7169"/>
</g>
<!-- Node26 -->
<g id="node27" class="node">
<title>Node26</title>
<g id="a_node27"><a xlink:href="PositionSemantics_8h.html" target="_top" xlink:title="iDynTree/Core/PositionSemantics.h">
<polygon fill="none" stroke="#000000" points="1138,-224.5 1138,-243.5 1325,-243.5 1325,-224.5 1138,-224.5"/>
<text text-anchor="middle" x="1231.5" y="-231.5" font-family="FreeSans.ttf" font-size="10.00" fill="#000000">iDynTree/Core/PositionSemantics.h</text>
</a>
</g>
</g>
<!-- Node24&#45;&gt;Node26 -->
<g id="edge35" class="edge">
<title>Node24&#45;&gt;Node26</title>
<path fill="none" stroke="#191970" d="M1131.3006,-280.3733C1150.7243,-271.3838 1179.9224,-257.8706 1201.7964,-247.7471"/>
<polygon fill="#191970" stroke="#191970" points="1203.3656,-250.8776 1210.9708,-243.5011 1200.4255,-244.5249 1203.3656,-250.8776"/>
</g>
<!-- Node27 -->
<g id="node28" class="node">
<title>Node27</title>
<g id="a_node28"><a xlink:href="Rotation_8h.html" target="_top" xlink:title="iDynTree/Core/Rotation.h">
<polygon fill="none" stroke="#000000" points="945,-224.5 945,-243.5 1082,-243.5 1082,-224.5 945,-224.5"/>
<text text-anchor="middle" x="1013.5" y="-231.5" font-family="FreeSans.ttf" font-size="10.00" fill="#000000">iDynTree/Core/Rotation.h</text>
</a>
</g>
</g>
<!-- Node24&#45;&gt;Node27 -->
<g id="edge37" class="edge">
<title>Node24&#45;&gt;Node27</title>
<path fill="none" stroke="#191970" d="M1093.6039,-280.2455C1078.582,-271.5731 1056.3957,-258.7645 1039.179,-248.825"/>
<polygon fill="#191970" stroke="#191970" points="1040.6128,-245.6114 1030.2025,-243.6427 1037.1129,-251.6737 1040.6128,-245.6114"/>
</g>
<!-- Node25&#45;&gt;Node4 -->
<g id="edge34" class="edge">
<title>Node25&#45;&gt;Node4</title>
<path fill="none" stroke="#191970" d="M1050.6802,-168.438C1096.3609,-159.8286 1156.4139,-146.3536 1176.5,-132 1192.9536,-120.2422 1204.7463,-100.0461 1211.7728,-85.0833"/>
<polygon fill="#191970" stroke="#191970" points="1215.0643,-86.2924 1215.8745,-75.7286 1208.6535,-83.4814 1215.0643,-86.2924"/>
</g>
<!-- Node25&#45;&gt;Node10 -->
<g id="edge33" class="edge">
<title>Node25&#45;&gt;Node10</title>
<path fill="none" stroke="#191970" d="M916.4742,-172.4373C809.1224,-164.6123 609.5648,-149.4523 429.2254,-132.1439"/>
<polygon fill="#191970" stroke="#191970" points="429.3083,-128.6358 419.0185,-131.16 428.6365,-135.6035 429.3083,-128.6358"/>
</g>
<!-- Node26&#45;&gt;Node4 -->
<g id="edge36" class="edge">
<title>Node26&#45;&gt;Node4</title>
<path fill="none" stroke="#191970" d="M1251.6561,-224.4543C1265.3815,-216.7394 1282.4635,-204.4561 1290.5,-188 1305.3225,-157.6482 1306.6332,-141.6759 1290.5,-112 1282.0408,-96.4399 1265.7975,-85.3323 1250.9802,-77.935"/>
<polygon fill="#191970" stroke="#191970" points="1252.0933,-74.5947 1241.5453,-73.6001 1249.1709,-80.9555 1252.0933,-74.5947"/>
</g>
<!-- Node27&#45;&gt;Node4 -->
<g id="edge38" class="edge">
<title>Node27&#45;&gt;Node4</title>
<path fill="none" stroke="#191970" d="M1082.2691,-225.5525C1150.4337,-216.4741 1246.2883,-201.5229 1257.5,-188 1282.9583,-157.2937 1253.9104,-109.5388 1234.3625,-83.8306"/>
<polygon fill="#191970" stroke="#191970" points="1236.8975,-81.3935 1227.9493,-75.7207 1231.4068,-85.7355 1236.8975,-81.3935"/>
</g>
<!-- Node27&#45;&gt;Node10 -->
<g id="edge51" class="edge">
<title>Node27&#45;&gt;Node10</title>
<path fill="none" stroke="#191970" d="M968.9507,-224.4968C904.2803,-210.8905 780.5317,-185.5655 674.5,-168 591.0731,-154.1793 495.496,-141.3872 427.6624,-132.8199"/>
<polygon fill="#191970" stroke="#191970" points="427.7991,-129.3096 417.4404,-131.5343 426.9255,-136.2549 427.7991,-129.3096"/>
</g>
<!-- Node28 -->
<g id="node29" class="node">
<title>Node28</title>
<g id="a_node29"><a xlink:href="RotationRaw_8h.html" target="_top" xlink:title="iDynTree/Core/RotationRaw.h">
<polygon fill="none" stroke="#000000" points="1090.5,-168.5 1090.5,-187.5 1248.5,-187.5 1248.5,-168.5 1090.5,-168.5"/>
<text text-anchor="middle" x="1169.5" y="-175.5" font-family="FreeSans.ttf" font-size="10.00" fill="#000000">iDynTree/Core/RotationRaw.h</text>
</a>
</g>
</g>
<!-- Node27&#45;&gt;Node28 -->
<g id="edge39" class="edge">
<title>Node27&#45;&gt;Node28</title>
<path fill="none" stroke="#191970" d="M1040.3174,-224.3733C1066.0332,-215.1419 1105.038,-201.1402 1133.4599,-190.9375"/>
<polygon fill="#191970" stroke="#191970" points="1134.8032,-194.174 1143.0326,-187.5011 1132.4381,-187.5857 1134.8032,-194.174"/>
</g>
<!-- Node31 -->
<g id="node32" class="node">
<title>Node31</title>
<g id="a_node32"><a xlink:href="RotationSemantics_8h.html" target="_top" xlink:title="iDynTree/Core/RotationSemantics.h">
<polygon fill="none" stroke="#000000" points="652.5,-112.5 652.5,-131.5 840.5,-131.5 840.5,-112.5 652.5,-112.5"/>
<text text-anchor="middle" x="746.5" y="-119.5" font-family="FreeSans.ttf" font-size="10.00" fill="#000000">iDynTree/Core/RotationSemantics.h</text>
</a>
</g>
</g>
<!-- Node27&#45;&gt;Node31 -->
<g id="edge48" class="edge">
<title>Node27&#45;&gt;Node31</title>
<path fill="none" stroke="#191970" d="M990.7357,-224.4509C943.2476,-204.5308 833.4997,-158.4942 778.7602,-135.5323"/>
<polygon fill="#191970" stroke="#191970" points="779.7821,-132.1656 769.2067,-131.5249 777.0743,-138.6207 779.7821,-132.1656"/>
</g>
<!-- Node28&#45;&gt;Node4 -->
<g id="edge47" class="edge">
<title>Node28&#45;&gt;Node4</title>
<path fill="none" stroke="#191970" d="M1183.1293,-168.3897C1193.7073,-160.0844 1207.6823,-147.0635 1214.5,-132 1221.015,-117.6053 1221.9739,-99.6336 1221.4657,-86.08"/>
<polygon fill="#191970" stroke="#191970" points="1224.945,-85.6529 1220.7834,-75.9096 1217.9607,-86.1215 1224.945,-85.6529"/>
</g>
<!-- Node29 -->
<g id="node30" class="node">
<title>Node29</title>
<g id="a_node30"><a xlink:href="MatrixFixSize_8h.html" target="_top" xlink:title="iDynTree/Core/MatrixFixSize.h">
<polygon fill="none" stroke="#000000" points="859,-112.5 859,-131.5 1020,-131.5 1020,-112.5 859,-112.5"/>
<text text-anchor="middle" x="939.5" y="-119.5" font-family="FreeSans.ttf" font-size="10.00" fill="#000000">iDynTree/Core/MatrixFixSize.h</text>
</a>
</g>
</g>
<!-- Node28&#45;&gt;Node29 -->
<g id="edge40" class="edge">
<title>Node28&#45;&gt;Node29</title>
<path fill="none" stroke="#191970" d="M1130.2229,-168.4369C1091.0256,-158.8932 1030.7,-144.2052 988.4165,-133.9101"/>
<polygon fill="#191970" stroke="#191970" points="989.1592,-130.4888 978.6151,-131.5237 987.5032,-137.2901 989.1592,-130.4888"/>
</g>
<!-- Node29&#45;&gt;Node4 -->
<g id="edge44" class="edge">
<title>Node29&#45;&gt;Node4</title>
<path fill="none" stroke="#191970" d="M987.3156,-112.4369C1044.3581,-101.0284 1138.1557,-82.2689 1187.2525,-72.4495"/>
<polygon fill="#191970" stroke="#191970" points="1188.1864,-75.8321 1197.3058,-70.4388 1186.8136,-68.968 1188.1864,-75.8321"/>
</g>
<!-- Node29&#45;&gt;Node11 -->
<g id="edge41" class="edge">
<title>Node29&#45;&gt;Node11</title>
<path fill="none" stroke="#191970" d="M870.509,-112.4369C796.5734,-102.1884 679.8419,-86.0078 605.5143,-75.705"/>
<polygon fill="#191970" stroke="#191970" points="605.7025,-72.1977 595.3166,-74.2914 604.7414,-79.1314 605.7025,-72.1977"/>
</g>
<!-- Node29&#45;&gt;Node14 -->
<g id="edge42" class="edge">
<title>Node29&#45;&gt;Node14</title>
<path fill="none" stroke="#191970" d="M927.2382,-112.3018C908.2682,-97.7948 870.1571,-70.5924 833.5,-56 769.4784,-30.5144 689.4008,-18.5059 643.7865,-13.372"/>
<polygon fill="#191970" stroke="#191970" points="644.0957,-9.8851 633.7784,-12.2943 643.3462,-16.8449 644.0957,-9.8851"/>
</g>
<!-- Node29&#45;&gt;Node22 -->
<g id="edge46" class="edge">
<title>Node29&#45;&gt;Node22</title>
<path fill="none" stroke="#191970" d="M914.9174,-112.3733C891.5504,-103.2226 856.2138,-89.3844 830.2216,-79.2057"/>
<polygon fill="#191970" stroke="#191970" points="831.3495,-75.8886 820.7618,-75.5011 828.797,-82.4066 831.3495,-75.8886"/>
</g>
<!-- Node29&#45;&gt;Node23 -->
<g id="edge43" class="edge">
<title>Node29&#45;&gt;Node23</title>
<path fill="none" stroke="#191970" d="M898.0029,-112.4369C851.1939,-101.6496 775.866,-84.2901 731.7806,-74.1305"/>
<polygon fill="#191970" stroke="#191970" points="732.3415,-70.6681 721.8109,-71.833 730.7695,-77.4893 732.3415,-70.6681"/>
</g>
<!-- Node30 -->
<g id="node31" class="node">
<title>Node30</title>
<polygon fill="none" stroke="#bfbfbf" points="909.5,-56.5 909.5,-75.5 969.5,-75.5 969.5,-56.5 909.5,-56.5"/>
<text text-anchor="middle" x="939.5" y="-63.5" font-family="FreeSans.ttf" font-size="10.00" fill="#000000">iostream</text>
</g>
<!-- Node29&#45;&gt;Node30 -->
<g id="edge45" class="edge">
<title>Node29&#45;&gt;Node30</title>
<path fill="none" stroke="#191970" d="M939.5,-112.2455C939.5,-104.9382 939.5,-94.6944 939.5,-85.7046"/>
<polygon fill="#191970" stroke="#191970" points="943.0001,-85.6426 939.5,-75.6427 936.0001,-85.6427 943.0001,-85.6426"/>
</g>
<!-- Node31&#45;&gt;Node4 -->
<g id="edge49" class="edge">
<title>Node31&#45;&gt;Node4</title>
<path fill="none" stroke="#191970" d="M827.0059,-112.4686C932.8256,-99.9403 1113.8566,-78.5075 1187.2128,-69.8226"/>
<polygon fill="#191970" stroke="#191970" points="1187.7137,-73.2878 1197.2328,-68.6363 1186.8907,-66.3364 1187.7137,-73.2878"/>
</g>
<!-- Node31&#45;&gt;Node11 -->
<g id="edge50" class="edge">
<title>Node31&#45;&gt;Node11</title>
<path fill="none" stroke="#191970" d="M710.2278,-112.3733C674.5342,-102.9001 619.9121,-88.4032 581.2549,-78.1435"/>
<polygon fill="#191970" stroke="#191970" points="581.8621,-74.6835 571.2989,-75.5011 580.0664,-81.4493 581.8621,-74.6835"/>
</g>
<!-- Node32&#45;&gt;Node4 -->
<g id="edge61" class="edge">
<title>Node32&#45;&gt;Node4</title>
<path fill="none" stroke="#191970" d="M1135.2114,-336.4982C1229.9253,-321.2742 1390.5,-287.5651 1390.5,-234 1390.5,-234 1390.5,-234 1390.5,-178 1390.5,-112.2333 1300.8907,-82.9921 1251.4084,-71.8586"/>
<polygon fill="#191970" stroke="#191970" points="1252.0147,-68.4094 1241.5052,-69.7511 1250.5576,-75.256 1252.0147,-68.4094"/>
</g>
<!-- Node32&#45;&gt;Node24 -->
<g id="edge55" class="edge">
<title>Node32&#45;&gt;Node24</title>
<path fill="none" stroke="#191970" d="M1074.99,-336.2455C1081.0326,-328.3761 1089.6903,-317.101 1096.9441,-307.6542"/>
<polygon fill="#191970" stroke="#191970" points="1099.7815,-309.7058 1103.0958,-299.6427 1094.2295,-305.4426 1099.7815,-309.7058"/>
</g>
<!-- Node32&#45;&gt;Node27 -->
<g id="edge56" class="edge">
<title>Node32&#45;&gt;Node27</title>
<path fill="none" stroke="#191970" d="M1058.877,-336.4205C1051.2728,-327.5373 1040.363,-313.667 1033.5,-300 1026.1123,-285.288 1020.8909,-267.3398 1017.6399,-253.876"/>
<polygon fill="#191970" stroke="#191970" points="1020.9802,-252.7771 1015.3683,-243.7906 1014.1512,-254.3153 1020.9802,-252.7771"/>
</g>
<!-- Node32&#45;&gt;Node29 -->
<g id="edge60" class="edge">
<title>Node32&#45;&gt;Node29</title>
<path fill="none" stroke="#191970" d="M1050.726,-336.2772C1023.8206,-320.0134 970.588,-285.0064 936.5,-244 913.3888,-216.1983 896.6813,-202.4966 907.5,-168 910.7496,-157.6383 917.2494,-147.5669 923.5471,-139.5026"/>
<polygon fill="#191970" stroke="#191970" points="926.4079,-141.5376 930.1382,-131.6212 921.0381,-137.047 926.4079,-141.5376"/>
</g>
<!-- Node33 -->
<g id="node34" class="node">
<title>Node33</title>
<g id="a_node34"><a xlink:href="TransformSemantics_8h.html" target="_top" xlink:title="iDynTree/Core/TransformSemantics.h">
<polygon fill="none" stroke="#000000" points="437,-112.5 437,-131.5 634,-131.5 634,-112.5 437,-112.5"/>
<text text-anchor="middle" x="535.5" y="-119.5" font-family="FreeSans.ttf" font-size="10.00" fill="#000000">iDynTree/Core/TransformSemantics.h</text>
</a>
</g>
</g>
<!-- Node32&#45;&gt;Node33 -->
<g id="edge57" class="edge">
<title>Node32&#45;&gt;Node33</title>
<path fill="none" stroke="#191970" d="M1045.335,-336.496C1025.2275,-327.6636 994.9288,-313.8256 969.5,-300 913.3763,-269.4857 905.3915,-251.0104 847.5,-224 758.2211,-182.3452 647.2417,-150.4345 584.5838,-134.1032"/>
<polygon fill="#191970" stroke="#191970" points="585.138,-130.6316 574.5806,-131.5216 583.3887,-137.4095 585.138,-130.6316"/>
</g>
<!-- Node33&#45;&gt;Node4 -->
<g id="edge58" class="edge">
<title>Node33&#45;&gt;Node4</title>
<path fill="none" stroke="#191970" d="M634.0839,-112.8201C637.2594,-112.5409 640.4045,-112.2669 643.5,-112 850.5029,-94.1515 1099.5715,-75.0746 1187.1516,-68.4393"/>
<polygon fill="#191970" stroke="#191970" points="1187.5453,-71.9196 1197.2527,-67.6749 1187.0171,-64.9395 1187.5453,-71.9196"/>
</g>
<!-- Node33&#45;&gt;Node11 -->
<g id="edge59" class="edge">
<title>Node33&#45;&gt;Node11</title>
<path fill="none" stroke="#191970" d="M535.5,-112.2455C535.5,-104.9382 535.5,-94.6944 535.5,-85.7046"/>
<polygon fill="#191970" stroke="#191970" points="539.0001,-85.6426 535.5,-75.6427 532.0001,-85.6427 539.0001,-85.6426"/>
</g>
<!-- Node34&#45;&gt;Node1 -->
<g id="edge66" class="edge">
<title>Node34&#45;&gt;Node1</title>
<path fill="none" stroke="#191970" d="M874.1264,-392.2455C859.5692,-383.5731 838.069,-370.7645 821.3848,-360.825"/>
<polygon fill="#191970" stroke="#191970" points="823.0683,-357.7539 812.6859,-355.6427 819.4856,-363.7676 823.0683,-357.7539"/>
</g>
<!-- Node34&#45;&gt;Node3 -->
<g id="edge68" class="edge">
<title>Node34&#45;&gt;Node3</title>
<path fill="none" stroke="#191970" d="M888.5639,-392.3223C885.7513,-379.2057 879.9333,-355.2166 871.5,-336 867.2962,-326.4209 861.4182,-316.4278 856.1326,-308.2126"/>
<polygon fill="#191970" stroke="#191970" points="858.9931,-306.1934 850.5375,-299.8095 853.1665,-310.073 858.9931,-306.1934"/>
</g>
<!-- Node34&#45;&gt;Node4 -->
<g id="edge69" class="edge">
<title>Node34&#45;&gt;Node4</title>
<path fill="none" stroke="#191970" d="M943.5579,-396.8646C1079.2871,-382.2682 1428.5,-334.9086 1428.5,-234 1428.5,-234 1428.5,-234 1428.5,-178 1428.5,-98.9413 1310.8801,-75.4689 1252.1132,-68.6751"/>
<polygon fill="#191970" stroke="#191970" points="1252.1794,-65.1627 1241.8667,-67.5911 1251.4429,-72.1238 1252.1794,-65.1627"/>
</g>
<!-- Node34&#45;&gt;Node10 -->
<g id="edge67" class="edge">
<title>Node34&#45;&gt;Node10</title>
<path fill="none" stroke="#191970" d="M893.183,-392.3628C898.846,-369.7322 909.3338,-312.6462 881.5,-280 820.2721,-208.1862 544.7947,-155.1298 411.374,-133.1563"/>
<polygon fill="#191970" stroke="#191970" points="411.6752,-129.6592 401.2419,-131.5025 410.5474,-136.5678 411.6752,-129.6592"/>
</g>
<!-- Node35&#45;&gt;Node1 -->
<g id="edge71" class="edge">
<title>Node35&#45;&gt;Node1</title>
<path fill="none" stroke="#191970" d="M923.3355,-452.2959C893.108,-446.5338 854.9796,-435.0043 828.5,-412 814.4214,-399.7691 805.9781,-379.932 801.33,-365.1943"/>
<polygon fill="#191970" stroke="#191970" points="804.6888,-364.2094 798.59,-355.546 797.9551,-366.1218 804.6888,-364.2094"/>
</g>
<!-- Node35&#45;&gt;Node3 -->
<g id="edge81" class="edge">
<title>Node35&#45;&gt;Node3</title>
<path fill="none" stroke="#191970" d="M970.37,-448.3935C968.4396,-434.9383 963.5833,-410.1004 952.5,-392 930.2008,-355.5826 891.4536,-323.7902 866.6679,-305.755"/>
<polygon fill="#191970" stroke="#191970" points="868.4021,-302.6934 858.2244,-299.7498 864.345,-308.3978 868.4021,-302.6934"/>
</g>
<!-- Node35&#45;&gt;Node4 -->
<g id="edge82" class="edge">
<title>Node35&#45;&gt;Node4</title>
<path fill="none" stroke="#191970" d="M1013.7034,-448.4955C1133.4083,-420.3262 1466.5,-333.0434 1466.5,-234 1466.5,-234 1466.5,-234 1466.5,-178 1466.5,-140.9295 1446.6753,-132.0579 1415.5,-112 1388.5945,-94.6893 1299.9396,-78.6132 1251.6089,-70.8583"/>
<polygon fill="#191970" stroke="#191970" points="1252.0852,-67.3902 1241.6618,-69.2884 1250.9939,-74.3046 1252.0852,-67.3902"/>
</g>
<!-- Node35&#45;&gt;Node5 -->
<g id="edge83" class="edge">
<title>Node35&#45;&gt;Node5</title>
<path fill="none" stroke="#191970" d="M923.3957,-453.7833C859.5436,-447.5983 743.5509,-434.3134 646.5,-412 567.3259,-393.7967 540.4274,-400.5619 472.5,-356 453.2766,-343.389 436.5846,-322.7504 426.1065,-307.9078"/>
<polygon fill="#191970" stroke="#191970" points="428.9343,-305.8419 420.4183,-299.5388 423.1449,-309.7768 428.9343,-305.8419"/>
</g>
<!-- Node35&#45;&gt;Node6 -->
<g id="edge84" class="edge">
<title>Node35&#45;&gt;Node6</title>
<path fill="none" stroke="#191970" d="M1019.6399,-456.4061C1137.7632,-452.0975 1434.929,-438.7026 1470.5,-412 1503.137,-387.4999 1513.6029,-337.4738 1516.9446,-309.6955"/>
<polygon fill="#191970" stroke="#191970" points="1520.4411,-309.9058 1517.9595,-299.6057 1513.4762,-309.2052 1520.4411,-309.9058"/>
</g>
<!-- Node35&#45;&gt;Node32 -->
<g id="edge73" class="edge">
<title>Node35&#45;&gt;Node32</title>
<path fill="none" stroke="#191970" d="M979.6849,-448.4509C995.9091,-429.5227 1032.3451,-387.014 1052.8189,-363.1279"/>
<polygon fill="#191970" stroke="#191970" points="1055.4853,-365.3953 1059.3358,-355.5249 1050.1705,-360.8397 1055.4853,-365.3953"/>
</g>
<!-- Node35&#45;&gt;Node34 -->
<g id="edge72" class="edge">
<title>Node35&#45;&gt;Node34</title>
<path fill="none" stroke="#191970" d="M957.3909,-448.2455C945.0791,-439.7337 927.0042,-427.2375 912.7462,-417.3801"/>
<polygon fill="#191970" stroke="#191970" points="914.6634,-414.4506 904.4474,-411.6427 910.6826,-420.2085 914.6634,-414.4506"/>
</g>
<!-- Node36 -->
<g id="node37" class="node">
<title>Node36</title>
<g id="a_node37"><a xlink:href="SolidShapes_8h.html" target="_top" xlink:title="iDynTree/Model/SolidShapes.h">
<polygon fill="none" stroke="#000000" points="1523,-392.5 1523,-411.5 1686,-411.5 1686,-392.5 1523,-392.5"/>
<text text-anchor="middle" x="1604.5" y="-399.5" font-family="FreeSans.ttf" font-size="10.00" fill="#000000">iDynTree/Model/SolidShapes.h</text>
</a>
</g>
</g>
<!-- Node35&#45;&gt;Node36 -->
<g id="edge74" class="edge">
<title>Node35&#45;&gt;Node36</title>
<path fill="none" stroke="#191970" d="M1019.6633,-454.1723C1113.6871,-446.6338 1328.2508,-429.1067 1508.5,-412 1509.8137,-411.8753 1511.1374,-411.7489 1512.4693,-411.6208"/>
<polygon fill="#191970" stroke="#191970" points="1513.1962,-415.0666 1522.8092,-410.6124 1512.5167,-408.0997 1513.1962,-415.0666"/>
</g>
<!-- Node36&#45;&gt;Node4 -->
<g id="edge76" class="edge">
<title>Node36&#45;&gt;Node4</title>
<path fill="none" stroke="#191970" d="M1619.6591,-392.4621C1631.5995,-384.1988 1647.7976,-371.1991 1657.5,-356 1673.9243,-330.2708 1676.5,-320.5246 1676.5,-290 1676.5,-290 1676.5,-290 1676.5,-178 1676.5,-90.4253 1355.9211,-70.9801 1251.7633,-66.9735"/>
<polygon fill="#191970" stroke="#191970" points="1251.6621,-63.4676 1241.5421,-66.6038 1251.409,-70.463 1251.6621,-63.4676"/>
</g>
<!-- Node36&#45;&gt;Node6 -->
<g id="edge77" class="edge">
<title>Node36&#45;&gt;Node6</title>
<path fill="none" stroke="#191970" d="M1592.5278,-392.2309C1582.2126,-383.4381 1567.3194,-369.8108 1556.5,-356 1544.9521,-341.2593 1534.5512,-322.6287 1527.5626,-308.9237"/>
<polygon fill="#191970" stroke="#191970" points="1530.6868,-307.3456 1523.1092,-299.9409 1524.4152,-310.4549 1530.6868,-307.3456"/>
</g>
<!-- Node36&#45;&gt;Node32 -->
<g id="edge78" class="edge">
<title>Node36&#45;&gt;Node32</title>
<path fill="none" stroke="#191970" d="M1522.9413,-393.4948C1422.3822,-383.0082 1252.3727,-365.2791 1150.9514,-354.7026"/>
<polygon fill="#191970" stroke="#191970" points="1151.0593,-351.1949 1140.7502,-353.6388 1150.3332,-358.1572 1151.0593,-351.1949"/>
</g>
<!-- Node37 -->
<g id="node38" class="node">
<title>Node37</title>
<polygon fill="none" stroke="#bfbfbf" points="1599,-336.5 1599,-355.5 1648,-355.5 1648,-336.5 1599,-336.5"/>
<text text-anchor="middle" x="1623.5" y="-343.5" font-family="FreeSans.ttf" font-size="10.00" fill="#000000">cstdlib</text>
</g>
<!-- Node36&#45;&gt;Node37 -->
<g id="edge75" class="edge">
<title>Node36&#45;&gt;Node37</title>
<path fill="none" stroke="#191970" d="M1607.8095,-392.2455C1610.3433,-384.7776 1613.9177,-374.2427 1617.015,-365.1137"/>
<polygon fill="#191970" stroke="#191970" points="1620.3298,-366.237 1620.2284,-355.6427 1613.7009,-363.9879 1620.3298,-366.237"/>
</g>
<!-- Node38 -->
<g id="node39" class="node">
<title>Node38</title>
<g id="a_node39"><a xlink:href="Indices_8h.html" target="_top" xlink:title="iDynTree/Model/Indices.h">
<polygon fill="none" stroke="#000000" points="1497.5,-224.5 1497.5,-243.5 1635.5,-243.5 1635.5,-224.5 1497.5,-224.5"/>
<text text-anchor="middle" x="1566.5" y="-231.5" font-family="FreeSans.ttf" font-size="10.00" fill="#000000">iDynTree/Model/Indices.h</text>
</a>
</g>
</g>
<!-- Node36&#45;&gt;Node38 -->
<g id="edge79" class="edge">
<title>Node36&#45;&gt;Node38</title>
<path fill="none" stroke="#191970" d="M1601.2053,-392.21C1598.1649,-382.952 1593.6567,-368.6342 1590.5,-356 1581.5559,-320.2027 1573.8561,-277.8192 1569.7264,-253.6036"/>
<polygon fill="#191970" stroke="#191970" points="1573.1484,-252.847 1568.0421,-243.5639 1566.2449,-254.0051 1573.1484,-252.847"/>
</g>
<!-- Node38&#45;&gt;Node4 -->
<g id="edge80" class="edge">
<title>Node38&#45;&gt;Node4</title>
<path fill="none" stroke="#191970" d="M1562.8209,-224.4508C1553.2424,-200.9811 1525.1314,-140.332 1480.5,-112 1442.939,-88.1563 1313.1831,-74.0862 1251.9597,-68.63"/>
<polygon fill="#191970" stroke="#191970" points="1251.9731,-65.1181 1241.7078,-67.7402 1251.3677,-72.0919 1251.9731,-65.1181"/>
</g>
</g>
</svg>
