<?xml version="1.0" encoding="UTF-8" standalone="no"?>
<!DOCTYPE svg PUBLIC "-//W3C//DTD SVG 1.1//EN"
 "http://www.w3.org/Graphics/SVG/1.1/DTD/svg11.dtd">
<!-- Generated by graphviz version 2.40.1 (20161225.0304)
 -->
<!-- Title: SolidShapes.h Pages: 1 -->
<svg width="1266pt" height="420pt"
 viewBox="0.00 0.00 1266.00 420.00" xmlns="http://www.w3.org/2000/svg" xmlns:xlink="http://www.w3.org/1999/xlink">
<g id="graph0" class="graph" transform="scale(1 1) rotate(0) translate(4 416)">
<title>SolidShapes.h</title>
<!-- Node0 -->
<g id="node1" class="node">
<title>Node0</title>
<polygon fill="#bfbfbf" stroke="#000000" points="1049.5,-392.5 1049.5,-411.5 1134.5,-411.5 1134.5,-392.5 1049.5,-392.5"/>
<text text-anchor="middle" x="1092" y="-399.5" font-family="FreeSans.ttf" font-size="10.00" fill="#000000">SolidShapes.h</text>
</g>
<!-- Node1 -->
<g id="node2" class="node">
<title>Node1</title>
<polygon fill="none" stroke="#bfbfbf" points="661.5,-336.5 661.5,-355.5 710.5,-355.5 710.5,-336.5 661.5,-336.5"/>
<text text-anchor="middle" x="686" y="-343.5" font-family="FreeSans.ttf" font-size="10.00" fill="#000000">cstdlib</text>
</g>
<!-- Node0&#45;&gt;Node1 -->
<g id="edge1" class="edge">
<title>Node0&#45;&gt;Node1</title>
<path fill="none" stroke="#191970" d="M1049.2314,-398.9905C981.4911,-393.7291 845.3059,-381.1404 720.8481,-355.8717"/>
<polygon fill="#191970" stroke="#191970" points="721.2652,-352.3841 710.7641,-353.7907 719.8504,-359.2396 721.2652,-352.3841"/>
</g>
<!-- Node2 -->
<g id="node3" class="node">
<title>Node2</title>
<polygon fill="none" stroke="#bfbfbf" points="848,-56.5 848,-75.5 892,-75.5 892,-56.5 848,-56.5"/>
<text text-anchor="middle" x="870" y="-63.5" font-family="FreeSans.ttf" font-size="10.00" fill="#000000">string</text>
</g>
<!-- Node0&#45;&gt;Node2 -->
<g id="edge2" class="edge">
<title>Node0&#45;&gt;Node2</title>
<path fill="none" stroke="#191970" d="M1092,-392.4116C1092,-373.0538 1092,-327.9167 1092,-290 1092,-290 1092,-290 1092,-178 1092,-94.1092 964.0731,-73.0433 902.4404,-67.7622"/>
<polygon fill="#191970" stroke="#191970" points="902.3356,-64.2441 892.0978,-66.9715 901.8019,-71.2237 902.3356,-64.2441"/>
</g>
<!-- Node3 -->
<g id="node4" class="node">
<title>Node3</title>
<polygon fill="none" stroke="#bfbfbf" points="1158.5,-336.5 1158.5,-355.5 1205.5,-355.5 1205.5,-336.5 1158.5,-336.5"/>
<text text-anchor="middle" x="1182" y="-343.5" font-family="FreeSans.ttf" font-size="10.00" fill="#000000">vector</text>
</g>
<!-- Node0&#45;&gt;Node3 -->
<g id="edge3" class="edge">
<title>Node0&#45;&gt;Node3</title>
<path fill="none" stroke="#191970" d="M1107.6768,-392.2455C1121.4856,-383.6534 1141.8193,-371.0014 1157.7292,-361.1018"/>
<polygon fill="#191970" stroke="#191970" points="1159.8613,-363.8974 1166.5028,-355.6427 1156.1632,-357.954 1159.8613,-363.8974"/>
</g>
<!-- Node4 -->
<g id="node5" class="node">
<title>Node4</title>
<g id="a_node5"><a xlink:href="Transform_8h.html" target="_top" xlink:title="iDynTree/Core/Transform.h">
<polygon fill="none" stroke="#000000" points="729,-336.5 729,-355.5 875,-355.5 875,-336.5 729,-336.5"/>
<text text-anchor="middle" x="802" y="-343.5" font-family="FreeSans.ttf" font-size="10.00" fill="#000000">iDynTree/Core/Transform.h</text>
</a>
</g>
</g>
<!-- Node0&#45;&gt;Node4 -->
<g id="edge4" class="edge">
<title>Node0&#45;&gt;Node4</title>
<path fill="none" stroke="#191970" d="M1049.2095,-393.737C999.5211,-384.142 917.252,-368.2556 861.3911,-357.4686"/>
<polygon fill="#191970" stroke="#191970" points="861.764,-353.9761 851.2818,-355.5165 860.4368,-360.8491 861.764,-353.9761"/>
</g>
<!-- Node28 -->
<g id="node29" class="node">
<title>Node28</title>
<g id="a_node29"><a xlink:href="Indices_8h.html" target="_top" xlink:title="iDynTree/Model/Indices.h">
<polygon fill="none" stroke="#000000" points="1120,-280.5 1120,-299.5 1258,-299.5 1258,-280.5 1120,-280.5"/>
<text text-anchor="middle" x="1189" y="-287.5" font-family="FreeSans.ttf" font-size="10.00" fill="#000000">iDynTree/Model/Indices.h</text>
</a>
</g>
</g>
<!-- Node0&#45;&gt;Node28 -->
<g id="edge49" class="edge">
<title>Node0&#45;&gt;Node28</title>
<path fill="none" stroke="#191970" d="M1100.4878,-392.151C1111.615,-379.2441 1131.7475,-355.9083 1149,-336 1157.2987,-326.4238 1166.5848,-315.7427 1174.1192,-307.0851"/>
<polygon fill="#191970" stroke="#191970" points="1176.7905,-309.3471 1180.7169,-299.5066 1171.5109,-304.7507 1176.7905,-309.3471"/>
</g>
<!-- Node4&#45;&gt;Node2 -->
<g id="edge48" class="edge">
<title>Node4&#45;&gt;Node2</title>
<path fill="none" stroke="#191970" d="M844.1791,-336.4367C915.9174,-318.9375 1054,-279.3629 1054,-234 1054,-234 1054,-234 1054,-178 1054,-107.7054 954.8006,-80.2566 902.0766,-70.632"/>
<polygon fill="#191970" stroke="#191970" points="902.6424,-67.178 892.1947,-68.9373 901.4592,-74.0773 902.6424,-67.178"/>
</g>
<!-- Node5 -->
<g id="node6" class="node">
<title>Node5</title>
<g id="a_node6"><a xlink:href="Position_8h.html" target="_top" xlink:title="iDynTree/Core/Position.h">
<polygon fill="none" stroke="#000000" points="734,-280.5 734,-299.5 870,-299.5 870,-280.5 734,-280.5"/>
<text text-anchor="middle" x="802" y="-287.5" font-family="FreeSans.ttf" font-size="10.00" fill="#000000">iDynTree/Core/Position.h</text>
</a>
</g>
</g>
<!-- Node4&#45;&gt;Node5 -->
<g id="edge5" class="edge">
<title>Node4&#45;&gt;Node5</title>
<path fill="none" stroke="#191970" d="M802,-336.2455C802,-328.9382 802,-318.6944 802,-309.7046"/>
<polygon fill="#191970" stroke="#191970" points="805.5001,-309.6426 802,-299.6427 798.5001,-309.6427 805.5001,-309.6426"/>
</g>
<!-- Node22 -->
<g id="node23" class="node">
<title>Node22</title>
<g id="a_node23"><a xlink:href="Rotation_8h.html" target="_top" xlink:title="iDynTree/Core/Rotation.h">
<polygon fill="none" stroke="#000000" points="608.5,-224.5 608.5,-243.5 745.5,-243.5 745.5,-224.5 608.5,-224.5"/>
<text text-anchor="middle" x="677" y="-231.5" font-family="FreeSans.ttf" font-size="10.00" fill="#000000">iDynTree/Core/Rotation.h</text>
</a>
</g>
</g>
<!-- Node4&#45;&gt;Node22 -->
<g id="edge43" class="edge">
<title>Node4&#45;&gt;Node22</title>
<path fill="none" stroke="#191970" d="M781.2007,-336.4804C764.7805,-328.3149 741.9001,-315.4392 725,-300 709.8717,-286.1795 696.517,-266.9101 687.7603,-252.7593"/>
<polygon fill="#191970" stroke="#191970" points="690.6042,-250.6955 682.4672,-243.9102 684.5968,-254.2888 690.6042,-250.6955"/>
</g>
<!-- Node24 -->
<g id="node25" class="node">
<title>Node24</title>
<g id="a_node25"><a xlink:href="MatrixFixSize_8h.html" target="_top" xlink:title="iDynTree/Core/MatrixFixSize.h">
<polygon fill="none" stroke="#000000" points="23.5,-112.5 23.5,-131.5 184.5,-131.5 184.5,-112.5 23.5,-112.5"/>
<text text-anchor="middle" x="104" y="-119.5" font-family="FreeSans.ttf" font-size="10.00" fill="#000000">iDynTree/Core/MatrixFixSize.h</text>
</a>
</g>
</g>
<!-- Node4&#45;&gt;Node24 -->
<g id="edge47" class="edge">
<title>Node4&#45;&gt;Node24</title>
<path fill="none" stroke="#191970" d="M746.1517,-336.4759C701.9956,-328.3922 639.0101,-315.6281 585,-300 411.8712,-249.9044 211.8154,-167.7482 135.6472,-135.5482"/>
<polygon fill="#191970" stroke="#191970" points="136.7235,-132.203 126.1507,-131.5206 133.9903,-138.6474 136.7235,-132.203"/>
</g>
<!-- Node27 -->
<g id="node28" class="node">
<title>Node27</title>
<g id="a_node28"><a xlink:href="TransformSemantics_8h.html" target="_top" xlink:title="iDynTree/Core/TransformSemantics.h">
<polygon fill="none" stroke="#000000" points="381.5,-112.5 381.5,-131.5 578.5,-131.5 578.5,-112.5 381.5,-112.5"/>
<text text-anchor="middle" x="480" y="-119.5" font-family="FreeSans.ttf" font-size="10.00" fill="#000000">iDynTree/Core/TransformSemantics.h</text>
</a>
</g>
</g>
<!-- Node4&#45;&gt;Node27 -->
<g id="edge44" class="edge">
<title>Node4&#45;&gt;Node27</title>
<path fill="none" stroke="#191970" d="M745.5526,-336.4563C670.5346,-320.4328 540.6449,-280.3021 482,-188 473.3655,-174.41 473.6035,-155.8655 475.5774,-141.8936"/>
<polygon fill="#191970" stroke="#191970" points="479.0581,-142.3146 477.3963,-131.8509 472.1701,-141.0671 479.0581,-142.3146"/>
</g>
<!-- Node5&#45;&gt;Node2 -->
<g id="edge42" class="edge">
<title>Node5&#45;&gt;Node2</title>
<path fill="none" stroke="#191970" d="M804.0674,-280.4874C807.4652,-266.6995 815.3608,-240.9602 830,-224 850.0716,-200.7462 871.8805,-213.5054 889,-188 907.9562,-159.7582 907.1838,-144.7505 898,-112 895.2122,-102.0584 889.6188,-92.1336 884.1593,-84.0613"/>
<polygon fill="#191970" stroke="#191970" points="886.9048,-81.8849 878.2089,-75.8323 881.2324,-85.9866 886.9048,-81.8849"/>
</g>
<!-- Node6 -->
<g id="node7" class="node">
<title>Node6</title>
<g id="a_node7"><a xlink:href="PositionRaw_8h.html" target="_top" xlink:title="iDynTree/Core/PositionRaw.h">
<polygon fill="none" stroke="#000000" points="705,-168.5 705,-187.5 861,-187.5 861,-168.5 705,-168.5"/>
<text text-anchor="middle" x="783" y="-175.5" font-family="FreeSans.ttf" font-size="10.00" fill="#000000">iDynTree/Core/PositionRaw.h</text>
</a>
</g>
</g>
<!-- Node5&#45;&gt;Node6 -->
<g id="edge6" class="edge">
<title>Node5&#45;&gt;Node6</title>
<path fill="none" stroke="#191970" d="M800.3801,-280.4509C797.2812,-262.184 790.4567,-221.9553 786.3416,-197.6976"/>
<polygon fill="#191970" stroke="#191970" points="789.7391,-196.7986 784.6158,-187.5249 782.8377,-197.9694 789.7391,-196.7986"/>
</g>
<!-- Node21 -->
<g id="node22" class="node">
<title>Node21</title>
<g id="a_node22"><a xlink:href="PositionSemantics_8h.html" target="_top" xlink:title="iDynTree/Core/PositionSemantics.h">
<polygon fill="none" stroke="#000000" points="839.5,-224.5 839.5,-243.5 1026.5,-243.5 1026.5,-224.5 839.5,-224.5"/>
<text text-anchor="middle" x="933" y="-231.5" font-family="FreeSans.ttf" font-size="10.00" fill="#000000">iDynTree/Core/PositionSemantics.h</text>
</a>
</g>
</g>
<!-- Node5&#45;&gt;Node21 -->
<g id="edge25" class="edge">
<title>Node5&#45;&gt;Node21</title>
<path fill="none" stroke="#191970" d="M824.5197,-280.3733C845.7372,-271.3032 877.7276,-257.6279 901.4769,-247.4755"/>
<polygon fill="#191970" stroke="#191970" points="902.9548,-250.6502 910.7742,-243.5011 900.2033,-244.2136 902.9548,-250.6502"/>
</g>
<!-- Node5&#45;&gt;Node22 -->
<g id="edge27" class="edge">
<title>Node5&#45;&gt;Node22</title>
<path fill="none" stroke="#191970" d="M780.5117,-280.3733C760.356,-271.3435 730.012,-257.7494 707.382,-247.6111"/>
<polygon fill="#191970" stroke="#191970" points="708.7649,-244.3955 698.2079,-243.5011 705.9029,-250.7838 708.7649,-244.3955"/>
</g>
<!-- Node6&#45;&gt;Node2 -->
<g id="edge24" class="edge">
<title>Node6&#45;&gt;Node2</title>
<path fill="none" stroke="#191970" d="M795.2393,-168.2776C805.7806,-159.5146 820.9908,-145.905 832,-132 843.7557,-117.1521 854.2525,-98.258 861.219,-84.4935"/>
<polygon fill="#191970" stroke="#191970" points="864.3651,-86.0271 865.6352,-75.5087 858.0829,-82.9392 864.3651,-86.0271"/>
</g>
<!-- Node7 -->
<g id="node8" class="node">
<title>Node7</title>
<g id="a_node8"><a xlink:href="VectorFixSize_8h.html" target="_top" xlink:title="iDynTree/Core/VectorFixSize.h">
<polygon fill="none" stroke="#000000" points="202.5,-112.5 202.5,-131.5 363.5,-131.5 363.5,-112.5 202.5,-112.5"/>
<text text-anchor="middle" x="283" y="-119.5" font-family="FreeSans.ttf" font-size="10.00" fill="#000000">iDynTree/Core/VectorFixSize.h</text>
</a>
</g>
</g>
<!-- Node6&#45;&gt;Node7 -->
<g id="edge7" class="edge">
<title>Node6&#45;&gt;Node7</title>
<path fill="none" stroke="#191970" d="M704.972,-169.2771C624.5599,-160.2853 495.2564,-145.8201 373.7572,-132.1967"/>
<polygon fill="#191970" stroke="#191970" points="373.8578,-128.6861 363.53,-131.0499 373.0777,-135.6425 373.8578,-128.6861"/>
</g>
<!-- Node7&#45;&gt;Node2 -->
<g id="edge20" class="edge">
<title>Node7&#45;&gt;Node2</title>
<path fill="none" stroke="#191970" d="M363.5225,-112.8803C366.3831,-112.5793 369.2158,-112.285 372,-112 547.3018,-94.0571 757.6493,-75.6524 837.2949,-68.7955"/>
<polygon fill="#191970" stroke="#191970" points="837.985,-72.2492 847.6486,-67.9058 837.3856,-65.2749 837.985,-72.2492"/>
</g>
<!-- Node8 -->
<g id="node9" class="node">
<title>Node8</title>
<g id="a_node9"><a xlink:href="Utils_8h.html" target="_top" xlink:title="iDynTree/Core/Utils.h">
<polygon fill="none" stroke="#000000" points="435.5,-56.5 435.5,-75.5 554.5,-75.5 554.5,-56.5 435.5,-56.5"/>
<text text-anchor="middle" x="495" y="-63.5" font-family="FreeSans.ttf" font-size="10.00" fill="#000000">iDynTree/Core/Utils.h</text>
</a>
</g>
</g>
<!-- Node7&#45;&gt;Node8 -->
<g id="edge8" class="edge">
<title>Node7&#45;&gt;Node8</title>
<path fill="none" stroke="#191970" d="M319.4441,-112.3733C355.3069,-102.9001 410.1878,-88.4032 449.0282,-78.1435"/>
<polygon fill="#191970" stroke="#191970" points="450.257,-81.439 459.0315,-75.5011 448.4692,-74.6712 450.257,-81.439"/>
</g>
<!-- Node10 -->
<g id="node11" class="node">
<title>Node10</title>
<g id="a_node11"><a xlink:href="Span_8h.html" target="_top" xlink:title="iDynTree/Core/Span.h">
<polygon fill="none" stroke="#000000" points="296.5,-56.5 296.5,-75.5 417.5,-75.5 417.5,-56.5 296.5,-56.5"/>
<text text-anchor="middle" x="357" y="-63.5" font-family="FreeSans.ttf" font-size="10.00" fill="#000000">iDynTree/Core/Span.h</text>
</a>
</g>
</g>
<!-- Node7&#45;&gt;Node10 -->
<g id="edge10" class="edge">
<title>Node7&#45;&gt;Node10</title>
<path fill="none" stroke="#191970" d="M295.8898,-112.2455C306.9254,-103.8943 323.0292,-91.7076 335.9353,-81.9408"/>
<polygon fill="#191970" stroke="#191970" points="338.3959,-84.4681 344.2579,-75.6427 334.1717,-78.8862 338.3959,-84.4681"/>
</g>
<!-- Node11 -->
<g id="node12" class="node">
<title>Node11</title>
<polygon fill="none" stroke="#bfbfbf" points="48,-.5 48,-19.5 100,-19.5 100,-.5 48,-.5"/>
<text text-anchor="middle" x="74" y="-7.5" font-family="FreeSans.ttf" font-size="10.00" fill="#000000">cassert</text>
</g>
<!-- Node7&#45;&gt;Node11 -->
<g id="edge22" class="edge">
<title>Node7&#45;&gt;Node11</title>
<path fill="none" stroke="#191970" d="M280.7164,-112.3112C276.7863,-97.8164 267.3378,-70.6299 249,-56 201.2303,-17.8895 173.7697,-34.9314 110.4026,-20.1502"/>
<polygon fill="#191970" stroke="#191970" points="110.9051,-16.6672 100.3523,-17.6104 109.19,-23.4538 110.9051,-16.6672"/>
</g>
<!-- Node19 -->
<g id="node20" class="node">
<title>Node19</title>
<polygon fill="none" stroke="#bfbfbf" points="116,-56.5 116,-75.5 172,-75.5 172,-56.5 116,-56.5"/>
<text text-anchor="middle" x="144" y="-63.5" font-family="FreeSans.ttf" font-size="10.00" fill="#000000">sstream</text>
</g>
<!-- Node7&#45;&gt;Node19 -->
<g id="edge21" class="edge">
<title>Node7&#45;&gt;Node19</title>
<path fill="none" stroke="#191970" d="M259.105,-112.3733C236.4918,-103.2629 202.3458,-89.5062 177.1127,-79.3404"/>
<polygon fill="#191970" stroke="#191970" points="178.1666,-75.9917 167.5831,-75.5011 175.5507,-82.4845 178.1666,-75.9917"/>
</g>
<!-- Node20 -->
<g id="node21" class="node">
<title>Node20</title>
<polygon fill="none" stroke="#bfbfbf" points="190,-56.5 190,-75.5 240,-75.5 240,-56.5 190,-56.5"/>
<text text-anchor="middle" x="215" y="-63.5" font-family="FreeSans.ttf" font-size="10.00" fill="#000000">cstring</text>
</g>
<!-- Node7&#45;&gt;Node20 -->
<g id="edge23" class="edge">
<title>Node7&#45;&gt;Node20</title>
<path fill="none" stroke="#191970" d="M271.1553,-112.2455C261.112,-103.9746 246.5005,-91.9416 234.6996,-82.2232"/>
<polygon fill="#191970" stroke="#191970" points="236.6533,-79.298 226.709,-75.6427 232.2033,-84.7015 236.6533,-79.298"/>
</g>
<!-- Node9 -->
<g id="node10" class="node">
<title>Node9</title>
<polygon fill="none" stroke="#bfbfbf" points="628.5,-.5 628.5,-19.5 681.5,-19.5 681.5,-.5 628.5,-.5"/>
<text text-anchor="middle" x="655" y="-7.5" font-family="FreeSans.ttf" font-size="10.00" fill="#000000">cstddef</text>
</g>
<!-- Node8&#45;&gt;Node9 -->
<g id="edge9" class="edge">
<title>Node8&#45;&gt;Node9</title>
<path fill="none" stroke="#191970" d="M522.505,-56.3733C549.1559,-47.0454 589.723,-32.8469 618.9464,-22.6188"/>
<polygon fill="#191970" stroke="#191970" points="620.1033,-25.9221 628.3856,-19.315 617.7908,-19.3151 620.1033,-25.9221"/>
</g>
<!-- Node10&#45;&gt;Node9 -->
<g id="edge14" class="edge">
<title>Node10&#45;&gt;Node9</title>
<path fill="none" stroke="#191970" d="M417.6884,-57.0581C468.7136,-49.1506 543.746,-36.6164 618.3,-19.9824"/>
<polygon fill="#191970" stroke="#191970" points="619.3527,-23.3329 628.3368,-17.7172 617.8116,-16.5047 619.3527,-23.3329"/>
</g>
<!-- Node10&#45;&gt;Node11 -->
<g id="edge11" class="edge">
<title>Node10&#45;&gt;Node11</title>
<path fill="none" stroke="#191970" d="M296.7839,-56.4756C248.6204,-48.4826 179.2001,-36.1259 110.0557,-20.0915"/>
<polygon fill="#191970" stroke="#191970" points="110.8381,-16.6801 100.3031,-17.8047 109.24,-23.4953 110.8381,-16.6801"/>
</g>
<!-- Node12 -->
<g id="node13" class="node">
<title>Node12</title>
<polygon fill="none" stroke="#bfbfbf" points="486,-.5 486,-19.5 550,-19.5 550,-.5 486,-.5"/>
<text text-anchor="middle" x="518" y="-7.5" font-family="FreeSans.ttf" font-size="10.00" fill="#000000">algorithm</text>
</g>
<!-- Node10&#45;&gt;Node12 -->
<g id="edge12" class="edge">
<title>Node10&#45;&gt;Node12</title>
<path fill="none" stroke="#191970" d="M384.6769,-56.3733C411.3328,-47.1016 451.8238,-33.0178 481.1884,-22.804"/>
<polygon fill="#191970" stroke="#191970" points="482.3891,-26.0921 490.6843,-19.5011 480.0895,-19.4807 482.3891,-26.0921"/>
</g>
<!-- Node13 -->
<g id="node14" class="node">
<title>Node13</title>
<polygon fill="none" stroke="#bfbfbf" points="568,-.5 568,-19.5 610,-19.5 610,-.5 568,-.5"/>
<text text-anchor="middle" x="589" y="-7.5" font-family="FreeSans.ttf" font-size="10.00" fill="#000000">array</text>
</g>
<!-- Node10&#45;&gt;Node13 -->
<g id="edge13" class="edge">
<title>Node10&#45;&gt;Node13</title>
<path fill="none" stroke="#191970" d="M405.0838,-56.4335C443.9707,-48.3858 500.2961,-36.0299 557.7876,-20.1517"/>
<polygon fill="#191970" stroke="#191970" points="559.0852,-23.4232 567.7741,-17.3608 557.201,-16.6816 559.0852,-23.4232"/>
</g>
<!-- Node14 -->
<g id="node15" class="node">
<title>Node14</title>
<polygon fill="none" stroke="#bfbfbf" points="118.5,-.5 118.5,-19.5 171.5,-19.5 171.5,-.5 118.5,-.5"/>
<text text-anchor="middle" x="145" y="-7.5" font-family="FreeSans.ttf" font-size="10.00" fill="#000000">iterator</text>
</g>
<!-- Node10&#45;&gt;Node14 -->
<g id="edge15" class="edge">
<title>Node10&#45;&gt;Node14</title>
<path fill="none" stroke="#191970" d="M319.8738,-56.4725C286.2435,-47.8029 235.0817,-34.5169 181.4145,-20.0837"/>
<polygon fill="#191970" stroke="#191970" points="182.2902,-16.6949 171.7239,-17.4723 180.4687,-23.4538 182.2902,-16.6949"/>
</g>
<!-- Node15 -->
<g id="node16" class="node">
<title>Node15</title>
<polygon fill="none" stroke="#bfbfbf" points="190,-.5 190,-19.5 234,-19.5 234,-.5 190,-.5"/>
<text text-anchor="middle" x="212" y="-7.5" font-family="FreeSans.ttf" font-size="10.00" fill="#000000">limits</text>
</g>
<!-- Node10&#45;&gt;Node15 -->
<g id="edge16" class="edge">
<title>Node10&#45;&gt;Node15</title>
<path fill="none" stroke="#191970" d="M332.0736,-56.3733C307.6618,-46.9453 270.3662,-32.5414 243.8239,-22.2906"/>
<polygon fill="#191970" stroke="#191970" points="244.8166,-18.9221 234.2272,-18.5843 242.2947,-25.452 244.8166,-18.9221"/>
</g>
<!-- Node16 -->
<g id="node17" class="node">
<title>Node16</title>
<polygon fill="none" stroke="#bfbfbf" points="252.5,-.5 252.5,-19.5 317.5,-19.5 317.5,-.5 252.5,-.5"/>
<text text-anchor="middle" x="285" y="-7.5" font-family="FreeSans.ttf" font-size="10.00" fill="#000000">stdexcept</text>
</g>
<!-- Node10&#45;&gt;Node16 -->
<g id="edge17" class="edge">
<title>Node10&#45;&gt;Node16</title>
<path fill="none" stroke="#191970" d="M344.4586,-56.2455C333.7213,-47.8943 318.0527,-35.7076 305.4953,-25.9408"/>
<polygon fill="#191970" stroke="#191970" points="307.4401,-23.0194 297.3977,-19.6427 303.1425,-28.5449 307.4401,-23.0194"/>
</g>
<!-- Node17 -->
<g id="node18" class="node">
<title>Node17</title>
<polygon fill="none" stroke="#bfbfbf" points="335.5,-.5 335.5,-19.5 404.5,-19.5 404.5,-.5 335.5,-.5"/>
<text text-anchor="middle" x="370" y="-7.5" font-family="FreeSans.ttf" font-size="10.00" fill="#000000">type_traits</text>
</g>
<!-- Node10&#45;&gt;Node17 -->
<g id="edge18" class="edge">
<title>Node10&#45;&gt;Node17</title>
<path fill="none" stroke="#191970" d="M359.2644,-56.2455C360.9794,-48.8579 363.3912,-38.4689 365.4944,-29.4087"/>
<polygon fill="#191970" stroke="#191970" points="368.9095,-30.1751 367.7615,-19.6427 362.0908,-28.5922 368.9095,-30.1751"/>
</g>
<!-- Node18 -->
<g id="node19" class="node">
<title>Node18</title>
<polygon fill="none" stroke="#bfbfbf" points="422.5,-.5 422.5,-19.5 467.5,-19.5 467.5,-.5 422.5,-.5"/>
<text text-anchor="middle" x="445" y="-7.5" font-family="FreeSans.ttf" font-size="10.00" fill="#000000">utility</text>
</g>
<!-- Node10&#45;&gt;Node18 -->
<g id="edge19" class="edge">
<title>Node10&#45;&gt;Node18</title>
<path fill="none" stroke="#191970" d="M372.3284,-56.2455C385.8303,-47.6534 405.7122,-35.0014 421.2686,-25.1018"/>
<polygon fill="#191970" stroke="#191970" points="423.2897,-27.9643 429.8472,-19.6427 419.5315,-22.0587 423.2897,-27.9643"/>
</g>
<!-- Node21&#45;&gt;Node2 -->
<g id="edge26" class="edge">
<title>Node21&#45;&gt;Node2</title>
<path fill="none" stroke="#191970" d="M936.8917,-224.3945C944.9881,-202.7802 961.2763,-149.2968 941,-112 932.5408,-96.4399 916.2975,-85.3323 901.4802,-77.935"/>
<polygon fill="#191970" stroke="#191970" points="902.5933,-74.5947 892.0453,-73.6001 899.6709,-80.9555 902.5933,-74.5947"/>
</g>
<!-- Node22&#45;&gt;Node2 -->
<g id="edge28" class="edge">
<title>Node22&#45;&gt;Node2</title>
<path fill="none" stroke="#191970" d="M745.6594,-226.6091C794.6613,-219.7536 854.5233,-207.599 870,-188 893.2009,-158.6194 884.3646,-111.6527 876.6703,-85.3894"/>
<polygon fill="#191970" stroke="#191970" points="879.8977,-83.9877 873.5394,-75.5129 873.2249,-86.103 879.8977,-83.9877"/>
</g>
<!-- Node22&#45;&gt;Node7 -->
<g id="edge41" class="edge">
<title>Node22&#45;&gt;Node7</title>
<path fill="none" stroke="#191970" d="M631.3948,-224.4402C591.6879,-215.8322 532.7031,-202.3579 482,-188 424.2081,-171.6347 358.2363,-148.9443 318.6425,-134.8829"/>
<polygon fill="#191970" stroke="#191970" points="319.7603,-131.5656 309.1656,-131.5029 317.4087,-138.1589 319.7603,-131.5656"/>
</g>
<!-- Node23 -->
<g id="node24" class="node">
<title>Node23</title>
<g id="a_node24"><a xlink:href="RotationRaw_8h.html" target="_top" xlink:title="iDynTree/Core/RotationRaw.h">
<polygon fill="none" stroke="#000000" points="491,-168.5 491,-187.5 649,-187.5 649,-168.5 491,-168.5"/>
<text text-anchor="middle" x="570" y="-175.5" font-family="FreeSans.ttf" font-size="10.00" fill="#000000">iDynTree/Core/RotationRaw.h</text>
</a>
</g>
</g>
<!-- Node22&#45;&gt;Node23 -->
<g id="edge29" class="edge">
<title>Node22&#45;&gt;Node23</title>
<path fill="none" stroke="#191970" d="M658.362,-224.2455C641.5614,-215.4527 616.6366,-202.4079 597.5382,-192.4125"/>
<polygon fill="#191970" stroke="#191970" points="598.9073,-189.1787 588.4244,-187.6427 595.6614,-195.3807 598.9073,-189.1787"/>
</g>
<!-- Node26 -->
<g id="node27" class="node">
<title>Node26</title>
<g id="a_node27"><a xlink:href="RotationSemantics_8h.html" target="_top" xlink:title="iDynTree/Core/RotationSemantics.h">
<polygon fill="none" stroke="#000000" points="635,-112.5 635,-131.5 823,-131.5 823,-112.5 635,-112.5"/>
<text text-anchor="middle" x="729" y="-119.5" font-family="FreeSans.ttf" font-size="10.00" fill="#000000">iDynTree/Core/RotationSemantics.h</text>
</a>
</g>
</g>
<!-- Node22&#45;&gt;Node26 -->
<g id="edge38" class="edge">
<title>Node22&#45;&gt;Node26</title>
<path fill="none" stroke="#191970" d="M678.7253,-224.225C681.2991,-210.9982 686.8474,-186.8846 696,-168 700.8479,-157.9974 707.8528,-147.855 714.1628,-139.6485"/>
<polygon fill="#191970" stroke="#191970" points="717.0868,-141.5963 720.6022,-131.6016 711.6213,-137.2227 717.0868,-141.5963"/>
</g>
<!-- Node23&#45;&gt;Node2 -->
<g id="edge37" class="edge">
<title>Node23&#45;&gt;Node2</title>
<path fill="none" stroke="#191970" d="M575.4061,-168.0905C584.0278,-153.3075 602.3581,-125.7495 626,-112 661.6065,-91.2922 780.0262,-75.8669 837.7755,-69.3772"/>
<polygon fill="#191970" stroke="#191970" points="838.2626,-72.8448 847.8189,-68.2701 837.4956,-65.8869 838.2626,-72.8448"/>
</g>
<!-- Node23&#45;&gt;Node24 -->
<g id="edge30" class="edge">
<title>Node23&#45;&gt;Node24</title>
<path fill="none" stroke="#191970" d="M490.9495,-168.5004C408.5215,-158.5949 279.566,-143.0981 193.4592,-132.7505"/>
<polygon fill="#191970" stroke="#191970" points="193.7845,-129.2645 183.4383,-131.5462 192.9493,-136.2145 193.7845,-129.2645"/>
</g>
<!-- Node24&#45;&gt;Node2 -->
<g id="edge34" class="edge">
<title>Node24&#45;&gt;Node2</title>
<path fill="none" stroke="#191970" d="M184.5141,-112.7926C187.3771,-112.5165 190.2125,-112.2512 193,-112 440.669,-89.6828 740.1928,-72.894 837.6675,-67.69"/>
<polygon fill="#191970" stroke="#191970" points="837.9642,-71.1793 847.7645,-67.154 837.593,-64.1892 837.9642,-71.1793"/>
</g>
<!-- Node24&#45;&gt;Node8 -->
<g id="edge31" class="edge">
<title>Node24&#45;&gt;Node8</title>
<path fill="none" stroke="#191970" d="M170.9184,-112.4806C233.825,-103.5226 330.9117,-89.6738 425.1673,-76.1177"/>
<polygon fill="#191970" stroke="#191970" points="425.7623,-79.5682 435.162,-74.6798 424.7654,-72.6395 425.7623,-79.5682"/>
</g>
<!-- Node24&#45;&gt;Node11 -->
<g id="edge32" class="edge">
<title>Node24&#45;&gt;Node11</title>
<path fill="none" stroke="#191970" d="M101.4422,-112.4509C96.5271,-94.1013 85.6761,-53.5908 79.1882,-29.3693"/>
<polygon fill="#191970" stroke="#191970" points="82.5196,-28.2788 76.5513,-19.5249 75.7579,-30.09 82.5196,-28.2788"/>
</g>
<!-- Node24&#45;&gt;Node19 -->
<g id="edge36" class="edge">
<title>Node24&#45;&gt;Node19</title>
<path fill="none" stroke="#191970" d="M110.9675,-112.2455C116.5311,-104.4564 124.478,-93.3308 131.1829,-83.9439"/>
<polygon fill="#191970" stroke="#191970" points="134.148,-85.8144 137.1124,-75.6427 128.4519,-81.7457 134.148,-85.8144"/>
</g>
<!-- Node24&#45;&gt;Node20 -->
<g id="edge33" class="edge">
<title>Node24&#45;&gt;Node20</title>
<path fill="none" stroke="#191970" d="M123.0816,-112.3733C140.7402,-103.4644 167.2053,-90.1127 187.2098,-80.0203"/>
<polygon fill="#191970" stroke="#191970" points="188.8158,-83.1303 196.1674,-75.5011 185.6628,-76.8806 188.8158,-83.1303"/>
</g>
<!-- Node25 -->
<g id="node26" class="node">
<title>Node25</title>
<polygon fill="none" stroke="#bfbfbf" points="0,-56.5 0,-75.5 60,-75.5 60,-56.5 0,-56.5"/>
<text text-anchor="middle" x="30" y="-63.5" font-family="FreeSans.ttf" font-size="10.00" fill="#000000">iostream</text>
</g>
<!-- Node24&#45;&gt;Node25 -->
<g id="edge35" class="edge">
<title>Node24&#45;&gt;Node25</title>
<path fill="none" stroke="#191970" d="M91.1102,-112.2455C80.0746,-103.8943 63.9708,-91.7076 51.0647,-81.9408"/>
<polygon fill="#191970" stroke="#191970" points="52.8283,-78.8862 42.7421,-75.6427 48.6041,-84.4681 52.8283,-78.8862"/>
</g>
<!-- Node26&#45;&gt;Node2 -->
<g id="edge39" class="edge">
<title>Node26&#45;&gt;Node2</title>
<path fill="none" stroke="#191970" d="M753.2388,-112.3733C776.8375,-103.0007 812.8177,-88.7107 838.5974,-78.472"/>
<polygon fill="#191970" stroke="#191970" points="839.9293,-81.709 847.9312,-74.7649 837.3455,-75.2033 839.9293,-81.709"/>
</g>
<!-- Node26&#45;&gt;Node8 -->
<g id="edge40" class="edge">
<title>Node26&#45;&gt;Node8</title>
<path fill="none" stroke="#191970" d="M689.0398,-112.4369C649.1608,-102.8932 587.7861,-88.2052 544.7672,-77.9101"/>
<polygon fill="#191970" stroke="#191970" points="545.3354,-74.4473 534.7953,-75.5237 543.7061,-81.2551 545.3354,-74.4473"/>
</g>
<!-- Node27&#45;&gt;Node2 -->
<g id="edge45" class="edge">
<title>Node27&#45;&gt;Node2</title>
<path fill="none" stroke="#191970" d="M546.6003,-112.4369C631.1258,-100.2999 773.5929,-79.8431 837.393,-70.682"/>
<polygon fill="#191970" stroke="#191970" points="838.2485,-74.0952 847.6495,-69.2093 837.2535,-67.1662 838.2485,-74.0952"/>
</g>
<!-- Node27&#45;&gt;Node8 -->
<g id="edge46" class="edge">
<title>Node27&#45;&gt;Node8</title>
<path fill="none" stroke="#191970" d="M482.6128,-112.2455C484.5916,-104.8579 487.3744,-94.4689 489.8012,-85.4087"/>
<polygon fill="#191970" stroke="#191970" points="493.2105,-86.2078 492.4171,-75.6427 486.4489,-84.3966 493.2105,-86.2078"/>
</g>
<!-- Node28&#45;&gt;Node2 -->
<g id="edge50" class="edge">
<title>Node28&#45;&gt;Node2</title>
<path fill="none" stroke="#191970" d="M1187.6046,-280.4069C1182.681,-250.2512 1163.2191,-156.7288 1106,-112 1074.7177,-87.5463 959.6021,-74.0341 902.5251,-68.7058"/>
<polygon fill="#191970" stroke="#191970" points="902.5251,-65.1916 892.2506,-67.7769 901.8947,-72.1632 902.5251,-65.1916"/>
</g>
</g>
</svg>
