<?xml version="1.0" encoding="UTF-8" standalone="no"?>
<!DOCTYPE svg PUBLIC "-//W3C//DTD SVG 1.1//EN"
 "http://www.w3.org/Graphics/SVG/1.1/DTD/svg11.dtd">
<!-- Generated by graphviz version 2.40.1 (20161225.0304)
 -->
<!-- Title: SparseMatrix.h Pages: 1 -->
<svg width="710pt" height="196pt"
 viewBox="0.00 0.00 710.00 196.00" xmlns="http://www.w3.org/2000/svg" xmlns:xlink="http://www.w3.org/1999/xlink">
<g id="graph0" class="graph" transform="scale(1 1) rotate(0) translate(4 192)">
<title>SparseMatrix.h</title>
<!-- Node0 -->
<g id="node1" class="node">
<title>Node0</title>
<polygon fill="#bfbfbf" stroke="#000000" points="503,-168.5 503,-187.5 592,-187.5 592,-168.5 503,-168.5"/>
<text text-anchor="middle" x="547.5" y="-175.5" font-family="FreeSans.ttf" font-size="10.00" fill="#000000">SparseMatrix.h</text>
</g>
<!-- Node1 -->
<g id="node2" class="node">
<title>Node1</title>
<g id="a_node2"><a xlink:href="VectorDynSize_8h.html" target="_top" xlink:title="iDynTree/Core/VectorDynSize.h">
<polygon fill="none" stroke="#000000" points="306,-112.5 306,-131.5 473,-131.5 473,-112.5 306,-112.5"/>
<text text-anchor="middle" x="389.5" y="-119.5" font-family="FreeSans.ttf" font-size="10.00" fill="#000000">iDynTree/Core/VectorDynSize.h</text>
</a>
</g>
</g>
<!-- Node0&#45;&gt;Node1 -->
<g id="edge1" class="edge">
<title>Node0&#45;&gt;Node1</title>
<path fill="none" stroke="#191970" d="M520.3388,-168.3733C494.2933,-159.1419 454.7884,-145.1402 426.0021,-134.9375"/>
<polygon fill="#191970" stroke="#191970" points="426.9015,-131.5429 416.3067,-131.5011 424.563,-138.1408 426.9015,-131.5429"/>
</g>
<!-- Node13 -->
<g id="node14" class="node">
<title>Node13</title>
<g id="a_node14"><a xlink:href="Triplets_8h.html" target="_top" xlink:title="iDynTree/Core/Triplets.h">
<polygon fill="none" stroke="#000000" points="528.5,-112.5 528.5,-131.5 660.5,-131.5 660.5,-112.5 528.5,-112.5"/>
<text text-anchor="middle" x="594.5" y="-119.5" font-family="FreeSans.ttf" font-size="10.00" fill="#000000">iDynTree/Core/Triplets.h</text>
</a>
</g>
</g>
<!-- Node0&#45;&gt;Node13 -->
<g id="edge13" class="edge">
<title>Node0&#45;&gt;Node13</title>
<path fill="none" stroke="#191970" d="M555.6868,-168.2455C562.3589,-160.2958 571.9479,-148.8706 579.9253,-139.3656"/>
<polygon fill="#191970" stroke="#191970" points="582.6592,-141.5525 586.407,-131.6427 577.2974,-137.0524 582.6592,-141.5525"/>
</g>
<!-- Node14 -->
<g id="node15" class="node">
<title>Node14</title>
<g id="a_node15"><a xlink:href="Utils_8h.html" target="_top" xlink:title="iDynTree/Core/Utils.h">
<polygon fill="none" stroke="#000000" points="458,-56.5 458,-75.5 577,-75.5 577,-56.5 458,-56.5"/>
<text text-anchor="middle" x="517.5" y="-63.5" font-family="FreeSans.ttf" font-size="10.00" fill="#000000">iDynTree/Core/Utils.h</text>
</a>
</g>
</g>
<!-- Node0&#45;&gt;Node14 -->
<g id="edge19" class="edge">
<title>Node0&#45;&gt;Node14</title>
<path fill="none" stroke="#191970" d="M539.6582,-168.485C532.8973,-159.6453 523.597,-145.8026 519.5,-132 515.0147,-116.8892 514.7707,-98.9706 515.5057,-85.6196"/>
<polygon fill="#191970" stroke="#191970" points="518.9958,-85.8824 516.2819,-75.6411 512.0169,-85.3395 518.9958,-85.8824"/>
</g>
<!-- Node15 -->
<g id="node16" class="node">
<title>Node15</title>
<polygon fill="none" stroke="#bfbfbf" points="655,-56.5 655,-75.5 702,-75.5 702,-56.5 655,-56.5"/>
<text text-anchor="middle" x="678.5" y="-63.5" font-family="FreeSans.ttf" font-size="10.00" fill="#000000">vector</text>
</g>
<!-- Node0&#45;&gt;Node15 -->
<g id="edge20" class="edge">
<title>Node0&#45;&gt;Node15</title>
<path fill="none" stroke="#191970" d="M592.2334,-172.5887C618.7822,-166.9535 650.8072,-155.4553 669.5,-132 679.7367,-119.1551 681.3849,-100.2475 680.8236,-85.9582"/>
<polygon fill="#191970" stroke="#191970" points="684.2899,-85.3897 680.0215,-75.6928 677.3112,-85.935 684.2899,-85.3897"/>
</g>
<!-- Node2 -->
<g id="node3" class="node">
<title>Node2</title>
<g id="a_node3"><a xlink:href="Span_8h.html" target="_top" xlink:title="iDynTree/Core/Span.h">
<polygon fill="none" stroke="#000000" points="242,-56.5 242,-75.5 363,-75.5 363,-56.5 242,-56.5"/>
<text text-anchor="middle" x="302.5" y="-63.5" font-family="FreeSans.ttf" font-size="10.00" fill="#000000">iDynTree/Core/Span.h</text>
</a>
</g>
</g>
<!-- Node1&#45;&gt;Node2 -->
<g id="edge2" class="edge">
<title>Node1&#45;&gt;Node2</title>
<path fill="none" stroke="#191970" d="M374.3458,-112.2455C360.9973,-103.6534 341.3414,-91.0014 325.9617,-81.1018"/>
<polygon fill="#191970" stroke="#191970" points="327.7836,-78.1121 317.4806,-75.6427 323.9949,-83.9982 327.7836,-78.1121"/>
</g>
<!-- Node12 -->
<g id="node13" class="node">
<title>Node12</title>
<polygon fill="none" stroke="#bfbfbf" points="390.5,-56.5 390.5,-75.5 434.5,-75.5 434.5,-56.5 390.5,-56.5"/>
<text text-anchor="middle" x="412.5" y="-63.5" font-family="FreeSans.ttf" font-size="10.00" fill="#000000">string</text>
</g>
<!-- Node1&#45;&gt;Node12 -->
<g id="edge12" class="edge">
<title>Node1&#45;&gt;Node12</title>
<path fill="none" stroke="#191970" d="M393.5063,-112.2455C396.5735,-104.7776 400.9003,-94.2427 404.6497,-85.1137"/>
<polygon fill="#191970" stroke="#191970" points="407.9779,-86.2226 408.5396,-75.6427 401.5028,-83.5631 407.9779,-86.2226"/>
</g>
<!-- Node3 -->
<g id="node4" class="node">
<title>Node3</title>
<polygon fill="none" stroke="#bfbfbf" points="63.5,-.5 63.5,-19.5 115.5,-19.5 115.5,-.5 63.5,-.5"/>
<text text-anchor="middle" x="89.5" y="-7.5" font-family="FreeSans.ttf" font-size="10.00" fill="#000000">cassert</text>
</g>
<!-- Node2&#45;&gt;Node3 -->
<g id="edge3" class="edge">
<title>Node2&#45;&gt;Node3</title>
<path fill="none" stroke="#191970" d="M264.5776,-56.4968C230.6051,-47.9174 179.1705,-34.7664 125.8312,-20.3189"/>
<polygon fill="#191970" stroke="#191970" points="126.4212,-16.8524 115.8532,-17.607 124.5852,-23.6073 126.4212,-16.8524"/>
</g>
<!-- Node4 -->
<g id="node5" class="node">
<title>Node4</title>
<polygon fill="none" stroke="#bfbfbf" points="133.5,-.5 133.5,-19.5 197.5,-19.5 197.5,-.5 133.5,-.5"/>
<text text-anchor="middle" x="165.5" y="-7.5" font-family="FreeSans.ttf" font-size="10.00" fill="#000000">algorithm</text>
</g>
<!-- Node2&#45;&gt;Node4 -->
<g id="edge4" class="edge">
<title>Node2&#45;&gt;Node4</title>
<path fill="none" stroke="#191970" d="M278.9489,-56.3733C256.6609,-47.2629 223.0063,-33.5062 198.1363,-23.3404"/>
<polygon fill="#191970" stroke="#191970" points="199.3247,-20.0451 188.7438,-19.5011 196.6761,-26.5247 199.3247,-20.0451"/>
</g>
<!-- Node5 -->
<g id="node6" class="node">
<title>Node5</title>
<polygon fill="none" stroke="#bfbfbf" points="215.5,-.5 215.5,-19.5 257.5,-19.5 257.5,-.5 215.5,-.5"/>
<text text-anchor="middle" x="236.5" y="-7.5" font-family="FreeSans.ttf" font-size="10.00" fill="#000000">array</text>
</g>
<!-- Node2&#45;&gt;Node5 -->
<g id="edge5" class="edge">
<title>Node2&#45;&gt;Node5</title>
<path fill="none" stroke="#191970" d="M291.0037,-56.2455C281.2558,-47.9746 267.0741,-35.9416 255.6202,-26.2232"/>
<polygon fill="#191970" stroke="#191970" points="257.7541,-23.4437 247.8646,-19.6427 253.2253,-28.7813 257.7541,-23.4437"/>
</g>
<!-- Node6 -->
<g id="node7" class="node">
<title>Node6</title>
<polygon fill="none" stroke="#bfbfbf" points="508,-.5 508,-19.5 561,-19.5 561,-.5 508,-.5"/>
<text text-anchor="middle" x="534.5" y="-7.5" font-family="FreeSans.ttf" font-size="10.00" fill="#000000">cstddef</text>
</g>
<!-- Node2&#45;&gt;Node6 -->
<g id="edge6" class="edge">
<title>Node2&#45;&gt;Node6</title>
<path fill="none" stroke="#191970" d="M345.4448,-56.4463C383.1379,-47.9432 439.6657,-34.9074 498.0336,-20.0457"/>
<polygon fill="#191970" stroke="#191970" points="498.9759,-23.4175 507.7958,-17.5472 497.2402,-16.636 498.9759,-23.4175"/>
</g>
<!-- Node7 -->
<g id="node8" class="node">
<title>Node7</title>
<polygon fill="none" stroke="#bfbfbf" points="579,-.5 579,-19.5 632,-19.5 632,-.5 579,-.5"/>
<text text-anchor="middle" x="605.5" y="-7.5" font-family="FreeSans.ttf" font-size="10.00" fill="#000000">iterator</text>
</g>
<!-- Node2&#45;&gt;Node7 -->
<g id="edge7" class="edge">
<title>Node2&#45;&gt;Node7</title>
<path fill="none" stroke="#191970" d="M363.0181,-57.3464C415.1288,-49.4922 492.5008,-36.8738 569.0266,-19.9252"/>
<polygon fill="#191970" stroke="#191970" points="569.8461,-23.3284 578.839,-17.7268 568.3157,-16.4978 569.8461,-23.3284"/>
</g>
<!-- Node8 -->
<g id="node9" class="node">
<title>Node8</title>
<polygon fill="none" stroke="#bfbfbf" points="275.5,-.5 275.5,-19.5 319.5,-19.5 319.5,-.5 275.5,-.5"/>
<text text-anchor="middle" x="297.5" y="-7.5" font-family="FreeSans.ttf" font-size="10.00" fill="#000000">limits</text>
</g>
<!-- Node2&#45;&gt;Node8 -->
<g id="edge8" class="edge">
<title>Node2&#45;&gt;Node8</title>
<path fill="none" stroke="#191970" d="M301.6291,-56.2455C300.9766,-48.9382 300.062,-38.6944 299.2593,-29.7046"/>
<polygon fill="#191970" stroke="#191970" points="302.7365,-29.2918 298.361,-19.6427 295.7642,-29.9143 302.7365,-29.2918"/>
</g>
<!-- Node9 -->
<g id="node10" class="node">
<title>Node9</title>
<polygon fill="none" stroke="#bfbfbf" points="338,-.5 338,-19.5 403,-19.5 403,-.5 338,-.5"/>
<text text-anchor="middle" x="370.5" y="-7.5" font-family="FreeSans.ttf" font-size="10.00" fill="#000000">stdexcept</text>
</g>
<!-- Node2&#45;&gt;Node9 -->
<g id="edge9" class="edge">
<title>Node2&#45;&gt;Node9</title>
<path fill="none" stroke="#191970" d="M314.3447,-56.2455C324.388,-47.9746 338.9995,-35.9416 350.8004,-26.2232"/>
<polygon fill="#191970" stroke="#191970" points="353.2967,-28.7015 358.791,-19.6427 348.8467,-23.298 353.2967,-28.7015"/>
</g>
<!-- Node10 -->
<g id="node11" class="node">
<title>Node10</title>
<polygon fill="none" stroke="#bfbfbf" points="421,-.5 421,-19.5 490,-19.5 490,-.5 421,-.5"/>
<text text-anchor="middle" x="455.5" y="-7.5" font-family="FreeSans.ttf" font-size="10.00" fill="#000000">type_traits</text>
</g>
<!-- Node2&#45;&gt;Node10 -->
<g id="edge10" class="edge">
<title>Node2&#45;&gt;Node10</title>
<path fill="none" stroke="#191970" d="M328.8016,-56.3733C353.9128,-47.1822 391.9438,-33.2624 419.7872,-23.0713"/>
<polygon fill="#191970" stroke="#191970" points="421.3538,-26.2251 429.5416,-19.5011 418.9478,-19.6516 421.3538,-26.2251"/>
</g>
<!-- Node11 -->
<g id="node12" class="node">
<title>Node11</title>
<polygon fill="none" stroke="#bfbfbf" points="0,-.5 0,-19.5 45,-19.5 45,-.5 0,-.5"/>
<text text-anchor="middle" x="22.5" y="-7.5" font-family="FreeSans.ttf" font-size="10.00" fill="#000000">utility</text>
</g>
<!-- Node2&#45;&gt;Node11 -->
<g id="edge11" class="edge">
<title>Node2&#45;&gt;Node11</title>
<path fill="none" stroke="#191970" d="M241.9316,-56.8421C193.7184,-49.0794 124.3957,-36.8671 54.9315,-19.8697"/>
<polygon fill="#191970" stroke="#191970" points="55.6795,-16.4492 45.1311,-17.4395 53.9947,-23.2434 55.6795,-16.4492"/>
</g>
<!-- Node13&#45;&gt;Node7 -->
<g id="edge16" class="edge">
<title>Node13&#45;&gt;Node7</title>
<path fill="none" stroke="#191970" d="M595.4379,-112.4509C597.2319,-94.184 601.183,-53.9553 603.5654,-29.6976"/>
<polygon fill="#191970" stroke="#191970" points="607.0702,-29.8191 604.5645,-19.5249 600.1038,-29.1349 607.0702,-29.8191"/>
</g>
<!-- Node13&#45;&gt;Node12 -->
<g id="edge17" class="edge">
<title>Node13&#45;&gt;Node12</title>
<path fill="none" stroke="#191970" d="M563.2131,-112.3733C529.963,-102.1425 477.6701,-86.0523 444.2459,-75.768"/>
<polygon fill="#191970" stroke="#191970" points="445.1078,-72.3713 434.5207,-72.7756 443.0492,-79.0618 445.1078,-72.3713"/>
</g>
<!-- Node13&#45;&gt;Node14 -->
<g id="edge14" class="edge">
<title>Node13&#45;&gt;Node14</title>
<path fill="none" stroke="#191970" d="M581.0876,-112.2455C569.4943,-103.814 552.5252,-91.4729 539.0322,-81.6598"/>
<polygon fill="#191970" stroke="#191970" points="540.9047,-78.6938 530.7587,-75.6427 536.7874,-84.355 540.9047,-78.6938"/>
</g>
<!-- Node13&#45;&gt;Node15 -->
<g id="edge18" class="edge">
<title>Node13&#45;&gt;Node15</title>
<path fill="none" stroke="#191970" d="M609.1317,-112.2455C621.8994,-103.7337 640.6438,-91.2375 655.4299,-81.3801"/>
<polygon fill="#191970" stroke="#191970" points="657.6569,-84.1019 664.036,-75.6427 653.774,-78.2775 657.6569,-84.1019"/>
</g>
<!-- Node14&#45;&gt;Node6 -->
<g id="edge15" class="edge">
<title>Node14&#45;&gt;Node6</title>
<path fill="none" stroke="#191970" d="M520.4612,-56.2455C522.7038,-48.8579 525.8577,-38.4689 528.6081,-29.4087"/>
<polygon fill="#191970" stroke="#191970" points="532.017,-30.2282 531.5728,-19.6427 525.3188,-28.1948 532.017,-30.2282"/>
</g>
</g>
</svg>
