<?xml version="1.0" encoding="UTF-8" standalone="no"?>
<!DOCTYPE svg PUBLIC "-//W3C//DTD SVG 1.1//EN"
 "http://www.w3.org/Graphics/SVG/1.1/DTD/svg11.dtd">
<!-- Generated by graphviz version 2.40.1 (20161225.0304)
 -->
<!-- Title: SpatialMotionVector.h Pages: 1 -->
<svg width="5911pt" height="207pt"
 viewBox="0.00 0.00 5910.79 207.00" xmlns="http://www.w3.org/2000/svg" xmlns:xlink="http://www.w3.org/1999/xlink">
<g id="graph0" class="graph" transform="scale(1 1) rotate(0) translate(4 203)">
<title>SpatialMotionVector.h</title>
<!-- Node32 -->
<g id="node1" class="node">
<title>Node32</title>
<polygon fill="#bfbfbf" stroke="#000000" points="5146.7907,-179.5 5146.7907,-198.5 5268.7907,-198.5 5268.7907,-179.5 5146.7907,-179.5"/>
<text text-anchor="middle" x="5207.7907" y="-186.5" font-family="FreeSans.ttf" font-size="10.00" fill="#000000">SpatialMotionVector.h</text>
</g>
<!-- Node33 -->
<g id="node2" class="node">
<title>Node33</title>
<g id="a_node2"><a xlink:href="EigenHelpers_8h.html" target="_top" xlink:title="EigenHelpers.h">
<polygon fill="none" stroke="#ff0000" points="2687.7907,-123.5 2687.7907,-142.5 2777.7907,-142.5 2777.7907,-123.5 2687.7907,-123.5"/>
<text text-anchor="middle" x="2732.7907" y="-130.5" font-family="FreeSans.ttf" font-size="10.00" fill="#000000">EigenHelpers.h</text>
</a>
</g>
</g>
<!-- Node32&#45;&gt;Node33 -->
<g id="edge1" class="edge">
<title>Node32&#45;&gt;Node33</title>
<path fill="none" stroke="#191970" d="M5136.5883,-187.389C4767.3733,-179.035 3076.3892,-140.7744 2777.8784,-134.0202"/>
<polygon fill="#191970" stroke="#191970" points="5136.5339,-190.8885 5146.6106,-187.6157 5136.6923,-183.8903 5136.5339,-190.8885"/>
</g>
<!-- Node36 -->
<g id="node4" class="node">
<title>Node36</title>
<g id="a_node4"><a xlink:href="SpatialInertiaRaw_8cpp.html" target="_top" xlink:title="SpatialInertiaRaw.cpp">
<polygon fill="none" stroke="#000000" points="414.7907,-.5 414.7907,-19.5 536.7907,-19.5 536.7907,-.5 414.7907,-.5"/>
<text text-anchor="middle" x="475.7907" y="-7.5" font-family="FreeSans.ttf" font-size="10.00" fill="#000000">SpatialInertiaRaw.cpp</text>
</a>
</g>
</g>
<!-- Node32&#45;&gt;Node36 -->
<g id="edge55" class="edge">
<title>Node32&#45;&gt;Node36</title>
<path fill="none" stroke="#191970" d="M5136.0758,-188.6984C4548.9926,-186.1837 549.2579,-168.1654 297.7907,-143 166.7389,-129.8851 90.6613,-188.5495 6.7907,-87 -1.983,-76.3769 -2.464,-66.2068 6.7907,-56 33.6845,-26.3394 293.668,-15.143 414.5534,-11.5158"/>
<polygon fill="#191970" stroke="#191970" points="5136.4889,-192.2001 5146.5038,-188.743 5136.5189,-185.2002 5136.4889,-192.2001"/>
</g>
<!-- Node38 -->
<g id="node5" class="node">
<title>Node38</title>
<g id="a_node5"><a xlink:href="SpatialMotionVector_8cpp.html" target="_top" xlink:title="SpatialMotionVector.cpp">
<polygon fill="none" stroke="#000000" points="4882.7907,-.5 4882.7907,-19.5 5016.7907,-19.5 5016.7907,-.5 4882.7907,-.5"/>
<text text-anchor="middle" x="4949.7907" y="-7.5" font-family="FreeSans.ttf" font-size="10.00" fill="#000000">SpatialMotionVector.cpp</text>
</a>
</g>
</g>
<!-- Node32&#45;&gt;Node38 -->
<g id="edge56" class="edge">
<title>Node32&#45;&gt;Node38</title>
<path fill="none" stroke="#191970" d="M5224.7892,-171.9117C5249.8823,-144.6283 5290.7946,-90.7683 5260.7907,-56 5245.0784,-37.7928 5103.5872,-22.852 5016.9564,-15.3102"/>
<polygon fill="#191970" stroke="#191970" points="5222.2466,-169.5065 5217.904,-179.1705 5227.3253,-174.3238 5222.2466,-169.5065"/>
</g>
<!-- Node94 -->
<g id="node40" class="node">
<title>Node94</title>
<g id="a_node40"><a xlink:href="PredictSensorsMeasurements_8cpp.html" target="_top" xlink:title="PredictSensorsMeasurements.cpp">
<polygon fill="none" stroke="#000000" points="723.2907,-62 723.2907,-81 904.2907,-81 904.2907,-62 723.2907,-62"/>
<text text-anchor="middle" x="813.7907" y="-69" font-family="FreeSans.ttf" font-size="10.00" fill="#000000">PredictSensorsMeasurements.cpp</text>
</a>
</g>
</g>
<!-- Node32&#45;&gt;Node94 -->
<g id="edge66" class="edge">
<title>Node32&#45;&gt;Node94</title>
<path fill="none" stroke="#191970" d="M5136.3564,-188.0541C4836.7883,-184.0127 3652.2506,-167.2863 2678.7907,-143 1893.7516,-123.4145 1694.6439,-160.3188 912.7907,-87 897.8081,-85.595 881.6477,-83.3698 866.8159,-81.0392"/>
<polygon fill="#191970" stroke="#191970" points="5136.5916,-191.5575 5146.6378,-188.1925 5136.6859,-184.5581 5136.5916,-191.5575"/>
</g>
<!-- Node107 -->
<g id="node41" class="node">
<title>Node107</title>
<g id="a_node41"><a xlink:href="SpatialAcc_8h.html" target="_top" xlink:title="SpatialAcc.h">
<polygon fill="none" stroke="#ff0000" points="432.2907,-123.5 432.2907,-142.5 509.2907,-142.5 509.2907,-123.5 432.2907,-123.5"/>
<text text-anchor="middle" x="470.7907" y="-130.5" font-family="FreeSans.ttf" font-size="10.00" fill="#000000">SpatialAcc.h</text>
</a>
</g>
</g>
<!-- Node32&#45;&gt;Node107 -->
<g id="edge41" class="edge">
<title>Node32&#45;&gt;Node107</title>
<path fill="none" stroke="#191970" d="M5136.2771,-188.1546C4577.7648,-181.5519 925.5739,-138.3764 509.3926,-133.4563"/>
<polygon fill="#191970" stroke="#191970" points="5136.5596,-191.6581 5146.6003,-188.2766 5136.6424,-184.6586 5136.5596,-191.6581"/>
</g>
<!-- Node227 -->
<g id="node42" class="node">
<title>Node227</title>
<g id="a_node42"><a xlink:href="Twist_8h.html" target="_top" xlink:title="Twist.h">
<polygon fill="none" stroke="#ff0000" points="306.7907,-123.5 306.7907,-142.5 356.7907,-142.5 356.7907,-123.5 306.7907,-123.5"/>
<text text-anchor="middle" x="331.7907" y="-130.5" font-family="FreeSans.ttf" font-size="10.00" fill="#000000">Twist.h</text>
</a>
</g>
</g>
<!-- Node32&#45;&gt;Node227 -->
<g id="edge48" class="edge">
<title>Node32&#45;&gt;Node227</title>
<path fill="none" stroke="#191970" d="M5136.3103,-188.7452C4577.1014,-186.6947 912.8321,-172.2077 422.7907,-143 400.4203,-141.6667 375.0865,-138.7685 356.84,-136.4337"/>
<polygon fill="#191970" stroke="#191970" points="5136.6328,-192.2463 5146.6456,-188.7829 5136.6584,-185.2463 5136.6328,-192.2463"/>
</g>
<!-- Node229 -->
<g id="node43" class="node">
<title>Node229</title>
<g id="a_node43"><a xlink:href="PositionRaw_8cpp.html" target="_top" xlink:title="PositionRaw.cpp">
<polygon fill="none" stroke="#000000" points="5273.7907,-123.5 5273.7907,-142.5 5369.7907,-142.5 5369.7907,-123.5 5273.7907,-123.5"/>
<text text-anchor="middle" x="5321.7907" y="-130.5" font-family="FreeSans.ttf" font-size="10.00" fill="#000000">PositionRaw.cpp</text>
</a>
</g>
</g>
<!-- Node32&#45;&gt;Node229 -->
<g id="edge53" class="edge">
<title>Node32&#45;&gt;Node229</title>
<path fill="none" stroke="#191970" d="M5236.6228,-174.8368C5257.2302,-164.7139 5284.3989,-151.3679 5302.4491,-142.5011"/>
<polygon fill="#191970" stroke="#191970" points="5234.8204,-171.8227 5227.388,-179.3733 5237.9067,-178.1056 5234.8204,-171.8227"/>
</g>
<!-- Node230 -->
<g id="node44" class="node">
<title>Node230</title>
<g id="a_node44"><a xlink:href="RotationRaw_8cpp.html" target="_top" xlink:title="RotationRaw.cpp">
<polygon fill="none" stroke="#000000" points="5387.7907,-123.5 5387.7907,-142.5 5485.7907,-142.5 5485.7907,-123.5 5387.7907,-123.5"/>
<text text-anchor="middle" x="5436.7907" y="-130.5" font-family="FreeSans.ttf" font-size="10.00" fill="#000000">RotationRaw.cpp</text>
</a>
</g>
</g>
<!-- Node32&#45;&gt;Node230 -->
<g id="edge54" class="edge">
<title>Node32&#45;&gt;Node230</title>
<path fill="none" stroke="#191970" d="M5256.6687,-177.0473C5298.8179,-166.7401 5358.8769,-152.0532 5397.8457,-142.5237"/>
<polygon fill="#191970" stroke="#191970" points="5255.7793,-173.6616 5246.897,-179.4369 5257.4422,-180.4612 5255.7793,-173.6616"/>
</g>
<!-- Node109 -->
<g id="node45" class="node">
<title>Node109</title>
<g id="a_node45"><a xlink:href="TestUtils_8cpp.html" target="_top" xlink:title="TestUtils.cpp">
<polygon fill="none" stroke="#000000" points="5504.2907,-123.5 5504.2907,-142.5 5583.2907,-142.5 5583.2907,-123.5 5504.2907,-123.5"/>
<text text-anchor="middle" x="5543.7907" y="-130.5" font-family="FreeSans.ttf" font-size="10.00" fill="#000000">TestUtils.cpp</text>
</a>
</g>
</g>
<!-- Node32&#45;&gt;Node109 -->
<g id="edge57" class="edge">
<title>Node32&#45;&gt;Node109</title>
<path fill="none" stroke="#191970" d="M5279.1301,-178.4254C5337.2873,-169.5982 5421.4955,-156.3467 5494.7907,-143 5497.8657,-142.44 5501.0449,-141.8398 5504.2382,-141.2217"/>
<polygon fill="#191970" stroke="#191970" points="5278.3082,-175.0098 5268.9443,-179.9666 5279.3555,-181.931 5278.3082,-175.0098"/>
</g>
<!-- Node110 -->
<g id="node46" class="node">
<title>Node110</title>
<g id="a_node46"><a xlink:href="DynamicsUtils_8h.html" target="_top" xlink:title="DynamicsUtils.h">
<polygon fill="none" stroke="#000000" points="5601.2907,-123.5 5601.2907,-142.5 5698.2907,-142.5 5698.2907,-123.5 5601.2907,-123.5"/>
<text text-anchor="middle" x="5649.7907" y="-130.5" font-family="FreeSans.ttf" font-size="10.00" fill="#000000">DynamicsUtils.h</text>
</a>
</g>
</g>
<!-- Node32&#45;&gt;Node110 -->
<g id="edge58" class="edge">
<title>Node32&#45;&gt;Node110</title>
<path fill="none" stroke="#191970" d="M5279.0577,-181.6662C5356.454,-173.4263 5483.6444,-159.0823 5592.7907,-143 5595.4744,-142.6046 5598.2261,-142.1813 5601.0015,-141.7405"/>
<polygon fill="#191970" stroke="#191970" points="5278.5155,-178.204 5268.9402,-182.7387 5279.2535,-185.165 5278.5155,-178.204"/>
</g>
<!-- Node231 -->
<g id="node47" class="node">
<title>Node231</title>
<g id="a_node47"><a xlink:href="PrismaticJoint_8h.html" target="_top" xlink:title="PrismaticJoint.h">
<polygon fill="none" stroke="#ff0000" points="5124.2907,-123.5 5124.2907,-142.5 5217.2907,-142.5 5217.2907,-123.5 5124.2907,-123.5"/>
<text text-anchor="middle" x="5170.7907" y="-130.5" font-family="FreeSans.ttf" font-size="10.00" fill="#000000">PrismaticJoint.h</text>
</a>
</g>
</g>
<!-- Node32&#45;&gt;Node231 -->
<g id="edge59" class="edge">
<title>Node32&#45;&gt;Node231</title>
<path fill="none" stroke="#191970" d="M5195.6531,-170.6296C5189.4814,-161.2887 5182.2341,-150.3197 5177.1617,-142.6427"/>
<polygon fill="#191970" stroke="#191970" points="5192.913,-172.8316 5201.3458,-179.2455 5198.7533,-168.9728 5192.913,-172.8316"/>
</g>
<!-- Node233 -->
<g id="node48" class="node">
<title>Node233</title>
<g id="a_node48"><a xlink:href="RevoluteJoint_8h.html" target="_top" xlink:title="RevoluteJoint.h">
<polygon fill="none" stroke="#ff0000" points="5015.7907,-123.5 5015.7907,-142.5 5105.7907,-142.5 5105.7907,-123.5 5015.7907,-123.5"/>
<text text-anchor="middle" x="5060.7907" y="-130.5" font-family="FreeSans.ttf" font-size="10.00" fill="#000000">RevoluteJoint.h</text>
</a>
</g>
</g>
<!-- Node32&#45;&gt;Node233 -->
<g id="edge61" class="edge">
<title>Node32&#45;&gt;Node233</title>
<path fill="none" stroke="#191970" d="M5173.1113,-175.7888C5146.2709,-165.5639 5109.7437,-151.6488 5085.7311,-142.5011"/>
<polygon fill="#191970" stroke="#191970" points="5171.9296,-179.0839 5182.5205,-179.3733 5174.4216,-172.5425 5171.9296,-179.0839"/>
</g>
<!-- Node216 -->
<g id="node49" class="node">
<title>Node216</title>
<g id="a_node49"><a xlink:href="FixedJoint_8cpp.html" target="_top" xlink:title="FixedJoint.cpp">
<polygon fill="none" stroke="#000000" points="5716.7907,-123.5 5716.7907,-142.5 5800.7907,-142.5 5800.7907,-123.5 5716.7907,-123.5"/>
<text text-anchor="middle" x="5758.7907" y="-130.5" font-family="FreeSans.ttf" font-size="10.00" fill="#000000">FixedJoint.cpp</text>
</a>
</g>
</g>
<!-- Node32&#45;&gt;Node216 -->
<g id="edge64" class="edge">
<title>Node32&#45;&gt;Node216</title>
<path fill="none" stroke="#191970" d="M5278.8319,-184.7509C5376.0131,-178.4179 5555.7005,-164.849 5707.7907,-143 5710.6486,-142.5894 5713.589,-142.1253 5716.5464,-141.6273"/>
<polygon fill="#191970" stroke="#191970" points="5278.5831,-181.2596 5268.8292,-185.3961 5279.0338,-188.2451 5278.5831,-181.2596"/>
</g>
<!-- Node125 -->
<g id="node50" class="node">
<title>Node125</title>
<g id="a_node50"><a xlink:href="JointState_8cpp.html" target="_top" xlink:title="JointState.cpp">
<polygon fill="none" stroke="#000000" points="5818.7907,-123.5 5818.7907,-142.5 5902.7907,-142.5 5902.7907,-123.5 5818.7907,-123.5"/>
<text text-anchor="middle" x="5860.7907" y="-130.5" font-family="FreeSans.ttf" font-size="10.00" fill="#000000">JointState.cpp</text>
</a>
</g>
</g>
<!-- Node32&#45;&gt;Node125 -->
<g id="edge65" class="edge">
<title>Node32&#45;&gt;Node125</title>
<path fill="none" stroke="#191970" d="M5279.394,-186.2494C5392.4798,-181.2941 5619.1757,-168.8794 5809.7907,-143 5812.6517,-142.6116 5815.5944,-142.164 5818.5535,-141.6781"/>
<polygon fill="#191970" stroke="#191970" points="5278.9794,-182.764 5269.1396,-186.6919 5279.2812,-189.7574 5278.9794,-182.764"/>
</g>
<!-- Node34 -->
<g id="node3" class="node">
<title>Node34</title>
<g id="a_node3"><a xlink:href="PrivateUtils_8h.html" target="_top" xlink:title="PrivateUtils.h">
<polygon fill="none" stroke="#ff0000" points="922.2907,-62 922.2907,-81 1005.2907,-81 1005.2907,-62 922.2907,-62"/>
<text text-anchor="middle" x="963.7907" y="-69" font-family="FreeSans.ttf" font-size="10.00" fill="#000000">PrivateUtils.h</text>
</a>
</g>
</g>
<!-- Node33&#45;&gt;Node34 -->
<g id="edge2" class="edge">
<title>Node33&#45;&gt;Node34</title>
<path fill="none" stroke="#191970" d="M2677.4739,-132.4004C2401.676,-129.2925 1181.806,-114.1088 1014.7907,-87 1006.7523,-85.6953 998.214,-83.456 990.4692,-81.0789"/>
<polygon fill="#191970" stroke="#191970" points="2677.6019,-135.902 2687.6405,-132.5143 2677.6804,-128.9024 2677.6019,-135.902"/>
</g>
<!-- Node33&#45;&gt;Node38 -->
<g id="edge13" class="edge">
<title>Node33&#45;&gt;Node38</title>
<path fill="none" stroke="#191970" d="M2788.2487,-132.7643C3125.4692,-131.2192 4887.6775,-121.5019 4930.7907,-87 4951.109,-70.74 4951.7822,-36.5194 4950.7428,-19.7207"/>
<polygon fill="#191970" stroke="#191970" points="2788.2141,-129.2644 2778.2301,-132.8097 2788.2459,-136.2643 2788.2141,-129.2644"/>
</g>
<!-- Node42 -->
<g id="node6" class="node">
<title>Node42</title>
<g id="a_node6"><a xlink:href="ArticulatedBodyInertia_8cpp.html" target="_top" xlink:title="ArticulatedBodyInertia.cpp">
<polygon fill="none" stroke="#000000" points="558.7907,-62 558.7907,-81 704.7907,-81 704.7907,-62 558.7907,-62"/>
<text text-anchor="middle" x="631.7907" y="-69" font-family="FreeSans.ttf" font-size="10.00" fill="#000000">ArticulatedBodyInertia.cpp</text>
</a>
</g>
</g>
<!-- Node33&#45;&gt;Node42 -->
<g id="edge5" class="edge">
<title>Node33&#45;&gt;Node42</title>
<path fill="none" stroke="#191970" d="M2677.443,-132.2819C2373.4837,-128.2656 913.5522,-108.012 713.7907,-87 701.111,-85.6663 687.4592,-83.418 675.0018,-81.0414"/>
<polygon fill="#191970" stroke="#191970" points="2677.7188,-135.7857 2687.7641,-132.4179 2677.8111,-128.7863 2677.7188,-135.7857"/>
</g>
<!-- Node43 -->
<g id="node7" class="node">
<title>Node43</title>
<g id="a_node7"><a xlink:href="CubicSpline_8cpp.html" target="_top" xlink:title="CubicSpline.cpp">
<polygon fill="none" stroke="#000000" points="1023.7907,-62 1023.7907,-81 1117.7907,-81 1117.7907,-62 1023.7907,-62"/>
<text text-anchor="middle" x="1070.7907" y="-69" font-family="FreeSans.ttf" font-size="10.00" fill="#000000">CubicSpline.cpp</text>
</a>
</g>
</g>
<!-- Node33&#45;&gt;Node43 -->
<g id="edge6" class="edge">
<title>Node33&#45;&gt;Node43</title>
<path fill="none" stroke="#191970" d="M2677.283,-132.2052C2412.3038,-128.3037 1282.4511,-110.4191 1126.7907,-87 1118.0123,-85.6793 1108.6518,-83.435 1100.1468,-81.0582"/>
<polygon fill="#191970" stroke="#191970" points="2677.3854,-135.707 2687.4357,-132.354 2677.4881,-128.7077 2677.3854,-135.707"/>
</g>
<!-- Node44 -->
<g id="node8" class="node">
<title>Node44</title>
<g id="a_node8"><a xlink:href="Direction_8cpp.html" target="_top" xlink:title="Direction.cpp">
<polygon fill="none" stroke="#000000" points="1136.2907,-62 1136.2907,-81 1217.2907,-81 1217.2907,-62 1136.2907,-62"/>
<text text-anchor="middle" x="1176.7907" y="-69" font-family="FreeSans.ttf" font-size="10.00" fill="#000000">Direction.cpp</text>
</a>
</g>
</g>
<!-- Node33&#45;&gt;Node44 -->
<g id="edge7" class="edge">
<title>Node33&#45;&gt;Node44</title>
<path fill="none" stroke="#191970" d="M2677.419,-132.2137C2422.8143,-128.476 1370.7883,-111.6572 1225.7907,-87 1218.0501,-85.6837 1209.8411,-83.4408 1202.4004,-81.0639"/>
<polygon fill="#191970" stroke="#191970" points="2677.4922,-135.715 2687.5423,-132.3616 2677.5945,-128.7158 2677.4922,-135.715"/>
</g>
<!-- Node45 -->
<g id="node9" class="node">
<title>Node45</title>
<g id="a_node9"><a xlink:href="InertiaNonLinearParametrization_8cpp.html" target="_top" xlink:title="InertiaNonLinearParametrization.cpp">
<polygon fill="none" stroke="#000000" points="1235.2907,-62 1235.2907,-81 1430.2907,-81 1430.2907,-62 1235.2907,-62"/>
<text text-anchor="middle" x="1332.7907" y="-69" font-family="FreeSans.ttf" font-size="10.00" fill="#000000">InertiaNonLinearParametrization.cpp</text>
</a>
</g>
</g>
<!-- Node33&#45;&gt;Node45 -->
<g id="edge8" class="edge">
<title>Node33&#45;&gt;Node45</title>
<path fill="none" stroke="#191970" d="M2677.5334,-131.8443C2462.9876,-127.2316 1684.9425,-109.3044 1438.7907,-87 1422.8613,-85.5566 1405.6719,-83.3337 1389.8668,-81.018"/>
<polygon fill="#191970" stroke="#191970" points="2677.5435,-135.3452 2687.6161,-132.0602 2677.6934,-128.3468 2677.5435,-135.3452"/>
</g>
<!-- Node46 -->
<g id="node10" class="node">
<title>Node46</title>
<g id="a_node10"><a xlink:href="Rotation_8cpp.html" target="_top" xlink:title="Rotation.cpp">
<polygon fill="none" stroke="#000000" points="185.2907,-62 185.2907,-81 262.2907,-81 262.2907,-62 185.2907,-62"/>
<text text-anchor="middle" x="223.7907" y="-69" font-family="FreeSans.ttf" font-size="10.00" fill="#000000">Rotation.cpp</text>
</a>
</g>
</g>
<!-- Node33&#45;&gt;Node46 -->
<g id="edge9" class="edge">
<title>Node33&#45;&gt;Node46</title>
<path fill="none" stroke="#191970" d="M2677.4597,-132.9383C2335.4618,-132.4277 516.0303,-127.7993 271.7907,-87 264.1898,-85.7303 256.1427,-83.502 248.8542,-81.1241"/>
<polygon fill="#191970" stroke="#191970" points="2677.605,-136.4384 2687.61,-132.9528 2677.6151,-129.4384 2677.605,-136.4384"/>
</g>
<!-- Node47 -->
<g id="node11" class="node">
<title>Node47</title>
<g id="a_node11"><a xlink:href="SO3Utils_8cpp.html" target="_top" xlink:title="SO3Utils.cpp">
<polygon fill="none" stroke="#000000" points="1448.2907,-62 1448.2907,-81 1527.2907,-81 1527.2907,-62 1448.2907,-62"/>
<text text-anchor="middle" x="1487.7907" y="-69" font-family="FreeSans.ttf" font-size="10.00" fill="#000000">SO3Utils.cpp</text>
</a>
</g>
</g>
<!-- Node33&#45;&gt;Node47 -->
<g id="edge10" class="edge">
<title>Node33&#45;&gt;Node47</title>
<path fill="none" stroke="#191970" d="M2677.7398,-131.7709C2457.8379,-126.7402 1648.8623,-107.0362 1535.7907,-87 1528.2027,-85.6554 1520.1596,-83.4037 1512.8709,-81.0274"/>
<polygon fill="#191970" stroke="#191970" points="2677.6837,-135.2704 2687.7609,-131.9993 2677.8433,-128.2723 2677.6837,-135.2704"/>
</g>
<!-- Node48 -->
<g id="node12" class="node">
<title>Node48</title>
<g id="a_node12"><a xlink:href="SpatialForceVector_8cpp.html" target="_top" xlink:title="SpatialForceVector.cpp">
<polygon fill="none" stroke="#000000" points="1545.2907,-62 1545.2907,-81 1672.2907,-81 1672.2907,-62 1545.2907,-62"/>
<text text-anchor="middle" x="1608.7907" y="-69" font-family="FreeSans.ttf" font-size="10.00" fill="#000000">SpatialForceVector.cpp</text>
</a>
</g>
</g>
<!-- Node33&#45;&gt;Node48 -->
<g id="edge11" class="edge">
<title>Node33&#45;&gt;Node48</title>
<path fill="none" stroke="#191970" d="M2677.5754,-131.8139C2489.7561,-127.5868 1876.4316,-112.1539 1680.7907,-87 1669.8842,-85.5977 1658.18,-83.3884 1647.4449,-81.0724"/>
<polygon fill="#191970" stroke="#191970" points="2677.6902,-135.3172 2687.7659,-132.0416 2677.8466,-128.319 2677.6902,-135.3172"/>
</g>
<!-- Node49 -->
<g id="node13" class="node">
<title>Node49</title>
<g id="a_node13"><a xlink:href="SpatialInertia_8cpp.html" target="_top" xlink:title="SpatialInertia.cpp">
<polygon fill="none" stroke="#000000" points="280.7907,-62 280.7907,-81 382.7907,-81 382.7907,-62 280.7907,-62"/>
<text text-anchor="middle" x="331.7907" y="-69" font-family="FreeSans.ttf" font-size="10.00" fill="#000000">SpatialInertia.cpp</text>
</a>
</g>
</g>
<!-- Node33&#45;&gt;Node49 -->
<g id="edge12" class="edge">
<title>Node33&#45;&gt;Node49</title>
<path fill="none" stroke="#191970" d="M2677.3274,-132.6847C2345.0326,-130.6929 624.4869,-118.897 391.7907,-87 382.3042,-85.6996 372.1619,-83.43 362.9664,-81.0223"/>
<polygon fill="#191970" stroke="#191970" points="2677.6369,-136.1865 2687.6576,-132.7462 2677.6786,-129.1867 2677.6369,-136.1865"/>
</g>
<!-- Node50 -->
<g id="node14" class="node">
<title>Node50</title>
<g id="a_node14"><a xlink:href="TransformDerivative_8cpp.html" target="_top" xlink:title="TransformDerivative.cpp">
<polygon fill="none" stroke="#000000" points="1690.2907,-62 1690.2907,-81 1827.2907,-81 1827.2907,-62 1690.2907,-62"/>
<text text-anchor="middle" x="1758.7907" y="-69" font-family="FreeSans.ttf" font-size="10.00" fill="#000000">TransformDerivative.cpp</text>
</a>
</g>
</g>
<!-- Node33&#45;&gt;Node50 -->
<g id="edge14" class="edge">
<title>Node33&#45;&gt;Node50</title>
<path fill="none" stroke="#191970" d="M2677.4402,-131.2108C2508.4538,-125.582 2000.7756,-107.3938 1836.7907,-87 1825.1449,-85.5517 1812.6336,-83.3564 1801.1153,-81.0697"/>
<polygon fill="#191970" stroke="#191970" points="2677.4923,-134.7144 2687.6028,-131.5478 2677.7243,-127.7182 2677.4923,-134.7144"/>
</g>
<!-- Node51 -->
<g id="node15" class="node">
<title>Node51</title>
<g id="a_node15"><a xlink:href="AttitudeEstimatorUtils_8h.html" target="_top" xlink:title="AttitudeEstimatorUtils.h">
<polygon fill="none" stroke="#ff0000" points="1845.7907,-62 1845.7907,-81 1979.7907,-81 1979.7907,-62 1845.7907,-62"/>
<text text-anchor="middle" x="1912.7907" y="-69" font-family="FreeSans.ttf" font-size="10.00" fill="#000000">AttitudeEstimatorUtils.h</text>
</a>
</g>
</g>
<!-- Node33&#45;&gt;Node51 -->
<g id="edge15" class="edge">
<title>Node33&#45;&gt;Node51</title>
<path fill="none" stroke="#191970" d="M2677.3521,-132.2106C2553.4089,-129.8696 2244.6618,-120.8342 1988.7907,-87 1977.5768,-85.5172 1965.5394,-83.3386 1954.4263,-81.0806"/>
<polygon fill="#191970" stroke="#191970" points="2677.6506,-135.7165 2687.7125,-132.3987 2677.7777,-128.7177 2677.6506,-135.7165"/>
</g>
<!-- Node55 -->
<g id="node16" class="node">
<title>Node55</title>
<g id="a_node16"><a xlink:href="GravityCompensationHelpers_8h.html" target="_top" xlink:title="GravityCompensationHelpers.h">
<polygon fill="none" stroke="#ff0000" points="1997.7907,-62 1997.7907,-81 2167.7907,-81 2167.7907,-62 1997.7907,-62"/>
<text text-anchor="middle" x="2082.7907" y="-69" font-family="FreeSans.ttf" font-size="10.00" fill="#000000">GravityCompensationHelpers.h</text>
</a>
</g>
</g>
<!-- Node33&#45;&gt;Node55 -->
<g id="edge16" class="edge">
<title>Node33&#45;&gt;Node55</title>
<path fill="none" stroke="#191970" d="M2677.437,-129.908C2577.2901,-123.9832 2359.4543,-109.5787 2176.7907,-87 2163.4946,-85.3565 2149.2019,-83.2013 2135.8742,-81.0227"/>
<polygon fill="#191970" stroke="#191970" points="2677.4327,-133.4137 2687.6204,-130.5052 2677.8425,-126.4257 2677.4327,-133.4137"/>
</g>
<!-- Node57 -->
<g id="node17" class="node">
<title>Node57</title>
<g id="a_node17"><a xlink:href="KalmanFilter_8h.html" target="_top" xlink:title="KalmanFilter.h">
<polygon fill="none" stroke="#ff0000" points="2185.7907,-62 2185.7907,-81 2271.7907,-81 2271.7907,-62 2185.7907,-62"/>
<text text-anchor="middle" x="2228.7907" y="-69" font-family="FreeSans.ttf" font-size="10.00" fill="#000000">KalmanFilter.h</text>
</a>
</g>
</g>
<!-- Node33&#45;&gt;Node57 -->
<g id="edge17" class="edge">
<title>Node33&#45;&gt;Node57</title>
<path fill="none" stroke="#191970" d="M2677.7761,-130.7413C2592.1789,-126.4795 2422.2448,-115.0203 2280.7907,-87 2273.0285,-85.4624 2264.7616,-83.265 2257.1569,-81.0064"/>
<polygon fill="#191970" stroke="#191970" points="2677.6315,-134.2383 2687.7891,-131.226 2677.97,-127.2465 2677.6315,-134.2383"/>
</g>
<!-- Node59 -->
<g id="node18" class="node">
<title>Node59</title>
<g id="a_node18"><a xlink:href="BerdyHelper_8cpp.html" target="_top" xlink:title="BerdyHelper.cpp">
<polygon fill="none" stroke="#000000" points="2290.2907,-62 2290.2907,-81 2387.2907,-81 2387.2907,-62 2290.2907,-62"/>
<text text-anchor="middle" x="2338.7907" y="-69" font-family="FreeSans.ttf" font-size="10.00" fill="#000000">BerdyHelper.cpp</text>
</a>
</g>
</g>
<!-- Node33&#45;&gt;Node59 -->
<g id="edge18" class="edge">
<title>Node33&#45;&gt;Node59</title>
<path fill="none" stroke="#191970" d="M2677.4464,-127.6745C2610.371,-120.7086 2494.1101,-106.9902 2395.7907,-87 2387.6505,-85.345 2378.9551,-83.1855 2370.8708,-81.0065"/>
<polygon fill="#191970" stroke="#191970" points="2677.474,-131.1956 2687.779,-128.7344 2678.1884,-124.2322 2677.474,-131.1956"/>
</g>
<!-- Node60 -->
<g id="node19" class="node">
<title>Node60</title>
<g id="a_node19"><a xlink:href="BerdySparseMAPSolver_8cpp.html" target="_top" xlink:title="BerdySparseMAPSolver.cpp">
<polygon fill="none" stroke="#000000" points="2405.2907,-62 2405.2907,-81 2554.2907,-81 2554.2907,-62 2405.2907,-62"/>
<text text-anchor="middle" x="2479.7907" y="-69" font-family="FreeSans.ttf" font-size="10.00" fill="#000000">BerdySparseMAPSolver.cpp</text>
</a>
</g>
</g>
<!-- Node33&#45;&gt;Node60 -->
<g id="edge19" class="edge">
<title>Node33&#45;&gt;Node60</title>
<path fill="none" stroke="#191970" d="M2683.6765,-121.0612C2635.6615,-109.3895 2563.4907,-91.846 2519.1364,-81.0643"/>
<polygon fill="#191970" stroke="#191970" points="2682.9933,-124.4969 2693.537,-123.4581 2684.6467,-117.695 2682.9933,-124.4969"/>
</g>
<!-- Node61 -->
<g id="node20" class="node">
<title>Node61</title>
<g id="a_node20"><a xlink:href="ExtendedKalmanFilter_8cpp.html" target="_top" xlink:title="ExtendedKalmanFilter.cpp">
<polygon fill="none" stroke="#000000" points="2572.2907,-62 2572.2907,-81 2715.2907,-81 2715.2907,-62 2572.2907,-62"/>
<text text-anchor="middle" x="2643.7907" y="-69" font-family="FreeSans.ttf" font-size="10.00" fill="#000000">ExtendedKalmanFilter.cpp</text>
</a>
</g>
</g>
<!-- Node33&#45;&gt;Node61 -->
<g id="edge20" class="edge">
<title>Node33&#45;&gt;Node61</title>
<path fill="none" stroke="#191970" d="M2710.3143,-117.4685C2693.7229,-106.0037 2671.6701,-90.765 2657.5993,-81.0419"/>
<polygon fill="#191970" stroke="#191970" points="2708.6678,-120.5851 2718.8844,-123.3906 2712.6472,-114.8263 2708.6678,-120.5851"/>
</g>
<!-- Node62 -->
<g id="node21" class="node">
<title>Node62</title>
<g id="a_node21"><a xlink:href="ExternalWrenchesEstimation_8cpp.html" target="_top" xlink:title="ExternalWrenchesEstimation.cpp">
<polygon fill="none" stroke="#000000" points="2733.2907,-62 2733.2907,-81 2910.2907,-81 2910.2907,-62 2733.2907,-62"/>
<text text-anchor="middle" x="2821.7907" y="-69" font-family="FreeSans.ttf" font-size="10.00" fill="#000000">ExternalWrenchesEstimation.cpp</text>
</a>
</g>
</g>
<!-- Node33&#45;&gt;Node62 -->
<g id="edge21" class="edge">
<title>Node33&#45;&gt;Node62</title>
<path fill="none" stroke="#191970" d="M2755.2671,-117.4685C2771.8585,-106.0037 2793.9113,-90.765 2807.9821,-81.0419"/>
<polygon fill="#191970" stroke="#191970" points="2752.9341,-114.8263 2746.6969,-123.3906 2756.9136,-120.5851 2752.9341,-114.8263"/>
</g>
<!-- Node63 -->
<g id="node22" class="node">
<title>Node63</title>
<g id="a_node22"><a xlink:href="ExtWrenchesAndJointTorquesEstimator_8cpp.html" target="_top" xlink:title="ExtWrenchesAndJointTorques\lEstimator.cpp">
<polygon fill="none" stroke="#000000" points="2927.7907,-56.5 2927.7907,-86.5 3085.7907,-86.5 3085.7907,-56.5 2927.7907,-56.5"/>
<text text-anchor="start" x="2935.7907" y="-74.5" font-family="FreeSans.ttf" font-size="10.00" fill="#000000">ExtWrenchesAndJointTorques</text>
<text text-anchor="middle" x="3006.7907" y="-63.5" font-family="FreeSans.ttf" font-size="10.00" fill="#000000">Estimator.cpp</text>
</a>
</g>
</g>
<!-- Node33&#45;&gt;Node63 -->
<g id="edge22" class="edge">
<title>Node33&#45;&gt;Node63</title>
<path fill="none" stroke="#191970" d="M2785.2148,-121.2333C2829.1895,-111.363 2892.261,-97.2065 2939.8754,-86.5193"/>
<polygon fill="#191970" stroke="#191970" points="2784.2933,-117.853 2775.3026,-123.4581 2785.8263,-124.683 2784.2933,-117.853"/>
</g>
<!-- Node64 -->
<g id="node23" class="node">
<title>Node64</title>
<g id="a_node23"><a xlink:href="SimpleLeggedOdometry_8cpp.html" target="_top" xlink:title="SimpleLeggedOdometry.cpp">
<polygon fill="none" stroke="#000000" points="3104.2907,-62 3104.2907,-81 3257.2907,-81 3257.2907,-62 3104.2907,-62"/>
<text text-anchor="middle" x="3180.7907" y="-69" font-family="FreeSans.ttf" font-size="10.00" fill="#000000">SimpleLeggedOdometry.cpp</text>
</a>
</g>
</g>
<!-- Node33&#45;&gt;Node64 -->
<g id="edge23" class="edge">
<title>Node33&#45;&gt;Node64</title>
<path fill="none" stroke="#191970" d="M2788.1211,-126.8736C2859.2384,-118.7919 2986.4652,-103.633 3094.7907,-87 3106.3371,-85.2271 3118.718,-83.1184 3130.3868,-81.0364"/>
<polygon fill="#191970" stroke="#191970" points="2787.5874,-123.4116 2778.0445,-128.014 2788.3747,-130.3672 2787.5874,-123.4116"/>
</g>
<!-- Node65 -->
<g id="node24" class="node">
<title>Node65</title>
<g id="a_node24"><a xlink:href="KinDynComputations_8cpp.html" target="_top" xlink:title="KinDynComputations.cpp">
<polygon fill="none" stroke="#000000" points="400.7907,-62 400.7907,-81 540.7907,-81 540.7907,-62 400.7907,-62"/>
<text text-anchor="middle" x="470.7907" y="-69" font-family="FreeSans.ttf" font-size="10.00" fill="#000000">KinDynComputations.cpp</text>
</a>
</g>
</g>
<!-- Node33&#45;&gt;Node65 -->
<g id="edge24" class="edge">
<title>Node33&#45;&gt;Node65</title>
<path fill="none" stroke="#191970" d="M2677.086,-132.4022C2357.7879,-128.8989 766.6323,-110.3799 549.7907,-87 537.562,-85.6815 524.4056,-83.4379 512.4042,-81.0611"/>
<polygon fill="#191970" stroke="#191970" points="2677.432,-135.9061 2687.4697,-132.5158 2677.5086,-128.9065 2677.432,-135.9061"/>
</g>
<!-- Node66 -->
<g id="node25" class="node">
<title>Node66</title>
<g id="a_node25"><a xlink:href="BoundingBoxHelpers_8cpp.html" target="_top" xlink:title="BoundingBoxHelpers.cpp">
<polygon fill="none" stroke="#000000" points="3275.2907,-62 3275.2907,-81 3414.2907,-81 3414.2907,-62 3275.2907,-62"/>
<text text-anchor="middle" x="3344.7907" y="-69" font-family="FreeSans.ttf" font-size="10.00" fill="#000000">BoundingBoxHelpers.cpp</text>
</a>
</g>
</g>
<!-- Node33&#45;&gt;Node66 -->
<g id="edge25" class="edge">
<title>Node33&#45;&gt;Node66</title>
<path fill="none" stroke="#191970" d="M2788.062,-130.1956C2885.1071,-124.834 3092.3085,-111.4326 3265.7907,-87 3277.1396,-85.4017 3289.3236,-83.2369 3300.6432,-81.0327"/>
<polygon fill="#191970" stroke="#191970" points="2787.6941,-126.7104 2777.8995,-130.7498 2788.0753,-133.7 2787.6941,-126.7104"/>
</g>
<!-- Node67 -->
<g id="node26" class="node">
<title>Node67</title>
<g id="a_node26"><a xlink:href="ConvexHullHelpers_8cpp.html" target="_top" xlink:title="ConvexHullHelpers.cpp">
<polygon fill="none" stroke="#000000" points="3432.2907,-62 3432.2907,-81 3563.2907,-81 3563.2907,-62 3432.2907,-62"/>
<text text-anchor="middle" x="3497.7907" y="-69" font-family="FreeSans.ttf" font-size="10.00" fill="#000000">ConvexHullHelpers.cpp</text>
</a>
</g>
</g>
<!-- Node33&#45;&gt;Node67 -->
<g id="edge26" class="edge">
<title>Node33&#45;&gt;Node67</title>
<path fill="none" stroke="#191970" d="M2787.975,-131.8887C2905.3177,-128.9628 3188.0836,-118.9231 3422.7907,-87 3433.8574,-85.4948 3445.7366,-83.3085 3456.7035,-81.0503"/>
<polygon fill="#191970" stroke="#191970" points="2787.7207,-128.3937 2777.8083,-132.1346 2787.89,-135.3917 2787.7207,-128.3937"/>
</g>
<!-- Node68 -->
<g id="node27" class="node">
<title>Node68</title>
<g id="a_node27"><a xlink:href="InverseKinematicsData_8cpp.html" target="_top" xlink:title="InverseKinematicsData.cpp">
<polygon fill="none" stroke="#000000" points="16.2907,-62 16.2907,-81 167.2907,-81 167.2907,-62 16.2907,-62"/>
<text text-anchor="middle" x="91.7907" y="-69" font-family="FreeSans.ttf" font-size="10.00" fill="#000000">InverseKinematicsData.cpp</text>
</a>
</g>
</g>
<!-- Node33&#45;&gt;Node68 -->
<g id="edge27" class="edge">
<title>Node33&#45;&gt;Node68</title>
<path fill="none" stroke="#191970" d="M2677.593,-132.5528C2328.3801,-129.6509 432.3209,-112.7984 175.7907,-87 162.8062,-85.6942 148.8228,-83.4546 136.0615,-81.0775"/>
<polygon fill="#191970" stroke="#191970" points="2677.6793,-136.0535 2687.708,-132.6365 2677.7373,-129.0537 2677.6793,-136.0535"/>
</g>
<!-- Node69 -->
<g id="node28" class="node">
<title>Node69</title>
<g id="a_node28"><a xlink:href="InverseKinematicsNLP_8cpp.html" target="_top" xlink:title="InverseKinematicsNLP.cpp">
<polygon fill="none" stroke="#000000" points="3581.2907,-62 3581.2907,-81 3726.2907,-81 3726.2907,-62 3581.2907,-62"/>
<text text-anchor="middle" x="3653.7907" y="-69" font-family="FreeSans.ttf" font-size="10.00" fill="#000000">InverseKinematicsNLP.cpp</text>
</a>
</g>
</g>
<!-- Node33&#45;&gt;Node69 -->
<g id="edge28" class="edge">
<title>Node33&#45;&gt;Node69</title>
<path fill="none" stroke="#191970" d="M2788.0577,-132.489C2922.6354,-130.6976 3277.8697,-122.6783 3571.7907,-87 3584.0159,-85.516 3597.1629,-83.3087 3609.2718,-81.022"/>
<polygon fill="#191970" stroke="#191970" points="2787.9486,-128.99 2777.9939,-132.6167 2788.0375,-135.9895 2787.9486,-128.99"/>
</g>
<!-- Node70 -->
<g id="node29" class="node">
<title>Node70</title>
<g id="a_node29"><a xlink:href="DenavitHartenberg_8cpp.html" target="_top" xlink:title="DenavitHartenberg.cpp">
<polygon fill="none" stroke="#000000" points="4977.7907,-62 4977.7907,-81 5107.7907,-81 5107.7907,-62 4977.7907,-62"/>
<text text-anchor="middle" x="5042.7907" y="-69" font-family="FreeSans.ttf" font-size="10.00" fill="#000000">DenavitHartenberg.cpp</text>
</a>
</g>
</g>
<!-- Node33&#45;&gt;Node70 -->
<g id="edge29" class="edge">
<title>Node33&#45;&gt;Node70</title>
<path fill="none" stroke="#191970" d="M2788.1942,-132.4324C3110.9339,-129.0495 4741.8302,-110.8809 4963.7907,-87 4976.0197,-85.6843 4989.1762,-83.4416 5001.1775,-81.0646"/>
<polygon fill="#191970" stroke="#191970" points="2788.1096,-128.933 2778.1467,-132.5374 2788.1828,-135.9326 2788.1096,-128.933"/>
</g>
<!-- Node71 -->
<g id="node30" class="node">
<title>Node71</title>
<g id="a_node30"><a xlink:href="Dynamics_8cpp.html" target="_top" xlink:title="Dynamics.cpp">
<polygon fill="none" stroke="#000000" points="3744.7907,-62 3744.7907,-81 3830.7907,-81 3830.7907,-62 3744.7907,-62"/>
<text text-anchor="middle" x="3787.7907" y="-69" font-family="FreeSans.ttf" font-size="10.00" fill="#000000">Dynamics.cpp</text>
</a>
</g>
</g>
<!-- Node33&#45;&gt;Node71 -->
<g id="edge30" class="edge">
<title>Node33&#45;&gt;Node71</title>
<path fill="none" stroke="#191970" d="M2788.1972,-132.1952C2970.4793,-129.2748 3550.3888,-117.7429 3734.7907,-87 3743.0177,-85.6284 3751.774,-83.3989 3759.7498,-81.0531"/>
<polygon fill="#191970" stroke="#191970" points="2787.9803,-128.6981 2778.0368,-132.3556 2788.0909,-135.6972 2787.9803,-128.6981"/>
</g>
<!-- Node72 -->
<g id="node31" class="node">
<title>Node72</title>
<g id="a_node31"><a xlink:href="DynamicsLinearization_8cpp.html" target="_top" xlink:title="DynamicsLinearization.cpp">
<polygon fill="none" stroke="#000000" points="3849.2907,-62 3849.2907,-81 3998.2907,-81 3998.2907,-62 3849.2907,-62"/>
<text text-anchor="middle" x="3923.7907" y="-69" font-family="FreeSans.ttf" font-size="10.00" fill="#000000">DynamicsLinearization.cpp</text>
</a>
</g>
</g>
<!-- Node33&#45;&gt;Node72 -->
<g id="edge31" class="edge">
<title>Node33&#45;&gt;Node72</title>
<path fill="none" stroke="#191970" d="M2788.2375,-131.7314C2982.6258,-127.1222 3632.6226,-110.3005 3839.7907,-87 3852.4642,-85.5746 3866.1024,-83.3576 3878.6269,-81.0418"/>
<polygon fill="#191970" stroke="#191970" points="2787.8909,-128.2385 2777.9762,-131.9734 2788.056,-135.2366 2787.8909,-128.2385"/>
</g>
<!-- Node73 -->
<g id="node32" class="node">
<title>Node73</title>
<g id="a_node32"><a xlink:href="DynamicsLinearizationHelpers_8cpp.html" target="_top" xlink:title="DynamicsLinearizationHelpers.cpp">
<polygon fill="none" stroke="#000000" points="4015.7907,-62 4015.7907,-81 4201.7907,-81 4201.7907,-62 4015.7907,-62"/>
<text text-anchor="middle" x="4108.7907" y="-69" font-family="FreeSans.ttf" font-size="10.00" fill="#000000">DynamicsLinearizationHelpers.cpp</text>
</a>
</g>
</g>
<!-- Node33&#45;&gt;Node73 -->
<g id="edge32" class="edge">
<title>Node33&#45;&gt;Node73</title>
<path fill="none" stroke="#191970" d="M2788.2251,-131.8463C3000.9138,-127.2883 3764.8985,-109.6706 4006.7907,-87 4022.1275,-85.5626 4038.671,-83.3417 4053.8796,-81.026"/>
<polygon fill="#191970" stroke="#191970" points="2787.8529,-128.3534 2777.9299,-132.066 2788.0023,-135.3518 2787.8529,-128.3534"/>
</g>
<!-- Node74 -->
<g id="node33" class="node">
<title>Node74</title>
<g id="a_node33"><a xlink:href="Jacobians_8cpp.html" target="_top" xlink:title="Jacobians.cpp">
<polygon fill="none" stroke="#000000" points="4220.2907,-62 4220.2907,-81 4303.2907,-81 4303.2907,-62 4220.2907,-62"/>
<text text-anchor="middle" x="4261.7907" y="-69" font-family="FreeSans.ttf" font-size="10.00" fill="#000000">Jacobians.cpp</text>
</a>
</g>
</g>
<!-- Node33&#45;&gt;Node74 -->
<g id="edge33" class="edge">
<title>Node33&#45;&gt;Node74</title>
<path fill="none" stroke="#191970" d="M2788.2892,-132.1393C3040.0521,-128.1177 4068.6797,-110.3834 4210.7907,-87 4218.8262,-85.6778 4227.3637,-83.4331 4235.1085,-81.0563"/>
<polygon fill="#191970" stroke="#191970" points="2787.8693,-128.6454 2777.9263,-132.3041 2787.9807,-135.6446 2787.8693,-128.6454"/>
</g>
<!-- Node75 -->
<g id="node34" class="node">
<title>Node75</title>
<g id="a_node34"><a xlink:href="Model_8cpp.html" target="_top" xlink:title="Model.cpp">
<polygon fill="none" stroke="#000000" points="4321.7907,-62 4321.7907,-81 4387.7907,-81 4387.7907,-62 4321.7907,-62"/>
<text text-anchor="middle" x="4354.7907" y="-69" font-family="FreeSans.ttf" font-size="10.00" fill="#000000">Model.cpp</text>
</a>
</g>
</g>
<!-- Node33&#45;&gt;Node75 -->
<g id="edge34" class="edge">
<title>Node33&#45;&gt;Node75</title>
<path fill="none" stroke="#191970" d="M2787.8348,-132.4285C3049.3381,-129.5743 4159.8196,-115.8405 4311.7907,-87 4318.6515,-85.698 4325.8765,-83.4596 4332.4047,-81.0824"/>
<polygon fill="#191970" stroke="#191970" points="2787.7744,-128.9288 2777.8129,-132.5371 2787.8503,-135.9284 2787.7744,-128.9288"/>
</g>
<!-- Node76 -->
<g id="node35" class="node">
<title>Node76</title>
<g id="a_node35"><a xlink:href="URDFModelExport_8cpp.html" target="_top" xlink:title="URDFModelExport.cpp">
<polygon fill="none" stroke="#000000" points="5126.2907,-62 5126.2907,-81 5251.2907,-81 5251.2907,-62 5126.2907,-62"/>
<text text-anchor="middle" x="5188.7907" y="-69" font-family="FreeSans.ttf" font-size="10.00" fill="#000000">URDFModelExport.cpp</text>
</a>
</g>
</g>
<!-- Node33&#45;&gt;Node76 -->
<g id="edge35" class="edge">
<title>Node33&#45;&gt;Node76</title>
<path fill="none" stroke="#191970" d="M2788.7135,-132.5674C3125.6766,-129.8746 4879.0771,-114.619 5116.7907,-87 5128.0945,-85.6867 5140.2409,-83.4131 5151.2778,-81.0057"/>
<polygon fill="#191970" stroke="#191970" points="2788.2131,-129.0711 2778.2412,-132.6506 2788.2688,-136.0709 2788.2131,-129.0711"/>
</g>
<!-- Node77 -->
<g id="node36" class="node">
<title>Node77</title>
<g id="a_node36"><a xlink:href="AlglibInterface_8cpp.html" target="_top" xlink:title="AlglibInterface.cpp">
<polygon fill="none" stroke="#000000" points="4405.7907,-62 4405.7907,-81 4513.7907,-81 4513.7907,-62 4405.7907,-62"/>
<text text-anchor="middle" x="4459.7907" y="-69" font-family="FreeSans.ttf" font-size="10.00" fill="#000000">AlglibInterface.cpp</text>
</a>
</g>
</g>
<!-- Node33&#45;&gt;Node77 -->
<g id="edge36" class="edge">
<title>Node33&#45;&gt;Node77</title>
<path fill="none" stroke="#191970" d="M2788.5018,-132.1672C3059.6504,-128.0184 4234.8165,-108.9078 4396.7907,-87 4406.6133,-85.6714 4417.1272,-83.4247 4426.6964,-81.0481"/>
<polygon fill="#191970" stroke="#191970" points="2788.0684,-128.6733 2778.123,-132.3254 2788.1752,-135.6724 2788.0684,-128.6733"/>
</g>
<!-- Node78 -->
<g id="node37" class="node">
<title>Node78</title>
<g id="a_node37"><a xlink:href="ConstraintsGroup_8cpp.html" target="_top" xlink:title="ConstraintsGroup.cpp">
<polygon fill="none" stroke="#000000" points="4531.7907,-62 4531.7907,-81 4653.7907,-81 4653.7907,-62 4531.7907,-62"/>
<text text-anchor="middle" x="4592.7907" y="-69" font-family="FreeSans.ttf" font-size="10.00" fill="#000000">ConstraintsGroup.cpp</text>
</a>
</g>
</g>
<!-- Node33&#45;&gt;Node78 -->
<g id="edge37" class="edge">
<title>Node33&#45;&gt;Node78</title>
<path fill="none" stroke="#191970" d="M2788.1073,-132.212C3070.7662,-128.1006 4347.3421,-108.4764 4522.7907,-87 4533.663,-85.6691 4545.3321,-83.4217 4555.9655,-81.0451"/>
<polygon fill="#191970" stroke="#191970" points="2788.0356,-128.7126 2778.0874,-132.3573 2788.1371,-135.7119 2788.0356,-128.7126"/>
</g>
<!-- Node79 -->
<g id="node38" class="node">
<title>Node79</title>
<g id="a_node38"><a xlink:href="FixedStepIntegrator_8cpp.html" target="_top" xlink:title="FixedStepIntegrator.cpp">
<polygon fill="none" stroke="#000000" points="4672.2907,-62 4672.2907,-81 4803.2907,-81 4803.2907,-62 4672.2907,-62"/>
<text text-anchor="middle" x="4737.7907" y="-69" font-family="FreeSans.ttf" font-size="10.00" fill="#000000">FixedStepIntegrator.cpp</text>
</a>
</g>
</g>
<!-- Node33&#45;&gt;Node79 -->
<g id="edge38" class="edge">
<title>Node33&#45;&gt;Node79</title>
<path fill="none" stroke="#191970" d="M2788.0786,-132.2764C3083.813,-128.3264 4472.5333,-108.7479 4662.7907,-87 4674.4155,-85.6712 4686.9105,-83.4244 4698.3039,-81.0478"/>
<polygon fill="#191970" stroke="#191970" points="2787.9757,-128.7774 2778.0232,-132.4103 2788.069,-135.7768 2787.9757,-128.7774"/>
</g>
<!-- Node80 -->
<g id="node39" class="node">
<title>Node80</title>
<g id="a_node39"><a xlink:href="ForwardEuler_8cpp.html" target="_top" xlink:title="ForwardEuler.cpp">
<polygon fill="none" stroke="#000000" points="4821.7907,-62 4821.7907,-81 4921.7907,-81 4921.7907,-62 4821.7907,-62"/>
<text text-anchor="middle" x="4871.7907" y="-69" font-family="FreeSans.ttf" font-size="10.00" fill="#000000">ForwardEuler.cpp</text>
</a>
</g>
</g>
<!-- Node33&#45;&gt;Node80 -->
<g id="edge39" class="edge">
<title>Node33&#45;&gt;Node80</title>
<path fill="none" stroke="#191970" d="M2788.3416,-132.5364C3098.2133,-129.8483 4606.5899,-115.3868 4811.7907,-87 4821.2756,-85.6879 4831.4174,-83.4147 4840.613,-81.0073"/>
<polygon fill="#191970" stroke="#191970" points="2788.22,-129.0372 2778.2505,-132.6235 2788.2804,-136.037 2788.22,-129.0372"/>
</g>
<!-- Node33&#45;&gt;Node94 -->
<g id="edge40" class="edge">
<title>Node33&#45;&gt;Node94</title>
<path fill="none" stroke="#191970" d="M2677.3877,-132.5719C2411.8969,-130.3718 1268.0803,-119.1655 912.7907,-87 897.6304,-85.6275 881.2679,-83.3824 866.2962,-81.0216"/>
<polygon fill="#191970" stroke="#191970" points="2677.5256,-136.0731 2687.554,-132.6553 2677.5831,-129.0733 2677.5256,-136.0731"/>
</g>
<!-- Node34&#45;&gt;Node36 -->
<g id="edge3" class="edge">
<title>Node34&#45;&gt;Node36</title>
<path fill="none" stroke="#191970" d="M925.753,-59.0797C921.4113,-57.9189 917.0251,-56.8582 912.7907,-56 780.4529,-29.1788 622.2089,-17.4563 537.1451,-12.7756"/>
<polygon fill="#191970" stroke="#191970" points="925.1342,-62.5428 935.7109,-61.9217 927.0554,-55.8116 925.1342,-62.5428"/>
</g>
<!-- Node34&#45;&gt;Node38 -->
<g id="edge4" class="edge">
<title>Node34&#45;&gt;Node38</title>
<path fill="none" stroke="#191970" d="M1000.038,-59.1201C1004.9472,-57.8462 1009.9579,-56.7471 1014.7907,-56 1213.6543,-25.2589 4380.0001,-12.1375 4882.7583,-10.2436"/>
<polygon fill="#191970" stroke="#191970" points="998.8519,-55.8187 990.1931,-61.9239 1000.7693,-62.5509 998.8519,-55.8187"/>
</g>
<!-- Node107&#45;&gt;Node42 -->
<g id="edge42" class="edge">
<title>Node107&#45;&gt;Node42</title>
<path fill="none" stroke="#191970" d="M505.3485,-119.7993C535.8535,-108.1468 579.5896,-91.4402 606.8111,-81.0419"/>
<polygon fill="#191970" stroke="#191970" points="504.0396,-116.5526 495.9469,-123.3906 506.5376,-123.0917 504.0396,-116.5526"/>
</g>
<!-- Node107&#45;&gt;Node46 -->
<g id="edge43" class="edge">
<title>Node107&#45;&gt;Node46</title>
<path fill="none" stroke="#191970" d="M422.1508,-122.9684C381.6805,-114.3323 322.6747,-101.0692 271.7907,-87 265.2916,-85.203 258.3596,-83.0848 251.8431,-81.0011"/>
<polygon fill="#191970" stroke="#191970" points="421.5157,-126.4115 432.0243,-125.062 422.9678,-119.5637 421.5157,-126.4115"/>
</g>
<!-- Node107&#45;&gt;Node49 -->
<g id="edge44" class="edge">
<title>Node107&#45;&gt;Node49</title>
<path fill="none" stroke="#191970" d="M439.9232,-119.3428C413.6401,-107.7139 376.5535,-91.3051 353.3569,-81.0419"/>
<polygon fill="#191970" stroke="#191970" points="438.5109,-122.5452 449.0719,-123.3906 441.3432,-116.1437 438.5109,-122.5452"/>
</g>
<!-- Node107&#45;&gt;Node65 -->
<g id="edge45" class="edge">
<title>Node107&#45;&gt;Node65</title>
<path fill="none" stroke="#191970" d="M470.7907,-113.2462C470.7907,-102.5519 470.7907,-89.814 470.7907,-81.2449"/>
<polygon fill="#191970" stroke="#191970" points="467.2908,-113.3906 470.7907,-123.3906 474.2908,-113.3907 467.2908,-113.3906"/>
</g>
<!-- Node107&#45;&gt;Node68 -->
<g id="edge46" class="edge">
<title>Node107&#45;&gt;Node68</title>
<path fill="none" stroke="#191970" d="M422.0035,-125.8168C363.4477,-117.0973 262.3188,-101.7266 175.7907,-87 164.9724,-85.1588 153.3896,-83.0869 142.3883,-81.0715"/>
<polygon fill="#191970" stroke="#191970" points="421.6721,-129.3059 432.078,-127.3139 422.7011,-122.382 421.6721,-129.3059"/>
</g>
<!-- Node107&#45;&gt;Node94 -->
<g id="edge47" class="edge">
<title>Node107&#45;&gt;Node94</title>
<path fill="none" stroke="#191970" d="M519.673,-124.2354C583.5028,-112.7907 694.8341,-92.829 760.6834,-81.0222"/>
<polygon fill="#191970" stroke="#191970" points="518.6957,-120.8547 509.4704,-126.0647 519.9312,-127.7448 518.6957,-120.8547"/>
</g>
<!-- Node227&#45;&gt;Node46 -->
<g id="edge49" class="edge">
<title>Node227&#45;&gt;Node46</title>
<path fill="none" stroke="#191970" d="M306.178,-118.415C285.8768,-106.8546 258.0961,-91.035 240.5472,-81.0419"/>
<polygon fill="#191970" stroke="#191970" points="304.4939,-121.4836 314.9157,-123.3906 307.9578,-115.4007 304.4939,-121.4836"/>
</g>
<!-- Node227&#45;&gt;Node49 -->
<g id="edge50" class="edge">
<title>Node227&#45;&gt;Node49</title>
<path fill="none" stroke="#191970" d="M331.7907,-113.2462C331.7907,-102.5519 331.7907,-89.814 331.7907,-81.2449"/>
<polygon fill="#191970" stroke="#191970" points="328.2908,-113.3906 331.7907,-123.3906 335.2908,-113.3907 328.2908,-113.3906"/>
</g>
<!-- Node227&#45;&gt;Node65 -->
<g id="edge51" class="edge">
<title>Node227&#45;&gt;Node65</title>
<path fill="none" stroke="#191970" d="M362.6582,-119.3428C388.9413,-107.7139 426.0279,-91.3051 449.2245,-81.0419"/>
<polygon fill="#191970" stroke="#191970" points="361.2382,-116.1437 353.5094,-123.3906 364.0705,-122.5452 361.2382,-116.1437"/>
</g>
<!-- Node227&#45;&gt;Node68 -->
<g id="edge52" class="edge">
<title>Node227&#45;&gt;Node68</title>
<path fill="none" stroke="#191970" d="M296.7281,-124.0152C252.0107,-112.5564 175.0026,-92.8231 129.1919,-81.0841"/>
<polygon fill="#191970" stroke="#191970" points="296.0043,-127.4427 306.5601,-126.5347 297.7419,-120.6618 296.0043,-127.4427"/>
</g>
<!-- Node231&#45;&gt;Node76 -->
<g id="edge60" class="edge">
<title>Node231&#45;&gt;Node76</title>
<path fill="none" stroke="#191970" d="M5176.4736,-113.5832C5179.6237,-102.8205 5183.4041,-89.9042 5185.9385,-81.2449"/>
<polygon fill="#191970" stroke="#191970" points="5173.0532,-112.8101 5173.6032,-123.3906 5179.7713,-114.7764 5173.0532,-112.8101"/>
</g>
<!-- Node233&#45;&gt;Node70 -->
<g id="edge62" class="edge">
<title>Node233&#45;&gt;Node70</title>
<path fill="none" stroke="#191970" d="M5055.1077,-113.5832C5051.9577,-102.8205 5048.1773,-89.9042 5045.6428,-81.2449"/>
<polygon fill="#191970" stroke="#191970" points="5051.8101,-114.7764 5057.9782,-123.3906 5058.5282,-112.8101 5051.8101,-114.7764"/>
</g>
<!-- Node233&#45;&gt;Node76 -->
<g id="edge63" class="edge">
<title>Node233&#45;&gt;Node76</title>
<path fill="none" stroke="#191970" d="M5089.8546,-119.0357C5114.0168,-107.4265 5147.7576,-91.2151 5168.9311,-81.0419"/>
<polygon fill="#191970" stroke="#191970" points="5088.2885,-115.9051 5080.7907,-123.3906 5091.3201,-122.2146 5088.2885,-115.9051"/>
</g>
</g>
</svg>
