<?xml version="1.0" encoding="UTF-8" standalone="no"?>
<!DOCTYPE svg PUBLIC "-//W3C//DTD SVG 1.1//EN"
 "http://www.w3.org/Graphics/SVG/1.1/DTD/svg11.dtd">
<!-- Generated by graphviz version 2.40.1 (20161225.0304)
 -->
<!-- Title: URDFDocument.cpp Pages: 1 -->
<svg width="2749pt" height="665pt"
 viewBox="0.00 0.00 2749.00 665.00" xmlns="http://www.w3.org/2000/svg" xmlns:xlink="http://www.w3.org/1999/xlink">
<g id="graph0" class="graph" transform="scale(1 1) rotate(0) translate(4 661)">
<title>URDFDocument.cpp</title>
<!-- Node0 -->
<g id="node1" class="node">
<title>Node0</title>
<polygon fill="#bfbfbf" stroke="#000000" points="1690,-637.5 1690,-656.5 1804,-656.5 1804,-637.5 1690,-637.5"/>
<text text-anchor="middle" x="1747" y="-644.5" font-family="FreeSans.ttf" font-size="10.00" fill="#000000">URDFDocument.cpp</text>
</g>
<!-- Node1 -->
<g id="node2" class="node">
<title>Node1</title>
<g id="a_node2"><a xlink:href="URDFDocument_8h.html" target="_top" xlink:title="URDFDocument.h">
<polygon fill="none" stroke="#000000" points="954.5,-581.5 954.5,-600.5 1057.5,-600.5 1057.5,-581.5 954.5,-581.5"/>
<text text-anchor="middle" x="1006" y="-588.5" font-family="FreeSans.ttf" font-size="10.00" fill="#000000">URDFDocument.h</text>
</a>
</g>
</g>
<!-- Node0&#45;&gt;Node1 -->
<g id="edge1" class="edge">
<title>Node0&#45;&gt;Node1</title>
<path fill="none" stroke="#191970" d="M1689.7788,-642.6756C1553.1664,-632.3513 1208.8773,-606.3322 1067.7744,-595.6685"/>
<polygon fill="#191970" stroke="#191970" points="1067.8046,-592.1609 1057.5692,-594.8973 1067.277,-599.141 1067.8046,-592.1609"/>
</g>
<!-- Node68 -->
<g id="node33" class="node">
<title>Node68</title>
<g id="a_node33"><a xlink:href="RobotElement_8h.html" target="_top" xlink:title="RobotElement.h">
<polygon fill="none" stroke="#000000" points="470,-520 470,-539 564,-539 564,-520 470,-520"/>
<text text-anchor="middle" x="517" y="-527" font-family="FreeSans.ttf" font-size="10.00" fill="#000000">RobotElement.h</text>
</a>
</g>
</g>
<!-- Node0&#45;&gt;Node68 -->
<g id="edge94" class="edge">
<title>Node0&#45;&gt;Node68</title>
<path fill="none" stroke="#191970" d="M1689.5504,-645.5078C1557.7889,-641.6906 1223.794,-629.7686 946,-601 779.2561,-583.7318 736.9695,-579.8672 573,-545 568.3131,-544.0034 563.4375,-542.8429 558.6047,-541.6138"/>
<polygon fill="#191970" stroke="#191970" points="559.3813,-538.1989 548.8187,-539.0249 557.5909,-544.9661 559.3813,-538.1989"/>
</g>
<!-- Node69 -->
<g id="node34" class="node">
<title>Node69</title>
<g id="a_node34"><a xlink:href="PrismaticJoint_8h.html" target="_top" xlink:title="iDynTree/Model/Prismatic\lJoint.h">
<polygon fill="none" stroke="#000000" points="2264,-447.5 2264,-477.5 2404,-477.5 2404,-447.5 2264,-447.5"/>
<text text-anchor="start" x="2272" y="-465.5" font-family="FreeSans.ttf" font-size="10.00" fill="#000000">iDynTree/Model/Prismatic</text>
<text text-anchor="middle" x="2334" y="-454.5" font-family="FreeSans.ttf" font-size="10.00" fill="#000000">Joint.h</text>
</a>
</g>
</g>
<!-- Node0&#45;&gt;Node69 -->
<g id="edge101" class="edge">
<title>Node0&#45;&gt;Node69</title>
<path fill="none" stroke="#191970" d="M1743.6306,-637.3554C1735.7907,-612.9657 1719.3649,-548.3325 1752,-514 1785.8593,-478.3797 2101.9864,-467.1764 2253.6125,-463.835"/>
<polygon fill="#191970" stroke="#191970" points="2253.8755,-467.3303 2263.7983,-463.6169 2253.7256,-460.3319 2253.8755,-467.3303"/>
</g>
<!-- Node71 -->
<g id="node41" class="node">
<title>Node71</title>
<g id="a_node41"><a xlink:href="RevoluteJoint_8h.html" target="_top" xlink:title="iDynTree/Model/RevoluteJoint.h">
<polygon fill="none" stroke="#000000" points="2500,-453 2500,-472 2668,-472 2668,-453 2500,-453"/>
<text text-anchor="middle" x="2584" y="-460" font-family="FreeSans.ttf" font-size="10.00" fill="#000000">iDynTree/Model/RevoluteJoint.h</text>
</a>
</g>
</g>
<!-- Node0&#45;&gt;Node71 -->
<g id="edge120" class="edge">
<title>Node0&#45;&gt;Node71</title>
<path fill="none" stroke="#191970" d="M1749.8544,-637.0335C1754.6693,-622.1759 1765.9026,-594.522 1786,-581 1843.6456,-542.2146 2291.3488,-492.3622 2489.812,-471.9001"/>
<polygon fill="#191970" stroke="#191970" points="2490.3449,-475.3638 2499.9346,-470.8596 2489.6291,-468.4005 2490.3449,-475.3638"/>
</g>
<!-- Node72 -->
<g id="node42" class="node">
<title>Node72</title>
<g id="a_node42"><a xlink:href="ModelTransformers_8h.html" target="_top" xlink:title="Collection of function to modify model in various ways. ">
<polygon fill="none" stroke="#000000" points="1794.5,-581.5 1794.5,-600.5 1991.5,-600.5 1991.5,-581.5 1794.5,-581.5"/>
<text text-anchor="middle" x="1893" y="-588.5" font-family="FreeSans.ttf" font-size="10.00" fill="#000000">iDynTree/Model/ModelTransformers.h</text>
</a>
</g>
</g>
<!-- Node0&#45;&gt;Node72 -->
<g id="edge126" class="edge">
<title>Node0&#45;&gt;Node72</title>
<path fill="none" stroke="#191970" d="M1772.0983,-637.3733C1795.9555,-628.2226 1832.0335,-614.3844 1858.571,-604.2057"/>
<polygon fill="#191970" stroke="#191970" points="1860.1459,-607.3503 1868.2292,-600.5011 1857.639,-600.8145 1860.1459,-607.3503"/>
</g>
<!-- Node73 -->
<g id="node43" class="node">
<title>Node73</title>
<g id="a_node43"><a xlink:href="SixAxisForceTorqueSensor_8h.html" target="_top" xlink:title="iDynTree/Sensors/SixAxis\lForceTorqueSensor.h">
<polygon fill="none" stroke="#000000" points="1560,-514.5 1560,-544.5 1700,-544.5 1700,-514.5 1560,-514.5"/>
<text text-anchor="start" x="1568" y="-532.5" font-family="FreeSans.ttf" font-size="10.00" fill="#000000">iDynTree/Sensors/SixAxis</text>
<text text-anchor="middle" x="1630" y="-521.5" font-family="FreeSans.ttf" font-size="10.00" fill="#000000">ForceTorqueSensor.h</text>
</a>
</g>
</g>
<!-- Node0&#45;&gt;Node73 -->
<g id="edge127" class="edge">
<title>Node0&#45;&gt;Node73</title>
<path fill="none" stroke="#191970" d="M1737.4254,-637.3845C1718.9471,-618.8272 1677.9307,-577.6355 1652.265,-551.8601"/>
<polygon fill="#191970" stroke="#191970" points="1654.6857,-549.3309 1645.1496,-544.7143 1649.7254,-554.2701 1654.6857,-549.3309"/>
</g>
<!-- Node17 -->
<g id="node49" class="node">
<title>Node17</title>
<polygon fill="none" stroke="#bfbfbf" points="2010,-581.5 2010,-600.5 2074,-600.5 2074,-581.5 2010,-581.5"/>
<text text-anchor="middle" x="2042" y="-588.5" font-family="FreeSans.ttf" font-size="10.00" fill="#000000">algorithm</text>
</g>
<!-- Node0&#45;&gt;Node17 -->
<g id="edge142" class="edge">
<title>Node0&#45;&gt;Node17</title>
<path fill="none" stroke="#191970" d="M1804.1883,-637.6528C1853.5766,-629.3511 1927.0622,-616.4534 1999.9948,-601.1234"/>
<polygon fill="#191970" stroke="#191970" points="2000.7551,-604.5401 2009.8129,-599.044 1999.3046,-597.692 2000.7551,-604.5401"/>
</g>
<!-- Node76 -->
<g id="node50" class="node">
<title>Node76</title>
<polygon fill="none" stroke="#bfbfbf" points="2092,-581.5 2092,-600.5 2178,-600.5 2178,-581.5 2092,-581.5"/>
<text text-anchor="middle" x="2135" y="-588.5" font-family="FreeSans.ttf" font-size="10.00" fill="#000000">unordered_set</text>
</g>
<!-- Node0&#45;&gt;Node76 -->
<g id="edge143" class="edge">
<title>Node0&#45;&gt;Node76</title>
<path fill="none" stroke="#191970" d="M1804.2141,-640.1213C1869.1019,-632.1062 1978.3058,-617.9722 2081.8961,-601.1135"/>
<polygon fill="#191970" stroke="#191970" points="2082.5996,-604.545 2091.9018,-599.4736 2081.4673,-597.6372 2082.5996,-604.545"/>
</g>
<!-- Node2 -->
<g id="node3" class="node">
<title>Node2</title>
<g id="a_node3"><a xlink:href="XMLDocument_8h.html" target="_top" xlink:title="iDynTree/XMLDocument.h">
<polygon fill="none" stroke="#000000" points="0,-319 0,-338 142,-338 142,-319 0,-319"/>
<text text-anchor="middle" x="71" y="-326" font-family="FreeSans.ttf" font-size="10.00" fill="#000000">iDynTree/XMLDocument.h</text>
</a>
</g>
</g>
<!-- Node1&#45;&gt;Node2 -->
<g id="edge2" class="edge">
<title>Node1&#45;&gt;Node2</title>
<path fill="none" stroke="#191970" d="M954.3411,-589.2451C805.0187,-583.933 379.7281,-567.0313 321,-545 211.3619,-503.8703 117.7426,-390.8636 84.2051,-346.6101"/>
<polygon fill="#191970" stroke="#191970" points="86.9298,-344.4091 78.1435,-338.4887 81.3201,-348.5961 86.9298,-344.4091"/>
</g>
<!-- Node4 -->
<g id="node5" class="node">
<title>Node4</title>
<polygon fill="none" stroke="#bfbfbf" points="1407,-.5 1407,-19.5 1451,-19.5 1451,-.5 1407,-.5"/>
<text text-anchor="middle" x="1429" y="-7.5" font-family="FreeSans.ttf" font-size="10.00" fill="#000000">string</text>
</g>
<!-- Node1&#45;&gt;Node4 -->
<g id="edge91" class="edge">
<title>Node1&#45;&gt;Node4</title>
<path fill="none" stroke="#191970" d="M1004.1387,-581.493C1001.2617,-566.9292 995.4915,-538.2352 990,-514 964.4634,-401.3012 928,-377.0558 928,-261.5 928,-261.5 928,-261.5 928,-127.5 928,-30.8807 1285.6517,-13.6506 1396.5869,-10.6301"/>
<polygon fill="#191970" stroke="#191970" points="1396.9172,-14.123 1406.8262,-10.3732 1396.7415,-7.1252 1396.9172,-14.123"/>
</g>
<!-- Node5 -->
<g id="node6" class="node">
<title>Node5</title>
<g id="a_node6"><a xlink:href="JointElement_8h.html" target="_top" xlink:title="JointElement.h">
<polygon fill="none" stroke="#000000" points="660,-386 660,-405 748,-405 748,-386 660,-386"/>
<text text-anchor="middle" x="704" y="-393" font-family="FreeSans.ttf" font-size="10.00" fill="#000000">JointElement.h</text>
</a>
</g>
</g>
<!-- Node1&#45;&gt;Node5 -->
<g id="edge5" class="edge">
<title>Node1&#45;&gt;Node5</title>
<path fill="none" stroke="#191970" d="M964.9135,-581.4445C937.4232,-573.9826 901.0922,-562.0041 872,-545 808.2218,-507.7222 746.9467,-443.8805 719.3152,-413.1059"/>
<polygon fill="#191970" stroke="#191970" points="721.6931,-410.5122 712.4397,-405.3523 716.4557,-415.1565 721.6931,-410.5122"/>
</g>
<!-- Node8 -->
<g id="node9" class="node">
<title>Node8</title>
<polygon fill="none" stroke="#bfbfbf" points="595.5,-252 595.5,-271 688.5,-271 688.5,-252 595.5,-252"/>
<text text-anchor="middle" x="642" y="-259" font-family="FreeSans.ttf" font-size="10.00" fill="#000000">unordered_map</text>
</g>
<!-- Node1&#45;&gt;Node8 -->
<g id="edge93" class="edge">
<title>Node1&#45;&gt;Node8</title>
<path fill="none" stroke="#191970" d="M954.3877,-583.4586C871.3168,-568.1274 711.187,-524.5664 651,-411 628.8668,-369.237 633.628,-311.4058 638.2493,-281.3822"/>
<polygon fill="#191970" stroke="#191970" points="641.733,-281.7733 639.9573,-271.3283 634.8318,-280.6008 641.733,-281.7733"/>
</g>
<!-- Node9 -->
<g id="node10" class="node">
<title>Node9</title>
<polygon fill="none" stroke="#bfbfbf" points="1118.5,-252 1118.5,-271 1165.5,-271 1165.5,-252 1118.5,-252"/>
<text text-anchor="middle" x="1142" y="-259" font-family="FreeSans.ttf" font-size="10.00" fill="#000000">vector</text>
</g>
<!-- Node1&#45;&gt;Node9 -->
<g id="edge92" class="edge">
<title>Node1&#45;&gt;Node9</title>
<path fill="none" stroke="#191970" d="M1057.6035,-588.7973C1160.071,-583.8923 1381.3254,-570.4463 1404,-545 1446.1447,-497.7037 1446.9847,-480.1265 1338,-380 1305.6662,-350.2943 1282.9363,-367.7405 1246,-344 1229.3426,-333.2935 1229.2059,-325.6839 1214,-313 1198.3627,-299.9563 1179.6246,-286.6187 1165.1845,-276.7856"/>
<polygon fill="#191970" stroke="#191970" points="1167.0648,-273.8322 1156.8151,-271.15 1163.155,-279.6386 1167.0648,-273.8322"/>
</g>
<!-- Node36 -->
<g id="node20" class="node">
<title>Node36</title>
<g id="a_node20"><a xlink:href="MaterialElement_8h.html" target="_top" xlink:title="MaterialElement.h">
<polygon fill="none" stroke="#000000" points="155,-386 155,-405 261,-405 261,-386 155,-386"/>
<text text-anchor="middle" x="208" y="-393" font-family="FreeSans.ttf" font-size="10.00" fill="#000000">MaterialElement.h</text>
</a>
</g>
</g>
<!-- Node1&#45;&gt;Node36 -->
<g id="edge39" class="edge">
<title>Node1&#45;&gt;Node36</title>
<path fill="none" stroke="#191970" d="M954.2761,-588.2457C837.114,-581.7457 554.4113,-564.5213 461,-545 370.4749,-526.0819 337.5586,-534.0519 264,-478 241.9266,-461.18 225.5383,-433.0735 216.371,-414.4122"/>
<polygon fill="#191970" stroke="#191970" points="219.4427,-412.7187 212.0307,-405.1482 213.1039,-415.6885 219.4427,-412.7187"/>
</g>
<!-- Node37 -->
<g id="node21" class="node">
<title>Node37</title>
<g id="a_node21"><a xlink:href="SensorElement_8h.html" target="_top" xlink:title="SensorElement.h">
<polygon fill="none" stroke="#000000" points="881.5,-520 881.5,-539 980.5,-539 980.5,-520 881.5,-520"/>
<text text-anchor="middle" x="931" y="-527" font-family="FreeSans.ttf" font-size="10.00" fill="#000000">SensorElement.h</text>
</a>
</g>
</g>
<!-- Node1&#45;&gt;Node37 -->
<g id="edge44" class="edge">
<title>Node1&#45;&gt;Node37</title>
<path fill="none" stroke="#191970" d="M994.2813,-581.3906C982.6812,-571.8786 964.7021,-557.1357 950.8679,-545.7917"/>
<polygon fill="#191970" stroke="#191970" points="952.836,-542.8792 942.884,-539.2449 948.3974,-548.2921 952.836,-542.8792"/>
</g>
<!-- Node38 -->
<g id="node22" class="node">
<title>Node38</title>
<g id="a_node22"><a xlink:href="Sensors_8h.html" target="_top" xlink:title="iDynTree/Sensors/Sensors.h">
<polygon fill="none" stroke="#000000" points="1120.5,-453 1120.5,-472 1271.5,-472 1271.5,-453 1120.5,-453"/>
<text text-anchor="middle" x="1196" y="-460" font-family="FreeSans.ttf" font-size="10.00" fill="#000000">iDynTree/Sensors/Sensors.h</text>
</a>
</g>
</g>
<!-- Node1&#45;&gt;Node38 -->
<g id="edge90" class="edge">
<title>Node1&#45;&gt;Node38</title>
<path fill="none" stroke="#191970" d="M1027.2856,-581.3418C1045.5322,-572.7222 1072.2385,-559.2849 1094,-545 1125.1542,-524.5495 1158.153,-496.5379 1177.9111,-478.9853"/>
<polygon fill="#191970" stroke="#191970" points="1180.4177,-481.4386 1185.5242,-472.1556 1175.7433,-476.228 1180.4177,-481.4386"/>
</g>
<!-- Node40 -->
<g id="node25" class="node">
<title>Node40</title>
<g id="a_node25"><a xlink:href="Model_8h.html" target="_top" xlink:title="iDynTree/Model/Model.h">
<polygon fill="none" stroke="#000000" points="1484.5,-386 1484.5,-405 1617.5,-405 1617.5,-386 1484.5,-386"/>
<text text-anchor="middle" x="1551" y="-393" font-family="FreeSans.ttf" font-size="10.00" fill="#000000">iDynTree/Model/Model.h</text>
</a>
</g>
</g>
<!-- Node1&#45;&gt;Node40 -->
<g id="edge89" class="edge">
<title>Node1&#45;&gt;Node40</title>
<path fill="none" stroke="#191970" d="M1057.6295,-588.5968C1171.3877,-582.9159 1436.2476,-567.4304 1470,-545 1516.1655,-514.3204 1538.1857,-448.215 1546.644,-415.1586"/>
<polygon fill="#191970" stroke="#191970" points="1550.0762,-415.8549 1549.0078,-405.3141 1543.2696,-414.2205 1550.0762,-415.8549"/>
</g>
<!-- Node66 -->
<g id="node31" class="node">
<title>Node66</title>
<g id="a_node31"><a xlink:href="VisualElement_8h.html" target="_top" xlink:title="VisualElement.h">
<polygon fill="none" stroke="#000000" points="472,-453 472,-472 568,-472 568,-453 472,-453"/>
<text text-anchor="middle" x="520" y="-460" font-family="FreeSans.ttf" font-size="10.00" fill="#000000">VisualElement.h</text>
</a>
</g>
</g>
<!-- Node1&#45;&gt;Node66 -->
<g id="edge74" class="edge">
<title>Node1&#45;&gt;Node66</title>
<path fill="none" stroke="#191970" d="M954.1496,-588.6334C862.3885,-583.8297 675.462,-571.1031 616,-545 598.2702,-537.2168 559.4598,-501.0562 536.9927,-479.2745"/>
<polygon fill="#191970" stroke="#191970" points="539.3886,-476.7223 529.7887,-472.2399 534.4981,-481.7305 539.3886,-476.7223"/>
</g>
<!-- Node67 -->
<g id="node32" class="node">
<title>Node67</title>
<g id="a_node32"><a xlink:href="ModelLoader_8h.html" target="_top" xlink:title="iDynTree/ModelIO/ModelLoader.h">
<polygon fill="none" stroke="#000000" points="1219,-520 1219,-539 1395,-539 1395,-520 1219,-520"/>
<text text-anchor="middle" x="1307" y="-527" font-family="FreeSans.ttf" font-size="10.00" fill="#000000">iDynTree/ModelIO/ModelLoader.h</text>
</a>
</g>
</g>
<!-- Node1&#45;&gt;Node67 -->
<g id="edge83" class="edge">
<title>Node1&#45;&gt;Node67</title>
<path fill="none" stroke="#191970" d="M1052.701,-581.4581C1105.9759,-570.573 1193.0845,-552.7751 1250.2334,-541.0985"/>
<polygon fill="#191970" stroke="#191970" points="1251.0925,-544.4953 1260.1894,-539.0643 1249.6912,-537.637 1251.0925,-544.4953"/>
</g>
<!-- Node3 -->
<g id="node4" class="node">
<title>Node3</title>
<polygon fill="none" stroke="#bfbfbf" points="293,-252 293,-271 351,-271 351,-252 293,-252"/>
<text text-anchor="middle" x="322" y="-259" font-family="FreeSans.ttf" font-size="10.00" fill="#000000">memory</text>
</g>
<!-- Node2&#45;&gt;Node3 -->
<g id="edge3" class="edge">
<title>Node2&#45;&gt;Node3</title>
<path fill="none" stroke="#191970" d="M106.6956,-318.9717C153.3214,-306.5257 234.6758,-284.8096 282.9166,-271.9326"/>
<polygon fill="#191970" stroke="#191970" points="283.9246,-275.2862 292.6836,-269.3255 282.1192,-268.523 283.9246,-275.2862"/>
</g>
<!-- Node2&#45;&gt;Node4 -->
<g id="edge4" class="edge">
<title>Node2&#45;&gt;Node4</title>
<path fill="none" stroke="#191970" d="M74.8012,-318.9247C83.0791,-297.1806 102,-242.2566 102,-194.5 102,-194.5 102,-194.5 102,-127.5 102,-87.6776 120.6783,-74.3903 156,-56 212.6722,-26.4935 1204.6888,-12.7705 1396.8968,-10.3826"/>
<polygon fill="#191970" stroke="#191970" points="1396.9727,-13.8821 1406.9289,-10.2593 1396.8866,-6.8826 1396.9727,-13.8821"/>
</g>
<!-- Node5&#45;&gt;Node3 -->
<g id="edge36" class="edge">
<title>Node5&#45;&gt;Node3</title>
<path fill="none" stroke="#191970" d="M686.6024,-385.8822C655.6881,-369.1174 588.8023,-334.3015 529,-313 471.9553,-292.6808 403.3303,-277.3075 361.1923,-268.8519"/>
<polygon fill="#191970" stroke="#191970" points="361.8196,-265.4082 351.3306,-266.9025 360.4621,-272.2754 361.8196,-265.4082"/>
</g>
<!-- Node5&#45;&gt;Node4 -->
<g id="edge37" class="edge">
<title>Node5&#45;&gt;Node4</title>
<path fill="none" stroke="#191970" d="M713.7102,-385.7185C733.3632,-364.8329 776,-313.5266 776,-261.5 776,-261.5 776,-261.5 776,-127.5 776,-85.4389 800.4438,-74.9385 838,-56 888.0131,-30.7799 1280.3677,-15.1877 1396.6372,-11.0871"/>
<polygon fill="#191970" stroke="#191970" points="1396.8284,-14.5827 1406.7005,-10.7367 1396.5847,-7.5869 1396.8284,-14.5827"/>
</g>
<!-- Node6 -->
<g id="node7" class="node">
<title>Node6</title>
<g id="a_node7"><a xlink:href="XMLElement_8h.html" target="_top" xlink:title="iDynTree/XMLElement.h">
<polygon fill="none" stroke="#000000" points="388,-319 388,-338 520,-338 520,-319 388,-319"/>
<text text-anchor="middle" x="454" y="-326" font-family="FreeSans.ttf" font-size="10.00" fill="#000000">iDynTree/XMLElement.h</text>
</a>
</g>
</g>
<!-- Node5&#45;&gt;Node6 -->
<g id="edge6" class="edge">
<title>Node5&#45;&gt;Node6</title>
<path fill="none" stroke="#191970" d="M668.4466,-385.9717C624.146,-374.0991 548.369,-353.7909 499.772,-340.7669"/>
<polygon fill="#191970" stroke="#191970" points="500.4007,-337.3119 489.8355,-338.1039 498.5886,-344.0733 500.4007,-337.3119"/>
</g>
<!-- Node5&#45;&gt;Node8 -->
<g id="edge38" class="edge">
<title>Node5&#45;&gt;Node8</title>
<path fill="none" stroke="#191970" d="M701.5058,-385.5246C697.3495,-369.6793 688.2393,-337.9949 676,-313 670.2871,-301.3333 662.3587,-289.1651 655.595,-279.5877"/>
<polygon fill="#191970" stroke="#191970" points="658.2851,-277.3356 649.5774,-271.3 652.6207,-281.4484 658.2851,-277.3356"/>
</g>
<!-- Node10 -->
<g id="node11" class="node">
<title>Node10</title>
<g id="a_node11"><a xlink:href="Axis_8h.html" target="_top" xlink:title="iDynTree/Core/Axis.h">
<polygon fill="none" stroke="#000000" points="2623,-252 2623,-271 2741,-271 2741,-252 2623,-252"/>
<text text-anchor="middle" x="2682" y="-259" font-family="FreeSans.ttf" font-size="10.00" fill="#000000">iDynTree/Core/Axis.h</text>
</a>
</g>
</g>
<!-- Node5&#45;&gt;Node10 -->
<g id="edge12" class="edge">
<title>Node5&#45;&gt;Node10</title>
<path fill="none" stroke="#191970" d="M748.3458,-393.8948C959.8388,-386.204 1858.2242,-353.1219 1917,-344 1968.8854,-335.9474 1979.1945,-321.5513 2031,-313 2287.1386,-270.7203 2357.0412,-313.9692 2614,-277 2620.8445,-276.0153 2628.0194,-274.6985 2635.0365,-273.2469"/>
<polygon fill="#191970" stroke="#191970" points="2636.1207,-276.5929 2645.1478,-271.0465 2634.6322,-269.753 2636.1207,-276.5929"/>
</g>
<!-- Node34 -->
<g id="node17" class="node">
<title>Node34</title>
<g id="a_node17"><a xlink:href="Transform_8h.html" target="_top" xlink:title="iDynTree/Core/Transform.h">
<polygon fill="none" stroke="#000000" points="1625,-252 1625,-271 1771,-271 1771,-252 1625,-252"/>
<text text-anchor="middle" x="1698" y="-259" font-family="FreeSans.ttf" font-size="10.00" fill="#000000">iDynTree/Core/Transform.h</text>
</a>
</g>
</g>
<!-- Node5&#45;&gt;Node34 -->
<g id="edge26" class="edge">
<title>Node5&#45;&gt;Node34</title>
<path fill="none" stroke="#191970" d="M737.7827,-385.9746C746.2922,-383.7961 755.4415,-381.6416 764,-380 926.8125,-348.7719 1418.0278,-292.6313 1614.9861,-270.6651"/>
<polygon fill="#191970" stroke="#191970" points="1615.4385,-274.1365 1624.9895,-269.5507 1614.6634,-267.1795 1615.4385,-274.1365"/>
</g>
<!-- Node6&#45;&gt;Node3 -->
<g id="edge8" class="edge">
<title>Node6&#45;&gt;Node3</title>
<path fill="none" stroke="#191970" d="M435.0876,-318.9005C412.837,-307.6067 375.6878,-288.7506 350.0741,-275.7497"/>
<polygon fill="#191970" stroke="#191970" points="351.3785,-272.4868 340.8773,-271.0817 348.2102,-278.7288 351.3785,-272.4868"/>
</g>
<!-- Node6&#45;&gt;Node4 -->
<g id="edge9" class="edge">
<title>Node6&#45;&gt;Node4</title>
<path fill="none" stroke="#191970" d="M462.3615,-318.9167C470.5524,-309.0489 482.8199,-292.909 490,-277 505.5204,-242.6114 510,-232.2287 510,-194.5 510,-194.5 510,-194.5 510,-127.5 510,-93.9798 507.2979,-76.2633 534,-56 569.0246,-29.421 1240.1721,-13.912 1396.6046,-10.6492"/>
<polygon fill="#191970" stroke="#191970" points="1397.0367,-14.1411 1406.9624,-10.4355 1396.8922,-7.1426 1397.0367,-14.1411"/>
</g>
<!-- Node7 -->
<g id="node8" class="node">
<title>Node7</title>
<polygon fill="none" stroke="#bfbfbf" points="416.5,-252 416.5,-271 481.5,-271 481.5,-252 416.5,-252"/>
<text text-anchor="middle" x="449" y="-259" font-family="FreeSans.ttf" font-size="10.00" fill="#000000">functional</text>
</g>
<!-- Node6&#45;&gt;Node7 -->
<g id="edge7" class="edge">
<title>Node6&#45;&gt;Node7</title>
<path fill="none" stroke="#191970" d="M453.2836,-318.9005C452.5559,-309.149 451.4074,-293.7597 450.4828,-281.3695"/>
<polygon fill="#191970" stroke="#191970" points="453.9496,-280.7934 449.715,-271.0817 446.969,-281.3144 453.9496,-280.7934"/>
</g>
<!-- Node6&#45;&gt;Node8 -->
<g id="edge10" class="edge">
<title>Node6&#45;&gt;Node8</title>
<path fill="none" stroke="#191970" d="M480.9358,-318.9005C513.6033,-307.2584 568.8188,-287.5805 605.3425,-274.5641"/>
<polygon fill="#191970" stroke="#191970" points="606.8694,-277.7356 615.1142,-271.0817 604.5195,-271.1418 606.8694,-277.7356"/>
</g>
<!-- Node6&#45;&gt;Node9 -->
<g id="edge11" class="edge">
<title>Node6&#45;&gt;Node9</title>
<path fill="none" stroke="#191970" d="M520.2806,-322.0453C664.1775,-308.0321 1000.8815,-275.2426 1108.3794,-264.7741"/>
<polygon fill="#191970" stroke="#191970" points="1108.7266,-268.2569 1118.3403,-263.8041 1108.0481,-261.2899 1108.7266,-268.2569"/>
</g>
<!-- Node10&#45;&gt;Node4 -->
<g id="edge13" class="edge">
<title>Node10&#45;&gt;Node4</title>
<path fill="none" stroke="#191970" d="M2651.0256,-251.9592C2618.5272,-241.8633 2566.0103,-225.3055 2521,-210 2482.5335,-196.9197 2474.1509,-189.8616 2435,-179 2355.5449,-156.9567 2317.5115,-194.3545 2253,-143 2219.8477,-116.6091 2248.8779,-80.0643 2214,-56 2182.5487,-34.2999 1605.549,-15.3683 1461.4167,-10.9639"/>
<polygon fill="#191970" stroke="#191970" points="1461.1521,-7.4544 1451.0505,-10.6495 1460.9398,-14.4512 1461.1521,-7.4544"/>
</g>
<!-- Node11 -->
<g id="node12" class="node">
<title>Node11</title>
<g id="a_node12"><a xlink:href="Direction_8h.html" target="_top" xlink:title="iDynTree/Core/Direction.h">
<polygon fill="none" stroke="#000000" points="2261.5,-118 2261.5,-137 2402.5,-137 2402.5,-118 2261.5,-118"/>
<text text-anchor="middle" x="2332" y="-125" font-family="FreeSans.ttf" font-size="10.00" fill="#000000">iDynTree/Core/Direction.h</text>
</a>
</g>
</g>
<!-- Node10&#45;&gt;Node11 -->
<g id="edge14" class="edge">
<title>Node10&#45;&gt;Node11</title>
<path fill="none" stroke="#191970" d="M2666.0619,-251.9135C2637.7256,-235.1969 2576.3477,-200.4534 2521,-179 2477.0457,-161.9627 2425.2798,-148.2768 2387.048,-139.3079"/>
<polygon fill="#191970" stroke="#191970" points="2387.6694,-135.8593 2377.138,-137.0175 2386.093,-142.6795 2387.6694,-135.8593"/>
</g>
<!-- Node13 -->
<g id="node14" class="node">
<title>Node13</title>
<g id="a_node14"><a xlink:href="Utils_8h.html" target="_top" xlink:title="iDynTree/Core/Utils.h">
<polygon fill="none" stroke="#ff0000" points="2272.5,-.5 2272.5,-19.5 2391.5,-19.5 2391.5,-.5 2272.5,-.5"/>
<text text-anchor="middle" x="2332" y="-7.5" font-family="FreeSans.ttf" font-size="10.00" fill="#000000">iDynTree/Core/Utils.h</text>
</a>
</g>
</g>
<!-- Node10&#45;&gt;Node13 -->
<g id="edge25" class="edge">
<title>Node10&#45;&gt;Node13</title>
<path fill="none" stroke="#191970" d="M2674.4736,-251.8188C2648.8237,-219.4441 2561.1283,-113.7474 2466,-56 2440.9417,-40.7884 2410.1728,-29.7705 2384.4413,-22.3384"/>
<polygon fill="#191970" stroke="#191970" points="2385.058,-18.8771 2374.4857,-19.5669 2383.1806,-25.6206 2385.058,-18.8771"/>
</g>
<!-- Node26 -->
<g id="node15" class="node">
<title>Node26</title>
<g id="a_node15"><a xlink:href="Position_8h.html" target="_top" xlink:title="iDynTree/Core/Position.h">
<polygon fill="none" stroke="#ff0000" points="1971,-185 1971,-204 2107,-204 2107,-185 1971,-185"/>
<text text-anchor="middle" x="2039" y="-192" font-family="FreeSans.ttf" font-size="10.00" fill="#000000">iDynTree/Core/Position.h</text>
</a>
</g>
</g>
<!-- Node10&#45;&gt;Node26 -->
<g id="edge20" class="edge">
<title>Node10&#45;&gt;Node26</title>
<path fill="none" stroke="#191970" d="M2644.4091,-251.9805C2634.5647,-249.7494 2623.9268,-247.5686 2614,-246 2520.4708,-231.2209 2251.7573,-210.2022 2117.4183,-200.2061"/>
<polygon fill="#191970" stroke="#191970" points="2117.4295,-196.6974 2107.1979,-199.4476 2116.9114,-203.6782 2117.4295,-196.6974"/>
</g>
<!-- Node11&#45;&gt;Node4 -->
<g id="edge15" class="edge">
<title>Node11&#45;&gt;Node4</title>
<path fill="none" stroke="#191970" d="M2324.3268,-117.876C2310.7426,-101.6641 2280.6969,-69.3716 2247,-56 2173.0709,-26.6634 1603.8755,-13.4749 1461.3008,-10.6119"/>
<polygon fill="#191970" stroke="#191970" points="1461.1099,-7.1075 1451.0426,-10.4091 1460.9715,-14.1062 1461.1099,-7.1075"/>
</g>
<!-- Node12 -->
<g id="node13" class="node">
<title>Node12</title>
<g id="a_node13"><a xlink:href="VectorFixSize_8h.html" target="_top" xlink:title="iDynTree/Core/VectorFixSize.h">
<polygon fill="none" stroke="#ff0000" points="2043.5,-56.5 2043.5,-75.5 2204.5,-75.5 2204.5,-56.5 2043.5,-56.5"/>
<text text-anchor="middle" x="2124" y="-63.5" font-family="FreeSans.ttf" font-size="10.00" fill="#000000">iDynTree/Core/VectorFixSize.h</text>
</a>
</g>
</g>
<!-- Node11&#45;&gt;Node12 -->
<g id="edge16" class="edge">
<title>Node11&#45;&gt;Node12</title>
<path fill="none" stroke="#191970" d="M2299.5,-117.8906C2263.553,-107.2621 2205.5173,-90.1025 2166.112,-78.4514"/>
<polygon fill="#191970" stroke="#191970" points="2166.8538,-75.021 2156.2718,-75.5419 2164.869,-81.7337 2166.8538,-75.021"/>
</g>
<!-- Node11&#45;&gt;Node13 -->
<g id="edge19" class="edge">
<title>Node11&#45;&gt;Node13</title>
<path fill="none" stroke="#191970" d="M2332,-117.8845C2332,-98.6913 2332,-55.286 2332,-29.7663"/>
<polygon fill="#191970" stroke="#191970" points="2335.5001,-29.7483 2332,-19.7484 2328.5001,-29.7484 2335.5001,-29.7483"/>
</g>
<!-- Node12&#45;&gt;Node4 -->
<g id="edge18" class="edge">
<title>Node12&#45;&gt;Node4</title>
<path fill="none" stroke="#191970" d="M2043.4222,-57.3585C2038.5435,-56.8848 2033.7071,-56.4281 2029,-56 1812.296,-36.2915 1551.0424,-18.203 1461.1792,-12.1445"/>
<polygon fill="#191970" stroke="#191970" points="1461.2966,-8.6446 1451.0844,-11.466 1460.8271,-15.6289 1461.2966,-8.6446"/>
</g>
<!-- Node12&#45;&gt;Node13 -->
<g id="edge17" class="edge">
<title>Node12&#45;&gt;Node13</title>
<path fill="none" stroke="#191970" d="M2159.7565,-56.3733C2194.9426,-46.9001 2248.7881,-32.4032 2286.8956,-22.1435"/>
<polygon fill="#191970" stroke="#191970" points="2287.9639,-25.4806 2296.7101,-19.5011 2286.144,-18.7213 2287.9639,-25.4806"/>
</g>
<!-- Node26&#45;&gt;Node4 -->
<g id="edge24" class="edge">
<title>Node26&#45;&gt;Node4</title>
<path fill="none" stroke="#191970" d="M2017.4466,-184.9797C1972.9685,-165.2501 1867.8984,-118.2135 1781,-76 1763.4783,-67.4883 1760.5518,-61.9403 1742,-56 1642.9813,-24.2941 1519.2566,-14.3259 1461.5062,-11.2838"/>
<polygon fill="#191970" stroke="#191970" points="1461.346,-7.7719 1451.1867,-10.778 1461.0033,-14.7635 1461.346,-7.7719"/>
</g>
<!-- Node29 -->
<g id="node16" class="node">
<title>Node29</title>
<g id="a_node16"><a xlink:href="Rotation_8h.html" target="_top" xlink:title="iDynTree/Core/Rotation.h">
<polygon fill="none" stroke="#ff0000" points="1970.5,-118 1970.5,-137 2107.5,-137 2107.5,-118 1970.5,-118"/>
<text text-anchor="middle" x="2039" y="-125" font-family="FreeSans.ttf" font-size="10.00" fill="#000000">iDynTree/Core/Rotation.h</text>
</a>
</g>
</g>
<!-- Node26&#45;&gt;Node29 -->
<g id="edge21" class="edge">
<title>Node26&#45;&gt;Node29</title>
<path fill="none" stroke="#191970" d="M2039,-184.9005C2039,-175.149 2039,-159.7597 2039,-147.3695"/>
<polygon fill="#191970" stroke="#191970" points="2042.5001,-147.0816 2039,-137.0817 2035.5001,-147.0817 2042.5001,-147.0816"/>
</g>
<!-- Node29&#45;&gt;Node4 -->
<g id="edge22" class="edge">
<title>Node29&#45;&gt;Node4</title>
<path fill="none" stroke="#191970" d="M2036.3293,-117.8287C2031.3529,-101.8474 2019.0192,-70.2768 1996,-56 1950.4684,-27.7607 1574.7256,-14.3439 1461.2982,-10.9113"/>
<polygon fill="#191970" stroke="#191970" points="1461.2597,-7.4087 1451.1601,-10.6101 1461.0518,-14.4056 1461.2597,-7.4087"/>
</g>
<!-- Node29&#45;&gt;Node12 -->
<g id="edge23" class="edge">
<title>Node29&#45;&gt;Node12</title>
<path fill="none" stroke="#191970" d="M2052.2813,-117.8906C2065.7548,-108.1421 2086.822,-92.8994 2102.6435,-81.4521"/>
<polygon fill="#191970" stroke="#191970" points="2104.7619,-84.2394 2110.812,-75.5419 2100.6586,-78.5682 2104.7619,-84.2394"/>
</g>
<!-- Node34&#45;&gt;Node4 -->
<g id="edge35" class="edge">
<title>Node34&#45;&gt;Node4</title>
<path fill="none" stroke="#191970" d="M1672.5334,-251.9689C1650.0292,-242.9284 1616.8604,-228.0604 1591,-210 1520.9101,-161.0506 1499.4524,-147.7692 1453,-76 1443.6951,-61.6239 1437.3761,-43.1558 1433.5675,-29.4132"/>
<polygon fill="#191970" stroke="#191970" points="1436.9183,-28.3894 1431.0422,-19.5734 1430.138,-30.1296 1436.9183,-28.3894"/>
</g>
<!-- Node34&#45;&gt;Node26 -->
<g id="edge27" class="edge">
<title>Node34&#45;&gt;Node26</title>
<path fill="none" stroke="#191970" d="M1746.4948,-251.9717C1808.146,-239.8584 1914.4896,-218.9639 1980.5527,-205.9838"/>
<polygon fill="#191970" stroke="#191970" points="1981.2591,-209.412 1990.3967,-204.0496 1979.9095,-202.5433 1981.2591,-209.412"/>
</g>
<!-- Node34&#45;&gt;Node29 -->
<g id="edge28" class="edge">
<title>Node34&#45;&gt;Node29</title>
<path fill="none" stroke="#191970" d="M1722.2505,-251.9705C1782.0008,-228.4909 1936.4226,-167.809 2005.1484,-140.8024"/>
<polygon fill="#191970" stroke="#191970" points="2006.6179,-143.9855 2014.645,-137.0706 2004.0577,-137.4705 2006.6179,-143.9855"/>
</g>
<!-- Node35 -->
<g id="node18" class="node">
<title>Node35</title>
<g id="a_node18"><a xlink:href="TransformSemantics_8h.html" target="_top" xlink:title="iDynTree/Core/TransformSemantics.h">
<polygon fill="none" stroke="#000000" points="1789.5,-56.5 1789.5,-75.5 1986.5,-75.5 1986.5,-56.5 1789.5,-56.5"/>
<text text-anchor="middle" x="1888" y="-63.5" font-family="FreeSans.ttf" font-size="10.00" fill="#000000">iDynTree/Core/TransformSemantics.h</text>
</a>
</g>
</g>
<!-- Node34&#45;&gt;Node35 -->
<g id="edge29" class="edge">
<title>Node34&#45;&gt;Node35</title>
<path fill="none" stroke="#191970" d="M1707.4221,-251.8051C1737.685,-220.6663 1832.6891,-122.912 1871.3683,-83.1131"/>
<polygon fill="#191970" stroke="#191970" points="1874.0614,-85.364 1878.521,-75.7534 1869.0416,-80.4853 1874.0614,-85.364"/>
</g>
<!-- Node31 -->
<g id="node19" class="node">
<title>Node31</title>
<g id="a_node19"><a xlink:href="MatrixFixSize_8h.html" target="_top" xlink:title="iDynTree/Core/MatrixFixSize.h">
<polygon fill="none" stroke="#ff0000" points="1571.5,-56.5 1571.5,-75.5 1732.5,-75.5 1732.5,-56.5 1571.5,-56.5"/>
<text text-anchor="middle" x="1652" y="-63.5" font-family="FreeSans.ttf" font-size="10.00" fill="#000000">iDynTree/Core/MatrixFixSize.h</text>
</a>
</g>
</g>
<!-- Node34&#45;&gt;Node31 -->
<g id="edge32" class="edge">
<title>Node34&#45;&gt;Node31</title>
<path fill="none" stroke="#191970" d="M1680.9267,-251.791C1652.2096,-234.3452 1595.2048,-194.6468 1573,-143 1567.5581,-130.3425 1566.1331,-123.9446 1573,-112 1581.3705,-97.4399 1596.3194,-87.0571 1610.978,-79.8859"/>
<polygon fill="#191970" stroke="#191970" points="1612.7991,-82.9055 1620.4968,-75.6256 1609.9395,-76.5162 1612.7991,-82.9055"/>
</g>
<!-- Node35&#45;&gt;Node4 -->
<g id="edge30" class="edge">
<title>Node35&#45;&gt;Node4</title>
<path fill="none" stroke="#191970" d="M1809.8769,-56.4686C1707.6432,-43.9957 1533.0679,-22.6967 1461.2814,-13.9385"/>
<polygon fill="#191970" stroke="#191970" points="1461.4127,-10.4286 1451.0624,-12.6917 1460.5648,-17.3771 1461.4127,-10.4286"/>
</g>
<!-- Node35&#45;&gt;Node13 -->
<g id="edge31" class="edge">
<title>Node35&#45;&gt;Node13</title>
<path fill="none" stroke="#191970" d="M1963.57,-56.4686C2047.2511,-45.9143 2181.0372,-29.0403 2262.2881,-18.7925"/>
<polygon fill="#191970" stroke="#191970" points="2262.9337,-22.2389 2272.4171,-17.515 2262.0577,-15.2939 2262.9337,-22.2389"/>
</g>
<!-- Node31&#45;&gt;Node4 -->
<g id="edge34" class="edge">
<title>Node31&#45;&gt;Node4</title>
<path fill="none" stroke="#191970" d="M1613.9183,-56.4369C1570.776,-45.6029 1501.2351,-28.1398 1460.8533,-17.999"/>
<polygon fill="#191970" stroke="#191970" points="1461.5585,-14.5675 1451.0072,-15.5265 1459.8536,-21.3567 1461.5585,-14.5675"/>
</g>
<!-- Node31&#45;&gt;Node13 -->
<g id="edge33" class="edge">
<title>Node31&#45;&gt;Node13</title>
<path fill="none" stroke="#191970" d="M1732.6752,-59.3562C1867.2897,-48.2703 2135.4312,-26.188 2262.3355,-15.7371"/>
<polygon fill="#191970" stroke="#191970" points="2262.6505,-19.2231 2272.3295,-14.914 2262.0759,-12.2467 2262.6505,-19.2231"/>
</g>
<!-- Node36&#45;&gt;Node3 -->
<g id="edge42" class="edge">
<title>Node36&#45;&gt;Node3</title>
<path fill="none" stroke="#191970" d="M214.6336,-385.7461C225.5351,-369.9386 248.2103,-337.9771 270,-313 280.5454,-300.9121 293.3365,-288.2215 303.5936,-278.4625"/>
<polygon fill="#191970" stroke="#191970" points="306.2923,-280.7295 311.185,-271.3321 301.4999,-275.6273 306.2923,-280.7295"/>
</g>
<!-- Node36&#45;&gt;Node4 -->
<g id="edge43" class="edge">
<title>Node36&#45;&gt;Node4</title>
<path fill="none" stroke="#191970" d="M203.1873,-385.6857C192.962,-363.9 170,-309.6206 170,-261.5 170,-261.5 170,-261.5 170,-127.5 170,28.2213 358.5495,-75.8539 513,-56 689.237,-33.3456 1254.4025,-15.2291 1396.3944,-10.957"/>
<polygon fill="#191970" stroke="#191970" points="1396.725,-14.4488 1406.6159,-10.6514 1396.5158,-7.4519 1396.725,-14.4488"/>
</g>
<!-- Node36&#45;&gt;Node6 -->
<g id="edge40" class="edge">
<title>Node36&#45;&gt;Node6</title>
<path fill="none" stroke="#191970" d="M242.9846,-385.9717C286.5763,-374.0991 361.1409,-353.7909 408.9604,-340.7669"/>
<polygon fill="#191970" stroke="#191970" points="410.0091,-344.1088 418.7378,-338.1039 408.1695,-337.3549 410.0091,-344.1088"/>
</g>
<!-- Node36&#45;&gt;Node12 -->
<g id="edge41" class="edge">
<title>Node36&#45;&gt;Node12</title>
<path fill="none" stroke="#191970" d="M209.4393,-385.8635C214.1579,-358.1382 231.9632,-278.1051 284,-246 558.5428,-76.6155 1411.7751,-181.9981 1732,-143 1856.9338,-127.7851 2001.7156,-95.4505 2075.4323,-77.9117"/>
<polygon fill="#191970" stroke="#191970" points="2076.4417,-81.2691 2085.3529,-75.5384 2074.813,-74.4612 2076.4417,-81.2691"/>
</g>
<!-- Node37&#45;&gt;Node3 -->
<g id="edge70" class="edge">
<title>Node37&#45;&gt;Node3</title>
<path fill="none" stroke="#191970" d="M892.5486,-519.9679C781.6838,-491.9665 463.9168,-407.9127 379,-344 356.7014,-327.2169 339.9778,-299.1011 330.5913,-280.4276"/>
<polygon fill="#191970" stroke="#191970" points="333.6245,-278.6584 326.1426,-271.1569 327.3134,-281.6868 333.6245,-278.6584"/>
</g>
<!-- Node37&#45;&gt;Node4 -->
<g id="edge71" class="edge">
<title>Node37&#45;&gt;Node4</title>
<path fill="none" stroke="#191970" d="M924.2645,-519.9897C905.1601,-492.052 852,-407.2382 852,-328.5 852,-328.5 852,-328.5 852,-127.5 852,-85.4389 876.5524,-75.1524 914,-56 956.931,-34.0432 1290.6064,-16.5383 1396.716,-11.4803"/>
<polygon fill="#191970" stroke="#191970" points="1396.9984,-14.971 1406.8223,-11.0035 1396.6685,-7.9787 1396.9984,-14.971"/>
</g>
<!-- Node37&#45;&gt;Node6 -->
<g id="edge45" class="edge">
<title>Node37&#45;&gt;Node6</title>
<path fill="none" stroke="#191970" d="M881.1131,-527.5837C766.3916,-522.6797 491.4577,-507.9016 463,-478 429.647,-442.9547 440.0221,-379.8787 448.1803,-348.0303"/>
<polygon fill="#191970" stroke="#191970" points="451.6164,-348.7351 450.8981,-338.1647 444.8678,-346.8759 451.6164,-348.7351"/>
</g>
<!-- Node37&#45;&gt;Node8 -->
<g id="edge72" class="edge">
<title>Node37&#45;&gt;Node8</title>
<path fill="none" stroke="#191970" d="M910.8605,-519.8597C892.4549,-510.538 864.9887,-495.3098 844,-478 799.0671,-440.9428 795.7608,-423.4718 757,-380 730.3978,-350.1646 724.9494,-341.5772 697,-313 685.1924,-300.9272 671.3074,-287.9344 660.4426,-278.0195"/>
<polygon fill="#191970" stroke="#191970" points="662.5686,-275.2229 652.8074,-271.1036 657.8693,-280.411 662.5686,-275.2229"/>
</g>
<!-- Node37&#45;&gt;Node9 -->
<g id="edge73" class="edge">
<title>Node37&#45;&gt;Node9</title>
<path fill="none" stroke="#191970" d="M936.3211,-519.9794C950.0898,-495.6626 988.5737,-429.6831 1028,-380 1058.954,-340.9933 1100.653,-300.1262 1124.0828,-278.0441"/>
<polygon fill="#191970" stroke="#191970" points="1126.6477,-280.4375 1131.5607,-271.0506 1121.8663,-275.3249 1126.6477,-280.4375"/>
</g>
<!-- Node37&#45;&gt;Node34 -->
<g id="edge46" class="edge">
<title>Node37&#45;&gt;Node34</title>
<path fill="none" stroke="#191970" d="M942.127,-519.637C977.0062,-488.948 1084.4098,-396.2313 1127,-380 1322.3519,-305.5505 1401.7282,-421.224 1596,-344 1631.7421,-329.7923 1664.7149,-298.4285 1683.0184,-278.7259"/>
<polygon fill="#191970" stroke="#191970" points="1685.8206,-280.8453 1689.9299,-271.0799 1680.6277,-276.1512 1685.8206,-280.8453"/>
</g>
<!-- Node37&#45;&gt;Node38 -->
<g id="edge47" class="edge">
<title>Node37&#45;&gt;Node38</title>
<path fill="none" stroke="#191970" d="M968.6866,-519.9717C1015.8417,-508.0495 1096.6416,-487.6208 1148.1268,-474.6038"/>
<polygon fill="#191970" stroke="#191970" points="1149.1773,-477.9484 1158.0143,-472.1039 1147.4615,-471.1619 1149.1773,-477.9484"/>
</g>
<!-- Node38&#45;&gt;Node4 -->
<g id="edge48" class="edge">
<title>Node38&#45;&gt;Node4</title>
<path fill="none" stroke="#191970" d="M1203.6714,-452.948C1211.0443,-443.1047 1221.6841,-426.9833 1226,-411 1237.6829,-367.734 1194,-298.5497 1194,-261.5 1194,-261.5 1194,-261.5 1194,-127.5 1194,-37.8417 1332.5376,-16.5945 1396.8736,-11.5613"/>
<polygon fill="#191970" stroke="#191970" points="1397.1596,-15.05 1406.8918,-10.8625 1396.6724,-8.067 1397.1596,-15.05"/>
</g>
<!-- Node38&#45;&gt;Node9 -->
<g id="edge49" class="edge">
<title>Node38&#45;&gt;Node9</title>
<path fill="none" stroke="#191970" d="M1201.3566,-452.8226C1209.564,-436.5657 1222.9142,-403.2719 1209,-380 1191.6528,-350.9864 1159.3472,-373.0136 1142,-344 1130.6177,-324.9629 1133.0062,-298.7686 1136.6701,-281.0423"/>
<polygon fill="#191970" stroke="#191970" points="1140.0927,-281.7781 1139.0045,-271.2393 1133.2831,-280.1564 1140.0927,-281.7781"/>
</g>
<!-- Node19 -->
<g id="node23" class="node">
<title>Node19</title>
<polygon fill="none" stroke="#bfbfbf" points="1146.5,-386 1146.5,-405 1199.5,-405 1199.5,-386 1146.5,-386"/>
<text text-anchor="middle" x="1173" y="-393" font-family="FreeSans.ttf" font-size="10.00" fill="#000000">iterator</text>
</g>
<!-- Node38&#45;&gt;Node19 -->
<g id="edge50" class="edge">
<title>Node38&#45;&gt;Node19</title>
<path fill="none" stroke="#191970" d="M1192.7047,-452.9005C1189.2888,-442.95 1183.8578,-427.1292 1179.5618,-414.6147"/>
<polygon fill="#191970" stroke="#191970" points="1182.8465,-413.4035 1176.2892,-405.0817 1176.2258,-415.6763 1182.8465,-413.4035"/>
</g>
<!-- Node39 -->
<g id="node24" class="node">
<title>Node39</title>
<g id="a_node24"><a xlink:href="VectorDynSize_8h.html" target="_top" xlink:title="iDynTree/Core/VectorDynSize.h">
<polygon fill="none" stroke="#ff0000" points="997.5,-185 997.5,-204 1164.5,-204 1164.5,-185 997.5,-185"/>
<text text-anchor="middle" x="1081" y="-192" font-family="FreeSans.ttf" font-size="10.00" fill="#000000">iDynTree/Core/VectorDynSize.h</text>
</a>
</g>
</g>
<!-- Node38&#45;&gt;Node39 -->
<g id="edge51" class="edge">
<title>Node38&#45;&gt;Node39</title>
<path fill="none" stroke="#191970" d="M1176.2081,-452.8607C1160.4135,-444.1261 1139.0093,-429.7574 1127,-411 1086.3688,-347.5382 1080.9941,-254.2612 1080.7034,-214.0871"/>
<polygon fill="#191970" stroke="#191970" points="1084.2034,-214.0376 1080.7339,-204.027 1077.2035,-214.0163 1084.2034,-214.0376"/>
</g>
<!-- Node38&#45;&gt;Node40 -->
<g id="edge53" class="edge">
<title>Node38&#45;&gt;Node40</title>
<path fill="none" stroke="#191970" d="M1246.4858,-452.9717C1310.6681,-440.8584 1421.3778,-419.9639 1490.1531,-406.9838"/>
<polygon fill="#191970" stroke="#191970" points="1491.2239,-410.3436 1500.4012,-405.0496 1489.9256,-403.465 1491.2239,-410.3436"/>
</g>
<!-- Node42 -->
<g id="node27" class="node">
<title>Node42</title>
<g id="a_node27"><a xlink:href="Indices_8h.html" target="_top" xlink:title="iDynTree/Model/Indices.h">
<polygon fill="none" stroke="#000000" points="1789,-252 1789,-271 1927,-271 1927,-252 1789,-252"/>
<text text-anchor="middle" x="1858" y="-259" font-family="FreeSans.ttf" font-size="10.00" fill="#000000">iDynTree/Model/Indices.h</text>
</a>
</g>
</g>
<!-- Node38&#45;&gt;Node42 -->
<g id="edge69" class="edge">
<title>Node38&#45;&gt;Node42</title>
<path fill="none" stroke="#191970" d="M1180.7632,-452.9682C1156.9085,-436.9259 1115.6659,-403.9401 1138,-380 1177.3565,-337.8134 1599.8061,-357.0723 1656,-344 1721.3685,-328.7934 1793.0068,-295.1212 1830.9285,-275.8254"/>
<polygon fill="#191970" stroke="#191970" points="1832.9707,-278.7105 1840.2584,-271.0203 1829.7657,-272.4873 1832.9707,-278.7105"/>
</g>
<!-- Node39&#45;&gt;Node4 -->
<g id="edge52" class="edge">
<title>Node39&#45;&gt;Node4</title>
<path fill="none" stroke="#191970" d="M1084.8184,-184.8286C1095.5083,-159.1232 1128.374,-88.8321 1180,-56 1215.5323,-33.4029 1337.3286,-18.8657 1396.3798,-12.9801"/>
<polygon fill="#191970" stroke="#191970" points="1397.0267,-16.4338 1406.6408,-11.9818 1396.3489,-9.4667 1397.0267,-16.4338"/>
</g>
<!-- Node40&#45;&gt;Node9 -->
<g id="edge68" class="edge">
<title>Node40&#45;&gt;Node9</title>
<path fill="none" stroke="#191970" d="M1498.6627,-385.9352C1460.653,-377.8092 1408.6286,-364.2062 1366,-344 1344.3838,-333.7538 1343.5794,-323.3236 1322,-313 1273.6966,-289.8917 1213.0219,-275.1978 1175.9005,-267.6581"/>
<polygon fill="#191970" stroke="#191970" points="1176.1188,-264.1339 1165.6306,-265.6333 1174.7647,-271.0016 1176.1188,-264.1339"/>
</g>
<!-- Node40&#45;&gt;Node34 -->
<g id="edge59" class="edge">
<title>Node40&#45;&gt;Node34</title>
<path fill="none" stroke="#191970" d="M1582.7027,-385.9954C1605.402,-377.8668 1635.4619,-364.2345 1656,-344 1674.0886,-326.1788 1685.8473,-298.9317 1692.1995,-280.6811"/>
<polygon fill="#191970" stroke="#191970" points="1695.5464,-281.7067 1695.3218,-271.1142 1688.8918,-279.5348 1695.5464,-281.7067"/>
</g>
<!-- Node41 -->
<g id="node26" class="node">
<title>Node41</title>
<g id="a_node26"><a xlink:href="IJoint_8h.html" target="_top" xlink:title="iDynTree/Model/IJoint.h">
<polygon fill="none" stroke="#000000" points="2040,-319 2040,-338 2168,-338 2168,-319 2040,-319"/>
<text text-anchor="middle" x="2104" y="-326" font-family="FreeSans.ttf" font-size="10.00" fill="#000000">iDynTree/Model/IJoint.h</text>
</a>
</g>
</g>
<!-- Node40&#45;&gt;Node41 -->
<g id="edge54" class="edge">
<title>Node40&#45;&gt;Node41</title>
<path fill="none" stroke="#191970" d="M1596.7051,-385.9435C1608.1905,-383.7658 1620.5163,-381.6194 1632,-380 1806.1178,-355.4461 1851.9703,-369.171 2026,-344 2033.9658,-342.8479 2042.3486,-341.4167 2050.5452,-339.8932"/>
<polygon fill="#191970" stroke="#191970" points="2051.2484,-343.3223 2060.4105,-338.0018 2049.9303,-336.4475 2051.2484,-343.3223"/>
</g>
<!-- Node40&#45;&gt;Node42 -->
<g id="edge60" class="edge">
<title>Node40&#45;&gt;Node42</title>
<path fill="none" stroke="#191970" d="M1598.0261,-385.9783C1609.1421,-383.8727 1620.9702,-381.7501 1632,-380 1695.0478,-369.996 1874.7838,-391.8843 1917,-344 1936.2905,-322.1195 1905.9103,-294.0111 1882.0651,-276.897"/>
<polygon fill="#191970" stroke="#191970" points="1883.9007,-273.9114 1873.6798,-271.1212 1879.9298,-279.6762 1883.9007,-273.9114"/>
</g>
<!-- Node43 -->
<g id="node28" class="node">
<title>Node43</title>
<g id="a_node28"><a xlink:href="Link_8h.html" target="_top" xlink:title="iDynTree/Model/Link.h">
<polygon fill="none" stroke="#ff0000" points="1784,-319 1784,-338 1908,-338 1908,-319 1784,-319"/>
<text text-anchor="middle" x="1846" y="-326" font-family="FreeSans.ttf" font-size="10.00" fill="#000000">iDynTree/Model/Link.h</text>
</a>
</g>
</g>
<!-- Node40&#45;&gt;Node43 -->
<g id="edge57" class="edge">
<title>Node40&#45;&gt;Node43</title>
<path fill="none" stroke="#191970" d="M1592.953,-385.9717C1645.7745,-373.975 1736.5192,-353.3651 1793.778,-340.3606"/>
<polygon fill="#191970" stroke="#191970" points="1794.7376,-343.7319 1803.7141,-338.1039 1793.1872,-336.9057 1794.7376,-343.7319"/>
</g>
<!-- Node64 -->
<g id="node29" class="node">
<title>Node64</title>
<g id="a_node29"><a xlink:href="SolidShapes_8h.html" target="_top" xlink:title="iDynTree/Model/SolidShapes.h">
<polygon fill="none" stroke="#000000" points="1374.5,-319 1374.5,-338 1537.5,-338 1537.5,-319 1374.5,-319"/>
<text text-anchor="middle" x="1456" y="-326" font-family="FreeSans.ttf" font-size="10.00" fill="#000000">iDynTree/Model/SolidShapes.h</text>
</a>
</g>
</g>
<!-- Node40&#45;&gt;Node64 -->
<g id="edge61" class="edge">
<title>Node40&#45;&gt;Node64</title>
<path fill="none" stroke="#191970" d="M1537.3888,-385.9005C1521.8689,-374.9549 1496.2777,-356.9064 1477.9333,-343.9688"/>
<polygon fill="#191970" stroke="#191970" points="1479.7752,-340.9849 1469.5859,-338.0817 1475.7408,-346.7054 1479.7752,-340.9849"/>
</g>
<!-- Node65 -->
<g id="node30" class="node">
<title>Node65</title>
<polygon fill="none" stroke="#bfbfbf" points="1494.5,-252 1494.5,-271 1543.5,-271 1543.5,-252 1494.5,-252"/>
<text text-anchor="middle" x="1519" y="-259" font-family="FreeSans.ttf" font-size="10.00" fill="#000000">cstdlib</text>
</g>
<!-- Node40&#45;&gt;Node65 -->
<g id="edge67" class="edge">
<title>Node40&#45;&gt;Node65</title>
<path fill="none" stroke="#191970" d="M1551.9182,-385.6222C1553.0711,-369.9108 1554.1195,-338.4065 1547,-313 1543.7047,-301.2406 1537.3464,-289.1897 1531.5208,-279.7045"/>
<polygon fill="#191970" stroke="#191970" points="1534.3765,-277.6751 1526.0058,-271.1802 1528.4993,-281.4775 1534.3765,-277.6751"/>
</g>
<!-- Node41&#45;&gt;Node42 -->
<g id="edge55" class="edge">
<title>Node41&#45;&gt;Node42</title>
<path fill="none" stroke="#191970" d="M2069.0154,-318.9717C2025.4237,-307.0991 1950.8591,-286.7909 1903.0396,-273.7669"/>
<polygon fill="#191970" stroke="#191970" points="1903.8305,-270.3549 1893.2622,-271.1039 1901.9909,-277.1088 1903.8305,-270.3549"/>
</g>
<!-- Node42&#45;&gt;Node4 -->
<g id="edge56" class="edge">
<title>Node42&#45;&gt;Node4</title>
<path fill="none" stroke="#191970" d="M1810.2867,-251.9049C1756.5639,-240.7795 1672.8703,-222.3876 1643,-210 1590.4732,-188.2165 1576.4942,-180.7865 1534,-143 1494.0788,-107.5014 1457.9612,-55.4438 1440.3377,-28.1803"/>
<polygon fill="#191970" stroke="#191970" points="1443.2226,-26.1944 1434.8995,-19.6387 1437.3178,-29.9539 1443.2226,-26.1944"/>
</g>
<!-- Node43&#45;&gt;Node42 -->
<g id="edge58" class="edge">
<title>Node43&#45;&gt;Node42</title>
<path fill="none" stroke="#191970" d="M1847.7193,-318.9005C1849.4837,-309.0495 1852.2785,-293.4451 1854.509,-280.9912"/>
<polygon fill="#191970" stroke="#191970" points="1857.966,-281.5421 1856.2839,-271.0817 1851.0756,-280.308 1857.966,-281.5421"/>
</g>
<!-- Node64&#45;&gt;Node4 -->
<g id="edge63" class="edge">
<title>Node64&#45;&gt;Node4</title>
<path fill="none" stroke="#191970" d="M1447.5024,-318.8655C1429.8834,-297.8576 1391,-245.6957 1391,-194.5 1391,-194.5 1391,-194.5 1391,-127.5 1391,-91.2454 1407.5805,-51.6181 1418.837,-28.8929"/>
<polygon fill="#191970" stroke="#191970" points="1422.0965,-30.2076 1423.5555,-19.7137 1415.8708,-27.0073 1422.0965,-30.2076"/>
</g>
<!-- Node64&#45;&gt;Node9 -->
<g id="edge64" class="edge">
<title>Node64&#45;&gt;Node9</title>
<path fill="none" stroke="#191970" d="M1411.3449,-318.9717C1347.7462,-305.4013 1232.4971,-280.8099 1175.6128,-268.6722"/>
<polygon fill="#191970" stroke="#191970" points="1176.2063,-265.2201 1165.696,-266.5562 1174.7455,-272.066 1176.2063,-265.2201"/>
</g>
<!-- Node64&#45;&gt;Node34 -->
<g id="edge65" class="edge">
<title>Node64&#45;&gt;Node34</title>
<path fill="none" stroke="#191970" d="M1490.4157,-318.9717C1533.2089,-307.124 1606.344,-286.8758 1653.3972,-273.8487"/>
<polygon fill="#191970" stroke="#191970" points="1654.6077,-277.1453 1663.3112,-271.1039 1652.7398,-270.3991 1654.6077,-277.1453"/>
</g>
<!-- Node64&#45;&gt;Node42 -->
<g id="edge66" class="edge">
<title>Node64&#45;&gt;Node42</title>
<path fill="none" stroke="#191970" d="M1520.6702,-318.9705C1586.1567,-309.1447 1690.2923,-293.0367 1780,-277 1787.0079,-275.7472 1794.3571,-274.3703 1801.6258,-272.9701"/>
<polygon fill="#191970" stroke="#191970" points="1802.3025,-276.4041 1811.4483,-271.0557 1800.9634,-269.5334 1802.3025,-276.4041"/>
</g>
<!-- Node64&#45;&gt;Node65 -->
<g id="edge62" class="edge">
<title>Node64&#45;&gt;Node65</title>
<path fill="none" stroke="#191970" d="M1465.0264,-318.9005C1474.9442,-308.353 1491.0641,-291.2096 1503.1091,-278.3998"/>
<polygon fill="#191970" stroke="#191970" points="1505.6899,-280.7645 1509.9904,-271.0817 1500.5903,-275.9693 1505.6899,-280.7645"/>
</g>
<!-- Node66&#45;&gt;Node3 -->
<g id="edge79" class="edge">
<title>Node66&#45;&gt;Node3</title>
<path fill="none" stroke="#191970" d="M478.7969,-452.9262C428.2665,-438.7296 344.8043,-406.7359 308,-344 296.5087,-324.4122 304.2713,-297.9847 312.0586,-280.3742"/>
<polygon fill="#191970" stroke="#191970" points="315.3186,-281.6712 316.5011,-271.1425 309.0109,-278.6357 315.3186,-281.6712"/>
</g>
<!-- Node66&#45;&gt;Node4 -->
<g id="edge80" class="edge">
<title>Node66&#45;&gt;Node4</title>
<path fill="none" stroke="#191970" d="M522.2914,-452.9425C528.9786,-424.1822 548,-335.8412 548,-261.5 548,-261.5 548,-261.5 548,-127.5 548,-40.1071 1237.9279,-15.3727 1396.6939,-10.8378"/>
<polygon fill="#191970" stroke="#191970" points="1396.8831,-14.334 1406.7817,-10.5567 1396.6881,-7.3367 1396.8831,-14.334"/>
</g>
<!-- Node66&#45;&gt;Node6 -->
<g id="edge75" class="edge">
<title>Node66&#45;&gt;Node6</title>
<path fill="none" stroke="#191970" d="M515.2534,-452.8631C504.3603,-430.7466 477.4116,-376.0326 463.1656,-347.109"/>
<polygon fill="#191970" stroke="#191970" points="466.2619,-345.474 458.7035,-338.0496 459.9823,-348.567 466.2619,-345.474"/>
</g>
<!-- Node66&#45;&gt;Node8 -->
<g id="edge81" class="edge">
<title>Node66&#45;&gt;Node8</title>
<path fill="none" stroke="#191970" d="M525.8843,-452.8054C545.0085,-421.2975 605.6243,-321.4305 630.8339,-279.8965"/>
<polygon fill="#191970" stroke="#191970" points="633.978,-281.462 636.1747,-271.0974 627.994,-277.8299 633.978,-281.462"/>
</g>
<!-- Node66&#45;&gt;Node9 -->
<g id="edge82" class="edge">
<title>Node66&#45;&gt;Node9</title>
<path fill="none" stroke="#191970" d="M532.7156,-452.8159C555.3809,-435.9483 604.7359,-400.9785 651,-380 813.0353,-306.525 1026.6391,-275.0815 1108.2931,-265.1974"/>
<polygon fill="#191970" stroke="#191970" points="1108.9564,-268.6434 1118.4769,-263.9946 1108.1353,-261.6918 1108.9564,-268.6434"/>
</g>
<!-- Node66&#45;&gt;Node34 -->
<g id="edge77" class="edge">
<title>Node66&#45;&gt;Node34</title>
<path fill="none" stroke="#191970" d="M568.0461,-455.4959C633.1521,-445.9175 752.9868,-427.9786 855,-411 932.0536,-398.1756 950.4793,-389.6056 1028,-380 1257.4661,-351.567 1325.0833,-408.9313 1547,-344 1596.9308,-329.3906 1648.808,-296.4785 1676.8761,-276.9268"/>
<polygon fill="#191970" stroke="#191970" points="1678.982,-279.7242 1685.1199,-271.0884 1674.9363,-274.0117 1678.982,-279.7242"/>
</g>
<!-- Node66&#45;&gt;Node36 -->
<g id="edge76" class="edge">
<title>Node66&#45;&gt;Node36</title>
<path fill="none" stroke="#191970" d="M472.9714,-452.9077C423.6039,-442.7697 343.7568,-426.1781 275,-411 269.6808,-409.8258 264.1295,-408.5778 258.5977,-407.3196"/>
<polygon fill="#191970" stroke="#191970" points="259.2449,-403.8773 248.716,-405.0576 257.6829,-410.7008 259.2449,-403.8773"/>
</g>
<!-- Node66&#45;&gt;Node64 -->
<g id="edge78" class="edge">
<title>Node66&#45;&gt;Node64</title>
<path fill="none" stroke="#191970" d="M564.0679,-452.9822C659.5109,-432.4104 879.5386,-385.2285 914,-380 1071.298,-356.1348 1256.0596,-341.3885 1364.1689,-334.0869"/>
<polygon fill="#191970" stroke="#191970" points="1364.6442,-337.563 1374.3884,-333.4035 1364.1771,-330.5786 1364.6442,-337.563"/>
</g>
<!-- Node67&#45;&gt;Node3 -->
<g id="edge86" class="edge">
<title>Node67&#45;&gt;Node3</title>
<path fill="none" stroke="#191970" d="M1305.62,-519.9253C1302.957,-503.8198 1295.9961,-470.7433 1281,-447 1257.6579,-410.0424 1248.5746,-398.5626 1209,-380 883.6415,-227.3892 762.1162,-332.1427 407,-277 391.9712,-274.6663 375.5137,-271.7498 361.1167,-269.0783"/>
<polygon fill="#191970" stroke="#191970" points="361.5216,-265.5932 351.0475,-267.188 360.23,-272.473 361.5216,-265.5932"/>
</g>
<!-- Node67&#45;&gt;Node4 -->
<g id="edge87" class="edge">
<title>Node67&#45;&gt;Node4</title>
<path fill="none" stroke="#191970" d="M1332.9238,-519.896C1418.5269,-488.244 1689.0547,-388.7291 1730,-380 1778.7324,-369.6108 2143.2104,-380.6203 2177,-344 2186.3431,-333.8741 2185.8728,-323.5404 2177,-313 2116.5812,-241.2258 2052.951,-318.8833 1969,-277 1950.9935,-268.0165 1953.5098,-255.9169 1936,-246 1931.4399,-243.4173 1577.5628,-145.5779 1573,-143 1548.3607,-129.0791 1500.8415,-75.1447 1480,-56 1469.2979,-46.1692 1457.2268,-35.2731 1447.5158,-26.554"/>
<polygon fill="#191970" stroke="#191970" points="1449.7781,-23.8816 1439.9955,-19.8133 1445.1059,-29.0942 1449.7781,-23.8816"/>
</g>
<!-- Node67&#45;&gt;Node9 -->
<g id="edge88" class="edge">
<title>Node67&#45;&gt;Node9</title>
<path fill="none" stroke="#191970" d="M1311.6228,-519.6384C1322.9192,-493.9381 1348.8274,-423.862 1318,-380 1290.8383,-341.3535 1257.3565,-370.1223 1218,-344 1191.5071,-326.4157 1167.8918,-297.7007 1154.261,-279.2071"/>
<polygon fill="#191970" stroke="#191970" points="1157.0764,-277.1272 1148.4027,-271.0431 1151.3892,-281.2083 1157.0764,-277.1272"/>
</g>
<!-- Node67&#45;&gt;Node38 -->
<g id="edge85" class="edge">
<title>Node67&#45;&gt;Node38</title>
<path fill="none" stroke="#191970" d="M1291.0964,-519.9005C1272.633,-508.7559 1241.9701,-490.2477 1220.4668,-477.2682"/>
<polygon fill="#191970" stroke="#191970" points="1222.2441,-474.2529 1211.8741,-472.0817 1218.6267,-480.2458 1222.2441,-474.2529"/>
</g>
<!-- Node67&#45;&gt;Node40 -->
<g id="edge84" class="edge">
<title>Node67&#45;&gt;Node40</title>
<path fill="none" stroke="#191970" d="M1316.0074,-519.7778C1332.1589,-502.8514 1367.7582,-467.7933 1404,-447 1434.6615,-429.4083 1472.3394,-416.354 1501.873,-407.7901"/>
<polygon fill="#191970" stroke="#191970" points="1502.8811,-411.1424 1511.5546,-405.0579 1500.9799,-404.4055 1502.8811,-411.1424"/>
</g>
<!-- Node68&#45;&gt;Node5 -->
<g id="edge96" class="edge">
<title>Node68&#45;&gt;Node5</title>
<path fill="none" stroke="#191970" d="M530.4486,-519.8631C562.3907,-496.974 643.0576,-439.17 682.1257,-411.1746"/>
<polygon fill="#191970" stroke="#191970" points="684.5834,-413.7194 690.6733,-405.0496 680.5061,-408.0294 684.5834,-413.7194"/>
</g>
<!-- Node68&#45;&gt;Node6 -->
<g id="edge95" class="edge">
<title>Node68&#45;&gt;Node6</title>
<path fill="none" stroke="#191970" d="M469.7797,-523.5052C441.5195,-517.2173 407.7448,-504.344 390,-478 365.6671,-441.8753 371.1882,-419.2836 390,-380 397.4783,-364.3836 412.2575,-351.9964 425.731,-343.2879"/>
<polygon fill="#191970" stroke="#191970" points="427.5625,-346.2705 434.3065,-338.0993 423.9388,-340.2814 427.5625,-346.2705"/>
</g>
<!-- Node68&#45;&gt;Node8 -->
<g id="edge99" class="edge">
<title>Node68&#45;&gt;Node8</title>
<path fill="none" stroke="#191970" d="M473.7777,-519.9471C435.5618,-510.5211 384.0566,-495.0766 372,-478 329.666,-418.0393 330.2738,-367.8927 379,-313 392.6066,-297.6714 512.0897,-279.0446 585.2471,-268.9226"/>
<polygon fill="#191970" stroke="#191970" points="585.8146,-272.3777 595.2467,-267.5521 584.864,-265.4425 585.8146,-272.3777"/>
</g>
<!-- Node68&#45;&gt;Node9 -->
<g id="edge100" class="edge">
<title>Node68&#45;&gt;Node9</title>
<path fill="none" stroke="#191970" d="M539.2441,-519.9617C633.4933,-479.5477 1000.1085,-322.3431 1110.4236,-275.04"/>
<polygon fill="#191970" stroke="#191970" points="1111.8856,-278.2213 1119.697,-271.0635 1109.1269,-271.7878 1111.8856,-278.2213"/>
</g>
<!-- Node68&#45;&gt;Node36 -->
<g id="edge97" class="edge">
<title>Node68&#45;&gt;Node36</title>
<path fill="none" stroke="#191970" d="M469.9558,-523.205C427.5432,-516.2419 364.2991,-502.6026 314,-478 279.0183,-460.8895 244.5703,-430.997 224.8449,-412.279"/>
<polygon fill="#191970" stroke="#191970" points="227.1889,-409.6769 217.5673,-405.2413 222.3228,-414.7089 227.1889,-409.6769"/>
</g>
<!-- Node68&#45;&gt;Node66 -->
<g id="edge98" class="edge">
<title>Node68&#45;&gt;Node66</title>
<path fill="none" stroke="#191970" d="M517.4298,-519.9005C517.8665,-510.149 518.5555,-494.7597 519.1103,-482.3695"/>
<polygon fill="#191970" stroke="#191970" points="522.6201,-482.2282 519.571,-472.0817 515.6271,-481.9151 522.6201,-482.2282"/>
</g>
<!-- Node69&#45;&gt;Node10 -->
<g id="edge116" class="edge">
<title>Node69&#45;&gt;Node10</title>
<path fill="none" stroke="#191970" d="M2404.4051,-448.824C2437.1734,-440.6943 2475.9081,-428.4813 2508,-411 2574.4957,-374.778 2638.1946,-309.8991 2666.5741,-278.9077"/>
<polygon fill="#191970" stroke="#191970" points="2669.5065,-280.883 2673.615,-271.1172 2664.3132,-276.1894 2669.5065,-280.883"/>
</g>
<!-- Node69&#45;&gt;Node34 -->
<g id="edge102" class="edge">
<title>Node69&#45;&gt;Node34</title>
<path fill="none" stroke="#191970" d="M2316.4696,-447.4907C2288.8418,-423.8498 2238.1632,-380.5461 2237,-380 2152.8661,-340.5042 2121.7179,-364.2158 2031,-344 1979.7505,-332.5794 1967.8971,-325.9006 1917,-313 1860.2736,-298.6219 1794.9313,-283.4331 1750.4894,-273.3076"/>
<polygon fill="#191970" stroke="#191970" points="1751.0255,-269.8403 1740.4984,-271.0364 1749.4738,-276.6661 1751.0255,-269.8403"/>
</g>
<!-- Node69&#45;&gt;Node42 -->
<g id="edge117" class="edge">
<title>Node69&#45;&gt;Node42</title>
<path fill="none" stroke="#191970" d="M2325.2309,-447.0651C2306.1552,-415.2053 2257.4581,-342.6671 2194,-313 2171.1662,-302.325 2029.163,-282.9614 1937.219,-271.2605"/>
<polygon fill="#191970" stroke="#191970" points="1937.4595,-267.7631 1927.0987,-269.9777 1936.5792,-274.7075 1937.4595,-267.7631"/>
</g>
<!-- Node48 -->
<g id="node35" class="node">
<title>Node48</title>
<g id="a_node35"><a xlink:href="SpatialMotionVector_8h.html" target="_top" xlink:title="iDynTree/Core/SpatialMotion\lVector.h">
<polygon fill="none" stroke="#000000" points="2414.5,-313.5 2414.5,-343.5 2569.5,-343.5 2569.5,-313.5 2414.5,-313.5"/>
<text text-anchor="start" x="2422.5" y="-331.5" font-family="FreeSans.ttf" font-size="10.00" fill="#000000">iDynTree/Core/SpatialMotion</text>
<text text-anchor="middle" x="2492" y="-320.5" font-family="FreeSans.ttf" font-size="10.00" fill="#000000">Vector.h</text>
</a>
</g>
</g>
<!-- Node69&#45;&gt;Node48 -->
<g id="edge103" class="edge">
<title>Node69&#45;&gt;Node48</title>
<path fill="none" stroke="#191970" d="M2404.1818,-447.4241C2439.9696,-438.1956 2478.2009,-425.4084 2489,-411 2501.1583,-394.7781 2500.797,-371.2966 2498.0391,-353.5298"/>
<polygon fill="#191970" stroke="#191970" points="2501.4542,-352.7518 2496.1591,-343.5751 2494.5757,-354.0509 2501.4542,-352.7518"/>
</g>
<!-- Node70 -->
<g id="node40" class="node">
<title>Node70</title>
<g id="a_node40"><a xlink:href="MovableJointImpl_8h.html" target="_top" xlink:title="iDynTree/Model/MovableJoint\lImpl.h">
<polygon fill="none" stroke="#000000" points="2322,-380.5 2322,-410.5 2480,-410.5 2480,-380.5 2322,-380.5"/>
<text text-anchor="start" x="2330" y="-398.5" font-family="FreeSans.ttf" font-size="10.00" fill="#000000">iDynTree/Model/MovableJoint</text>
<text text-anchor="middle" x="2401" y="-387.5" font-family="FreeSans.ttf" font-size="10.00" fill="#000000">Impl.h</text>
</a>
</g>
</g>
<!-- Node69&#45;&gt;Node70 -->
<g id="edge118" class="edge">
<title>Node69&#45;&gt;Node70</title>
<path fill="none" stroke="#191970" d="M2349.2033,-447.2967C2357.941,-438.559 2369.0743,-427.4257 2378.7782,-417.7218"/>
<polygon fill="#191970" stroke="#191970" points="2381.2606,-420.1892 2385.8568,-410.6432 2376.3108,-415.2394 2381.2606,-420.1892"/>
</g>
<!-- Node48&#45;&gt;Node12 -->
<g id="edge104" class="edge">
<title>Node48&#45;&gt;Node12</title>
<path fill="none" stroke="#191970" d="M2414.2553,-314.8674C2340.046,-301.593 2238.4215,-282.6202 2231,-277 2166.0758,-227.834 2137.5339,-128.2495 2127.9639,-85.8433"/>
<polygon fill="#191970" stroke="#191970" points="2131.3558,-84.9675 2125.8404,-75.9215 2124.5109,-86.4325 2131.3558,-84.9675"/>
</g>
<!-- Node49 -->
<g id="node36" class="node">
<title>Node49</title>
<g id="a_node36"><a xlink:href="LinearMotionVector3_8h.html" target="_top" xlink:title="iDynTree/Core/LinearMotion\lVector3.h">
<polygon fill="none" stroke="#ff0000" points="2239.5,-246.5 2239.5,-276.5 2390.5,-276.5 2390.5,-246.5 2239.5,-246.5"/>
<text text-anchor="start" x="2247.5" y="-264.5" font-family="FreeSans.ttf" font-size="10.00" fill="#000000">iDynTree/Core/LinearMotion</text>
<text text-anchor="middle" x="2315" y="-253.5" font-family="FreeSans.ttf" font-size="10.00" fill="#000000">Vector3.h</text>
</a>
</g>
</g>
<!-- Node48&#45;&gt;Node49 -->
<g id="edge105" class="edge">
<title>Node48&#45;&gt;Node49</title>
<path fill="none" stroke="#191970" d="M2452.2777,-313.4639C2426.2929,-303.6278 2392.1493,-290.7034 2364.4145,-280.2049"/>
<polygon fill="#191970" stroke="#191970" points="2365.487,-276.8686 2354.8955,-276.6017 2363.0088,-283.4153 2365.487,-276.8686"/>
</g>
<!-- Node52 -->
<g id="node37" class="node">
<title>Node52</title>
<g id="a_node37"><a xlink:href="PrivateMotionForceVertorAssociations_8h.html" target="_top" xlink:title="iDynTree/Core/PrivateMotion\lForceVertorAssociations.h">
<polygon fill="none" stroke="#000000" points="2270.5,-179.5 2270.5,-209.5 2425.5,-209.5 2425.5,-179.5 2270.5,-179.5"/>
<text text-anchor="start" x="2278.5" y="-197.5" font-family="FreeSans.ttf" font-size="10.00" fill="#000000">iDynTree/Core/PrivateMotion</text>
<text text-anchor="middle" x="2348" y="-186.5" font-family="FreeSans.ttf" font-size="10.00" fill="#000000">ForceVertorAssociations.h</text>
</a>
</g>
</g>
<!-- Node48&#45;&gt;Node52 -->
<g id="edge115" class="edge">
<title>Node48&#45;&gt;Node52</title>
<path fill="none" stroke="#191970" d="M2475.7613,-313.389C2450.3737,-289.7644 2401.1535,-243.9623 2371.7709,-216.6202"/>
<polygon fill="#191970" stroke="#191970" points="2374.1053,-214.0115 2364.4003,-209.7614 2369.3367,-219.136 2374.1053,-214.0115"/>
</g>
<!-- Node53 -->
<g id="node38" class="node">
<title>Node53</title>
<g id="a_node38"><a xlink:href="AngularMotionVector3_8h.html" target="_top" xlink:title="iDynTree/Core/AngularMotion\lVector3.h">
<polygon fill="none" stroke="#ff0000" points="2447,-246.5 2447,-276.5 2605,-276.5 2605,-246.5 2447,-246.5"/>
<text text-anchor="start" x="2455" y="-264.5" font-family="FreeSans.ttf" font-size="10.00" fill="#000000">iDynTree/Core/AngularMotion</text>
<text text-anchor="middle" x="2526" y="-253.5" font-family="FreeSans.ttf" font-size="10.00" fill="#000000">Vector3.h</text>
</a>
</g>
</g>
<!-- Node48&#45;&gt;Node53 -->
<g id="edge107" class="edge">
<title>Node48&#45;&gt;Node53</title>
<path fill="none" stroke="#191970" d="M2499.7151,-313.2967C2503.8449,-305.1586 2509.0292,-294.9425 2513.6998,-285.7386"/>
<polygon fill="#191970" stroke="#191970" points="2516.9112,-287.1445 2518.3154,-276.6432 2510.6689,-283.9768 2516.9112,-287.1445"/>
</g>
<!-- Node54 -->
<g id="node39" class="node">
<title>Node54</title>
<g id="a_node39"><a xlink:href="SpatialVector_8h.html" target="_top" xlink:title="iDynTree/Core/SpatialVector.h">
<polygon fill="none" stroke="#ff0000" points="2021.5,-252 2021.5,-271 2182.5,-271 2182.5,-252 2021.5,-252"/>
<text text-anchor="middle" x="2102" y="-259" font-family="FreeSans.ttf" font-size="10.00" fill="#000000">iDynTree/Core/SpatialVector.h</text>
</a>
</g>
</g>
<!-- Node48&#45;&gt;Node54 -->
<g id="edge110" class="edge">
<title>Node48&#45;&gt;Node54</title>
<path fill="none" stroke="#191970" d="M2414.4823,-315.1828C2342.2199,-302.7685 2235.6409,-284.4588 2167.5221,-272.7564"/>
<polygon fill="#191970" stroke="#191970" points="2167.7937,-269.2518 2157.3454,-271.0081 2166.6084,-276.1508 2167.7937,-269.2518"/>
</g>
<!-- Node49&#45;&gt;Node52 -->
<g id="edge106" class="edge">
<title>Node49&#45;&gt;Node52</title>
<path fill="none" stroke="#191970" d="M2322.4882,-246.2967C2326.4965,-238.1586 2331.5283,-227.9425 2336.0616,-218.7386"/>
<polygon fill="#191970" stroke="#191970" points="2339.2627,-220.1606 2340.5414,-209.6432 2332.9831,-217.0676 2339.2627,-220.1606"/>
</g>
<!-- Node53&#45;&gt;Node13 -->
<g id="edge109" class="edge">
<title>Node53&#45;&gt;Node13</title>
<path fill="none" stroke="#191970" d="M2524.1405,-246.3931C2518.7831,-209.092 2500.0089,-111.6247 2445,-56 2429.3848,-40.21 2407.6066,-29.6379 2387.3326,-22.6583"/>
<polygon fill="#191970" stroke="#191970" points="2388.1256,-19.237 2377.5343,-19.5134 2385.9863,-25.9021 2388.1256,-19.237"/>
</g>
<!-- Node53&#45;&gt;Node52 -->
<g id="edge108" class="edge">
<title>Node53&#45;&gt;Node52</title>
<path fill="none" stroke="#191970" d="M2486.0533,-246.4639C2459.9217,-236.6278 2425.5851,-223.7034 2397.6936,-213.2049"/>
<polygon fill="#191970" stroke="#191970" points="2398.7129,-209.8489 2388.1209,-209.6017 2396.2469,-216.4001 2398.7129,-209.8489"/>
</g>
<!-- Node54&#45;&gt;Node13 -->
<g id="edge114" class="edge">
<title>Node54&#45;&gt;Node13</title>
<path fill="none" stroke="#191970" d="M2117.7641,-251.7332C2145.8086,-234.7378 2206.6315,-199.5762 2262,-179 2326.2656,-155.1174 2369.553,-196.8396 2412,-143 2442.9345,-103.7628 2387.0823,-51.5874 2353.9385,-25.8033"/>
<polygon fill="#191970" stroke="#191970" points="2355.7617,-22.7938 2345.6753,-19.5512 2351.5381,-28.3761 2355.7617,-22.7938"/>
</g>
<!-- Node54&#45;&gt;Node26 -->
<g id="edge111" class="edge">
<title>Node54&#45;&gt;Node26</title>
<path fill="none" stroke="#191970" d="M2092.9736,-251.9005C2083.0558,-241.353 2066.9359,-224.2096 2054.8909,-211.3998"/>
<polygon fill="#191970" stroke="#191970" points="2057.4097,-208.9693 2048.0096,-204.0817 2052.3101,-213.7645 2057.4097,-208.9693"/>
</g>
<!-- Node54&#45;&gt;Node29 -->
<g id="edge112" class="edge">
<title>Node54&#45;&gt;Node29</title>
<path fill="none" stroke="#191970" d="M2107.2928,-251.9729C2115.4303,-235.9377 2128.8009,-202.9618 2116,-179 2107.0046,-162.1617 2089.7961,-149.8661 2073.925,-141.5207"/>
<polygon fill="#191970" stroke="#191970" points="2075.3277,-138.3106 2064.8071,-137.059 2072.251,-144.5982 2075.3277,-138.3106"/>
</g>
<!-- Node54&#45;&gt;Node52 -->
<g id="edge113" class="edge">
<title>Node54&#45;&gt;Node52</title>
<path fill="none" stroke="#191970" d="M2136.9846,-251.9717C2174.8796,-241.6507 2236.1813,-224.9547 2282.9715,-212.211"/>
<polygon fill="#191970" stroke="#191970" points="2283.9934,-215.5603 2292.7222,-209.5553 2282.1538,-208.8063 2283.9934,-215.5603"/>
</g>
<!-- Node70&#45;&gt;Node41 -->
<g id="edge119" class="edge">
<title>Node70&#45;&gt;Node41</title>
<path fill="none" stroke="#191970" d="M2334.3474,-380.4639C2280.4263,-368.2999 2205.568,-351.4127 2156.004,-340.2315"/>
<polygon fill="#191970" stroke="#191970" points="2156.6605,-336.7918 2146.1354,-338.0053 2155.12,-343.6202 2156.6605,-336.7918"/>
</g>
<!-- Node71&#45;&gt;Node10 -->
<g id="edge123" class="edge">
<title>Node71&#45;&gt;Node10</title>
<path fill="none" stroke="#191970" d="M2603.5618,-452.8262C2619.1612,-444.0711 2640.273,-429.6915 2652,-411 2677.6989,-370.039 2681.9977,-311.4174 2682.3516,-281.1924"/>
<polygon fill="#191970" stroke="#191970" points="2685.8515,-281.0873 2682.3305,-271.0947 2678.8515,-281.102 2685.8515,-281.0873"/>
</g>
<!-- Node71&#45;&gt;Node34 -->
<g id="edge121" class="edge">
<title>Node71&#45;&gt;Node34</title>
<path fill="none" stroke="#191970" d="M2575.9552,-452.8512C2560.8358,-435.3929 2526.3239,-398.6462 2489,-380 2485.0351,-378.0192 2181.3817,-313.6666 2177,-313 2001.8471,-286.3523 1955.4688,-301.4816 1780,-277 1771.6461,-275.8344 1762.8509,-274.3974 1754.2472,-272.8726"/>
<polygon fill="#191970" stroke="#191970" points="1754.7388,-269.4046 1744.273,-271.0533 1753.4827,-276.291 1754.7388,-269.4046"/>
</g>
<!-- Node71&#45;&gt;Node42 -->
<g id="edge124" class="edge">
<title>Node71&#45;&gt;Node42</title>
<path fill="none" stroke="#191970" d="M2584.1384,-452.7647C2583.8261,-435.4981 2580.569,-399.4979 2560,-380 2508.9872,-331.6436 2473.2423,-364.4724 2406,-344 2368.7274,-332.6521 2361.8841,-322.1006 2324,-313 2305.5063,-308.5574 2065.5375,-283.1418 1937.4081,-269.752"/>
<polygon fill="#191970" stroke="#191970" points="1937.5605,-266.249 1927.251,-268.6913 1936.8334,-273.2112 1937.5605,-266.249"/>
</g>
<!-- Node71&#45;&gt;Node48 -->
<g id="edge122" class="edge">
<title>Node71&#45;&gt;Node48</title>
<path fill="none" stroke="#191970" d="M2597.943,-452.8914C2618.8489,-437.2879 2654.0372,-405.6068 2636,-380 2627.0667,-367.3177 2596.2857,-355.483 2565.4634,-346.3646"/>
<polygon fill="#191970" stroke="#191970" points="2566.0598,-342.8946 2555.4824,-343.5019 2564.1298,-349.6233 2566.0598,-342.8946"/>
</g>
<!-- Node71&#45;&gt;Node70 -->
<g id="edge125" class="edge">
<title>Node71&#45;&gt;Node70</title>
<path fill="none" stroke="#191970" d="M2557.7806,-452.9005C2530.1374,-442.7798 2485.9076,-426.5864 2451.4632,-413.9756"/>
<polygon fill="#191970" stroke="#191970" points="2452.6234,-410.6732 2442.0296,-410.5218 2450.2167,-417.2465 2452.6234,-410.6732"/>
</g>
<!-- Node73&#45;&gt;Node9 -->
<g id="edge141" class="edge">
<title>Node73&#45;&gt;Node9</title>
<path fill="none" stroke="#191970" d="M1601.9852,-514.4268C1562.8873,-493.0152 1490.2104,-451.8405 1432,-411 1414.1575,-398.4817 1413.1247,-390.4551 1394,-380 1348.8639,-355.325 1329.1361,-368.675 1284,-344 1264.8753,-333.5449 1264.3259,-324.7993 1246,-313 1223.0828,-298.2446 1195.3443,-284.7025 1174.2797,-275.2119"/>
<polygon fill="#191970" stroke="#191970" points="1175.6727,-272.0009 1165.1123,-271.1466 1172.835,-278.4 1175.6727,-272.0009"/>
</g>
<!-- Node73&#45;&gt;Node38 -->
<g id="edge128" class="edge">
<title>Node73&#45;&gt;Node38</title>
<path fill="none" stroke="#191970" d="M1559.788,-518.6608C1479.4953,-506.2654 1348.7275,-486.0777 1267.7831,-473.5817"/>
<polygon fill="#191970" stroke="#191970" points="1268.0954,-470.0886 1257.6785,-472.0218 1267.0274,-477.0066 1268.0954,-470.0886"/>
</g>
<!-- Node74 -->
<g id="node44" class="node">
<title>Node74</title>
<g id="a_node44"><a xlink:href="LinkState_8h.html" target="_top" xlink:title="iDynTree/Model/LinkState.h">
<polygon fill="none" stroke="#000000" points="1694.5,-453 1694.5,-472 1843.5,-472 1843.5,-453 1694.5,-453"/>
<text text-anchor="middle" x="1769" y="-460" font-family="FreeSans.ttf" font-size="10.00" fill="#000000">iDynTree/Model/LinkState.h</text>
</a>
</g>
</g>
<!-- Node73&#45;&gt;Node74 -->
<g id="edge129" class="edge">
<title>Node73&#45;&gt;Node74</title>
<path fill="none" stroke="#191970" d="M1661.1943,-514.4639C1684.7268,-503.1209 1716.7802,-487.6707 1739.8094,-476.5703"/>
<polygon fill="#191970" stroke="#191970" points="1741.587,-479.5989 1749.0754,-472.1039 1738.5476,-473.2932 1741.587,-479.5989"/>
</g>
<!-- Node74&#45;&gt;Node9 -->
<g id="edge140" class="edge">
<title>Node74&#45;&gt;Node9</title>
<path fill="none" stroke="#191970" d="M1694.2447,-458.3992C1633.4856,-452.9644 1546.5857,-440.3353 1476,-411 1453.9101,-401.8195 1453.3814,-390.7276 1432,-380 1386.022,-356.9316 1367.1361,-368.675 1322,-344 1302.8753,-333.5449 1302.9569,-323.7563 1284,-313 1249.1114,-293.204 1205.2179,-278.678 1175.5369,-270.1919"/>
<polygon fill="#191970" stroke="#191970" points="1176.2416,-266.755 1165.6692,-267.4434 1174.3634,-273.4983 1176.2416,-266.755"/>
</g>
<!-- Node74&#45;&gt;Node34 -->
<g id="edge130" class="edge">
<title>Node74&#45;&gt;Node34</title>
<path fill="none" stroke="#191970" d="M1810.0347,-452.8961C1855.52,-440.2622 1919.2341,-415.4314 1893,-380 1860.3724,-335.9335 1821.5141,-373.032 1775,-344 1747.862,-327.0617 1724.0177,-298.1686 1710.3056,-279.4613"/>
<polygon fill="#191970" stroke="#191970" points="1713.0696,-277.3088 1704.4181,-271.193 1707.3674,-281.3691 1713.0696,-277.3088"/>
</g>
<!-- Node74&#45;&gt;Node42 -->
<g id="edge139" class="edge">
<title>Node74&#45;&gt;Node42</title>
<path fill="none" stroke="#191970" d="M1752.7618,-452.8206C1727.8894,-436.8445 1685.4865,-404.3079 1708,-380 1779.0283,-303.3107 2105.9717,-420.6893 2177,-344 2186.3621,-333.8917 2185.9323,-323.49 2177,-313 2169.222,-303.8656 2029.3641,-283.9388 1937.4399,-271.7245"/>
<polygon fill="#191970" stroke="#191970" points="1937.6863,-268.2267 1927.3135,-270.3843 1936.7679,-275.1662 1937.6863,-268.2267"/>
</g>
<!-- Node47 -->
<g id="node45" class="node">
<title>Node47</title>
<g id="a_node45"><a xlink:href="Twist_8h.html" target="_top" xlink:title="iDynTree/Core/Twist.h">
<polygon fill="none" stroke="#000000" points="2106,-386 2106,-405 2228,-405 2228,-386 2106,-386"/>
<text text-anchor="middle" x="2167" y="-393" font-family="FreeSans.ttf" font-size="10.00" fill="#000000">iDynTree/Core/Twist.h</text>
</a>
</g>
</g>
<!-- Node74&#45;&gt;Node47 -->
<g id="edge131" class="edge">
<title>Node74&#45;&gt;Node47</title>
<path fill="none" stroke="#191970" d="M1837.6889,-452.9836C1904.2004,-443.4699 2007.7935,-427.8628 2097,-411 2103.1802,-409.8317 2109.648,-408.5208 2116.049,-407.169"/>
<polygon fill="#191970" stroke="#191970" points="2116.9628,-410.5525 2126.0018,-405.0257 2115.4891,-403.7094 2116.9628,-410.5525"/>
</g>
<!-- Node62 -->
<g id="node46" class="node">
<title>Node62</title>
<g id="a_node46"><a xlink:href="SpatialAcc_8h.html" target="_top" xlink:title="iDynTree/Core/SpatialAcc.h">
<polygon fill="none" stroke="#000000" points="1940,-386 1940,-405 2088,-405 2088,-386 1940,-386"/>
<text text-anchor="middle" x="2014" y="-393" font-family="FreeSans.ttf" font-size="10.00" fill="#000000">iDynTree/Core/SpatialAcc.h</text>
</a>
</g>
</g>
<!-- Node74&#45;&gt;Node62 -->
<g id="edge133" class="edge">
<title>Node74&#45;&gt;Node62</title>
<path fill="none" stroke="#191970" d="M1803.8423,-452.9717C1847.2569,-441.0991 1921.5183,-420.7909 1969.1435,-407.7669"/>
<polygon fill="#191970" stroke="#191970" points="1970.1586,-411.1179 1978.8812,-405.1039 1968.3121,-404.3658 1970.1586,-411.1179"/>
</g>
<!-- Node63 -->
<g id="node47" class="node">
<title>Node63</title>
<g id="a_node47"><a xlink:href="Wrench_8h.html" target="_top" xlink:title="iDynTree/Core/Wrench.h">
<polygon fill="none" stroke="#ff0000" points="1750.5,-386 1750.5,-405 1883.5,-405 1883.5,-386 1750.5,-386"/>
<text text-anchor="middle" x="1817" y="-393" font-family="FreeSans.ttf" font-size="10.00" fill="#000000">iDynTree/Core/Wrench.h</text>
</a>
</g>
</g>
<!-- Node74&#45;&gt;Node63 -->
<g id="edge135" class="edge">
<title>Node74&#45;&gt;Node63</title>
<path fill="none" stroke="#191970" d="M1775.8772,-452.9005C1783.2198,-442.6515 1795.0241,-426.1747 1804.1062,-413.4976"/>
<polygon fill="#191970" stroke="#191970" points="1807.1568,-415.2492 1810.1355,-405.0817 1801.4664,-411.1724 1807.1568,-415.2492"/>
</g>
<!-- Node75 -->
<g id="node48" class="node">
<title>Node75</title>
<g id="a_node48"><a xlink:href="ArticulatedBodyInertia_8h.html" target="_top" xlink:title="iDynTree/Core/Articulated\lBodyInertia.h">
<polygon fill="none" stroke="#000000" points="1581.5,-112.5 1581.5,-142.5 1722.5,-142.5 1722.5,-112.5 1581.5,-112.5"/>
<text text-anchor="start" x="1589.5" y="-130.5" font-family="FreeSans.ttf" font-size="10.00" fill="#000000">iDynTree/Core/Articulated</text>
<text text-anchor="middle" x="1652" y="-119.5" font-family="FreeSans.ttf" font-size="10.00" fill="#000000">BodyInertia.h</text>
</a>
</g>
</g>
<!-- Node74&#45;&gt;Node75 -->
<g id="edge136" class="edge">
<title>Node74&#45;&gt;Node75</title>
<path fill="none" stroke="#191970" d="M1760.4488,-452.8049C1746.6014,-435.9203 1722.6754,-400.9249 1742,-380 1810.363,-305.9757 2125.637,-418.0243 2194,-344 2203.3476,-333.8783 2202.7406,-323.6503 2194,-313 2141.9664,-249.598 2088.3833,-309.3214 2013,-277 1991.014,-267.5733 1990.1545,-257.1684 1969,-246 1884.4904,-201.3837 1779.4031,-165.6263 1714.0007,-145.4811"/>
<polygon fill="#191970" stroke="#191970" points="1714.8366,-142.0769 1704.2503,-142.5031 1712.7918,-148.7716 1714.8366,-142.0769"/>
</g>
<!-- Node47&#45;&gt;Node48 -->
<g id="edge132" class="edge">
<title>Node47&#45;&gt;Node48</title>
<path fill="none" stroke="#191970" d="M2213.2194,-385.9717C2264.122,-375.4779 2346.9917,-358.394 2409.1758,-345.5745"/>
<polygon fill="#191970" stroke="#191970" points="2409.883,-349.0024 2418.9703,-343.5553 2408.4696,-342.1466 2409.883,-349.0024"/>
</g>
<!-- Node62&#45;&gt;Node48 -->
<g id="edge134" class="edge">
<title>Node62&#45;&gt;Node48</title>
<path fill="none" stroke="#191970" d="M2062.1859,-385.9417C2073.5765,-383.8377 2085.697,-381.7249 2097,-380 2231.0617,-359.5412 2265.7624,-363.2709 2400,-344 2401.3077,-343.8123 2402.6254,-343.6208 2403.9513,-343.4259"/>
<polygon fill="#191970" stroke="#191970" points="2404.8756,-346.8262 2414.2418,-341.8739 2403.8316,-339.9045 2404.8756,-346.8262"/>
</g>
<!-- Node75&#45;&gt;Node4 -->
<g id="edge138" class="edge">
<title>Node75&#45;&gt;Node4</title>
<path fill="none" stroke="#191970" d="M1624.3234,-112.405C1597.4827,-97.8172 1555.5683,-75.172 1519,-56 1498.4127,-45.2065 1475.033,-33.2663 1457.2632,-24.2563"/>
<polygon fill="#191970" stroke="#191970" points="1458.5244,-20.9718 1448.0217,-19.578 1455.3629,-27.2172 1458.5244,-20.9718"/>
</g>
<!-- Node75&#45;&gt;Node31 -->
<g id="edge137" class="edge">
<title>Node75&#45;&gt;Node31</title>
<path fill="none" stroke="#191970" d="M1652,-112.2977C1652,-104.3834 1652,-94.6043 1652,-86.0759"/>
<polygon fill="#191970" stroke="#191970" points="1655.5001,-85.8469 1652,-75.8469 1648.5001,-85.847 1655.5001,-85.8469"/>
</g>
</g>
</svg>
