<?xml version="1.0" encoding="UTF-8" standalone="no"?>
<!DOCTYPE svg PUBLIC "-//W3C//DTD SVG 1.1//EN"
 "http://www.w3.org/Graphics/SVG/1.1/DTD/svg11.dtd">
<!-- Generated by graphviz version 2.40.1 (20161225.0304)
 -->
<!-- Title: URDFDocument.h Pages: 1 -->
<svg width="2527pt" height="655pt"
 viewBox="0.00 0.00 2527.41 655.00" xmlns="http://www.w3.org/2000/svg" xmlns:xlink="http://www.w3.org/1999/xlink">
<g id="graph0" class="graph" transform="scale(1 1) rotate(0) translate(4 651)">
<title>URDFDocument.h</title>
<!-- Node0 -->
<g id="node1" class="node">
<title>Node0</title>
<polygon fill="#bfbfbf" stroke="#000000" points="1325,-627.5 1325,-646.5 1428,-646.5 1428,-627.5 1325,-627.5"/>
<text text-anchor="middle" x="1376.5" y="-634.5" font-family="FreeSans.ttf" font-size="10.00" fill="#000000">URDFDocument.h</text>
</g>
<!-- Node1 -->
<g id="node2" class="node">
<title>Node1</title>
<g id="a_node2"><a xlink:href="XMLDocument_8h.html" target="_top" xlink:title="iDynTree/XMLDocument.h">
<polygon fill="none" stroke="#000000" points="598.5,-403.5 598.5,-422.5 740.5,-422.5 740.5,-403.5 598.5,-403.5"/>
<text text-anchor="middle" x="669.5" y="-410.5" font-family="FreeSans.ttf" font-size="10.00" fill="#000000">iDynTree/XMLDocument.h</text>
</a>
</g>
</g>
<!-- Node0&#45;&gt;Node1 -->
<g id="edge1" class="edge">
<title>Node0&#45;&gt;Node1</title>
<path fill="none" stroke="#191970" d="M1324.9312,-631.779C1214.6568,-618.9763 949.9832,-579.4186 753.5,-479 727.9051,-465.9189 702.5133,-444.4864 686.4598,-429.6089"/>
<polygon fill="#191970" stroke="#191970" points="688.6302,-426.8439 678.9644,-422.5055 683.8151,-431.9247 688.6302,-426.8439"/>
</g>
<!-- Node3 -->
<g id="node4" class="node">
<title>Node3</title>
<polygon fill="none" stroke="#bfbfbf" points="1129.5,-56.5 1129.5,-75.5 1173.5,-75.5 1173.5,-56.5 1129.5,-56.5"/>
<text text-anchor="middle" x="1151.5" y="-63.5" font-family="FreeSans.ttf" font-size="10.00" fill="#000000">string</text>
</g>
<!-- Node0&#45;&gt;Node3 -->
<g id="edge124" class="edge">
<title>Node0&#45;&gt;Node3</title>
<path fill="none" stroke="#191970" d="M1428.1586,-633.9562C1632.9306,-621.5551 2376.5,-573.2053 2376.5,-525 2376.5,-525 2376.5,-525 2376.5,-178 2376.5,-151.9567 2816.1492,-218.4712 2151.5,-112 1958.761,-81.1248 1334.3333,-69.0161 1184.1876,-66.5121"/>
<polygon fill="#191970" stroke="#191970" points="1183.8768,-63.0066 1173.8207,-66.342 1183.7619,-70.0057 1183.8768,-63.0066"/>
</g>
<!-- Node4 -->
<g id="node5" class="node">
<title>Node4</title>
<g id="a_node5"><a xlink:href="JointElement_8h.html" target="_top" xlink:title="JointElement.h">
<polygon fill="none" stroke="#000000" points="762.5,-459.5 762.5,-478.5 850.5,-478.5 850.5,-459.5 762.5,-459.5"/>
<text text-anchor="middle" x="806.5" y="-466.5" font-family="FreeSans.ttf" font-size="10.00" fill="#000000">JointElement.h</text>
</a>
</g>
</g>
<!-- Node0&#45;&gt;Node4 -->
<g id="edge4" class="edge">
<title>Node0&#45;&gt;Node4</title>
<path fill="none" stroke="#191970" d="M1341.8931,-627.4927C1308.6655,-618.3172 1257.0838,-603.95 1212.5,-591 1078.5056,-552.0795 920.3112,-503.8967 847.246,-481.5152"/>
<polygon fill="#191970" stroke="#191970" points="848.0993,-478.1161 837.5126,-478.532 846.0479,-484.8088 848.0993,-478.1161"/>
</g>
<!-- Node7 -->
<g id="node8" class="node">
<title>Node7</title>
<polygon fill="none" stroke="#bfbfbf" points="1201,-347.5 1201,-366.5 1294,-366.5 1294,-347.5 1201,-347.5"/>
<text text-anchor="middle" x="1247.5" y="-354.5" font-family="FreeSans.ttf" font-size="10.00" fill="#000000">unordered_map</text>
</g>
<!-- Node0&#45;&gt;Node7 -->
<g id="edge126" class="edge">
<title>Node0&#45;&gt;Node7</title>
<path fill="none" stroke="#191970" d="M1359.4217,-627.4135C1346.4332,-619.2954 1329.0523,-606.5155 1318.5,-591 1301.2629,-565.6556 1298.5,-555.6506 1298.5,-525 1298.5,-525 1298.5,-525 1298.5,-469 1298.5,-433.0802 1276.5045,-396.0352 1261.4033,-374.8345"/>
<polygon fill="#191970" stroke="#191970" points="1264.0094,-372.4725 1255.2458,-366.5185 1258.3837,-376.638 1264.0094,-372.4725"/>
</g>
<!-- Node8 -->
<g id="node9" class="node">
<title>Node8</title>
<polygon fill="none" stroke="#bfbfbf" points="1683,-347.5 1683,-366.5 1730,-366.5 1730,-347.5 1683,-347.5"/>
<text text-anchor="middle" x="1706.5" y="-354.5" font-family="FreeSans.ttf" font-size="10.00" fill="#000000">vector</text>
</g>
<!-- Node0&#45;&gt;Node8 -->
<g id="edge125" class="edge">
<title>Node0&#45;&gt;Node8</title>
<path fill="none" stroke="#191970" d="M1428.3146,-634.0412C1528.2986,-627.8779 1740.2637,-612.4338 1765.5,-591 1788.7657,-571.2399 1784.5,-555.5246 1784.5,-525 1784.5,-525 1784.5,-525 1784.5,-469 1784.5,-428.9033 1750.4191,-392.8785 1727.3129,-373.0622"/>
<polygon fill="#191970" stroke="#191970" points="1729.3211,-370.1816 1719.3801,-366.5173 1724.8663,-375.5811 1729.3211,-370.1816"/>
</g>
<!-- Node35 -->
<g id="node36" class="node">
<title>Node35</title>
<g id="a_node36"><a xlink:href="MaterialElement_8h.html" target="_top" xlink:title="MaterialElement.h">
<polygon fill="none" stroke="#000000" points="948.5,-459.5 948.5,-478.5 1054.5,-478.5 1054.5,-459.5 948.5,-459.5"/>
<text text-anchor="middle" x="1001.5" y="-466.5" font-family="FreeSans.ttf" font-size="10.00" fill="#000000">MaterialElement.h</text>
</a>
</g>
</g>
<!-- Node0&#45;&gt;Node35 -->
<g id="edge67" class="edge">
<title>Node0&#45;&gt;Node35</title>
<path fill="none" stroke="#191970" d="M1349.7992,-627.3391C1325.5269,-618.4012 1288.8267,-604.4963 1257.5,-591 1173.2849,-554.7182 1076.1037,-506.6523 1029.4003,-483.154"/>
<polygon fill="#191970" stroke="#191970" points="1030.7281,-479.9038 1020.2233,-478.5258 1027.5759,-486.1539 1030.7281,-479.9038"/>
</g>
<!-- Node36 -->
<g id="node37" class="node">
<title>Node36</title>
<g id="a_node37"><a xlink:href="SensorElement_8h.html" target="_top" xlink:title="SensorElement.h">
<polygon fill="none" stroke="#000000" points="1327,-571.5 1327,-590.5 1426,-590.5 1426,-571.5 1327,-571.5"/>
<text text-anchor="middle" x="1376.5" y="-578.5" font-family="FreeSans.ttf" font-size="10.00" fill="#000000">SensorElement.h</text>
</a>
</g>
</g>
<!-- Node0&#45;&gt;Node36 -->
<g id="edge72" class="edge">
<title>Node0&#45;&gt;Node36</title>
<path fill="none" stroke="#191970" d="M1376.5,-627.2455C1376.5,-619.9382 1376.5,-609.6944 1376.5,-600.7046"/>
<polygon fill="#191970" stroke="#191970" points="1380.0001,-600.6426 1376.5,-590.6427 1373.0001,-600.6427 1380.0001,-600.6426"/>
</g>
<!-- Node37 -->
<g id="node38" class="node">
<title>Node37</title>
<g id="a_node38"><a xlink:href="Sensors_8h.html" target="_top" xlink:title="iDynTree/Sensors/Sensors.h">
<polygon fill="none" stroke="#000000" points="1813,-515.5 1813,-534.5 1964,-534.5 1964,-515.5 1813,-515.5"/>
<text text-anchor="middle" x="1888.5" y="-522.5" font-family="FreeSans.ttf" font-size="10.00" fill="#000000">iDynTree/Sensors/Sensors.h</text>
</a>
</g>
</g>
<!-- Node0&#45;&gt;Node37 -->
<g id="edge123" class="edge">
<title>Node0&#45;&gt;Node37</title>
<path fill="none" stroke="#191970" d="M1428.1708,-634.713C1525.4851,-629.8585 1732.1255,-616.7948 1798.5,-591 1827.0578,-579.9017 1854.6737,-557.3332 1871.6159,-541.6984"/>
<polygon fill="#191970" stroke="#191970" points="1874.1878,-544.0829 1879.0329,-534.6608 1869.3696,-539.005 1874.1878,-544.0829"/>
</g>
<!-- Node39 -->
<g id="node40" class="node">
<title>Node39</title>
<g id="a_node40"><a xlink:href="Model_8h.html" target="_top" xlink:title="iDynTree/Model/Model.h">
<polygon fill="none" stroke="#000000" points="1585,-459.5 1585,-478.5 1718,-478.5 1718,-459.5 1585,-459.5"/>
<text text-anchor="middle" x="1651.5" y="-466.5" font-family="FreeSans.ttf" font-size="10.00" fill="#000000">iDynTree/Model/Model.h</text>
</a>
</g>
</g>
<!-- Node0&#45;&gt;Node39 -->
<g id="edge122" class="edge">
<title>Node0&#45;&gt;Node39</title>
<path fill="none" stroke="#191970" d="M1393.3389,-627.3826C1424.4305,-609.5564 1492.849,-570.0079 1549.5,-535 1577.0083,-518.001 1608.1511,-497.6915 1628.7092,-484.1334"/>
<polygon fill="#191970" stroke="#191970" points="1630.6824,-487.0247 1637.0945,-478.5905 1626.8222,-481.1852 1630.6824,-487.0247"/>
</g>
<!-- Node65 -->
<g id="node49" class="node">
<title>Node65</title>
<g id="a_node49"><a xlink:href="VisualElement_8h.html" target="_top" xlink:title="VisualElement.h">
<polygon fill="none" stroke="#000000" points="1174.5,-515.5 1174.5,-534.5 1270.5,-534.5 1270.5,-515.5 1174.5,-515.5"/>
<text text-anchor="middle" x="1222.5" y="-522.5" font-family="FreeSans.ttf" font-size="10.00" fill="#000000">VisualElement.h</text>
</a>
</g>
</g>
<!-- Node0&#45;&gt;Node65 -->
<g id="edge107" class="edge">
<title>Node0&#45;&gt;Node65</title>
<path fill="none" stroke="#191970" d="M1351.7211,-627.4454C1332.3931,-619.3449 1305.41,-606.573 1284.5,-591 1265.7054,-577.0024 1247.7773,-556.9288 1236.0788,-542.6008"/>
<polygon fill="#191970" stroke="#191970" points="1238.6162,-540.1687 1229.6479,-534.5277 1233.141,-544.5302 1238.6162,-540.1687"/>
</g>
<!-- Node66 -->
<g id="node50" class="node">
<title>Node66</title>
<g id="a_node50"><a xlink:href="ModelLoader_8h.html" target="_top" xlink:title="iDynTree/ModelIO/ModelLoader.h">
<polygon fill="none" stroke="#000000" points="1580.5,-571.5 1580.5,-590.5 1756.5,-590.5 1756.5,-571.5 1580.5,-571.5"/>
<text text-anchor="middle" x="1668.5" y="-578.5" font-family="FreeSans.ttf" font-size="10.00" fill="#000000">iDynTree/ModelIO/ModelLoader.h</text>
</a>
</g>
</g>
<!-- Node0&#45;&gt;Node66 -->
<g id="edge116" class="edge">
<title>Node0&#45;&gt;Node66</title>
<path fill="none" stroke="#191970" d="M1426.3648,-627.4369C1476.8633,-617.7522 1554.9835,-602.7703 1608.7605,-592.4569"/>
<polygon fill="#191970" stroke="#191970" points="1609.6791,-595.8446 1618.8409,-590.5237 1608.3606,-588.9699 1609.6791,-595.8446"/>
</g>
<!-- Node2 -->
<g id="node3" class="node">
<title>Node2</title>
<polygon fill="none" stroke="#bfbfbf" points="891.5,-347.5 891.5,-366.5 949.5,-366.5 949.5,-347.5 891.5,-347.5"/>
<text text-anchor="middle" x="920.5" y="-354.5" font-family="FreeSans.ttf" font-size="10.00" fill="#000000">memory</text>
</g>
<!-- Node1&#45;&gt;Node2 -->
<g id="edge2" class="edge">
<title>Node1&#45;&gt;Node2</title>
<path fill="none" stroke="#191970" d="M712.3632,-403.4369C759.7458,-392.8655 835.4189,-375.9822 881.2859,-365.749"/>
<polygon fill="#191970" stroke="#191970" points="882.1583,-369.1405 891.1562,-363.5468 880.634,-362.3084 882.1583,-369.1405"/>
</g>
<!-- Node1&#45;&gt;Node3 -->
<g id="edge3" class="edge">
<title>Node1&#45;&gt;Node3</title>
<path fill="none" stroke="#191970" d="M664.93,-403.391C653.1636,-378.0524 622.0149,-307.0303 611.5,-244 605.2859,-206.7501 617.5831,-188.1862 649.5,-168 738.0587,-111.9902 783.3763,-165.9741 882.5,-132 899.8146,-126.0655 901.3127,-118.2935 918.5,-112 987.5007,-86.7339 1073.3482,-74.3531 1119.148,-69.162"/>
<polygon fill="#191970" stroke="#191970" points="1119.7996,-72.6118 1129.3617,-68.0492 1119.0414,-65.653 1119.7996,-72.6118"/>
</g>
<!-- Node4&#45;&gt;Node2 -->
<g id="edge64" class="edge">
<title>Node4&#45;&gt;Node2</title>
<path fill="none" stroke="#191970" d="M807.7482,-459.352C810.008,-445.3955 815.9707,-419.4481 830.5,-403 844.1248,-387.5759 864.1552,-376.6296 881.8624,-369.2956"/>
<polygon fill="#191970" stroke="#191970" points="883.3521,-372.4718 891.4053,-365.5873 880.8166,-365.9471 883.3521,-372.4718"/>
</g>
<!-- Node4&#45;&gt;Node3 -->
<g id="edge65" class="edge">
<title>Node4&#45;&gt;Node3</title>
<path fill="none" stroke="#191970" d="M805.526,-459.3705C804.6164,-445.8879 804.6277,-421.0177 814.5,-403 833.3131,-368.6648 847.584,-364.712 882.5,-347 1019.2567,-277.6266 1208.5,-387.3462 1208.5,-234 1208.5,-234 1208.5,-234 1208.5,-178 1208.5,-141.1826 1183.7325,-104.2377 1166.8499,-83.3313"/>
<polygon fill="#191970" stroke="#191970" points="1169.5131,-81.06 1160.4063,-75.6456 1164.1489,-85.5574 1169.5131,-81.06"/>
</g>
<!-- Node5 -->
<g id="node6" class="node">
<title>Node5</title>
<g id="a_node6"><a xlink:href="XMLElement_8h.html" target="_top" xlink:title="iDynTree/XMLElement.h">
<polygon fill="none" stroke="#000000" points="1062.5,-403.5 1062.5,-422.5 1194.5,-422.5 1194.5,-403.5 1062.5,-403.5"/>
<text text-anchor="middle" x="1128.5" y="-410.5" font-family="FreeSans.ttf" font-size="10.00" fill="#000000">iDynTree/XMLElement.h</text>
</a>
</g>
</g>
<!-- Node4&#45;&gt;Node5 -->
<g id="edge5" class="edge">
<title>Node4&#45;&gt;Node5</title>
<path fill="none" stroke="#191970" d="M850.5976,-461.3309C905.6954,-451.7486 1000.4241,-435.2741 1063.7553,-424.26"/>
<polygon fill="#191970" stroke="#191970" points="1064.3867,-427.7028 1073.6391,-422.541 1063.1872,-420.8063 1064.3867,-427.7028"/>
</g>
<!-- Node4&#45;&gt;Node7 -->
<g id="edge66" class="edge">
<title>Node4&#45;&gt;Node7</title>
<path fill="none" stroke="#191970" d="M841.1887,-459.3991C888.9082,-446.2676 977.5349,-422.1513 1053.5,-403 1101.6673,-390.8567 1156.7955,-377.8726 1195.9439,-368.8063"/>
<polygon fill="#191970" stroke="#191970" points="1196.8341,-372.1929 1205.789,-366.5309 1195.2577,-365.3727 1196.8341,-372.1929"/>
</g>
<!-- Node9 -->
<g id="node10" class="node">
<title>Node9</title>
<g id="a_node10"><a xlink:href="Axis_8h.html" target="_top" xlink:title="iDynTree/Core/Axis.h">
<polygon fill="none" stroke="#000000" points="317.5,-347.5 317.5,-366.5 435.5,-366.5 435.5,-347.5 317.5,-347.5"/>
<text text-anchor="middle" x="376.5" y="-354.5" font-family="FreeSans.ttf" font-size="10.00" fill="#000000">iDynTree/Core/Axis.h</text>
</a>
</g>
</g>
<!-- Node4&#45;&gt;Node9 -->
<g id="edge11" class="edge">
<title>Node4&#45;&gt;Node9</title>
<path fill="none" stroke="#191970" d="M762.0368,-464.4293C708.1437,-458.1989 614.9257,-445.1974 537.5,-423 489.6038,-409.2685 436.5934,-385.834 404.9408,-370.8997"/>
<polygon fill="#191970" stroke="#191970" points="406.3655,-367.7015 395.8325,-366.5579 403.3533,-374.0203 406.3655,-367.7015"/>
</g>
<!-- Node33 -->
<g id="node34" class="node">
<title>Node33</title>
<g id="a_node34"><a xlink:href="Transform_8h.html" target="_top" xlink:title="iDynTree/Core/Transform.h">
<polygon fill="none" stroke="#000000" points="453.5,-347.5 453.5,-366.5 599.5,-366.5 599.5,-347.5 453.5,-347.5"/>
<text text-anchor="middle" x="526.5" y="-354.5" font-family="FreeSans.ttf" font-size="10.00" fill="#000000">iDynTree/Core/Transform.h</text>
</a>
</g>
</g>
<!-- Node4&#45;&gt;Node33 -->
<g id="edge56" class="edge">
<title>Node4&#45;&gt;Node33</title>
<path fill="none" stroke="#191970" d="M762.2824,-465.754C699.2985,-460.3288 587.8892,-447.5159 556.5,-423 541.9725,-411.6536 534.2485,-391.689 530.2982,-376.6802"/>
<polygon fill="#191970" stroke="#191970" points="533.6852,-375.7905 528.0454,-366.8215 526.8611,-377.35 533.6852,-375.7905"/>
</g>
<!-- Node5&#45;&gt;Node2 -->
<g id="edge7" class="edge">
<title>Node5&#45;&gt;Node2</title>
<path fill="none" stroke="#191970" d="M1092.7435,-403.3733C1055.6381,-393.3833 997.7824,-377.8068 959.5147,-367.5039"/>
<polygon fill="#191970" stroke="#191970" points="960.3198,-364.0961 949.7537,-364.876 958.4999,-370.8555 960.3198,-364.0961"/>
</g>
<!-- Node5&#45;&gt;Node3 -->
<g id="edge8" class="edge">
<title>Node5&#45;&gt;Node3</title>
<path fill="none" stroke="#191970" d="M1136.3754,-403.102C1147.7121,-389.3006 1169.7775,-364.0539 1192.5,-347 1219.85,-326.473 1238.6532,-337.3078 1260.5,-311 1283.4008,-283.4229 1284.5,-269.846 1284.5,-234 1284.5,-234 1284.5,-234 1284.5,-178 1284.5,-146.7875 1282.0055,-134.6216 1260.5,-112 1239.9443,-90.3776 1207.6249,-78.4831 1183.5081,-72.2383"/>
<polygon fill="#191970" stroke="#191970" points="1184.2731,-68.8226 1173.7328,-69.896 1182.642,-75.6299 1184.2731,-68.8226"/>
</g>
<!-- Node6 -->
<g id="node7" class="node">
<title>Node6</title>
<polygon fill="none" stroke="#bfbfbf" points="1079,-347.5 1079,-366.5 1144,-366.5 1144,-347.5 1079,-347.5"/>
<text text-anchor="middle" x="1111.5" y="-354.5" font-family="FreeSans.ttf" font-size="10.00" fill="#000000">functional</text>
</g>
<!-- Node5&#45;&gt;Node6 -->
<g id="edge6" class="edge">
<title>Node5&#45;&gt;Node6</title>
<path fill="none" stroke="#191970" d="M1125.5388,-403.2455C1123.2962,-395.8579 1120.1423,-385.4689 1117.3919,-376.4087"/>
<polygon fill="#191970" stroke="#191970" points="1120.6812,-375.1948 1114.4272,-366.6427 1113.983,-377.2282 1120.6812,-375.1948"/>
</g>
<!-- Node5&#45;&gt;Node7 -->
<g id="edge9" class="edge">
<title>Node5&#45;&gt;Node7</title>
<path fill="none" stroke="#191970" d="M1148.9568,-403.3733C1167.9738,-394.4241 1196.5175,-380.9917 1217.9976,-370.8835"/>
<polygon fill="#191970" stroke="#191970" points="1219.7522,-373.926 1227.3101,-366.5011 1216.7716,-367.5923 1219.7522,-373.926"/>
</g>
<!-- Node5&#45;&gt;Node8 -->
<g id="edge10" class="edge">
<title>Node5&#45;&gt;Node8</title>
<path fill="none" stroke="#191970" d="M1194.7824,-411.1833C1297.2727,-407.5176 1500.0803,-396.849 1669.5,-367 1670.5813,-366.8095 1671.6769,-366.602 1672.7804,-366.3805"/>
<polygon fill="#191970" stroke="#191970" points="1673.7942,-369.7389 1682.7571,-364.0895 1672.2274,-362.9165 1673.7942,-369.7389"/>
</g>
<!-- Node9&#45;&gt;Node3 -->
<g id="edge12" class="edge">
<title>Node9&#45;&gt;Node3</title>
<path fill="none" stroke="#191970" d="M389.4787,-347.4636C423.7888,-322.7579 520.5085,-256.3519 611.5,-224 701.5487,-191.9833 732.9731,-218.6382 823.5,-188 841.578,-181.8816 844.0997,-175.8406 861.5,-168 902.666,-149.4506 914.4258,-148.3852 956.5,-132 978.8025,-123.3146 983.967,-120.0686 1006.5,-112 1044.9781,-98.2219 1089.9228,-84.292 1119.4549,-75.4287"/>
<polygon fill="#191970" stroke="#191970" points="1120.6409,-78.7274 1129.2222,-72.5135 1118.6388,-72.0198 1120.6409,-78.7274"/>
</g>
<!-- Node10 -->
<g id="node11" class="node">
<title>Node10</title>
<g id="a_node11"><a xlink:href="Direction_8h.html" target="_top" xlink:title="iDynTree/Core/Direction.h">
<polygon fill="none" stroke="#000000" points="385,-168.5 385,-187.5 526,-187.5 526,-168.5 385,-168.5"/>
<text text-anchor="middle" x="455.5" y="-175.5" font-family="FreeSans.ttf" font-size="10.00" fill="#000000">iDynTree/Core/Direction.h</text>
</a>
</g>
</g>
<!-- Node9&#45;&gt;Node10 -->
<g id="edge13" class="edge">
<title>Node9&#45;&gt;Node10</title>
<path fill="none" stroke="#191970" d="M380.7474,-347.3762C393.2856,-318.9669 430.307,-235.0828 447.0761,-197.0871"/>
<polygon fill="#191970" stroke="#191970" points="450.3959,-198.2332 451.2316,-187.6714 443.9919,-195.4068 450.3959,-198.2332"/>
</g>
<!-- Node12 -->
<g id="node13" class="node">
<title>Node12</title>
<g id="a_node13"><a xlink:href="Utils_8h.html" target="_top" xlink:title="iDynTree/Core/Utils.h">
<polygon fill="none" stroke="#000000" points="357,-56.5 357,-75.5 476,-75.5 476,-56.5 357,-56.5"/>
<text text-anchor="middle" x="416.5" y="-63.5" font-family="FreeSans.ttf" font-size="10.00" fill="#000000">iDynTree/Core/Utils.h</text>
</a>
</g>
</g>
<!-- Node9&#45;&gt;Node12 -->
<g id="edge55" class="edge">
<title>Node9&#45;&gt;Node12</title>
<path fill="none" stroke="#191970" d="M375.147,-347.439C371.4694,-319.4932 362.412,-235.6528 375.5,-168 381.3921,-137.5435 396.3301,-104.6434 406.4521,-84.6804"/>
<polygon fill="#191970" stroke="#191970" points="409.5909,-86.2305 411.1031,-75.7441 403.3816,-82.9987 409.5909,-86.2305"/>
</g>
<!-- Node25 -->
<g id="node26" class="node">
<title>Node25</title>
<g id="a_node26"><a xlink:href="Position_8h.html" target="_top" xlink:title="iDynTree/Core/Position.h">
<polygon fill="none" stroke="#000000" points="718.5,-286 718.5,-305 854.5,-305 854.5,-286 718.5,-286"/>
<text text-anchor="middle" x="786.5" y="-293" font-family="FreeSans.ttf" font-size="10.00" fill="#000000">iDynTree/Core/Position.h</text>
</a>
</g>
</g>
<!-- Node9&#45;&gt;Node25 -->
<g id="edge33" class="edge">
<title>Node9&#45;&gt;Node25</title>
<path fill="none" stroke="#191970" d="M435.6797,-348.1231C508.9428,-337.1336 633.7243,-318.4163 713.036,-306.5196"/>
<polygon fill="#191970" stroke="#191970" points="713.5852,-309.9765 722.9553,-305.0317 712.5468,-303.0539 713.5852,-309.9765"/>
</g>
<!-- Node10&#45;&gt;Node3 -->
<g id="edge14" class="edge">
<title>Node10&#45;&gt;Node3</title>
<path fill="none" stroke="#191970" d="M526.1562,-172.4209C622.2285,-164.3693 788.8244,-148.6239 847.5,-132 867.779,-126.2546 870.395,-118.3274 890.5,-112 970.6414,-86.7781 1069.2464,-74.1333 1119.201,-68.9558"/>
<polygon fill="#191970" stroke="#191970" points="1119.7841,-72.415 1129.385,-67.9347 1119.0857,-65.4499 1119.7841,-72.415"/>
</g>
<!-- Node11 -->
<g id="node12" class="node">
<title>Node11</title>
<g id="a_node12"><a xlink:href="VectorFixSize_8h.html" target="_top" xlink:title="iDynTree/Core/VectorFixSize.h">
<polygon fill="none" stroke="#000000" points="0,-112.5 0,-131.5 161,-131.5 161,-112.5 0,-112.5"/>
<text text-anchor="middle" x="80.5" y="-119.5" font-family="FreeSans.ttf" font-size="10.00" fill="#000000">iDynTree/Core/VectorFixSize.h</text>
</a>
</g>
</g>
<!-- Node10&#45;&gt;Node11 -->
<g id="edge15" class="edge">
<title>Node10&#45;&gt;Node11</title>
<path fill="none" stroke="#191970" d="M391.4613,-168.4369C325.665,-158.6113 223.3556,-143.3331 154.2251,-133.0096"/>
<polygon fill="#191970" stroke="#191970" points="154.6819,-129.5391 144.2746,-131.5237 153.6479,-136.4623 154.6819,-129.5391"/>
</g>
<!-- Node10&#45;&gt;Node12 -->
<g id="edge32" class="edge">
<title>Node10&#45;&gt;Node12</title>
<path fill="none" stroke="#191970" d="M447.4494,-168.4641C440.4421,-159.6103 430.6273,-145.7587 425.5,-132 419.9474,-117.1 417.7631,-99.1657 416.9307,-85.7551"/>
<polygon fill="#191970" stroke="#191970" points="420.4258,-85.5628 416.5052,-75.7201 413.4321,-85.8594 420.4258,-85.5628"/>
</g>
<!-- Node11&#45;&gt;Node3 -->
<g id="edge28" class="edge">
<title>Node11&#45;&gt;Node3</title>
<path fill="none" stroke="#191970" d="M161.0077,-112.7166C163.8724,-112.4619 166.7101,-112.2218 169.5,-112 541.9168,-82.3867 995.4169,-69.784 1119.0596,-66.7527"/>
<polygon fill="#191970" stroke="#191970" points="1119.4294,-70.2448 1129.3419,-66.5042 1119.2602,-63.2469 1119.4294,-70.2448"/>
</g>
<!-- Node11&#45;&gt;Node12 -->
<g id="edge16" class="edge">
<title>Node11&#45;&gt;Node12</title>
<path fill="none" stroke="#191970" d="M137.8787,-112.4369C196.4697,-102.6717 287.3756,-87.5207 349.2966,-77.2006"/>
<polygon fill="#191970" stroke="#191970" points="350.0695,-80.6201 359.358,-75.5237 348.9186,-73.7154 350.0695,-80.6201"/>
</g>
<!-- Node14 -->
<g id="node15" class="node">
<title>Node14</title>
<g id="a_node15"><a xlink:href="Span_8h.html" target="_top" xlink:title="iDynTree/Core/Span.h">
<polygon fill="none" stroke="#000000" points="567,-56.5 567,-75.5 688,-75.5 688,-56.5 567,-56.5"/>
<text text-anchor="middle" x="627.5" y="-63.5" font-family="FreeSans.ttf" font-size="10.00" fill="#000000">iDynTree/Core/Span.h</text>
</a>
</g>
</g>
<!-- Node11&#45;&gt;Node14 -->
<g id="edge18" class="edge">
<title>Node11&#45;&gt;Node14</title>
<path fill="none" stroke="#191970" d="M161.0256,-112.9091C163.8853,-112.6 166.717,-112.2961 169.5,-112 306.4646,-97.4277 466.6092,-81.6261 556.6358,-72.856"/>
<polygon fill="#191970" stroke="#191970" points="557.1129,-76.3262 566.7268,-71.8739 556.4347,-69.3592 557.1129,-76.3262"/>
</g>
<!-- Node15 -->
<g id="node16" class="node">
<title>Node15</title>
<polygon fill="none" stroke="#bfbfbf" points="224.5,-.5 224.5,-19.5 276.5,-19.5 276.5,-.5 224.5,-.5"/>
<text text-anchor="middle" x="250.5" y="-7.5" font-family="FreeSans.ttf" font-size="10.00" fill="#000000">cassert</text>
</g>
<!-- Node11&#45;&gt;Node15 -->
<g id="edge30" class="edge">
<title>Node11&#45;&gt;Node15</title>
<path fill="none" stroke="#191970" d="M78.8044,-112.1625C76.9567,-97.9699 75.8683,-71.7314 89.5,-56 105.7679,-37.2263 172.0728,-23.0173 214.3536,-15.6456"/>
<polygon fill="#191970" stroke="#191970" points="215.0062,-19.085 224.2806,-13.9629 213.8363,-12.1834 215.0062,-19.085"/>
</g>
<!-- Node23 -->
<g id="node24" class="node">
<title>Node23</title>
<polygon fill="none" stroke="#bfbfbf" points="166.5,-56.5 166.5,-75.5 222.5,-75.5 222.5,-56.5 166.5,-56.5"/>
<text text-anchor="middle" x="194.5" y="-63.5" font-family="FreeSans.ttf" font-size="10.00" fill="#000000">sstream</text>
</g>
<!-- Node11&#45;&gt;Node23 -->
<g id="edge29" class="edge">
<title>Node11&#45;&gt;Node23</title>
<path fill="none" stroke="#191970" d="M100.0973,-112.3733C118.2331,-103.4644 145.4135,-90.1127 165.9587,-80.0203"/>
<polygon fill="#191970" stroke="#191970" points="167.7261,-83.0517 175.1584,-75.5011 164.6397,-76.7688 167.7261,-83.0517"/>
</g>
<!-- Node24 -->
<g id="node25" class="node">
<title>Node24</title>
<polygon fill="none" stroke="#bfbfbf" points="98.5,-56.5 98.5,-75.5 148.5,-75.5 148.5,-56.5 98.5,-56.5"/>
<text text-anchor="middle" x="123.5" y="-63.5" font-family="FreeSans.ttf" font-size="10.00" fill="#000000">cstring</text>
</g>
<!-- Node11&#45;&gt;Node24 -->
<g id="edge31" class="edge">
<title>Node11&#45;&gt;Node24</title>
<path fill="none" stroke="#191970" d="M87.99,-112.2455C94.0326,-104.3761 102.6903,-93.101 109.9441,-83.6542"/>
<polygon fill="#191970" stroke="#191970" points="112.7815,-85.7058 116.0958,-75.6427 107.2295,-81.4426 112.7815,-85.7058"/>
</g>
<!-- Node13 -->
<g id="node14" class="node">
<title>Node13</title>
<polygon fill="none" stroke="#bfbfbf" points="390,-.5 390,-19.5 443,-19.5 443,-.5 390,-.5"/>
<text text-anchor="middle" x="416.5" y="-7.5" font-family="FreeSans.ttf" font-size="10.00" fill="#000000">cstddef</text>
</g>
<!-- Node12&#45;&gt;Node13 -->
<g id="edge17" class="edge">
<title>Node12&#45;&gt;Node13</title>
<path fill="none" stroke="#191970" d="M416.5,-56.2455C416.5,-48.9382 416.5,-38.6944 416.5,-29.7046"/>
<polygon fill="#191970" stroke="#191970" points="420.0001,-29.6426 416.5,-19.6427 413.0001,-29.6427 420.0001,-29.6426"/>
</g>
<!-- Node14&#45;&gt;Node13 -->
<g id="edge22" class="edge">
<title>Node14&#45;&gt;Node13</title>
<path fill="none" stroke="#191970" d="M590.011,-56.464C556.4252,-47.8625 505.572,-34.6958 453.0568,-20.3898"/>
<polygon fill="#191970" stroke="#191970" points="453.8045,-16.9658 443.2355,-17.7061 451.9593,-23.7183 453.8045,-16.9658"/>
</g>
<!-- Node14&#45;&gt;Node15 -->
<g id="edge19" class="edge">
<title>Node14&#45;&gt;Node15</title>
<path fill="none" stroke="#191970" d="M566.9284,-57.0026C487.8646,-45.2584 351.9481,-25.0692 287.0552,-15.43"/>
<polygon fill="#191970" stroke="#191970" points="287.3056,-11.9288 276.8998,-13.9215 286.277,-18.8528 287.3056,-11.9288"/>
</g>
<!-- Node16 -->
<g id="node17" class="node">
<title>Node16</title>
<polygon fill="none" stroke="#bfbfbf" points="524.5,-.5 524.5,-19.5 588.5,-19.5 588.5,-.5 524.5,-.5"/>
<text text-anchor="middle" x="556.5" y="-7.5" font-family="FreeSans.ttf" font-size="10.00" fill="#000000">algorithm</text>
</g>
<!-- Node14&#45;&gt;Node16 -->
<g id="edge20" class="edge">
<title>Node14&#45;&gt;Node16</title>
<path fill="none" stroke="#191970" d="M615.1327,-56.2455C604.5446,-47.8943 589.0936,-35.7076 576.7107,-25.9408"/>
<polygon fill="#191970" stroke="#191970" points="578.7447,-23.0875 568.7255,-19.6427 574.4097,-28.5837 578.7447,-23.0875"/>
</g>
<!-- Node17 -->
<g id="node18" class="node">
<title>Node17</title>
<polygon fill="none" stroke="#bfbfbf" points="606.5,-.5 606.5,-19.5 648.5,-19.5 648.5,-.5 606.5,-.5"/>
<text text-anchor="middle" x="627.5" y="-7.5" font-family="FreeSans.ttf" font-size="10.00" fill="#000000">array</text>
</g>
<!-- Node14&#45;&gt;Node17 -->
<g id="edge21" class="edge">
<title>Node14&#45;&gt;Node17</title>
<path fill="none" stroke="#191970" d="M627.5,-56.2455C627.5,-48.9382 627.5,-38.6944 627.5,-29.7046"/>
<polygon fill="#191970" stroke="#191970" points="631.0001,-29.6426 627.5,-19.6427 624.0001,-29.6427 631.0001,-29.6426"/>
</g>
<!-- Node18 -->
<g id="node19" class="node">
<title>Node18</title>
<polygon fill="none" stroke="#bfbfbf" points="1638,-.5 1638,-19.5 1691,-19.5 1691,-.5 1638,-.5"/>
<text text-anchor="middle" x="1664.5" y="-7.5" font-family="FreeSans.ttf" font-size="10.00" fill="#000000">iterator</text>
</g>
<!-- Node14&#45;&gt;Node18 -->
<g id="edge23" class="edge">
<title>Node14&#45;&gt;Node18</title>
<path fill="none" stroke="#191970" d="M688.1162,-62.7266C880.3966,-52.3431 1473.0558,-20.3384 1627.4267,-12.002"/>
<polygon fill="#191970" stroke="#191970" points="1627.9757,-15.4776 1637.7724,-11.4433 1627.5982,-8.4878 1627.9757,-15.4776"/>
</g>
<!-- Node19 -->
<g id="node20" class="node">
<title>Node19</title>
<polygon fill="none" stroke="#bfbfbf" points="666.5,-.5 666.5,-19.5 710.5,-19.5 710.5,-.5 666.5,-.5"/>
<text text-anchor="middle" x="688.5" y="-7.5" font-family="FreeSans.ttf" font-size="10.00" fill="#000000">limits</text>
</g>
<!-- Node14&#45;&gt;Node19 -->
<g id="edge24" class="edge">
<title>Node14&#45;&gt;Node19</title>
<path fill="none" stroke="#191970" d="M638.1254,-56.2455C647.0473,-48.0549 659.988,-36.1749 670.5192,-26.5069"/>
<polygon fill="#191970" stroke="#191970" points="672.9968,-28.9837 677.9964,-19.6427 668.2629,-23.8271 672.9968,-28.9837"/>
</g>
<!-- Node20 -->
<g id="node21" class="node">
<title>Node20</title>
<polygon fill="none" stroke="#bfbfbf" points="729,-.5 729,-19.5 794,-19.5 794,-.5 729,-.5"/>
<text text-anchor="middle" x="761.5" y="-7.5" font-family="FreeSans.ttf" font-size="10.00" fill="#000000">stdexcept</text>
</g>
<!-- Node14&#45;&gt;Node20 -->
<g id="edge25" class="edge">
<title>Node14&#45;&gt;Node20</title>
<path fill="none" stroke="#191970" d="M650.5354,-56.3733C672.2388,-47.3032 704.9618,-33.6279 729.255,-23.4755"/>
<polygon fill="#191970" stroke="#191970" points="730.8881,-26.5865 738.7652,-19.5011 728.1889,-20.1278 730.8881,-26.5865"/>
</g>
<!-- Node21 -->
<g id="node22" class="node">
<title>Node21</title>
<polygon fill="none" stroke="#bfbfbf" points="812,-.5 812,-19.5 881,-19.5 881,-.5 812,-.5"/>
<text text-anchor="middle" x="846.5" y="-7.5" font-family="FreeSans.ttf" font-size="10.00" fill="#000000">type_traits</text>
</g>
<!-- Node14&#45;&gt;Node21 -->
<g id="edge26" class="edge">
<title>Node14&#45;&gt;Node21</title>
<path fill="none" stroke="#191970" d="M665.1474,-56.3733C703.1412,-46.6579 761.7982,-31.6589 802.0536,-21.3653"/>
<polygon fill="#191970" stroke="#191970" points="803.0466,-24.7241 811.8677,-18.8557 801.3124,-17.9423 803.0466,-24.7241"/>
</g>
<!-- Node22 -->
<g id="node23" class="node">
<title>Node22</title>
<polygon fill="none" stroke="#bfbfbf" points="461,-.5 461,-19.5 506,-19.5 506,-.5 461,-.5"/>
<text text-anchor="middle" x="483.5" y="-7.5" font-family="FreeSans.ttf" font-size="10.00" fill="#000000">utility</text>
</g>
<!-- Node14&#45;&gt;Node22 -->
<g id="edge27" class="edge">
<title>Node14&#45;&gt;Node22</title>
<path fill="none" stroke="#191970" d="M602.7455,-56.3733C578.6447,-47.0007 541.899,-32.7107 515.5707,-22.472"/>
<polygon fill="#191970" stroke="#191970" points="516.627,-19.1274 506.0383,-18.7649 514.0898,-25.6514 516.627,-19.1274"/>
</g>
<!-- Node25&#45;&gt;Node3 -->
<g id="edge54" class="edge">
<title>Node25&#45;&gt;Node3</title>
<path fill="none" stroke="#191970" d="M806.5417,-285.766C836.7122,-271.3041 895.7795,-243.732 947.5,-224 996.3515,-205.3626 1016.88,-218.2879 1059.5,-188 1098.4236,-160.339 1128.0951,-111.2595 1142.2814,-84.5578"/>
<polygon fill="#191970" stroke="#191970" points="1145.4741,-86.003 1146.9473,-75.5111 1139.2528,-82.7943 1145.4741,-86.003"/>
</g>
<!-- Node26 -->
<g id="node27" class="node">
<title>Node26</title>
<g id="a_node27"><a xlink:href="PositionRaw_8h.html" target="_top" xlink:title="iDynTree/Core/PositionRaw.h">
<polygon fill="none" stroke="#000000" points="658.5,-168.5 658.5,-187.5 814.5,-187.5 814.5,-168.5 658.5,-168.5"/>
<text text-anchor="middle" x="736.5" y="-175.5" font-family="FreeSans.ttf" font-size="10.00" fill="#000000">iDynTree/Core/PositionRaw.h</text>
</a>
</g>
</g>
<!-- Node25&#45;&gt;Node26 -->
<g id="edge34" class="edge">
<title>Node25&#45;&gt;Node26</title>
<path fill="none" stroke="#191970" d="M784.7897,-285.9247C782.0718,-271.897 776.0733,-245.1343 766.5,-224 762.0982,-214.2824 755.8132,-204.2719 750.1321,-196.0809"/>
<polygon fill="#191970" stroke="#191970" points="752.7926,-193.7861 744.1072,-187.7187 747.1132,-197.8782 752.7926,-193.7861"/>
</g>
<!-- Node27 -->
<g id="node28" class="node">
<title>Node27</title>
<g id="a_node28"><a xlink:href="PositionSemantics_8h.html" target="_top" xlink:title="iDynTree/Core/PositionSemantics.h">
<polygon fill="none" stroke="#000000" points="956,-224.5 956,-243.5 1143,-243.5 1143,-224.5 956,-224.5"/>
<text text-anchor="middle" x="1049.5" y="-231.5" font-family="FreeSans.ttf" font-size="10.00" fill="#000000">iDynTree/Core/PositionSemantics.h</text>
</a>
</g>
</g>
<!-- Node25&#45;&gt;Node27 -->
<g id="edge37" class="edge">
<title>Node25&#45;&gt;Node27</title>
<path fill="none" stroke="#191970" d="M827.3052,-285.9581C873.4689,-275.1632 948.7072,-257.5694 998.654,-245.8899"/>
<polygon fill="#191970" stroke="#191970" points="999.6587,-249.2494 1008.5991,-243.5643 998.0648,-242.4333 999.6587,-249.2494"/>
</g>
<!-- Node28 -->
<g id="node29" class="node">
<title>Node28</title>
<g id="a_node29"><a xlink:href="Rotation_8h.html" target="_top" xlink:title="iDynTree/Core/Rotation.h">
<polygon fill="none" stroke="#000000" points="621,-224.5 621,-243.5 758,-243.5 758,-224.5 621,-224.5"/>
<text text-anchor="middle" x="689.5" y="-231.5" font-family="FreeSans.ttf" font-size="10.00" fill="#000000">iDynTree/Core/Rotation.h</text>
</a>
</g>
</g>
<!-- Node25&#45;&gt;Node28 -->
<g id="edge39" class="edge">
<title>Node25&#45;&gt;Node28</title>
<path fill="none" stroke="#191970" d="M771.3438,-285.8906C755.8257,-276.0519 731.4807,-260.6167 713.3716,-249.1351"/>
<polygon fill="#191970" stroke="#191970" points="714.8696,-245.9407 704.5498,-243.5419 711.1213,-251.8526 714.8696,-245.9407"/>
</g>
<!-- Node26&#45;&gt;Node3 -->
<g id="edge36" class="edge">
<title>Node26&#45;&gt;Node3</title>
<path fill="none" stroke="#191970" d="M781.9083,-168.4769C819.0537,-160.2221 872.7321,-147.2268 918.5,-132 940.4293,-124.7042 944.5567,-119.2535 966.5,-112 1018.9819,-94.6518 1081.7258,-80.3608 1119.0045,-72.5218"/>
<polygon fill="#191970" stroke="#191970" points="1120.1852,-75.8514 1129.2653,-70.3922 1118.7627,-68.9975 1120.1852,-75.8514"/>
</g>
<!-- Node26&#45;&gt;Node11 -->
<g id="edge35" class="edge">
<title>Node26&#45;&gt;Node11</title>
<path fill="none" stroke="#191970" d="M658.4742,-172.4373C551.1224,-164.6123 351.5648,-149.4523 171.2254,-132.1439"/>
<polygon fill="#191970" stroke="#191970" points="171.3083,-128.6358 161.0185,-131.16 170.6365,-135.6035 171.3083,-128.6358"/>
</g>
<!-- Node27&#45;&gt;Node3 -->
<g id="edge38" class="edge">
<title>Node27&#45;&gt;Node3</title>
<path fill="none" stroke="#191970" d="M1066.6837,-224.3454C1079.7918,-216.1897 1097.4244,-203.3925 1108.5,-188 1131.3516,-156.2415 1143.0152,-111.2062 1148.1351,-85.6735"/>
<polygon fill="#191970" stroke="#191970" points="1151.5975,-86.1985 1149.9933,-75.7258 1144.7165,-84.9131 1151.5975,-86.1985"/>
</g>
<!-- Node28&#45;&gt;Node3 -->
<g id="edge40" class="edge">
<title>Node28&#45;&gt;Node3</title>
<path fill="none" stroke="#191970" d="M758.3184,-232.0735C846.4905,-228.4026 993.2365,-217.8725 1037.5,-188 1069.669,-166.2898 1053.8931,-140.2533 1080.5,-112 1092.4447,-99.3162 1108.5647,-88.5101 1122.4257,-80.5649"/>
<polygon fill="#191970" stroke="#191970" points="1124.5034,-83.4169 1131.5818,-75.5336 1121.1322,-77.2821 1124.5034,-83.4169"/>
</g>
<!-- Node28&#45;&gt;Node11 -->
<g id="edge53" class="edge">
<title>Node28&#45;&gt;Node11</title>
<path fill="none" stroke="#191970" d="M620.9611,-225.4581C557.1864,-217.1554 459.6113,-203.5477 375.5,-188 288.1121,-171.8467 187.2609,-148.1861 128.9916,-134.0173"/>
<polygon fill="#191970" stroke="#191970" points="129.5132,-130.5419 118.9685,-131.5714 127.8537,-137.3424 129.5132,-130.5419"/>
</g>
<!-- Node29 -->
<g id="node30" class="node">
<title>Node29</title>
<g id="a_node30"><a xlink:href="RotationRaw_8h.html" target="_top" xlink:title="iDynTree/Core/RotationRaw.h">
<polygon fill="none" stroke="#000000" points="870.5,-168.5 870.5,-187.5 1028.5,-187.5 1028.5,-168.5 870.5,-168.5"/>
<text text-anchor="middle" x="949.5" y="-175.5" font-family="FreeSans.ttf" font-size="10.00" fill="#000000">iDynTree/Core/RotationRaw.h</text>
</a>
</g>
</g>
<!-- Node28&#45;&gt;Node29 -->
<g id="edge41" class="edge">
<title>Node28&#45;&gt;Node29</title>
<path fill="none" stroke="#191970" d="M733.9002,-224.4369C778.5841,-214.8127 847.557,-199.957 895.4088,-189.6504"/>
<polygon fill="#191970" stroke="#191970" points="896.2441,-193.0508 905.283,-187.5237 894.7702,-186.2078 896.2441,-193.0508"/>
</g>
<!-- Node32 -->
<g id="node33" class="node">
<title>Node32</title>
<g id="a_node33"><a xlink:href="RotationSemantics_8h.html" target="_top" xlink:title="iDynTree/Core/RotationSemantics.h">
<polygon fill="none" stroke="#000000" points="650.5,-112.5 650.5,-131.5 838.5,-131.5 838.5,-112.5 650.5,-112.5"/>
<text text-anchor="middle" x="744.5" y="-119.5" font-family="FreeSans.ttf" font-size="10.00" fill="#000000">iDynTree/Core/RotationSemantics.h</text>
</a>
</g>
</g>
<!-- Node28&#45;&gt;Node32 -->
<g id="edge50" class="edge">
<title>Node28&#45;&gt;Node32</title>
<path fill="none" stroke="#191970" d="M676.2803,-224.3257C660.3113,-211.4137 637.0465,-187.8667 649.5,-168 659.1819,-152.5548 675.6838,-142.1672 692.2437,-135.2389"/>
<polygon fill="#191970" stroke="#191970" points="693.8471,-138.3737 701.9495,-131.5472 691.3585,-131.831 693.8471,-138.3737"/>
</g>
<!-- Node29&#45;&gt;Node3 -->
<g id="edge49" class="edge">
<title>Node29&#45;&gt;Node3</title>
<path fill="none" stroke="#191970" d="M961.277,-168.36C978.4076,-154.643 1011.5406,-129.2471 1042.5,-112 1067.3963,-98.1306 1097.3248,-85.7827 1119.5172,-77.3812"/>
<polygon fill="#191970" stroke="#191970" points="1120.9714,-80.5746 1129.1234,-73.8074 1118.5306,-74.0139 1120.9714,-80.5746"/>
</g>
<!-- Node30 -->
<g id="node31" class="node">
<title>Node30</title>
<g id="a_node31"><a xlink:href="MatrixFixSize_8h.html" target="_top" xlink:title="iDynTree/Core/MatrixFixSize.h">
<polygon fill="none" stroke="#000000" points="179,-112.5 179,-131.5 340,-131.5 340,-112.5 179,-112.5"/>
<text text-anchor="middle" x="259.5" y="-119.5" font-family="FreeSans.ttf" font-size="10.00" fill="#000000">iDynTree/Core/MatrixFixSize.h</text>
</a>
</g>
</g>
<!-- Node29&#45;&gt;Node30 -->
<g id="edge42" class="edge">
<title>Node29&#45;&gt;Node30</title>
<path fill="none" stroke="#191970" d="M870.3482,-171.5761C741.2761,-161.1007 486.2398,-140.4021 350.1137,-129.3542"/>
<polygon fill="#191970" stroke="#191970" points="350.3717,-125.8637 340.1213,-128.5432 349.8054,-132.8407 350.3717,-125.8637"/>
</g>
<!-- Node30&#45;&gt;Node3 -->
<g id="edge46" class="edge">
<title>Node30&#45;&gt;Node3</title>
<path fill="none" stroke="#191970" d="M340.2323,-116.9316C529.0019,-105.0806 992.805,-75.9629 1119.2248,-68.0262"/>
<polygon fill="#191970" stroke="#191970" points="1119.6426,-71.507 1129.4036,-67.3872 1119.2039,-64.5208 1119.6426,-71.507"/>
</g>
<!-- Node30&#45;&gt;Node12 -->
<g id="edge43" class="edge">
<title>Node30&#45;&gt;Node12</title>
<path fill="none" stroke="#191970" d="M286.4893,-112.3733C312.3699,-103.1419 351.6248,-89.1402 380.2289,-78.9375"/>
<polygon fill="#191970" stroke="#191970" points="381.62,-82.1573 389.8629,-75.5011 379.2683,-75.5642 381.62,-82.1573"/>
</g>
<!-- Node30&#45;&gt;Node15 -->
<g id="edge44" class="edge">
<title>Node30&#45;&gt;Node15</title>
<path fill="none" stroke="#191970" d="M258.7327,-112.4509C257.2648,-94.184 254.0321,-53.9553 252.0828,-29.6976"/>
<polygon fill="#191970" stroke="#191970" points="255.5552,-29.2124 251.2654,-19.5249 248.5777,-29.7731 255.5552,-29.2124"/>
</g>
<!-- Node30&#45;&gt;Node23 -->
<g id="edge48" class="edge">
<title>Node30&#45;&gt;Node23</title>
<path fill="none" stroke="#191970" d="M248.1779,-112.2455C238.5777,-103.9746 224.6108,-91.9416 213.3305,-82.2232"/>
<polygon fill="#191970" stroke="#191970" points="215.553,-79.5182 205.6924,-75.6427 210.984,-84.8214 215.553,-79.5182"/>
</g>
<!-- Node30&#45;&gt;Node24 -->
<g id="edge45" class="edge">
<title>Node30&#45;&gt;Node24</title>
<path fill="none" stroke="#191970" d="M236.1208,-112.3733C213.9955,-103.2629 180.5866,-89.5062 155.8981,-79.3404"/>
<polygon fill="#191970" stroke="#191970" points="157.1536,-76.0723 146.5742,-75.5011 154.4883,-82.5451 157.1536,-76.0723"/>
</g>
<!-- Node31 -->
<g id="node32" class="node">
<title>Node31</title>
<polygon fill="none" stroke="#bfbfbf" points="278.5,-56.5 278.5,-75.5 338.5,-75.5 338.5,-56.5 278.5,-56.5"/>
<text text-anchor="middle" x="308.5" y="-63.5" font-family="FreeSans.ttf" font-size="10.00" fill="#000000">iostream</text>
</g>
<!-- Node30&#45;&gt;Node31 -->
<g id="edge47" class="edge">
<title>Node30&#45;&gt;Node31</title>
<path fill="none" stroke="#191970" d="M268.0351,-112.2455C274.9912,-104.2958 284.9883,-92.8706 293.3051,-83.3656"/>
<polygon fill="#191970" stroke="#191970" points="296.1116,-85.4732 300.0627,-75.6427 290.8436,-80.8637 296.1116,-85.4732"/>
</g>
<!-- Node32&#45;&gt;Node3 -->
<g id="edge51" class="edge">
<title>Node32&#45;&gt;Node3</title>
<path fill="none" stroke="#191970" d="M814.0033,-112.4369C903.0408,-100.186 1053.6852,-79.4586 1119.3236,-70.4272"/>
<polygon fill="#191970" stroke="#191970" points="1120.0407,-73.8616 1129.4702,-69.0311 1119.0864,-66.927 1120.0407,-73.8616"/>
</g>
<!-- Node32&#45;&gt;Node12 -->
<g id="edge52" class="edge">
<title>Node32&#45;&gt;Node12</title>
<path fill="none" stroke="#191970" d="M688.4875,-112.4369C631.4094,-102.6918 542.9158,-87.5832 482.4776,-77.2645"/>
<polygon fill="#191970" stroke="#191970" points="482.7279,-73.7566 472.2815,-75.5237 481.5498,-80.6568 482.7279,-73.7566"/>
</g>
<!-- Node33&#45;&gt;Node3 -->
<g id="edge63" class="edge">
<title>Node33&#45;&gt;Node3</title>
<path fill="none" stroke="#191970" d="M599.748,-350.6216C768.5399,-334.9399 1170.5,-291.5535 1170.5,-234 1170.5,-234 1170.5,-234 1170.5,-178 1170.5,-145.2688 1162.5148,-107.9052 1156.8978,-85.6716"/>
<polygon fill="#191970" stroke="#191970" points="1160.2289,-84.5763 1154.3035,-75.7934 1153.4585,-86.3545 1160.2289,-84.5763"/>
</g>
<!-- Node33&#45;&gt;Node25 -->
<g id="edge57" class="edge">
<title>Node33&#45;&gt;Node25</title>
<path fill="none" stroke="#191970" d="M566.8397,-347.4581C612.4768,-336.6632 686.857,-319.0694 736.234,-307.3899"/>
<polygon fill="#191970" stroke="#191970" points="737.1398,-310.7722 746.0656,-305.0643 735.5285,-303.9602 737.1398,-310.7722"/>
</g>
<!-- Node33&#45;&gt;Node28 -->
<g id="edge58" class="edge">
<title>Node33&#45;&gt;Node28</title>
<path fill="none" stroke="#191970" d="M539.2903,-347.3484C567.2612,-326.2415 634.1023,-275.8032 668.4038,-249.9192"/>
<polygon fill="#191970" stroke="#191970" points="670.895,-252.4241 676.7691,-243.6068 666.6785,-246.8365 670.895,-252.4241"/>
</g>
<!-- Node33&#45;&gt;Node30 -->
<g id="edge62" class="edge">
<title>Node33&#45;&gt;Node30</title>
<path fill="none" stroke="#191970" d="M515.7026,-347.4967C474.9469,-311.6255 330.1419,-184.1755 278.2079,-138.4657"/>
<polygon fill="#191970" stroke="#191970" points="280.2508,-135.6012 270.4318,-131.6216 275.6259,-140.8558 280.2508,-135.6012"/>
</g>
<!-- Node34 -->
<g id="node35" class="node">
<title>Node34</title>
<g id="a_node35"><a xlink:href="TransformSemantics_8h.html" target="_top" xlink:title="iDynTree/Core/TransformSemantics.h">
<polygon fill="none" stroke="#000000" points="435,-112.5 435,-131.5 632,-131.5 632,-112.5 435,-112.5"/>
<text text-anchor="middle" x="533.5" y="-119.5" font-family="FreeSans.ttf" font-size="10.00" fill="#000000">iDynTree/Core/TransformSemantics.h</text>
</a>
</g>
</g>
<!-- Node33&#45;&gt;Node34 -->
<g id="edge59" class="edge">
<title>Node33&#45;&gt;Node34</title>
<path fill="none" stroke="#191970" d="M527.2854,-347.1679C529.4418,-319.1742 535.2459,-236.6355 534.5,-168 534.4057,-159.3235 534.2114,-149.7282 534.0189,-141.5559"/>
<polygon fill="#191970" stroke="#191970" points="537.5168,-141.4229 533.7671,-131.5138 530.519,-141.5984 537.5168,-141.4229"/>
</g>
<!-- Node34&#45;&gt;Node3 -->
<g id="edge60" class="edge">
<title>Node34&#45;&gt;Node3</title>
<path fill="none" stroke="#191970" d="M632.0876,-112.8618C635.262,-112.5707 638.4059,-112.2828 641.5,-112 821.9706,-95.506 1038.4025,-76.1129 1119.0956,-68.8958"/>
<polygon fill="#191970" stroke="#191970" points="1119.4796,-72.3756 1129.1281,-67.9987 1118.856,-65.4034 1119.4796,-72.3756"/>
</g>
<!-- Node34&#45;&gt;Node12 -->
<g id="edge61" class="edge">
<title>Node34&#45;&gt;Node12</title>
<path fill="none" stroke="#191970" d="M513.387,-112.3733C494.6897,-103.4241 466.6256,-89.9917 445.5066,-79.8835"/>
<polygon fill="#191970" stroke="#191970" points="446.8817,-76.6614 436.3506,-75.5011 443.8595,-82.9755 446.8817,-76.6614"/>
</g>
<!-- Node35&#45;&gt;Node2 -->
<g id="edge70" class="edge">
<title>Node35&#45;&gt;Node2</title>
<path fill="none" stroke="#191970" d="M994.594,-459.4509C981.0244,-440.688 950.6976,-398.7548 933.3428,-374.758"/>
<polygon fill="#191970" stroke="#191970" points="936.0848,-372.5768 927.3885,-366.5249 930.4127,-376.679 936.0848,-372.5768"/>
</g>
<!-- Node35&#45;&gt;Node3 -->
<g id="edge71" class="edge">
<title>Node35&#45;&gt;Node3</title>
<path fill="none" stroke="#191970" d="M1004.0696,-459.2929C1010.7601,-435.9989 1031.0067,-376.6703 1070.5,-347 1126.0056,-305.3001 1171.7315,-358.3531 1222.5,-311 1248.7134,-286.5501 1246.5,-269.846 1246.5,-234 1246.5,-234 1246.5,-234 1246.5,-178 1246.5,-146.7875 1241.9397,-136.4196 1222.5,-112 1211.946,-98.7424 1196.4838,-88.0914 1182.6812,-80.3904"/>
<polygon fill="#191970" stroke="#191970" points="1183.9496,-77.1025 1173.4714,-75.5344 1180.6847,-83.2945 1183.9496,-77.1025"/>
</g>
<!-- Node35&#45;&gt;Node5 -->
<g id="edge68" class="edge">
<title>Node35&#45;&gt;Node5</title>
<path fill="none" stroke="#191970" d="M1023.3321,-459.3733C1043.8103,-450.3435 1074.6399,-436.7494 1097.6319,-426.6111"/>
<polygon fill="#191970" stroke="#191970" points="1099.215,-429.7383 1106.9528,-422.5011 1096.3907,-423.3333 1099.215,-429.7383"/>
</g>
<!-- Node35&#45;&gt;Node11 -->
<g id="edge69" class="edge">
<title>Node35&#45;&gt;Node11</title>
<path fill="none" stroke="#191970" d="M948.2636,-465.5238C864.6587,-459.6069 697.6467,-445.9372 557.5,-423 445.5585,-404.679 406.8658,-423.4866 308.5,-367 205.2455,-307.706 121.2016,-186.3501 91.7755,-140.2854"/>
<polygon fill="#191970" stroke="#191970" points="94.6276,-138.2461 86.3381,-131.648 88.7036,-141.9754 94.6276,-138.2461"/>
</g>
<!-- Node36&#45;&gt;Node2 -->
<g id="edge103" class="edge">
<title>Node36&#45;&gt;Node2</title>
<path fill="none" stroke="#191970" d="M1326.7279,-577.9155C1216.7034,-569.945 958.436,-544.5117 906.5,-479 882.9983,-449.3551 898.8031,-402.1916 910.7156,-376.0384"/>
<polygon fill="#191970" stroke="#191970" points="913.9674,-377.3525 915.1527,-366.8241 907.6606,-374.3154 913.9674,-377.3525"/>
</g>
<!-- Node36&#45;&gt;Node3 -->
<g id="edge104" class="edge">
<title>Node36&#45;&gt;Node3</title>
<path fill="none" stroke="#191970" d="M1376.8443,-571.4577C1378.2372,-525.6508 1381.4076,-324.1125 1336.5,-168 1328.8073,-141.2578 1329.853,-129.8429 1308.5,-112 1289.5028,-96.1256 1223.5767,-80.5405 1183.444,-72.2116"/>
<polygon fill="#191970" stroke="#191970" points="1184.0952,-68.7725 1173.5978,-70.2061 1182.698,-75.6316 1184.0952,-68.7725"/>
</g>
<!-- Node36&#45;&gt;Node5 -->
<g id="edge73" class="edge">
<title>Node36&#45;&gt;Node5</title>
<path fill="none" stroke="#191970" d="M1326.5565,-575.9451C1271.7816,-569.4195 1188.5712,-556.2996 1165.5,-535 1136.6138,-508.3319 1130.0001,-459.9372 1128.658,-432.8045"/>
<polygon fill="#191970" stroke="#191970" points="1132.1505,-432.4953 1128.356,-422.6033 1125.1536,-432.7025 1132.1505,-432.4953"/>
</g>
<!-- Node36&#45;&gt;Node7 -->
<g id="edge105" class="edge">
<title>Node36&#45;&gt;Node7</title>
<path fill="none" stroke="#191970" d="M1373.1342,-571.3951C1360.3285,-534.8833 1315.2266,-406.5864 1312.5,-403 1302.8047,-390.2476 1288.5691,-379.6152 1275.8898,-371.7962"/>
<polygon fill="#191970" stroke="#191970" points="1277.4189,-368.6359 1267.0195,-366.61 1273.8857,-374.6788 1277.4189,-368.6359"/>
</g>
<!-- Node36&#45;&gt;Node8 -->
<g id="edge106" class="edge">
<title>Node36&#45;&gt;Node8</title>
<path fill="none" stroke="#191970" d="M1390.8572,-571.4574C1427.6539,-546.9765 1528.2945,-479.8693 1611.5,-423 1636.5481,-405.8801 1665.1173,-385.9812 1684.3285,-372.5455"/>
<polygon fill="#191970" stroke="#191970" points="1686.5154,-375.287 1692.7007,-366.685 1682.5012,-369.5523 1686.5154,-375.287"/>
</g>
<!-- Node36&#45;&gt;Node33 -->
<g id="edge74" class="edge">
<title>Node36&#45;&gt;Node33</title>
<path fill="none" stroke="#191970" d="M1326.8414,-578.8768C1174.0098,-571.6882 713.0378,-544.9337 580.5,-479 548.7033,-463.1821 537.2356,-455.7501 523.5,-423 517.4001,-408.4559 518.7183,-390.4952 521.2457,-376.9839"/>
<polygon fill="#191970" stroke="#191970" points="524.7443,-377.3771 523.5167,-366.8536 517.9139,-375.8457 524.7443,-377.3771"/>
</g>
<!-- Node36&#45;&gt;Node37 -->
<g id="edge75" class="edge">
<title>Node36&#45;&gt;Node37</title>
<path fill="none" stroke="#191970" d="M1426.0579,-575.5796C1513.2161,-566.0467 1694.9073,-546.1742 1802.783,-534.3753"/>
<polygon fill="#191970" stroke="#191970" points="1803.4264,-537.8259 1812.9865,-533.2593 1802.6652,-530.8674 1803.4264,-537.8259"/>
</g>
<!-- Node37&#45;&gt;Node3 -->
<g id="edge76" class="edge">
<title>Node37&#45;&gt;Node3</title>
<path fill="none" stroke="#191970" d="M1962.6526,-515.4473C2061.601,-500.5875 2224.5,-467.8018 2224.5,-413 2224.5,-413 2224.5,-413 2224.5,-178 2224.5,-124.3124 1363.5333,-76.9397 1184.0448,-67.647"/>
<polygon fill="#191970" stroke="#191970" points="1184.0778,-64.1442 1173.9111,-67.1255 1183.718,-71.135 1184.0778,-64.1442"/>
</g>
<!-- Node37&#45;&gt;Node8 -->
<g id="edge77" class="edge">
<title>Node37&#45;&gt;Node8</title>
<path fill="none" stroke="#191970" d="M1883.4281,-515.2421C1871.3771,-492.8439 1838.9825,-437.0584 1798.5,-403 1781.0454,-388.3153 1758.1046,-376.8325 1739.4979,-369.0123"/>
<polygon fill="#191970" stroke="#191970" points="1740.7977,-365.7626 1730.2149,-365.2591 1738.1739,-372.2523 1740.7977,-365.7626"/>
</g>
<!-- Node37&#45;&gt;Node18 -->
<g id="edge78" class="edge">
<title>Node37&#45;&gt;Node18</title>
<path fill="none" stroke="#191970" d="M1964.3287,-523.3195C2058.6427,-519.9302 2213.0411,-509.7206 2260.5,-479 2289.294,-460.3614 2300.5,-447.3001 2300.5,-413 2300.5,-413 2300.5,-413 2300.5,-357 2300.5,-262.6803 2414.5,-272.3197 2414.5,-178 2414.5,-178 2414.5,-178 2414.5,-122 2414.5,-49.0385 1852.1158,-18.4543 1701.3251,-11.5652"/>
<polygon fill="#191970" stroke="#191970" points="1701.34,-8.0624 1691.1929,-11.1099 1701.0257,-15.0554 1701.34,-8.0624"/>
</g>
<!-- Node38 -->
<g id="node39" class="node">
<title>Node38</title>
<g id="a_node39"><a xlink:href="VectorDynSize_8h.html" target="_top" xlink:title="iDynTree/Core/VectorDynSize.h">
<polygon fill="none" stroke="#000000" points="1388,-112.5 1388,-131.5 1555,-131.5 1555,-112.5 1388,-112.5"/>
<text text-anchor="middle" x="1471.5" y="-119.5" font-family="FreeSans.ttf" font-size="10.00" fill="#000000">iDynTree/Core/VectorDynSize.h</text>
</a>
</g>
</g>
<!-- Node37&#45;&gt;Node38 -->
<g id="edge79" class="edge">
<title>Node37&#45;&gt;Node38</title>
<path fill="none" stroke="#191970" d="M1964.3389,-519.208C2060.8207,-511.2043 2217.53,-495.8315 2238.5,-479 2262.8414,-459.4624 2262.5,-444.2125 2262.5,-413 2262.5,-413 2262.5,-413 2262.5,-357 2262.5,-212.9663 1774.4748,-150.2141 1565.0885,-129.9189"/>
<polygon fill="#191970" stroke="#191970" points="1565.3167,-126.4248 1555.0286,-128.9557 1564.6495,-133.393 1565.3167,-126.4248"/>
</g>
<!-- Node37&#45;&gt;Node39 -->
<g id="edge82" class="edge">
<title>Node37&#45;&gt;Node39</title>
<path fill="none" stroke="#191970" d="M1848.0275,-515.4369C1807.552,-505.8731 1745.2133,-491.1432 1701.6297,-480.845"/>
<polygon fill="#191970" stroke="#191970" points="1702.3424,-477.4171 1691.8055,-478.5237 1700.7327,-484.2295 1702.3424,-477.4171"/>
</g>
<!-- Node41 -->
<g id="node42" class="node">
<title>Node41</title>
<g id="a_node42"><a xlink:href="Indices_8h.html" target="_top" xlink:title="iDynTree/Model/Indices.h">
<polygon fill="none" stroke="#000000" points="1848.5,-347.5 1848.5,-366.5 1986.5,-366.5 1986.5,-347.5 1848.5,-347.5"/>
<text text-anchor="middle" x="1917.5" y="-354.5" font-family="FreeSans.ttf" font-size="10.00" fill="#000000">iDynTree/Model/Indices.h</text>
</a>
</g>
</g>
<!-- Node37&#45;&gt;Node41 -->
<g id="edge102" class="edge">
<title>Node37&#45;&gt;Node41</title>
<path fill="none" stroke="#191970" d="M1932.072,-515.4441C2003.3714,-498.8261 2139.833,-462.5728 2167.5,-423 2172.5932,-415.715 2173.1883,-409.8305 2167.5,-403 2161.7515,-396.0972 2062.1613,-379.3636 1990.4403,-368.0989"/>
<polygon fill="#191970" stroke="#191970" points="1990.9385,-364.6344 1980.5178,-366.5473 1989.857,-371.5503 1990.9385,-364.6344"/>
</g>
<!-- Node38&#45;&gt;Node3 -->
<g id="edge81" class="edge">
<title>Node38&#45;&gt;Node3</title>
<path fill="none" stroke="#191970" d="M1416.8536,-112.4369C1349.9133,-100.7223 1238.6833,-81.2571 1183.9507,-71.6789"/>
<polygon fill="#191970" stroke="#191970" points="1184.241,-68.1766 1173.7873,-69.9003 1183.0343,-75.0718 1184.241,-68.1766"/>
</g>
<!-- Node38&#45;&gt;Node14 -->
<g id="edge80" class="edge">
<title>Node38&#45;&gt;Node14</title>
<path fill="none" stroke="#191970" d="M1387.8767,-116.4515C1221.897,-105.4387 853.5128,-80.9961 698.4614,-70.7083"/>
<polygon fill="#191970" stroke="#191970" points="698.3263,-67.1918 688.1165,-70.0219 697.8628,-74.1764 698.3263,-67.1918"/>
</g>
<!-- Node39&#45;&gt;Node8 -->
<g id="edge101" class="edge">
<title>Node39&#45;&gt;Node8</title>
<path fill="none" stroke="#191970" d="M1659.7641,-459.3318C1667.0738,-450.3889 1677.6178,-436.4809 1684.5,-423 1692.0513,-408.2086 1697.8375,-390.2663 1701.5763,-376.825"/>
<polygon fill="#191970" stroke="#191970" points="1705.0646,-377.3227 1704.2292,-366.7608 1698.2958,-375.5384 1705.0646,-377.3227"/>
</g>
<!-- Node39&#45;&gt;Node33 -->
<g id="edge92" class="edge">
<title>Node39&#45;&gt;Node33</title>
<path fill="none" stroke="#191970" d="M1584.7508,-467.4806C1358.8938,-462.1606 634.849,-443.5771 589.5,-423 567.3125,-412.9324 549.0441,-391.1369 537.9949,-375.3407"/>
<polygon fill="#191970" stroke="#191970" points="540.8065,-373.2482 532.3485,-366.8675 534.9813,-377.13 540.8065,-373.2482"/>
</g>
<!-- Node40 -->
<g id="node41" class="node">
<title>Node40</title>
<g id="a_node41"><a xlink:href="IJoint_8h.html" target="_top" xlink:title="iDynTree/Model/IJoint.h">
<polygon fill="none" stroke="#000000" points="1850.5,-403.5 1850.5,-422.5 1978.5,-422.5 1978.5,-403.5 1850.5,-403.5"/>
<text text-anchor="middle" x="1914.5" y="-410.5" font-family="FreeSans.ttf" font-size="10.00" fill="#000000">iDynTree/Model/IJoint.h</text>
</a>
</g>
</g>
<!-- Node39&#45;&gt;Node40 -->
<g id="edge83" class="edge">
<title>Node39&#45;&gt;Node40</title>
<path fill="none" stroke="#191970" d="M1696.4125,-459.4369C1741.612,-449.8127 1811.3807,-434.957 1859.7847,-424.6504"/>
<polygon fill="#191970" stroke="#191970" points="1860.721,-428.0296 1869.7728,-422.5237 1859.2631,-421.1831 1860.721,-428.0296"/>
</g>
<!-- Node39&#45;&gt;Node41 -->
<g id="edge93" class="edge">
<title>Node39&#45;&gt;Node41</title>
<path fill="none" stroke="#191970" d="M1718.1516,-464.5234C1811.0449,-457.5959 1970.0822,-442.9649 1987.5,-423 2004.3207,-403.7195 1975.946,-383.8809 1950.4417,-371.0559"/>
<polygon fill="#191970" stroke="#191970" points="1951.7952,-367.8235 1941.2642,-366.6622 1948.7725,-374.1373 1951.7952,-367.8235"/>
</g>
<!-- Node42 -->
<g id="node43" class="node">
<title>Node42</title>
<g id="a_node43"><a xlink:href="Link_8h.html" target="_top" xlink:title="iDynTree/Model/Link.h">
<polygon fill="none" stroke="#000000" points="2034.5,-403.5 2034.5,-422.5 2158.5,-422.5 2158.5,-403.5 2034.5,-403.5"/>
<text text-anchor="middle" x="2096.5" y="-410.5" font-family="FreeSans.ttf" font-size="10.00" fill="#000000">iDynTree/Model/Link.h</text>
</a>
</g>
</g>
<!-- Node39&#45;&gt;Node42 -->
<g id="edge86" class="edge">
<title>Node39&#45;&gt;Node42</title>
<path fill="none" stroke="#191970" d="M1718.178,-460.8263C1792.0938,-451.7331 1914.8423,-436.5367 2020.5,-423 2021.7623,-422.8383 2023.0363,-422.6747 2024.3194,-422.5096"/>
<polygon fill="#191970" stroke="#191970" points="2024.8223,-425.9738 2034.291,-421.2204 2023.9247,-419.0316 2024.8223,-425.9738"/>
</g>
<!-- Node63 -->
<g id="node47" class="node">
<title>Node63</title>
<g id="a_node47"><a xlink:href="SolidShapes_8h.html" target="_top" xlink:title="iDynTree/Model/SolidShapes.h">
<polygon fill="none" stroke="#000000" points="1403,-403.5 1403,-422.5 1566,-422.5 1566,-403.5 1403,-403.5"/>
<text text-anchor="middle" x="1484.5" y="-410.5" font-family="FreeSans.ttf" font-size="10.00" fill="#000000">iDynTree/Model/SolidShapes.h</text>
</a>
</g>
</g>
<!-- Node39&#45;&gt;Node63 -->
<g id="edge94" class="edge">
<title>Node39&#45;&gt;Node63</title>
<path fill="none" stroke="#191970" d="M1622.7917,-459.3733C1595.1423,-450.1016 1553.1424,-436.0178 1522.6834,-425.804"/>
<polygon fill="#191970" stroke="#191970" points="1523.4276,-422.3621 1512.8337,-422.5011 1521.2021,-428.9989 1523.4276,-422.3621"/>
</g>
<!-- Node64 -->
<g id="node48" class="node">
<title>Node64</title>
<polygon fill="none" stroke="#bfbfbf" points="1611,-347.5 1611,-366.5 1660,-366.5 1660,-347.5 1611,-347.5"/>
<text text-anchor="middle" x="1635.5" y="-354.5" font-family="FreeSans.ttf" font-size="10.00" fill="#000000">cstdlib</text>
</g>
<!-- Node39&#45;&gt;Node64 -->
<g id="edge100" class="edge">
<title>Node39&#45;&gt;Node64</title>
<path fill="none" stroke="#191970" d="M1650.1358,-459.4509C1647.5263,-441.184 1641.7793,-400.9553 1638.3139,-376.6976"/>
<polygon fill="#191970" stroke="#191970" points="1641.7398,-375.9294 1636.8607,-366.5249 1634.8102,-376.9194 1641.7398,-375.9294"/>
</g>
<!-- Node40&#45;&gt;Node41 -->
<g id="edge84" class="edge">
<title>Node40&#45;&gt;Node41</title>
<path fill="none" stroke="#191970" d="M1915.0226,-403.2455C1915.414,-395.9382 1915.9628,-385.6944 1916.4444,-376.7046"/>
<polygon fill="#191970" stroke="#191970" points="1919.9434,-376.8156 1916.9834,-366.6427 1912.9534,-376.4411 1919.9434,-376.8156"/>
</g>
<!-- Node41&#45;&gt;Node3 -->
<g id="edge85" class="edge">
<title>Node41&#45;&gt;Node3</title>
<path fill="none" stroke="#191970" d="M1911.521,-347.2041C1899.7058,-326.8838 1874.5,-278.3381 1874.5,-234 1874.5,-234 1874.5,-234 1874.5,-178 1874.5,-107.0512 1323.7706,-74.6329 1183.6324,-67.5322"/>
<polygon fill="#191970" stroke="#191970" points="1183.6947,-64.0311 1173.5327,-67.0286 1183.346,-71.0224 1183.6947,-64.0311"/>
</g>
<!-- Node42&#45;&gt;Node41 -->
<g id="edge91" class="edge">
<title>Node42&#45;&gt;Node41</title>
<path fill="none" stroke="#191970" d="M2065.7288,-403.3733C2035.835,-394.021 1990.2907,-379.7725 1957.5783,-369.5385"/>
<polygon fill="#191970" stroke="#191970" points="1958.4586,-366.1466 1947.8697,-366.5011 1956.3685,-372.8273 1958.4586,-366.1466"/>
</g>
<!-- Node43 -->
<g id="node44" class="node">
<title>Node43</title>
<g id="a_node44"><a xlink:href="SpatialInertia_8h.html" target="_top" xlink:title="iDynTree/Core/SpatialInertia.h">
<polygon fill="none" stroke="#ff0000" points="2008.5,-347.5 2008.5,-366.5 2170.5,-366.5 2170.5,-347.5 2008.5,-347.5"/>
<text text-anchor="middle" x="2089.5" y="-354.5" font-family="FreeSans.ttf" font-size="10.00" fill="#000000">iDynTree/Core/SpatialInertia.h</text>
</a>
</g>
</g>
<!-- Node42&#45;&gt;Node43 -->
<g id="edge87" class="edge">
<title>Node42&#45;&gt;Node43</title>
<path fill="none" stroke="#191970" d="M2095.2807,-403.2455C2094.3673,-395.9382 2093.0868,-385.6944 2091.9631,-376.7046"/>
<polygon fill="#191970" stroke="#191970" points="2095.4187,-376.1313 2090.7053,-366.6427 2088.4728,-376.9996 2095.4187,-376.1313"/>
</g>
<!-- Node43&#45;&gt;Node11 -->
<g id="edge89" class="edge">
<title>Node43&#45;&gt;Node11</title>
<path fill="none" stroke="#191970" d="M2008.2676,-347.9592C2003.9519,-347.6037 1999.6756,-347.2801 1995.5,-347 1710.2514,-327.8639 992.1032,-354.2247 709.5,-311 510.8962,-280.6232 465.8798,-249.1554 274.5,-188 249.3255,-179.9555 243.482,-176.6237 218.5,-168 185.1202,-156.4775 147.034,-143.8187 119.3412,-134.7025"/>
<polygon fill="#191970" stroke="#191970" points="120.2298,-131.3104 109.6369,-131.5128 118.044,-137.9604 120.2298,-131.3104"/>
</g>
<!-- Node44 -->
<g id="node45" class="node">
<title>Node44</title>
<g id="a_node45"><a xlink:href="SpatialInertiaRaw_8h.html" target="_top" xlink:title="iDynTree/Core/SpatialInertia\lRaw.h">
<polygon fill="none" stroke="#ff0000" points="1903,-280.5 1903,-310.5 2056,-310.5 2056,-280.5 1903,-280.5"/>
<text text-anchor="start" x="1911" y="-298.5" font-family="FreeSans.ttf" font-size="10.00" fill="#000000">iDynTree/Core/SpatialInertia</text>
<text text-anchor="middle" x="1979.5" y="-287.5" font-family="FreeSans.ttf" font-size="10.00" fill="#000000">Raw.h</text>
</a>
</g>
</g>
<!-- Node43&#45;&gt;Node44 -->
<g id="edge88" class="edge">
<title>Node43&#45;&gt;Node44</title>
<path fill="none" stroke="#191970" d="M2072.3125,-347.3906C2057.0807,-338.8747 2034.3497,-326.166 2015.196,-315.4573"/>
<polygon fill="#191970" stroke="#191970" points="2016.8455,-312.3697 2006.409,-310.5446 2013.4295,-318.4796 2016.8455,-312.3697"/>
</g>
<!-- Node46 -->
<g id="node46" class="node">
<title>Node46</title>
<g id="a_node46"><a xlink:href="Twist_8h.html" target="_top" xlink:title="iDynTree/Core/Twist.h">
<polygon fill="none" stroke="#ff0000" points="2074.5,-286 2074.5,-305 2196.5,-305 2196.5,-286 2074.5,-286"/>
<text text-anchor="middle" x="2135.5" y="-293" font-family="FreeSans.ttf" font-size="10.00" fill="#000000">iDynTree/Core/Twist.h</text>
</a>
</g>
</g>
<!-- Node43&#45;&gt;Node46 -->
<g id="edge90" class="edge">
<title>Node43&#45;&gt;Node46</title>
<path fill="none" stroke="#191970" d="M2096.6875,-347.3906C2103.4666,-338.3273 2113.7978,-324.5149 2122.0973,-313.4188"/>
<polygon fill="#191970" stroke="#191970" points="2125.0243,-315.349 2128.2112,-305.2449 2119.4188,-311.1563 2125.0243,-315.349"/>
</g>
<!-- Node63&#45;&gt;Node3 -->
<g id="edge96" class="edge">
<title>Node63&#45;&gt;Node3</title>
<path fill="none" stroke="#191970" d="M1501.1244,-403.3842C1529.0842,-385.8234 1582.5,-345.7045 1582.5,-295.5 1582.5,-295.5 1582.5,-295.5 1582.5,-178 1582.5,-147.5953 1587.6026,-131.7665 1564.5,-112 1535.696,-87.3554 1275.8038,-72.1711 1183.6898,-67.525"/>
<polygon fill="#191970" stroke="#191970" points="1183.7233,-64.0224 1173.5621,-67.0227 1183.3765,-71.0138 1183.7233,-64.0224"/>
</g>
<!-- Node63&#45;&gt;Node8 -->
<g id="edge97" class="edge">
<title>Node63&#45;&gt;Node8</title>
<path fill="none" stroke="#191970" d="M1523.8956,-403.4493C1561.3888,-394.3019 1619.3644,-380.0067 1669.5,-367 1670.5627,-366.7243 1671.6422,-366.4426 1672.7318,-366.1568"/>
<polygon fill="#191970" stroke="#191970" points="1673.8684,-369.4763 1682.6346,-363.5262 1672.0712,-362.7109 1673.8684,-369.4763"/>
</g>
<!-- Node63&#45;&gt;Node33 -->
<g id="edge98" class="edge">
<title>Node63&#45;&gt;Node33</title>
<path fill="none" stroke="#191970" d="M1402.8215,-408.2255C1222.4111,-397.6796 791.5587,-372.494 609.726,-361.865"/>
<polygon fill="#191970" stroke="#191970" points="609.8707,-358.3676 599.6834,-361.2779 609.4621,-365.3556 609.8707,-358.3676"/>
</g>
<!-- Node63&#45;&gt;Node41 -->
<g id="edge99" class="edge">
<title>Node63&#45;&gt;Node41</title>
<path fill="none" stroke="#191970" d="M1558.4434,-403.4369C1636.273,-393.3712 1758.3493,-377.583 1838.1551,-367.2617"/>
<polygon fill="#191970" stroke="#191970" points="1838.6878,-370.722 1848.1562,-365.9682 1837.7899,-363.7799 1838.6878,-370.722"/>
</g>
<!-- Node63&#45;&gt;Node64 -->
<g id="edge95" class="edge">
<title>Node63&#45;&gt;Node64</title>
<path fill="none" stroke="#191970" d="M1510.4578,-403.3733C1535.5411,-394.0708 1573.6864,-379.9242 1601.2488,-369.7024"/>
<polygon fill="#191970" stroke="#191970" points="1602.7218,-372.8892 1610.8808,-366.1303 1600.2878,-366.326 1602.7218,-372.8892"/>
</g>
<!-- Node65&#45;&gt;Node2 -->
<g id="edge112" class="edge">
<title>Node65&#45;&gt;Node2</title>
<path fill="none" stroke="#191970" d="M1205.3979,-515.4862C1155.0603,-487.4839 1007.175,-405.2166 946.7136,-371.5824"/>
<polygon fill="#191970" stroke="#191970" points="948.2292,-368.4204 937.7889,-366.6177 944.8262,-374.5376 948.2292,-368.4204"/>
</g>
<!-- Node65&#45;&gt;Node3 -->
<g id="edge113" class="edge">
<title>Node65&#45;&gt;Node3</title>
<path fill="none" stroke="#191970" d="M1230.3468,-515.1572C1253.9209,-484.5619 1322.5,-387.6391 1322.5,-295.5 1322.5,-295.5 1322.5,-295.5 1322.5,-178 1322.5,-112.2333 1232.8907,-82.9921 1183.4084,-71.8586"/>
<polygon fill="#191970" stroke="#191970" points="1184.0147,-68.4094 1173.5052,-69.7511 1182.5576,-75.256 1184.0147,-68.4094"/>
</g>
<!-- Node65&#45;&gt;Node5 -->
<g id="edge108" class="edge">
<title>Node65&#45;&gt;Node5</title>
<path fill="none" stroke="#191970" d="M1214.4856,-515.4509C1198.6688,-496.6054 1163.2337,-454.3849 1143.1387,-430.4419"/>
<polygon fill="#191970" stroke="#191970" points="1145.6038,-427.9346 1136.4941,-422.5249 1140.2419,-432.4347 1145.6038,-427.9346"/>
</g>
<!-- Node65&#45;&gt;Node7 -->
<g id="edge114" class="edge">
<title>Node65&#45;&gt;Node7</title>
<path fill="none" stroke="#191970" d="M1223.9157,-515.4862C1227.8677,-488.9293 1239.0826,-413.5651 1244.4992,-377.1655"/>
<polygon fill="#191970" stroke="#191970" points="1248.0274,-377.2342 1246.0375,-366.8279 1241.1037,-376.2038 1248.0274,-377.2342"/>
</g>
<!-- Node65&#45;&gt;Node8 -->
<g id="edge115" class="edge">
<title>Node65&#45;&gt;Node8</title>
<path fill="none" stroke="#191970" d="M1264.9069,-515.4454C1332.0446,-499.7223 1466.385,-465.8238 1575.5,-423 1613.5038,-408.0848 1655.2821,-385.968 1681.2042,-371.5182"/>
<polygon fill="#191970" stroke="#191970" points="1683.0016,-374.5229 1690.0007,-366.569 1679.5691,-368.4222 1683.0016,-374.5229"/>
</g>
<!-- Node65&#45;&gt;Node33 -->
<g id="edge110" class="edge">
<title>Node65&#45;&gt;Node33</title>
<path fill="none" stroke="#191970" d="M1174.226,-522.7515C1088.825,-518.2223 905.7479,-506.032 753.5,-479 655.8533,-461.6626 604.4549,-496.1608 537.5,-423 526.2509,-410.7082 524.1543,-391.4707 524.4853,-376.9297"/>
<polygon fill="#191970" stroke="#191970" points="527.9805,-377.1143 525.1003,-366.9185 520.9937,-376.685 527.9805,-377.1143"/>
</g>
<!-- Node65&#45;&gt;Node35 -->
<g id="edge109" class="edge">
<title>Node65&#45;&gt;Node35</title>
<path fill="none" stroke="#191970" d="M1184.7599,-515.4369C1147.2552,-505.9335 1089.6201,-491.3291 1049.0176,-481.0407"/>
<polygon fill="#191970" stroke="#191970" points="1049.6379,-477.5873 1039.0845,-478.5237 1047.9184,-484.3728 1049.6379,-477.5873"/>
</g>
<!-- Node65&#45;&gt;Node63 -->
<g id="edge111" class="edge">
<title>Node65&#45;&gt;Node63</title>
<path fill="none" stroke="#191970" d="M1244.838,-515.4509C1291.4368,-495.5308 1399.1295,-449.4942 1452.844,-426.5323"/>
<polygon fill="#191970" stroke="#191970" points="1454.3993,-429.6739 1462.2186,-422.5249 1451.6477,-423.2374 1454.3993,-429.6739"/>
</g>
<!-- Node66&#45;&gt;Node2 -->
<g id="edge119" class="edge">
<title>Node66&#45;&gt;Node2</title>
<path fill="none" stroke="#191970" d="M1580.2939,-576.9906C1479.4505,-571.4693 1309.689,-559.3128 1165.5,-535 1114.4792,-526.397 974.4341,-517.1673 939.5,-479 913.9191,-451.0516 914.6047,-403.5395 917.4806,-376.8011"/>
<polygon fill="#191970" stroke="#191970" points="920.9714,-377.0964 918.7771,-366.7313 914.0287,-376.2025 920.9714,-377.0964"/>
</g>
<!-- Node66&#45;&gt;Node3 -->
<g id="edge120" class="edge">
<title>Node66&#45;&gt;Node3</title>
<path fill="none" stroke="#191970" d="M1756.7798,-575.2986C1938.7137,-562.3625 2338.5,-527.3034 2338.5,-469 2338.5,-469 2338.5,-469 2338.5,-178 2338.5,-1.3256 2122.0615,-131.7989 1946.5,-112 1651.641,-78.7474 1292.3888,-68.9188 1183.975,-66.6105"/>
<polygon fill="#191970" stroke="#191970" points="1183.7755,-63.1057 1173.7054,-66.3986 1183.6311,-70.1042 1183.7755,-63.1057"/>
</g>
<!-- Node66&#45;&gt;Node8 -->
<g id="edge121" class="edge">
<title>Node66&#45;&gt;Node8</title>
<path fill="none" stroke="#191970" d="M1676.4491,-571.3707C1690.0955,-554.1427 1717.4778,-516.343 1727.5,-479 1737.1086,-443.1982 1724.2375,-400.26 1714.816,-376.0527"/>
<polygon fill="#191970" stroke="#191970" points="1717.9794,-374.5421 1710.944,-366.6203 1711.5037,-377.2004 1717.9794,-374.5421"/>
</g>
<!-- Node66&#45;&gt;Node37 -->
<g id="edge118" class="edge">
<title>Node66&#45;&gt;Node37</title>
<path fill="none" stroke="#191970" d="M1706.3193,-571.3733C1743.6938,-561.8598 1800.9724,-547.2797 1841.3071,-537.0127"/>
<polygon fill="#191970" stroke="#191970" points="1842.3466,-540.3598 1851.1742,-534.5011 1840.6198,-533.5761 1842.3466,-540.3598"/>
</g>
<!-- Node66&#45;&gt;Node39 -->
<g id="edge117" class="edge">
<title>Node66&#45;&gt;Node39</title>
<path fill="none" stroke="#191970" d="M1667.0506,-571.4509C1664.2779,-553.184 1658.1718,-512.9553 1654.4898,-488.6976"/>
<polygon fill="#191970" stroke="#191970" points="1657.9069,-487.8864 1652.9457,-478.5249 1650.9861,-488.9369 1657.9069,-487.8864"/>
</g>
</g>
</svg>
