<?xml version="1.0" encoding="UTF-8" standalone="no"?>
<!DOCTYPE svg PUBLIC "-//W3C//DTD SVG 1.1//EN"
 "http://www.w3.org/Graphics/SVG/1.1/DTD/svg11.dtd">
<!-- Generated by graphviz version 2.40.1 (20161225.0304)
 -->
<!-- Title: AlglibInterface.cpp Pages: 1 -->
<svg width="1790pt" height="610pt"
 viewBox="0.00 0.00 1790.00 610.00" xmlns="http://www.w3.org/2000/svg" xmlns:xlink="http://www.w3.org/1999/xlink">
<g id="graph0" class="graph" transform="scale(1 1) rotate(0) translate(4 606)">
<title>AlglibInterface.cpp</title>
<!-- Node0 -->
<g id="node1" class="node">
<title>Node0</title>
<polygon fill="#bfbfbf" stroke="#000000" points="1393,-582.5 1393,-601.5 1501,-601.5 1501,-582.5 1393,-582.5"/>
<text text-anchor="middle" x="1447" y="-589.5" font-family="FreeSans.ttf" font-size="10.00" fill="#000000">AlglibInterface.cpp</text>
</g>
<!-- Node1 -->
<g id="node2" class="node">
<title>Node1</title>
<g id="a_node2"><a xlink:href="AlglibInterface_8h.html" target="_top" xlink:title="iDynTree/Optimizers\l/AlglibInterface.h">
<polygon fill="none" stroke="#000000" points="79,-515.5 79,-545.5 195,-545.5 195,-515.5 79,-515.5"/>
<text text-anchor="start" x="87" y="-533.5" font-family="FreeSans.ttf" font-size="10.00" fill="#000000">iDynTree/Optimizers</text>
<text text-anchor="middle" x="137" y="-522.5" font-family="FreeSans.ttf" font-size="10.00" fill="#000000">/AlglibInterface.h</text>
</a>
</g>
</g>
<!-- Node0&#45;&gt;Node1 -->
<g id="edge1" class="edge">
<title>Node0&#45;&gt;Node1</title>
<path fill="none" stroke="#191970" d="M1392.9438,-590.9655C1187.5623,-586.8798 455.5964,-570.8648 224,-546 217.8935,-545.3444 211.5694,-544.5148 205.2451,-543.5817"/>
<polygon fill="#191970" stroke="#191970" points="205.7573,-540.1193 195.338,-542.0403 204.6811,-547.0361 205.7573,-540.1193"/>
</g>
<!-- Node7 -->
<g id="node8" class="node">
<title>Node7</title>
<polygon fill="none" stroke="#bfbfbf" points="1322.5,-454 1322.5,-473 1399.5,-473 1399.5,-454 1322.5,-454"/>
<text text-anchor="middle" x="1361" y="-461" font-family="FreeSans.ttf" font-size="10.00" fill="#000000">Eigen/Dense</text>
</g>
<!-- Node0&#45;&gt;Node7 -->
<g id="edge8" class="edge">
<title>Node0&#45;&gt;Node7</title>
<path fill="none" stroke="#191970" d="M1439.7714,-582.2325C1432.9848,-572.9904 1422.6152,-558.6833 1414,-546 1399.2871,-524.3396 1383.1212,-498.9254 1372.5597,-482.0875"/>
<polygon fill="#191970" stroke="#191970" points="1375.3097,-479.8836 1367.0422,-473.2579 1369.3734,-483.5931 1375.3097,-479.8836"/>
</g>
<!-- Node8 -->
<g id="node9" class="node">
<title>Node8</title>
<g id="a_node9"><a xlink:href="EigenHelpers_8h.html" target="_top" xlink:title="iDynTree/Core/EigenHelpers.h">
<polygon fill="none" stroke="#000000" points="715.5,-521 715.5,-540 876.5,-540 876.5,-521 715.5,-521"/>
<text text-anchor="middle" x="796" y="-528" font-family="FreeSans.ttf" font-size="10.00" fill="#000000">iDynTree/Core/EigenHelpers.h</text>
</a>
</g>
</g>
<!-- Node0&#45;&gt;Node8 -->
<g id="edge9" class="edge">
<title>Node0&#45;&gt;Node8</title>
<path fill="none" stroke="#191970" d="M1392.8943,-586.8886C1281.2711,-576.3436 1024.4113,-552.078 886.861,-539.0836"/>
<polygon fill="#191970" stroke="#191970" points="887.0476,-535.5858 876.7627,-538.1297 886.3892,-542.5547 887.0476,-535.5858"/>
</g>
<!-- Node9 -->
<g id="node10" class="node">
<title>Node9</title>
<g id="a_node10"><a xlink:href="VectorDynSize_8h.html" target="_top" xlink:title="iDynTree/Core/VectorDynSize.h">
<polygon fill="none" stroke="#000000" points="1411.5,-280.5 1411.5,-299.5 1578.5,-299.5 1578.5,-280.5 1411.5,-280.5"/>
<text text-anchor="middle" x="1495" y="-287.5" font-family="FreeSans.ttf" font-size="10.00" fill="#000000">iDynTree/Core/VectorDynSize.h</text>
</a>
</g>
</g>
<!-- Node0&#45;&gt;Node9 -->
<g id="edge79" class="edge">
<title>Node0&#45;&gt;Node9</title>
<path fill="none" stroke="#191970" d="M1449.6597,-582.4157C1455.3105,-561.1797 1468,-508.4839 1468,-463.5 1468,-463.5 1468,-463.5 1468,-402 1468,-368.6538 1479.4512,-331.2392 1487.4386,-309.1981"/>
<polygon fill="#191970" stroke="#191970" points="1490.7673,-310.29 1491.0161,-299.6981 1484.2164,-307.823 1490.7673,-310.29"/>
</g>
<!-- Node11 -->
<g id="node12" class="node">
<title>Node11</title>
<polygon fill="none" stroke="#bfbfbf" points="898,-.5 898,-19.5 950,-19.5 950,-.5 898,-.5"/>
<text text-anchor="middle" x="924" y="-7.5" font-family="FreeSans.ttf" font-size="10.00" fill="#000000">cassert</text>
</g>
<!-- Node0&#45;&gt;Node11 -->
<g id="edge84" class="edge">
<title>Node0&#45;&gt;Node11</title>
<path fill="none" stroke="#191970" d="M1454.8848,-582.4542C1486.9677,-542.6107 1606,-384.6356 1606,-234 1606,-234 1606,-234 1606,-122 1606,-56.0008 1102.243,-20.7186 960.6324,-12.1043"/>
<polygon fill="#191970" stroke="#191970" points="960.5091,-8.5907 950.3173,-11.4853 960.0897,-15.5781 960.5091,-8.5907"/>
</g>
<!-- Node21 -->
<g id="node22" class="node">
<title>Node21</title>
<g id="a_node22"><a xlink:href="Utils_8h.html" target="_top" xlink:title="iDynTree/Core/Utils.h">
<polygon fill="none" stroke="#000000" points="256.5,-56.5 256.5,-75.5 375.5,-75.5 375.5,-56.5 256.5,-56.5"/>
<text text-anchor="middle" x="316" y="-63.5" font-family="FreeSans.ttf" font-size="10.00" fill="#000000">iDynTree/Core/Utils.h</text>
</a>
</g>
</g>
<!-- Node0&#45;&gt;Node21 -->
<g id="edge81" class="edge">
<title>Node0&#45;&gt;Node21</title>
<path fill="none" stroke="#191970" d="M1392.9905,-590.456C1270.5963,-586.5607 962.854,-574.536 707,-546 496.6594,-522.5402 238,-675.1448 238,-463.5 238,-463.5 238,-463.5 238,-178 238,-137.9033 272.0809,-101.8785 295.1871,-82.0622"/>
<polygon fill="#191970" stroke="#191970" points="297.6337,-84.5811 303.1199,-75.5173 293.1789,-79.1816 297.6337,-84.5811"/>
</g>
<!-- Node25 -->
<g id="node26" class="node">
<title>Node25</title>
<g id="a_node26"><a xlink:href="MatrixDynSize_8h.html" target="_top" xlink:title="iDynTree/Core/MatrixDynSize.h">
<polygon fill="none" stroke="#000000" points="1226.5,-280.5 1226.5,-299.5 1393.5,-299.5 1393.5,-280.5 1226.5,-280.5"/>
<text text-anchor="middle" x="1310" y="-287.5" font-family="FreeSans.ttf" font-size="10.00" fill="#000000">iDynTree/Core/MatrixDynSize.h</text>
</a>
</g>
</g>
<!-- Node0&#45;&gt;Node25 -->
<g id="edge80" class="edge">
<title>Node0&#45;&gt;Node25</title>
<path fill="none" stroke="#191970" d="M1445.4714,-582.2321C1441.5349,-558.4887 1429.8676,-496.1608 1409,-448 1385.4259,-393.5929 1344.9014,-336.1522 1323.7531,-307.8748"/>
<polygon fill="#191970" stroke="#191970" points="1326.4381,-305.6227 1317.6136,-299.7593 1320.8556,-309.846 1326.4381,-305.6227"/>
</g>
<!-- Node38 -->
<g id="node39" class="node">
<title>Node38</title>
<polygon fill="none" stroke="#bfbfbf" points="1564.5,-521 1564.5,-540 1651.5,-540 1651.5,-521 1564.5,-521"/>
<text text-anchor="middle" x="1608" y="-528" font-family="FreeSans.ttf" font-size="10.00" fill="#000000">optimization.h</text>
</g>
<!-- Node0&#45;&gt;Node38 -->
<g id="edge82" class="edge">
<title>Node0&#45;&gt;Node38</title>
<path fill="none" stroke="#191970" d="M1472.1563,-582.3906C1499.449,-571.9652 1543.192,-555.2559 1573.6397,-543.6252"/>
<polygon fill="#191970" stroke="#191970" points="1574.9277,-546.8799 1583.0204,-540.0419 1572.4298,-540.3408 1574.9277,-546.8799"/>
</g>
<!-- Node39 -->
<g id="node40" class="node">
<title>Node39</title>
<polygon fill="none" stroke="#bfbfbf" points="1670,-521 1670,-540 1726,-540 1726,-521 1670,-521"/>
<text text-anchor="middle" x="1698" y="-528" font-family="FreeSans.ttf" font-size="10.00" fill="#000000">stdafx.h</text>
</g>
<!-- Node0&#45;&gt;Node39 -->
<g id="edge83" class="edge">
<title>Node0&#45;&gt;Node39</title>
<path fill="none" stroke="#191970" d="M1501.3642,-583.1843C1545.0527,-575.417 1607.7031,-562.7334 1661,-546 1663.1595,-545.322 1665.3671,-544.5663 1667.5756,-543.7636"/>
<polygon fill="#191970" stroke="#191970" points="1669.0763,-546.9351 1677.1191,-540.0385 1666.5309,-540.4143 1669.0763,-546.9351"/>
</g>
<!-- Node40 -->
<g id="node41" class="node">
<title>Node40</title>
<polygon fill="none" stroke="#bfbfbf" points="1744,-521 1744,-540 1782,-540 1782,-521 1744,-521"/>
<text text-anchor="middle" x="1763" y="-528" font-family="FreeSans.ttf" font-size="10.00" fill="#000000">map</text>
</g>
<!-- Node0&#45;&gt;Node40 -->
<g id="edge85" class="edge">
<title>Node0&#45;&gt;Node40</title>
<path fill="none" stroke="#191970" d="M1501.1656,-588.9543C1560.086,-584.365 1656.3751,-573.1053 1735,-546 1736.241,-545.5722 1737.4914,-545.0913 1738.7389,-544.5708"/>
<polygon fill="#191970" stroke="#191970" points="1740.5908,-547.5616 1748.0411,-540.0287 1737.5193,-541.2714 1740.5908,-547.5616"/>
</g>
<!-- Node2 -->
<g id="node3" class="node">
<title>Node2</title>
<g id="a_node3"><a xlink:href="Optimizer_8h.html" target="_top" xlink:title="iDynTree/Optimizer.h">
<polygon fill="none" stroke="#000000" points="62.5,-454 62.5,-473 181.5,-473 181.5,-454 62.5,-454"/>
<text text-anchor="middle" x="122" y="-461" font-family="FreeSans.ttf" font-size="10.00" fill="#000000">iDynTree/Optimizer.h</text>
</a>
</g>
</g>
<!-- Node1&#45;&gt;Node2 -->
<g id="edge2" class="edge">
<title>Node1&#45;&gt;Node2</title>
<path fill="none" stroke="#191970" d="M133.5963,-515.2967C131.4634,-505.7699 128.693,-493.3954 126.3949,-483.1306"/>
<polygon fill="#191970" stroke="#191970" points="129.7394,-482.0487 124.1392,-473.055 122.9085,-483.5781 129.7394,-482.0487"/>
</g>
<!-- Node3 -->
<g id="node4" class="node">
<title>Node3</title>
<polygon fill="none" stroke="#bfbfbf" points="0,-336.5 0,-355.5 58,-355.5 58,-336.5 0,-336.5"/>
<text text-anchor="middle" x="29" y="-343.5" font-family="FreeSans.ttf" font-size="10.00" fill="#000000">memory</text>
</g>
<!-- Node2&#45;&gt;Node3 -->
<g id="edge3" class="edge">
<title>Node2&#45;&gt;Node3</title>
<path fill="none" stroke="#191970" d="M84.4107,-453.9657C62.9692,-446.3897 37.8708,-433.4058 25,-412 16.6918,-398.1823 18.7041,-379.6599 22.2133,-365.7545"/>
<polygon fill="#191970" stroke="#191970" points="25.6865,-366.3532 25.1798,-355.7705 18.9765,-364.3594 25.6865,-366.3532"/>
</g>
<!-- Node4 -->
<g id="node5" class="node">
<title>Node4</title>
<g id="a_node5"><a xlink:href="OptimizationProblem_8h.html" target="_top" xlink:title="iDynTree/OptimizationProblem.h">
<polygon fill="none" stroke="#000000" points="34.5,-392.5 34.5,-411.5 209.5,-411.5 209.5,-392.5 34.5,-392.5"/>
<text text-anchor="middle" x="122" y="-399.5" font-family="FreeSans.ttf" font-size="10.00" fill="#000000">iDynTree/OptimizationProblem.h</text>
</a>
</g>
</g>
<!-- Node2&#45;&gt;Node4 -->
<g id="edge4" class="edge">
<title>Node2&#45;&gt;Node4</title>
<path fill="none" stroke="#191970" d="M122,-453.8906C122,-445.3657 122,-432.6392 122,-421.9235"/>
<polygon fill="#191970" stroke="#191970" points="125.5001,-421.7448 122,-411.7449 118.5001,-421.7449 125.5001,-421.7448"/>
</g>
<!-- Node4&#45;&gt;Node3 -->
<g id="edge6" class="edge">
<title>Node4&#45;&gt;Node3</title>
<path fill="none" stroke="#191970" d="M105.8006,-392.2455C91.3982,-383.5731 70.1268,-370.7645 53.6201,-360.825"/>
<polygon fill="#191970" stroke="#191970" points="55.386,-357.8028 45.0137,-355.6427 51.775,-363.7996 55.386,-357.8028"/>
</g>
<!-- Node5 -->
<g id="node6" class="node">
<title>Node5</title>
<polygon fill="none" stroke="#bfbfbf" points="98.5,-336.5 98.5,-355.5 145.5,-355.5 145.5,-336.5 98.5,-336.5"/>
<text text-anchor="middle" x="122" y="-343.5" font-family="FreeSans.ttf" font-size="10.00" fill="#000000">vector</text>
</g>
<!-- Node4&#45;&gt;Node5 -->
<g id="edge5" class="edge">
<title>Node4&#45;&gt;Node5</title>
<path fill="none" stroke="#191970" d="M122,-392.2455C122,-384.9382 122,-374.6944 122,-365.7046"/>
<polygon fill="#191970" stroke="#191970" points="125.5001,-365.6426 122,-355.6427 118.5001,-365.6427 125.5001,-365.6426"/>
</g>
<!-- Node6 -->
<g id="node7" class="node">
<title>Node6</title>
<polygon fill="none" stroke="#bfbfbf" points="292.5,-.5 292.5,-19.5 345.5,-19.5 345.5,-.5 292.5,-.5"/>
<text text-anchor="middle" x="319" y="-7.5" font-family="FreeSans.ttf" font-size="10.00" fill="#000000">cstddef</text>
</g>
<!-- Node4&#45;&gt;Node6 -->
<g id="edge7" class="edge">
<title>Node4&#45;&gt;Node6</title>
<path fill="none" stroke="#191970" d="M132.4434,-392.3101C150.8174,-374.151 187,-332.9402 187,-290 187,-290 187,-290 187,-122 187,-71.5745 243.6997,-39.1375 282.7777,-22.7697"/>
<polygon fill="#191970" stroke="#191970" points="284.3106,-25.9259 292.2878,-18.9534 281.7037,-19.4294 284.3106,-25.9259"/>
</g>
<!-- Node8&#45;&gt;Node7 -->
<g id="edge10" class="edge">
<title>Node8&#45;&gt;Node7</title>
<path fill="none" stroke="#191970" d="M876.9256,-526.9701C978.4168,-521.4901 1157.3937,-508.337 1308,-479 1312.6932,-478.0858 1317.5694,-476.9395 1322.3792,-475.6862"/>
<polygon fill="#191970" stroke="#191970" points="1323.3735,-479.0427 1332.0786,-473.0035 1321.5074,-472.296 1323.3735,-479.0427"/>
</g>
<!-- Node8&#45;&gt;Node9 -->
<g id="edge11" class="edge">
<title>Node8&#45;&gt;Node9</title>
<path fill="none" stroke="#191970" d="M841.2648,-520.9237C883.5016,-511.5921 948.0767,-496.3095 1003,-479 1180.4257,-423.0831 1386.3417,-336.7799 1463.596,-303.6196"/>
<polygon fill="#191970" stroke="#191970" points="1464.9881,-306.831 1472.7901,-299.663 1462.221,-300.4011 1464.9881,-306.831"/>
</g>
<!-- Node20 -->
<g id="node21" class="node">
<title>Node20</title>
<g id="a_node21"><a xlink:href="VectorFixSize_8h.html" target="_top" xlink:title="iDynTree/Core/VectorFixSize.h">
<polygon fill="none" stroke="#000000" points="559.5,-168.5 559.5,-187.5 720.5,-187.5 720.5,-168.5 559.5,-168.5"/>
<text text-anchor="middle" x="640" y="-175.5" font-family="FreeSans.ttf" font-size="10.00" fill="#000000">iDynTree/Core/VectorFixSize.h</text>
</a>
</g>
</g>
<!-- Node8&#45;&gt;Node20 -->
<g id="edge23" class="edge">
<title>Node8&#45;&gt;Node20</title>
<path fill="none" stroke="#191970" d="M715.0877,-523.8968C618.8437,-515.2067 468.9722,-498.7022 452,-479 425.3284,-448.0381 371.6728,-386.8145 524,-224 538.9457,-208.0253 560.1486,-197.4959 580.3473,-190.6015"/>
<polygon fill="#191970" stroke="#191970" points="581.6715,-193.8537 590.1505,-187.5011 579.5606,-187.1795 581.6715,-193.8537"/>
</g>
<!-- Node8&#45;&gt;Node21 -->
<g id="edge78" class="edge">
<title>Node8&#45;&gt;Node21</title>
<path fill="none" stroke="#191970" d="M715.0516,-527.7662C604.0838,-522.9066 411.3676,-510.1632 349,-479 306.8157,-457.9218 276,-449.1572 276,-402 276,-402 276,-402 276,-178 276,-143.4432 293.097,-106.1996 304.9358,-84.5529"/>
<polygon fill="#191970" stroke="#191970" points="308.0287,-86.1941 309.9249,-75.7703 301.9422,-82.7365 308.0287,-86.1941"/>
</g>
<!-- Node8&#45;&gt;Node25 -->
<g id="edge32" class="edge">
<title>Node8&#45;&gt;Node25</title>
<path fill="none" stroke="#191970" d="M826.3416,-520.8808C883.5152,-502.38 1010.6554,-459.4476 1113,-412 1159.214,-390.5749 1169.6795,-382.7974 1213,-356 1239.5886,-339.5527 1269.1643,-319.1016 1288.5866,-305.3607"/>
<polygon fill="#191970" stroke="#191970" points="1290.6265,-308.2049 1296.7487,-299.5579 1286.5704,-302.4997 1290.6265,-308.2049"/>
</g>
<!-- Node27 -->
<g id="node28" class="node">
<title>Node27</title>
<g id="a_node28"><a xlink:href="MatrixFixSize_8h.html" target="_top" xlink:title="iDynTree/Core/MatrixFixSize.h">
<polygon fill="none" stroke="#000000" points="742.5,-168.5 742.5,-187.5 903.5,-187.5 903.5,-168.5 742.5,-168.5"/>
<text text-anchor="middle" x="823" y="-175.5" font-family="FreeSans.ttf" font-size="10.00" fill="#000000">iDynTree/Core/MatrixFixSize.h</text>
</a>
</g>
</g>
<!-- Node8&#45;&gt;Node27 -->
<g id="edge39" class="edge">
<title>Node8&#45;&gt;Node27</title>
<path fill="none" stroke="#191970" d="M715.3361,-525.216C609.1362,-517.424 433.5173,-501.3252 414,-479 346.0974,-401.3287 130.1207,-513.2899 524,-224 532.7289,-217.589 654.3708,-200.3386 739.777,-188.881"/>
<polygon fill="#191970" stroke="#191970" points="740.2943,-192.3431 749.7421,-187.5483 739.3663,-185.4048 740.2943,-192.3431"/>
</g>
<!-- Node29 -->
<g id="node30" class="node">
<title>Node29</title>
<g id="a_node30"><a xlink:href="SpatialMotionVector_8h.html" target="_top" xlink:title="iDynTree/Core/SpatialMotion\lVector.h">
<polygon fill="none" stroke="#000000" points="461.5,-448.5 461.5,-478.5 616.5,-478.5 616.5,-448.5 461.5,-448.5"/>
<text text-anchor="start" x="469.5" y="-466.5" font-family="FreeSans.ttf" font-size="10.00" fill="#000000">iDynTree/Core/SpatialMotion</text>
<text text-anchor="middle" x="539" y="-455.5" font-family="FreeSans.ttf" font-size="10.00" fill="#000000">Vector.h</text>
</a>
</g>
</g>
<!-- Node8&#45;&gt;Node29 -->
<g id="edge47" class="edge">
<title>Node8&#45;&gt;Node29</title>
<path fill="none" stroke="#191970" d="M759.4511,-520.9717C719.7787,-510.6291 655.5506,-493.8848 606.6296,-481.1311"/>
<polygon fill="#191970" stroke="#191970" points="607.3092,-477.6913 596.7496,-478.5553 605.5432,-484.4649 607.3092,-477.6913"/>
</g>
<!-- Node36 -->
<g id="node37" class="node">
<title>Node36</title>
<g id="a_node37"><a xlink:href="SpatialForceVector_8h.html" target="_top" xlink:title="iDynTree/Core/SpatialForce\lVector.h">
<polygon fill="none" stroke="#000000" points="640,-448.5 640,-478.5 788,-478.5 788,-448.5 640,-448.5"/>
<text text-anchor="start" x="648" y="-466.5" font-family="FreeSans.ttf" font-size="10.00" fill="#000000">iDynTree/Core/SpatialForce</text>
<text text-anchor="middle" x="714" y="-455.5" font-family="FreeSans.ttf" font-size="10.00" fill="#000000">Vector.h</text>
</a>
</g>
</g>
<!-- Node8&#45;&gt;Node36 -->
<g id="edge69" class="edge">
<title>Node8&#45;&gt;Node36</title>
<path fill="none" stroke="#191970" d="M784.2514,-520.9005C772.8177,-511.5583 755.0511,-497.0417 740.2461,-484.945"/>
<polygon fill="#191970" stroke="#191970" points="742.3432,-482.1387 732.3848,-478.5218 737.9141,-487.5594 742.3432,-482.1387"/>
</g>
<!-- Node37 -->
<g id="node38" class="node">
<title>Node37</title>
<g id="a_node38"><a xlink:href="Transform_8h.html" target="_top" xlink:title="iDynTree/Core/Transform.h">
<polygon fill="none" stroke="#000000" points="958,-392.5 958,-411.5 1104,-411.5 1104,-392.5 958,-392.5"/>
<text text-anchor="middle" x="1031" y="-399.5" font-family="FreeSans.ttf" font-size="10.00" fill="#000000">iDynTree/Core/Transform.h</text>
</a>
</g>
</g>
<!-- Node8&#45;&gt;Node37 -->
<g id="edge73" class="edge">
<title>Node8&#45;&gt;Node37</title>
<path fill="none" stroke="#191970" d="M813.6632,-520.8416C854.5921,-498.4613 956.1116,-442.9496 1004.5139,-416.4828"/>
<polygon fill="#191970" stroke="#191970" points="1006.3576,-419.4638 1013.4524,-411.5952 1002.9992,-413.322 1006.3576,-419.4638"/>
</g>
<!-- Node10 -->
<g id="node11" class="node">
<title>Node10</title>
<g id="a_node11"><a xlink:href="Span_8h.html" target="_top" xlink:title="iDynTree/Core/Span.h">
<polygon fill="none" stroke="#000000" points="541.5,-56.5 541.5,-75.5 662.5,-75.5 662.5,-56.5 541.5,-56.5"/>
<text text-anchor="middle" x="602" y="-63.5" font-family="FreeSans.ttf" font-size="10.00" fill="#000000">iDynTree/Core/Span.h</text>
</a>
</g>
</g>
<!-- Node9&#45;&gt;Node10 -->
<g id="edge12" class="edge">
<title>Node9&#45;&gt;Node10</title>
<path fill="none" stroke="#191970" d="M1487.5048,-280.1809C1476.7127,-266.4731 1455.6971,-241.3371 1434,-224 1395.1105,-192.9253 1383.1493,-186.6619 1337,-168 1241.8646,-129.5291 1214.1854,-129.0962 1113,-112 957.13,-85.6644 771.7933,-73.7358 672.7532,-68.8956"/>
<polygon fill="#191970" stroke="#191970" points="672.7237,-65.3903 662.5677,-68.4081 672.3889,-72.3823 672.7237,-65.3903"/>
</g>
<!-- Node19 -->
<g id="node20" class="node">
<title>Node19</title>
<polygon fill="none" stroke="#bfbfbf" points="1060,-112.5 1060,-131.5 1104,-131.5 1104,-112.5 1060,-112.5"/>
<text text-anchor="middle" x="1082" y="-119.5" font-family="FreeSans.ttf" font-size="10.00" fill="#000000">string</text>
</g>
<!-- Node9&#45;&gt;Node19 -->
<g id="edge22" class="edge">
<title>Node9&#45;&gt;Node19</title>
<path fill="none" stroke="#191970" d="M1483.2709,-280.3554C1454.4876,-257.2001 1377.2837,-198.1563 1303,-168 1238.9266,-141.9887 1158.1867,-129.9808 1114.1957,-125.0298"/>
<polygon fill="#191970" stroke="#191970" points="1114.4101,-121.5328 1104.0936,-123.9452 1113.6628,-128.4928 1114.4101,-121.5328"/>
</g>
<!-- Node10&#45;&gt;Node6 -->
<g id="edge16" class="edge">
<title>Node10&#45;&gt;Node6</title>
<path fill="none" stroke="#191970" d="M553.6721,-56.4369C497.549,-45.3312 406.2232,-27.2597 355.6391,-17.2501"/>
<polygon fill="#191970" stroke="#191970" points="356.2785,-13.8089 345.7893,-15.3011 354.9196,-20.6757 356.2785,-13.8089"/>
</g>
<!-- Node10&#45;&gt;Node11 -->
<g id="edge13" class="edge">
<title>Node10&#45;&gt;Node11</title>
<path fill="none" stroke="#191970" d="M662.6164,-57.1699C719.2702,-48.6418 806.1237,-34.8628 881,-20 883.199,-19.5635 885.4568,-19.0962 887.7313,-18.6109"/>
<polygon fill="#191970" stroke="#191970" points="888.6735,-21.9871 897.6797,-16.4067 887.1593,-15.1528 888.6735,-21.9871"/>
</g>
<!-- Node12 -->
<g id="node13" class="node">
<title>Node12</title>
<polygon fill="none" stroke="#bfbfbf" points="530,-.5 530,-19.5 594,-19.5 594,-.5 530,-.5"/>
<text text-anchor="middle" x="562" y="-7.5" font-family="FreeSans.ttf" font-size="10.00" fill="#000000">algorithm</text>
</g>
<!-- Node10&#45;&gt;Node12 -->
<g id="edge14" class="edge">
<title>Node10&#45;&gt;Node12</title>
<path fill="none" stroke="#191970" d="M595.0325,-56.2455C589.4689,-48.4564 581.522,-37.3308 574.8171,-27.9439"/>
<polygon fill="#191970" stroke="#191970" points="577.5481,-25.7457 568.8876,-19.6427 571.852,-29.8144 577.5481,-25.7457"/>
</g>
<!-- Node13 -->
<g id="node14" class="node">
<title>Node13</title>
<polygon fill="none" stroke="#bfbfbf" points="612,-.5 612,-19.5 654,-19.5 654,-.5 612,-.5"/>
<text text-anchor="middle" x="633" y="-7.5" font-family="FreeSans.ttf" font-size="10.00" fill="#000000">array</text>
</g>
<!-- Node10&#45;&gt;Node13 -->
<g id="edge15" class="edge">
<title>Node10&#45;&gt;Node13</title>
<path fill="none" stroke="#191970" d="M607.3998,-56.2455C611.6227,-48.617 617.6173,-37.7881 622.7441,-28.5267"/>
<polygon fill="#191970" stroke="#191970" points="625.881,-30.0867 627.6621,-19.6427 619.7568,-26.6965 625.881,-30.0867"/>
</g>
<!-- Node14 -->
<g id="node15" class="node">
<title>Node14</title>
<polygon fill="none" stroke="#bfbfbf" points="672.5,-.5 672.5,-19.5 725.5,-19.5 725.5,-.5 672.5,-.5"/>
<text text-anchor="middle" x="699" y="-7.5" font-family="FreeSans.ttf" font-size="10.00" fill="#000000">iterator</text>
</g>
<!-- Node10&#45;&gt;Node14 -->
<g id="edge17" class="edge">
<title>Node10&#45;&gt;Node14</title>
<path fill="none" stroke="#191970" d="M618.8961,-56.2455C633.918,-47.5731 656.1043,-34.7645 673.321,-24.825"/>
<polygon fill="#191970" stroke="#191970" points="675.3871,-27.6737 682.2975,-19.6427 671.8872,-21.6114 675.3871,-27.6737"/>
</g>
<!-- Node15 -->
<g id="node16" class="node">
<title>Node15</title>
<polygon fill="none" stroke="#bfbfbf" points="744,-.5 744,-19.5 788,-19.5 788,-.5 744,-.5"/>
<text text-anchor="middle" x="766" y="-7.5" font-family="FreeSans.ttf" font-size="10.00" fill="#000000">limits</text>
</g>
<!-- Node10&#45;&gt;Node15 -->
<g id="edge18" class="edge">
<title>Node10&#45;&gt;Node15</title>
<path fill="none" stroke="#191970" d="M630.1926,-56.3733C659.1554,-46.4835 704.1527,-31.1186 734.3262,-20.8154"/>
<polygon fill="#191970" stroke="#191970" points="735.6136,-24.0743 743.9461,-17.5306 733.3516,-17.4499 735.6136,-24.0743"/>
</g>
<!-- Node16 -->
<g id="node17" class="node">
<title>Node16</title>
<polygon fill="none" stroke="#bfbfbf" points="806.5,-.5 806.5,-19.5 871.5,-19.5 871.5,-.5 806.5,-.5"/>
<text text-anchor="middle" x="839" y="-7.5" font-family="FreeSans.ttf" font-size="10.00" fill="#000000">stdexcept</text>
</g>
<!-- Node10&#45;&gt;Node16 -->
<g id="edge19" class="edge">
<title>Node10&#45;&gt;Node16</title>
<path fill="none" stroke="#191970" d="M642.7152,-56.4214C680.0878,-47.6233 737.2653,-34.1484 796.5284,-20.1083"/>
<polygon fill="#191970" stroke="#191970" points="797.5189,-23.4706 806.4423,-17.7589 795.9047,-16.6592 797.5189,-23.4706"/>
</g>
<!-- Node17 -->
<g id="node18" class="node">
<title>Node17</title>
<polygon fill="none" stroke="#bfbfbf" points="379.5,-.5 379.5,-19.5 448.5,-19.5 448.5,-.5 379.5,-.5"/>
<text text-anchor="middle" x="414" y="-7.5" font-family="FreeSans.ttf" font-size="10.00" fill="#000000">type_traits</text>
</g>
<!-- Node10&#45;&gt;Node17 -->
<g id="edge20" class="edge">
<title>Node10&#45;&gt;Node17</title>
<path fill="none" stroke="#191970" d="M569.6816,-56.3733C538.1494,-46.9807 490.0379,-32.6496 455.6499,-22.4064"/>
<polygon fill="#191970" stroke="#191970" points="456.4797,-19.0016 445.8966,-19.5011 454.4813,-25.7103 456.4797,-19.0016"/>
</g>
<!-- Node18 -->
<g id="node19" class="node">
<title>Node18</title>
<polygon fill="none" stroke="#bfbfbf" points="466.5,-.5 466.5,-19.5 511.5,-19.5 511.5,-.5 466.5,-.5"/>
<text text-anchor="middle" x="489" y="-7.5" font-family="FreeSans.ttf" font-size="10.00" fill="#000000">utility</text>
</g>
<!-- Node10&#45;&gt;Node18 -->
<g id="edge21" class="edge">
<title>Node10&#45;&gt;Node18</title>
<path fill="none" stroke="#191970" d="M582.5746,-56.3733C564.5979,-47.4644 537.6559,-34.1127 517.291,-24.0203"/>
<polygon fill="#191970" stroke="#191970" points="518.6861,-20.8055 508.1719,-19.5011 515.5778,-27.0776 518.6861,-20.8055"/>
</g>
<!-- Node20&#45;&gt;Node10 -->
<g id="edge27" class="edge">
<title>Node20&#45;&gt;Node10</title>
<path fill="none" stroke="#191970" d="M636.7601,-168.4509C630.5063,-150.0186 616.6658,-109.2254 608.461,-85.043"/>
<polygon fill="#191970" stroke="#191970" points="611.7591,-83.8701 605.2317,-75.5249 605.1303,-86.1192 611.7591,-83.8701"/>
</g>
<!-- Node20&#45;&gt;Node11 -->
<g id="edge30" class="edge">
<title>Node20&#45;&gt;Node11</title>
<path fill="none" stroke="#191970" d="M640.1953,-168.1867C640.9967,-154.0242 644.499,-127.8229 659,-112 690.853,-77.2434 823.0362,-37.4847 887.8475,-19.6002"/>
<polygon fill="#191970" stroke="#191970" points="888.9221,-22.9349 897.6452,-16.9217 887.0761,-16.1827 888.9221,-22.9349"/>
</g>
<!-- Node20&#45;&gt;Node19 -->
<g id="edge28" class="edge">
<title>Node20&#45;&gt;Node19</title>
<path fill="none" stroke="#191970" d="M718.4967,-168.4941C793.2221,-159.3787 908.8198,-145.1055 1009,-132 1022.3775,-130.25 1037.1229,-128.2446 1049.8384,-126.4913"/>
<polygon fill="#191970" stroke="#191970" points="1050.5419,-129.9274 1059.9674,-125.0889 1049.5818,-122.9935 1050.5419,-129.9274"/>
</g>
<!-- Node20&#45;&gt;Node21 -->
<g id="edge24" class="edge">
<title>Node20&#45;&gt;Node21</title>
<path fill="none" stroke="#191970" d="M624.4113,-168.3565C600.8649,-154.1673 554.4593,-127.6576 512,-112 470.1561,-96.5693 421.3321,-85.093 382.8815,-77.4626"/>
<polygon fill="#191970" stroke="#191970" points="383.3186,-73.9821 372.8344,-75.509 381.9825,-80.8534 383.3186,-73.9821"/>
</g>
<!-- Node23 -->
<g id="node24" class="node">
<title>Node23</title>
<polygon fill="none" stroke="#bfbfbf" points="668,-112.5 668,-131.5 724,-131.5 724,-112.5 668,-112.5"/>
<text text-anchor="middle" x="696" y="-119.5" font-family="FreeSans.ttf" font-size="10.00" fill="#000000">sstream</text>
</g>
<!-- Node20&#45;&gt;Node23 -->
<g id="edge29" class="edge">
<title>Node20&#45;&gt;Node23</title>
<path fill="none" stroke="#191970" d="M649.7545,-168.2455C657.8648,-160.1352 669.5925,-148.4075 679.2081,-138.7919"/>
<polygon fill="#191970" stroke="#191970" points="681.7611,-141.1887 686.3573,-131.6427 676.8113,-136.2389 681.7611,-141.1887"/>
</g>
<!-- Node24 -->
<g id="node25" class="node">
<title>Node24</title>
<polygon fill="none" stroke="#bfbfbf" points="742,-112.5 742,-131.5 792,-131.5 792,-112.5 742,-112.5"/>
<text text-anchor="middle" x="767" y="-119.5" font-family="FreeSans.ttf" font-size="10.00" fill="#000000">cstring</text>
</g>
<!-- Node20&#45;&gt;Node24 -->
<g id="edge31" class="edge">
<title>Node20&#45;&gt;Node24</title>
<path fill="none" stroke="#191970" d="M661.8321,-168.3733C682.3103,-159.3435 713.1399,-145.7494 736.1319,-135.6111"/>
<polygon fill="#191970" stroke="#191970" points="737.715,-138.7383 745.4528,-131.5011 734.8907,-132.3333 737.715,-138.7383"/>
</g>
<!-- Node21&#45;&gt;Node6 -->
<g id="edge25" class="edge">
<title>Node21&#45;&gt;Node6</title>
<path fill="none" stroke="#191970" d="M316.5226,-56.2455C316.914,-48.9382 317.4628,-38.6944 317.9444,-29.7046"/>
<polygon fill="#191970" stroke="#191970" points="321.4434,-29.8156 318.4834,-19.6427 314.4534,-29.4411 321.4434,-29.8156"/>
</g>
<!-- Node22 -->
<g id="node23" class="node">
<title>Node22</title>
<polygon fill="none" stroke="#bfbfbf" points="194,-.5 194,-19.5 274,-19.5 274,-.5 194,-.5"/>
<text text-anchor="middle" x="234" y="-7.5" font-family="FreeSans.ttf" font-size="10.00" fill="#000000">CoreExport.h</text>
</g>
<!-- Node21&#45;&gt;Node22 -->
<g id="edge26" class="edge">
<title>Node21&#45;&gt;Node22</title>
<path fill="none" stroke="#191970" d="M301.7167,-56.2455C289.253,-47.7337 270.9549,-35.2375 256.5208,-25.3801"/>
<polygon fill="#191970" stroke="#191970" points="258.3515,-22.392 248.1196,-19.6427 254.4038,-28.1726 258.3515,-22.392"/>
</g>
<!-- Node25&#45;&gt;Node19 -->
<g id="edge33" class="edge">
<title>Node25&#45;&gt;Node19</title>
<path fill="none" stroke="#191970" d="M1313.134,-280.3633C1316.8812,-267.2933 1321.9475,-243.3567 1316,-224 1307.1659,-195.2485 1302.781,-185.0468 1278,-168 1251.6412,-149.8678 1162.751,-134.1451 1114.2421,-126.6583"/>
<polygon fill="#191970" stroke="#191970" points="1114.6683,-123.183 1104.2569,-125.1455 1113.6198,-130.104 1114.6683,-123.183"/>
</g>
<!-- Node26 -->
<g id="node27" class="node">
<title>Node26</title>
<g id="a_node27"><a xlink:href="MatrixView_8h.html" target="_top" xlink:title="iDynTree/Core/MatrixView.h">
<polygon fill="none" stroke="#000000" points="848.5,-112.5 848.5,-131.5 999.5,-131.5 999.5,-112.5 848.5,-112.5"/>
<text text-anchor="middle" x="924" y="-119.5" font-family="FreeSans.ttf" font-size="10.00" fill="#000000">iDynTree/Core/MatrixView.h</text>
</a>
</g>
</g>
<!-- Node25&#45;&gt;Node26 -->
<g id="edge34" class="edge">
<title>Node25&#45;&gt;Node26</title>
<path fill="none" stroke="#191970" d="M1296.1778,-280.3234C1276.1068,-266.562 1237.4159,-241.1123 1202,-224 1121.1639,-184.9415 1021.2508,-151.7069 965.903,-134.5257"/>
<polygon fill="#191970" stroke="#191970" points="966.6888,-131.1056 956.1016,-131.5067 964.6282,-137.7954 966.6888,-131.1056"/>
</g>
<!-- Node26&#45;&gt;Node10 -->
<g id="edge37" class="edge">
<title>Node26&#45;&gt;Node10</title>
<path fill="none" stroke="#191970" d="M869.0121,-112.4369C812.9781,-102.6918 726.1034,-87.5832 666.7707,-77.2645"/>
<polygon fill="#191970" stroke="#191970" points="667.2129,-73.7889 656.7611,-75.5237 666.0135,-80.6854 667.2129,-73.7889"/>
</g>
<!-- Node26&#45;&gt;Node11 -->
<g id="edge35" class="edge">
<title>Node26&#45;&gt;Node11</title>
<path fill="none" stroke="#191970" d="M924,-112.4509C924,-94.184 924,-53.9553 924,-29.6976"/>
<polygon fill="#191970" stroke="#191970" points="927.5001,-29.5249 924,-19.5249 920.5001,-29.5249 927.5001,-29.5249"/>
</g>
<!-- Node26&#45;&gt;Node17 -->
<g id="edge36" class="edge">
<title>Node26&#45;&gt;Node17</title>
<path fill="none" stroke="#191970" d="M848.134,-113.8378C738.6549,-101.9489 547.7798,-80.7629 533,-76 496.4746,-64.2295 458.39,-40.8235 435.4307,-25.287"/>
<polygon fill="#191970" stroke="#191970" points="437.3458,-22.3562 427.1262,-19.5615 433.3725,-28.1192 437.3458,-22.3562"/>
</g>
<!-- Node26&#45;&gt;Node21 -->
<g id="edge38" class="edge">
<title>Node26&#45;&gt;Node21</title>
<path fill="none" stroke="#191970" d="M848.3907,-113.4764C843.522,-112.9655 838.693,-112.469 834,-112 673.9162,-96.0005 485.7136,-79.9869 386.1002,-71.7308"/>
<polygon fill="#191970" stroke="#191970" points="386.117,-68.2204 375.8625,-70.8838 385.5398,-75.1965 386.117,-68.2204"/>
</g>
<!-- Node27&#45;&gt;Node11 -->
<g id="edge42" class="edge">
<title>Node27&#45;&gt;Node11</title>
<path fill="none" stroke="#191970" d="M900.6076,-168.4919C945.3194,-161.2423 995.3132,-149.4841 1009,-132 1037.9217,-95.0542 982.9276,-49.0721 948.5977,-25.509"/>
<polygon fill="#191970" stroke="#191970" points="950.2256,-22.3878 939.964,-19.7516 946.3419,-28.2117 950.2256,-22.3878"/>
</g>
<!-- Node27&#45;&gt;Node19 -->
<g id="edge44" class="edge">
<title>Node27&#45;&gt;Node19</title>
<path fill="none" stroke="#191970" d="M870.9627,-168.4707C915.4087,-159.511 983.3131,-145.4942 1042,-132 1044.5027,-131.4245 1047.0895,-130.814 1049.6876,-130.1895"/>
<polygon fill="#191970" stroke="#191970" points="1050.7322,-133.5371 1059.611,-127.7563 1049.0651,-126.7385 1050.7322,-133.5371"/>
</g>
<!-- Node27&#45;&gt;Node21 -->
<g id="edge40" class="edge">
<title>Node27&#45;&gt;Node21</title>
<path fill="none" stroke="#191970" d="M822.8609,-168.0735C822.0664,-153.2683 818.2055,-125.6817 801,-112 792.9653,-105.6109 518.046,-82.4459 385.7604,-71.6324"/>
<polygon fill="#191970" stroke="#191970" points="385.9707,-68.138 375.7191,-70.8129 385.4013,-75.1148 385.9707,-68.138"/>
</g>
<!-- Node27&#45;&gt;Node23 -->
<g id="edge46" class="edge">
<title>Node27&#45;&gt;Node23</title>
<path fill="none" stroke="#191970" d="M801.1679,-168.3733C780.6897,-159.3435 749.8601,-145.7494 726.8681,-135.6111"/>
<polygon fill="#191970" stroke="#191970" points="728.1093,-132.3333 717.5472,-131.5011 725.285,-138.7383 728.1093,-132.3333"/>
</g>
<!-- Node27&#45;&gt;Node24 -->
<g id="edge43" class="edge">
<title>Node27&#45;&gt;Node24</title>
<path fill="none" stroke="#191970" d="M813.2455,-168.2455C805.1352,-160.1352 793.4075,-148.4075 783.7919,-138.7919"/>
<polygon fill="#191970" stroke="#191970" points="786.1887,-136.2389 776.6427,-131.6427 781.2389,-141.1887 786.1887,-136.2389"/>
</g>
<!-- Node27&#45;&gt;Node26 -->
<g id="edge41" class="edge">
<title>Node27&#45;&gt;Node26</title>
<path fill="none" stroke="#191970" d="M840.5929,-168.2455C856.379,-159.4928 879.7639,-146.527 897.7587,-136.5496"/>
<polygon fill="#191970" stroke="#191970" points="899.5603,-139.5528 906.6087,-131.6427 896.1659,-133.4308 899.5603,-139.5528"/>
</g>
<!-- Node28 -->
<g id="node29" class="node">
<title>Node28</title>
<polygon fill="none" stroke="#bfbfbf" points="443,-112.5 443,-131.5 503,-131.5 503,-112.5 443,-112.5"/>
<text text-anchor="middle" x="473" y="-119.5" font-family="FreeSans.ttf" font-size="10.00" fill="#000000">iostream</text>
</g>
<!-- Node27&#45;&gt;Node28 -->
<g id="edge45" class="edge">
<title>Node27&#45;&gt;Node28</title>
<path fill="none" stroke="#191970" d="M763.2305,-168.4369C691.9884,-157.0381 574.881,-138.301 513.467,-128.4747"/>
<polygon fill="#191970" stroke="#191970" points="513.8146,-124.9859 503.3872,-126.862 512.7086,-131.898 513.8146,-124.9859"/>
</g>
<!-- Node29&#45;&gt;Node20 -->
<g id="edge48" class="edge">
<title>Node29&#45;&gt;Node20</title>
<path fill="none" stroke="#191970" d="M514.7083,-448.4528C454.7911,-409.5409 309.4824,-303.1099 376,-224 398.0001,-197.8351 481.7379,-186.5516 549.0831,-181.6864"/>
<polygon fill="#191970" stroke="#191970" points="549.5765,-185.1609 559.3143,-180.9867 549.0988,-178.1772 549.5765,-185.1609"/>
</g>
<!-- Node30 -->
<g id="node31" class="node">
<title>Node30</title>
<g id="a_node31"><a xlink:href="GeomVector3_8h.html" target="_top" xlink:title="iDynTree/Core/GeomVector3.h">
<polygon fill="none" stroke="#000000" points="532.5,-224.5 532.5,-243.5 695.5,-243.5 695.5,-224.5 532.5,-224.5"/>
<text text-anchor="middle" x="614" y="-231.5" font-family="FreeSans.ttf" font-size="10.00" fill="#000000">iDynTree/Core/GeomVector3.h</text>
</a>
</g>
</g>
<!-- Node29&#45;&gt;Node30 -->
<g id="edge49" class="edge">
<title>Node29&#45;&gt;Node30</title>
<path fill="none" stroke="#191970" d="M515.6339,-448.3815C498.0488,-434.917 478.2094,-413.9929 486,-392 507.5493,-331.1667 563.5956,-276.644 593.8804,-250.4412"/>
<polygon fill="#191970" stroke="#191970" points="596.3255,-252.9569 601.689,-243.82 591.7983,-247.6178 596.3255,-252.9569"/>
</g>
<!-- Node31 -->
<g id="node32" class="node">
<title>Node31</title>
<g id="a_node32"><a xlink:href="SpatialVector_8h.html" target="_top" xlink:title="iDynTree/Core/SpatialVector.h">
<polygon fill="none" stroke="#000000" points="495.5,-392.5 495.5,-411.5 656.5,-411.5 656.5,-392.5 495.5,-392.5"/>
<text text-anchor="middle" x="576" y="-399.5" font-family="FreeSans.ttf" font-size="10.00" fill="#000000">iDynTree/Core/SpatialVector.h</text>
</a>
</g>
</g>
<!-- Node29&#45;&gt;Node31 -->
<g id="edge51" class="edge">
<title>Node29&#45;&gt;Node31</title>
<path fill="none" stroke="#191970" d="M548.1461,-448.2977C553.1751,-439.9388 559.4555,-429.4997 564.7791,-420.6509"/>
<polygon fill="#191970" stroke="#191970" points="567.9197,-422.2201 570.0758,-411.8469 561.9215,-418.6114 567.9197,-422.2201"/>
</g>
<!-- Node30&#45;&gt;Node20 -->
<g id="edge50" class="edge">
<title>Node30&#45;&gt;Node20</title>
<path fill="none" stroke="#191970" d="M618.5289,-224.2455C622.0334,-216.6973 626.9927,-206.0158 631.2623,-196.8197"/>
<polygon fill="#191970" stroke="#191970" points="634.4864,-198.1867 635.523,-187.6427 628.1373,-195.2389 634.4864,-198.1867"/>
</g>
<!-- Node31&#45;&gt;Node21 -->
<g id="edge65" class="edge">
<title>Node31&#45;&gt;Node21</title>
<path fill="none" stroke="#191970" d="M530.9606,-392.4707C456.0509,-375.3107 314,-336.6235 314,-290 314,-290 314,-290 314,-178 314,-145.7064 314.8415,-108.1836 315.4328,-85.8029"/>
<polygon fill="#191970" stroke="#191970" points="318.9374,-85.6797 315.7134,-75.5873 311.9401,-85.4874 318.9374,-85.6797"/>
</g>
<!-- Node31&#45;&gt;Node23 -->
<g id="edge68" class="edge">
<title>Node31&#45;&gt;Node23</title>
<path fill="none" stroke="#191970" d="M569.628,-392.4585C552.7346,-365.9886 509.084,-289.2821 524,-224 530.1546,-197.0635 530.1248,-186.102 551,-168 581.0269,-141.9622 625.8579,-130.6409 657.7118,-125.7318"/>
<polygon fill="#191970" stroke="#191970" points="658.5559,-129.148 667.9769,-124.3008 657.5894,-122.2151 658.5559,-129.148"/>
</g>
<!-- Node31&#45;&gt;Node28 -->
<g id="edge67" class="edge">
<title>Node31&#45;&gt;Node28</title>
<path fill="none" stroke="#191970" d="M562.9086,-392.3833C552.1789,-383.8877 537.2974,-370.6051 528,-356 483.6589,-286.3451 475.0046,-184.5797 473.3608,-141.9483"/>
<polygon fill="#191970" stroke="#191970" points="476.8544,-141.6773 473.0633,-131.784 469.8574,-141.8821 476.8544,-141.6773"/>
</g>
<!-- Node31&#45;&gt;Node30 -->
<g id="edge66" class="edge">
<title>Node31&#45;&gt;Node30</title>
<path fill="none" stroke="#191970" d="M578.1519,-392.4862C584.1848,-365.8144 601.3533,-289.9117 609.5452,-253.695"/>
<polygon fill="#191970" stroke="#191970" points="612.9845,-254.3537 611.777,-243.8279 606.157,-252.8093 612.9845,-254.3537"/>
</g>
<!-- Node32 -->
<g id="node33" class="node">
<title>Node32</title>
<g id="a_node33"><a xlink:href="Position_8h.html" target="_top" xlink:title="Position.h">
<polygon fill="none" stroke="#000000" points="998.5,-336.5 998.5,-355.5 1063.5,-355.5 1063.5,-336.5 998.5,-336.5"/>
<text text-anchor="middle" x="1031" y="-343.5" font-family="FreeSans.ttf" font-size="10.00" fill="#000000">Position.h</text>
</a>
</g>
</g>
<!-- Node31&#45;&gt;Node32 -->
<g id="edge52" class="edge">
<title>Node31&#45;&gt;Node32</title>
<path fill="none" stroke="#191970" d="M653.4423,-392.4686C749.9922,-380.5856 911.6306,-360.6916 988.2381,-351.263"/>
<polygon fill="#191970" stroke="#191970" points="988.9702,-354.6994 998.4678,-350.004 988.1151,-347.7518 988.9702,-354.6994"/>
</g>
<!-- Node34 -->
<g id="node35" class="node">
<title>Node34</title>
<g id="a_node35"><a xlink:href="Rotation_8h.html" target="_top" xlink:title="iDynTree/Core/Rotation.h">
<polygon fill="none" stroke="#000000" points="800.5,-280.5 800.5,-299.5 937.5,-299.5 937.5,-280.5 800.5,-280.5"/>
<text text-anchor="middle" x="869" y="-287.5" font-family="FreeSans.ttf" font-size="10.00" fill="#000000">iDynTree/Core/Rotation.h</text>
</a>
</g>
</g>
<!-- Node31&#45;&gt;Node34 -->
<g id="edge64" class="edge">
<title>Node31&#45;&gt;Node34</title>
<path fill="none" stroke="#191970" d="M600.981,-392.4509C653.4178,-372.4069 775.0303,-325.9202 834.713,-303.1063"/>
<polygon fill="#191970" stroke="#191970" points="835.9911,-306.3648 844.0822,-299.5249 833.4917,-299.8262 835.9911,-306.3648"/>
</g>
<!-- Node32&#45;&gt;Node19 -->
<g id="edge63" class="edge">
<title>Node32&#45;&gt;Node19</title>
<path fill="none" stroke="#191970" d="M1055.2522,-336.4281C1088.0519,-321.9927 1145.1854,-291.2157 1169,-244 1189.8816,-202.5993 1139.5097,-159.7071 1106.9831,-137.4704"/>
<polygon fill="#191970" stroke="#191970" points="1108.6278,-134.3619 1098.3562,-131.7647 1104.7662,-140.2005 1108.6278,-134.3619"/>
</g>
<!-- Node33 -->
<g id="node34" class="node">
<title>Node33</title>
<g id="a_node34"><a xlink:href="PositionRaw_8h.html" target="_top" xlink:title="iDynTree/Core/PositionRaw.h">
<polygon fill="none" stroke="#000000" points="1004,-224.5 1004,-243.5 1160,-243.5 1160,-224.5 1004,-224.5"/>
<text text-anchor="middle" x="1082" y="-231.5" font-family="FreeSans.ttf" font-size="10.00" fill="#000000">iDynTree/Core/PositionRaw.h</text>
</a>
</g>
</g>
<!-- Node32&#45;&gt;Node33 -->
<g id="edge53" class="edge">
<title>Node32&#45;&gt;Node33</title>
<path fill="none" stroke="#191970" d="M1035.3482,-336.4509C1043.7791,-317.936 1062.4838,-276.8591 1073.4763,-252.7187"/>
<polygon fill="#191970" stroke="#191970" points="1076.7039,-254.0762 1077.6628,-243.5249 1070.3333,-251.1753 1076.7039,-254.0762"/>
</g>
<!-- Node32&#45;&gt;Node34 -->
<g id="edge56" class="edge">
<title>Node32&#45;&gt;Node34</title>
<path fill="none" stroke="#191970" d="M1003.1512,-336.3733C976.3297,-327.1016 935.5873,-313.0178 906.0402,-302.804"/>
<polygon fill="#191970" stroke="#191970" points="907.0802,-299.4603 896.4854,-299.5011 904.7931,-306.0762 907.0802,-299.4603"/>
</g>
<!-- Node33&#45;&gt;Node19 -->
<g id="edge55" class="edge">
<title>Node33&#45;&gt;Node19</title>
<path fill="none" stroke="#191970" d="M1082,-224.4509C1082,-206.184 1082,-165.9553 1082,-141.6976"/>
<polygon fill="#191970" stroke="#191970" points="1085.5001,-141.5249 1082,-131.5249 1078.5001,-141.5249 1085.5001,-141.5249"/>
</g>
<!-- Node33&#45;&gt;Node20 -->
<g id="edge54" class="edge">
<title>Node33&#45;&gt;Node20</title>
<path fill="none" stroke="#191970" d="M1006.7704,-224.4686C928.7836,-214.588 807.0817,-199.1687 725.4991,-188.8325"/>
<polygon fill="#191970" stroke="#191970" points="725.6187,-185.3197 715.258,-187.535 724.7388,-192.2642 725.6187,-185.3197"/>
</g>
<!-- Node34&#45;&gt;Node19 -->
<g id="edge57" class="edge">
<title>Node34&#45;&gt;Node19</title>
<path fill="none" stroke="#191970" d="M891.7435,-280.3446C910.161,-272.013 936.3459,-258.979 957,-244 1001.3307,-211.8501 1045.3195,-164.3499 1067.3894,-139.1541"/>
<polygon fill="#191970" stroke="#191970" points="1070.1011,-141.3693 1074.0025,-131.5189 1064.8099,-136.7863 1070.1011,-141.3693"/>
</g>
<!-- Node34&#45;&gt;Node20 -->
<g id="edge62" class="edge">
<title>Node34&#45;&gt;Node20</title>
<path fill="none" stroke="#191970" d="M850.4247,-280.4368C825.1083,-267.4501 778.3046,-243.6076 738,-224 715.3004,-212.957 689.4446,-200.8397 669.9925,-191.815"/>
<polygon fill="#191970" stroke="#191970" points="671.2728,-188.5509 660.7277,-187.5258 668.3319,-194.9032 671.2728,-188.5509"/>
</g>
<!-- Node34&#45;&gt;Node30 -->
<g id="edge58" class="edge">
<title>Node34&#45;&gt;Node30</title>
<path fill="none" stroke="#191970" d="M825.4537,-280.4369C781.7207,-270.8328 714.2655,-256.0191 667.3458,-245.7152"/>
<polygon fill="#191970" stroke="#191970" points="667.8847,-242.2502 657.3667,-243.5237 666.3832,-249.0872 667.8847,-242.2502"/>
</g>
<!-- Node35 -->
<g id="node36" class="node">
<title>Node35</title>
<g id="a_node36"><a xlink:href="RotationRaw_8h.html" target="_top" xlink:title="iDynTree/Core/RotationRaw.h">
<polygon fill="none" stroke="#000000" points="790,-224.5 790,-243.5 948,-243.5 948,-224.5 790,-224.5"/>
<text text-anchor="middle" x="869" y="-231.5" font-family="FreeSans.ttf" font-size="10.00" fill="#000000">iDynTree/Core/RotationRaw.h</text>
</a>
</g>
</g>
<!-- Node34&#45;&gt;Node35 -->
<g id="edge59" class="edge">
<title>Node34&#45;&gt;Node35</title>
<path fill="none" stroke="#191970" d="M869,-280.2455C869,-272.9382 869,-262.6944 869,-253.7046"/>
<polygon fill="#191970" stroke="#191970" points="872.5001,-253.6426 869,-243.6427 865.5001,-253.6427 872.5001,-253.6426"/>
</g>
<!-- Node35&#45;&gt;Node19 -->
<g id="edge61" class="edge">
<title>Node35&#45;&gt;Node19</title>
<path fill="none" stroke="#191970" d="M880.4162,-224.4511C897.3685,-210.618 930.5833,-184.8229 962,-168 990.5241,-152.726 1025.2397,-139.9954 1049.9786,-131.8281"/>
<polygon fill="#191970" stroke="#191970" points="1051.1565,-135.1257 1059.5935,-128.7174 1049.0017,-128.4656 1051.1565,-135.1257"/>
</g>
<!-- Node35&#45;&gt;Node27 -->
<g id="edge60" class="edge">
<title>Node35&#45;&gt;Node27</title>
<path fill="none" stroke="#191970" d="M860.9874,-224.2455C854.5232,-216.3761 845.2615,-205.101 837.5017,-195.6542"/>
<polygon fill="#191970" stroke="#191970" points="839.9727,-193.1484 830.9208,-187.6427 834.5636,-197.5916 839.9727,-193.1484"/>
</g>
<!-- Node36&#45;&gt;Node20 -->
<g id="edge70" class="edge">
<title>Node36&#45;&gt;Node20</title>
<path fill="none" stroke="#191970" d="M716.1207,-448.325C719.0562,-425.9708 724,-382.8515 724,-346 724,-346 724,-346 724,-290 724,-259.4754 722.6765,-248.8856 705,-224 695.7877,-211.0307 681.7243,-200.4266 669.0321,-192.6817"/>
<polygon fill="#191970" stroke="#191970" points="670.5347,-189.5083 660.1215,-187.5547 667.0436,-195.5757 670.5347,-189.5083"/>
</g>
<!-- Node36&#45;&gt;Node30 -->
<g id="edge71" class="edge">
<title>Node36&#45;&gt;Node30</title>
<path fill="none" stroke="#191970" d="M707.4387,-448.4419C689.8998,-408.1901 641.9415,-298.1259 622.4274,-253.3409"/>
<polygon fill="#191970" stroke="#191970" points="625.5162,-251.6675 618.3129,-243.8981 619.0989,-254.4638 625.5162,-251.6675"/>
</g>
<!-- Node36&#45;&gt;Node31 -->
<g id="edge72" class="edge">
<title>Node36&#45;&gt;Node31</title>
<path fill="none" stroke="#191970" d="M680.2414,-448.4554C657.7207,-438.419 628.3533,-425.3314 606.5308,-415.6061"/>
<polygon fill="#191970" stroke="#191970" points="607.9439,-412.4041 597.3851,-411.5303 605.0944,-418.7979 607.9439,-412.4041"/>
</g>
<!-- Node37&#45;&gt;Node19 -->
<g id="edge77" class="edge">
<title>Node37&#45;&gt;Node19</title>
<path fill="none" stroke="#191970" d="M1066.8662,-392.4806C1087.9961,-385.3471 1114.0222,-373.7169 1132,-356 1171.2238,-317.3454 1172.9286,-297.7306 1185,-244 1192.6089,-210.132 1189.1725,-194.708 1167,-168 1159.4251,-158.8756 1134.3009,-145.8031 1113.3166,-135.9243"/>
<polygon fill="#191970" stroke="#191970" points="1114.5899,-132.657 1104.0444,-131.6357 1111.6514,-139.0104 1114.5899,-132.657"/>
</g>
<!-- Node37&#45;&gt;Node27 -->
<g id="edge76" class="edge">
<title>Node37&#45;&gt;Node27</title>
<path fill="none" stroke="#191970" d="M1048.6914,-392.4203C1096.7916,-365.2141 1222.845,-285.4774 1169,-224 1152.3463,-204.9857 1010.4316,-191.217 913.6051,-183.9329"/>
<polygon fill="#191970" stroke="#191970" points="913.7336,-180.4329 903.5022,-183.184 913.2161,-187.4138 913.7336,-180.4329"/>
</g>
<!-- Node37&#45;&gt;Node32 -->
<g id="edge74" class="edge">
<title>Node37&#45;&gt;Node32</title>
<path fill="none" stroke="#191970" d="M1031,-392.2455C1031,-384.9382 1031,-374.6944 1031,-365.7046"/>
<polygon fill="#191970" stroke="#191970" points="1034.5001,-365.6426 1031,-355.6427 1027.5001,-365.6427 1034.5001,-365.6426"/>
</g>
<!-- Node37&#45;&gt;Node34 -->
<g id="edge75" class="edge">
<title>Node37&#45;&gt;Node34</title>
<path fill="none" stroke="#191970" d="M1017.188,-392.4509C989.0923,-373.0268 925.0785,-328.7703 891.1152,-305.2895"/>
<polygon fill="#191970" stroke="#191970" points="892.9931,-302.3328 882.7771,-299.5249 889.0123,-308.0907 892.9931,-302.3328"/>
</g>
</g>
</svg>
