<?xml version="1.0" encoding="UTF-8" standalone="no"?>
<!DOCTYPE svg PUBLIC "-//W3C//DTD SVG 1.1//EN"
 "http://www.w3.org/Graphics/SVG/1.1/DTD/svg11.dtd">
<!-- Generated by graphviz version 2.40.1 (20161225.0304)
 -->
<!-- Title: AlglibInterfaceNotImplemented.cpp Pages: 1 -->
<svg width="354pt" height="263pt"
 viewBox="0.00 0.00 354.00 263.00" xmlns="http://www.w3.org/2000/svg" xmlns:xlink="http://www.w3.org/1999/xlink">
<g id="graph0" class="graph" transform="scale(1 1) rotate(0) translate(4 259)">
<title>AlglibInterfaceNotImplemented.cpp</title>
<!-- Node0 -->
<g id="node1" class="node">
<title>Node0</title>
<polygon fill="#bfbfbf" stroke="#000000" points="84.5,-235.5 84.5,-254.5 275.5,-254.5 275.5,-235.5 84.5,-235.5"/>
<text text-anchor="middle" x="180" y="-242.5" font-family="FreeSans.ttf" font-size="10.00" fill="#000000">AlglibInterfaceNotImplemented.cpp</text>
</g>
<!-- Node1 -->
<g id="node2" class="node">
<title>Node1</title>
<g id="a_node2"><a xlink:href="AlglibInterface_8h.html" target="_top" xlink:title="iDynTree/Optimizers\l/AlglibInterface.h">
<polygon fill="none" stroke="#000000" points="54,-168.5 54,-198.5 170,-198.5 170,-168.5 54,-168.5"/>
<text text-anchor="start" x="62" y="-186.5" font-family="FreeSans.ttf" font-size="10.00" fill="#000000">iDynTree/Optimizers</text>
<text text-anchor="middle" x="112" y="-175.5" font-family="FreeSans.ttf" font-size="10.00" fill="#000000">/AlglibInterface.h</text>
</a>
</g>
</g>
<!-- Node0&#45;&gt;Node1 -->
<g id="edge1" class="edge">
<title>Node0&#45;&gt;Node1</title>
<path fill="none" stroke="#191970" d="M169.375,-235.3906C160.5129,-227.3756 147.5442,-215.6466 136.1777,-205.3666"/>
<polygon fill="#191970" stroke="#191970" points="138.3991,-202.6565 128.6347,-198.5446 133.7036,-207.8482 138.3991,-202.6565"/>
</g>
<!-- Node7 -->
<g id="node8" class="node">
<title>Node7</title>
<g id="a_node8"><a xlink:href="Utils_8h.html" target="_top" xlink:title="iDynTree/Core/Utils.h">
<polygon fill="none" stroke="#000000" points="188.5,-174 188.5,-193 307.5,-193 307.5,-174 188.5,-174"/>
<text text-anchor="middle" x="248" y="-181" font-family="FreeSans.ttf" font-size="10.00" fill="#000000">iDynTree/Core/Utils.h</text>
</a>
</g>
</g>
<!-- Node0&#45;&gt;Node7 -->
<g id="edge8" class="edge">
<title>Node0&#45;&gt;Node7</title>
<path fill="none" stroke="#191970" d="M190.625,-235.3906C201.0431,-225.9683 217.1364,-211.4134 229.6304,-200.1137"/>
<polygon fill="#191970" stroke="#191970" points="232.1562,-202.5484 237.2252,-193.2449 227.4608,-197.3568 232.1562,-202.5484"/>
</g>
<!-- Node2 -->
<g id="node3" class="node">
<title>Node2</title>
<g id="a_node3"><a xlink:href="Optimizer_8h.html" target="_top" xlink:title="iDynTree/Optimizer.h">
<polygon fill="none" stroke="#000000" points="52.5,-112.5 52.5,-131.5 171.5,-131.5 171.5,-112.5 52.5,-112.5"/>
<text text-anchor="middle" x="112" y="-119.5" font-family="FreeSans.ttf" font-size="10.00" fill="#000000">iDynTree/Optimizer.h</text>
</a>
</g>
</g>
<!-- Node1&#45;&gt;Node2 -->
<g id="edge2" class="edge">
<title>Node1&#45;&gt;Node2</title>
<path fill="none" stroke="#191970" d="M112,-168.2977C112,-160.3834 112,-150.6043 112,-142.0759"/>
<polygon fill="#191970" stroke="#191970" points="115.5001,-141.8469 112,-131.8469 108.5001,-141.847 115.5001,-141.8469"/>
</g>
<!-- Node3 -->
<g id="node4" class="node">
<title>Node3</title>
<polygon fill="none" stroke="#bfbfbf" points="0,-.5 0,-19.5 58,-19.5 58,-.5 0,-.5"/>
<text text-anchor="middle" x="29" y="-7.5" font-family="FreeSans.ttf" font-size="10.00" fill="#000000">memory</text>
</g>
<!-- Node2&#45;&gt;Node3 -->
<g id="edge3" class="edge">
<title>Node2&#45;&gt;Node3</title>
<path fill="none" stroke="#191970" d="M75.1816,-112.3966C56.6862,-105.5069 35.9327,-94.1473 25,-76 16.6799,-62.1894 18.6935,-43.6663 22.206,-29.7588"/>
<polygon fill="#191970" stroke="#191970" points="25.6799,-30.3559 25.1757,-19.773 18.9703,-28.3605 25.6799,-30.3559"/>
</g>
<!-- Node4 -->
<g id="node5" class="node">
<title>Node4</title>
<g id="a_node5"><a xlink:href="OptimizationProblem_8h.html" target="_top" xlink:title="iDynTree/OptimizationProblem.h">
<polygon fill="none" stroke="#000000" points="34.5,-56.5 34.5,-75.5 209.5,-75.5 209.5,-56.5 34.5,-56.5"/>
<text text-anchor="middle" x="122" y="-63.5" font-family="FreeSans.ttf" font-size="10.00" fill="#000000">iDynTree/OptimizationProblem.h</text>
</a>
</g>
</g>
<!-- Node2&#45;&gt;Node4 -->
<g id="edge4" class="edge">
<title>Node2&#45;&gt;Node4</title>
<path fill="none" stroke="#191970" d="M113.7419,-112.2455C115.0467,-104.9382 116.876,-94.6944 118.4813,-85.7046"/>
<polygon fill="#191970" stroke="#191970" points="121.9656,-86.1022 120.2781,-75.6427 115.0746,-84.8717 121.9656,-86.1022"/>
</g>
<!-- Node4&#45;&gt;Node3 -->
<g id="edge6" class="edge">
<title>Node4&#45;&gt;Node3</title>
<path fill="none" stroke="#191970" d="M105.8006,-56.2455C91.3982,-47.5731 70.1268,-34.7645 53.6201,-24.825"/>
<polygon fill="#191970" stroke="#191970" points="55.386,-21.8028 45.0137,-19.6427 51.775,-27.7996 55.386,-21.8028"/>
</g>
<!-- Node5 -->
<g id="node6" class="node">
<title>Node5</title>
<polygon fill="none" stroke="#bfbfbf" points="98.5,-.5 98.5,-19.5 145.5,-19.5 145.5,-.5 98.5,-.5"/>
<text text-anchor="middle" x="122" y="-7.5" font-family="FreeSans.ttf" font-size="10.00" fill="#000000">vector</text>
</g>
<!-- Node4&#45;&gt;Node5 -->
<g id="edge5" class="edge">
<title>Node4&#45;&gt;Node5</title>
<path fill="none" stroke="#191970" d="M122,-56.2455C122,-48.9382 122,-38.6944 122,-29.7046"/>
<polygon fill="#191970" stroke="#191970" points="125.5001,-29.6426 122,-19.6427 118.5001,-29.6427 125.5001,-29.6426"/>
</g>
<!-- Node6 -->
<g id="node7" class="node">
<title>Node6</title>
<polygon fill="none" stroke="#bfbfbf" points="187.5,-.5 187.5,-19.5 240.5,-19.5 240.5,-.5 187.5,-.5"/>
<text text-anchor="middle" x="214" y="-7.5" font-family="FreeSans.ttf" font-size="10.00" fill="#000000">cstddef</text>
</g>
<!-- Node4&#45;&gt;Node6 -->
<g id="edge7" class="edge">
<title>Node4&#45;&gt;Node6</title>
<path fill="none" stroke="#191970" d="M138.0252,-56.2455C152.1408,-47.6534 172.9263,-35.0014 189.1899,-25.1018"/>
<polygon fill="#191970" stroke="#191970" points="191.4363,-27.8319 198.1585,-19.6427 187.7966,-21.8525 191.4363,-27.8319"/>
</g>
<!-- Node7&#45;&gt;Node6 -->
<g id="edge9" class="edge">
<title>Node7&#45;&gt;Node6</title>
<path fill="none" stroke="#191970" d="M246.1236,-173.9248C240.7491,-146.499 225.2155,-67.232 217.899,-29.8964"/>
<polygon fill="#191970" stroke="#191970" points="221.2704,-28.8998 215.9125,-19.7595 214.401,-30.246 221.2704,-28.8998"/>
</g>
<!-- Node8 -->
<g id="node9" class="node">
<title>Node8</title>
<polygon fill="none" stroke="#bfbfbf" points="266,-112.5 266,-131.5 346,-131.5 346,-112.5 266,-112.5"/>
<text text-anchor="middle" x="306" y="-119.5" font-family="FreeSans.ttf" font-size="10.00" fill="#000000">CoreExport.h</text>
</g>
<!-- Node7&#45;&gt;Node8 -->
<g id="edge10" class="edge">
<title>Node7&#45;&gt;Node8</title>
<path fill="none" stroke="#191970" d="M257.0625,-173.8906C265.7793,-164.6478 279.154,-150.466 289.7196,-139.2628"/>
<polygon fill="#191970" stroke="#191970" points="292.495,-141.4213 296.8097,-131.7449 287.4024,-136.6186 292.495,-141.4213"/>
</g>
</g>
</svg>
