<?xml version="1.0" encoding="UTF-8" standalone="no"?>
<!DOCTYPE svg PUBLIC "-//W3C//DTD SVG 1.1//EN"
 "http://www.w3.org/Graphics/SVG/1.1/DTD/svg11.dtd">
<!-- Generated by graphviz version 2.40.1 (20161225.0304)
 -->
<!-- Title: AttitudeMahonyFilter.cpp Pages: 1 -->
<svg width="1478pt" height="688pt"
 viewBox="0.00 0.00 1477.50 688.00" xmlns="http://www.w3.org/2000/svg" xmlns:xlink="http://www.w3.org/1999/xlink">
<g id="graph0" class="graph" transform="scale(1 1) rotate(0) translate(4 684)">
<title>AttitudeMahonyFilter.cpp</title>
<!-- Node0 -->
<g id="node1" class="node">
<title>Node0</title>
<polygon fill="#bfbfbf" stroke="#000000" points="838.5,-660.5 838.5,-679.5 975.5,-679.5 975.5,-660.5 838.5,-660.5"/>
<text text-anchor="middle" x="907" y="-667.5" font-family="FreeSans.ttf" font-size="10.00" fill="#000000">AttitudeMahonyFilter.cpp</text>
</g>
<!-- Node1 -->
<g id="node2" class="node">
<title>Node1</title>
<g id="a_node2"><a xlink:href="AttitudeMahonyFilter_8h.html" target="_top" xlink:title="iDynTree/Estimation\l/AttitudeMahonyFilter.h">
<polygon fill="none" stroke="#000000" points="577.5,-403.5 577.5,-433.5 706.5,-433.5 706.5,-403.5 577.5,-403.5"/>
<text text-anchor="start" x="585.5" y="-421.5" font-family="FreeSans.ttf" font-size="10.00" fill="#000000">iDynTree/Estimation</text>
<text text-anchor="middle" x="642" y="-410.5" font-family="FreeSans.ttf" font-size="10.00" fill="#000000">/AttitudeMahonyFilter.h</text>
</a>
</g>
</g>
<!-- Node0&#45;&gt;Node1 -->
<g id="edge1" class="edge">
<title>Node0&#45;&gt;Node1</title>
<path fill="none" stroke="#191970" d="M907.7499,-660.3359C909.7275,-627.1388 911.1967,-517.219 849,-470 828.1225,-454.15 767.0371,-440.0815 716.596,-430.6709"/>
<polygon fill="#191970" stroke="#191970" points="717.1318,-427.2109 706.6648,-428.8517 715.8705,-434.0963 717.1318,-427.2109"/>
</g>
<!-- Node26 -->
<g id="node27" class="node">
<title>Node26</title>
<g id="a_node27"><a xlink:href="AttitudeEstimatorUtils_8h.html" target="_top" xlink:title="iDynTree/Estimation\l/AttitudeEstimatorUtils.h">
<polygon fill="none" stroke="#000000" points="721.5,-593.5 721.5,-623.5 858.5,-623.5 858.5,-593.5 721.5,-593.5"/>
<text text-anchor="start" x="729.5" y="-611.5" font-family="FreeSans.ttf" font-size="10.00" fill="#000000">iDynTree/Estimation</text>
<text text-anchor="middle" x="790" y="-600.5" font-family="FreeSans.ttf" font-size="10.00" fill="#000000">/AttitudeEstimatorUtils.h</text>
</a>
</g>
</g>
<!-- Node0&#45;&gt;Node26 -->
<g id="edge45" class="edge">
<title>Node0&#45;&gt;Node26</title>
<path fill="none" stroke="#191970" d="M888.7188,-660.3906C872.4444,-651.8361 848.1212,-639.0509 827.6913,-628.3121"/>
<polygon fill="#191970" stroke="#191970" points="829.1016,-625.0994 818.6214,-623.5446 825.8446,-631.2955 829.1016,-625.0994"/>
</g>
<!-- Node39 -->
<g id="node40" class="node">
<title>Node39</title>
<polygon fill="none" stroke="#bfbfbf" points="935,-599 935,-618 979,-618 979,-599 935,-599"/>
<text text-anchor="middle" x="957" y="-606" font-family="FreeSans.ttf" font-size="10.00" fill="#000000">ctime</text>
</g>
<!-- Node0&#45;&gt;Node39 -->
<g id="edge84" class="edge">
<title>Node0&#45;&gt;Node39</title>
<path fill="none" stroke="#191970" d="M914.8125,-660.3906C922.254,-651.2376 933.6334,-637.2409 942.6992,-626.09"/>
<polygon fill="#191970" stroke="#191970" points="945.4847,-628.212 949.0774,-618.2449 940.0533,-623.7962 945.4847,-628.212"/>
</g>
<!-- Node2 -->
<g id="node3" class="node">
<title>Node2</title>
<g id="a_node3"><a xlink:href="AttitudeEstimator_8h.html" target="_top" xlink:title="iDynTree/Estimation\l/AttitudeEstimator.h">
<polygon fill="none" stroke="#000000" points="491.5,-336.5 491.5,-366.5 606.5,-366.5 606.5,-336.5 491.5,-336.5"/>
<text text-anchor="start" x="499.5" y="-354.5" font-family="FreeSans.ttf" font-size="10.00" fill="#000000">iDynTree/Estimation</text>
<text text-anchor="middle" x="549" y="-343.5" font-family="FreeSans.ttf" font-size="10.00" fill="#000000">/AttitudeEstimator.h</text>
</a>
</g>
</g>
<!-- Node1&#45;&gt;Node2 -->
<g id="edge2" class="edge">
<title>Node1&#45;&gt;Node2</title>
<path fill="none" stroke="#191970" d="M620.8969,-403.2967C608.2928,-394.2163 592.0976,-382.5488 578.27,-372.587"/>
<polygon fill="#191970" stroke="#191970" points="580.1792,-369.6488 570.0196,-366.6432 576.0874,-375.3284 580.1792,-369.6488"/>
</g>
<!-- Node25 -->
<g id="node26" class="node">
<title>Node25</title>
<g id="a_node26"><a xlink:href="Direction_8h.html" target="_top" xlink:title="iDynTree/Core/Direction.h">
<polygon fill="none" stroke="#000000" points="565.5,-224.5 565.5,-243.5 706.5,-243.5 706.5,-224.5 565.5,-224.5"/>
<text text-anchor="middle" x="636" y="-231.5" font-family="FreeSans.ttf" font-size="10.00" fill="#000000">iDynTree/Core/Direction.h</text>
</a>
</g>
</g>
<!-- Node1&#45;&gt;Node25 -->
<g id="edge41" class="edge">
<title>Node1&#45;&gt;Node25</title>
<path fill="none" stroke="#191970" d="M650.8787,-403.2106C664.7115,-377.3288 688.3093,-323.4593 673,-280 669.1691,-269.125 661.5598,-258.9246 654.2328,-250.9061"/>
<polygon fill="#191970" stroke="#191970" points="656.6466,-248.3686 647.1502,-243.6707 651.6443,-253.2652 656.6466,-248.3686"/>
</g>
<!-- Node3 -->
<g id="node4" class="node">
<title>Node3</title>
<g id="a_node4"><a xlink:href="VectorFixSize_8h.html" target="_top" xlink:title="iDynTree/Core/VectorFixSize.h">
<polygon fill="none" stroke="#000000" points="456.5,-168.5 456.5,-187.5 617.5,-187.5 617.5,-168.5 456.5,-168.5"/>
<text text-anchor="middle" x="537" y="-175.5" font-family="FreeSans.ttf" font-size="10.00" fill="#000000">iDynTree/Core/VectorFixSize.h</text>
</a>
</g>
</g>
<!-- Node2&#45;&gt;Node3 -->
<g id="edge3" class="edge">
<title>Node2&#45;&gt;Node3</title>
<path fill="none" stroke="#191970" d="M536.8211,-336.2988C529.8133,-326.5503 521.6866,-313.2728 518,-300 508.1056,-264.3767 520.1681,-221.3765 529.0925,-197.1097"/>
<polygon fill="#191970" stroke="#191970" points="532.4079,-198.2407 532.7669,-187.6519 525.8831,-195.7056 532.4079,-198.2407"/>
</g>
<!-- Node19 -->
<g id="node20" class="node">
<title>Node19</title>
<g id="a_node20"><a xlink:href="Rotation_8h.html" target="_top" xlink:title="iDynTree/Core/Rotation.h">
<polygon fill="none" stroke="#000000" points="527.5,-280.5 527.5,-299.5 664.5,-299.5 664.5,-280.5 527.5,-280.5"/>
<text text-anchor="middle" x="596" y="-287.5" font-family="FreeSans.ttf" font-size="10.00" fill="#000000">iDynTree/Core/Rotation.h</text>
</a>
</g>
</g>
<!-- Node2&#45;&gt;Node19 -->
<g id="edge21" class="edge">
<title>Node2&#45;&gt;Node19</title>
<path fill="none" stroke="#191970" d="M560.618,-336.2977C567.21,-327.672 575.4948,-316.8312 582.3901,-307.8087"/>
<polygon fill="#191970" stroke="#191970" points="585.1835,-309.9176 588.4747,-299.8469 579.6217,-305.6671 585.1835,-309.9176"/>
</g>
<!-- Node24 -->
<g id="node25" class="node">
<title>Node24</title>
<polygon fill="none" stroke="#bfbfbf" points="340,-112.5 340,-131.5 400,-131.5 400,-112.5 340,-112.5"/>
<text text-anchor="middle" x="370" y="-119.5" font-family="FreeSans.ttf" font-size="10.00" fill="#000000">iostream</text>
</g>
<!-- Node2&#45;&gt;Node24 -->
<g id="edge40" class="edge">
<title>Node2&#45;&gt;Node24</title>
<path fill="none" stroke="#191970" d="M537.2553,-336.4419C505.5295,-295.7655 418.1982,-183.7961 383.9968,-139.9456"/>
<polygon fill="#191970" stroke="#191970" points="386.6301,-137.6308 377.7201,-131.8981 381.1104,-141.9359 386.6301,-137.6308"/>
</g>
<!-- Node4 -->
<g id="node5" class="node">
<title>Node4</title>
<g id="a_node5"><a xlink:href="Utils_8h.html" target="_top" xlink:title="iDynTree/Core/Utils.h">
<polygon fill="none" stroke="#000000" points="553.5,-56.5 553.5,-75.5 672.5,-75.5 672.5,-56.5 553.5,-56.5"/>
<text text-anchor="middle" x="613" y="-63.5" font-family="FreeSans.ttf" font-size="10.00" fill="#000000">iDynTree/Core/Utils.h</text>
</a>
</g>
</g>
<!-- Node3&#45;&gt;Node4 -->
<g id="edge4" class="edge">
<title>Node3&#45;&gt;Node4</title>
<path fill="none" stroke="#191970" d="M538.5339,-168.3161C541.0371,-154.769 546.9765,-129.8226 559,-112 567.0433,-100.0774 578.9855,-89.4599 589.5956,-81.4379"/>
<polygon fill="#191970" stroke="#191970" points="591.6514,-84.2707 597.7193,-75.5855 587.5596,-78.591 591.6514,-84.2707"/>
</g>
<!-- Node7 -->
<g id="node8" class="node">
<title>Node7</title>
<g id="a_node8"><a xlink:href="Span_8h.html" target="_top" xlink:title="iDynTree/Core/Span.h">
<polygon fill="none" stroke="#000000" points="910.5,-56.5 910.5,-75.5 1031.5,-75.5 1031.5,-56.5 910.5,-56.5"/>
<text text-anchor="middle" x="971" y="-63.5" font-family="FreeSans.ttf" font-size="10.00" fill="#000000">iDynTree/Core/Span.h</text>
</a>
</g>
</g>
<!-- Node3&#45;&gt;Node7 -->
<g id="edge7" class="edge">
<title>Node3&#45;&gt;Node7</title>
<path fill="none" stroke="#191970" d="M617.7665,-171.0099C719.6221,-161.7368 884.5978,-145.0227 910,-132 931.1566,-121.1538 948.7388,-99.8367 959.5064,-84.3562"/>
<polygon fill="#191970" stroke="#191970" points="962.6916,-85.8859 965.3011,-75.6174 956.8577,-82.0174 962.6916,-85.8859"/>
</g>
<!-- Node8 -->
<g id="node9" class="node">
<title>Node8</title>
<polygon fill="none" stroke="#bfbfbf" points="650,-.5 650,-19.5 702,-19.5 702,-.5 650,-.5"/>
<text text-anchor="middle" x="676" y="-7.5" font-family="FreeSans.ttf" font-size="10.00" fill="#000000">cassert</text>
</g>
<!-- Node3&#45;&gt;Node8 -->
<g id="edge19" class="edge">
<title>Node3&#45;&gt;Node8</title>
<path fill="none" stroke="#191970" d="M534.2739,-168.2396C528.6485,-145.836 518.3157,-90.0402 544,-56 550.0124,-48.0316 602.8209,-31.3048 639.7902,-20.3692"/>
<polygon fill="#191970" stroke="#191970" points="641.134,-23.6226 649.7454,-17.4504 639.1646,-16.9054 641.134,-23.6226"/>
</g>
<!-- Node16 -->
<g id="node17" class="node">
<title>Node16</title>
<polygon fill="none" stroke="#bfbfbf" points="1083,-112.5 1083,-131.5 1127,-131.5 1127,-112.5 1083,-112.5"/>
<text text-anchor="middle" x="1105" y="-119.5" font-family="FreeSans.ttf" font-size="10.00" fill="#000000">string</text>
</g>
<!-- Node3&#45;&gt;Node16 -->
<g id="edge17" class="edge">
<title>Node3&#45;&gt;Node16</title>
<path fill="none" stroke="#191970" d="M617.7773,-170.036C744.9391,-157.499 986.2499,-133.7078 1072.9645,-125.1584"/>
<polygon fill="#191970" stroke="#191970" points="1073.3802,-128.6345 1082.9885,-124.1701 1072.6934,-121.6683 1073.3802,-128.6345"/>
</g>
<!-- Node17 -->
<g id="node18" class="node">
<title>Node17</title>
<polygon fill="none" stroke="#bfbfbf" points="418,-112.5 418,-131.5 474,-131.5 474,-112.5 418,-112.5"/>
<text text-anchor="middle" x="446" y="-119.5" font-family="FreeSans.ttf" font-size="10.00" fill="#000000">sstream</text>
</g>
<!-- Node3&#45;&gt;Node17 -->
<g id="edge18" class="edge">
<title>Node3&#45;&gt;Node17</title>
<path fill="none" stroke="#191970" d="M521.149,-168.2455C507.1868,-159.6534 486.6272,-147.0014 470.5404,-137.1018"/>
<polygon fill="#191970" stroke="#191970" points="472.0203,-133.9029 461.6693,-131.6427 468.3516,-139.8645 472.0203,-133.9029"/>
</g>
<!-- Node18 -->
<g id="node19" class="node">
<title>Node18</title>
<polygon fill="none" stroke="#bfbfbf" points="568,-112.5 568,-131.5 618,-131.5 618,-112.5 568,-112.5"/>
<text text-anchor="middle" x="593" y="-119.5" font-family="FreeSans.ttf" font-size="10.00" fill="#000000">cstring</text>
</g>
<!-- Node3&#45;&gt;Node18 -->
<g id="edge20" class="edge">
<title>Node3&#45;&gt;Node18</title>
<path fill="none" stroke="#191970" d="M546.7545,-168.2455C554.8648,-160.1352 566.5925,-148.4075 576.2081,-138.7919"/>
<polygon fill="#191970" stroke="#191970" points="578.7611,-141.1887 583.3573,-131.6427 573.8113,-136.2389 578.7611,-141.1887"/>
</g>
<!-- Node5 -->
<g id="node6" class="node">
<title>Node5</title>
<polygon fill="none" stroke="#bfbfbf" points="720.5,-.5 720.5,-19.5 773.5,-19.5 773.5,-.5 720.5,-.5"/>
<text text-anchor="middle" x="747" y="-7.5" font-family="FreeSans.ttf" font-size="10.00" fill="#000000">cstddef</text>
</g>
<!-- Node4&#45;&gt;Node5 -->
<g id="edge5" class="edge">
<title>Node4&#45;&gt;Node5</title>
<path fill="none" stroke="#191970" d="M636.0354,-56.3733C657.7388,-47.3032 690.4618,-33.6279 714.755,-23.4755"/>
<polygon fill="#191970" stroke="#191970" points="716.3881,-26.5865 724.2652,-19.5011 713.6889,-20.1278 716.3881,-26.5865"/>
</g>
<!-- Node6 -->
<g id="node7" class="node">
<title>Node6</title>
<polygon fill="none" stroke="#bfbfbf" points="552,-.5 552,-19.5 632,-19.5 632,-.5 552,-.5"/>
<text text-anchor="middle" x="592" y="-7.5" font-family="FreeSans.ttf" font-size="10.00" fill="#000000">CoreExport.h</text>
</g>
<!-- Node4&#45;&gt;Node6 -->
<g id="edge6" class="edge">
<title>Node4&#45;&gt;Node6</title>
<path fill="none" stroke="#191970" d="M609.3421,-56.2455C606.5416,-48.7776 602.591,-38.2427 599.1676,-29.1137"/>
<polygon fill="#191970" stroke="#191970" points="602.4045,-27.777 595.616,-19.6427 595.8501,-30.2349 602.4045,-27.777"/>
</g>
<!-- Node7&#45;&gt;Node5 -->
<g id="edge11" class="edge">
<title>Node7&#45;&gt;Node5</title>
<path fill="none" stroke="#191970" d="M929.5875,-56.4183C893.3896,-47.9319 839.1793,-34.9562 783.722,-20.3926"/>
<polygon fill="#191970" stroke="#191970" points="784.2852,-16.9214 773.723,-17.7528 782.4983,-23.6895 784.2852,-16.9214"/>
</g>
<!-- Node7&#45;&gt;Node8 -->
<g id="edge8" class="edge">
<title>Node7&#45;&gt;Node8</title>
<path fill="none" stroke="#191970" d="M910.4881,-57.1065C859.8383,-49.2505 785.5047,-36.7658 712.1675,-20.0986"/>
<polygon fill="#191970" stroke="#191970" points="712.8277,-16.6591 702.2976,-17.8284 711.2586,-23.481 712.8277,-16.6591"/>
</g>
<!-- Node9 -->
<g id="node10" class="node">
<title>Node9</title>
<polygon fill="none" stroke="#bfbfbf" points="1025,-.5 1025,-19.5 1089,-19.5 1089,-.5 1025,-.5"/>
<text text-anchor="middle" x="1057" y="-7.5" font-family="FreeSans.ttf" font-size="10.00" fill="#000000">algorithm</text>
</g>
<!-- Node7&#45;&gt;Node9 -->
<g id="edge9" class="edge">
<title>Node7&#45;&gt;Node9</title>
<path fill="none" stroke="#191970" d="M985.9801,-56.2455C999.1751,-47.6534 1018.6051,-35.0014 1033.8079,-25.1018"/>
<polygon fill="#191970" stroke="#191970" points="1035.7215,-28.0325 1042.1916,-19.6427 1031.9017,-22.1665 1035.7215,-28.0325"/>
</g>
<!-- Node10 -->
<g id="node11" class="node">
<title>Node10</title>
<polygon fill="none" stroke="#bfbfbf" points="1107,-.5 1107,-19.5 1149,-19.5 1149,-.5 1107,-.5"/>
<text text-anchor="middle" x="1128" y="-7.5" font-family="FreeSans.ttf" font-size="10.00" fill="#000000">array</text>
</g>
<!-- Node7&#45;&gt;Node10 -->
<g id="edge10" class="edge">
<title>Node7&#45;&gt;Node10</title>
<path fill="none" stroke="#191970" d="M997.9893,-56.3733C1025.5953,-46.5265 1068.4182,-31.2521 1097.3006,-20.9501"/>
<polygon fill="#191970" stroke="#191970" points="1098.6445,-24.1868 1106.8874,-17.5306 1096.2928,-17.5937 1098.6445,-24.1868"/>
</g>
<!-- Node11 -->
<g id="node12" class="node">
<title>Node11</title>
<polygon fill="none" stroke="#bfbfbf" points="1167.5,-.5 1167.5,-19.5 1220.5,-19.5 1220.5,-.5 1167.5,-.5"/>
<text text-anchor="middle" x="1194" y="-7.5" font-family="FreeSans.ttf" font-size="10.00" fill="#000000">iterator</text>
</g>
<!-- Node7&#45;&gt;Node11 -->
<g id="edge12" class="edge">
<title>Node7&#45;&gt;Node11</title>
<path fill="none" stroke="#191970" d="M1011.2132,-56.4736C1047.0677,-47.8981 1101.2184,-34.7471 1157.5012,-20.0762"/>
<polygon fill="#191970" stroke="#191970" points="1158.4994,-23.4329 1167.2876,-17.5153 1156.7272,-16.6609 1158.4994,-23.4329"/>
</g>
<!-- Node12 -->
<g id="node13" class="node">
<title>Node12</title>
<polygon fill="none" stroke="#bfbfbf" points="1239,-.5 1239,-19.5 1283,-19.5 1283,-.5 1239,-.5"/>
<text text-anchor="middle" x="1261" y="-7.5" font-family="FreeSans.ttf" font-size="10.00" fill="#000000">limits</text>
</g>
<!-- Node7&#45;&gt;Node12 -->
<g id="edge13" class="edge">
<title>Node7&#45;&gt;Node12</title>
<path fill="none" stroke="#191970" d="M1031.6619,-57.4026C1084.2339,-49.4252 1162.1511,-36.3351 1229,-20 1229.0989,-19.9758 1229.198,-19.9515 1229.2973,-19.9271"/>
<polygon fill="#191970" stroke="#191970" points="1229.9947,-23.3648 1238.7215,-17.3571 1228.153,-16.6114 1229.9947,-23.3648"/>
</g>
<!-- Node13 -->
<g id="node14" class="node">
<title>Node13</title>
<polygon fill="none" stroke="#bfbfbf" points="878.5,-.5 878.5,-19.5 943.5,-19.5 943.5,-.5 878.5,-.5"/>
<text text-anchor="middle" x="911" y="-7.5" font-family="FreeSans.ttf" font-size="10.00" fill="#000000">stdexcept</text>
</g>
<!-- Node7&#45;&gt;Node13 -->
<g id="edge14" class="edge">
<title>Node7&#45;&gt;Node13</title>
<path fill="none" stroke="#191970" d="M960.5488,-56.2455C951.7731,-48.0549 939.0446,-36.1749 928.686,-26.5069"/>
<polygon fill="#191970" stroke="#191970" points="931.0301,-23.9072 921.3314,-19.6427 926.2539,-29.0246 931.0301,-23.9072"/>
</g>
<!-- Node14 -->
<g id="node15" class="node">
<title>Node14</title>
<polygon fill="none" stroke="#bfbfbf" points="791.5,-.5 791.5,-19.5 860.5,-19.5 860.5,-.5 791.5,-.5"/>
<text text-anchor="middle" x="826" y="-7.5" font-family="FreeSans.ttf" font-size="10.00" fill="#000000">type_traits</text>
</g>
<!-- Node7&#45;&gt;Node14 -->
<g id="edge15" class="edge">
<title>Node7&#45;&gt;Node14</title>
<path fill="none" stroke="#191970" d="M946.0736,-56.3733C922.3798,-47.2226 886.5489,-33.3844 860.1932,-23.2057"/>
<polygon fill="#191970" stroke="#191970" points="861.1906,-19.8389 850.6011,-19.5011 858.6686,-26.3689 861.1906,-19.8389"/>
</g>
<!-- Node15 -->
<g id="node16" class="node">
<title>Node15</title>
<polygon fill="none" stroke="#bfbfbf" points="961.5,-.5 961.5,-19.5 1006.5,-19.5 1006.5,-.5 961.5,-.5"/>
<text text-anchor="middle" x="984" y="-7.5" font-family="FreeSans.ttf" font-size="10.00" fill="#000000">utility</text>
</g>
<!-- Node7&#45;&gt;Node15 -->
<g id="edge16" class="edge">
<title>Node7&#45;&gt;Node15</title>
<path fill="none" stroke="#191970" d="M973.2644,-56.2455C974.9794,-48.8579 977.3912,-38.4689 979.4944,-29.4087"/>
<polygon fill="#191970" stroke="#191970" points="982.9095,-30.1751 981.7615,-19.6427 976.0908,-28.5922 982.9095,-30.1751"/>
</g>
<!-- Node19&#45;&gt;Node3 -->
<g id="edge39" class="edge">
<title>Node19&#45;&gt;Node3</title>
<path fill="none" stroke="#191970" d="M585.3637,-280.3901C576.345,-271.6994 563.6843,-258.1324 556,-244 548.1683,-229.5965 543.2683,-211.6254 540.4101,-198.0743"/>
<polygon fill="#191970" stroke="#191970" points="543.7822,-197.073 538.4698,-187.9063 536.9063,-198.3851 543.7822,-197.073"/>
</g>
<!-- Node19&#45;&gt;Node16 -->
<g id="edge22" class="edge">
<title>Node19&#45;&gt;Node16</title>
<path fill="none" stroke="#191970" d="M664.7096,-288.1438C795.754,-283.9777 1071.3326,-271.9686 1104,-244 1132.9767,-219.1912 1121.6786,-168.9102 1112.4311,-141.2737"/>
<polygon fill="#191970" stroke="#191970" points="1115.6247,-139.8104 1108.9558,-131.5777 1109.0351,-142.1722 1115.6247,-139.8104"/>
</g>
<!-- Node20 -->
<g id="node21" class="node">
<title>Node20</title>
<g id="a_node21"><a xlink:href="GeomVector3_8h.html" target="_top" xlink:title="iDynTree/Core/GeomVector3.h">
<polygon fill="none" stroke="#000000" points="231.5,-224.5 231.5,-243.5 394.5,-243.5 394.5,-224.5 231.5,-224.5"/>
<text text-anchor="middle" x="313" y="-231.5" font-family="FreeSans.ttf" font-size="10.00" fill="#000000">iDynTree/Core/GeomVector3.h</text>
</a>
</g>
</g>
<!-- Node19&#45;&gt;Node20 -->
<g id="edge23" class="edge">
<title>Node19&#45;&gt;Node20</title>
<path fill="none" stroke="#191970" d="M547.6721,-280.4369C498.8319,-270.7724 423.3324,-255.8326 371.2236,-245.5213"/>
<polygon fill="#191970" stroke="#191970" points="371.6178,-242.0315 361.1285,-243.5237 370.2589,-248.8983 371.6178,-242.0315"/>
</g>
<!-- Node21 -->
<g id="node22" class="node">
<title>Node21</title>
<g id="a_node22"><a xlink:href="RotationRaw_8h.html" target="_top" xlink:title="iDynTree/Core/RotationRaw.h">
<polygon fill="none" stroke="#000000" points="763,-224.5 763,-243.5 921,-243.5 921,-224.5 763,-224.5"/>
<text text-anchor="middle" x="842" y="-231.5" font-family="FreeSans.ttf" font-size="10.00" fill="#000000">iDynTree/Core/RotationRaw.h</text>
</a>
</g>
</g>
<!-- Node19&#45;&gt;Node21 -->
<g id="edge25" class="edge">
<title>Node19&#45;&gt;Node21</title>
<path fill="none" stroke="#191970" d="M638.0094,-280.4369C680.1104,-270.8529 745.0005,-256.0812 790.2521,-245.78"/>
<polygon fill="#191970" stroke="#191970" points="791.1902,-249.1561 800.1639,-243.5237 789.6364,-242.3307 791.1902,-249.1561"/>
</g>
<!-- Node20&#45;&gt;Node3 -->
<g id="edge24" class="edge">
<title>Node20&#45;&gt;Node3</title>
<path fill="none" stroke="#191970" d="M351.2525,-224.4369C389.3467,-214.9133 447.9313,-200.2672 489.0987,-189.9753"/>
<polygon fill="#191970" stroke="#191970" points="490.0528,-193.3446 498.9053,-187.5237 488.355,-186.5536 490.0528,-193.3446"/>
</g>
<!-- Node21&#45;&gt;Node16 -->
<g id="edge38" class="edge">
<title>Node21&#45;&gt;Node16</title>
<path fill="none" stroke="#191970" d="M921.0135,-224.8147C976.149,-217.1221 1043.8416,-204.7094 1067,-188 1082.703,-176.6698 1092.8757,-156.7029 1098.7065,-141.6892"/>
<polygon fill="#191970" stroke="#191970" points="1102.1603,-142.4213 1102.2018,-131.8266 1095.5624,-140.083 1102.1603,-142.4213"/>
</g>
<!-- Node22 -->
<g id="node23" class="node">
<title>Node22</title>
<g id="a_node23"><a xlink:href="MatrixFixSize_8h.html" target="_top" xlink:title="iDynTree/Core/MatrixFixSize.h">
<polygon fill="none" stroke="#000000" points="674.5,-168.5 674.5,-187.5 835.5,-187.5 835.5,-168.5 674.5,-168.5"/>
<text text-anchor="middle" x="755" y="-175.5" font-family="FreeSans.ttf" font-size="10.00" fill="#000000">iDynTree/Core/MatrixFixSize.h</text>
</a>
</g>
</g>
<!-- Node21&#45;&gt;Node22 -->
<g id="edge26" class="edge">
<title>Node21&#45;&gt;Node22</title>
<path fill="none" stroke="#191970" d="M826.8458,-224.2455C813.4973,-215.6534 793.8414,-203.0014 778.4617,-193.1018"/>
<polygon fill="#191970" stroke="#191970" points="780.2836,-190.1121 769.9806,-187.6427 776.4949,-195.9982 780.2836,-190.1121"/>
</g>
<!-- Node22&#45;&gt;Node4 -->
<g id="edge27" class="edge">
<title>Node22&#45;&gt;Node4</title>
<path fill="none" stroke="#191970" d="M742.8932,-168.4509C718.4757,-149.1921 663.108,-105.5218 633.1507,-81.8935"/>
<polygon fill="#191970" stroke="#191970" points="635.0954,-78.9697 625.0762,-75.5249 630.7604,-84.4659 635.0954,-78.9697"/>
</g>
<!-- Node22&#45;&gt;Node8 -->
<g id="edge33" class="edge">
<title>Node22&#45;&gt;Node8</title>
<path fill="none" stroke="#191970" d="M750.5263,-168.4862C737.9301,-141.6994 701.9837,-65.2565 685.0422,-29.2289"/>
<polygon fill="#191970" stroke="#191970" points="688.0442,-27.3879 680.6214,-19.8279 681.7096,-30.3667 688.0442,-27.3879"/>
</g>
<!-- Node22&#45;&gt;Node16 -->
<g id="edge35" class="edge">
<title>Node22&#45;&gt;Node16</title>
<path fill="none" stroke="#191970" d="M814.7695,-168.4369C889.2095,-156.5265 1013.7247,-136.604 1072.4573,-127.2068"/>
<polygon fill="#191970" stroke="#191970" points="1073.3101,-130.615 1082.6315,-125.579 1072.2041,-123.7029 1073.3101,-130.615"/>
</g>
<!-- Node22&#45;&gt;Node17 -->
<g id="edge37" class="edge">
<title>Node22&#45;&gt;Node17</title>
<path fill="none" stroke="#191970" d="M702.2321,-168.4369C640.2111,-157.1968 538.8173,-138.8213 484.0195,-128.8903"/>
<polygon fill="#191970" stroke="#191970" points="484.492,-125.419 474.0282,-127.0795 483.2437,-132.3068 484.492,-125.419"/>
</g>
<!-- Node22&#45;&gt;Node18 -->
<g id="edge34" class="edge">
<title>Node22&#45;&gt;Node18</title>
<path fill="none" stroke="#191970" d="M727.1512,-168.3733C699.5982,-158.8488 657.3546,-144.246 627.6482,-133.9772"/>
<polygon fill="#191970" stroke="#191970" points="628.6886,-130.6336 618.0939,-130.6744 626.4016,-137.2495 628.6886,-130.6336"/>
</g>
<!-- Node23 -->
<g id="node24" class="node">
<title>Node23</title>
<g id="a_node24"><a xlink:href="MatrixView_8h.html" target="_top" xlink:title="iDynTree/Core/MatrixView.h">
<polygon fill="none" stroke="#000000" points="750.5,-112.5 750.5,-131.5 901.5,-131.5 901.5,-112.5 750.5,-112.5"/>
<text text-anchor="middle" x="826" y="-119.5" font-family="FreeSans.ttf" font-size="10.00" fill="#000000">iDynTree/Core/MatrixView.h</text>
</a>
</g>
</g>
<!-- Node22&#45;&gt;Node23 -->
<g id="edge28" class="edge">
<title>Node22&#45;&gt;Node23</title>
<path fill="none" stroke="#191970" d="M767.3673,-168.2455C777.9554,-159.8943 793.4064,-147.7076 805.7893,-137.9408"/>
<polygon fill="#191970" stroke="#191970" points="808.0903,-140.5837 813.7745,-131.6427 803.7553,-135.0875 808.0903,-140.5837"/>
</g>
<!-- Node22&#45;&gt;Node24 -->
<g id="edge36" class="edge">
<title>Node22&#45;&gt;Node24</title>
<path fill="none" stroke="#191970" d="M674.1604,-170.0016C606.0945,-162.6353 506.0366,-150.3324 410.0293,-132.0172"/>
<polygon fill="#191970" stroke="#191970" points="410.6358,-128.5698 400.1534,-130.1089 409.3077,-135.4426 410.6358,-128.5698"/>
</g>
<!-- Node23&#45;&gt;Node4 -->
<g id="edge32" class="edge">
<title>Node23&#45;&gt;Node4</title>
<path fill="none" stroke="#191970" d="M789.384,-112.3733C753.352,-102.9001 698.2122,-88.4032 659.1886,-78.1435"/>
<polygon fill="#191970" stroke="#191970" points="659.6995,-74.6589 649.1382,-75.5011 657.9196,-81.4289 659.6995,-74.6589"/>
</g>
<!-- Node23&#45;&gt;Node7 -->
<g id="edge31" class="edge">
<title>Node23&#45;&gt;Node7</title>
<path fill="none" stroke="#191970" d="M850.9264,-112.3733C874.6202,-103.2226 910.4511,-89.3844 936.8068,-79.2057"/>
<polygon fill="#191970" stroke="#191970" points="938.3314,-82.3689 946.3989,-75.5011 935.8094,-75.8389 938.3314,-82.3689"/>
</g>
<!-- Node23&#45;&gt;Node8 -->
<g id="edge29" class="edge">
<title>Node23&#45;&gt;Node8</title>
<path fill="none" stroke="#191970" d="M813.2111,-112.4509C787.3073,-93.1094 728.4284,-49.1465 696.88,-25.5904"/>
<polygon fill="#191970" stroke="#191970" points="698.8634,-22.7033 688.7565,-19.5249 694.6753,-28.3123 698.8634,-22.7033"/>
</g>
<!-- Node23&#45;&gt;Node14 -->
<g id="edge30" class="edge">
<title>Node23&#45;&gt;Node14</title>
<path fill="none" stroke="#191970" d="M826,-112.4509C826,-94.184 826,-53.9553 826,-29.6976"/>
<polygon fill="#191970" stroke="#191970" points="829.5001,-29.5249 826,-19.5249 822.5001,-29.5249 829.5001,-29.5249"/>
</g>
<!-- Node25&#45;&gt;Node3 -->
<g id="edge43" class="edge">
<title>Node25&#45;&gt;Node3</title>
<path fill="none" stroke="#191970" d="M618.7555,-224.2455C603.4239,-215.5731 580.7801,-202.7645 563.2084,-192.825"/>
<polygon fill="#191970" stroke="#191970" points="564.4741,-189.5198 554.0469,-187.6427 561.0276,-195.6126 564.4741,-189.5198"/>
</g>
<!-- Node25&#45;&gt;Node4 -->
<g id="edge44" class="edge">
<title>Node25&#45;&gt;Node4</title>
<path fill="none" stroke="#191970" d="M636.0116,-224.4163C635.8802,-203.7121 634.7162,-153.3375 627,-112 625.3385,-103.099 622.5716,-93.4826 619.9343,-85.355"/>
<polygon fill="#191970" stroke="#191970" points="623.1867,-84.0483 616.6459,-75.7135 616.5614,-86.308 623.1867,-84.0483"/>
</g>
<!-- Node25&#45;&gt;Node16 -->
<g id="edge42" class="edge">
<title>Node25&#45;&gt;Node16</title>
<path fill="none" stroke="#191970" d="M699.5922,-224.4741C741.4286,-217.111 796.9437,-205.2337 844,-188 861.9212,-181.4366 864.0326,-174.4357 882,-168 947.6664,-144.479 1028.7535,-131.5285 1072.8065,-125.7512"/>
<polygon fill="#191970" stroke="#191970" points="1073.4394,-129.199 1082.9186,-124.4665 1072.5572,-122.2548 1073.4394,-129.199"/>
</g>
<!-- Node26&#45;&gt;Node2 -->
<g id="edge46" class="edge">
<title>Node26&#45;&gt;Node2</title>
<path fill="none" stroke="#191970" d="M721.4138,-600.2292C667.047,-592.2049 597.1412,-578.1178 578,-557 532.4937,-506.7945 538.1967,-419.4516 544.4285,-376.6292"/>
<polygon fill="#191970" stroke="#191970" points="547.8855,-377.1756 545.9934,-366.7511 540.9717,-376.0802 547.8855,-377.1756"/>
</g>
<!-- Node27 -->
<g id="node28" class="node">
<title>Node27</title>
<g id="a_node28"><a xlink:href="EigenHelpers_8h.html" target="_top" xlink:title="iDynTree/Core/EigenHelpers.h">
<polygon fill="none" stroke="#000000" points="587.5,-537.5 587.5,-556.5 748.5,-556.5 748.5,-537.5 587.5,-537.5"/>
<text text-anchor="middle" x="668" y="-544.5" font-family="FreeSans.ttf" font-size="10.00" fill="#000000">iDynTree/Core/EigenHelpers.h</text>
</a>
</g>
</g>
<!-- Node26&#45;&gt;Node27 -->
<g id="edge47" class="edge">
<title>Node26&#45;&gt;Node27</title>
<path fill="none" stroke="#191970" d="M760.1554,-593.4554C740.603,-583.599 715.2128,-570.7999 696.0355,-561.1327"/>
<polygon fill="#191970" stroke="#191970" points="697.4108,-557.9064 686.9057,-556.5303 694.2598,-564.1571 697.4108,-557.9064"/>
</g>
<!-- Node37 -->
<g id="node38" class="node">
<title>Node37</title>
<polygon fill="none" stroke="#bfbfbf" points="766.5,-537.5 766.5,-556.5 813.5,-556.5 813.5,-537.5 766.5,-537.5"/>
<text text-anchor="middle" x="790" y="-544.5" font-family="FreeSans.ttf" font-size="10.00" fill="#000000">cmath</text>
</g>
<!-- Node26&#45;&gt;Node37 -->
<g id="edge82" class="edge">
<title>Node26&#45;&gt;Node37</title>
<path fill="none" stroke="#191970" d="M790,-593.2977C790,-585.3834 790,-575.6043 790,-567.0759"/>
<polygon fill="#191970" stroke="#191970" points="793.5001,-566.8469 790,-556.8469 786.5001,-566.847 793.5001,-566.8469"/>
</g>
<!-- Node38 -->
<g id="node39" class="node">
<title>Node38</title>
<polygon fill="none" stroke="#bfbfbf" points="831.5,-537.5 831.5,-556.5 878.5,-556.5 878.5,-537.5 831.5,-537.5"/>
<text text-anchor="middle" x="855" y="-544.5" font-family="FreeSans.ttf" font-size="10.00" fill="#000000">vector</text>
</g>
<!-- Node26&#45;&gt;Node38 -->
<g id="edge83" class="edge">
<title>Node26&#45;&gt;Node38</title>
<path fill="none" stroke="#191970" d="M806.0674,-593.2977C815.466,-584.4052 827.3527,-573.1586 837.057,-563.9769"/>
<polygon fill="#191970" stroke="#191970" points="839.7342,-566.2621 844.5927,-556.8469 834.9232,-561.1774 839.7342,-566.2621"/>
</g>
<!-- Node27&#45;&gt;Node3 -->
<g id="edge52" class="edge">
<title>Node27&#45;&gt;Node3</title>
<path fill="none" stroke="#191970" d="M587.3147,-545.7821C447.7497,-542.8315 173.301,-532.9859 144,-501 58.9753,-408.1843 104.6866,-302.603 203,-224 221.7555,-209.0047 353.7044,-194.3326 446.0241,-185.7308"/>
<polygon fill="#191970" stroke="#191970" points="446.5952,-189.193 456.2314,-184.7893 445.9522,-182.2226 446.5952,-189.193"/>
</g>
<!-- Node27&#45;&gt;Node4 -->
<g id="edge81" class="edge">
<title>Node27&#45;&gt;Node4</title>
<path fill="none" stroke="#191970" d="M587.3481,-545.4465C455.7935,-542.0493 201.2379,-531.6276 117,-501 57.2024,-479.2585 0,-482.1274 0,-418.5 0,-418.5 0,-418.5 0,-178 0,-103.1259 82.4783,-130.6204 155,-112 226.5164,-93.6377 433.4243,-77.8165 543.0007,-70.4354"/>
<polygon fill="#191970" stroke="#191970" points="543.5489,-73.9067 553.2932,-69.7476 543.0821,-66.9222 543.5489,-73.9067"/>
</g>
<!-- Node27&#45;&gt;Node22 -->
<g id="edge56" class="edge">
<title>Node27&#45;&gt;Node22</title>
<path fill="none" stroke="#191970" d="M677.3161,-537.2591C695.7258,-516.9395 735,-467.8124 735,-418.5 735,-418.5 735,-418.5 735,-290 735,-257.2193 743.4055,-219.8705 749.3181,-197.6533"/>
<polygon fill="#191970" stroke="#191970" points="752.7555,-198.3545 752.0489,-187.7832 746.009,-196.4878 752.7555,-198.3545"/>
</g>
<!-- Node28 -->
<g id="node29" class="node">
<title>Node28</title>
<polygon fill="none" stroke="#bfbfbf" points="763.5,-476 763.5,-495 840.5,-495 840.5,-476 763.5,-476"/>
<text text-anchor="middle" x="802" y="-483" font-family="FreeSans.ttf" font-size="10.00" fill="#000000">Eigen/Dense</text>
</g>
<!-- Node27&#45;&gt;Node28 -->
<g id="edge48" class="edge">
<title>Node27&#45;&gt;Node28</title>
<path fill="none" stroke="#191970" d="M688.9375,-537.3906C711.2598,-527.1457 746.8037,-510.8326 772.0757,-499.2339"/>
<polygon fill="#191970" stroke="#191970" points="773.581,-502.3942 781.2095,-495.0419 770.6611,-496.0322 773.581,-502.3942"/>
</g>
<!-- Node29 -->
<g id="node30" class="node">
<title>Node29</title>
<g id="a_node30"><a xlink:href="VectorDynSize_8h.html" target="_top" xlink:title="iDynTree/Core/VectorDynSize.h">
<polygon fill="none" stroke="#000000" points="1302.5,-168.5 1302.5,-187.5 1469.5,-187.5 1469.5,-168.5 1302.5,-168.5"/>
<text text-anchor="middle" x="1386" y="-175.5" font-family="FreeSans.ttf" font-size="10.00" fill="#000000">iDynTree/Core/VectorDynSize.h</text>
</a>
</g>
</g>
<!-- Node27&#45;&gt;Node29 -->
<g id="edge49" class="edge">
<title>Node27&#45;&gt;Node29</title>
<path fill="none" stroke="#191970" d="M737.6786,-537.4915C911.2426,-513.3407 1349,-449.3685 1349,-418.5 1349,-418.5 1349,-418.5 1349,-290 1349,-255.7041 1364.8354,-218.3471 1375.787,-196.6122"/>
<polygon fill="#191970" stroke="#191970" points="1379.0018,-198.0179 1380.5405,-187.5354 1372.8006,-194.7704 1379.0018,-198.0179"/>
</g>
<!-- Node30 -->
<g id="node31" class="node">
<title>Node30</title>
<g id="a_node31"><a xlink:href="MatrixDynSize_8h.html" target="_top" xlink:title="iDynTree/Core/MatrixDynSize.h">
<polygon fill="none" stroke="#000000" points="891.5,-168.5 891.5,-187.5 1058.5,-187.5 1058.5,-168.5 891.5,-168.5"/>
<text text-anchor="middle" x="975" y="-175.5" font-family="FreeSans.ttf" font-size="10.00" fill="#000000">iDynTree/Core/MatrixDynSize.h</text>
</a>
</g>
</g>
<!-- Node27&#45;&gt;Node30 -->
<g id="edge53" class="edge">
<title>Node27&#45;&gt;Node30</title>
<path fill="none" stroke="#191970" d="M738.7756,-537.4998C780.3381,-530.4596 833.3125,-518.9192 878,-501 1008.7264,-448.58 1067.7007,-429.5346 1123,-300 1136.2632,-268.932 1144.0564,-251.1823 1124,-224 1113.348,-209.5634 1073.787,-197.7453 1038.1064,-189.704"/>
<polygon fill="#191970" stroke="#191970" points="1038.689,-186.2488 1028.1728,-187.537 1037.1971,-193.088 1038.689,-186.2488"/>
</g>
<!-- Node31 -->
<g id="node32" class="node">
<title>Node31</title>
<g id="a_node32"><a xlink:href="SpatialMotionVector_8h.html" target="_top" xlink:title="iDynTree/Core/SpatialMotion\lVector.h">
<polygon fill="none" stroke="#000000" points="354.5,-470.5 354.5,-500.5 509.5,-500.5 509.5,-470.5 354.5,-470.5"/>
<text text-anchor="start" x="362.5" y="-488.5" font-family="FreeSans.ttf" font-size="10.00" fill="#000000">iDynTree/Core/SpatialMotion</text>
<text text-anchor="middle" x="432" y="-477.5" font-family="FreeSans.ttf" font-size="10.00" fill="#000000">Vector.h</text>
</a>
</g>
</g>
<!-- Node27&#45;&gt;Node31 -->
<g id="edge57" class="edge">
<title>Node27&#45;&gt;Node31</title>
<path fill="none" stroke="#191970" d="M631.3839,-537.4581C596.3111,-528.3183 542.5356,-514.3048 499.6671,-503.1336"/>
<polygon fill="#191970" stroke="#191970" points="500.4214,-499.7133 489.8619,-500.5784 498.6561,-506.4871 500.4214,-499.7133"/>
</g>
<!-- Node35 -->
<g id="node36" class="node">
<title>Node35</title>
<g id="a_node36"><a xlink:href="SpatialForceVector_8h.html" target="_top" xlink:title="iDynTree/Core/SpatialForce\lVector.h">
<polygon fill="none" stroke="#000000" points="153,-470.5 153,-500.5 301,-500.5 301,-470.5 153,-470.5"/>
<text text-anchor="start" x="161" y="-488.5" font-family="FreeSans.ttf" font-size="10.00" fill="#000000">iDynTree/Core/SpatialForce</text>
<text text-anchor="middle" x="227" y="-477.5" font-family="FreeSans.ttf" font-size="10.00" fill="#000000">Vector.h</text>
</a>
</g>
</g>
<!-- Node27&#45;&gt;Node35 -->
<g id="edge72" class="edge">
<title>Node27&#45;&gt;Node35</title>
<path fill="none" stroke="#191970" d="M599.5776,-537.4581C521.8128,-526.6134 394.8445,-508.9069 311.1022,-497.2285"/>
<polygon fill="#191970" stroke="#191970" points="311.4978,-493.7499 301.1102,-495.8351 310.5309,-500.6828 311.4978,-493.7499"/>
</g>
<!-- Node36 -->
<g id="node37" class="node">
<title>Node36</title>
<g id="a_node37"><a xlink:href="Transform_8h.html" target="_top" xlink:title="iDynTree/Core/Transform.h">
<polygon fill="none" stroke="#000000" points="833,-409 833,-428 979,-428 979,-409 833,-409"/>
<text text-anchor="middle" x="906" y="-416" font-family="FreeSans.ttf" font-size="10.00" fill="#000000">iDynTree/Core/Transform.h</text>
</a>
</g>
</g>
<!-- Node27&#45;&gt;Node36 -->
<g id="edge76" class="edge">
<title>Node27&#45;&gt;Node36</title>
<path fill="none" stroke="#191970" d="M722.8803,-537.4432C768.3568,-528.735 828.7017,-515.1126 849,-501 872.142,-484.9104 888.8108,-456.1745 897.938,-437.2234"/>
<polygon fill="#191970" stroke="#191970" points="901.1418,-438.6334 902.1221,-428.084 894.7771,-435.7195 901.1418,-438.6334"/>
</g>
<!-- Node29&#45;&gt;Node7 -->
<g id="edge50" class="edge">
<title>Node29&#45;&gt;Node7</title>
<path fill="none" stroke="#191970" d="M1350.6173,-168.4509C1275.2749,-148.1176 1099.1045,-100.5728 1015.9587,-78.1334"/>
<polygon fill="#191970" stroke="#191970" points="1016.8597,-74.7514 1006.2931,-75.5249 1015.0357,-81.5096 1016.8597,-74.7514"/>
</g>
<!-- Node29&#45;&gt;Node16 -->
<g id="edge51" class="edge">
<title>Node29&#45;&gt;Node16</title>
<path fill="none" stroke="#191970" d="M1338.0137,-168.4369C1280.7674,-157.0284 1186.6348,-138.2689 1137.3626,-128.4495"/>
<polygon fill="#191970" stroke="#191970" points="1137.7647,-124.9609 1127.2734,-126.4388 1136.3965,-131.8259 1137.7647,-124.9609"/>
</g>
<!-- Node30&#45;&gt;Node16 -->
<g id="edge54" class="edge">
<title>Node30&#45;&gt;Node16</title>
<path fill="none" stroke="#191970" d="M997.3478,-168.3733C1018.4033,-159.3032 1050.1495,-145.6279 1073.7175,-135.4755"/>
<polygon fill="#191970" stroke="#191970" points="1075.1444,-138.6719 1082.9438,-131.5011 1072.375,-132.243 1075.1444,-138.6719"/>
</g>
<!-- Node30&#45;&gt;Node23 -->
<g id="edge55" class="edge">
<title>Node30&#45;&gt;Node23</title>
<path fill="none" stroke="#191970" d="M949.386,-168.3733C924.9313,-159.1822 887.8946,-145.2624 860.7791,-135.0713"/>
<polygon fill="#191970" stroke="#191970" points="861.8719,-131.7431 851.2798,-131.5011 859.4091,-138.2956 861.8719,-131.7431"/>
</g>
<!-- Node31&#45;&gt;Node3 -->
<g id="edge58" class="edge">
<title>Node31&#45;&gt;Node3</title>
<path fill="none" stroke="#191970" d="M435.6493,-470.4248C445.6997,-429.7995 475.5388,-314.9704 513,-224 516.8458,-214.6609 521.9268,-204.6783 526.4232,-196.4074"/>
<polygon fill="#191970" stroke="#191970" points="529.5071,-198.0635 531.324,-187.6256 523.3945,-194.6522 529.5071,-198.0635"/>
</g>
<!-- Node31&#45;&gt;Node20 -->
<g id="edge59" class="edge">
<title>Node31&#45;&gt;Node20</title>
<path fill="none" stroke="#191970" d="M424.7352,-470.1461C404.0026,-426.329 344.5948,-300.7738 321.9317,-252.8766"/>
<polygon fill="#191970" stroke="#191970" points="325.007,-251.1927 317.5662,-243.6505 318.6796,-254.1867 325.007,-251.1927"/>
</g>
<!-- Node32 -->
<g id="node33" class="node">
<title>Node32</title>
<g id="a_node33"><a xlink:href="SpatialVector_8h.html" target="_top" xlink:title="iDynTree/Core/SpatialVector.h">
<polygon fill="none" stroke="#000000" points="218.5,-409 218.5,-428 379.5,-428 379.5,-409 218.5,-409"/>
<text text-anchor="middle" x="299" y="-416" font-family="FreeSans.ttf" font-size="10.00" fill="#000000">iDynTree/Core/SpatialVector.h</text>
</a>
</g>
</g>
<!-- Node31&#45;&gt;Node32 -->
<g id="edge60" class="edge">
<title>Node31&#45;&gt;Node32</title>
<path fill="none" stroke="#191970" d="M402.1522,-470.4639C379.736,-459.1715 349.2394,-443.8086 327.2262,-432.7192"/>
<polygon fill="#191970" stroke="#191970" points="328.57,-429.4772 318.0645,-428.1039 325.4207,-435.7287 328.57,-429.4772"/>
</g>
<!-- Node32&#45;&gt;Node4 -->
<g id="edge68" class="edge">
<title>Node32&#45;&gt;Node4</title>
<path fill="none" stroke="#191970" d="M245.9558,-408.992C214.8778,-401.4628 176.1363,-388.5185 147,-367 88.3584,-323.6904 51,-306.9011 51,-234 51,-234 51,-234 51,-178 51,-128.3399 392.8604,-88.014 543.3261,-72.67"/>
<polygon fill="#191970" stroke="#191970" points="543.7913,-76.1409 553.3882,-71.6521 543.0867,-69.1765 543.7913,-76.1409"/>
</g>
<!-- Node32&#45;&gt;Node17 -->
<g id="edge71" class="edge">
<title>Node32&#45;&gt;Node17</title>
<path fill="none" stroke="#191970" d="M289.2658,-408.976C260.485,-379.6432 180.3391,-288.7473 222,-224 243.3109,-190.8796 350.0731,-152.5708 408.1767,-133.7181"/>
<polygon fill="#191970" stroke="#191970" points="409.2945,-137.0352 417.7462,-130.6462 407.155,-130.3702 409.2945,-137.0352"/>
</g>
<!-- Node32&#45;&gt;Node19 -->
<g id="edge67" class="edge">
<title>Node32&#45;&gt;Node19</title>
<path fill="none" stroke="#191970" d="M319.4649,-408.9513C353.1678,-393.2988 422.5454,-361.3848 482,-336 508.6726,-324.6118 539.1504,-312.3523 561.8781,-303.3554"/>
<polygon fill="#191970" stroke="#191970" points="563.4045,-306.5158 571.4214,-299.589 560.8347,-300.0045 563.4045,-306.5158"/>
</g>
<!-- Node32&#45;&gt;Node20 -->
<g id="edge69" class="edge">
<title>Node32&#45;&gt;Node20</title>
<path fill="none" stroke="#191970" d="M299.733,-408.8402C301.9349,-379.8223 308.5224,-293.0088 311.5043,-253.7113"/>
<polygon fill="#191970" stroke="#191970" points="315.0075,-253.8003 312.2743,-243.5641 308.0276,-253.2706 315.0075,-253.8003"/>
</g>
<!-- Node32&#45;&gt;Node24 -->
<g id="edge70" class="edge">
<title>Node32&#45;&gt;Node24</title>
<path fill="none" stroke="#191970" d="M253.5019,-408.9471C227.7678,-401.4376 196.6971,-388.5288 176,-367 114.2222,-302.7397 94.8194,-237.207 151,-168 173.0713,-140.8111 272.6632,-129.1036 329.6476,-124.5565"/>
<polygon fill="#191970" stroke="#191970" points="330.0573,-128.0356 339.7637,-123.7887 329.5275,-121.0556 330.0573,-128.0356"/>
</g>
<!-- Node33 -->
<g id="node34" class="node">
<title>Node33</title>
<g id="a_node34"><a xlink:href="Position_8h.html" target="_top" xlink:title="Position.h">
<polygon fill="none" stroke="#000000" points="873.5,-342 873.5,-361 938.5,-361 938.5,-342 873.5,-342"/>
<text text-anchor="middle" x="906" y="-349" font-family="FreeSans.ttf" font-size="10.00" fill="#000000">Position.h</text>
</a>
</g>
</g>
<!-- Node32&#45;&gt;Node33 -->
<g id="edge61" class="edge">
<title>Node32&#45;&gt;Node33</title>
<path fill="none" stroke="#191970" d="M379.6049,-409.6029C509.9548,-395.215 762.5583,-367.3329 863.1533,-356.2294"/>
<polygon fill="#191970" stroke="#191970" points="863.6943,-359.691 873.2499,-355.1149 862.9263,-352.7333 863.6943,-359.691"/>
</g>
<!-- Node33&#45;&gt;Node16 -->
<g id="edge66" class="edge">
<title>Node33&#45;&gt;Node16</title>
<path fill="none" stroke="#191970" d="M938.5591,-345.079C987.1909,-333.6971 1078.0906,-305.1688 1125,-244 1145.7693,-216.9173 1145.9719,-200.6405 1136,-168 1132.8591,-157.7192 1126.5634,-147.6582 1120.4612,-139.5799"/>
<polygon fill="#191970" stroke="#191970" points="1123.0816,-137.2539 1114.0741,-131.6757 1117.637,-141.6535 1123.0816,-137.2539"/>
</g>
<!-- Node33&#45;&gt;Node19 -->
<g id="edge65" class="edge">
<title>Node33&#45;&gt;Node19</title>
<path fill="none" stroke="#191970" d="M873.4105,-345.0347C821.3964,-334.7157 718.8893,-314.3797 654.0994,-301.5262"/>
<polygon fill="#191970" stroke="#191970" points="654.5283,-298.0431 644.0383,-299.5302 653.1661,-304.9093 654.5283,-298.0431"/>
</g>
<!-- Node34 -->
<g id="node35" class="node">
<title>Node34</title>
<g id="a_node35"><a xlink:href="PositionRaw_8h.html" target="_top" xlink:title="iDynTree/Core/PositionRaw.h">
<polygon fill="none" stroke="#000000" points="939,-224.5 939,-243.5 1095,-243.5 1095,-224.5 939,-224.5"/>
<text text-anchor="middle" x="1017" y="-231.5" font-family="FreeSans.ttf" font-size="10.00" fill="#000000">iDynTree/Core/PositionRaw.h</text>
</a>
</g>
</g>
<!-- Node33&#45;&gt;Node34 -->
<g id="edge62" class="edge">
<title>Node33&#45;&gt;Node34</title>
<path fill="none" stroke="#191970" d="M915.0836,-341.8845C933.8655,-322.0028 977.1906,-276.1406 1000.8546,-251.0908"/>
<polygon fill="#191970" stroke="#191970" points="1003.468,-253.4212 1007.7909,-243.7484 998.3795,-248.6142 1003.468,-253.4212"/>
</g>
<!-- Node34&#45;&gt;Node3 -->
<g id="edge63" class="edge">
<title>Node34&#45;&gt;Node3</title>
<path fill="none" stroke="#191970" d="M938.8114,-224.878C853.6322,-214.9404 717.5522,-199.0644 627.7321,-188.5854"/>
<polygon fill="#191970" stroke="#191970" points="627.8972,-185.081 617.5589,-187.3985 627.0859,-192.0339 627.8972,-185.081"/>
</g>
<!-- Node34&#45;&gt;Node16 -->
<g id="edge64" class="edge">
<title>Node34&#45;&gt;Node16</title>
<path fill="none" stroke="#191970" d="M1049.544,-224.4786C1067.5426,-217.4312 1088.5285,-205.8905 1100,-188 1108.7118,-174.4134 1109.3693,-155.8685 1108.188,-141.8957"/>
<polygon fill="#191970" stroke="#191970" points="1111.6482,-141.3558 1106.9652,-131.8521 1104.6995,-142.2018 1111.6482,-141.3558"/>
</g>
<!-- Node35&#45;&gt;Node3 -->
<g id="edge73" class="edge">
<title>Node35&#45;&gt;Node3</title>
<path fill="none" stroke="#191970" d="M217.7913,-470.3519C212.301,-460.4104 205.8594,-446.905 203,-434 188.113,-366.8113 162.3442,-286.045 222,-224 237.4525,-207.9286 358.5743,-193.8416 446.0159,-185.6225"/>
<polygon fill="#191970" stroke="#191970" points="446.6016,-189.0833 456.2353,-184.6741 445.9546,-182.1133 446.6016,-189.0833"/>
</g>
<!-- Node35&#45;&gt;Node20 -->
<g id="edge74" class="edge">
<title>Node35&#45;&gt;Node20</title>
<path fill="none" stroke="#191970" d="M219.2964,-470.4603C211.7942,-453.8189 202.4124,-426.2744 209,-403 226.4205,-341.4525 273.2789,-280.284 297.7099,-251.3207"/>
<polygon fill="#191970" stroke="#191970" points="300.3807,-253.5828 304.2393,-243.7156 295.0696,-249.0229 300.3807,-253.5828"/>
</g>
<!-- Node35&#45;&gt;Node32 -->
<g id="edge75" class="edge">
<title>Node35&#45;&gt;Node32</title>
<path fill="none" stroke="#191970" d="M243.3379,-470.2967C254.6648,-459.7564 269.7376,-445.7303 281.3414,-434.9323"/>
<polygon fill="#191970" stroke="#191970" points="283.7956,-437.4296 288.732,-428.055 279.0269,-432.3051 283.7956,-437.4296"/>
</g>
<!-- Node36&#45;&gt;Node16 -->
<g id="edge80" class="edge">
<title>Node36&#45;&gt;Node16</title>
<path fill="none" stroke="#191970" d="M956.8601,-408.9192C987.4668,-401.3063 1025.9885,-388.3 1055,-367 1109.8143,-326.7558 1120.7352,-307.1339 1146,-244 1158.6027,-212.5073 1166.3135,-199.1988 1153,-168 1147.8844,-156.0122 1137.9425,-145.6498 1128.4273,-137.8114"/>
<polygon fill="#191970" stroke="#191970" points="1130.3754,-134.8949 1120.3074,-131.5954 1126.1203,-140.4532 1130.3754,-134.8949"/>
</g>
<!-- Node36&#45;&gt;Node19 -->
<g id="edge78" class="edge">
<title>Node36&#45;&gt;Node19</title>
<path fill="none" stroke="#191970" d="M882.9529,-408.9466C828.4768,-386.3654 691.628,-329.6394 628.6485,-303.5333"/>
<polygon fill="#191970" stroke="#191970" points="629.7769,-300.2123 619.1988,-299.6163 627.0964,-306.6788 629.7769,-300.2123"/>
</g>
<!-- Node36&#45;&gt;Node22 -->
<g id="edge79" class="edge">
<title>Node36&#45;&gt;Node22</title>
<path fill="none" stroke="#191970" d="M930.2851,-408.8964C996.409,-381.442 1170.396,-299.7216 1104,-224 1095.5031,-214.3097 946.6375,-197.414 846.1015,-187.0181"/>
<polygon fill="#191970" stroke="#191970" points="846.2277,-183.5127 835.9219,-185.9705 845.5111,-190.4759 846.2277,-183.5127"/>
</g>
<!-- Node36&#45;&gt;Node33 -->
<g id="edge77" class="edge">
<title>Node36&#45;&gt;Node33</title>
<path fill="none" stroke="#191970" d="M906,-408.9005C906,-399.149 906,-383.7597 906,-371.3695"/>
<polygon fill="#191970" stroke="#191970" points="909.5001,-371.0816 906,-361.0817 902.5001,-371.0817 909.5001,-371.0816"/>
</g>
</g>
</svg>
