<?xml version="1.0" encoding="UTF-8" standalone="no"?>
<!DOCTYPE svg PUBLIC "-//W3C//DTD SVG 1.1//EN"
 "http://www.w3.org/Graphics/SVG/1.1/DTD/svg11.dtd">
<!-- Generated by graphviz version 2.40.1 (20161225.0304)
 -->
<!-- Title: AttitudeEstimator.cpp Pages: 1 -->
<svg width="838pt" height="431pt"
 viewBox="0.00 0.00 838.00 431.00" xmlns="http://www.w3.org/2000/svg" xmlns:xlink="http://www.w3.org/1999/xlink">
<g id="graph0" class="graph" transform="scale(1 1) rotate(0) translate(4 427)">
<title>AttitudeEstimator.cpp</title>
<!-- Node0 -->
<g id="node1" class="node">
<title>Node0</title>
<polygon fill="#bfbfbf" stroke="#000000" points="121.5,-403.5 121.5,-422.5 243.5,-422.5 243.5,-403.5 121.5,-403.5"/>
<text text-anchor="middle" x="182.5" y="-410.5" font-family="FreeSans.ttf" font-size="10.00" fill="#000000">AttitudeEstimator.cpp</text>
</g>
<!-- Node1 -->
<g id="node2" class="node">
<title>Node1</title>
<g id="a_node2"><a xlink:href="AttitudeEstimator_8h.html" target="_top" xlink:title="iDynTree/Estimation\l/AttitudeEstimator.h">
<polygon fill="none" stroke="#000000" points="125,-336.5 125,-366.5 240,-366.5 240,-336.5 125,-336.5"/>
<text text-anchor="start" x="133" y="-354.5" font-family="FreeSans.ttf" font-size="10.00" fill="#000000">iDynTree/Estimation</text>
<text text-anchor="middle" x="182.5" y="-343.5" font-family="FreeSans.ttf" font-size="10.00" fill="#000000">/AttitudeEstimator.h</text>
</a>
</g>
</g>
<!-- Node0&#45;&gt;Node1 -->
<g id="edge1" class="edge">
<title>Node0&#45;&gt;Node1</title>
<path fill="none" stroke="#191970" d="M182.5,-403.3906C182.5,-396.2234 182.5,-386.0862 182.5,-376.671"/>
<polygon fill="#191970" stroke="#191970" points="186.0001,-376.5446 182.5,-366.5446 179.0001,-376.5446 186.0001,-376.5446"/>
</g>
<!-- Node2 -->
<g id="node3" class="node">
<title>Node2</title>
<g id="a_node3"><a xlink:href="VectorFixSize_8h.html" target="_top" xlink:title="iDynTree/Core/VectorFixSize.h">
<polygon fill="none" stroke="#000000" points="47,-168.5 47,-187.5 208,-187.5 208,-168.5 47,-168.5"/>
<text text-anchor="middle" x="127.5" y="-175.5" font-family="FreeSans.ttf" font-size="10.00" fill="#000000">iDynTree/Core/VectorFixSize.h</text>
</a>
</g>
</g>
<!-- Node1&#45;&gt;Node2 -->
<g id="edge2" class="edge">
<title>Node1&#45;&gt;Node2</title>
<path fill="none" stroke="#191970" d="M141.9343,-336.3593C104.6139,-319.9614 51.6606,-289.8347 28.5,-244 15.5541,-218.3802 45.833,-201.1272 76.2249,-190.7066"/>
<polygon fill="#191970" stroke="#191970" points="77.5865,-193.9457 86.0418,-187.5615 75.4507,-187.2795 77.5865,-193.9457"/>
</g>
<!-- Node18 -->
<g id="node19" class="node">
<title>Node18</title>
<g id="a_node19"><a xlink:href="Rotation_8h.html" target="_top" xlink:title="iDynTree/Core/Rotation.h">
<polygon fill="none" stroke="#000000" points="114,-280.5 114,-299.5 251,-299.5 251,-280.5 114,-280.5"/>
<text text-anchor="middle" x="182.5" y="-287.5" font-family="FreeSans.ttf" font-size="10.00" fill="#000000">iDynTree/Core/Rotation.h</text>
</a>
</g>
</g>
<!-- Node1&#45;&gt;Node18 -->
<g id="edge20" class="edge">
<title>Node1&#45;&gt;Node18</title>
<path fill="none" stroke="#191970" d="M182.5,-336.2977C182.5,-328.3834 182.5,-318.6043 182.5,-310.0759"/>
<polygon fill="#191970" stroke="#191970" points="186.0001,-309.8469 182.5,-299.8469 179.0001,-309.847 186.0001,-309.8469"/>
</g>
<!-- Node23 -->
<g id="node24" class="node">
<title>Node23</title>
<polygon fill="none" stroke="#bfbfbf" points="613.5,-112.5 613.5,-131.5 673.5,-131.5 673.5,-112.5 613.5,-112.5"/>
<text text-anchor="middle" x="643.5" y="-119.5" font-family="FreeSans.ttf" font-size="10.00" fill="#000000">iostream</text>
</g>
<!-- Node1&#45;&gt;Node23 -->
<g id="edge39" class="edge">
<title>Node1&#45;&gt;Node23</title>
<path fill="none" stroke="#191970" d="M221.2613,-336.489C270.9617,-316.8673 359.4502,-280.6637 432.5,-244 502.2277,-209.0036 580.9653,-161.1345 619.5662,-137.0879"/>
<polygon fill="#191970" stroke="#191970" points="621.8626,-139.7799 628.4853,-131.5099 618.1509,-133.8449 621.8626,-139.7799"/>
</g>
<!-- Node3 -->
<g id="node4" class="node">
<title>Node3</title>
<g id="a_node4"><a xlink:href="Utils_8h.html" target="_top" xlink:title="iDynTree/Core/Utils.h">
<polygon fill="none" stroke="#000000" points="0,-56.5 0,-75.5 119,-75.5 119,-56.5 0,-56.5"/>
<text text-anchor="middle" x="59.5" y="-63.5" font-family="FreeSans.ttf" font-size="10.00" fill="#000000">iDynTree/Core/Utils.h</text>
</a>
</g>
</g>
<!-- Node2&#45;&gt;Node3 -->
<g id="edge3" class="edge">
<title>Node2&#45;&gt;Node3</title>
<path fill="none" stroke="#191970" d="M116.0044,-168.4572C106.2149,-159.8095 92.3655,-146.2679 83.5,-132 74.4621,-117.4546 68.1171,-99.003 64.2307,-85.3097"/>
<polygon fill="#191970" stroke="#191970" points="67.5799,-84.2844 61.6364,-75.5137 60.8131,-86.0765 67.5799,-84.2844"/>
</g>
<!-- Node6 -->
<g id="node7" class="node">
<title>Node6</title>
<g id="a_node7"><a xlink:href="Span_8h.html" target="_top" xlink:title="iDynTree/Core/Span.h">
<polygon fill="none" stroke="#000000" points="470,-56.5 470,-75.5 591,-75.5 591,-56.5 470,-56.5"/>
<text text-anchor="middle" x="530.5" y="-63.5" font-family="FreeSans.ttf" font-size="10.00" fill="#000000">iDynTree/Core/Span.h</text>
</a>
</g>
</g>
<!-- Node2&#45;&gt;Node6 -->
<g id="edge6" class="edge">
<title>Node2&#45;&gt;Node6</title>
<path fill="none" stroke="#191970" d="M128.4747,-168.0715C130.5001,-153.2636 136.5916,-125.6736 154.5,-112 178.2197,-93.8892 357.3359,-78.3348 459.5566,-70.8168"/>
<polygon fill="#191970" stroke="#191970" points="460.0874,-74.2875 469.807,-70.0709 459.5793,-67.306 460.0874,-74.2875"/>
</g>
<!-- Node7 -->
<g id="node8" class="node">
<title>Node7</title>
<polygon fill="none" stroke="#bfbfbf" points="268.5,-.5 268.5,-19.5 320.5,-19.5 320.5,-.5 268.5,-.5"/>
<text text-anchor="middle" x="294.5" y="-7.5" font-family="FreeSans.ttf" font-size="10.00" fill="#000000">cassert</text>
</g>
<!-- Node2&#45;&gt;Node7 -->
<g id="edge18" class="edge">
<title>Node2&#45;&gt;Node7</title>
<path fill="none" stroke="#191970" d="M126.2336,-168.1988C124.9765,-154.5122 124.5777,-129.4013 135.5,-112 164.1488,-66.357 221.5262,-37.2844 258.9498,-22.3147"/>
<polygon fill="#191970" stroke="#191970" points="260.4025,-25.5056 268.4697,-18.6376 257.8803,-18.9758 260.4025,-25.5056"/>
</g>
<!-- Node15 -->
<g id="node16" class="node">
<title>Node15</title>
<polygon fill="none" stroke="#bfbfbf" points="163.5,-112.5 163.5,-131.5 207.5,-131.5 207.5,-112.5 163.5,-112.5"/>
<text text-anchor="middle" x="185.5" y="-119.5" font-family="FreeSans.ttf" font-size="10.00" fill="#000000">string</text>
</g>
<!-- Node2&#45;&gt;Node15 -->
<g id="edge16" class="edge">
<title>Node2&#45;&gt;Node15</title>
<path fill="none" stroke="#191970" d="M137.6028,-168.2455C146.0028,-160.1352 158.1494,-148.4075 168.1084,-138.7919"/>
<polygon fill="#191970" stroke="#191970" points="170.75,-141.1066 175.5129,-131.6427 165.8878,-136.0707 170.75,-141.1066"/>
</g>
<!-- Node16 -->
<g id="node17" class="node">
<title>Node16</title>
<polygon fill="none" stroke="#bfbfbf" points="225.5,-112.5 225.5,-131.5 281.5,-131.5 281.5,-112.5 225.5,-112.5"/>
<text text-anchor="middle" x="253.5" y="-119.5" font-family="FreeSans.ttf" font-size="10.00" fill="#000000">sstream</text>
</g>
<!-- Node2&#45;&gt;Node16 -->
<g id="edge17" class="edge">
<title>Node2&#45;&gt;Node16</title>
<path fill="none" stroke="#191970" d="M149.1602,-168.3733C169.4772,-159.3435 200.064,-145.7494 222.875,-135.6111"/>
<polygon fill="#191970" stroke="#191970" points="224.4059,-138.7609 232.1225,-131.5011 221.5628,-132.3642 224.4059,-138.7609"/>
</g>
<!-- Node17 -->
<g id="node18" class="node">
<title>Node17</title>
<polygon fill="none" stroke="#bfbfbf" points="299.5,-112.5 299.5,-131.5 349.5,-131.5 349.5,-112.5 299.5,-112.5"/>
<text text-anchor="middle" x="324.5" y="-119.5" font-family="FreeSans.ttf" font-size="10.00" fill="#000000">cstring</text>
</g>
<!-- Node2&#45;&gt;Node17 -->
<g id="edge19" class="edge">
<title>Node2&#45;&gt;Node17</title>
<path fill="none" stroke="#191970" d="M161.8747,-168.4175C192.8857,-159.7464 240.0008,-146.5077 289.6339,-132.2302"/>
<polygon fill="#191970" stroke="#191970" points="290.6177,-135.5892 299.258,-129.4576 288.6799,-128.8627 290.6177,-135.5892"/>
</g>
<!-- Node4 -->
<g id="node5" class="node">
<title>Node4</title>
<polygon fill="none" stroke="#bfbfbf" points="152,-.5 152,-19.5 205,-19.5 205,-.5 152,-.5"/>
<text text-anchor="middle" x="178.5" y="-7.5" font-family="FreeSans.ttf" font-size="10.00" fill="#000000">cstddef</text>
</g>
<!-- Node3&#45;&gt;Node4 -->
<g id="edge4" class="edge">
<title>Node3&#45;&gt;Node4</title>
<path fill="none" stroke="#191970" d="M79.9568,-56.3733C98.9738,-47.4241 127.5175,-33.9917 148.9976,-23.8835"/>
<polygon fill="#191970" stroke="#191970" points="150.7522,-26.926 158.3101,-19.5011 147.7716,-20.5923 150.7522,-26.926"/>
</g>
<!-- Node5 -->
<g id="node6" class="node">
<title>Node5</title>
<polygon fill="none" stroke="#bfbfbf" points="19.5,-.5 19.5,-19.5 99.5,-19.5 99.5,-.5 19.5,-.5"/>
<text text-anchor="middle" x="59.5" y="-7.5" font-family="FreeSans.ttf" font-size="10.00" fill="#000000">CoreExport.h</text>
</g>
<!-- Node3&#45;&gt;Node5 -->
<g id="edge5" class="edge">
<title>Node3&#45;&gt;Node5</title>
<path fill="none" stroke="#191970" d="M59.5,-56.2455C59.5,-48.9382 59.5,-38.6944 59.5,-29.7046"/>
<polygon fill="#191970" stroke="#191970" points="63.0001,-29.6426 59.5,-19.6427 56.0001,-29.6427 63.0001,-29.6426"/>
</g>
<!-- Node6&#45;&gt;Node4 -->
<g id="edge10" class="edge">
<title>Node6&#45;&gt;Node4</title>
<path fill="none" stroke="#191970" d="M470.389,-56.4369C397.2206,-44.7965 275.9483,-25.5031 215.3462,-15.8619"/>
<polygon fill="#191970" stroke="#191970" points="215.5357,-12.3481 205.11,-14.2334 214.4358,-19.2612 215.5357,-12.3481"/>
</g>
<!-- Node6&#45;&gt;Node7 -->
<g id="edge7" class="edge">
<title>Node6&#45;&gt;Node7</title>
<path fill="none" stroke="#191970" d="M485.6286,-56.4489C446.9385,-48.0523 389.3618,-35.1744 330.646,-20.2052"/>
<polygon fill="#191970" stroke="#191970" points="331.3885,-16.7824 320.8323,-17.6862 329.6481,-23.5626 331.3885,-16.7824"/>
</g>
<!-- Node8 -->
<g id="node9" class="node">
<title>Node8</title>
<polygon fill="none" stroke="#bfbfbf" points="338.5,-.5 338.5,-19.5 402.5,-19.5 402.5,-.5 338.5,-.5"/>
<text text-anchor="middle" x="370.5" y="-7.5" font-family="FreeSans.ttf" font-size="10.00" fill="#000000">algorithm</text>
</g>
<!-- Node6&#45;&gt;Node8 -->
<g id="edge8" class="edge">
<title>Node6&#45;&gt;Node8</title>
<path fill="none" stroke="#191970" d="M502.995,-56.3733C476.6198,-47.1419 436.6149,-33.1402 407.4642,-22.9375"/>
<polygon fill="#191970" stroke="#191970" points="408.2409,-19.5012 397.6461,-19.5011 405.9284,-26.1082 408.2409,-19.5012"/>
</g>
<!-- Node9 -->
<g id="node10" class="node">
<title>Node9</title>
<polygon fill="none" stroke="#bfbfbf" points="420.5,-.5 420.5,-19.5 462.5,-19.5 462.5,-.5 420.5,-.5"/>
<text text-anchor="middle" x="441.5" y="-7.5" font-family="FreeSans.ttf" font-size="10.00" fill="#000000">array</text>
</g>
<!-- Node6&#45;&gt;Node9 -->
<g id="edge9" class="edge">
<title>Node6&#45;&gt;Node9</title>
<path fill="none" stroke="#191970" d="M514.9974,-56.2455C501.342,-47.6534 481.2343,-35.0014 465.5011,-25.1018"/>
<polygon fill="#191970" stroke="#191970" points="467.1529,-22.006 456.825,-19.6427 463.4249,-27.9307 467.1529,-22.006"/>
</g>
<!-- Node10 -->
<g id="node11" class="node">
<title>Node10</title>
<polygon fill="none" stroke="#bfbfbf" points="481,-.5 481,-19.5 534,-19.5 534,-.5 481,-.5"/>
<text text-anchor="middle" x="507.5" y="-7.5" font-family="FreeSans.ttf" font-size="10.00" fill="#000000">iterator</text>
</g>
<!-- Node6&#45;&gt;Node10 -->
<g id="edge11" class="edge">
<title>Node6&#45;&gt;Node10</title>
<path fill="none" stroke="#191970" d="M526.4937,-56.2455C523.4265,-48.7776 519.0997,-38.2427 515.3503,-29.1137"/>
<polygon fill="#191970" stroke="#191970" points="518.4972,-27.5631 511.4604,-19.6427 512.0221,-30.2226 518.4972,-27.5631"/>
</g>
<!-- Node11 -->
<g id="node12" class="node">
<title>Node11</title>
<polygon fill="none" stroke="#bfbfbf" points="552.5,-.5 552.5,-19.5 596.5,-19.5 596.5,-.5 552.5,-.5"/>
<text text-anchor="middle" x="574.5" y="-7.5" font-family="FreeSans.ttf" font-size="10.00" fill="#000000">limits</text>
</g>
<!-- Node6&#45;&gt;Node11 -->
<g id="edge12" class="edge">
<title>Node6&#45;&gt;Node11</title>
<path fill="none" stroke="#191970" d="M538.1642,-56.2455C544.3473,-48.3761 553.2063,-37.101 560.6289,-27.6542"/>
<polygon fill="#191970" stroke="#191970" points="563.4975,-29.6683 566.9236,-19.6427 557.9932,-25.3435 563.4975,-29.6683"/>
</g>
<!-- Node12 -->
<g id="node13" class="node">
<title>Node12</title>
<polygon fill="none" stroke="#bfbfbf" points="615,-.5 615,-19.5 680,-19.5 680,-.5 615,-.5"/>
<text text-anchor="middle" x="647.5" y="-7.5" font-family="FreeSans.ttf" font-size="10.00" fill="#000000">stdexcept</text>
</g>
<!-- Node6&#45;&gt;Node12 -->
<g id="edge13" class="edge">
<title>Node6&#45;&gt;Node12</title>
<path fill="none" stroke="#191970" d="M550.613,-56.3733C569.3103,-47.4241 597.3744,-33.9917 618.4934,-23.8835"/>
<polygon fill="#191970" stroke="#191970" points="620.1405,-26.9755 627.6494,-19.5011 617.1183,-20.6614 620.1405,-26.9755"/>
</g>
<!-- Node13 -->
<g id="node14" class="node">
<title>Node13</title>
<polygon fill="none" stroke="#bfbfbf" points="761,-.5 761,-19.5 830,-19.5 830,-.5 761,-.5"/>
<text text-anchor="middle" x="795.5" y="-7.5" font-family="FreeSans.ttf" font-size="10.00" fill="#000000">type_traits</text>
</g>
<!-- Node6&#45;&gt;Node13 -->
<g id="edge14" class="edge">
<title>Node6&#45;&gt;Node13</title>
<path fill="none" stroke="#191970" d="M578.207,-56.4618C621.014,-47.8252 685.8186,-34.5586 750.7799,-20.3456"/>
<polygon fill="#191970" stroke="#191970" points="751.7656,-23.7126 760.7825,-18.1497 750.2646,-16.8754 751.7656,-23.7126"/>
</g>
<!-- Node14 -->
<g id="node15" class="node">
<title>Node14</title>
<polygon fill="none" stroke="#bfbfbf" points="698,-.5 698,-19.5 743,-19.5 743,-.5 698,-.5"/>
<text text-anchor="middle" x="720.5" y="-7.5" font-family="FreeSans.ttf" font-size="10.00" fill="#000000">utility</text>
</g>
<!-- Node6&#45;&gt;Node14 -->
<g id="edge15" class="edge">
<title>Node6&#45;&gt;Node14</title>
<path fill="none" stroke="#191970" d="M564.7067,-56.4287C594.9504,-47.8942 640.4918,-34.8686 688.2589,-20.3259"/>
<polygon fill="#191970" stroke="#191970" points="689.298,-23.6683 697.8382,-17.3981 687.2518,-16.974 689.298,-23.6683"/>
</g>
<!-- Node18&#45;&gt;Node2 -->
<g id="edge38" class="edge">
<title>Node18&#45;&gt;Node2</title>
<path fill="none" stroke="#191970" d="M131.1518,-280.4847C93.8472,-272.4058 47.9731,-259.6439 36.5,-244 19.3982,-220.6812 52.5788,-202.2457 83.5644,-190.8526"/>
<polygon fill="#191970" stroke="#191970" points="84.7615,-194.1419 93.0521,-187.5453 82.4573,-187.532 84.7615,-194.1419"/>
</g>
<!-- Node18&#45;&gt;Node15 -->
<g id="edge21" class="edge">
<title>Node18&#45;&gt;Node15</title>
<path fill="none" stroke="#191970" d="M193.059,-280.2076C201.5009,-271.6048 212.6906,-258.2634 217.5,-244 221.3149,-232.686 225.6913,-197.1514 216.5,-168 213.2675,-157.7477 206.96,-147.6903 200.8738,-139.607"/>
<polygon fill="#191970" stroke="#191970" points="203.5061,-137.2952 194.5123,-131.6949 198.0507,-141.6815 203.5061,-137.2952"/>
</g>
<!-- Node19 -->
<g id="node20" class="node">
<title>Node19</title>
<g id="a_node20"><a xlink:href="GeomVector3_8h.html" target="_top" xlink:title="iDynTree/Core/GeomVector3.h">
<polygon fill="none" stroke="#000000" points="46,-224.5 46,-243.5 209,-243.5 209,-224.5 46,-224.5"/>
<text text-anchor="middle" x="127.5" y="-231.5" font-family="FreeSans.ttf" font-size="10.00" fill="#000000">iDynTree/Core/GeomVector3.h</text>
</a>
</g>
</g>
<!-- Node18&#45;&gt;Node19 -->
<g id="edge22" class="edge">
<title>Node18&#45;&gt;Node19</title>
<path fill="none" stroke="#191970" d="M172.9197,-280.2455C164.9542,-272.1352 153.4359,-260.4075 143.9921,-250.7919"/>
<polygon fill="#191970" stroke="#191970" points="146.4747,-248.3247 136.9705,-243.6427 141.4805,-253.2297 146.4747,-248.3247"/>
</g>
<!-- Node20 -->
<g id="node21" class="node">
<title>Node20</title>
<g id="a_node21"><a xlink:href="RotationRaw_8h.html" target="_top" xlink:title="iDynTree/Core/RotationRaw.h">
<polygon fill="none" stroke="#000000" points="265.5,-224.5 265.5,-243.5 423.5,-243.5 423.5,-224.5 265.5,-224.5"/>
<text text-anchor="middle" x="344.5" y="-231.5" font-family="FreeSans.ttf" font-size="10.00" fill="#000000">iDynTree/Core/RotationRaw.h</text>
</a>
</g>
</g>
<!-- Node18&#45;&gt;Node20 -->
<g id="edge24" class="edge">
<title>Node18&#45;&gt;Node20</title>
<path fill="none" stroke="#191970" d="M210.3488,-280.3733C237.1703,-271.1016 277.9127,-257.0178 307.4598,-246.804"/>
<polygon fill="#191970" stroke="#191970" points="308.7069,-250.0762 317.0146,-243.5011 306.4198,-243.4603 308.7069,-250.0762"/>
</g>
<!-- Node19&#45;&gt;Node2 -->
<g id="edge23" class="edge">
<title>Node19&#45;&gt;Node2</title>
<path fill="none" stroke="#191970" d="M127.5,-224.2455C127.5,-216.9382 127.5,-206.6944 127.5,-197.7046"/>
<polygon fill="#191970" stroke="#191970" points="131.0001,-197.6426 127.5,-187.6427 124.0001,-197.6427 131.0001,-197.6426"/>
</g>
<!-- Node20&#45;&gt;Node15 -->
<g id="edge37" class="edge">
<title>Node20&#45;&gt;Node15</title>
<path fill="none" stroke="#191970" d="M330.972,-224.3452C312.893,-211.4549 279.8402,-187.9318 251.5,-168 236.9269,-157.7507 220.4897,-146.2941 207.6645,-137.3783"/>
<polygon fill="#191970" stroke="#191970" points="209.6396,-134.4887 199.4299,-131.6578 205.6458,-140.2376 209.6396,-134.4887"/>
</g>
<!-- Node21 -->
<g id="node22" class="node">
<title>Node21</title>
<g id="a_node22"><a xlink:href="MatrixFixSize_8h.html" target="_top" xlink:title="iDynTree/Core/MatrixFixSize.h">
<polygon fill="none" stroke="#000000" points="304,-168.5 304,-187.5 465,-187.5 465,-168.5 304,-168.5"/>
<text text-anchor="middle" x="384.5" y="-175.5" font-family="FreeSans.ttf" font-size="10.00" fill="#000000">iDynTree/Core/MatrixFixSize.h</text>
</a>
</g>
</g>
<!-- Node20&#45;&gt;Node21 -->
<g id="edge25" class="edge">
<title>Node20&#45;&gt;Node21</title>
<path fill="none" stroke="#191970" d="M351.4675,-224.2455C357.0311,-216.4564 364.978,-205.3308 371.6829,-195.9439"/>
<polygon fill="#191970" stroke="#191970" points="374.648,-197.8144 377.6124,-187.6427 368.9519,-193.7457 374.648,-197.8144"/>
</g>
<!-- Node21&#45;&gt;Node3 -->
<g id="edge26" class="edge">
<title>Node21&#45;&gt;Node3</title>
<path fill="none" stroke="#191970" d="M383.6282,-168.1509C381.7651,-153.4468 376.0115,-125.9905 358.5,-112 324.0898,-84.5087 206.4284,-73.295 129.3705,-68.8303"/>
<polygon fill="#191970" stroke="#191970" points="129.4265,-65.3281 119.248,-68.2689 129.0388,-72.3174 129.4265,-65.3281"/>
</g>
<!-- Node21&#45;&gt;Node7 -->
<g id="edge32" class="edge">
<title>Node21&#45;&gt;Node7</title>
<path fill="none" stroke="#191970" d="M385.5665,-168.1834C386.6125,-154.9095 387.0988,-130.7427 379.5,-112 365.2655,-76.8901 334.2731,-44.8197 313.9075,-26.3577"/>
<polygon fill="#191970" stroke="#191970" points="315.9812,-23.5198 306.1666,-19.5294 311.3506,-28.7694 315.9812,-23.5198"/>
</g>
<!-- Node21&#45;&gt;Node15 -->
<g id="edge34" class="edge">
<title>Node21&#45;&gt;Node15</title>
<path fill="none" stroke="#191970" d="M347.6599,-168.4209C315.5984,-159.9714 267.6644,-147.0691 217.5308,-132.2237"/>
<polygon fill="#191970" stroke="#191970" points="218.3969,-128.8298 207.8139,-129.3298 216.3988,-135.5386 218.3969,-128.8298"/>
</g>
<!-- Node21&#45;&gt;Node16 -->
<g id="edge36" class="edge">
<title>Node21&#45;&gt;Node16</title>
<path fill="none" stroke="#191970" d="M361.9803,-168.3733C340.7628,-159.3032 308.7724,-145.6279 285.0231,-135.4755"/>
<polygon fill="#191970" stroke="#191970" points="286.2967,-132.2136 275.7258,-131.5011 283.5452,-138.6502 286.2967,-132.2136"/>
</g>
<!-- Node21&#45;&gt;Node17 -->
<g id="edge33" class="edge">
<title>Node21&#45;&gt;Node17</title>
<path fill="none" stroke="#191970" d="M374.0488,-168.2455C365.2731,-160.0549 352.5446,-148.1749 342.186,-138.5069"/>
<polygon fill="#191970" stroke="#191970" points="344.5301,-135.9072 334.8314,-131.6427 339.7539,-141.0246 344.5301,-135.9072"/>
</g>
<!-- Node22 -->
<g id="node23" class="node">
<title>Node22</title>
<g id="a_node23"><a xlink:href="MatrixView_8h.html" target="_top" xlink:title="iDynTree/Core/MatrixView.h">
<polygon fill="none" stroke="#000000" points="444,-112.5 444,-131.5 595,-131.5 595,-112.5 444,-112.5"/>
<text text-anchor="middle" x="519.5" y="-119.5" font-family="FreeSans.ttf" font-size="10.00" fill="#000000">iDynTree/Core/MatrixView.h</text>
</a>
</g>
</g>
<!-- Node21&#45;&gt;Node22 -->
<g id="edge27" class="edge">
<title>Node21&#45;&gt;Node22</title>
<path fill="none" stroke="#191970" d="M407.7073,-168.3733C429.6699,-159.2629 462.8332,-145.5062 487.3401,-135.3404"/>
<polygon fill="#191970" stroke="#191970" points="488.6997,-138.5657 496.5955,-131.5011 486.0176,-132.0999 488.6997,-138.5657"/>
</g>
<!-- Node21&#45;&gt;Node23 -->
<g id="edge35" class="edge">
<title>Node21&#45;&gt;Node23</title>
<path fill="none" stroke="#191970" d="M433.1362,-168.4824C475.6259,-160.0206 539.1988,-147.0076 603.4083,-132.1833"/>
<polygon fill="#191970" stroke="#191970" points="604.3501,-135.5578 613.2991,-129.8864 602.7666,-128.7393 604.3501,-135.5578"/>
</g>
<!-- Node22&#45;&gt;Node3 -->
<g id="edge31" class="edge">
<title>Node22&#45;&gt;Node3</title>
<path fill="none" stroke="#191970" d="M443.7981,-112.7841C356.4302,-102.148 213.9331,-84.8005 129.1926,-74.4843"/>
<polygon fill="#191970" stroke="#191970" points="129.502,-70.9962 119.1523,-73.262 128.656,-77.9449 129.502,-70.9962"/>
</g>
<!-- Node22&#45;&gt;Node6 -->
<g id="edge30" class="edge">
<title>Node22&#45;&gt;Node6</title>
<path fill="none" stroke="#191970" d="M521.4161,-112.2455C522.8514,-104.9382 524.8636,-94.6944 526.6295,-85.7046"/>
<polygon fill="#191970" stroke="#191970" points="530.1127,-86.1298 528.6059,-75.6427 523.244,-84.7805 530.1127,-86.1298"/>
</g>
<!-- Node22&#45;&gt;Node7 -->
<g id="edge28" class="edge">
<title>Node22&#45;&gt;Node7</title>
<path fill="none" stroke="#191970" d="M506.5215,-112.284C487.6578,-98.4746 451.2277,-72.967 417.5,-56 389.2173,-41.7721 355.4255,-29.4445 330.4237,-21.1421"/>
<polygon fill="#191970" stroke="#191970" points="331.22,-17.7204 320.6275,-17.9452 329.0483,-24.375 331.22,-17.7204"/>
</g>
<!-- Node22&#45;&gt;Node13 -->
<g id="edge29" class="edge">
<title>Node22&#45;&gt;Node13</title>
<path fill="none" stroke="#191970" d="M543.0316,-112.4509C592.2223,-92.4895 706.0388,-46.3031 762.5039,-23.3897"/>
<polygon fill="#191970" stroke="#191970" points="764.0779,-26.5283 772.028,-19.5249 761.4457,-20.042 764.0779,-26.5283"/>
</g>
</g>
</svg>
