<?xml version="1.0" encoding="UTF-8" standalone="no"?>
<!DOCTYPE svg PUBLIC "-//W3C//DTD SVG 1.1//EN"
 "http://www.w3.org/Graphics/SVG/1.1/DTD/svg11.dtd">
<!-- Generated by graphviz version 2.40.1 (20161225.0304)
 -->
<!-- Title: AttitudeQuaternionEKF.h Pages: 1 -->
<svg width="992pt" height="442pt"
 viewBox="0.00 0.00 992.00 442.00" xmlns="http://www.w3.org/2000/svg" xmlns:xlink="http://www.w3.org/1999/xlink">
<g id="graph0" class="graph" transform="scale(1 1) rotate(0) translate(4 438)">
<title>AttitudeQuaternionEKF.h</title>
<!-- Node0 -->
<g id="node1" class="node">
<title>Node0</title>
<polygon fill="#bfbfbf" stroke="#000000" points="673.5,-414.5 673.5,-433.5 808.5,-433.5 808.5,-414.5 673.5,-414.5"/>
<text text-anchor="middle" x="741" y="-421.5" font-family="FreeSans.ttf" font-size="10.00" fill="#000000">AttitudeQuaternionEKF.h</text>
</g>
<!-- Node1 -->
<g id="node2" class="node">
<title>Node1</title>
<g id="a_node2"><a xlink:href="AttitudeEstimator_8h.html" target="_top" xlink:title="iDynTree/Estimation\l/AttitudeEstimator.h">
<polygon fill="none" stroke="#000000" points="206.5,-347.5 206.5,-377.5 321.5,-377.5 321.5,-347.5 206.5,-347.5"/>
<text text-anchor="start" x="214.5" y="-365.5" font-family="FreeSans.ttf" font-size="10.00" fill="#000000">iDynTree/Estimation</text>
<text text-anchor="middle" x="264" y="-354.5" font-family="FreeSans.ttf" font-size="10.00" fill="#000000">/AttitudeEstimator.h</text>
</a>
</g>
</g>
<!-- Node0&#45;&gt;Node1 -->
<g id="edge1" class="edge">
<title>Node0&#45;&gt;Node1</title>
<path fill="none" stroke="#191970" d="M673.4169,-415.2864C582.7185,-403.5926 422.5455,-382.9414 331.758,-371.2361"/>
<polygon fill="#191970" stroke="#191970" points="331.9439,-367.7312 321.5784,-369.9236 331.0487,-374.6737 331.9439,-367.7312"/>
</g>
<!-- Node24 -->
<g id="node25" class="node">
<title>Node24</title>
<g id="a_node25"><a xlink:href="ExtendedKalmanFilter_8h.html" target="_top" xlink:title="iDynTree/Estimation\l/ExtendedKalmanFilter.h">
<polygon fill="none" stroke="#000000" points="673.5,-224.5 673.5,-254.5 808.5,-254.5 808.5,-224.5 673.5,-224.5"/>
<text text-anchor="start" x="681.5" y="-242.5" font-family="FreeSans.ttf" font-size="10.00" fill="#000000">iDynTree/Estimation</text>
<text text-anchor="middle" x="741" y="-231.5" font-family="FreeSans.ttf" font-size="10.00" fill="#000000">/ExtendedKalmanFilter.h</text>
</a>
</g>
</g>
<!-- Node0&#45;&gt;Node24 -->
<g id="edge40" class="edge">
<title>Node0&#45;&gt;Node24</title>
<path fill="none" stroke="#191970" d="M741,-414.3402C741,-386.6387 741,-306.2663 741,-264.8429"/>
<polygon fill="#191970" stroke="#191970" points="744.5001,-264.7363 741,-254.7363 737.5001,-264.7364 744.5001,-264.7363"/>
</g>
<!-- Node28 -->
<g id="node29" class="node">
<title>Node28</title>
<g id="a_node29"><a xlink:href="Direction_8h.html" target="_top" xlink:title="iDynTree/Core/Direction.h">
<polygon fill="none" stroke="#000000" points="836.5,-230 836.5,-249 977.5,-249 977.5,-230 836.5,-230"/>
<text text-anchor="middle" x="907" y="-237" font-family="FreeSans.ttf" font-size="10.00" fill="#000000">iDynTree/Core/Direction.h</text>
</a>
</g>
</g>
<!-- Node0&#45;&gt;Node28 -->
<g id="edge49" class="edge">
<title>Node0&#45;&gt;Node28</title>
<path fill="none" stroke="#191970" d="M749.6912,-414.3402C776.3597,-384.6996 857.2843,-294.7563 891.4814,-256.7481"/>
<polygon fill="#191970" stroke="#191970" points="894.3082,-258.8391 898.3949,-249.0641 889.1044,-254.1571 894.3082,-258.8391"/>
</g>
<!-- Node2 -->
<g id="node3" class="node">
<title>Node2</title>
<g id="a_node3"><a xlink:href="VectorFixSize_8h.html" target="_top" xlink:title="iDynTree/Core/VectorFixSize.h">
<polygon fill="none" stroke="#000000" points="213.5,-168.5 213.5,-187.5 374.5,-187.5 374.5,-168.5 213.5,-168.5"/>
<text text-anchor="middle" x="294" y="-175.5" font-family="FreeSans.ttf" font-size="10.00" fill="#000000">iDynTree/Core/VectorFixSize.h</text>
</a>
</g>
</g>
<!-- Node1&#45;&gt;Node2 -->
<g id="edge2" class="edge">
<title>Node1&#45;&gt;Node2</title>
<path fill="none" stroke="#191970" d="M255.7482,-347.1916C242.7251,-320.8215 220.7656,-265.6519 240,-224 245.8259,-211.384 257.0069,-200.9528 267.6905,-193.2314"/>
<polygon fill="#191970" stroke="#191970" points="269.6856,-196.1076 276.0401,-187.6299 265.7858,-190.2946 269.6856,-196.1076"/>
</g>
<!-- Node18 -->
<g id="node19" class="node">
<title>Node18</title>
<g id="a_node19"><a xlink:href="Rotation_8h.html" target="_top" xlink:title="iDynTree/Core/Rotation.h">
<polygon fill="none" stroke="#000000" points="267.5,-291.5 267.5,-310.5 404.5,-310.5 404.5,-291.5 267.5,-291.5"/>
<text text-anchor="middle" x="336" y="-298.5" font-family="FreeSans.ttf" font-size="10.00" fill="#000000">iDynTree/Core/Rotation.h</text>
</a>
</g>
</g>
<!-- Node1&#45;&gt;Node18 -->
<g id="edge20" class="edge">
<title>Node1&#45;&gt;Node18</title>
<path fill="none" stroke="#191970" d="M281.7978,-347.2977C292.4167,-338.2274 305.9031,-326.7077 316.7667,-317.4285"/>
<polygon fill="#191970" stroke="#191970" points="319.1413,-320.0031 324.4719,-310.8469 314.5949,-314.6805 319.1413,-320.0031"/>
</g>
<!-- Node23 -->
<g id="node24" class="node">
<title>Node23</title>
<polygon fill="none" stroke="#bfbfbf" points="0,-112.5 0,-131.5 60,-131.5 60,-112.5 0,-112.5"/>
<text text-anchor="middle" x="30" y="-119.5" font-family="FreeSans.ttf" font-size="10.00" fill="#000000">iostream</text>
</g>
<!-- Node1&#45;&gt;Node23 -->
<g id="edge39" class="edge">
<title>Node1&#45;&gt;Node23</title>
<path fill="none" stroke="#191970" d="M224.858,-347.4921C168.5907,-323.5155 67.0033,-270.6752 25,-188 17.6896,-173.6109 19.9059,-155.144 23.3958,-141.4052"/>
<polygon fill="#191970" stroke="#191970" points="26.8251,-142.1511 26.3101,-131.5688 20.1135,-140.1626 26.8251,-142.1511"/>
</g>
<!-- Node3 -->
<g id="node4" class="node">
<title>Node3</title>
<g id="a_node4"><a xlink:href="Utils_8h.html" target="_top" xlink:title="iDynTree/Core/Utils.h">
<polygon fill="none" stroke="#000000" points="799.5,-56.5 799.5,-75.5 918.5,-75.5 918.5,-56.5 799.5,-56.5"/>
<text text-anchor="middle" x="859" y="-63.5" font-family="FreeSans.ttf" font-size="10.00" fill="#000000">iDynTree/Core/Utils.h</text>
</a>
</g>
</g>
<!-- Node2&#45;&gt;Node3 -->
<g id="edge3" class="edge">
<title>Node2&#45;&gt;Node3</title>
<path fill="none" stroke="#191970" d="M339.775,-168.4875C383.3416,-159.3674 450.7142,-145.091 509,-132 546.8661,-123.4953 555.9756,-119.7666 594,-112 659.9748,-98.5245 735.7095,-85.6342 789.2739,-76.9458"/>
<polygon fill="#191970" stroke="#191970" points="790.0316,-80.3689 799.3456,-75.3193 788.9155,-73.4585 790.0316,-80.3689"/>
</g>
<!-- Node6 -->
<g id="node7" class="node">
<title>Node6</title>
<g id="a_node7"><a xlink:href="Span_8h.html" target="_top" xlink:title="iDynTree/Core/Span.h">
<polygon fill="none" stroke="#000000" points="502.5,-56.5 502.5,-75.5 623.5,-75.5 623.5,-56.5 502.5,-56.5"/>
<text text-anchor="middle" x="563" y="-63.5" font-family="FreeSans.ttf" font-size="10.00" fill="#000000">iDynTree/Core/Span.h</text>
</a>
</g>
</g>
<!-- Node2&#45;&gt;Node6 -->
<g id="edge6" class="edge">
<title>Node2&#45;&gt;Node6</title>
<path fill="none" stroke="#191970" d="M361.8361,-168.4431C398.1912,-161.5669 442.987,-150.2055 480,-132 505.6033,-119.4065 530.6268,-97.8712 546.3884,-82.8367"/>
<polygon fill="#191970" stroke="#191970" points="549.0366,-85.1424 553.7405,-75.649 544.1431,-80.137 549.0366,-85.1424"/>
</g>
<!-- Node7 -->
<g id="node8" class="node">
<title>Node7</title>
<polygon fill="none" stroke="#bfbfbf" points="252,-.5 252,-19.5 304,-19.5 304,-.5 252,-.5"/>
<text text-anchor="middle" x="278" y="-7.5" font-family="FreeSans.ttf" font-size="10.00" fill="#000000">cassert</text>
</g>
<!-- Node2&#45;&gt;Node7 -->
<g id="edge18" class="edge">
<title>Node2&#45;&gt;Node7</title>
<path fill="none" stroke="#191970" d="M293.0939,-168.4862C290.5647,-141.9293 283.3872,-66.5651 279.9205,-30.1655"/>
<polygon fill="#191970" stroke="#191970" points="283.3684,-29.451 278.936,-19.8279 276.3999,-30.1147 283.3684,-29.451"/>
</g>
<!-- Node15 -->
<g id="node16" class="node">
<title>Node15</title>
<polygon fill="none" stroke="#bfbfbf" points="603,-112.5 603,-131.5 647,-131.5 647,-112.5 603,-112.5"/>
<text text-anchor="middle" x="625" y="-119.5" font-family="FreeSans.ttf" font-size="10.00" fill="#000000">string</text>
</g>
<!-- Node2&#45;&gt;Node15 -->
<g id="edge16" class="edge">
<title>Node2&#45;&gt;Node15</title>
<path fill="none" stroke="#191970" d="M371.1631,-168.4673C430.9449,-160.4803 515.6627,-147.8474 589,-132 590.2482,-131.7303 591.5174,-131.4429 592.7969,-131.1421"/>
<polygon fill="#191970" stroke="#191970" points="593.7995,-134.4988 602.6317,-128.647 592.078,-127.7137 593.7995,-134.4988"/>
</g>
<!-- Node16 -->
<g id="node17" class="node">
<title>Node16</title>
<polygon fill="none" stroke="#bfbfbf" points="207,-112.5 207,-131.5 263,-131.5 263,-112.5 207,-112.5"/>
<text text-anchor="middle" x="235" y="-119.5" font-family="FreeSans.ttf" font-size="10.00" fill="#000000">sstream</text>
</g>
<!-- Node2&#45;&gt;Node16 -->
<g id="edge17" class="edge">
<title>Node2&#45;&gt;Node16</title>
<path fill="none" stroke="#191970" d="M283.723,-168.2455C275.1782,-160.1352 262.8222,-148.4075 252.6915,-138.7919"/>
<polygon fill="#191970" stroke="#191970" points="254.8218,-135.9884 245.1592,-131.6427 250.0028,-141.0655 254.8218,-135.9884"/>
</g>
<!-- Node17 -->
<g id="node18" class="node">
<title>Node17</title>
<polygon fill="none" stroke="#bfbfbf" points="139,-112.5 139,-131.5 189,-131.5 189,-112.5 139,-112.5"/>
<text text-anchor="middle" x="164" y="-119.5" font-family="FreeSans.ttf" font-size="10.00" fill="#000000">cstring</text>
</g>
<!-- Node2&#45;&gt;Node17 -->
<g id="edge19" class="edge">
<title>Node2&#45;&gt;Node17</title>
<path fill="none" stroke="#191970" d="M271.6522,-168.3733C250.5967,-159.3032 218.8505,-145.6279 195.2825,-135.4755"/>
<polygon fill="#191970" stroke="#191970" points="196.625,-132.243 186.0562,-131.5011 193.8556,-138.6719 196.625,-132.243"/>
</g>
<!-- Node4 -->
<g id="node5" class="node">
<title>Node4</title>
<polygon fill="none" stroke="#bfbfbf" points="832.5,-.5 832.5,-19.5 885.5,-19.5 885.5,-.5 832.5,-.5"/>
<text text-anchor="middle" x="859" y="-7.5" font-family="FreeSans.ttf" font-size="10.00" fill="#000000">cstddef</text>
</g>
<!-- Node3&#45;&gt;Node4 -->
<g id="edge4" class="edge">
<title>Node3&#45;&gt;Node4</title>
<path fill="none" stroke="#191970" d="M859,-56.2455C859,-48.9382 859,-38.6944 859,-29.7046"/>
<polygon fill="#191970" stroke="#191970" points="862.5001,-29.6426 859,-19.6427 855.5001,-29.6427 862.5001,-29.6426"/>
</g>
<!-- Node5 -->
<g id="node6" class="node">
<title>Node5</title>
<polygon fill="none" stroke="#bfbfbf" points="904,-.5 904,-19.5 984,-19.5 984,-.5 904,-.5"/>
<text text-anchor="middle" x="944" y="-7.5" font-family="FreeSans.ttf" font-size="10.00" fill="#000000">CoreExport.h</text>
</g>
<!-- Node3&#45;&gt;Node5 -->
<g id="edge5" class="edge">
<title>Node3&#45;&gt;Node5</title>
<path fill="none" stroke="#191970" d="M873.8059,-56.2455C886.7256,-47.7337 905.6931,-35.2375 920.6552,-25.3801"/>
<polygon fill="#191970" stroke="#191970" points="922.9387,-28.067 929.3638,-19.6427 919.0876,-22.2216 922.9387,-28.067"/>
</g>
<!-- Node6&#45;&gt;Node4 -->
<g id="edge10" class="edge">
<title>Node6&#45;&gt;Node4</title>
<path fill="none" stroke="#191970" d="M623.7453,-56.9415C674.3756,-49.0071 748.5634,-36.4936 822.3955,-19.9639"/>
<polygon fill="#191970" stroke="#191970" points="823.3557,-23.3352 832.3359,-17.7132 821.8099,-16.508 823.3557,-23.3352"/>
</g>
<!-- Node6&#45;&gt;Node7 -->
<g id="edge7" class="edge">
<title>Node6&#45;&gt;Node7</title>
<path fill="none" stroke="#191970" d="M502.295,-56.5124C453.7413,-48.5404 383.7601,-36.1954 314.1236,-20.1041"/>
<polygon fill="#191970" stroke="#191970" points="314.8363,-16.6764 304.3022,-17.8088 313.2433,-23.4928 314.8363,-16.6764"/>
</g>
<!-- Node8 -->
<g id="node9" class="node">
<title>Node8</title>
<polygon fill="none" stroke="#bfbfbf" points="690,-.5 690,-19.5 754,-19.5 754,-.5 690,-.5"/>
<text text-anchor="middle" x="722" y="-7.5" font-family="FreeSans.ttf" font-size="10.00" fill="#000000">algorithm</text>
</g>
<!-- Node6&#45;&gt;Node8 -->
<g id="edge8" class="edge">
<title>Node6&#45;&gt;Node8</title>
<path fill="none" stroke="#191970" d="M590.3331,-56.3733C616.5434,-47.1419 656.2984,-33.1402 685.2668,-22.9375"/>
<polygon fill="#191970" stroke="#191970" points="686.7542,-26.1244 695.0236,-19.5011 684.4288,-19.5219 686.7542,-26.1244"/>
</g>
<!-- Node9 -->
<g id="node10" class="node">
<title>Node9</title>
<polygon fill="none" stroke="#bfbfbf" points="772,-.5 772,-19.5 814,-19.5 814,-.5 772,-.5"/>
<text text-anchor="middle" x="793" y="-7.5" font-family="FreeSans.ttf" font-size="10.00" fill="#000000">array</text>
</g>
<!-- Node6&#45;&gt;Node9 -->
<g id="edge9" class="edge">
<title>Node6&#45;&gt;Node9</title>
<path fill="none" stroke="#191970" d="M610.1974,-56.477C648.7022,-48.4086 704.6718,-36.0025 761.8416,-20.1421"/>
<polygon fill="#191970" stroke="#191970" points="763.0902,-23.427 771.7725,-17.355 761.1987,-16.6874 763.0902,-23.427"/>
</g>
<!-- Node10 -->
<g id="node11" class="node">
<title>Node10</title>
<polygon fill="none" stroke="#bfbfbf" points="409.5,-.5 409.5,-19.5 462.5,-19.5 462.5,-.5 409.5,-.5"/>
<text text-anchor="middle" x="436" y="-7.5" font-family="FreeSans.ttf" font-size="10.00" fill="#000000">iterator</text>
</g>
<!-- Node6&#45;&gt;Node10 -->
<g id="edge11" class="edge">
<title>Node6&#45;&gt;Node10</title>
<path fill="none" stroke="#191970" d="M541.1679,-56.3733C520.6897,-47.3435 489.8601,-33.7494 466.8681,-23.6111"/>
<polygon fill="#191970" stroke="#191970" points="468.1093,-20.3333 457.5472,-19.5011 465.285,-26.7383 468.1093,-20.3333"/>
</g>
<!-- Node11 -->
<g id="node12" class="node">
<title>Node11</title>
<polygon fill="none" stroke="#bfbfbf" points="481,-.5 481,-19.5 525,-19.5 525,-.5 481,-.5"/>
<text text-anchor="middle" x="503" y="-7.5" font-family="FreeSans.ttf" font-size="10.00" fill="#000000">limits</text>
</g>
<!-- Node6&#45;&gt;Node11 -->
<g id="edge12" class="edge">
<title>Node6&#45;&gt;Node11</title>
<path fill="none" stroke="#191970" d="M552.5488,-56.2455C543.7731,-48.0549 531.0446,-36.1749 520.686,-26.5069"/>
<polygon fill="#191970" stroke="#191970" points="523.0301,-23.9072 513.3314,-19.6427 518.2539,-29.0246 523.0301,-23.9072"/>
</g>
<!-- Node12 -->
<g id="node13" class="node">
<title>Node12</title>
<polygon fill="none" stroke="#bfbfbf" points="543.5,-.5 543.5,-19.5 608.5,-19.5 608.5,-.5 543.5,-.5"/>
<text text-anchor="middle" x="576" y="-7.5" font-family="FreeSans.ttf" font-size="10.00" fill="#000000">stdexcept</text>
</g>
<!-- Node6&#45;&gt;Node12 -->
<g id="edge13" class="edge">
<title>Node6&#45;&gt;Node12</title>
<path fill="none" stroke="#191970" d="M565.2644,-56.2455C566.9794,-48.8579 569.3912,-38.4689 571.4944,-29.4087"/>
<polygon fill="#191970" stroke="#191970" points="574.9095,-30.1751 573.7615,-19.6427 568.0908,-28.5922 574.9095,-30.1751"/>
</g>
<!-- Node13 -->
<g id="node14" class="node">
<title>Node13</title>
<polygon fill="none" stroke="#bfbfbf" points="322.5,-.5 322.5,-19.5 391.5,-19.5 391.5,-.5 322.5,-.5"/>
<text text-anchor="middle" x="357" y="-7.5" font-family="FreeSans.ttf" font-size="10.00" fill="#000000">type_traits</text>
</g>
<!-- Node6&#45;&gt;Node13 -->
<g id="edge14" class="edge">
<title>Node6&#45;&gt;Node13</title>
<path fill="none" stroke="#191970" d="M527.5873,-56.3733C492.6339,-46.8714 439.0884,-32.3153 401.328,-22.0503"/>
<polygon fill="#191970" stroke="#191970" points="402.1757,-18.6538 391.6077,-19.4079 400.3393,-25.4087 402.1757,-18.6538"/>
</g>
<!-- Node14 -->
<g id="node15" class="node">
<title>Node14</title>
<polygon fill="none" stroke="#bfbfbf" points="626.5,-.5 626.5,-19.5 671.5,-19.5 671.5,-.5 626.5,-.5"/>
<text text-anchor="middle" x="649" y="-7.5" font-family="FreeSans.ttf" font-size="10.00" fill="#000000">utility</text>
</g>
<!-- Node6&#45;&gt;Node14 -->
<g id="edge15" class="edge">
<title>Node6&#45;&gt;Node14</title>
<path fill="none" stroke="#191970" d="M577.9801,-56.2455C591.1751,-47.6534 610.6051,-35.0014 625.8079,-25.1018"/>
<polygon fill="#191970" stroke="#191970" points="627.7215,-28.0325 634.1916,-19.6427 623.9017,-22.1665 627.7215,-28.0325"/>
</g>
<!-- Node18&#45;&gt;Node2 -->
<g id="edge38" class="edge">
<title>Node18&#45;&gt;Node2</title>
<path fill="none" stroke="#191970" d="M298.318,-291.3393C279.7287,-284.4646 258.9848,-273.137 248,-255 240.8625,-243.2151 242.7275,-236.729 248,-224 252.8312,-212.3363 262.2137,-202.0881 271.2518,-194.243"/>
<polygon fill="#191970" stroke="#191970" points="273.7266,-196.7436 279.3148,-187.7423 269.333,-191.2942 273.7266,-196.7436"/>
</g>
<!-- Node18&#45;&gt;Node15 -->
<g id="edge21" class="edge">
<title>Node18&#45;&gt;Node15</title>
<path fill="none" stroke="#191970" d="M404.6877,-298.2919C475.3284,-293.9929 578.7601,-282.9813 606,-255 635.4451,-224.7534 632.7539,-170.8033 628.6477,-141.7797"/>
<polygon fill="#191970" stroke="#191970" points="632.0616,-140.9658 627.0095,-131.6531 625.1514,-142.0837 632.0616,-140.9658"/>
</g>
<!-- Node19 -->
<g id="node20" class="node">
<title>Node19</title>
<g id="a_node20"><a xlink:href="GeomVector3_8h.html" target="_top" xlink:title="iDynTree/Core/GeomVector3.h">
<polygon fill="none" stroke="#000000" points="433.5,-230 433.5,-249 596.5,-249 596.5,-230 433.5,-230"/>
<text text-anchor="middle" x="515" y="-237" font-family="FreeSans.ttf" font-size="10.00" fill="#000000">iDynTree/Core/GeomVector3.h</text>
</a>
</g>
</g>
<!-- Node18&#45;&gt;Node19 -->
<g id="edge22" class="edge">
<title>Node18&#45;&gt;Node19</title>
<path fill="none" stroke="#191970" d="M363.9688,-291.3906C394.5755,-280.8749 443.7899,-263.966 477.6741,-252.3243"/>
<polygon fill="#191970" stroke="#191970" points="478.9076,-255.6014 487.2276,-249.0419 476.633,-248.9812 478.9076,-255.6014"/>
</g>
<!-- Node20 -->
<g id="node21" class="node">
<title>Node20</title>
<g id="a_node21"><a xlink:href="RotationRaw_8h.html" target="_top" xlink:title="iDynTree/Core/RotationRaw.h">
<polygon fill="none" stroke="#000000" points="257,-230 257,-249 415,-249 415,-230 257,-230"/>
<text text-anchor="middle" x="336" y="-237" font-family="FreeSans.ttf" font-size="10.00" fill="#000000">iDynTree/Core/RotationRaw.h</text>
</a>
</g>
</g>
<!-- Node18&#45;&gt;Node20 -->
<g id="edge24" class="edge">
<title>Node18&#45;&gt;Node20</title>
<path fill="none" stroke="#191970" d="M336,-291.3906C336,-282.8657 336,-270.1392 336,-259.4235"/>
<polygon fill="#191970" stroke="#191970" points="339.5001,-259.2448 336,-249.2449 332.5001,-259.2449 339.5001,-259.2448"/>
</g>
<!-- Node19&#45;&gt;Node2 -->
<g id="edge23" class="edge">
<title>Node19&#45;&gt;Node2</title>
<path fill="none" stroke="#191970" d="M480.4688,-229.8906C442.0318,-219.1944 379.8256,-201.8836 337.9464,-190.2294"/>
<polygon fill="#191970" stroke="#191970" points="338.8611,-186.851 328.2888,-187.5419 336.9843,-193.5948 338.8611,-186.851"/>
</g>
<!-- Node20&#45;&gt;Node15 -->
<g id="edge37" class="edge">
<title>Node20&#45;&gt;Node15</title>
<path fill="none" stroke="#191970" d="M387.3771,-229.9486C451.1782,-217.8094 553.5429,-197.3151 569,-188 588.3985,-176.3097 604.3662,-155.5077 614.2189,-140.3749"/>
<polygon fill="#191970" stroke="#191970" points="617.2317,-142.1579 619.5394,-131.8175 611.287,-138.4619 617.2317,-142.1579"/>
</g>
<!-- Node21 -->
<g id="node22" class="node">
<title>Node21</title>
<g id="a_node22"><a xlink:href="MatrixFixSize_8h.html" target="_top" xlink:title="iDynTree/Core/MatrixFixSize.h">
<polygon fill="none" stroke="#000000" points="34.5,-168.5 34.5,-187.5 195.5,-187.5 195.5,-168.5 34.5,-168.5"/>
<text text-anchor="middle" x="115" y="-175.5" font-family="FreeSans.ttf" font-size="10.00" fill="#000000">iDynTree/Core/MatrixFixSize.h</text>
</a>
</g>
</g>
<!-- Node20&#45;&gt;Node21 -->
<g id="edge25" class="edge">
<title>Node20&#45;&gt;Node21</title>
<path fill="none" stroke="#191970" d="M301.4688,-229.8906C263.0318,-219.1944 200.8256,-201.8836 158.9464,-190.2294"/>
<polygon fill="#191970" stroke="#191970" points="159.8611,-186.851 149.2888,-187.5419 157.9843,-193.5948 159.8611,-186.851"/>
</g>
<!-- Node21&#45;&gt;Node3 -->
<g id="edge26" class="edge">
<title>Node21&#45;&gt;Node3</title>
<path fill="none" stroke="#191970" d="M195.7682,-168.6849C299.187,-156.6304 466.7304,-136.6211 480,-132 496.196,-126.3597 496.8233,-117.6954 513,-112 562.4335,-94.5959 703.0209,-79.7106 789.0171,-71.8856"/>
<polygon fill="#191970" stroke="#191970" points="789.5782,-75.3493 799.2241,-70.9666 788.9505,-68.3775 789.5782,-75.3493"/>
</g>
<!-- Node21&#45;&gt;Node7 -->
<g id="edge32" class="edge">
<title>Node21&#45;&gt;Node7</title>
<path fill="none" stroke="#191970" d="M115.0619,-168.1752C115.5996,-154.4606 118.2692,-129.3166 130,-112 158.636,-69.7286 211.1238,-39.8254 245.2772,-23.7479"/>
<polygon fill="#191970" stroke="#191970" points="246.7504,-26.9229 254.389,-19.5811 243.8392,-20.5569 246.7504,-26.9229"/>
</g>
<!-- Node21&#45;&gt;Node15 -->
<g id="edge34" class="edge">
<title>Node21&#45;&gt;Node15</title>
<path fill="none" stroke="#191970" d="M195.529,-168.9406C198.3877,-168.6226 201.2183,-168.3082 204,-168 348.9278,-151.9404 521.9664,-133.1568 592.5853,-125.5076"/>
<polygon fill="#191970" stroke="#191970" points="593.0685,-128.9758 602.6335,-124.4195 592.3148,-122.0165 593.0685,-128.9758"/>
</g>
<!-- Node21&#45;&gt;Node16 -->
<g id="edge36" class="edge">
<title>Node21&#45;&gt;Node16</title>
<path fill="none" stroke="#191970" d="M135.6287,-168.3733C154.8919,-159.3838 183.8486,-145.8706 205.5419,-135.7471"/>
<polygon fill="#191970" stroke="#191970" points="207.0587,-138.9017 214.6405,-131.5011 204.0985,-132.5584 207.0587,-138.9017"/>
</g>
<!-- Node21&#45;&gt;Node17 -->
<g id="edge33" class="edge">
<title>Node21&#45;&gt;Node17</title>
<path fill="none" stroke="#191970" d="M123.5351,-168.2455C130.4912,-160.2958 140.4883,-148.8706 148.8051,-139.3656"/>
<polygon fill="#191970" stroke="#191970" points="151.6116,-141.4732 155.5627,-131.6427 146.3436,-136.8637 151.6116,-141.4732"/>
</g>
<!-- Node22 -->
<g id="node23" class="node">
<title>Node22</title>
<g id="a_node23"><a xlink:href="MatrixView_8h.html" target="_top" xlink:title="iDynTree/Core/MatrixView.h">
<polygon fill="none" stroke="#000000" points="319.5,-112.5 319.5,-131.5 470.5,-131.5 470.5,-112.5 319.5,-112.5"/>
<text text-anchor="middle" x="395" y="-119.5" font-family="FreeSans.ttf" font-size="10.00" fill="#000000">iDynTree/Core/MatrixView.h</text>
</a>
</g>
</g>
<!-- Node21&#45;&gt;Node22 -->
<g id="edge27" class="edge">
<title>Node21&#45;&gt;Node22</title>
<path fill="none" stroke="#191970" d="M162.8156,-168.4369C211.1381,-158.7724 285.8372,-143.8326 337.3936,-133.5213"/>
<polygon fill="#191970" stroke="#191970" points="338.2623,-136.9169 347.3816,-131.5237 336.8894,-130.0529 338.2623,-136.9169"/>
</g>
<!-- Node21&#45;&gt;Node23 -->
<g id="edge35" class="edge">
<title>Node21&#45;&gt;Node23</title>
<path fill="none" stroke="#191970" d="M100.1941,-168.2455C87.2744,-159.7337 68.3069,-147.2375 53.3448,-137.3801"/>
<polygon fill="#191970" stroke="#191970" points="54.9124,-134.2216 44.6362,-131.6427 51.0613,-140.067 54.9124,-134.2216"/>
</g>
<!-- Node22&#45;&gt;Node3 -->
<g id="edge31" class="edge">
<title>Node22&#45;&gt;Node3</title>
<path fill="none" stroke="#191970" d="M470.5823,-112.878C558.801,-102.2309 703.5004,-84.7672 789.1714,-74.4276"/>
<polygon fill="#191970" stroke="#191970" points="789.8101,-77.876 799.3187,-73.2029 788.9713,-70.9264 789.8101,-77.876"/>
</g>
<!-- Node22&#45;&gt;Node6 -->
<g id="edge30" class="edge">
<title>Node22&#45;&gt;Node6</title>
<path fill="none" stroke="#191970" d="M423.8802,-112.3733C451.8161,-103.0613 494.3142,-88.8953 524.9869,-78.671"/>
<polygon fill="#191970" stroke="#191970" points="526.1166,-81.9839 534.4966,-75.5011 523.903,-75.3431 526.1166,-81.9839"/>
</g>
<!-- Node22&#45;&gt;Node7 -->
<g id="edge28" class="edge">
<title>Node22&#45;&gt;Node7</title>
<path fill="none" stroke="#191970" d="M385.0246,-112.4509C365.0787,-93.3574 320.0675,-50.2697 295.2432,-26.5063"/>
<polygon fill="#191970" stroke="#191970" points="297.5941,-23.9116 287.9501,-19.5249 292.7536,-28.9683 297.5941,-23.9116"/>
</g>
<!-- Node22&#45;&gt;Node13 -->
<g id="edge29" class="edge">
<title>Node22&#45;&gt;Node13</title>
<path fill="none" stroke="#191970" d="M391.7601,-112.4509C385.5063,-94.0186 371.6658,-53.2254 363.461,-29.043"/>
<polygon fill="#191970" stroke="#191970" points="366.7591,-27.8701 360.2317,-19.5249 360.1303,-30.1192 366.7591,-27.8701"/>
</g>
<!-- Node24&#45;&gt;Node3 -->
<g id="edge47" class="edge">
<title>Node24&#45;&gt;Node3</title>
<path fill="none" stroke="#191970" d="M808.8153,-224.8909C844.684,-215.6429 883.4515,-202.6806 894,-188 916.9029,-156.1253 890.9892,-109.5425 873.104,-84.1513"/>
<polygon fill="#191970" stroke="#191970" points="875.7252,-81.8076 866.9833,-75.8219 870.0844,-85.9527 875.7252,-81.8076"/>
</g>
<!-- Node25 -->
<g id="node26" class="node">
<title>Node25</title>
<g id="a_node26"><a xlink:href="VectorDynSize_8h.html" target="_top" xlink:title="iDynTree/Core/VectorDynSize.h">
<polygon fill="none" stroke="#000000" points="652.5,-168.5 652.5,-187.5 819.5,-187.5 819.5,-168.5 652.5,-168.5"/>
<text text-anchor="middle" x="736" y="-175.5" font-family="FreeSans.ttf" font-size="10.00" fill="#000000">iDynTree/Core/VectorDynSize.h</text>
</a>
</g>
</g>
<!-- Node24&#45;&gt;Node25 -->
<g id="edge41" class="edge">
<title>Node24&#45;&gt;Node25</title>
<path fill="none" stroke="#191970" d="M739.764,-224.2977C739.1206,-216.3834 738.3256,-206.6043 737.6322,-198.0759"/>
<polygon fill="#191970" stroke="#191970" points="741.0995,-197.5304 736.8006,-187.8469 734.1225,-198.0977 741.0995,-197.5304"/>
</g>
<!-- Node26 -->
<g id="node27" class="node">
<title>Node26</title>
<g id="a_node27"><a xlink:href="MatrixDynSize_8h.html" target="_top" xlink:title="iDynTree/Core/MatrixDynSize.h">
<polygon fill="none" stroke="#000000" points="392.5,-168.5 392.5,-187.5 559.5,-187.5 559.5,-168.5 392.5,-168.5"/>
<text text-anchor="middle" x="476" y="-175.5" font-family="FreeSans.ttf" font-size="10.00" fill="#000000">iDynTree/Core/MatrixDynSize.h</text>
</a>
</g>
</g>
<!-- Node24&#45;&gt;Node26 -->
<g id="edge44" class="edge">
<title>Node24&#45;&gt;Node26</title>
<path fill="none" stroke="#191970" d="M676.1737,-224.4554C630.2124,-213.7889 569.4009,-199.6761 526.9136,-189.8158"/>
<polygon fill="#191970" stroke="#191970" points="527.598,-186.3817 517.0656,-187.5303 526.0155,-193.2005 527.598,-186.3817"/>
</g>
<!-- Node27 -->
<g id="node28" class="node">
<title>Node27</title>
<polygon fill="none" stroke="#bfbfbf" points="837.5,-168.5 837.5,-187.5 884.5,-187.5 884.5,-168.5 837.5,-168.5"/>
<text text-anchor="middle" x="861" y="-175.5" font-family="FreeSans.ttf" font-size="10.00" fill="#000000">vector</text>
</g>
<!-- Node24&#45;&gt;Node27 -->
<g id="edge48" class="edge">
<title>Node24&#45;&gt;Node27</title>
<path fill="none" stroke="#191970" d="M770.3553,-224.4554C789.5873,-214.599 814.5612,-201.7999 833.4241,-192.1327"/>
<polygon fill="#191970" stroke="#191970" points="835.1013,-195.206 842.4043,-187.5303 831.9086,-188.9765 835.1013,-195.206"/>
</g>
<!-- Node25&#45;&gt;Node6 -->
<g id="edge42" class="edge">
<title>Node25&#45;&gt;Node6</title>
<path fill="none" stroke="#191970" d="M725.7381,-168.2035C711.071,-154.5225 682.9033,-129.4181 656,-112 636.6859,-99.4954 613.4922,-88.0171 595.099,-79.6542"/>
<polygon fill="#191970" stroke="#191970" points="596.5222,-76.4567 585.964,-75.5759 593.6685,-82.8486 596.5222,-76.4567"/>
</g>
<!-- Node25&#45;&gt;Node15 -->
<g id="edge43" class="edge">
<title>Node25&#45;&gt;Node15</title>
<path fill="none" stroke="#191970" d="M716.9184,-168.3733C699.2598,-159.4644 672.7947,-146.1127 652.7902,-136.0203"/>
<polygon fill="#191970" stroke="#191970" points="654.3372,-132.8806 643.8326,-131.5011 651.1842,-139.1303 654.3372,-132.8806"/>
</g>
<!-- Node26&#45;&gt;Node15 -->
<g id="edge45" class="edge">
<title>Node26&#45;&gt;Node15</title>
<path fill="none" stroke="#191970" d="M501.614,-168.3733C526.9579,-158.848 565.8156,-144.2438 593.1385,-133.9748"/>
<polygon fill="#191970" stroke="#191970" points="594.5072,-137.1995 602.6365,-130.4051 592.0445,-130.647 594.5072,-137.1995"/>
</g>
<!-- Node26&#45;&gt;Node22 -->
<g id="edge46" class="edge">
<title>Node26&#45;&gt;Node22</title>
<path fill="none" stroke="#191970" d="M461.8909,-168.2455C449.5791,-159.7337 431.5042,-147.2375 417.2462,-137.3801"/>
<polygon fill="#191970" stroke="#191970" points="419.1634,-134.4506 408.9474,-131.6427 415.1826,-140.2085 419.1634,-134.4506"/>
</g>
<!-- Node28&#45;&gt;Node2 -->
<g id="edge51" class="edge">
<title>Node28&#45;&gt;Node2</title>
<path fill="none" stroke="#191970" d="M856.7568,-229.9395C844.1376,-227.7619 830.6007,-225.6166 818,-224 629.3029,-199.7919 578.3762,-206.4481 385.1513,-188.0823"/>
<polygon fill="#191970" stroke="#191970" points="385.2309,-184.5739 374.9419,-187.1013 384.5613,-191.5418 385.2309,-184.5739"/>
</g>
<!-- Node28&#45;&gt;Node3 -->
<g id="edge52" class="edge">
<title>Node28&#45;&gt;Node3</title>
<path fill="none" stroke="#191970" d="M924.0613,-229.9761C937.9837,-221.132 956.6652,-206.547 965,-188 978.8455,-157.1903 983.5302,-140.2413 965,-112 954.6465,-96.2205 937.5872,-85.8264 920.1491,-78.9905"/>
<polygon fill="#191970" stroke="#191970" points="921.0572,-75.5988 910.4625,-75.5472 918.7126,-82.1945 921.0572,-75.5988"/>
</g>
<!-- Node28&#45;&gt;Node15 -->
<g id="edge50" class="edge">
<title>Node28&#45;&gt;Node15</title>
<path fill="none" stroke="#191970" d="M908.4093,-229.589C909.9977,-214.1221 910.5012,-184.329 894,-168 861.1296,-135.4726 721.9788,-125.8046 657.7435,-123.0472"/>
<polygon fill="#191970" stroke="#191970" points="657.5138,-119.5354 647.3825,-122.635 657.2354,-126.5299 657.5138,-119.5354"/>
</g>
</g>
</svg>
