<?xml version="1.0" encoding="UTF-8" standalone="no"?>
<!DOCTYPE svg PUBLIC "-//W3C//DTD SVG 1.1//EN"
 "http://www.w3.org/Graphics/SVG/1.1/DTD/svg11.dtd">
<!-- Generated by graphviz version 2.40.1 (20161225.0304)
 -->
<!-- Title: Axis.cpp Pages: 1 -->
<svg width="1531pt" height="599pt"
 viewBox="0.00 0.00 1531.00 599.00" xmlns="http://www.w3.org/2000/svg" xmlns:xlink="http://www.w3.org/1999/xlink">
<g id="graph0" class="graph" transform="scale(1 1) rotate(0) translate(4 595)">
<title>Axis.cpp</title>
<!-- Node0 -->
<g id="node1" class="node">
<title>Node0</title>
<polygon fill="#bfbfbf" stroke="#000000" points="1221,-571.5 1221,-590.5 1279,-590.5 1279,-571.5 1221,-571.5"/>
<text text-anchor="middle" x="1250" y="-578.5" font-family="FreeSans.ttf" font-size="10.00" fill="#000000">Axis.cpp</text>
</g>
<!-- Node1 -->
<g id="node2" class="node">
<title>Node1</title>
<g id="a_node2"><a xlink:href="Axis_8h.html" target="_top" xlink:title="iDynTree/Core/Axis.h">
<polygon fill="none" stroke="#000000" points="78,-392.5 78,-411.5 196,-411.5 196,-392.5 78,-392.5"/>
<text text-anchor="middle" x="137" y="-399.5" font-family="FreeSans.ttf" font-size="10.00" fill="#000000">iDynTree/Core/Axis.h</text>
</a>
</g>
</g>
<!-- Node0&#45;&gt;Node1 -->
<g id="edge1" class="edge">
<title>Node0&#45;&gt;Node1</title>
<path fill="none" stroke="#191970" d="M1220.9173,-578.0565C1157.3057,-571.4899 1001.091,-554.6637 871,-535 617.5414,-496.6889 317.2269,-438.1114 194.0347,-413.5099"/>
<polygon fill="#191970" stroke="#191970" points="194.5622,-410.0462 184.07,-411.5169 193.1893,-416.9102 194.5622,-410.0462"/>
</g>
<!-- Node17 -->
<g id="node18" class="node">
<title>Node17</title>
<polygon fill="none" stroke="#bfbfbf" points="1194,-112.5 1194,-131.5 1250,-131.5 1250,-112.5 1194,-112.5"/>
<text text-anchor="middle" x="1222" y="-119.5" font-family="FreeSans.ttf" font-size="10.00" fill="#000000">sstream</text>
</g>
<!-- Node0&#45;&gt;Node17 -->
<g id="edge73" class="edge">
<title>Node0&#45;&gt;Node17</title>
<path fill="none" stroke="#191970" d="M1255.4445,-571.2863C1265.9518,-551.599 1288,-505.3072 1288,-463.5 1288,-463.5 1288,-463.5 1288,-234 1288,-195.944 1259.3669,-159.4306 1239.8198,-138.9377"/>
<polygon fill="#191970" stroke="#191970" points="1242.1295,-136.2961 1232.604,-131.6575 1237.1578,-141.2238 1242.1295,-136.2961"/>
</g>
<!-- Node27 -->
<g id="node28" class="node">
<title>Node27</title>
<g id="a_node28"><a xlink:href="Transform_8h.html" target="_top" xlink:title="iDynTree/Core/Transform.h">
<polygon fill="none" stroke="#000000" points="612,-392.5 612,-411.5 758,-411.5 758,-392.5 612,-392.5"/>
<text text-anchor="middle" x="685" y="-399.5" font-family="FreeSans.ttf" font-size="10.00" fill="#000000">iDynTree/Core/Transform.h</text>
</a>
</g>
</g>
<!-- Node0&#45;&gt;Node27 -->
<g id="edge49" class="edge">
<title>Node0&#45;&gt;Node27</title>
<path fill="none" stroke="#191970" d="M1220.7744,-578.2395C1151.6446,-571.4893 979.7762,-553.3544 925,-535 838.4951,-506.014 747.1005,-445.9618 706.546,-417.5476"/>
<polygon fill="#191970" stroke="#191970" points="708.4258,-414.5902 698.2411,-411.6707 704.3823,-420.3042 708.4258,-414.5902"/>
</g>
<!-- Node28 -->
<g id="node29" class="node">
<title>Node28</title>
<g id="a_node29"><a xlink:href="TransformDerivative_8h.html" target="_top" xlink:title="iDynTree/Core/TransformDerivative.h">
<polygon fill="none" stroke="#000000" points="1024.5,-224.5 1024.5,-243.5 1221.5,-243.5 1221.5,-224.5 1024.5,-224.5"/>
<text text-anchor="middle" x="1123" y="-231.5" font-family="FreeSans.ttf" font-size="10.00" fill="#000000">iDynTree/Core/TransformDerivative.h</text>
</a>
</g>
</g>
<!-- Node0&#45;&gt;Node28 -->
<g id="edge54" class="edge">
<title>Node0&#45;&gt;Node28</title>
<path fill="none" stroke="#191970" d="M1250,-571.2511C1250,-551.1182 1250,-503.4826 1250,-463.5 1250,-463.5 1250,-463.5 1250,-346 1250,-297.155 1196.5021,-264.5347 1158.9501,-247.6541"/>
<polygon fill="#191970" stroke="#191970" points="1159.8834,-244.2454 1149.3145,-243.5053 1157.1152,-250.6747 1159.8834,-244.2454"/>
</g>
<!-- Node29 -->
<g id="node30" class="node">
<title>Node29</title>
<g id="a_node30"><a xlink:href="Twist_8h.html" target="_top" xlink:title="iDynTree/Core/Twist.h">
<polygon fill="none" stroke="#000000" points="1100,-515.5 1100,-534.5 1222,-534.5 1222,-515.5 1100,-515.5"/>
<text text-anchor="middle" x="1161" y="-522.5" font-family="FreeSans.ttf" font-size="10.00" fill="#000000">iDynTree/Core/Twist.h</text>
</a>
</g>
</g>
<!-- Node0&#45;&gt;Node29 -->
<g id="edge57" class="edge">
<title>Node0&#45;&gt;Node29</title>
<path fill="none" stroke="#191970" d="M1234.4974,-571.2455C1220.842,-562.6534 1200.7343,-550.0014 1185.0011,-540.1018"/>
<polygon fill="#191970" stroke="#191970" points="1186.6529,-537.006 1176.325,-534.6427 1182.9249,-542.9307 1186.6529,-537.006"/>
</g>
<!-- Node32 -->
<g id="node33" class="node">
<title>Node32</title>
<g id="a_node33"><a xlink:href="SpatialAcc_8h.html" target="_top" xlink:title="iDynTree/Core/SpatialAcc.h">
<polygon fill="none" stroke="#000000" points="934,-515.5 934,-534.5 1082,-534.5 1082,-515.5 934,-515.5"/>
<text text-anchor="middle" x="1008" y="-522.5" font-family="FreeSans.ttf" font-size="10.00" fill="#000000">iDynTree/Core/SpatialAcc.h</text>
</a>
</g>
</g>
<!-- Node0&#45;&gt;Node32 -->
<g id="edge68" class="edge">
<title>Node0&#45;&gt;Node32</title>
<path fill="none" stroke="#191970" d="M1220.8091,-574.2451C1180.8219,-564.9918 1108.3826,-548.229 1059.2475,-536.8589"/>
<polygon fill="#191970" stroke="#191970" points="1059.9739,-533.4346 1049.4422,-534.5899 1058.3957,-540.2544 1059.9739,-533.4346"/>
</g>
<!-- Node33 -->
<g id="node34" class="node">
<title>Node33</title>
<polygon fill="none" stroke="#bfbfbf" points="1316.5,-515.5 1316.5,-534.5 1393.5,-534.5 1393.5,-515.5 1316.5,-515.5"/>
<text text-anchor="middle" x="1355" y="-522.5" font-family="FreeSans.ttf" font-size="10.00" fill="#000000">Eigen/Dense</text>
</g>
<!-- Node0&#45;&gt;Node33 -->
<g id="edge70" class="edge">
<title>Node0&#45;&gt;Node33</title>
<path fill="none" stroke="#191970" d="M1268.2896,-571.2455C1284.7762,-562.4527 1309.2352,-549.4079 1327.9765,-539.4125"/>
<polygon fill="#191970" stroke="#191970" points="1329.7435,-542.4368 1336.92,-534.6427 1326.4494,-536.2604 1329.7435,-542.4368"/>
</g>
<!-- Node34 -->
<g id="node35" class="node">
<title>Node34</title>
<polygon fill="none" stroke="#bfbfbf" points="1411.5,-515.5 1411.5,-534.5 1458.5,-534.5 1458.5,-515.5 1411.5,-515.5"/>
<text text-anchor="middle" x="1435" y="-522.5" font-family="FreeSans.ttf" font-size="10.00" fill="#000000">cmath</text>
</g>
<!-- Node0&#45;&gt;Node34 -->
<g id="edge71" class="edge">
<title>Node0&#45;&gt;Node34</title>
<path fill="none" stroke="#191970" d="M1279.0749,-572.3605C1307.949,-563.7583 1353.7278,-550.06 1401.6373,-535.3992"/>
<polygon fill="#191970" stroke="#191970" points="1402.7077,-538.7319 1411.2432,-532.4554 1400.6566,-532.0391 1402.7077,-538.7319"/>
</g>
<!-- Node35 -->
<g id="node36" class="node">
<title>Node35</title>
<polygon fill="none" stroke="#bfbfbf" points="1477,-515.5 1477,-534.5 1523,-534.5 1523,-515.5 1477,-515.5"/>
<text text-anchor="middle" x="1500" y="-522.5" font-family="FreeSans.ttf" font-size="10.00" fill="#000000">cstdio</text>
</g>
<!-- Node0&#45;&gt;Node35 -->
<g id="edge72" class="edge">
<title>Node0&#45;&gt;Node35</title>
<path fill="none" stroke="#191970" d="M1279.1206,-575.7665C1319.3138,-568.3462 1394.2125,-553.8127 1466.8837,-535.1191"/>
<polygon fill="#191970" stroke="#191970" points="1467.859,-538.4819 1476.6552,-532.5763 1466.0961,-531.7075 1467.859,-538.4819"/>
</g>
<!-- Node2 -->
<g id="node3" class="node">
<title>Node2</title>
<polygon fill="none" stroke="#bfbfbf" points="358,-112.5 358,-131.5 402,-131.5 402,-112.5 358,-112.5"/>
<text text-anchor="middle" x="380" y="-119.5" font-family="FreeSans.ttf" font-size="10.00" fill="#000000">string</text>
</g>
<!-- Node1&#45;&gt;Node2 -->
<g id="edge2" class="edge">
<title>Node1&#45;&gt;Node2</title>
<path fill="none" stroke="#191970" d="M125.9644,-392.1851C96.0286,-364.36 18.0745,-283.1513 57,-224 89.66,-174.3697 271.9931,-139.54 347.376,-127.0663"/>
<polygon fill="#191970" stroke="#191970" points="348.3829,-130.4487 357.6915,-125.3891 347.2594,-123.5394 348.3829,-130.4487"/>
</g>
<!-- Node3 -->
<g id="node4" class="node">
<title>Node3</title>
<g id="a_node4"><a xlink:href="Direction_8h.html" target="_top" xlink:title="iDynTree/Core/Direction.h">
<polygon fill="none" stroke="#000000" points="66.5,-224.5 66.5,-243.5 207.5,-243.5 207.5,-224.5 66.5,-224.5"/>
<text text-anchor="middle" x="137" y="-231.5" font-family="FreeSans.ttf" font-size="10.00" fill="#000000">iDynTree/Core/Direction.h</text>
</a>
</g>
</g>
<!-- Node1&#45;&gt;Node3 -->
<g id="edge3" class="edge">
<title>Node1&#45;&gt;Node3</title>
<path fill="none" stroke="#191970" d="M137,-392.4862C137,-365.9293 137,-290.5651 137,-254.1655"/>
<polygon fill="#191970" stroke="#191970" points="140.5001,-253.8278 137,-243.8279 133.5001,-253.8279 140.5001,-253.8278"/>
</g>
<!-- Node5 -->
<g id="node6" class="node">
<title>Node5</title>
<g id="a_node6"><a xlink:href="Utils_8h.html" target="_top" xlink:title="iDynTree/Core/Utils.h">
<polygon fill="none" stroke="#000000" points="462.5,-56.5 462.5,-75.5 581.5,-75.5 581.5,-56.5 462.5,-56.5"/>
<text text-anchor="middle" x="522" y="-63.5" font-family="FreeSans.ttf" font-size="10.00" fill="#000000">iDynTree/Core/Utils.h</text>
</a>
</g>
</g>
<!-- Node1&#45;&gt;Node5 -->
<g id="edge48" class="edge">
<title>Node1&#45;&gt;Node5</title>
<path fill="none" stroke="#191970" d="M106.9348,-392.4984C66.6066,-377.6545 0,-344.8376 0,-290 0,-290 0,-290 0,-178 0,-132.2616 310.335,-90.4707 452.44,-73.7319"/>
<polygon fill="#191970" stroke="#191970" points="452.8485,-77.2081 462.3743,-72.5703 452.0354,-70.2555 452.8485,-77.2081"/>
</g>
<!-- Node19 -->
<g id="node20" class="node">
<title>Node19</title>
<g id="a_node20"><a xlink:href="Position_8h.html" target="_top" xlink:title="iDynTree/Core/Position.h">
<polygon fill="none" stroke="#000000" points="348,-336.5 348,-355.5 484,-355.5 484,-336.5 348,-336.5"/>
<text text-anchor="middle" x="416" y="-343.5" font-family="FreeSans.ttf" font-size="10.00" fill="#000000">iDynTree/Core/Position.h</text>
</a>
</g>
</g>
<!-- Node1&#45;&gt;Node19 -->
<g id="edge24" class="edge">
<title>Node1&#45;&gt;Node19</title>
<path fill="none" stroke="#191970" d="M184.6448,-392.4369C232.7947,-382.7724 307.2271,-367.8326 358.5993,-357.5213"/>
<polygon fill="#191970" stroke="#191970" points="359.4361,-360.9232 368.5517,-355.5237 358.0585,-354.0601 359.4361,-360.9232"/>
</g>
<!-- Node3&#45;&gt;Node2 -->
<g id="edge4" class="edge">
<title>Node3&#45;&gt;Node2</title>
<path fill="none" stroke="#191970" d="M147.1058,-224.0441C162.1908,-209.7039 192.0438,-183.2834 222,-168 262.9898,-147.0873 314.946,-134.2805 347.8428,-127.6581"/>
<polygon fill="#191970" stroke="#191970" points="348.6657,-131.0638 357.8158,-125.7228 347.3322,-124.1919 348.6657,-131.0638"/>
</g>
<!-- Node4 -->
<g id="node5" class="node">
<title>Node4</title>
<g id="a_node5"><a xlink:href="VectorFixSize_8h.html" target="_top" xlink:title="iDynTree/Core/VectorFixSize.h">
<polygon fill="none" stroke="#000000" points="720.5,-168.5 720.5,-187.5 881.5,-187.5 881.5,-168.5 720.5,-168.5"/>
<text text-anchor="middle" x="801" y="-175.5" font-family="FreeSans.ttf" font-size="10.00" fill="#000000">iDynTree/Core/VectorFixSize.h</text>
</a>
</g>
</g>
<!-- Node3&#45;&gt;Node4 -->
<g id="edge5" class="edge">
<title>Node3&#45;&gt;Node4</title>
<path fill="none" stroke="#191970" d="M207.745,-228.0336C328.9789,-217.809 576.2761,-196.9526 710.1104,-185.6654"/>
<polygon fill="#191970" stroke="#191970" points="710.6647,-189.1312 720.3352,-184.8031 710.0764,-182.1559 710.6647,-189.1312"/>
</g>
<!-- Node3&#45;&gt;Node5 -->
<g id="edge23" class="edge">
<title>Node3&#45;&gt;Node5</title>
<path fill="none" stroke="#191970" d="M141.8099,-224.4952C149.4857,-210.2407 165.8235,-183.3638 187,-168 266.8974,-110.0336 380.2016,-84.566 452.3985,-73.6906"/>
<polygon fill="#191970" stroke="#191970" points="452.9125,-77.1528 462.3052,-72.251 451.9058,-70.2255 452.9125,-77.1528"/>
</g>
<!-- Node4&#45;&gt;Node2 -->
<g id="edge19" class="edge">
<title>Node4&#45;&gt;Node2</title>
<path fill="none" stroke="#191970" d="M729.1059,-168.4369C636.5929,-156.1311 479.7813,-135.2726 412.3756,-126.3065"/>
<polygon fill="#191970" stroke="#191970" points="412.7228,-122.8219 402.3485,-124.9727 411.7997,-129.7608 412.7228,-122.8219"/>
</g>
<!-- Node4&#45;&gt;Node5 -->
<g id="edge6" class="edge">
<title>Node4&#45;&gt;Node5</title>
<path fill="none" stroke="#191970" d="M777.2126,-168.4509C727.4873,-148.4895 612.4336,-102.3031 555.3548,-79.3897"/>
<polygon fill="#191970" stroke="#191970" points="556.3113,-76.0023 545.7272,-75.5249 553.7035,-82.4984 556.3113,-76.0023"/>
</g>
<!-- Node8 -->
<g id="node9" class="node">
<title>Node8</title>
<g id="a_node9"><a xlink:href="Span_8h.html" target="_top" xlink:title="iDynTree/Core/Span.h">
<polygon fill="none" stroke="#000000" points="732.5,-56.5 732.5,-75.5 853.5,-75.5 853.5,-56.5 732.5,-56.5"/>
<text text-anchor="middle" x="793" y="-63.5" font-family="FreeSans.ttf" font-size="10.00" fill="#000000">iDynTree/Core/Span.h</text>
</a>
</g>
</g>
<!-- Node4&#45;&gt;Node8 -->
<g id="edge9" class="edge">
<title>Node4&#45;&gt;Node8</title>
<path fill="none" stroke="#191970" d="M800.3179,-168.4509C799.0131,-150.184 796.1397,-109.9553 794.407,-85.6976"/>
<polygon fill="#191970" stroke="#191970" points="797.884,-85.2501 793.6803,-75.5249 790.9018,-85.7489 797.884,-85.2501"/>
</g>
<!-- Node9 -->
<g id="node10" class="node">
<title>Node9</title>
<polygon fill="none" stroke="#bfbfbf" points="1077,-.5 1077,-19.5 1129,-19.5 1129,-.5 1077,-.5"/>
<text text-anchor="middle" x="1103" y="-7.5" font-family="FreeSans.ttf" font-size="10.00" fill="#000000">cassert</text>
</g>
<!-- Node4&#45;&gt;Node9 -->
<g id="edge21" class="edge">
<title>Node4&#45;&gt;Node9</title>
<path fill="none" stroke="#191970" d="M881.8605,-169.4861C959.434,-160.564 1066.8486,-145.9327 1081,-132 1108.2416,-105.1796 1108.2715,-56.8439 1105.7365,-29.7616"/>
<polygon fill="#191970" stroke="#191970" points="1109.1853,-29.1151 1104.5648,-19.5809 1102.2311,-29.9155 1109.1853,-29.1151"/>
</g>
<!-- Node4&#45;&gt;Node17 -->
<g id="edge20" class="edge">
<title>Node4&#45;&gt;Node17</title>
<path fill="none" stroke="#191970" d="M872.8941,-168.4369C962.6935,-156.4921 1113.0748,-136.4889 1183.4661,-127.1257"/>
<polygon fill="#191970" stroke="#191970" points="1184.2041,-130.5584 1193.6552,-125.7703 1183.281,-123.6195 1184.2041,-130.5584"/>
</g>
<!-- Node18 -->
<g id="node19" class="node">
<title>Node18</title>
<polygon fill="none" stroke="#bfbfbf" points="814,-112.5 814,-131.5 864,-131.5 864,-112.5 814,-112.5"/>
<text text-anchor="middle" x="839" y="-119.5" font-family="FreeSans.ttf" font-size="10.00" fill="#000000">cstring</text>
</g>
<!-- Node4&#45;&gt;Node18 -->
<g id="edge22" class="edge">
<title>Node4&#45;&gt;Node18</title>
<path fill="none" stroke="#191970" d="M807.6191,-168.2455C812.9046,-160.4564 820.4541,-149.3308 826.8238,-139.9439"/>
<polygon fill="#191970" stroke="#191970" points="829.7379,-141.8827 832.4568,-131.6427 823.9455,-137.9522 829.7379,-141.8827"/>
</g>
<!-- Node6 -->
<g id="node7" class="node">
<title>Node6</title>
<polygon fill="none" stroke="#bfbfbf" points="494.5,-.5 494.5,-19.5 547.5,-19.5 547.5,-.5 494.5,-.5"/>
<text text-anchor="middle" x="521" y="-7.5" font-family="FreeSans.ttf" font-size="10.00" fill="#000000">cstddef</text>
</g>
<!-- Node5&#45;&gt;Node6 -->
<g id="edge7" class="edge">
<title>Node5&#45;&gt;Node6</title>
<path fill="none" stroke="#191970" d="M521.8258,-56.2455C521.6953,-48.9382 521.5124,-38.6944 521.3519,-29.7046"/>
<polygon fill="#191970" stroke="#191970" points="524.8503,-29.5786 521.1722,-19.6427 517.8514,-29.7036 524.8503,-29.5786"/>
</g>
<!-- Node7 -->
<g id="node8" class="node">
<title>Node7</title>
<polygon fill="none" stroke="#bfbfbf" points="396,-.5 396,-19.5 476,-19.5 476,-.5 396,-.5"/>
<text text-anchor="middle" x="436" y="-7.5" font-family="FreeSans.ttf" font-size="10.00" fill="#000000">CoreExport.h</text>
</g>
<!-- Node5&#45;&gt;Node7 -->
<g id="edge8" class="edge">
<title>Node5&#45;&gt;Node7</title>
<path fill="none" stroke="#191970" d="M507.0199,-56.2455C493.8249,-47.6534 474.3949,-35.0014 459.1921,-25.1018"/>
<polygon fill="#191970" stroke="#191970" points="461.0983,-22.1665 450.8084,-19.6427 457.2785,-28.0325 461.0983,-22.1665"/>
</g>
<!-- Node8&#45;&gt;Node6 -->
<g id="edge13" class="edge">
<title>Node8&#45;&gt;Node6</title>
<path fill="none" stroke="#191970" d="M737.4236,-56.4382C691.6819,-48.28 624.9611,-35.7216 557.6147,-20.0029"/>
<polygon fill="#191970" stroke="#191970" points="558.2124,-16.548 547.6762,-17.661 556.6068,-23.3614 558.2124,-16.548"/>
</g>
<!-- Node8&#45;&gt;Node9 -->
<g id="edge10" class="edge">
<title>Node8&#45;&gt;Node9</title>
<path fill="none" stroke="#191970" d="M853.7341,-57.8457C907.4164,-50.1843 987.9885,-37.5819 1066.6308,-20.1221"/>
<polygon fill="#191970" stroke="#191970" points="1067.7204,-23.4645 1076.7085,-17.8552 1066.1841,-16.6352 1067.7204,-23.4645"/>
</g>
<!-- Node10 -->
<g id="node11" class="node">
<title>Node10</title>
<polygon fill="none" stroke="#bfbfbf" points="907,-.5 907,-19.5 971,-19.5 971,-.5 907,-.5"/>
<text text-anchor="middle" x="939" y="-7.5" font-family="FreeSans.ttf" font-size="10.00" fill="#000000">algorithm</text>
</g>
<!-- Node8&#45;&gt;Node10 -->
<g id="edge11" class="edge">
<title>Node8&#45;&gt;Node10</title>
<path fill="none" stroke="#191970" d="M818.0983,-56.3733C841.9555,-47.2226 878.0335,-33.3844 904.571,-23.2057"/>
<polygon fill="#191970" stroke="#191970" points="906.1459,-26.3503 914.2292,-19.5011 903.639,-19.8145 906.1459,-26.3503"/>
</g>
<!-- Node11 -->
<g id="node12" class="node">
<title>Node11</title>
<polygon fill="none" stroke="#bfbfbf" points="566,-.5 566,-19.5 608,-19.5 608,-.5 566,-.5"/>
<text text-anchor="middle" x="587" y="-7.5" font-family="FreeSans.ttf" font-size="10.00" fill="#000000">array</text>
</g>
<!-- Node8&#45;&gt;Node11 -->
<g id="edge12" class="edge">
<title>Node8&#45;&gt;Node11</title>
<path fill="none" stroke="#191970" d="M754.2532,-56.4659C718.6794,-47.5585 664.5831,-33.6246 618,-20 617.9016,-19.9712 617.8031,-19.9424 617.7044,-19.9134"/>
<polygon fill="#191970" stroke="#191970" points="618.884,-16.6141 608.2978,-17.0403 616.8392,-23.3088 618.884,-16.6141"/>
</g>
<!-- Node12 -->
<g id="node13" class="node">
<title>Node12</title>
<polygon fill="none" stroke="#bfbfbf" points="626.5,-.5 626.5,-19.5 679.5,-19.5 679.5,-.5 626.5,-.5"/>
<text text-anchor="middle" x="653" y="-7.5" font-family="FreeSans.ttf" font-size="10.00" fill="#000000">iterator</text>
</g>
<!-- Node8&#45;&gt;Node12 -->
<g id="edge14" class="edge">
<title>Node8&#45;&gt;Node12</title>
<path fill="none" stroke="#191970" d="M768.9331,-56.3733C746.1572,-47.2629 711.7656,-33.5062 686.351,-23.3404"/>
<polygon fill="#191970" stroke="#191970" points="687.3375,-19.9654 676.7528,-19.5011 684.7377,-26.4648 687.3375,-19.9654"/>
</g>
<!-- Node13 -->
<g id="node14" class="node">
<title>Node13</title>
<polygon fill="none" stroke="#bfbfbf" points="698,-.5 698,-19.5 742,-19.5 742,-.5 698,-.5"/>
<text text-anchor="middle" x="720" y="-7.5" font-family="FreeSans.ttf" font-size="10.00" fill="#000000">limits</text>
</g>
<!-- Node8&#45;&gt;Node13 -->
<g id="edge15" class="edge">
<title>Node8&#45;&gt;Node13</title>
<path fill="none" stroke="#191970" d="M780.2844,-56.2455C769.398,-47.8943 753.5117,-35.7076 740.78,-25.9408"/>
<polygon fill="#191970" stroke="#191970" points="742.6346,-22.9523 732.5699,-19.6427 738.3739,-28.5063 742.6346,-22.9523"/>
</g>
<!-- Node14 -->
<g id="node15" class="node">
<title>Node14</title>
<polygon fill="none" stroke="#bfbfbf" points="760.5,-.5 760.5,-19.5 825.5,-19.5 825.5,-.5 760.5,-.5"/>
<text text-anchor="middle" x="793" y="-7.5" font-family="FreeSans.ttf" font-size="10.00" fill="#000000">stdexcept</text>
</g>
<!-- Node8&#45;&gt;Node14 -->
<g id="edge16" class="edge">
<title>Node8&#45;&gt;Node14</title>
<path fill="none" stroke="#191970" d="M793,-56.2455C793,-48.9382 793,-38.6944 793,-29.7046"/>
<polygon fill="#191970" stroke="#191970" points="796.5001,-29.6426 793,-19.6427 789.5001,-29.6427 796.5001,-29.6426"/>
</g>
<!-- Node15 -->
<g id="node16" class="node">
<title>Node15</title>
<polygon fill="none" stroke="#bfbfbf" points="989.5,-.5 989.5,-19.5 1058.5,-19.5 1058.5,-.5 989.5,-.5"/>
<text text-anchor="middle" x="1024" y="-7.5" font-family="FreeSans.ttf" font-size="10.00" fill="#000000">type_traits</text>
</g>
<!-- Node8&#45;&gt;Node15 -->
<g id="edge17" class="edge">
<title>Node8&#45;&gt;Node15</title>
<path fill="none" stroke="#191970" d="M832.4478,-56.4369C873.2472,-46.5461 936.8379,-31.1302 979.4299,-20.8049"/>
<polygon fill="#191970" stroke="#191970" points="980.3522,-24.1827 989.2461,-18.4252 978.7029,-17.3798 980.3522,-24.1827"/>
</g>
<!-- Node16 -->
<g id="node17" class="node">
<title>Node16</title>
<polygon fill="none" stroke="#bfbfbf" points="843.5,-.5 843.5,-19.5 888.5,-19.5 888.5,-.5 843.5,-.5"/>
<text text-anchor="middle" x="866" y="-7.5" font-family="FreeSans.ttf" font-size="10.00" fill="#000000">utility</text>
</g>
<!-- Node8&#45;&gt;Node16 -->
<g id="edge18" class="edge">
<title>Node8&#45;&gt;Node16</title>
<path fill="none" stroke="#191970" d="M805.7156,-56.2455C816.602,-47.8943 832.4883,-35.7076 845.22,-25.9408"/>
<polygon fill="#191970" stroke="#191970" points="847.6261,-28.5063 853.4301,-19.6427 843.3654,-22.9523 847.6261,-28.5063"/>
</g>
<!-- Node19&#45;&gt;Node2 -->
<g id="edge47" class="edge">
<title>Node19&#45;&gt;Node2</title>
<path fill="none" stroke="#191970" d="M395.5293,-336.3181C366.4172,-321.2616 314.2343,-289.1947 293,-244 273.282,-202.0326 323.1972,-159.3629 355.3389,-137.3136"/>
<polygon fill="#191970" stroke="#191970" points="357.4633,-140.1045 363.8606,-131.6591 353.5929,-134.2717 357.4633,-140.1045"/>
</g>
<!-- Node20 -->
<g id="node21" class="node">
<title>Node20</title>
<g id="a_node21"><a xlink:href="PositionRaw_8h.html" target="_top" xlink:title="iDynTree/Core/PositionRaw.h">
<polygon fill="none" stroke="#000000" points="302,-224.5 302,-243.5 458,-243.5 458,-224.5 302,-224.5"/>
<text text-anchor="middle" x="380" y="-231.5" font-family="FreeSans.ttf" font-size="10.00" fill="#000000">iDynTree/Core/PositionRaw.h</text>
</a>
</g>
</g>
<!-- Node19&#45;&gt;Node20 -->
<g id="edge25" class="edge">
<title>Node19&#45;&gt;Node20</title>
<path fill="none" stroke="#191970" d="M412.9307,-336.4509C407.0326,-318.1013 394.0113,-277.5908 386.2259,-253.3693"/>
<polygon fill="#191970" stroke="#191970" points="389.4538,-251.9741 383.0616,-243.5249 382.7896,-254.1162 389.4538,-251.9741"/>
</g>
<!-- Node21 -->
<g id="node22" class="node">
<title>Node21</title>
<g id="a_node22"><a xlink:href="Rotation_8h.html" target="_top" xlink:title="iDynTree/Core/Rotation.h">
<polygon fill="none" stroke="#000000" points="616.5,-280.5 616.5,-299.5 753.5,-299.5 753.5,-280.5 616.5,-280.5"/>
<text text-anchor="middle" x="685" y="-287.5" font-family="FreeSans.ttf" font-size="10.00" fill="#000000">iDynTree/Core/Rotation.h</text>
</a>
</g>
</g>
<!-- Node19&#45;&gt;Node21 -->
<g id="edge28" class="edge">
<title>Node19&#45;&gt;Node21</title>
<path fill="none" stroke="#191970" d="M461.9371,-336.4369C508.2645,-326.7925 579.8268,-311.8948 629.3469,-301.5858"/>
<polygon fill="#191970" stroke="#191970" points="630.1756,-304.9884 639.2524,-299.5237 628.7489,-298.1353 630.1756,-304.9884"/>
</g>
<!-- Node20&#45;&gt;Node2 -->
<g id="edge27" class="edge">
<title>Node20&#45;&gt;Node2</title>
<path fill="none" stroke="#191970" d="M380,-224.4509C380,-206.184 380,-165.9553 380,-141.6976"/>
<polygon fill="#191970" stroke="#191970" points="383.5001,-141.5249 380,-131.5249 376.5001,-141.5249 383.5001,-141.5249"/>
</g>
<!-- Node20&#45;&gt;Node4 -->
<g id="edge26" class="edge">
<title>Node20&#45;&gt;Node4</title>
<path fill="none" stroke="#191970" d="M451.8941,-224.4369C526.0642,-214.571 641.563,-199.2078 719.1836,-188.8829"/>
<polygon fill="#191970" stroke="#191970" points="719.9512,-192.3117 729.4024,-187.5237 719.0282,-185.3729 719.9512,-192.3117"/>
</g>
<!-- Node21&#45;&gt;Node2 -->
<g id="edge29" class="edge">
<title>Node21&#45;&gt;Node2</title>
<path fill="none" stroke="#191970" d="M643.4859,-280.4207C614.3814,-272.7914 575.1,-260.6259 543,-244 485.2944,-214.1119 426.4034,-164.2295 397.7924,-138.4868"/>
<polygon fill="#191970" stroke="#191970" points="399.9874,-135.752 390.235,-131.6115 395.2768,-140.9299 399.9874,-135.752"/>
</g>
<!-- Node21&#45;&gt;Node4 -->
<g id="edge46" class="edge">
<title>Node21&#45;&gt;Node4</title>
<path fill="none" stroke="#191970" d="M694.8901,-280.4509C714.6656,-261.3574 759.2921,-218.2697 783.9041,-194.5063"/>
<polygon fill="#191970" stroke="#191970" points="786.372,-196.9888 791.1349,-187.5249 781.5098,-191.9529 786.372,-196.9888"/>
</g>
<!-- Node22 -->
<g id="node23" class="node">
<title>Node22</title>
<g id="a_node23"><a xlink:href="GeomVector3_8h.html" target="_top" xlink:title="iDynTree/Core/GeomVector3.h">
<polygon fill="none" stroke="#000000" points="766.5,-224.5 766.5,-243.5 929.5,-243.5 929.5,-224.5 766.5,-224.5"/>
<text text-anchor="middle" x="848" y="-231.5" font-family="FreeSans.ttf" font-size="10.00" fill="#000000">iDynTree/Core/GeomVector3.h</text>
</a>
</g>
</g>
<!-- Node21&#45;&gt;Node22 -->
<g id="edge30" class="edge">
<title>Node21&#45;&gt;Node22</title>
<path fill="none" stroke="#191970" d="M713.0207,-280.3733C740.0078,-271.1016 781.0017,-257.0178 810.7311,-246.804"/>
<polygon fill="#191970" stroke="#191970" points="812.0248,-250.0605 820.3449,-243.5011 809.7503,-243.4403 812.0248,-250.0605"/>
</g>
<!-- Node23 -->
<g id="node24" class="node">
<title>Node23</title>
<g id="a_node24"><a xlink:href="RotationRaw_8h.html" target="_top" xlink:title="iDynTree/Core/RotationRaw.h">
<polygon fill="none" stroke="#000000" points="552,-224.5 552,-243.5 710,-243.5 710,-224.5 552,-224.5"/>
<text text-anchor="middle" x="631" y="-231.5" font-family="FreeSans.ttf" font-size="10.00" fill="#000000">iDynTree/Core/RotationRaw.h</text>
</a>
</g>
</g>
<!-- Node21&#45;&gt;Node23 -->
<g id="edge32" class="edge">
<title>Node21&#45;&gt;Node23</title>
<path fill="none" stroke="#191970" d="M675.5939,-280.2455C667.8507,-272.2155 656.688,-260.6394 647.4682,-251.0781"/>
<polygon fill="#191970" stroke="#191970" points="649.7591,-248.4117 640.2983,-243.6427 644.7202,-253.2706 649.7591,-248.4117"/>
</g>
<!-- Node22&#45;&gt;Node4 -->
<g id="edge31" class="edge">
<title>Node22&#45;&gt;Node4</title>
<path fill="none" stroke="#191970" d="M839.8132,-224.2455C833.1411,-216.2958 823.5521,-204.8706 815.5747,-195.3656"/>
<polygon fill="#191970" stroke="#191970" points="818.2026,-193.0524 809.093,-187.6427 812.8408,-197.5525 818.2026,-193.0524"/>
</g>
<!-- Node23&#45;&gt;Node2 -->
<g id="edge45" class="edge">
<title>Node23&#45;&gt;Node2</title>
<path fill="none" stroke="#191970" d="M609.5999,-224.4509C565.0501,-204.5722 462.214,-158.6852 410.6479,-135.6756"/>
<polygon fill="#191970" stroke="#191970" points="411.9043,-132.4036 401.346,-131.5249 409.0518,-138.7961 411.9043,-132.4036"/>
</g>
<!-- Node24 -->
<g id="node25" class="node">
<title>Node24</title>
<g id="a_node25"><a xlink:href="MatrixFixSize_8h.html" target="_top" xlink:title="iDynTree/Core/MatrixFixSize.h">
<polygon fill="none" stroke="#000000" points="915.5,-168.5 915.5,-187.5 1076.5,-187.5 1076.5,-168.5 915.5,-168.5"/>
<text text-anchor="middle" x="996" y="-175.5" font-family="FreeSans.ttf" font-size="10.00" fill="#000000">iDynTree/Core/MatrixFixSize.h</text>
</a>
</g>
</g>
<!-- Node23&#45;&gt;Node24 -->
<g id="edge33" class="edge">
<title>Node23&#45;&gt;Node24</title>
<path fill="none" stroke="#191970" d="M693.331,-224.4369C757.2415,-214.6314 856.5459,-199.3957 923.8268,-189.0731"/>
<polygon fill="#191970" stroke="#191970" points="924.5725,-192.4998 933.9261,-187.5237 923.5109,-185.5807 924.5725,-192.4998"/>
</g>
<!-- Node24&#45;&gt;Node2 -->
<g id="edge42" class="edge">
<title>Node24&#45;&gt;Node2</title>
<path fill="none" stroke="#191970" d="M915.4602,-170.2868C907.1994,-169.5084 898.9316,-168.7347 891,-168 710.1987,-151.2527 493.3288,-132.0096 412.4708,-124.8643"/>
<polygon fill="#191970" stroke="#191970" points="412.6871,-121.3698 402.4179,-123.9763 412.0711,-128.3427 412.6871,-121.3698"/>
</g>
<!-- Node24&#45;&gt;Node5 -->
<g id="edge34" class="edge">
<title>Node24&#45;&gt;Node5</title>
<path fill="none" stroke="#191970" d="M978.5834,-168.4403C945.9973,-150.5843 878.5797,-113.7959 873,-112 822.2121,-95.6529 678.8594,-80.3203 591.8632,-72.1456"/>
<polygon fill="#191970" stroke="#191970" points="592.0855,-68.6513 581.804,-71.2087 591.4362,-75.6211 592.0855,-68.6513"/>
</g>
<!-- Node24&#45;&gt;Node9 -->
<g id="edge40" class="edge">
<title>Node24&#45;&gt;Node9</title>
<path fill="none" stroke="#191970" d="M1033.0228,-168.4827C1063.95,-159.6952 1104.4777,-145.9323 1114,-132 1135.1991,-100.983 1121.9018,-54.6769 1111.6234,-28.9536"/>
<polygon fill="#191970" stroke="#191970" points="1114.776,-27.4231 1107.645,-19.5873 1108.3331,-30.1598 1114.776,-27.4231"/>
</g>
<!-- Node24&#45;&gt;Node17 -->
<g id="edge44" class="edge">
<title>Node24&#45;&gt;Node17</title>
<path fill="none" stroke="#191970" d="M1034.594,-168.4369C1076.4059,-158.0764 1142.6843,-141.6534 1184.1881,-131.3693"/>
<polygon fill="#191970" stroke="#191970" points="1185.0568,-134.76 1193.9215,-128.9575 1183.3732,-127.9655 1185.0568,-134.76"/>
</g>
<!-- Node24&#45;&gt;Node18 -->
<g id="edge41" class="edge">
<title>Node24&#45;&gt;Node18</title>
<path fill="none" stroke="#191970" d="M969.0107,-168.3733C942.6595,-158.9741 902.4433,-144.6295 873.7216,-134.3848"/>
<polygon fill="#191970" stroke="#191970" points="874.678,-131.01 864.0833,-130.9469 872.3262,-137.6031 874.678,-131.01"/>
</g>
<!-- Node25 -->
<g id="node26" class="node">
<title>Node25</title>
<g id="a_node26"><a xlink:href="MatrixView_8h.html" target="_top" xlink:title="iDynTree/Core/MatrixView.h">
<polygon fill="none" stroke="#000000" points="920.5,-112.5 920.5,-131.5 1071.5,-131.5 1071.5,-112.5 920.5,-112.5"/>
<text text-anchor="middle" x="996" y="-119.5" font-family="FreeSans.ttf" font-size="10.00" fill="#000000">iDynTree/Core/MatrixView.h</text>
</a>
</g>
</g>
<!-- Node24&#45;&gt;Node25 -->
<g id="edge35" class="edge">
<title>Node24&#45;&gt;Node25</title>
<path fill="none" stroke="#191970" d="M996,-168.2455C996,-160.9382 996,-150.6944 996,-141.7046"/>
<polygon fill="#191970" stroke="#191970" points="999.5001,-141.6426 996,-131.6427 992.5001,-141.6427 999.5001,-141.6426"/>
</g>
<!-- Node26 -->
<g id="node27" class="node">
<title>Node26</title>
<polygon fill="none" stroke="#bfbfbf" points="1282,-112.5 1282,-131.5 1342,-131.5 1342,-112.5 1282,-112.5"/>
<text text-anchor="middle" x="1312" y="-119.5" font-family="FreeSans.ttf" font-size="10.00" fill="#000000">iostream</text>
</g>
<!-- Node24&#45;&gt;Node26 -->
<g id="edge43" class="edge">
<title>Node24&#45;&gt;Node26</title>
<path fill="none" stroke="#191970" d="M1051.7059,-168.4785C1104.9668,-159.3225 1187.5134,-144.9951 1259,-132 1263.1457,-131.2464 1267.4716,-130.4487 1271.7863,-129.6458"/>
<polygon fill="#191970" stroke="#191970" points="1272.5585,-133.0621 1281.7432,-127.7809 1271.2698,-126.1817 1272.5585,-133.0621"/>
</g>
<!-- Node25&#45;&gt;Node5 -->
<g id="edge39" class="edge">
<title>Node25&#45;&gt;Node5</title>
<path fill="none" stroke="#191970" d="M920.3692,-113.0647C829.8585,-102.3715 679.5494,-84.6134 591.7342,-74.2386"/>
<polygon fill="#191970" stroke="#191970" points="591.9465,-70.7395 581.6049,-73.0419 591.1252,-77.6911 591.9465,-70.7395"/>
</g>
<!-- Node25&#45;&gt;Node8 -->
<g id="edge38" class="edge">
<title>Node25&#45;&gt;Node8</title>
<path fill="none" stroke="#191970" d="M961.1031,-112.3733C926.9089,-102.9404 874.6585,-88.5265 837.4958,-78.2747"/>
<polygon fill="#191970" stroke="#191970" points="838.0123,-74.7865 827.4416,-75.5011 836.1507,-81.5345 838.0123,-74.7865"/>
</g>
<!-- Node25&#45;&gt;Node9 -->
<g id="edge36" class="edge">
<title>Node25&#45;&gt;Node9</title>
<path fill="none" stroke="#191970" d="M1005.1228,-112.4509C1023.2849,-93.4401 1064.172,-50.6423 1086.9347,-26.816"/>
<polygon fill="#191970" stroke="#191970" points="1089.5232,-29.1733 1093.9003,-19.5249 1084.4617,-24.3378 1089.5232,-29.1733"/>
</g>
<!-- Node25&#45;&gt;Node15 -->
<g id="edge37" class="edge">
<title>Node25&#45;&gt;Node15</title>
<path fill="none" stroke="#191970" d="M998.3873,-112.4509C1002.9747,-94.1013 1013.1023,-53.5908 1019.1577,-29.3693"/>
<polygon fill="#191970" stroke="#191970" points="1022.5888,-30.0752 1021.6188,-19.5249 1015.7978,-28.3774 1022.5888,-30.0752"/>
</g>
<!-- Node27&#45;&gt;Node2 -->
<g id="edge53" class="edge">
<title>Node27&#45;&gt;Node2</title>
<path fill="none" stroke="#191970" d="M611.8611,-398.7847C484.6316,-391.1781 236,-366.5238 236,-290 236,-290 236,-290 236,-234 236,-177.5572 305.7848,-145.422 348.1938,-131.1043"/>
<polygon fill="#191970" stroke="#191970" points="349.3727,-134.4017 357.8156,-128.001 347.224,-127.7396 349.3727,-134.4017"/>
</g>
<!-- Node27&#45;&gt;Node19 -->
<g id="edge50" class="edge">
<title>Node27&#45;&gt;Node19</title>
<path fill="none" stroke="#191970" d="M639.0629,-392.4369C592.7355,-382.7925 521.1732,-367.8948 471.6531,-357.5858"/>
<polygon fill="#191970" stroke="#191970" points="472.2511,-354.1353 461.7476,-355.5237 470.8244,-360.9884 472.2511,-354.1353"/>
</g>
<!-- Node27&#45;&gt;Node21 -->
<g id="edge51" class="edge">
<title>Node27&#45;&gt;Node21</title>
<path fill="none" stroke="#191970" d="M685,-392.4509C685,-374.184 685,-333.9553 685,-309.6976"/>
<polygon fill="#191970" stroke="#191970" points="688.5001,-309.5249 685,-299.5249 681.5001,-309.5249 688.5001,-309.5249"/>
</g>
<!-- Node27&#45;&gt;Node24 -->
<g id="edge52" class="edge">
<title>Node27&#45;&gt;Node24</title>
<path fill="none" stroke="#191970" d="M704.4798,-392.4833C748.8814,-370.2601 859.8632,-311.6711 939,-244 955.8016,-229.6327 971.9804,-210.1834 982.7809,-196.1233"/>
<polygon fill="#191970" stroke="#191970" points="985.8479,-197.8678 989.0541,-187.7697 980.2505,-193.6643 985.8479,-197.8678"/>
</g>
<!-- Node28&#45;&gt;Node4 -->
<g id="edge55" class="edge">
<title>Node28&#45;&gt;Node4</title>
<path fill="none" stroke="#191970" d="M1068.0121,-224.4369C1011.9781,-214.6918 925.1034,-199.5832 865.7707,-189.2645"/>
<polygon fill="#191970" stroke="#191970" points="866.2129,-185.7889 855.7611,-187.5237 865.0135,-192.6854 866.2129,-185.7889"/>
</g>
<!-- Node28&#45;&gt;Node24 -->
<g id="edge56" class="edge">
<title>Node28&#45;&gt;Node24</title>
<path fill="none" stroke="#191970" d="M1101.1679,-224.3733C1080.6897,-215.3435 1049.8601,-201.7494 1026.8681,-191.6111"/>
<polygon fill="#191970" stroke="#191970" points="1028.1093,-188.3333 1017.5472,-187.5011 1025.285,-194.7383 1028.1093,-188.3333"/>
</g>
<!-- Node30 -->
<g id="node31" class="node">
<title>Node30</title>
<g id="a_node31"><a xlink:href="SpatialMotionVector_8h.html" target="_top" xlink:title="iDynTree/Core/SpatialMotion\lVector.h">
<polygon fill="none" stroke="#000000" points="1066.5,-448.5 1066.5,-478.5 1221.5,-478.5 1221.5,-448.5 1066.5,-448.5"/>
<text text-anchor="start" x="1074.5" y="-466.5" font-family="FreeSans.ttf" font-size="10.00" fill="#000000">iDynTree/Core/SpatialMotion</text>
<text text-anchor="middle" x="1144" y="-455.5" font-family="FreeSans.ttf" font-size="10.00" fill="#000000">Vector.h</text>
</a>
</g>
</g>
<!-- Node29&#45;&gt;Node30 -->
<g id="edge58" class="edge">
<title>Node29&#45;&gt;Node30</title>
<path fill="none" stroke="#191970" d="M1158.3438,-515.3906C1156.3413,-508.1463 1153.5001,-497.8679 1150.874,-488.3676"/>
<polygon fill="#191970" stroke="#191970" points="1154.1965,-487.2506 1148.1587,-478.5446 1147.4496,-489.1157 1154.1965,-487.2506"/>
</g>
<!-- Node30&#45;&gt;Node4 -->
<g id="edge59" class="edge">
<title>Node30&#45;&gt;Node4</title>
<path fill="none" stroke="#191970" d="M1146.8027,-448.3901C1148.8833,-433.4932 1150.2545,-410.3575 1143,-392 1130.6279,-360.6924 1117.0404,-358.4992 1092,-336 1029.3147,-279.6761 1013.8723,-262.6776 939,-224 910.7237,-209.393 876.8443,-198.0198 849.7308,-190.2365"/>
<polygon fill="#191970" stroke="#191970" points="850.6441,-186.8576 840.0707,-187.532 848.7568,-193.5985 850.6441,-186.8576"/>
</g>
<!-- Node30&#45;&gt;Node22 -->
<g id="edge60" class="edge">
<title>Node30&#45;&gt;Node22</title>
<path fill="none" stroke="#191970" d="M1143.0812,-448.3221C1141.4329,-432.7295 1136.8325,-408.4728 1124,-392 1062.9313,-313.6072 951.3106,-267.3465 890.4038,-246.7848"/>
<polygon fill="#191970" stroke="#191970" points="891.3138,-243.3995 880.7207,-243.5886 889.1197,-250.0468 891.3138,-243.3995"/>
</g>
<!-- Node31 -->
<g id="node32" class="node">
<title>Node31</title>
<g id="a_node32"><a xlink:href="SpatialVector_8h.html" target="_top" xlink:title="iDynTree/Core/SpatialVector.h">
<polygon fill="none" stroke="#000000" points="953.5,-392.5 953.5,-411.5 1114.5,-411.5 1114.5,-392.5 953.5,-392.5"/>
<text text-anchor="middle" x="1034" y="-399.5" font-family="FreeSans.ttf" font-size="10.00" fill="#000000">iDynTree/Core/SpatialVector.h</text>
</a>
</g>
</g>
<!-- Node30&#45;&gt;Node31 -->
<g id="edge61" class="edge">
<title>Node30&#45;&gt;Node31</title>
<path fill="none" stroke="#191970" d="M1117.091,-448.4554C1099.7032,-438.734 1077.1951,-426.15 1059.9916,-416.5317"/>
<polygon fill="#191970" stroke="#191970" points="1061.4826,-413.3554 1051.0461,-411.5303 1058.0665,-419.4653 1061.4826,-413.3554"/>
</g>
<!-- Node31&#45;&gt;Node5 -->
<g id="edge64" class="edge">
<title>Node31&#45;&gt;Node5</title>
<path fill="none" stroke="#191970" d="M953.4704,-392.5535C809.7555,-374.5953 524,-333.4278 524,-290 524,-290 524,-290 524,-178 524,-145.7064 523.1585,-108.1836 522.5672,-85.8029"/>
<polygon fill="#191970" stroke="#191970" points="526.0599,-85.4874 522.2866,-75.5873 519.0626,-85.6797 526.0599,-85.4874"/>
</g>
<!-- Node31&#45;&gt;Node17 -->
<g id="edge67" class="edge">
<title>Node31&#45;&gt;Node17</title>
<path fill="none" stroke="#191970" d="M1041.8364,-392.4173C1053.0648,-378.9903 1074.7312,-354.1857 1096,-336 1151.1853,-288.8143 1197.0659,-308.1902 1231,-244 1248.3703,-211.1422 1237.7864,-166.1965 1229.3498,-141.0438"/>
<polygon fill="#191970" stroke="#191970" points="1232.6226,-139.8013 1225.9534,-131.5689 1226.0331,-142.1634 1232.6226,-139.8013"/>
</g>
<!-- Node31&#45;&gt;Node19 -->
<g id="edge62" class="edge">
<title>Node31&#45;&gt;Node19</title>
<path fill="none" stroke="#191970" d="M953.1673,-395.3689C850.2025,-386.8153 666.7935,-371.2209 510,-356 504.8737,-355.5024 499.5916,-354.9764 494.269,-354.4367"/>
<polygon fill="#191970" stroke="#191970" points="494.3183,-350.9235 484.0135,-353.3854 493.6044,-357.887 494.3183,-350.9235"/>
</g>
<!-- Node31&#45;&gt;Node21 -->
<g id="edge63" class="edge">
<title>Node31&#45;&gt;Node21</title>
<path fill="none" stroke="#191970" d="M1004.2445,-392.4509C941.3993,-372.2829 795.1346,-325.3441 724.5295,-302.6857"/>
<polygon fill="#191970" stroke="#191970" points="725.2714,-299.248 714.6802,-299.5249 723.1324,-305.9132 725.2714,-299.248"/>
</g>
<!-- Node31&#45;&gt;Node22 -->
<g id="edge65" class="edge">
<title>Node31&#45;&gt;Node22</title>
<path fill="none" stroke="#191970" d="M1023.4669,-392.4862C993.1737,-365.1246 905.5192,-285.9528 866.7841,-250.9663"/>
<polygon fill="#191970" stroke="#191970" points="868.6479,-247.9334 858.8809,-243.8279 863.9559,-253.1281 868.6479,-247.9334"/>
</g>
<!-- Node31&#45;&gt;Node26 -->
<g id="edge66" class="edge">
<title>Node31&#45;&gt;Node26</title>
<path fill="none" stroke="#191970" d="M1056.4845,-392.4291C1110.8495,-367.8869 1248.847,-296.8856 1302,-188 1308.9903,-173.6801 1311.3564,-155.7028 1312.049,-142.128"/>
<polygon fill="#191970" stroke="#191970" points="1315.5527,-142.0215 1312.302,-131.9376 1308.5548,-141.8477 1315.5527,-142.0215"/>
</g>
<!-- Node32&#45;&gt;Node30 -->
<g id="edge69" class="edge">
<title>Node32&#45;&gt;Node30</title>
<path fill="none" stroke="#191970" d="M1029.25,-515.3906C1048.5081,-506.682 1077.4622,-493.5888 1101.4671,-482.7336"/>
<polygon fill="#191970" stroke="#191970" points="1103.0611,-485.8541 1110.7307,-478.5446 1100.1768,-479.4759 1103.0611,-485.8541"/>
</g>
</g>
</svg>
