<?xml version="1.0" encoding="UTF-8" standalone="no"?>
<!DOCTYPE svg PUBLIC "-//W3C//DTD SVG 1.1//EN"
 "http://www.w3.org/Graphics/SVG/1.1/DTD/svg11.dtd">
<!-- Generated by graphviz version 2.40.1 (20161225.0304)
 -->
<!-- Title: BerdyHelper.cpp Pages: 1 -->
<svg width="3313pt" height="766pt"
 viewBox="0.00 0.00 3312.50 766.00" xmlns="http://www.w3.org/2000/svg" xmlns:xlink="http://www.w3.org/1999/xlink">
<g id="graph0" class="graph" transform="scale(1 1) rotate(0) translate(4 762)">
<title>BerdyHelper.cpp</title>
<!-- Node0 -->
<g id="node1" class="node">
<title>Node0</title>
<polygon fill="#bfbfbf" stroke="#000000" points="992.5,-738.5 992.5,-757.5 1089.5,-757.5 1089.5,-738.5 992.5,-738.5"/>
<text text-anchor="middle" x="1041" y="-745.5" font-family="FreeSans.ttf" font-size="10.00" fill="#000000">BerdyHelper.cpp</text>
</g>
<!-- Node1 -->
<g id="node2" class="node">
<title>Node1</title>
<g id="a_node2"><a xlink:href="BerdyHelper_8h.html" target="_top" xlink:title="iDynTree/Estimation\l/BerdyHelper.h">
<polygon fill="none" stroke="#000000" points="1329.5,-604.5 1329.5,-634.5 1444.5,-634.5 1444.5,-604.5 1329.5,-604.5"/>
<text text-anchor="start" x="1337.5" y="-622.5" font-family="FreeSans.ttf" font-size="10.00" fill="#000000">iDynTree/Estimation</text>
<text text-anchor="middle" x="1387" y="-611.5" font-family="FreeSans.ttf" font-size="10.00" fill="#000000">/BerdyHelper.h</text>
</a>
</g>
</g>
<!-- Node0&#45;&gt;Node1 -->
<g id="edge1" class="edge">
<title>Node0&#45;&gt;Node1</title>
<path fill="none" stroke="#191970" d="M1089.8804,-741.9507C1133.3244,-735.4944 1197.9794,-723.2052 1251,-702 1290.6235,-686.1529 1331.966,-659.3764 1358.5142,-640.6396"/>
<polygon fill="#191970" stroke="#191970" points="1360.8302,-643.2862 1366.9265,-634.621 1356.7571,-637.5932 1360.8302,-643.2862"/>
</g>
<!-- Node10 -->
<g id="node9" class="node">
<title>Node10</title>
<polygon fill="none" stroke="#bfbfbf" points="0,-.5 0,-19.5 64,-19.5 64,-.5 0,-.5"/>
<text text-anchor="middle" x="32" y="-7.5" font-family="FreeSans.ttf" font-size="10.00" fill="#000000">algorithm</text>
</g>
<!-- Node0&#45;&gt;Node10 -->
<g id="edge156" class="edge">
<title>Node0&#45;&gt;Node10</title>
<path fill="none" stroke="#191970" d="M992.1998,-747.1896C797.6502,-743.7738 86.0103,-729.4434 47,-702 14.5638,-679.1815 13,-659.1584 13,-619.5 13,-619.5 13,-619.5 13,-122 13,-89.2688 20.9852,-51.9052 26.6022,-29.6716"/>
<polygon fill="#191970" stroke="#191970" points="30.0415,-30.3545 29.1965,-19.7934 23.2711,-28.5763 30.0415,-30.3545"/>
</g>
<!-- Node17 -->
<g id="node11" class="node">
<title>Node17</title>
<polygon fill="none" stroke="#bfbfbf" points="720,-56.5 720,-75.5 776,-75.5 776,-56.5 720,-56.5"/>
<text text-anchor="middle" x="748" y="-63.5" font-family="FreeSans.ttf" font-size="10.00" fill="#000000">sstream</text>
</g>
<!-- Node0&#45;&gt;Node17 -->
<g id="edge155" class="edge">
<title>Node0&#45;&gt;Node17</title>
<path fill="none" stroke="#191970" d="M992.2215,-747.3119C800.2727,-744.3971 105.7003,-731.8199 70,-702 41.1223,-677.8789 51,-657.1265 51,-619.5 51,-619.5 51,-619.5 51,-429.5 51,-263.8997 101.1689,-192.2958 246,-112 286.2725,-89.6725 599.6146,-72.9664 709.8191,-67.7294"/>
<polygon fill="#191970" stroke="#191970" points="710.0094,-71.2244 719.834,-67.2586 709.6806,-64.2321 710.0094,-71.2244"/>
</g>
<!-- Node42 -->
<g id="node26" class="node">
<title>Node42</title>
<g id="a_node26"><a xlink:href="Traversal_8h.html" target="_top" xlink:title="iDynTree/Model/Traversal.h">
<polygon fill="none" stroke="#000000" points="2001,-548.5 2001,-567.5 2149,-567.5 2149,-548.5 2001,-548.5"/>
<text text-anchor="middle" x="2075" y="-555.5" font-family="FreeSans.ttf" font-size="10.00" fill="#000000">iDynTree/Model/Traversal.h</text>
</a>
</g>
</g>
<!-- Node0&#45;&gt;Node42 -->
<g id="edge126" class="edge">
<title>Node0&#45;&gt;Node42</title>
<path fill="none" stroke="#191970" d="M1089.5083,-739.2171C1140.4422,-729.9865 1222.8598,-715.0256 1294,-702 1561.9902,-652.9315 1881.5887,-593.8176 2013.4549,-569.4012"/>
<polygon fill="#191970" stroke="#191970" points="2014.179,-572.8267 2023.3745,-567.5644 2012.9044,-565.9437 2014.179,-572.8267"/>
</g>
<!-- Node45 -->
<g id="node30" class="node">
<title>Node45</title>
<g id="a_node30"><a xlink:href="Sensors_8h.html" target="_top" xlink:title="iDynTree/Sensors/Sensors.h">
<polygon fill="none" stroke="#000000" points="662.5,-548.5 662.5,-567.5 813.5,-567.5 813.5,-548.5 662.5,-548.5"/>
<text text-anchor="middle" x="738" y="-555.5" font-family="FreeSans.ttf" font-size="10.00" fill="#000000">iDynTree/Sensors/Sensors.h</text>
</a>
</g>
</g>
<!-- Node0&#45;&gt;Node45 -->
<g id="edge127" class="edge">
<title>Node0&#45;&gt;Node45</title>
<path fill="none" stroke="#191970" d="M1043.1749,-738.3086C1048.3431,-712.4863 1058.3636,-641.4483 1022,-604 1008.201,-589.7894 902.4599,-575.5278 824.0169,-566.7347"/>
<polygon fill="#191970" stroke="#191970" points="823.9515,-563.2061 813.627,-565.5839 823.1808,-570.1636 823.9515,-563.2061"/>
</g>
<!-- Node46 -->
<g id="node31" class="node">
<title>Node46</title>
<g id="a_node31"><a xlink:href="Model_8h.html" target="_top" xlink:title="iDynTree/Model/Model.h">
<polygon fill="none" stroke="#000000" points="2272.5,-487 2272.5,-506 2405.5,-506 2405.5,-487 2272.5,-487"/>
<text text-anchor="middle" x="2339" y="-494" font-family="FreeSans.ttf" font-size="10.00" fill="#000000">iDynTree/Model/Model.h</text>
</a>
</g>
</g>
<!-- Node0&#45;&gt;Node46 -->
<g id="edge125" class="edge">
<title>Node0&#45;&gt;Node46</title>
<path fill="none" stroke="#191970" d="M1089.7323,-745.6812C1191.4952,-740.5207 1433.8999,-726.5643 1636,-702 1816.2431,-680.0923 1865.4666,-688.4198 2039,-635 2145.3625,-602.2578 2262.8005,-539.6044 2313.448,-511.1759"/>
<polygon fill="#191970" stroke="#191970" points="2315.4041,-514.0907 2322.3874,-506.123 2311.9596,-507.9968 2315.4041,-514.0907"/>
</g>
<!-- Node56 -->
<g id="node37" class="node">
<title>Node56</title>
<g id="a_node37"><a xlink:href="ClassicalAcc_8h.html" target="_top" xlink:title="iDynTree/Core/ClassicalAcc.h">
<polygon fill="none" stroke="#000000" points="79,-677 79,-696 237,-696 237,-677 79,-677"/>
<text text-anchor="middle" x="158" y="-684" font-family="FreeSans.ttf" font-size="10.00" fill="#000000">iDynTree/Core/ClassicalAcc.h</text>
</a>
</g>
</g>
<!-- Node0&#45;&gt;Node56 -->
<g id="edge99" class="edge">
<title>Node0&#45;&gt;Node56</title>
<path fill="none" stroke="#191970" d="M992.3027,-746.9759C868.2801,-743.9751 530.5443,-733.343 251,-702 240.6453,-700.839 229.6899,-699.297 219.0728,-697.6353"/>
<polygon fill="#191970" stroke="#191970" points="219.4578,-694.1522 209.0278,-696.014 218.3423,-701.0628 219.4578,-694.1522"/>
</g>
<!-- Node57 -->
<g id="node38" class="node">
<title>Node57</title>
<g id="a_node38"><a xlink:href="EigenHelpers_8h.html" target="_top" xlink:title="iDynTree/Core/EigenHelpers.h">
<polygon fill="none" stroke="#000000" points="799.5,-420 799.5,-439 960.5,-439 960.5,-420 799.5,-420"/>
<text text-anchor="middle" x="880" y="-427" font-family="FreeSans.ttf" font-size="10.00" fill="#000000">iDynTree/Core/EigenHelpers.h</text>
</a>
</g>
</g>
<!-- Node0&#45;&gt;Node57 -->
<g id="edge101" class="edge">
<title>Node0&#45;&gt;Node57</title>
<path fill="none" stroke="#191970" d="M992.349,-744.2375C834.4167,-731.5372 343.6039,-688.0641 298,-635 289.0199,-624.5509 289.5141,-614.8543 298,-604 350.1838,-537.2518 587.2461,-537.6375 668,-512 733.3778,-491.2441 807.6247,-460.6785 848.6147,-443.1672"/>
<polygon fill="#191970" stroke="#191970" points="850.2443,-446.2766 858.0519,-439.1147 847.4823,-439.8445 850.2443,-446.2766"/>
</g>
<!-- Node59 -->
<g id="node41" class="node">
<title>Node59</title>
<g id="a_node41"><a xlink:href="SparseMatrix_8h.html" target="_top" xlink:title="iDynTree/Core/SparseMatrix.h">
<polygon fill="none" stroke="#000000" points="497.5,-487 497.5,-506 658.5,-506 658.5,-487 497.5,-487"/>
<text text-anchor="middle" x="578" y="-494" font-family="FreeSans.ttf" font-size="10.00" fill="#000000">iDynTree/Core/SparseMatrix.h</text>
</a>
</g>
</g>
<!-- Node0&#45;&gt;Node59 -->
<g id="edge113" class="edge">
<title>Node0&#45;&gt;Node59</title>
<path fill="none" stroke="#191970" d="M992.3253,-746.4896C830.2036,-741.2686 317.1612,-723.1412 289,-702 253.1382,-675.0779 238.9454,-640.4969 265,-604 295.0436,-561.9153 437.57,-525.8678 519.5547,-508.1723"/>
<polygon fill="#191970" stroke="#191970" points="520.4346,-511.5635 529.4847,-506.0548 518.9747,-504.7174 520.4346,-511.5635"/>
</g>
<!-- Node60 -->
<g id="node42" class="node">
<title>Node60</title>
<g id="a_node42"><a xlink:href="ForwardKinematics_8h.html" target="_top" xlink:title="iDynTree/Model/ForwardKinematics.h">
<polygon fill="none" stroke="#000000" points="3107.5,-548.5 3107.5,-567.5 3304.5,-567.5 3304.5,-548.5 3107.5,-548.5"/>
<text text-anchor="middle" x="3206" y="-555.5" font-family="FreeSans.ttf" font-size="10.00" fill="#000000">iDynTree/Model/ForwardKinematics.h</text>
</a>
</g>
</g>
<!-- Node0&#45;&gt;Node60 -->
<g id="edge118" class="edge">
<title>Node0&#45;&gt;Node60</title>
<path fill="none" stroke="#191970" d="M1089.6052,-746.9879C1289.8303,-742.6987 2051.4769,-725.1715 2291,-702 2617.6893,-670.396 3005.0709,-597.6535 3148.7108,-569.4584"/>
<polygon fill="#191970" stroke="#191970" points="3149.4917,-572.872 3158.6275,-567.5065 3148.1398,-566.0037 3149.4917,-572.872"/>
</g>
<!-- Node61 -->
<g id="node43" class="node">
<title>Node61</title>
<g id="a_node43"><a xlink:href="Dynamics_8h.html" target="_top" xlink:title="iDynTree/Model/Dynamics.h">
<polygon fill="none" stroke="#000000" points="1131,-487 1131,-506 1283,-506 1283,-487 1131,-487"/>
<text text-anchor="middle" x="1207" y="-494" font-family="FreeSans.ttf" font-size="10.00" fill="#000000">iDynTree/Model/Dynamics.h</text>
</a>
</g>
</g>
<!-- Node0&#45;&gt;Node61 -->
<g id="edge120" class="edge">
<title>Node0&#45;&gt;Node61</title>
<path fill="none" stroke="#191970" d="M1072.6607,-738.4017C1114.6575,-723.7624 1187.0766,-691.43 1218,-635 1238.8656,-596.9239 1224.9498,-543.9182 1214.849,-515.8032"/>
<polygon fill="#191970" stroke="#191970" points="1218.072,-514.4316 1211.245,-506.3296 1211.5294,-516.9206 1218.072,-514.4316"/>
</g>
<!-- Node62 -->
<g id="node44" class="node">
<title>Node62</title>
<g id="a_node44"><a xlink:href="AllSensorsTypes_8h.html" target="_top" xlink:title="iDynTree/Sensors/AllSensors\lTypes.h">
<polygon fill="none" stroke="#000000" points="766.5,-671.5 766.5,-701.5 921.5,-701.5 921.5,-671.5 766.5,-671.5"/>
<text text-anchor="start" x="774.5" y="-689.5" font-family="FreeSans.ttf" font-size="10.00" fill="#000000">iDynTree/Sensors/AllSensors</text>
<text text-anchor="middle" x="844" y="-678.5" font-family="FreeSans.ttf" font-size="10.00" fill="#000000">Types.h</text>
</a>
</g>
</g>
<!-- Node0&#45;&gt;Node62 -->
<g id="edge128" class="edge">
<title>Node0&#45;&gt;Node62</title>
<path fill="none" stroke="#191970" d="M1010.2188,-738.3906C981.3354,-729.3737 937.3951,-715.6563 901.9455,-704.5896"/>
<polygon fill="#191970" stroke="#191970" points="902.7803,-701.1837 892.1916,-701.5446 900.6943,-707.8656 902.7803,-701.1837"/>
</g>
<!-- Node68 -->
<g id="node50" class="node">
<title>Node68</title>
<g id="a_node50"><a xlink:href="ExternalWrenchesEstimation_8h.html" target="_top" xlink:title="iDynTree/Estimation\l/ExternalWrenchesEstimation.h">
<polygon fill="none" stroke="#000000" points="1662.5,-481.5 1662.5,-511.5 1831.5,-511.5 1831.5,-481.5 1662.5,-481.5"/>
<text text-anchor="start" x="1670.5" y="-499.5" font-family="FreeSans.ttf" font-size="10.00" fill="#000000">iDynTree/Estimation</text>
<text text-anchor="middle" x="1747" y="-488.5" font-family="FreeSans.ttf" font-size="10.00" fill="#000000">/ExternalWrenchesEstimation.h</text>
</a>
</g>
</g>
<!-- Node0&#45;&gt;Node68 -->
<g id="edge146" class="edge">
<title>Node0&#45;&gt;Node68</title>
<path fill="none" stroke="#191970" d="M1089.7661,-743.8571C1295.8163,-725.8662 2087.7115,-651.6518 2158,-568 2200.287,-517.6733 1975.9649,-502.7681 1841.8599,-498.3551"/>
<polygon fill="#191970" stroke="#191970" points="1841.6739,-494.8476 1831.5687,-498.0311 1841.4536,-501.8441 1841.6739,-494.8476"/>
</g>
<!-- Node2 -->
<g id="node3" class="node">
<title>Node2</title>
<g id="a_node3"><a xlink:href="Direction_8h.html" target="_top" xlink:title="iDynTree/Core/Direction.h">
<polygon fill="none" stroke="#000000" points="1236.5,-168.5 1236.5,-187.5 1377.5,-187.5 1377.5,-168.5 1236.5,-168.5"/>
<text text-anchor="middle" x="1307" y="-175.5" font-family="FreeSans.ttf" font-size="10.00" fill="#000000">iDynTree/Core/Direction.h</text>
</a>
</g>
</g>
<!-- Node1&#45;&gt;Node2 -->
<g id="edge2" class="edge">
<title>Node1&#45;&gt;Node2</title>
<path fill="none" stroke="#191970" d="M1384.2462,-604.3026C1372.1987,-537.8153 1324.1293,-272.5325 1310.5747,-197.7278"/>
<polygon fill="#191970" stroke="#191970" points="1313.9966,-196.9817 1308.7696,-187.766 1307.1087,-198.2299 1313.9966,-196.9817"/>
</g>
<!-- Node4 -->
<g id="node5" class="node">
<title>Node4</title>
<g id="a_node5"><a xlink:href="VectorFixSize_8h.html" target="_top" xlink:title="iDynTree/Core/VectorFixSize.h">
<polygon fill="none" stroke="#000000" points="911.5,-112.5 911.5,-131.5 1072.5,-131.5 1072.5,-112.5 911.5,-112.5"/>
<text text-anchor="middle" x="992" y="-119.5" font-family="FreeSans.ttf" font-size="10.00" fill="#000000">iDynTree/Core/VectorFixSize.h</text>
</a>
</g>
</g>
<!-- Node1&#45;&gt;Node4 -->
<g id="edge34" class="edge">
<title>Node1&#45;&gt;Node4</title>
<path fill="none" stroke="#191970" d="M1329.3784,-613.2242C1240.8519,-600.0425 1074.7393,-560.4043 1009,-445 1002.1804,-433.0283 1004.7819,-427.1162 1009,-414 1027.9937,-354.9396 1089.0385,-351.4302 1075,-291 1061.3175,-232.1024 1024.0723,-170.0826 1004.4602,-140.2045"/>
<polygon fill="#191970" stroke="#191970" points="1007.2295,-138.0491 998.7644,-131.6779 1001.4087,-141.9374 1007.2295,-138.0491"/>
</g>
<!-- Node5 -->
<g id="node6" class="node">
<title>Node5</title>
<g id="a_node6"><a xlink:href="Utils_8h.html" target="_top" xlink:title="iDynTree/Core/Utils.h">
<polygon fill="none" stroke="#ff0000" points="794.5,-56.5 794.5,-75.5 913.5,-75.5 913.5,-56.5 794.5,-56.5"/>
<text text-anchor="middle" x="854" y="-63.5" font-family="FreeSans.ttf" font-size="10.00" fill="#000000">iDynTree/Core/Utils.h</text>
</a>
</g>
</g>
<!-- Node1&#45;&gt;Node5 -->
<g id="edge35" class="edge">
<title>Node1&#45;&gt;Node5</title>
<path fill="none" stroke="#191970" d="M1329.4494,-614.0455C1208.5598,-602.507 935.8893,-576.0271 894,-568 861.8022,-561.8301 855.1876,-554.2228 823,-548 676.4101,-519.66 619.4356,-584.6519 489,-512 395.4873,-459.9139 375.7753,-423.2337 341,-322 298.2199,-197.4636 425.0908,-153.6792 550,-112 555.5535,-110.1469 696.344,-89.2188 784.3532,-76.2381"/>
<polygon fill="#191970" stroke="#191970" points="784.9002,-79.6954 794.2828,-74.7743 783.8792,-72.7703 784.9002,-79.6954"/>
</g>
<!-- Node19 -->
<g id="node13" class="node">
<title>Node19</title>
<g id="a_node13"><a xlink:href="Position_8h.html" target="_top" xlink:title="iDynTree/Core/Position.h">
<polygon fill="none" stroke="#000000" points="1959,-297 1959,-316 2095,-316 2095,-297 1959,-297"/>
<text text-anchor="middle" x="2027" y="-304" font-family="FreeSans.ttf" font-size="10.00" fill="#000000">iDynTree/Core/Position.h</text>
</a>
</g>
</g>
<!-- Node1&#45;&gt;Node19 -->
<g id="edge15" class="edge">
<title>Node1&#45;&gt;Node19</title>
<path fill="none" stroke="#191970" d="M1444.753,-618.3903C1741.295,-612.3216 3079,-580.3016 3079,-496.5 3079,-496.5 3079,-496.5 3079,-429.5 3079,-331.4959 2349.4404,-311.4204 2105.4248,-307.4466"/>
<polygon fill="#191970" stroke="#191970" points="2105.2682,-303.9438 2095.2141,-307.2852 2105.1575,-310.943 2105.2682,-303.9438"/>
</g>
<!-- Node27 -->
<g id="node17" class="node">
<title>Node27</title>
<g id="a_node17"><a xlink:href="MatrixDynSize_8h.html" target="_top" xlink:title="iDynTree/Core/MatrixDynSize.h">
<polygon fill="none" stroke="#000000" points="1156.5,-358.5 1156.5,-377.5 1323.5,-377.5 1323.5,-358.5 1156.5,-358.5"/>
<text text-anchor="middle" x="1240" y="-365.5" font-family="FreeSans.ttf" font-size="10.00" fill="#000000">iDynTree/Core/MatrixDynSize.h</text>
</a>
</g>
</g>
<!-- Node1&#45;&gt;Node27 -->
<g id="edge25" class="edge">
<title>Node1&#45;&gt;Node27</title>
<path fill="none" stroke="#191970" d="M1378.0258,-604.1461C1352.3612,-560.2371 1278.7209,-434.247 1250.8578,-386.5764"/>
<polygon fill="#191970" stroke="#191970" points="1253.7086,-384.5177 1245.6406,-377.6505 1247.6652,-388.0501 1253.7086,-384.5177"/>
</g>
<!-- Node28 -->
<g id="node19" class="node">
<title>Node28</title>
<g id="a_node19"><a xlink:href="VectorDynSize_8h.html" target="_top" xlink:title="iDynTree/Core/VectorDynSize.h">
<polygon fill="none" stroke="#000000" points="534.5,-358.5 534.5,-377.5 701.5,-377.5 701.5,-358.5 534.5,-358.5"/>
<text text-anchor="middle" x="618" y="-365.5" font-family="FreeSans.ttf" font-size="10.00" fill="#000000">iDynTree/Core/VectorDynSize.h</text>
</a>
</g>
</g>
<!-- Node1&#45;&gt;Node28 -->
<g id="edge31" class="edge">
<title>Node1&#45;&gt;Node28</title>
<path fill="none" stroke="#191970" d="M1329.4561,-613.4863C1208.5411,-599.0149 921.706,-554.9494 709,-445 700.8652,-440.7951 660.4808,-405.5985 636.3284,-384.274"/>
<polygon fill="#191970" stroke="#191970" points="638.6383,-381.6444 628.8299,-377.6388 633.9995,-386.8868 638.6383,-381.6444"/>
</g>
<!-- Node29 -->
<g id="node20" class="node">
<title>Node29</title>
<g id="a_node20"><a xlink:href="Triplets_8h.html" target="_top" xlink:title="iDynTree/Core/Triplets.h">
<polygon fill="none" stroke="#000000" points="497,-420 497,-439 629,-439 629,-420 497,-420"/>
<text text-anchor="middle" x="563" y="-427" font-family="FreeSans.ttf" font-size="10.00" fill="#000000">iDynTree/Core/Triplets.h</text>
</a>
</g>
</g>
<!-- Node1&#45;&gt;Node29 -->
<g id="edge36" class="edge">
<title>Node1&#45;&gt;Node29</title>
<path fill="none" stroke="#191970" d="M1329.4916,-613.7503C1217.68,-602.4389 978.6881,-577.5638 942,-568 919.6363,-562.1702 915.553,-556.342 894,-548 788.5859,-507.1998 662.4701,-463.4174 600.7678,-442.3185"/>
<polygon fill="#191970" stroke="#191970" points="601.671,-438.9285 591.0765,-439.0101 599.4094,-445.5531 601.671,-438.9285"/>
</g>
<!-- Node30 -->
<g id="node21" class="node">
<title>Node30</title>
<polygon fill="none" stroke="#bfbfbf" points="1496.5,-358.5 1496.5,-377.5 1543.5,-377.5 1543.5,-358.5 1496.5,-358.5"/>
<text text-anchor="middle" x="1520" y="-365.5" font-family="FreeSans.ttf" font-size="10.00" fill="#000000">vector</text>
</g>
<!-- Node1&#45;&gt;Node30 -->
<g id="edge98" class="edge">
<title>Node1&#45;&gt;Node30</title>
<path fill="none" stroke="#191970" d="M1392.0476,-604.4987C1401.009,-578.5923 1420.9402,-524.1027 1444,-481 1462.9319,-445.6131 1490.1727,-407.4711 1506.3794,-385.7868"/>
<polygon fill="#191970" stroke="#191970" points="1509.3606,-387.6468 1512.5932,-377.5572 1503.7742,-383.4288 1509.3606,-387.6468"/>
</g>
<!-- Node31 -->
<g id="node22" class="node">
<title>Node31</title>
<g id="a_node22"><a xlink:href="Indices_8h.html" target="_top" xlink:title="iDynTree/Model/Indices.h">
<polygon fill="none" stroke="#ff0000" points="2576,-358.5 2576,-377.5 2714,-377.5 2714,-358.5 2576,-358.5"/>
<text text-anchor="middle" x="2645" y="-365.5" font-family="FreeSans.ttf" font-size="10.00" fill="#000000">iDynTree/Model/Indices.h</text>
</a>
</g>
</g>
<!-- Node1&#45;&gt;Node31 -->
<g id="edge41" class="edge">
<title>Node1&#45;&gt;Node31</title>
<path fill="none" stroke="#191970" d="M1444.7158,-617.7525C1722.558,-609.0666 2911.1163,-568.6854 2964,-512 2993.7119,-480.1521 2992.516,-446.923 2964,-414 2948.4793,-396.0806 2813.7131,-381.7276 2724.3811,-374.0719"/>
<polygon fill="#191970" stroke="#191970" points="2724.5238,-370.5716 2714.2645,-373.2168 2723.9341,-377.5467 2724.5238,-370.5716"/>
</g>
<!-- Node33 -->
<g id="node23" class="node">
<title>Node33</title>
<g id="a_node23"><a xlink:href="LinkState_8h.html" target="_top" xlink:title="iDynTree/Model/LinkState.h">
<polygon fill="none" stroke="#ff0000" points="1756.5,-420 1756.5,-439 1905.5,-439 1905.5,-420 1756.5,-420"/>
<text text-anchor="middle" x="1831" y="-427" font-family="FreeSans.ttf" font-size="10.00" fill="#000000">iDynTree/Model/LinkState.h</text>
</a>
</g>
</g>
<!-- Node1&#45;&gt;Node33 -->
<g id="edge43" class="edge">
<title>Node1&#45;&gt;Node33</title>
<path fill="none" stroke="#191970" d="M1444.6785,-616.5345C1568.3575,-608.8443 1852.5948,-583.6036 1911,-512 1931.8567,-486.4301 1892.373,-459.4648 1861.8102,-443.5797"/>
<polygon fill="#191970" stroke="#191970" points="1863.1979,-440.3605 1852.6882,-439.0194 1860.0677,-446.6216 1863.1979,-440.3605"/>
</g>
<!-- Node1&#45;&gt;Node42 -->
<g id="edge57" class="edge">
<title>Node1&#45;&gt;Node42</title>
<path fill="none" stroke="#191970" d="M1444.5499,-615.0904C1551.4835,-606.7791 1788.0355,-587.8399 1987,-568 1988.1093,-567.8894 1989.2263,-567.777 1990.3497,-567.6631"/>
<polygon fill="#191970" stroke="#191970" points="1991.0125,-571.1132 2000.5982,-566.6004 1990.2905,-564.1505 1991.0125,-571.1132"/>
</g>
<!-- Node43 -->
<g id="node27" class="node">
<title>Node43</title>
<g id="a_node27"><a xlink:href="FreeFloatingState_8h.html" target="_top" xlink:title="iDynTree/Model/FreeFloating\lState.h">
<polygon fill="none" stroke="#ff0000" points="1453,-481.5 1453,-511.5 1607,-511.5 1607,-481.5 1453,-481.5"/>
<text text-anchor="start" x="1461" y="-499.5" font-family="FreeSans.ttf" font-size="10.00" fill="#000000">iDynTree/Model/FreeFloating</text>
<text text-anchor="middle" x="1530" y="-488.5" font-family="FreeSans.ttf" font-size="10.00" fill="#000000">State.h</text>
</a>
</g>
</g>
<!-- Node1&#45;&gt;Node43 -->
<g id="edge60" class="edge">
<title>Node1&#45;&gt;Node43</title>
<path fill="none" stroke="#191970" d="M1404.5346,-604.4178C1429.6216,-582.8395 1475.8993,-543.0342 1504.6956,-518.2653"/>
<polygon fill="#191970" stroke="#191970" points="1507.023,-520.8801 1512.322,-511.7056 1502.4583,-515.5731 1507.023,-520.8801"/>
</g>
<!-- Node1&#45;&gt;Node45 -->
<g id="edge73" class="edge">
<title>Node1&#45;&gt;Node45</title>
<path fill="none" stroke="#191970" d="M1329.4056,-614.0423C1214.9672,-603.198 958.4316,-578.8884 823.9627,-566.1459"/>
<polygon fill="#191970" stroke="#191970" points="823.9919,-562.6331 813.7063,-565.174 823.3315,-569.6019 823.9919,-562.6331"/>
</g>
<!-- Node55 -->
<g id="node36" class="node">
<title>Node55</title>
<g id="a_node36"><a xlink:href="LinkTraversalsCache_8h.html" target="_top" xlink:title="iDynTree/Model/LinkTraversals\lCache.h">
<polygon fill="none" stroke="#000000" points="2037,-414.5 2037,-444.5 2201,-444.5 2201,-414.5 2037,-414.5"/>
<text text-anchor="start" x="2045" y="-432.5" font-family="FreeSans.ttf" font-size="10.00" fill="#000000">iDynTree/Model/LinkTraversals</text>
<text text-anchor="middle" x="2119" y="-421.5" font-family="FreeSans.ttf" font-size="10.00" fill="#000000">Cache.h</text>
</a>
</g>
</g>
<!-- Node1&#45;&gt;Node55 -->
<g id="edge95" class="edge">
<title>Node1&#45;&gt;Node55</title>
<path fill="none" stroke="#191970" d="M1444.5258,-615.4557C1549.3167,-607.6758 1767.2163,-589.4811 1840,-568 1934.9202,-539.9857 2036.7132,-481.2428 2087.0418,-450.0237"/>
<polygon fill="#191970" stroke="#191970" points="2088.9151,-452.9803 2095.538,-444.7106 2085.2036,-447.0452 2088.9151,-452.9803"/>
</g>
<!-- Node3 -->
<g id="node4" class="node">
<title>Node3</title>
<polygon fill="none" stroke="#bfbfbf" points="1716,-56.5 1716,-75.5 1760,-75.5 1760,-56.5 1716,-56.5"/>
<text text-anchor="middle" x="1738" y="-63.5" font-family="FreeSans.ttf" font-size="10.00" fill="#000000">string</text>
</g>
<!-- Node2&#45;&gt;Node3 -->
<g id="edge3" class="edge">
<title>Node2&#45;&gt;Node3</title>
<path fill="none" stroke="#191970" d="M1343.7468,-168.4509C1426.7414,-146.8839 1627.543,-94.7035 1705.9132,-74.3381"/>
<polygon fill="#191970" stroke="#191970" points="1706.9088,-77.6957 1715.707,-71.7931 1705.1482,-70.9207 1706.9088,-77.6957"/>
</g>
<!-- Node2&#45;&gt;Node4 -->
<g id="edge4" class="edge">
<title>Node2&#45;&gt;Node4</title>
<path fill="none" stroke="#191970" d="M1253.2075,-168.4369C1198.5049,-158.712 1113.7565,-143.6456 1055.7227,-133.3285"/>
<polygon fill="#191970" stroke="#191970" points="1056.0289,-129.8281 1045.5706,-131.5237 1054.8036,-136.7201 1056.0289,-129.8281"/>
</g>
<!-- Node2&#45;&gt;Node5 -->
<g id="edge14" class="edge">
<title>Node2&#45;&gt;Node5</title>
<path fill="none" stroke="#191970" d="M1277.3781,-168.4224C1234.5592,-154.7814 1152.7411,-129.477 1082,-112 1027.149,-98.4487 964.1475,-85.9693 918.2902,-77.4381"/>
<polygon fill="#191970" stroke="#191970" points="918.6603,-73.9473 908.1907,-75.5714 917.388,-80.8307 918.6603,-73.9473"/>
</g>
<!-- Node4&#45;&gt;Node3 -->
<g id="edge10" class="edge">
<title>Node4&#45;&gt;Node3</title>
<path fill="none" stroke="#191970" d="M1072.5439,-115.9538C1234.9797,-103.7602 1595.7188,-76.6806 1705.6061,-68.4317"/>
<polygon fill="#191970" stroke="#191970" points="1706.0228,-71.9104 1715.7327,-67.6715 1705.4987,-64.93 1706.0228,-71.9104"/>
</g>
<!-- Node4&#45;&gt;Node5 -->
<g id="edge5" class="edge">
<title>Node4&#45;&gt;Node5</title>
<path fill="none" stroke="#191970" d="M968.277,-112.3733C945.8263,-103.2629 911.9261,-89.5062 886.8745,-79.3404"/>
<polygon fill="#191970" stroke="#191970" points="887.9957,-76.0182 877.4135,-75.5011 885.3635,-82.5045 887.9957,-76.0182"/>
</g>
<!-- Node8 -->
<g id="node7" class="node">
<title>Node8</title>
<g id="a_node7"><a xlink:href="Span_8h.html" target="_top" xlink:title="iDynTree/Core/Span.h">
<polygon fill="none" stroke="#ff0000" points="931.5,-56.5 931.5,-75.5 1052.5,-75.5 1052.5,-56.5 931.5,-56.5"/>
<text text-anchor="middle" x="992" y="-63.5" font-family="FreeSans.ttf" font-size="10.00" fill="#000000">iDynTree/Core/Span.h</text>
</a>
</g>
</g>
<!-- Node4&#45;&gt;Node8 -->
<g id="edge6" class="edge">
<title>Node4&#45;&gt;Node8</title>
<path fill="none" stroke="#191970" d="M992,-112.2455C992,-104.9382 992,-94.6944 992,-85.7046"/>
<polygon fill="#191970" stroke="#191970" points="995.5001,-85.6426 992,-75.6427 988.5001,-85.6427 995.5001,-85.6426"/>
</g>
<!-- Node9 -->
<g id="node8" class="node">
<title>Node9</title>
<polygon fill="none" stroke="#bfbfbf" points="1167,-.5 1167,-19.5 1219,-19.5 1219,-.5 1167,-.5"/>
<text text-anchor="middle" x="1193" y="-7.5" font-family="FreeSans.ttf" font-size="10.00" fill="#000000">cassert</text>
</g>
<!-- Node4&#45;&gt;Node9 -->
<g id="edge12" class="edge">
<title>Node4&#45;&gt;Node9</title>
<path fill="none" stroke="#191970" d="M1009.1371,-112.4509C1044.4416,-92.7788 1125.4562,-47.6363 1167.1563,-24.4005"/>
<polygon fill="#191970" stroke="#191970" points="1168.8744,-27.4498 1175.9062,-19.5249 1165.4672,-21.335 1168.8744,-27.4498"/>
</g>
<!-- Node4&#45;&gt;Node17 -->
<g id="edge11" class="edge">
<title>Node4&#45;&gt;Node17</title>
<path fill="none" stroke="#191970" d="M946.8789,-112.4357C905.0675,-103.4518 841.1913,-89.4191 786,-76 785.9006,-75.9758 785.801,-75.9516 785.7013,-75.9273"/>
<polygon fill="#191970" stroke="#191970" points="786.7425,-72.5801 776.1917,-73.545 785.0415,-79.3702 786.7425,-72.5801"/>
</g>
<!-- Node18 -->
<g id="node12" class="node">
<title>Node18</title>
<polygon fill="none" stroke="#bfbfbf" points="1168,-56.5 1168,-75.5 1218,-75.5 1218,-56.5 1168,-56.5"/>
<text text-anchor="middle" x="1193" y="-63.5" font-family="FreeSans.ttf" font-size="10.00" fill="#000000">cstring</text>
</g>
<!-- Node4&#45;&gt;Node18 -->
<g id="edge13" class="edge">
<title>Node4&#45;&gt;Node18</title>
<path fill="none" stroke="#191970" d="M1026.5531,-112.3733C1063.2832,-102.14 1121.054,-86.0446 1157.9664,-75.7606"/>
<polygon fill="#191970" stroke="#191970" points="1159.0958,-79.0793 1167.7896,-73.0238 1157.2171,-72.3361 1159.0958,-79.0793"/>
</g>
<!-- Node8&#45;&gt;Node9 -->
<g id="edge7" class="edge">
<title>Node8&#45;&gt;Node9</title>
<path fill="none" stroke="#191970" d="M1026.5531,-56.3733C1062.9754,-46.2258 1120.0873,-30.314 1157.034,-20.0204"/>
<polygon fill="#191970" stroke="#191970" points="1158.1925,-23.331 1166.8862,-17.2755 1156.3137,-16.5878 1158.1925,-23.331"/>
</g>
<!-- Node8&#45;&gt;Node10 -->
<g id="edge8" class="edge">
<title>Node8&#45;&gt;Node10</title>
<path fill="none" stroke="#191970" d="M931.4592,-56.8744C928.6025,-56.5544 925.7718,-56.2602 923,-56 554.9388,-21.4449 459.6738,-58.4588 92,-20 86.2135,-19.3947 80.1387,-18.5868 74.1677,-17.6915"/>
<polygon fill="#191970" stroke="#191970" points="74.7113,-14.2341 64.2861,-16.1227 73.6136,-21.1475 74.7113,-14.2341"/>
</g>
<!-- Node12 -->
<g id="node10" class="node">
<title>Node12</title>
<polygon fill="none" stroke="#bfbfbf" points="100.5,-.5 100.5,-19.5 153.5,-19.5 153.5,-.5 100.5,-.5"/>
<text text-anchor="middle" x="127" y="-7.5" font-family="FreeSans.ttf" font-size="10.00" fill="#000000">iterator</text>
</g>
<!-- Node8&#45;&gt;Node12 -->
<g id="edge9" class="edge">
<title>Node8&#45;&gt;Node12</title>
<path fill="none" stroke="#191970" d="M931.4543,-56.924C928.599,-56.5908 925.7699,-56.2802 923,-56 631.1477,-26.4738 277.0327,-14.3097 163.7232,-10.9958"/>
<polygon fill="#191970" stroke="#191970" points="163.6162,-7.4914 153.5197,-10.7025 163.4149,-14.4885 163.6162,-7.4914"/>
</g>
<!-- Node19&#45;&gt;Node3 -->
<g id="edge24" class="edge">
<title>Node19&#45;&gt;Node3</title>
<path fill="none" stroke="#191970" d="M2029.2681,-296.7639C2035.9921,-265.1925 2052.3538,-164.6553 2002,-112 1970.6162,-79.1818 1833.5921,-69.6666 1770.283,-66.998"/>
<polygon fill="#191970" stroke="#191970" points="1770.199,-63.4922 1760.0704,-66.6005 1769.9266,-70.4869 1770.199,-63.4922"/>
</g>
<!-- Node20 -->
<g id="node14" class="node">
<title>Node20</title>
<g id="a_node14"><a xlink:href="PositionRaw_8h.html" target="_top" xlink:title="iDynTree/Core/PositionRaw.h">
<polygon fill="none" stroke="#000000" points="1804,-168.5 1804,-187.5 1960,-187.5 1960,-168.5 1804,-168.5"/>
<text text-anchor="middle" x="1882" y="-175.5" font-family="FreeSans.ttf" font-size="10.00" fill="#000000">iDynTree/Core/PositionRaw.h</text>
</a>
</g>
</g>
<!-- Node19&#45;&gt;Node20 -->
<g id="edge16" class="edge">
<title>Node19&#45;&gt;Node20</title>
<path fill="none" stroke="#191970" d="M2018.3517,-296.8573C2003.871,-280.9339 1973.496,-248.4713 1945,-224 1932.268,-213.0662 1917.1,-201.939 1904.8377,-193.3676"/>
<polygon fill="#191970" stroke="#191970" points="1906.7182,-190.4129 1896.4989,-187.6174 1902.7444,-196.1756 1906.7182,-190.4129"/>
</g>
<!-- Node21 -->
<g id="node15" class="node">
<title>Node21</title>
<g id="a_node15"><a xlink:href="Rotation_8h.html" target="_top" xlink:title="iDynTree/Core/Rotation.h">
<polygon fill="none" stroke="#ff0000" points="1727.5,-230 1727.5,-249 1864.5,-249 1864.5,-230 1727.5,-230"/>
<text text-anchor="middle" x="1796" y="-237" font-family="FreeSans.ttf" font-size="10.00" fill="#000000">iDynTree/Core/Rotation.h</text>
</a>
</g>
</g>
<!-- Node19&#45;&gt;Node21 -->
<g id="edge19" class="edge">
<title>Node19&#45;&gt;Node21</title>
<path fill="none" stroke="#191970" d="M1993.9033,-296.9005C1953.0779,-285.0594 1883.5918,-264.9054 1838.7609,-251.9025"/>
<polygon fill="#191970" stroke="#191970" points="1839.6145,-248.5059 1829.0353,-249.0817 1837.6645,-255.2288 1839.6145,-248.5059"/>
</g>
<!-- Node20&#45;&gt;Node3 -->
<g id="edge18" class="edge">
<title>Node20&#45;&gt;Node3</title>
<path fill="none" stroke="#191970" d="M1869.7226,-168.4509C1844.9613,-149.1921 1788.8138,-105.5218 1758.4345,-81.8935"/>
<polygon fill="#191970" stroke="#191970" points="1760.2886,-78.9016 1750.2463,-75.5249 1755.991,-84.4271 1760.2886,-78.9016"/>
</g>
<!-- Node20&#45;&gt;Node4 -->
<g id="edge17" class="edge">
<title>Node20&#45;&gt;Node4</title>
<path fill="none" stroke="#191970" d="M1803.7985,-173.0795C1639.2108,-162.7234 1257.8408,-138.7271 1082.7959,-127.713"/>
<polygon fill="#191970" stroke="#191970" points="1082.7841,-124.2054 1072.584,-127.0705 1082.3444,-131.1916 1082.7841,-124.2054"/>
</g>
<!-- Node21&#45;&gt;Node3 -->
<g id="edge20" class="edge">
<title>Node21&#45;&gt;Node3</title>
<path fill="none" stroke="#191970" d="M1787.9841,-229.8969C1780.1557,-220.0137 1768.4993,-203.8621 1762,-188 1747.9397,-153.6847 1741.9422,-110.4849 1739.518,-85.7779"/>
<polygon fill="#191970" stroke="#191970" points="1742.9803,-85.1943 1738.6173,-75.5395 1736.0072,-85.8078 1742.9803,-85.1943"/>
</g>
<!-- Node21&#45;&gt;Node4 -->
<g id="edge23" class="edge">
<title>Node21&#45;&gt;Node4</title>
<path fill="none" stroke="#191970" d="M1727.3174,-236.8066C1651.8718,-232.2814 1527.8832,-220.1957 1426,-188 1407.4257,-182.1304 1405.6388,-173.6615 1387,-168 1386.7725,-167.9309 1199.3949,-146.1258 1082.8328,-132.5656"/>
<polygon fill="#191970" stroke="#191970" points="1083.1653,-129.0808 1072.8278,-131.4017 1082.3564,-136.0339 1083.1653,-129.0808"/>
</g>
<!-- Node22 -->
<g id="node16" class="node">
<title>Node22</title>
<g id="a_node16"><a xlink:href="GeomVector3_8h.html" target="_top" xlink:title="iDynTree/Core/GeomVector3.h">
<polygon fill="none" stroke="#000000" points="470.5,-168.5 470.5,-187.5 633.5,-187.5 633.5,-168.5 470.5,-168.5"/>
<text text-anchor="middle" x="552" y="-175.5" font-family="FreeSans.ttf" font-size="10.00" fill="#000000">iDynTree/Core/GeomVector3.h</text>
</a>
</g>
</g>
<!-- Node21&#45;&gt;Node22 -->
<g id="edge21" class="edge">
<title>Node21&#45;&gt;Node22</title>
<path fill="none" stroke="#191970" d="M1727.3452,-236.1059C1517.0721,-225.7106 881.7852,-194.3037 643.5525,-182.5261"/>
<polygon fill="#191970" stroke="#191970" points="643.6957,-179.029 633.5351,-182.0309 643.35,-186.0205 643.6957,-179.029"/>
</g>
<!-- Node22&#45;&gt;Node4 -->
<g id="edge22" class="edge">
<title>Node22&#45;&gt;Node4</title>
<path fill="none" stroke="#191970" d="M627.1388,-168.4369C704.8143,-158.5509 825.8604,-143.145 906.9874,-132.8198"/>
<polygon fill="#191970" stroke="#191970" points="907.6931,-136.2583 917.1712,-131.5237 906.8093,-129.3143 907.6931,-136.2583"/>
</g>
<!-- Node27&#45;&gt;Node3 -->
<g id="edge26" class="edge">
<title>Node27&#45;&gt;Node3</title>
<path fill="none" stroke="#191970" d="M1323.786,-362.3029C1502.4188,-347.9917 1909.3381,-303.0845 1969,-188 2011.1784,-106.6403 1842.8592,-77.7095 1770.0594,-69.1301"/>
<polygon fill="#191970" stroke="#191970" points="1770.3756,-65.6437 1760.048,-68.0082 1769.596,-72.6002 1770.3756,-65.6437"/>
</g>
<!-- Node25 -->
<g id="node18" class="node">
<title>Node25</title>
<g id="a_node18"><a xlink:href="MatrixView_8h.html" target="_top" xlink:title="iDynTree/Core/MatrixView.h">
<polygon fill="none" stroke="#ff0000" points="1205.5,-112.5 1205.5,-131.5 1356.5,-131.5 1356.5,-112.5 1205.5,-112.5"/>
<text text-anchor="middle" x="1281" y="-119.5" font-family="FreeSans.ttf" font-size="10.00" fill="#000000">iDynTree/Core/MatrixView.h</text>
</a>
</g>
</g>
<!-- Node27&#45;&gt;Node25 -->
<g id="edge27" class="edge">
<title>Node27&#45;&gt;Node25</title>
<path fill="none" stroke="#191970" d="M1236.3459,-358.2522C1225.7083,-328.221 1197.393,-235.0918 1228,-168 1233.6889,-155.5296 1244.6131,-145.1361 1255.0726,-137.4023"/>
<polygon fill="#191970" stroke="#191970" points="1257.3523,-140.0832 1263.6242,-131.5442 1253.3963,-134.3082 1257.3523,-140.0832"/>
</g>
<!-- Node25&#45;&gt;Node5 -->
<g id="edge30" class="edge">
<title>Node25&#45;&gt;Node5</title>
<path fill="none" stroke="#191970" d="M1205.1774,-112.6177C1134.9471,-103.8448 1027.304,-90.1898 923.83,-76.0965"/>
<polygon fill="#191970" stroke="#191970" points="924.2124,-72.6163 913.8308,-74.7314 923.2654,-79.552 924.2124,-72.6163"/>
</g>
<!-- Node25&#45;&gt;Node8 -->
<g id="edge29" class="edge">
<title>Node25&#45;&gt;Node8</title>
<path fill="none" stroke="#191970" d="M1231.6475,-112.4369C1181.6678,-102.7522 1104.3502,-87.7703 1051.1258,-77.4569"/>
<polygon fill="#191970" stroke="#191970" points="1051.6322,-73.99 1041.1489,-75.5237 1050.3005,-80.8622 1051.6322,-73.99"/>
</g>
<!-- Node25&#45;&gt;Node9 -->
<g id="edge28" class="edge">
<title>Node25&#45;&gt;Node9</title>
<path fill="none" stroke="#191970" d="M1273.4972,-112.4509C1258.6899,-93.6054 1225.5167,-51.3849 1206.7043,-27.4419"/>
<polygon fill="#191970" stroke="#191970" points="1209.4142,-25.2257 1200.4838,-19.5249 1203.91,-29.5505 1209.4142,-25.2257"/>
</g>
<!-- Node28&#45;&gt;Node3 -->
<g id="edge33" class="edge">
<title>Node28&#45;&gt;Node3</title>
<path fill="none" stroke="#191970" d="M645.1399,-358.4312C691.7761,-342.3218 790.3767,-309.7157 876,-291 915.9588,-282.2657 1571.1989,-211.0322 1605,-188 1637.0716,-166.1463 1619.9822,-138.8547 1648,-112 1664.537,-96.1496 1687.6104,-84.5032 1706.2543,-76.8949"/>
<polygon fill="#191970" stroke="#191970" points="1707.7587,-80.0654 1715.8137,-73.183 1705.2249,-73.54 1707.7587,-80.0654"/>
</g>
<!-- Node28&#45;&gt;Node8 -->
<g id="edge32" class="edge">
<title>Node28&#45;&gt;Node8</title>
<path fill="none" stroke="#191970" d="M637.5471,-358.4881C671.5506,-340.4119 738,-297.6484 738,-239.5 738,-239.5 738,-239.5 738,-178 738,-134.3876 864.9551,-96.4613 939.3554,-77.9797"/>
<polygon fill="#191970" stroke="#191970" points="940.6037,-81.2777 949.4861,-75.5024 938.9409,-74.478 940.6037,-81.2777"/>
</g>
<!-- Node29&#45;&gt;Node3 -->
<g id="edge39" class="edge">
<title>Node29&#45;&gt;Node3</title>
<path fill="none" stroke="#191970" d="M592.7367,-419.9215C622.8027,-410.0576 670.4869,-393.9205 711,-378 755.7303,-360.4222 862.4729,-303.042 909,-291 1221.0944,-210.2249 1353.0935,-358.0081 1627,-188 1663.332,-165.4495 1656.7478,-143.1906 1686,-112 1695.9201,-101.4225 1708.0013,-90.6271 1718.0212,-82.1549"/>
<polygon fill="#191970" stroke="#191970" points="1720.4063,-84.7236 1725.8603,-75.6404 1715.9324,-79.3399 1720.4063,-84.7236"/>
</g>
<!-- Node29&#45;&gt;Node5 -->
<g id="edge37" class="edge">
<title>Node29&#45;&gt;Node5</title>
<path fill="none" stroke="#191970" d="M553.1952,-419.9757C517.0708,-383.7471 396.8109,-252.3223 462,-168 482.4482,-141.5503 688.8278,-98.1114 793.6201,-77.5193"/>
<polygon fill="#191970" stroke="#191970" points="794.5981,-80.8944 803.7402,-75.5396 793.2542,-74.0246 794.5981,-80.8944"/>
</g>
<!-- Node29&#45;&gt;Node12 -->
<g id="edge38" class="edge">
<title>Node29&#45;&gt;Node12</title>
<path fill="none" stroke="#191970" d="M545.4152,-419.9766C492.9194,-390.8941 334.7435,-298.462 234,-188 187.7601,-137.2994 151.1363,-63.6086 135.3859,-29.1297"/>
<polygon fill="#191970" stroke="#191970" points="138.4676,-27.448 131.1805,-19.7571 132.081,-30.3136 138.4676,-27.448"/>
</g>
<!-- Node29&#45;&gt;Node30 -->
<g id="edge40" class="edge">
<title>Node29&#45;&gt;Node30</title>
<path fill="none" stroke="#191970" d="M629.3403,-424.9046C674.8293,-421.7745 736.5641,-417.5678 791,-414 1058.9619,-396.4375 1382.4145,-376.4556 1486.2138,-370.0733"/>
<polygon fill="#191970" stroke="#191970" points="1486.63,-373.5544 1496.3964,-369.4475 1486.2005,-366.5676 1486.63,-373.5544"/>
</g>
<!-- Node31&#45;&gt;Node3 -->
<g id="edge42" class="edge">
<title>Node31&#45;&gt;Node3</title>
<path fill="none" stroke="#191970" d="M2626.5233,-358.4136C2594.0154,-340.0681 2530,-296.6823 2530,-239.5 2530,-239.5 2530,-239.5 2530,-178 2530,-99.931 1918.8917,-72.5956 1770.2805,-67.1023"/>
<polygon fill="#191970" stroke="#191970" points="1770.1293,-63.5946 1760.0092,-66.7305 1769.876,-70.59 1770.1293,-63.5946"/>
</g>
<!-- Node33&#45;&gt;Node30 -->
<g id="edge56" class="edge">
<title>Node33&#45;&gt;Node30</title>
<path fill="none" stroke="#191970" d="M1782.7475,-419.9581C1719.115,-407.3748 1608.7663,-385.5535 1553.5268,-374.6299"/>
<polygon fill="#191970" stroke="#191970" points="1554.0494,-371.1655 1543.5604,-372.659 1552.6914,-378.0326 1554.0494,-371.1655"/>
</g>
<!-- Node33&#45;&gt;Node31 -->
<g id="edge55" class="edge">
<title>Node33&#45;&gt;Node31</title>
<path fill="none" stroke="#191970" d="M1905.8315,-423.5396C1942.6272,-420.6274 1987.6359,-417.0926 2028,-414 2221.0467,-399.2094 2448.1213,-382.4425 2565.6055,-373.8146"/>
<polygon fill="#191970" stroke="#191970" points="2565.8783,-377.3041 2575.5951,-373.0812 2565.3657,-370.3229 2565.8783,-377.3041"/>
</g>
<!-- Node34 -->
<g id="node24" class="node">
<title>Node34</title>
<g id="a_node24"><a xlink:href="Transform_8h.html" target="_top" xlink:title="iDynTree/Core/Transform.h">
<polygon fill="none" stroke="#000000" points="1820,-358.5 1820,-377.5 1966,-377.5 1966,-358.5 1820,-358.5"/>
<text text-anchor="middle" x="1893" y="-365.5" font-family="FreeSans.ttf" font-size="10.00" fill="#000000">iDynTree/Core/Transform.h</text>
</a>
</g>
</g>
<!-- Node33&#45;&gt;Node34 -->
<g id="edge44" class="edge">
<title>Node33&#45;&gt;Node34</title>
<path fill="none" stroke="#191970" d="M1840.6875,-419.8906C1850.0959,-410.5581 1864.5807,-396.1902 1875.9249,-384.9374"/>
<polygon fill="#191970" stroke="#191970" points="1878.5411,-387.2722 1883.1759,-377.7449 1873.6114,-382.3024 1878.5411,-387.2722"/>
</g>
<!-- Node34&#45;&gt;Node3 -->
<g id="edge54" class="edge">
<title>Node34&#45;&gt;Node3</title>
<path fill="none" stroke="#191970" d="M1894.6456,-358.4445C1898.3753,-333.5528 1904.9054,-265.7526 1874,-224 1851.044,-192.9869 1822.4128,-215.1538 1795,-188 1791.03,-184.0675 1761.1887,-117.9421 1746.3401,-84.7276"/>
<polygon fill="#191970" stroke="#191970" points="1749.53,-83.2871 1742.2585,-75.5815 1743.1376,-86.1398 1749.53,-83.2871"/>
</g>
<!-- Node34&#45;&gt;Node19 -->
<g id="edge45" class="edge">
<title>Node34&#45;&gt;Node19</title>
<path fill="none" stroke="#191970" d="M1913.9375,-358.3906C1936.2598,-348.1457 1971.8037,-331.8326 1997.0757,-320.2339"/>
<polygon fill="#191970" stroke="#191970" points="1998.581,-323.3942 2006.2095,-316.0419 1995.6611,-317.0322 1998.581,-323.3942"/>
</g>
<!-- Node34&#45;&gt;Node21 -->
<g id="edge46" class="edge">
<title>Node34&#45;&gt;Node21</title>
<path fill="none" stroke="#191970" d="M1885.7092,-358.3416C1869.4885,-336.8533 1830.2117,-284.8216 1809.4227,-257.2817"/>
<polygon fill="#191970" stroke="#191970" points="1812.1937,-255.1431 1803.3754,-249.2705 1806.6068,-259.3605 1812.1937,-255.1431"/>
</g>
<!-- Node24 -->
<g id="node25" class="node">
<title>Node24</title>
<g id="a_node25"><a xlink:href="MatrixFixSize_8h.html" target="_top" xlink:title="iDynTree/Core/MatrixFixSize.h">
<polygon fill="none" stroke="#ff0000" points="1434.5,-168.5 1434.5,-187.5 1595.5,-187.5 1595.5,-168.5 1434.5,-168.5"/>
<text text-anchor="middle" x="1515" y="-175.5" font-family="FreeSans.ttf" font-size="10.00" fill="#000000">iDynTree/Core/MatrixFixSize.h</text>
</a>
</g>
</g>
<!-- Node34&#45;&gt;Node24 -->
<g id="edge47" class="edge">
<title>Node34&#45;&gt;Node24</title>
<path fill="none" stroke="#191970" d="M1873.9959,-358.4477C1812.2431,-327.4079 1616.9894,-229.2645 1543.418,-192.2842"/>
<polygon fill="#191970" stroke="#191970" points="1544.774,-189.0485 1534.2673,-187.6846 1541.6302,-195.3029 1544.774,-189.0485"/>
</g>
<!-- Node24&#45;&gt;Node3 -->
<g id="edge52" class="edge">
<title>Node24&#45;&gt;Node3</title>
<path fill="none" stroke="#191970" d="M1526.6521,-168.3836C1543.957,-154.4663 1577.8712,-128.5674 1610,-112 1641.3126,-95.8535 1679.6027,-82.9033 1706.1021,-74.908"/>
<polygon fill="#191970" stroke="#191970" points="1707.3877,-78.1779 1715.9877,-71.9901 1705.406,-71.4642 1707.3877,-78.1779"/>
</g>
<!-- Node24&#45;&gt;Node5 -->
<g id="edge48" class="edge">
<title>Node24&#45;&gt;Node5</title>
<path fill="none" stroke="#191970" d="M1439.314,-168.4647C1360.2883,-158.2559 1241.7426,-142.1591 1197,-132 1167.9387,-125.4014 1161.9947,-118.8852 1133,-112 1094.3043,-102.8112 992.8232,-86.8263 923.5365,-76.3294"/>
<polygon fill="#191970" stroke="#191970" points="923.9694,-72.8552 913.5588,-74.822 922.9237,-79.7767 923.9694,-72.8552"/>
</g>
<!-- Node24&#45;&gt;Node9 -->
<g id="edge50" class="edge">
<title>Node24&#45;&gt;Node9</title>
<path fill="none" stroke="#191970" d="M1499.9524,-168.3676C1479.0003,-155.0958 1439.6987,-130.7058 1405,-112 1341.7601,-77.9079 1265.3374,-42.5101 1223.704,-23.6961"/>
<polygon fill="#191970" stroke="#191970" points="1224.9417,-20.415 1214.3864,-19.5002 1222.0674,-26.7977 1224.9417,-20.415"/>
</g>
<!-- Node24&#45;&gt;Node17 -->
<g id="edge53" class="edge">
<title>Node24&#45;&gt;Node17</title>
<path fill="none" stroke="#191970" d="M1434.2912,-168.9713C1325.475,-156.7122 1143.5504,-135.878 1129,-132 1107.0642,-126.1537 1103.9287,-117.8728 1082,-112 953.9864,-77.716 916.1607,-100.9212 786,-76 785.8995,-75.9808 785.7989,-75.9614 785.6981,-75.9419"/>
<polygon fill="#191970" stroke="#191970" points="786.6395,-72.565 776.1239,-73.8576 785.1505,-79.4048 786.6395,-72.565"/>
</g>
<!-- Node24&#45;&gt;Node18 -->
<g id="edge51" class="edge">
<title>Node24&#45;&gt;Node18</title>
<path fill="none" stroke="#191970" d="M1496.1022,-168.4736C1468.1855,-154.6684 1414.0373,-128.9078 1366,-112 1319.0403,-95.4715 1263.1124,-81.6169 1227.8263,-73.5616"/>
<polygon fill="#191970" stroke="#191970" points="1228.5336,-70.1333 1218.0087,-71.3486 1226.9943,-76.9619 1228.5336,-70.1333"/>
</g>
<!-- Node24&#45;&gt;Node25 -->
<g id="edge49" class="edge">
<title>Node24&#45;&gt;Node25</title>
<path fill="none" stroke="#191970" d="M1475.0398,-168.4369C1435.1608,-158.8932 1373.7861,-144.2052 1330.7672,-133.9101"/>
<polygon fill="#191970" stroke="#191970" points="1331.3354,-130.4473 1320.7953,-131.5237 1329.7061,-137.2551 1331.3354,-130.4473"/>
</g>
<!-- Node42&#45;&gt;Node30 -->
<g id="edge59" class="edge">
<title>Node42&#45;&gt;Node30</title>
<path fill="none" stroke="#191970" d="M2000.9204,-556.0762C1896.7415,-552.3338 1713.0617,-541.6376 1654,-512 1624.1739,-497.033 1561.7898,-420.9921 1533.9424,-385.8514"/>
<polygon fill="#191970" stroke="#191970" points="1536.5851,-383.5501 1527.6475,-377.8606 1531.0863,-387.8818 1536.5851,-383.5501"/>
</g>
<!-- Node42&#45;&gt;Node31 -->
<g id="edge58" class="edge">
<title>Node42&#45;&gt;Node31</title>
<path fill="none" stroke="#191970" d="M2149.1149,-556.8039C2353.8563,-553.1398 2913.9346,-540.5412 2941,-512 2970.9705,-480.3953 2969.3352,-447.0787 2941,-414 2926.9939,-397.6492 2807.2572,-383.2044 2724.4335,-375.0412"/>
<polygon fill="#191970" stroke="#191970" points="2724.565,-371.5375 2714.2731,-374.0528 2723.8872,-378.5046 2724.565,-371.5375"/>
</g>
<!-- Node43&#45;&gt;Node28 -->
<g id="edge62" class="edge">
<title>Node43&#45;&gt;Node28</title>
<path fill="none" stroke="#191970" d="M1452.817,-491.4834C1257.9316,-478.8004 761.1045,-446.3601 757,-445 732.8934,-437.0118 731.0295,-426.6348 709,-414 689.0468,-402.556 665.9049,-390.8785 647.9517,-382.1527"/>
<polygon fill="#191970" stroke="#191970" points="649.0927,-378.8174 638.5648,-377.629 646.0538,-385.1234 649.0927,-378.8174"/>
</g>
<!-- Node43&#45;&gt;Node30 -->
<g id="edge72" class="edge">
<title>Node43&#45;&gt;Node30</title>
<path fill="none" stroke="#191970" d="M1528.8136,-481.2548C1527.0019,-457.9744 1523.5456,-413.5607 1521.5418,-387.8117"/>
<polygon fill="#191970" stroke="#191970" points="1525.0231,-387.4341 1520.7576,-377.7358 1518.0442,-387.9772 1525.0231,-387.4341"/>
</g>
<!-- Node43&#45;&gt;Node31 -->
<g id="edge63" class="edge">
<title>Node43&#45;&gt;Node31</title>
<path fill="none" stroke="#191970" d="M1607.2912,-485.8707C1622.7391,-484.0195 1638.8674,-482.2804 1654,-481 1743.6575,-473.4138 2378.9297,-477.0656 2463,-445 2483.3649,-437.2325 2481.8384,-424.3872 2501,-414 2529.0494,-398.7948 2562.9325,-387.6573 2590.7831,-380.1532"/>
<polygon fill="#191970" stroke="#191970" points="2591.957,-383.4641 2600.749,-377.5521 2590.1892,-376.691 2591.957,-383.4641"/>
</g>
<!-- Node43&#45;&gt;Node33 -->
<g id="edge64" class="edge">
<title>Node43&#45;&gt;Node33</title>
<path fill="none" stroke="#191970" d="M1597.5503,-481.4639C1652.1975,-469.2999 1728.064,-452.4127 1778.2956,-441.2315"/>
<polygon fill="#191970" stroke="#191970" points="1779.2965,-444.5945 1788.2971,-439.0053 1777.7756,-437.7617 1779.2965,-444.5945"/>
</g>
<!-- Node43&#45;&gt;Node34 -->
<g id="edge61" class="edge">
<title>Node43&#45;&gt;Node34</title>
<path fill="none" stroke="#191970" d="M1567.9687,-481.4103C1611.2839,-464.3643 1684.3571,-436.1191 1748,-414 1782.5886,-401.9787 1822.2447,-389.4854 1851.3328,-380.5577"/>
<polygon fill="#191970" stroke="#191970" points="1852.6152,-383.8257 1861.1552,-377.5552 1850.5689,-377.1314 1852.6152,-383.8257"/>
</g>
<!-- Node44 -->
<g id="node28" class="node">
<title>Node44</title>
<g id="a_node28"><a xlink:href="JointState_8h.html" target="_top" xlink:title="iDynTree/Model/JointState.h">
<polygon fill="none" stroke="#000000" points="1017.5,-420 1017.5,-439 1168.5,-439 1168.5,-420 1017.5,-420"/>
<text text-anchor="middle" x="1093" y="-427" font-family="FreeSans.ttf" font-size="10.00" fill="#000000">iDynTree/Model/JointState.h</text>
</a>
</g>
</g>
<!-- Node43&#45;&gt;Node44 -->
<g id="edge65" class="edge">
<title>Node43&#45;&gt;Node44</title>
<path fill="none" stroke="#191970" d="M1452.8791,-484.676C1371.5769,-472.2109 1244.5083,-452.729 1165.1383,-440.5601"/>
<polygon fill="#191970" stroke="#191970" points="1165.6383,-437.096 1155.2234,-439.04 1164.5775,-444.0151 1165.6383,-437.096"/>
</g>
<!-- Node44&#45;&gt;Node4 -->
<g id="edge66" class="edge">
<title>Node44&#45;&gt;Node4</title>
<path fill="none" stroke="#191970" d="M1097.356,-419.8541C1113.1969,-383.1863 1163.9545,-250.3823 1108,-168 1097.2673,-152.1982 1080.1671,-141.8245 1062.3588,-135.0144"/>
<polygon fill="#191970" stroke="#191970" points="1063.0232,-131.5411 1052.4284,-131.5858 1060.7386,-138.1578 1063.0232,-131.5411"/>
</g>
<!-- Node44&#45;&gt;Node28 -->
<g id="edge67" class="edge">
<title>Node44&#45;&gt;Node28</title>
<path fill="none" stroke="#191970" d="M1019.5625,-419.9918C933.6816,-408.8725 791.831,-390.5065 701.7446,-378.8427"/>
<polygon fill="#191970" stroke="#191970" points="701.9324,-375.3379 691.5657,-377.5248 701.0335,-382.28 701.9324,-375.3379"/>
</g>
<!-- Node44&#45;&gt;Node30 -->
<g id="edge71" class="edge">
<title>Node44&#45;&gt;Node30</title>
<path fill="none" stroke="#191970" d="M1159.2502,-419.9581C1251.4947,-406.6723 1415.2419,-383.0881 1485.939,-372.9057"/>
<polygon fill="#191970" stroke="#191970" points="1486.6699,-376.3367 1496.0688,-371.4468 1485.6719,-369.4082 1486.6699,-376.3367"/>
</g>
<!-- Node40 -->
<g id="node29" class="node">
<title>Node40</title>
<g id="a_node29"><a xlink:href="SpatialForceVector_8h.html" target="_top" xlink:title="iDynTree/Core/SpatialForce\lVector.h">
<polygon fill="none" stroke="#ff0000" points="918,-291.5 918,-321.5 1066,-321.5 1066,-291.5 918,-291.5"/>
<text text-anchor="start" x="926" y="-309.5" font-family="FreeSans.ttf" font-size="10.00" fill="#000000">iDynTree/Core/SpatialForce</text>
<text text-anchor="middle" x="992" y="-298.5" font-family="FreeSans.ttf" font-size="10.00" fill="#000000">Vector.h</text>
</a>
</g>
</g>
<!-- Node44&#45;&gt;Node40 -->
<g id="edge68" class="edge">
<title>Node44&#45;&gt;Node40</title>
<path fill="none" stroke="#191970" d="M1085.0747,-419.8484C1069.2286,-400.5507 1033.2493,-356.7343 1010.9538,-329.5823"/>
<polygon fill="#191970" stroke="#191970" points="1013.5623,-327.2437 1004.5113,-321.7365 1008.1524,-331.686 1013.5623,-327.2437"/>
</g>
<!-- Node40&#45;&gt;Node4 -->
<g id="edge69" class="edge">
<title>Node40&#45;&gt;Node4</title>
<path fill="none" stroke="#191970" d="M992,-291.4016C992,-258.1761 992,-178.7418 992,-141.6748"/>
<polygon fill="#191970" stroke="#191970" points="995.5001,-141.6295 992,-131.6295 988.5001,-141.6295 995.5001,-141.6295"/>
</g>
<!-- Node40&#45;&gt;Node22 -->
<g id="edge70" class="edge">
<title>Node40&#45;&gt;Node22</title>
<path fill="none" stroke="#191970" d="M931.7445,-291.4768C892.8701,-281.5851 841.2918,-268.0883 796,-255 722.8928,-233.8736 638.3626,-206.5402 590.4371,-190.768"/>
<polygon fill="#191970" stroke="#191970" points="591.3763,-187.3924 580.7832,-187.5843 589.1839,-194.0403 591.3763,-187.3924"/>
</g>
<!-- Node45&#45;&gt;Node3 -->
<g id="edge75" class="edge">
<title>Node45&#45;&gt;Node3</title>
<path fill="none" stroke="#191970" d="M813.9171,-556.2508C1055.5285,-550.4982 1793.584,-531.4206 1841,-512 1891.5059,-491.3138 1946.6574,-458.4587 1915,-414 1886.6285,-374.1559 1850.4966,-406.8533 1811,-378 1755.8757,-337.7302 1740.5457,-319.7775 1719,-255 1699.2774,-195.7034 1719.1624,-120.6365 1730.8257,-85.6345"/>
<polygon fill="#191970" stroke="#191970" points="1734.2846,-86.3436 1734.2629,-75.7488 1727.6729,-84.0447 1734.2846,-86.3436"/>
</g>
<!-- Node45&#45;&gt;Node12 -->
<g id="edge77" class="edge">
<title>Node45&#45;&gt;Node12</title>
<path fill="none" stroke="#191970" d="M662.2079,-553.8459C605.669,-548.7385 527.4096,-537.3567 463,-512 258.7205,-431.5794 51,-459.0395 51,-239.5 51,-239.5 51,-239.5 51,-122 51,-82.2361 84.2071,-46.1042 106.7208,-26.177"/>
<polygon fill="#191970" stroke="#191970" points="109.1079,-28.7412 114.4501,-19.5918 104.5683,-23.4128 109.1079,-28.7412"/>
</g>
<!-- Node45&#45;&gt;Node22 -->
<g id="edge74" class="edge">
<title>Node45&#45;&gt;Node22</title>
<path fill="none" stroke="#191970" d="M662.197,-553.424C597.9897,-547.9092 512.6954,-536.1729 489,-512 401.337,-422.5703 502.314,-251.8785 539.4127,-196.1153"/>
<polygon fill="#191970" stroke="#191970" points="542.4504,-197.8715 545.161,-187.6293 536.6549,-193.9457 542.4504,-197.8715"/>
</g>
<!-- Node45&#45;&gt;Node28 -->
<g id="edge78" class="edge">
<title>Node45&#45;&gt;Node28</title>
<path fill="none" stroke="#191970" d="M731.8842,-548.3167C712.9514,-518.3398 655.0693,-426.6931 629.8984,-386.8391"/>
<polygon fill="#191970" stroke="#191970" points="632.5466,-384.4776 624.2474,-377.8917 626.6281,-388.2156 632.5466,-384.4776"/>
</g>
<!-- Node45&#45;&gt;Node30 -->
<g id="edge76" class="edge">
<title>Node45&#45;&gt;Node30</title>
<path fill="none" stroke="#191970" d="M773.5063,-548.4889C831.3738,-533.1633 949.7401,-502.5462 1051,-481 1139.3397,-462.2029 1163.029,-465.4533 1251,-445 1336.8749,-425.0341 1436.1939,-394.6755 1486.7302,-378.6961"/>
<polygon fill="#191970" stroke="#191970" points="1487.9884,-381.9688 1496.4601,-375.6063 1485.8698,-375.2971 1487.9884,-381.9688"/>
</g>
<!-- Node45&#45;&gt;Node31 -->
<g id="edge94" class="edge">
<title>Node45&#45;&gt;Node31</title>
<path fill="none" stroke="#191970" d="M813.5323,-557.0105C1096.9843,-553.1287 2097.3089,-537.8691 2415,-512 2635.3958,-494.0535 2762.5494,-611.5548 2908,-445 2917.0627,-434.6224 2916.8635,-424.5483 2908,-414 2884.8837,-386.4897 2793.3024,-375.4293 2724.6636,-370.9841"/>
<polygon fill="#191970" stroke="#191970" points="2724.4814,-367.4666 2714.2867,-370.3505 2724.0547,-374.4535 2724.4814,-367.4666"/>
</g>
<!-- Node45&#45;&gt;Node46 -->
<g id="edge79" class="edge">
<title>Node45&#45;&gt;Node46</title>
<path fill="none" stroke="#191970" d="M813.6065,-555.0957C1082.5591,-544.7643 1991.2621,-509.8578 2262.1603,-499.4517"/>
<polygon fill="#191970" stroke="#191970" points="2262.433,-502.9439 2272.2913,-499.0625 2262.1643,-495.949 2262.433,-502.9439"/>
</g>
<!-- Node46&#45;&gt;Node30 -->
<g id="edge93" class="edge">
<title>Node46&#45;&gt;Node30</title>
<path fill="none" stroke="#191970" d="M2272.4912,-487.5245C2209.2608,-478.5115 2111.6609,-463.3508 2028,-445 1977.1315,-433.8422 1966.1224,-423.9295 1915,-414 1782.7984,-388.3225 1622.7276,-375.0684 1554.0148,-370.2136"/>
<polygon fill="#191970" stroke="#191970" points="1554.0073,-366.7048 1543.7894,-369.5059 1553.5239,-373.6881 1554.0073,-366.7048"/>
</g>
<!-- Node46&#45;&gt;Node31 -->
<g id="edge85" class="edge">
<title>Node46&#45;&gt;Node31</title>
<path fill="none" stroke="#191970" d="M2405.8274,-492.2884C2510.5088,-485.0026 2703.4045,-468.5339 2724,-445 2733.0736,-434.6319 2730.8669,-425.9446 2724,-414 2715.6295,-399.4399 2700.6806,-389.0571 2686.022,-381.8859"/>
<polygon fill="#191970" stroke="#191970" points="2687.0605,-378.5162 2676.5032,-377.6256 2684.2009,-384.9055 2687.0605,-378.5162"/>
</g>
<!-- Node46&#45;&gt;Node34 -->
<g id="edge84" class="edge">
<title>Node46&#45;&gt;Node34</title>
<path fill="none" stroke="#191970" d="M2320.2332,-486.8387C2301.6736,-477.0368 2272.6938,-461.0598 2249,-445 2230.6715,-432.5768 2230.3258,-422.7825 2210,-414 2169.1832,-396.3637 2055.669,-382.8118 1976.2047,-375.1231"/>
<polygon fill="#191970" stroke="#191970" points="1976.4912,-371.6346 1966.2039,-374.1689 1975.8262,-378.603 1976.4912,-371.6346"/>
</g>
<!-- Node47 -->
<g id="node32" class="node">
<title>Node47</title>
<g id="a_node32"><a xlink:href="IJoint_8h.html" target="_top" xlink:title="iDynTree/Model/IJoint.h">
<polygon fill="none" stroke="#000000" points="2771,-420 2771,-439 2899,-439 2899,-420 2771,-420"/>
<text text-anchor="middle" x="2835" y="-427" font-family="FreeSans.ttf" font-size="10.00" fill="#000000">iDynTree/Model/IJoint.h</text>
</a>
</g>
</g>
<!-- Node46&#45;&gt;Node47 -->
<g id="edge80" class="edge">
<title>Node46&#45;&gt;Node47</title>
<path fill="none" stroke="#191970" d="M2405.8171,-489.8002C2488.519,-481.1552 2633.5525,-464.8428 2757,-445 2764.4877,-443.7964 2772.3533,-442.3957 2780.0898,-440.9379"/>
<polygon fill="#191970" stroke="#191970" points="2780.9864,-444.3296 2790.1433,-439.0004 2779.6617,-437.4561 2780.9864,-444.3296"/>
</g>
<!-- Node48 -->
<g id="node33" class="node">
<title>Node48</title>
<g id="a_node33"><a xlink:href="Link_8h.html" target="_top" xlink:title="iDynTree/Model/Link.h">
<polygon fill="none" stroke="#ff0000" points="2591,-420 2591,-439 2715,-439 2715,-420 2591,-420"/>
<text text-anchor="middle" x="2653" y="-427" font-family="FreeSans.ttf" font-size="10.00" fill="#000000">iDynTree/Model/Link.h</text>
</a>
</g>
</g>
<!-- Node46&#45;&gt;Node48 -->
<g id="edge82" class="edge">
<title>Node46&#45;&gt;Node48</title>
<path fill="none" stroke="#191970" d="M2383.6551,-486.9717C2440.1916,-474.9082 2537.5446,-454.1354 2598.4291,-441.1441"/>
<polygon fill="#191970" stroke="#191970" points="2599.1956,-444.5594 2608.245,-439.0496 2597.7348,-437.7135 2599.1956,-444.5594"/>
</g>
<!-- Node53 -->
<g id="node34" class="node">
<title>Node53</title>
<g id="a_node34"><a xlink:href="SolidShapes_8h.html" target="_top" xlink:title="iDynTree/Model/SolidShapes.h">
<polygon fill="none" stroke="#000000" points="2257.5,-420 2257.5,-439 2420.5,-439 2420.5,-420 2257.5,-420"/>
<text text-anchor="middle" x="2339" y="-427" font-family="FreeSans.ttf" font-size="10.00" fill="#000000">iDynTree/Model/SolidShapes.h</text>
</a>
</g>
</g>
<!-- Node46&#45;&gt;Node53 -->
<g id="edge86" class="edge">
<title>Node46&#45;&gt;Node53</title>
<path fill="none" stroke="#191970" d="M2339,-486.9005C2339,-477.149 2339,-461.7597 2339,-449.3695"/>
<polygon fill="#191970" stroke="#191970" points="2342.5001,-449.0816 2339,-439.0817 2335.5001,-449.0817 2342.5001,-449.0816"/>
</g>
<!-- Node54 -->
<g id="node35" class="node">
<title>Node54</title>
<polygon fill="none" stroke="#bfbfbf" points="2407.5,-358.5 2407.5,-377.5 2456.5,-377.5 2456.5,-358.5 2407.5,-358.5"/>
<text text-anchor="middle" x="2432" y="-365.5" font-family="FreeSans.ttf" font-size="10.00" fill="#000000">cstdlib</text>
</g>
<!-- Node46&#45;&gt;Node54 -->
<g id="edge92" class="edge">
<title>Node46&#45;&gt;Node54</title>
<path fill="none" stroke="#191970" d="M2372.3143,-486.9403C2392.7653,-479.1813 2417.3816,-466.0085 2430,-445 2440.2938,-427.8618 2439.2468,-404.4806 2436.5942,-387.9928"/>
<polygon fill="#191970" stroke="#191970" points="2439.9647,-386.9893 2434.6209,-377.8409 2433.0933,-388.325 2439.9647,-386.9893"/>
</g>
<!-- Node47&#45;&gt;Node31 -->
<g id="edge81" class="edge">
<title>Node47&#45;&gt;Node31</title>
<path fill="none" stroke="#191970" d="M2805.3125,-419.8906C2772.6854,-409.3298 2720.1374,-392.3208 2684.1575,-380.6747"/>
<polygon fill="#191970" stroke="#191970" points="2685.0709,-377.2916 2674.479,-377.5419 2682.9152,-383.9514 2685.0709,-377.2916"/>
</g>
<!-- Node48&#45;&gt;Node31 -->
<g id="edge83" class="edge">
<title>Node48&#45;&gt;Node31</title>
<path fill="none" stroke="#191970" d="M2651.75,-419.8906C2650.6411,-411.3657 2648.9856,-398.6392 2647.5917,-387.9235"/>
<polygon fill="#191970" stroke="#191970" points="2651.0284,-387.2098 2646.2676,-377.7449 2644.0869,-388.1128 2651.0284,-387.2098"/>
</g>
<!-- Node53&#45;&gt;Node3 -->
<g id="edge88" class="edge">
<title>Node53&#45;&gt;Node3</title>
<path fill="none" stroke="#191970" d="M2322.7726,-419.9449C2294.2222,-401.7685 2238,-359.275 2238,-306.5 2238,-306.5 2238,-306.5 2238,-178 2238,-129.8973 1881.0622,-83.1256 1770.3484,-69.7751"/>
<polygon fill="#191970" stroke="#191970" points="1770.4742,-66.2653 1760.1295,-68.5537 1769.6435,-73.2158 1770.4742,-66.2653"/>
</g>
<!-- Node53&#45;&gt;Node30 -->
<g id="edge89" class="edge">
<title>Node53&#45;&gt;Node30</title>
<path fill="none" stroke="#191970" d="M2265.3967,-419.9731C2247.3029,-417.8198 2227.9674,-415.6772 2210,-414 1958.2804,-390.5033 1653.8079,-374.5375 1553.6857,-369.6115"/>
<polygon fill="#191970" stroke="#191970" points="1553.7265,-366.1094 1543.5676,-369.1171 1553.3848,-373.101 1553.7265,-366.1094"/>
</g>
<!-- Node53&#45;&gt;Node31 -->
<g id="edge91" class="edge">
<title>Node53&#45;&gt;Node31</title>
<path fill="none" stroke="#191970" d="M2386.4768,-419.9581C2440.7158,-409.0571 2529.4512,-391.223 2587.545,-379.5473"/>
<polygon fill="#191970" stroke="#191970" points="2588.5494,-382.9155 2597.6636,-377.5137 2587.17,-376.0528 2588.5494,-382.9155"/>
</g>
<!-- Node53&#45;&gt;Node34 -->
<g id="edge90" class="edge">
<title>Node53&#45;&gt;Node34</title>
<path fill="none" stroke="#191970" d="M2281.6797,-419.9624C2268.9556,-417.9242 2255.5283,-415.8343 2243,-414 2151.969,-400.6721 2047.3475,-387.1575 1976.3762,-378.2581"/>
<polygon fill="#191970" stroke="#191970" points="1976.512,-374.7478 1966.1548,-376.9791 1975.6428,-381.6937 1976.512,-374.7478"/>
</g>
<!-- Node53&#45;&gt;Node54 -->
<g id="edge87" class="edge">
<title>Node53&#45;&gt;Node54</title>
<path fill="none" stroke="#191970" d="M2353.5313,-419.8906C2368.4094,-410.0519 2391.7504,-394.6167 2409.1128,-383.1351"/>
<polygon fill="#191970" stroke="#191970" points="2411.1602,-385.9773 2417.5708,-377.5419 2407.299,-380.1385 2411.1602,-385.9773"/>
</g>
<!-- Node55&#45;&gt;Node30 -->
<g id="edge96" class="edge">
<title>Node55&#45;&gt;Node30</title>
<path fill="none" stroke="#191970" d="M2036.8197,-419.7763C2019.7,-417.8118 2001.7655,-415.7988 1985,-414 1823.6077,-396.6841 1630.4372,-378.3352 1553.7576,-371.1462"/>
<polygon fill="#191970" stroke="#191970" points="1554.009,-367.6546 1543.7263,-370.2072 1553.3565,-374.6241 1554.009,-367.6546"/>
</g>
<!-- Node55&#45;&gt;Node31 -->
<g id="edge97" class="edge">
<title>Node55&#45;&gt;Node31</title>
<path fill="none" stroke="#191970" d="M2201.1731,-419.6642C2217.0416,-417.7757 2233.5372,-415.8199 2249,-414 2358.9191,-401.063 2486.0308,-386.3395 2565.9672,-377.1093"/>
<polygon fill="#191970" stroke="#191970" points="2566.4273,-380.5795 2575.9599,-375.9557 2565.6244,-373.6257 2566.4273,-380.5795"/>
</g>
<!-- Node56&#45;&gt;Node4 -->
<g id="edge100" class="edge">
<title>Node56&#45;&gt;Node4</title>
<path fill="none" stroke="#191970" d="M148.4058,-676.8115C129.4465,-656.5887 89,-607.6307 89,-558 89,-558 89,-558 89,-429.5 89,-315.8975 141.2395,-278.3449 241,-224 353.157,-162.9021 727.0845,-135.8123 901.2673,-126.2872"/>
<polygon fill="#191970" stroke="#191970" points="901.6382,-129.7723 911.4352,-125.7387 901.2611,-122.7825 901.6382,-129.7723"/>
</g>
<!-- Node57&#45;&gt;Node4 -->
<g id="edge104" class="edge">
<title>Node57&#45;&gt;Node4</title>
<path fill="none" stroke="#191970" d="M882.4387,-419.8928C885.5352,-405.8254 889.6194,-379.0138 882,-358 857.8778,-291.4724 759.2848,-284.4963 796,-224 826.1933,-174.2501 889.434,-147.6436 935.9499,-134.2221"/>
<polygon fill="#191970" stroke="#191970" points="936.8974,-137.5916 945.6041,-131.5547 935.0331,-130.8444 936.8974,-137.5916"/>
</g>
<!-- Node57&#45;&gt;Node5 -->
<g id="edge112" class="edge">
<title>Node57&#45;&gt;Node5</title>
<path fill="none" stroke="#191970" d="M851.0543,-419.9564C830.5187,-411.8083 803.7351,-398.1688 787,-378 730.1906,-309.5343 738.1813,-275.828 724,-188 717.2269,-146.0529 748.6474,-138.3256 782,-112 796.6133,-100.4655 814.2037,-89.1844 828.3397,-80.6806"/>
<polygon fill="#191970" stroke="#191970" points="830.2399,-83.6231 837.0641,-75.5188 826.6754,-77.5986 830.2399,-83.6231"/>
</g>
<!-- Node57&#45;&gt;Node27 -->
<g id="edge105" class="edge">
<title>Node57&#45;&gt;Node27</title>
<path fill="none" stroke="#191970" d="M935.855,-419.9581C1000.1941,-408.9668 1105.7921,-390.9272 1174.0965,-379.2585"/>
<polygon fill="#191970" stroke="#191970" points="1175.0424,-382.6477 1184.3102,-377.5137 1173.8636,-375.7477 1175.0424,-382.6477"/>
</g>
<!-- Node57&#45;&gt;Node28 -->
<g id="edge103" class="edge">
<title>Node57&#45;&gt;Node28</title>
<path fill="none" stroke="#191970" d="M839.35,-419.9581C793.3618,-409.1632 718.4095,-391.5694 668.6527,-379.8899"/>
<polygon fill="#191970" stroke="#191970" points="669.2806,-376.4422 658.7454,-377.5643 667.6809,-383.257 669.2806,-376.4422"/>
</g>
<!-- Node57&#45;&gt;Node34 -->
<g id="edge111" class="edge">
<title>Node57&#45;&gt;Node34</title>
<path fill="none" stroke="#191970" d="M951.894,-419.9889C970.4709,-417.771 990.459,-415.5945 1009,-414 1302.8446,-388.7304 1652.9168,-375.4966 1809.7791,-370.4542"/>
<polygon fill="#191970" stroke="#191970" points="1809.9459,-373.9508 1819.8293,-370.1339 1809.7228,-366.9543 1809.9459,-373.9508"/>
</g>
<!-- Node57&#45;&gt;Node24 -->
<g id="edge106" class="edge">
<title>Node57&#45;&gt;Node24</title>
<path fill="none" stroke="#191970" d="M904.1174,-419.948C1001.7559,-381.277 1367.883,-236.2676 1481.2948,-191.3494"/>
<polygon fill="#191970" stroke="#191970" points="1482.8501,-194.498 1490.8586,-187.5615 1480.2724,-187.9898 1482.8501,-194.498"/>
</g>
<!-- Node57&#45;&gt;Node40 -->
<g id="edge110" class="edge">
<title>Node57&#45;&gt;Node40</title>
<path fill="none" stroke="#191970" d="M897.9638,-419.9807C913.9201,-410.8471 937.1094,-395.8327 953,-378 965.3054,-364.1907 975.2182,-345.825 981.9706,-331.1651"/>
<polygon fill="#191970" stroke="#191970" points="985.3072,-332.2723 986.1309,-321.7095 978.8999,-329.4531 985.3072,-332.2723"/>
</g>
<!-- Node58 -->
<g id="node39" class="node">
<title>Node58</title>
<polygon fill="none" stroke="#bfbfbf" points="795.5,-358.5 795.5,-377.5 872.5,-377.5 872.5,-358.5 795.5,-358.5"/>
<text text-anchor="middle" x="834" y="-365.5" font-family="FreeSans.ttf" font-size="10.00" fill="#000000">Eigen/Dense</text>
</g>
<!-- Node57&#45;&gt;Node58 -->
<g id="edge102" class="edge">
<title>Node57&#45;&gt;Node58</title>
<path fill="none" stroke="#191970" d="M872.8125,-419.8906C866.0334,-410.8273 855.7022,-397.0149 847.4027,-385.9188"/>
<polygon fill="#191970" stroke="#191970" points="850.0812,-383.6563 841.2888,-377.7449 844.4757,-387.849 850.0812,-383.6563"/>
</g>
<!-- Node36 -->
<g id="node40" class="node">
<title>Node36</title>
<g id="a_node40"><a xlink:href="SpatialMotionVector_8h.html" target="_top" xlink:title="iDynTree/Core/SpatialMotion\lVector.h">
<polygon fill="none" stroke="#ff0000" points="804.5,-224.5 804.5,-254.5 959.5,-254.5 959.5,-224.5 804.5,-224.5"/>
<text text-anchor="start" x="812.5" y="-242.5" font-family="FreeSans.ttf" font-size="10.00" fill="#000000">iDynTree/Core/SpatialMotion</text>
<text text-anchor="middle" x="882" y="-231.5" font-family="FreeSans.ttf" font-size="10.00" fill="#000000">Vector.h</text>
</a>
</g>
</g>
<!-- Node57&#45;&gt;Node36 -->
<g id="edge107" class="edge">
<title>Node57&#45;&gt;Node36</title>
<path fill="none" stroke="#191970" d="M889.2523,-419.8141C897.8225,-410.1164 909.9776,-394.3252 915,-378 921.4551,-357.0176 903.0655,-298.4751 891.2004,-264.5959"/>
<polygon fill="#191970" stroke="#191970" points="894.4146,-263.1884 887.7623,-254.9423 887.8203,-265.537 894.4146,-263.1884"/>
</g>
<!-- Node36&#45;&gt;Node4 -->
<g id="edge108" class="edge">
<title>Node36&#45;&gt;Node4</title>
<path fill="none" stroke="#191970" d="M896.3806,-224.1389C916.9197,-202.1994 954.5342,-162.0203 975.9537,-139.1404"/>
<polygon fill="#191970" stroke="#191970" points="978.7715,-141.2517 983.0507,-131.5595 973.6613,-136.4677 978.7715,-141.2517"/>
</g>
<!-- Node36&#45;&gt;Node22 -->
<g id="edge109" class="edge">
<title>Node36&#45;&gt;Node22</title>
<path fill="none" stroke="#191970" d="M804.2125,-225.0032C745.8538,-214.1273 667.069,-199.4447 613.1754,-189.4009"/>
<polygon fill="#191970" stroke="#191970" points="613.5496,-185.9104 603.0776,-187.519 612.2671,-192.7919 613.5496,-185.9104"/>
</g>
<!-- Node59&#45;&gt;Node5 -->
<g id="edge116" class="edge">
<title>Node59&#45;&gt;Node5</title>
<path fill="none" stroke="#191970" d="M552.5318,-486.8532C488.6324,-461.0229 322.5272,-383.4038 265,-255 239.0147,-196.9994 221.6391,-158.4666 265,-112 302.8541,-71.4346 692.5713,-81.2045 783.9532,-75.7563"/>
<polygon fill="#191970" stroke="#191970" points="784.5024,-79.2239 794.1954,-74.9466 783.9507,-72.2457 784.5024,-79.2239"/>
</g>
<!-- Node59&#45;&gt;Node28 -->
<g id="edge114" class="edge">
<title>Node59&#45;&gt;Node28</title>
<path fill="none" stroke="#191970" d="M544.859,-486.9505C524.5535,-479.1956 500.1921,-466.0236 488,-445 481.0881,-433.0814 480.0469,-425.2505 488,-414 497.4243,-400.6683 533.7071,-388.4851 565.5541,-380.0108"/>
<polygon fill="#191970" stroke="#191970" points="566.4542,-383.3933 575.2606,-377.5028 564.703,-376.6159 566.4542,-383.3933"/>
</g>
<!-- Node59&#45;&gt;Node29 -->
<g id="edge115" class="edge">
<title>Node59&#45;&gt;Node29</title>
<path fill="none" stroke="#191970" d="M575.8509,-486.9005C573.6454,-477.0495 570.1519,-461.4451 567.3637,-448.9912"/>
<polygon fill="#191970" stroke="#191970" points="570.7454,-448.0754 565.1451,-439.0817 563.9145,-449.6048 570.7454,-448.0754"/>
</g>
<!-- Node59&#45;&gt;Node30 -->
<g id="edge117" class="edge">
<title>Node59&#45;&gt;Node30</title>
<path fill="none" stroke="#191970" d="M658.6177,-493.9104C774.3184,-489.2157 993.8187,-476.6599 1178,-445 1231.864,-435.741 1243.7744,-426.4137 1297,-414 1363.8618,-398.4059 1442.6422,-382.7983 1486.3942,-374.3731"/>
<polygon fill="#191970" stroke="#191970" points="1487.3142,-377.7606 1496.4759,-372.4396 1485.9956,-370.8859 1487.3142,-377.7606"/>
</g>
<!-- Node60&#45;&gt;Node31 -->
<g id="edge119" class="edge">
<title>Node60&#45;&gt;Node31</title>
<path fill="none" stroke="#191970" d="M3196.9381,-548.1268C3171.5652,-521.2077 3096.4552,-446.3872 3017,-414 2965.5958,-393.0468 2817.4926,-379.5915 2724.4052,-372.9463"/>
<polygon fill="#191970" stroke="#191970" points="2724.3971,-369.4371 2714.1763,-372.2276 2723.9064,-376.4199 2724.3971,-369.4371"/>
</g>
<!-- Node61&#45;&gt;Node27 -->
<g id="edge121" class="edge">
<title>Node61&#45;&gt;Node27</title>
<path fill="none" stroke="#191970" d="M1209.4804,-486.8416C1214.8793,-465.8184 1227.7862,-415.5598 1234.9656,-387.6038"/>
<polygon fill="#191970" stroke="#191970" points="1238.3934,-388.3268 1237.4909,-377.7705 1231.6134,-386.5856 1238.3934,-388.3268"/>
</g>
<!-- Node61&#45;&gt;Node31 -->
<g id="edge122" class="edge">
<title>Node61&#45;&gt;Node31</title>
<path fill="none" stroke="#191970" d="M1283.0158,-490.9696C1329.4903,-487.7274 1390.1567,-483.7431 1444,-481 1553.4866,-475.4222 2328.827,-487.219 2430,-445 2448.571,-437.2504 2445.3486,-423.6627 2463,-414 2494.4777,-396.7685 2532.5471,-385.8501 2565.7146,-379.0019"/>
<polygon fill="#191970" stroke="#191970" points="2566.7043,-382.3741 2575.8378,-377.0047 2565.3494,-375.5065 2566.7043,-382.3741"/>
</g>
<!-- Node61&#45;&gt;Node33 -->
<g id="edge123" class="edge">
<title>Node61&#45;&gt;Node33</title>
<path fill="none" stroke="#191970" d="M1283.2025,-488.318C1400.366,-475.7379 1623.9778,-451.7283 1746.1488,-438.6106"/>
<polygon fill="#191970" stroke="#191970" points="1746.6381,-442.0783 1756.2073,-437.5306 1745.8907,-435.1183 1746.6381,-442.0783"/>
</g>
<!-- Node61&#45;&gt;Node44 -->
<g id="edge124" class="edge">
<title>Node61&#45;&gt;Node44</title>
<path fill="none" stroke="#191970" d="M1190.6666,-486.9005C1171.7041,-475.7559 1140.2125,-457.2477 1118.128,-444.2682"/>
<polygon fill="#191970" stroke="#191970" points="1119.6979,-441.1311 1109.3031,-439.0817 1116.151,-447.1661 1119.6979,-441.1311"/>
</g>
<!-- Node63 -->
<g id="node45" class="node">
<title>Node63</title>
<g id="a_node45"><a xlink:href="SixAxisForceTorqueSensor_8h.html" target="_top" xlink:title="iDynTree/Sensors/SixAxis\lForceTorqueSensor.h">
<polygon fill="none" stroke="#000000" points="1069,-604.5 1069,-634.5 1209,-634.5 1209,-604.5 1069,-604.5"/>
<text text-anchor="start" x="1077" y="-622.5" font-family="FreeSans.ttf" font-size="10.00" fill="#000000">iDynTree/Sensors/SixAxis</text>
<text text-anchor="middle" x="1139" y="-611.5" font-family="FreeSans.ttf" font-size="10.00" fill="#000000">ForceTorqueSensor.h</text>
</a>
</g>
</g>
<!-- Node62&#45;&gt;Node63 -->
<g id="edge129" class="edge">
<title>Node62&#45;&gt;Node63</title>
<path fill="none" stroke="#191970" d="M910.2038,-671.4639C955.4823,-661.1803 1015.6244,-647.5209 1062.8835,-636.7875"/>
<polygon fill="#191970" stroke="#191970" points="1063.786,-640.1717 1072.7625,-634.5438 1062.2356,-633.3456 1063.786,-640.1717"/>
</g>
<!-- Node64 -->
<g id="node46" class="node">
<title>Node64</title>
<g id="a_node46"><a xlink:href="AccelerometerSensor_8h.html" target="_top" xlink:title="iDynTree/Sensors/Accelerometer\lSensor.h">
<polygon fill="none" stroke="#000000" points="664.5,-604.5 664.5,-634.5 839.5,-634.5 839.5,-604.5 664.5,-604.5"/>
<text text-anchor="start" x="672.5" y="-622.5" font-family="FreeSans.ttf" font-size="10.00" fill="#000000">iDynTree/Sensors/Accelerometer</text>
<text text-anchor="middle" x="752" y="-611.5" font-family="FreeSans.ttf" font-size="10.00" fill="#000000">Sensor.h</text>
</a>
</g>
</g>
<!-- Node62&#45;&gt;Node64 -->
<g id="edge133" class="edge">
<title>Node62&#45;&gt;Node64</title>
<path fill="none" stroke="#191970" d="M823.1238,-671.2967C810.6552,-662.2163 794.6342,-650.5488 780.9553,-640.587"/>
<polygon fill="#191970" stroke="#191970" points="782.9376,-637.7009 772.7936,-634.6432 778.8167,-643.3594 782.9376,-637.7009"/>
</g>
<!-- Node65 -->
<g id="node47" class="node">
<title>Node65</title>
<g id="a_node47"><a xlink:href="GyroscopeSensor_8h.html" target="_top" xlink:title="iDynTree/Sensors/Gyroscope\lSensor.h">
<polygon fill="none" stroke="#000000" points="857.5,-604.5 857.5,-634.5 1012.5,-634.5 1012.5,-604.5 857.5,-604.5"/>
<text text-anchor="start" x="865.5" y="-622.5" font-family="FreeSans.ttf" font-size="10.00" fill="#000000">iDynTree/Sensors/Gyroscope</text>
<text text-anchor="middle" x="935" y="-611.5" font-family="FreeSans.ttf" font-size="10.00" fill="#000000">Sensor.h</text>
</a>
</g>
</g>
<!-- Node62&#45;&gt;Node65 -->
<g id="edge136" class="edge">
<title>Node62&#45;&gt;Node65</title>
<path fill="none" stroke="#191970" d="M864.6493,-671.2967C876.9823,-662.2163 892.8292,-650.5488 906.3594,-640.587"/>
<polygon fill="#191970" stroke="#191970" points="908.4548,-643.3907 914.4324,-634.6432 904.3045,-637.7537 908.4548,-643.3907"/>
</g>
<!-- Node66 -->
<g id="node48" class="node">
<title>Node66</title>
<g id="a_node48"><a xlink:href="ThreeAxisAngularAccelerometerSensor_8h.html" target="_top" xlink:title="iDynTree/Sensors/ThreeAxis\lAngularAccelerometerSensor.h">
<polygon fill="none" stroke="#000000" points="479.5,-604.5 479.5,-634.5 646.5,-634.5 646.5,-604.5 479.5,-604.5"/>
<text text-anchor="start" x="487.5" y="-622.5" font-family="FreeSans.ttf" font-size="10.00" fill="#000000">iDynTree/Sensors/ThreeAxis</text>
<text text-anchor="middle" x="563" y="-611.5" font-family="FreeSans.ttf" font-size="10.00" fill="#000000">AngularAccelerometerSensor.h</text>
</a>
</g>
</g>
<!-- Node62&#45;&gt;Node66 -->
<g id="edge140" class="edge">
<title>Node62&#45;&gt;Node66</title>
<path fill="none" stroke="#191970" d="M780.9381,-671.4639C738.064,-661.2412 681.1992,-647.6827 636.3061,-636.9787"/>
<polygon fill="#191970" stroke="#191970" points="636.876,-633.5165 626.3369,-634.6017 635.2525,-640.3257 636.876,-633.5165"/>
</g>
<!-- Node67 -->
<g id="node49" class="node">
<title>Node67</title>
<g id="a_node49"><a xlink:href="ThreeAxisForceTorqueContactSensor_8h.html" target="_top" xlink:title="iDynTree/Sensors/ThreeAxis\lForceTorqueContactSensor.h">
<polygon fill="none" stroke="#000000" points="307,-604.5 307,-634.5 461,-634.5 461,-604.5 307,-604.5"/>
<text text-anchor="start" x="315" y="-622.5" font-family="FreeSans.ttf" font-size="10.00" fill="#000000">iDynTree/Sensors/ThreeAxis</text>
<text text-anchor="middle" x="384" y="-611.5" font-family="FreeSans.ttf" font-size="10.00" fill="#000000">ForceTorqueContactSensor.h</text>
</a>
</g>
</g>
<!-- Node62&#45;&gt;Node67 -->
<g id="edge143" class="edge">
<title>Node62&#45;&gt;Node67</title>
<path fill="none" stroke="#191970" d="M766.3588,-676.6796C693.1055,-667.2084 579.962,-652.051 471.4433,-635.0319"/>
<polygon fill="#191970" stroke="#191970" points="471.7178,-631.5321 461.2948,-633.4327 470.6281,-638.4468 471.7178,-631.5321"/>
</g>
<!-- Node63&#45;&gt;Node30 -->
<g id="edge132" class="edge">
<title>Node63&#45;&gt;Node30</title>
<path fill="none" stroke="#191970" d="M1161.9752,-604.3339C1229.7379,-559.6035 1428.2985,-428.5326 1496.6019,-383.4452"/>
<polygon fill="#191970" stroke="#191970" points="1498.9307,-386.1018 1505.3482,-377.6717 1495.0743,-380.2598 1498.9307,-386.1018"/>
</g>
<!-- Node63&#45;&gt;Node33 -->
<g id="edge131" class="edge">
<title>Node63&#45;&gt;Node33</title>
<path fill="none" stroke="#191970" d="M1209.0563,-613.9011C1378.583,-599.6458 1800.0398,-559.7101 1841,-512 1855.9871,-494.5431 1848.4222,-466.822 1840.5861,-448.3982"/>
<polygon fill="#191970" stroke="#191970" points="1843.7248,-446.8467 1836.3464,-439.2435 1837.3729,-449.7885 1843.7248,-446.8467"/>
</g>
<!-- Node63&#45;&gt;Node45 -->
<g id="edge130" class="edge">
<title>Node63&#45;&gt;Node45</title>
<path fill="none" stroke="#191970" d="M1068.9088,-606.3587C1064.2052,-605.541 1059.536,-604.7473 1055,-604 974.9194,-590.8063 883.1198,-577.7058 818.989,-568.8801"/>
<polygon fill="#191970" stroke="#191970" points="819.3231,-565.3932 808.9401,-567.501 818.3713,-572.3282 819.3231,-565.3932"/>
</g>
<!-- Node64&#45;&gt;Node22 -->
<g id="edge134" class="edge">
<title>Node64&#45;&gt;Node22</title>
<path fill="none" stroke="#191970" d="M664.3908,-605.1833C661.5622,-604.7759 658.7595,-604.3803 656,-604 586.2039,-594.3823 387.906,-620.5721 341,-568 323.1048,-547.9432 355,-370.7611 355,-368 355,-368 355,-368 355,-306.5 355,-268.3133 351.6864,-250.6868 379,-224 393.8886,-209.453 440.5639,-197.5349 481.6838,-189.4774"/>
<polygon fill="#191970" stroke="#191970" points="482.5533,-192.8748 491.7208,-187.5638 481.2422,-185.9986 482.5533,-192.8748"/>
</g>
<!-- Node64&#45;&gt;Node45 -->
<g id="edge135" class="edge">
<title>Node64&#45;&gt;Node45</title>
<path fill="none" stroke="#191970" d="M748.5393,-604.2977C746.7174,-596.2945 744.4615,-586.3843 742.5048,-577.7889"/>
<polygon fill="#191970" stroke="#191970" points="745.874,-576.8206 740.2416,-567.8469 739.0486,-578.3744 745.874,-576.8206"/>
</g>
<!-- Node65&#45;&gt;Node22 -->
<g id="edge137" class="edge">
<title>Node65&#45;&gt;Node22</title>
<path fill="none" stroke="#191970" d="M857.4959,-605.5003C777.8088,-591.075 663.9525,-570.3643 654,-568 567.9328,-547.5543 530.5592,-569.1081 463,-512 408.6538,-466.061 393,-439.1611 393,-368 393,-368 393,-368 393,-306.5 393,-245.8627 463.8166,-208.9286 510.9276,-191.067"/>
<polygon fill="#191970" stroke="#191970" points="512.3918,-194.2585 520.5867,-187.5433 509.9928,-187.6824 512.3918,-194.2585"/>
</g>
<!-- Node65&#45;&gt;Node30 -->
<g id="edge139" class="edge">
<title>Node65&#45;&gt;Node30</title>
<path fill="none" stroke="#191970" d="M950.394,-604.0773C980.4774,-574.9241 1050.4082,-511.8912 1122,-481 1205.3286,-445.0445 1235.7236,-469.8852 1323,-445 1358.8744,-434.7711 1366.2687,-427.6141 1401,-414 1429.8706,-402.6832 1462.7535,-389.9868 1486.626,-380.8043"/>
<polygon fill="#191970" stroke="#191970" points="1488.189,-383.9533 1496.2674,-377.0984 1485.6774,-377.4193 1488.189,-383.9533"/>
</g>
<!-- Node65&#45;&gt;Node45 -->
<g id="edge138" class="edge">
<title>Node65&#45;&gt;Node45</title>
<path fill="none" stroke="#191970" d="M886.8084,-604.4554C853.5059,-594.059 809.7157,-580.3884 778.2736,-570.5727"/>
<polygon fill="#191970" stroke="#191970" points="779.1167,-567.1694 768.528,-567.5303 777.0307,-573.8514 779.1167,-567.1694"/>
</g>
<!-- Node66&#45;&gt;Node22 -->
<g id="edge141" class="edge">
<title>Node66&#45;&gt;Node22</title>
<path fill="none" stroke="#191970" d="M479.4339,-605.0633C405.9787,-592.0451 309.7092,-574.0448 303,-568 260.4921,-529.7017 273.5401,-501.5751 265,-445 249.4966,-342.2956 261.723,-291.1096 341,-224 359.5728,-208.2778 413.5606,-196.6727 462.2731,-189.0519"/>
<polygon fill="#191970" stroke="#191970" points="462.8929,-192.4979 472.2526,-187.5335 461.8399,-185.5776 462.8929,-192.4979"/>
</g>
<!-- Node66&#45;&gt;Node45 -->
<g id="edge142" class="edge">
<title>Node66&#45;&gt;Node45</title>
<path fill="none" stroke="#191970" d="M605.8098,-604.4554C635.009,-594.194 673.2843,-580.7429 701.1302,-570.9571"/>
<polygon fill="#191970" stroke="#191970" points="702.6073,-574.1479 710.8812,-567.5303 700.2864,-567.5439 702.6073,-574.1479"/>
</g>
<!-- Node67&#45;&gt;Node22 -->
<g id="edge144" class="edge">
<title>Node67&#45;&gt;Node22</title>
<path fill="none" stroke="#191970" d="M306.7888,-608.3273C243.7374,-594.3242 165,-563.437 165,-496.5 165,-496.5 165,-496.5 165,-368 165,-278.7386 226.3176,-266.1507 305,-224 331.8967,-209.5912 403.1668,-197.1926 462.2761,-188.9105"/>
<polygon fill="#191970" stroke="#191970" points="462.9733,-192.3476 472.4017,-187.5148 462.0174,-185.4131 462.9733,-192.3476"/>
</g>
<!-- Node67&#45;&gt;Node45 -->
<g id="edge145" class="edge">
<title>Node67&#45;&gt;Node45</title>
<path fill="none" stroke="#191970" d="M461.3172,-605.7015C464.5883,-605.1252 467.8265,-604.5561 471,-604 539.5535,-591.988 618.0568,-578.4945 672.1069,-569.2448"/>
<polygon fill="#191970" stroke="#191970" points="672.9768,-572.6469 682.2434,-567.5108 671.7964,-565.7472 672.9768,-572.6469"/>
</g>
<!-- Node68&#45;&gt;Node2 -->
<g id="edge147" class="edge">
<title>Node68&#45;&gt;Node2</title>
<path fill="none" stroke="#191970" d="M1741.5416,-481.3995C1734.7598,-463.9646 1721.9773,-434.9961 1705,-414 1659.5566,-357.7995 1489.7986,-248.5659 1441,-224 1412.9475,-209.878 1379.5424,-198.3996 1353.1031,-190.4409"/>
<polygon fill="#191970" stroke="#191970" points="1353.9182,-187.0324 1343.3368,-187.5649 1351.9407,-193.7473 1353.9182,-187.0324"/>
</g>
<!-- Node68&#45;&gt;Node4 -->
<g id="edge151" class="edge">
<title>Node68&#45;&gt;Node4</title>
<path fill="none" stroke="#191970" d="M1734.6078,-481.3202C1719.5336,-463.546 1692.6561,-433.9973 1665,-414 1583.0116,-354.7165 1449.7537,-294.6593 1127,-168 1095.6271,-155.6882 1059.4522,-143.4647 1032.4504,-134.7161"/>
<polygon fill="#191970" stroke="#191970" points="1033.1714,-131.2714 1022.58,-131.5402 1031.0273,-137.935 1033.1714,-131.2714"/>
</g>
<!-- Node68&#45;&gt;Node19 -->
<g id="edge148" class="edge">
<title>Node68&#45;&gt;Node19</title>
<path fill="none" stroke="#191970" d="M1826.9302,-481.4421C1856.1624,-473.5716 1888.5285,-461.9284 1915,-445 1963.2162,-414.1658 2000.2549,-355.5253 2017.0766,-325.4004"/>
<polygon fill="#191970" stroke="#191970" points="2020.2908,-326.8159 2021.9932,-316.3587 2014.1412,-323.4718 2020.2908,-326.8159"/>
</g>
<!-- Node68&#45;&gt;Node27 -->
<g id="edge149" class="edge">
<title>Node68&#45;&gt;Node27</title>
<path fill="none" stroke="#191970" d="M1687.3498,-481.3816C1585.5458,-455.5792 1380.2803,-403.5543 1287.4757,-380.0328"/>
<polygon fill="#191970" stroke="#191970" points="1288.0777,-376.5748 1277.5243,-377.5106 1286.3579,-383.3602 1288.0777,-376.5748"/>
</g>
<!-- Node68&#45;&gt;Node28 -->
<g id="edge150" class="edge">
<title>Node68&#45;&gt;Node28</title>
<path fill="none" stroke="#191970" d="M1662.1774,-485.5334C1646.8283,-483.8142 1630.9518,-482.2091 1616,-481 1433.0893,-466.2087 964.6839,-504.2368 791,-445 768.3589,-437.278 768.2388,-425.0073 747,-414 720.0702,-400.0432 687.9471,-388.5738 662.4933,-380.5783"/>
<polygon fill="#191970" stroke="#191970" points="663.3241,-377.1721 652.7371,-377.5802 661.2678,-383.8633 663.3241,-377.1721"/>
</g>
<!-- Node68&#45;&gt;Node30 -->
<g id="edge154" class="edge">
<title>Node68&#45;&gt;Node30</title>
<path fill="none" stroke="#191970" d="M1726.2352,-481.1868C1697.9143,-460.4413 1648.4726,-424.7583 1629,-414 1604.5228,-400.4767 1575.2511,-388.3268 1553.2078,-379.9144"/>
<polygon fill="#191970" stroke="#191970" points="1554.2239,-376.5575 1543.6317,-376.3208 1551.7644,-383.1112 1554.2239,-376.5575"/>
</g>
<!-- Node68&#45;&gt;Node31 -->
<g id="edge152" class="edge">
<title>Node68&#45;&gt;Node31</title>
<path fill="none" stroke="#191970" d="M1831.7983,-495.1809C2001.5663,-491.8087 2377.4892,-480.4649 2501,-445 2547.5142,-431.6439 2596.0236,-401.8629 2623.1855,-383.5001"/>
<polygon fill="#191970" stroke="#191970" points="2625.2889,-386.3014 2631.5448,-377.7507 2621.3221,-380.5339 2625.2889,-386.3014"/>
</g>
<!-- Node68&#45;&gt;Node33 -->
<g id="edge153" class="edge">
<title>Node68&#45;&gt;Node33</title>
<path fill="none" stroke="#191970" d="M1766.0609,-481.2967C1779.5297,-470.5537 1797.5385,-456.1895 1811.1748,-445.3129"/>
<polygon fill="#191970" stroke="#191970" points="1813.3853,-448.0268 1819.0206,-439.055 1809.0204,-442.5544 1813.3853,-448.0268"/>
</g>
</g>
</svg>
