<?xml version="1.0" encoding="UTF-8" standalone="no"?>
<!DOCTYPE svg PUBLIC "-//W3C//DTD SVG 1.1//EN"
 "http://www.w3.org/Graphics/SVG/1.1/DTD/svg11.dtd">
<!-- Generated by graphviz version 2.40.1 (20161225.0304)
 -->
<!-- Title: BerdySparseMAPSolver.h Pages: 1 -->
<svg width="775pt" height="196pt"
 viewBox="0.00 0.00 775.00 196.00" xmlns="http://www.w3.org/2000/svg" xmlns:xlink="http://www.w3.org/1999/xlink">
<g id="graph0" class="graph" transform="scale(1 1) rotate(0) translate(4 192)">
<title>BerdySparseMAPSolver.h</title>
<!-- Node0 -->
<g id="node1" class="node">
<title>Node0</title>
<polygon fill="#bfbfbf" stroke="#000000" points="401,-168.5 401,-187.5 539,-187.5 539,-168.5 401,-168.5"/>
<text text-anchor="middle" x="470" y="-175.5" font-family="FreeSans.ttf" font-size="10.00" fill="#000000">BerdySparseMAPSolver.h</text>
</g>
<!-- Node1 -->
<g id="node2" class="node">
<title>Node1</title>
<g id="a_node2"><a xlink:href="Utils_8h.html" target="_top" xlink:title="iDynTree/Core/Utils.h">
<polygon fill="none" stroke="#000000" points="132.5,-56.5 132.5,-75.5 251.5,-75.5 251.5,-56.5 132.5,-56.5"/>
<text text-anchor="middle" x="192" y="-63.5" font-family="FreeSans.ttf" font-size="10.00" fill="#000000">iDynTree/Core/Utils.h</text>
</a>
</g>
</g>
<!-- Node0&#45;&gt;Node1 -->
<g id="edge1" class="edge">
<title>Node0&#45;&gt;Node1</title>
<path fill="none" stroke="#191970" d="M446.2979,-168.4509C396.7507,-148.4895 282.1095,-102.3031 225.2352,-79.3897"/>
<polygon fill="#191970" stroke="#191970" points="226.2256,-76.0154 215.6421,-75.5249 223.6097,-82.5083 226.2256,-76.0154"/>
</g>
<!-- Node4 -->
<g id="node5" class="node">
<title>Node4</title>
<g id="a_node5"><a xlink:href="VectorFixSize_8h.html" target="_top" xlink:title="iDynTree/Core/VectorFixSize.h">
<polygon fill="none" stroke="#000000" points="389.5,-112.5 389.5,-131.5 550.5,-131.5 550.5,-112.5 389.5,-112.5"/>
<text text-anchor="middle" x="470" y="-119.5" font-family="FreeSans.ttf" font-size="10.00" fill="#000000">iDynTree/Core/VectorFixSize.h</text>
</a>
</g>
</g>
<!-- Node0&#45;&gt;Node4 -->
<g id="edge4" class="edge">
<title>Node0&#45;&gt;Node4</title>
<path fill="none" stroke="#191970" d="M470,-168.2455C470,-160.9382 470,-150.6944 470,-141.7046"/>
<polygon fill="#191970" stroke="#191970" points="473.5001,-141.6426 470,-131.6427 466.5001,-141.6427 473.5001,-141.6426"/>
</g>
<!-- Node17 -->
<g id="node18" class="node">
<title>Node17</title>
<g id="a_node18"><a xlink:href="Indices_8h.html" target="_top" xlink:title="iDynTree/Model/Indices.h">
<polygon fill="none" stroke="#000000" points="572,-112.5 572,-131.5 710,-131.5 710,-112.5 572,-112.5"/>
<text text-anchor="middle" x="641" y="-119.5" font-family="FreeSans.ttf" font-size="10.00" fill="#000000">iDynTree/Model/Indices.h</text>
</a>
</g>
</g>
<!-- Node0&#45;&gt;Node17 -->
<g id="edge20" class="edge">
<title>Node0&#45;&gt;Node17</title>
<path fill="none" stroke="#191970" d="M499.3959,-168.3733C527.8307,-159.0613 571.0877,-144.8953 602.3081,-134.671"/>
<polygon fill="#191970" stroke="#191970" points="603.5736,-137.9396 611.9876,-131.5011 601.395,-131.2872 603.5736,-137.9396"/>
</g>
<!-- Node2 -->
<g id="node3" class="node">
<title>Node2</title>
<polygon fill="none" stroke="#bfbfbf" points="98.5,-.5 98.5,-19.5 151.5,-19.5 151.5,-.5 98.5,-.5"/>
<text text-anchor="middle" x="125" y="-7.5" font-family="FreeSans.ttf" font-size="10.00" fill="#000000">cstddef</text>
</g>
<!-- Node1&#45;&gt;Node2 -->
<g id="edge2" class="edge">
<title>Node1&#45;&gt;Node2</title>
<path fill="none" stroke="#191970" d="M180.3295,-56.2455C170.4339,-47.9746 156.0373,-35.9416 144.4099,-26.2232"/>
<polygon fill="#191970" stroke="#191970" points="146.4542,-23.3703 136.5368,-19.6427 141.965,-28.7413 146.4542,-23.3703"/>
</g>
<!-- Node3 -->
<g id="node4" class="node">
<title>Node3</title>
<polygon fill="none" stroke="#bfbfbf" points="0,-.5 0,-19.5 80,-19.5 80,-.5 0,-.5"/>
<text text-anchor="middle" x="40" y="-7.5" font-family="FreeSans.ttf" font-size="10.00" fill="#000000">CoreExport.h</text>
</g>
<!-- Node1&#45;&gt;Node3 -->
<g id="edge3" class="edge">
<title>Node1&#45;&gt;Node3</title>
<path fill="none" stroke="#191970" d="M165.8703,-56.3733C140.9232,-47.1822 103.1408,-33.2624 75.4794,-23.0713"/>
<polygon fill="#191970" stroke="#191970" points="76.3822,-19.674 65.7888,-19.5011 73.9622,-26.2424 76.3822,-19.674"/>
</g>
<!-- Node4&#45;&gt;Node1 -->
<g id="edge5" class="edge">
<title>Node4&#45;&gt;Node1</title>
<path fill="none" stroke="#191970" d="M422.526,-112.4369C374.5486,-102.7724 300.383,-87.8326 249.1949,-77.5213"/>
<polygon fill="#191970" stroke="#191970" points="249.7725,-74.0674 239.2782,-75.5237 248.3901,-80.9296 249.7725,-74.0674"/>
</g>
<!-- Node5 -->
<g id="node6" class="node">
<title>Node5</title>
<g id="a_node6"><a xlink:href="Span_8h.html" target="_top" xlink:title="iDynTree/Core/Span.h">
<polygon fill="none" stroke="#000000" points="299.5,-56.5 299.5,-75.5 420.5,-75.5 420.5,-56.5 299.5,-56.5"/>
<text text-anchor="middle" x="360" y="-63.5" font-family="FreeSans.ttf" font-size="10.00" fill="#000000">iDynTree/Core/Span.h</text>
</a>
</g>
</g>
<!-- Node4&#45;&gt;Node5 -->
<g id="edge6" class="edge">
<title>Node4&#45;&gt;Node5</title>
<path fill="none" stroke="#191970" d="M450.8395,-112.2455C433.4889,-103.4125 407.7099,-90.2887 388.0417,-80.2758"/>
<polygon fill="#191970" stroke="#191970" points="389.4405,-77.0605 378.941,-75.6427 386.2647,-83.2986 389.4405,-77.0605"/>
</g>
<!-- Node6 -->
<g id="node7" class="node">
<title>Node6</title>
<polygon fill="none" stroke="#bfbfbf" points="680,-.5 680,-19.5 732,-19.5 732,-.5 680,-.5"/>
<text text-anchor="middle" x="706" y="-7.5" font-family="FreeSans.ttf" font-size="10.00" fill="#000000">cassert</text>
</g>
<!-- Node4&#45;&gt;Node6 -->
<g id="edge18" class="edge">
<title>Node4&#45;&gt;Node6</title>
<path fill="none" stroke="#191970" d="M492.467,-112.3367C513.2564,-103.2845 544.9411,-89.2072 572,-76 589.1513,-67.6286 592.9468,-64.5695 610,-56 632.0377,-44.9256 657.1873,-32.8967 676.2155,-23.918"/>
<polygon fill="#191970" stroke="#191970" points="677.733,-27.0721 685.2912,-19.6476 674.7527,-20.7382 677.733,-27.0721"/>
</g>
<!-- Node14 -->
<g id="node15" class="node">
<title>Node14</title>
<polygon fill="none" stroke="#bfbfbf" points="619,-56.5 619,-75.5 663,-75.5 663,-56.5 619,-56.5"/>
<text text-anchor="middle" x="641" y="-63.5" font-family="FreeSans.ttf" font-size="10.00" fill="#000000">string</text>
</g>
<!-- Node4&#45;&gt;Node14 -->
<g id="edge16" class="edge">
<title>Node4&#45;&gt;Node14</title>
<path fill="none" stroke="#191970" d="M499.3959,-112.3733C529.9848,-102.3559 577.7268,-86.721 609.1848,-76.419"/>
<polygon fill="#191970" stroke="#191970" points="610.3697,-79.7139 618.7838,-73.2755 608.1911,-73.0616 610.3697,-79.7139"/>
</g>
<!-- Node15 -->
<g id="node16" class="node">
<title>Node15</title>
<polygon fill="none" stroke="#bfbfbf" points="439,-56.5 439,-75.5 495,-75.5 495,-56.5 439,-56.5"/>
<text text-anchor="middle" x="467" y="-63.5" font-family="FreeSans.ttf" font-size="10.00" fill="#000000">sstream</text>
</g>
<!-- Node4&#45;&gt;Node15 -->
<g id="edge17" class="edge">
<title>Node4&#45;&gt;Node15</title>
<path fill="none" stroke="#191970" d="M469.4774,-112.2455C469.086,-104.9382 468.5372,-94.6944 468.0556,-85.7046"/>
<polygon fill="#191970" stroke="#191970" points="471.5466,-85.4411 467.5166,-75.6427 464.5566,-85.8156 471.5466,-85.4411"/>
</g>
<!-- Node16 -->
<g id="node17" class="node">
<title>Node16</title>
<polygon fill="none" stroke="#bfbfbf" points="513,-56.5 513,-75.5 563,-75.5 563,-56.5 513,-56.5"/>
<text text-anchor="middle" x="538" y="-63.5" font-family="FreeSans.ttf" font-size="10.00" fill="#000000">cstring</text>
</g>
<!-- Node4&#45;&gt;Node16 -->
<g id="edge19" class="edge">
<title>Node4&#45;&gt;Node16</title>
<path fill="none" stroke="#191970" d="M481.8447,-112.2455C491.888,-103.9746 506.4995,-91.9416 518.3004,-82.2232"/>
<polygon fill="#191970" stroke="#191970" points="520.7967,-84.7015 526.291,-75.6427 516.3467,-79.298 520.7967,-84.7015"/>
</g>
<!-- Node5&#45;&gt;Node2 -->
<g id="edge10" class="edge">
<title>Node5&#45;&gt;Node2</title>
<path fill="none" stroke="#191970" d="M316.3891,-56.4957C278.1134,-48.0248 220.7164,-35.0107 161.5895,-20.0699"/>
<polygon fill="#191970" stroke="#191970" points="162.2556,-16.628 151.7016,-17.5572 160.5315,-23.4124 162.2556,-16.628"/>
</g>
<!-- Node5&#45;&gt;Node6 -->
<g id="edge7" class="edge">
<title>Node5&#45;&gt;Node6</title>
<path fill="none" stroke="#191970" d="M420.6106,-57.244C498.9603,-45.898 629.3979,-26.9078 669.8071,-19.8041"/>
<polygon fill="#191970" stroke="#191970" points="670.5553,-23.2245 679.7204,-17.9093 669.2411,-16.349 670.5553,-23.2245"/>
</g>
<!-- Node7 -->
<g id="node8" class="node">
<title>Node7</title>
<polygon fill="none" stroke="#bfbfbf" points="598,-.5 598,-19.5 662,-19.5 662,-.5 598,-.5"/>
<text text-anchor="middle" x="630" y="-7.5" font-family="FreeSans.ttf" font-size="10.00" fill="#000000">algorithm</text>
</g>
<!-- Node5&#45;&gt;Node7 -->
<g id="edge8" class="edge">
<title>Node5&#45;&gt;Node7</title>
<path fill="none" stroke="#191970" d="M409.9189,-56.4454C456.1812,-47.4681 526.8696,-33.4399 588,-20 588.1007,-19.9779 588.2014,-19.9557 588.3024,-19.9335"/>
<polygon fill="#191970" stroke="#191970" points="588.9407,-23.3776 597.9227,-17.7583 587.397,-16.5499 588.9407,-23.3776"/>
</g>
<!-- Node8 -->
<g id="node9" class="node">
<title>Node8</title>
<polygon fill="none" stroke="#bfbfbf" points="170,-.5 170,-19.5 212,-19.5 212,-.5 170,-.5"/>
<text text-anchor="middle" x="191" y="-7.5" font-family="FreeSans.ttf" font-size="10.00" fill="#000000">array</text>
</g>
<!-- Node5&#45;&gt;Node8 -->
<g id="edge9" class="edge">
<title>Node5&#45;&gt;Node8</title>
<path fill="none" stroke="#191970" d="M330.9755,-56.415C304.7736,-47.7577 264.9167,-34.5777 221.8348,-20.2731"/>
<polygon fill="#191970" stroke="#191970" points="222.8969,-16.9379 212.3034,-17.1074 220.6904,-23.5811 222.8969,-16.9379"/>
</g>
<!-- Node9 -->
<g id="node10" class="node">
<title>Node9</title>
<polygon fill="none" stroke="#bfbfbf" points="230.5,-.5 230.5,-19.5 283.5,-19.5 283.5,-.5 230.5,-.5"/>
<text text-anchor="middle" x="257" y="-7.5" font-family="FreeSans.ttf" font-size="10.00" fill="#000000">iterator</text>
</g>
<!-- Node5&#45;&gt;Node9 -->
<g id="edge11" class="edge">
<title>Node5&#45;&gt;Node9</title>
<path fill="none" stroke="#191970" d="M342.0588,-56.2455C325.96,-47.4928 302.1121,-34.527 283.7609,-24.5496"/>
<polygon fill="#191970" stroke="#191970" points="285.1929,-21.3444 274.7356,-19.6427 281.8493,-27.4942 285.1929,-21.3444"/>
</g>
<!-- Node10 -->
<g id="node11" class="node">
<title>Node10</title>
<polygon fill="none" stroke="#bfbfbf" points="302,-.5 302,-19.5 346,-19.5 346,-.5 302,-.5"/>
<text text-anchor="middle" x="324" y="-7.5" font-family="FreeSans.ttf" font-size="10.00" fill="#000000">limits</text>
</g>
<!-- Node5&#45;&gt;Node10 -->
<g id="edge12" class="edge">
<title>Node5&#45;&gt;Node10</title>
<path fill="none" stroke="#191970" d="M353.7293,-56.2455C348.7736,-48.5367 341.717,-37.5598 335.7224,-28.2348"/>
<polygon fill="#191970" stroke="#191970" points="338.5506,-26.1618 330.1989,-19.6427 332.6624,-29.9471 338.5506,-26.1618"/>
</g>
<!-- Node11 -->
<g id="node12" class="node">
<title>Node11</title>
<polygon fill="none" stroke="#bfbfbf" points="364.5,-.5 364.5,-19.5 429.5,-19.5 429.5,-.5 364.5,-.5"/>
<text text-anchor="middle" x="397" y="-7.5" font-family="FreeSans.ttf" font-size="10.00" fill="#000000">stdexcept</text>
</g>
<!-- Node5&#45;&gt;Node11 -->
<g id="edge13" class="edge">
<title>Node5&#45;&gt;Node11</title>
<path fill="none" stroke="#191970" d="M366.4449,-56.2455C371.5382,-48.5367 378.7908,-37.5598 384.952,-28.2348"/>
<polygon fill="#191970" stroke="#191970" points="388.0365,-29.9155 390.6289,-19.6427 382.1962,-26.0566 388.0365,-29.9155"/>
</g>
<!-- Node12 -->
<g id="node13" class="node">
<title>Node12</title>
<polygon fill="none" stroke="#bfbfbf" points="447.5,-.5 447.5,-19.5 516.5,-19.5 516.5,-.5 447.5,-.5"/>
<text text-anchor="middle" x="482" y="-7.5" font-family="FreeSans.ttf" font-size="10.00" fill="#000000">type_traits</text>
</g>
<!-- Node5&#45;&gt;Node12 -->
<g id="edge14" class="edge">
<title>Node5&#45;&gt;Node12</title>
<path fill="none" stroke="#191970" d="M380.9725,-56.3733C400.5567,-47.3838 429.9961,-33.8706 452.051,-23.7471"/>
<polygon fill="#191970" stroke="#191970" points="453.6729,-26.8538 461.3011,-19.5011 450.7527,-20.4919 453.6729,-26.8538"/>
</g>
<!-- Node13 -->
<g id="node14" class="node">
<title>Node13</title>
<polygon fill="none" stroke="#bfbfbf" points="534.5,-.5 534.5,-19.5 579.5,-19.5 579.5,-.5 534.5,-.5"/>
<text text-anchor="middle" x="557" y="-7.5" font-family="FreeSans.ttf" font-size="10.00" fill="#000000">utility</text>
</g>
<!-- Node5&#45;&gt;Node13 -->
<g id="edge15" class="edge">
<title>Node5&#45;&gt;Node13</title>
<path fill="none" stroke="#191970" d="M395.496,-56.4459C426.9453,-47.905 474.3362,-34.8509 524.5587,-20.0679"/>
<polygon fill="#191970" stroke="#191970" points="525.7028,-23.3795 534.3009,-17.1888 523.7189,-16.6665 525.7028,-23.3795"/>
</g>
<!-- Node17&#45;&gt;Node14 -->
<g id="edge21" class="edge">
<title>Node17&#45;&gt;Node14</title>
<path fill="none" stroke="#191970" d="M641,-112.2455C641,-104.9382 641,-94.6944 641,-85.7046"/>
<polygon fill="#191970" stroke="#191970" points="644.5001,-85.6426 641,-75.6427 637.5001,-85.6427 644.5001,-85.6426"/>
</g>
<!-- Node18 -->
<g id="node19" class="node">
<title>Node18</title>
<polygon fill="none" stroke="#bfbfbf" points="681,-56.5 681,-75.5 767,-75.5 767,-56.5 681,-56.5"/>
<text text-anchor="middle" x="724" y="-63.5" font-family="FreeSans.ttf" font-size="10.00" fill="#000000">ModelExport.h</text>
</g>
<!-- Node17&#45;&gt;Node18 -->
<g id="edge22" class="edge">
<title>Node17&#45;&gt;Node18</title>
<path fill="none" stroke="#191970" d="M655.4575,-112.2455C668.0732,-103.7337 686.5944,-91.2375 701.2045,-81.3801"/>
<polygon fill="#191970" stroke="#191970" points="703.3761,-84.1371 709.7082,-75.6427 699.4609,-78.3343 703.3761,-84.1371"/>
</g>
</g>
</svg>
