<?xml version="1.0" encoding="UTF-8" standalone="no"?>
<!DOCTYPE svg PUBLIC "-//W3C//DTD SVG 1.1//EN"
 "http://www.w3.org/Graphics/SVG/1.1/DTD/svg11.dtd">
<!-- Generated by graphviz version 2.40.1 (20161225.0304)
 -->
<!-- Title: BoundingBoxHelpers.cpp Pages: 1 -->
<svg width="1690pt" height="599pt"
 viewBox="0.00 0.00 1689.85 599.00" xmlns="http://www.w3.org/2000/svg" xmlns:xlink="http://www.w3.org/1999/xlink">
<g id="graph0" class="graph" transform="scale(1 1) rotate(0) translate(4 595)">
<title>BoundingBoxHelpers.cpp</title>
<!-- Node0 -->
<g id="node1" class="node">
<title>Node0</title>
<polygon fill="#bfbfbf" stroke="#000000" points="1003.8538,-571.5 1003.8538,-590.5 1142.8538,-590.5 1142.8538,-571.5 1003.8538,-571.5"/>
<text text-anchor="middle" x="1073.3538" y="-578.5" font-family="FreeSans.ttf" font-size="10.00" fill="#000000">BoundingBoxHelpers.cpp</text>
</g>
<!-- Node1 -->
<g id="node2" class="node">
<title>Node1</title>
<g id="a_node2"><a xlink:href="BoundingBoxHelpers_8h.html" target="_top" xlink:title="iDynTree/BoundingBoxHelpers.h">
<polygon fill="none" stroke="#000000" points="279.8538,-515.5 279.8538,-534.5 452.8538,-534.5 452.8538,-515.5 279.8538,-515.5"/>
<text text-anchor="middle" x="366.3538" y="-522.5" font-family="FreeSans.ttf" font-size="10.00" fill="#000000">iDynTree/BoundingBoxHelpers.h</text>
</a>
</g>
</g>
<!-- Node0&#45;&gt;Node1 -->
<g id="edge1" class="edge">
<title>Node0&#45;&gt;Node1</title>
<path fill="none" stroke="#191970" d="M1003.629,-575.4772C876.7326,-565.426 607.839,-544.1275 463.2219,-532.6727"/>
<polygon fill="#191970" stroke="#191970" points="463.273,-529.1659 453.0279,-531.8653 462.7203,-536.144 463.273,-529.1659"/>
</g>
<!-- Node9 -->
<g id="node10" class="node">
<title>Node9</title>
<polygon fill="none" stroke="#bfbfbf" points="998.3538,-.5 998.3538,-19.5 1062.3538,-19.5 1062.3538,-.5 998.3538,-.5"/>
<text text-anchor="middle" x="1030.3538" y="-7.5" font-family="FreeSans.ttf" font-size="10.00" fill="#000000">algorithm</text>
</g>
<!-- Node0&#45;&gt;Node9 -->
<g id="edge94" class="edge">
<title>Node0&#45;&gt;Node9</title>
<path fill="none" stroke="#191970" d="M1143.0678,-579.4124C1282.9016,-574.3298 1584.3538,-552.9943 1584.3538,-463.5 1584.3538,-463.5 1584.3538,-463.5 1584.3538,-122 1584.3538,-69.8641 1202.5401,-27.1025 1072.8588,-14.0823"/>
<polygon fill="#191970" stroke="#191970" points="1072.8311,-10.5624 1062.5337,-13.0552 1072.1381,-17.528 1072.8311,-10.5624"/>
</g>
<!-- Node31 -->
<g id="node32" class="node">
<title>Node31</title>
<g id="a_node32"><a xlink:href="Axis_8h.html" target="_top" xlink:title="iDynTree/Core/Axis.h">
<polygon fill="none" stroke="#000000" points="734.3538,-392.5 734.3538,-411.5 852.3538,-411.5 852.3538,-392.5 734.3538,-392.5"/>
<text text-anchor="middle" x="793.3538" y="-399.5" font-family="FreeSans.ttf" font-size="10.00" fill="#000000">iDynTree/Core/Axis.h</text>
</a>
</g>
</g>
<!-- Node0&#45;&gt;Node31 -->
<g id="edge63" class="edge">
<title>Node0&#45;&gt;Node31</title>
<path fill="none" stroke="#191970" d="M1046.8565,-571.4563C1005.7951,-555.923 925.381,-522.4864 866.3538,-479 842.8634,-461.6942 820.4958,-436.327 806.8539,-419.4985"/>
<polygon fill="#191970" stroke="#191970" points="809.5144,-417.2207 800.5557,-411.5646 804.0319,-421.5729 809.5144,-417.2207"/>
</g>
<!-- Node33 -->
<g id="node34" class="node">
<title>Node33</title>
<g id="a_node34"><a xlink:href="EigenHelpers_8h.html" target="_top" xlink:title="iDynTree/Core/EigenHelpers.h">
<polygon fill="none" stroke="#000000" points="992.8538,-515.5 992.8538,-534.5 1153.8538,-534.5 1153.8538,-515.5 992.8538,-515.5"/>
<text text-anchor="middle" x="1073.3538" y="-522.5" font-family="FreeSans.ttf" font-size="10.00" fill="#000000">iDynTree/Core/EigenHelpers.h</text>
</a>
</g>
</g>
<!-- Node0&#45;&gt;Node33 -->
<g id="edge71" class="edge">
<title>Node0&#45;&gt;Node33</title>
<path fill="none" stroke="#191970" d="M1073.3538,-571.2455C1073.3538,-563.9382 1073.3538,-553.6944 1073.3538,-544.7046"/>
<polygon fill="#191970" stroke="#191970" points="1076.8539,-544.6426 1073.3538,-534.6427 1069.8539,-544.6427 1076.8539,-544.6426"/>
</g>
<!-- Node38 -->
<g id="node39" class="node">
<title>Node38</title>
<polygon fill="none" stroke="#bfbfbf" points="1612.8538,-515.5 1612.8538,-534.5 1681.8538,-534.5 1681.8538,-515.5 1612.8538,-515.5"/>
<text text-anchor="middle" x="1647.3538" y="-522.5" font-family="FreeSans.ttf" font-size="10.00" fill="#000000">Eigen/Core</text>
</g>
<!-- Node0&#45;&gt;Node38 -->
<g id="edge93" class="edge">
<title>Node0&#45;&gt;Node38</title>
<path fill="none" stroke="#191970" d="M1142.8609,-577.4371C1243.6442,-571.6992 1436.0548,-558.593 1598.3538,-535 1599.8037,-534.7892 1601.2753,-534.5628 1602.7596,-534.3237"/>
<polygon fill="#191970" stroke="#191970" points="1603.3947,-537.7658 1612.6409,-532.5931 1602.187,-530.8708 1603.3947,-537.7658"/>
</g>
<!-- Node2 -->
<g id="node3" class="node">
<title>Node2</title>
<polygon fill="none" stroke="#bfbfbf" points="406.3538,-112.5 406.3538,-131.5 450.3538,-131.5 450.3538,-112.5 406.3538,-112.5"/>
<text text-anchor="middle" x="428.3538" y="-119.5" font-family="FreeSans.ttf" font-size="10.00" fill="#000000">string</text>
</g>
<!-- Node1&#45;&gt;Node2 -->
<g id="edge2" class="edge">
<title>Node1&#45;&gt;Node2</title>
<path fill="none" stroke="#191970" d="M279.7172,-519.162C226.9319,-513.3721 158.9754,-501.8611 102.3538,-479 48.0382,-457.07 -15.1695,-447.5698 3.3538,-392 42.7066,-273.9416 65.4054,-233.2792 171.3538,-168 208.5773,-145.065 335.6455,-130.5741 396.009,-124.8251"/>
<polygon fill="#191970" stroke="#191970" points="396.4938,-128.2952 406.1267,-123.8841 395.8455,-121.3253 396.4938,-128.2952"/>
</g>
<!-- Node3 -->
<g id="node4" class="node">
<title>Node3</title>
<polygon fill="none" stroke="#bfbfbf" points="12.8538,-392.5 12.8538,-411.5 59.8538,-411.5 59.8538,-392.5 12.8538,-392.5"/>
<text text-anchor="middle" x="36.3538" y="-399.5" font-family="FreeSans.ttf" font-size="10.00" fill="#000000">vector</text>
</g>
<!-- Node1&#45;&gt;Node3 -->
<g id="edge3" class="edge">
<title>Node1&#45;&gt;Node3</title>
<path fill="none" stroke="#191970" d="M300.6265,-515.4762C260.3284,-508.318 208.2286,-496.6635 164.3538,-479 124.0736,-462.7836 81.7276,-434.8405 57.2494,-417.4476"/>
<polygon fill="#191970" stroke="#191970" points="59.2358,-414.565 49.0765,-411.5583 55.1434,-420.2441 59.2358,-414.565"/>
</g>
<!-- Node4 -->
<g id="node5" class="node">
<title>Node4</title>
<g id="a_node5"><a xlink:href="MatrixDynSize_8h.html" target="_top" xlink:title="iDynTree/Core/MatrixDynSize.h">
<polygon fill="none" stroke="#000000" points="337.8538,-392.5 337.8538,-411.5 504.8538,-411.5 504.8538,-392.5 337.8538,-392.5"/>
<text text-anchor="middle" x="421.3538" y="-399.5" font-family="FreeSans.ttf" font-size="10.00" fill="#000000">iDynTree/Core/MatrixDynSize.h</text>
</a>
</g>
</g>
<!-- Node1&#45;&gt;Node4 -->
<g id="edge4" class="edge">
<title>Node1&#45;&gt;Node4</title>
<path fill="none" stroke="#191970" d="M375.6892,-515.1857C383.5989,-506.3639 394.688,-492.7195 401.3538,-479 410.242,-460.7062 415.5225,-437.9804 418.4047,-421.9746"/>
<polygon fill="#191970" stroke="#191970" points="421.9306,-422.1019 420.0969,-411.6669 415.0231,-420.9678 421.9306,-422.1019"/>
</g>
<!-- Node18 -->
<g id="node19" class="node">
<title>Node18</title>
<g id="a_node19"><a xlink:href="Position_8h.html" target="_top" xlink:title="iDynTree/Core/Position.h">
<polygon fill="none" stroke="#000000" points="449.3538,-336.5 449.3538,-355.5 585.3538,-355.5 585.3538,-336.5 449.3538,-336.5"/>
<text text-anchor="middle" x="517.3538" y="-343.5" font-family="FreeSans.ttf" font-size="10.00" fill="#000000">iDynTree/Core/Position.h</text>
</a>
</g>
</g>
<!-- Node1&#45;&gt;Node18 -->
<g id="edge22" class="edge">
<title>Node1&#45;&gt;Node18</title>
<path fill="none" stroke="#191970" d="M388.3824,-515.4979C422.1396,-499.6107 485.66,-464.1739 513.3538,-412 520.8381,-397.8998 521.3716,-379.6431 520.2973,-365.9063"/>
<polygon fill="#191970" stroke="#191970" points="523.7358,-365.1643 519.1341,-355.621 516.7802,-365.951 523.7358,-365.1643"/>
</g>
<!-- Node28 -->
<g id="node29" class="node">
<title>Node28</title>
<g id="a_node29"><a xlink:href="Transform_8h.html" target="_top" xlink:title="iDynTree/Core/Transform.h">
<polygon fill="none" stroke="#000000" points="560.3538,-392.5 560.3538,-411.5 706.3538,-411.5 706.3538,-392.5 560.3538,-392.5"/>
<text text-anchor="middle" x="633.3538" y="-399.5" font-family="FreeSans.ttf" font-size="10.00" fill="#000000">iDynTree/Core/Transform.h</text>
</a>
</g>
</g>
<!-- Node1&#45;&gt;Node28 -->
<g id="edge48" class="edge">
<title>Node1&#45;&gt;Node28</title>
<path fill="none" stroke="#191970" d="M434.5289,-515.4466C469.4232,-508.6452 511.7273,-497.3516 546.3538,-479 575.1475,-463.7397 602.2489,-437.0726 618.3258,-419.4745"/>
<polygon fill="#191970" stroke="#191970" points="621.2541,-421.449 625.2916,-411.6537 616.0269,-416.7933 621.2541,-421.449"/>
</g>
<!-- Node29 -->
<g id="node30" class="node">
<title>Node29</title>
<g id="a_node30"><a xlink:href="VectorDynSize_8h.html" target="_top" xlink:title="iDynTree/Core/VectorDynSize.h">
<polygon fill="none" stroke="#000000" points="77.8538,-392.5 77.8538,-411.5 244.8538,-411.5 244.8538,-392.5 77.8538,-392.5"/>
<text text-anchor="middle" x="161.3538" y="-399.5" font-family="FreeSans.ttf" font-size="10.00" fill="#000000">iDynTree/Core/VectorDynSize.h</text>
</a>
</g>
</g>
<!-- Node1&#45;&gt;Node29 -->
<g id="edge53" class="edge">
<title>Node1&#45;&gt;Node29</title>
<path fill="none" stroke="#191970" d="M301.9925,-515.4303C257.0638,-507.5212 202.2356,-495.0056 185.3538,-479 169.6831,-464.1426 164.1832,-439.2421 162.287,-421.7907"/>
<polygon fill="#191970" stroke="#191970" points="165.7576,-421.2762 161.4907,-411.5786 158.7788,-421.8205 165.7576,-421.2762"/>
</g>
<!-- Node30 -->
<g id="node31" class="node">
<title>Node30</title>
<g id="a_node31"><a xlink:href="ConvexHullHelpers_8h.html" target="_top" xlink:title="iDynTree/ConvexHullHelpers.h">
<polygon fill="none" stroke="#000000" points="227.8538,-454 227.8538,-473 392.8538,-473 392.8538,-454 227.8538,-454"/>
<text text-anchor="middle" x="310.3538" y="-461" font-family="FreeSans.ttf" font-size="10.00" fill="#000000">iDynTree/ConvexHullHelpers.h</text>
</a>
</g>
</g>
<!-- Node1&#45;&gt;Node30 -->
<g id="edge56" class="edge">
<title>Node1&#45;&gt;Node30</title>
<path fill="none" stroke="#191970" d="M357.6038,-515.3906C349.1876,-506.1478 336.274,-491.966 326.0728,-480.7628"/>
<polygon fill="#191970" stroke="#191970" points="328.5478,-478.2824 319.2271,-473.2449 323.372,-482.9953 328.5478,-478.2824"/>
</g>
<!-- Node4&#45;&gt;Node2 -->
<g id="edge5" class="edge">
<title>Node4&#45;&gt;Node2</title>
<path fill="none" stroke="#191970" d="M374.3219,-392.4887C335.8664,-383.8611 285.4666,-370.3314 270.3538,-356 247.7054,-334.5227 246.3538,-321.2125 246.3538,-290 246.3538,-290 246.3538,-290 246.3538,-234 246.3538,-202.7875 247.5727,-189.3365 270.3538,-168 288.5768,-150.9325 355.5684,-135.7277 396.2399,-127.7982"/>
<polygon fill="#191970" stroke="#191970" points="397.0459,-131.2077 406.2133,-125.8964 395.7347,-124.3316 397.0459,-131.2077"/>
</g>
<!-- Node5 -->
<g id="node6" class="node">
<title>Node5</title>
<g id="a_node6"><a xlink:href="MatrixView_8h.html" target="_top" xlink:title="iDynTree/Core/MatrixView.h">
<polygon fill="none" stroke="#000000" points="610.8538,-112.5 610.8538,-131.5 761.8538,-131.5 761.8538,-112.5 610.8538,-112.5"/>
<text text-anchor="middle" x="686.3538" y="-119.5" font-family="FreeSans.ttf" font-size="10.00" fill="#000000">iDynTree/Core/MatrixView.h</text>
</a>
</g>
</g>
<!-- Node4&#45;&gt;Node5 -->
<g id="edge6" class="edge">
<title>Node4&#45;&gt;Node5</title>
<path fill="none" stroke="#191970" d="M422.3928,-392.3367C424.2151,-378.8139 428.9439,-353.8964 440.3538,-336 499.6554,-242.9856 611.2188,-167.5772 661.1168,-136.8679"/>
<polygon fill="#191970" stroke="#191970" points="662.9604,-139.8432 669.6897,-131.6598 659.326,-133.8606 662.9604,-139.8432"/>
</g>
<!-- Node6 -->
<g id="node7" class="node">
<title>Node6</title>
<polygon fill="none" stroke="#bfbfbf" points="764.3538,-.5 764.3538,-19.5 816.3538,-19.5 816.3538,-.5 764.3538,-.5"/>
<text text-anchor="middle" x="790.3538" y="-7.5" font-family="FreeSans.ttf" font-size="10.00" fill="#000000">cassert</text>
</g>
<!-- Node5&#45;&gt;Node6 -->
<g id="edge7" class="edge">
<title>Node5&#45;&gt;Node6</title>
<path fill="none" stroke="#191970" d="M695.2208,-112.4509C712.797,-93.5227 752.2693,-51.014 774.4493,-27.1279"/>
<polygon fill="#191970" stroke="#191970" points="777.2695,-29.2344 781.5092,-19.5249 772.1399,-24.4713 777.2695,-29.2344"/>
</g>
<!-- Node7 -->
<g id="node8" class="node">
<title>Node7</title>
<polygon fill="none" stroke="#bfbfbf" points="676.8538,-.5 676.8538,-19.5 745.8538,-19.5 745.8538,-.5 676.8538,-.5"/>
<text text-anchor="middle" x="711.3538" y="-7.5" font-family="FreeSans.ttf" font-size="10.00" fill="#000000">type_traits</text>
</g>
<!-- Node5&#45;&gt;Node7 -->
<g id="edge8" class="edge">
<title>Node5&#45;&gt;Node7</title>
<path fill="none" stroke="#191970" d="M688.4853,-112.4509C692.5812,-94.1013 701.6237,-53.5908 707.0303,-29.3693"/>
<polygon fill="#191970" stroke="#191970" points="710.465,-30.0472 709.2277,-19.5249 703.6331,-28.5222 710.465,-30.0472"/>
</g>
<!-- Node8 -->
<g id="node9" class="node">
<title>Node8</title>
<g id="a_node9"><a xlink:href="Span_8h.html" target="_top" xlink:title="iDynTree/Core/Span.h">
<polygon fill="none" stroke="#000000" points="536.8538,-56.5 536.8538,-75.5 657.8538,-75.5 657.8538,-56.5 536.8538,-56.5"/>
<text text-anchor="middle" x="597.3538" y="-63.5" font-family="FreeSans.ttf" font-size="10.00" fill="#000000">iDynTree/Core/Span.h</text>
</a>
</g>
</g>
<!-- Node5&#45;&gt;Node8 -->
<g id="edge9" class="edge">
<title>Node5&#45;&gt;Node8</title>
<path fill="none" stroke="#191970" d="M670.8512,-112.2455C657.1958,-103.6534 637.0881,-91.0014 621.3549,-81.1018"/>
<polygon fill="#191970" stroke="#191970" points="623.0066,-78.006 612.6787,-75.6427 619.2787,-83.9307 623.0066,-78.006"/>
</g>
<!-- Node16 -->
<g id="node17" class="node">
<title>Node16</title>
<g id="a_node17"><a xlink:href="Utils_8h.html" target="_top" xlink:title="iDynTree/Core/Utils.h">
<polygon fill="none" stroke="#000000" points="1152.8538,-56.5 1152.8538,-75.5 1271.8538,-75.5 1271.8538,-56.5 1152.8538,-56.5"/>
<text text-anchor="middle" x="1212.3538" y="-63.5" font-family="FreeSans.ttf" font-size="10.00" fill="#000000">iDynTree/Core/Utils.h</text>
</a>
</g>
</g>
<!-- Node5&#45;&gt;Node16 -->
<g id="edge19" class="edge">
<title>Node5&#45;&gt;Node16</title>
<path fill="none" stroke="#191970" d="M761.9966,-113.9468C863.8622,-103.1018 1043.7237,-83.953 1142.5198,-73.4348"/>
<polygon fill="#191970" stroke="#191970" points="1143.1239,-76.8904 1152.6971,-72.3513 1142.3828,-69.9297 1143.1239,-76.8904"/>
</g>
<!-- Node8&#45;&gt;Node6 -->
<g id="edge10" class="edge">
<title>Node8&#45;&gt;Node6</title>
<path fill="none" stroke="#191970" d="M630.5317,-56.3733C664.9624,-46.383 718.6486,-30.8056 754.1566,-20.5028"/>
<polygon fill="#191970" stroke="#191970" points="755.4759,-23.7644 764.1044,-17.6164 753.5252,-17.0417 755.4759,-23.7644"/>
</g>
<!-- Node8&#45;&gt;Node7 -->
<g id="edge17" class="edge">
<title>Node8&#45;&gt;Node7</title>
<path fill="none" stroke="#191970" d="M616.9511,-56.3733C635.0869,-47.4644 662.2673,-34.1127 682.8125,-24.0203"/>
<polygon fill="#191970" stroke="#191970" points="684.5798,-27.0517 692.0122,-19.5011 681.4935,-20.7688 684.5798,-27.0517"/>
</g>
<!-- Node8&#45;&gt;Node9 -->
<g id="edge11" class="edge">
<title>Node8&#45;&gt;Node9</title>
<path fill="none" stroke="#191970" d="M658.0165,-58.1545C747.0452,-46.6404 910.8657,-25.4534 988.0354,-15.473"/>
<polygon fill="#191970" stroke="#191970" points="988.8641,-18.8951 998.3326,-14.1413 987.9662,-11.9529 988.8641,-18.8951"/>
</g>
<!-- Node10 -->
<g id="node11" class="node">
<title>Node10</title>
<polygon fill="none" stroke="#bfbfbf" points="482.3538,-.5 482.3538,-19.5 524.3538,-19.5 524.3538,-.5 482.3538,-.5"/>
<text text-anchor="middle" x="503.3538" y="-7.5" font-family="FreeSans.ttf" font-size="10.00" fill="#000000">array</text>
</g>
<!-- Node8&#45;&gt;Node10 -->
<g id="edge12" class="edge">
<title>Node8&#45;&gt;Node10</title>
<path fill="none" stroke="#191970" d="M580.9802,-56.2455C566.4229,-47.5731 544.9228,-34.7645 528.2386,-24.825"/>
<polygon fill="#191970" stroke="#191970" points="529.9221,-21.7539 519.5397,-19.6427 526.3394,-27.7676 529.9221,-21.7539"/>
</g>
<!-- Node11 -->
<g id="node12" class="node">
<title>Node11</title>
<polygon fill="none" stroke="#bfbfbf" points="880.8538,-.5 880.8538,-19.5 933.8538,-19.5 933.8538,-.5 880.8538,-.5"/>
<text text-anchor="middle" x="907.3538" y="-7.5" font-family="FreeSans.ttf" font-size="10.00" fill="#000000">cstddef</text>
</g>
<!-- Node8&#45;&gt;Node11 -->
<g id="edge13" class="edge">
<title>Node8&#45;&gt;Node11</title>
<path fill="none" stroke="#191970" d="M650.2924,-56.4369C713.164,-45.0794 816.3652,-26.4367 870.9183,-16.5819"/>
<polygon fill="#191970" stroke="#191970" points="871.6174,-20.0123 880.836,-14.7903 870.373,-13.1238 871.6174,-20.0123"/>
</g>
<!-- Node12 -->
<g id="node13" class="node">
<title>Node12</title>
<polygon fill="none" stroke="#bfbfbf" points="542.8538,-.5 542.8538,-19.5 595.8538,-19.5 595.8538,-.5 542.8538,-.5"/>
<text text-anchor="middle" x="569.3538" y="-7.5" font-family="FreeSans.ttf" font-size="10.00" fill="#000000">iterator</text>
</g>
<!-- Node8&#45;&gt;Node12 -->
<g id="edge14" class="edge">
<title>Node8&#45;&gt;Node12</title>
<path fill="none" stroke="#191970" d="M592.4765,-56.2455C588.7024,-48.6973 583.3616,-38.0158 578.7636,-28.8197"/>
<polygon fill="#191970" stroke="#191970" points="581.7778,-27.0217 574.1751,-19.6427 575.5168,-30.1522 581.7778,-27.0217"/>
</g>
<!-- Node13 -->
<g id="node14" class="node">
<title>Node13</title>
<polygon fill="none" stroke="#bfbfbf" points="614.3538,-.5 614.3538,-19.5 658.3538,-19.5 658.3538,-.5 614.3538,-.5"/>
<text text-anchor="middle" x="636.3538" y="-7.5" font-family="FreeSans.ttf" font-size="10.00" fill="#000000">limits</text>
</g>
<!-- Node8&#45;&gt;Node13 -->
<g id="edge15" class="edge">
<title>Node8&#45;&gt;Node13</title>
<path fill="none" stroke="#191970" d="M604.1471,-56.2455C609.5716,-48.4564 617.3198,-37.3308 623.8571,-27.9439"/>
<polygon fill="#191970" stroke="#191970" points="626.7955,-29.849 629.6383,-19.6427 621.0512,-25.8485 626.7955,-29.849"/>
</g>
<!-- Node14 -->
<g id="node15" class="node">
<title>Node14</title>
<polygon fill="none" stroke="#bfbfbf" points="335.8538,-.5 335.8538,-19.5 400.8538,-19.5 400.8538,-.5 335.8538,-.5"/>
<text text-anchor="middle" x="368.3538" y="-7.5" font-family="FreeSans.ttf" font-size="10.00" fill="#000000">stdexcept</text>
</g>
<!-- Node8&#45;&gt;Node14 -->
<g id="edge16" class="edge">
<title>Node8&#45;&gt;Node14</title>
<path fill="none" stroke="#191970" d="M558.2475,-56.4369C517.2967,-46.4227 453.1843,-30.7446 410.9671,-20.4207"/>
<polygon fill="#191970" stroke="#191970" points="411.5413,-16.9581 400.9961,-17.9824 409.8785,-23.7577 411.5413,-16.9581"/>
</g>
<!-- Node15 -->
<g id="node16" class="node">
<title>Node15</title>
<polygon fill="none" stroke="#bfbfbf" points="418.8538,-.5 418.8538,-19.5 463.8538,-19.5 463.8538,-.5 418.8538,-.5"/>
<text text-anchor="middle" x="441.3538" y="-7.5" font-family="FreeSans.ttf" font-size="10.00" fill="#000000">utility</text>
</g>
<!-- Node8&#45;&gt;Node15 -->
<g id="edge18" class="edge">
<title>Node8&#45;&gt;Node15</title>
<path fill="none" stroke="#191970" d="M570.5364,-56.3733C543.7296,-46.7503 502.4823,-31.9436 473.8355,-21.6601"/>
<polygon fill="#191970" stroke="#191970" points="474.8671,-18.3118 464.2726,-18.2273 472.502,-24.9002 474.8671,-18.3118"/>
</g>
<!-- Node16&#45;&gt;Node11 -->
<g id="edge20" class="edge">
<title>Node16&#45;&gt;Node11</title>
<path fill="none" stroke="#191970" d="M1160.269,-56.4369C1098.8591,-45.1616 998.3422,-26.7061 944.3742,-16.7972"/>
<polygon fill="#191970" stroke="#191970" points="944.6944,-13.2975 934.2267,-14.934 943.4302,-20.1825 944.6944,-13.2975"/>
</g>
<!-- Node17 -->
<g id="node18" class="node">
<title>Node17</title>
<polygon fill="none" stroke="#bfbfbf" points="1172.3538,-.5 1172.3538,-19.5 1252.3538,-19.5 1252.3538,-.5 1172.3538,-.5"/>
<text text-anchor="middle" x="1212.3538" y="-7.5" font-family="FreeSans.ttf" font-size="10.00" fill="#000000">CoreExport.h</text>
</g>
<!-- Node16&#45;&gt;Node17 -->
<g id="edge21" class="edge">
<title>Node16&#45;&gt;Node17</title>
<path fill="none" stroke="#191970" d="M1212.3538,-56.2455C1212.3538,-48.9382 1212.3538,-38.6944 1212.3538,-29.7046"/>
<polygon fill="#191970" stroke="#191970" points="1215.8539,-29.6426 1212.3538,-19.6427 1208.8539,-29.6427 1215.8539,-29.6426"/>
</g>
<!-- Node18&#45;&gt;Node2 -->
<g id="edge47" class="edge">
<title>Node18&#45;&gt;Node2</title>
<path fill="none" stroke="#191970" d="M480.1388,-336.4677C437.913,-323.4354 371.0652,-295.5596 341.3538,-244 317.9843,-203.4458 370.438,-159.6336 403.6783,-137.175"/>
<polygon fill="#191970" stroke="#191970" points="405.6145,-140.0908 412.0615,-131.6832 401.7786,-134.2353 405.6145,-140.0908"/>
</g>
<!-- Node19 -->
<g id="node20" class="node">
<title>Node19</title>
<g id="a_node20"><a xlink:href="PositionRaw_8h.html" target="_top" xlink:title="iDynTree/Core/PositionRaw.h">
<polygon fill="none" stroke="#000000" points="350.3538,-224.5 350.3538,-243.5 506.3538,-243.5 506.3538,-224.5 350.3538,-224.5"/>
<text text-anchor="middle" x="428.3538" y="-231.5" font-family="FreeSans.ttf" font-size="10.00" fill="#000000">iDynTree/Core/PositionRaw.h</text>
</a>
</g>
</g>
<!-- Node18&#45;&gt;Node19 -->
<g id="edge23" class="edge">
<title>Node18&#45;&gt;Node19</title>
<path fill="none" stroke="#191970" d="M509.7657,-336.4509C494.7902,-317.6054 461.2399,-275.3849 442.2138,-251.4419"/>
<polygon fill="#191970" stroke="#191970" points="444.8842,-249.1765 435.9227,-243.5249 439.4038,-253.5315 444.8842,-249.1765"/>
</g>
<!-- Node23 -->
<g id="node24" class="node">
<title>Node23</title>
<g id="a_node24"><a xlink:href="Rotation_8h.html" target="_top" xlink:title="iDynTree/Core/Rotation.h">
<polygon fill="none" stroke="#000000" points="676.8538,-280.5 676.8538,-299.5 813.8538,-299.5 813.8538,-280.5 676.8538,-280.5"/>
<text text-anchor="middle" x="745.3538" y="-287.5" font-family="FreeSans.ttf" font-size="10.00" fill="#000000">iDynTree/Core/Rotation.h</text>
</a>
</g>
</g>
<!-- Node18&#45;&gt;Node23 -->
<g id="edge32" class="edge">
<title>Node18&#45;&gt;Node23</title>
<path fill="none" stroke="#191970" d="M556.2893,-336.4369C595.1458,-326.8932 654.9468,-312.2052 696.8626,-301.9101"/>
<polygon fill="#191970" stroke="#191970" points="697.7023,-305.308 706.5788,-299.5237 696.0326,-298.51 697.7023,-305.308"/>
</g>
<!-- Node19&#45;&gt;Node2 -->
<g id="edge31" class="edge">
<title>Node19&#45;&gt;Node2</title>
<path fill="none" stroke="#191970" d="M428.3538,-224.4509C428.3538,-206.184 428.3538,-165.9553 428.3538,-141.6976"/>
<polygon fill="#191970" stroke="#191970" points="431.8539,-141.5249 428.3538,-131.5249 424.8539,-141.5249 431.8539,-141.5249"/>
</g>
<!-- Node20 -->
<g id="node21" class="node">
<title>Node20</title>
<g id="a_node21"><a xlink:href="VectorFixSize_8h.html" target="_top" xlink:title="iDynTree/Core/VectorFixSize.h">
<polygon fill="none" stroke="#000000" points="1006.8538,-168.5 1006.8538,-187.5 1167.8538,-187.5 1167.8538,-168.5 1006.8538,-168.5"/>
<text text-anchor="middle" x="1087.3538" y="-175.5" font-family="FreeSans.ttf" font-size="10.00" fill="#000000">iDynTree/Core/VectorFixSize.h</text>
</a>
</g>
</g>
<!-- Node19&#45;&gt;Node20 -->
<g id="edge24" class="edge">
<title>Node19&#45;&gt;Node20</title>
<path fill="none" stroke="#191970" d="M506.5376,-227.3562C629.1939,-216.9332 866.2407,-196.7896 996.3671,-185.7318"/>
<polygon fill="#191970" stroke="#191970" points="997.0318,-189.188 1006.6995,-184.8538 996.439,-182.2132 997.0318,-189.188"/>
</g>
<!-- Node20&#45;&gt;Node2 -->
<g id="edge27" class="edge">
<title>Node20&#45;&gt;Node2</title>
<path fill="none" stroke="#191970" d="M1006.5474,-171.1333C860.638,-158.7343 559.1796,-133.1172 460.4373,-124.7264"/>
<polygon fill="#191970" stroke="#191970" points="460.7288,-121.2386 450.4683,-123.8792 460.136,-128.2135 460.7288,-121.2386"/>
</g>
<!-- Node20&#45;&gt;Node6 -->
<g id="edge29" class="edge">
<title>Node20&#45;&gt;Node6</title>
<path fill="none" stroke="#191970" d="M1094.8117,-168.114C1104.229,-154.3268 1117.7886,-129.097 1105.3538,-112 1071.891,-65.991 901.8548,-30.1506 826.4486,-16.2602"/>
<polygon fill="#191970" stroke="#191970" points="826.9249,-12.7895 816.4605,-14.4471 825.6746,-19.677 826.9249,-12.7895"/>
</g>
<!-- Node20&#45;&gt;Node8 -->
<g id="edge26" class="edge">
<title>Node20&#45;&gt;Node8</title>
<path fill="none" stroke="#191970" d="M1006.7023,-173.0869C872.1722,-164.5116 615.2336,-146.3576 601.3538,-132 589.7822,-120.0301 590.0381,-100.4398 592.4342,-85.7052"/>
<polygon fill="#191970" stroke="#191970" points="595.9281,-86.092 594.5232,-75.5908 589.0728,-84.6761 595.9281,-86.092"/>
</g>
<!-- Node20&#45;&gt;Node16 -->
<g id="edge25" class="edge">
<title>Node20&#45;&gt;Node16</title>
<path fill="none" stroke="#191970" d="M1098.0112,-168.4509C1119.4132,-149.2747 1167.8267,-105.8962 1194.2747,-82.1988"/>
<polygon fill="#191970" stroke="#191970" points="1196.6112,-84.8048 1201.7233,-75.5249 1191.9399,-79.5914 1196.6112,-84.8048"/>
</g>
<!-- Node21 -->
<g id="node22" class="node">
<title>Node21</title>
<polygon fill="none" stroke="#bfbfbf" points="1040.3538,-112.5 1040.3538,-131.5 1096.3538,-131.5 1096.3538,-112.5 1040.3538,-112.5"/>
<text text-anchor="middle" x="1068.3538" y="-119.5" font-family="FreeSans.ttf" font-size="10.00" fill="#000000">sstream</text>
</g>
<!-- Node20&#45;&gt;Node21 -->
<g id="edge28" class="edge">
<title>Node20&#45;&gt;Node21</title>
<path fill="none" stroke="#191970" d="M1084.0442,-168.2455C1081.5105,-160.7776 1077.9361,-150.2427 1074.8388,-141.1137"/>
<polygon fill="#191970" stroke="#191970" points="1078.1528,-139.9879 1071.6254,-131.6427 1071.524,-142.237 1078.1528,-139.9879"/>
</g>
<!-- Node22 -->
<g id="node23" class="node">
<title>Node22</title>
<polygon fill="none" stroke="#bfbfbf" points="856.3538,-112.5 856.3538,-131.5 906.3538,-131.5 906.3538,-112.5 856.3538,-112.5"/>
<text text-anchor="middle" x="881.3538" y="-119.5" font-family="FreeSans.ttf" font-size="10.00" fill="#000000">cstring</text>
</g>
<!-- Node20&#45;&gt;Node22 -->
<g id="edge30" class="edge">
<title>Node20&#45;&gt;Node22</title>
<path fill="none" stroke="#191970" d="M1050.7092,-168.4803C1017.8816,-159.8897 968.1805,-146.7308 916.2948,-132.2206"/>
<polygon fill="#191970" stroke="#191970" points="917.1585,-128.8278 906.5848,-129.4963 915.2675,-135.5676 917.1585,-128.8278"/>
</g>
<!-- Node23&#45;&gt;Node2 -->
<g id="edge33" class="edge">
<title>Node23&#45;&gt;Node2</title>
<path fill="none" stroke="#191970" d="M728.8181,-280.4765C712.9595,-271.2892 688.3882,-256.9137 667.3538,-244 613.8734,-211.1667 604.3832,-196.2645 548.3538,-168 519.4653,-153.427 484.7981,-140.6032 460.1697,-132.2233"/>
<polygon fill="#191970" stroke="#191970" points="461.1969,-128.8763 450.6031,-129.0197 458.9741,-135.514 461.1969,-128.8763"/>
</g>
<!-- Node23&#45;&gt;Node20 -->
<g id="edge46" class="edge">
<title>Node23&#45;&gt;Node20</title>
<path fill="none" stroke="#191970" d="M814.1122,-285.5522C889.4349,-279.6039 1004.4639,-267.0326 1041.3538,-244 1059.0413,-232.9566 1071.7436,-212.3467 1079.2595,-197.0844"/>
<polygon fill="#191970" stroke="#191970" points="1082.4476,-198.5288 1083.4499,-187.9814 1076.089,-195.6016 1082.4476,-198.5288"/>
</g>
<!-- Node24 -->
<g id="node25" class="node">
<title>Node24</title>
<g id="a_node25"><a xlink:href="GeomVector3_8h.html" target="_top" xlink:title="iDynTree/Core/GeomVector3.h">
<polygon fill="none" stroke="#000000" points="1202.8538,-224.5 1202.8538,-243.5 1365.8538,-243.5 1365.8538,-224.5 1202.8538,-224.5"/>
<text text-anchor="middle" x="1284.3538" y="-231.5" font-family="FreeSans.ttf" font-size="10.00" fill="#000000">iDynTree/Core/GeomVector3.h</text>
</a>
</g>
</g>
<!-- Node23&#45;&gt;Node24 -->
<g id="edge34" class="edge">
<title>Node23&#45;&gt;Node24</title>
<path fill="none" stroke="#191970" d="M813.892,-282.8791C910.0301,-272.8908 1085.1581,-254.6957 1192.4954,-243.5437"/>
<polygon fill="#191970" stroke="#191970" points="1193.0816,-247.0018 1202.6663,-242.487 1192.3581,-240.0392 1193.0816,-247.0018"/>
</g>
<!-- Node25 -->
<g id="node26" class="node">
<title>Node25</title>
<g id="a_node26"><a xlink:href="RotationRaw_8h.html" target="_top" xlink:title="iDynTree/Core/RotationRaw.h">
<polygon fill="none" stroke="#000000" points="676.3538,-224.5 676.3538,-243.5 834.3538,-243.5 834.3538,-224.5 676.3538,-224.5"/>
<text text-anchor="middle" x="755.3538" y="-231.5" font-family="FreeSans.ttf" font-size="10.00" fill="#000000">iDynTree/Core/RotationRaw.h</text>
</a>
</g>
</g>
<!-- Node23&#45;&gt;Node25 -->
<g id="edge36" class="edge">
<title>Node23&#45;&gt;Node25</title>
<path fill="none" stroke="#191970" d="M747.0956,-280.2455C748.4005,-272.9382 750.2298,-262.6944 751.8351,-253.7046"/>
<polygon fill="#191970" stroke="#191970" points="755.3194,-254.1022 753.6319,-243.6427 748.4284,-252.8717 755.3194,-254.1022"/>
</g>
<!-- Node24&#45;&gt;Node20 -->
<g id="edge35" class="edge">
<title>Node24&#45;&gt;Node20</title>
<path fill="none" stroke="#191970" d="M1250.4883,-224.3733C1217.3047,-214.9404 1166.5988,-200.5265 1130.5344,-190.2747"/>
<polygon fill="#191970" stroke="#191970" points="1131.3533,-186.8689 1120.7774,-187.5011 1129.4392,-193.6021 1131.3533,-186.8689"/>
</g>
<!-- Node25&#45;&gt;Node2 -->
<g id="edge45" class="edge">
<title>Node25&#45;&gt;Node2</title>
<path fill="none" stroke="#191970" d="M729.2983,-224.365C704.7314,-215.2166 666.9243,-200.9729 634.3538,-188 612.8831,-179.4482 608.1492,-175.6865 586.3538,-168 543.3218,-152.824 492.4849,-138.6794 460.3315,-130.1863"/>
<polygon fill="#191970" stroke="#191970" points="461.1426,-126.7808 450.5821,-127.6332 459.3692,-133.5524 461.1426,-126.7808"/>
</g>
<!-- Node26 -->
<g id="node27" class="node">
<title>Node26</title>
<g id="a_node27"><a xlink:href="MatrixFixSize_8h.html" target="_top" xlink:title="iDynTree/Core/MatrixFixSize.h">
<polygon fill="none" stroke="#000000" points="730.8538,-168.5 730.8538,-187.5 891.8538,-187.5 891.8538,-168.5 730.8538,-168.5"/>
<text text-anchor="middle" x="811.3538" y="-175.5" font-family="FreeSans.ttf" font-size="10.00" fill="#000000">iDynTree/Core/MatrixFixSize.h</text>
</a>
</g>
</g>
<!-- Node25&#45;&gt;Node26 -->
<g id="edge37" class="edge">
<title>Node25&#45;&gt;Node26</title>
<path fill="none" stroke="#191970" d="M765.1082,-224.2455C773.2185,-216.1352 784.9463,-204.4075 794.5619,-194.7919"/>
<polygon fill="#191970" stroke="#191970" points="797.1149,-197.1887 801.7111,-187.6427 792.1651,-192.2389 797.1149,-197.1887"/>
</g>
<!-- Node26&#45;&gt;Node2 -->
<g id="edge42" class="edge">
<title>Node26&#45;&gt;Node2</title>
<path fill="none" stroke="#191970" d="M745.9489,-168.4369C663.1424,-156.3294 523.711,-135.9426 460.8342,-126.7491"/>
<polygon fill="#191970" stroke="#191970" points="461.1173,-123.2534 450.7161,-125.2697 460.1045,-130.1797 461.1173,-123.2534"/>
</g>
<!-- Node26&#45;&gt;Node5 -->
<g id="edge39" class="edge">
<title>Node26&#45;&gt;Node5</title>
<path fill="none" stroke="#191970" d="M789.8655,-168.3733C769.7098,-159.3435 739.3657,-145.7494 716.7357,-135.6111"/>
<polygon fill="#191970" stroke="#191970" points="718.1187,-132.3955 707.5616,-131.5011 715.2567,-138.7838 718.1187,-132.3955"/>
</g>
<!-- Node26&#45;&gt;Node6 -->
<g id="edge40" class="edge">
<title>Node26&#45;&gt;Node6</title>
<path fill="none" stroke="#191970" d="M810.1645,-168.4862C806.8449,-141.9293 797.4244,-66.5651 792.8745,-30.1655"/>
<polygon fill="#191970" stroke="#191970" points="796.2957,-29.3165 791.5823,-19.8279 789.3497,-30.1848 796.2957,-29.3165"/>
</g>
<!-- Node26&#45;&gt;Node16 -->
<g id="edge38" class="edge">
<title>Node26&#45;&gt;Node16</title>
<path fill="none" stroke="#191970" d="M813.5862,-168.485C817.5946,-153.7056 827.5111,-125.5287 847.3538,-112 871.181,-95.7546 1043.0603,-79.5358 1142.2301,-71.3919"/>
<polygon fill="#191970" stroke="#191970" points="1142.7927,-74.8578 1152.4758,-70.558 1142.2248,-67.8809 1142.7927,-74.8578"/>
</g>
<!-- Node26&#45;&gt;Node21 -->
<g id="edge44" class="edge">
<title>Node26&#45;&gt;Node21</title>
<path fill="none" stroke="#191970" d="M855.2416,-168.4369C904.4233,-157.7203 983.3729,-140.5172 1030.1202,-130.331"/>
<polygon fill="#191970" stroke="#191970" points="1031.1218,-133.695 1040.1473,-128.1461 1029.6314,-126.8555 1031.1218,-133.695"/>
</g>
<!-- Node26&#45;&gt;Node22 -->
<g id="edge41" class="edge">
<title>Node26&#45;&gt;Node22</title>
<path fill="none" stroke="#191970" d="M823.5468,-168.2455C833.9859,-159.8943 849.2192,-147.7076 861.4277,-137.9408"/>
<polygon fill="#191970" stroke="#191970" points="863.6782,-140.6227 869.3004,-131.6427 859.3053,-135.1566 863.6782,-140.6227"/>
</g>
<!-- Node27 -->
<g id="node28" class="node">
<title>Node27</title>
<polygon fill="none" stroke="#bfbfbf" points="924.3538,-112.5 924.3538,-131.5 984.3538,-131.5 984.3538,-112.5 924.3538,-112.5"/>
<text text-anchor="middle" x="954.3538" y="-119.5" font-family="FreeSans.ttf" font-size="10.00" fill="#000000">iostream</text>
</g>
<!-- Node26&#45;&gt;Node27 -->
<g id="edge43" class="edge">
<title>Node26&#45;&gt;Node27</title>
<path fill="none" stroke="#191970" d="M835.9363,-168.3733C859.3033,-159.2226 894.64,-145.3844 920.6322,-135.2057"/>
<polygon fill="#191970" stroke="#191970" points="922.0568,-138.4066 930.092,-131.5011 919.5042,-131.8886 922.0568,-138.4066"/>
</g>
<!-- Node28&#45;&gt;Node2 -->
<g id="edge52" class="edge">
<title>Node28&#45;&gt;Node2</title>
<path fill="none" stroke="#191970" d="M560.1919,-393.5066C457.8539,-379.5536 284.3538,-347.4296 284.3538,-290 284.3538,-290 284.3538,-290 284.3538,-234 284.3538,-177.5572 354.1386,-145.422 396.5476,-131.1043"/>
<polygon fill="#191970" stroke="#191970" points="397.7265,-134.4017 406.1693,-128.001 395.5777,-127.7396 397.7265,-134.4017"/>
</g>
<!-- Node28&#45;&gt;Node18 -->
<g id="edge49" class="edge">
<title>Node28&#45;&gt;Node18</title>
<path fill="none" stroke="#191970" d="M613.4127,-392.3733C594.8751,-383.4241 567.051,-369.9917 546.1124,-359.8835"/>
<polygon fill="#191970" stroke="#191970" points="547.5618,-356.6967 537.0347,-355.5011 544.5186,-363.0006 547.5618,-356.6967"/>
</g>
<!-- Node28&#45;&gt;Node23 -->
<g id="edge50" class="edge">
<title>Node28&#45;&gt;Node23</title>
<path fill="none" stroke="#191970" d="M642.9028,-392.4509C661.9137,-373.4401 704.7114,-330.6423 728.5377,-306.816"/>
<polygon fill="#191970" stroke="#191970" points="731.2327,-309.0709 735.8289,-299.5249 726.2829,-304.1211 731.2327,-309.0709"/>
</g>
<!-- Node28&#45;&gt;Node26 -->
<g id="edge51" class="edge">
<title>Node28&#45;&gt;Node26</title>
<path fill="none" stroke="#191970" d="M632.1012,-392.4564C628.8299,-363.2295 623.1154,-273.9162 667.3538,-224 679.2361,-210.5926 719.3989,-198.4029 754.2992,-189.9451"/>
<polygon fill="#191970" stroke="#191970" points="755.5186,-193.2537 764.4484,-187.552 753.912,-186.4405 755.5186,-193.2537"/>
</g>
<!-- Node29&#45;&gt;Node2 -->
<g id="edge55" class="edge">
<title>Node29&#45;&gt;Node2</title>
<path fill="none" stroke="#191970" d="M161.7836,-392.4139C162.6131,-373.0603 164.3538,-327.9303 164.3538,-290 164.3538,-290 164.3538,-290 164.3538,-234 164.3538,-201.7785 169.0806,-187.9873 194.3538,-168 225.2433,-143.571 339.4453,-130.0469 396.0791,-124.7107"/>
<polygon fill="#191970" stroke="#191970" points="396.6335,-128.1748 406.2739,-123.7803 395.9972,-121.2037 396.6335,-128.1748"/>
</g>
<!-- Node29&#45;&gt;Node8 -->
<g id="edge54" class="edge">
<title>Node29&#45;&gt;Node8</title>
<path fill="none" stroke="#191970" d="M130.1595,-392.3822C89.1776,-377.5796 22.3538,-345.0089 22.3538,-290 22.3538,-290 22.3538,-290 22.3538,-178 22.3538,-127.2035 372.5502,-87.4789 526.3506,-72.4819"/>
<polygon fill="#191970" stroke="#191970" points="527.0178,-75.9338 536.6345,-71.4875 526.344,-68.9663 527.0178,-75.9338"/>
</g>
<!-- Node30&#45;&gt;Node2 -->
<g id="edge57" class="edge">
<title>Node30&#45;&gt;Node2</title>
<path fill="none" stroke="#191970" d="M302.6872,-453.609C278.9659,-422.6109 208.3538,-327.2124 208.3538,-290 208.3538,-290 208.3538,-290 208.3538,-234 208.3538,-150.9132 334.5135,-129.4374 395.7598,-123.9071"/>
<polygon fill="#191970" stroke="#191970" points="396.3636,-127.3697 406.0483,-123.0735 395.7983,-120.3926 396.3636,-127.3697"/>
</g>
<!-- Node30&#45;&gt;Node3 -->
<g id="edge58" class="edge">
<title>Node30&#45;&gt;Node3</title>
<path fill="none" stroke="#191970" d="M258.5688,-453.9307C211.5553,-444.9169 140.153,-430.4166 69.9444,-412.2605"/>
<polygon fill="#191970" stroke="#191970" points="70.6083,-408.8166 60.0482,-409.6746 68.8385,-415.5892 70.6083,-408.8166"/>
</g>
<!-- Node30&#45;&gt;Node4 -->
<g id="edge59" class="edge">
<title>Node30&#45;&gt;Node4</title>
<path fill="none" stroke="#191970" d="M327.6975,-453.8906C345.7811,-443.8713 374.3397,-428.0483 395.1702,-416.5071"/>
<polygon fill="#191970" stroke="#191970" points="397.0809,-419.4498 404.1318,-411.5419 393.6884,-413.3268 397.0809,-419.4498"/>
</g>
<!-- Node30&#45;&gt;Node18 -->
<g id="edge60" class="edge">
<title>Node30&#45;&gt;Node18</title>
<path fill="none" stroke="#191970" d="M309.8566,-453.6507C309.65,-438.2682 311.6338,-408.5887 328.3538,-392 344.2336,-376.2448 394.2935,-364.4771 438.9042,-356.7892"/>
<polygon fill="#191970" stroke="#191970" points="439.6297,-360.2166 448.9153,-355.1149 438.475,-353.3125 439.6297,-360.2166"/>
</g>
<!-- Node30&#45;&gt;Node28 -->
<g id="edge61" class="edge">
<title>Node30&#45;&gt;Node28</title>
<path fill="none" stroke="#191970" d="M360.4681,-453.9581C417.9575,-443.012 512.1619,-425.0752 573.4669,-413.4026"/>
<polygon fill="#191970" stroke="#191970" points="574.2188,-416.8224 583.3876,-411.5137 572.9094,-409.946 574.2188,-416.8224"/>
</g>
<!-- Node30&#45;&gt;Node29 -->
<g id="edge62" class="edge">
<title>Node30&#45;&gt;Node29</title>
<path fill="none" stroke="#191970" d="M287.0725,-453.8906C262.0327,-443.5554 222.0312,-427.0447 193.8877,-415.4284"/>
<polygon fill="#191970" stroke="#191970" points="195.0505,-412.122 184.4715,-411.5419 192.3797,-418.5925 195.0505,-412.122"/>
</g>
<!-- Node31&#45;&gt;Node2 -->
<g id="edge64" class="edge">
<title>Node31&#45;&gt;Node2</title>
<path fill="none" stroke="#191970" d="M780.7896,-392.3618C727.0438,-351.1321 516.1687,-189.3649 449.014,-137.8489"/>
<polygon fill="#191970" stroke="#191970" points="450.9297,-134.9073 440.865,-131.5977 446.6691,-140.4613 450.9297,-134.9073"/>
</g>
<!-- Node31&#45;&gt;Node16 -->
<g id="edge70" class="edge">
<title>Node31&#45;&gt;Node16</title>
<path fill="none" stroke="#191970" d="M827.4634,-392.425C892.6607,-372.8717 1037.2023,-323.3773 1135.3538,-244 1185.8899,-203.1303 1203.9937,-122.691 1209.8422,-85.5921"/>
<polygon fill="#191970" stroke="#191970" points="1213.3255,-85.9586 1211.2861,-75.5618 1206.3969,-84.9611 1213.3255,-85.9586"/>
</g>
<!-- Node31&#45;&gt;Node18 -->
<g id="edge69" class="edge">
<title>Node31&#45;&gt;Node18</title>
<path fill="none" stroke="#191970" d="M746.2213,-392.4369C698.5891,-382.7724 624.9571,-367.8326 574.1372,-357.5213"/>
<polygon fill="#191970" stroke="#191970" points="574.7882,-354.0821 564.2919,-355.5237 573.3962,-360.9423 574.7882,-354.0821"/>
</g>
<!-- Node32 -->
<g id="node33" class="node">
<title>Node32</title>
<g id="a_node33"><a xlink:href="Direction_8h.html" target="_top" xlink:title="iDynTree/Core/Direction.h">
<polygon fill="none" stroke="#000000" points="890.8538,-224.5 890.8538,-243.5 1031.8538,-243.5 1031.8538,-224.5 890.8538,-224.5"/>
<text text-anchor="middle" x="961.3538" y="-231.5" font-family="FreeSans.ttf" font-size="10.00" fill="#000000">iDynTree/Core/Direction.h</text>
</a>
</g>
</g>
<!-- Node31&#45;&gt;Node32 -->
<g id="edge65" class="edge">
<title>Node31&#45;&gt;Node32</title>
<path fill="none" stroke="#191970" d="M802.8675,-392.4862C830.2292,-365.1246 909.401,-285.9528 944.3875,-250.9663"/>
<polygon fill="#191970" stroke="#191970" points="946.9297,-253.3739 951.5259,-243.8279 941.9799,-248.4241 946.9297,-253.3739"/>
</g>
<!-- Node32&#45;&gt;Node2 -->
<g id="edge66" class="edge">
<title>Node32&#45;&gt;Node2</title>
<path fill="none" stroke="#191970" d="M909.5122,-224.4968C861.0396,-215.4987 786.6774,-201.4068 722.3538,-188 626.8124,-168.0865 514.3837,-142.1453 460.4225,-129.5378"/>
<polygon fill="#191970" stroke="#191970" points="460.9666,-126.0706 450.4321,-127.1998 459.3715,-132.8865 460.9666,-126.0706"/>
</g>
<!-- Node32&#45;&gt;Node16 -->
<g id="edge68" class="edge">
<title>Node32&#45;&gt;Node16</title>
<path fill="none" stroke="#191970" d="M964.0134,-224.3027C970.9183,-201.0303 991.6992,-141.7461 1031.3538,-112 1049.4605,-98.4176 1101.6579,-85.9675 1145.3733,-77.455"/>
<polygon fill="#191970" stroke="#191970" points="1146.2477,-80.8513 1155.4143,-75.5387 1144.9355,-73.9754 1146.2477,-80.8513"/>
</g>
<!-- Node32&#45;&gt;Node20 -->
<g id="edge67" class="edge">
<title>Node32&#45;&gt;Node20</title>
<path fill="none" stroke="#191970" d="M983.0139,-224.3733C1003.3309,-215.3435 1033.9177,-201.7494 1056.7288,-191.6111"/>
<polygon fill="#191970" stroke="#191970" points="1058.2596,-194.7609 1065.9762,-187.5011 1055.4166,-188.3642 1058.2596,-194.7609"/>
</g>
<!-- Node33&#45;&gt;Node4 -->
<g id="edge75" class="edge">
<title>Node33&#45;&gt;Node4</title>
<path fill="none" stroke="#191970" d="M999.3592,-515.4705C936.8131,-507.0517 844.9465,-493.8316 765.3538,-479 659.0552,-459.1919 535.6291,-430.0488 469.3486,-413.8909"/>
<polygon fill="#191970" stroke="#191970" points="470.1481,-410.4833 459.603,-411.5082 468.4856,-417.2831 470.1481,-410.4833"/>
</g>
<!-- Node33&#45;&gt;Node16 -->
<g id="edge92" class="edge">
<title>Node33&#45;&gt;Node16</title>
<path fill="none" stroke="#191970" d="M1153.8584,-521.8228C1276.7321,-516.2382 1499.7971,-502.9228 1527.3538,-479 1553.9715,-455.8923 1546.3538,-437.2487 1546.3538,-402 1546.3538,-402 1546.3538,-402 1546.3538,-178 1546.3538,-127.3158 1499.9796,-131.8725 1453.3538,-112 1398.3647,-88.563 1331.2439,-76.9984 1281.8157,-71.3325"/>
<polygon fill="#191970" stroke="#191970" points="1282.1829,-67.8519 1271.8615,-70.2435 1281.4215,-74.8104 1282.1829,-67.8519"/>
</g>
<!-- Node33&#45;&gt;Node20 -->
<g id="edge74" class="edge">
<title>Node33&#45;&gt;Node20</title>
<path fill="none" stroke="#191970" d="M1073.7428,-515.3571C1075.6384,-468.3741 1083.9216,-263.0687 1086.5502,-197.916"/>
<polygon fill="#191970" stroke="#191970" points="1090.0539,-197.8938 1086.96,-187.7608 1083.0596,-197.6115 1090.0539,-197.8938"/>
</g>
<!-- Node33&#45;&gt;Node26 -->
<g id="edge76" class="edge">
<title>Node33&#45;&gt;Node26</title>
<path fill="none" stroke="#191970" d="M1022.3928,-515.4902C965.2126,-501.5286 880.3538,-469.4469 880.3538,-402 880.3538,-402 880.3538,-402 880.3538,-346 880.3538,-289.339 868.0571,-274.9923 843.3538,-224 838.557,-214.0985 831.7531,-203.9679 825.6517,-195.7431"/>
<polygon fill="#191970" stroke="#191970" points="828.3084,-193.4563 819.435,-187.6672 822.7615,-197.7263 828.3084,-193.4563"/>
</g>
<!-- Node33&#45;&gt;Node28 -->
<g id="edge91" class="edge">
<title>Node33&#45;&gt;Node28</title>
<path fill="none" stroke="#191970" d="M1023.6564,-515.4176C981.508,-506.9429 919.5902,-493.6718 866.3538,-479 795.5225,-459.4791 714.384,-431.3151 668.97,-415.012"/>
<polygon fill="#191970" stroke="#191970" points="669.8933,-411.6244 659.2989,-411.5254 667.5191,-418.2095 669.8933,-411.6244"/>
</g>
<!-- Node33&#45;&gt;Node29 -->
<g id="edge73" class="edge">
<title>Node33&#45;&gt;Node29</title>
<path fill="none" stroke="#191970" d="M992.6963,-524.5456C792.7343,-522.8715 285.4013,-515.0776 218.3538,-479 194.8736,-466.3655 178.4483,-439.3593 169.4498,-420.9357"/>
<polygon fill="#191970" stroke="#191970" points="172.5744,-419.3529 165.2171,-411.7291 166.2143,-422.2769 172.5744,-419.3529"/>
</g>
<!-- Node34 -->
<g id="node35" class="node">
<title>Node34</title>
<polygon fill="none" stroke="#bfbfbf" points="1440.8538,-454 1440.8538,-473 1517.8538,-473 1517.8538,-454 1440.8538,-454"/>
<text text-anchor="middle" x="1479.3538" y="-461" font-family="FreeSans.ttf" font-size="10.00" fill="#000000">Eigen/Dense</text>
</g>
<!-- Node33&#45;&gt;Node34 -->
<g id="edge72" class="edge">
<title>Node33&#45;&gt;Node34</title>
<path fill="none" stroke="#191970" d="M1153.9695,-519.1036C1227.2376,-512.6999 1337.9825,-500.4005 1432.3538,-479 1436.004,-478.1722 1439.7729,-477.1774 1443.5143,-476.0962"/>
<polygon fill="#191970" stroke="#191970" points="1444.7319,-479.3834 1453.2538,-473.0884 1442.6663,-472.6951 1444.7319,-479.3834"/>
</g>
<!-- Node35 -->
<g id="node36" class="node">
<title>Node35</title>
<g id="a_node36"><a xlink:href="SpatialMotionVector_8h.html" target="_top" xlink:title="iDynTree/Core/SpatialMotion\lVector.h">
<polygon fill="none" stroke="#000000" points="1267.8538,-448.5 1267.8538,-478.5 1422.8538,-478.5 1422.8538,-448.5 1267.8538,-448.5"/>
<text text-anchor="start" x="1275.8538" y="-466.5" font-family="FreeSans.ttf" font-size="10.00" fill="#000000">iDynTree/Core/SpatialMotion</text>
<text text-anchor="middle" x="1345.3538" y="-455.5" font-family="FreeSans.ttf" font-size="10.00" fill="#000000">Vector.h</text>
</a>
</g>
</g>
<!-- Node33&#45;&gt;Node35 -->
<g id="edge77" class="edge">
<title>Node33&#45;&gt;Node35</title>
<path fill="none" stroke="#191970" d="M1115.5553,-515.4581C1156.3885,-506.2256 1219.2169,-492.0199 1268.8648,-480.7944"/>
<polygon fill="#191970" stroke="#191970" points="1269.945,-484.1386 1278.9269,-478.5193 1268.4012,-477.3109 1269.945,-484.1386"/>
</g>
<!-- Node37 -->
<g id="node38" class="node">
<title>Node37</title>
<g id="a_node38"><a xlink:href="SpatialForceVector_8h.html" target="_top" xlink:title="iDynTree/Core/SpatialForce\lVector.h">
<polygon fill="none" stroke="#000000" points="1101.3538,-448.5 1101.3538,-478.5 1249.3538,-478.5 1249.3538,-448.5 1101.3538,-448.5"/>
<text text-anchor="start" x="1109.3538" y="-466.5" font-family="FreeSans.ttf" font-size="10.00" fill="#000000">iDynTree/Core/SpatialForce</text>
<text text-anchor="middle" x="1175.3538" y="-455.5" font-family="FreeSans.ttf" font-size="10.00" fill="#000000">Vector.h</text>
</a>
</g>
</g>
<!-- Node33&#45;&gt;Node37 -->
<g id="edge87" class="edge">
<title>Node33&#45;&gt;Node37</title>
<path fill="none" stroke="#191970" d="M1089.2913,-515.3906C1103.2235,-506.9903 1123.9221,-494.5103 1141.5287,-483.8945"/>
<polygon fill="#191970" stroke="#191970" points="1143.6452,-486.7054 1150.4018,-478.5446 1140.0307,-480.7108 1143.6452,-486.7054"/>
</g>
<!-- Node35&#45;&gt;Node20 -->
<g id="edge78" class="edge">
<title>Node35&#45;&gt;Node20</title>
<path fill="none" stroke="#191970" d="M1402.5806,-448.3888C1420.7166,-440.6053 1438.7814,-429.0329 1449.3538,-412 1487.7822,-350.0885 1625.8303,-417.2497 1375.3538,-224 1345.154,-200.7 1250.7474,-188.8926 1178.1695,-183.1207"/>
<polygon fill="#191970" stroke="#191970" points="1178.321,-179.6221 1168.0822,-182.3457 1177.7847,-186.6015 1178.321,-179.6221"/>
</g>
<!-- Node35&#45;&gt;Node24 -->
<g id="edge79" class="edge">
<title>Node35&#45;&gt;Node24</title>
<path fill="none" stroke="#191970" d="M1309.8606,-448.4687C1294.8088,-440.0984 1278.8147,-428.0734 1270.3538,-412 1242.9931,-360.0222 1263.808,-287.4662 1276.4699,-253.2749"/>
<polygon fill="#191970" stroke="#191970" points="1279.8707,-254.1856 1280.2231,-243.5966 1273.3442,-251.6546 1279.8707,-254.1856"/>
</g>
<!-- Node36 -->
<g id="node37" class="node">
<title>Node36</title>
<g id="a_node37"><a xlink:href="SpatialVector_8h.html" target="_top" xlink:title="iDynTree/Core/SpatialVector.h">
<polygon fill="none" stroke="#000000" points="1278.8538,-392.5 1278.8538,-411.5 1439.8538,-411.5 1439.8538,-392.5 1278.8538,-392.5"/>
<text text-anchor="middle" x="1359.3538" y="-399.5" font-family="FreeSans.ttf" font-size="10.00" fill="#000000">iDynTree/Core/SpatialVector.h</text>
</a>
</g>
</g>
<!-- Node35&#45;&gt;Node36 -->
<g id="edge80" class="edge">
<title>Node35&#45;&gt;Node36</title>
<path fill="none" stroke="#191970" d="M1348.8144,-448.2977C1350.6363,-440.2945 1352.8923,-430.3843 1354.849,-421.7889"/>
<polygon fill="#191970" stroke="#191970" points="1358.3052,-422.3744 1357.1122,-411.8469 1351.4798,-420.8206 1358.3052,-422.3744"/>
</g>
<!-- Node36&#45;&gt;Node16 -->
<g id="edge83" class="edge">
<title>Node36&#45;&gt;Node16</title>
<path fill="none" stroke="#191970" d="M1377.9235,-392.4277C1417.8655,-370.3576 1508.3538,-311.7756 1508.3538,-234 1508.3538,-234 1508.3538,-234 1508.3538,-178 1508.3538,-129.2607 1366.1927,-94.2852 1278.9109,-77.4045"/>
<polygon fill="#191970" stroke="#191970" points="1279.5532,-73.964 1269.0753,-75.5337 1278.2451,-80.8407 1279.5532,-73.964"/>
</g>
<!-- Node36&#45;&gt;Node18 -->
<g id="edge81" class="edge">
<title>Node36&#45;&gt;Node18</title>
<path fill="none" stroke="#191970" d="M1278.6193,-396.6305C1117.0079,-385.882 755.5873,-361.8445 595.8447,-351.2203"/>
<polygon fill="#191970" stroke="#191970" points="595.8289,-347.7116 585.6186,-350.5402 595.3643,-354.6962 595.8289,-347.7116"/>
</g>
<!-- Node36&#45;&gt;Node21 -->
<g id="edge86" class="edge">
<title>Node36&#45;&gt;Node21</title>
<path fill="none" stroke="#191970" d="M1371.0257,-392.3784C1403.5948,-364.3867 1490.2756,-281.3447 1446.3538,-224 1404.6511,-169.5527 1193.8172,-137.5641 1106.4065,-126.459"/>
<polygon fill="#191970" stroke="#191970" points="1106.7345,-122.9729 1096.3782,-125.2082 1105.8681,-129.9191 1106.7345,-122.9729"/>
</g>
<!-- Node36&#45;&gt;Node23 -->
<g id="edge82" class="edge">
<title>Node36&#45;&gt;Node23</title>
<path fill="none" stroke="#191970" d="M1307.2693,-392.4993C1194.612,-371.9494 928.702,-323.4446 807.5006,-301.3362"/>
<polygon fill="#191970" stroke="#191970" points="808.0943,-297.8868 797.6285,-299.5355 806.8381,-304.7732 808.0943,-297.8868"/>
</g>
<!-- Node36&#45;&gt;Node24 -->
<g id="edge84" class="edge">
<title>Node36&#45;&gt;Node24</title>
<path fill="none" stroke="#191970" d="M1355.1066,-392.4862C1343.1482,-365.6994 1309.0218,-289.2565 1292.9381,-253.2289"/>
<polygon fill="#191970" stroke="#191970" points="1296.0138,-251.5325 1288.7412,-243.8279 1289.6218,-254.3861 1296.0138,-251.5325"/>
</g>
<!-- Node36&#45;&gt;Node27 -->
<g id="edge85" class="edge">
<title>Node36&#45;&gt;Node27</title>
<path fill="none" stroke="#191970" d="M1364.3241,-392.2735C1378.369,-363.2782 1414.8479,-276.2134 1375.3538,-224 1352.0757,-193.2252 1095.5314,-146.2363 994.7045,-128.8112"/>
<polygon fill="#191970" stroke="#191970" points="995.0507,-125.3195 984.6022,-127.0743 993.8645,-132.2182 995.0507,-125.3195"/>
</g>
<!-- Node37&#45;&gt;Node20 -->
<g id="edge88" class="edge">
<title>Node37&#45;&gt;Node20</title>
<path fill="none" stroke="#191970" d="M1166.8913,-448.4463C1155.4211,-426.5908 1136.3538,-384.4736 1136.3538,-346 1136.3538,-346 1136.3538,-346 1136.3538,-290 1136.3538,-254.3181 1115.2208,-217.1985 1100.7119,-195.9186"/>
<polygon fill="#191970" stroke="#191970" points="1103.4327,-193.7046 1094.7958,-187.5681 1097.7208,-197.7512 1103.4327,-193.7046"/>
</g>
<!-- Node37&#45;&gt;Node24 -->
<g id="edge89" class="edge">
<title>Node37&#45;&gt;Node24</title>
<path fill="none" stroke="#191970" d="M1181.7837,-448.0561C1195.1632,-416.2107 1227.3404,-341.1123 1258.3538,-280 1263.0085,-270.8277 1268.5735,-260.8658 1273.3584,-252.5655"/>
<polygon fill="#191970" stroke="#191970" points="1276.4964,-254.1324 1278.5159,-243.7318 1270.4513,-250.603 1276.4964,-254.1324"/>
</g>
<!-- Node37&#45;&gt;Node36 -->
<g id="edge90" class="edge">
<title>Node37&#45;&gt;Node36</title>
<path fill="none" stroke="#191970" d="M1220.3652,-448.4554C1251.3354,-438.104 1292.0166,-424.5067 1321.3557,-414.7004"/>
<polygon fill="#191970" stroke="#191970" points="1322.4656,-418.0199 1330.8403,-411.5303 1320.2465,-411.3809 1322.4656,-418.0199"/>
</g>
</g>
</svg>
