<?xml version="1.0" encoding="UTF-8" standalone="no"?>
<!DOCTYPE svg PUBLIC "-//W3C//DTD SVG 1.1//EN"
 "http://www.w3.org/Graphics/SVG/1.1/DTD/svg11.dtd">
<!-- Generated by graphviz version 2.40.1 (20161225.0304)
 -->
<!-- Title: iDynTree::Transform Pages: 1 -->
<svg width="278pt" height="209pt"
 viewBox="0.00 0.00 278.00 209.00" xmlns="http://www.w3.org/2000/svg" xmlns:xlink="http://www.w3.org/1999/xlink">
<g id="graph0" class="graph" transform="scale(1 1) rotate(0) translate(4 205)">
<title>iDynTree::Transform</title>
<!-- Node1 -->
<g id="node1" class="node">
<title>Node1</title>
<polygon fill="#bfbfbf" stroke="#000000" points="82.5,-.5 82.5,-19.5 196.5,-19.5 196.5,-.5 82.5,-.5"/>
<text text-anchor="middle" x="139.5" y="-7.5" font-family="FreeSans.ttf" font-size="10.00" fill="#000000">iDynTree::Transform</text>
</g>
<!-- Node2 -->
<g id="node2" class="node">
<title>Node2</title>
<g id="a_node2"><a xlink:href="classiDynTree_1_1Rotation.html" target="_top" xlink:title="Class representation the rotation of an orientation frame with respect to a reference orientation fra...">
<polygon fill="none" stroke="#000000" points="25.5,-67.5 25.5,-86.5 131.5,-86.5 131.5,-67.5 25.5,-67.5"/>
<text text-anchor="middle" x="78.5" y="-74.5" font-family="FreeSans.ttf" font-size="10.00" fill="#000000">iDynTree::Rotation</text>
</a>
</g>
</g>
<!-- Node2&#45;&gt;Node1 -->
<g id="edge1" class="edge">
<title>Node2&#45;&gt;Node1</title>
<path fill="none" stroke="#9a32cd" stroke-dasharray="5,2" d="M94.2374,-59.7147C105.8671,-46.941 121.2707,-30.0224 130.7764,-19.5817"/>
<polygon fill="#9a32cd" stroke="#9a32cd" points="91.384,-57.6498 87.2398,-67.4005 96.5601,-62.3624 91.384,-57.6498"/>
<text text-anchor="middle" x="122" y="-41" font-family="FreeSans.ttf" font-size="10.00" fill="#000000"> rot</text>
</g>
<!-- Node3 -->
<g id="node3" class="node">
<title>Node3</title>
<g id="a_node3"><a xlink:href="classiDynTree_1_1RotationRaw.html" target="_top" xlink:title="Class providing the raw coordinates for iDynTree::Rotation class. ">
<polygon fill="none" stroke="#000000" points="0,-124.5 0,-143.5 127,-143.5 127,-124.5 0,-124.5"/>
<text text-anchor="middle" x="63.5" y="-131.5" font-family="FreeSans.ttf" font-size="10.00" fill="#000000">iDynTree::RotationRaw</text>
</a>
</g>
</g>
<!-- Node3&#45;&gt;Node2 -->
<g id="edge2" class="edge">
<title>Node3&#45;&gt;Node2</title>
<path fill="none" stroke="#191970" d="M68.6211,-114.5397C71.1095,-105.0839 73.9876,-94.147 75.993,-86.5265"/>
<polygon fill="#191970" stroke="#191970" points="65.2048,-113.7692 66.0445,-124.3307 71.9743,-115.5507 65.2048,-113.7692"/>
</g>
<!-- Node4 -->
<g id="node4" class="node">
<title>Node4</title>
<g id="a_node4"><a xlink:href="classiDynTree_1_1MatrixFixSize.html" target="_top" xlink:title="Class providing a simple form of matrix with dynamic size. ">
<polygon fill="none" stroke="#000000" points="31,-181.5 31,-200.5 96,-200.5 96,-181.5 31,-181.5"/>
<text text-anchor="middle" x="63.5" y="-188.5" font-family="FreeSans.ttf" font-size="10.00" fill="#000000">Matrix3x3</text>
</a>
</g>
</g>
<!-- Node4&#45;&gt;Node3 -->
<g id="edge3" class="edge">
<title>Node4&#45;&gt;Node3</title>
<path fill="none" stroke="#191970" d="M63.5,-171.2342C63.5,-161.8491 63.5,-151.0651 63.5,-143.5265"/>
<polygon fill="#191970" stroke="#191970" points="60.0001,-171.3307 63.5,-181.3307 67.0001,-171.3308 60.0001,-171.3307"/>
</g>
<!-- Node5 -->
<g id="node5" class="node">
<title>Node5</title>
<g id="a_node5"><a xlink:href="classiDynTree_1_1Position.html" target="_top" xlink:title="Class representation the coordinates of the Position of a point with respect to another point...">
<polygon fill="none" stroke="#000000" points="152.5,-67.5 152.5,-86.5 256.5,-86.5 256.5,-67.5 152.5,-67.5"/>
<text text-anchor="middle" x="204.5" y="-74.5" font-family="FreeSans.ttf" font-size="10.00" fill="#000000">iDynTree::Position</text>
</a>
</g>
</g>
<!-- Node5&#45;&gt;Node1 -->
<g id="edge4" class="edge">
<title>Node5&#45;&gt;Node1</title>
<path fill="none" stroke="#9a32cd" stroke-dasharray="5,2" d="M188.0837,-60.0785C175.6515,-47.2639 159.0212,-30.1218 148.7956,-19.5817"/>
<polygon fill="#9a32cd" stroke="#9a32cd" points="185.7118,-62.6602 195.1871,-67.4005 190.736,-57.786 185.7118,-62.6602"/>
<text text-anchor="middle" x="187" y="-41" font-family="FreeSans.ttf" font-size="10.00" fill="#000000"> pos</text>
</g>
<!-- Node6 -->
<g id="node6" class="node">
<title>Node6</title>
<g id="a_node6"><a xlink:href="classiDynTree_1_1PositionRaw.html" target="_top" xlink:title="Class providing the raw coordinates for iDynTree::Position class. ">
<polygon fill="none" stroke="#000000" points="145,-124.5 145,-143.5 270,-143.5 270,-124.5 145,-124.5"/>
<text text-anchor="middle" x="207.5" y="-131.5" font-family="FreeSans.ttf" font-size="10.00" fill="#000000">iDynTree::PositionRaw</text>
</a>
</g>
</g>
<!-- Node6&#45;&gt;Node5 -->
<g id="edge5" class="edge">
<title>Node6&#45;&gt;Node5</title>
<path fill="none" stroke="#191970" d="M206.4597,-114.2342C205.9657,-104.8491 205.3982,-94.0651 205.0014,-86.5265"/>
<polygon fill="#191970" stroke="#191970" points="202.9702,-114.5285 206.9911,-124.3307 209.9606,-114.1606 202.9702,-114.5285"/>
</g>
<!-- Node7 -->
<g id="node7" class="node">
<title>Node7</title>
<g id="a_node7"><a xlink:href="classiDynTree_1_1VectorFixSize.html" target="_top" xlink:title="Class providing a simple vector of N elements. ">
<polygon fill="none" stroke="#000000" points="181,-181.5 181,-200.5 234,-200.5 234,-181.5 181,-181.5"/>
<text text-anchor="middle" x="207.5" y="-188.5" font-family="FreeSans.ttf" font-size="10.00" fill="#000000">Vector3</text>
</a>
</g>
</g>
<!-- Node7&#45;&gt;Node6 -->
<g id="edge6" class="edge">
<title>Node7&#45;&gt;Node6</title>
<path fill="none" stroke="#191970" d="M207.5,-171.2342C207.5,-161.8491 207.5,-151.0651 207.5,-143.5265"/>
<polygon fill="#191970" stroke="#191970" points="204.0001,-171.3307 207.5,-181.3307 211.0001,-171.3308 204.0001,-171.3307"/>
</g>
</g>
</svg>
