<?xml version="1.0" encoding="UTF-8" standalone="no"?>
<!DOCTYPE svg PUBLIC "-//W3C//DTD SVG 1.1//EN"
 "http://www.w3.org/Graphics/SVG/1.1/DTD/svg11.dtd">
<!-- Generated by graphviz version 2.40.1 (20161225.0304)
 -->
<!-- Title: internal::kinematics::InverseKinematicsData Pages: 1 -->
<svg width="1992pt" height="493pt"
 viewBox="0.00 0.00 1992.00 493.11" xmlns="http://www.w3.org/2000/svg" xmlns:xlink="http://www.w3.org/1999/xlink">
<g id="graph0" class="graph" transform="scale(1 1) rotate(0) translate(4 489.1104)">
<title>internal::kinematics::InverseKinematicsData</title>
<!-- Node1 -->
<g id="node1" class="node">
<title>Node1</title>
<polygon fill="#bfbfbf" stroke="#000000" points="1847,-277.1104 1847,-307.1104 1984,-307.1104 1984,-277.1104 1847,-277.1104"/>
<text text-anchor="start" x="1855" y="-295.1104" font-family="FreeSans.ttf" font-size="10.00" fill="#000000">internal::kinematics</text>
<text text-anchor="middle" x="1915.5" y="-284.1104" font-family="FreeSans.ttf" font-size="10.00" fill="#000000">::InverseKinematicsData</text>
</g>
<!-- Node2 -->
<g id="node2" class="node">
<title>Node2</title>
<g id="a_node2"><a xlink:href="classiDynTree_1_1KinDynComputations.html" target="_top" xlink:title="High level stateful class wrapping several kinematics and dynamics algorithms. ">
<polygon fill="none" stroke="#000000" points="1525.5,-459.6104 1525.5,-478.6104 1694.5,-478.6104 1694.5,-459.6104 1525.5,-459.6104"/>
<text text-anchor="middle" x="1610" y="-466.6104" font-family="FreeSans.ttf" font-size="10.00" fill="#000000">iDynTree::KinDynComputations</text>
</a>
</g>
</g>
<!-- Node2&#45;&gt;Node1 -->
<g id="edge1" class="edge">
<title>Node2&#45;&gt;Node1</title>
<path fill="none" stroke="#9a32cd" stroke-dasharray="5,2" d="M1704.6962,-475.6376C1745.8752,-474.1081 1792.8602,-466.057 1829,-442.1104 1878.3671,-409.3992 1902.9786,-338.2058 1911.7007,-307.1276"/>
<polygon fill="#9a32cd" stroke="#9a32cd" points="1704.5477,-472.1401 1694.638,-475.8882 1704.7221,-479.138 1704.5477,-472.1401"/>
<text text-anchor="middle" x="1771" y="-477.1104" font-family="FreeSans.ttf" font-size="10.00" fill="#000000"> m_dynamics</text>
</g>
<!-- Node3 -->
<g id="node3" class="node">
<title>Node3</title>
<g id="a_node3"><a xlink:href="classiDynTree_1_1Model.html" target="_top" xlink:title="Class that represents a generic multibody model. ">
<polygon fill="none" stroke="#000000" points="1562.5,-421.6104 1562.5,-440.6104 1657.5,-440.6104 1657.5,-421.6104 1562.5,-421.6104"/>
<text text-anchor="middle" x="1610" y="-428.6104" font-family="FreeSans.ttf" font-size="10.00" fill="#000000">iDynTree::Model</text>
</a>
</g>
</g>
<!-- Node3&#45;&gt;Node1 -->
<g id="edge2" class="edge">
<title>Node3&#45;&gt;Node1</title>
<path fill="none" stroke="#9a32cd" stroke-dasharray="5,2" d="M1668.034,-429.9046C1723.4708,-427.8418 1802.4018,-422.2523 1829,-407.1104 1869.8167,-383.874 1897.3339,-332.7458 1909.0725,-307.2234"/>
<polygon fill="#9a32cd" stroke="#9a32cd" points="1667.8479,-426.4088 1657.9741,-430.2502 1668.0884,-433.4047 1667.8479,-426.4088"/>
<text text-anchor="middle" x="1771" y="-430.1104" font-family="FreeSans.ttf" font-size="10.00" fill="#000000"> reducedModel</text>
</g>
<!-- Node4 -->
<g id="node4" class="node">
<title>Node4</title>
<g id="a_node4"><a xlink:href="classiDynTree_1_1Transform.html" target="_top" xlink:title="Class representation the relative displacement between two different frames. ">
<polygon fill="none" stroke="#000000" points="1553,-343.6104 1553,-362.6104 1667,-362.6104 1667,-343.6104 1553,-343.6104"/>
<text text-anchor="middle" x="1610" y="-350.6104" font-family="FreeSans.ttf" font-size="10.00" fill="#000000">iDynTree::Transform</text>
</a>
</g>
</g>
<!-- Node4&#45;&gt;Node1 -->
<g id="edge3" class="edge">
<title>Node4&#45;&gt;Node1</title>
<path fill="none" stroke="#9a32cd" stroke-dasharray="5,2" d="M1667.5912,-341.611C1718.5029,-331.4453 1792.8551,-316.5992 1846.8447,-305.819"/>
<polygon fill="#9a32cd" stroke="#9a32cd" points="1666.8554,-338.1887 1657.7344,-343.5791 1668.2262,-345.0532 1666.8554,-338.1887"/>
<text text-anchor="middle" x="1771" y="-356.1104" font-family="FreeSans.ttf" font-size="10.00" fill="#000000"> m_baseInitialCondition</text>
<text text-anchor="middle" x="1771" y="-345.1104" font-family="FreeSans.ttf" font-size="10.00" fill="#000000">basePose</text>
<text text-anchor="middle" x="1771" y="-334.1104" font-family="FreeSans.ttf" font-size="10.00" fill="#000000">m_baseResults</text>
</g>
<!-- Node5 -->
<g id="node5" class="node">
<title>Node5</title>
<g id="a_node5"><a xlink:href="classiDynTree_1_1Rotation.html" target="_top" xlink:title="Class representation the rotation of an orientation frame with respect to a reference orientation fra...">
<polygon fill="none" stroke="#000000" points="1245.5,-343.6104 1245.5,-362.6104 1351.5,-362.6104 1351.5,-343.6104 1245.5,-343.6104"/>
<text text-anchor="middle" x="1298.5" y="-350.6104" font-family="FreeSans.ttf" font-size="10.00" fill="#000000">iDynTree::Rotation</text>
</a>
</g>
</g>
<!-- Node5&#45;&gt;Node4 -->
<g id="edge4" class="edge">
<title>Node5&#45;&gt;Node4</title>
<path fill="none" stroke="#9a32cd" stroke-dasharray="5,2" d="M1361.8451,-353.1104C1417.8254,-353.1104 1498.7519,-353.1104 1552.8023,-353.1104"/>
<polygon fill="#9a32cd" stroke="#9a32cd" points="1361.6949,-349.6105 1351.6948,-353.1104 1361.6948,-356.6105 1361.6949,-349.6105"/>
<text text-anchor="middle" x="1452.5" y="-356.1104" font-family="FreeSans.ttf" font-size="10.00" fill="#000000"> rot</text>
</g>
<!-- Node6 -->
<g id="node6" class="node">
<title>Node6</title>
<g id="a_node6"><a xlink:href="classiDynTree_1_1RotationRaw.html" target="_top" xlink:title="Class providing the raw coordinates for iDynTree::Rotation class. ">
<polygon fill="none" stroke="#000000" points="939,-307.6104 939,-326.6104 1066,-326.6104 1066,-307.6104 939,-307.6104"/>
<text text-anchor="middle" x="1002.5" y="-314.6104" font-family="FreeSans.ttf" font-size="10.00" fill="#000000">iDynTree::RotationRaw</text>
</a>
</g>
</g>
<!-- Node6&#45;&gt;Node5 -->
<g id="edge5" class="edge">
<title>Node6&#45;&gt;Node5</title>
<path fill="none" stroke="#191970" d="M1076.6138,-326.1242C1129.033,-332.4995 1198.085,-340.8977 1245.1443,-346.6212"/>
<polygon fill="#191970" stroke="#191970" points="1076.7126,-322.6105 1066.3632,-324.8775 1075.8674,-329.5593 1076.7126,-322.6105"/>
</g>
<!-- Node7 -->
<g id="node7" class="node">
<title>Node7</title>
<g id="a_node7"><a xlink:href="classiDynTree_1_1MatrixFixSize.html" target="_top" xlink:title="Class providing a simple form of matrix with dynamic size. ">
<polygon fill="none" stroke="#000000" points="676.5,-307.6104 676.5,-326.6104 741.5,-326.6104 741.5,-307.6104 676.5,-307.6104"/>
<text text-anchor="middle" x="709" y="-314.6104" font-family="FreeSans.ttf" font-size="10.00" fill="#000000">Matrix3x3</text>
</a>
</g>
</g>
<!-- Node7&#45;&gt;Node6 -->
<g id="edge6" class="edge">
<title>Node7&#45;&gt;Node6</title>
<path fill="none" stroke="#191970" d="M751.8268,-317.1104C801.052,-317.1104 882.3227,-317.1104 938.9335,-317.1104"/>
<polygon fill="#191970" stroke="#191970" points="751.5311,-313.6105 741.531,-317.1104 751.531,-320.6105 751.5311,-313.6105"/>
</g>
<!-- Node8 -->
<g id="node8" class="node">
<title>Node8</title>
<g id="a_node8"><a xlink:href="classiDynTree_1_1Position.html" target="_top" xlink:title="Class representation the coordinates of the Position of a point with respect to another point...">
<polygon fill="none" stroke="#000000" points="1246.5,-302.6104 1246.5,-321.6104 1350.5,-321.6104 1350.5,-302.6104 1246.5,-302.6104"/>
<text text-anchor="middle" x="1298.5" y="-309.6104" font-family="FreeSans.ttf" font-size="10.00" fill="#000000">iDynTree::Position</text>
</a>
</g>
</g>
<!-- Node8&#45;&gt;Node1 -->
<g id="edge19" class="edge">
<title>Node8&#45;&gt;Node1</title>
<path fill="none" stroke="#9a32cd" stroke-dasharray="5,2" d="M1360.6701,-308.6638C1406.1684,-306.2456 1469.4019,-303.1008 1525,-301.1104 1637.6672,-297.0768 1768.688,-294.4865 1846.7081,-293.166"/>
<polygon fill="#9a32cd" stroke="#9a32cd" points="1360.4609,-305.1699 1350.6622,-309.1992 1360.8349,-312.1599 1360.4609,-305.1699"/>
<text text-anchor="start" x="1555.5" y="-326.1104" font-family="FreeSans.ttf" font-size="10.00" fill="#000000"> m_comHullConstraint</text>
<text text-anchor="middle" x="1610" y="-315.1104" font-family="FreeSans.ttf" font-size="10.00" fill="#000000">_originOfPlaneInWorld</text>
<text text-anchor="middle" x="1610" y="-304.1104" font-family="FreeSans.ttf" font-size="10.00" fill="#000000">desiredPosition</text>
</g>
<!-- Node8&#45;&gt;Node4 -->
<g id="edge7" class="edge">
<title>Node8&#45;&gt;Node4</title>
<path fill="none" stroke="#9a32cd" stroke-dasharray="5,2" d="M1360.7623,-319.5352C1402.2268,-324.5634 1457.9078,-331.4755 1507,-338.1104 1521.8634,-340.1192 1537.916,-342.4022 1552.8242,-344.5704"/>
<polygon fill="#9a32cd" stroke="#9a32cd" points="1361.1554,-316.0573 1350.8074,-318.3311 1360.3147,-323.0067 1361.1554,-316.0573"/>
<text text-anchor="middle" x="1452.5" y="-341.1104" font-family="FreeSans.ttf" font-size="10.00" fill="#000000"> pos</text>
</g>
<!-- Node20 -->
<g id="node20" class="node">
<title>Node20</title>
<g id="a_node20"><a xlink:href="classiDynTree_1_1ConvexHullProjectionConstraint.html" target="_top" xlink:title="ConvexHullProjectionConstraint helper. ">
<polygon fill="none" stroke="#000000" points="1525,-137.1104 1525,-167.1104 1695,-167.1104 1695,-137.1104 1525,-137.1104"/>
<text text-anchor="start" x="1533" y="-155.1104" font-family="FreeSans.ttf" font-size="10.00" fill="#000000">iDynTree::ConvexHullProjection</text>
<text text-anchor="middle" x="1610" y="-144.1104" font-family="FreeSans.ttf" font-size="10.00" fill="#000000">Constraint</text>
</a>
</g>
</g>
<!-- Node8&#45;&gt;Node20 -->
<g id="edge27" class="edge">
<title>Node8&#45;&gt;Node20</title>
<path fill="none" stroke="#9a32cd" stroke-dasharray="5,2" d="M1360.0764,-303.4463C1367.3893,-300.4279 1374.2752,-296.42 1380,-291.1104 1398.2396,-274.1935 1381.0779,-256.3451 1398,-238.1104 1439.722,-193.1521 1468.0643,-206.9205 1525,-184.1104 1539.198,-178.4223 1554.84,-172.4504 1568.7933,-167.2265"/>
<polygon fill="#9a32cd" stroke="#9a32cd" points="1358.9133,-300.1451 1350.6402,-306.7639 1361.2351,-306.7489 1358.9133,-300.1451"/>
<text text-anchor="middle" x="1452.5" y="-241.1104" font-family="FreeSans.ttf" font-size="10.00" fill="#000000"> o</text>
</g>
<!-- Node9 -->
<g id="node9" class="node">
<title>Node9</title>
<g id="a_node9"><a xlink:href="classiDynTree_1_1PositionRaw.html" target="_top" xlink:title="Class providing the raw coordinates for iDynTree::Position class. ">
<polygon fill="none" stroke="#000000" points="940,-345.6104 940,-364.6104 1065,-364.6104 1065,-345.6104 940,-345.6104"/>
<text text-anchor="middle" x="1002.5" y="-352.6104" font-family="FreeSans.ttf" font-size="10.00" fill="#000000">iDynTree::PositionRaw</text>
</a>
</g>
</g>
<!-- Node9&#45;&gt;Node8 -->
<g id="edge8" class="edge">
<title>Node9&#45;&gt;Node8</title>
<path fill="none" stroke="#191970" d="M1075.2853,-344.5368C1128.2484,-336.8429 1198.7147,-326.6062 1246.1881,-319.7097"/>
<polygon fill="#191970" stroke="#191970" points="1074.6669,-341.0898 1065.274,-345.9912 1075.6733,-348.0171 1074.6669,-341.0898"/>
</g>
<!-- Node10 -->
<g id="node10" class="node">
<title>Node10</title>
<g id="a_node10"><a xlink:href="classiDynTree_1_1VectorFixSize.html" target="_top" xlink:title="Class providing a simple vector of N elements. ">
<polygon fill="none" stroke="#000000" points="682.5,-367.6104 682.5,-386.6104 735.5,-386.6104 735.5,-367.6104 682.5,-367.6104"/>
<text text-anchor="middle" x="709" y="-374.6104" font-family="FreeSans.ttf" font-size="10.00" fill="#000000">Vector3</text>
</a>
</g>
</g>
<!-- Node10&#45;&gt;Node9 -->
<g id="edge9" class="edge">
<title>Node10&#45;&gt;Node9</title>
<path fill="none" stroke="#191970" d="M745.618,-374.3656C794.1907,-370.7247 880.6618,-364.2431 939.7458,-359.8143"/>
<polygon fill="#191970" stroke="#191970" points="745.2742,-370.8814 735.5638,-375.1192 745.7975,-377.8619 745.2742,-370.8814"/>
</g>
<!-- Node19 -->
<g id="node19" class="node">
<title>Node19</title>
<g id="a_node19"><a xlink:href="classiDynTree_1_1Direction.html" target="_top" xlink:title="Class representing the coordinates of a direction in the 3D space. ">
<polygon fill="none" stroke="#000000" points="1089,-383.6104 1089,-402.6104 1199,-402.6104 1199,-383.6104 1089,-383.6104"/>
<text text-anchor="middle" x="1144" y="-390.6104" font-family="FreeSans.ttf" font-size="10.00" fill="#000000">iDynTree::Direction</text>
</a>
</g>
</g>
<!-- Node10&#45;&gt;Node19 -->
<g id="edge21" class="edge">
<title>Node10&#45;&gt;Node19</title>
<path fill="none" stroke="#191970" d="M745.6439,-378.4582C821.9798,-381.266 998.4237,-387.7558 1088.6664,-391.0751"/>
<polygon fill="#191970" stroke="#191970" points="745.6783,-374.9572 735.5564,-378.0872 745.4209,-381.9525 745.6783,-374.9572"/>
</g>
<!-- Node11 -->
<g id="node11" class="node">
<title>Node11</title>
<g id="a_node11"><a xlink:href="classiDynTree_1_1Twist.html" target="_top" xlink:title="Class representing a twist, i.e. ">
<polygon fill="none" stroke="#000000" points="1565,-193.6104 1565,-212.6104 1655,-212.6104 1655,-193.6104 1565,-193.6104"/>
<text text-anchor="middle" x="1610" y="-200.6104" font-family="FreeSans.ttf" font-size="10.00" fill="#000000">iDynTree::Twist</text>
</a>
</g>
</g>
<!-- Node11&#45;&gt;Node1 -->
<g id="edge10" class="edge">
<title>Node11&#45;&gt;Node1</title>
<path fill="none" stroke="#9a32cd" stroke-dasharray="5,2" d="M1665.0067,-198.3387C1710.6149,-196.4702 1776.2796,-198.6966 1829,-220.1104 1859.4125,-232.4632 1887.161,-259.6108 1902.6445,-276.815"/>
<polygon fill="#9a32cd" stroke="#9a32cd" points="1664.8345,-194.8428 1655.0171,-198.8264 1665.1759,-201.8345 1664.8345,-194.8428"/>
<text text-anchor="middle" x="1771" y="-223.1104" font-family="FreeSans.ttf" font-size="10.00" fill="#000000"> baseTwist</text>
</g>
<!-- Node12 -->
<g id="node12" class="node">
<title>Node12</title>
<g id="a_node12"><a xlink:href="classiDynTree_1_1SpatialMotionVector.html" target="_top" xlink:title="Class providing the raw coordinates for any motion spatial vector (i.e. ">
<polygon fill="none" stroke="#000000" points="1217,-201.6104 1217,-220.6104 1380,-220.6104 1380,-201.6104 1217,-201.6104"/>
<text text-anchor="middle" x="1298.5" y="-208.6104" font-family="FreeSans.ttf" font-size="10.00" fill="#000000">iDynTree::SpatialMotionVector</text>
</a>
</g>
</g>
<!-- Node12&#45;&gt;Node11 -->
<g id="edge11" class="edge">
<title>Node12&#45;&gt;Node11</title>
<path fill="none" stroke="#191970" d="M1390.5272,-208.7469C1447.9538,-207.2721 1519.3463,-205.4386 1564.8041,-204.2711"/>
<polygon fill="#191970" stroke="#191970" points="1390.2498,-205.2528 1380.343,-209.0085 1390.4296,-212.2505 1390.2498,-205.2528"/>
</g>
<!-- Node13 -->
<g id="node13" class="node">
<title>Node13</title>
<g id="a_node13"><a xlink:href="classiDynTree_1_1SpatialVector.html" target="_top" xlink:title="iDynTree::SpatialVector\l\&lt; SpatialMotionVector \&gt;">
<polygon fill="none" stroke="#000000" points="934,-196.1104 934,-226.1104 1071,-226.1104 1071,-196.1104 934,-196.1104"/>
<text text-anchor="start" x="942" y="-214.1104" font-family="FreeSans.ttf" font-size="10.00" fill="#000000">iDynTree::SpatialVector</text>
<text text-anchor="middle" x="1002.5" y="-203.1104" font-family="FreeSans.ttf" font-size="10.00" fill="#000000">&lt; SpatialMotionVector &gt;</text>
</a>
</g>
</g>
<!-- Node13&#45;&gt;Node12 -->
<g id="edge12" class="edge">
<title>Node13&#45;&gt;Node12</title>
<path fill="none" stroke="#191970" d="M1081.2999,-211.1104C1123.1514,-211.1104 1174.5303,-211.1104 1216.8086,-211.1104"/>
<polygon fill="#191970" stroke="#191970" points="1081.1524,-207.6105 1071.1523,-211.1104 1081.1523,-214.6105 1081.1524,-207.6105"/>
</g>
<!-- Node14 -->
<g id="node14" class="node">
<title>Node14</title>
<g id="a_node14"><a xlink:href="classiDynTree_1_1SpatialMotionForceVectorT__traits.html" target="_top" xlink:title="iDynTree::SpatialMotionForce\lVectorT_traits\&lt; DerivedSpatialVecT \&gt;">
<polygon fill="none" stroke="#000000" points="345,-187.1104 345,-217.1104 547,-217.1104 547,-187.1104 345,-187.1104"/>
<text text-anchor="start" x="353" y="-205.1104" font-family="FreeSans.ttf" font-size="10.00" fill="#000000">iDynTree::SpatialMotionForce</text>
<text text-anchor="middle" x="446" y="-194.1104" font-family="FreeSans.ttf" font-size="10.00" fill="#000000">VectorT_traits&lt; DerivedSpatialVecT &gt;</text>
</a>
</g>
</g>
<!-- Node14&#45;&gt;Node13 -->
<g id="edge13" class="edge">
<title>Node14&#45;&gt;Node13</title>
<path fill="none" stroke="#9a32cd" stroke-dasharray="5,2" d="M557.5129,-197.4772C585.7269,-196.4949 615.9739,-195.6056 644,-195.1104 701.7688,-194.0895 716.2575,-193.0912 774,-195.1104 827.7524,-196.99 888.4873,-201.3495 933.8232,-205.0439"/>
<polygon fill="#9a32cd" stroke="#9a32cd" points="557.0875,-193.99 547.2181,-197.8427 557.336,-200.9856 557.0875,-193.99"/>
<text text-anchor="middle" x="709" y="-209.1104" font-family="FreeSans.ttf" font-size="10.00" fill="#000000"> linearVec3</text>
<text text-anchor="middle" x="709" y="-198.1104" font-family="FreeSans.ttf" font-size="10.00" fill="#000000">angularVec3</text>
</g>
<!-- Node16 -->
<g id="node16" class="node">
<title>Node16</title>
<g id="a_node16"><a xlink:href="classiDynTree_1_1SpatialVector.html" target="_top" xlink:title="iDynTree::SpatialVector">
<polygon fill="none" stroke="#000000" points="644,-226.6104 644,-245.6104 774,-245.6104 774,-226.6104 644,-226.6104"/>
<text text-anchor="middle" x="709" y="-233.6104" font-family="FreeSans.ttf" font-size="10.00" fill="#000000">iDynTree::SpatialVector</text>
</a>
</g>
</g>
<!-- Node14&#45;&gt;Node16 -->
<g id="edge16" class="edge">
<title>Node14&#45;&gt;Node16</title>
<path fill="none" stroke="#9a32cd" stroke-dasharray="5,2" d="M557.2537,-216.493C586.7689,-220.3086 617.6784,-224.3045 643.841,-227.6868"/>
<polygon fill="#9a32cd" stroke="#9a32cd" points="557.6727,-213.0181 547.3065,-215.207 556.7752,-219.9603 557.6727,-213.0181"/>
<text text-anchor="middle" x="595.5" y="-240.1104" font-family="FreeSans.ttf" font-size="10.00" fill="#000000"> linearVec3</text>
<text text-anchor="middle" x="595.5" y="-229.1104" font-family="FreeSans.ttf" font-size="10.00" fill="#000000">angularVec3</text>
</g>
<!-- Node15 -->
<g id="node15" class="node">
<title>Node15</title>
<g id="a_node15"><a xlink:href="classiDynTree_1_1SpatialMotionForceVectorT__traits.html" target="_top" xlink:title="Traits class for SpatialMotionVector and SpatialForceVector classes. ">
<polygon fill="none" stroke="#000000" points="0,-181.6104 0,-222.6104 188,-222.6104 188,-181.6104 0,-181.6104"/>
<text text-anchor="start" x="8" y="-210.6104" font-family="FreeSans.ttf" font-size="10.00" fill="#000000">iDynTree::SpatialMotionForce</text>
<text text-anchor="start" x="8" y="-199.6104" font-family="FreeSans.ttf" font-size="10.00" fill="#000000">VectorT_traits&lt; SpatialMotionForce</text>
<text text-anchor="middle" x="94" y="-188.6104" font-family="FreeSans.ttf" font-size="10.00" fill="#000000">VectorT &gt;</text>
</a>
</g>
</g>
<!-- Node15&#45;&gt;Node14 -->
<g id="edge14" class="edge">
<title>Node15&#45;&gt;Node14</title>
<path fill="none" stroke="#ffa500" stroke-dasharray="5,2" d="M198.3901,-202.1104C244.7084,-202.1104 299.0041,-202.1104 344.9302,-202.1104"/>
<polygon fill="#ffa500" stroke="#ffa500" points="198.3296,-198.6105 188.3295,-202.1104 198.3295,-205.6105 198.3296,-198.6105"/>
<text text-anchor="middle" x="266.5" y="-205.1104" font-family="FreeSans.ttf" font-size="10.00" fill="#000000"> &lt; DerivedSpatialVecT &gt;</text>
</g>
<!-- Node16&#45;&gt;Node13 -->
<g id="edge15" class="edge">
<title>Node16&#45;&gt;Node13</title>
<path fill="none" stroke="#ffa500" stroke-dasharray="5,2" d="M784.3836,-229.6893C830.5355,-225.7581 889.1352,-220.7667 933.9709,-216.9476"/>
<polygon fill="#ffa500" stroke="#ffa500" points="783.804,-226.2259 774.1372,-230.5621 784.3982,-233.2006 783.804,-226.2259"/>
<text text-anchor="middle" x="854" y="-232.1104" font-family="FreeSans.ttf" font-size="10.00" fill="#000000"> &lt; SpatialMotionVector &gt;</text>
</g>
<!-- Node17 -->
<g id="node17" class="node">
<title>Node17</title>
<g id="a_node17"><a xlink:href="classiDynTree_1_1VectorFixSize.html" target="_top" xlink:title="iDynTree::VectorFixSize\&lt; 3 \&gt;">
<polygon fill="none" stroke="#000000" points="1531,-235.6104 1531,-254.6104 1689,-254.6104 1689,-235.6104 1531,-235.6104"/>
<text text-anchor="middle" x="1610" y="-242.6104" font-family="FreeSans.ttf" font-size="10.00" fill="#000000">iDynTree::VectorFixSize&lt; 3 &gt;</text>
</a>
</g>
</g>
<!-- Node17&#45;&gt;Node1 -->
<g id="edge17" class="edge">
<title>Node17&#45;&gt;Node1</title>
<path fill="none" stroke="#9a32cd" stroke-dasharray="5,2" d="M1699.2657,-235.2248C1739.4817,-233.2798 1787.2161,-234.4918 1829,-245.1104 1853.1841,-251.2563 1877.9179,-265.6791 1894.7084,-276.9389"/>
<polygon fill="#9a32cd" stroke="#9a32cd" points="1699.0018,-231.7339 1689.2114,-235.7834 1699.3902,-238.7231 1699.0018,-231.7339"/>
<text text-anchor="middle" x="1771" y="-270.1104" font-family="FreeSans.ttf" font-size="10.00" fill="#000000"> worldGravity</text>
<text text-anchor="start" x="1718" y="-259.1104" font-family="FreeSans.ttf" font-size="10.00" fill="#000000">m_comHullConstraint</text>
<text text-anchor="middle" x="1771" y="-248.1104" font-family="FreeSans.ttf" font-size="10.00" fill="#000000">_projDirection</text>
</g>
<!-- Node18 -->
<g id="node18" class="node">
<title>Node18</title>
<g id="a_node18"><a xlink:href="classiDynTree_1_1VectorFixSize.html" target="_top" xlink:title="Class providing a simple vector of N elements. ">
<polygon fill="none" stroke="#000000" points="1233.5,-251.1104 1233.5,-281.1104 1363.5,-281.1104 1363.5,-251.1104 1233.5,-251.1104"/>
<text text-anchor="start" x="1241.5" y="-269.1104" font-family="FreeSans.ttf" font-size="10.00" fill="#000000">iDynTree::VectorFixSize</text>
<text text-anchor="middle" x="1298.5" y="-258.1104" font-family="FreeSans.ttf" font-size="10.00" fill="#000000">&lt; VecSize &gt;</text>
</a>
</g>
</g>
<!-- Node18&#45;&gt;Node17 -->
<g id="edge18" class="edge">
<title>Node18&#45;&gt;Node17</title>
<path fill="none" stroke="#ffa500" stroke-dasharray="5,2" d="M1374.0313,-261.0184C1421.5616,-257.8141 1482.8012,-253.6856 1530.9817,-250.4375"/>
<polygon fill="#ffa500" stroke="#ffa500" points="1373.5425,-257.5433 1363.8006,-261.7081 1374.0134,-264.5274 1373.5425,-257.5433"/>
<text text-anchor="middle" x="1452.5" y="-263.1104" font-family="FreeSans.ttf" font-size="10.00" fill="#000000"> &lt; 3 &gt;</text>
</g>
<!-- Node19&#45;&gt;Node1 -->
<g id="edge20" class="edge">
<title>Node19&#45;&gt;Node1</title>
<path fill="none" stroke="#9a32cd" stroke-dasharray="5,2" d="M1209.4986,-396.2508C1358.3549,-402.5036 1717.7801,-412.3624 1829,-368.1104 1860.9475,-355.3991 1889.013,-325.461 1903.9914,-307.1827"/>
<polygon fill="#9a32cd" stroke="#9a32cd" points="1209.2918,-392.7389 1199.1512,-395.8077 1208.9922,-399.7325 1209.2918,-392.7389"/>
<text text-anchor="start" x="1398" y="-437.1104" font-family="FreeSans.ttf" font-size="10.00" fill="#000000"> m_comHullConstraint</text>
<text text-anchor="middle" x="1452.5" y="-426.1104" font-family="FreeSans.ttf" font-size="10.00" fill="#000000">_yAxisOfPlaneInWorld</text>
<text text-anchor="start" x="1398" y="-415.1104" font-family="FreeSans.ttf" font-size="10.00" fill="#000000">m_comHullConstraint</text>
<text text-anchor="middle" x="1452.5" y="-404.1104" font-family="FreeSans.ttf" font-size="10.00" fill="#000000">_xAxisOfPlaneInWorld</text>
</g>
<!-- Node20&#45;&gt;Node1 -->
<g id="edge22" class="edge">
<title>Node20&#45;&gt;Node1</title>
<path fill="none" stroke="#9a32cd" stroke-dasharray="5,2" d="M1705.2237,-150.8447C1745.6419,-154.0246 1791.8871,-162.8466 1829,-184.1104 1867.561,-206.2038 1895.5624,-252.7664 1908.1283,-276.8947"/>
<polygon fill="#9a32cd" stroke="#9a32cd" points="1705.2973,-147.3417 1695.0825,-150.1537 1704.8214,-154.3255 1705.2973,-147.3417"/>
<text text-anchor="middle" x="1771" y="-187.1104" font-family="FreeSans.ttf" font-size="10.00" fill="#000000"> m_comHullConstraint</text>
</g>
<!-- Node21 -->
<g id="node21" class="node">
<title>Node21</title>
<g id="a_node21"><a xlink:href="classiDynTree_1_1MatrixDynSize.html" target="_top" xlink:title="Class providing a simple form of matrix with dynamic size. ">
<polygon fill="none" stroke="#000000" points="1230.5,-118.6104 1230.5,-137.6104 1366.5,-137.6104 1366.5,-118.6104 1230.5,-118.6104"/>
<text text-anchor="middle" x="1298.5" y="-125.6104" font-family="FreeSans.ttf" font-size="10.00" fill="#000000">iDynTree::MatrixDynSize</text>
</a>
</g>
</g>
<!-- Node21&#45;&gt;Node20 -->
<g id="edge23" class="edge">
<title>Node21&#45;&gt;Node20</title>
<path fill="none" stroke="#9a32cd" stroke-dasharray="5,2" d="M1376.7622,-127.6956C1415.9536,-128.1649 1464.079,-129.7653 1507,-134.1104 1514.7661,-134.8966 1522.8292,-135.9265 1530.8705,-137.0961"/>
<polygon fill="#9a32cd" stroke="#9a32cd" points="1376.7737,-124.1957 1366.74,-127.5977 1376.7053,-131.1953 1376.7737,-124.1957"/>
<text text-anchor="middle" x="1452.5" y="-148.1104" font-family="FreeSans.ttf" font-size="10.00" fill="#000000"> AtimesP</text>
<text text-anchor="middle" x="1452.5" y="-137.1104" font-family="FreeSans.ttf" font-size="10.00" fill="#000000">A</text>
</g>
<!-- Node22 -->
<g id="node22" class="node">
<title>Node22</title>
<g id="a_node22"><a xlink:href="classiDynTree_1_1MatrixFixSize.html" target="_top" xlink:title="iDynTree::MatrixFixSize\l\&lt; 2, 3 \&gt;">
<polygon fill="none" stroke="#000000" points="1233.5,-68.1104 1233.5,-98.1104 1363.5,-98.1104 1363.5,-68.1104 1233.5,-68.1104"/>
<text text-anchor="start" x="1241.5" y="-86.1104" font-family="FreeSans.ttf" font-size="10.00" fill="#000000">iDynTree::MatrixFixSize</text>
<text text-anchor="middle" x="1298.5" y="-75.1104" font-family="FreeSans.ttf" font-size="10.00" fill="#000000">&lt; 2, 3 &gt;</text>
</a>
</g>
</g>
<!-- Node22&#45;&gt;Node20 -->
<g id="edge24" class="edge">
<title>Node22&#45;&gt;Node20</title>
<path fill="none" stroke="#9a32cd" stroke-dasharray="5,2" d="M1373.9652,-78.2653C1414.9744,-78.463 1465.6141,-83.4369 1507,-102.1104 1517.0302,-106.636 1515.6978,-113.2319 1525,-119.1104 1536.2408,-126.214 1549.2565,-132.2088 1561.6719,-137.0577"/>
<polygon fill="#9a32cd" stroke="#9a32cd" points="1373.7418,-74.7662 1363.7581,-78.3125 1373.7742,-81.7661 1373.7418,-74.7662"/>
<text text-anchor="middle" x="1452.5" y="-116.1104" font-family="FreeSans.ttf" font-size="10.00" fill="#000000"> P</text>
<text text-anchor="middle" x="1452.5" y="-105.1104" font-family="FreeSans.ttf" font-size="10.00" fill="#000000">Pdirection</text>
</g>
<!-- Node23 -->
<g id="node23" class="node">
<title>Node23</title>
<g id="a_node23"><a xlink:href="classiDynTree_1_1MatrixFixSize.html" target="_top" xlink:title="Class providing a simple form of matrix with dynamic size. ">
<polygon fill="none" stroke="#000000" points="937.5,-68.1104 937.5,-98.1104 1067.5,-98.1104 1067.5,-68.1104 937.5,-68.1104"/>
<text text-anchor="start" x="945.5" y="-86.1104" font-family="FreeSans.ttf" font-size="10.00" fill="#000000">iDynTree::MatrixFixSize</text>
<text text-anchor="middle" x="1002.5" y="-75.1104" font-family="FreeSans.ttf" font-size="10.00" fill="#000000">&lt; nRows, nCols &gt;</text>
</a>
</g>
</g>
<!-- Node23&#45;&gt;Node22 -->
<g id="edge25" class="edge">
<title>Node23&#45;&gt;Node22</title>
<path fill="none" stroke="#ffa500" stroke-dasharray="5,2" d="M1077.8539,-83.1104C1125.8669,-83.1104 1187.4445,-83.1104 1233.3419,-83.1104"/>
<polygon fill="#ffa500" stroke="#ffa500" points="1077.8249,-79.6105 1067.8249,-83.1104 1077.8249,-86.6105 1077.8249,-79.6105"/>
<text text-anchor="middle" x="1144" y="-86.1104" font-family="FreeSans.ttf" font-size="10.00" fill="#000000"> &lt; 2, 3 &gt;</text>
</g>
<!-- Node24 -->
<g id="node24" class="node">
<title>Node24</title>
<g id="a_node24"><a xlink:href="classiDynTree_1_1Polygon2D.html" target="_top" xlink:title="Class representing a 2D Polygon expressed in the 2D space. ">
<polygon fill="none" stroke="#000000" points="1239.5,-163.6104 1239.5,-182.6104 1357.5,-182.6104 1357.5,-163.6104 1239.5,-163.6104"/>
<text text-anchor="middle" x="1298.5" y="-170.6104" font-family="FreeSans.ttf" font-size="10.00" fill="#000000">iDynTree::Polygon2D</text>
</a>
</g>
</g>
<!-- Node24&#45;&gt;Node20 -->
<g id="edge26" class="edge">
<title>Node24&#45;&gt;Node20</title>
<path fill="none" stroke="#9a32cd" stroke-dasharray="5,2" d="M1368.0619,-168.4208C1414.357,-165.2998 1475.4805,-161.1791 1524.7067,-157.8605"/>
<polygon fill="#9a32cd" stroke="#9a32cd" points="1367.5659,-164.9462 1357.824,-169.111 1368.0368,-171.9304 1367.5659,-164.9462"/>
<text text-anchor="middle" x="1452.5" y="-170.1104" font-family="FreeSans.ttf" font-size="10.00" fill="#000000"> projectedConvexHull</text>
</g>
<!-- Node25 -->
<g id="node25" class="node">
<title>Node25</title>
<g id="a_node25"><a xlink:href="classiDynTree_1_1VectorDynSize.html" target="_top" xlink:title="Class providing a simple form of vector with dynamic size. ">
<polygon fill="none" stroke="#000000" points="1230.5,-18.6104 1230.5,-37.6104 1366.5,-37.6104 1366.5,-18.6104 1230.5,-18.6104"/>
<text text-anchor="middle" x="1298.5" y="-25.6104" font-family="FreeSans.ttf" font-size="10.00" fill="#000000">iDynTree::VectorDynSize</text>
</a>
</g>
</g>
<!-- Node25&#45;&gt;Node1 -->
<g id="edge29" class="edge">
<title>Node25&#45;&gt;Node1</title>
<path fill="none" stroke="#9a32cd" stroke-dasharray="5,2" d="M1350.8448,-16.6243C1428.8021,-2.0153 1578.6985,16.3534 1695,-28.1104 1814.3686,-73.7467 1888.2513,-227.5658 1909.2811,-276.8093"/>
<polygon fill="#9a32cd" stroke="#9a32cd" points="1349.9454,-13.2332 1340.789,-18.5633 1351.2708,-20.1066 1349.9454,-13.2332"/>
<text text-anchor="middle" x="1610" y="-119.1104" font-family="FreeSans.ttf" font-size="10.00" fill="#000000"> m_lowerBoundMultipliers</text>
<text text-anchor="middle" x="1610" y="-108.1104" font-family="FreeSans.ttf" font-size="10.00" fill="#000000">jointsConfiguration</text>
<text text-anchor="middle" x="1610" y="-97.1104" font-family="FreeSans.ttf" font-size="10.00" fill="#000000">m_constraintMultipliers</text>
<text text-anchor="middle" x="1610" y="-86.1104" font-family="FreeSans.ttf" font-size="10.00" fill="#000000">m_preferredJointsWeight</text>
<text text-anchor="middle" x="1610" y="-75.1104" font-family="FreeSans.ttf" font-size="10.00" fill="#000000">m_preferredJointsConfiguration</text>
<text text-anchor="middle" x="1610" y="-64.1104" font-family="FreeSans.ttf" font-size="10.00" fill="#000000">m_jointsResults</text>
<text text-anchor="middle" x="1610" y="-53.1104" font-family="FreeSans.ttf" font-size="10.00" fill="#000000">m_jointInitialConditions</text>
<text text-anchor="middle" x="1610" y="-42.1104" font-family="FreeSans.ttf" font-size="10.00" fill="#000000">jointsVelocity</text>
<text text-anchor="middle" x="1610" y="-31.1104" font-family="FreeSans.ttf" font-size="10.00" fill="#000000">m_upperBoundMultipliers</text>
</g>
<!-- Node25&#45;&gt;Node20 -->
<g id="edge28" class="edge">
<title>Node25&#45;&gt;Node20</title>
<path fill="none" stroke="#9a32cd" stroke-dasharray="5,2" d="M1376.7322,-33.7163C1427.4649,-38.8757 1487.5993,-48.3559 1507,-65.1104 1526.1466,-81.6454 1507.5511,-100.7927 1525,-119.1104 1532.2062,-126.6753 1541.3464,-132.533 1550.9444,-137.061"/>
<polygon fill="#9a32cd" stroke="#9a32cd" points="1377.0182,-30.2277 1366.7259,-32.7411 1376.3392,-37.1947 1377.0182,-30.2277"/>
<text text-anchor="middle" x="1452.5" y="-68.1104" font-family="FreeSans.ttf" font-size="10.00" fill="#000000"> b</text>
</g>
</g>
</svg>
