<?xml version="1.0" encoding="UTF-8" standalone="no"?>
<!DOCTYPE svg PUBLIC "-//W3C//DTD SVG 1.1//EN"
 "http://www.w3.org/Graphics/SVG/1.1/DTD/svg11.dtd">
<!-- Generated by graphviz version 2.40.1 (20161225.0304)
 -->
<!-- Title: iDynTree::Cylinder Pages: 1 -->
<svg width="430pt" height="344pt"
 viewBox="0.00 0.00 429.50 344.00" xmlns="http://www.w3.org/2000/svg" xmlns:xlink="http://www.w3.org/1999/xlink">
<g id="graph0" class="graph" transform="scale(1 1) rotate(0) translate(4 340)">
<title>iDynTree::Cylinder</title>
<!-- Node2 -->
<g id="node1" class="node">
<title>Node2</title>
<polygon fill="#bfbfbf" stroke="#000000" points="212.5,-.5 212.5,-19.5 318.5,-19.5 318.5,-.5 212.5,-.5"/>
<text text-anchor="middle" x="265.5" y="-7.5" font-family="FreeSans.ttf" font-size="10.00" fill="#000000">iDynTree::Cylinder</text>
</g>
<!-- Node3 -->
<g id="node2" class="node">
<title>Node3</title>
<g id="a_node2"><a xlink:href="classiDynTree_1_1SolidShape.html" target="_top" xlink:title="iDynTree::SolidShape">
<polygon fill="none" stroke="#000000" points="206,-57.5 206,-76.5 325,-76.5 325,-57.5 206,-57.5"/>
<text text-anchor="middle" x="265.5" y="-64.5" font-family="FreeSans.ttf" font-size="10.00" fill="#000000">iDynTree::SolidShape</text>
</a>
</g>
</g>
<!-- Node3&#45;&gt;Node2 -->
<g id="edge1" class="edge">
<title>Node3&#45;&gt;Node2</title>
<path fill="none" stroke="#191970" d="M265.5,-47.2342C265.5,-37.8491 265.5,-27.0651 265.5,-19.5265"/>
<polygon fill="#191970" stroke="#191970" points="262.0001,-47.3307 265.5,-57.3307 269.0001,-47.3308 262.0001,-47.3307"/>
</g>
<!-- Node4 -->
<g id="node3" class="node">
<title>Node4</title>
<g id="a_node3"><a xlink:href="classiDynTree_1_1Transform.html" target="_top" xlink:title="Class representation the relative displacement between two different frames. ">
<polygon fill="none" stroke="#000000" points="131.5,-124.5 131.5,-143.5 245.5,-143.5 245.5,-124.5 131.5,-124.5"/>
<text text-anchor="middle" x="188.5" y="-131.5" font-family="FreeSans.ttf" font-size="10.00" fill="#000000">iDynTree::Transform</text>
</a>
</g>
</g>
<!-- Node4&#45;&gt;Node3 -->
<g id="edge2" class="edge">
<title>Node4&#45;&gt;Node3</title>
<path fill="none" stroke="#9a32cd" stroke-dasharray="5,2" d="M202.294,-116.1273C208.1323,-109.1342 215.2541,-101.2976 222.5,-95 230.4342,-88.1043 240.1899,-81.6166 248.4023,-76.6258"/>
<polygon fill="#9a32cd" stroke="#9a32cd" points="199.2157,-114.3698 195.6724,-124.3546 204.6689,-118.7588 199.2157,-114.3698"/>
<text text-anchor="middle" x="266" y="-98" font-family="FreeSans.ttf" font-size="10.00" fill="#000000"> link_H_geometry</text>
</g>
<!-- Node5 -->
<g id="node4" class="node">
<title>Node5</title>
<g id="a_node4"><a xlink:href="classiDynTree_1_1Rotation.html" target="_top" xlink:title="Class representation the rotation of an orientation frame with respect to a reference orientation fra...">
<polygon fill="none" stroke="#000000" points="25.5,-197 25.5,-216 131.5,-216 131.5,-197 25.5,-197"/>
<text text-anchor="middle" x="78.5" y="-204" font-family="FreeSans.ttf" font-size="10.00" fill="#000000">iDynTree::Rotation</text>
</a>
</g>
</g>
<!-- Node5&#45;&gt;Node4 -->
<g id="edge3" class="edge">
<title>Node5&#45;&gt;Node4</title>
<path fill="none" stroke="#9a32cd" stroke-dasharray="5,2" d="M101.7063,-191.2049C123.5075,-176.836 155.4589,-155.7771 173.9,-143.6228"/>
<polygon fill="#9a32cd" stroke="#9a32cd" points="99.7586,-188.2968 93.3351,-196.7223 103.6108,-194.1415 99.7586,-188.2968"/>
<text text-anchor="middle" x="152" y="-165" font-family="FreeSans.ttf" font-size="10.00" fill="#000000"> rot</text>
</g>
<!-- Node6 -->
<g id="node5" class="node">
<title>Node6</title>
<g id="a_node5"><a xlink:href="classiDynTree_1_1RotationRaw.html" target="_top" xlink:title="Class providing the raw coordinates for iDynTree::Rotation class. ">
<polygon fill="none" stroke="#000000" points="0,-259.5 0,-278.5 127,-278.5 127,-259.5 0,-259.5"/>
<text text-anchor="middle" x="63.5" y="-266.5" font-family="FreeSans.ttf" font-size="10.00" fill="#000000">iDynTree::RotationRaw</text>
</a>
</g>
</g>
<!-- Node6&#45;&gt;Node5 -->
<g id="edge4" class="edge">
<title>Node6&#45;&gt;Node5</title>
<path fill="none" stroke="#191970" d="M68.2358,-249.2675C70.8608,-238.3298 74.0112,-225.2035 76.1232,-216.4033"/>
<polygon fill="#191970" stroke="#191970" points="64.7742,-248.6937 65.8438,-259.2344 71.5809,-250.3273 64.7742,-248.6937"/>
</g>
<!-- Node7 -->
<g id="node6" class="node">
<title>Node7</title>
<g id="a_node6"><a xlink:href="classiDynTree_1_1MatrixFixSize.html" target="_top" xlink:title="Class providing a simple form of matrix with dynamic size. ">
<polygon fill="none" stroke="#000000" points="31,-316.5 31,-335.5 96,-335.5 96,-316.5 31,-316.5"/>
<text text-anchor="middle" x="63.5" y="-323.5" font-family="FreeSans.ttf" font-size="10.00" fill="#000000">Matrix3x3</text>
</a>
</g>
</g>
<!-- Node7&#45;&gt;Node6 -->
<g id="edge5" class="edge">
<title>Node7&#45;&gt;Node6</title>
<path fill="none" stroke="#191970" d="M63.5,-306.2342C63.5,-296.8491 63.5,-286.0651 63.5,-278.5265"/>
<polygon fill="#191970" stroke="#191970" points="60.0001,-306.3307 63.5,-316.3307 67.0001,-306.3308 60.0001,-306.3307"/>
</g>
<!-- Node8 -->
<g id="node7" class="node">
<title>Node8</title>
<g id="a_node7"><a xlink:href="classiDynTree_1_1Position.html" target="_top" xlink:title="Class representation the coordinates of the Position of a point with respect to another point...">
<polygon fill="none" stroke="#000000" points="150.5,-197 150.5,-216 254.5,-216 254.5,-197 150.5,-197"/>
<text text-anchor="middle" x="202.5" y="-204" font-family="FreeSans.ttf" font-size="10.00" fill="#000000">iDynTree::Position</text>
</a>
</g>
</g>
<!-- Node8&#45;&gt;Node4 -->
<g id="edge6" class="edge">
<title>Node8&#45;&gt;Node4</title>
<path fill="none" stroke="#9a32cd" stroke-dasharray="5,2" d="M198.6583,-186.6054C195.9584,-172.6237 192.4653,-154.5346 190.3582,-143.6228"/>
<polygon fill="#9a32cd" stroke="#9a32cd" points="195.2793,-187.5673 200.6119,-196.7223 202.1523,-186.2401 195.2793,-187.5673"/>
<text text-anchor="middle" x="207" y="-165" font-family="FreeSans.ttf" font-size="10.00" fill="#000000"> pos</text>
</g>
<!-- Node9 -->
<g id="node8" class="node">
<title>Node9</title>
<g id="a_node8"><a xlink:href="classiDynTree_1_1PositionRaw.html" target="_top" xlink:title="Class providing the raw coordinates for iDynTree::Position class. ">
<polygon fill="none" stroke="#000000" points="145,-259.5 145,-278.5 270,-278.5 270,-259.5 145,-259.5"/>
<text text-anchor="middle" x="207.5" y="-266.5" font-family="FreeSans.ttf" font-size="10.00" fill="#000000">iDynTree::PositionRaw</text>
</a>
</g>
</g>
<!-- Node9&#45;&gt;Node8 -->
<g id="edge7" class="edge">
<title>Node9&#45;&gt;Node8</title>
<path fill="none" stroke="#191970" d="M205.894,-248.925C205.0245,-238.0568 203.9889,-225.1118 203.2923,-216.4033"/>
<polygon fill="#191970" stroke="#191970" points="202.4324,-249.5454 206.7188,-259.2344 209.4101,-248.9871 202.4324,-249.5454"/>
</g>
<!-- Node10 -->
<g id="node9" class="node">
<title>Node10</title>
<g id="a_node9"><a xlink:href="classiDynTree_1_1VectorFixSize.html" target="_top" xlink:title="Class providing a simple vector of N elements. ">
<polygon fill="none" stroke="#000000" points="181,-316.5 181,-335.5 234,-335.5 234,-316.5 181,-316.5"/>
<text text-anchor="middle" x="207.5" y="-323.5" font-family="FreeSans.ttf" font-size="10.00" fill="#000000">Vector3</text>
</a>
</g>
</g>
<!-- Node10&#45;&gt;Node9 -->
<g id="edge8" class="edge">
<title>Node10&#45;&gt;Node9</title>
<path fill="none" stroke="#191970" d="M207.5,-306.2342C207.5,-296.8491 207.5,-286.0651 207.5,-278.5265"/>
<polygon fill="#191970" stroke="#191970" points="204.0001,-306.3307 207.5,-316.3307 211.0001,-306.3308 204.0001,-306.3307"/>
</g>
<!-- Node11 -->
<g id="node10" class="node">
<title>Node11</title>
<g id="a_node10"><a xlink:href="classiDynTree_1_1VectorFixSize.html" target="_top" xlink:title="iDynTree::VectorFixSize\&lt; 4 \&gt;">
<polygon fill="none" stroke="#000000" points="263.5,-124.5 263.5,-143.5 421.5,-143.5 421.5,-124.5 263.5,-124.5"/>
<text text-anchor="middle" x="342.5" y="-131.5" font-family="FreeSans.ttf" font-size="10.00" fill="#000000">iDynTree::VectorFixSize&lt; 4 &gt;</text>
</a>
</g>
</g>
<!-- Node11&#45;&gt;Node3 -->
<g id="edge9" class="edge">
<title>Node11&#45;&gt;Node3</title>
<path fill="none" stroke="#9a32cd" stroke-dasharray="5,2" d="M329.2221,-116.0622C323.5715,-109.0597 316.6413,-101.2336 309.5,-95 301.4509,-87.974 291.4737,-81.4761 283.0559,-76.5123"/>
<polygon fill="#9a32cd" stroke="#9a32cd" points="326.7223,-118.5501 335.6149,-124.3096 332.2549,-114.2617 326.7223,-118.5501"/>
<text text-anchor="middle" x="342" y="-98" font-family="FreeSans.ttf" font-size="10.00" fill="#000000"> material</text>
</g>
<!-- Node12 -->
<g id="node11" class="node">
<title>Node12</title>
<g id="a_node11"><a xlink:href="classiDynTree_1_1VectorFixSize.html" target="_top" xlink:title="Class providing a simple vector of N elements. ">
<polygon fill="none" stroke="#000000" points="277.5,-191.5 277.5,-221.5 407.5,-221.5 407.5,-191.5 277.5,-191.5"/>
<text text-anchor="start" x="285.5" y="-209.5" font-family="FreeSans.ttf" font-size="10.00" fill="#000000">iDynTree::VectorFixSize</text>
<text text-anchor="middle" x="342.5" y="-198.5" font-family="FreeSans.ttf" font-size="10.00" fill="#000000">&lt; VecSize &gt;</text>
</a>
</g>
</g>
<!-- Node12&#45;&gt;Node11 -->
<g id="edge10" class="edge">
<title>Node12&#45;&gt;Node11</title>
<path fill="none" stroke="#ffa500" stroke-dasharray="5,2" d="M342.5,-181.305C342.5,-168.424 342.5,-153.4836 342.5,-143.8957"/>
<polygon fill="#ffa500" stroke="#ffa500" points="339.0001,-181.4779 342.5,-191.478 346.0001,-181.478 339.0001,-181.4779"/>
<text text-anchor="middle" x="358.5" y="-165" font-family="FreeSans.ttf" font-size="10.00" fill="#000000"> &lt; 4 &gt;</text>
</g>
</g>
</svg>
