<?xml version="1.0" encoding="UTF-8" standalone="no"?>
<!DOCTYPE svg PUBLIC "-//W3C//DTD SVG 1.1//EN"
 "http://www.w3.org/Graphics/SVG/1.1/DTD/svg11.dtd">
<!-- Generated by graphviz version 2.40.1 (20161225.0304)
 -->
<!-- Title: iDynTree::SolidShape Pages: 1 -->
<svg width="430pt" height="287pt"
 viewBox="0.00 0.00 429.50 287.00" xmlns="http://www.w3.org/2000/svg" xmlns:xlink="http://www.w3.org/1999/xlink">
<g id="graph0" class="graph" transform="scale(1 1) rotate(0) translate(4 283)">
<title>iDynTree::SolidShape</title>
<!-- Node5 -->
<g id="node1" class="node">
<title>Node5</title>
<polygon fill="#bfbfbf" stroke="#000000" points="206,-.5 206,-19.5 325,-19.5 325,-.5 206,-.5"/>
<text text-anchor="middle" x="265.5" y="-7.5" font-family="FreeSans.ttf" font-size="10.00" fill="#000000">iDynTree::SolidShape</text>
</g>
<!-- Node6 -->
<g id="node2" class="node">
<title>Node6</title>
<g id="a_node2"><a xlink:href="classiDynTree_1_1Transform.html" target="_top" xlink:title="Class representation the relative displacement between two different frames. ">
<polygon fill="none" stroke="#000000" points="131.5,-67.5 131.5,-86.5 245.5,-86.5 245.5,-67.5 131.5,-67.5"/>
<text text-anchor="middle" x="188.5" y="-74.5" font-family="FreeSans.ttf" font-size="10.00" fill="#000000">iDynTree::Transform</text>
</a>
</g>
</g>
<!-- Node6&#45;&gt;Node5 -->
<g id="edge1" class="edge">
<title>Node6&#45;&gt;Node5</title>
<path fill="none" stroke="#9a32cd" stroke-dasharray="5,2" d="M202.294,-59.1273C208.1323,-52.1342 215.2541,-44.2976 222.5,-38 230.4342,-31.1043 240.1899,-24.6166 248.4023,-19.6258"/>
<polygon fill="#9a32cd" stroke="#9a32cd" points="199.2157,-57.3698 195.6724,-67.3546 204.6689,-61.7588 199.2157,-57.3698"/>
<text text-anchor="middle" x="266" y="-41" font-family="FreeSans.ttf" font-size="10.00" fill="#000000"> link_H_geometry</text>
</g>
<!-- Node7 -->
<g id="node3" class="node">
<title>Node7</title>
<g id="a_node3"><a xlink:href="classiDynTree_1_1Rotation.html" target="_top" xlink:title="Class representation the rotation of an orientation frame with respect to a reference orientation fra...">
<polygon fill="none" stroke="#000000" points="25.5,-140 25.5,-159 131.5,-159 131.5,-140 25.5,-140"/>
<text text-anchor="middle" x="78.5" y="-147" font-family="FreeSans.ttf" font-size="10.00" fill="#000000">iDynTree::Rotation</text>
</a>
</g>
</g>
<!-- Node7&#45;&gt;Node6 -->
<g id="edge2" class="edge">
<title>Node7&#45;&gt;Node6</title>
<path fill="none" stroke="#9a32cd" stroke-dasharray="5,2" d="M101.7063,-134.2049C123.5075,-119.836 155.4589,-98.7771 173.9,-86.6228"/>
<polygon fill="#9a32cd" stroke="#9a32cd" points="99.7586,-131.2968 93.3351,-139.7223 103.6108,-137.1415 99.7586,-131.2968"/>
<text text-anchor="middle" x="152" y="-108" font-family="FreeSans.ttf" font-size="10.00" fill="#000000"> rot</text>
</g>
<!-- Node8 -->
<g id="node4" class="node">
<title>Node8</title>
<g id="a_node4"><a xlink:href="classiDynTree_1_1RotationRaw.html" target="_top" xlink:title="Class providing the raw coordinates for iDynTree::Rotation class. ">
<polygon fill="none" stroke="#000000" points="0,-202.5 0,-221.5 127,-221.5 127,-202.5 0,-202.5"/>
<text text-anchor="middle" x="63.5" y="-209.5" font-family="FreeSans.ttf" font-size="10.00" fill="#000000">iDynTree::RotationRaw</text>
</a>
</g>
</g>
<!-- Node8&#45;&gt;Node7 -->
<g id="edge3" class="edge">
<title>Node8&#45;&gt;Node7</title>
<path fill="none" stroke="#191970" d="M68.2358,-192.2675C70.8608,-181.3298 74.0112,-168.2035 76.1232,-159.4033"/>
<polygon fill="#191970" stroke="#191970" points="64.7742,-191.6937 65.8438,-202.2344 71.5809,-193.3273 64.7742,-191.6937"/>
</g>
<!-- Node9 -->
<g id="node5" class="node">
<title>Node9</title>
<g id="a_node5"><a xlink:href="classiDynTree_1_1MatrixFixSize.html" target="_top" xlink:title="Class providing a simple form of matrix with dynamic size. ">
<polygon fill="none" stroke="#000000" points="31,-259.5 31,-278.5 96,-278.5 96,-259.5 31,-259.5"/>
<text text-anchor="middle" x="63.5" y="-266.5" font-family="FreeSans.ttf" font-size="10.00" fill="#000000">Matrix3x3</text>
</a>
</g>
</g>
<!-- Node9&#45;&gt;Node8 -->
<g id="edge4" class="edge">
<title>Node9&#45;&gt;Node8</title>
<path fill="none" stroke="#191970" d="M63.5,-249.2342C63.5,-239.8491 63.5,-229.0651 63.5,-221.5265"/>
<polygon fill="#191970" stroke="#191970" points="60.0001,-249.3307 63.5,-259.3307 67.0001,-249.3308 60.0001,-249.3307"/>
</g>
<!-- Node10 -->
<g id="node6" class="node">
<title>Node10</title>
<g id="a_node6"><a xlink:href="classiDynTree_1_1Position.html" target="_top" xlink:title="Class representation the coordinates of the Position of a point with respect to another point...">
<polygon fill="none" stroke="#000000" points="150.5,-140 150.5,-159 254.5,-159 254.5,-140 150.5,-140"/>
<text text-anchor="middle" x="202.5" y="-147" font-family="FreeSans.ttf" font-size="10.00" fill="#000000">iDynTree::Position</text>
</a>
</g>
</g>
<!-- Node10&#45;&gt;Node6 -->
<g id="edge5" class="edge">
<title>Node10&#45;&gt;Node6</title>
<path fill="none" stroke="#9a32cd" stroke-dasharray="5,2" d="M198.6583,-129.6054C195.9584,-115.6237 192.4653,-97.5346 190.3582,-86.6228"/>
<polygon fill="#9a32cd" stroke="#9a32cd" points="195.2793,-130.5673 200.6119,-139.7223 202.1523,-129.2401 195.2793,-130.5673"/>
<text text-anchor="middle" x="207" y="-108" font-family="FreeSans.ttf" font-size="10.00" fill="#000000"> pos</text>
</g>
<!-- Node11 -->
<g id="node7" class="node">
<title>Node11</title>
<g id="a_node7"><a xlink:href="classiDynTree_1_1PositionRaw.html" target="_top" xlink:title="Class providing the raw coordinates for iDynTree::Position class. ">
<polygon fill="none" stroke="#000000" points="145,-202.5 145,-221.5 270,-221.5 270,-202.5 145,-202.5"/>
<text text-anchor="middle" x="207.5" y="-209.5" font-family="FreeSans.ttf" font-size="10.00" fill="#000000">iDynTree::PositionRaw</text>
</a>
</g>
</g>
<!-- Node11&#45;&gt;Node10 -->
<g id="edge6" class="edge">
<title>Node11&#45;&gt;Node10</title>
<path fill="none" stroke="#191970" d="M205.894,-191.925C205.0245,-181.0568 203.9889,-168.1118 203.2923,-159.4033"/>
<polygon fill="#191970" stroke="#191970" points="202.4324,-192.5454 206.7188,-202.2344 209.4101,-191.9871 202.4324,-192.5454"/>
</g>
<!-- Node12 -->
<g id="node8" class="node">
<title>Node12</title>
<g id="a_node8"><a xlink:href="classiDynTree_1_1VectorFixSize.html" target="_top" xlink:title="Class providing a simple vector of N elements. ">
<polygon fill="none" stroke="#000000" points="181,-259.5 181,-278.5 234,-278.5 234,-259.5 181,-259.5"/>
<text text-anchor="middle" x="207.5" y="-266.5" font-family="FreeSans.ttf" font-size="10.00" fill="#000000">Vector3</text>
</a>
</g>
</g>
<!-- Node12&#45;&gt;Node11 -->
<g id="edge7" class="edge">
<title>Node12&#45;&gt;Node11</title>
<path fill="none" stroke="#191970" d="M207.5,-249.2342C207.5,-239.8491 207.5,-229.0651 207.5,-221.5265"/>
<polygon fill="#191970" stroke="#191970" points="204.0001,-249.3307 207.5,-259.3307 211.0001,-249.3308 204.0001,-249.3307"/>
</g>
<!-- Node13 -->
<g id="node9" class="node">
<title>Node13</title>
<g id="a_node9"><a xlink:href="classiDynTree_1_1VectorFixSize.html" target="_top" xlink:title="iDynTree::VectorFixSize\&lt; 4 \&gt;">
<polygon fill="none" stroke="#000000" points="263.5,-67.5 263.5,-86.5 421.5,-86.5 421.5,-67.5 263.5,-67.5"/>
<text text-anchor="middle" x="342.5" y="-74.5" font-family="FreeSans.ttf" font-size="10.00" fill="#000000">iDynTree::VectorFixSize&lt; 4 &gt;</text>
</a>
</g>
</g>
<!-- Node13&#45;&gt;Node5 -->
<g id="edge8" class="edge">
<title>Node13&#45;&gt;Node5</title>
<path fill="none" stroke="#9a32cd" stroke-dasharray="5,2" d="M329.2221,-59.0622C323.5715,-52.0597 316.6413,-44.2336 309.5,-38 301.4509,-30.974 291.4737,-24.4761 283.0559,-19.5123"/>
<polygon fill="#9a32cd" stroke="#9a32cd" points="326.7223,-61.5501 335.6149,-67.3096 332.2549,-57.2617 326.7223,-61.5501"/>
<text text-anchor="middle" x="342" y="-41" font-family="FreeSans.ttf" font-size="10.00" fill="#000000"> material</text>
</g>
<!-- Node14 -->
<g id="node10" class="node">
<title>Node14</title>
<g id="a_node10"><a xlink:href="classiDynTree_1_1VectorFixSize.html" target="_top" xlink:title="Class providing a simple vector of N elements. ">
<polygon fill="none" stroke="#000000" points="277.5,-134.5 277.5,-164.5 407.5,-164.5 407.5,-134.5 277.5,-134.5"/>
<text text-anchor="start" x="285.5" y="-152.5" font-family="FreeSans.ttf" font-size="10.00" fill="#000000">iDynTree::VectorFixSize</text>
<text text-anchor="middle" x="342.5" y="-141.5" font-family="FreeSans.ttf" font-size="10.00" fill="#000000">&lt; VecSize &gt;</text>
</a>
</g>
</g>
<!-- Node14&#45;&gt;Node13 -->
<g id="edge9" class="edge">
<title>Node14&#45;&gt;Node13</title>
<path fill="none" stroke="#ffa500" stroke-dasharray="5,2" d="M342.5,-124.305C342.5,-111.424 342.5,-96.4836 342.5,-86.8957"/>
<polygon fill="#ffa500" stroke="#ffa500" points="339.0001,-124.4779 342.5,-134.478 346.0001,-124.478 339.0001,-124.4779"/>
<text text-anchor="middle" x="358.5" y="-108" font-family="FreeSans.ttf" font-size="10.00" fill="#000000"> &lt; 4 &gt;</text>
</g>
</g>
</svg>
