<?xml version="1.0" encoding="UTF-8" standalone="no"?>
<!DOCTYPE svg PUBLIC "-//W3C//DTD SVG 1.1//EN"
 "http://www.w3.org/Graphics/SVG/1.1/DTD/svg11.dtd">
<!-- Generated by graphviz version 2.40.1 (20161225.0304)
 -->
<!-- Title: ConstraintsGroup.cpp Pages: 1 -->
<svg width="1884pt" height="599pt"
 viewBox="0.00 0.00 1883.50 599.00" xmlns="http://www.w3.org/2000/svg" xmlns:xlink="http://www.w3.org/1999/xlink">
<g id="graph0" class="graph" transform="scale(1 1) rotate(0) translate(4 595)">
<title>ConstraintsGroup.cpp</title>
<!-- Node0 -->
<g id="node1" class="node">
<title>Node0</title>
<polygon fill="#bfbfbf" stroke="#000000" points="689,-571.5 689,-590.5 811,-590.5 811,-571.5 689,-571.5"/>
<text text-anchor="middle" x="750" y="-578.5" font-family="FreeSans.ttf" font-size="10.00" fill="#000000">ConstraintsGroup.cpp</text>
</g>
<!-- Node1 -->
<g id="node2" class="node">
<title>Node1</title>
<g id="a_node2"><a xlink:href="VectorDynSize_8h.html" target="_top" xlink:title="iDynTree/Core/VectorDynSize.h">
<polygon fill="none" stroke="#000000" points="556.5,-392.5 556.5,-411.5 723.5,-411.5 723.5,-392.5 556.5,-392.5"/>
<text text-anchor="middle" x="640" y="-399.5" font-family="FreeSans.ttf" font-size="10.00" fill="#000000">iDynTree/Core/VectorDynSize.h</text>
</a>
</g>
</g>
<!-- Node0&#45;&gt;Node1 -->
<g id="edge1" class="edge">
<title>Node0&#45;&gt;Node1</title>
<path fill="none" stroke="#191970" d="M738.914,-571.4766C720.0832,-554.6993 681.8657,-517.9459 661,-479 651.2172,-460.7404 645.6986,-437.5475 642.8001,-421.4105"/>
<polygon fill="#191970" stroke="#191970" points="646.2505,-420.8224 641.1918,-411.5133 639.3411,-421.9453 646.2505,-420.8224"/>
</g>
<!-- Node3 -->
<g id="node4" class="node">
<title>Node3</title>
<polygon fill="none" stroke="#bfbfbf" points="1141,-.5 1141,-19.5 1193,-19.5 1193,-.5 1141,-.5"/>
<text text-anchor="middle" x="1167" y="-7.5" font-family="FreeSans.ttf" font-size="10.00" fill="#000000">cassert</text>
</g>
<!-- Node0&#45;&gt;Node3 -->
<g id="edge104" class="edge">
<title>Node0&#45;&gt;Node3</title>
<path fill="none" stroke="#191970" d="M811.2306,-580.4857C1005.7907,-578.5048 1601.7655,-569.6446 1681,-535 1722.6107,-516.8061 1754,-508.9144 1754,-463.5 1754,-463.5 1754,-463.5 1754,-122 1754,-65.6789 1331.6623,-24.3214 1203.4614,-13.0647"/>
<polygon fill="#191970" stroke="#191970" points="1203.628,-9.566 1193.3625,-12.187 1203.0219,-16.5397 1203.628,-9.566"/>
</g>
<!-- Node4 -->
<g id="node5" class="node">
<title>Node4</title>
<polygon fill="none" stroke="#bfbfbf" points="120,-.5 120,-19.5 184,-19.5 184,-.5 120,-.5"/>
<text text-anchor="middle" x="152" y="-7.5" font-family="FreeSans.ttf" font-size="10.00" fill="#000000">algorithm</text>
</g>
<!-- Node0&#45;&gt;Node4 -->
<g id="edge103" class="edge">
<title>Node0&#45;&gt;Node4</title>
<path fill="none" stroke="#191970" d="M688.9317,-579.3479C532.4277,-574.7647 125.3787,-560.5166 70,-535 29.6097,-516.3895 0,-507.9717 0,-463.5 0,-463.5 0,-463.5 0,-122 0,-67.0312 65.2237,-36.0185 110.2203,-21.1639"/>
<polygon fill="#191970" stroke="#191970" points="111.2816,-24.4992 119.7647,-18.1519 109.175,-17.8237 111.2816,-24.4992"/>
</g>
<!-- Node13 -->
<g id="node14" class="node">
<title>Node13</title>
<g id="a_node14"><a xlink:href="MatrixDynSize_8h.html" target="_top" xlink:title="iDynTree/Core/MatrixDynSize.h">
<polygon fill="none" stroke="#000000" points="741.5,-392.5 741.5,-411.5 908.5,-411.5 908.5,-392.5 741.5,-392.5"/>
<text text-anchor="middle" x="825" y="-399.5" font-family="FreeSans.ttf" font-size="10.00" fill="#000000">iDynTree/Core/MatrixDynSize.h</text>
</a>
</g>
</g>
<!-- Node0&#45;&gt;Node13 -->
<g id="edge13" class="edge">
<title>Node0&#45;&gt;Node13</title>
<path fill="none" stroke="#191970" d="M771.6911,-571.4757C802.2313,-556.7158 856.668,-525.1275 879,-479 885.0037,-466.5991 884.7763,-460.5085 879,-448 873.1741,-435.384 861.9931,-424.9528 851.3095,-417.2314"/>
<polygon fill="#191970" stroke="#191970" points="853.2142,-414.2946 842.9599,-411.6299 849.3144,-420.1076 853.2142,-414.2946"/>
</g>
<!-- Node15 -->
<g id="node16" class="node">
<title>Node15</title>
<g id="a_node16"><a xlink:href="Utils_8h.html" target="_top" xlink:title="iDynTree/Core/Utils.h">
<polygon fill="none" stroke="#000000" points="732.5,-56.5 732.5,-75.5 851.5,-75.5 851.5,-56.5 732.5,-56.5"/>
<text text-anchor="middle" x="792" y="-63.5" font-family="FreeSans.ttf" font-size="10.00" fill="#000000">iDynTree/Core/Utils.h</text>
</a>
</g>
</g>
<!-- Node0&#45;&gt;Node15 -->
<g id="edge22" class="edge">
<title>Node0&#45;&gt;Node15</title>
<path fill="none" stroke="#191970" d="M688.6453,-579.5886C558.7233,-576.0486 259.8352,-564.837 163,-535 101.8357,-516.154 38,-527.5019 38,-463.5 38,-463.5 38,-463.5 38,-178 38,-109.2087 535.3962,-78.2789 722.2134,-69.088"/>
<polygon fill="#191970" stroke="#191970" points="722.3863,-72.5838 732.2046,-68.6027 722.0466,-65.5921 722.3863,-72.5838"/>
</g>
<!-- Node17 -->
<g id="node18" class="node">
<title>Node17</title>
<g id="a_node18"><a xlink:href="ConstraintsGroup_8h.html" target="_top" xlink:title="iDynTree/ConstraintsGroup.h">
<polygon fill="none" stroke="#000000" points="276,-454 276,-473 432,-473 432,-454 276,-454"/>
<text text-anchor="middle" x="354" y="-461" font-family="FreeSans.ttf" font-size="10.00" fill="#000000">iDynTree/ConstraintsGroup.h</text>
</a>
</g>
</g>
<!-- Node0&#45;&gt;Node17 -->
<g id="edge23" class="edge">
<title>Node0&#45;&gt;Node17</title>
<path fill="none" stroke="#191970" d="M688.7022,-577.957C604.7178,-572.8936 459.0394,-560.6484 413,-535 391.0226,-522.7564 373.8861,-498.8055 363.8732,-482.0101"/>
<polygon fill="#191970" stroke="#191970" points="366.7938,-480.0649 358.8182,-473.0907 360.7039,-483.5164 366.7938,-480.0649"/>
</g>
<!-- Node19 -->
<g id="node20" class="node">
<title>Node19</title>
<polygon fill="none" stroke="#bfbfbf" points="168.5,-336.5 168.5,-355.5 215.5,-355.5 215.5,-336.5 168.5,-336.5"/>
<text text-anchor="middle" x="192" y="-343.5" font-family="FreeSans.ttf" font-size="10.00" fill="#000000">vector</text>
</g>
<!-- Node0&#45;&gt;Node19 -->
<g id="edge101" class="edge">
<title>Node0&#45;&gt;Node19</title>
<path fill="none" stroke="#191970" d="M688.8816,-577.9942C604.5482,-573.0576 448.0527,-561.0517 317,-535 230.6536,-517.8354 179.7219,-549.5033 127,-479 98.7032,-441.1596 144.5752,-389.0737 172.6789,-362.7206"/>
<polygon fill="#191970" stroke="#191970" points="175.3486,-365.0237 180.3937,-355.7071 170.6399,-359.8441 175.3486,-365.0237"/>
</g>
<!-- Node22 -->
<g id="node23" class="node">
<title>Node22</title>
<g id="a_node23"><a xlink:href="Constraint_8h.html" target="_top" xlink:title="iDynTree/Constraint.h">
<polygon fill="none" stroke="#000000" points="136,-454 136,-473 258,-473 258,-454 136,-454"/>
<text text-anchor="middle" x="197" y="-461" font-family="FreeSans.ttf" font-size="10.00" fill="#000000">iDynTree/Constraint.h</text>
</a>
</g>
</g>
<!-- Node0&#45;&gt;Node22 -->
<g id="edge33" class="edge">
<title>Node0&#45;&gt;Node22</title>
<path fill="none" stroke="#191970" d="M688.7988,-577.7441C615.6254,-572.8338 489.8865,-561.1567 385,-535 327.3953,-520.6345 263.3846,-493.8141 226.8838,-477.4181"/>
<polygon fill="#191970" stroke="#191970" points="227.8988,-474.0352 217.3463,-473.089 225.0056,-480.4093 227.8988,-474.0352"/>
</g>
<!-- Node23 -->
<g id="node24" class="node">
<title>Node23</title>
<g id="a_node24"><a xlink:href="LinearConstraint_8h.html" target="_top" xlink:title="iDynTree/LinearConstraint.h">
<polygon fill="none" stroke="#000000" points="422,-515.5 422,-534.5 574,-534.5 574,-515.5 422,-515.5"/>
<text text-anchor="middle" x="498" y="-522.5" font-family="FreeSans.ttf" font-size="10.00" fill="#000000">iDynTree/LinearConstraint.h</text>
</a>
</g>
</g>
<!-- Node0&#45;&gt;Node23 -->
<g id="edge38" class="edge">
<title>Node0&#45;&gt;Node23</title>
<path fill="none" stroke="#191970" d="M706.966,-571.4369C663.7475,-561.8328 597.0859,-547.0191 550.7182,-536.7152"/>
<polygon fill="#191970" stroke="#191970" points="551.3777,-533.2764 540.8565,-534.5237 549.8591,-540.1097 551.3777,-533.2764"/>
</g>
<!-- Node29 -->
<g id="node30" class="node">
<title>Node29</title>
<polygon fill="none" stroke="#bfbfbf" points="1472,-112.5 1472,-131.5 1528,-131.5 1528,-112.5 1472,-112.5"/>
<text text-anchor="middle" x="1500" y="-119.5" font-family="FreeSans.ttf" font-size="10.00" fill="#000000">sstream</text>
</g>
<!-- Node0&#45;&gt;Node29 -->
<g id="edge105" class="edge">
<title>Node0&#45;&gt;Node29</title>
<path fill="none" stroke="#191970" d="M811.3194,-576.2543C1013.9658,-560.3185 1651.1735,-508.0929 1684,-479 1729.5003,-438.6748 1716,-406.798 1716,-346 1716,-346 1716,-346 1716,-290 1716,-200.896 1600.0561,-152.1776 1538.0611,-132.4968"/>
<polygon fill="#191970" stroke="#191970" points="1538.8252,-129.0701 1528.2382,-129.4779 1536.7688,-135.7613 1538.8252,-129.0701"/>
</g>
<!-- Node36 -->
<g id="node37" class="node">
<title>Node36</title>
<g id="a_node37"><a xlink:href="TimeRange_8h.html" target="_top" xlink:title="iDynTree/TimeRange.h">
<polygon fill="none" stroke="#000000" points="1527.5,-515.5 1527.5,-534.5 1654.5,-534.5 1654.5,-515.5 1527.5,-515.5"/>
<text text-anchor="middle" x="1591" y="-522.5" font-family="FreeSans.ttf" font-size="10.00" fill="#000000">iDynTree/TimeRange.h</text>
</a>
</g>
</g>
<!-- Node0&#45;&gt;Node36 -->
<g id="edge77" class="edge">
<title>Node0&#45;&gt;Node36</title>
<path fill="none" stroke="#191970" d="M811.4267,-578.7006C941.1953,-573.5343 1252.7204,-559.5025 1513,-535 1514.2998,-534.8776 1515.6113,-534.7505 1516.9318,-534.619"/>
<polygon fill="#191970" stroke="#191970" points="1517.611,-538.0669 1527.1882,-533.5362 1516.876,-531.1055 1517.611,-538.0669"/>
</g>
<!-- Node37 -->
<g id="node38" class="node">
<title>Node37</title>
<g id="a_node38"><a xlink:href="EigenHelpers_8h.html" target="_top" xlink:title="iDynTree/Core/EigenHelpers.h">
<polygon fill="none" stroke="#000000" points="1031.5,-515.5 1031.5,-534.5 1192.5,-534.5 1192.5,-515.5 1031.5,-515.5"/>
<text text-anchor="middle" x="1112" y="-522.5" font-family="FreeSans.ttf" font-size="10.00" fill="#000000">iDynTree/Core/EigenHelpers.h</text>
</a>
</g>
</g>
<!-- Node0&#45;&gt;Node37 -->
<g id="edge78" class="edge">
<title>Node0&#45;&gt;Node37</title>
<path fill="none" stroke="#191970" d="M811.4084,-571.5004C874.7253,-561.7055 973.3832,-546.4435 1040.2526,-536.099"/>
<polygon fill="#191970" stroke="#191970" points="1040.943,-539.534 1050.2904,-534.5462 1039.8728,-532.6162 1040.943,-539.534"/>
</g>
<!-- Node38 -->
<g id="node39" class="node">
<title>Node38</title>
<polygon fill="none" stroke="#bfbfbf" points="1597.5,-454 1597.5,-473 1674.5,-473 1674.5,-454 1597.5,-454"/>
<text text-anchor="middle" x="1636" y="-461" font-family="FreeSans.ttf" font-size="10.00" fill="#000000">Eigen/Dense</text>
</g>
<!-- Node0&#45;&gt;Node38 -->
<g id="edge100" class="edge">
<title>Node0&#45;&gt;Node38</title>
<path fill="none" stroke="#191970" d="M811.2558,-580.2092C1011.3484,-577.3302 1634.6098,-565.9066 1664,-535 1678.2621,-520.0021 1664.9281,-496.899 1652.2238,-481.0373"/>
<polygon fill="#191970" stroke="#191970" points="1654.5686,-478.3939 1645.4099,-473.0678 1649.2482,-482.9429 1654.5686,-478.3939"/>
</g>
<!-- Node42 -->
<g id="node43" class="node">
<title>Node42</title>
<polygon fill="none" stroke="#bfbfbf" points="1782.5,-515.5 1782.5,-534.5 1875.5,-534.5 1875.5,-515.5 1782.5,-515.5"/>
<text text-anchor="middle" x="1829" y="-522.5" font-family="FreeSans.ttf" font-size="10.00" fill="#000000">unordered_map</text>
</g>
<!-- Node0&#45;&gt;Node42 -->
<g id="edge102" class="edge">
<title>Node0&#45;&gt;Node42</title>
<path fill="none" stroke="#191970" d="M811.3231,-579.1748C1001.6695,-573.3601 1580.8185,-554.5038 1768,-535 1769.4677,-534.8471 1770.9536,-534.6817 1772.4517,-534.5057"/>
<polygon fill="#191970" stroke="#191970" points="1772.9825,-537.9663 1782.449,-533.2085 1772.0817,-531.0245 1772.9825,-537.9663"/>
</g>
<!-- Node2 -->
<g id="node3" class="node">
<title>Node2</title>
<g id="a_node3"><a xlink:href="Span_8h.html" target="_top" xlink:title="iDynTree/Core/Span.h">
<polygon fill="none" stroke="#000000" points="869.5,-56.5 869.5,-75.5 990.5,-75.5 990.5,-56.5 869.5,-56.5"/>
<text text-anchor="middle" x="930" y="-63.5" font-family="FreeSans.ttf" font-size="10.00" fill="#000000">iDynTree/Core/Span.h</text>
</a>
</g>
</g>
<!-- Node1&#45;&gt;Node2 -->
<g id="edge2" class="edge">
<title>Node1&#45;&gt;Node2</title>
<path fill="none" stroke="#191970" d="M622.8981,-392.3427C610.1959,-384.2688 593.4906,-371.5805 584,-356 540.5302,-284.6368 537.6347,-238.8099 582,-168 600.5219,-138.4378 605.9778,-127.9565 637,-112 641.9501,-109.4539 773.97,-89.3487 859.0882,-76.5746"/>
<polygon fill="#191970" stroke="#191970" points="859.8538,-79.9991 869.2243,-75.0549 858.8158,-73.0764 859.8538,-79.9991"/>
</g>
<!-- Node12 -->
<g id="node13" class="node">
<title>Node12</title>
<polygon fill="none" stroke="#bfbfbf" points="646,-112.5 646,-131.5 690,-131.5 690,-112.5 646,-112.5"/>
<text text-anchor="middle" x="668" y="-119.5" font-family="FreeSans.ttf" font-size="10.00" fill="#000000">string</text>
</g>
<!-- Node1&#45;&gt;Node12 -->
<g id="edge12" class="edge">
<title>Node1&#45;&gt;Node12</title>
<path fill="none" stroke="#191970" d="M629.7173,-392.2781C611.626,-374.067 576,-332.7748 576,-290 576,-290 576,-290 576,-234 576,-202.7875 580.8038,-192.6116 600,-168 610.1848,-154.942 625.1318,-144.2615 638.4203,-136.4903"/>
<polygon fill="#191970" stroke="#191970" points="640.2268,-139.4907 647.2762,-131.5815 636.8331,-133.3684 640.2268,-139.4907"/>
</g>
<!-- Node2&#45;&gt;Node3 -->
<g id="edge3" class="edge">
<title>Node2&#45;&gt;Node3</title>
<path fill="none" stroke="#191970" d="M975.0974,-56.466C1013.9817,-48.0804 1071.846,-35.2097 1130.8132,-20.2132"/>
<polygon fill="#191970" stroke="#191970" points="1131.8495,-23.5608 1140.6685,-17.6893 1130.1128,-16.7797 1131.8495,-23.5608"/>
</g>
<!-- Node2&#45;&gt;Node4 -->
<g id="edge4" class="edge">
<title>Node2&#45;&gt;Node4</title>
<path fill="none" stroke="#191970" d="M869.4518,-56.9484C866.5971,-56.6086 863.7688,-56.29 861,-56 608.7529,-29.5802 304.3232,-15.9253 194.2652,-11.5739"/>
<polygon fill="#191970" stroke="#191970" points="194.3586,-8.075 184.2295,-11.1817 194.0852,-15.0696 194.3586,-8.075"/>
</g>
<!-- Node5 -->
<g id="node6" class="node">
<title>Node5</title>
<polygon fill="none" stroke="#bfbfbf" points="776,-.5 776,-19.5 818,-19.5 818,-.5 776,-.5"/>
<text text-anchor="middle" x="797" y="-7.5" font-family="FreeSans.ttf" font-size="10.00" fill="#000000">array</text>
</g>
<!-- Node2&#45;&gt;Node5 -->
<g id="edge5" class="edge">
<title>Node2&#45;&gt;Node5</title>
<path fill="none" stroke="#191970" d="M907.1365,-56.3733C885.2034,-47.1383 851.9316,-33.1291 827.6976,-22.9253"/>
<polygon fill="#191970" stroke="#191970" points="828.8235,-19.6018 818.2489,-18.9469 826.1071,-26.0533 828.8235,-19.6018"/>
</g>
<!-- Node6 -->
<g id="node7" class="node">
<title>Node6</title>
<polygon fill="none" stroke="#bfbfbf" points="429.5,-.5 429.5,-19.5 482.5,-19.5 482.5,-.5 429.5,-.5"/>
<text text-anchor="middle" x="456" y="-7.5" font-family="FreeSans.ttf" font-size="10.00" fill="#000000">cstddef</text>
</g>
<!-- Node2&#45;&gt;Node6 -->
<g id="edge6" class="edge">
<title>Node2&#45;&gt;Node6</title>
<path fill="none" stroke="#191970" d="M869.4324,-57.1143C866.5829,-56.7302 863.761,-56.3568 861,-56 725.4889,-38.4889 563.9947,-21.2242 492.8042,-13.7962"/>
<polygon fill="#191970" stroke="#191970" points="492.8788,-10.2851 482.5702,-12.7313 492.1542,-17.2475 492.8788,-10.2851"/>
</g>
<!-- Node7 -->
<g id="node8" class="node">
<title>Node7</title>
<polygon fill="none" stroke="#bfbfbf" points="836.5,-.5 836.5,-19.5 889.5,-19.5 889.5,-.5 836.5,-.5"/>
<text text-anchor="middle" x="863" y="-7.5" font-family="FreeSans.ttf" font-size="10.00" fill="#000000">iterator</text>
</g>
<!-- Node2&#45;&gt;Node7 -->
<g id="edge7" class="edge">
<title>Node2&#45;&gt;Node7</title>
<path fill="none" stroke="#191970" d="M918.3295,-56.2455C908.4339,-47.9746 894.0373,-35.9416 882.4099,-26.2232"/>
<polygon fill="#191970" stroke="#191970" points="884.4542,-23.3703 874.5368,-19.6427 879.965,-28.7413 884.4542,-23.3703"/>
</g>
<!-- Node8 -->
<g id="node9" class="node">
<title>Node8</title>
<polygon fill="none" stroke="#bfbfbf" points="908,-.5 908,-19.5 952,-19.5 952,-.5 908,-.5"/>
<text text-anchor="middle" x="930" y="-7.5" font-family="FreeSans.ttf" font-size="10.00" fill="#000000">limits</text>
</g>
<!-- Node2&#45;&gt;Node8 -->
<g id="edge8" class="edge">
<title>Node2&#45;&gt;Node8</title>
<path fill="none" stroke="#191970" d="M930,-56.2455C930,-48.9382 930,-38.6944 930,-29.7046"/>
<polygon fill="#191970" stroke="#191970" points="933.5001,-29.6426 930,-19.6427 926.5001,-29.6427 933.5001,-29.6426"/>
</g>
<!-- Node9 -->
<g id="node10" class="node">
<title>Node9</title>
<polygon fill="none" stroke="#bfbfbf" points="970.5,-.5 970.5,-19.5 1035.5,-19.5 1035.5,-.5 970.5,-.5"/>
<text text-anchor="middle" x="1003" y="-7.5" font-family="FreeSans.ttf" font-size="10.00" fill="#000000">stdexcept</text>
</g>
<!-- Node2&#45;&gt;Node9 -->
<g id="edge9" class="edge">
<title>Node2&#45;&gt;Node9</title>
<path fill="none" stroke="#191970" d="M942.7156,-56.2455C953.602,-47.8943 969.4883,-35.7076 982.22,-25.9408"/>
<polygon fill="#191970" stroke="#191970" points="984.6261,-28.5063 990.4301,-19.6427 980.3654,-22.9523 984.6261,-28.5063"/>
</g>
<!-- Node10 -->
<g id="node11" class="node">
<title>Node10</title>
<polygon fill="none" stroke="#bfbfbf" points="1053.5,-.5 1053.5,-19.5 1122.5,-19.5 1122.5,-.5 1053.5,-.5"/>
<text text-anchor="middle" x="1088" y="-7.5" font-family="FreeSans.ttf" font-size="10.00" fill="#000000">type_traits</text>
</g>
<!-- Node2&#45;&gt;Node10 -->
<g id="edge10" class="edge">
<title>Node2&#45;&gt;Node10</title>
<path fill="none" stroke="#191970" d="M957.1612,-56.3733C983.2067,-47.1419 1022.7116,-33.1402 1051.4979,-22.9375"/>
<polygon fill="#191970" stroke="#191970" points="1052.937,-26.1408 1061.1933,-19.5011 1050.5985,-19.5429 1052.937,-26.1408"/>
</g>
<!-- Node11 -->
<g id="node12" class="node">
<title>Node11</title>
<polygon fill="none" stroke="#bfbfbf" points="712.5,-.5 712.5,-19.5 757.5,-19.5 757.5,-.5 712.5,-.5"/>
<text text-anchor="middle" x="735" y="-7.5" font-family="FreeSans.ttf" font-size="10.00" fill="#000000">utility</text>
</g>
<!-- Node2&#45;&gt;Node11 -->
<g id="edge11" class="edge">
<title>Node2&#45;&gt;Node11</title>
<path fill="none" stroke="#191970" d="M895.2601,-56.4976C864.2061,-47.9365 817.2304,-34.8226 767.3738,-20.055"/>
<polygon fill="#191970" stroke="#191970" points="768.2846,-16.6744 757.7018,-17.1799 766.29,-23.3842 768.2846,-16.6744"/>
</g>
<!-- Node13&#45;&gt;Node12 -->
<g id="edge14" class="edge">
<title>Node13&#45;&gt;Node12</title>
<path fill="none" stroke="#191970" d="M758.7417,-392.442C712.4459,-384.539 655.8496,-372.0258 638,-356 614.7748,-335.1478 614,-321.2125 614,-290 614,-290 614,-290 614,-234 614,-197.7347 637.2559,-160.8332 653.2443,-139.7487"/>
<polygon fill="#191970" stroke="#191970" points="656.1233,-141.75 659.5625,-131.7289 650.6247,-137.418 656.1233,-141.75"/>
</g>
<!-- Node14 -->
<g id="node15" class="node">
<title>Node14</title>
<g id="a_node15"><a xlink:href="MatrixView_8h.html" target="_top" xlink:title="iDynTree/Core/MatrixView.h">
<polygon fill="none" stroke="#000000" points="962.5,-112.5 962.5,-131.5 1113.5,-131.5 1113.5,-112.5 962.5,-112.5"/>
<text text-anchor="middle" x="1038" y="-119.5" font-family="FreeSans.ttf" font-size="10.00" fill="#000000">iDynTree/Core/MatrixView.h</text>
</a>
</g>
</g>
<!-- Node13&#45;&gt;Node14 -->
<g id="edge15" class="edge">
<title>Node13&#45;&gt;Node14</title>
<path fill="none" stroke="#191970" d="M771.8272,-392.463C733.9073,-384.4538 687.6534,-371.7939 676,-356 670.7225,-348.8474 673.3893,-344.4969 676,-336 714.8949,-209.4117 880.4145,-154.7741 973.5899,-133.6789"/>
<polygon fill="#191970" stroke="#191970" points="974.4623,-137.0708 983.4773,-131.5047 972.9589,-130.2341 974.4623,-137.0708"/>
</g>
<!-- Node14&#45;&gt;Node2 -->
<g id="edge18" class="edge">
<title>Node14&#45;&gt;Node2</title>
<path fill="none" stroke="#191970" d="M1019.1878,-112.2455C1002.1527,-103.4125 976.8425,-90.2887 957.5319,-80.2758"/>
<polygon fill="#191970" stroke="#191970" points="959.0853,-77.1388 948.5966,-75.6427 955.863,-83.353 959.0853,-77.1388"/>
</g>
<!-- Node14&#45;&gt;Node3 -->
<g id="edge16" class="edge">
<title>Node14&#45;&gt;Node3</title>
<path fill="none" stroke="#191970" d="M1048.9985,-112.4509C1071.0853,-93.2747 1121.0481,-49.8962 1148.3424,-26.1988"/>
<polygon fill="#191970" stroke="#191970" points="1150.7729,-28.7238 1156.0294,-19.5249 1146.1836,-23.438 1150.7729,-28.7238"/>
</g>
<!-- Node14&#45;&gt;Node10 -->
<g id="edge17" class="edge">
<title>Node14&#45;&gt;Node10</title>
<path fill="none" stroke="#191970" d="M1042.263,-112.4509C1050.5286,-93.936 1068.8665,-52.8591 1079.6434,-28.7187"/>
<polygon fill="#191970" stroke="#191970" points="1082.8672,-30.0831 1083.7478,-19.5249 1076.4753,-27.2295 1082.8672,-30.0831"/>
</g>
<!-- Node14&#45;&gt;Node15 -->
<g id="edge19" class="edge">
<title>Node14&#45;&gt;Node15</title>
<path fill="none" stroke="#191970" d="M995.9906,-112.4369C953.8896,-102.8529 888.9995,-88.0812 843.7479,-77.78"/>
<polygon fill="#191970" stroke="#191970" points="844.3636,-74.3307 833.8361,-75.5237 842.8098,-81.1561 844.3636,-74.3307"/>
</g>
<!-- Node15&#45;&gt;Node6 -->
<g id="edge20" class="edge">
<title>Node15&#45;&gt;Node6</title>
<path fill="none" stroke="#191970" d="M734.6213,-56.4369C665.3092,-44.8849 550.7745,-25.7958 492.4994,-16.0832"/>
<polygon fill="#191970" stroke="#191970" points="493.0724,-12.6305 482.633,-14.4388 491.9215,-19.5353 493.0724,-12.6305"/>
</g>
<!-- Node16 -->
<g id="node17" class="node">
<title>Node16</title>
<polygon fill="none" stroke="#bfbfbf" points="614,-.5 614,-19.5 694,-19.5 694,-.5 614,-.5"/>
<text text-anchor="middle" x="654" y="-7.5" font-family="FreeSans.ttf" font-size="10.00" fill="#000000">CoreExport.h</text>
</g>
<!-- Node15&#45;&gt;Node16 -->
<g id="edge21" class="edge">
<title>Node15&#45;&gt;Node16</title>
<path fill="none" stroke="#191970" d="M768.277,-56.3733C745.8263,-47.2629 711.9261,-33.5062 686.8745,-23.3404"/>
<polygon fill="#191970" stroke="#191970" points="687.9957,-20.0182 677.4135,-19.5011 685.3635,-26.5045 687.9957,-20.0182"/>
</g>
<!-- Node17&#45;&gt;Node12 -->
<g id="edge25" class="edge">
<title>Node17&#45;&gt;Node12</title>
<path fill="none" stroke="#191970" d="M321.6749,-453.9728C300.9417,-446.127 275.3136,-432.8434 261,-412 230.0085,-366.8706 244,-344.7461 244,-290 244,-290 244,-290 244,-234 244,-153.0111 536.831,-129.2818 635.7804,-123.5753"/>
<polygon fill="#191970" stroke="#191970" points="636.0093,-127.0681 645.8009,-123.0215 635.6229,-120.0788 636.0093,-127.0681"/>
</g>
<!-- Node18 -->
<g id="node19" class="node">
<title>Node18</title>
<polygon fill="none" stroke="#bfbfbf" points="443,-392.5 443,-411.5 501,-411.5 501,-392.5 443,-392.5"/>
<text text-anchor="middle" x="472" y="-399.5" font-family="FreeSans.ttf" font-size="10.00" fill="#000000">memory</text>
</g>
<!-- Node17&#45;&gt;Node18 -->
<g id="edge24" class="edge">
<title>Node17&#45;&gt;Node18</title>
<path fill="none" stroke="#191970" d="M372.4375,-453.8906C391.8347,-443.7811 422.569,-427.7628 444.7617,-416.1962"/>
<polygon fill="#191970" stroke="#191970" points="446.4418,-419.2675 453.692,-411.5419 443.2064,-413.06 446.4418,-419.2675"/>
</g>
<!-- Node17&#45;&gt;Node19 -->
<g id="edge26" class="edge">
<title>Node17&#45;&gt;Node19</title>
<path fill="none" stroke="#191970" d="M310.4875,-453.9414C283.8522,-446.2742 250.4909,-433.2019 227,-412 213.0542,-399.4132 203.685,-379.9413 198.1779,-365.4047"/>
<polygon fill="#191970" stroke="#191970" points="201.4454,-364.1451 194.8403,-355.8611 194.8378,-366.456 201.4454,-364.1451"/>
</g>
<!-- Node20 -->
<g id="node21" class="node">
<title>Node20</title>
<g id="a_node21"><a xlink:href="SparsityStructure_8h.html" target="_top" xlink:title="iDynTree/SparsityStructure.h">
<polygon fill="none" stroke="#000000" points="269.5,-392.5 269.5,-411.5 424.5,-411.5 424.5,-392.5 269.5,-392.5"/>
<text text-anchor="middle" x="347" y="-399.5" font-family="FreeSans.ttf" font-size="10.00" fill="#000000">iDynTree/SparsityStructure.h</text>
</a>
</g>
</g>
<!-- Node17&#45;&gt;Node20 -->
<g id="edge27" class="edge">
<title>Node17&#45;&gt;Node20</title>
<path fill="none" stroke="#191970" d="M352.9063,-453.8906C351.9359,-445.3657 350.4874,-432.6392 349.2677,-421.9235"/>
<polygon fill="#191970" stroke="#191970" points="352.7177,-421.2849 348.1092,-411.7449 345.7626,-422.0766 352.7177,-421.2849"/>
</g>
<!-- Node20&#45;&gt;Node6 -->
<g id="edge30" class="edge">
<title>Node20&#45;&gt;Node6</title>
<path fill="none" stroke="#191970" d="M322.1108,-392.4064C272.9265,-371.6353 168,-317.5346 168,-234 168,-234 168,-234 168,-122 168,-68.7126 341.4271,-30.6835 419.1221,-16.3202"/>
<polygon fill="#191970" stroke="#191970" points="420.2074,-19.6805 429.4219,-14.4514 418.9577,-12.793 420.2074,-19.6805"/>
</g>
<!-- Node20&#45;&gt;Node12 -->
<g id="edge32" class="edge">
<title>Node20&#45;&gt;Node12</title>
<path fill="none" stroke="#191970" d="M377.6687,-392.4292C397.0338,-385.0751 421.4342,-373.2249 438,-356 501.6917,-289.7743 455.2551,-228.964 524,-168 555.4017,-140.1525 603.7655,-129.1462 635.6449,-124.8071"/>
<polygon fill="#191970" stroke="#191970" points="636.2709,-128.2569 645.7758,-123.5765 635.4267,-121.308 636.2709,-128.2569"/>
</g>
<!-- Node20&#45;&gt;Node15 -->
<g id="edge28" class="edge">
<title>Node20&#45;&gt;Node15</title>
<path fill="none" stroke="#191970" d="M364.1383,-392.454C377.1599,-384.3582 394.5561,-371.5886 405,-356 421.99,-330.6407 424,-320.5246 424,-290 424,-290 424,-290 424,-178 424,-116.2968 615.7434,-85.3156 722.417,-72.8541"/>
<polygon fill="#191970" stroke="#191970" points="722.9276,-76.3187 732.4654,-71.7056 722.1326,-69.3639 722.9276,-76.3187"/>
</g>
<!-- Node20&#45;&gt;Node19 -->
<g id="edge29" class="edge">
<title>Node20&#45;&gt;Node19</title>
<path fill="none" stroke="#191970" d="M320.3546,-392.3733C294.0293,-382.8622 253.6879,-368.2872 225.2714,-358.0207"/>
<polygon fill="#191970" stroke="#191970" points="226.3544,-354.6905 215.7601,-354.5843 223.9758,-361.274 226.3544,-354.6905"/>
</g>
<!-- Node21 -->
<g id="node22" class="node">
<title>Node21</title>
<polygon fill="none" stroke="#bfbfbf" points="310,-336.5 310,-355.5 396,-355.5 396,-336.5 310,-336.5"/>
<text text-anchor="middle" x="353" y="-343.5" font-family="FreeSans.ttf" font-size="10.00" fill="#000000">unordered_set</text>
</g>
<!-- Node20&#45;&gt;Node21 -->
<g id="edge31" class="edge">
<title>Node20&#45;&gt;Node21</title>
<path fill="none" stroke="#191970" d="M348.0451,-392.2455C348.828,-384.9382 349.9256,-374.6944 350.8888,-365.7046"/>
<polygon fill="#191970" stroke="#191970" points="354.3815,-365.9587 351.9669,-355.6427 347.4214,-365.2129 354.3815,-365.9587"/>
</g>
<!-- Node22&#45;&gt;Node1 -->
<g id="edge36" class="edge">
<title>Node22&#45;&gt;Node1</title>
<path fill="none" stroke="#191970" d="M236.8492,-453.9881C246.6703,-451.8343 257.1863,-449.6877 267,-448 361.6185,-431.728 470.696,-418.9645 546.3518,-411.0522"/>
<polygon fill="#191970" stroke="#191970" points="546.7506,-414.5297 556.3357,-410.0159 546.0278,-407.5671 546.7506,-414.5297"/>
</g>
<!-- Node22&#45;&gt;Node6 -->
<g id="edge34" class="edge">
<title>Node22&#45;&gt;Node6</title>
<path fill="none" stroke="#191970" d="M174.2408,-453.8996C139.1901,-437.4104 76,-400.1713 76,-346 76,-346 76,-346 76,-122 76,-50.9009 323.8521,-21.5921 419.2181,-12.9465"/>
<polygon fill="#191970" stroke="#191970" points="419.6249,-16.4243 429.2791,-12.0602 419.0105,-9.4513 419.6249,-16.4243"/>
</g>
<!-- Node22&#45;&gt;Node12 -->
<g id="edge35" class="edge">
<title>Node22&#45;&gt;Node12</title>
<path fill="none" stroke="#191970" d="M190.4333,-453.9093C176.7269,-432.6771 147.3553,-380.0894 160,-336 185.5841,-246.7935 200.9017,-209.316 284,-168 345.5664,-137.3895 554.3956,-126.3156 635.4574,-123.1106"/>
<polygon fill="#191970" stroke="#191970" points="635.7187,-126.6033 645.5783,-122.7254 635.4524,-119.6084 635.7187,-126.6033"/>
</g>
<!-- Node22&#45;&gt;Node20 -->
<g id="edge37" class="edge">
<title>Node22&#45;&gt;Node20</title>
<path fill="none" stroke="#191970" d="M220.4375,-453.8906C245.6453,-443.5554 285.9153,-427.0447 314.2477,-415.4284"/>
<polygon fill="#191970" stroke="#191970" points="315.8023,-418.5739 323.7271,-411.5419 313.1468,-412.0971 315.8023,-418.5739"/>
</g>
<!-- Node23&#45;&gt;Node12 -->
<g id="edge75" class="edge">
<title>Node23&#45;&gt;Node12</title>
<path fill="none" stroke="#191970" d="M499.0556,-515.4339C504.8744,-464.2591 534.5091,-223.104 582,-168 596.2701,-151.4424 618.0171,-139.8865 636.0716,-132.4983"/>
<polygon fill="#191970" stroke="#191970" points="637.5719,-135.6714 645.651,-128.8172 635.061,-129.1372 637.5719,-135.6714"/>
</g>
<!-- Node23&#45;&gt;Node13 -->
<g id="edge40" class="edge">
<title>Node23&#45;&gt;Node13</title>
<path fill="none" stroke="#191970" d="M522.1282,-515.4471C559.4936,-500.7025 633.6583,-471.6323 697,-448 727.6642,-436.5594 762.6448,-424.0231 788.2793,-414.9311"/>
<polygon fill="#191970" stroke="#191970" points="789.7032,-418.1399 797.9617,-411.5031 787.3669,-411.5413 789.7032,-418.1399"/>
</g>
<!-- Node23&#45;&gt;Node18 -->
<g id="edge76" class="edge">
<title>Node23&#45;&gt;Node18</title>
<path fill="none" stroke="#191970" d="M495.9598,-515.3484C491.7071,-495.2295 481.821,-448.4608 476.1663,-421.7098"/>
<polygon fill="#191970" stroke="#191970" points="479.5232,-420.6667 474.0307,-411.6068 472.6746,-422.1144 479.5232,-420.6667"/>
</g>
<!-- Node23&#45;&gt;Node20 -->
<g id="edge74" class="edge">
<title>Node23&#45;&gt;Node20</title>
<path fill="none" stroke="#191970" d="M492.8779,-515.3171C484.0912,-499.4732 464.7738,-467.795 441,-448 424.3123,-434.1051 402.7174,-423.1579 384.4349,-415.4346"/>
<polygon fill="#191970" stroke="#191970" points="385.5284,-412.1012 374.9462,-411.5845 382.8964,-418.5876 385.5284,-412.1012"/>
</g>
<!-- Node23&#45;&gt;Node22 -->
<g id="edge39" class="edge">
<title>Node23&#45;&gt;Node22</title>
<path fill="none" stroke="#191970" d="M448.3703,-515.4349C401.5493,-506.3358 329.4259,-492.1255 267,-479 261.3036,-477.8023 255.3524,-476.5249 249.4296,-475.2369"/>
<polygon fill="#191970" stroke="#191970" points="250.056,-471.7913 239.5388,-473.0716 248.5589,-478.6293 250.056,-471.7913"/>
</g>
<!-- Node24 -->
<g id="node25" class="node">
<title>Node24</title>
<g id="a_node25"><a xlink:href="TimeVaryingObject_8h.html" target="_top" xlink:title="iDynTree/TimeVaryingObject.h">
<polygon fill="none" stroke="#000000" points="706,-454 706,-473 870,-473 870,-454 706,-454"/>
<text text-anchor="middle" x="788" y="-461" font-family="FreeSans.ttf" font-size="10.00" fill="#000000">iDynTree/TimeVaryingObject.h</text>
</a>
</g>
</g>
<!-- Node23&#45;&gt;Node24 -->
<g id="edge41" class="edge">
<title>Node23&#45;&gt;Node24</title>
<path fill="none" stroke="#191970" d="M542.9943,-515.4581C594.216,-504.5956 677.9001,-486.8488 732.9655,-475.1711"/>
<polygon fill="#191970" stroke="#191970" points="733.8438,-478.5628 742.9001,-473.0643 732.3916,-471.7151 733.8438,-478.5628"/>
</g>
<!-- Node24&#45;&gt;Node1 -->
<g id="edge42" class="edge">
<title>Node24&#45;&gt;Node1</title>
<path fill="none" stroke="#191970" d="M764.875,-453.8906C740.0033,-443.5554 700.2702,-427.0447 672.3156,-415.4284"/>
<polygon fill="#191970" stroke="#191970" points="673.5402,-412.1472 662.9626,-411.5419 670.854,-418.6113 673.5402,-412.1472"/>
</g>
<!-- Node24&#45;&gt;Node13 -->
<g id="edge43" class="edge">
<title>Node24&#45;&gt;Node13</title>
<path fill="none" stroke="#191970" d="M793.7813,-453.8906C799.126,-445.0068 807.2159,-431.5601 813.8211,-420.5811"/>
<polygon fill="#191970" stroke="#191970" points="816.9811,-422.118 819.1372,-411.7449 810.9829,-418.5093 816.9811,-422.118"/>
</g>
<!-- Node25 -->
<g id="node26" class="node">
<title>Node25</title>
<g id="a_node26"><a xlink:href="Transform_8h.html" target="_top" xlink:title="iDynTree/Core/Transform.h">
<polygon fill="none" stroke="#000000" points="964,-392.5 964,-411.5 1110,-411.5 1110,-392.5 964,-392.5"/>
<text text-anchor="middle" x="1037" y="-399.5" font-family="FreeSans.ttf" font-size="10.00" fill="#000000">iDynTree/Core/Transform.h</text>
</a>
</g>
</g>
<!-- Node24&#45;&gt;Node25 -->
<g id="edge44" class="edge">
<title>Node24&#45;&gt;Node25</title>
<path fill="none" stroke="#191970" d="M826.633,-453.9581C870.2481,-443.1857 941.2753,-425.6428 988.5641,-413.9631"/>
<polygon fill="#191970" stroke="#191970" points="989.4073,-417.3601 998.2763,-411.5643 987.7288,-410.5643 989.4073,-417.3601"/>
</g>
<!-- Node25&#45;&gt;Node12 -->
<g id="edge73" class="edge">
<title>Node25&#45;&gt;Node12</title>
<path fill="none" stroke="#191970" d="M989.1378,-392.4943C917.6187,-375.6762 783.8191,-333.631 714,-244 689.6443,-212.7331 677.0866,-167.1667 671.5817,-141.4869"/>
<polygon fill="#191970" stroke="#191970" points="674.9784,-140.6235 669.5857,-131.5037 668.1142,-141.9959 674.9784,-140.6235"/>
</g>
<!-- Node26 -->
<g id="node27" class="node">
<title>Node26</title>
<g id="a_node27"><a xlink:href="Position_8h.html" target="_top" xlink:title="iDynTree/Core/Position.h">
<polygon fill="none" stroke="#000000" points="962,-336.5 962,-355.5 1098,-355.5 1098,-336.5 962,-336.5"/>
<text text-anchor="middle" x="1030" y="-343.5" font-family="FreeSans.ttf" font-size="10.00" fill="#000000">iDynTree/Core/Position.h</text>
</a>
</g>
</g>
<!-- Node25&#45;&gt;Node26 -->
<g id="edge45" class="edge">
<title>Node25&#45;&gt;Node26</title>
<path fill="none" stroke="#191970" d="M1035.7807,-392.2455C1034.8673,-384.9382 1033.5868,-374.6944 1032.4631,-365.7046"/>
<polygon fill="#191970" stroke="#191970" points="1035.9187,-365.1313 1031.2053,-355.6427 1028.9728,-365.9996 1035.9187,-365.1313"/>
</g>
<!-- Node31 -->
<g id="node32" class="node">
<title>Node31</title>
<g id="a_node32"><a xlink:href="Rotation_8h.html" target="_top" xlink:title="iDynTree/Core/Rotation.h">
<polygon fill="none" stroke="#000000" points="1057.5,-280.5 1057.5,-299.5 1194.5,-299.5 1194.5,-280.5 1057.5,-280.5"/>
<text text-anchor="middle" x="1126" y="-287.5" font-family="FreeSans.ttf" font-size="10.00" fill="#000000">iDynTree/Core/Rotation.h</text>
</a>
</g>
</g>
<!-- Node25&#45;&gt;Node31 -->
<g id="edge71" class="edge">
<title>Node25&#45;&gt;Node31</title>
<path fill="none" stroke="#191970" d="M1059.3246,-392.4863C1074.8396,-384.7869 1094.8398,-372.509 1107,-356 1116.9321,-342.5159 1121.6851,-323.961 1123.9522,-309.9583"/>
<polygon fill="#191970" stroke="#191970" points="1127.4425,-310.2619 1125.2889,-299.8883 1120.5034,-309.3407 1127.4425,-310.2619"/>
</g>
<!-- Node34 -->
<g id="node35" class="node">
<title>Node34</title>
<g id="a_node35"><a xlink:href="MatrixFixSize_8h.html" target="_top" xlink:title="iDynTree/Core/MatrixFixSize.h">
<polygon fill="none" stroke="#000000" points="1034.5,-168.5 1034.5,-187.5 1195.5,-187.5 1195.5,-168.5 1034.5,-168.5"/>
<text text-anchor="middle" x="1115" y="-175.5" font-family="FreeSans.ttf" font-size="10.00" fill="#000000">iDynTree/Core/MatrixFixSize.h</text>
</a>
</g>
</g>
<!-- Node25&#45;&gt;Node34 -->
<g id="edge72" class="edge">
<title>Node25&#45;&gt;Node34</title>
<path fill="none" stroke="#191970" d="M1006.9738,-392.4977C934.1515,-367.9786 758.7088,-299.2121 823,-224 836.1109,-208.6619 943.3206,-194.8082 1024.0617,-186.4039"/>
<polygon fill="#191970" stroke="#191970" points="1024.6768,-189.8593 1034.2668,-185.3558 1023.9615,-182.8959 1024.6768,-189.8593"/>
</g>
<!-- Node26&#45;&gt;Node12 -->
<g id="edge70" class="edge">
<title>Node26&#45;&gt;Node12</title>
<path fill="none" stroke="#191970" d="M1006.8062,-336.4698C967.6192,-319.9577 886.3825,-283.9436 823,-244 770.4879,-210.907 714.6361,-163.5186 686.4967,-138.6661"/>
<polygon fill="#191970" stroke="#191970" points="688.4851,-135.7504 678.6879,-131.7175 683.8318,-140.9798 688.4851,-135.7504"/>
</g>
<!-- Node27 -->
<g id="node28" class="node">
<title>Node27</title>
<g id="a_node28"><a xlink:href="PositionRaw_8h.html" target="_top" xlink:title="iDynTree/Core/PositionRaw.h">
<polygon fill="none" stroke="#000000" points="832,-224.5 832,-243.5 988,-243.5 988,-224.5 832,-224.5"/>
<text text-anchor="middle" x="910" y="-231.5" font-family="FreeSans.ttf" font-size="10.00" fill="#000000">iDynTree/Core/PositionRaw.h</text>
</a>
</g>
</g>
<!-- Node26&#45;&gt;Node27 -->
<g id="edge46" class="edge">
<title>Node26&#45;&gt;Node27</title>
<path fill="none" stroke="#191970" d="M1019.7689,-336.4509C999.3115,-317.3574 953.1462,-274.2697 927.6854,-250.5063"/>
<polygon fill="#191970" stroke="#191970" points="929.9039,-247.7894 920.2052,-243.5249 925.1277,-252.9068 929.9039,-247.7894"/>
</g>
<!-- Node26&#45;&gt;Node31 -->
<g id="edge55" class="edge">
<title>Node26&#45;&gt;Node31</title>
<path fill="none" stroke="#191970" d="M1046.7219,-336.2455C1061.5889,-327.5731 1083.5466,-314.7645 1100.5858,-304.825"/>
<polygon fill="#191970" stroke="#191970" points="1102.5955,-307.7047 1109.4697,-299.6427 1099.0683,-301.6582 1102.5955,-307.7047"/>
</g>
<!-- Node27&#45;&gt;Node12 -->
<g id="edge54" class="edge">
<title>Node27&#45;&gt;Node12</title>
<path fill="none" stroke="#191970" d="M888.0028,-224.496C866.8944,-215.3229 834.1581,-200.9573 806,-188 768.0172,-170.5218 724.5591,-149.5794 696.7258,-136.0441"/>
<polygon fill="#191970" stroke="#191970" points="698.09,-132.8155 687.567,-131.5833 695.0248,-139.1088 698.09,-132.8155"/>
</g>
<!-- Node28 -->
<g id="node29" class="node">
<title>Node28</title>
<g id="a_node29"><a xlink:href="VectorFixSize_8h.html" target="_top" xlink:title="iDynTree/Core/VectorFixSize.h">
<polygon fill="none" stroke="#000000" points="1213.5,-168.5 1213.5,-187.5 1374.5,-187.5 1374.5,-168.5 1213.5,-168.5"/>
<text text-anchor="middle" x="1294" y="-175.5" font-family="FreeSans.ttf" font-size="10.00" fill="#000000">iDynTree/Core/VectorFixSize.h</text>
</a>
</g>
</g>
<!-- Node27&#45;&gt;Node28 -->
<g id="edge47" class="edge">
<title>Node27&#45;&gt;Node28</title>
<path fill="none" stroke="#191970" d="M975.5756,-224.4369C1042.951,-214.6113 1147.7159,-199.3331 1218.5055,-189.0096"/>
<polygon fill="#191970" stroke="#191970" points="1219.3046,-192.4302 1228.6948,-187.5237 1218.2944,-185.5035 1219.3046,-192.4302"/>
</g>
<!-- Node28&#45;&gt;Node2 -->
<g id="edge49" class="edge">
<title>Node28&#45;&gt;Node2</title>
<path fill="none" stroke="#191970" d="M1292.2237,-168.0596C1289.0121,-153.2361 1280.7472,-125.6262 1262,-112 1221.5182,-82.5764 1085.5525,-71.9255 1000.6911,-68.1039"/>
<polygon fill="#191970" stroke="#191970" points="1000.7463,-64.6031 990.6053,-67.6709 1000.446,-71.5967 1000.7463,-64.6031"/>
</g>
<!-- Node28&#45;&gt;Node3 -->
<g id="edge52" class="edge">
<title>Node28&#45;&gt;Node3</title>
<path fill="none" stroke="#191970" d="M1327.9333,-168.4864C1359.6092,-157.7608 1399.6801,-138.3231 1383,-112 1343.3147,-49.3721 1253.7113,-24.4715 1203.2681,-15.148"/>
<polygon fill="#191970" stroke="#191970" points="1203.5821,-11.6502 1193.1305,-13.3869 1202.3839,-18.5469 1203.5821,-11.6502"/>
</g>
<!-- Node28&#45;&gt;Node12 -->
<g id="edge50" class="edge">
<title>Node28&#45;&gt;Node12</title>
<path fill="none" stroke="#191970" d="M1213.4799,-168.8563C1210.6186,-168.5621 1207.7851,-168.2757 1205,-168 1013.6546,-149.0582 783.4886,-130.8863 700.1158,-124.4532"/>
<polygon fill="#191970" stroke="#191970" points="700.2533,-120.9535 690.0142,-123.6758 699.7162,-127.9329 700.2533,-120.9535"/>
</g>
<!-- Node28&#45;&gt;Node15 -->
<g id="edge48" class="edge">
<title>Node28&#45;&gt;Node15</title>
<path fill="none" stroke="#191970" d="M1287.8048,-168.299C1277.6012,-153.2648 1255.706,-124.7451 1229,-112 1157.4509,-77.854 957.3249,-85.2976 861.8275,-75.9355"/>
<polygon fill="#191970" stroke="#191970" points="862.1374,-72.4486 851.8165,-74.8424 861.3774,-79.4073 862.1374,-72.4486"/>
</g>
<!-- Node28&#45;&gt;Node29 -->
<g id="edge51" class="edge">
<title>Node28&#45;&gt;Node29</title>
<path fill="none" stroke="#191970" d="M1329.4127,-168.3733C1366.3204,-158.3401 1423.9572,-142.6718 1461.8516,-132.3704"/>
<polygon fill="#191970" stroke="#191970" points="1463.2509,-135.6171 1471.9826,-129.6164 1461.4146,-128.8623 1463.2509,-135.6171"/>
</g>
<!-- Node30 -->
<g id="node31" class="node">
<title>Node30</title>
<polygon fill="none" stroke="#bfbfbf" points="1170,-112.5 1170,-131.5 1220,-131.5 1220,-112.5 1170,-112.5"/>
<text text-anchor="middle" x="1195" y="-119.5" font-family="FreeSans.ttf" font-size="10.00" fill="#000000">cstring</text>
</g>
<!-- Node28&#45;&gt;Node30 -->
<g id="edge53" class="edge">
<title>Node28&#45;&gt;Node30</title>
<path fill="none" stroke="#191970" d="M1276.7555,-168.2455C1261.4239,-159.5731 1238.7801,-146.7645 1221.2084,-136.825"/>
<polygon fill="#191970" stroke="#191970" points="1222.4741,-133.5198 1212.0469,-131.6427 1219.0276,-139.6126 1222.4741,-133.5198"/>
</g>
<!-- Node31&#45;&gt;Node12 -->
<g id="edge56" class="edge">
<title>Node31&#45;&gt;Node12</title>
<path fill="none" stroke="#191970" d="M1106.78,-280.3993C1088.3302,-271.1562 1059.6999,-256.7417 1035,-244 1018.0386,-235.2503 1014.7631,-230.9799 997,-224 940.0041,-201.6037 922.6004,-205.7795 864,-188 805.6508,-170.2967 738.4633,-147.0368 699.8413,-133.3832"/>
<polygon fill="#191970" stroke="#191970" points="700.793,-130.0072 690.1983,-129.9638 698.4535,-136.6047 700.793,-130.0072"/>
</g>
<!-- Node31&#45;&gt;Node28 -->
<g id="edge69" class="edge">
<title>Node31&#45;&gt;Node28</title>
<path fill="none" stroke="#191970" d="M1146.1515,-280.3546C1163.7453,-271.641 1189.7213,-258.0606 1211,-244 1234.282,-228.6156 1259.0919,-208.3109 1275.458,-194.306"/>
<polygon fill="#191970" stroke="#191970" points="1277.9195,-196.8047 1283.194,-187.6161 1273.3406,-191.5099 1277.9195,-196.8047"/>
</g>
<!-- Node32 -->
<g id="node33" class="node">
<title>Node32</title>
<g id="a_node33"><a xlink:href="GeomVector3_8h.html" target="_top" xlink:title="iDynTree/Core/GeomVector3.h">
<polygon fill="none" stroke="#000000" points="1334.5,-224.5 1334.5,-243.5 1497.5,-243.5 1497.5,-224.5 1334.5,-224.5"/>
<text text-anchor="middle" x="1416" y="-231.5" font-family="FreeSans.ttf" font-size="10.00" fill="#000000">iDynTree/Core/GeomVector3.h</text>
</a>
</g>
</g>
<!-- Node31&#45;&gt;Node32 -->
<g id="edge57" class="edge">
<title>Node31&#45;&gt;Node32</title>
<path fill="none" stroke="#191970" d="M1175.5233,-280.4369C1225.6759,-270.7522 1303.261,-255.7703 1356.6697,-245.4569"/>
<polygon fill="#191970" stroke="#191970" points="1357.526,-248.8563 1366.681,-243.5237 1356.1987,-241.9832 1357.526,-248.8563"/>
</g>
<!-- Node33 -->
<g id="node34" class="node">
<title>Node33</title>
<g id="a_node34"><a xlink:href="RotationRaw_8h.html" target="_top" xlink:title="iDynTree/Core/RotationRaw.h">
<polygon fill="none" stroke="#000000" points="1044,-224.5 1044,-243.5 1202,-243.5 1202,-224.5 1044,-224.5"/>
<text text-anchor="middle" x="1123" y="-231.5" font-family="FreeSans.ttf" font-size="10.00" fill="#000000">iDynTree/Core/RotationRaw.h</text>
</a>
</g>
</g>
<!-- Node31&#45;&gt;Node33 -->
<g id="edge59" class="edge">
<title>Node31&#45;&gt;Node33</title>
<path fill="none" stroke="#191970" d="M1125.4774,-280.2455C1125.086,-272.9382 1124.5372,-262.6944 1124.0556,-253.7046"/>
<polygon fill="#191970" stroke="#191970" points="1127.5466,-253.4411 1123.5166,-243.6427 1120.5566,-253.8156 1127.5466,-253.4411"/>
</g>
<!-- Node32&#45;&gt;Node28 -->
<g id="edge58" class="edge">
<title>Node32&#45;&gt;Node28</title>
<path fill="none" stroke="#191970" d="M1395.0275,-224.3733C1375.4433,-215.3838 1346.0039,-201.8706 1323.949,-191.7471"/>
<polygon fill="#191970" stroke="#191970" points="1325.2473,-188.4919 1314.6989,-187.5011 1322.3271,-194.8538 1325.2473,-188.4919"/>
</g>
<!-- Node33&#45;&gt;Node12 -->
<g id="edge68" class="edge">
<title>Node33&#45;&gt;Node12</title>
<path fill="none" stroke="#191970" d="M1084.207,-224.4509C996.0767,-202.7573 782.1154,-150.0899 700.4304,-129.9829"/>
<polygon fill="#191970" stroke="#191970" points="700.7979,-126.4689 690.2512,-127.4772 699.1248,-133.266 700.7979,-126.4689"/>
</g>
<!-- Node33&#45;&gt;Node34 -->
<g id="edge60" class="edge">
<title>Node33&#45;&gt;Node34</title>
<path fill="none" stroke="#191970" d="M1121.6065,-224.2455C1120.5626,-216.9382 1119.0992,-206.6944 1117.8149,-197.7046"/>
<polygon fill="#191970" stroke="#191970" points="1121.2566,-197.0472 1116.3775,-187.6427 1114.327,-198.0372 1121.2566,-197.0472"/>
</g>
<!-- Node34&#45;&gt;Node3 -->
<g id="edge63" class="edge">
<title>Node34&#45;&gt;Node3</title>
<path fill="none" stroke="#191970" d="M1117.9447,-168.4862C1126.2003,-141.8144 1149.694,-65.9117 1160.9039,-29.695"/>
<polygon fill="#191970" stroke="#191970" points="1164.3446,-30.4157 1163.958,-19.8279 1157.6576,-28.3458 1164.3446,-30.4157"/>
</g>
<!-- Node34&#45;&gt;Node12 -->
<g id="edge65" class="edge">
<title>Node34&#45;&gt;Node12</title>
<path fill="none" stroke="#191970" d="M1038.9194,-168.4686C939.8325,-156.0551 770.9647,-134.8994 700.443,-126.0644"/>
<polygon fill="#191970" stroke="#191970" points="700.7401,-122.5744 690.3826,-124.8041 699.8699,-129.5201 700.7401,-122.5744"/>
</g>
<!-- Node34&#45;&gt;Node14 -->
<g id="edge62" class="edge">
<title>Node34&#45;&gt;Node14</title>
<path fill="none" stroke="#191970" d="M1101.5876,-168.2455C1089.9943,-159.814 1073.0252,-147.4729 1059.5322,-137.6598"/>
<polygon fill="#191970" stroke="#191970" points="1061.4047,-134.6938 1051.2587,-131.6427 1057.2874,-140.355 1061.4047,-134.6938"/>
</g>
<!-- Node34&#45;&gt;Node15 -->
<g id="edge61" class="edge">
<title>Node34&#45;&gt;Node15</title>
<path fill="none" stroke="#191970" d="M1075.4379,-168.4459C1042.5224,-160.0823 994.6514,-146.9525 954,-132 933.8396,-124.5845 929.7922,-120.3486 910,-112 882.5236,-100.4101 851.041,-88.1896 827.509,-79.2596"/>
<polygon fill="#191970" stroke="#191970" points="828.5371,-75.9066 817.9454,-75.6454 826.0624,-82.4546 828.5371,-75.9066"/>
</g>
<!-- Node34&#45;&gt;Node29 -->
<g id="edge67" class="edge">
<title>Node34&#45;&gt;Node29</title>
<path fill="none" stroke="#191970" d="M1180.7464,-168.4369C1261.6791,-156.6649 1396.422,-137.0659 1461.9221,-127.5386"/>
<polygon fill="#191970" stroke="#191970" points="1462.429,-131.0018 1471.8211,-126.0988 1461.4214,-124.0747 1462.429,-131.0018"/>
</g>
<!-- Node34&#45;&gt;Node30 -->
<g id="edge64" class="edge">
<title>Node34&#45;&gt;Node30</title>
<path fill="none" stroke="#191970" d="M1128.9349,-168.2455C1141.0947,-159.7337 1158.9464,-147.2375 1173.0285,-137.3801"/>
<polygon fill="#191970" stroke="#191970" points="1175.0395,-140.2447 1181.2248,-131.6427 1171.0253,-134.51 1175.0395,-140.2447"/>
</g>
<!-- Node35 -->
<g id="node36" class="node">
<title>Node35</title>
<polygon fill="none" stroke="#bfbfbf" points="1314,-112.5 1314,-131.5 1374,-131.5 1374,-112.5 1314,-112.5"/>
<text text-anchor="middle" x="1344" y="-119.5" font-family="FreeSans.ttf" font-size="10.00" fill="#000000">iostream</text>
</g>
<!-- Node34&#45;&gt;Node35 -->
<g id="edge66" class="edge">
<title>Node34&#45;&gt;Node35</title>
<path fill="none" stroke="#191970" d="M1154.1063,-168.4369C1195.8832,-158.2207 1261.7655,-142.1097 1303.9145,-131.8026"/>
<polygon fill="#191970" stroke="#191970" points="1304.9472,-135.1532 1313.8295,-129.3779 1303.2843,-128.3536 1304.9472,-135.1532"/>
</g>
<!-- Node37&#45;&gt;Node1 -->
<g id="edge80" class="edge">
<title>Node37&#45;&gt;Node1</title>
<path fill="none" stroke="#191970" d="M1031.4656,-519.5449C918.9589,-511.3987 725.2766,-495.2643 697,-479 673.887,-465.7057 657.369,-438.866 648.25,-420.6591"/>
<polygon fill="#191970" stroke="#191970" points="651.3914,-419.1149 643.9501,-411.5732 645.0641,-422.1093 651.3914,-419.1149"/>
</g>
<!-- Node37&#45;&gt;Node13 -->
<g id="edge82" class="edge">
<title>Node37&#45;&gt;Node13</title>
<path fill="none" stroke="#191970" d="M1069.2247,-515.4631C1038.1061,-507.7176 995.4016,-495.3928 960,-479 936.9551,-468.329 933.9127,-460.8363 912,-448 892.7198,-436.7059 870.4333,-424.9461 853.2439,-416.144"/>
<polygon fill="#191970" stroke="#191970" points="854.7702,-412.9936 844.2701,-411.58 851.5968,-419.233 854.7702,-412.9936"/>
</g>
<!-- Node37&#45;&gt;Node15 -->
<g id="edge99" class="edge">
<title>Node37&#45;&gt;Node15</title>
<path fill="none" stroke="#191970" d="M1097.5687,-515.3383C1039.7547,-476.4857 827.2123,-332.1953 811,-300 774.7294,-227.9719 783.1753,-127.5018 788.8824,-85.5811"/>
<polygon fill="#191970" stroke="#191970" points="792.3589,-85.9962 790.3465,-75.5942 785.4329,-84.9807 792.3589,-85.9962"/>
</g>
<!-- Node37&#45;&gt;Node25 -->
<g id="edge98" class="edge">
<title>Node37&#45;&gt;Node25</title>
<path fill="none" stroke="#191970" d="M1106.1149,-515.3484C1093.6282,-494.8703 1064.3061,-446.782 1048.1562,-420.2962"/>
<polygon fill="#191970" stroke="#191970" points="1051.0522,-418.3226 1042.8578,-411.6068 1045.0756,-421.9669 1051.0522,-418.3226"/>
</g>
<!-- Node37&#45;&gt;Node28 -->
<g id="edge81" class="edge">
<title>Node37&#45;&gt;Node28</title>
<path fill="none" stroke="#191970" d="M1117.0577,-515.3571C1141.8531,-468.0823 1250.7227,-260.5122 1284.1823,-196.7183"/>
<polygon fill="#191970" stroke="#191970" points="1287.3352,-198.2423 1288.8805,-187.7608 1281.1361,-194.9909 1287.3352,-198.2423"/>
</g>
<!-- Node37&#45;&gt;Node34 -->
<g id="edge83" class="edge">
<title>Node37&#45;&gt;Node34</title>
<path fill="none" stroke="#191970" d="M1192.6409,-521.3842C1310.5917,-515.3601 1519.0451,-501.6431 1545,-479 1571.5615,-455.8277 1564,-437.2487 1564,-402 1564,-402 1564,-402 1564,-290 1564,-251.2415 1541.2411,-242.1595 1507,-224 1503.6808,-222.2397 1320.7767,-201.2847 1206.0108,-188.2727"/>
<polygon fill="#191970" stroke="#191970" points="1206.1431,-184.7654 1195.8126,-187.1171 1205.3548,-191.7209 1206.1431,-184.7654"/>
</g>
<!-- Node37&#45;&gt;Node38 -->
<g id="edge79" class="edge">
<title>Node37&#45;&gt;Node38</title>
<path fill="none" stroke="#191970" d="M1192.5353,-521.0378C1285.8712,-515.5267 1444.0235,-503.3473 1578,-479 1583.1867,-478.0574 1588.5879,-476.8823 1593.9164,-475.6032"/>
<polygon fill="#191970" stroke="#191970" points="1595.1639,-478.8979 1603.9982,-473.0494 1593.4449,-472.1122 1595.1639,-478.8979"/>
</g>
<!-- Node39 -->
<g id="node40" class="node">
<title>Node39</title>
<g id="a_node40"><a xlink:href="SpatialMotionVector_8h.html" target="_top" xlink:title="iDynTree/Core/SpatialMotion\lVector.h">
<polygon fill="none" stroke="#000000" points="1380.5,-448.5 1380.5,-478.5 1535.5,-478.5 1535.5,-448.5 1380.5,-448.5"/>
<text text-anchor="start" x="1388.5" y="-466.5" font-family="FreeSans.ttf" font-size="10.00" fill="#000000">iDynTree/Core/SpatialMotion</text>
<text text-anchor="middle" x="1458" y="-455.5" font-family="FreeSans.ttf" font-size="10.00" fill="#000000">Vector.h</text>
</a>
</g>
</g>
<!-- Node37&#45;&gt;Node39 -->
<g id="edge84" class="edge">
<title>Node37&#45;&gt;Node39</title>
<path fill="none" stroke="#191970" d="M1165.5738,-515.4936C1215.802,-506.5789 1293.2809,-492.8227 1370.3305,-479.1186"/>
<polygon fill="#191970" stroke="#191970" points="1370.9797,-482.5581 1380.2122,-477.3609 1369.7538,-475.6663 1370.9797,-482.5581"/>
</g>
<!-- Node41 -->
<g id="node42" class="node">
<title>Node41</title>
<g id="a_node42"><a xlink:href="SpatialForceVector_8h.html" target="_top" xlink:title="iDynTree/Core/SpatialForce\lVector.h">
<polygon fill="none" stroke="#000000" points="1214,-448.5 1214,-478.5 1362,-478.5 1362,-448.5 1214,-448.5"/>
<text text-anchor="start" x="1222" y="-466.5" font-family="FreeSans.ttf" font-size="10.00" fill="#000000">iDynTree/Core/SpatialForce</text>
<text text-anchor="middle" x="1288" y="-455.5" font-family="FreeSans.ttf" font-size="10.00" fill="#000000">Vector.h</text>
</a>
</g>
</g>
<!-- Node37&#45;&gt;Node41 -->
<g id="edge94" class="edge">
<title>Node37&#45;&gt;Node41</title>
<path fill="none" stroke="#191970" d="M1139.5,-515.3906C1165.0839,-506.4508 1203.8906,-492.8905 1235.4177,-481.8739"/>
<polygon fill="#191970" stroke="#191970" points="1236.6599,-485.1475 1244.9456,-478.5446 1234.3507,-478.5393 1236.6599,-485.1475"/>
</g>
<!-- Node39&#45;&gt;Node28 -->
<g id="edge85" class="edge">
<title>Node39&#45;&gt;Node28</title>
<path fill="none" stroke="#191970" d="M1535.5638,-454.0402C1598.9031,-441.4701 1678,-412.4665 1678,-346 1678,-346 1678,-346 1678,-290 1678,-229.2468 1498.6197,-199.2208 1385.0625,-186.2995"/>
<polygon fill="#191970" stroke="#191970" points="1385.2931,-182.8036 1374.9673,-185.1759 1384.5188,-189.7607 1385.2931,-182.8036"/>
</g>
<!-- Node39&#45;&gt;Node32 -->
<g id="edge86" class="edge">
<title>Node39&#45;&gt;Node32</title>
<path fill="none" stroke="#191970" d="M1478.6091,-448.3171C1489.268,-439.1407 1501.2283,-426.4393 1507,-412 1510.2992,-403.7461 1509.2961,-400.5872 1507,-392 1492.0221,-335.9838 1451.8879,-279.2368 1430.2661,-251.4841"/>
<polygon fill="#191970" stroke="#191970" points="1432.9107,-249.1861 1423.9519,-243.53 1427.4281,-253.5384 1432.9107,-249.1861"/>
</g>
<!-- Node40 -->
<g id="node41" class="node">
<title>Node40</title>
<g id="a_node41"><a xlink:href="SpatialVector_8h.html" target="_top" xlink:title="iDynTree/Core/SpatialVector.h">
<polygon fill="none" stroke="#000000" points="1336.5,-392.5 1336.5,-411.5 1497.5,-411.5 1497.5,-392.5 1336.5,-392.5"/>
<text text-anchor="middle" x="1417" y="-399.5" font-family="FreeSans.ttf" font-size="10.00" fill="#000000">iDynTree/Core/SpatialVector.h</text>
</a>
</g>
</g>
<!-- Node39&#45;&gt;Node40 -->
<g id="edge87" class="edge">
<title>Node39&#45;&gt;Node40</title>
<path fill="none" stroke="#191970" d="M1447.8652,-448.2977C1442.2332,-439.8498 1435.1849,-429.2773 1429.246,-420.369"/>
<polygon fill="#191970" stroke="#191970" points="1432.0238,-418.226 1423.5646,-411.8469 1426.1995,-422.1089 1432.0238,-418.226"/>
</g>
<!-- Node40&#45;&gt;Node15 -->
<g id="edge90" class="edge">
<title>Node40&#45;&gt;Node15</title>
<path fill="none" stroke="#191970" d="M1497.5081,-394.17C1561.3838,-382.9894 1640,-355.8523 1640,-290 1640,-290 1640,-290 1640,-178 1640,-123.6304 1588.7525,-128.6653 1537,-112 1396.7428,-66.8344 1026.3172,-89.8116 861.8539,-75.9267"/>
<polygon fill="#191970" stroke="#191970" points="862.0763,-72.4325 851.7986,-75.0051 861.4374,-79.4033 862.0763,-72.4325"/>
</g>
<!-- Node40&#45;&gt;Node26 -->
<g id="edge88" class="edge">
<title>Node40&#45;&gt;Node26</title>
<path fill="none" stroke="#191970" d="M1350.9121,-392.4369C1283.0103,-382.6113 1177.4269,-367.3331 1106.0843,-357.0096"/>
<polygon fill="#191970" stroke="#191970" points="1106.2136,-353.4919 1095.8154,-355.5237 1105.211,-360.4198 1106.2136,-353.4919"/>
</g>
<!-- Node40&#45;&gt;Node29 -->
<g id="edge93" class="edge">
<title>Node40&#45;&gt;Node29</title>
<path fill="none" stroke="#191970" d="M1437.7586,-392.3851C1469.384,-376.1375 1526,-340.06 1526,-290 1526,-290 1526,-290 1526,-234 1526,-200.7204 1514.9729,-163.2857 1507.2813,-141.2224"/>
<polygon fill="#191970" stroke="#191970" points="1510.5329,-139.9219 1503.8364,-131.7117 1503.9513,-142.3059 1510.5329,-139.9219"/>
</g>
<!-- Node40&#45;&gt;Node31 -->
<g id="edge89" class="edge">
<title>Node40&#45;&gt;Node31</title>
<path fill="none" stroke="#191970" d="M1392.1895,-392.4509C1340.218,-372.4482 1219.8261,-326.1117 1160.4204,-303.2477"/>
<polygon fill="#191970" stroke="#191970" points="1161.3375,-299.8505 1150.7477,-299.5249 1158.8231,-306.3833 1161.3375,-299.8505"/>
</g>
<!-- Node40&#45;&gt;Node32 -->
<g id="edge91" class="edge">
<title>Node40&#45;&gt;Node32</title>
<path fill="none" stroke="#191970" d="M1416.9434,-392.4862C1416.7853,-365.9293 1416.3367,-290.5651 1416.12,-254.1655"/>
<polygon fill="#191970" stroke="#191970" points="1419.6181,-253.8068 1416.0585,-243.8279 1412.6182,-253.8486 1419.6181,-253.8068"/>
</g>
<!-- Node40&#45;&gt;Node35 -->
<g id="edge92" class="edge">
<title>Node40&#45;&gt;Node35</title>
<path fill="none" stroke="#191970" d="M1471.8491,-392.4642C1495.5368,-385.8214 1521.907,-374.6587 1540,-356 1582.4989,-312.1724 1611.4496,-275.0699 1578,-224 1534.8863,-158.1752 1439.0116,-134.5925 1384.3039,-126.3206"/>
<polygon fill="#191970" stroke="#191970" points="1384.6553,-122.8356 1374.2645,-124.9048 1383.6777,-129.767 1384.6553,-122.8356"/>
</g>
<!-- Node41&#45;&gt;Node28 -->
<g id="edge95" class="edge">
<title>Node41&#45;&gt;Node28</title>
<path fill="none" stroke="#191970" d="M1288.3226,-448.1503C1289.334,-400.0245 1292.443,-252.0884 1293.5789,-198.0393"/>
<polygon fill="#191970" stroke="#191970" points="1297.0844,-197.806 1293.7954,-187.7347 1290.086,-197.6589 1297.0844,-197.806"/>
</g>
<!-- Node41&#45;&gt;Node32 -->
<g id="edge96" class="edge">
<title>Node41&#45;&gt;Node32</title>
<path fill="none" stroke="#191970" d="M1296.3984,-448.4419C1318.943,-408.0202 1380.7535,-297.1958 1405.5271,-252.7775"/>
<polygon fill="#191970" stroke="#191970" points="1408.6652,-254.3365 1410.4795,-243.8981 1402.5517,-250.9268 1408.6652,-254.3365"/>
</g>
<!-- Node41&#45;&gt;Node40 -->
<g id="edge97" class="edge">
<title>Node41&#45;&gt;Node40</title>
<path fill="none" stroke="#191970" d="M1319.557,-448.4554C1340.4201,-438.509 1367.5691,-425.5659 1387.9098,-415.8686"/>
<polygon fill="#191970" stroke="#191970" points="1389.4891,-418.9931 1397.0096,-411.5303 1386.4767,-412.6744 1389.4891,-418.9931"/>
</g>
</g>
</svg>
