<?xml version="1.0" encoding="UTF-8" standalone="no"?>
<!DOCTYPE svg PUBLIC "-//W3C//DTD SVG 1.1//EN"
 "http://www.w3.org/Graphics/SVG/1.1/DTD/svg11.dtd">
<!-- Generated by graphviz version 2.40.1 (20161225.0304)
 -->
<!-- Title: ControlledDynamicalSystem.h Pages: 1 -->
<svg width="864pt" height="252pt"
 viewBox="0.00 0.00 863.50 252.00" xmlns="http://www.w3.org/2000/svg" xmlns:xlink="http://www.w3.org/1999/xlink">
<g id="graph0" class="graph" transform="scale(1 1) rotate(0) translate(4 248)">
<title>ControlledDynamicalSystem.h</title>
<!-- Node0 -->
<g id="node1" class="node">
<title>Node0</title>
<polygon fill="#bfbfbf" stroke="#000000" points="672.5,-224.5 672.5,-243.5 837.5,-243.5 837.5,-224.5 672.5,-224.5"/>
<text text-anchor="middle" x="755" y="-231.5" font-family="FreeSans.ttf" font-size="10.00" fill="#000000">ControlledDynamicalSystem.h</text>
</g>
<!-- Node1 -->
<g id="node2" class="node">
<title>Node1</title>
<g id="a_node2"><a xlink:href="DynamicalSystem_8h.html" target="_top" xlink:title="iDynTree/DynamicalSystem.h">
<polygon fill="none" stroke="#000000" points="542.5,-168.5 542.5,-187.5 703.5,-187.5 703.5,-168.5 542.5,-168.5"/>
<text text-anchor="middle" x="623" y="-175.5" font-family="FreeSans.ttf" font-size="10.00" fill="#000000">iDynTree/DynamicalSystem.h</text>
</a>
</g>
</g>
<!-- Node0&#45;&gt;Node1 -->
<g id="edge1" class="edge">
<title>Node0&#45;&gt;Node1</title>
<path fill="none" stroke="#191970" d="M732.3084,-224.3733C710.9289,-215.3032 678.6943,-201.6279 654.7638,-191.4755"/>
<polygon fill="#191970" stroke="#191970" points="655.9683,-188.1846 645.3955,-187.5011 653.2344,-194.6287 655.9683,-188.1846"/>
</g>
<!-- Node19 -->
<g id="node20" class="node">
<title>Node19</title>
<g id="a_node20"><a xlink:href="Controller_8h.html" target="_top" xlink:title="iDynTree/Controller.h">
<polygon fill="none" stroke="#000000" points="736.5,-112.5 736.5,-131.5 855.5,-131.5 855.5,-112.5 736.5,-112.5"/>
<text text-anchor="middle" x="796" y="-119.5" font-family="FreeSans.ttf" font-size="10.00" fill="#000000">iDynTree/Controller.h</text>
</a>
</g>
</g>
<!-- Node0&#45;&gt;Node19 -->
<g id="edge22" class="edge">
<title>Node0&#45;&gt;Node19</title>
<path fill="none" stroke="#191970" d="M757.2225,-224.4395C760.3598,-211.4557 766.5444,-187.6167 774,-168 777.488,-158.8225 782.0829,-148.9634 786.171,-140.7357"/>
<polygon fill="#191970" stroke="#191970" points="789.372,-142.1627 790.7977,-131.6643 783.1363,-138.9823 789.372,-142.1627"/>
</g>
<!-- Node20 -->
<g id="node21" class="node">
<title>Node20</title>
<polygon fill="none" stroke="#bfbfbf" points="783,-168.5 783,-187.5 841,-187.5 841,-168.5 783,-168.5"/>
<text text-anchor="middle" x="812" y="-175.5" font-family="FreeSans.ttf" font-size="10.00" fill="#000000">memory</text>
</g>
<!-- Node0&#45;&gt;Node20 -->
<g id="edge24" class="edge">
<title>Node0&#45;&gt;Node20</title>
<path fill="none" stroke="#191970" d="M764.9286,-224.2455C773.1838,-216.1352 785.1209,-204.4075 794.9082,-194.7919"/>
<polygon fill="#191970" stroke="#191970" points="797.5046,-197.1476 802.1851,-187.6427 792.5989,-192.1542 797.5046,-197.1476"/>
</g>
<!-- Node2 -->
<g id="node3" class="node">
<title>Node2</title>
<g id="a_node3"><a xlink:href="VectorDynSize_8h.html" target="_top" xlink:title="iDynTree/Core/VectorDynSize.h">
<polygon fill="none" stroke="#000000" points="335.5,-112.5 335.5,-131.5 502.5,-131.5 502.5,-112.5 335.5,-112.5"/>
<text text-anchor="middle" x="419" y="-119.5" font-family="FreeSans.ttf" font-size="10.00" fill="#000000">iDynTree/Core/VectorDynSize.h</text>
</a>
</g>
</g>
<!-- Node1&#45;&gt;Node2 -->
<g id="edge2" class="edge">
<title>Node1&#45;&gt;Node2</title>
<path fill="none" stroke="#191970" d="M587.9311,-168.3733C553.5685,-158.9404 501.0608,-144.5265 463.7149,-134.2747"/>
<polygon fill="#191970" stroke="#191970" points="464.181,-130.7732 453.6112,-131.5011 462.328,-137.5235 464.181,-130.7732"/>
</g>
<!-- Node14 -->
<g id="node15" class="node">
<title>Node14</title>
<g id="a_node15"><a xlink:href="SparsityStructure_8h.html" target="_top" xlink:title="iDynTree/SparsityStructure.h">
<polygon fill="none" stroke="#000000" points="545.5,-112.5 545.5,-131.5 700.5,-131.5 700.5,-112.5 545.5,-112.5"/>
<text text-anchor="middle" x="623" y="-119.5" font-family="FreeSans.ttf" font-size="10.00" fill="#000000">iDynTree/SparsityStructure.h</text>
</a>
</g>
</g>
<!-- Node1&#45;&gt;Node14 -->
<g id="edge14" class="edge">
<title>Node1&#45;&gt;Node14</title>
<path fill="none" stroke="#191970" d="M623,-168.2455C623,-160.9382 623,-150.6944 623,-141.7046"/>
<polygon fill="#191970" stroke="#191970" points="626.5001,-141.6426 623,-131.6427 619.5001,-141.6427 626.5001,-141.6426"/>
</g>
<!-- Node3 -->
<g id="node4" class="node">
<title>Node3</title>
<g id="a_node4"><a xlink:href="Span_8h.html" target="_top" xlink:title="iDynTree/Core/Span.h">
<polygon fill="none" stroke="#000000" points="257.5,-56.5 257.5,-75.5 378.5,-75.5 378.5,-56.5 257.5,-56.5"/>
<text text-anchor="middle" x="318" y="-63.5" font-family="FreeSans.ttf" font-size="10.00" fill="#000000">iDynTree/Core/Span.h</text>
</a>
</g>
</g>
<!-- Node2&#45;&gt;Node3 -->
<g id="edge3" class="edge">
<title>Node2&#45;&gt;Node3</title>
<path fill="none" stroke="#191970" d="M401.4071,-112.2455C385.621,-103.4928 362.2361,-90.527 344.2413,-80.5496"/>
<polygon fill="#191970" stroke="#191970" points="345.8341,-77.4308 335.3913,-75.6427 342.4397,-83.5528 345.8341,-77.4308"/>
</g>
<!-- Node13 -->
<g id="node14" class="node">
<title>Node13</title>
<polygon fill="none" stroke="#bfbfbf" points="397,-56.5 397,-75.5 441,-75.5 441,-56.5 397,-56.5"/>
<text text-anchor="middle" x="419" y="-63.5" font-family="FreeSans.ttf" font-size="10.00" fill="#000000">string</text>
</g>
<!-- Node2&#45;&gt;Node13 -->
<g id="edge13" class="edge">
<title>Node2&#45;&gt;Node13</title>
<path fill="none" stroke="#191970" d="M419,-112.2455C419,-104.9382 419,-94.6944 419,-85.7046"/>
<polygon fill="#191970" stroke="#191970" points="422.5001,-85.6426 419,-75.6427 415.5001,-85.6427 422.5001,-85.6426"/>
</g>
<!-- Node4 -->
<g id="node5" class="node">
<title>Node4</title>
<polygon fill="none" stroke="#bfbfbf" points="296,-.5 296,-19.5 348,-19.5 348,-.5 296,-.5"/>
<text text-anchor="middle" x="322" y="-7.5" font-family="FreeSans.ttf" font-size="10.00" fill="#000000">cassert</text>
</g>
<!-- Node3&#45;&gt;Node4 -->
<g id="edge4" class="edge">
<title>Node3&#45;&gt;Node4</title>
<path fill="none" stroke="#191970" d="M318.6967,-56.2455C319.2187,-48.9382 319.9504,-38.6944 320.5925,-29.7046"/>
<polygon fill="#191970" stroke="#191970" points="324.0898,-29.8667 321.3112,-19.6427 317.1076,-29.3679 324.0898,-29.8667"/>
</g>
<!-- Node5 -->
<g id="node6" class="node">
<title>Node5</title>
<polygon fill="none" stroke="#bfbfbf" points="366,-.5 366,-19.5 430,-19.5 430,-.5 366,-.5"/>
<text text-anchor="middle" x="398" y="-7.5" font-family="FreeSans.ttf" font-size="10.00" fill="#000000">algorithm</text>
</g>
<!-- Node3&#45;&gt;Node5 -->
<g id="edge5" class="edge">
<title>Node3&#45;&gt;Node5</title>
<path fill="none" stroke="#191970" d="M331.9349,-56.2455C344.0947,-47.7337 361.9464,-35.2375 376.0285,-25.3801"/>
<polygon fill="#191970" stroke="#191970" points="378.0395,-28.2447 384.2248,-19.6427 374.0253,-22.51 378.0395,-28.2447"/>
</g>
<!-- Node6 -->
<g id="node7" class="node">
<title>Node6</title>
<polygon fill="none" stroke="#bfbfbf" points="448,-.5 448,-19.5 490,-19.5 490,-.5 448,-.5"/>
<text text-anchor="middle" x="469" y="-7.5" font-family="FreeSans.ttf" font-size="10.00" fill="#000000">array</text>
</g>
<!-- Node3&#45;&gt;Node6 -->
<g id="edge6" class="edge">
<title>Node3&#45;&gt;Node6</title>
<path fill="none" stroke="#191970" d="M343.9578,-56.3733C370.0925,-46.6809 410.4072,-31.7298 438.1572,-21.4384"/>
<polygon fill="#191970" stroke="#191970" points="439.604,-24.6348 447.7629,-17.876 437.1699,-18.0716 439.604,-24.6348"/>
</g>
<!-- Node7 -->
<g id="node8" class="node">
<title>Node7</title>
<polygon fill="none" stroke="#bfbfbf" points="715.5,-.5 715.5,-19.5 768.5,-19.5 768.5,-.5 715.5,-.5"/>
<text text-anchor="middle" x="742" y="-7.5" font-family="FreeSans.ttf" font-size="10.00" fill="#000000">cstddef</text>
</g>
<!-- Node3&#45;&gt;Node7 -->
<g id="edge7" class="edge">
<title>Node3&#45;&gt;Node7</title>
<path fill="none" stroke="#191970" d="M378.6982,-57.269C381.8434,-56.8353 384.9585,-56.41 388,-56 514.0918,-39.0028 545.9082,-36.9972 672,-20 682.8792,-18.5335 694.699,-16.8714 705.4749,-15.3292"/>
<polygon fill="#191970" stroke="#191970" points="706.0224,-18.7866 715.4219,-13.8977 705.0252,-11.8579 706.0224,-18.7866"/>
</g>
<!-- Node8 -->
<g id="node9" class="node">
<title>Node8</title>
<polygon fill="none" stroke="#bfbfbf" points="508.5,-.5 508.5,-19.5 561.5,-19.5 561.5,-.5 508.5,-.5"/>
<text text-anchor="middle" x="535" y="-7.5" font-family="FreeSans.ttf" font-size="10.00" fill="#000000">iterator</text>
</g>
<!-- Node3&#45;&gt;Node8 -->
<g id="edge8" class="edge">
<title>Node3&#45;&gt;Node8</title>
<path fill="none" stroke="#191970" d="M356.5504,-56.4645C391.1597,-47.8455 443.6013,-34.6422 498.3906,-20.1215"/>
<polygon fill="#191970" stroke="#191970" points="499.5162,-23.4439 508.2815,-17.4924 497.718,-16.6788 499.5162,-23.4439"/>
</g>
<!-- Node9 -->
<g id="node10" class="node">
<title>Node9</title>
<polygon fill="none" stroke="#bfbfbf" points="0,-.5 0,-19.5 44,-19.5 44,-.5 0,-.5"/>
<text text-anchor="middle" x="22" y="-7.5" font-family="FreeSans.ttf" font-size="10.00" fill="#000000">limits</text>
</g>
<!-- Node3&#45;&gt;Node9 -->
<g id="edge9" class="edge">
<title>Node3&#45;&gt;Node9</title>
<path fill="none" stroke="#191970" d="M257.2448,-57.9277C205.528,-50.4964 129.1564,-38.2037 54.313,-20.066"/>
<polygon fill="#191970" stroke="#191970" points="54.7904,-16.5792 44.2437,-17.5876 53.1173,-23.3763 54.7904,-16.5792"/>
</g>
<!-- Node10 -->
<g id="node11" class="node">
<title>Node10</title>
<polygon fill="none" stroke="#bfbfbf" points="62.5,-.5 62.5,-19.5 127.5,-19.5 127.5,-.5 62.5,-.5"/>
<text text-anchor="middle" x="95" y="-7.5" font-family="FreeSans.ttf" font-size="10.00" fill="#000000">stdexcept</text>
</g>
<!-- Node3&#45;&gt;Node10 -->
<g id="edge10" class="edge">
<title>Node3&#45;&gt;Node10</title>
<path fill="none" stroke="#191970" d="M279.9183,-56.4369C240.3852,-46.5093 178.6858,-31.0153 137.5678,-20.6897"/>
<polygon fill="#191970" stroke="#191970" points="138.3921,-17.2881 127.8407,-18.247 136.6871,-24.0773 138.3921,-17.2881"/>
</g>
<!-- Node11 -->
<g id="node12" class="node">
<title>Node11</title>
<polygon fill="none" stroke="#bfbfbf" points="145.5,-.5 145.5,-19.5 214.5,-19.5 214.5,-.5 145.5,-.5"/>
<text text-anchor="middle" x="180" y="-7.5" font-family="FreeSans.ttf" font-size="10.00" fill="#000000">type_traits</text>
</g>
<!-- Node3&#45;&gt;Node11 -->
<g id="edge11" class="edge">
<title>Node3&#45;&gt;Node11</title>
<path fill="none" stroke="#191970" d="M294.277,-56.3733C271.8263,-47.2629 237.9261,-33.5062 212.8745,-23.3404"/>
<polygon fill="#191970" stroke="#191970" points="213.9957,-20.0182 203.4135,-19.5011 211.3635,-26.5045 213.9957,-20.0182"/>
</g>
<!-- Node12 -->
<g id="node13" class="node">
<title>Node12</title>
<polygon fill="none" stroke="#bfbfbf" points="232.5,-.5 232.5,-19.5 277.5,-19.5 277.5,-.5 232.5,-.5"/>
<text text-anchor="middle" x="255" y="-7.5" font-family="FreeSans.ttf" font-size="10.00" fill="#000000">utility</text>
</g>
<!-- Node3&#45;&gt;Node12 -->
<g id="edge12" class="edge">
<title>Node3&#45;&gt;Node12</title>
<path fill="none" stroke="#191970" d="M307.0262,-56.2455C297.8118,-48.0549 284.4468,-36.1749 273.5703,-26.5069"/>
<polygon fill="#191970" stroke="#191970" points="275.6474,-23.6704 265.848,-19.6427 270.9968,-28.9023 275.6474,-23.6704"/>
</g>
<!-- Node14&#45;&gt;Node7 -->
<g id="edge19" class="edge">
<title>Node14&#45;&gt;Node7</title>
<path fill="none" stroke="#191970" d="M667.4016,-112.4639C701.8264,-104.0647 745.4047,-90.8756 756,-76 765.8278,-62.2019 760.0831,-42.9295 753.2244,-28.772"/>
<polygon fill="#191970" stroke="#191970" points="756.2866,-27.0762 748.4758,-19.9179 750.1178,-30.3847 756.2866,-27.0762"/>
</g>
<!-- Node14&#45;&gt;Node13 -->
<g id="edge21" class="edge">
<title>Node14&#45;&gt;Node13</title>
<path fill="none" stroke="#191970" d="M584.7033,-112.4281C551.6013,-104.0183 502.2698,-91.162 450.9168,-76.1727"/>
<polygon fill="#191970" stroke="#191970" points="451.8891,-72.8105 441.308,-73.3496 449.9158,-79.5266 451.8891,-72.8105"/>
</g>
<!-- Node15 -->
<g id="node16" class="node">
<title>Node15</title>
<g id="a_node16"><a xlink:href="Utils_8h.html" target="_top" xlink:title="iDynTree/Core/Utils.h">
<polygon fill="none" stroke="#000000" points="563.5,-56.5 563.5,-75.5 682.5,-75.5 682.5,-56.5 563.5,-56.5"/>
<text text-anchor="middle" x="623" y="-63.5" font-family="FreeSans.ttf" font-size="10.00" fill="#000000">iDynTree/Core/Utils.h</text>
</a>
</g>
</g>
<!-- Node14&#45;&gt;Node15 -->
<g id="edge15" class="edge">
<title>Node14&#45;&gt;Node15</title>
<path fill="none" stroke="#191970" d="M623,-112.2455C623,-104.9382 623,-94.6944 623,-85.7046"/>
<polygon fill="#191970" stroke="#191970" points="626.5001,-85.6426 623,-75.6427 619.5001,-85.6427 626.5001,-85.6426"/>
</g>
<!-- Node17 -->
<g id="node18" class="node">
<title>Node17</title>
<polygon fill="none" stroke="#bfbfbf" points="700.5,-56.5 700.5,-75.5 747.5,-75.5 747.5,-56.5 700.5,-56.5"/>
<text text-anchor="middle" x="724" y="-63.5" font-family="FreeSans.ttf" font-size="10.00" fill="#000000">vector</text>
</g>
<!-- Node14&#45;&gt;Node17 -->
<g id="edge18" class="edge">
<title>Node14&#45;&gt;Node17</title>
<path fill="none" stroke="#191970" d="M640.5929,-112.2455C656.379,-103.4928 679.7639,-90.527 697.7587,-80.5496"/>
<polygon fill="#191970" stroke="#191970" points="699.5603,-83.5528 706.6087,-75.6427 696.1659,-77.4308 699.5603,-83.5528"/>
</g>
<!-- Node18 -->
<g id="node19" class="node">
<title>Node18</title>
<polygon fill="none" stroke="#bfbfbf" points="459,-56.5 459,-75.5 545,-75.5 545,-56.5 459,-56.5"/>
<text text-anchor="middle" x="502" y="-63.5" font-family="FreeSans.ttf" font-size="10.00" fill="#000000">unordered_set</text>
</g>
<!-- Node14&#45;&gt;Node18 -->
<g id="edge20" class="edge">
<title>Node14&#45;&gt;Node18</title>
<path fill="none" stroke="#191970" d="M602.1994,-112.3733C582.7757,-103.3838 553.5776,-89.8706 531.7036,-79.7471"/>
<polygon fill="#191970" stroke="#191970" points="533.0745,-76.5249 522.5292,-75.5011 530.1344,-82.8776 533.0745,-76.5249"/>
</g>
<!-- Node15&#45;&gt;Node7 -->
<g id="edge16" class="edge">
<title>Node15&#45;&gt;Node7</title>
<path fill="none" stroke="#191970" d="M643.4568,-56.3733C662.4738,-47.4241 691.0175,-33.9917 712.4976,-23.8835"/>
<polygon fill="#191970" stroke="#191970" points="714.2522,-26.926 721.8101,-19.5011 711.2716,-20.5923 714.2522,-26.926"/>
</g>
<!-- Node16 -->
<g id="node17" class="node">
<title>Node16</title>
<polygon fill="none" stroke="#bfbfbf" points="583,-.5 583,-19.5 663,-19.5 663,-.5 583,-.5"/>
<text text-anchor="middle" x="623" y="-7.5" font-family="FreeSans.ttf" font-size="10.00" fill="#000000">CoreExport.h</text>
</g>
<!-- Node15&#45;&gt;Node16 -->
<g id="edge17" class="edge">
<title>Node15&#45;&gt;Node16</title>
<path fill="none" stroke="#191970" d="M623,-56.2455C623,-48.9382 623,-38.6944 623,-29.7046"/>
<polygon fill="#191970" stroke="#191970" points="626.5001,-29.6426 623,-19.6427 619.5001,-29.6427 626.5001,-29.6426"/>
</g>
<!-- Node19&#45;&gt;Node7 -->
<g id="edge23" class="edge">
<title>Node19&#45;&gt;Node7</title>
<path fill="none" stroke="#191970" d="M797.1425,-112.4917C798.3141,-99.1531 798.8835,-74.453 790,-56 784.3465,-44.2563 774.3411,-33.9227 764.9232,-26.0402"/>
<polygon fill="#191970" stroke="#191970" points="766.9521,-23.1835 756.9221,-19.7702 762.6344,-28.6933 766.9521,-23.1835"/>
</g>
</g>
</svg>
