<?xml version="1.0" encoding="UTF-8" standalone="no"?>
<!DOCTYPE svg PUBLIC "-//W3C//DTD SVG 1.1//EN"
 "http://www.w3.org/Graphics/SVG/1.1/DTD/svg11.dtd">
<!-- Generated by graphviz version 2.40.1 (20161225.0304)
 -->
<!-- Title: ContactWrench.h Pages: 1 -->
<svg width="1194pt" height="666pt"
 viewBox="0.00 0.00 1194.00 666.00" xmlns="http://www.w3.org/2000/svg" xmlns:xlink="http://www.w3.org/1999/xlink">
<g id="graph0" class="graph" transform="scale(1 1) rotate(0) translate(4 662)">
<title>ContactWrench.h</title>
<!-- Node0 -->
<g id="node1" class="node">
<title>Node0</title>
<polygon fill="#bfbfbf" stroke="#000000" points="425.5,-638.5 425.5,-657.5 524.5,-657.5 524.5,-638.5 425.5,-638.5"/>
<text text-anchor="middle" x="475" y="-645.5" font-family="FreeSans.ttf" font-size="10.00" fill="#000000">ContactWrench.h</text>
</g>
<!-- Node1 -->
<g id="node2" class="node">
<title>Node1</title>
<g id="a_node2"><a xlink:href="Position_8h.html" target="_top" xlink:title="iDynTree/Core/Position.h">
<polygon fill="none" stroke="#000000" points="427,-347.5 427,-366.5 563,-366.5 563,-347.5 427,-347.5"/>
<text text-anchor="middle" x="495" y="-354.5" font-family="FreeSans.ttf" font-size="10.00" fill="#000000">iDynTree/Core/Position.h</text>
</a>
</g>
</g>
<!-- Node0&#45;&gt;Node1 -->
<g id="edge1" class="edge">
<title>Node0&#45;&gt;Node1</title>
<path fill="none" stroke="#191970" d="M440.2773,-638.4044C422.1949,-631.4487 401.6791,-620.0236 391,-602 386.4091,-594.2518 380.6356,-565.1371 392,-526 409.7139,-464.9966 455.5602,-403.9646 479.668,-374.7602"/>
<polygon fill="#191970" stroke="#191970" points="482.6423,-376.6612 486.3966,-366.7539 477.2834,-372.1576 482.6423,-376.6612"/>
</g>
<!-- Node25 -->
<g id="node26" class="node">
<title>Node25</title>
<g id="a_node26"><a xlink:href="Wrench_8h.html" target="_top" xlink:title="iDynTree/Core/Wrench.h">
<polygon fill="none" stroke="#000000" points="707.5,-526.5 707.5,-545.5 840.5,-545.5 840.5,-526.5 707.5,-526.5"/>
<text text-anchor="middle" x="774" y="-533.5" font-family="FreeSans.ttf" font-size="10.00" fill="#000000">iDynTree/Core/Wrench.h</text>
</a>
</g>
</g>
<!-- Node0&#45;&gt;Node25 -->
<g id="edge42" class="edge">
<title>Node0&#45;&gt;Node25</title>
<path fill="none" stroke="#191970" d="M500.4926,-638.4509C554.0031,-618.4069 678.106,-571.9202 739.0109,-549.1063"/>
<polygon fill="#191970" stroke="#191970" points="740.4351,-552.3104 748.572,-545.5249 737.9796,-545.7551 740.4351,-552.3104"/>
</g>
<!-- Node28 -->
<g id="node29" class="node">
<title>Node28</title>
<g id="a_node29"><a xlink:href="Indices_8h.html" target="_top" xlink:title="iDynTree/Model/Indices.h">
<polygon fill="none" stroke="#000000" points="97,-526.5 97,-545.5 235,-545.5 235,-526.5 97,-526.5"/>
<text text-anchor="middle" x="166" y="-533.5" font-family="FreeSans.ttf" font-size="10.00" fill="#000000">iDynTree/Model/Indices.h</text>
</a>
</g>
</g>
<!-- Node0&#45;&gt;Node28 -->
<g id="edge53" class="edge">
<title>Node0&#45;&gt;Node28</title>
<path fill="none" stroke="#191970" d="M425.3202,-640.0308C385.8598,-632.7738 329.7371,-620.3634 283,-602 248.4695,-588.4326 211.6743,-566.2409 188.7631,-551.3825"/>
<polygon fill="#191970" stroke="#191970" points="190.404,-548.2726 180.1261,-545.7004 186.5567,-554.1205 190.404,-548.2726"/>
</g>
<!-- Node30 -->
<g id="node31" class="node">
<title>Node30</title>
<g id="a_node31"><a xlink:href="LinkState_8h.html" target="_top" xlink:title="iDynTree/Model/LinkState.h">
<polygon fill="none" stroke="#000000" points="400.5,-582.5 400.5,-601.5 549.5,-601.5 549.5,-582.5 400.5,-582.5"/>
<text text-anchor="middle" x="475" y="-589.5" font-family="FreeSans.ttf" font-size="10.00" fill="#000000">iDynTree/Model/LinkState.h</text>
</a>
</g>
</g>
<!-- Node0&#45;&gt;Node30 -->
<g id="edge56" class="edge">
<title>Node0&#45;&gt;Node30</title>
<path fill="none" stroke="#191970" d="M475,-638.2455C475,-630.9382 475,-620.6944 475,-611.7046"/>
<polygon fill="#191970" stroke="#191970" points="478.5001,-611.6426 475,-601.6427 471.5001,-611.6427 478.5001,-611.6426"/>
</g>
<!-- Node36 -->
<g id="node37" class="node">
<title>Node36</title>
<polygon fill="none" stroke="#bfbfbf" points="858.5,-526.5 858.5,-545.5 905.5,-545.5 905.5,-526.5 858.5,-526.5"/>
<text text-anchor="middle" x="882" y="-533.5" font-family="FreeSans.ttf" font-size="10.00" fill="#000000">vector</text>
</g>
<!-- Node0&#45;&gt;Node36 -->
<g id="edge75" class="edge">
<title>Node0&#45;&gt;Node36</title>
<path fill="none" stroke="#191970" d="M511.8554,-638.4633C577.569,-621.3536 719.4772,-583.9279 848.5961,-546.3469"/>
<polygon fill="#191970" stroke="#191970" points="849.6451,-549.6869 858.2642,-543.5256 847.6841,-542.9671 849.6451,-549.6869"/>
</g>
<!-- Node2 -->
<g id="node3" class="node">
<title>Node2</title>
<g id="a_node3"><a xlink:href="PositionRaw_8h.html" target="_top" xlink:title="iDynTree/Core/PositionRaw.h">
<polygon fill="none" stroke="#000000" points="630,-230 630,-249 786,-249 786,-230 630,-230"/>
<text text-anchor="middle" x="708" y="-237" font-family="FreeSans.ttf" font-size="10.00" fill="#000000">iDynTree/Core/PositionRaw.h</text>
</a>
</g>
</g>
<!-- Node1&#45;&gt;Node2 -->
<g id="edge2" class="edge">
<title>Node1&#45;&gt;Node2</title>
<path fill="none" stroke="#191970" d="M512.4307,-347.3845C549.7343,-326.8062 637.4923,-278.3951 681.6487,-254.0365"/>
<polygon fill="#191970" stroke="#191970" points="683.5617,-256.9785 690.6272,-249.0836 680.1805,-250.8492 683.5617,-256.9785"/>
</g>
<!-- Node16 -->
<g id="node17" class="node">
<title>Node16</title>
<polygon fill="none" stroke="#bfbfbf" points="366,-112.5 366,-131.5 410,-131.5 410,-112.5 366,-112.5"/>
<text text-anchor="middle" x="388" y="-119.5" font-family="FreeSans.ttf" font-size="10.00" fill="#000000">string</text>
</g>
<!-- Node1&#45;&gt;Node16 -->
<g id="edge41" class="edge">
<title>Node1&#45;&gt;Node16</title>
<path fill="none" stroke="#191970" d="M471.4334,-347.4685C454.5631,-339.69 432.23,-327.3221 417,-311 398.016,-290.6548 396.9902,-281.6548 389,-255 377.8503,-217.8054 378.0708,-206.7192 381,-168 381.6536,-159.361 382.9881,-149.8868 384.3183,-141.7935"/>
<polygon fill="#191970" stroke="#191970" points="387.7872,-142.2753 386.0653,-131.8213 380.8922,-141.0674 387.7872,-142.2753"/>
</g>
<!-- Node19 -->
<g id="node20" class="node">
<title>Node19</title>
<g id="a_node20"><a xlink:href="Rotation_8h.html" target="_top" xlink:title="iDynTree/Core/Rotation.h">
<polygon fill="none" stroke="#000000" points="426.5,-291.5 426.5,-310.5 563.5,-310.5 563.5,-291.5 426.5,-291.5"/>
<text text-anchor="middle" x="495" y="-298.5" font-family="FreeSans.ttf" font-size="10.00" fill="#000000">iDynTree/Core/Rotation.h</text>
</a>
</g>
</g>
<!-- Node1&#45;&gt;Node19 -->
<g id="edge22" class="edge">
<title>Node1&#45;&gt;Node19</title>
<path fill="none" stroke="#191970" d="M495,-347.2455C495,-339.9382 495,-329.6944 495,-320.7046"/>
<polygon fill="#191970" stroke="#191970" points="498.5001,-320.6426 495,-310.6427 491.5001,-320.6427 498.5001,-320.6426"/>
</g>
<!-- Node3 -->
<g id="node4" class="node">
<title>Node3</title>
<g id="a_node4"><a xlink:href="VectorFixSize_8h.html" target="_top" xlink:title="iDynTree/Core/VectorFixSize.h">
<polygon fill="none" stroke="#000000" points="700.5,-168.5 700.5,-187.5 861.5,-187.5 861.5,-168.5 700.5,-168.5"/>
<text text-anchor="middle" x="781" y="-175.5" font-family="FreeSans.ttf" font-size="10.00" fill="#000000">iDynTree/Core/VectorFixSize.h</text>
</a>
</g>
</g>
<!-- Node2&#45;&gt;Node3 -->
<g id="edge3" class="edge">
<title>Node2&#45;&gt;Node3</title>
<path fill="none" stroke="#191970" d="M719.4063,-229.8906C730.6969,-220.3786 748.1967,-205.6357 761.6619,-194.2917"/>
<polygon fill="#191970" stroke="#191970" points="764.0402,-196.8646 769.4329,-187.7449 759.5301,-191.5111 764.0402,-196.8646"/>
</g>
<!-- Node2&#45;&gt;Node16 -->
<g id="edge21" class="edge">
<title>Node2&#45;&gt;Node16</title>
<path fill="none" stroke="#191970" d="M655.3459,-229.9963C613.8746,-221.5854 555.0738,-207.5895 506,-188 471.1658,-174.0948 433.8447,-151.8348 410.7124,-137.0672"/>
<polygon fill="#191970" stroke="#191970" points="412.5871,-134.1115 402.2895,-131.6195 408.7855,-139.9893 412.5871,-134.1115"/>
</g>
<!-- Node4 -->
<g id="node5" class="node">
<title>Node4</title>
<g id="a_node5"><a xlink:href="Utils_8h.html" target="_top" xlink:title="iDynTree/Core/Utils.h">
<polygon fill="none" stroke="#000000" points="937.5,-56.5 937.5,-75.5 1056.5,-75.5 1056.5,-56.5 937.5,-56.5"/>
<text text-anchor="middle" x="997" y="-63.5" font-family="FreeSans.ttf" font-size="10.00" fill="#000000">iDynTree/Core/Utils.h</text>
</a>
</g>
</g>
<!-- Node3&#45;&gt;Node4 -->
<g id="edge4" class="edge">
<title>Node3&#45;&gt;Node4</title>
<path fill="none" stroke="#191970" d="M799.991,-168.363C818.2252,-159.0936 846.5319,-144.6609 871,-132 905.0333,-114.3897 944.1032,-93.8785 969.599,-80.4537"/>
<polygon fill="#191970" stroke="#191970" points="971.4512,-83.434 978.6671,-75.6763 968.1884,-77.2409 971.4512,-83.434"/>
</g>
<!-- Node7 -->
<g id="node8" class="node">
<title>Node7</title>
<g id="a_node8"><a xlink:href="Span_8h.html" target="_top" xlink:title="iDynTree/Core/Span.h">
<polygon fill="none" stroke="#000000" points="693.5,-56.5 693.5,-75.5 814.5,-75.5 814.5,-56.5 693.5,-56.5"/>
<text text-anchor="middle" x="754" y="-63.5" font-family="FreeSans.ttf" font-size="10.00" fill="#000000">iDynTree/Core/Span.h</text>
</a>
</g>
</g>
<!-- Node3&#45;&gt;Node7 -->
<g id="edge7" class="edge">
<title>Node3&#45;&gt;Node7</title>
<path fill="none" stroke="#191970" d="M807.5908,-168.4373C835.0122,-157.0036 871.7175,-136.3302 856,-112 845.8164,-96.2361 828.7925,-85.819 811.5415,-78.9582"/>
<polygon fill="#191970" stroke="#191970" points="812.5705,-75.6086 801.9762,-75.5012 810.1912,-82.1919 812.5705,-75.6086"/>
</g>
<!-- Node8 -->
<g id="node9" class="node">
<title>Node8</title>
<polygon fill="none" stroke="#bfbfbf" points="442,-.5 442,-19.5 494,-19.5 494,-.5 442,-.5"/>
<text text-anchor="middle" x="468" y="-7.5" font-family="FreeSans.ttf" font-size="10.00" fill="#000000">cassert</text>
</g>
<!-- Node3&#45;&gt;Node8 -->
<g id="edge19" class="edge">
<title>Node3&#45;&gt;Node8</title>
<path fill="none" stroke="#191970" d="M700.499,-168.8584C624.6899,-159.5609 520.6142,-144.7478 506,-132 490.5152,-118.4928 477.5425,-60.6495 471.5548,-29.7092"/>
<polygon fill="#191970" stroke="#191970" points="474.9538,-28.8443 469.6731,-19.6592 468.0733,-30.1326 474.9538,-28.8443"/>
</g>
<!-- Node3&#45;&gt;Node16 -->
<g id="edge17" class="edge">
<title>Node3&#45;&gt;Node16</title>
<path fill="none" stroke="#191970" d="M713.8874,-168.4369C628.5044,-156.2703 484.4498,-135.7435 420.39,-126.6154"/>
<polygon fill="#191970" stroke="#191970" points="420.4959,-123.0952 410.1022,-125.1494 419.5084,-130.0252 420.4959,-123.0952"/>
</g>
<!-- Node17 -->
<g id="node18" class="node">
<title>Node17</title>
<polygon fill="none" stroke="#bfbfbf" points="791,-112.5 791,-131.5 847,-131.5 847,-112.5 791,-112.5"/>
<text text-anchor="middle" x="819" y="-119.5" font-family="FreeSans.ttf" font-size="10.00" fill="#000000">sstream</text>
</g>
<!-- Node3&#45;&gt;Node17 -->
<g id="edge18" class="edge">
<title>Node3&#45;&gt;Node17</title>
<path fill="none" stroke="#191970" d="M787.6191,-168.2455C792.9046,-160.4564 800.4541,-149.3308 806.8238,-139.9439"/>
<polygon fill="#191970" stroke="#191970" points="809.7379,-141.8827 812.4568,-131.6427 803.9455,-137.9522 809.7379,-141.8827"/>
</g>
<!-- Node18 -->
<g id="node19" class="node">
<title>Node18</title>
<polygon fill="none" stroke="#bfbfbf" points="723,-112.5 723,-131.5 773,-131.5 773,-112.5 723,-112.5"/>
<text text-anchor="middle" x="748" y="-119.5" font-family="FreeSans.ttf" font-size="10.00" fill="#000000">cstring</text>
</g>
<!-- Node3&#45;&gt;Node18 -->
<g id="edge20" class="edge">
<title>Node3&#45;&gt;Node18</title>
<path fill="none" stroke="#191970" d="M775.2518,-168.2455C770.7565,-160.617 764.3752,-149.7881 758.9175,-140.5267"/>
<polygon fill="#191970" stroke="#191970" points="761.7747,-138.4811 753.6823,-131.6427 755.7439,-142.035 761.7747,-138.4811"/>
</g>
<!-- Node5 -->
<g id="node6" class="node">
<title>Node5</title>
<polygon fill="none" stroke="#bfbfbf" points="1023.5,-.5 1023.5,-19.5 1076.5,-19.5 1076.5,-.5 1023.5,-.5"/>
<text text-anchor="middle" x="1050" y="-7.5" font-family="FreeSans.ttf" font-size="10.00" fill="#000000">cstddef</text>
</g>
<!-- Node4&#45;&gt;Node5 -->
<g id="edge5" class="edge">
<title>Node4&#45;&gt;Node5</title>
<path fill="none" stroke="#191970" d="M1006.2319,-56.2455C1013.8317,-48.2155 1024.7877,-36.6394 1033.8368,-27.0781"/>
<polygon fill="#191970" stroke="#191970" points="1036.5421,-29.3115 1040.8739,-19.6427 1031.458,-24.4998 1036.5421,-29.3115"/>
</g>
<!-- Node6 -->
<g id="node7" class="node">
<title>Node6</title>
<polygon fill="none" stroke="#bfbfbf" points="1095,-.5 1095,-19.5 1175,-19.5 1175,-.5 1095,-.5"/>
<text text-anchor="middle" x="1135" y="-7.5" font-family="FreeSans.ttf" font-size="10.00" fill="#000000">CoreExport.h</text>
</g>
<!-- Node4&#45;&gt;Node6 -->
<g id="edge6" class="edge">
<title>Node4&#45;&gt;Node6</title>
<path fill="none" stroke="#191970" d="M1020.723,-56.3733C1043.1737,-47.2629 1077.0739,-33.5062 1102.1255,-23.3404"/>
<polygon fill="#191970" stroke="#191970" points="1103.6365,-26.5045 1111.5865,-19.5011 1101.0043,-20.0182 1103.6365,-26.5045"/>
</g>
<!-- Node7&#45;&gt;Node5 -->
<g id="edge11" class="edge">
<title>Node7&#45;&gt;Node5</title>
<path fill="none" stroke="#191970" d="M814.7453,-56.9415C865.3756,-49.0071 939.5634,-36.4936 1013.3955,-19.9639"/>
<polygon fill="#191970" stroke="#191970" points="1014.3557,-23.3352 1023.3359,-17.7132 1012.8099,-16.508 1014.3557,-23.3352"/>
</g>
<!-- Node7&#45;&gt;Node8 -->
<g id="edge8" class="edge">
<title>Node7&#45;&gt;Node8</title>
<path fill="none" stroke="#191970" d="M693.3069,-56.5727C644.5521,-48.6133 574.1605,-36.2571 504.1724,-20.1138"/>
<polygon fill="#191970" stroke="#191970" points="504.8354,-16.6745 494.3017,-17.8108 503.2449,-23.4915 504.8354,-16.6745"/>
</g>
<!-- Node9 -->
<g id="node10" class="node">
<title>Node9</title>
<polygon fill="none" stroke="#bfbfbf" points="941,-.5 941,-19.5 1005,-19.5 1005,-.5 941,-.5"/>
<text text-anchor="middle" x="973" y="-7.5" font-family="FreeSans.ttf" font-size="10.00" fill="#000000">algorithm</text>
</g>
<!-- Node7&#45;&gt;Node9 -->
<g id="edge9" class="edge">
<title>Node7&#45;&gt;Node9</title>
<path fill="none" stroke="#191970" d="M791.6474,-56.3733C830.4304,-46.4561 890.7439,-31.0335 931.0379,-20.73"/>
<polygon fill="#191970" stroke="#191970" points="932.0043,-24.0956 940.8255,-18.2273 930.2701,-17.3138 932.0043,-24.0956"/>
</g>
<!-- Node10 -->
<g id="node11" class="node">
<title>Node10</title>
<polygon fill="none" stroke="#bfbfbf" points="600,-.5 600,-19.5 642,-19.5 642,-.5 600,-.5"/>
<text text-anchor="middle" x="621" y="-7.5" font-family="FreeSans.ttf" font-size="10.00" fill="#000000">array</text>
</g>
<!-- Node7&#45;&gt;Node10 -->
<g id="edge10" class="edge">
<title>Node7&#45;&gt;Node10</title>
<path fill="none" stroke="#191970" d="M731.1365,-56.3733C709.2034,-47.1383 675.9316,-33.1291 651.6976,-22.9253"/>
<polygon fill="#191970" stroke="#191970" points="652.8235,-19.6018 642.2489,-18.9469 650.1071,-26.0533 652.8235,-19.6018"/>
</g>
<!-- Node11 -->
<g id="node12" class="node">
<title>Node11</title>
<polygon fill="none" stroke="#bfbfbf" points="660.5,-.5 660.5,-19.5 713.5,-19.5 713.5,-.5 660.5,-.5"/>
<text text-anchor="middle" x="687" y="-7.5" font-family="FreeSans.ttf" font-size="10.00" fill="#000000">iterator</text>
</g>
<!-- Node7&#45;&gt;Node11 -->
<g id="edge12" class="edge">
<title>Node7&#45;&gt;Node11</title>
<path fill="none" stroke="#191970" d="M742.3295,-56.2455C732.4339,-47.9746 718.0373,-35.9416 706.4099,-26.2232"/>
<polygon fill="#191970" stroke="#191970" points="708.4542,-23.3703 698.5368,-19.6427 703.965,-28.7413 708.4542,-23.3703"/>
</g>
<!-- Node12 -->
<g id="node13" class="node">
<title>Node12</title>
<polygon fill="none" stroke="#bfbfbf" points="732,-.5 732,-19.5 776,-19.5 776,-.5 732,-.5"/>
<text text-anchor="middle" x="754" y="-7.5" font-family="FreeSans.ttf" font-size="10.00" fill="#000000">limits</text>
</g>
<!-- Node7&#45;&gt;Node12 -->
<g id="edge13" class="edge">
<title>Node7&#45;&gt;Node12</title>
<path fill="none" stroke="#191970" d="M754,-56.2455C754,-48.9382 754,-38.6944 754,-29.7046"/>
<polygon fill="#191970" stroke="#191970" points="757.5001,-29.6426 754,-19.6427 750.5001,-29.6427 757.5001,-29.6426"/>
</g>
<!-- Node13 -->
<g id="node14" class="node">
<title>Node13</title>
<polygon fill="none" stroke="#bfbfbf" points="794.5,-.5 794.5,-19.5 859.5,-19.5 859.5,-.5 794.5,-.5"/>
<text text-anchor="middle" x="827" y="-7.5" font-family="FreeSans.ttf" font-size="10.00" fill="#000000">stdexcept</text>
</g>
<!-- Node7&#45;&gt;Node13 -->
<g id="edge14" class="edge">
<title>Node7&#45;&gt;Node13</title>
<path fill="none" stroke="#191970" d="M766.7156,-56.2455C777.602,-47.8943 793.4883,-35.7076 806.22,-25.9408"/>
<polygon fill="#191970" stroke="#191970" points="808.6261,-28.5063 814.4301,-19.6427 804.3654,-22.9523 808.6261,-28.5063"/>
</g>
<!-- Node14 -->
<g id="node15" class="node">
<title>Node14</title>
<polygon fill="none" stroke="#bfbfbf" points="512.5,-.5 512.5,-19.5 581.5,-19.5 581.5,-.5 512.5,-.5"/>
<text text-anchor="middle" x="547" y="-7.5" font-family="FreeSans.ttf" font-size="10.00" fill="#000000">type_traits</text>
</g>
<!-- Node7&#45;&gt;Node14 -->
<g id="edge15" class="edge">
<title>Node7&#45;&gt;Node14</title>
<path fill="none" stroke="#191970" d="M718.4154,-56.3733C683.2923,-46.8714 629.4869,-32.3153 591.5432,-22.0503"/>
<polygon fill="#191970" stroke="#191970" points="592.3427,-18.6409 581.7757,-19.4079 590.5147,-25.398 592.3427,-18.6409"/>
</g>
<!-- Node15 -->
<g id="node16" class="node">
<title>Node15</title>
<polygon fill="none" stroke="#bfbfbf" points="877.5,-.5 877.5,-19.5 922.5,-19.5 922.5,-.5 877.5,-.5"/>
<text text-anchor="middle" x="900" y="-7.5" font-family="FreeSans.ttf" font-size="10.00" fill="#000000">utility</text>
</g>
<!-- Node7&#45;&gt;Node15 -->
<g id="edge16" class="edge">
<title>Node7&#45;&gt;Node15</title>
<path fill="none" stroke="#191970" d="M779.0983,-56.3733C803.5338,-47.0007 840.7899,-32.7107 867.4838,-22.472"/>
<polygon fill="#191970" stroke="#191970" points="869.0653,-25.614 877.1486,-18.7649 866.5584,-19.0783 869.0653,-25.614"/>
</g>
<!-- Node19&#45;&gt;Node3 -->
<g id="edge40" class="edge">
<title>Node19&#45;&gt;Node3</title>
<path fill="none" stroke="#191970" d="M563.7503,-295.1505C647.6083,-287.3067 780.1139,-272.3426 795,-255 808.8338,-238.8834 800.5529,-213.7386 792.0069,-196.6007"/>
<polygon fill="#191970" stroke="#191970" points="794.9515,-194.6885 787.1096,-187.5642 788.7972,-198.0238 794.9515,-194.6885"/>
</g>
<!-- Node19&#45;&gt;Node16 -->
<g id="edge23" class="edge">
<title>Node19&#45;&gt;Node16</title>
<path fill="none" stroke="#191970" d="M460.1138,-291.3476C441.3973,-284.3364 419.641,-272.8757 407,-255 382.9721,-221.022 383.2075,-169.8031 385.557,-141.8796"/>
<polygon fill="#191970" stroke="#191970" points="389.0552,-142.0746 386.5906,-131.7704 382.0915,-141.3626 389.0552,-142.0746"/>
</g>
<!-- Node20 -->
<g id="node21" class="node">
<title>Node20</title>
<g id="a_node21"><a xlink:href="GeomVector3_8h.html" target="_top" xlink:title="iDynTree/Core/GeomVector3.h">
<polygon fill="none" stroke="#000000" points="918.5,-230 918.5,-249 1081.5,-249 1081.5,-230 918.5,-230"/>
<text text-anchor="middle" x="1000" y="-237" font-family="FreeSans.ttf" font-size="10.00" fill="#000000">iDynTree/Core/GeomVector3.h</text>
</a>
</g>
</g>
<!-- Node19&#45;&gt;Node20 -->
<g id="edge24" class="edge">
<title>Node19&#45;&gt;Node20</title>
<path fill="none" stroke="#191970" d="M563.6321,-292.6418C653.9737,-281.6398 812.9022,-262.2852 911.9919,-250.2178"/>
<polygon fill="#191970" stroke="#191970" points="912.4807,-253.6842 921.9842,-249.0009 911.6344,-246.7356 912.4807,-253.6842"/>
</g>
<!-- Node21 -->
<g id="node22" class="node">
<title>Node21</title>
<g id="a_node22"><a xlink:href="RotationRaw_8h.html" target="_top" xlink:title="iDynTree/Core/RotationRaw.h">
<polygon fill="none" stroke="#000000" points="416,-230 416,-249 574,-249 574,-230 416,-230"/>
<text text-anchor="middle" x="495" y="-237" font-family="FreeSans.ttf" font-size="10.00" fill="#000000">iDynTree/Core/RotationRaw.h</text>
</a>
</g>
</g>
<!-- Node19&#45;&gt;Node21 -->
<g id="edge26" class="edge">
<title>Node19&#45;&gt;Node21</title>
<path fill="none" stroke="#191970" d="M495,-291.3906C495,-282.8657 495,-270.1392 495,-259.4235"/>
<polygon fill="#191970" stroke="#191970" points="498.5001,-259.2448 495,-249.2449 491.5001,-259.2449 498.5001,-259.2448"/>
</g>
<!-- Node20&#45;&gt;Node3 -->
<g id="edge25" class="edge">
<title>Node20&#45;&gt;Node3</title>
<path fill="none" stroke="#191970" d="M965.7813,-229.8906C927.7725,-219.2169 866.3089,-201.9566 824.8116,-190.3033"/>
<polygon fill="#191970" stroke="#191970" points="825.5523,-186.8759 814.9785,-187.5419 823.6598,-193.6153 825.5523,-186.8759"/>
</g>
<!-- Node21&#45;&gt;Node16 -->
<g id="edge39" class="edge">
<title>Node21&#45;&gt;Node16</title>
<path fill="none" stroke="#191970" d="M486.2437,-229.8845C468.2171,-210.0889 426.736,-164.5372 403.8609,-139.4173"/>
<polygon fill="#191970" stroke="#191970" points="406.1981,-136.7856 396.8772,-131.7484 401.0225,-141.4987 406.1981,-136.7856"/>
</g>
<!-- Node22 -->
<g id="node23" class="node">
<title>Node22</title>
<g id="a_node23"><a xlink:href="MatrixFixSize_8h.html" target="_top" xlink:title="iDynTree/Core/MatrixFixSize.h">
<polygon fill="none" stroke="#000000" points="515.5,-168.5 515.5,-187.5 676.5,-187.5 676.5,-168.5 515.5,-168.5"/>
<text text-anchor="middle" x="596" y="-175.5" font-family="FreeSans.ttf" font-size="10.00" fill="#000000">iDynTree/Core/MatrixFixSize.h</text>
</a>
</g>
</g>
<!-- Node21&#45;&gt;Node22 -->
<g id="edge27" class="edge">
<title>Node21&#45;&gt;Node22</title>
<path fill="none" stroke="#191970" d="M510.7813,-229.8906C527.0875,-219.9616 552.754,-204.333 571.6614,-192.8201"/>
<polygon fill="#191970" stroke="#191970" points="573.6087,-195.7322 580.3296,-187.5419 569.9681,-189.7533 573.6087,-195.7322"/>
</g>
<!-- Node22&#45;&gt;Node4 -->
<g id="edge28" class="edge">
<title>Node22&#45;&gt;Node4</title>
<path fill="none" stroke="#191970" d="M612.9502,-168.3148C644.3001,-150.4305 708.653,-113.8647 714,-112 784.1656,-87.5303 868.7353,-75.9567 927.0488,-70.5597"/>
<polygon fill="#191970" stroke="#191970" points="927.6085,-74.0238 937.2597,-69.6529 926.9892,-67.0513 927.6085,-74.0238"/>
</g>
<!-- Node22&#45;&gt;Node8 -->
<g id="edge34" class="edge">
<title>Node22&#45;&gt;Node8</title>
<path fill="none" stroke="#191970" d="M556.9427,-168.4263C524.8946,-159.7071 483.1986,-146.078 473,-132 451.1275,-101.8076 456.9484,-55.5181 462.7348,-29.4996"/>
<polygon fill="#191970" stroke="#191970" points="466.1565,-30.2411 465.1318,-19.696 459.3568,-28.5786 466.1565,-30.2411"/>
</g>
<!-- Node22&#45;&gt;Node16 -->
<g id="edge36" class="edge">
<title>Node22&#45;&gt;Node16</title>
<path fill="none" stroke="#191970" d="M560.2435,-168.3733C520.8541,-157.7684 458.0811,-140.868 420.18,-130.6638"/>
<polygon fill="#191970" stroke="#191970" points="420.7557,-127.1943 410.1896,-127.9741 418.9358,-133.9536 420.7557,-127.1943"/>
</g>
<!-- Node22&#45;&gt;Node17 -->
<g id="edge38" class="edge">
<title>Node22&#45;&gt;Node17</title>
<path fill="none" stroke="#191970" d="M635.612,-168.4649C671.2487,-159.8284 725.287,-146.5885 781.044,-132.2122"/>
<polygon fill="#191970" stroke="#191970" points="781.9295,-135.5984 790.7348,-129.7064 780.177,-128.8213 781.9295,-135.5984"/>
</g>
<!-- Node22&#45;&gt;Node18 -->
<g id="edge35" class="edge">
<title>Node22&#45;&gt;Node18</title>
<path fill="none" stroke="#191970" d="M622.1297,-168.3733C647.3036,-159.0987 685.5472,-145.0089 713.2725,-134.7943"/>
<polygon fill="#191970" stroke="#191970" points="714.794,-137.9638 722.9675,-131.2225 712.3741,-131.3954 714.794,-137.9638"/>
</g>
<!-- Node23 -->
<g id="node24" class="node">
<title>Node23</title>
<g id="a_node24"><a xlink:href="MatrixView_8h.html" target="_top" xlink:title="iDynTree/Core/MatrixView.h">
<polygon fill="none" stroke="#000000" points="515.5,-112.5 515.5,-131.5 666.5,-131.5 666.5,-112.5 515.5,-112.5"/>
<text text-anchor="middle" x="591" y="-119.5" font-family="FreeSans.ttf" font-size="10.00" fill="#000000">iDynTree/Core/MatrixView.h</text>
</a>
</g>
</g>
<!-- Node22&#45;&gt;Node23 -->
<g id="edge29" class="edge">
<title>Node22&#45;&gt;Node23</title>
<path fill="none" stroke="#191970" d="M595.1291,-168.2455C594.4766,-160.9382 593.562,-150.6944 592.7593,-141.7046"/>
<polygon fill="#191970" stroke="#191970" points="596.2365,-141.2918 591.861,-131.6427 589.2642,-141.9143 596.2365,-141.2918"/>
</g>
<!-- Node24 -->
<g id="node25" class="node">
<title>Node24</title>
<polygon fill="none" stroke="#bfbfbf" points="1005,-112.5 1005,-131.5 1065,-131.5 1065,-112.5 1005,-112.5"/>
<text text-anchor="middle" x="1035" y="-119.5" font-family="FreeSans.ttf" font-size="10.00" fill="#000000">iostream</text>
</g>
<!-- Node22&#45;&gt;Node24 -->
<g id="edge37" class="edge">
<title>Node22&#45;&gt;Node24</title>
<path fill="none" stroke="#191970" d="M670.968,-168.4369C764.5657,-156.4973 921.2799,-136.5064 994.7218,-127.138"/>
<polygon fill="#191970" stroke="#191970" points="995.4591,-130.5724 1004.9358,-125.8351 994.5733,-123.6287 995.4591,-130.5724"/>
</g>
<!-- Node23&#45;&gt;Node4 -->
<g id="edge33" class="edge">
<title>Node23&#45;&gt;Node4</title>
<path fill="none" stroke="#191970" d="M660.3326,-112.4369C734.7423,-102.1735 852.2852,-85.9607 926.965,-75.66"/>
<polygon fill="#191970" stroke="#191970" points="927.7813,-79.0806 937.2092,-74.247 926.8248,-72.1463 927.7813,-79.0806"/>
</g>
<!-- Node23&#45;&gt;Node7 -->
<g id="edge32" class="edge">
<title>Node23&#45;&gt;Node7</title>
<path fill="none" stroke="#191970" d="M619.0207,-112.3733C646.0078,-103.1016 687.0017,-89.0178 716.7311,-78.804"/>
<polygon fill="#191970" stroke="#191970" points="718.0248,-82.0605 726.3449,-75.5011 715.7503,-75.4403 718.0248,-82.0605"/>
</g>
<!-- Node23&#45;&gt;Node8 -->
<g id="edge30" class="edge">
<title>Node23&#45;&gt;Node8</title>
<path fill="none" stroke="#191970" d="M580.5131,-112.4509C559.5443,-93.3574 512.2248,-50.2697 486.1275,-26.5063"/>
<polygon fill="#191970" stroke="#191970" points="488.2108,-23.6697 478.4604,-19.5249 483.4979,-28.8455 488.2108,-23.6697"/>
</g>
<!-- Node23&#45;&gt;Node14 -->
<g id="edge31" class="edge">
<title>Node23&#45;&gt;Node14</title>
<path fill="none" stroke="#191970" d="M587.2486,-112.4509C580.0073,-94.0186 563.9814,-53.2254 554.4812,-29.043"/>
<polygon fill="#191970" stroke="#191970" points="557.6561,-27.5526 550.7419,-19.5249 551.1409,-30.1122 557.6561,-27.5526"/>
</g>
<!-- Node26 -->
<g id="node27" class="node">
<title>Node26</title>
<g id="a_node27"><a xlink:href="SpatialForceVector_8h.html" target="_top" xlink:title="iDynTree/Core/SpatialForce\lVector.h">
<polygon fill="none" stroke="#000000" points="988,-459.5 988,-489.5 1136,-489.5 1136,-459.5 988,-459.5"/>
<text text-anchor="start" x="996" y="-477.5" font-family="FreeSans.ttf" font-size="10.00" fill="#000000">iDynTree/Core/SpatialForce</text>
<text text-anchor="middle" x="1062" y="-466.5" font-family="FreeSans.ttf" font-size="10.00" fill="#000000">Vector.h</text>
</a>
</g>
</g>
<!-- Node25&#45;&gt;Node26 -->
<g id="edge43" class="edge">
<title>Node25&#45;&gt;Node26</title>
<path fill="none" stroke="#191970" d="M818.684,-526.4581C862.0997,-517.187 928.9993,-502.9012 981.6694,-491.6539"/>
<polygon fill="#191970" stroke="#191970" points="982.6171,-495.0306 991.6657,-489.5193 981.1552,-488.1849 982.6171,-495.0306"/>
</g>
<!-- Node26&#45;&gt;Node3 -->
<g id="edge44" class="edge">
<title>Node26&#45;&gt;Node3</title>
<path fill="none" stroke="#191970" d="M1083.2584,-459.2466C1108.7255,-439.0184 1148,-400.7335 1148,-357 1148,-357 1148,-357 1148,-301 1148,-258.4214 1127.5105,-245.9071 1091,-224 1055.001,-202.3998 949.753,-190.1257 871.8268,-183.783"/>
<polygon fill="#191970" stroke="#191970" points="871.75,-180.266 861.5046,-182.9643 871.1965,-187.2441 871.75,-180.266"/>
</g>
<!-- Node26&#45;&gt;Node20 -->
<g id="edge45" class="edge">
<title>Node26&#45;&gt;Node20</title>
<path fill="none" stroke="#191970" d="M1071.2087,-459.3519C1076.699,-449.4104 1083.1406,-435.905 1086,-423 1098.691,-365.7225 1114.9268,-342.0394 1086,-291 1076.081,-273.4987 1057.5854,-261.3022 1040.2808,-253.1882"/>
<polygon fill="#191970" stroke="#191970" points="1041.4183,-249.8664 1030.8517,-249.0927 1038.6295,-256.2869 1041.4183,-249.8664"/>
</g>
<!-- Node27 -->
<g id="node28" class="node">
<title>Node27</title>
<g id="a_node28"><a xlink:href="SpatialVector_8h.html" target="_top" xlink:title="iDynTree/Core/SpatialVector.h">
<polygon fill="none" stroke="#000000" points="874.5,-403.5 874.5,-422.5 1035.5,-422.5 1035.5,-403.5 874.5,-403.5"/>
<text text-anchor="middle" x="955" y="-410.5" font-family="FreeSans.ttf" font-size="10.00" fill="#000000">iDynTree/Core/SpatialVector.h</text>
</a>
</g>
</g>
<!-- Node26&#45;&gt;Node27 -->
<g id="edge46" class="edge">
<title>Node26&#45;&gt;Node27</title>
<path fill="none" stroke="#191970" d="M1035.8249,-459.4554C1018.9113,-449.734 997.0171,-437.15 980.2828,-427.5317"/>
<polygon fill="#191970" stroke="#191970" points="981.9953,-424.4791 971.5812,-422.5303 978.507,-430.548 981.9953,-424.4791"/>
</g>
<!-- Node27&#45;&gt;Node1 -->
<g id="edge47" class="edge">
<title>Node27&#45;&gt;Node1</title>
<path fill="none" stroke="#191970" d="M876.7067,-403.4686C792.0516,-393.1628 657.9017,-376.8315 573.2597,-366.5273"/>
<polygon fill="#191970" stroke="#191970" points="573.5393,-363.0355 563.1896,-365.3013 572.6933,-369.9842 573.5393,-363.0355"/>
</g>
<!-- Node27&#45;&gt;Node4 -->
<g id="edge49" class="edge">
<title>Node27&#45;&gt;Node4</title>
<path fill="none" stroke="#191970" d="M992.8863,-403.4278C1058.4204,-384.3386 1186,-334.9223 1186,-239.5 1186,-239.5 1186,-239.5 1186,-178 1186,-120.2806 1119.9553,-91.6637 1065.9488,-77.9119"/>
<polygon fill="#191970" stroke="#191970" points="1066.5657,-74.4603 1056.0234,-75.5134 1064.9215,-81.2644 1066.5657,-74.4603"/>
</g>
<!-- Node27&#45;&gt;Node17 -->
<g id="edge52" class="edge">
<title>Node27&#45;&gt;Node17</title>
<path fill="none" stroke="#191970" d="M952.4145,-403.3801C941.5279,-363.2715 898.7033,-209.5172 871,-168 863.2646,-156.4074 851.9089,-145.9028 841.7812,-137.8682"/>
<polygon fill="#191970" stroke="#191970" points="843.7556,-134.9731 833.6692,-131.7304 839.5319,-140.5553 843.7556,-134.9731"/>
</g>
<!-- Node27&#45;&gt;Node19 -->
<g id="edge48" class="edge">
<title>Node27&#45;&gt;Node19</title>
<path fill="none" stroke="#191970" d="M915.7807,-403.4509C832.0139,-383.0556 635.8036,-335.2826 543.9936,-312.9289"/>
<polygon fill="#191970" stroke="#191970" points="544.6642,-309.49 534.1201,-310.5249 543.0082,-316.2913 544.6642,-309.49"/>
</g>
<!-- Node27&#45;&gt;Node20 -->
<g id="edge50" class="edge">
<title>Node27&#45;&gt;Node20</title>
<path fill="none" stroke="#191970" d="M957.4835,-403.4248C964.5968,-375.999 985.156,-296.732 994.8395,-259.3964"/>
<polygon fill="#191970" stroke="#191970" points="998.346,-259.818 997.4687,-249.2595 991.5701,-258.0605 998.346,-259.818"/>
</g>
<!-- Node27&#45;&gt;Node24 -->
<g id="edge51" class="edge">
<title>Node27&#45;&gt;Node24</title>
<path fill="none" stroke="#191970" d="M964.2368,-403.1029C993.7538,-371.3656 1084.2631,-273.1534 1091,-255 1106.6628,-212.7944 1072.7485,-164.3123 1051.1373,-139.1582"/>
<polygon fill="#191970" stroke="#191970" points="1053.6358,-136.7011 1044.3693,-131.5647 1048.4102,-141.3587 1053.6358,-136.7011"/>
</g>
<!-- Node28&#45;&gt;Node16 -->
<g id="edge54" class="edge">
<title>Node28&#45;&gt;Node16</title>
<path fill="none" stroke="#191970" d="M158.7696,-526.3858C144.4814,-506.4007 114,-458.4408 114,-413 114,-413 114,-413 114,-239.5 114,-189.7932 155.6107,-190.3687 200,-168 250.8796,-142.3607 316.8343,-130.5053 355.5739,-125.4224"/>
<polygon fill="#191970" stroke="#191970" points="356.2499,-128.8655 365.7437,-124.1625 355.3892,-121.9186 356.2499,-128.8655"/>
</g>
<!-- Node29 -->
<g id="node30" class="node">
<title>Node29</title>
<polygon fill="none" stroke="#bfbfbf" points="0,-465 0,-484 86,-484 86,-465 0,-465"/>
<text text-anchor="middle" x="43" y="-472" font-family="FreeSans.ttf" font-size="10.00" fill="#000000">ModelExport.h</text>
</g>
<!-- Node28&#45;&gt;Node29 -->
<g id="edge55" class="edge">
<title>Node28&#45;&gt;Node29</title>
<path fill="none" stroke="#191970" d="M146.7813,-526.3906C126.4719,-516.2359 94.2393,-500.1196 71.0832,-488.5416"/>
<polygon fill="#191970" stroke="#191970" points="72.5933,-485.3836 62.0838,-484.0419 69.4628,-491.6446 72.5933,-485.3836"/>
</g>
<!-- Node30&#45;&gt;Node25 -->
<g id="edge69" class="edge">
<title>Node30&#45;&gt;Node25</title>
<path fill="none" stroke="#191970" d="M526.0602,-582.4369C577.8768,-572.7321 658.095,-557.708 713.1715,-547.3926"/>
<polygon fill="#191970" stroke="#191970" points="713.9656,-550.8048 723.1504,-545.5237 712.677,-543.9245 713.9656,-550.8048"/>
</g>
<!-- Node30&#45;&gt;Node28 -->
<g id="edge73" class="edge">
<title>Node30&#45;&gt;Node28</title>
<path fill="none" stroke="#191970" d="M422.2321,-582.4369C368.5715,-572.712 285.4373,-557.6456 228.509,-547.3285"/>
<polygon fill="#191970" stroke="#191970" points="229.0141,-543.8631 218.5503,-545.5237 227.7658,-550.7509 229.0141,-543.8631"/>
</g>
<!-- Node31 -->
<g id="node32" class="node">
<title>Node31</title>
<g id="a_node32"><a xlink:href="Transform_8h.html" target="_top" xlink:title="iDynTree/Core/Transform.h">
<polygon fill="none" stroke="#000000" points="284,-403.5 284,-422.5 430,-422.5 430,-403.5 284,-403.5"/>
<text text-anchor="middle" x="357" y="-410.5" font-family="FreeSans.ttf" font-size="10.00" fill="#000000">iDynTree/Core/Transform.h</text>
</a>
</g>
</g>
<!-- Node30&#45;&gt;Node31 -->
<g id="edge57" class="edge">
<title>Node30&#45;&gt;Node31</title>
<path fill="none" stroke="#191970" d="M445.65,-582.4891C427.6587,-575.2127 405.5531,-563.4262 392,-546 365.8469,-512.3732 359.1477,-461.016 357.4892,-432.9763"/>
<polygon fill="#191970" stroke="#191970" points="360.9791,-432.6624 357.0531,-422.8218 353.9855,-432.9628 360.9791,-432.6624"/>
</g>
<!-- Node32 -->
<g id="node33" class="node">
<title>Node32</title>
<g id="a_node33"><a xlink:href="Twist_8h.html" target="_top" xlink:title="iDynTree/Core/Twist.h">
<polygon fill="none" stroke="#000000" points="567,-526.5 567,-545.5 689,-545.5 689,-526.5 567,-526.5"/>
<text text-anchor="middle" x="628" y="-533.5" font-family="FreeSans.ttf" font-size="10.00" fill="#000000">iDynTree/Core/Twist.h</text>
</a>
</g>
</g>
<!-- Node30&#45;&gt;Node32 -->
<g id="edge62" class="edge">
<title>Node30&#45;&gt;Node32</title>
<path fill="none" stroke="#191970" d="M501.3016,-582.3733C526.4128,-573.1822 564.4438,-559.2624 592.2872,-549.0713"/>
<polygon fill="#191970" stroke="#191970" points="593.8538,-552.2251 602.0416,-545.5011 591.4478,-545.6516 593.8538,-552.2251"/>
</g>
<!-- Node34 -->
<g id="node35" class="node">
<title>Node34</title>
<g id="a_node35"><a xlink:href="SpatialAcc_8h.html" target="_top" xlink:title="iDynTree/Core/SpatialAcc.h">
<polygon fill="none" stroke="#000000" points="401,-526.5 401,-545.5 549,-545.5 549,-526.5 401,-526.5"/>
<text text-anchor="middle" x="475" y="-533.5" font-family="FreeSans.ttf" font-size="10.00" fill="#000000">iDynTree/Core/SpatialAcc.h</text>
</a>
</g>
</g>
<!-- Node30&#45;&gt;Node34 -->
<g id="edge67" class="edge">
<title>Node30&#45;&gt;Node34</title>
<path fill="none" stroke="#191970" d="M475,-582.2455C475,-574.9382 475,-564.6944 475,-555.7046"/>
<polygon fill="#191970" stroke="#191970" points="478.5001,-555.6426 475,-545.6427 471.5001,-555.6427 478.5001,-555.6426"/>
</g>
<!-- Node35 -->
<g id="node36" class="node">
<title>Node35</title>
<g id="a_node36"><a xlink:href="ArticulatedBodyInertia_8h.html" target="_top" xlink:title="iDynTree/Core/Articulated\lBodyInertia.h">
<polygon fill="none" stroke="#000000" points="180.5,-224.5 180.5,-254.5 321.5,-254.5 321.5,-224.5 180.5,-224.5"/>
<text text-anchor="start" x="188.5" y="-242.5" font-family="FreeSans.ttf" font-size="10.00" fill="#000000">iDynTree/Core/Articulated</text>
<text text-anchor="middle" x="251" y="-231.5" font-family="FreeSans.ttf" font-size="10.00" fill="#000000">BodyInertia.h</text>
</a>
</g>
</g>
<!-- Node30&#45;&gt;Node35 -->
<g id="edge70" class="edge">
<title>Node30&#45;&gt;Node35</title>
<path fill="none" stroke="#191970" d="M446.5631,-582.4763C425.9499,-574.7017 398.1059,-562.3351 377,-546 320.8381,-502.5329 303.3861,-488.0983 275,-423 251.9565,-370.1542 249.4255,-301.2371 249.9727,-264.7414"/>
<polygon fill="#191970" stroke="#191970" points="253.4772,-264.5921 250.222,-254.5098 246.4793,-264.4215 253.4772,-264.5921"/>
</g>
<!-- Node30&#45;&gt;Node36 -->
<g id="edge74" class="edge">
<title>Node30&#45;&gt;Node36</title>
<path fill="none" stroke="#191970" d="M549.6602,-586.8399C623.5884,-580.826 740.0249,-568.9238 848.5579,-546.0148"/>
<polygon fill="#191970" stroke="#191970" points="849.3191,-549.4312 858.3618,-543.9103 847.8499,-542.5871 849.3191,-549.4312"/>
</g>
<!-- Node31&#45;&gt;Node1 -->
<g id="edge58" class="edge">
<title>Node31&#45;&gt;Node1</title>
<path fill="none" stroke="#191970" d="M380.723,-403.3733C403.1737,-394.2629 437.0739,-380.5062 462.1255,-370.3404"/>
<polygon fill="#191970" stroke="#191970" points="463.6365,-373.5045 471.5865,-366.5011 461.0043,-367.0182 463.6365,-373.5045"/>
</g>
<!-- Node31&#45;&gt;Node16 -->
<g id="edge61" class="edge">
<title>Node31&#45;&gt;Node16</title>
<path fill="none" stroke="#191970" d="M332.6682,-403.3494C271.5825,-377.656 120.1671,-304.0622 171,-224 212.0373,-159.3659 306.1124,-134.9555 355.8364,-126.3333"/>
<polygon fill="#191970" stroke="#191970" points="356.4296,-129.7829 365.7387,-124.7243 355.3068,-122.8736 356.4296,-129.7829"/>
</g>
<!-- Node31&#45;&gt;Node19 -->
<g id="edge59" class="edge">
<title>Node31&#45;&gt;Node19</title>
<path fill="none" stroke="#191970" d="M364.5314,-403.2259C375.3665,-389.5715 396.4329,-364.4986 418,-347 433.0209,-334.8127 451.5941,-323.6221 466.7356,-315.3304"/>
<polygon fill="#191970" stroke="#191970" points="468.4897,-318.3614 475.6574,-310.5592 465.1886,-312.1886 468.4897,-318.3614"/>
</g>
<!-- Node31&#45;&gt;Node22 -->
<g id="edge60" class="edge">
<title>Node31&#45;&gt;Node22</title>
<path fill="none" stroke="#191970" d="M358.7968,-403.273C363.6432,-379.9347 379.2548,-320.5152 417,-291 476.4697,-244.4971 530.8687,-309.603 583,-255 597.4378,-239.8776 599.1982,-215.0314 598.3159,-197.665"/>
<polygon fill="#191970" stroke="#191970" points="601.7876,-197.1814 597.461,-187.5103 594.8123,-197.7686 601.7876,-197.1814"/>
</g>
<!-- Node33 -->
<g id="node34" class="node">
<title>Node33</title>
<g id="a_node34"><a xlink:href="SpatialMotionVector_8h.html" target="_top" xlink:title="iDynTree/Core/SpatialMotion\lVector.h">
<polygon fill="none" stroke="#000000" points="766.5,-459.5 766.5,-489.5 921.5,-489.5 921.5,-459.5 766.5,-459.5"/>
<text text-anchor="start" x="774.5" y="-477.5" font-family="FreeSans.ttf" font-size="10.00" fill="#000000">iDynTree/Core/SpatialMotion</text>
<text text-anchor="middle" x="844" y="-466.5" font-family="FreeSans.ttf" font-size="10.00" fill="#000000">Vector.h</text>
</a>
</g>
</g>
<!-- Node32&#45;&gt;Node33 -->
<g id="edge63" class="edge">
<title>Node32&#45;&gt;Node33</title>
<path fill="none" stroke="#191970" d="M661.75,-526.3906C693.6897,-517.2967 742.422,-503.4215 781.4604,-492.3064"/>
<polygon fill="#191970" stroke="#191970" points="782.5012,-495.6493 791.1605,-489.5446 780.5842,-488.9168 782.5012,-495.6493"/>
</g>
<!-- Node33&#45;&gt;Node3 -->
<g id="edge64" class="edge">
<title>Node33&#45;&gt;Node3</title>
<path fill="none" stroke="#191970" d="M844.4561,-459.2385C845.1499,-419.2222 843.8187,-308.526 812,-224 808.2128,-213.9394 801.8344,-203.9065 795.8445,-195.7899"/>
<polygon fill="#191970" stroke="#191970" points="798.5453,-193.5616 789.6384,-187.8241 793.0233,-197.8637 798.5453,-193.5616"/>
</g>
<!-- Node33&#45;&gt;Node20 -->
<g id="edge65" class="edge">
<title>Node33&#45;&gt;Node20</title>
<path fill="none" stroke="#191970" d="M921.6898,-464.4992C971.503,-456.3102 1029.6227,-442.814 1045,-423 1084.1376,-372.5703 1037.7658,-292.7698 1013.2745,-257.3964"/>
<polygon fill="#191970" stroke="#191970" points="1015.9648,-255.1408 1007.3095,-249.0303 1010.2651,-259.2046 1015.9648,-255.1408"/>
</g>
<!-- Node33&#45;&gt;Node27 -->
<g id="edge66" class="edge">
<title>Node33&#45;&gt;Node27</title>
<path fill="none" stroke="#191970" d="M871.1537,-459.4554C888.6995,-449.734 911.4122,-437.15 928.7721,-427.5317"/>
<polygon fill="#191970" stroke="#191970" points="930.748,-430.4383 937.7989,-422.5303 927.3555,-424.3153 930.748,-430.4383"/>
</g>
<!-- Node34&#45;&gt;Node33 -->
<g id="edge68" class="edge">
<title>Node34&#45;&gt;Node33</title>
<path fill="none" stroke="#191970" d="M532.2514,-526.4581C592.1602,-516.4733 686.969,-500.6718 756.3164,-489.1139"/>
<polygon fill="#191970" stroke="#191970" points="757.0675,-492.5371 766.356,-487.4407 755.9166,-485.6324 757.0675,-492.5371"/>
</g>
<!-- Node35&#45;&gt;Node16 -->
<g id="edge72" class="edge">
<title>Node35&#45;&gt;Node16</title>
<path fill="none" stroke="#191970" d="M268.6299,-224.3795C294.4535,-202.2315 342.3742,-161.1316 368.9706,-138.3209"/>
<polygon fill="#191970" stroke="#191970" points="371.4894,-140.7716 376.8014,-131.6046 366.9322,-135.4581 371.4894,-140.7716"/>
</g>
<!-- Node35&#45;&gt;Node22 -->
<g id="edge71" class="edge">
<title>Node35&#45;&gt;Node22</title>
<path fill="none" stroke="#191970" d="M321.6484,-226.9062C383.6119,-215.8605 472.8922,-199.9453 532.5975,-189.3022"/>
<polygon fill="#191970" stroke="#191970" points="533.421,-192.7106 542.6516,-187.5099 532.1925,-185.8193 533.421,-192.7106"/>
</g>
</g>
</svg>
