<?xml version="1.0" encoding="UTF-8" standalone="no"?>
<!DOCTYPE svg PUBLIC "-//W3C//DTD SVG 1.1//EN"
 "http://www.w3.org/Graphics/SVG/1.1/DTD/svg11.dtd">
<!-- Generated by graphviz version 2.40.1 (20161225.0304)
 -->
<!-- Title: Cost.h Pages: 1 -->
<svg width="397pt" height="196pt"
 viewBox="0.00 0.00 397.00 196.00" xmlns="http://www.w3.org/2000/svg" xmlns:xlink="http://www.w3.org/1999/xlink">
<g id="graph0" class="graph" transform="scale(1 1) rotate(0) translate(4 192)">
<title>Cost.h</title>
<!-- Node0 -->
<g id="node1" class="node">
<title>Node0</title>
<polygon fill="#bfbfbf" stroke="#000000" points="67.5,-168.5 67.5,-187.5 114.5,-187.5 114.5,-168.5 67.5,-168.5"/>
<text text-anchor="middle" x="91" y="-175.5" font-family="FreeSans.ttf" font-size="10.00" fill="#000000">Cost.h</text>
</g>
<!-- Node1 -->
<g id="node2" class="node">
<title>Node1</title>
<polygon fill="none" stroke="#bfbfbf" points="0,-56.5 0,-75.5 44,-75.5 44,-56.5 0,-56.5"/>
<text text-anchor="middle" x="22" y="-63.5" font-family="FreeSans.ttf" font-size="10.00" fill="#000000">string</text>
</g>
<!-- Node0&#45;&gt;Node1 -->
<g id="edge1" class="edge">
<title>Node0&#45;&gt;Node1</title>
<path fill="none" stroke="#191970" d="M85.1171,-168.4509C73.6087,-149.7707 47.9512,-108.1238 33.1362,-84.0761"/>
<polygon fill="#191970" stroke="#191970" points="36.0932,-82.203 27.868,-75.5249 30.1334,-85.8747 36.0932,-82.203"/>
</g>
<!-- Node2 -->
<g id="node3" class="node">
<title>Node2</title>
<g id="a_node3"><a xlink:href="SparsityStructure_8h.html" target="_top" xlink:title="iDynTree/SparsityStructure.h">
<polygon fill="none" stroke="#000000" points="74.5,-112.5 74.5,-131.5 229.5,-131.5 229.5,-112.5 74.5,-112.5"/>
<text text-anchor="middle" x="152" y="-119.5" font-family="FreeSans.ttf" font-size="10.00" fill="#000000">iDynTree/SparsityStructure.h</text>
</a>
</g>
</g>
<!-- Node0&#45;&gt;Node2 -->
<g id="edge2" class="edge">
<title>Node0&#45;&gt;Node2</title>
<path fill="none" stroke="#191970" d="M101.6254,-168.2455C110.5473,-160.0549 123.488,-148.1749 134.0192,-138.5069"/>
<polygon fill="#191970" stroke="#191970" points="136.4968,-140.9837 141.4964,-131.6427 131.7629,-135.8271 136.4968,-140.9837"/>
</g>
<!-- Node2&#45;&gt;Node1 -->
<g id="edge9" class="edge">
<title>Node2&#45;&gt;Node1</title>
<path fill="none" stroke="#191970" d="M129.6522,-112.3733C108.5967,-103.3032 76.8505,-89.6279 53.2825,-79.4755"/>
<polygon fill="#191970" stroke="#191970" points="54.625,-76.243 44.0562,-75.5011 51.8556,-82.6719 54.625,-76.243"/>
</g>
<!-- Node3 -->
<g id="node4" class="node">
<title>Node3</title>
<g id="a_node4"><a xlink:href="Utils_8h.html" target="_top" xlink:title="iDynTree/Core/Utils.h">
<polygon fill="none" stroke="#000000" points="100.5,-56.5 100.5,-75.5 219.5,-75.5 219.5,-56.5 100.5,-56.5"/>
<text text-anchor="middle" x="160" y="-63.5" font-family="FreeSans.ttf" font-size="10.00" fill="#000000">iDynTree/Core/Utils.h</text>
</a>
</g>
</g>
<!-- Node2&#45;&gt;Node3 -->
<g id="edge3" class="edge">
<title>Node2&#45;&gt;Node3</title>
<path fill="none" stroke="#191970" d="M153.3935,-112.2455C154.4374,-104.9382 155.9008,-94.6944 157.1851,-85.7046"/>
<polygon fill="#191970" stroke="#191970" points="160.673,-86.0372 158.6225,-75.6427 153.7434,-85.0472 160.673,-86.0372"/>
</g>
<!-- Node4 -->
<g id="node5" class="node">
<title>Node4</title>
<polygon fill="none" stroke="#bfbfbf" points="47.5,-.5 47.5,-19.5 100.5,-19.5 100.5,-.5 47.5,-.5"/>
<text text-anchor="middle" x="74" y="-7.5" font-family="FreeSans.ttf" font-size="10.00" fill="#000000">cstddef</text>
</g>
<!-- Node2&#45;&gt;Node4 -->
<g id="edge7" class="edge">
<title>Node2&#45;&gt;Node4</title>
<path fill="none" stroke="#191970" d="M133.2762,-112.4133C119.5766,-104.4568 101.6009,-91.8881 91,-76 81.7762,-62.1758 77.5564,-43.654 75.6262,-29.7505"/>
<polygon fill="#191970" stroke="#191970" points="79.1001,-29.3206 74.5173,-19.7682 72.1429,-30.0936 79.1001,-29.3206"/>
</g>
<!-- Node6 -->
<g id="node7" class="node">
<title>Node6</title>
<polygon fill="none" stroke="#bfbfbf" points="237.5,-56.5 237.5,-75.5 284.5,-75.5 284.5,-56.5 237.5,-56.5"/>
<text text-anchor="middle" x="261" y="-63.5" font-family="FreeSans.ttf" font-size="10.00" fill="#000000">vector</text>
</g>
<!-- Node2&#45;&gt;Node6 -->
<g id="edge6" class="edge">
<title>Node2&#45;&gt;Node6</title>
<path fill="none" stroke="#191970" d="M170.9864,-112.2455C188.1792,-103.4125 213.7238,-90.2887 233.2132,-80.2758"/>
<polygon fill="#191970" stroke="#191970" points="234.9359,-83.3257 242.2312,-75.6427 231.737,-77.0993 234.9359,-83.3257"/>
</g>
<!-- Node7 -->
<g id="node8" class="node">
<title>Node7</title>
<polygon fill="none" stroke="#bfbfbf" points="303,-56.5 303,-75.5 389,-75.5 389,-56.5 303,-56.5"/>
<text text-anchor="middle" x="346" y="-63.5" font-family="FreeSans.ttf" font-size="10.00" fill="#000000">unordered_set</text>
</g>
<!-- Node2&#45;&gt;Node7 -->
<g id="edge8" class="edge">
<title>Node2&#45;&gt;Node7</title>
<path fill="none" stroke="#191970" d="M185.3498,-112.3733C218.028,-102.9404 267.9618,-88.5265 303.477,-78.2747"/>
<polygon fill="#191970" stroke="#191970" points="304.4484,-81.6373 313.0854,-75.5011 302.507,-74.9119 304.4484,-81.6373"/>
</g>
<!-- Node3&#45;&gt;Node4 -->
<g id="edge4" class="edge">
<title>Node3&#45;&gt;Node4</title>
<path fill="none" stroke="#191970" d="M145.0199,-56.2455C131.8249,-47.6534 112.3949,-35.0014 97.1921,-25.1018"/>
<polygon fill="#191970" stroke="#191970" points="99.0983,-22.1665 88.8084,-19.6427 95.2785,-28.0325 99.0983,-22.1665"/>
</g>
<!-- Node5 -->
<g id="node6" class="node">
<title>Node5</title>
<polygon fill="none" stroke="#bfbfbf" points="120,-.5 120,-19.5 200,-19.5 200,-.5 120,-.5"/>
<text text-anchor="middle" x="160" y="-7.5" font-family="FreeSans.ttf" font-size="10.00" fill="#000000">CoreExport.h</text>
</g>
<!-- Node3&#45;&gt;Node5 -->
<g id="edge5" class="edge">
<title>Node3&#45;&gt;Node5</title>
<path fill="none" stroke="#191970" d="M160,-56.2455C160,-48.9382 160,-38.6944 160,-29.7046"/>
<polygon fill="#191970" stroke="#191970" points="163.5001,-29.6426 160,-19.6427 156.5001,-29.6427 163.5001,-29.6426"/>
</g>
</g>
</svg>
