<?xml version="1.0" encoding="UTF-8" standalone="no"?>
<!DOCTYPE svg PUBLIC "-//W3C//DTD SVG 1.1//EN"
 "http://www.w3.org/Graphics/SVG/1.1/DTD/svg11.dtd">
<!-- Generated by graphviz version 2.40.1 (20161225.0304)
 -->
<!-- Title: CubicSpline.cpp Pages: 1 -->
<svg width="1578pt" height="599pt"
 viewBox="0.00 0.00 1578.00 599.00" xmlns="http://www.w3.org/2000/svg" xmlns:xlink="http://www.w3.org/1999/xlink">
<g id="graph0" class="graph" transform="scale(1 1) rotate(0) translate(4 595)">
<title>CubicSpline.cpp</title>
<!-- Node0 -->
<g id="node1" class="node">
<title>Node0</title>
<polygon fill="#bfbfbf" stroke="#000000" points="1239.5,-571.5 1239.5,-590.5 1333.5,-590.5 1333.5,-571.5 1239.5,-571.5"/>
<text text-anchor="middle" x="1286.5" y="-578.5" font-family="FreeSans.ttf" font-size="10.00" fill="#000000">CubicSpline.cpp</text>
</g>
<!-- Node1 -->
<g id="node2" class="node">
<title>Node1</title>
<g id="a_node2"><a xlink:href="CubicSpline_8h.html" target="_top" xlink:title="iDynTree/Core/CubicSpline.h">
<polygon fill="none" stroke="#000000" points="40.5,-224.5 40.5,-243.5 194.5,-243.5 194.5,-224.5 40.5,-224.5"/>
<text text-anchor="middle" x="117.5" y="-231.5" font-family="FreeSans.ttf" font-size="10.00" fill="#000000">iDynTree/Core/CubicSpline.h</text>
</a>
</g>
</g>
<!-- Node0&#45;&gt;Node1 -->
<g id="edge1" class="edge">
<title>Node0&#45;&gt;Node1</title>
<path fill="none" stroke="#191970" d="M1239.1813,-579.0299C1012.7211,-569.2966 50.5,-524.3594 50.5,-463.5 50.5,-463.5 50.5,-463.5 50.5,-346 50.5,-307.7946 79.5669,-271.3286 99.4102,-250.8854"/>
<polygon fill="#191970" stroke="#191970" points="102.097,-253.1503 106.7353,-243.6248 97.1691,-248.1788 102.097,-253.1503"/>
</g>
<!-- Node20 -->
<g id="node21" class="node">
<title>Node20</title>
<g id="a_node21"><a xlink:href="EigenHelpers_8h.html" target="_top" xlink:title="iDynTree/Core/EigenHelpers.h">
<polygon fill="none" stroke="#000000" points="815,-515.5 815,-534.5 976,-534.5 976,-515.5 815,-515.5"/>
<text text-anchor="middle" x="895.5" y="-522.5" font-family="FreeSans.ttf" font-size="10.00" fill="#000000">iDynTree/Core/EigenHelpers.h</text>
</a>
</g>
</g>
<!-- Node0&#45;&gt;Node20 -->
<g id="edge24" class="edge">
<title>Node0&#45;&gt;Node20</title>
<path fill="none" stroke="#191970" d="M1239.3363,-574.2451C1173.0128,-564.7461 1051.4344,-547.3333 972.0565,-535.9646"/>
<polygon fill="#191970" stroke="#191970" points="972.506,-532.4934 962.1108,-534.5402 971.5135,-539.4226 972.506,-532.4934"/>
</g>
<!-- Node21 -->
<g id="node22" class="node">
<title>Node21</title>
<polygon fill="none" stroke="#bfbfbf" points="1181,-454 1181,-473 1258,-473 1258,-454 1181,-454"/>
<text text-anchor="middle" x="1219.5" y="-461" font-family="FreeSans.ttf" font-size="10.00" fill="#000000">Eigen/Dense</text>
</g>
<!-- Node0&#45;&gt;Node21 -->
<g id="edge75" class="edge">
<title>Node0&#45;&gt;Node21</title>
<path fill="none" stroke="#191970" d="M1281.0171,-571.3845C1269.9257,-551.9331 1244.6543,-507.6138 1230.1893,-482.2462"/>
<polygon fill="#191970" stroke="#191970" points="1233.0526,-480.2017 1225.0587,-473.2484 1226.9717,-483.6691 1233.0526,-480.2017"/>
</g>
<!-- Node25 -->
<g id="node26" class="node">
<title>Node25</title>
<polygon fill="none" stroke="#bfbfbf" points="1199.5,-112.5 1199.5,-131.5 1259.5,-131.5 1259.5,-112.5 1199.5,-112.5"/>
<text text-anchor="middle" x="1229.5" y="-119.5" font-family="FreeSans.ttf" font-size="10.00" fill="#000000">iostream</text>
</g>
<!-- Node0&#45;&gt;Node25 -->
<g id="edge78" class="edge">
<title>Node0&#45;&gt;Node25</title>
<path fill="none" stroke="#191970" d="M1285.3382,-571.3924C1279.8547,-526.0876 1255.9733,-329.2591 1235.5,-168 1234.3982,-159.3213 1233.1511,-149.7256 1232.0805,-141.5536"/>
<polygon fill="#191970" stroke="#191970" points="1235.534,-140.9706 1230.76,-131.5123 1228.5938,-141.8833 1235.534,-140.9706"/>
</g>
<!-- Node35 -->
<g id="node36" class="node">
<title>Node35</title>
<polygon fill="none" stroke="#bfbfbf" points="1314.5,-515.5 1314.5,-534.5 1394.5,-534.5 1394.5,-515.5 1314.5,-515.5"/>
<text text-anchor="middle" x="1354.5" y="-522.5" font-family="FreeSans.ttf" font-size="10.00" fill="#000000">Eigen/Sparse</text>
</g>
<!-- Node0&#45;&gt;Node35 -->
<g id="edge76" class="edge">
<title>Node0&#45;&gt;Node35</title>
<path fill="none" stroke="#191970" d="M1298.3447,-571.2455C1308.388,-562.9746 1322.9995,-550.9416 1334.8004,-541.2232"/>
<polygon fill="#191970" stroke="#191970" points="1337.2967,-543.7015 1342.791,-534.6427 1332.8467,-538.298 1337.2967,-543.7015"/>
</g>
<!-- Node36 -->
<g id="node37" class="node">
<title>Node36</title>
<polygon fill="none" stroke="#bfbfbf" points="1412.5,-515.5 1412.5,-534.5 1504.5,-534.5 1504.5,-515.5 1412.5,-515.5"/>
<text text-anchor="middle" x="1458.5" y="-522.5" font-family="FreeSans.ttf" font-size="10.00" fill="#000000">Eigen/SparseLU</text>
</g>
<!-- Node0&#45;&gt;Node36 -->
<g id="edge77" class="edge">
<title>Node0&#45;&gt;Node36</title>
<path fill="none" stroke="#191970" d="M1316.0679,-571.3733C1344.6688,-562.0613 1388.1788,-547.8953 1419.5819,-537.671"/>
<polygon fill="#191970" stroke="#191970" points="1420.8928,-540.9251 1429.318,-534.5011 1418.7257,-534.269 1420.8928,-540.9251"/>
</g>
<!-- Node37 -->
<g id="node38" class="node">
<title>Node37</title>
<polygon fill="none" stroke="#bfbfbf" points="1523,-515.5 1523,-534.5 1570,-534.5 1570,-515.5 1523,-515.5"/>
<text text-anchor="middle" x="1546.5" y="-522.5" font-family="FreeSans.ttf" font-size="10.00" fill="#000000">cmath</text>
</g>
<!-- Node0&#45;&gt;Node37 -->
<g id="edge79" class="edge">
<title>Node0&#45;&gt;Node37</title>
<path fill="none" stroke="#191970" d="M1333.7452,-572.7693C1377.704,-564.8107 1445.2006,-551.828 1512.8087,-534.9913"/>
<polygon fill="#191970" stroke="#191970" points="1513.9395,-538.3159 1522.7817,-532.4794 1512.2297,-531.5279 1513.9395,-538.3159"/>
</g>
<!-- Node2 -->
<g id="node3" class="node">
<title>Node2</title>
<polygon fill="none" stroke="#bfbfbf" points="185,-168.5 185,-187.5 232,-187.5 232,-168.5 185,-168.5"/>
<text text-anchor="middle" x="208.5" y="-175.5" font-family="FreeSans.ttf" font-size="10.00" fill="#000000">vector</text>
</g>
<!-- Node1&#45;&gt;Node2 -->
<g id="edge2" class="edge">
<title>Node1&#45;&gt;Node2</title>
<path fill="none" stroke="#191970" d="M133.351,-224.2455C147.3132,-215.6534 167.8728,-203.0014 183.9596,-193.1018"/>
<polygon fill="#191970" stroke="#191970" points="186.1484,-195.8645 192.8307,-187.6427 182.4797,-189.9029 186.1484,-195.8645"/>
</g>
<!-- Node3 -->
<g id="node4" class="node">
<title>Node3</title>
<g id="a_node4"><a xlink:href="VectorFixSize_8h.html" target="_top" xlink:title="iDynTree/Core/VectorFixSize.h">
<polygon fill="none" stroke="#000000" points="804,-168.5 804,-187.5 965,-187.5 965,-168.5 804,-168.5"/>
<text text-anchor="middle" x="884.5" y="-175.5" font-family="FreeSans.ttf" font-size="10.00" fill="#000000">iDynTree/Core/VectorFixSize.h</text>
</a>
</g>
</g>
<!-- Node1&#45;&gt;Node3 -->
<g id="edge3" class="edge">
<title>Node1&#45;&gt;Node3</title>
<path fill="none" stroke="#191970" d="M194.747,-229.8303C318.637,-222.9041 569.6801,-207.8888 793.2739,-188.0753"/>
<polygon fill="#191970" stroke="#191970" points="793.9136,-191.5323 803.5634,-187.1584 793.2921,-184.5599 793.9136,-191.5323"/>
</g>
<!-- Node19 -->
<g id="node20" class="node">
<title>Node19</title>
<g id="a_node20"><a xlink:href="VectorDynSize_8h.html" target="_top" xlink:title="iDynTree/Core/VectorDynSize.h">
<polygon fill="none" stroke="#000000" points="0,-168.5 0,-187.5 167,-187.5 167,-168.5 0,-168.5"/>
<text text-anchor="middle" x="83.5" y="-175.5" font-family="FreeSans.ttf" font-size="10.00" fill="#000000">iDynTree/Core/VectorDynSize.h</text>
</a>
</g>
</g>
<!-- Node1&#45;&gt;Node19 -->
<g id="edge21" class="edge">
<title>Node1&#45;&gt;Node19</title>
<path fill="none" stroke="#191970" d="M111.5777,-224.2455C106.8973,-216.5367 100.2327,-205.5598 94.5711,-196.2348"/>
<polygon fill="#191970" stroke="#191970" points="97.5361,-194.3741 89.3545,-187.6427 91.5525,-198.007 97.5361,-194.3741"/>
</g>
<!-- Node4 -->
<g id="node5" class="node">
<title>Node4</title>
<g id="a_node5"><a xlink:href="Utils_8h.html" target="_top" xlink:title="iDynTree/Core/Utils.h">
<polygon fill="none" stroke="#000000" points="913,-56.5 913,-75.5 1032,-75.5 1032,-56.5 913,-56.5"/>
<text text-anchor="middle" x="972.5" y="-63.5" font-family="FreeSans.ttf" font-size="10.00" fill="#000000">iDynTree/Core/Utils.h</text>
</a>
</g>
</g>
<!-- Node3&#45;&gt;Node4 -->
<g id="edge4" class="edge">
<title>Node3&#45;&gt;Node4</title>
<path fill="none" stroke="#191970" d="M892.0028,-168.4509C906.8101,-149.6054 939.9833,-107.3849 958.7957,-83.4419"/>
<polygon fill="#191970" stroke="#191970" points="961.59,-85.5505 965.0162,-75.5249 956.0858,-81.2257 961.59,-85.5505"/>
</g>
<!-- Node7 -->
<g id="node8" class="node">
<title>Node7</title>
<g id="a_node8"><a xlink:href="Span_8h.html" target="_top" xlink:title="iDynTree/Core/Span.h">
<polygon fill="none" stroke="#000000" points="515,-56.5 515,-75.5 636,-75.5 636,-56.5 515,-56.5"/>
<text text-anchor="middle" x="575.5" y="-63.5" font-family="FreeSans.ttf" font-size="10.00" fill="#000000">iDynTree/Core/Span.h</text>
</a>
</g>
</g>
<!-- Node3&#45;&gt;Node7 -->
<g id="edge7" class="edge">
<title>Node3&#45;&gt;Node7</title>
<path fill="none" stroke="#191970" d="M878.9611,-168.0729C870.1381,-153.2669 851.4196,-125.6794 827.5,-112 797.2219,-94.6842 709.4385,-81.3181 645.9875,-73.5625"/>
<polygon fill="#191970" stroke="#191970" points="646.3714,-70.0836 636.0254,-72.3662 645.5368,-77.0336 646.3714,-70.0836"/>
</g>
<!-- Node8 -->
<g id="node9" class="node">
<title>Node8</title>
<polygon fill="none" stroke="#bfbfbf" points="766.5,-.5 766.5,-19.5 818.5,-19.5 818.5,-.5 766.5,-.5"/>
<text text-anchor="middle" x="792.5" y="-7.5" font-family="FreeSans.ttf" font-size="10.00" fill="#000000">cassert</text>
</g>
<!-- Node3&#45;&gt;Node8 -->
<g id="edge19" class="edge">
<title>Node3&#45;&gt;Node8</title>
<path fill="none" stroke="#191970" d="M880.3766,-168.4547C874.6942,-155.4883 863.967,-131.6688 853.5,-112 837.5171,-81.9662 816.8172,-48.3065 804.1071,-28.1513"/>
<polygon fill="#191970" stroke="#191970" points="807.0323,-26.2287 798.72,-19.6594 801.1214,-29.9785 807.0323,-26.2287"/>
</g>
<!-- Node16 -->
<g id="node17" class="node">
<title>Node16</title>
<polygon fill="none" stroke="#bfbfbf" points="352.5,-112.5 352.5,-131.5 396.5,-131.5 396.5,-112.5 352.5,-112.5"/>
<text text-anchor="middle" x="374.5" y="-119.5" font-family="FreeSans.ttf" font-size="10.00" fill="#000000">string</text>
</g>
<!-- Node3&#45;&gt;Node16 -->
<g id="edge17" class="edge">
<title>Node3&#45;&gt;Node16</title>
<path fill="none" stroke="#191970" d="M803.5476,-168.9992C800.4931,-168.6615 797.469,-168.3275 794.5,-168 649.9046,-152.0486 477.2835,-133.2055 406.8359,-125.5241"/>
<polygon fill="#191970" stroke="#191970" points="407.1325,-122.0358 396.8121,-124.4312 406.3738,-128.9945 407.1325,-122.0358"/>
</g>
<!-- Node17 -->
<g id="node18" class="node">
<title>Node17</title>
<polygon fill="none" stroke="#bfbfbf" points="950.5,-112.5 950.5,-131.5 1006.5,-131.5 1006.5,-112.5 950.5,-112.5"/>
<text text-anchor="middle" x="978.5" y="-119.5" font-family="FreeSans.ttf" font-size="10.00" fill="#000000">sstream</text>
</g>
<!-- Node3&#45;&gt;Node17 -->
<g id="edge18" class="edge">
<title>Node3&#45;&gt;Node17</title>
<path fill="none" stroke="#191970" d="M900.8736,-168.2455C915.4308,-159.5731 936.931,-146.7645 953.6152,-136.825"/>
<polygon fill="#191970" stroke="#191970" points="955.5144,-139.7676 962.3141,-131.6427 951.9317,-133.7539 955.5144,-139.7676"/>
</g>
<!-- Node18 -->
<g id="node19" class="node">
<title>Node18</title>
<polygon fill="none" stroke="#bfbfbf" points="768.5,-112.5 768.5,-131.5 818.5,-131.5 818.5,-112.5 768.5,-112.5"/>
<text text-anchor="middle" x="793.5" y="-119.5" font-family="FreeSans.ttf" font-size="10.00" fill="#000000">cstring</text>
</g>
<!-- Node3&#45;&gt;Node18 -->
<g id="edge20" class="edge">
<title>Node3&#45;&gt;Node18</title>
<path fill="none" stroke="#191970" d="M868.649,-168.2455C854.6868,-159.6534 834.1272,-147.0014 818.0404,-137.1018"/>
<polygon fill="#191970" stroke="#191970" points="819.5203,-133.9029 809.1693,-131.6427 815.8516,-139.8645 819.5203,-133.9029"/>
</g>
<!-- Node5 -->
<g id="node6" class="node">
<title>Node5</title>
<polygon fill="none" stroke="#bfbfbf" points="853,-.5 853,-19.5 906,-19.5 906,-.5 853,-.5"/>
<text text-anchor="middle" x="879.5" y="-7.5" font-family="FreeSans.ttf" font-size="10.00" fill="#000000">cstddef</text>
</g>
<!-- Node4&#45;&gt;Node5 -->
<g id="edge5" class="edge">
<title>Node4&#45;&gt;Node5</title>
<path fill="none" stroke="#191970" d="M956.3006,-56.2455C941.8982,-47.5731 920.6268,-34.7645 904.1201,-24.825"/>
<polygon fill="#191970" stroke="#191970" points="905.886,-21.8028 895.5137,-19.6427 902.275,-27.7996 905.886,-21.8028"/>
</g>
<!-- Node6 -->
<g id="node7" class="node">
<title>Node6</title>
<polygon fill="none" stroke="#bfbfbf" points="932.5,-.5 932.5,-19.5 1012.5,-19.5 1012.5,-.5 932.5,-.5"/>
<text text-anchor="middle" x="972.5" y="-7.5" font-family="FreeSans.ttf" font-size="10.00" fill="#000000">CoreExport.h</text>
</g>
<!-- Node4&#45;&gt;Node6 -->
<g id="edge6" class="edge">
<title>Node4&#45;&gt;Node6</title>
<path fill="none" stroke="#191970" d="M972.5,-56.2455C972.5,-48.9382 972.5,-38.6944 972.5,-29.7046"/>
<polygon fill="#191970" stroke="#191970" points="976.0001,-29.6426 972.5,-19.6427 969.0001,-29.6427 976.0001,-29.6426"/>
</g>
<!-- Node7&#45;&gt;Node5 -->
<g id="edge11" class="edge">
<title>Node7&#45;&gt;Node5</title>
<path fill="none" stroke="#191970" d="M628.6223,-56.4533C679.6402,-47.2493 758.8724,-32.8621 827.5,-20 832.3822,-19.085 837.5199,-18.1108 842.5878,-17.1431"/>
<polygon fill="#191970" stroke="#191970" points="843.6263,-20.5078 852.7881,-15.187 842.3079,-13.633 843.6263,-20.5078"/>
</g>
<!-- Node7&#45;&gt;Node8 -->
<g id="edge8" class="edge">
<title>Node7&#45;&gt;Node8</title>
<path fill="none" stroke="#191970" d="M614.6433,-56.4756C649.4704,-47.919 702.0302,-34.8055 756.3508,-20.2574"/>
<polygon fill="#191970" stroke="#191970" points="757.4028,-23.5989 766.1508,-17.6221 755.585,-16.8391 757.4028,-23.5989"/>
</g>
<!-- Node9 -->
<g id="node10" class="node">
<title>Node9</title>
<polygon fill="none" stroke="#bfbfbf" points="624.5,-.5 624.5,-19.5 688.5,-19.5 688.5,-.5 624.5,-.5"/>
<text text-anchor="middle" x="656.5" y="-7.5" font-family="FreeSans.ttf" font-size="10.00" fill="#000000">algorithm</text>
</g>
<!-- Node7&#45;&gt;Node9 -->
<g id="edge9" class="edge">
<title>Node7&#45;&gt;Node9</title>
<path fill="none" stroke="#191970" d="M589.6091,-56.2455C601.9209,-47.7337 619.9958,-35.2375 634.2538,-25.3801"/>
<polygon fill="#191970" stroke="#191970" points="636.3174,-28.2085 642.5526,-19.6427 632.3366,-22.4506 636.3174,-28.2085"/>
</g>
<!-- Node10 -->
<g id="node11" class="node">
<title>Node10</title>
<polygon fill="none" stroke="#bfbfbf" points="706.5,-.5 706.5,-19.5 748.5,-19.5 748.5,-.5 706.5,-.5"/>
<text text-anchor="middle" x="727.5" y="-7.5" font-family="FreeSans.ttf" font-size="10.00" fill="#000000">array</text>
</g>
<!-- Node7&#45;&gt;Node10 -->
<g id="edge10" class="edge">
<title>Node7&#45;&gt;Node10</title>
<path fill="none" stroke="#191970" d="M601.6297,-56.3733C627.9375,-46.6809 668.5191,-31.7298 696.453,-21.4384"/>
<polygon fill="#191970" stroke="#191970" points="697.9489,-24.6173 706.1223,-17.876 695.5289,-18.0489 697.9489,-24.6173"/>
</g>
<!-- Node11 -->
<g id="node12" class="node">
<title>Node11</title>
<polygon fill="none" stroke="#bfbfbf" points="344,-.5 344,-19.5 397,-19.5 397,-.5 344,-.5"/>
<text text-anchor="middle" x="370.5" y="-7.5" font-family="FreeSans.ttf" font-size="10.00" fill="#000000">iterator</text>
</g>
<!-- Node7&#45;&gt;Node11 -->
<g id="edge12" class="edge">
<title>Node7&#45;&gt;Node11</title>
<path fill="none" stroke="#191970" d="M540.204,-56.4501C508.0081,-47.7262 458.8616,-34.3777 406.9532,-20.1151"/>
<polygon fill="#191970" stroke="#191970" points="407.8022,-16.7187 397.2321,-17.4422 405.9463,-23.4682 407.8022,-16.7187"/>
</g>
<!-- Node12 -->
<g id="node13" class="node">
<title>Node12</title>
<polygon fill="none" stroke="#bfbfbf" points="415.5,-.5 415.5,-19.5 459.5,-19.5 459.5,-.5 415.5,-.5"/>
<text text-anchor="middle" x="437.5" y="-7.5" font-family="FreeSans.ttf" font-size="10.00" fill="#000000">limits</text>
</g>
<!-- Node7&#45;&gt;Node12 -->
<g id="edge13" class="edge">
<title>Node7&#45;&gt;Node12</title>
<path fill="none" stroke="#191970" d="M551.777,-56.3733C528.9182,-47.0972 494.1896,-33.0045 469.017,-22.7895"/>
<polygon fill="#191970" stroke="#191970" points="470.13,-19.464 459.5478,-18.9469 467.4978,-25.9503 470.13,-19.464"/>
</g>
<!-- Node13 -->
<g id="node14" class="node">
<title>Node13</title>
<polygon fill="none" stroke="#bfbfbf" points="478,-.5 478,-19.5 543,-19.5 543,-.5 478,-.5"/>
<text text-anchor="middle" x="510.5" y="-7.5" font-family="FreeSans.ttf" font-size="10.00" fill="#000000">stdexcept</text>
</g>
<!-- Node7&#45;&gt;Node13 -->
<g id="edge14" class="edge">
<title>Node7&#45;&gt;Node13</title>
<path fill="none" stroke="#191970" d="M564.1779,-56.2455C554.5777,-47.9746 540.6108,-35.9416 529.3305,-26.2232"/>
<polygon fill="#191970" stroke="#191970" points="531.553,-23.5182 521.6924,-19.6427 526.984,-28.8214 531.553,-23.5182"/>
</g>
<!-- Node14 -->
<g id="node15" class="node">
<title>Node14</title>
<polygon fill="none" stroke="#bfbfbf" points="257,-.5 257,-19.5 326,-19.5 326,-.5 257,-.5"/>
<text text-anchor="middle" x="291.5" y="-7.5" font-family="FreeSans.ttf" font-size="10.00" fill="#000000">type_traits</text>
</g>
<!-- Node7&#45;&gt;Node14 -->
<g id="edge15" class="edge">
<title>Node7&#45;&gt;Node14</title>
<path fill="none" stroke="#191970" d="M522.2498,-56.4663C475.5318,-47.9593 405.5216,-34.8672 336.0099,-20.2666"/>
<polygon fill="#191970" stroke="#191970" points="336.7147,-16.8383 326.2073,-18.1967 335.2685,-23.6872 336.7147,-16.8383"/>
</g>
<!-- Node15 -->
<g id="node16" class="node">
<title>Node15</title>
<polygon fill="none" stroke="#bfbfbf" points="561,-.5 561,-19.5 606,-19.5 606,-.5 561,-.5"/>
<text text-anchor="middle" x="583.5" y="-7.5" font-family="FreeSans.ttf" font-size="10.00" fill="#000000">utility</text>
</g>
<!-- Node7&#45;&gt;Node15 -->
<g id="edge16" class="edge">
<title>Node7&#45;&gt;Node15</title>
<path fill="none" stroke="#191970" d="M576.8935,-56.2455C577.9374,-48.9382 579.4008,-38.6944 580.6851,-29.7046"/>
<polygon fill="#191970" stroke="#191970" points="584.173,-30.0372 582.1225,-19.6427 577.2434,-29.0472 584.173,-30.0372"/>
</g>
<!-- Node19&#45;&gt;Node7 -->
<g id="edge22" class="edge">
<title>Node19&#45;&gt;Node7</title>
<path fill="none" stroke="#191970" d="M118.6832,-168.4395C168.5276,-155.0388 262.6419,-130.2655 343.5,-112 400.7781,-99.0612 466.4599,-86.2235 513.2825,-77.4117"/>
<polygon fill="#191970" stroke="#191970" points="514.0901,-80.8213 523.274,-75.5385 512.8002,-73.9412 514.0901,-80.8213"/>
</g>
<!-- Node19&#45;&gt;Node16 -->
<g id="edge23" class="edge">
<title>Node19&#45;&gt;Node16</title>
<path fill="none" stroke="#191970" d="M133.194,-168.4369C192.9049,-156.9461 291.3676,-137.998 342.0819,-128.2385"/>
<polygon fill="#191970" stroke="#191970" points="342.9896,-131.6282 352.148,-126.3014 341.6667,-124.7543 342.9896,-131.6282"/>
</g>
<!-- Node20&#45;&gt;Node3 -->
<g id="edge27" class="edge">
<title>Node20&#45;&gt;Node3</title>
<path fill="none" stroke="#191970" d="M903.4483,-515.1606C910.5454,-506.1024 920.9548,-492.1213 928.5,-479 949.6232,-442.2663 949.6678,-430.4391 967.5,-392 998.2017,-325.8194 1022.3192,-315.1383 1038.5,-244 1040.4715,-235.3325 1043.8103,-231.1283 1038.5,-224 1027.5673,-209.3244 987.4086,-197.6114 950.8433,-189.6777"/>
<polygon fill="#191970" stroke="#191970" points="951.1581,-186.1677 940.6526,-187.5409 949.7215,-193.0187 951.1581,-186.1677"/>
</g>
<!-- Node20&#45;&gt;Node4 -->
<g id="edge74" class="edge">
<title>Node20&#45;&gt;Node4</title>
<path fill="none" stroke="#191970" d="M976.2843,-516.0994C1034.8371,-508.4143 1108.0211,-495.8808 1133.5,-479 1181.7804,-447.0123 1287.5,-313.528 1287.5,-234 1287.5,-234 1287.5,-234 1287.5,-178 1287.5,-147.4754 1291.4015,-132.181 1268.5,-112 1235.7795,-83.1665 1118.8814,-72.3693 1042.1491,-68.3515"/>
<polygon fill="#191970" stroke="#191970" points="1042.2294,-64.8512 1032.0679,-67.8503 1041.8817,-71.8426 1042.2294,-64.8512"/>
</g>
<!-- Node20&#45;&gt;Node19 -->
<g id="edge26" class="edge">
<title>Node20&#45;&gt;Node19</title>
<path fill="none" stroke="#191970" d="M814.9215,-521.9051C678.6747,-516.1193 408.6206,-502.115 316.5,-479 173.4584,-443.1078 12.5,-493.4759 12.5,-346 12.5,-346 12.5,-346 12.5,-290 12.5,-259.4754 15.1973,-249.8065 31.5,-224 38.9432,-212.2177 50.2707,-201.6947 60.4553,-193.697"/>
<polygon fill="#191970" stroke="#191970" points="62.7066,-196.3843 68.6311,-187.6008 58.5222,-190.7725 62.7066,-196.3843"/>
</g>
<!-- Node20&#45;&gt;Node21 -->
<g id="edge25" class="edge">
<title>Node20&#45;&gt;Node21</title>
<path fill="none" stroke="#191970" d="M964.9988,-515.4796C1020.0069,-507.398 1098.6034,-494.6348 1166.5,-479 1170.6515,-478.044 1174.9587,-476.9529 1179.2424,-475.8023"/>
<polygon fill="#191970" stroke="#191970" points="1180.4215,-479.107 1189.111,-473.0455 1178.538,-472.3652 1180.4215,-479.107"/>
</g>
<!-- Node22 -->
<g id="node23" class="node">
<title>Node22</title>
<g id="a_node23"><a xlink:href="MatrixDynSize_8h.html" target="_top" xlink:title="iDynTree/Core/MatrixDynSize.h">
<polygon fill="none" stroke="#000000" points="440,-168.5 440,-187.5 607,-187.5 607,-168.5 440,-168.5"/>
<text text-anchor="middle" x="523.5" y="-175.5" font-family="FreeSans.ttf" font-size="10.00" fill="#000000">iDynTree/Core/MatrixDynSize.h</text>
</a>
</g>
</g>
<!-- Node20&#45;&gt;Node22 -->
<g id="edge28" class="edge">
<title>Node20&#45;&gt;Node22</title>
<path fill="none" stroke="#191970" d="M814.989,-518.6152C636.3531,-503.3677 222.5,-461.6105 222.5,-402 222.5,-402 222.5,-402 222.5,-290 222.5,-240.7411 365.8879,-206.1252 454.732,-189.4048"/>
<polygon fill="#191970" stroke="#191970" points="455.5532,-192.8124 464.7496,-187.5515 454.2798,-185.9292 455.5532,-192.8124"/>
</g>
<!-- Node24 -->
<g id="node25" class="node">
<title>Node24</title>
<g id="a_node25"><a xlink:href="MatrixFixSize_8h.html" target="_top" xlink:title="iDynTree/Core/MatrixFixSize.h">
<polygon fill="none" stroke="#000000" points="625,-168.5 625,-187.5 786,-187.5 786,-168.5 625,-168.5"/>
<text text-anchor="middle" x="705.5" y="-175.5" font-family="FreeSans.ttf" font-size="10.00" fill="#000000">iDynTree/Core/MatrixFixSize.h</text>
</a>
</g>
</g>
<!-- Node20&#45;&gt;Node24 -->
<g id="edge35" class="edge">
<title>Node20&#45;&gt;Node24</title>
<path fill="none" stroke="#191970" d="M814.7914,-515.7395C701.897,-500.5007 510.5,-465.3271 510.5,-402 510.5,-402 510.5,-402 510.5,-346 510.5,-285.77 524.3481,-263.8618 569.5,-224 587.9751,-207.6895 612.4666,-197.1162 635.571,-190.2814"/>
<polygon fill="#191970" stroke="#191970" points="636.6595,-193.6119 645.3664,-187.5753 634.7954,-186.8647 636.6595,-193.6119"/>
</g>
<!-- Node26 -->
<g id="node27" class="node">
<title>Node26</title>
<g id="a_node27"><a xlink:href="SpatialMotionVector_8h.html" target="_top" xlink:title="iDynTree/Core/SpatialMotion\lVector.h">
<polygon fill="none" stroke="#000000" points="765,-448.5 765,-478.5 920,-478.5 920,-448.5 765,-448.5"/>
<text text-anchor="start" x="773" y="-466.5" font-family="FreeSans.ttf" font-size="10.00" fill="#000000">iDynTree/Core/SpatialMotion</text>
<text text-anchor="middle" x="842.5" y="-455.5" font-family="FreeSans.ttf" font-size="10.00" fill="#000000">Vector.h</text>
</a>
</g>
</g>
<!-- Node20&#45;&gt;Node26 -->
<g id="edge43" class="edge">
<title>Node20&#45;&gt;Node26</title>
<path fill="none" stroke="#191970" d="M887.2188,-515.3906C880.5108,-507.6068 870.7841,-496.3202 862.1141,-486.2597"/>
<polygon fill="#191970" stroke="#191970" points="864.6448,-483.8349 855.4653,-478.5446 859.3422,-488.4046 864.6448,-483.8349"/>
</g>
<!-- Node33 -->
<g id="node34" class="node">
<title>Node33</title>
<g id="a_node34"><a xlink:href="SpatialForceVector_8h.html" target="_top" xlink:title="iDynTree/Core/SpatialForce\lVector.h">
<polygon fill="none" stroke="#000000" points="976.5,-448.5 976.5,-478.5 1124.5,-478.5 1124.5,-448.5 976.5,-448.5"/>
<text text-anchor="start" x="984.5" y="-466.5" font-family="FreeSans.ttf" font-size="10.00" fill="#000000">iDynTree/Core/SpatialForce</text>
<text text-anchor="middle" x="1050.5" y="-455.5" font-family="FreeSans.ttf" font-size="10.00" fill="#000000">Vector.h</text>
</a>
</g>
</g>
<!-- Node20&#45;&gt;Node33 -->
<g id="edge65" class="edge">
<title>Node20&#45;&gt;Node33</title>
<path fill="none" stroke="#191970" d="M919.7188,-515.3906C941.9586,-506.5664 975.5445,-493.2404 1003.1114,-482.3026"/>
<polygon fill="#191970" stroke="#191970" points="1004.5785,-485.486 1012.5827,-478.5446 1001.9968,-478.9794 1004.5785,-485.486"/>
</g>
<!-- Node34 -->
<g id="node35" class="node">
<title>Node34</title>
<g id="a_node35"><a xlink:href="Transform_8h.html" target="_top" xlink:title="iDynTree/Core/Transform.h">
<polygon fill="none" stroke="#000000" points="615.5,-392.5 615.5,-411.5 761.5,-411.5 761.5,-392.5 615.5,-392.5"/>
<text text-anchor="middle" x="688.5" y="-399.5" font-family="FreeSans.ttf" font-size="10.00" fill="#000000">iDynTree/Core/Transform.h</text>
</a>
</g>
</g>
<!-- Node20&#45;&gt;Node34 -->
<g id="edge69" class="edge">
<title>Node20&#45;&gt;Node34</title>
<path fill="none" stroke="#191970" d="M845.2999,-515.4205C817.2357,-508.4329 782.569,-496.9715 755.5,-479 732.0824,-463.4527 711.9613,-437.6092 700.0424,-420.1983"/>
<polygon fill="#191970" stroke="#191970" points="702.7324,-417.9209 694.2958,-411.5121 696.8944,-421.7833 702.7324,-417.9209"/>
</g>
<!-- Node22&#45;&gt;Node16 -->
<g id="edge29" class="edge">
<title>Node22&#45;&gt;Node16</title>
<path fill="none" stroke="#191970" d="M497.886,-168.3733C472.5421,-158.848 433.6844,-144.2438 406.3615,-133.9748"/>
<polygon fill="#191970" stroke="#191970" points="407.4555,-130.647 396.8635,-130.4051 404.9928,-137.1995 407.4555,-130.647"/>
</g>
<!-- Node23 -->
<g id="node24" class="node">
<title>Node23</title>
<g id="a_node24"><a xlink:href="MatrixView_8h.html" target="_top" xlink:title="iDynTree/Core/MatrixView.h">
<polygon fill="none" stroke="#000000" points="511,-112.5 511,-131.5 662,-131.5 662,-112.5 511,-112.5"/>
<text text-anchor="middle" x="586.5" y="-119.5" font-family="FreeSans.ttf" font-size="10.00" fill="#000000">iDynTree/Core/MatrixView.h</text>
</a>
</g>
</g>
<!-- Node22&#45;&gt;Node23 -->
<g id="edge30" class="edge">
<title>Node22&#45;&gt;Node23</title>
<path fill="none" stroke="#191970" d="M534.4738,-168.2455C543.6882,-160.0549 557.0532,-148.1749 567.9297,-138.5069"/>
<polygon fill="#191970" stroke="#191970" points="570.5032,-140.9023 575.652,-131.6427 565.8526,-135.6704 570.5032,-140.9023"/>
</g>
<!-- Node23&#45;&gt;Node4 -->
<g id="edge34" class="edge">
<title>Node23&#45;&gt;Node4</title>
<path fill="none" stroke="#191970" d="M652.4172,-112.4369C722.0932,-102.3284 831.5485,-86.4489 902.6711,-76.1306"/>
<polygon fill="#191970" stroke="#191970" points="903.4834,-79.5495 912.8772,-74.6499 902.4783,-72.622 903.4834,-79.5495"/>
</g>
<!-- Node23&#45;&gt;Node7 -->
<g id="edge33" class="edge">
<title>Node23&#45;&gt;Node7</title>
<path fill="none" stroke="#191970" d="M584.5839,-112.2455C583.1486,-104.9382 581.1364,-94.6944 579.3705,-85.7046"/>
<polygon fill="#191970" stroke="#191970" points="582.756,-84.7805 577.3941,-75.6427 575.8873,-86.1298 582.756,-84.7805"/>
</g>
<!-- Node23&#45;&gt;Node8 -->
<g id="edge31" class="edge">
<title>Node23&#45;&gt;Node8</title>
<path fill="none" stroke="#191970" d="M599.9379,-112.3229C619.0589,-98.7838 655.4691,-73.8469 688.5,-56 711.2922,-43.6852 738.0431,-31.9092 758.7063,-23.3552"/>
<polygon fill="#191970" stroke="#191970" points="760.0945,-26.5689 768.0256,-19.5441 757.4448,-20.0897 760.0945,-26.5689"/>
</g>
<!-- Node23&#45;&gt;Node14 -->
<g id="edge32" class="edge">
<title>Node23&#45;&gt;Node14</title>
<path fill="none" stroke="#191970" d="M561.3485,-112.4509C508.5538,-92.4069 386.1111,-45.9202 326.021,-23.1063"/>
<polygon fill="#191970" stroke="#191970" points="327.1791,-19.8022 316.5879,-19.5249 324.6945,-26.3465 327.1791,-19.8022"/>
</g>
<!-- Node24&#45;&gt;Node4 -->
<g id="edge36" class="edge">
<title>Node24&#45;&gt;Node4</title>
<path fill="none" stroke="#191970" d="M710.6656,-168.1679C718.9174,-153.4858 736.5131,-126.058 759.5,-112 783.3015,-97.4438 850.3815,-84.3911 902.9693,-75.9413"/>
<polygon fill="#191970" stroke="#191970" points="903.6098,-79.3836 912.941,-74.3657 902.5172,-72.4694 903.6098,-79.3836"/>
</g>
<!-- Node24&#45;&gt;Node8 -->
<g id="edge38" class="edge">
<title>Node24&#45;&gt;Node8</title>
<path fill="none" stroke="#191970" d="M709.1287,-168.4351C714.1527,-155.4465 723.7194,-131.6018 733.5,-112 748.4921,-81.9537 768.5142,-48.5046 780.9529,-28.3684"/>
<polygon fill="#191970" stroke="#191970" points="784.0815,-29.9653 786.3946,-19.626 778.1387,-26.2661 784.0815,-29.9653"/>
</g>
<!-- Node24&#45;&gt;Node16 -->
<g id="edge40" class="edge">
<title>Node24&#45;&gt;Node16</title>
<path fill="none" stroke="#191970" d="M648.9752,-168.4369C579.2426,-156.6392 463.0456,-136.9805 406.8702,-127.4765"/>
<polygon fill="#191970" stroke="#191970" points="407.2291,-123.9876 396.7853,-125.7703 406.0613,-130.8895 407.2291,-123.9876"/>
</g>
<!-- Node24&#45;&gt;Node17 -->
<g id="edge42" class="edge">
<title>Node24&#45;&gt;Node17</title>
<path fill="none" stroke="#191970" d="M752.1202,-168.4369C805.2941,-157.5294 891.2256,-139.9024 940.5062,-129.7936"/>
<polygon fill="#191970" stroke="#191970" points="941.3482,-133.1938 950.4409,-127.7557 939.9416,-126.3366 941.3482,-133.1938"/>
</g>
<!-- Node24&#45;&gt;Node18 -->
<g id="edge39" class="edge">
<title>Node24&#45;&gt;Node18</title>
<path fill="none" stroke="#191970" d="M720.8284,-168.2455C734.3303,-159.6534 754.2122,-147.0014 769.7686,-137.1018"/>
<polygon fill="#191970" stroke="#191970" points="771.7897,-139.9643 778.3472,-131.6427 768.0315,-134.0587 771.7897,-139.9643"/>
</g>
<!-- Node24&#45;&gt;Node23 -->
<g id="edge37" class="edge">
<title>Node24&#45;&gt;Node23</title>
<path fill="none" stroke="#191970" d="M685.0432,-168.3733C666.0262,-159.4241 637.4825,-145.9917 616.0024,-135.8835"/>
<polygon fill="#191970" stroke="#191970" points="617.2284,-132.5923 606.6899,-131.5011 614.2478,-138.926 617.2284,-132.5923"/>
</g>
<!-- Node24&#45;&gt;Node25 -->
<g id="edge41" class="edge">
<title>Node24&#45;&gt;Node25</title>
<path fill="none" stroke="#191970" d="M786.0276,-168.9281C788.8867,-168.6136 791.7177,-168.3034 794.5,-168 939.7875,-152.1561 1112.4663,-134.1376 1189.2473,-126.1678"/>
<polygon fill="#191970" stroke="#191970" points="1189.8467,-129.6245 1199.4321,-125.1112 1189.1243,-122.6619 1189.8467,-129.6245"/>
</g>
<!-- Node26&#45;&gt;Node3 -->
<g id="edge44" class="edge">
<title>Node26&#45;&gt;Node3</title>
<path fill="none" stroke="#191970" d="M841.6517,-448.2955C840.4775,-425.9046 838.5,-382.74 838.5,-346 838.5,-346 838.5,-346 838.5,-290 838.5,-254.66 858.3391,-217.4332 871.9597,-196.0395"/>
<polygon fill="#191970" stroke="#191970" points="874.9179,-197.9114 877.5136,-187.6394 869.0788,-194.0507 874.9179,-197.9114"/>
</g>
<!-- Node27 -->
<g id="node28" class="node">
<title>Node27</title>
<g id="a_node28"><a xlink:href="GeomVector3_8h.html" target="_top" xlink:title="iDynTree/Core/GeomVector3.h">
<polygon fill="none" stroke="#000000" points="867,-224.5 867,-243.5 1030,-243.5 1030,-224.5 867,-224.5"/>
<text text-anchor="middle" x="948.5" y="-231.5" font-family="FreeSans.ttf" font-size="10.00" fill="#000000">iDynTree/Core/GeomVector3.h</text>
</a>
</g>
</g>
<!-- Node26&#45;&gt;Node27 -->
<g id="edge45" class="edge">
<title>Node26&#45;&gt;Node27</title>
<path fill="none" stroke="#191970" d="M849.455,-448.4419C868.0854,-408.1052 919.0966,-297.6611 939.6975,-253.0583"/>
<polygon fill="#191970" stroke="#191970" points="942.9126,-254.4442 943.9283,-243.8981 936.5577,-251.509 942.9126,-254.4442"/>
</g>
<!-- Node28 -->
<g id="node29" class="node">
<title>Node28</title>
<g id="a_node29"><a xlink:href="SpatialVector_8h.html" target="_top" xlink:title="iDynTree/Core/SpatialVector.h">
<polygon fill="none" stroke="#000000" points="977,-392.5 977,-411.5 1138,-411.5 1138,-392.5 977,-392.5"/>
<text text-anchor="middle" x="1057.5" y="-399.5" font-family="FreeSans.ttf" font-size="10.00" fill="#000000">iDynTree/Core/SpatialVector.h</text>
</a>
</g>
</g>
<!-- Node26&#45;&gt;Node28 -->
<g id="edge47" class="edge">
<title>Node26&#45;&gt;Node28</title>
<path fill="none" stroke="#191970" d="M895.0949,-448.4554C931.7549,-437.9689 980.06,-424.1515 1014.4348,-414.3187"/>
<polygon fill="#191970" stroke="#191970" points="1015.5308,-417.6456 1024.1826,-411.5303 1013.6056,-410.9155 1015.5308,-417.6456"/>
</g>
<!-- Node27&#45;&gt;Node3 -->
<g id="edge46" class="edge">
<title>Node27&#45;&gt;Node3</title>
<path fill="none" stroke="#191970" d="M937.3521,-224.2455C927.9913,-216.0549 914.4142,-204.1749 903.3651,-194.5069"/>
<polygon fill="#191970" stroke="#191970" points="905.3508,-191.5937 895.5202,-187.6427 900.7412,-196.8618 905.3508,-191.5937"/>
</g>
<!-- Node28&#45;&gt;Node4 -->
<g id="edge61" class="edge">
<title>Node28&#45;&gt;Node4</title>
<path fill="none" stroke="#191970" d="M1063.2914,-392.4207C1068.6047,-383.3116 1076.4015,-369.0945 1081.5,-356 1102.8249,-301.2308 1108.0861,-279.7582 1089.5,-224 1069.7539,-164.7617 1018.4806,-109.502 990.8236,-82.786"/>
<polygon fill="#191970" stroke="#191970" points="993.0438,-80.0682 983.3767,-75.7325 988.23,-85.1503 993.0438,-80.0682"/>
</g>
<!-- Node28&#45;&gt;Node17 -->
<g id="edge64" class="edge">
<title>Node28&#45;&gt;Node17</title>
<path fill="none" stroke="#191970" d="M1061.2153,-392.3088C1071.1595,-364.8095 1096.0774,-284.3754 1072.5,-224 1058.1301,-187.2026 1023.5786,-155.6815 1000.6105,-137.7842"/>
<polygon fill="#191970" stroke="#191970" points="1002.5291,-134.847 992.4411,-131.6093 998.3082,-140.4313 1002.5291,-134.847"/>
</g>
<!-- Node28&#45;&gt;Node25 -->
<g id="edge63" class="edge">
<title>Node28&#45;&gt;Node25</title>
<path fill="none" stroke="#191970" d="M1076.5827,-392.3293C1105.1035,-376.8555 1158.4858,-343.7645 1186.5,-300 1218.8375,-249.4815 1226.8658,-176.7432 1228.8519,-141.9772"/>
<polygon fill="#191970" stroke="#191970" points="1232.36,-141.879 1229.3202,-131.7296 1225.3673,-141.5594 1232.36,-141.879"/>
</g>
<!-- Node28&#45;&gt;Node27 -->
<g id="edge62" class="edge">
<title>Node28&#45;&gt;Node27</title>
<path fill="none" stroke="#191970" d="M1051.3274,-392.4862C1033.7987,-365.4695 983.4971,-287.9405 960.3798,-252.3102"/>
<polygon fill="#191970" stroke="#191970" points="963.2555,-250.3119 954.8764,-243.8279 957.3832,-254.1219 963.2555,-250.3119"/>
</g>
<!-- Node29 -->
<g id="node30" class="node">
<title>Node29</title>
<g id="a_node30"><a xlink:href="Position_8h.html" target="_top" xlink:title="Position.h">
<polygon fill="none" stroke="#000000" points="595,-336.5 595,-355.5 660,-355.5 660,-336.5 595,-336.5"/>
<text text-anchor="middle" x="627.5" y="-343.5" font-family="FreeSans.ttf" font-size="10.00" fill="#000000">Position.h</text>
</a>
</g>
</g>
<!-- Node28&#45;&gt;Node29 -->
<g id="edge48" class="edge">
<title>Node28&#45;&gt;Node29</title>
<path fill="none" stroke="#191970" d="M984.0689,-392.4369C893.7619,-380.676 743.4684,-361.1029 670.2358,-351.5656"/>
<polygon fill="#191970" stroke="#191970" points="670.3748,-348.0542 660.0065,-350.2334 669.4707,-354.9956 670.3748,-348.0542"/>
</g>
<!-- Node31 -->
<g id="node32" class="node">
<title>Node31</title>
<g id="a_node32"><a xlink:href="Rotation_8h.html" target="_top" xlink:title="iDynTree/Core/Rotation.h">
<polygon fill="none" stroke="#000000" points="615,-280.5 615,-299.5 752,-299.5 752,-280.5 615,-280.5"/>
<text text-anchor="middle" x="683.5" y="-287.5" font-family="FreeSans.ttf" font-size="10.00" fill="#000000">iDynTree/Core/Rotation.h</text>
</a>
</g>
</g>
<!-- Node28&#45;&gt;Node31 -->
<g id="edge60" class="edge">
<title>Node28&#45;&gt;Node31</title>
<path fill="none" stroke="#191970" d="M1025.613,-392.4509C957.99,-372.2002 800.2376,-324.9589 724.9349,-302.4083"/>
<polygon fill="#191970" stroke="#191970" points="725.8901,-299.0409 715.3063,-299.5249 723.8819,-305.7466 725.8901,-299.0409"/>
</g>
<!-- Node29&#45;&gt;Node16 -->
<g id="edge59" class="edge">
<title>Node29&#45;&gt;Node16</title>
<path fill="none" stroke="#191970" d="M594.7415,-339.2335C526.2135,-324.3443 371.5728,-286.6534 341.5,-244 336.318,-236.6502 329.4802,-208.2529 342.5,-168 345.842,-157.6677 352.3536,-147.6001 358.6352,-139.5307"/>
<polygon fill="#191970" stroke="#191970" points="361.4945,-141.5665 365.2004,-131.641 356.1137,-137.0891 361.4945,-141.5665"/>
</g>
<!-- Node30 -->
<g id="node31" class="node">
<title>Node30</title>
<g id="a_node31"><a xlink:href="PositionRaw_8h.html" target="_top" xlink:title="iDynTree/Core/PositionRaw.h">
<polygon fill="none" stroke="#000000" points="578.5,-224.5 578.5,-243.5 734.5,-243.5 734.5,-224.5 578.5,-224.5"/>
<text text-anchor="middle" x="656.5" y="-231.5" font-family="FreeSans.ttf" font-size="10.00" fill="#000000">iDynTree/Core/PositionRaw.h</text>
</a>
</g>
</g>
<!-- Node29&#45;&gt;Node30 -->
<g id="edge49" class="edge">
<title>Node29&#45;&gt;Node30</title>
<path fill="none" stroke="#191970" d="M619.8668,-336.3828C610.4998,-323.335 596.8621,-299.4234 605.5,-280 610.9508,-267.7432 621.4599,-257.3755 631.5289,-249.6036"/>
<polygon fill="#191970" stroke="#191970" points="633.6744,-252.3721 639.7627,-243.7012 629.596,-246.6828 633.6744,-252.3721"/>
</g>
<!-- Node29&#45;&gt;Node31 -->
<g id="edge52" class="edge">
<title>Node29&#45;&gt;Node31</title>
<path fill="none" stroke="#191970" d="M637.2545,-336.2455C645.3648,-328.1352 657.0925,-316.4075 666.7081,-306.7919"/>
<polygon fill="#191970" stroke="#191970" points="669.2611,-309.1887 673.8573,-299.6427 664.3113,-304.2389 669.2611,-309.1887"/>
</g>
<!-- Node30&#45;&gt;Node3 -->
<g id="edge50" class="edge">
<title>Node30&#45;&gt;Node3</title>
<path fill="none" stroke="#191970" d="M695.4355,-224.4369C734.292,-214.8932 794.093,-200.2052 836.0089,-189.9101"/>
<polygon fill="#191970" stroke="#191970" points="836.8486,-193.308 845.7251,-187.5237 835.1788,-186.51 836.8486,-193.308"/>
</g>
<!-- Node30&#45;&gt;Node16 -->
<g id="edge51" class="edge">
<title>Node30&#45;&gt;Node16</title>
<path fill="none" stroke="#191970" d="M583.9522,-224.4829C528.0395,-216.1869 456.0912,-203.1318 430.5,-188 411.0044,-176.4724 395.0539,-155.6415 385.2318,-140.4575"/>
<polygon fill="#191970" stroke="#191970" points="388.1609,-138.5393 379.9312,-131.8667 382.2036,-142.215 388.1609,-138.5393"/>
</g>
<!-- Node31&#45;&gt;Node3 -->
<g id="edge58" class="edge">
<title>Node31&#45;&gt;Node3</title>
<path fill="none" stroke="#191970" d="M700.6371,-280.4509C735.9416,-260.7788 816.9562,-215.6363 858.6563,-192.4005"/>
<polygon fill="#191970" stroke="#191970" points="860.3744,-195.4498 867.4062,-187.5249 856.9672,-189.335 860.3744,-195.4498"/>
</g>
<!-- Node31&#45;&gt;Node16 -->
<g id="edge53" class="edge">
<title>Node31&#45;&gt;Node16</title>
<path fill="none" stroke="#191970" d="M614.6202,-282.6538C520.94,-272.3302 363.9423,-253.7089 355.5,-244 330.3062,-215.0263 349.6688,-166.8723 363.5712,-140.562"/>
<polygon fill="#191970" stroke="#191970" points="366.7343,-142.0753 368.5279,-131.6333 360.6141,-138.6777 366.7343,-142.0753"/>
</g>
<!-- Node31&#45;&gt;Node27 -->
<g id="edge54" class="edge">
<title>Node31&#45;&gt;Node27</title>
<path fill="none" stroke="#191970" d="M728.754,-280.4369C774.2973,-270.8127 844.5965,-255.957 893.3686,-245.6504"/>
<polygon fill="#191970" stroke="#191970" points="894.3724,-249.0157 903.4326,-243.5237 892.925,-242.1669 894.3724,-249.0157"/>
</g>
<!-- Node32 -->
<g id="node33" class="node">
<title>Node32</title>
<g id="a_node33"><a xlink:href="RotationRaw_8h.html" target="_top" xlink:title="iDynTree/Core/RotationRaw.h">
<polygon fill="none" stroke="#000000" points="364.5,-224.5 364.5,-243.5 522.5,-243.5 522.5,-224.5 364.5,-224.5"/>
<text text-anchor="middle" x="443.5" y="-231.5" font-family="FreeSans.ttf" font-size="10.00" fill="#000000">iDynTree/Core/RotationRaw.h</text>
</a>
</g>
</g>
<!-- Node31&#45;&gt;Node32 -->
<g id="edge55" class="edge">
<title>Node31&#45;&gt;Node32</title>
<path fill="none" stroke="#191970" d="M642.5152,-280.4369C601.5274,-270.8731 538.3996,-256.1432 494.2643,-245.845"/>
<polygon fill="#191970" stroke="#191970" points="494.8495,-242.3876 484.3157,-243.5237 493.2588,-249.2045 494.8495,-242.3876"/>
</g>
<!-- Node32&#45;&gt;Node16 -->
<g id="edge57" class="edge">
<title>Node32&#45;&gt;Node16</title>
<path fill="none" stroke="#191970" d="M431.3337,-224.1668C421.3399,-215.5391 407.4242,-202.1841 398.5,-188 389.3806,-173.5056 383.0435,-155.049 379.1808,-141.3409"/>
<polygon fill="#191970" stroke="#191970" points="382.5306,-140.3163 376.6076,-131.5317 375.7597,-142.0925 382.5306,-140.3163"/>
</g>
<!-- Node32&#45;&gt;Node24 -->
<g id="edge56" class="edge">
<title>Node32&#45;&gt;Node24</title>
<path fill="none" stroke="#191970" d="M488.2417,-224.4369C533.2694,-214.8127 602.7728,-199.957 650.9927,-189.6504"/>
<polygon fill="#191970" stroke="#191970" points="651.8953,-193.0366 660.9428,-187.5237 650.4321,-186.1912 651.8953,-193.0366"/>
</g>
<!-- Node33&#45;&gt;Node3 -->
<g id="edge66" class="edge">
<title>Node33&#45;&gt;Node3</title>
<path fill="none" stroke="#191970" d="M1114.3659,-448.4458C1133.0861,-440.7445 1151.4724,-429.2083 1162.5,-412 1167.296,-404.516 1164.6639,-400.6215 1162.5,-392 1141.8797,-309.8421 1139.4443,-275.8997 1072.5,-224 1054.2304,-209.8362 1001.2903,-197.6093 956.2265,-189.3289"/>
<polygon fill="#191970" stroke="#191970" points="956.617,-185.8431 946.1555,-187.5187 955.3786,-192.7326 956.617,-185.8431"/>
</g>
<!-- Node33&#45;&gt;Node27 -->
<g id="edge67" class="edge">
<title>Node33&#45;&gt;Node27</title>
<path fill="none" stroke="#191970" d="M1100.815,-448.4012C1130.0708,-436.5985 1158.939,-417.8402 1146.5,-392 1111.8624,-320.0458 1026.744,-270.674 980.1851,-248.0505"/>
<polygon fill="#191970" stroke="#191970" points="981.4023,-244.7542 970.8673,-243.6304 978.4022,-251.0787 981.4023,-244.7542"/>
</g>
<!-- Node33&#45;&gt;Node28 -->
<g id="edge68" class="edge">
<title>Node33&#45;&gt;Node28</title>
<path fill="none" stroke="#191970" d="M1052.2303,-448.2977C1053.1413,-440.2945 1054.2693,-430.3843 1055.2476,-421.7889"/>
<polygon fill="#191970" stroke="#191970" points="1058.7258,-422.1786 1056.3792,-411.8469 1051.7707,-421.3869 1058.7258,-422.1786"/>
</g>
<!-- Node34&#45;&gt;Node16 -->
<g id="edge73" class="edge">
<title>Node34&#45;&gt;Node16</title>
<path fill="none" stroke="#191970" d="M615.4105,-397.8805C493.1686,-388.9693 260.5,-362.4871 260.5,-290 260.5,-290 260.5,-290 260.5,-234 260.5,-187.4628 309.4383,-153.828 343.1864,-136.1659"/>
<polygon fill="#191970" stroke="#191970" points="344.8862,-139.2289 352.249,-131.6105 341.7424,-132.9746 344.8862,-139.2289"/>
</g>
<!-- Node34&#45;&gt;Node24 -->
<g id="edge72" class="edge">
<title>Node34&#45;&gt;Node24</title>
<path fill="none" stroke="#191970" d="M698.4321,-392.4544C715.1209,-375.6435 748.1724,-338.8409 760.5,-300 772.8317,-261.1463 742.4252,-218.2441 722.0704,-195.0934"/>
<polygon fill="#191970" stroke="#191970" points="724.4568,-192.5166 715.1239,-187.5019 719.2925,-197.2422 724.4568,-192.5166"/>
</g>
<!-- Node34&#45;&gt;Node29 -->
<g id="edge70" class="edge">
<title>Node34&#45;&gt;Node29</title>
<path fill="none" stroke="#191970" d="M677.8746,-392.2455C668.9527,-384.0549 656.012,-372.1749 645.4808,-362.5069"/>
<polygon fill="#191970" stroke="#191970" points="647.7371,-359.8271 638.0036,-355.6427 643.0032,-364.9837 647.7371,-359.8271"/>
</g>
<!-- Node34&#45;&gt;Node31 -->
<g id="edge71" class="edge">
<title>Node34&#45;&gt;Node31</title>
<path fill="none" stroke="#191970" d="M688.0737,-392.4509C687.2582,-374.184 685.4623,-333.9553 684.3794,-309.6976"/>
<polygon fill="#191970" stroke="#191970" points="687.8678,-309.3588 683.9252,-299.5249 680.8748,-309.6711 687.8678,-309.3588"/>
</g>
</g>
</svg>
