<?xml version="1.0" encoding="UTF-8" standalone="no"?>
<!DOCTYPE svg PUBLIC "-//W3C//DTD SVG 1.1//EN"
 "http://www.w3.org/Graphics/SVG/1.1/DTD/svg11.dtd">
<!-- Generated by graphviz version 2.40.1 (20161225.0304)
 -->
<!-- Title: CubicSpline.h Pages: 1 -->
<svg width="740pt" height="196pt"
 viewBox="0.00 0.00 739.50 196.00" xmlns="http://www.w3.org/2000/svg" xmlns:xlink="http://www.w3.org/1999/xlink">
<g id="graph0" class="graph" transform="scale(1 1) rotate(0) translate(4 192)">
<title>CubicSpline.h</title>
<!-- Node0 -->
<g id="node1" class="node">
<title>Node0</title>
<polygon fill="#bfbfbf" stroke="#000000" points="235,-168.5 235,-187.5 318,-187.5 318,-168.5 235,-168.5"/>
<text text-anchor="middle" x="276.5" y="-175.5" font-family="FreeSans.ttf" font-size="10.00" fill="#000000">CubicSpline.h</text>
</g>
<!-- Node1 -->
<g id="node2" class="node">
<title>Node1</title>
<polygon fill="none" stroke="#bfbfbf" points="128,-112.5 128,-131.5 175,-131.5 175,-112.5 128,-112.5"/>
<text text-anchor="middle" x="151.5" y="-119.5" font-family="FreeSans.ttf" font-size="10.00" fill="#000000">vector</text>
</g>
<!-- Node0&#45;&gt;Node1 -->
<g id="edge1" class="edge">
<title>Node0&#45;&gt;Node1</title>
<path fill="none" stroke="#191970" d="M255.0117,-168.3733C234.856,-159.3435 204.512,-145.7494 181.882,-135.6111"/>
<polygon fill="#191970" stroke="#191970" points="183.2649,-132.3955 172.7079,-131.5011 180.4029,-138.7838 183.2649,-132.3955"/>
</g>
<!-- Node2 -->
<g id="node3" class="node">
<title>Node2</title>
<g id="a_node3"><a xlink:href="VectorFixSize_8h.html" target="_top" xlink:title="iDynTree/Core/VectorFixSize.h">
<polygon fill="none" stroke="#000000" points="378,-112.5 378,-131.5 539,-131.5 539,-112.5 378,-112.5"/>
<text text-anchor="middle" x="458.5" y="-119.5" font-family="FreeSans.ttf" font-size="10.00" fill="#000000">iDynTree/Core/VectorFixSize.h</text>
</a>
</g>
</g>
<!-- Node0&#45;&gt;Node2 -->
<g id="edge2" class="edge">
<title>Node0&#45;&gt;Node2</title>
<path fill="none" stroke="#191970" d="M307.7869,-168.3733C338.1818,-159.021 384.4893,-144.7725 417.75,-134.5385"/>
<polygon fill="#191970" stroke="#191970" points="419.0929,-137.7873 427.6214,-131.5011 417.0342,-131.0968 419.0929,-137.7873"/>
</g>
<!-- Node18 -->
<g id="node19" class="node">
<title>Node18</title>
<g id="a_node19"><a xlink:href="VectorDynSize_8h.html" target="_top" xlink:title="iDynTree/Core/VectorDynSize.h">
<polygon fill="none" stroke="#000000" points="193,-112.5 193,-131.5 360,-131.5 360,-112.5 193,-112.5"/>
<text text-anchor="middle" x="276.5" y="-119.5" font-family="FreeSans.ttf" font-size="10.00" fill="#000000">iDynTree/Core/VectorDynSize.h</text>
</a>
</g>
</g>
<!-- Node0&#45;&gt;Node18 -->
<g id="edge20" class="edge">
<title>Node0&#45;&gt;Node18</title>
<path fill="none" stroke="#191970" d="M276.5,-168.2455C276.5,-160.9382 276.5,-150.6944 276.5,-141.7046"/>
<polygon fill="#191970" stroke="#191970" points="280.0001,-141.6426 276.5,-131.6427 273.0001,-141.6427 280.0001,-141.6426"/>
</g>
<!-- Node3 -->
<g id="node4" class="node">
<title>Node3</title>
<g id="a_node4"><a xlink:href="Utils_8h.html" target="_top" xlink:title="iDynTree/Core/Utils.h">
<polygon fill="none" stroke="#000000" points="575,-56.5 575,-75.5 694,-75.5 694,-56.5 575,-56.5"/>
<text text-anchor="middle" x="634.5" y="-63.5" font-family="FreeSans.ttf" font-size="10.00" fill="#000000">iDynTree/Core/Utils.h</text>
</a>
</g>
</g>
<!-- Node2&#45;&gt;Node3 -->
<g id="edge3" class="edge">
<title>Node2&#45;&gt;Node3</title>
<path fill="none" stroke="#191970" d="M488.7555,-112.3733C518.1483,-103.021 562.9292,-88.7725 595.0934,-78.5385"/>
<polygon fill="#191970" stroke="#191970" points="596.1713,-81.8685 604.6393,-75.5011 594.0488,-75.198 596.1713,-81.8685"/>
</g>
<!-- Node6 -->
<g id="node7" class="node">
<title>Node6</title>
<g id="a_node7"><a xlink:href="Span_8h.html" target="_top" xlink:title="iDynTree/Core/Span.h">
<polygon fill="none" stroke="#000000" points="255,-56.5 255,-75.5 376,-75.5 376,-56.5 255,-56.5"/>
<text text-anchor="middle" x="315.5" y="-63.5" font-family="FreeSans.ttf" font-size="10.00" fill="#000000">iDynTree/Core/Span.h</text>
</a>
</g>
</g>
<!-- Node2&#45;&gt;Node6 -->
<g id="edge6" class="edge">
<title>Node2&#45;&gt;Node6</title>
<path fill="none" stroke="#191970" d="M433.9174,-112.3733C410.5504,-103.2226 375.2138,-89.3844 349.2216,-79.2057"/>
<polygon fill="#191970" stroke="#191970" points="350.3495,-75.8886 339.7618,-75.5011 347.797,-82.4066 350.3495,-75.8886"/>
</g>
<!-- Node7 -->
<g id="node8" class="node">
<title>Node7</title>
<polygon fill="none" stroke="#bfbfbf" points="509.5,-.5 509.5,-19.5 561.5,-19.5 561.5,-.5 509.5,-.5"/>
<text text-anchor="middle" x="535.5" y="-7.5" font-family="FreeSans.ttf" font-size="10.00" fill="#000000">cassert</text>
</g>
<!-- Node2&#45;&gt;Node7 -->
<g id="edge18" class="edge">
<title>Node2&#45;&gt;Node7</title>
<path fill="none" stroke="#191970" d="M482.3277,-112.4746C497.8493,-104.9654 517.0863,-92.9203 527.5,-76 535.9971,-62.1939 537.5785,-43.6703 537.275,-29.7615"/>
<polygon fill="#191970" stroke="#191970" points="540.7697,-29.5664 536.7236,-19.7746 533.7803,-29.9524 540.7697,-29.5664"/>
</g>
<!-- Node15 -->
<g id="node16" class="node">
<title>Node15</title>
<polygon fill="none" stroke="#bfbfbf" points="192.5,-56.5 192.5,-75.5 236.5,-75.5 236.5,-56.5 192.5,-56.5"/>
<text text-anchor="middle" x="214.5" y="-63.5" font-family="FreeSans.ttf" font-size="10.00" fill="#000000">string</text>
</g>
<!-- Node2&#45;&gt;Node15 -->
<g id="edge16" class="edge">
<title>Node2&#45;&gt;Node15</title>
<path fill="none" stroke="#191970" d="M407.3755,-112.4417C366.2156,-104.4113 306.7234,-92.0532 246.4498,-76.0726"/>
<polygon fill="#191970" stroke="#191970" points="247.3376,-72.6871 236.7722,-73.4768 245.524,-79.4481 247.3376,-72.6871"/>
</g>
<!-- Node16 -->
<g id="node17" class="node">
<title>Node16</title>
<polygon fill="none" stroke="#bfbfbf" points="394.5,-56.5 394.5,-75.5 450.5,-75.5 450.5,-56.5 394.5,-56.5"/>
<text text-anchor="middle" x="422.5" y="-63.5" font-family="FreeSans.ttf" font-size="10.00" fill="#000000">sstream</text>
</g>
<!-- Node2&#45;&gt;Node16 -->
<g id="edge17" class="edge">
<title>Node2&#45;&gt;Node16</title>
<path fill="none" stroke="#191970" d="M452.2293,-112.2455C447.2736,-104.5367 440.217,-93.5598 434.2224,-84.2348"/>
<polygon fill="#191970" stroke="#191970" points="437.0506,-82.1618 428.6989,-75.6427 431.1624,-85.9471 437.0506,-82.1618"/>
</g>
<!-- Node17 -->
<g id="node18" class="node">
<title>Node17</title>
<polygon fill="none" stroke="#bfbfbf" points="468.5,-56.5 468.5,-75.5 518.5,-75.5 518.5,-56.5 468.5,-56.5"/>
<text text-anchor="middle" x="493.5" y="-63.5" font-family="FreeSans.ttf" font-size="10.00" fill="#000000">cstring</text>
</g>
<!-- Node2&#45;&gt;Node17 -->
<g id="edge19" class="edge">
<title>Node2&#45;&gt;Node17</title>
<path fill="none" stroke="#191970" d="M464.5965,-112.2455C469.4145,-104.5367 476.2751,-93.5598 482.1032,-84.2348"/>
<polygon fill="#191970" stroke="#191970" points="485.1413,-85.9777 487.4733,-75.6427 479.2053,-82.2677 485.1413,-85.9777"/>
</g>
<!-- Node4 -->
<g id="node5" class="node">
<title>Node4</title>
<polygon fill="none" stroke="#bfbfbf" points="580,-.5 580,-19.5 633,-19.5 633,-.5 580,-.5"/>
<text text-anchor="middle" x="606.5" y="-7.5" font-family="FreeSans.ttf" font-size="10.00" fill="#000000">cstddef</text>
</g>
<!-- Node3&#45;&gt;Node4 -->
<g id="edge4" class="edge">
<title>Node3&#45;&gt;Node4</title>
<path fill="none" stroke="#191970" d="M629.6228,-56.2455C625.8487,-48.6973 620.5079,-38.0158 615.9099,-28.8197"/>
<polygon fill="#191970" stroke="#191970" points="618.924,-27.0217 611.3213,-19.6427 612.663,-30.1522 618.924,-27.0217"/>
</g>
<!-- Node5 -->
<g id="node6" class="node">
<title>Node5</title>
<polygon fill="none" stroke="#bfbfbf" points="651.5,-.5 651.5,-19.5 731.5,-19.5 731.5,-.5 651.5,-.5"/>
<text text-anchor="middle" x="691.5" y="-7.5" font-family="FreeSans.ttf" font-size="10.00" fill="#000000">CoreExport.h</text>
</g>
<!-- Node3&#45;&gt;Node5 -->
<g id="edge5" class="edge">
<title>Node3&#45;&gt;Node5</title>
<path fill="none" stroke="#191970" d="M644.4286,-56.2455C652.6838,-48.1352 664.6209,-36.4075 674.4082,-26.7919"/>
<polygon fill="#191970" stroke="#191970" points="677.0046,-29.1476 681.6851,-19.6427 672.0989,-24.1542 677.0046,-29.1476"/>
</g>
<!-- Node6&#45;&gt;Node4 -->
<g id="edge10" class="edge">
<title>Node6&#45;&gt;Node4</title>
<path fill="none" stroke="#191970" d="M376.1005,-56.6883C425.6389,-48.7077 497.6731,-36.2661 569.6762,-20.0206"/>
<polygon fill="#191970" stroke="#191970" points="570.8627,-23.3399 579.8336,-17.7031 569.3056,-16.5153 570.8627,-23.3399"/>
</g>
<!-- Node6&#45;&gt;Node7 -->
<g id="edge7" class="edge">
<title>Node6&#45;&gt;Node7</title>
<path fill="none" stroke="#191970" d="M355.6603,-56.4383C391.0767,-47.9113 444.3207,-34.8635 499.2458,-20.2765"/>
<polygon fill="#191970" stroke="#191970" points="500.394,-23.5927 509.1538,-17.6331 498.5895,-16.8293 500.394,-23.5927"/>
</g>
<!-- Node8 -->
<g id="node9" class="node">
<title>Node8</title>
<polygon fill="none" stroke="#bfbfbf" points="367.5,-.5 367.5,-19.5 431.5,-19.5 431.5,-.5 367.5,-.5"/>
<text text-anchor="middle" x="399.5" y="-7.5" font-family="FreeSans.ttf" font-size="10.00" fill="#000000">algorithm</text>
</g>
<!-- Node6&#45;&gt;Node8 -->
<g id="edge8" class="edge">
<title>Node6&#45;&gt;Node8</title>
<path fill="none" stroke="#191970" d="M330.1317,-56.2455C342.8994,-47.7337 361.6438,-35.2375 376.4299,-25.3801"/>
<polygon fill="#191970" stroke="#191970" points="378.6569,-28.1019 385.036,-19.6427 374.774,-22.2775 378.6569,-28.1019"/>
</g>
<!-- Node9 -->
<g id="node10" class="node">
<title>Node9</title>
<polygon fill="none" stroke="#bfbfbf" points="449.5,-.5 449.5,-19.5 491.5,-19.5 491.5,-.5 449.5,-.5"/>
<text text-anchor="middle" x="470.5" y="-7.5" font-family="FreeSans.ttf" font-size="10.00" fill="#000000">array</text>
</g>
<!-- Node6&#45;&gt;Node9 -->
<g id="edge9" class="edge">
<title>Node6&#45;&gt;Node9</title>
<path fill="none" stroke="#191970" d="M342.1454,-56.3733C369.245,-46.5825 411.1973,-31.4255 439.7043,-21.1262"/>
<polygon fill="#191970" stroke="#191970" points="440.9647,-24.3923 449.1804,-17.7026 438.5861,-17.8088 440.9647,-24.3923"/>
</g>
<!-- Node10 -->
<g id="node11" class="node">
<title>Node10</title>
<polygon fill="none" stroke="#bfbfbf" points="0,-.5 0,-19.5 53,-19.5 53,-.5 0,-.5"/>
<text text-anchor="middle" x="26.5" y="-7.5" font-family="FreeSans.ttf" font-size="10.00" fill="#000000">iterator</text>
</g>
<!-- Node6&#45;&gt;Node10 -->
<g id="edge11" class="edge">
<title>Node6&#45;&gt;Node10</title>
<path fill="none" stroke="#191970" d="M254.8642,-56.5693C205.725,-48.5636 134.5188,-36.1446 63.2254,-20.0015"/>
<polygon fill="#191970" stroke="#191970" points="63.6962,-16.5188 53.1673,-17.699 62.1341,-23.3423 63.6962,-16.5188"/>
</g>
<!-- Node11 -->
<g id="node12" class="node">
<title>Node11</title>
<polygon fill="none" stroke="#bfbfbf" points="71.5,-.5 71.5,-19.5 115.5,-19.5 115.5,-.5 71.5,-.5"/>
<text text-anchor="middle" x="93.5" y="-7.5" font-family="FreeSans.ttf" font-size="10.00" fill="#000000">limits</text>
</g>
<!-- Node6&#45;&gt;Node11 -->
<g id="edge12" class="edge">
<title>Node6&#45;&gt;Node11</title>
<path fill="none" stroke="#191970" d="M271.6375,-56.4291C234.8919,-48.1885 180.8787,-35.5597 125.4253,-20.1204"/>
<polygon fill="#191970" stroke="#191970" points="126.3637,-16.7487 115.7898,-17.413 124.4701,-23.4877 126.3637,-16.7487"/>
</g>
<!-- Node12 -->
<g id="node13" class="node">
<title>Node12</title>
<polygon fill="none" stroke="#bfbfbf" points="134,-.5 134,-19.5 199,-19.5 199,-.5 134,-.5"/>
<text text-anchor="middle" x="166.5" y="-7.5" font-family="FreeSans.ttf" font-size="10.00" fill="#000000">stdexcept</text>
</g>
<!-- Node6&#45;&gt;Node12 -->
<g id="edge13" class="edge">
<title>Node6&#45;&gt;Node12</title>
<path fill="none" stroke="#191970" d="M289.886,-56.3733C265.4313,-47.1822 228.3946,-33.2624 201.2791,-23.0713"/>
<polygon fill="#191970" stroke="#191970" points="202.3719,-19.7431 191.7798,-19.5011 199.9091,-26.2956 202.3719,-19.7431"/>
</g>
<!-- Node13 -->
<g id="node14" class="node">
<title>Node13</title>
<polygon fill="none" stroke="#bfbfbf" points="217,-.5 217,-19.5 286,-19.5 286,-.5 217,-.5"/>
<text text-anchor="middle" x="251.5" y="-7.5" font-family="FreeSans.ttf" font-size="10.00" fill="#000000">type_traits</text>
</g>
<!-- Node6&#45;&gt;Node13 -->
<g id="edge14" class="edge">
<title>Node6&#45;&gt;Node13</title>
<path fill="none" stroke="#191970" d="M304.3521,-56.2455C294.9913,-48.0549 281.4142,-36.1749 270.3651,-26.5069"/>
<polygon fill="#191970" stroke="#191970" points="272.3508,-23.5937 262.5202,-19.6427 267.7412,-28.8618 272.3508,-23.5937"/>
</g>
<!-- Node14 -->
<g id="node15" class="node">
<title>Node14</title>
<polygon fill="none" stroke="#bfbfbf" points="304,-.5 304,-19.5 349,-19.5 349,-.5 304,-.5"/>
<text text-anchor="middle" x="326.5" y="-7.5" font-family="FreeSans.ttf" font-size="10.00" fill="#000000">utility</text>
</g>
<!-- Node6&#45;&gt;Node14 -->
<g id="edge15" class="edge">
<title>Node6&#45;&gt;Node14</title>
<path fill="none" stroke="#191970" d="M317.4161,-56.2455C318.8514,-48.9382 320.8636,-38.6944 322.6295,-29.7046"/>
<polygon fill="#191970" stroke="#191970" points="326.1127,-30.1298 324.6059,-19.6427 319.244,-28.7805 326.1127,-30.1298"/>
</g>
<!-- Node18&#45;&gt;Node6 -->
<g id="edge21" class="edge">
<title>Node18&#45;&gt;Node6</title>
<path fill="none" stroke="#191970" d="M283.2933,-112.2455C288.7178,-104.4564 296.4661,-93.3308 303.0033,-83.9439"/>
<polygon fill="#191970" stroke="#191970" points="305.9417,-85.849 308.7846,-75.6427 300.1975,-81.8485 305.9417,-85.849"/>
</g>
<!-- Node18&#45;&gt;Node15 -->
<g id="edge22" class="edge">
<title>Node18&#45;&gt;Node15</title>
<path fill="none" stroke="#191970" d="M265.7004,-112.2455C256.6322,-104.0549 243.4794,-92.1749 232.7755,-82.5069"/>
<polygon fill="#191970" stroke="#191970" points="234.9429,-79.7482 225.1758,-75.6427 230.2509,-84.9429 234.9429,-79.7482"/>
</g>
</g>
</svg>
