<?xml version="1.0" encoding="UTF-8" standalone="no"?>
<!DOCTYPE svg PUBLIC "-//W3C//DTD SVG 1.1//EN"
 "http://www.w3.org/Graphics/SVG/1.1/DTD/svg11.dtd">
<!-- Generated by graphviz version 2.40.1 (20161225.0304)
 -->
<!-- Title: yarprobotstatepublisher Pages: 1 -->
<svg width="316pt" height="447pt"
 viewBox="0.00 0.00 316.00 447.00" xmlns="http://www.w3.org/2000/svg" xmlns:xlink="http://www.w3.org/1999/xlink">
<g id="graph0" class="graph" transform="scale(1 1) rotate(0) translate(4 443)">
<title>yarprobotstatepublisher</title>
<g id="clust1" class="cluster">
<title>clusterdir_1563a38af0d3a5e4a6330d6d45e9792a</title>
<g id="a_clust1"><a xlink:href="dir_1563a38af0d3a5e4a6330d6d45e9792a.html" target="_top" xlink:title="tools">
<polygon fill="#ddddee" stroke="#000000" points="8,-272 8,-431 246,-431 246,-272 8,-272"/>
<text text-anchor="middle" x="127" y="-419" font-family="FreeSans.ttf" font-size="10.00" fill="#000000">tools</text>
</a>
</g>
</g>
<g id="clust2" class="cluster">
<title>clusterdir_d32611501a8b9f9ee5f85682f67560af</title>
<g id="a_clust2"><a xlink:href="dir_d32611501a8b9f9ee5f85682f67560af.html" target="_top">
<polygon fill="#eeeeff" stroke="#000000" points="16,-280 16,-404 238,-404 238,-280 16,-280"/>
</a>
</g>
</g>
<!-- dir_d32611501a8b9f9ee5f85682f67560af -->
<g id="node1" class="node">
<title>dir_d32611501a8b9f9ee5f85682f67560af</title>
<text text-anchor="middle" x="163" y="-375.5" font-family="FreeSans.ttf" font-size="10.00" fill="#000000">yarprobotstatepublisher</text>
</g>
<!-- dir_517fac0de58368127e466407b6b31ec8 -->
<g id="node2" class="node">
<title>dir_517fac0de58368127e466407b6b31ec8</title>
<g id="a_node2"><a xlink:href="dir_517fac0de58368127e466407b6b31ec8.html" target="_top" xlink:title="include">
<polygon fill="#ffffff" stroke="#000000" points="78,-324 24,-324 24,-288 78,-288 78,-324"/>
<text text-anchor="middle" x="51" y="-303.5" font-family="FreeSans.ttf" font-size="10.00" fill="#000000">include</text>
</a>
</g>
</g>
<!-- dir_355314d08763ddbf0e6d36531a48f7ae -->
<g id="node4" class="node">
<title>dir_355314d08763ddbf0e6d36531a48f7ae</title>
<g id="a_node4"><a xlink:href="dir_355314d08763ddbf0e6d36531a48f7ae.html" target="_top" xlink:title="high&#45;level">
<polygon fill="none" stroke="#ff0000" points="120.5,-252 55.5,-252 55.5,-216 120.5,-216 120.5,-252"/>
<text text-anchor="middle" x="88" y="-231.5" font-family="FreeSans.ttf" font-size="10.00" fill="#000000">high&#45;level</text>
</a>
</g>
</g>
<!-- dir_517fac0de58368127e466407b6b31ec8&#45;&gt;dir_355314d08763ddbf0e6d36531a48f7ae -->
<g id="edge13" class="edge">
<title>dir_517fac0de58368127e466407b6b31ec8&#45;&gt;dir_355314d08763ddbf0e6d36531a48f7ae</title>
<path fill="none" stroke="#000000" d="M60.3367,-287.8314C64.4243,-279.8771 69.3104,-270.369 73.8309,-261.5723"/>
<polygon fill="#000000" stroke="#000000" points="77.0799,-262.9074 78.5376,-252.4133 70.8539,-259.7078 77.0799,-262.9074"/>
<g id="a_edge13&#45;headlabel"><a xlink:href="dir_000067_000054.html" target="_top" xlink:title="1">
<text text-anchor="middle" x="77.9623" y="-264.9022" font-family="FreeSans.ttf" font-size="10.00" fill="#000000">1</text>
</a>
</g>
</g>
<!-- dir_aebb8dcc11953d78e620bbef0b9e2183 -->
<g id="node8" class="node">
<title>dir_aebb8dcc11953d78e620bbef0b9e2183</title>
<g id="a_node8"><a xlink:href="dir_aebb8dcc11953d78e620bbef0b9e2183.html" target="_top" xlink:title="core">
<polygon fill="none" stroke="#ff0000" points="176,-36 122,-36 122,0 176,0 176,-36"/>
<text text-anchor="middle" x="149" y="-15.5" font-family="FreeSans.ttf" font-size="10.00" fill="#000000">core</text>
</a>
</g>
</g>
<!-- dir_517fac0de58368127e466407b6b31ec8&#45;&gt;dir_aebb8dcc11953d78e620bbef0b9e2183 -->
<g id="edge14" class="edge">
<title>dir_517fac0de58368127e466407b6b31ec8&#45;&gt;dir_aebb8dcc11953d78e620bbef0b9e2183</title>
<path fill="none" stroke="#000000" d="M47.565,-287.9228C44.6589,-269.644 41.6077,-240.6503 46,-216 57.9633,-148.8603 63.3651,-130.1465 99,-72 105.1337,-61.9915 113.3048,-52.2116 121.2608,-43.7854"/>
<polygon fill="#000000" stroke="#000000" points="123.9411,-46.051 128.4424,-36.4598 118.9425,-41.1506 123.9411,-46.051"/>
<g id="a_edge14&#45;headlabel"><a xlink:href="dir_000067_000011.html" target="_top" xlink:title="1">
<text text-anchor="middle" x="123.4522" y="-48.1055" font-family="FreeSans.ttf" font-size="10.00" fill="#000000">1</text>
</a>
</g>
</g>
<!-- dir_4c35f201f486dab9f9f20c2676597da0 -->
<g id="node3" class="node">
<title>dir_4c35f201f486dab9f9f20c2676597da0</title>
<g id="a_node3"><a xlink:href="dir_4c35f201f486dab9f9f20c2676597da0.html" target="_top" xlink:title="src">
<polygon fill="#ffffff" stroke="#000000" points="78,-396 24,-396 24,-360 78,-360 78,-396"/>
<text text-anchor="middle" x="51" y="-375.5" font-family="FreeSans.ttf" font-size="10.00" fill="#000000">src</text>
</a>
</g>
</g>
<!-- dir_4c35f201f486dab9f9f20c2676597da0&#45;&gt;dir_517fac0de58368127e466407b6b31ec8 -->
<g id="edge8" class="edge">
<title>dir_4c35f201f486dab9f9f20c2676597da0&#45;&gt;dir_517fac0de58368127e466407b6b31ec8</title>
<path fill="none" stroke="#000000" d="M51,-359.8314C51,-352.131 51,-342.9743 51,-334.4166"/>
<polygon fill="#000000" stroke="#000000" points="54.5001,-334.4132 51,-324.4133 47.5001,-334.4133 54.5001,-334.4132"/>
<g id="a_edge8&#45;headlabel"><a xlink:href="dir_000061_000067.html" target="_top" xlink:title="2">
<text text-anchor="middle" x="57.3393" y="-335.5079" font-family="FreeSans.ttf" font-size="10.00" fill="#000000">2</text>
</a>
</g>
</g>
<!-- dir_4c35f201f486dab9f9f20c2676597da0&#45;&gt;dir_355314d08763ddbf0e6d36531a48f7ae -->
<g id="edge4" class="edge">
<title>dir_4c35f201f486dab9f9f20c2676597da0&#45;&gt;dir_355314d08763ddbf0e6d36531a48f7ae</title>
<path fill="none" stroke="#000000" d="M66.9305,-359.8986C74.5774,-350.0137 82.9436,-337.134 87,-324 93.177,-304.0001 93.1633,-280.2879 91.7464,-262.2246"/>
<polygon fill="#000000" stroke="#000000" points="95.2087,-261.6664 90.7562,-252.0526 88.2417,-262.3447 95.2087,-261.6664"/>
<g id="a_edge4&#45;headlabel"><a xlink:href="dir_000061_000054.html" target="_top" xlink:title="1">
<text text-anchor="middle" x="98.3829" y="-262.469" font-family="FreeSans.ttf" font-size="10.00" fill="#000000">1</text>
</a>
</g>
</g>
<!-- dir_fb93052291ccda37fd41b6d18f3dfcc9 -->
<g id="node5" class="node">
<title>dir_fb93052291ccda37fd41b6d18f3dfcc9</title>
<g id="a_node5"><a xlink:href="dir_fb93052291ccda37fd41b6d18f3dfcc9.html" target="_top" xlink:title="model_io">
<polygon fill="none" stroke="#ff0000" points="239,-180 177,-180 177,-144 239,-144 239,-180"/>
<text text-anchor="middle" x="208" y="-159.5" font-family="FreeSans.ttf" font-size="10.00" fill="#000000">model_io</text>
</a>
</g>
</g>
<!-- dir_4c35f201f486dab9f9f20c2676597da0&#45;&gt;dir_fb93052291ccda37fd41b6d18f3dfcc9 -->
<g id="edge5" class="edge">
<title>dir_4c35f201f486dab9f9f20c2676597da0&#45;&gt;dir_fb93052291ccda37fd41b6d18f3dfcc9</title>
<path fill="none" stroke="#000000" d="M78.0963,-364.3747C81.096,-362.8893 84.1099,-361.4068 87,-360 120.6057,-343.6416 138.931,-352.5941 163,-324 195.4523,-285.4466 204.5997,-225.2171 207.116,-190.0808"/>
<polygon fill="#000000" stroke="#000000" points="210.6137,-190.2208 207.7025,-180.0338 203.6256,-189.8128 210.6137,-190.2208"/>
<g id="a_edge5&#45;headlabel"><a xlink:href="dir_000061_000040.html" target="_top" xlink:title="1">
<text text-anchor="middle" x="213.2388" y="-191.4747" font-family="FreeSans.ttf" font-size="10.00" fill="#000000">1</text>
</a>
</g>
</g>
<!-- dir_5dd65160827af56e6353642206b80129 -->
<g id="node6" class="node">
<title>dir_5dd65160827af56e6353642206b80129</title>
<g id="a_node6"><a xlink:href="dir_5dd65160827af56e6353642206b80129.html" target="_top" xlink:title="model">
<polygon fill="none" stroke="#ff0000" points="176,-108 122,-108 122,-72 176,-72 176,-108"/>
<text text-anchor="middle" x="149" y="-87.5" font-family="FreeSans.ttf" font-size="10.00" fill="#000000">model</text>
</a>
</g>
</g>
<!-- dir_4c35f201f486dab9f9f20c2676597da0&#45;&gt;dir_5dd65160827af56e6353642206b80129 -->
<g id="edge6" class="edge">
<title>dir_4c35f201f486dab9f9f20c2676597da0&#45;&gt;dir_5dd65160827af56e6353642206b80129</title>
<path fill="none" stroke="#000000" d="M72.877,-359.7707C83.4396,-350.0439 95.6095,-337.3447 104,-324 144.9757,-258.8305 150.1585,-164.7662 149.933,-118.2463"/>
<polygon fill="#000000" stroke="#000000" points="153.4295,-117.9642 149.7901,-108.0141 146.4302,-118.062 153.4295,-117.9642"/>
<g id="a_edge6&#45;headlabel"><a xlink:href="dir_000061_000027.html" target="_top" xlink:title="1">
<text text-anchor="middle" x="156.3186" y="-119.0189" font-family="FreeSans.ttf" font-size="10.00" fill="#000000">1</text>
</a>
</g>
</g>
<!-- dir_ca655c1e93447bcdfcc1afb2c793c8bd -->
<g id="node7" class="node">
<title>dir_ca655c1e93447bcdfcc1afb2c793c8bd</title>
<g id="a_node7"><a xlink:href="dir_ca655c1e93447bcdfcc1afb2c793c8bd.html" target="_top" xlink:title="yarp">
<polygon fill="none" stroke="#ff0000" points="308,-324 254,-324 254,-288 308,-288 308,-324"/>
<text text-anchor="middle" x="281" y="-303.5" font-family="FreeSans.ttf" font-size="10.00" fill="#000000">yarp</text>
</a>
</g>
</g>
<!-- dir_4c35f201f486dab9f9f20c2676597da0&#45;&gt;dir_ca655c1e93447bcdfcc1afb2c793c8bd -->
<g id="edge7" class="edge">
<title>dir_4c35f201f486dab9f9f20c2676597da0&#45;&gt;dir_ca655c1e93447bcdfcc1afb2c793c8bd</title>
<path fill="none" stroke="#000000" d="M78.2243,-363.5573C81.1459,-362.2584 84.1075,-361.0425 87,-360 153.533,-336.02 175.1006,-346.9379 242,-324 242.7142,-323.7551 243.433,-323.5014 244.1547,-323.2401"/>
<polygon fill="#000000" stroke="#000000" points="245.5854,-326.4379 253.5888,-319.4956 243.003,-319.9316 245.5854,-326.4379"/>
<g id="a_edge7&#45;headlabel"><a xlink:href="dir_000061_000079.html" target="_top" xlink:title="1">
<text text-anchor="middle" x="243.2917" y="-327.9029" font-family="FreeSans.ttf" font-size="10.00" fill="#000000">1</text>
</a>
</g>
</g>
<!-- dir_355314d08763ddbf0e6d36531a48f7ae&#45;&gt;dir_fb93052291ccda37fd41b6d18f3dfcc9 -->
<g id="edge1" class="edge">
<title>dir_355314d08763ddbf0e6d36531a48f7ae&#45;&gt;dir_fb93052291ccda37fd41b6d18f3dfcc9</title>
<path fill="none" stroke="#000000" d="M118.2811,-215.8314C133.6298,-206.6221 152.4498,-195.3301 168.8823,-185.4706"/>
<polygon fill="#000000" stroke="#000000" points="170.9544,-188.3091 177.7286,-180.1628 167.3529,-182.3066 170.9544,-188.3091"/>
<g id="a_edge1&#45;headlabel"><a xlink:href="dir_000054_000040.html" target="_top" xlink:title="1">
<text text-anchor="middle" x="169.3329" y="-190.0931" font-family="FreeSans.ttf" font-size="10.00" fill="#000000">1</text>
</a>
</g>
</g>
<!-- dir_355314d08763ddbf0e6d36531a48f7ae&#45;&gt;dir_5dd65160827af56e6353642206b80129 -->
<g id="edge2" class="edge">
<title>dir_355314d08763ddbf0e6d36531a48f7ae&#45;&gt;dir_5dd65160827af56e6353642206b80129</title>
<path fill="none" stroke="#000000" d="M95.7257,-215.7623C106.2218,-190.9846 125.0781,-146.4714 137.3109,-117.5939"/>
<polygon fill="#000000" stroke="#000000" points="140.6592,-118.6628 141.337,-108.0896 134.2136,-115.9323 140.6592,-118.6628"/>
<g id="a_edge2&#45;headlabel"><a xlink:href="dir_000054_000027.html" target="_top" xlink:title="11">
<text text-anchor="middle" x="141.8715" y="-120.5801" font-family="FreeSans.ttf" font-size="10.00" fill="#000000">11</text>
</a>
</g>
</g>
<!-- dir_355314d08763ddbf0e6d36531a48f7ae&#45;&gt;dir_aebb8dcc11953d78e620bbef0b9e2183 -->
<g id="edge3" class="edge">
<title>dir_355314d08763ddbf0e6d36531a48f7ae&#45;&gt;dir_aebb8dcc11953d78e620bbef0b9e2183</title>
<path fill="none" stroke="#000000" d="M88.2694,-215.8485C89.2718,-185.1805 93.7285,-121.6043 113,-72 116.6946,-62.4902 122.2793,-52.9521 127.9549,-44.5954"/>
<polygon fill="#000000" stroke="#000000" points="130.8681,-46.5384 133.827,-36.3651 125.1698,-42.4728 130.8681,-46.5384"/>
<g id="a_edge3&#45;headlabel"><a xlink:href="dir_000054_000011.html" target="_top" xlink:title="16">
<text text-anchor="middle" x="131.0917" y="-48.6136" font-family="FreeSans.ttf" font-size="10.00" fill="#000000">16</text>
</a>
</g>
</g>
<!-- dir_fb93052291ccda37fd41b6d18f3dfcc9&#45;&gt;dir_5dd65160827af56e6353642206b80129 -->
<g id="edge9" class="edge">
<title>dir_fb93052291ccda37fd41b6d18f3dfcc9&#45;&gt;dir_5dd65160827af56e6353642206b80129</title>
<path fill="none" stroke="#000000" d="M193.1118,-143.8314C186.247,-135.454 177.9699,-125.3531 170.4489,-116.1749"/>
<polygon fill="#000000" stroke="#000000" points="173.1341,-113.9297 164.0886,-108.4133 167.7197,-118.3665 173.1341,-113.9297"/>
<g id="a_edge9&#45;headlabel"><a xlink:href="dir_000040_000027.html" target="_top" xlink:title="25">
<text text-anchor="middle" x="177.6085" y="-112.4104" font-family="FreeSans.ttf" font-size="10.00" fill="#000000">25</text>
</a>
</g>
</g>
<!-- dir_fb93052291ccda37fd41b6d18f3dfcc9&#45;&gt;dir_aebb8dcc11953d78e620bbef0b9e2183 -->
<g id="edge10" class="edge">
<title>dir_fb93052291ccda37fd41b6d18f3dfcc9&#45;&gt;dir_aebb8dcc11953d78e620bbef0b9e2183</title>
<path fill="none" stroke="#000000" d="M205.2139,-143.8153C201.939,-125.2 195.5661,-95.7176 185,-72 180.7802,-62.5279 174.9419,-52.8874 169.1941,-44.4236"/>
<polygon fill="#000000" stroke="#000000" points="171.9349,-42.2372 163.3086,-36.0859 166.2161,-46.274 171.9349,-42.2372"/>
<g id="a_edge10&#45;headlabel"><a xlink:href="dir_000040_000011.html" target="_top" xlink:title="21">
<text text-anchor="middle" x="176.3274" y="-41.0365" font-family="FreeSans.ttf" font-size="10.00" fill="#000000">21</text>
</a>
</g>
</g>
<!-- dir_5dd65160827af56e6353642206b80129&#45;&gt;dir_aebb8dcc11953d78e620bbef0b9e2183 -->
<g id="edge11" class="edge">
<title>dir_5dd65160827af56e6353642206b80129&#45;&gt;dir_aebb8dcc11953d78e620bbef0b9e2183</title>
<path fill="none" stroke="#000000" d="M149,-71.8314C149,-64.131 149,-54.9743 149,-46.4166"/>
<polygon fill="#000000" stroke="#000000" points="152.5001,-46.4132 149,-36.4133 145.5001,-46.4133 152.5001,-46.4132"/>
<g id="a_edge11&#45;headlabel"><a xlink:href="dir_000027_000011.html" target="_top" xlink:title="59">
<text text-anchor="middle" x="155.3393" y="-47.5079" font-family="FreeSans.ttf" font-size="10.00" fill="#000000">59</text>
</a>
</g>
</g>
<!-- dir_ca655c1e93447bcdfcc1afb2c793c8bd&#45;&gt;dir_aebb8dcc11953d78e620bbef0b9e2183 -->
<g id="edge12" class="edge">
<title>dir_ca655c1e93447bcdfcc1afb2c793c8bd&#45;&gt;dir_aebb8dcc11953d78e620bbef0b9e2183</title>
<path fill="none" stroke="#000000" d="M279.3821,-287.9236C276.1992,-257.3662 267.6469,-193.9488 248,-144 234.2726,-109.1005 227.3342,-101.3587 204,-72 195.9991,-61.9334 186.2553,-51.8156 177.2043,-43.1033"/>
<polygon fill="#000000" stroke="#000000" points="179.4975,-40.4552 169.8179,-36.1476 174.6985,-45.5513 179.4975,-40.4552"/>
<g id="a_edge12&#45;headlabel"><a xlink:href="dir_000079_000011.html" target="_top" xlink:title="5">
<text text-anchor="middle" x="184.0609" y="-38.3525" font-family="FreeSans.ttf" font-size="10.00" fill="#000000">5</text>
</a>
</g>
</g>
</g>
</svg>
