<?xml version="1.0" encoding="UTF-8" standalone="no"?>
<!DOCTYPE svg PUBLIC "-//W3C//DTD SVG 1.1//EN"
 "http://www.w3.org/Graphics/SVG/1.1/DTD/svg11.dtd">
<!-- Generated by graphviz version 2.40.1 (20161225.0304)
 -->
<!-- Title: model_io Pages: 1 -->
<svg width="265pt" height="303pt"
 viewBox="0.00 0.00 265.16 303.00" xmlns="http://www.w3.org/2000/svg" xmlns:xlink="http://www.w3.org/1999/xlink">
<g id="graph0" class="graph" transform="scale(1 1) rotate(0) translate(4 299)">
<title>model_io</title>
<g id="clust1" class="cluster">
<title>clusterdir_68267d1309a1af8e8297ef4c3efbcdba</title>
<g id="a_clust1"><a xlink:href="dir_68267d1309a1af8e8297ef4c3efbcdba.html" target="_top" xlink:title="src">
<polygon fill="#ddddee" stroke="#000000" points="8,-128 8,-287 174,-287 174,-128 8,-128"/>
<text text-anchor="middle" x="91" y="-275" font-family="FreeSans.ttf" font-size="10.00" fill="#000000">src</text>
</a>
</g>
</g>
<g id="clust2" class="cluster">
<title>clusterdir_fb93052291ccda37fd41b6d18f3dfcc9</title>
<g id="a_clust2"><a xlink:href="dir_fb93052291ccda37fd41b6d18f3dfcc9.html" target="_top">
<polygon fill="#eeeeff" stroke="#000000" points="16,-136 16,-260 166,-260 166,-136 16,-136"/>
</a>
</g>
</g>
<!-- dir_fb93052291ccda37fd41b6d18f3dfcc9 -->
<g id="node1" class="node">
<title>dir_fb93052291ccda37fd41b6d18f3dfcc9</title>
<text text-anchor="middle" x="127" y="-231.5" font-family="FreeSans.ttf" font-size="10.00" fill="#000000">model_io</text>
</g>
<!-- dir_3938e606227a31511fafb56cc7259e7a -->
<g id="node2" class="node">
<title>dir_3938e606227a31511fafb56cc7259e7a</title>
<g id="a_node2"><a xlink:href="dir_3938e606227a31511fafb56cc7259e7a.html" target="_top" xlink:title="urdf">
<polygon fill="#ffffff" stroke="#ff0000" points="78,-252 24,-252 24,-216 78,-216 78,-252"/>
<text text-anchor="middle" x="51" y="-231.5" font-family="FreeSans.ttf" font-size="10.00" fill="#000000">urdf</text>
</a>
</g>
</g>
<!-- dir_5f57de5bbe3f948f16e791110ccbe302 -->
<g id="node3" class="node">
<title>dir_5f57de5bbe3f948f16e791110ccbe302</title>
<g id="a_node3"><a xlink:href="dir_5f57de5bbe3f948f16e791110ccbe302.html" target="_top" xlink:title="xml">
<polygon fill="#ffffff" stroke="#ff0000" points="90,-180 36,-180 36,-144 90,-144 90,-180"/>
<text text-anchor="middle" x="63" y="-159.5" font-family="FreeSans.ttf" font-size="10.00" fill="#000000">xml</text>
</a>
</g>
</g>
<!-- dir_3938e606227a31511fafb56cc7259e7a&#45;&gt;dir_5f57de5bbe3f948f16e791110ccbe302 -->
<g id="edge6" class="edge">
<title>dir_3938e606227a31511fafb56cc7259e7a&#45;&gt;dir_5f57de5bbe3f948f16e791110ccbe302</title>
<path fill="none" stroke="#000000" d="M54.0281,-215.8314C55.3115,-208.131 56.8376,-198.9743 58.2639,-190.4166"/>
<polygon fill="#000000" stroke="#000000" points="61.7394,-190.8526 59.9311,-180.4133 54.8347,-189.7018 61.7394,-190.8526"/>
<g id="a_edge6&#45;headlabel"><a xlink:href="dir_000041_000075.html" target="_top" xlink:title="20">
<text text-anchor="middle" x="63.9492" y="-192.3651" font-family="FreeSans.ttf" font-size="10.00" fill="#000000">20</text>
</a>
</g>
</g>
<!-- dir_7349e89ef19c117195f8e371603e1b1f -->
<g id="node4" class="node">
<title>dir_7349e89ef19c117195f8e371603e1b1f</title>
<g id="a_node4"><a xlink:href="dir_7349e89ef19c117195f8e371603e1b1f.html" target="_top" xlink:title="sensors">
<polygon fill="none" stroke="#ff0000" points="236,-180 182,-180 182,-144 236,-144 236,-180"/>
<text text-anchor="middle" x="209" y="-159.5" font-family="FreeSans.ttf" font-size="10.00" fill="#000000">sensors</text>
</a>
</g>
</g>
<!-- dir_3938e606227a31511fafb56cc7259e7a&#45;&gt;dir_7349e89ef19c117195f8e371603e1b1f -->
<g id="edge3" class="edge">
<title>dir_3938e606227a31511fafb56cc7259e7a&#45;&gt;dir_7349e89ef19c117195f8e371603e1b1f</title>
<path fill="none" stroke="#000000" d="M78.05,-220.2777C81.0585,-218.8104 84.087,-217.3588 87,-216 123.4401,-199.0026 133.2989,-196.4261 170,-180 170.8338,-179.6268 171.6771,-179.2481 172.5271,-178.8653"/>
<polygon fill="#000000" stroke="#000000" points="174.1054,-181.9926 181.7616,-174.6691 171.2094,-175.6197 174.1054,-181.9926"/>
<g id="a_edge3&#45;headlabel"><a xlink:href="dir_000041_000001.html" target="_top" xlink:title="12">
<text text-anchor="middle" x="172.0074" y="-183.5646" font-family="FreeSans.ttf" font-size="10.00" fill="#000000">12</text>
</a>
</g>
</g>
<!-- dir_5dd65160827af56e6353642206b80129 -->
<g id="node5" class="node">
<title>dir_5dd65160827af56e6353642206b80129</title>
<g id="a_node5"><a xlink:href="dir_5dd65160827af56e6353642206b80129.html" target="_top" xlink:title="model">
<polygon fill="none" stroke="#ff0000" points="181,-108 127,-108 127,-72 181,-72 181,-108"/>
<text text-anchor="middle" x="154" y="-87.5" font-family="FreeSans.ttf" font-size="10.00" fill="#000000">model</text>
</a>
</g>
</g>
<!-- dir_3938e606227a31511fafb56cc7259e7a&#45;&gt;dir_5dd65160827af56e6353642206b80129 -->
<g id="edge4" class="edge">
<title>dir_3938e606227a31511fafb56cc7259e7a&#45;&gt;dir_5dd65160827af56e6353642206b80129</title>
<path fill="none" stroke="#000000" d="M68.7399,-215.7032C78.1904,-205.5579 89.7414,-192.4979 99,-180 113.9445,-159.8269 128.6568,-135.4478 139.0992,-117.1538"/>
<polygon fill="#000000" stroke="#000000" points="142.287,-118.6262 144.1494,-108.1964 136.1893,-115.1884 142.287,-118.6262"/>
<g id="a_edge4&#45;headlabel"><a xlink:href="dir_000041_000027.html" target="_top" xlink:title="25">
<text text-anchor="middle" x="142.9949" y="-120.6519" font-family="FreeSans.ttf" font-size="10.00" fill="#000000">25</text>
</a>
</g>
</g>
<!-- dir_aebb8dcc11953d78e620bbef0b9e2183 -->
<g id="node6" class="node">
<title>dir_aebb8dcc11953d78e620bbef0b9e2183</title>
<g id="a_node6"><a xlink:href="dir_aebb8dcc11953d78e620bbef0b9e2183.html" target="_top" xlink:title="core">
<polygon fill="none" stroke="#ff0000" points="208,-36 154,-36 154,0 208,0 208,-36"/>
<text text-anchor="middle" x="181" y="-15.5" font-family="FreeSans.ttf" font-size="10.00" fill="#000000">core</text>
</a>
</g>
</g>
<!-- dir_3938e606227a31511fafb56cc7259e7a&#45;&gt;dir_aebb8dcc11953d78e620bbef0b9e2183 -->
<g id="edge5" class="edge">
<title>dir_3938e606227a31511fafb56cc7259e7a&#45;&gt;dir_aebb8dcc11953d78e620bbef0b9e2183</title>
<path fill="none" stroke="#000000" d="M78.2198,-219.5448C81.1423,-218.2484 84.1054,-217.0364 87,-216 154.8064,-191.7214 200.0845,-236.3006 245,-180 278.0853,-138.5284 235.7679,-77.8174 205.8562,-43.7126"/>
<polygon fill="#000000" stroke="#000000" points="208.2417,-41.1315 198.9467,-36.0468 203.0421,-45.8181 208.2417,-41.1315"/>
<g id="a_edge5&#45;headlabel"><a xlink:href="dir_000041_000011.html" target="_top" xlink:title="20">
<text text-anchor="middle" x="212.7573" y="-39.4006" font-family="FreeSans.ttf" font-size="10.00" fill="#000000">20</text>
</a>
</g>
</g>
<!-- dir_5f57de5bbe3f948f16e791110ccbe302&#45;&gt;dir_aebb8dcc11953d78e620bbef0b9e2183 -->
<g id="edge8" class="edge">
<title>dir_5f57de5bbe3f948f16e791110ccbe302&#45;&gt;dir_aebb8dcc11953d78e620bbef0b9e2183</title>
<path fill="none" stroke="#000000" d="M71.8405,-143.9946C81.6429,-124.9985 98.6493,-94.7256 118,-72 127.0051,-61.4244 138.164,-51.1547 148.5769,-42.4608"/>
<polygon fill="#000000" stroke="#000000" points="150.7975,-45.1663 156.3463,-36.1407 146.3801,-39.736 150.7975,-45.1663"/>
<g id="a_edge8&#45;headlabel"><a xlink:href="dir_000075_000011.html" target="_top" xlink:title="1">
<text text-anchor="middle" x="149.8007" y="-47.1372" font-family="FreeSans.ttf" font-size="10.00" fill="#000000">1</text>
</a>
</g>
</g>
<!-- dir_7349e89ef19c117195f8e371603e1b1f&#45;&gt;dir_5dd65160827af56e6353642206b80129 -->
<g id="edge1" class="edge">
<title>dir_7349e89ef19c117195f8e371603e1b1f&#45;&gt;dir_5dd65160827af56e6353642206b80129</title>
<path fill="none" stroke="#000000" d="M195.1212,-143.8314C188.7864,-135.5386 181.1616,-125.557 174.2074,-116.4533"/>
<polygon fill="#000000" stroke="#000000" points="176.9175,-114.2353 168.0657,-108.4133 171.3548,-118.4847 176.9175,-114.2353"/>
<g id="a_edge1&#45;headlabel"><a xlink:href="dir_000001_000027.html" target="_top" xlink:title="13">
<text text-anchor="middle" x="181.3558" y="-112.8683" font-family="FreeSans.ttf" font-size="10.00" fill="#000000">13</text>
</a>
</g>
</g>
<!-- dir_7349e89ef19c117195f8e371603e1b1f&#45;&gt;dir_aebb8dcc11953d78e620bbef0b9e2183 -->
<g id="edge2" class="edge">
<title>dir_7349e89ef19c117195f8e371603e1b1f&#45;&gt;dir_aebb8dcc11953d78e620bbef0b9e2183</title>
<path fill="none" stroke="#000000" d="M205.4538,-143.7623C200.6569,-119.0928 192.0561,-74.8598 186.4392,-45.9731"/>
<polygon fill="#000000" stroke="#000000" points="189.8619,-45.2377 184.5174,-36.0896 182.9905,-46.5738 189.8619,-45.2377"/>
<g id="a_edge2&#45;headlabel"><a xlink:href="dir_000001_000011.html" target="_top" xlink:title="29">
<text text-anchor="middle" x="193.335" y="-45.7243" font-family="FreeSans.ttf" font-size="10.00" fill="#000000">29</text>
</a>
</g>
</g>
<!-- dir_5dd65160827af56e6353642206b80129&#45;&gt;dir_aebb8dcc11953d78e620bbef0b9e2183 -->
<g id="edge7" class="edge">
<title>dir_5dd65160827af56e6353642206b80129&#45;&gt;dir_aebb8dcc11953d78e620bbef0b9e2183</title>
<path fill="none" stroke="#000000" d="M160.8132,-71.8314C163.7644,-63.9617 167.2858,-54.5712 170.555,-45.8533"/>
<polygon fill="#000000" stroke="#000000" points="173.8609,-47.0055 174.095,-36.4133 167.3066,-44.5476 173.8609,-47.0055"/>
<g id="a_edge7&#45;headlabel"><a xlink:href="dir_000027_000011.html" target="_top" xlink:title="59">
<text text-anchor="middle" x="175.2573" y="-48.8682" font-family="FreeSans.ttf" font-size="10.00" fill="#000000">59</text>
</a>
</g>
</g>
</g>
</svg>
