<?xml version="1.0" encoding="UTF-8" standalone="no"?>
<!DOCTYPE svg PUBLIC "-//W3C//DTD SVG 1.1//EN"
 "http://www.w3.org/Graphics/SVG/1.1/DTD/svg11.dtd">
<!-- Generated by graphviz version 2.40.1 (20161225.0304)
 -->
<!-- Title: DynamicsLinearizationHelpers.h Pages: 1 -->
<svg width="356pt" height="140pt"
 viewBox="0.00 0.00 355.50 140.00" xmlns="http://www.w3.org/2000/svg" xmlns:xlink="http://www.w3.org/1999/xlink">
<g id="graph0" class="graph" transform="scale(1 1) rotate(0) translate(4 136)">
<title>DynamicsLinearizationHelpers.h</title>
<!-- Node41 -->
<g id="node1" class="node">
<title>Node41</title>
<polygon fill="#bfbfbf" stroke="#000000" points="77,-112.5 77,-131.5 252,-131.5 252,-112.5 77,-112.5"/>
<text text-anchor="middle" x="164.5" y="-119.5" font-family="FreeSans.ttf" font-size="10.00" fill="#000000">DynamicsLinearizationHelpers.h</text>
</g>
<!-- Node42 -->
<g id="node2" class="node">
<title>Node42</title>
<g id="a_node2"><a xlink:href="DynamicsLinearization_8h.html" target="_top" xlink:title="DynamicsLinearization.h">
<polygon fill="none" stroke="#000000" points="6,-56.5 6,-75.5 143,-75.5 143,-56.5 6,-56.5"/>
<text text-anchor="middle" x="74.5" y="-63.5" font-family="FreeSans.ttf" font-size="10.00" fill="#000000">DynamicsLinearization.h</text>
</a>
</g>
</g>
<!-- Node41&#45;&gt;Node42 -->
<g id="edge1" class="edge">
<title>Node41&#45;&gt;Node42</title>
<path fill="none" stroke="#191970" d="M140.0216,-106.769C124.0734,-96.8456 103.749,-84.1994 89.9972,-75.6427"/>
<polygon fill="#191970" stroke="#191970" points="138.4835,-109.9342 148.8232,-112.2455 142.1817,-103.9908 138.4835,-109.9342"/>
</g>
<!-- Node44 -->
<g id="node4" class="node">
<title>Node44</title>
<g id="a_node4"><a xlink:href="DynamicsLinearizationHelpers_8cpp.html" target="_top" xlink:title="DynamicsLinearizationHelpers.cpp">
<polygon fill="none" stroke="#000000" points="161.5,-56.5 161.5,-75.5 347.5,-75.5 347.5,-56.5 161.5,-56.5"/>
<text text-anchor="middle" x="254.5" y="-63.5" font-family="FreeSans.ttf" font-size="10.00" fill="#000000">DynamicsLinearizationHelpers.cpp</text>
</a>
</g>
</g>
<!-- Node41&#45;&gt;Node44 -->
<g id="edge3" class="edge">
<title>Node41&#45;&gt;Node44</title>
<path fill="none" stroke="#191970" d="M188.9784,-106.769C204.9266,-96.8456 225.251,-84.1994 239.0028,-75.6427"/>
<polygon fill="#191970" stroke="#191970" points="186.8183,-103.9908 180.1768,-112.2455 190.5165,-109.9342 186.8183,-103.9908"/>
</g>
<!-- Node43 -->
<g id="node3" class="node">
<title>Node43</title>
<g id="a_node3"><a xlink:href="DynamicsLinearization_8cpp.html" target="_top" xlink:title="DynamicsLinearization.cpp">
<polygon fill="none" stroke="#000000" points="0,-.5 0,-19.5 149,-19.5 149,-.5 0,-.5"/>
<text text-anchor="middle" x="74.5" y="-7.5" font-family="FreeSans.ttf" font-size="10.00" fill="#000000">DynamicsLinearization.cpp</text>
</a>
</g>
</g>
<!-- Node42&#45;&gt;Node43 -->
<g id="edge2" class="edge">
<title>Node42&#45;&gt;Node43</title>
<path fill="none" stroke="#191970" d="M74.5,-46.1575C74.5,-37.155 74.5,-26.9199 74.5,-19.6427"/>
<polygon fill="#191970" stroke="#191970" points="71.0001,-46.2455 74.5,-56.2455 78.0001,-46.2456 71.0001,-46.2455"/>
</g>
</g>
</svg>
