<?xml version="1.0" encoding="UTF-8" standalone="no"?>
<!DOCTYPE svg PUBLIC "-//W3C//DTD SVG 1.1//EN"
 "http://www.w3.org/Graphics/SVG/1.1/DTD/svg11.dtd">
<!-- Generated by graphviz version 2.40.1 (20161225.0304)
 -->
<!-- Title: EigenSparseHelpers.h Pages: 1 -->
<svg width="746pt" height="252pt"
 viewBox="0.00 0.00 746.00 252.00" xmlns="http://www.w3.org/2000/svg" xmlns:xlink="http://www.w3.org/1999/xlink">
<g id="graph0" class="graph" transform="scale(1 1) rotate(0) translate(4 248)">
<title>EigenSparseHelpers.h</title>
<!-- Node0 -->
<g id="node1" class="node">
<title>Node0</title>
<polygon fill="#bfbfbf" stroke="#000000" points="450,-224.5 450,-243.5 573,-243.5 573,-224.5 450,-224.5"/>
<text text-anchor="middle" x="511.5" y="-231.5" font-family="FreeSans.ttf" font-size="10.00" fill="#000000">EigenSparseHelpers.h</text>
</g>
<!-- Node1 -->
<g id="node2" class="node">
<title>Node1</title>
<polygon fill="none" stroke="#bfbfbf" points="385.5,-168.5 385.5,-187.5 487.5,-187.5 487.5,-168.5 385.5,-168.5"/>
<text text-anchor="middle" x="436.5" y="-175.5" font-family="FreeSans.ttf" font-size="10.00" fill="#000000">Eigen/SparseCore</text>
</g>
<!-- Node0&#45;&gt;Node1 -->
<g id="edge1" class="edge">
<title>Node0&#45;&gt;Node1</title>
<path fill="none" stroke="#191970" d="M498.436,-224.2455C487.1438,-215.814 470.6155,-203.4729 457.4729,-193.6598"/>
<polygon fill="#191970" stroke="#191970" points="459.5211,-190.8211 449.4143,-187.6427 455.3331,-196.4301 459.5211,-190.8211"/>
</g>
<!-- Node2 -->
<g id="node3" class="node">
<title>Node2</title>
<g id="a_node3"><a xlink:href="SparseMatrix_8h.html" target="_top" xlink:title="iDynTree/Core/SparseMatrix.h">
<polygon fill="none" stroke="#000000" points="506,-168.5 506,-187.5 667,-187.5 667,-168.5 506,-168.5"/>
<text text-anchor="middle" x="586.5" y="-175.5" font-family="FreeSans.ttf" font-size="10.00" fill="#000000">iDynTree/Core/SparseMatrix.h</text>
</a>
</g>
</g>
<!-- Node0&#45;&gt;Node2 -->
<g id="edge2" class="edge">
<title>Node0&#45;&gt;Node2</title>
<path fill="none" stroke="#191970" d="M524.564,-224.2455C535.8562,-215.814 552.3845,-203.4729 565.5271,-193.6598"/>
<polygon fill="#191970" stroke="#191970" points="567.6669,-196.4301 573.5857,-187.6427 563.4789,-190.8211 567.6669,-196.4301"/>
</g>
<!-- Node3 -->
<g id="node4" class="node">
<title>Node3</title>
<g id="a_node4"><a xlink:href="VectorDynSize_8h.html" target="_top" xlink:title="iDynTree/Core/VectorDynSize.h">
<polygon fill="none" stroke="#000000" points="288,-112.5 288,-131.5 455,-131.5 455,-112.5 288,-112.5"/>
<text text-anchor="middle" x="371.5" y="-119.5" font-family="FreeSans.ttf" font-size="10.00" fill="#000000">iDynTree/Core/VectorDynSize.h</text>
</a>
</g>
</g>
<!-- Node2&#45;&gt;Node3 -->
<g id="edge3" class="edge">
<title>Node2&#45;&gt;Node3</title>
<path fill="none" stroke="#191970" d="M549.5402,-168.3733C513.0925,-158.8799 457.2754,-144.3415 417.8711,-134.0781"/>
<polygon fill="#191970" stroke="#191970" points="418.5369,-130.6348 407.9775,-131.5011 416.7724,-137.4087 418.5369,-130.6348"/>
</g>
<!-- Node15 -->
<g id="node16" class="node">
<title>Node15</title>
<g id="a_node16"><a xlink:href="Triplets_8h.html" target="_top" xlink:title="iDynTree/Core/Triplets.h">
<polygon fill="none" stroke="#000000" points="473.5,-112.5 473.5,-131.5 605.5,-131.5 605.5,-112.5 473.5,-112.5"/>
<text text-anchor="middle" x="539.5" y="-119.5" font-family="FreeSans.ttf" font-size="10.00" fill="#000000">iDynTree/Core/Triplets.h</text>
</a>
</g>
</g>
<!-- Node2&#45;&gt;Node15 -->
<g id="edge15" class="edge">
<title>Node2&#45;&gt;Node15</title>
<path fill="none" stroke="#191970" d="M578.3132,-168.2455C571.6411,-160.2958 562.0521,-148.8706 554.0747,-139.3656"/>
<polygon fill="#191970" stroke="#191970" points="556.7026,-137.0524 547.593,-131.6427 551.3408,-141.5525 556.7026,-137.0524"/>
</g>
<!-- Node16 -->
<g id="node17" class="node">
<title>Node16</title>
<g id="a_node17"><a xlink:href="Utils_8h.html" target="_top" xlink:title="iDynTree/Core/Utils.h">
<polygon fill="none" stroke="#000000" points="554,-56.5 554,-75.5 673,-75.5 673,-56.5 554,-56.5"/>
<text text-anchor="middle" x="613.5" y="-63.5" font-family="FreeSans.ttf" font-size="10.00" fill="#000000">iDynTree/Core/Utils.h</text>
</a>
</g>
</g>
<!-- Node2&#45;&gt;Node16 -->
<g id="edge22" class="edge">
<title>Node2&#45;&gt;Node16</title>
<path fill="none" stroke="#191970" d="M594.7089,-168.1677C601.5114,-159.3343 610.6631,-145.6831 614.5,-132 618.7544,-116.8282 618.1502,-98.9141 616.6792,-85.5804"/>
<polygon fill="#191970" stroke="#191970" points="620.1403,-85.0567 615.3273,-75.6182 613.2039,-85.998 620.1403,-85.0567"/>
</g>
<!-- Node18 -->
<g id="node19" class="node">
<title>Node18</title>
<polygon fill="none" stroke="#bfbfbf" points="691,-56.5 691,-75.5 738,-75.5 738,-56.5 691,-56.5"/>
<text text-anchor="middle" x="714.5" y="-63.5" font-family="FreeSans.ttf" font-size="10.00" fill="#000000">vector</text>
</g>
<!-- Node2&#45;&gt;Node18 -->
<g id="edge23" class="edge">
<title>Node2&#45;&gt;Node18</title>
<path fill="none" stroke="#191970" d="M597.4132,-168.4509C619.3289,-149.2747 668.9043,-105.8962 695.9871,-82.1988"/>
<polygon fill="#191970" stroke="#191970" points="698.3934,-84.744 703.6144,-75.5249 693.7838,-79.4759 698.3934,-84.744"/>
</g>
<!-- Node4 -->
<g id="node5" class="node">
<title>Node4</title>
<g id="a_node5"><a xlink:href="Span_8h.html" target="_top" xlink:title="iDynTree/Core/Span.h">
<polygon fill="none" stroke="#000000" points="291,-56.5 291,-75.5 412,-75.5 412,-56.5 291,-56.5"/>
<text text-anchor="middle" x="351.5" y="-63.5" font-family="FreeSans.ttf" font-size="10.00" fill="#000000">iDynTree/Core/Span.h</text>
</a>
</g>
</g>
<!-- Node3&#45;&gt;Node4 -->
<g id="edge4" class="edge">
<title>Node3&#45;&gt;Node4</title>
<path fill="none" stroke="#191970" d="M368.0163,-112.2455C365.3492,-104.7776 361.5867,-94.2427 358.3263,-85.1137"/>
<polygon fill="#191970" stroke="#191970" points="361.6033,-83.8829 354.9438,-75.6427 355.0111,-86.2373 361.6033,-83.8829"/>
</g>
<!-- Node14 -->
<g id="node15" class="node">
<title>Node14</title>
<polygon fill="none" stroke="#bfbfbf" points="445.5,-56.5 445.5,-75.5 489.5,-75.5 489.5,-56.5 445.5,-56.5"/>
<text text-anchor="middle" x="467.5" y="-63.5" font-family="FreeSans.ttf" font-size="10.00" fill="#000000">string</text>
</g>
<!-- Node3&#45;&gt;Node14 -->
<g id="edge14" class="edge">
<title>Node3&#45;&gt;Node14</title>
<path fill="none" stroke="#191970" d="M388.2219,-112.2455C403.0889,-103.5731 425.0466,-90.7645 442.0858,-80.825"/>
<polygon fill="#191970" stroke="#191970" points="444.0955,-83.7047 450.9697,-75.6427 440.5683,-77.6582 444.0955,-83.7047"/>
</g>
<!-- Node5 -->
<g id="node6" class="node">
<title>Node5</title>
<polygon fill="none" stroke="#bfbfbf" points="233.5,-.5 233.5,-19.5 285.5,-19.5 285.5,-.5 233.5,-.5"/>
<text text-anchor="middle" x="259.5" y="-7.5" font-family="FreeSans.ttf" font-size="10.00" fill="#000000">cassert</text>
</g>
<!-- Node4&#45;&gt;Node5 -->
<g id="edge5" class="edge">
<title>Node4&#45;&gt;Node5</title>
<path fill="none" stroke="#191970" d="M335.4748,-56.2455C321.3592,-47.6534 300.5737,-35.0014 284.3101,-25.1018"/>
<polygon fill="#191970" stroke="#191970" points="285.7034,-21.8525 275.3415,-19.6427 282.0637,-27.8319 285.7034,-21.8525"/>
</g>
<!-- Node6 -->
<g id="node7" class="node">
<title>Node6</title>
<polygon fill="none" stroke="#bfbfbf" points="303.5,-.5 303.5,-19.5 367.5,-19.5 367.5,-.5 303.5,-.5"/>
<text text-anchor="middle" x="335.5" y="-7.5" font-family="FreeSans.ttf" font-size="10.00" fill="#000000">algorithm</text>
</g>
<!-- Node4&#45;&gt;Node6 -->
<g id="edge6" class="edge">
<title>Node4&#45;&gt;Node6</title>
<path fill="none" stroke="#191970" d="M348.713,-56.2455C346.6023,-48.8579 343.634,-38.4689 341.0453,-29.4087"/>
<polygon fill="#191970" stroke="#191970" points="344.3677,-28.2964 338.255,-19.6427 337.637,-30.2195 344.3677,-28.2964"/>
</g>
<!-- Node7 -->
<g id="node8" class="node">
<title>Node7</title>
<polygon fill="none" stroke="#bfbfbf" points="385.5,-.5 385.5,-19.5 427.5,-19.5 427.5,-.5 385.5,-.5"/>
<text text-anchor="middle" x="406.5" y="-7.5" font-family="FreeSans.ttf" font-size="10.00" fill="#000000">array</text>
</g>
<!-- Node4&#45;&gt;Node7 -->
<g id="edge7" class="edge">
<title>Node4&#45;&gt;Node7</title>
<path fill="none" stroke="#191970" d="M361.0803,-56.2455C369.0458,-48.1352 380.5641,-36.4075 390.0079,-26.7919"/>
<polygon fill="#191970" stroke="#191970" points="392.5195,-29.2297 397.0295,-19.6427 387.5253,-24.3247 392.5195,-29.2297"/>
</g>
<!-- Node8 -->
<g id="node9" class="node">
<title>Node8</title>
<polygon fill="none" stroke="#bfbfbf" points="579,-.5 579,-19.5 632,-19.5 632,-.5 579,-.5"/>
<text text-anchor="middle" x="605.5" y="-7.5" font-family="FreeSans.ttf" font-size="10.00" fill="#000000">cstddef</text>
</g>
<!-- Node4&#45;&gt;Node8 -->
<g id="edge8" class="edge">
<title>Node4&#45;&gt;Node8</title>
<path fill="none" stroke="#191970" d="M402.1826,-56.4186C444.4577,-48.1865 506.4843,-35.5542 568.7989,-20.3095"/>
<polygon fill="#191970" stroke="#191970" points="569.9298,-23.6355 578.7995,-17.8407 568.2521,-16.8395 569.9298,-23.6355"/>
</g>
<!-- Node9 -->
<g id="node10" class="node">
<title>Node9</title>
<polygon fill="none" stroke="#bfbfbf" points="508,-.5 508,-19.5 561,-19.5 561,-.5 508,-.5"/>
<text text-anchor="middle" x="534.5" y="-7.5" font-family="FreeSans.ttf" font-size="10.00" fill="#000000">iterator</text>
</g>
<!-- Node4&#45;&gt;Node9 -->
<g id="edge9" class="edge">
<title>Node4&#45;&gt;Node9</title>
<path fill="none" stroke="#191970" d="M382.9588,-56.3733C414.9098,-46.5959 464.3486,-31.4671 498.0025,-21.1686"/>
<polygon fill="#191970" stroke="#191970" points="499.3651,-24.4119 507.9032,-18.1389 497.3167,-17.7183 499.3651,-24.4119"/>
</g>
<!-- Node10 -->
<g id="node11" class="node">
<title>Node10</title>
<polygon fill="none" stroke="#bfbfbf" points="445.5,-.5 445.5,-19.5 489.5,-19.5 489.5,-.5 445.5,-.5"/>
<text text-anchor="middle" x="467.5" y="-7.5" font-family="FreeSans.ttf" font-size="10.00" fill="#000000">limits</text>
</g>
<!-- Node4&#45;&gt;Node10 -->
<g id="edge10" class="edge">
<title>Node4&#45;&gt;Node10</title>
<path fill="none" stroke="#191970" d="M371.4411,-56.3733C389.9786,-47.4241 417.8028,-33.9917 438.7413,-23.8835"/>
<polygon fill="#191970" stroke="#191970" points="440.3352,-27.0006 447.8191,-19.5011 437.2919,-20.6967 440.3352,-27.0006"/>
</g>
<!-- Node11 -->
<g id="node12" class="node">
<title>Node11</title>
<polygon fill="none" stroke="#bfbfbf" points="0,-.5 0,-19.5 65,-19.5 65,-.5 0,-.5"/>
<text text-anchor="middle" x="32.5" y="-7.5" font-family="FreeSans.ttf" font-size="10.00" fill="#000000">stdexcept</text>
</g>
<!-- Node4&#45;&gt;Node11 -->
<g id="edge11" class="edge">
<title>Node4&#45;&gt;Node11</title>
<path fill="none" stroke="#191970" d="M290.7923,-57.3004C236.6274,-49.2333 154.9475,-36.3215 75.3264,-20.2684"/>
<polygon fill="#191970" stroke="#191970" points="75.6211,-16.7567 65.1239,-18.1916 74.2247,-23.616 75.6211,-16.7567"/>
</g>
<!-- Node12 -->
<g id="node13" class="node">
<title>Node12</title>
<polygon fill="none" stroke="#bfbfbf" points="83,-.5 83,-19.5 152,-19.5 152,-.5 83,-.5"/>
<text text-anchor="middle" x="117.5" y="-7.5" font-family="FreeSans.ttf" font-size="10.00" fill="#000000">type_traits</text>
</g>
<!-- Node4&#45;&gt;Node12 -->
<g id="edge12" class="edge">
<title>Node4&#45;&gt;Node12</title>
<path fill="none" stroke="#191970" d="M311.5398,-56.4369C270.0898,-46.5172 205.4172,-31.04 162.271,-20.7144"/>
<polygon fill="#191970" stroke="#191970" points="162.8723,-17.2596 152.3322,-18.3359 161.243,-24.0673 162.8723,-17.2596"/>
</g>
<!-- Node13 -->
<g id="node14" class="node">
<title>Node13</title>
<polygon fill="none" stroke="#bfbfbf" points="170,-.5 170,-19.5 215,-19.5 215,-.5 170,-.5"/>
<text text-anchor="middle" x="192.5" y="-7.5" font-family="FreeSans.ttf" font-size="10.00" fill="#000000">utility</text>
</g>
<!-- Node4&#45;&gt;Node13 -->
<g id="edge13" class="edge">
<title>Node4&#45;&gt;Node13</title>
<path fill="none" stroke="#191970" d="M324.1669,-56.3733C296.6857,-46.6944 254.3148,-31.7712 225.0984,-21.4812"/>
<polygon fill="#191970" stroke="#191970" points="225.9536,-18.0717 215.3588,-18.0509 223.6282,-24.6742 225.9536,-18.0717"/>
</g>
<!-- Node15&#45;&gt;Node9 -->
<g id="edge19" class="edge">
<title>Node15&#45;&gt;Node9</title>
<path fill="none" stroke="#191970" d="M539.0737,-112.4509C538.2582,-94.184 536.4623,-53.9553 535.3794,-29.6976"/>
<polygon fill="#191970" stroke="#191970" points="538.8678,-29.3588 534.9252,-19.5249 531.8748,-29.6711 538.8678,-29.3588"/>
</g>
<!-- Node15&#45;&gt;Node14 -->
<g id="edge20" class="edge">
<title>Node15&#45;&gt;Node14</title>
<path fill="none" stroke="#191970" d="M526.9586,-112.2455C516.2213,-103.8943 500.5527,-91.7076 487.9953,-81.9408"/>
<polygon fill="#191970" stroke="#191970" points="489.9401,-79.0194 479.8977,-75.6427 485.6425,-84.5449 489.9401,-79.0194"/>
</g>
<!-- Node15&#45;&gt;Node16 -->
<g id="edge16" class="edge">
<title>Node15&#45;&gt;Node16</title>
<path fill="none" stroke="#191970" d="M552.3898,-112.2455C563.4254,-103.8943 579.5292,-91.7076 592.4353,-81.9408"/>
<polygon fill="#191970" stroke="#191970" points="594.8959,-84.4681 600.7579,-75.6427 590.6717,-78.8862 594.8959,-84.4681"/>
</g>
<!-- Node15&#45;&gt;Node18 -->
<g id="edge21" class="edge">
<title>Node15&#45;&gt;Node18</title>
<path fill="none" stroke="#191970" d="M569.5836,-112.3733C600.6234,-102.4405 648.9222,-86.9849 681.1208,-76.6813"/>
<polygon fill="#191970" stroke="#191970" points="682.5094,-79.9119 690.9669,-73.5306 680.3759,-73.2449 682.5094,-79.9119"/>
</g>
<!-- Node16&#45;&gt;Node8 -->
<g id="edge17" class="edge">
<title>Node16&#45;&gt;Node8</title>
<path fill="none" stroke="#191970" d="M612.1065,-56.2455C611.0626,-48.9382 609.5992,-38.6944 608.3149,-29.7046"/>
<polygon fill="#191970" stroke="#191970" points="611.7566,-29.0472 606.8775,-19.6427 604.827,-30.0372 611.7566,-29.0472"/>
</g>
<!-- Node17 -->
<g id="node18" class="node">
<title>Node17</title>
<polygon fill="none" stroke="#bfbfbf" points="650.5,-.5 650.5,-19.5 730.5,-19.5 730.5,-.5 650.5,-.5"/>
<text text-anchor="middle" x="690.5" y="-7.5" font-family="FreeSans.ttf" font-size="10.00" fill="#000000">CoreExport.h</text>
</g>
<!-- Node16&#45;&gt;Node17 -->
<g id="edge18" class="edge">
<title>Node16&#45;&gt;Node17</title>
<path fill="none" stroke="#191970" d="M626.9124,-56.2455C638.5057,-47.814 655.4748,-35.4729 668.9678,-25.6598"/>
<polygon fill="#191970" stroke="#191970" points="671.2126,-28.355 677.2413,-19.6427 667.0953,-22.6938 671.2126,-28.355"/>
</g>
</g>
</svg>
