<?xml version="1.0" encoding="UTF-8" standalone="no"?>
<!DOCTYPE svg PUBLIC "-//W3C//DTD SVG 1.1//EN"
 "http://www.w3.org/Graphics/SVG/1.1/DTD/svg11.dtd">
<!-- Generated by graphviz version 2.40.1 (20161225.0304)
 -->
<!-- Title: ExtendedKalmanFilter.h Pages: 1 -->
<svg width="740pt" height="252pt"
 viewBox="0.00 0.00 740.00 252.00" xmlns="http://www.w3.org/2000/svg" xmlns:xlink="http://www.w3.org/1999/xlink">
<g id="graph0" class="graph" transform="scale(1 1) rotate(0) translate(4 248)">
<title>ExtendedKalmanFilter.h</title>
<!-- Node0 -->
<g id="node1" class="node">
<title>Node0</title>
<polygon fill="#bfbfbf" stroke="#000000" points="376,-224.5 376,-243.5 508,-243.5 508,-224.5 376,-224.5"/>
<text text-anchor="middle" x="442" y="-231.5" font-family="FreeSans.ttf" font-size="10.00" fill="#000000">ExtendedKalmanFilter.h</text>
</g>
<!-- Node1 -->
<g id="node2" class="node">
<title>Node1</title>
<g id="a_node2"><a xlink:href="VectorDynSize_8h.html" target="_top" xlink:title="iDynTree/Core/VectorDynSize.h">
<polygon fill="none" stroke="#000000" points="303.5,-168.5 303.5,-187.5 470.5,-187.5 470.5,-168.5 303.5,-168.5"/>
<text text-anchor="middle" x="387" y="-175.5" font-family="FreeSans.ttf" font-size="10.00" fill="#000000">iDynTree/Core/VectorDynSize.h</text>
</a>
</g>
</g>
<!-- Node0&#45;&gt;Node1 -->
<g id="edge1" class="edge">
<title>Node0&#45;&gt;Node1</title>
<path fill="none" stroke="#191970" d="M432.4197,-224.2455C424.4542,-216.1352 412.9359,-204.4075 403.4921,-194.7919"/>
<polygon fill="#191970" stroke="#191970" points="405.9747,-192.3247 396.4705,-187.6427 400.9805,-197.2297 405.9747,-192.3247"/>
</g>
<!-- Node13 -->
<g id="node14" class="node">
<title>Node13</title>
<g id="a_node14"><a xlink:href="MatrixDynSize_8h.html" target="_top" xlink:title="iDynTree/Core/MatrixDynSize.h">
<polygon fill="none" stroke="#000000" points="118.5,-168.5 118.5,-187.5 285.5,-187.5 285.5,-168.5 118.5,-168.5"/>
<text text-anchor="middle" x="202" y="-175.5" font-family="FreeSans.ttf" font-size="10.00" fill="#000000">iDynTree/Core/MatrixDynSize.h</text>
</a>
</g>
</g>
<!-- Node0&#45;&gt;Node13 -->
<g id="edge13" class="edge">
<title>Node0&#45;&gt;Node13</title>
<path fill="none" stroke="#191970" d="M401.0152,-224.4369C360.0274,-214.8731 296.8996,-200.1432 252.7643,-189.845"/>
<polygon fill="#191970" stroke="#191970" points="253.3495,-186.3876 242.8157,-187.5237 251.7588,-193.2045 253.3495,-186.3876"/>
</g>
<!-- Node15 -->
<g id="node16" class="node">
<title>Node15</title>
<g id="a_node16"><a xlink:href="Utils_8h.html" target="_top" xlink:title="iDynTree/Core/Utils.h">
<polygon fill="none" stroke="#000000" points="480.5,-56.5 480.5,-75.5 599.5,-75.5 599.5,-56.5 480.5,-56.5"/>
<text text-anchor="middle" x="540" y="-63.5" font-family="FreeSans.ttf" font-size="10.00" fill="#000000">iDynTree/Core/Utils.h</text>
</a>
</g>
</g>
<!-- Node0&#45;&gt;Node15 -->
<g id="edge22" class="edge">
<title>Node0&#45;&gt;Node15</title>
<path fill="none" stroke="#191970" d="M450.8811,-224.2379C458.8179,-215.2318 470.4759,-201.2836 479,-188 501.269,-153.2967 521.4653,-109.3601 532.106,-84.8059"/>
<polygon fill="#191970" stroke="#191970" points="535.349,-86.1237 536.0595,-75.5527 528.9119,-83.3734 535.349,-86.1237"/>
</g>
<!-- Node17 -->
<g id="node18" class="node">
<title>Node17</title>
<polygon fill="none" stroke="#bfbfbf" points="526.5,-168.5 526.5,-187.5 573.5,-187.5 573.5,-168.5 526.5,-168.5"/>
<text text-anchor="middle" x="550" y="-175.5" font-family="FreeSans.ttf" font-size="10.00" fill="#000000">vector</text>
</g>
<!-- Node0&#45;&gt;Node17 -->
<g id="edge23" class="edge">
<title>Node0&#45;&gt;Node17</title>
<path fill="none" stroke="#191970" d="M460.8122,-224.2455C477.8473,-215.4125 503.1575,-202.2887 522.4681,-192.2758"/>
<polygon fill="#191970" stroke="#191970" points="524.137,-195.353 531.4034,-187.6427 520.9147,-189.1388 524.137,-195.353"/>
</g>
<!-- Node2 -->
<g id="node3" class="node">
<title>Node2</title>
<g id="a_node3"><a xlink:href="Span_8h.html" target="_top" xlink:title="iDynTree/Core/Span.h">
<polygon fill="none" stroke="#000000" points="275.5,-56.5 275.5,-75.5 396.5,-75.5 396.5,-56.5 275.5,-56.5"/>
<text text-anchor="middle" x="336" y="-63.5" font-family="FreeSans.ttf" font-size="10.00" fill="#000000">iDynTree/Core/Span.h</text>
</a>
</g>
</g>
<!-- Node1&#45;&gt;Node2 -->
<g id="edge2" class="edge">
<title>Node1&#45;&gt;Node2</title>
<path fill="none" stroke="#191970" d="M382.6518,-168.4509C374.2209,-149.936 355.5162,-108.8591 344.5237,-84.7187"/>
<polygon fill="#191970" stroke="#191970" points="347.6667,-83.1753 340.3372,-75.5249 341.2961,-86.0762 347.6667,-83.1753"/>
</g>
<!-- Node12 -->
<g id="node13" class="node">
<title>Node12</title>
<polygon fill="none" stroke="#bfbfbf" points="301,-112.5 301,-131.5 345,-131.5 345,-112.5 301,-112.5"/>
<text text-anchor="middle" x="323" y="-119.5" font-family="FreeSans.ttf" font-size="10.00" fill="#000000">string</text>
</g>
<!-- Node1&#45;&gt;Node12 -->
<g id="edge12" class="edge">
<title>Node1&#45;&gt;Node12</title>
<path fill="none" stroke="#191970" d="M375.8521,-168.2455C366.4913,-160.0549 352.9142,-148.1749 341.8651,-138.5069"/>
<polygon fill="#191970" stroke="#191970" points="343.8508,-135.5937 334.0202,-131.6427 339.2412,-140.8618 343.8508,-135.5937"/>
</g>
<!-- Node3 -->
<g id="node4" class="node">
<title>Node3</title>
<polygon fill="none" stroke="#bfbfbf" points="0,-.5 0,-19.5 52,-19.5 52,-.5 0,-.5"/>
<text text-anchor="middle" x="26" y="-7.5" font-family="FreeSans.ttf" font-size="10.00" fill="#000000">cassert</text>
</g>
<!-- Node2&#45;&gt;Node3 -->
<g id="edge3" class="edge">
<title>Node2&#45;&gt;Node3</title>
<path fill="none" stroke="#191970" d="M275.2659,-57.8457C221.5836,-50.1843 141.0115,-37.5819 62.3692,-20.1221"/>
<polygon fill="#191970" stroke="#191970" points="62.8159,-16.6352 52.2915,-17.8552 61.2796,-23.4645 62.8159,-16.6352"/>
</g>
<!-- Node4 -->
<g id="node5" class="node">
<title>Node4</title>
<polygon fill="none" stroke="#bfbfbf" points="304,-.5 304,-19.5 368,-19.5 368,-.5 304,-.5"/>
<text text-anchor="middle" x="336" y="-7.5" font-family="FreeSans.ttf" font-size="10.00" fill="#000000">algorithm</text>
</g>
<!-- Node2&#45;&gt;Node4 -->
<g id="edge4" class="edge">
<title>Node2&#45;&gt;Node4</title>
<path fill="none" stroke="#191970" d="M336,-56.2455C336,-48.9382 336,-38.6944 336,-29.7046"/>
<polygon fill="#191970" stroke="#191970" points="339.5001,-29.6426 336,-19.6427 332.5001,-29.6427 339.5001,-29.6426"/>
</g>
<!-- Node5 -->
<g id="node6" class="node">
<title>Node5</title>
<polygon fill="none" stroke="#bfbfbf" points="386,-.5 386,-19.5 428,-19.5 428,-.5 386,-.5"/>
<text text-anchor="middle" x="407" y="-7.5" font-family="FreeSans.ttf" font-size="10.00" fill="#000000">array</text>
</g>
<!-- Node2&#45;&gt;Node5 -->
<g id="edge5" class="edge">
<title>Node2&#45;&gt;Node5</title>
<path fill="none" stroke="#191970" d="M348.3673,-56.2455C358.9554,-47.8943 374.4064,-35.7076 386.7893,-25.9408"/>
<polygon fill="#191970" stroke="#191970" points="389.0903,-28.5837 394.7745,-19.6427 384.7553,-23.0875 389.0903,-28.5837"/>
</g>
<!-- Node6 -->
<g id="node7" class="node">
<title>Node6</title>
<polygon fill="none" stroke="#bfbfbf" points="580.5,-.5 580.5,-19.5 633.5,-19.5 633.5,-.5 580.5,-.5"/>
<text text-anchor="middle" x="607" y="-7.5" font-family="FreeSans.ttf" font-size="10.00" fill="#000000">cstddef</text>
</g>
<!-- Node2&#45;&gt;Node6 -->
<g id="edge6" class="edge">
<title>Node2&#45;&gt;Node6</title>
<path fill="none" stroke="#191970" d="M391.339,-56.4207C436.8858,-48.2521 503.3232,-35.6876 570.4212,-19.9963"/>
<polygon fill="#191970" stroke="#191970" points="571.395,-23.3627 580.3233,-17.6586 569.7866,-16.5499 571.395,-23.3627"/>
</g>
<!-- Node7 -->
<g id="node8" class="node">
<title>Node7</title>
<polygon fill="none" stroke="#bfbfbf" points="446.5,-.5 446.5,-19.5 499.5,-19.5 499.5,-.5 446.5,-.5"/>
<text text-anchor="middle" x="473" y="-7.5" font-family="FreeSans.ttf" font-size="10.00" fill="#000000">iterator</text>
</g>
<!-- Node2&#45;&gt;Node7 -->
<g id="edge7" class="edge">
<title>Node2&#45;&gt;Node7</title>
<path fill="none" stroke="#191970" d="M359.5511,-56.3733C381.8391,-47.2629 415.4937,-33.5062 440.3637,-23.3404"/>
<polygon fill="#191970" stroke="#191970" points="441.8239,-26.5247 449.7562,-19.5011 439.1753,-20.0451 441.8239,-26.5247"/>
</g>
<!-- Node8 -->
<g id="node9" class="node">
<title>Node8</title>
<polygon fill="none" stroke="#bfbfbf" points="518,-.5 518,-19.5 562,-19.5 562,-.5 518,-.5"/>
<text text-anchor="middle" x="540" y="-7.5" font-family="FreeSans.ttf" font-size="10.00" fill="#000000">limits</text>
</g>
<!-- Node2&#45;&gt;Node8 -->
<g id="edge8" class="edge">
<title>Node2&#45;&gt;Node8</title>
<path fill="none" stroke="#191970" d="M374.2967,-56.4281C407.3987,-48.0183 456.7302,-35.162 508.0832,-20.1727"/>
<polygon fill="#191970" stroke="#191970" points="509.0842,-23.5266 517.692,-17.3496 507.1109,-16.8105 509.0842,-23.5266"/>
</g>
<!-- Node9 -->
<g id="node10" class="node">
<title>Node9</title>
<polygon fill="none" stroke="#bfbfbf" points="157.5,-.5 157.5,-19.5 222.5,-19.5 222.5,-.5 157.5,-.5"/>
<text text-anchor="middle" x="190" y="-7.5" font-family="FreeSans.ttf" font-size="10.00" fill="#000000">stdexcept</text>
</g>
<!-- Node2&#45;&gt;Node9 -->
<g id="edge9" class="edge">
<title>Node2&#45;&gt;Node9</title>
<path fill="none" stroke="#191970" d="M310.9017,-56.3733C287.0445,-47.2226 250.9665,-33.3844 224.429,-23.2057"/>
<polygon fill="#191970" stroke="#191970" points="225.361,-19.8145 214.7708,-19.5011 222.8541,-26.3503 225.361,-19.8145"/>
</g>
<!-- Node10 -->
<g id="node11" class="node">
<title>Node10</title>
<polygon fill="none" stroke="#bfbfbf" points="70.5,-.5 70.5,-19.5 139.5,-19.5 139.5,-.5 70.5,-.5"/>
<text text-anchor="middle" x="105" y="-7.5" font-family="FreeSans.ttf" font-size="10.00" fill="#000000">type_traits</text>
</g>
<!-- Node2&#45;&gt;Node10 -->
<g id="edge10" class="edge">
<title>Node2&#45;&gt;Node10</title>
<path fill="none" stroke="#191970" d="M296.5522,-56.4369C255.7528,-46.5461 192.1621,-31.1302 149.5701,-20.8049"/>
<polygon fill="#191970" stroke="#191970" points="150.2971,-17.3798 139.7539,-18.4252 148.6478,-24.1827 150.2971,-17.3798"/>
</g>
<!-- Node11 -->
<g id="node12" class="node">
<title>Node11</title>
<polygon fill="none" stroke="#bfbfbf" points="240.5,-.5 240.5,-19.5 285.5,-19.5 285.5,-.5 240.5,-.5"/>
<text text-anchor="middle" x="263" y="-7.5" font-family="FreeSans.ttf" font-size="10.00" fill="#000000">utility</text>
</g>
<!-- Node2&#45;&gt;Node11 -->
<g id="edge11" class="edge">
<title>Node2&#45;&gt;Node11</title>
<path fill="none" stroke="#191970" d="M323.2844,-56.2455C312.398,-47.8943 296.5117,-35.7076 283.78,-25.9408"/>
<polygon fill="#191970" stroke="#191970" points="285.6346,-22.9523 275.5699,-19.6427 281.3739,-28.5063 285.6346,-22.9523"/>
</g>
<!-- Node13&#45;&gt;Node12 -->
<g id="edge14" class="edge">
<title>Node13&#45;&gt;Node12</title>
<path fill="none" stroke="#191970" d="M222.8006,-168.3733C242.2243,-159.3838 271.4224,-145.8706 293.2964,-135.7471"/>
<polygon fill="#191970" stroke="#191970" points="294.8656,-138.8776 302.4708,-131.5011 291.9255,-132.5249 294.8656,-138.8776"/>
</g>
<!-- Node14 -->
<g id="node15" class="node">
<title>Node14</title>
<g id="a_node15"><a xlink:href="MatrixView_8h.html" target="_top" xlink:title="iDynTree/Core/MatrixView.h">
<polygon fill="none" stroke="#000000" points="126.5,-112.5 126.5,-131.5 277.5,-131.5 277.5,-112.5 126.5,-112.5"/>
<text text-anchor="middle" x="202" y="-119.5" font-family="FreeSans.ttf" font-size="10.00" fill="#000000">iDynTree/Core/MatrixView.h</text>
</a>
</g>
</g>
<!-- Node13&#45;&gt;Node14 -->
<g id="edge15" class="edge">
<title>Node13&#45;&gt;Node14</title>
<path fill="none" stroke="#191970" d="M202,-168.2455C202,-160.9382 202,-150.6944 202,-141.7046"/>
<polygon fill="#191970" stroke="#191970" points="205.5001,-141.6426 202,-131.6427 198.5001,-141.6427 205.5001,-141.6426"/>
</g>
<!-- Node14&#45;&gt;Node2 -->
<g id="edge18" class="edge">
<title>Node14&#45;&gt;Node2</title>
<path fill="none" stroke="#191970" d="M225.0354,-112.3733C246.7388,-103.3032 279.4618,-89.6279 303.755,-79.4755"/>
<polygon fill="#191970" stroke="#191970" points="305.3881,-82.5865 313.2652,-75.5011 302.6889,-76.1278 305.3881,-82.5865"/>
</g>
<!-- Node14&#45;&gt;Node3 -->
<g id="edge16" class="edge">
<title>Node14&#45;&gt;Node3</title>
<path fill="none" stroke="#191970" d="M186.9943,-112.4509C156.3408,-92.9441 86.3322,-48.3932 49.5571,-24.9909"/>
<polygon fill="#191970" stroke="#191970" points="51.2834,-21.9409 40.9677,-19.5249 47.5252,-27.8465 51.2834,-21.9409"/>
</g>
<!-- Node14&#45;&gt;Node10 -->
<g id="edge17" class="edge">
<title>Node14&#45;&gt;Node10</title>
<path fill="none" stroke="#191970" d="M193.7298,-112.4509C177.3366,-93.5227 140.5211,-51.014 119.834,-27.1279"/>
<polygon fill="#191970" stroke="#191970" points="122.4417,-24.7927 113.2492,-19.5249 117.1503,-29.3754 122.4417,-24.7927"/>
</g>
<!-- Node14&#45;&gt;Node15 -->
<g id="edge19" class="edge">
<title>Node14&#45;&gt;Node15</title>
<path fill="none" stroke="#191970" d="M259.7202,-112.4369C318.66,-102.6717 410.107,-87.5207 472.3966,-77.2006"/>
<polygon fill="#191970" stroke="#191970" points="473.2244,-80.6112 482.5178,-75.5237 472.0802,-73.7053 473.2244,-80.6112"/>
</g>
<!-- Node15&#45;&gt;Node6 -->
<g id="edge20" class="edge">
<title>Node15&#45;&gt;Node6</title>
<path fill="none" stroke="#191970" d="M551.6705,-56.2455C561.5661,-47.9746 575.9627,-35.9416 587.5901,-26.2232"/>
<polygon fill="#191970" stroke="#191970" points="590.035,-28.7413 595.4632,-19.6427 585.5458,-23.3703 590.035,-28.7413"/>
</g>
<!-- Node16 -->
<g id="node17" class="node">
<title>Node16</title>
<polygon fill="none" stroke="#bfbfbf" points="652,-.5 652,-19.5 732,-19.5 732,-.5 652,-.5"/>
<text text-anchor="middle" x="692" y="-7.5" font-family="FreeSans.ttf" font-size="10.00" fill="#000000">CoreExport.h</text>
</g>
<!-- Node15&#45;&gt;Node16 -->
<g id="edge21" class="edge">
<title>Node15&#45;&gt;Node16</title>
<path fill="none" stroke="#191970" d="M566.1297,-56.3733C591.0768,-47.1822 628.8592,-33.2624 656.5206,-23.0713"/>
<polygon fill="#191970" stroke="#191970" points="658.0378,-26.2424 666.2112,-19.5011 655.6178,-19.674 658.0378,-26.2424"/>
</g>
</g>
</svg>
