<?xml version="1.0" encoding="UTF-8" standalone="no"?>
<!DOCTYPE svg PUBLIC "-//W3C//DTD SVG 1.1//EN"
 "http://www.w3.org/Graphics/SVG/1.1/DTD/svg11.dtd">
<!-- Generated by graphviz version 2.40.1 (20161225.0304)
 -->
<!-- Title: ExtWrenchesAndJointTorquesEstimator.h Pages: 1 -->
<svg width="2331pt" height="867pt"
 viewBox="0.00 0.00 2330.50 867.00" xmlns="http://www.w3.org/2000/svg" xmlns:xlink="http://www.w3.org/1999/xlink">
<g id="graph0" class="graph" transform="scale(1 1) rotate(0) translate(4 863)">
<title>ExtWrenchesAndJointTorquesEstimator.h</title>
<!-- Node0 -->
<g id="node1" class="node">
<title>Node0</title>
<polygon fill="#bfbfbf" stroke="#000000" points="892.5,-828.5 892.5,-858.5 1050.5,-858.5 1050.5,-828.5 892.5,-828.5"/>
<text text-anchor="start" x="900.5" y="-846.5" font-family="FreeSans.ttf" font-size="10.00" fill="#000000">ExtWrenchesAndJointTorques</text>
<text text-anchor="middle" x="971.5" y="-835.5" font-family="FreeSans.ttf" font-size="10.00" fill="#000000">Estimator.h</text>
</g>
<!-- Node1 -->
<g id="node2" class="node">
<title>Node1</title>
<g id="a_node2"><a xlink:href="ExternalWrenchesEstimation_8h.html" target="_top" xlink:title="iDynTree/Estimation\l/ExternalWrenchesEstimation.h">
<polygon fill="none" stroke="#000000" points="1401,-649.5 1401,-679.5 1570,-679.5 1570,-649.5 1401,-649.5"/>
<text text-anchor="start" x="1409" y="-667.5" font-family="FreeSans.ttf" font-size="10.00" fill="#000000">iDynTree/Estimation</text>
<text text-anchor="middle" x="1485.5" y="-656.5" font-family="FreeSans.ttf" font-size="10.00" fill="#000000">/ExternalWrenchesEstimation.h</text>
</a>
</g>
</g>
<!-- Node0&#45;&gt;Node1 -->
<g id="edge1" class="edge">
<title>Node0&#45;&gt;Node1</title>
<path fill="none" stroke="#191970" d="M1050.5956,-833.4994C1102.88,-825.5188 1172.4118,-812.2645 1231.5,-792 1314.5896,-763.5042 1404.9507,-712.9819 1452.2875,-684.8489"/>
<polygon fill="#191970" stroke="#191970" points="1454.107,-687.8389 1460.8904,-679.7003 1450.5123,-681.8324 1454.107,-687.8389"/>
</g>
<!-- Node41 -->
<g id="node38" class="node">
<title>Node41</title>
<g id="a_node38"><a xlink:href="Model_8h.html" target="_top" xlink:title="iDynTree/Model/Model.h">
<polygon fill="none" stroke="#000000" points="499,-716.5 499,-735.5 632,-735.5 632,-716.5 499,-716.5"/>
<text text-anchor="middle" x="565.5" y="-723.5" font-family="FreeSans.ttf" font-size="10.00" fill="#000000">iDynTree/Model/Model.h</text>
</a>
</g>
</g>
<!-- Node0&#45;&gt;Node41 -->
<g id="edge82" class="edge">
<title>Node0&#45;&gt;Node41</title>
<path fill="none" stroke="#191970" d="M892.2404,-832.0955C841.0947,-823.6307 773.5253,-810.3644 715.5,-792 671.3901,-778.0397 622.7932,-755.1837 593.2085,-740.3665"/>
<polygon fill="#191970" stroke="#191970" points="594.441,-737.0676 583.9382,-735.6742 591.2797,-743.3131 594.441,-737.0676"/>
</g>
<!-- Node50 -->
<g id="node44" class="node">
<title>Node50</title>
<g id="a_node44"><a xlink:href="SubModel_8h.html" target="_top" xlink:title="iDynTree/Model/SubModel.h">
<polygon fill="none" stroke="#000000" points="0,-588 0,-607 151,-607 151,-588 0,-588"/>
<text text-anchor="middle" x="75.5" y="-595" font-family="FreeSans.ttf" font-size="10.00" fill="#000000">iDynTree/Model/SubModel.h</text>
</a>
</g>
</g>
<!-- Node0&#45;&gt;Node50 -->
<g id="edge102" class="edge">
<title>Node0&#45;&gt;Node50</title>
<path fill="none" stroke="#191970" d="M892.4839,-841.2412C713.9096,-834.837 285.4349,-811.791 165.5,-736 120.6129,-707.6343 93.5743,-647.8426 82.0482,-616.9269"/>
<polygon fill="#191970" stroke="#191970" points="85.2692,-615.5388 78.6144,-607.2947 78.6756,-617.8894 85.2692,-615.5388"/>
</g>
<!-- Node51 -->
<g id="node45" class="node">
<title>Node51</title>
<g id="a_node45"><a xlink:href="ContactWrench_8h.html" target="_top" xlink:title="iDynTree/Model/ContactWrench.h">
<polygon fill="none" stroke="#000000" points="961,-655 961,-674 1138,-674 1138,-655 961,-655"/>
<text text-anchor="middle" x="1049.5" y="-662" font-family="FreeSans.ttf" font-size="10.00" fill="#000000">iDynTree/Model/ContactWrench.h</text>
</a>
</g>
</g>
<!-- Node0&#45;&gt;Node51 -->
<g id="edge107" class="edge">
<title>Node0&#45;&gt;Node51</title>
<path fill="none" stroke="#191970" d="M978.1502,-828.2386C992.3674,-795.612 1025.6867,-719.1486 1041.2359,-683.4651"/>
<polygon fill="#191970" stroke="#191970" points="1044.4994,-684.737 1045.2856,-674.1714 1038.0822,-681.9407 1044.4994,-684.737"/>
</g>
<!-- Node52 -->
<g id="node46" class="node">
<title>Node52</title>
<g id="a_node46"><a xlink:href="Traversal_8h.html" target="_top" xlink:title="iDynTree/Model/Traversal.h">
<polygon fill="none" stroke="#000000" points="837.5,-588 837.5,-607 985.5,-607 985.5,-588 837.5,-588"/>
<text text-anchor="middle" x="911.5" y="-595" font-family="FreeSans.ttf" font-size="10.00" fill="#000000">iDynTree/Model/Traversal.h</text>
</a>
</g>
</g>
<!-- Node0&#45;&gt;Node52 -->
<g id="edge113" class="edge">
<title>Node0&#45;&gt;Node52</title>
<path fill="none" stroke="#191970" d="M967.8371,-828.4819C957.4729,-785.9891 927.9405,-664.906 916.3002,-617.181"/>
<polygon fill="#191970" stroke="#191970" points="919.6347,-616.0814 913.8648,-607.1956 912.8341,-617.7401 919.6347,-616.0814"/>
</g>
<!-- Node53 -->
<g id="node47" class="node">
<title>Node53</title>
<g id="a_node47"><a xlink:href="JointState_8h.html" target="_top" xlink:title="iDynTree/Model/JointState.h">
<polygon fill="none" stroke="#000000" points="1996,-588 1996,-607 2147,-607 2147,-588 1996,-588"/>
<text text-anchor="middle" x="2071.5" y="-595" font-family="FreeSans.ttf" font-size="10.00" fill="#000000">iDynTree/Model/JointState.h</text>
</a>
</g>
</g>
<!-- Node0&#45;&gt;Node53 -->
<g id="edge116" class="edge">
<title>Node0&#45;&gt;Node53</title>
<path fill="none" stroke="#191970" d="M1050.6893,-834.3204C1207.6269,-814.9583 1568.3002,-764.6176 1861.5,-680 1927.5595,-660.9352 2001.7565,-629.2291 2041.8761,-611.1796"/>
<polygon fill="#191970" stroke="#191970" points="2043.4175,-614.3238 2051.0813,-607.0082 2040.5282,-607.9479 2043.4175,-614.3238"/>
</g>
<!-- Node54 -->
<g id="node48" class="node">
<title>Node54</title>
<g id="a_node48"><a xlink:href="FreeFloatingState_8h.html" target="_top" xlink:title="iDynTree/Model/FreeFloating\lState.h">
<polygon fill="none" stroke="#000000" points="1228.5,-649.5 1228.5,-679.5 1382.5,-679.5 1382.5,-649.5 1228.5,-649.5"/>
<text text-anchor="start" x="1236.5" y="-667.5" font-family="FreeSans.ttf" font-size="10.00" fill="#000000">iDynTree/Model/FreeFloating</text>
<text text-anchor="middle" x="1305.5" y="-656.5" font-family="FreeSans.ttf" font-size="10.00" fill="#000000">State.h</text>
</a>
</g>
</g>
<!-- Node0&#45;&gt;Node54 -->
<g id="edge121" class="edge">
<title>Node0&#45;&gt;Node54</title>
<path fill="none" stroke="#191970" d="M1050.5676,-831.8365C1107.6711,-822.3396 1179.0398,-807.9337 1204.5,-792 1245.3625,-766.4271 1276.6381,-718.2678 1292.9432,-689.0143"/>
<polygon fill="#191970" stroke="#191970" points="1296.2064,-690.3384 1297.891,-679.8783 1290.0511,-687.0048 1296.2064,-690.3384"/>
</g>
<!-- Node55 -->
<g id="node49" class="node">
<title>Node55</title>
<g id="a_node49"><a xlink:href="LinkTraversalsCache_8h.html" target="_top" xlink:title="iDynTree/Model/LinkTraversals\lCache.h">
<polygon fill="none" stroke="#000000" points="617.5,-582.5 617.5,-612.5 781.5,-612.5 781.5,-582.5 617.5,-582.5"/>
<text text-anchor="start" x="625.5" y="-600.5" font-family="FreeSans.ttf" font-size="10.00" fill="#000000">iDynTree/Model/LinkTraversals</text>
<text text-anchor="middle" x="699.5" y="-589.5" font-family="FreeSans.ttf" font-size="10.00" fill="#000000">Cache.h</text>
</a>
</g>
</g>
<!-- Node0&#45;&gt;Node55 -->
<g id="edge129" class="edge">
<title>Node0&#45;&gt;Node55</title>
<path fill="none" stroke="#191970" d="M954.8946,-828.4819C908.6118,-786.6231 778.0062,-668.5019 723.6769,-619.3659"/>
<polygon fill="#191970" stroke="#191970" points="725.998,-616.746 716.2337,-612.6341 721.3026,-621.9377 725.998,-616.746"/>
</g>
<!-- Node56 -->
<g id="node50" class="node">
<title>Node56</title>
<g id="a_node50"><a xlink:href="Sensors_8h.html" target="_top" xlink:title="iDynTree/Sensors/Sensors.h">
<polygon fill="none" stroke="#000000" points="1045,-772.5 1045,-791.5 1196,-791.5 1196,-772.5 1045,-772.5"/>
<text text-anchor="middle" x="1120.5" y="-779.5" font-family="FreeSans.ttf" font-size="10.00" fill="#000000">iDynTree/Sensors/Sensors.h</text>
</a>
</g>
</g>
<!-- Node0&#45;&gt;Node56 -->
<g id="edge132" class="edge">
<title>Node0&#45;&gt;Node56</title>
<path fill="none" stroke="#191970" d="M1007.9495,-828.4554C1032.3744,-818.374 1064.2581,-805.2139 1087.8521,-795.4755"/>
<polygon fill="#191970" stroke="#191970" points="1089.5021,-798.5809 1097.4103,-791.5303 1086.8313,-792.1104 1089.5021,-798.5809"/>
</g>
<!-- Node2 -->
<g id="node3" class="node">
<title>Node2</title>
<g id="a_node3"><a xlink:href="Direction_8h.html" target="_top" xlink:title="iDynTree/Core/Direction.h">
<polygon fill="none" stroke="#000000" points="1235,-230 1235,-249 1376,-249 1376,-230 1235,-230"/>
<text text-anchor="middle" x="1305.5" y="-237" font-family="FreeSans.ttf" font-size="10.00" fill="#000000">iDynTree/Core/Direction.h</text>
</a>
</g>
</g>
<!-- Node1&#45;&gt;Node2 -->
<g id="edge2" class="edge">
<title>Node1&#45;&gt;Node2</title>
<path fill="none" stroke="#191970" d="M1507.6061,-649.4527C1529.6857,-632.5669 1558.0099,-604.582 1540.5,-582 1501.1321,-531.2282 1447.5382,-589.7609 1400.5,-546 1375.9581,-523.168 1376.5,-508.0202 1376.5,-474.5 1376.5,-474.5 1376.5,-474.5 1376.5,-357 1376.5,-316.2434 1344.8211,-277.5087 1323.7843,-256.2796"/>
<polygon fill="#191970" stroke="#191970" points="1326.2004,-253.7471 1316.5938,-249.279 1321.3173,-258.7626 1326.2004,-253.7471"/>
</g>
<!-- Node4 -->
<g id="node5" class="node">
<title>Node4</title>
<g id="a_node5"><a xlink:href="VectorFixSize_8h.html" target="_top" xlink:title="iDynTree/Core/VectorFixSize.h">
<polygon fill="none" stroke="#000000" points="1697,-168.5 1697,-187.5 1858,-187.5 1858,-168.5 1697,-168.5"/>
<text text-anchor="middle" x="1777.5" y="-175.5" font-family="FreeSans.ttf" font-size="10.00" fill="#000000">iDynTree/Core/VectorFixSize.h</text>
</a>
</g>
</g>
<!-- Node1&#45;&gt;Node4 -->
<g id="edge49" class="edge">
<title>Node1&#45;&gt;Node4</title>
<path fill="none" stroke="#191970" d="M1570.3202,-662.0921C1739.5053,-656.6975 2106.9783,-641.7973 2156.5,-613 2192.1981,-592.2412 2208.5,-577.2951 2208.5,-536 2208.5,-536 2208.5,-536 2208.5,-301 2208.5,-243.8444 2158.3498,-245.7638 2105.5,-224 2063.8378,-206.8433 1950.268,-193.4538 1868.4414,-185.6486"/>
<polygon fill="#191970" stroke="#191970" points="1868.6599,-182.1538 1858.3759,-184.7012 1868.0039,-189.123 1868.6599,-182.1538"/>
</g>
<!-- Node19 -->
<g id="node17" class="node">
<title>Node19</title>
<g id="a_node17"><a xlink:href="Position_8h.html" target="_top" xlink:title="iDynTree/Core/Position.h">
<polygon fill="none" stroke="#000000" points="1024.5,-347.5 1024.5,-366.5 1160.5,-366.5 1160.5,-347.5 1024.5,-347.5"/>
<text text-anchor="middle" x="1092.5" y="-354.5" font-family="FreeSans.ttf" font-size="10.00" fill="#000000">iDynTree/Core/Position.h</text>
</a>
</g>
</g>
<!-- Node1&#45;&gt;Node19 -->
<g id="edge20" class="edge">
<title>Node1&#45;&gt;Node19</title>
<path fill="none" stroke="#191970" d="M1449.5994,-649.4429C1427.3293,-639.7487 1398.3278,-626.4776 1373.5,-613 1310.2921,-578.6881 1151.6161,-482.6929 1111.5,-423 1102.1587,-409.1001 1097.3483,-390.5857 1094.9089,-376.7042"/>
<polygon fill="#191970" stroke="#191970" points="1098.3597,-376.1141 1093.4196,-366.7415 1091.4366,-377.1491 1098.3597,-376.1141"/>
</g>
<!-- Node27 -->
<g id="node24" class="node">
<title>Node27</title>
<g id="a_node24"><a xlink:href="MatrixDynSize_8h.html" target="_top" xlink:title="iDynTree/Core/MatrixDynSize.h">
<polygon fill="none" stroke="#000000" points="1980,-168.5 1980,-187.5 2147,-187.5 2147,-168.5 1980,-168.5"/>
<text text-anchor="middle" x="2063.5" y="-175.5" font-family="FreeSans.ttf" font-size="10.00" fill="#000000">iDynTree/Core/MatrixDynSize.h</text>
</a>
</g>
</g>
<!-- Node1&#45;&gt;Node27 -->
<g id="edge43" class="edge">
<title>Node1&#45;&gt;Node27</title>
<path fill="none" stroke="#191970" d="M1570.0163,-662.253C1745.2739,-657.0276 2136.4275,-642.2208 2189.5,-613 2226.7989,-592.4639 2246.5,-578.5786 2246.5,-536 2246.5,-536 2246.5,-536 2246.5,-301 2246.5,-238.6553 2172.4342,-205.8542 2118.5417,-190.2391"/>
<polygon fill="#191970" stroke="#191970" points="2119.3076,-186.8195 2108.736,-187.5202 2117.4372,-193.565 2119.3076,-186.8195"/>
</g>
<!-- Node28 -->
<g id="node25" class="node">
<title>Node28</title>
<g id="a_node25"><a xlink:href="VectorDynSize_8h.html" target="_top" xlink:title="iDynTree/Core/VectorDynSize.h">
<polygon fill="none" stroke="#000000" points="1938,-526.5 1938,-545.5 2105,-545.5 2105,-526.5 1938,-526.5"/>
<text text-anchor="middle" x="2021.5" y="-533.5" font-family="FreeSans.ttf" font-size="10.00" fill="#000000">iDynTree/Core/VectorDynSize.h</text>
</a>
</g>
</g>
<!-- Node1&#45;&gt;Node28 -->
<g id="edge46" class="edge">
<title>Node1&#45;&gt;Node28</title>
<path fill="none" stroke="#191970" d="M1570.0709,-658.7508C1674.5502,-650.8489 1845.809,-635.0606 1905.5,-613 1908.0776,-612.0474 1965.5569,-573.5737 1998.6168,-551.3803"/>
<polygon fill="#191970" stroke="#191970" points="2000.8777,-554.078 2007.2279,-545.5971 1996.975,-548.2669 2000.8777,-554.078"/>
</g>
<!-- Node29 -->
<g id="node26" class="node">
<title>Node29</title>
<g id="a_node26"><a xlink:href="Indices_8h.html" target="_top" xlink:title="iDynTree/Model/Indices.h">
<polygon fill="none" stroke="#000000" points="630.5,-526.5 630.5,-545.5 768.5,-545.5 768.5,-526.5 630.5,-526.5"/>
<text text-anchor="middle" x="699.5" y="-533.5" font-family="FreeSans.ttf" font-size="10.00" fill="#000000">iDynTree/Model/Indices.h</text>
</a>
</g>
</g>
<!-- Node1&#45;&gt;Node29 -->
<g id="edge50" class="edge">
<title>Node1&#45;&gt;Node29</title>
<path fill="none" stroke="#191970" d="M1418.3421,-649.4345C1337.0229,-631.5676 1195.747,-601.7287 1073.5,-582 972.1331,-565.641 854.4793,-552.0504 778.6123,-543.9828"/>
<polygon fill="#191970" stroke="#191970" points="778.964,-540.5006 768.6514,-542.9298 778.228,-547.4618 778.964,-540.5006"/>
</g>
<!-- Node31 -->
<g id="node28" class="node">
<title>Node31</title>
<g id="a_node28"><a xlink:href="LinkState_8h.html" target="_top" xlink:title="iDynTree/Model/LinkState.h">
<polygon fill="none" stroke="#000000" points="1383,-588 1383,-607 1532,-607 1532,-588 1383,-588"/>
<text text-anchor="middle" x="1457.5" y="-595" font-family="FreeSans.ttf" font-size="10.00" fill="#000000">iDynTree/Model/LinkState.h</text>
</a>
</g>
</g>
<!-- Node1&#45;&gt;Node31 -->
<g id="edge53" class="edge">
<title>Node1&#45;&gt;Node31</title>
<path fill="none" stroke="#191970" d="M1479.1464,-649.2967C1475.0803,-639.5672 1469.773,-626.8675 1465.4313,-616.4784"/>
<polygon fill="#191970" stroke="#191970" points="1468.5785,-614.9321 1461.4931,-607.055 1462.1198,-617.6313 1468.5785,-614.9321"/>
</g>
<!-- Node40 -->
<g id="node37" class="node">
<title>Node40</title>
<polygon fill="none" stroke="#bfbfbf" points="1118,-526.5 1118,-545.5 1165,-545.5 1165,-526.5 1118,-526.5"/>
<text text-anchor="middle" x="1141.5" y="-533.5" font-family="FreeSans.ttf" font-size="10.00" fill="#000000">vector</text>
</g>
<!-- Node1&#45;&gt;Node40 -->
<g id="edge81" class="edge">
<title>Node1&#45;&gt;Node40</title>
<path fill="none" stroke="#191970" d="M1442.5553,-649.4452C1413.8763,-639.3168 1375.3514,-625.5676 1341.5,-613 1282.4949,-591.0938 1214.14,-564.5165 1174.5567,-549.0067"/>
<polygon fill="#191970" stroke="#191970" points="1175.7238,-545.7049 1165.1363,-545.3116 1173.1677,-552.2216 1175.7238,-545.7049"/>
</g>
<!-- Node3 -->
<g id="node4" class="node">
<title>Node3</title>
<polygon fill="none" stroke="#bfbfbf" points="986.5,-112.5 986.5,-131.5 1030.5,-131.5 1030.5,-112.5 986.5,-112.5"/>
<text text-anchor="middle" x="1008.5" y="-119.5" font-family="FreeSans.ttf" font-size="10.00" fill="#000000">string</text>
</g>
<!-- Node2&#45;&gt;Node3 -->
<g id="edge3" class="edge">
<title>Node2&#45;&gt;Node3</title>
<path fill="none" stroke="#191970" d="M1297.131,-229.9323C1282.9772,-214.391 1252.6944,-183.811 1220.5,-168 1161.2879,-138.9204 1083.8575,-128.0994 1040.8581,-124.1649"/>
<polygon fill="#191970" stroke="#191970" points="1040.9592,-120.661 1030.6999,-123.306 1040.3695,-127.6362 1040.9592,-120.661"/>
</g>
<!-- Node2&#45;&gt;Node4 -->
<g id="edge4" class="edge">
<title>Node2&#45;&gt;Node4</title>
<path fill="none" stroke="#191970" d="M1351.5085,-229.9773C1362.61,-227.8482 1374.4562,-225.7154 1385.5,-224 1488.4194,-208.0138 1607.3164,-194.7945 1686.935,-186.6921"/>
<polygon fill="#191970" stroke="#191970" points="1687.3341,-190.1697 1696.9309,-185.6808 1686.6294,-183.2053 1687.3341,-190.1697"/>
</g>
<!-- Node5 -->
<g id="node6" class="node">
<title>Node5</title>
<g id="a_node6"><a xlink:href="Utils_8h.html" target="_top" xlink:title="iDynTree/Core/Utils.h">
<polygon fill="none" stroke="#000000" points="1524,-56.5 1524,-75.5 1643,-75.5 1643,-56.5 1524,-56.5"/>
<text text-anchor="middle" x="1583.5" y="-63.5" font-family="FreeSans.ttf" font-size="10.00" fill="#000000">iDynTree/Core/Utils.h</text>
</a>
</g>
</g>
<!-- Node2&#45;&gt;Node5 -->
<g id="edge19" class="edge">
<title>Node2&#45;&gt;Node5</title>
<path fill="none" stroke="#191970" d="M1320.8425,-229.9248C1366.8837,-201.1904 1504.1059,-115.5499 1559.7076,-80.8489"/>
<polygon fill="#191970" stroke="#191970" points="1561.5746,-83.8094 1568.2049,-75.5457 1557.8684,-77.871 1561.5746,-83.8094"/>
</g>
<!-- Node4&#45;&gt;Node3 -->
<g id="edge15" class="edge">
<title>Node4&#45;&gt;Node3</title>
<path fill="none" stroke="#191970" d="M1696.975,-170.1177C1688.7113,-169.3727 1680.4388,-168.6529 1672.5,-168 1429.9248,-148.0497 1137.0141,-129.7882 1040.8146,-123.9423"/>
<polygon fill="#191970" stroke="#191970" points="1040.7762,-120.4337 1030.5828,-123.3223 1040.3528,-127.4208 1040.7762,-120.4337"/>
</g>
<!-- Node4&#45;&gt;Node5 -->
<g id="edge5" class="edge">
<title>Node4&#45;&gt;Node5</title>
<path fill="none" stroke="#191970" d="M1777.5461,-168.4455C1777.0771,-154.1261 1774.0224,-127.1655 1758.5,-112 1743.2624,-97.1127 1695.0513,-85.0885 1653.0818,-77.0722"/>
<polygon fill="#191970" stroke="#191970" points="1653.5997,-73.6086 1643.1284,-75.2221 1652.3204,-80.4907 1653.5997,-73.6086"/>
</g>
<!-- Node8 -->
<g id="node9" class="node">
<title>Node8</title>
<g id="a_node9"><a xlink:href="Span_8h.html" target="_top" xlink:title="iDynTree/Core/Span.h">
<polygon fill="none" stroke="#ff0000" points="1992,-56.5 1992,-75.5 2113,-75.5 2113,-56.5 1992,-56.5"/>
<text text-anchor="middle" x="2052.5" y="-63.5" font-family="FreeSans.ttf" font-size="10.00" fill="#000000">iDynTree/Core/Span.h</text>
</a>
</g>
</g>
<!-- Node4&#45;&gt;Node8 -->
<g id="edge8" class="edge">
<title>Node4&#45;&gt;Node8</title>
<path fill="none" stroke="#191970" d="M1858.2064,-173.255C1958.6671,-166.5096 2119.337,-152.6315 2137.5,-132 2156.2706,-110.6784 2122.761,-91.4023 2092.451,-79.2632"/>
<polygon fill="#191970" stroke="#191970" points="2093.3836,-75.873 2082.7928,-75.5791 2090.8888,-82.4133 2093.3836,-75.873"/>
</g>
<!-- Node9 -->
<g id="node10" class="node">
<title>Node9</title>
<polygon fill="none" stroke="#bfbfbf" points="1874.5,-.5 1874.5,-19.5 1926.5,-19.5 1926.5,-.5 1874.5,-.5"/>
<text text-anchor="middle" x="1900.5" y="-7.5" font-family="FreeSans.ttf" font-size="10.00" fill="#000000">cassert</text>
</g>
<!-- Node4&#45;&gt;Node9 -->
<g id="edge17" class="edge">
<title>Node4&#45;&gt;Node9</title>
<path fill="none" stroke="#191970" d="M1813.1766,-168.4864C1832.8188,-161.4818 1856.0688,-149.9818 1870.5,-132 1894.4031,-102.2158 1899.6428,-56.1039 1900.5672,-29.9312"/>
<polygon fill="#191970" stroke="#191970" points="1904.0699,-29.7975 1900.7406,-19.7394 1897.0709,-29.6784 1904.0699,-29.7975"/>
</g>
<!-- Node17 -->
<g id="node15" class="node">
<title>Node17</title>
<polygon fill="none" stroke="#bfbfbf" points="1805.5,-112.5 1805.5,-131.5 1861.5,-131.5 1861.5,-112.5 1805.5,-112.5"/>
<text text-anchor="middle" x="1833.5" y="-119.5" font-family="FreeSans.ttf" font-size="10.00" fill="#000000">sstream</text>
</g>
<!-- Node4&#45;&gt;Node17 -->
<g id="edge16" class="edge">
<title>Node4&#45;&gt;Node17</title>
<path fill="none" stroke="#191970" d="M1787.2545,-168.2455C1795.3648,-160.1352 1807.0925,-148.4075 1816.7081,-138.7919"/>
<polygon fill="#191970" stroke="#191970" points="1819.2611,-141.1887 1823.8573,-131.6427 1814.3113,-136.2389 1819.2611,-141.1887"/>
</g>
<!-- Node18 -->
<g id="node16" class="node">
<title>Node18</title>
<polygon fill="none" stroke="#bfbfbf" points="1699.5,-112.5 1699.5,-131.5 1749.5,-131.5 1749.5,-112.5 1699.5,-112.5"/>
<text text-anchor="middle" x="1724.5" y="-119.5" font-family="FreeSans.ttf" font-size="10.00" fill="#000000">cstring</text>
</g>
<!-- Node4&#45;&gt;Node18 -->
<g id="edge18" class="edge">
<title>Node4&#45;&gt;Node18</title>
<path fill="none" stroke="#191970" d="M1768.2681,-168.2455C1760.6683,-160.2155 1749.7123,-148.6394 1740.6632,-139.0781"/>
<polygon fill="#191970" stroke="#191970" points="1743.042,-136.4998 1733.6261,-131.6427 1737.9579,-141.3115 1743.042,-136.4998"/>
</g>
<!-- Node6 -->
<g id="node7" class="node">
<title>Node6</title>
<polygon fill="none" stroke="#bfbfbf" points="1515,-.5 1515,-19.5 1568,-19.5 1568,-.5 1515,-.5"/>
<text text-anchor="middle" x="1541.5" y="-7.5" font-family="FreeSans.ttf" font-size="10.00" fill="#000000">cstddef</text>
</g>
<!-- Node5&#45;&gt;Node6 -->
<g id="edge6" class="edge">
<title>Node5&#45;&gt;Node6</title>
<path fill="none" stroke="#191970" d="M1576.1842,-56.2455C1570.2821,-48.3761 1561.8258,-37.101 1554.7406,-27.6542"/>
<polygon fill="#191970" stroke="#191970" points="1557.5321,-25.5427 1548.732,-19.6427 1551.932,-29.7427 1557.5321,-25.5427"/>
</g>
<!-- Node7 -->
<g id="node8" class="node">
<title>Node7</title>
<polygon fill="none" stroke="#bfbfbf" points="1586.5,-.5 1586.5,-19.5 1666.5,-19.5 1666.5,-.5 1586.5,-.5"/>
<text text-anchor="middle" x="1626.5" y="-7.5" font-family="FreeSans.ttf" font-size="10.00" fill="#000000">CoreExport.h</text>
</g>
<!-- Node5&#45;&gt;Node7 -->
<g id="edge7" class="edge">
<title>Node5&#45;&gt;Node7</title>
<path fill="none" stroke="#191970" d="M1590.99,-56.2455C1597.0326,-48.3761 1605.6903,-37.101 1612.9441,-27.6542"/>
<polygon fill="#191970" stroke="#191970" points="1615.7815,-29.7058 1619.0958,-19.6427 1610.2295,-25.4426 1615.7815,-29.7058"/>
</g>
<!-- Node8&#45;&gt;Node6 -->
<g id="edge12" class="edge">
<title>Node8&#45;&gt;Node6</title>
<path fill="none" stroke="#191970" d="M1991.667,-63.5054C1902.8015,-59.1137 1732.2606,-47.8592 1578.2356,-19.8216"/>
<polygon fill="#191970" stroke="#191970" points="1578.5849,-16.327 1568.1152,-17.9505 1577.3122,-23.2103 1578.5849,-16.327"/>
</g>
<!-- Node8&#45;&gt;Node9 -->
<g id="edge9" class="edge">
<title>Node8&#45;&gt;Node9</title>
<path fill="none" stroke="#191970" d="M2026.3703,-56.3733C2001.4232,-47.1822 1963.6408,-33.2624 1935.9794,-23.0713"/>
<polygon fill="#191970" stroke="#191970" points="1936.8822,-19.674 1926.2888,-19.5011 1934.4622,-26.2424 1936.8822,-19.674"/>
</g>
<!-- Node10 -->
<g id="node11" class="node">
<title>Node10</title>
<polygon fill="none" stroke="#bfbfbf" points="2021.5,-.5 2021.5,-19.5 2085.5,-19.5 2085.5,-.5 2021.5,-.5"/>
<text text-anchor="middle" x="2053.5" y="-7.5" font-family="FreeSans.ttf" font-size="10.00" fill="#000000">algorithm</text>
</g>
<!-- Node8&#45;&gt;Node10 -->
<g id="edge10" class="edge">
<title>Node8&#45;&gt;Node10</title>
<path fill="none" stroke="#191970" d="M2052.6742,-56.2455C2052.8047,-48.9382 2052.9876,-38.6944 2053.1481,-29.7046"/>
<polygon fill="#191970" stroke="#191970" points="2056.6486,-29.7036 2053.3278,-19.6427 2049.6497,-29.5786 2056.6486,-29.7036"/>
</g>
<!-- Node11 -->
<g id="node12" class="node">
<title>Node11</title>
<polygon fill="none" stroke="#bfbfbf" points="1961.5,-.5 1961.5,-19.5 2003.5,-19.5 2003.5,-.5 1961.5,-.5"/>
<text text-anchor="middle" x="1982.5" y="-7.5" font-family="FreeSans.ttf" font-size="10.00" fill="#000000">array</text>
</g>
<!-- Node8&#45;&gt;Node11 -->
<g id="edge11" class="edge">
<title>Node8&#45;&gt;Node11</title>
<path fill="none" stroke="#191970" d="M2040.3069,-56.2455C2029.8679,-47.8943 2014.6345,-35.7076 2002.426,-25.9408"/>
<polygon fill="#191970" stroke="#191970" points="2004.5485,-23.1566 1994.5533,-19.6427 2000.1756,-28.6227 2004.5485,-23.1566"/>
</g>
<!-- Node12 -->
<g id="node13" class="node">
<title>Node12</title>
<polygon fill="none" stroke="#bfbfbf" points="2243,-.5 2243,-19.5 2296,-19.5 2296,-.5 2243,-.5"/>
<text text-anchor="middle" x="2269.5" y="-7.5" font-family="FreeSans.ttf" font-size="10.00" fill="#000000">iterator</text>
</g>
<!-- Node8&#45;&gt;Node12 -->
<g id="edge13" class="edge">
<title>Node8&#45;&gt;Node12</title>
<path fill="none" stroke="#191970" d="M2089.8036,-56.3733C2129.9346,-46.0169 2193.3312,-29.6565 2233.1063,-19.3919"/>
<polygon fill="#191970" stroke="#191970" points="2234.1173,-22.7458 2242.9255,-16.8579 2232.3681,-15.9678 2234.1173,-22.7458"/>
</g>
<!-- Node15 -->
<g id="node14" class="node">
<title>Node15</title>
<polygon fill="none" stroke="#bfbfbf" points="2106,-.5 2106,-19.5 2175,-19.5 2175,-.5 2106,-.5"/>
<text text-anchor="middle" x="2140.5" y="-7.5" font-family="FreeSans.ttf" font-size="10.00" fill="#000000">type_traits</text>
</g>
<!-- Node8&#45;&gt;Node15 -->
<g id="edge14" class="edge">
<title>Node8&#45;&gt;Node15</title>
<path fill="none" stroke="#191970" d="M2067.8284,-56.2455C2081.3303,-47.6534 2101.2122,-35.0014 2116.7686,-25.1018"/>
<polygon fill="#191970" stroke="#191970" points="2118.7897,-27.9643 2125.3472,-19.6427 2115.0315,-22.0587 2118.7897,-27.9643"/>
</g>
<!-- Node19&#45;&gt;Node3 -->
<g id="edge42" class="edge">
<title>Node19&#45;&gt;Node3</title>
<path fill="none" stroke="#191970" d="M1049.5188,-347.4637C978.8021,-330.806 842.983,-294.4071 815.5,-255 769.3204,-188.7843 910.6195,-145.3236 976.5577,-129.1155"/>
<polygon fill="#191970" stroke="#191970" points="977.5415,-132.479 986.453,-126.7489 975.9132,-125.671 977.5415,-132.479"/>
</g>
<!-- Node20 -->
<g id="node18" class="node">
<title>Node20</title>
<g id="a_node18"><a xlink:href="PositionRaw_8h.html" target="_top" xlink:title="iDynTree/Core/PositionRaw.h">
<polygon fill="none" stroke="#000000" points="824.5,-230 824.5,-249 980.5,-249 980.5,-230 824.5,-230"/>
<text text-anchor="middle" x="902.5" y="-237" font-family="FreeSans.ttf" font-size="10.00" fill="#000000">iDynTree/Core/PositionRaw.h</text>
</a>
</g>
</g>
<!-- Node19&#45;&gt;Node20 -->
<g id="edge21" class="edge">
<title>Node19&#45;&gt;Node20</title>
<path fill="none" stroke="#191970" d="M1076.9515,-347.3845C1043.8853,-326.9356 966.3771,-279.0029 926.7537,-254.499"/>
<polygon fill="#191970" stroke="#191970" points="928.3428,-251.3666 917.9969,-249.0836 924.661,-257.3201 928.3428,-251.3666"/>
</g>
<!-- Node21 -->
<g id="node19" class="node">
<title>Node21</title>
<g id="a_node19"><a xlink:href="Rotation_8h.html" target="_top" xlink:title="iDynTree/Core/Rotation.h">
<polygon fill="none" stroke="#000000" points="1405,-291.5 1405,-310.5 1542,-310.5 1542,-291.5 1405,-291.5"/>
<text text-anchor="middle" x="1473.5" y="-298.5" font-family="FreeSans.ttf" font-size="10.00" fill="#000000">iDynTree/Core/Rotation.h</text>
</a>
</g>
</g>
<!-- Node19&#45;&gt;Node21 -->
<g id="edge24" class="edge">
<title>Node19&#45;&gt;Node21</title>
<path fill="none" stroke="#191970" d="M1157.5633,-347.4369C1224.4124,-337.6113 1328.3587,-322.3331 1398.5953,-312.0096"/>
<polygon fill="#191970" stroke="#191970" points="1399.3203,-315.4407 1408.705,-310.5237 1398.3023,-308.5152 1399.3203,-315.4407"/>
</g>
<!-- Node20&#45;&gt;Node3 -->
<g id="edge23" class="edge">
<title>Node20&#45;&gt;Node3</title>
<path fill="none" stroke="#191970" d="M911.1744,-229.8845C929.0326,-210.0889 970.126,-164.5372 992.7874,-139.4173"/>
<polygon fill="#191970" stroke="#191970" points="995.6061,-141.5179 999.7057,-131.7484 990.4085,-136.829 995.6061,-141.5179"/>
</g>
<!-- Node20&#45;&gt;Node4 -->
<g id="edge22" class="edge">
<title>Node20&#45;&gt;Node4</title>
<path fill="none" stroke="#191970" d="M972.489,-229.9749C990.3972,-227.7705 1009.6404,-225.6038 1027.5,-224 1313.4621,-198.3196 1386.2019,-209.6146 1672.5,-188 1677.2161,-187.6439 1682.0494,-187.2579 1686.9283,-186.8517"/>
<polygon fill="#191970" stroke="#191970" points="1687.318,-190.3312 1696.9836,-185.9924 1686.7219,-183.3566 1687.318,-190.3312"/>
</g>
<!-- Node21&#45;&gt;Node3 -->
<g id="edge25" class="edge">
<title>Node21&#45;&gt;Node3</title>
<path fill="none" stroke="#191970" d="M1404.6991,-298.4948C1286.3056,-293.5195 1054.1163,-280.5949 1027.5,-255 996.9387,-225.6115 1000.1989,-170.9006 1004.6583,-141.646"/>
<polygon fill="#191970" stroke="#191970" points="1008.1082,-142.2355 1006.3581,-131.7863 1001.21,-141.0462 1008.1082,-142.2355"/>
</g>
<!-- Node21&#45;&gt;Node4 -->
<g id="edge41" class="edge">
<title>Node21&#45;&gt;Node4</title>
<path fill="none" stroke="#191970" d="M1493.0003,-291.3489C1524.179,-276.0929 1587.3617,-245.8927 1642.5,-224 1673.7214,-211.6035 1709.7658,-199.4271 1736.7528,-190.7189"/>
<polygon fill="#191970" stroke="#191970" points="1738.1672,-193.9411 1746.6234,-187.5581 1736.0324,-187.2746 1738.1672,-193.9411"/>
</g>
<!-- Node22 -->
<g id="node20" class="node">
<title>Node22</title>
<g id="a_node20"><a xlink:href="GeomVector3_8h.html" target="_top" xlink:title="iDynTree/Core/GeomVector3.h">
<polygon fill="none" stroke="#000000" points="1723,-230 1723,-249 1886,-249 1886,-230 1723,-230"/>
<text text-anchor="middle" x="1804.5" y="-237" font-family="FreeSans.ttf" font-size="10.00" fill="#000000">iDynTree/Core/GeomVector3.h</text>
</a>
</g>
</g>
<!-- Node21&#45;&gt;Node22 -->
<g id="edge26" class="edge">
<title>Node21&#45;&gt;Node22</title>
<path fill="none" stroke="#191970" d="M1524.8556,-291.4581C1583.7689,-280.512 1680.3065,-262.5752 1743.1299,-250.9026"/>
<polygon fill="#191970" stroke="#191970" points="1744.1039,-254.2816 1753.2963,-249.0137 1742.8252,-247.3994 1744.1039,-254.2816"/>
</g>
<!-- Node23 -->
<g id="node21" class="node">
<title>Node23</title>
<g id="a_node21"><a xlink:href="RotationRaw_8h.html" target="_top" xlink:title="iDynTree/Core/RotationRaw.h">
<polygon fill="none" stroke="#000000" points="1394.5,-230 1394.5,-249 1552.5,-249 1552.5,-230 1394.5,-230"/>
<text text-anchor="middle" x="1473.5" y="-237" font-family="FreeSans.ttf" font-size="10.00" fill="#000000">iDynTree/Core/RotationRaw.h</text>
</a>
</g>
</g>
<!-- Node21&#45;&gt;Node23 -->
<g id="edge28" class="edge">
<title>Node21&#45;&gt;Node23</title>
<path fill="none" stroke="#191970" d="M1473.5,-291.3906C1473.5,-282.8657 1473.5,-270.1392 1473.5,-259.4235"/>
<polygon fill="#191970" stroke="#191970" points="1477.0001,-259.2448 1473.5,-249.2449 1470.0001,-259.2449 1477.0001,-259.2448"/>
</g>
<!-- Node22&#45;&gt;Node4 -->
<g id="edge27" class="edge">
<title>Node22&#45;&gt;Node4</title>
<path fill="none" stroke="#191970" d="M1800.2813,-229.8906C1796.4204,-221.0965 1790.5966,-207.8312 1785.8039,-196.9145"/>
<polygon fill="#191970" stroke="#191970" points="1789.0029,-195.4943 1781.7782,-187.7449 1782.5934,-198.3083 1789.0029,-195.4943"/>
</g>
<!-- Node23&#45;&gt;Node3 -->
<g id="edge40" class="edge">
<title>Node23&#45;&gt;Node3</title>
<path fill="none" stroke="#191970" d="M1447.3709,-229.969C1406.0298,-215.1524 1322.803,-186.3894 1250.5,-168 1176.2887,-149.1253 1087.5026,-134.1505 1040.8335,-126.8536"/>
<polygon fill="#191970" stroke="#191970" points="1041.1386,-123.3593 1030.7211,-125.29 1040.0688,-130.2771 1041.1386,-123.3593"/>
</g>
<!-- Node24 -->
<g id="node22" class="node">
<title>Node24</title>
<g id="a_node22"><a xlink:href="MatrixFixSize_8h.html" target="_top" xlink:title="iDynTree/Core/MatrixFixSize.h">
<polygon fill="none" stroke="#ff0000" points="1503,-168.5 1503,-187.5 1664,-187.5 1664,-168.5 1503,-168.5"/>
<text text-anchor="middle" x="1583.5" y="-175.5" font-family="FreeSans.ttf" font-size="10.00" fill="#000000">iDynTree/Core/MatrixFixSize.h</text>
</a>
</g>
</g>
<!-- Node23&#45;&gt;Node24 -->
<g id="edge29" class="edge">
<title>Node23&#45;&gt;Node24</title>
<path fill="none" stroke="#191970" d="M1490.6875,-229.8906C1508.6082,-219.8713 1536.9095,-204.0483 1557.5523,-192.5071"/>
<polygon fill="#191970" stroke="#191970" points="1559.4128,-195.4769 1566.4332,-187.5419 1555.9967,-189.367 1559.4128,-195.4769"/>
</g>
<!-- Node24&#45;&gt;Node3 -->
<g id="edge38" class="edge">
<title>Node24&#45;&gt;Node3</title>
<path fill="none" stroke="#191970" d="M1502.9433,-170.1545C1374.4708,-157.6424 1128.7157,-133.708 1040.7825,-125.144"/>
<polygon fill="#191970" stroke="#191970" points="1040.9155,-121.6405 1030.6233,-124.1546 1040.2369,-128.6075 1040.9155,-121.6405"/>
</g>
<!-- Node24&#45;&gt;Node5 -->
<g id="edge30" class="edge">
<title>Node24&#45;&gt;Node5</title>
<path fill="none" stroke="#191970" d="M1583.5,-168.4509C1583.5,-150.184 1583.5,-109.9553 1583.5,-85.6976"/>
<polygon fill="#191970" stroke="#191970" points="1587.0001,-85.5249 1583.5,-75.5249 1580.0001,-85.5249 1587.0001,-85.5249"/>
</g>
<!-- Node24&#45;&gt;Node9 -->
<g id="edge36" class="edge">
<title>Node24&#45;&gt;Node9</title>
<path fill="none" stroke="#191970" d="M1598.1071,-168.3384C1618.4528,-155.0326 1656.6422,-130.6034 1690.5,-112 1752.819,-77.7585 1828.3463,-42.5458 1869.712,-23.7739"/>
<polygon fill="#191970" stroke="#191970" points="1871.3073,-26.8938 1878.9776,-19.5851 1868.4237,-20.5154 1871.3073,-26.8938"/>
</g>
<!-- Node24&#45;&gt;Node17 -->
<g id="edge39" class="edge">
<title>Node24&#45;&gt;Node17</title>
<path fill="none" stroke="#191970" d="M1626.1925,-168.4369C1673.7752,-157.7784 1750.0021,-140.7035 1795.5657,-130.4973"/>
<polygon fill="#191970" stroke="#191970" points="1796.3586,-133.9065 1805.3518,-128.3052 1794.8285,-127.0758 1796.3586,-133.9065"/>
</g>
<!-- Node24&#45;&gt;Node18 -->
<g id="edge37" class="edge">
<title>Node24&#45;&gt;Node18</title>
<path fill="none" stroke="#191970" d="M1607.7388,-168.3733C1630.7789,-159.2226 1665.6214,-145.3844 1691.2501,-135.2057"/>
<polygon fill="#191970" stroke="#191970" points="1692.5756,-138.4452 1700.5775,-131.5011 1689.9918,-131.9395 1692.5756,-138.4452"/>
</g>
<!-- Node25 -->
<g id="node23" class="node">
<title>Node25</title>
<g id="a_node23"><a xlink:href="MatrixView_8h.html" target="_top" xlink:title="iDynTree/Core/MatrixView.h">
<polygon fill="none" stroke="#000000" points="1977,-112.5 1977,-131.5 2128,-131.5 2128,-112.5 1977,-112.5"/>
<text text-anchor="middle" x="2052.5" y="-119.5" font-family="FreeSans.ttf" font-size="10.00" fill="#000000">iDynTree/Core/MatrixView.h</text>
</a>
</g>
</g>
<!-- Node24&#45;&gt;Node25 -->
<g id="edge31" class="edge">
<title>Node24&#45;&gt;Node25</title>
<path fill="none" stroke="#191970" d="M1663.3251,-168.4686C1747.712,-158.3926 1880.3368,-142.5568 1966.8624,-132.2254"/>
<polygon fill="#191970" stroke="#191970" points="1967.4029,-135.6858 1976.9174,-131.0248 1966.5729,-128.7352 1967.4029,-135.6858"/>
</g>
<!-- Node25&#45;&gt;Node5 -->
<g id="edge35" class="edge">
<title>Node25&#45;&gt;Node5</title>
<path fill="none" stroke="#191970" d="M1976.8866,-112.9715C1887.5387,-102.3031 1740.0916,-84.6975 1653.34,-74.3391"/>
<polygon fill="#191970" stroke="#191970" points="1653.6727,-70.8541 1643.3283,-73.1437 1652.8427,-77.8047 1653.6727,-70.8541"/>
</g>
<!-- Node25&#45;&gt;Node8 -->
<g id="edge34" class="edge">
<title>Node25&#45;&gt;Node8</title>
<path fill="none" stroke="#191970" d="M2052.5,-112.2455C2052.5,-104.9382 2052.5,-94.6944 2052.5,-85.7046"/>
<polygon fill="#191970" stroke="#191970" points="2056.0001,-85.6426 2052.5,-75.6427 2049.0001,-85.6427 2056.0001,-85.6426"/>
</g>
<!-- Node25&#45;&gt;Node9 -->
<g id="edge32" class="edge">
<title>Node25&#45;&gt;Node9</title>
<path fill="none" stroke="#191970" d="M2037.4478,-112.4828C2023.3015,-103.4176 2001.6493,-89.2301 1983.5,-76 1961.2031,-59.7464 1936.5653,-39.9026 1919.9698,-26.2433"/>
<polygon fill="#191970" stroke="#191970" points="1922.0157,-23.3933 1912.0795,-19.7158 1917.5537,-28.7869 1922.0157,-23.3933"/>
</g>
<!-- Node25&#45;&gt;Node15 -->
<g id="edge33" class="edge">
<title>Node25&#45;&gt;Node15</title>
<path fill="none" stroke="#191970" d="M2075.2265,-112.3738C2090.7275,-104.689 2110.5414,-92.4763 2122.5,-76 2132.2985,-62.4997 2136.7634,-43.9464 2138.7978,-29.9485"/>
<polygon fill="#191970" stroke="#191970" points="2142.2898,-30.2189 2139.9637,-19.8826 2135.3363,-29.4134 2142.2898,-30.2189"/>
</g>
<!-- Node27&#45;&gt;Node3 -->
<g id="edge44" class="edge">
<title>Node27&#45;&gt;Node3</title>
<path fill="none" stroke="#191970" d="M1979.8341,-173.559C1762.0518,-161.999 1184.5249,-131.3435 1041.0932,-123.7301"/>
<polygon fill="#191970" stroke="#191970" points="1040.9525,-120.2178 1030.781,-123.1827 1040.5814,-127.2079 1040.9525,-120.2178"/>
</g>
<!-- Node27&#45;&gt;Node25 -->
<g id="edge45" class="edge">
<title>Node27&#45;&gt;Node25</title>
<path fill="none" stroke="#191970" d="M2061.5839,-168.2455C2060.1486,-160.9382 2058.1364,-150.6944 2056.3705,-141.7046"/>
<polygon fill="#191970" stroke="#191970" points="2059.756,-140.7805 2054.3941,-131.6427 2052.8873,-142.1298 2059.756,-140.7805"/>
</g>
<!-- Node28&#45;&gt;Node3 -->
<g id="edge48" class="edge">
<title>Node28&#45;&gt;Node3</title>
<path fill="none" stroke="#191970" d="M1941.9268,-526.4515C1847.8157,-514.9966 1700.689,-496.5205 1675.5,-490 1530.8026,-452.5432 1491.5837,-442.3508 1362.5,-367 1340.7394,-354.2976 1207.2768,-238.2549 1186.5,-224 1135.6807,-189.1329 1072.2376,-154.7996 1036.4544,-136.2084"/>
<polygon fill="#191970" stroke="#191970" points="1038.0441,-133.0902 1027.5528,-131.6124 1034.8326,-139.3101 1038.0441,-133.0902"/>
</g>
<!-- Node28&#45;&gt;Node8 -->
<g id="edge47" class="edge">
<title>Node28&#45;&gt;Node8</title>
<path fill="none" stroke="#191970" d="M2049.1485,-526.4979C2116.6728,-501.3408 2284.5,-426.2191 2284.5,-301 2284.5,-301 2284.5,-301 2284.5,-178 2284.5,-137.213 2166.7403,-97.6939 2099.0167,-78.3389"/>
<polygon fill="#191970" stroke="#191970" points="2099.5795,-74.8614 2089.0052,-75.5201 2097.6824,-81.5994 2099.5795,-74.8614"/>
</g>
<!-- Node29&#45;&gt;Node3 -->
<g id="edge51" class="edge">
<title>Node29&#45;&gt;Node3</title>
<path fill="none" stroke="#191970" d="M699.5,-526.4309C699.5,-505.738 699.5,-455.2813 699.5,-413 699.5,-413 699.5,-413 699.5,-239.5 699.5,-188.7608 742.6251,-189.6787 788.5,-168 850.7512,-138.5825 931.7057,-127.8639 976.0062,-124.0431"/>
<polygon fill="#191970" stroke="#191970" points="976.4952,-127.5153 986.1856,-123.2321 975.9392,-120.5375 976.4952,-127.5153"/>
</g>
<!-- Node30 -->
<g id="node27" class="node">
<title>Node30</title>
<polygon fill="none" stroke="#bfbfbf" points="727.5,-465 727.5,-484 813.5,-484 813.5,-465 727.5,-465"/>
<text text-anchor="middle" x="770.5" y="-472" font-family="FreeSans.ttf" font-size="10.00" fill="#000000">ModelExport.h</text>
</g>
<!-- Node29&#45;&gt;Node30 -->
<g id="edge52" class="edge">
<title>Node29&#45;&gt;Node30</title>
<path fill="none" stroke="#191970" d="M710.5938,-526.3906C721.4715,-516.9683 738.2748,-502.4134 751.32,-491.1137"/>
<polygon fill="#191970" stroke="#191970" points="753.9827,-493.4377 759.2498,-484.2449 749.3996,-488.1466 753.9827,-493.4377"/>
</g>
<!-- Node31&#45;&gt;Node29 -->
<g id="edge79" class="edge">
<title>Node31&#45;&gt;Node29</title>
<path fill="none" stroke="#191970" d="M1382.7456,-591.4348C1239.2181,-579.7898 926.2563,-554.3978 779.0461,-542.4539"/>
<polygon fill="#191970" stroke="#191970" points="778.9884,-538.9378 768.7381,-541.6176 778.4222,-545.9149 778.9884,-538.9378"/>
</g>
<!-- Node32 -->
<g id="node29" class="node">
<title>Node32</title>
<g id="a_node29"><a xlink:href="Transform_8h.html" target="_top" xlink:title="iDynTree/Core/Transform.h">
<polygon fill="none" stroke="#000000" points="1120.5,-403.5 1120.5,-422.5 1266.5,-422.5 1266.5,-403.5 1120.5,-403.5"/>
<text text-anchor="middle" x="1193.5" y="-410.5" font-family="FreeSans.ttf" font-size="10.00" fill="#000000">iDynTree/Core/Transform.h</text>
</a>
</g>
</g>
<!-- Node31&#45;&gt;Node32 -->
<g id="edge54" class="edge">
<title>Node31&#45;&gt;Node32</title>
<path fill="none" stroke="#191970" d="M1397.3351,-587.9345C1364.4171,-580.5154 1324.2086,-567.7006 1293.5,-546 1250.2361,-515.427 1217.6421,-460.4094 1202.6314,-431.6553"/>
<polygon fill="#191970" stroke="#191970" points="1205.7141,-429.9956 1198.0666,-422.6631 1199.4723,-433.1642 1205.7141,-429.9956"/>
</g>
<!-- Node33 -->
<g id="node30" class="node">
<title>Node33</title>
<g id="a_node30"><a xlink:href="Twist_8h.html" target="_top" xlink:title="iDynTree/Core/Twist.h">
<polygon fill="none" stroke="#000000" points="1646.5,-526.5 1646.5,-545.5 1768.5,-545.5 1768.5,-526.5 1646.5,-526.5"/>
<text text-anchor="middle" x="1707.5" y="-533.5" font-family="FreeSans.ttf" font-size="10.00" fill="#000000">iDynTree/Core/Twist.h</text>
</a>
</g>
</g>
<!-- Node31&#45;&gt;Node33 -->
<g id="edge59" class="edge">
<title>Node31&#45;&gt;Node33</title>
<path fill="none" stroke="#191970" d="M1496.2882,-587.9581C1540.0784,-577.1857 1611.3909,-559.6428 1658.8696,-547.9631"/>
<polygon fill="#191970" stroke="#191970" points="1659.7464,-551.3518 1668.6208,-545.5643 1658.0742,-544.5545 1659.7464,-551.3518"/>
</g>
<!-- Node36 -->
<g id="node33" class="node">
<title>Node36</title>
<g id="a_node33"><a xlink:href="SpatialAcc_8h.html" target="_top" xlink:title="iDynTree/Core/SpatialAcc.h">
<polygon fill="none" stroke="#000000" points="1442.5,-526.5 1442.5,-545.5 1590.5,-545.5 1590.5,-526.5 1442.5,-526.5"/>
<text text-anchor="middle" x="1516.5" y="-533.5" font-family="FreeSans.ttf" font-size="10.00" fill="#000000">iDynTree/Core/SpatialAcc.h</text>
</a>
</g>
</g>
<!-- Node31&#45;&gt;Node36 -->
<g id="edge69" class="edge">
<title>Node31&#45;&gt;Node36</title>
<path fill="none" stroke="#191970" d="M1466.7188,-587.8906C1475.5858,-578.6478 1489.1912,-564.466 1499.9389,-553.2628"/>
<polygon fill="#191970" stroke="#191970" points="1502.7541,-555.3841 1507.1513,-545.7449 1497.7027,-550.5381 1502.7541,-555.3841"/>
</g>
<!-- Node37 -->
<g id="node34" class="node">
<title>Node37</title>
<g id="a_node34"><a xlink:href="Wrench_8h.html" target="_top" xlink:title="iDynTree/Core/Wrench.h">
<polygon fill="none" stroke="#000000" points="1787,-526.5 1787,-545.5 1920,-545.5 1920,-526.5 1787,-526.5"/>
<text text-anchor="middle" x="1853.5" y="-533.5" font-family="FreeSans.ttf" font-size="10.00" fill="#000000">iDynTree/Core/Wrench.h</text>
</a>
</g>
</g>
<!-- Node31&#45;&gt;Node37 -->
<g id="edge71" class="edge">
<title>Node31&#45;&gt;Node37</title>
<path fill="none" stroke="#191970" d="M1518.9405,-587.9581C1590.0042,-576.9217 1706.8262,-558.7789 1781.9297,-547.1151"/>
<polygon fill="#191970" stroke="#191970" points="1782.8968,-550.5069 1792.2412,-545.5137 1781.8225,-543.5899 1782.8968,-550.5069"/>
</g>
<!-- Node39 -->
<g id="node36" class="node">
<title>Node39</title>
<g id="a_node36"><a xlink:href="ArticulatedBodyInertia_8h.html" target="_top" xlink:title="iDynTree/Core/Articulated\lBodyInertia.h">
<polygon fill="none" stroke="#000000" points="1037,-224.5 1037,-254.5 1178,-254.5 1178,-224.5 1037,-224.5"/>
<text text-anchor="start" x="1045" y="-242.5" font-family="FreeSans.ttf" font-size="10.00" fill="#000000">iDynTree/Core/Articulated</text>
<text text-anchor="middle" x="1107.5" y="-231.5" font-family="FreeSans.ttf" font-size="10.00" fill="#000000">BodyInertia.h</text>
</a>
</g>
</g>
<!-- Node31&#45;&gt;Node39 -->
<g id="edge76" class="edge">
<title>Node31&#45;&gt;Node39</title>
<path fill="none" stroke="#191970" d="M1432.9723,-587.907C1412.5797,-579.1115 1383.5886,-564.6329 1362.5,-546 1306.75,-496.7419 1320.3526,-462.3521 1275.5,-403 1232.5654,-346.1859 1169.8393,-290.6555 1134.4333,-261.1949"/>
<polygon fill="#191970" stroke="#191970" points="1136.4102,-258.2885 1126.469,-254.6249 1131.9557,-263.6883 1136.4102,-258.2885"/>
</g>
<!-- Node31&#45;&gt;Node40 -->
<g id="edge80" class="edge">
<title>Node31&#45;&gt;Node40</title>
<path fill="none" stroke="#191970" d="M1408.4717,-587.9581C1343.6533,-575.3431 1231.1282,-553.4435 1175.1428,-542.5476"/>
<polygon fill="#191970" stroke="#191970" points="1175.5351,-539.0583 1165.0506,-540.5834 1174.1978,-545.9294 1175.5351,-539.0583"/>
</g>
<!-- Node32&#45;&gt;Node3 -->
<g id="edge58" class="edge">
<title>Node32&#45;&gt;Node3</title>
<path fill="none" stroke="#191970" d="M1120.2001,-409.178C996.2284,-400.6897 758.5,-374.7922 758.5,-301 758.5,-301 758.5,-301 758.5,-239.5 758.5,-194.402 791.3051,-190.3066 830.5,-168 876.9561,-141.5609 938.8055,-130.028 976.0278,-125.2131"/>
<polygon fill="#191970" stroke="#191970" points="976.7831,-128.6475 986.2923,-123.9758 975.9453,-121.6978 976.7831,-128.6475"/>
</g>
<!-- Node32&#45;&gt;Node19 -->
<g id="edge55" class="edge">
<title>Node32&#45;&gt;Node19</title>
<path fill="none" stroke="#191970" d="M1175.9071,-403.2455C1160.121,-394.4928 1136.7361,-381.527 1118.7413,-371.5496"/>
<polygon fill="#191970" stroke="#191970" points="1120.3341,-368.4308 1109.8913,-366.6427 1116.9397,-374.5528 1120.3341,-368.4308"/>
</g>
<!-- Node32&#45;&gt;Node21 -->
<g id="edge56" class="edge">
<title>Node32&#45;&gt;Node21</title>
<path fill="none" stroke="#191970" d="M1217.3726,-403.4509C1267.3795,-383.4482 1383.2206,-337.1117 1440.3807,-314.2477"/>
<polygon fill="#191970" stroke="#191970" points="1441.7029,-317.4885 1449.6878,-310.5249 1439.1031,-310.9892 1441.7029,-317.4885"/>
</g>
<!-- Node32&#45;&gt;Node24 -->
<g id="edge57" class="edge">
<title>Node32&#45;&gt;Node24</title>
<path fill="none" stroke="#191970" d="M1252.5584,-403.4574C1342.9033,-387.691 1509.3089,-353.6625 1550.5,-311 1580.4057,-280.026 1584.5206,-226.3769 1584.3639,-197.5923"/>
<polygon fill="#191970" stroke="#191970" points="1587.8621,-197.4692 1584.1261,-187.555 1580.8641,-197.6351 1587.8621,-197.4692"/>
</g>
<!-- Node34 -->
<g id="node31" class="node">
<title>Node34</title>
<g id="a_node31"><a xlink:href="SpatialMotionVector_8h.html" target="_top" xlink:title="iDynTree/Core/SpatialMotion\lVector.h">
<polygon fill="none" stroke="#000000" points="1685,-459.5 1685,-489.5 1840,-489.5 1840,-459.5 1685,-459.5"/>
<text text-anchor="start" x="1693" y="-477.5" font-family="FreeSans.ttf" font-size="10.00" fill="#000000">iDynTree/Core/SpatialMotion</text>
<text text-anchor="middle" x="1762.5" y="-466.5" font-family="FreeSans.ttf" font-size="10.00" fill="#000000">Vector.h</text>
</a>
</g>
</g>
<!-- Node33&#45;&gt;Node34 -->
<g id="edge60" class="edge">
<title>Node33&#45;&gt;Node34</title>
<path fill="none" stroke="#191970" d="M1716.0938,-526.3906C1723.0549,-518.6068 1733.1486,-507.3202 1742.1458,-497.2597"/>
<polygon fill="#191970" stroke="#191970" points="1744.9882,-499.3318 1749.0455,-489.5446 1739.7704,-494.6654 1744.9882,-499.3318"/>
</g>
<!-- Node34&#45;&gt;Node4 -->
<g id="edge61" class="edge">
<title>Node34&#45;&gt;Node4</title>
<path fill="none" stroke="#191970" d="M1746.7285,-459.4006C1726.6406,-438.4631 1694.5,-398.4816 1694.5,-357 1694.5,-357 1694.5,-357 1694.5,-301 1694.5,-265.7513 1693.7499,-253.1959 1713.5,-224 1722.3223,-210.9583 1736.1444,-200.3468 1748.6889,-192.6159"/>
<polygon fill="#191970" stroke="#191970" points="1750.6127,-195.5463 1757.5077,-187.5021 1747.1012,-189.4907 1750.6127,-195.5463"/>
</g>
<!-- Node34&#45;&gt;Node22 -->
<g id="edge62" class="edge">
<title>Node34&#45;&gt;Node22</title>
<path fill="none" stroke="#191970" d="M1757.4563,-459.4297C1753.2567,-444.9558 1748.4221,-422.4763 1751.5,-403 1760.0414,-348.9513 1783.5413,-288.4403 1796.1867,-258.4586"/>
<polygon fill="#191970" stroke="#191970" points="1799.438,-259.7574 1800.1646,-249.1875 1793.0051,-256.9973 1799.438,-259.7574"/>
</g>
<!-- Node35 -->
<g id="node32" class="node">
<title>Node35</title>
<g id="a_node32"><a xlink:href="SpatialVector_8h.html" target="_top" xlink:title="iDynTree/Core/SpatialVector.h">
<polygon fill="none" stroke="#ff0000" points="1761,-403.5 1761,-422.5 1922,-422.5 1922,-403.5 1761,-403.5"/>
<text text-anchor="middle" x="1841.5" y="-410.5" font-family="FreeSans.ttf" font-size="10.00" fill="#000000">iDynTree/Core/SpatialVector.h</text>
</a>
</g>
</g>
<!-- Node34&#45;&gt;Node35 -->
<g id="edge63" class="edge">
<title>Node34&#45;&gt;Node35</title>
<path fill="none" stroke="#191970" d="M1782.0281,-459.2977C1793.7937,-450.1384 1808.7675,-438.4816 1820.7465,-429.1562"/>
<polygon fill="#191970" stroke="#191970" points="1823.1103,-431.7516 1828.8511,-422.8469 1818.8102,-426.228 1823.1103,-431.7516"/>
</g>
<!-- Node35&#45;&gt;Node5 -->
<g id="edge66" class="edge">
<title>Node35&#45;&gt;Node5</title>
<path fill="none" stroke="#191970" d="M1862.0186,-403.4266C1876.8411,-395.5535 1896.3196,-383.0853 1908.5,-367 1924.3664,-346.0471 1922.9893,-336.8925 1927.5,-311 1943.2895,-220.364 1946.8432,-163.3412 1870.5,-112 1835.9061,-88.7354 1726.4115,-76.3395 1653.1124,-70.4739"/>
<polygon fill="#191970" stroke="#191970" points="1653.2627,-66.9751 1643.0214,-69.6891 1652.7199,-73.9541 1653.2627,-66.9751"/>
</g>
<!-- Node35&#45;&gt;Node17 -->
<g id="edge68" class="edge">
<title>Node35&#45;&gt;Node17</title>
<path fill="none" stroke="#191970" d="M1853.5545,-403.2989C1874.2885,-385.4329 1914.5,-345.0991 1914.5,-301 1914.5,-301 1914.5,-301 1914.5,-239.5 1914.5,-197.1676 1878.4203,-159.003 1854.4204,-138.2991"/>
<polygon fill="#191970" stroke="#191970" points="1856.4412,-135.4275 1846.5141,-131.7258 1851.966,-140.8102 1856.4412,-135.4275"/>
</g>
<!-- Node35&#45;&gt;Node19 -->
<g id="edge64" class="edge">
<title>Node35&#45;&gt;Node19</title>
<path fill="none" stroke="#191970" d="M1760.9884,-406.9804C1616.166,-396.1526 1313.5251,-373.5252 1170.5285,-362.8339"/>
<polygon fill="#191970" stroke="#191970" points="1170.7462,-359.3405 1160.5131,-362.0851 1170.2242,-366.321 1170.7462,-359.3405"/>
</g>
<!-- Node35&#45;&gt;Node21 -->
<g id="edge65" class="edge">
<title>Node35&#45;&gt;Node21</title>
<path fill="none" stroke="#191970" d="M1810.1245,-403.4509C1743.7222,-383.2415 1588.998,-336.1516 1514.7248,-313.5467"/>
<polygon fill="#191970" stroke="#191970" points="1515.3819,-310.0882 1504.7961,-310.5249 1513.3437,-316.7849 1515.3819,-310.0882"/>
</g>
<!-- Node35&#45;&gt;Node22 -->
<g id="edge67" class="edge">
<title>Node35&#45;&gt;Node22</title>
<path fill="none" stroke="#191970" d="M1839.458,-403.4248C1833.6093,-375.999 1816.7051,-296.732 1808.743,-259.3964"/>
<polygon fill="#191970" stroke="#191970" points="1812.0901,-258.3096 1806.5813,-249.2595 1805.244,-259.7696 1812.0901,-258.3096"/>
</g>
<!-- Node36&#45;&gt;Node34 -->
<g id="edge70" class="edge">
<title>Node36&#45;&gt;Node34</title>
<path fill="none" stroke="#191970" d="M1554.6676,-526.4581C1591.3036,-517.2991 1647.5168,-503.2458 1692.2477,-492.0631"/>
<polygon fill="#191970" stroke="#191970" points="1693.3338,-495.3994 1702.1863,-489.5784 1691.636,-488.6084 1693.3338,-495.3994"/>
</g>
<!-- Node38 -->
<g id="node35" class="node">
<title>Node38</title>
<g id="a_node35"><a xlink:href="SpatialForceVector_8h.html" target="_top" xlink:title="iDynTree/Core/SpatialForce\lVector.h">
<polygon fill="none" stroke="#000000" points="1876.5,-459.5 1876.5,-489.5 2024.5,-489.5 2024.5,-459.5 1876.5,-459.5"/>
<text text-anchor="start" x="1884.5" y="-477.5" font-family="FreeSans.ttf" font-size="10.00" fill="#000000">iDynTree/Core/SpatialForce</text>
<text text-anchor="middle" x="1950.5" y="-466.5" font-family="FreeSans.ttf" font-size="10.00" fill="#000000">Vector.h</text>
</a>
</g>
</g>
<!-- Node37&#45;&gt;Node38 -->
<g id="edge72" class="edge">
<title>Node37&#45;&gt;Node38</title>
<path fill="none" stroke="#191970" d="M1868.6563,-526.3906C1881.784,-518.0673 1901.2289,-505.7389 1917.8715,-495.1872"/>
<polygon fill="#191970" stroke="#191970" points="1920.1997,-497.8553 1926.7711,-489.5446 1916.4514,-491.9433 1920.1997,-497.8553"/>
</g>
<!-- Node38&#45;&gt;Node4 -->
<g id="edge73" class="edge">
<title>Node38&#45;&gt;Node4</title>
<path fill="none" stroke="#191970" d="M1951.9883,-459.1967C1955.2864,-416.1162 1958.4866,-292.5021 1895.5,-224 1880.792,-208.0041 1859.8541,-197.503 1839.6884,-190.6382"/>
<polygon fill="#191970" stroke="#191970" points="1840.4711,-187.2153 1829.8816,-187.5522 1838.3698,-193.8925 1840.4711,-187.2153"/>
</g>
<!-- Node38&#45;&gt;Node22 -->
<g id="edge74" class="edge">
<title>Node38&#45;&gt;Node22</title>
<path fill="none" stroke="#191970" d="M1948.2892,-459.3647C1945.7009,-444.4485 1940.5676,-421.2985 1931.5,-403 1902.014,-343.4968 1848.9369,-284.7184 1821.6801,-256.6131"/>
<polygon fill="#191970" stroke="#191970" points="1823.9162,-253.895 1814.4107,-249.2155 1818.9234,-258.8013 1823.9162,-253.895"/>
</g>
<!-- Node38&#45;&gt;Node35 -->
<g id="edge75" class="edge">
<title>Node38&#45;&gt;Node35</title>
<path fill="none" stroke="#191970" d="M1923.8356,-459.4554C1906.6059,-449.734 1884.3025,-437.15 1867.2554,-427.5317"/>
<polygon fill="#191970" stroke="#191970" points="1868.8204,-424.3961 1858.3911,-422.5303 1865.3806,-430.4926 1868.8204,-424.3961"/>
</g>
<!-- Node39&#45;&gt;Node3 -->
<g id="edge78" class="edge">
<title>Node39&#45;&gt;Node3</title>
<path fill="none" stroke="#191970" d="M1094.5575,-224.1389C1076.1534,-202.2957 1042.5159,-162.3724 1023.1962,-139.4424"/>
<polygon fill="#191970" stroke="#191970" points="1025.6744,-136.9517 1016.5544,-131.5595 1020.3212,-141.4621 1025.6744,-136.9517"/>
</g>
<!-- Node39&#45;&gt;Node24 -->
<g id="edge77" class="edge">
<title>Node39&#45;&gt;Node24</title>
<path fill="none" stroke="#191970" d="M1178.0041,-230.2059C1193.6415,-228.1537 1210.1326,-225.9966 1225.5,-224 1318.9762,-211.8552 1426.2064,-198.1005 1498.7525,-188.821"/>
<polygon fill="#191970" stroke="#191970" points="1499.2787,-192.2824 1508.7539,-187.542 1498.3906,-185.3389 1499.2787,-192.2824"/>
</g>
<!-- Node41&#45;&gt;Node29 -->
<g id="edge93" class="edge">
<title>Node41&#45;&gt;Node29</title>
<path fill="none" stroke="#191970" d="M538.899,-716.397C522.9127,-709.0839 503.9002,-697.291 494.5,-680 472.5488,-639.6225 491.9737,-611.1561 527.5,-582 544.0905,-568.3843 593.2933,-556.0047 634.8455,-547.5266"/>
<polygon fill="#191970" stroke="#191970" points="635.5501,-550.9551 644.6709,-545.5641 634.179,-544.0906 635.5501,-550.9551"/>
</g>
<!-- Node41&#45;&gt;Node32 -->
<g id="edge92" class="edge">
<title>Node41&#45;&gt;Node32</title>
<path fill="none" stroke="#191970" d="M592.101,-716.397C608.0873,-709.0839 627.0998,-697.291 636.5,-680 643.0807,-667.8954 640.9714,-662.032 636.5,-649 629.9217,-629.8274 615.0783,-632.1726 608.5,-613 604.0286,-599.968 599.8317,-592.7093 608.5,-582 656.8163,-522.3074 703.2781,-565.7177 777.5,-546 919.5792,-508.2554 1085.0589,-451.3969 1157.0015,-426.0256"/>
<polygon fill="#191970" stroke="#191970" points="1158.2588,-429.2934 1166.5199,-422.6598 1155.9252,-422.6938 1158.2588,-429.2934"/>
</g>
<!-- Node41&#45;&gt;Node40 -->
<g id="edge101" class="edge">
<title>Node41&#45;&gt;Node40</title>
<path fill="none" stroke="#191970" d="M616.5293,-716.4404C698.113,-700.3024 862.1965,-664.3207 994.5,-613 1039.627,-595.4952 1088.8355,-567.8023 1117.332,-550.8332"/>
<polygon fill="#191970" stroke="#191970" points="1119.4007,-553.6733 1126.1662,-545.5198 1115.7928,-547.6747 1119.4007,-553.6733"/>
</g>
<!-- Node42 -->
<g id="node39" class="node">
<title>Node42</title>
<g id="a_node39"><a xlink:href="IJoint_8h.html" target="_top" xlink:title="iDynTree/Model/IJoint.h">
<polygon fill="none" stroke="#000000" points="319.5,-655 319.5,-674 447.5,-674 447.5,-655 319.5,-655"/>
<text text-anchor="middle" x="383.5" y="-662" font-family="FreeSans.ttf" font-size="10.00" fill="#000000">iDynTree/Model/IJoint.h</text>
</a>
</g>
</g>
<!-- Node41&#45;&gt;Node42 -->
<g id="edge83" class="edge">
<title>Node41&#45;&gt;Node42</title>
<path fill="none" stroke="#191970" d="M537.0625,-716.3906C505.9428,-705.8749 455.9036,-688.966 421.4515,-677.3243"/>
<polygon fill="#191970" stroke="#191970" points="422.332,-673.9274 411.7378,-674.0419 420.0911,-680.5591 422.332,-673.9274"/>
</g>
<!-- Node43 -->
<g id="node40" class="node">
<title>Node43</title>
<g id="a_node40"><a xlink:href="Link_8h.html" target="_top" xlink:title="iDynTree/Model/Link.h">
<polygon fill="none" stroke="#000000" points="503.5,-655 503.5,-674 627.5,-674 627.5,-655 503.5,-655"/>
<text text-anchor="middle" x="565.5" y="-662" font-family="FreeSans.ttf" font-size="10.00" fill="#000000">iDynTree/Model/Link.h</text>
</a>
</g>
</g>
<!-- Node41&#45;&gt;Node43 -->
<g id="edge85" class="edge">
<title>Node41&#45;&gt;Node43</title>
<path fill="none" stroke="#191970" d="M565.5,-716.3906C565.5,-707.8657 565.5,-695.1392 565.5,-684.4235"/>
<polygon fill="#191970" stroke="#191970" points="569.0001,-684.2448 565.5,-674.2449 562.0001,-684.2449 569.0001,-684.2448"/>
</g>
<!-- Node48 -->
<g id="node42" class="node">
<title>Node48</title>
<g id="a_node42"><a xlink:href="SolidShapes_8h.html" target="_top" xlink:title="iDynTree/Model/SolidShapes.h">
<polygon fill="none" stroke="#000000" points="246,-588 246,-607 409,-607 409,-588 246,-588"/>
<text text-anchor="middle" x="327.5" y="-595" font-family="FreeSans.ttf" font-size="10.00" fill="#000000">iDynTree/Model/SolidShapes.h</text>
</a>
</g>
</g>
<!-- Node41&#45;&gt;Node48 -->
<g id="edge94" class="edge">
<title>Node41&#45;&gt;Node48</title>
<path fill="none" stroke="#191970" d="M498.919,-723.3754C431.5576,-719.1556 334.0833,-708.2182 310.5,-680 295.4759,-662.0232 305.914,-634.2364 315.8294,-615.9584"/>
<polygon fill="#191970" stroke="#191970" points="318.9596,-617.5386 320.974,-607.137 312.9127,-614.0121 318.9596,-617.5386"/>
</g>
<!-- Node49 -->
<g id="node43" class="node">
<title>Node49</title>
<polygon fill="none" stroke="#bfbfbf" points="255,-526.5 255,-545.5 304,-545.5 304,-526.5 255,-526.5"/>
<text text-anchor="middle" x="279.5" y="-533.5" font-family="FreeSans.ttf" font-size="10.00" fill="#000000">cstdlib</text>
</g>
<!-- Node41&#45;&gt;Node49 -->
<g id="edge100" class="edge">
<title>Node41&#45;&gt;Node49</title>
<path fill="none" stroke="#191970" d="M498.6983,-719.33C431.4745,-711.758 333.0831,-698.0727 299.5,-680 263.5066,-660.6302 251.5593,-650.9991 236.5,-613 231.4239,-600.1914 231.4427,-594.816 236.5,-582 241.0469,-570.4774 249.9932,-560.143 258.5534,-552.2024"/>
<polygon fill="#191970" stroke="#191970" points="260.8938,-554.8057 266.169,-545.6175 256.3153,-549.5106 260.8938,-554.8057"/>
</g>
<!-- Node42&#45;&gt;Node29 -->
<g id="edge84" class="edge">
<title>Node42&#45;&gt;Node29</title>
<path fill="none" stroke="#191970" d="M389.6497,-654.7497C401.3231,-637.1263 428.5001,-600.1212 461.5,-582 488.4378,-567.2076 562.1039,-554.3214 620.4124,-545.9811"/>
<polygon fill="#191970" stroke="#191970" points="620.9515,-549.4399 630.3659,-544.5798 619.9756,-542.5082 620.9515,-549.4399"/>
</g>
<!-- Node43&#45;&gt;Node29 -->
<g id="edge91" class="edge">
<title>Node43&#45;&gt;Node29</title>
<path fill="none" stroke="#191970" d="M556.9943,-654.9319C543.4937,-638.5456 520.3577,-604.6876 537.5,-582 548.9066,-566.9036 590.1911,-555.3137 628.2251,-547.5435"/>
<polygon fill="#191970" stroke="#191970" points="629.1864,-550.9214 638.3199,-545.5522 627.8316,-544.0538 629.1864,-550.9214"/>
</g>
<!-- Node44 -->
<g id="node41" class="node">
<title>Node44</title>
<g id="a_node41"><a xlink:href="SpatialInertia_8h.html" target="_top" xlink:title="iDynTree/Core/SpatialInertia.h">
<polygon fill="none" stroke="#ff0000" points="1625.5,-588 1625.5,-607 1787.5,-607 1787.5,-588 1625.5,-588"/>
<text text-anchor="middle" x="1706.5" y="-595" font-family="FreeSans.ttf" font-size="10.00" fill="#000000">iDynTree/Core/SpatialInertia.h</text>
</a>
</g>
</g>
<!-- Node43&#45;&gt;Node44 -->
<g id="edge86" class="edge">
<title>Node43&#45;&gt;Node44</title>
<path fill="none" stroke="#191970" d="M627.7215,-662.085C782.2757,-655.8966 1196.0481,-638.1681 1540.5,-613 1564.749,-611.2282 1590.9571,-608.9503 1615.228,-606.6892"/>
<polygon fill="#191970" stroke="#191970" points="1615.8716,-610.1442 1625.4998,-605.7228 1615.2158,-603.175 1615.8716,-610.1442"/>
</g>
<!-- Node44&#45;&gt;Node4 -->
<g id="edge87" class="edge">
<title>Node44&#45;&gt;Node4</title>
<path fill="none" stroke="#191970" d="M1687.2679,-587.8761C1671.5919,-579.0617 1650.0617,-564.5728 1637.5,-546 1619.079,-518.764 1618.5,-507.3806 1618.5,-474.5 1618.5,-474.5 1618.5,-474.5 1618.5,-357 1618.5,-288.9187 1642.8002,-268.2966 1694.5,-224 1709.7689,-210.9176 1729.3438,-199.8539 1745.6486,-191.8577"/>
<polygon fill="#191970" stroke="#191970" points="1747.2773,-194.959 1754.8134,-187.512 1744.2781,-188.634 1747.2773,-194.959"/>
</g>
<!-- Node44&#45;&gt;Node33 -->
<g id="edge88" class="edge">
<title>Node44&#45;&gt;Node33</title>
<path fill="none" stroke="#191970" d="M1706.6563,-587.8906C1706.7949,-579.3657 1707.0018,-566.6392 1707.176,-555.9235"/>
<polygon fill="#191970" stroke="#191970" points="1710.6784,-555.8005 1707.3415,-545.7449 1703.6793,-555.6866 1710.6784,-555.8005"/>
</g>
<!-- Node44&#45;&gt;Node36 -->
<g id="edge89" class="edge">
<title>Node44&#45;&gt;Node36</title>
<path fill="none" stroke="#191970" d="M1676.8125,-587.8906C1644.1854,-577.3298 1591.6374,-560.3208 1555.6575,-548.6747"/>
<polygon fill="#191970" stroke="#191970" points="1556.5709,-545.2916 1545.979,-545.5419 1554.4152,-551.9514 1556.5709,-545.2916"/>
</g>
<!-- Node44&#45;&gt;Node37 -->
<g id="edge90" class="edge">
<title>Node44&#45;&gt;Node37</title>
<path fill="none" stroke="#191970" d="M1729.4688,-587.8906C1754.1724,-577.5554 1793.637,-561.0447 1821.4027,-549.4284"/>
<polygon fill="#191970" stroke="#191970" points="1822.8182,-552.6303 1830.6925,-545.5419 1820.1165,-546.1727 1822.8182,-552.6303"/>
</g>
<!-- Node48&#45;&gt;Node3 -->
<g id="edge96" class="edge">
<title>Node48&#45;&gt;Node3</title>
<path fill="none" stroke="#191970" d="M336.5264,-587.8462C353.9464,-568.1624 390.5,-521.2849 390.5,-474.5 390.5,-474.5 390.5,-474.5 390.5,-239.5 390.5,-179.3428 848.2722,-135.6991 975.8462,-124.7044"/>
<polygon fill="#191970" stroke="#191970" points="976.4735,-128.1637 986.14,-123.8266 975.8787,-121.189 976.4735,-128.1637"/>
</g>
<!-- Node48&#45;&gt;Node29 -->
<g id="edge99" class="edge">
<title>Node48&#45;&gt;Node29</title>
<path fill="none" stroke="#191970" d="M385.2168,-587.9581C451.8371,-576.9443 561.2669,-558.8531 631.834,-547.1867"/>
<polygon fill="#191970" stroke="#191970" points="632.6587,-550.598 641.9538,-545.5137 631.5168,-543.6917 632.6587,-550.598"/>
</g>
<!-- Node48&#45;&gt;Node32 -->
<g id="edge98" class="edge">
<title>Node48&#45;&gt;Node32</title>
<path fill="none" stroke="#191970" d="M348.5765,-587.9578C406.3442,-562.2651 572.6218,-491.3893 718.5,-459 853.5057,-429.0248 1014.3965,-418.5825 1110.0215,-414.9447"/>
<polygon fill="#191970" stroke="#191970" points="1110.3441,-418.4354 1120.21,-414.5736 1110.0892,-411.44 1110.3441,-418.4354"/>
</g>
<!-- Node48&#45;&gt;Node40 -->
<g id="edge97" class="edge">
<title>Node48&#45;&gt;Node40</title>
<path fill="none" stroke="#191970" d="M409.2764,-591.3216C584.2104,-578.1048 988.5281,-547.5575 1107.7999,-538.5461"/>
<polygon fill="#191970" stroke="#191970" points="1108.0982,-542.0337 1117.806,-537.7901 1107.5707,-535.0536 1108.0982,-542.0337"/>
</g>
<!-- Node48&#45;&gt;Node49 -->
<g id="edge95" class="edge">
<title>Node48&#45;&gt;Node49</title>
<path fill="none" stroke="#191970" d="M320,-587.8906C312.9262,-578.8273 302.1458,-565.0149 293.4854,-553.9188"/>
<polygon fill="#191970" stroke="#191970" points="296.0176,-551.4746 287.1057,-545.7449 290.4994,-555.7815 296.0176,-551.4746"/>
</g>
<!-- Node50&#45;&gt;Node3 -->
<g id="edge105" class="edge">
<title>Node50&#45;&gt;Node3</title>
<path fill="none" stroke="#191970" d="M83.9533,-587.7437C100.2673,-567.8757 134.5,-520.6833 134.5,-474.5 134.5,-474.5 134.5,-474.5 134.5,-239.5 134.5,-204.864 137.0731,-187.788 165.5,-168 199.3481,-144.4384 825.4346,-126.7469 976.094,-122.8191"/>
<polygon fill="#191970" stroke="#191970" points="976.1991,-126.3176 986.1052,-122.5601 976.018,-119.3199 976.1991,-126.3176"/>
</g>
<!-- Node50&#45;&gt;Node6 -->
<g id="edge106" class="edge">
<title>Node50&#45;&gt;Node6</title>
<path fill="none" stroke="#191970" d="M76.4151,-587.9414C78.3126,-567.269 82.5,-516.8497 82.5,-474.5 82.5,-474.5 82.5,-474.5 82.5,-122 82.5,-48.3843 1278.9053,-16.2518 1504.9108,-10.8386"/>
<polygon fill="#191970" stroke="#191970" points="1505.0167,-14.3371 1514.9309,-10.6009 1504.8507,-7.3391 1505.0167,-14.3371"/>
</g>
<!-- Node50&#45;&gt;Node29 -->
<g id="edge103" class="edge">
<title>Node50&#45;&gt;Node29</title>
<path fill="none" stroke="#191970" d="M151.0796,-590.051C269.7849,-578.3517 498.8489,-555.7757 619.9585,-543.8394"/>
<polygon fill="#191970" stroke="#191970" points="620.659,-547.2874 630.2674,-542.8234 619.9723,-540.3212 620.659,-547.2874"/>
</g>
<!-- Node50&#45;&gt;Node40 -->
<g id="edge104" class="edge">
<title>Node50&#45;&gt;Node40</title>
<path fill="none" stroke="#191970" d="M151.2001,-589.501C178.1091,-586.8461 208.635,-584.0484 236.5,-582 575.7893,-557.0577 987.6365,-541.4305 1107.3569,-537.1787"/>
<polygon fill="#191970" stroke="#191970" points="1107.8337,-540.6642 1117.7041,-536.8139 1107.587,-533.6685 1107.8337,-540.6642"/>
</g>
<!-- Node51&#45;&gt;Node19 -->
<g id="edge108" class="edge">
<title>Node51&#45;&gt;Node19</title>
<path fill="none" stroke="#191970" d="M1049.7533,-654.8289C1050.2915,-633.4199 1051.5,-580.4003 1051.5,-536 1051.5,-536 1051.5,-536 1051.5,-474.5 1051.5,-437.8002 1069.5511,-398.0714 1081.6984,-375.4911"/>
<polygon fill="#191970" stroke="#191970" points="1084.8104,-377.0968 1086.6257,-366.6586 1078.6973,-373.6865 1084.8104,-377.0968"/>
</g>
<!-- Node51&#45;&gt;Node29 -->
<g id="edge110" class="edge">
<title>Node51&#45;&gt;Node29</title>
<path fill="none" stroke="#191970" d="M970.3583,-654.9905C926.8562,-647.6026 872.8766,-634.7998 828.5,-613 808.9371,-603.3898 808.7771,-593.8747 790.5,-582 771.5872,-569.7124 748.96,-558.2618 731.0001,-549.8586"/>
<polygon fill="#191970" stroke="#191970" points="732.1036,-546.5139 721.5557,-545.5177 729.1802,-552.8742 732.1036,-546.5139"/>
</g>
<!-- Node51&#45;&gt;Node31 -->
<g id="edge111" class="edge">
<title>Node51&#45;&gt;Node31</title>
<path fill="none" stroke="#191970" d="M1107.5232,-654.9717C1181.742,-642.7838 1310.0954,-621.7062 1389.0241,-608.7448"/>
<polygon fill="#191970" stroke="#191970" points="1390.0464,-612.1239 1399.3471,-607.0496 1388.912,-605.2164 1390.0464,-612.1239"/>
</g>
<!-- Node51&#45;&gt;Node37 -->
<g id="edge109" class="edge">
<title>Node51&#45;&gt;Node37</title>
<path fill="none" stroke="#191970" d="M1138.1316,-655.9353C1164.3201,-653.5354 1193.0533,-651.0303 1219.5,-649 1283.5473,-644.0832 1740.0643,-643.6798 1796.5,-613 1819.9259,-600.2651 1836.3649,-573.2842 1845.3812,-554.8936"/>
<polygon fill="#191970" stroke="#191970" points="1848.6092,-556.2515 1849.6238,-545.7054 1842.254,-553.317 1848.6092,-556.2515"/>
</g>
<!-- Node51&#45;&gt;Node40 -->
<g id="edge112" class="edge">
<title>Node51&#45;&gt;Node40</title>
<path fill="none" stroke="#191970" d="M1056.415,-654.8416C1071.733,-633.4463 1108.7297,-581.7715 1128.5121,-554.1407"/>
<polygon fill="#191970" stroke="#191970" points="1131.5292,-555.9389 1134.5048,-545.7705 1125.8376,-551.8639 1131.5292,-555.9389"/>
</g>
<!-- Node52&#45;&gt;Node29 -->
<g id="edge114" class="edge">
<title>Node52&#45;&gt;Node29</title>
<path fill="none" stroke="#191970" d="M878.375,-587.8906C841.6589,-577.2395 782.3336,-560.0296 742.1662,-548.3772"/>
<polygon fill="#191970" stroke="#191970" points="742.9716,-544.9666 732.3924,-545.5419 741.0213,-551.6895 742.9716,-544.9666"/>
</g>
<!-- Node52&#45;&gt;Node40 -->
<g id="edge115" class="edge">
<title>Node52&#45;&gt;Node40</title>
<path fill="none" stroke="#191970" d="M947.1851,-587.9581C991.1066,-576.2139 1065.1233,-556.4225 1108.0119,-544.9544"/>
<polygon fill="#191970" stroke="#191970" points="1108.9386,-548.3297 1117.6951,-542.3652 1107.1304,-541.5672 1108.9386,-548.3297"/>
</g>
<!-- Node53&#45;&gt;Node4 -->
<g id="edge117" class="edge">
<title>Node53&#45;&gt;Node4</title>
<path fill="none" stroke="#191970" d="M2087.4061,-587.864C2115.3911,-569.556 2170.5,-526.8567 2170.5,-474.5 2170.5,-474.5 2170.5,-474.5 2170.5,-301 2170.5,-238.0445 1984.4992,-203.4964 1868.4186,-188.0653"/>
<polygon fill="#191970" stroke="#191970" points="1868.8223,-184.5884 1858.4533,-186.7646 1867.9162,-191.5295 1868.8223,-184.5884"/>
</g>
<!-- Node53&#45;&gt;Node28 -->
<g id="edge118" class="edge">
<title>Node53&#45;&gt;Node28</title>
<path fill="none" stroke="#191970" d="M2063.6875,-587.8906C2056.246,-578.7376 2044.8666,-564.7409 2035.8008,-553.59"/>
<polygon fill="#191970" stroke="#191970" points="2038.4467,-551.2962 2029.4226,-545.7449 2033.0153,-555.712 2038.4467,-551.2962"/>
</g>
<!-- Node53&#45;&gt;Node38 -->
<g id="edge119" class="edge">
<title>Node53&#45;&gt;Node38</title>
<path fill="none" stroke="#191970" d="M2084.6988,-587.8938C2102.4027,-573.8277 2129.9295,-547.0176 2114.5,-526 2104.2494,-512.0369 2069.5725,-500.1474 2034.7298,-491.3222"/>
<polygon fill="#191970" stroke="#191970" points="2035.4642,-487.8986 2024.9182,-488.9151 2033.7963,-494.697 2035.4642,-487.8986"/>
</g>
<!-- Node53&#45;&gt;Node40 -->
<g id="edge120" class="edge">
<title>Node53&#45;&gt;Node40</title>
<path fill="none" stroke="#191970" d="M1995.7885,-592.4933C1804.7591,-579.8607 1308.9044,-547.0703 1175.1578,-538.2258"/>
<polygon fill="#191970" stroke="#191970" points="1175.3108,-534.7283 1165.1016,-537.5608 1174.8489,-541.7131 1175.3108,-534.7283"/>
</g>
<!-- Node54&#45;&gt;Node28 -->
<g id="edge124" class="edge">
<title>Node54&#45;&gt;Node28</title>
<path fill="none" stroke="#191970" d="M1382.7972,-650.1815C1385.732,-649.7609 1388.6407,-649.3648 1391.5,-649 1496.7268,-635.5743 1768.9831,-652.3364 1867.5,-613 1887.742,-604.9177 1886.7044,-593.0357 1905.5,-582 1928.9346,-568.2405 1957.2543,-556.9209 1980.0453,-548.9536"/>
<polygon fill="#191970" stroke="#191970" points="1981.4305,-552.1793 1989.7663,-545.6398 1979.1718,-545.5537 1981.4305,-552.1793"/>
</g>
<!-- Node54&#45;&gt;Node29 -->
<g id="edge125" class="edge">
<title>Node54&#45;&gt;Node29</title>
<path fill="none" stroke="#191970" d="M1255.2529,-649.4317C1194.0856,-631.4935 1087.4357,-601.5167 994.5,-582 921.9703,-566.7686 838.4374,-554.2021 778.8165,-546.0749"/>
<polygon fill="#191970" stroke="#191970" points="779.0947,-542.5807 768.7159,-544.7093 778.1568,-549.5176 779.0947,-542.5807"/>
</g>
<!-- Node54&#45;&gt;Node31 -->
<g id="edge126" class="edge">
<title>Node54&#45;&gt;Node31</title>
<path fill="none" stroke="#191970" d="M1339.6118,-649.4639C1365.5749,-638.0196 1401.023,-622.3945 1426.2515,-611.274"/>
<polygon fill="#191970" stroke="#191970" points="1427.9732,-614.3401 1435.712,-607.1039 1425.1498,-607.9347 1427.9732,-614.3401"/>
</g>
<!-- Node54&#45;&gt;Node32 -->
<g id="edge122" class="edge">
<title>Node54&#45;&gt;Node32</title>
<path fill="none" stroke="#191970" d="M1296.2338,-649.1096C1278.5811,-619.2847 1239.7333,-551.1624 1215.5,-490 1207.9998,-471.0703 1201.881,-448.5989 1198.0176,-432.8333"/>
<polygon fill="#191970" stroke="#191970" points="1201.3249,-431.6102 1195.6156,-422.6852 1194.5131,-433.2226 1201.3249,-431.6102"/>
</g>
<!-- Node54&#45;&gt;Node33 -->
<g id="edge123" class="edge">
<title>Node54&#45;&gt;Node33</title>
<path fill="none" stroke="#191970" d="M1382.8035,-650.2299C1385.7366,-649.7957 1388.6431,-649.3836 1391.5,-649 1436.2755,-642.9873 1766.0017,-646.3295 1796.5,-613 1805.8011,-602.8355 1803.6648,-593.7683 1796.5,-582 1787.2,-566.7246 1771.0134,-556.2991 1754.9724,-549.2919"/>
<polygon fill="#191970" stroke="#191970" points="1756.1826,-546.0065 1745.5976,-545.5503 1753.5878,-552.5078 1756.1826,-546.0065"/>
</g>
<!-- Node54&#45;&gt;Node40 -->
<g id="edge128" class="edge">
<title>Node54&#45;&gt;Node40</title>
<path fill="none" stroke="#191970" d="M1286.043,-649.2548C1254.8656,-624.8261 1193.9897,-577.1276 1162.102,-552.1424"/>
<polygon fill="#191970" stroke="#191970" points="1163.9556,-549.1484 1153.9254,-545.7358 1159.6383,-554.6585 1163.9556,-549.1484"/>
</g>
<!-- Node54&#45;&gt;Node53 -->
<g id="edge127" class="edge">
<title>Node54&#45;&gt;Node53</title>
<path fill="none" stroke="#191970" d="M1382.7946,-650.161C1385.7302,-649.7461 1388.6397,-649.3569 1391.5,-649 1618.7423,-620.6486 1677.2563,-631.6464 1905.5,-613 1931.6047,-610.8674 1959.9951,-608.3058 1985.7939,-605.885"/>
<polygon fill="#191970" stroke="#191970" points="1986.2923,-609.3536 1995.9193,-604.9297 1985.6348,-602.3845 1986.2923,-609.3536"/>
</g>
<!-- Node55&#45;&gt;Node29 -->
<g id="edge131" class="edge">
<title>Node55&#45;&gt;Node29</title>
<path fill="none" stroke="#191970" d="M699.5,-582.2977C699.5,-574.3834 699.5,-564.6043 699.5,-556.0759"/>
<polygon fill="#191970" stroke="#191970" points="703.0001,-555.8469 699.5,-545.8469 696.0001,-555.847 703.0001,-555.8469"/>
</g>
<!-- Node55&#45;&gt;Node40 -->
<g id="edge130" class="edge">
<title>Node55&#45;&gt;Node40</title>
<path fill="none" stroke="#191970" d="M781.9381,-587.576C890.9029,-574.3682 1072.7443,-551.9806 1103.5,-546 1104.9648,-545.7152 1106.4568,-545.406 1107.9605,-545.0787"/>
<polygon fill="#191970" stroke="#191970" points="1108.9712,-548.4362 1117.8933,-542.7223 1107.3554,-541.6252 1108.9712,-548.4362"/>
</g>
<!-- Node56&#45;&gt;Node3 -->
<g id="edge134" class="edge">
<title>Node56&#45;&gt;Node3</title>
<path fill="none" stroke="#191970" d="M1044.6883,-780.4644C821.0299,-774.9372 179.5,-751.5002 179.5,-664.5 179.5,-664.5 179.5,-664.5 179.5,-239.5 179.5,-157.5209 823.2224,-128.7816 976.1772,-123.11"/>
<polygon fill="#191970" stroke="#191970" points="976.46,-126.6022 986.3263,-122.7411 976.2057,-119.6068 976.46,-126.6022"/>
</g>
<!-- Node56&#45;&gt;Node12 -->
<g id="edge136" class="edge">
<title>Node56&#45;&gt;Node12</title>
<path fill="none" stroke="#191970" d="M1196.1458,-778.5884C1459.8323,-766.2034 2322.5,-721.3416 2322.5,-664.5 2322.5,-664.5 2322.5,-664.5 2322.5,-122 2322.5,-85.8604 2299.6748,-48.9196 2283.9825,-27.7933"/>
<polygon fill="#191970" stroke="#191970" points="2286.661,-25.5352 2277.7813,-19.7558 2281.1188,-29.8112 2286.661,-25.5352"/>
</g>
<!-- Node56&#45;&gt;Node22 -->
<g id="edge133" class="edge">
<title>Node56&#45;&gt;Node22</title>
<path fill="none" stroke="#191970" d="M1196.2457,-776.3379C1313.7611,-765.8038 1531.4273,-738.7094 1578.5,-680 1596.9966,-656.931 1567.2734,-591.5685 1557.5,-582 1514.2904,-539.696 1401.8469,-577.5245 1433.5,-526 1491.6598,-431.3284 1656.5,-524.1093 1656.5,-413 1656.5,-413 1656.5,-413 1656.5,-357 1656.5,-302.4036 1719.0406,-269.1364 1762.8121,-252.5389"/>
<polygon fill="#191970" stroke="#191970" points="1764.1846,-255.7641 1772.3862,-249.0572 1761.7921,-249.1857 1764.1846,-255.7641"/>
</g>
<!-- Node56&#45;&gt;Node28 -->
<g id="edge137" class="edge">
<title>Node56&#45;&gt;Node28</title>
<path fill="none" stroke="#191970" d="M1196.4703,-777.3339C1314.0617,-769.6965 1534.6157,-753.6046 1611.5,-736 1764.0747,-701.0641 1809.0125,-696.3464 1941.5,-613 1967.4834,-596.6542 1992.096,-570.85 2006.9894,-553.6791"/>
<polygon fill="#191970" stroke="#191970" points="2010.0548,-555.4754 2013.8476,-545.5826 2004.7134,-550.9509 2010.0548,-555.4754"/>
</g>
<!-- Node56&#45;&gt;Node29 -->
<g id="edge139" class="edge">
<title>Node56&#45;&gt;Node29</title>
<path fill="none" stroke="#191970" d="M1066.9417,-772.4221C947.1097,-749.7902 663.5494,-689.1413 608.5,-613 600.4276,-601.8347 601.2823,-593.7359 608.5,-582 617.8801,-566.7479 634.0542,-556.3672 650.189,-549.3894"/>
<polygon fill="#191970" stroke="#191970" points="651.6154,-552.5893 659.6328,-545.6631 649.0461,-546.0778 651.6154,-552.5893"/>
</g>
<!-- Node56&#45;&gt;Node40 -->
<g id="edge135" class="edge">
<title>Node56&#45;&gt;Node40</title>
<path fill="none" stroke="#191970" d="M1123.8371,-772.3101C1129.8207,-754.366 1142.1555,-714.633 1146.5,-680 1152.0279,-635.9339 1147.4837,-583.7304 1144.1789,-555.8703"/>
<polygon fill="#191970" stroke="#191970" points="1147.6361,-555.31 1142.9131,-545.8261 1140.691,-556.1853 1147.6361,-555.31"/>
</g>
<!-- Node56&#45;&gt;Node41 -->
<g id="edge138" class="edge">
<title>Node56&#45;&gt;Node41</title>
<path fill="none" stroke="#191970" d="M1044.7832,-774.3601C939.0348,-763.69 748.184,-744.433 642.0113,-733.7201"/>
<polygon fill="#191970" stroke="#191970" points="642.3074,-730.2323 632.0065,-732.7106 641.6046,-737.1969 642.3074,-730.2323"/>
</g>
</g>
</svg>
