<?xml version="1.0" encoding="UTF-8" standalone="no"?>
<!DOCTYPE svg PUBLIC "-//W3C//DTD SVG 1.1//EN"
 "http://www.w3.org/Graphics/SVG/1.1/DTD/svg11.dtd">
<!-- Generated by graphviz version 2.40.1 (20161225.0304)
 -->
<!-- Title: ExtWrenchesAndJointTorquesEstimator.cpp Pages: 1 -->
<svg width="3254pt" height="665pt"
 viewBox="0.00 0.00 3254.00 665.00" xmlns="http://www.w3.org/2000/svg" xmlns:xlink="http://www.w3.org/1999/xlink">
<g id="graph0" class="graph" transform="scale(1 1) rotate(0) translate(4 661)">
<title>ExtWrenchesAndJointTorquesEstimator.cpp</title>
<!-- Node0 -->
<g id="node1" class="node">
<title>Node0</title>
<polygon fill="#bfbfbf" stroke="#000000" points="1126.5033,-626.5 1126.5033,-656.5 1284.5033,-656.5 1284.5033,-626.5 1126.5033,-626.5"/>
<text text-anchor="start" x="1134.5033" y="-644.5" font-family="FreeSans.ttf" font-size="10.00" fill="#000000">ExtWrenchesAndJointTorques</text>
<text text-anchor="middle" x="1205.5033" y="-633.5" font-family="FreeSans.ttf" font-size="10.00" fill="#000000">Estimator.cpp</text>
</g>
<!-- Node1 -->
<g id="node2" class="node">
<title>Node1</title>
<g id="a_node2"><a xlink:href="ExtWrenchesAndJointTorquesEstimator_8h.html" target="_top" xlink:title="iDynTree/Estimation\l/ExtWrenchesAndJointTorques\lEstimator.h">
<polygon fill="none" stroke="#000000" points="1585.0033,-548.5 1585.0033,-589.5 1746.0033,-589.5 1746.0033,-548.5 1585.0033,-548.5"/>
<text text-anchor="start" x="1593.0033" y="-577.5" font-family="FreeSans.ttf" font-size="10.00" fill="#000000">iDynTree/Estimation</text>
<text text-anchor="start" x="1593.0033" y="-566.5" font-family="FreeSans.ttf" font-size="10.00" fill="#000000">/ExtWrenchesAndJointTorques</text>
<text text-anchor="middle" x="1665.5033" y="-555.5" font-family="FreeSans.ttf" font-size="10.00" fill="#000000">Estimator.h</text>
</a>
</g>
</g>
<!-- Node0&#45;&gt;Node1 -->
<g id="edge1" class="edge">
<title>Node0&#45;&gt;Node1</title>
<path fill="none" stroke="#191970" d="M1284.5801,-629.0368C1365.1741,-616.3345 1490.0333,-596.6556 1574.6441,-583.3202"/>
<polygon fill="#191970" stroke="#191970" points="1575.4242,-586.7405 1584.7573,-581.7263 1574.3343,-579.8259 1575.4242,-586.7405"/>
</g>
<!-- Node2 -->
<g id="node3" class="node">
<title>Node2</title>
<g id="a_node3"><a xlink:href="ExternalWrenchesEstimation_8h.html" target="_top" xlink:title="iDynTree/Estimation\l/ExternalWrenchesEstimation.h">
<polygon fill="none" stroke="#000000" points="847.0033,-425.5 847.0033,-455.5 1016.0033,-455.5 1016.0033,-425.5 847.0033,-425.5"/>
<text text-anchor="start" x="855.0033" y="-443.5" font-family="FreeSans.ttf" font-size="10.00" fill="#000000">iDynTree/Estimation</text>
<text text-anchor="middle" x="931.5033" y="-432.5" font-family="FreeSans.ttf" font-size="10.00" fill="#000000">/ExternalWrenchesEstimation.h</text>
</a>
</g>
</g>
<!-- Node0&#45;&gt;Node2 -->
<g id="edge101" class="edge">
<title>Node0&#45;&gt;Node2</title>
<path fill="none" stroke="#191970" d="M1176.0555,-626.4797C1157.8563,-616.7993 1134.2802,-603.5299 1114.5033,-590 1054.3179,-548.8259 989.4855,-492.7548 955.4748,-462.3239"/>
<polygon fill="#191970" stroke="#191970" points="957.684,-459.6035 947.9076,-455.5203 953.0039,-464.809 957.684,-459.6035"/>
</g>
<!-- Node18 -->
<g id="node9" class="node">
<title>Node18</title>
<polygon fill="none" stroke="#bfbfbf" points="513.5033,-56.5 513.5033,-75.5 569.5033,-75.5 569.5033,-56.5 513.5033,-56.5"/>
<text text-anchor="middle" x="541.5033" y="-63.5" font-family="FreeSans.ttf" font-size="10.00" fill="#000000">sstream</text>
</g>
<!-- Node0&#45;&gt;Node18 -->
<g id="edge145" class="edge">
<title>Node0&#45;&gt;Node18</title>
<path fill="none" stroke="#191970" d="M1126.3189,-638.4474C970.2089,-631.9162 633.7853,-615.1086 587.5033,-590 505.9231,-545.7417 539.4963,-472.0663 459.5033,-425 368.8132,-371.6398 326.4785,-418.5975 225.5033,-389 155.0468,-368.3481 136.9706,-360.5804 74.5033,-322 41.1927,-301.4271 23.2126,-301.4068 6.5033,-266 -15.4934,-219.3895 23.9965,-193.9912 68.5033,-168 239.1463,-68.3474 310.5766,-118.7668 503.5033,-76 503.6032,-75.9779 503.7032,-75.9556 503.8034,-75.9333"/>
<polygon fill="#191970" stroke="#191970" points="504.4176,-79.3848 513.3414,-73.6737 502.8039,-72.5733 504.4176,-79.3848"/>
</g>
<!-- Node32 -->
<g id="node15" class="node">
<title>Node32</title>
<g id="a_node15"><a xlink:href="LinkState_8h.html" target="_top" xlink:title="iDynTree/Model/LinkState.h">
<polygon fill="none" stroke="#000000" points="817.0033,-364 817.0033,-383 966.0033,-383 966.0033,-364 817.0033,-364"/>
<text text-anchor="middle" x="891.5033" y="-371" font-family="FreeSans.ttf" font-size="10.00" fill="#000000">iDynTree/Model/LinkState.h</text>
</a>
</g>
</g>
<!-- Node0&#45;&gt;Node32 -->
<g id="edge121" class="edge">
<title>Node0&#45;&gt;Node32</title>
<path fill="none" stroke="#191970" d="M1126.4253,-629.0738C1035.1331,-609.9232 889.7025,-563.4343 828.5033,-456 821.6837,-444.0283 822.6005,-437.4493 828.5033,-425 835.8304,-409.5467 850.3165,-397.1919 863.552,-388.461"/>
<polygon fill="#191970" stroke="#191970" points="865.7343,-391.2275 872.4119,-383.0019 862.0622,-385.2679 865.7343,-391.2275"/>
</g>
<!-- Node42 -->
<g id="node26" class="node">
<title>Node42</title>
<g id="a_node26"><a xlink:href="Model_8h.html" target="_top" xlink:title="iDynTree/Model/Model.h">
<polygon fill="none" stroke="#000000" points="2210.0033,-431 2210.0033,-450 2343.0033,-450 2343.0033,-431 2210.0033,-431"/>
<text text-anchor="middle" x="2276.5033" y="-438" font-family="FreeSans.ttf" font-size="10.00" fill="#000000">iDynTree/Model/Model.h</text>
</a>
</g>
</g>
<!-- Node0&#45;&gt;Node42 -->
<g id="edge118" class="edge">
<title>Node0&#45;&gt;Node42</title>
<path fill="none" stroke="#191970" d="M1284.7246,-637.3761C1433.2352,-629.2886 1748.1772,-610.3527 1855.5033,-590 1972.3625,-567.8395 1999.8679,-553.0451 2111.5033,-512 2159.8331,-494.2305 2214.3789,-469.6783 2247.0688,-454.4596"/>
<polygon fill="#191970" stroke="#191970" points="2248.908,-457.4632 2256.4812,-450.054 2245.9405,-451.1233 2248.908,-457.4632"/>
</g>
<!-- Node51 -->
<g id="node31" class="node">
<title>Node51</title>
<g id="a_node31"><a xlink:href="SubModel_8h.html" target="_top" xlink:title="iDynTree/Model/SubModel.h">
<polygon fill="none" stroke="#000000" points="2756.0033,-364 2756.0033,-383 2907.0033,-383 2907.0033,-364 2756.0033,-364"/>
<text text-anchor="middle" x="2831.5033" y="-371" font-family="FreeSans.ttf" font-size="10.00" fill="#000000">iDynTree/Model/SubModel.h</text>
</a>
</g>
</g>
<!-- Node0&#45;&gt;Node51 -->
<g id="edge120" class="edge">
<title>Node0&#45;&gt;Node51</title>
<path fill="none" stroke="#191970" d="M1284.7312,-639.8992C1531.8988,-634.6466 2278.6616,-616.727 2384.5033,-590 2558.6134,-546.034 2745.2657,-430.323 2808.8289,-388.6935"/>
<polygon fill="#191970" stroke="#191970" points="2810.878,-391.5347 2817.2978,-383.1063 2807.0232,-385.6917 2810.878,-391.5347"/>
</g>
<!-- Node52 -->
<g id="node32" class="node">
<title>Node52</title>
<g id="a_node32"><a xlink:href="ContactWrench_8h.html" target="_top" xlink:title="iDynTree/Model/ContactWrench.h">
<polygon fill="none" stroke="#000000" points="1280.0033,-431 1280.0033,-450 1457.0033,-450 1457.0033,-431 1280.0033,-431"/>
<text text-anchor="middle" x="1368.5033" y="-438" font-family="FreeSans.ttf" font-size="10.00" fill="#000000">iDynTree/Model/ContactWrench.h</text>
</a>
</g>
</g>
<!-- Node0&#45;&gt;Node52 -->
<g id="edge123" class="edge">
<title>Node0&#45;&gt;Node52</title>
<path fill="none" stroke="#191970" d="M1217.7548,-626.3923C1247.3527,-589.8943 1322.6327,-497.0643 1354.2144,-458.12"/>
<polygon fill="#191970" stroke="#191970" points="1357.0113,-460.2278 1360.5915,-450.2562 1351.5744,-455.8187 1357.0113,-460.2278"/>
</g>
<!-- Node53 -->
<g id="node33" class="node">
<title>Node53</title>
<g id="a_node33"><a xlink:href="Traversal_8h.html" target="_top" xlink:title="iDynTree/Model/Traversal.h">
<polygon fill="none" stroke="#000000" points="1723.5033,-492.5 1723.5033,-511.5 1871.5033,-511.5 1871.5033,-492.5 1723.5033,-492.5"/>
<text text-anchor="middle" x="1797.5033" y="-499.5" font-family="FreeSans.ttf" font-size="10.00" fill="#000000">iDynTree/Model/Traversal.h</text>
</a>
</g>
</g>
<!-- Node0&#45;&gt;Node53 -->
<g id="edge119" class="edge">
<title>Node0&#45;&gt;Node53</title>
<path fill="none" stroke="#191970" d="M1284.6426,-638.3815C1427.6331,-632.1231 1717.7813,-616.3326 1755.5033,-590 1778.33,-574.0653 1789.1611,-542.2908 1793.9887,-521.6014"/>
<polygon fill="#191970" stroke="#191970" points="1797.4433,-522.1789 1796.0446,-511.6768 1790.5888,-520.759 1797.4433,-522.1789"/>
</g>
<!-- Node54 -->
<g id="node34" class="node">
<title>Node54</title>
<g id="a_node34"><a xlink:href="JointState_8h.html" target="_top" xlink:title="iDynTree/Model/JointState.h">
<polygon fill="none" stroke="#000000" points="1136.0033,-364 1136.0033,-383 1287.0033,-383 1287.0033,-364 1136.0033,-364"/>
<text text-anchor="middle" x="1211.5033" y="-371" font-family="FreeSans.ttf" font-size="10.00" fill="#000000">iDynTree/Model/JointState.h</text>
</a>
</g>
</g>
<!-- Node0&#45;&gt;Node54 -->
<g id="edge122" class="edge">
<title>Node0&#45;&gt;Node54</title>
<path fill="none" stroke="#191970" d="M1205.843,-626.3233C1206.8663,-580.6161 1209.9187,-444.2783 1211.0632,-393.1539"/>
<polygon fill="#191970" stroke="#191970" points="1214.5637,-393.1684 1211.2885,-383.0926 1207.5655,-393.0117 1214.5637,-393.1684"/>
</g>
<!-- Node57 -->
<g id="node37" class="node">
<title>Node57</title>
<g id="a_node37"><a xlink:href="Sensors_8h.html" target="_top" xlink:title="iDynTree/Sensors/Sensors.h">
<polygon fill="none" stroke="#000000" points="1916.0033,-492.5 1916.0033,-511.5 2067.0033,-511.5 2067.0033,-492.5 1916.0033,-492.5"/>
<text text-anchor="middle" x="1991.5033" y="-499.5" font-family="FreeSans.ttf" font-size="10.00" fill="#000000">iDynTree/Sensors/Sensors.h</text>
</a>
</g>
</g>
<!-- Node0&#45;&gt;Node57 -->
<g id="edge131" class="edge">
<title>Node0&#45;&gt;Node57</title>
<path fill="none" stroke="#191970" d="M1284.7126,-637.5236C1420.4901,-630.1953 1691.9919,-613.1637 1784.5033,-590 1852.4252,-572.9932 1926.7494,-536.6394 1965.1868,-516.3834"/>
<polygon fill="#191970" stroke="#191970" points="1966.9808,-519.3934 1974.1601,-511.6019 1963.6889,-513.2157 1966.9808,-519.3934"/>
</g>
<!-- Node58 -->
<g id="node39" class="node">
<title>Node58</title>
<g id="a_node39"><a xlink:href="EigenHelpers_8h.html" target="_top" xlink:title="iDynTree/Core/EigenHelpers.h">
<polygon fill="none" stroke="#000000" points="461.0033,-364 461.0033,-383 622.0033,-383 622.0033,-364 461.0033,-364"/>
<text text-anchor="middle" x="541.5033" y="-371" font-family="FreeSans.ttf" font-size="10.00" fill="#000000">iDynTree/Core/EigenHelpers.h</text>
</a>
</g>
</g>
<!-- Node0&#45;&gt;Node58 -->
<g id="edge102" class="edge">
<title>Node0&#45;&gt;Node58</title>
<path fill="none" stroke="#191970" d="M1126.3306,-637.2171C1005.1292,-630.0158 779.5352,-613.8869 702.5033,-590 633.3561,-568.5581 600.4013,-571.7364 559.5033,-512 534.8341,-475.9678 535.9658,-422.0886 538.8058,-393.3052"/>
<polygon fill="#191970" stroke="#191970" points="542.2942,-393.6067 539.9707,-383.2698 535.3409,-392.7995 542.2942,-393.6067"/>
</g>
<!-- Node60 -->
<g id="node41" class="node">
<title>Node60</title>
<g id="a_node41"><a xlink:href="EigenMathHelpers_8h.html" target="_top" xlink:title="iDynTree/Core/EigenMathHelpers.h">
<polygon fill="none" stroke="#000000" points="569.0033,-492.5 569.0033,-511.5 754.0033,-511.5 754.0033,-492.5 569.0033,-492.5"/>
<text text-anchor="middle" x="661.5033" y="-499.5" font-family="FreeSans.ttf" font-size="10.00" fill="#000000">iDynTree/Core/EigenMathHelpers.h</text>
</a>
</g>
</g>
<!-- Node0&#45;&gt;Node60 -->
<g id="edge112" class="edge">
<title>Node0&#45;&gt;Node60</title>
<path fill="none" stroke="#191970" d="M1126.1959,-637.574C1017.9511,-631.2987 830.2229,-616.885 767.5033,-590 730.0197,-573.9325 695.4442,-540.2301 676.5314,-519.5119"/>
<polygon fill="#191970" stroke="#191970" points="678.9021,-516.9111 669.6394,-511.7679 673.6731,-521.5648 678.9021,-516.9111"/>
</g>
<!-- Node48 -->
<g id="node42" class="node">
<title>Node48</title>
<g id="a_node42"><a xlink:href="SpatialMomentum_8h.html" target="_top" xlink:title="iDynTree/Core/SpatialMomentum.h">
<polygon fill="none" stroke="#000000" points="201.5033,-492.5 201.5033,-511.5 387.5033,-511.5 387.5033,-492.5 201.5033,-492.5"/>
<text text-anchor="middle" x="294.5033" y="-499.5" font-family="FreeSans.ttf" font-size="10.00" fill="#000000">iDynTree/Core/SpatialMomentum.h</text>
</a>
</g>
</g>
<!-- Node0&#45;&gt;Node48 -->
<g id="edge114" class="edge">
<title>Node0&#45;&gt;Node48</title>
<path fill="none" stroke="#191970" d="M1126.3492,-638.7698C939.9199,-631.9898 483.9446,-613.2424 418.5033,-590 375.3012,-574.6562 333.6471,-539.6304 311.3238,-518.6891"/>
<polygon fill="#191970" stroke="#191970" points="313.6475,-516.0682 304.007,-511.6737 308.8029,-521.1209 313.6475,-516.0682"/>
</g>
<!-- Node61 -->
<g id="node43" class="node">
<title>Node61</title>
<g id="a_node43"><a xlink:href="ClassicalAcc_8h.html" target="_top" xlink:title="iDynTree/Core/ClassicalAcc.h">
<polygon fill="none" stroke="#000000" points="23.5033,-241 23.5033,-260 181.5033,-260 181.5033,-241 23.5033,-241"/>
<text text-anchor="middle" x="102.5033" y="-248" font-family="FreeSans.ttf" font-size="10.00" fill="#000000">iDynTree/Core/ClassicalAcc.h</text>
</a>
</g>
</g>
<!-- Node0&#45;&gt;Node61 -->
<g id="edge116" class="edge">
<title>Node0&#45;&gt;Node61</title>
<path fill="none" stroke="#191970" d="M1126.307,-640.5245C860.9042,-636.2198 19.5033,-613.7596 19.5033,-502 19.5033,-502 19.5033,-502 19.5033,-373.5 19.5033,-328.8304 57.5825,-288.2429 82.156,-266.7014"/>
<polygon fill="#191970" stroke="#191970" points="84.5265,-269.2804 89.8973,-260.1478 80.0036,-263.9378 84.5265,-269.2804"/>
</g>
<!-- Node62 -->
<g id="node44" class="node">
<title>Node62</title>
<g id="a_node44"><a xlink:href="Dynamics_8h.html" target="_top" xlink:title="iDynTree/Model/Dynamics.h">
<polygon fill="none" stroke="#000000" points="1034.5033,-431 1034.5033,-450 1186.5033,-450 1186.5033,-431 1034.5033,-431"/>
<text text-anchor="middle" x="1110.5033" y="-438" font-family="FreeSans.ttf" font-size="10.00" fill="#000000">iDynTree/Model/Dynamics.h</text>
</a>
</g>
</g>
<!-- Node0&#45;&gt;Node62 -->
<g id="edge124" class="edge">
<title>Node0&#45;&gt;Node62</title>
<path fill="none" stroke="#191970" d="M1174.4192,-626.3017C1160.0026,-617.6505 1143.9936,-605.437 1134.5033,-590 1109.3555,-549.0947 1107.8761,-490.4493 1109.0923,-460.2061"/>
<polygon fill="#191970" stroke="#191970" points="1112.5934,-460.2787 1109.6466,-450.1019 1105.604,-459.8951 1112.5934,-460.2787"/>
</g>
<!-- Node63 -->
<g id="node45" class="node">
<title>Node63</title>
<g id="a_node45"><a xlink:href="ModelTransformers_8h.html" target="_top" xlink:title="Collection of function to modify model in various ways. ">
<polygon fill="none" stroke="#000000" points="2860.0033,-559.5 2860.0033,-578.5 3057.0033,-578.5 3057.0033,-559.5 2860.0033,-559.5"/>
<text text-anchor="middle" x="2958.5033" y="-566.5" font-family="FreeSans.ttf" font-size="10.00" fill="#000000">iDynTree/Model/ModelTransformers.h</text>
</a>
</g>
</g>
<!-- Node0&#45;&gt;Node63 -->
<g id="edge129" class="edge">
<title>Node0&#45;&gt;Node63</title>
<path fill="none" stroke="#191970" d="M1284.7256,-640.6127C1569.0522,-637.1783 2537.5058,-623.2592 2845.5033,-590 2865.3465,-587.8572 2886.9341,-584.183 2905.8737,-580.5012"/>
<polygon fill="#191970" stroke="#191970" points="2906.6793,-583.9096 2915.8033,-578.5242 2905.3123,-577.0444 2906.6793,-583.9096"/>
</g>
<!-- Node64 -->
<g id="node46" class="node">
<title>Node64</title>
<g id="a_node46"><a xlink:href="ModelSensorsTransformers_8h.html" target="_top" xlink:title="Collection of function to modify model and sensors in various ways. ">
<polygon fill="none" stroke="#000000" points="3075.0033,-554 3075.0033,-584 3246.0033,-584 3246.0033,-554 3075.0033,-554"/>
<text text-anchor="start" x="3083.0033" y="-572" font-family="FreeSans.ttf" font-size="10.00" fill="#000000">iDynTree/Sensors/ModelSensors</text>
<text text-anchor="middle" x="3160.5033" y="-561" font-family="FreeSans.ttf" font-size="10.00" fill="#000000">Transformers.h</text>
</a>
</g>
</g>
<!-- Node0&#45;&gt;Node64 -->
<g id="edge130" class="edge">
<title>Node0&#45;&gt;Node64</title>
<path fill="none" stroke="#191970" d="M1284.6274,-641.3343C1592.8776,-640.3749 2713.6859,-633.8785 3066.5033,-590 3074.5844,-588.995 3082.9926,-587.6124 3091.311,-586.0323"/>
<polygon fill="#191970" stroke="#191970" points="3092.265,-589.4109 3101.3851,-584.0189 3090.8931,-582.5466 3092.265,-589.4109"/>
</g>
<!-- Node65 -->
<g id="node47" class="node">
<title>Node65</title>
<g id="a_node47"><a xlink:href="SixAxisForceTorqueSensor_8h.html" target="_top" xlink:title="iDynTree/Sensors/SixAxis\lForceTorqueSensor.h">
<polygon fill="none" stroke="#000000" points="1362.5033,-554 1362.5033,-584 1502.5033,-584 1502.5033,-554 1362.5033,-554"/>
<text text-anchor="start" x="1370.5033" y="-572" font-family="FreeSans.ttf" font-size="10.00" fill="#000000">iDynTree/Sensors/SixAxis</text>
<text text-anchor="middle" x="1432.5033" y="-561" font-family="FreeSans.ttf" font-size="10.00" fill="#000000">ForceTorqueSensor.h</text>
</a>
</g>
</g>
<!-- Node0&#45;&gt;Node65 -->
<g id="edge132" class="edge">
<title>Node0&#45;&gt;Node65</title>
<path fill="none" stroke="#191970" d="M1252.5378,-626.478C1288.3008,-615.0559 1337.6571,-599.2923 1375.6374,-587.162"/>
<polygon fill="#191970" stroke="#191970" points="1377.0679,-590.3794 1385.529,-584.0028 1374.9381,-583.7112 1377.0679,-590.3794"/>
</g>
<!-- Node66 -->
<g id="node48" class="node">
<title>Node66</title>
<g id="a_node48"><a xlink:href="PredictSensorsMeasurements_8h.html" target="_top" xlink:title="iDynTree/Sensors/Predict\lSensorsMeasurements.h">
<polygon fill="none" stroke="#000000" points="314.0033,-425.5 314.0033,-455.5 451.0033,-455.5 451.0033,-425.5 314.0033,-425.5"/>
<text text-anchor="start" x="322.0033" y="-443.5" font-family="FreeSans.ttf" font-size="10.00" fill="#000000">iDynTree/Sensors/Predict</text>
<text text-anchor="middle" x="382.5033" y="-432.5" font-family="FreeSans.ttf" font-size="10.00" fill="#000000">SensorsMeasurements.h</text>
</a>
</g>
</g>
<!-- Node0&#45;&gt;Node66 -->
<g id="edge136" class="edge">
<title>Node0&#45;&gt;Node66</title>
<path fill="none" stroke="#191970" d="M1126.2753,-640.2207C946.7379,-636.7214 520.2013,-624.808 465.5033,-590 420.7894,-561.5455 398.0743,-500.0694 388.4212,-465.4682"/>
<polygon fill="#191970" stroke="#191970" points="391.7688,-464.4362 385.8349,-455.659 385.0001,-466.2209 391.7688,-464.4362"/>
</g>
<!-- Node67 -->
<g id="node49" class="node">
<title>Node67</title>
<g id="a_node49"><a xlink:href="ModelLoader_8h.html" target="_top" xlink:title="iDynTree/ModelIO/ModelLoader.h">
<polygon fill="none" stroke="#000000" points="2199.5033,-559.5 2199.5033,-578.5 2375.5033,-578.5 2375.5033,-559.5 2199.5033,-559.5"/>
<text text-anchor="middle" x="2287.5033" y="-566.5" font-family="FreeSans.ttf" font-size="10.00" fill="#000000">iDynTree/ModelIO/ModelLoader.h</text>
</a>
</g>
</g>
<!-- Node0&#45;&gt;Node67 -->
<g id="edge139" class="edge">
<title>Node0&#45;&gt;Node67</title>
<path fill="none" stroke="#191970" d="M1284.594,-638.8827C1485.5052,-631.9866 2011.8714,-612.3072 2185.5033,-590 2202.7295,-587.7869 2221.3901,-584.2777 2237.983,-580.7568"/>
<polygon fill="#191970" stroke="#191970" points="2238.9883,-584.12 2248.0159,-578.5745 2237.5004,-577.28 2238.9883,-584.12"/>
</g>
<!-- Node1&#45;&gt;Node2 -->
<g id="edge2" class="edge">
<title>Node1&#45;&gt;Node2</title>
<path fill="none" stroke="#191970" d="M1584.7332,-557.6193C1490.9582,-544.2709 1342.0551,-522.6196 1286.5033,-512 1247.959,-504.6317 1238.8929,-500.1355 1200.5033,-492 1142.1636,-479.6368 1076.4232,-467.0267 1024.5355,-457.3789"/>
<polygon fill="#191970" stroke="#191970" points="1025.1521,-453.9337 1014.6815,-455.5513 1023.8756,-460.8163 1025.1521,-453.9337"/>
</g>
<!-- Node1&#45;&gt;Node42 -->
<g id="edge48" class="edge">
<title>Node1&#45;&gt;Node42</title>
<path fill="none" stroke="#191970" d="M1746.1613,-564.9041C1830.1274,-559.0079 1964.7354,-544.9371 2076.5033,-512 2096.7208,-506.042 2099.8998,-499.7427 2119.5033,-492 2157.5414,-476.9762 2201.9058,-462.7134 2233.7523,-453.0237"/>
<polygon fill="#191970" stroke="#191970" points="2235.0661,-456.2832 2243.6284,-450.0432 2233.0436,-449.5817 2235.0661,-456.2832"/>
</g>
<!-- Node1&#45;&gt;Node51 -->
<g id="edge63" class="edge">
<title>Node1&#45;&gt;Node51</title>
<path fill="none" stroke="#191970" d="M1746.0794,-559.2456C1959.1131,-533.4044 2523.6827,-464.5667 2563.5033,-456 2648.5023,-437.7139 2745.3383,-404.7898 2796.1273,-386.5512"/>
<polygon fill="#191970" stroke="#191970" points="2797.4391,-389.7987 2805.654,-383.108 2795.0597,-383.2155 2797.4391,-389.7987"/>
</g>
<!-- Node1&#45;&gt;Node52 -->
<g id="edge68" class="edge">
<title>Node1&#45;&gt;Node52</title>
<path fill="none" stroke="#191970" d="M1618.1143,-548.4967C1557.0335,-522.0695 1452.4895,-476.8375 1400.2145,-454.2202"/>
<polygon fill="#191970" stroke="#191970" points="1401.3519,-450.8988 1390.7843,-450.1401 1398.5723,-457.3233 1401.3519,-450.8988"/>
</g>
<!-- Node1&#45;&gt;Node53 -->
<g id="edge74" class="edge">
<title>Node1&#45;&gt;Node53</title>
<path fill="none" stroke="#191970" d="M1706.1847,-548.3511C1726.6979,-537.9391 1751.0573,-525.5748 1769.4561,-516.2361"/>
<polygon fill="#191970" stroke="#191970" points="1771.1492,-519.3018 1778.4822,-511.6546 1767.9809,-513.0598 1771.1492,-519.3018"/>
</g>
<!-- Node1&#45;&gt;Node54 -->
<g id="edge77" class="edge">
<title>Node1&#45;&gt;Node54</title>
<path fill="none" stroke="#191970" d="M1584.8775,-552.3856C1485.0741,-530.7181 1322.0784,-491.3971 1271.5033,-456 1248.012,-439.5587 1230.2358,-410.9159 1220.3417,-392.0809"/>
<polygon fill="#191970" stroke="#191970" points="1223.3989,-390.3696 1215.7834,-383.0037 1217.1433,-393.5109 1223.3989,-390.3696"/>
</g>
<!-- Node55 -->
<g id="node35" class="node">
<title>Node55</title>
<g id="a_node35"><a xlink:href="FreeFloatingState_8h.html" target="_top" xlink:title="iDynTree/Model/FreeFloating\lState.h">
<polygon fill="none" stroke="#000000" points="1475.5033,-425.5 1475.5033,-455.5 1629.5033,-455.5 1629.5033,-425.5 1475.5033,-425.5"/>
<text text-anchor="start" x="1483.5033" y="-443.5" font-family="FreeSans.ttf" font-size="10.00" fill="#000000">iDynTree/Model/FreeFloating</text>
<text text-anchor="middle" x="1552.5033" y="-432.5" font-family="FreeSans.ttf" font-size="10.00" fill="#000000">State.h</text>
</a>
</g>
</g>
<!-- Node1&#45;&gt;Node55 -->
<g id="edge82" class="edge">
<title>Node1&#45;&gt;Node55</title>
<path fill="none" stroke="#191970" d="M1660.5851,-548.2057C1655.8329,-531.5717 1647.2921,-508.3984 1633.5033,-492 1622.9461,-479.4449 1608.5314,-468.9306 1594.7868,-460.744"/>
<polygon fill="#191970" stroke="#191970" points="1596.3237,-457.5919 1585.8987,-455.7023 1592.8699,-463.6805 1596.3237,-457.5919"/>
</g>
<!-- Node56 -->
<g id="node36" class="node">
<title>Node56</title>
<g id="a_node36"><a xlink:href="LinkTraversalsCache_8h.html" target="_top" xlink:title="iDynTree/Model/LinkTraversals\lCache.h">
<polygon fill="none" stroke="#000000" points="1799.5033,-358.5 1799.5033,-388.5 1963.5033,-388.5 1963.5033,-358.5 1799.5033,-358.5"/>
<text text-anchor="start" x="1807.5033" y="-376.5" font-family="FreeSans.ttf" font-size="10.00" fill="#000000">iDynTree/Model/LinkTraversals</text>
<text text-anchor="middle" x="1881.5033" y="-365.5" font-family="FreeSans.ttf" font-size="10.00" fill="#000000">Cache.h</text>
</a>
</g>
</g>
<!-- Node1&#45;&gt;Node56 -->
<g id="edge90" class="edge">
<title>Node1&#45;&gt;Node56</title>
<path fill="none" stroke="#191970" d="M1675.8591,-548.1899C1684.679,-531.7634 1698.4531,-508.8801 1714.5033,-492 1753.6845,-450.7926 1809.0958,-414.8194 1845.1617,-393.6255"/>
<polygon fill="#191970" stroke="#191970" points="1846.9983,-396.6064 1853.8925,-388.5615 1843.4862,-390.5513 1846.9983,-396.6064"/>
</g>
<!-- Node1&#45;&gt;Node57 -->
<g id="edge93" class="edge">
<title>Node1&#45;&gt;Node57</title>
<path fill="none" stroke="#191970" d="M1746.0876,-552.4382C1804.7739,-540.3769 1882.8028,-524.3403 1934.9693,-513.6189"/>
<polygon fill="#191970" stroke="#191970" points="1935.9537,-516.9899 1945.0443,-511.5483 1934.5445,-510.1332 1935.9537,-516.9899"/>
</g>
<!-- Node3 -->
<g id="node4" class="node">
<title>Node3</title>
<g id="a_node4"><a xlink:href="Direction_8h.html" target="_top" xlink:title="iDynTree/Core/Direction.h">
<polygon fill="none" stroke="#000000" points="78.0033,-174 78.0033,-193 219.0033,-193 219.0033,-174 78.0033,-174"/>
<text text-anchor="middle" x="148.5033" y="-181" font-family="FreeSans.ttf" font-size="10.00" fill="#000000">iDynTree/Core/Direction.h</text>
</a>
</g>
</g>
<!-- Node2&#45;&gt;Node3 -->
<g id="edge3" class="edge">
<title>Node2&#45;&gt;Node3</title>
<path fill="none" stroke="#191970" d="M846.6472,-438.2708C732.3526,-434.0765 523.021,-422.189 347.5033,-389 295.6138,-379.1881 168.3891,-341.9741 119.5033,-322 107.2633,-316.9989 21.306,-277.338 14.5033,-266 -6.9069,-230.3163 44.6029,-207.8888 89.8362,-195.5758"/>
<polygon fill="#191970" stroke="#191970" points="90.8596,-198.9262 99.6605,-193.0275 89.102,-192.1504 90.8596,-198.9262"/>
</g>
<!-- Node5 -->
<g id="node6" class="node">
<title>Node5</title>
<g id="a_node6"><a xlink:href="VectorFixSize_8h.html" target="_top" xlink:title="iDynTree/Core/VectorFixSize.h">
<polygon fill="none" stroke="#ff0000" points="408.0033,-112.5 408.0033,-131.5 569.0033,-131.5 569.0033,-112.5 408.0033,-112.5"/>
<text text-anchor="middle" x="488.5033" y="-119.5" font-family="FreeSans.ttf" font-size="10.00" fill="#000000">iDynTree/Core/VectorFixSize.h</text>
</a>
</g>
</g>
<!-- Node2&#45;&gt;Node5 -->
<g id="edge20" class="edge">
<title>Node2&#45;&gt;Node5</title>
<path fill="none" stroke="#191970" d="M846.9888,-437.4088C725.8676,-432.0125 509.5727,-418.5051 437.5033,-389 393.309,-370.907 378.6388,-362.6042 353.5033,-322 317.2044,-263.3626 293.3039,-223.3043 334.5033,-168 345.4359,-153.3244 385.5947,-141.6114 422.1599,-133.6777"/>
<polygon fill="#191970" stroke="#191970" points="423.2818,-137.0187 432.3506,-131.5409 421.8452,-130.1677 423.2818,-137.0187"/>
</g>
<!-- Node20 -->
<g id="node10" class="node">
<title>Node20</title>
<g id="a_node10"><a xlink:href="Position_8h.html" target="_top" xlink:title="iDynTree/Core/Position.h">
<polygon fill="none" stroke="#ff0000" points="1361.5033,-241 1361.5033,-260 1497.5033,-260 1497.5033,-241 1361.5033,-241"/>
<text text-anchor="middle" x="1429.5033" y="-248" font-family="FreeSans.ttf" font-size="10.00" fill="#000000">iDynTree/Core/Position.h</text>
</a>
</g>
</g>
<!-- Node2&#45;&gt;Node20 -->
<g id="edge11" class="edge">
<title>Node2&#45;&gt;Node20</title>
<path fill="none" stroke="#191970" d="M942.538,-425.2394C957.1715,-406.2301 984.8674,-374.276 1016.5033,-358 1096.0373,-317.0814 1127.8511,-344.1677 1214.5033,-322 1279.4196,-305.3928 1353.1389,-279.229 1395.2035,-263.5797"/>
<polygon fill="#191970" stroke="#191970" points="1396.5507,-266.8126 1404.6891,-260.029 1394.0967,-260.2569 1396.5507,-266.8126"/>
</g>
<!-- Node28 -->
<g id="node12" class="node">
<title>Node28</title>
<g id="a_node12"><a xlink:href="MatrixDynSize_8h.html" target="_top" xlink:title="iDynTree/Core/MatrixDynSize.h">
<polygon fill="none" stroke="#ff0000" points="701.0033,-302.5 701.0033,-321.5 868.0033,-321.5 868.0033,-302.5 701.0033,-302.5"/>
<text text-anchor="middle" x="784.5033" y="-309.5" font-family="FreeSans.ttf" font-size="10.00" fill="#000000">iDynTree/Core/MatrixDynSize.h</text>
</a>
</g>
</g>
<!-- Node2&#45;&gt;Node28 -->
<g id="edge16" class="edge">
<title>Node2&#45;&gt;Node28</title>
<path fill="none" stroke="#191970" d="M859.8194,-425.4115C823.9858,-416.2647 786.0305,-403.5614 775.5033,-389 763.3573,-372.1995 769.0856,-347.7404 775.576,-330.9209"/>
<polygon fill="#191970" stroke="#191970" points="778.8594,-332.1439 779.5627,-321.5724 772.4204,-329.398 778.8594,-332.1439"/>
</g>
<!-- Node29 -->
<g id="node13" class="node">
<title>Node29</title>
<g id="a_node13"><a xlink:href="VectorDynSize_8h.html" target="_top" xlink:title="iDynTree/Core/VectorDynSize.h">
<polygon fill="none" stroke="#ff0000" points="1356.0033,-302.5 1356.0033,-321.5 1523.0033,-321.5 1523.0033,-302.5 1356.0033,-302.5"/>
<text text-anchor="middle" x="1439.5033" y="-309.5" font-family="FreeSans.ttf" font-size="10.00" fill="#000000">iDynTree/Core/VectorDynSize.h</text>
</a>
</g>
</g>
<!-- Node2&#45;&gt;Node29 -->
<g id="edge18" class="edge">
<title>Node2&#45;&gt;Node29</title>
<path fill="none" stroke="#191970" d="M954.8417,-425.3863C985.3913,-406.3784 1041.2149,-374.2664 1093.5033,-358 1139.1436,-343.8017 1259.9226,-329.6343 1345.9042,-320.8514"/>
<polygon fill="#191970" stroke="#191970" points="1346.3506,-324.3242 1355.9468,-319.8338 1345.6449,-317.3598 1346.3506,-324.3242"/>
</g>
<!-- Node30 -->
<g id="node14" class="node">
<title>Node30</title>
<g id="a_node14"><a xlink:href="Indices_8h.html" target="_top" xlink:title="iDynTree/Model/Indices.h">
<polygon fill="none" stroke="#ff0000" points="1886.5033,-302.5 1886.5033,-321.5 2024.5033,-321.5 2024.5033,-302.5 1886.5033,-302.5"/>
<text text-anchor="middle" x="1955.5033" y="-309.5" font-family="FreeSans.ttf" font-size="10.00" fill="#000000">iDynTree/Model/Indices.h</text>
</a>
</g>
</g>
<!-- Node2&#45;&gt;Node30 -->
<g id="edge21" class="edge">
<title>Node2&#45;&gt;Node30</title>
<path fill="none" stroke="#191970" d="M1016.0346,-426.4329C1019.2302,-425.9419 1022.3949,-425.4626 1025.5033,-425 1145.6821,-407.1138 1176.7513,-409.5505 1296.5033,-389 1362.3116,-377.7067 1377.47,-367.8936 1443.5033,-358 1524.7373,-345.8289 1753.8659,-327.3778 1876.2038,-317.9707"/>
<polygon fill="#191970" stroke="#191970" points="1876.5596,-321.4537 1886.2626,-317.1991 1876.0242,-314.4742 1876.5596,-321.4537"/>
</g>
<!-- Node2&#45;&gt;Node32 -->
<g id="edge23" class="edge">
<title>Node2&#45;&gt;Node32</title>
<path fill="none" stroke="#191970" d="M922.4266,-425.2967C916.497,-415.3645 908.7194,-402.3371 902.4478,-391.8321"/>
<polygon fill="#191970" stroke="#191970" points="905.339,-389.8471 897.2077,-383.055 899.3287,-393.4354 905.339,-389.8471"/>
</g>
<!-- Node41 -->
<g id="node25" class="node">
<title>Node41</title>
<polygon fill="none" stroke="#bfbfbf" points="1743.0033,-302.5 1743.0033,-321.5 1790.0033,-321.5 1790.0033,-302.5 1743.0033,-302.5"/>
<text text-anchor="middle" x="1766.5033" y="-309.5" font-family="FreeSans.ttf" font-size="10.00" fill="#000000">vector</text>
</g>
<!-- Node2&#45;&gt;Node41 -->
<g id="edge47" class="edge">
<title>Node2&#45;&gt;Node41</title>
<path fill="none" stroke="#191970" d="M978.2918,-425.3988C1005.8643,-415.9816 1041.1764,-403.0141 1071.5033,-389 1096.975,-377.2294 1099.5851,-365.9228 1126.5033,-358 1382.594,-282.6252 1465.4401,-367.3955 1732.8728,-321.6437"/>
<polygon fill="#191970" stroke="#191970" points="1733.6291,-325.0645 1742.8727,-319.8872 1732.418,-318.1701 1733.6291,-325.0645"/>
</g>
<!-- Node4 -->
<g id="node5" class="node">
<title>Node4</title>
<polygon fill="none" stroke="#bfbfbf" points="1560.5033,-56.5 1560.5033,-75.5 1604.5033,-75.5 1604.5033,-56.5 1560.5033,-56.5"/>
<text text-anchor="middle" x="1582.5033" y="-63.5" font-family="FreeSans.ttf" font-size="10.00" fill="#000000">string</text>
</g>
<!-- Node3&#45;&gt;Node4 -->
<g id="edge4" class="edge">
<title>Node3&#45;&gt;Node4</title>
<path fill="none" stroke="#191970" d="M174.3115,-173.8846C219.1566,-157.6856 314.7009,-125.412 398.5033,-112 629.5637,-75.0203 1385.0311,-67.4381 1550.349,-66.2084"/>
<polygon fill="#191970" stroke="#191970" points="1550.3984,-69.7082 1560.3729,-66.1363 1550.348,-62.7084 1550.3984,-69.7082"/>
</g>
<!-- Node3&#45;&gt;Node5 -->
<g id="edge5" class="edge">
<title>Node3&#45;&gt;Node5</title>
<path fill="none" stroke="#191970" d="M200.6449,-173.9757C211.5036,-171.9967 222.8764,-169.9274 233.5033,-168 298.8607,-156.146 373.6569,-142.6631 425.2608,-133.374"/>
<polygon fill="#191970" stroke="#191970" points="426.0408,-136.79 435.2626,-131.5738 424.8007,-129.9007 426.0408,-136.79"/>
</g>
<!-- Node6 -->
<g id="node7" class="node">
<title>Node6</title>
<g id="a_node7"><a xlink:href="Utils_8h.html" target="_top" xlink:title="iDynTree/Core/Utils.h">
<polygon fill="none" stroke="#ff0000" points="376.0033,-56.5 376.0033,-75.5 495.0033,-75.5 495.0033,-56.5 376.0033,-56.5"/>
<text text-anchor="middle" x="435.5033" y="-63.5" font-family="FreeSans.ttf" font-size="10.00" fill="#000000">iDynTree/Core/Utils.h</text>
</a>
</g>
</g>
<!-- Node3&#45;&gt;Node6 -->
<g id="edge10" class="edge">
<title>Node3&#45;&gt;Node6</title>
<path fill="none" stroke="#191970" d="M156.3879,-173.94C169.7454,-158.4098 198.4203,-127.8454 229.5033,-112 271.8788,-90.3979 324.2404,-78.876 365.5683,-72.7658"/>
<polygon fill="#191970" stroke="#191970" points="366.1388,-76.2201 375.5542,-71.3621 365.1644,-69.2882 366.1388,-76.2201"/>
</g>
<!-- Node5&#45;&gt;Node4 -->
<g id="edge8" class="edge">
<title>Node5&#45;&gt;Node4</title>
<path fill="none" stroke="#191970" d="M569.392,-117.8594C791.2281,-106.504 1402.5145,-75.2133 1550.1153,-67.6579"/>
<polygon fill="#191970" stroke="#191970" points="1550.5039,-71.1427 1560.3119,-67.1359 1550.146,-64.1518 1550.5039,-71.1427"/>
</g>
<!-- Node5&#45;&gt;Node6 -->
<g id="edge6" class="edge">
<title>Node5&#45;&gt;Node6</title>
<path fill="none" stroke="#191970" d="M479.2714,-112.2455C471.6715,-104.2155 460.7155,-92.6394 451.6665,-83.0781"/>
<polygon fill="#191970" stroke="#191970" points="454.0453,-80.4998 444.6294,-75.6427 448.9612,-85.3115 454.0453,-80.4998"/>
</g>
<!-- Node5&#45;&gt;Node18 -->
<g id="edge9" class="edge">
<title>Node5&#45;&gt;Node18</title>
<path fill="none" stroke="#191970" d="M497.7352,-112.2455C505.335,-104.2155 516.291,-92.6394 525.34,-83.0781"/>
<polygon fill="#191970" stroke="#191970" points="528.0453,-85.3115 532.3772,-75.6427 522.9612,-80.4998 528.0453,-85.3115"/>
</g>
<!-- Node7 -->
<g id="node8" class="node">
<title>Node7</title>
<polygon fill="none" stroke="#bfbfbf" points="1731.0033,-.5 1731.0033,-19.5 1784.0033,-19.5 1784.0033,-.5 1731.0033,-.5"/>
<text text-anchor="middle" x="1757.5033" y="-7.5" font-family="FreeSans.ttf" font-size="10.00" fill="#000000">cstddef</text>
</g>
<!-- Node6&#45;&gt;Node7 -->
<g id="edge7" class="edge">
<title>Node6&#45;&gt;Node7</title>
<path fill="none" stroke="#191970" d="M495.2961,-56.9341C498.4064,-56.5879 501.4895,-56.2729 504.5033,-56 749.8771,-33.7797 1541.0102,-14.889 1720.8836,-10.8132"/>
<polygon fill="#191970" stroke="#191970" points="1720.9777,-14.3121 1730.8962,-10.5874 1720.8197,-7.3139 1720.9777,-14.3121"/>
</g>
<!-- Node20&#45;&gt;Node4 -->
<g id="edge15" class="edge">
<title>Node20&#45;&gt;Node4</title>
<path fill="none" stroke="#191970" d="M1448.72,-240.9397C1465.4995,-231.8801 1489.7267,-217.0004 1506.5033,-199 1539.1415,-163.9808 1563.4561,-112.4524 1575.0159,-84.9451"/>
<polygon fill="#191970" stroke="#191970" points="1578.266,-86.244 1578.8125,-75.6632 1571.7871,-83.5938 1578.266,-86.244"/>
</g>
<!-- Node21 -->
<g id="node11" class="node">
<title>Node21</title>
<g id="a_node11"><a xlink:href="PositionRaw_8h.html" target="_top" xlink:title="iDynTree/Core/PositionRaw.h">
<polygon fill="none" stroke="#000000" points="1341.5033,-174 1341.5033,-193 1497.5033,-193 1497.5033,-174 1341.5033,-174"/>
<text text-anchor="middle" x="1419.5033" y="-181" font-family="FreeSans.ttf" font-size="10.00" fill="#000000">iDynTree/Core/PositionRaw.h</text>
</a>
</g>
</g>
<!-- Node20&#45;&gt;Node21 -->
<g id="edge12" class="edge">
<title>Node20&#45;&gt;Node21</title>
<path fill="none" stroke="#191970" d="M1428.0705,-240.9005C1426.6002,-231.0495 1424.2712,-215.4451 1422.4124,-202.9912"/>
<polygon fill="#191970" stroke="#191970" points="1425.8713,-202.4554 1420.9334,-193.0817 1418.948,-203.4888 1425.8713,-202.4554"/>
</g>
<!-- Node21&#45;&gt;Node4 -->
<g id="edge14" class="edge">
<title>Node21&#45;&gt;Node4</title>
<path fill="none" stroke="#191970" d="M1432.8422,-173.8845C1460.9004,-153.6585 1526.2585,-106.5445 1560.5732,-81.8085"/>
<polygon fill="#191970" stroke="#191970" points="1562.9146,-84.4353 1568.98,-75.7484 1558.8212,-78.7568 1562.9146,-84.4353"/>
</g>
<!-- Node21&#45;&gt;Node5 -->
<g id="edge13" class="edge">
<title>Node21&#45;&gt;Node5</title>
<path fill="none" stroke="#191970" d="M1341.2205,-174.6271C1318.7319,-172.2612 1294.1625,-169.8512 1271.5033,-168 1021.3363,-147.5623 725.4874,-132.7079 579.4361,-125.9922"/>
<polygon fill="#191970" stroke="#191970" points="579.3315,-122.4838 569.1819,-125.5227 579.0114,-129.4765 579.3315,-122.4838"/>
</g>
<!-- Node28&#45;&gt;Node4 -->
<g id="edge17" class="edge">
<title>Node28&#45;&gt;Node4</title>
<path fill="none" stroke="#191970" d="M847.0086,-302.4865C941.0537,-287.0676 1123.6763,-252.8088 1271.5033,-199 1300.0802,-188.5981 1304.8451,-180.6439 1332.5033,-168 1409.7184,-132.7011 1502.811,-96.2942 1550.6655,-78.0157"/>
<polygon fill="#191970" stroke="#191970" points="1552.0684,-81.2267 1560.1685,-74.3973 1549.5775,-74.6848 1552.0684,-81.2267"/>
</g>
<!-- Node29&#45;&gt;Node4 -->
<g id="edge19" class="edge">
<title>Node29&#45;&gt;Node4</title>
<path fill="none" stroke="#191970" d="M1458.5425,-302.4697C1473.1664,-294.3827 1493.0694,-281.617 1506.5033,-266 1549.6692,-215.819 1551.4121,-195.0696 1571.5033,-132 1576.3514,-116.781 1579.1649,-98.8704 1580.7308,-85.5501"/>
<polygon fill="#191970" stroke="#191970" points="1584.2122,-85.91 1581.77,-75.6005 1577.25,-85.1828 1584.2122,-85.91"/>
</g>
<!-- Node30&#45;&gt;Node4 -->
<g id="edge22" class="edge">
<title>Node30&#45;&gt;Node4</title>
<path fill="none" stroke="#191970" d="M1940.8812,-302.3565C1883.7765,-264.695 1675.512,-127.3409 1605.5808,-81.22"/>
<polygon fill="#191970" stroke="#191970" points="1607.2992,-78.1607 1597.0242,-75.5768 1603.4452,-84.0043 1607.2992,-78.1607"/>
</g>
<!-- Node32&#45;&gt;Node30 -->
<g id="edge45" class="edge">
<title>Node32&#45;&gt;Node30</title>
<path fill="none" stroke="#191970" d="M966.103,-368.3421C1012.2929,-365.2075 1072.8321,-361.2054 1126.5033,-358 1425.5092,-340.1427 1500.4809,-339.5812 1799.5033,-322 1824.5053,-320.53 1851.7539,-318.8203 1876.3804,-317.2348"/>
<polygon fill="#191970" stroke="#191970" points="1876.6438,-320.7251 1886.3973,-316.5874 1876.1924,-313.7397 1876.6438,-320.7251"/>
</g>
<!-- Node33 -->
<g id="node16" class="node">
<title>Node33</title>
<g id="a_node16"><a xlink:href="Transform_8h.html" target="_top" xlink:title="iDynTree/Core/Transform.h">
<polygon fill="none" stroke="#ff0000" points="1578.5033,-302.5 1578.5033,-321.5 1724.5033,-321.5 1724.5033,-302.5 1578.5033,-302.5"/>
<text text-anchor="middle" x="1651.5033" y="-309.5" font-family="FreeSans.ttf" font-size="10.00" fill="#000000">iDynTree/Core/Transform.h</text>
</a>
</g>
</g>
<!-- Node32&#45;&gt;Node33 -->
<g id="edge24" class="edge">
<title>Node32&#45;&gt;Node33</title>
<path fill="none" stroke="#191970" d="M966.0231,-367.602C1085.5426,-358.1223 1327.4917,-338.8495 1532.5033,-322 1544.0454,-321.0514 1556.2163,-320.0406 1568.1921,-319.04"/>
<polygon fill="#191970" stroke="#191970" points="1568.5145,-322.5253 1578.1877,-318.2035 1567.9306,-315.5497 1568.5145,-322.5253"/>
</g>
<!-- Node34 -->
<g id="node18" class="node">
<title>Node34</title>
<g id="a_node18"><a xlink:href="Twist_8h.html" target="_top" xlink:title="iDynTree/Core/Twist.h">
<polygon fill="none" stroke="#000000" points="389.5033,-302.5 389.5033,-321.5 511.5033,-321.5 511.5033,-302.5 389.5033,-302.5"/>
<text text-anchor="middle" x="450.5033" y="-309.5" font-family="FreeSans.ttf" font-size="10.00" fill="#000000">iDynTree/Core/Twist.h</text>
</a>
</g>
</g>
<!-- Node32&#45;&gt;Node34 -->
<g id="edge31" class="edge">
<title>Node32&#45;&gt;Node34</title>
<path fill="none" stroke="#191970" d="M823.0809,-363.9581C741.2147,-352.5414 604.818,-333.5201 521.7298,-321.933"/>
<polygon fill="#191970" stroke="#191970" points="522.0068,-318.4378 511.6192,-320.523 521.0399,-325.3707 522.0068,-318.4378"/>
</g>
<!-- Node37 -->
<g id="node21" class="node">
<title>Node37</title>
<g id="a_node21"><a xlink:href="SpatialAcc_8h.html" target="_top" xlink:title="iDynTree/Core/SpatialAcc.h">
<polygon fill="none" stroke="#000000" points="886.5033,-302.5 886.5033,-321.5 1034.5033,-321.5 1034.5033,-302.5 886.5033,-302.5"/>
<text text-anchor="middle" x="960.5033" y="-309.5" font-family="FreeSans.ttf" font-size="10.00" fill="#000000">iDynTree/Core/SpatialAcc.h</text>
</a>
</g>
</g>
<!-- Node32&#45;&gt;Node37 -->
<g id="edge36" class="edge">
<title>Node32&#45;&gt;Node37</title>
<path fill="none" stroke="#191970" d="M902.2845,-363.8906C912.8558,-354.4683 929.1858,-339.9134 941.8635,-328.6137"/>
<polygon fill="#191970" stroke="#191970" points="944.4337,-331.0114 949.57,-321.7449 939.776,-325.7858 944.4337,-331.0114"/>
</g>
<!-- Node38 -->
<g id="node22" class="node">
<title>Node38</title>
<g id="a_node22"><a xlink:href="Wrench_8h.html" target="_top" xlink:title="iDynTree/Core/Wrench.h">
<polygon fill="none" stroke="#000000" points="1053.0033,-302.5 1053.0033,-321.5 1186.0033,-321.5 1186.0033,-302.5 1053.0033,-302.5"/>
<text text-anchor="middle" x="1119.5033" y="-309.5" font-family="FreeSans.ttf" font-size="10.00" fill="#000000">iDynTree/Core/Wrench.h</text>
</a>
</g>
</g>
<!-- Node32&#45;&gt;Node38 -->
<g id="edge38" class="edge">
<title>Node32&#45;&gt;Node38</title>
<path fill="none" stroke="#191970" d="M927.1283,-363.8906C966.8664,-353.1718 1031.2301,-335.8105 1074.4381,-324.1557"/>
<polygon fill="#191970" stroke="#191970" points="1075.385,-327.5255 1084.1284,-321.5419 1073.562,-320.767 1075.385,-327.5255"/>
</g>
<!-- Node40 -->
<g id="node24" class="node">
<title>Node40</title>
<g id="a_node24"><a xlink:href="ArticulatedBodyInertia_8h.html" target="_top" xlink:title="iDynTree/Core/Articulated\lBodyInertia.h">
<polygon fill="none" stroke="#000000" points="1121.0033,-168.5 1121.0033,-198.5 1262.0033,-198.5 1262.0033,-168.5 1121.0033,-168.5"/>
<text text-anchor="start" x="1129.0033" y="-186.5" font-family="FreeSans.ttf" font-size="10.00" fill="#000000">iDynTree/Core/Articulated</text>
<text text-anchor="middle" x="1191.5033" y="-175.5" font-family="FreeSans.ttf" font-size="10.00" fill="#000000">BodyInertia.h</text>
</a>
</g>
</g>
<!-- Node32&#45;&gt;Node40 -->
<g id="edge42" class="edge">
<title>Node32&#45;&gt;Node40</title>
<path fill="none" stroke="#191970" d="M945.4756,-363.9193C956.7182,-361.9444 968.4952,-359.891 979.5033,-358 1027.2468,-349.7983 1163.2049,-358.9747 1194.5033,-322 1221.1913,-290.4717 1210.7191,-238.9085 1200.9357,-208.3842"/>
<polygon fill="#191970" stroke="#191970" points="1204.114,-206.8612 1197.566,-198.5321 1197.4907,-209.1266 1204.114,-206.8612"/>
</g>
<!-- Node32&#45;&gt;Node41 -->
<g id="edge46" class="edge">
<title>Node32&#45;&gt;Node41</title>
<path fill="none" stroke="#191970" d="M966.3026,-367.395C1004.3723,-364.3807 1051.3892,-360.7999 1093.5033,-358 1374.4385,-339.3222 1451.1798,-370.906 1732.7702,-321.6815"/>
<polygon fill="#191970" stroke="#191970" points="1733.6359,-325.0828 1742.8743,-319.8961 1732.4178,-318.1896 1733.6359,-325.0828"/>
</g>
<!-- Node33&#45;&gt;Node4 -->
<g id="edge30" class="edge">
<title>Node33&#45;&gt;Node4</title>
<path fill="none" stroke="#191970" d="M1651.2609,-302.4111C1650.2086,-272.8371 1644.6431,-180.8842 1615.5033,-112 1611.2289,-101.8957 1604.4079,-91.8573 1598.0738,-83.7483"/>
<polygon fill="#191970" stroke="#191970" points="1600.5894,-81.2969 1591.5352,-75.7947 1595.182,-85.7422 1600.5894,-81.2969"/>
</g>
<!-- Node33&#45;&gt;Node20 -->
<g id="edge25" class="edge">
<title>Node33&#45;&gt;Node20</title>
<path fill="none" stroke="#191970" d="M1616.8158,-302.3906C1578.2049,-291.6944 1515.7172,-274.3836 1473.6485,-262.7294"/>
<polygon fill="#191970" stroke="#191970" points="1474.5187,-259.3387 1463.9472,-260.0419 1472.6498,-266.0847 1474.5187,-259.3387"/>
</g>
<!-- Node25 -->
<g id="node17" class="node">
<title>Node25</title>
<g id="a_node17"><a xlink:href="MatrixFixSize_8h.html" target="_top" xlink:title="iDynTree/Core/MatrixFixSize.h">
<polygon fill="none" stroke="#ff0000" points="978.0033,-112.5 978.0033,-131.5 1139.0033,-131.5 1139.0033,-112.5 978.0033,-112.5"/>
<text text-anchor="middle" x="1058.5033" y="-119.5" font-family="FreeSans.ttf" font-size="10.00" fill="#000000">iDynTree/Core/MatrixFixSize.h</text>
</a>
</g>
</g>
<!-- Node33&#45;&gt;Node25 -->
<g id="edge26" class="edge">
<title>Node33&#45;&gt;Node25</title>
<path fill="none" stroke="#191970" d="M1645.4125,-302.4291C1627.7573,-275.6282 1573.5229,-199.726 1506.5033,-168 1445.2554,-139.0062 1261.5554,-128.1864 1149.3092,-124.2221"/>
<polygon fill="#191970" stroke="#191970" points="1149.1252,-120.7138 1139.0115,-123.8705 1148.8863,-127.7097 1149.1252,-120.7138"/>
</g>
<!-- Node25&#45;&gt;Node4 -->
<g id="edge28" class="edge">
<title>Node25&#45;&gt;Node4</title>
<path fill="none" stroke="#191970" d="M1139.2299,-113.3727C1256.6842,-100.8204 1469.4723,-78.0796 1550.2362,-69.4484"/>
<polygon fill="#191970" stroke="#191970" points="1550.7242,-72.9163 1560.2956,-68.3733 1549.9803,-65.9559 1550.7242,-72.9163"/>
</g>
<!-- Node25&#45;&gt;Node6 -->
<g id="edge27" class="edge">
<title>Node25&#45;&gt;Node6</title>
<path fill="none" stroke="#191970" d="M977.6131,-116.8378C871.6377,-109.7263 679.7947,-95.6578 505.4466,-76.0447"/>
<polygon fill="#191970" stroke="#191970" points="505.644,-72.5448 495.3134,-74.8962 504.8556,-79.5002 505.644,-72.5448"/>
</g>
<!-- Node25&#45;&gt;Node18 -->
<g id="edge29" class="edge">
<title>Node25&#45;&gt;Node18</title>
<path fill="none" stroke="#191970" d="M977.722,-113.25C864.5613,-100.9927 663.3346,-79.1964 579.6509,-70.132"/>
<polygon fill="#191970" stroke="#191970" points="579.8934,-66.6379 569.5746,-69.0406 579.1395,-73.5972 579.8934,-66.6379"/>
</g>
<!-- Node35 -->
<g id="node19" class="node">
<title>Node35</title>
<g id="a_node19"><a xlink:href="SpatialMotionVector_8h.html" target="_top" xlink:title="iDynTree/Core/SpatialMotion\lVector.h">
<polygon fill="none" stroke="#ff0000" points="390.0033,-235.5 390.0033,-265.5 545.0033,-265.5 545.0033,-235.5 390.0033,-235.5"/>
<text text-anchor="start" x="398.0033" y="-253.5" font-family="FreeSans.ttf" font-size="10.00" fill="#000000">iDynTree/Core/SpatialMotion</text>
<text text-anchor="middle" x="467.5033" y="-242.5" font-family="FreeSans.ttf" font-size="10.00" fill="#000000">Vector.h</text>
</a>
</g>
</g>
<!-- Node34&#45;&gt;Node35 -->
<g id="edge32" class="edge">
<title>Node34&#45;&gt;Node35</title>
<path fill="none" stroke="#191970" d="M453.1595,-302.3906C455.162,-295.1463 458.0032,-284.8679 460.6293,-275.3676"/>
<polygon fill="#191970" stroke="#191970" points="464.0537,-276.1157 463.3446,-265.5446 457.3067,-274.2506 464.0537,-276.1157"/>
</g>
<!-- Node35&#45;&gt;Node5 -->
<g id="edge33" class="edge">
<title>Node35&#45;&gt;Node5</title>
<path fill="none" stroke="#191970" d="M491.8556,-235.2879C503.7908,-226.3463 516.9735,-213.8764 523.5033,-199 529.0409,-186.3841 527.9054,-181.0556 523.5033,-168 519.9338,-157.4138 512.8498,-147.3356 505.9831,-139.3256"/>
<polygon fill="#191970" stroke="#191970" points="508.4051,-136.7886 499.0623,-131.7924 503.2503,-141.5244 508.4051,-136.7886"/>
</g>
<!-- Node23 -->
<g id="node20" class="node">
<title>Node23</title>
<g id="a_node20"><a xlink:href="GeomVector3_8h.html" target="_top" xlink:title="iDynTree/Core/GeomVector3.h">
<polygon fill="none" stroke="#000000" points="352.0033,-174 352.0033,-193 515.0033,-193 515.0033,-174 352.0033,-174"/>
<text text-anchor="middle" x="433.5033" y="-181" font-family="FreeSans.ttf" font-size="10.00" fill="#000000">iDynTree/Core/GeomVector3.h</text>
</a>
</g>
</g>
<!-- Node35&#45;&gt;Node23 -->
<g id="edge34" class="edge">
<title>Node35&#45;&gt;Node23</title>
<path fill="none" stroke="#191970" d="M459.7881,-235.2967C454.7994,-225.4658 448.2717,-212.6026 442.9697,-202.1545"/>
<polygon fill="#191970" stroke="#191970" points="445.9985,-200.3886 438.3521,-193.055 439.7563,-203.5563 445.9985,-200.3886"/>
</g>
<!-- Node23&#45;&gt;Node5 -->
<g id="edge35" class="edge">
<title>Node23&#45;&gt;Node5</title>
<path fill="none" stroke="#191970" d="M442.097,-173.8906C450.3629,-164.6478 463.0459,-150.466 473.0649,-139.2628"/>
<polygon fill="#191970" stroke="#191970" points="475.731,-141.5321 479.7883,-131.7449 470.5132,-136.8657 475.731,-141.5321"/>
</g>
<!-- Node37&#45;&gt;Node35 -->
<g id="edge37" class="edge">
<title>Node37&#45;&gt;Node35</title>
<path fill="none" stroke="#191970" d="M886.3029,-303.1375C882.9913,-302.7511 879.7129,-302.3705 876.5033,-302 736.6634,-285.8593 698.7095,-286.597 555.3054,-266.0595"/>
<polygon fill="#191970" stroke="#191970" points="555.6481,-262.5728 545.2509,-264.6097 554.649,-269.5012 555.6481,-262.5728"/>
</g>
<!-- Node39 -->
<g id="node23" class="node">
<title>Node39</title>
<g id="a_node23"><a xlink:href="SpatialForceVector_8h.html" target="_top" xlink:title="iDynTree/Core/SpatialForce\lVector.h">
<polygon fill="none" stroke="#ff0000" points="563.5033,-235.5 563.5033,-265.5 711.5033,-265.5 711.5033,-235.5 563.5033,-235.5"/>
<text text-anchor="start" x="571.5033" y="-253.5" font-family="FreeSans.ttf" font-size="10.00" fill="#000000">iDynTree/Core/SpatialForce</text>
<text text-anchor="middle" x="637.5033" y="-242.5" font-family="FreeSans.ttf" font-size="10.00" fill="#000000">Vector.h</text>
</a>
</g>
</g>
<!-- Node38&#45;&gt;Node39 -->
<g id="edge39" class="edge">
<title>Node38&#45;&gt;Node39</title>
<path fill="none" stroke="#191970" d="M1052.7775,-303.2024C1049.6425,-302.7947 1046.5389,-302.3922 1043.5033,-302 932.2293,-287.622 803.7494,-271.3862 721.6308,-261.0554"/>
<polygon fill="#191970" stroke="#191970" points="721.9607,-257.5694 711.6021,-259.7942 721.0871,-264.5147 721.9607,-257.5694"/>
</g>
<!-- Node39&#45;&gt;Node5 -->
<g id="edge40" class="edge">
<title>Node39&#45;&gt;Node5</title>
<path fill="none" stroke="#191970" d="M619.8259,-235.2548C591.6211,-210.9305 536.6643,-163.5349 507.5938,-138.464"/>
<polygon fill="#191970" stroke="#191970" points="509.6509,-135.6162 499.7922,-131.7358 505.0792,-140.9172 509.6509,-135.6162"/>
</g>
<!-- Node39&#45;&gt;Node23 -->
<g id="edge41" class="edge">
<title>Node39&#45;&gt;Node23</title>
<path fill="none" stroke="#191970" d="M591.7217,-235.4639C555.6902,-223.63 506.0475,-207.3258 472.0328,-196.1543"/>
<polygon fill="#191970" stroke="#191970" points="473.0376,-192.8004 462.4447,-193.0053 470.8533,-199.4509 473.0376,-192.8004"/>
</g>
<!-- Node40&#45;&gt;Node4 -->
<g id="edge44" class="edge">
<title>Node40&#45;&gt;Node4</title>
<path fill="none" stroke="#191970" d="M1204.539,-168.3902C1219.9251,-151.6448 1247.1551,-125.257 1276.5033,-112 1324.9508,-90.1155 1481.3778,-74.5755 1549.8717,-68.6501"/>
<polygon fill="#191970" stroke="#191970" points="1550.4121,-72.1168 1560.0796,-67.7821 1549.819,-65.142 1550.4121,-72.1168"/>
</g>
<!-- Node40&#45;&gt;Node25 -->
<g id="edge43" class="edge">
<title>Node40&#45;&gt;Node25</title>
<path fill="none" stroke="#191970" d="M1158.9678,-168.4554C1137.3604,-158.464 1109.2134,-145.4487 1088.2113,-135.7372"/>
<polygon fill="#191970" stroke="#191970" points="1089.6591,-132.5506 1079.1135,-131.5303 1086.7211,-138.9043 1089.6591,-132.5506"/>
</g>
<!-- Node42&#45;&gt;Node30 -->
<g id="edge54" class="edge">
<title>Node42&#45;&gt;Node30</title>
<path fill="none" stroke="#191970" d="M2343.1935,-435.8224C2420.6242,-428.0025 2532.2401,-407.8703 2486.5033,-358 2456.6243,-325.4207 2175.4802,-315.8484 2034.8364,-313.0887"/>
<polygon fill="#191970" stroke="#191970" points="2034.6122,-309.584 2024.5477,-312.8941 2034.4797,-316.5827 2034.6122,-309.584"/>
</g>
<!-- Node42&#45;&gt;Node33 -->
<g id="edge53" class="edge">
<title>Node42&#45;&gt;Node33</title>
<path fill="none" stroke="#191970" d="M2209.7364,-434.1341C2081.1908,-421.7794 1810.2005,-395.2168 1790.5033,-389 1745.7899,-374.8876 1699.1799,-345.5741 1672.9003,-327.4643"/>
<polygon fill="#191970" stroke="#191970" points="1674.6869,-324.4425 1664.4891,-321.5692 1670.6693,-330.1748 1674.6869,-324.4425"/>
</g>
<!-- Node42&#45;&gt;Node41 -->
<g id="edge62" class="edge">
<title>Node42&#45;&gt;Node41</title>
<path fill="none" stroke="#191970" d="M2255.7613,-430.9272C2213.0513,-411.3485 2116.374,-367.7493 2081.5033,-358 2028.9773,-343.3145 1870.2091,-323.931 1800.2388,-315.8225"/>
<polygon fill="#191970" stroke="#191970" points="1800.5264,-312.3326 1790.1915,-314.6651 1799.7252,-319.2866 1800.5264,-312.3326"/>
</g>
<!-- Node43 -->
<g id="node27" class="node">
<title>Node43</title>
<g id="a_node27"><a xlink:href="IJoint_8h.html" target="_top" xlink:title="iDynTree/Model/IJoint.h">
<polygon fill="none" stroke="#000000" points="2533.5033,-364 2533.5033,-383 2661.5033,-383 2661.5033,-364 2533.5033,-364"/>
<text text-anchor="middle" x="2597.5033" y="-371" font-family="FreeSans.ttf" font-size="10.00" fill="#000000">iDynTree/Model/IJoint.h</text>
</a>
</g>
</g>
<!-- Node42&#45;&gt;Node43 -->
<g id="edge49" class="edge">
<title>Node42&#45;&gt;Node43</title>
<path fill="none" stroke="#191970" d="M2322.1538,-430.9717C2379.9507,-418.9082 2479.474,-398.1354 2541.7158,-385.1441"/>
<polygon fill="#191970" stroke="#191970" points="2542.6767,-388.5191 2551.7506,-383.0496 2541.2464,-381.6667 2542.6767,-388.5191"/>
</g>
<!-- Node44 -->
<g id="node28" class="node">
<title>Node44</title>
<g id="a_node28"><a xlink:href="Link_8h.html" target="_top" xlink:title="iDynTree/Model/Link.h">
<polygon fill="none" stroke="#ff0000" points="2353.5033,-364 2353.5033,-383 2477.5033,-383 2477.5033,-364 2353.5033,-364"/>
<text text-anchor="middle" x="2415.5033" y="-371" font-family="FreeSans.ttf" font-size="10.00" fill="#000000">iDynTree/Model/Link.h</text>
</a>
</g>
</g>
<!-- Node42&#45;&gt;Node44 -->
<g id="edge51" class="edge">
<title>Node42&#45;&gt;Node44</title>
<path fill="none" stroke="#191970" d="M2296.4186,-430.9005C2319.9523,-419.5569 2359.3133,-400.5844 2386.2961,-387.5783"/>
<polygon fill="#191970" stroke="#191970" points="2388.1365,-390.5766 2395.6249,-383.0817 2385.097,-384.2709 2388.1365,-390.5766"/>
</g>
<!-- Node49 -->
<g id="node29" class="node">
<title>Node49</title>
<g id="a_node29"><a xlink:href="SolidShapes_8h.html" target="_top" xlink:title="iDynTree/Model/SolidShapes.h">
<polygon fill="none" stroke="#000000" points="2172.0033,-364 2172.0033,-383 2335.0033,-383 2335.0033,-364 2172.0033,-364"/>
<text text-anchor="middle" x="2253.5033" y="-371" font-family="FreeSans.ttf" font-size="10.00" fill="#000000">iDynTree/Model/SolidShapes.h</text>
</a>
</g>
</g>
<!-- Node42&#45;&gt;Node49 -->
<g id="edge55" class="edge">
<title>Node42&#45;&gt;Node49</title>
<path fill="none" stroke="#191970" d="M2273.2079,-430.9005C2269.7921,-420.95 2264.3611,-405.1292 2260.065,-392.6147"/>
<polygon fill="#191970" stroke="#191970" points="2263.3498,-391.4035 2256.7925,-383.0817 2256.729,-393.6763 2263.3498,-391.4035"/>
</g>
<!-- Node50 -->
<g id="node30" class="node">
<title>Node50</title>
<polygon fill="none" stroke="#bfbfbf" points="2466.0033,-302.5 2466.0033,-321.5 2515.0033,-321.5 2515.0033,-302.5 2466.0033,-302.5"/>
<text text-anchor="middle" x="2490.5033" y="-309.5" font-family="FreeSans.ttf" font-size="10.00" fill="#000000">cstdlib</text>
</g>
<!-- Node42&#45;&gt;Node50 -->
<g id="edge61" class="edge">
<title>Node42&#45;&gt;Node50</title>
<path fill="none" stroke="#191970" d="M2343.162,-436.5185C2449.8727,-429.4577 2649.2848,-413.1724 2670.5033,-389 2713.833,-339.6381 2589.1833,-320.9233 2525.4641,-314.7141"/>
<polygon fill="#191970" stroke="#191970" points="2525.7071,-311.2217 2515.4283,-313.7902 2525.0653,-318.1923 2525.7071,-311.2217"/>
</g>
<!-- Node43&#45;&gt;Node30 -->
<g id="edge50" class="edge">
<title>Node43&#45;&gt;Node30</title>
<path fill="none" stroke="#191970" d="M2553.9245,-363.9225C2542.748,-361.7191 2530.7157,-359.566 2519.5033,-358 2347.7202,-334.0072 2144.6222,-321.229 2035.1099,-315.6087"/>
<polygon fill="#191970" stroke="#191970" points="2034.9725,-312.0974 2024.8083,-315.087 2034.6184,-319.0884 2034.9725,-312.0974"/>
</g>
<!-- Node44&#45;&gt;Node30 -->
<g id="edge52" class="edge">
<title>Node44&#45;&gt;Node30</title>
<path fill="none" stroke="#191970" d="M2375.0851,-363.9644C2365.1237,-361.8113 2354.4573,-359.671 2344.5033,-358 2237.9561,-340.1137 2113.8409,-326.7118 2034.9949,-319.1167"/>
<polygon fill="#191970" stroke="#191970" points="2034.9418,-315.5958 2024.6543,-318.1289 2034.2761,-322.564 2034.9418,-315.5958"/>
</g>
<!-- Node49&#45;&gt;Node4 -->
<g id="edge57" class="edge">
<title>Node49&#45;&gt;Node4</title>
<path fill="none" stroke="#191970" d="M2244.4769,-363.8462C2227.0568,-344.1624 2190.5033,-297.2849 2190.5033,-250.5 2190.5033,-250.5 2190.5033,-250.5 2190.5033,-183.5 2190.5033,-124.3473 1741.1309,-80.0586 1615.045,-68.7962"/>
<polygon fill="#191970" stroke="#191970" points="1615.1328,-65.2904 1604.8634,-67.8961 1614.5163,-72.2632 1615.1328,-65.2904"/>
</g>
<!-- Node49&#45;&gt;Node30 -->
<g id="edge60" class="edge">
<title>Node49&#45;&gt;Node30</title>
<path fill="none" stroke="#191970" d="M2207.2677,-363.9581C2154.5238,-353.073 2068.2834,-335.2751 2011.7041,-323.5985"/>
<polygon fill="#191970" stroke="#191970" points="2012.3483,-320.1578 2001.8473,-321.5643 2010.9334,-327.0133 2012.3483,-320.1578"/>
</g>
<!-- Node49&#45;&gt;Node33 -->
<g id="edge59" class="edge">
<title>Node49&#45;&gt;Node33</title>
<path fill="none" stroke="#191970" d="M2171.6478,-365.9131C2071.4275,-356.5031 1896.2315,-339.6637 1734.9267,-322.0261"/>
<polygon fill="#191970" stroke="#191970" points="1735.136,-318.5281 1724.814,-320.9173 1734.3729,-325.4864 1735.136,-318.5281"/>
</g>
<!-- Node49&#45;&gt;Node41 -->
<g id="edge58" class="edge">
<title>Node49&#45;&gt;Node41</title>
<path fill="none" stroke="#191970" d="M2178.2105,-363.9918C2070.8573,-350.4348 1878.2027,-326.1058 1800.4349,-316.285"/>
<polygon fill="#191970" stroke="#191970" points="1800.6046,-312.7787 1790.2448,-314.9982 1799.7275,-319.7236 1800.6046,-312.7787"/>
</g>
<!-- Node49&#45;&gt;Node50 -->
<g id="edge56" class="edge">
<title>Node49&#45;&gt;Node50</title>
<path fill="none" stroke="#191970" d="M2290.2745,-363.9581C2335.6282,-352.1891 2412.124,-332.3389 2456.2752,-320.882"/>
<polygon fill="#191970" stroke="#191970" points="2457.1736,-324.2648 2465.9739,-318.3652 2455.4153,-317.4892 2457.1736,-324.2648"/>
</g>
<!-- Node51&#45;&gt;Node4 -->
<g id="edge66" class="edge">
<title>Node51&#45;&gt;Node4</title>
<path fill="none" stroke="#191970" d="M2827.0527,-363.8521C2818.0451,-343.4143 2798.5033,-294.0554 2798.5033,-250.5 2798.5033,-250.5 2798.5033,-250.5 2798.5033,-183.5 2798.5033,-142.8601 2777.7601,-130.3587 2741.5033,-112 2689.896,-85.8686 1796.9912,-69.5844 1614.8029,-66.5255"/>
<polygon fill="#191970" stroke="#191970" points="1614.5973,-63.0217 1604.5404,-66.3546 1614.4807,-70.0207 1614.5973,-63.0217"/>
</g>
<!-- Node51&#45;&gt;Node7 -->
<g id="edge67" class="edge">
<title>Node51&#45;&gt;Node7</title>
<path fill="none" stroke="#191970" d="M2859.2194,-363.8928C2900.544,-347.596 2973.5033,-310.3491 2973.5033,-250.5 2973.5033,-250.5 2973.5033,-250.5 2973.5033,-122 2973.5033,-61.2088 1997.1129,-19.434 1794.1726,-11.4078"/>
<polygon fill="#191970" stroke="#191970" points="1794.1617,-7.9047 1784.032,-11.0094 1793.8869,-14.8993 1794.1617,-7.9047"/>
</g>
<!-- Node51&#45;&gt;Node30 -->
<g id="edge64" class="edge">
<title>Node51&#45;&gt;Node30</title>
<path fill="none" stroke="#191970" d="M2755.787,-365.7113C2728.8766,-363.0753 2698.3539,-360.236 2670.5033,-358 2439.6961,-339.4698 2166.4976,-323.5657 2034.5961,-316.2664"/>
<polygon fill="#191970" stroke="#191970" points="2034.7558,-312.7699 2024.5781,-315.7135 2034.37,-319.7593 2034.7558,-312.7699"/>
</g>
<!-- Node51&#45;&gt;Node41 -->
<g id="edge65" class="edge">
<title>Node51&#45;&gt;Node41</title>
<path fill="none" stroke="#191970" d="M2755.8092,-365.4164C2728.9009,-362.7538 2698.3737,-359.9729 2670.5033,-358 2318.5765,-333.0872 2229.5047,-345.834 1877.5033,-322 1851.6229,-320.2476 1822.4078,-317.5882 1800.4481,-315.4523"/>
<polygon fill="#191970" stroke="#191970" points="1800.5922,-311.9497 1790.2971,-314.4521 1799.9057,-318.9159 1800.5922,-311.9497"/>
</g>
<!-- Node52&#45;&gt;Node20 -->
<g id="edge69" class="edge">
<title>Node52&#45;&gt;Node20</title>
<path fill="none" stroke="#191970" d="M1381.0267,-430.9207C1401.4525,-415.3584 1443.2972,-383.7338 1479.5033,-358 1502.7135,-341.5031 1519.1756,-347.1642 1532.5033,-322 1547.3863,-293.899 1511.7459,-274.587 1478.3959,-263.1835"/>
<polygon fill="#191970" stroke="#191970" points="1479.229,-259.7748 1468.6374,-260.0369 1477.0807,-266.437 1479.229,-259.7748"/>
</g>
<!-- Node52&#45;&gt;Node30 -->
<g id="edge71" class="edge">
<title>Node52&#45;&gt;Node30</title>
<path fill="none" stroke="#191970" d="M1402.4634,-430.9858C1461.3801,-414.6809 1586.4943,-380.9422 1693.5033,-358 1757.4539,-344.2893 1830.8316,-331.6704 1883.6343,-323.1314"/>
<polygon fill="#191970" stroke="#191970" points="1884.2617,-326.5756 1893.5791,-321.5321 1883.1502,-319.6644 1884.2617,-326.5756"/>
</g>
<!-- Node52&#45;&gt;Node32 -->
<g id="edge72" class="edge">
<title>Node52&#45;&gt;Node32</title>
<path fill="none" stroke="#191970" d="M1300.6674,-430.9717C1213.2771,-418.6967 1061.6897,-397.4046 969.5911,-384.4683"/>
<polygon fill="#191970" stroke="#191970" points="969.8805,-380.9747 959.4909,-383.0496 968.9068,-387.9066 969.8805,-380.9747"/>
</g>
<!-- Node52&#45;&gt;Node38 -->
<g id="edge70" class="edge">
<title>Node52&#45;&gt;Node38</title>
<path fill="none" stroke="#191970" d="M1279.9561,-432.6051C1219.501,-425.2542 1146.819,-411.89 1126.5033,-389 1112.835,-373.5998 1113.0337,-349.0083 1115.3886,-331.7701"/>
<polygon fill="#191970" stroke="#191970" points="1118.8792,-332.1228 1117.1233,-321.6745 1111.9803,-330.9373 1118.8792,-332.1228"/>
</g>
<!-- Node52&#45;&gt;Node41 -->
<g id="edge73" class="edge">
<title>Node52&#45;&gt;Node41</title>
<path fill="none" stroke="#191970" d="M1388.1191,-430.9762C1423.3216,-414.2023 1499.865,-379.1665 1567.5033,-358 1636.5956,-336.3784 1658.6318,-340.5575 1732.9452,-321.9559"/>
<polygon fill="#191970" stroke="#191970" points="1733.9549,-325.3103 1742.775,-319.4403 1732.2194,-318.5289 1733.9549,-325.3103"/>
</g>
<!-- Node53&#45;&gt;Node30 -->
<g id="edge75" class="edge">
<title>Node53&#45;&gt;Node30</title>
<path fill="none" stroke="#191970" d="M1828.4664,-492.4188C1869.9492,-477.7144 1941.8859,-445.2156 1972.5033,-389 1982.4807,-370.6807 1974.5579,-346.8897 1966.5091,-330.6307"/>
<polygon fill="#191970" stroke="#191970" points="1969.4656,-328.7392 1961.6401,-321.5969 1963.3036,-332.0603 1969.4656,-328.7392"/>
</g>
<!-- Node53&#45;&gt;Node41 -->
<g id="edge76" class="edge">
<title>Node53&#45;&gt;Node41</title>
<path fill="none" stroke="#191970" d="M1795.9233,-492.3167C1791.0738,-462.5938 1776.3322,-372.242 1769.7441,-331.8634"/>
<polygon fill="#191970" stroke="#191970" points="1773.1819,-331.1976 1768.1172,-321.8917 1766.2732,-332.3248 1773.1819,-331.1976"/>
</g>
<!-- Node54&#45;&gt;Node5 -->
<g id="edge78" class="edge">
<title>Node54&#45;&gt;Node5</title>
<path fill="none" stroke="#191970" d="M1215.6202,-363.9891C1221.3673,-349.0705 1229.6019,-320.015 1215.5033,-302 1137.3355,-202.1182 756.1084,-149.9357 579.1168,-130.7581"/>
<polygon fill="#191970" stroke="#191970" points="579.3599,-127.2642 569.0438,-129.6784 578.6138,-134.2243 579.3599,-127.2642"/>
</g>
<!-- Node54&#45;&gt;Node29 -->
<g id="edge79" class="edge">
<title>Node54&#45;&gt;Node29</title>
<path fill="none" stroke="#191970" d="M1247.1283,-363.8906C1286.8664,-353.1718 1351.2301,-335.8105 1394.4381,-324.1557"/>
<polygon fill="#191970" stroke="#191970" points="1395.385,-327.5255 1404.1284,-321.5419 1393.562,-320.767 1395.385,-327.5255"/>
</g>
<!-- Node54&#45;&gt;Node39 -->
<g id="edge80" class="edge">
<title>Node54&#45;&gt;Node39</title>
<path fill="none" stroke="#191970" d="M1212.4055,-363.8749C1213.2793,-348.2512 1212.4266,-317.5553 1194.5033,-302 1159.6309,-271.735 869.1541,-258.0147 722.1029,-252.9604"/>
<polygon fill="#191970" stroke="#191970" points="721.881,-249.451 711.7685,-252.6113 721.6446,-256.447 721.881,-249.451"/>
</g>
<!-- Node54&#45;&gt;Node41 -->
<g id="edge81" class="edge">
<title>Node54&#45;&gt;Node41</title>
<path fill="none" stroke="#191970" d="M1287.1398,-366.4313C1416.7722,-354.2652 1672.5578,-330.0186 1732.7015,-321.439"/>
<polygon fill="#191970" stroke="#191970" points="1733.5501,-324.8467 1742.8512,-319.7732 1732.4164,-317.9391 1733.5501,-324.8467"/>
</g>
<!-- Node55&#45;&gt;Node29 -->
<g id="edge85" class="edge">
<title>Node55&#45;&gt;Node29</title>
<path fill="none" stroke="#191970" d="M1539.0969,-425.2548C1517.9821,-401.2437 1477.098,-354.7515 1454.8426,-329.4434"/>
<polygon fill="#191970" stroke="#191970" points="1457.2967,-326.934 1448.0647,-321.7358 1452.0401,-331.5566 1457.2967,-326.934"/>
</g>
<!-- Node55&#45;&gt;Node30 -->
<g id="edge86" class="edge">
<title>Node55&#45;&gt;Node30</title>
<path fill="none" stroke="#191970" d="M1593.5233,-425.4151C1640.752,-408.2494 1720.7938,-379.7762 1790.5033,-358 1830.1187,-345.6247 1875.5792,-333.0711 1908.7377,-324.2116"/>
<polygon fill="#191970" stroke="#191970" points="1909.8488,-327.5379 1918.6132,-321.585 1908.0495,-320.773 1909.8488,-327.5379"/>
</g>
<!-- Node55&#45;&gt;Node32 -->
<g id="edge87" class="edge">
<title>Node55&#45;&gt;Node32</title>
<path fill="none" stroke="#191970" d="M1475.1994,-426.2323C1472.2664,-425.7975 1469.36,-425.3846 1466.5033,-425 1293.1222,-401.6582 1088.857,-386.2045 976.4294,-378.7338"/>
<polygon fill="#191970" stroke="#191970" points="976.3808,-375.2231 966.1721,-378.0575 975.9201,-382.2079 976.3808,-375.2231"/>
</g>
<!-- Node55&#45;&gt;Node33 -->
<g id="edge83" class="edge">
<title>Node55&#45;&gt;Node33</title>
<path fill="none" stroke="#191970" d="M1560.975,-425.2389C1570.7518,-408.1615 1587.7731,-380.0056 1605.5033,-358 1613.858,-347.6306 1624.2747,-337.0551 1633.0816,-328.663"/>
<polygon fill="#191970" stroke="#191970" points="1635.687,-331.019 1640.6118,-321.6383 1630.912,-325.9004 1635.687,-331.019"/>
</g>
<!-- Node55&#45;&gt;Node34 -->
<g id="edge84" class="edge">
<title>Node55&#45;&gt;Node34</title>
<path fill="none" stroke="#191970" d="M1475.2234,-426.0341C1472.2837,-425.6548 1469.3693,-425.3075 1466.5033,-425 1410.4009,-418.9805 490.9506,-429.3437 451.5033,-389 436.9517,-374.1178 439.7295,-348.8584 444.1407,-331.3478"/>
<polygon fill="#191970" stroke="#191970" points="447.5413,-332.1872 446.958,-321.6085 440.817,-330.242 447.5413,-332.1872"/>
</g>
<!-- Node55&#45;&gt;Node41 -->
<g id="edge89" class="edge">
<title>Node55&#45;&gt;Node41</title>
<path fill="none" stroke="#191970" d="M1567.8252,-425.2937C1589.2078,-404.3081 1627.2041,-367.9296 1643.5033,-358 1658.9638,-348.5813 1702.5784,-333.1456 1733.4657,-322.7831"/>
<polygon fill="#191970" stroke="#191970" points="1734.6124,-326.0903 1742.9951,-319.6109 1732.4015,-319.4486 1734.6124,-326.0903"/>
</g>
<!-- Node55&#45;&gt;Node54 -->
<g id="edge88" class="edge">
<title>Node55&#45;&gt;Node54</title>
<path fill="none" stroke="#191970" d="M1475.9762,-425.4639C1413.5499,-413.1983 1326.6813,-396.1303 1269.792,-384.9526"/>
<polygon fill="#191970" stroke="#191970" points="1270.3681,-381.499 1259.8809,-383.0053 1269.0185,-388.3677 1270.3681,-381.499"/>
</g>
<!-- Node56&#45;&gt;Node30 -->
<g id="edge92" class="edge">
<title>Node56&#45;&gt;Node30</title>
<path fill="none" stroke="#191970" d="M1899.7954,-358.2977C1910.7094,-349.2274 1924.5704,-337.7077 1935.7357,-328.4285"/>
<polygon fill="#191970" stroke="#191970" points="1938.2013,-330.9303 1943.6549,-321.8469 1933.7271,-325.5468 1938.2013,-330.9303"/>
</g>
<!-- Node56&#45;&gt;Node41 -->
<g id="edge91" class="edge">
<title>Node56&#45;&gt;Node41</title>
<path fill="none" stroke="#191970" d="M1853.3711,-358.4554C1835.0246,-348.644 1811.2256,-335.9167 1793.1782,-326.2653"/>
<polygon fill="#191970" stroke="#191970" points="1794.793,-323.1598 1784.3242,-321.5303 1791.4918,-329.3326 1794.793,-323.1598"/>
</g>
<!-- Node57&#45;&gt;Node4 -->
<g id="edge95" class="edge">
<title>Node57&#45;&gt;Node4</title>
<path fill="none" stroke="#191970" d="M2067.0842,-493.7874C2237.2427,-474.7271 2639.4115,-426.2729 2688.5033,-389 2719.0563,-365.8026 2727.5033,-350.3615 2727.5033,-312 2727.5033,-312 2727.5033,-312 2727.5033,-183.5 2727.5033,-125.9774 1800.958,-76.8628 1614.8353,-67.577"/>
<polygon fill="#191970" stroke="#191970" points="1614.7681,-64.0695 1604.607,-67.0698 1614.4213,-71.0609 1614.7681,-64.0695"/>
</g>
<!-- Node57&#45;&gt;Node29 -->
<g id="edge98" class="edge">
<title>Node57&#45;&gt;Node29</title>
<path fill="none" stroke="#191970" d="M2031.3705,-492.3369C2050.3387,-485.5199 2071.2822,-474.2455 2082.5033,-456 2089.7209,-444.2641 2091.7538,-435.2105 2082.5033,-425 2027.9288,-364.7618 1798.4157,-403.8664 1718.5033,-389 1631.021,-372.7253 1531.0648,-342.1211 1477.7536,-324.7997"/>
<polygon fill="#191970" stroke="#191970" points="1478.6357,-321.4059 1468.0431,-321.6236 1476.4595,-328.059 1478.6357,-321.4059"/>
</g>
<!-- Node57&#45;&gt;Node30 -->
<g id="edge100" class="edge">
<title>Node57&#45;&gt;Node30</title>
<path fill="none" stroke="#191970" d="M2031.3362,-492.4857C2063.6917,-483.8563 2105.5381,-470.3255 2115.5033,-456 2123.371,-444.6896 2121.0038,-437.6322 2115.5033,-425 2093.1777,-373.7283 2033.5158,-341.7001 1993.6952,-325.3486"/>
<polygon fill="#191970" stroke="#191970" points="1994.8683,-322.0487 1984.282,-321.6217 1992.2914,-328.5572 1994.8683,-322.0487"/>
</g>
<!-- Node57&#45;&gt;Node23 -->
<g id="edge94" class="edge">
<title>Node57&#45;&gt;Node23</title>
<path fill="none" stroke="#191970" d="M1915.7147,-494.6088C1903.9349,-493.6228 1891.897,-492.7093 1880.5033,-492 1559.6419,-472.0248 722.1721,-538.381 437.5033,-389 400.7658,-369.7219 388.0894,-360.4494 372.5033,-322 369.1639,-313.7622 371.9754,-310.8732 372.5033,-302 374.2842,-272.0636 367.2085,-261.8814 380.5033,-235 387.4832,-220.887 399.9503,-208.4702 411.0399,-199.3665"/>
<polygon fill="#191970" stroke="#191970" points="413.3868,-201.9755 419.138,-193.0775 409.0932,-196.4469 413.3868,-201.9755"/>
</g>
<!-- Node57&#45;&gt;Node41 -->
<g id="edge96" class="edge">
<title>Node57&#45;&gt;Node41</title>
<path fill="none" stroke="#191970" d="M1993.5548,-492.4249C1998.4166,-466.8915 2007.7441,-396.5067 1972.5033,-358 1949.6472,-333.0258 1852.4712,-320.1392 1800.1642,-314.9016"/>
<polygon fill="#191970" stroke="#191970" points="1800.3205,-311.4005 1790.0312,-313.9265 1799.6499,-318.3683 1800.3205,-311.4005"/>
</g>
<!-- Node57&#45;&gt;Node42 -->
<g id="edge99" class="edge">
<title>Node57&#45;&gt;Node42</title>
<path fill="none" stroke="#191970" d="M2035.7218,-492.4581C2085.956,-481.6181 2167.9606,-463.9224 2222.0805,-452.2439"/>
<polygon fill="#191970" stroke="#191970" points="2223.1443,-455.595 2232.181,-450.0643 2221.6677,-448.7524 2223.1443,-455.595"/>
</g>
<!-- Node13 -->
<g id="node38" class="node">
<title>Node13</title>
<polygon fill="none" stroke="#bfbfbf" points="2020.0033,-431 2020.0033,-450 2073.0033,-450 2073.0033,-431 2020.0033,-431"/>
<text text-anchor="middle" x="2046.5033" y="-438" font-family="FreeSans.ttf" font-size="10.00" fill="#000000">iterator</text>
</g>
<!-- Node57&#45;&gt;Node13 -->
<g id="edge97" class="edge">
<title>Node57&#45;&gt;Node13</title>
<path fill="none" stroke="#191970" d="M2000.097,-492.3906C2008.3629,-483.1478 2021.0459,-468.966 2031.0649,-457.7628"/>
<polygon fill="#191970" stroke="#191970" points="2033.731,-460.0321 2037.7883,-450.2449 2028.5132,-455.3657 2033.731,-460.0321"/>
</g>
<!-- Node58&#45;&gt;Node5 -->
<g id="edge105" class="edge">
<title>Node58&#45;&gt;Node5</title>
<path fill="none" stroke="#191970" d="M491.3887,-363.9346C447.7181,-354.6106 388.8826,-339.333 372.5033,-322 333.856,-281.1025 349.2179,-254.8671 342.5033,-199 340.8591,-185.3207 334.3552,-179.1102 342.5033,-168 352.9904,-153.7005 392.2199,-141.8089 427.3749,-133.7008"/>
<polygon fill="#191970" stroke="#191970" points="428.1591,-137.1119 437.1551,-131.5153 426.6325,-130.2804 428.1591,-137.1119"/>
</g>
<!-- Node58&#45;&gt;Node6 -->
<g id="edge111" class="edge">
<title>Node58&#45;&gt;Node6</title>
<path fill="none" stroke="#191970" d="M495.757,-363.9792C457.1048,-355.2278 400.6662,-340.7733 353.5033,-322 277.2078,-291.6304 266.498,-266.1144 190.5033,-235 138.1849,-213.5794 102.3523,-244.2802 68.5033,-199 8.8876,-119.2516 111.1107,-138.5345 196.5033,-112 252.2575,-94.6751 317.4506,-82.6515 365.6516,-75.2536"/>
<polygon fill="#191970" stroke="#191970" points="366.3025,-78.6951 375.6698,-73.7449 365.2601,-71.7732 366.3025,-78.6951"/>
</g>
<!-- Node58&#45;&gt;Node28 -->
<g id="edge106" class="edge">
<title>Node58&#45;&gt;Node28</title>
<path fill="none" stroke="#191970" d="M579.2054,-363.9581C621.6804,-353.2082 690.7953,-335.7162 736.9446,-324.0365"/>
<polygon fill="#191970" stroke="#191970" points="737.8771,-327.4109 746.7127,-321.5643 736.1596,-320.6248 737.8771,-327.4109"/>
</g>
<!-- Node58&#45;&gt;Node29 -->
<g id="edge104" class="edge">
<title>Node58&#45;&gt;Node29</title>
<path fill="none" stroke="#191970" d="M622.3814,-367.961C788.7967,-356.564 1168.7318,-330.5439 1345.644,-318.428"/>
<polygon fill="#191970" stroke="#191970" points="1345.9769,-321.9135 1355.7144,-317.7383 1345.4986,-314.9299 1345.9769,-321.9135"/>
</g>
<!-- Node58&#45;&gt;Node33 -->
<g id="edge110" class="edge">
<title>Node58&#45;&gt;Node33</title>
<path fill="none" stroke="#191970" d="M622.1038,-368.6229C674.8437,-365.4761 745.26,-361.3588 807.5033,-358 1129.6538,-340.6161 1210.602,-343.511 1532.5033,-322 1544.0586,-321.2278 1556.2369,-320.3165 1568.2162,-319.3635"/>
<polygon fill="#191970" stroke="#191970" points="1568.5285,-322.8498 1578.2139,-318.5554 1567.9644,-315.8726 1568.5285,-322.8498"/>
</g>
<!-- Node58&#45;&gt;Node25 -->
<g id="edge107" class="edge">
<title>Node58&#45;&gt;Node25</title>
<path fill="none" stroke="#191970" d="M546.4595,-363.5686C554.7016,-348.0736 572.7013,-318.2429 596.5033,-302 643.9045,-269.6526 666.4526,-285.2811 720.5033,-266 836.9242,-224.47 970.7712,-163.2989 1028.9487,-136.0209"/>
<polygon fill="#191970" stroke="#191970" points="1030.7087,-139.061 1038.2679,-131.6374 1027.7292,-132.7267 1030.7087,-139.061"/>
</g>
<!-- Node58&#45;&gt;Node35 -->
<g id="edge108" class="edge">
<title>Node58&#45;&gt;Node35</title>
<path fill="none" stroke="#191970" d="M490.3033,-363.9152C448.3047,-354.8892 393.6973,-340.0731 380.5033,-322 365.2933,-301.1656 388.8727,-282.8141 415.2974,-269.9206"/>
<polygon fill="#191970" stroke="#191970" points="417.0824,-272.9521 424.7039,-265.5925 414.1564,-266.5929 417.0824,-272.9521"/>
</g>
<!-- Node58&#45;&gt;Node39 -->
<g id="edge109" class="edge">
<title>Node58&#45;&gt;Node39</title>
<path fill="none" stroke="#191970" d="M542.4614,-363.8164C544.3258,-349.1751 549.5651,-321.0905 563.5033,-302 572.5771,-289.5719 585.5953,-279.0941 598.19,-270.9015"/>
<polygon fill="#191970" stroke="#191970" points="600.1138,-273.8272 606.7882,-265.599 596.4394,-267.8692 600.1138,-273.8272"/>
</g>
<!-- Node59 -->
<g id="node40" class="node">
<title>Node59</title>
<polygon fill="none" stroke="#bfbfbf" points="606.0033,-302.5 606.0033,-321.5 683.0033,-321.5 683.0033,-302.5 606.0033,-302.5"/>
<text text-anchor="middle" x="644.5033" y="-309.5" font-family="FreeSans.ttf" font-size="10.00" fill="#000000">Eigen/Dense</text>
</g>
<!-- Node58&#45;&gt;Node59 -->
<g id="edge103" class="edge">
<title>Node58&#45;&gt;Node59</title>
<path fill="none" stroke="#191970" d="M557.597,-363.8906C574.2261,-353.9616 600.4009,-338.333 619.6827,-326.8201"/>
<polygon fill="#191970" stroke="#191970" points="621.7309,-329.6736 628.5225,-321.5419 618.1423,-323.6634 621.7309,-329.6736"/>
</g>
<!-- Node60&#45;&gt;Node59 -->
<g id="edge113" class="edge">
<title>Node60&#45;&gt;Node59</title>
<path fill="none" stroke="#191970" d="M660.6369,-492.3167C657.9774,-462.5938 649.8933,-372.242 646.2805,-331.8634"/>
<polygon fill="#191970" stroke="#191970" points="649.7656,-331.54 645.3883,-321.8917 642.7935,-332.1638 649.7656,-331.54"/>
</g>
<!-- Node48&#45;&gt;Node39 -->
<g id="edge115" class="edge">
<title>Node48&#45;&gt;Node39</title>
<path fill="none" stroke="#191970" d="M294.4684,-492.2132C294.7013,-477.2839 296.2912,-448.119 304.5033,-425 326.0124,-364.4464 327.7424,-338.6834 380.5033,-302 384.1608,-299.457 479.5523,-280.7465 553.0543,-266.6045"/>
<polygon fill="#191970" stroke="#191970" points="554.1089,-269.966 563.2686,-264.6415 552.7877,-263.0918 554.1089,-269.966"/>
</g>
<!-- Node61&#45;&gt;Node5 -->
<g id="edge117" class="edge">
<title>Node61&#45;&gt;Node5</title>
<path fill="none" stroke="#191970" d="M130.6313,-240.9553C156.5187,-231.6996 195.6167,-216.5146 227.5033,-199 248.4702,-187.4833 249.5769,-177.5646 271.5033,-168 311.2031,-150.6824 357.9038,-139.7026 397.7914,-132.8343"/>
<polygon fill="#191970" stroke="#191970" points="398.4859,-136.2669 407.7771,-131.1753 397.3386,-129.3616 398.4859,-136.2669"/>
</g>
<!-- Node62&#45;&gt;Node28 -->
<g id="edge125" class="edge">
<title>Node62&#45;&gt;Node28</title>
<path fill="none" stroke="#191970" d="M1058.2233,-430.9574C1047.098,-428.9604 1035.416,-426.8885 1024.5033,-425 976.3379,-416.6646 844.1729,-421.3221 807.5033,-389 791.2855,-374.705 786.274,-349.5046 784.8444,-331.8378"/>
<polygon fill="#191970" stroke="#191970" points="788.3349,-331.5559 784.3446,-321.7412 781.3434,-331.9021 788.3349,-331.5559"/>
</g>
<!-- Node62&#45;&gt;Node30 -->
<g id="edge126" class="edge">
<title>Node62&#45;&gt;Node30</title>
<path fill="none" stroke="#191970" d="M1186.2707,-430.9666C1254.0154,-421.9246 1355.8387,-407.0557 1443.5033,-389 1497.455,-377.8879 1509.3571,-368.1222 1563.5033,-358 1670.8316,-337.9357 1796.4234,-325.0272 1875.9597,-318.1399"/>
<polygon fill="#191970" stroke="#191970" points="1876.7228,-321.5875 1886.3884,-317.2485 1876.1266,-314.6129 1876.7228,-321.5875"/>
</g>
<!-- Node62&#45;&gt;Node32 -->
<g id="edge127" class="edge">
<title>Node62&#45;&gt;Node32</title>
<path fill="none" stroke="#191970" d="M1079.1259,-430.9005C1040.5839,-419.1091 975.098,-399.0746 932.5798,-386.0668"/>
<polygon fill="#191970" stroke="#191970" points="933.4089,-382.6604 922.8224,-383.0817 931.361,-389.3541 933.4089,-382.6604"/>
</g>
<!-- Node62&#45;&gt;Node54 -->
<g id="edge128" class="edge">
<title>Node62&#45;&gt;Node54</title>
<path fill="none" stroke="#191970" d="M1124.9741,-430.9005C1141.6242,-419.8554 1169.1773,-401.5776 1188.7146,-388.6172"/>
<polygon fill="#191970" stroke="#191970" points="1190.6609,-391.5263 1197.0593,-383.0817 1186.7913,-385.693 1190.6609,-391.5263"/>
</g>
<!-- Node65&#45;&gt;Node32 -->
<g id="edge134" class="edge">
<title>Node65&#45;&gt;Node32</title>
<path fill="none" stroke="#191970" d="M1362.2404,-566.4461C1219.4904,-559.626 903.4686,-535.6722 837.5033,-456 819.4979,-434.2533 847.1063,-406.2845 869.0279,-389.1372"/>
<polygon fill="#191970" stroke="#191970" points="871.1402,-391.9281 877.0442,-383.1307 866.9427,-386.3261 871.1402,-391.9281"/>
</g>
<!-- Node65&#45;&gt;Node41 -->
<g id="edge135" class="edge">
<title>Node65&#45;&gt;Node41</title>
<path fill="none" stroke="#191970" d="M1468.268,-553.9439C1511.2276,-534.8703 1584.2759,-499.2219 1638.5033,-456 1686.8882,-417.4348 1732.1808,-359.4169 1753.5871,-330.1944"/>
<polygon fill="#191970" stroke="#191970" points="1756.6484,-331.9339 1759.6715,-321.7795 1750.9759,-327.8323 1756.6484,-331.9339"/>
</g>
<!-- Node65&#45;&gt;Node57 -->
<g id="edge133" class="edge">
<title>Node65&#45;&gt;Node57</title>
<path fill="none" stroke="#191970" d="M1502.7493,-558.2615C1526.1824,-554.8112 1552.4466,-551.0865 1576.5033,-548 1690.1594,-533.4179 1821.6859,-519.3053 1905.679,-510.6421"/>
<polygon fill="#191970" stroke="#191970" points="1906.0927,-514.1181 1915.682,-509.613 1905.3763,-507.1549 1906.0927,-514.1181"/>
</g>
<!-- Node66&#45;&gt;Node32 -->
<g id="edge137" class="edge">
<title>Node66&#45;&gt;Node32</title>
<path fill="none" stroke="#191970" d="M451.1493,-431.4641C544.0204,-419.2394 709.4932,-397.4581 809.0095,-384.3587"/>
<polygon fill="#191970" stroke="#191970" points="809.566,-387.8157 819.0237,-383.0405 808.6525,-380.8756 809.566,-387.8157"/>
</g>
<!-- Node66&#45;&gt;Node23 -->
<g id="edge138" class="edge">
<title>Node66&#45;&gt;Node23</title>
<path fill="none" stroke="#191970" d="M348.3139,-425.4711C333.5474,-417.045 317.7827,-404.9734 309.5033,-389 291.7095,-354.6708 299.639,-339.3873 309.5033,-302 318.2367,-268.899 323.5841,-259.4913 347.5033,-235 362.8926,-219.2426 384.0852,-206.4782 401.5816,-197.5987"/>
<polygon fill="#191970" stroke="#191970" points="403.4087,-200.6017 410.8612,-193.0711 400.3391,-194.3106 403.4087,-200.6017"/>
</g>
<!-- Node67&#45;&gt;Node4 -->
<g id="edge143" class="edge">
<title>Node67&#45;&gt;Node4</title>
<path fill="none" stroke="#191970" d="M2348.5032,-559.4642C2490.4327,-536.077 2836.7912,-471.7007 2916.5033,-389 2940.965,-363.6211 2935.5033,-347.2487 2935.5033,-312 2935.5033,-312 2935.5033,-312 2935.5033,-183.5 2935.5033,-103.9851 2849.0157,-129.7325 2771.5033,-112 2656.0569,-85.5894 1793.3916,-69.5841 1614.8034,-66.5343"/>
<polygon fill="#191970" stroke="#191970" points="1614.785,-63.0336 1604.7272,-66.3637 1614.6664,-70.0326 1614.785,-63.0336"/>
</g>
<!-- Node67&#45;&gt;Node41 -->
<g id="edge144" class="edge">
<title>Node67&#45;&gt;Node41</title>
<path fill="none" stroke="#191970" d="M2277.9578,-559.3449C2243.4648,-525.1165 2120.6486,-408.8998 1994.5033,-358 1928.8073,-331.4916 1846.0781,-319.7124 1800.514,-314.9238"/>
<polygon fill="#191970" stroke="#191970" points="1800.5986,-311.4149 1790.3,-313.9029 1799.9023,-318.3802 1800.5986,-311.4149"/>
</g>
<!-- Node67&#45;&gt;Node42 -->
<g id="edge140" class="edge">
<title>Node67&#45;&gt;Node42</title>
<path fill="none" stroke="#191970" d="M2286.6765,-559.3416C2284.8848,-538.4114 2280.6125,-488.504 2278.2133,-460.4762"/>
<polygon fill="#191970" stroke="#191970" points="2281.6799,-459.9355 2277.3396,-450.2705 2274.7054,-460.5326 2281.6799,-459.9355"/>
</g>
<!-- Node67&#45;&gt;Node57 -->
<g id="edge141" class="edge">
<title>Node67&#45;&gt;Node57</title>
<path fill="none" stroke="#191970" d="M2245.408,-559.4717C2192.4075,-547.475 2101.3551,-526.8651 2043.9023,-513.8606"/>
<polygon fill="#191970" stroke="#191970" points="2044.4585,-510.398 2033.9325,-511.6039 2042.9131,-517.2253 2044.4585,-510.398"/>
</g>
<!-- Node68 -->
<g id="node50" class="node">
<title>Node68</title>
<polygon fill="none" stroke="#bfbfbf" points="2304.5033,-492.5 2304.5033,-511.5 2362.5033,-511.5 2362.5033,-492.5 2304.5033,-492.5"/>
<text text-anchor="middle" x="2333.5033" y="-499.5" font-family="FreeSans.ttf" font-size="10.00" fill="#000000">memory</text>
</g>
<!-- Node67&#45;&gt;Node68 -->
<g id="edge142" class="edge">
<title>Node67&#45;&gt;Node68</title>
<path fill="none" stroke="#191970" d="M2294.0939,-559.4005C2301.1306,-549.1515 2312.443,-532.6747 2321.1467,-519.9976"/>
<polygon fill="#191970" stroke="#191970" points="2324.1501,-521.8067 2326.9248,-511.5817 2318.3793,-517.8446 2324.1501,-521.8067"/>
</g>
</g>
</svg>
