<?xml version="1.0" encoding="UTF-8" standalone="no"?>
<!DOCTYPE svg PUBLIC "-//W3C//DTD SVG 1.1//EN"
 "http://www.w3.org/Graphics/SVG/1.1/DTD/svg11.dtd">
<!-- Generated by graphviz version 2.40.1 (20161225.0304)
 -->
<!-- Title: ForwardEuler.h Pages: 1 -->
<svg width="956pt" height="375pt"
 viewBox="0.00 0.00 956.00 375.00" xmlns="http://www.w3.org/2000/svg" xmlns:xlink="http://www.w3.org/1999/xlink">
<g id="graph0" class="graph" transform="scale(1 1) rotate(0) translate(4 371)">
<title>ForwardEuler.h</title>
<!-- Node0 -->
<g id="node1" class="node">
<title>Node0</title>
<polygon fill="#bfbfbf" stroke="#000000" points="454.5,-347.5 454.5,-366.5 543.5,-366.5 543.5,-347.5 454.5,-347.5"/>
<text text-anchor="middle" x="499" y="-354.5" font-family="FreeSans.ttf" font-size="10.00" fill="#000000">ForwardEuler.h</text>
</g>
<!-- Node1 -->
<g id="node2" class="node">
<title>Node1</title>
<g id="a_node2"><a xlink:href="FixedStepIntegrator_8h.html" target="_top" xlink:title="iDynTree/Integrators\l/FixedStepIntegrator.h">
<polygon fill="none" stroke="#000000" points="437.5,-280.5 437.5,-310.5 560.5,-310.5 560.5,-280.5 437.5,-280.5"/>
<text text-anchor="start" x="445.5" y="-298.5" font-family="FreeSans.ttf" font-size="10.00" fill="#000000">iDynTree/Integrators</text>
<text text-anchor="middle" x="499" y="-287.5" font-family="FreeSans.ttf" font-size="10.00" fill="#000000">/FixedStepIntegrator.h</text>
</a>
</g>
</g>
<!-- Node0&#45;&gt;Node1 -->
<g id="edge1" class="edge">
<title>Node0&#45;&gt;Node1</title>
<path fill="none" stroke="#191970" d="M499,-347.3906C499,-340.2234 499,-330.0862 499,-320.671"/>
<polygon fill="#191970" stroke="#191970" points="502.5001,-320.5446 499,-310.5446 495.5001,-320.5446 502.5001,-320.5446"/>
</g>
<!-- Node2 -->
<g id="node3" class="node">
<title>Node2</title>
<g id="a_node3"><a xlink:href="Integrator_8h.html" target="_top" xlink:title="iDynTree/Integrator.h">
<polygon fill="none" stroke="#000000" points="550.5,-224.5 550.5,-243.5 669.5,-243.5 669.5,-224.5 550.5,-224.5"/>
<text text-anchor="middle" x="610" y="-231.5" font-family="FreeSans.ttf" font-size="10.00" fill="#000000">iDynTree/Integrator.h</text>
</a>
</g>
</g>
<!-- Node1&#45;&gt;Node2 -->
<g id="edge2" class="edge">
<title>Node1&#45;&gt;Node2</title>
<path fill="none" stroke="#191970" d="M526.1537,-280.4554C543.6995,-270.734 566.4122,-258.15 583.7721,-248.5317"/>
<polygon fill="#191970" stroke="#191970" points="585.748,-251.4383 592.7989,-243.5303 582.3555,-245.3153 585.748,-251.4383"/>
</g>
<!-- Node3 -->
<g id="node4" class="node">
<title>Node3</title>
<g id="a_node4"><a xlink:href="VectorDynSize_8h.html" target="_top" xlink:title="iDynTree/Core/VectorDynSize.h">
<polygon fill="none" stroke="#000000" points="215.5,-168.5 215.5,-187.5 382.5,-187.5 382.5,-168.5 215.5,-168.5"/>
<text text-anchor="middle" x="299" y="-175.5" font-family="FreeSans.ttf" font-size="10.00" fill="#000000">iDynTree/Core/VectorDynSize.h</text>
</a>
</g>
</g>
<!-- Node1&#45;&gt;Node3 -->
<g id="edge34" class="edge">
<title>Node1&#45;&gt;Node3</title>
<path fill="none" stroke="#191970" d="M473.2629,-280.3795C434.7483,-257.7521 362.5635,-215.3435 324.3034,-192.8657"/>
<polygon fill="#191970" stroke="#191970" points="325.7433,-189.6524 315.3483,-187.6046 322.1975,-195.6879 325.7433,-189.6524"/>
</g>
<!-- Node2&#45;&gt;Node3 -->
<g id="edge3" class="edge">
<title>Node2&#45;&gt;Node3</title>
<path fill="none" stroke="#191970" d="M556.8906,-224.4369C502.8826,-214.712 419.2104,-199.6456 361.9136,-189.3285"/>
<polygon fill="#191970" stroke="#191970" points="362.3524,-185.8513 351.8904,-187.5237 361.1118,-192.7405 362.3524,-185.8513"/>
</g>
<!-- Node14 -->
<g id="node15" class="node">
<title>Node14</title>
<polygon fill="none" stroke="#bfbfbf" points="383,-112.5 383,-131.5 427,-131.5 427,-112.5 383,-112.5"/>
<text text-anchor="middle" x="405" y="-119.5" font-family="FreeSans.ttf" font-size="10.00" fill="#000000">string</text>
</g>
<!-- Node2&#45;&gt;Node14 -->
<g id="edge31" class="edge">
<title>Node2&#45;&gt;Node14</title>
<path fill="none" stroke="#191970" d="M550.1146,-225.1242C504.2285,-217.205 445.8452,-204.344 428,-188 415.0222,-176.114 409.367,-156.5125 406.9028,-141.7525"/>
<polygon fill="#191970" stroke="#191970" points="410.3442,-141.0763 405.572,-131.6171 403.4037,-141.9877 410.3442,-141.0763"/>
</g>
<!-- Node15 -->
<g id="node16" class="node">
<title>Node15</title>
<g id="a_node16"><a xlink:href="MatrixDynSize_8h.html" target="_top" xlink:title="iDynTree/Core/MatrixDynSize.h">
<polygon fill="none" stroke="#000000" points="437.5,-168.5 437.5,-187.5 604.5,-187.5 604.5,-168.5 437.5,-168.5"/>
<text text-anchor="middle" x="521" y="-175.5" font-family="FreeSans.ttf" font-size="10.00" fill="#000000">iDynTree/Core/MatrixDynSize.h</text>
</a>
</g>
</g>
<!-- Node2&#45;&gt;Node15 -->
<g id="edge15" class="edge">
<title>Node2&#45;&gt;Node15</title>
<path fill="none" stroke="#191970" d="M594.4974,-224.2455C580.842,-215.6534 560.7343,-203.0014 545.0011,-193.1018"/>
<polygon fill="#191970" stroke="#191970" points="546.6529,-190.006 536.325,-187.6427 542.9249,-195.9307 546.6529,-190.006"/>
</g>
<!-- Node19 -->
<g id="node20" class="node">
<title>Node19</title>
<g id="a_node20"><a xlink:href="SparsityStructure_8h.html" target="_top" xlink:title="iDynTree/SparsityStructure.h">
<polygon fill="none" stroke="#000000" points="622.5,-168.5 622.5,-187.5 777.5,-187.5 777.5,-168.5 622.5,-168.5"/>
<text text-anchor="middle" x="700" y="-175.5" font-family="FreeSans.ttf" font-size="10.00" fill="#000000">iDynTree/SparsityStructure.h</text>
</a>
</g>
</g>
<!-- Node2&#45;&gt;Node19 -->
<g id="edge24" class="edge">
<title>Node2&#45;&gt;Node19</title>
<path fill="none" stroke="#191970" d="M625.6768,-224.2455C639.4856,-215.6534 659.8193,-203.0014 675.7292,-193.1018"/>
<polygon fill="#191970" stroke="#191970" points="677.8613,-195.8974 684.5028,-187.6427 674.1632,-189.954 677.8613,-195.8974"/>
</g>
<!-- Node20 -->
<g id="node21" class="node">
<title>Node20</title>
<polygon fill="none" stroke="#bfbfbf" points="826.5,-112.5 826.5,-131.5 873.5,-131.5 873.5,-112.5 826.5,-112.5"/>
<text text-anchor="middle" x="850" y="-119.5" font-family="FreeSans.ttf" font-size="10.00" fill="#000000">vector</text>
</g>
<!-- Node2&#45;&gt;Node20 -->
<g id="edge30" class="edge">
<title>Node2&#45;&gt;Node20</title>
<path fill="none" stroke="#191970" d="M669.7433,-226.885C705.6362,-220.6299 751.1444,-209.0786 787,-188 807.5816,-175.9006 825.7657,-155.1711 837.2413,-140.1674"/>
<polygon fill="#191970" stroke="#191970" points="840.3698,-141.8214 843.481,-131.6936 834.7331,-137.6707 840.3698,-141.8214"/>
</g>
<!-- Node22 -->
<g id="node23" class="node">
<title>Node22</title>
<polygon fill="none" stroke="#bfbfbf" points="834,-168.5 834,-187.5 892,-187.5 892,-168.5 834,-168.5"/>
<text text-anchor="middle" x="863" y="-175.5" font-family="FreeSans.ttf" font-size="10.00" fill="#000000">memory</text>
</g>
<!-- Node2&#45;&gt;Node22 -->
<g id="edge32" class="edge">
<title>Node2&#45;&gt;Node22</title>
<path fill="none" stroke="#191970" d="M654.2829,-224.4729C696.8081,-215.2831 762.8422,-200.9058 820,-188 821.2616,-187.7151 822.5438,-187.4244 823.8382,-187.1297"/>
<polygon fill="#191970" stroke="#191970" points="824.9035,-190.4763 833.8674,-184.8284 823.3379,-183.6536 824.9035,-190.4763"/>
</g>
<!-- Node23 -->
<g id="node24" class="node">
<title>Node23</title>
<polygon fill="none" stroke="#bfbfbf" points="910,-168.5 910,-187.5 948,-187.5 948,-168.5 910,-168.5"/>
<text text-anchor="middle" x="929" y="-175.5" font-family="FreeSans.ttf" font-size="10.00" fill="#000000">map</text>
</g>
<!-- Node2&#45;&gt;Node23 -->
<g id="edge33" class="edge">
<title>Node2&#45;&gt;Node23</title>
<path fill="none" stroke="#191970" d="M669.7364,-227.8547C726.8291,-221.2412 815.3323,-209.0597 900.086,-187.8559"/>
<polygon fill="#191970" stroke="#191970" points="901.0402,-191.2247 909.8664,-185.3639 899.3119,-184.4414 901.0402,-191.2247"/>
</g>
<!-- Node4 -->
<g id="node5" class="node">
<title>Node4</title>
<g id="a_node5"><a xlink:href="Span_8h.html" target="_top" xlink:title="iDynTree/Core/Span.h">
<polygon fill="none" stroke="#000000" points="245.5,-56.5 245.5,-75.5 366.5,-75.5 366.5,-56.5 245.5,-56.5"/>
<text text-anchor="middle" x="306" y="-63.5" font-family="FreeSans.ttf" font-size="10.00" fill="#000000">iDynTree/Core/Span.h</text>
</a>
</g>
</g>
<!-- Node3&#45;&gt;Node4 -->
<g id="edge4" class="edge">
<title>Node3&#45;&gt;Node4</title>
<path fill="none" stroke="#191970" d="M299.5968,-168.4509C300.7385,-150.184 303.2528,-109.9553 304.7689,-85.6976"/>
<polygon fill="#191970" stroke="#191970" points="308.274,-85.7238 305.4047,-75.5249 301.2876,-85.2871 308.274,-85.7238"/>
</g>
<!-- Node3&#45;&gt;Node14 -->
<g id="edge14" class="edge">
<title>Node3&#45;&gt;Node14</title>
<path fill="none" stroke="#191970" d="M317.4638,-168.2455C334.1074,-159.4527 358.7993,-146.4079 377.7192,-136.4125"/>
<polygon fill="#191970" stroke="#191970" points="379.5408,-139.4086 386.7478,-131.6427 376.2709,-133.2193 379.5408,-139.4086"/>
</g>
<!-- Node5 -->
<g id="node6" class="node">
<title>Node5</title>
<polygon fill="none" stroke="#bfbfbf" points="0,-.5 0,-19.5 52,-19.5 52,-.5 0,-.5"/>
<text text-anchor="middle" x="26" y="-7.5" font-family="FreeSans.ttf" font-size="10.00" fill="#000000">cassert</text>
</g>
<!-- Node4&#45;&gt;Node5 -->
<g id="edge5" class="edge">
<title>Node4&#45;&gt;Node5</title>
<path fill="none" stroke="#191970" d="M246.7674,-56.4625C199.2809,-48.4562 130.7587,-36.0989 62.3884,-20.1738"/>
<polygon fill="#191970" stroke="#191970" points="62.8408,-16.6846 52.3046,-17.7984 61.2357,-23.4981 62.8408,-16.6846"/>
</g>
<!-- Node6 -->
<g id="node7" class="node">
<title>Node6</title>
<polygon fill="none" stroke="#bfbfbf" points="70,-.5 70,-19.5 134,-19.5 134,-.5 70,-.5"/>
<text text-anchor="middle" x="102" y="-7.5" font-family="FreeSans.ttf" font-size="10.00" fill="#000000">algorithm</text>
</g>
<!-- Node4&#45;&gt;Node6 -->
<g id="edge6" class="edge">
<title>Node4&#45;&gt;Node6</title>
<path fill="none" stroke="#191970" d="M270.9311,-56.3733C235.8396,-46.7403 181.825,-31.9128 144.3592,-21.628"/>
<polygon fill="#191970" stroke="#191970" points="144.83,-18.1278 134.2602,-18.8557 142.9769,-24.8781 144.83,-18.1278"/>
</g>
<!-- Node7 -->
<g id="node8" class="node">
<title>Node7</title>
<polygon fill="none" stroke="#bfbfbf" points="152,-.5 152,-19.5 194,-19.5 194,-.5 152,-.5"/>
<text text-anchor="middle" x="173" y="-7.5" font-family="FreeSans.ttf" font-size="10.00" fill="#000000">array</text>
</g>
<!-- Node4&#45;&gt;Node7 -->
<g id="edge7" class="edge">
<title>Node4&#45;&gt;Node7</title>
<path fill="none" stroke="#191970" d="M283.1365,-56.3733C261.2034,-47.1383 227.9316,-33.1291 203.6976,-22.9253"/>
<polygon fill="#191970" stroke="#191970" points="204.8235,-19.6018 194.2489,-18.9469 202.1071,-26.0533 204.8235,-19.6018"/>
</g>
<!-- Node8 -->
<g id="node9" class="node">
<title>Node8</title>
<polygon fill="none" stroke="#bfbfbf" points="579.5,-.5 579.5,-19.5 632.5,-19.5 632.5,-.5 579.5,-.5"/>
<text text-anchor="middle" x="606" y="-7.5" font-family="FreeSans.ttf" font-size="10.00" fill="#000000">cstddef</text>
</g>
<!-- Node4&#45;&gt;Node8 -->
<g id="edge8" class="edge">
<title>Node4&#45;&gt;Node8</title>
<path fill="none" stroke="#191970" d="M366.625,-57.174C418.0434,-49.2938 493.9248,-36.7396 569.2039,-20.0009"/>
<polygon fill="#191970" stroke="#191970" points="570.3498,-23.3307 579.3377,-17.7211 568.8133,-16.5014 570.3498,-23.3307"/>
</g>
<!-- Node9 -->
<g id="node10" class="node">
<title>Node9</title>
<polygon fill="none" stroke="#bfbfbf" points="212.5,-.5 212.5,-19.5 265.5,-19.5 265.5,-.5 212.5,-.5"/>
<text text-anchor="middle" x="239" y="-7.5" font-family="FreeSans.ttf" font-size="10.00" fill="#000000">iterator</text>
</g>
<!-- Node4&#45;&gt;Node9 -->
<g id="edge9" class="edge">
<title>Node4&#45;&gt;Node9</title>
<path fill="none" stroke="#191970" d="M294.3295,-56.2455C284.4339,-47.9746 270.0373,-35.9416 258.4099,-26.2232"/>
<polygon fill="#191970" stroke="#191970" points="260.4542,-23.3703 250.5368,-19.6427 255.965,-28.7413 260.4542,-23.3703"/>
</g>
<!-- Node10 -->
<g id="node11" class="node">
<title>Node10</title>
<polygon fill="none" stroke="#bfbfbf" points="284,-.5 284,-19.5 328,-19.5 328,-.5 284,-.5"/>
<text text-anchor="middle" x="306" y="-7.5" font-family="FreeSans.ttf" font-size="10.00" fill="#000000">limits</text>
</g>
<!-- Node4&#45;&gt;Node10 -->
<g id="edge10" class="edge">
<title>Node4&#45;&gt;Node10</title>
<path fill="none" stroke="#191970" d="M306,-56.2455C306,-48.9382 306,-38.6944 306,-29.7046"/>
<polygon fill="#191970" stroke="#191970" points="309.5001,-29.6426 306,-19.6427 302.5001,-29.6427 309.5001,-29.6426"/>
</g>
<!-- Node11 -->
<g id="node12" class="node">
<title>Node11</title>
<polygon fill="none" stroke="#bfbfbf" points="346.5,-.5 346.5,-19.5 411.5,-19.5 411.5,-.5 346.5,-.5"/>
<text text-anchor="middle" x="379" y="-7.5" font-family="FreeSans.ttf" font-size="10.00" fill="#000000">stdexcept</text>
</g>
<!-- Node4&#45;&gt;Node11 -->
<g id="edge11" class="edge">
<title>Node4&#45;&gt;Node11</title>
<path fill="none" stroke="#191970" d="M318.7156,-56.2455C329.602,-47.8943 345.4883,-35.7076 358.22,-25.9408"/>
<polygon fill="#191970" stroke="#191970" points="360.6261,-28.5063 366.4301,-19.6427 356.3654,-22.9523 360.6261,-28.5063"/>
</g>
<!-- Node12 -->
<g id="node13" class="node">
<title>Node12</title>
<polygon fill="none" stroke="#bfbfbf" points="492.5,-.5 492.5,-19.5 561.5,-19.5 561.5,-.5 492.5,-.5"/>
<text text-anchor="middle" x="527" y="-7.5" font-family="FreeSans.ttf" font-size="10.00" fill="#000000">type_traits</text>
</g>
<!-- Node4&#45;&gt;Node12 -->
<g id="edge12" class="edge">
<title>Node4&#45;&gt;Node12</title>
<path fill="none" stroke="#191970" d="M343.7401,-56.4369C382.154,-46.7031 441.6861,-31.618 482.4048,-21.3001"/>
<polygon fill="#191970" stroke="#191970" points="483.4934,-24.635 492.3273,-18.7858 481.774,-17.8494 483.4934,-24.635"/>
</g>
<!-- Node13 -->
<g id="node14" class="node">
<title>Node13</title>
<polygon fill="none" stroke="#bfbfbf" points="429.5,-.5 429.5,-19.5 474.5,-19.5 474.5,-.5 429.5,-.5"/>
<text text-anchor="middle" x="452" y="-7.5" font-family="FreeSans.ttf" font-size="10.00" fill="#000000">utility</text>
</g>
<!-- Node4&#45;&gt;Node13 -->
<g id="edge13" class="edge">
<title>Node4&#45;&gt;Node13</title>
<path fill="none" stroke="#191970" d="M331.0983,-56.3733C355.5338,-47.0007 392.7899,-32.7107 419.4838,-22.472"/>
<polygon fill="#191970" stroke="#191970" points="421.0653,-25.614 429.1486,-18.7649 418.5584,-19.0783 421.0653,-25.614"/>
</g>
<!-- Node15&#45;&gt;Node14 -->
<g id="edge16" class="edge">
<title>Node15&#45;&gt;Node14</title>
<path fill="none" stroke="#191970" d="M501.0589,-168.3733C482.5214,-159.4241 454.6972,-145.9917 433.7587,-135.8835"/>
<polygon fill="#191970" stroke="#191970" points="435.2081,-132.6967 424.6809,-131.5011 432.1648,-139.0006 435.2081,-132.6967"/>
</g>
<!-- Node16 -->
<g id="node17" class="node">
<title>Node16</title>
<g id="a_node17"><a xlink:href="MatrixView_8h.html" target="_top" xlink:title="iDynTree/Core/MatrixView.h">
<polygon fill="none" stroke="#000000" points="445.5,-112.5 445.5,-131.5 596.5,-131.5 596.5,-112.5 445.5,-112.5"/>
<text text-anchor="middle" x="521" y="-119.5" font-family="FreeSans.ttf" font-size="10.00" fill="#000000">iDynTree/Core/MatrixView.h</text>
</a>
</g>
</g>
<!-- Node15&#45;&gt;Node16 -->
<g id="edge17" class="edge">
<title>Node15&#45;&gt;Node16</title>
<path fill="none" stroke="#191970" d="M521,-168.2455C521,-160.9382 521,-150.6944 521,-141.7046"/>
<polygon fill="#191970" stroke="#191970" points="524.5001,-141.6426 521,-131.6427 517.5001,-141.6427 524.5001,-141.6426"/>
</g>
<!-- Node16&#45;&gt;Node4 -->
<g id="edge20" class="edge">
<title>Node16&#45;&gt;Node4</title>
<path fill="none" stroke="#191970" d="M484.0402,-112.3733C447.5925,-102.8799 391.7754,-88.3415 352.3711,-78.0781"/>
<polygon fill="#191970" stroke="#191970" points="353.0369,-74.6348 342.4775,-75.5011 351.2724,-81.4087 353.0369,-74.6348"/>
</g>
<!-- Node16&#45;&gt;Node5 -->
<g id="edge18" class="edge">
<title>Node16&#45;&gt;Node5</title>
<path fill="none" stroke="#191970" d="M445.4093,-112.8295C387.6306,-105.091 306.2341,-92.6129 236,-76 173.813,-61.2905 103.2701,-37.6387 61.8183,-23.0019"/>
<polygon fill="#191970" stroke="#191970" points="62.7739,-19.6271 52.1792,-19.5754 60.4292,-26.2228 62.7739,-19.6271"/>
</g>
<!-- Node16&#45;&gt;Node12 -->
<g id="edge19" class="edge">
<title>Node16&#45;&gt;Node12</title>
<path fill="none" stroke="#191970" d="M521.5116,-112.4509C522.4901,-94.184 524.6453,-53.9553 525.9448,-29.6976"/>
<polygon fill="#191970" stroke="#191970" points="529.4497,-29.6978 526.4897,-19.5249 522.4597,-29.3233 529.4497,-29.6978"/>
</g>
<!-- Node17 -->
<g id="node18" class="node">
<title>Node17</title>
<g id="a_node18"><a xlink:href="Utils_8h.html" target="_top" xlink:title="iDynTree/Core/Utils.h">
<polygon fill="none" stroke="#000000" points="546.5,-56.5 546.5,-75.5 665.5,-75.5 665.5,-56.5 546.5,-56.5"/>
<text text-anchor="middle" x="606" y="-63.5" font-family="FreeSans.ttf" font-size="10.00" fill="#000000">iDynTree/Core/Utils.h</text>
</a>
</g>
</g>
<!-- Node16&#45;&gt;Node17 -->
<g id="edge21" class="edge">
<title>Node16&#45;&gt;Node17</title>
<path fill="none" stroke="#191970" d="M535.8059,-112.2455C548.7256,-103.7337 567.6931,-91.2375 582.6552,-81.3801"/>
<polygon fill="#191970" stroke="#191970" points="584.9387,-84.067 591.3638,-75.6427 581.0876,-78.2216 584.9387,-84.067"/>
</g>
<!-- Node17&#45;&gt;Node8 -->
<g id="edge22" class="edge">
<title>Node17&#45;&gt;Node8</title>
<path fill="none" stroke="#191970" d="M606,-56.2455C606,-48.9382 606,-38.6944 606,-29.7046"/>
<polygon fill="#191970" stroke="#191970" points="609.5001,-29.6426 606,-19.6427 602.5001,-29.6427 609.5001,-29.6426"/>
</g>
<!-- Node18 -->
<g id="node19" class="node">
<title>Node18</title>
<polygon fill="none" stroke="#bfbfbf" points="651,-.5 651,-19.5 731,-19.5 731,-.5 651,-.5"/>
<text text-anchor="middle" x="691" y="-7.5" font-family="FreeSans.ttf" font-size="10.00" fill="#000000">CoreExport.h</text>
</g>
<!-- Node17&#45;&gt;Node18 -->
<g id="edge23" class="edge">
<title>Node17&#45;&gt;Node18</title>
<path fill="none" stroke="#191970" d="M620.8059,-56.2455C633.7256,-47.7337 652.6931,-35.2375 667.6552,-25.3801"/>
<polygon fill="#191970" stroke="#191970" points="669.9387,-28.067 676.3638,-19.6427 666.0876,-22.2216 669.9387,-28.067"/>
</g>
<!-- Node19&#45;&gt;Node8 -->
<g id="edge27" class="edge">
<title>Node19&#45;&gt;Node8</title>
<path fill="none" stroke="#191970" d="M700.2867,-168.1965C700.459,-146.1768 698.2054,-91.9175 674,-56 664.9394,-42.5553 650.5051,-31.9765 637.2615,-24.3713"/>
<polygon fill="#191970" stroke="#191970" points="638.8282,-21.2398 628.3638,-19.5825 635.5107,-27.4037 638.8282,-21.2398"/>
</g>
<!-- Node19&#45;&gt;Node14 -->
<g id="edge29" class="edge">
<title>Node19&#45;&gt;Node14</title>
<path fill="none" stroke="#191970" d="M629.688,-168.4782C578.5813,-160.9299 507.642,-149.1613 437.1811,-132.0377"/>
<polygon fill="#191970" stroke="#191970" points="437.7914,-128.5834 427.2441,-129.5858 436.1145,-135.3796 437.7914,-128.5834"/>
</g>
<!-- Node19&#45;&gt;Node17 -->
<g id="edge25" class="edge">
<title>Node19&#45;&gt;Node17</title>
<path fill="none" stroke="#191970" d="M691.9856,-168.4509C676.1688,-149.6054 640.7337,-107.3849 620.6387,-83.4419"/>
<polygon fill="#191970" stroke="#191970" points="623.1038,-80.9346 613.9941,-75.5249 617.7419,-85.4347 623.1038,-80.9346"/>
</g>
<!-- Node19&#45;&gt;Node20 -->
<g id="edge26" class="edge">
<title>Node19&#45;&gt;Node20</title>
<path fill="none" stroke="#191970" d="M725.7859,-168.3733C750.8523,-159.0151 789.05,-144.7547 816.4664,-134.5192"/>
<polygon fill="#191970" stroke="#191970" points="817.8908,-137.7235 826.035,-130.9469 815.4425,-131.1656 817.8908,-137.7235"/>
</g>
<!-- Node21 -->
<g id="node22" class="node">
<title>Node21</title>
<polygon fill="none" stroke="#bfbfbf" points="722,-112.5 722,-131.5 808,-131.5 808,-112.5 722,-112.5"/>
<text text-anchor="middle" x="765" y="-119.5" font-family="FreeSans.ttf" font-size="10.00" fill="#000000">unordered_set</text>
</g>
<!-- Node19&#45;&gt;Node21 -->
<g id="edge28" class="edge">
<title>Node19&#45;&gt;Node21</title>
<path fill="none" stroke="#191970" d="M711.3221,-168.2455C720.9223,-159.9746 734.8892,-147.9416 746.1695,-138.2232"/>
<polygon fill="#191970" stroke="#191970" points="748.516,-140.8214 753.8076,-131.6427 743.947,-135.5182 748.516,-140.8214"/>
</g>
</g>
</svg>
