<?xml version="1.0" encoding="UTF-8" standalone="no"?>
<!DOCTYPE svg PUBLIC "-//W3C//DTD SVG 1.1//EN"
 "http://www.w3.org/Graphics/SVG/1.1/DTD/svg11.dtd">
<!-- Generated by graphviz version 2.40.1 (20161225.0304)
 -->
<!-- Title: FreeFloatingState.h Pages: 1 -->
<svg width="1351pt" height="666pt"
 viewBox="0.00 0.00 1350.50 666.00" xmlns="http://www.w3.org/2000/svg" xmlns:xlink="http://www.w3.org/1999/xlink">
<g id="graph0" class="graph" transform="scale(1 1) rotate(0) translate(4 662)">
<title>FreeFloatingState.h</title>
<!-- Node0 -->
<g id="node1" class="node">
<title>Node0</title>
<polygon fill="#bfbfbf" stroke="#000000" points="709,-638.5 709,-657.5 819,-657.5 819,-638.5 709,-638.5"/>
<text text-anchor="middle" x="764" y="-645.5" font-family="FreeSans.ttf" font-size="10.00" fill="#000000">FreeFloatingState.h</text>
</g>
<!-- Node1 -->
<g id="node2" class="node">
<title>Node1</title>
<g id="a_node2"><a xlink:href="Transform_8h.html" target="_top" xlink:title="iDynTree/Core/Transform.h">
<polygon fill="none" stroke="#000000" points="435,-403.5 435,-422.5 581,-422.5 581,-403.5 435,-403.5"/>
<text text-anchor="middle" x="508" y="-410.5" font-family="FreeSans.ttf" font-size="10.00" fill="#000000">iDynTree/Core/Transform.h</text>
</a>
</g>
</g>
<!-- Node0&#45;&gt;Node1 -->
<g id="edge1" class="edge">
<title>Node0&#45;&gt;Node1</title>
<path fill="none" stroke="#191970" d="M708.8069,-640.5578C655.1604,-632.5186 578.2025,-618.6057 553,-602 507.1722,-571.8046 506.7818,-544.5758 501,-490 498.9517,-470.6656 501.4621,-448.5602 504.0284,-433.0089"/>
<polygon fill="#191970" stroke="#191970" points="507.5071,-433.44 505.8425,-422.9768 500.6188,-432.1944 507.5071,-433.44"/>
</g>
<!-- Node26 -->
<g id="node27" class="node">
<title>Node26</title>
<g id="a_node27"><a xlink:href="Twist_8h.html" target="_top" xlink:title="iDynTree/Core/Twist.h">
<polygon fill="none" stroke="#000000" points="703,-526.5 703,-545.5 825,-545.5 825,-526.5 703,-526.5"/>
<text text-anchor="middle" x="764" y="-533.5" font-family="FreeSans.ttf" font-size="10.00" fill="#000000">iDynTree/Core/Twist.h</text>
</a>
</g>
</g>
<!-- Node0&#45;&gt;Node26 -->
<g id="edge46" class="edge">
<title>Node0&#45;&gt;Node26</title>
<path fill="none" stroke="#191970" d="M764,-638.4509C764,-620.184 764,-579.9553 764,-555.6976"/>
<polygon fill="#191970" stroke="#191970" points="767.5001,-555.5249 764,-545.5249 760.5001,-555.5249 767.5001,-555.5249"/>
</g>
<!-- Node29 -->
<g id="node30" class="node">
<title>Node29</title>
<g id="a_node30"><a xlink:href="VectorDynSize_8h.html" target="_top" xlink:title="iDynTree/Core/VectorDynSize.h">
<polygon fill="none" stroke="#000000" points="1175.5,-347.5 1175.5,-366.5 1342.5,-366.5 1342.5,-347.5 1175.5,-347.5"/>
<text text-anchor="middle" x="1259" y="-354.5" font-family="FreeSans.ttf" font-size="10.00" fill="#000000">iDynTree/Core/VectorDynSize.h</text>
</a>
</g>
</g>
<!-- Node0&#45;&gt;Node29 -->
<g id="edge57" class="edge">
<title>Node0&#45;&gt;Node29</title>
<path fill="none" stroke="#191970" d="M819.0683,-646.5802C944.3662,-641.8569 1240,-621.6385 1240,-536 1240,-536 1240,-536 1240,-474.5 1240,-439.6936 1248.2253,-399.8226 1253.8521,-376.6197"/>
<polygon fill="#191970" stroke="#191970" points="1257.3113,-377.2152 1256.3581,-366.6633 1250.523,-375.5065 1257.3113,-377.2152"/>
</g>
<!-- Node30 -->
<g id="node31" class="node">
<title>Node30</title>
<g id="a_node31"><a xlink:href="Indices_8h.html" target="_top" xlink:title="iDynTree/Model/Indices.h">
<polygon fill="none" stroke="#000000" points="175,-526.5 175,-545.5 313,-545.5 313,-526.5 175,-526.5"/>
<text text-anchor="middle" x="244" y="-533.5" font-family="FreeSans.ttf" font-size="10.00" fill="#000000">iDynTree/Model/Indices.h</text>
</a>
</g>
</g>
<!-- Node0&#45;&gt;Node30 -->
<g id="edge60" class="edge">
<title>Node0&#45;&gt;Node30</title>
<path fill="none" stroke="#191970" d="M708.8248,-646.0286C607.2559,-641.7716 394.8709,-629.7667 327,-602 300.3015,-591.0773 275.1919,-568.8005 259.7279,-553.1603"/>
<polygon fill="#191970" stroke="#191970" points="262.0085,-550.4814 252.5632,-545.6816 256.9538,-555.3239 262.0085,-550.4814"/>
</g>
<!-- Node32 -->
<g id="node33" class="node">
<title>Node32</title>
<g id="a_node33"><a xlink:href="LinkState_8h.html" target="_top" xlink:title="iDynTree/Model/LinkState.h">
<polygon fill="none" stroke="#000000" points="562.5,-582.5 562.5,-601.5 711.5,-601.5 711.5,-582.5 562.5,-582.5"/>
<text text-anchor="middle" x="637" y="-589.5" font-family="FreeSans.ttf" font-size="10.00" fill="#000000">iDynTree/Model/LinkState.h</text>
</a>
</g>
</g>
<!-- Node0&#45;&gt;Node32 -->
<g id="edge63" class="edge">
<title>Node0&#45;&gt;Node32</title>
<path fill="none" stroke="#191970" d="M742.1679,-638.3733C721.6897,-629.3435 690.8601,-615.7494 667.8681,-605.6111"/>
<polygon fill="#191970" stroke="#191970" points="669.1093,-602.3333 658.5472,-601.5011 666.285,-608.7383 669.1093,-602.3333"/>
</g>
<!-- Node37 -->
<g id="node38" class="node">
<title>Node37</title>
<polygon fill="none" stroke="#bfbfbf" points="994.5,-526.5 994.5,-545.5 1041.5,-545.5 1041.5,-526.5 994.5,-526.5"/>
<text text-anchor="middle" x="1018" y="-533.5" font-family="FreeSans.ttf" font-size="10.00" fill="#000000">vector</text>
</g>
<!-- Node0&#45;&gt;Node37 -->
<g id="edge83" class="edge">
<title>Node0&#45;&gt;Node37</title>
<path fill="none" stroke="#191970" d="M785.6559,-638.4509C830.7381,-618.5722 934.8033,-572.6852 986.9858,-549.6756"/>
<polygon fill="#191970" stroke="#191970" points="988.6611,-552.7621 996.3989,-545.5249 985.8368,-546.3571 988.6611,-552.7621"/>
</g>
<!-- Node38 -->
<g id="node39" class="node">
<title>Node38</title>
<g id="a_node39"><a xlink:href="JointState_8h.html" target="_top" xlink:title="iDynTree/Model/JointState.h">
<polygon fill="none" stroke="#000000" points="994.5,-582.5 994.5,-601.5 1145.5,-601.5 1145.5,-582.5 994.5,-582.5"/>
<text text-anchor="middle" x="1070" y="-589.5" font-family="FreeSans.ttf" font-size="10.00" fill="#000000">iDynTree/Model/JointState.h</text>
</a>
</g>
</g>
<!-- Node0&#45;&gt;Node38 -->
<g id="edge78" class="edge">
<title>Node0&#45;&gt;Node38</title>
<path fill="none" stroke="#191970" d="M816.2556,-638.4369C869.3953,-628.712 951.7222,-613.6456 1008.0979,-603.3285"/>
<polygon fill="#191970" stroke="#191970" points="1008.7534,-606.7667 1017.9599,-601.5237 1007.4932,-599.8811 1008.7534,-606.7667"/>
</g>
<!-- Node2 -->
<g id="node3" class="node">
<title>Node2</title>
<g id="a_node3"><a xlink:href="Position_8h.html" target="_top" xlink:title="iDynTree/Core/Position.h">
<polygon fill="none" stroke="#000000" points="439,-347.5 439,-366.5 575,-366.5 575,-347.5 439,-347.5"/>
<text text-anchor="middle" x="507" y="-354.5" font-family="FreeSans.ttf" font-size="10.00" fill="#000000">iDynTree/Core/Position.h</text>
</a>
</g>
</g>
<!-- Node1&#45;&gt;Node2 -->
<g id="edge2" class="edge">
<title>Node1&#45;&gt;Node2</title>
<path fill="none" stroke="#191970" d="M507.8258,-403.2455C507.6953,-395.9382 507.5124,-385.6944 507.3519,-376.7046"/>
<polygon fill="#191970" stroke="#191970" points="510.8503,-376.5786 507.1722,-366.6427 503.8514,-376.7036 510.8503,-376.5786"/>
</g>
<!-- Node17 -->
<g id="node18" class="node">
<title>Node17</title>
<polygon fill="none" stroke="#bfbfbf" points="305,-112.5 305,-131.5 349,-131.5 349,-112.5 305,-112.5"/>
<text text-anchor="middle" x="327" y="-119.5" font-family="FreeSans.ttf" font-size="10.00" fill="#000000">string</text>
</g>
<!-- Node1&#45;&gt;Node17 -->
<g id="edge45" class="edge">
<title>Node1&#45;&gt;Node17</title>
<path fill="none" stroke="#191970" d="M459.9867,-403.4241C353.8881,-381.1877 105.0566,-322.7561 57,-255 -5.6904,-166.6113 210.3694,-134.1479 294.699,-125.0052"/>
<polygon fill="#191970" stroke="#191970" points="295.1804,-128.4741 304.7643,-123.9575 294.4556,-121.5117 295.1804,-128.4741"/>
</g>
<!-- Node20 -->
<g id="node21" class="node">
<title>Node20</title>
<g id="a_node21"><a xlink:href="Rotation_8h.html" target="_top" xlink:title="iDynTree/Core/Rotation.h">
<polygon fill="none" stroke="#000000" points="534.5,-291.5 534.5,-310.5 671.5,-310.5 671.5,-291.5 534.5,-291.5"/>
<text text-anchor="middle" x="603" y="-298.5" font-family="FreeSans.ttf" font-size="10.00" fill="#000000">iDynTree/Core/Rotation.h</text>
</a>
</g>
</g>
<!-- Node1&#45;&gt;Node20 -->
<g id="edge43" class="edge">
<title>Node1&#45;&gt;Node20</title>
<path fill="none" stroke="#191970" d="M533.3092,-403.4616C549.9877,-395.9465 571.0616,-383.8997 584,-367 594.1805,-353.7025 598.9093,-335.1294 601.104,-321.0724"/>
<polygon fill="#191970" stroke="#191970" points="604.6013,-321.3127 602.3766,-310.9541 597.656,-320.4392 604.6013,-321.3127"/>
</g>
<!-- Node23 -->
<g id="node24" class="node">
<title>Node23</title>
<g id="a_node24"><a xlink:href="MatrixFixSize_8h.html" target="_top" xlink:title="iDynTree/Core/MatrixFixSize.h">
<polygon fill="none" stroke="#000000" points="623.5,-168.5 623.5,-187.5 784.5,-187.5 784.5,-168.5 623.5,-168.5"/>
<text text-anchor="middle" x="704" y="-175.5" font-family="FreeSans.ttf" font-size="10.00" fill="#000000">iDynTree/Core/MatrixFixSize.h</text>
</a>
</g>
</g>
<!-- Node1&#45;&gt;Node23 -->
<g id="edge44" class="edge">
<title>Node1&#45;&gt;Node23</title>
<path fill="none" stroke="#191970" d="M541.9122,-403.3975C582.4111,-389.9713 648.609,-361.3879 680,-311 702.0373,-275.6264 705.0477,-225.3111 704.8255,-197.8184"/>
<polygon fill="#191970" stroke="#191970" points="708.3179,-197.4561 704.5784,-187.5432 701.3199,-197.6244 708.3179,-197.4561"/>
</g>
<!-- Node3 -->
<g id="node4" class="node">
<title>Node3</title>
<g id="a_node4"><a xlink:href="PositionRaw_8h.html" target="_top" xlink:title="iDynTree/Core/PositionRaw.h">
<polygon fill="none" stroke="#000000" points="478,-230 478,-249 634,-249 634,-230 478,-230"/>
<text text-anchor="middle" x="556" y="-237" font-family="FreeSans.ttf" font-size="10.00" fill="#000000">iDynTree/Core/PositionRaw.h</text>
</a>
</g>
</g>
<!-- Node2&#45;&gt;Node3 -->
<g id="edge3" class="edge">
<title>Node2&#45;&gt;Node3</title>
<path fill="none" stroke="#191970" d="M508.7672,-347.3232C511.3559,-334.2078 516.782,-310.22 525,-291 529.9233,-279.4854 537.0426,-267.4498 543.2173,-257.9117"/>
<polygon fill="#191970" stroke="#191970" points="546.3141,-259.5769 548.9608,-249.318 540.4942,-255.6873 546.3141,-259.5769"/>
</g>
<!-- Node2&#45;&gt;Node17 -->
<g id="edge42" class="edge">
<title>Node2&#45;&gt;Node17</title>
<path fill="none" stroke="#191970" d="M441.3596,-347.474C387.2733,-335.787 313.848,-310.2105 278,-255 269.6287,-242.1071 280.8022,-177.1011 285,-168 290.1486,-156.8375 299.0058,-146.5185 307.263,-138.4947"/>
<polygon fill="#191970" stroke="#191970" points="309.8371,-140.8836 314.8552,-131.5525 305.1135,-135.7176 309.8371,-140.8836"/>
</g>
<!-- Node2&#45;&gt;Node20 -->
<g id="edge23" class="edge">
<title>Node2&#45;&gt;Node20</title>
<path fill="none" stroke="#191970" d="M523.7219,-347.2455C538.5889,-338.5731 560.5466,-325.7645 577.5858,-315.825"/>
<polygon fill="#191970" stroke="#191970" points="579.5955,-318.7047 586.4697,-310.6427 576.0683,-312.6582 579.5955,-318.7047"/>
</g>
<!-- Node4 -->
<g id="node5" class="node">
<title>Node4</title>
<g id="a_node5"><a xlink:href="VectorFixSize_8h.html" target="_top" xlink:title="iDynTree/Core/VectorFixSize.h">
<polygon fill="none" stroke="#000000" points="802.5,-168.5 802.5,-187.5 963.5,-187.5 963.5,-168.5 802.5,-168.5"/>
<text text-anchor="middle" x="883" y="-175.5" font-family="FreeSans.ttf" font-size="10.00" fill="#000000">iDynTree/Core/VectorFixSize.h</text>
</a>
</g>
</g>
<!-- Node3&#45;&gt;Node4 -->
<g id="edge4" class="edge">
<title>Node3&#45;&gt;Node4</title>
<path fill="none" stroke="#191970" d="M606.735,-229.9581C664.9363,-219.012 760.3073,-201.0752 822.3715,-189.4026"/>
<polygon fill="#191970" stroke="#191970" points="823.2343,-192.8018 832.4151,-187.5137 821.9404,-185.9224 823.2343,-192.8018"/>
</g>
<!-- Node3&#45;&gt;Node17 -->
<g id="edge22" class="edge">
<title>Node3&#45;&gt;Node17</title>
<path fill="none" stroke="#191970" d="M537.26,-229.8845C496.9861,-209.2199 402.0119,-160.4886 354.7361,-136.2314"/>
<polygon fill="#191970" stroke="#191970" points="356.1728,-133.0348 345.6778,-131.5836 352.9772,-139.2628 356.1728,-133.0348"/>
</g>
<!-- Node5 -->
<g id="node6" class="node">
<title>Node5</title>
<g id="a_node6"><a xlink:href="Utils_8h.html" target="_top" xlink:title="iDynTree/Core/Utils.h">
<polygon fill="none" stroke="#000000" points="753.5,-56.5 753.5,-75.5 872.5,-75.5 872.5,-56.5 753.5,-56.5"/>
<text text-anchor="middle" x="813" y="-63.5" font-family="FreeSans.ttf" font-size="10.00" fill="#000000">iDynTree/Core/Utils.h</text>
</a>
</g>
</g>
<!-- Node4&#45;&gt;Node5 -->
<g id="edge5" class="edge">
<title>Node4&#45;&gt;Node5</title>
<path fill="none" stroke="#191970" d="M881.9161,-168.365C880.0405,-154.8759 875.2488,-129.998 864,-112 856.693,-100.3089 845.5828,-89.7947 835.5954,-81.7793"/>
<polygon fill="#191970" stroke="#191970" points="837.6517,-78.9458 827.5782,-75.6631 833.4059,-84.5112 837.6517,-78.9458"/>
</g>
<!-- Node8 -->
<g id="node9" class="node">
<title>Node8</title>
<g id="a_node9"><a xlink:href="Span_8h.html" target="_top" xlink:title="iDynTree/Core/Span.h">
<polygon fill="none" stroke="#000000" points="938.5,-56.5 938.5,-75.5 1059.5,-75.5 1059.5,-56.5 938.5,-56.5"/>
<text text-anchor="middle" x="999" y="-63.5" font-family="FreeSans.ttf" font-size="10.00" fill="#000000">iDynTree/Core/Span.h</text>
</a>
</g>
</g>
<!-- Node4&#45;&gt;Node8 -->
<g id="edge8" class="edge">
<title>Node4&#45;&gt;Node8</title>
<path fill="none" stroke="#191970" d="M920.3954,-168.4732C940.6841,-161.5026 964.6764,-150.0407 980,-132 990.9636,-119.0924 995.6102,-100.1916 997.5746,-85.9209"/>
<polygon fill="#191970" stroke="#191970" points="1001.0872,-85.9811 998.6443,-75.6717 994.1251,-85.2543 1001.0872,-85.9811"/>
</g>
<!-- Node9 -->
<g id="node10" class="node">
<title>Node9</title>
<polygon fill="none" stroke="#bfbfbf" points="555,-.5 555,-19.5 607,-19.5 607,-.5 555,-.5"/>
<text text-anchor="middle" x="581" y="-7.5" font-family="FreeSans.ttf" font-size="10.00" fill="#000000">cassert</text>
</g>
<!-- Node4&#45;&gt;Node9 -->
<g id="edge20" class="edge">
<title>Node4&#45;&gt;Node9</title>
<path fill="none" stroke="#191970" d="M806.4944,-168.483C721.5632,-157.5597 595.3568,-140.1104 588,-132 562.6941,-104.1018 569.1214,-56.2221 575.4383,-29.4936"/>
<polygon fill="#191970" stroke="#191970" points="578.8407,-30.316 577.9597,-19.7579 572.0642,-28.561 578.8407,-30.316"/>
</g>
<!-- Node4&#45;&gt;Node17 -->
<g id="edge18" class="edge">
<title>Node4&#45;&gt;Node17</title>
<path fill="none" stroke="#191970" d="M802.052,-168.9584C798.9962,-168.6321 795.9707,-168.3117 793,-168 630.3985,-150.9418 435.6832,-132.2964 359.6584,-125.0848"/>
<polygon fill="#191970" stroke="#191970" points="359.6063,-121.5643 349.3208,-124.1054 358.946,-128.5331 359.6063,-121.5643"/>
</g>
<!-- Node18 -->
<g id="node19" class="node">
<title>Node18</title>
<polygon fill="none" stroke="#bfbfbf" points="1027,-112.5 1027,-131.5 1083,-131.5 1083,-112.5 1027,-112.5"/>
<text text-anchor="middle" x="1055" y="-119.5" font-family="FreeSans.ttf" font-size="10.00" fill="#000000">sstream</text>
</g>
<!-- Node4&#45;&gt;Node18 -->
<g id="edge19" class="edge">
<title>Node4&#45;&gt;Node18</title>
<path fill="none" stroke="#191970" d="M912.5679,-168.3733C941.5155,-158.9484 985.7358,-144.5511 1017.2184,-134.301"/>
<polygon fill="#191970" stroke="#191970" points="1018.5318,-137.5543 1026.9569,-131.1303 1016.3646,-130.8982 1018.5318,-137.5543"/>
</g>
<!-- Node19 -->
<g id="node20" class="node">
<title>Node19</title>
<polygon fill="none" stroke="#bfbfbf" points="805,-112.5 805,-131.5 855,-131.5 855,-112.5 805,-112.5"/>
<text text-anchor="middle" x="830" y="-119.5" font-family="FreeSans.ttf" font-size="10.00" fill="#000000">cstring</text>
</g>
<!-- Node4&#45;&gt;Node19 -->
<g id="edge21" class="edge">
<title>Node4&#45;&gt;Node19</title>
<path fill="none" stroke="#191970" d="M873.7681,-168.2455C866.1683,-160.2155 855.2123,-148.6394 846.1632,-139.0781"/>
<polygon fill="#191970" stroke="#191970" points="848.542,-136.4998 839.1261,-131.6427 843.4579,-141.3115 848.542,-136.4998"/>
</g>
<!-- Node6 -->
<g id="node7" class="node">
<title>Node6</title>
<polygon fill="none" stroke="#bfbfbf" points="822.5,-.5 822.5,-19.5 875.5,-19.5 875.5,-.5 822.5,-.5"/>
<text text-anchor="middle" x="849" y="-7.5" font-family="FreeSans.ttf" font-size="10.00" fill="#000000">cstddef</text>
</g>
<!-- Node5&#45;&gt;Node6 -->
<g id="edge6" class="edge">
<title>Node5&#45;&gt;Node6</title>
<path fill="none" stroke="#191970" d="M819.2707,-56.2455C824.2264,-48.5367 831.283,-37.5598 837.2776,-28.2348"/>
<polygon fill="#191970" stroke="#191970" points="840.3376,-29.9471 842.8011,-19.6427 834.4494,-26.1618 840.3376,-29.9471"/>
</g>
<!-- Node7 -->
<g id="node8" class="node">
<title>Node7</title>
<polygon fill="none" stroke="#bfbfbf" points="724,-.5 724,-19.5 804,-19.5 804,-.5 724,-.5"/>
<text text-anchor="middle" x="764" y="-7.5" font-family="FreeSans.ttf" font-size="10.00" fill="#000000">CoreExport.h</text>
</g>
<!-- Node5&#45;&gt;Node7 -->
<g id="edge7" class="edge">
<title>Node5&#45;&gt;Node7</title>
<path fill="none" stroke="#191970" d="M804.4649,-56.2455C797.5088,-48.2958 787.5117,-36.8706 779.1949,-27.3656"/>
<polygon fill="#191970" stroke="#191970" points="781.6564,-24.8637 772.4373,-19.6427 776.3884,-29.4732 781.6564,-24.8637"/>
</g>
<!-- Node8&#45;&gt;Node6 -->
<g id="edge12" class="edge">
<title>Node8&#45;&gt;Node6</title>
<path fill="none" stroke="#191970" d="M973.2141,-56.3733C948.5953,-47.1822 911.31,-33.2624 884.0125,-23.0713"/>
<polygon fill="#191970" stroke="#191970" points="885.042,-19.7198 874.4494,-19.5011 882.5937,-26.2777 885.042,-19.7198"/>
</g>
<!-- Node8&#45;&gt;Node9 -->
<g id="edge9" class="edge">
<title>Node8&#45;&gt;Node9</title>
<path fill="none" stroke="#191970" d="M938.185,-60.197C864.319,-52.7535 736.0603,-38.5577 627,-20 623.7773,-19.4516 620.4386,-18.8305 617.0989,-18.1727"/>
<polygon fill="#191970" stroke="#191970" points="617.693,-14.7216 607.1916,-16.1255 616.2764,-21.5767 617.693,-14.7216"/>
</g>
<!-- Node10 -->
<g id="node11" class="node">
<title>Node10</title>
<polygon fill="none" stroke="#bfbfbf" points="1040,-.5 1040,-19.5 1104,-19.5 1104,-.5 1040,-.5"/>
<text text-anchor="middle" x="1072" y="-7.5" font-family="FreeSans.ttf" font-size="10.00" fill="#000000">algorithm</text>
</g>
<!-- Node8&#45;&gt;Node10 -->
<g id="edge10" class="edge">
<title>Node8&#45;&gt;Node10</title>
<path fill="none" stroke="#191970" d="M1011.7156,-56.2455C1022.602,-47.8943 1038.4883,-35.7076 1051.22,-25.9408"/>
<polygon fill="#191970" stroke="#191970" points="1053.6261,-28.5063 1059.4301,-19.6427 1049.3654,-22.9523 1053.6261,-28.5063"/>
</g>
<!-- Node11 -->
<g id="node12" class="node">
<title>Node11</title>
<polygon fill="none" stroke="#bfbfbf" points="1122,-.5 1122,-19.5 1164,-19.5 1164,-.5 1122,-.5"/>
<text text-anchor="middle" x="1143" y="-7.5" font-family="FreeSans.ttf" font-size="10.00" fill="#000000">array</text>
</g>
<!-- Node8&#45;&gt;Node11 -->
<g id="edge11" class="edge">
<title>Node8&#45;&gt;Node11</title>
<path fill="none" stroke="#191970" d="M1023.7545,-56.3733C1048.2831,-46.8343 1085.9096,-32.2018 1112.3214,-21.9306"/>
<polygon fill="#191970" stroke="#191970" points="1113.7927,-25.1138 1121.8442,-18.2273 1111.2555,-18.5898 1113.7927,-25.1138"/>
</g>
<!-- Node12 -->
<g id="node13" class="node">
<title>Node12</title>
<polygon fill="none" stroke="#bfbfbf" points="1182.5,-.5 1182.5,-19.5 1235.5,-19.5 1235.5,-.5 1182.5,-.5"/>
<text text-anchor="middle" x="1209" y="-7.5" font-family="FreeSans.ttf" font-size="10.00" fill="#000000">iterator</text>
</g>
<!-- Node8&#45;&gt;Node12 -->
<g id="edge13" class="edge">
<title>Node8&#45;&gt;Node12</title>
<path fill="none" stroke="#191970" d="M1035.6967,-56.4408C1068.8708,-47.7675 1119.3069,-34.5031 1172.344,-20.1548"/>
<polygon fill="#191970" stroke="#191970" points="1173.5375,-23.4577 1182.2739,-17.4639 1171.7065,-16.7014 1173.5375,-23.4577"/>
</g>
<!-- Node13 -->
<g id="node14" class="node">
<title>Node13</title>
<polygon fill="none" stroke="#bfbfbf" points="1254,-.5 1254,-19.5 1298,-19.5 1298,-.5 1254,-.5"/>
<text text-anchor="middle" x="1276" y="-7.5" font-family="FreeSans.ttf" font-size="10.00" fill="#000000">limits</text>
</g>
<!-- Node8&#45;&gt;Node13 -->
<g id="edge14" class="edge">
<title>Node8&#45;&gt;Node13</title>
<path fill="none" stroke="#191970" d="M1059.6199,-56.8712C1107.352,-49.1816 1175.6885,-37.068 1243.7155,-20.0923"/>
<polygon fill="#191970" stroke="#191970" points="1244.9124,-23.3997 1253.7475,-17.5523 1243.1943,-16.6138 1244.9124,-23.3997"/>
</g>
<!-- Node14 -->
<g id="node15" class="node">
<title>Node14</title>
<polygon fill="none" stroke="#bfbfbf" points="893.5,-.5 893.5,-19.5 958.5,-19.5 958.5,-.5 893.5,-.5"/>
<text text-anchor="middle" x="926" y="-7.5" font-family="FreeSans.ttf" font-size="10.00" fill="#000000">stdexcept</text>
</g>
<!-- Node8&#45;&gt;Node14 -->
<g id="edge15" class="edge">
<title>Node8&#45;&gt;Node14</title>
<path fill="none" stroke="#191970" d="M986.2844,-56.2455C975.398,-47.8943 959.5117,-35.7076 946.78,-25.9408"/>
<polygon fill="#191970" stroke="#191970" points="948.6346,-22.9523 938.5699,-19.6427 944.3739,-28.5063 948.6346,-22.9523"/>
</g>
<!-- Node15 -->
<g id="node16" class="node">
<title>Node15</title>
<polygon fill="none" stroke="#bfbfbf" points="636.5,-.5 636.5,-19.5 705.5,-19.5 705.5,-.5 636.5,-.5"/>
<text text-anchor="middle" x="671" y="-7.5" font-family="FreeSans.ttf" font-size="10.00" fill="#000000">type_traits</text>
</g>
<!-- Node8&#45;&gt;Node15 -->
<g id="edge16" class="edge">
<title>Node8&#45;&gt;Node15</title>
<path fill="none" stroke="#191970" d="M938.4168,-57.3157C882.9792,-49.1128 798.4697,-35.9672 715.402,-19.979"/>
<polygon fill="#191970" stroke="#191970" points="716.0273,-16.5351 705.5437,-18.0667 714.6942,-23.407 716.0273,-16.5351"/>
</g>
<!-- Node16 -->
<g id="node17" class="node">
<title>Node16</title>
<polygon fill="none" stroke="#bfbfbf" points="976.5,-.5 976.5,-19.5 1021.5,-19.5 1021.5,-.5 976.5,-.5"/>
<text text-anchor="middle" x="999" y="-7.5" font-family="FreeSans.ttf" font-size="10.00" fill="#000000">utility</text>
</g>
<!-- Node8&#45;&gt;Node16 -->
<g id="edge17" class="edge">
<title>Node8&#45;&gt;Node16</title>
<path fill="none" stroke="#191970" d="M999,-56.2455C999,-48.9382 999,-38.6944 999,-29.7046"/>
<polygon fill="#191970" stroke="#191970" points="1002.5001,-29.6426 999,-19.6427 995.5001,-29.6427 1002.5001,-29.6426"/>
</g>
<!-- Node20&#45;&gt;Node4 -->
<g id="edge41" class="edge">
<title>Node20&#45;&gt;Node4</title>
<path fill="none" stroke="#191970" d="M614.7829,-291.3383C634.9533,-275.2378 677.9085,-242.8323 719,-224 752.3535,-208.7141 791.8993,-197.4399 823.8007,-189.8795"/>
<polygon fill="#191970" stroke="#191970" points="824.9155,-193.2143 833.8722,-187.5549 823.3412,-186.3936 824.9155,-193.2143"/>
</g>
<!-- Node20&#45;&gt;Node17 -->
<g id="edge24" class="edge">
<title>Node20&#45;&gt;Node17</title>
<path fill="none" stroke="#191970" d="M534.2039,-295.5122C447.7018,-287.9022 308.5476,-273.0249 293,-255 264.4695,-221.9236 294.2189,-168.0365 313.4221,-140.0913"/>
<polygon fill="#191970" stroke="#191970" points="316.468,-141.8485 319.4307,-131.6763 310.7712,-137.7807 316.468,-141.8485"/>
</g>
<!-- Node21 -->
<g id="node22" class="node">
<title>Node21</title>
<g id="a_node22"><a xlink:href="GeomVector3_8h.html" target="_top" xlink:title="iDynTree/Core/GeomVector3.h">
<polygon fill="none" stroke="#000000" points="728.5,-230 728.5,-249 891.5,-249 891.5,-230 728.5,-230"/>
<text text-anchor="middle" x="810" y="-237" font-family="FreeSans.ttf" font-size="10.00" fill="#000000">iDynTree/Core/GeomVector3.h</text>
</a>
</g>
</g>
<!-- Node20&#45;&gt;Node21 -->
<g id="edge25" class="edge">
<title>Node20&#45;&gt;Node21</title>
<path fill="none" stroke="#191970" d="M635.3438,-291.3906C671.118,-280.7621 728.8747,-263.6025 768.0905,-251.9514"/>
<polygon fill="#191970" stroke="#191970" points="769.2943,-255.245 777.8834,-249.0419 767.3007,-248.5349 769.2943,-255.245"/>
</g>
<!-- Node22 -->
<g id="node23" class="node">
<title>Node22</title>
<g id="a_node23"><a xlink:href="RotationRaw_8h.html" target="_top" xlink:title="iDynTree/Core/RotationRaw.h">
<polygon fill="none" stroke="#000000" points="302,-230 302,-249 460,-249 460,-230 302,-230"/>
<text text-anchor="middle" x="381" y="-237" font-family="FreeSans.ttf" font-size="10.00" fill="#000000">iDynTree/Core/RotationRaw.h</text>
</a>
</g>
</g>
<!-- Node20&#45;&gt;Node22 -->
<g id="edge27" class="edge">
<title>Node20&#45;&gt;Node22</title>
<path fill="none" stroke="#191970" d="M568.3125,-291.3906C529.7016,-280.6944 467.214,-263.3836 425.1452,-251.7294"/>
<polygon fill="#191970" stroke="#191970" points="426.0154,-248.3387 415.4439,-249.0419 424.1465,-255.0847 426.0154,-248.3387"/>
</g>
<!-- Node21&#45;&gt;Node4 -->
<g id="edge26" class="edge">
<title>Node21&#45;&gt;Node4</title>
<path fill="none" stroke="#191970" d="M821.4063,-229.8906C832.6969,-220.3786 850.1967,-205.6357 863.6619,-194.2917"/>
<polygon fill="#191970" stroke="#191970" points="866.0402,-196.8646 871.4329,-187.7449 861.5301,-191.5111 866.0402,-196.8646"/>
</g>
<!-- Node22&#45;&gt;Node17 -->
<g id="edge40" class="edge">
<title>Node22&#45;&gt;Node17</title>
<path fill="none" stroke="#191970" d="M376.581,-229.8845C367.6812,-210.5192 347.4536,-166.5055 335.7705,-141.084"/>
<polygon fill="#191970" stroke="#191970" points="338.8363,-139.3732 331.4801,-131.7484 332.4758,-142.2963 338.8363,-139.3732"/>
</g>
<!-- Node22&#45;&gt;Node23 -->
<g id="edge28" class="edge">
<title>Node22&#45;&gt;Node23</title>
<path fill="none" stroke="#191970" d="M431.1144,-229.9581C488.6038,-219.012 582.8082,-201.0752 644.1132,-189.4026"/>
<polygon fill="#191970" stroke="#191970" points="644.865,-192.8224 654.0338,-187.5137 643.5556,-185.946 644.865,-192.8224"/>
</g>
<!-- Node23&#45;&gt;Node5 -->
<g id="edge29" class="edge">
<title>Node23&#45;&gt;Node5</title>
<path fill="none" stroke="#191970" d="M716.2536,-168.2654C727.3074,-159.2778 743.8071,-145.3415 757,-132 772.2549,-116.5734 788.1145,-97.5552 799.0448,-83.903"/>
<polygon fill="#191970" stroke="#191970" points="801.998,-85.8114 805.4599,-75.7981 796.5092,-81.467 801.998,-85.8114"/>
</g>
<!-- Node23&#45;&gt;Node9 -->
<g id="edge35" class="edge">
<title>Node23&#45;&gt;Node9</title>
<path fill="none" stroke="#191970" d="M650.8272,-168.463C612.9073,-160.4538 566.6534,-147.7939 555,-132 532.0835,-100.9414 553.6791,-53.9947 568.9148,-28.3374"/>
<polygon fill="#191970" stroke="#191970" points="572.0252,-29.9635 574.3366,-19.6239 566.0818,-26.2653 572.0252,-29.9635"/>
</g>
<!-- Node23&#45;&gt;Node17 -->
<g id="edge37" class="edge">
<title>Node23&#45;&gt;Node17</title>
<path fill="none" stroke="#191970" d="M639.6198,-168.4369C558.1105,-156.3294 420.8634,-135.9426 358.9716,-126.7491"/>
<polygon fill="#191970" stroke="#191970" points="359.4178,-123.2771 349.0121,-125.2697 358.3892,-130.2011 359.4178,-123.2771"/>
</g>
<!-- Node23&#45;&gt;Node18 -->
<g id="edge39" class="edge">
<title>Node23&#45;&gt;Node18</title>
<path fill="none" stroke="#191970" d="M763.9402,-168.4369C836.3114,-156.8905 955.8782,-137.8143 1016.7824,-128.0974"/>
<polygon fill="#191970" stroke="#191970" points="1017.4194,-131.5401 1026.7431,-126.5082 1016.3165,-124.6275 1017.4194,-131.5401"/>
</g>
<!-- Node23&#45;&gt;Node19 -->
<g id="edge36" class="edge">
<title>Node23&#45;&gt;Node19</title>
<path fill="none" stroke="#191970" d="M725.6602,-168.3733C745.9772,-159.3435 776.564,-145.7494 799.375,-135.6111"/>
<polygon fill="#191970" stroke="#191970" points="800.9059,-138.7609 808.6225,-131.5011 798.0628,-132.3642 800.9059,-138.7609"/>
</g>
<!-- Node24 -->
<g id="node25" class="node">
<title>Node24</title>
<g id="a_node25"><a xlink:href="MatrixView_8h.html" target="_top" xlink:title="iDynTree/Core/MatrixView.h">
<polygon fill="none" stroke="#000000" points="597.5,-112.5 597.5,-131.5 748.5,-131.5 748.5,-112.5 597.5,-112.5"/>
<text text-anchor="middle" x="673" y="-119.5" font-family="FreeSans.ttf" font-size="10.00" fill="#000000">iDynTree/Core/MatrixView.h</text>
</a>
</g>
</g>
<!-- Node23&#45;&gt;Node24 -->
<g id="edge30" class="edge">
<title>Node23&#45;&gt;Node24</title>
<path fill="none" stroke="#191970" d="M698.6002,-168.2455C694.3773,-160.617 688.3827,-149.7881 683.2559,-140.5267"/>
<polygon fill="#191970" stroke="#191970" points="686.2432,-138.6965 678.3379,-131.6427 680.119,-142.0867 686.2432,-138.6965"/>
</g>
<!-- Node25 -->
<g id="node26" class="node">
<title>Node25</title>
<polygon fill="none" stroke="#bfbfbf" points="911,-112.5 911,-131.5 971,-131.5 971,-112.5 911,-112.5"/>
<text text-anchor="middle" x="941" y="-119.5" font-family="FreeSans.ttf" font-size="10.00" fill="#000000">iostream</text>
</g>
<!-- Node23&#45;&gt;Node25 -->
<g id="edge38" class="edge">
<title>Node23&#45;&gt;Node25</title>
<path fill="none" stroke="#191970" d="M744.4725,-168.4369C788.1674,-158.1123 857.3419,-141.7673 900.8938,-131.4766"/>
<polygon fill="#191970" stroke="#191970" points="901.9209,-134.8304 910.848,-129.1245 900.3111,-128.0179 901.9209,-134.8304"/>
</g>
<!-- Node24&#45;&gt;Node5 -->
<g id="edge34" class="edge">
<title>Node24&#45;&gt;Node5</title>
<path fill="none" stroke="#191970" d="M697.0669,-112.3733C719.8428,-103.2629 754.2344,-89.5062 779.649,-79.3404"/>
<polygon fill="#191970" stroke="#191970" points="781.2623,-82.4648 789.2472,-75.5011 778.6625,-75.9654 781.2623,-82.4648"/>
</g>
<!-- Node24&#45;&gt;Node8 -->
<g id="edge33" class="edge">
<title>Node24&#45;&gt;Node8</title>
<path fill="none" stroke="#191970" d="M728.671,-112.4369C785.4011,-102.6918 873.355,-87.5832 933.4247,-77.2645"/>
<polygon fill="#191970" stroke="#191970" points="934.2956,-80.6662 943.5586,-75.5237 933.1104,-73.7673 934.2956,-80.6662"/>
</g>
<!-- Node24&#45;&gt;Node9 -->
<g id="edge31" class="edge">
<title>Node24&#45;&gt;Node9</title>
<path fill="none" stroke="#191970" d="M665.1561,-112.4509C649.6758,-93.6054 614.9947,-51.3849 595.3273,-27.4419"/>
<polygon fill="#191970" stroke="#191970" points="597.876,-25.0306 588.824,-19.5249 592.4669,-29.4738 597.876,-25.0306"/>
</g>
<!-- Node24&#45;&gt;Node15 -->
<g id="edge32" class="edge">
<title>Node24&#45;&gt;Node15</title>
<path fill="none" stroke="#191970" d="M672.8295,-112.4509C672.5033,-94.184 671.7849,-53.9553 671.3517,-29.6976"/>
<polygon fill="#191970" stroke="#191970" points="674.8482,-29.4608 671.1701,-19.5249 667.8493,-29.5858 674.8482,-29.4608"/>
</g>
<!-- Node27 -->
<g id="node28" class="node">
<title>Node27</title>
<g id="a_node28"><a xlink:href="SpatialMotionVector_8h.html" target="_top" xlink:title="iDynTree/Core/SpatialMotion\lVector.h">
<polygon fill="none" stroke="#000000" points="700.5,-459.5 700.5,-489.5 855.5,-489.5 855.5,-459.5 700.5,-459.5"/>
<text text-anchor="start" x="708.5" y="-477.5" font-family="FreeSans.ttf" font-size="10.00" fill="#000000">iDynTree/Core/SpatialMotion</text>
<text text-anchor="middle" x="778" y="-466.5" font-family="FreeSans.ttf" font-size="10.00" fill="#000000">Vector.h</text>
</a>
</g>
</g>
<!-- Node26&#45;&gt;Node27 -->
<g id="edge47" class="edge">
<title>Node26&#45;&gt;Node27</title>
<path fill="none" stroke="#191970" d="M766.1875,-526.3906C767.8366,-519.1463 770.1764,-508.8679 772.3391,-499.3676"/>
<polygon fill="#191970" stroke="#191970" points="775.7682,-500.072 774.5752,-489.5446 768.9428,-498.5182 775.7682,-500.072"/>
</g>
<!-- Node27&#45;&gt;Node4 -->
<g id="edge48" class="edge">
<title>Node27&#45;&gt;Node4</title>
<path fill="none" stroke="#191970" d="M790.0153,-459.4474C816.2748,-425.4676 878.1741,-339.1956 900,-255 905.0799,-235.4037 898.6189,-212.7543 892.2548,-197.1176"/>
<polygon fill="#191970" stroke="#191970" points="895.2598,-195.2599 888.0075,-187.5363 888.8604,-198.0967 895.2598,-195.2599"/>
</g>
<!-- Node27&#45;&gt;Node21 -->
<g id="edge49" class="edge">
<title>Node27&#45;&gt;Node21</title>
<path fill="none" stroke="#191970" d="M780.0504,-459.4422C785.6203,-418.5381 801.032,-305.3587 807.2981,-259.3419"/>
<polygon fill="#191970" stroke="#191970" points="810.8013,-259.5554 808.6826,-249.1746 803.8653,-258.6109 810.8013,-259.5554"/>
</g>
<!-- Node28 -->
<g id="node29" class="node">
<title>Node28</title>
<g id="a_node29"><a xlink:href="SpatialVector_8h.html" target="_top" xlink:title="iDynTree/Core/SpatialVector.h">
<polygon fill="none" stroke="#000000" points="882.5,-403.5 882.5,-422.5 1043.5,-422.5 1043.5,-403.5 882.5,-403.5"/>
<text text-anchor="middle" x="963" y="-410.5" font-family="FreeSans.ttf" font-size="10.00" fill="#000000">iDynTree/Core/SpatialVector.h</text>
</a>
</g>
</g>
<!-- Node27&#45;&gt;Node28 -->
<g id="edge50" class="edge">
<title>Node27&#45;&gt;Node28</title>
<path fill="none" stroke="#191970" d="M823.2561,-459.4554C854.3946,-449.104 895.2969,-435.5067 924.7955,-425.7004"/>
<polygon fill="#191970" stroke="#191970" points="925.9463,-429.0063 934.3316,-422.5303 923.738,-422.3637 925.9463,-429.0063"/>
</g>
<!-- Node28&#45;&gt;Node2 -->
<g id="edge51" class="edge">
<title>Node28&#45;&gt;Node2</title>
<path fill="none" stroke="#191970" d="M885.3875,-403.4686C801.7129,-393.1928 669.259,-376.9265 585.3132,-366.6174"/>
<polygon fill="#191970" stroke="#191970" points="585.675,-363.1356 575.3229,-365.3905 584.8217,-370.0834 585.675,-363.1356"/>
</g>
<!-- Node28&#45;&gt;Node5 -->
<g id="edge53" class="edge">
<title>Node28&#45;&gt;Node5</title>
<path fill="none" stroke="#191970" d="M998.335,-403.3977C1061.215,-383.9211 1186,-333.4362 1186,-239.5 1186,-239.5 1186,-239.5 1186,-178 1186,-115.3653 990.6312,-84.7281 882.6799,-72.5803"/>
<polygon fill="#191970" stroke="#191970" points="882.8382,-69.0767 872.5154,-71.4619 882.0726,-76.0347 882.8382,-69.0767"/>
</g>
<!-- Node28&#45;&gt;Node18 -->
<g id="edge56" class="edge">
<title>Node28&#45;&gt;Node18</title>
<path fill="none" stroke="#191970" d="M974.7242,-403.2278C994.8902,-385.249 1034,-344.7424 1034,-301 1034,-301 1034,-301 1034,-239.5 1034,-204.5955 1043.0911,-164.7555 1049.3102,-141.5853"/>
<polygon fill="#191970" stroke="#191970" points="1052.7674,-142.217 1052.08,-131.6445 1046.0243,-140.3381 1052.7674,-142.217"/>
</g>
<!-- Node28&#45;&gt;Node20 -->
<g id="edge52" class="edge">
<title>Node28&#45;&gt;Node20</title>
<path fill="none" stroke="#191970" d="M932.3066,-403.4509C867.3478,-383.2415 715.9872,-336.1516 643.3286,-313.5467"/>
<polygon fill="#191970" stroke="#191970" points="644.204,-310.1536 633.6157,-310.5249 642.1245,-316.8376 644.204,-310.1536"/>
</g>
<!-- Node28&#45;&gt;Node21 -->
<g id="edge54" class="edge">
<title>Node28&#45;&gt;Node21</title>
<path fill="none" stroke="#191970" d="M956.4022,-403.3449C941.6753,-382.0751 904.5367,-329.9726 868,-291 856.1422,-278.3516 841.5412,-265.3994 829.9557,-255.6482"/>
<polygon fill="#191970" stroke="#191970" points="832.0669,-252.8522 822.1348,-249.1637 827.599,-258.2408 832.0669,-252.8522"/>
</g>
<!-- Node28&#45;&gt;Node25 -->
<g id="edge55" class="edge">
<title>Node28&#45;&gt;Node25</title>
<path fill="none" stroke="#191970" d="M967.8693,-403.3939C977.0488,-384.3677 996,-340.3256 996,-301 996,-301 996,-301 996,-239.5 996,-201.0957 971.601,-161.7244 955.3048,-139.7111"/>
<polygon fill="#191970" stroke="#191970" points="957.9811,-137.4496 949.1154,-131.6487 952.4286,-141.7122 957.9811,-137.4496"/>
</g>
<!-- Node29&#45;&gt;Node8 -->
<g id="edge58" class="edge">
<title>Node29&#45;&gt;Node8</title>
<path fill="none" stroke="#191970" d="M1256.4972,-347.3279C1251.5513,-327.3368 1241,-279.9491 1241,-239.5 1241,-239.5 1241,-239.5 1241,-178 1241,-143.4675 1228.1062,-132.0633 1200,-112 1179.1474,-97.1146 1118.7746,-84.494 1069.595,-76.2592"/>
<polygon fill="#191970" stroke="#191970" points="1070.0412,-72.7857 1059.6065,-74.6204 1068.9078,-79.6934 1070.0412,-72.7857"/>
</g>
<!-- Node29&#45;&gt;Node17 -->
<g id="edge59" class="edge">
<title>Node29&#45;&gt;Node17</title>
<path fill="none" stroke="#191970" d="M1238.4854,-347.4859C1184.4118,-322.8341 1032.9955,-256.5471 900,-224 775.558,-193.5462 740.1434,-210.3846 614,-188 520.5555,-171.4179 411.7288,-144.1825 358.957,-130.4615"/>
<polygon fill="#191970" stroke="#191970" points="359.7313,-127.0463 349.1713,-127.9046 357.9616,-133.819 359.7313,-127.0463"/>
</g>
<!-- Node30&#45;&gt;Node17 -->
<g id="edge61" class="edge">
<title>Node30&#45;&gt;Node17</title>
<path fill="none" stroke="#191970" d="M174.7321,-530.2813C102.595,-520.0882 0,-491.7488 0,-413 0,-413 0,-413 0,-239.5 0,-196.8513 26.7147,-188.7055 64,-168 103.1841,-146.2401 233.2521,-131.1055 294.5312,-125.004"/>
<polygon fill="#191970" stroke="#191970" points="295.1776,-128.4576 304.7905,-124.0032 294.4979,-121.4907 295.1776,-128.4576"/>
</g>
<!-- Node31 -->
<g id="node32" class="node">
<title>Node31</title>
<polygon fill="none" stroke="#bfbfbf" points="201,-465 201,-484 287,-484 287,-465 201,-465"/>
<text text-anchor="middle" x="244" y="-472" font-family="FreeSans.ttf" font-size="10.00" fill="#000000">ModelExport.h</text>
</g>
<!-- Node30&#45;&gt;Node31 -->
<g id="edge62" class="edge">
<title>Node30&#45;&gt;Node31</title>
<path fill="none" stroke="#191970" d="M244,-526.3906C244,-517.8657 244,-505.1392 244,-494.4235"/>
<polygon fill="#191970" stroke="#191970" points="247.5001,-494.2448 244,-484.2449 240.5001,-494.2449 247.5001,-494.2448"/>
</g>
<!-- Node32&#45;&gt;Node1 -->
<g id="edge64" class="edge">
<title>Node32&#45;&gt;Node1</title>
<path fill="none" stroke="#191970" d="M587.4119,-582.4857C565.9563,-575.8324 542.4889,-564.655 528,-546 502.3197,-512.9356 502.8007,-460.9459 505.3943,-432.7597"/>
<polygon fill="#191970" stroke="#191970" points="508.8999,-432.9017 506.5237,-422.5768 501.9426,-432.13 508.8999,-432.9017"/>
</g>
<!-- Node32&#45;&gt;Node26 -->
<g id="edge65" class="edge">
<title>Node32&#45;&gt;Node26</title>
<path fill="none" stroke="#191970" d="M658.8321,-582.3733C679.3103,-573.3435 710.1399,-559.7494 733.1319,-549.6111"/>
<polygon fill="#191970" stroke="#191970" points="734.715,-552.7383 742.4528,-545.5011 731.8907,-546.3333 734.715,-552.7383"/>
</g>
<!-- Node32&#45;&gt;Node30 -->
<g id="edge76" class="edge">
<title>Node32&#45;&gt;Node30</title>
<path fill="none" stroke="#191970" d="M569.8874,-582.4369C500.7916,-572.5912 393.273,-557.2705 320.819,-546.9462"/>
<polygon fill="#191970" stroke="#191970" points="321.2295,-543.4694 310.8358,-545.5237 320.242,-550.3994 321.2295,-543.4694"/>
</g>
<!-- Node33 -->
<g id="node34" class="node">
<title>Node33</title>
<g id="a_node34"><a xlink:href="SpatialAcc_8h.html" target="_top" xlink:title="iDynTree/Core/SpatialAcc.h">
<polygon fill="none" stroke="#000000" points="537,-526.5 537,-545.5 685,-545.5 685,-526.5 537,-526.5"/>
<text text-anchor="middle" x="611" y="-533.5" font-family="FreeSans.ttf" font-size="10.00" fill="#000000">iDynTree/Core/SpatialAcc.h</text>
</a>
</g>
</g>
<!-- Node32&#45;&gt;Node33 -->
<g id="edge66" class="edge">
<title>Node32&#45;&gt;Node33</title>
<path fill="none" stroke="#191970" d="M632.4711,-582.2455C628.9666,-574.6973 624.0073,-564.0158 619.7377,-554.8197"/>
<polygon fill="#191970" stroke="#191970" points="622.8627,-553.2389 615.477,-545.6427 616.5136,-556.1867 622.8627,-553.2389"/>
</g>
<!-- Node34 -->
<g id="node35" class="node">
<title>Node34</title>
<g id="a_node35"><a xlink:href="Wrench_8h.html" target="_top" xlink:title="iDynTree/Core/Wrench.h">
<polygon fill="none" stroke="#000000" points="843.5,-526.5 843.5,-545.5 976.5,-545.5 976.5,-526.5 843.5,-526.5"/>
<text text-anchor="middle" x="910" y="-533.5" font-family="FreeSans.ttf" font-size="10.00" fill="#000000">iDynTree/Core/Wrench.h</text>
</a>
</g>
</g>
<!-- Node32&#45;&gt;Node34 -->
<g id="edge68" class="edge">
<title>Node32&#45;&gt;Node34</title>
<path fill="none" stroke="#191970" d="M683.6202,-582.4369C730.6365,-572.7925 803.2629,-557.8948 853.5193,-547.5858"/>
<polygon fill="#191970" stroke="#191970" points="854.4794,-550.9618 863.5721,-545.5237 853.0727,-544.1046 854.4794,-550.9618"/>
</g>
<!-- Node36 -->
<g id="node37" class="node">
<title>Node36</title>
<g id="a_node37"><a xlink:href="ArticulatedBodyInertia_8h.html" target="_top" xlink:title="iDynTree/Core/Articulated\lBodyInertia.h">
<polygon fill="none" stroke="#000000" points="66.5,-224.5 66.5,-254.5 207.5,-254.5 207.5,-224.5 66.5,-224.5"/>
<text text-anchor="start" x="74.5" y="-242.5" font-family="FreeSans.ttf" font-size="10.00" fill="#000000">iDynTree/Core/Articulated</text>
<text text-anchor="middle" x="137" y="-231.5" font-family="FreeSans.ttf" font-size="10.00" fill="#000000">BodyInertia.h</text>
</a>
</g>
</g>
<!-- Node32&#45;&gt;Node36 -->
<g id="edge73" class="edge">
<title>Node32&#45;&gt;Node36</title>
<path fill="none" stroke="#191970" d="M602.2388,-582.4717C576.6057,-574.6585 541.4019,-562.2458 513,-546 363.9344,-460.7351 213.7852,-316.8434 158.8525,-261.8156"/>
<polygon fill="#191970" stroke="#191970" points="161.2729,-259.2859 151.7432,-254.6561 156.3058,-264.2182 161.2729,-259.2859"/>
</g>
<!-- Node32&#45;&gt;Node37 -->
<g id="edge77" class="edge">
<title>Node32&#45;&gt;Node37</title>
<path fill="none" stroke="#191970" d="M711.513,-585.9177C780.3242,-579.4517 885.4104,-567.4289 984.481,-546.0528"/>
<polygon fill="#191970" stroke="#191970" points="985.3389,-549.4479 994.3565,-543.886 983.8388,-542.6105 985.3389,-549.4479"/>
</g>
<!-- Node33&#45;&gt;Node27 -->
<g id="edge67" class="edge">
<title>Node33&#45;&gt;Node27</title>
<path fill="none" stroke="#191970" d="M637.0938,-526.3906C661.2647,-517.4893 697.8745,-504.0073 727.7194,-493.0165"/>
<polygon fill="#191970" stroke="#191970" points="728.9728,-496.2848 737.1472,-489.5446 726.5538,-489.716 728.9728,-496.2848"/>
</g>
<!-- Node35 -->
<g id="node36" class="node">
<title>Node35</title>
<g id="a_node36"><a xlink:href="SpatialForceVector_8h.html" target="_top" xlink:title="iDynTree/Core/SpatialForce\lVector.h">
<polygon fill="none" stroke="#000000" points="889,-459.5 889,-489.5 1037,-489.5 1037,-459.5 889,-459.5"/>
<text text-anchor="start" x="897" y="-477.5" font-family="FreeSans.ttf" font-size="10.00" fill="#000000">iDynTree/Core/SpatialForce</text>
<text text-anchor="middle" x="963" y="-466.5" font-family="FreeSans.ttf" font-size="10.00" fill="#000000">Vector.h</text>
</a>
</g>
</g>
<!-- Node34&#45;&gt;Node35 -->
<g id="edge69" class="edge">
<title>Node34&#45;&gt;Node35</title>
<path fill="none" stroke="#191970" d="M918.2813,-526.3906C924.9892,-518.6068 934.7159,-507.3202 943.3859,-497.2597"/>
<polygon fill="#191970" stroke="#191970" points="946.1578,-499.4046 950.0347,-489.5446 940.8552,-494.8349 946.1578,-499.4046"/>
</g>
<!-- Node35&#45;&gt;Node4 -->
<g id="edge70" class="edge">
<title>Node35&#45;&gt;Node4</title>
<path fill="none" stroke="#191970" d="M1003.6543,-459.4409C1021.0919,-451.119 1040.3254,-439.141 1053,-423 1071.8517,-398.9924 1072,-387.5246 1072,-357 1072,-357 1072,-357 1072,-301 1072,-237.8467 996.9538,-205.444 941.4399,-190.1141"/>
<polygon fill="#191970" stroke="#191970" points="942.2344,-186.704 931.6722,-187.5345 940.447,-193.472 942.2344,-186.704"/>
</g>
<!-- Node35&#45;&gt;Node21 -->
<g id="edge71" class="edge">
<title>Node35&#45;&gt;Node21</title>
<path fill="none" stroke="#191970" d="M923.174,-459.3611C905.6937,-450.9682 886.1921,-438.9552 873,-423 831.9412,-373.3415 817.0667,-295.4338 812.1705,-259.2243"/>
<polygon fill="#191970" stroke="#191970" points="815.6099,-258.5175 810.9109,-249.0218 808.6627,-259.3753 815.6099,-258.5175"/>
</g>
<!-- Node35&#45;&gt;Node28 -->
<g id="edge72" class="edge">
<title>Node35&#45;&gt;Node28</title>
<path fill="none" stroke="#191970" d="M963,-459.2977C963,-451.3834 963,-441.6043 963,-433.0759"/>
<polygon fill="#191970" stroke="#191970" points="966.5001,-432.8469 963,-422.8469 959.5001,-432.847 966.5001,-432.8469"/>
</g>
<!-- Node36&#45;&gt;Node17 -->
<g id="edge75" class="edge">
<title>Node36&#45;&gt;Node17</title>
<path fill="none" stroke="#191970" d="M152.2331,-224.3295C168.4774,-208.7431 195.4683,-184.4913 222,-168 245.2009,-153.579 273.7083,-141.398 295.1618,-133.2009"/>
<polygon fill="#191970" stroke="#191970" points="296.63,-136.3888 304.7748,-129.6129 294.1822,-129.8307 296.63,-136.3888"/>
</g>
<!-- Node36&#45;&gt;Node23 -->
<g id="edge74" class="edge">
<title>Node36&#45;&gt;Node23</title>
<path fill="none" stroke="#191970" d="M207.6645,-231.8353C310.2519,-220.7081 500.4622,-200.0769 613.2813,-187.8399"/>
<polygon fill="#191970" stroke="#191970" points="613.7161,-191.3133 623.2803,-186.7553 612.9612,-184.3541 613.7161,-191.3133"/>
</g>
<!-- Node38&#45;&gt;Node4 -->
<g id="edge79" class="edge">
<title>Node38&#45;&gt;Node4</title>
<path fill="none" stroke="#191970" d="M1075.731,-582.3226C1086.7914,-562.7007 1110,-516.5204 1110,-474.5 1110,-474.5 1110,-474.5 1110,-301 1110,-234.4138 1033.5624,-203.6877 969.3982,-189.6251"/>
<polygon fill="#191970" stroke="#191970" points="969.7224,-186.1177 959.2192,-187.5083 968.2971,-192.9711 969.7224,-186.1177"/>
</g>
<!-- Node38&#45;&gt;Node29 -->
<g id="edge80" class="edge">
<title>Node38&#45;&gt;Node29</title>
<path fill="none" stroke="#191970" d="M1083.2293,-582.2222C1094.6803,-573.4238 1111.3445,-559.7932 1124,-546 1176.7781,-488.4771 1180.5804,-466.494 1226,-403 1232.635,-393.7246 1240.0347,-383.4074 1246.1429,-374.8982"/>
<polygon fill="#191970" stroke="#191970" points="1249.1769,-376.6736 1252.1667,-366.5094 1243.4909,-372.5907 1249.1769,-376.6736"/>
</g>
<!-- Node38&#45;&gt;Node35 -->
<g id="edge81" class="edge">
<title>Node38&#45;&gt;Node35</title>
<path fill="none" stroke="#191970" d="M1069.4535,-582.4834C1068.2146,-568.6903 1064.1727,-542.9447 1051,-526 1040.6533,-512.6905 1025.8263,-502.1564 1011.2844,-494.1747"/>
<polygon fill="#191970" stroke="#191970" points="1012.7996,-491.018 1002.3094,-489.5327 1009.5838,-497.2356 1012.7996,-491.018"/>
</g>
<!-- Node38&#45;&gt;Node37 -->
<g id="edge82" class="edge">
<title>Node38&#45;&gt;Node37</title>
<path fill="none" stroke="#191970" d="M1060.9423,-582.2455C1053.4858,-574.2155 1042.7366,-562.6394 1033.8583,-553.0781"/>
<polygon fill="#191970" stroke="#191970" points="1036.3232,-550.589 1026.9539,-545.6427 1031.1937,-555.3522 1036.3232,-550.589"/>
</g>
</g>
</svg>
