<?xml version="1.0" encoding="UTF-8" standalone="no"?>
<!DOCTYPE svg PUBLIC "-//W3C//DTD SVG 1.1//EN"
 "http://www.w3.org/Graphics/SVG/1.1/DTD/svg11.dtd">
<!-- Generated by graphviz version 2.40.1 (20161225.0304)
 -->
<!-- Title: GeomVector3.cpp Pages: 1 -->
<svg width="916pt" height="364pt"
 viewBox="0.00 0.00 916.00 364.00" xmlns="http://www.w3.org/2000/svg" xmlns:xlink="http://www.w3.org/1999/xlink">
<g id="graph0" class="graph" transform="scale(1 1) rotate(0) translate(4 360)">
<title>GeomVector3.cpp</title>
<!-- Node0 -->
<g id="node1" class="node">
<title>Node0</title>
<polygon fill="#bfbfbf" stroke="#000000" points="415.5,-336.5 415.5,-355.5 518.5,-355.5 518.5,-336.5 415.5,-336.5"/>
<text text-anchor="middle" x="467" y="-343.5" font-family="FreeSans.ttf" font-size="10.00" fill="#000000">GeomVector3.cpp</text>
</g>
<!-- Node1 -->
<g id="node2" class="node">
<title>Node1</title>
<g id="a_node2"><a xlink:href="GeomVector3_8h.html" target="_top" xlink:title="iDynTree/Core/GeomVector3.h">
<polygon fill="none" stroke="#000000" points="392.5,-224.5 392.5,-243.5 555.5,-243.5 555.5,-224.5 392.5,-224.5"/>
<text text-anchor="middle" x="474" y="-231.5" font-family="FreeSans.ttf" font-size="10.00" fill="#000000">iDynTree/Core/GeomVector3.h</text>
</a>
</g>
</g>
<!-- Node0&#45;&gt;Node1 -->
<g id="edge1" class="edge">
<title>Node0&#45;&gt;Node1</title>
<path fill="none" stroke="#191970" d="M467.5968,-336.4509C468.7385,-318.184 471.2528,-277.9553 472.7689,-253.6976"/>
<polygon fill="#191970" stroke="#191970" points="476.274,-253.7238 473.4047,-243.5249 469.2876,-253.2871 476.274,-253.7238"/>
</g>
<!-- Node18 -->
<g id="node19" class="node">
<title>Node18</title>
<g id="a_node19"><a xlink:href="Rotation_8h.html" target="_top" xlink:title="iDynTree/Core/Rotation.h">
<polygon fill="none" stroke="#000000" points="295.5,-280.5 295.5,-299.5 432.5,-299.5 432.5,-280.5 295.5,-280.5"/>
<text text-anchor="middle" x="364" y="-287.5" font-family="FreeSans.ttf" font-size="10.00" fill="#000000">iDynTree/Core/Rotation.h</text>
</a>
</g>
</g>
<!-- Node0&#45;&gt;Node18 -->
<g id="edge20" class="edge">
<title>Node0&#45;&gt;Node18</title>
<path fill="none" stroke="#191970" d="M449.0588,-336.2455C432.96,-327.4928 409.1121,-314.527 390.7609,-304.5496"/>
<polygon fill="#191970" stroke="#191970" points="392.1929,-301.3444 381.7356,-299.6427 388.8493,-307.4942 392.1929,-301.3444"/>
</g>
<!-- Node23 -->
<g id="node24" class="node">
<title>Node23</title>
<polygon fill="none" stroke="#bfbfbf" points="495.5,-280.5 495.5,-299.5 572.5,-299.5 572.5,-280.5 495.5,-280.5"/>
<text text-anchor="middle" x="534" y="-287.5" font-family="FreeSans.ttf" font-size="10.00" fill="#000000">Eigen/Dense</text>
</g>
<!-- Node0&#45;&gt;Node23 -->
<g id="edge38" class="edge">
<title>Node0&#45;&gt;Node23</title>
<path fill="none" stroke="#191970" d="M478.6705,-336.2455C488.5661,-327.9746 502.9627,-315.9416 514.5901,-306.2232"/>
<polygon fill="#191970" stroke="#191970" points="517.035,-308.7413 522.4632,-299.6427 512.5458,-303.3703 517.035,-308.7413"/>
</g>
<!-- Node2 -->
<g id="node3" class="node">
<title>Node2</title>
<g id="a_node3"><a xlink:href="VectorFixSize_8h.html" target="_top" xlink:title="iDynTree/Core/VectorFixSize.h">
<polygon fill="none" stroke="#000000" points="400.5,-168.5 400.5,-187.5 561.5,-187.5 561.5,-168.5 400.5,-168.5"/>
<text text-anchor="middle" x="481" y="-175.5" font-family="FreeSans.ttf" font-size="10.00" fill="#000000">iDynTree/Core/VectorFixSize.h</text>
</a>
</g>
</g>
<!-- Node1&#45;&gt;Node2 -->
<g id="edge2" class="edge">
<title>Node1&#45;&gt;Node2</title>
<path fill="none" stroke="#191970" d="M475.2193,-224.2455C476.1327,-216.9382 477.4132,-206.6944 478.5369,-197.7046"/>
<polygon fill="#191970" stroke="#191970" points="482.0272,-197.9996 479.7947,-187.6427 475.0813,-197.1313 482.0272,-197.9996"/>
</g>
<!-- Node3 -->
<g id="node4" class="node">
<title>Node3</title>
<g id="a_node4"><a xlink:href="Utils_8h.html" target="_top" xlink:title="iDynTree/Core/Utils.h">
<polygon fill="none" stroke="#000000" points="644.5,-56.5 644.5,-75.5 763.5,-75.5 763.5,-56.5 644.5,-56.5"/>
<text text-anchor="middle" x="704" y="-63.5" font-family="FreeSans.ttf" font-size="10.00" fill="#000000">iDynTree/Core/Utils.h</text>
</a>
</g>
</g>
<!-- Node2&#45;&gt;Node3 -->
<g id="edge3" class="edge">
<title>Node2&#45;&gt;Node3</title>
<path fill="none" stroke="#191970" d="M500.0129,-168.4509C539.3461,-148.6961 629.8196,-103.2565 675.9085,-80.1088"/>
<polygon fill="#191970" stroke="#191970" points="677.6699,-83.1408 685.0353,-75.5249 674.5281,-76.8854 677.6699,-83.1408"/>
</g>
<!-- Node6 -->
<g id="node7" class="node">
<title>Node6</title>
<g id="a_node7"><a xlink:href="Span_8h.html" target="_top" xlink:title="iDynTree/Core/Span.h">
<polygon fill="none" stroke="#000000" points="505.5,-56.5 505.5,-75.5 626.5,-75.5 626.5,-56.5 505.5,-56.5"/>
<text text-anchor="middle" x="566" y="-63.5" font-family="FreeSans.ttf" font-size="10.00" fill="#000000">iDynTree/Core/Span.h</text>
</a>
</g>
</g>
<!-- Node2&#45;&gt;Node6 -->
<g id="edge6" class="edge">
<title>Node2&#45;&gt;Node6</title>
<path fill="none" stroke="#191970" d="M504.6856,-168.4982C520.4934,-160.937 540.4311,-148.8211 552,-132 561.3228,-118.4448 564.6299,-99.8968 565.7161,-85.9149"/>
<polygon fill="#191970" stroke="#191970" points="569.2151,-86.015 566.1835,-75.8632 562.2226,-85.6898 569.2151,-86.015"/>
</g>
<!-- Node7 -->
<g id="node8" class="node">
<title>Node7</title>
<polygon fill="none" stroke="#bfbfbf" points="176,-.5 176,-19.5 228,-19.5 228,-.5 176,-.5"/>
<text text-anchor="middle" x="202" y="-7.5" font-family="FreeSans.ttf" font-size="10.00" fill="#000000">cassert</text>
</g>
<!-- Node2&#45;&gt;Node7 -->
<g id="edge18" class="edge">
<title>Node2&#45;&gt;Node7</title>
<path fill="none" stroke="#191970" d="M493.5604,-168.427C509.3409,-155.224 532.7827,-130.9135 519,-112 510.4288,-100.2381 319.1692,-43.8594 237.9552,-20.3398"/>
<polygon fill="#191970" stroke="#191970" points="238.7402,-16.9235 228.1615,-17.5084 236.796,-23.6481 238.7402,-16.9235"/>
</g>
<!-- Node15 -->
<g id="node16" class="node">
<title>Node15</title>
<polygon fill="none" stroke="#bfbfbf" points="0,-112.5 0,-131.5 44,-131.5 44,-112.5 0,-112.5"/>
<text text-anchor="middle" x="22" y="-119.5" font-family="FreeSans.ttf" font-size="10.00" fill="#000000">string</text>
</g>
<!-- Node2&#45;&gt;Node15 -->
<g id="edge16" class="edge">
<title>Node2&#45;&gt;Node15</title>
<path fill="none" stroke="#191970" d="M400.2536,-169.1084C321.3296,-160.2682 197.8025,-146.0354 91,-132 78.9632,-130.4182 65.7669,-128.5409 54.1673,-126.8424"/>
<polygon fill="#191970" stroke="#191970" points="54.4467,-123.3458 44.0424,-125.3465 53.4235,-130.2706 54.4467,-123.3458"/>
</g>
<!-- Node16 -->
<g id="node17" class="node">
<title>Node16</title>
<polygon fill="none" stroke="#bfbfbf" points="386,-112.5 386,-131.5 442,-131.5 442,-112.5 386,-112.5"/>
<text text-anchor="middle" x="414" y="-119.5" font-family="FreeSans.ttf" font-size="10.00" fill="#000000">sstream</text>
</g>
<!-- Node2&#45;&gt;Node16 -->
<g id="edge17" class="edge">
<title>Node2&#45;&gt;Node16</title>
<path fill="none" stroke="#191970" d="M469.3295,-168.2455C459.4339,-159.9746 445.0373,-147.9416 433.4099,-138.2232"/>
<polygon fill="#191970" stroke="#191970" points="435.4542,-135.3703 425.5368,-131.6427 430.965,-140.7413 435.4542,-135.3703"/>
</g>
<!-- Node17 -->
<g id="node18" class="node">
<title>Node17</title>
<polygon fill="none" stroke="#bfbfbf" points="460,-112.5 460,-131.5 510,-131.5 510,-112.5 460,-112.5"/>
<text text-anchor="middle" x="485" y="-119.5" font-family="FreeSans.ttf" font-size="10.00" fill="#000000">cstring</text>
</g>
<!-- Node2&#45;&gt;Node17 -->
<g id="edge19" class="edge">
<title>Node2&#45;&gt;Node17</title>
<path fill="none" stroke="#191970" d="M481.6967,-168.2455C482.2187,-160.9382 482.9504,-150.6944 483.5925,-141.7046"/>
<polygon fill="#191970" stroke="#191970" points="487.0898,-141.8667 484.3112,-131.6427 480.1076,-141.3679 487.0898,-141.8667"/>
</g>
<!-- Node4 -->
<g id="node5" class="node">
<title>Node4</title>
<polygon fill="none" stroke="#bfbfbf" points="756.5,-.5 756.5,-19.5 809.5,-19.5 809.5,-.5 756.5,-.5"/>
<text text-anchor="middle" x="783" y="-7.5" font-family="FreeSans.ttf" font-size="10.00" fill="#000000">cstddef</text>
</g>
<!-- Node3&#45;&gt;Node4 -->
<g id="edge4" class="edge">
<title>Node3&#45;&gt;Node4</title>
<path fill="none" stroke="#191970" d="M717.7607,-56.2455C729.6552,-47.814 747.065,-35.4729 760.9085,-25.6598"/>
<polygon fill="#191970" stroke="#191970" points="763.2628,-28.2811 769.3969,-19.6427 759.2146,-22.5704 763.2628,-28.2811"/>
</g>
<!-- Node5 -->
<g id="node6" class="node">
<title>Node5</title>
<polygon fill="none" stroke="#bfbfbf" points="828,-.5 828,-19.5 908,-19.5 908,-.5 828,-.5"/>
<text text-anchor="middle" x="868" y="-7.5" font-family="FreeSans.ttf" font-size="10.00" fill="#000000">CoreExport.h</text>
</g>
<!-- Node3&#45;&gt;Node5 -->
<g id="edge5" class="edge">
<title>Node3&#45;&gt;Node5</title>
<path fill="none" stroke="#191970" d="M732.1926,-56.3733C759.3453,-47.1016 800.5907,-33.0178 830.5025,-22.804"/>
<polygon fill="#191970" stroke="#191970" points="831.8428,-26.0449 840.1753,-19.5011 829.5808,-19.4204 831.8428,-26.0449"/>
</g>
<!-- Node6&#45;&gt;Node4 -->
<g id="edge10" class="edge">
<title>Node6&#45;&gt;Node4</title>
<path fill="none" stroke="#191970" d="M605.1433,-56.4756C639.9704,-47.919 692.5302,-34.8055 746.5315,-20.3467"/>
<polygon fill="#191970" stroke="#191970" points="747.5221,-23.7047 756.2705,-17.7284 745.7047,-16.9447 747.5221,-23.7047"/>
</g>
<!-- Node6&#45;&gt;Node7 -->
<g id="edge7" class="edge">
<title>Node6&#45;&gt;Node7</title>
<path fill="none" stroke="#191970" d="M505.2722,-57.7317C422.5682,-46.4424 280.6596,-26.9591 238.2191,-19.7753"/>
<polygon fill="#191970" stroke="#191970" points="238.7451,-16.3133 228.2747,-17.9321 237.4693,-23.196 238.7451,-16.3133"/>
</g>
<!-- Node8 -->
<g id="node9" class="node">
<title>Node8</title>
<polygon fill="none" stroke="#bfbfbf" points="397,-.5 397,-19.5 461,-19.5 461,-.5 397,-.5"/>
<text text-anchor="middle" x="429" y="-7.5" font-family="FreeSans.ttf" font-size="10.00" fill="#000000">algorithm</text>
</g>
<!-- Node6&#45;&gt;Node8 -->
<g id="edge8" class="edge">
<title>Node6&#45;&gt;Node8</title>
<path fill="none" stroke="#191970" d="M542.4489,-56.3733C520.1609,-47.2629 486.5063,-33.5062 461.6363,-23.3404"/>
<polygon fill="#191970" stroke="#191970" points="462.8247,-20.0451 452.2438,-19.5011 460.1761,-26.5247 462.8247,-20.0451"/>
</g>
<!-- Node9 -->
<g id="node10" class="node">
<title>Node9</title>
<polygon fill="none" stroke="#bfbfbf" points="479,-.5 479,-19.5 521,-19.5 521,-.5 479,-.5"/>
<text text-anchor="middle" x="500" y="-7.5" font-family="FreeSans.ttf" font-size="10.00" fill="#000000">array</text>
</g>
<!-- Node6&#45;&gt;Node9 -->
<g id="edge9" class="edge">
<title>Node6&#45;&gt;Node9</title>
<path fill="none" stroke="#191970" d="M554.5037,-56.2455C544.7558,-47.9746 530.5741,-35.9416 519.1202,-26.2232"/>
<polygon fill="#191970" stroke="#191970" points="521.2541,-23.4437 511.3646,-19.6427 516.7253,-28.7813 521.2541,-23.4437"/>
</g>
<!-- Node10 -->
<g id="node11" class="node">
<title>Node10</title>
<polygon fill="none" stroke="#bfbfbf" points="539.5,-.5 539.5,-19.5 592.5,-19.5 592.5,-.5 539.5,-.5"/>
<text text-anchor="middle" x="566" y="-7.5" font-family="FreeSans.ttf" font-size="10.00" fill="#000000">iterator</text>
</g>
<!-- Node6&#45;&gt;Node10 -->
<g id="edge11" class="edge">
<title>Node6&#45;&gt;Node10</title>
<path fill="none" stroke="#191970" d="M566,-56.2455C566,-48.9382 566,-38.6944 566,-29.7046"/>
<polygon fill="#191970" stroke="#191970" points="569.5001,-29.6426 566,-19.6427 562.5001,-29.6427 569.5001,-29.6426"/>
</g>
<!-- Node11 -->
<g id="node12" class="node">
<title>Node11</title>
<polygon fill="none" stroke="#bfbfbf" points="611,-.5 611,-19.5 655,-19.5 655,-.5 611,-.5"/>
<text text-anchor="middle" x="633" y="-7.5" font-family="FreeSans.ttf" font-size="10.00" fill="#000000">limits</text>
</g>
<!-- Node6&#45;&gt;Node11 -->
<g id="edge12" class="edge">
<title>Node6&#45;&gt;Node11</title>
<path fill="none" stroke="#191970" d="M577.6705,-56.2455C587.5661,-47.9746 601.9627,-35.9416 613.5901,-26.2232"/>
<polygon fill="#191970" stroke="#191970" points="616.035,-28.7413 621.4632,-19.6427 611.5458,-23.3703 616.035,-28.7413"/>
</g>
<!-- Node12 -->
<g id="node13" class="node">
<title>Node12</title>
<polygon fill="none" stroke="#bfbfbf" points="673.5,-.5 673.5,-19.5 738.5,-19.5 738.5,-.5 673.5,-.5"/>
<text text-anchor="middle" x="706" y="-7.5" font-family="FreeSans.ttf" font-size="10.00" fill="#000000">stdexcept</text>
</g>
<!-- Node6&#45;&gt;Node12 -->
<g id="edge13" class="edge">
<title>Node6&#45;&gt;Node12</title>
<path fill="none" stroke="#191970" d="M590.0669,-56.3733C612.8428,-47.2629 647.2344,-33.5062 672.649,-23.3404"/>
<polygon fill="#191970" stroke="#191970" points="674.2623,-26.4648 682.2472,-19.5011 671.6625,-19.9654 674.2623,-26.4648"/>
</g>
<!-- Node13 -->
<g id="node14" class="node">
<title>Node13</title>
<polygon fill="none" stroke="#bfbfbf" points="246.5,-.5 246.5,-19.5 315.5,-19.5 315.5,-.5 246.5,-.5"/>
<text text-anchor="middle" x="281" y="-7.5" font-family="FreeSans.ttf" font-size="10.00" fill="#000000">type_traits</text>
</g>
<!-- Node6&#45;&gt;Node13 -->
<g id="edge14" class="edge">
<title>Node6&#45;&gt;Node13</title>
<path fill="none" stroke="#191970" d="M512.5269,-56.4804C465.6137,-47.9826 395.3122,-34.8965 325.5452,-20.2724"/>
<polygon fill="#191970" stroke="#191970" points="326.2137,-16.8364 315.7069,-18.1989 324.7701,-23.686 326.2137,-16.8364"/>
</g>
<!-- Node14 -->
<g id="node15" class="node">
<title>Node14</title>
<polygon fill="none" stroke="#bfbfbf" points="333.5,-.5 333.5,-19.5 378.5,-19.5 378.5,-.5 333.5,-.5"/>
<text text-anchor="middle" x="356" y="-7.5" font-family="FreeSans.ttf" font-size="10.00" fill="#000000">utility</text>
</g>
<!-- Node6&#45;&gt;Node14 -->
<g id="edge15" class="edge">
<title>Node6&#45;&gt;Node14</title>
<path fill="none" stroke="#191970" d="M526.6078,-56.4203C492.4856,-47.9882 441.5933,-35.0926 388.3049,-19.9867"/>
<polygon fill="#191970" stroke="#191970" points="389.2601,-16.6196 378.6836,-17.2424 387.34,-23.3511 389.2601,-16.6196"/>
</g>
<!-- Node18&#45;&gt;Node1 -->
<g id="edge22" class="edge">
<title>Node18&#45;&gt;Node1</title>
<path fill="none" stroke="#191970" d="M383.1605,-280.2455C400.5111,-271.4125 426.2901,-258.2887 445.9583,-248.2758"/>
<polygon fill="#191970" stroke="#191970" points="447.7353,-251.2986 455.059,-243.6427 444.5595,-245.0605 447.7353,-251.2986"/>
</g>
<!-- Node18&#45;&gt;Node2 -->
<g id="edge37" class="edge">
<title>Node18&#45;&gt;Node2</title>
<path fill="none" stroke="#191970" d="M364.3471,-280.321C365.3377,-266.3257 369.0732,-240.3306 383,-224 395.9656,-208.7964 415.0635,-198.2873 432.9644,-191.1955"/>
<polygon fill="#191970" stroke="#191970" points="434.5631,-194.3368 442.7396,-187.5991 432.1461,-187.7673 434.5631,-194.3368"/>
</g>
<!-- Node18&#45;&gt;Node15 -->
<g id="edge21" class="edge">
<title>Node18&#45;&gt;Node15</title>
<path fill="none" stroke="#191970" d="M295.2729,-282.2095C255.8639,-275.7793 206.3639,-264.2793 166,-244 112.3688,-217.055 61.7614,-166.2079 37.3089,-139.4595"/>
<polygon fill="#191970" stroke="#191970" points="39.6063,-136.7797 30.3182,-131.6825 34.4004,-141.4594 39.6063,-136.7797"/>
</g>
<!-- Node19 -->
<g id="node20" class="node">
<title>Node19</title>
<g id="a_node20"><a xlink:href="RotationRaw_8h.html" target="_top" xlink:title="iDynTree/Core/RotationRaw.h">
<polygon fill="none" stroke="#000000" points="175,-224.5 175,-243.5 333,-243.5 333,-224.5 175,-224.5"/>
<text text-anchor="middle" x="254" y="-231.5" font-family="FreeSans.ttf" font-size="10.00" fill="#000000">iDynTree/Core/RotationRaw.h</text>
</a>
</g>
</g>
<!-- Node18&#45;&gt;Node19 -->
<g id="edge23" class="edge">
<title>Node18&#45;&gt;Node19</title>
<path fill="none" stroke="#191970" d="M344.8395,-280.2455C327.4889,-271.4125 301.7099,-258.2887 282.0417,-248.2758"/>
<polygon fill="#191970" stroke="#191970" points="283.4405,-245.0605 272.941,-243.6427 280.2647,-251.2986 283.4405,-245.0605"/>
</g>
<!-- Node19&#45;&gt;Node15 -->
<g id="edge36" class="edge">
<title>Node19&#45;&gt;Node15</title>
<path fill="none" stroke="#191970" d="M234.2198,-224.4509C193.2136,-204.6548 98.7802,-159.0663 50.9249,-135.9638"/>
<polygon fill="#191970" stroke="#191970" points="52.2573,-132.7205 41.7301,-131.5249 49.214,-139.0244 52.2573,-132.7205"/>
</g>
<!-- Node20 -->
<g id="node21" class="node">
<title>Node20</title>
<g id="a_node21"><a xlink:href="MatrixFixSize_8h.html" target="_top" xlink:title="iDynTree/Core/MatrixFixSize.h">
<polygon fill="none" stroke="#000000" points="173.5,-168.5 173.5,-187.5 334.5,-187.5 334.5,-168.5 173.5,-168.5"/>
<text text-anchor="middle" x="254" y="-175.5" font-family="FreeSans.ttf" font-size="10.00" fill="#000000">iDynTree/Core/MatrixFixSize.h</text>
</a>
</g>
</g>
<!-- Node19&#45;&gt;Node20 -->
<g id="edge24" class="edge">
<title>Node19&#45;&gt;Node20</title>
<path fill="none" stroke="#191970" d="M254,-224.2455C254,-216.9382 254,-206.6944 254,-197.7046"/>
<polygon fill="#191970" stroke="#191970" points="257.5001,-197.6426 254,-187.6427 250.5001,-197.6427 257.5001,-197.6426"/>
</g>
<!-- Node20&#45;&gt;Node3 -->
<g id="edge25" class="edge">
<title>Node20&#45;&gt;Node3</title>
<path fill="none" stroke="#191970" d="M271.4179,-168.4442C304.0062,-150.5949 371.4273,-113.8177 377,-112 484.4675,-76.9463 519.0653,-91.5919 634.3797,-76.1796"/>
<polygon fill="#191970" stroke="#191970" points="634.874,-79.6446 644.2998,-74.8067 633.9144,-72.7107 634.874,-79.6446"/>
</g>
<!-- Node20&#45;&gt;Node7 -->
<g id="edge31" class="edge">
<title>Node20&#45;&gt;Node7</title>
<path fill="none" stroke="#191970" d="M192.4469,-168.4986C151.6873,-160.8051 103.5102,-148.5293 91,-132 59.5106,-90.3941 129.0869,-46.2066 171.8074,-24.1922"/>
<polygon fill="#191970" stroke="#191970" points="173.6153,-27.2011 180.9842,-19.5886 170.4764,-20.9443 173.6153,-27.2011"/>
</g>
<!-- Node20&#45;&gt;Node15 -->
<g id="edge33" class="edge">
<title>Node20&#45;&gt;Node15</title>
<path fill="none" stroke="#191970" d="M211.0552,-168.4463C171.2638,-159.4698 110.4821,-145.4419 58,-132 56.7275,-131.6741 55.4311,-131.3372 54.1225,-130.993"/>
<polygon fill="#191970" stroke="#191970" points="54.6134,-127.5004 44.047,-128.276 52.7908,-134.259 54.6134,-127.5004"/>
</g>
<!-- Node20&#45;&gt;Node16 -->
<g id="edge35" class="edge">
<title>Node20&#45;&gt;Node16</title>
<path fill="none" stroke="#191970" d="M281.505,-168.3733C307.8802,-159.1419 347.8851,-145.1402 377.0358,-134.9375"/>
<polygon fill="#191970" stroke="#191970" points="378.5716,-138.1082 386.8539,-131.5011 376.2591,-131.5012 378.5716,-138.1082"/>
</g>
<!-- Node20&#45;&gt;Node17 -->
<g id="edge32" class="edge">
<title>Node20&#45;&gt;Node17</title>
<path fill="none" stroke="#191970" d="M297.9925,-168.4769C335.8434,-160.1155 392.1257,-147.2851 449.7774,-132.2225"/>
<polygon fill="#191970" stroke="#191970" points="451.0137,-135.5164 459.7935,-129.5864 449.232,-128.7469 451.0137,-135.5164"/>
</g>
<!-- Node21 -->
<g id="node22" class="node">
<title>Node21</title>
<g id="a_node22"><a xlink:href="MatrixView_8h.html" target="_top" xlink:title="iDynTree/Core/MatrixView.h">
<polygon fill="none" stroke="#000000" points="178.5,-112.5 178.5,-131.5 329.5,-131.5 329.5,-112.5 178.5,-112.5"/>
<text text-anchor="middle" x="254" y="-119.5" font-family="FreeSans.ttf" font-size="10.00" fill="#000000">iDynTree/Core/MatrixView.h</text>
</a>
</g>
</g>
<!-- Node20&#45;&gt;Node21 -->
<g id="edge26" class="edge">
<title>Node20&#45;&gt;Node21</title>
<path fill="none" stroke="#191970" d="M254,-168.2455C254,-160.9382 254,-150.6944 254,-141.7046"/>
<polygon fill="#191970" stroke="#191970" points="257.5001,-141.6426 254,-131.6427 250.5001,-141.6427 257.5001,-141.6426"/>
</g>
<!-- Node22 -->
<g id="node23" class="node">
<title>Node22</title>
<polygon fill="none" stroke="#bfbfbf" points="100,-112.5 100,-131.5 160,-131.5 160,-112.5 100,-112.5"/>
<text text-anchor="middle" x="130" y="-119.5" font-family="FreeSans.ttf" font-size="10.00" fill="#000000">iostream</text>
</g>
<!-- Node20&#45;&gt;Node22 -->
<g id="edge34" class="edge">
<title>Node20&#45;&gt;Node22</title>
<path fill="none" stroke="#191970" d="M232.6836,-168.3733C212.7784,-159.3838 182.8564,-145.8706 160.44,-135.7471"/>
<polygon fill="#191970" stroke="#191970" points="161.5925,-132.4272 151.0382,-131.5011 158.7113,-138.8068 161.5925,-132.4272"/>
</g>
<!-- Node21&#45;&gt;Node3 -->
<g id="edge30" class="edge">
<title>Node21&#45;&gt;Node3</title>
<path fill="none" stroke="#191970" d="M329.8146,-113.4626C404.6868,-104.8962 522.7347,-91.0291 634.2322,-76.2124"/>
<polygon fill="#191970" stroke="#191970" points="634.8589,-79.6599 644.3083,-74.8684 633.9333,-72.7214 634.8589,-79.6599"/>
</g>
<!-- Node21&#45;&gt;Node6 -->
<g id="edge29" class="edge">
<title>Node21&#45;&gt;Node6</title>
<path fill="none" stroke="#191970" d="M307.2802,-112.4369C361.4618,-102.712 445.4031,-87.6456 502.8841,-77.3285"/>
<polygon fill="#191970" stroke="#191970" points="503.7152,-80.7353 512.9395,-75.5237 502.4785,-73.8454 503.7152,-80.7353"/>
</g>
<!-- Node21&#45;&gt;Node7 -->
<g id="edge27" class="edge">
<title>Node21&#45;&gt;Node7</title>
<path fill="none" stroke="#191970" d="M249.5665,-112.4509C240.9703,-93.936 221.8989,-52.8591 210.6908,-28.7187"/>
<polygon fill="#191970" stroke="#191970" points="213.808,-27.1211 206.4223,-19.5249 207.4589,-30.0689 213.808,-27.1211"/>
</g>
<!-- Node21&#45;&gt;Node13 -->
<g id="edge28" class="edge">
<title>Node21&#45;&gt;Node13</title>
<path fill="none" stroke="#191970" d="M256.302,-112.4509C260.7256,-94.1013 270.4915,-53.5908 276.3306,-29.3693"/>
<polygon fill="#191970" stroke="#191970" points="279.7627,-30.0667 278.7038,-19.5249 272.9576,-28.4261 279.7627,-30.0667"/>
</g>
</g>
</svg>
