<?xml version="1.0" encoding="UTF-8" standalone="no"?>
<!DOCTYPE svg PUBLIC "-//W3C//DTD SVG 1.1//EN"
 "http://www.w3.org/Graphics/SVG/1.1/DTD/svg11.dtd">
<!-- Generated by graphviz version 2.40.1 (20161225.0304)
 -->
<!-- Title: GeometryElement.cpp Pages: 1 -->
<svg width="1589pt" height="532pt"
 viewBox="0.00 0.00 1589.00 532.00" xmlns="http://www.w3.org/2000/svg" xmlns:xlink="http://www.w3.org/1999/xlink">
<g id="graph0" class="graph" transform="scale(1 1) rotate(0) translate(4 528)">
<title>GeometryElement.cpp</title>
<!-- Node0 -->
<g id="node1" class="node">
<title>Node0</title>
<polygon fill="#bfbfbf" stroke="#000000" points="461,-504.5 461,-523.5 587,-523.5 587,-504.5 461,-504.5"/>
<text text-anchor="middle" x="524" y="-511.5" font-family="FreeSans.ttf" font-size="10.00" fill="#000000">GeometryElement.cpp</text>
</g>
<!-- Node1 -->
<g id="node2" class="node">
<title>Node1</title>
<g id="a_node2"><a xlink:href="GeometryElement_8h.html" target="_top" xlink:title="GeometryElement.h">
<polygon fill="none" stroke="#000000" points="219.5,-448.5 219.5,-467.5 334.5,-467.5 334.5,-448.5 219.5,-448.5"/>
<text text-anchor="middle" x="277" y="-455.5" font-family="FreeSans.ttf" font-size="10.00" fill="#000000">GeometryElement.h</text>
</a>
</g>
</g>
<!-- Node0&#45;&gt;Node1 -->
<g id="edge1" class="edge">
<title>Node0&#45;&gt;Node1</title>
<path fill="none" stroke="#191970" d="M481.8198,-504.4369C439.5477,-494.8529 374.3938,-480.0812 328.9583,-469.78"/>
<polygon fill="#191970" stroke="#191970" points="329.5326,-466.3215 319.0062,-467.5237 327.9848,-473.1482 329.5326,-466.3215"/>
</g>
<!-- Node8 -->
<g id="node9" class="node">
<title>Node8</title>
<g id="a_node9"><a xlink:href="URDFParsingUtils_8h.html" target="_top" xlink:title="URDFParsingUtils.h">
<polygon fill="none" stroke="#000000" points="956,-448.5 956,-467.5 1066,-467.5 1066,-448.5 956,-448.5"/>
<text text-anchor="middle" x="1011" y="-455.5" font-family="FreeSans.ttf" font-size="10.00" fill="#000000">URDFParsingUtils.h</text>
</a>
</g>
</g>
<!-- Node0&#45;&gt;Node8 -->
<g id="edge8" class="edge">
<title>Node0&#45;&gt;Node8</title>
<path fill="none" stroke="#191970" d="M587.1675,-506.7364C679.9135,-496.0716 852.0679,-476.2756 945.9019,-465.4856"/>
<polygon fill="#191970" stroke="#191970" points="946.3048,-468.9624 955.8395,-464.3429 945.5051,-462.0083 946.3048,-468.9624"/>
</g>
<!-- Node16 -->
<g id="node17" class="node">
<title>Node16</title>
<g id="a_node17"><a xlink:href="Utils_8h.html" target="_top" xlink:title="iDynTree/Core/Utils.h">
<polygon fill="none" stroke="#000000" points="1304.5,-56.5 1304.5,-75.5 1423.5,-75.5 1423.5,-56.5 1304.5,-56.5"/>
<text text-anchor="middle" x="1364" y="-63.5" font-family="FreeSans.ttf" font-size="10.00" fill="#000000">iDynTree/Core/Utils.h</text>
</a>
</g>
</g>
<!-- Node0&#45;&gt;Node16 -->
<g id="edge63" class="edge">
<title>Node0&#45;&gt;Node16</title>
<path fill="none" stroke="#191970" d="M587.1643,-512.4016C785.5398,-506.5525 1383,-482.2729 1383,-402 1383,-402 1383,-402 1383,-178 1383,-145.2688 1375.0148,-107.9052 1369.3978,-85.6716"/>
<polygon fill="#191970" stroke="#191970" points="1372.7289,-84.5763 1366.8035,-75.7934 1365.9585,-86.3545 1372.7289,-84.5763"/>
</g>
<!-- Node36 -->
<g id="node37" class="node">
<title>Node36</title>
<g id="a_node37"><a xlink:href="XMLAttribute_8h.html" target="_top" xlink:title="iDynTree/XMLAttribute.h">
<polygon fill="none" stroke="#000000" points="309,-280.5 309,-299.5 443,-299.5 443,-280.5 309,-280.5"/>
<text text-anchor="middle" x="376" y="-287.5" font-family="FreeSans.ttf" font-size="10.00" fill="#000000">iDynTree/XMLAttribute.h</text>
</a>
</g>
</g>
<!-- Node0&#45;&gt;Node36 -->
<g id="edge61" class="edge">
<title>Node0&#45;&gt;Node36</title>
<path fill="none" stroke="#191970" d="M493.0565,-504.3621C473.8995,-497.0351 449.9902,-485.2398 434,-468 391.9181,-422.6295 380.3495,-346.2881 377.1839,-310.1396"/>
<polygon fill="#191970" stroke="#191970" points="380.6549,-309.6187 376.4233,-299.9056 373.6742,-310.1375 380.6549,-309.6187"/>
</g>
<!-- Node37 -->
<g id="node38" class="node">
<title>Node37</title>
<g id="a_node38"><a xlink:href="SolidShapes_8h.html" target="_top" xlink:title="iDynTree/Model/SolidShapes.h">
<polygon fill="none" stroke="#000000" points="442.5,-448.5 442.5,-467.5 605.5,-467.5 605.5,-448.5 442.5,-448.5"/>
<text text-anchor="middle" x="524" y="-455.5" font-family="FreeSans.ttf" font-size="10.00" fill="#000000">iDynTree/Model/SolidShapes.h</text>
</a>
</g>
</g>
<!-- Node0&#45;&gt;Node37 -->
<g id="edge64" class="edge">
<title>Node0&#45;&gt;Node37</title>
<path fill="none" stroke="#191970" d="M524,-504.2455C524,-496.9382 524,-486.6944 524,-477.7046"/>
<polygon fill="#191970" stroke="#191970" points="527.5001,-477.6426 524,-467.6427 520.5001,-477.6427 527.5001,-477.6426"/>
</g>
<!-- Node2 -->
<g id="node3" class="node">
<title>Node2</title>
<g id="a_node3"><a xlink:href="XMLElement_8h.html" target="_top" xlink:title="iDynTree/XMLElement.h">
<polygon fill="none" stroke="#000000" points="181,-392.5 181,-411.5 313,-411.5 313,-392.5 181,-392.5"/>
<text text-anchor="middle" x="247" y="-399.5" font-family="FreeSans.ttf" font-size="10.00" fill="#000000">iDynTree/XMLElement.h</text>
</a>
</g>
</g>
<!-- Node1&#45;&gt;Node2 -->
<g id="edge2" class="edge">
<title>Node1&#45;&gt;Node2</title>
<path fill="none" stroke="#191970" d="M271.7744,-448.2455C267.6877,-440.617 261.8865,-429.7881 256.925,-420.5267"/>
<polygon fill="#191970" stroke="#191970" points="259.9732,-418.8047 252.1657,-411.6427 253.8028,-422.1103 259.9732,-418.8047"/>
</g>
<!-- Node3 -->
<g id="node4" class="node">
<title>Node3</title>
<polygon fill="none" stroke="#bfbfbf" points="187.5,-336.5 187.5,-355.5 252.5,-355.5 252.5,-336.5 187.5,-336.5"/>
<text text-anchor="middle" x="220" y="-343.5" font-family="FreeSans.ttf" font-size="10.00" fill="#000000">functional</text>
</g>
<!-- Node2&#45;&gt;Node3 -->
<g id="edge3" class="edge">
<title>Node2&#45;&gt;Node3</title>
<path fill="none" stroke="#191970" d="M242.297,-392.2455C238.6576,-384.6973 233.5076,-374.0158 229.0738,-364.8197"/>
<polygon fill="#191970" stroke="#191970" points="232.1449,-363.1303 224.6491,-355.6427 225.8395,-366.1704 232.1449,-363.1303"/>
</g>
<!-- Node4 -->
<g id="node5" class="node">
<title>Node4</title>
<polygon fill="none" stroke="#bfbfbf" points="0,-336.5 0,-355.5 58,-355.5 58,-336.5 0,-336.5"/>
<text text-anchor="middle" x="29" y="-343.5" font-family="FreeSans.ttf" font-size="10.00" fill="#000000">memory</text>
</g>
<!-- Node2&#45;&gt;Node4 -->
<g id="edge4" class="edge">
<title>Node2&#45;&gt;Node4</title>
<path fill="none" stroke="#191970" d="M209.4021,-392.4746C175.0364,-383.7496 122.5426,-370.376 67.9023,-356.2221"/>
<polygon fill="#191970" stroke="#191970" points="68.5989,-352.787 58.0405,-353.665 66.8419,-359.5629 68.5989,-352.787"/>
</g>
<!-- Node5 -->
<g id="node6" class="node">
<title>Node5</title>
<polygon fill="none" stroke="#bfbfbf" points="590,-112.5 590,-131.5 634,-131.5 634,-112.5 590,-112.5"/>
<text text-anchor="middle" x="612" y="-119.5" font-family="FreeSans.ttf" font-size="10.00" fill="#000000">string</text>
</g>
<!-- Node2&#45;&gt;Node5 -->
<g id="edge5" class="edge">
<title>Node2&#45;&gt;Node5</title>
<path fill="none" stroke="#191970" d="M252.0168,-392.4109C261.4745,-373.4144 281,-329.4221 281,-290 281,-290 281,-290 281,-234 281,-171.3775 496.2686,-136.9184 579.6,-125.9252"/>
<polygon fill="#191970" stroke="#191970" points="580.2977,-129.3643 589.7682,-124.6145 579.4028,-122.4217 580.2977,-129.3643"/>
</g>
<!-- Node6 -->
<g id="node7" class="node">
<title>Node6</title>
<polygon fill="none" stroke="#bfbfbf" points="76.5,-336.5 76.5,-355.5 169.5,-355.5 169.5,-336.5 76.5,-336.5"/>
<text text-anchor="middle" x="123" y="-343.5" font-family="FreeSans.ttf" font-size="10.00" fill="#000000">unordered_map</text>
</g>
<!-- Node2&#45;&gt;Node6 -->
<g id="edge6" class="edge">
<title>Node2&#45;&gt;Node6</title>
<path fill="none" stroke="#191970" d="M225.6836,-392.3733C205.7784,-383.3838 175.8564,-369.8706 153.44,-359.7471"/>
<polygon fill="#191970" stroke="#191970" points="154.5925,-356.4272 144.0382,-355.5011 151.7113,-362.8068 154.5925,-356.4272"/>
</g>
<!-- Node7 -->
<g id="node8" class="node">
<title>Node7</title>
<polygon fill="none" stroke="#bfbfbf" points="395.5,-336.5 395.5,-355.5 442.5,-355.5 442.5,-336.5 395.5,-336.5"/>
<text text-anchor="middle" x="419" y="-343.5" font-family="FreeSans.ttf" font-size="10.00" fill="#000000">vector</text>
</g>
<!-- Node2&#45;&gt;Node7 -->
<g id="edge7" class="edge">
<title>Node2&#45;&gt;Node7</title>
<path fill="none" stroke="#191970" d="M276.5679,-392.3733C306.9022,-382.4969 354.0075,-367.1603 385.6521,-356.8575"/>
<polygon fill="#191970" stroke="#191970" points="386.917,-360.1265 395.3422,-353.7026 384.7499,-353.4704 386.917,-360.1265"/>
</g>
<!-- Node8&#45;&gt;Node5 -->
<g id="edge12" class="edge">
<title>Node8&#45;&gt;Node5</title>
<path fill="none" stroke="#191970" d="M1011,-448.4116C1011,-429.0538 1011,-383.9167 1011,-346 1011,-346 1011,-346 1011,-290 1011,-259.4754 1012.7373,-246.3991 992,-224 944.1532,-172.3191 726.8257,-137.7147 644.1005,-126.2093"/>
<polygon fill="#191970" stroke="#191970" points="644.406,-122.7185 634.0237,-124.83 643.4567,-129.6539 644.406,-122.7185"/>
</g>
<!-- Node8&#45;&gt;Node7 -->
<g id="edge13" class="edge">
<title>Node8&#45;&gt;Node7</title>
<path fill="none" stroke="#191970" d="M955.9827,-454.4548C859.067,-447.7862 661.9282,-432.2089 596,-412 577.7528,-406.4067 575.5635,-399.4679 558,-392 522.7909,-377.0293 480.9338,-363.7611 452.4174,-355.3686"/>
<polygon fill="#191970" stroke="#191970" points="453.1314,-351.9314 442.552,-352.5031 451.1788,-358.6536 453.1314,-351.9314"/>
</g>
<!-- Node9 -->
<g id="node10" class="node">
<title>Node9</title>
<polygon fill="none" stroke="#bfbfbf" points="1039.5,-392.5 1039.5,-411.5 1086.5,-411.5 1086.5,-392.5 1039.5,-392.5"/>
<text text-anchor="middle" x="1063" y="-399.5" font-family="FreeSans.ttf" font-size="10.00" fill="#000000">cmath</text>
</g>
<!-- Node8&#45;&gt;Node9 -->
<g id="edge9" class="edge">
<title>Node8&#45;&gt;Node9</title>
<path fill="none" stroke="#191970" d="M1020.0577,-448.2455C1027.5142,-440.2155 1038.2634,-428.6394 1047.1417,-419.0781"/>
<polygon fill="#191970" stroke="#191970" points="1049.8063,-421.3522 1054.0461,-411.6427 1044.6768,-416.589 1049.8063,-421.3522"/>
</g>
<!-- Node10 -->
<g id="node11" class="node">
<title>Node10</title>
<polygon fill="none" stroke="#bfbfbf" points="499.5,-392.5 499.5,-411.5 548.5,-411.5 548.5,-392.5 499.5,-392.5"/>
<text text-anchor="middle" x="524" y="-399.5" font-family="FreeSans.ttf" font-size="10.00" fill="#000000">cstdlib</text>
</g>
<!-- Node8&#45;&gt;Node10 -->
<g id="edge10" class="edge">
<title>Node8&#45;&gt;Node10</title>
<path fill="none" stroke="#191970" d="M955.8058,-454.9817C870.88,-449.7427 703.2775,-437.0427 563,-412 561.5378,-411.739 560.0496,-411.4524 558.5498,-411.1462"/>
<polygon fill="#191970" stroke="#191970" points="559.1617,-407.6963 548.6363,-408.9066 557.6192,-414.5243 559.1617,-407.6963"/>
</g>
<!-- Node11 -->
<g id="node12" class="node">
<title>Node11</title>
<polygon fill="none" stroke="#bfbfbf" points="1223,-112.5 1223,-131.5 1279,-131.5 1279,-112.5 1223,-112.5"/>
<text text-anchor="middle" x="1251" y="-119.5" font-family="FreeSans.ttf" font-size="10.00" fill="#000000">sstream</text>
</g>
<!-- Node8&#45;&gt;Node11 -->
<g id="edge11" class="edge">
<title>Node8&#45;&gt;Node11</title>
<path fill="none" stroke="#191970" d="M1066.0628,-454.2093C1116.2134,-449.2158 1191.4593,-437.8032 1252,-412 1298.6259,-392.1275 1345,-396.6842 1345,-346 1345,-346 1345,-346 1345,-234 1345,-202.9365 1341.183,-192.4325 1322,-168 1311.6091,-154.7656 1296.2994,-144.1641 1282.5543,-136.4893"/>
<polygon fill="#191970" stroke="#191970" points="1283.8465,-133.214 1273.3681,-131.6472 1280.5824,-139.4064 1283.8465,-133.214"/>
</g>
<!-- Node12 -->
<g id="node13" class="node">
<title>Node12</title>
<g id="a_node13"><a xlink:href="Transform_8h.html" target="_top" xlink:title="iDynTree/Core/Transform.h">
<polygon fill="none" stroke="#000000" points="772,-392.5 772,-411.5 918,-411.5 918,-392.5 772,-392.5"/>
<text text-anchor="middle" x="845" y="-399.5" font-family="FreeSans.ttf" font-size="10.00" fill="#000000">iDynTree/Core/Transform.h</text>
</a>
</g>
</g>
<!-- Node8&#45;&gt;Node12 -->
<g id="edge14" class="edge">
<title>Node8&#45;&gt;Node12</title>
<path fill="none" stroke="#191970" d="M982.4636,-448.3733C954.9798,-439.1016 913.2314,-425.0178 882.9548,-414.804"/>
<polygon fill="#191970" stroke="#191970" points="883.7582,-411.3813 873.164,-411.5011 881.5206,-418.0141 883.7582,-411.3813"/>
</g>
<!-- Node15 -->
<g id="node16" class="node">
<title>Node15</title>
<g id="a_node16"><a xlink:href="VectorFixSize_8h.html" target="_top" xlink:title="iDynTree/Core/VectorFixSize.h">
<polygon fill="none" stroke="#000000" points="1151.5,-168.5 1151.5,-187.5 1312.5,-187.5 1312.5,-168.5 1151.5,-168.5"/>
<text text-anchor="middle" x="1232" y="-175.5" font-family="FreeSans.ttf" font-size="10.00" fill="#000000">iDynTree/Core/VectorFixSize.h</text>
</a>
</g>
</g>
<!-- Node8&#45;&gt;Node15 -->
<g id="edge59" class="edge">
<title>Node8&#45;&gt;Node15</title>
<path fill="none" stroke="#191970" d="M1066.3281,-448.7263C1152.0012,-432.7782 1307,-396.8924 1307,-346 1307,-346 1307,-346 1307,-290 1307,-250.4003 1274.2299,-214.2155 1252.0124,-194.2336"/>
<polygon fill="#191970" stroke="#191970" points="1254.2356,-191.5288 1244.3847,-187.6286 1249.6533,-196.8206 1254.2356,-191.5288"/>
</g>
<!-- Node35 -->
<g id="node36" class="node">
<title>Node35</title>
<polygon fill="none" stroke="#bfbfbf" points="1105,-392.5 1105,-411.5 1163,-411.5 1163,-392.5 1105,-392.5"/>
<text text-anchor="middle" x="1134" y="-399.5" font-family="FreeSans.ttf" font-size="10.00" fill="#000000">fpconv.h</text>
</g>
<!-- Node8&#45;&gt;Node35 -->
<g id="edge60" class="edge">
<title>Node8&#45;&gt;Node35</title>
<path fill="none" stroke="#191970" d="M1032.1445,-448.3733C1051.8892,-439.3838 1081.5698,-425.8706 1103.8055,-415.7471"/>
<polygon fill="#191970" stroke="#191970" points="1105.4806,-418.8302 1113.1315,-411.5011 1102.58,-412.4594 1105.4806,-418.8302"/>
</g>
<!-- Node12&#45;&gt;Node5 -->
<g id="edge58" class="edge">
<title>Node12&#45;&gt;Node5</title>
<path fill="none" stroke="#191970" d="M777.2053,-392.4502C745.349,-385.7541 707.8972,-374.5515 678,-356 649.6487,-338.4078 648.0256,-326.6882 628,-300 610.3846,-276.5238 601.5936,-272.0639 593,-244 583.1066,-211.6913 583.8198,-201.0178 591,-168 593.0425,-158.6079 597.1789,-148.8357 601.2447,-140.7264"/>
<polygon fill="#191970" stroke="#191970" points="604.3909,-142.2651 606.0235,-131.7968 598.2191,-138.9622 604.3909,-142.2651"/>
</g>
<!-- Node13 -->
<g id="node14" class="node">
<title>Node13</title>
<g id="a_node14"><a xlink:href="Position_8h.html" target="_top" xlink:title="iDynTree/Core/Position.h">
<polygon fill="none" stroke="#000000" points="687,-336.5 687,-355.5 823,-355.5 823,-336.5 687,-336.5"/>
<text text-anchor="middle" x="755" y="-343.5" font-family="FreeSans.ttf" font-size="10.00" fill="#000000">iDynTree/Core/Position.h</text>
</a>
</g>
</g>
<!-- Node12&#45;&gt;Node13 -->
<g id="edge15" class="edge">
<title>Node12&#45;&gt;Node13</title>
<path fill="none" stroke="#191970" d="M829.3232,-392.2455C815.5144,-383.6534 795.1807,-371.0014 779.2708,-361.1018"/>
<polygon fill="#191970" stroke="#191970" points="780.8368,-357.954 770.4972,-355.6427 777.1387,-363.8974 780.8368,-357.954"/>
</g>
<!-- Node29 -->
<g id="node30" class="node">
<title>Node29</title>
<g id="a_node30"><a xlink:href="Rotation_8h.html" target="_top" xlink:title="iDynTree/Core/Rotation.h">
<polygon fill="none" stroke="#000000" points="819.5,-280.5 819.5,-299.5 956.5,-299.5 956.5,-280.5 819.5,-280.5"/>
<text text-anchor="middle" x="888" y="-287.5" font-family="FreeSans.ttf" font-size="10.00" fill="#000000">iDynTree/Core/Rotation.h</text>
</a>
</g>
</g>
<!-- Node12&#45;&gt;Node29 -->
<g id="edge56" class="edge">
<title>Node12&#45;&gt;Node29</title>
<path fill="none" stroke="#191970" d="M848.6662,-392.4509C855.7428,-374.0186 871.4045,-333.2254 880.6888,-309.043"/>
<polygon fill="#191970" stroke="#191970" points="884.0263,-310.115 884.3431,-299.5249 877.4914,-307.606 884.0263,-310.115"/>
</g>
<!-- Node32 -->
<g id="node33" class="node">
<title>Node32</title>
<g id="a_node33"><a xlink:href="MatrixFixSize_8h.html" target="_top" xlink:title="iDynTree/Core/MatrixFixSize.h">
<polygon fill="none" stroke="#000000" points="970.5,-168.5 970.5,-187.5 1131.5,-187.5 1131.5,-168.5 970.5,-168.5"/>
<text text-anchor="middle" x="1051" y="-175.5" font-family="FreeSans.ttf" font-size="10.00" fill="#000000">iDynTree/Core/MatrixFixSize.h</text>
</a>
</g>
</g>
<!-- Node12&#45;&gt;Node32 -->
<g id="edge57" class="edge">
<title>Node12&#45;&gt;Node32</title>
<path fill="none" stroke="#191970" d="M860.6549,-392.3586C895.2107,-370.3113 978.615,-312.7741 1025,-244 1034.672,-229.6595 1041.5573,-211.1879 1045.8024,-197.4349"/>
<polygon fill="#191970" stroke="#191970" points="1049.2346,-198.1643 1048.6435,-187.586 1042.5089,-196.2241 1049.2346,-198.1643"/>
</g>
<!-- Node13&#45;&gt;Node5 -->
<g id="edge55" class="edge">
<title>Node13&#45;&gt;Node5</title>
<path fill="none" stroke="#191970" d="M726.707,-336.3917C690.651,-322.4337 629.9004,-292.7515 604,-244 586.5723,-211.1965 596.71,-166.2309 604.8699,-141.0601"/>
<polygon fill="#191970" stroke="#191970" points="608.1886,-142.1726 608.1598,-131.5778 601.5753,-139.878 608.1886,-142.1726"/>
</g>
<!-- Node14 -->
<g id="node15" class="node">
<title>Node14</title>
<g id="a_node15"><a xlink:href="PositionRaw_8h.html" target="_top" xlink:title="iDynTree/Core/PositionRaw.h">
<polygon fill="none" stroke="#000000" points="613,-224.5 613,-243.5 769,-243.5 769,-224.5 613,-224.5"/>
<text text-anchor="middle" x="691" y="-231.5" font-family="FreeSans.ttf" font-size="10.00" fill="#000000">iDynTree/Core/PositionRaw.h</text>
</a>
</g>
</g>
<!-- Node13&#45;&gt;Node14 -->
<g id="edge16" class="edge">
<title>Node13&#45;&gt;Node14</title>
<path fill="none" stroke="#191970" d="M749.5434,-336.4509C738.9162,-317.8533 715.2811,-276.4919 701.5122,-252.3964"/>
<polygon fill="#191970" stroke="#191970" points="704.4431,-250.4708 696.4428,-243.5249 698.3654,-253.9438 704.4431,-250.4708"/>
</g>
<!-- Node13&#45;&gt;Node29 -->
<g id="edge36" class="edge">
<title>Node13&#45;&gt;Node29</title>
<path fill="none" stroke="#191970" d="M777.8635,-336.3733C799.405,-327.3032 831.8838,-313.6279 855.9956,-303.4755"/>
<polygon fill="#191970" stroke="#191970" points="857.5767,-306.6075 865.4348,-299.5011 854.8603,-300.156 857.5767,-306.6075"/>
</g>
<!-- Node14&#45;&gt;Node5 -->
<g id="edge35" class="edge">
<title>Node14&#45;&gt;Node5</title>
<path fill="none" stroke="#191970" d="M684.2645,-224.4509C671.0299,-205.688 641.452,-163.7548 624.5257,-139.758"/>
<polygon fill="#191970" stroke="#191970" points="627.3426,-137.6792 618.7184,-131.5249 621.6224,-141.714 627.3426,-137.6792"/>
</g>
<!-- Node14&#45;&gt;Node15 -->
<g id="edge17" class="edge">
<title>Node14&#45;&gt;Node15</title>
<path fill="none" stroke="#191970" d="M769.0615,-226.2016C858.8207,-217.1925 1010.5828,-201.8314 1141,-188 1141.1037,-187.989 1141.2075,-187.978 1141.3114,-187.967"/>
<polygon fill="#191970" stroke="#191970" points="1141.5552,-191.4609 1151.1272,-186.9193 1140.8122,-184.5005 1141.5552,-191.4609"/>
</g>
<!-- Node15&#45;&gt;Node5 -->
<g id="edge31" class="edge">
<title>Node15&#45;&gt;Node5</title>
<path fill="none" stroke="#191970" d="M1151.1337,-169.0172C1147.7107,-168.6674 1144.3216,-168.3269 1141,-168 952.9129,-149.4903 726.8123,-131.1255 644.2103,-124.5445"/>
<polygon fill="#191970" stroke="#191970" points="644.4366,-121.0516 634.1907,-123.748 643.8819,-128.0296 644.4366,-121.0516"/>
</g>
<!-- Node15&#45;&gt;Node11 -->
<g id="edge32" class="edge">
<title>Node15&#45;&gt;Node11</title>
<path fill="none" stroke="#191970" d="M1235.3095,-168.2455C1237.8433,-160.7776 1241.4177,-150.2427 1244.515,-141.1137"/>
<polygon fill="#191970" stroke="#191970" points="1247.8298,-142.237 1247.7284,-131.6427 1241.2009,-139.9879 1247.8298,-142.237"/>
</g>
<!-- Node15&#45;&gt;Node16 -->
<g id="edge18" class="edge">
<title>Node15&#45;&gt;Node16</title>
<path fill="none" stroke="#191970" d="M1249.4726,-168.3416C1264.3812,-159.7217 1286.0348,-146.2843 1303,-132 1320.5937,-117.1865 1338.151,-97.55 1349.8805,-83.5561"/>
<polygon fill="#191970" stroke="#191970" points="1352.7233,-85.6099 1356.379,-75.6657 1347.3199,-81.1597 1352.7233,-85.6099"/>
</g>
<!-- Node19 -->
<g id="node20" class="node">
<title>Node19</title>
<g id="a_node20"><a xlink:href="Span_8h.html" target="_top" xlink:title="iDynTree/Core/Span.h">
<polygon fill="none" stroke="#000000" points="1112.5,-56.5 1112.5,-75.5 1233.5,-75.5 1233.5,-56.5 1112.5,-56.5"/>
<text text-anchor="middle" x="1173" y="-63.5" font-family="FreeSans.ttf" font-size="10.00" fill="#000000">iDynTree/Core/Span.h</text>
</a>
</g>
</g>
<!-- Node15&#45;&gt;Node19 -->
<g id="edge21" class="edge">
<title>Node15&#45;&gt;Node19</title>
<path fill="none" stroke="#191970" d="M1250.4389,-168.4741C1271.8766,-156.1 1302.5746,-133.5272 1288,-112 1277.2689,-96.1497 1260.0962,-85.7606 1242.2591,-78.9511"/>
<polygon fill="#191970" stroke="#191970" points="1242.9127,-75.4743 1232.318,-75.5243 1240.6314,-82.0922 1242.9127,-75.4743"/>
</g>
<!-- Node20 -->
<g id="node21" class="node">
<title>Node20</title>
<polygon fill="none" stroke="#bfbfbf" points="849,-.5 849,-19.5 901,-19.5 901,-.5 849,-.5"/>
<text text-anchor="middle" x="875" y="-7.5" font-family="FreeSans.ttf" font-size="10.00" fill="#000000">cassert</text>
</g>
<!-- Node15&#45;&gt;Node20 -->
<g id="edge33" class="edge">
<title>Node15&#45;&gt;Node20</title>
<path fill="none" stroke="#191970" d="M1151.2143,-169.0806C1070.5283,-159.5749 956.0828,-144.2394 939,-132 904.1398,-107.0235 886.7163,-57.1883 879.405,-29.5672"/>
<polygon fill="#191970" stroke="#191970" points="882.7257,-28.4139 876.9396,-19.5386 875.9281,-30.085 882.7257,-28.4139"/>
</g>
<!-- Node28 -->
<g id="node29" class="node">
<title>Node28</title>
<polygon fill="none" stroke="#bfbfbf" points="1155,-112.5 1155,-131.5 1205,-131.5 1205,-112.5 1155,-112.5"/>
<text text-anchor="middle" x="1180" y="-119.5" font-family="FreeSans.ttf" font-size="10.00" fill="#000000">cstring</text>
</g>
<!-- Node15&#45;&gt;Node28 -->
<g id="edge34" class="edge">
<title>Node15&#45;&gt;Node28</title>
<path fill="none" stroke="#191970" d="M1222.9423,-168.2455C1215.4858,-160.2155 1204.7366,-148.6394 1195.8583,-139.0781"/>
<polygon fill="#191970" stroke="#191970" points="1198.3232,-136.589 1188.9539,-131.6427 1193.1937,-141.3522 1198.3232,-136.589"/>
</g>
<!-- Node17 -->
<g id="node18" class="node">
<title>Node17</title>
<polygon fill="none" stroke="#bfbfbf" points="1429.5,-.5 1429.5,-19.5 1482.5,-19.5 1482.5,-.5 1429.5,-.5"/>
<text text-anchor="middle" x="1456" y="-7.5" font-family="FreeSans.ttf" font-size="10.00" fill="#000000">cstddef</text>
</g>
<!-- Node16&#45;&gt;Node17 -->
<g id="edge19" class="edge">
<title>Node16&#45;&gt;Node17</title>
<path fill="none" stroke="#191970" d="M1380.0252,-56.2455C1394.1408,-47.6534 1414.9263,-35.0014 1431.1899,-25.1018"/>
<polygon fill="#191970" stroke="#191970" points="1433.4363,-27.8319 1440.1585,-19.6427 1429.7966,-21.8525 1433.4363,-27.8319"/>
</g>
<!-- Node18 -->
<g id="node19" class="node">
<title>Node18</title>
<polygon fill="none" stroke="#bfbfbf" points="1501,-.5 1501,-19.5 1581,-19.5 1581,-.5 1501,-.5"/>
<text text-anchor="middle" x="1541" y="-7.5" font-family="FreeSans.ttf" font-size="10.00" fill="#000000">CoreExport.h</text>
</g>
<!-- Node16&#45;&gt;Node18 -->
<g id="edge20" class="edge">
<title>Node16&#45;&gt;Node18</title>
<path fill="none" stroke="#191970" d="M1394.4274,-56.3733C1423.9872,-47.021 1469.0226,-32.7725 1501.3695,-22.5385"/>
<polygon fill="#191970" stroke="#191970" points="1502.4913,-25.8546 1510.9697,-19.5011 1500.3797,-19.1807 1502.4913,-25.8546"/>
</g>
<!-- Node19&#45;&gt;Node17 -->
<g id="edge25" class="edge">
<title>Node19&#45;&gt;Node17</title>
<path fill="none" stroke="#191970" d="M1232.1882,-56.4626C1280.1564,-48.3949 1349.6707,-35.9406 1419.4796,-19.9638"/>
<polygon fill="#191970" stroke="#191970" points="1420.3753,-23.3491 1429.3297,-17.6862 1418.7982,-16.5291 1420.3753,-23.3491"/>
</g>
<!-- Node19&#45;&gt;Node20 -->
<g id="edge22" class="edge">
<title>Node19&#45;&gt;Node20</title>
<path fill="none" stroke="#191970" d="M1112.3116,-57.0581C1058.9954,-48.7955 979.468,-35.4815 911,-20 910.9011,-19.9776 910.8021,-19.9552 910.703,-19.9326"/>
<polygon fill="#191970" stroke="#191970" points="911.8177,-16.6025 901.2713,-17.6151 910.1473,-23.4003 911.8177,-16.6025"/>
</g>
<!-- Node21 -->
<g id="node22" class="node">
<title>Node21</title>
<polygon fill="none" stroke="#bfbfbf" points="1287,-.5 1287,-19.5 1351,-19.5 1351,-.5 1287,-.5"/>
<text text-anchor="middle" x="1319" y="-7.5" font-family="FreeSans.ttf" font-size="10.00" fill="#000000">algorithm</text>
</g>
<!-- Node19&#45;&gt;Node21 -->
<g id="edge23" class="edge">
<title>Node19&#45;&gt;Node21</title>
<path fill="none" stroke="#191970" d="M1198.0983,-56.3733C1221.9555,-47.2226 1258.0335,-33.3844 1284.571,-23.2057"/>
<polygon fill="#191970" stroke="#191970" points="1286.1459,-26.3503 1294.2292,-19.5011 1283.639,-19.8145 1286.1459,-26.3503"/>
</g>
<!-- Node22 -->
<g id="node23" class="node">
<title>Node22</title>
<polygon fill="none" stroke="#bfbfbf" points="1369,-.5 1369,-19.5 1411,-19.5 1411,-.5 1369,-.5"/>
<text text-anchor="middle" x="1390" y="-7.5" font-family="FreeSans.ttf" font-size="10.00" fill="#000000">array</text>
</g>
<!-- Node19&#45;&gt;Node22 -->
<g id="edge24" class="edge">
<title>Node19&#45;&gt;Node22</title>
<path fill="none" stroke="#191970" d="M1215.9654,-56.4677C1251.8802,-48.2676 1304.6264,-35.6887 1358.9603,-20.1461"/>
<polygon fill="#191970" stroke="#191970" points="1360.1253,-23.4527 1368.761,-17.3147 1358.1824,-16.7277 1360.1253,-23.4527"/>
</g>
<!-- Node23 -->
<g id="node24" class="node">
<title>Node23</title>
<polygon fill="none" stroke="#bfbfbf" points="1006.5,-.5 1006.5,-19.5 1059.5,-19.5 1059.5,-.5 1006.5,-.5"/>
<text text-anchor="middle" x="1033" y="-7.5" font-family="FreeSans.ttf" font-size="10.00" fill="#000000">iterator</text>
</g>
<!-- Node19&#45;&gt;Node23 -->
<g id="edge26" class="edge">
<title>Node19&#45;&gt;Node23</title>
<path fill="none" stroke="#191970" d="M1148.9331,-56.3733C1126.1572,-47.2629 1091.7656,-33.5062 1066.351,-23.3404"/>
<polygon fill="#191970" stroke="#191970" points="1067.3375,-19.9654 1056.7528,-19.5011 1064.7377,-26.4648 1067.3375,-19.9654"/>
</g>
<!-- Node24 -->
<g id="node25" class="node">
<title>Node24</title>
<polygon fill="none" stroke="#bfbfbf" points="1078,-.5 1078,-19.5 1122,-19.5 1122,-.5 1078,-.5"/>
<text text-anchor="middle" x="1100" y="-7.5" font-family="FreeSans.ttf" font-size="10.00" fill="#000000">limits</text>
</g>
<!-- Node19&#45;&gt;Node24 -->
<g id="edge27" class="edge">
<title>Node19&#45;&gt;Node24</title>
<path fill="none" stroke="#191970" d="M1160.2844,-56.2455C1149.398,-47.8943 1133.5117,-35.7076 1120.78,-25.9408"/>
<polygon fill="#191970" stroke="#191970" points="1122.6346,-22.9523 1112.5699,-19.6427 1118.3739,-28.5063 1122.6346,-22.9523"/>
</g>
<!-- Node25 -->
<g id="node26" class="node">
<title>Node25</title>
<polygon fill="none" stroke="#bfbfbf" points="1140.5,-.5 1140.5,-19.5 1205.5,-19.5 1205.5,-.5 1140.5,-.5"/>
<text text-anchor="middle" x="1173" y="-7.5" font-family="FreeSans.ttf" font-size="10.00" fill="#000000">stdexcept</text>
</g>
<!-- Node19&#45;&gt;Node25 -->
<g id="edge28" class="edge">
<title>Node19&#45;&gt;Node25</title>
<path fill="none" stroke="#191970" d="M1173,-56.2455C1173,-48.9382 1173,-38.6944 1173,-29.7046"/>
<polygon fill="#191970" stroke="#191970" points="1176.5001,-29.6426 1173,-19.6427 1169.5001,-29.6427 1176.5001,-29.6426"/>
</g>
<!-- Node26 -->
<g id="node27" class="node">
<title>Node26</title>
<polygon fill="none" stroke="#bfbfbf" points="919.5,-.5 919.5,-19.5 988.5,-19.5 988.5,-.5 919.5,-.5"/>
<text text-anchor="middle" x="954" y="-7.5" font-family="FreeSans.ttf" font-size="10.00" fill="#000000">type_traits</text>
</g>
<!-- Node19&#45;&gt;Node26 -->
<g id="edge29" class="edge">
<title>Node19&#45;&gt;Node26</title>
<path fill="none" stroke="#191970" d="M1135.3526,-56.3733C1097.3588,-46.6579 1038.7018,-31.6589 998.4464,-21.3653"/>
<polygon fill="#191970" stroke="#191970" points="999.1876,-17.9423 988.6323,-18.8557 997.4534,-24.7241 999.1876,-17.9423"/>
</g>
<!-- Node27 -->
<g id="node28" class="node">
<title>Node27</title>
<polygon fill="none" stroke="#bfbfbf" points="1223.5,-.5 1223.5,-19.5 1268.5,-19.5 1268.5,-.5 1223.5,-.5"/>
<text text-anchor="middle" x="1246" y="-7.5" font-family="FreeSans.ttf" font-size="10.00" fill="#000000">utility</text>
</g>
<!-- Node19&#45;&gt;Node27 -->
<g id="edge30" class="edge">
<title>Node19&#45;&gt;Node27</title>
<path fill="none" stroke="#191970" d="M1185.7156,-56.2455C1196.602,-47.8943 1212.4883,-35.7076 1225.22,-25.9408"/>
<polygon fill="#191970" stroke="#191970" points="1227.6261,-28.5063 1233.4301,-19.6427 1223.3654,-22.9523 1227.6261,-28.5063"/>
</g>
<!-- Node29&#45;&gt;Node5 -->
<g id="edge37" class="edge">
<title>Node29&#45;&gt;Node5</title>
<path fill="none" stroke="#191970" d="M872.3702,-280.4862C826.5557,-252.5991 692.3238,-170.8927 636.643,-137.0001"/>
<polygon fill="#191970" stroke="#191970" points="638.1623,-133.8275 627.8004,-131.6177 634.5226,-139.8069 638.1623,-133.8275"/>
</g>
<!-- Node29&#45;&gt;Node15 -->
<g id="edge54" class="edge">
<title>Node29&#45;&gt;Node15</title>
<path fill="none" stroke="#191970" d="M956.8902,-286.0868C1056.4978,-279.7155 1230.9715,-265.5995 1250,-244 1261.5925,-230.8412 1253.8241,-210.9052 1245.1723,-196.3875"/>
<polygon fill="#191970" stroke="#191970" points="1247.9424,-194.2273 1239.5539,-187.7555 1242.0756,-198.0459 1247.9424,-194.2273"/>
</g>
<!-- Node30 -->
<g id="node31" class="node">
<title>Node30</title>
<g id="a_node31"><a xlink:href="GeomVector3_8h.html" target="_top" xlink:title="iDynTree/Core/GeomVector3.h">
<polygon fill="none" stroke="#000000" points="1077.5,-224.5 1077.5,-243.5 1240.5,-243.5 1240.5,-224.5 1077.5,-224.5"/>
<text text-anchor="middle" x="1159" y="-231.5" font-family="FreeSans.ttf" font-size="10.00" fill="#000000">iDynTree/Core/GeomVector3.h</text>
</a>
</g>
</g>
<!-- Node29&#45;&gt;Node30 -->
<g id="edge38" class="edge">
<title>Node29&#45;&gt;Node30</title>
<path fill="none" stroke="#191970" d="M934.2786,-280.4369C980.9505,-270.7925 1053.0449,-255.8948 1102.9331,-245.5858"/>
<polygon fill="#191970" stroke="#191970" points="1103.8274,-248.975 1112.9122,-243.5237 1102.4108,-242.1198 1103.8274,-248.975"/>
</g>
<!-- Node31 -->
<g id="node32" class="node">
<title>Node31</title>
<g id="a_node32"><a xlink:href="RotationRaw_8h.html" target="_top" xlink:title="iDynTree/Core/RotationRaw.h">
<polygon fill="none" stroke="#000000" points="825,-224.5 825,-243.5 983,-243.5 983,-224.5 825,-224.5"/>
<text text-anchor="middle" x="904" y="-231.5" font-family="FreeSans.ttf" font-size="10.00" fill="#000000">iDynTree/Core/RotationRaw.h</text>
</a>
</g>
</g>
<!-- Node29&#45;&gt;Node31 -->
<g id="edge40" class="edge">
<title>Node29&#45;&gt;Node31</title>
<path fill="none" stroke="#191970" d="M890.787,-280.2455C892.8977,-272.8579 895.866,-262.4689 898.4547,-253.4087"/>
<polygon fill="#191970" stroke="#191970" points="901.863,-254.2195 901.245,-243.6427 895.1323,-252.2964 901.863,-254.2195"/>
</g>
<!-- Node30&#45;&gt;Node15 -->
<g id="edge39" class="edge">
<title>Node30&#45;&gt;Node15</title>
<path fill="none" stroke="#191970" d="M1171.7156,-224.2455C1182.602,-215.8943 1198.4883,-203.7076 1211.22,-193.9408"/>
<polygon fill="#191970" stroke="#191970" points="1213.6261,-196.5063 1219.4301,-187.6427 1209.3654,-190.9523 1213.6261,-196.5063"/>
</g>
<!-- Node31&#45;&gt;Node5 -->
<g id="edge53" class="edge">
<title>Node31&#45;&gt;Node5</title>
<path fill="none" stroke="#191970" d="M893.4195,-224.345C877.0079,-209.8943 843.8695,-182.7646 811,-168 755.326,-142.9919 684.5595,-130.8178 644.162,-125.5248"/>
<polygon fill="#191970" stroke="#191970" points="644.4489,-122.0335 634.092,-124.2664 643.5808,-128.9794 644.4489,-122.0335"/>
</g>
<!-- Node31&#45;&gt;Node32 -->
<g id="edge41" class="edge">
<title>Node31&#45;&gt;Node32</title>
<path fill="none" stroke="#191970" d="M929.2702,-224.3733C953.3966,-215.1822 989.9362,-201.2624 1016.6877,-191.0713"/>
<polygon fill="#191970" stroke="#191970" points="1017.9607,-194.3318 1026.0596,-187.5011 1015.4687,-187.7904 1017.9607,-194.3318"/>
</g>
<!-- Node32&#45;&gt;Node5 -->
<g id="edge50" class="edge">
<title>Node32&#45;&gt;Node5</title>
<path fill="none" stroke="#191970" d="M976.032,-168.4369C878.8992,-156.0464 713.7921,-134.9849 644.3209,-126.1229"/>
<polygon fill="#191970" stroke="#191970" points="644.7628,-122.651 634.4003,-124.8574 643.877,-129.5948 644.7628,-122.651"/>
</g>
<!-- Node32&#45;&gt;Node11 -->
<g id="edge52" class="edge">
<title>Node32&#45;&gt;Node11</title>
<path fill="none" stroke="#191970" d="M1085.3812,-168.3733C1120.9077,-158.4259 1176.217,-142.9393 1213.0152,-132.6358"/>
<polygon fill="#191970" stroke="#191970" points="1214.1855,-135.9427 1222.8714,-129.876 1212.2981,-129.202 1214.1855,-135.9427"/>
</g>
<!-- Node32&#45;&gt;Node16 -->
<g id="edge42" class="edge">
<title>Node32&#45;&gt;Node16</title>
<path fill="none" stroke="#191970" d="M1061.813,-168.2756C1078.5841,-153.7344 1112.4435,-126.4879 1146,-112 1193.2773,-91.5882 1250.3385,-79.966 1294.2219,-73.5117"/>
<polygon fill="#191970" stroke="#191970" points="1294.8152,-76.9627 1304.226,-72.0958 1293.8342,-70.0318 1294.8152,-76.9627"/>
</g>
<!-- Node32&#45;&gt;Node20 -->
<g id="edge48" class="edge">
<title>Node32&#45;&gt;Node20</title>
<path fill="none" stroke="#191970" d="M981.0811,-168.4745C917.5395,-159.1021 832.182,-144.4306 822,-132 795.4597,-99.5983 833.1291,-51.8713 857.3473,-26.7982"/>
<polygon fill="#191970" stroke="#191970" points="860.0459,-29.0491 864.6392,-19.5017 855.0947,-24.1009 860.0459,-29.0491"/>
</g>
<!-- Node32&#45;&gt;Node28 -->
<g id="edge49" class="edge">
<title>Node32&#45;&gt;Node28</title>
<path fill="none" stroke="#191970" d="M1073.1759,-168.3733C1093.9766,-159.3435 1125.2917,-145.7494 1148.6458,-135.6111"/>
<polygon fill="#191970" stroke="#191970" points="1150.3343,-138.6938 1158.1135,-131.5011 1147.5468,-132.2727 1150.3343,-138.6938"/>
</g>
<!-- Node33 -->
<g id="node34" class="node">
<title>Node33</title>
<g id="a_node34"><a xlink:href="MatrixView_8h.html" target="_top" xlink:title="iDynTree/Core/MatrixView.h">
<polygon fill="none" stroke="#000000" points="947.5,-112.5 947.5,-131.5 1098.5,-131.5 1098.5,-112.5 947.5,-112.5"/>
<text text-anchor="middle" x="1023" y="-119.5" font-family="FreeSans.ttf" font-size="10.00" fill="#000000">iDynTree/Core/MatrixView.h</text>
</a>
</g>
</g>
<!-- Node32&#45;&gt;Node33 -->
<g id="edge43" class="edge">
<title>Node32&#45;&gt;Node33</title>
<path fill="none" stroke="#191970" d="M1046.1228,-168.2455C1042.3487,-160.6973 1037.0079,-150.0158 1032.4099,-140.8197"/>
<polygon fill="#191970" stroke="#191970" points="1035.424,-139.0217 1027.8213,-131.6427 1029.163,-142.1522 1035.424,-139.0217"/>
</g>
<!-- Node34 -->
<g id="node35" class="node">
<title>Node34</title>
<polygon fill="none" stroke="#bfbfbf" points="831,-112.5 831,-131.5 891,-131.5 891,-112.5 831,-112.5"/>
<text text-anchor="middle" x="861" y="-119.5" font-family="FreeSans.ttf" font-size="10.00" fill="#000000">iostream</text>
</g>
<!-- Node32&#45;&gt;Node34 -->
<g id="edge51" class="edge">
<title>Node32&#45;&gt;Node34</title>
<path fill="none" stroke="#191970" d="M1018.3378,-168.3733C985.7942,-158.7814 935.7765,-144.0394 900.9004,-133.7601"/>
<polygon fill="#191970" stroke="#191970" points="901.6278,-130.3257 891.0463,-130.8557 899.6488,-137.0402 901.6278,-130.3257"/>
</g>
<!-- Node33&#45;&gt;Node16 -->
<g id="edge47" class="edge">
<title>Node33&#45;&gt;Node16</title>
<path fill="none" stroke="#191970" d="M1081.2325,-112.4369C1140.6955,-102.6717 1232.9541,-87.5207 1295.7965,-77.2006"/>
<polygon fill="#191970" stroke="#191970" points="1296.707,-80.598 1306.0076,-75.5237 1295.5726,-73.6905 1296.707,-80.598"/>
</g>
<!-- Node33&#45;&gt;Node19 -->
<g id="edge46" class="edge">
<title>Node33&#45;&gt;Node19</title>
<path fill="none" stroke="#191970" d="M1048.7859,-112.3733C1073.4047,-103.1822 1110.69,-89.2624 1137.9875,-79.0713"/>
<polygon fill="#191970" stroke="#191970" points="1139.4063,-82.2777 1147.5506,-75.5011 1136.958,-75.7198 1139.4063,-82.2777"/>
</g>
<!-- Node33&#45;&gt;Node20 -->
<g id="edge44" class="edge">
<title>Node33&#45;&gt;Node20</title>
<path fill="none" stroke="#191970" d="M1010.3816,-112.4509C984.8232,-93.1094 926.7293,-49.1465 895.6016,-25.5904"/>
<polygon fill="#191970" stroke="#191970" points="897.6726,-22.7684 887.5865,-19.5249 893.4485,-28.3503 897.6726,-22.7684"/>
</g>
<!-- Node33&#45;&gt;Node26 -->
<g id="edge45" class="edge">
<title>Node33&#45;&gt;Node26</title>
<path fill="none" stroke="#191970" d="M1017.1171,-112.4509C1005.6087,-93.7707 979.9512,-52.1238 965.1362,-28.0761"/>
<polygon fill="#191970" stroke="#191970" points="968.0932,-26.203 959.868,-19.5249 962.1334,-29.8747 968.0932,-26.203"/>
</g>
<!-- Node36&#45;&gt;Node5 -->
<g id="edge62" class="edge">
<title>Node36&#45;&gt;Node5</title>
<path fill="none" stroke="#191970" d="M379.6414,-280.4228C388.8831,-257.417 415.4988,-198.6802 457,-168 493.6613,-140.8978 546.196,-129.6693 579.7044,-125.0818"/>
<polygon fill="#191970" stroke="#191970" points="580.381,-128.5246 589.871,-123.814 579.5147,-121.5784 580.381,-128.5246"/>
</g>
<!-- Node37&#45;&gt;Node5 -->
<g id="edge66" class="edge">
<title>Node37&#45;&gt;Node5</title>
<path fill="none" stroke="#191970" d="M515.6473,-448.3763C508.2779,-439.4634 497.6961,-425.5743 491,-412 477.4403,-384.512 471,-376.6506 471,-346 471,-346 471,-346 471,-234 471,-178.5489 538.6899,-146.1709 580.269,-131.513"/>
<polygon fill="#191970" stroke="#191970" points="581.6092,-134.7548 589.9688,-128.2457 579.3746,-128.1211 581.6092,-134.7548"/>
</g>
<!-- Node37&#45;&gt;Node7 -->
<g id="edge67" class="edge">
<title>Node37&#45;&gt;Node7</title>
<path fill="none" stroke="#191970" d="M505.5584,-448.3697C491.0763,-440.1415 471.0736,-427.2356 457,-412 444.1497,-398.0887 433.7832,-379.083 427.1439,-365.0387"/>
<polygon fill="#191970" stroke="#191970" points="430.292,-363.5057 422.9859,-355.8328 423.9125,-366.3871 430.292,-363.5057"/>
</g>
<!-- Node37&#45;&gt;Node10 -->
<g id="edge65" class="edge">
<title>Node37&#45;&gt;Node10</title>
<path fill="none" stroke="#191970" d="M524,-448.2455C524,-440.9382 524,-430.6944 524,-421.7046"/>
<polygon fill="#191970" stroke="#191970" points="527.5001,-421.6426 524,-411.6427 520.5001,-421.6427 527.5001,-421.6426"/>
</g>
<!-- Node37&#45;&gt;Node12 -->
<g id="edge68" class="edge">
<title>Node37&#45;&gt;Node12</title>
<path fill="none" stroke="#191970" d="M578.8171,-448.4369C634.6771,-438.6918 721.2821,-423.5832 780.4305,-413.2645"/>
<polygon fill="#191970" stroke="#191970" points="781.1593,-416.6903 790.409,-411.5237 779.9562,-409.7944 781.1593,-416.6903"/>
</g>
<!-- Node38 -->
<g id="node39" class="node">
<title>Node38</title>
<g id="a_node39"><a xlink:href="Indices_8h.html" target="_top" xlink:title="iDynTree/Model/Indices.h">
<polygon fill="none" stroke="#000000" points="605,-392.5 605,-411.5 743,-411.5 743,-392.5 605,-392.5"/>
<text text-anchor="middle" x="674" y="-399.5" font-family="FreeSans.ttf" font-size="10.00" fill="#000000">iDynTree/Model/Indices.h</text>
</a>
</g>
</g>
<!-- Node37&#45;&gt;Node38 -->
<g id="edge69" class="edge">
<title>Node37&#45;&gt;Node38</title>
<path fill="none" stroke="#191970" d="M549.7859,-448.3733C574.4047,-439.1822 611.69,-425.2624 638.9875,-415.0713"/>
<polygon fill="#191970" stroke="#191970" points="640.4063,-418.2777 648.5506,-411.5011 637.958,-411.7198 640.4063,-418.2777"/>
</g>
<!-- Node38&#45;&gt;Node5 -->
<g id="edge70" class="edge">
<title>Node38&#45;&gt;Node5</title>
<path fill="none" stroke="#191970" d="M663.554,-392.4766C648.6681,-379.1202 620.2422,-354.399 594,-336 568.2239,-317.9278 548.6097,-327.3377 533,-300 503.9098,-249.0536 503.7604,-218.8608 533,-168 543.1169,-150.4021 562.8436,-138.9064 580.0527,-131.808"/>
<polygon fill="#191970" stroke="#191970" points="581.6853,-134.9327 589.8026,-128.1238 579.2109,-128.3846 581.6853,-134.9327"/>
</g>
<!-- Node39 -->
<g id="node40" class="node">
<title>Node39</title>
<polygon fill="none" stroke="#bfbfbf" points="499,-336.5 499,-355.5 585,-355.5 585,-336.5 499,-336.5"/>
<text text-anchor="middle" x="542" y="-343.5" font-family="FreeSans.ttf" font-size="10.00" fill="#000000">ModelExport.h</text>
</g>
<!-- Node38&#45;&gt;Node39 -->
<g id="edge71" class="edge">
<title>Node38&#45;&gt;Node39</title>
<path fill="none" stroke="#191970" d="M651.3084,-392.3733C629.9289,-383.3032 597.6943,-369.6279 573.7638,-359.4755"/>
<polygon fill="#191970" stroke="#191970" points="574.9683,-356.1846 564.3955,-355.5011 572.2344,-362.6287 574.9683,-356.1846"/>
</g>
</g>
</svg>
