<?xml version="1.0" encoding="UTF-8" standalone="no"?>
<!DOCTYPE svg PUBLIC "-//W3C//DTD SVG 1.1//EN"
 "http://www.w3.org/Graphics/SVG/1.1/DTD/svg11.dtd">
<!-- Generated by graphviz version 2.40.1 (20161225.0304)
 -->
<!-- Title: idyntree&#45;model&#45;view.cpp Pages: 1 -->
<svg width="2290pt" height="901pt"
 viewBox="0.00 0.00 2290.00 901.00" xmlns="http://www.w3.org/2000/svg" xmlns:xlink="http://www.w3.org/1999/xlink">
<g id="graph0" class="graph" transform="scale(1 1) rotate(0) translate(4 897)">
<title>idyntree&#45;model&#45;view.cpp</title>
<!-- Node0 -->
<g id="node1" class="node">
<title>Node0</title>
<polygon fill="#bfbfbf" stroke="#000000" points="1791,-873.5 1791,-892.5 1929,-892.5 1929,-873.5 1791,-873.5"/>
<text text-anchor="middle" x="1860" y="-880.5" font-family="FreeSans.ttf" font-size="10.00" fill="#000000">idyntree&#45;model&#45;view.cpp</text>
</g>
<!-- Node1 -->
<g id="node2" class="node">
<title>Node1</title>
<g id="a_node2"><a xlink:href="Model_8h.html" target="_top" xlink:title="iDynTree/Model/Model.h">
<polygon fill="none" stroke="#000000" points="1515.5,-705.5 1515.5,-724.5 1648.5,-724.5 1648.5,-705.5 1515.5,-705.5"/>
<text text-anchor="middle" x="1582" y="-712.5" font-family="FreeSans.ttf" font-size="10.00" fill="#000000">iDynTree/Model/Model.h</text>
</a>
</g>
</g>
<!-- Node0&#45;&gt;Node1 -->
<g id="edge1" class="edge">
<title>Node0&#45;&gt;Node1</title>
<path fill="none" stroke="#191970" d="M1850.1759,-873.3972C1836.1527,-859.9464 1809.2879,-835.1138 1784,-817 1729.4469,-777.9236 1657.7659,-745.584 1616.0984,-728.3873"/>
<polygon fill="#191970" stroke="#191970" points="1617.2615,-725.0819 1606.6801,-724.5477 1614.6189,-731.5639 1617.2615,-725.0819"/>
</g>
<!-- Node25 -->
<g id="node32" class="node">
<title>Node25</title>
<polygon fill="none" stroke="#bfbfbf" points="1972,-112.5 1972,-131.5 2032,-131.5 2032,-112.5 1972,-112.5"/>
<text text-anchor="middle" x="2002" y="-119.5" font-family="FreeSans.ttf" font-size="10.00" fill="#000000">iostream</text>
</g>
<!-- Node0&#45;&gt;Node25 -->
<g id="edge123" class="edge">
<title>Node0&#45;&gt;Node25</title>
<path fill="none" stroke="#191970" d="M1929.2122,-878.9001C2048.9324,-869.8951 2282,-843.105 2282,-771 2282,-771 2282,-771 2282,-357 2282,-258.2073 2243.8993,-227.455 2165,-168 2128.9862,-140.8616 2077.624,-129.7301 2042.2276,-125.1666"/>
<polygon fill="#191970" stroke="#191970" points="2042.5813,-121.6842 2032.2422,-123.998 2041.7676,-128.6367 2042.5813,-121.6842"/>
</g>
<!-- Node42 -->
<g id="node37" class="node">
<title>Node42</title>
<polygon fill="none" stroke="#bfbfbf" points="1806.5,-532 1806.5,-551 1855.5,-551 1855.5,-532 1806.5,-532"/>
<text text-anchor="middle" x="1831" y="-539" font-family="FreeSans.ttf" font-size="10.00" fill="#000000">cstdlib</text>
</g>
<!-- Node0&#45;&gt;Node42 -->
<g id="edge124" class="edge">
<title>Node0&#45;&gt;Node42</title>
<path fill="none" stroke="#191970" d="M1868.9063,-873.3544C1884.9375,-854.945 1917,-812.8901 1917,-771 1917,-771 1917,-771 1917,-659 1917,-615.62 1878.3579,-577.6009 1852.8787,-557.2475"/>
<polygon fill="#191970" stroke="#191970" points="1854.876,-554.3681 1844.8174,-551.0401 1850.6052,-559.9143 1854.876,-554.3681"/>
</g>
<!-- Node44 -->
<g id="node39" class="node">
<title>Node44</title>
<g id="a_node39"><a xlink:href="ModelLoader_8h.html" target="_top" xlink:title="iDynTree/ModelIO/ModelLoader.h">
<polygon fill="none" stroke="#000000" points="1599,-817.5 1599,-836.5 1775,-836.5 1775,-817.5 1599,-817.5"/>
<text text-anchor="middle" x="1687" y="-824.5" font-family="FreeSans.ttf" font-size="10.00" fill="#000000">iDynTree/ModelIO/ModelLoader.h</text>
</a>
</g>
</g>
<!-- Node0&#45;&gt;Node44 -->
<g id="edge75" class="edge">
<title>Node0&#45;&gt;Node44</title>
<path fill="none" stroke="#191970" d="M1830.2602,-873.3733C1801.493,-864.0613 1757.73,-849.8953 1726.1444,-839.671"/>
<polygon fill="#191970" stroke="#191970" points="1726.9436,-836.251 1716.3517,-836.5011 1724.7878,-842.9107 1726.9436,-836.251"/>
</g>
<!-- Node48 -->
<g id="node43" class="node">
<title>Node48</title>
<g id="a_node43"><a xlink:href="Visualizer_8h.html" target="_top" xlink:title="iDynTree/Visualizer.h">
<polygon fill="none" stroke="#000000" points="157.5,-649.5 157.5,-668.5 276.5,-668.5 276.5,-649.5 157.5,-649.5"/>
<text text-anchor="middle" x="217" y="-656.5" font-family="FreeSans.ttf" font-size="10.00" fill="#000000">iDynTree/Visualizer.h</text>
</a>
</g>
</g>
<!-- Node0&#45;&gt;Node48 -->
<g id="edge90" class="edge">
<title>Node0&#45;&gt;Node48</title>
<path fill="none" stroke="#191970" d="M1790.8407,-876.9344C1619.5861,-861.8117 1162.0729,-820.7835 781,-781 562.9895,-758.24 491.0505,-814.5903 291,-725 266.6085,-714.0766 244.5858,-692.1288 231.0294,-676.5455"/>
<polygon fill="#191970" stroke="#191970" points="233.5166,-674.0645 224.4078,-668.6532 228.154,-678.5637 233.5166,-674.0645"/>
</g>
<!-- Node53 -->
<g id="node48" class="node">
<title>Node53</title>
<g id="a_node48"><a xlink:href="cmdline_8h.html" target="_top" xlink:title="cmdline.h">
<polygon fill="none" stroke="#000000" points="2002.5,-593.5 2002.5,-612.5 2067.5,-612.5 2067.5,-593.5 2002.5,-593.5"/>
<text text-anchor="middle" x="2035" y="-600.5" font-family="FreeSans.ttf" font-size="10.00" fill="#000000">cmdline.h</text>
</a>
</g>
</g>
<!-- Node0&#45;&gt;Node53 -->
<g id="edge112" class="edge">
<title>Node0&#45;&gt;Node53</title>
<path fill="none" stroke="#191970" d="M1897.6726,-873.4724C1943.2641,-859.413 2014,-828.3576 2014,-771 2014,-771 2014,-771 2014,-715 2014,-682.1675 2022.8257,-644.834 2029.034,-622.634"/>
<polygon fill="#191970" stroke="#191970" points="2032.4701,-623.3521 2031.9014,-612.7725 2025.7485,-621.3977 2032.4701,-623.3521"/>
</g>
<!-- Node2 -->
<g id="node3" class="node">
<title>Node2</title>
<g id="a_node3"><a xlink:href="IJoint_8h.html" target="_top" xlink:title="iDynTree/Model/IJoint.h">
<polygon fill="none" stroke="#000000" points="1351,-649.5 1351,-668.5 1479,-668.5 1479,-649.5 1351,-649.5"/>
<text text-anchor="middle" x="1415" y="-656.5" font-family="FreeSans.ttf" font-size="10.00" fill="#000000">iDynTree/Model/IJoint.h</text>
</a>
</g>
</g>
<!-- Node1&#45;&gt;Node2 -->
<g id="edge2" class="edge">
<title>Node1&#45;&gt;Node2</title>
<path fill="none" stroke="#191970" d="M1553.2917,-705.3733C1525.6423,-696.1016 1483.6424,-682.0178 1453.1834,-671.804"/>
<polygon fill="#191970" stroke="#191970" points="1453.9276,-668.3621 1443.3337,-668.5011 1451.7021,-674.9989 1453.9276,-668.3621"/>
</g>
<!-- Node3 -->
<g id="node4" class="node">
<title>Node3</title>
<g id="a_node4"><a xlink:href="Indices_8h.html" target="_top" xlink:title="iDynTree/Model/Indices.h">
<polygon fill="none" stroke="#000000" points="1471,-532 1471,-551 1609,-551 1609,-532 1471,-532"/>
<text text-anchor="middle" x="1540" y="-539" font-family="FreeSans.ttf" font-size="10.00" fill="#000000">iDynTree/Model/Indices.h</text>
</a>
</g>
</g>
<!-- Node1&#45;&gt;Node3 -->
<g id="edge66" class="edge">
<title>Node1&#45;&gt;Node3</title>
<path fill="none" stroke="#191970" d="M1565.2627,-705.2988C1553.2416,-697.2823 1537.977,-684.6887 1531,-669 1515.2203,-633.5172 1525.2201,-586.9652 1533.1279,-561.0589"/>
<polygon fill="#191970" stroke="#191970" points="1536.5333,-561.905 1536.3076,-551.3126 1529.8785,-559.7339 1536.5333,-561.905"/>
</g>
<!-- Node6 -->
<g id="node7" class="node">
<title>Node6</title>
<g id="a_node7"><a xlink:href="Link_8h.html" target="_top" xlink:title="iDynTree/Model/Link.h">
<polygon fill="none" stroke="#000000" points="1209,-649.5 1209,-668.5 1333,-668.5 1333,-649.5 1209,-649.5"/>
<text text-anchor="middle" x="1271" y="-656.5" font-family="FreeSans.ttf" font-size="10.00" fill="#000000">iDynTree/Model/Link.h</text>
</a>
</g>
</g>
<!-- Node1&#45;&gt;Node6 -->
<g id="edge6" class="edge">
<title>Node1&#45;&gt;Node6</title>
<path fill="none" stroke="#191970" d="M1528.8906,-705.4369C1474.8826,-695.712 1391.2104,-680.6456 1333.9136,-670.3285"/>
<polygon fill="#191970" stroke="#191970" points="1334.3524,-666.8513 1323.8904,-668.5237 1333.1118,-673.7405 1334.3524,-666.8513"/>
</g>
<!-- Node40 -->
<g id="node35" class="node">
<title>Node40</title>
<g id="a_node35"><a xlink:href="Transform_8h.html" target="_top" xlink:title="iDynTree/Core/Transform.h">
<polygon fill="none" stroke="#000000" points="1260,-403.5 1260,-422.5 1406,-422.5 1406,-403.5 1260,-403.5"/>
<text text-anchor="middle" x="1333" y="-410.5" font-family="FreeSans.ttf" font-size="10.00" fill="#000000">iDynTree/Core/Transform.h</text>
</a>
</g>
</g>
<!-- Node1&#45;&gt;Node40 -->
<g id="edge61" class="edge">
<title>Node1&#45;&gt;Node40</title>
<path fill="none" stroke="#191970" d="M1579.6874,-705.2292C1575.5411,-687.1535 1566.9958,-647.2146 1564,-613 1563.2247,-604.145 1559.8057,-600.8371 1564,-593 1577.6105,-567.5686 1604.3895,-582.4314 1618,-557 1639.263,-517.2697 1626.8058,-487.6212 1592,-459 1565.6321,-437.3173 1481.7304,-425.2715 1416.4862,-419.0017"/>
<polygon fill="#191970" stroke="#191970" points="1416.4677,-415.485 1406.1867,-418.0444 1415.8199,-422.4549 1416.4677,-415.485"/>
</g>
<!-- Node41 -->
<g id="node36" class="node">
<title>Node41</title>
<g id="a_node36"><a xlink:href="SolidShapes_8h.html" target="_top" xlink:title="iDynTree/Model/SolidShapes.h">
<polygon fill="none" stroke="#000000" points="1573.5,-593.5 1573.5,-612.5 1736.5,-612.5 1736.5,-593.5 1573.5,-593.5"/>
<text text-anchor="middle" x="1655" y="-600.5" font-family="FreeSans.ttf" font-size="10.00" fill="#000000">iDynTree/Model/SolidShapes.h</text>
</a>
</g>
</g>
<!-- Node1&#45;&gt;Node41 -->
<g id="edge67" class="edge">
<title>Node1&#45;&gt;Node41</title>
<path fill="none" stroke="#191970" d="M1588.2239,-705.4509C1600.3995,-686.7707 1627.5443,-645.1238 1643.2182,-621.0761"/>
<polygon fill="#191970" stroke="#191970" points="1646.2635,-622.8137 1648.7918,-612.5249 1640.3992,-618.9913 1646.2635,-622.8137"/>
</g>
<!-- Node1&#45;&gt;Node42 -->
<g id="edge73" class="edge">
<title>Node1&#45;&gt;Node42</title>
<path fill="none" stroke="#191970" d="M1623.4325,-705.468C1649.8847,-698.1568 1684.1287,-686.3397 1711,-669 1757.5831,-638.9405 1798.6988,-586.9978 1818.4937,-559.6095"/>
<polygon fill="#191970" stroke="#191970" points="1821.4358,-561.5112 1824.3665,-551.3297 1815.7262,-557.4614 1821.4358,-561.5112"/>
</g>
<!-- Node43 -->
<g id="node38" class="node">
<title>Node43</title>
<polygon fill="none" stroke="#bfbfbf" points="1741.5,-532 1741.5,-551 1788.5,-551 1788.5,-532 1741.5,-532"/>
<text text-anchor="middle" x="1765" y="-539" font-family="FreeSans.ttf" font-size="10.00" fill="#000000">vector</text>
</g>
<!-- Node1&#45;&gt;Node43 -->
<g id="edge74" class="edge">
<title>Node1&#45;&gt;Node43</title>
<path fill="none" stroke="#191970" d="M1608.569,-705.494C1644.8725,-691.1361 1709.5094,-660.4496 1745,-613 1756.3067,-597.8834 1761.2222,-576.6623 1763.3587,-561.2685"/>
<polygon fill="#191970" stroke="#191970" points="1766.8449,-561.5864 1764.4749,-551.2601 1759.888,-560.8105 1766.8449,-561.5864"/>
</g>
<!-- Node2&#45;&gt;Node3 -->
<g id="edge3" class="edge">
<title>Node2&#45;&gt;Node3</title>
<path fill="none" stroke="#191970" d="M1425.2293,-649.3845C1446.4716,-629.4167 1495.5925,-583.243 1522.1631,-558.2667"/>
<polygon fill="#191970" stroke="#191970" points="1524.7403,-560.6477 1529.6294,-551.2484 1519.9459,-555.5473 1524.7403,-560.6477"/>
</g>
<!-- Node4 -->
<g id="node5" class="node">
<title>Node4</title>
<polygon fill="none" stroke="#bfbfbf" points="774,-112.5 774,-131.5 818,-131.5 818,-112.5 774,-112.5"/>
<text text-anchor="middle" x="796" y="-119.5" font-family="FreeSans.ttf" font-size="10.00" fill="#000000">string</text>
</g>
<!-- Node3&#45;&gt;Node4 -->
<g id="edge4" class="edge">
<title>Node3&#45;&gt;Node4</title>
<path fill="none" stroke="#191970" d="M1492.55,-531.997C1406.1535,-513.3237 1232,-468.7666 1232,-413 1232,-413 1232,-413 1232,-301 1232,-265.6422 1238.3035,-247.6284 1212,-224 1171.3897,-187.5198 1021.8135,-201.8105 969,-188 917.3411,-174.4914 859.8868,-150.727 825.9059,-135.7026"/>
<polygon fill="#191970" stroke="#191970" points="827.1153,-132.4095 816.5573,-131.5271 824.2606,-138.801 827.1153,-132.4095"/>
</g>
<!-- Node5 -->
<g id="node6" class="node">
<title>Node5</title>
<polygon fill="none" stroke="#bfbfbf" points="1497,-465 1497,-484 1583,-484 1583,-465 1497,-465"/>
<text text-anchor="middle" x="1540" y="-472" font-family="FreeSans.ttf" font-size="10.00" fill="#000000">ModelExport.h</text>
</g>
<!-- Node3&#45;&gt;Node5 -->
<g id="edge5" class="edge">
<title>Node3&#45;&gt;Node5</title>
<path fill="none" stroke="#191970" d="M1540,-531.9005C1540,-522.149 1540,-506.7597 1540,-494.3695"/>
<polygon fill="#191970" stroke="#191970" points="1543.5001,-494.0816 1540,-484.0817 1536.5001,-494.0817 1543.5001,-494.0816"/>
</g>
<!-- Node6&#45;&gt;Node3 -->
<g id="edge60" class="edge">
<title>Node6&#45;&gt;Node3</title>
<path fill="none" stroke="#191970" d="M1293.0134,-649.3845C1340.7171,-628.5474 1453.7534,-579.1728 1508.7986,-555.1289"/>
<polygon fill="#191970" stroke="#191970" points="1510.2968,-558.2938 1518.0597,-551.0836 1507.4948,-551.8791 1510.2968,-558.2938"/>
</g>
<!-- Node7 -->
<g id="node8" class="node">
<title>Node7</title>
<g id="a_node8"><a xlink:href="SpatialInertia_8h.html" target="_top" xlink:title="iDynTree/Core/SpatialInertia.h">
<polygon fill="none" stroke="#000000" points="991,-593.5 991,-612.5 1153,-612.5 1153,-593.5 991,-593.5"/>
<text text-anchor="middle" x="1072" y="-600.5" font-family="FreeSans.ttf" font-size="10.00" fill="#000000">iDynTree/Core/SpatialInertia.h</text>
</a>
</g>
</g>
<!-- Node6&#45;&gt;Node7 -->
<g id="edge7" class="edge">
<title>Node6&#45;&gt;Node7</title>
<path fill="none" stroke="#191970" d="M1236.7907,-649.3733C1203.2703,-639.9404 1152.0495,-625.5265 1115.619,-615.2747"/>
<polygon fill="#191970" stroke="#191970" points="1116.3372,-611.8409 1105.7629,-612.5011 1114.4409,-618.5792 1116.3372,-611.8409"/>
</g>
<!-- Node8 -->
<g id="node9" class="node">
<title>Node8</title>
<g id="a_node9"><a xlink:href="SpatialInertiaRaw_8h.html" target="_top" xlink:title="iDynTree/Core/SpatialInertia\lRaw.h">
<polygon fill="none" stroke="#ff0000" points="1299.5,-526.5 1299.5,-556.5 1452.5,-556.5 1452.5,-526.5 1299.5,-526.5"/>
<text text-anchor="start" x="1307.5" y="-544.5" font-family="FreeSans.ttf" font-size="10.00" fill="#000000">iDynTree/Core/SpatialInertia</text>
<text text-anchor="middle" x="1376" y="-533.5" font-family="FreeSans.ttf" font-size="10.00" fill="#000000">Raw.h</text>
</a>
</g>
</g>
<!-- Node7&#45;&gt;Node8 -->
<g id="edge8" class="edge">
<title>Node7&#45;&gt;Node8</title>
<path fill="none" stroke="#191970" d="M1119.1665,-593.4581C1165.1847,-584.1485 1236.198,-569.7823 1291.8994,-558.5138"/>
<polygon fill="#191970" stroke="#191970" points="1292.6508,-561.9328 1301.7582,-556.5193 1291.2627,-555.0717 1292.6508,-561.9328"/>
</g>
<!-- Node27 -->
<g id="node10" class="node">
<title>Node27</title>
<g id="a_node10"><a xlink:href="VectorFixSize_8h.html" target="_top" xlink:title="iDynTree/Core/VectorFixSize.h">
<polygon fill="none" stroke="#000000" points="1200.5,-168.5 1200.5,-187.5 1361.5,-187.5 1361.5,-168.5 1200.5,-168.5"/>
<text text-anchor="middle" x="1281" y="-175.5" font-family="FreeSans.ttf" font-size="10.00" fill="#000000">iDynTree/Core/VectorFixSize.h</text>
</a>
</g>
</g>
<!-- Node7&#45;&gt;Node27 -->
<g id="edge9" class="edge">
<title>Node7&#45;&gt;Node27</title>
<path fill="none" stroke="#191970" d="M1137.3377,-593.4282C1172.6298,-586.5314 1216.1819,-575.1553 1252,-557 1252.6535,-556.6688 1414.5975,-423.6122 1415,-423 1431.7669,-397.4927 1434,-387.5246 1434,-357 1434,-357 1434,-357 1434,-301 1434,-243.529 1367.6157,-208.4024 1322.3016,-191.1195"/>
<polygon fill="#191970" stroke="#191970" points="1323.2954,-187.7561 1312.7017,-187.6015 1320.8868,-194.3287 1323.2954,-187.7561"/>
</g>
<!-- Node28 -->
<g id="node21" class="node">
<title>Node28</title>
<g id="a_node21"><a xlink:href="Twist_8h.html" target="_top" xlink:title="iDynTree/Core/Twist.h">
<polygon fill="none" stroke="#ff0000" points="917,-532 917,-551 1039,-551 1039,-532 917,-532"/>
<text text-anchor="middle" x="978" y="-539" font-family="FreeSans.ttf" font-size="10.00" fill="#000000">iDynTree/Core/Twist.h</text>
</a>
</g>
</g>
<!-- Node7&#45;&gt;Node28 -->
<g id="edge23" class="edge">
<title>Node7&#45;&gt;Node28</title>
<path fill="none" stroke="#191970" d="M1057.3125,-593.3906C1042.2744,-583.5519 1018.6824,-568.1167 1001.1333,-556.6351"/>
<polygon fill="#191970" stroke="#191970" points="1002.8687,-553.588 992.5844,-551.0419 999.0363,-559.4457 1002.8687,-553.588"/>
</g>
<!-- Node36 -->
<g id="node22" class="node">
<title>Node36</title>
<g id="a_node22"><a xlink:href="SpatialMomentum_8h.html" target="_top" xlink:title="iDynTree/Core/SpatialMomentum.h">
<polygon fill="none" stroke="#000000" points="1057,-532 1057,-551 1243,-551 1243,-532 1057,-532"/>
<text text-anchor="middle" x="1150" y="-539" font-family="FreeSans.ttf" font-size="10.00" fill="#000000">iDynTree/Core/SpatialMomentum.h</text>
</a>
</g>
</g>
<!-- Node7&#45;&gt;Node36 -->
<g id="edge24" class="edge">
<title>Node7&#45;&gt;Node36</title>
<path fill="none" stroke="#191970" d="M1084.1875,-593.3906C1096.437,-583.7324 1115.5263,-568.6812 1129.9977,-557.271"/>
<polygon fill="#191970" stroke="#191970" points="1132.2124,-559.9819 1137.8981,-551.0419 1127.8783,-554.485 1132.2124,-559.9819"/>
</g>
<!-- Node38 -->
<g id="node33" class="node">
<title>Node38</title>
<g id="a_node33"><a xlink:href="SpatialAcc_8h.html" target="_top" xlink:title="iDynTree/Core/SpatialAcc.h">
<polygon fill="none" stroke="#ff0000" points="751,-532 751,-551 899,-551 899,-532 751,-532"/>
<text text-anchor="middle" x="825" y="-539" font-family="FreeSans.ttf" font-size="10.00" fill="#000000">iDynTree/Core/SpatialAcc.h</text>
</a>
</g>
</g>
<!-- Node7&#45;&gt;Node38 -->
<g id="edge57" class="edge">
<title>Node7&#45;&gt;Node38</title>
<path fill="none" stroke="#191970" d="M1033.6773,-593.4581C990.503,-582.7082 920.2505,-565.2162 873.3416,-553.5365"/>
<polygon fill="#191970" stroke="#191970" points="873.962,-550.0842 863.4126,-551.0643 872.2707,-556.8768 873.962,-550.0842"/>
</g>
<!-- Node39 -->
<g id="node34" class="node">
<title>Node39</title>
<g id="a_node34"><a xlink:href="Wrench_8h.html" target="_top" xlink:title="iDynTree/Core/Wrench.h">
<polygon fill="none" stroke="#000000" points="561.5,-532 561.5,-551 694.5,-551 694.5,-532 561.5,-532"/>
<text text-anchor="middle" x="628" y="-539" font-family="FreeSans.ttf" font-size="10.00" fill="#000000">iDynTree/Core/Wrench.h</text>
</a>
</g>
</g>
<!-- Node7&#45;&gt;Node39 -->
<g id="edge58" class="edge">
<title>Node7&#45;&gt;Node39</title>
<path fill="none" stroke="#191970" d="M1003.1122,-593.4581C922.2437,-582.2567 788.5252,-563.7349 704.501,-552.0964"/>
<polygon fill="#191970" stroke="#191970" points="704.8931,-548.6174 694.5074,-550.7122 703.9326,-555.5512 704.8931,-548.6174"/>
</g>
<!-- Node27&#45;&gt;Node4 -->
<g id="edge19" class="edge">
<title>Node27&#45;&gt;Node4</title>
<path fill="none" stroke="#191970" d="M1200.3677,-168.6899C1091.7697,-156.1507 903.4655,-134.4084 828.3219,-125.732"/>
<polygon fill="#191970" stroke="#191970" points="828.4146,-122.2196 818.0792,-124.5493 827.6117,-129.1734 828.4146,-122.2196"/>
</g>
<!-- Node11 -->
<g id="node11" class="node">
<title>Node11</title>
<g id="a_node11"><a xlink:href="Utils_8h.html" target="_top" xlink:title="iDynTree/Core/Utils.h">
<polygon fill="none" stroke="#000000" points="849.5,-56.5 849.5,-75.5 968.5,-75.5 968.5,-56.5 849.5,-56.5"/>
<text text-anchor="middle" x="909" y="-63.5" font-family="FreeSans.ttf" font-size="10.00" fill="#000000">iDynTree/Core/Utils.h</text>
</a>
</g>
</g>
<!-- Node27&#45;&gt;Node11 -->
<g id="edge10" class="edge">
<title>Node27&#45;&gt;Node11</title>
<path fill="none" stroke="#191970" d="M1205.0578,-168.4867C1123.7479,-157.9447 1003.7013,-141.2187 984,-132 959.6105,-120.5876 937.2196,-98.744 923.3731,-83.3183"/>
<polygon fill="#191970" stroke="#191970" points="925.7992,-80.7739 916.6012,-75.5157 920.5126,-85.3621 925.7992,-80.7739"/>
</g>
<!-- Node17 -->
<g id="node14" class="node">
<title>Node17</title>
<g id="a_node14"><a xlink:href="Span_8h.html" target="_top" xlink:title="iDynTree/Core/Span.h">
<polygon fill="none" stroke="#ff0000" points="1025.5,-56.5 1025.5,-75.5 1146.5,-75.5 1146.5,-56.5 1025.5,-56.5"/>
<text text-anchor="middle" x="1086" y="-63.5" font-family="FreeSans.ttf" font-size="10.00" fill="#000000">iDynTree/Core/Span.h</text>
</a>
</g>
</g>
<!-- Node27&#45;&gt;Node17 -->
<g id="edge13" class="edge">
<title>Node27&#45;&gt;Node17</title>
<path fill="none" stroke="#191970" d="M1281.0487,-168.4428C1280.5832,-154.1198 1277.533,-127.1547 1262,-112 1246.7751,-97.1459 1198.8445,-85.188 1156.8414,-77.1909"/>
<polygon fill="#191970" stroke="#191970" points="1157.3438,-73.7245 1146.8735,-75.3444 1156.0688,-80.6074 1157.3438,-73.7245"/>
</g>
<!-- Node15 -->
<g id="node15" class="node">
<title>Node15</title>
<polygon fill="none" stroke="#bfbfbf" points="1137,-.5 1137,-19.5 1189,-19.5 1189,-.5 1137,-.5"/>
<text text-anchor="middle" x="1163" y="-7.5" font-family="FreeSans.ttf" font-size="10.00" fill="#000000">cassert</text>
</g>
<!-- Node27&#45;&gt;Node15 -->
<g id="edge21" class="edge">
<title>Node27&#45;&gt;Node15</title>
<path fill="none" stroke="#191970" d="M1283.701,-168.0607C1286.7947,-154.6477 1290.4277,-130.3238 1282,-112 1263.4299,-71.6245 1220.1187,-41.2504 1191.1938,-24.55"/>
<polygon fill="#191970" stroke="#191970" points="1192.7947,-21.4352 1182.3577,-19.613 1189.3803,-27.5461 1192.7947,-21.4352"/>
</g>
<!-- Node26 -->
<g id="node19" class="node">
<title>Node26</title>
<polygon fill="none" stroke="#bfbfbf" points="1355,-112.5 1355,-131.5 1411,-131.5 1411,-112.5 1355,-112.5"/>
<text text-anchor="middle" x="1383" y="-119.5" font-family="FreeSans.ttf" font-size="10.00" fill="#000000">sstream</text>
</g>
<!-- Node27&#45;&gt;Node26 -->
<g id="edge20" class="edge">
<title>Node27&#45;&gt;Node26</title>
<path fill="none" stroke="#191970" d="M1298.767,-168.2455C1314.7095,-159.4928 1338.3259,-146.527 1356.4989,-136.5496"/>
<polygon fill="#191970" stroke="#191970" points="1358.3552,-139.5233 1365.4366,-131.6427 1354.9863,-133.3873 1358.3552,-139.5233"/>
</g>
<!-- Node24 -->
<g id="node20" class="node">
<title>Node24</title>
<polygon fill="none" stroke="#bfbfbf" points="1203,-112.5 1203,-131.5 1253,-131.5 1253,-112.5 1203,-112.5"/>
<text text-anchor="middle" x="1228" y="-119.5" font-family="FreeSans.ttf" font-size="10.00" fill="#000000">cstring</text>
</g>
<!-- Node27&#45;&gt;Node24 -->
<g id="edge22" class="edge">
<title>Node27&#45;&gt;Node24</title>
<path fill="none" stroke="#191970" d="M1271.7681,-168.2455C1264.1683,-160.2155 1253.2123,-148.6394 1244.1632,-139.0781"/>
<polygon fill="#191970" stroke="#191970" points="1246.542,-136.4998 1237.1261,-131.6427 1241.4579,-141.3115 1246.542,-136.4998"/>
</g>
<!-- Node12 -->
<g id="node12" class="node">
<title>Node12</title>
<polygon fill="none" stroke="#bfbfbf" points="1053.5,-.5 1053.5,-19.5 1106.5,-19.5 1106.5,-.5 1053.5,-.5"/>
<text text-anchor="middle" x="1080" y="-7.5" font-family="FreeSans.ttf" font-size="10.00" fill="#000000">cstddef</text>
</g>
<!-- Node11&#45;&gt;Node12 -->
<g id="edge11" class="edge">
<title>Node11&#45;&gt;Node12</title>
<path fill="none" stroke="#191970" d="M938.3959,-56.3733C967.52,-46.8356 1012.1937,-32.2056 1043.5571,-21.9345"/>
<polygon fill="#191970" stroke="#191970" points="1044.8217,-25.2034 1053.2357,-18.7649 1042.6431,-18.551 1044.8217,-25.2034"/>
</g>
<!-- Node13 -->
<g id="node13" class="node">
<title>Node13</title>
<polygon fill="none" stroke="#bfbfbf" points="869,-.5 869,-19.5 949,-19.5 949,-.5 869,-.5"/>
<text text-anchor="middle" x="909" y="-7.5" font-family="FreeSans.ttf" font-size="10.00" fill="#000000">CoreExport.h</text>
</g>
<!-- Node11&#45;&gt;Node13 -->
<g id="edge12" class="edge">
<title>Node11&#45;&gt;Node13</title>
<path fill="none" stroke="#191970" d="M909,-56.2455C909,-48.9382 909,-38.6944 909,-29.7046"/>
<polygon fill="#191970" stroke="#191970" points="912.5001,-29.6426 909,-19.6427 905.5001,-29.6427 912.5001,-29.6426"/>
</g>
<!-- Node17&#45;&gt;Node12 -->
<g id="edge16" class="edge">
<title>Node17&#45;&gt;Node12</title>
<path fill="none" stroke="#191970" d="M1084.9549,-56.2455C1084.172,-48.9382 1083.0744,-38.6944 1082.1112,-29.7046"/>
<polygon fill="#191970" stroke="#191970" points="1085.5786,-29.2129 1081.0331,-19.6427 1078.6185,-29.9587 1085.5786,-29.2129"/>
</g>
<!-- Node17&#45;&gt;Node15 -->
<g id="edge14" class="edge">
<title>Node17&#45;&gt;Node15</title>
<path fill="none" stroke="#191970" d="M1099.4124,-56.2455C1111.0057,-47.814 1127.9748,-35.4729 1141.4678,-25.6598"/>
<polygon fill="#191970" stroke="#191970" points="1143.7126,-28.355 1149.7413,-19.6427 1139.5953,-22.6938 1143.7126,-28.355"/>
</g>
<!-- Node18 -->
<g id="node16" class="node">
<title>Node18</title>
<polygon fill="none" stroke="#bfbfbf" points="1687,-.5 1687,-19.5 1751,-19.5 1751,-.5 1687,-.5"/>
<text text-anchor="middle" x="1719" y="-7.5" font-family="FreeSans.ttf" font-size="10.00" fill="#000000">algorithm</text>
</g>
<!-- Node17&#45;&gt;Node18 -->
<g id="edge15" class="edge">
<title>Node17&#45;&gt;Node18</title>
<path fill="none" stroke="#191970" d="M1146.6947,-60.6305C1274.2481,-49.3461 1567.3648,-23.4148 1676.7849,-13.7347"/>
<polygon fill="#191970" stroke="#191970" points="1677.1361,-17.2174 1686.7888,-12.8497 1676.5192,-10.2446 1677.1361,-17.2174"/>
</g>
<!-- Node20 -->
<g id="node17" class="node">
<title>Node20</title>
<polygon fill="none" stroke="#bfbfbf" points="977.5,-.5 977.5,-19.5 1030.5,-19.5 1030.5,-.5 977.5,-.5"/>
<text text-anchor="middle" x="1004" y="-7.5" font-family="FreeSans.ttf" font-size="10.00" fill="#000000">iterator</text>
</g>
<!-- Node17&#45;&gt;Node20 -->
<g id="edge17" class="edge">
<title>Node17&#45;&gt;Node20</title>
<path fill="none" stroke="#191970" d="M1071.7167,-56.2455C1059.253,-47.7337 1040.9549,-35.2375 1026.5208,-25.3801"/>
<polygon fill="#191970" stroke="#191970" points="1028.3515,-22.392 1018.1196,-19.6427 1024.4038,-28.1726 1028.3515,-22.392"/>
</g>
<!-- Node22 -->
<g id="node18" class="node">
<title>Node22</title>
<polygon fill="none" stroke="#bfbfbf" points="2009.5,-.5 2009.5,-19.5 2074.5,-19.5 2074.5,-.5 2009.5,-.5"/>
<text text-anchor="middle" x="2042" y="-7.5" font-family="FreeSans.ttf" font-size="10.00" fill="#000000">stdexcept</text>
</g>
<!-- Node17&#45;&gt;Node22 -->
<g id="edge18" class="edge">
<title>Node17&#45;&gt;Node22</title>
<path fill="none" stroke="#191970" d="M1146.5273,-62.4545C1324.8949,-52.0062 1845.5845,-21.5055 1998.9927,-12.5193"/>
<polygon fill="#191970" stroke="#191970" points="1999.6155,-15.9889 2009.3937,-11.91 1999.2061,-9.0008 1999.6155,-15.9889"/>
</g>
<!-- Node37 -->
<g id="node23" class="node">
<title>Node37</title>
<g id="a_node23"><a xlink:href="SpatialForceVector_8h.html" target="_top" xlink:title="iDynTree/Core/SpatialForce\lVector.h">
<polygon fill="none" stroke="#000000" points="561,-459.5 561,-489.5 709,-489.5 709,-459.5 561,-459.5"/>
<text text-anchor="start" x="569" y="-477.5" font-family="FreeSans.ttf" font-size="10.00" fill="#000000">iDynTree/Core/SpatialForce</text>
<text text-anchor="middle" x="635" y="-466.5" font-family="FreeSans.ttf" font-size="10.00" fill="#000000">Vector.h</text>
</a>
</g>
</g>
<!-- Node36&#45;&gt;Node37 -->
<g id="edge25" class="edge">
<title>Node36&#45;&gt;Node37</title>
<path fill="none" stroke="#191970" d="M1089.0908,-531.9716C1075.5717,-529.9328 1061.3071,-527.8404 1048,-526 934.3419,-510.2806 802.7793,-494.2472 719.2556,-484.3375"/>
<polygon fill="#191970" stroke="#191970" points="719.6547,-480.8604 709.3124,-483.1598 718.8313,-487.8118 719.6547,-480.8604"/>
</g>
<!-- Node37&#45;&gt;Node27 -->
<g id="edge26" class="edge">
<title>Node37&#45;&gt;Node27</title>
<path fill="none" stroke="#191970" d="M709.1899,-469.4379C770.9415,-463.422 860.3428,-450.4793 934,-423 1069.2583,-372.5392 1100.8309,-347.1006 1212,-255 1233.4596,-237.2213 1254.2676,-212.6875 1267.322,-196.1303"/>
<polygon fill="#191970" stroke="#191970" points="1270.3804,-197.897 1273.7316,-187.8461 1264.844,-193.6134 1270.3804,-197.897"/>
</g>
<!-- Node30 -->
<g id="node24" class="node">
<title>Node30</title>
<g id="a_node24"><a xlink:href="GeomVector3_8h.html" target="_top" xlink:title="iDynTree/Core/GeomVector3.h">
<polygon fill="none" stroke="#000000" points="1040.5,-230 1040.5,-249 1203.5,-249 1203.5,-230 1040.5,-230"/>
<text text-anchor="middle" x="1122" y="-237" font-family="FreeSans.ttf" font-size="10.00" fill="#000000">iDynTree/Core/GeomVector3.h</text>
</a>
</g>
</g>
<!-- Node37&#45;&gt;Node30 -->
<g id="edge27" class="edge">
<title>Node37&#45;&gt;Node30</title>
<path fill="none" stroke="#191970" d="M709.2039,-464.4292C775.9756,-454.6024 868.5697,-438.8555 902,-423 991.0306,-380.7741 1074.0215,-294.0044 1106.9993,-256.925"/>
<polygon fill="#191970" stroke="#191970" points="1109.9771,-258.8381 1113.9437,-249.0138 1104.7163,-254.2202 1109.9771,-258.8381"/>
</g>
<!-- Node31 -->
<g id="node25" class="node">
<title>Node31</title>
<g id="a_node25"><a xlink:href="SpatialVector_8h.html" target="_top" xlink:title="iDynTree/Core/SpatialVector.h">
<polygon fill="none" stroke="#000000" points="679.5,-403.5 679.5,-422.5 840.5,-422.5 840.5,-403.5 679.5,-403.5"/>
<text text-anchor="middle" x="760" y="-410.5" font-family="FreeSans.ttf" font-size="10.00" fill="#000000">iDynTree/Core/SpatialVector.h</text>
</a>
</g>
</g>
<!-- Node37&#45;&gt;Node31 -->
<g id="edge29" class="edge">
<title>Node37&#45;&gt;Node31</title>
<path fill="none" stroke="#191970" d="M665.5784,-459.4554C685.7032,-449.554 711.8639,-436.683 731.5438,-427.0004"/>
<polygon fill="#191970" stroke="#191970" points="733.2018,-430.0855 740.6294,-422.5303 730.1115,-423.8045 733.2018,-430.0855"/>
</g>
<!-- Node30&#45;&gt;Node27 -->
<g id="edge28" class="edge">
<title>Node30&#45;&gt;Node27</title>
<path fill="none" stroke="#191970" d="M1146.8438,-229.8906C1173.6807,-219.5103 1216.6233,-202.9004 1246.6753,-191.2766"/>
<polygon fill="#191970" stroke="#191970" points="1248.2667,-194.4138 1256.3307,-187.5419 1245.7414,-187.8851 1248.2667,-194.4138"/>
</g>
<!-- Node31&#45;&gt;Node11 -->
<g id="edge53" class="edge">
<title>Node31&#45;&gt;Node11</title>
<path fill="none" stroke="#191970" d="M695.3429,-403.4737C524.8373,-377.4777 76,-303.0141 76,-239.5 76,-239.5 76,-239.5 76,-178 76,-101.2225 639.0247,-74.9866 839.3136,-68.0825"/>
<polygon fill="#191970" stroke="#191970" points="839.5513,-71.5766 849.427,-67.7398 839.3141,-64.5806 839.5513,-71.5766"/>
</g>
<!-- Node31&#45;&gt;Node26 -->
<g id="edge56" class="edge">
<title>Node31&#45;&gt;Node26</title>
<path fill="none" stroke="#191970" d="M840.6604,-407.0889C956.6769,-395.1097 1173.051,-359.4585 1322,-255 1351.9909,-233.9673 1355.4634,-221.6231 1370,-188 1376.3724,-173.2606 1379.6498,-155.3144 1381.3185,-141.8584"/>
<polygon fill="#191970" stroke="#191970" points="1384.8132,-142.0907 1382.3745,-131.7803 1377.8514,-141.3611 1384.8132,-142.0907"/>
</g>
<!-- Node31&#45;&gt;Node30 -->
<g id="edge54" class="edge">
<title>Node31&#45;&gt;Node30</title>
<path fill="none" stroke="#191970" d="M766.5779,-403.2111C782.9105,-379.7354 827.8563,-320.0339 881,-291 896.6247,-282.4638 993.8205,-263.2552 1059.904,-250.8618"/>
<polygon fill="#191970" stroke="#191970" points="1060.6327,-254.2863 1069.82,-249.0094 1059.3473,-247.4053 1060.6327,-254.2863"/>
</g>
<!-- Node32 -->
<g id="node26" class="node">
<title>Node32</title>
<g id="a_node26"><a xlink:href="Position_8h.html" target="_top" xlink:title="Position.h">
<polygon fill="none" stroke="#000000" points="644.5,-347.5 644.5,-366.5 709.5,-366.5 709.5,-347.5 644.5,-347.5"/>
<text text-anchor="middle" x="677" y="-354.5" font-family="FreeSans.ttf" font-size="10.00" fill="#000000">Position.h</text>
</a>
</g>
</g>
<!-- Node31&#45;&gt;Node32 -->
<g id="edge30" class="edge">
<title>Node31&#45;&gt;Node32</title>
<path fill="none" stroke="#191970" d="M745.5425,-403.2455C732.9268,-394.7337 714.4056,-382.2375 699.7955,-372.3801"/>
<polygon fill="#191970" stroke="#191970" points="701.5391,-369.3343 691.2918,-366.6427 697.6239,-375.1371 701.5391,-369.3343"/>
</g>
<!-- Node34 -->
<g id="node28" class="node">
<title>Node34</title>
<g id="a_node28"><a xlink:href="Rotation_8h.html" target="_top" xlink:title="iDynTree/Core/Rotation.h">
<polygon fill="none" stroke="#000000" points="691.5,-291.5 691.5,-310.5 828.5,-310.5 828.5,-291.5 691.5,-291.5"/>
<text text-anchor="middle" x="760" y="-298.5" font-family="FreeSans.ttf" font-size="10.00" fill="#000000">iDynTree/Core/Rotation.h</text>
</a>
</g>
</g>
<!-- Node31&#45;&gt;Node34 -->
<g id="edge52" class="edge">
<title>Node31&#45;&gt;Node34</title>
<path fill="none" stroke="#191970" d="M760,-403.4509C760,-385.184 760,-344.9553 760,-320.6976"/>
<polygon fill="#191970" stroke="#191970" points="763.5001,-320.5249 760,-310.5249 756.5001,-320.5249 763.5001,-320.5249"/>
</g>
<!-- Node31&#45;&gt;Node25 -->
<g id="edge55" class="edge">
<title>Node31&#45;&gt;Node25</title>
<path fill="none" stroke="#191970" d="M840.6782,-405.6232C912.159,-398.3297 1019.1314,-385.5582 1111,-367 1445.9661,-299.3341 1840.3828,-174.6484 1963.4006,-134.6813"/>
<polygon fill="#191970" stroke="#191970" points="1964.7001,-137.9391 1973.1248,-131.5145 1962.5325,-131.2831 1964.7001,-137.9391"/>
</g>
<!-- Node32&#45;&gt;Node4 -->
<g id="edge51" class="edge">
<title>Node32&#45;&gt;Node4</title>
<path fill="none" stroke="#191970" d="M657.9423,-347.435C618.5848,-326.3734 534.6091,-273.8861 567,-224 611.0145,-156.2121 711.6772,-133.0978 763.6398,-125.5151"/>
<polygon fill="#191970" stroke="#191970" points="764.2116,-128.9697 773.6515,-124.1595 763.2723,-122.033 764.2116,-128.9697"/>
</g>
<!-- Node33 -->
<g id="node27" class="node">
<title>Node33</title>
<g id="a_node27"><a xlink:href="PositionRaw_8h.html" target="_top" xlink:title="iDynTree/Core/PositionRaw.h">
<polygon fill="none" stroke="#000000" points="576,-230 576,-249 732,-249 732,-230 576,-230"/>
<text text-anchor="middle" x="654" y="-237" font-family="FreeSans.ttf" font-size="10.00" fill="#000000">iDynTree/Core/PositionRaw.h</text>
</a>
</g>
</g>
<!-- Node32&#45;&gt;Node33 -->
<g id="edge31" class="edge">
<title>Node32&#45;&gt;Node33</title>
<path fill="none" stroke="#191970" d="M675.1178,-347.3845C671.3609,-328.1913 662.8645,-284.786 657.8692,-259.2663"/>
<polygon fill="#191970" stroke="#191970" points="661.2641,-258.3898 655.9082,-249.2484 654.3944,-259.7345 661.2641,-258.3898"/>
</g>
<!-- Node32&#45;&gt;Node34 -->
<g id="edge34" class="edge">
<title>Node32&#45;&gt;Node34</title>
<path fill="none" stroke="#191970" d="M691.4575,-347.2455C704.0732,-338.7337 722.5944,-326.2375 737.2045,-316.3801"/>
<polygon fill="#191970" stroke="#191970" points="739.3761,-319.1371 745.7082,-310.6427 735.4609,-313.3343 739.3761,-319.1371"/>
</g>
<!-- Node33&#45;&gt;Node4 -->
<g id="edge33" class="edge">
<title>Node33&#45;&gt;Node4</title>
<path fill="none" stroke="#191970" d="M665.6205,-229.8845C689.9597,-209.7446 746.5175,-162.945 776.5122,-138.1255"/>
<polygon fill="#191970" stroke="#191970" points="778.7459,-140.8201 784.219,-131.7484 774.2832,-135.427 778.7459,-140.8201"/>
</g>
<!-- Node33&#45;&gt;Node27 -->
<g id="edge32" class="edge">
<title>Node33&#45;&gt;Node27</title>
<path fill="none" stroke="#191970" d="M726.9866,-229.9987C744.0411,-227.9037 762.1464,-225.7807 779,-224 958.5783,-205.0268 1006.4197,-206.1054 1190.0667,-188.0711"/>
<polygon fill="#191970" stroke="#191970" points="1190.4489,-191.5505 1200.0564,-187.0845 1189.7608,-184.5844 1190.4489,-191.5505"/>
</g>
<!-- Node34&#45;&gt;Node4 -->
<g id="edge35" class="edge">
<title>Node34&#45;&gt;Node4</title>
<path fill="none" stroke="#191970" d="M761.9355,-291.3762C767.6247,-263.0883 784.3757,-179.7987 792.0628,-141.5767"/>
<polygon fill="#191970" stroke="#191970" points="795.5144,-142.1652 794.0549,-131.6714 788.6518,-140.785 795.5144,-142.1652"/>
</g>
<!-- Node34&#45;&gt;Node27 -->
<g id="edge50" class="edge">
<title>Node34&#45;&gt;Node27</title>
<path fill="none" stroke="#191970" d="M822.3452,-291.4642C879.2742,-282.2077 958.8592,-267.7299 988,-255 1009.5896,-245.5687 1009.3304,-233.2462 1031,-224 1060.847,-211.2646 1138.9043,-197.9809 1199.9319,-188.9815"/>
<polygon fill="#191970" stroke="#191970" points="1200.5647,-192.4264 1209.9546,-187.5192 1199.554,-185.4997 1200.5647,-192.4264"/>
</g>
<!-- Node34&#45;&gt;Node30 -->
<g id="edge36" class="edge">
<title>Node34&#45;&gt;Node30</title>
<path fill="none" stroke="#191970" d="M816.1653,-291.4581C880.8619,-280.4668 987.0465,-262.4272 1055.7303,-250.7585"/>
<polygon fill="#191970" stroke="#191970" points="1056.7283,-254.1392 1066.0008,-249.0137 1055.5558,-247.2381 1056.7283,-254.1392"/>
</g>
<!-- Node35 -->
<g id="node29" class="node">
<title>Node35</title>
<g id="a_node29"><a xlink:href="RotationRaw_8h.html" target="_top" xlink:title="iDynTree/Core/RotationRaw.h">
<polygon fill="none" stroke="#000000" points="788,-230 788,-249 946,-249 946,-230 788,-230"/>
<text text-anchor="middle" x="867" y="-237" font-family="FreeSans.ttf" font-size="10.00" fill="#000000">iDynTree/Core/RotationRaw.h</text>
</a>
</g>
</g>
<!-- Node34&#45;&gt;Node35 -->
<g id="edge37" class="edge">
<title>Node34&#45;&gt;Node35</title>
<path fill="none" stroke="#191970" d="M776.7188,-291.3906C794.0722,-281.4165 821.4323,-265.6908 841.4882,-254.1633"/>
<polygon fill="#191970" stroke="#191970" points="843.4728,-257.0596 850.3987,-249.0419 839.9846,-250.9907 843.4728,-257.0596"/>
</g>
<!-- Node35&#45;&gt;Node4 -->
<g id="edge49" class="edge">
<title>Node35&#45;&gt;Node4</title>
<path fill="none" stroke="#191970" d="M861.1898,-229.8845C849.3842,-210.3471 822.4187,-165.7211 807.1247,-140.4106"/>
<polygon fill="#191970" stroke="#191970" points="810.0579,-138.4971 801.8905,-131.7484 804.0667,-142.1173 810.0579,-138.4971"/>
</g>
<!-- Node10 -->
<g id="node30" class="node">
<title>Node10</title>
<g id="a_node30"><a xlink:href="MatrixFixSize_8h.html" target="_top" xlink:title="iDynTree/Core/MatrixFixSize.h">
<polygon fill="none" stroke="#000000" points="1021.5,-168.5 1021.5,-187.5 1182.5,-187.5 1182.5,-168.5 1021.5,-168.5"/>
<text text-anchor="middle" x="1102" y="-175.5" font-family="FreeSans.ttf" font-size="10.00" fill="#000000">iDynTree/Core/MatrixFixSize.h</text>
</a>
</g>
</g>
<!-- Node35&#45;&gt;Node10 -->
<g id="edge38" class="edge">
<title>Node35&#45;&gt;Node10</title>
<path fill="none" stroke="#191970" d="M903.4609,-229.9581C944.4515,-219.2308 1011.0969,-201.7895 1055.726,-190.11"/>
<polygon fill="#191970" stroke="#191970" points="1056.6655,-193.4821 1065.4536,-187.5643 1054.8932,-186.7101 1056.6655,-193.4821"/>
</g>
<!-- Node10&#45;&gt;Node4 -->
<g id="edge46" class="edge">
<title>Node10&#45;&gt;Node4</title>
<path fill="none" stroke="#191970" d="M1049.7444,-168.4369C986.1855,-156.8052 880.8716,-137.532 828.1496,-127.8836"/>
<polygon fill="#191970" stroke="#191970" points="828.4994,-124.3896 818.0327,-126.0321 827.2393,-131.2752 828.4994,-124.3896"/>
</g>
<!-- Node10&#45;&gt;Node11 -->
<g id="edge39" class="edge">
<title>Node10&#45;&gt;Node11</title>
<path fill="none" stroke="#191970" d="M1028.5849,-168.4446C1000.4566,-161.8625 969.5091,-150.7516 946,-132 930.9602,-120.0037 921.0191,-100.1328 915.2651,-85.3232"/>
<polygon fill="#191970" stroke="#191970" points="918.4596,-83.8611 911.8024,-75.6191 911.8668,-86.2137 918.4596,-83.8611"/>
</g>
<!-- Node10&#45;&gt;Node15 -->
<g id="edge44" class="edge">
<title>Node10&#45;&gt;Node15</title>
<path fill="none" stroke="#191970" d="M1117.8815,-168.4626C1129.7791,-160.3716 1145.2818,-147.6041 1153,-132 1169.2597,-99.1275 1168.1421,-55.1353 1165.6868,-29.9528"/>
<polygon fill="#191970" stroke="#191970" points="1169.1405,-29.3488 1164.5221,-19.8136 1162.1862,-30.1477 1169.1405,-29.3488"/>
</g>
<!-- Node10&#45;&gt;Node26 -->
<g id="edge48" class="edge">
<title>Node10&#45;&gt;Node26</title>
<path fill="none" stroke="#191970" d="M1149.9863,-168.4369C1205.1263,-157.4481 1294.488,-139.6394 1345.0204,-129.5689"/>
<polygon fill="#191970" stroke="#191970" points="1345.7646,-132.9895 1354.8877,-127.6025 1344.3964,-126.1245 1345.7646,-132.9895"/>
</g>
<!-- Node10&#45;&gt;Node24 -->
<g id="edge45" class="edge">
<title>Node10&#45;&gt;Node24</title>
<path fill="none" stroke="#191970" d="M1123.6602,-168.3733C1143.9772,-159.3435 1174.564,-145.7494 1197.375,-135.6111"/>
<polygon fill="#191970" stroke="#191970" points="1198.9059,-138.7609 1206.6225,-131.5011 1196.0628,-132.3642 1198.9059,-138.7609"/>
</g>
<!-- Node14 -->
<g id="node31" class="node">
<title>Node14</title>
<g id="a_node31"><a xlink:href="MatrixView_8h.html" target="_top" xlink:title="iDynTree/Core/MatrixView.h">
<polygon fill="none" stroke="#ff0000" points="993.5,-112.5 993.5,-131.5 1144.5,-131.5 1144.5,-112.5 993.5,-112.5"/>
<text text-anchor="middle" x="1069" y="-119.5" font-family="FreeSans.ttf" font-size="10.00" fill="#000000">iDynTree/Core/MatrixView.h</text>
</a>
</g>
</g>
<!-- Node10&#45;&gt;Node14 -->
<g id="edge40" class="edge">
<title>Node10&#45;&gt;Node14</title>
<path fill="none" stroke="#191970" d="M1096.2518,-168.2455C1091.7565,-160.617 1085.3752,-149.7881 1079.9175,-140.5267"/>
<polygon fill="#191970" stroke="#191970" points="1082.7747,-138.4811 1074.6823,-131.6427 1076.7439,-142.035 1082.7747,-138.4811"/>
</g>
<!-- Node10&#45;&gt;Node25 -->
<g id="edge47" class="edge">
<title>Node10&#45;&gt;Node25</title>
<path fill="none" stroke="#191970" d="M1182.5106,-168.7522C1185.3745,-168.4875 1188.2112,-168.2356 1191,-168 1486.3222,-143.0527 1843.3183,-128.0649 1961.705,-123.497"/>
<polygon fill="#191970" stroke="#191970" points="1961.9051,-126.992 1971.7639,-123.1119 1961.6372,-119.9971 1961.9051,-126.992"/>
</g>
<!-- Node14&#45;&gt;Node11 -->
<g id="edge43" class="edge">
<title>Node14&#45;&gt;Node11</title>
<path fill="none" stroke="#191970" d="M1041.495,-112.3733C1015.1198,-103.1419 975.1149,-89.1402 945.9642,-78.9375"/>
<polygon fill="#191970" stroke="#191970" points="946.7409,-75.5012 936.1461,-75.5011 944.4284,-82.1082 946.7409,-75.5012"/>
</g>
<!-- Node14&#45;&gt;Node17 -->
<g id="edge42" class="edge">
<title>Node14&#45;&gt;Node17</title>
<path fill="none" stroke="#191970" d="M1071.9612,-112.2455C1074.2038,-104.8579 1077.3577,-94.4689 1080.1081,-85.4087"/>
<polygon fill="#191970" stroke="#191970" points="1083.517,-86.2282 1083.0728,-75.6427 1076.8188,-84.1948 1083.517,-86.2282"/>
</g>
<!-- Node14&#45;&gt;Node15 -->
<g id="edge41" class="edge">
<title>Node14&#45;&gt;Node15</title>
<path fill="none" stroke="#191970" d="M1051.5094,-112.3654C1030.7842,-99.6902 1000.8578,-76.6046 1016,-56 1022.7478,-46.818 1085.6749,-29.4712 1126.981,-18.9023"/>
<polygon fill="#191970" stroke="#191970" points="1127.8807,-22.285 1136.7137,-16.4346 1126.1602,-15.4997 1127.8807,-22.285"/>
</g>
<!-- Node39&#45;&gt;Node37 -->
<g id="edge59" class="edge">
<title>Node39&#45;&gt;Node37</title>
<path fill="none" stroke="#191970" d="M629.0029,-531.9005C629.8796,-523.5099 631.1923,-510.9451 632.3663,-499.7085"/>
<polygon fill="#191970" stroke="#191970" points="635.8724,-499.8314 633.4306,-489.5218 628.9103,-499.1039 635.8724,-499.8314"/>
</g>
<!-- Node40&#45;&gt;Node4 -->
<g id="edge65" class="edge">
<title>Node40&#45;&gt;Node4</title>
<path fill="none" stroke="#191970" d="M1331.7273,-403.1654C1327.0479,-371.3413 1307.7237,-270.5364 1246,-224 1161.9806,-160.6538 1112.7086,-218.4921 1012,-188 991.8272,-181.8922 988.8165,-175.1801 969,-168 921.071,-150.6338 863.5364,-136.6367 828.3833,-128.821"/>
<polygon fill="#191970" stroke="#191970" points="828.7449,-125.3173 818.2277,-126.597 827.2474,-132.1553 828.7449,-125.3173"/>
</g>
<!-- Node40&#45;&gt;Node32 -->
<g id="edge62" class="edge">
<title>Node40&#45;&gt;Node32</title>
<path fill="none" stroke="#191970" d="M1259.9743,-406.7661C1122.6367,-395.0422 829.8291,-370.0464 719.8949,-360.6618"/>
<polygon fill="#191970" stroke="#191970" points="720.0999,-357.1666 709.8384,-359.8033 719.5044,-364.1412 720.0999,-357.1666"/>
</g>
<!-- Node40&#45;&gt;Node34 -->
<g id="edge63" class="edge">
<title>Node40&#45;&gt;Node34</title>
<path fill="none" stroke="#191970" d="M1284.1463,-403.4509C1179.0621,-382.9109 931.9184,-334.6036 818.6155,-312.4571"/>
<polygon fill="#191970" stroke="#191970" points="819.2157,-309.0083 808.73,-310.5249 817.8728,-315.8783 819.2157,-309.0083"/>
</g>
<!-- Node40&#45;&gt;Node10 -->
<g id="edge64" class="edge">
<title>Node40&#45;&gt;Node10</title>
<path fill="none" stroke="#191970" d="M1333.6515,-403.1023C1335.1248,-371.9386 1335.2098,-274.8978 1284,-224 1268.774,-208.8668 1221.0222,-197.1272 1178.2524,-189.2961"/>
<polygon fill="#191970" stroke="#191970" points="1178.8246,-185.843 1168.3662,-187.5374 1177.5986,-192.7348 1178.8246,-185.843"/>
</g>
<!-- Node41&#45;&gt;Node3 -->
<g id="edge72" class="edge">
<title>Node41&#45;&gt;Node3</title>
<path fill="none" stroke="#191970" d="M1637.0313,-593.3906C1618.2116,-583.3262 1588.4415,-567.4057 1566.8359,-555.8514"/>
<polygon fill="#191970" stroke="#191970" points="1568.3114,-552.6714 1557.8426,-551.0419 1565.0102,-558.8442 1568.3114,-552.6714"/>
</g>
<!-- Node41&#45;&gt;Node4 -->
<g id="edge69" class="edge">
<title>Node41&#45;&gt;Node4</title>
<path fill="none" stroke="#191970" d="M1662.8221,-593.3534C1678.6537,-572.8205 1713,-522.7182 1713,-474.5 1713,-474.5 1713,-474.5 1713,-239.5 1713,-83.7787 1524.1376,-190.1523 1370,-168 1264.0331,-152.7707 933.6246,-130.8275 828.4789,-124.0632"/>
<polygon fill="#191970" stroke="#191970" points="828.3856,-120.5501 818.1821,-123.4031 827.9377,-127.5358 828.3856,-120.5501"/>
</g>
<!-- Node41&#45;&gt;Node40 -->
<g id="edge71" class="edge">
<title>Node41&#45;&gt;Node40</title>
<path fill="none" stroke="#191970" d="M1658.4001,-593.4424C1666.7938,-567.9522 1685.4255,-497.6654 1651,-459 1635.5299,-441.6245 1505.1864,-427.3609 1416.2518,-419.5318"/>
<polygon fill="#191970" stroke="#191970" points="1416.4281,-416.034 1406.1627,-418.6554 1415.8223,-423.0077 1416.4281,-416.034"/>
</g>
<!-- Node41&#45;&gt;Node42 -->
<g id="edge68" class="edge">
<title>Node41&#45;&gt;Node42</title>
<path fill="none" stroke="#191970" d="M1688.944,-593.415C1718.1913,-584.8411 1761.3593,-571.4299 1798,-557 1799.3987,-556.4491 1800.822,-555.8671 1802.2531,-555.2644"/>
<polygon fill="#191970" stroke="#191970" points="1803.9173,-558.355 1811.637,-551.0985 1801.077,-551.9572 1803.9173,-558.355"/>
</g>
<!-- Node41&#45;&gt;Node43 -->
<g id="edge70" class="edge">
<title>Node41&#45;&gt;Node43</title>
<path fill="none" stroke="#191970" d="M1672.1875,-593.3906C1690.1082,-583.3713 1718.4095,-567.5483 1739.0523,-556.0071"/>
<polygon fill="#191970" stroke="#191970" points="1740.9128,-558.9769 1747.9332,-551.0419 1737.4967,-552.867 1740.9128,-558.9769"/>
</g>
<!-- Node44&#45;&gt;Node1 -->
<g id="edge76" class="edge">
<title>Node44&#45;&gt;Node1</title>
<path fill="none" stroke="#191970" d="M1686.5387,-817.4158C1685.406,-803.5386 1681.495,-777.6892 1668,-761 1656.1634,-746.3617 1638.3872,-735.7619 1622.0631,-728.4538"/>
<polygon fill="#191970" stroke="#191970" points="1623.2514,-725.157 1612.6754,-724.5256 1620.5493,-731.6145 1623.2514,-725.157"/>
</g>
<!-- Node44&#45;&gt;Node4 -->
<g id="edge88" class="edge">
<title>Node44&#45;&gt;Node4</title>
<path fill="none" stroke="#191970" d="M1748.6792,-817.4824C1774.9145,-810.8626 1804.3765,-799.7131 1826,-781 1847.0414,-762.7907 1846.725,-751.8588 1854,-725 1914.0556,-503.28 1899.1674,-376.0685 1727,-224 1664.841,-169.0975 1630.5504,-183.0848 1549,-168 1513.0704,-161.3539 967.4581,-131.3331 828.1737,-123.7461"/>
<polygon fill="#191970" stroke="#191970" points="828.3067,-120.2482 818.1313,-123.1996 827.9263,-127.2379 828.3067,-120.2482"/>
</g>
<!-- Node44&#45;&gt;Node43 -->
<g id="edge89" class="edge">
<title>Node44&#45;&gt;Node43</title>
<path fill="none" stroke="#191970" d="M1724.6726,-817.4724C1770.2641,-803.413 1841,-772.3576 1841,-715 1841,-715 1841,-715 1841,-659 1841,-617.4563 1807.0901,-578.986 1784.5719,-558.0193"/>
<polygon fill="#191970" stroke="#191970" points="1786.6556,-555.1865 1776.875,-551.1133 1781.9808,-560.3968 1786.6556,-555.1865"/>
</g>
<!-- Node45 -->
<g id="node40" class="node">
<title>Node45</title>
<g id="a_node40"><a xlink:href="Sensors_8h.html" target="_top" xlink:title="iDynTree/Sensors/Sensors.h">
<polygon fill="none" stroke="#000000" points="790.5,-761.5 790.5,-780.5 941.5,-780.5 941.5,-761.5 790.5,-761.5"/>
<text text-anchor="middle" x="866" y="-768.5" font-family="FreeSans.ttf" font-size="10.00" fill="#000000">iDynTree/Sensors/Sensors.h</text>
</a>
</g>
</g>
<!-- Node44&#45;&gt;Node45 -->
<g id="edge77" class="edge">
<title>Node44&#45;&gt;Node45</title>
<path fill="none" stroke="#191970" d="M1598.7489,-820.9804C1440.0928,-810.1586 1108.6386,-787.5503 951.7894,-776.8517"/>
<polygon fill="#191970" stroke="#191970" points="951.9293,-773.3531 941.7142,-776.1644 951.4528,-780.3369 951.9293,-773.3531"/>
</g>
<!-- Node47 -->
<g id="node42" class="node">
<title>Node47</title>
<polygon fill="none" stroke="#bfbfbf" points="1601,-761.5 1601,-780.5 1659,-780.5 1659,-761.5 1601,-761.5"/>
<text text-anchor="middle" x="1630" y="-768.5" font-family="FreeSans.ttf" font-size="10.00" fill="#000000">memory</text>
</g>
<!-- Node44&#45;&gt;Node47 -->
<g id="edge87" class="edge">
<title>Node44&#45;&gt;Node47</title>
<path fill="none" stroke="#191970" d="M1677.0714,-817.2455C1668.8162,-809.1352 1656.8791,-797.4075 1647.0918,-787.7919"/>
<polygon fill="#191970" stroke="#191970" points="1649.4011,-785.1542 1639.8149,-780.6427 1644.4954,-790.1476 1649.4011,-785.1542"/>
</g>
<!-- Node45&#45;&gt;Node1 -->
<g id="edge85" class="edge">
<title>Node45&#45;&gt;Node1</title>
<path fill="none" stroke="#191970" d="M941.6087,-765.0865C1078.8196,-754.3549 1367.3621,-731.7873 1505.3411,-720.9957"/>
<polygon fill="#191970" stroke="#191970" points="1505.7157,-724.4772 1515.4123,-720.208 1505.1698,-717.4985 1505.7157,-724.4772"/>
</g>
<!-- Node45&#45;&gt;Node3 -->
<g id="edge86" class="edge">
<title>Node45&#45;&gt;Node3</title>
<path fill="none" stroke="#191970" d="M891.0056,-761.4385C946.3901,-740.3553 1083.7087,-688.6017 1200,-649 1306.8042,-612.629 1433.8569,-573.5607 1498.1971,-554.0692"/>
<polygon fill="#191970" stroke="#191970" points="1499.4138,-557.3579 1507.9721,-551.1125 1497.3871,-550.6577 1499.4138,-557.3579"/>
</g>
<!-- Node45&#45;&gt;Node4 -->
<g id="edge79" class="edge">
<title>Node45&#45;&gt;Node4</title>
<path fill="none" stroke="#191970" d="M790.341,-763.6895C637.2121,-747.8703 305,-707.914 305,-659 305,-659 305,-659 305,-603 305,-517.5854 316.156,-291.1056 369,-224 418.4404,-161.2165 673.3904,-132.8494 763.9987,-124.6417"/>
<polygon fill="#191970" stroke="#191970" points="764.3125,-128.1277 773.9654,-123.7607 763.696,-121.1549 764.3125,-128.1277"/>
</g>
<!-- Node45&#45;&gt;Node20 -->
<g id="edge81" class="edge">
<title>Node45&#45;&gt;Node20</title>
<path fill="none" stroke="#191970" d="M790.4291,-770.257C627.9585,-768.0168 250.1684,-759.1832 127,-725 65.7053,-707.9888 0,-722.6115 0,-659 0,-659 0,-659 0,-122 0,-14.9539 852.3223,-37.0614 958,-20 961.0483,-19.5079 964.1987,-18.9432 967.3547,-18.3381"/>
<polygon fill="#191970" stroke="#191970" points="968.2351,-21.7308 977.3364,-16.3071 966.8393,-14.8713 968.2351,-21.7308"/>
</g>
<!-- Node45&#45;&gt;Node30 -->
<g id="edge78" class="edge">
<title>Node45&#45;&gt;Node30</title>
<path fill="none" stroke="#191970" d="M841.8482,-761.4805C750.9433,-724.3748 440.1288,-585.2501 552,-459 596.0916,-409.2413 786.6904,-446.1843 849,-423 876.8728,-412.629 1040.14,-297.6396 1100.0066,-255.154"/>
<polygon fill="#191970" stroke="#191970" points="1102.2511,-257.8529 1108.3765,-249.2082 1098.1972,-252.1462 1102.2511,-257.8529"/>
</g>
<!-- Node45&#45;&gt;Node43 -->
<g id="edge80" class="edge">
<title>Node45&#45;&gt;Node43</title>
<path fill="none" stroke="#191970" d="M941.7375,-769.7235C1127.1024,-766.1564 1593.1389,-754.3525 1657,-725 1719.8316,-696.1207 1739.119,-677.1249 1765,-613 1771.6639,-596.4889 1770.8602,-576.0336 1768.8651,-561.2374"/>
<polygon fill="#191970" stroke="#191970" points="1772.2883,-560.484 1767.2111,-551.1849 1765.3811,-561.6205 1772.2883,-560.484"/>
</g>
<!-- Node46 -->
<g id="node41" class="node">
<title>Node46</title>
<g id="a_node41"><a xlink:href="VectorDynSize_8h.html" target="_top" xlink:title="iDynTree/Core/VectorDynSize.h">
<polygon fill="none" stroke="#000000" points="110.5,-347.5 110.5,-366.5 277.5,-366.5 277.5,-347.5 110.5,-347.5"/>
<text text-anchor="middle" x="194" y="-354.5" font-family="FreeSans.ttf" font-size="10.00" fill="#000000">iDynTree/Core/VectorDynSize.h</text>
</a>
</g>
</g>
<!-- Node45&#45;&gt;Node46 -->
<g id="edge82" class="edge">
<title>Node45&#45;&gt;Node46</title>
<path fill="none" stroke="#191970" d="M790.2339,-768.5536C586.9883,-760.9892 45,-733.8046 45,-659 45,-659 45,-659 45,-474.5 45,-419.8302 107.6119,-386.6634 151.6607,-370.0945"/>
<polygon fill="#191970" stroke="#191970" points="153.0817,-373.3028 161.3013,-366.6179 150.707,-366.7179 153.0817,-373.3028"/>
</g>
<!-- Node46&#45;&gt;Node4 -->
<g id="edge84" class="edge">
<title>Node46&#45;&gt;Node4</title>
<path fill="none" stroke="#191970" d="M188.0883,-347.3681C174.6349,-324.0839 144.8506,-263.7368 171,-224 205.5829,-171.4476 240.0407,-183.5463 301,-168 389.2782,-145.4866 668.5912,-128.822 763.8249,-123.6702"/>
<polygon fill="#191970" stroke="#191970" points="764.1953,-127.1555 773.994,-123.1262 763.8213,-120.1655 764.1953,-127.1555"/>
</g>
<!-- Node46&#45;&gt;Node17 -->
<g id="edge83" class="edge">
<title>Node46&#45;&gt;Node17</title>
<path fill="none" stroke="#191970" d="M149.9278,-347.4185C115.759,-338.9919 72.5069,-325.788 62,-311 24.4872,-258.2019 -27.1851,-272.0826 138,-168 156.6114,-156.2731 798.2756,-93.6624 1015.1803,-72.7823"/>
<polygon fill="#191970" stroke="#191970" points="1015.565,-76.2616 1025.1838,-71.82 1014.8946,-69.2938 1015.565,-76.2616"/>
</g>
<!-- Node48&#45;&gt;Node4 -->
<g id="edge91" class="edge">
<title>Node48&#45;&gt;Node4</title>
<path fill="none" stroke="#191970" d="M190.2052,-649.4686C151.1005,-633.6395 83,-597.9672 83,-541.5 83,-541.5 83,-541.5 83,-413 83,-290.9589 97.9145,-222.7209 207,-168 256.8976,-142.9697 647.8868,-127.2445 763.7504,-123.0998"/>
<polygon fill="#191970" stroke="#191970" points="763.9083,-126.5965 773.7785,-122.7456 763.6611,-119.6009 763.9083,-126.5965"/>
</g>
<!-- Node48&#45;&gt;Node32 -->
<g id="edge96" class="edge">
<title>Node48&#45;&gt;Node32</title>
<path fill="none" stroke="#191970" d="M231.4195,-649.3645C274.7977,-620.3965 407.9454,-531.6163 519,-459 566.5483,-427.9092 622.4527,-391.961 653.388,-372.1216"/>
<polygon fill="#191970" stroke="#191970" points="655.6201,-374.8482 662.1501,-366.5049 651.8424,-368.955 655.6201,-374.8482"/>
</g>
<!-- Node49 -->
<g id="node44" class="node">
<title>Node49</title>
<g id="a_node44"><a xlink:href="Direction_8h.html" target="_top" xlink:title="iDynTree/Core/Direction.h">
<polygon fill="none" stroke="#000000" points="180.5,-230 180.5,-249 321.5,-249 321.5,-230 180.5,-230"/>
<text text-anchor="middle" x="251" y="-237" font-family="FreeSans.ttf" font-size="10.00" fill="#000000">iDynTree/Core/Direction.h</text>
</a>
</g>
</g>
<!-- Node48&#45;&gt;Node49 -->
<g id="edge92" class="edge">
<title>Node48&#45;&gt;Node49</title>
<path fill="none" stroke="#191970" d="M221.8445,-649.3766C240.4216,-611.3212 305.1283,-467.5377 286,-347 280.921,-314.9945 267.835,-279.5576 259.1828,-258.4282"/>
<polygon fill="#191970" stroke="#191970" points="262.3352,-256.8951 255.2371,-249.0295 255.8808,-259.6048 262.3352,-256.8951"/>
</g>
<!-- Node50 -->
<g id="node45" class="node">
<title>Node50</title>
<g id="a_node45"><a xlink:href="JointState_8h.html" target="_top" xlink:title="iDynTree/Model/JointState.h">
<polygon fill="none" stroke="#000000" points="371.5,-593.5 371.5,-612.5 522.5,-612.5 522.5,-593.5 371.5,-593.5"/>
<text text-anchor="middle" x="447" y="-600.5" font-family="FreeSans.ttf" font-size="10.00" fill="#000000">iDynTree/Model/JointState.h</text>
</a>
</g>
</g>
<!-- Node48&#45;&gt;Node50 -->
<g id="edge97" class="edge">
<title>Node48&#45;&gt;Node50</title>
<path fill="none" stroke="#191970" d="M256.2771,-649.4369C295.4744,-639.8932 355.8,-625.2052 398.0835,-614.9101"/>
<polygon fill="#191970" stroke="#191970" points="398.9968,-618.2901 407.8849,-612.5237 397.3408,-611.4888 398.9968,-618.2901"/>
</g>
<!-- Node51 -->
<g id="node46" class="node">
<title>Node51</title>
<g id="a_node46"><a xlink:href="LinkState_8h.html" target="_top" xlink:title="iDynTree/Model/LinkState.h">
<polygon fill="none" stroke="#000000" points="699.5,-593.5 699.5,-612.5 848.5,-612.5 848.5,-593.5 699.5,-593.5"/>
<text text-anchor="middle" x="774" y="-600.5" font-family="FreeSans.ttf" font-size="10.00" fill="#000000">iDynTree/Model/LinkState.h</text>
</a>
</g>
</g>
<!-- Node48&#45;&gt;Node51 -->
<g id="edge102" class="edge">
<title>Node48&#45;&gt;Node51</title>
<path fill="none" stroke="#191970" d="M276.6088,-653.007C375.9073,-643.0237 575.4981,-622.9571 689.3448,-611.5111"/>
<polygon fill="#191970" stroke="#191970" points="689.8137,-614.9817 699.4134,-610.4988 689.1134,-608.0168 689.8137,-614.9817"/>
</g>
<!-- Node49&#45;&gt;Node4 -->
<g id="edge93" class="edge">
<title>Node49&#45;&gt;Node4</title>
<path fill="none" stroke="#191970" d="M258.9562,-229.7741C272.7374,-213.7123 302.7795,-182.0262 336,-168 413.5242,-135.2682 672.6916,-125.2948 763.9067,-122.7578"/>
<polygon fill="#191970" stroke="#191970" points="764.0267,-126.2559 773.9298,-122.4905 763.84,-119.2584 764.0267,-126.2559"/>
</g>
<!-- Node49&#45;&gt;Node27 -->
<g id="edge94" class="edge">
<title>Node49&#45;&gt;Node27</title>
<path fill="none" stroke="#191970" d="M315.5004,-229.9984C332.8396,-227.7257 351.6069,-225.5203 369,-224 730.0038,-192.4448 824.7017,-215.7773 1190.0132,-188.0223"/>
<polygon fill="#191970" stroke="#191970" points="1190.3682,-191.5055 1200.0711,-187.2505 1189.8326,-184.526 1190.3682,-191.5055"/>
</g>
<!-- Node49&#45;&gt;Node11 -->
<g id="edge95" class="edge">
<title>Node49&#45;&gt;Node11</title>
<path fill="none" stroke="#191970" d="M254.8279,-229.7607C261.5789,-213.9727 277.1802,-183.0461 301,-168 389.7219,-111.9575 699.26,-81.9236 839.273,-70.9359"/>
<polygon fill="#191970" stroke="#191970" points="839.7602,-74.4087 849.4599,-70.1467 839.2194,-67.4297 839.7602,-74.4087"/>
</g>
<!-- Node50&#45;&gt;Node27 -->
<g id="edge98" class="edge">
<title>Node50&#45;&gt;Node27</title>
<path fill="none" stroke="#191970" d="M443.4538,-593.4831C435.9194,-572.3814 419,-519.9367 419,-474.5 419,-474.5 419,-474.5 419,-357 419,-236.4867 563.6212,-313.5816 682,-291 802.2161,-268.068 844.4109,-307.4196 955,-255 973.1837,-246.3808 969.9237,-232.8423 988,-224 1006.4357,-214.9819 1115.5495,-199.3551 1195.2464,-188.8489"/>
<polygon fill="#191970" stroke="#191970" points="1195.8416,-192.3008 1205.3014,-187.5298 1194.9311,-185.3603 1195.8416,-192.3008"/>
</g>
<!-- Node50&#45;&gt;Node37 -->
<g id="edge100" class="edge">
<title>Node50&#45;&gt;Node37</title>
<path fill="none" stroke="#191970" d="M459.382,-593.4356C478.794,-578.5524 517.719,-549.1545 552,-526 567.859,-515.2883 585.8651,-504.0127 601.0434,-494.752"/>
<polygon fill="#191970" stroke="#191970" points="602.8813,-497.7308 609.6158,-489.5517 599.2507,-491.7459 602.8813,-497.7308"/>
</g>
<!-- Node50&#45;&gt;Node43 -->
<g id="edge101" class="edge">
<title>Node50&#45;&gt;Node43</title>
<path fill="none" stroke="#191970" d="M522.524,-599.8462C570.491,-597.8545 633.8879,-595.2429 690,-593 1102.4253,-576.5143 1206.3122,-586.6572 1618,-557 1656.8679,-554.2 1701.3473,-549.2681 1731.1054,-545.7186"/>
<polygon fill="#191970" stroke="#191970" points="1731.8568,-549.1534 1741.3652,-544.4799 1731.0177,-542.2038 1731.8568,-549.1534"/>
</g>
<!-- Node50&#45;&gt;Node46 -->
<g id="edge99" class="edge">
<title>Node50&#45;&gt;Node46</title>
<path fill="none" stroke="#191970" d="M437.0821,-593.3565C398.7441,-556.0793 259.9586,-421.1337 211.1342,-373.6602"/>
<polygon fill="#191970" stroke="#191970" points="213.4588,-371.0387 203.8493,-366.5768 208.579,-376.0574 213.4588,-371.0387"/>
</g>
<!-- Node51&#45;&gt;Node3 -->
<g id="edge110" class="edge">
<title>Node51&#45;&gt;Node3</title>
<path fill="none" stroke="#191970" d="M848.6294,-599.2038C1001.233,-591.2438 1344.4014,-572.2793 1461,-557 1469.3669,-555.9036 1478.1814,-554.4622 1486.7669,-552.8996"/>
<polygon fill="#191970" stroke="#191970" points="1487.5235,-556.3186 1496.6998,-551.0228 1486.2238,-549.4403 1487.5235,-556.3186"/>
</g>
<!-- Node51&#45;&gt;Node28 -->
<g id="edge104" class="edge">
<title>Node51&#45;&gt;Node28</title>
<path fill="none" stroke="#191970" d="M805.875,-593.3906C841.0559,-582.7846 897.8088,-565.6753 936.4515,-554.0257"/>
<polygon fill="#191970" stroke="#191970" points="937.7847,-557.2794 946.3488,-551.0419 935.7642,-550.5773 937.7847,-557.2794"/>
</g>
<!-- Node51&#45;&gt;Node38 -->
<g id="edge105" class="edge">
<title>Node51&#45;&gt;Node38</title>
<path fill="none" stroke="#191970" d="M781.9688,-593.3906C789.5591,-584.2376 801.1661,-570.2409 810.4132,-559.09"/>
<polygon fill="#191970" stroke="#191970" points="813.2297,-561.1766 816.9189,-551.2449 807.8413,-556.7083 813.2297,-561.1766"/>
</g>
<!-- Node51&#45;&gt;Node39 -->
<g id="edge106" class="edge">
<title>Node51&#45;&gt;Node39</title>
<path fill="none" stroke="#191970" d="M751.1875,-593.3906C726.6519,-583.0554 687.4558,-566.5447 659.8789,-554.9284"/>
<polygon fill="#191970" stroke="#191970" points="661.2268,-551.6984 650.6523,-551.0419 658.5094,-558.1495 661.2268,-551.6984"/>
</g>
<!-- Node51&#45;&gt;Node40 -->
<g id="edge103" class="edge">
<title>Node51&#45;&gt;Node40</title>
<path fill="none" stroke="#191970" d="M763.8019,-593.0249C748.9831,-577.3251 725.0255,-546.5276 742,-526 774.1831,-487.0804 1094.9753,-442.4806 1249.9893,-422.99"/>
<polygon fill="#191970" stroke="#191970" points="1250.4673,-426.4576 1259.9552,-421.7429 1249.598,-419.5118 1250.4673,-426.4576"/>
</g>
<!-- Node51&#45;&gt;Node43 -->
<g id="edge111" class="edge">
<title>Node51&#45;&gt;Node43</title>
<path fill="none" stroke="#191970" d="M848.7839,-599.4114C1026.3625,-590.811 1469.6184,-568.8588 1618,-557 1656.8448,-553.8955 1701.3285,-549.0203 1731.0939,-545.5674"/>
<polygon fill="#191970" stroke="#191970" points="1731.8315,-549.005 1741.3565,-544.3655 1731.0172,-542.0525 1731.8315,-549.005"/>
</g>
<!-- Node52 -->
<g id="node47" class="node">
<title>Node52</title>
<g id="a_node47"><a xlink:href="ArticulatedBodyInertia_8h.html" target="_top" xlink:title="iDynTree/Core/Articulated\lBodyInertia.h">
<polygon fill="none" stroke="#000000" points="378.5,-224.5 378.5,-254.5 519.5,-254.5 519.5,-224.5 378.5,-224.5"/>
<text text-anchor="start" x="386.5" y="-242.5" font-family="FreeSans.ttf" font-size="10.00" fill="#000000">iDynTree/Core/Articulated</text>
<text text-anchor="middle" x="449" y="-231.5" font-family="FreeSans.ttf" font-size="10.00" fill="#000000">BodyInertia.h</text>
</a>
</g>
</g>
<!-- Node51&#45;&gt;Node52 -->
<g id="edge107" class="edge">
<title>Node51&#45;&gt;Node52</title>
<path fill="none" stroke="#191970" d="M699.4406,-597.105C654.8228,-591.2984 598.0327,-579.7899 552,-557 501.8845,-532.1888 457,-530.421 457,-474.5 457,-474.5 457,-474.5 457,-357 457,-325.228 454.0525,-288.7349 451.7357,-264.9582"/>
<polygon fill="#191970" stroke="#191970" points="455.1855,-264.2845 450.6966,-254.6877 448.221,-264.9892 455.1855,-264.2845"/>
</g>
<!-- Node52&#45;&gt;Node4 -->
<g id="edge109" class="edge">
<title>Node52&#45;&gt;Node4</title>
<path fill="none" stroke="#191970" d="M462.3743,-224.221C477.8635,-207.5807 504.9918,-181.5353 534,-168 574.3681,-149.1641 702.6809,-132.5942 763.4669,-125.5718"/>
<polygon fill="#191970" stroke="#191970" points="764.1123,-129.021 773.652,-124.4117 763.3201,-122.0659 764.1123,-129.021"/>
</g>
<!-- Node52&#45;&gt;Node10 -->
<g id="edge108" class="edge">
<title>Node52&#45;&gt;Node10</title>
<path fill="none" stroke="#191970" d="M519.7592,-229.6805C535.307,-227.6696 551.6967,-225.6621 567,-224 722.7741,-207.0809 904.6192,-192.5494 1011.1525,-184.5636"/>
<polygon fill="#191970" stroke="#191970" points="1011.5122,-188.0466 1021.2237,-183.8114 1010.9908,-181.0661 1011.5122,-188.0466"/>
</g>
<!-- Node53&#45;&gt;Node4 -->
<g id="edge117" class="edge">
<title>Node53&#45;&gt;Node4</title>
<path fill="none" stroke="#191970" d="M2002.0731,-594.7594C1981.5577,-587.9514 1956.2511,-576.2098 1941,-557 1917.6042,-527.5315 1922,-512.1265 1922,-474.5 1922,-474.5 1922,-474.5 1922,-239.5 1922,-101.2068 1846.3866,-173.6597 984,-132 929.4751,-129.366 866.077,-125.9126 828.5905,-123.8301"/>
<polygon fill="#191970" stroke="#191970" points="828.4595,-120.3174 818.2802,-123.2555 828.0699,-127.3066 828.4595,-120.3174"/>
</g>
<!-- Node53&#45;&gt;Node18 -->
<g id="edge121" class="edge">
<title>Node53&#45;&gt;Node18</title>
<path fill="none" stroke="#191970" d="M2067.647,-598.8622C2096.8109,-593.6321 2139.1167,-582.0672 2167,-557 2197.1609,-529.8853 2206,-515.0572 2206,-474.5 2206,-474.5 2206,-474.5 2206,-301 2206,-239.1439 2205.9177,-214.3888 2165,-168 2057.5858,-46.2234 1850.1337,-18.3043 1761.1785,-11.9037"/>
<polygon fill="#191970" stroke="#191970" points="1761.393,-8.4104 1751.1831,-11.2402 1760.9293,-15.395 1761.393,-8.4104"/>
</g>
<!-- Node53&#45;&gt;Node22 -->
<g id="edge118" class="edge">
<title>Node53&#45;&gt;Node22</title>
<path fill="none" stroke="#191970" d="M2067.7723,-598.8138C2114.8681,-592.158 2198.4078,-577.758 2220,-557 2247.5286,-530.5349 2244,-512.6867 2244,-474.5 2244,-474.5 2244,-474.5 2244,-357 2244,-275.6715 2282,-259.3285 2282,-178 2282,-178 2282,-178 2282,-122 2282,-90.7875 2281.5494,-76.4853 2258,-56 2232.5903,-33.8964 2140.3347,-20.467 2084.9442,-14.2157"/>
<polygon fill="#191970" stroke="#191970" points="2085.0434,-10.7057 2074.7217,-13.0961 2084.2812,-17.6641 2085.0434,-10.7057"/>
</g>
<!-- Node53&#45;&gt;Node26 -->
<g id="edge114" class="edge">
<title>Node53&#45;&gt;Node26</title>
<path fill="none" stroke="#191970" d="M2057.9636,-593.3878C2073.6448,-585.7096 2093.7285,-573.499 2106,-557 2128.7896,-526.3593 2130,-512.6867 2130,-474.5 2130,-474.5 2130,-474.5 2130,-239.5 2130,-205.9798 2132.5782,-188.4256 2106,-168 2078.6367,-146.9709 1566.636,-128.1845 1421.2192,-123.2558"/>
<polygon fill="#191970" stroke="#191970" points="1421.1162,-119.7504 1411.0041,-122.912 1420.8806,-126.7465 1421.1162,-119.7504"/>
</g>
<!-- Node53&#45;&gt;Node24 -->
<g id="edge120" class="edge">
<title>Node53&#45;&gt;Node24</title>
<path fill="none" stroke="#191970" d="M2045.2692,-593.3838C2053.9425,-584.689 2066.0325,-571.1196 2073,-557 2089.6503,-523.258 2092,-512.1265 2092,-474.5 2092,-474.5 2092,-474.5 2092,-239.5 2092,-64.2984 2022.2894,-181.282 1346,-132 1318.2603,-129.9786 1286.8867,-127.3011 1263.466,-125.2253"/>
<polygon fill="#191970" stroke="#191970" points="1263.578,-121.7215 1253.3064,-124.3185 1262.9556,-128.6938 1263.578,-121.7215"/>
</g>
<!-- Node53&#45;&gt;Node25 -->
<g id="edge113" class="edge">
<title>Node53&#45;&gt;Node25</title>
<path fill="none" stroke="#191970" d="M2067.5387,-597.1028C2091.8602,-591.0501 2124.1994,-579.2473 2144,-557 2169.3879,-528.475 2168,-512.6867 2168,-474.5 2168,-474.5 2168,-474.5 2168,-239.5 2168,-205.9798 2167.8273,-191.5768 2144,-168 2129.4355,-153.5887 2078.6825,-139.4295 2042.006,-130.7097"/>
<polygon fill="#191970" stroke="#191970" points="2042.6094,-127.2567 2032.0764,-128.3988 2041.0227,-134.0745 2042.6094,-127.2567"/>
</g>
<!-- Node53&#45;&gt;Node42 -->
<g id="edge122" class="edge">
<title>Node53&#45;&gt;Node42</title>
<path fill="none" stroke="#191970" d="M2003.125,-593.3906C1965.681,-582.1024 1903.8004,-563.4472 1865.3265,-551.8484"/>
<polygon fill="#191970" stroke="#191970" points="1866.1918,-548.4538 1855.6072,-548.9183 1864.1713,-555.1558 1866.1918,-548.4538"/>
</g>
<!-- Node53&#45;&gt;Node43 -->
<g id="edge115" class="edge">
<title>Node53&#45;&gt;Node43</title>
<path fill="none" stroke="#191970" d="M2002.1551,-599.2366C1955.8004,-593.3422 1868.926,-580.1434 1798,-557 1796.1496,-556.3962 1794.2677,-555.7139 1792.3884,-554.9805"/>
<polygon fill="#191970" stroke="#191970" points="1793.7423,-551.7528 1783.1731,-551.0164 1790.9762,-558.1832 1793.7423,-551.7528"/>
</g>
<!-- Node54 -->
<g id="node49" class="node">
<title>Node54</title>
<polygon fill="none" stroke="#bfbfbf" points="1950,-532 1950,-551 1988,-551 1988,-532 1950,-532"/>
<text text-anchor="middle" x="1969" y="-539" font-family="FreeSans.ttf" font-size="10.00" fill="#000000">map</text>
</g>
<!-- Node53&#45;&gt;Node54 -->
<g id="edge116" class="edge">
<title>Node53&#45;&gt;Node54</title>
<path fill="none" stroke="#191970" d="M2024.6875,-593.3906C2014.5758,-583.9683 1998.9558,-569.4134 1986.8293,-558.1137"/>
<polygon fill="#191970" stroke="#191970" points="1989.1601,-555.5015 1979.4579,-551.2449 1984.388,-560.6228 1989.1601,-555.5015"/>
</g>
<!-- Node55 -->
<g id="node50" class="node">
<title>Node55</title>
<polygon fill="none" stroke="#bfbfbf" points="2006.5,-532 2006.5,-551 2063.5,-551 2063.5,-532 2006.5,-532"/>
<text text-anchor="middle" x="2035" y="-539" font-family="FreeSans.ttf" font-size="10.00" fill="#000000">typeinfo</text>
</g>
<!-- Node53&#45;&gt;Node55 -->
<g id="edge119" class="edge">
<title>Node53&#45;&gt;Node55</title>
<path fill="none" stroke="#191970" d="M2035,-593.3906C2035,-584.8657 2035,-572.1392 2035,-561.4235"/>
<polygon fill="#191970" stroke="#191970" points="2038.5001,-561.2448 2035,-551.2449 2031.5001,-561.2449 2038.5001,-561.2448"/>
</g>
</g>
</svg>
