<?xml version="1.0" encoding="UTF-8" standalone="no"?>
<!DOCTYPE svg PUBLIC "-//W3C//DTD SVG 1.1//EN"
 "http://www.w3.org/Graphics/SVG/1.1/DTD/svg11.dtd">
<!-- Generated by graphviz version 2.40.1 (20161225.0304)
 -->
<!-- Title: Indices.h Pages: 1 -->
<svg width="3437pt" height="330pt"
 viewBox="0.00 0.00 3436.50 330.00" xmlns="http://www.w3.org/2000/svg" xmlns:xlink="http://www.w3.org/1999/xlink">
<g id="graph0" class="graph" transform="scale(1 1) rotate(0) translate(4 326)">
<title>Indices.h</title>
<!-- Node3 -->
<g id="node1" class="node">
<title>Node3</title>
<polygon fill="#bfbfbf" stroke="#000000" points="1523,-302.5 1523,-321.5 1583,-321.5 1583,-302.5 1523,-302.5"/>
<text text-anchor="middle" x="1553" y="-309.5" font-family="FreeSans.ttf" font-size="10.00" fill="#000000">Indices.h</text>
</g>
<!-- Node4 -->
<g id="node2" class="node">
<title>Node4</title>
<g id="a_node2"><a xlink:href="BerdyHelper_8h.html" target="_top" xlink:title="BerdyHelper.h">
<polygon fill="none" stroke="#000000" points="1442,-73 1442,-92 1528,-92 1528,-73 1442,-73"/>
<text text-anchor="middle" x="1485" y="-80" font-family="FreeSans.ttf" font-size="10.00" fill="#000000">BerdyHelper.h</text>
</a>
</g>
</g>
<!-- Node3&#45;&gt;Node4 -->
<g id="edge1" class="edge">
<title>Node3&#45;&gt;Node4</title>
<path fill="none" stroke="#191970" d="M1527.4895,-296.7058C1516.3303,-288.8231 1503.9885,-278.2799 1496,-266 1463.193,-215.5693 1455.4233,-193.2257 1466,-134 1468.7141,-118.8018 1475.6018,-102.2155 1480.294,-92.0842"/>
<polygon fill="#191970" stroke="#191970" points="1525.8192,-299.799 1536.0797,-302.4396 1529.7055,-293.9768 1525.8192,-299.799"/>
</g>
<!-- Node7 -->
<g id="node5" class="node">
<title>Node7</title>
<g id="a_node5"><a xlink:href="BerdySparseMAPSolver_8h.html" target="_top" xlink:title="BerdySparseMAPSolver.h">
<polygon fill="none" stroke="#000000" points="173,-190.5 173,-209.5 311,-209.5 311,-190.5 173,-190.5"/>
<text text-anchor="middle" x="242" y="-197.5" font-family="FreeSans.ttf" font-size="10.00" fill="#000000">BerdySparseMAPSolver.h</text>
</a>
</g>
</g>
<!-- Node3&#45;&gt;Node7 -->
<g id="edge4" class="edge">
<title>Node3&#45;&gt;Node7</title>
<path fill="none" stroke="#191970" d="M1512.7039,-311.2536C1321.278,-307.592 508.4596,-290.7036 398,-266 344.9077,-254.1262 287.0822,-224.9465 259.0909,-209.6741"/>
<polygon fill="#191970" stroke="#191970" points="1512.8209,-314.7563 1522.8856,-311.447 1512.954,-307.7576 1512.8209,-314.7563"/>
</g>
<!-- Node8 -->
<g id="node6" class="node">
<title>Node8</title>
<g id="a_node6"><a xlink:href="ExternalWrenchesEstimation_8h.html" target="_top" xlink:title="ExternalWrenchesEstimation.h">
<polygon fill="none" stroke="#000000" points="2297,-134.5 2297,-153.5 2463,-153.5 2463,-134.5 2297,-134.5"/>
<text text-anchor="middle" x="2380" y="-141.5" font-family="FreeSans.ttf" font-size="10.00" fill="#000000">ExternalWrenchesEstimation.h</text>
</a>
</g>
</g>
<!-- Node3&#45;&gt;Node8 -->
<g id="edge6" class="edge">
<title>Node3&#45;&gt;Node8</title>
<path fill="none" stroke="#191970" d="M1593.5978,-310.7965C1668.6736,-307.8497 1833.8746,-297.9835 1969,-266 1993.9051,-260.1051 1998.678,-253.9658 2023,-246 2138.7769,-208.0816 2278.1881,-170.5561 2343.2308,-153.5111"/>
<polygon fill="#191970" stroke="#191970" points="1593.0525,-307.3142 1583.1892,-311.1829 1593.3122,-314.3094 1593.0525,-307.3142"/>
</g>
<!-- Node14 -->
<g id="node11" class="node">
<title>Node14</title>
<g id="a_node11"><a xlink:href="skinDynLibConversions_8h.html" target="_top" xlink:title="skinDynLibConversions.h">
<polygon fill="none" stroke="#000000" points="3010,-73 3010,-92 3150,-92 3150,-73 3010,-73"/>
<text text-anchor="middle" x="3080" y="-80" font-family="FreeSans.ttf" font-size="10.00" fill="#000000">skinDynLibConversions.h</text>
</a>
</g>
</g>
<!-- Node3&#45;&gt;Node14 -->
<g id="edge28" class="edge">
<title>Node3&#45;&gt;Node14</title>
<path fill="none" stroke="#191970" d="M1593.2553,-310.9813C1710.0522,-307.7431 2059.0107,-296.0711 2347,-266 2512.4179,-248.7275 2552.697,-235.8064 2717,-210 2870.0254,-185.9649 2946.2161,-258.015 3061,-154 3078.7027,-137.9582 3080.7111,-107.4828 3080.4859,-92.016"/>
<polygon fill="#191970" stroke="#191970" points="1592.9054,-307.4894 1583.0044,-311.2602 1593.0959,-314.4868 1592.9054,-307.4894"/>
</g>
<!-- Node17 -->
<g id="node14" class="node">
<title>Node17</title>
<g id="a_node14"><a xlink:href="SimpleLeggedOdometry_8h.html" target="_top" xlink:title="SimpleLeggedOdometry.h">
<polygon fill="none" stroke="#000000" points="66,-73 66,-92 208,-92 208,-73 66,-73"/>
<text text-anchor="middle" x="137" y="-80" font-family="FreeSans.ttf" font-size="10.00" fill="#000000">SimpleLeggedOdometry.h</text>
</a>
</g>
</g>
<!-- Node3&#45;&gt;Node17 -->
<g id="edge16" class="edge">
<title>Node3&#45;&gt;Node17</title>
<path fill="none" stroke="#191970" d="M1512.9293,-310.5306C1418.3648,-306.6926 1174.0609,-294.6119 972,-266 726.7273,-231.2693 667.6168,-208.6466 426,-154 334.7524,-133.3625 228.0655,-106.1653 173.3855,-92.0009"/>
<polygon fill="#191970" stroke="#191970" points="1512.7916,-314.0278 1522.9228,-310.928 1513.0697,-307.0334 1512.7916,-314.0278"/>
</g>
<!-- Node18 -->
<g id="node15" class="node">
<title>Node18</title>
<g id="a_node15"><a xlink:href="SimpleLeggedOdometry_8cpp.html" target="_top" xlink:title="SimpleLeggedOdometry.cpp">
<polygon fill="none" stroke="#000000" points="60.5,-6 60.5,-25 213.5,-25 213.5,-6 60.5,-6"/>
<text text-anchor="middle" x="137" y="-13" font-family="FreeSans.ttf" font-size="10.00" fill="#000000">SimpleLeggedOdometry.cpp</text>
</a>
</g>
</g>
<!-- Node3&#45;&gt;Node18 -->
<g id="edge18" class="edge">
<title>Node3&#45;&gt;Node18</title>
<path fill="none" stroke="#191970" d="M1512.8719,-311.3447C1329.3167,-308.2156 568.5064,-293.7854 332,-266 182.5846,-248.4463 0,-350.443 0,-200 0,-200 0,-200 0,-144 0,-105.0179 14.3999,-94.5289 42,-67 61.3931,-47.657 89.5653,-33.6264 110.1952,-25.1402"/>
<polygon fill="#191970" stroke="#191970" points="1512.8434,-314.8446 1522.9011,-311.5141 1512.9617,-307.8456 1512.8434,-314.8446"/>
</g>
<!-- Node19 -->
<g id="node16" class="node">
<title>Node19</title>
<g id="a_node16"><a xlink:href="KinDynComputations_8h.html" target="_top" xlink:title="KinDynComputations.h">
<polygon fill="none" stroke="#000000" points="801.5,-134.5 801.5,-153.5 930.5,-153.5 930.5,-134.5 801.5,-134.5"/>
<text text-anchor="middle" x="866" y="-141.5" font-family="FreeSans.ttf" font-size="10.00" fill="#000000">KinDynComputations.h</text>
</a>
</g>
</g>
<!-- Node3&#45;&gt;Node19 -->
<g id="edge19" class="edge">
<title>Node3&#45;&gt;Node19</title>
<path fill="none" stroke="#191970" d="M1512.8503,-309.471C1420.2762,-303.3582 1194.1922,-286.743 1121,-266 1024.441,-238.6347 919.4279,-177.1383 881.0842,-153.5031"/>
<polygon fill="#191970" stroke="#191970" points="1512.7353,-312.9708 1522.9423,-310.1305 1513.1919,-305.9857 1512.7353,-312.9708"/>
</g>
<!-- Node34 -->
<g id="node24" class="node">
<title>Node34</title>
<g id="a_node24"><a xlink:href="Centroidal_8h.html" target="_top" xlink:title="Centroidal.h">
<polygon fill="none" stroke="#000000" points="1193,-246.5 1193,-265.5 1269,-265.5 1269,-246.5 1193,-246.5"/>
<text text-anchor="middle" x="1231" y="-253.5" font-family="FreeSans.ttf" font-size="10.00" fill="#000000">Centroidal.h</text>
</a>
</g>
</g>
<!-- Node3&#45;&gt;Node34 -->
<g id="edge29" class="edge">
<title>Node3&#45;&gt;Node34</title>
<path fill="none" stroke="#191970" d="M1513.0395,-305.4643C1460.2984,-296.776 1364.5858,-280.793 1283,-266 1278.4771,-265.1799 1273.7374,-264.2987 1269.038,-263.4116"/>
<polygon fill="#191970" stroke="#191970" points="1512.5624,-308.9328 1522.9979,-307.1022 1513.6985,-302.0256 1512.5624,-308.9328"/>
</g>
<!-- Node35 -->
<g id="node25" class="node">
<title>Node35</title>
<g id="a_node25"><a xlink:href="ContactWrench_8h.html" target="_top" xlink:title="ContactWrench.h">
<polygon fill="none" stroke="#000000" points="2952.5,-134.5 2952.5,-153.5 3051.5,-153.5 3051.5,-134.5 2952.5,-134.5"/>
<text text-anchor="middle" x="3002" y="-141.5" font-family="FreeSans.ttf" font-size="10.00" fill="#000000">ContactWrench.h</text>
</a>
</g>
</g>
<!-- Node3&#45;&gt;Node35 -->
<g id="edge30" class="edge">
<title>Node3&#45;&gt;Node35</title>
<path fill="none" stroke="#191970" d="M1593.2612,-310.7707C1701.5294,-307.1656 2007.8513,-294.9922 2261,-266 2524.2719,-235.8484 2836.5855,-176.6717 2954.1148,-153.5645"/>
<polygon fill="#191970" stroke="#191970" points="1592.9936,-307.2775 1583.1134,-311.1027 1593.2225,-314.2738 1592.9936,-307.2775"/>
</g>
<!-- Node37 -->
<g id="node27" class="node">
<title>Node37</title>
<g id="a_node27"><a xlink:href="DenavitHartenberg_8h.html" target="_top" xlink:title="DenavitHartenberg.h">
<polygon fill="none" stroke="#000000" points="625.5,-134.5 625.5,-153.5 744.5,-153.5 744.5,-134.5 625.5,-134.5"/>
<text text-anchor="middle" x="685" y="-141.5" font-family="FreeSans.ttf" font-size="10.00" fill="#000000">DenavitHartenberg.h</text>
</a>
</g>
</g>
<!-- Node3&#45;&gt;Node37 -->
<g id="edge36" class="edge">
<title>Node3&#45;&gt;Node37</title>
<path fill="none" stroke="#191970" d="M1512.6372,-311.2706C1427.7804,-309.0771 1225.0222,-300.361 1059,-266 922.5639,-237.7623 766.0792,-177.0573 708.1366,-153.5609"/>
<polygon fill="#191970" stroke="#191970" points="1512.7844,-314.7751 1522.866,-311.5178 1512.9535,-307.7772 1512.7844,-314.7751"/>
</g>
<!-- Node40 -->
<g id="node30" class="node">
<title>Node40</title>
<g id="a_node30"><a xlink:href="Dynamics_8h.html" target="_top" xlink:title="Dynamics.h">
<polygon fill="none" stroke="#ff0000" points="1998,-134.5 1998,-153.5 2072,-153.5 2072,-134.5 1998,-134.5"/>
<text text-anchor="middle" x="2035" y="-141.5" font-family="FreeSans.ttf" font-size="10.00" fill="#000000">Dynamics.h</text>
</a>
</g>
</g>
<!-- Node3&#45;&gt;Node40 -->
<g id="edge40" class="edge">
<title>Node3&#45;&gt;Node40</title>
<path fill="none" stroke="#191970" d="M1593.3083,-309.3481C1687.6425,-302.8503 1917.0076,-285.2535 1946,-266 1978.3298,-244.5302 1965.5087,-220.8922 1989,-190 1999.3912,-176.3351 2013.6596,-162.6805 2023.5378,-153.8413"/>
<polygon fill="#191970" stroke="#191970" points="1593.0249,-305.8592 1583.2863,-310.0316 1593.5013,-312.843 1593.0249,-305.8592"/>
</g>
<!-- Node47 -->
<g id="node34" class="node">
<title>Node47</title>
<g id="a_node34"><a xlink:href="FixedJoint_8h.html" target="_top" xlink:title="FixedJoint.h">
<polygon fill="none" stroke="#ff0000" points="1128.5,-190.5 1128.5,-209.5 1201.5,-209.5 1201.5,-190.5 1128.5,-190.5"/>
<text text-anchor="middle" x="1165" y="-197.5" font-family="FreeSans.ttf" font-size="10.00" fill="#000000">FixedJoint.h</text>
</a>
</g>
</g>
<!-- Node3&#45;&gt;Node47 -->
<g id="edge49" class="edge">
<title>Node3&#45;&gt;Node47</title>
<path fill="none" stroke="#191970" d="M1512.6906,-309.465C1422.1585,-303.4212 1208.6645,-287.0826 1184,-266 1167.504,-251.8996 1164.86,-224.4897 1164.7099,-209.8215"/>
<polygon fill="#191970" stroke="#191970" points="1512.638,-312.969 1522.8465,-310.1341 1513.0983,-305.9841 1512.638,-312.969"/>
</g>
<!-- Node53 -->
<g id="node35" class="node">
<title>Node53</title>
<g id="a_node35"><a xlink:href="ForwardKinematics_8h.html" target="_top" xlink:title="ForwardKinematics.h">
<polygon fill="none" stroke="#ff0000" points="1158.5,-134.5 1158.5,-153.5 1277.5,-153.5 1277.5,-134.5 1158.5,-134.5"/>
<text text-anchor="middle" x="1218" y="-141.5" font-family="FreeSans.ttf" font-size="10.00" fill="#000000">ForwardKinematics.h</text>
</a>
</g>
</g>
<!-- Node3&#45;&gt;Node53 -->
<g id="edge51" class="edge">
<title>Node3&#45;&gt;Node53</title>
<path fill="none" stroke="#191970" d="M1512.4203,-309.5363C1468.78,-305.4495 1398.4671,-294.6209 1345,-266 1290.2816,-236.7094 1242.4856,-177.1583 1225.0405,-153.7559"/>
<polygon fill="#191970" stroke="#191970" points="1512.3834,-313.046 1522.6466,-310.4159 1512.9834,-306.0717 1512.3834,-313.046"/>
</g>
<!-- Node56 -->
<g id="node36" class="node">
<title>Node56</title>
<g id="a_node36"><a xlink:href="FreeFloatingState_8h.html" target="_top" xlink:title="FreeFloatingState.h">
<polygon fill="none" stroke="#ff0000" points="1486,-134.5 1486,-153.5 1596,-153.5 1596,-134.5 1486,-134.5"/>
<text text-anchor="middle" x="1541" y="-141.5" font-family="FreeSans.ttf" font-size="10.00" fill="#000000">FreeFloatingState.h</text>
</a>
</g>
</g>
<!-- Node3&#45;&gt;Node56 -->
<g id="edge56" class="edge">
<title>Node3&#45;&gt;Node56</title>
<path fill="none" stroke="#191970" d="M1530.2518,-295.757C1521.2137,-287.9119 1511.8312,-277.6637 1507,-266 1494.0738,-234.7934 1496.4306,-222.0816 1507,-190 1511.7233,-175.6632 1522.824,-162.1346 1531.0638,-153.5087"/>
<polygon fill="#191970" stroke="#191970" points="1528.333,-298.7058 1538.3148,-302.2577 1532.7266,-293.2564 1528.333,-298.7058"/>
</g>
<!-- Node58 -->
<g id="node37" class="node">
<title>Node58</title>
<g id="a_node37"><a xlink:href="IJoint_8h.html" target="_top" xlink:title="IJoint.h">
<polygon fill="none" stroke="#ff0000" points="1365,-246.5 1365,-265.5 1415,-265.5 1415,-246.5 1365,-246.5"/>
<text text-anchor="middle" x="1390" y="-253.5" font-family="FreeSans.ttf" font-size="10.00" fill="#000000">IJoint.h</text>
</a>
</g>
</g>
<!-- Node3&#45;&gt;Node58 -->
<g id="edge63" class="edge">
<title>Node3&#45;&gt;Node58</title>
<path fill="none" stroke="#191970" d="M1515.4504,-299.0995C1484.7046,-288.5365 1442.0525,-273.8831 1415.2488,-264.6744"/>
<polygon fill="#191970" stroke="#191970" points="1514.3846,-302.4341 1524.9793,-302.3733 1516.6591,-295.8139 1514.3846,-302.4341"/>
</g>
<!-- Node59 -->
<g id="node38" class="node">
<title>Node59</title>
<g id="a_node38"><a xlink:href="Model_8h.html" target="_top" xlink:title="Model.h">
<polygon fill="none" stroke="#ff0000" points="1866.5,-190.5 1866.5,-209.5 1921.5,-209.5 1921.5,-190.5 1866.5,-190.5"/>
<text text-anchor="middle" x="1894" y="-197.5" font-family="FreeSans.ttf" font-size="10.00" fill="#000000">Model.h</text>
</a>
</g>
</g>
<!-- Node3&#45;&gt;Node59 -->
<g id="edge108" class="edge">
<title>Node3&#45;&gt;Node59</title>
<path fill="none" stroke="#191970" d="M1593.5155,-310.1507C1644.516,-306.5904 1733.924,-296.2078 1804,-266 1836.5618,-251.9635 1868.5605,-224.2687 1884.1621,-209.6154"/>
<polygon fill="#191970" stroke="#191970" points="1592.9911,-306.6771 1583.2363,-310.8115 1593.4403,-313.6627 1592.9911,-306.6771"/>
</g>
<!-- Node87 -->
<g id="node39" class="node">
<title>Node87</title>
<g id="a_node39"><a xlink:href="Sensors_8h.html" target="_top" xlink:title="Sensors.h">
<polygon fill="none" stroke="#ff0000" points="2595,-134.5 2595,-153.5 2659,-153.5 2659,-134.5 2595,-134.5"/>
<text text-anchor="middle" x="2627" y="-141.5" font-family="FreeSans.ttf" font-size="10.00" fill="#000000">Sensors.h</text>
</a>
</g>
</g>
<!-- Node3&#45;&gt;Node87 -->
<g id="edge132" class="edge">
<title>Node3&#45;&gt;Node87</title>
<path fill="none" stroke="#191970" d="M1593.154,-311.0792C1687.897,-308.4162 1932.5561,-298.6743 2134,-266 2311.333,-237.2365 2518.6809,-176.9772 2595.9337,-153.5774"/>
<polygon fill="#191970" stroke="#191970" points="1593.0431,-307.5808 1583.1413,-311.3496 1593.2322,-314.5782 1593.0431,-307.5808"/>
</g>
<!-- Node119 -->
<g id="node40" class="node">
<title>Node119</title>
<g id="a_node40"><a xlink:href="Indeces_8h.html" target="_top" xlink:title="Indeces.h">
<polygon fill="none" stroke="#000000" points="1731.5,-246.5 1731.5,-265.5 1794.5,-265.5 1794.5,-246.5 1731.5,-246.5"/>
<text text-anchor="middle" x="1763" y="-253.5" font-family="FreeSans.ttf" font-size="10.00" fill="#000000">Indeces.h</text>
</a>
</g>
</g>
<!-- Node3&#45;&gt;Node119 -->
<g id="edge85" class="edge">
<title>Node3&#45;&gt;Node119</title>
<path fill="none" stroke="#191970" d="M1592.8203,-301.3813C1632.9943,-290.6682 1694.2281,-274.3392 1731.2499,-264.4667"/>
<polygon fill="#191970" stroke="#191970" points="1591.8484,-298.018 1583.0879,-303.9766 1593.6521,-304.7817 1591.8484,-298.018"/>
</g>
<!-- Node120 -->
<g id="node41" class="node">
<title>Node120</title>
<g id="a_node41"><a xlink:href="Jacobians_8h.html" target="_top" xlink:title="Jacobians.h">
<polygon fill="none" stroke="#ff0000" points="1325,-190.5 1325,-209.5 1397,-209.5 1397,-190.5 1325,-190.5"/>
<text text-anchor="middle" x="1361" y="-197.5" font-family="FreeSans.ttf" font-size="10.00" fill="#000000">Jacobians.h</text>
</a>
</g>
</g>
<!-- Node3&#45;&gt;Node120 -->
<g id="edge86" class="edge">
<title>Node3&#45;&gt;Node120</title>
<path fill="none" stroke="#191970" d="M1512.4191,-308.3688C1460.549,-302.7904 1375.1459,-290.1315 1356,-266 1343.1441,-249.7964 1350.8387,-223.7497 1356.5405,-209.7126"/>
<polygon fill="#191970" stroke="#191970" points="1512.3231,-311.8774 1522.6296,-309.4224 1513.0417,-304.9144 1512.3231,-311.8774"/>
</g>
<!-- Node121 -->
<g id="node42" class="node">
<title>Node121</title>
<g id="a_node42"><a xlink:href="Link_8h.html" target="_top" xlink:title="Link.h">
<polygon fill="none" stroke="#ff0000" points="1667,-246.5 1667,-265.5 1713,-265.5 1713,-246.5 1667,-246.5"/>
<text text-anchor="middle" x="1690" y="-253.5" font-family="FreeSans.ttf" font-size="10.00" fill="#000000">Link.h</text>
</a>
</g>
</g>
<!-- Node3&#45;&gt;Node121 -->
<g id="edge88" class="edge">
<title>Node3&#45;&gt;Node121</title>
<path fill="none" stroke="#191970" d="M1585.9806,-298.5189C1610.9311,-288.3201 1644.5734,-274.5685 1666.7562,-265.5011"/>
<polygon fill="#191970" stroke="#191970" points="1584.4834,-295.3497 1576.5511,-302.3733 1587.132,-301.8293 1584.4834,-295.3497"/>
</g>
<!-- Node124 -->
<g id="node43" class="node">
<title>Node124</title>
<g id="a_node43"><a xlink:href="LinkState_8h.html" target="_top" xlink:title="LinkState.h">
<polygon fill="none" stroke="#ff0000" points="1549.5,-190.5 1549.5,-209.5 1620.5,-209.5 1620.5,-190.5 1549.5,-190.5"/>
<text text-anchor="middle" x="1585" y="-197.5" font-family="FreeSans.ttf" font-size="10.00" fill="#000000">LinkState.h</text>
</a>
</g>
</g>
<!-- Node3&#45;&gt;Node124 -->
<g id="edge90" class="edge">
<title>Node3&#45;&gt;Node124</title>
<path fill="none" stroke="#191970" d="M1558.5432,-292.5987C1565.4677,-268.363 1577.0414,-227.8551 1582.2786,-209.5249"/>
<polygon fill="#191970" stroke="#191970" points="1555.1102,-291.8742 1555.7283,-302.4509 1561.8409,-293.7972 1555.1102,-291.8742"/>
</g>
<!-- Node138 -->
<g id="node44" class="node">
<title>Node138</title>
<g id="a_node44"><a xlink:href="LinkTraversalsCache_8h.html" target="_top" xlink:title="LinkTraversalsCache.h">
<polygon fill="none" stroke="#ff0000" points="1740.5,-134.5 1740.5,-153.5 1865.5,-153.5 1865.5,-134.5 1740.5,-134.5"/>
<text text-anchor="middle" x="1803" y="-141.5" font-family="FreeSans.ttf" font-size="10.00" fill="#000000">LinkTraversalsCache.h</text>
</a>
</g>
</g>
<!-- Node3&#45;&gt;Node138 -->
<g id="edge103" class="edge">
<title>Node3&#45;&gt;Node138</title>
<path fill="none" stroke="#191970" d="M1575.7612,-296.7045C1626.397,-262.6772 1747.1634,-181.5222 1788.688,-153.6177"/>
<polygon fill="#191970" stroke="#191970" points="1573.5052,-294.0036 1567.1574,-302.4862 1577.4096,-299.8136 1573.5052,-294.0036"/>
</g>
<!-- Node114 -->
<g id="node45" class="node">
<title>Node114</title>
<g id="a_node45"><a xlink:href="PrismaticJoint_8h.html" target="_top" xlink:title="PrismaticJoint.h">
<polygon fill="none" stroke="#ff0000" points="2031.5,-246.5 2031.5,-265.5 2124.5,-265.5 2124.5,-246.5 2031.5,-246.5"/>
<text text-anchor="middle" x="2078" y="-253.5" font-family="FreeSans.ttf" font-size="10.00" fill="#000000">PrismaticJoint.h</text>
</a>
</g>
</g>
<!-- Node3&#45;&gt;Node114 -->
<g id="edge109" class="edge">
<title>Node3&#45;&gt;Node114</title>
<path fill="none" stroke="#191970" d="M1593.421,-308.8643C1674.1226,-302.4116 1860.88,-286.5143 2017,-266 2021.6817,-265.3848 2026.556,-264.6857 2031.4185,-263.9497"/>
<polygon fill="#191970" stroke="#191970" points="1592.8961,-305.3949 1583.2047,-309.6759 1593.4505,-312.3729 1592.8961,-305.3949"/>
</g>
<!-- Node116 -->
<g id="node46" class="node">
<title>Node116</title>
<g id="a_node46"><a xlink:href="RevoluteJoint_8h.html" target="_top" xlink:title="RevoluteJoint.h">
<polygon fill="none" stroke="#ff0000" points="1013,-190.5 1013,-209.5 1103,-209.5 1103,-190.5 1013,-190.5"/>
<text text-anchor="middle" x="1058" y="-197.5" font-family="FreeSans.ttf" font-size="10.00" fill="#000000">RevoluteJoint.h</text>
</a>
</g>
</g>
<!-- Node3&#45;&gt;Node116 -->
<g id="edge110" class="edge">
<title>Node3&#45;&gt;Node116</title>
<path fill="none" stroke="#191970" d="M1512.7662,-309.4043C1427.1253,-303.5252 1229.4456,-287.9751 1166,-266 1127.7946,-252.7672 1088.7165,-224.4608 1069.7572,-209.5853"/>
<polygon fill="#191970" stroke="#191970" points="1512.6659,-312.9055 1522.8796,-310.0893 1513.139,-305.9215 1512.6659,-312.9055"/>
</g>
<!-- Node139 -->
<g id="node47" class="node">
<title>Node139</title>
<g id="a_node47"><a xlink:href="SolidShapes_8h.html" target="_top" xlink:title="SolidShapes.h">
<polygon fill="none" stroke="#ff0000" points="1851.5,-246.5 1851.5,-265.5 1936.5,-265.5 1936.5,-246.5 1851.5,-246.5"/>
<text text-anchor="middle" x="1894" y="-253.5" font-family="FreeSans.ttf" font-size="10.00" fill="#000000">SolidShapes.h</text>
</a>
</g>
</g>
<!-- Node3&#45;&gt;Node139 -->
<g id="edge112" class="edge">
<title>Node3&#45;&gt;Node139</title>
<path fill="none" stroke="#191970" d="M1593.335,-305.6372C1648.4177,-296.909 1750.2435,-280.6356 1837,-266 1841.6563,-265.2145 1846.5241,-264.3804 1851.3689,-263.5419"/>
<polygon fill="#191970" stroke="#191970" points="1592.6137,-302.2077 1583.284,-307.2283 1593.7082,-309.1216 1592.6137,-302.2077"/>
</g>
<!-- Node144 -->
<g id="node48" class="node">
<title>Node144</title>
<g id="a_node48"><a xlink:href="SubModel_8h.html" target="_top" xlink:title="SubModel.h">
<polygon fill="none" stroke="#ff0000" points="2677.5,-134.5 2677.5,-153.5 2750.5,-153.5 2750.5,-134.5 2677.5,-134.5"/>
<text text-anchor="middle" x="2714" y="-141.5" font-family="FreeSans.ttf" font-size="10.00" fill="#000000">SubModel.h</text>
</a>
</g>
</g>
<!-- Node3&#45;&gt;Node144 -->
<g id="edge114" class="edge">
<title>Node3&#45;&gt;Node144</title>
<path fill="none" stroke="#191970" d="M1593.4517,-311.2312C1695.2115,-308.8376 1969.8573,-299.5272 2196,-266 2307.3468,-249.4921 2333.4241,-235.763 2443,-210 2526.9064,-190.2723 2625.148,-166.0701 2677.2245,-153.1533"/>
<polygon fill="#191970" stroke="#191970" points="1593.2259,-307.7353 1583.3075,-311.4601 1593.3839,-314.7336 1593.2259,-307.7353"/>
</g>
<!-- Node145 -->
<g id="node49" class="node">
<title>Node145</title>
<g id="a_node49"><a xlink:href="Traversal_8h.html" target="_top" xlink:title="Traversal.h">
<polygon fill="none" stroke="#ff0000" points="1614,-134.5 1614,-153.5 1684,-153.5 1684,-134.5 1614,-134.5"/>
<text text-anchor="middle" x="1649" y="-141.5" font-family="FreeSans.ttf" font-size="10.00" fill="#000000">Traversal.h</text>
</a>
</g>
</g>
<!-- Node3&#45;&gt;Node145 -->
<g id="edge118" class="edge">
<title>Node3&#45;&gt;Node145</title>
<path fill="none" stroke="#191970" d="M1544.2824,-293.1468C1533.8636,-267.539 1520.2674,-221.3653 1541,-190 1549.7656,-176.7389 1587.9526,-162.5582 1616.4487,-153.503"/>
<polygon fill="#191970" stroke="#191970" points="1541.1304,-294.6761 1548.3099,-302.4676 1547.5563,-291.8996 1541.1304,-294.6761"/>
</g>
<!-- Node146 -->
<g id="node50" class="node">
<title>Node146</title>
<g id="a_node50"><a xlink:href="Indices_8cpp.html" target="_top" xlink:title="Indices.cpp">
<polygon fill="none" stroke="#000000" points="3357.5,-246.5 3357.5,-265.5 3428.5,-265.5 3428.5,-246.5 3357.5,-246.5"/>
<text text-anchor="middle" x="3393" y="-253.5" font-family="FreeSans.ttf" font-size="10.00" fill="#000000">Indices.cpp</text>
</a>
</g>
</g>
<!-- Node3&#45;&gt;Node146 -->
<g id="edge131" class="edge">
<title>Node3&#45;&gt;Node146</title>
<path fill="none" stroke="#191970" d="M1593.3515,-311.9052C1824.9781,-311.2185 2987.5744,-305.8109 3343,-266 3347.6626,-265.4777 3352.5378,-264.7431 3357.3375,-263.9064"/>
<polygon fill="#191970" stroke="#191970" points="1593.0222,-308.406 1583.0322,-311.9345 1593.0422,-315.406 1593.0222,-308.406"/>
</g>
<!-- Node5 -->
<g id="node3" class="node">
<title>Node5</title>
<g id="a_node3"><a xlink:href="BerdyHelper_8cpp.html" target="_top" xlink:title="BerdyHelper.cpp">
<polygon fill="none" stroke="#000000" points="1725.5,-6 1725.5,-25 1822.5,-25 1822.5,-6 1725.5,-6"/>
<text text-anchor="middle" x="1774" y="-13" font-family="FreeSans.ttf" font-size="10.00" fill="#000000">BerdyHelper.cpp</text>
</a>
</g>
</g>
<!-- Node4&#45;&gt;Node5 -->
<g id="edge2" class="edge">
<title>Node4&#45;&gt;Node5</title>
<path fill="none" stroke="#191970" d="M1536.1553,-70.6405C1592.1315,-57.6633 1680.7789,-37.1118 1732.5741,-25.1039"/>
<polygon fill="#191970" stroke="#191970" points="1535.0509,-67.3036 1526.0997,-72.9717 1536.6319,-74.1227 1535.0509,-67.3036"/>
</g>
<!-- Node6 -->
<g id="node4" class="node">
<title>Node6</title>
<g id="a_node4"><a xlink:href="BerdySparseMAPSolver_8cpp.html" target="_top" xlink:title="BerdySparseMAPSolver.cpp">
<polygon fill="none" stroke="#000000" points="414.5,-6 414.5,-25 563.5,-25 563.5,-6 414.5,-6"/>
<text text-anchor="middle" x="489" y="-13" font-family="FreeSans.ttf" font-size="10.00" fill="#000000">BerdySparseMAPSolver.cpp</text>
</a>
</g>
</g>
<!-- Node4&#45;&gt;Node6 -->
<g id="edge3" class="edge">
<title>Node4&#45;&gt;Node6</title>
<path fill="none" stroke="#191970" d="M1447.6624,-70.2252C1442.7719,-68.9562 1437.7949,-67.83 1433,-67 1136.1016,-15.6047 1056.8491,-47.7314 756,-31 690.9793,-27.384 617.0642,-23.0778 563.5158,-19.9231"/>
<polygon fill="#191970" stroke="#191970" points="1446.9196,-73.6518 1457.4932,-72.9814 1448.8093,-66.9117 1446.9196,-73.6518"/>
</g>
<!-- Node7&#45;&gt;Node6 -->
<g id="edge5" class="edge">
<title>Node7&#45;&gt;Node6</title>
<path fill="none" stroke="#191970" d="M195.8856,-187.5799C126.5426,-166.7653 8.4378,-121.6953 57,-67 80.2561,-40.8068 296.6344,-25.5328 414.0478,-19.1066"/>
<polygon fill="#191970" stroke="#191970" points="195.1561,-191.0134 205.7371,-190.4731 197.1286,-184.297 195.1561,-191.0134"/>
</g>
<!-- Node8&#45;&gt;Node5 -->
<g id="edge10" class="edge">
<title>Node8&#45;&gt;Node5</title>
<path fill="none" stroke="#191970" d="M2286.6188,-133.2238C2230.7872,-125.7073 2158.7354,-114.115 2096,-98 2056.2427,-87.7874 2048.4605,-78.3051 2009,-67 1945.3598,-48.7677 1870.4403,-33.3703 1822.604,-24.2866"/>
<polygon fill="#191970" stroke="#191970" points="2286.4759,-136.7353 2296.8491,-134.58 2287.3959,-129.7961 2286.4759,-136.7353"/>
</g>
<!-- Node9 -->
<g id="node7" class="node">
<title>Node9</title>
<g id="a_node7"><a xlink:href="ExtWrenchesAndJointTorquesEstimator_8h.html" target="_top" xlink:title="ExtWrenchesAndJointTorques\lEstimator.h">
<polygon fill="none" stroke="#000000" points="2450,-67.5 2450,-97.5 2608,-97.5 2608,-67.5 2450,-67.5"/>
<text text-anchor="start" x="2458" y="-85.5" font-family="FreeSans.ttf" font-size="10.00" fill="#000000">ExtWrenchesAndJointTorques</text>
<text text-anchor="middle" x="2529" y="-74.5" font-family="FreeSans.ttf" font-size="10.00" fill="#000000">Estimator.h</text>
</a>
</g>
</g>
<!-- Node8&#45;&gt;Node9 -->
<g id="edge7" class="edge">
<title>Node8&#45;&gt;Node9</title>
<path fill="none" stroke="#191970" d="M2412.837,-130.4465C2436.412,-120.7159 2468.1908,-107.5991 2492.5505,-97.5446"/>
<polygon fill="#191970" stroke="#191970" points="2411.1894,-127.34 2403.2813,-134.3906 2413.8602,-133.8105 2411.1894,-127.34"/>
</g>
<!-- Node10 -->
<g id="node8" class="node">
<title>Node10</title>
<g id="a_node8"><a xlink:href="ExtWrenchesAndJointTorquesEstimator_8cpp.html" target="_top" xlink:title="ExtWrenchesAndJointTorques\lEstimator.cpp">
<polygon fill="none" stroke="#000000" points="2450,-.5 2450,-30.5 2608,-30.5 2608,-.5 2450,-.5"/>
<text text-anchor="start" x="2458" y="-18.5" font-family="FreeSans.ttf" font-size="10.00" fill="#000000">ExtWrenchesAndJointTorques</text>
<text text-anchor="middle" x="2529" y="-7.5" font-family="FreeSans.ttf" font-size="10.00" fill="#000000">Estimator.cpp</text>
</a>
</g>
</g>
<!-- Node8&#45;&gt;Node10 -->
<g id="edge12" class="edge">
<title>Node8&#45;&gt;Node10</title>
<path fill="none" stroke="#191970" d="M2391.9321,-125.2104C2403.1681,-108.5292 2421.195,-84.2013 2441,-67 2457.8395,-52.3744 2479.4205,-39.67 2496.9962,-30.5388"/>
<polygon fill="#191970" stroke="#191970" points="2388.7002,-123.756 2386.1392,-134.0367 2394.5523,-127.597 2388.7002,-123.756"/>
</g>
<!-- Node11 -->
<g id="node9" class="node">
<title>Node11</title>
<g id="a_node9"><a xlink:href="GravityCompensationHelpers_8h.html" target="_top" xlink:title="GravityCompensationHelpers.h">
<polygon fill="none" stroke="#ff0000" points="1802,-73 1802,-92 1972,-92 1972,-73 1802,-73"/>
<text text-anchor="middle" x="1887" y="-80" font-family="FreeSans.ttf" font-size="10.00" fill="#000000">GravityCompensationHelpers.h</text>
</a>
</g>
</g>
<!-- Node8&#45;&gt;Node11 -->
<g id="edge9" class="edge">
<title>Node8&#45;&gt;Node11</title>
<path fill="none" stroke="#191970" d="M2293.7894,-133.2455C2200.3722,-121.5921 2052.7275,-103.1739 1963.3535,-92.0248"/>
<polygon fill="#191970" stroke="#191970" points="2293.4232,-136.7269 2303.7796,-134.4918 2294.2898,-129.7807 2293.4232,-136.7269"/>
</g>
<!-- Node13 -->
<g id="node10" class="node">
<title>Node13</title>
<g id="a_node10"><a xlink:href="ExternalWrenchesEstimation_8cpp.html" target="_top" xlink:title="ExternalWrenchesEstimation.cpp">
<polygon fill="none" stroke="#000000" points="2625.5,-73 2625.5,-92 2802.5,-92 2802.5,-73 2625.5,-73"/>
<text text-anchor="middle" x="2714" y="-80" font-family="FreeSans.ttf" font-size="10.00" fill="#000000">ExternalWrenchesEstimation.cpp</text>
</a>
</g>
</g>
<!-- Node8&#45;&gt;Node13 -->
<g id="edge11" class="edge">
<title>Node8&#45;&gt;Node13</title>
<path fill="none" stroke="#191970" d="M2441.6979,-132.6395C2505.1393,-120.9579 2602.8278,-102.9703 2662.3322,-92.0137"/>
<polygon fill="#191970" stroke="#191970" points="2441.0219,-129.205 2431.821,-134.4581 2442.2895,-136.0893 2441.0219,-129.205"/>
</g>
<!-- Node8&#45;&gt;Node14 -->
<g id="edge13" class="edge">
<title>Node8&#45;&gt;Node14</title>
<path fill="none" stroke="#191970" d="M2473.0573,-135.8243C2615.145,-123.3408 2883.0242,-99.8057 3009.9302,-88.6561"/>
<polygon fill="#191970" stroke="#191970" points="2472.7033,-132.3418 2463.048,-136.7036 2473.316,-139.3149 2472.7033,-132.3418"/>
</g>
<!-- Node9&#45;&gt;Node10 -->
<g id="edge8" class="edge">
<title>Node9&#45;&gt;Node10</title>
<path fill="none" stroke="#191970" d="M2529,-57.0249C2529,-48.128 2529,-38.4287 2529,-30.6432"/>
<polygon fill="#191970" stroke="#191970" points="2525.5001,-57.2966 2529,-67.2967 2532.5001,-57.2967 2525.5001,-57.2966"/>
</g>
<!-- Node15 -->
<g id="node12" class="node">
<title>Node15</title>
<g id="a_node12"><a xlink:href="iCub_2skinDynLibConversions_8h.html" target="_top" xlink:title="skinDynLibConversions.h">
<polygon fill="none" stroke="#000000" points="2944,-6 2944,-25 3084,-25 3084,-6 2944,-6"/>
<text text-anchor="middle" x="3014" y="-13" font-family="FreeSans.ttf" font-size="10.00" fill="#000000">skinDynLibConversions.h</text>
</a>
</g>
</g>
<!-- Node14&#45;&gt;Node15 -->
<g id="edge14" class="edge">
<title>Node14&#45;&gt;Node15</title>
<path fill="none" stroke="#191970" d="M3063.3311,-65.5785C3050.7077,-52.7639 3033.8215,-35.6218 3023.4386,-25.0817"/>
<polygon fill="#191970" stroke="#191970" points="3061.0327,-68.2327 3070.5438,-72.9005 3066.0195,-63.3203 3061.0327,-68.2327"/>
</g>
<!-- Node16 -->
<g id="node13" class="node">
<title>Node16</title>
<g id="a_node13"><a xlink:href="skinDynLibConversions_8cpp.html" target="_top" xlink:title="skinDynLibConversions.cpp">
<polygon fill="none" stroke="#000000" points="3102.5,-6 3102.5,-25 3253.5,-25 3253.5,-6 3102.5,-6"/>
<text text-anchor="middle" x="3178" y="-13" font-family="FreeSans.ttf" font-size="10.00" fill="#000000">skinDynLibConversions.cpp</text>
</a>
</g>
</g>
<!-- Node14&#45;&gt;Node16 -->
<g id="edge15" class="edge">
<title>Node14&#45;&gt;Node16</title>
<path fill="none" stroke="#191970" d="M3102.3991,-67.1864C3121.3483,-54.2312 3147.9136,-36.0693 3163.985,-25.0817"/>
<polygon fill="#191970" stroke="#191970" points="3100.3208,-64.3674 3094.041,-72.9005 3104.2715,-70.146 3100.3208,-64.3674"/>
</g>
<!-- Node17&#45;&gt;Node18 -->
<g id="edge17" class="edge">
<title>Node17&#45;&gt;Node18</title>
<path fill="none" stroke="#191970" d="M137,-62.6079C137,-50.214 137,-34.8263 137,-25.0817"/>
<polygon fill="#191970" stroke="#191970" points="133.5001,-62.9005 137,-72.9005 140.5001,-62.9006 133.5001,-62.9005"/>
</g>
<!-- Node20 -->
<g id="node17" class="node">
<title>Node20</title>
<g id="a_node17"><a xlink:href="KinDynComputations_8cpp.html" target="_top" xlink:title="KinDynComputations.cpp">
<polygon fill="none" stroke="#000000" points="1284,-73 1284,-92 1424,-92 1424,-73 1284,-73"/>
<text text-anchor="middle" x="1354" y="-80" font-family="FreeSans.ttf" font-size="10.00" fill="#000000">KinDynComputations.cpp</text>
</a>
</g>
</g>
<!-- Node19&#45;&gt;Node20 -->
<g id="edge20" class="edge">
<title>Node19&#45;&gt;Node20</title>
<path fill="none" stroke="#191970" d="M940.4819,-134.6135C1033.7735,-122.8564 1192.4278,-102.8621 1283.7099,-91.3583"/>
<polygon fill="#191970" stroke="#191970" points="940.0346,-131.142 930.5508,-135.865 940.91,-138.0871 940.0346,-131.142"/>
</g>
<!-- Node21 -->
<g id="node18" class="node">
<title>Node21</title>
<g id="a_node18"><a xlink:href="InverseKinematicsData_8h.html" target="_top" xlink:title="InverseKinematicsData.h">
<polygon fill="none" stroke="#ff0000" points="452,-73 452,-92 592,-92 592,-73 452,-73"/>
<text text-anchor="middle" x="522" y="-80" font-family="FreeSans.ttf" font-size="10.00" fill="#000000">InverseKinematicsData.h</text>
</a>
</g>
</g>
<!-- Node19&#45;&gt;Node21 -->
<g id="edge21" class="edge">
<title>Node19&#45;&gt;Node21</title>
<path fill="none" stroke="#191970" d="M799.0071,-132.7875C745.3877,-123.7129 668.2933,-110.4406 601,-98 590.8295,-96.1198 579.9378,-94.0314 569.5917,-92.0124"/>
<polygon fill="#191970" stroke="#191970" points="798.6294,-136.2732 809.0728,-134.4884 799.7958,-129.371 798.6294,-136.2732"/>
</g>
<!-- Node24 -->
<g id="node19" class="node">
<title>Node24</title>
<g id="a_node19"><a xlink:href="idyntree-model-info_8cpp.html" target="_top" xlink:title="idyntree&#45;model&#45;info.cpp">
<polygon fill="none" stroke="#000000" points="908,-73 908,-92 1042,-92 1042,-73 908,-73"/>
<text text-anchor="middle" x="975" y="-80" font-family="FreeSans.ttf" font-size="10.00" fill="#000000">idyntree&#45;model&#45;info.cpp</text>
</a>
</g>
</g>
<!-- Node19&#45;&gt;Node24 -->
<g id="edge22" class="edge">
<title>Node19&#45;&gt;Node24</title>
<path fill="none" stroke="#191970" d="M891.8498,-129.415C912.3391,-117.8546 940.3769,-102.035 958.0883,-92.0419"/>
<polygon fill="#191970" stroke="#191970" points="890.0207,-126.4283 883.0313,-134.3906 893.4605,-132.5249 890.0207,-126.4283"/>
</g>
<!-- Node25 -->
<g id="node20" class="node">
<title>Node25</title>
<g id="a_node20"><a xlink:href="ObserverThread_8h.html" target="_top" xlink:title="ObserverThread.h">
<polygon fill="none" stroke="#ff0000" points="610,-73 610,-92 714,-92 714,-73 610,-73"/>
<text text-anchor="middle" x="662" y="-80" font-family="FreeSans.ttf" font-size="10.00" fill="#000000">ObserverThread.h</text>
</a>
</g>
</g>
<!-- Node19&#45;&gt;Node25 -->
<g id="edge23" class="edge">
<title>Node19&#45;&gt;Node25</title>
<path fill="none" stroke="#191970" d="M824.2051,-131.4001C785.4856,-119.7273 728.7403,-102.6202 693.6512,-92.0419"/>
<polygon fill="#191970" stroke="#191970" points="823.5404,-134.8552 834.125,-134.3906 825.5609,-128.1531 823.5404,-134.8552"/>
</g>
<!-- Node30 -->
<g id="node21" class="node">
<title>Node30</title>
<g id="a_node21"><a xlink:href="urdf2dh_8cpp.html" target="_top" xlink:title="urdf2dh.cpp">
<polygon fill="none" stroke="#000000" points="360,-73 360,-92 434,-92 434,-73 360,-73"/>
<text text-anchor="middle" x="397" y="-80" font-family="FreeSans.ttf" font-size="10.00" fill="#000000">urdf2dh.cpp</text>
</a>
</g>
</g>
<!-- Node19&#45;&gt;Node30 -->
<g id="edge24" class="edge">
<title>Node19&#45;&gt;Node30</title>
<path fill="none" stroke="#191970" d="M790.993,-136.7344C678.5919,-125.7115 476.0558,-105.2762 443,-98 436.0866,-96.4782 428.7575,-94.2863 422.0298,-92.0278"/>
<polygon fill="#191970" stroke="#191970" points="790.955,-140.2474 801.2485,-137.7386 791.6372,-133.2807 790.955,-140.2474"/>
</g>
<!-- Node31 -->
<g id="node22" class="node">
<title>Node31</title>
<g id="a_node22"><a xlink:href="robotstatepublisher_8h.html" target="_top" xlink:title="robotstatepublisher.h">
<polygon fill="none" stroke="#ff0000" points="770,-73 770,-92 890,-92 890,-73 770,-73"/>
<text text-anchor="middle" x="830" y="-80" font-family="FreeSans.ttf" font-size="10.00" fill="#000000">robotstatepublisher.h</text>
</a>
</g>
</g>
<!-- Node19&#45;&gt;Node31 -->
<g id="edge25" class="edge">
<title>Node19&#45;&gt;Node31</title>
<path fill="none" stroke="#191970" d="M855.2209,-125.5857C848.809,-114.632 840.9316,-101.1748 835.7043,-92.2449"/>
<polygon fill="#191970" stroke="#191970" points="852.3026,-127.5286 860.375,-134.3906 858.3437,-123.9923 852.3026,-127.5286"/>
</g>
<!-- Node33 -->
<g id="node23" class="node">
<title>Node33</title>
<g id="a_node23"><a xlink:href="robotstatepublisher_8cpp.html" target="_top" xlink:title="robotstatepublisher.cpp">
<polygon fill="none" stroke="#000000" points="764.5,-6 764.5,-25 895.5,-25 895.5,-6 764.5,-6"/>
<text text-anchor="middle" x="830" y="-13" font-family="FreeSans.ttf" font-size="10.00" fill="#000000">robotstatepublisher.cpp</text>
</a>
</g>
</g>
<!-- Node19&#45;&gt;Node33 -->
<g id="edge27" class="edge">
<title>Node19&#45;&gt;Node33</title>
<path fill="none" stroke="#191970" d="M805.6462,-130.9725C788.2911,-124.1306 771.2902,-113.7424 761,-98 753.4616,-86.4674 754.8241,-79.3161 761,-67 770.7827,-47.4914 791.8497,-33.4841 808.1479,-25.0484"/>
<polygon fill="#191970" stroke="#191970" points="804.6893,-134.3474 815.2839,-134.4201 807.0471,-127.7564 804.6893,-134.3474"/>
</g>
<!-- Node31&#45;&gt;Node33 -->
<g id="edge26" class="edge">
<title>Node31&#45;&gt;Node33</title>
<path fill="none" stroke="#191970" d="M830,-62.6079C830,-50.214 830,-34.8263 830,-25.0817"/>
<polygon fill="#191970" stroke="#191970" points="826.5001,-62.9005 830,-72.9005 833.5001,-62.9006 826.5001,-62.9005"/>
</g>
<!-- Node35&#45;&gt;Node9 -->
<g id="edge31" class="edge">
<title>Node35&#45;&gt;Node9</title>
<path fill="none" stroke="#191970" d="M2942.0467,-137.8776C2866.2012,-129.8933 2731.6422,-114.9318 2617,-98 2614.0842,-97.5694 2611.1164,-97.1173 2608.1205,-96.6492"/>
<polygon fill="#191970" stroke="#191970" points="2942.0407,-141.3961 2952.351,-138.9574 2942.7703,-134.4342 2942.0407,-141.3961"/>
</g>
<!-- Node35&#45;&gt;Node10 -->
<g id="edge33" class="edge">
<title>Node35&#45;&gt;Node10</title>
<path fill="none" stroke="#191970" d="M2996.505,-124.6954C2990.2815,-106.6218 2978.2729,-80.444 2958,-67 2929.5158,-48.1108 2724.1617,-30.0153 2608.2065,-21.1568"/>
<polygon fill="#191970" stroke="#191970" points="2993.1709,-125.7607 2999.5195,-134.2428 2999.8461,-123.653 2993.1709,-125.7607"/>
</g>
<!-- Node35&#45;&gt;Node13 -->
<g id="edge32" class="edge">
<title>Node35&#45;&gt;Node13</title>
<path fill="none" stroke="#191970" d="M2947.4577,-132.3529C2892.8111,-120.6836 2809.7015,-102.9363 2758.7888,-92.0643"/>
<polygon fill="#191970" stroke="#191970" points="2946.8055,-135.7925 2957.316,-134.4581 2948.2674,-128.9469 2946.8055,-135.7925"/>
</g>
<!-- Node35&#45;&gt;Node16 -->
<g id="edge34" class="edge">
<title>Node35&#45;&gt;Node16</title>
<path fill="none" stroke="#191970" d="M3061.8594,-132.9699C3100.288,-124.7017 3145.4501,-112.3691 3159,-98 3178.159,-77.6828 3179.3449,-42.0795 3178.6829,-25.0719"/>
<polygon fill="#191970" stroke="#191970" points="3060.8163,-129.6123 3051.746,-135.0876 3062.251,-136.4637 3060.8163,-129.6123"/>
</g>
<!-- Node36 -->
<g id="node26" class="node">
<title>Node36</title>
<g id="a_node26"><a xlink:href="ContactWrench_8cpp.html" target="_top" xlink:title="ContactWrench.cpp">
<polygon fill="none" stroke="#000000" points="3206,-73 3206,-92 3316,-92 3316,-73 3206,-73"/>
<text text-anchor="middle" x="3261" y="-80" font-family="FreeSans.ttf" font-size="10.00" fill="#000000">ContactWrench.cpp</text>
</a>
</g>
</g>
<!-- Node35&#45;&gt;Node36 -->
<g id="edge35" class="edge">
<title>Node35&#45;&gt;Node36</title>
<path fill="none" stroke="#191970" d="M3051.9708,-132.1343C3101.1234,-120.463 3175.22,-102.8686 3220.7212,-92.0643"/>
<polygon fill="#191970" stroke="#191970" points="3051.1054,-128.7424 3042.1846,-134.4581 3052.7227,-135.5531 3051.1054,-128.7424"/>
</g>
<!-- Node37&#45;&gt;Node30 -->
<g id="edge39" class="edge">
<title>Node37&#45;&gt;Node30</title>
<path fill="none" stroke="#191970" d="M615.2114,-133.3421C566.5598,-125.2787 500.3518,-113.0375 443,-98 436.6416,-96.3329 429.8875,-94.2427 423.5691,-92.1421"/>
<polygon fill="#191970" stroke="#191970" points="614.8826,-136.8349 625.3171,-134.9988 616.0151,-129.9271 614.8826,-136.8349"/>
</g>
<!-- Node38 -->
<g id="node28" class="node">
<title>Node38</title>
<g id="a_node28"><a xlink:href="iKinConversions_8cpp.html" target="_top" xlink:title="iKinConversions.cpp">
<polygon fill="none" stroke="#000000" points="226,-73 226,-92 342,-92 342,-73 226,-73"/>
<text text-anchor="middle" x="284" y="-80" font-family="FreeSans.ttf" font-size="10.00" fill="#000000">iKinConversions.cpp</text>
</a>
</g>
</g>
<!-- Node37&#45;&gt;Node38 -->
<g id="edge37" class="edge">
<title>Node37&#45;&gt;Node38</title>
<path fill="none" stroke="#191970" d="M615.1803,-136.2492C547.4037,-128.2863 441.7561,-114.7122 351,-98 341.724,-96.2919 331.7926,-94.1619 322.4937,-92.0332"/>
<polygon fill="#191970" stroke="#191970" points="614.9734,-139.7487 625.3116,-137.4308 615.7844,-132.7959 614.9734,-139.7487"/>
</g>
<!-- Node39 -->
<g id="node29" class="node">
<title>Node39</title>
<g id="a_node29"><a xlink:href="DenavitHartenberg_8cpp.html" target="_top" xlink:title="DenavitHartenberg.cpp">
<polygon fill="none" stroke="#000000" points="1060,-73 1060,-92 1190,-92 1190,-73 1060,-73"/>
<text text-anchor="middle" x="1125" y="-80" font-family="FreeSans.ttf" font-size="10.00" fill="#000000">DenavitHartenberg.cpp</text>
</a>
</g>
</g>
<!-- Node37&#45;&gt;Node39 -->
<g id="edge38" class="edge">
<title>Node37&#45;&gt;Node39</title>
<path fill="none" stroke="#191970" d="M754.9159,-136.9252C828.7539,-129.0537 948.4451,-115.156 1051,-98 1061.2274,-96.2891 1072.1897,-94.1581 1082.4592,-92.0292"/>
<polygon fill="#191970" stroke="#191970" points="754.3837,-133.4619 744.8079,-137.9956 755.1209,-140.423 754.3837,-133.4619"/>
</g>
<!-- Node40&#45;&gt;Node5 -->
<g id="edge42" class="edge">
<title>Node40&#45;&gt;Node5</title>
<path fill="none" stroke="#191970" d="M2026.5275,-124.9213C2017.6877,-107.2318 2002.1561,-81.521 1981,-67 1955.5814,-49.5534 1875.6642,-33.0161 1822.8914,-23.5854"/>
<polygon fill="#191970" stroke="#191970" points="2023.5084,-126.7239 2030.9509,-134.2645 2029.8352,-123.7286 2023.5084,-126.7239"/>
</g>
<!-- Node40&#45;&gt;Node10 -->
<g id="edge43" class="edge">
<title>Node40&#45;&gt;Node10</title>
<path fill="none" stroke="#191970" d="M2082.2307,-138.1311C2133.6862,-131.1182 2218.1315,-117.792 2289,-98 2326.1258,-87.6316 2333.6522,-79.8321 2370,-67 2406.8006,-54.0081 2448.8214,-40.452 2480.4189,-30.5108"/>
<polygon fill="#191970" stroke="#191970" points="2081.5276,-134.6939 2072.0808,-139.4907 2082.457,-141.632 2081.5276,-134.6939"/>
</g>
<!-- Node40&#45;&gt;Node11 -->
<g id="edge41" class="edge">
<title>Node40&#45;&gt;Node11</title>
<path fill="none" stroke="#191970" d="M2002.5015,-130.4955C1974.4956,-118.858 1934.7694,-102.3501 1909.9626,-92.0419"/>
<polygon fill="#191970" stroke="#191970" points="2001.2975,-133.7853 2011.875,-134.3906 2003.9836,-127.3212 2001.2975,-133.7853"/>
</g>
<!-- Node40&#45;&gt;Node20 -->
<g id="edge44" class="edge">
<title>Node40&#45;&gt;Node20</title>
<path fill="none" stroke="#191970" d="M1987.7464,-141.1106C1865.3512,-133.5108 1540.1049,-112.5479 1433,-98 1421.5048,-96.4386 1409.1593,-94.2604 1397.7231,-92.0294"/>
<polygon fill="#191970" stroke="#191970" points="1987.7237,-144.6158 1997.9209,-141.7406 1988.1564,-137.6292 1987.7237,-144.6158"/>
</g>
<!-- Node41 -->
<g id="node31" class="node">
<title>Node41</title>
<g id="a_node31"><a xlink:href="DynamicsLinearization_8h.html" target="_top" xlink:title="DynamicsLinearization.h">
<polygon fill="none" stroke="#ff0000" points="2046.5,-6 2046.5,-25 2183.5,-25 2183.5,-6 2046.5,-6"/>
<text text-anchor="middle" x="2115" y="-13" font-family="FreeSans.ttf" font-size="10.00" fill="#000000">DynamicsLinearization.h</text>
</a>
</g>
</g>
<!-- Node40&#45;&gt;Node41 -->
<g id="edge45" class="edge">
<title>Node40&#45;&gt;Node41</title>
<path fill="none" stroke="#191970" d="M2046.4286,-125.6428C2063.6333,-98.0077 2095.5898,-46.6776 2108.9172,-25.2705"/>
<polygon fill="#191970" stroke="#191970" points="2043.3269,-124.0025 2041.013,-134.3416 2049.2694,-127.7022 2043.3269,-124.0025"/>
</g>
<!-- Node43 -->
<g id="node32" class="node">
<title>Node43</title>
<g id="a_node32"><a xlink:href="DynamicsLinearizationHelpers_8h.html" target="_top" xlink:title="DynamicsLinearizationHelpers.h">
<polygon fill="none" stroke="#ff0000" points="2104.5,-73 2104.5,-92 2279.5,-92 2279.5,-73 2104.5,-73"/>
<text text-anchor="middle" x="2192" y="-80" font-family="FreeSans.ttf" font-size="10.00" fill="#000000">DynamicsLinearizationHelpers.h</text>
</a>
</g>
</g>
<!-- Node40&#45;&gt;Node43 -->
<g id="edge46" class="edge">
<title>Node40&#45;&gt;Node43</title>
<path fill="none" stroke="#191970" d="M2069.0863,-130.6477C2098.8153,-119.0023 2141.2107,-102.3952 2167.641,-92.0419"/>
<polygon fill="#191970" stroke="#191970" points="2067.5658,-127.4843 2059.5313,-134.3906 2070.119,-134.0021 2067.5658,-127.4843"/>
</g>
<!-- Node45 -->
<g id="node33" class="node">
<title>Node45</title>
<g id="a_node33"><a xlink:href="Dynamics_8cpp.html" target="_top" xlink:title="Dynamics.cpp">
<polygon fill="none" stroke="#000000" points="1660,-73 1660,-92 1746,-92 1746,-73 1660,-73"/>
<text text-anchor="middle" x="1703" y="-80" font-family="FreeSans.ttf" font-size="10.00" fill="#000000">Dynamics.cpp</text>
</a>
</g>
</g>
<!-- Node40&#45;&gt;Node45 -->
<g id="edge48" class="edge">
<title>Node40&#45;&gt;Node45</title>
<path fill="none" stroke="#191970" d="M1987.9821,-135.2904C1923.501,-123.3458 1808.5397,-102.0503 1746.1518,-90.4935"/>
<polygon fill="#191970" stroke="#191970" points="1987.4115,-138.7441 1997.8818,-137.1242 1988.6866,-131.8612 1987.4115,-138.7441"/>
</g>
<!-- Node43&#45;&gt;Node41 -->
<g id="edge47" class="edge">
<title>Node43&#45;&gt;Node41</title>
<path fill="none" stroke="#191970" d="M2173.3812,-66.2992C2158.5718,-53.4131 2138.3536,-35.8207 2126.0118,-25.0817"/>
<polygon fill="#191970" stroke="#191970" points="2171.1263,-68.9767 2180.9678,-72.9005 2175.7213,-63.6959 2171.1263,-68.9767"/>
</g>
<!-- Node47&#45;&gt;Node39 -->
<g id="edge50" class="edge">
<title>Node47&#45;&gt;Node39</title>
<path fill="none" stroke="#191970" d="M1141.0955,-184.2861C1131.3842,-176.4665 1121.2337,-166.0919 1116,-154 1107.0546,-133.3328 1115.1381,-106.3803 1120.7261,-92.1988"/>
<polygon fill="#191970" stroke="#191970" points="1139.2766,-187.2962 1149.382,-190.4791 1143.4671,-181.6891 1139.2766,-187.2962"/>
</g>
<!-- Node53&#45;&gt;Node5 -->
<g id="edge52" class="edge">
<title>Node53&#45;&gt;Node5</title>
<path fill="none" stroke="#191970" d="M1226.229,-125.3043C1235.3316,-107.0687 1251.837,-80.207 1275,-67 1313.5856,-44.9995 1607.5453,-25.3593 1725.3744,-18.2882"/>
<polygon fill="#191970" stroke="#191970" points="1223.0365,-123.8684 1221.9383,-134.4062 1229.3683,-126.8533 1223.0365,-123.8684"/>
</g>
<!-- Node53&#45;&gt;Node18 -->
<g id="edge53" class="edge">
<title>Node53&#45;&gt;Node18</title>
<path fill="none" stroke="#191970" d="M1219.1682,-124.0915C1219.0186,-106.1643 1215.5817,-80.6054 1199,-67 1164.9067,-39.0262 450.0425,-33.2685 406,-31 341.0635,-27.6553 267.3387,-23.3731 213.5134,-20.1575"/>
<polygon fill="#191970" stroke="#191970" points="1215.6633,-124.2453 1218.911,-134.33 1222.6611,-124.4211 1215.6633,-124.2453"/>
</g>
<!-- Node53&#45;&gt;Node20 -->
<g id="edge54" class="edge">
<title>Node53&#45;&gt;Node20</title>
<path fill="none" stroke="#191970" d="M1248.5402,-130.1895C1274.2352,-118.5701 1310.3028,-102.2601 1332.8992,-92.0419"/>
<polygon fill="#191970" stroke="#191970" points="1246.9195,-127.0811 1239.25,-134.3906 1249.8038,-133.4593 1246.9195,-127.0811"/>
</g>
<!-- Node53&#45;&gt;Node39 -->
<g id="edge55" class="edge">
<title>Node53&#45;&gt;Node39</title>
<path fill="none" stroke="#191970" d="M1194.9935,-128.786C1177.6038,-117.2864 1154.2685,-101.855 1139.4292,-92.0419"/>
<polygon fill="#191970" stroke="#191970" points="1193.197,-131.7941 1203.4688,-134.3906 1197.0582,-125.9553 1193.197,-131.7941"/>
</g>
<!-- Node56&#45;&gt;Node4 -->
<g id="edge57" class="edge">
<title>Node56&#45;&gt;Node4</title>
<path fill="none" stroke="#191970" d="M1525.4299,-126.9007C1515.2553,-115.7268 1502.3332,-101.5356 1493.8734,-92.2449"/>
<polygon fill="#191970" stroke="#191970" points="1522.9294,-129.3531 1532.25,-134.3906 1528.1052,-124.6402 1522.9294,-129.3531"/>
</g>
<!-- Node56&#45;&gt;Node9 -->
<g id="edge58" class="edge">
<title>Node56&#45;&gt;Node9</title>
<path fill="none" stroke="#191970" d="M1606.0747,-133.9885C1909.4698,-102.7441 1988.3652,-115.6188 2289,-98 2342.6655,-94.8549 2403.0563,-90.9528 2449.8335,-87.8506"/>
<polygon fill="#191970" stroke="#191970" points="1605.6967,-130.5089 1596.1112,-135.0221 1606.419,-137.4715 1605.6967,-130.5089"/>
</g>
<!-- Node56&#45;&gt;Node11 -->
<g id="edge59" class="edge">
<title>Node56&#45;&gt;Node11</title>
<path fill="none" stroke="#191970" d="M1604.9145,-132.6395C1670.6353,-120.9579 1771.8336,-102.9703 1833.4759,-92.0137"/>
<polygon fill="#191970" stroke="#191970" points="1603.916,-129.262 1594.6829,-134.4581 1605.1411,-136.154 1603.916,-129.262"/>
</g>
<!-- Node56&#45;&gt;Node20 -->
<g id="edge60" class="edge">
<title>Node56&#45;&gt;Node20</title>
<path fill="none" stroke="#191970" d="M1502.234,-131.2507C1466.7528,-119.5818 1415.0417,-102.5752 1383.0136,-92.0419"/>
<polygon fill="#191970" stroke="#191970" points="1501.1883,-134.5912 1511.7813,-134.3906 1503.3753,-127.9416 1501.1883,-134.5912"/>
</g>
<!-- Node56&#45;&gt;Node39 -->
<g id="edge61" class="edge">
<title>Node56&#45;&gt;Node39</title>
<path fill="none" stroke="#191970" d="M1475.5397,-134.3226C1397.274,-122.752 1267.1308,-103.5121 1189.3567,-92.0143"/>
<polygon fill="#191970" stroke="#191970" points="1475.354,-137.8331 1485.7584,-135.8333 1476.3778,-130.9084 1475.354,-137.8331"/>
</g>
<!-- Node56&#45;&gt;Node45 -->
<g id="edge62" class="edge">
<title>Node56&#45;&gt;Node45</title>
<path fill="none" stroke="#191970" d="M1575.7725,-130.7993C1606.4669,-119.1468 1650.4747,-102.4402 1677.8652,-92.0419"/>
<polygon fill="#191970" stroke="#191970" points="1574.4193,-127.5693 1566.3125,-134.3906 1576.9037,-134.1136 1574.4193,-127.5693"/>
</g>
<!-- Node58&#45;&gt;Node47 -->
<g id="edge64" class="edge">
<title>Node58&#45;&gt;Node47</title>
<path fill="none" stroke="#191970" d="M1354.9191,-247.2687C1313.2848,-236.9064 1244.1821,-219.7075 1201.8059,-209.1606"/>
<polygon fill="#191970" stroke="#191970" points="1354.0777,-250.666 1364.627,-249.6849 1355.7684,-243.8733 1354.0777,-250.666"/>
</g>
<!-- Node58&#45;&gt;Node59 -->
<g id="edge65" class="edge">
<title>Node58&#45;&gt;Node59</title>
<path fill="none" stroke="#191970" d="M1425.3326,-252.0742C1520.5513,-241.4943 1781.0586,-212.549 1866.4747,-203.0584"/>
<polygon fill="#191970" stroke="#191970" points="1424.8911,-248.6016 1415.3388,-253.1846 1425.6642,-255.5588 1424.8911,-248.6016"/>
</g>
<!-- Node59&#45;&gt;Node5 -->
<g id="edge69" class="edge">
<title>Node59&#45;&gt;Node5</title>
<path fill="none" stroke="#191970" d="M1899.4937,-180.7314C1902.3295,-166.5317 1903.4719,-147.4317 1894,-134 1866.5361,-95.0546 1824.6865,-133.5946 1793,-98 1774.5294,-77.2513 1772.9757,-42.172 1773.4276,-25.2314"/>
<polygon fill="#191970" stroke="#191970" points="1896.0897,-179.9174 1897.1428,-190.4598 1902.8939,-181.5617 1896.0897,-179.9174"/>
</g>
<!-- Node59&#45;&gt;Node9 -->
<g id="edge66" class="edge">
<title>Node59&#45;&gt;Node9</title>
<path fill="none" stroke="#191970" d="M1932.0721,-198.7208C2053.1989,-194.4103 2424.4909,-179.2549 2472,-154 2495.5495,-141.4816 2512.7381,-114.6011 2521.7726,-97.6"/>
<polygon fill="#191970" stroke="#191970" points="1931.6752,-195.2325 1921.8043,-199.0814 1931.921,-202.2282 1931.6752,-195.2325"/>
</g>
<!-- Node59&#45;&gt;Node10 -->
<g id="edge71" class="edge">
<title>Node59&#45;&gt;Node10</title>
<path fill="none" stroke="#191970" d="M1931.6869,-198.8467C2087.7477,-193.9556 2678.9679,-174.2467 2760,-154 2817.0995,-139.7331 2848.3846,-147.6424 2880,-98 2887.4011,-86.3788 2889.0075,-77.4256 2880,-67 2862.4593,-46.6978 2706.1777,-30.1734 2608.1537,-21.6901"/>
<polygon fill="#191970" stroke="#191970" points="1931.5162,-195.3502 1921.6302,-199.1602 1931.7344,-202.3468 1931.5162,-195.3502"/>
</g>
<!-- Node59&#45;&gt;Node11 -->
<g id="edge67" class="edge">
<title>Node59&#45;&gt;Node11</title>
<path fill="none" stroke="#191970" d="M1919.8699,-184.3355C1936.9647,-171.8125 1954.7377,-153.2252 1946,-134 1937.5615,-115.4331 1918.7558,-100.9432 1904.6291,-92.1269"/>
<polygon fill="#191970" stroke="#191970" points="1917.4186,-181.7714 1911.1363,-190.3028 1921.3676,-187.5512 1917.4186,-181.7714"/>
</g>
<!-- Node59&#45;&gt;Node13 -->
<g id="edge70" class="edge">
<title>Node59&#45;&gt;Node13</title>
<path fill="none" stroke="#191970" d="M1931.8304,-198.3144C2046.3233,-193.0236 2387.9251,-175.7944 2497,-154 2569.7375,-139.4662 2651.9979,-108.0141 2691.0573,-92.1153"/>
<polygon fill="#191970" stroke="#191970" points="1931.6148,-194.8205 1921.7855,-198.7748 1931.9353,-201.8132 1931.6148,-194.8205"/>
</g>
<!-- Node59&#45;&gt;Node16 -->
<g id="edge73" class="edge">
<title>Node59&#45;&gt;Node16</title>
<path fill="none" stroke="#191970" d="M1931.9145,-199.6799C2111.2289,-197.996 2875.2819,-188.869 3111,-154 3208.2554,-139.6134 3264.9223,-175.8219 3325,-98 3354.3289,-60.0086 3285.7513,-36.8357 3232.6733,-25.0867"/>
<polygon fill="#191970" stroke="#191970" points="1931.6341,-196.1823 1921.6667,-199.774 1931.6984,-203.182 1931.6341,-196.1823"/>
</g>
<!-- Node59&#45;&gt;Node17 -->
<g id="edge68" class="edge">
<title>Node59&#45;&gt;Node17</title>
<path fill="none" stroke="#191970" d="M1855.9796,-198.5319C1804.6799,-196.5575 1710.4482,-192.9531 1630,-190 1179.7968,-173.4738 1065.4118,-197.393 617,-154 560.5626,-148.5385 547.114,-142.1383 491,-134 369.4474,-116.371 338.2358,-117.6905 217,-98 206.2476,-96.2536 194.7258,-94.1556 183.8704,-92.0753"/>
<polygon fill="#191970" stroke="#191970" points="1856.1271,-202.0401 1866.2544,-198.9277 1856.3966,-195.0453 1856.1271,-202.0401"/>
</g>
<!-- Node59&#45;&gt;Node20 -->
<g id="edge72" class="edge">
<title>Node59&#45;&gt;Node20</title>
<path fill="none" stroke="#191970" d="M1856.1478,-197.9209C1767.1439,-192.6963 1546.8351,-177.7149 1477,-154 1460.7608,-148.4854 1458.7772,-142.704 1444,-134 1418.7163,-119.1075 1389.1428,-102.301 1370.9926,-92.0555"/>
<polygon fill="#191970" stroke="#191970" points="1856.1467,-201.4266 1866.3321,-198.5096 1856.5508,-194.4383 1856.1467,-201.4266"/>
</g>
<!-- Node59&#45;&gt;Node21 -->
<g id="edge74" class="edge">
<title>Node59&#45;&gt;Node21</title>
<path fill="none" stroke="#191970" d="M1856.1535,-198.5285C1664.1252,-191.049 806.1417,-157.4651 793,-154 774.1641,-149.0335 772.3243,-140.609 754,-134 736.6563,-127.7447 630.423,-105.1164 567.8889,-92.0295"/>
<polygon fill="#191970" stroke="#191970" points="1856.1918,-202.0326 1866.3204,-198.9243 1856.4642,-195.0379 1856.1918,-202.0326"/>
</g>
<!-- Node59&#45;&gt;Node24 -->
<g id="edge84" class="edge">
<title>Node59&#45;&gt;Node24</title>
<path fill="none" stroke="#191970" d="M1855.8065,-198.368C1713.5396,-192.1887 1219.0077,-169.7805 1150,-154 1089.8511,-140.2453 1023.6672,-108.1324 992.751,-92.0429"/>
<polygon fill="#191970" stroke="#191970" points="1856.0526,-201.8818 1866.1946,-198.8174 1856.3553,-194.8883 1856.0526,-201.8818"/>
</g>
<!-- Node59&#45;&gt;Node36 -->
<g id="edge76" class="edge">
<title>Node59&#45;&gt;Node36</title>
<path fill="none" stroke="#191970" d="M1931.8696,-199.1904C2119.8488,-195.0802 2948.1709,-175.8595 3061,-154 3129.2393,-140.7793 3205.4214,-108.2624 3240.8514,-92.0339"/>
<polygon fill="#191970" stroke="#191970" points="1931.5774,-195.6959 1921.6559,-199.4126 1931.7297,-202.6942 1931.5774,-195.6959"/>
</g>
<!-- Node59&#45;&gt;Node37 -->
<g id="edge75" class="edge">
<title>Node59&#45;&gt;Node37</title>
<path fill="none" stroke="#191970" d="M1856.2675,-198.5705C1665.5778,-191.3337 814.795,-158.8897 759,-154 754.3508,-153.5926 749.5458,-153.102 744.7207,-152.5596"/>
<polygon fill="#191970" stroke="#191970" points="1856.2396,-202.0719 1866.3652,-198.9536 1856.5051,-195.0769 1856.2396,-202.0719"/>
</g>
<!-- Node59&#45;&gt;Node45 -->
<g id="edge77" class="edge">
<title>Node59&#45;&gt;Node45</title>
<path fill="none" stroke="#191970" d="M1893.1873,-179.9925C1891.5433,-165.4114 1887.0293,-146.1577 1875,-134 1870.0671,-129.0145 1787.0369,-105.579 1738.1725,-92.1036"/>
<polygon fill="#191970" stroke="#191970" points="1889.7033,-180.3358 1893.9619,-190.0371 1896.6825,-179.7975 1889.7033,-180.3358"/>
</g>
<!-- Node59&#45;&gt;Node87 -->
<g id="edge78" class="edge">
<title>Node59&#45;&gt;Node87</title>
<path fill="none" stroke="#191970" d="M1931.6422,-199.4221C2035.5509,-197.409 2334.9739,-188.7857 2581,-154 2585.5316,-153.3593 2590.2818,-152.5204 2594.9381,-151.6006"/>
<polygon fill="#191970" stroke="#191970" points="1931.572,-195.9227 1921.6384,-199.6069 1931.7014,-202.9215 1931.572,-195.9227"/>
</g>
<!-- Node87&#45;&gt;Node4 -->
<g id="edge79" class="edge">
<title>Node87&#45;&gt;Node4</title>
<path fill="none" stroke="#191970" d="M2584.8797,-141.0473C2553.7146,-138.9198 2510.2226,-136.0708 2472,-134 2107.2953,-114.2415 2015.3839,-122.9856 1651,-98 1609.2727,-95.1388 1561.7628,-90.5692 1528.2929,-87.1314"/>
<polygon fill="#191970" stroke="#191970" points="2584.7345,-144.5454 2594.9508,-141.7389 2585.2141,-137.5619 2584.7345,-144.5454"/>
</g>
<!-- Node87&#45;&gt;Node5 -->
<g id="edge81" class="edge">
<title>Node87&#45;&gt;Node5</title>
<path fill="none" stroke="#191970" d="M2669.4429,-133.7841C2723.712,-120.674 2810.8779,-99.4352 2812,-98 2820.4859,-87.1457 2821.5133,-76.9661 2812,-67 2782.2771,-35.8625 2080.987,-33.2615 2038,-31 1962.8079,-27.0441 1875.61,-21.7955 1822.6475,-18.534"/>
<polygon fill="#191970" stroke="#191970" points="2668.2915,-130.4615 2659.3919,-136.2102 2669.934,-137.266 2668.2915,-130.4615"/>
</g>
<!-- Node87&#45;&gt;Node9 -->
<g id="edge80" class="edge">
<title>Node87&#45;&gt;Node9</title>
<path fill="none" stroke="#191970" d="M2602.8657,-128.8545C2587.6714,-119.3193 2568.137,-107.0605 2552.9735,-97.5446"/>
<polygon fill="#191970" stroke="#191970" points="2601.3568,-132.0397 2611.6875,-134.3906 2605.0777,-126.1105 2601.3568,-132.0397"/>
</g>
<!-- Node87&#45;&gt;Node10 -->
<g id="edge83" class="edge">
<title>Node87&#45;&gt;Node10</title>
<path fill="none" stroke="#191970" d="M2668.6978,-134.0671C2668.7986,-134.0447 2668.8994,-134.0223 2669,-134 2750.3064,-115.9622 2897.9303,-130.4635 2844,-67 2828.8393,-49.1594 2696.4165,-32.4299 2608.1613,-23.1196"/>
<polygon fill="#191970" stroke="#191970" points="2668.055,-130.6238 2659.0801,-136.2543 2669.6073,-137.4496 2668.055,-130.6238"/>
</g>
<!-- Node87&#45;&gt;Node13 -->
<g id="edge82" class="edge">
<title>Node87&#45;&gt;Node13</title>
<path fill="none" stroke="#191970" d="M2648.9713,-128.4685C2665.1899,-117.0037 2686.7471,-101.765 2700.5017,-92.0419"/>
<polygon fill="#191970" stroke="#191970" points="2646.7392,-125.7602 2640.5938,-134.3906 2650.7799,-131.4763 2646.7392,-125.7602"/>
</g>
<!-- Node120&#45;&gt;Node20 -->
<g id="edge87" class="edge">
<title>Node120&#45;&gt;Node20</title>
<path fill="none" stroke="#191970" d="M1345.5388,-182.4201C1339.4366,-174.3418 1333.1409,-164.2808 1330,-154 1323.1902,-131.71 1337.4533,-105.8497 1346.7771,-92.1603"/>
<polygon fill="#191970" stroke="#191970" points="1342.9184,-184.7461 1351.9259,-190.3243 1348.363,-180.3465 1342.9184,-184.7461"/>
</g>
<!-- Node121&#45;&gt;Node59 -->
<g id="edge89" class="edge">
<title>Node121&#45;&gt;Node59</title>
<path fill="none" stroke="#191970" d="M1722.6973,-246.0866C1722.7984,-246.0577 1722.8993,-246.0288 1723,-246 1773.3968,-231.5895 1832.5151,-215.9697 1866.3828,-207.1436"/>
<polygon fill="#191970" stroke="#191970" points="1721.6635,-242.7423 1713.0517,-248.9138 1723.6324,-249.4597 1721.6635,-242.7423"/>
</g>
<!-- Node124&#45;&gt;Node4 -->
<g id="edge91" class="edge">
<title>Node124&#45;&gt;Node4</title>
<path fill="none" stroke="#191970" d="M1539.4156,-192.6914C1516.5828,-186.4767 1490.9009,-175.03 1477,-154 1464.4645,-135.0356 1473.7964,-106.8978 1480.2388,-92.2153"/>
<polygon fill="#191970" stroke="#191970" points="1538.7716,-196.1371 1549.3176,-195.1207 1540.4396,-189.3387 1538.7716,-196.1371"/>
</g>
<!-- Node124&#45;&gt;Node8 -->
<g id="edge92" class="edge">
<title>Node124&#45;&gt;Node8</title>
<path fill="none" stroke="#191970" d="M1630.8547,-197.5654C1742.5175,-191.5089 2037.4014,-174.7454 2283,-154 2287.5548,-153.6153 2292.2277,-153.2005 2296.9433,-152.7662"/>
<polygon fill="#191970" stroke="#191970" points="1630.425,-194.0834 1620.6284,-198.1179 1630.8026,-201.0732 1630.425,-194.0834"/>
</g>
<!-- Node124&#45;&gt;Node10 -->
<g id="edge95" class="edge">
<title>Node124&#45;&gt;Node10</title>
<path fill="none" stroke="#191970" d="M1630.807,-197.5649C1718.5592,-192.4994 1916.2886,-179.1506 2081,-154 2198.7103,-136.0262 2230.1529,-136.0038 2343,-98 2373.713,-87.6567 2379.4386,-80.2813 2409,-67 2437.1243,-54.3644 2469.2337,-40.6194 2493.1567,-30.5099"/>
<polygon fill="#191970" stroke="#191970" points="1630.4455,-194.0797 1620.6604,-198.1418 1630.8429,-201.0684 1630.4455,-194.0797"/>
</g>
<!-- Node124&#45;&gt;Node13 -->
<g id="edge94" class="edge">
<title>Node124&#45;&gt;Node13</title>
<path fill="none" stroke="#191970" d="M1630.858,-198.2441C1806.8899,-191.4233 2431.5123,-166.4507 2472,-154 2488.3924,-148.959 2489.1589,-140.5715 2505,-134 2553.8427,-113.7382 2612.544,-100.1412 2655.2834,-92.0315"/>
<polygon fill="#191970" stroke="#191970" points="1630.4975,-194.7553 1620.6402,-198.6391 1630.768,-201.7501 1630.4975,-194.7553"/>
</g>
<!-- Node124&#45;&gt;Node17 -->
<g id="edge93" class="edge">
<title>Node124&#45;&gt;Node17</title>
<path fill="none" stroke="#191970" d="M1539.1162,-197.249C1502.9609,-195.1266 1451.2725,-192.1926 1406,-190 1015.9071,-171.1072 915.8663,-199.7068 528,-154 482.1209,-148.5935 471.4328,-142.3659 426,-134 333.3017,-116.9307 309.7174,-114.9653 217,-98 206.7021,-96.1157 195.6731,-94.0256 185.1961,-92.0062"/>
<polygon fill="#191970" stroke="#191970" points="1539.1592,-200.7575 1549.348,-197.8523 1539.5713,-193.7696 1539.1592,-200.7575"/>
</g>
<!-- Node124&#45;&gt;Node19 -->
<g id="edge96" class="edge">
<title>Node124&#45;&gt;Node19</title>
<path fill="none" stroke="#191970" d="M1539.0958,-196.6728C1438.1531,-189.3193 1189.2893,-170.9871 981,-154 964.7209,-152.6724 947.1515,-151.1765 930.7632,-149.7541"/>
<polygon fill="#191970" stroke="#191970" points="1539.0208,-200.1765 1549.2485,-197.4117 1539.529,-193.195 1539.0208,-200.1765"/>
</g>
<!-- Node124&#45;&gt;Node20 -->
<g id="edge97" class="edge">
<title>Node124&#45;&gt;Node20</title>
<path fill="none" stroke="#191970" d="M1545.7696,-187.0605C1522.1518,-178.7288 1491.7656,-167.04 1466,-154 1428.539,-135.0409 1387.7345,-106.9009 1367.2745,-92.2166"/>
<polygon fill="#191970" stroke="#191970" points="1544.8491,-190.4458 1555.4439,-190.4199 1547.1453,-183.8332 1544.8491,-190.4458"/>
</g>
<!-- Node124&#45;&gt;Node35 -->
<g id="edge98" class="edge">
<title>Node124&#45;&gt;Node35</title>
<path fill="none" stroke="#191970" d="M1630.8097,-198.2424C1788.0475,-192.2019 2320.3173,-171.6909 2760,-154 2826.595,-151.3205 2903.4937,-148.1256 2952.4091,-146.0807"/>
<polygon fill="#191970" stroke="#191970" points="1630.4291,-194.7543 1620.5708,-198.6356 1630.6978,-201.7492 1630.4291,-194.7543"/>
</g>
<!-- Node124&#45;&gt;Node39 -->
<g id="edge101" class="edge">
<title>Node124&#45;&gt;Node39</title>
<path fill="none" stroke="#191970" d="M1539.4299,-196.4951C1430.9245,-187.9735 1165.1383,-165.9908 1150,-154 1130.8267,-138.8132 1126.3173,-107.9504 1125.2847,-92.2077"/>
<polygon fill="#191970" stroke="#191970" points="1539.1833,-199.9864 1549.4258,-197.277 1539.7292,-193.0078 1539.1833,-199.9864"/>
</g>
<!-- Node124&#45;&gt;Node40 -->
<g id="edge99" class="edge">
<title>Node124&#45;&gt;Node40</title>
<path fill="none" stroke="#191970" d="M1630.7751,-194.3035C1720.0366,-183.1954 1915.769,-158.8376 1997.7359,-148.6373"/>
<polygon fill="#191970" stroke="#191970" points="1630.1781,-190.8508 1620.6869,-195.559 1631.0426,-197.7972 1630.1781,-190.8508"/>
</g>
<!-- Node124&#45;&gt;Node45 -->
<g id="edge102" class="edge">
<title>Node124&#45;&gt;Node45</title>
<path fill="none" stroke="#191970" d="M1625.929,-187.2552C1652.7165,-178.0712 1684.3092,-165.3483 1693,-154 1706.8698,-135.8889 1706.0728,-107.3911 1704.4531,-92.4292"/>
<polygon fill="#191970" stroke="#191970" points="1624.7,-183.9756 1616.3287,-190.4695 1626.9225,-190.6134 1624.7,-183.9756"/>
</g>
<!-- Node124&#45;&gt;Node56 -->
<g id="edge100" class="edge">
<title>Node124&#45;&gt;Node56</title>
<path fill="none" stroke="#191970" d="M1571.0231,-182.2112C1563.5871,-172.7472 1554.734,-161.4797 1548.5764,-153.6427"/>
<polygon fill="#191970" stroke="#191970" points="1568.4054,-184.5447 1577.3358,-190.2455 1573.9097,-180.22 1568.4054,-184.5447"/>
</g>
<!-- Node138&#45;&gt;Node4 -->
<g id="edge104" class="edge">
<title>Node138&#45;&gt;Node4</title>
<path fill="none" stroke="#191970" d="M1743.5454,-132.5017C1680.9806,-120.4019 1584.0139,-101.6489 1528.3202,-90.878"/>
<polygon fill="#191970" stroke="#191970" points="1743.1787,-135.9956 1753.6614,-134.4581 1744.5079,-129.1229 1743.1787,-135.9956"/>
</g>
<!-- Node138&#45;&gt;Node9 -->
<g id="edge105" class="edge">
<title>Node138&#45;&gt;Node9</title>
<path fill="none" stroke="#191970" d="M1875.6465,-138.2117C1981.9929,-129.6903 2186.2914,-113.1385 2360,-98 2389.3522,-95.442 2421.5603,-92.5173 2449.9144,-89.9028"/>
<polygon fill="#191970" stroke="#191970" points="1875.3537,-134.7239 1865.665,-139.011 1875.9125,-141.7015 1875.3537,-134.7239"/>
</g>
<!-- Node138&#45;&gt;Node13 -->
<g id="edge106" class="edge">
<title>Node138&#45;&gt;Node13</title>
<path fill="none" stroke="#191970" d="M1875.5467,-140.1019C2068.2018,-129.7231 2580.4921,-101.938 2617,-98 2631.2427,-96.4637 2646.5822,-94.2667 2660.7653,-92.0081"/>
<polygon fill="#191970" stroke="#191970" points="1875.3142,-136.6092 1865.517,-140.6421 1875.6907,-143.5991 1875.3142,-136.6092"/>
</g>
<!-- Node138&#45;&gt;Node20 -->
<g id="edge107" class="edge">
<title>Node138&#45;&gt;Node20</title>
<path fill="none" stroke="#191970" d="M1730.0421,-136.4559C1655.2609,-128.3655 1535.7095,-114.4399 1433,-98 1422.2351,-96.277 1410.6962,-94.165 1399.8542,-92.061"/>
<polygon fill="#191970" stroke="#191970" points="1729.9735,-139.9686 1740.2906,-137.5584 1730.7223,-133.0087 1729.9735,-139.9686"/>
</g>
<!-- Node116&#45;&gt;Node39 -->
<g id="edge111" class="edge">
<title>Node116&#45;&gt;Node39</title>
<path fill="none" stroke="#191970" d="M1068.591,-181.4263C1083.0067,-156.1449 1108.2857,-111.8124 1119.4413,-92.2484"/>
<polygon fill="#191970" stroke="#191970" points="1065.3959,-179.9638 1063.4829,-190.3845 1071.4768,-183.4312 1065.3959,-179.9638"/>
</g>
<!-- Node139&#45;&gt;Node59 -->
<g id="edge113" class="edge">
<title>Node139&#45;&gt;Node59</title>
<path fill="none" stroke="#191970" d="M1894,-236.1575C1894,-227.155 1894,-216.9199 1894,-209.6427"/>
<polygon fill="#191970" stroke="#191970" points="1890.5001,-236.2455 1894,-246.2455 1897.5001,-236.2456 1890.5001,-236.2455"/>
</g>
<!-- Node144&#45;&gt;Node9 -->
<g id="edge115" class="edge">
<title>Node144&#45;&gt;Node9</title>
<path fill="none" stroke="#191970" d="M2675.5591,-131.221C2646.0787,-121.4207 2605.3115,-107.8684 2574.2561,-97.5446"/>
<polygon fill="#191970" stroke="#191970" points="2674.5002,-134.5573 2685.0938,-134.3906 2676.7085,-127.9147 2674.5002,-134.5573"/>
</g>
<!-- Node144&#45;&gt;Node10 -->
<g id="edge117" class="edge">
<title>Node144&#45;&gt;Node10</title>
<path fill="none" stroke="#191970" d="M2760.5161,-137.1445C2815.5833,-127.1321 2895.9245,-105.3902 2863,-67 2846.5999,-47.8774 2701.8704,-31.233 2608.3853,-22.3488"/>
<polygon fill="#191970" stroke="#191970" points="2759.8119,-133.7144 2750.561,-138.8789 2761.0134,-140.6105 2759.8119,-133.7144"/>
</g>
<!-- Node144&#45;&gt;Node13 -->
<g id="edge116" class="edge">
<title>Node144&#45;&gt;Node13</title>
<path fill="none" stroke="#191970" d="M2714,-124.2462C2714,-113.5519 2714,-100.814 2714,-92.2449"/>
<polygon fill="#191970" stroke="#191970" points="2710.5001,-124.3906 2714,-134.3906 2717.5001,-124.3907 2710.5001,-124.3906"/>
</g>
<!-- Node145&#45;&gt;Node4 -->
<g id="edge119" class="edge">
<title>Node145&#45;&gt;Node4</title>
<path fill="none" stroke="#191970" d="M1613.7982,-130.7993C1582.7248,-119.1468 1538.1738,-102.4402 1510.4451,-92.0419"/>
<polygon fill="#191970" stroke="#191970" points="1612.7827,-134.1565 1623.375,-134.3906 1615.2407,-127.6022 1612.7827,-134.1565"/>
</g>
<!-- Node145&#45;&gt;Node5 -->
<g id="edge123" class="edge">
<title>Node145&#45;&gt;Node5</title>
<path fill="none" stroke="#191970" d="M1632.6507,-126.488C1619.349,-110.0431 1604.7709,-85.2987 1618,-67 1630.8666,-49.2027 1684.706,-34.1811 1725.5666,-25.0361"/>
<polygon fill="#191970" stroke="#191970" points="1630.1592,-128.9584 1639.3363,-134.2529 1635.4639,-124.3911 1630.1592,-128.9584"/>
</g>
<!-- Node145&#45;&gt;Node9 -->
<g id="edge120" class="edge">
<title>Node145&#45;&gt;Node9</title>
<path fill="none" stroke="#191970" d="M1694.1092,-138.0443C1706.3842,-136.5659 1719.6889,-135.0934 1732,-134 2010.4732,-109.2673 2081.2033,-118.7699 2360,-98 2389.382,-95.8111 2421.5967,-92.9671 2449.9476,-90.3139"/>
<polygon fill="#191970" stroke="#191970" points="1693.5817,-134.5827 1684.0847,-139.2793 1694.4377,-141.5302 1693.5817,-134.5827"/>
</g>
<!-- Node145&#45;&gt;Node10 -->
<g id="edge125" class="edge">
<title>Node145&#45;&gt;Node10</title>
<path fill="none" stroke="#191970" d="M1643.0109,-124.6879C1638.9128,-107.2024 1636.5205,-81.9597 1651,-67 1657.9151,-59.8556 2235.2819,-30.221 2449.8637,-19.4422"/>
<polygon fill="#191970" stroke="#191970" points="1639.6523,-125.6758 1645.6474,-134.4113 1646.4084,-123.8439 1639.6523,-125.6758"/>
</g>
<!-- Node145&#45;&gt;Node11 -->
<g id="edge121" class="edge">
<title>Node145&#45;&gt;Node11</title>
<path fill="none" stroke="#191970" d="M1693.9504,-132.3847C1739.1738,-120.6988 1808.0761,-102.8942 1850.1714,-92.0166"/>
<polygon fill="#191970" stroke="#191970" points="1692.924,-129.0348 1684.1177,-134.9255 1694.6754,-135.8122 1692.924,-129.0348"/>
</g>
<!-- Node145&#45;&gt;Node13 -->
<g id="edge124" class="edge">
<title>Node145&#45;&gt;Node13</title>
<path fill="none" stroke="#191970" d="M1694.0976,-137.9077C1706.3727,-136.4294 1719.6803,-134.9912 1732,-134 2124.3908,-102.4311 2225.2906,-137.1259 2617,-98 2631.5089,-96.5508 2647.1462,-94.3406 2661.5398,-92.0395"/>
<polygon fill="#191970" stroke="#191970" points="1693.5674,-134.4465 1684.0737,-139.1498 1694.4283,-141.3934 1693.5674,-134.4465"/>
</g>
<!-- Node145&#45;&gt;Node16 -->
<g id="edge127" class="edge">
<title>Node145&#45;&gt;Node16</title>
<path fill="none" stroke="#191970" d="M1694.1146,-138.1041C1706.3897,-136.6257 1719.693,-135.1382 1732,-134 1979.0179,-111.1544 2043.1143,-130.8633 2289,-98 2357.3385,-88.8664 2372.6194,-75.8129 2441,-67 2728.8385,-29.9034 2804.791,-65.0987 3093,-31 3105.6619,-29.5019 3119.2864,-27.2899 3131.8382,-25.0031"/>
<polygon fill="#191970" stroke="#191970" points="1693.5883,-134.6424 1684.0898,-139.3361 1694.4421,-141.5901 1693.5883,-134.6424"/>
</g>
<!-- Node145&#45;&gt;Node17 -->
<g id="edge122" class="edge">
<title>Node145&#45;&gt;Node17</title>
<path fill="none" stroke="#191970" d="M1603.6006,-134.0729C990.9399,-58.3967 827.1623,-164.5592 217,-98 204.6239,-96.65 191.3032,-94.3965 179.1498,-92.0203"/>
<polygon fill="#191970" stroke="#191970" points="1603.2092,-137.5511 1613.5653,-135.3148 1604.075,-130.6048 1603.2092,-137.5511"/>
</g>
<!-- Node145&#45;&gt;Node20 -->
<g id="edge126" class="edge">
<title>Node145&#45;&gt;Node20</title>
<path fill="none" stroke="#191970" d="M1604.1721,-133.8521C1527.9051,-117.4224 1450.685,-101.7782 1402.1818,-92.0719"/>
<polygon fill="#191970" stroke="#191970" points="1603.4368,-137.2739 1613.9503,-135.9641 1604.9147,-130.4317 1603.4368,-137.2739"/>
</g>
<!-- Node145&#45;&gt;Node33 -->
<g id="edge130" class="edge">
<title>Node145&#45;&gt;Node33</title>
<path fill="none" stroke="#191970" d="M1631.2812,-127.2799C1610.5122,-108.8376 1574.1812,-80.0479 1537,-67 1477.4495,-46.1021 1059.4137,-25.6292 895.6128,-18.3174"/>
<polygon fill="#191970" stroke="#191970" points="1629.1877,-130.107 1638.941,-134.2453 1633.8972,-124.928 1629.1877,-130.107"/>
</g>
<!-- Node145&#45;&gt;Node39 -->
<g id="edge128" class="edge">
<title>Node145&#45;&gt;Node39</title>
<path fill="none" stroke="#191970" d="M1603.3446,-134.1009C1545.8532,-126.5485 1307.5007,-101.5375 1190.3399,-89.3065"/>
<polygon fill="#191970" stroke="#191970" points="1603.1325,-137.6063 1613.5288,-135.565 1604.1287,-130.6775 1603.1325,-137.6063"/>
</g>
<!-- Node145&#45;&gt;Node45 -->
<g id="edge129" class="edge">
<title>Node145&#45;&gt;Node45</title>
<path fill="none" stroke="#191970" d="M1664.3005,-126.5744C1674.0668,-115.4517 1686.365,-101.4454 1694.4435,-92.2449"/>
<polygon fill="#191970" stroke="#191970" points="1661.4055,-124.5669 1657.4375,-134.3906 1666.6656,-129.1855 1661.4055,-124.5669"/>
</g>
</g>
</svg>
