<?xml version="1.0" encoding="UTF-8" standalone="no"?>
<!DOCTYPE svg PUBLIC "-//W3C//DTD SVG 1.1//EN"
 "http://www.w3.org/Graphics/SVG/1.1/DTD/svg11.dtd">
<!-- Generated by graphviz version 2.40.1 (20161225.0304)
 -->
<!-- Title: InertialParametersSolidShapesHelpers.h Pages: 1 -->
<svg width="1445pt" height="800pt"
 viewBox="0.00 0.00 1444.50 800.00" xmlns="http://www.w3.org/2000/svg" xmlns:xlink="http://www.w3.org/1999/xlink">
<g id="graph0" class="graph" transform="scale(1 1) rotate(0) translate(4 796)">
<title>InertialParametersSolidShapesHelpers.h</title>
<!-- Node0 -->
<g id="node1" class="node">
<title>Node0</title>
<polygon fill="#bfbfbf" stroke="#000000" points="1086,-761.5 1086,-791.5 1252,-791.5 1252,-761.5 1086,-761.5"/>
<text text-anchor="start" x="1094" y="-779.5" font-family="FreeSans.ttf" font-size="10.00" fill="#000000">InertialParametersSolidShapes</text>
<text text-anchor="middle" x="1169" y="-768.5" font-family="FreeSans.ttf" font-size="10.00" fill="#000000">Helpers.h</text>
</g>
<!-- Node1 -->
<g id="node2" class="node">
<title>Node1</title>
<g id="a_node2"><a xlink:href="Model_8h.html" target="_top" xlink:title="iDynTree/Model/Model.h">
<polygon fill="none" stroke="#000000" points="1102.5,-705.5 1102.5,-724.5 1235.5,-724.5 1235.5,-705.5 1102.5,-705.5"/>
<text text-anchor="middle" x="1169" y="-712.5" font-family="FreeSans.ttf" font-size="10.00" fill="#000000">iDynTree/Model/Model.h</text>
</a>
</g>
</g>
<!-- Node0&#45;&gt;Node1 -->
<g id="edge1" class="edge">
<title>Node0&#45;&gt;Node1</title>
<path fill="none" stroke="#191970" d="M1169,-761.2977C1169,-753.3834 1169,-743.6043 1169,-735.0759"/>
<polygon fill="#191970" stroke="#191970" points="1172.5001,-734.8469 1169,-724.8469 1165.5001,-734.847 1172.5001,-734.8469"/>
</g>
<!-- Node2 -->
<g id="node3" class="node">
<title>Node2</title>
<g id="a_node3"><a xlink:href="IJoint_8h.html" target="_top" xlink:title="iDynTree/Model/IJoint.h">
<polygon fill="none" stroke="#000000" points="1013,-649.5 1013,-668.5 1141,-668.5 1141,-649.5 1013,-649.5"/>
<text text-anchor="middle" x="1077" y="-656.5" font-family="FreeSans.ttf" font-size="10.00" fill="#000000">iDynTree/Model/IJoint.h</text>
</a>
</g>
</g>
<!-- Node1&#45;&gt;Node2 -->
<g id="edge2" class="edge">
<title>Node1&#45;&gt;Node2</title>
<path fill="none" stroke="#191970" d="M1152.9748,-705.2455C1138.8592,-696.6534 1118.0737,-684.0014 1101.8101,-674.1018"/>
<polygon fill="#191970" stroke="#191970" points="1103.2034,-670.8525 1092.8415,-668.6427 1099.5637,-676.8319 1103.2034,-670.8525"/>
</g>
<!-- Node3 -->
<g id="node4" class="node">
<title>Node3</title>
<g id="a_node4"><a xlink:href="Indices_8h.html" target="_top" xlink:title="iDynTree/Model/Indices.h">
<polygon fill="none" stroke="#000000" points="1087,-593.5 1087,-612.5 1225,-612.5 1225,-593.5 1087,-593.5"/>
<text text-anchor="middle" x="1156" y="-600.5" font-family="FreeSans.ttf" font-size="10.00" fill="#000000">iDynTree/Model/Indices.h</text>
</a>
</g>
</g>
<!-- Node1&#45;&gt;Node3 -->
<g id="edge78" class="edge">
<title>Node1&#45;&gt;Node3</title>
<path fill="none" stroke="#191970" d="M1167.8916,-705.4509C1165.7714,-687.184 1161.102,-646.9553 1158.2863,-622.6976"/>
<polygon fill="#191970" stroke="#191970" points="1161.7353,-622.0546 1157.1056,-612.5249 1154.782,-622.8618 1161.7353,-622.0546"/>
</g>
<!-- Node6 -->
<g id="node7" class="node">
<title>Node6</title>
<g id="a_node7"><a xlink:href="Link_8h.html" target="_top" xlink:title="iDynTree/Model/Link.h">
<polygon fill="none" stroke="#000000" points="833,-649.5 833,-668.5 957,-668.5 957,-649.5 833,-649.5"/>
<text text-anchor="middle" x="895" y="-656.5" font-family="FreeSans.ttf" font-size="10.00" fill="#000000">iDynTree/Model/Link.h</text>
</a>
</g>
</g>
<!-- Node1&#45;&gt;Node6 -->
<g id="edge6" class="edge">
<title>Node1&#45;&gt;Node6</title>
<path fill="none" stroke="#191970" d="M1122.209,-705.4369C1075.0205,-695.7925 1002.128,-680.8948 951.6876,-670.5858"/>
<polygon fill="#191970" stroke="#191970" points="952.0963,-667.097 941.598,-668.5237 950.6946,-673.9553 952.0963,-667.097"/>
</g>
<!-- Node40 -->
<g id="node41" class="node">
<title>Node40</title>
<g id="a_node41"><a xlink:href="Transform_8h.html" target="_top" xlink:title="iDynTree/Core/Transform.h">
<polygon fill="none" stroke="#000000" points="996,-403.5 996,-422.5 1142,-422.5 1142,-403.5 996,-403.5"/>
<text text-anchor="middle" x="1069" y="-410.5" font-family="FreeSans.ttf" font-size="10.00" fill="#000000">iDynTree/Core/Transform.h</text>
</a>
</g>
</g>
<!-- Node1&#45;&gt;Node40 -->
<g id="edge73" class="edge">
<title>Node1&#45;&gt;Node40</title>
<path fill="none" stroke="#191970" d="M1113.1754,-705.4539C1071.6217,-697.2734 1019.5205,-684.3905 1004,-669 982.3252,-647.5068 985,-633.5246 985,-603 985,-603 985,-603 985,-541.5 985,-494.8057 1024.3409,-451.8403 1049.1763,-429.369"/>
<polygon fill="#191970" stroke="#191970" points="1051.741,-431.7757 1056.9648,-422.5582 1047.1331,-426.5063 1051.741,-431.7757"/>
</g>
<!-- Node41 -->
<g id="node42" class="node">
<title>Node41</title>
<g id="a_node42"><a xlink:href="SolidShapes_8h.html" target="_top" xlink:title="iDynTree/Model/SolidShapes.h">
<polygon fill="none" stroke="#000000" points="1197.5,-649.5 1197.5,-668.5 1360.5,-668.5 1360.5,-649.5 1197.5,-649.5"/>
<text text-anchor="middle" x="1279" y="-656.5" font-family="FreeSans.ttf" font-size="10.00" fill="#000000">iDynTree/Model/SolidShapes.h</text>
</a>
</g>
</g>
<!-- Node1&#45;&gt;Node41 -->
<g id="edge79" class="edge">
<title>Node1&#45;&gt;Node41</title>
<path fill="none" stroke="#191970" d="M1188.1605,-705.2455C1205.5111,-696.4125 1231.2901,-683.2887 1250.9583,-673.2758"/>
<polygon fill="#191970" stroke="#191970" points="1252.7353,-676.2986 1260.059,-668.6427 1249.5595,-670.0605 1252.7353,-676.2986"/>
</g>
<!-- Node42 -->
<g id="node43" class="node">
<title>Node42</title>
<polygon fill="none" stroke="#bfbfbf" points="1322.5,-593.5 1322.5,-612.5 1371.5,-612.5 1371.5,-593.5 1322.5,-593.5"/>
<text text-anchor="middle" x="1347" y="-600.5" font-family="FreeSans.ttf" font-size="10.00" fill="#000000">cstdlib</text>
</g>
<!-- Node1&#45;&gt;Node42 -->
<g id="edge85" class="edge">
<title>Node1&#45;&gt;Node42</title>
<path fill="none" stroke="#191970" d="M1235.688,-708.5258C1287.2096,-701.9831 1352.44,-689.8011 1369,-669 1379.9843,-655.2025 1371.2812,-635.6729 1361.7754,-621.4388"/>
<polygon fill="#191970" stroke="#191970" points="1364.3239,-618.9922 1355.6118,-612.9632 1358.6626,-623.1093 1364.3239,-618.9922"/>
</g>
<!-- Node43 -->
<g id="node44" class="node">
<title>Node43</title>
<polygon fill="none" stroke="#bfbfbf" points="1389.5,-593.5 1389.5,-612.5 1436.5,-612.5 1436.5,-593.5 1389.5,-593.5"/>
<text text-anchor="middle" x="1413" y="-600.5" font-family="FreeSans.ttf" font-size="10.00" fill="#000000">vector</text>
</g>
<!-- Node1&#45;&gt;Node43 -->
<g id="edge86" class="edge">
<title>Node1&#45;&gt;Node43</title>
<path fill="none" stroke="#191970" d="M1235.6759,-707.7516C1290.7687,-700.5414 1363.4594,-687.82 1386,-669 1399.7825,-657.4925 1406.6144,-637.8406 1409.9476,-622.9659"/>
<polygon fill="#191970" stroke="#191970" points="1413.4628,-623.2109 1411.8717,-612.7362 1406.5835,-621.9169 1413.4628,-623.2109"/>
</g>
<!-- Node2&#45;&gt;Node3 -->
<g id="edge3" class="edge">
<title>Node2&#45;&gt;Node3</title>
<path fill="none" stroke="#191970" d="M1090.7607,-649.2455C1102.6552,-640.814 1120.065,-628.4729 1133.9085,-618.6598"/>
<polygon fill="#191970" stroke="#191970" points="1136.2628,-621.2811 1142.3969,-612.6427 1132.2146,-615.5704 1136.2628,-621.2811"/>
</g>
<!-- Node4 -->
<g id="node5" class="node">
<title>Node4</title>
<polygon fill="none" stroke="#bfbfbf" points="1081,-112.5 1081,-131.5 1125,-131.5 1125,-112.5 1081,-112.5"/>
<text text-anchor="middle" x="1103" y="-119.5" font-family="FreeSans.ttf" font-size="10.00" fill="#000000">string</text>
</g>
<!-- Node3&#45;&gt;Node4 -->
<g id="edge4" class="edge">
<title>Node3&#45;&gt;Node4</title>
<path fill="none" stroke="#191970" d="M1166.8506,-593.2951C1176.1167,-584.5434 1189.2903,-570.9404 1198,-557 1234.4715,-498.6253 1255,-481.8315 1255,-413 1255,-413 1255,-413 1255,-234 1255,-174.8522 1179.4821,-143.4415 1134.9054,-130.0527"/>
<polygon fill="#191970" stroke="#191970" points="1135.6792,-126.6337 1125.1021,-127.2474 1133.7533,-133.3635 1135.6792,-126.6337"/>
</g>
<!-- Node5 -->
<g id="node6" class="node">
<title>Node5</title>
<polygon fill="none" stroke="#bfbfbf" points="1103,-532 1103,-551 1189,-551 1189,-532 1103,-532"/>
<text text-anchor="middle" x="1146" y="-539" font-family="FreeSans.ttf" font-size="10.00" fill="#000000">ModelExport.h</text>
</g>
<!-- Node3&#45;&gt;Node5 -->
<g id="edge5" class="edge">
<title>Node3&#45;&gt;Node5</title>
<path fill="none" stroke="#191970" d="M1154.4375,-593.3906C1153.0513,-584.8657 1150.982,-572.1392 1149.2396,-561.4235"/>
<polygon fill="#191970" stroke="#191970" points="1152.6442,-560.5535 1147.5845,-551.2449 1145.7349,-561.677 1152.6442,-560.5535"/>
</g>
<!-- Node6&#45;&gt;Node3 -->
<g id="edge72" class="edge">
<title>Node6&#45;&gt;Node3</title>
<path fill="none" stroke="#191970" d="M939.5709,-649.4369C984.4268,-639.8127 1053.6649,-624.957 1101.7008,-614.6504"/>
<polygon fill="#191970" stroke="#191970" points="1102.5697,-618.0437 1111.6129,-612.5237 1101.1011,-611.1995 1102.5697,-618.0437"/>
</g>
<!-- Node7 -->
<g id="node8" class="node">
<title>Node7</title>
<g id="a_node8"><a xlink:href="SpatialInertia_8h.html" target="_top" xlink:title="iDynTree/Core/SpatialInertia.h">
<polygon fill="none" stroke="#000000" points="489,-593.5 489,-612.5 651,-612.5 651,-593.5 489,-593.5"/>
<text text-anchor="middle" x="570" y="-600.5" font-family="FreeSans.ttf" font-size="10.00" fill="#000000">iDynTree/Core/SpatialInertia.h</text>
</a>
</g>
</g>
<!-- Node6&#45;&gt;Node7 -->
<g id="edge7" class="edge">
<title>Node6&#45;&gt;Node7</title>
<path fill="none" stroke="#191970" d="M839.4998,-649.4369C782.9437,-639.6918 695.2596,-624.5832 635.3741,-614.2645"/>
<polygon fill="#191970" stroke="#191970" points="635.7204,-610.7726 625.2713,-612.5237 634.5317,-617.671 635.7204,-610.7726"/>
</g>
<!-- Node8 -->
<g id="node9" class="node">
<title>Node8</title>
<g id="a_node9"><a xlink:href="SpatialInertiaRaw_8h.html" target="_top" xlink:title="iDynTree/Core/SpatialInertia\lRaw.h">
<polygon fill="none" stroke="#000000" points="700.5,-526.5 700.5,-556.5 853.5,-556.5 853.5,-526.5 700.5,-526.5"/>
<text text-anchor="start" x="708.5" y="-544.5" font-family="FreeSans.ttf" font-size="10.00" fill="#000000">iDynTree/Core/SpatialInertia</text>
<text text-anchor="middle" x="777" y="-533.5" font-family="FreeSans.ttf" font-size="10.00" fill="#000000">Raw.h</text>
</a>
</g>
</g>
<!-- Node7&#45;&gt;Node8 -->
<g id="edge8" class="edge">
<title>Node7&#45;&gt;Node8</title>
<path fill="none" stroke="#191970" d="M602.3438,-593.3906C632.823,-584.3352 679.2589,-570.539 716.5902,-559.4479"/>
<polygon fill="#191970" stroke="#191970" points="717.773,-562.7477 726.3621,-556.5446 715.7794,-556.0376 717.773,-562.7477"/>
</g>
<!-- Node27 -->
<g id="node28" class="node">
<title>Node27</title>
<g id="a_node28"><a xlink:href="VectorFixSize_8h.html" target="_top" xlink:title="iDynTree/Core/VectorFixSize.h">
<polygon fill="none" stroke="#000000" points="539.5,-168.5 539.5,-187.5 700.5,-187.5 700.5,-168.5 539.5,-168.5"/>
<text text-anchor="middle" x="620" y="-175.5" font-family="FreeSans.ttf" font-size="10.00" fill="#000000">iDynTree/Core/VectorFixSize.h</text>
</a>
</g>
</g>
<!-- Node7&#45;&gt;Node27 -->
<g id="edge33" class="edge">
<title>Node7&#45;&gt;Node27</title>
<path fill="none" stroke="#191970" d="M599.94,-593.4682C617.9296,-586.2346 639.8174,-574.5023 653,-557 675.6372,-526.9449 672,-512.1265 672,-474.5 672,-474.5 672,-474.5 672,-413 672,-331.089 641.51,-236.8306 627.2244,-197.1625"/>
<polygon fill="#191970" stroke="#191970" points="630.4743,-195.8589 623.7397,-187.6799 623.9039,-198.2735 630.4743,-195.8589"/>
</g>
<!-- Node28 -->
<g id="node29" class="node">
<title>Node28</title>
<g id="a_node29"><a xlink:href="Twist_8h.html" target="_top" xlink:title="iDynTree/Core/Twist.h">
<polygon fill="none" stroke="#000000" points="356,-532 356,-551 478,-551 478,-532 356,-532"/>
<text text-anchor="middle" x="417" y="-539" font-family="FreeSans.ttf" font-size="10.00" fill="#000000">iDynTree/Core/Twist.h</text>
</a>
</g>
</g>
<!-- Node7&#45;&gt;Node28 -->
<g id="edge40" class="edge">
<title>Node7&#45;&gt;Node28</title>
<path fill="none" stroke="#191970" d="M546.0938,-593.3906C520.2695,-583.0103 478.9473,-566.4004 450.0295,-554.7766"/>
<polygon fill="#191970" stroke="#191970" points="451.3222,-551.5241 440.7384,-551.0419 448.7115,-558.019 451.3222,-551.5241"/>
</g>
<!-- Node36 -->
<g id="node37" class="node">
<title>Node36</title>
<g id="a_node37"><a xlink:href="SpatialMomentum_8h.html" target="_top" xlink:title="iDynTree/Core/SpatialMomentum.h">
<polygon fill="none" stroke="#000000" points="0,-532 0,-551 186,-551 186,-532 0,-532"/>
<text text-anchor="middle" x="93" y="-539" font-family="FreeSans.ttf" font-size="10.00" fill="#000000">iDynTree/Core/SpatialMomentum.h</text>
</a>
</g>
</g>
<!-- Node7&#45;&gt;Node36 -->
<g id="edge63" class="edge">
<title>Node7&#45;&gt;Node36</title>
<path fill="none" stroke="#191970" d="M488.7149,-593.712C412.699,-584.8642 296.048,-570.8724 195,-557 184.8471,-555.6062 174.1376,-554.0611 163.6273,-552.5021"/>
<polygon fill="#191970" stroke="#191970" points="164.044,-549.0256 153.6362,-551.0076 163.0083,-555.9485 164.044,-549.0256"/>
</g>
<!-- Node38 -->
<g id="node39" class="node">
<title>Node38</title>
<g id="a_node39"><a xlink:href="SpatialAcc_8h.html" target="_top" xlink:title="iDynTree/Core/SpatialAcc.h">
<polygon fill="none" stroke="#000000" points="496,-532 496,-551 644,-551 644,-532 496,-532"/>
<text text-anchor="middle" x="570" y="-539" font-family="FreeSans.ttf" font-size="10.00" fill="#000000">iDynTree/Core/SpatialAcc.h</text>
</a>
</g>
</g>
<!-- Node7&#45;&gt;Node38 -->
<g id="edge68" class="edge">
<title>Node7&#45;&gt;Node38</title>
<path fill="none" stroke="#191970" d="M570,-593.3906C570,-584.8657 570,-572.1392 570,-561.4235"/>
<polygon fill="#191970" stroke="#191970" points="573.5001,-561.2448 570,-551.2449 566.5001,-561.2449 573.5001,-561.2448"/>
</g>
<!-- Node39 -->
<g id="node40" class="node">
<title>Node39</title>
<g id="a_node40"><a xlink:href="Wrench_8h.html" target="_top" xlink:title="iDynTree/Core/Wrench.h">
<polygon fill="none" stroke="#000000" points="204.5,-532 204.5,-551 337.5,-551 337.5,-532 204.5,-532"/>
<text text-anchor="middle" x="271" y="-539" font-family="FreeSans.ttf" font-size="10.00" fill="#000000">iDynTree/Core/Wrench.h</text>
</a>
</g>
</g>
<!-- Node7&#45;&gt;Node39 -->
<g id="edge70" class="edge">
<title>Node7&#45;&gt;Node39</title>
<path fill="none" stroke="#191970" d="M523.6093,-593.4581C470.6884,-582.573 384.1586,-564.7751 327.3894,-553.0985"/>
<polygon fill="#191970" stroke="#191970" points="327.9996,-549.6508 317.4995,-551.0643 326.5893,-556.5073 327.9996,-549.6508"/>
</g>
<!-- Node9 -->
<g id="node10" class="node">
<title>Node9</title>
<g id="a_node10"><a xlink:href="RotationalInertiaRaw_8h.html" target="_top" xlink:title="iDynTree/Core/Rotational\lInertiaRaw.h">
<polygon fill="none" stroke="#000000" points="702.5,-336.5 702.5,-366.5 839.5,-366.5 839.5,-336.5 702.5,-336.5"/>
<text text-anchor="start" x="710.5" y="-354.5" font-family="FreeSans.ttf" font-size="10.00" fill="#000000">iDynTree/Core/Rotational</text>
<text text-anchor="middle" x="771" y="-343.5" font-family="FreeSans.ttf" font-size="10.00" fill="#000000">InertiaRaw.h</text>
</a>
</g>
</g>
<!-- Node8&#45;&gt;Node9 -->
<g id="edge9" class="edge">
<title>Node8&#45;&gt;Node9</title>
<path fill="none" stroke="#191970" d="M776.5191,-526.2727C775.4875,-493.6039 773.0532,-416.5184 771.7906,-376.5352"/>
<polygon fill="#191970" stroke="#191970" points="775.2888,-376.4206 771.4748,-366.5361 768.2923,-376.6416 775.2888,-376.4206"/>
</g>
<!-- Node10 -->
<g id="node11" class="node">
<title>Node10</title>
<g id="a_node11"><a xlink:href="MatrixFixSize_8h.html" target="_top" xlink:title="iDynTree/Core/MatrixFixSize.h">
<polygon fill="none" stroke="#000000" points="720.5,-168.5 720.5,-187.5 881.5,-187.5 881.5,-168.5 720.5,-168.5"/>
<text text-anchor="middle" x="801" y="-175.5" font-family="FreeSans.ttf" font-size="10.00" fill="#000000">iDynTree/Core/MatrixFixSize.h</text>
</a>
</g>
</g>
<!-- Node9&#45;&gt;Node10 -->
<g id="edge10" class="edge">
<title>Node9&#45;&gt;Node10</title>
<path fill="none" stroke="#191970" d="M759.457,-336.225C742.3049,-311.5135 714.1371,-261.731 734,-224 741.1929,-210.3365 754.4802,-199.9486 767.3367,-192.5328"/>
<polygon fill="#191970" stroke="#191970" points="769.3368,-195.4336 776.5288,-187.6538 766.055,-189.2506 769.3368,-195.4336"/>
</g>
<!-- Node10&#45;&gt;Node4 -->
<g id="edge30" class="edge">
<title>Node10&#45;&gt;Node4</title>
<path fill="none" stroke="#191970" d="M852.5725,-168.4369C915.143,-156.8344 1018.7158,-137.6289 1070.8775,-127.9565"/>
<polygon fill="#191970" stroke="#191970" points="1071.7018,-131.3634 1080.896,-126.0988 1070.4255,-124.4807 1071.7018,-131.3634"/>
</g>
<!-- Node11 -->
<g id="node12" class="node">
<title>Node11</title>
<g id="a_node12"><a xlink:href="Utils_8h.html" target="_top" xlink:title="iDynTree/Core/Utils.h">
<polygon fill="none" stroke="#000000" points="647.5,-56.5 647.5,-75.5 766.5,-75.5 766.5,-56.5 647.5,-56.5"/>
<text text-anchor="middle" x="707" y="-63.5" font-family="FreeSans.ttf" font-size="10.00" fill="#000000">iDynTree/Core/Utils.h</text>
</a>
</g>
</g>
<!-- Node10&#45;&gt;Node11 -->
<g id="edge11" class="edge">
<title>Node10&#45;&gt;Node11</title>
<path fill="none" stroke="#191970" d="M784.2957,-168.4027C770.9842,-160.1049 752.5585,-147.0879 740,-132 728.375,-118.0337 719.5013,-99.2821 713.8988,-85.3358"/>
<polygon fill="#191970" stroke="#191970" points="717.0861,-83.87 710.2609,-75.7664 710.5429,-86.3575 717.0861,-83.87"/>
</g>
<!-- Node14 -->
<g id="node15" class="node">
<title>Node14</title>
<g id="a_node15"><a xlink:href="MatrixView_8h.html" target="_top" xlink:title="iDynTree/Core/MatrixView.h">
<polygon fill="none" stroke="#000000" points="749.5,-112.5 749.5,-131.5 900.5,-131.5 900.5,-112.5 749.5,-112.5"/>
<text text-anchor="middle" x="825" y="-119.5" font-family="FreeSans.ttf" font-size="10.00" fill="#000000">iDynTree/Core/MatrixView.h</text>
</a>
</g>
</g>
<!-- Node10&#45;&gt;Node14 -->
<g id="edge14" class="edge">
<title>Node10&#45;&gt;Node14</title>
<path fill="none" stroke="#191970" d="M805.1805,-168.2455C808.381,-160.7776 812.896,-150.2427 816.8084,-141.1137"/>
<polygon fill="#191970" stroke="#191970" points="820.1452,-142.2129 820.8674,-131.6427 813.7112,-139.4554 820.1452,-142.2129"/>
</g>
<!-- Node15 -->
<g id="node16" class="node">
<title>Node15</title>
<polygon fill="none" stroke="#bfbfbf" points="922,-.5 922,-19.5 974,-19.5 974,-.5 922,-.5"/>
<text text-anchor="middle" x="948" y="-7.5" font-family="FreeSans.ttf" font-size="10.00" fill="#000000">cassert</text>
</g>
<!-- Node10&#45;&gt;Node15 -->
<g id="edge28" class="edge">
<title>Node10&#45;&gt;Node15</title>
<path fill="none" stroke="#191970" d="M849.6743,-168.4189C886.0654,-160.1749 931.4455,-147.2232 943,-132 965.5404,-102.3028 959.4697,-55.8281 953.4615,-29.6452"/>
<polygon fill="#191970" stroke="#191970" points="956.8116,-28.6159 950.9739,-19.7743 950.0238,-30.3265 956.8116,-28.6159"/>
</g>
<!-- Node24 -->
<g id="node25" class="node">
<title>Node24</title>
<polygon fill="none" stroke="#bfbfbf" points="643,-112.5 643,-131.5 693,-131.5 693,-112.5 643,-112.5"/>
<text text-anchor="middle" x="668" y="-119.5" font-family="FreeSans.ttf" font-size="10.00" fill="#000000">cstring</text>
</g>
<!-- Node10&#45;&gt;Node24 -->
<g id="edge29" class="edge">
<title>Node10&#45;&gt;Node24</title>
<path fill="none" stroke="#191970" d="M778.1365,-168.3733C756.595,-159.3032 724.1162,-145.6279 700.0044,-135.4755"/>
<polygon fill="#191970" stroke="#191970" points="701.1397,-132.156 690.5652,-131.5011 698.4233,-138.6075 701.1397,-132.156"/>
</g>
<!-- Node25 -->
<g id="node26" class="node">
<title>Node25</title>
<polygon fill="none" stroke="#bfbfbf" points="491,-112.5 491,-131.5 551,-131.5 551,-112.5 491,-112.5"/>
<text text-anchor="middle" x="521" y="-119.5" font-family="FreeSans.ttf" font-size="10.00" fill="#000000">iostream</text>
</g>
<!-- Node10&#45;&gt;Node25 -->
<g id="edge31" class="edge">
<title>Node10&#45;&gt;Node25</title>
<path fill="none" stroke="#191970" d="M745.7613,-168.4681C699.0788,-160.1835 630.2219,-147.4287 561.3481,-132.203"/>
<polygon fill="#191970" stroke="#191970" points="561.7108,-128.6981 551.1889,-129.9389 560.188,-135.5305 561.7108,-128.6981"/>
</g>
<!-- Node26 -->
<g id="node27" class="node">
<title>Node26</title>
<polygon fill="none" stroke="#bfbfbf" points="569,-112.5 569,-131.5 625,-131.5 625,-112.5 569,-112.5"/>
<text text-anchor="middle" x="597" y="-119.5" font-family="FreeSans.ttf" font-size="10.00" fill="#000000">sstream</text>
</g>
<!-- Node10&#45;&gt;Node26 -->
<g id="edge32" class="edge">
<title>Node10&#45;&gt;Node26</title>
<path fill="none" stroke="#191970" d="M765.9311,-168.3733C729.4859,-158.3687 672.6296,-142.7611 635.0993,-132.4586"/>
<polygon fill="#191970" stroke="#191970" points="635.6291,-128.9747 625.0593,-129.7026 633.776,-135.7249 635.6291,-128.9747"/>
</g>
<!-- Node12 -->
<g id="node13" class="node">
<title>Node12</title>
<polygon fill="none" stroke="#bfbfbf" points="665.5,-.5 665.5,-19.5 718.5,-19.5 718.5,-.5 665.5,-.5"/>
<text text-anchor="middle" x="692" y="-7.5" font-family="FreeSans.ttf" font-size="10.00" fill="#000000">cstddef</text>
</g>
<!-- Node11&#45;&gt;Node12 -->
<g id="edge12" class="edge">
<title>Node11&#45;&gt;Node12</title>
<path fill="none" stroke="#191970" d="M704.3872,-56.2455C702.4084,-48.8579 699.6256,-38.4689 697.1988,-29.4087"/>
<polygon fill="#191970" stroke="#191970" points="700.5511,-28.3966 694.5829,-19.6427 693.7895,-30.2078 700.5511,-28.3966"/>
</g>
<!-- Node13 -->
<g id="node14" class="node">
<title>Node13</title>
<polygon fill="none" stroke="#bfbfbf" points="824,-.5 824,-19.5 904,-19.5 904,-.5 824,-.5"/>
<text text-anchor="middle" x="864" y="-7.5" font-family="FreeSans.ttf" font-size="10.00" fill="#000000">CoreExport.h</text>
</g>
<!-- Node11&#45;&gt;Node13 -->
<g id="edge13" class="edge">
<title>Node11&#45;&gt;Node13</title>
<path fill="none" stroke="#191970" d="M733.9893,-56.3733C759.8699,-47.1419 799.1248,-33.1402 827.7289,-22.9375"/>
<polygon fill="#191970" stroke="#191970" points="829.12,-26.1573 837.3629,-19.5011 826.7683,-19.5642 829.12,-26.1573"/>
</g>
<!-- Node14&#45;&gt;Node11 -->
<g id="edge27" class="edge">
<title>Node14&#45;&gt;Node11</title>
<path fill="none" stroke="#191970" d="M804.7151,-112.3733C785.8579,-103.4241 757.554,-89.9917 736.2545,-79.8835"/>
<polygon fill="#191970" stroke="#191970" points="737.5551,-76.6266 727.0202,-75.5011 734.5539,-82.9506 737.5551,-76.6266"/>
</g>
<!-- Node14&#45;&gt;Node15 -->
<g id="edge15" class="edge">
<title>Node14&#45;&gt;Node15</title>
<path fill="none" stroke="#191970" d="M835.4869,-112.4509C856.4557,-93.3574 903.7752,-50.2697 929.8725,-26.5063"/>
<polygon fill="#191970" stroke="#191970" points="932.5021,-28.8455 937.5396,-19.5249 927.7892,-23.6697 932.5021,-28.8455"/>
</g>
<!-- Node16 -->
<g id="node17" class="node">
<title>Node16</title>
<polygon fill="none" stroke="#bfbfbf" points="736.5,-.5 736.5,-19.5 805.5,-19.5 805.5,-.5 736.5,-.5"/>
<text text-anchor="middle" x="771" y="-7.5" font-family="FreeSans.ttf" font-size="10.00" fill="#000000">type_traits</text>
</g>
<!-- Node14&#45;&gt;Node16 -->
<g id="edge16" class="edge">
<title>Node14&#45;&gt;Node16</title>
<path fill="none" stroke="#191970" d="M820.396,-112.4509C811.4691,-93.936 791.6642,-52.8591 780.0251,-28.7187"/>
<polygon fill="#191970" stroke="#191970" points="783.0881,-27.0125 775.5924,-19.5249 776.7827,-30.0527 783.0881,-27.0125"/>
</g>
<!-- Node17 -->
<g id="node18" class="node">
<title>Node17</title>
<g id="a_node18"><a xlink:href="Span_8h.html" target="_top" xlink:title="iDynTree/Core/Span.h">
<polygon fill="none" stroke="#000000" points="494.5,-56.5 494.5,-75.5 615.5,-75.5 615.5,-56.5 494.5,-56.5"/>
<text text-anchor="middle" x="555" y="-63.5" font-family="FreeSans.ttf" font-size="10.00" fill="#000000">iDynTree/Core/Span.h</text>
</a>
</g>
</g>
<!-- Node14&#45;&gt;Node17 -->
<g id="edge17" class="edge">
<title>Node14&#45;&gt;Node17</title>
<path fill="none" stroke="#191970" d="M778.8921,-112.4369C732.3925,-102.7925 660.5641,-87.8948 610.86,-77.5858"/>
<polygon fill="#191970" stroke="#191970" points="611.4201,-74.1275 600.9177,-75.5237 609.9985,-80.9817 611.4201,-74.1275"/>
</g>
<!-- Node17&#45;&gt;Node12 -->
<g id="edge21" class="edge">
<title>Node17&#45;&gt;Node12</title>
<path fill="none" stroke="#191970" d="M578.5511,-56.3733C600.8391,-47.2629 634.4937,-33.5062 659.3637,-23.3404"/>
<polygon fill="#191970" stroke="#191970" points="660.8239,-26.5247 668.7562,-19.5011 658.1753,-20.0451 660.8239,-26.5247"/>
</g>
<!-- Node17&#45;&gt;Node15 -->
<g id="edge18" class="edge">
<title>Node17&#45;&gt;Node15</title>
<path fill="none" stroke="#191970" d="M615.7866,-58.6964C703.4655,-48.0906 859.8358,-28.888 911.6172,-19.8757"/>
<polygon fill="#191970" stroke="#191970" points="912.5559,-23.2603 921.732,-17.964 911.2559,-16.3821 912.5559,-23.2603"/>
</g>
<!-- Node17&#45;&gt;Node16 -->
<g id="edge25" class="edge">
<title>Node17&#45;&gt;Node16</title>
<path fill="none" stroke="#191970" d="M592.1317,-56.3733C629.4939,-46.6868 687.1153,-31.7479 726.8085,-21.4571"/>
<polygon fill="#191970" stroke="#191970" points="727.6889,-24.8446 736.4905,-18.9469 725.9321,-18.0686 727.6889,-24.8446"/>
</g>
<!-- Node18 -->
<g id="node19" class="node">
<title>Node18</title>
<polygon fill="none" stroke="#bfbfbf" points="523,-.5 523,-19.5 587,-19.5 587,-.5 523,-.5"/>
<text text-anchor="middle" x="555" y="-7.5" font-family="FreeSans.ttf" font-size="10.00" fill="#000000">algorithm</text>
</g>
<!-- Node17&#45;&gt;Node18 -->
<g id="edge19" class="edge">
<title>Node17&#45;&gt;Node18</title>
<path fill="none" stroke="#191970" d="M555,-56.2455C555,-48.9382 555,-38.6944 555,-29.7046"/>
<polygon fill="#191970" stroke="#191970" points="558.5001,-29.6426 555,-19.6427 551.5001,-29.6427 558.5001,-29.6426"/>
</g>
<!-- Node19 -->
<g id="node20" class="node">
<title>Node19</title>
<polygon fill="none" stroke="#bfbfbf" points="605,-.5 605,-19.5 647,-19.5 647,-.5 605,-.5"/>
<text text-anchor="middle" x="626" y="-7.5" font-family="FreeSans.ttf" font-size="10.00" fill="#000000">array</text>
</g>
<!-- Node17&#45;&gt;Node19 -->
<g id="edge20" class="edge">
<title>Node17&#45;&gt;Node19</title>
<path fill="none" stroke="#191970" d="M567.3673,-56.2455C577.9554,-47.8943 593.4064,-35.7076 605.7893,-25.9408"/>
<polygon fill="#191970" stroke="#191970" points="608.0903,-28.5837 613.7745,-19.6427 603.7553,-23.0875 608.0903,-28.5837"/>
</g>
<!-- Node20 -->
<g id="node21" class="node">
<title>Node20</title>
<polygon fill="none" stroke="#bfbfbf" points="242.5,-.5 242.5,-19.5 295.5,-19.5 295.5,-.5 242.5,-.5"/>
<text text-anchor="middle" x="269" y="-7.5" font-family="FreeSans.ttf" font-size="10.00" fill="#000000">iterator</text>
</g>
<!-- Node17&#45;&gt;Node20 -->
<g id="edge22" class="edge">
<title>Node17&#45;&gt;Node20</title>
<path fill="none" stroke="#191970" d="M494.8336,-56.4738C446.2849,-48.4352 376.054,-36.0161 305.6082,-19.9794"/>
<polygon fill="#191970" stroke="#191970" points="306.199,-16.524 295.6688,-17.6926 304.6294,-23.3457 306.199,-16.524"/>
</g>
<!-- Node21 -->
<g id="node22" class="node">
<title>Node21</title>
<polygon fill="none" stroke="#bfbfbf" points="314,-.5 314,-19.5 358,-19.5 358,-.5 314,-.5"/>
<text text-anchor="middle" x="336" y="-7.5" font-family="FreeSans.ttf" font-size="10.00" fill="#000000">limits</text>
</g>
<!-- Node17&#45;&gt;Node21 -->
<g id="edge23" class="edge">
<title>Node17&#45;&gt;Node21</title>
<path fill="none" stroke="#191970" d="M512.2111,-56.4565C476.1228,-48.2003 422.9158,-35.5456 368.1673,-20.1967"/>
<polygon fill="#191970" stroke="#191970" points="368.8677,-16.7575 358.2925,-17.4032 366.9622,-23.4932 368.8677,-16.7575"/>
</g>
<!-- Node22 -->
<g id="node23" class="node">
<title>Node22</title>
<polygon fill="none" stroke="#bfbfbf" points="376.5,-.5 376.5,-19.5 441.5,-19.5 441.5,-.5 376.5,-.5"/>
<text text-anchor="middle" x="409" y="-7.5" font-family="FreeSans.ttf" font-size="10.00" fill="#000000">stdexcept</text>
</g>
<!-- Node17&#45;&gt;Node22 -->
<g id="edge24" class="edge">
<title>Node17&#45;&gt;Node22</title>
<path fill="none" stroke="#191970" d="M529.9017,-56.3733C506.0445,-47.2226 469.9665,-33.3844 443.429,-23.2057"/>
<polygon fill="#191970" stroke="#191970" points="444.361,-19.8145 433.7708,-19.5011 441.8541,-26.3503 444.361,-19.8145"/>
</g>
<!-- Node23 -->
<g id="node24" class="node">
<title>Node23</title>
<polygon fill="none" stroke="#bfbfbf" points="459.5,-.5 459.5,-19.5 504.5,-19.5 504.5,-.5 459.5,-.5"/>
<text text-anchor="middle" x="482" y="-7.5" font-family="FreeSans.ttf" font-size="10.00" fill="#000000">utility</text>
</g>
<!-- Node17&#45;&gt;Node23 -->
<g id="edge26" class="edge">
<title>Node17&#45;&gt;Node23</title>
<path fill="none" stroke="#191970" d="M542.2844,-56.2455C531.398,-47.8943 515.5117,-35.7076 502.78,-25.9408"/>
<polygon fill="#191970" stroke="#191970" points="504.6346,-22.9523 494.5699,-19.6427 500.3739,-28.5063 504.6346,-22.9523"/>
</g>
<!-- Node27&#45;&gt;Node4 -->
<g id="edge36" class="edge">
<title>Node27&#45;&gt;Node4</title>
<path fill="none" stroke="#191970" d="M700.5714,-168.6584C808.527,-156.1418 995.2217,-134.496 1070.3193,-125.7891"/>
<polygon fill="#191970" stroke="#191970" points="1071.0366,-129.2294 1080.5669,-124.6009 1070.2303,-122.276 1071.0366,-129.2294"/>
</g>
<!-- Node27&#45;&gt;Node11 -->
<g id="edge34" class="edge">
<title>Node27&#45;&gt;Node11</title>
<path fill="none" stroke="#191970" d="M551.405,-168.4573C505.485,-159.1624 457.5659,-141.935 482,-112 491.926,-99.8394 574.7867,-85.2326 637.0917,-75.7912"/>
<polygon fill="#191970" stroke="#191970" points="637.9188,-79.2064 647.29,-74.2637 636.8818,-72.2836 637.9188,-79.2064"/>
</g>
<!-- Node27&#45;&gt;Node15 -->
<g id="edge38" class="edge">
<title>Node27&#45;&gt;Node15</title>
<path fill="none" stroke="#191970" d="M691.7,-168.494C774.5826,-157.223 900.7618,-139.0755 909,-132 938.9632,-106.2656 946.1222,-57.5089 947.6972,-30.067"/>
<polygon fill="#191970" stroke="#191970" points="951.2071,-29.8635 948.0806,-19.7405 944.2119,-29.6037 951.2071,-29.8635"/>
</g>
<!-- Node27&#45;&gt;Node17 -->
<g id="edge35" class="edge">
<title>Node27&#45;&gt;Node17</title>
<path fill="none" stroke="#191970" d="M552.7247,-168.4206C510.5875,-160.8872 461.9051,-148.8354 449,-132 443.5923,-124.9453 444.1236,-119.4319 449,-112 459.3535,-96.2205 476.4128,-85.8264 493.8509,-78.9905"/>
<polygon fill="#191970" stroke="#191970" points="495.2874,-82.1945 503.5375,-75.5472 492.9428,-75.5988 495.2874,-82.1945"/>
</g>
<!-- Node27&#45;&gt;Node24 -->
<g id="edge39" class="edge">
<title>Node27&#45;&gt;Node24</title>
<path fill="none" stroke="#191970" d="M628.361,-168.2455C635.175,-160.2958 644.9681,-148.8706 653.1152,-139.3656"/>
<polygon fill="#191970" stroke="#191970" points="655.8843,-141.513 659.7349,-131.6427 650.5695,-136.9575 655.8843,-141.513"/>
</g>
<!-- Node27&#45;&gt;Node26 -->
<g id="edge37" class="edge">
<title>Node27&#45;&gt;Node26</title>
<path fill="none" stroke="#191970" d="M615.9937,-168.2455C612.9265,-160.7776 608.5997,-150.2427 604.8503,-141.1137"/>
<polygon fill="#191970" stroke="#191970" points="607.9972,-139.5631 600.9604,-131.6427 601.5221,-142.2226 607.9972,-139.5631"/>
</g>
<!-- Node29 -->
<g id="node30" class="node">
<title>Node29</title>
<g id="a_node30"><a xlink:href="SpatialMotionVector_8h.html" target="_top" xlink:title="iDynTree/Core/SpatialMotion\lVector.h">
<polygon fill="none" stroke="#000000" points="445.5,-459.5 445.5,-489.5 600.5,-489.5 600.5,-459.5 445.5,-459.5"/>
<text text-anchor="start" x="453.5" y="-477.5" font-family="FreeSans.ttf" font-size="10.00" fill="#000000">iDynTree/Core/SpatialMotion</text>
<text text-anchor="middle" x="523" y="-466.5" font-family="FreeSans.ttf" font-size="10.00" fill="#000000">Vector.h</text>
</a>
</g>
</g>
<!-- Node28&#45;&gt;Node29 -->
<g id="edge41" class="edge">
<title>Node28&#45;&gt;Node29</title>
<path fill="none" stroke="#191970" d="M432.1872,-531.9005C447.378,-522.2988 471.2162,-507.2313 490.6578,-494.9427"/>
<polygon fill="#191970" stroke="#191970" points="492.6513,-497.8233 499.2342,-489.5218 488.9112,-491.9062 492.6513,-497.8233"/>
</g>
<!-- Node29&#45;&gt;Node27 -->
<g id="edge42" class="edge">
<title>Node29&#45;&gt;Node27</title>
<path fill="none" stroke="#191970" d="M527.9436,-459.3889C544.1585,-409.8248 595.7167,-252.2267 613.7219,-197.1901"/>
<polygon fill="#191970" stroke="#191970" points="617.0723,-198.2053 616.8552,-187.6127 610.4193,-196.0288 617.0723,-198.2053"/>
</g>
<!-- Node30 -->
<g id="node31" class="node">
<title>Node30</title>
<g id="a_node31"><a xlink:href="GeomVector3_8h.html" target="_top" xlink:title="iDynTree/Core/GeomVector3.h">
<polygon fill="none" stroke="#000000" points="409.5,-224.5 409.5,-243.5 572.5,-243.5 572.5,-224.5 409.5,-224.5"/>
<text text-anchor="middle" x="491" y="-231.5" font-family="FreeSans.ttf" font-size="10.00" fill="#000000">iDynTree/Core/GeomVector3.h</text>
</a>
</g>
</g>
<!-- Node29&#45;&gt;Node30 -->
<g id="edge43" class="edge">
<title>Node29&#45;&gt;Node30</title>
<path fill="none" stroke="#191970" d="M520.9983,-459.4556C515.4491,-417.75 499.8689,-300.6556 493.6309,-253.7727"/>
<polygon fill="#191970" stroke="#191970" points="497.0777,-253.1404 492.2892,-243.6895 490.1388,-254.0638 497.0777,-253.1404"/>
</g>
<!-- Node31 -->
<g id="node32" class="node">
<title>Node31</title>
<g id="a_node32"><a xlink:href="SpatialVector_8h.html" target="_top" xlink:title="iDynTree/Core/SpatialVector.h">
<polygon fill="none" stroke="#000000" points="333.5,-403.5 333.5,-422.5 494.5,-422.5 494.5,-403.5 333.5,-403.5"/>
<text text-anchor="middle" x="414" y="-410.5" font-family="FreeSans.ttf" font-size="10.00" fill="#000000">iDynTree/Core/SpatialVector.h</text>
</a>
</g>
</g>
<!-- Node29&#45;&gt;Node31 -->
<g id="edge45" class="edge">
<title>Node29&#45;&gt;Node31</title>
<path fill="none" stroke="#191970" d="M496.3356,-459.4554C479.1059,-449.734 456.8025,-437.15 439.7554,-427.5317"/>
<polygon fill="#191970" stroke="#191970" points="441.3204,-424.3961 430.8911,-422.5303 437.8806,-430.4926 441.3204,-424.3961"/>
</g>
<!-- Node30&#45;&gt;Node27 -->
<g id="edge44" class="edge">
<title>Node30&#45;&gt;Node27</title>
<path fill="none" stroke="#191970" d="M513.1759,-224.3733C533.9766,-215.3435 565.2917,-201.7494 588.6458,-191.6111"/>
<polygon fill="#191970" stroke="#191970" points="590.3343,-194.6938 598.1135,-187.5011 587.5468,-188.2727 590.3343,-194.6938"/>
</g>
<!-- Node31&#45;&gt;Node11 -->
<g id="edge59" class="edge">
<title>Node31&#45;&gt;Node11</title>
<path fill="none" stroke="#191970" d="M403.5237,-403.2679C383.7739,-383.8058 343,-337.8335 343,-290 343,-290 343,-290 343,-178 343,-113.5985 411.1385,-133.0579 472,-112 525.988,-93.3204 589.7286,-81.4403 637.1956,-74.4422"/>
<polygon fill="#191970" stroke="#191970" points="637.9708,-77.8669 647.3712,-72.9799 636.975,-70.9381 637.9708,-77.8669"/>
</g>
<!-- Node31&#45;&gt;Node25 -->
<g id="edge61" class="edge">
<title>Node31&#45;&gt;Node25</title>
<path fill="none" stroke="#191970" d="M367.3167,-403.3892C312.512,-389.059 229,-356.3387 229,-290 229,-290 229,-290 229,-234 229,-180.7383 400.4995,-143.3326 480.6335,-128.7617"/>
<polygon fill="#191970" stroke="#191970" points="481.6214,-132.1408 490.8507,-126.9378 480.3912,-125.2497 481.6214,-132.1408"/>
</g>
<!-- Node31&#45;&gt;Node26 -->
<g id="edge62" class="edge">
<title>Node31&#45;&gt;Node26</title>
<path fill="none" stroke="#191970" d="M409.5495,-403.3521C400.5419,-382.9143 381,-333.5554 381,-290 381,-290 381,-290 381,-234 381,-194.3863 496.9439,-152.6996 558.9389,-133.2412"/>
<polygon fill="#191970" stroke="#191970" points="560.2429,-136.5015 568.7618,-130.2023 558.174,-129.8142 560.2429,-136.5015"/>
</g>
<!-- Node31&#45;&gt;Node30 -->
<g id="edge60" class="edge">
<title>Node31&#45;&gt;Node30</title>
<path fill="none" stroke="#191970" d="M418.1399,-403.3762C430.3606,-374.9669 466.4448,-291.0828 482.7894,-253.0871"/>
<polygon fill="#191970" stroke="#191970" points="486.1032,-254.2406 486.8397,-243.6714 479.6729,-251.4745 486.1032,-254.2406"/>
</g>
<!-- Node32 -->
<g id="node33" class="node">
<title>Node32</title>
<g id="a_node33"><a xlink:href="Position_8h.html" target="_top" xlink:title="Position.h">
<polygon fill="none" stroke="#000000" points="964.5,-342 964.5,-361 1029.5,-361 1029.5,-342 964.5,-342"/>
<text text-anchor="middle" x="997" y="-349" font-family="FreeSans.ttf" font-size="10.00" fill="#000000">Position.h</text>
</a>
</g>
</g>
<!-- Node31&#45;&gt;Node32 -->
<g id="edge46" class="edge">
<title>Node31&#45;&gt;Node32</title>
<path fill="none" stroke="#191970" d="M494.7574,-404.481C620.2362,-391.2444 857.6361,-366.2013 954.3656,-355.9975"/>
<polygon fill="#191970" stroke="#191970" points="954.7892,-359.4723 964.3668,-354.9424 954.0547,-352.5109 954.7892,-359.4723"/>
</g>
<!-- Node34 -->
<g id="node35" class="node">
<title>Node34</title>
<g id="a_node35"><a xlink:href="Rotation_8h.html" target="_top" xlink:title="iDynTree/Core/Rotation.h">
<polygon fill="none" stroke="#000000" points="753.5,-280.5 753.5,-299.5 890.5,-299.5 890.5,-280.5 753.5,-280.5"/>
<text text-anchor="middle" x="822" y="-287.5" font-family="FreeSans.ttf" font-size="10.00" fill="#000000">iDynTree/Core/Rotation.h</text>
</a>
</g>
</g>
<!-- Node31&#45;&gt;Node34 -->
<g id="edge58" class="edge">
<title>Node31&#45;&gt;Node34</title>
<path fill="none" stroke="#191970" d="M445.6756,-403.4507C518.737,-381.4249 699.0302,-327.0718 780.6603,-302.4627"/>
<polygon fill="#191970" stroke="#191970" points="781.7805,-305.7807 790.3446,-299.5432 779.76,-299.0786 781.7805,-305.7807"/>
</g>
<!-- Node32&#45;&gt;Node4 -->
<g id="edge57" class="edge">
<title>Node32&#45;&gt;Node4</title>
<path fill="none" stroke="#191970" d="M1010.3885,-341.7979C1033.1426,-324.6213 1079.3768,-286.6275 1105,-244 1122.8319,-214.3344 1128.7356,-201.9508 1122,-168 1120.1352,-158.6003 1116.3201,-148.7115 1112.5946,-140.5215"/>
<polygon fill="#191970" stroke="#191970" points="1115.7433,-138.993 1108.2318,-131.5212 1109.4443,-142.0464 1115.7433,-138.993"/>
</g>
<!-- Node33 -->
<g id="node34" class="node">
<title>Node33</title>
<g id="a_node34"><a xlink:href="PositionRaw_8h.html" target="_top" xlink:title="iDynTree/Core/PositionRaw.h">
<polygon fill="none" stroke="#000000" points="919,-224.5 919,-243.5 1075,-243.5 1075,-224.5 919,-224.5"/>
<text text-anchor="middle" x="997" y="-231.5" font-family="FreeSans.ttf" font-size="10.00" fill="#000000">iDynTree/Core/PositionRaw.h</text>
</a>
</g>
</g>
<!-- Node32&#45;&gt;Node33 -->
<g id="edge47" class="edge">
<title>Node32&#45;&gt;Node33</title>
<path fill="none" stroke="#191970" d="M997,-341.8845C997,-322.6913 997,-279.286 997,-253.7663"/>
<polygon fill="#191970" stroke="#191970" points="1000.5001,-253.7483 997,-243.7484 993.5001,-253.7484 1000.5001,-253.7483"/>
</g>
<!-- Node32&#45;&gt;Node34 -->
<g id="edge50" class="edge">
<title>Node32&#45;&gt;Node34</title>
<path fill="none" stroke="#191970" d="M969.6563,-341.8906C939.8618,-331.42 892.0315,-314.6111 858.9192,-302.9745"/>
<polygon fill="#191970" stroke="#191970" points="859.7466,-299.5554 849.1517,-299.5419 857.4257,-306.1595 859.7466,-299.5554"/>
</g>
<!-- Node33&#45;&gt;Node4 -->
<g id="edge49" class="edge">
<title>Node33&#45;&gt;Node4</title>
<path fill="none" stroke="#191970" d="M1006.0375,-224.4509C1024.0299,-205.4401 1064.5349,-162.6423 1087.0848,-138.816"/>
<polygon fill="#191970" stroke="#191970" points="1089.6535,-141.1937 1093.9854,-131.5249 1084.5695,-136.382 1089.6535,-141.1937"/>
</g>
<!-- Node33&#45;&gt;Node27 -->
<g id="edge48" class="edge">
<title>Node33&#45;&gt;Node27</title>
<path fill="none" stroke="#191970" d="M932.6198,-224.4369C866.4725,-214.6113 763.6175,-199.3331 694.1183,-189.0096"/>
<polygon fill="#191970" stroke="#191970" points="694.5205,-185.531 684.1147,-187.5237 693.4919,-192.4551 694.5205,-185.531"/>
</g>
<!-- Node34&#45;&gt;Node4 -->
<g id="edge51" class="edge">
<title>Node34&#45;&gt;Node4</title>
<path fill="none" stroke="#191970" d="M890.8046,-286.7937C959.2398,-282.1021 1057.7247,-270.7875 1084,-244 1110.6623,-216.818 1109.4725,-168.6225 1106.245,-141.66"/>
<polygon fill="#191970" stroke="#191970" points="1109.678,-140.9392 1104.8122,-131.5277 1102.7469,-141.9193 1109.678,-140.9392"/>
</g>
<!-- Node34&#45;&gt;Node27 -->
<g id="edge56" class="edge">
<title>Node34&#45;&gt;Node27</title>
<path fill="none" stroke="#191970" d="M802.9917,-280.3634C785.0833,-271.2139 757.5591,-256.9694 734,-244 703.0097,-226.9397 667.8478,-206.3991 644.8708,-192.8131"/>
<polygon fill="#191970" stroke="#191970" points="646.4974,-189.7086 636.1103,-187.6209 642.9284,-195.7304 646.4974,-189.7086"/>
</g>
<!-- Node34&#45;&gt;Node30 -->
<g id="edge52" class="edge">
<title>Node34&#45;&gt;Node30</title>
<path fill="none" stroke="#191970" d="M765.4752,-280.4369C707.756,-270.6717 618.2029,-255.5207 557.2034,-245.2006"/>
<polygon fill="#191970" stroke="#191970" points="557.7355,-241.7409 547.2917,-243.5237 556.5677,-248.6429 557.7355,-241.7409"/>
</g>
<!-- Node35 -->
<g id="node36" class="node">
<title>Node35</title>
<g id="a_node36"><a xlink:href="RotationRaw_8h.html" target="_top" xlink:title="iDynTree/Core/RotationRaw.h">
<polygon fill="none" stroke="#000000" points="743,-224.5 743,-243.5 901,-243.5 901,-224.5 743,-224.5"/>
<text text-anchor="middle" x="822" y="-231.5" font-family="FreeSans.ttf" font-size="10.00" fill="#000000">iDynTree/Core/RotationRaw.h</text>
</a>
</g>
</g>
<!-- Node34&#45;&gt;Node35 -->
<g id="edge53" class="edge">
<title>Node34&#45;&gt;Node35</title>
<path fill="none" stroke="#191970" d="M822,-280.2455C822,-272.9382 822,-262.6944 822,-253.7046"/>
<polygon fill="#191970" stroke="#191970" points="825.5001,-253.6426 822,-243.6427 818.5001,-253.6427 825.5001,-253.6426"/>
</g>
<!-- Node35&#45;&gt;Node4 -->
<g id="edge55" class="edge">
<title>Node35&#45;&gt;Node4</title>
<path fill="none" stroke="#191970" d="M845.9579,-224.4509C896.5405,-204.2899 1014.2422,-157.3768 1071.1131,-134.7094"/>
<polygon fill="#191970" stroke="#191970" points="1072.6779,-137.8535 1080.6714,-130.8997 1070.0861,-131.351 1072.6779,-137.8535"/>
</g>
<!-- Node35&#45;&gt;Node10 -->
<g id="edge54" class="edge">
<title>Node35&#45;&gt;Node10</title>
<path fill="none" stroke="#191970" d="M818.3421,-224.2455C815.5416,-216.7776 811.591,-206.2427 808.1676,-197.1137"/>
<polygon fill="#191970" stroke="#191970" points="811.4045,-195.777 804.616,-187.6427 804.8501,-198.2349 811.4045,-195.777"/>
</g>
<!-- Node37 -->
<g id="node38" class="node">
<title>Node37</title>
<g id="a_node38"><a xlink:href="SpatialForceVector_8h.html" target="_top" xlink:title="iDynTree/Core/SpatialForce\lVector.h">
<polygon fill="none" stroke="#000000" points="197,-459.5 197,-489.5 345,-489.5 345,-459.5 197,-459.5"/>
<text text-anchor="start" x="205" y="-477.5" font-family="FreeSans.ttf" font-size="10.00" fill="#000000">iDynTree/Core/SpatialForce</text>
<text text-anchor="middle" x="271" y="-466.5" font-family="FreeSans.ttf" font-size="10.00" fill="#000000">Vector.h</text>
</a>
</g>
</g>
<!-- Node36&#45;&gt;Node37 -->
<g id="edge64" class="edge">
<title>Node36&#45;&gt;Node37</title>
<path fill="none" stroke="#191970" d="M118.5031,-531.9005C145.276,-521.8231 188.0449,-505.7247 221.4855,-493.1375"/>
<polygon fill="#191970" stroke="#191970" points="222.9654,-496.3202 231.0914,-489.5218 220.4995,-489.7689 222.9654,-496.3202"/>
</g>
<!-- Node37&#45;&gt;Node27 -->
<g id="edge65" class="edge">
<title>Node37&#45;&gt;Node27</title>
<path fill="none" stroke="#191970" d="M270.1905,-459.3565C269.0217,-436.1486 267,-390.3851 267,-351.5 267,-351.5 267,-351.5 267,-290 267,-234.9546 424.92,-203.4389 529.5092,-188.6025"/>
<polygon fill="#191970" stroke="#191970" points="530.0348,-192.0631 539.4571,-187.2185 529.0702,-185.1299 530.0348,-192.0631"/>
</g>
<!-- Node37&#45;&gt;Node30 -->
<g id="edge66" class="edge">
<title>Node37&#45;&gt;Node30</title>
<path fill="none" stroke="#191970" d="M281.3689,-459.2371C291.6463,-444.4271 308.1111,-421.5356 324,-403 374.5187,-344.066 441.0058,-280.4549 472.6865,-250.8885"/>
<polygon fill="#191970" stroke="#191970" points="475.3662,-253.1764 480.3096,-243.8055 470.6014,-248.0483 475.3662,-253.1764"/>
</g>
<!-- Node37&#45;&gt;Node31 -->
<g id="edge67" class="edge">
<title>Node37&#45;&gt;Node31</title>
<path fill="none" stroke="#191970" d="M305.9817,-459.4554C329.3184,-449.419 359.7498,-436.3314 382.363,-426.6061"/>
<polygon fill="#191970" stroke="#191970" points="384.0364,-429.6965 391.8401,-422.5303 381.2708,-423.2659 384.0364,-429.6965"/>
</g>
<!-- Node38&#45;&gt;Node29 -->
<g id="edge69" class="edge">
<title>Node38&#45;&gt;Node29</title>
<path fill="none" stroke="#191970" d="M563.266,-531.9005C557.0766,-523.0773 547.6496,-509.6387 539.4726,-497.9822"/>
<polygon fill="#191970" stroke="#191970" points="542.1458,-495.6984 533.5377,-489.5218 536.4152,-499.7184 542.1458,-495.6984"/>
</g>
<!-- Node39&#45;&gt;Node37 -->
<g id="edge71" class="edge">
<title>Node39&#45;&gt;Node37</title>
<path fill="none" stroke="#191970" d="M271,-531.9005C271,-523.5099 271,-510.9451 271,-499.7085"/>
<polygon fill="#191970" stroke="#191970" points="274.5001,-499.5217 271,-489.5218 267.5001,-499.5218 274.5001,-499.5217"/>
</g>
<!-- Node40&#45;&gt;Node4 -->
<g id="edge77" class="edge">
<title>Node40&#45;&gt;Node4</title>
<path fill="none" stroke="#191970" d="M1098.5943,-403.483C1141.7845,-387.5218 1217,-350.9726 1217,-290 1217,-290 1217,-290 1217,-234 1217,-187.4628 1168.0617,-153.828 1134.3136,-136.1659"/>
<polygon fill="#191970" stroke="#191970" points="1135.7576,-132.9746 1125.251,-131.6105 1132.6138,-139.2289 1135.7576,-132.9746"/>
</g>
<!-- Node40&#45;&gt;Node10 -->
<g id="edge76" class="edge">
<title>Node40&#45;&gt;Node10</title>
<path fill="none" stroke="#191970" d="M1073.9722,-403.3145C1088.8758,-372.7808 1129.4249,-277.4046 1084,-224 1071.4805,-209.2812 970.03,-195.4941 892.1378,-186.9236"/>
<polygon fill="#191970" stroke="#191970" points="892.1182,-183.401 881.7988,-185.8011 891.3626,-190.3601 892.1182,-183.401"/>
</g>
<!-- Node40&#45;&gt;Node32 -->
<g id="edge74" class="edge">
<title>Node40&#45;&gt;Node32</title>
<path fill="none" stroke="#191970" d="M1057.75,-403.3906C1046.614,-393.8786 1029.354,-379.1357 1016.0732,-367.7917"/>
<polygon fill="#191970" stroke="#191970" points="1018.2856,-365.0784 1008.4086,-361.2449 1013.7392,-370.4011 1018.2856,-365.0784"/>
</g>
<!-- Node40&#45;&gt;Node34 -->
<g id="edge75" class="edge">
<title>Node40&#45;&gt;Node34</title>
<path fill="none" stroke="#191970" d="M1042.2768,-403.4393C1018.8751,-394.7801 984.1516,-381.2318 955,-367 915.5367,-347.7341 871.8396,-321.4119 845.6662,-305.0712"/>
<polygon fill="#191970" stroke="#191970" points="847.5041,-302.0925 837.1748,-299.7354 843.7797,-308.0195 847.5041,-302.0925"/>
</g>
<!-- Node41&#45;&gt;Node3 -->
<g id="edge84" class="edge">
<title>Node41&#45;&gt;Node3</title>
<path fill="none" stroke="#191970" d="M1257.8555,-649.3733C1238.1108,-640.3838 1208.4302,-626.8706 1186.1945,-616.7471"/>
<polygon fill="#191970" stroke="#191970" points="1187.42,-613.4594 1176.8685,-612.5011 1184.5194,-619.8302 1187.42,-613.4594"/>
</g>
<!-- Node41&#45;&gt;Node4 -->
<g id="edge81" class="edge">
<title>Node41&#45;&gt;Node4</title>
<path fill="none" stroke="#191970" d="M1280.9466,-649.2977C1284.7935,-629.2508 1293,-581.7654 1293,-541.5 1293,-541.5 1293,-541.5 1293,-234 1293,-161.6667 1189.5415,-135.099 1135.3116,-126.1414"/>
<polygon fill="#191970" stroke="#191970" points="1135.584,-122.6421 1125.1673,-124.5764 1134.5167,-129.5603 1135.584,-122.6421"/>
</g>
<!-- Node41&#45;&gt;Node40 -->
<g id="edge83" class="edge">
<title>Node41&#45;&gt;Node40</title>
<path fill="none" stroke="#191970" d="M1274.4001,-649.3224C1263.2608,-626.4413 1233.1493,-567.7966 1198,-526 1164.9736,-486.7277 1117.9478,-449.1178 1090.7413,-428.7318"/>
<polygon fill="#191970" stroke="#191970" points="1092.7666,-425.8764 1082.6473,-422.7379 1088.6008,-431.5019 1092.7666,-425.8764"/>
</g>
<!-- Node41&#45;&gt;Node42 -->
<g id="edge80" class="edge">
<title>Node41&#45;&gt;Node42</title>
<path fill="none" stroke="#191970" d="M1290.8447,-649.2455C1300.888,-640.9746 1315.4995,-628.9416 1327.3004,-619.2232"/>
<polygon fill="#191970" stroke="#191970" points="1329.7967,-621.7015 1335.291,-612.6427 1325.3467,-616.298 1329.7967,-621.7015"/>
</g>
<!-- Node41&#45;&gt;Node43 -->
<g id="edge82" class="edge">
<title>Node41&#45;&gt;Node43</title>
<path fill="none" stroke="#191970" d="M1302.0354,-649.3733C1323.7388,-640.3032 1356.4618,-626.6279 1380.755,-616.4755"/>
<polygon fill="#191970" stroke="#191970" points="1382.3881,-619.5865 1390.2652,-612.5011 1379.6889,-613.1278 1382.3881,-619.5865"/>
</g>
</g>
</svg>
