<?xml version="1.0" encoding="UTF-8" standalone="no"?>
<!DOCTYPE svg PUBLIC "-//W3C//DTD SVG 1.1//EN"
 "http://www.w3.org/Graphics/SVG/1.1/DTD/svg11.dtd">
<!-- Generated by graphviz version 2.40.1 (20161225.0304)
 -->
<!-- Title: Graphical Class Hierarchy Pages: 1 -->
<svg width="437pt" height="307pt"
 viewBox="0.00 0.00 437.00 306.50" xmlns="http://www.w3.org/2000/svg" xmlns:xlink="http://www.w3.org/1999/xlink">
<g id="graph0" class="graph" transform="scale(1 1) rotate(0) translate(4 302.5)">
<title>Graphical Class Hierarchy</title>
<!-- Node274 -->
<g id="node1" class="node">
<title>Node274</title>
<polygon fill="none" stroke="#bfbfbf" points="0,-150.5 0,-169.5 68,-169.5 68,-150.5 0,-150.5"/>
<text text-anchor="middle" x="34" y="-157.5" font-family="FreeSans.ttf" font-size="10.00" fill="#000000">false_type</text>
</g>
<!-- Node0 -->
<g id="node2" class="node">
<title>Node0</title>
<g id="a_node2"><a xlink:href="structiDynTree_1_1details_1_1is__span__oracle.html" target="_top" xlink:title="iDynTree::details::\lis_span_oracle\&lt; T \&gt;">
<polygon fill="none" stroke="#000000" points="138,-268 138,-298 255,-298 255,-268 138,-268"/>
<text text-anchor="start" x="146" y="-286" font-family="FreeSans.ttf" font-size="10.00" fill="#000000">iDynTree::details::</text>
<text text-anchor="middle" x="196.5" y="-275" font-family="FreeSans.ttf" font-size="10.00" fill="#000000">is_span_oracle&lt; T &gt;</text>
</a>
</g>
</g>
<!-- Node274&#45;&gt;Node0 -->
<g id="edge1" class="edge">
<title>Node274&#45;&gt;Node0</title>
<path fill="none" stroke="#191970" d="M42.2635,-178.7926C53.1422,-201.3121 74.414,-238.5586 104,-259 113.9643,-265.8845 125.7674,-270.7942 137.5503,-274.2955"/>
<polygon fill="#191970" stroke="#191970" points="45.3825,-177.1986 38.004,-169.5954 39.0306,-180.1404 45.3825,-177.1986"/>
</g>
<!-- Node276 -->
<g id="node3" class="node">
<title>Node276</title>
<g id="a_node3"><a xlink:href="structiDynTree_1_1details_1_1is__std__array__oracle.html" target="_top" xlink:title="iDynTree::details::\lis_std_array_oracle\&lt; T \&gt;">
<polygon fill="none" stroke="#000000" points="126.5,-219 126.5,-249 266.5,-249 266.5,-219 126.5,-219"/>
<text text-anchor="start" x="134.5" y="-237" font-family="FreeSans.ttf" font-size="10.00" fill="#000000">iDynTree::details::</text>
<text text-anchor="middle" x="196.5" y="-226" font-family="FreeSans.ttf" font-size="10.00" fill="#000000">is_std_array_oracle&lt; T &gt;</text>
</a>
</g>
</g>
<!-- Node274&#45;&gt;Node276 -->
<g id="edge2" class="edge">
<title>Node274&#45;&gt;Node276</title>
<path fill="none" stroke="#191970" d="M53.06,-176.5605C66.4964,-187.4662 85.3529,-201.2883 104,-210 111.215,-213.3708 118.9763,-216.3212 126.8255,-218.8905"/>
<polygon fill="#191970" stroke="#191970" points="54.9914,-173.6139 45.0696,-169.898 50.5086,-178.9902 54.9914,-173.6139"/>
</g>
<!-- Node277 -->
<g id="node4" class="node">
<title>Node277</title>
<g id="a_node4"><a xlink:href="structiDynTree_1_1MatrixViewInternal_1_1has__IsRowMajor.html" target="_top" xlink:title="has_IsRowMajor is used to build a type&#45;dependent expression that check if an element has IsRowMajor a...">
<polygon fill="none" stroke="#000000" points="104,-170 104,-200 289,-200 289,-170 104,-170"/>
<text text-anchor="start" x="112" y="-188" font-family="FreeSans.ttf" font-size="10.00" fill="#000000">iDynTree::MatrixViewInternal</text>
<text text-anchor="middle" x="196.5" y="-177" font-family="FreeSans.ttf" font-size="10.00" fill="#000000">::has_IsRowMajor&lt; T, typename &gt;</text>
</a>
</g>
</g>
<!-- Node274&#45;&gt;Node277 -->
<g id="edge3" class="edge">
<title>Node274&#45;&gt;Node277</title>
<path fill="none" stroke="#191970" d="M78.0056,-166.7701C86.1488,-168.0229 94.9289,-169.3737 103.8973,-170.7534"/>
<polygon fill="#191970" stroke="#191970" points="78.4813,-163.3022 68.0653,-165.2408 77.4168,-170.2208 78.4813,-163.3022"/>
</g>
<!-- Node278 -->
<g id="node5" class="node">
<title>Node278</title>
<g id="a_node5"><a xlink:href="structinternal_1_1kinematics_1_1is__matrixfixsize.html" target="_top" xlink:title="internal::kinematics\l::is_matrixfixsize\&lt; typename \&gt;">
<polygon fill="none" stroke="#000000" points="110.5,-121 110.5,-151 282.5,-151 282.5,-121 110.5,-121"/>
<text text-anchor="start" x="118.5" y="-139" font-family="FreeSans.ttf" font-size="10.00" fill="#000000">internal::kinematics</text>
<text text-anchor="middle" x="196.5" y="-128" font-family="FreeSans.ttf" font-size="10.00" fill="#000000">::is_matrixfixsize&lt; typename &gt;</text>
</a>
</g>
</g>
<!-- Node274&#45;&gt;Node278 -->
<g id="edge4" class="edge">
<title>Node274&#45;&gt;Node278</title>
<path fill="none" stroke="#191970" d="M78.1284,-153.4826C88.152,-152.0022 99.1357,-150.38 110.2447,-148.7392"/>
<polygon fill="#191970" stroke="#191970" points="77.4466,-150.0452 68.0653,-154.9688 78.4694,-156.9701 77.4466,-150.0452"/>
</g>
<!-- Node279 -->
<g id="node6" class="node">
<title>Node279</title>
<g id="a_node6"><a xlink:href="structiDynTree_1_1details_1_1is__span__oracle.html" target="_top" xlink:title="iDynTree::details::\lis_span_oracle\&lt; std\l::remove_cv_t\&lt; T \&gt; \&gt;">
<polygon fill="none" stroke="#000000" points="134,-60.5 134,-101.5 259,-101.5 259,-60.5 134,-60.5"/>
<text text-anchor="start" x="142" y="-89.5" font-family="FreeSans.ttf" font-size="10.00" fill="#000000">iDynTree::details::</text>
<text text-anchor="start" x="142" y="-78.5" font-family="FreeSans.ttf" font-size="10.00" fill="#000000">is_span_oracle&lt; std</text>
<text text-anchor="middle" x="196.5" y="-67.5" font-family="FreeSans.ttf" font-size="10.00" fill="#000000">::remove_cv_t&lt; T &gt; &gt;</text>
</a>
</g>
</g>
<!-- Node274&#45;&gt;Node279 -->
<g id="edge5" class="edge">
<title>Node274&#45;&gt;Node279</title>
<path fill="none" stroke="#191970" d="M53.8478,-144.1767C67.3808,-133.9579 86.04,-120.948 104,-112 113.3989,-107.3173 123.6708,-103.0844 133.8416,-99.3582"/>
<polygon fill="#191970" stroke="#191970" points="51.5356,-141.5399 45.7539,-150.4181 55.8102,-147.0832 51.5356,-141.5399"/>
</g>
<!-- Node281 -->
<g id="node8" class="node">
<title>Node281</title>
<g id="a_node8"><a xlink:href="structiDynTree_1_1details_1_1is__std__array__oracle.html" target="_top" xlink:title="iDynTree::details::\lis_std_array_oracle\l\&lt; std::remove_cv_t\&lt; T \&gt; \&gt;">
<polygon fill="none" stroke="#000000" points="120.5,-.5 120.5,-41.5 272.5,-41.5 272.5,-.5 120.5,-.5"/>
<text text-anchor="start" x="128.5" y="-29.5" font-family="FreeSans.ttf" font-size="10.00" fill="#000000">iDynTree::details::</text>
<text text-anchor="start" x="128.5" y="-18.5" font-family="FreeSans.ttf" font-size="10.00" fill="#000000">is_std_array_oracle</text>
<text text-anchor="middle" x="196.5" y="-7.5" font-family="FreeSans.ttf" font-size="10.00" fill="#000000">&lt; std::remove_cv_t&lt; T &gt; &gt;</text>
</a>
</g>
</g>
<!-- Node274&#45;&gt;Node281 -->
<g id="edge7" class="edge">
<title>Node274&#45;&gt;Node281</title>
<path fill="none" stroke="#191970" d="M41.5233,-140.6942C51.9669,-116.3486 73.1247,-74.8032 104,-51 108.947,-47.1861 114.3963,-43.848 120.0994,-40.9278"/>
<polygon fill="#191970" stroke="#191970" points="38.1565,-139.6792 37.594,-150.2591 44.6314,-142.3392 38.1565,-139.6792"/>
</g>
<!-- Node280 -->
<g id="node7" class="node">
<title>Node280</title>
<g id="a_node7"><a xlink:href="structiDynTree_1_1details_1_1is__span.html" target="_top" xlink:title="iDynTree::details::\lis_span\&lt; T \&gt;">
<polygon fill="none" stroke="#000000" points="325,-66 325,-96 429,-96 429,-66 325,-66"/>
<text text-anchor="start" x="333" y="-84" font-family="FreeSans.ttf" font-size="10.00" fill="#000000">iDynTree::details::</text>
<text text-anchor="middle" x="377" y="-73" font-family="FreeSans.ttf" font-size="10.00" fill="#000000">is_span&lt; T &gt;</text>
</a>
</g>
</g>
<!-- Node279&#45;&gt;Node280 -->
<g id="edge6" class="edge">
<title>Node279&#45;&gt;Node280</title>
<path fill="none" stroke="#191970" d="M269.3425,-81C287.965,-81 307.6154,-81 324.9575,-81"/>
<polygon fill="#191970" stroke="#191970" points="269.1236,-77.5001 259.1236,-81 269.1235,-84.5001 269.1236,-77.5001"/>
</g>
<!-- Node282 -->
<g id="node9" class="node">
<title>Node282</title>
<g id="a_node9"><a xlink:href="structiDynTree_1_1details_1_1is__std__array.html" target="_top" xlink:title="iDynTree::details::\lis_std_array\&lt; T \&gt;">
<polygon fill="none" stroke="#000000" points="325,-6 325,-36 429,-36 429,-6 325,-6"/>
<text text-anchor="start" x="333" y="-24" font-family="FreeSans.ttf" font-size="10.00" fill="#000000">iDynTree::details::</text>
<text text-anchor="middle" x="377" y="-13" font-family="FreeSans.ttf" font-size="10.00" fill="#000000">is_std_array&lt; T &gt;</text>
</a>
</g>
</g>
<!-- Node281&#45;&gt;Node282 -->
<g id="edge8" class="edge">
<title>Node281&#45;&gt;Node282</title>
<path fill="none" stroke="#191970" d="M282.9203,-21C297.2562,-21 311.7211,-21 324.8648,-21"/>
<polygon fill="#191970" stroke="#191970" points="282.5251,-17.5001 272.5251,-21 282.5251,-24.5001 282.5251,-17.5001"/>
</g>
</g>
</svg>
