<?xml version="1.0" encoding="UTF-8" standalone="no"?>
<!DOCTYPE svg PUBLIC "-//W3C//DTD SVG 1.1//EN"
 "http://www.w3.org/Graphics/SVG/1.1/DTD/svg11.dtd">
<!-- Generated by graphviz version 2.40.1 (20161225.0304)
 -->
<!-- Title: InverseKinematics.cpp Pages: 1 -->
<svg width="1170pt" height="588pt"
 viewBox="0.00 0.00 1170.00 588.00" xmlns="http://www.w3.org/2000/svg" xmlns:xlink="http://www.w3.org/1999/xlink">
<g id="graph0" class="graph" transform="scale(1 1) rotate(0) translate(4 584)">
<title>InverseKinematics.cpp</title>
<!-- Node0 -->
<g id="node1" class="node">
<title>Node0</title>
<polygon fill="#bfbfbf" stroke="#000000" points="661.5,-560.5 661.5,-579.5 789.5,-579.5 789.5,-560.5 661.5,-560.5"/>
<text text-anchor="middle" x="725.5" y="-567.5" font-family="FreeSans.ttf" font-size="10.00" fill="#000000">InverseKinematics.cpp</text>
</g>
<!-- Node1 -->
<g id="node2" class="node">
<title>Node1</title>
<g id="a_node2"><a xlink:href="InverseKinematics_8h.html" target="_top" xlink:title="iDynTree/InverseKinematics.h">
<polygon fill="none" stroke="#000000" points="644.5,-504.5 644.5,-523.5 806.5,-523.5 806.5,-504.5 644.5,-504.5"/>
<text text-anchor="middle" x="725.5" y="-511.5" font-family="FreeSans.ttf" font-size="10.00" fill="#000000">iDynTree/InverseKinematics.h</text>
</a>
</g>
</g>
<!-- Node0&#45;&gt;Node1 -->
<g id="edge1" class="edge">
<title>Node0&#45;&gt;Node1</title>
<path fill="none" stroke="#191970" d="M725.5,-560.2455C725.5,-552.9382 725.5,-542.6944 725.5,-533.7046"/>
<polygon fill="#191970" stroke="#191970" points="729.0001,-533.6426 725.5,-523.6427 722.0001,-533.6427 729.0001,-533.6426"/>
</g>
<!-- Node2 -->
<g id="node3" class="node">
<title>Node2</title>
<polygon fill="none" stroke="#bfbfbf" points="742.5,-112.5 742.5,-131.5 786.5,-131.5 786.5,-112.5 742.5,-112.5"/>
<text text-anchor="middle" x="764.5" y="-119.5" font-family="FreeSans.ttf" font-size="10.00" fill="#000000">string</text>
</g>
<!-- Node1&#45;&gt;Node2 -->
<g id="edge2" class="edge">
<title>Node1&#45;&gt;Node2</title>
<path fill="none" stroke="#191970" d="M782.8057,-504.4475C811.5722,-497.6597 845.869,-486.378 872.5,-468 921.0077,-434.5249 930.372,-413.4564 943.5,-356 962.3169,-273.6452 980.034,-222.5138 915.5,-168 897.5122,-152.8052 835.6335,-137.2824 796.894,-128.7187"/>
<polygon fill="#191970" stroke="#191970" points="797.1514,-125.1932 786.6367,-126.4939 795.6676,-132.0342 797.1514,-125.1932"/>
</g>
<!-- Node3 -->
<g id="node4" class="node">
<title>Node3</title>
<polygon fill="none" stroke="#bfbfbf" points="542,-392.5 542,-411.5 589,-411.5 589,-392.5 542,-392.5"/>
<text text-anchor="middle" x="565.5" y="-399.5" font-family="FreeSans.ttf" font-size="10.00" fill="#000000">vector</text>
</g>
<!-- Node1&#45;&gt;Node3 -->
<g id="edge3" class="edge">
<title>Node1&#45;&gt;Node3</title>
<path fill="none" stroke="#191970" d="M711.8585,-504.4509C684.1097,-485.0268 620.8862,-440.7703 587.3421,-417.2895"/>
<polygon fill="#191970" stroke="#191970" points="589.3065,-414.3922 579.107,-411.5249 585.2922,-420.1269 589.3065,-414.3922"/>
</g>
<!-- Node4 -->
<g id="node5" class="node">
<title>Node4</title>
<g id="a_node5"><a xlink:href="ConvexHullHelpers_8h.html" target="_top" xlink:title="iDynTree/ConvexHullHelpers.h">
<polygon fill="none" stroke="#000000" points="699,-448.5 699,-467.5 864,-467.5 864,-448.5 699,-448.5"/>
<text text-anchor="middle" x="781.5" y="-455.5" font-family="FreeSans.ttf" font-size="10.00" fill="#000000">iDynTree/ConvexHullHelpers.h</text>
</a>
</g>
</g>
<!-- Node1&#45;&gt;Node4 -->
<g id="edge4" class="edge">
<title>Node1&#45;&gt;Node4</title>
<path fill="none" stroke="#191970" d="M735.2545,-504.2455C743.3648,-496.1352 755.0925,-484.4075 764.7081,-474.7919"/>
<polygon fill="#191970" stroke="#191970" points="767.2611,-477.1887 771.8573,-467.6427 762.3113,-472.2389 767.2611,-477.1887"/>
</g>
<!-- Node31 -->
<g id="node32" class="node">
<title>Node31</title>
<g id="a_node32"><a xlink:href="Direction_8h.html" target="_top" xlink:title="iDynTree/Core/Direction.h">
<polygon fill="none" stroke="#000000" points="0,-224.5 0,-243.5 141,-243.5 141,-224.5 0,-224.5"/>
<text text-anchor="middle" x="70.5" y="-231.5" font-family="FreeSans.ttf" font-size="10.00" fill="#000000">iDynTree/Core/Direction.h</text>
</a>
</g>
</g>
<!-- Node1&#45;&gt;Node31 -->
<g id="edge59" class="edge">
<title>Node1&#45;&gt;Node31</title>
<path fill="none" stroke="#191970" d="M644.243,-507.7743C475.2517,-493.7331 101.5,-456.5163 101.5,-402 101.5,-402 101.5,-402 101.5,-346 101.5,-312.3636 88.3523,-275.0368 79.1816,-253.0922"/>
<polygon fill="#191970" stroke="#191970" points="82.2693,-251.4156 75.0742,-243.6387 75.8491,-254.2051 82.2693,-251.4156"/>
</g>
<!-- Node4&#45;&gt;Node2 -->
<g id="edge5" class="edge">
<title>Node4&#45;&gt;Node2</title>
<path fill="none" stroke="#191970" d="M816.5739,-448.3935C860.3395,-434.0216 929.5,-402.3894 929.5,-346 929.5,-346 929.5,-346 929.5,-234 929.5,-170.4575 844.6927,-140.4594 796.6793,-128.5678"/>
<polygon fill="#191970" stroke="#191970" points="797.288,-125.1156 786.7526,-126.2365 795.6875,-131.9302 797.288,-125.1156"/>
</g>
<!-- Node4&#45;&gt;Node3 -->
<g id="edge6" class="edge">
<title>Node4&#45;&gt;Node3</title>
<path fill="none" stroke="#191970" d="M741.3721,-448.4996C706.3038,-440.0661 653.8013,-427.1261 599.1226,-412.0792"/>
<polygon fill="#191970" stroke="#191970" points="599.8248,-408.642 589.2534,-409.3466 597.9569,-415.3882 599.8248,-408.642"/>
</g>
<!-- Node5 -->
<g id="node6" class="node">
<title>Node5</title>
<g id="a_node6"><a xlink:href="MatrixDynSize_8h.html" target="_top" xlink:title="iDynTree/Core/MatrixDynSize.h">
<polygon fill="none" stroke="#000000" points="621,-168.5 621,-187.5 788,-187.5 788,-168.5 621,-168.5"/>
<text text-anchor="middle" x="704.5" y="-175.5" font-family="FreeSans.ttf" font-size="10.00" fill="#000000">iDynTree/Core/MatrixDynSize.h</text>
</a>
</g>
</g>
<!-- Node4&#45;&gt;Node5 -->
<g id="edge7" class="edge">
<title>Node4&#45;&gt;Node5</title>
<path fill="none" stroke="#191970" d="M793.3893,-448.2632C813.8394,-430.3405 853.5,-389.9199 853.5,-346 853.5,-346 853.5,-346 853.5,-290 853.5,-259.4754 855.4293,-246.2198 834.5,-224 819.1975,-207.754 797.8011,-197.2401 776.7781,-190.4379"/>
<polygon fill="#191970" stroke="#191970" points="777.7519,-187.076 767.1685,-187.5665 775.7478,-193.783 777.7519,-187.076"/>
</g>
<!-- Node19 -->
<g id="node20" class="node">
<title>Node19</title>
<g id="a_node20"><a xlink:href="Position_8h.html" target="_top" xlink:title="iDynTree/Core/Position.h">
<polygon fill="none" stroke="#000000" points="679.5,-336.5 679.5,-355.5 815.5,-355.5 815.5,-336.5 679.5,-336.5"/>
<text text-anchor="middle" x="747.5" y="-343.5" font-family="FreeSans.ttf" font-size="10.00" fill="#000000">iDynTree/Core/Position.h</text>
</a>
</g>
</g>
<!-- Node4&#45;&gt;Node19 -->
<g id="edge25" class="edge">
<title>Node4&#45;&gt;Node19</title>
<path fill="none" stroke="#191970" d="M778.7741,-448.1282C775.1769,-435.1967 768.5868,-411.8343 762.5,-392 759.8269,-383.2896 756.7262,-373.7022 754.04,-365.5448"/>
<polygon fill="#191970" stroke="#191970" points="757.2905,-364.2272 750.8185,-355.8389 750.6469,-366.4324 757.2905,-364.2272"/>
</g>
<!-- Node29 -->
<g id="node30" class="node">
<title>Node29</title>
<g id="a_node30"><a xlink:href="Transform_8h.html" target="_top" xlink:title="iDynTree/Core/Transform.h">
<polygon fill="none" stroke="#000000" points="607.5,-392.5 607.5,-411.5 753.5,-411.5 753.5,-392.5 607.5,-392.5"/>
<text text-anchor="middle" x="680.5" y="-399.5" font-family="FreeSans.ttf" font-size="10.00" fill="#000000">iDynTree/Core/Transform.h</text>
</a>
</g>
</g>
<!-- Node4&#45;&gt;Node29 -->
<g id="edge51" class="edge">
<title>Node4&#45;&gt;Node29</title>
<path fill="none" stroke="#191970" d="M763.9071,-448.2455C748.121,-439.4928 724.7361,-426.527 706.7413,-416.5496"/>
<polygon fill="#191970" stroke="#191970" points="708.3341,-413.4308 697.8913,-411.6427 704.9397,-419.5528 708.3341,-413.4308"/>
</g>
<!-- Node30 -->
<g id="node31" class="node">
<title>Node30</title>
<g id="a_node31"><a xlink:href="VectorDynSize_8h.html" target="_top" xlink:title="iDynTree/Core/VectorDynSize.h">
<polygon fill="none" stroke="#000000" points="995,-168.5 995,-187.5 1162,-187.5 1162,-168.5 995,-168.5"/>
<text text-anchor="middle" x="1078.5" y="-175.5" font-family="FreeSans.ttf" font-size="10.00" fill="#000000">iDynTree/Core/VectorDynSize.h</text>
</a>
</g>
</g>
<!-- Node4&#45;&gt;Node30 -->
<g id="edge56" class="edge">
<title>Node4&#45;&gt;Node30</title>
<path fill="none" stroke="#191970" d="M830.1035,-448.4166C871.0837,-439.5852 925.802,-425.795 943.5,-412 1017.9982,-353.9313 1058.8319,-242.4067 1072.8622,-197.4717"/>
<polygon fill="#191970" stroke="#191970" points="1076.2479,-198.367 1075.7899,-187.7821 1069.5471,-196.3424 1076.2479,-198.367"/>
</g>
<!-- Node5&#45;&gt;Node2 -->
<g id="edge8" class="edge">
<title>Node5&#45;&gt;Node2</title>
<path fill="none" stroke="#191970" d="M714.9512,-168.2455C723.7269,-160.0549 736.4554,-148.1749 746.814,-138.5069"/>
<polygon fill="#191970" stroke="#191970" points="749.2461,-141.0246 754.1686,-131.6427 744.4699,-135.9072 749.2461,-141.0246"/>
</g>
<!-- Node6 -->
<g id="node7" class="node">
<title>Node6</title>
<g id="a_node7"><a xlink:href="MatrixView_8h.html" target="_top" xlink:title="iDynTree/Core/MatrixView.h">
<polygon fill="none" stroke="#000000" points="539,-112.5 539,-131.5 690,-131.5 690,-112.5 539,-112.5"/>
<text text-anchor="middle" x="614.5" y="-119.5" font-family="FreeSans.ttf" font-size="10.00" fill="#000000">iDynTree/Core/MatrixView.h</text>
</a>
</g>
</g>
<!-- Node5&#45;&gt;Node6 -->
<g id="edge9" class="edge">
<title>Node5&#45;&gt;Node6</title>
<path fill="none" stroke="#191970" d="M688.8232,-168.2455C675.0144,-159.6534 654.6807,-147.0014 638.7708,-137.1018"/>
<polygon fill="#191970" stroke="#191970" points="640.3368,-133.954 629.9972,-131.6427 636.6387,-139.8974 640.3368,-133.954"/>
</g>
<!-- Node7 -->
<g id="node8" class="node">
<title>Node7</title>
<polygon fill="none" stroke="#bfbfbf" points="314.5,-.5 314.5,-19.5 366.5,-19.5 366.5,-.5 314.5,-.5"/>
<text text-anchor="middle" x="340.5" y="-7.5" font-family="FreeSans.ttf" font-size="10.00" fill="#000000">cassert</text>
</g>
<!-- Node6&#45;&gt;Node7 -->
<g id="edge10" class="edge">
<title>Node6&#45;&gt;Node7</title>
<path fill="none" stroke="#191970" d="M602.3588,-112.2939C583.9538,-98.025 547.4264,-71.4147 512.5,-56 457.7164,-31.8214 438.1326,-36.1311 376.6643,-20.2134"/>
<polygon fill="#191970" stroke="#191970" points="377.4208,-16.7928 366.8564,-17.5955 375.6155,-23.5561 377.4208,-16.7928"/>
</g>
<!-- Node8 -->
<g id="node9" class="node">
<title>Node8</title>
<polygon fill="none" stroke="#bfbfbf" points="879,-.5 879,-19.5 948,-19.5 948,-.5 879,-.5"/>
<text text-anchor="middle" x="913.5" y="-7.5" font-family="FreeSans.ttf" font-size="10.00" fill="#000000">type_traits</text>
</g>
<!-- Node6&#45;&gt;Node8 -->
<g id="edge11" class="edge">
<title>Node6&#45;&gt;Node8</title>
<path fill="none" stroke="#191970" d="M639.9926,-112.4509C693.5031,-92.4069 817.606,-45.9202 878.5109,-23.1063"/>
<polygon fill="#191970" stroke="#191970" points="879.9351,-26.3104 888.072,-19.5249 877.4796,-19.7551 879.9351,-26.3104"/>
</g>
<!-- Node9 -->
<g id="node10" class="node">
<title>Node9</title>
<g id="a_node10"><a xlink:href="Span_8h.html" target="_top" xlink:title="iDynTree/Core/Span.h">
<polygon fill="none" stroke="#000000" points="565,-56.5 565,-75.5 686,-75.5 686,-56.5 565,-56.5"/>
<text text-anchor="middle" x="625.5" y="-63.5" font-family="FreeSans.ttf" font-size="10.00" fill="#000000">iDynTree/Core/Span.h</text>
</a>
</g>
</g>
<!-- Node6&#45;&gt;Node9 -->
<g id="edge12" class="edge">
<title>Node6&#45;&gt;Node9</title>
<path fill="none" stroke="#191970" d="M616.4161,-112.2455C617.8514,-104.9382 619.8636,-94.6944 621.6295,-85.7046"/>
<polygon fill="#191970" stroke="#191970" points="625.1127,-86.1298 623.6059,-75.6427 618.244,-84.7805 625.1127,-86.1298"/>
</g>
<!-- Node17 -->
<g id="node18" class="node">
<title>Node17</title>
<g id="a_node18"><a xlink:href="Utils_8h.html" target="_top" xlink:title="iDynTree/Core/Utils.h">
<polygon fill="none" stroke="#000000" points="274,-56.5 274,-75.5 393,-75.5 393,-56.5 274,-56.5"/>
<text text-anchor="middle" x="333.5" y="-63.5" font-family="FreeSans.ttf" font-size="10.00" fill="#000000">iDynTree/Core/Utils.h</text>
</a>
</g>
</g>
<!-- Node6&#45;&gt;Node17 -->
<g id="edge22" class="edge">
<title>Node6&#45;&gt;Node17</title>
<path fill="none" stroke="#191970" d="M566.5137,-112.4369C518.0186,-102.7724 443.0527,-87.8326 391.3121,-77.5213"/>
<polygon fill="#191970" stroke="#191970" points="391.7797,-74.0457 381.2884,-75.5237 390.4115,-80.9107 391.7797,-74.0457"/>
</g>
<!-- Node9&#45;&gt;Node7 -->
<g id="edge13" class="edge">
<title>Node9&#45;&gt;Node7</title>
<path fill="none" stroke="#191970" d="M564.795,-56.5124C516.2413,-48.5404 446.2601,-36.1954 376.6236,-20.1041"/>
<polygon fill="#191970" stroke="#191970" points="377.3363,-16.6764 366.8022,-17.8088 375.7433,-23.4928 377.3363,-16.6764"/>
</g>
<!-- Node9&#45;&gt;Node8 -->
<g id="edge20" class="edge">
<title>Node9&#45;&gt;Node8</title>
<path fill="none" stroke="#191970" d="M679.4027,-56.4315C726.6957,-47.9019 797.5729,-34.7948 868.8775,-20.0703"/>
<polygon fill="#191970" stroke="#191970" points="869.8591,-23.4412 878.9393,-17.9821 868.4367,-16.5872 869.8591,-23.4412"/>
</g>
<!-- Node10 -->
<g id="node11" class="node">
<title>Node10</title>
<polygon fill="none" stroke="#bfbfbf" points="456.5,-.5 456.5,-19.5 520.5,-19.5 520.5,-.5 456.5,-.5"/>
<text text-anchor="middle" x="488.5" y="-7.5" font-family="FreeSans.ttf" font-size="10.00" fill="#000000">algorithm</text>
</g>
<!-- Node9&#45;&gt;Node10 -->
<g id="edge14" class="edge">
<title>Node9&#45;&gt;Node10</title>
<path fill="none" stroke="#191970" d="M601.9489,-56.3733C579.6609,-47.2629 546.0063,-33.5062 521.1363,-23.3404"/>
<polygon fill="#191970" stroke="#191970" points="522.3247,-20.0451 511.7438,-19.5011 519.6761,-26.5247 522.3247,-20.0451"/>
</g>
<!-- Node11 -->
<g id="node12" class="node">
<title>Node11</title>
<polygon fill="none" stroke="#bfbfbf" points="538.5,-.5 538.5,-19.5 580.5,-19.5 580.5,-.5 538.5,-.5"/>
<text text-anchor="middle" x="559.5" y="-7.5" font-family="FreeSans.ttf" font-size="10.00" fill="#000000">array</text>
</g>
<!-- Node9&#45;&gt;Node11 -->
<g id="edge15" class="edge">
<title>Node9&#45;&gt;Node11</title>
<path fill="none" stroke="#191970" d="M614.0037,-56.2455C604.2558,-47.9746 590.0741,-35.9416 578.6202,-26.2232"/>
<polygon fill="#191970" stroke="#191970" points="580.7541,-23.4437 570.8646,-19.6427 576.2253,-28.7813 580.7541,-23.4437"/>
</g>
<!-- Node12 -->
<g id="node13" class="node">
<title>Node12</title>
<polygon fill="none" stroke="#bfbfbf" points="385,-.5 385,-19.5 438,-19.5 438,-.5 385,-.5"/>
<text text-anchor="middle" x="411.5" y="-7.5" font-family="FreeSans.ttf" font-size="10.00" fill="#000000">cstddef</text>
</g>
<!-- Node9&#45;&gt;Node12 -->
<g id="edge16" class="edge">
<title>Node9&#45;&gt;Node12</title>
<path fill="none" stroke="#191970" d="M587.5993,-56.4165C553.571,-47.7651 502.0036,-34.539 447.9766,-20.0947"/>
<polygon fill="#191970" stroke="#191970" points="448.7869,-16.6884 438.2217,-17.4805 446.9748,-23.4498 448.7869,-16.6884"/>
</g>
<!-- Node13 -->
<g id="node14" class="node">
<title>Node13</title>
<polygon fill="none" stroke="#bfbfbf" points="599,-.5 599,-19.5 652,-19.5 652,-.5 599,-.5"/>
<text text-anchor="middle" x="625.5" y="-7.5" font-family="FreeSans.ttf" font-size="10.00" fill="#000000">iterator</text>
</g>
<!-- Node9&#45;&gt;Node13 -->
<g id="edge17" class="edge">
<title>Node9&#45;&gt;Node13</title>
<path fill="none" stroke="#191970" d="M625.5,-56.2455C625.5,-48.9382 625.5,-38.6944 625.5,-29.7046"/>
<polygon fill="#191970" stroke="#191970" points="629.0001,-29.6426 625.5,-19.6427 622.0001,-29.6427 629.0001,-29.6426"/>
</g>
<!-- Node14 -->
<g id="node15" class="node">
<title>Node14</title>
<polygon fill="none" stroke="#bfbfbf" points="670.5,-.5 670.5,-19.5 714.5,-19.5 714.5,-.5 670.5,-.5"/>
<text text-anchor="middle" x="692.5" y="-7.5" font-family="FreeSans.ttf" font-size="10.00" fill="#000000">limits</text>
</g>
<!-- Node9&#45;&gt;Node14 -->
<g id="edge18" class="edge">
<title>Node9&#45;&gt;Node14</title>
<path fill="none" stroke="#191970" d="M637.1705,-56.2455C647.0661,-47.9746 661.4627,-35.9416 673.0901,-26.2232"/>
<polygon fill="#191970" stroke="#191970" points="675.535,-28.7413 680.9632,-19.6427 671.0458,-23.3703 675.535,-28.7413"/>
</g>
<!-- Node15 -->
<g id="node16" class="node">
<title>Node15</title>
<polygon fill="none" stroke="#bfbfbf" points="733,-.5 733,-19.5 798,-19.5 798,-.5 733,-.5"/>
<text text-anchor="middle" x="765.5" y="-7.5" font-family="FreeSans.ttf" font-size="10.00" fill="#000000">stdexcept</text>
</g>
<!-- Node9&#45;&gt;Node15 -->
<g id="edge19" class="edge">
<title>Node9&#45;&gt;Node15</title>
<path fill="none" stroke="#191970" d="M649.5669,-56.3733C672.3428,-47.2629 706.7344,-33.5062 732.149,-23.3404"/>
<polygon fill="#191970" stroke="#191970" points="733.7623,-26.4648 741.7472,-19.5011 731.1625,-19.9654 733.7623,-26.4648"/>
</g>
<!-- Node16 -->
<g id="node17" class="node">
<title>Node16</title>
<polygon fill="none" stroke="#bfbfbf" points="816,-.5 816,-19.5 861,-19.5 861,-.5 816,-.5"/>
<text text-anchor="middle" x="838.5" y="-7.5" font-family="FreeSans.ttf" font-size="10.00" fill="#000000">utility</text>
</g>
<!-- Node9&#45;&gt;Node16 -->
<g id="edge21" class="edge">
<title>Node9&#45;&gt;Node16</title>
<path fill="none" stroke="#191970" d="M665.5666,-56.4755C700.2705,-48.0788 752.0251,-35.2068 806.0643,-20.0148"/>
<polygon fill="#191970" stroke="#191970" points="807.1508,-23.3448 815.8196,-17.2537 805.2444,-16.6094 807.1508,-23.3448"/>
</g>
<!-- Node17&#45;&gt;Node12 -->
<g id="edge23" class="edge">
<title>Node17&#45;&gt;Node12</title>
<path fill="none" stroke="#191970" d="M347.0866,-56.2455C358.8305,-47.814 376.0199,-35.4729 389.6882,-25.6598"/>
<polygon fill="#191970" stroke="#191970" points="391.9871,-28.3179 398.0691,-19.6427 387.9046,-22.6316 391.9871,-28.3179"/>
</g>
<!-- Node18 -->
<g id="node19" class="node">
<title>Node18</title>
<polygon fill="none" stroke="#bfbfbf" points="216.5,-.5 216.5,-19.5 296.5,-19.5 296.5,-.5 216.5,-.5"/>
<text text-anchor="middle" x="256.5" y="-7.5" font-family="FreeSans.ttf" font-size="10.00" fill="#000000">CoreExport.h</text>
</g>
<!-- Node17&#45;&gt;Node18 -->
<g id="edge24" class="edge">
<title>Node17&#45;&gt;Node18</title>
<path fill="none" stroke="#191970" d="M320.0876,-56.2455C308.4943,-47.814 291.5252,-35.4729 278.0322,-25.6598"/>
<polygon fill="#191970" stroke="#191970" points="279.9047,-22.6938 269.7587,-19.6427 275.7874,-28.355 279.9047,-22.6938"/>
</g>
<!-- Node19&#45;&gt;Node2 -->
<g id="edge50" class="edge">
<title>Node19&#45;&gt;Node2</title>
<path fill="none" stroke="#191970" d="M758.9272,-336.3055C777.8712,-319.5513 815.5654,-283.1896 834.5,-244 845.5345,-221.1615 843.044,-213.2453 845.5,-188 846.3607,-179.1529 849.9718,-175.6821 845.5,-168 834.9286,-149.8393 814.2209,-138.2635 796.3902,-131.2665"/>
<polygon fill="#191970" stroke="#191970" points="797.4572,-127.9309 786.8628,-127.8377 795.0868,-134.5173 797.4572,-127.9309"/>
</g>
<!-- Node20 -->
<g id="node21" class="node">
<title>Node20</title>
<g id="a_node21"><a xlink:href="PositionRaw_8h.html" target="_top" xlink:title="iDynTree/Core/PositionRaw.h">
<polygon fill="none" stroke="#000000" points="669.5,-224.5 669.5,-243.5 825.5,-243.5 825.5,-224.5 669.5,-224.5"/>
<text text-anchor="middle" x="747.5" y="-231.5" font-family="FreeSans.ttf" font-size="10.00" fill="#000000">iDynTree/Core/PositionRaw.h</text>
</a>
</g>
</g>
<!-- Node19&#45;&gt;Node20 -->
<g id="edge26" class="edge">
<title>Node19&#45;&gt;Node20</title>
<path fill="none" stroke="#191970" d="M747.5,-336.4509C747.5,-318.184 747.5,-277.9553 747.5,-253.6976"/>
<polygon fill="#191970" stroke="#191970" points="751.0001,-253.5249 747.5,-243.5249 744.0001,-253.5249 751.0001,-253.5249"/>
</g>
<!-- Node24 -->
<g id="node25" class="node">
<title>Node24</title>
<g id="a_node25"><a xlink:href="Rotation_8h.html" target="_top" xlink:title="iDynTree/Core/Rotation.h">
<polygon fill="none" stroke="#000000" points="452,-280.5 452,-299.5 589,-299.5 589,-280.5 452,-280.5"/>
<text text-anchor="middle" x="520.5" y="-287.5" font-family="FreeSans.ttf" font-size="10.00" fill="#000000">iDynTree/Core/Rotation.h</text>
</a>
</g>
</g>
<!-- Node19&#45;&gt;Node24 -->
<g id="edge35" class="edge">
<title>Node19&#45;&gt;Node24</title>
<path fill="none" stroke="#191970" d="M708.7352,-336.4369C670.1308,-326.9133 610.7616,-312.2672 569.0428,-301.9753"/>
<polygon fill="#191970" stroke="#191970" points="569.6521,-298.5208 559.1049,-299.5237 567.9755,-305.317 569.6521,-298.5208"/>
</g>
<!-- Node20&#45;&gt;Node2 -->
<g id="edge34" class="edge">
<title>Node20&#45;&gt;Node2</title>
<path fill="none" stroke="#191970" d="M781.0002,-224.3574C798.7612,-217.3494 819.024,-205.8886 829.5,-188 841.5716,-167.3868 817.7527,-148.4749 795.6278,-136.2295"/>
<polygon fill="#191970" stroke="#191970" points="797.1626,-133.0826 786.6777,-131.5607 793.9251,-139.2889 797.1626,-133.0826"/>
</g>
<!-- Node21 -->
<g id="node22" class="node">
<title>Node21</title>
<g id="a_node22"><a xlink:href="VectorFixSize_8h.html" target="_top" xlink:title="iDynTree/Core/VectorFixSize.h">
<polygon fill="none" stroke="#000000" points="149,-168.5 149,-187.5 310,-187.5 310,-168.5 149,-168.5"/>
<text text-anchor="middle" x="229.5" y="-175.5" font-family="FreeSans.ttf" font-size="10.00" fill="#000000">iDynTree/Core/VectorFixSize.h</text>
</a>
</g>
</g>
<!-- Node20&#45;&gt;Node21 -->
<g id="edge27" class="edge">
<title>Node20&#45;&gt;Node21</title>
<path fill="none" stroke="#191970" d="M669.2045,-225.7251C585.3781,-216.8383 448.1699,-202.2137 320.024,-188.1635"/>
<polygon fill="#191970" stroke="#191970" points="320.3503,-184.6783 310.0282,-187.0666 319.5867,-191.6366 320.3503,-184.6783"/>
</g>
<!-- Node21&#45;&gt;Node2 -->
<g id="edge30" class="edge">
<title>Node21&#45;&gt;Node2</title>
<path fill="none" stroke="#191970" d="M310.0234,-168.8888C312.8837,-168.5854 315.7161,-168.2882 318.5,-168 487.243,-150.5283 530.1244,-152.715 698.5,-132 709.456,-130.6521 721.396,-128.9229 732.0711,-127.2827"/>
<polygon fill="#191970" stroke="#191970" points="732.9033,-130.6951 742.2412,-125.6895 731.82,-123.7794 732.9033,-130.6951"/>
</g>
<!-- Node21&#45;&gt;Node7 -->
<g id="edge32" class="edge">
<title>Node21&#45;&gt;Node7</title>
<path fill="none" stroke="#191970" d="M213.3942,-168.3356C195.0185,-155.9958 168.9177,-133.6417 180.5,-112 206.2555,-63.8755 265.6981,-35.3174 304.4311,-21.1577"/>
<polygon fill="#191970" stroke="#191970" points="306.0021,-24.3158 314.2799,-17.7029 303.685,-17.7104 306.0021,-24.3158"/>
</g>
<!-- Node21&#45;&gt;Node9 -->
<g id="edge29" class="edge">
<title>Node21&#45;&gt;Node9</title>
<path fill="none" stroke="#191970" d="M224.1454,-168.1012C217.2406,-153.8323 207.6651,-127.4996 221.5,-112 243.2667,-87.6142 445.0155,-74.4357 554.9157,-69.0125"/>
<polygon fill="#191970" stroke="#191970" points="555.1128,-72.5071 564.9316,-68.5271 554.7739,-65.5153 555.1128,-72.5071"/>
</g>
<!-- Node21&#45;&gt;Node17 -->
<g id="edge28" class="edge">
<title>Node21&#45;&gt;Node17</title>
<path fill="none" stroke="#191970" d="M215.8829,-168.3052C199.1155,-155.1692 174.4786,-131.1583 188.5,-112 198.8633,-97.84 237.5364,-85.9861 272.3373,-77.8594"/>
<polygon fill="#191970" stroke="#191970" points="273.5164,-81.1812 282.499,-75.5631 271.9734,-74.3534 273.5164,-81.1812"/>
</g>
<!-- Node22 -->
<g id="node23" class="node">
<title>Node22</title>
<polygon fill="none" stroke="#bfbfbf" points="298.5,-112.5 298.5,-131.5 354.5,-131.5 354.5,-112.5 298.5,-112.5"/>
<text text-anchor="middle" x="326.5" y="-119.5" font-family="FreeSans.ttf" font-size="10.00" fill="#000000">sstream</text>
</g>
<!-- Node21&#45;&gt;Node22 -->
<g id="edge31" class="edge">
<title>Node21&#45;&gt;Node22</title>
<path fill="none" stroke="#191970" d="M246.3961,-168.2455C261.418,-159.5731 283.6043,-146.7645 300.821,-136.825"/>
<polygon fill="#191970" stroke="#191970" points="302.8871,-139.6737 309.7975,-131.6427 299.3872,-133.6114 302.8871,-139.6737"/>
</g>
<!-- Node23 -->
<g id="node24" class="node">
<title>Node23</title>
<polygon fill="none" stroke="#bfbfbf" points="230.5,-112.5 230.5,-131.5 280.5,-131.5 280.5,-112.5 230.5,-112.5"/>
<text text-anchor="middle" x="255.5" y="-119.5" font-family="FreeSans.ttf" font-size="10.00" fill="#000000">cstring</text>
</g>
<!-- Node21&#45;&gt;Node23 -->
<g id="edge33" class="edge">
<title>Node21&#45;&gt;Node23</title>
<path fill="none" stroke="#191970" d="M234.0289,-168.2455C237.5334,-160.6973 242.4927,-150.0158 246.7623,-140.8197"/>
<polygon fill="#191970" stroke="#191970" points="249.9864,-142.1867 251.023,-131.6427 243.6373,-139.2389 249.9864,-142.1867"/>
</g>
<!-- Node24&#45;&gt;Node2 -->
<g id="edge36" class="edge">
<title>Node24&#45;&gt;Node2</title>
<path fill="none" stroke="#191970" d="M539.7338,-280.335C553.8919,-272.3374 572.6622,-259.7517 584.5,-244 606.0356,-215.3442 585.536,-192.7145 611.5,-168 628.9281,-151.4106 693.0069,-136.1791 732.4994,-128.0846"/>
<polygon fill="#191970" stroke="#191970" points="733.3304,-131.4877 742.447,-126.0897 731.954,-124.6244 733.3304,-131.4877"/>
</g>
<!-- Node24&#45;&gt;Node21 -->
<g id="edge49" class="edge">
<title>Node24&#45;&gt;Node21</title>
<path fill="none" stroke="#191970" d="M451.693,-283.9137C369.4384,-275.9289 240.9853,-260.9279 226.5,-244 215.6983,-231.3769 218.0801,-211.9097 222.185,-197.3842"/>
<polygon fill="#191970" stroke="#191970" points="225.5214,-198.442 225.3146,-187.8492 218.8705,-196.259 225.5214,-198.442"/>
</g>
<!-- Node25 -->
<g id="node26" class="node">
<title>Node25</title>
<g id="a_node26"><a xlink:href="GeomVector3_8h.html" target="_top" xlink:title="iDynTree/Core/GeomVector3.h">
<polygon fill="none" stroke="#000000" points="236,-224.5 236,-243.5 399,-243.5 399,-224.5 236,-224.5"/>
<text text-anchor="middle" x="317.5" y="-231.5" font-family="FreeSans.ttf" font-size="10.00" fill="#000000">iDynTree/Core/GeomVector3.h</text>
</a>
</g>
</g>
<!-- Node24&#45;&gt;Node25 -->
<g id="edge37" class="edge">
<title>Node24&#45;&gt;Node25</title>
<path fill="none" stroke="#191970" d="M485.6031,-280.3733C451.4089,-270.9404 399.1585,-256.5265 361.9958,-246.2747"/>
<polygon fill="#191970" stroke="#191970" points="362.5123,-242.7865 351.9416,-243.5011 360.6507,-249.5345 362.5123,-242.7865"/>
</g>
<!-- Node26 -->
<g id="node27" class="node">
<title>Node26</title>
<g id="a_node27"><a xlink:href="RotationRaw_8h.html" target="_top" xlink:title="iDynTree/Core/RotationRaw.h">
<polygon fill="none" stroke="#000000" points="417.5,-224.5 417.5,-243.5 575.5,-243.5 575.5,-224.5 417.5,-224.5"/>
<text text-anchor="middle" x="496.5" y="-231.5" font-family="FreeSans.ttf" font-size="10.00" fill="#000000">iDynTree/Core/RotationRaw.h</text>
</a>
</g>
</g>
<!-- Node24&#45;&gt;Node26 -->
<g id="edge39" class="edge">
<title>Node24&#45;&gt;Node26</title>
<path fill="none" stroke="#191970" d="M516.3195,-280.2455C513.119,-272.7776 508.604,-262.2427 504.6916,-253.1137"/>
<polygon fill="#191970" stroke="#191970" points="507.7888,-251.4554 500.6326,-243.6427 501.3548,-254.2129 507.7888,-251.4554"/>
</g>
<!-- Node25&#45;&gt;Node21 -->
<g id="edge38" class="edge">
<title>Node25&#45;&gt;Node21</title>
<path fill="none" stroke="#191970" d="M302.1716,-224.2455C288.6697,-215.6534 268.7878,-203.0014 253.2314,-193.1018"/>
<polygon fill="#191970" stroke="#191970" points="254.9685,-190.0587 244.6528,-187.6427 251.2103,-195.9643 254.9685,-190.0587"/>
</g>
<!-- Node26&#45;&gt;Node2 -->
<g id="edge48" class="edge">
<title>Node26&#45;&gt;Node2</title>
<path fill="none" stroke="#191970" d="M505.7619,-224.3557C520.1725,-209.9191 549.4431,-182.8076 579.5,-168 606.217,-154.8379 686.8086,-137.4462 732.3163,-128.2779"/>
<polygon fill="#191970" stroke="#191970" points="733.1487,-131.6809 742.2701,-126.291 731.7784,-124.8163 733.1487,-131.6809"/>
</g>
<!-- Node27 -->
<g id="node28" class="node">
<title>Node27</title>
<g id="a_node28"><a xlink:href="MatrixFixSize_8h.html" target="_top" xlink:title="iDynTree/Core/MatrixFixSize.h">
<polygon fill="none" stroke="#000000" points="328,-168.5 328,-187.5 489,-187.5 489,-168.5 328,-168.5"/>
<text text-anchor="middle" x="408.5" y="-175.5" font-family="FreeSans.ttf" font-size="10.00" fill="#000000">iDynTree/Core/MatrixFixSize.h</text>
</a>
</g>
</g>
<!-- Node26&#45;&gt;Node27 -->
<g id="edge40" class="edge">
<title>Node26&#45;&gt;Node27</title>
<path fill="none" stroke="#191970" d="M481.1716,-224.2455C467.6697,-215.6534 447.7878,-203.0014 432.2314,-193.1018"/>
<polygon fill="#191970" stroke="#191970" points="433.9685,-190.0587 423.6528,-187.6427 430.2103,-195.9643 433.9685,-190.0587"/>
</g>
<!-- Node27&#45;&gt;Node2 -->
<g id="edge45" class="edge">
<title>Node27&#45;&gt;Node2</title>
<path fill="none" stroke="#191970" d="M469.2941,-168.4369C545.3546,-156.4723 672.8133,-136.4226 732.2105,-127.0793"/>
<polygon fill="#191970" stroke="#191970" points="732.8128,-130.5276 742.1474,-125.5161 731.725,-123.6127 732.8128,-130.5276"/>
</g>
<!-- Node27&#45;&gt;Node6 -->
<g id="edge42" class="edge">
<title>Node27&#45;&gt;Node6</title>
<path fill="none" stroke="#191970" d="M443.9127,-168.3733C478.7605,-158.9001 532.0882,-144.4032 569.8293,-134.1435"/>
<polygon fill="#191970" stroke="#191970" points="570.8178,-137.5019 579.5494,-131.5011 568.9815,-130.747 570.8178,-137.5019"/>
</g>
<!-- Node27&#45;&gt;Node7 -->
<g id="edge43" class="edge">
<title>Node27&#45;&gt;Node7</title>
<path fill="none" stroke="#191970" d="M424.2074,-168.46C441.8386,-156.4199 466.8388,-134.5458 457.5,-112 440.6572,-71.338 397.6834,-41.0429 368.7764,-24.4374"/>
<polygon fill="#191970" stroke="#191970" points="370.3784,-21.3236 359.9362,-19.5312 366.9815,-27.4442 370.3784,-21.3236"/>
</g>
<!-- Node27&#45;&gt;Node17 -->
<g id="edge41" class="edge">
<title>Node27&#45;&gt;Node17</title>
<path fill="none" stroke="#191970" d="M419.7963,-168.2029C433.673,-154.9511 453.933,-130.8093 441.5,-112 431.0698,-96.2206 414.0068,-85.8364 396.4914,-79.0096"/>
<polygon fill="#191970" stroke="#191970" points="397.3481,-75.6004 386.7533,-75.5712 395.0174,-82.201 397.3481,-75.6004"/>
</g>
<!-- Node27&#45;&gt;Node22 -->
<g id="edge47" class="edge">
<title>Node27&#45;&gt;Node22</title>
<path fill="none" stroke="#191970" d="M394.2167,-168.2455C381.753,-159.7337 363.4549,-147.2375 349.0208,-137.3801"/>
<polygon fill="#191970" stroke="#191970" points="350.8515,-134.392 340.6196,-131.6427 346.9038,-140.1726 350.8515,-134.392"/>
</g>
<!-- Node27&#45;&gt;Node23 -->
<g id="edge44" class="edge">
<title>Node27&#45;&gt;Node23</title>
<path fill="none" stroke="#191970" d="M382.1984,-168.3733C356.7478,-159.058 318.0257,-144.8852 290.0894,-134.6602"/>
<polygon fill="#191970" stroke="#191970" points="291.291,-131.3729 280.6972,-131.2225 288.8849,-137.9465 291.291,-131.3729"/>
</g>
<!-- Node28 -->
<g id="node29" class="node">
<title>Node28</title>
<polygon fill="none" stroke="#bfbfbf" points="372.5,-112.5 372.5,-131.5 432.5,-131.5 432.5,-112.5 372.5,-112.5"/>
<text text-anchor="middle" x="402.5" y="-119.5" font-family="FreeSans.ttf" font-size="10.00" fill="#000000">iostream</text>
</g>
<!-- Node27&#45;&gt;Node28 -->
<g id="edge46" class="edge">
<title>Node27&#45;&gt;Node28</title>
<path fill="none" stroke="#191970" d="M407.4549,-168.2455C406.672,-160.9382 405.5744,-150.6944 404.6112,-141.7046"/>
<polygon fill="#191970" stroke="#191970" points="408.0786,-141.2129 403.5331,-131.6427 401.1185,-141.9587 408.0786,-141.2129"/>
</g>
<!-- Node29&#45;&gt;Node2 -->
<g id="edge55" class="edge">
<title>Node29&#45;&gt;Node2</title>
<path fill="none" stroke="#191970" d="M675.1533,-392.2533C660.0162,-363.2016 620.4772,-275.9955 660.5,-224 698.6386,-174.4523 758.3614,-237.5477 796.5,-188 808.0575,-172.9851 795.3689,-153.1274 782.7151,-139.1291"/>
<polygon fill="#191970" stroke="#191970" points="784.9284,-136.384 775.4524,-131.6451 779.9049,-141.259 784.9284,-136.384"/>
</g>
<!-- Node29&#45;&gt;Node19 -->
<g id="edge52" class="edge">
<title>Node29&#45;&gt;Node19</title>
<path fill="none" stroke="#191970" d="M692.1705,-392.2455C702.0661,-383.9746 716.4627,-371.9416 728.0901,-362.2232"/>
<polygon fill="#191970" stroke="#191970" points="730.535,-364.7413 735.9632,-355.6427 726.0458,-359.3703 730.535,-364.7413"/>
</g>
<!-- Node29&#45;&gt;Node24 -->
<g id="edge53" class="edge">
<title>Node29&#45;&gt;Node24</title>
<path fill="none" stroke="#191970" d="M666.8585,-392.4509C639.1097,-373.0268 575.8862,-328.7703 542.3421,-305.2895"/>
<polygon fill="#191970" stroke="#191970" points="544.3065,-302.3922 534.107,-299.5249 540.2922,-308.1269 544.3065,-302.3922"/>
</g>
<!-- Node29&#45;&gt;Node27 -->
<g id="edge54" class="edge">
<title>Node29&#45;&gt;Node27</title>
<path fill="none" stroke="#191970" d="M632.1724,-392.4741C525.3784,-370.3409 274.9117,-312.1078 226.5,-244 221.3501,-236.7549 221.0387,-231.0133 226.5,-224 238.9664,-207.9907 282.3635,-196.6724 323.6527,-189.2692"/>
<polygon fill="#191970" stroke="#191970" points="324.2671,-192.715 333.5254,-187.5637 323.0755,-185.8171 324.2671,-192.715"/>
</g>
<!-- Node30&#45;&gt;Node2 -->
<g id="edge58" class="edge">
<title>Node30&#45;&gt;Node2</title>
<path fill="none" stroke="#191970" d="M1024.8783,-168.4369C959.3573,-156.7516 850.5941,-137.3544 796.7461,-127.7509"/>
<polygon fill="#191970" stroke="#191970" points="797.197,-124.2762 786.7378,-125.966 795.9679,-131.1674 797.197,-124.2762"/>
</g>
<!-- Node30&#45;&gt;Node9 -->
<g id="edge57" class="edge">
<title>Node30&#45;&gt;Node9</title>
<path fill="none" stroke="#191970" d="M1039.8775,-168.4509C957.3855,-148.0556 764.1609,-100.2826 673.7481,-77.9289"/>
<polygon fill="#191970" stroke="#191970" points="674.5725,-74.5274 664.0248,-75.5249 672.8924,-81.3228 674.5725,-74.5274"/>
</g>
<!-- Node31&#45;&gt;Node2 -->
<g id="edge60" class="edge">
<title>Node31&#45;&gt;Node2</title>
<path fill="none" stroke="#191970" d="M141.3039,-228.9136C244.7538,-221.0494 432.0209,-205.056 497.5,-188 519.4684,-182.2777 522.8409,-174.8002 544.5,-168 609.8464,-147.4833 689.0094,-133.4758 732.3215,-126.6966"/>
<polygon fill="#191970" stroke="#191970" points="732.9234,-130.1453 742.276,-125.1676 731.8606,-123.2265 732.9234,-130.1453"/>
</g>
<!-- Node31&#45;&gt;Node17 -->
<g id="edge62" class="edge">
<title>Node31&#45;&gt;Node17</title>
<path fill="none" stroke="#191970" d="M76.4032,-224.4608C91.0806,-201.5394 131.5907,-142.9757 180.5,-112 206.1699,-95.7425 237.887,-84.9755 265.7753,-77.977"/>
<polygon fill="#191970" stroke="#191970" points="266.9466,-81.2957 275.8585,-75.566 265.3186,-74.4876 266.9466,-81.2957"/>
</g>
<!-- Node31&#45;&gt;Node21 -->
<g id="edge61" class="edge">
<title>Node31&#45;&gt;Node21</title>
<path fill="none" stroke="#191970" d="M97.8331,-224.3733C124.0434,-215.1419 163.7984,-201.1402 192.7668,-190.9375"/>
<polygon fill="#191970" stroke="#191970" points="194.2542,-194.1244 202.5236,-187.5011 191.9288,-187.5219 194.2542,-194.1244"/>
</g>
</g>
</svg>
