<?xml version="1.0" encoding="UTF-8" standalone="no"?>
<!DOCTYPE svg PUBLIC "-//W3C//DTD SVG 1.1//EN"
 "http://www.w3.org/Graphics/SVG/1.1/DTD/svg11.dtd">
<!-- Generated by graphviz version 2.40.1 (20161225.0304)
 -->
<!-- Title: InverseKinematicsNLP.h Pages: 1 -->
<svg width="1101pt" height="599pt"
 viewBox="0.00 0.00 1100.50 599.00" xmlns="http://www.w3.org/2000/svg" xmlns:xlink="http://www.w3.org/1999/xlink">
<g id="graph0" class="graph" transform="scale(1 1) rotate(0) translate(4 595)">
<title>InverseKinematicsNLP.h</title>
<!-- Node0 -->
<g id="node1" class="node">
<title>Node0</title>
<polygon fill="#bfbfbf" stroke="#000000" points="684,-571.5 684,-590.5 818,-590.5 818,-571.5 684,-571.5"/>
<text text-anchor="middle" x="751" y="-578.5" font-family="FreeSans.ttf" font-size="10.00" fill="#000000">InverseKinematicsNLP.h</text>
</g>
<!-- Node1 -->
<g id="node2" class="node">
<title>Node1</title>
<polygon fill="none" stroke="#bfbfbf" points="96,-515.5 96,-534.5 166,-534.5 166,-515.5 96,-515.5"/>
<text text-anchor="middle" x="131" y="-522.5" font-family="FreeSans.ttf" font-size="10.00" fill="#000000">IpTNLP.hpp</text>
</g>
<!-- Node0&#45;&gt;Node1 -->
<g id="edge1" class="edge">
<title>Node0&#45;&gt;Node1</title>
<path fill="none" stroke="#191970" d="M683.682,-578.7627C577.6896,-574.5492 365.3498,-563.3154 176.5679,-535.0524"/>
<polygon fill="#191970" stroke="#191970" points="176.8696,-531.5582 166.4578,-533.5188 175.8198,-538.479 176.8696,-531.5582"/>
</g>
<!-- Node2 -->
<g id="node3" class="node">
<title>Node2</title>
<g id="a_node3"><a xlink:href="VectorFixSize_8h.html" target="_top" xlink:title="iDynTree/Core/VectorFixSize.h">
<polygon fill="none" stroke="#000000" points="179.5,-168.5 179.5,-187.5 340.5,-187.5 340.5,-168.5 179.5,-168.5"/>
<text text-anchor="middle" x="260" y="-175.5" font-family="FreeSans.ttf" font-size="10.00" fill="#000000">iDynTree/Core/VectorFixSize.h</text>
</a>
</g>
</g>
<!-- Node0&#45;&gt;Node2 -->
<g id="edge2" class="edge">
<title>Node0&#45;&gt;Node2</title>
<path fill="none" stroke="#191970" d="M683.5383,-575.9721C565.5182,-565.3046 334,-535.2363 334,-463.5 334,-463.5 334,-463.5 334,-290 334,-250.563 301.6668,-214.3258 279.7456,-194.2897"/>
<polygon fill="#191970" stroke="#191970" points="282.0384,-191.6451 272.2196,-187.665 277.4133,-196.8995 282.0384,-191.6451"/>
</g>
<!-- Node18 -->
<g id="node19" class="node">
<title>Node18</title>
<g id="a_node19"><a xlink:href="VectorDynSize_8h.html" target="_top" xlink:title="iDynTree/Core/VectorDynSize.h">
<polygon fill="none" stroke="#000000" points="925.5,-168.5 925.5,-187.5 1092.5,-187.5 1092.5,-168.5 925.5,-168.5"/>
<text text-anchor="middle" x="1009" y="-175.5" font-family="FreeSans.ttf" font-size="10.00" fill="#000000">iDynTree/Core/VectorDynSize.h</text>
</a>
</g>
</g>
<!-- Node0&#45;&gt;Node18 -->
<g id="edge20" class="edge">
<title>Node0&#45;&gt;Node18</title>
<path fill="none" stroke="#191970" d="M811.5171,-571.4582C870.064,-558.377 950,-528.5972 950,-463.5 950,-463.5 950,-463.5 950,-290 950,-252.9131 975.6366,-216.0541 993.1115,-195.2374"/>
<polygon fill="#191970" stroke="#191970" points="995.8472,-197.4255 999.7813,-187.5881 990.5712,-192.8251 995.8472,-197.4255"/>
</g>
<!-- Node19 -->
<g id="node20" class="node">
<title>Node19</title>
<g id="a_node20"><a xlink:href="MatrixDynSize_8h.html" target="_top" xlink:title="iDynTree/Core/MatrixDynSize.h">
<polygon fill="none" stroke="#000000" points="613.5,-168.5 613.5,-187.5 780.5,-187.5 780.5,-168.5 613.5,-168.5"/>
<text text-anchor="middle" x="697" y="-175.5" font-family="FreeSans.ttf" font-size="10.00" fill="#000000">iDynTree/Core/MatrixDynSize.h</text>
</a>
</g>
</g>
<!-- Node0&#45;&gt;Node19 -->
<g id="edge23" class="edge">
<title>Node0&#45;&gt;Node19</title>
<path fill="none" stroke="#191970" d="M788.7473,-571.4664C836.3341,-556.9151 912,-524.2294 912,-463.5 912,-463.5 912,-463.5 912,-402 912,-308.2939 869.7929,-285.3939 799,-224 782.0512,-209.3014 759.636,-198.503 740.1358,-191.0772"/>
<polygon fill="#191970" stroke="#191970" points="741.1363,-187.7171 730.5421,-187.5997 738.7508,-194.2981 741.1363,-187.7171"/>
</g>
<!-- Node21 -->
<g id="node22" class="node">
<title>Node21</title>
<g id="a_node22"><a xlink:href="Twist_8h.html" target="_top" xlink:title="iDynTree/Core/Twist.h">
<polygon fill="none" stroke="#000000" points="184,-515.5 184,-534.5 306,-534.5 306,-515.5 184,-515.5"/>
<text text-anchor="middle" x="245" y="-522.5" font-family="FreeSans.ttf" font-size="10.00" fill="#000000">iDynTree/Core/Twist.h</text>
</a>
</g>
</g>
<!-- Node0&#45;&gt;Node21 -->
<g id="edge30" class="edge">
<title>Node0&#45;&gt;Node21</title>
<path fill="none" stroke="#191970" d="M683.749,-574.3737C598.8951,-565.8862 448.5102,-550.4225 320,-535 318.8914,-534.867 317.7737,-534.7317 316.6488,-534.5946"/>
<polygon fill="#191970" stroke="#191970" points="316.7339,-531.0783 306.3783,-533.3171 315.8698,-538.0248 316.7339,-531.0783"/>
</g>
<!-- Node31 -->
<g id="node32" class="node">
<title>Node31</title>
<g id="a_node32"><a xlink:href="Transform_8h.html" target="_top" xlink:title="iDynTree/Core/Transform.h">
<polygon fill="none" stroke="#000000" points="678,-392.5 678,-411.5 824,-411.5 824,-392.5 678,-392.5"/>
<text text-anchor="middle" x="751" y="-399.5" font-family="FreeSans.ttf" font-size="10.00" fill="#000000">iDynTree/Core/Transform.h</text>
</a>
</g>
</g>
<!-- Node0&#45;&gt;Node31 -->
<g id="edge60" class="edge">
<title>Node0&#45;&gt;Node31</title>
<path fill="none" stroke="#191970" d="M751,-571.3762C751,-543.2097 751,-460.5126 751,-422.0713"/>
<polygon fill="#191970" stroke="#191970" points="754.5001,-421.6714 751,-411.6714 747.5001,-421.6714 754.5001,-421.6714"/>
</g>
<!-- Node32 -->
<g id="node33" class="node">
<title>Node32</title>
<polygon fill="none" stroke="#bfbfbf" points="978,-515.5 978,-534.5 1016,-534.5 1016,-515.5 978,-515.5"/>
<text text-anchor="middle" x="997" y="-522.5" font-family="FreeSans.ttf" font-size="10.00" fill="#000000">map</text>
</g>
<!-- Node0&#45;&gt;Node32 -->
<g id="edge65" class="edge">
<title>Node0&#45;&gt;Node32</title>
<path fill="none" stroke="#191970" d="M800.7647,-571.4474C844.1051,-562.8439 908.5162,-549.3723 964,-535 965.2713,-534.6707 966.5671,-534.3244 967.8738,-533.9664"/>
<polygon fill="#191970" stroke="#191970" points="969.2403,-537.2151 977.8798,-531.0824 967.3016,-530.4889 969.2403,-537.2151"/>
</g>
<!-- Node3 -->
<g id="node4" class="node">
<title>Node3</title>
<g id="a_node4"><a xlink:href="Utils_8h.html" target="_top" xlink:title="iDynTree/Core/Utils.h">
<polygon fill="none" stroke="#000000" points="270.5,-56.5 270.5,-75.5 389.5,-75.5 389.5,-56.5 270.5,-56.5"/>
<text text-anchor="middle" x="330" y="-63.5" font-family="FreeSans.ttf" font-size="10.00" fill="#000000">iDynTree/Core/Utils.h</text>
</a>
</g>
</g>
<!-- Node2&#45;&gt;Node3 -->
<g id="edge3" class="edge">
<title>Node2&#45;&gt;Node3</title>
<path fill="none" stroke="#191970" d="M252.4633,-168.4152C242.8906,-154.9857 228.8761,-130.1782 240,-112 249.3409,-96.7354 265.5228,-86.3326 281.6126,-79.3404"/>
<polygon fill="#191970" stroke="#191970" points="283.0187,-82.548 291.023,-75.6067 280.4371,-76.0414 283.0187,-82.548"/>
</g>
<!-- Node6 -->
<g id="node7" class="node">
<title>Node6</title>
<g id="a_node7"><a xlink:href="Span_8h.html" target="_top" xlink:title="iDynTree/Core/Span.h">
<polygon fill="none" stroke="#000000" points="612.5,-56.5 612.5,-75.5 733.5,-75.5 733.5,-56.5 612.5,-56.5"/>
<text text-anchor="middle" x="673" y="-63.5" font-family="FreeSans.ttf" font-size="10.00" fill="#000000">iDynTree/Core/Span.h</text>
</a>
</g>
</g>
<!-- Node2&#45;&gt;Node6 -->
<g id="edge6" class="edge">
<title>Node2&#45;&gt;Node6</title>
<path fill="none" stroke="#191970" d="M340.8669,-168.7271C447.3467,-156.3979 621.9045,-135.7235 628,-132 645.6931,-121.192 658.0679,-100.4989 665.302,-85.1521"/>
<polygon fill="#191970" stroke="#191970" points="668.6928,-86.1335 669.4911,-75.5688 662.2788,-83.3298 668.6928,-86.1335"/>
</g>
<!-- Node7 -->
<g id="node8" class="node">
<title>Node7</title>
<polygon fill="none" stroke="#bfbfbf" points="367,-.5 367,-19.5 419,-19.5 419,-.5 367,-.5"/>
<text text-anchor="middle" x="393" y="-7.5" font-family="FreeSans.ttf" font-size="10.00" fill="#000000">cassert</text>
</g>
<!-- Node2&#45;&gt;Node7 -->
<g id="edge18" class="edge">
<title>Node2&#45;&gt;Node7</title>
<path fill="none" stroke="#191970" d="M251.7911,-168.1677C244.9886,-159.3343 235.8369,-145.6831 232,-132 222.2386,-97.1894 233.6806,-79.6794 261,-56 268.5222,-49.4801 320.6241,-32.4221 357.0722,-21.0122"/>
<polygon fill="#191970" stroke="#191970" points="358.3793,-24.2711 366.8873,-17.9573 356.2989,-17.5874 358.3793,-24.2711"/>
</g>
<!-- Node15 -->
<g id="node16" class="node">
<title>Node15</title>
<polygon fill="none" stroke="#bfbfbf" points="675,-112.5 675,-131.5 719,-131.5 719,-112.5 675,-112.5"/>
<text text-anchor="middle" x="697" y="-119.5" font-family="FreeSans.ttf" font-size="10.00" fill="#000000">string</text>
</g>
<!-- Node2&#45;&gt;Node15 -->
<g id="edge16" class="edge">
<title>Node2&#45;&gt;Node15</title>
<path fill="none" stroke="#191970" d="M340.6084,-168.9131C455.4386,-155.9459 653.2086,-133.5193 661,-132 662.2535,-131.7556 663.527,-131.4896 664.8102,-131.2069"/>
<polygon fill="#191970" stroke="#191970" points="665.7832,-134.572 674.661,-128.7896 664.1149,-127.7737 665.7832,-134.572"/>
</g>
<!-- Node16 -->
<g id="node17" class="node">
<title>Node16</title>
<polygon fill="none" stroke="#bfbfbf" points="249,-112.5 249,-131.5 305,-131.5 305,-112.5 249,-112.5"/>
<text text-anchor="middle" x="277" y="-119.5" font-family="FreeSans.ttf" font-size="10.00" fill="#000000">sstream</text>
</g>
<!-- Node2&#45;&gt;Node16 -->
<g id="edge17" class="edge">
<title>Node2&#45;&gt;Node16</title>
<path fill="none" stroke="#191970" d="M262.9612,-168.2455C265.2038,-160.8579 268.3577,-150.4689 271.1081,-141.4087"/>
<polygon fill="#191970" stroke="#191970" points="274.517,-142.2282 274.0728,-131.6427 267.8188,-140.1948 274.517,-142.2282"/>
</g>
<!-- Node17 -->
<g id="node18" class="node">
<title>Node17</title>
<polygon fill="none" stroke="#bfbfbf" points="323,-112.5 323,-131.5 373,-131.5 373,-112.5 323,-112.5"/>
<text text-anchor="middle" x="348" y="-119.5" font-family="FreeSans.ttf" font-size="10.00" fill="#000000">cstring</text>
</g>
<!-- Node2&#45;&gt;Node17 -->
<g id="edge19" class="edge">
<title>Node2&#45;&gt;Node17</title>
<path fill="none" stroke="#191970" d="M275.3284,-168.2455C288.8303,-159.6534 308.7122,-147.0014 324.2686,-137.1018"/>
<polygon fill="#191970" stroke="#191970" points="326.2897,-139.9643 332.8472,-131.6427 322.5315,-134.0587 326.2897,-139.9643"/>
</g>
<!-- Node4 -->
<g id="node5" class="node">
<title>Node4</title>
<polygon fill="none" stroke="#bfbfbf" points="437.5,-.5 437.5,-19.5 490.5,-19.5 490.5,-.5 437.5,-.5"/>
<text text-anchor="middle" x="464" y="-7.5" font-family="FreeSans.ttf" font-size="10.00" fill="#000000">cstddef</text>
</g>
<!-- Node3&#45;&gt;Node4 -->
<g id="edge4" class="edge">
<title>Node3&#45;&gt;Node4</title>
<path fill="none" stroke="#191970" d="M353.0354,-56.3733C374.7388,-47.3032 407.4618,-33.6279 431.755,-23.4755"/>
<polygon fill="#191970" stroke="#191970" points="433.3881,-26.5865 441.2652,-19.5011 430.6889,-20.1278 433.3881,-26.5865"/>
</g>
<!-- Node5 -->
<g id="node6" class="node">
<title>Node5</title>
<polygon fill="none" stroke="#bfbfbf" points="269,-.5 269,-19.5 349,-19.5 349,-.5 269,-.5"/>
<text text-anchor="middle" x="309" y="-7.5" font-family="FreeSans.ttf" font-size="10.00" fill="#000000">CoreExport.h</text>
</g>
<!-- Node3&#45;&gt;Node5 -->
<g id="edge5" class="edge">
<title>Node3&#45;&gt;Node5</title>
<path fill="none" stroke="#191970" d="M326.3421,-56.2455C323.5416,-48.7776 319.591,-38.2427 316.1676,-29.1137"/>
<polygon fill="#191970" stroke="#191970" points="319.4045,-27.777 312.616,-19.6427 312.8501,-30.2349 319.4045,-27.777"/>
</g>
<!-- Node6&#45;&gt;Node4 -->
<g id="edge10" class="edge">
<title>Node6&#45;&gt;Node4</title>
<path fill="none" stroke="#191970" d="M635.9446,-56.4312C602.7455,-47.8076 552.4737,-34.6253 500.4653,-20.3715"/>
<polygon fill="#191970" stroke="#191970" points="501.3077,-16.9733 490.7377,-17.6984 499.4528,-23.7231 501.3077,-16.9733"/>
</g>
<!-- Node6&#45;&gt;Node7 -->
<g id="edge7" class="edge">
<title>Node6&#45;&gt;Node7</title>
<path fill="none" stroke="#191970" d="M613.7674,-56.4625C566.2809,-48.4562 497.7587,-36.0989 429.3884,-20.1738"/>
<polygon fill="#191970" stroke="#191970" points="429.8408,-16.6846 419.3046,-17.7984 428.2357,-23.4981 429.8408,-16.6846"/>
</g>
<!-- Node8 -->
<g id="node9" class="node">
<title>Node8</title>
<polygon fill="none" stroke="#bfbfbf" points="596,-.5 596,-19.5 660,-19.5 660,-.5 596,-.5"/>
<text text-anchor="middle" x="628" y="-7.5" font-family="FreeSans.ttf" font-size="10.00" fill="#000000">algorithm</text>
</g>
<!-- Node6&#45;&gt;Node8 -->
<g id="edge8" class="edge">
<title>Node6&#45;&gt;Node8</title>
<path fill="none" stroke="#191970" d="M665.1616,-56.2455C658.838,-48.3761 649.7776,-37.101 642.1864,-27.6542"/>
<polygon fill="#191970" stroke="#191970" points="644.7408,-25.2454 635.7486,-19.6427 639.2842,-29.6302 644.7408,-25.2454"/>
</g>
<!-- Node9 -->
<g id="node10" class="node">
<title>Node9</title>
<polygon fill="none" stroke="#bfbfbf" points="678,-.5 678,-19.5 720,-19.5 720,-.5 678,-.5"/>
<text text-anchor="middle" x="699" y="-7.5" font-family="FreeSans.ttf" font-size="10.00" fill="#000000">array</text>
</g>
<!-- Node6&#45;&gt;Node9 -->
<g id="edge9" class="edge">
<title>Node6&#45;&gt;Node9</title>
<path fill="none" stroke="#191970" d="M677.5289,-56.2455C681.0334,-48.6973 685.9927,-38.0158 690.2623,-28.8197"/>
<polygon fill="#191970" stroke="#191970" points="693.4864,-30.1867 694.523,-19.6427 687.1373,-27.2389 693.4864,-30.1867"/>
</g>
<!-- Node10 -->
<g id="node11" class="node">
<title>Node10</title>
<polygon fill="none" stroke="#bfbfbf" points="738.5,-.5 738.5,-19.5 791.5,-19.5 791.5,-.5 738.5,-.5"/>
<text text-anchor="middle" x="765" y="-7.5" font-family="FreeSans.ttf" font-size="10.00" fill="#000000">iterator</text>
</g>
<!-- Node6&#45;&gt;Node10 -->
<g id="edge11" class="edge">
<title>Node6&#45;&gt;Node10</title>
<path fill="none" stroke="#191970" d="M689.0252,-56.2455C703.1408,-47.6534 723.9263,-35.0014 740.1899,-25.1018"/>
<polygon fill="#191970" stroke="#191970" points="742.4363,-27.8319 749.1585,-19.6427 738.7966,-21.8525 742.4363,-27.8319"/>
</g>
<!-- Node11 -->
<g id="node12" class="node">
<title>Node11</title>
<polygon fill="none" stroke="#bfbfbf" points="810,-.5 810,-19.5 854,-19.5 854,-.5 810,-.5"/>
<text text-anchor="middle" x="832" y="-7.5" font-family="FreeSans.ttf" font-size="10.00" fill="#000000">limits</text>
</g>
<!-- Node6&#45;&gt;Node11 -->
<g id="edge12" class="edge">
<title>Node6&#45;&gt;Node11</title>
<path fill="none" stroke="#191970" d="M700.3331,-56.3733C727.9731,-46.6384 770.6756,-31.5985 799.9069,-21.3032"/>
<polygon fill="#191970" stroke="#191970" points="801.3684,-24.4993 809.6378,-17.876 799.043,-17.8968 801.3684,-24.4993"/>
</g>
<!-- Node12 -->
<g id="node13" class="node">
<title>Node12</title>
<polygon fill="none" stroke="#bfbfbf" points="872.5,-.5 872.5,-19.5 937.5,-19.5 937.5,-.5 872.5,-.5"/>
<text text-anchor="middle" x="905" y="-7.5" font-family="FreeSans.ttf" font-size="10.00" fill="#000000">stdexcept</text>
</g>
<!-- Node6&#45;&gt;Node12 -->
<g id="edge13" class="edge">
<title>Node6&#45;&gt;Node12</title>
<path fill="none" stroke="#191970" d="M712.6186,-56.4369C754.3134,-46.3726 819.7085,-30.5876 862.4686,-20.2662"/>
<polygon fill="#191970" stroke="#191970" points="863.3928,-23.6437 872.2924,-17.8949 861.7503,-16.8391 863.3928,-23.6437"/>
</g>
<!-- Node13 -->
<g id="node14" class="node">
<title>Node13</title>
<polygon fill="none" stroke="#bfbfbf" points="508.5,-.5 508.5,-19.5 577.5,-19.5 577.5,-.5 508.5,-.5"/>
<text text-anchor="middle" x="543" y="-7.5" font-family="FreeSans.ttf" font-size="10.00" fill="#000000">type_traits</text>
</g>
<!-- Node6&#45;&gt;Node13 -->
<g id="edge14" class="edge">
<title>Node6&#45;&gt;Node13</title>
<path fill="none" stroke="#191970" d="M650.6522,-56.3733C629.5967,-47.3032 597.8505,-33.6279 574.2825,-23.4755"/>
<polygon fill="#191970" stroke="#191970" points="575.625,-20.243 565.0562,-19.5011 572.8556,-26.6719 575.625,-20.243"/>
</g>
<!-- Node14 -->
<g id="node15" class="node">
<title>Node14</title>
<polygon fill="none" stroke="#bfbfbf" points="955.5,-.5 955.5,-19.5 1000.5,-19.5 1000.5,-.5 955.5,-.5"/>
<text text-anchor="middle" x="978" y="-7.5" font-family="FreeSans.ttf" font-size="10.00" fill="#000000">utility</text>
</g>
<!-- Node6&#45;&gt;Node14 -->
<g id="edge15" class="edge">
<title>Node6&#45;&gt;Node14</title>
<path fill="none" stroke="#191970" d="M733.6473,-58.4038C787.2225,-51.1093 867.5601,-38.7505 945.4444,-20.1273"/>
<polygon fill="#191970" stroke="#191970" points="946.531,-23.4653 955.422,-17.7033 944.8784,-16.6631 946.531,-23.4653"/>
</g>
<!-- Node18&#45;&gt;Node6 -->
<g id="edge21" class="edge">
<title>Node18&#45;&gt;Node6</title>
<path fill="none" stroke="#191970" d="M980.3528,-168.4509C919.9726,-148.3242 779.6089,-101.5363 711.4758,-78.8253"/>
<polygon fill="#191970" stroke="#191970" points="712.1683,-75.3668 701.5747,-75.5249 709.9547,-82.0076 712.1683,-75.3668"/>
</g>
<!-- Node18&#45;&gt;Node15 -->
<g id="edge22" class="edge">
<title>Node18&#45;&gt;Node15</title>
<path fill="none" stroke="#191970" d="M955.7198,-168.4369C890.6162,-156.7516 782.5457,-137.3544 729.0407,-127.7509"/>
<polygon fill="#191970" stroke="#191970" points="729.5572,-124.2877 719.0961,-125.966 728.3205,-131.1776 729.5572,-124.2877"/>
</g>
<!-- Node19&#45;&gt;Node15 -->
<g id="edge24" class="edge">
<title>Node19&#45;&gt;Node15</title>
<path fill="none" stroke="#191970" d="M697,-168.2455C697,-160.9382 697,-150.6944 697,-141.7046"/>
<polygon fill="#191970" stroke="#191970" points="700.5001,-141.6426 697,-131.6427 693.5001,-141.6427 700.5001,-141.6426"/>
</g>
<!-- Node20 -->
<g id="node21" class="node">
<title>Node20</title>
<g id="a_node21"><a xlink:href="MatrixView_8h.html" target="_top" xlink:title="iDynTree/Core/MatrixView.h">
<polygon fill="none" stroke="#000000" points="467.5,-112.5 467.5,-131.5 618.5,-131.5 618.5,-112.5 467.5,-112.5"/>
<text text-anchor="middle" x="543" y="-119.5" font-family="FreeSans.ttf" font-size="10.00" fill="#000000">iDynTree/Core/MatrixView.h</text>
</a>
</g>
</g>
<!-- Node19&#45;&gt;Node20 -->
<g id="edge25" class="edge">
<title>Node19&#45;&gt;Node20</title>
<path fill="none" stroke="#191970" d="M670.5265,-168.3733C645.1403,-159.1419 606.6355,-145.1402 578.578,-134.9375"/>
<polygon fill="#191970" stroke="#191970" points="579.7222,-131.6293 569.1281,-131.5011 577.3299,-138.2079 579.7222,-131.6293"/>
</g>
<!-- Node20&#45;&gt;Node3 -->
<g id="edge29" class="edge">
<title>Node20&#45;&gt;Node3</title>
<path fill="none" stroke="#191970" d="M506.384,-112.3733C470.352,-102.9001 415.2122,-88.4032 376.1886,-78.1435"/>
<polygon fill="#191970" stroke="#191970" points="376.6995,-74.6589 366.1382,-75.5011 374.9196,-81.4289 376.6995,-74.6589"/>
</g>
<!-- Node20&#45;&gt;Node6 -->
<g id="edge28" class="edge">
<title>Node20&#45;&gt;Node6</title>
<path fill="none" stroke="#191970" d="M565.3478,-112.3733C586.4033,-103.3032 618.1495,-89.6279 641.7175,-79.4755"/>
<polygon fill="#191970" stroke="#191970" points="643.1444,-82.6719 650.9438,-75.5011 640.375,-76.243 643.1444,-82.6719"/>
</g>
<!-- Node20&#45;&gt;Node7 -->
<g id="edge26" class="edge">
<title>Node20&#45;&gt;Node7</title>
<path fill="none" stroke="#191970" d="M530.2111,-112.4509C504.3073,-93.1094 445.4284,-49.1465 413.88,-25.5904"/>
<polygon fill="#191970" stroke="#191970" points="415.8634,-22.7033 405.7565,-19.5249 411.6753,-28.3123 415.8634,-22.7033"/>
</g>
<!-- Node20&#45;&gt;Node13 -->
<g id="edge27" class="edge">
<title>Node20&#45;&gt;Node13</title>
<path fill="none" stroke="#191970" d="M543,-112.4509C543,-94.184 543,-53.9553 543,-29.6976"/>
<polygon fill="#191970" stroke="#191970" points="546.5001,-29.5249 543,-19.5249 539.5001,-29.5249 546.5001,-29.5249"/>
</g>
<!-- Node22 -->
<g id="node23" class="node">
<title>Node22</title>
<g id="a_node23"><a xlink:href="SpatialMotionVector_8h.html" target="_top" xlink:title="iDynTree/Core/SpatialMotion\lVector.h">
<polygon fill="none" stroke="#000000" points="150.5,-448.5 150.5,-478.5 305.5,-478.5 305.5,-448.5 150.5,-448.5"/>
<text text-anchor="start" x="158.5" y="-466.5" font-family="FreeSans.ttf" font-size="10.00" fill="#000000">iDynTree/Core/SpatialMotion</text>
<text text-anchor="middle" x="228" y="-455.5" font-family="FreeSans.ttf" font-size="10.00" fill="#000000">Vector.h</text>
</a>
</g>
</g>
<!-- Node21&#45;&gt;Node22 -->
<g id="edge31" class="edge">
<title>Node21&#45;&gt;Node22</title>
<path fill="none" stroke="#191970" d="M242.3438,-515.3906C240.3413,-508.1463 237.5001,-497.8679 234.874,-488.3676"/>
<polygon fill="#191970" stroke="#191970" points="238.1965,-487.2506 232.1587,-478.5446 231.4496,-489.1157 238.1965,-487.2506"/>
</g>
<!-- Node22&#45;&gt;Node2 -->
<g id="edge32" class="edge">
<title>Node22&#45;&gt;Node2</title>
<path fill="none" stroke="#191970" d="M243.7715,-448.4006C263.8594,-427.4631 296,-387.4816 296,-346 296,-346 296,-346 296,-290 296,-255.7942 280.5926,-218.4094 269.9369,-196.6445"/>
<polygon fill="#191970" stroke="#191970" points="272.9659,-194.8795 265.3119,-187.5538 266.727,-198.0537 272.9659,-194.8795"/>
</g>
<!-- Node23 -->
<g id="node24" class="node">
<title>Node23</title>
<g id="a_node24"><a xlink:href="GeomVector3_8h.html" target="_top" xlink:title="iDynTree/Core/GeomVector3.h">
<polygon fill="none" stroke="#000000" points="104.5,-224.5 104.5,-243.5 267.5,-243.5 267.5,-224.5 104.5,-224.5"/>
<text text-anchor="middle" x="186" y="-231.5" font-family="FreeSans.ttf" font-size="10.00" fill="#000000">iDynTree/Core/GeomVector3.h</text>
</a>
</g>
</g>
<!-- Node22&#45;&gt;Node23 -->
<g id="edge33" class="edge">
<title>Node22&#45;&gt;Node23</title>
<path fill="none" stroke="#191970" d="M225.2443,-448.4419C217.909,-408.3599 197.9052,-299.0534 189.6439,-253.9113"/>
<polygon fill="#191970" stroke="#191970" points="193.0545,-253.1047 187.8114,-243.8981 186.1688,-254.3649 193.0545,-253.1047"/>
</g>
<!-- Node24 -->
<g id="node25" class="node">
<title>Node24</title>
<g id="a_node25"><a xlink:href="SpatialVector_8h.html" target="_top" xlink:title="iDynTree/Core/SpatialVector.h">
<polygon fill="none" stroke="#000000" points="38.5,-392.5 38.5,-411.5 199.5,-411.5 199.5,-392.5 38.5,-392.5"/>
<text text-anchor="middle" x="119" y="-399.5" font-family="FreeSans.ttf" font-size="10.00" fill="#000000">iDynTree/Core/SpatialVector.h</text>
</a>
</g>
</g>
<!-- Node22&#45;&gt;Node24 -->
<g id="edge35" class="edge">
<title>Node22&#45;&gt;Node24</title>
<path fill="none" stroke="#191970" d="M201.3356,-448.4554C184.1059,-438.734 161.8025,-426.15 144.7554,-416.5317"/>
<polygon fill="#191970" stroke="#191970" points="146.3204,-413.3961 135.8911,-411.5303 142.8806,-419.4926 146.3204,-413.3961"/>
</g>
<!-- Node23&#45;&gt;Node2 -->
<g id="edge34" class="edge">
<title>Node23&#45;&gt;Node2</title>
<path fill="none" stroke="#191970" d="M198.8898,-224.2455C209.9254,-215.8943 226.0292,-203.7076 238.9353,-193.9408"/>
<polygon fill="#191970" stroke="#191970" points="241.3959,-196.4681 247.2579,-187.6427 237.1717,-190.8862 241.3959,-196.4681"/>
</g>
<!-- Node24&#45;&gt;Node3 -->
<g id="edge56" class="edge">
<title>Node24&#45;&gt;Node3</title>
<path fill="none" stroke="#191970" d="M95.2046,-392.4085C60.4774,-376.6512 0,-341.777 0,-290 0,-290 0,-290 0,-178 0,-140.3794 20.529,-130.9986 53,-112 87.2385,-91.9673 189.8935,-78.8144 260.1392,-71.8902"/>
<polygon fill="#191970" stroke="#191970" points="260.6387,-75.3583 270.2561,-70.9137 259.9661,-68.3907 260.6387,-75.3583"/>
</g>
<!-- Node24&#45;&gt;Node16 -->
<g id="edge59" class="edge">
<title>Node24&#45;&gt;Node16</title>
<path fill="none" stroke="#191970" d="M112.4692,-392.2931C100.4401,-373.4432 76,-330.1986 76,-290 76,-290 76,-290 76,-234 76,-160.3261 180.3191,-134.676 238.6508,-126.0921"/>
<polygon fill="#191970" stroke="#191970" points="239.1962,-129.5502 248.6279,-124.7239 238.2451,-122.6151 239.1962,-129.5502"/>
</g>
<!-- Node24&#45;&gt;Node23 -->
<g id="edge57" class="edge">
<title>Node24&#45;&gt;Node23</title>
<path fill="none" stroke="#191970" d="M122.7942,-392.4862C133.477,-365.6994 163.9632,-289.2565 178.3313,-253.2289"/>
<polygon fill="#191970" stroke="#191970" points="181.6271,-254.413 182.0805,-243.8279 175.1251,-251.8199 181.6271,-254.413"/>
</g>
<!-- Node25 -->
<g id="node26" class="node">
<title>Node25</title>
<g id="a_node26"><a xlink:href="Position_8h.html" target="_top" xlink:title="Position.h">
<polygon fill="none" stroke="#000000" points="659.5,-336.5 659.5,-355.5 724.5,-355.5 724.5,-336.5 659.5,-336.5"/>
<text text-anchor="middle" x="692" y="-343.5" font-family="FreeSans.ttf" font-size="10.00" fill="#000000">Position.h</text>
</a>
</g>
</g>
<!-- Node24&#45;&gt;Node25 -->
<g id="edge36" class="edge">
<title>Node24&#45;&gt;Node25</title>
<path fill="none" stroke="#191970" d="M199.5789,-394.1249C322.8797,-382.0746 554.078,-359.4793 649.3232,-350.1709"/>
<polygon fill="#191970" stroke="#191970" points="649.8365,-353.6375 659.4486,-349.1813 649.1556,-346.6706 649.8365,-353.6375"/>
</g>
<!-- Node27 -->
<g id="node28" class="node">
<title>Node27</title>
<g id="a_node28"><a xlink:href="Rotation_8h.html" target="_top" xlink:title="iDynTree/Core/Rotation.h">
<polygon fill="none" stroke="#000000" points="410.5,-280.5 410.5,-299.5 547.5,-299.5 547.5,-280.5 410.5,-280.5"/>
<text text-anchor="middle" x="479" y="-287.5" font-family="FreeSans.ttf" font-size="10.00" fill="#000000">iDynTree/Core/Rotation.h</text>
</a>
</g>
</g>
<!-- Node24&#45;&gt;Node27 -->
<g id="edge55" class="edge">
<title>Node24&#45;&gt;Node27</title>
<path fill="none" stroke="#191970" d="M149.6934,-392.4509C214.6522,-372.2415 366.0128,-325.1516 438.6714,-302.5467"/>
<polygon fill="#191970" stroke="#191970" points="439.8755,-305.8376 448.3843,-299.5249 437.796,-299.1536 439.8755,-305.8376"/>
</g>
<!-- Node30 -->
<g id="node31" class="node">
<title>Node30</title>
<polygon fill="none" stroke="#bfbfbf" points="62,-112.5 62,-131.5 122,-131.5 122,-112.5 62,-112.5"/>
<text text-anchor="middle" x="92" y="-119.5" font-family="FreeSans.ttf" font-size="10.00" fill="#000000">iostream</text>
</g>
<!-- Node24&#45;&gt;Node30 -->
<g id="edge58" class="edge">
<title>Node24&#45;&gt;Node30</title>
<path fill="none" stroke="#191970" d="M102.7086,-392.3562C90.0472,-384.1204 72.8656,-371.2108 62,-356 43.8573,-330.6019 38,-321.2125 38,-290 38,-290 38,-290 38,-234 38,-197.7347 61.2559,-160.8332 77.2443,-139.7487"/>
<polygon fill="#191970" stroke="#191970" points="80.1233,-141.75 83.5625,-131.7289 74.6247,-137.418 80.1233,-141.75"/>
</g>
<!-- Node25&#45;&gt;Node15 -->
<g id="edge54" class="edge">
<title>Node25&#45;&gt;Node15</title>
<path fill="none" stroke="#191970" d="M703.4279,-336.433C729.2151,-313.8823 790.8558,-254.2806 806,-188 807.98,-179.3344 810.9138,-175.4072 806,-168 789.0348,-142.4263 754.7427,-131.035 729.1284,-125.9826"/>
<polygon fill="#191970" stroke="#191970" points="729.5559,-122.5044 719.1033,-124.2348 728.3535,-129.4004 729.5559,-122.5044"/>
</g>
<!-- Node26 -->
<g id="node27" class="node">
<title>Node26</title>
<g id="a_node27"><a xlink:href="PositionRaw_8h.html" target="_top" xlink:title="iDynTree/Core/PositionRaw.h">
<polygon fill="none" stroke="#000000" points="614,-224.5 614,-243.5 770,-243.5 770,-224.5 614,-224.5"/>
<text text-anchor="middle" x="692" y="-231.5" font-family="FreeSans.ttf" font-size="10.00" fill="#000000">iDynTree/Core/PositionRaw.h</text>
</a>
</g>
</g>
<!-- Node25&#45;&gt;Node26 -->
<g id="edge37" class="edge">
<title>Node25&#45;&gt;Node26</title>
<path fill="none" stroke="#191970" d="M692,-336.4509C692,-318.184 692,-277.9553 692,-253.6976"/>
<polygon fill="#191970" stroke="#191970" points="695.5001,-253.5249 692,-243.5249 688.5001,-253.5249 695.5001,-253.5249"/>
</g>
<!-- Node25&#45;&gt;Node27 -->
<g id="edge40" class="edge">
<title>Node25&#45;&gt;Node27</title>
<path fill="none" stroke="#191970" d="M659.1855,-337.3727C623.3618,-327.9543 565.7206,-312.7998 525.303,-302.1736"/>
<polygon fill="#191970" stroke="#191970" points="525.9835,-298.7336 515.4222,-299.5758 524.2035,-305.5035 525.9835,-298.7336"/>
</g>
<!-- Node26&#45;&gt;Node2 -->
<g id="edge38" class="edge">
<title>Node26&#45;&gt;Node2</title>
<path fill="none" stroke="#191970" d="M618.2274,-224.4369C541.9641,-214.5509 423.1189,-199.145 343.4669,-188.8198"/>
<polygon fill="#191970" stroke="#191970" points="343.8353,-185.3383 333.4683,-187.5237 342.9354,-192.2803 343.8353,-185.3383"/>
</g>
<!-- Node26&#45;&gt;Node15 -->
<g id="edge39" class="edge">
<title>Node26&#45;&gt;Node15</title>
<path fill="none" stroke="#191970" d="M736.8716,-224.4588C756.7248,-217.7646 778.2082,-206.5612 790,-188 807.7994,-159.9824 762.3969,-140.355 728.941,-130.1451"/>
<polygon fill="#191970" stroke="#191970" points="729.6034,-126.6934 719.0249,-127.28 727.6603,-133.4183 729.6034,-126.6934"/>
</g>
<!-- Node27&#45;&gt;Node2 -->
<g id="edge53" class="edge">
<title>Node27&#45;&gt;Node2</title>
<path fill="none" stroke="#191970" d="M460.3282,-280.4509C421.7005,-260.6961 332.8498,-215.2565 287.5877,-192.1088"/>
<polygon fill="#191970" stroke="#191970" points="289.1215,-188.9621 278.6246,-187.5249 285.9342,-195.1943 289.1215,-188.9621"/>
</g>
<!-- Node27&#45;&gt;Node15 -->
<g id="edge41" class="edge">
<title>Node27&#45;&gt;Node15</title>
<path fill="none" stroke="#191970" d="M507.6393,-280.3446C526.412,-272.8392 550.4509,-260.85 567,-244 593.4621,-217.0569 578.2963,-194.7037 605,-168 621.7744,-151.2256 645.9133,-139.4736 665.2565,-132.0484"/>
<polygon fill="#191970" stroke="#191970" points="666.6661,-135.2602 674.8702,-128.5563 664.2761,-128.6809 666.6661,-135.2602"/>
</g>
<!-- Node27&#45;&gt;Node23 -->
<g id="edge42" class="edge">
<title>Node27&#45;&gt;Node23</title>
<path fill="none" stroke="#191970" d="M428.9644,-280.4369C378.293,-270.7522 299.9052,-255.7703 245.9441,-245.4569"/>
<polygon fill="#191970" stroke="#191970" points="246.3085,-241.9633 235.8292,-243.5237 244.9943,-248.8388 246.3085,-241.9633"/>
</g>
<!-- Node28 -->
<g id="node29" class="node">
<title>Node28</title>
<g id="a_node29"><a xlink:href="RotationRaw_8h.html" target="_top" xlink:title="iDynTree/Core/RotationRaw.h">
<polygon fill="none" stroke="#000000" points="400,-224.5 400,-243.5 558,-243.5 558,-224.5 400,-224.5"/>
<text text-anchor="middle" x="479" y="-231.5" font-family="FreeSans.ttf" font-size="10.00" fill="#000000">iDynTree/Core/RotationRaw.h</text>
</a>
</g>
</g>
<!-- Node27&#45;&gt;Node28 -->
<g id="edge43" class="edge">
<title>Node27&#45;&gt;Node28</title>
<path fill="none" stroke="#191970" d="M479,-280.2455C479,-272.9382 479,-262.6944 479,-253.7046"/>
<polygon fill="#191970" stroke="#191970" points="482.5001,-253.6426 479,-243.6427 475.5001,-253.6427 482.5001,-253.6426"/>
</g>
<!-- Node28&#45;&gt;Node15 -->
<g id="edge52" class="edge">
<title>Node28&#45;&gt;Node15</title>
<path fill="none" stroke="#191970" d="M490.3865,-224.3952C507.3019,-210.4924 540.471,-184.6114 572,-168 602.1618,-152.1089 639.0406,-139.2648 664.8964,-131.2286"/>
<polygon fill="#191970" stroke="#191970" points="666.0201,-134.5453 674.5688,-128.2867 663.983,-127.8482 666.0201,-134.5453"/>
</g>
<!-- Node29 -->
<g id="node30" class="node">
<title>Node29</title>
<g id="a_node30"><a xlink:href="MatrixFixSize_8h.html" target="_top" xlink:title="iDynTree/Core/MatrixFixSize.h">
<polygon fill="none" stroke="#000000" points="358.5,-168.5 358.5,-187.5 519.5,-187.5 519.5,-168.5 358.5,-168.5"/>
<text text-anchor="middle" x="439" y="-175.5" font-family="FreeSans.ttf" font-size="10.00" fill="#000000">iDynTree/Core/MatrixFixSize.h</text>
</a>
</g>
</g>
<!-- Node28&#45;&gt;Node29 -->
<g id="edge44" class="edge">
<title>Node28&#45;&gt;Node29</title>
<path fill="none" stroke="#191970" d="M472.0325,-224.2455C466.4689,-216.4564 458.522,-205.3308 451.8171,-195.9439"/>
<polygon fill="#191970" stroke="#191970" points="454.5481,-193.7457 445.8876,-187.6427 448.852,-197.8144 454.5481,-193.7457"/>
</g>
<!-- Node29&#45;&gt;Node3 -->
<g id="edge45" class="edge">
<title>Node29&#45;&gt;Node3</title>
<path fill="none" stroke="#191970" d="M431.267,-168.2452C420.6474,-155.0413 400.7295,-130.9536 382,-112 371.8071,-101.6851 359.7095,-90.9055 349.7489,-82.3762"/>
<polygon fill="#191970" stroke="#191970" points="351.8691,-79.5854 341.9734,-75.8005 347.3489,-84.9304 351.8691,-79.5854"/>
</g>
<!-- Node29&#45;&gt;Node7 -->
<g id="edge47" class="edge">
<title>Node29&#45;&gt;Node7</title>
<path fill="none" stroke="#191970" d="M436.395,-168.4862C429.092,-141.8144 408.3092,-65.9117 398.3927,-29.695"/>
<polygon fill="#191970" stroke="#191970" points="401.7077,-28.5485 395.691,-19.8279 394.9562,-30.3972 401.7077,-28.5485"/>
</g>
<!-- Node29&#45;&gt;Node15 -->
<g id="edge49" class="edge">
<title>Node29&#45;&gt;Node15</title>
<path fill="none" stroke="#191970" d="M489.9131,-168.4517C535.049,-159.749 602.6622,-146.1299 661,-132 662.2766,-131.6908 663.5766,-131.3679 664.8881,-131.0355"/>
<polygon fill="#191970" stroke="#191970" points="666.203,-134.3082 674.9759,-128.368 664.4135,-127.5408 666.203,-134.3082"/>
</g>
<!-- Node29&#45;&gt;Node16 -->
<g id="edge51" class="edge">
<title>Node29&#45;&gt;Node16</title>
<path fill="none" stroke="#191970" d="M411.1512,-168.3733C384.3297,-159.1016 343.5873,-145.0178 314.0402,-134.804"/>
<polygon fill="#191970" stroke="#191970" points="315.0802,-131.4603 304.4854,-131.5011 312.7931,-138.0762 315.0802,-131.4603"/>
</g>
<!-- Node29&#45;&gt;Node17 -->
<g id="edge48" class="edge">
<title>Node29&#45;&gt;Node17</title>
<path fill="none" stroke="#191970" d="M423.149,-168.2455C409.1868,-159.6534 388.6272,-147.0014 372.5404,-137.1018"/>
<polygon fill="#191970" stroke="#191970" points="374.0203,-133.9029 363.6693,-131.6427 370.3516,-139.8645 374.0203,-133.9029"/>
</g>
<!-- Node29&#45;&gt;Node20 -->
<g id="edge46" class="edge">
<title>Node29&#45;&gt;Node20</title>
<path fill="none" stroke="#191970" d="M457.1154,-168.2455C473.445,-159.4527 497.671,-146.4079 516.2339,-136.4125"/>
<polygon fill="#191970" stroke="#191970" points="517.9468,-139.4654 525.0922,-131.6427 514.6281,-133.3021 517.9468,-139.4654"/>
</g>
<!-- Node29&#45;&gt;Node30 -->
<g id="edge50" class="edge">
<title>Node29&#45;&gt;Node30</title>
<path fill="none" stroke="#191970" d="M379.7428,-168.4369C309.1113,-157.0381 193.0077,-138.301 132.1201,-128.4747"/>
<polygon fill="#191970" stroke="#191970" points="132.5567,-125 122.1268,-126.862 131.4414,-131.9106 132.5567,-125"/>
</g>
<!-- Node31&#45;&gt;Node15 -->
<g id="edge64" class="edge">
<title>Node31&#45;&gt;Node15</title>
<path fill="none" stroke="#191970" d="M762.9185,-392.2457C772.6469,-383.6661 786.042,-370.3375 794,-356 834.9657,-282.1939 869.2039,-237.2959 821,-168 810.2333,-152.5222 762.2501,-137.9721 729.2308,-129.5291"/>
<polygon fill="#191970" stroke="#191970" points="729.6515,-126.0271 719.1022,-127.009 727.9613,-132.82 729.6515,-126.0271"/>
</g>
<!-- Node31&#45;&gt;Node25 -->
<g id="edge61" class="edge">
<title>Node31&#45;&gt;Node25</title>
<path fill="none" stroke="#191970" d="M740.723,-392.2455C732.1782,-384.1352 719.8222,-372.4075 709.6915,-362.7919"/>
<polygon fill="#191970" stroke="#191970" points="711.8218,-359.9884 702.1592,-355.6427 707.0028,-365.0655 711.8218,-359.9884"/>
</g>
<!-- Node31&#45;&gt;Node27 -->
<g id="edge62" class="edge">
<title>Node31&#45;&gt;Node27</title>
<path fill="none" stroke="#191970" d="M727.8094,-392.4509C679.3317,-372.4895 567.1647,-326.3031 511.5179,-303.3897"/>
<polygon fill="#191970" stroke="#191970" points="512.7113,-300.0961 502.1319,-299.5249 510.046,-306.5688 512.7113,-300.0961"/>
</g>
<!-- Node31&#45;&gt;Node29 -->
<g id="edge63" class="edge">
<title>Node31&#45;&gt;Node29</title>
<path fill="none" stroke="#191970" d="M757.0645,-392.4585C774.7985,-363.2376 822.6382,-273.9398 779,-224 762.7627,-205.4179 625.0821,-191.618 529.9854,-184.1954"/>
<polygon fill="#191970" stroke="#191970" points="530.0068,-180.6868 519.7678,-183.4095 529.4699,-187.6661 530.0068,-180.6868"/>
</g>
</g>
</svg>
