<?xml version="1.0" encoding="UTF-8" standalone="no"?>
<!DOCTYPE svg PUBLIC "-//W3C//DTD SVG 1.1//EN"
 "http://www.w3.org/Graphics/SVG/1.1/DTD/svg11.dtd">
<!-- Generated by graphviz version 2.40.1 (20161225.0304)
 -->
<!-- Title: IpoptInterface.cpp Pages: 1 -->
<svg width="1779pt" height="610pt"
 viewBox="0.00 0.00 1779.00 610.00" xmlns="http://www.w3.org/2000/svg" xmlns:xlink="http://www.w3.org/1999/xlink">
<g id="graph0" class="graph" transform="scale(1 1) rotate(0) translate(4 606)">
<title>IpoptInterface.cpp</title>
<!-- Node0 -->
<g id="node1" class="node">
<title>Node0</title>
<polygon fill="#bfbfbf" stroke="#000000" points="1079.5,-582.5 1079.5,-601.5 1184.5,-601.5 1184.5,-582.5 1079.5,-582.5"/>
<text text-anchor="middle" x="1132" y="-589.5" font-family="FreeSans.ttf" font-size="10.00" fill="#000000">IpoptInterface.cpp</text>
</g>
<!-- Node1 -->
<g id="node2" class="node">
<title>Node1</title>
<polygon fill="none" stroke="#bfbfbf" points="0,-526.5 0,-545.5 70,-545.5 70,-526.5 0,-526.5"/>
<text text-anchor="middle" x="35" y="-533.5" font-family="FreeSans.ttf" font-size="10.00" fill="#000000">IpTNLP.hpp</text>
</g>
<!-- Node0&#45;&gt;Node1 -->
<g id="edge1" class="edge">
<title>Node0&#45;&gt;Node1</title>
<path fill="none" stroke="#191970" d="M1079.192,-590.95C897.1113,-587.1364 295.3679,-572.879 80.675,-545.9629"/>
<polygon fill="#191970" stroke="#191970" points="80.8101,-542.451 70.4418,-544.6303 79.9061,-549.3924 80.8101,-542.451"/>
</g>
<!-- Node2 -->
<g id="node3" class="node">
<title>Node2</title>
<polygon fill="none" stroke="#bfbfbf" points="88,-526.5 88,-545.5 214,-545.5 214,-526.5 88,-526.5"/>
<text text-anchor="middle" x="151" y="-533.5" font-family="FreeSans.ttf" font-size="10.00" fill="#000000">IpIpoptApplication.hpp</text>
</g>
<!-- Node0&#45;&gt;Node2 -->
<g id="edge2" class="edge">
<title>Node0&#45;&gt;Node2</title>
<path fill="none" stroke="#191970" d="M1079.4206,-590.7638C940.2468,-587.1801 550.8051,-575.1293 228,-546 226.8924,-545.9001 225.7762,-545.7962 224.6531,-545.6887"/>
<polygon fill="#191970" stroke="#191970" points="224.7115,-542.1763 214.4057,-544.6342 223.9949,-549.1395 224.7115,-542.1763"/>
</g>
<!-- Node3 -->
<g id="node4" class="node">
<title>Node3</title>
<polygon fill="none" stroke="#bfbfbf" points="270.5,-465 270.5,-484 347.5,-484 347.5,-465 270.5,-465"/>
<text text-anchor="middle" x="309" y="-472" font-family="FreeSans.ttf" font-size="10.00" fill="#000000">Eigen/Dense</text>
</g>
<!-- Node0&#45;&gt;Node3 -->
<g id="edge3" class="edge">
<title>Node0&#45;&gt;Node3</title>
<path fill="none" stroke="#191970" d="M1079.1864,-588.7121C952.9183,-580.0615 624.1758,-552.8617 357,-490 353.3319,-489.137 349.5407,-488.1261 345.7715,-487.0415"/>
<polygon fill="#191970" stroke="#191970" points="346.5309,-483.6142 335.945,-484.0493 344.4917,-490.3106 346.5309,-483.6142"/>
</g>
<!-- Node4 -->
<g id="node5" class="node">
<title>Node4</title>
<g id="a_node5"><a xlink:href="EigenHelpers_8h.html" target="_top" xlink:title="iDynTree/Core/EigenHelpers.h">
<polygon fill="none" stroke="#000000" points="737.5,-526.5 737.5,-545.5 898.5,-545.5 898.5,-526.5 737.5,-526.5"/>
<text text-anchor="middle" x="818" y="-533.5" font-family="FreeSans.ttf" font-size="10.00" fill="#000000">iDynTree/Core/EigenHelpers.h</text>
</a>
</g>
</g>
<!-- Node0&#45;&gt;Node4 -->
<g id="edge4" class="edge">
<title>Node0&#45;&gt;Node4</title>
<path fill="none" stroke="#191970" d="M1079.4435,-582.6269C1025.0109,-572.9191 939.9242,-557.7444 881.7011,-547.3607"/>
<polygon fill="#191970" stroke="#191970" points="881.9759,-543.8546 871.5167,-545.5444 880.7468,-550.7458 881.9759,-543.8546"/>
</g>
<!-- Node5 -->
<g id="node6" class="node">
<title>Node5</title>
<g id="a_node6"><a xlink:href="VectorDynSize_8h.html" target="_top" xlink:title="iDynTree/Core/VectorDynSize.h">
<polygon fill="none" stroke="#000000" points="1483.5,-347.5 1483.5,-366.5 1650.5,-366.5 1650.5,-347.5 1483.5,-347.5"/>
<text text-anchor="middle" x="1567" y="-354.5" font-family="FreeSans.ttf" font-size="10.00" fill="#000000">iDynTree/Core/VectorDynSize.h</text>
</a>
</g>
</g>
<!-- Node0&#45;&gt;Node5 -->
<g id="edge74" class="edge">
<title>Node0&#45;&gt;Node5</title>
<path fill="none" stroke="#191970" d="M1184.5841,-590.7684C1268.2832,-587.8532 1426.9672,-578.1328 1472,-546 1530.3513,-504.364 1554.9495,-416.344 1563.343,-376.8778"/>
<polygon fill="#191970" stroke="#191970" points="1566.8081,-377.3981 1565.3337,-366.9064 1559.9436,-376.0276 1566.8081,-377.3981"/>
</g>
<!-- Node7 -->
<g id="node8" class="node">
<title>Node7</title>
<polygon fill="none" stroke="#bfbfbf" points="894,-.5 894,-19.5 946,-19.5 946,-.5 894,-.5"/>
<text text-anchor="middle" x="920" y="-7.5" font-family="FreeSans.ttf" font-size="10.00" fill="#000000">cassert</text>
</g>
<!-- Node0&#45;&gt;Node7 -->
<g id="edge86" class="edge">
<title>Node0&#45;&gt;Node7</title>
<path fill="none" stroke="#191970" d="M1079.3209,-590.6262C888.1316,-584.9521 242,-559.4895 242,-474.5 242,-474.5 242,-474.5 242,-122 242,-56.3777 742.8025,-20.8245 883.5825,-12.1267"/>
<polygon fill="#191970" stroke="#191970" points="884.0686,-15.6036 893.837,-11.5015 883.6426,-8.6166 884.0686,-15.6036"/>
</g>
<!-- Node18 -->
<g id="node19" class="node">
<title>Node18</title>
<g id="a_node19"><a xlink:href="Utils_8h.html" target="_top" xlink:title="iDynTree/Core/Utils.h">
<polygon fill="none" stroke="#000000" points="1050.5,-56.5 1050.5,-75.5 1169.5,-75.5 1169.5,-56.5 1050.5,-56.5"/>
<text text-anchor="middle" x="1110" y="-63.5" font-family="FreeSans.ttf" font-size="10.00" fill="#000000">iDynTree/Core/Utils.h</text>
</a>
</g>
</g>
<!-- Node0&#45;&gt;Node18 -->
<g id="edge85" class="edge">
<title>Node0&#45;&gt;Node18</title>
<path fill="none" stroke="#191970" d="M1151.0577,-582.3962C1191.727,-560.6527 1286.0707,-503.2388 1320,-423 1352.5425,-346.0408 1329.5115,-317.8929 1319,-235 1311.2476,-173.8655 1306.3875,-146.0126 1255,-112 1230.6874,-95.9079 1200.3789,-85.1404 1173.767,-78.0978"/>
<polygon fill="#191970" stroke="#191970" points="1174.3212,-74.628 1163.769,-75.5777 1172.6102,-81.4157 1174.3212,-74.628"/>
</g>
<!-- Node22 -->
<g id="node23" class="node">
<title>Node22</title>
<g id="a_node23"><a xlink:href="MatrixDynSize_8h.html" target="_top" xlink:title="iDynTree/Core/MatrixDynSize.h">
<polygon fill="none" stroke="#000000" points="1371.5,-291.5 1371.5,-310.5 1538.5,-310.5 1538.5,-291.5 1371.5,-291.5"/>
<text text-anchor="middle" x="1455" y="-298.5" font-family="FreeSans.ttf" font-size="10.00" fill="#000000">iDynTree/Core/MatrixDynSize.h</text>
</a>
</g>
</g>
<!-- Node0&#45;&gt;Node22 -->
<g id="edge75" class="edge">
<title>Node0&#45;&gt;Node22</title>
<path fill="none" stroke="#191970" d="M1184.7733,-589.5192C1252.8798,-585.2174 1366.184,-573.9717 1396,-546 1460.702,-485.3 1459.9207,-367.0397 1456.7995,-320.4928"/>
<polygon fill="#191970" stroke="#191970" points="1460.2881,-320.2091 1456.0151,-310.5142 1453.3096,-320.7578 1460.2881,-320.2091"/>
</g>
<!-- Node35 -->
<g id="node36" class="node">
<title>Node35</title>
<g id="a_node36"><a xlink:href="IpoptInterface_8h.html" target="_top" xlink:title="iDynTree/Optimizers\l/IpoptInterface.h">
<polygon fill="none" stroke="#000000" points="1633,-168.5 1633,-198.5 1749,-198.5 1749,-168.5 1633,-168.5"/>
<text text-anchor="start" x="1641" y="-186.5" font-family="FreeSans.ttf" font-size="10.00" fill="#000000">iDynTree/Optimizers</text>
<text text-anchor="middle" x="1691" y="-175.5" font-family="FreeSans.ttf" font-size="10.00" fill="#000000">/IpoptInterface.h</text>
</a>
</g>
</g>
<!-- Node0&#45;&gt;Node35 -->
<g id="edge76" class="edge">
<title>Node0&#45;&gt;Node35</title>
<path fill="none" stroke="#191970" d="M1184.7534,-589.5039C1256.4221,-585.1776 1388.1066,-573.8967 1497,-546 1580.7878,-524.535 1678,-560.9936 1678,-474.5 1678,-474.5 1678,-474.5 1678,-301 1678,-268.9637 1682.8332,-232.3104 1686.6056,-208.5811"/>
<polygon fill="#191970" stroke="#191970" points="1690.0693,-209.0871 1688.243,-198.6509 1683.1626,-207.9482 1690.0693,-209.0871"/>
</g>
<!-- Node40 -->
<g id="node41" class="node">
<title>Node40</title>
<polygon fill="none" stroke="#bfbfbf" points="1706.5,-526.5 1706.5,-545.5 1763.5,-545.5 1763.5,-526.5 1706.5,-526.5"/>
<text text-anchor="middle" x="1735" y="-533.5" font-family="FreeSans.ttf" font-size="10.00" fill="#000000">ostream</text>
</g>
<!-- Node0&#45;&gt;Node40 -->
<g id="edge87" class="edge">
<title>Node0&#45;&gt;Node40</title>
<path fill="none" stroke="#191970" d="M1184.8044,-590.2419C1284.4783,-586.3534 1506.9566,-574.9568 1692,-546 1693.4671,-545.7704 1694.9585,-545.5183 1696.462,-545.2484"/>
<polygon fill="#191970" stroke="#191970" points="1697.3115,-548.648 1706.4333,-543.2587 1695.9417,-541.7833 1697.3115,-548.648"/>
</g>
<!-- Node4&#45;&gt;Node3 -->
<g id="edge5" class="edge">
<title>Node4&#45;&gt;Node3</title>
<path fill="none" stroke="#191970" d="M737.2614,-533.144C644.6025,-528.67 488.4845,-517.4619 357,-490 353.0622,-489.1776 348.992,-488.1512 344.9638,-487.0205"/>
<polygon fill="#191970" stroke="#191970" points="345.7212,-483.5932 335.1363,-484.052 343.697,-490.2941 345.7212,-483.5932"/>
</g>
<!-- Node4&#45;&gt;Node5 -->
<g id="edge6" class="edge">
<title>Node4&#45;&gt;Node5</title>
<path fill="none" stroke="#191970" d="M898.7104,-533.8374C1027.9351,-529.5862 1275.1571,-517.9926 1358,-490 1435.7537,-463.7271 1513.7205,-402.7209 1548.3785,-373.3621"/>
<polygon fill="#191970" stroke="#191970" points="1550.9234,-375.7902 1556.2303,-366.6202 1546.3632,-370.4793 1550.9234,-375.7902"/>
</g>
<!-- Node17 -->
<g id="node18" class="node">
<title>Node17</title>
<g id="a_node18"><a xlink:href="VectorFixSize_8h.html" target="_top" xlink:title="iDynTree/Core/VectorFixSize.h">
<polygon fill="none" stroke="#000000" points="685.5,-174 685.5,-193 846.5,-193 846.5,-174 685.5,-174"/>
<text text-anchor="middle" x="766" y="-181" font-family="FreeSans.ttf" font-size="10.00" fill="#000000">iDynTree/Core/VectorFixSize.h</text>
</a>
</g>
</g>
<!-- Node4&#45;&gt;Node17 -->
<g id="edge18" class="edge">
<title>Node4&#45;&gt;Node17</title>
<path fill="none" stroke="#191970" d="M788.7596,-526.3427C771.6551,-519.1108 751.2694,-507.4253 740,-490 678.1347,-394.3409 670.1503,-340.1436 714,-235 719.9239,-220.7957 731.8831,-208.5036 742.8403,-199.4942"/>
<polygon fill="#191970" stroke="#191970" points="745.13,-202.1482 750.9074,-193.2672 740.8528,-196.607 745.13,-202.1482"/>
</g>
<!-- Node4&#45;&gt;Node18 -->
<g id="edge73" class="edge">
<title>Node4&#45;&gt;Node18</title>
<path fill="none" stroke="#191970" d="M898.5833,-532.2401C1037.189,-523.5522 1306,-496.0033 1306,-413 1306,-413 1306,-413 1306,-301 1306,-210.4631 1299.1195,-170.4759 1230,-112 1211.3786,-96.246 1186.7777,-85.5585 1164.7003,-78.4832"/>
<polygon fill="#191970" stroke="#191970" points="1165.6776,-75.1223 1155.0924,-75.5748 1163.6494,-81.822 1165.6776,-75.1223"/>
</g>
<!-- Node4&#45;&gt;Node22 -->
<g id="edge27" class="edge">
<title>Node4&#45;&gt;Node22</title>
<path fill="none" stroke="#191970" d="M898.6839,-532.2811C1031.3273,-525.6235 1284.3945,-510.4319 1320,-490 1355.4414,-469.6623 1419.3795,-363.0676 1444.4799,-319.54"/>
<polygon fill="#191970" stroke="#191970" points="1447.5465,-321.2279 1449.4793,-310.8108 1441.4722,-317.7489 1447.5465,-321.2279"/>
</g>
<!-- Node24 -->
<g id="node25" class="node">
<title>Node24</title>
<g id="a_node25"><a xlink:href="MatrixFixSize_8h.html" target="_top" xlink:title="iDynTree/Core/MatrixFixSize.h">
<polygon fill="none" stroke="#000000" points="864.5,-174 864.5,-193 1025.5,-193 1025.5,-174 864.5,-174"/>
<text text-anchor="middle" x="945" y="-181" font-family="FreeSans.ttf" font-size="10.00" fill="#000000">iDynTree/Core/MatrixFixSize.h</text>
</a>
</g>
</g>
<!-- Node4&#45;&gt;Node24 -->
<g id="edge34" class="edge">
<title>Node4&#45;&gt;Node24</title>
<path fill="none" stroke="#191970" d="M812.7714,-526.4734C791.5606,-486.4106 716.2721,-329.3221 785,-235 797.1193,-218.3674 844.4539,-204.4293 884.5201,-195.2656"/>
<polygon fill="#191970" stroke="#191970" points="885.5227,-198.6282 894.5239,-193.04 884.0025,-191.7953 885.5227,-198.6282"/>
</g>
<!-- Node26 -->
<g id="node27" class="node">
<title>Node26</title>
<g id="a_node27"><a xlink:href="SpatialMotionVector_8h.html" target="_top" xlink:title="iDynTree/Core/SpatialMotion\lVector.h">
<polygon fill="none" stroke="#000000" points="532.5,-459.5 532.5,-489.5 687.5,-489.5 687.5,-459.5 532.5,-459.5"/>
<text text-anchor="start" x="540.5" y="-477.5" font-family="FreeSans.ttf" font-size="10.00" fill="#000000">iDynTree/Core/SpatialMotion</text>
<text text-anchor="middle" x="610" y="-466.5" font-family="FreeSans.ttf" font-size="10.00" fill="#000000">Vector.h</text>
</a>
</g>
</g>
<!-- Node4&#45;&gt;Node26 -->
<g id="edge42" class="edge">
<title>Node4&#45;&gt;Node26</title>
<path fill="none" stroke="#191970" d="M785.5,-526.3906C754.8736,-517.3352 708.2133,-503.539 670.7017,-492.4479"/>
<polygon fill="#191970" stroke="#191970" points="671.4645,-489.0237 660.8825,-489.5446 669.4797,-495.7364 671.4645,-489.0237"/>
</g>
<!-- Node33 -->
<g id="node34" class="node">
<title>Node33</title>
<g id="a_node34"><a xlink:href="SpatialForceVector_8h.html" target="_top" xlink:title="iDynTree/Core/SpatialForce\lVector.h">
<polygon fill="none" stroke="#000000" points="366,-459.5 366,-489.5 514,-489.5 514,-459.5 366,-459.5"/>
<text text-anchor="start" x="374" y="-477.5" font-family="FreeSans.ttf" font-size="10.00" fill="#000000">iDynTree/Core/SpatialForce</text>
<text text-anchor="middle" x="440" y="-466.5" font-family="FreeSans.ttf" font-size="10.00" fill="#000000">Vector.h</text>
</a>
</g>
</g>
<!-- Node4&#45;&gt;Node33 -->
<g id="edge64" class="edge">
<title>Node4&#45;&gt;Node33</title>
<path fill="none" stroke="#191970" d="M753.1667,-526.4606C695.614,-517.8623 608.9687,-504.6008 524.2447,-490.1863"/>
<polygon fill="#191970" stroke="#191970" points="524.6386,-486.703 514.192,-488.4689 523.4597,-493.603 524.6386,-486.703"/>
</g>
<!-- Node34 -->
<g id="node35" class="node">
<title>Node34</title>
<g id="a_node35"><a xlink:href="Transform_8h.html" target="_top" xlink:title="iDynTree/Core/Transform.h">
<polygon fill="none" stroke="#000000" points="918,-403.5 918,-422.5 1064,-422.5 1064,-403.5 918,-403.5"/>
<text text-anchor="middle" x="991" y="-410.5" font-family="FreeSans.ttf" font-size="10.00" fill="#000000">iDynTree/Core/Transform.h</text>
</a>
</g>
</g>
<!-- Node4&#45;&gt;Node34 -->
<g id="edge68" class="edge">
<title>Node4&#45;&gt;Node34</title>
<path fill="none" stroke="#191970" d="M831.575,-526.3484C861.3882,-505.1517 932.8082,-454.3734 969.0725,-428.5901"/>
<polygon fill="#191970" stroke="#191970" points="971.3661,-431.2539 977.488,-422.6068 967.3099,-425.5488 971.3661,-431.2539"/>
</g>
<!-- Node6 -->
<g id="node7" class="node">
<title>Node6</title>
<g id="a_node7"><a xlink:href="Span_8h.html" target="_top" xlink:title="iDynTree/Core/Span.h">
<polygon fill="none" stroke="#000000" points="1288.5,-56.5 1288.5,-75.5 1409.5,-75.5 1409.5,-56.5 1288.5,-56.5"/>
<text text-anchor="middle" x="1349" y="-63.5" font-family="FreeSans.ttf" font-size="10.00" fill="#000000">iDynTree/Core/Span.h</text>
</a>
</g>
</g>
<!-- Node5&#45;&gt;Node6 -->
<g id="edge7" class="edge">
<title>Node5&#45;&gt;Node6</title>
<path fill="none" stroke="#191970" d="M1572.4595,-347.4646C1582.7516,-328.5623 1604,-284.7274 1604,-245 1604,-245 1604,-245 1604,-183.5 1604,-148.3123 1597.6666,-133.7424 1570,-112 1546.9384,-93.8765 1475.2906,-81.2204 1419.7576,-73.8341"/>
<polygon fill="#191970" stroke="#191970" points="1419.9582,-70.3309 1409.5912,-72.5161 1419.0582,-77.2728 1419.9582,-70.3309"/>
</g>
<!-- Node16 -->
<g id="node17" class="node">
<title>Node16</title>
<polygon fill="none" stroke="#bfbfbf" points="1177,-112.5 1177,-131.5 1221,-131.5 1221,-112.5 1177,-112.5"/>
<text text-anchor="middle" x="1199" y="-119.5" font-family="FreeSans.ttf" font-size="10.00" fill="#000000">string</text>
</g>
<!-- Node5&#45;&gt;Node16 -->
<g id="edge17" class="edge">
<title>Node5&#45;&gt;Node16</title>
<path fill="none" stroke="#191970" d="M1566.3683,-347.4121C1564.9939,-333.5302 1560.6526,-307.6751 1547,-291 1462.6184,-187.9376 1300.1275,-143.1339 1231.188,-128.1761"/>
<polygon fill="#191970" stroke="#191970" points="1231.84,-124.7368 1221.3339,-126.1047 1230.4,-131.587 1231.84,-124.7368"/>
</g>
<!-- Node6&#45;&gt;Node7 -->
<g id="edge8" class="edge">
<title>Node6&#45;&gt;Node7</title>
<path fill="none" stroke="#191970" d="M1288.4495,-61.9927C1212.7394,-56.3023 1079.1102,-44.0199 956.2203,-19.9766"/>
<polygon fill="#191970" stroke="#191970" points="956.7517,-16.5139 946.2613,-17.9973 955.3871,-23.3796 956.7517,-16.5139"/>
</g>
<!-- Node8 -->
<g id="node9" class="node">
<title>Node8</title>
<polygon fill="none" stroke="#bfbfbf" points="1209,-.5 1209,-19.5 1273,-19.5 1273,-.5 1209,-.5"/>
<text text-anchor="middle" x="1241" y="-7.5" font-family="FreeSans.ttf" font-size="10.00" fill="#000000">algorithm</text>
</g>
<!-- Node6&#45;&gt;Node8 -->
<g id="edge9" class="edge">
<title>Node6&#45;&gt;Node8</title>
<path fill="none" stroke="#191970" d="M1330.1878,-56.2455C1313.1527,-47.4125 1287.8425,-34.2887 1268.5319,-24.2758"/>
<polygon fill="#191970" stroke="#191970" points="1270.0853,-21.1388 1259.5966,-19.6427 1266.863,-27.353 1270.0853,-21.1388"/>
</g>
<!-- Node9 -->
<g id="node10" class="node">
<title>Node9</title>
<polygon fill="none" stroke="#bfbfbf" points="1291,-.5 1291,-19.5 1333,-19.5 1333,-.5 1291,-.5"/>
<text text-anchor="middle" x="1312" y="-7.5" font-family="FreeSans.ttf" font-size="10.00" fill="#000000">array</text>
</g>
<!-- Node6&#45;&gt;Node9 -->
<g id="edge10" class="edge">
<title>Node6&#45;&gt;Node9</title>
<path fill="none" stroke="#191970" d="M1342.5551,-56.2455C1337.4618,-48.5367 1330.2092,-37.5598 1324.048,-28.2348"/>
<polygon fill="#191970" stroke="#191970" points="1326.8038,-26.0566 1318.3711,-19.6427 1320.9635,-29.9155 1326.8038,-26.0566"/>
</g>
<!-- Node10 -->
<g id="node11" class="node">
<title>Node10</title>
<polygon fill="none" stroke="#bfbfbf" points="1351.5,-.5 1351.5,-19.5 1404.5,-19.5 1404.5,-.5 1351.5,-.5"/>
<text text-anchor="middle" x="1378" y="-7.5" font-family="FreeSans.ttf" font-size="10.00" fill="#000000">cstddef</text>
</g>
<!-- Node6&#45;&gt;Node10 -->
<g id="edge11" class="edge">
<title>Node6&#45;&gt;Node10</title>
<path fill="none" stroke="#191970" d="M1354.0514,-56.2455C1358.0019,-48.617 1363.6097,-37.7881 1368.4058,-28.5267"/>
<polygon fill="#191970" stroke="#191970" points="1371.5159,-30.1321 1373.0065,-19.6427 1365.2999,-26.9131 1371.5159,-30.1321"/>
</g>
<!-- Node11 -->
<g id="node12" class="node">
<title>Node11</title>
<polygon fill="none" stroke="#bfbfbf" points="1422.5,-.5 1422.5,-19.5 1475.5,-19.5 1475.5,-.5 1422.5,-.5"/>
<text text-anchor="middle" x="1449" y="-7.5" font-family="FreeSans.ttf" font-size="10.00" fill="#000000">iterator</text>
</g>
<!-- Node6&#45;&gt;Node11 -->
<g id="edge12" class="edge">
<title>Node6&#45;&gt;Node11</title>
<path fill="none" stroke="#191970" d="M1366.4187,-56.2455C1382.0485,-47.4928 1405.2019,-34.527 1423.0185,-24.5496"/>
<polygon fill="#191970" stroke="#191970" points="1424.766,-27.5825 1431.7809,-19.6427 1421.3457,-21.475 1424.766,-27.5825"/>
</g>
<!-- Node12 -->
<g id="node13" class="node">
<title>Node12</title>
<polygon fill="none" stroke="#bfbfbf" points="1494,-.5 1494,-19.5 1538,-19.5 1538,-.5 1494,-.5"/>
<text text-anchor="middle" x="1516" y="-7.5" font-family="FreeSans.ttf" font-size="10.00" fill="#000000">limits</text>
</g>
<!-- Node6&#45;&gt;Node12 -->
<g id="edge13" class="edge">
<title>Node6&#45;&gt;Node12</title>
<path fill="none" stroke="#191970" d="M1377.7083,-56.3733C1407.2847,-46.4554 1453.2818,-31.0313 1484.0083,-20.7278"/>
<polygon fill="#191970" stroke="#191970" points="1485.429,-23.943 1493.7974,-17.4452 1483.2035,-17.3062 1485.429,-23.943"/>
</g>
<!-- Node13 -->
<g id="node14" class="node">
<title>Node13</title>
<polygon fill="none" stroke="#bfbfbf" points="1062.5,-.5 1062.5,-19.5 1127.5,-19.5 1127.5,-.5 1062.5,-.5"/>
<text text-anchor="middle" x="1095" y="-7.5" font-family="FreeSans.ttf" font-size="10.00" fill="#000000">stdexcept</text>
</g>
<!-- Node6&#45;&gt;Node13 -->
<g id="edge14" class="edge">
<title>Node6&#45;&gt;Node13</title>
<path fill="none" stroke="#191970" d="M1303.2172,-56.4793C1262.2233,-47.8722 1200.2122,-34.6505 1137.6907,-20.3511"/>
<polygon fill="#191970" stroke="#191970" points="1138.1848,-16.8735 1127.6552,-18.0474 1136.6186,-23.6961 1138.1848,-16.8735"/>
</g>
<!-- Node14 -->
<g id="node15" class="node">
<title>Node14</title>
<polygon fill="none" stroke="#bfbfbf" points="1556.5,-.5 1556.5,-19.5 1625.5,-19.5 1625.5,-.5 1556.5,-.5"/>
<text text-anchor="middle" x="1591" y="-7.5" font-family="FreeSans.ttf" font-size="10.00" fill="#000000">type_traits</text>
</g>
<!-- Node6&#45;&gt;Node14 -->
<g id="edge15" class="edge">
<title>Node6&#45;&gt;Node14</title>
<path fill="none" stroke="#191970" d="M1390.3263,-56.4369C1433.6596,-46.4094 1501.5346,-30.7027 1546.1461,-20.3794"/>
<polygon fill="#191970" stroke="#191970" points="1547.1715,-23.7347 1556.125,-18.0702 1545.5934,-16.9149 1547.1715,-23.7347"/>
</g>
<!-- Node15 -->
<g id="node16" class="node">
<title>Node15</title>
<polygon fill="none" stroke="#bfbfbf" points="1145.5,-.5 1145.5,-19.5 1190.5,-19.5 1190.5,-.5 1145.5,-.5"/>
<text text-anchor="middle" x="1168" y="-7.5" font-family="FreeSans.ttf" font-size="10.00" fill="#000000">utility</text>
</g>
<!-- Node6&#45;&gt;Node15 -->
<g id="edge16" class="edge">
<title>Node6&#45;&gt;Node15</title>
<path fill="none" stroke="#191970" d="M1317.8842,-56.4279C1289.6774,-47.7432 1246.7108,-34.4953 1200.3493,-20.1015"/>
<polygon fill="#191970" stroke="#191970" points="1201.3108,-16.7353 1190.7226,-17.1114 1199.2343,-23.4202 1201.3108,-16.7353"/>
</g>
<!-- Node17&#45;&gt;Node6 -->
<g id="edge22" class="edge">
<title>Node17&#45;&gt;Node6</title>
<path fill="none" stroke="#191970" d="M813.2155,-173.984C919.3912,-152.585 1176.671,-100.7318 1291.7302,-77.5424"/>
<polygon fill="#191970" stroke="#191970" points="1292.6399,-80.9295 1301.7513,-75.5227 1291.2569,-74.0675 1292.6399,-80.9295"/>
</g>
<!-- Node17&#45;&gt;Node7 -->
<g id="edge25" class="edge">
<title>Node17&#45;&gt;Node7</title>
<path fill="none" stroke="#191970" d="M730.9338,-173.9515C695.4666,-162.4474 648.4592,-140.9902 668,-112 716.8001,-39.6015 826.6571,-18.5739 883.8499,-12.479"/>
<polygon fill="#191970" stroke="#191970" points="884.2741,-15.9543 893.8896,-11.5056 883.5985,-8.987 884.2741,-15.9543"/>
</g>
<!-- Node17&#45;&gt;Node16 -->
<g id="edge23" class="edge">
<title>Node17&#45;&gt;Node16</title>
<path fill="none" stroke="#191970" d="M818.6521,-173.9759C830.5888,-171.9154 843.2188,-169.8129 855,-168 969.3258,-150.4078 1105.6333,-133.3324 1166.6639,-125.8916"/>
<polygon fill="#191970" stroke="#191970" points="1167.317,-129.3381 1176.8218,-124.6575 1166.4727,-122.3892 1167.317,-129.3381"/>
</g>
<!-- Node17&#45;&gt;Node18 -->
<g id="edge19" class="edge">
<title>Node17&#45;&gt;Node18</title>
<path fill="none" stroke="#191970" d="M775.1703,-173.8318C790.6509,-158.146 823.6541,-127.3631 858,-112 889.8222,-97.7658 977.1752,-83.7143 1040.1117,-74.9599"/>
<polygon fill="#191970" stroke="#191970" points="1040.9518,-78.3774 1050.3819,-73.548 1039.9983,-71.4427 1040.9518,-78.3774"/>
</g>
<!-- Node20 -->
<g id="node21" class="node">
<title>Node20</title>
<polygon fill="none" stroke="#bfbfbf" points="755,-112.5 755,-131.5 811,-131.5 811,-112.5 755,-112.5"/>
<text text-anchor="middle" x="783" y="-119.5" font-family="FreeSans.ttf" font-size="10.00" fill="#000000">sstream</text>
</g>
<!-- Node17&#45;&gt;Node20 -->
<g id="edge24" class="edge">
<title>Node17&#45;&gt;Node20</title>
<path fill="none" stroke="#191970" d="M768.6563,-173.8906C771.0375,-165.276 774.6048,-152.3708 777.586,-141.5858"/>
<polygon fill="#191970" stroke="#191970" points="781.0154,-142.3159 780.3063,-131.7449 774.2684,-140.4509 781.0154,-142.3159"/>
</g>
<!-- Node21 -->
<g id="node22" class="node">
<title>Node21</title>
<polygon fill="none" stroke="#bfbfbf" points="867,-112.5 867,-131.5 917,-131.5 917,-112.5 867,-112.5"/>
<text text-anchor="middle" x="892" y="-119.5" font-family="FreeSans.ttf" font-size="10.00" fill="#000000">cstring</text>
</g>
<!-- Node17&#45;&gt;Node21 -->
<g id="edge26" class="edge">
<title>Node17&#45;&gt;Node21</title>
<path fill="none" stroke="#191970" d="M785.6875,-173.8906C806.4922,-163.7359 839.511,-147.6196 863.2319,-136.0416"/>
<polygon fill="#191970" stroke="#191970" points="864.9993,-139.0736 872.4507,-131.5419 861.9288,-132.783 864.9993,-139.0736"/>
</g>
<!-- Node18&#45;&gt;Node10 -->
<g id="edge20" class="edge">
<title>Node18&#45;&gt;Node10</title>
<path fill="none" stroke="#191970" d="M1164.1589,-56.4535C1209.1255,-48.257 1274.952,-35.6366 1341.5001,-19.9827"/>
<polygon fill="#191970" stroke="#191970" points="1342.4003,-23.3664 1351.3215,-17.6513 1340.7835,-16.5556 1342.4003,-23.3664"/>
</g>
<!-- Node19 -->
<g id="node20" class="node">
<title>Node19</title>
<polygon fill="none" stroke="#bfbfbf" points="964,-.5 964,-19.5 1044,-19.5 1044,-.5 964,-.5"/>
<text text-anchor="middle" x="1004" y="-7.5" font-family="FreeSans.ttf" font-size="10.00" fill="#000000">CoreExport.h</text>
</g>
<!-- Node18&#45;&gt;Node19 -->
<g id="edge21" class="edge">
<title>Node18&#45;&gt;Node19</title>
<path fill="none" stroke="#191970" d="M1091.5362,-56.2455C1074.8926,-47.4527 1050.2007,-34.4079 1031.2808,-24.4125"/>
<polygon fill="#191970" stroke="#191970" points="1032.7291,-21.2193 1022.2522,-19.6427 1029.4592,-27.4086 1032.7291,-21.2193"/>
</g>
<!-- Node22&#45;&gt;Node16 -->
<g id="edge28" class="edge">
<title>Node22&#45;&gt;Node16</title>
<path fill="none" stroke="#191970" d="M1443.6951,-291.3477C1416.705,-268.5214 1345.9807,-209.9863 1282,-168 1264.3835,-156.4395 1243.6525,-144.9485 1227.3161,-136.3432"/>
<polygon fill="#191970" stroke="#191970" points="1228.7485,-133.1431 1218.262,-131.6313 1225.5169,-139.3525 1228.7485,-133.1431"/>
</g>
<!-- Node23 -->
<g id="node24" class="node">
<title>Node23</title>
<g id="a_node24"><a xlink:href="MatrixView_8h.html" target="_top" xlink:title="iDynTree/Core/MatrixView.h">
<polygon fill="none" stroke="#000000" points="1410.5,-112.5 1410.5,-131.5 1561.5,-131.5 1561.5,-112.5 1410.5,-112.5"/>
<text text-anchor="middle" x="1486" y="-119.5" font-family="FreeSans.ttf" font-size="10.00" fill="#000000">iDynTree/Core/MatrixView.h</text>
</a>
</g>
</g>
<!-- Node22&#45;&gt;Node23 -->
<g id="edge29" class="edge">
<title>Node22&#45;&gt;Node23</title>
<path fill="none" stroke="#191970" d="M1456.6667,-291.3762C1461.5657,-263.0883 1475.9902,-179.7987 1482.6096,-141.5767"/>
<polygon fill="#191970" stroke="#191970" points="1486.0672,-142.122 1484.3251,-131.6714 1479.1699,-140.9274 1486.0672,-142.122"/>
</g>
<!-- Node23&#45;&gt;Node6 -->
<g id="edge32" class="edge">
<title>Node23&#45;&gt;Node6</title>
<path fill="none" stroke="#191970" d="M1462.4489,-112.3733C1440.1609,-103.2629 1406.5063,-89.5062 1381.6363,-79.3404"/>
<polygon fill="#191970" stroke="#191970" points="1382.8247,-76.0451 1372.2438,-75.5011 1380.1761,-82.5247 1382.8247,-76.0451"/>
</g>
<!-- Node23&#45;&gt;Node7 -->
<g id="edge30" class="edge">
<title>Node23&#45;&gt;Node7</title>
<path fill="none" stroke="#191970" d="M1444.7859,-112.468C1385.8311,-98.9929 1273.9387,-74.0109 1178,-56 1082.4129,-38.0551 1054.7092,-41.5787 956.0606,-20.036"/>
<polygon fill="#191970" stroke="#191970" points="956.8082,-16.6169 946.2879,-17.8715 955.2943,-23.4512 956.8082,-16.6169"/>
</g>
<!-- Node23&#45;&gt;Node14 -->
<g id="edge31" class="edge">
<title>Node23&#45;&gt;Node14</title>
<path fill="none" stroke="#191970" d="M1490.8974,-112.29C1498.0462,-98.7118 1512.319,-73.7288 1529,-56 1540.086,-44.2177 1554.5011,-33.3198 1566.6415,-25.0917"/>
<polygon fill="#191970" stroke="#191970" points="1568.5657,-28.0153 1574.9995,-19.5977 1564.7206,-22.1659 1568.5657,-28.0153"/>
</g>
<!-- Node23&#45;&gt;Node18 -->
<g id="edge33" class="edge">
<title>Node23&#45;&gt;Node18</title>
<path fill="none" stroke="#191970" d="M1421.7905,-112.4369C1354.4194,-102.4029 1248.8681,-86.6825 1179.5563,-76.3595"/>
<polygon fill="#191970" stroke="#191970" points="1180.0084,-72.8883 1169.6018,-74.8769 1178.9771,-79.8119 1180.0084,-72.8883"/>
</g>
<!-- Node24&#45;&gt;Node7 -->
<g id="edge37" class="edge">
<title>Node24&#45;&gt;Node7</title>
<path fill="none" stroke="#191970" d="M943.6203,-173.9248C939.6684,-146.499 928.2467,-67.232 922.8669,-29.8964"/>
<polygon fill="#191970" stroke="#191970" points="926.2968,-29.1581 921.4063,-19.7595 919.3683,-30.1565 926.2968,-29.1581"/>
</g>
<!-- Node24&#45;&gt;Node16 -->
<g id="edge39" class="edge">
<title>Node24&#45;&gt;Node16</title>
<path fill="none" stroke="#191970" d="M984.4088,-173.9581C1034.6726,-161.7879 1120.6265,-140.9763 1167.0321,-129.7403"/>
<polygon fill="#191970" stroke="#191970" points="1167.9544,-133.1182 1176.8499,-127.3631 1166.3071,-126.3147 1167.9544,-133.1182"/>
</g>
<!-- Node24&#45;&gt;Node18 -->
<g id="edge35" class="edge">
<title>Node24&#45;&gt;Node18</title>
<path fill="none" stroke="#191970" d="M958.5026,-173.8845C986.9051,-153.6585 1053.0652,-106.5445 1087.8009,-81.8085"/>
<polygon fill="#191970" stroke="#191970" points="1090.1954,-84.4001 1096.3108,-75.7484 1086.1348,-78.6981 1090.1954,-84.4001"/>
</g>
<!-- Node24&#45;&gt;Node20 -->
<g id="edge41" class="edge">
<title>Node24&#45;&gt;Node20</title>
<path fill="none" stroke="#191970" d="M919.6875,-173.8906C892.2253,-163.4652 848.2105,-146.7559 817.5737,-135.1252"/>
<polygon fill="#191970" stroke="#191970" points="818.726,-131.819 808.1348,-131.5419 816.2415,-138.3633 818.726,-131.819"/>
</g>
<!-- Node24&#45;&gt;Node21 -->
<g id="edge38" class="edge">
<title>Node24&#45;&gt;Node21</title>
<path fill="none" stroke="#191970" d="M936.7188,-173.8906C928.8307,-164.7376 916.7686,-150.7409 907.1588,-139.59"/>
<polygon fill="#191970" stroke="#191970" points="909.5775,-137.0352 900.398,-131.7449 904.2749,-141.6049 909.5775,-137.0352"/>
</g>
<!-- Node24&#45;&gt;Node23 -->
<g id="edge36" class="edge">
<title>Node24&#45;&gt;Node23</title>
<path fill="none" stroke="#191970" d="M1025.7009,-174.3261C1126.329,-162.8868 1297.598,-143.4172 1400.44,-131.7263"/>
<polygon fill="#191970" stroke="#191970" points="1400.9404,-135.1921 1410.4811,-130.5849 1400.1497,-128.2369 1400.9404,-135.1921"/>
</g>
<!-- Node25 -->
<g id="node26" class="node">
<title>Node25</title>
<polygon fill="none" stroke="#bfbfbf" points="677,-112.5 677,-131.5 737,-131.5 737,-112.5 677,-112.5"/>
<text text-anchor="middle" x="707" y="-119.5" font-family="FreeSans.ttf" font-size="10.00" fill="#000000">iostream</text>
</g>
<!-- Node24&#45;&gt;Node25 -->
<g id="edge40" class="edge">
<title>Node24&#45;&gt;Node25</title>
<path fill="none" stroke="#191970" d="M908.0736,-173.9581C864.3748,-162.6662 791.8867,-143.935 746.9204,-132.3156"/>
<polygon fill="#191970" stroke="#191970" points="747.7722,-128.9208 737.2146,-129.8075 746.0209,-135.6982 747.7722,-128.9208"/>
</g>
<!-- Node26&#45;&gt;Node17 -->
<g id="edge43" class="edge">
<title>Node26&#45;&gt;Node17</title>
<path fill="none" stroke="#191970" d="M619.3212,-459.1622C631.6947,-437.3044 652,-395.5607 652,-357 652,-357 652,-357 652,-301 652,-269.7875 655.8944,-258.8744 676,-235 690.2198,-218.1146 711.4669,-205.5892 729.7465,-197.1211"/>
<polygon fill="#191970" stroke="#191970" points="731.2362,-200.2895 738.9821,-193.061 728.4191,-193.8814 731.2362,-200.2895"/>
</g>
<!-- Node27 -->
<g id="node28" class="node">
<title>Node27</title>
<g id="a_node28"><a xlink:href="GeomVector3_8h.html" target="_top" xlink:title="iDynTree/Core/GeomVector3.h">
<polygon fill="none" stroke="#000000" points="460.5,-235.5 460.5,-254.5 623.5,-254.5 623.5,-235.5 460.5,-235.5"/>
<text text-anchor="middle" x="542" y="-242.5" font-family="FreeSans.ttf" font-size="10.00" fill="#000000">iDynTree/Core/GeomVector3.h</text>
</a>
</g>
</g>
<!-- Node26&#45;&gt;Node27 -->
<g id="edge44" class="edge">
<title>Node26&#45;&gt;Node27</title>
<path fill="none" stroke="#191970" d="M607.0539,-459.3291C604.1236,-444.7826 599.3085,-422.2522 594,-403 579.985,-352.172 559.5112,-293.4782 548.92,-263.9919"/>
<polygon fill="#191970" stroke="#191970" points="552.1867,-262.7331 545.4954,-254.5187 545.6037,-265.113 552.1867,-262.7331"/>
</g>
<!-- Node28 -->
<g id="node29" class="node">
<title>Node28</title>
<g id="a_node29"><a xlink:href="SpatialVector_8h.html" target="_top" xlink:title="iDynTree/Core/SpatialVector.h">
<polygon fill="none" stroke="#000000" points="424.5,-403.5 424.5,-422.5 585.5,-422.5 585.5,-403.5 424.5,-403.5"/>
<text text-anchor="middle" x="505" y="-410.5" font-family="FreeSans.ttf" font-size="10.00" fill="#000000">iDynTree/Core/SpatialVector.h</text>
</a>
</g>
</g>
<!-- Node26&#45;&gt;Node28 -->
<g id="edge46" class="edge">
<title>Node26&#45;&gt;Node28</title>
<path fill="none" stroke="#191970" d="M584.3141,-459.4554C567.8703,-449.8241 546.6292,-437.3828 530.2677,-427.7996"/>
<polygon fill="#191970" stroke="#191970" points="531.669,-424.5643 521.2713,-422.5303 528.1312,-430.6045 531.669,-424.5643"/>
</g>
<!-- Node27&#45;&gt;Node17 -->
<g id="edge45" class="edge">
<title>Node27&#45;&gt;Node17</title>
<path fill="none" stroke="#191970" d="M577,-235.3906C615.9588,-224.6944 679.0093,-207.3836 721.4571,-195.7294"/>
<polygon fill="#191970" stroke="#191970" points="722.5293,-199.0646 731.2458,-193.0419 720.6759,-192.3144 722.5293,-199.0646"/>
</g>
<!-- Node28&#45;&gt;Node18 -->
<g id="edge60" class="edge">
<title>Node28&#45;&gt;Node18</title>
<path fill="none" stroke="#191970" d="M447.368,-403.4664C392.4229,-390.6951 318,-362.1162 318,-301 318,-301 318,-301 318,-183.5 318,-110.781 847.1764,-78.436 1040.4257,-69.0484"/>
<polygon fill="#191970" stroke="#191970" points="1040.6505,-72.5418 1050.4713,-68.5665 1040.315,-65.5498 1040.6505,-72.5418"/>
</g>
<!-- Node28&#45;&gt;Node20 -->
<g id="edge63" class="edge">
<title>Node28&#45;&gt;Node20</title>
<path fill="none" stroke="#191970" d="M483.8605,-403.4901C451.6548,-387.3882 394,-351.5089 394,-301 394,-301 394,-301 394,-245 394,-235.8609 646.9732,-161.4728 744.9132,-133.0155"/>
<polygon fill="#191970" stroke="#191970" points="746.0827,-136.3206 754.7107,-130.1717 744.1314,-129.598 746.0827,-136.3206"/>
</g>
<!-- Node28&#45;&gt;Node25 -->
<g id="edge62" class="edge">
<title>Node28&#45;&gt;Node25</title>
<path fill="none" stroke="#191970" d="M449.4596,-403.4805C425.4273,-396.841 398.6045,-385.6763 380,-367 357.9719,-344.887 356,-332.2125 356,-301 356,-301 356,-301 356,-245 356,-209.154 352.6807,-191.2077 380,-168 401.5526,-149.6911 584.1363,-132.2789 666.7196,-125.2576"/>
<polygon fill="#191970" stroke="#191970" points="667.075,-128.7402 676.7466,-124.4145 666.4884,-121.7648 667.075,-128.7402"/>
</g>
<!-- Node28&#45;&gt;Node27 -->
<g id="edge61" class="edge">
<title>Node28&#45;&gt;Node27</title>
<path fill="none" stroke="#191970" d="M507.0953,-403.4862C512.9695,-376.8144 529.6861,-300.9117 537.6624,-264.695"/>
<polygon fill="#191970" stroke="#191970" points="541.1027,-265.3467 539.8355,-254.8279 534.2665,-263.841 541.1027,-265.3467"/>
</g>
<!-- Node29 -->
<g id="node30" class="node">
<title>Node29</title>
<g id="a_node30"><a xlink:href="Position_8h.html" target="_top" xlink:title="Position.h">
<polygon fill="none" stroke="#000000" points="958.5,-347.5 958.5,-366.5 1023.5,-366.5 1023.5,-347.5 958.5,-347.5"/>
<text text-anchor="middle" x="991" y="-354.5" font-family="FreeSans.ttf" font-size="10.00" fill="#000000">Position.h</text>
</a>
</g>
</g>
<!-- Node28&#45;&gt;Node29 -->
<g id="edge47" class="edge">
<title>Node28&#45;&gt;Node29</title>
<path fill="none" stroke="#191970" d="M585.5256,-403.7213C689.5677,-391.7329 866.9461,-371.2943 948.1361,-361.9391"/>
<polygon fill="#191970" stroke="#191970" points="948.9412,-365.3695 958.4748,-360.7478 948.1399,-358.4155 948.9412,-365.3695"/>
</g>
<!-- Node31 -->
<g id="node32" class="node">
<title>Node31</title>
<g id="a_node32"><a xlink:href="Rotation_8h.html" target="_top" xlink:title="iDynTree/Core/Rotation.h">
<polygon fill="none" stroke="#000000" points="804.5,-291.5 804.5,-310.5 941.5,-310.5 941.5,-291.5 804.5,-291.5"/>
<text text-anchor="middle" x="873" y="-298.5" font-family="FreeSans.ttf" font-size="10.00" fill="#000000">iDynTree/Core/Rotation.h</text>
</a>
</g>
</g>
<!-- Node28&#45;&gt;Node31 -->
<g id="edge59" class="edge">
<title>Node28&#45;&gt;Node31</title>
<path fill="none" stroke="#191970" d="M536.3755,-403.4509C602.7778,-383.2415 757.502,-336.1516 831.7752,-313.5467"/>
<polygon fill="#191970" stroke="#191970" points="833.1563,-316.7849 841.7039,-310.5249 831.1181,-310.0882 833.1563,-316.7849"/>
</g>
<!-- Node29&#45;&gt;Node16 -->
<g id="edge58" class="edge">
<title>Node29&#45;&gt;Node16</title>
<path fill="none" stroke="#191970" d="M1013.3525,-347.4427C1047.8387,-331.8913 1114.758,-298.4308 1160,-255 1181.5199,-234.3416 1188.0443,-227.4547 1197,-199 1202.8796,-180.3189 1202.6865,-157.8116 1201.4446,-141.9699"/>
<polygon fill="#191970" stroke="#191970" points="1204.9019,-141.366 1200.4268,-131.7627 1197.9364,-142.0606 1204.9019,-141.366"/>
</g>
<!-- Node30 -->
<g id="node31" class="node">
<title>Node30</title>
<g id="a_node31"><a xlink:href="PositionRaw_8h.html" target="_top" xlink:title="iDynTree/Core/PositionRaw.h">
<polygon fill="none" stroke="#000000" points="970,-235.5 970,-254.5 1126,-254.5 1126,-235.5 970,-235.5"/>
<text text-anchor="middle" x="1048" y="-242.5" font-family="FreeSans.ttf" font-size="10.00" fill="#000000">iDynTree/Core/PositionRaw.h</text>
</a>
</g>
</g>
<!-- Node29&#45;&gt;Node30 -->
<g id="edge48" class="edge">
<title>Node29&#45;&gt;Node30</title>
<path fill="none" stroke="#191970" d="M995.8598,-347.4509C1005.2826,-328.936 1026.1878,-287.8591 1038.4735,-263.7187"/>
<polygon fill="#191970" stroke="#191970" points="1041.7361,-265.0246 1043.1525,-254.5249 1035.4975,-261.8496 1041.7361,-265.0246"/>
</g>
<!-- Node29&#45;&gt;Node31 -->
<g id="edge51" class="edge">
<title>Node29&#45;&gt;Node31</title>
<path fill="none" stroke="#191970" d="M970.7151,-347.3733C951.8579,-338.4241 923.554,-324.9917 902.2545,-314.8835"/>
<polygon fill="#191970" stroke="#191970" points="903.5551,-311.6266 893.0202,-310.5011 900.5539,-317.9506 903.5551,-311.6266"/>
</g>
<!-- Node30&#45;&gt;Node16 -->
<g id="edge50" class="edge">
<title>Node30&#45;&gt;Node16</title>
<path fill="none" stroke="#191970" d="M1059.8487,-235.3484C1085.6501,-214.3314 1147.1543,-164.2319 1179.0496,-138.251"/>
<polygon fill="#191970" stroke="#191970" points="1181.6635,-140.636 1187.2063,-131.6068 1177.2426,-135.2087 1181.6635,-140.636"/>
</g>
<!-- Node30&#45;&gt;Node17 -->
<g id="edge49" class="edge">
<title>Node30&#45;&gt;Node17</title>
<path fill="none" stroke="#191970" d="M1004.2469,-235.4581C954.5415,-224.6181 873.4001,-206.9224 819.8499,-195.2439"/>
<polygon fill="#191970" stroke="#191970" points="820.3719,-191.7755 809.8557,-193.0643 818.8803,-198.6148 820.3719,-191.7755"/>
</g>
<!-- Node31&#45;&gt;Node16 -->
<g id="edge52" class="edge">
<title>Node31&#45;&gt;Node16</title>
<path fill="none" stroke="#191970" d="M941.5925,-296.0253C1008.7782,-289.9264 1105.2686,-277.5106 1135,-255 1172.3173,-226.7458 1188.9646,-171.0982 1195.4401,-141.5343"/>
<polygon fill="#191970" stroke="#191970" points="1198.899,-142.087 1197.4457,-131.5923 1192.0372,-140.7027 1198.899,-142.087"/>
</g>
<!-- Node31&#45;&gt;Node17 -->
<g id="edge57" class="edge">
<title>Node31&#45;&gt;Node17</title>
<path fill="none" stroke="#191970" d="M840.6333,-291.4248C821.815,-284.2709 799.1022,-272.6389 785,-255 773.2538,-240.3079 768.7289,-219.0256 767.0072,-203.5017"/>
<polygon fill="#191970" stroke="#191970" points="770.4842,-203.076 766.1858,-193.3923 763.5072,-203.6429 770.4842,-203.076"/>
</g>
<!-- Node31&#45;&gt;Node27 -->
<g id="edge53" class="edge">
<title>Node31&#45;&gt;Node27</title>
<path fill="none" stroke="#191970" d="M816.4752,-291.4369C758.756,-281.6717 669.2029,-266.5207 608.2034,-256.2006"/>
<polygon fill="#191970" stroke="#191970" points="608.7355,-252.7409 598.2917,-254.5237 607.5677,-259.6429 608.7355,-252.7409"/>
</g>
<!-- Node32 -->
<g id="node33" class="node">
<title>Node32</title>
<g id="a_node33"><a xlink:href="RotationRaw_8h.html" target="_top" xlink:title="iDynTree/Core/RotationRaw.h">
<polygon fill="none" stroke="#000000" points="794,-235.5 794,-254.5 952,-254.5 952,-235.5 794,-235.5"/>
<text text-anchor="middle" x="873" y="-242.5" font-family="FreeSans.ttf" font-size="10.00" fill="#000000">iDynTree/Core/RotationRaw.h</text>
</a>
</g>
</g>
<!-- Node31&#45;&gt;Node32 -->
<g id="edge54" class="edge">
<title>Node31&#45;&gt;Node32</title>
<path fill="none" stroke="#191970" d="M873,-291.2455C873,-283.9382 873,-273.6944 873,-264.7046"/>
<polygon fill="#191970" stroke="#191970" points="876.5001,-264.6426 873,-254.6427 869.5001,-264.6427 876.5001,-264.6426"/>
</g>
<!-- Node32&#45;&gt;Node16 -->
<g id="edge56" class="edge">
<title>Node32&#45;&gt;Node16</title>
<path fill="none" stroke="#191970" d="M912.9336,-235.4686C945.8618,-227.1642 993.56,-214.1047 1034,-199 1040.8426,-196.4442 1123.8335,-157.432 1169.4352,-135.9446"/>
<polygon fill="#191970" stroke="#191970" points="1171.0044,-139.0743 1178.5578,-131.6448 1168.0199,-132.7424 1171.0044,-139.0743"/>
</g>
<!-- Node32&#45;&gt;Node24 -->
<g id="edge55" class="edge">
<title>Node32&#45;&gt;Node24</title>
<path fill="none" stroke="#191970" d="M884.25,-235.3906C895.386,-225.8786 912.646,-211.1357 925.9268,-199.7917"/>
<polygon fill="#191970" stroke="#191970" points="928.2608,-202.4011 933.5914,-193.2449 923.7144,-197.0784 928.2608,-202.4011"/>
</g>
<!-- Node33&#45;&gt;Node17 -->
<g id="edge65" class="edge">
<title>Node33&#45;&gt;Node17</title>
<path fill="none" stroke="#191970" d="M427.8211,-459.2988C420.8133,-449.5503 412.6866,-436.2728 409,-423 390.6517,-356.9402 350.2871,-327.6898 451,-235 467.4237,-219.8846 587.9505,-203.3959 675.0344,-193.2499"/>
<polygon fill="#191970" stroke="#191970" points="675.6799,-196.6987 685.2126,-192.075 674.8772,-189.7449 675.6799,-196.6987"/>
</g>
<!-- Node33&#45;&gt;Node27 -->
<g id="edge66" class="edge">
<title>Node33&#45;&gt;Node27</title>
<path fill="none" stroke="#191970" d="M428.5992,-459.4286C419.0999,-444.954 408.1436,-422.4739 415,-403 436.4733,-342.0101 492.5381,-287.1823 522.4829,-261.0856"/>
<polygon fill="#191970" stroke="#191970" points="524.8555,-263.662 530.1858,-254.5056 520.3089,-258.3395 524.8555,-263.662"/>
</g>
<!-- Node33&#45;&gt;Node28 -->
<g id="edge67" class="edge">
<title>Node33&#45;&gt;Node28</title>
<path fill="none" stroke="#191970" d="M456.0674,-459.2977C465.466,-450.4052 477.3527,-439.1586 487.057,-429.9769"/>
<polygon fill="#191970" stroke="#191970" points="489.7342,-432.2621 494.5927,-422.8469 484.9232,-427.1774 489.7342,-432.2621"/>
</g>
<!-- Node34&#45;&gt;Node16 -->
<g id="edge72" class="edge">
<title>Node34&#45;&gt;Node16</title>
<path fill="none" stroke="#191970" d="M1040.842,-403.4801C1120.592,-386.8064 1268,-349.436 1268,-301 1268,-301 1268,-301 1268,-245 1268,-202.695 1236.5687,-161.4659 1216.1337,-139.1313"/>
<polygon fill="#191970" stroke="#191970" points="1218.5989,-136.6443 1209.1812,-131.7907 1213.5166,-141.4579 1218.5989,-136.6443"/>
</g>
<!-- Node34&#45;&gt;Node24 -->
<g id="edge71" class="edge">
<title>Node34&#45;&gt;Node24</title>
<path fill="none" stroke="#191970" d="M1009.5874,-403.4989C1058.7761,-377.1324 1185.2362,-300.6655 1135,-235 1120.9738,-216.6659 1068.8443,-203.3407 1022.7304,-194.8435"/>
<polygon fill="#191970" stroke="#191970" points="1023.1537,-191.3638 1012.6941,-193.0509 1021.9229,-198.2547 1023.1537,-191.3638"/>
</g>
<!-- Node34&#45;&gt;Node29 -->
<g id="edge69" class="edge">
<title>Node34&#45;&gt;Node29</title>
<path fill="none" stroke="#191970" d="M991,-403.2455C991,-395.9382 991,-385.6944 991,-376.7046"/>
<polygon fill="#191970" stroke="#191970" points="994.5001,-376.6426 991,-366.6427 987.5001,-376.6427 994.5001,-376.6426"/>
</g>
<!-- Node34&#45;&gt;Node31 -->
<g id="edge70" class="edge">
<title>Node34&#45;&gt;Node31</title>
<path fill="none" stroke="#191970" d="M980.9394,-403.4509C960.823,-384.3574 915.427,-341.2697 890.3906,-317.5063"/>
<polygon fill="#191970" stroke="#191970" points="892.6977,-314.8706 883.0351,-310.5249 887.8787,-319.9478 892.6977,-314.8706"/>
</g>
<!-- Node35&#45;&gt;Node16 -->
<g id="edge78" class="edge">
<title>Node35&#45;&gt;Node16</title>
<path fill="none" stroke="#191970" d="M1632.8432,-175.1715C1615.8208,-172.79 1597.1726,-170.2355 1580,-168 1451.0756,-151.2172 1297.325,-133.2925 1231.5047,-125.7181"/>
<polygon fill="#191970" stroke="#191970" points="1231.6832,-122.2156 1221.3491,-124.5513 1230.8842,-129.1699 1231.6832,-122.2156"/>
</g>
<!-- Node36 -->
<g id="node37" class="node">
<title>Node36</title>
<polygon fill="none" stroke="#bfbfbf" points="1713,-.5 1713,-19.5 1771,-19.5 1771,-.5 1713,-.5"/>
<text text-anchor="middle" x="1742" y="-7.5" font-family="FreeSans.ttf" font-size="10.00" fill="#000000">memory</text>
</g>
<!-- Node35&#45;&gt;Node36 -->
<g id="edge77" class="edge">
<title>Node35&#45;&gt;Node36</title>
<path fill="none" stroke="#191970" d="M1722.6421,-168.4839C1736.8158,-159.9409 1752.0935,-147.7673 1760,-132 1776.7854,-98.5265 1762.2328,-53.8449 1751.3281,-28.8951"/>
<polygon fill="#191970" stroke="#191970" points="1754.4916,-27.397 1747.1201,-19.787 1748.137,-30.333 1754.4916,-27.397"/>
</g>
<!-- Node37 -->
<g id="node38" class="node">
<title>Node37</title>
<g id="a_node38"><a xlink:href="Optimizer_8h.html" target="_top" xlink:title="iDynTree/Optimizer.h">
<polygon fill="none" stroke="#000000" points="1632.5,-112.5 1632.5,-131.5 1751.5,-131.5 1751.5,-112.5 1632.5,-112.5"/>
<text text-anchor="middle" x="1692" y="-119.5" font-family="FreeSans.ttf" font-size="10.00" fill="#000000">iDynTree/Optimizer.h</text>
</a>
</g>
</g>
<!-- Node35&#45;&gt;Node37 -->
<g id="edge79" class="edge">
<title>Node35&#45;&gt;Node37</title>
<path fill="none" stroke="#191970" d="M1691.2472,-168.2977C1691.3759,-160.3834 1691.5349,-150.6043 1691.6736,-142.0759"/>
<polygon fill="#191970" stroke="#191970" points="1695.1767,-141.9025 1691.8399,-131.8469 1688.1777,-141.7887 1695.1767,-141.9025"/>
</g>
<!-- Node37&#45;&gt;Node36 -->
<g id="edge80" class="edge">
<title>Node37&#45;&gt;Node36</title>
<path fill="none" stroke="#191970" d="M1699.5389,-112.2499C1706.2016,-103.2519 1715.7982,-89.3089 1722,-76 1728.9535,-61.0779 1734.2071,-43.1453 1737.581,-29.7409"/>
<polygon fill="#191970" stroke="#191970" points="1741.0574,-30.2506 1739.9689,-19.7118 1734.2478,-28.6292 1741.0574,-30.2506"/>
</g>
<!-- Node38 -->
<g id="node39" class="node">
<title>Node38</title>
<g id="a_node39"><a xlink:href="OptimizationProblem_8h.html" target="_top" xlink:title="iDynTree/OptimizationProblem.h">
<polygon fill="none" stroke="#000000" points="1538.5,-56.5 1538.5,-75.5 1713.5,-75.5 1713.5,-56.5 1538.5,-56.5"/>
<text text-anchor="middle" x="1626" y="-63.5" font-family="FreeSans.ttf" font-size="10.00" fill="#000000">iDynTree/OptimizationProblem.h</text>
</a>
</g>
</g>
<!-- Node37&#45;&gt;Node38 -->
<g id="edge81" class="edge">
<title>Node37&#45;&gt;Node38</title>
<path fill="none" stroke="#191970" d="M1680.5037,-112.2455C1670.7558,-103.9746 1656.5741,-91.9416 1645.1202,-82.2232"/>
<polygon fill="#191970" stroke="#191970" points="1647.2541,-79.4437 1637.3646,-75.6427 1642.7253,-84.7813 1647.2541,-79.4437"/>
</g>
<!-- Node38&#45;&gt;Node10 -->
<g id="edge84" class="edge">
<title>Node38&#45;&gt;Node10</title>
<path fill="none" stroke="#191970" d="M1577.5717,-56.4845C1536.4621,-48.1945 1475.7041,-35.4447 1414.5241,-20.2793"/>
<polygon fill="#191970" stroke="#191970" points="1415.2547,-16.8543 1404.7044,-17.825 1413.5572,-23.6454 1415.2547,-16.8543"/>
</g>
<!-- Node38&#45;&gt;Node36 -->
<g id="edge83" class="edge">
<title>Node38&#45;&gt;Node36</title>
<path fill="none" stroke="#191970" d="M1645.9411,-56.3733C1664.4786,-47.4241 1692.3028,-33.9917 1713.2413,-23.8835"/>
<polygon fill="#191970" stroke="#191970" points="1714.8352,-27.0006 1722.3191,-19.5011 1711.7919,-20.6967 1714.8352,-27.0006"/>
</g>
<!-- Node39 -->
<g id="node40" class="node">
<title>Node39</title>
<polygon fill="none" stroke="#bfbfbf" points="1643.5,-.5 1643.5,-19.5 1690.5,-19.5 1690.5,-.5 1643.5,-.5"/>
<text text-anchor="middle" x="1667" y="-7.5" font-family="FreeSans.ttf" font-size="10.00" fill="#000000">vector</text>
</g>
<!-- Node38&#45;&gt;Node39 -->
<g id="edge82" class="edge">
<title>Node38&#45;&gt;Node39</title>
<path fill="none" stroke="#191970" d="M1633.1417,-56.2455C1638.8444,-48.4564 1646.99,-37.3308 1653.8625,-27.9439"/>
<polygon fill="#191970" stroke="#191970" points="1656.8568,-29.7789 1659.9402,-19.6427 1651.2087,-25.6437 1656.8568,-29.7789"/>
</g>
</g>
</svg>
