<?xml version="1.0" encoding="UTF-8" standalone="no"?>
<!DOCTYPE svg PUBLIC "-//W3C//DTD SVG 1.1//EN"
 "http://www.w3.org/Graphics/SVG/1.1/DTD/svg11.dtd">
<!-- Generated by graphviz version 2.40.1 (20161225.0304)
 -->
<!-- Title: JetsVisualization.cpp Pages: 1 -->
<svg width="1802pt" height="778pt"
 viewBox="0.00 0.00 1801.74 778.00" xmlns="http://www.w3.org/2000/svg" xmlns:xlink="http://www.w3.org/1999/xlink">
<g id="graph0" class="graph" transform="scale(1 1) rotate(0) translate(4 774)">
<title>JetsVisualization.cpp</title>
<!-- Node0 -->
<g id="node1" class="node">
<title>Node0</title>
<polygon fill="#bfbfbf" stroke="#000000" points="1132.5,-750.5 1132.5,-769.5 1250.5,-769.5 1250.5,-750.5 1132.5,-750.5"/>
<text text-anchor="middle" x="1191.5" y="-757.5" font-family="FreeSans.ttf" font-size="10.00" fill="#000000">JetsVisualization.cpp</text>
</g>
<!-- Node1 -->
<g id="node2" class="node">
<title>Node1</title>
<g id="a_node2"><a xlink:href="JetsVisualization_8h.html" target="_top" xlink:title="JetsVisualization.h">
<polygon fill="none" stroke="#000000" points="1138,-638.5 1138,-657.5 1245,-657.5 1245,-638.5 1138,-638.5"/>
<text text-anchor="middle" x="1191.5" y="-645.5" font-family="FreeSans.ttf" font-size="10.00" fill="#000000">JetsVisualization.h</text>
</a>
</g>
</g>
<!-- Node0&#45;&gt;Node1 -->
<g id="edge1" class="edge">
<title>Node0&#45;&gt;Node1</title>
<path fill="none" stroke="#191970" d="M1191.5,-750.4509C1191.5,-732.184 1191.5,-691.9553 1191.5,-667.6976"/>
<polygon fill="#191970" stroke="#191970" points="1195.0001,-667.5249 1191.5,-657.5249 1188.0001,-667.5249 1195.0001,-667.5249"/>
</g>
<!-- Node10 -->
<g id="node11" class="node">
<title>Node10</title>
<polygon fill="none" stroke="#bfbfbf" points="299.5,-.5 299.5,-19.5 351.5,-19.5 351.5,-.5 299.5,-.5"/>
<text text-anchor="middle" x="325.5" y="-7.5" font-family="FreeSans.ttf" font-size="10.00" fill="#000000">cassert</text>
</g>
<!-- Node0&#45;&gt;Node10 -->
<g id="edge122" class="edge">
<title>Node0&#45;&gt;Node10</title>
<path fill="none" stroke="#191970" d="M1233.9008,-750.4558C1282.197,-736.7844 1354.5,-706.5413 1354.5,-648 1354.5,-648 1354.5,-648 1354.5,-592 1354.5,-561.3494 1355.315,-549.9038 1374.5,-526 1394.9276,-500.5481 1414.4761,-512.0893 1438.5,-490 1537.5458,-398.9303 1608.5,-374.0502 1608.5,-239.5 1608.5,-239.5 1608.5,-239.5 1608.5,-122 1608.5,-57.6489 570.6524,-18.4534 361.84,-11.2186"/>
<polygon fill="#191970" stroke="#191970" points="361.8242,-7.7161 351.7098,-10.8702 361.5836,-14.7119 361.8242,-7.7161"/>
</g>
<!-- Node43 -->
<g id="node36" class="node">
<title>Node43</title>
<g id="a_node36"><a xlink:href="ModelVisualization_8h.html" target="_top" xlink:title="ModelVisualization.h">
<polygon fill="none" stroke="#000000" points="590.5,-638.5 590.5,-657.5 708.5,-657.5 708.5,-638.5 590.5,-638.5"/>
<text text-anchor="middle" x="649.5" y="-645.5" font-family="FreeSans.ttf" font-size="10.00" fill="#000000">ModelVisualization.h</text>
</a>
</g>
</g>
<!-- Node0&#45;&gt;Node43 -->
<g id="edge77" class="edge">
<title>Node0&#45;&gt;Node43</title>
<path fill="none" stroke="#191970" d="M1132.2886,-751.1216C1077.4375,-742.6108 993.6838,-728.8879 921.5,-714 841.4703,-697.4938 749.2141,-674.1942 695.3267,-660.1485"/>
<polygon fill="#191970" stroke="#191970" points="695.9596,-656.6963 685.3994,-657.5524 694.1885,-663.4686 695.9596,-656.6963"/>
</g>
<!-- Node44 -->
<g id="node37" class="node">
<title>Node44</title>
<g id="a_node37"><a xlink:href="IrrlichtUtils_8h.html" target="_top" xlink:title="IrrlichtUtils.h">
<polygon fill="none" stroke="#000000" points="930.5,-694.5 930.5,-713.5 1010.5,-713.5 1010.5,-694.5 930.5,-694.5"/>
<text text-anchor="middle" x="970.5" y="-701.5" font-family="FreeSans.ttf" font-size="10.00" fill="#000000">IrrlichtUtils.h</text>
</a>
</g>
</g>
<!-- Node0&#45;&gt;Node44 -->
<g id="edge80" class="edge">
<title>Node0&#45;&gt;Node44</title>
<path fill="none" stroke="#191970" d="M1153.7599,-750.4369C1116.2552,-740.9335 1058.6201,-726.3291 1018.0176,-716.0407"/>
<polygon fill="#191970" stroke="#191970" points="1018.6379,-712.5873 1008.0845,-713.5237 1016.9184,-719.3728 1018.6379,-712.5873"/>
</g>
<!-- Node54 -->
<g id="node47" class="node">
<title>Node54</title>
<g id="a_node47"><a xlink:href="Model_8h.html" target="_top" xlink:title="iDynTree/Model/Model.h">
<polygon fill="none" stroke="#000000" points="1487,-638.5 1487,-657.5 1620,-657.5 1620,-638.5 1487,-638.5"/>
<text text-anchor="middle" x="1553.5" y="-645.5" font-family="FreeSans.ttf" font-size="10.00" fill="#000000">iDynTree/Model/Model.h</text>
</a>
</g>
</g>
<!-- Node0&#45;&gt;Node54 -->
<g id="edge107" class="edge">
<title>Node0&#45;&gt;Node54</title>
<path fill="none" stroke="#191970" d="M1232.5632,-750.4193C1268.623,-741.7472 1322.3738,-728.1913 1368.5,-714 1421.6789,-697.6388 1482.2197,-675.3233 1519.1366,-661.2895"/>
<polygon fill="#191970" stroke="#191970" points="1520.8033,-664.3996 1528.8969,-657.5626 1518.3062,-657.8601 1520.8033,-664.3996"/>
</g>
<!-- Node2 -->
<g id="node3" class="node">
<title>Node2</title>
<g id="a_node3"><a xlink:href="Visualizer_8h.html" target="_top" xlink:title="iDynTree/Visualizer.h">
<polygon fill="none" stroke="#000000" points="721,-582.5 721,-601.5 840,-601.5 840,-582.5 721,-582.5"/>
<text text-anchor="middle" x="780.5" y="-589.5" font-family="FreeSans.ttf" font-size="10.00" fill="#000000">iDynTree/Visualizer.h</text>
</a>
</g>
</g>
<!-- Node1&#45;&gt;Node2 -->
<g id="edge2" class="edge">
<title>Node1&#45;&gt;Node2</title>
<path fill="none" stroke="#191970" d="M1137.7461,-639.2327C1134.9584,-638.8085 1132.197,-638.3951 1129.5,-638 1032.8185,-623.8346 920.7682,-609.4201 850.2592,-600.5932"/>
<polygon fill="#191970" stroke="#191970" points="850.5212,-597.0988 840.1644,-599.3321 849.6534,-604.0448 850.5212,-597.0988"/>
</g>
<!-- Node42 -->
<g id="node35" class="node">
<title>Node42</title>
<polygon fill="none" stroke="#bfbfbf" points="629,-582.5 629,-601.5 686,-601.5 686,-582.5 629,-582.5"/>
<text text-anchor="middle" x="657.5" y="-589.5" font-family="FreeSans.ttf" font-size="10.00" fill="#000000">irrlicht.h</text>
</g>
<!-- Node1&#45;&gt;Node42 -->
<g id="edge76" class="edge">
<title>Node1&#45;&gt;Node42</title>
<path fill="none" stroke="#191970" d="M1137.7662,-639.0845C1134.9732,-638.699 1132.2052,-638.3345 1129.5,-638 944.883,-615.174 896.8802,-626.6655 712.5,-602 707.2829,-601.3021 701.8079,-600.4511 696.4183,-599.5431"/>
<polygon fill="#191970" stroke="#191970" points="696.7051,-596.0399 686.2496,-597.7523 695.4909,-602.9338 696.7051,-596.0399"/>
</g>
<!-- Node3 -->
<g id="node4" class="node">
<title>Node3</title>
<polygon fill="none" stroke="#bfbfbf" points="1108.5,-56.5 1108.5,-75.5 1152.5,-75.5 1152.5,-56.5 1108.5,-56.5"/>
<text text-anchor="middle" x="1130.5" y="-63.5" font-family="FreeSans.ttf" font-size="10.00" fill="#000000">string</text>
</g>
<!-- Node2&#45;&gt;Node3 -->
<g id="edge3" class="edge">
<title>Node2&#45;&gt;Node3</title>
<path fill="none" stroke="#191970" d="M778.5823,-582.2585C774.6105,-558.8882 768.3466,-499.4031 800.5,-470 881.2362,-396.1698 1190.5048,-476.0619 1291.5,-434 1333.3772,-416.5593 1341.5071,-403.459 1368.5,-367 1437.1707,-274.2474 1414.1101,-178.0882 1319.5,-112 1294.3409,-94.4255 1209.638,-78.6189 1162.6225,-70.9286"/>
<polygon fill="#191970" stroke="#191970" points="1163.0725,-67.4561 1152.6439,-69.3258 1161.9622,-74.3675 1163.0725,-67.4561"/>
</g>
<!-- Node4 -->
<g id="node5" class="node">
<title>Node4</title>
<g id="a_node5"><a xlink:href="Direction_8h.html" target="_top" xlink:title="iDynTree/Core/Direction.h">
<polygon fill="none" stroke="#000000" points="551,-168.5 551,-187.5 692,-187.5 692,-168.5 551,-168.5"/>
<text text-anchor="middle" x="621.5" y="-175.5" font-family="FreeSans.ttf" font-size="10.00" fill="#000000">iDynTree/Core/Direction.h</text>
</a>
</g>
</g>
<!-- Node2&#45;&gt;Node4 -->
<g id="edge4" class="edge">
<title>Node2&#45;&gt;Node4</title>
<path fill="none" stroke="#191970" d="M720.7643,-583.6305C657.3421,-574.1662 564.6829,-558.4536 553.5,-546 505.524,-492.5725 488.3616,-284.8412 526.5,-224 536.1819,-208.5548 552.6838,-198.1672 569.2437,-191.2389"/>
<polygon fill="#191970" stroke="#191970" points="570.8471,-194.3737 578.9495,-187.5472 568.3585,-187.831 570.8471,-194.3737"/>
</g>
<!-- Node20 -->
<g id="node14" class="node">
<title>Node20</title>
<g id="a_node14"><a xlink:href="Position_8h.html" target="_top" xlink:title="iDynTree/Core/Position.h">
<polygon fill="none" stroke="#000000" points="1107.5,-291.5 1107.5,-310.5 1243.5,-310.5 1243.5,-291.5 1107.5,-291.5"/>
<text text-anchor="middle" x="1175.5" y="-298.5" font-family="FreeSans.ttf" font-size="10.00" fill="#000000">iDynTree/Core/Position.h</text>
</a>
</g>
</g>
<!-- Node2&#45;&gt;Node20 -->
<g id="edge18" class="edge">
<title>Node2&#45;&gt;Node20</title>
<path fill="none" stroke="#191970" d="M775.2856,-582.48C763.8121,-560.1025 739.467,-503.524 766.5,-470 813.8882,-411.2333 861.7717,-460.3944 932.5,-434 938.2188,-431.8658 1087.7761,-349.4253 1149.3698,-315.4294"/>
<polygon fill="#191970" stroke="#191970" points="1151.0655,-318.4912 1158.1288,-310.5943 1147.6826,-312.363 1151.0655,-318.4912"/>
</g>
<!-- Node28 -->
<g id="node18" class="node">
<title>Node28</title>
<g id="a_node18"><a xlink:href="JointState_8h.html" target="_top" xlink:title="iDynTree/Model/JointState.h">
<polygon fill="none" stroke="#000000" points="563,-526.5 563,-545.5 714,-545.5 714,-526.5 563,-526.5"/>
<text text-anchor="middle" x="638.5" y="-533.5" font-family="FreeSans.ttf" font-size="10.00" fill="#000000">iDynTree/Model/JointState.h</text>
</a>
</g>
</g>
<!-- Node2&#45;&gt;Node28 -->
<g id="edge28" class="edge">
<title>Node2&#45;&gt;Node28</title>
<path fill="none" stroke="#191970" d="M756.0893,-582.3733C732.8858,-573.2226 697.7962,-559.3844 671.9858,-549.2057"/>
<polygon fill="#191970" stroke="#191970" points="673.1789,-545.9139 662.5921,-545.5011 670.6108,-552.4258 673.1789,-545.9139"/>
</g>
<!-- Node33 -->
<g id="node24" class="node">
<title>Node33</title>
<g id="a_node24"><a xlink:href="LinkState_8h.html" target="_top" xlink:title="iDynTree/Model/LinkState.h">
<polygon fill="none" stroke="#000000" points="951,-526.5 951,-545.5 1100,-545.5 1100,-526.5 951,-526.5"/>
<text text-anchor="middle" x="1025.5" y="-533.5" font-family="FreeSans.ttf" font-size="10.00" fill="#000000">iDynTree/Model/LinkState.h</text>
</a>
</g>
</g>
<!-- Node2&#45;&gt;Node33 -->
<g id="edge44" class="edge">
<title>Node2&#45;&gt;Node33</title>
<path fill="none" stroke="#191970" d="M822.3386,-582.4369C864.2685,-572.8529 928.8948,-558.0812 973.9624,-547.78"/>
<polygon fill="#191970" stroke="#191970" points="974.8653,-551.164 983.8339,-545.5237 973.3054,-544.34 974.8653,-551.164"/>
</g>
<!-- Node4&#45;&gt;Node3 -->
<g id="edge5" class="edge">
<title>Node4&#45;&gt;Node3</title>
<path fill="none" stroke="#191970" d="M627.302,-168.3195C636.8877,-153.3134 657.5747,-124.8315 683.5,-112 756.5665,-75.8364 1008.2721,-68.0612 1098.2251,-66.4253"/>
<polygon fill="#191970" stroke="#191970" points="1098.4306,-69.9224 1108.3703,-66.2547 1098.3128,-62.9234 1098.4306,-69.9224"/>
</g>
<!-- Node5 -->
<g id="node6" class="node">
<title>Node5</title>
<g id="a_node6"><a xlink:href="VectorFixSize_8h.html" target="_top" xlink:title="iDynTree/Core/VectorFixSize.h">
<polygon fill="none" stroke="#000000" points="692,-112.5 692,-131.5 853,-131.5 853,-112.5 692,-112.5"/>
<text text-anchor="middle" x="772.5" y="-119.5" font-family="FreeSans.ttf" font-size="10.00" fill="#000000">iDynTree/Core/VectorFixSize.h</text>
</a>
</g>
</g>
<!-- Node4&#45;&gt;Node5 -->
<g id="edge6" class="edge">
<title>Node4&#45;&gt;Node5</title>
<path fill="none" stroke="#191970" d="M647.4578,-168.3733C672.2407,-159.1822 709.7746,-145.2624 737.254,-135.0713"/>
<polygon fill="#191970" stroke="#191970" points="738.7219,-138.26 746.8809,-131.5011 736.2879,-131.6968 738.7219,-138.26"/>
</g>
<!-- Node6 -->
<g id="node7" class="node">
<title>Node6</title>
<g id="a_node7"><a xlink:href="Utils_8h.html" target="_top" xlink:title="iDynTree/Core/Utils.h">
<polygon fill="none" stroke="#000000" points="178,-56.5 178,-75.5 297,-75.5 297,-56.5 178,-56.5"/>
<text text-anchor="middle" x="237.5" y="-63.5" font-family="FreeSans.ttf" font-size="10.00" fill="#000000">iDynTree/Core/Utils.h</text>
</a>
</g>
</g>
<!-- Node4&#45;&gt;Node6 -->
<g id="edge17" class="edge">
<title>Node4&#45;&gt;Node6</title>
<path fill="none" stroke="#191970" d="M616.8618,-168.4414C609.1083,-153.6023 592.0172,-125.3451 568.5,-112 525.1471,-87.3989 390.8644,-75.0986 307.2524,-69.6697"/>
<polygon fill="#191970" stroke="#191970" points="307.2658,-66.1637 297.065,-69.0259 306.8243,-73.1498 307.2658,-66.1637"/>
</g>
<!-- Node5&#45;&gt;Node3 -->
<g id="edge13" class="edge">
<title>Node5&#45;&gt;Node3</title>
<path fill="none" stroke="#191970" d="M833.6356,-112.4369C910.3119,-100.4428 1038.9299,-80.3238 1098.4692,-71.0104"/>
<polygon fill="#191970" stroke="#191970" points="1099.0815,-74.4573 1108.4204,-69.4538 1097.9996,-67.5414 1099.0815,-74.4573"/>
</g>
<!-- Node5&#45;&gt;Node6 -->
<g id="edge7" class="edge">
<title>Node5&#45;&gt;Node6</title>
<path fill="none" stroke="#191970" d="M691.8258,-113.5556C587.2294,-102.6072 406.5156,-83.6913 307.4539,-73.3223"/>
<polygon fill="#191970" stroke="#191970" points="307.5605,-69.8144 297.2505,-72.2543 306.8318,-76.7764 307.5605,-69.8144"/>
</g>
<!-- Node9 -->
<g id="node10" class="node">
<title>Node9</title>
<g id="a_node10"><a xlink:href="Span_8h.html" target="_top" xlink:title="iDynTree/Core/Span.h">
<polygon fill="none" stroke="#ff0000" points="0,-56.5 0,-75.5 121,-75.5 121,-56.5 0,-56.5"/>
<text text-anchor="middle" x="60.5" y="-63.5" font-family="FreeSans.ttf" font-size="10.00" fill="#000000">iDynTree/Core/Span.h</text>
</a>
</g>
</g>
<!-- Node5&#45;&gt;Node9 -->
<g id="edge10" class="edge">
<title>Node5&#45;&gt;Node9</title>
<path fill="none" stroke="#191970" d="M691.8659,-116.2792C576.0239,-107.9648 355.8165,-91.8039 168.5,-76 156.4796,-74.9858 143.7121,-73.853 131.3241,-72.7245"/>
<polygon fill="#191970" stroke="#191970" points="131.3102,-69.2086 121.0322,-71.7802 130.6706,-76.1793 131.3102,-69.2086"/>
</g>
<!-- Node5&#45;&gt;Node10 -->
<g id="edge15" class="edge">
<title>Node5&#45;&gt;Node10</title>
<path fill="none" stroke="#191970" d="M744.5841,-112.4282C703.8216,-98.6813 625.4632,-73.1217 557.5,-56 488.9757,-38.7369 407.7378,-23.8959 361.8466,-16.0219"/>
<polygon fill="#191970" stroke="#191970" points="362.234,-12.5376 351.7886,-14.3108 361.06,-19.4384 362.234,-12.5376"/>
</g>
<!-- Node18 -->
<g id="node12" class="node">
<title>Node18</title>
<polygon fill="none" stroke="#bfbfbf" points="744.5,-56.5 744.5,-75.5 800.5,-75.5 800.5,-56.5 744.5,-56.5"/>
<text text-anchor="middle" x="772.5" y="-63.5" font-family="FreeSans.ttf" font-size="10.00" fill="#000000">sstream</text>
</g>
<!-- Node5&#45;&gt;Node18 -->
<g id="edge14" class="edge">
<title>Node5&#45;&gt;Node18</title>
<path fill="none" stroke="#191970" d="M772.5,-112.2455C772.5,-104.9382 772.5,-94.6944 772.5,-85.7046"/>
<polygon fill="#191970" stroke="#191970" points="776.0001,-85.6426 772.5,-75.6427 769.0001,-85.6427 776.0001,-85.6426"/>
</g>
<!-- Node19 -->
<g id="node13" class="node">
<title>Node19</title>
<polygon fill="none" stroke="#bfbfbf" points="498.5,-56.5 498.5,-75.5 548.5,-75.5 548.5,-56.5 498.5,-56.5"/>
<text text-anchor="middle" x="523.5" y="-63.5" font-family="FreeSans.ttf" font-size="10.00" fill="#000000">cstring</text>
</g>
<!-- Node5&#45;&gt;Node19 -->
<g id="edge16" class="edge">
<title>Node5&#45;&gt;Node19</title>
<path fill="none" stroke="#191970" d="M729.9783,-112.4369C681.6545,-101.5689 603.6689,-84.0299 558.643,-73.9036"/>
<polygon fill="#191970" stroke="#191970" points="559.275,-70.4584 548.7507,-71.6789 557.739,-77.2878 559.275,-70.4584"/>
</g>
<!-- Node7 -->
<g id="node8" class="node">
<title>Node7</title>
<polygon fill="none" stroke="#bfbfbf" points="80,-.5 80,-19.5 133,-19.5 133,-.5 80,-.5"/>
<text text-anchor="middle" x="106.5" y="-7.5" font-family="FreeSans.ttf" font-size="10.00" fill="#000000">cstddef</text>
</g>
<!-- Node6&#45;&gt;Node7 -->
<g id="edge8" class="edge">
<title>Node6&#45;&gt;Node7</title>
<path fill="none" stroke="#191970" d="M214.9803,-56.3733C193.7628,-47.3032 161.7724,-33.6279 138.0231,-23.4755"/>
<polygon fill="#191970" stroke="#191970" points="139.2967,-20.2136 128.7258,-19.5011 136.5452,-26.6502 139.2967,-20.2136"/>
</g>
<!-- Node8 -->
<g id="node9" class="node">
<title>Node8</title>
<polygon fill="none" stroke="#bfbfbf" points="197.5,-.5 197.5,-19.5 277.5,-19.5 277.5,-.5 197.5,-.5"/>
<text text-anchor="middle" x="237.5" y="-7.5" font-family="FreeSans.ttf" font-size="10.00" fill="#000000">CoreExport.h</text>
</g>
<!-- Node6&#45;&gt;Node8 -->
<g id="edge9" class="edge">
<title>Node6&#45;&gt;Node8</title>
<path fill="none" stroke="#191970" d="M237.5,-56.2455C237.5,-48.9382 237.5,-38.6944 237.5,-29.7046"/>
<polygon fill="#191970" stroke="#191970" points="241.0001,-29.6426 237.5,-19.6427 234.0001,-29.6427 241.0001,-29.6426"/>
</g>
<!-- Node9&#45;&gt;Node7 -->
<g id="edge12" class="edge">
<title>Node9&#45;&gt;Node7</title>
<path fill="none" stroke="#191970" d="M68.5126,-56.2455C74.9768,-48.3761 84.2385,-37.101 91.9983,-27.6542"/>
<polygon fill="#191970" stroke="#191970" points="94.9364,-29.5916 98.5792,-19.6427 89.5273,-25.1484 94.9364,-29.5916"/>
</g>
<!-- Node9&#45;&gt;Node10 -->
<g id="edge11" class="edge">
<title>Node9&#45;&gt;Node10</title>
<path fill="none" stroke="#191970" d="M110.9227,-56.4892C156.8268,-47.6523 226.4041,-33.8114 286.5,-20 287.3941,-19.7945 288.2991,-19.5838 289.2114,-19.369"/>
<polygon fill="#191970" stroke="#191970" points="290.2231,-22.725 299.1106,-16.9576 288.5663,-15.9238 290.2231,-22.725"/>
</g>
<!-- Node20&#45;&gt;Node3 -->
<g id="edge27" class="edge">
<title>Node20&#45;&gt;Node3</title>
<path fill="none" stroke="#191970" d="M1203.4243,-291.4761C1255.2604,-272.1833 1358.0886,-225.4019 1323.5,-168 1288.3867,-109.7273 1207.6144,-83.0237 1162.485,-72.2691"/>
<polygon fill="#191970" stroke="#191970" points="1163.1521,-68.8316 1152.6262,-70.0388 1161.6075,-75.6591 1163.1521,-68.8316"/>
</g>
<!-- Node21 -->
<g id="node15" class="node">
<title>Node21</title>
<g id="a_node15"><a xlink:href="PositionRaw_8h.html" target="_top" xlink:title="iDynTree/Core/PositionRaw.h">
<polygon fill="none" stroke="#000000" points="1158.5,-168.5 1158.5,-187.5 1314.5,-187.5 1314.5,-168.5 1158.5,-168.5"/>
<text text-anchor="middle" x="1236.5" y="-175.5" font-family="FreeSans.ttf" font-size="10.00" fill="#000000">iDynTree/Core/PositionRaw.h</text>
</a>
</g>
</g>
<!-- Node20&#45;&gt;Node21 -->
<g id="edge19" class="edge">
<title>Node20&#45;&gt;Node21</title>
<path fill="none" stroke="#191970" d="M1180.2866,-291.3484C1190.3979,-270.9601 1214.0821,-223.2033 1227.2528,-196.6459"/>
<polygon fill="#191970" stroke="#191970" points="1230.4282,-198.1206 1231.7357,-187.6068 1224.1571,-195.0105 1230.4282,-198.1206"/>
</g>
<!-- Node22 -->
<g id="node16" class="node">
<title>Node22</title>
<g id="a_node16"><a xlink:href="Rotation_8h.html" target="_top" xlink:title="iDynTree/Core/Rotation.h">
<polygon fill="none" stroke="#ff0000" points="1017,-230 1017,-249 1154,-249 1154,-230 1017,-230"/>
<text text-anchor="middle" x="1085.5" y="-237" font-family="FreeSans.ttf" font-size="10.00" fill="#000000">iDynTree/Core/Rotation.h</text>
</a>
</g>
</g>
<!-- Node20&#45;&gt;Node22 -->
<g id="edge22" class="edge">
<title>Node20&#45;&gt;Node22</title>
<path fill="none" stroke="#191970" d="M1161.4375,-291.3906C1147.1714,-281.6421 1124.865,-266.3994 1108.1128,-254.9521"/>
<polygon fill="#191970" stroke="#191970" points="1109.6949,-251.7941 1099.4638,-249.0419 1105.7455,-257.5736 1109.6949,-251.7941"/>
</g>
<!-- Node21&#45;&gt;Node3 -->
<g id="edge21" class="edge">
<title>Node21&#45;&gt;Node3</title>
<path fill="none" stroke="#191970" d="M1227.4625,-168.4509C1209.4701,-149.4401 1168.9651,-106.6423 1146.4152,-82.816"/>
<polygon fill="#191970" stroke="#191970" points="1148.9305,-80.382 1139.5146,-75.5249 1143.8465,-85.1937 1148.9305,-80.382"/>
</g>
<!-- Node21&#45;&gt;Node5 -->
<g id="edge20" class="edge">
<title>Node21&#45;&gt;Node5</title>
<path fill="none" stroke="#191970" d="M1158.3134,-168.5637C1076.2048,-158.654 947.3138,-143.0982 861.3936,-132.7285"/>
<polygon fill="#191970" stroke="#191970" points="861.7429,-129.2454 851.3955,-131.5219 860.9041,-136.1949 861.7429,-129.2454"/>
</g>
<!-- Node22&#45;&gt;Node3 -->
<g id="edge23" class="edge">
<title>Node22&#45;&gt;Node3</title>
<path fill="none" stroke="#191970" d="M1087.9835,-229.9248C1095.0968,-202.499 1115.656,-123.232 1125.3395,-85.8964"/>
<polygon fill="#191970" stroke="#191970" points="1128.846,-86.318 1127.9687,-75.7595 1122.0701,-84.5605 1128.846,-86.318"/>
</g>
<!-- Node22&#45;&gt;Node5 -->
<g id="edge26" class="edge">
<title>Node22&#45;&gt;Node5</title>
<path fill="none" stroke="#191970" d="M1087.1008,-229.5717C1088.9781,-214.0811 1089.9958,-184.2562 1073.5,-168 1058.5523,-153.2695 946.3349,-139.1143 863.2704,-130.4885"/>
<polygon fill="#191970" stroke="#191970" points="863.5988,-127.0039 853.2936,-129.4643 862.8839,-133.9673 863.5988,-127.0039"/>
</g>
<!-- Node23 -->
<g id="node17" class="node">
<title>Node23</title>
<g id="a_node17"><a xlink:href="GeomVector3_8h.html" target="_top" xlink:title="iDynTree/Core/GeomVector3.h">
<polygon fill="none" stroke="#000000" points="901,-168.5 901,-187.5 1064,-187.5 1064,-168.5 901,-168.5"/>
<text text-anchor="middle" x="982.5" y="-175.5" font-family="FreeSans.ttf" font-size="10.00" fill="#000000">iDynTree/Core/GeomVector3.h</text>
</a>
</g>
</g>
<!-- Node22&#45;&gt;Node23 -->
<g id="edge24" class="edge">
<title>Node22&#45;&gt;Node23</title>
<path fill="none" stroke="#191970" d="M1069.4063,-229.8906C1052.7772,-219.9616 1026.6024,-204.333 1007.3206,-192.8201"/>
<polygon fill="#191970" stroke="#191970" points="1008.861,-189.6634 998.4807,-187.5419 1005.2724,-195.6736 1008.861,-189.6634"/>
</g>
<!-- Node23&#45;&gt;Node5 -->
<g id="edge25" class="edge">
<title>Node23&#45;&gt;Node5</title>
<path fill="none" stroke="#191970" d="M946.3997,-168.3733C910.8752,-158.9001 856.512,-144.4032 818.0381,-134.1435"/>
<polygon fill="#191970" stroke="#191970" points="818.6934,-130.696 808.1292,-131.5011 816.8897,-137.4596 818.6934,-130.696"/>
</g>
<!-- Node28&#45;&gt;Node5 -->
<g id="edge29" class="edge">
<title>Node28&#45;&gt;Node5</title>
<path fill="none" stroke="#191970" d="M633.6286,-526.2187C624.2273,-506.41 604.5,-459.9105 604.5,-418.5 604.5,-418.5 604.5,-418.5 604.5,-301 604.5,-265.6422 600.5066,-249.971 624.5,-224 657.6919,-188.0724 689.7997,-217.9129 728.5,-188 744.6122,-175.5463 756.7917,-155.4582 764.2057,-140.7108"/>
<polygon fill="#191970" stroke="#191970" points="767.4446,-142.0491 768.5669,-131.5139 761.1197,-139.0498 767.4446,-142.0491"/>
</g>
<!-- Node29 -->
<g id="node19" class="node">
<title>Node29</title>
<g id="a_node19"><a xlink:href="VectorDynSize_8h.html" target="_top" xlink:title="iDynTree/Core/VectorDynSize.h">
<polygon fill="none" stroke="#000000" points="187,-291.5 187,-310.5 354,-310.5 354,-291.5 187,-291.5"/>
<text text-anchor="middle" x="270.5" y="-298.5" font-family="FreeSans.ttf" font-size="10.00" fill="#000000">iDynTree/Core/VectorDynSize.h</text>
</a>
</g>
</g>
<!-- Node28&#45;&gt;Node29 -->
<g id="edge30" class="edge">
<title>Node28&#45;&gt;Node29</title>
<path fill="none" stroke="#191970" d="M628.4601,-526.4258C597.3164,-496.7494 503.9813,-407.9909 496.5,-403 435.6146,-362.3818 355.9143,-330.7246 309.2482,-314.0423"/>
<polygon fill="#191970" stroke="#191970" points="310.1246,-310.6402 299.5298,-310.6143 307.7961,-317.2415 310.1246,-310.6402"/>
</g>
<!-- Node30 -->
<g id="node20" class="node">
<title>Node30</title>
<g id="a_node20"><a xlink:href="SpatialForceVector_8h.html" target="_top" xlink:title="iDynTree/Core/SpatialForce\lVector.h">
<polygon fill="none" stroke="#000000" points="775.5,-403.5 775.5,-433.5 923.5,-433.5 923.5,-403.5 775.5,-403.5"/>
<text text-anchor="start" x="783.5" y="-421.5" font-family="FreeSans.ttf" font-size="10.00" fill="#000000">iDynTree/Core/SpatialForce</text>
<text text-anchor="middle" x="849.5" y="-410.5" font-family="FreeSans.ttf" font-size="10.00" fill="#000000">Vector.h</text>
</a>
</g>
</g>
<!-- Node28&#45;&gt;Node30 -->
<g id="edge33" class="edge">
<title>Node28&#45;&gt;Node30</title>
<path fill="none" stroke="#191970" d="M649.8483,-526.3364C666.367,-512.5908 698.3595,-487.1603 728.5,-470 750.5355,-457.4543 776.2258,-446.1009 798.2522,-437.2667"/>
<polygon fill="#191970" stroke="#191970" points="799.7476,-440.4394 807.7663,-433.5146 797.1795,-433.9275 799.7476,-440.4394"/>
</g>
<!-- Node32 -->
<g id="node23" class="node">
<title>Node32</title>
<polygon fill="none" stroke="#bfbfbf" points="809,-470.5 809,-489.5 856,-489.5 856,-470.5 809,-470.5"/>
<text text-anchor="middle" x="832.5" y="-477.5" font-family="FreeSans.ttf" font-size="10.00" fill="#000000">vector</text>
</g>
<!-- Node28&#45;&gt;Node32 -->
<g id="edge43" class="edge">
<title>Node28&#45;&gt;Node32</title>
<path fill="none" stroke="#191970" d="M671.8498,-526.3733C707.3464,-516.1268 763.2034,-500.0031 798.8241,-489.7209"/>
<polygon fill="#191970" stroke="#191970" points="800.1051,-492.9941 808.7421,-486.8579 798.1637,-486.2687 800.1051,-492.9941"/>
</g>
<!-- Node29&#45;&gt;Node3 -->
<g id="edge32" class="edge">
<title>Node29&#45;&gt;Node3</title>
<path fill="none" stroke="#191970" d="M285.0264,-291.3673C334.2422,-259.2868 500.17,-155.6388 653.5,-112 737.5912,-88.0671 1005.1276,-72.4259 1098.2068,-67.5934"/>
<polygon fill="#191970" stroke="#191970" points="1098.6124,-71.0773 1108.4202,-67.0703 1098.2543,-64.0864 1098.6124,-71.0773"/>
</g>
<!-- Node29&#45;&gt;Node9 -->
<g id="edge31" class="edge">
<title>Node29&#45;&gt;Node9</title>
<path fill="none" stroke="#191970" d="M246.2269,-291.4641C205.4254,-274.6772 121.7506,-236.9409 62.5,-188 32.0587,-162.8556 1.7966,-148.6432 16.5,-112 21.1633,-100.3782 30.3188,-90.0324 39.0762,-82.1099"/>
<polygon fill="#191970" stroke="#191970" points="41.4727,-84.6675 46.8664,-75.5484 36.9632,-79.3136 41.4727,-84.6675"/>
</g>
<!-- Node30&#45;&gt;Node5 -->
<g id="edge34" class="edge">
<title>Node30&#45;&gt;Node5</title>
<path fill="none" stroke="#191970" d="M845.5757,-403.3889C832.7309,-353.9281 791.9468,-196.8829 777.5733,-141.5355"/>
<polygon fill="#191970" stroke="#191970" points="780.8977,-140.4119 774.9964,-131.6127 774.1224,-142.1715 780.8977,-140.4119"/>
</g>
<!-- Node30&#45;&gt;Node23 -->
<g id="edge35" class="edge">
<title>Node30&#45;&gt;Node23</title>
<path fill="none" stroke="#191970" d="M853.9682,-403.3232C858.5514,-388.577 866.2987,-365.7314 875.5,-347 903.9448,-289.0937 947.4561,-226.2293 969.1857,-196.0996"/>
<polygon fill="#191970" stroke="#191970" points="972.1399,-197.9882 975.1892,-187.8416 966.478,-193.8719 972.1399,-197.9882"/>
</g>
<!-- Node31 -->
<g id="node21" class="node">
<title>Node31</title>
<g id="a_node21"><a xlink:href="SpatialVector_8h.html" target="_top" xlink:title="iDynTree/Core/SpatialVector.h">
<polygon fill="none" stroke="#000000" points="884,-347.5 884,-366.5 1045,-366.5 1045,-347.5 884,-347.5"/>
<text text-anchor="middle" x="964.5" y="-354.5" font-family="FreeSans.ttf" font-size="10.00" fill="#000000">iDynTree/Core/SpatialVector.h</text>
</a>
</g>
</g>
<!-- Node30&#45;&gt;Node31 -->
<g id="edge36" class="edge">
<title>Node30&#45;&gt;Node31</title>
<path fill="none" stroke="#191970" d="M877.6322,-403.4554C895.9786,-393.644 919.7777,-380.9167 937.8251,-371.2653"/>
<polygon fill="#191970" stroke="#191970" points="939.5114,-374.3326 946.6791,-366.5303 936.2103,-368.1598 939.5114,-374.3326"/>
</g>
<!-- Node31&#45;&gt;Node6 -->
<g id="edge39" class="edge">
<title>Node31&#45;&gt;Node6</title>
<path fill="none" stroke="#191970" d="M889.986,-347.4953C732.7732,-326.0443 374.3027,-269.3263 285.5,-188 255.6848,-160.695 244.1356,-112.5472 239.8586,-85.6254"/>
<polygon fill="#191970" stroke="#191970" points="243.2948,-84.9261 238.4387,-75.5097 236.3628,-85.8991 243.2948,-84.9261"/>
</g>
<!-- Node31&#45;&gt;Node18 -->
<g id="edge42" class="edge">
<title>Node31&#45;&gt;Node18</title>
<path fill="none" stroke="#191970" d="M960.1871,-347.1335C948.8631,-321.1736 917.4382,-248.7804 892.5,-188 878.7155,-154.4038 886.9091,-138.887 862.5,-112 848.4678,-96.5433 828.0407,-85.5182 810.193,-78.144"/>
<polygon fill="#191970" stroke="#191970" points="811.1887,-74.7761 800.5999,-74.4179 808.6542,-81.3012 811.1887,-74.7761"/>
</g>
<!-- Node31&#45;&gt;Node20 -->
<g id="edge37" class="edge">
<title>Node31&#45;&gt;Node20</title>
<path fill="none" stroke="#191970" d="M1000.7722,-347.3733C1036.4658,-337.9001 1091.0879,-323.4032 1129.7451,-313.1435"/>
<polygon fill="#191970" stroke="#191970" points="1130.9336,-316.4493 1139.7011,-310.5011 1129.1379,-309.6835 1130.9336,-316.4493"/>
</g>
<!-- Node31&#45;&gt;Node22 -->
<g id="edge38" class="edge">
<title>Node31&#45;&gt;Node22</title>
<path fill="none" stroke="#191970" d="M974.4019,-347.3845C994.9645,-327.4167 1042.5135,-281.243 1068.2339,-256.2667"/>
<polygon fill="#191970" stroke="#191970" points="1070.7255,-258.7259 1075.4612,-249.2484 1065.8488,-253.704 1070.7255,-258.7259"/>
</g>
<!-- Node31&#45;&gt;Node23 -->
<g id="edge40" class="edge">
<title>Node31&#45;&gt;Node23</title>
<path fill="none" stroke="#191970" d="M965.4678,-347.3762C968.3001,-319.2097 976.616,-236.5126 980.4817,-198.0713"/>
<polygon fill="#191970" stroke="#191970" points="984.0093,-197.9714 981.5275,-187.6714 977.0444,-197.271 984.0093,-197.9714"/>
</g>
<!-- Node27 -->
<g id="node22" class="node">
<title>Node27</title>
<polygon fill="none" stroke="#bfbfbf" points="499.5,-112.5 499.5,-131.5 559.5,-131.5 559.5,-112.5 499.5,-112.5"/>
<text text-anchor="middle" x="529.5" y="-119.5" font-family="FreeSans.ttf" font-size="10.00" fill="#000000">iostream</text>
</g>
<!-- Node31&#45;&gt;Node27 -->
<g id="edge41" class="edge">
<title>Node31&#45;&gt;Node27</title>
<path fill="none" stroke="#191970" d="M936.192,-347.3848C915.2511,-339.4904 886.6434,-327.0138 864.5,-311 821.6906,-280.0409 830.2533,-248.6016 783.5,-224 687.2702,-173.3639 619.6172,-263.6433 541.5,-188 529.3659,-176.2502 527.129,-156.6306 527.4697,-141.8293"/>
<polygon fill="#191970" stroke="#191970" points="530.9746,-141.8606 528.1114,-131.66 523.9885,-141.4197 530.9746,-141.8606"/>
</g>
<!-- Node33&#45;&gt;Node32 -->
<g id="edge75" class="edge">
<title>Node33&#45;&gt;Node32</title>
<path fill="none" stroke="#191970" d="M992.3221,-526.3733C957.0085,-516.1268 901.4394,-500.0031 866.0023,-489.7209"/>
<polygon fill="#191970" stroke="#191970" points="866.7146,-486.2833 856.1354,-486.8579 864.764,-493.006 866.7146,-486.2833"/>
</g>
<!-- Node34 -->
<g id="node25" class="node">
<title>Node34</title>
<g id="a_node25"><a xlink:href="Transform_8h.html" target="_top" xlink:title="iDynTree/Core/Transform.h">
<polygon fill="none" stroke="#000000" points="1101.5,-347.5 1101.5,-366.5 1247.5,-366.5 1247.5,-347.5 1101.5,-347.5"/>
<text text-anchor="middle" x="1174.5" y="-354.5" font-family="FreeSans.ttf" font-size="10.00" fill="#000000">iDynTree/Core/Transform.h</text>
</a>
</g>
</g>
<!-- Node33&#45;&gt;Node34 -->
<g id="edge45" class="edge">
<title>Node33&#45;&gt;Node34</title>
<path fill="none" stroke="#191970" d="M1031.7309,-526.3823C1049.1708,-499.5819 1098.5021,-424.6099 1118.5,-403 1128.7493,-391.9245 1141.6867,-381.13 1152.5438,-372.7842"/>
<polygon fill="#191970" stroke="#191970" points="1154.8133,-375.4571 1160.7139,-366.6575 1150.6136,-369.8569 1154.8133,-375.4571"/>
</g>
<!-- Node35 -->
<g id="node28" class="node">
<title>Node35</title>
<g id="a_node28"><a xlink:href="Twist_8h.html" target="_top" xlink:title="iDynTree/Core/Twist.h">
<polygon fill="none" stroke="#000000" points="1102.5,-470.5 1102.5,-489.5 1224.5,-489.5 1224.5,-470.5 1102.5,-470.5"/>
<text text-anchor="middle" x="1163.5" y="-477.5" font-family="FreeSans.ttf" font-size="10.00" fill="#000000">iDynTree/Core/Twist.h</text>
</a>
</g>
</g>
<!-- Node33&#45;&gt;Node35 -->
<g id="edge60" class="edge">
<title>Node33&#45;&gt;Node35</title>
<path fill="none" stroke="#191970" d="M1049.223,-526.3733C1071.6737,-517.2629 1105.5739,-503.5062 1130.6255,-493.3404"/>
<polygon fill="#191970" stroke="#191970" points="1132.1365,-496.5045 1140.0865,-489.5011 1129.5043,-490.0182 1132.1365,-496.5045"/>
</g>
<!-- Node37 -->
<g id="node30" class="node">
<title>Node37</title>
<g id="a_node30"><a xlink:href="SpatialAcc_8h.html" target="_top" xlink:title="iDynTree/Core/SpatialAcc.h">
<polygon fill="none" stroke="#000000" points="1242.5,-470.5 1242.5,-489.5 1390.5,-489.5 1390.5,-470.5 1242.5,-470.5"/>
<text text-anchor="middle" x="1316.5" y="-477.5" font-family="FreeSans.ttf" font-size="10.00" fill="#000000">iDynTree/Core/SpatialAcc.h</text>
</a>
</g>
</g>
<!-- Node33&#45;&gt;Node37 -->
<g id="edge65" class="edge">
<title>Node33&#45;&gt;Node37</title>
<path fill="none" stroke="#191970" d="M1075.194,-526.4369C1125.5196,-516.7522 1203.3723,-501.7703 1256.9651,-491.4569"/>
<polygon fill="#191970" stroke="#191970" points="1257.8525,-494.8504 1267.0109,-489.5237 1256.5297,-487.9765 1257.8525,-494.8504"/>
</g>
<!-- Node38 -->
<g id="node31" class="node">
<title>Node38</title>
<g id="a_node31"><a xlink:href="Wrench_8h.html" target="_top" xlink:title="iDynTree/Core/Wrench.h">
<polygon fill="none" stroke="#000000" points="913,-470.5 913,-489.5 1046,-489.5 1046,-470.5 913,-470.5"/>
<text text-anchor="middle" x="979.5" y="-477.5" font-family="FreeSans.ttf" font-size="10.00" fill="#000000">iDynTree/Core/Wrench.h</text>
</a>
</g>
</g>
<!-- Node33&#45;&gt;Node38 -->
<g id="edge67" class="edge">
<title>Node33&#45;&gt;Node38</title>
<path fill="none" stroke="#191970" d="M1017.4874,-526.2455C1011.0232,-518.3761 1001.7615,-507.101 994.0017,-497.6542"/>
<polygon fill="#191970" stroke="#191970" points="996.4727,-495.1484 987.4208,-489.6427 991.0636,-499.5916 996.4727,-495.1484"/>
</g>
<!-- Node39 -->
<g id="node32" class="node">
<title>Node39</title>
<g id="a_node32"><a xlink:href="ArticulatedBodyInertia_8h.html" target="_top" xlink:title="iDynTree/Core/Articulated\lBodyInertia.h">
<polygon fill="none" stroke="#000000" points="633,-224.5 633,-254.5 774,-254.5 774,-224.5 633,-224.5"/>
<text text-anchor="start" x="641" y="-242.5" font-family="FreeSans.ttf" font-size="10.00" fill="#000000">iDynTree/Core/Articulated</text>
<text text-anchor="middle" x="703.5" y="-231.5" font-family="FreeSans.ttf" font-size="10.00" fill="#000000">BodyInertia.h</text>
</a>
</g>
</g>
<!-- Node33&#45;&gt;Node39 -->
<g id="edge69" class="edge">
<title>Node33&#45;&gt;Node39</title>
<path fill="none" stroke="#191970" d="M997.7563,-526.4399C973.0008,-517.6771 935.9164,-503.9759 904.5,-490 886.702,-482.0824 883.355,-477.7882 865.5,-470 822.586,-451.2813 799.0126,-467.6887 766.5,-434 720.7784,-386.6245 708.2387,-305.7875 704.7996,-264.8534"/>
<polygon fill="#191970" stroke="#191970" points="708.2746,-264.3796 704.0646,-254.6571 701.2927,-264.8829 708.2746,-264.3796"/>
</g>
<!-- Node40 -->
<g id="node33" class="node">
<title>Node40</title>
<g id="a_node33"><a xlink:href="Indices_8h.html" target="_top" xlink:title="iDynTree/Model/Indices.h">
<polygon fill="none" stroke="#000000" points="1560.5,-470.5 1560.5,-489.5 1698.5,-489.5 1698.5,-470.5 1560.5,-470.5"/>
<text text-anchor="middle" x="1629.5" y="-477.5" font-family="FreeSans.ttf" font-size="10.00" fill="#000000">iDynTree/Model/Indices.h</text>
</a>
</g>
</g>
<!-- Node33&#45;&gt;Node40 -->
<g id="edge72" class="edge">
<title>Node33&#45;&gt;Node40</title>
<path fill="none" stroke="#191970" d="M1100.168,-529.0771C1214.7159,-518.4568 1432.8328,-498.234 1550.1386,-487.358"/>
<polygon fill="#191970" stroke="#191970" points="1550.4994,-490.8397 1560.1335,-486.4313 1549.8531,-483.8696 1550.4994,-490.8397"/>
</g>
<!-- Node34&#45;&gt;Node3 -->
<g id="edge59" class="edge">
<title>Node34&#45;&gt;Node3</title>
<path fill="none" stroke="#191970" d="M1195.3379,-347.4829C1246.4283,-322.6516 1371.5611,-251.9661 1340.5,-168 1314.254,-97.0504 1214.6546,-75.3379 1162.612,-68.7806"/>
<polygon fill="#191970" stroke="#191970" points="1162.906,-65.2915 1152.5725,-67.63 1162.1089,-72.246 1162.906,-65.2915"/>
</g>
<!-- Node34&#45;&gt;Node20 -->
<g id="edge46" class="edge">
<title>Node34&#45;&gt;Node20</title>
<path fill="none" stroke="#191970" d="M1174.6742,-347.2455C1174.8047,-339.9382 1174.9876,-329.6944 1175.1481,-320.7046"/>
<polygon fill="#191970" stroke="#191970" points="1178.6486,-320.7036 1175.3278,-310.6427 1171.6497,-320.5786 1178.6486,-320.7036"/>
</g>
<!-- Node34&#45;&gt;Node22 -->
<g id="edge47" class="edge">
<title>Node34&#45;&gt;Node22</title>
<path fill="none" stroke="#191970" d="M1147.5301,-347.3769C1130.8002,-340.0014 1110.3112,-328.1469 1098.5,-311 1088.12,-295.9309 1085.3288,-274.9877 1084.8592,-259.6626"/>
<polygon fill="#191970" stroke="#191970" points="1088.3594,-259.231 1084.8655,-249.2288 1081.3594,-259.2267 1088.3594,-259.231"/>
</g>
<!-- Node25 -->
<g id="node26" class="node">
<title>Node25</title>
<g id="a_node26"><a xlink:href="MatrixFixSize_8h.html" target="_top" xlink:title="iDynTree/Core/MatrixFixSize.h">
<polygon fill="none" stroke="#000000" points="295,-168.5 295,-187.5 456,-187.5 456,-168.5 295,-168.5"/>
<text text-anchor="middle" x="375.5" y="-175.5" font-family="FreeSans.ttf" font-size="10.00" fill="#000000">iDynTree/Core/MatrixFixSize.h</text>
</a>
</g>
</g>
<!-- Node34&#45;&gt;Node25 -->
<g id="edge48" class="edge">
<title>Node34&#45;&gt;Node25</title>
<path fill="none" stroke="#191970" d="M1109.6265,-347.4805C1006.2239,-331.7457 797.9987,-297.7598 624.5,-255 548.2088,-236.1976 460.849,-207.4746 412.5389,-190.9407"/>
<polygon fill="#191970" stroke="#191970" points="413.4355,-187.5479 402.8408,-187.6055 411.159,-194.1674 413.4355,-187.5479"/>
</g>
<!-- Node25&#45;&gt;Node3 -->
<g id="edge56" class="edge">
<title>Node25&#45;&gt;Node3</title>
<path fill="none" stroke="#191970" d="M392.3512,-168.2973C424.1346,-150.0012 489.8326,-112.2038 490.5,-112 548.8673,-94.1759 976.2617,-73.1608 1098.1402,-67.478"/>
<polygon fill="#191970" stroke="#191970" points="1098.495,-70.9654 1108.3221,-67.0059 1098.1707,-63.973 1098.495,-70.9654"/>
</g>
<!-- Node25&#45;&gt;Node6 -->
<g id="edge49" class="edge">
<title>Node25&#45;&gt;Node6</title>
<path fill="none" stroke="#191970" d="M359.0529,-168.4125C344.4706,-159.6318 322.8572,-145.9195 305.5,-132 286.4026,-116.6849 266.5325,-96.8759 253.2398,-82.9712"/>
<polygon fill="#191970" stroke="#191970" points="255.6388,-80.4138 246.2288,-75.5451 250.5488,-85.2192 255.6388,-80.4138"/>
</g>
<!-- Node25&#45;&gt;Node10 -->
<g id="edge54" class="edge">
<title>Node25&#45;&gt;Node10</title>
<path fill="none" stroke="#191970" d="M372.6685,-168.4862C364.7305,-141.8144 342.1404,-65.9117 331.3616,-29.695"/>
<polygon fill="#191970" stroke="#191970" points="334.6322,-28.414 328.425,-19.8279 327.923,-30.4108 334.6322,-28.414"/>
</g>
<!-- Node25&#45;&gt;Node18 -->
<g id="edge58" class="edge">
<title>Node25&#45;&gt;Node18</title>
<path fill="none" stroke="#191970" d="M383.9967,-168.4651C397.8023,-153.6586 426.6798,-125.4452 457.5,-112 506.5067,-90.621 661.3729,-75.2818 734.0875,-69.065"/>
<polygon fill="#191970" stroke="#191970" points="734.5261,-72.5406 744.1974,-68.2143 733.9391,-65.5652 734.5261,-72.5406"/>
</g>
<!-- Node25&#45;&gt;Node19 -->
<g id="edge55" class="edge">
<title>Node25&#45;&gt;Node19</title>
<path fill="none" stroke="#191970" d="M379.8168,-168.2234C386.4865,-154.1067 400.5348,-127.9617 419.5,-112 439.5815,-95.0988 466.8535,-83.346 488.4319,-75.9524"/>
<polygon fill="#191970" stroke="#191970" points="489.783,-79.1932 498.2044,-72.7645 487.612,-72.5384 489.783,-79.1932"/>
</g>
<!-- Node25&#45;&gt;Node27 -->
<g id="edge57" class="edge">
<title>Node25&#45;&gt;Node27</title>
<path fill="none" stroke="#191970" d="M401.9735,-168.3733C427.3597,-159.1419 465.8645,-145.1402 493.922,-134.9375"/>
<polygon fill="#191970" stroke="#191970" points="495.1701,-138.2079 503.3719,-131.5011 492.7778,-131.6293 495.1701,-138.2079"/>
</g>
<!-- Node26 -->
<g id="node27" class="node">
<title>Node26</title>
<g id="a_node27"><a xlink:href="MatrixView_8h.html" target="_top" xlink:title="iDynTree/Core/MatrixView.h">
<polygon fill="none" stroke="#ff0000" points="26,-112.5 26,-131.5 177,-131.5 177,-112.5 26,-112.5"/>
<text text-anchor="middle" x="101.5" y="-119.5" font-family="FreeSans.ttf" font-size="10.00" fill="#000000">iDynTree/Core/MatrixView.h</text>
</a>
</g>
</g>
<!-- Node25&#45;&gt;Node26 -->
<g id="edge50" class="edge">
<title>Node25&#45;&gt;Node26</title>
<path fill="none" stroke="#191970" d="M328.709,-168.4369C281.5205,-158.7925 208.628,-143.8948 158.1876,-133.5858"/>
<polygon fill="#191970" stroke="#191970" points="158.5963,-130.097 148.098,-131.5237 157.1946,-136.9553 158.5963,-130.097"/>
</g>
<!-- Node26&#45;&gt;Node6 -->
<g id="edge53" class="edge">
<title>Node26&#45;&gt;Node6</title>
<path fill="none" stroke="#191970" d="M124.8792,-112.3733C147.0045,-103.2629 180.4134,-89.5062 205.1019,-79.3404"/>
<polygon fill="#191970" stroke="#191970" points="206.5117,-82.5451 214.4258,-75.5011 203.8464,-76.0723 206.5117,-82.5451"/>
</g>
<!-- Node26&#45;&gt;Node9 -->
<g id="edge52" class="edge">
<title>Node26&#45;&gt;Node9</title>
<path fill="none" stroke="#191970" d="M94.3583,-112.2455C88.6556,-104.4564 80.51,-93.3308 73.6375,-83.9439"/>
<polygon fill="#191970" stroke="#191970" points="76.2913,-81.6437 67.5598,-75.6427 70.6432,-85.7789 76.2913,-81.6437"/>
</g>
<!-- Node26&#45;&gt;Node10 -->
<g id="edge51" class="edge">
<title>Node26&#45;&gt;Node10</title>
<path fill="none" stroke="#191970" d="M108.6368,-112.419C119.8257,-98.065 142.8822,-71.0598 168.5,-56 179.0406,-49.8035 246.4346,-31.1307 289.4294,-19.5692"/>
<polygon fill="#191970" stroke="#191970" points="290.5042,-22.9047 299.2576,-16.9358 288.6925,-16.1433 290.5042,-22.9047"/>
</g>
<!-- Node36 -->
<g id="node29" class="node">
<title>Node36</title>
<g id="a_node29"><a xlink:href="SpatialMotionVector_8h.html" target="_top" xlink:title="iDynTree/Core/SpatialMotion\lVector.h">
<polygon fill="none" stroke="#000000" points="1127,-403.5 1127,-433.5 1282,-433.5 1282,-403.5 1127,-403.5"/>
<text text-anchor="start" x="1135" y="-421.5" font-family="FreeSans.ttf" font-size="10.00" fill="#000000">iDynTree/Core/SpatialMotion</text>
<text text-anchor="middle" x="1204.5" y="-410.5" font-family="FreeSans.ttf" font-size="10.00" fill="#000000">Vector.h</text>
</a>
</g>
</g>
<!-- Node35&#45;&gt;Node36 -->
<g id="edge61" class="edge">
<title>Node35&#45;&gt;Node36</title>
<path fill="none" stroke="#191970" d="M1169.9063,-470.3906C1174.9413,-462.838 1182.1749,-451.9876 1188.7271,-442.1593"/>
<polygon fill="#191970" stroke="#191970" points="1191.8354,-443.8066 1194.4703,-433.5446 1186.011,-439.9236 1191.8354,-443.8066"/>
</g>
<!-- Node36&#45;&gt;Node5 -->
<g id="edge62" class="edge">
<title>Node36&#45;&gt;Node5</title>
<path fill="none" stroke="#191970" d="M1269.0365,-403.4126C1319.2668,-387.388 1380.5,-356.4763 1380.5,-301 1380.5,-301 1380.5,-301 1380.5,-239.5 1380.5,-198.8601 1359.3479,-187.1451 1323.5,-168 1284.016,-146.913 1009.5602,-132.1343 863.4976,-125.6658"/>
<polygon fill="#191970" stroke="#191970" points="863.3518,-122.1561 853.208,-125.2145 863.045,-129.1494 863.3518,-122.1561"/>
</g>
<!-- Node36&#45;&gt;Node23 -->
<g id="edge63" class="edge">
<title>Node36&#45;&gt;Node23</title>
<path fill="none" stroke="#191970" d="M1226.6114,-403.3604C1237.8456,-394.2809 1250.3866,-381.6588 1256.5,-367 1262.5839,-352.4118 1263.6118,-311.4174 1252.5,-291 1228.8325,-247.512 1208.1448,-245.4056 1163.5,-224 1129.4403,-207.6696 1088.8959,-196.676 1054.8225,-189.5438"/>
<polygon fill="#191970" stroke="#191970" points="1055.4292,-186.0957 1044.9337,-187.5432 1054.041,-192.9567 1055.4292,-186.0957"/>
</g>
<!-- Node36&#45;&gt;Node31 -->
<g id="edge64" class="edge">
<title>Node36&#45;&gt;Node31</title>
<path fill="none" stroke="#191970" d="M1145.7894,-403.4554C1104.5153,-392.8789 1050.018,-378.914 1011.5881,-369.0663"/>
<polygon fill="#191970" stroke="#191970" points="1012.2473,-365.6222 1001.6915,-366.5303 1010.5097,-372.4031 1012.2473,-365.6222"/>
</g>
<!-- Node37&#45;&gt;Node36 -->
<g id="edge66" class="edge">
<title>Node37&#45;&gt;Node36</title>
<path fill="none" stroke="#191970" d="M1299,-470.3906C1283.4913,-461.8747 1260.347,-449.166 1240.8451,-438.4573"/>
<polygon fill="#191970" stroke="#191970" points="1242.3484,-435.2899 1231.8983,-433.5446 1238.9791,-441.4257 1242.3484,-435.2899"/>
</g>
<!-- Node38&#45;&gt;Node30 -->
<g id="edge68" class="edge">
<title>Node38&#45;&gt;Node30</title>
<path fill="none" stroke="#191970" d="M959.1875,-470.3906C940.8605,-461.7205 913.3471,-448.7046 890.4613,-437.8779"/>
<polygon fill="#191970" stroke="#191970" points="891.8378,-434.6572 881.3016,-433.5446 888.8443,-440.9849 891.8378,-434.6572"/>
</g>
<!-- Node39&#45;&gt;Node3 -->
<g id="edge71" class="edge">
<title>Node39&#45;&gt;Node3</title>
<path fill="none" stroke="#191970" d="M740.6465,-224.4065C823.175,-190.8733 1020.6125,-110.6499 1098.3063,-79.0811"/>
<polygon fill="#191970" stroke="#191970" points="1100.0789,-82.1388 1108.0258,-75.1318 1097.4438,-75.6537 1100.0789,-82.1388"/>
</g>
<!-- Node39&#45;&gt;Node25 -->
<g id="edge70" class="edge">
<title>Node39&#45;&gt;Node25</title>
<path fill="none" stroke="#191970" d="M632.7327,-226.2311C574.2265,-215.2612 492.0154,-199.8466 436.406,-189.4199"/>
<polygon fill="#191970" stroke="#191970" points="436.8176,-185.9361 426.3438,-187.5332 435.5275,-192.8162 436.8176,-185.9361"/>
</g>
<!-- Node40&#45;&gt;Node3 -->
<g id="edge73" class="edge">
<title>Node40&#45;&gt;Node3</title>
<path fill="none" stroke="#191970" d="M1636.8819,-470.4183C1643.2273,-461.5336 1651.9061,-447.6624 1655.5,-434 1659.005,-420.6755 1658.7712,-416.3838 1655.5,-403 1636.0551,-323.4418 1570.5,-321.4 1570.5,-239.5 1570.5,-239.5 1570.5,-239.5 1570.5,-178 1570.5,-146.7875 1571.0409,-131.2864 1546.5,-112 1516.4808,-88.4082 1255.3467,-72.548 1162.8269,-67.6262"/>
<polygon fill="#191970" stroke="#191970" points="1162.8246,-64.1213 1152.6551,-67.0932 1162.4582,-71.1117 1162.8246,-64.1213"/>
</g>
<!-- Node41 -->
<g id="node34" class="node">
<title>Node41</title>
<polygon fill="none" stroke="#bfbfbf" points="1560.5,-409 1560.5,-428 1646.5,-428 1646.5,-409 1560.5,-409"/>
<text text-anchor="middle" x="1603.5" y="-416" font-family="FreeSans.ttf" font-size="10.00" fill="#000000">ModelExport.h</text>
</g>
<!-- Node40&#45;&gt;Node41 -->
<g id="edge74" class="edge">
<title>Node40&#45;&gt;Node41</title>
<path fill="none" stroke="#191970" d="M1625.4375,-470.3906C1621.7576,-461.6862 1616.2258,-448.6015 1611.638,-437.7494"/>
<polygon fill="#191970" stroke="#191970" points="1614.7375,-436.0927 1607.6198,-428.2449 1608.29,-438.8185 1614.7375,-436.0927"/>
</g>
<!-- Node43&#45;&gt;Node2 -->
<g id="edge78" class="edge">
<title>Node43&#45;&gt;Node2</title>
<path fill="none" stroke="#191970" d="M672.0197,-638.3733C693.2372,-629.3032 725.2276,-615.6279 748.9769,-605.4755"/>
<polygon fill="#191970" stroke="#191970" points="750.4548,-608.6502 758.2742,-601.5011 747.7033,-602.2136 750.4548,-608.6502"/>
</g>
<!-- Node43&#45;&gt;Node42 -->
<g id="edge79" class="edge">
<title>Node43&#45;&gt;Node42</title>
<path fill="none" stroke="#191970" d="M650.8935,-638.2455C651.9374,-630.9382 653.4008,-620.6944 654.6851,-611.7046"/>
<polygon fill="#191970" stroke="#191970" points="658.173,-612.0372 656.1225,-601.6427 651.2434,-611.0472 658.173,-612.0372"/>
</g>
<!-- Node44&#45;&gt;Node2 -->
<g id="edge87" class="edge">
<title>Node44&#45;&gt;Node2</title>
<path fill="none" stroke="#191970" d="M981.8353,-694.2759C996.3231,-680.681 1017.9038,-655.6782 1003.5,-638 993.6989,-625.9708 912.0368,-611.3937 850.3478,-601.919"/>
<polygon fill="#191970" stroke="#191970" points="850.6587,-598.4262 840.2466,-600.3854 849.6079,-605.3469 850.6587,-598.4262"/>
</g>
<!-- Node44&#45;&gt;Node42 -->
<g id="edge88" class="edge">
<title>Node44&#45;&gt;Node42</title>
<path fill="none" stroke="#191970" d="M930.3319,-702.2186C835.596,-697.6065 604.4265,-683.7973 581.5,-658 563.6908,-637.9608 594.5196,-618.2373 622.0879,-605.6476"/>
<polygon fill="#191970" stroke="#191970" points="623.8434,-608.7009 631.618,-601.5032 621.0518,-602.2816 623.8434,-608.7009"/>
</g>
<!-- Node45 -->
<g id="node38" class="node">
<title>Node45</title>
<g id="a_node38"><a xlink:href="SolidShapes_8h.html" target="_top" xlink:title="iDynTree/Model/SolidShapes.h">
<polygon fill="none" stroke="#000000" points="1383,-526.5 1383,-545.5 1546,-545.5 1546,-526.5 1383,-526.5"/>
<text text-anchor="middle" x="1464.5" y="-533.5" font-family="FreeSans.ttf" font-size="10.00" fill="#000000">iDynTree/Model/SolidShapes.h</text>
</a>
</g>
</g>
<!-- Node44&#45;&gt;Node45 -->
<g id="edge81" class="edge">
<title>Node44&#45;&gt;Node45</title>
<path fill="none" stroke="#191970" d="M1010.8688,-702.5913C1067.1671,-699.4955 1171.6657,-689.6023 1254.5,-658 1313.1327,-635.6309 1318.984,-613.0834 1373.5,-582 1393.4822,-570.6068 1416.6236,-558.9285 1434.5694,-550.1896"/>
<polygon fill="#191970" stroke="#191970" points="1436.4694,-553.1588 1443.9516,-545.6576 1433.4247,-546.8556 1436.4694,-553.1588"/>
</g>
<!-- Node47 -->
<g id="node40" class="node">
<title>Node47</title>
<polygon fill="none" stroke="#bfbfbf" points="1051,-638.5 1051,-657.5 1120,-657.5 1120,-638.5 1051,-638.5"/>
<text text-anchor="middle" x="1085.5" y="-645.5" font-family="FreeSans.ttf" font-size="10.00" fill="#000000">Eigen/Core</text>
</g>
<!-- Node44&#45;&gt;Node47 -->
<g id="edge89" class="edge">
<title>Node44&#45;&gt;Node47</title>
<path fill="none" stroke="#191970" d="M990.2692,-694.3733C1008.6469,-685.4241 1036.2312,-671.9917 1056.9893,-661.8835"/>
<polygon fill="#191970" stroke="#191970" points="1058.5304,-665.026 1065.9888,-657.5011 1055.4657,-658.7325 1058.5304,-665.026"/>
</g>
<!-- Node48 -->
<g id="node41" class="node">
<title>Node48</title>
<polygon fill="none" stroke="#bfbfbf" points="870,-638.5 870,-657.5 929,-657.5 929,-638.5 870,-638.5"/>
<text text-anchor="middle" x="899.5" y="-645.5" font-family="FreeSans.ttf" font-size="10.00" fill="#000000">Eigen/LU</text>
</g>
<!-- Node44&#45;&gt;Node48 -->
<g id="edge90" class="edge">
<title>Node44&#45;&gt;Node48</title>
<path fill="none" stroke="#191970" d="M958.1327,-694.2455C947.5446,-685.8943 932.0936,-673.7076 919.7107,-663.9408"/>
<polygon fill="#191970" stroke="#191970" points="921.7447,-661.0875 911.7255,-657.6427 917.4097,-666.5837 921.7447,-661.0875"/>
</g>
<!-- Node49 -->
<g id="node42" class="node">
<title>Node49</title>
<g id="a_node42"><a xlink:href="EigenHelpers_8h.html" target="_top" xlink:title="iDynTree/Core/EigenHelpers.h">
<polygon fill="none" stroke="#000000" points="331,-470.5 331,-489.5 492,-489.5 492,-470.5 331,-470.5"/>
<text text-anchor="middle" x="411.5" y="-477.5" font-family="FreeSans.ttf" font-size="10.00" fill="#000000">iDynTree/Core/EigenHelpers.h</text>
</a>
</g>
</g>
<!-- Node44&#45;&gt;Node49 -->
<g id="edge91" class="edge">
<title>Node44&#45;&gt;Node49</title>
<path fill="none" stroke="#191970" d="M930.245,-702.9177C841.9582,-699.9758 634.2703,-689.7891 572.5,-658 499.717,-620.5434 443.8316,-535.7576 421.7687,-498.3363"/>
<polygon fill="#191970" stroke="#191970" points="424.7042,-496.4205 416.6763,-489.5064 418.6404,-499.9176 424.7042,-496.4205"/>
</g>
<!-- Node52 -->
<g id="node45" class="node">
<title>Node52</title>
<g id="a_node45"><a xlink:href="FloorGridSceneNode_8h.html" target="_top" xlink:title="FloorGridSceneNode.h">
<polygon fill="none" stroke="#000000" points="727,-638.5 727,-657.5 852,-657.5 852,-638.5 727,-638.5"/>
<text text-anchor="middle" x="789.5" y="-645.5" font-family="FreeSans.ttf" font-size="10.00" fill="#000000">FloorGridSceneNode.h</text>
</a>
</g>
</g>
<!-- Node44&#45;&gt;Node52 -->
<g id="edge103" class="edge">
<title>Node44&#45;&gt;Node52</title>
<path fill="none" stroke="#191970" d="M939.385,-694.3733C909.1571,-685.021 863.104,-670.7725 830.0261,-660.5385"/>
<polygon fill="#191970" stroke="#191970" points="830.7967,-657.1133 820.209,-657.5011 828.7277,-663.8005 830.7967,-657.1133"/>
</g>
<!-- Node53 -->
<g id="node46" class="node">
<title>Node53</title>
<polygon fill="none" stroke="#bfbfbf" points="947,-638.5 947,-657.5 994,-657.5 994,-638.5 947,-638.5"/>
<text text-anchor="middle" x="970.5" y="-645.5" font-family="FreeSans.ttf" font-size="10.00" fill="#000000">cmath</text>
</g>
<!-- Node44&#45;&gt;Node53 -->
<g id="edge106" class="edge">
<title>Node44&#45;&gt;Node53</title>
<path fill="none" stroke="#191970" d="M970.5,-694.2455C970.5,-686.9382 970.5,-676.6944 970.5,-667.7046"/>
<polygon fill="#191970" stroke="#191970" points="974.0001,-667.6426 970.5,-657.6427 967.0001,-667.6427 974.0001,-667.6426"/>
</g>
<!-- Node45&#45;&gt;Node3 -->
<g id="edge83" class="edge">
<title>Node45&#45;&gt;Node3</title>
<path fill="none" stroke="#191970" d="M1476.4747,-526.1689C1486.2945,-517.5424 1499.9273,-504.1881 1508.5,-490 1525.8349,-461.3101 1532.5,-452.0202 1532.5,-418.5 1532.5,-418.5 1532.5,-418.5 1532.5,-178 1532.5,-146.7875 1532.9348,-131.4207 1508.5,-112 1481.6099,-90.6278 1249.2458,-73.6393 1162.7555,-68.0029"/>
<polygon fill="#191970" stroke="#191970" points="1162.924,-64.5066 1152.72,-67.3574 1162.4746,-71.4921 1162.924,-64.5066"/>
</g>
<!-- Node45&#45;&gt;Node32 -->
<g id="edge84" class="edge">
<title>Node45&#45;&gt;Node32</title>
<path fill="none" stroke="#191970" d="M1382.9155,-529.5533C1238.9823,-518.142 950.7379,-495.106 904.5,-490 891.9847,-488.618 878.2882,-486.7942 866.2323,-485.083"/>
<polygon fill="#191970" stroke="#191970" points="866.529,-481.5896 856.131,-483.6221 865.527,-488.5175 866.529,-481.5896"/>
</g>
<!-- Node45&#45;&gt;Node34 -->
<g id="edge85" class="edge">
<title>Node45&#45;&gt;Node34</title>
<path fill="none" stroke="#191970" d="M1456.3029,-526.3292C1444.553,-512.7975 1421.8641,-487.8695 1399.5,-470 1355.3706,-434.7394 1341.9905,-428.3263 1291.5,-403 1265.8941,-390.156 1235.79,-378.3907 1212.5309,-369.9741"/>
<polygon fill="#191970" stroke="#191970" points="1213.6094,-366.6429 1203.0148,-366.5787 1211.257,-373.2358 1213.6094,-366.6429"/>
</g>
<!-- Node45&#45;&gt;Node40 -->
<g id="edge86" class="edge">
<title>Node45&#45;&gt;Node40</title>
<path fill="none" stroke="#191970" d="M1492.8645,-526.3733C1520.1827,-517.1016 1561.6796,-503.0178 1591.7738,-492.804"/>
<polygon fill="#191970" stroke="#191970" points="1593.161,-496.0294 1601.5056,-489.5011 1590.9113,-489.4008 1593.161,-496.0294"/>
</g>
<!-- Node46 -->
<g id="node39" class="node">
<title>Node46</title>
<polygon fill="none" stroke="#bfbfbf" points="1717,-470.5 1717,-489.5 1766,-489.5 1766,-470.5 1717,-470.5"/>
<text text-anchor="middle" x="1741.5" y="-477.5" font-family="FreeSans.ttf" font-size="10.00" fill="#000000">cstdlib</text>
</g>
<!-- Node45&#45;&gt;Node46 -->
<g id="edge82" class="edge">
<title>Node45&#45;&gt;Node46</title>
<path fill="none" stroke="#191970" d="M1523.7725,-526.4676C1570.8745,-518.5084 1638.5952,-506.2137 1706.6527,-490.0213"/>
<polygon fill="#191970" stroke="#191970" points="1707.7909,-493.3473 1716.694,-487.604 1706.1526,-486.5417 1707.7909,-493.3473"/>
</g>
<!-- Node49&#45;&gt;Node5 -->
<g id="edge94" class="edge">
<title>Node49&#45;&gt;Node5</title>
<path fill="none" stroke="#191970" d="M397.8664,-470.4516C387.3452,-462.1822 373.5909,-449.1795 367.5,-434 362.3692,-421.2132 361.5418,-415.4228 367.5,-403 422.4605,-288.4075 478.664,-284.3722 590.5,-224 636.1379,-199.3634 656.7855,-214.2753 701.5,-188 723.3328,-175.1706 744.0288,-154.6215 757.3818,-139.8597"/>
<polygon fill="#191970" stroke="#191970" points="760.3721,-141.7594 764.3484,-131.939 755.1159,-137.1363 760.3721,-141.7594"/>
</g>
<!-- Node49&#45;&gt;Node6 -->
<g id="edge102" class="edge">
<title>Node49&#45;&gt;Node6</title>
<path fill="none" stroke="#191970" d="M337.2321,-470.4378C229.9936,-454.5209 44.5,-418.1506 44.5,-357 44.5,-357 44.5,-357 44.5,-239.5 44.5,-206.7307 39.7743,-191.6087 62.5,-168 102.0021,-126.9631 138.3003,-163.8846 185.5,-132 203.5468,-119.8089 218.2299,-99.3899 227.3348,-84.4862"/>
<polygon fill="#191970" stroke="#191970" points="230.4839,-86.0336 232.4918,-75.6307 224.4349,-82.5109 230.4839,-86.0336"/>
</g>
<!-- Node49&#45;&gt;Node29 -->
<g id="edge93" class="edge">
<title>Node49&#45;&gt;Node29</title>
<path fill="none" stroke="#191970" d="M358.4465,-470.4937C336.2211,-463.8701 311.9983,-452.7144 296.5,-434 269.5941,-401.5109 267.623,-349.2906 268.8573,-320.9147"/>
<polygon fill="#191970" stroke="#191970" points="272.3676,-320.8552 269.4932,-310.6578 265.3811,-320.422 272.3676,-320.8552"/>
</g>
<!-- Node49&#45;&gt;Node30 -->
<g id="edge100" class="edge">
<title>Node49&#45;&gt;Node30</title>
<path fill="none" stroke="#191970" d="M479.4569,-470.4581C556.4618,-459.6458 682.0438,-442.0127 765.2229,-430.3334"/>
<polygon fill="#191970" stroke="#191970" points="765.7342,-433.7961 775.1504,-428.9395 764.7608,-426.8641 765.7342,-433.7961"/>
</g>
<!-- Node49&#45;&gt;Node34 -->
<g id="edge101" class="edge">
<title>Node49&#45;&gt;Node34</title>
<path fill="none" stroke="#191970" d="M492.1632,-478.3623C595.2292,-475.0211 778.704,-464.8652 932.5,-434 1008.8163,-418.6842 1094.9657,-387.8723 1141.0902,-370.2216"/>
<polygon fill="#191970" stroke="#191970" points="1142.5082,-373.426 1150.5773,-366.5601 1139.9877,-366.8955 1142.5082,-373.426"/>
</g>
<!-- Node49&#45;&gt;Node25 -->
<g id="edge98" class="edge">
<title>Node49&#45;&gt;Node25</title>
<path fill="none" stroke="#191970" d="M381.5542,-470.4983C364.4946,-463.3713 344.5676,-451.7417 334.5,-434 318.6976,-406.1521 354.8236,-349.5741 362.5,-311 370.3889,-271.358 373.5611,-224.0748 374.7828,-197.9104"/>
<polygon fill="#191970" stroke="#191970" points="378.2857,-197.9128 375.206,-187.7755 371.2918,-197.6207 378.2857,-197.9128"/>
</g>
<!-- Node49&#45;&gt;Node36 -->
<g id="edge99" class="edge">
<title>Node49&#45;&gt;Node36</title>
<path fill="none" stroke="#191970" d="M492.2277,-474.7015C612.2784,-466.6892 844.9404,-450.6501 1042.5,-434 1066.5186,-431.9757 1092.5199,-429.5793 1116.515,-427.2835"/>
<polygon fill="#191970" stroke="#191970" points="1117.0453,-430.7487 1126.6642,-426.3071 1116.3749,-423.7809 1117.0453,-430.7487"/>
</g>
<!-- Node50 -->
<g id="node43" class="node">
<title>Node50</title>
<polygon fill="none" stroke="#bfbfbf" points="377,-409 377,-428 454,-428 454,-409 377,-409"/>
<text text-anchor="middle" x="415.5" y="-416" font-family="FreeSans.ttf" font-size="10.00" fill="#000000">Eigen/Dense</text>
</g>
<!-- Node49&#45;&gt;Node50 -->
<g id="edge92" class="edge">
<title>Node49&#45;&gt;Node50</title>
<path fill="none" stroke="#191970" d="M412.125,-470.3906C412.6795,-461.8657 413.5072,-449.1392 414.2042,-438.4235"/>
<polygon fill="#191970" stroke="#191970" points="417.7097,-438.451 414.8662,-428.2449 410.7244,-437.9966 417.7097,-438.451"/>
</g>
<!-- Node51 -->
<g id="node44" class="node">
<title>Node51</title>
<g id="a_node44"><a xlink:href="MatrixDynSize_8h.html" target="_top" xlink:title="iDynTree/Core/MatrixDynSize.h">
<polygon fill="none" stroke="#000000" points="72,-168.5 72,-187.5 239,-187.5 239,-168.5 72,-168.5"/>
<text text-anchor="middle" x="155.5" y="-175.5" font-family="FreeSans.ttf" font-size="10.00" fill="#000000">iDynTree/Core/MatrixDynSize.h</text>
</a>
</g>
</g>
<!-- Node49&#45;&gt;Node51 -->
<g id="edge95" class="edge">
<title>Node49&#45;&gt;Node51</title>
<path fill="none" stroke="#191970" d="M428.2373,-470.2988C440.2584,-462.2823 455.523,-449.6887 462.5,-434 468.0985,-421.411 470.609,-414.1387 462.5,-403 423.3306,-349.1962 220.9429,-361.4162 177.5,-311 149.9861,-279.0697 150.296,-226.2431 152.8987,-197.7232"/>
<polygon fill="#191970" stroke="#191970" points="156.3805,-198.0795 153.9967,-187.7564 149.4226,-197.313 156.3805,-198.0795"/>
</g>
<!-- Node51&#45;&gt;Node3 -->
<g id="edge96" class="edge">
<title>Node51&#45;&gt;Node3</title>
<path fill="none" stroke="#191970" d="M190.387,-168.4462C245.565,-153.7457 356.5669,-125.8329 452.5,-112 699.2702,-76.4175 1000.6458,-68.235 1098.3119,-66.4628"/>
<polygon fill="#191970" stroke="#191970" points="1098.4847,-69.9604 1108.4232,-66.2894 1098.3646,-62.9615 1098.4847,-69.9604"/>
</g>
<!-- Node51&#45;&gt;Node26 -->
<g id="edge97" class="edge">
<title>Node51&#45;&gt;Node26</title>
<path fill="none" stroke="#191970" d="M146.0939,-168.2455C138.3507,-160.2155 127.188,-148.6394 117.9682,-139.0781"/>
<polygon fill="#191970" stroke="#191970" points="120.2591,-136.4117 110.7983,-131.6427 115.2202,-141.2706 120.2591,-136.4117"/>
</g>
<!-- Node52&#45;&gt;Node2 -->
<g id="edge104" class="edge">
<title>Node52&#45;&gt;Node2</title>
<path fill="none" stroke="#191970" d="M787.9323,-638.2455C786.7579,-630.9382 785.1116,-620.6944 783.6668,-611.7046"/>
<polygon fill="#191970" stroke="#191970" points="787.0922,-610.9606 782.0497,-601.6427 780.1809,-612.0714 787.0922,-610.9606"/>
</g>
<!-- Node52&#45;&gt;Node42 -->
<g id="edge105" class="edge">
<title>Node52&#45;&gt;Node42</title>
<path fill="none" stroke="#191970" d="M766.8084,-638.3733C745.4289,-629.3032 713.1943,-615.6279 689.2638,-605.4755"/>
<polygon fill="#191970" stroke="#191970" points="690.4683,-602.1846 679.8955,-601.5011 687.7344,-608.6287 690.4683,-602.1846"/>
</g>
<!-- Node54&#45;&gt;Node32 -->
<g id="edge121" class="edge">
<title>Node54&#45;&gt;Node32</title>
<path fill="none" stroke="#191970" d="M1486.7733,-644.9973C1372.1667,-638.0748 1131.9702,-615.789 942.5,-546 909.0364,-533.6741 874.3991,-510.9461 853.1485,-495.6511"/>
<polygon fill="#191970" stroke="#191970" points="855.0366,-492.6954 844.9031,-489.6031 850.8965,-498.3399 855.0366,-492.6954"/>
</g>
<!-- Node54&#45;&gt;Node34 -->
<g id="edge117" class="edge">
<title>Node54&#45;&gt;Node34</title>
<path fill="none" stroke="#191970" d="M1620.2414,-640.8487C1671.9689,-633.9007 1737.8764,-621.5032 1756.5,-602 1797.4334,-559.1334 1805.5039,-521.116 1775.5,-470 1744.5788,-417.3213 1713.8137,-421.1844 1655.5,-403 1583.5198,-380.5539 1375.4599,-366.9494 1257.9194,-360.837"/>
<polygon fill="#191970" stroke="#191970" points="1258.0445,-357.3389 1247.8783,-360.3216 1257.6857,-364.3297 1258.0445,-357.3389"/>
</g>
<!-- Node54&#45;&gt;Node40 -->
<g id="edge118" class="edge">
<title>Node54&#45;&gt;Node40</title>
<path fill="none" stroke="#191970" d="M1557.8038,-638.4862C1569.9217,-611.6994 1604.503,-535.2565 1620.8012,-499.2289"/>
<polygon fill="#191970" stroke="#191970" points="1624.1212,-500.3816 1625.0541,-489.8279 1617.7434,-497.4964 1624.1212,-500.3816"/>
</g>
<!-- Node54&#45;&gt;Node45 -->
<g id="edge119" class="edge">
<title>Node54&#45;&gt;Node45</title>
<path fill="none" stroke="#191970" d="M1549.1862,-638.4505C1542.8854,-625.0631 1530.2922,-600.3052 1515.5,-582 1506.6005,-570.987 1494.9836,-560.2931 1485.0852,-551.9921"/>
<polygon fill="#191970" stroke="#191970" points="1487.2358,-549.2297 1477.2721,-545.6275 1482.8148,-554.6569 1487.2358,-549.2297"/>
</g>
<!-- Node54&#45;&gt;Node46 -->
<g id="edge120" class="edge">
<title>Node54&#45;&gt;Node46</title>
<path fill="none" stroke="#191970" d="M1620.2716,-639.8065C1666.6396,-632.609 1722.6574,-620.381 1737.5,-602 1761.032,-572.8581 1753.9764,-525.8005 1747.3528,-499.458"/>
<polygon fill="#191970" stroke="#191970" points="1750.6548,-498.265 1744.631,-489.5493 1743.9049,-500.1192 1750.6548,-498.265"/>
</g>
<!-- Node55 -->
<g id="node48" class="node">
<title>Node55</title>
<g id="a_node48"><a xlink:href="IJoint_8h.html" target="_top" xlink:title="iDynTree/Model/IJoint.h">
<polygon fill="none" stroke="#000000" points="1600.5,-582.5 1600.5,-601.5 1728.5,-601.5 1728.5,-582.5 1600.5,-582.5"/>
<text text-anchor="middle" x="1664.5" y="-589.5" font-family="FreeSans.ttf" font-size="10.00" fill="#000000">iDynTree/Model/IJoint.h</text>
</a>
</g>
</g>
<!-- Node54&#45;&gt;Node55 -->
<g id="edge108" class="edge">
<title>Node54&#45;&gt;Node55</title>
<path fill="none" stroke="#191970" d="M1572.5816,-638.3733C1590.2402,-629.4644 1616.7053,-616.1127 1636.7098,-606.0203"/>
<polygon fill="#191970" stroke="#191970" points="1638.3158,-609.1303 1645.6674,-601.5011 1635.1628,-602.8806 1638.3158,-609.1303"/>
</g>
<!-- Node56 -->
<g id="node49" class="node">
<title>Node56</title>
<g id="a_node49"><a xlink:href="Link_8h.html" target="_top" xlink:title="iDynTree/Model/Link.h">
<polygon fill="none" stroke="#000000" points="1382.5,-582.5 1382.5,-601.5 1506.5,-601.5 1506.5,-582.5 1382.5,-582.5"/>
<text text-anchor="middle" x="1444.5" y="-589.5" font-family="FreeSans.ttf" font-size="10.00" fill="#000000">iDynTree/Model/Link.h</text>
</a>
</g>
</g>
<!-- Node54&#45;&gt;Node56 -->
<g id="edge110" class="edge">
<title>Node54&#45;&gt;Node56</title>
<path fill="none" stroke="#191970" d="M1534.5136,-638.2455C1517.3208,-629.4125 1491.7762,-616.2887 1472.2868,-606.2758"/>
<polygon fill="#191970" stroke="#191970" points="1473.763,-603.0993 1463.2688,-601.6427 1470.5641,-609.3257 1473.763,-603.0993"/>
</g>
<!-- Node55&#45;&gt;Node40 -->
<g id="edge109" class="edge">
<title>Node55&#45;&gt;Node40</title>
<path fill="none" stroke="#191970" d="M1661.5159,-582.4509C1655.7817,-564.1013 1643.1221,-523.5908 1635.5529,-499.3693"/>
<polygon fill="#191970" stroke="#191970" points="1638.8,-498.0257 1632.4765,-489.5249 1632.1187,-500.1137 1638.8,-498.0257"/>
</g>
<!-- Node56&#45;&gt;Node40 -->
<g id="edge116" class="edge">
<title>Node56&#45;&gt;Node40</title>
<path fill="none" stroke="#191970" d="M1475.0394,-582.461C1498.1182,-574.5295 1530.0592,-561.9712 1555.5,-546 1577.643,-532.0991 1599.5578,-511.4626 1613.7218,-496.975"/>
<polygon fill="#191970" stroke="#191970" points="1616.3567,-499.284 1620.7454,-489.6408 1611.3011,-494.4424 1616.3567,-499.284"/>
</g>
<!-- Node57 -->
<g id="node50" class="node">
<title>Node57</title>
<g id="a_node50"><a xlink:href="SpatialInertia_8h.html" target="_top" xlink:title="iDynTree/Core/SpatialInertia.h">
<polygon fill="none" stroke="#ff0000" points="1164.5,-526.5 1164.5,-545.5 1326.5,-545.5 1326.5,-526.5 1164.5,-526.5"/>
<text text-anchor="middle" x="1245.5" y="-533.5" font-family="FreeSans.ttf" font-size="10.00" fill="#000000">iDynTree/Core/SpatialInertia.h</text>
</a>
</g>
</g>
<!-- Node56&#45;&gt;Node57 -->
<g id="edge111" class="edge">
<title>Node56&#45;&gt;Node57</title>
<path fill="none" stroke="#191970" d="M1410.2907,-582.3733C1376.7703,-572.9404 1325.5495,-558.5265 1289.119,-548.2747"/>
<polygon fill="#191970" stroke="#191970" points="1289.8372,-544.8409 1279.2629,-545.5011 1287.9409,-551.5792 1289.8372,-544.8409"/>
</g>
<!-- Node57&#45;&gt;Node5 -->
<g id="edge112" class="edge">
<title>Node57&#45;&gt;Node5</title>
<path fill="none" stroke="#191970" d="M1315.4669,-526.4694C1376.887,-513.7006 1456.5,-484.4332 1456.5,-418.5 1456.5,-418.5 1456.5,-418.5 1456.5,-357 1456.5,-261.336 1437.0408,-214.6104 1353.5,-168 1311.8504,-144.7622 1016.401,-130.8019 863.5884,-125.0582"/>
<polygon fill="#191970" stroke="#191970" points="863.4087,-121.5492 853.2856,-124.6753 863.1487,-128.5444 863.4087,-121.5492"/>
</g>
<!-- Node57&#45;&gt;Node35 -->
<g id="edge113" class="edge">
<title>Node57&#45;&gt;Node35</title>
<path fill="none" stroke="#191970" d="M1231.2167,-526.2455C1218.753,-517.7337 1200.4549,-505.2375 1186.0208,-495.3801"/>
<polygon fill="#191970" stroke="#191970" points="1187.8515,-492.392 1177.6196,-489.6427 1183.9038,-498.1726 1187.8515,-492.392"/>
</g>
<!-- Node57&#45;&gt;Node37 -->
<g id="edge114" class="edge">
<title>Node57&#45;&gt;Node37</title>
<path fill="none" stroke="#191970" d="M1257.8673,-526.2455C1268.4554,-517.8943 1283.9064,-505.7076 1296.2893,-495.9408"/>
<polygon fill="#191970" stroke="#191970" points="1298.5903,-498.5837 1304.2745,-489.6427 1294.2553,-493.0875 1298.5903,-498.5837"/>
</g>
<!-- Node57&#45;&gt;Node38 -->
<g id="edge115" class="edge">
<title>Node57&#45;&gt;Node38</title>
<path fill="none" stroke="#191970" d="M1200.0752,-526.4369C1154.2645,-516.7925 1083.5002,-501.8948 1034.5325,-491.5858"/>
<polygon fill="#191970" stroke="#191970" points="1035.244,-488.1589 1024.7374,-489.5237 1033.8019,-495.0088 1035.244,-488.1589"/>
</g>
</g>
</svg>
