<?xml version="1.0" encoding="UTF-8" standalone="no"?>
<!DOCTYPE svg PUBLIC "-//W3C//DTD SVG 1.1//EN"
 "http://www.w3.org/Graphics/SVG/1.1/DTD/svg11.dtd">
<!-- Generated by graphviz version 2.40.1 (20161225.0304)
 -->
<!-- Title: JointElement.h Pages: 1 -->
<svg width="1435pt" height="476pt"
 viewBox="0.00 0.00 1435.00 476.00" xmlns="http://www.w3.org/2000/svg" xmlns:xlink="http://www.w3.org/1999/xlink">
<g id="graph0" class="graph" transform="scale(1 1) rotate(0) translate(4 472)">
<title>JointElement.h</title>
<!-- Node0 -->
<g id="node1" class="node">
<title>Node0</title>
<polygon fill="#bfbfbf" stroke="#000000" points="321,-448.5 321,-467.5 409,-467.5 409,-448.5 321,-448.5"/>
<text text-anchor="middle" x="365" y="-455.5" font-family="FreeSans.ttf" font-size="10.00" fill="#000000">JointElement.h</text>
</g>
<!-- Node1 -->
<g id="node2" class="node">
<title>Node1</title>
<g id="a_node2"><a xlink:href="XMLElement_8h.html" target="_top" xlink:title="iDynTree/XMLElement.h">
<polygon fill="none" stroke="#000000" points="147,-392.5 147,-411.5 279,-411.5 279,-392.5 147,-392.5"/>
<text text-anchor="middle" x="213" y="-399.5" font-family="FreeSans.ttf" font-size="10.00" fill="#000000">iDynTree/XMLElement.h</text>
</a>
</g>
</g>
<!-- Node0&#45;&gt;Node1 -->
<g id="edge1" class="edge">
<title>Node0&#45;&gt;Node1</title>
<path fill="none" stroke="#191970" d="M338.8703,-448.3733C313.9232,-439.1822 276.1408,-425.2624 248.4794,-415.0713"/>
<polygon fill="#191970" stroke="#191970" points="249.3822,-411.674 238.7888,-411.5011 246.9622,-418.2424 249.3822,-411.674"/>
</g>
<!-- Node3 -->
<g id="node4" class="node">
<title>Node3</title>
<polygon fill="none" stroke="#bfbfbf" points="0,-336.5 0,-355.5 58,-355.5 58,-336.5 0,-336.5"/>
<text text-anchor="middle" x="29" y="-343.5" font-family="FreeSans.ttf" font-size="10.00" fill="#000000">memory</text>
</g>
<!-- Node0&#45;&gt;Node3 -->
<g id="edge60" class="edge">
<title>Node0&#45;&gt;Node3</title>
<path fill="none" stroke="#191970" d="M320.6354,-453.5832C273.9271,-447.8925 198.8685,-435.7626 138,-412 105.1824,-399.1883 71.0146,-376.776 49.8759,-361.6654"/>
<polygon fill="#191970" stroke="#191970" points="51.8017,-358.7382 41.6561,-355.6858 47.6838,-364.3989 51.8017,-358.7382"/>
</g>
<!-- Node4 -->
<g id="node5" class="node">
<title>Node4</title>
<polygon fill="none" stroke="#bfbfbf" points="705,-112.5 705,-131.5 749,-131.5 749,-112.5 705,-112.5"/>
<text text-anchor="middle" x="727" y="-119.5" font-family="FreeSans.ttf" font-size="10.00" fill="#000000">string</text>
</g>
<!-- Node0&#45;&gt;Node4 -->
<g id="edge61" class="edge">
<title>Node0&#45;&gt;Node4</title>
<path fill="none" stroke="#191970" d="M367.9511,-448.2168C373.5144,-428.8801 385,-384.3189 385,-346 385,-346 385,-346 385,-234 385,-169.2166 609.4303,-135.895 694.6781,-125.5748"/>
<polygon fill="#191970" stroke="#191970" points="695.3037,-129.0253 704.8239,-124.3762 694.4823,-122.0737 695.3037,-129.0253"/>
</g>
<!-- Node5 -->
<g id="node6" class="node">
<title>Node5</title>
<polygon fill="none" stroke="#bfbfbf" points="263.5,-336.5 263.5,-355.5 356.5,-355.5 356.5,-336.5 263.5,-336.5"/>
<text text-anchor="middle" x="310" y="-343.5" font-family="FreeSans.ttf" font-size="10.00" fill="#000000">unordered_map</text>
</g>
<!-- Node0&#45;&gt;Node5 -->
<g id="edge62" class="edge">
<title>Node0&#45;&gt;Node5</title>
<path fill="none" stroke="#191970" d="M360.3107,-448.4509C351.2186,-429.936 331.0469,-388.8591 319.1922,-364.7187"/>
<polygon fill="#191970" stroke="#191970" points="322.227,-362.9582 314.6774,-355.5249 315.9437,-366.0438 322.227,-362.9582"/>
</g>
<!-- Node7 -->
<g id="node8" class="node">
<title>Node7</title>
<g id="a_node8"><a xlink:href="Axis_8h.html" target="_top" xlink:title="iDynTree/Core/Axis.h">
<polygon fill="none" stroke="#000000" points="413,-392.5 413,-411.5 531,-411.5 531,-392.5 413,-392.5"/>
<text text-anchor="middle" x="472" y="-399.5" font-family="FreeSans.ttf" font-size="10.00" fill="#000000">iDynTree/Core/Axis.h</text>
</a>
</g>
</g>
<!-- Node0&#45;&gt;Node7 -->
<g id="edge7" class="edge">
<title>Node0&#45;&gt;Node7</title>
<path fill="none" stroke="#191970" d="M383.638,-448.2455C400.4386,-439.4527 425.3634,-426.4079 444.4618,-416.4125"/>
<polygon fill="#191970" stroke="#191970" points="446.3386,-419.3807 453.5756,-411.6427 443.0927,-413.1787 446.3386,-419.3807"/>
</g>
<!-- Node32 -->
<g id="node33" class="node">
<title>Node32</title>
<g id="a_node33"><a xlink:href="Transform_8h.html" target="_top" xlink:title="iDynTree/Core/Transform.h">
<polygon fill="none" stroke="#000000" points="760,-392.5 760,-411.5 906,-411.5 906,-392.5 760,-392.5"/>
<text text-anchor="middle" x="833" y="-399.5" font-family="FreeSans.ttf" font-size="10.00" fill="#000000">iDynTree/Core/Transform.h</text>
</a>
</g>
</g>
<!-- Node0&#45;&gt;Node32 -->
<g id="edge55" class="edge">
<title>Node0&#45;&gt;Node32</title>
<path fill="none" stroke="#191970" d="M409.0283,-452.7317C486.9041,-443.4132 650.1088,-423.8844 749.7695,-411.9592"/>
<polygon fill="#191970" stroke="#191970" points="750.2934,-415.4216 759.8067,-410.7582 749.4617,-408.4712 750.2934,-415.4216"/>
</g>
<!-- Node2 -->
<g id="node3" class="node">
<title>Node2</title>
<polygon fill="none" stroke="#bfbfbf" points="141.5,-336.5 141.5,-355.5 206.5,-355.5 206.5,-336.5 141.5,-336.5"/>
<text text-anchor="middle" x="174" y="-343.5" font-family="FreeSans.ttf" font-size="10.00" fill="#000000">functional</text>
</g>
<!-- Node1&#45;&gt;Node2 -->
<g id="edge2" class="edge">
<title>Node1&#45;&gt;Node2</title>
<path fill="none" stroke="#191970" d="M206.2067,-392.2455C200.7822,-384.4564 193.0339,-373.3308 186.4967,-363.9439"/>
<polygon fill="#191970" stroke="#191970" points="189.3025,-361.8485 180.7154,-355.6427 183.5583,-365.849 189.3025,-361.8485"/>
</g>
<!-- Node1&#45;&gt;Node3 -->
<g id="edge3" class="edge">
<title>Node1&#45;&gt;Node3</title>
<path fill="none" stroke="#191970" d="M181.3693,-392.3733C149.9886,-382.8226 101.8306,-368.1658 68.076,-357.8927"/>
<polygon fill="#191970" stroke="#191970" points="68.6833,-354.4191 58.0974,-354.8557 66.6451,-361.1158 68.6833,-354.4191"/>
</g>
<!-- Node1&#45;&gt;Node4 -->
<g id="edge4" class="edge">
<title>Node1&#45;&gt;Node4</title>
<path fill="none" stroke="#191970" d="M216.1103,-392.4903C228.6138,-355.949 279.019,-223.8244 371,-168 425.0622,-135.189 617.1559,-125.4907 694.4424,-122.8803"/>
<polygon fill="#191970" stroke="#191970" points="694.6763,-126.3748 704.5595,-122.5574 694.4529,-119.3783 694.6763,-126.3748"/>
</g>
<!-- Node1&#45;&gt;Node5 -->
<g id="edge5" class="edge">
<title>Node1&#45;&gt;Node5</title>
<path fill="none" stroke="#191970" d="M229.8961,-392.2455C244.918,-383.5731 267.1043,-370.7645 284.321,-360.825"/>
<polygon fill="#191970" stroke="#191970" points="286.3871,-363.6737 293.2975,-355.6427 282.8872,-357.6114 286.3871,-363.6737"/>
</g>
<!-- Node6 -->
<g id="node7" class="node">
<title>Node6</title>
<polygon fill="none" stroke="#bfbfbf" points="76.5,-336.5 76.5,-355.5 123.5,-355.5 123.5,-336.5 76.5,-336.5"/>
<text text-anchor="middle" x="100" y="-343.5" font-family="FreeSans.ttf" font-size="10.00" fill="#000000">vector</text>
</g>
<!-- Node1&#45;&gt;Node6 -->
<g id="edge6" class="edge">
<title>Node1&#45;&gt;Node6</title>
<path fill="none" stroke="#191970" d="M193.5746,-392.3733C175.5979,-383.4644 148.6559,-370.1127 128.291,-360.0203"/>
<polygon fill="#191970" stroke="#191970" points="129.6861,-356.8055 119.1719,-355.5011 126.5778,-363.0776 129.6861,-356.8055"/>
</g>
<!-- Node7&#45;&gt;Node4 -->
<g id="edge8" class="edge">
<title>Node7&#45;&gt;Node4</title>
<path fill="none" stroke="#191970" d="M466.0264,-392.1441C449.525,-363.5173 406.8553,-278.9256 443,-224 471.5669,-180.5897 626.4127,-143.2053 694.6626,-128.5771"/>
<polygon fill="#191970" stroke="#191970" points="695.7794,-131.9185 704.8401,-126.4273 694.3326,-125.0696 695.7794,-131.9185"/>
</g>
<!-- Node8 -->
<g id="node9" class="node">
<title>Node8</title>
<g id="a_node9"><a xlink:href="Direction_8h.html" target="_top" xlink:title="iDynTree/Core/Direction.h">
<polygon fill="none" stroke="#000000" points="451.5,-224.5 451.5,-243.5 592.5,-243.5 592.5,-224.5 451.5,-224.5"/>
<text text-anchor="middle" x="522" y="-231.5" font-family="FreeSans.ttf" font-size="10.00" fill="#000000">iDynTree/Core/Direction.h</text>
</a>
</g>
</g>
<!-- Node7&#45;&gt;Node8 -->
<g id="edge9" class="edge">
<title>Node7&#45;&gt;Node8</title>
<path fill="none" stroke="#191970" d="M474.8315,-392.4862C482.7695,-365.8144 505.3596,-289.9117 516.1384,-253.695"/>
<polygon fill="#191970" stroke="#191970" points="519.577,-254.4108 519.075,-243.8279 512.8678,-252.414 519.577,-254.4108"/>
</g>
<!-- Node10 -->
<g id="node11" class="node">
<title>Node10</title>
<g id="a_node11"><a xlink:href="Utils_8h.html" target="_top" xlink:title="iDynTree/Core/Utils.h">
<polygon fill="none" stroke="#000000" points="660.5,-56.5 660.5,-75.5 779.5,-75.5 779.5,-56.5 660.5,-56.5"/>
<text text-anchor="middle" x="720" y="-63.5" font-family="FreeSans.ttf" font-size="10.00" fill="#000000">iDynTree/Core/Utils.h</text>
</a>
</g>
</g>
<!-- Node7&#45;&gt;Node10 -->
<g id="edge54" class="edge">
<title>Node7&#45;&gt;Node10</title>
<path fill="none" stroke="#191970" d="M462.5759,-392.2281C454.6093,-383.4334 443.4867,-369.8051 437,-356 412.005,-302.8054 397.893,-273.8676 429,-224 481.9968,-139.0409 597.5937,-96.5488 666.0689,-78.066"/>
<polygon fill="#191970" stroke="#191970" points="667.031,-81.4321 675.8169,-75.5111 665.2562,-74.6609 667.031,-81.4321"/>
</g>
<!-- Node24 -->
<g id="node25" class="node">
<title>Node24</title>
<g id="a_node25"><a xlink:href="Position_8h.html" target="_top" xlink:title="iDynTree/Core/Position.h">
<polygon fill="none" stroke="#000000" points="659,-336.5 659,-355.5 795,-355.5 795,-336.5 659,-336.5"/>
<text text-anchor="middle" x="727" y="-343.5" font-family="FreeSans.ttf" font-size="10.00" fill="#000000">iDynTree/Core/Position.h</text>
</a>
</g>
</g>
<!-- Node7&#45;&gt;Node24 -->
<g id="edge30" class="edge">
<title>Node7&#45;&gt;Node24</title>
<path fill="none" stroke="#191970" d="M515.5463,-392.4369C559.2793,-382.8328 626.7345,-368.0191 673.6542,-357.7152"/>
<polygon fill="#191970" stroke="#191970" points="674.6168,-361.0872 683.6333,-355.5237 673.1153,-354.2502 674.6168,-361.0872"/>
</g>
<!-- Node8&#45;&gt;Node4 -->
<g id="edge10" class="edge">
<title>Node8&#45;&gt;Node4</title>
<path fill="none" stroke="#191970" d="M532.2797,-224.3683C547.5814,-210.4319 577.7016,-184.5094 607,-168 635.3597,-152.0196 670.3706,-139.3131 695.2401,-131.3394"/>
<polygon fill="#191970" stroke="#191970" points="696.3998,-134.644 704.898,-128.317 694.3091,-127.9635 696.3998,-134.644"/>
</g>
<!-- Node9 -->
<g id="node10" class="node">
<title>Node9</title>
<g id="a_node10"><a xlink:href="VectorFixSize_8h.html" target="_top" xlink:title="iDynTree/Core/VectorFixSize.h">
<polygon fill="none" stroke="#000000" points="937.5,-168.5 937.5,-187.5 1098.5,-187.5 1098.5,-168.5 937.5,-168.5"/>
<text text-anchor="middle" x="1018" y="-175.5" font-family="FreeSans.ttf" font-size="10.00" fill="#000000">iDynTree/Core/VectorFixSize.h</text>
</a>
</g>
</g>
<!-- Node8&#45;&gt;Node9 -->
<g id="edge11" class="edge">
<title>Node8&#45;&gt;Node9</title>
<path fill="none" stroke="#191970" d="M592.538,-226.036C680.4936,-216.1056 830.9885,-199.1142 927.3968,-188.2294"/>
<polygon fill="#191970" stroke="#191970" points="927.8797,-191.6972 937.4239,-187.0973 927.0943,-184.7414 927.8797,-191.6972"/>
</g>
<!-- Node8&#45;&gt;Node10 -->
<g id="edge29" class="edge">
<title>Node8&#45;&gt;Node10</title>
<path fill="none" stroke="#191970" d="M528.114,-224.2967C536.9559,-210.7264 554.3126,-185.7528 573,-168 611.1655,-131.7433 663.2202,-98.7904 694.0501,-80.6558"/>
<polygon fill="#191970" stroke="#191970" points="696.0087,-83.5657 702.8976,-75.5163 692.4926,-77.5128 696.0087,-83.5657"/>
</g>
<!-- Node9&#45;&gt;Node4 -->
<g id="edge25" class="edge">
<title>Node9&#45;&gt;Node4</title>
<path fill="none" stroke="#191970" d="M968.306,-168.4369C908.5951,-156.9461 810.1324,-137.998 759.4181,-128.2385"/>
<polygon fill="#191970" stroke="#191970" points="759.8333,-124.7543 749.352,-126.3014 758.5104,-131.6282 759.8333,-124.7543"/>
</g>
<!-- Node9&#45;&gt;Node10 -->
<g id="edge12" class="edge">
<title>Node9&#45;&gt;Node10</title>
<path fill="none" stroke="#191970" d="M992.5927,-168.4509C939.2611,-148.4069 815.5733,-101.9202 754.8721,-79.1063"/>
<polygon fill="#191970" stroke="#191970" points="755.9351,-75.7668 745.343,-75.5249 753.4724,-82.3193 755.9351,-75.7668"/>
</g>
<!-- Node13 -->
<g id="node14" class="node">
<title>Node13</title>
<g id="a_node14"><a xlink:href="Span_8h.html" target="_top" xlink:title="iDynTree/Core/Span.h">
<polygon fill="none" stroke="#000000" points="953.5,-56.5 953.5,-75.5 1074.5,-75.5 1074.5,-56.5 953.5,-56.5"/>
<text text-anchor="middle" x="1014" y="-63.5" font-family="FreeSans.ttf" font-size="10.00" fill="#000000">iDynTree/Core/Span.h</text>
</a>
</g>
</g>
<!-- Node9&#45;&gt;Node13 -->
<g id="edge15" class="edge">
<title>Node9&#45;&gt;Node13</title>
<path fill="none" stroke="#191970" d="M982.0343,-168.454C963.6374,-161.5484 942.8785,-150.1556 932,-132 918.2626,-109.0729 946.9864,-90.8007 974.1382,-79.3478"/>
<polygon fill="#191970" stroke="#191970" points="975.6046,-82.5314 983.6043,-75.5848 973.0187,-76.0265 975.6046,-82.5314"/>
</g>
<!-- Node14 -->
<g id="node15" class="node">
<title>Node14</title>
<polygon fill="none" stroke="#bfbfbf" points="1275,-.5 1275,-19.5 1327,-19.5 1327,-.5 1275,-.5"/>
<text text-anchor="middle" x="1301" y="-7.5" font-family="FreeSans.ttf" font-size="10.00" fill="#000000">cassert</text>
</g>
<!-- Node9&#45;&gt;Node14 -->
<g id="edge27" class="edge">
<title>Node9&#45;&gt;Node14</title>
<path fill="none" stroke="#191970" d="M1098.7823,-168.7019C1171.5781,-159.5604 1269.1231,-145.111 1282,-132 1308.6798,-104.8352 1307.4833,-56.6331 1304.2499,-29.6648"/>
<polygon fill="#191970" stroke="#191970" points="1307.6824,-28.9407 1302.8148,-19.5303 1300.7515,-29.9222 1307.6824,-28.9407"/>
</g>
<!-- Node22 -->
<g id="node23" class="node">
<title>Node22</title>
<polygon fill="none" stroke="#bfbfbf" points="1009,-112.5 1009,-131.5 1065,-131.5 1065,-112.5 1009,-112.5"/>
<text text-anchor="middle" x="1037" y="-119.5" font-family="FreeSans.ttf" font-size="10.00" fill="#000000">sstream</text>
</g>
<!-- Node9&#45;&gt;Node22 -->
<g id="edge26" class="edge">
<title>Node9&#45;&gt;Node22</title>
<path fill="none" stroke="#191970" d="M1021.3095,-168.2455C1023.8433,-160.7776 1027.4177,-150.2427 1030.515,-141.1137"/>
<polygon fill="#191970" stroke="#191970" points="1033.8298,-142.237 1033.7284,-131.6427 1027.2009,-139.9879 1033.8298,-142.237"/>
</g>
<!-- Node23 -->
<g id="node24" class="node">
<title>Node23</title>
<polygon fill="none" stroke="#bfbfbf" points="941,-112.5 941,-131.5 991,-131.5 991,-112.5 941,-112.5"/>
<text text-anchor="middle" x="966" y="-119.5" font-family="FreeSans.ttf" font-size="10.00" fill="#000000">cstring</text>
</g>
<!-- Node9&#45;&gt;Node23 -->
<g id="edge28" class="edge">
<title>Node9&#45;&gt;Node23</title>
<path fill="none" stroke="#191970" d="M1008.9423,-168.2455C1001.4858,-160.2155 990.7366,-148.6394 981.8583,-139.0781"/>
<polygon fill="#191970" stroke="#191970" points="984.3232,-136.589 974.9539,-131.6427 979.1937,-141.3522 984.3232,-136.589"/>
</g>
<!-- Node11 -->
<g id="node12" class="node">
<title>Node11</title>
<polygon fill="none" stroke="#bfbfbf" points="693.5,-.5 693.5,-19.5 746.5,-19.5 746.5,-.5 693.5,-.5"/>
<text text-anchor="middle" x="720" y="-7.5" font-family="FreeSans.ttf" font-size="10.00" fill="#000000">cstddef</text>
</g>
<!-- Node10&#45;&gt;Node11 -->
<g id="edge13" class="edge">
<title>Node10&#45;&gt;Node11</title>
<path fill="none" stroke="#191970" d="M720,-56.2455C720,-48.9382 720,-38.6944 720,-29.7046"/>
<polygon fill="#191970" stroke="#191970" points="723.5001,-29.6426 720,-19.6427 716.5001,-29.6427 723.5001,-29.6426"/>
</g>
<!-- Node12 -->
<g id="node13" class="node">
<title>Node12</title>
<polygon fill="none" stroke="#bfbfbf" points="595,-.5 595,-19.5 675,-19.5 675,-.5 595,-.5"/>
<text text-anchor="middle" x="635" y="-7.5" font-family="FreeSans.ttf" font-size="10.00" fill="#000000">CoreExport.h</text>
</g>
<!-- Node10&#45;&gt;Node12 -->
<g id="edge14" class="edge">
<title>Node10&#45;&gt;Node12</title>
<path fill="none" stroke="#191970" d="M705.1941,-56.2455C692.2744,-47.7337 673.3069,-35.2375 658.3448,-25.3801"/>
<polygon fill="#191970" stroke="#191970" points="659.9124,-22.2216 649.6362,-19.6427 656.0613,-28.067 659.9124,-22.2216"/>
</g>
<!-- Node13&#45;&gt;Node11 -->
<g id="edge19" class="edge">
<title>Node13&#45;&gt;Node11</title>
<path fill="none" stroke="#191970" d="M953.4648,-56.8653C903.2281,-48.9072 829.7464,-36.398 756.5239,-19.9487"/>
<polygon fill="#191970" stroke="#191970" points="757.1919,-16.5113 746.665,-17.7092 755.6413,-23.3374 757.1919,-16.5113"/>
</g>
<!-- Node13&#45;&gt;Node14 -->
<g id="edge16" class="edge">
<title>Node13&#45;&gt;Node14</title>
<path fill="none" stroke="#191970" d="M1074.6796,-56.6327C1123.635,-48.6861 1194.4381,-36.3188 1264.7788,-20.1234"/>
<polygon fill="#191970" stroke="#191970" points="1265.7535,-23.4901 1274.6988,-17.8128 1264.1655,-16.6726 1265.7535,-23.4901"/>
</g>
<!-- Node15 -->
<g id="node16" class="node">
<title>Node15</title>
<polygon fill="none" stroke="#bfbfbf" points="911,-.5 911,-19.5 975,-19.5 975,-.5 911,-.5"/>
<text text-anchor="middle" x="943" y="-7.5" font-family="FreeSans.ttf" font-size="10.00" fill="#000000">algorithm</text>
</g>
<!-- Node13&#45;&gt;Node15 -->
<g id="edge17" class="edge">
<title>Node13&#45;&gt;Node15</title>
<path fill="none" stroke="#191970" d="M1001.6327,-56.2455C991.0446,-47.8943 975.5936,-35.7076 963.2107,-25.9408"/>
<polygon fill="#191970" stroke="#191970" points="965.2447,-23.0875 955.2255,-19.6427 960.9097,-28.5837 965.2447,-23.0875"/>
</g>
<!-- Node16 -->
<g id="node17" class="node">
<title>Node16</title>
<polygon fill="none" stroke="#bfbfbf" points="993,-.5 993,-19.5 1035,-19.5 1035,-.5 993,-.5"/>
<text text-anchor="middle" x="1014" y="-7.5" font-family="FreeSans.ttf" font-size="10.00" fill="#000000">array</text>
</g>
<!-- Node13&#45;&gt;Node16 -->
<g id="edge18" class="edge">
<title>Node13&#45;&gt;Node16</title>
<path fill="none" stroke="#191970" d="M1014,-56.2455C1014,-48.9382 1014,-38.6944 1014,-29.7046"/>
<polygon fill="#191970" stroke="#191970" points="1017.5001,-29.6426 1014,-19.6427 1010.5001,-29.6427 1017.5001,-29.6426"/>
</g>
<!-- Node17 -->
<g id="node18" class="node">
<title>Node17</title>
<polygon fill="none" stroke="#bfbfbf" points="1053.5,-.5 1053.5,-19.5 1106.5,-19.5 1106.5,-.5 1053.5,-.5"/>
<text text-anchor="middle" x="1080" y="-7.5" font-family="FreeSans.ttf" font-size="10.00" fill="#000000">iterator</text>
</g>
<!-- Node13&#45;&gt;Node17 -->
<g id="edge20" class="edge">
<title>Node13&#45;&gt;Node17</title>
<path fill="none" stroke="#191970" d="M1025.4963,-56.2455C1035.2442,-47.9746 1049.4259,-35.9416 1060.8798,-26.2232"/>
<polygon fill="#191970" stroke="#191970" points="1063.2747,-28.7813 1068.6354,-19.6427 1058.7459,-23.4437 1063.2747,-28.7813"/>
</g>
<!-- Node18 -->
<g id="node19" class="node">
<title>Node18</title>
<polygon fill="none" stroke="#bfbfbf" points="1125,-.5 1125,-19.5 1169,-19.5 1169,-.5 1125,-.5"/>
<text text-anchor="middle" x="1147" y="-7.5" font-family="FreeSans.ttf" font-size="10.00" fill="#000000">limits</text>
</g>
<!-- Node13&#45;&gt;Node18 -->
<g id="edge21" class="edge">
<title>Node13&#45;&gt;Node18</title>
<path fill="none" stroke="#191970" d="M1036.8635,-56.3733C1058.5355,-47.2482 1091.2779,-33.462 1115.4331,-23.2913"/>
<polygon fill="#191970" stroke="#191970" points="1117.0186,-26.4214 1124.8768,-19.315 1114.3022,-19.9699 1117.0186,-26.4214"/>
</g>
<!-- Node19 -->
<g id="node20" class="node">
<title>Node19</title>
<polygon fill="none" stroke="#bfbfbf" points="764.5,-.5 764.5,-19.5 829.5,-19.5 829.5,-.5 764.5,-.5"/>
<text text-anchor="middle" x="797" y="-7.5" font-family="FreeSans.ttf" font-size="10.00" fill="#000000">stdexcept</text>
</g>
<!-- Node13&#45;&gt;Node19 -->
<g id="edge22" class="edge">
<title>Node13&#45;&gt;Node19</title>
<path fill="none" stroke="#191970" d="M976.6964,-56.3733C938.491,-46.5138 879.1991,-31.2127 839.2773,-20.9103"/>
<polygon fill="#191970" stroke="#191970" points="840.127,-17.5149 829.5696,-18.4051 838.3778,-24.2929 840.127,-17.5149"/>
</g>
<!-- Node20 -->
<g id="node21" class="node">
<title>Node20</title>
<polygon fill="none" stroke="#bfbfbf" points="1187.5,-.5 1187.5,-19.5 1256.5,-19.5 1256.5,-.5 1187.5,-.5"/>
<text text-anchor="middle" x="1222" y="-7.5" font-family="FreeSans.ttf" font-size="10.00" fill="#000000">type_traits</text>
</g>
<!-- Node13&#45;&gt;Node20 -->
<g id="edge23" class="edge">
<title>Node13&#45;&gt;Node20</title>
<path fill="none" stroke="#191970" d="M1049.7565,-56.3733C1085.1559,-46.8426 1139.4414,-32.2273 1177.5867,-21.9574"/>
<polygon fill="#191970" stroke="#191970" points="1178.655,-25.2945 1187.4013,-19.315 1176.8352,-18.5352 1178.655,-25.2945"/>
</g>
<!-- Node21 -->
<g id="node22" class="node">
<title>Node21</title>
<polygon fill="none" stroke="#bfbfbf" points="847.5,-.5 847.5,-19.5 892.5,-19.5 892.5,-.5 847.5,-.5"/>
<text text-anchor="middle" x="870" y="-7.5" font-family="FreeSans.ttf" font-size="10.00" fill="#000000">utility</text>
</g>
<!-- Node13&#45;&gt;Node21 -->
<g id="edge24" class="edge">
<title>Node13&#45;&gt;Node21</title>
<path fill="none" stroke="#191970" d="M989.2455,-56.3733C965.1447,-47.0007 928.399,-32.7107 902.0707,-22.472"/>
<polygon fill="#191970" stroke="#191970" points="903.127,-19.1274 892.5383,-18.7649 900.5898,-25.6514 903.127,-19.1274"/>
</g>
<!-- Node24&#45;&gt;Node4 -->
<g id="edge53" class="edge">
<title>Node24&#45;&gt;Node4</title>
<path fill="none" stroke="#191970" d="M714.4008,-336.403C694.1137,-320.0594 654.9705,-284.6205 640,-244 624.1157,-200.9001 671.5311,-159.2162 702.4837,-137.4987"/>
<polygon fill="#191970" stroke="#191970" points="704.7746,-140.1743 711.0919,-131.6688 700.8494,-134.3784 704.7746,-140.1743"/>
</g>
<!-- Node25 -->
<g id="node26" class="node">
<title>Node25</title>
<g id="a_node26"><a xlink:href="PositionRaw_8h.html" target="_top" xlink:title="iDynTree/Core/PositionRaw.h">
<polygon fill="none" stroke="#000000" points="649,-224.5 649,-243.5 805,-243.5 805,-224.5 649,-224.5"/>
<text text-anchor="middle" x="727" y="-231.5" font-family="FreeSans.ttf" font-size="10.00" fill="#000000">iDynTree/Core/PositionRaw.h</text>
</a>
</g>
</g>
<!-- Node24&#45;&gt;Node25 -->
<g id="edge31" class="edge">
<title>Node24&#45;&gt;Node25</title>
<path fill="none" stroke="#191970" d="M727,-336.4509C727,-318.184 727,-277.9553 727,-253.6976"/>
<polygon fill="#191970" stroke="#191970" points="730.5001,-253.5249 727,-243.5249 723.5001,-253.5249 730.5001,-253.5249"/>
</g>
<!-- Node26 -->
<g id="node27" class="node">
<title>Node26</title>
<g id="a_node27"><a xlink:href="Rotation_8h.html" target="_top" xlink:title="iDynTree/Core/Rotation.h">
<polygon fill="none" stroke="#000000" points="885.5,-280.5 885.5,-299.5 1022.5,-299.5 1022.5,-280.5 885.5,-280.5"/>
<text text-anchor="middle" x="954" y="-287.5" font-family="FreeSans.ttf" font-size="10.00" fill="#000000">iDynTree/Core/Rotation.h</text>
</a>
</g>
</g>
<!-- Node24&#45;&gt;Node26 -->
<g id="edge34" class="edge">
<title>Node24&#45;&gt;Node26</title>
<path fill="none" stroke="#191970" d="M765.7648,-336.4369C804.3692,-326.9133 863.7384,-312.2672 905.4572,-301.9753"/>
<polygon fill="#191970" stroke="#191970" points="906.5245,-305.317 915.3951,-299.5237 904.8479,-298.5208 906.5245,-305.317"/>
</g>
<!-- Node25&#45;&gt;Node4 -->
<g id="edge33" class="edge">
<title>Node25&#45;&gt;Node4</title>
<path fill="none" stroke="#191970" d="M727,-224.4509C727,-206.184 727,-165.9553 727,-141.6976"/>
<polygon fill="#191970" stroke="#191970" points="730.5001,-141.5249 727,-131.5249 723.5001,-141.5249 730.5001,-141.5249"/>
</g>
<!-- Node25&#45;&gt;Node9 -->
<g id="edge32" class="edge">
<title>Node25&#45;&gt;Node9</title>
<path fill="none" stroke="#191970" d="M776.694,-224.4369C827.0196,-214.7522 904.8723,-199.7703 958.4651,-189.4569"/>
<polygon fill="#191970" stroke="#191970" points="959.3525,-192.8504 968.5109,-187.5237 958.0297,-185.9765 959.3525,-192.8504"/>
</g>
<!-- Node26&#45;&gt;Node4 -->
<g id="edge35" class="edge">
<title>Node26&#45;&gt;Node4</title>
<path fill="none" stroke="#191970" d="M936.6598,-280.3953C922.8013,-272.0932 903.5238,-259.0741 890,-244 864.0833,-215.1123 876.4067,-193.3263 847,-168 821.7772,-146.2771 785.1959,-134.2503 759.0623,-127.9961"/>
<polygon fill="#191970" stroke="#191970" points="759.7816,-124.5705 749.2585,-125.8015 758.2524,-131.4015 759.7816,-124.5705"/>
</g>
<!-- Node26&#45;&gt;Node9 -->
<g id="edge52" class="edge">
<title>Node26&#45;&gt;Node9</title>
<path fill="none" stroke="#191970" d="M1010.6366,-280.4697C1031.653,-273.8875 1053.4176,-262.77 1066,-244 1077.7966,-226.4022 1059.4356,-206.8445 1042.1227,-193.6205"/>
<polygon fill="#191970" stroke="#191970" points="1044.0083,-190.6655 1033.8446,-187.6738 1039.9243,-196.3507 1044.0083,-190.6655"/>
</g>
<!-- Node27 -->
<g id="node28" class="node">
<title>Node27</title>
<g id="a_node28"><a xlink:href="GeomVector3_8h.html" target="_top" xlink:title="iDynTree/Core/GeomVector3.h">
<polygon fill="none" stroke="#000000" points="1113.5,-224.5 1113.5,-243.5 1276.5,-243.5 1276.5,-224.5 1113.5,-224.5"/>
<text text-anchor="middle" x="1195" y="-231.5" font-family="FreeSans.ttf" font-size="10.00" fill="#000000">iDynTree/Core/GeomVector3.h</text>
</a>
</g>
</g>
<!-- Node26&#45;&gt;Node27 -->
<g id="edge36" class="edge">
<title>Node26&#45;&gt;Node27</title>
<path fill="none" stroke="#191970" d="M995.1555,-280.4369C1036.3142,-270.8731 1099.705,-256.1432 1144.0242,-245.845"/>
<polygon fill="#191970" stroke="#191970" points="1145.0659,-249.1963 1154.0142,-243.5237 1143.4815,-242.3779 1145.0659,-249.1963"/>
</g>
<!-- Node28 -->
<g id="node29" class="node">
<title>Node28</title>
<g id="a_node29"><a xlink:href="RotationRaw_8h.html" target="_top" xlink:title="iDynTree/Core/RotationRaw.h">
<polygon fill="none" stroke="#000000" points="899,-224.5 899,-243.5 1057,-243.5 1057,-224.5 899,-224.5"/>
<text text-anchor="middle" x="978" y="-231.5" font-family="FreeSans.ttf" font-size="10.00" fill="#000000">iDynTree/Core/RotationRaw.h</text>
</a>
</g>
</g>
<!-- Node26&#45;&gt;Node28 -->
<g id="edge38" class="edge">
<title>Node26&#45;&gt;Node28</title>
<path fill="none" stroke="#191970" d="M958.1805,-280.2455C961.381,-272.7776 965.896,-262.2427 969.8084,-253.1137"/>
<polygon fill="#191970" stroke="#191970" points="973.1452,-254.2129 973.8674,-243.6427 966.7112,-251.4554 973.1452,-254.2129"/>
</g>
<!-- Node27&#45;&gt;Node9 -->
<g id="edge37" class="edge">
<title>Node27&#45;&gt;Node9</title>
<path fill="none" stroke="#191970" d="M1164.5726,-224.3733C1135.0128,-215.021 1089.9774,-200.7725 1057.6305,-190.5385"/>
<polygon fill="#191970" stroke="#191970" points="1058.6203,-187.1807 1048.0303,-187.5011 1056.5087,-193.8546 1058.6203,-187.1807"/>
</g>
<!-- Node28&#45;&gt;Node4 -->
<g id="edge51" class="edge">
<title>Node28&#45;&gt;Node4</title>
<path fill="none" stroke="#191970" d="M967.038,-224.3404C950.3947,-210.1308 917.2639,-183.5952 885,-168 843.5697,-147.9741 791.7274,-134.9382 758.9755,-128.0239"/>
<polygon fill="#191970" stroke="#191970" points="759.5486,-124.5687 749.05,-125.993 758.1453,-131.4267 759.5486,-124.5687"/>
</g>
<!-- Node29 -->
<g id="node30" class="node">
<title>Node29</title>
<g id="a_node30"><a xlink:href="MatrixFixSize_8h.html" target="_top" xlink:title="iDynTree/Core/MatrixFixSize.h">
<polygon fill="none" stroke="#000000" points="1116.5,-168.5 1116.5,-187.5 1277.5,-187.5 1277.5,-168.5 1116.5,-168.5"/>
<text text-anchor="middle" x="1197" y="-175.5" font-family="FreeSans.ttf" font-size="10.00" fill="#000000">iDynTree/Core/MatrixFixSize.h</text>
</a>
</g>
</g>
<!-- Node28&#45;&gt;Node29 -->
<g id="edge39" class="edge">
<title>Node28&#45;&gt;Node29</title>
<path fill="none" stroke="#191970" d="M1015.6474,-224.3733C1052.852,-214.8598 1109.8703,-200.2797 1150.0216,-190.0127"/>
<polygon fill="#191970" stroke="#191970" points="1151.0227,-193.3695 1159.8438,-187.5011 1149.2884,-186.5877 1151.0227,-193.3695"/>
</g>
<!-- Node29&#45;&gt;Node4 -->
<g id="edge48" class="edge">
<title>Node29&#45;&gt;Node4</title>
<path fill="none" stroke="#191970" d="M1117.0047,-168.4686C1011.8562,-155.9403 831.9733,-134.5075 759.0824,-125.8226"/>
<polygon fill="#191970" stroke="#191970" points="759.4698,-122.3441 749.1259,-124.6363 758.6416,-129.2949 759.4698,-122.3441"/>
</g>
<!-- Node29&#45;&gt;Node10 -->
<g id="edge40" class="edge">
<title>Node29&#45;&gt;Node10</title>
<path fill="none" stroke="#191970" d="M1179.5836,-168.4397C1146.9977,-150.5828 1079.5807,-113.7929 1074,-112 1022.6345,-95.4979 877.3973,-80.1652 789.732,-72.0442"/>
<polygon fill="#191970" stroke="#191970" points="789.8773,-68.5429 779.5991,-71.1138 789.2372,-75.5136 789.8773,-68.5429"/>
</g>
<!-- Node29&#45;&gt;Node14 -->
<g id="edge46" class="edge">
<title>Node29&#45;&gt;Node14</title>
<path fill="none" stroke="#191970" d="M1234.0228,-168.4827C1264.95,-159.6952 1305.4777,-145.9323 1315,-132 1336.252,-100.9055 1321.506,-54.6289 1310.3245,-28.9313"/>
<polygon fill="#191970" stroke="#191970" points="1313.3757,-27.1899 1306.0093,-19.5751 1307.0192,-30.1217 1313.3757,-27.1899"/>
</g>
<!-- Node29&#45;&gt;Node22 -->
<g id="edge50" class="edge">
<title>Node29&#45;&gt;Node22</title>
<path fill="none" stroke="#191970" d="M1169.495,-168.3733C1143.1198,-159.1419 1103.1149,-145.1402 1073.9642,-134.9375"/>
<polygon fill="#191970" stroke="#191970" points="1074.7409,-131.5012 1064.1461,-131.5011 1072.4284,-138.1082 1074.7409,-131.5012"/>
</g>
<!-- Node29&#45;&gt;Node23 -->
<g id="edge47" class="edge">
<title>Node29&#45;&gt;Node23</title>
<path fill="none" stroke="#191970" d="M1153.0075,-168.4769C1115.1566,-160.1155 1058.8743,-147.2851 1001.2226,-132.2225"/>
<polygon fill="#191970" stroke="#191970" points="1001.768,-128.7469 991.2065,-129.5864 999.9863,-135.5164 1001.768,-128.7469"/>
</g>
<!-- Node30 -->
<g id="node31" class="node">
<title>Node30</title>
<g id="a_node31"><a xlink:href="MatrixView_8h.html" target="_top" xlink:title="iDynTree/Core/MatrixView.h">
<polygon fill="none" stroke="#000000" points="1121.5,-112.5 1121.5,-131.5 1272.5,-131.5 1272.5,-112.5 1121.5,-112.5"/>
<text text-anchor="middle" x="1197" y="-119.5" font-family="FreeSans.ttf" font-size="10.00" fill="#000000">iDynTree/Core/MatrixView.h</text>
</a>
</g>
</g>
<!-- Node29&#45;&gt;Node30 -->
<g id="edge41" class="edge">
<title>Node29&#45;&gt;Node30</title>
<path fill="none" stroke="#191970" d="M1197,-168.2455C1197,-160.9382 1197,-150.6944 1197,-141.7046"/>
<polygon fill="#191970" stroke="#191970" points="1200.5001,-141.6426 1197,-131.6427 1193.5001,-141.6427 1200.5001,-141.6426"/>
</g>
<!-- Node31 -->
<g id="node32" class="node">
<title>Node31</title>
<polygon fill="none" stroke="#bfbfbf" points="1367,-112.5 1367,-131.5 1427,-131.5 1427,-112.5 1367,-112.5"/>
<text text-anchor="middle" x="1397" y="-119.5" font-family="FreeSans.ttf" font-size="10.00" fill="#000000">iostream</text>
</g>
<!-- Node29&#45;&gt;Node31 -->
<g id="edge49" class="edge">
<title>Node29&#45;&gt;Node31</title>
<path fill="none" stroke="#191970" d="M1231.3812,-168.3733C1266.2951,-158.5974 1320.3156,-143.4716 1357.0955,-133.1733"/>
<polygon fill="#191970" stroke="#191970" points="1358.296,-136.4718 1366.9819,-130.4051 1356.4085,-129.7311 1358.296,-136.4718"/>
</g>
<!-- Node30&#45;&gt;Node10 -->
<g id="edge45" class="edge">
<title>Node30&#45;&gt;Node10</title>
<path fill="none" stroke="#191970" d="M1121.4179,-113.1266C1030.2299,-102.4211 878.1773,-84.5701 789.7035,-74.1832"/>
<polygon fill="#191970" stroke="#191970" points="790.1046,-70.7064 779.7647,-73.0164 789.2883,-77.6586 790.1046,-70.7064"/>
</g>
<!-- Node30&#45;&gt;Node13 -->
<g id="edge44" class="edge">
<title>Node30&#45;&gt;Node13</title>
<path fill="none" stroke="#191970" d="M1165.5412,-112.3733C1134.9793,-103.021 1088.4174,-88.7725 1054.9739,-78.5385"/>
<polygon fill="#191970" stroke="#191970" points="1055.6348,-75.0806 1045.0483,-75.5011 1053.5864,-81.7742 1055.6348,-75.0806"/>
</g>
<!-- Node30&#45;&gt;Node14 -->
<g id="edge42" class="edge">
<title>Node30&#45;&gt;Node14</title>
<path fill="none" stroke="#191970" d="M1205.867,-112.4509C1223.4432,-93.5227 1262.9155,-51.014 1285.0955,-27.1279"/>
<polygon fill="#191970" stroke="#191970" points="1287.9157,-29.2344 1292.1555,-19.5249 1282.7861,-24.4713 1287.9157,-29.2344"/>
</g>
<!-- Node30&#45;&gt;Node20 -->
<g id="edge43" class="edge">
<title>Node30&#45;&gt;Node20</title>
<path fill="none" stroke="#191970" d="M1199.1315,-112.4509C1203.2274,-94.1013 1212.2699,-53.5908 1217.6765,-29.3693"/>
<polygon fill="#191970" stroke="#191970" points="1221.1112,-30.0472 1219.8739,-19.5249 1214.2794,-28.5222 1221.1112,-30.0472"/>
</g>
<!-- Node32&#45;&gt;Node4 -->
<g id="edge59" class="edge">
<title>Node32&#45;&gt;Node4</title>
<path fill="none" stroke="#191970" d="M833,-392.4116C833,-373.0538 833,-327.9167 833,-290 833,-290 833,-290 833,-234 833,-188.9213 787.1435,-154.6897 755.7528,-136.5376"/>
<polygon fill="#191970" stroke="#191970" points="757.3786,-133.437 746.9378,-131.6372 753.9774,-139.5552 757.3786,-133.437"/>
</g>
<!-- Node32&#45;&gt;Node24 -->
<g id="edge56" class="edge">
<title>Node32&#45;&gt;Node24</title>
<path fill="none" stroke="#191970" d="M814.5362,-392.2455C797.8926,-383.4527 773.2007,-370.4079 754.2808,-360.4125"/>
<polygon fill="#191970" stroke="#191970" points="755.7291,-357.2193 745.2522,-355.6427 752.4592,-363.4086 755.7291,-357.2193"/>
</g>
<!-- Node32&#45;&gt;Node26 -->
<g id="edge57" class="edge">
<title>Node32&#45;&gt;Node26</title>
<path fill="none" stroke="#191970" d="M843.3164,-392.4509C863.9442,-373.3574 910.4943,-330.2697 936.1672,-306.5063"/>
<polygon fill="#191970" stroke="#191970" points="938.7485,-308.8864 943.7097,-299.5249 933.9935,-303.7492 938.7485,-308.8864"/>
</g>
<!-- Node32&#45;&gt;Node29 -->
<g id="edge58" class="edge">
<title>Node32&#45;&gt;Node29</title>
<path fill="none" stroke="#191970" d="M881.2228,-392.4575C987.7851,-370.2899 1237.7067,-311.9905 1286,-244 1302.4344,-220.8626 1270.3674,-202.4733 1240.2437,-191.0439"/>
<polygon fill="#191970" stroke="#191970" points="1241.19,-187.6649 1230.5955,-187.5804 1238.8249,-194.2533 1241.19,-187.6649"/>
</g>
</g>
</svg>
