<?xml version="1.0" encoding="UTF-8" standalone="no"?>
<!DOCTYPE svg PUBLIC "-//W3C//DTD SVG 1.1//EN"
 "http://www.w3.org/Graphics/SVG/1.1/DTD/svg11.dtd">
<!-- Generated by graphviz version 2.40.1 (20161225.0304)
 -->
<!-- Title: JointState.h Pages: 1 -->
<svg width="1019pt" height="543pt"
 viewBox="0.00 0.00 1019.00 543.00" xmlns="http://www.w3.org/2000/svg" xmlns:xlink="http://www.w3.org/1999/xlink">
<g id="graph0" class="graph" transform="scale(1 1) rotate(0) translate(4 539)">
<title>JointState.h</title>
<!-- Node0 -->
<g id="node1" class="node">
<title>Node0</title>
<polygon fill="#bfbfbf" stroke="#000000" points="848,-515.5 848,-534.5 921,-534.5 921,-515.5 848,-515.5"/>
<text text-anchor="middle" x="884.5" y="-522.5" font-family="FreeSans.ttf" font-size="10.00" fill="#000000">JointState.h</text>
</g>
<!-- Node1 -->
<g id="node2" class="node">
<title>Node1</title>
<g id="a_node2"><a xlink:href="VectorFixSize_8h.html" target="_top" xlink:title="iDynTree/Core/VectorFixSize.h">
<polygon fill="none" stroke="#000000" points="669,-168.5 669,-187.5 830,-187.5 830,-168.5 669,-168.5"/>
<text text-anchor="middle" x="749.5" y="-175.5" font-family="FreeSans.ttf" font-size="10.00" fill="#000000">iDynTree/Core/VectorFixSize.h</text>
</a>
</g>
</g>
<!-- Node0&#45;&gt;Node1 -->
<g id="edge1" class="edge">
<title>Node0&#45;&gt;Node1</title>
<path fill="none" stroke="#191970" d="M892.751,-515.4123C899.9989,-506.5236 910.3246,-492.6498 916.5,-479 931.0293,-446.8851 935.5,-437.2487 935.5,-402 935.5,-402 935.5,-402 935.5,-290 935.5,-232.5137 869.4889,-203.7718 816.1167,-189.9281"/>
<polygon fill="#191970" stroke="#191970" points="816.8638,-186.5076 806.3168,-187.513 815.1888,-193.3042 816.8638,-186.5076"/>
</g>
<!-- Node17 -->
<g id="node18" class="node">
<title>Node17</title>
<g id="a_node18"><a xlink:href="VectorDynSize_8h.html" target="_top" xlink:title="iDynTree/Core/VectorDynSize.h">
<polygon fill="none" stroke="#000000" points="0,-168.5 0,-187.5 167,-187.5 167,-168.5 0,-168.5"/>
<text text-anchor="middle" x="83.5" y="-175.5" font-family="FreeSans.ttf" font-size="10.00" fill="#000000">iDynTree/Core/VectorDynSize.h</text>
</a>
</g>
</g>
<!-- Node0&#45;&gt;Node17 -->
<g id="edge19" class="edge">
<title>Node0&#45;&gt;Node17</title>
<path fill="none" stroke="#191970" d="M847.8602,-523.0328C695.4389,-514.3711 119.5,-476.6997 119.5,-402 119.5,-402 119.5,-402 119.5,-290 119.5,-255.7942 104.0926,-218.4094 93.4369,-196.6445"/>
<polygon fill="#191970" stroke="#191970" points="96.4659,-194.8795 88.8119,-187.5538 90.227,-198.0537 96.4659,-194.8795"/>
</g>
<!-- Node18 -->
<g id="node19" class="node">
<title>Node18</title>
<g id="a_node19"><a xlink:href="SpatialForceVector_8h.html" target="_top" xlink:title="iDynTree/Core/SpatialForce\lVector.h">
<polygon fill="none" stroke="#000000" points="759.5,-448.5 759.5,-478.5 907.5,-478.5 907.5,-448.5 759.5,-448.5"/>
<text text-anchor="start" x="767.5" y="-466.5" font-family="FreeSans.ttf" font-size="10.00" fill="#000000">iDynTree/Core/SpatialForce</text>
<text text-anchor="middle" x="833.5" y="-455.5" font-family="FreeSans.ttf" font-size="10.00" fill="#000000">Vector.h</text>
</a>
</g>
</g>
<!-- Node0&#45;&gt;Node18 -->
<g id="edge22" class="edge">
<title>Node0&#45;&gt;Node18</title>
<path fill="none" stroke="#191970" d="M876.5313,-515.3906C870.0764,-507.6068 860.7168,-496.3202 852.3739,-486.2597"/>
<polygon fill="#191970" stroke="#191970" points="855.0536,-484.008 845.976,-478.5446 849.6652,-488.4764 855.0536,-484.008"/>
</g>
<!-- Node28 -->
<g id="node29" class="node">
<title>Node28</title>
<polygon fill="none" stroke="#bfbfbf" points="964,-454 964,-473 1011,-473 1011,-454 964,-454"/>
<text text-anchor="middle" x="987.5" y="-461" font-family="FreeSans.ttf" font-size="10.00" fill="#000000">vector</text>
</g>
<!-- Node0&#45;&gt;Node28 -->
<g id="edge55" class="edge">
<title>Node0&#45;&gt;Node28</title>
<path fill="none" stroke="#191970" d="M900.5938,-515.3906C917.2228,-505.4616 943.3976,-489.833 962.6794,-478.3201"/>
<polygon fill="#191970" stroke="#191970" points="964.7276,-481.1736 971.5193,-473.0419 961.139,-475.1634 964.7276,-481.1736"/>
</g>
<!-- Node2 -->
<g id="node3" class="node">
<title>Node2</title>
<g id="a_node3"><a xlink:href="Utils_8h.html" target="_top" xlink:title="iDynTree/Core/Utils.h">
<polygon fill="none" stroke="#000000" points="692,-56.5 692,-75.5 811,-75.5 811,-56.5 692,-56.5"/>
<text text-anchor="middle" x="751.5" y="-63.5" font-family="FreeSans.ttf" font-size="10.00" fill="#000000">iDynTree/Core/Utils.h</text>
</a>
</g>
</g>
<!-- Node1&#45;&gt;Node2 -->
<g id="edge2" class="edge">
<title>Node1&#45;&gt;Node2</title>
<path fill="none" stroke="#191970" d="M754.4585,-168.4444C758.878,-159.352 765.0195,-145.1462 767.5,-132 770.5014,-116.0931 765.6813,-98.2645 760.5659,-85.1509"/>
<polygon fill="#191970" stroke="#191970" points="763.7018,-83.583 756.544,-75.7717 757.2684,-86.3418 763.7018,-83.583"/>
</g>
<!-- Node5 -->
<g id="node6" class="node">
<title>Node5</title>
<g id="a_node6"><a xlink:href="Span_8h.html" target="_top" xlink:title="iDynTree/Core/Span.h">
<polygon fill="none" stroke="#000000" points="347,-56.5 347,-75.5 468,-75.5 468,-56.5 347,-56.5"/>
<text text-anchor="middle" x="407.5" y="-63.5" font-family="FreeSans.ttf" font-size="10.00" fill="#000000">iDynTree/Core/Span.h</text>
</a>
</g>
</g>
<!-- Node1&#45;&gt;Node5 -->
<g id="edge5" class="edge">
<title>Node1&#45;&gt;Node5</title>
<path fill="none" stroke="#191970" d="M668.9267,-168.7776C587.6236,-158.947 471.5589,-143.2753 453.5,-132 435.8125,-120.9566 423.1102,-100.3467 415.5942,-85.0844"/>
<polygon fill="#191970" stroke="#191970" points="418.7648,-83.6016 411.4038,-75.9814 412.4061,-86.5288 418.7648,-83.6016"/>
</g>
<!-- Node6 -->
<g id="node7" class="node">
<title>Node6</title>
<polygon fill="none" stroke="#bfbfbf" points="662.5,-.5 662.5,-19.5 714.5,-19.5 714.5,-.5 662.5,-.5"/>
<text text-anchor="middle" x="688.5" y="-7.5" font-family="FreeSans.ttf" font-size="10.00" fill="#000000">cassert</text>
</g>
<!-- Node1&#45;&gt;Node6 -->
<g id="edge17" class="edge">
<title>Node1&#45;&gt;Node6</title>
<path fill="none" stroke="#191970" d="M819.4749,-168.4531C856.9112,-159.6618 892.8372,-143.0474 879.5,-112 865.2303,-78.782 851.3721,-74.8142 820.5,-56 804.1141,-46.014 757.6015,-30.8119 724.4358,-20.6487"/>
<polygon fill="#191970" stroke="#191970" points="725.2052,-17.2246 714.6196,-17.6677 723.1711,-23.9225 725.2052,-17.2246"/>
</g>
<!-- Node14 -->
<g id="node15" class="node">
<title>Node14</title>
<polygon fill="none" stroke="#bfbfbf" points="284.5,-112.5 284.5,-131.5 328.5,-131.5 328.5,-112.5 284.5,-112.5"/>
<text text-anchor="middle" x="306.5" y="-119.5" font-family="FreeSans.ttf" font-size="10.00" fill="#000000">string</text>
</g>
<!-- Node1&#45;&gt;Node14 -->
<g id="edge15" class="edge">
<title>Node1&#45;&gt;Node14</title>
<path fill="none" stroke="#191970" d="M668.7106,-169.4006C563.2505,-158.1194 387.1749,-139.0746 338.7989,-131.5531"/>
<polygon fill="#191970" stroke="#191970" points="339.1646,-128.0631 328.7055,-129.7532 337.9357,-134.9544 339.1646,-128.0631"/>
</g>
<!-- Node15 -->
<g id="node16" class="node">
<title>Node15</title>
<polygon fill="none" stroke="#bfbfbf" points="814.5,-112.5 814.5,-131.5 870.5,-131.5 870.5,-112.5 814.5,-112.5"/>
<text text-anchor="middle" x="842.5" y="-119.5" font-family="FreeSans.ttf" font-size="10.00" fill="#000000">sstream</text>
</g>
<!-- Node1&#45;&gt;Node15 -->
<g id="edge16" class="edge">
<title>Node1&#45;&gt;Node15</title>
<path fill="none" stroke="#191970" d="M765.6994,-168.2455C780.1018,-159.5731 801.3732,-146.7645 817.8799,-136.825"/>
<polygon fill="#191970" stroke="#191970" points="819.725,-139.7996 826.4863,-131.6427 816.114,-133.8028 819.725,-139.7996"/>
</g>
<!-- Node16 -->
<g id="node17" class="node">
<title>Node16</title>
<polygon fill="none" stroke="#bfbfbf" points="708.5,-112.5 708.5,-131.5 758.5,-131.5 758.5,-112.5 708.5,-112.5"/>
<text text-anchor="middle" x="733.5" y="-119.5" font-family="FreeSans.ttf" font-size="10.00" fill="#000000">cstring</text>
</g>
<!-- Node1&#45;&gt;Node16 -->
<g id="edge18" class="edge">
<title>Node1&#45;&gt;Node16</title>
<path fill="none" stroke="#191970" d="M746.713,-168.2455C744.6023,-160.8579 741.634,-150.4689 739.0453,-141.4087"/>
<polygon fill="#191970" stroke="#191970" points="742.3677,-140.2964 736.255,-131.6427 735.637,-142.2195 742.3677,-140.2964"/>
</g>
<!-- Node3 -->
<g id="node4" class="node">
<title>Node3</title>
<polygon fill="none" stroke="#bfbfbf" points="591,-.5 591,-19.5 644,-19.5 644,-.5 591,-.5"/>
<text text-anchor="middle" x="617.5" y="-7.5" font-family="FreeSans.ttf" font-size="10.00" fill="#000000">cstddef</text>
</g>
<!-- Node2&#45;&gt;Node3 -->
<g id="edge3" class="edge">
<title>Node2&#45;&gt;Node3</title>
<path fill="none" stroke="#191970" d="M728.4646,-56.3733C706.7612,-47.3032 674.0382,-33.6279 649.745,-23.4755"/>
<polygon fill="#191970" stroke="#191970" points="650.8111,-20.1278 640.2348,-19.5011 648.1119,-26.5865 650.8111,-20.1278"/>
</g>
<!-- Node4 -->
<g id="node5" class="node">
<title>Node4</title>
<polygon fill="none" stroke="#bfbfbf" points="732.5,-.5 732.5,-19.5 812.5,-19.5 812.5,-.5 732.5,-.5"/>
<text text-anchor="middle" x="772.5" y="-7.5" font-family="FreeSans.ttf" font-size="10.00" fill="#000000">CoreExport.h</text>
</g>
<!-- Node2&#45;&gt;Node4 -->
<g id="edge4" class="edge">
<title>Node2&#45;&gt;Node4</title>
<path fill="none" stroke="#191970" d="M755.1579,-56.2455C757.9584,-48.7776 761.909,-38.2427 765.3324,-29.1137"/>
<polygon fill="#191970" stroke="#191970" points="768.6499,-30.2349 768.884,-19.6427 762.0955,-27.777 768.6499,-30.2349"/>
</g>
<!-- Node5&#45;&gt;Node3 -->
<g id="edge9" class="edge">
<title>Node5&#45;&gt;Node3</title>
<path fill="none" stroke="#191970" d="M444.7722,-56.4476C478.1647,-47.835 528.7272,-34.6606 580.989,-20.3807"/>
<polygon fill="#191970" stroke="#191970" points="582.0439,-23.7207 590.7634,-17.7023 580.1939,-16.9695 582.0439,-23.7207"/>
</g>
<!-- Node5&#45;&gt;Node6 -->
<g id="edge6" class="edge">
<title>Node5&#45;&gt;Node6</title>
<path fill="none" stroke="#191970" d="M466.9761,-56.4809C514.6573,-48.4851 583.4598,-36.1337 652.076,-20.1803"/>
<polygon fill="#191970" stroke="#191970" points="653.2627,-23.4968 662.1959,-17.8005 651.6602,-16.6827 653.2627,-23.4968"/>
</g>
<!-- Node7 -->
<g id="node8" class="node">
<title>Node7</title>
<polygon fill="none" stroke="#bfbfbf" points="421.5,-.5 421.5,-19.5 485.5,-19.5 485.5,-.5 421.5,-.5"/>
<text text-anchor="middle" x="453.5" y="-7.5" font-family="FreeSans.ttf" font-size="10.00" fill="#000000">algorithm</text>
</g>
<!-- Node5&#45;&gt;Node7 -->
<g id="edge7" class="edge">
<title>Node5&#45;&gt;Node7</title>
<path fill="none" stroke="#191970" d="M415.5126,-56.2455C421.9768,-48.3761 431.2385,-37.101 438.9983,-27.6542"/>
<polygon fill="#191970" stroke="#191970" points="441.9364,-29.5916 445.5792,-19.6427 436.5273,-25.1484 441.9364,-29.5916"/>
</g>
<!-- Node8 -->
<g id="node9" class="node">
<title>Node8</title>
<polygon fill="none" stroke="#bfbfbf" points="80.5,-.5 80.5,-19.5 122.5,-19.5 122.5,-.5 80.5,-.5"/>
<text text-anchor="middle" x="101.5" y="-7.5" font-family="FreeSans.ttf" font-size="10.00" fill="#000000">array</text>
</g>
<!-- Node5&#45;&gt;Node8 -->
<g id="edge8" class="edge">
<title>Node5&#45;&gt;Node8</title>
<path fill="none" stroke="#191970" d="M346.9121,-58.6809C292.9259,-51.5326 211.6915,-39.2402 132.7927,-20.0221"/>
<polygon fill="#191970" stroke="#191970" points="133.2326,-16.5253 122.6844,-17.518 131.5494,-23.3199 133.2326,-16.5253"/>
</g>
<!-- Node9 -->
<g id="node10" class="node">
<title>Node9</title>
<polygon fill="none" stroke="#bfbfbf" points="141,-.5 141,-19.5 194,-19.5 194,-.5 141,-.5"/>
<text text-anchor="middle" x="167.5" y="-7.5" font-family="FreeSans.ttf" font-size="10.00" fill="#000000">iterator</text>
</g>
<!-- Node5&#45;&gt;Node9 -->
<g id="edge10" class="edge">
<title>Node5&#45;&gt;Node9</title>
<path fill="none" stroke="#191970" d="M362.3777,-56.4919C323.125,-48.0711 264.4877,-35.1342 204.2667,-20.1028"/>
<polygon fill="#191970" stroke="#191970" points="204.749,-16.6152 194.1976,-17.5733 203.0435,-23.4043 204.749,-16.6152"/>
</g>
<!-- Node10 -->
<g id="node11" class="node">
<title>Node10</title>
<polygon fill="none" stroke="#bfbfbf" points="212.5,-.5 212.5,-19.5 256.5,-19.5 256.5,-.5 212.5,-.5"/>
<text text-anchor="middle" x="234.5" y="-7.5" font-family="FreeSans.ttf" font-size="10.00" fill="#000000">limits</text>
</g>
<!-- Node5&#45;&gt;Node10 -->
<g id="edge11" class="edge">
<title>Node5&#45;&gt;Node10</title>
<path fill="none" stroke="#191970" d="M377.7602,-56.3733C346.7265,-46.3276 298.2409,-30.6329 266.4188,-20.3321"/>
<polygon fill="#191970" stroke="#191970" points="267.3076,-16.941 256.7157,-17.1912 265.1518,-23.6008 267.3076,-16.941"/>
</g>
<!-- Node11 -->
<g id="node12" class="node">
<title>Node11</title>
<polygon fill="none" stroke="#bfbfbf" points="275,-.5 275,-19.5 340,-19.5 340,-.5 275,-.5"/>
<text text-anchor="middle" x="307.5" y="-7.5" font-family="FreeSans.ttf" font-size="10.00" fill="#000000">stdexcept</text>
</g>
<!-- Node5&#45;&gt;Node11 -->
<g id="edge12" class="edge">
<title>Node5&#45;&gt;Node11</title>
<path fill="none" stroke="#191970" d="M390.0813,-56.2455C374.4515,-47.4928 351.2981,-34.527 333.4815,-24.5496"/>
<polygon fill="#191970" stroke="#191970" points="335.1543,-21.475 324.7191,-19.6427 331.734,-27.5825 335.1543,-21.475"/>
</g>
<!-- Node12 -->
<g id="node13" class="node">
<title>Node12</title>
<polygon fill="none" stroke="#bfbfbf" points="504,-.5 504,-19.5 573,-19.5 573,-.5 504,-.5"/>
<text text-anchor="middle" x="538.5" y="-7.5" font-family="FreeSans.ttf" font-size="10.00" fill="#000000">type_traits</text>
</g>
<!-- Node5&#45;&gt;Node12 -->
<g id="edge13" class="edge">
<title>Node5&#45;&gt;Node12</title>
<path fill="none" stroke="#191970" d="M430.0197,-56.3733C451.2372,-47.3032 483.2276,-33.6279 506.9769,-23.4755"/>
<polygon fill="#191970" stroke="#191970" points="508.4548,-26.6502 516.2742,-19.5011 505.7033,-20.2136 508.4548,-26.6502"/>
</g>
<!-- Node13 -->
<g id="node14" class="node">
<title>Node13</title>
<polygon fill="none" stroke="#bfbfbf" points="358,-.5 358,-19.5 403,-19.5 403,-.5 358,-.5"/>
<text text-anchor="middle" x="380.5" y="-7.5" font-family="FreeSans.ttf" font-size="10.00" fill="#000000">utility</text>
</g>
<!-- Node5&#45;&gt;Node13 -->
<g id="edge14" class="edge">
<title>Node5&#45;&gt;Node13</title>
<path fill="none" stroke="#191970" d="M402.797,-56.2455C399.1576,-48.6973 394.0076,-38.0158 389.5738,-28.8197"/>
<polygon fill="#191970" stroke="#191970" points="392.6449,-27.1303 385.1491,-19.6427 386.3395,-30.1704 392.6449,-27.1303"/>
</g>
<!-- Node17&#45;&gt;Node5 -->
<g id="edge20" class="edge">
<title>Node17&#45;&gt;Node5</title>
<path fill="none" stroke="#191970" d="M111.1241,-168.4509C169.3479,-148.3242 304.6985,-101.5363 370.3983,-78.8253"/>
<polygon fill="#191970" stroke="#191970" points="371.6381,-82.1 379.9459,-75.5249 369.3511,-75.4841 371.6381,-82.1"/>
</g>
<!-- Node17&#45;&gt;Node14 -->
<g id="edge21" class="edge">
<title>Node17&#45;&gt;Node14</title>
<path fill="none" stroke="#191970" d="M121.5817,-168.4369C164.724,-157.6029 234.2649,-140.1398 274.6467,-129.999"/>
<polygon fill="#191970" stroke="#191970" points="275.6464,-133.3567 284.4928,-127.5265 273.9415,-126.5675 275.6464,-133.3567"/>
</g>
<!-- Node18&#45;&gt;Node1 -->
<g id="edge23" class="edge">
<title>Node18&#45;&gt;Node1</title>
<path fill="none" stroke="#191970" d="M848.3438,-448.2253C867.25,-427.0891 897.5,-386.8831 897.5,-346 897.5,-346 897.5,-346 897.5,-290 897.5,-237.5755 837.7233,-206.5491 794.1495,-190.8967"/>
<polygon fill="#191970" stroke="#191970" points="795.1686,-187.5461 784.5739,-187.6065 792.8939,-194.1662 795.1686,-187.5461"/>
</g>
<!-- Node19 -->
<g id="node20" class="node">
<title>Node19</title>
<g id="a_node20"><a xlink:href="GeomVector3_8h.html" target="_top" xlink:title="iDynTree/Core/GeomVector3.h">
<polygon fill="none" stroke="#000000" points="668,-224.5 668,-243.5 831,-243.5 831,-224.5 668,-224.5"/>
<text text-anchor="middle" x="749.5" y="-231.5" font-family="FreeSans.ttf" font-size="10.00" fill="#000000">iDynTree/Core/GeomVector3.h</text>
</a>
</g>
</g>
<!-- Node18&#45;&gt;Node19 -->
<g id="edge24" class="edge">
<title>Node18&#45;&gt;Node19</title>
<path fill="none" stroke="#191970" d="M836.2825,-448.4476C838.4434,-433.7936 840.3395,-411.0143 835.5,-392 821.4505,-336.8005 783.7695,-280.0583 763.2596,-251.9886"/>
<polygon fill="#191970" stroke="#191970" points="765.8014,-249.5419 757.0213,-243.6122 760.1873,-253.723 765.8014,-249.5419"/>
</g>
<!-- Node20 -->
<g id="node21" class="node">
<title>Node20</title>
<g id="a_node21"><a xlink:href="SpatialVector_8h.html" target="_top" xlink:title="iDynTree/Core/SpatialVector.h">
<polygon fill="none" stroke="#000000" points="665,-392.5 665,-411.5 826,-411.5 826,-392.5 665,-392.5"/>
<text text-anchor="middle" x="745.5" y="-399.5" font-family="FreeSans.ttf" font-size="10.00" fill="#000000">iDynTree/Core/SpatialVector.h</text>
</a>
</g>
</g>
<!-- Node18&#45;&gt;Node20 -->
<g id="edge26" class="edge">
<title>Node18&#45;&gt;Node20</title>
<path fill="none" stroke="#191970" d="M811.7472,-448.2977C798.3032,-438.9022 781.0989,-426.8787 767.5922,-417.4395"/>
<polygon fill="#191970" stroke="#191970" points="769.5288,-414.5228 759.3271,-411.6633 765.5189,-420.2605 769.5288,-414.5228"/>
</g>
<!-- Node19&#45;&gt;Node1 -->
<g id="edge25" class="edge">
<title>Node19&#45;&gt;Node1</title>
<path fill="none" stroke="#191970" d="M749.5,-224.2455C749.5,-216.9382 749.5,-206.6944 749.5,-197.7046"/>
<polygon fill="#191970" stroke="#191970" points="753.0001,-197.6426 749.5,-187.6427 746.0001,-197.6427 753.0001,-197.6426"/>
</g>
<!-- Node20&#45;&gt;Node2 -->
<g id="edge51" class="edge">
<title>Node20&#45;&gt;Node2</title>
<path fill="none" stroke="#191970" d="M753.9829,-392.386C761.9103,-383.2524 773.9271,-369.0187 783.5,-356 818.6992,-308.1306 833.9054,-298.9541 856.5,-244 875.8239,-197.001 874.3626,-182.5562 879.5,-132 880.3986,-123.1567 884.6132,-119.271 879.5,-112 870.246,-98.8409 834.5827,-86.6585 803.2439,-78.1408"/>
<polygon fill="#191970" stroke="#191970" points="803.8218,-74.6736 793.2598,-75.5075 802.0365,-81.4422 803.8218,-74.6736"/>
</g>
<!-- Node20&#45;&gt;Node15 -->
<g id="edge54" class="edge">
<title>Node20&#45;&gt;Node15</title>
<path fill="none" stroke="#191970" d="M749.3468,-392.328C758.0423,-371.0246 780.5676,-318.8591 807.5,-280 819.864,-262.1607 832.4659,-264.1634 840.5,-244 854.0313,-210.0402 850.2284,-166.4266 846.3126,-141.6064"/>
<polygon fill="#191970" stroke="#191970" points="849.7379,-140.8746 844.5674,-131.6271 842.8425,-142.0806 849.7379,-140.8746"/>
</g>
<!-- Node20&#45;&gt;Node19 -->
<g id="edge52" class="edge">
<title>Node20&#45;&gt;Node19</title>
<path fill="none" stroke="#191970" d="M745.7265,-392.4862C746.3588,-365.9293 748.1532,-290.5651 749.0199,-254.1655"/>
<polygon fill="#191970" stroke="#191970" points="752.5269,-253.9084 749.266,-243.8279 745.5289,-253.7417 752.5269,-253.9084"/>
</g>
<!-- Node21 -->
<g id="node22" class="node">
<title>Node21</title>
<g id="a_node22"><a xlink:href="Position_8h.html" target="_top" xlink:title="Position.h">
<polygon fill="none" stroke="#000000" points="272,-336.5 272,-355.5 337,-355.5 337,-336.5 272,-336.5"/>
<text text-anchor="middle" x="304.5" y="-343.5" font-family="FreeSans.ttf" font-size="10.00" fill="#000000">Position.h</text>
</a>
</g>
</g>
<!-- Node20&#45;&gt;Node21 -->
<g id="edge27" class="edge">
<title>Node20&#45;&gt;Node21</title>
<path fill="none" stroke="#191970" d="M664.8894,-392.5245C589.4984,-383.5458 473.7919,-369.4669 373.5,-356 364.9636,-354.8538 355.8419,-353.5721 347.1196,-352.319"/>
<polygon fill="#191970" stroke="#191970" points="347.5216,-348.8407 337.123,-350.8707 346.5179,-355.7684 347.5216,-348.8407"/>
</g>
<!-- Node23 -->
<g id="node24" class="node">
<title>Node23</title>
<g id="a_node24"><a xlink:href="Rotation_8h.html" target="_top" xlink:title="iDynTree/Core/Rotation.h">
<polygon fill="none" stroke="#000000" points="508,-280.5 508,-299.5 645,-299.5 645,-280.5 508,-280.5"/>
<text text-anchor="middle" x="576.5" y="-287.5" font-family="FreeSans.ttf" font-size="10.00" fill="#000000">iDynTree/Core/Rotation.h</text>
</a>
</g>
</g>
<!-- Node20&#45;&gt;Node23 -->
<g id="edge50" class="edge">
<title>Node20&#45;&gt;Node23</title>
<path fill="none" stroke="#191970" d="M731.0912,-392.4509C701.7815,-373.0268 635.0017,-328.7703 599.5708,-305.2895"/>
<polygon fill="#191970" stroke="#191970" points="601.1415,-302.1317 590.8724,-299.5249 597.2745,-307.9666 601.1415,-302.1317"/>
</g>
<!-- Node27 -->
<g id="node28" class="node">
<title>Node27</title>
<polygon fill="none" stroke="#bfbfbf" points="346.5,-112.5 346.5,-131.5 406.5,-131.5 406.5,-112.5 346.5,-112.5"/>
<text text-anchor="middle" x="376.5" y="-119.5" font-family="FreeSans.ttf" font-size="10.00" fill="#000000">iostream</text>
</g>
<!-- Node20&#45;&gt;Node27 -->
<g id="edge53" class="edge">
<title>Node20&#45;&gt;Node27</title>
<path fill="none" stroke="#191970" d="M664.7114,-393.11C559.123,-379.2007 387.5,-347.7156 387.5,-290 387.5,-290 387.5,-290 387.5,-234 387.5,-201.5562 382.8718,-164.078 379.6195,-141.7472"/>
<polygon fill="#191970" stroke="#191970" points="383.0343,-140.9203 378.076,-131.5573 376.1132,-141.9687 383.0343,-140.9203"/>
</g>
<!-- Node21&#45;&gt;Node14 -->
<g id="edge49" class="edge">
<title>Node21&#45;&gt;Node14</title>
<path fill="none" stroke="#191970" d="M283.4582,-336.4737C245.6908,-317.8944 172.3129,-274.2154 194.5,-224 211.88,-184.6645 252.7514,-153.9648 280.014,-136.9171"/>
<polygon fill="#191970" stroke="#191970" points="281.9437,-139.8403 288.6843,-131.6663 278.3175,-133.8527 281.9437,-139.8403"/>
</g>
<!-- Node22 -->
<g id="node23" class="node">
<title>Node22</title>
<g id="a_node23"><a xlink:href="PositionRaw_8h.html" target="_top" xlink:title="iDynTree/Core/PositionRaw.h">
<polygon fill="none" stroke="#000000" points="203.5,-224.5 203.5,-243.5 359.5,-243.5 359.5,-224.5 203.5,-224.5"/>
<text text-anchor="middle" x="281.5" y="-231.5" font-family="FreeSans.ttf" font-size="10.00" fill="#000000">iDynTree/Core/PositionRaw.h</text>
</a>
</g>
</g>
<!-- Node21&#45;&gt;Node22 -->
<g id="edge28" class="edge">
<title>Node21&#45;&gt;Node22</title>
<path fill="none" stroke="#191970" d="M302.539,-336.4509C298.7708,-318.1013 290.4517,-277.5908 285.4776,-253.3693"/>
<polygon fill="#191970" stroke="#191970" points="288.8961,-252.6164 283.456,-243.5249 282.0392,-254.0246 288.8961,-252.6164"/>
</g>
<!-- Node21&#45;&gt;Node23 -->
<g id="edge31" class="edge">
<title>Node21&#45;&gt;Node23</title>
<path fill="none" stroke="#191970" d="M337.0394,-339.3007C382.3066,-329.981 464.9458,-312.967 520.2978,-301.571"/>
<polygon fill="#191970" stroke="#191970" points="521.2118,-304.9564 530.3006,-299.5117 519.8002,-298.1002 521.2118,-304.9564"/>
</g>
<!-- Node22&#45;&gt;Node1 -->
<g id="edge29" class="edge">
<title>Node22&#45;&gt;Node1</title>
<path fill="none" stroke="#191970" d="M359.5692,-224.6584C442.3722,-214.7503 572.9823,-199.1218 659.9196,-188.719"/>
<polygon fill="#191970" stroke="#191970" points="660.5218,-192.172 670.0351,-187.5086 659.6901,-185.2216 660.5218,-192.172"/>
</g>
<!-- Node22&#45;&gt;Node14 -->
<g id="edge30" class="edge">
<title>Node22&#45;&gt;Node14</title>
<path fill="none" stroke="#191970" d="M283.6315,-224.4509C287.7274,-206.1013 296.7699,-165.5908 302.1765,-141.3693"/>
<polygon fill="#191970" stroke="#191970" points="305.6112,-142.0472 304.3739,-131.5249 298.7794,-140.5222 305.6112,-142.0472"/>
</g>
<!-- Node23&#45;&gt;Node1 -->
<g id="edge48" class="edge">
<title>Node23&#45;&gt;Node1</title>
<path fill="none" stroke="#191970" d="M587.2473,-280.2939C602.5839,-266.7204 631.9489,-241.7429 659.5,-224 678.2962,-211.8952 700.6752,-200.4455 718.4152,-191.997"/>
<polygon fill="#191970" stroke="#191970" points="720.1711,-195.0395 727.7412,-187.6271 717.2009,-188.7008 720.1711,-195.0395"/>
</g>
<!-- Node23&#45;&gt;Node14 -->
<g id="edge32" class="edge">
<title>Node23&#45;&gt;Node14</title>
<path fill="none" stroke="#191970" d="M536.6404,-280.4743C509.5016,-272.965 473.4019,-260.9198 444.5,-244 394.1977,-214.552 345.5671,-165.1901 321.7285,-139.2007"/>
<polygon fill="#191970" stroke="#191970" points="324.1928,-136.7075 314.8891,-131.6387 319.0012,-141.403 324.1928,-136.7075"/>
</g>
<!-- Node23&#45;&gt;Node19 -->
<g id="edge33" class="edge">
<title>Node23&#45;&gt;Node19</title>
<path fill="none" stroke="#191970" d="M606.2398,-280.3733C635.007,-271.0613 678.77,-256.8953 710.3556,-246.671"/>
<polygon fill="#191970" stroke="#191970" points="711.7122,-249.9107 720.1483,-243.5011 709.5564,-243.251 711.7122,-249.9107"/>
</g>
<!-- Node24 -->
<g id="node25" class="node">
<title>Node24</title>
<g id="a_node25"><a xlink:href="RotationRaw_8h.html" target="_top" xlink:title="iDynTree/Core/RotationRaw.h">
<polygon fill="none" stroke="#000000" points="453.5,-224.5 453.5,-243.5 611.5,-243.5 611.5,-224.5 453.5,-224.5"/>
<text text-anchor="middle" x="532.5" y="-231.5" font-family="FreeSans.ttf" font-size="10.00" fill="#000000">iDynTree/Core/RotationRaw.h</text>
</a>
</g>
</g>
<!-- Node23&#45;&gt;Node24 -->
<g id="edge34" class="edge">
<title>Node23&#45;&gt;Node24</title>
<path fill="none" stroke="#191970" d="M568.8358,-280.2455C562.6527,-272.3761 553.7937,-261.101 546.3711,-251.6542"/>
<polygon fill="#191970" stroke="#191970" points="549.0068,-249.3435 540.0764,-243.6427 543.5025,-253.6683 549.0068,-249.3435"/>
</g>
<!-- Node24&#45;&gt;Node14 -->
<g id="edge47" class="edge">
<title>Node24&#45;&gt;Node14</title>
<path fill="none" stroke="#191970" d="M513.2314,-224.4509C473.369,-204.6961 381.6784,-159.2565 334.9695,-136.1088"/>
<polygon fill="#191970" stroke="#191970" points="336.2341,-132.8293 325.7199,-131.5249 333.1258,-139.1014 336.2341,-132.8293"/>
</g>
<!-- Node25 -->
<g id="node26" class="node">
<title>Node25</title>
<g id="a_node26"><a xlink:href="MatrixFixSize_8h.html" target="_top" xlink:title="iDynTree/Core/MatrixFixSize.h">
<polygon fill="none" stroke="#000000" points="481,-168.5 481,-187.5 642,-187.5 642,-168.5 481,-168.5"/>
<text text-anchor="middle" x="561.5" y="-175.5" font-family="FreeSans.ttf" font-size="10.00" fill="#000000">iDynTree/Core/MatrixFixSize.h</text>
</a>
</g>
</g>
<!-- Node24&#45;&gt;Node25 -->
<g id="edge35" class="edge">
<title>Node24&#45;&gt;Node25</title>
<path fill="none" stroke="#191970" d="M537.5514,-224.2455C541.5019,-216.617 547.1097,-205.7881 551.9058,-196.5267"/>
<polygon fill="#191970" stroke="#191970" points="555.0159,-198.1321 556.5065,-187.6427 548.7999,-194.9131 555.0159,-198.1321"/>
</g>
<!-- Node25&#45;&gt;Node2 -->
<g id="edge36" class="edge">
<title>Node25&#45;&gt;Node2</title>
<path fill="none" stroke="#191970" d="M583.8918,-168.3535C603.4717,-159.6392 632.4544,-146.0584 656.5,-132 683.1408,-116.4243 712.0278,-95.7674 730.8658,-81.7412"/>
<polygon fill="#191970" stroke="#191970" points="733.1177,-84.4272 739.011,-75.6227 728.9134,-78.8304 733.1177,-84.4272"/>
</g>
<!-- Node25&#45;&gt;Node6 -->
<g id="edge42" class="edge">
<title>Node25&#45;&gt;Node6</title>
<path fill="none" stroke="#191970" d="M578.3816,-168.3719C591.8554,-160.0562 610.5549,-147.0302 623.5,-132 650.9081,-100.1774 671.2187,-54.8516 681.3276,-29.3547"/>
<polygon fill="#191970" stroke="#191970" points="684.703,-30.3286 685.0264,-19.7387 678.1696,-27.8155 684.703,-30.3286"/>
</g>
<!-- Node25&#45;&gt;Node14 -->
<g id="edge44" class="edge">
<title>Node25&#45;&gt;Node14</title>
<path fill="none" stroke="#191970" d="M506.7967,-168.4982C463.5186,-160.5889 401.4061,-148.3719 338.8122,-132.1433"/>
<polygon fill="#191970" stroke="#191970" points="339.326,-128.6596 328.7649,-129.5043 337.5477,-135.43 339.326,-128.6596"/>
</g>
<!-- Node25&#45;&gt;Node15 -->
<g id="edge46" class="edge">
<title>Node25&#45;&gt;Node15</title>
<path fill="none" stroke="#191970" d="M609.4863,-168.4369C664.6263,-157.4481 753.988,-139.6394 804.5204,-129.5689"/>
<polygon fill="#191970" stroke="#191970" points="805.2646,-132.9895 814.3877,-127.6025 803.8964,-126.1245 805.2646,-132.9895"/>
</g>
<!-- Node25&#45;&gt;Node16 -->
<g id="edge43" class="edge">
<title>Node25&#45;&gt;Node16</title>
<path fill="none" stroke="#191970" d="M591.0679,-168.3733C620.8822,-158.6663 666.8974,-143.6846 698.5112,-133.3917"/>
<polygon fill="#191970" stroke="#191970" points="699.8054,-136.6512 708.2305,-130.2273 697.6382,-129.9951 699.8054,-136.6512"/>
</g>
<!-- Node26 -->
<g id="node27" class="node">
<title>Node26</title>
<g id="a_node27"><a xlink:href="MatrixView_8h.html" target="_top" xlink:title="iDynTree/Core/MatrixView.h">
<polygon fill="none" stroke="#000000" points="463,-112.5 463,-131.5 614,-131.5 614,-112.5 463,-112.5"/>
<text text-anchor="middle" x="538.5" y="-119.5" font-family="FreeSans.ttf" font-size="10.00" fill="#000000">iDynTree/Core/MatrixView.h</text>
</a>
</g>
</g>
<!-- Node25&#45;&gt;Node26 -->
<g id="edge37" class="edge">
<title>Node25&#45;&gt;Node26</title>
<path fill="none" stroke="#191970" d="M557.4937,-168.2455C554.4265,-160.7776 550.0997,-150.2427 546.3503,-141.1137"/>
<polygon fill="#191970" stroke="#191970" points="549.4972,-139.5631 542.4604,-131.6427 543.0221,-142.2226 549.4972,-139.5631"/>
</g>
<!-- Node25&#45;&gt;Node27 -->
<g id="edge45" class="edge">
<title>Node25&#45;&gt;Node27</title>
<path fill="none" stroke="#191970" d="M529.6974,-168.3733C498.2922,-158.8668 450.1744,-144.3015 416.2608,-134.0357"/>
<polygon fill="#191970" stroke="#191970" points="417.2478,-130.6777 406.6626,-131.1303 415.2197,-137.3775 417.2478,-130.6777"/>
</g>
<!-- Node26&#45;&gt;Node2 -->
<g id="edge41" class="edge">
<title>Node26&#45;&gt;Node2</title>
<path fill="none" stroke="#191970" d="M575.116,-112.3733C611.148,-102.9001 666.2878,-88.4032 705.3114,-78.1435"/>
<polygon fill="#191970" stroke="#191970" points="706.5804,-81.4289 715.3618,-75.5011 704.8005,-74.6589 706.5804,-81.4289"/>
</g>
<!-- Node26&#45;&gt;Node5 -->
<g id="edge40" class="edge">
<title>Node26&#45;&gt;Node5</title>
<path fill="none" stroke="#191970" d="M515.9803,-112.3733C494.7628,-103.3032 462.7724,-89.6279 439.0231,-79.4755"/>
<polygon fill="#191970" stroke="#191970" points="440.2967,-76.2136 429.7258,-75.5011 437.5452,-82.6502 440.2967,-76.2136"/>
</g>
<!-- Node26&#45;&gt;Node6 -->
<g id="edge38" class="edge">
<title>Node26&#45;&gt;Node6</title>
<path fill="none" stroke="#191970" d="M551.2889,-112.4509C577.1927,-93.1094 636.0716,-49.1465 667.62,-25.5904"/>
<polygon fill="#191970" stroke="#191970" points="669.8247,-28.3123 675.7435,-19.5249 665.6366,-22.7033 669.8247,-28.3123"/>
</g>
<!-- Node26&#45;&gt;Node12 -->
<g id="edge39" class="edge">
<title>Node26&#45;&gt;Node12</title>
<path fill="none" stroke="#191970" d="M538.5,-112.4509C538.5,-94.184 538.5,-53.9553 538.5,-29.6976"/>
<polygon fill="#191970" stroke="#191970" points="542.0001,-29.5249 538.5,-19.5249 535.0001,-29.5249 542.0001,-29.5249"/>
</g>
</g>
</svg>
