<?xml version="1.0" encoding="UTF-8" standalone="no"?>
<!DOCTYPE svg PUBLIC "-//W3C//DTD SVG 1.1//EN"
 "http://www.w3.org/Graphics/SVG/1.1/DTD/svg11.dtd">
<!-- Generated by graphviz version 2.40.1 (20161225.0304)
 -->
<!-- Title: KinDynComputations.h Pages: 1 -->
<svg width="1476pt" height="677pt"
 viewBox="0.00 0.00 1476.00 677.00" xmlns="http://www.w3.org/2000/svg" xmlns:xlink="http://www.w3.org/1999/xlink">
<g id="graph0" class="graph" transform="scale(1 1) rotate(0) translate(4 673)">
<title>KinDynComputations.h</title>
<!-- Node0 -->
<g id="node1" class="node">
<title>Node0</title>
<polygon fill="#bfbfbf" stroke="#000000" points="240.5,-649.5 240.5,-668.5 369.5,-668.5 369.5,-649.5 240.5,-649.5"/>
<text text-anchor="middle" x="305" y="-656.5" font-family="FreeSans.ttf" font-size="10.00" fill="#000000">KinDynComputations.h</text>
</g>
<!-- Node1 -->
<g id="node2" class="node">
<title>Node1</title>
<polygon fill="none" stroke="#bfbfbf" points="678,-112.5 678,-131.5 722,-131.5 722,-112.5 678,-112.5"/>
<text text-anchor="middle" x="700" y="-119.5" font-family="FreeSans.ttf" font-size="10.00" fill="#000000">string</text>
</g>
<!-- Node0&#45;&gt;Node1 -->
<g id="edge1" class="edge">
<title>Node0&#45;&gt;Node1</title>
<path fill="none" stroke="#191970" d="M302.9589,-649.4488C297.3299,-622.2445 282,-541.9635 282,-474.5 282,-474.5 282,-474.5 282,-239.5 282,-187.363 326.7551,-187.7662 375,-168 496.407,-118.2589 539.7516,-159.6799 668,-132 668.0996,-131.9785 668.1993,-131.9568 668.2991,-131.935"/>
<polygon fill="#191970" stroke="#191970" points="668.9376,-135.3845 677.7578,-129.5147 667.2022,-128.603 668.9376,-135.3845"/>
</g>
<!-- Node2 -->
<g id="node3" class="node">
<title>Node2</title>
<polygon fill="none" stroke="#bfbfbf" points="310.5,-526.5 310.5,-545.5 357.5,-545.5 357.5,-526.5 310.5,-526.5"/>
<text text-anchor="middle" x="334" y="-533.5" font-family="FreeSans.ttf" font-size="10.00" fill="#000000">vector</text>
</g>
<!-- Node0&#45;&gt;Node2 -->
<g id="edge2" class="edge">
<title>Node0&#45;&gt;Node2</title>
<path fill="none" stroke="#191970" d="M307.2756,-649.3484C312.0402,-629.1397 323.1444,-582.0427 329.4372,-555.3528"/>
<polygon fill="#191970" stroke="#191970" points="332.8467,-556.1431 331.735,-545.6068 326.0335,-554.5367 332.8467,-556.1431"/>
</g>
<!-- Node3 -->
<g id="node4" class="node">
<title>Node3</title>
<g id="a_node4"><a xlink:href="VectorFixSize_8h.html" target="_top" xlink:title="iDynTree/Core/VectorFixSize.h">
<polygon fill="none" stroke="#000000" points="1124.5,-168.5 1124.5,-187.5 1285.5,-187.5 1285.5,-168.5 1124.5,-168.5"/>
<text text-anchor="middle" x="1205" y="-175.5" font-family="FreeSans.ttf" font-size="10.00" fill="#000000">iDynTree/Core/VectorFixSize.h</text>
</a>
</g>
</g>
<!-- Node0&#45;&gt;Node3 -->
<g id="edge3" class="edge">
<title>Node0&#45;&gt;Node3</title>
<path fill="none" stroke="#191970" d="M369.5255,-655.3576C608.5735,-641.4438 1430,-589.724 1430,-536 1430,-536 1430,-536 1430,-301 1430,-234.5499 1353.5079,-203.7736 1289.7235,-189.6615"/>
<polygon fill="#191970" stroke="#191970" points="1290.1152,-186.1675 1279.6092,-187.5367 1288.676,-193.0179 1290.1152,-186.1675"/>
</g>
<!-- Node4 -->
<g id="node5" class="node">
<title>Node4</title>
<g id="a_node5"><a xlink:href="Utils_8h.html" target="_top" xlink:title="iDynTree/Core/Utils.h">
<polygon fill="none" stroke="#000000" points="953.5,-56.5 953.5,-75.5 1072.5,-75.5 1072.5,-56.5 953.5,-56.5"/>
<text text-anchor="middle" x="1013" y="-63.5" font-family="FreeSans.ttf" font-size="10.00" fill="#000000">iDynTree/Core/Utils.h</text>
</a>
</g>
</g>
<!-- Node0&#45;&gt;Node4 -->
<g id="edge29" class="edge">
<title>Node0&#45;&gt;Node4</title>
<path fill="none" stroke="#191970" d="M369.7852,-656.5805C535.9842,-650.1742 974.5359,-631.9589 1119,-613 1276.491,-592.3315 1468,-694.8415 1468,-536 1468,-536 1468,-536 1468,-178 1468,-99.685 1210.6318,-75.8182 1083.0252,-68.7978"/>
<polygon fill="#191970" stroke="#191970" points="1083.1225,-65.2981 1072.9512,-68.2638 1082.7518,-72.2883 1083.1225,-65.2981"/>
</g>
<!-- Node7 -->
<g id="node8" class="node">
<title>Node7</title>
<g id="a_node8"><a xlink:href="Span_8h.html" target="_top" xlink:title="iDynTree/Core/Span.h">
<polygon fill="none" stroke="#000000" points="523.5,-56.5 523.5,-75.5 644.5,-75.5 644.5,-56.5 523.5,-56.5"/>
<text text-anchor="middle" x="584" y="-63.5" font-family="FreeSans.ttf" font-size="10.00" fill="#000000">iDynTree/Core/Span.h</text>
</a>
</g>
</g>
<!-- Node0&#45;&gt;Node7 -->
<g id="edge30" class="edge">
<title>Node0&#45;&gt;Node7</title>
<path fill="none" stroke="#191970" d="M240.2568,-654.8978C170.8239,-649.3147 66.3111,-637.1235 35,-613 5.2214,-590.0572 0,-573.5917 0,-536 0,-536 0,-536 0,-178 0,-126.3112 357.4202,-86.9502 513.0283,-72.2631"/>
<polygon fill="#191970" stroke="#191970" points="513.7978,-75.7065 523.4282,-71.2899 513.1455,-68.7369 513.7978,-75.7065"/>
</g>
<!-- Node18 -->
<g id="node19" class="node">
<title>Node18</title>
<g id="a_node19"><a xlink:href="MatrixDynSize_8h.html" target="_top" xlink:title="iDynTree/Core/MatrixDynSize.h">
<polygon fill="none" stroke="#000000" points="87.5,-347.5 87.5,-366.5 254.5,-366.5 254.5,-347.5 87.5,-347.5"/>
<text text-anchor="middle" x="171" y="-354.5" font-family="FreeSans.ttf" font-size="10.00" fill="#000000">iDynTree/Core/MatrixDynSize.h</text>
</a>
</g>
</g>
<!-- Node0&#45;&gt;Node18 -->
<g id="edge21" class="edge">
<title>Node0&#45;&gt;Node18</title>
<path fill="none" stroke="#191970" d="M296.9082,-649.2409C289.7144,-640.2369 279.2439,-626.2901 272,-613 226.2572,-529.0776 190.3299,-419.9914 176.81,-376.3153"/>
<polygon fill="#191970" stroke="#191970" points="180.1338,-375.2155 173.8632,-366.6756 173.4396,-377.262 180.1338,-375.2155"/>
</g>
<!-- Node19 -->
<g id="node20" class="node">
<title>Node19</title>
<g id="a_node20"><a xlink:href="MatrixView_8h.html" target="_top" xlink:title="iDynTree/Core/MatrixView.h">
<polygon fill="none" stroke="#000000" points="508.5,-112.5 508.5,-131.5 659.5,-131.5 659.5,-112.5 508.5,-112.5"/>
<text text-anchor="middle" x="584" y="-119.5" font-family="FreeSans.ttf" font-size="10.00" fill="#000000">iDynTree/Core/MatrixView.h</text>
</a>
</g>
</g>
<!-- Node0&#45;&gt;Node19 -->
<g id="edge28" class="edge">
<title>Node0&#45;&gt;Node19</title>
<path fill="none" stroke="#191970" d="M240.2772,-654.8429C175.8332,-649.3666 82.8837,-637.4116 57,-613 31.3569,-588.8153 38,-571.2487 38,-536 38,-536 38,-536 38,-239.5 38,-163.6349 119.9785,-188.5758 193,-168 248.5177,-152.3564 400.7825,-137.3457 498.0952,-128.9331"/>
<polygon fill="#191970" stroke="#191970" points="498.5493,-132.4071 508.2135,-128.065 497.9509,-125.4327 498.5493,-132.4071"/>
</g>
<!-- Node20 -->
<g id="node21" class="node">
<title>Node20</title>
<g id="a_node21"><a xlink:href="Indices_8h.html" target="_top" xlink:title="iDynTree/Model/Indices.h">
<polygon fill="none" stroke="#000000" points="376,-526.5 376,-545.5 514,-545.5 514,-526.5 376,-526.5"/>
<text text-anchor="middle" x="445" y="-533.5" font-family="FreeSans.ttf" font-size="10.00" fill="#000000">iDynTree/Model/Indices.h</text>
</a>
</g>
</g>
<!-- Node0&#45;&gt;Node20 -->
<g id="edge31" class="edge">
<title>Node0&#45;&gt;Node20</title>
<path fill="none" stroke="#191970" d="M315.9856,-649.3484C339.9074,-628.3314 396.9311,-578.2319 426.503,-552.251"/>
<polygon fill="#191970" stroke="#191970" points="428.8631,-554.8364 434.0655,-545.6068 424.2429,-549.5777 428.8631,-554.8364"/>
</g>
<!-- Node22 -->
<g id="node23" class="node">
<title>Node22</title>
<g id="a_node23"><a xlink:href="FreeFloatingMatrices_8h.html" target="_top" xlink:title="iDynTree/Model/FreeFloating\lMatrices.h">
<polygon fill="none" stroke="#000000" points="66,-582.5 66,-612.5 220,-612.5 220,-582.5 66,-582.5"/>
<text text-anchor="start" x="74" y="-600.5" font-family="FreeSans.ttf" font-size="10.00" fill="#000000">iDynTree/Model/FreeFloating</text>
<text text-anchor="middle" x="143" y="-589.5" font-family="FreeSans.ttf" font-size="10.00" fill="#000000">Matrices.h</text>
</a>
</g>
</g>
<!-- Node0&#45;&gt;Node22 -->
<g id="edge34" class="edge">
<title>Node0&#45;&gt;Node22</title>
<path fill="none" stroke="#191970" d="M279.6875,-649.3906C256.3417,-640.5279 221.0338,-627.1239 192.1516,-616.1594"/>
<polygon fill="#191970" stroke="#191970" points="193.2209,-612.8217 182.6297,-612.5446 190.7364,-619.366 193.2209,-612.8217"/>
</g>
<!-- Node23 -->
<g id="node24" class="node">
<title>Node23</title>
<g id="a_node24"><a xlink:href="LinkState_8h.html" target="_top" xlink:title="iDynTree/Model/LinkState.h">
<polygon fill="none" stroke="#000000" points="487.5,-588 487.5,-607 636.5,-607 636.5,-588 487.5,-588"/>
<text text-anchor="middle" x="562" y="-595" font-family="FreeSans.ttf" font-size="10.00" fill="#000000">iDynTree/Model/LinkState.h</text>
</a>
</g>
</g>
<!-- Node0&#45;&gt;Node23 -->
<g id="edge36" class="edge">
<title>Node0&#45;&gt;Node23</title>
<path fill="none" stroke="#191970" d="M344.8743,-649.4581C389.8906,-638.6857 463.1998,-621.1428 512.0079,-609.4631"/>
<polygon fill="#191970" stroke="#191970" points="513.1213,-612.7955 522.0322,-607.0643 511.4922,-605.9877 513.1213,-612.7955"/>
</g>
<!-- Node3&#45;&gt;Node1 -->
<g id="edge17" class="edge">
<title>Node3&#45;&gt;Node1</title>
<path fill="none" stroke="#191970" d="M1124.4228,-169.0647C1011.3907,-156.5305 810.8238,-134.2894 732.5578,-125.6104"/>
<polygon fill="#191970" stroke="#191970" points="732.6725,-122.1017 722.3476,-124.4782 731.9009,-129.0591 732.6725,-122.1017"/>
</g>
<!-- Node3&#45;&gt;Node4 -->
<g id="edge4" class="edge">
<title>Node3&#45;&gt;Node4</title>
<path fill="none" stroke="#191970" d="M1216.8376,-168.3299C1231.9842,-154.7992 1254.6137,-129.8722 1240,-112 1220.3597,-87.9805 1141.9082,-76.2038 1082.688,-70.638"/>
<polygon fill="#191970" stroke="#191970" points="1082.8915,-67.1423 1072.6183,-69.7333 1082.265,-74.1142 1082.8915,-67.1423"/>
</g>
<!-- Node3&#45;&gt;Node7 -->
<g id="edge7" class="edge">
<title>Node3&#45;&gt;Node7</title>
<path fill="none" stroke="#191970" d="M1208.9641,-168.4758C1214.1981,-154.196 1221.1993,-127.2864 1207,-112 1188.4358,-92.0146 814.1997,-75.0287 654.8516,-68.6732"/>
<polygon fill="#191970" stroke="#191970" points="654.8032,-65.1686 644.6724,-68.27 654.5261,-72.1631 654.8032,-65.1686"/>
</g>
<!-- Node8 -->
<g id="node9" class="node">
<title>Node8</title>
<polygon fill="none" stroke="#bfbfbf" points="866,-.5 866,-19.5 918,-19.5 918,-.5 866,-.5"/>
<text text-anchor="middle" x="892" y="-7.5" font-family="FreeSans.ttf" font-size="10.00" fill="#000000">cassert</text>
</g>
<!-- Node3&#45;&gt;Node8 -->
<g id="edge19" class="edge">
<title>Node3&#45;&gt;Node8</title>
<path fill="none" stroke="#191970" d="M1222.1992,-168.3298C1242.5751,-155.6161 1271.9819,-132.489 1257,-112 1237.1541,-84.8591 1016.2969,-36.0307 928.0816,-17.4517"/>
<polygon fill="#191970" stroke="#191970" points="928.7531,-14.0165 918.2477,-15.3904 927.3169,-20.8676 928.7531,-14.0165"/>
</g>
<!-- Node16 -->
<g id="node17" class="node">
<title>Node16</title>
<polygon fill="none" stroke="#bfbfbf" points="1142,-112.5 1142,-131.5 1198,-131.5 1198,-112.5 1142,-112.5"/>
<text text-anchor="middle" x="1170" y="-119.5" font-family="FreeSans.ttf" font-size="10.00" fill="#000000">sstream</text>
</g>
<!-- Node3&#45;&gt;Node16 -->
<g id="edge18" class="edge">
<title>Node3&#45;&gt;Node16</title>
<path fill="none" stroke="#191970" d="M1198.9035,-168.2455C1194.0855,-160.5367 1187.2249,-149.5598 1181.3968,-140.2348"/>
<polygon fill="#191970" stroke="#191970" points="1184.2947,-138.2677 1176.0267,-131.6427 1178.3587,-141.9777 1184.2947,-138.2677"/>
</g>
<!-- Node17 -->
<g id="node18" class="node">
<title>Node17</title>
<polygon fill="none" stroke="#bfbfbf" points="1074,-112.5 1074,-131.5 1124,-131.5 1124,-112.5 1074,-112.5"/>
<text text-anchor="middle" x="1099" y="-119.5" font-family="FreeSans.ttf" font-size="10.00" fill="#000000">cstring</text>
</g>
<!-- Node3&#45;&gt;Node17 -->
<g id="edge20" class="edge">
<title>Node3&#45;&gt;Node17</title>
<path fill="none" stroke="#191970" d="M1186.5362,-168.2455C1169.8926,-159.4527 1145.2007,-146.4079 1126.2808,-136.4125"/>
<polygon fill="#191970" stroke="#191970" points="1127.7291,-133.2193 1117.2522,-131.6427 1124.4592,-139.4086 1127.7291,-133.2193"/>
</g>
<!-- Node5 -->
<g id="node6" class="node">
<title>Node5</title>
<polygon fill="none" stroke="#bfbfbf" points="794.5,-.5 794.5,-19.5 847.5,-19.5 847.5,-.5 794.5,-.5"/>
<text text-anchor="middle" x="821" y="-7.5" font-family="FreeSans.ttf" font-size="10.00" fill="#000000">cstddef</text>
</g>
<!-- Node4&#45;&gt;Node5 -->
<g id="edge5" class="edge">
<title>Node4&#45;&gt;Node5</title>
<path fill="none" stroke="#191970" d="M979.994,-56.3733C945.9368,-46.4399 892.9417,-30.983 857.6152,-20.6794"/>
<polygon fill="#191970" stroke="#191970" points="858.2855,-17.2292 847.7055,-17.7891 856.3254,-23.9492 858.2855,-17.2292"/>
</g>
<!-- Node6 -->
<g id="node7" class="node">
<title>Node6</title>
<polygon fill="none" stroke="#bfbfbf" points="973,-.5 973,-19.5 1053,-19.5 1053,-.5 973,-.5"/>
<text text-anchor="middle" x="1013" y="-7.5" font-family="FreeSans.ttf" font-size="10.00" fill="#000000">CoreExport.h</text>
</g>
<!-- Node4&#45;&gt;Node6 -->
<g id="edge6" class="edge">
<title>Node4&#45;&gt;Node6</title>
<path fill="none" stroke="#191970" d="M1013,-56.2455C1013,-48.9382 1013,-38.6944 1013,-29.7046"/>
<polygon fill="#191970" stroke="#191970" points="1016.5001,-29.6426 1013,-19.6427 1009.5001,-29.6427 1016.5001,-29.6426"/>
</g>
<!-- Node7&#45;&gt;Node5 -->
<g id="edge11" class="edge">
<title>Node7&#45;&gt;Node5</title>
<path fill="none" stroke="#191970" d="M628.4505,-56.4421C667.1207,-47.9892 724.8922,-35.031 784.3562,-20.079"/>
<polygon fill="#191970" stroke="#191970" points="785.4637,-23.4092 794.3,-17.5637 783.7471,-16.6229 785.4637,-23.4092"/>
</g>
<!-- Node7&#45;&gt;Node8 -->
<g id="edge8" class="edge">
<title>Node7&#45;&gt;Node8</title>
<path fill="none" stroke="#191970" d="M644.5776,-57.5905C699.9307,-49.4723 783.8937,-36.0668 856,-20 856.0989,-19.978 856.198,-19.9558 856.2972,-19.9336"/>
<polygon fill="#191970" stroke="#191970" points="856.8459,-23.4024 865.733,-17.6344 855.1886,-16.6013 856.8459,-23.4024"/>
</g>
<!-- Node9 -->
<g id="node10" class="node">
<title>Node9</title>
<polygon fill="none" stroke="#bfbfbf" points="625,-.5 625,-19.5 689,-19.5 689,-.5 625,-.5"/>
<text text-anchor="middle" x="657" y="-7.5" font-family="FreeSans.ttf" font-size="10.00" fill="#000000">algorithm</text>
</g>
<!-- Node7&#45;&gt;Node9 -->
<g id="edge9" class="edge">
<title>Node7&#45;&gt;Node9</title>
<path fill="none" stroke="#191970" d="M596.7156,-56.2455C607.602,-47.8943 623.4883,-35.7076 636.22,-25.9408"/>
<polygon fill="#191970" stroke="#191970" points="638.6261,-28.5063 644.4301,-19.6427 634.3654,-22.9523 638.6261,-28.5063"/>
</g>
<!-- Node10 -->
<g id="node11" class="node">
<title>Node10</title>
<polygon fill="none" stroke="#bfbfbf" points="284,-.5 284,-19.5 326,-19.5 326,-.5 284,-.5"/>
<text text-anchor="middle" x="305" y="-7.5" font-family="FreeSans.ttf" font-size="10.00" fill="#000000">array</text>
</g>
<!-- Node7&#45;&gt;Node10 -->
<g id="edge10" class="edge">
<title>Node7&#45;&gt;Node10</title>
<path fill="none" stroke="#191970" d="M523.3617,-57.216C474.9015,-49.6464 405.1446,-37.5237 335.9534,-19.9822"/>
<polygon fill="#191970" stroke="#191970" points="336.7531,-16.574 326.1963,-17.471 335.0083,-23.3531 336.7531,-16.574"/>
</g>
<!-- Node11 -->
<g id="node12" class="node">
<title>Node11</title>
<polygon fill="none" stroke="#bfbfbf" points="344.5,-.5 344.5,-19.5 397.5,-19.5 397.5,-.5 344.5,-.5"/>
<text text-anchor="middle" x="371" y="-7.5" font-family="FreeSans.ttf" font-size="10.00" fill="#000000">iterator</text>
</g>
<!-- Node7&#45;&gt;Node11 -->
<g id="edge12" class="edge">
<title>Node7&#45;&gt;Node11</title>
<path fill="none" stroke="#191970" d="M546.6591,-56.4884C512.8351,-47.8296 461.3808,-34.5514 407.4588,-20.0927"/>
<polygon fill="#191970" stroke="#191970" points="408.2885,-16.6916 397.7228,-17.4764 406.4718,-23.4518 408.2885,-16.6916"/>
</g>
<!-- Node12 -->
<g id="node13" class="node">
<title>Node12</title>
<polygon fill="none" stroke="#bfbfbf" points="416,-.5 416,-19.5 460,-19.5 460,-.5 416,-.5"/>
<text text-anchor="middle" x="438" y="-7.5" font-family="FreeSans.ttf" font-size="10.00" fill="#000000">limits</text>
</g>
<!-- Node7&#45;&gt;Node12 -->
<g id="edge13" class="edge">
<title>Node7&#45;&gt;Node12</title>
<path fill="none" stroke="#191970" d="M558.9017,-56.3733C534.3216,-46.9453 496.7687,-32.5414 470.0434,-22.2906"/>
<polygon fill="#191970" stroke="#191970" points="470.9707,-18.8977 460.3804,-18.5843 468.4638,-25.4334 470.9707,-18.8977"/>
</g>
<!-- Node13 -->
<g id="node14" class="node">
<title>Node13</title>
<polygon fill="none" stroke="#bfbfbf" points="478.5,-.5 478.5,-19.5 543.5,-19.5 543.5,-.5 478.5,-.5"/>
<text text-anchor="middle" x="511" y="-7.5" font-family="FreeSans.ttf" font-size="10.00" fill="#000000">stdexcept</text>
</g>
<!-- Node7&#45;&gt;Node13 -->
<g id="edge14" class="edge">
<title>Node7&#45;&gt;Node13</title>
<path fill="none" stroke="#191970" d="M571.2844,-56.2455C560.398,-47.8943 544.5117,-35.7076 531.78,-25.9408"/>
<polygon fill="#191970" stroke="#191970" points="533.6346,-22.9523 523.5699,-19.6427 529.3739,-28.5063 533.6346,-22.9523"/>
</g>
<!-- Node14 -->
<g id="node15" class="node">
<title>Node14</title>
<polygon fill="none" stroke="#bfbfbf" points="707.5,-.5 707.5,-19.5 776.5,-19.5 776.5,-.5 707.5,-.5"/>
<text text-anchor="middle" x="742" y="-7.5" font-family="FreeSans.ttf" font-size="10.00" fill="#000000">type_traits</text>
</g>
<!-- Node7&#45;&gt;Node14 -->
<g id="edge15" class="edge">
<title>Node7&#45;&gt;Node14</title>
<path fill="none" stroke="#191970" d="M611.1612,-56.3733C637.2067,-47.1419 676.7116,-33.1402 705.4979,-22.9375"/>
<polygon fill="#191970" stroke="#191970" points="706.937,-26.1408 715.1933,-19.5011 704.5985,-19.5429 706.937,-26.1408"/>
</g>
<!-- Node15 -->
<g id="node16" class="node">
<title>Node15</title>
<polygon fill="none" stroke="#bfbfbf" points="561.5,-.5 561.5,-19.5 606.5,-19.5 606.5,-.5 561.5,-.5"/>
<text text-anchor="middle" x="584" y="-7.5" font-family="FreeSans.ttf" font-size="10.00" fill="#000000">utility</text>
</g>
<!-- Node7&#45;&gt;Node15 -->
<g id="edge16" class="edge">
<title>Node7&#45;&gt;Node15</title>
<path fill="none" stroke="#191970" d="M584,-56.2455C584,-48.9382 584,-38.6944 584,-29.7046"/>
<polygon fill="#191970" stroke="#191970" points="587.5001,-29.6426 584,-19.6427 580.5001,-29.6427 587.5001,-29.6426"/>
</g>
<!-- Node18&#45;&gt;Node1 -->
<g id="edge22" class="edge">
<title>Node18&#45;&gt;Node1</title>
<path fill="none" stroke="#191970" d="M174.5739,-347.2287C187.7638,-311.7266 234.6669,-190.4727 268,-168 342.0011,-118.1094 580.4662,-149.409 668,-132 668.0999,-131.9801 668.1999,-131.9601 668.3001,-131.9398"/>
<polygon fill="#191970" stroke="#191970" points="668.9024,-135.3961 677.7775,-129.6096 667.231,-128.5985 668.9024,-135.3961"/>
</g>
<!-- Node18&#45;&gt;Node19 -->
<g id="edge23" class="edge">
<title>Node18&#45;&gt;Node19</title>
<path fill="none" stroke="#191970" d="M169.7224,-347.3145C166.1851,-315.9472 159.7714,-216.3827 213,-168 233.7415,-149.1468 395.4248,-134.7916 498.3916,-127.4488"/>
<polygon fill="#191970" stroke="#191970" points="498.7458,-130.9326 508.4751,-126.7387 498.2539,-123.9499 498.7458,-130.9326"/>
</g>
<!-- Node19&#45;&gt;Node4 -->
<g id="edge27" class="edge">
<title>Node19&#45;&gt;Node4</title>
<path fill="none" stroke="#191970" d="M657.2603,-112.4369C737.1913,-102.003 864.2255,-85.4204 942.8916,-75.1517"/>
<polygon fill="#191970" stroke="#191970" points="943.7235,-78.5729 953.1863,-73.8078 942.8174,-71.6318 943.7235,-78.5729"/>
</g>
<!-- Node19&#45;&gt;Node7 -->
<g id="edge26" class="edge">
<title>Node19&#45;&gt;Node7</title>
<path fill="none" stroke="#191970" d="M584,-112.2455C584,-104.9382 584,-94.6944 584,-85.7046"/>
<polygon fill="#191970" stroke="#191970" points="587.5001,-85.6426 584,-75.6427 580.5001,-85.6427 587.5001,-85.6426"/>
</g>
<!-- Node19&#45;&gt;Node8 -->
<g id="edge24" class="edge">
<title>Node19&#45;&gt;Node8</title>
<path fill="none" stroke="#191970" d="M610.2599,-112.4509C665.4948,-92.3655 793.747,-45.7284 856.3449,-22.9655"/>
<polygon fill="#191970" stroke="#191970" points="857.6047,-26.2317 865.8066,-19.5249 855.2125,-19.6531 857.6047,-26.2317"/>
</g>
<!-- Node19&#45;&gt;Node14 -->
<g id="edge25" class="edge">
<title>Node19&#45;&gt;Node14</title>
<path fill="none" stroke="#191970" d="M598.9513,-112.3419C613.0264,-103.1771 634.6303,-88.9223 653,-76 676.7968,-59.2599 703.5415,-39.262 721.4439,-25.6994"/>
<polygon fill="#191970" stroke="#191970" points="723.6256,-28.4375 729.4705,-19.6008 719.3906,-22.8638 723.6256,-28.4375"/>
</g>
<!-- Node20&#45;&gt;Node1 -->
<g id="edge32" class="edge">
<title>Node20&#45;&gt;Node1</title>
<path fill="none" stroke="#191970" d="M422.6525,-526.4183C386.6981,-509.3218 320,-469.9338 320,-413 320,-413 320,-413 320,-239.5 320,-153.0917 666.1286,-132.4607 668,-132 668.0989,-131.9757 668.198,-131.9512 668.2971,-131.9266"/>
<polygon fill="#191970" stroke="#191970" points="668.9982,-135.3635 677.7191,-129.3472 667.1498,-128.6119 668.9982,-135.3635"/>
</g>
<!-- Node21 -->
<g id="node22" class="node">
<title>Node21</title>
<polygon fill="none" stroke="#bfbfbf" points="402,-465 402,-484 488,-484 488,-465 402,-465"/>
<text text-anchor="middle" x="445" y="-472" font-family="FreeSans.ttf" font-size="10.00" fill="#000000">ModelExport.h</text>
</g>
<!-- Node20&#45;&gt;Node21 -->
<g id="edge33" class="edge">
<title>Node20&#45;&gt;Node21</title>
<path fill="none" stroke="#191970" d="M445,-526.3906C445,-517.8657 445,-505.1392 445,-494.4235"/>
<polygon fill="#191970" stroke="#191970" points="448.5001,-494.2448 445,-484.2449 441.5001,-494.2449 448.5001,-494.2448"/>
</g>
<!-- Node22&#45;&gt;Node18 -->
<g id="edge35" class="edge">
<title>Node22&#45;&gt;Node18</title>
<path fill="none" stroke="#191970" d="M144.7515,-582.4556C149.6071,-540.75 163.2397,-423.6556 168.698,-376.7727"/>
<polygon fill="#191970" stroke="#191970" points="172.1919,-377.0272 169.8719,-366.6895 165.2389,-376.2176 172.1919,-377.0272"/>
</g>
<!-- Node23&#45;&gt;Node2 -->
<g id="edge83" class="edge">
<title>Node23&#45;&gt;Node2</title>
<path fill="none" stroke="#191970" d="M524.1431,-587.9326C486.7726,-578.3924 427.7794,-563.0773 367.4533,-546.058"/>
<polygon fill="#191970" stroke="#191970" points="368.3384,-542.6711 357.763,-543.3125 366.4301,-549.406 368.3384,-542.6711"/>
</g>
<!-- Node23&#45;&gt;Node20 -->
<g id="edge82" class="edge">
<title>Node23&#45;&gt;Node20</title>
<path fill="none" stroke="#191970" d="M543.7188,-587.8906C524.4859,-577.7811 494.0121,-561.7628 472.0075,-550.1962"/>
<polygon fill="#191970" stroke="#191970" points="473.633,-547.0967 463.1529,-545.5419 470.376,-553.2928 473.633,-547.0967"/>
</g>
<!-- Node24 -->
<g id="node25" class="node">
<title>Node24</title>
<g id="a_node25"><a xlink:href="Transform_8h.html" target="_top" xlink:title="iDynTree/Core/Transform.h">
<polygon fill="none" stroke="#000000" points="508,-403.5 508,-422.5 654,-422.5 654,-403.5 508,-403.5"/>
<text text-anchor="middle" x="581" y="-410.5" font-family="FreeSans.ttf" font-size="10.00" fill="#000000">iDynTree/Core/Transform.h</text>
</a>
</g>
</g>
<!-- Node23&#45;&gt;Node24 -->
<g id="edge37" class="edge">
<title>Node23&#45;&gt;Node24</title>
<path fill="none" stroke="#191970" d="M562.9948,-587.8402C565.9831,-558.8223 574.9232,-472.0088 578.9701,-432.7113"/>
<polygon fill="#191970" stroke="#191970" points="582.4722,-432.8701 580.0151,-422.5641 575.509,-432.153 582.4722,-432.8701"/>
</g>
<!-- Node32 -->
<g id="node33" class="node">
<title>Node32</title>
<g id="a_node33"><a xlink:href="Twist_8h.html" target="_top" xlink:title="iDynTree/Core/Twist.h">
<polygon fill="none" stroke="#000000" points="726,-526.5 726,-545.5 848,-545.5 848,-526.5 726,-526.5"/>
<text text-anchor="middle" x="787" y="-533.5" font-family="FreeSans.ttf" font-size="10.00" fill="#000000">iDynTree/Core/Twist.h</text>
</a>
</g>
</g>
<!-- Node23&#45;&gt;Node32 -->
<g id="edge61" class="edge">
<title>Node23&#45;&gt;Node32</title>
<path fill="none" stroke="#191970" d="M597.1563,-587.8906C636.2889,-577.1944 699.621,-559.8836 742.2582,-548.2294"/>
<polygon fill="#191970" stroke="#191970" points="743.3673,-551.5547 752.0906,-545.5419 741.5216,-544.8024 743.3673,-551.5547"/>
</g>
<!-- Node35 -->
<g id="node36" class="node">
<title>Node35</title>
<g id="a_node36"><a xlink:href="SpatialAcc_8h.html" target="_top" xlink:title="iDynTree/Core/SpatialAcc.h">
<polygon fill="none" stroke="#000000" points="925,-526.5 925,-545.5 1073,-545.5 1073,-526.5 925,-526.5"/>
<text text-anchor="middle" x="999" y="-533.5" font-family="FreeSans.ttf" font-size="10.00" fill="#000000">iDynTree/Core/SpatialAcc.h</text>
</a>
</g>
</g>
<!-- Node23&#45;&gt;Node35 -->
<g id="edge72" class="edge">
<title>Node23&#45;&gt;Node35</title>
<path fill="none" stroke="#191970" d="M629.8018,-587.9581C708.624,-576.8653 838.4598,-558.5932 921.2872,-546.9367"/>
<polygon fill="#191970" stroke="#191970" points="921.9841,-550.3732 931.3987,-545.5137 921.0085,-543.4415 921.9841,-550.3732"/>
</g>
<!-- Node36 -->
<g id="node37" class="node">
<title>Node36</title>
<g id="a_node37"><a xlink:href="Wrench_8h.html" target="_top" xlink:title="iDynTree/Core/Wrench.h">
<polygon fill="none" stroke="#000000" points="1126.5,-526.5 1126.5,-545.5 1259.5,-545.5 1259.5,-526.5 1126.5,-526.5"/>
<text text-anchor="middle" x="1193" y="-533.5" font-family="FreeSans.ttf" font-size="10.00" fill="#000000">iDynTree/Core/Wrench.h</text>
</a>
</g>
</g>
<!-- Node23&#45;&gt;Node36 -->
<g id="edge74" class="edge">
<title>Node23&#45;&gt;Node36</title>
<path fill="none" stroke="#191970" d="M636.5503,-590.234C757.2456,-578.4705 994.1995,-555.376 1116.2751,-543.4779"/>
<polygon fill="#191970" stroke="#191970" points="1116.6798,-546.9552 1126.2931,-542.5015 1116.0007,-539.9882 1116.6798,-546.9552"/>
</g>
<!-- Node38 -->
<g id="node39" class="node">
<title>Node38</title>
<g id="a_node39"><a xlink:href="ArticulatedBodyInertia_8h.html" target="_top" xlink:title="iDynTree/Core/Articulated\lBodyInertia.h">
<polygon fill="none" stroke="#000000" points="348.5,-224.5 348.5,-254.5 489.5,-254.5 489.5,-224.5 348.5,-224.5"/>
<text text-anchor="start" x="356.5" y="-242.5" font-family="FreeSans.ttf" font-size="10.00" fill="#000000">iDynTree/Core/Articulated</text>
<text text-anchor="middle" x="419" y="-231.5" font-family="FreeSans.ttf" font-size="10.00" fill="#000000">BodyInertia.h</text>
</a>
</g>
</g>
<!-- Node23&#45;&gt;Node38 -->
<g id="edge79" class="edge">
<title>Node23&#45;&gt;Node38</title>
<path fill="none" stroke="#191970" d="M558.1751,-587.9244C539.4634,-541.0798 457.3193,-335.4322 428.7973,-264.0276"/>
<polygon fill="#191970" stroke="#191970" points="431.952,-262.4896 424.9922,-254.5014 425.4514,-265.0863 431.952,-262.4896"/>
</g>
<!-- Node24&#45;&gt;Node1 -->
<g id="edge60" class="edge">
<title>Node24&#45;&gt;Node1</title>
<path fill="none" stroke="#191970" d="M570.878,-403.2465C553.0693,-384.984 518,-343.6112 518,-301 518,-301 518,-301 518,-239.5 518,-204.1671 616.0396,-157.4044 668.207,-135.0227"/>
<polygon fill="#191970" stroke="#191970" points="669.8404,-138.132 677.6832,-131.0087 667.1101,-131.6864 669.8404,-138.132"/>
</g>
<!-- Node25 -->
<g id="node26" class="node">
<title>Node25</title>
<g id="a_node26"><a xlink:href="Position_8h.html" target="_top" xlink:title="iDynTree/Core/Position.h">
<polygon fill="none" stroke="#000000" points="632,-347.5 632,-366.5 768,-366.5 768,-347.5 632,-347.5"/>
<text text-anchor="middle" x="700" y="-354.5" font-family="FreeSans.ttf" font-size="10.00" fill="#000000">iDynTree/Core/Position.h</text>
</a>
</g>
</g>
<!-- Node24&#45;&gt;Node25 -->
<g id="edge38" class="edge">
<title>Node24&#45;&gt;Node25</title>
<path fill="none" stroke="#191970" d="M601.4568,-403.3733C620.4738,-394.4241 649.0175,-380.9917 670.4976,-370.8835"/>
<polygon fill="#191970" stroke="#191970" points="672.2522,-373.926 679.8101,-366.5011 669.2716,-367.5923 672.2522,-373.926"/>
</g>
<!-- Node27 -->
<g id="node28" class="node">
<title>Node27</title>
<g id="a_node28"><a xlink:href="Rotation_8h.html" target="_top" xlink:title="iDynTree/Core/Rotation.h">
<polygon fill="none" stroke="#000000" points="844.5,-291.5 844.5,-310.5 981.5,-310.5 981.5,-291.5 844.5,-291.5"/>
<text text-anchor="middle" x="913" y="-298.5" font-family="FreeSans.ttf" font-size="10.00" fill="#000000">iDynTree/Core/Rotation.h</text>
</a>
</g>
</g>
<!-- Node24&#45;&gt;Node27 -->
<g id="edge58" class="edge">
<title>Node24&#45;&gt;Node27</title>
<path fill="none" stroke="#191970" d="M636.0058,-403.4744C675.8159,-395.7693 730.5576,-383.4894 777,-367 816.8687,-352.8446 860.4537,-330.346 887.266,-315.6246"/>
<polygon fill="#191970" stroke="#191970" points="889.3033,-318.4968 896.3473,-310.5827 885.9055,-312.3768 889.3033,-318.4968"/>
</g>
<!-- Node30 -->
<g id="node31" class="node">
<title>Node30</title>
<g id="a_node31"><a xlink:href="MatrixFixSize_8h.html" target="_top" xlink:title="iDynTree/Core/MatrixFixSize.h">
<polygon fill="none" stroke="#000000" points="849.5,-168.5 849.5,-187.5 1010.5,-187.5 1010.5,-168.5 849.5,-168.5"/>
<text text-anchor="middle" x="930" y="-175.5" font-family="FreeSans.ttf" font-size="10.00" fill="#000000">iDynTree/Core/MatrixFixSize.h</text>
</a>
</g>
</g>
<!-- Node24&#45;&gt;Node30 -->
<g id="edge59" class="edge">
<title>Node24&#45;&gt;Node30</title>
<path fill="none" stroke="#191970" d="M579.1872,-403.4257C573.9207,-372.3993 562.0501,-273.7606 613,-224 629.0895,-208.2861 751.4213,-194.0638 839.3026,-185.7225"/>
<polygon fill="#191970" stroke="#191970" points="839.6724,-189.2033 849.3018,-184.7846 839.0186,-182.2339 839.6724,-189.2033"/>
</g>
<!-- Node25&#45;&gt;Node1 -->
<g id="edge57" class="edge">
<title>Node25&#45;&gt;Node1</title>
<path fill="none" stroke="#191970" d="M687.4008,-347.403C667.1137,-331.0594 627.9705,-295.6205 613,-255 595.8188,-208.381 645.8532,-161.541 677.0451,-137.8567"/>
<polygon fill="#191970" stroke="#191970" points="679.287,-140.5526 685.2716,-131.8099 675.1412,-134.9123 679.287,-140.5526"/>
</g>
<!-- Node26 -->
<g id="node27" class="node">
<title>Node26</title>
<g id="a_node27"><a xlink:href="PositionRaw_8h.html" target="_top" xlink:title="iDynTree/Core/PositionRaw.h">
<polygon fill="none" stroke="#000000" points="622,-230 622,-249 778,-249 778,-230 622,-230"/>
<text text-anchor="middle" x="700" y="-237" font-family="FreeSans.ttf" font-size="10.00" fill="#000000">iDynTree/Core/PositionRaw.h</text>
</a>
</g>
</g>
<!-- Node25&#45;&gt;Node26 -->
<g id="edge39" class="edge">
<title>Node25&#45;&gt;Node26</title>
<path fill="none" stroke="#191970" d="M700,-347.3845C700,-328.1913 700,-284.786 700,-259.2663"/>
<polygon fill="#191970" stroke="#191970" points="703.5001,-259.2483 700,-249.2484 696.5001,-259.2484 703.5001,-259.2483"/>
</g>
<!-- Node25&#45;&gt;Node27 -->
<g id="edge42" class="edge">
<title>Node25&#45;&gt;Node27</title>
<path fill="none" stroke="#191970" d="M736.616,-347.3733C772.648,-337.9001 827.7878,-323.4032 866.8114,-313.1435"/>
<polygon fill="#191970" stroke="#191970" points="868.0804,-316.4289 876.8618,-310.5011 866.3005,-309.6589 868.0804,-316.4289"/>
</g>
<!-- Node26&#45;&gt;Node1 -->
<g id="edge41" class="edge">
<title>Node26&#45;&gt;Node1</title>
<path fill="none" stroke="#191970" d="M700,-229.8845C700,-210.6913 700,-167.286 700,-141.7663"/>
<polygon fill="#191970" stroke="#191970" points="703.5001,-141.7483 700,-131.7484 696.5001,-141.7484 703.5001,-141.7483"/>
</g>
<!-- Node26&#45;&gt;Node3 -->
<g id="edge40" class="edge">
<title>Node26&#45;&gt;Node3</title>
<path fill="none" stroke="#191970" d="M776.3461,-229.9973C792.415,-228.0073 809.2637,-225.9281 825,-224 924.4239,-211.818 1038.5064,-198.034 1115.5168,-188.7579"/>
<polygon fill="#191970" stroke="#191970" points="1116.151,-192.2069 1125.6608,-187.5362 1115.314,-185.2571 1116.151,-192.2069"/>
</g>
<!-- Node27&#45;&gt;Node1 -->
<g id="edge43" class="edge">
<title>Node27&#45;&gt;Node1</title>
<path fill="none" stroke="#191970" d="M889.705,-291.4138C871.2081,-283.2107 845.1889,-270.3168 825,-255 778.9581,-220.0691 735.0746,-167.4045 713.6432,-140.0039"/>
<polygon fill="#191970" stroke="#191970" points="716.1466,-137.519 707.2652,-131.7421 710.6056,-141.7966 716.1466,-137.519"/>
</g>
<!-- Node27&#45;&gt;Node3 -->
<g id="edge56" class="edge">
<title>Node27&#45;&gt;Node3</title>
<path fill="none" stroke="#191970" d="M933.3742,-291.3822C951.5078,-282.5815 978.5574,-268.8571 1001,-255 1021.0464,-242.6224 1022.8008,-234.2788 1044,-224 1075.9819,-208.4931 1114.1398,-197.3056 1145.2789,-189.8488"/>
<polygon fill="#191970" stroke="#191970" points="1146.1788,-193.233 1155.1256,-187.5581 1144.5926,-186.415 1146.1788,-193.233"/>
</g>
<!-- Node28 -->
<g id="node29" class="node">
<title>Node28</title>
<g id="a_node29"><a xlink:href="GeomVector3_8h.html" target="_top" xlink:title="iDynTree/Core/GeomVector3.h">
<polygon fill="none" stroke="#000000" points="1124.5,-230 1124.5,-249 1287.5,-249 1287.5,-230 1124.5,-230"/>
<text text-anchor="middle" x="1206" y="-237" font-family="FreeSans.ttf" font-size="10.00" fill="#000000">iDynTree/Core/GeomVector3.h</text>
</a>
</g>
</g>
<!-- Node27&#45;&gt;Node28 -->
<g id="edge44" class="edge">
<title>Node27&#45;&gt;Node28</title>
<path fill="none" stroke="#191970" d="M958.4598,-291.4581C1010.2114,-280.5956 1094.7612,-262.8488 1150.3962,-251.1711"/>
<polygon fill="#191970" stroke="#191970" points="1151.3658,-254.5439 1160.4336,-249.0643 1149.9278,-247.6932 1151.3658,-254.5439"/>
</g>
<!-- Node29 -->
<g id="node30" class="node">
<title>Node29</title>
<g id="a_node30"><a xlink:href="RotationRaw_8h.html" target="_top" xlink:title="iDynTree/Core/RotationRaw.h">
<polygon fill="none" stroke="#000000" points="834,-230 834,-249 992,-249 992,-230 834,-230"/>
<text text-anchor="middle" x="913" y="-237" font-family="FreeSans.ttf" font-size="10.00" fill="#000000">iDynTree/Core/RotationRaw.h</text>
</a>
</g>
</g>
<!-- Node27&#45;&gt;Node29 -->
<g id="edge46" class="edge">
<title>Node27&#45;&gt;Node29</title>
<path fill="none" stroke="#191970" d="M913,-291.3906C913,-282.8657 913,-270.1392 913,-259.4235"/>
<polygon fill="#191970" stroke="#191970" points="916.5001,-259.2448 913,-249.2449 909.5001,-259.2449 916.5001,-259.2448"/>
</g>
<!-- Node28&#45;&gt;Node3 -->
<g id="edge45" class="edge">
<title>Node28&#45;&gt;Node3</title>
<path fill="none" stroke="#191970" d="M1205.8438,-229.8906C1205.7051,-221.3657 1205.4982,-208.6392 1205.324,-197.9235"/>
<polygon fill="#191970" stroke="#191970" points="1208.8207,-197.6866 1205.1585,-187.7449 1201.8216,-197.8005 1208.8207,-197.6866"/>
</g>
<!-- Node29&#45;&gt;Node1 -->
<g id="edge55" class="edge">
<title>Node29&#45;&gt;Node1</title>
<path fill="none" stroke="#191970" d="M898.6533,-229.9479C877.0346,-215.718 834.6269,-188.4384 797,-168 775.4236,-156.28 750.3657,-144.4404 731.1238,-135.7081"/>
<polygon fill="#191970" stroke="#191970" points="732.4694,-132.4756 721.9138,-131.5638 729.5969,-138.8591 732.4694,-132.4756"/>
</g>
<!-- Node29&#45;&gt;Node30 -->
<g id="edge47" class="edge">
<title>Node29&#45;&gt;Node30</title>
<path fill="none" stroke="#191970" d="M915.6563,-229.8906C918.0375,-221.276 921.6048,-208.3708 924.586,-197.5858"/>
<polygon fill="#191970" stroke="#191970" points="928.0154,-198.3159 927.3063,-187.7449 921.2684,-196.4509 928.0154,-198.3159"/>
</g>
<!-- Node30&#45;&gt;Node1 -->
<g id="edge52" class="edge">
<title>Node30&#45;&gt;Node1</title>
<path fill="none" stroke="#191970" d="M890.7229,-168.4369C845.8953,-157.5223 773.4339,-139.8796 731.9286,-129.7739"/>
<polygon fill="#191970" stroke="#191970" points="732.6232,-126.3409 722.079,-127.3758 730.9672,-133.1422 732.6232,-126.3409"/>
</g>
<!-- Node30&#45;&gt;Node4 -->
<g id="edge48" class="edge">
<title>Node30&#45;&gt;Node4</title>
<path fill="none" stroke="#191970" d="M930.8114,-168.184C932.3633,-154.4799 936.7728,-129.3482 949,-112 958.071,-99.1299 971.9181,-88.5359 984.4149,-80.772"/>
<polygon fill="#191970" stroke="#191970" points="986.3328,-83.7048 993.1883,-75.6268 982.7917,-77.6665 986.3328,-83.7048"/>
</g>
<!-- Node30&#45;&gt;Node8 -->
<g id="edge50" class="edge">
<title>Node30&#45;&gt;Node8</title>
<path fill="none" stroke="#191970" d="M927.8481,-168.4862C921.8152,-141.8144 904.6467,-65.9117 896.4548,-29.695"/>
<polygon fill="#191970" stroke="#191970" points="899.843,-28.8093 894.223,-19.8279 893.0155,-30.3537 899.843,-28.8093"/>
</g>
<!-- Node30&#45;&gt;Node16 -->
<g id="edge54" class="edge">
<title>Node30&#45;&gt;Node16</title>
<path fill="none" stroke="#191970" d="M974.4766,-168.473C1013.5145,-159.9873 1072.0604,-146.9632 1131.7696,-132.2382"/>
<polygon fill="#191970" stroke="#191970" points="1132.8857,-135.5675 1141.7493,-129.7636 1131.2009,-128.7733 1132.8857,-135.5675"/>
</g>
<!-- Node30&#45;&gt;Node17 -->
<g id="edge51" class="edge">
<title>Node30&#45;&gt;Node17</title>
<path fill="none" stroke="#191970" d="M959.0521,-168.3733C988.2613,-158.6945 1033.2964,-143.7716 1064.3502,-133.4816"/>
<polygon fill="#191970" stroke="#191970" points="1065.512,-136.7838 1073.9035,-130.316 1063.3102,-130.1391 1065.512,-136.7838"/>
</g>
<!-- Node30&#45;&gt;Node19 -->
<g id="edge49" class="edge">
<title>Node30&#45;&gt;Node19</title>
<path fill="none" stroke="#191970" d="M870.9136,-168.4369C810.4544,-158.6516 716.5812,-143.4582 652.8095,-133.1368"/>
<polygon fill="#191970" stroke="#191970" points="653.2734,-129.6664 642.8427,-131.5237 652.155,-136.5765 653.2734,-129.6664"/>
</g>
<!-- Node31 -->
<g id="node32" class="node">
<title>Node31</title>
<polygon fill="none" stroke="#bfbfbf" points="958,-112.5 958,-131.5 1018,-131.5 1018,-112.5 958,-112.5"/>
<text text-anchor="middle" x="988" y="-119.5" font-family="FreeSans.ttf" font-size="10.00" fill="#000000">iostream</text>
</g>
<!-- Node30&#45;&gt;Node31 -->
<g id="edge53" class="edge">
<title>Node30&#45;&gt;Node31</title>
<path fill="none" stroke="#191970" d="M940.1028,-168.2455C948.5028,-160.1352 960.6494,-148.4075 970.6084,-138.7919"/>
<polygon fill="#191970" stroke="#191970" points="973.25,-141.1066 978.0129,-131.6427 968.3878,-136.0707 973.25,-141.1066"/>
</g>
<!-- Node33 -->
<g id="node34" class="node">
<title>Node33</title>
<g id="a_node34"><a xlink:href="SpatialMotionVector_8h.html" target="_top" xlink:title="iDynTree/Core/SpatialMotion\lVector.h">
<polygon fill="none" stroke="#000000" points="980.5,-459.5 980.5,-489.5 1135.5,-489.5 1135.5,-459.5 980.5,-459.5"/>
<text text-anchor="start" x="988.5" y="-477.5" font-family="FreeSans.ttf" font-size="10.00" fill="#000000">iDynTree/Core/SpatialMotion</text>
<text text-anchor="middle" x="1058" y="-466.5" font-family="FreeSans.ttf" font-size="10.00" fill="#000000">Vector.h</text>
</a>
</g>
</g>
<!-- Node32&#45;&gt;Node33 -->
<g id="edge62" class="edge">
<title>Node32&#45;&gt;Node33</title>
<path fill="none" stroke="#191970" d="M829.0464,-526.4581C869.7295,-517.2256 932.3269,-503.0199 981.7923,-491.7944"/>
<polygon fill="#191970" stroke="#191970" points="982.8399,-495.1457 991.8173,-489.5193 981.2907,-488.3193 982.8399,-495.1457"/>
</g>
<!-- Node33&#45;&gt;Node3 -->
<g id="edge63" class="edge">
<title>Node33&#45;&gt;Node3</title>
<path fill="none" stroke="#191970" d="M1058,-459.2899C1058,-436.892 1058,-393.7188 1058,-357 1058,-357 1058,-357 1058,-301 1058,-244.5407 1122.5709,-208.8912 1166.122,-191.2677"/>
<polygon fill="#191970" stroke="#191970" points="1167.5557,-194.4655 1175.6057,-187.5772 1165.0171,-187.9421 1167.5557,-194.4655"/>
</g>
<!-- Node33&#45;&gt;Node28 -->
<g id="edge64" class="edge">
<title>Node33&#45;&gt;Node28</title>
<path fill="none" stroke="#191970" d="M1067.4832,-459.4422C1093.517,-418.1048 1166.0383,-302.9528 1194.4105,-257.9023"/>
<polygon fill="#191970" stroke="#191970" points="1197.5395,-259.5016 1199.907,-249.1746 1191.6163,-255.7712 1197.5395,-259.5016"/>
</g>
<!-- Node34 -->
<g id="node35" class="node">
<title>Node34</title>
<g id="a_node35"><a xlink:href="SpatialVector_8h.html" target="_top" xlink:title="iDynTree/Core/SpatialVector.h">
<polygon fill="none" stroke="#000000" points="1126.5,-403.5 1126.5,-422.5 1287.5,-422.5 1287.5,-403.5 1126.5,-403.5"/>
<text text-anchor="middle" x="1207" y="-410.5" font-family="FreeSans.ttf" font-size="10.00" fill="#000000">iDynTree/Core/SpatialVector.h</text>
</a>
</g>
</g>
<!-- Node33&#45;&gt;Node34 -->
<g id="edge65" class="edge">
<title>Node33&#45;&gt;Node34</title>
<path fill="none" stroke="#191970" d="M1094.4495,-459.4554C1118.8744,-449.374 1150.7581,-436.2139 1174.3521,-426.4755"/>
<polygon fill="#191970" stroke="#191970" points="1176.0021,-429.5809 1183.9103,-422.5303 1173.3313,-423.1104 1176.0021,-429.5809"/>
</g>
<!-- Node34&#45;&gt;Node4 -->
<g id="edge68" class="edge">
<title>Node34&#45;&gt;Node4</title>
<path fill="none" stroke="#191970" d="M1185.8605,-403.4901C1153.6548,-387.3882 1096,-351.5089 1096,-301 1096,-301 1096,-301 1096,-239.5 1096,-177.1987 1051.9102,-113.5487 1027.9991,-83.6106"/>
<polygon fill="#191970" stroke="#191970" points="1030.615,-81.2808 1021.5698,-75.764 1025.2005,-85.7173 1030.615,-81.2808"/>
</g>
<!-- Node34&#45;&gt;Node16 -->
<g id="edge71" class="edge">
<title>Node34&#45;&gt;Node16</title>
<path fill="none" stroke="#191970" d="M1263.2596,-403.4491C1317.6876,-390.6063 1392,-361.9174 1392,-301 1392,-301 1392,-301 1392,-239.5 1392,-157.2978 1271.6288,-132.4449 1208.1572,-125.054"/>
<polygon fill="#191970" stroke="#191970" points="1208.4332,-121.5636 1198.1165,-123.9751 1207.6853,-128.5235 1208.4332,-121.5636"/>
</g>
<!-- Node34&#45;&gt;Node25 -->
<g id="edge66" class="edge">
<title>Node34&#45;&gt;Node25</title>
<path fill="none" stroke="#191970" d="M1126.3842,-404.0957C1030.8207,-393.5403 872.6515,-376.07 778.1711,-365.6343"/>
<polygon fill="#191970" stroke="#191970" points="778.4269,-362.1413 768.103,-364.5222 777.6583,-369.099 778.4269,-362.1413"/>
</g>
<!-- Node34&#45;&gt;Node27 -->
<g id="edge67" class="edge">
<title>Node34&#45;&gt;Node27</title>
<path fill="none" stroke="#191970" d="M1180.6068,-403.4583C1155.2694,-394.2578 1115.946,-379.8732 1082,-367 1034.822,-349.109 980.5152,-327.7662 946.4731,-314.2965"/>
<polygon fill="#191970" stroke="#191970" points="947.5969,-310.9772 937.0107,-310.5487 945.0192,-317.4853 947.5969,-310.9772"/>
</g>
<!-- Node34&#45;&gt;Node28 -->
<g id="edge69" class="edge">
<title>Node34&#45;&gt;Node28</title>
<path fill="none" stroke="#191970" d="M1206.9448,-403.4248C1206.7867,-375.999 1206.3299,-296.732 1206.1147,-259.3964"/>
<polygon fill="#191970" stroke="#191970" points="1209.6139,-259.2392 1206.0563,-249.2595 1202.614,-259.2796 1209.6139,-259.2392"/>
</g>
<!-- Node34&#45;&gt;Node31 -->
<g id="edge70" class="edge">
<title>Node34&#45;&gt;Node31</title>
<path fill="none" stroke="#191970" d="M1218.3066,-403.4369C1251.7322,-374.0456 1344.7785,-283.4358 1296,-224 1243.9664,-160.598 1192.3848,-215.1827 1115,-188 1077.1655,-174.71 1036.5623,-151.9473 1011.7168,-136.9366"/>
<polygon fill="#191970" stroke="#191970" points="1013.3601,-133.8388 1003.0047,-131.5991 1009.7032,-139.8076 1013.3601,-133.8388"/>
</g>
<!-- Node35&#45;&gt;Node33 -->
<g id="edge73" class="edge">
<title>Node35&#45;&gt;Node33</title>
<path fill="none" stroke="#191970" d="M1008.2188,-526.3906C1015.7601,-518.5298 1026.7287,-507.0964 1036.4518,-496.9612"/>
<polygon fill="#191970" stroke="#191970" points="1039.1698,-499.1839 1043.567,-489.5446 1034.1184,-494.3378 1039.1698,-499.1839"/>
</g>
<!-- Node37 -->
<g id="node38" class="node">
<title>Node37</title>
<g id="a_node38"><a xlink:href="SpatialForceVector_8h.html" target="_top" xlink:title="iDynTree/Core/SpatialForce\lVector.h">
<polygon fill="none" stroke="#000000" points="1198,-459.5 1198,-489.5 1346,-489.5 1346,-459.5 1198,-459.5"/>
<text text-anchor="start" x="1206" y="-477.5" font-family="FreeSans.ttf" font-size="10.00" fill="#000000">iDynTree/Core/SpatialForce</text>
<text text-anchor="middle" x="1272" y="-466.5" font-family="FreeSans.ttf" font-size="10.00" fill="#000000">Vector.h</text>
</a>
</g>
</g>
<!-- Node36&#45;&gt;Node37 -->
<g id="edge75" class="edge">
<title>Node36&#45;&gt;Node37</title>
<path fill="none" stroke="#191970" d="M1205.3438,-526.3906C1215.8374,-518.2215 1231.2872,-506.1941 1244.6709,-495.7752"/>
<polygon fill="#191970" stroke="#191970" points="1246.9336,-498.4493 1252.6744,-489.5446 1242.6336,-492.9257 1246.9336,-498.4493"/>
</g>
<!-- Node37&#45;&gt;Node3 -->
<g id="edge76" class="edge">
<title>Node37&#45;&gt;Node3</title>
<path fill="none" stroke="#191970" d="M1291.8499,-459.3792C1316.118,-439.0107 1354,-400.2837 1354,-357 1354,-357 1354,-357 1354,-301 1354,-265.154 1354.6993,-249.9785 1330,-224 1314.6631,-207.8688 1293.1876,-197.365 1272.358,-190.5373"/>
<polygon fill="#191970" stroke="#191970" points="1273.1223,-187.1118 1262.5371,-187.5622 1271.0928,-193.8112 1273.1223,-187.1118"/>
</g>
<!-- Node37&#45;&gt;Node28 -->
<g id="edge77" class="edge">
<title>Node37&#45;&gt;Node28</title>
<path fill="none" stroke="#191970" d="M1282.4531,-459.3494C1291.0607,-445.0063 1301.0852,-422.7833 1296,-403 1281.1514,-345.2333 1241.1231,-286.0054 1219.8036,-257.2854"/>
<polygon fill="#191970" stroke="#191970" points="1222.4175,-254.9391 1213.5947,-249.0732 1216.8338,-259.1608 1222.4175,-254.9391"/>
</g>
<!-- Node37&#45;&gt;Node34 -->
<g id="edge78" class="edge">
<title>Node37&#45;&gt;Node34</title>
<path fill="none" stroke="#191970" d="M1255.9326,-459.2977C1246.534,-450.4052 1234.6473,-439.1586 1224.943,-429.9769"/>
<polygon fill="#191970" stroke="#191970" points="1227.0768,-427.1774 1217.4073,-422.8469 1222.2658,-432.2621 1227.0768,-427.1774"/>
</g>
<!-- Node38&#45;&gt;Node1 -->
<g id="edge81" class="edge">
<title>Node38&#45;&gt;Node1</title>
<path fill="none" stroke="#191970" d="M432.4828,-224.4472C448.0693,-208.0098 475.2844,-182.1456 504,-168 570.9428,-135.0234 595.8739,-151.1473 668,-132 668.0984,-131.9739 668.197,-131.9476 668.2958,-131.9213"/>
<polygon fill="#191970" stroke="#191970" points="669.0351,-135.35 677.6923,-129.2424 667.1159,-128.6183 669.0351,-135.35"/>
</g>
<!-- Node38&#45;&gt;Node30 -->
<g id="edge80" class="edge">
<title>Node38&#45;&gt;Node30</title>
<path fill="none" stroke="#191970" d="M489.5611,-230.5178C506.7182,-228.3587 525.0157,-226.0769 542,-224 643.6512,-211.5696 760.3489,-197.8023 838.9935,-188.5981"/>
<polygon fill="#191970" stroke="#191970" points="839.8259,-192.0247 849.3515,-187.3864 839.0125,-185.0721 839.8259,-192.0247"/>
</g>
</g>
</svg>
