<?xml version="1.0" encoding="UTF-8" standalone="no"?>
<!DOCTYPE svg PUBLIC "-//W3C//DTD SVG 1.1//EN"
 "http://www.w3.org/Graphics/SVG/1.1/DTD/svg11.dtd">
<!-- Generated by graphviz version 2.40.1 (20161225.0304)
 -->
<!-- Title: LinearCost.h Pages: 1 -->
<svg width="1244pt" height="588pt"
 viewBox="0.00 0.00 1244.49 588.00" xmlns="http://www.w3.org/2000/svg" xmlns:xlink="http://www.w3.org/1999/xlink">
<g id="graph0" class="graph" transform="scale(1 1) rotate(0) translate(4 584)">
<title>LinearCost.h</title>
<!-- Node0 -->
<g id="node1" class="node">
<title>Node0</title>
<polygon fill="#bfbfbf" stroke="#000000" points="335,-560.5 335,-579.5 412,-579.5 412,-560.5 335,-560.5"/>
<text text-anchor="middle" x="373.5" y="-567.5" font-family="FreeSans.ttf" font-size="10.00" fill="#000000">LinearCost.h</text>
</g>
<!-- Node1 -->
<g id="node2" class="node">
<title>Node1</title>
<g id="a_node2"><a xlink:href="QuadraticLikeCost_8h.html" target="_top" xlink:title="iDynTree/QuadraticLikeCost.h">
<polygon fill="none" stroke="#000000" points="239,-504.5 239,-523.5 400,-523.5 400,-504.5 239,-504.5"/>
<text text-anchor="middle" x="319.5" y="-511.5" font-family="FreeSans.ttf" font-size="10.00" fill="#000000">iDynTree/QuadraticLikeCost.h</text>
</a>
</g>
</g>
<!-- Node0&#45;&gt;Node1 -->
<g id="edge1" class="edge">
<title>Node0&#45;&gt;Node1</title>
<path fill="none" stroke="#191970" d="M364.0939,-560.2455C356.3507,-552.2155 345.188,-540.6394 335.9682,-531.0781"/>
<polygon fill="#191970" stroke="#191970" points="338.2591,-528.4117 328.7983,-523.6427 333.2202,-533.2706 338.2591,-528.4117"/>
</g>
<!-- Node10 -->
<g id="node11" class="node">
<title>Node10</title>
<g id="a_node11"><a xlink:href="TimeVaryingObject_8h.html" target="_top" xlink:title="iDynTree/TimeVaryingObject.h">
<polygon fill="none" stroke="#000000" points="356.5,-448.5 356.5,-467.5 520.5,-467.5 520.5,-448.5 356.5,-448.5"/>
<text text-anchor="middle" x="438.5" y="-455.5" font-family="FreeSans.ttf" font-size="10.00" fill="#000000">iDynTree/TimeVaryingObject.h</text>
</a>
</g>
</g>
<!-- Node0&#45;&gt;Node10 -->
<g id="edge63" class="edge">
<title>Node0&#45;&gt;Node10</title>
<path fill="none" stroke="#191970" d="M381.9666,-560.2297C389.5184,-551.2182 400.5742,-537.2666 408.5,-524 417.4647,-508.9944 425.5316,-490.8465 431.0366,-477.3815"/>
<polygon fill="#191970" stroke="#191970" points="434.4291,-478.3219 434.8705,-467.7362 427.9242,-475.7362 434.4291,-478.3219"/>
</g>
<!-- Node2 -->
<g id="node3" class="node">
<title>Node2</title>
<g id="a_node3"><a xlink:href="Cost_8h.html" target="_top" xlink:title="iDynTree/Cost.h">
<polygon fill="none" stroke="#000000" points="137,-224.5 137,-243.5 230,-243.5 230,-224.5 137,-224.5"/>
<text text-anchor="middle" x="183.5" y="-231.5" font-family="FreeSans.ttf" font-size="10.00" fill="#000000">iDynTree/Cost.h</text>
</a>
</g>
</g>
<!-- Node1&#45;&gt;Node2 -->
<g id="edge2" class="edge">
<title>Node1&#45;&gt;Node2</title>
<path fill="none" stroke="#191970" d="M294.8115,-504.4526C259.1627,-488.8613 197.5,-454.3294 197.5,-402 197.5,-402 197.5,-402 197.5,-346 197.5,-313.311 191.5554,-275.6669 187.4134,-253.4058"/>
<polygon fill="#191970" stroke="#191970" points="190.8403,-252.692 185.5059,-243.5381 183.9676,-254.0207 190.8403,-252.692"/>
</g>
<!-- Node1&#45;&gt;Node10 -->
<g id="edge12" class="edge">
<title>Node1&#45;&gt;Node10</title>
<path fill="none" stroke="#191970" d="M339.9568,-504.3733C358.9738,-495.4241 387.5175,-481.9917 408.9976,-471.8835"/>
<polygon fill="#191970" stroke="#191970" points="410.7522,-474.926 418.3101,-467.5011 407.7716,-468.5923 410.7522,-474.926"/>
</g>
<!-- Node34 -->
<g id="node35" class="node">
<title>Node34</title>
<polygon fill="none" stroke="#bfbfbf" points="280.5,-448.5 280.5,-467.5 338.5,-467.5 338.5,-448.5 280.5,-448.5"/>
<text text-anchor="middle" x="309.5" y="-455.5" font-family="FreeSans.ttf" font-size="10.00" fill="#000000">memory</text>
</g>
<!-- Node1&#45;&gt;Node34 -->
<g id="edge62" class="edge">
<title>Node1&#45;&gt;Node34</title>
<path fill="none" stroke="#191970" d="M317.7581,-504.2455C316.4533,-496.9382 314.624,-486.6944 313.0187,-477.7046"/>
<polygon fill="#191970" stroke="#191970" points="316.4254,-476.8717 311.2219,-467.6427 309.5344,-478.1022 316.4254,-476.8717"/>
</g>
<!-- Node3 -->
<g id="node4" class="node">
<title>Node3</title>
<polygon fill="none" stroke="#bfbfbf" points="568.5,-112.5 568.5,-131.5 612.5,-131.5 612.5,-112.5 568.5,-112.5"/>
<text text-anchor="middle" x="590.5" y="-119.5" font-family="FreeSans.ttf" font-size="10.00" fill="#000000">string</text>
</g>
<!-- Node2&#45;&gt;Node3 -->
<g id="edge3" class="edge">
<title>Node2&#45;&gt;Node3</title>
<path fill="none" stroke="#191970" d="M183.0374,-224.1805C182.9344,-209.5149 185.1232,-182.1084 201.5,-168 228.3628,-144.858 469.6222,-128.893 558.1322,-123.7699"/>
<polygon fill="#191970" stroke="#191970" points="558.5987,-127.2491 568.3833,-123.1858 558.2004,-120.2605 558.5987,-127.2491"/>
</g>
<!-- Node4 -->
<g id="node5" class="node">
<title>Node4</title>
<g id="a_node5"><a xlink:href="SparsityStructure_8h.html" target="_top" xlink:title="iDynTree/SparsityStructure.h">
<polygon fill="none" stroke="#000000" points="0,-168.5 0,-187.5 155,-187.5 155,-168.5 0,-168.5"/>
<text text-anchor="middle" x="77.5" y="-175.5" font-family="FreeSans.ttf" font-size="10.00" fill="#000000">iDynTree/SparsityStructure.h</text>
</a>
</g>
</g>
<!-- Node2&#45;&gt;Node4 -->
<g id="edge4" class="edge">
<title>Node2&#45;&gt;Node4</title>
<path fill="none" stroke="#191970" d="M165.0362,-224.2455C148.3926,-215.4527 123.7007,-202.4079 104.7808,-192.4125"/>
<polygon fill="#191970" stroke="#191970" points="106.2291,-189.2193 95.7522,-187.6427 102.9592,-195.4086 106.2291,-189.2193"/>
</g>
<!-- Node4&#45;&gt;Node3 -->
<g id="edge11" class="edge">
<title>Node4&#45;&gt;Node3</title>
<path fill="none" stroke="#191970" d="M155.135,-169.5252C269.3648,-157.0557 477.8368,-134.2985 557.9469,-125.5536"/>
<polygon fill="#191970" stroke="#191970" points="558.8146,-128.9797 568.3757,-124.4151 558.0549,-122.021 558.8146,-128.9797"/>
</g>
<!-- Node5 -->
<g id="node6" class="node">
<title>Node5</title>
<g id="a_node6"><a xlink:href="Utils_8h.html" target="_top" xlink:title="iDynTree/Core/Utils.h">
<polygon fill="none" stroke="#000000" points="380,-56.5 380,-75.5 499,-75.5 499,-56.5 380,-56.5"/>
<text text-anchor="middle" x="439.5" y="-63.5" font-family="FreeSans.ttf" font-size="10.00" fill="#000000">iDynTree/Core/Utils.h</text>
</a>
</g>
</g>
<!-- Node4&#45;&gt;Node5 -->
<g id="edge5" class="edge">
<title>Node4&#45;&gt;Node5</title>
<path fill="none" stroke="#191970" d="M80.1934,-168.0235C84.7703,-153.1529 95.5678,-125.4822 115.5,-112 155.8191,-84.7281 287.3237,-73.3557 369.8803,-68.8168"/>
<polygon fill="#191970" stroke="#191970" points="370.1438,-72.3079 379.9447,-68.2839 369.7736,-65.3177 370.1438,-72.3079"/>
</g>
<!-- Node6 -->
<g id="node7" class="node">
<title>Node6</title>
<polygon fill="none" stroke="#bfbfbf" points="227,-.5 227,-19.5 280,-19.5 280,-.5 227,-.5"/>
<text text-anchor="middle" x="253.5" y="-7.5" font-family="FreeSans.ttf" font-size="10.00" fill="#000000">cstddef</text>
</g>
<!-- Node4&#45;&gt;Node6 -->
<g id="edge9" class="edge">
<title>Node4&#45;&gt;Node6</title>
<path fill="none" stroke="#191970" d="M77.6523,-168.1076C78.3283,-154.3127 81.2967,-129.0739 93.5,-112 124.6236,-68.4544 180.6924,-39.096 217.504,-23.4573"/>
<polygon fill="#191970" stroke="#191970" points="218.9679,-26.6396 226.8798,-19.5931 216.3006,-20.1677 218.9679,-26.6396"/>
</g>
<!-- Node8 -->
<g id="node9" class="node">
<title>Node8</title>
<polygon fill="none" stroke="#bfbfbf" points="125,-112.5 125,-131.5 172,-131.5 172,-112.5 125,-112.5"/>
<text text-anchor="middle" x="148.5" y="-119.5" font-family="FreeSans.ttf" font-size="10.00" fill="#000000">vector</text>
</g>
<!-- Node4&#45;&gt;Node8 -->
<g id="edge8" class="edge">
<title>Node4&#45;&gt;Node8</title>
<path fill="none" stroke="#191970" d="M89.8673,-168.2455C100.4554,-159.8943 115.9064,-147.7076 128.2893,-137.9408"/>
<polygon fill="#191970" stroke="#191970" points="130.5903,-140.5837 136.2745,-131.6427 126.2553,-135.0875 130.5903,-140.5837"/>
</g>
<!-- Node9 -->
<g id="node10" class="node">
<title>Node9</title>
<polygon fill="none" stroke="#bfbfbf" points="190.5,-112.5 190.5,-131.5 276.5,-131.5 276.5,-112.5 190.5,-112.5"/>
<text text-anchor="middle" x="233.5" y="-119.5" font-family="FreeSans.ttf" font-size="10.00" fill="#000000">unordered_set</text>
</g>
<!-- Node4&#45;&gt;Node9 -->
<g id="edge10" class="edge">
<title>Node4&#45;&gt;Node9</title>
<path fill="none" stroke="#191970" d="M104.3174,-168.3733C130.0332,-159.1419 169.038,-145.1402 197.4599,-134.9375"/>
<polygon fill="#191970" stroke="#191970" points="198.8032,-138.174 207.0326,-131.5011 196.4381,-131.5857 198.8032,-138.174"/>
</g>
<!-- Node5&#45;&gt;Node6 -->
<g id="edge6" class="edge">
<title>Node5&#45;&gt;Node6</title>
<path fill="none" stroke="#191970" d="M407.5255,-56.3733C374.8161,-46.5253 324.0747,-31.2483 289.8573,-20.9463"/>
<polygon fill="#191970" stroke="#191970" points="290.825,-17.5825 280.2405,-18.0509 288.8069,-24.2853 290.825,-17.5825"/>
</g>
<!-- Node7 -->
<g id="node8" class="node">
<title>Node7</title>
<polygon fill="none" stroke="#bfbfbf" points="298.5,-.5 298.5,-19.5 378.5,-19.5 378.5,-.5 298.5,-.5"/>
<text text-anchor="middle" x="338.5" y="-7.5" font-family="FreeSans.ttf" font-size="10.00" fill="#000000">CoreExport.h</text>
</g>
<!-- Node5&#45;&gt;Node7 -->
<g id="edge7" class="edge">
<title>Node5&#45;&gt;Node7</title>
<path fill="none" stroke="#191970" d="M421.9071,-56.2455C406.121,-47.4928 382.7361,-34.527 364.7413,-24.5496"/>
<polygon fill="#191970" stroke="#191970" points="366.3341,-21.4308 355.8913,-19.6427 362.9397,-27.5528 366.3341,-21.4308"/>
</g>
<!-- Node11 -->
<g id="node12" class="node">
<title>Node11</title>
<g id="a_node12"><a xlink:href="VectorDynSize_8h.html" target="_top" xlink:title="iDynTree/Core/VectorDynSize.h">
<polygon fill="none" stroke="#000000" points="211,-168.5 211,-187.5 378,-187.5 378,-168.5 211,-168.5"/>
<text text-anchor="middle" x="294.5" y="-175.5" font-family="FreeSans.ttf" font-size="10.00" fill="#000000">iDynTree/Core/VectorDynSize.h</text>
</a>
</g>
</g>
<!-- Node10&#45;&gt;Node11 -->
<g id="edge13" class="edge">
<title>Node10&#45;&gt;Node11</title>
<path fill="none" stroke="#191970" d="M421.1583,-448.4601C393.2577,-431.6916 341.5,-394.1023 341.5,-346 341.5,-346 341.5,-346 341.5,-290 341.5,-254.5481 321.2296,-217.3564 307.3129,-195.9999"/>
<polygon fill="#191970" stroke="#191970" points="310.1421,-193.9356 301.6383,-187.6161 304.3451,-197.8593 310.1421,-193.9356"/>
</g>
<!-- Node21 -->
<g id="node22" class="node">
<title>Node21</title>
<g id="a_node22"><a xlink:href="MatrixDynSize_8h.html" target="_top" xlink:title="iDynTree/Core/MatrixDynSize.h">
<polygon fill="none" stroke="#000000" points="396,-168.5 396,-187.5 563,-187.5 563,-168.5 396,-168.5"/>
<text text-anchor="middle" x="479.5" y="-175.5" font-family="FreeSans.ttf" font-size="10.00" fill="#000000">iDynTree/Core/MatrixDynSize.h</text>
</a>
</g>
</g>
<!-- Node10&#45;&gt;Node21 -->
<g id="edge25" class="edge">
<title>Node10&#45;&gt;Node21</title>
<path fill="none" stroke="#191970" d="M440.5059,-448.4619C444.377,-429.1944 452.5,-384.2117 452.5,-346 452.5,-346 452.5,-346 452.5,-290 452.5,-256.6538 463.9512,-219.2392 471.9386,-197.1981"/>
<polygon fill="#191970" stroke="#191970" points="475.2673,-198.29 475.5161,-187.6981 468.7164,-195.823 475.2673,-198.29"/>
</g>
<!-- Node23 -->
<g id="node24" class="node">
<title>Node23</title>
<g id="a_node24"><a xlink:href="Transform_8h.html" target="_top" xlink:title="iDynTree/Core/Transform.h">
<polygon fill="none" stroke="#000000" points="635.5,-392.5 635.5,-411.5 781.5,-411.5 781.5,-392.5 635.5,-392.5"/>
<text text-anchor="middle" x="708.5" y="-399.5" font-family="FreeSans.ttf" font-size="10.00" fill="#000000">iDynTree/Core/Transform.h</text>
</a>
</g>
</g>
<!-- Node10&#45;&gt;Node23 -->
<g id="edge32" class="edge">
<title>Node10&#45;&gt;Node23</title>
<path fill="none" stroke="#191970" d="M484.6079,-448.4369C531.1075,-438.7925 602.9359,-423.8948 652.64,-413.5858"/>
<polygon fill="#191970" stroke="#191970" points="653.5015,-416.9817 662.5823,-411.5237 652.0799,-410.1275 653.5015,-416.9817"/>
</g>
<!-- Node11&#45;&gt;Node3 -->
<g id="edge24" class="edge">
<title>Node11&#45;&gt;Node3</title>
<path fill="none" stroke="#191970" d="M345.0479,-168.4369C406.2207,-156.8636 507.3792,-137.7256 558.6284,-128.0298"/>
<polygon fill="#191970" stroke="#191970" points="559.3055,-131.4638 568.4805,-126.1658 558.0042,-124.5858 559.3055,-131.4638"/>
</g>
<!-- Node12 -->
<g id="node13" class="node">
<title>Node12</title>
<g id="a_node13"><a xlink:href="Span_8h.html" target="_top" xlink:title="iDynTree/Core/Span.h">
<polygon fill="none" stroke="#000000" points="595,-56.5 595,-75.5 716,-75.5 716,-56.5 595,-56.5"/>
<text text-anchor="middle" x="655.5" y="-63.5" font-family="FreeSans.ttf" font-size="10.00" fill="#000000">iDynTree/Core/Span.h</text>
</a>
</g>
</g>
<!-- Node11&#45;&gt;Node12 -->
<g id="edge14" class="edge">
<title>Node11&#45;&gt;Node12</title>
<path fill="none" stroke="#191970" d="M325.2787,-168.4509C390.4179,-148.2415 542.199,-101.1516 615.0593,-78.5467"/>
<polygon fill="#191970" stroke="#191970" points="616.2855,-81.8309 624.7992,-75.5249 614.2112,-75.1453 616.2855,-81.8309"/>
</g>
<!-- Node12&#45;&gt;Node6 -->
<g id="edge18" class="edge">
<title>Node12&#45;&gt;Node6</title>
<path fill="none" stroke="#191970" d="M594.8329,-61.1067C523.9398,-54.7792 403.0209,-42.0962 289.9931,-19.8352"/>
<polygon fill="#191970" stroke="#191970" points="290.6239,-16.3921 280.1318,-17.8642 289.2519,-23.2563 290.6239,-16.3921"/>
</g>
<!-- Node13 -->
<g id="node14" class="node">
<title>Node13</title>
<polygon fill="none" stroke="#bfbfbf" points="906.5,-.5 906.5,-19.5 958.5,-19.5 958.5,-.5 906.5,-.5"/>
<text text-anchor="middle" x="932.5" y="-7.5" font-family="FreeSans.ttf" font-size="10.00" fill="#000000">cassert</text>
</g>
<!-- Node12&#45;&gt;Node13 -->
<g id="edge15" class="edge">
<title>Node12&#45;&gt;Node13</title>
<path fill="none" stroke="#191970" d="M713.5093,-56.492C760.4215,-48.4577 828.3526,-36.0476 896.1885,-20.161"/>
<polygon fill="#191970" stroke="#191970" points="897.2694,-23.502 906.1939,-17.792 895.6565,-16.6903 897.2694,-23.502"/>
</g>
<!-- Node14 -->
<g id="node15" class="node">
<title>Node14</title>
<polygon fill="none" stroke="#bfbfbf" points="396.5,-.5 396.5,-19.5 460.5,-19.5 460.5,-.5 396.5,-.5"/>
<text text-anchor="middle" x="428.5" y="-7.5" font-family="FreeSans.ttf" font-size="10.00" fill="#000000">algorithm</text>
</g>
<!-- Node12&#45;&gt;Node14 -->
<g id="edge16" class="edge">
<title>Node12&#45;&gt;Node14</title>
<path fill="none" stroke="#191970" d="M616.7352,-56.4369C576.0251,-46.3939 512.2232,-30.6542 470.3799,-20.3316"/>
<polygon fill="#191970" stroke="#191970" points="471.05,-16.892 460.5027,-17.8949 469.3733,-23.6883 471.05,-16.892"/>
</g>
<!-- Node15 -->
<g id="node16" class="node">
<title>Node15</title>
<polygon fill="none" stroke="#bfbfbf" points="478.5,-.5 478.5,-19.5 520.5,-19.5 520.5,-.5 478.5,-.5"/>
<text text-anchor="middle" x="499.5" y="-7.5" font-family="FreeSans.ttf" font-size="10.00" fill="#000000">array</text>
</g>
<!-- Node12&#45;&gt;Node15 -->
<g id="edge17" class="edge">
<title>Node12&#45;&gt;Node15</title>
<path fill="none" stroke="#191970" d="M628.6826,-56.3733C601.4083,-46.5825 559.1853,-31.4255 530.4944,-21.1262"/>
<polygon fill="#191970" stroke="#191970" points="531.5516,-17.7871 520.9571,-17.7026 529.1865,-24.3755 531.5516,-17.7871"/>
</g>
<!-- Node16 -->
<g id="node17" class="node">
<title>Node16</title>
<polygon fill="none" stroke="#bfbfbf" points="539,-.5 539,-19.5 592,-19.5 592,-.5 539,-.5"/>
<text text-anchor="middle" x="565.5" y="-7.5" font-family="FreeSans.ttf" font-size="10.00" fill="#000000">iterator</text>
</g>
<!-- Node12&#45;&gt;Node16 -->
<g id="edge19" class="edge">
<title>Node12&#45;&gt;Node16</title>
<path fill="none" stroke="#191970" d="M639.8232,-56.2455C626.0144,-47.6534 605.6807,-35.0014 589.7708,-25.1018"/>
<polygon fill="#191970" stroke="#191970" points="591.3368,-21.954 580.9972,-19.6427 587.6387,-27.8974 591.3368,-21.954"/>
</g>
<!-- Node17 -->
<g id="node18" class="node">
<title>Node17</title>
<polygon fill="none" stroke="#bfbfbf" points="610.5,-.5 610.5,-19.5 654.5,-19.5 654.5,-.5 610.5,-.5"/>
<text text-anchor="middle" x="632.5" y="-7.5" font-family="FreeSans.ttf" font-size="10.00" fill="#000000">limits</text>
</g>
<!-- Node12&#45;&gt;Node17 -->
<g id="edge20" class="edge">
<title>Node12&#45;&gt;Node17</title>
<path fill="none" stroke="#191970" d="M651.4937,-56.2455C648.4265,-48.7776 644.0997,-38.2427 640.3503,-29.1137"/>
<polygon fill="#191970" stroke="#191970" points="643.4972,-27.5631 636.4604,-19.6427 637.0221,-30.2226 643.4972,-27.5631"/>
</g>
<!-- Node18 -->
<g id="node19" class="node">
<title>Node18</title>
<polygon fill="none" stroke="#bfbfbf" points="673,-.5 673,-19.5 738,-19.5 738,-.5 673,-.5"/>
<text text-anchor="middle" x="705.5" y="-7.5" font-family="FreeSans.ttf" font-size="10.00" fill="#000000">stdexcept</text>
</g>
<!-- Node12&#45;&gt;Node18 -->
<g id="edge21" class="edge">
<title>Node12&#45;&gt;Node18</title>
<path fill="none" stroke="#191970" d="M664.2093,-56.2455C671.3073,-48.2958 681.5084,-36.8706 689.995,-27.3656"/>
<polygon fill="#191970" stroke="#191970" points="692.8411,-29.4331 696.8905,-19.6427 687.6195,-24.771 692.8411,-29.4331"/>
</g>
<!-- Node19 -->
<g id="node20" class="node">
<title>Node19</title>
<polygon fill="none" stroke="#bfbfbf" points="819,-.5 819,-19.5 888,-19.5 888,-.5 819,-.5"/>
<text text-anchor="middle" x="853.5" y="-7.5" font-family="FreeSans.ttf" font-size="10.00" fill="#000000">type_traits</text>
</g>
<!-- Node12&#45;&gt;Node19 -->
<g id="edge22" class="edge">
<title>Node12&#45;&gt;Node19</title>
<path fill="none" stroke="#191970" d="M689.5374,-56.3733C722.8894,-46.9404 773.8527,-32.5265 810.1002,-22.2747"/>
<polygon fill="#191970" stroke="#191970" points="811.2368,-25.5906 819.9067,-19.5011 809.3316,-18.8548 811.2368,-25.5906"/>
</g>
<!-- Node20 -->
<g id="node21" class="node">
<title>Node20</title>
<polygon fill="none" stroke="#bfbfbf" points="756,-.5 756,-19.5 801,-19.5 801,-.5 756,-.5"/>
<text text-anchor="middle" x="778.5" y="-7.5" font-family="FreeSans.ttf" font-size="10.00" fill="#000000">utility</text>
</g>
<!-- Node12&#45;&gt;Node20 -->
<g id="edge23" class="edge">
<title>Node12&#45;&gt;Node20</title>
<path fill="none" stroke="#191970" d="M676.6445,-56.3733C696.3892,-47.3838 726.0698,-33.8706 748.3055,-23.7471"/>
<polygon fill="#191970" stroke="#191970" points="749.9806,-26.8302 757.6315,-19.5011 747.08,-20.4594 749.9806,-26.8302"/>
</g>
<!-- Node21&#45;&gt;Node3 -->
<g id="edge26" class="edge">
<title>Node21&#45;&gt;Node3</title>
<path fill="none" stroke="#191970" d="M498.5816,-168.3733C516.2402,-159.4644 542.7053,-146.1127 562.7098,-136.0203"/>
<polygon fill="#191970" stroke="#191970" points="564.3158,-139.1303 571.6674,-131.5011 561.1628,-132.8806 564.3158,-139.1303"/>
</g>
<!-- Node22 -->
<g id="node23" class="node">
<title>Node22</title>
<g id="a_node23"><a xlink:href="MatrixView_8h.html" target="_top" xlink:title="iDynTree/Core/MatrixView.h">
<polygon fill="none" stroke="#000000" points="707,-112.5 707,-131.5 858,-131.5 858,-112.5 707,-112.5"/>
<text text-anchor="middle" x="782.5" y="-119.5" font-family="FreeSans.ttf" font-size="10.00" fill="#000000">iDynTree/Core/MatrixView.h</text>
</a>
</g>
</g>
<!-- Node21&#45;&gt;Node22 -->
<g id="edge27" class="edge">
<title>Node21&#45;&gt;Node22</title>
<path fill="none" stroke="#191970" d="M531.2433,-168.4369C583.753,-158.7321 665.0444,-143.708 720.8577,-133.3926"/>
<polygon fill="#191970" stroke="#191970" points="721.7728,-136.7829 730.9701,-131.5237 720.5006,-129.8994 721.7728,-136.7829"/>
</g>
<!-- Node22&#45;&gt;Node5 -->
<g id="edge31" class="edge">
<title>Node22&#45;&gt;Node5</title>
<path fill="none" stroke="#191970" d="M723.9259,-112.4369C663.9909,-102.6516 570.9317,-87.4582 507.7129,-77.1368"/>
<polygon fill="#191970" stroke="#191970" points="508.2658,-73.6808 497.8325,-75.5237 507.1378,-80.5893 508.2658,-73.6808"/>
</g>
<!-- Node22&#45;&gt;Node12 -->
<g id="edge30" class="edge">
<title>Node22&#45;&gt;Node12</title>
<path fill="none" stroke="#191970" d="M760.6679,-112.3733C740.1897,-103.3435 709.3601,-89.7494 686.3681,-79.6111"/>
<polygon fill="#191970" stroke="#191970" points="687.6093,-76.3333 677.0472,-75.5011 684.785,-82.7383 687.6093,-76.3333"/>
</g>
<!-- Node22&#45;&gt;Node13 -->
<g id="edge28" class="edge">
<title>Node22&#45;&gt;Node13</title>
<path fill="none" stroke="#191970" d="M795.2889,-112.4509C821.1927,-93.1094 880.0716,-49.1465 911.62,-25.5904"/>
<polygon fill="#191970" stroke="#191970" points="913.8247,-28.3123 919.7435,-19.5249 909.6366,-22.7033 913.8247,-28.3123"/>
</g>
<!-- Node22&#45;&gt;Node19 -->
<g id="edge29" class="edge">
<title>Node22&#45;&gt;Node19</title>
<path fill="none" stroke="#191970" d="M787.621,-112.4234C794.6619,-99.4214 807.8965,-75.5618 820.5,-56 826.5985,-46.5346 833.8475,-36.3287 839.9959,-27.9407"/>
<polygon fill="#191970" stroke="#191970" points="842.9819,-29.79 846.1291,-19.6734 837.36,-25.6193 842.9819,-29.79"/>
</g>
<!-- Node23&#45;&gt;Node3 -->
<g id="edge61" class="edge">
<title>Node23&#45;&gt;Node3</title>
<path fill="none" stroke="#191970" d="M681.2623,-392.4078C664.3481,-385.0449 643.5966,-373.1929 631.5,-356 584.2245,-288.8071 585.6968,-184.5019 588.6775,-141.5237"/>
<polygon fill="#191970" stroke="#191970" points="592.1673,-141.7894 589.479,-131.5413 585.1898,-141.2291 592.1673,-141.7894"/>
</g>
<!-- Node24 -->
<g id="node25" class="node">
<title>Node24</title>
<g id="a_node25"><a xlink:href="Position_8h.html" target="_top" xlink:title="iDynTree/Core/Position.h">
<polygon fill="none" stroke="#000000" points="640.5,-336.5 640.5,-355.5 776.5,-355.5 776.5,-336.5 640.5,-336.5"/>
<text text-anchor="middle" x="708.5" y="-343.5" font-family="FreeSans.ttf" font-size="10.00" fill="#000000">iDynTree/Core/Position.h</text>
</a>
</g>
</g>
<!-- Node23&#45;&gt;Node24 -->
<g id="edge33" class="edge">
<title>Node23&#45;&gt;Node24</title>
<path fill="none" stroke="#191970" d="M708.5,-392.2455C708.5,-384.9382 708.5,-374.6944 708.5,-365.7046"/>
<polygon fill="#191970" stroke="#191970" points="712.0001,-365.6426 708.5,-355.6427 705.0001,-365.6427 712.0001,-365.6426"/>
</g>
<!-- Node29 -->
<g id="node30" class="node">
<title>Node29</title>
<g id="a_node30"><a xlink:href="Rotation_8h.html" target="_top" xlink:title="iDynTree/Core/Rotation.h">
<polygon fill="none" stroke="#000000" points="765,-280.5 765,-299.5 902,-299.5 902,-280.5 765,-280.5"/>
<text text-anchor="middle" x="833.5" y="-287.5" font-family="FreeSans.ttf" font-size="10.00" fill="#000000">iDynTree/Core/Rotation.h</text>
</a>
</g>
</g>
<!-- Node23&#45;&gt;Node29 -->
<g id="edge59" class="edge">
<title>Node23&#45;&gt;Node29</title>
<path fill="none" stroke="#191970" d="M729.2993,-392.4804C745.7195,-384.3149 768.5999,-371.4392 785.5,-356 800.6283,-342.1795 813.983,-322.9101 822.7397,-308.7593"/>
<polygon fill="#191970" stroke="#191970" points="825.9032,-310.2888 828.0328,-299.9102 819.8958,-306.6955 825.9032,-310.2888"/>
</g>
<!-- Node32 -->
<g id="node33" class="node">
<title>Node32</title>
<g id="a_node33"><a xlink:href="MatrixFixSize_8h.html" target="_top" xlink:title="iDynTree/Core/MatrixFixSize.h">
<polygon fill="none" stroke="#000000" points="986,-168.5 986,-187.5 1147,-187.5 1147,-168.5 986,-168.5"/>
<text text-anchor="middle" x="1066.5" y="-175.5" font-family="FreeSans.ttf" font-size="10.00" fill="#000000">iDynTree/Core/MatrixFixSize.h</text>
</a>
</g>
</g>
<!-- Node23&#45;&gt;Node32 -->
<g id="edge60" class="edge">
<title>Node23&#45;&gt;Node32</title>
<path fill="none" stroke="#191970" d="M770.8848,-392.4498C896.8229,-371.7615 1174.1774,-318.5879 1229.5,-244 1254.1815,-210.7235 1206.8939,-194.1804 1157.0019,-185.9808"/>
<polygon fill="#191970" stroke="#191970" points="1157.4242,-182.5047 1147.0094,-184.4496 1156.3639,-189.424 1157.4242,-182.5047"/>
</g>
<!-- Node24&#45;&gt;Node3 -->
<g id="edge58" class="edge">
<title>Node24&#45;&gt;Node3</title>
<path fill="none" stroke="#191970" d="M697.1839,-336.2509C678.4036,-319.4163 640.9444,-282.9392 621.5,-244 606.0368,-213.0336 613.323,-201.4691 604.5,-168 602.1919,-159.2444 599.3263,-149.6501 596.7901,-141.4998"/>
<polygon fill="#191970" stroke="#191970" points="600.0768,-140.2853 593.7202,-131.8092 593.4036,-142.3993 600.0768,-140.2853"/>
</g>
<!-- Node25 -->
<g id="node26" class="node">
<title>Node25</title>
<g id="a_node26"><a xlink:href="PositionRaw_8h.html" target="_top" xlink:title="iDynTree/Core/PositionRaw.h">
<polygon fill="none" stroke="#000000" points="630.5,-224.5 630.5,-243.5 786.5,-243.5 786.5,-224.5 630.5,-224.5"/>
<text text-anchor="middle" x="708.5" y="-231.5" font-family="FreeSans.ttf" font-size="10.00" fill="#000000">iDynTree/Core/PositionRaw.h</text>
</a>
</g>
</g>
<!-- Node24&#45;&gt;Node25 -->
<g id="edge34" class="edge">
<title>Node24&#45;&gt;Node25</title>
<path fill="none" stroke="#191970" d="M708.5,-336.4509C708.5,-318.184 708.5,-277.9553 708.5,-253.6976"/>
<polygon fill="#191970" stroke="#191970" points="712.0001,-253.5249 708.5,-243.5249 705.0001,-253.5249 712.0001,-253.5249"/>
</g>
<!-- Node24&#45;&gt;Node29 -->
<g id="edge43" class="edge">
<title>Node24&#45;&gt;Node29</title>
<path fill="none" stroke="#191970" d="M729.9883,-336.3733C750.144,-327.3435 780.488,-313.7494 803.118,-303.6111"/>
<polygon fill="#191970" stroke="#191970" points="804.5971,-306.7838 812.2921,-299.5011 801.7351,-300.3955 804.5971,-306.7838"/>
</g>
<!-- Node25&#45;&gt;Node3 -->
<g id="edge42" class="edge">
<title>Node25&#45;&gt;Node3</title>
<path fill="none" stroke="#191970" d="M699.2784,-224.4172C686.6789,-211.4083 663.2737,-187.5408 642.5,-168 631.8001,-157.9351 619.5024,-147.0278 609.5535,-138.3613"/>
<polygon fill="#191970" stroke="#191970" points="611.6856,-135.5777 601.8353,-131.6761 607.1026,-140.8689 611.6856,-135.5777"/>
</g>
<!-- Node26 -->
<g id="node27" class="node">
<title>Node26</title>
<g id="a_node27"><a xlink:href="VectorFixSize_8h.html" target="_top" xlink:title="iDynTree/Core/VectorFixSize.h">
<polygon fill="none" stroke="#000000" points="806,-168.5 806,-187.5 967,-187.5 967,-168.5 806,-168.5"/>
<text text-anchor="middle" x="886.5" y="-175.5" font-family="FreeSans.ttf" font-size="10.00" fill="#000000">iDynTree/Core/VectorFixSize.h</text>
</a>
</g>
</g>
<!-- Node25&#45;&gt;Node26 -->
<g id="edge35" class="edge">
<title>Node25&#45;&gt;Node26</title>
<path fill="none" stroke="#191970" d="M739.0993,-224.3733C768.8261,-215.021 814.1159,-200.7725 846.6456,-190.5385"/>
<polygon fill="#191970" stroke="#191970" points="847.8113,-193.8409 856.3,-187.5011 845.7105,-187.1636 847.8113,-193.8409"/>
</g>
<!-- Node26&#45;&gt;Node3 -->
<g id="edge38" class="edge">
<title>Node26&#45;&gt;Node3</title>
<path fill="none" stroke="#191970" d="M822.8486,-168.4851C770.0004,-160.1677 692.998,-147.0819 626.5,-132 625.2546,-131.7175 623.9878,-131.4194 622.7103,-131.1096"/>
<polygon fill="#191970" stroke="#191970" points="623.4415,-127.6837 612.8842,-128.5753 621.6932,-134.4619 623.4415,-127.6837"/>
</g>
<!-- Node26&#45;&gt;Node5 -->
<g id="edge36" class="edge">
<title>Node26&#45;&gt;Node5</title>
<path fill="none" stroke="#191970" d="M831.9208,-168.4485C788.7722,-160.3498 727.2335,-147.5787 674.5,-132 650.3547,-124.8669 645.521,-119.5412 621.5,-112 578.7244,-98.5709 529.3661,-86.2913 492.8519,-77.8037"/>
<polygon fill="#191970" stroke="#191970" points="493.4403,-74.3477 482.9097,-75.5126 491.8683,-81.1689 493.4403,-74.3477"/>
</g>
<!-- Node26&#45;&gt;Node12 -->
<g id="edge37" class="edge">
<title>Node26&#45;&gt;Node12</title>
<path fill="none" stroke="#191970" d="M827.5399,-168.4524C780.4777,-159.9507 719.1281,-146.6229 698.5,-132 682.0019,-120.3048 670.216,-100.0989 663.2033,-85.1168"/>
<polygon fill="#191970" stroke="#191970" points="666.3215,-83.5113 659.1117,-75.7479 659.9065,-86.3129 666.3215,-83.5113"/>
</g>
<!-- Node26&#45;&gt;Node13 -->
<g id="edge40" class="edge">
<title>Node26&#45;&gt;Node13</title>
<path fill="none" stroke="#191970" d="M889.105,-168.4862C896.408,-141.8144 917.1908,-65.9117 927.1073,-29.695"/>
<polygon fill="#191970" stroke="#191970" points="930.5438,-30.3972 929.809,-19.8279 923.7923,-28.5485 930.5438,-30.3972"/>
</g>
<!-- Node27 -->
<g id="node28" class="node">
<title>Node27</title>
<polygon fill="none" stroke="#bfbfbf" points="914.5,-112.5 914.5,-131.5 970.5,-131.5 970.5,-112.5 914.5,-112.5"/>
<text text-anchor="middle" x="942.5" y="-119.5" font-family="FreeSans.ttf" font-size="10.00" fill="#000000">sstream</text>
</g>
<!-- Node26&#45;&gt;Node27 -->
<g id="edge39" class="edge">
<title>Node26&#45;&gt;Node27</title>
<path fill="none" stroke="#191970" d="M896.2545,-168.2455C904.3648,-160.1352 916.0925,-148.4075 925.7081,-138.7919"/>
<polygon fill="#191970" stroke="#191970" points="928.2611,-141.1887 932.8573,-131.6427 923.3113,-136.2389 928.2611,-141.1887"/>
</g>
<!-- Node28 -->
<g id="node29" class="node">
<title>Node28</title>
<polygon fill="none" stroke="#bfbfbf" points="988.5,-112.5 988.5,-131.5 1038.5,-131.5 1038.5,-112.5 988.5,-112.5"/>
<text text-anchor="middle" x="1013.5" y="-119.5" font-family="FreeSans.ttf" font-size="10.00" fill="#000000">cstring</text>
</g>
<!-- Node26&#45;&gt;Node28 -->
<g id="edge41" class="edge">
<title>Node26&#45;&gt;Node28</title>
<path fill="none" stroke="#191970" d="M908.3321,-168.3733C928.8103,-159.3435 959.6399,-145.7494 982.6319,-135.6111"/>
<polygon fill="#191970" stroke="#191970" points="984.215,-138.7383 991.9528,-131.5011 981.3907,-132.3333 984.215,-138.7383"/>
</g>
<!-- Node29&#45;&gt;Node3 -->
<g id="edge44" class="edge">
<title>Node29&#45;&gt;Node3</title>
<path fill="none" stroke="#191970" d="M830.0237,-280.3156C824.5773,-266.3135 812.8316,-240.3101 795.5,-224 768.5635,-198.6511 672.4617,-156.2565 621.9849,-134.9932"/>
<polygon fill="#191970" stroke="#191970" points="623.1077,-131.6689 612.5319,-131.0336 620.4032,-138.1254 623.1077,-131.6689"/>
</g>
<!-- Node29&#45;&gt;Node26 -->
<g id="edge57" class="edge">
<title>Node29&#45;&gt;Node26</title>
<path fill="none" stroke="#191970" d="M838.0188,-280.4509C846.7803,-261.936 866.2185,-220.8591 877.6421,-196.7187"/>
<polygon fill="#191970" stroke="#191970" points="880.8789,-198.061 881.9927,-187.5249 874.5516,-195.0668 880.8789,-198.061"/>
</g>
<!-- Node30 -->
<g id="node31" class="node">
<title>Node30</title>
<g id="a_node31"><a xlink:href="GeomVector3_8h.html" target="_top" xlink:title="iDynTree/Core/GeomVector3.h">
<polygon fill="none" stroke="#000000" points="881,-224.5 881,-243.5 1044,-243.5 1044,-224.5 881,-224.5"/>
<text text-anchor="middle" x="962.5" y="-231.5" font-family="FreeSans.ttf" font-size="10.00" fill="#000000">iDynTree/Core/GeomVector3.h</text>
</a>
</g>
</g>
<!-- Node29&#45;&gt;Node30 -->
<g id="edge45" class="edge">
<title>Node29&#45;&gt;Node30</title>
<path fill="none" stroke="#191970" d="M855.6759,-280.3733C876.4766,-271.3435 907.7917,-257.7494 931.1458,-247.6111"/>
<polygon fill="#191970" stroke="#191970" points="932.8343,-250.6938 940.6135,-243.5011 930.0468,-244.2727 932.8343,-250.6938"/>
</g>
<!-- Node31 -->
<g id="node32" class="node">
<title>Node31</title>
<g id="a_node32"><a xlink:href="RotationRaw_8h.html" target="_top" xlink:title="iDynTree/Core/RotationRaw.h">
<polygon fill="none" stroke="#000000" points="1062.5,-224.5 1062.5,-243.5 1220.5,-243.5 1220.5,-224.5 1062.5,-224.5"/>
<text text-anchor="middle" x="1141.5" y="-231.5" font-family="FreeSans.ttf" font-size="10.00" fill="#000000">iDynTree/Core/RotationRaw.h</text>
</a>
</g>
</g>
<!-- Node29&#45;&gt;Node31 -->
<g id="edge47" class="edge">
<title>Node29&#45;&gt;Node31</title>
<path fill="none" stroke="#191970" d="M886.0971,-280.4369C939.5841,-270.712 1022.4492,-255.6456 1079.1933,-245.3285"/>
<polygon fill="#191970" stroke="#191970" points="1079.9072,-248.7562 1089.1198,-243.5237 1078.655,-241.8691 1079.9072,-248.7562"/>
</g>
<!-- Node30&#45;&gt;Node26 -->
<g id="edge46" class="edge">
<title>Node30&#45;&gt;Node26</title>
<path fill="none" stroke="#191970" d="M949.2618,-224.2455C937.819,-215.814 921.0704,-203.4729 907.7525,-193.6598"/>
<polygon fill="#191970" stroke="#191970" points="909.7133,-190.757 899.5865,-187.6427 905.5609,-196.3924 909.7133,-190.757"/>
</g>
<!-- Node31&#45;&gt;Node3 -->
<g id="edge56" class="edge">
<title>Node31&#45;&gt;Node3</title>
<path fill="none" stroke="#191970" d="M1062.329,-224.6541C968.7026,-213.4072 822.3655,-195.1443 797.5,-188 776.8543,-182.0682 773.7319,-175.2183 753.5,-168 697.7151,-148.0973 679.0687,-150.5388 622.3772,-133.4098"/>
<polygon fill="#191970" stroke="#191970" points="623.1304,-129.979 612.5424,-130.3599 621.057,-136.6649 623.1304,-129.979"/>
</g>
<!-- Node31&#45;&gt;Node32 -->
<g id="edge48" class="edge">
<title>Node31&#45;&gt;Node32</title>
<path fill="none" stroke="#191970" d="M1128.436,-224.2455C1117.1438,-215.814 1100.6155,-203.4729 1087.4729,-193.6598"/>
<polygon fill="#191970" stroke="#191970" points="1089.5211,-190.8211 1079.4143,-187.6427 1085.3331,-196.4301 1089.5211,-190.8211"/>
</g>
<!-- Node32&#45;&gt;Node3 -->
<g id="edge53" class="edge">
<title>Node32&#45;&gt;Node3</title>
<path fill="none" stroke="#191970" d="M985.7531,-168.5004C879.3198,-155.9788 696.9423,-134.5226 623.0324,-125.8273"/>
<polygon fill="#191970" stroke="#191970" points="623.2771,-122.3321 612.9366,-124.6396 622.4592,-129.2841 623.2771,-122.3321"/>
</g>
<!-- Node32&#45;&gt;Node5 -->
<g id="edge49" class="edge">
<title>Node32&#45;&gt;Node5</title>
<path fill="none" stroke="#191970" d="M1066.8746,-168.0771C1066.8348,-153.2766 1064.3331,-125.6962 1047.5,-112 1042.3245,-107.789 667.8881,-81.659 509.2679,-70.7629"/>
<polygon fill="#191970" stroke="#191970" points="509.3544,-67.2607 499.1382,-70.0676 508.875,-74.2443 509.3544,-67.2607"/>
</g>
<!-- Node32&#45;&gt;Node13 -->
<g id="edge51" class="edge">
<title>Node32&#45;&gt;Node13</title>
<path fill="none" stroke="#191970" d="M1069.2535,-168.4382C1072.5557,-155.036 1076.59,-130.2608 1067.5,-112 1046.2926,-69.3965 997.8609,-39.8656 965.1557,-23.9238"/>
<polygon fill="#191970" stroke="#191970" points="966.5099,-20.693 955.9715,-19.6006 963.5286,-27.0264 966.5099,-20.693"/>
</g>
<!-- Node32&#45;&gt;Node22 -->
<g id="edge50" class="edge">
<title>Node32&#45;&gt;Node22</title>
<path fill="none" stroke="#191970" d="M1018.0014,-168.4369C968.9885,-158.7724 893.2223,-143.8326 840.9293,-133.5213"/>
<polygon fill="#191970" stroke="#191970" points="841.2868,-130.0244 830.7986,-131.5237 839.9326,-136.8922 841.2868,-130.0244"/>
</g>
<!-- Node32&#45;&gt;Node27 -->
<g id="edge55" class="edge">
<title>Node32&#45;&gt;Node27</title>
<path fill="none" stroke="#191970" d="M1045.1836,-168.3733C1025.2784,-159.3838 995.3564,-145.8706 972.94,-135.7471"/>
<polygon fill="#191970" stroke="#191970" points="974.0925,-132.4272 963.5382,-131.5011 971.2113,-138.8068 974.0925,-132.4272"/>
</g>
<!-- Node32&#45;&gt;Node28 -->
<g id="edge52" class="edge">
<title>Node32&#45;&gt;Node28</title>
<path fill="none" stroke="#191970" d="M1057.2681,-168.2455C1049.6683,-160.2155 1038.7123,-148.6394 1029.6632,-139.0781"/>
<polygon fill="#191970" stroke="#191970" points="1032.042,-136.4998 1022.6261,-131.6427 1026.9579,-141.3115 1032.042,-136.4998"/>
</g>
<!-- Node33 -->
<g id="node34" class="node">
<title>Node33</title>
<polygon fill="none" stroke="#bfbfbf" points="1132.5,-112.5 1132.5,-131.5 1192.5,-131.5 1192.5,-112.5 1132.5,-112.5"/>
<text text-anchor="middle" x="1162.5" y="-119.5" font-family="FreeSans.ttf" font-size="10.00" fill="#000000">iostream</text>
</g>
<!-- Node32&#45;&gt;Node33 -->
<g id="edge54" class="edge">
<title>Node32&#45;&gt;Node33</title>
<path fill="none" stroke="#191970" d="M1083.2219,-168.2455C1098.0889,-159.5731 1120.0466,-146.7645 1137.0858,-136.825"/>
<polygon fill="#191970" stroke="#191970" points="1139.0955,-139.7047 1145.9697,-131.6427 1135.5683,-133.6582 1139.0955,-139.7047"/>
</g>
</g>
</svg>
