<?xml version="1.0" encoding="UTF-8" standalone="no"?>
<!DOCTYPE svg PUBLIC "-//W3C//DTD SVG 1.1//EN"
 "http://www.w3.org/Graphics/SVG/1.1/DTD/svg11.dtd">
<!-- Generated by graphviz version 2.40.1 (20161225.0304)
 -->
<!-- Title: LinearSystem.cpp Pages: 1 -->
<svg width="1436pt" height="599pt"
 viewBox="0.00 0.00 1436.00 599.00" xmlns="http://www.w3.org/2000/svg" xmlns:xlink="http://www.w3.org/1999/xlink">
<g id="graph0" class="graph" transform="scale(1 1) rotate(0) translate(4 595)">
<title>LinearSystem.cpp</title>
<!-- Node0 -->
<g id="node1" class="node">
<title>Node0</title>
<polygon fill="#bfbfbf" stroke="#000000" points="574,-571.5 574,-590.5 678,-590.5 678,-571.5 574,-571.5"/>
<text text-anchor="middle" x="626" y="-578.5" font-family="FreeSans.ttf" font-size="10.00" fill="#000000">LinearSystem.cpp</text>
</g>
<!-- Node1 -->
<g id="node2" class="node">
<title>Node1</title>
<g id="a_node2"><a xlink:href="LinearSystem_8h.html" target="_top" xlink:title="iDynTree/LinearSystem.h">
<polygon fill="none" stroke="#000000" points="202,-515.5 202,-534.5 340,-534.5 340,-515.5 202,-515.5"/>
<text text-anchor="middle" x="271" y="-522.5" font-family="FreeSans.ttf" font-size="10.00" fill="#000000">iDynTree/LinearSystem.h</text>
</a>
</g>
</g>
<!-- Node0&#45;&gt;Node1 -->
<g id="edge1" class="edge">
<title>Node0&#45;&gt;Node1</title>
<path fill="none" stroke="#191970" d="M573.9998,-572.7971C512.6333,-563.1168 410.2922,-546.9729 341.7459,-536.1599"/>
<polygon fill="#191970" stroke="#191970" points="341.89,-532.6395 331.4668,-534.5384 340.7993,-539.554 341.89,-532.6395"/>
</g>
<!-- Node3 -->
<g id="node4" class="node">
<title>Node3</title>
<g id="a_node4"><a xlink:href="VectorDynSize_8h.html" target="_top" xlink:title="iDynTree/Core/VectorDynSize.h">
<polygon fill="none" stroke="#000000" points="227.5,-392.5 227.5,-411.5 394.5,-411.5 394.5,-392.5 227.5,-392.5"/>
<text text-anchor="middle" x="311" y="-399.5" font-family="FreeSans.ttf" font-size="10.00" fill="#000000">iDynTree/Core/VectorDynSize.h</text>
</a>
</g>
</g>
<!-- Node0&#45;&gt;Node3 -->
<g id="edge64" class="edge">
<title>Node0&#45;&gt;Node3</title>
<path fill="none" stroke="#191970" d="M590.4923,-571.4194C540.7573,-556.8809 448.9427,-525.8808 382,-479 369.3584,-470.1469 342.2642,-439.1789 325.4424,-419.3168"/>
<polygon fill="#191970" stroke="#191970" points="328.0503,-416.9799 318.934,-411.5812 322.6939,-421.4865 328.0503,-416.9799"/>
</g>
<!-- Node5 -->
<g id="node6" class="node">
<title>Node5</title>
<polygon fill="none" stroke="#bfbfbf" points="868,-.5 868,-19.5 920,-19.5 920,-.5 868,-.5"/>
<text text-anchor="middle" x="894" y="-7.5" font-family="FreeSans.ttf" font-size="10.00" fill="#000000">cassert</text>
</g>
<!-- Node0&#45;&gt;Node5 -->
<g id="edge89" class="edge">
<title>Node0&#45;&gt;Node5</title>
<path fill="none" stroke="#191970" d="M678.0781,-578.9759C806.9463,-573.6717 1138.094,-558.159 1246,-535 1330.9721,-516.7632 1428,-550.4071 1428,-463.5 1428,-463.5 1428,-463.5 1428,-122 1428,-71.025 1050.4613,-26.5889 930.2784,-13.7348"/>
<polygon fill="#191970" stroke="#191970" points="930.4306,-10.2314 920.1174,-12.6579 929.6928,-17.1924 930.4306,-10.2314"/>
</g>
<!-- Node8 -->
<g id="node9" class="node">
<title>Node8</title>
<polygon fill="none" stroke="#bfbfbf" points="178.5,-.5 178.5,-19.5 231.5,-19.5 231.5,-.5 178.5,-.5"/>
<text text-anchor="middle" x="205" y="-7.5" font-family="FreeSans.ttf" font-size="10.00" fill="#000000">cstddef</text>
</g>
<!-- Node0&#45;&gt;Node8 -->
<g id="edge90" class="edge">
<title>Node0&#45;&gt;Node8</title>
<path fill="none" stroke="#191970" d="M573.9816,-579.6411C491.9715,-576.5713 328.0569,-566.6674 193,-535 103.9405,-514.1178 0,-554.9749 0,-463.5 0,-463.5 0,-463.5 0,-122 0,-46.2482 109.1336,-21.4137 168.1467,-13.5221"/>
<polygon fill="#191970" stroke="#191970" points="168.7061,-16.9796 178.1998,-12.2765 167.8453,-10.0327 168.7061,-16.9796"/>
</g>
<!-- Node16 -->
<g id="node17" class="node">
<title>Node16</title>
<g id="a_node17"><a xlink:href="Utils_8h.html" target="_top" xlink:title="iDynTree/Core/Utils.h">
<polygon fill="none" stroke="#000000" points="729.5,-56.5 729.5,-75.5 848.5,-75.5 848.5,-56.5 729.5,-56.5"/>
<text text-anchor="middle" x="789" y="-63.5" font-family="FreeSans.ttf" font-size="10.00" fill="#000000">iDynTree/Core/Utils.h</text>
</a>
</g>
</g>
<!-- Node0&#45;&gt;Node16 -->
<g id="edge88" class="edge">
<title>Node0&#45;&gt;Node16</title>
<path fill="none" stroke="#191970" d="M678.2121,-578.4899C850.4953,-569.5212 1390,-535.6736 1390,-463.5 1390,-463.5 1390,-463.5 1390,-178 1390,-129.4659 1348.265,-129.5111 1303,-112 1223.8381,-81.3756 980.2811,-70.8847 859.0482,-67.5004"/>
<polygon fill="#191970" stroke="#191970" points="858.8577,-63.9941 848.7667,-67.2223 858.6684,-70.9915 858.8577,-63.9941"/>
</g>
<!-- Node21 -->
<g id="node22" class="node">
<title>Node21</title>
<g id="a_node22"><a xlink:href="MatrixDynSize_8h.html" target="_top" xlink:title="iDynTree/Core/MatrixDynSize.h">
<polygon fill="none" stroke="#000000" points="432.5,-392.5 432.5,-411.5 599.5,-411.5 599.5,-392.5 432.5,-392.5"/>
<text text-anchor="middle" x="516" y="-399.5" font-family="FreeSans.ttf" font-size="10.00" fill="#000000">iDynTree/Core/MatrixDynSize.h</text>
</a>
</g>
</g>
<!-- Node0&#45;&gt;Node21 -->
<g id="edge65" class="edge">
<title>Node0&#45;&gt;Node21</title>
<path fill="none" stroke="#191970" d="M627.4432,-571.2055C630.3758,-547.5602 634.6012,-486.4722 607,-448 596.1309,-432.85 578.8012,-422.3797 562.167,-415.3028"/>
<polygon fill="#191970" stroke="#191970" points="563.0952,-411.9075 552.5075,-411.5185 560.5417,-418.4251 563.0952,-411.9075"/>
</g>
<!-- Node35 -->
<g id="node36" class="node">
<title>Node35</title>
<g id="a_node36"><a xlink:href="EigenHelpers_8h.html" target="_top" xlink:title="iDynTree/Core/EigenHelpers.h">
<polygon fill="none" stroke="#000000" points="736.5,-515.5 736.5,-534.5 897.5,-534.5 897.5,-515.5 736.5,-515.5"/>
<text text-anchor="middle" x="817" y="-522.5" font-family="FreeSans.ttf" font-size="10.00" fill="#000000">iDynTree/Core/EigenHelpers.h</text>
</a>
</g>
</g>
<!-- Node0&#45;&gt;Node35 -->
<g id="edge66" class="edge">
<title>Node0&#45;&gt;Node35</title>
<path fill="none" stroke="#191970" d="M658.8341,-571.3733C690.8695,-561.9807 739.7487,-547.6496 774.6855,-537.4064"/>
<polygon fill="#191970" stroke="#191970" points="775.9831,-540.6733 784.5944,-534.5011 774.0136,-533.9561 775.9831,-540.6733"/>
</g>
<!-- Node2 -->
<g id="node3" class="node">
<title>Node2</title>
<g id="a_node3"><a xlink:href="DynamicalSystem_8h.html" target="_top" xlink:title="iDynTree/DynamicalSystem.h">
<polygon fill="none" stroke="#000000" points="102.5,-454 102.5,-473 263.5,-473 263.5,-454 102.5,-454"/>
<text text-anchor="middle" x="183" y="-461" font-family="FreeSans.ttf" font-size="10.00" fill="#000000">iDynTree/DynamicalSystem.h</text>
</a>
</g>
</g>
<!-- Node1&#45;&gt;Node2 -->
<g id="edge2" class="edge">
<title>Node1&#45;&gt;Node2</title>
<path fill="none" stroke="#191970" d="M257.25,-515.3906C243.3009,-505.6421 221.4902,-490.3994 205.1103,-478.9521"/>
<polygon fill="#191970" stroke="#191970" points="206.8551,-475.9015 196.6534,-473.0419 202.8452,-481.6392 206.8551,-475.9015"/>
</g>
<!-- Node15 -->
<g id="node16" class="node">
<title>Node15</title>
<g id="a_node16"><a xlink:href="SparsityStructure_8h.html" target="_top" xlink:title="iDynTree/SparsityStructure.h">
<polygon fill="none" stroke="#000000" points="28.5,-168.5 28.5,-187.5 183.5,-187.5 183.5,-168.5 28.5,-168.5"/>
<text text-anchor="middle" x="106" y="-175.5" font-family="FreeSans.ttf" font-size="10.00" fill="#000000">iDynTree/SparsityStructure.h</text>
</a>
</g>
</g>
<!-- Node1&#45;&gt;Node15 -->
<g id="edge62" class="edge">
<title>Node1&#45;&gt;Node15</title>
<path fill="none" stroke="#191970" d="M206.489,-515.4262C162.3337,-507.5901 108.9923,-495.1687 93,-479 68.2126,-453.939 74,-437.2487 74,-402 74,-402 74,-402 74,-290 74,-256.132 87.6955,-218.643 97.1672,-196.7657"/>
<polygon fill="#191970" stroke="#191970" points="100.3695,-198.1784 101.2783,-187.6226 93.9851,-195.3077 100.3695,-198.1784"/>
</g>
<!-- Node20 -->
<g id="node21" class="node">
<title>Node20</title>
<g id="a_node21"><a xlink:href="TimeVaryingObject_8h.html" target="_top" xlink:title="iDynTree/TimeVaryingObject.h">
<polygon fill="none" stroke="#000000" points="434,-454 434,-473 598,-473 598,-454 434,-454"/>
<text text-anchor="middle" x="516" y="-461" font-family="FreeSans.ttf" font-size="10.00" fill="#000000">iDynTree/TimeVaryingObject.h</text>
</a>
</g>
</g>
<!-- Node1&#45;&gt;Node20 -->
<g id="edge23" class="edge">
<title>Node1&#45;&gt;Node20</title>
<path fill="none" stroke="#191970" d="M309.0124,-515.4581C351.8371,-504.7082 421.5208,-487.2162 468.0499,-475.5365"/>
<polygon fill="#191970" stroke="#191970" points="469.0515,-478.8937 477.8984,-473.0643 467.3471,-472.1043 469.0515,-478.8937"/>
</g>
<!-- Node34 -->
<g id="node35" class="node">
<title>Node34</title>
<polygon fill="none" stroke="#bfbfbf" points="282,-454 282,-473 340,-473 340,-454 282,-454"/>
<text text-anchor="middle" x="311" y="-461" font-family="FreeSans.ttf" font-size="10.00" fill="#000000">memory</text>
</g>
<!-- Node1&#45;&gt;Node34 -->
<g id="edge63" class="edge">
<title>Node1&#45;&gt;Node34</title>
<path fill="none" stroke="#191970" d="M277.25,-515.3906C283.0865,-506.417 291.9509,-492.7879 299.1306,-481.7491"/>
<polygon fill="#191970" stroke="#191970" points="302.1436,-483.5361 304.6619,-473.2449 296.2755,-479.7194 302.1436,-483.5361"/>
</g>
<!-- Node2&#45;&gt;Node3 -->
<g id="edge3" class="edge">
<title>Node2&#45;&gt;Node3</title>
<path fill="none" stroke="#191970" d="M203,-453.8906C224.2289,-443.6908 257.9762,-427.4763 282.096,-415.8875"/>
<polygon fill="#191970" stroke="#191970" points="283.6426,-419.0275 291.1404,-411.5419 280.6111,-412.7179 283.6426,-419.0275"/>
</g>
<!-- Node2&#45;&gt;Node15 -->
<g id="edge15" class="edge">
<title>Node2&#45;&gt;Node15</title>
<path fill="none" stroke="#191970" d="M177.269,-453.8226C166.2086,-434.2007 143,-388.0204 143,-346 143,-346 143,-346 143,-290 143,-255.7041 127.1646,-218.3471 116.213,-196.6122"/>
<polygon fill="#191970" stroke="#191970" points="119.1994,-194.7704 111.4595,-187.5354 112.9982,-198.0179 119.1994,-194.7704"/>
</g>
<!-- Node4 -->
<g id="node5" class="node">
<title>Node4</title>
<g id="a_node5"><a xlink:href="Span_8h.html" target="_top" xlink:title="iDynTree/Core/Span.h">
<polygon fill="none" stroke="#000000" points="450.5,-56.5 450.5,-75.5 571.5,-75.5 571.5,-56.5 450.5,-56.5"/>
<text text-anchor="middle" x="511" y="-63.5" font-family="FreeSans.ttf" font-size="10.00" fill="#000000">iDynTree/Core/Span.h</text>
</a>
</g>
</g>
<!-- Node3&#45;&gt;Node4 -->
<g id="edge4" class="edge">
<title>Node3&#45;&gt;Node4</title>
<path fill="none" stroke="#191970" d="M292.8419,-392.2847C264.2614,-375.5219 212,-338.2704 212,-290 212,-290 212,-290 212,-234 212,-129.654 352.1161,-89.4418 440.5139,-74.4552"/>
<polygon fill="#191970" stroke="#191970" points="441.1842,-77.8923 450.4929,-72.8327 440.0608,-70.983 441.1842,-77.8923"/>
</g>
<!-- Node14 -->
<g id="node15" class="node">
<title>Node14</title>
<polygon fill="none" stroke="#bfbfbf" points="403,-112.5 403,-131.5 447,-131.5 447,-112.5 403,-112.5"/>
<text text-anchor="middle" x="425" y="-119.5" font-family="FreeSans.ttf" font-size="10.00" fill="#000000">string</text>
</g>
<!-- Node3&#45;&gt;Node14 -->
<g id="edge14" class="edge">
<title>Node3&#45;&gt;Node14</title>
<path fill="none" stroke="#191970" d="M301.4688,-392.4709C284.3125,-374.2557 250,-332.5114 250,-290 250,-290 250,-290 250,-234 250,-166.9846 342.168,-138.251 392.7271,-127.5304"/>
<polygon fill="#191970" stroke="#191970" points="393.7166,-130.9019 402.8361,-125.5089 392.3439,-124.0378 393.7166,-130.9019"/>
</g>
<!-- Node4&#45;&gt;Node5 -->
<g id="edge5" class="edge">
<title>Node4&#45;&gt;Node5</title>
<path fill="none" stroke="#191970" d="M571.8065,-60.6935C639.5096,-54.1746 752.2703,-41.5012 857.863,-19.9938"/>
<polygon fill="#191970" stroke="#191970" points="858.6457,-23.4061 867.7298,-17.9536 857.2282,-16.5511 858.6457,-23.4061"/>
</g>
<!-- Node6 -->
<g id="node7" class="node">
<title>Node6</title>
<polygon fill="none" stroke="#bfbfbf" points="688,-.5 688,-19.5 752,-19.5 752,-.5 688,-.5"/>
<text text-anchor="middle" x="720" y="-7.5" font-family="FreeSans.ttf" font-size="10.00" fill="#000000">algorithm</text>
</g>
<!-- Node4&#45;&gt;Node6 -->
<g id="edge6" class="edge">
<title>Node4&#45;&gt;Node6</title>
<path fill="none" stroke="#191970" d="M546.9284,-56.3733C583.3551,-46.613 639.6843,-31.52 678.1152,-21.2227"/>
<polygon fill="#191970" stroke="#191970" points="679.2088,-24.5532 687.9622,-18.5843 677.3971,-17.7917 679.2088,-24.5532"/>
</g>
<!-- Node7 -->
<g id="node8" class="node">
<title>Node7</title>
<polygon fill="none" stroke="#bfbfbf" points="347,-.5 347,-19.5 389,-19.5 389,-.5 347,-.5"/>
<text text-anchor="middle" x="368" y="-7.5" font-family="FreeSans.ttf" font-size="10.00" fill="#000000">array</text>
</g>
<!-- Node4&#45;&gt;Node7 -->
<g id="edge7" class="edge">
<title>Node4&#45;&gt;Node7</title>
<path fill="none" stroke="#191970" d="M486.4174,-56.3733C462.0591,-46.8343 424.6939,-32.2018 398.4656,-21.9306"/>
<polygon fill="#191970" stroke="#191970" points="399.5967,-18.6148 389.0089,-18.2273 397.0441,-25.1328 399.5967,-18.6148"/>
</g>
<!-- Node4&#45;&gt;Node8 -->
<g id="edge8" class="edge">
<title>Node4&#45;&gt;Node8</title>
<path fill="none" stroke="#191970" d="M452.5528,-56.4589C399.5659,-47.6287 319.3795,-33.8157 250,-20 247.2038,-19.4432 244.3144,-18.8477 241.4119,-18.2351"/>
<polygon fill="#191970" stroke="#191970" points="242.1229,-14.808 231.6093,-16.1175 240.6448,-21.6502 242.1229,-14.808"/>
</g>
<!-- Node9 -->
<g id="node10" class="node">
<title>Node9</title>
<polygon fill="none" stroke="#bfbfbf" points="407.5,-.5 407.5,-19.5 460.5,-19.5 460.5,-.5 407.5,-.5"/>
<text text-anchor="middle" x="434" y="-7.5" font-family="FreeSans.ttf" font-size="10.00" fill="#000000">iterator</text>
</g>
<!-- Node4&#45;&gt;Node9 -->
<g id="edge9" class="edge">
<title>Node4&#45;&gt;Node9</title>
<path fill="none" stroke="#191970" d="M497.5876,-56.2455C485.9943,-47.814 469.0252,-35.4729 455.5322,-25.6598"/>
<polygon fill="#191970" stroke="#191970" points="457.4047,-22.6938 447.2587,-19.6427 453.2874,-28.355 457.4047,-22.6938"/>
</g>
<!-- Node10 -->
<g id="node11" class="node">
<title>Node10</title>
<polygon fill="none" stroke="#bfbfbf" points="479,-.5 479,-19.5 523,-19.5 523,-.5 479,-.5"/>
<text text-anchor="middle" x="501" y="-7.5" font-family="FreeSans.ttf" font-size="10.00" fill="#000000">limits</text>
</g>
<!-- Node4&#45;&gt;Node10 -->
<g id="edge10" class="edge">
<title>Node4&#45;&gt;Node10</title>
<path fill="none" stroke="#191970" d="M509.2581,-56.2455C507.9533,-48.9382 506.124,-38.6944 504.5187,-29.7046"/>
<polygon fill="#191970" stroke="#191970" points="507.9254,-28.8717 502.7219,-19.6427 501.0344,-30.1022 507.9254,-28.8717"/>
</g>
<!-- Node11 -->
<g id="node12" class="node">
<title>Node11</title>
<polygon fill="none" stroke="#bfbfbf" points="541.5,-.5 541.5,-19.5 606.5,-19.5 606.5,-.5 541.5,-.5"/>
<text text-anchor="middle" x="574" y="-7.5" font-family="FreeSans.ttf" font-size="10.00" fill="#000000">stdexcept</text>
</g>
<!-- Node4&#45;&gt;Node11 -->
<g id="edge11" class="edge">
<title>Node4&#45;&gt;Node11</title>
<path fill="none" stroke="#191970" d="M521.9738,-56.2455C531.1882,-48.0549 544.5532,-36.1749 555.4297,-26.5069"/>
<polygon fill="#191970" stroke="#191970" points="558.0032,-28.9023 563.152,-19.6427 553.3526,-23.6704 558.0032,-28.9023"/>
</g>
<!-- Node12 -->
<g id="node13" class="node">
<title>Node12</title>
<polygon fill="none" stroke="#bfbfbf" points="259.5,-.5 259.5,-19.5 328.5,-19.5 328.5,-.5 259.5,-.5"/>
<text text-anchor="middle" x="294" y="-7.5" font-family="FreeSans.ttf" font-size="10.00" fill="#000000">type_traits</text>
</g>
<!-- Node4&#45;&gt;Node12 -->
<g id="edge12" class="edge">
<title>Node4&#45;&gt;Node12</title>
<path fill="none" stroke="#191970" d="M473.6964,-56.3733C436.1613,-46.6868 378.2731,-31.7479 338.3961,-21.4571"/>
<polygon fill="#191970" stroke="#191970" points="339.2267,-18.0568 328.6693,-18.9469 337.4775,-24.8347 339.2267,-18.0568"/>
</g>
<!-- Node13 -->
<g id="node14" class="node">
<title>Node13</title>
<polygon fill="none" stroke="#bfbfbf" points="624.5,-.5 624.5,-19.5 669.5,-19.5 669.5,-.5 624.5,-.5"/>
<text text-anchor="middle" x="647" y="-7.5" font-family="FreeSans.ttf" font-size="10.00" fill="#000000">utility</text>
</g>
<!-- Node4&#45;&gt;Node13 -->
<g id="edge13" class="edge">
<title>Node4&#45;&gt;Node13</title>
<path fill="none" stroke="#191970" d="M534.3792,-56.3733C556.6386,-47.2077 590.3188,-33.3393 615.0498,-23.156"/>
<polygon fill="#191970" stroke="#191970" points="616.4636,-26.359 624.3778,-19.315 613.7983,-19.8862 616.4636,-26.359"/>
</g>
<!-- Node15&#45;&gt;Node8 -->
<g id="edge20" class="edge">
<title>Node15&#45;&gt;Node8</title>
<path fill="none" stroke="#191970" d="M89.9482,-168.3643C71.6283,-156.054 45.585,-133.7304 57,-112 80.4123,-67.4305 133.0947,-38.5267 168.8566,-23.2446"/>
<polygon fill="#191970" stroke="#191970" points="170.5409,-26.3363 178.4563,-19.2938 167.8767,-19.8631 170.5409,-26.3363"/>
</g>
<!-- Node15&#45;&gt;Node14 -->
<g id="edge22" class="edge">
<title>Node15&#45;&gt;Node14</title>
<path fill="none" stroke="#191970" d="M160.4756,-168.4369C227.2067,-156.7223 338.0891,-137.2571 392.6507,-127.6789"/>
<polygon fill="#191970" stroke="#191970" points="393.5381,-131.0767 402.7823,-125.9003 392.3277,-124.1821 393.5381,-131.0767"/>
</g>
<!-- Node15&#45;&gt;Node16 -->
<g id="edge16" class="edge">
<title>Node15&#45;&gt;Node16</title>
<path fill="none" stroke="#191970" d="M142.1138,-168.3837C196.4186,-154.2292 302.5019,-127.7633 394,-112 507.1357,-92.509 639.9526,-78.9307 719.1497,-71.8074"/>
<polygon fill="#191970" stroke="#191970" points="719.836,-75.2603 729.4861,-70.8871 719.2151,-68.2879 719.836,-75.2603"/>
</g>
<!-- Node18 -->
<g id="node19" class="node">
<title>Node18</title>
<polygon fill="none" stroke="#bfbfbf" points="66.5,-112.5 66.5,-131.5 113.5,-131.5 113.5,-112.5 66.5,-112.5"/>
<text text-anchor="middle" x="90" y="-119.5" font-family="FreeSans.ttf" font-size="10.00" fill="#000000">vector</text>
</g>
<!-- Node15&#45;&gt;Node18 -->
<g id="edge19" class="edge">
<title>Node15&#45;&gt;Node18</title>
<path fill="none" stroke="#191970" d="M103.213,-168.2455C101.1023,-160.8579 98.134,-150.4689 95.5453,-141.4087"/>
<polygon fill="#191970" stroke="#191970" points="98.8677,-140.2964 92.755,-131.6427 92.137,-142.2195 98.8677,-140.2964"/>
</g>
<!-- Node19 -->
<g id="node20" class="node">
<title>Node19</title>
<polygon fill="none" stroke="#bfbfbf" points="132,-112.5 132,-131.5 218,-131.5 218,-112.5 132,-112.5"/>
<text text-anchor="middle" x="175" y="-119.5" font-family="FreeSans.ttf" font-size="10.00" fill="#000000">unordered_set</text>
</g>
<!-- Node15&#45;&gt;Node19 -->
<g id="edge21" class="edge">
<title>Node15&#45;&gt;Node19</title>
<path fill="none" stroke="#191970" d="M118.0189,-168.2455C128.2098,-159.9746 143.0362,-147.9416 155.0107,-138.2232"/>
<polygon fill="#191970" stroke="#191970" points="157.5598,-140.662 163.1188,-131.6427 153.1486,-135.2268 157.5598,-140.662"/>
</g>
<!-- Node16&#45;&gt;Node8 -->
<g id="edge17" class="edge">
<title>Node16&#45;&gt;Node8</title>
<path fill="none" stroke="#191970" d="M729.2727,-63.5111C629.5197,-58.7718 422.9054,-46.4687 250,-20 247.1817,-19.5686 244.2764,-19.0636 241.3628,-18.5138"/>
<polygon fill="#191970" stroke="#191970" points="242.0367,-15.0793 231.5395,-16.5142 240.6404,-21.9386 242.0367,-15.0793"/>
</g>
<!-- Node17 -->
<g id="node18" class="node">
<title>Node17</title>
<polygon fill="none" stroke="#bfbfbf" points="770,-.5 770,-19.5 850,-19.5 850,-.5 770,-.5"/>
<text text-anchor="middle" x="810" y="-7.5" font-family="FreeSans.ttf" font-size="10.00" fill="#000000">CoreExport.h</text>
</g>
<!-- Node16&#45;&gt;Node17 -->
<g id="edge18" class="edge">
<title>Node16&#45;&gt;Node17</title>
<path fill="none" stroke="#191970" d="M792.6579,-56.2455C795.4584,-48.7776 799.409,-38.2427 802.8324,-29.1137"/>
<polygon fill="#191970" stroke="#191970" points="806.1499,-30.2349 806.384,-19.6427 799.5955,-27.777 806.1499,-30.2349"/>
</g>
<!-- Node20&#45;&gt;Node3 -->
<g id="edge24" class="edge">
<title>Node20&#45;&gt;Node3</title>
<path fill="none" stroke="#191970" d="M483.9688,-453.8906C448.6154,-443.2846 391.5843,-426.1753 352.7522,-414.5257"/>
<polygon fill="#191970" stroke="#191970" points="353.3903,-411.0631 342.8063,-411.5419 351.3788,-417.7678 353.3903,-411.0631"/>
</g>
<!-- Node20&#45;&gt;Node21 -->
<g id="edge25" class="edge">
<title>Node20&#45;&gt;Node21</title>
<path fill="none" stroke="#191970" d="M516,-453.8906C516,-445.3657 516,-432.6392 516,-421.9235"/>
<polygon fill="#191970" stroke="#191970" points="519.5001,-421.7448 516,-411.7449 512.5001,-421.7449 519.5001,-421.7448"/>
</g>
<!-- Node23 -->
<g id="node24" class="node">
<title>Node23</title>
<g id="a_node24"><a xlink:href="Transform_8h.html" target="_top" xlink:title="iDynTree/Core/Transform.h">
<polygon fill="none" stroke="#000000" points="640,-392.5 640,-411.5 786,-411.5 786,-392.5 640,-392.5"/>
<text text-anchor="middle" x="713" y="-399.5" font-family="FreeSans.ttf" font-size="10.00" fill="#000000">iDynTree/Core/Transform.h</text>
</a>
</g>
</g>
<!-- Node20&#45;&gt;Node23 -->
<g id="edge32" class="edge">
<title>Node20&#45;&gt;Node23</title>
<path fill="none" stroke="#191970" d="M546.7813,-453.8906C580.7549,-443.2846 635.5604,-426.1753 672.8772,-414.5257"/>
<polygon fill="#191970" stroke="#191970" points="673.9323,-417.8629 682.4349,-411.5419 671.8462,-411.181 673.9323,-417.8629"/>
</g>
<!-- Node21&#45;&gt;Node14 -->
<g id="edge26" class="edge">
<title>Node21&#45;&gt;Node14</title>
<path fill="none" stroke="#191970" d="M450.8334,-392.4745C418.7903,-385.7309 380.5878,-374.4803 350,-356 315.5528,-335.1879 288,-330.2462 288,-290 288,-290 288,-290 288,-234 288,-202.7875 290.3507,-190.484 312,-168 333.6929,-145.4707 367.9542,-133.6272 393.0688,-127.6378"/>
<polygon fill="#191970" stroke="#191970" points="393.8564,-131.0483 402.8717,-125.4829 392.3535,-124.2115 393.8564,-131.0483"/>
</g>
<!-- Node22 -->
<g id="node23" class="node">
<title>Node22</title>
<g id="a_node23"><a xlink:href="MatrixView_8h.html" target="_top" xlink:title="iDynTree/Core/MatrixView.h">
<polygon fill="none" stroke="#000000" points="607.5,-112.5 607.5,-131.5 758.5,-131.5 758.5,-112.5 607.5,-112.5"/>
<text text-anchor="middle" x="683" y="-119.5" font-family="FreeSans.ttf" font-size="10.00" fill="#000000">iDynTree/Core/MatrixView.h</text>
</a>
</g>
</g>
<!-- Node21&#45;&gt;Node22 -->
<g id="edge27" class="edge">
<title>Node21&#45;&gt;Node22</title>
<path fill="none" stroke="#191970" d="M503.3908,-392.3146C469.1459,-364.8304 379.6767,-284.4322 421,-224 445.7831,-187.7566 565.1222,-152.0803 633.8809,-134.0728"/>
<polygon fill="#191970" stroke="#191970" points="634.8376,-137.4406 643.6414,-131.5462 633.0833,-130.6639 634.8376,-137.4406"/>
</g>
<!-- Node22&#45;&gt;Node4 -->
<g id="edge30" class="edge">
<title>Node22&#45;&gt;Node4</title>
<path fill="none" stroke="#191970" d="M653.4321,-112.3733C624.8312,-103.0613 581.3212,-88.8953 549.9181,-78.671"/>
<polygon fill="#191970" stroke="#191970" points="550.7743,-75.269 540.182,-75.5011 548.6072,-81.9251 550.7743,-75.269"/>
</g>
<!-- Node22&#45;&gt;Node5 -->
<g id="edge28" class="edge">
<title>Node22&#45;&gt;Node5</title>
<path fill="none" stroke="#191970" d="M685.8944,-112.303C690.7337,-97.7976 701.8693,-70.5973 721,-56 768.9313,-19.427 795.2143,-34.9743 857.724,-20.1369"/>
<polygon fill="#191970" stroke="#191970" points="858.8235,-23.4685 867.645,-17.6005 857.0897,-16.6866 858.8235,-23.4685"/>
</g>
<!-- Node22&#45;&gt;Node12 -->
<g id="edge29" class="edge">
<title>Node22&#45;&gt;Node12</title>
<path fill="none" stroke="#191970" d="M609.4151,-112.4636C561.1233,-105.11 496.9683,-93.2473 442,-76 398.1071,-62.2278 349.9049,-39.1225 320.8058,-24.2255"/>
<polygon fill="#191970" stroke="#191970" points="322.1932,-21.0026 311.7035,-19.5135 318.9751,-27.2191 322.1932,-21.0026"/>
</g>
<!-- Node22&#45;&gt;Node16 -->
<g id="edge31" class="edge">
<title>Node22&#45;&gt;Node16</title>
<path fill="none" stroke="#191970" d="M701.4638,-112.2455C718.1074,-103.4527 742.7993,-90.4079 761.7192,-80.4125"/>
<polygon fill="#191970" stroke="#191970" points="763.5408,-83.4086 770.7478,-75.6427 760.2709,-77.2193 763.5408,-83.4086"/>
</g>
<!-- Node23&#45;&gt;Node14 -->
<g id="edge61" class="edge">
<title>Node23&#45;&gt;Node14</title>
<path fill="none" stroke="#191970" d="M655.26,-392.4477C596.9422,-380.1366 507.3593,-353.5882 449,-300 426.2793,-279.1368 418.3668,-273.0523 408,-244 399.6235,-220.5252 405.6669,-212.9157 405,-188 404.7622,-179.1143 403.19,-176.7026 405,-168 406.9414,-158.6655 410.8804,-148.9017 414.7531,-140.783"/>
<polygon fill="#191970" stroke="#191970" points="417.8903,-142.3353 419.3055,-131.8354 411.6514,-139.161 417.8903,-142.3353"/>
</g>
<!-- Node24 -->
<g id="node25" class="node">
<title>Node24</title>
<g id="a_node25"><a xlink:href="Position_8h.html" target="_top" xlink:title="iDynTree/Core/Position.h">
<polygon fill="none" stroke="#000000" points="550,-336.5 550,-355.5 686,-355.5 686,-336.5 550,-336.5"/>
<text text-anchor="middle" x="618" y="-343.5" font-family="FreeSans.ttf" font-size="10.00" fill="#000000">iDynTree/Core/Position.h</text>
</a>
</g>
</g>
<!-- Node23&#45;&gt;Node24 -->
<g id="edge33" class="edge">
<title>Node23&#45;&gt;Node24</title>
<path fill="none" stroke="#191970" d="M696.4523,-392.2455C681.7401,-383.5731 660.0112,-370.7645 643.1495,-360.825"/>
<polygon fill="#191970" stroke="#191970" points="644.7502,-357.7057 634.3581,-355.6427 641.1954,-363.736 644.7502,-357.7057"/>
</g>
<!-- Node29 -->
<g id="node30" class="node">
<title>Node29</title>
<g id="a_node30"><a xlink:href="Rotation_8h.html" target="_top" xlink:title="iDynTree/Core/Rotation.h">
<polygon fill="none" stroke="#000000" points="645.5,-280.5 645.5,-299.5 782.5,-299.5 782.5,-280.5 645.5,-280.5"/>
<text text-anchor="middle" x="714" y="-287.5" font-family="FreeSans.ttf" font-size="10.00" fill="#000000">iDynTree/Core/Rotation.h</text>
</a>
</g>
</g>
<!-- Node23&#45;&gt;Node29 -->
<g id="edge59" class="edge">
<title>Node23&#45;&gt;Node29</title>
<path fill="none" stroke="#191970" d="M713.0853,-392.4509C713.2484,-374.184 713.6075,-333.9553 713.8241,-309.6976"/>
<polygon fill="#191970" stroke="#191970" points="717.3254,-309.5558 713.915,-299.5249 710.3257,-309.4932 717.3254,-309.5558"/>
</g>
<!-- Node32 -->
<g id="node33" class="node">
<title>Node32</title>
<g id="a_node33"><a xlink:href="MatrixFixSize_8h.html" target="_top" xlink:title="iDynTree/Core/MatrixFixSize.h">
<polygon fill="none" stroke="#000000" points="913.5,-168.5 913.5,-187.5 1074.5,-187.5 1074.5,-168.5 913.5,-168.5"/>
<text text-anchor="middle" x="994" y="-175.5" font-family="FreeSans.ttf" font-size="10.00" fill="#000000">iDynTree/Core/MatrixFixSize.h</text>
</a>
</g>
</g>
<!-- Node23&#45;&gt;Node32 -->
<g id="edge60" class="edge">
<title>Node23&#45;&gt;Node32</title>
<path fill="none" stroke="#191970" d="M725.0742,-392.375C768.8489,-357.4799 919.5059,-237.3832 974.0697,-193.8875"/>
<polygon fill="#191970" stroke="#191970" points="976.3329,-196.5594 981.9708,-187.5891 971.9695,-191.0857 976.3329,-196.5594"/>
</g>
<!-- Node24&#45;&gt;Node14 -->
<g id="edge58" class="edge">
<title>Node24&#45;&gt;Node14</title>
<path fill="none" stroke="#191970" d="M570.9389,-336.4029C523.7021,-323.9915 453.4264,-297.3044 421,-244 401.7259,-212.3161 410.6723,-166.9394 418.2633,-141.3964"/>
<polygon fill="#191970" stroke="#191970" points="421.6321,-142.3525 421.3474,-131.7615 414.9653,-140.2184 421.6321,-142.3525"/>
</g>
<!-- Node25 -->
<g id="node26" class="node">
<title>Node25</title>
<g id="a_node26"><a xlink:href="PositionRaw_8h.html" target="_top" xlink:title="iDynTree/Core/PositionRaw.h">
<polygon fill="none" stroke="#000000" points="430,-224.5 430,-243.5 586,-243.5 586,-224.5 430,-224.5"/>
<text text-anchor="middle" x="508" y="-231.5" font-family="FreeSans.ttf" font-size="10.00" fill="#000000">iDynTree/Core/PositionRaw.h</text>
</a>
</g>
</g>
<!-- Node24&#45;&gt;Node25 -->
<g id="edge34" class="edge">
<title>Node24&#45;&gt;Node25</title>
<path fill="none" stroke="#191970" d="M608.6215,-336.4509C589.9501,-317.4401 547.9166,-274.6423 524.5158,-250.816"/>
<polygon fill="#191970" stroke="#191970" points="526.859,-248.2069 517.3548,-243.5249 521.8648,-253.1119 526.859,-248.2069"/>
</g>
<!-- Node24&#45;&gt;Node29 -->
<g id="edge43" class="edge">
<title>Node24&#45;&gt;Node29</title>
<path fill="none" stroke="#191970" d="M634.7219,-336.2455C649.5889,-327.5731 671.5466,-314.7645 688.5858,-304.825"/>
<polygon fill="#191970" stroke="#191970" points="690.5955,-307.7047 697.4697,-299.6427 687.0683,-301.6582 690.5955,-307.7047"/>
</g>
<!-- Node25&#45;&gt;Node14 -->
<g id="edge42" class="edge">
<title>Node25&#45;&gt;Node14</title>
<path fill="none" stroke="#191970" d="M500.9235,-224.4509C487.0188,-205.688 455.9433,-163.7548 438.1599,-139.758"/>
<polygon fill="#191970" stroke="#191970" points="440.8247,-137.4753 432.0586,-131.5249 435.2006,-141.6431 440.8247,-137.4753"/>
</g>
<!-- Node26 -->
<g id="node27" class="node">
<title>Node26</title>
<g id="a_node27"><a xlink:href="VectorFixSize_8h.html" target="_top" xlink:title="iDynTree/Core/VectorFixSize.h">
<polygon fill="none" stroke="#000000" points="734.5,-168.5 734.5,-187.5 895.5,-187.5 895.5,-168.5 734.5,-168.5"/>
<text text-anchor="middle" x="815" y="-175.5" font-family="FreeSans.ttf" font-size="10.00" fill="#000000">iDynTree/Core/VectorFixSize.h</text>
</a>
</g>
</g>
<!-- Node25&#45;&gt;Node26 -->
<g id="edge35" class="edge">
<title>Node25&#45;&gt;Node26</title>
<path fill="none" stroke="#191970" d="M560.4264,-224.4369C613.7397,-214.712 696.3357,-199.6456 752.8956,-189.3285"/>
<polygon fill="#191970" stroke="#191970" points="753.5803,-192.7614 762.7899,-187.5237 752.3241,-185.8751 753.5803,-192.7614"/>
</g>
<!-- Node26&#45;&gt;Node4 -->
<g id="edge37" class="edge">
<title>Node26&#45;&gt;Node4</title>
<path fill="none" stroke="#191970" d="M734.413,-169.2952C692.6347,-162.7121 641.5825,-151.3576 599,-132 571.6591,-119.5711 544.7001,-97.5052 527.972,-82.3332"/>
<polygon fill="#191970" stroke="#191970" points="530.3346,-79.7509 520.625,-75.5114 525.5716,-84.8806 530.3346,-79.7509"/>
</g>
<!-- Node26&#45;&gt;Node5 -->
<g id="edge40" class="edge">
<title>Node26&#45;&gt;Node5</title>
<path fill="none" stroke="#191970" d="M819.4737,-168.4862C832.0699,-141.6994 868.0163,-65.2565 884.9578,-29.2289"/>
<polygon fill="#191970" stroke="#191970" points="888.2904,-30.3667 889.3786,-19.8279 881.9558,-27.3879 888.2904,-30.3667"/>
</g>
<!-- Node26&#45;&gt;Node14 -->
<g id="edge38" class="edge">
<title>Node26&#45;&gt;Node14</title>
<path fill="none" stroke="#191970" d="M748.3997,-168.4369C663.8742,-156.2999 521.4071,-135.8431 457.607,-126.682"/>
<polygon fill="#191970" stroke="#191970" points="457.7465,-123.1662 447.3505,-125.2093 456.7515,-130.0952 457.7465,-123.1662"/>
</g>
<!-- Node26&#45;&gt;Node16 -->
<g id="edge36" class="edge">
<title>Node26&#45;&gt;Node16</title>
<path fill="none" stroke="#191970" d="M812.7833,-168.4509C808.5235,-150.1013 799.1193,-109.5908 793.4965,-85.3693"/>
<polygon fill="#191970" stroke="#191970" points="796.8818,-84.4744 791.2111,-75.5249 790.0632,-86.0573 796.8818,-84.4744"/>
</g>
<!-- Node27 -->
<g id="node28" class="node">
<title>Node27</title>
<polygon fill="none" stroke="#bfbfbf" points="1004,-112.5 1004,-131.5 1060,-131.5 1060,-112.5 1004,-112.5"/>
<text text-anchor="middle" x="1032" y="-119.5" font-family="FreeSans.ttf" font-size="10.00" fill="#000000">sstream</text>
</g>
<!-- Node26&#45;&gt;Node27 -->
<g id="edge39" class="edge">
<title>Node26&#45;&gt;Node27</title>
<path fill="none" stroke="#191970" d="M852.3036,-168.3733C891.8772,-158.1607 954.0747,-142.1098 993.9354,-131.8231"/>
<polygon fill="#191970" stroke="#191970" points="994.9993,-135.1633 1003.8075,-129.2755 993.2501,-128.3854 994.9993,-135.1633"/>
</g>
<!-- Node28 -->
<g id="node29" class="node">
<title>Node28</title>
<polygon fill="none" stroke="#bfbfbf" points="898,-112.5 898,-131.5 948,-131.5 948,-112.5 898,-112.5"/>
<text text-anchor="middle" x="923" y="-119.5" font-family="FreeSans.ttf" font-size="10.00" fill="#000000">cstring</text>
</g>
<!-- Node26&#45;&gt;Node28 -->
<g id="edge41" class="edge">
<title>Node26&#45;&gt;Node28</title>
<path fill="none" stroke="#191970" d="M833.8122,-168.2455C850.8473,-159.4125 876.1575,-146.2887 895.4681,-136.2758"/>
<polygon fill="#191970" stroke="#191970" points="897.137,-139.353 904.4034,-131.6427 893.9147,-133.1388 897.137,-139.353"/>
</g>
<!-- Node29&#45;&gt;Node14 -->
<g id="edge44" class="edge">
<title>Node29&#45;&gt;Node14</title>
<path fill="none" stroke="#191970" d="M697.6341,-280.4862C649.5625,-252.5415 508.5259,-170.5549 450.4434,-136.7906"/>
<polygon fill="#191970" stroke="#191970" points="451.949,-133.6175 441.5447,-131.6177 448.431,-139.6693 451.949,-133.6175"/>
</g>
<!-- Node29&#45;&gt;Node26 -->
<g id="edge57" class="edge">
<title>Node29&#45;&gt;Node26</title>
<path fill="none" stroke="#191970" d="M699.8679,-280.3869C682.4519,-267.3436 656.8042,-243.4372 671,-224 681.3195,-209.8702 719.9544,-197.9803 754.6088,-189.8302"/>
<polygon fill="#191970" stroke="#191970" points="755.7503,-193.16 764.7239,-187.5274 754.1964,-186.3346 755.7503,-193.16"/>
</g>
<!-- Node30 -->
<g id="node31" class="node">
<title>Node30</title>
<g id="a_node31"><a xlink:href="GeomVector3_8h.html" target="_top" xlink:title="iDynTree/Core/GeomVector3.h">
<polygon fill="none" stroke="#000000" points="970.5,-224.5 970.5,-243.5 1133.5,-243.5 1133.5,-224.5 970.5,-224.5"/>
<text text-anchor="middle" x="1052" y="-231.5" font-family="FreeSans.ttf" font-size="10.00" fill="#000000">iDynTree/Core/GeomVector3.h</text>
</a>
</g>
</g>
<!-- Node29&#45;&gt;Node30 -->
<g id="edge45" class="edge">
<title>Node29&#45;&gt;Node30</title>
<path fill="none" stroke="#191970" d="M771.7202,-280.4369C830.66,-270.6717 922.107,-255.5207 984.3966,-245.2006"/>
<polygon fill="#191970" stroke="#191970" points="985.2244,-248.6112 994.5178,-243.5237 984.0802,-241.7053 985.2244,-248.6112"/>
</g>
<!-- Node31 -->
<g id="node32" class="node">
<title>Node31</title>
<g id="a_node32"><a xlink:href="RotationRaw_8h.html" target="_top" xlink:title="iDynTree/Core/RotationRaw.h">
<polygon fill="none" stroke="#000000" points="680,-224.5 680,-243.5 838,-243.5 838,-224.5 680,-224.5"/>
<text text-anchor="middle" x="759" y="-231.5" font-family="FreeSans.ttf" font-size="10.00" fill="#000000">iDynTree/Core/RotationRaw.h</text>
</a>
</g>
</g>
<!-- Node29&#45;&gt;Node31 -->
<g id="edge47" class="edge">
<title>Node29&#45;&gt;Node31</title>
<path fill="none" stroke="#191970" d="M721.8384,-280.2455C728.162,-272.3761 737.2224,-261.101 744.8136,-251.6542"/>
<polygon fill="#191970" stroke="#191970" points="747.7158,-253.6302 751.2514,-243.6427 742.2592,-249.2454 747.7158,-253.6302"/>
</g>
<!-- Node30&#45;&gt;Node26 -->
<g id="edge46" class="edge">
<title>Node30&#45;&gt;Node26</title>
<path fill="none" stroke="#191970" d="M1011.5275,-224.4369C971.052,-214.8731 908.7133,-200.1432 865.1297,-189.845"/>
<polygon fill="#191970" stroke="#191970" points="865.8424,-186.4171 855.3055,-187.5237 864.2327,-193.2295 865.8424,-186.4171"/>
</g>
<!-- Node31&#45;&gt;Node14 -->
<g id="edge56" class="edge">
<title>Node31&#45;&gt;Node14</title>
<path fill="none" stroke="#191970" d="M731.7082,-224.4472C694.5275,-211.4723 625.844,-187.6432 567,-168 529.1804,-155.3752 485.5281,-141.3097 456.7153,-132.0956"/>
<polygon fill="#191970" stroke="#191970" points="457.7675,-128.7576 447.1767,-129.0492 455.6377,-135.4257 457.7675,-128.7576"/>
</g>
<!-- Node31&#45;&gt;Node32 -->
<g id="edge48" class="edge">
<title>Node31&#45;&gt;Node32</title>
<path fill="none" stroke="#191970" d="M799.1309,-224.4369C839.2649,-214.8731 901.0775,-200.1432 944.2933,-189.845"/>
<polygon fill="#191970" stroke="#191970" points="945.1183,-193.2465 954.0346,-187.5237 943.4956,-186.4372 945.1183,-193.2465"/>
</g>
<!-- Node32&#45;&gt;Node5 -->
<g id="edge51" class="edge">
<title>Node32&#45;&gt;Node5</title>
<path fill="none" stroke="#191970" d="M1021.098,-168.3164C1047.9802,-157.0589 1083.2582,-136.8139 1069,-112 1039.2184,-60.1704 971.8297,-32.1991 929.9069,-19.2537"/>
<polygon fill="#191970" stroke="#191970" points="930.6737,-15.8307 920.0917,-16.3531 928.6898,-22.5437 930.6737,-15.8307"/>
</g>
<!-- Node32&#45;&gt;Node14 -->
<g id="edge53" class="edge">
<title>Node32&#45;&gt;Node14</title>
<path fill="none" stroke="#191970" d="M913.4762,-168.8927C910.616,-168.5882 907.7837,-168.2898 905,-168 736.4073,-150.4513 534.2334,-131.8862 457.0637,-124.8902"/>
<polygon fill="#191970" stroke="#191970" points="457.2957,-121.397 447.0208,-123.9812 456.6646,-128.3685 457.2957,-121.397"/>
</g>
<!-- Node32&#45;&gt;Node16 -->
<g id="edge49" class="edge">
<title>Node32&#45;&gt;Node16</title>
<path fill="none" stroke="#191970" d="M991.2338,-168.3351C986.5898,-153.8715 975.8346,-126.7252 957,-112 940.2183,-98.8798 891.0269,-86.2688 850.1803,-77.5802"/>
<polygon fill="#191970" stroke="#191970" points="850.7736,-74.1287 840.2696,-75.5129 849.3442,-80.9812 850.7736,-74.1287"/>
</g>
<!-- Node32&#45;&gt;Node22 -->
<g id="edge50" class="edge">
<title>Node32&#45;&gt;Node22</title>
<path fill="none" stroke="#191970" d="M940.8906,-168.4369C886.8826,-158.712 803.2104,-143.6456 745.9136,-133.3285"/>
<polygon fill="#191970" stroke="#191970" points="746.3524,-129.8513 735.8904,-131.5237 745.1118,-136.7405 746.3524,-129.8513"/>
</g>
<!-- Node32&#45;&gt;Node27 -->
<g id="edge55" class="edge">
<title>Node32&#45;&gt;Node27</title>
<path fill="none" stroke="#191970" d="M1000.6191,-168.2455C1005.9046,-160.4564 1013.4541,-149.3308 1019.8238,-139.9439"/>
<polygon fill="#191970" stroke="#191970" points="1022.7379,-141.8827 1025.4568,-131.6427 1016.9455,-137.9522 1022.7379,-141.8827"/>
</g>
<!-- Node32&#45;&gt;Node28 -->
<g id="edge52" class="edge">
<title>Node32&#45;&gt;Node28</title>
<path fill="none" stroke="#191970" d="M981.6327,-168.2455C971.0446,-159.8943 955.5936,-147.7076 943.2107,-137.9408"/>
<polygon fill="#191970" stroke="#191970" points="945.2447,-135.0875 935.2255,-131.6427 940.9097,-140.5837 945.2447,-135.0875"/>
</g>
<!-- Node33 -->
<g id="node34" class="node">
<title>Node33</title>
<polygon fill="none" stroke="#bfbfbf" points="1161,-112.5 1161,-131.5 1221,-131.5 1221,-112.5 1161,-112.5"/>
<text text-anchor="middle" x="1191" y="-119.5" font-family="FreeSans.ttf" font-size="10.00" fill="#000000">iostream</text>
</g>
<!-- Node32&#45;&gt;Node33 -->
<g id="edge54" class="edge">
<title>Node32&#45;&gt;Node33</title>
<path fill="none" stroke="#191970" d="M1027.8655,-168.3733C1062.0546,-158.6545 1114.8442,-143.6484 1151.0567,-133.3544"/>
<polygon fill="#191970" stroke="#191970" points="1152.1398,-136.6853 1160.8017,-130.5843 1150.2258,-129.952 1152.1398,-136.6853"/>
</g>
<!-- Node35&#45;&gt;Node3 -->
<g id="edge68" class="edge">
<title>Node35&#45;&gt;Node3</title>
<path fill="none" stroke="#191970" d="M736.249,-520.3165C638.46,-513.8148 480.0059,-500.3806 425,-479 403.0408,-470.4645 401.4479,-461.2982 382,-448 366.4851,-437.3911 348.74,-425.8941 334.8712,-417.0479"/>
<polygon fill="#191970" stroke="#191970" points="336.6971,-414.0613 326.3795,-411.6534 332.9435,-419.9699 336.6971,-414.0613"/>
</g>
<!-- Node35&#45;&gt;Node16 -->
<g id="edge87" class="edge">
<title>Node35&#45;&gt;Node16</title>
<path fill="none" stroke="#191970" d="M897.5201,-522.0549C1006.3209,-517.1439 1193.934,-505.1189 1257,-479 1307.2135,-458.2039 1352,-456.3496 1352,-402 1352,-402 1352,-402 1352,-178 1352,-126.9527 1305.865,-129.7417 1258,-112 1186.677,-85.5634 971.529,-73.2624 859.1187,-68.5097"/>
<polygon fill="#191970" stroke="#191970" points="859.035,-65.0034 848.8987,-68.0865 858.7453,-71.9974 859.035,-65.0034"/>
</g>
<!-- Node35&#45;&gt;Node21 -->
<g id="edge70" class="edge">
<title>Node35&#45;&gt;Node21</title>
<path fill="none" stroke="#191970" d="M780.5989,-515.4177C753.2165,-507.5021 715.2049,-494.9839 684,-479 662.7089,-468.0942 661.1685,-459.1419 640,-448 613.927,-434.2766 582.8369,-422.7533 558.3103,-414.6726"/>
<polygon fill="#191970" stroke="#191970" points="559.1683,-411.2718 548.5767,-411.5318 557.0187,-417.9336 559.1683,-411.2718"/>
</g>
<!-- Node35&#45;&gt;Node23 -->
<g id="edge86" class="edge">
<title>Node35&#45;&gt;Node23</title>
<path fill="none" stroke="#191970" d="M813.9174,-515.0888C808.6912,-499.4764 796.8851,-468.7966 779,-448 768.3008,-435.5591 753.5215,-424.849 740.6604,-416.9012"/>
<polygon fill="#191970" stroke="#191970" points="742.1099,-413.6923 731.7203,-411.6169 738.548,-419.7183 742.1099,-413.6923"/>
</g>
<!-- Node35&#45;&gt;Node26 -->
<g id="edge69" class="edge">
<title>Node35&#45;&gt;Node26</title>
<path fill="none" stroke="#191970" d="M818.411,-515.3235C823.5575,-479.477 841.3149,-350.8039 847,-244 847.4725,-235.1237 849.66,-232.4816 847,-224 843.7504,-213.6383 837.2506,-203.5669 830.9529,-195.5026"/>
<polygon fill="#191970" stroke="#191970" points="833.4619,-193.047 824.3618,-187.6212 828.0921,-197.5376 833.4619,-193.047"/>
</g>
<!-- Node35&#45;&gt;Node32 -->
<g id="edge71" class="edge">
<title>Node35&#45;&gt;Node32</title>
<path fill="none" stroke="#191970" d="M897.6807,-521.6079C1038.4273,-513.4708 1314,-486.7213 1314,-402 1314,-402 1314,-402 1314,-290 1314,-238.6754 1165.4952,-205.302 1070.8181,-189.2406"/>
<polygon fill="#191970" stroke="#191970" points="1071.1322,-185.7448 1060.693,-187.5538 1069.9818,-192.6496 1071.1322,-185.7448"/>
</g>
<!-- Node36 -->
<g id="node37" class="node">
<title>Node36</title>
<polygon fill="none" stroke="#bfbfbf" points="692.5,-454 692.5,-473 769.5,-473 769.5,-454 692.5,-454"/>
<text text-anchor="middle" x="731" y="-461" font-family="FreeSans.ttf" font-size="10.00" fill="#000000">Eigen/Dense</text>
</g>
<!-- Node35&#45;&gt;Node36 -->
<g id="edge67" class="edge">
<title>Node35&#45;&gt;Node36</title>
<path fill="none" stroke="#191970" d="M803.5625,-515.3906C789.9305,-505.6421 768.6154,-490.3994 752.6078,-478.9521"/>
<polygon fill="#191970" stroke="#191970" points="754.5132,-476.0118 744.3431,-473.0419 750.4414,-481.7057 754.5132,-476.0118"/>
</g>
<!-- Node37 -->
<g id="node38" class="node">
<title>Node37</title>
<g id="a_node38"><a xlink:href="SpatialMotionVector_8h.html" target="_top" xlink:title="iDynTree/Core/SpatialMotion\lVector.h">
<polygon fill="none" stroke="#000000" points="864.5,-448.5 864.5,-478.5 1019.5,-478.5 1019.5,-448.5 864.5,-448.5"/>
<text text-anchor="start" x="872.5" y="-466.5" font-family="FreeSans.ttf" font-size="10.00" fill="#000000">iDynTree/Core/SpatialMotion</text>
<text text-anchor="middle" x="942" y="-455.5" font-family="FreeSans.ttf" font-size="10.00" fill="#000000">Vector.h</text>
</a>
</g>
</g>
<!-- Node35&#45;&gt;Node37 -->
<g id="edge72" class="edge">
<title>Node35&#45;&gt;Node37</title>
<path fill="none" stroke="#191970" d="M836.5313,-515.3906C854.075,-506.7591 880.3736,-493.8202 902.3204,-483.0224"/>
<polygon fill="#191970" stroke="#191970" points="903.9939,-486.0997 911.4216,-478.5446 900.9036,-479.8188 903.9939,-486.0997"/>
</g>
<!-- Node39 -->
<g id="node40" class="node">
<title>Node39</title>
<g id="a_node40"><a xlink:href="SpatialForceVector_8h.html" target="_top" xlink:title="iDynTree/Core/SpatialForce\lVector.h">
<polygon fill="none" stroke="#000000" points="1038,-448.5 1038,-478.5 1186,-478.5 1186,-448.5 1038,-448.5"/>
<text text-anchor="start" x="1046" y="-466.5" font-family="FreeSans.ttf" font-size="10.00" fill="#000000">iDynTree/Core/SpatialForce</text>
<text text-anchor="middle" x="1112" y="-455.5" font-family="FreeSans.ttf" font-size="10.00" fill="#000000">Vector.h</text>
</a>
</g>
</g>
<!-- Node35&#45;&gt;Node39 -->
<g id="edge82" class="edge">
<title>Node35&#45;&gt;Node39</title>
<path fill="none" stroke="#191970" d="M862.7701,-515.4581C907.3334,-506.1678 976.0516,-491.8418 1030.0533,-480.5838"/>
<polygon fill="#191970" stroke="#191970" points="1030.8809,-483.9866 1039.9561,-478.5193 1029.4523,-477.1339 1030.8809,-483.9866"/>
</g>
<!-- Node37&#45;&gt;Node26 -->
<g id="edge73" class="edge">
<title>Node37&#45;&gt;Node26</title>
<path fill="none" stroke="#191970" d="M941.5932,-448.287C939.8247,-408.0636 930.3808,-296.9944 880,-224 871.0268,-210.9991 857.1141,-200.4396 844.4591,-192.7322"/>
<polygon fill="#191970" stroke="#191970" points="845.9719,-189.5652 835.5553,-187.63 842.4915,-195.6387 845.9719,-189.5652"/>
</g>
<!-- Node37&#45;&gt;Node30 -->
<g id="edge74" class="edge">
<title>Node37&#45;&gt;Node30</title>
<path fill="none" stroke="#191970" d="M945.1957,-448.2881C952.5327,-415.5987 972.7211,-336.9998 1008,-280 1014.7685,-269.0642 1024.4759,-258.5651 1033.0515,-250.3654"/>
<polygon fill="#191970" stroke="#191970" points="1035.4922,-252.876 1040.4921,-243.5351 1030.7584,-247.7193 1035.4922,-252.876"/>
</g>
<!-- Node38 -->
<g id="node39" class="node">
<title>Node38</title>
<g id="a_node39"><a xlink:href="SpatialVector_8h.html" target="_top" xlink:title="iDynTree/Core/SpatialVector.h">
<polygon fill="none" stroke="#000000" points="1016.5,-392.5 1016.5,-411.5 1177.5,-411.5 1177.5,-392.5 1016.5,-392.5"/>
<text text-anchor="middle" x="1097" y="-399.5" font-family="FreeSans.ttf" font-size="10.00" fill="#000000">iDynTree/Core/SpatialVector.h</text>
</a>
</g>
</g>
<!-- Node37&#45;&gt;Node38 -->
<g id="edge75" class="edge">
<title>Node37&#45;&gt;Node38</title>
<path fill="none" stroke="#191970" d="M979.9173,-448.4554C1005.4391,-438.329 1038.7896,-425.0964 1063.3656,-415.3453"/>
<polygon fill="#191970" stroke="#191970" points="1064.9763,-418.4717 1072.9805,-411.5303 1062.3946,-411.9651 1064.9763,-418.4717"/>
</g>
<!-- Node38&#45;&gt;Node16 -->
<g id="edge78" class="edge">
<title>Node38&#45;&gt;Node16</title>
<path fill="none" stroke="#191970" d="M1149.2554,-392.415C1202.0897,-379.3527 1276,-350.3028 1276,-290 1276,-290 1276,-290 1276,-178 1276,-142.245 1260.7949,-130.1684 1230,-112 1198.8271,-93.6086 975.4366,-77.4126 859.0837,-70.1126"/>
<polygon fill="#191970" stroke="#191970" points="859.0474,-66.6037 848.8494,-69.4762 858.6129,-73.5902 859.0474,-66.6037"/>
</g>
<!-- Node38&#45;&gt;Node24 -->
<g id="edge76" class="edge">
<title>Node38&#45;&gt;Node24</title>
<path fill="none" stroke="#191970" d="M1016.2858,-392.5637C927.0724,-382.1337 784.3597,-365.4492 696.1765,-355.1396"/>
<polygon fill="#191970" stroke="#191970" points="696.5688,-351.6617 686.23,-353.9768 695.7559,-358.6144 696.5688,-351.6617"/>
</g>
<!-- Node38&#45;&gt;Node27 -->
<g id="edge81" class="edge">
<title>Node38&#45;&gt;Node27</title>
<path fill="none" stroke="#191970" d="M1107.4434,-392.3101C1125.8174,-374.151 1162,-332.9402 1162,-290 1162,-290 1162,-290 1162,-234 1162,-184.5666 1107.3799,-152.1607 1068.9485,-135.4777"/>
<polygon fill="#191970" stroke="#191970" points="1070.1469,-132.1855 1059.5697,-131.5743 1067.4571,-138.6481 1070.1469,-132.1855"/>
</g>
<!-- Node38&#45;&gt;Node29 -->
<g id="edge77" class="edge">
<title>Node38&#45;&gt;Node29</title>
<path fill="none" stroke="#191970" d="M1064.3456,-392.4509C995.0954,-372.2002 833.5468,-324.9589 756.432,-302.4083"/>
<polygon fill="#191970" stroke="#191970" points="757.1521,-298.9724 746.5717,-299.5249 755.1874,-305.691 757.1521,-298.9724"/>
</g>
<!-- Node38&#45;&gt;Node30 -->
<g id="edge79" class="edge">
<title>Node38&#45;&gt;Node30</title>
<path fill="none" stroke="#191970" d="M1094.4517,-392.4862C1087.3074,-365.8144 1066.9764,-289.9117 1057.2755,-253.695"/>
<polygon fill="#191970" stroke="#191970" points="1060.6007,-252.5818 1054.6325,-243.8279 1053.8391,-254.393 1060.6007,-252.5818"/>
</g>
<!-- Node38&#45;&gt;Node33 -->
<g id="edge80" class="edge">
<title>Node38&#45;&gt;Node33</title>
<path fill="none" stroke="#191970" d="M1128.9951,-392.3938C1170.596,-377.6921 1238,-345.3338 1238,-290 1238,-290 1238,-290 1238,-234 1238,-198.5481 1217.7296,-161.3564 1203.8129,-139.9999"/>
<polygon fill="#191970" stroke="#191970" points="1206.6421,-137.9356 1198.1383,-131.6161 1200.8451,-141.8593 1206.6421,-137.9356"/>
</g>
<!-- Node39&#45;&gt;Node26 -->
<g id="edge83" class="edge">
<title>Node39&#45;&gt;Node26</title>
<path fill="none" stroke="#191970" d="M1147.4931,-448.4687C1162.545,-440.0984 1178.5391,-428.0734 1187,-412 1216.8667,-355.2615 1341.4233,-400.4998 1143,-224 1134.1134,-216.0953 999.6784,-199.1908 905.7092,-188.2234"/>
<polygon fill="#191970" stroke="#191970" points="905.9438,-184.7272 895.6065,-187.0489 905.1354,-191.6804 905.9438,-184.7272"/>
</g>
<!-- Node39&#45;&gt;Node30 -->
<g id="edge84" class="edge">
<title>Node39&#45;&gt;Node30</title>
<path fill="none" stroke="#191970" d="M1054.7732,-448.3888C1036.6372,-440.6053 1018.5723,-429.0329 1008,-412 975.7755,-360.0836 1016.6139,-285.9467 1039.065,-252.1006"/>
<polygon fill="#191970" stroke="#191970" points="1042.0725,-253.9033 1044.8338,-243.6746 1036.2965,-249.9488 1042.0725,-253.9033"/>
</g>
<!-- Node39&#45;&gt;Node38 -->
<g id="edge85" class="edge">
<title>Node39&#45;&gt;Node38</title>
<path fill="none" stroke="#191970" d="M1108.2921,-448.2977C1106.3401,-440.2945 1103.923,-430.3843 1101.8266,-421.7889"/>
<polygon fill="#191970" stroke="#191970" points="1105.1716,-420.7328 1099.4017,-411.8469 1098.371,-422.3915 1105.1716,-420.7328"/>
</g>
</g>
</svg>
