<?xml version="1.0" encoding="UTF-8" standalone="no"?>
<!DOCTYPE svg PUBLIC "-//W3C//DTD SVG 1.1//EN"
 "http://www.w3.org/Graphics/SVG/1.1/DTD/svg11.dtd">
<!-- Generated by graphviz version 2.40.1 (20161225.0304)
 -->
<!-- Title: LinearConstraint.h Pages: 1 -->
<svg width="1369pt" height="532pt"
 viewBox="0.00 0.00 1368.50 532.00" xmlns="http://www.w3.org/2000/svg" xmlns:xlink="http://www.w3.org/1999/xlink">
<g id="graph0" class="graph" transform="scale(1 1) rotate(0) translate(4 528)">
<title>LinearConstraint.h</title>
<!-- Node0 -->
<g id="node1" class="node">
<title>Node0</title>
<polygon fill="#bfbfbf" stroke="#000000" points="457,-504.5 457,-523.5 563,-523.5 563,-504.5 457,-504.5"/>
<text text-anchor="middle" x="510" y="-511.5" font-family="FreeSans.ttf" font-size="10.00" fill="#000000">LinearConstraint.h</text>
</g>
<!-- Node1 -->
<g id="node2" class="node">
<title>Node1</title>
<g id="a_node2"><a xlink:href="Constraint_8h.html" target="_top" xlink:title="iDynTree/Constraint.h">
<polygon fill="none" stroke="#000000" points="196,-224.5 196,-243.5 318,-243.5 318,-224.5 196,-224.5"/>
<text text-anchor="middle" x="257" y="-231.5" font-family="FreeSans.ttf" font-size="10.00" fill="#000000">iDynTree/Constraint.h</text>
</a>
</g>
</g>
<!-- Node0&#45;&gt;Node1 -->
<g id="edge1" class="edge">
<title>Node0&#45;&gt;Node1</title>
<path fill="none" stroke="#191970" d="M456.9676,-504.3891C403.8721,-491.3494 330,-462.3611 330,-402 330,-402 330,-402 330,-346 330,-306.8965 298.3829,-270.7535 276.7639,-250.6105"/>
<polygon fill="#191970" stroke="#191970" points="278.8373,-247.7688 269.0545,-243.7011 274.1654,-252.9817 278.8373,-247.7688"/>
</g>
<!-- Node3 -->
<g id="node4" class="node">
<title>Node3</title>
<polygon fill="none" stroke="#bfbfbf" points="552,-112.5 552,-131.5 596,-131.5 596,-112.5 552,-112.5"/>
<text text-anchor="middle" x="574" y="-119.5" font-family="FreeSans.ttf" font-size="10.00" fill="#000000">string</text>
</g>
<!-- Node0&#45;&gt;Node3 -->
<g id="edge65" class="edge">
<title>Node0&#45;&gt;Node3</title>
<path fill="none" stroke="#191970" d="M508.3175,-504.3685C502.1904,-467.5544 482.4772,-332.3663 503,-224 507.9758,-197.7264 509.9972,-190.1355 525,-168 532.5948,-156.7944 543.3694,-146.2978 552.8819,-138.1691"/>
<polygon fill="#191970" stroke="#191970" points="555.2883,-140.7222 560.8048,-131.6769 550.8516,-135.3078 555.2883,-140.7222"/>
</g>
<!-- Node14 -->
<g id="node15" class="node">
<title>Node14</title>
<g id="a_node15"><a xlink:href="SparsityStructure_8h.html" target="_top" xlink:title="iDynTree/SparsityStructure.h">
<polygon fill="none" stroke="#000000" points="35.5,-168.5 35.5,-187.5 190.5,-187.5 190.5,-168.5 35.5,-168.5"/>
<text text-anchor="middle" x="113" y="-175.5" font-family="FreeSans.ttf" font-size="10.00" fill="#000000">iDynTree/SparsityStructure.h</text>
</a>
</g>
</g>
<!-- Node0&#45;&gt;Node14 -->
<g id="edge64" class="edge">
<title>Node0&#45;&gt;Node14</title>
<path fill="none" stroke="#191970" d="M456.7383,-509.0293C354.5509,-498.0125 141,-467.191 141,-402 141,-402 141,-402 141,-290 141,-256.5848 129.1246,-219.1911 120.8415,-197.1729"/>
<polygon fill="#191970" stroke="#191970" points="124.0326,-195.7229 117.1315,-187.6839 117.5132,-198.2719 124.0326,-195.7229"/>
</g>
<!-- Node19 -->
<g id="node20" class="node">
<title>Node19</title>
<g id="a_node20"><a xlink:href="MatrixDynSize_8h.html" target="_top" xlink:title="iDynTree/Core/MatrixDynSize.h">
<polygon fill="none" stroke="#000000" points="1193.5,-336.5 1193.5,-355.5 1360.5,-355.5 1360.5,-336.5 1193.5,-336.5"/>
<text text-anchor="middle" x="1277" y="-343.5" font-family="FreeSans.ttf" font-size="10.00" fill="#000000">iDynTree/Core/MatrixDynSize.h</text>
</a>
</g>
</g>
<!-- Node0&#45;&gt;Node19 -->
<g id="edge24" class="edge">
<title>Node0&#45;&gt;Node19</title>
<path fill="none" stroke="#191970" d="M546.3111,-504.4165C606.6022,-488.5477 724.8959,-457.6094 767,-448 927.4802,-411.3737 1118.0201,-375.1875 1214.4303,-357.3875"/>
<polygon fill="#191970" stroke="#191970" points="1215.1066,-360.8219 1224.3068,-355.5676 1213.838,-353.9378 1215.1066,-360.8219"/>
</g>
<!-- Node21 -->
<g id="node22" class="node">
<title>Node21</title>
<g id="a_node22"><a xlink:href="TimeVaryingObject_8h.html" target="_top" xlink:title="iDynTree/TimeVaryingObject.h">
<polygon fill="none" stroke="#000000" points="513,-448.5 513,-467.5 677,-467.5 677,-448.5 513,-448.5"/>
<text text-anchor="middle" x="595" y="-455.5" font-family="FreeSans.ttf" font-size="10.00" fill="#000000">iDynTree/TimeVaryingObject.h</text>
</a>
</g>
</g>
<!-- Node0&#45;&gt;Node21 -->
<g id="edge31" class="edge">
<title>Node0&#45;&gt;Node21</title>
<path fill="none" stroke="#191970" d="M524.8059,-504.2455C537.7256,-495.7337 556.6931,-483.2375 571.6552,-473.3801"/>
<polygon fill="#191970" stroke="#191970" points="573.9387,-476.067 580.3638,-467.6427 570.0876,-470.2216 573.9387,-476.067"/>
</g>
<!-- Node33 -->
<g id="node34" class="node">
<title>Node33</title>
<polygon fill="none" stroke="#bfbfbf" points="776,-448.5 776,-467.5 834,-467.5 834,-448.5 776,-448.5"/>
<text text-anchor="middle" x="805" y="-455.5" font-family="FreeSans.ttf" font-size="10.00" fill="#000000">memory</text>
</g>
<!-- Node0&#45;&gt;Node33 -->
<g id="edge66" class="edge">
<title>Node0&#45;&gt;Node33</title>
<path fill="none" stroke="#191970" d="M563.2391,-505.045C614.3415,-496.2694 693.6328,-482.181 762,-468 763.2664,-467.7373 764.5527,-467.4658 765.8508,-467.1878"/>
<polygon fill="#191970" stroke="#191970" points="766.8886,-470.543 775.8974,-464.9671 765.3777,-463.7079 766.8886,-470.543"/>
</g>
<!-- Node2 -->
<g id="node3" class="node">
<title>Node2</title>
<polygon fill="none" stroke="#bfbfbf" points="269.5,-.5 269.5,-19.5 322.5,-19.5 322.5,-.5 269.5,-.5"/>
<text text-anchor="middle" x="296" y="-7.5" font-family="FreeSans.ttf" font-size="10.00" fill="#000000">cstddef</text>
</g>
<!-- Node1&#45;&gt;Node2 -->
<g id="edge2" class="edge">
<title>Node1&#45;&gt;Node2</title>
<path fill="none" stroke="#191970" d="M256.6873,-224.1109C256.4175,-211.1606 256.411,-187.7779 259,-168 265.6146,-117.4694 281.3551,-59.4614 290.0221,-29.7724"/>
<polygon fill="#191970" stroke="#191970" points="293.4755,-30.4375 292.9637,-19.8551 286.7645,-28.4469 293.4755,-30.4375"/>
</g>
<!-- Node1&#45;&gt;Node3 -->
<g id="edge3" class="edge">
<title>Node1&#45;&gt;Node3</title>
<path fill="none" stroke="#191970" d="M256.5998,-224.2517C256.5784,-209.6791 258.8722,-182.3923 275,-168 313.8699,-133.3127 472.0583,-124.7621 541.2908,-122.6703"/>
<polygon fill="#191970" stroke="#191970" points="541.7064,-126.1603 551.6065,-122.387 541.5142,-119.1629 541.7064,-126.1603"/>
</g>
<!-- Node4 -->
<g id="node5" class="node">
<title>Node4</title>
<g id="a_node5"><a xlink:href="VectorDynSize_8h.html" target="_top" xlink:title="iDynTree/Core/VectorDynSize.h">
<polygon fill="none" stroke="#000000" points="284.5,-168.5 284.5,-187.5 451.5,-187.5 451.5,-168.5 284.5,-168.5"/>
<text text-anchor="middle" x="368" y="-175.5" font-family="FreeSans.ttf" font-size="10.00" fill="#000000">iDynTree/Core/VectorDynSize.h</text>
</a>
</g>
</g>
<!-- Node1&#45;&gt;Node4 -->
<g id="edge4" class="edge">
<title>Node1&#45;&gt;Node4</title>
<path fill="none" stroke="#191970" d="M276.0816,-224.3733C293.7402,-215.4644 320.2053,-202.1127 340.2098,-192.0203"/>
<polygon fill="#191970" stroke="#191970" points="341.8158,-195.1303 349.1674,-187.5011 338.6628,-188.8806 341.8158,-195.1303"/>
</g>
<!-- Node1&#45;&gt;Node14 -->
<g id="edge16" class="edge">
<title>Node1&#45;&gt;Node14</title>
<path fill="none" stroke="#191970" d="M232.2455,-224.3733C208.7151,-215.2226 173.1313,-201.3844 146.9574,-191.2057"/>
<polygon fill="#191970" stroke="#191970" points="148.0201,-187.8636 137.4315,-187.5011 145.4829,-194.3877 148.0201,-187.8636"/>
</g>
<!-- Node4&#45;&gt;Node3 -->
<g id="edge15" class="edge">
<title>Node4&#45;&gt;Node3</title>
<path fill="none" stroke="#191970" d="M403.4127,-168.3733C442.3182,-157.797 504.2578,-140.959 541.8254,-130.7465"/>
<polygon fill="#191970" stroke="#191970" points="543.004,-134.0532 551.7357,-128.0524 541.1677,-127.2983 543.004,-134.0532"/>
</g>
<!-- Node5 -->
<g id="node6" class="node">
<title>Node5</title>
<g id="a_node6"><a xlink:href="Span_8h.html" target="_top" xlink:title="iDynTree/Core/Span.h">
<polygon fill="none" stroke="#000000" points="631.5,-56.5 631.5,-75.5 752.5,-75.5 752.5,-56.5 631.5,-56.5"/>
<text text-anchor="middle" x="692" y="-63.5" font-family="FreeSans.ttf" font-size="10.00" fill="#000000">iDynTree/Core/Span.h</text>
</a>
</g>
</g>
<!-- Node4&#45;&gt;Node5 -->
<g id="edge5" class="edge">
<title>Node4&#45;&gt;Node5</title>
<path fill="none" stroke="#191970" d="M391.8927,-168.4574C425.4301,-155.1847 488.475,-130.6789 543,-112 578.5511,-99.8211 619.3556,-87.3253 649.2644,-78.437"/>
<polygon fill="#191970" stroke="#191970" points="650.3702,-81.7599 658.9663,-75.5666 648.3842,-75.0475 650.3702,-81.7599"/>
</g>
<!-- Node5&#45;&gt;Node2 -->
<g id="edge9" class="edge">
<title>Node5&#45;&gt;Node2</title>
<path fill="none" stroke="#191970" d="M631.4251,-57.4338C548.3382,-45.6842 401.544,-24.9254 333.0861,-15.2445"/>
<polygon fill="#191970" stroke="#191970" points="333.185,-11.7237 322.7934,-13.789 332.2048,-18.6548 333.185,-11.7237"/>
</g>
<!-- Node6 -->
<g id="node7" class="node">
<title>Node6</title>
<polygon fill="none" stroke="#bfbfbf" points="960,-.5 960,-19.5 1012,-19.5 1012,-.5 960,-.5"/>
<text text-anchor="middle" x="986" y="-7.5" font-family="FreeSans.ttf" font-size="10.00" fill="#000000">cassert</text>
</g>
<!-- Node5&#45;&gt;Node6 -->
<g id="edge6" class="edge">
<title>Node5&#45;&gt;Node6</title>
<path fill="none" stroke="#191970" d="M742.2063,-56.4369C801.1247,-45.2143 897.3879,-26.8785 949.5821,-16.9367"/>
<polygon fill="#191970" stroke="#191970" points="950.547,-20.316 959.7155,-15.0066 949.2372,-13.4396 950.547,-20.316"/>
</g>
<!-- Node7 -->
<g id="node8" class="node">
<title>Node7</title>
<polygon fill="none" stroke="#bfbfbf" points="660,-.5 660,-19.5 724,-19.5 724,-.5 660,-.5"/>
<text text-anchor="middle" x="692" y="-7.5" font-family="FreeSans.ttf" font-size="10.00" fill="#000000">algorithm</text>
</g>
<!-- Node5&#45;&gt;Node7 -->
<g id="edge7" class="edge">
<title>Node5&#45;&gt;Node7</title>
<path fill="none" stroke="#191970" d="M692,-56.2455C692,-48.9382 692,-38.6944 692,-29.7046"/>
<polygon fill="#191970" stroke="#191970" points="695.5001,-29.6426 692,-19.6427 688.5001,-29.6427 695.5001,-29.6426"/>
</g>
<!-- Node8 -->
<g id="node9" class="node">
<title>Node8</title>
<polygon fill="none" stroke="#bfbfbf" points="742,-.5 742,-19.5 784,-19.5 784,-.5 742,-.5"/>
<text text-anchor="middle" x="763" y="-7.5" font-family="FreeSans.ttf" font-size="10.00" fill="#000000">array</text>
</g>
<!-- Node5&#45;&gt;Node8 -->
<g id="edge8" class="edge">
<title>Node5&#45;&gt;Node8</title>
<path fill="none" stroke="#191970" d="M704.3673,-56.2455C714.9554,-47.8943 730.4064,-35.7076 742.7893,-25.9408"/>
<polygon fill="#191970" stroke="#191970" points="745.0903,-28.5837 750.7745,-19.6427 740.7553,-23.0875 745.0903,-28.5837"/>
</g>
<!-- Node9 -->
<g id="node10" class="node">
<title>Node9</title>
<polygon fill="none" stroke="#bfbfbf" points="802.5,-.5 802.5,-19.5 855.5,-19.5 855.5,-.5 802.5,-.5"/>
<text text-anchor="middle" x="829" y="-7.5" font-family="FreeSans.ttf" font-size="10.00" fill="#000000">iterator</text>
</g>
<!-- Node5&#45;&gt;Node9 -->
<g id="edge10" class="edge">
<title>Node5&#45;&gt;Node9</title>
<path fill="none" stroke="#191970" d="M715.5511,-56.3733C737.8391,-47.2629 771.4937,-33.5062 796.3637,-23.3404"/>
<polygon fill="#191970" stroke="#191970" points="797.8239,-26.5247 805.7562,-19.5011 795.1753,-20.0451 797.8239,-26.5247"/>
</g>
<!-- Node10 -->
<g id="node11" class="node">
<title>Node10</title>
<polygon fill="none" stroke="#bfbfbf" points="874,-.5 874,-19.5 918,-19.5 918,-.5 874,-.5"/>
<text text-anchor="middle" x="896" y="-7.5" font-family="FreeSans.ttf" font-size="10.00" fill="#000000">limits</text>
</g>
<!-- Node5&#45;&gt;Node10 -->
<g id="edge11" class="edge">
<title>Node5&#45;&gt;Node10</title>
<path fill="none" stroke="#191970" d="M730.2967,-56.4281C763.3987,-48.0183 812.7302,-35.162 864.0832,-20.1727"/>
<polygon fill="#191970" stroke="#191970" points="865.0842,-23.5266 873.692,-17.3496 863.1109,-16.8105 865.0842,-23.5266"/>
</g>
<!-- Node11 -->
<g id="node12" class="node">
<title>Node11</title>
<polygon fill="none" stroke="#bfbfbf" points="513.5,-.5 513.5,-19.5 578.5,-19.5 578.5,-.5 513.5,-.5"/>
<text text-anchor="middle" x="546" y="-7.5" font-family="FreeSans.ttf" font-size="10.00" fill="#000000">stdexcept</text>
</g>
<!-- Node5&#45;&gt;Node11 -->
<g id="edge12" class="edge">
<title>Node5&#45;&gt;Node11</title>
<path fill="none" stroke="#191970" d="M666.9017,-56.3733C643.0445,-47.2226 606.9665,-33.3844 580.429,-23.2057"/>
<polygon fill="#191970" stroke="#191970" points="581.361,-19.8145 570.7708,-19.5011 578.8541,-26.3503 581.361,-19.8145"/>
</g>
<!-- Node12 -->
<g id="node13" class="node">
<title>Node12</title>
<polygon fill="none" stroke="#bfbfbf" points="1076.5,-.5 1076.5,-19.5 1145.5,-19.5 1145.5,-.5 1076.5,-.5"/>
<text text-anchor="middle" x="1111" y="-7.5" font-family="FreeSans.ttf" font-size="10.00" fill="#000000">type_traits</text>
</g>
<!-- Node5&#45;&gt;Node12 -->
<g id="edge13" class="edge">
<title>Node5&#45;&gt;Node12</title>
<path fill="none" stroke="#191970" d="M752.9262,-57.8571C838.1184,-46.471 990.8424,-26.0593 1066.2985,-15.9744"/>
<polygon fill="#191970" stroke="#191970" points="1066.9696,-19.4159 1076.4178,-14.622 1066.0422,-12.4776 1066.9696,-19.4159"/>
</g>
<!-- Node13 -->
<g id="node14" class="node">
<title>Node13</title>
<polygon fill="none" stroke="#bfbfbf" points="596.5,-.5 596.5,-19.5 641.5,-19.5 641.5,-.5 596.5,-.5"/>
<text text-anchor="middle" x="619" y="-7.5" font-family="FreeSans.ttf" font-size="10.00" fill="#000000">utility</text>
</g>
<!-- Node5&#45;&gt;Node13 -->
<g id="edge14" class="edge">
<title>Node5&#45;&gt;Node13</title>
<path fill="none" stroke="#191970" d="M679.2844,-56.2455C668.398,-47.8943 652.5117,-35.7076 639.78,-25.9408"/>
<polygon fill="#191970" stroke="#191970" points="641.6346,-22.9523 631.5699,-19.6427 637.3739,-28.5063 641.6346,-22.9523"/>
</g>
<!-- Node14&#45;&gt;Node2 -->
<g id="edge21" class="edge">
<title>Node14&#45;&gt;Node2</title>
<path fill="none" stroke="#191970" d="M114.0775,-168.2445C115.9765,-154.6122 120.9315,-129.5653 133,-112 163.889,-67.0422 221.7521,-37.921 259.5714,-22.7358"/>
<polygon fill="#191970" stroke="#191970" points="261.1421,-25.8805 269.1965,-18.9973 258.6077,-19.3554 261.1421,-25.8805"/>
</g>
<!-- Node14&#45;&gt;Node3 -->
<g id="edge23" class="edge">
<title>Node14&#45;&gt;Node3</title>
<path fill="none" stroke="#191970" d="M190.6811,-168.5637C293.1925,-156.1111 469.0988,-134.7429 541.4569,-125.9532"/>
<polygon fill="#191970" stroke="#191970" points="542.2528,-129.3823 551.7577,-124.7019 541.4086,-122.4334 542.2528,-129.3823"/>
</g>
<!-- Node15 -->
<g id="node16" class="node">
<title>Node15</title>
<g id="a_node16"><a xlink:href="Utils_8h.html" target="_top" xlink:title="iDynTree/Core/Utils.h">
<polygon fill="none" stroke="#000000" points="445.5,-56.5 445.5,-75.5 564.5,-75.5 564.5,-56.5 445.5,-56.5"/>
<text text-anchor="middle" x="505" y="-63.5" font-family="FreeSans.ttf" font-size="10.00" fill="#000000">iDynTree/Core/Utils.h</text>
</a>
</g>
</g>
<!-- Node14&#45;&gt;Node15 -->
<g id="edge17" class="edge">
<title>Node14&#45;&gt;Node15</title>
<path fill="none" stroke="#191970" d="M146.4217,-168.4509C217.2993,-148.2002 382.644,-100.9589 461.5709,-78.4083"/>
<polygon fill="#191970" stroke="#191970" points="463.0092,-81.6375 471.6629,-75.5249 461.0861,-74.9068 463.0092,-81.6375"/>
</g>
<!-- Node17 -->
<g id="node18" class="node">
<title>Node17</title>
<polygon fill="none" stroke="#bfbfbf" points="142.5,-112.5 142.5,-131.5 189.5,-131.5 189.5,-112.5 142.5,-112.5"/>
<text text-anchor="middle" x="166" y="-119.5" font-family="FreeSans.ttf" font-size="10.00" fill="#000000">vector</text>
</g>
<!-- Node14&#45;&gt;Node17 -->
<g id="edge20" class="edge">
<title>Node14&#45;&gt;Node17</title>
<path fill="none" stroke="#191970" d="M122.2319,-168.2455C129.8317,-160.2155 140.7877,-148.6394 149.8368,-139.0781"/>
<polygon fill="#191970" stroke="#191970" points="152.5421,-141.3115 156.8739,-131.6427 147.458,-136.4998 152.5421,-141.3115"/>
</g>
<!-- Node18 -->
<g id="node19" class="node">
<title>Node18</title>
<polygon fill="none" stroke="#bfbfbf" points="0,-112.5 0,-131.5 86,-131.5 86,-112.5 0,-112.5"/>
<text text-anchor="middle" x="43" y="-119.5" font-family="FreeSans.ttf" font-size="10.00" fill="#000000">unordered_set</text>
</g>
<!-- Node14&#45;&gt;Node18 -->
<g id="edge22" class="edge">
<title>Node14&#45;&gt;Node18</title>
<path fill="none" stroke="#191970" d="M100.8069,-168.2455C90.3679,-159.8943 75.1345,-147.7076 62.926,-137.9408"/>
<polygon fill="#191970" stroke="#191970" points="65.0485,-135.1566 55.0533,-131.6427 60.6756,-140.6227 65.0485,-135.1566"/>
</g>
<!-- Node15&#45;&gt;Node2 -->
<g id="edge18" class="edge">
<title>Node15&#45;&gt;Node2</title>
<path fill="none" stroke="#191970" d="M469.0716,-56.3733C430.8236,-46.125 370.633,-29.9974 332.2591,-19.7154"/>
<polygon fill="#191970" stroke="#191970" points="333.0906,-16.3148 322.5255,-17.1073 331.2789,-23.0763 333.0906,-16.3148"/>
</g>
<!-- Node16 -->
<g id="node17" class="node">
<title>Node16</title>
<polygon fill="none" stroke="#bfbfbf" points="415,-.5 415,-19.5 495,-19.5 495,-.5 415,-.5"/>
<text text-anchor="middle" x="455" y="-7.5" font-family="FreeSans.ttf" font-size="10.00" fill="#000000">CoreExport.h</text>
</g>
<!-- Node15&#45;&gt;Node16 -->
<g id="edge19" class="edge">
<title>Node15&#45;&gt;Node16</title>
<path fill="none" stroke="#191970" d="M496.2907,-56.2455C489.1927,-48.2958 478.9916,-36.8706 470.505,-27.3656"/>
<polygon fill="#191970" stroke="#191970" points="472.8805,-24.771 463.6095,-19.6427 467.6589,-29.4331 472.8805,-24.771"/>
</g>
<!-- Node19&#45;&gt;Node3 -->
<g id="edge25" class="edge">
<title>Node19&#45;&gt;Node3</title>
<path fill="none" stroke="#191970" d="M1193.2062,-344.0258C1093.889,-340.3572 923.8438,-329.8829 781,-300 703.5493,-283.7973 667.445,-300.4534 612,-244 584.5249,-216.0252 576.8747,-168.5231 574.7712,-141.7935"/>
<polygon fill="#191970" stroke="#191970" points="578.26,-141.4999 574.1677,-131.7273 571.2725,-141.9189 578.26,-141.4999"/>
</g>
<!-- Node20 -->
<g id="node21" class="node">
<title>Node20</title>
<g id="a_node21"><a xlink:href="MatrixView_8h.html" target="_top" xlink:title="iDynTree/Core/MatrixView.h">
<polygon fill="none" stroke="#000000" points="1084.5,-112.5 1084.5,-131.5 1235.5,-131.5 1235.5,-112.5 1084.5,-112.5"/>
<text text-anchor="middle" x="1160" y="-119.5" font-family="FreeSans.ttf" font-size="10.00" fill="#000000">iDynTree/Core/MatrixView.h</text>
</a>
</g>
</g>
<!-- Node19&#45;&gt;Node20 -->
<g id="edge26" class="edge">
<title>Node19&#45;&gt;Node20</title>
<path fill="none" stroke="#191970" d="M1276.8354,-336.2541C1276.1104,-314.8032 1272.3305,-262.3621 1253,-224 1235.1977,-188.6706 1201.6813,-156.4897 1180.1209,-138.0884"/>
<polygon fill="#191970" stroke="#191970" points="1182.1545,-135.2271 1172.2317,-131.5137 1177.673,-140.6045 1182.1545,-135.2271"/>
</g>
<!-- Node20&#45;&gt;Node5 -->
<g id="edge29" class="edge">
<title>Node20&#45;&gt;Node5</title>
<path fill="none" stroke="#191970" d="M1084.2876,-112.9404C995.4493,-102.3102 849.3093,-84.8233 762.6972,-74.4595"/>
<polygon fill="#191970" stroke="#191970" points="763.0415,-70.9758 752.6965,-73.2628 762.2098,-77.9262 763.0415,-70.9758"/>
</g>
<!-- Node20&#45;&gt;Node6 -->
<g id="edge27" class="edge">
<title>Node20&#45;&gt;Node6</title>
<path fill="none" stroke="#191970" d="M1147.843,-112.2851C1130.8798,-98.9175 1098.9312,-74.4169 1070,-56 1051.9436,-44.5057 1030.8056,-32.9393 1014.2512,-24.28"/>
<polygon fill="#191970" stroke="#191970" points="1015.5818,-21.0277 1005.0919,-19.54 1012.3645,-27.2445 1015.5818,-21.0277"/>
</g>
<!-- Node20&#45;&gt;Node12 -->
<g id="edge28" class="edge">
<title>Node20&#45;&gt;Node12</title>
<path fill="none" stroke="#191970" d="M1155.8223,-112.4509C1147.722,-93.936 1129.7508,-52.8591 1119.1894,-28.7187"/>
<polygon fill="#191970" stroke="#191970" points="1122.3819,-27.2836 1115.1671,-19.5249 1115.9688,-30.0894 1122.3819,-27.2836"/>
</g>
<!-- Node20&#45;&gt;Node15 -->
<g id="edge30" class="edge">
<title>Node20&#45;&gt;Node15</title>
<path fill="none" stroke="#191970" d="M1084.2233,-115.5214C956.1542,-104.572 698.7629,-82.566 574.8285,-71.9701"/>
<polygon fill="#191970" stroke="#191970" points="574.9603,-68.4687 564.6984,-71.104 574.3639,-75.4432 574.9603,-68.4687"/>
</g>
<!-- Node21&#45;&gt;Node4 -->
<g id="edge32" class="edge">
<title>Node21&#45;&gt;Node4</title>
<path fill="none" stroke="#191970" d="M577.1705,-448.4715C562.6018,-440.1231 542.0324,-427.0013 527,-412 457.4786,-342.6222 399.5519,-238.8526 377.5252,-196.7517"/>
<polygon fill="#191970" stroke="#191970" points="380.6329,-195.1415 372.9323,-187.8646 374.4142,-198.3553 380.6329,-195.1415"/>
</g>
<!-- Node21&#45;&gt;Node19 -->
<g id="edge33" class="edge">
<title>Node21&#45;&gt;Node19</title>
<path fill="none" stroke="#191970" d="M614.9594,-448.4091C652.6597,-430.3087 730.8714,-392.8387 734,-392 926.0844,-340.5059 981.9675,-374.1979 1180,-356 1181.0958,-355.8993 1182.1985,-355.7973 1183.307,-355.694"/>
<polygon fill="#191970" stroke="#191970" points="1183.7876,-359.1643 1193.4127,-354.7361 1183.127,-352.1955 1183.7876,-359.1643"/>
</g>
<!-- Node22 -->
<g id="node23" class="node">
<title>Node22</title>
<g id="a_node23"><a xlink:href="Transform_8h.html" target="_top" xlink:title="iDynTree/Core/Transform.h">
<polygon fill="none" stroke="#000000" points="536,-392.5 536,-411.5 682,-411.5 682,-392.5 536,-392.5"/>
<text text-anchor="middle" x="609" y="-399.5" font-family="FreeSans.ttf" font-size="10.00" fill="#000000">iDynTree/Core/Transform.h</text>
</a>
</g>
</g>
<!-- Node21&#45;&gt;Node22 -->
<g id="edge34" class="edge">
<title>Node21&#45;&gt;Node22</title>
<path fill="none" stroke="#191970" d="M597.4386,-448.2455C599.2855,-440.8579 601.8828,-430.4689 604.1478,-421.4087"/>
<polygon fill="#191970" stroke="#191970" points="607.5594,-422.193 606.5893,-411.6427 600.7684,-420.4952 607.5594,-422.193"/>
</g>
<!-- Node22&#45;&gt;Node3 -->
<g id="edge63" class="edge">
<title>Node22&#45;&gt;Node3</title>
<path fill="none" stroke="#191970" d="M592.5522,-392.232C566.0898,-375.1274 517,-337.0556 517,-290 517,-290 517,-290 517,-234 517,-197.1826 541.7675,-160.2377 558.6501,-139.3313"/>
<polygon fill="#191970" stroke="#191970" points="561.3511,-141.5574 565.0938,-131.6456 555.9869,-137.06 561.3511,-141.5574"/>
</g>
<!-- Node23 -->
<g id="node24" class="node">
<title>Node23</title>
<g id="a_node24"><a xlink:href="Position_8h.html" target="_top" xlink:title="iDynTree/Core/Position.h">
<polygon fill="none" stroke="#000000" points="571,-336.5 571,-355.5 707,-355.5 707,-336.5 571,-336.5"/>
<text text-anchor="middle" x="639" y="-343.5" font-family="FreeSans.ttf" font-size="10.00" fill="#000000">iDynTree/Core/Position.h</text>
</a>
</g>
</g>
<!-- Node22&#45;&gt;Node23 -->
<g id="edge35" class="edge">
<title>Node22&#45;&gt;Node23</title>
<path fill="none" stroke="#191970" d="M614.2256,-392.2455C618.3123,-384.617 624.1135,-373.7881 629.075,-364.5267"/>
<polygon fill="#191970" stroke="#191970" points="632.1972,-366.1103 633.8343,-355.6427 626.0268,-362.8047 632.1972,-366.1103"/>
</g>
<!-- Node28 -->
<g id="node29" class="node">
<title>Node28</title>
<g id="a_node29"><a xlink:href="Rotation_8h.html" target="_top" xlink:title="iDynTree/Core/Rotation.h">
<polygon fill="none" stroke="#000000" points="789.5,-280.5 789.5,-299.5 926.5,-299.5 926.5,-280.5 789.5,-280.5"/>
<text text-anchor="middle" x="858" y="-287.5" font-family="FreeSans.ttf" font-size="10.00" fill="#000000">iDynTree/Core/Rotation.h</text>
</a>
</g>
</g>
<!-- Node22&#45;&gt;Node28 -->
<g id="edge61" class="edge">
<title>Node22&#45;&gt;Node28</title>
<path fill="none" stroke="#191970" d="M631.6276,-392.4975C653.3419,-383.3255 687.0204,-368.9607 716,-356 755.2414,-338.4499 800.1822,-317.3998 828.8101,-303.8692"/>
<polygon fill="#191970" stroke="#191970" points="830.3204,-307.0267 837.8615,-299.5848 827.3255,-300.6997 830.3204,-307.0267"/>
</g>
<!-- Node31 -->
<g id="node32" class="node">
<title>Node31</title>
<g id="a_node32"><a xlink:href="MatrixFixSize_8h.html" target="_top" xlink:title="iDynTree/Core/MatrixFixSize.h">
<polygon fill="none" stroke="#000000" points="914.5,-168.5 914.5,-187.5 1075.5,-187.5 1075.5,-168.5 914.5,-168.5"/>
<text text-anchor="middle" x="995" y="-175.5" font-family="FreeSans.ttf" font-size="10.00" fill="#000000">iDynTree/Core/MatrixFixSize.h</text>
</a>
</g>
</g>
<!-- Node22&#45;&gt;Node31 -->
<g id="edge62" class="edge">
<title>Node22&#45;&gt;Node31</title>
<path fill="none" stroke="#191970" d="M657.8652,-392.4169C793.0572,-365.4265 1164.3306,-287.8916 1198,-244 1203.4102,-236.9472 1203.5476,-230.9453 1198,-224 1183.5509,-205.9104 1132.7085,-194.4052 1085.5247,-187.425"/>
<polygon fill="#191970" stroke="#191970" points="1085.9192,-183.9459 1075.5261,-186.0034 1084.9338,-190.8762 1085.9192,-183.9459"/>
</g>
<!-- Node23&#45;&gt;Node3 -->
<g id="edge60" class="edge">
<title>Node23&#45;&gt;Node3</title>
<path fill="none" stroke="#191970" d="M618.6528,-336.4689C604.7676,-328.7611 587.4212,-316.4804 579,-300 552.4595,-248.0602 562.3238,-175.9957 569.3483,-141.6823"/>
<polygon fill="#191970" stroke="#191970" points="572.8411,-142.0941 571.5649,-131.5764 566.0036,-140.5943 572.8411,-142.0941"/>
</g>
<!-- Node24 -->
<g id="node25" class="node">
<title>Node24</title>
<g id="a_node25"><a xlink:href="PositionRaw_8h.html" target="_top" xlink:title="iDynTree/Core/PositionRaw.h">
<polygon fill="none" stroke="#000000" points="621,-224.5 621,-243.5 777,-243.5 777,-224.5 621,-224.5"/>
<text text-anchor="middle" x="699" y="-231.5" font-family="FreeSans.ttf" font-size="10.00" fill="#000000">iDynTree/Core/PositionRaw.h</text>
</a>
</g>
</g>
<!-- Node23&#45;&gt;Node24 -->
<g id="edge36" class="edge">
<title>Node23&#45;&gt;Node24</title>
<path fill="none" stroke="#191970" d="M644.1156,-336.4509C654.0786,-317.8533 676.2365,-276.4919 689.1448,-252.3964"/>
<polygon fill="#191970" stroke="#191970" points="692.2603,-253.9925 693.8974,-243.5249 686.0899,-250.6869 692.2603,-253.9925"/>
</g>
<!-- Node23&#45;&gt;Node28 -->
<g id="edge45" class="edge">
<title>Node23&#45;&gt;Node28</title>
<path fill="none" stroke="#191970" d="M676.6474,-336.3733C713.852,-326.8598 770.8703,-312.2797 811.0216,-302.0127"/>
<polygon fill="#191970" stroke="#191970" points="812.0227,-305.3695 820.8438,-299.5011 810.2884,-298.5877 812.0227,-305.3695"/>
</g>
<!-- Node24&#45;&gt;Node3 -->
<g id="edge44" class="edge">
<title>Node24&#45;&gt;Node3</title>
<path fill="none" stroke="#191970" d="M688.3426,-224.4509C666.9406,-205.2747 618.5271,-161.8962 592.079,-138.1988"/>
<polygon fill="#191970" stroke="#191970" points="594.4138,-135.5914 584.6305,-131.5249 589.7426,-140.8048 594.4138,-135.5914"/>
</g>
<!-- Node25 -->
<g id="node26" class="node">
<title>Node25</title>
<g id="a_node26"><a xlink:href="VectorFixSize_8h.html" target="_top" xlink:title="iDynTree/Core/VectorFixSize.h">
<polygon fill="none" stroke="#000000" points="735.5,-168.5 735.5,-187.5 896.5,-187.5 896.5,-168.5 735.5,-168.5"/>
<text text-anchor="middle" x="816" y="-175.5" font-family="FreeSans.ttf" font-size="10.00" fill="#000000">iDynTree/Core/VectorFixSize.h</text>
</a>
</g>
</g>
<!-- Node24&#45;&gt;Node25 -->
<g id="edge37" class="edge">
<title>Node24&#45;&gt;Node25</title>
<path fill="none" stroke="#191970" d="M719.113,-224.3733C737.8103,-215.4241 765.8744,-201.9917 786.9934,-191.8835"/>
<polygon fill="#191970" stroke="#191970" points="788.6405,-194.9755 796.1494,-187.5011 785.6183,-188.6614 788.6405,-194.9755"/>
</g>
<!-- Node25&#45;&gt;Node3 -->
<g id="edge40" class="edge">
<title>Node25&#45;&gt;Node3</title>
<path fill="none" stroke="#191970" d="M774.6737,-168.4369C726.9325,-157.3893 649.4027,-139.4486 606.0125,-129.4079"/>
<polygon fill="#191970" stroke="#191970" points="606.7997,-125.9976 596.2681,-127.1529 605.2215,-132.8174 606.7997,-125.9976"/>
</g>
<!-- Node25&#45;&gt;Node5 -->
<g id="edge39" class="edge">
<title>Node25&#45;&gt;Node5</title>
<path fill="none" stroke="#191970" d="M798.2708,-168.38C783.4544,-159.8824 762.2074,-146.5987 746,-132 729.9378,-117.5322 714.6309,-98.0969 704.4432,-84.0676"/>
<polygon fill="#191970" stroke="#191970" points="707.1724,-81.8657 698.5311,-75.7356 701.4635,-85.9165 707.1724,-81.8657"/>
</g>
<!-- Node25&#45;&gt;Node6 -->
<g id="edge42" class="edge">
<title>Node25&#45;&gt;Node6</title>
<path fill="none" stroke="#191970" d="M803.8408,-168.4437C788.8559,-155.4648 766.7883,-131.6312 779,-112 816.4586,-51.7829 901.0835,-26.0734 949.739,-15.9411"/>
<polygon fill="#191970" stroke="#191970" points="950.6992,-19.3193 959.8355,-13.9548 949.348,-12.451 950.6992,-19.3193"/>
</g>
<!-- Node25&#45;&gt;Node15 -->
<g id="edge38" class="edge">
<title>Node25&#45;&gt;Node15</title>
<path fill="none" stroke="#191970" d="M789.4843,-168.4509C733.7114,-148.3655 604.21,-101.7284 541.0024,-78.9655"/>
<polygon fill="#191970" stroke="#191970" points="542.043,-75.6202 531.4486,-75.5249 539.6711,-82.2062 542.043,-75.6202"/>
</g>
<!-- Node26 -->
<g id="node27" class="node">
<title>Node26</title>
<polygon fill="none" stroke="#bfbfbf" points="856,-112.5 856,-131.5 912,-131.5 912,-112.5 856,-112.5"/>
<text text-anchor="middle" x="884" y="-119.5" font-family="FreeSans.ttf" font-size="10.00" fill="#000000">sstream</text>
</g>
<!-- Node25&#45;&gt;Node26 -->
<g id="edge41" class="edge">
<title>Node25&#45;&gt;Node26</title>
<path fill="none" stroke="#191970" d="M827.8447,-168.2455C837.888,-159.9746 852.4995,-147.9416 864.3004,-138.2232"/>
<polygon fill="#191970" stroke="#191970" points="866.7967,-140.7015 872.291,-131.6427 862.3467,-135.298 866.7967,-140.7015"/>
</g>
<!-- Node27 -->
<g id="node28" class="node">
<title>Node27</title>
<polygon fill="none" stroke="#bfbfbf" points="788,-112.5 788,-131.5 838,-131.5 838,-112.5 788,-112.5"/>
<text text-anchor="middle" x="813" y="-119.5" font-family="FreeSans.ttf" font-size="10.00" fill="#000000">cstring</text>
</g>
<!-- Node25&#45;&gt;Node27 -->
<g id="edge43" class="edge">
<title>Node25&#45;&gt;Node27</title>
<path fill="none" stroke="#191970" d="M815.4774,-168.2455C815.086,-160.9382 814.5372,-150.6944 814.0556,-141.7046"/>
<polygon fill="#191970" stroke="#191970" points="817.5466,-141.4411 813.5166,-131.6427 810.5566,-141.8156 817.5466,-141.4411"/>
</g>
<!-- Node28&#45;&gt;Node3 -->
<g id="edge46" class="edge">
<title>Node28&#45;&gt;Node3</title>
<path fill="none" stroke="#191970" d="M849.6564,-280.1461C837.1483,-265.933 812.1939,-239.6692 786,-224 744.3843,-199.1055 726.863,-208.6795 683,-188 667.4875,-180.6865 664.6693,-176.8846 650,-168 632.7389,-157.5456 613.2688,-145.7612 598.3569,-136.7374"/>
<polygon fill="#191970" stroke="#191970" points="600.0892,-133.6948 589.7217,-131.5121 596.4652,-139.6837 600.0892,-133.6948"/>
</g>
<!-- Node28&#45;&gt;Node25 -->
<g id="edge59" class="edge">
<title>Node28&#45;&gt;Node25</title>
<path fill="none" stroke="#191970" d="M926.8124,-284.9858C1016.9429,-277.7074 1165.5199,-262.9852 1182,-244 1187.8269,-237.2874 1187.8804,-230.6658 1182,-224 1179.717,-221.4121 1014.4498,-201.4396 906.8012,-188.6767"/>
<polygon fill="#191970" stroke="#191970" points="906.9132,-185.1656 896.5709,-187.4649 906.0898,-192.117 906.9132,-185.1656"/>
</g>
<!-- Node29 -->
<g id="node30" class="node">
<title>Node29</title>
<g id="a_node30"><a xlink:href="GeomVector3_8h.html" target="_top" xlink:title="iDynTree/Core/GeomVector3.h">
<polygon fill="none" stroke="#000000" points="1009.5,-224.5 1009.5,-243.5 1172.5,-243.5 1172.5,-224.5 1009.5,-224.5"/>
<text text-anchor="middle" x="1091" y="-231.5" font-family="FreeSans.ttf" font-size="10.00" fill="#000000">iDynTree/Core/GeomVector3.h</text>
</a>
</g>
</g>
<!-- Node28&#45;&gt;Node29 -->
<g id="edge47" class="edge">
<title>Node28&#45;&gt;Node29</title>
<path fill="none" stroke="#191970" d="M897.7894,-280.4369C937.498,-270.8932 998.6104,-256.2052 1041.4455,-245.9101"/>
<polygon fill="#191970" stroke="#191970" points="1042.4695,-249.2637 1051.3747,-243.5237 1040.8337,-242.4575 1042.4695,-249.2637"/>
</g>
<!-- Node30 -->
<g id="node31" class="node">
<title>Node30</title>
<g id="a_node31"><a xlink:href="RotationRaw_8h.html" target="_top" xlink:title="iDynTree/Core/RotationRaw.h">
<polygon fill="none" stroke="#000000" points="833,-224.5 833,-243.5 991,-243.5 991,-224.5 833,-224.5"/>
<text text-anchor="middle" x="912" y="-231.5" font-family="FreeSans.ttf" font-size="10.00" fill="#000000">iDynTree/Core/RotationRaw.h</text>
</a>
</g>
</g>
<!-- Node28&#45;&gt;Node30 -->
<g id="edge49" class="edge">
<title>Node28&#45;&gt;Node30</title>
<path fill="none" stroke="#191970" d="M867.4061,-280.2455C875.1493,-272.2155 886.312,-260.6394 895.5318,-251.0781"/>
<polygon fill="#191970" stroke="#191970" points="898.2798,-253.2706 902.7017,-243.6427 893.2409,-248.4117 898.2798,-253.2706"/>
</g>
<!-- Node29&#45;&gt;Node25 -->
<g id="edge48" class="edge">
<title>Node29&#45;&gt;Node25</title>
<path fill="none" stroke="#191970" d="M1044.0383,-224.4369C996.5787,-214.7724 923.2134,-199.8326 872.5777,-189.5213"/>
<polygon fill="#191970" stroke="#191970" points="873.2653,-186.0895 862.768,-187.5237 871.8685,-192.9488 873.2653,-186.0895"/>
</g>
<!-- Node30&#45;&gt;Node3 -->
<g id="edge58" class="edge">
<title>Node30&#45;&gt;Node3</title>
<path fill="none" stroke="#191970" d="M863.3797,-224.458C825.651,-216.4461 772.3189,-203.785 727,-188 706.7143,-180.9343 702.675,-176.6213 683,-168 657.0602,-156.6336 627.4427,-144.1668 605.6341,-135.0823"/>
<polygon fill="#191970" stroke="#191970" points="606.7821,-131.7693 596.2047,-131.1625 604.0951,-138.233 606.7821,-131.7693"/>
</g>
<!-- Node30&#45;&gt;Node31 -->
<g id="edge50" class="edge">
<title>Node30&#45;&gt;Node31</title>
<path fill="none" stroke="#191970" d="M926.4575,-224.2455C939.0732,-215.7337 957.5944,-203.2375 972.2045,-193.3801"/>
<polygon fill="#191970" stroke="#191970" points="974.3761,-196.1371 980.7082,-187.6427 970.4609,-190.3343 974.3761,-196.1371"/>
</g>
<!-- Node31&#45;&gt;Node3 -->
<g id="edge55" class="edge">
<title>Node31&#45;&gt;Node3</title>
<path fill="none" stroke="#191970" d="M923.1059,-168.4369C830.5929,-156.1311 673.7813,-135.2726 606.3756,-126.3065"/>
<polygon fill="#191970" stroke="#191970" points="606.7228,-122.8219 596.3485,-124.9727 605.7997,-129.7608 606.7228,-122.8219"/>
</g>
<!-- Node31&#45;&gt;Node6 -->
<g id="edge53" class="edge">
<title>Node31&#45;&gt;Node6</title>
<path fill="none" stroke="#191970" d="M1008.028,-168.3141C1018.0792,-159.9649 1031.2125,-146.922 1037,-132 1040.2143,-123.7126 1039.0422,-120.6511 1037,-112 1029.5727,-80.5375 1010.8726,-47.7149 998.3011,-28.0666"/>
<polygon fill="#191970" stroke="#191970" points="1001.1159,-25.9767 992.6983,-19.5429 995.2665,-29.8218 1001.1159,-25.9767"/>
</g>
<!-- Node31&#45;&gt;Node15 -->
<g id="edge51" class="edge">
<title>Node31&#45;&gt;Node15</title>
<path fill="none" stroke="#191970" d="M987.5978,-168.3342C975.5028,-153.3482 949.9321,-124.8933 921,-112 905.4371,-105.0645 689.312,-83.5936 574.9119,-72.6135"/>
<polygon fill="#191970" stroke="#191970" points="575.1282,-69.1183 564.84,-71.6486 574.4606,-76.0864 575.1282,-69.1183"/>
</g>
<!-- Node31&#45;&gt;Node20 -->
<g id="edge52" class="edge">
<title>Node31&#45;&gt;Node20</title>
<path fill="none" stroke="#191970" d="M1023.3645,-168.3733C1050.6827,-159.1016 1092.1796,-145.0178 1122.2738,-134.804"/>
<polygon fill="#191970" stroke="#191970" points="1123.661,-138.0294 1132.0056,-131.5011 1121.4113,-131.4008 1123.661,-138.0294"/>
</g>
<!-- Node31&#45;&gt;Node26 -->
<g id="edge57" class="edge">
<title>Node31&#45;&gt;Node26</title>
<path fill="none" stroke="#191970" d="M975.9184,-168.3733C958.2598,-159.4644 931.7947,-146.1127 911.7902,-136.0203"/>
<polygon fill="#191970" stroke="#191970" points="913.3372,-132.8806 902.8326,-131.5011 910.1842,-139.1303 913.3372,-132.8806"/>
</g>
<!-- Node31&#45;&gt;Node27 -->
<g id="edge54" class="edge">
<title>Node31&#45;&gt;Node27</title>
<path fill="none" stroke="#191970" d="M963.7131,-168.3733C931.4761,-158.4542 881.3392,-143.0275 847.8528,-132.7239"/>
<polygon fill="#191970" stroke="#191970" points="848.6204,-129.2983 838.0333,-129.7026 846.5618,-135.9887 848.6204,-129.2983"/>
</g>
<!-- Node32 -->
<g id="node33" class="node">
<title>Node32</title>
<polygon fill="none" stroke="#bfbfbf" points="968,-112.5 968,-131.5 1028,-131.5 1028,-112.5 968,-112.5"/>
<text text-anchor="middle" x="998" y="-119.5" font-family="FreeSans.ttf" font-size="10.00" fill="#000000">iostream</text>
</g>
<!-- Node31&#45;&gt;Node32 -->
<g id="edge56" class="edge">
<title>Node31&#45;&gt;Node32</title>
<path fill="none" stroke="#191970" d="M995.5226,-168.2455C995.914,-160.9382 996.4628,-150.6944 996.9444,-141.7046"/>
<polygon fill="#191970" stroke="#191970" points="1000.4434,-141.8156 997.4834,-131.6427 993.4534,-141.4411 1000.4434,-141.8156"/>
</g>
</g>
</svg>
