<?xml version="1.0" encoding="UTF-8" standalone="no"?>
<!DOCTYPE svg PUBLIC "-//W3C//DTD SVG 1.1//EN"
 "http://www.w3.org/Graphics/SVG/1.1/DTD/svg11.dtd">
<!-- Generated by graphviz version 2.40.1 (20161225.0304)
 -->
<!-- Title: LinearSystem.h Pages: 1 -->
<svg width="1081pt" height="532pt"
 viewBox="0.00 0.00 1080.50 532.00" xmlns="http://www.w3.org/2000/svg" xmlns:xlink="http://www.w3.org/1999/xlink">
<g id="graph0" class="graph" transform="scale(1 1) rotate(0) translate(4 528)">
<title>LinearSystem.h</title>
<!-- Node0 -->
<g id="node1" class="node">
<title>Node0</title>
<polygon fill="#bfbfbf" stroke="#000000" points="904,-504.5 904,-523.5 996,-523.5 996,-504.5 904,-504.5"/>
<text text-anchor="middle" x="950" y="-511.5" font-family="FreeSans.ttf" font-size="10.00" fill="#000000">LinearSystem.h</text>
</g>
<!-- Node1 -->
<g id="node2" class="node">
<title>Node1</title>
<g id="a_node2"><a xlink:href="DynamicalSystem_8h.html" target="_top" xlink:title="iDynTree/DynamicalSystem.h">
<polygon fill="none" stroke="#000000" points="788.5,-224.5 788.5,-243.5 949.5,-243.5 949.5,-224.5 788.5,-224.5"/>
<text text-anchor="middle" x="869" y="-231.5" font-family="FreeSans.ttf" font-size="10.00" fill="#000000">iDynTree/DynamicalSystem.h</text>
</a>
</g>
</g>
<!-- Node0&#45;&gt;Node1 -->
<g id="edge1" class="edge">
<title>Node0&#45;&gt;Node1</title>
<path fill="none" stroke="#191970" d="M941.5625,-504.2711C926.375,-485.723 896,-443.4461 896,-402 896,-402 896,-402 896,-346 896,-312.6538 884.5488,-275.2392 876.5614,-253.1981"/>
<polygon fill="#191970" stroke="#191970" points="879.7836,-251.823 872.9839,-243.6981 873.2327,-254.29 879.7836,-251.823"/>
</g>
<!-- Node14 -->
<g id="node15" class="node">
<title>Node14</title>
<g id="a_node15"><a xlink:href="SparsityStructure_8h.html" target="_top" xlink:title="iDynTree/SparsityStructure.h">
<polygon fill="none" stroke="#000000" points="917.5,-168.5 917.5,-187.5 1072.5,-187.5 1072.5,-168.5 917.5,-168.5"/>
<text text-anchor="middle" x="995" y="-175.5" font-family="FreeSans.ttf" font-size="10.00" fill="#000000">iDynTree/SparsityStructure.h</text>
</a>
</g>
</g>
<!-- Node0&#45;&gt;Node14 -->
<g id="edge61" class="edge">
<title>Node0&#45;&gt;Node14</title>
<path fill="none" stroke="#191970" d="M954.1315,-504.3161C961.9202,-485.1534 978,-440.8832 978,-402 978,-402 978,-402 978,-290 978,-257.192 985.2185,-219.584 990.248,-197.3624"/>
<polygon fill="#191970" stroke="#191970" points="993.6816,-198.0502 992.5643,-187.5144 986.8676,-196.4474 993.6816,-198.0502"/>
</g>
<!-- Node19 -->
<g id="node20" class="node">
<title>Node19</title>
<g id="a_node20"><a xlink:href="TimeVaryingObject_8h.html" target="_top" xlink:title="iDynTree/TimeVaryingObject.h">
<polygon fill="none" stroke="#000000" points="619,-448.5 619,-467.5 783,-467.5 783,-448.5 619,-448.5"/>
<text text-anchor="middle" x="701" y="-455.5" font-family="FreeSans.ttf" font-size="10.00" fill="#000000">iDynTree/TimeVaryingObject.h</text>
</a>
</g>
</g>
<!-- Node0&#45;&gt;Node19 -->
<g id="edge22" class="edge">
<title>Node0&#45;&gt;Node19</title>
<path fill="none" stroke="#191970" d="M907.4783,-504.4369C864.8639,-494.8529 799.1824,-480.0812 753.379,-469.78"/>
<polygon fill="#191970" stroke="#191970" points="753.8706,-466.3032 743.3463,-467.5237 752.3346,-473.1326 753.8706,-466.3032"/>
</g>
<!-- Node33 -->
<g id="node34" class="node">
<title>Node33</title>
<polygon fill="none" stroke="#bfbfbf" points="1006,-448.5 1006,-467.5 1064,-467.5 1064,-448.5 1006,-448.5"/>
<text text-anchor="middle" x="1035" y="-455.5" font-family="FreeSans.ttf" font-size="10.00" fill="#000000">memory</text>
</g>
<!-- Node0&#45;&gt;Node33 -->
<g id="edge62" class="edge">
<title>Node0&#45;&gt;Node33</title>
<path fill="none" stroke="#191970" d="M964.8059,-504.2455C977.7256,-495.7337 996.6931,-483.2375 1011.6552,-473.3801"/>
<polygon fill="#191970" stroke="#191970" points="1013.9387,-476.067 1020.3638,-467.6427 1010.0876,-470.2216 1013.9387,-476.067"/>
</g>
<!-- Node2 -->
<g id="node3" class="node">
<title>Node2</title>
<g id="a_node3"><a xlink:href="VectorDynSize_8h.html" target="_top" xlink:title="iDynTree/Core/VectorDynSize.h">
<polygon fill="none" stroke="#000000" points="732.5,-168.5 732.5,-187.5 899.5,-187.5 899.5,-168.5 732.5,-168.5"/>
<text text-anchor="middle" x="816" y="-175.5" font-family="FreeSans.ttf" font-size="10.00" fill="#000000">iDynTree/Core/VectorDynSize.h</text>
</a>
</g>
</g>
<!-- Node1&#45;&gt;Node2 -->
<g id="edge2" class="edge">
<title>Node1&#45;&gt;Node2</title>
<path fill="none" stroke="#191970" d="M859.7681,-224.2455C852.1683,-216.2155 841.2123,-204.6394 832.1632,-195.0781"/>
<polygon fill="#191970" stroke="#191970" points="834.542,-192.4998 825.1261,-187.6427 829.4579,-197.3115 834.542,-192.4998"/>
</g>
<!-- Node1&#45;&gt;Node14 -->
<g id="edge14" class="edge">
<title>Node1&#45;&gt;Node14</title>
<path fill="none" stroke="#191970" d="M890.6602,-224.3733C910.9772,-215.3435 941.564,-201.7494 964.375,-191.6111"/>
<polygon fill="#191970" stroke="#191970" points="965.9059,-194.7609 973.6225,-187.5011 963.0628,-188.3642 965.9059,-194.7609"/>
</g>
<!-- Node3 -->
<g id="node4" class="node">
<title>Node3</title>
<g id="a_node4"><a xlink:href="Span_8h.html" target="_top" xlink:title="iDynTree/Core/Span.h">
<polygon fill="none" stroke="#000000" points="629.5,-56.5 629.5,-75.5 750.5,-75.5 750.5,-56.5 629.5,-56.5"/>
<text text-anchor="middle" x="690" y="-63.5" font-family="FreeSans.ttf" font-size="10.00" fill="#000000">iDynTree/Core/Span.h</text>
</a>
</g>
</g>
<!-- Node2&#45;&gt;Node3 -->
<g id="edge3" class="edge">
<title>Node2&#45;&gt;Node3</title>
<path fill="none" stroke="#191970" d="M771.6139,-168.4267C749.9685,-161.6333 725.1795,-150.3531 709,-132 697.8008,-119.2963 693.18,-100.3732 691.2853,-86.0422"/>
<polygon fill="#191970" stroke="#191970" points="694.7345,-85.3514 690.2767,-75.7401 687.7678,-86.0335 694.7345,-85.3514"/>
</g>
<!-- Node13 -->
<g id="node14" class="node">
<title>Node13</title>
<polygon fill="none" stroke="#bfbfbf" points="580,-112.5 580,-131.5 624,-131.5 624,-112.5 580,-112.5"/>
<text text-anchor="middle" x="602" y="-119.5" font-family="FreeSans.ttf" font-size="10.00" fill="#000000">string</text>
</g>
<!-- Node2&#45;&gt;Node13 -->
<g id="edge13" class="edge">
<title>Node2&#45;&gt;Node13</title>
<path fill="none" stroke="#191970" d="M778.0993,-168.4165C742.0279,-159.2456 686.2481,-144.9343 638,-132 636.7313,-131.6599 635.438,-131.311 634.132,-130.9569"/>
<polygon fill="#191970" stroke="#191970" points="634.6371,-127.4662 624.0675,-128.1977 632.7863,-134.2171 634.6371,-127.4662"/>
</g>
<!-- Node4 -->
<g id="node5" class="node">
<title>Node4</title>
<polygon fill="none" stroke="#bfbfbf" points="281,-.5 281,-19.5 333,-19.5 333,-.5 281,-.5"/>
<text text-anchor="middle" x="307" y="-7.5" font-family="FreeSans.ttf" font-size="10.00" fill="#000000">cassert</text>
</g>
<!-- Node3&#45;&gt;Node4 -->
<g id="edge4" class="edge">
<title>Node3&#45;&gt;Node4</title>
<path fill="none" stroke="#191970" d="M629.2845,-60.3755C559.8798,-53.381 443.0715,-39.8836 344,-20 343.6697,-19.9337 343.338,-19.8661 343.0051,-19.7974"/>
<polygon fill="#191970" stroke="#191970" points="343.7058,-16.3672 333.1752,-17.5322 342.1339,-23.1884 343.7058,-16.3672"/>
</g>
<!-- Node5 -->
<g id="node6" class="node">
<title>Node5</title>
<polygon fill="none" stroke="#bfbfbf" points="803,-.5 803,-19.5 867,-19.5 867,-.5 803,-.5"/>
<text text-anchor="middle" x="835" y="-7.5" font-family="FreeSans.ttf" font-size="10.00" fill="#000000">algorithm</text>
</g>
<!-- Node3&#45;&gt;Node5 -->
<g id="edge5" class="edge">
<title>Node3&#45;&gt;Node5</title>
<path fill="none" stroke="#191970" d="M714.9264,-56.3733C738.6202,-47.2226 774.4511,-33.3844 800.8068,-23.2057"/>
<polygon fill="#191970" stroke="#191970" points="802.3314,-26.3689 810.3989,-19.5011 799.8094,-19.8389 802.3314,-26.3689"/>
</g>
<!-- Node6 -->
<g id="node7" class="node">
<title>Node6</title>
<polygon fill="none" stroke="#bfbfbf" points="885,-.5 885,-19.5 927,-19.5 927,-.5 885,-.5"/>
<text text-anchor="middle" x="906" y="-7.5" font-family="FreeSans.ttf" font-size="10.00" fill="#000000">array</text>
</g>
<!-- Node3&#45;&gt;Node6 -->
<g id="edge6" class="edge">
<title>Node3&#45;&gt;Node6</title>
<path fill="none" stroke="#191970" d="M732.7326,-56.4475C768.4535,-48.2352 820.9165,-35.6486 875.0034,-20.1368"/>
<polygon fill="#191970" stroke="#191970" points="876.1282,-23.4549 884.76,-17.3114 874.1811,-16.7311 876.1282,-23.4549"/>
</g>
<!-- Node7 -->
<g id="node8" class="node">
<title>Node7</title>
<polygon fill="none" stroke="#bfbfbf" points="451.5,-.5 451.5,-19.5 504.5,-19.5 504.5,-.5 451.5,-.5"/>
<text text-anchor="middle" x="478" y="-7.5" font-family="FreeSans.ttf" font-size="10.00" fill="#000000">cstddef</text>
</g>
<!-- Node3&#45;&gt;Node7 -->
<g id="edge7" class="edge">
<title>Node3&#45;&gt;Node7</title>
<path fill="none" stroke="#191970" d="M652.2943,-56.4804C618.5151,-47.8899 567.3712,-34.7311 514.6026,-20.3989"/>
<polygon fill="#191970" stroke="#191970" points="515.3029,-16.9622 504.7345,-17.7099 513.4625,-23.7159 515.3029,-16.9622"/>
</g>
<!-- Node8 -->
<g id="node9" class="node">
<title>Node8</title>
<polygon fill="none" stroke="#bfbfbf" points="522.5,-.5 522.5,-19.5 575.5,-19.5 575.5,-.5 522.5,-.5"/>
<text text-anchor="middle" x="549" y="-7.5" font-family="FreeSans.ttf" font-size="10.00" fill="#000000">iterator</text>
</g>
<!-- Node3&#45;&gt;Node8 -->
<g id="edge8" class="edge">
<title>Node3&#45;&gt;Node8</title>
<path fill="none" stroke="#191970" d="M665.7612,-56.3733C642.7211,-47.2226 607.8786,-33.3844 582.2499,-23.2057"/>
<polygon fill="#191970" stroke="#191970" points="583.5082,-19.9395 572.9225,-19.5011 580.9244,-26.4452 583.5082,-19.9395"/>
</g>
<!-- Node9 -->
<g id="node10" class="node">
<title>Node9</title>
<polygon fill="none" stroke="#bfbfbf" points="594,-.5 594,-19.5 638,-19.5 638,-.5 594,-.5"/>
<text text-anchor="middle" x="616" y="-7.5" font-family="FreeSans.ttf" font-size="10.00" fill="#000000">limits</text>
</g>
<!-- Node3&#45;&gt;Node9 -->
<g id="edge9" class="edge">
<title>Node3&#45;&gt;Node9</title>
<path fill="none" stroke="#191970" d="M677.1102,-56.2455C666.0746,-47.8943 649.9708,-35.7076 637.0647,-25.9408"/>
<polygon fill="#191970" stroke="#191970" points="638.8283,-22.8862 628.7421,-19.6427 634.6041,-28.4681 638.8283,-22.8862"/>
</g>
<!-- Node10 -->
<g id="node11" class="node">
<title>Node10</title>
<polygon fill="none" stroke="#bfbfbf" points="656.5,-.5 656.5,-19.5 721.5,-19.5 721.5,-.5 656.5,-.5"/>
<text text-anchor="middle" x="689" y="-7.5" font-family="FreeSans.ttf" font-size="10.00" fill="#000000">stdexcept</text>
</g>
<!-- Node3&#45;&gt;Node10 -->
<g id="edge10" class="edge">
<title>Node3&#45;&gt;Node10</title>
<path fill="none" stroke="#191970" d="M689.8258,-56.2455C689.6953,-48.9382 689.5124,-38.6944 689.3519,-29.7046"/>
<polygon fill="#191970" stroke="#191970" points="692.8503,-29.5786 689.1722,-19.6427 685.8514,-29.7036 692.8503,-29.5786"/>
</g>
<!-- Node11 -->
<g id="node12" class="node">
<title>Node11</title>
<polygon fill="none" stroke="#bfbfbf" points="945.5,-.5 945.5,-19.5 1014.5,-19.5 1014.5,-.5 945.5,-.5"/>
<text text-anchor="middle" x="980" y="-7.5" font-family="FreeSans.ttf" font-size="10.00" fill="#000000">type_traits</text>
</g>
<!-- Node3&#45;&gt;Node11 -->
<g id="edge11" class="edge">
<title>Node3&#45;&gt;Node11</title>
<path fill="none" stroke="#191970" d="M744.3484,-56.4591C792.0315,-47.9475 863.4914,-34.8523 935.3069,-20.082"/>
<polygon fill="#191970" stroke="#191970" points="936.356,-23.4392 945.4403,-17.987 934.9387,-16.5841 936.356,-23.4392"/>
</g>
<!-- Node12 -->
<g id="node13" class="node">
<title>Node12</title>
<polygon fill="none" stroke="#bfbfbf" points="739.5,-.5 739.5,-19.5 784.5,-19.5 784.5,-.5 739.5,-.5"/>
<text text-anchor="middle" x="762" y="-7.5" font-family="FreeSans.ttf" font-size="10.00" fill="#000000">utility</text>
</g>
<!-- Node3&#45;&gt;Node12 -->
<g id="edge12" class="edge">
<title>Node3&#45;&gt;Node12</title>
<path fill="none" stroke="#191970" d="M702.5414,-56.2455C713.2787,-47.8943 728.9473,-35.7076 741.5047,-25.9408"/>
<polygon fill="#191970" stroke="#191970" points="743.8575,-28.5449 749.6023,-19.6427 739.5599,-23.0194 743.8575,-28.5449"/>
</g>
<!-- Node14&#45;&gt;Node7 -->
<g id="edge19" class="edge">
<title>Node14&#45;&gt;Node7</title>
<path fill="none" stroke="#191970" d="M972.4026,-168.4448C938.3712,-154.3684 871.6934,-128.0008 813,-112 728.815,-89.0498 703.1047,-102.5975 620,-76 577.847,-62.509 531.8784,-39.4843 503.9957,-24.5083"/>
<polygon fill="#191970" stroke="#191970" points="505.3807,-21.2774 494.9234,-19.5755 502.0369,-27.4272 505.3807,-21.2774"/>
</g>
<!-- Node14&#45;&gt;Node13 -->
<g id="edge21" class="edge">
<title>Node14&#45;&gt;Node13</title>
<path fill="none" stroke="#191970" d="M917.1982,-168.5742C820.4409,-156.7584 664.6827,-137.3962 638,-132 636.7483,-131.7469 635.4762,-131.4735 634.1942,-131.1846"/>
<polygon fill="#191970" stroke="#191970" points="634.8975,-127.753 624.3488,-128.7404 633.2109,-134.5468 634.8975,-127.753"/>
</g>
<!-- Node15 -->
<g id="node16" class="node">
<title>Node15</title>
<g id="a_node16"><a xlink:href="Utils_8h.html" target="_top" xlink:title="iDynTree/Core/Utils.h">
<polygon fill="none" stroke="#000000" points="380.5,-56.5 380.5,-75.5 499.5,-75.5 499.5,-56.5 380.5,-56.5"/>
<text text-anchor="middle" x="440" y="-63.5" font-family="FreeSans.ttf" font-size="10.00" fill="#000000">iDynTree/Core/Utils.h</text>
</a>
</g>
</g>
<!-- Node14&#45;&gt;Node15 -->
<g id="edge15" class="edge">
<title>Node14&#45;&gt;Node15</title>
<path fill="none" stroke="#191970" d="M923.5345,-168.4856C865.4625,-160.2799 781.5741,-147.3472 709,-132 674.8279,-124.7737 666.8792,-120.494 633,-112 585.0004,-99.9659 530.0935,-86.9519 491.1479,-77.8476"/>
<polygon fill="#191970" stroke="#191970" points="491.6397,-74.3684 481.1059,-75.5041 490.0488,-81.1853 491.6397,-74.3684"/>
</g>
<!-- Node17 -->
<g id="node18" class="node">
<title>Node17</title>
<polygon fill="none" stroke="#bfbfbf" points="971.5,-112.5 971.5,-131.5 1018.5,-131.5 1018.5,-112.5 971.5,-112.5"/>
<text text-anchor="middle" x="995" y="-119.5" font-family="FreeSans.ttf" font-size="10.00" fill="#000000">vector</text>
</g>
<!-- Node14&#45;&gt;Node17 -->
<g id="edge18" class="edge">
<title>Node14&#45;&gt;Node17</title>
<path fill="none" stroke="#191970" d="M995,-168.2455C995,-160.9382 995,-150.6944 995,-141.7046"/>
<polygon fill="#191970" stroke="#191970" points="998.5001,-141.6426 995,-131.6427 991.5001,-141.6427 998.5001,-141.6426"/>
</g>
<!-- Node18 -->
<g id="node19" class="node">
<title>Node18</title>
<polygon fill="none" stroke="#bfbfbf" points="718,-112.5 718,-131.5 804,-131.5 804,-112.5 718,-112.5"/>
<text text-anchor="middle" x="761" y="-119.5" font-family="FreeSans.ttf" font-size="10.00" fill="#000000">unordered_set</text>
</g>
<!-- Node14&#45;&gt;Node18 -->
<g id="edge20" class="edge">
<title>Node14&#45;&gt;Node18</title>
<path fill="none" stroke="#191970" d="M955.0398,-168.4369C915.1608,-158.8932 853.7861,-144.2052 810.7672,-133.9101"/>
<polygon fill="#191970" stroke="#191970" points="811.3354,-130.4473 800.7953,-131.5237 809.7061,-137.2551 811.3354,-130.4473"/>
</g>
<!-- Node15&#45;&gt;Node7 -->
<g id="edge16" class="edge">
<title>Node15&#45;&gt;Node7</title>
<path fill="none" stroke="#191970" d="M446.6191,-56.2455C451.9046,-48.4564 459.4541,-37.3308 465.8238,-27.9439"/>
<polygon fill="#191970" stroke="#191970" points="468.7379,-29.8827 471.4568,-19.6427 462.9455,-25.9522 468.7379,-29.8827"/>
</g>
<!-- Node16 -->
<g id="node17" class="node">
<title>Node16</title>
<polygon fill="none" stroke="#bfbfbf" points="353,-.5 353,-19.5 433,-19.5 433,-.5 353,-.5"/>
<text text-anchor="middle" x="393" y="-7.5" font-family="FreeSans.ttf" font-size="10.00" fill="#000000">CoreExport.h</text>
</g>
<!-- Node15&#45;&gt;Node16 -->
<g id="edge17" class="edge">
<title>Node15&#45;&gt;Node16</title>
<path fill="none" stroke="#191970" d="M431.8132,-56.2455C425.1411,-48.2958 415.5521,-36.8706 407.5747,-27.3656"/>
<polygon fill="#191970" stroke="#191970" points="410.2026,-25.0524 401.093,-19.6427 404.8408,-29.5525 410.2026,-25.0524"/>
</g>
<!-- Node19&#45;&gt;Node2 -->
<g id="edge23" class="edge">
<title>Node19&#45;&gt;Node2</title>
<path fill="none" stroke="#191970" d="M710.2188,-448.4119C726.8125,-430.0983 760,-388.1966 760,-346 760,-346 760,-346 760,-290 760,-259.4754 764.9357,-251.0915 779,-224 784.3833,-213.6303 792.3094,-203.3742 799.446,-195.1868"/>
<polygon fill="#191970" stroke="#191970" points="802.0592,-197.5153 806.196,-187.7614 796.8795,-192.8067 802.0592,-197.5153"/>
</g>
<!-- Node20 -->
<g id="node21" class="node">
<title>Node20</title>
<g id="a_node21"><a xlink:href="MatrixDynSize_8h.html" target="_top" xlink:title="iDynTree/Core/MatrixDynSize.h">
<polygon fill="none" stroke="#000000" points="434.5,-168.5 434.5,-187.5 601.5,-187.5 601.5,-168.5 434.5,-168.5"/>
<text text-anchor="middle" x="518" y="-175.5" font-family="FreeSans.ttf" font-size="10.00" fill="#000000">iDynTree/Core/MatrixDynSize.h</text>
</a>
</g>
</g>
<!-- Node19&#45;&gt;Node20 -->
<g id="edge24" class="edge">
<title>Node19&#45;&gt;Node20</title>
<path fill="none" stroke="#191970" d="M642.4187,-448.4869C593.832,-439.8071 529.247,-426.2017 507,-412 475.5229,-391.9062 455,-383.3439 455,-346 455,-346 455,-346 455,-290 455,-259.4754 458.7869,-250.4634 474,-224 480.3254,-212.9969 489.8305,-202.6085 498.3895,-194.4976"/>
<polygon fill="#191970" stroke="#191970" points="500.7961,-197.0402 505.8654,-187.7369 496.1008,-191.8484 500.7961,-197.0402"/>
</g>
<!-- Node22 -->
<g id="node23" class="node">
<title>Node22</title>
<g id="a_node23"><a xlink:href="Transform_8h.html" target="_top" xlink:title="iDynTree/Core/Transform.h">
<polygon fill="none" stroke="#000000" points="516,-392.5 516,-411.5 662,-411.5 662,-392.5 516,-392.5"/>
<text text-anchor="middle" x="589" y="-399.5" font-family="FreeSans.ttf" font-size="10.00" fill="#000000">iDynTree/Core/Transform.h</text>
</a>
</g>
</g>
<!-- Node19&#45;&gt;Node22 -->
<g id="edge31" class="edge">
<title>Node19&#45;&gt;Node22</title>
<path fill="none" stroke="#191970" d="M681.7465,-448.3733C663.9288,-439.4644 637.2253,-426.1127 617.0406,-416.0203"/>
<polygon fill="#191970" stroke="#191970" points="618.5118,-412.8428 608.0022,-411.5011 615.3813,-419.1038 618.5118,-412.8428"/>
</g>
<!-- Node20&#45;&gt;Node13 -->
<g id="edge25" class="edge">
<title>Node20&#45;&gt;Node13</title>
<path fill="none" stroke="#191970" d="M532.6317,-168.2455C545.3994,-159.7337 564.1438,-147.2375 578.9299,-137.3801"/>
<polygon fill="#191970" stroke="#191970" points="581.1569,-140.1019 587.536,-131.6427 577.274,-134.2775 581.1569,-140.1019"/>
</g>
<!-- Node21 -->
<g id="node22" class="node">
<title>Node21</title>
<g id="a_node22"><a xlink:href="MatrixView_8h.html" target="_top" xlink:title="iDynTree/Core/MatrixView.h">
<polygon fill="none" stroke="#000000" points="372.5,-112.5 372.5,-131.5 523.5,-131.5 523.5,-112.5 372.5,-112.5"/>
<text text-anchor="middle" x="448" y="-119.5" font-family="FreeSans.ttf" font-size="10.00" fill="#000000">iDynTree/Core/MatrixView.h</text>
</a>
</g>
</g>
<!-- Node20&#45;&gt;Node21 -->
<g id="edge26" class="edge">
<title>Node20&#45;&gt;Node21</title>
<path fill="none" stroke="#191970" d="M505.8069,-168.2455C495.3679,-159.8943 480.1345,-147.7076 467.926,-137.9408"/>
<polygon fill="#191970" stroke="#191970" points="470.0485,-135.1566 460.0533,-131.6427 465.6756,-140.6227 470.0485,-135.1566"/>
</g>
<!-- Node21&#45;&gt;Node3 -->
<g id="edge29" class="edge">
<title>Node21&#45;&gt;Node3</title>
<path fill="none" stroke="#191970" d="M489.3263,-112.4369C530.7427,-102.8529 594.5777,-88.0812 639.0935,-77.78"/>
<polygon fill="#191970" stroke="#191970" points="639.8907,-81.1881 648.8441,-75.5237 638.3125,-74.3683 639.8907,-81.1881"/>
</g>
<!-- Node21&#45;&gt;Node4 -->
<g id="edge27" class="edge">
<title>Node21&#45;&gt;Node4</title>
<path fill="none" stroke="#191970" d="M429.0694,-112.4984C412.9124,-103.9766 389.4356,-90.595 371,-76 352.5536,-61.3964 334.1309,-41.728 321.8206,-27.6694"/>
<polygon fill="#191970" stroke="#191970" points="324.1734,-25.0373 315,-19.7363 318.8654,-29.6008 324.1734,-25.0373"/>
</g>
<!-- Node21&#45;&gt;Node11 -->
<g id="edge28" class="edge">
<title>Node21&#45;&gt;Node11</title>
<path fill="none" stroke="#191970" d="M523.6491,-113.8873C586.9699,-106.3637 679.476,-93.6602 759,-76 824.8215,-61.3827 899.6671,-37.4406 943.1889,-22.7644"/>
<polygon fill="#191970" stroke="#191970" points="944.4256,-26.0408 952.77,-19.5122 942.1756,-19.4122 944.4256,-26.0408"/>
</g>
<!-- Node21&#45;&gt;Node15 -->
<g id="edge30" class="edge">
<title>Node21&#45;&gt;Node15</title>
<path fill="none" stroke="#191970" d="M446.6065,-112.2455C445.5626,-104.9382 444.0992,-94.6944 442.8149,-85.7046"/>
<polygon fill="#191970" stroke="#191970" points="446.2566,-85.0472 441.3775,-75.6427 439.327,-86.0372 446.2566,-85.0472"/>
</g>
<!-- Node22&#45;&gt;Node13 -->
<g id="edge60" class="edge">
<title>Node22&#45;&gt;Node13</title>
<path fill="none" stroke="#191970" d="M611.6413,-392.4994C645.3995,-376.641 705,-341.3689 705,-290 705,-290 705,-290 705,-234 705,-189.4711 660.3441,-155.0241 629.8393,-136.6879"/>
<polygon fill="#191970" stroke="#191970" points="631.3019,-133.4909 620.8918,-131.5213 627.8015,-139.5529 631.3019,-133.4909"/>
</g>
<!-- Node23 -->
<g id="node24" class="node">
<title>Node23</title>
<g id="a_node24"><a xlink:href="Position_8h.html" target="_top" xlink:title="iDynTree/Core/Position.h">
<polygon fill="none" stroke="#000000" points="521,-336.5 521,-355.5 657,-355.5 657,-336.5 521,-336.5"/>
<text text-anchor="middle" x="589" y="-343.5" font-family="FreeSans.ttf" font-size="10.00" fill="#000000">iDynTree/Core/Position.h</text>
</a>
</g>
</g>
<!-- Node22&#45;&gt;Node23 -->
<g id="edge32" class="edge">
<title>Node22&#45;&gt;Node23</title>
<path fill="none" stroke="#191970" d="M589,-392.2455C589,-384.9382 589,-374.6944 589,-365.7046"/>
<polygon fill="#191970" stroke="#191970" points="592.5001,-365.6426 589,-355.6427 585.5001,-365.6427 592.5001,-365.6426"/>
</g>
<!-- Node28 -->
<g id="node29" class="node">
<title>Node28</title>
<g id="a_node29"><a xlink:href="Rotation_8h.html" target="_top" xlink:title="iDynTree/Core/Rotation.h">
<polygon fill="none" stroke="#000000" points="265.5,-280.5 265.5,-299.5 402.5,-299.5 402.5,-280.5 265.5,-280.5"/>
<text text-anchor="middle" x="334" y="-287.5" font-family="FreeSans.ttf" font-size="10.00" fill="#000000">iDynTree/Core/Rotation.h</text>
</a>
</g>
</g>
<!-- Node22&#45;&gt;Node28 -->
<g id="edge58" class="edge">
<title>Node22&#45;&gt;Node28</title>
<path fill="none" stroke="#191970" d="M567.2588,-392.4509C521.9991,-372.5722 417.5242,-326.6852 365.1363,-303.6756"/>
<polygon fill="#191970" stroke="#191970" points="366.2494,-300.3418 355.6861,-299.5249 363.4344,-306.7508 366.2494,-300.3418"/>
</g>
<!-- Node31 -->
<g id="node32" class="node">
<title>Node31</title>
<g id="a_node32"><a xlink:href="MatrixFixSize_8h.html" target="_top" xlink:title="iDynTree/Core/MatrixFixSize.h">
<polygon fill="none" stroke="#000000" points=".5,-168.5 .5,-187.5 161.5,-187.5 161.5,-168.5 .5,-168.5"/>
<text text-anchor="middle" x="81" y="-175.5" font-family="FreeSans.ttf" font-size="10.00" fill="#000000">iDynTree/Core/MatrixFixSize.h</text>
</a>
</g>
</g>
<!-- Node22&#45;&gt;Node31 -->
<g id="edge59" class="edge">
<title>Node22&#45;&gt;Node31</title>
<path fill="none" stroke="#191970" d="M517.9491,-392.4892C381.4699,-372.6085 90.9022,-321.9345 32,-244 19.0593,-226.8779 38.2335,-207.0956 56.256,-193.6876"/>
<polygon fill="#191970" stroke="#191970" points="58.6826,-196.2611 64.8651,-187.6572 54.6665,-190.5277 58.6826,-196.2611"/>
</g>
<!-- Node23&#45;&gt;Node13 -->
<g id="edge57" class="edge">
<title>Node23&#45;&gt;Node13</title>
<path fill="none" stroke="#191970" d="M596.9491,-336.3707C610.5955,-319.1427 637.9778,-281.343 648,-244 658.2044,-205.9781 633.3142,-163.3114 616.303,-139.8586"/>
<polygon fill="#191970" stroke="#191970" points="618.8712,-137.4523 610.0457,-131.5905 613.2895,-141.6766 618.8712,-137.4523"/>
</g>
<!-- Node24 -->
<g id="node25" class="node">
<title>Node24</title>
<g id="a_node25"><a xlink:href="PositionRaw_8h.html" target="_top" xlink:title="iDynTree/Core/PositionRaw.h">
<polygon fill="none" stroke="#000000" points="483,-224.5 483,-243.5 639,-243.5 639,-224.5 483,-224.5"/>
<text text-anchor="middle" x="561" y="-231.5" font-family="FreeSans.ttf" font-size="10.00" fill="#000000">iDynTree/Core/PositionRaw.h</text>
</a>
</g>
</g>
<!-- Node23&#45;&gt;Node24 -->
<g id="edge33" class="edge">
<title>Node23&#45;&gt;Node24</title>
<path fill="none" stroke="#191970" d="M586.6127,-336.4509C582.0253,-318.1013 571.8977,-277.5908 565.8423,-253.3693"/>
<polygon fill="#191970" stroke="#191970" points="569.2022,-252.3774 563.3812,-243.5249 562.4112,-254.0752 569.2022,-252.3774"/>
</g>
<!-- Node23&#45;&gt;Node28 -->
<g id="edge42" class="edge">
<title>Node23&#45;&gt;Node28</title>
<path fill="none" stroke="#191970" d="M545.4537,-336.4369C501.7207,-326.8328 434.2655,-312.0191 387.3458,-301.7152"/>
<polygon fill="#191970" stroke="#191970" points="387.8847,-298.2502 377.3667,-299.5237 386.3832,-305.0872 387.8847,-298.2502"/>
</g>
<!-- Node24&#45;&gt;Node13 -->
<g id="edge41" class="edge">
<title>Node24&#45;&gt;Node13</title>
<path fill="none" stroke="#191970" d="M576.618,-224.4791C588.2472,-216.3972 603.2332,-203.6339 610,-188 616.3671,-173.2896 613.4719,-155.1166 609.4898,-141.5668"/>
<polygon fill="#191970" stroke="#191970" points="612.7255,-140.2078 606.2195,-131.8458 606.0908,-142.4399 612.7255,-140.2078"/>
</g>
<!-- Node25 -->
<g id="node26" class="node">
<title>Node25</title>
<g id="a_node26"><a xlink:href="VectorFixSize_8h.html" target="_top" xlink:title="iDynTree/Core/VectorFixSize.h">
<polygon fill="none" stroke="#000000" points="179.5,-168.5 179.5,-187.5 340.5,-187.5 340.5,-168.5 179.5,-168.5"/>
<text text-anchor="middle" x="260" y="-175.5" font-family="FreeSans.ttf" font-size="10.00" fill="#000000">iDynTree/Core/VectorFixSize.h</text>
</a>
</g>
</g>
<!-- Node24&#45;&gt;Node25 -->
<g id="edge34" class="edge">
<title>Node24&#45;&gt;Node25</title>
<path fill="none" stroke="#191970" d="M509.5983,-224.4369C457.4351,-214.7321 376.6803,-199.708 321.2354,-189.3926"/>
<polygon fill="#191970" stroke="#191970" points="321.6612,-185.9119 311.1897,-187.5237 320.3808,-192.7938 321.6612,-185.9119"/>
</g>
<!-- Node25&#45;&gt;Node3 -->
<g id="edge36" class="edge">
<title>Node25&#45;&gt;Node3</title>
<path fill="none" stroke="#191970" d="M331.0406,-168.4959C398.7828,-158.9802 495.696,-144.0587 532,-132 550.4865,-125.8596 553.2241,-119.9672 571,-112 598.0591,-99.8721 629.3608,-87.8488 653.0677,-79.1375"/>
<polygon fill="#191970" stroke="#191970" points="654.5316,-82.3292 662.7283,-75.6162 652.1343,-75.7525 654.5316,-82.3292"/>
</g>
<!-- Node25&#45;&gt;Node4 -->
<g id="edge39" class="edge">
<title>Node25&#45;&gt;Node4</title>
<path fill="none" stroke="#191970" d="M267.1359,-168.2992C273.3686,-159.3344 282.1552,-145.4125 287,-132 299.4638,-97.4949 304.1999,-54.6781 305.9712,-30.0317"/>
<polygon fill="#191970" stroke="#191970" points="309.4803,-29.9926 306.6086,-19.7944 302.4939,-29.5575 309.4803,-29.9926"/>
</g>
<!-- Node25&#45;&gt;Node13 -->
<g id="edge37" class="edge">
<title>Node25&#45;&gt;Node13</title>
<path fill="none" stroke="#191970" d="M340.6947,-168.5945C402.6749,-160.714 490.2099,-148.1603 566,-132 567.249,-131.7337 568.5188,-131.4492 569.7988,-131.1509"/>
<polygon fill="#191970" stroke="#191970" points="570.7974,-134.5087 579.6358,-128.6663 569.0831,-127.7218 570.7974,-134.5087"/>
</g>
<!-- Node25&#45;&gt;Node15 -->
<g id="edge35" class="edge">
<title>Node25&#45;&gt;Node15</title>
<path fill="none" stroke="#191970" d="M274.5773,-168.4553C294.4511,-155.4895 331.2155,-131.6708 363,-112 380.2156,-101.3456 399.8056,-89.6483 414.9176,-80.7157"/>
<polygon fill="#191970" stroke="#191970" points="416.8505,-83.6391 423.6871,-75.5451 413.2952,-77.6092 416.8505,-83.6391"/>
</g>
<!-- Node26 -->
<g id="node27" class="node">
<title>Node26</title>
<polygon fill="none" stroke="#bfbfbf" points="154,-112.5 154,-131.5 210,-131.5 210,-112.5 154,-112.5"/>
<text text-anchor="middle" x="182" y="-119.5" font-family="FreeSans.ttf" font-size="10.00" fill="#000000">sstream</text>
</g>
<!-- Node25&#45;&gt;Node26 -->
<g id="edge38" class="edge">
<title>Node25&#45;&gt;Node26</title>
<path fill="none" stroke="#191970" d="M246.4134,-168.2455C234.6695,-159.814 217.4801,-147.4729 203.8118,-137.6598"/>
<polygon fill="#191970" stroke="#191970" points="205.5954,-134.6316 195.4309,-131.6427 201.5129,-140.3179 205.5954,-134.6316"/>
</g>
<!-- Node27 -->
<g id="node28" class="node">
<title>Node27</title>
<polygon fill="none" stroke="#bfbfbf" points="228,-112.5 228,-131.5 278,-131.5 278,-112.5 228,-112.5"/>
<text text-anchor="middle" x="253" y="-119.5" font-family="FreeSans.ttf" font-size="10.00" fill="#000000">cstring</text>
</g>
<!-- Node25&#45;&gt;Node27 -->
<g id="edge40" class="edge">
<title>Node25&#45;&gt;Node27</title>
<path fill="none" stroke="#191970" d="M258.7807,-168.2455C257.8673,-160.9382 256.5868,-150.6944 255.4631,-141.7046"/>
<polygon fill="#191970" stroke="#191970" points="258.9187,-141.1313 254.2053,-131.6427 251.9728,-141.9996 258.9187,-141.1313"/>
</g>
<!-- Node28&#45;&gt;Node13 -->
<g id="edge43" class="edge">
<title>Node28&#45;&gt;Node13</title>
<path fill="none" stroke="#191970" d="M353.2338,-280.335C367.3919,-272.3374 386.1622,-259.7517 398,-244 419.5356,-215.3442 398.5218,-192.1629 425,-168 472.7746,-124.403 503.5045,-148.6561 566,-132 567.2692,-131.6617 568.5629,-131.3144 569.8693,-130.9616"/>
<polygon fill="#191970" stroke="#191970" points="571.2132,-134.2226 579.9352,-128.2079 569.3661,-127.4707 571.2132,-134.2226"/>
</g>
<!-- Node28&#45;&gt;Node25 -->
<g id="edge56" class="edge">
<title>Node28&#45;&gt;Node25</title>
<path fill="none" stroke="#191970" d="M265.193,-283.9137C182.9384,-275.9289 54.4853,-260.9279 40,-244 34.2208,-237.2463 34.3946,-230.8987 40,-224 49.2753,-212.5847 123.9407,-198.6591 183.7525,-189.14"/>
<polygon fill="#191970" stroke="#191970" points="184.6335,-192.5446 193.9684,-187.5335 183.546,-185.6296 184.6335,-192.5446"/>
</g>
<!-- Node29 -->
<g id="node30" class="node">
<title>Node29</title>
<g id="a_node30"><a xlink:href="GeomVector3_8h.html" target="_top" xlink:title="iDynTree/Core/GeomVector3.h">
<polygon fill="none" stroke="#000000" points="49.5,-224.5 49.5,-243.5 212.5,-243.5 212.5,-224.5 49.5,-224.5"/>
<text text-anchor="middle" x="131" y="-231.5" font-family="FreeSans.ttf" font-size="10.00" fill="#000000">iDynTree/Core/GeomVector3.h</text>
</a>
</g>
</g>
<!-- Node28&#45;&gt;Node29 -->
<g id="edge44" class="edge">
<title>Node28&#45;&gt;Node29</title>
<path fill="none" stroke="#191970" d="M299.1031,-280.3733C264.9089,-270.9404 212.6585,-256.5265 175.4958,-246.2747"/>
<polygon fill="#191970" stroke="#191970" points="176.0123,-242.7865 165.4416,-243.5011 174.1507,-249.5345 176.0123,-242.7865"/>
</g>
<!-- Node30 -->
<g id="node31" class="node">
<title>Node30</title>
<g id="a_node31"><a xlink:href="RotationRaw_8h.html" target="_top" xlink:title="iDynTree/Core/RotationRaw.h">
<polygon fill="none" stroke="#000000" points="231,-224.5 231,-243.5 389,-243.5 389,-224.5 231,-224.5"/>
<text text-anchor="middle" x="310" y="-231.5" font-family="FreeSans.ttf" font-size="10.00" fill="#000000">iDynTree/Core/RotationRaw.h</text>
</a>
</g>
</g>
<!-- Node28&#45;&gt;Node30 -->
<g id="edge46" class="edge">
<title>Node28&#45;&gt;Node30</title>
<path fill="none" stroke="#191970" d="M329.8195,-280.2455C326.619,-272.7776 322.104,-262.2427 318.1916,-253.1137"/>
<polygon fill="#191970" stroke="#191970" points="321.2888,-251.4554 314.1326,-243.6427 314.8548,-254.2129 321.2888,-251.4554"/>
</g>
<!-- Node29&#45;&gt;Node25 -->
<g id="edge45" class="edge">
<title>Node29&#45;&gt;Node25</title>
<path fill="none" stroke="#191970" d="M153.1759,-224.3733C173.9766,-215.3435 205.2917,-201.7494 228.6458,-191.6111"/>
<polygon fill="#191970" stroke="#191970" points="230.3343,-194.6938 238.1135,-187.5011 227.5468,-188.2727 230.3343,-194.6938"/>
</g>
<!-- Node30&#45;&gt;Node13 -->
<g id="edge55" class="edge">
<title>Node30&#45;&gt;Node13</title>
<path fill="none" stroke="#191970" d="M319.1917,-224.2099C333.5107,-209.5827 362.6633,-182.2256 393,-168 464.1063,-134.6565 489.6789,-150.5199 566,-132 567.2765,-131.6902 568.5763,-131.3669 569.8878,-131.0341"/>
<polygon fill="#191970" stroke="#191970" points="571.2032,-134.3066 579.9752,-128.365 569.4126,-127.5395 571.2032,-134.3066"/>
</g>
<!-- Node30&#45;&gt;Node31 -->
<g id="edge47" class="edge">
<title>Node30&#45;&gt;Node31</title>
<path fill="none" stroke="#191970" d="M270.8937,-224.4369C231.8668,-214.8932 171.8035,-200.2052 129.7038,-189.9101"/>
<polygon fill="#191970" stroke="#191970" points="130.4902,-186.4993 119.945,-187.5237 128.8274,-193.299 130.4902,-186.4993"/>
</g>
<!-- Node31&#45;&gt;Node4 -->
<g id="edge50" class="edge">
<title>Node31&#45;&gt;Node4</title>
<path fill="none" stroke="#191970" d="M83.9003,-168.3681C88.5119,-154.4315 98.6985,-128.5089 115,-112 159.9308,-66.4978 229.4814,-36.5489 271.3874,-21.4957"/>
<polygon fill="#191970" stroke="#191970" points="272.6251,-24.7707 280.9062,-18.1621 270.3113,-18.1642 272.6251,-24.7707"/>
</g>
<!-- Node31&#45;&gt;Node13 -->
<g id="edge52" class="edge">
<title>Node31&#45;&gt;Node13</title>
<path fill="none" stroke="#191970" d="M161.5252,-168.9056C164.385,-168.5975 167.2168,-168.2947 170,-168 330.7835,-150.9732 371.4901,-151.4371 532,-132 544.4423,-130.4933 558.0936,-128.5979 570.0108,-126.8635"/>
<polygon fill="#191970" stroke="#191970" points="570.5813,-130.3173 579.9631,-125.3945 569.5591,-123.3923 570.5813,-130.3173"/>
</g>
<!-- Node31&#45;&gt;Node15 -->
<g id="edge48" class="edge">
<title>Node31&#45;&gt;Node15</title>
<path fill="none" stroke="#191970" d="M87.1509,-168.4787C97.2675,-153.6909 118.92,-125.5025 145,-112 183.1379,-92.2547 295.5034,-78.798 370.0239,-71.7618"/>
<polygon fill="#191970" stroke="#191970" points="370.6419,-75.2196 380.2762,-70.8116 369.9959,-68.2495 370.6419,-75.2196"/>
</g>
<!-- Node31&#45;&gt;Node21 -->
<g id="edge49" class="edge">
<title>Node31&#45;&gt;Node21</title>
<path fill="none" stroke="#191970" d="M143.6725,-168.4369C207.9332,-158.6314 307.7818,-143.3957 375.4314,-133.0731"/>
<polygon fill="#191970" stroke="#191970" points="376.2283,-136.4921 385.5859,-131.5237 375.1724,-129.5722 376.2283,-136.4921"/>
</g>
<!-- Node31&#45;&gt;Node26 -->
<g id="edge54" class="edge">
<title>Node31&#45;&gt;Node26</title>
<path fill="none" stroke="#191970" d="M98.5929,-168.2455C114.379,-159.4928 137.7639,-146.527 155.7587,-136.5496"/>
<polygon fill="#191970" stroke="#191970" points="157.5603,-139.5528 164.6087,-131.6427 154.1659,-133.4308 157.5603,-139.5528"/>
</g>
<!-- Node31&#45;&gt;Node27 -->
<g id="edge51" class="edge">
<title>Node31&#45;&gt;Node27</title>
<path fill="none" stroke="#191970" d="M110.5679,-168.3733C140.3822,-158.6663 186.3974,-143.6846 218.0112,-133.3917"/>
<polygon fill="#191970" stroke="#191970" points="219.3054,-136.6512 227.7305,-130.2273 217.1382,-129.9951 219.3054,-136.6512"/>
</g>
<!-- Node32 -->
<g id="node33" class="node">
<title>Node32</title>
<polygon fill="none" stroke="#bfbfbf" points="0,-112.5 0,-131.5 60,-131.5 60,-112.5 0,-112.5"/>
<text text-anchor="middle" x="30" y="-119.5" font-family="FreeSans.ttf" font-size="10.00" fill="#000000">iostream</text>
</g>
<!-- Node31&#45;&gt;Node32 -->
<g id="edge53" class="edge">
<title>Node31&#45;&gt;Node32</title>
<path fill="none" stroke="#191970" d="M72.1165,-168.2455C64.8034,-160.2155 54.2609,-148.6394 45.5533,-139.0781"/>
<polygon fill="#191970" stroke="#191970" points="48.1028,-136.6795 38.7817,-131.6427 42.9273,-141.3928 48.1028,-136.6795"/>
</g>
</g>
</svg>
