<?xml version="1.0" encoding="UTF-8" standalone="no"?>
<!DOCTYPE svg PUBLIC "-//W3C//DTD SVG 1.1//EN"
 "http://www.w3.org/Graphics/SVG/1.1/DTD/svg11.dtd">
<!-- Generated by graphviz version 2.40.1 (20161225.0304)
 -->
<!-- Title: LinkTraversalsCache.h Pages: 1 -->
<svg width="227pt" height="140pt"
 viewBox="0.00 0.00 226.50 140.00" xmlns="http://www.w3.org/2000/svg" xmlns:xlink="http://www.w3.org/1999/xlink">
<g id="graph0" class="graph" transform="scale(1 1) rotate(0) translate(4 136)">
<title>LinkTraversalsCache.h</title>
<!-- Node0 -->
<g id="node1" class="node">
<title>Node0</title>
<polygon fill="#bfbfbf" stroke="#000000" points="16,-112.5 16,-131.5 141,-131.5 141,-112.5 16,-112.5"/>
<text text-anchor="middle" x="78.5" y="-119.5" font-family="FreeSans.ttf" font-size="10.00" fill="#000000">LinkTraversalsCache.h</text>
</g>
<!-- Node1 -->
<g id="node2" class="node">
<title>Node1</title>
<polygon fill="none" stroke="#bfbfbf" points="0,-56.5 0,-75.5 47,-75.5 47,-56.5 0,-56.5"/>
<text text-anchor="middle" x="23.5" y="-63.5" font-family="FreeSans.ttf" font-size="10.00" fill="#000000">vector</text>
</g>
<!-- Node0&#45;&gt;Node1 -->
<g id="edge1" class="edge">
<title>Node0&#45;&gt;Node1</title>
<path fill="none" stroke="#191970" d="M68.9197,-112.2455C60.9542,-104.1352 49.4359,-92.4075 39.9921,-82.7919"/>
<polygon fill="#191970" stroke="#191970" points="42.4747,-80.3247 32.9705,-75.6427 37.4805,-85.2297 42.4747,-80.3247"/>
</g>
<!-- Node2 -->
<g id="node3" class="node">
<title>Node2</title>
<g id="a_node3"><a xlink:href="Indices_8h.html" target="_top" xlink:title="iDynTree/Model/Indices.h">
<polygon fill="none" stroke="#000000" points="65.5,-56.5 65.5,-75.5 203.5,-75.5 203.5,-56.5 65.5,-56.5"/>
<text text-anchor="middle" x="134.5" y="-63.5" font-family="FreeSans.ttf" font-size="10.00" fill="#000000">iDynTree/Model/Indices.h</text>
</a>
</g>
</g>
<!-- Node0&#45;&gt;Node2 -->
<g id="edge2" class="edge">
<title>Node0&#45;&gt;Node2</title>
<path fill="none" stroke="#191970" d="M88.2545,-112.2455C96.3648,-104.1352 108.0925,-92.4075 117.7081,-82.7919"/>
<polygon fill="#191970" stroke="#191970" points="120.2611,-85.1887 124.8573,-75.6427 115.3113,-80.2389 120.2611,-85.1887"/>
</g>
<!-- Node3 -->
<g id="node4" class="node">
<title>Node3</title>
<polygon fill="none" stroke="#bfbfbf" points="70.5,-.5 70.5,-19.5 114.5,-19.5 114.5,-.5 70.5,-.5"/>
<text text-anchor="middle" x="92.5" y="-7.5" font-family="FreeSans.ttf" font-size="10.00" fill="#000000">string</text>
</g>
<!-- Node2&#45;&gt;Node3 -->
<g id="edge3" class="edge">
<title>Node2&#45;&gt;Node3</title>
<path fill="none" stroke="#191970" d="M127.1842,-56.2455C121.2821,-48.3761 112.8258,-37.101 105.7406,-27.6542"/>
<polygon fill="#191970" stroke="#191970" points="108.5321,-25.5427 99.732,-19.6427 102.932,-29.7427 108.5321,-25.5427"/>
</g>
<!-- Node4 -->
<g id="node5" class="node">
<title>Node4</title>
<polygon fill="none" stroke="#bfbfbf" points="132.5,-.5 132.5,-19.5 218.5,-19.5 218.5,-.5 132.5,-.5"/>
<text text-anchor="middle" x="175.5" y="-7.5" font-family="FreeSans.ttf" font-size="10.00" fill="#000000">ModelExport.h</text>
</g>
<!-- Node2&#45;&gt;Node4 -->
<g id="edge4" class="edge">
<title>Node2&#45;&gt;Node4</title>
<path fill="none" stroke="#191970" d="M141.6417,-56.2455C147.3444,-48.4564 155.49,-37.3308 162.3625,-27.9439"/>
<polygon fill="#191970" stroke="#191970" points="165.3568,-29.7789 168.4402,-19.6427 159.7087,-25.6437 165.3568,-29.7789"/>
</g>
</g>
</svg>
