<?xml version="1.0" encoding="UTF-8" standalone="no"?>
<!DOCTYPE svg PUBLIC "-//W3C//DTD SVG 1.1//EN"
 "http://www.w3.org/Graphics/SVG/1.1/DTD/svg11.dtd">
<!-- Generated by graphviz version 2.40.1 (20161225.0304)
 -->
<!-- Title: MatrixFixSize.h Pages: 1 -->
<svg width="980pt" height="196pt"
 viewBox="0.00 0.00 980.00 196.00" xmlns="http://www.w3.org/2000/svg" xmlns:xlink="http://www.w3.org/1999/xlink">
<g id="graph0" class="graph" transform="scale(1 1) rotate(0) translate(4 192)">
<title>MatrixFixSize.h</title>
<!-- Node0 -->
<g id="node1" class="node">
<title>Node0</title>
<polygon fill="#bfbfbf" stroke="#000000" points="688,-168.5 688,-187.5 778,-187.5 778,-168.5 688,-168.5"/>
<text text-anchor="middle" x="733" y="-175.5" font-family="FreeSans.ttf" font-size="10.00" fill="#000000">MatrixFixSize.h</text>
</g>
<!-- Node1 -->
<g id="node2" class="node">
<title>Node1</title>
<g id="a_node2"><a xlink:href="Utils_8h.html" target="_top" xlink:title="iDynTree/Core/Utils.h">
<polygon fill="none" stroke="#000000" points="158.5,-56.5 158.5,-75.5 277.5,-75.5 277.5,-56.5 158.5,-56.5"/>
<text text-anchor="middle" x="218" y="-63.5" font-family="FreeSans.ttf" font-size="10.00" fill="#000000">iDynTree/Core/Utils.h</text>
</a>
</g>
</g>
<!-- Node0&#45;&gt;Node1 -->
<g id="edge1" class="edge">
<title>Node0&#45;&gt;Node1</title>
<path fill="none" stroke="#191970" d="M687.5629,-169.9957C639.0153,-161.2875 559.8693,-146.6424 492,-132 411.8519,-114.7085 319.23,-91.7754 264.8049,-77.9952"/>
<polygon fill="#191970" stroke="#191970" points="265.6524,-74.5994 255.0987,-75.5321 263.9305,-81.3843 265.6524,-74.5994"/>
</g>
<!-- Node4 -->
<g id="node5" class="node">
<title>Node4</title>
<g id="a_node5"><a xlink:href="MatrixView_8h.html" target="_top" xlink:title="iDynTree/Core/MatrixView.h">
<polygon fill="none" stroke="#000000" points="500.5,-112.5 500.5,-131.5 651.5,-131.5 651.5,-112.5 500.5,-112.5"/>
<text text-anchor="middle" x="576" y="-119.5" font-family="FreeSans.ttf" font-size="10.00" fill="#000000">iDynTree/Core/MatrixView.h</text>
</a>
</g>
</g>
<!-- Node0&#45;&gt;Node4 -->
<g id="edge4" class="edge">
<title>Node0&#45;&gt;Node4</title>
<path fill="none" stroke="#191970" d="M706.0107,-168.3733C680.1301,-159.1419 640.8752,-145.1402 612.2711,-134.9375"/>
<polygon fill="#191970" stroke="#191970" points="613.2317,-131.5642 602.6371,-131.5011 610.88,-138.1573 613.2317,-131.5642"/>
</g>
<!-- Node5 -->
<g id="node6" class="node">
<title>Node5</title>
<polygon fill="none" stroke="#bfbfbf" points="681,-.5 681,-19.5 733,-19.5 733,-.5 681,-.5"/>
<text text-anchor="middle" x="707" y="-7.5" font-family="FreeSans.ttf" font-size="10.00" fill="#000000">cassert</text>
</g>
<!-- Node0&#45;&gt;Node5 -->
<g id="edge18" class="edge">
<title>Node0&#45;&gt;Node5</title>
<path fill="none" stroke="#191970" d="M723.0638,-168.4913C714.824,-159.8654 703.7233,-146.3368 699,-132 687.5958,-97.3844 695.0884,-54.3204 701.2594,-29.7131"/>
<polygon fill="#191970" stroke="#191970" points="704.7075,-30.3687 703.929,-19.8025 697.9484,-28.5479 704.7075,-30.3687"/>
</g>
<!-- Node14 -->
<g id="node15" class="node">
<title>Node14</title>
<polygon fill="none" stroke="#bfbfbf" points="708,-112.5 708,-131.5 758,-131.5 758,-112.5 708,-112.5"/>
<text text-anchor="middle" x="733" y="-119.5" font-family="FreeSans.ttf" font-size="10.00" fill="#000000">cstring</text>
</g>
<!-- Node0&#45;&gt;Node14 -->
<g id="edge19" class="edge">
<title>Node0&#45;&gt;Node14</title>
<path fill="none" stroke="#191970" d="M733,-168.2455C733,-160.9382 733,-150.6944 733,-141.7046"/>
<polygon fill="#191970" stroke="#191970" points="736.5001,-141.6426 733,-131.6427 729.5001,-141.6427 736.5001,-141.6426"/>
</g>
<!-- Node15 -->
<g id="node16" class="node">
<title>Node15</title>
<polygon fill="none" stroke="#bfbfbf" points="776,-112.5 776,-131.5 820,-131.5 820,-112.5 776,-112.5"/>
<text text-anchor="middle" x="798" y="-119.5" font-family="FreeSans.ttf" font-size="10.00" fill="#000000">string</text>
</g>
<!-- Node0&#45;&gt;Node15 -->
<g id="edge20" class="edge">
<title>Node0&#45;&gt;Node15</title>
<path fill="none" stroke="#191970" d="M744.3221,-168.2455C753.9223,-159.9746 767.8892,-147.9416 779.1695,-138.2232"/>
<polygon fill="#191970" stroke="#191970" points="781.516,-140.8214 786.8076,-131.6427 776.947,-135.5182 781.516,-140.8214"/>
</g>
<!-- Node16 -->
<g id="node17" class="node">
<title>Node16</title>
<polygon fill="none" stroke="#bfbfbf" points="838,-112.5 838,-131.5 898,-131.5 898,-112.5 838,-112.5"/>
<text text-anchor="middle" x="868" y="-119.5" font-family="FreeSans.ttf" font-size="10.00" fill="#000000">iostream</text>
</g>
<!-- Node0&#45;&gt;Node16 -->
<g id="edge21" class="edge">
<title>Node0&#45;&gt;Node16</title>
<path fill="none" stroke="#191970" d="M756.2073,-168.3733C778.1699,-159.2629 811.3332,-145.5062 835.8401,-135.3404"/>
<polygon fill="#191970" stroke="#191970" points="837.1997,-138.5657 845.0955,-131.5011 834.5176,-132.0999 837.1997,-138.5657"/>
</g>
<!-- Node17 -->
<g id="node18" class="node">
<title>Node17</title>
<polygon fill="none" stroke="#bfbfbf" points="916,-112.5 916,-131.5 972,-131.5 972,-112.5 916,-112.5"/>
<text text-anchor="middle" x="944" y="-119.5" font-family="FreeSans.ttf" font-size="10.00" fill="#000000">sstream</text>
</g>
<!-- Node0&#45;&gt;Node17 -->
<g id="edge22" class="edge">
<title>Node0&#45;&gt;Node17</title>
<path fill="none" stroke="#191970" d="M769.3408,-168.4549C802.4894,-159.7345 853.0902,-146.3884 905.8498,-132.2984"/>
<polygon fill="#191970" stroke="#191970" points="906.9654,-135.6231 915.7226,-129.6597 905.1579,-128.8605 906.9654,-135.6231"/>
</g>
<!-- Node2 -->
<g id="node3" class="node">
<title>Node2</title>
<polygon fill="none" stroke="#bfbfbf" points="98.5,-.5 98.5,-19.5 151.5,-19.5 151.5,-.5 98.5,-.5"/>
<text text-anchor="middle" x="125" y="-7.5" font-family="FreeSans.ttf" font-size="10.00" fill="#000000">cstddef</text>
</g>
<!-- Node1&#45;&gt;Node2 -->
<g id="edge2" class="edge">
<title>Node1&#45;&gt;Node2</title>
<path fill="none" stroke="#191970" d="M201.8006,-56.2455C187.3982,-47.5731 166.1268,-34.7645 149.6201,-24.825"/>
<polygon fill="#191970" stroke="#191970" points="151.386,-21.8028 141.0137,-19.6427 147.775,-27.7996 151.386,-21.8028"/>
</g>
<!-- Node3 -->
<g id="node4" class="node">
<title>Node3</title>
<polygon fill="none" stroke="#bfbfbf" points="0,-.5 0,-19.5 80,-19.5 80,-.5 0,-.5"/>
<text text-anchor="middle" x="40" y="-7.5" font-family="FreeSans.ttf" font-size="10.00" fill="#000000">CoreExport.h</text>
</g>
<!-- Node1&#45;&gt;Node3 -->
<g id="edge3" class="edge">
<title>Node1&#45;&gt;Node3</title>
<path fill="none" stroke="#191970" d="M187.4007,-56.3733C157.6739,-47.021 112.3841,-32.7725 79.8544,-22.5385"/>
<polygon fill="#191970" stroke="#191970" points="80.7895,-19.1636 70.2,-19.5011 78.6887,-25.8409 80.7895,-19.1636"/>
</g>
<!-- Node4&#45;&gt;Node1 -->
<g id="edge17" class="edge">
<title>Node4&#45;&gt;Node1</title>
<path fill="none" stroke="#191970" d="M514.8644,-112.4369C451.7997,-102.572 353.5977,-87.2108 287.5927,-76.886"/>
<polygon fill="#191970" stroke="#191970" points="288.1121,-73.4248 277.6913,-75.3372 287.0302,-80.3407 288.1121,-73.4248"/>
</g>
<!-- Node4&#45;&gt;Node5 -->
<g id="edge5" class="edge">
<title>Node4&#45;&gt;Node5</title>
<path fill="none" stroke="#191970" d="M587.169,-112.4509C609.5983,-93.2747 660.3357,-49.8962 688.0532,-26.1988"/>
<polygon fill="#191970" stroke="#191970" points="690.5329,-28.6835 695.8593,-19.5249 685.9841,-23.363 690.5329,-28.6835"/>
</g>
<!-- Node6 -->
<g id="node7" class="node">
<title>Node6</title>
<polygon fill="none" stroke="#bfbfbf" points="593.5,-.5 593.5,-19.5 662.5,-19.5 662.5,-.5 593.5,-.5"/>
<text text-anchor="middle" x="628" y="-7.5" font-family="FreeSans.ttf" font-size="10.00" fill="#000000">type_traits</text>
</g>
<!-- Node4&#45;&gt;Node6 -->
<g id="edge6" class="edge">
<title>Node4&#45;&gt;Node6</title>
<path fill="none" stroke="#191970" d="M580.4335,-112.4509C589.0297,-93.936 608.1011,-52.8591 619.3092,-28.7187"/>
<polygon fill="#191970" stroke="#191970" points="622.5411,-30.0689 623.5777,-19.5249 616.192,-27.1211 622.5411,-30.0689"/>
</g>
<!-- Node7 -->
<g id="node8" class="node">
<title>Node7</title>
<g id="a_node8"><a xlink:href="Span_8h.html" target="_top" xlink:title="iDynTree/Core/Span.h">
<polygon fill="none" stroke="#000000" points="362.5,-56.5 362.5,-75.5 483.5,-75.5 483.5,-56.5 362.5,-56.5"/>
<text text-anchor="middle" x="423" y="-63.5" font-family="FreeSans.ttf" font-size="10.00" fill="#000000">iDynTree/Core/Span.h</text>
</a>
</g>
</g>
<!-- Node4&#45;&gt;Node7 -->
<g id="edge7" class="edge">
<title>Node4&#45;&gt;Node7</title>
<path fill="none" stroke="#191970" d="M549.6984,-112.3733C524.5872,-103.1822 486.5562,-89.2624 458.7128,-79.0713"/>
<polygon fill="#191970" stroke="#191970" points="459.5522,-75.6516 448.9584,-75.5011 457.1462,-82.2251 459.5522,-75.6516"/>
</g>
<!-- Node7&#45;&gt;Node2 -->
<g id="edge11" class="edge">
<title>Node7&#45;&gt;Node2</title>
<path fill="none" stroke="#191970" d="M362.3116,-57.0581C311.2864,-49.1506 236.254,-36.6164 161.7,-19.9824"/>
<polygon fill="#191970" stroke="#191970" points="162.1884,-16.5047 151.6632,-17.7172 160.6473,-23.3329 162.1884,-16.5047"/>
</g>
<!-- Node7&#45;&gt;Node5 -->
<g id="edge8" class="edge">
<title>Node7&#45;&gt;Node5</title>
<path fill="none" stroke="#191970" d="M483.4606,-56.494C531.8191,-48.5115 601.5199,-36.1607 670.9104,-20.0978"/>
<polygon fill="#191970" stroke="#191970" points="671.7584,-23.494 680.6973,-17.8067 670.1628,-16.6783 671.7584,-23.494"/>
</g>
<!-- Node7&#45;&gt;Node6 -->
<g id="edge15" class="edge">
<title>Node7&#45;&gt;Node6</title>
<path fill="none" stroke="#191970" d="M458.2408,-56.3733C492.9194,-46.9001 545.9883,-32.4032 583.5462,-22.1435"/>
<polygon fill="#191970" stroke="#191970" points="584.4949,-25.5126 593.2191,-19.5011 582.6502,-18.7601 584.4949,-25.5126"/>
</g>
<!-- Node8 -->
<g id="node9" class="node">
<title>Node8</title>
<polygon fill="none" stroke="#bfbfbf" points="511,-.5 511,-19.5 575,-19.5 575,-.5 511,-.5"/>
<text text-anchor="middle" x="543" y="-7.5" font-family="FreeSans.ttf" font-size="10.00" fill="#000000">algorithm</text>
</g>
<!-- Node7&#45;&gt;Node8 -->
<g id="edge9" class="edge">
<title>Node7&#45;&gt;Node8</title>
<path fill="none" stroke="#191970" d="M443.6287,-56.3733C462.8919,-47.3838 491.8486,-33.8706 513.5419,-23.7471"/>
<polygon fill="#191970" stroke="#191970" points="515.0587,-26.9017 522.6405,-19.5011 512.0985,-20.5584 515.0587,-26.9017"/>
</g>
<!-- Node9 -->
<g id="node10" class="node">
<title>Node9</title>
<polygon fill="none" stroke="#bfbfbf" points="170,-.5 170,-19.5 212,-19.5 212,-.5 170,-.5"/>
<text text-anchor="middle" x="191" y="-7.5" font-family="FreeSans.ttf" font-size="10.00" fill="#000000">array</text>
</g>
<!-- Node7&#45;&gt;Node9 -->
<g id="edge10" class="edge">
<title>Node7&#45;&gt;Node9</title>
<path fill="none" stroke="#191970" d="M374.9162,-56.4335C336.0293,-48.3858 279.7039,-36.0299 222.2124,-20.1517"/>
<polygon fill="#191970" stroke="#191970" points="222.799,-16.6816 212.2259,-17.3608 220.9148,-23.4232 222.799,-16.6816"/>
</g>
<!-- Node10 -->
<g id="node11" class="node">
<title>Node10</title>
<polygon fill="none" stroke="#bfbfbf" points="230.5,-.5 230.5,-19.5 283.5,-19.5 283.5,-.5 230.5,-.5"/>
<text text-anchor="middle" x="257" y="-7.5" font-family="FreeSans.ttf" font-size="10.00" fill="#000000">iterator</text>
</g>
<!-- Node7&#45;&gt;Node10 -->
<g id="edge12" class="edge">
<title>Node7&#45;&gt;Node10</title>
<path fill="none" stroke="#191970" d="M394.4636,-56.3733C366.4801,-46.933 323.7086,-32.5041 293.3149,-22.2508"/>
<polygon fill="#191970" stroke="#191970" points="294.1154,-18.8271 283.5212,-18.9469 291.8778,-25.4599 294.1154,-18.8271"/>
</g>
<!-- Node11 -->
<g id="node12" class="node">
<title>Node11</title>
<polygon fill="none" stroke="#bfbfbf" points="302,-.5 302,-19.5 346,-19.5 346,-.5 302,-.5"/>
<text text-anchor="middle" x="324" y="-7.5" font-family="FreeSans.ttf" font-size="10.00" fill="#000000">limits</text>
</g>
<!-- Node7&#45;&gt;Node11 -->
<g id="edge13" class="edge">
<title>Node7&#45;&gt;Node11</title>
<path fill="none" stroke="#191970" d="M405.7555,-56.2455C390.4239,-47.5731 367.7801,-34.7645 350.2084,-24.825"/>
<polygon fill="#191970" stroke="#191970" points="351.4741,-21.5198 341.0469,-19.6427 348.0276,-27.6126 351.4741,-21.5198"/>
</g>
<!-- Node12 -->
<g id="node13" class="node">
<title>Node12</title>
<polygon fill="none" stroke="#bfbfbf" points="364.5,-.5 364.5,-19.5 429.5,-19.5 429.5,-.5 364.5,-.5"/>
<text text-anchor="middle" x="397" y="-7.5" font-family="FreeSans.ttf" font-size="10.00" fill="#000000">stdexcept</text>
</g>
<!-- Node7&#45;&gt;Node12 -->
<g id="edge14" class="edge">
<title>Node7&#45;&gt;Node12</title>
<path fill="none" stroke="#191970" d="M418.4711,-56.2455C414.9666,-48.6973 410.0073,-38.0158 405.7377,-28.8197"/>
<polygon fill="#191970" stroke="#191970" points="408.8627,-27.2389 401.477,-19.6427 402.5136,-30.1867 408.8627,-27.2389"/>
</g>
<!-- Node13 -->
<g id="node14" class="node">
<title>Node13</title>
<polygon fill="none" stroke="#bfbfbf" points="447.5,-.5 447.5,-19.5 492.5,-19.5 492.5,-.5 447.5,-.5"/>
<text text-anchor="middle" x="470" y="-7.5" font-family="FreeSans.ttf" font-size="10.00" fill="#000000">utility</text>
</g>
<!-- Node7&#45;&gt;Node13 -->
<g id="edge16" class="edge">
<title>Node7&#45;&gt;Node13</title>
<path fill="none" stroke="#191970" d="M431.1868,-56.2455C437.8589,-48.2958 447.4479,-36.8706 455.4253,-27.3656"/>
<polygon fill="#191970" stroke="#191970" points="458.1592,-29.5525 461.907,-19.6427 452.7974,-25.0524 458.1592,-29.5525"/>
</g>
</g>
</svg>
