<?xml version="1.0" encoding="UTF-8" standalone="no"?>
<!DOCTYPE svg PUBLIC "-//W3C//DTD SVG 1.1//EN"
 "http://www.w3.org/Graphics/SVG/1.1/DTD/svg11.dtd">
<!-- Generated by graphviz version 2.40.1 (20161225.0304)
 -->
<!-- Title: MatrixView.h Pages: 1 -->
<svg width="740pt" height="140pt"
 viewBox="0.00 0.00 740.00 140.00" xmlns="http://www.w3.org/2000/svg" xmlns:xlink="http://www.w3.org/1999/xlink">
<g id="graph0" class="graph" transform="scale(1 1) rotate(0) translate(4 136)">
<title>MatrixView.h</title>
<!-- Node0 -->
<g id="node1" class="node">
<title>Node0</title>
<polygon fill="#bfbfbf" stroke="#000000" points="176,-112.5 176,-131.5 256,-131.5 256,-112.5 176,-112.5"/>
<text text-anchor="middle" x="216" y="-119.5" font-family="FreeSans.ttf" font-size="10.00" fill="#000000">MatrixView.h</text>
</g>
<!-- Node1 -->
<g id="node2" class="node">
<title>Node1</title>
<polygon fill="none" stroke="#bfbfbf" points="0,-.5 0,-19.5 52,-19.5 52,-.5 0,-.5"/>
<text text-anchor="middle" x="26" y="-7.5" font-family="FreeSans.ttf" font-size="10.00" fill="#000000">cassert</text>
</g>
<!-- Node0&#45;&gt;Node1 -->
<g id="edge1" class="edge">
<title>Node0&#45;&gt;Node1</title>
<path fill="none" stroke="#191970" d="M199.8007,-112.4509C166.5685,-92.8615 90.4901,-48.0152 50.9282,-24.6945"/>
<polygon fill="#191970" stroke="#191970" points="52.5503,-21.5879 42.1583,-19.5249 48.9956,-27.6182 52.5503,-21.5879"/>
</g>
<!-- Node2 -->
<g id="node3" class="node">
<title>Node2</title>
<polygon fill="none" stroke="#bfbfbf" points="70.5,-.5 70.5,-19.5 139.5,-19.5 139.5,-.5 70.5,-.5"/>
<text text-anchor="middle" x="105" y="-7.5" font-family="FreeSans.ttf" font-size="10.00" fill="#000000">type_traits</text>
</g>
<!-- Node0&#45;&gt;Node2 -->
<g id="edge2" class="edge">
<title>Node0&#45;&gt;Node2</title>
<path fill="none" stroke="#191970" d="M206.5362,-112.4509C187.6951,-93.4401 145.2795,-50.6423 121.6659,-26.816"/>
<polygon fill="#191970" stroke="#191970" points="123.9651,-24.1639 114.4398,-19.5249 118.9932,-29.0914 123.9651,-24.1639"/>
</g>
<!-- Node3 -->
<g id="node4" class="node">
<title>Node3</title>
<g id="a_node4"><a xlink:href="Span_8h.html" target="_top" xlink:title="iDynTree/Core/Span.h">
<polygon fill="none" stroke="#000000" points="233.5,-56.5 233.5,-75.5 354.5,-75.5 354.5,-56.5 233.5,-56.5"/>
<text text-anchor="middle" x="294" y="-63.5" font-family="FreeSans.ttf" font-size="10.00" fill="#000000">iDynTree/Core/Span.h</text>
</a>
</g>
</g>
<!-- Node0&#45;&gt;Node3 -->
<g id="edge3" class="edge">
<title>Node0&#45;&gt;Node3</title>
<path fill="none" stroke="#191970" d="M229.5866,-112.2455C241.3305,-103.814 258.5199,-91.4729 272.1882,-81.6598"/>
<polygon fill="#191970" stroke="#191970" points="274.4871,-84.3179 280.5691,-75.6427 270.4046,-78.6316 274.4871,-84.3179"/>
</g>
<!-- Node11 -->
<g id="node12" class="node">
<title>Node11</title>
<g id="a_node12"><a xlink:href="Utils_8h.html" target="_top" xlink:title="iDynTree/Core/Utils.h">
<polygon fill="none" stroke="#000000" points="547.5,-56.5 547.5,-75.5 666.5,-75.5 666.5,-56.5 547.5,-56.5"/>
<text text-anchor="middle" x="607" y="-63.5" font-family="FreeSans.ttf" font-size="10.00" fill="#000000">iDynTree/Core/Utils.h</text>
</a>
</g>
</g>
<!-- Node0&#45;&gt;Node11 -->
<g id="edge13" class="edge">
<title>Node0&#45;&gt;Node11</title>
<path fill="none" stroke="#191970" d="M256.0064,-116.2702C322.2416,-106.7838 455.4886,-87.6998 537.4063,-75.9674"/>
<polygon fill="#191970" stroke="#191970" points="537.9772,-79.4214 547.38,-74.5389 536.9847,-72.4921 537.9772,-79.4214"/>
</g>
<!-- Node3&#45;&gt;Node1 -->
<g id="edge4" class="edge">
<title>Node3&#45;&gt;Node1</title>
<path fill="none" stroke="#191970" d="M239.1089,-56.498C193.9361,-48.3755 128.056,-35.8382 62.0483,-20.1146"/>
<polygon fill="#191970" stroke="#191970" points="62.8523,-16.7083 52.311,-17.7718 61.2147,-23.514 62.8523,-16.7083"/>
</g>
<!-- Node3&#45;&gt;Node2 -->
<g id="edge11" class="edge">
<title>Node3&#45;&gt;Node2</title>
<path fill="none" stroke="#191970" d="M261.5097,-56.3733C229.8098,-46.9807 181.4424,-32.6496 146.8714,-22.4064"/>
<polygon fill="#191970" stroke="#191970" points="147.6486,-18.9863 137.0663,-19.5011 145.6599,-25.6979 147.6486,-18.9863"/>
</g>
<!-- Node4 -->
<g id="node5" class="node">
<title>Node4</title>
<polygon fill="none" stroke="#bfbfbf" points="158,-.5 158,-19.5 222,-19.5 222,-.5 158,-.5"/>
<text text-anchor="middle" x="190" y="-7.5" font-family="FreeSans.ttf" font-size="10.00" fill="#000000">algorithm</text>
</g>
<!-- Node3&#45;&gt;Node4 -->
<g id="edge5" class="edge">
<title>Node3&#45;&gt;Node4</title>
<path fill="none" stroke="#191970" d="M275.8846,-56.2455C259.555,-47.4527 235.329,-34.4079 216.7661,-24.4125"/>
<polygon fill="#191970" stroke="#191970" points="218.3719,-21.3021 207.9078,-19.6427 215.0532,-27.4654 218.3719,-21.3021"/>
</g>
<!-- Node5 -->
<g id="node6" class="node">
<title>Node5</title>
<polygon fill="none" stroke="#bfbfbf" points="240,-.5 240,-19.5 282,-19.5 282,-.5 240,-.5"/>
<text text-anchor="middle" x="261" y="-7.5" font-family="FreeSans.ttf" font-size="10.00" fill="#000000">array</text>
</g>
<!-- Node3&#45;&gt;Node5 -->
<g id="edge6" class="edge">
<title>Node3&#45;&gt;Node5</title>
<path fill="none" stroke="#191970" d="M288.2518,-56.2455C283.7565,-48.617 277.3752,-37.7881 271.9175,-28.5267"/>
<polygon fill="#191970" stroke="#191970" points="274.7747,-26.4811 266.6823,-19.6427 268.7439,-30.035 274.7747,-26.4811"/>
</g>
<!-- Node6 -->
<g id="node7" class="node">
<title>Node6</title>
<polygon fill="none" stroke="#bfbfbf" points="580.5,-.5 580.5,-19.5 633.5,-19.5 633.5,-.5 580.5,-.5"/>
<text text-anchor="middle" x="607" y="-7.5" font-family="FreeSans.ttf" font-size="10.00" fill="#000000">cstddef</text>
</g>
<!-- Node3&#45;&gt;Node6 -->
<g id="edge7" class="edge">
<title>Node3&#45;&gt;Node6</title>
<path fill="none" stroke="#191970" d="M354.6042,-57.831C408.7608,-50.1014 490.4202,-37.3919 570.5772,-19.9016"/>
<polygon fill="#191970" stroke="#191970" points="571.333,-23.3191 580.343,-17.745 569.8235,-16.4838 571.333,-23.3191"/>
</g>
<!-- Node7 -->
<g id="node8" class="node">
<title>Node7</title>
<polygon fill="none" stroke="#bfbfbf" points="300.5,-.5 300.5,-19.5 353.5,-19.5 353.5,-.5 300.5,-.5"/>
<text text-anchor="middle" x="327" y="-7.5" font-family="FreeSans.ttf" font-size="10.00" fill="#000000">iterator</text>
</g>
<!-- Node3&#45;&gt;Node7 -->
<g id="edge8" class="edge">
<title>Node3&#45;&gt;Node7</title>
<path fill="none" stroke="#191970" d="M299.7482,-56.2455C304.2435,-48.617 310.6248,-37.7881 316.0825,-28.5267"/>
<polygon fill="#191970" stroke="#191970" points="319.2561,-30.035 321.3177,-19.6427 313.2253,-26.4811 319.2561,-30.035"/>
</g>
<!-- Node8 -->
<g id="node9" class="node">
<title>Node8</title>
<polygon fill="none" stroke="#bfbfbf" points="372,-.5 372,-19.5 416,-19.5 416,-.5 372,-.5"/>
<text text-anchor="middle" x="394" y="-7.5" font-family="FreeSans.ttf" font-size="10.00" fill="#000000">limits</text>
</g>
<!-- Node3&#45;&gt;Node8 -->
<g id="edge9" class="edge">
<title>Node3&#45;&gt;Node8</title>
<path fill="none" stroke="#191970" d="M311.4187,-56.2455C327.0485,-47.4928 350.2019,-34.527 368.0185,-24.5496"/>
<polygon fill="#191970" stroke="#191970" points="369.766,-27.5825 376.7809,-19.6427 366.3457,-21.475 369.766,-27.5825"/>
</g>
<!-- Node9 -->
<g id="node10" class="node">
<title>Node9</title>
<polygon fill="none" stroke="#bfbfbf" points="434.5,-.5 434.5,-19.5 499.5,-19.5 499.5,-.5 434.5,-.5"/>
<text text-anchor="middle" x="467" y="-7.5" font-family="FreeSans.ttf" font-size="10.00" fill="#000000">stdexcept</text>
</g>
<!-- Node3&#45;&gt;Node9 -->
<g id="edge10" class="edge">
<title>Node3&#45;&gt;Node9</title>
<path fill="none" stroke="#191970" d="M323.7398,-56.3733C352.507,-47.0613 396.27,-32.8953 427.8556,-22.671"/>
<polygon fill="#191970" stroke="#191970" points="429.2122,-25.9107 437.6483,-19.5011 427.0564,-19.251 429.2122,-25.9107"/>
</g>
<!-- Node10 -->
<g id="node11" class="node">
<title>Node10</title>
<polygon fill="none" stroke="#bfbfbf" points="517.5,-.5 517.5,-19.5 562.5,-19.5 562.5,-.5 517.5,-.5"/>
<text text-anchor="middle" x="540" y="-7.5" font-family="FreeSans.ttf" font-size="10.00" fill="#000000">utility</text>
</g>
<!-- Node3&#45;&gt;Node10 -->
<g id="edge12" class="edge">
<title>Node3&#45;&gt;Node10</title>
<path fill="none" stroke="#191970" d="M344.8975,-56.4174C386.2397,-48.3269 446.2198,-35.8966 507.5041,-19.9485"/>
<polygon fill="#191970" stroke="#191970" points="508.5678,-23.2878 517.3483,-17.3589 506.7869,-16.5182 508.5678,-23.2878"/>
</g>
<!-- Node11&#45;&gt;Node6 -->
<g id="edge14" class="edge">
<title>Node11&#45;&gt;Node6</title>
<path fill="none" stroke="#191970" d="M607,-56.2455C607,-48.9382 607,-38.6944 607,-29.7046"/>
<polygon fill="#191970" stroke="#191970" points="610.5001,-29.6426 607,-19.6427 603.5001,-29.6427 610.5001,-29.6426"/>
</g>
<!-- Node12 -->
<g id="node13" class="node">
<title>Node12</title>
<polygon fill="none" stroke="#bfbfbf" points="652,-.5 652,-19.5 732,-19.5 732,-.5 652,-.5"/>
<text text-anchor="middle" x="692" y="-7.5" font-family="FreeSans.ttf" font-size="10.00" fill="#000000">CoreExport.h</text>
</g>
<!-- Node11&#45;&gt;Node12 -->
<g id="edge15" class="edge">
<title>Node11&#45;&gt;Node12</title>
<path fill="none" stroke="#191970" d="M621.8059,-56.2455C634.7256,-47.7337 653.6931,-35.2375 668.6552,-25.3801"/>
<polygon fill="#191970" stroke="#191970" points="670.9387,-28.067 677.3638,-19.6427 667.0876,-22.2216 670.9387,-28.067"/>
</g>
</g>
</svg>
