<?xml version="1.0" encoding="UTF-8" standalone="no"?>
<!DOCTYPE svg PUBLIC "-//W3C//DTD SVG 1.1//EN"
 "http://www.w3.org/Graphics/SVG/1.1/DTD/svg11.dtd">
<!-- Generated by graphviz version 2.40.1 (20161225.0304)
 -->
<!-- Title: MultiBodySystem.h Pages: 1 -->
<svg width="871pt" height="252pt"
 viewBox="0.00 0.00 871.00 252.00" xmlns="http://www.w3.org/2000/svg" xmlns:xlink="http://www.w3.org/1999/xlink">
<g id="graph0" class="graph" transform="scale(1 1) rotate(0) translate(4 248)">
<title>MultiBodySystem.h</title>
<!-- Node0 -->
<g id="node1" class="node">
<title>Node0</title>
<polygon fill="#bfbfbf" stroke="#000000" points="488.5,-224.5 488.5,-243.5 599.5,-243.5 599.5,-224.5 488.5,-224.5"/>
<text text-anchor="middle" x="544" y="-231.5" font-family="FreeSans.ttf" font-size="10.00" fill="#000000">MultiBodySystem.h</text>
</g>
<!-- Node1 -->
<g id="node2" class="node">
<title>Node1</title>
<g id="a_node2"><a xlink:href="DynamicalSystem_8h.html" target="_top" xlink:title="iDynTree/DynamicalSystem.h">
<polygon fill="none" stroke="#000000" points="463.5,-168.5 463.5,-187.5 624.5,-187.5 624.5,-168.5 463.5,-168.5"/>
<text text-anchor="middle" x="544" y="-175.5" font-family="FreeSans.ttf" font-size="10.00" fill="#000000">iDynTree/DynamicalSystem.h</text>
</a>
</g>
</g>
<!-- Node0&#45;&gt;Node1 -->
<g id="edge1" class="edge">
<title>Node0&#45;&gt;Node1</title>
<path fill="none" stroke="#191970" d="M544,-224.2455C544,-216.9382 544,-206.6944 544,-197.7046"/>
<polygon fill="#191970" stroke="#191970" points="547.5001,-197.6426 544,-187.6427 540.5001,-197.6427 547.5001,-197.6426"/>
</g>
<!-- Node2 -->
<g id="node3" class="node">
<title>Node2</title>
<g id="a_node3"><a xlink:href="VectorDynSize_8h.html" target="_top" xlink:title="iDynTree/Core/VectorDynSize.h">
<polygon fill="none" stroke="#000000" points="371.5,-112.5 371.5,-131.5 538.5,-131.5 538.5,-112.5 371.5,-112.5"/>
<text text-anchor="middle" x="455" y="-119.5" font-family="FreeSans.ttf" font-size="10.00" fill="#000000">iDynTree/Core/VectorDynSize.h</text>
</a>
</g>
</g>
<!-- Node1&#45;&gt;Node2 -->
<g id="edge2" class="edge">
<title>Node1&#45;&gt;Node2</title>
<path fill="none" stroke="#191970" d="M528.4974,-168.2455C514.842,-159.6534 494.7343,-147.0014 479.0011,-137.1018"/>
<polygon fill="#191970" stroke="#191970" points="480.6529,-134.006 470.325,-131.6427 476.9249,-139.9307 480.6529,-134.006"/>
</g>
<!-- Node14 -->
<g id="node15" class="node">
<title>Node14</title>
<g id="a_node15"><a xlink:href="SparsityStructure_8h.html" target="_top" xlink:title="iDynTree/SparsityStructure.h">
<polygon fill="none" stroke="#000000" points="556.5,-112.5 556.5,-131.5 711.5,-131.5 711.5,-112.5 556.5,-112.5"/>
<text text-anchor="middle" x="634" y="-119.5" font-family="FreeSans.ttf" font-size="10.00" fill="#000000">iDynTree/SparsityStructure.h</text>
</a>
</g>
</g>
<!-- Node1&#45;&gt;Node14 -->
<g id="edge14" class="edge">
<title>Node1&#45;&gt;Node14</title>
<path fill="none" stroke="#191970" d="M559.6768,-168.2455C573.4856,-159.6534 593.8193,-147.0014 609.7292,-137.1018"/>
<polygon fill="#191970" stroke="#191970" points="611.8613,-139.8974 618.5028,-131.6427 608.1632,-133.954 611.8613,-139.8974"/>
</g>
<!-- Node3 -->
<g id="node4" class="node">
<title>Node3</title>
<g id="a_node4"><a xlink:href="Span_8h.html" target="_top" xlink:title="iDynTree/Core/Span.h">
<polygon fill="none" stroke="#000000" points="289.5,-56.5 289.5,-75.5 410.5,-75.5 410.5,-56.5 289.5,-56.5"/>
<text text-anchor="middle" x="350" y="-63.5" font-family="FreeSans.ttf" font-size="10.00" fill="#000000">iDynTree/Core/Span.h</text>
</a>
</g>
</g>
<!-- Node2&#45;&gt;Node3 -->
<g id="edge3" class="edge">
<title>Node2&#45;&gt;Node3</title>
<path fill="none" stroke="#191970" d="M436.7104,-112.2455C420.2238,-103.4527 395.7648,-90.4079 377.0235,-80.4125"/>
<polygon fill="#191970" stroke="#191970" points="378.5506,-77.2604 368.08,-75.6427 375.2565,-83.4368 378.5506,-77.2604"/>
</g>
<!-- Node13 -->
<g id="node14" class="node">
<title>Node13</title>
<polygon fill="none" stroke="#bfbfbf" points="459,-56.5 459,-75.5 503,-75.5 503,-56.5 459,-56.5"/>
<text text-anchor="middle" x="481" y="-63.5" font-family="FreeSans.ttf" font-size="10.00" fill="#000000">string</text>
</g>
<!-- Node2&#45;&gt;Node13 -->
<g id="edge13" class="edge">
<title>Node2&#45;&gt;Node13</title>
<path fill="none" stroke="#191970" d="M459.5289,-112.2455C463.0334,-104.6973 467.9927,-94.0158 472.2623,-84.8197"/>
<polygon fill="#191970" stroke="#191970" points="475.4864,-86.1867 476.523,-75.6427 469.1373,-83.2389 475.4864,-86.1867"/>
</g>
<!-- Node4 -->
<g id="node5" class="node">
<title>Node4</title>
<polygon fill="none" stroke="#bfbfbf" points="0,-.5 0,-19.5 52,-19.5 52,-.5 0,-.5"/>
<text text-anchor="middle" x="26" y="-7.5" font-family="FreeSans.ttf" font-size="10.00" fill="#000000">cassert</text>
</g>
<!-- Node3&#45;&gt;Node4 -->
<g id="edge4" class="edge">
<title>Node3&#45;&gt;Node4</title>
<path fill="none" stroke="#191970" d="M289.2667,-58.4991C232.7464,-51.0293 146.0367,-38.326 62.226,-20.0721"/>
<polygon fill="#191970" stroke="#191970" points="62.8059,-16.6159 52.2865,-17.8778 61.2968,-23.4513 62.8059,-16.6159"/>
</g>
<!-- Node5 -->
<g id="node6" class="node">
<title>Node5</title>
<polygon fill="none" stroke="#bfbfbf" points="70,-.5 70,-19.5 134,-19.5 134,-.5 70,-.5"/>
<text text-anchor="middle" x="102" y="-7.5" font-family="FreeSans.ttf" font-size="10.00" fill="#000000">algorithm</text>
</g>
<!-- Node3&#45;&gt;Node5 -->
<g id="edge5" class="edge">
<title>Node3&#45;&gt;Node5</title>
<path fill="none" stroke="#191970" d="M305.9254,-56.4806C266.1079,-47.819 205.6397,-34.5128 144.0974,-20.2244"/>
<polygon fill="#191970" stroke="#191970" points="144.7472,-16.7821 134.214,-17.9233 143.1598,-23.5998 144.7472,-16.7821"/>
</g>
<!-- Node6 -->
<g id="node7" class="node">
<title>Node6</title>
<polygon fill="none" stroke="#bfbfbf" points="152,-.5 152,-19.5 194,-19.5 194,-.5 152,-.5"/>
<text text-anchor="middle" x="173" y="-7.5" font-family="FreeSans.ttf" font-size="10.00" fill="#000000">array</text>
</g>
<!-- Node3&#45;&gt;Node6 -->
<g id="edge6" class="edge">
<title>Node3&#45;&gt;Node6</title>
<path fill="none" stroke="#191970" d="M318.9749,-56.4738C291.1658,-47.8949 249.0185,-34.7944 203.9473,-20.2702"/>
<polygon fill="#191970" stroke="#191970" points="204.881,-16.8938 194.2893,-17.1504 202.7293,-23.5549 204.881,-16.8938"/>
</g>
<!-- Node7 -->
<g id="node8" class="node">
<title>Node7</title>
<polygon fill="none" stroke="#bfbfbf" points="579.5,-.5 579.5,-19.5 632.5,-19.5 632.5,-.5 579.5,-.5"/>
<text text-anchor="middle" x="606" y="-7.5" font-family="FreeSans.ttf" font-size="10.00" fill="#000000">cstddef</text>
</g>
<!-- Node3&#45;&gt;Node7 -->
<g id="edge7" class="edge">
<title>Node3&#45;&gt;Node7</title>
<path fill="none" stroke="#191970" d="M400.45,-56.4175C442.9925,-48.1185 505.6887,-35.3796 569.4833,-20.008"/>
<polygon fill="#191970" stroke="#191970" points="570.4227,-23.3817 579.314,-17.6202 568.7704,-16.5795 570.4227,-23.3817"/>
</g>
<!-- Node8 -->
<g id="node9" class="node">
<title>Node8</title>
<polygon fill="none" stroke="#bfbfbf" points="212.5,-.5 212.5,-19.5 265.5,-19.5 265.5,-.5 212.5,-.5"/>
<text text-anchor="middle" x="239" y="-7.5" font-family="FreeSans.ttf" font-size="10.00" fill="#000000">iterator</text>
</g>
<!-- Node3&#45;&gt;Node8 -->
<g id="edge8" class="edge">
<title>Node3&#45;&gt;Node8</title>
<path fill="none" stroke="#191970" d="M330.9184,-56.3733C313.2598,-47.4644 286.7947,-34.1127 266.7902,-24.0203"/>
<polygon fill="#191970" stroke="#191970" points="268.3372,-20.8806 257.8326,-19.5011 265.1842,-27.1303 268.3372,-20.8806"/>
</g>
<!-- Node9 -->
<g id="node10" class="node">
<title>Node9</title>
<polygon fill="none" stroke="#bfbfbf" points="284,-.5 284,-19.5 328,-19.5 328,-.5 284,-.5"/>
<text text-anchor="middle" x="306" y="-7.5" font-family="FreeSans.ttf" font-size="10.00" fill="#000000">limits</text>
</g>
<!-- Node3&#45;&gt;Node9 -->
<g id="edge9" class="edge">
<title>Node3&#45;&gt;Node9</title>
<path fill="none" stroke="#191970" d="M342.3358,-56.2455C336.1527,-48.3761 327.2937,-37.101 319.8711,-27.6542"/>
<polygon fill="#191970" stroke="#191970" points="322.5068,-25.3435 313.5764,-19.6427 317.0025,-29.6683 322.5068,-25.3435"/>
</g>
<!-- Node10 -->
<g id="node11" class="node">
<title>Node10</title>
<polygon fill="none" stroke="#bfbfbf" points="346.5,-.5 346.5,-19.5 411.5,-19.5 411.5,-.5 346.5,-.5"/>
<text text-anchor="middle" x="379" y="-7.5" font-family="FreeSans.ttf" font-size="10.00" fill="#000000">stdexcept</text>
</g>
<!-- Node3&#45;&gt;Node10 -->
<g id="edge10" class="edge">
<title>Node3&#45;&gt;Node10</title>
<path fill="none" stroke="#191970" d="M355.0514,-56.2455C359.0019,-48.617 364.6097,-37.7881 369.4058,-28.5267"/>
<polygon fill="#191970" stroke="#191970" points="372.5159,-30.1321 374.0065,-19.6427 366.2999,-26.9131 372.5159,-30.1321"/>
</g>
<!-- Node11 -->
<g id="node12" class="node">
<title>Node11</title>
<polygon fill="none" stroke="#bfbfbf" points="429.5,-.5 429.5,-19.5 498.5,-19.5 498.5,-.5 429.5,-.5"/>
<text text-anchor="middle" x="464" y="-7.5" font-family="FreeSans.ttf" font-size="10.00" fill="#000000">type_traits</text>
</g>
<!-- Node3&#45;&gt;Node11 -->
<g id="edge11" class="edge">
<title>Node3&#45;&gt;Node11</title>
<path fill="none" stroke="#191970" d="M369.5973,-56.3733C387.7331,-47.4644 414.9135,-34.1127 435.4587,-24.0203"/>
<polygon fill="#191970" stroke="#191970" points="437.2261,-27.0517 444.6584,-19.5011 434.1397,-20.7688 437.2261,-27.0517"/>
</g>
<!-- Node12 -->
<g id="node13" class="node">
<title>Node12</title>
<polygon fill="none" stroke="#bfbfbf" points="516.5,-.5 516.5,-19.5 561.5,-19.5 561.5,-.5 516.5,-.5"/>
<text text-anchor="middle" x="539" y="-7.5" font-family="FreeSans.ttf" font-size="10.00" fill="#000000">utility</text>
</g>
<!-- Node3&#45;&gt;Node12 -->
<g id="edge12" class="edge">
<title>Node3&#45;&gt;Node12</title>
<path fill="none" stroke="#191970" d="M383.1303,-56.4793C412.9519,-47.8681 458.2164,-34.6965 506.5795,-20.0911"/>
<polygon fill="#191970" stroke="#191970" points="507.7327,-23.399 516.2898,-17.1519 505.7046,-16.6992 507.7327,-23.399"/>
</g>
<!-- Node14&#45;&gt;Node7 -->
<g id="edge19" class="edge">
<title>Node14&#45;&gt;Node7</title>
<path fill="none" stroke="#191970" d="M608.4738,-112.3698C592.8579,-104.9914 574.1711,-93.1364 565,-76 555.6554,-58.5394 570.5131,-39.3991 584.8871,-26.2483"/>
<polygon fill="#191970" stroke="#191970" points="587.3332,-28.762 592.6661,-19.6071 582.7882,-23.4382 587.3332,-28.762"/>
</g>
<!-- Node14&#45;&gt;Node13 -->
<g id="edge21" class="edge">
<title>Node14&#45;&gt;Node13</title>
<path fill="none" stroke="#191970" d="M607.6984,-112.3733C581.5219,-102.7923 541.3061,-88.0728 513.2259,-77.7951"/>
<polygon fill="#191970" stroke="#191970" points="514.0718,-74.3777 503.4781,-74.2273 511.6658,-80.9512 514.0718,-74.3777"/>
</g>
<!-- Node15 -->
<g id="node16" class="node">
<title>Node15</title>
<g id="a_node16"><a xlink:href="Utils_8h.html" target="_top" xlink:title="iDynTree/Core/Utils.h">
<polygon fill="none" stroke="#000000" points="574.5,-56.5 574.5,-75.5 693.5,-75.5 693.5,-56.5 574.5,-56.5"/>
<text text-anchor="middle" x="634" y="-63.5" font-family="FreeSans.ttf" font-size="10.00" fill="#000000">iDynTree/Core/Utils.h</text>
</a>
</g>
</g>
<!-- Node14&#45;&gt;Node15 -->
<g id="edge15" class="edge">
<title>Node14&#45;&gt;Node15</title>
<path fill="none" stroke="#191970" d="M634,-112.2455C634,-104.9382 634,-94.6944 634,-85.7046"/>
<polygon fill="#191970" stroke="#191970" points="637.5001,-85.6426 634,-75.6427 630.5001,-85.6427 637.5001,-85.6426"/>
</g>
<!-- Node17 -->
<g id="node18" class="node">
<title>Node17</title>
<polygon fill="none" stroke="#bfbfbf" points="711.5,-56.5 711.5,-75.5 758.5,-75.5 758.5,-56.5 711.5,-56.5"/>
<text text-anchor="middle" x="735" y="-63.5" font-family="FreeSans.ttf" font-size="10.00" fill="#000000">vector</text>
</g>
<!-- Node14&#45;&gt;Node17 -->
<g id="edge18" class="edge">
<title>Node14&#45;&gt;Node17</title>
<path fill="none" stroke="#191970" d="M651.5929,-112.2455C667.379,-103.4928 690.7639,-90.527 708.7587,-80.5496"/>
<polygon fill="#191970" stroke="#191970" points="710.5603,-83.5528 717.6087,-75.6427 707.1659,-77.4308 710.5603,-83.5528"/>
</g>
<!-- Node18 -->
<g id="node19" class="node">
<title>Node18</title>
<polygon fill="none" stroke="#bfbfbf" points="777,-56.5 777,-75.5 863,-75.5 863,-56.5 777,-56.5"/>
<text text-anchor="middle" x="820" y="-63.5" font-family="FreeSans.ttf" font-size="10.00" fill="#000000">unordered_set</text>
</g>
<!-- Node14&#45;&gt;Node18 -->
<g id="edge20" class="edge">
<title>Node14&#45;&gt;Node18</title>
<path fill="none" stroke="#191970" d="M665.9745,-112.3733C697.1713,-102.9807 744.771,-88.6496 778.7932,-78.4064"/>
<polygon fill="#191970" stroke="#191970" points="779.8763,-81.7355 788.4427,-75.5011 777.8582,-75.0327 779.8763,-81.7355"/>
</g>
<!-- Node15&#45;&gt;Node7 -->
<g id="edge16" class="edge">
<title>Node15&#45;&gt;Node7</title>
<path fill="none" stroke="#191970" d="M629.1228,-56.2455C625.3487,-48.6973 620.0079,-38.0158 615.4099,-28.8197"/>
<polygon fill="#191970" stroke="#191970" points="618.424,-27.0217 610.8213,-19.6427 612.163,-30.1522 618.424,-27.0217"/>
</g>
<!-- Node16 -->
<g id="node17" class="node">
<title>Node16</title>
<polygon fill="none" stroke="#bfbfbf" points="651,-.5 651,-19.5 731,-19.5 731,-.5 651,-.5"/>
<text text-anchor="middle" x="691" y="-7.5" font-family="FreeSans.ttf" font-size="10.00" fill="#000000">CoreExport.h</text>
</g>
<!-- Node15&#45;&gt;Node16 -->
<g id="edge17" class="edge">
<title>Node15&#45;&gt;Node16</title>
<path fill="none" stroke="#191970" d="M643.9286,-56.2455C652.1838,-48.1352 664.1209,-36.4075 673.9082,-26.7919"/>
<polygon fill="#191970" stroke="#191970" points="676.5046,-29.1476 681.1851,-19.6427 671.5989,-24.1542 676.5046,-29.1476"/>
</g>
</g>
</svg>
