<?xml version="1.0" encoding="UTF-8" standalone="no"?>
<!DOCTYPE svg PUBLIC "-//W3C//DTD SVG 1.1//EN"
 "http://www.w3.org/Graphics/SVG/1.1/DTD/svg11.dtd">
<!-- Generated by graphviz version 2.40.1 (20161225.0304)
 -->
<!-- Title: ObserverThread.h Pages: 1 -->
<svg width="1896pt" height="621pt"
 viewBox="0.00 0.00 1895.79 621.00" xmlns="http://www.w3.org/2000/svg" xmlns:xlink="http://www.w3.org/1999/xlink">
<g id="graph0" class="graph" transform="scale(1 1) rotate(0) translate(4 617)">
<title>ObserverThread.h</title>
<!-- Node0 -->
<g id="node1" class="node">
<title>Node0</title>
<polygon fill="#bfbfbf" stroke="#000000" points="916.7869,-593.5 916.7869,-612.5 1020.7869,-612.5 1020.7869,-593.5 916.7869,-593.5"/>
<text text-anchor="middle" x="968.7869" y="-600.5" font-family="FreeSans.ttf" font-size="10.00" fill="#000000">ObserverThread.h</text>
</g>
<!-- Node1 -->
<g id="node2" class="node">
<title>Node1</title>
<polygon fill="none" stroke="#bfbfbf" points="526.7869,-112.5 526.7869,-131.5 570.7869,-131.5 570.7869,-112.5 526.7869,-112.5"/>
<text text-anchor="middle" x="548.7869" y="-119.5" font-family="FreeSans.ttf" font-size="10.00" fill="#000000">string</text>
</g>
<!-- Node0&#45;&gt;Node1 -->
<g id="edge1" class="edge">
<title>Node0&#45;&gt;Node1</title>
<path fill="none" stroke="#191970" d="M916.7436,-601.0696C736.0512,-593.6854 146.7869,-563.6161 146.7869,-485.5 146.7869,-485.5 146.7869,-485.5 146.7869,-424 146.7869,-301.5235 144.4591,-232.1576 248.7869,-168 293.2025,-140.6862 448.2456,-128.1116 516.3192,-123.8115"/>
<polygon fill="#191970" stroke="#191970" points="516.6997,-127.2948 526.4676,-123.1914 516.2727,-120.3079 516.6997,-127.2948"/>
</g>
<!-- Node2 -->
<g id="node3" class="node">
<title>Node2</title>
<polygon fill="none" stroke="#bfbfbf" points="251.2869,-414.5 251.2869,-433.5 298.2869,-433.5 298.2869,-414.5 251.2869,-414.5"/>
<text text-anchor="middle" x="274.7869" y="-421.5" font-family="FreeSans.ttf" font-size="10.00" fill="#000000">vector</text>
</g>
<!-- Node0&#45;&gt;Node2 -->
<g id="edge2" class="edge">
<title>Node0&#45;&gt;Node2</title>
<path fill="none" stroke="#191970" d="M916.3637,-600.0889C782.635,-591.8029 432.6797,-564.4674 337.7869,-501 315.013,-485.768 296.2736,-459.849 285.3128,-442.3351"/>
<polygon fill="#191970" stroke="#191970" points="288.2045,-440.3524 280.0475,-433.5912 282.2077,-443.9634 288.2045,-440.3524"/>
</g>
<!-- Node3 -->
<g id="node4" class="node">
<title>Node3</title>
<polygon fill="none" stroke="#bfbfbf" points="753.2869,-537.5 753.2869,-556.5 890.2869,-556.5 890.2869,-537.5 753.2869,-537.5"/>
<text text-anchor="middle" x="821.7869" y="-544.5" font-family="FreeSans.ttf" font-size="10.00" fill="#000000">yarp/os/ResourceFinder.h</text>
</g>
<!-- Node0&#45;&gt;Node3 -->
<g id="edge3" class="edge">
<title>Node0&#45;&gt;Node3</title>
<path fill="none" stroke="#191970" d="M943.5167,-593.3733C919.3903,-584.1822 882.8507,-570.2624 856.0992,-560.0713"/>
<polygon fill="#191970" stroke="#191970" points="857.3183,-556.7904 846.7274,-556.5011 854.8263,-563.3318 857.3183,-556.7904"/>
</g>
<!-- Node4 -->
<g id="node5" class="node">
<title>Node4</title>
<polygon fill="none" stroke="#bfbfbf" points="908.2869,-537.5 908.2869,-556.5 1029.2869,-556.5 1029.2869,-537.5 908.2869,-537.5"/>
<text text-anchor="middle" x="968.7869" y="-544.5" font-family="FreeSans.ttf" font-size="10.00" fill="#000000">yarp/os/RateThread.h</text>
</g>
<!-- Node0&#45;&gt;Node4 -->
<g id="edge4" class="edge">
<title>Node0&#45;&gt;Node4</title>
<path fill="none" stroke="#191970" d="M968.7869,-593.2455C968.7869,-585.9382 968.7869,-575.6944 968.7869,-566.7046"/>
<polygon fill="#191970" stroke="#191970" points="972.287,-566.6426 968.7869,-556.6427 965.287,-566.6427 972.287,-566.6426"/>
</g>
<!-- Node5 -->
<g id="node6" class="node">
<title>Node5</title>
<polygon fill="none" stroke="#bfbfbf" points="1047.7869,-537.5 1047.7869,-556.5 1129.7869,-556.5 1129.7869,-537.5 1047.7869,-537.5"/>
<text text-anchor="middle" x="1088.7869" y="-544.5" font-family="FreeSans.ttf" font-size="10.00" fill="#000000">yarp/os/Log.h</text>
</g>
<!-- Node0&#45;&gt;Node5 -->
<g id="edge5" class="edge">
<title>Node0&#45;&gt;Node5</title>
<path fill="none" stroke="#191970" d="M989.4157,-593.3733C1008.6788,-584.3838 1037.6356,-570.8706 1059.3289,-560.7471"/>
<polygon fill="#191970" stroke="#191970" points="1060.8457,-563.9017 1068.4274,-556.5011 1057.8854,-557.5584 1060.8457,-563.9017"/>
</g>
<!-- Node6 -->
<g id="node7" class="node">
<title>Node6</title>
<polygon fill="none" stroke="#bfbfbf" points="1147.7869,-537.5 1147.7869,-556.5 1287.7869,-556.5 1287.7869,-537.5 1147.7869,-537.5"/>
<text text-anchor="middle" x="1217.7869" y="-544.5" font-family="FreeSans.ttf" font-size="10.00" fill="#000000">yarp/dev/IAnalogSensor.h</text>
</g>
<!-- Node0&#45;&gt;Node6 -->
<g id="edge6" class="edge">
<title>Node0&#45;&gt;Node6</title>
<path fill="none" stroke="#191970" d="M1011.3086,-593.4369C1053.9231,-583.8529 1119.6045,-569.0812 1165.4079,-558.78"/>
<polygon fill="#191970" stroke="#191970" points="1166.4523,-562.1326 1175.4406,-556.5237 1164.9163,-555.3032 1166.4523,-562.1326"/>
</g>
<!-- Node7 -->
<g id="node8" class="node">
<title>Node7</title>
<polygon fill="none" stroke="#bfbfbf" points="1305.7869,-537.5 1305.7869,-556.5 1489.7869,-556.5 1489.7869,-537.5 1305.7869,-537.5"/>
<text text-anchor="middle" x="1397.7869" y="-544.5" font-family="FreeSans.ttf" font-size="10.00" fill="#000000">yarp/dev/ControlBoardInterfaces.h</text>
</g>
<!-- Node0&#45;&gt;Node7 -->
<g id="edge7" class="edge">
<title>Node0&#45;&gt;Node7</title>
<path fill="none" stroke="#191970" d="M1020.9619,-596.1893C1094.0995,-586.6422 1227.8712,-569.1801 1314.7704,-557.8367"/>
<polygon fill="#191970" stroke="#191970" points="1315.4026,-561.2839 1324.8654,-556.5189 1314.4964,-554.3428 1315.4026,-561.2839"/>
</g>
<!-- Node8 -->
<g id="node9" class="node">
<title>Node8</title>
<polygon fill="none" stroke="#bfbfbf" points="1507.7869,-537.5 1507.7869,-556.5 1629.7869,-556.5 1629.7869,-537.5 1507.7869,-537.5"/>
<text text-anchor="middle" x="1568.7869" y="-544.5" font-family="FreeSans.ttf" font-size="10.00" fill="#000000">yarp/dev/PolyDriver.h</text>
</g>
<!-- Node0&#45;&gt;Node8 -->
<g id="edge8" class="edge">
<title>Node0&#45;&gt;Node8</title>
<path fill="none" stroke="#191970" d="M1020.7911,-599.4457C1114.1368,-592.8564 1316.5047,-577.6193 1497.7475,-557.0652"/>
<polygon fill="#191970" stroke="#191970" points="1498.1909,-560.5374 1507.7292,-555.9253 1497.3966,-553.5826 1498.1909,-560.5374"/>
</g>
<!-- Node9 -->
<g id="node10" class="node">
<title>Node9</title>
<polygon fill="none" stroke="#bfbfbf" points="1647.7869,-537.5 1647.7869,-556.5 1745.7869,-556.5 1745.7869,-537.5 1647.7869,-537.5"/>
<text text-anchor="middle" x="1696.7869" y="-544.5" font-family="FreeSans.ttf" font-size="10.00" fill="#000000">yarp/sig/Vector.h</text>
</g>
<!-- Node0&#45;&gt;Node9 -->
<g id="edge9" class="edge">
<title>Node0&#45;&gt;Node9</title>
<path fill="none" stroke="#191970" d="M1021.0822,-601.2294C1132.5302,-597.0628 1401.8142,-584.905 1637.3484,-557.0641"/>
<polygon fill="#191970" stroke="#191970" points="1637.9619,-560.5158 1647.4763,-555.8547 1637.1318,-553.5652 1637.9619,-560.5158"/>
</g>
<!-- Node10 -->
<g id="node11" class="node">
<title>Node10</title>
<g id="a_node11"><a xlink:href="Direction_8h.html" target="_top" xlink:title="iDynTree/Core/Direction.h">
<polygon fill="none" stroke="#000000" points="15.2869,-230 15.2869,-249 156.2869,-249 156.2869,-230 15.2869,-230"/>
<text text-anchor="middle" x="85.7869" y="-237" font-family="FreeSans.ttf" font-size="10.00" fill="#000000">iDynTree/Core/Direction.h</text>
</a>
</g>
</g>
<!-- Node0&#45;&gt;Node10 -->
<g id="edge10" class="edge">
<title>Node0&#45;&gt;Node10</title>
<path fill="none" stroke="#191970" d="M916.6396,-601.5785C738.8334,-596.544 165.5205,-578.6935 132.7869,-557 103.2948,-537.4547 97.7869,-520.8808 97.7869,-485.5 97.7869,-485.5 97.7869,-485.5 97.7869,-368 97.7869,-329.3337 92.334,-284.4053 88.7797,-259.2279"/>
<polygon fill="#191970" stroke="#191970" points="92.2154,-258.5323 87.3067,-249.1431 85.2889,-259.544 92.2154,-258.5323"/>
</g>
<!-- Node26 -->
<g id="node27" class="node">
<title>Node26</title>
<g id="a_node27"><a xlink:href="ConvexHullHelpers_8h.html" target="_top" xlink:title="iDynTree/ConvexHullHelpers.h">
<polygon fill="none" stroke="#000000" points="408.2869,-476 408.2869,-495 573.2869,-495 573.2869,-476 408.2869,-476"/>
<text text-anchor="middle" x="490.7869" y="-483" font-family="FreeSans.ttf" font-size="10.00" fill="#000000">iDynTree/ConvexHullHelpers.h</text>
</a>
</g>
</g>
<!-- Node0&#45;&gt;Node26 -->
<g id="edge31" class="edge">
<title>Node0&#45;&gt;Node26</title>
<path fill="none" stroke="#191970" d="M916.7379,-601.9916C819.3683,-599.3396 613.8956,-589.9028 551.7869,-557 529.2478,-545.0596 511.4899,-521.0416 501.0782,-504.148"/>
<polygon fill="#191970" stroke="#191970" points="503.8922,-502.0275 495.8162,-495.1697 497.853,-505.567 503.8922,-502.0275"/>
</g>
<!-- Node38 -->
<g id="node39" class="node">
<title>Node38</title>
<g id="a_node39"><a xlink:href="KinDynComputations_8h.html" target="_top" xlink:title="iDynTree/KinDynComputations.h">
<polygon fill="none" stroke="#000000" points="560.2869,-537.5 560.2869,-556.5 735.2869,-556.5 735.2869,-537.5 560.2869,-537.5"/>
<text text-anchor="middle" x="647.7869" y="-544.5" font-family="FreeSans.ttf" font-size="10.00" fill="#000000">iDynTree/KinDynComputations.h</text>
</a>
</g>
</g>
<!-- Node0&#45;&gt;Node38 -->
<g id="edge69" class="edge">
<title>Node0&#45;&gt;Node38</title>
<path fill="none" stroke="#191970" d="M916.4983,-593.878C860.8265,-584.1658 772.6412,-568.7814 712.5976,-558.3065"/>
<polygon fill="#191970" stroke="#191970" points="712.9238,-554.8107 702.4711,-556.5399 711.7208,-561.7065 712.9238,-554.8107"/>
</g>
<!-- Node50 -->
<g id="node50" class="node">
<title>Node50</title>
<polygon fill="none" stroke="#bfbfbf" points="1763.7869,-537.5 1763.7869,-556.5 1887.7869,-556.5 1887.7869,-537.5 1763.7869,-537.5"/>
<text text-anchor="middle" x="1825.7869" y="-544.5" font-family="FreeSans.ttf" font-size="10.00" fill="#000000">iCub/ctrl/minJerkCtrl.h</text>
</g>
<!-- Node0&#45;&gt;Node50 -->
<g id="edge99" class="edge">
<title>Node0&#45;&gt;Node50</title>
<path fill="none" stroke="#191970" d="M1020.8665,-601.4195C1145.5596,-597.3197 1471.2543,-584.7444 1753.4631,-557.059"/>
<polygon fill="#191970" stroke="#191970" points="1753.8766,-560.5353 1763.4834,-556.0677 1753.1874,-553.5693 1753.8766,-560.5353"/>
</g>
<!-- Node10&#45;&gt;Node1 -->
<g id="edge11" class="edge">
<title>Node10&#45;&gt;Node1</title>
<path fill="none" stroke="#191970" d="M93.7763,-229.8515C107.6063,-213.9037 137.7186,-182.3813 170.7869,-168 232.6685,-141.0879 436.2368,-127.8452 516.1624,-123.5848"/>
<polygon fill="#191970" stroke="#191970" points="516.7872,-127.0571 526.592,-123.0427 516.4238,-120.0666 516.7872,-127.0571"/>
</g>
<!-- Node11 -->
<g id="node12" class="node">
<title>Node11</title>
<g id="a_node12"><a xlink:href="VectorFixSize_8h.html" target="_top" xlink:title="iDynTree/Core/VectorFixSize.h">
<polygon fill="none" stroke="#000000" points="1133.2869,-168.5 1133.2869,-187.5 1294.2869,-187.5 1294.2869,-168.5 1133.2869,-168.5"/>
<text text-anchor="middle" x="1213.7869" y="-175.5" font-family="FreeSans.ttf" font-size="10.00" fill="#000000">iDynTree/Core/VectorFixSize.h</text>
</a>
</g>
</g>
<!-- Node10&#45;&gt;Node11 -->
<g id="edge12" class="edge">
<title>Node10&#45;&gt;Node11</title>
<path fill="none" stroke="#191970" d="M156.5519,-235.2327C211.0103,-231.9984 288.1502,-227.5245 355.7869,-224 694.1386,-206.3687 782.0024,-214.9445 1123.1129,-188.0885"/>
<polygon fill="#191970" stroke="#191970" points="1123.5868,-191.562 1133.2793,-187.2835 1123.0342,-184.5838 1123.5868,-191.562"/>
</g>
<!-- Node12 -->
<g id="node13" class="node">
<title>Node12</title>
<g id="a_node13"><a xlink:href="Utils_8h.html" target="_top" xlink:title="iDynTree/Core/Utils.h">
<polygon fill="none" stroke="#000000" points="744.2869,-56.5 744.2869,-75.5 863.2869,-75.5 863.2869,-56.5 744.2869,-56.5"/>
<text text-anchor="middle" x="803.7869" y="-63.5" font-family="FreeSans.ttf" font-size="10.00" fill="#000000">iDynTree/Core/Utils.h</text>
</a>
</g>
</g>
<!-- Node10&#45;&gt;Node12 -->
<g id="edge30" class="edge">
<title>Node10&#45;&gt;Node12</title>
<path fill="none" stroke="#191970" d="M89.4826,-229.9756C96.1388,-214.2107 111.7286,-182.9507 135.7869,-168 234.9577,-106.3717 583.7655,-78.9142 734.0463,-69.7478"/>
<polygon fill="#191970" stroke="#191970" points="734.3134,-73.2382 744.0855,-69.1447 733.8936,-66.2508 734.3134,-73.2382"/>
</g>
<!-- Node11&#45;&gt;Node1 -->
<g id="edge26" class="edge">
<title>Node11&#45;&gt;Node1</title>
<path fill="none" stroke="#191970" d="M1133.2688,-168.8355C1130.407,-168.5472 1127.5729,-168.2677 1124.7869,-168 917.9685,-148.1278 668.7859,-130.3017 581.1555,-124.2179"/>
<polygon fill="#191970" stroke="#191970" points="581.2662,-120.7173 571.0485,-123.5186 580.783,-127.7006 581.2662,-120.7173"/>
</g>
<!-- Node11&#45;&gt;Node12 -->
<g id="edge13" class="edge">
<title>Node11&#45;&gt;Node12</title>
<path fill="none" stroke="#191970" d="M1214.2511,-168.1786C1214.3562,-153.5107 1212.17,-126.101 1195.7869,-112 1171.8889,-91.4308 979.7106,-76.66 873.5912,-69.9829"/>
<polygon fill="#191970" stroke="#191970" points="873.7966,-66.489 863.5987,-69.3621 873.3624,-73.4756 873.7966,-66.489"/>
</g>
<!-- Node15 -->
<g id="node16" class="node">
<title>Node15</title>
<g id="a_node16"><a xlink:href="Span_8h.html" target="_top" xlink:title="iDynTree/Core/Span.h">
<polygon fill="none" stroke="#000000" points="987.2869,-56.5 987.2869,-75.5 1108.2869,-75.5 1108.2869,-56.5 987.2869,-56.5"/>
<text text-anchor="middle" x="1047.7869" y="-63.5" font-family="FreeSans.ttf" font-size="10.00" fill="#000000">iDynTree/Core/Span.h</text>
</a>
</g>
</g>
<!-- Node11&#45;&gt;Node15 -->
<g id="edge16" class="edge">
<title>Node11&#45;&gt;Node15</title>
<path fill="none" stroke="#191970" d="M1220.4011,-168.4178C1229.0805,-154.543 1241.771,-128.6966 1228.7869,-112 1215.0015,-94.2728 1163.1386,-82.2616 1118.4426,-74.9709"/>
<polygon fill="#191970" stroke="#191970" points="1118.8666,-71.4946 1108.444,-73.3973 1117.7782,-78.4095 1118.8666,-71.4946"/>
</g>
<!-- Node16 -->
<g id="node17" class="node">
<title>Node16</title>
<polygon fill="none" stroke="#bfbfbf" points="1358.7869,-.5 1358.7869,-19.5 1410.7869,-19.5 1410.7869,-.5 1358.7869,-.5"/>
<text text-anchor="middle" x="1384.7869" y="-7.5" font-family="FreeSans.ttf" font-size="10.00" fill="#000000">cassert</text>
</g>
<!-- Node11&#45;&gt;Node16 -->
<g id="edge28" class="edge">
<title>Node11&#45;&gt;Node16</title>
<path fill="none" stroke="#191970" d="M1294.4529,-172.364C1352.3179,-166.4451 1423.2133,-154.6952 1441.7869,-132 1468.6234,-99.2084 1428.8863,-51.6947 1403.3924,-26.7432"/>
<polygon fill="#191970" stroke="#191970" points="1405.6938,-24.1022 1396.0273,-19.7652 1400.8794,-29.1837 1405.6938,-24.1022"/>
</g>
<!-- Node24 -->
<g id="node25" class="node">
<title>Node24</title>
<polygon fill="none" stroke="#bfbfbf" points="1062.7869,-112.5 1062.7869,-131.5 1118.7869,-131.5 1118.7869,-112.5 1062.7869,-112.5"/>
<text text-anchor="middle" x="1090.7869" y="-119.5" font-family="FreeSans.ttf" font-size="10.00" fill="#000000">sstream</text>
</g>
<!-- Node11&#45;&gt;Node24 -->
<g id="edge27" class="edge">
<title>Node11&#45;&gt;Node24</title>
<path fill="none" stroke="#191970" d="M1192.6425,-168.3733C1172.8978,-159.3838 1143.2171,-145.8706 1120.9815,-135.7471"/>
<polygon fill="#191970" stroke="#191970" points="1122.2069,-132.4594 1111.6555,-131.5011 1119.3063,-138.8302 1122.2069,-132.4594"/>
</g>
<!-- Node25 -->
<g id="node26" class="node">
<title>Node25</title>
<polygon fill="none" stroke="#bfbfbf" points="1136.7869,-112.5 1136.7869,-131.5 1186.7869,-131.5 1186.7869,-112.5 1136.7869,-112.5"/>
<text text-anchor="middle" x="1161.7869" y="-119.5" font-family="FreeSans.ttf" font-size="10.00" fill="#000000">cstring</text>
</g>
<!-- Node11&#45;&gt;Node25 -->
<g id="edge29" class="edge">
<title>Node11&#45;&gt;Node25</title>
<path fill="none" stroke="#191970" d="M1204.7292,-168.2455C1197.2728,-160.2155 1186.5235,-148.6394 1177.6452,-139.0781"/>
<polygon fill="#191970" stroke="#191970" points="1180.1102,-136.589 1170.7409,-131.6427 1174.9806,-141.3522 1180.1102,-136.589"/>
</g>
<!-- Node13 -->
<g id="node14" class="node">
<title>Node13</title>
<polygon fill="none" stroke="#bfbfbf" points="777.2869,-.5 777.2869,-19.5 830.2869,-19.5 830.2869,-.5 777.2869,-.5"/>
<text text-anchor="middle" x="803.7869" y="-7.5" font-family="FreeSans.ttf" font-size="10.00" fill="#000000">cstddef</text>
</g>
<!-- Node12&#45;&gt;Node13 -->
<g id="edge14" class="edge">
<title>Node12&#45;&gt;Node13</title>
<path fill="none" stroke="#191970" d="M803.7869,-56.2455C803.7869,-48.9382 803.7869,-38.6944 803.7869,-29.7046"/>
<polygon fill="#191970" stroke="#191970" points="807.287,-29.6426 803.7869,-19.6427 800.287,-29.6427 807.287,-29.6426"/>
</g>
<!-- Node14 -->
<g id="node15" class="node">
<title>Node14</title>
<polygon fill="none" stroke="#bfbfbf" points="678.7869,-.5 678.7869,-19.5 758.7869,-19.5 758.7869,-.5 678.7869,-.5"/>
<text text-anchor="middle" x="718.7869" y="-7.5" font-family="FreeSans.ttf" font-size="10.00" fill="#000000">CoreExport.h</text>
</g>
<!-- Node12&#45;&gt;Node14 -->
<g id="edge15" class="edge">
<title>Node12&#45;&gt;Node14</title>
<path fill="none" stroke="#191970" d="M788.9811,-56.2455C776.0613,-47.7337 757.0938,-35.2375 742.1317,-25.3801"/>
<polygon fill="#191970" stroke="#191970" points="743.6993,-22.2216 733.4231,-19.6427 739.8482,-28.067 743.6993,-22.2216"/>
</g>
<!-- Node15&#45;&gt;Node13 -->
<g id="edge20" class="edge">
<title>Node15&#45;&gt;Node13</title>
<path fill="none" stroke="#191970" d="M1001.3584,-56.4724C961.2418,-48.0734 901.499,-35.1696 840.3113,-20.0337"/>
<polygon fill="#191970" stroke="#191970" points="841.0309,-16.606 830.4814,-17.5857 839.3392,-23.3986 841.0309,-16.606"/>
</g>
<!-- Node15&#45;&gt;Node16 -->
<g id="edge17" class="edge">
<title>Node15&#45;&gt;Node16</title>
<path fill="none" stroke="#191970" d="M1108.3039,-57.7119C1178.4399,-47.9533 1290.813,-31.8096 1348.41,-20.041"/>
<polygon fill="#191970" stroke="#191970" points="1349.4501,-23.3982 1358.5047,-17.8969 1347.9957,-16.551 1349.4501,-23.3982"/>
</g>
<!-- Node17 -->
<g id="node18" class="node">
<title>Node17</title>
<polygon fill="none" stroke="#bfbfbf" points="911.7869,-.5 911.7869,-19.5 975.7869,-19.5 975.7869,-.5 911.7869,-.5"/>
<text text-anchor="middle" x="943.7869" y="-7.5" font-family="FreeSans.ttf" font-size="10.00" fill="#000000">algorithm</text>
</g>
<!-- Node15&#45;&gt;Node17 -->
<g id="edge18" class="edge">
<title>Node15&#45;&gt;Node17</title>
<path fill="none" stroke="#191970" d="M1029.6715,-56.2455C1013.3419,-47.4527 989.1159,-34.4079 970.553,-24.4125"/>
<polygon fill="#191970" stroke="#191970" points="972.1589,-21.3021 961.6948,-19.6427 968.8401,-27.4654 972.1589,-21.3021"/>
</g>
<!-- Node18 -->
<g id="node19" class="node">
<title>Node18</title>
<polygon fill="none" stroke="#bfbfbf" points="993.7869,-.5 993.7869,-19.5 1035.7869,-19.5 1035.7869,-.5 993.7869,-.5"/>
<text text-anchor="middle" x="1014.7869" y="-7.5" font-family="FreeSans.ttf" font-size="10.00" fill="#000000">array</text>
</g>
<!-- Node15&#45;&gt;Node18 -->
<g id="edge19" class="edge">
<title>Node15&#45;&gt;Node18</title>
<path fill="none" stroke="#191970" d="M1042.0388,-56.2455C1037.5434,-48.617 1031.1621,-37.7881 1025.7045,-28.5267"/>
<polygon fill="#191970" stroke="#191970" points="1028.5616,-26.4811 1020.4692,-19.6427 1022.5308,-30.035 1028.5616,-26.4811"/>
</g>
<!-- Node19 -->
<g id="node20" class="node">
<title>Node19</title>
<polygon fill="none" stroke="#bfbfbf" points="1054.2869,-.5 1054.2869,-19.5 1107.2869,-19.5 1107.2869,-.5 1054.2869,-.5"/>
<text text-anchor="middle" x="1080.7869" y="-7.5" font-family="FreeSans.ttf" font-size="10.00" fill="#000000">iterator</text>
</g>
<!-- Node15&#45;&gt;Node19 -->
<g id="edge21" class="edge">
<title>Node15&#45;&gt;Node19</title>
<path fill="none" stroke="#191970" d="M1053.5351,-56.2455C1058.0305,-48.617 1064.4118,-37.7881 1069.8694,-28.5267"/>
<polygon fill="#191970" stroke="#191970" points="1073.0431,-30.035 1075.1047,-19.6427 1067.0123,-26.4811 1073.0431,-30.035"/>
</g>
<!-- Node20 -->
<g id="node21" class="node">
<title>Node20</title>
<polygon fill="none" stroke="#bfbfbf" points="1125.7869,-.5 1125.7869,-19.5 1169.7869,-19.5 1169.7869,-.5 1125.7869,-.5"/>
<text text-anchor="middle" x="1147.7869" y="-7.5" font-family="FreeSans.ttf" font-size="10.00" fill="#000000">limits</text>
</g>
<!-- Node15&#45;&gt;Node20 -->
<g id="edge22" class="edge">
<title>Node15&#45;&gt;Node20</title>
<path fill="none" stroke="#191970" d="M1065.2056,-56.2455C1080.8355,-47.4928 1103.9888,-34.527 1121.8055,-24.5496"/>
<polygon fill="#191970" stroke="#191970" points="1123.5529,-27.5825 1130.5679,-19.6427 1120.1327,-21.475 1123.5529,-27.5825"/>
</g>
<!-- Node21 -->
<g id="node22" class="node">
<title>Node21</title>
<polygon fill="none" stroke="#bfbfbf" points="1188.2869,-.5 1188.2869,-19.5 1253.2869,-19.5 1253.2869,-.5 1188.2869,-.5"/>
<text text-anchor="middle" x="1220.7869" y="-7.5" font-family="FreeSans.ttf" font-size="10.00" fill="#000000">stdexcept</text>
</g>
<!-- Node15&#45;&gt;Node21 -->
<g id="edge23" class="edge">
<title>Node15&#45;&gt;Node21</title>
<path fill="none" stroke="#191970" d="M1077.5267,-56.3733C1106.294,-47.0613 1150.0569,-32.8953 1181.6425,-22.671"/>
<polygon fill="#191970" stroke="#191970" points="1182.9992,-25.9107 1191.4353,-19.5011 1180.8434,-19.251 1182.9992,-25.9107"/>
</g>
<!-- Node22 -->
<g id="node23" class="node">
<title>Node22</title>
<polygon fill="none" stroke="#bfbfbf" points="1271.2869,-.5 1271.2869,-19.5 1340.2869,-19.5 1340.2869,-.5 1271.2869,-.5"/>
<text text-anchor="middle" x="1305.7869" y="-7.5" font-family="FreeSans.ttf" font-size="10.00" fill="#000000">type_traits</text>
</g>
<!-- Node15&#45;&gt;Node22 -->
<g id="edge24" class="edge">
<title>Node15&#45;&gt;Node22</title>
<path fill="none" stroke="#191970" d="M1093.5543,-56.4532C1134.9033,-47.773 1197.7034,-34.4537 1260.9191,-20.3929"/>
<polygon fill="#191970" stroke="#191970" points="1262.0667,-23.723 1271.0652,-18.1304 1260.5431,-16.8908 1262.0667,-23.723"/>
</g>
<!-- Node23 -->
<g id="node24" class="node">
<title>Node23</title>
<polygon fill="none" stroke="#bfbfbf" points="848.2869,-.5 848.2869,-19.5 893.2869,-19.5 893.2869,-.5 848.2869,-.5"/>
<text text-anchor="middle" x="870.7869" y="-7.5" font-family="FreeSans.ttf" font-size="10.00" fill="#000000">utility</text>
</g>
<!-- Node15&#45;&gt;Node23 -->
<g id="edge25" class="edge">
<title>Node15&#45;&gt;Node23</title>
<path fill="none" stroke="#191970" d="M1017.3596,-56.3733C985.6082,-46.3276 936.0017,-30.6329 903.4437,-20.3321"/>
<polygon fill="#191970" stroke="#191970" points="904.1063,-16.8708 893.5163,-17.1912 901.9947,-23.5447 904.1063,-16.8708"/>
</g>
<!-- Node26&#45;&gt;Node1 -->
<g id="edge32" class="edge">
<title>Node26&#45;&gt;Node1</title>
<path fill="none" stroke="#191970" d="M455.6045,-475.9794C391.1747,-456.1683 260.7869,-404.0283 260.7869,-306.5 260.7869,-306.5 260.7869,-306.5 260.7869,-239.5 260.7869,-193.767 294.4347,-189.5221 334.7869,-168 393.7967,-136.5268 472.8091,-126.5871 516.4342,-123.4483"/>
<polygon fill="#191970" stroke="#191970" points="516.7179,-126.9374 526.4725,-122.8023 516.2683,-119.9518 516.7179,-126.9374"/>
</g>
<!-- Node26&#45;&gt;Node2 -->
<g id="edge33" class="edge">
<title>Node26&#45;&gt;Node2</title>
<path fill="none" stroke="#191970" d="M457.0369,-475.8906C416.3466,-464.3052 348.4019,-444.9598 307.9677,-433.4473"/>
<polygon fill="#191970" stroke="#191970" points="308.8901,-430.0709 298.3139,-430.6987 306.9732,-436.8033 308.8901,-430.0709"/>
</g>
<!-- Node27 -->
<g id="node28" class="node">
<title>Node27</title>
<g id="a_node28"><a xlink:href="MatrixDynSize_8h.html" target="_top" xlink:title="iDynTree/Core/MatrixDynSize.h">
<polygon fill="none" stroke="#000000" points="1104.2869,-414.5 1104.2869,-433.5 1271.2869,-433.5 1271.2869,-414.5 1104.2869,-414.5"/>
<text text-anchor="middle" x="1187.7869" y="-421.5" font-family="FreeSans.ttf" font-size="10.00" fill="#000000">iDynTree/Core/MatrixDynSize.h</text>
</a>
</g>
</g>
<!-- Node26&#45;&gt;Node27 -->
<g id="edge34" class="edge">
<title>Node26&#45;&gt;Node27</title>
<path fill="none" stroke="#191970" d="M573.5331,-479.0717C688.1096,-470.0329 901.8243,-452.6773 1094.0519,-434.1521"/>
<polygon fill="#191970" stroke="#191970" points="1094.4418,-437.6308 1104.0586,-433.1848 1093.7682,-430.6633 1094.4418,-437.6308"/>
</g>
<!-- Node29 -->
<g id="node30" class="node">
<title>Node29</title>
<g id="a_node30"><a xlink:href="Position_8h.html" target="_top" xlink:title="iDynTree/Core/Position.h">
<polygon fill="none" stroke="#000000" points="384.7869,-358.5 384.7869,-377.5 520.7869,-377.5 520.7869,-358.5 384.7869,-358.5"/>
<text text-anchor="middle" x="452.7869" y="-365.5" font-family="FreeSans.ttf" font-size="10.00" fill="#000000">iDynTree/Core/Position.h</text>
</a>
</g>
</g>
<!-- Node26&#45;&gt;Node29 -->
<g id="edge41" class="edge">
<title>Node26&#45;&gt;Node29</title>
<path fill="none" stroke="#191970" d="M487.6772,-475.8845C481.4423,-456.6053 467.3066,-412.8963 459.0688,-387.4241"/>
<polygon fill="#191970" stroke="#191970" points="462.347,-386.1862 455.9396,-377.7484 455.6866,-388.3402 462.347,-386.1862"/>
</g>
<!-- Node36 -->
<g id="node37" class="node">
<title>Node36</title>
<g id="a_node37"><a xlink:href="Transform_8h.html" target="_top" xlink:title="iDynTree/Core/Transform.h">
<polygon fill="none" stroke="#000000" points="518.7869,-414.5 518.7869,-433.5 664.7869,-433.5 664.7869,-414.5 518.7869,-414.5"/>
<text text-anchor="middle" x="591.7869" y="-421.5" font-family="FreeSans.ttf" font-size="10.00" fill="#000000">iDynTree/Core/Transform.h</text>
</a>
</g>
</g>
<!-- Node26&#45;&gt;Node36 -->
<g id="edge61" class="edge">
<title>Node26&#45;&gt;Node36</title>
<path fill="none" stroke="#191970" d="M506.5682,-475.8906C522.8744,-465.9616 548.5409,-450.333 567.4483,-438.8201"/>
<polygon fill="#191970" stroke="#191970" points="569.3956,-441.7322 576.1165,-433.5419 565.755,-435.7533 569.3956,-441.7322"/>
</g>
<!-- Node37 -->
<g id="node38" class="node">
<title>Node37</title>
<g id="a_node38"><a xlink:href="VectorDynSize_8h.html" target="_top" xlink:title="iDynTree/Core/VectorDynSize.h">
<polygon fill="none" stroke="#000000" points="769.2869,-168.5 769.2869,-187.5 936.2869,-187.5 936.2869,-168.5 769.2869,-168.5"/>
<text text-anchor="middle" x="852.7869" y="-175.5" font-family="FreeSans.ttf" font-size="10.00" fill="#000000">iDynTree/Core/VectorDynSize.h</text>
</a>
</g>
</g>
<!-- Node26&#45;&gt;Node37 -->
<g id="edge66" class="edge">
<title>Node26&#45;&gt;Node37</title>
<path fill="none" stroke="#191970" d="M492.2293,-475.8751C494.5842,-461.7856 500.0026,-434.9467 509.7869,-414 520.72,-390.5943 622.2722,-238.2994 643.7869,-224 665.2532,-209.7328 724.8452,-197.4183 774.9295,-189.1308"/>
<polygon fill="#191970" stroke="#191970" points="775.4956,-192.5848 784.8055,-187.5276 774.3739,-185.6753 775.4956,-192.5848"/>
</g>
<!-- Node27&#45;&gt;Node1 -->
<g id="edge35" class="edge">
<title>Node27&#45;&gt;Node1</title>
<path fill="none" stroke="#191970" d="M1200.5274,-414.4377C1221.0426,-398.144 1260.6286,-362.7751 1275.7869,-322 1292.0652,-278.2126 1277.2397,-249.0161 1237.7869,-224 1148.0116,-167.0756 864.0712,-213.1468 760.7869,-188 738.7298,-182.6297 735.2107,-175.5086 713.7869,-168 668.4574,-152.1129 614.6447,-137.9616 581.0983,-129.6801"/>
<polygon fill="#191970" stroke="#191970" points="581.5001,-126.1754 570.9552,-127.2028 579.8392,-132.9755 581.5001,-126.1754"/>
</g>
<!-- Node28 -->
<g id="node29" class="node">
<title>Node28</title>
<g id="a_node29"><a xlink:href="MatrixView_8h.html" target="_top" xlink:title="iDynTree/Core/MatrixView.h">
<polygon fill="none" stroke="#000000" points="1281.2869,-112.5 1281.2869,-131.5 1432.2869,-131.5 1432.2869,-112.5 1281.2869,-112.5"/>
<text text-anchor="middle" x="1356.7869" y="-119.5" font-family="FreeSans.ttf" font-size="10.00" fill="#000000">iDynTree/Core/MatrixView.h</text>
</a>
</g>
</g>
<!-- Node27&#45;&gt;Node28 -->
<g id="edge36" class="edge">
<title>Node27&#45;&gt;Node28</title>
<path fill="none" stroke="#191970" d="M1237.3094,-414.4997C1291.5056,-400.8942 1370.7869,-370.1189 1370.7869,-306.5 1370.7869,-306.5 1370.7869,-306.5 1370.7869,-239.5 1370.7869,-204.8969 1364.7262,-164.9617 1360.5802,-141.6911"/>
<polygon fill="#191970" stroke="#191970" points="1363.9932,-140.8994 1358.7336,-131.7023 1357.1098,-142.172 1363.9932,-140.8994"/>
</g>
<!-- Node28&#45;&gt;Node12 -->
<g id="edge40" class="edge">
<title>Node28&#45;&gt;Node12</title>
<path fill="none" stroke="#191970" d="M1281.0542,-114.3309C1173.4154,-103.4307 977.7053,-83.612 873.4791,-73.0574"/>
<polygon fill="#191970" stroke="#191970" points="873.6797,-69.5599 863.378,-72.0345 872.9744,-76.5243 873.6797,-69.5599"/>
</g>
<!-- Node28&#45;&gt;Node15 -->
<g id="edge39" class="edge">
<title>Node28&#45;&gt;Node15</title>
<path fill="none" stroke="#191970" d="M1304.019,-112.4369C1250.3584,-102.712 1167.2243,-87.6456 1110.2959,-77.3285"/>
<polygon fill="#191970" stroke="#191970" points="1110.8011,-73.8631 1100.3372,-75.5237 1109.5527,-80.7509 1110.8011,-73.8631"/>
</g>
<!-- Node28&#45;&gt;Node16 -->
<g id="edge37" class="edge">
<title>Node28&#45;&gt;Node16</title>
<path fill="none" stroke="#191970" d="M1359.1742,-112.4509C1363.7616,-94.1013 1373.8892,-53.5908 1379.9446,-29.3693"/>
<polygon fill="#191970" stroke="#191970" points="1383.3758,-30.0752 1382.4057,-19.5249 1376.5848,-28.3774 1383.3758,-30.0752"/>
</g>
<!-- Node28&#45;&gt;Node22 -->
<g id="edge38" class="edge">
<title>Node28&#45;&gt;Node22</title>
<path fill="none" stroke="#191970" d="M1352.4387,-112.4509C1344.0078,-93.936 1325.3031,-52.8591 1314.3106,-28.7187"/>
<polygon fill="#191970" stroke="#191970" points="1317.4537,-27.1753 1310.1242,-19.5249 1311.0831,-30.0762 1317.4537,-27.1753"/>
</g>
<!-- Node29&#45;&gt;Node1 -->
<g id="edge60" class="edge">
<title>Node29&#45;&gt;Node1</title>
<path fill="none" stroke="#191970" d="M437.465,-358.4429C402.9235,-335.659 324.3615,-276.1524 355.7869,-224 390.9002,-165.7273 471.6725,-139.0237 516.8019,-128.2691"/>
<polygon fill="#191970" stroke="#191970" points="517.6795,-131.6591 526.6607,-126.0388 516.1349,-124.8316 517.6795,-131.6591"/>
</g>
<!-- Node30 -->
<g id="node31" class="node">
<title>Node30</title>
<g id="a_node31"><a xlink:href="PositionRaw_8h.html" target="_top" xlink:title="iDynTree/Core/PositionRaw.h">
<polygon fill="none" stroke="#000000" points="364.7869,-230 364.7869,-249 520.7869,-249 520.7869,-230 364.7869,-230"/>
<text text-anchor="middle" x="442.7869" y="-237" font-family="FreeSans.ttf" font-size="10.00" fill="#000000">iDynTree/Core/PositionRaw.h</text>
</a>
</g>
</g>
<!-- Node29&#45;&gt;Node30 -->
<g id="edge42" class="edge">
<title>Node29&#45;&gt;Node30</title>
<path fill="none" stroke="#191970" d="M452.0353,-358.3416C450.4065,-337.4114 446.5227,-287.504 444.3415,-259.4762"/>
<polygon fill="#191970" stroke="#191970" points="447.8127,-258.9687 443.5473,-249.2705 440.8338,-259.5119 447.8127,-258.9687"/>
</g>
<!-- Node31 -->
<g id="node32" class="node">
<title>Node31</title>
<g id="a_node32"><a xlink:href="Rotation_8h.html" target="_top" xlink:title="iDynTree/Core/Rotation.h">
<polygon fill="none" stroke="#000000" points="626.2869,-297 626.2869,-316 763.2869,-316 763.2869,-297 626.2869,-297"/>
<text text-anchor="middle" x="694.7869" y="-304" font-family="FreeSans.ttf" font-size="10.00" fill="#000000">iDynTree/Core/Rotation.h</text>
</a>
</g>
</g>
<!-- Node29&#45;&gt;Node31 -->
<g id="edge45" class="edge">
<title>Node29&#45;&gt;Node31</title>
<path fill="none" stroke="#191970" d="M490.3339,-358.4581C532.6342,-347.7082 601.4646,-330.2162 647.424,-318.5365"/>
<polygon fill="#191970" stroke="#191970" points="648.322,-321.9196 657.1519,-316.0643 646.5979,-315.1352 648.322,-321.9196"/>
</g>
<!-- Node30&#45;&gt;Node1 -->
<g id="edge44" class="edge">
<title>Node30&#45;&gt;Node1</title>
<path fill="none" stroke="#191970" d="M451.4614,-229.8845C469.3196,-210.0889 510.413,-164.5372 533.0743,-139.4173"/>
<polygon fill="#191970" stroke="#191970" points="535.893,-141.5179 539.9927,-131.7484 530.6955,-136.829 535.893,-141.5179"/>
</g>
<!-- Node30&#45;&gt;Node11 -->
<g id="edge43" class="edge">
<title>Node30&#45;&gt;Node11</title>
<path fill="none" stroke="#191970" d="M521.0566,-233.423C558.2393,-230.5467 603.3043,-227.0758 643.7869,-224 854.3109,-208.0046 909.6783,-207.969 1123.3072,-188.1123"/>
<polygon fill="#191970" stroke="#191970" points="1123.639,-191.5966 1133.2706,-187.1826 1122.9886,-184.6269 1123.639,-191.5966"/>
</g>
<!-- Node31&#45;&gt;Node1 -->
<g id="edge46" class="edge">
<title>Node31&#45;&gt;Node1</title>
<path fill="none" stroke="#191970" d="M684.1245,-296.6993C673.4409,-286.6624 656.763,-270.3937 643.7869,-255 611.0477,-216.1609 577.642,-166.6046 560.5111,-140.3118"/>
<polygon fill="#191970" stroke="#191970" points="563.3372,-138.2365 554.9675,-131.7405 557.4594,-142.0381 563.3372,-138.2365"/>
</g>
<!-- Node31&#45;&gt;Node11 -->
<g id="edge59" class="edge">
<title>Node31&#45;&gt;Node11</title>
<path fill="none" stroke="#191970" d="M763.3459,-298.1124C821.643,-290.0341 907.1985,-275.9327 979.7869,-255 1015.234,-244.7779 1021.9326,-236.0898 1056.7869,-224 1093.713,-211.1916 1136.3046,-198.8619 1167.8016,-190.197"/>
<polygon fill="#191970" stroke="#191970" points="1168.8921,-193.5274 1177.6168,-187.5166 1167.048,-186.7747 1168.8921,-193.5274"/>
</g>
<!-- Node32 -->
<g id="node33" class="node">
<title>Node32</title>
<g id="a_node33"><a xlink:href="GeomVector3_8h.html" target="_top" xlink:title="iDynTree/Core/GeomVector3.h">
<polygon fill="none" stroke="#000000" points="1065.2869,-230 1065.2869,-249 1228.2869,-249 1228.2869,-230 1065.2869,-230"/>
<text text-anchor="middle" x="1146.7869" y="-237" font-family="FreeSans.ttf" font-size="10.00" fill="#000000">iDynTree/Core/GeomVector3.h</text>
</a>
</g>
</g>
<!-- Node31&#45;&gt;Node32 -->
<g id="edge47" class="edge">
<title>Node31&#45;&gt;Node32</title>
<path fill="none" stroke="#191970" d="M759.0675,-296.9717C841.7098,-284.7216 984.9383,-263.4908 1072.2605,-250.5471"/>
<polygon fill="#191970" stroke="#191970" points="1072.9839,-253.9782 1082.3626,-249.0496 1071.9575,-247.0538 1072.9839,-253.9782"/>
</g>
<!-- Node33 -->
<g id="node34" class="node">
<title>Node33</title>
<g id="a_node34"><a xlink:href="RotationRaw_8h.html" target="_top" xlink:title="iDynTree/Core/RotationRaw.h">
<polygon fill="none" stroke="#000000" points="652.7869,-230 652.7869,-249 810.7869,-249 810.7869,-230 652.7869,-230"/>
<text text-anchor="middle" x="731.7869" y="-237" font-family="FreeSans.ttf" font-size="10.00" fill="#000000">iDynTree/Core/RotationRaw.h</text>
</a>
</g>
</g>
<!-- Node31&#45;&gt;Node33 -->
<g id="edge49" class="edge">
<title>Node31&#45;&gt;Node33</title>
<path fill="none" stroke="#191970" d="M700.0881,-296.9005C705.6931,-286.751 714.6708,-270.4941 721.6435,-257.8679"/>
<polygon fill="#191970" stroke="#191970" points="724.7252,-259.5275 726.4956,-249.0817 718.5974,-256.1435 724.7252,-259.5275"/>
</g>
<!-- Node32&#45;&gt;Node11 -->
<g id="edge48" class="edge">
<title>Node32&#45;&gt;Node11</title>
<path fill="none" stroke="#191970" d="M1157.2557,-229.8906C1167.5206,-220.4683 1183.3772,-205.9134 1195.6875,-194.6137"/>
<polygon fill="#191970" stroke="#191970" points="1198.1704,-197.0856 1203.1706,-187.7449 1193.4368,-191.9287 1198.1704,-197.0856"/>
</g>
<!-- Node33&#45;&gt;Node1 -->
<g id="edge58" class="edge">
<title>Node33&#45;&gt;Node1</title>
<path fill="none" stroke="#191970" d="M720.8196,-229.9976C703.9026,-215.593 670.1131,-187.8134 638.7869,-168 619.7672,-155.9702 597.2164,-144.4488 579.446,-135.9455"/>
<polygon fill="#191970" stroke="#191970" points="580.6558,-132.6465 570.1181,-131.5479 577.6708,-138.9781 580.6558,-132.6465"/>
</g>
<!-- Node34 -->
<g id="node35" class="node">
<title>Node34</title>
<g id="a_node35"><a xlink:href="MatrixFixSize_8h.html" target="_top" xlink:title="iDynTree/Core/MatrixFixSize.h">
<polygon fill="none" stroke="#000000" points="954.2869,-168.5 954.2869,-187.5 1115.2869,-187.5 1115.2869,-168.5 954.2869,-168.5"/>
<text text-anchor="middle" x="1034.7869" y="-175.5" font-family="FreeSans.ttf" font-size="10.00" fill="#000000">iDynTree/Core/MatrixFixSize.h</text>
</a>
</g>
</g>
<!-- Node33&#45;&gt;Node34 -->
<g id="edge50" class="edge">
<title>Node33&#45;&gt;Node34</title>
<path fill="none" stroke="#191970" d="M778.7982,-229.9581C832.4271,-219.073 920.1145,-201.2751 977.6431,-189.5985"/>
<polygon fill="#191970" stroke="#191970" points="978.5614,-192.9836 987.6654,-187.5643 977.169,-186.1234 978.5614,-192.9836"/>
</g>
<!-- Node34&#45;&gt;Node1 -->
<g id="edge55" class="edge">
<title>Node34&#45;&gt;Node1</title>
<path fill="none" stroke="#191970" d="M954.2613,-168.7213C845.5016,-156.1893 656.6041,-134.4234 581.2156,-125.7366"/>
<polygon fill="#191970" stroke="#191970" points="581.2744,-122.2203 570.9394,-124.5525 580.473,-129.1743 581.2744,-122.2203"/>
</g>
<!-- Node34&#45;&gt;Node12 -->
<g id="edge51" class="edge">
<title>Node34&#45;&gt;Node12</title>
<path fill="none" stroke="#191970" d="M1014.3073,-168.3959C994.6466,-159.1502 964.1324,-144.7341 937.7869,-132 901.3965,-114.4107 859.6473,-93.7749 832.5533,-80.322"/>
<polygon fill="#191970" stroke="#191970" points="833.7842,-77.0254 823.2714,-75.7096 830.6691,-83.2941 833.7842,-77.0254"/>
</g>
<!-- Node34&#45;&gt;Node16 -->
<g id="edge53" class="edge">
<title>Node34&#45;&gt;Node16</title>
<path fill="none" stroke="#191970" d="M1034.8412,-168.053C1035.467,-153.7239 1038.7525,-127.317 1053.7869,-112 1059.1374,-106.5489 1264.6139,-45.4649 1349.0843,-20.5175"/>
<polygon fill="#191970" stroke="#191970" points="1350.1639,-23.8482 1358.7641,-17.6604 1348.1823,-17.1345 1350.1639,-23.8482"/>
</g>
<!-- Node34&#45;&gt;Node24 -->
<g id="edge57" class="edge">
<title>Node34&#45;&gt;Node24</title>
<path fill="none" stroke="#191970" d="M1044.5414,-168.2455C1052.6517,-160.1352 1064.3794,-148.4075 1073.995,-138.7919"/>
<polygon fill="#191970" stroke="#191970" points="1076.5481,-141.1887 1081.1443,-131.6427 1071.5983,-136.2389 1076.5481,-141.1887"/>
</g>
<!-- Node34&#45;&gt;Node25 -->
<g id="edge54" class="edge">
<title>Node34&#45;&gt;Node25</title>
<path fill="none" stroke="#191970" d="M1056.619,-168.3733C1077.0972,-159.3435 1107.9268,-145.7494 1130.9189,-135.6111"/>
<polygon fill="#191970" stroke="#191970" points="1132.5019,-138.7383 1140.2398,-131.5011 1129.6776,-132.3333 1132.5019,-138.7383"/>
</g>
<!-- Node34&#45;&gt;Node28 -->
<g id="edge52" class="edge">
<title>Node34&#45;&gt;Node28</title>
<path fill="none" stroke="#191970" d="M1089.7748,-168.4369C1145.8088,-158.6918 1232.6836,-143.5832 1292.0163,-133.2645"/>
<polygon fill="#191970" stroke="#191970" points="1292.7734,-136.6854 1302.0258,-131.5237 1291.574,-129.7889 1292.7734,-136.6854"/>
</g>
<!-- Node35 -->
<g id="node36" class="node">
<title>Node35</title>
<polygon fill="none" stroke="#bfbfbf" points="946.7869,-112.5 946.7869,-131.5 1006.7869,-131.5 1006.7869,-112.5 946.7869,-112.5"/>
<text text-anchor="middle" x="976.7869" y="-119.5" font-family="FreeSans.ttf" font-size="10.00" fill="#000000">iostream</text>
</g>
<!-- Node34&#45;&gt;Node35 -->
<g id="edge56" class="edge">
<title>Node34&#45;&gt;Node35</title>
<path fill="none" stroke="#191970" d="M1024.6841,-168.2455C1016.2841,-160.1352 1004.1376,-148.4075 994.1786,-138.7919"/>
<polygon fill="#191970" stroke="#191970" points="996.3991,-136.0707 986.774,-131.6427 991.5369,-141.1066 996.3991,-136.0707"/>
</g>
<!-- Node36&#45;&gt;Node1 -->
<g id="edge65" class="edge">
<title>Node36&#45;&gt;Node1</title>
<path fill="none" stroke="#191970" d="M518.4629,-418.2374C475.0278,-412.4801 420.0183,-400.9769 375.7869,-378 334.344,-356.4716 298.7869,-353.201 298.7869,-306.5 298.7869,-306.5 298.7869,-306.5 298.7869,-239.5 298.7869,-190.4734 339.4775,-190.976 382.7869,-168 426.1209,-145.011 482.0751,-132.5966 516.6857,-126.6439"/>
<polygon fill="#191970" stroke="#191970" points="517.4031,-130.0731 526.7041,-124.9994 516.2692,-123.1655 517.4031,-130.0731"/>
</g>
<!-- Node36&#45;&gt;Node29 -->
<g id="edge62" class="edge">
<title>Node36&#45;&gt;Node29</title>
<path fill="none" stroke="#191970" d="M567.892,-414.3733C545.2787,-405.2629 511.1328,-391.5062 485.8997,-381.3404"/>
<polygon fill="#191970" stroke="#191970" points="486.9536,-377.9917 476.3701,-377.5011 484.3377,-384.4845 486.9536,-377.9917"/>
</g>
<!-- Node36&#45;&gt;Node31 -->
<g id="edge63" class="edge">
<title>Node36&#45;&gt;Node31</title>
<path fill="none" stroke="#191970" d="M595.2033,-414.2286C600.3142,-400.5776 610.96,-375.5085 625.7869,-358 637.9903,-343.5895 654.9521,-330.8604 669.0042,-321.6624"/>
<polygon fill="#191970" stroke="#191970" points="671.1532,-324.4449 677.7391,-316.1457 667.4152,-318.5264 671.1532,-324.4449"/>
</g>
<!-- Node36&#45;&gt;Node34 -->
<g id="edge64" class="edge">
<title>Node36&#45;&gt;Node34</title>
<path fill="none" stroke="#191970" d="M605.6111,-414.3274C625.6844,-400.5709 664.3782,-375.1272 699.7869,-358 819.1536,-300.2625 874.3506,-335.4064 979.7869,-255 1000.207,-239.4275 1016.1966,-214.1624 1025.5525,-196.8482"/>
<polygon fill="#191970" stroke="#191970" points="1028.7953,-198.1967 1030.2779,-187.7061 1022.5769,-194.9825 1028.7953,-198.1967"/>
</g>
<!-- Node37&#45;&gt;Node1 -->
<g id="edge68" class="edge">
<title>Node37&#45;&gt;Node1</title>
<path fill="none" stroke="#191970" d="M800.8729,-168.4369C737.8881,-156.8344 633.6293,-137.6289 581.1222,-127.9565"/>
<polygon fill="#191970" stroke="#191970" points="581.506,-124.4684 571.0373,-126.0988 580.2378,-131.3525 581.506,-124.4684"/>
</g>
<!-- Node37&#45;&gt;Node15 -->
<g id="edge67" class="edge">
<title>Node37&#45;&gt;Node15</title>
<path fill="none" stroke="#191970" d="M863.133,-168.4841C878.5174,-154.6919 908.7397,-128.9474 937.7869,-112 960.5788,-98.7023 987.9475,-87.2418 1009.6835,-79.0861"/>
<polygon fill="#191970" stroke="#191970" points="1011.0574,-82.3102 1019.2373,-75.5767 1008.6437,-75.7394 1011.0574,-82.3102"/>
</g>
<!-- Node38&#45;&gt;Node1 -->
<g id="edge70" class="edge">
<title>Node38&#45;&gt;Node1</title>
<path fill="none" stroke="#191970" d="M560.1275,-538.567C483.0003,-530.3162 377.0598,-516.7216 337.7869,-501 265.2401,-471.9582 222.7869,-446.1439 222.7869,-368 222.7869,-368 222.7869,-368 222.7869,-239.5 222.7869,-195.6456 252.1644,-188.7728 290.7869,-168 329.4379,-147.2119 456.3501,-131.6321 516.55,-125.2161"/>
<polygon fill="#191970" stroke="#191970" points="517.057,-128.6823 526.6384,-124.1604 516.3284,-121.7203 517.057,-128.6823"/>
</g>
<!-- Node38&#45;&gt;Node2 -->
<g id="edge71" class="edge">
<title>Node38&#45;&gt;Node2</title>
<path fill="none" stroke="#191970" d="M560.1331,-538.7291C511.6722,-532.1988 451.0688,-520.7578 399.7869,-501 359.9271,-485.6429 318.6851,-457.3934 294.9531,-439.7129"/>
<polygon fill="#191970" stroke="#191970" points="296.8391,-436.7508 286.7543,-433.5031 292.6127,-442.3309 296.8391,-436.7508"/>
</g>
<!-- Node38&#45;&gt;Node11 -->
<g id="edge72" class="edge">
<title>Node38&#45;&gt;Node11</title>
<path fill="none" stroke="#191970" d="M735.2897,-537.9132C738.4951,-537.6013 741.669,-537.2959 744.7869,-537 893.7943,-522.8572 1408.7869,-573.677 1408.7869,-424 1408.7869,-424 1408.7869,-424 1408.7869,-306.5 1408.7869,-240.0035 1328.7474,-205.9677 1271.2264,-190.0935"/>
<polygon fill="#191970" stroke="#191970" points="1272.0519,-186.6916 1261.4893,-187.5181 1270.2619,-193.4588 1272.0519,-186.6916"/>
</g>
<!-- Node38&#45;&gt;Node12 -->
<g id="edge75" class="edge">
<title>Node38&#45;&gt;Node12</title>
<path fill="none" stroke="#191970" d="M560.2114,-542.6059C465.0077,-536.7338 319.7581,-524.2579 269.7869,-501 192.6935,-465.1187 -37.9629,-296.9165 5.7869,-224 32.9981,-178.6482 63.1906,-191.0612 110.7869,-168 166.6683,-140.9246 178.5737,-127.1714 238.7869,-112 330.6576,-88.8522 603.9267,-74.5034 733.771,-68.8116"/>
<polygon fill="#191970" stroke="#191970" points="734.159,-72.2982 743.998,-68.3683 733.8558,-65.3048 734.159,-72.2982"/>
</g>
<!-- Node38&#45;&gt;Node15 -->
<g id="edge76" class="edge">
<title>Node38&#45;&gt;Node15</title>
<path fill="none" stroke="#191970" d="M735.5384,-537.7593C738.6586,-537.4926 741.749,-537.2383 744.7869,-537 818.8892,-531.187 1345.423,-532.4172 1412.7869,-501 1455.2486,-481.1968 1484.7869,-470.8525 1484.7869,-424 1484.7869,-424 1484.7869,-424 1484.7869,-178 1484.7869,-142.9903 1471.5456,-130.4419 1441.7869,-112 1414.9566,-95.3728 1224.4812,-78.9685 1118.5122,-70.9956"/>
<polygon fill="#191970" stroke="#191970" points="1118.7621,-67.5046 1108.5293,-70.2506 1118.2411,-74.4852 1118.7621,-67.5046"/>
</g>
<!-- Node38&#45;&gt;Node27 -->
<g id="edge73" class="edge">
<title>Node38&#45;&gt;Node27</title>
<path fill="none" stroke="#191970" d="M695.3128,-537.4668C739.3537,-528.5043 806.6386,-514.4857 864.7869,-501 919.7055,-488.2634 932.9798,-483.2079 987.7869,-470 1037.7592,-457.9573 1094.9277,-444.8783 1135.3097,-435.756"/>
<polygon fill="#191970" stroke="#191970" points="1136.2153,-439.1397 1145.2,-433.525 1134.675,-432.3113 1136.2153,-439.1397"/>
</g>
<!-- Node38&#45;&gt;Node28 -->
<g id="edge74" class="edge">
<title>Node38&#45;&gt;Node28</title>
<path fill="none" stroke="#191970" d="M735.5395,-537.7739C738.6595,-537.503 741.7494,-537.2439 744.7869,-537 883.4596,-525.8639 1242.8422,-557.9136 1369.7869,-501 1413.9492,-481.2006 1446.7869,-472.3975 1446.7869,-424 1446.7869,-424 1446.7869,-424 1446.7869,-239.5 1446.7869,-195.4458 1406.4211,-157.6987 1379.7561,-137.5696"/>
<polygon fill="#191970" stroke="#191970" points="1381.7932,-134.7234 1371.6486,-131.6675 1377.6734,-140.3826 1381.7932,-134.7234"/>
</g>
<!-- Node39 -->
<g id="node40" class="node">
<title>Node39</title>
<g id="a_node40"><a xlink:href="Indices_8h.html" target="_top" xlink:title="iDynTree/Model/Indices.h">
<polygon fill="none" stroke="#000000" points="682.7869,-414.5 682.7869,-433.5 820.7869,-433.5 820.7869,-414.5 682.7869,-414.5"/>
<text text-anchor="middle" x="751.7869" y="-421.5" font-family="FreeSans.ttf" font-size="10.00" fill="#000000">iDynTree/Model/Indices.h</text>
</a>
</g>
</g>
<!-- Node38&#45;&gt;Node39 -->
<g id="edge77" class="edge">
<title>Node38&#45;&gt;Node39</title>
<path fill="none" stroke="#191970" d="M652.8353,-537.3833C661.0719,-522.1746 678.4358,-492.0379 697.7869,-470 707.5329,-458.9008 719.9997,-448.1048 730.4986,-439.7642"/>
<polygon fill="#191970" stroke="#191970" points="732.6416,-442.5314 738.4071,-433.6426 728.3569,-436.9959 732.6416,-442.5314"/>
</g>
<!-- Node41 -->
<g id="node42" class="node">
<title>Node41</title>
<g id="a_node42"><a xlink:href="FreeFloatingMatrices_8h.html" target="_top" xlink:title="iDynTree/Model/FreeFloating\lMatrices.h">
<polygon fill="none" stroke="#000000" points="996.7869,-470.5 996.7869,-500.5 1150.7869,-500.5 1150.7869,-470.5 996.7869,-470.5"/>
<text text-anchor="start" x="1004.7869" y="-488.5" font-family="FreeSans.ttf" font-size="10.00" fill="#000000">iDynTree/Model/FreeFloating</text>
<text text-anchor="middle" x="1073.7869" y="-477.5" font-family="FreeSans.ttf" font-size="10.00" fill="#000000">Matrices.h</text>
</a>
</g>
</g>
<!-- Node38&#45;&gt;Node41 -->
<g id="edge80" class="edge">
<title>Node38&#45;&gt;Node41</title>
<path fill="none" stroke="#191970" d="M713.882,-537.4581C787.1682,-526.8781 905.6924,-509.7672 986.5486,-498.0943"/>
<polygon fill="#191970" stroke="#191970" points="987.3127,-501.5203 996.71,-496.6273 986.3125,-494.5921 987.3127,-501.5203"/>
</g>
<!-- Node42 -->
<g id="node43" class="node">
<title>Node42</title>
<g id="a_node43"><a xlink:href="LinkState_8h.html" target="_top" xlink:title="iDynTree/Model/LinkState.h">
<polygon fill="none" stroke="#000000" points="706.2869,-476 706.2869,-495 855.2869,-495 855.2869,-476 706.2869,-476"/>
<text text-anchor="middle" x="780.7869" y="-483" font-family="FreeSans.ttf" font-size="10.00" fill="#000000">iDynTree/Model/LinkState.h</text>
</a>
</g>
</g>
<!-- Node38&#45;&gt;Node42 -->
<g id="edge82" class="edge">
<title>Node38&#45;&gt;Node42</title>
<path fill="none" stroke="#191970" d="M668.5682,-537.3906C690.6263,-527.1908 725.6919,-510.9763 750.7539,-499.3875"/>
<polygon fill="#191970" stroke="#191970" points="752.544,-502.4158 760.1516,-495.0419 749.606,-496.0622 752.544,-502.4158"/>
</g>
<!-- Node39&#45;&gt;Node1 -->
<g id="edge78" class="edge">
<title>Node39&#45;&gt;Node1</title>
<path fill="none" stroke="#191970" d="M732.962,-414.4235C704.1441,-398.8463 649.1433,-365.352 617.7869,-322 576.2342,-264.551 558.1148,-180.0266 551.7151,-141.9212"/>
<polygon fill="#191970" stroke="#191970" points="555.1125,-140.9969 550.0923,-131.667 548.1985,-142.0912 555.1125,-140.9969"/>
</g>
<!-- Node40 -->
<g id="node41" class="node">
<title>Node40</title>
<polygon fill="none" stroke="#bfbfbf" points="708.7869,-358.5 708.7869,-377.5 794.7869,-377.5 794.7869,-358.5 708.7869,-358.5"/>
<text text-anchor="middle" x="751.7869" y="-365.5" font-family="FreeSans.ttf" font-size="10.00" fill="#000000">ModelExport.h</text>
</g>
<!-- Node39&#45;&gt;Node40 -->
<g id="edge79" class="edge">
<title>Node39&#45;&gt;Node40</title>
<path fill="none" stroke="#191970" d="M751.7869,-414.2455C751.7869,-406.9382 751.7869,-396.6944 751.7869,-387.7046"/>
<polygon fill="#191970" stroke="#191970" points="755.287,-387.6426 751.7869,-377.6427 748.287,-387.6427 755.287,-387.6426"/>
</g>
<!-- Node41&#45;&gt;Node27 -->
<g id="edge81" class="edge">
<title>Node41&#45;&gt;Node27</title>
<path fill="none" stroke="#191970" d="M1101.6745,-470.4554C1119.6946,-460.734 1143.0211,-448.15 1160.8501,-438.5317"/>
<polygon fill="#191970" stroke="#191970" points="1162.9818,-441.3586 1170.121,-433.5303 1159.6582,-435.1979 1162.9818,-441.3586"/>
</g>
<!-- Node42&#45;&gt;Node2 -->
<g id="edge98" class="edge">
<title>Node42&#45;&gt;Node2</title>
<path fill="none" stroke="#191970" d="M706.1249,-476.4255C594.5728,-462.8673 388.9072,-437.8703 308.3741,-428.0822"/>
<polygon fill="#191970" stroke="#191970" points="308.6526,-424.5904 298.3034,-426.8582 307.808,-431.5393 308.6526,-424.5904"/>
</g>
<!-- Node42&#45;&gt;Node36 -->
<g id="edge83" class="edge">
<title>Node42&#45;&gt;Node36</title>
<path fill="none" stroke="#191970" d="M751.2557,-475.8906C718.8003,-465.3298 666.5289,-448.3208 630.7384,-436.6747"/>
<polygon fill="#191970" stroke="#191970" points="631.7031,-433.308 621.1108,-433.5419 629.537,-439.9645 631.7031,-433.308"/>
</g>
<!-- Node42&#45;&gt;Node39 -->
<g id="edge97" class="edge">
<title>Node42&#45;&gt;Node39</title>
<path fill="none" stroke="#191970" d="M776.2557,-475.8906C772.1089,-467.0965 765.8537,-453.8312 760.706,-442.9145"/>
<polygon fill="#191970" stroke="#191970" points="763.8129,-441.2969 756.3821,-433.7449 757.4815,-444.2825 763.8129,-441.2969"/>
</g>
<!-- Node43 -->
<g id="node44" class="node">
<title>Node43</title>
<g id="a_node44"><a xlink:href="Twist_8h.html" target="_top" xlink:title="iDynTree/Core/Twist.h">
<polygon fill="none" stroke="#000000" points="1042.7869,-358.5 1042.7869,-377.5 1164.7869,-377.5 1164.7869,-358.5 1042.7869,-358.5"/>
<text text-anchor="middle" x="1103.7869" y="-365.5" font-family="FreeSans.ttf" font-size="10.00" fill="#000000">iDynTree/Core/Twist.h</text>
</a>
</g>
</g>
<!-- Node42&#45;&gt;Node43 -->
<g id="edge84" class="edge">
<title>Node42&#45;&gt;Node43</title>
<path fill="none" stroke="#191970" d="M800.3951,-475.9617C830.8233,-461.3876 891.4681,-433.2441 944.7869,-414 981.4938,-400.7516 1024.0001,-388.6144 1055.8233,-380.1377"/>
<polygon fill="#191970" stroke="#191970" points="1056.9824,-383.4518 1065.7592,-377.5174 1055.1973,-376.6832 1056.9824,-383.4518"/>
</g>
<!-- Node46 -->
<g id="node46" class="node">
<title>Node46</title>
<g id="a_node46"><a xlink:href="SpatialAcc_8h.html" target="_top" xlink:title="iDynTree/Core/SpatialAcc.h">
<polygon fill="none" stroke="#000000" points="876.7869,-358.5 876.7869,-377.5 1024.7869,-377.5 1024.7869,-358.5 876.7869,-358.5"/>
<text text-anchor="middle" x="950.7869" y="-365.5" font-family="FreeSans.ttf" font-size="10.00" fill="#000000">iDynTree/Core/SpatialAcc.h</text>
</a>
</g>
</g>
<!-- Node42&#45;&gt;Node46 -->
<g id="edge88" class="edge">
<title>Node42&#45;&gt;Node46</title>
<path fill="none" stroke="#191970" d="M797.0677,-475.8208C813.7993,-465.7474 840.4816,-449.3303 862.7869,-434 886.509,-417.6961 912.8029,-397.7115 930.4168,-384.0323"/>
<polygon fill="#191970" stroke="#191970" points="933.0476,-386.4188 938.7769,-377.5066 928.7404,-380.9008 933.0476,-386.4188"/>
</g>
<!-- Node47 -->
<g id="node47" class="node">
<title>Node47</title>
<g id="a_node47"><a xlink:href="Wrench_8h.html" target="_top" xlink:title="iDynTree/Core/Wrench.h">
<polygon fill="none" stroke="#000000" points="953.2869,-414.5 953.2869,-433.5 1086.2869,-433.5 1086.2869,-414.5 953.2869,-414.5"/>
<text text-anchor="middle" x="1019.7869" y="-421.5" font-family="FreeSans.ttf" font-size="10.00" fill="#000000">iDynTree/Core/Wrench.h</text>
</a>
</g>
</g>
<!-- Node42&#45;&gt;Node47 -->
<g id="edge90" class="edge">
<title>Node42&#45;&gt;Node47</title>
<path fill="none" stroke="#191970" d="M817.8685,-475.9581C859.5567,-465.2308 927.3366,-447.7895 972.7253,-436.11"/>
<polygon fill="#191970" stroke="#191970" points="973.8062,-439.446 982.6184,-433.5643 972.0617,-432.6668 973.8062,-439.446"/>
</g>
<!-- Node49 -->
<g id="node49" class="node">
<title>Node49</title>
<g id="a_node49"><a xlink:href="ArticulatedBodyInertia_8h.html" target="_top" xlink:title="iDynTree/Core/Articulated\lBodyInertia.h">
<polygon fill="none" stroke="#000000" points="829.2869,-224.5 829.2869,-254.5 970.2869,-254.5 970.2869,-224.5 829.2869,-224.5"/>
<text text-anchor="start" x="837.2869" y="-242.5" font-family="FreeSans.ttf" font-size="10.00" fill="#000000">iDynTree/Core/Articulated</text>
<text text-anchor="middle" x="899.7869" y="-231.5" font-family="FreeSans.ttf" font-size="10.00" fill="#000000">BodyInertia.h</text>
</a>
</g>
</g>
<!-- Node42&#45;&gt;Node49 -->
<g id="edge94" class="edge">
<title>Node42&#45;&gt;Node49</title>
<path fill="none" stroke="#191970" d="M792.3287,-475.9319C803.2804,-466.3215 819.5451,-450.5931 829.7869,-434 864.2464,-378.1713 885.1869,-302.8922 894.3438,-264.4123"/>
<polygon fill="#191970" stroke="#191970" points="897.7741,-265.1128 896.6155,-254.5815 890.9538,-263.5368 897.7741,-265.1128"/>
</g>
<!-- Node44 -->
<g id="node45" class="node">
<title>Node44</title>
<g id="a_node45"><a xlink:href="SpatialMotionVector_8h.html" target="_top" xlink:title="iDynTree/Core/SpatialMotion\lVector.h">
<polygon fill="none" stroke="#ff0000" points="945.2869,-291.5 945.2869,-321.5 1100.2869,-321.5 1100.2869,-291.5 945.2869,-291.5"/>
<text text-anchor="start" x="953.2869" y="-309.5" font-family="FreeSans.ttf" font-size="10.00" fill="#000000">iDynTree/Core/SpatialMotion</text>
<text text-anchor="middle" x="1022.7869" y="-298.5" font-family="FreeSans.ttf" font-size="10.00" fill="#000000">Vector.h</text>
</a>
</g>
</g>
<!-- Node43&#45;&gt;Node44 -->
<g id="edge85" class="edge">
<title>Node43&#45;&gt;Node44</title>
<path fill="none" stroke="#191970" d="M1091.1307,-358.3906C1080.3713,-350.2215 1064.5304,-338.1941 1050.8079,-327.7752"/>
<polygon fill="#191970" stroke="#191970" points="1052.6827,-324.8042 1042.6018,-321.5446 1048.4498,-330.3793 1052.6827,-324.8042"/>
</g>
<!-- Node44&#45;&gt;Node11 -->
<g id="edge86" class="edge">
<title>Node44&#45;&gt;Node11</title>
<path fill="none" stroke="#191970" d="M1100.3074,-292.7457C1158.2688,-281.6732 1228.9772,-266.1692 1237.7869,-255 1251.3959,-237.7462 1239.2997,-212.7091 1227.9004,-195.9159"/>
<polygon fill="#191970" stroke="#191970" points="1230.5188,-193.5654 1221.8068,-187.5362 1224.8574,-197.6824 1230.5188,-193.5654"/>
</g>
<!-- Node44&#45;&gt;Node32 -->
<g id="edge87" class="edge">
<title>Node44&#45;&gt;Node32</title>
<path fill="none" stroke="#191970" d="M1050.615,-291.4639C1071.4206,-280.2222 1099.6924,-264.9463 1120.1942,-253.8686"/>
<polygon fill="#191970" stroke="#191970" points="1121.8785,-256.9369 1129.0125,-249.1039 1118.5508,-250.7784 1121.8785,-256.9369"/>
</g>
<!-- Node46&#45;&gt;Node44 -->
<g id="edge89" class="edge">
<title>Node46&#45;&gt;Node44</title>
<path fill="none" stroke="#191970" d="M962.0369,-358.3906C971.5106,-350.2986 985.4163,-338.4207 997.5337,-328.0705"/>
<polygon fill="#191970" stroke="#191970" points="999.8432,-330.7008 1005.1738,-321.5446 995.2968,-325.3782 999.8432,-330.7008"/>
</g>
<!-- Node48 -->
<g id="node48" class="node">
<title>Node48</title>
<g id="a_node48"><a xlink:href="SpatialForceVector_8h.html" target="_top" xlink:title="iDynTree/Core/SpatialForce\lVector.h">
<polygon fill="none" stroke="#ff0000" points="1118.7869,-291.5 1118.7869,-321.5 1266.7869,-321.5 1266.7869,-291.5 1118.7869,-291.5"/>
<text text-anchor="start" x="1126.7869" y="-309.5" font-family="FreeSans.ttf" font-size="10.00" fill="#000000">iDynTree/Core/SpatialForce</text>
<text text-anchor="middle" x="1192.7869" y="-298.5" font-family="FreeSans.ttf" font-size="10.00" fill="#000000">Vector.h</text>
</a>
</g>
</g>
<!-- Node47&#45;&gt;Node48 -->
<g id="edge91" class="edge">
<title>Node47&#45;&gt;Node48</title>
<path fill="none" stroke="#191970" d="M1070.4224,-414.4299C1109.5191,-406.0569 1159.3137,-392.922 1173.7869,-378 1185.5881,-365.8329 1190.2713,-347.2095 1192.0391,-332.0196"/>
<polygon fill="#191970" stroke="#191970" points="1195.5555,-331.9564 1192.8712,-321.7073 1188.5782,-331.3934 1195.5555,-331.9564"/>
</g>
<!-- Node48&#45;&gt;Node11 -->
<g id="edge92" class="edge">
<title>Node48&#45;&gt;Node11</title>
<path fill="none" stroke="#191970" d="M1230.4781,-291.3598C1245.8831,-283.0741 1262.0987,-271.1476 1270.7869,-255 1277.3151,-242.867 1276.7288,-236.4307 1270.7869,-224 1264.6421,-211.1449 1252.957,-200.7306 1241.7585,-193.0832"/>
<polygon fill="#191970" stroke="#191970" points="1243.3209,-189.9304 1232.997,-187.5495 1239.5828,-195.8488 1243.3209,-189.9304"/>
</g>
<!-- Node48&#45;&gt;Node32 -->
<g id="edge93" class="edge">
<title>Node48&#45;&gt;Node32</title>
<path fill="none" stroke="#191970" d="M1182.3488,-291.2967C1175.4601,-281.2631 1166.4028,-268.0709 1159.1529,-257.5113"/>
<polygon fill="#191970" stroke="#191970" points="1161.8926,-255.318 1153.3471,-249.055 1156.1218,-259.28 1161.8926,-255.318"/>
</g>
<!-- Node49&#45;&gt;Node1 -->
<g id="edge96" class="edge">
<title>Node49&#45;&gt;Node1</title>
<path fill="none" stroke="#191970" d="M846.442,-224.4573C812.3388,-214.6117 767.2603,-201.1725 727.7869,-188 675.6632,-170.606 615.9219,-148.0381 580.3269,-134.3073"/>
<polygon fill="#191970" stroke="#191970" points="581.5433,-131.0252 570.954,-130.6806 579.0171,-137.5535 581.5433,-131.0252"/>
</g>
<!-- Node49&#45;&gt;Node34 -->
<g id="edge95" class="edge">
<title>Node49&#45;&gt;Node34</title>
<path fill="none" stroke="#191970" d="M932.8117,-224.4554C954.744,-214.464 983.3142,-201.4487 1004.6322,-191.7372"/>
<polygon fill="#191970" stroke="#191970" points="1006.2175,-194.8611 1013.8667,-187.5303 1003.3155,-188.4909 1006.2175,-194.8611"/>
</g>
</g>
</svg>
