<?xml version="1.0" encoding="UTF-8" standalone="no"?>
<!DOCTYPE svg PUBLIC "-//W3C//DTD SVG 1.1//EN"
 "http://www.w3.org/Graphics/SVG/1.1/DTD/svg11.dtd">
<!-- Generated by graphviz version 2.40.1 (20161225.0304)
 -->
<!-- Title: OptimalControlProblem.h Pages: 1 -->
<svg width="1395pt" height="532pt"
 viewBox="0.00 0.00 1395.03 532.00" xmlns="http://www.w3.org/2000/svg" xmlns:xlink="http://www.w3.org/1999/xlink">
<g id="graph0" class="graph" transform="scale(1 1) rotate(0) translate(4 528)">
<title>OptimalControlProblem.h</title>
<!-- Node0 -->
<g id="node1" class="node">
<title>Node0</title>
<polygon fill="#bfbfbf" stroke="#000000" points="73,-504.5 73,-523.5 213,-523.5 213,-504.5 73,-504.5"/>
<text text-anchor="middle" x="143" y="-511.5" font-family="FreeSans.ttf" font-size="10.00" fill="#000000">OptimalControlProblem.h</text>
</g>
<!-- Node1 -->
<g id="node2" class="node">
<title>Node1</title>
<polygon fill="none" stroke="#bfbfbf" points="0,-448.5 0,-467.5 58,-467.5 58,-448.5 0,-448.5"/>
<text text-anchor="middle" x="29" y="-455.5" font-family="FreeSans.ttf" font-size="10.00" fill="#000000">memory</text>
</g>
<!-- Node0&#45;&gt;Node1 -->
<g id="edge1" class="edge">
<title>Node0&#45;&gt;Node1</title>
<path fill="none" stroke="#191970" d="M123.4027,-504.3733C105.2669,-495.4644 78.0865,-482.1127 57.5413,-472.0203"/>
<polygon fill="#191970" stroke="#191970" points="58.8603,-468.7688 48.3416,-467.5011 55.7739,-475.0517 58.8603,-468.7688"/>
</g>
<!-- Node2 -->
<g id="node3" class="node">
<title>Node2</title>
<polygon fill="none" stroke="#bfbfbf" points="74.5,-112.5 74.5,-131.5 121.5,-131.5 121.5,-112.5 74.5,-112.5"/>
<text text-anchor="middle" x="98" y="-119.5" font-family="FreeSans.ttf" font-size="10.00" fill="#000000">vector</text>
</g>
<!-- Node0&#45;&gt;Node2 -->
<g id="edge2" class="edge">
<title>Node0&#45;&gt;Node2</title>
<path fill="none" stroke="#191970" d="M134.0938,-504.3544C118.0625,-485.945 86,-443.8901 86,-402 86,-402 86,-402 86,-234 86,-201.3778 91.0954,-163.7135 94.6456,-141.4301"/>
<polygon fill="#191970" stroke="#191970" points="98.1007,-141.9887 96.2807,-131.5514 91.1947,-140.8456 98.1007,-141.9887"/>
</g>
<!-- Node3 -->
<g id="node4" class="node">
<title>Node3</title>
<polygon fill="none" stroke="#bfbfbf" points="712,-112.5 712,-131.5 756,-131.5 756,-112.5 712,-112.5"/>
<text text-anchor="middle" x="734" y="-119.5" font-family="FreeSans.ttf" font-size="10.00" fill="#000000">string</text>
</g>
<!-- Node0&#45;&gt;Node3 -->
<g id="edge3" class="edge">
<title>Node0&#45;&gt;Node3</title>
<path fill="none" stroke="#191970" d="M140.1965,-504.2066C134.9113,-484.8521 124,-440.2612 124,-402 124,-402 124,-402 124,-234 124,-195.2415 146.4567,-185.5779 181,-168 227.4289,-144.3739 590.1743,-127.8335 701.5729,-123.2713"/>
<polygon fill="#191970" stroke="#191970" points="701.9941,-126.7572 711.8444,-122.8555 701.711,-119.7629 701.9941,-126.7572"/>
</g>
<!-- Node4 -->
<g id="node5" class="node">
<title>Node4</title>
<g id="a_node5"><a xlink:href="Utils_8h.html" target="_top" xlink:title="iDynTree/Core/Utils.h">
<polygon fill="none" stroke="#000000" points="376.5,-56.5 376.5,-75.5 495.5,-75.5 495.5,-56.5 376.5,-56.5"/>
<text text-anchor="middle" x="436" y="-63.5" font-family="FreeSans.ttf" font-size="10.00" fill="#000000">iDynTree/Core/Utils.h</text>
</a>
</g>
</g>
<!-- Node0&#45;&gt;Node4 -->
<g id="edge4" class="edge">
<title>Node0&#45;&gt;Node4</title>
<path fill="none" stroke="#191970" d="M145.8035,-504.2066C151.0887,-484.8521 162,-440.2612 162,-402 162,-402 162,-402 162,-178 162,-131.9211 296.455,-95.4398 376.9913,-77.7211"/>
<polygon fill="#191970" stroke="#191970" points="377.9812,-81.088 387.0143,-75.5513 376.5001,-74.2465 377.9812,-81.088"/>
</g>
<!-- Node7 -->
<g id="node8" class="node">
<title>Node7</title>
<g id="a_node8"><a xlink:href="SparsityStructure_8h.html" target="_top" xlink:title="iDynTree/SparsityStructure.h">
<polygon fill="none" stroke="#000000" points="190.5,-168.5 190.5,-187.5 345.5,-187.5 345.5,-168.5 190.5,-168.5"/>
<text text-anchor="middle" x="268" y="-175.5" font-family="FreeSans.ttf" font-size="10.00" fill="#000000">iDynTree/SparsityStructure.h</text>
</a>
</g>
</g>
<!-- Node0&#45;&gt;Node7 -->
<g id="edge7" class="edge">
<title>Node0&#45;&gt;Node7</title>
<path fill="none" stroke="#191970" d="M158.851,-504.4609C184.9231,-487.4246 234,-449.1008 234,-402 234,-402 234,-402 234,-290 234,-255.9677 248.5515,-218.5293 258.6151,-196.7067"/>
<polygon fill="#191970" stroke="#191970" points="261.819,-198.1198 262.9832,-187.5891 255.5061,-195.0954 261.819,-198.1198"/>
</g>
<!-- Node9 -->
<g id="node10" class="node">
<title>Node9</title>
<g id="a_node10"><a xlink:href="TimeVaryingObject_8h.html" target="_top" xlink:title="iDynTree/TimeVaryingObject.h">
<polygon fill="none" stroke="#000000" points="440,-448.5 440,-467.5 604,-467.5 604,-448.5 440,-448.5"/>
<text text-anchor="middle" x="522" y="-455.5" font-family="FreeSans.ttf" font-size="10.00" fill="#000000">iDynTree/TimeVaryingObject.h</text>
</a>
</g>
</g>
<!-- Node0&#45;&gt;Node9 -->
<g id="edge13" class="edge">
<title>Node0&#45;&gt;Node9</title>
<path fill="none" stroke="#191970" d="M207.7218,-504.4369C274.2199,-494.6113 377.6206,-479.3331 447.4885,-469.0096"/>
<polygon fill="#191970" stroke="#191970" points="448.1642,-472.4479 457.5452,-467.5237 447.1409,-465.523 448.1642,-472.4479"/>
</g>
<!-- Node5 -->
<g id="node6" class="node">
<title>Node5</title>
<polygon fill="none" stroke="#bfbfbf" points="324.5,-.5 324.5,-19.5 377.5,-19.5 377.5,-.5 324.5,-.5"/>
<text text-anchor="middle" x="351" y="-7.5" font-family="FreeSans.ttf" font-size="10.00" fill="#000000">cstddef</text>
</g>
<!-- Node4&#45;&gt;Node5 -->
<g id="edge5" class="edge">
<title>Node4&#45;&gt;Node5</title>
<path fill="none" stroke="#191970" d="M421.1941,-56.2455C408.2744,-47.7337 389.3069,-35.2375 374.3448,-25.3801"/>
<polygon fill="#191970" stroke="#191970" points="375.9124,-22.2216 365.6362,-19.6427 372.0613,-28.067 375.9124,-22.2216"/>
</g>
<!-- Node6 -->
<g id="node7" class="node">
<title>Node6</title>
<polygon fill="none" stroke="#bfbfbf" points="396,-.5 396,-19.5 476,-19.5 476,-.5 396,-.5"/>
<text text-anchor="middle" x="436" y="-7.5" font-family="FreeSans.ttf" font-size="10.00" fill="#000000">CoreExport.h</text>
</g>
<!-- Node4&#45;&gt;Node6 -->
<g id="edge6" class="edge">
<title>Node4&#45;&gt;Node6</title>
<path fill="none" stroke="#191970" d="M436,-56.2455C436,-48.9382 436,-38.6944 436,-29.7046"/>
<polygon fill="#191970" stroke="#191970" points="439.5001,-29.6426 436,-19.6427 432.5001,-29.6427 439.5001,-29.6426"/>
</g>
<!-- Node7&#45;&gt;Node2 -->
<g id="edge9" class="edge">
<title>Node7&#45;&gt;Node2</title>
<path fill="none" stroke="#191970" d="M238.776,-168.3733C208.88,-158.5252 162.5026,-143.2479 131.2286,-132.9459"/>
<polygon fill="#191970" stroke="#191970" points="132.2385,-129.5936 121.6455,-129.7891 130.0483,-136.2422 132.2385,-129.5936"/>
</g>
<!-- Node7&#45;&gt;Node3 -->
<g id="edge12" class="edge">
<title>Node7&#45;&gt;Node3</title>
<path fill="none" stroke="#191970" d="M345.7356,-168.6584C449.6447,-156.1715 629.1619,-134.5986 701.9527,-125.8512"/>
<polygon fill="#191970" stroke="#191970" points="702.3853,-129.3245 711.8962,-124.6562 701.55,-122.3745 702.3853,-129.3245"/>
</g>
<!-- Node7&#45;&gt;Node4 -->
<g id="edge8" class="edge">
<title>Node7&#45;&gt;Node4</title>
<path fill="none" stroke="#191970" d="M274.2475,-168.2229C283.7041,-154.1054 302.91,-127.9596 325,-112 345.235,-97.3806 370.808,-86.3772 392.3065,-78.8038"/>
<polygon fill="#191970" stroke="#191970" points="393.5162,-82.0894 401.8636,-75.5648 391.2693,-75.4598 393.5162,-82.0894"/>
</g>
<!-- Node7&#45;&gt;Node5 -->
<g id="edge10" class="edge">
<title>Node7&#45;&gt;Node5</title>
<path fill="none" stroke="#191970" d="M272.5229,-168.1126C278.4738,-155.1641 289.3142,-131.7834 299,-112 313.3558,-82.6781 330.6961,-48.9936 341.2816,-28.615"/>
<polygon fill="#191970" stroke="#191970" points="344.508,-29.997 346.0215,-19.5108 338.2991,-26.7644 344.508,-29.997"/>
</g>
<!-- Node8 -->
<g id="node9" class="node">
<title>Node8</title>
<polygon fill="none" stroke="#bfbfbf" points="334,-112.5 334,-131.5 420,-131.5 420,-112.5 334,-112.5"/>
<text text-anchor="middle" x="377" y="-119.5" font-family="FreeSans.ttf" font-size="10.00" fill="#000000">unordered_set</text>
</g>
<!-- Node7&#45;&gt;Node8 -->
<g id="edge11" class="edge">
<title>Node7&#45;&gt;Node8</title>
<path fill="none" stroke="#191970" d="M286.9864,-168.2455C304.1792,-159.4125 329.7238,-146.2887 349.2132,-136.2758"/>
<polygon fill="#191970" stroke="#191970" points="350.9359,-139.3257 358.2312,-131.6427 347.737,-133.0993 350.9359,-139.3257"/>
</g>
<!-- Node10 -->
<g id="node11" class="node">
<title>Node10</title>
<g id="a_node11"><a xlink:href="VectorDynSize_8h.html" target="_top" xlink:title="iDynTree/Core/VectorDynSize.h">
<polygon fill="none" stroke="#000000" points="363.5,-168.5 363.5,-187.5 530.5,-187.5 530.5,-168.5 363.5,-168.5"/>
<text text-anchor="middle" x="447" y="-175.5" font-family="FreeSans.ttf" font-size="10.00" fill="#000000">iDynTree/Core/VectorDynSize.h</text>
</a>
</g>
</g>
<!-- Node9&#45;&gt;Node10 -->
<g id="edge14" class="edge">
<title>Node9&#45;&gt;Node10</title>
<path fill="none" stroke="#191970" d="M516.393,-448.4834C505.8226,-429.6141 484,-385.8343 484,-346 484,-346 484,-346 484,-290 484,-255.7041 468.1646,-218.3471 457.213,-196.6122"/>
<polygon fill="#191970" stroke="#191970" points="460.1994,-194.7704 452.4595,-187.5354 453.9982,-198.0179 460.1994,-194.7704"/>
</g>
<!-- Node20 -->
<g id="node21" class="node">
<title>Node20</title>
<g id="a_node21"><a xlink:href="MatrixDynSize_8h.html" target="_top" xlink:title="iDynTree/Core/MatrixDynSize.h">
<polygon fill="none" stroke="#000000" points="548.5,-168.5 548.5,-187.5 715.5,-187.5 715.5,-168.5 548.5,-168.5"/>
<text text-anchor="middle" x="632" y="-175.5" font-family="FreeSans.ttf" font-size="10.00" fill="#000000">iDynTree/Core/MatrixDynSize.h</text>
</a>
</g>
</g>
<!-- Node9&#45;&gt;Node20 -->
<g id="edge26" class="edge">
<title>Node9&#45;&gt;Node20</title>
<path fill="none" stroke="#191970" d="M527.4595,-448.4646C537.7516,-429.5623 559,-385.7274 559,-346 559,-346 559,-346 559,-290 559,-250.8965 590.6171,-214.7535 612.2361,-194.6105"/>
<polygon fill="#191970" stroke="#191970" points="614.8346,-196.9817 619.9455,-187.7011 610.1627,-191.7688 614.8346,-196.9817"/>
</g>
<!-- Node22 -->
<g id="node23" class="node">
<title>Node22</title>
<g id="a_node23"><a xlink:href="Transform_8h.html" target="_top" xlink:title="iDynTree/Core/Transform.h">
<polygon fill="none" stroke="#000000" points="789,-392.5 789,-411.5 935,-411.5 935,-392.5 789,-392.5"/>
<text text-anchor="middle" x="862" y="-399.5" font-family="FreeSans.ttf" font-size="10.00" fill="#000000">iDynTree/Core/Transform.h</text>
</a>
</g>
</g>
<!-- Node9&#45;&gt;Node22 -->
<g id="edge33" class="edge">
<title>Node9&#45;&gt;Node22</title>
<path fill="none" stroke="#191970" d="M580.0618,-448.4369C639.3503,-438.6717 731.3384,-423.5207 793.9965,-413.2006"/>
<polygon fill="#191970" stroke="#191970" points="794.8795,-416.6024 804.1777,-411.5237 793.7418,-409.6954 794.8795,-416.6024"/>
</g>
<!-- Node10&#45;&gt;Node3 -->
<g id="edge25" class="edge">
<title>Node10&#45;&gt;Node3</title>
<path fill="none" stroke="#191970" d="M496.011,-168.4369C554.9011,-156.9461 652.0103,-137.998 702.0276,-128.2385"/>
<polygon fill="#191970" stroke="#191970" points="702.8106,-131.6518 711.9552,-126.3014 701.47,-124.7814 702.8106,-131.6518"/>
</g>
<!-- Node11 -->
<g id="node12" class="node">
<title>Node11</title>
<g id="a_node12"><a xlink:href="Span_8h.html" target="_top" xlink:title="iDynTree/Core/Span.h">
<polygon fill="none" stroke="#000000" points="705.5,-56.5 705.5,-75.5 826.5,-75.5 826.5,-56.5 705.5,-56.5"/>
<text text-anchor="middle" x="766" y="-63.5" font-family="FreeSans.ttf" font-size="10.00" fill="#000000">iDynTree/Core/Span.h</text>
</a>
</g>
</g>
<!-- Node10&#45;&gt;Node11 -->
<g id="edge15" class="edge">
<title>Node10&#45;&gt;Node11</title>
<path fill="none" stroke="#191970" d="M474.1978,-168.4509C531.4053,-148.3655 664.238,-101.7284 729.0715,-78.9655"/>
<polygon fill="#191970" stroke="#191970" points="730.5952,-82.1401 738.8711,-75.5249 728.2762,-75.5353 730.5952,-82.1401"/>
</g>
<!-- Node11&#45;&gt;Node5 -->
<g id="edge19" class="edge">
<title>Node11&#45;&gt;Node5</title>
<path fill="none" stroke="#191970" d="M705.4968,-61.4766C632.3708,-55.3818 505.5119,-42.8025 387.5549,-19.8385"/>
<polygon fill="#191970" stroke="#191970" points="388.1181,-16.3822 377.6293,-17.8771 386.761,-23.2494 388.1181,-16.3822"/>
</g>
<!-- Node12 -->
<g id="node13" class="node">
<title>Node12</title>
<polygon fill="none" stroke="#bfbfbf" points="1004,-.5 1004,-19.5 1056,-19.5 1056,-.5 1004,-.5"/>
<text text-anchor="middle" x="1030" y="-7.5" font-family="FreeSans.ttf" font-size="10.00" fill="#000000">cassert</text>
</g>
<!-- Node11&#45;&gt;Node12 -->
<g id="edge16" class="edge">
<title>Node11&#45;&gt;Node12</title>
<path fill="none" stroke="#191970" d="M819.9409,-56.4262C864.2426,-48.2776 928.8147,-35.7497 993.6951,-20.1835"/>
<polygon fill="#191970" stroke="#191970" points="994.7923,-23.519 1003.6867,-17.7623 993.1437,-16.7159 994.7923,-23.519"/>
</g>
<!-- Node13 -->
<g id="node14" class="node">
<title>Node13</title>
<polygon fill="none" stroke="#bfbfbf" points="494,-.5 494,-19.5 558,-19.5 558,-.5 494,-.5"/>
<text text-anchor="middle" x="526" y="-7.5" font-family="FreeSans.ttf" font-size="10.00" fill="#000000">algorithm</text>
</g>
<!-- Node11&#45;&gt;Node13 -->
<g id="edge17" class="edge">
<title>Node11&#45;&gt;Node13</title>
<path fill="none" stroke="#191970" d="M724.0371,-56.4547C685.8647,-47.737 627.7024,-34.3681 568.1718,-20.2599"/>
<polygon fill="#191970" stroke="#191970" points="568.7581,-16.8018 558.2201,-17.8974 567.1413,-23.6126 568.7581,-16.8018"/>
</g>
<!-- Node14 -->
<g id="node15" class="node">
<title>Node14</title>
<polygon fill="none" stroke="#bfbfbf" points="576,-.5 576,-19.5 618,-19.5 618,-.5 576,-.5"/>
<text text-anchor="middle" x="597" y="-7.5" font-family="FreeSans.ttf" font-size="10.00" fill="#000000">array</text>
</g>
<!-- Node11&#45;&gt;Node14 -->
<g id="edge18" class="edge">
<title>Node11&#45;&gt;Node14</title>
<path fill="none" stroke="#191970" d="M736.9479,-56.3733C706.5933,-46.3149 659.1473,-30.5932 628.0629,-20.293"/>
<polygon fill="#191970" stroke="#191970" points="628.7902,-16.8469 618.1968,-17.0238 626.5883,-23.4916 628.7902,-16.8469"/>
</g>
<!-- Node15 -->
<g id="node16" class="node">
<title>Node15</title>
<polygon fill="none" stroke="#bfbfbf" points="636.5,-.5 636.5,-19.5 689.5,-19.5 689.5,-.5 636.5,-.5"/>
<text text-anchor="middle" x="663" y="-7.5" font-family="FreeSans.ttf" font-size="10.00" fill="#000000">iterator</text>
</g>
<!-- Node11&#45;&gt;Node15 -->
<g id="edge20" class="edge">
<title>Node11&#45;&gt;Node15</title>
<path fill="none" stroke="#191970" d="M748.0588,-56.2455C731.96,-47.4928 708.1121,-34.527 689.7609,-24.5496"/>
<polygon fill="#191970" stroke="#191970" points="691.1929,-21.3444 680.7356,-19.6427 687.8493,-27.4942 691.1929,-21.3444"/>
</g>
<!-- Node16 -->
<g id="node17" class="node">
<title>Node16</title>
<polygon fill="none" stroke="#bfbfbf" points="708,-.5 708,-19.5 752,-19.5 752,-.5 708,-.5"/>
<text text-anchor="middle" x="730" y="-7.5" font-family="FreeSans.ttf" font-size="10.00" fill="#000000">limits</text>
</g>
<!-- Node11&#45;&gt;Node16 -->
<g id="edge21" class="edge">
<title>Node11&#45;&gt;Node16</title>
<path fill="none" stroke="#191970" d="M759.7293,-56.2455C754.7736,-48.5367 747.717,-37.5598 741.7224,-28.2348"/>
<polygon fill="#191970" stroke="#191970" points="744.5506,-26.1618 736.1989,-19.6427 738.6624,-29.9471 744.5506,-26.1618"/>
</g>
<!-- Node17 -->
<g id="node18" class="node">
<title>Node17</title>
<polygon fill="none" stroke="#bfbfbf" points="770.5,-.5 770.5,-19.5 835.5,-19.5 835.5,-.5 770.5,-.5"/>
<text text-anchor="middle" x="803" y="-7.5" font-family="FreeSans.ttf" font-size="10.00" fill="#000000">stdexcept</text>
</g>
<!-- Node11&#45;&gt;Node17 -->
<g id="edge22" class="edge">
<title>Node11&#45;&gt;Node17</title>
<path fill="none" stroke="#191970" d="M772.4449,-56.2455C777.5382,-48.5367 784.7908,-37.5598 790.952,-28.2348"/>
<polygon fill="#191970" stroke="#191970" points="794.0365,-29.9155 796.6289,-19.6427 788.1962,-26.0566 794.0365,-29.9155"/>
</g>
<!-- Node18 -->
<g id="node19" class="node">
<title>Node18</title>
<polygon fill="none" stroke="#bfbfbf" points="916.5,-.5 916.5,-19.5 985.5,-19.5 985.5,-.5 916.5,-.5"/>
<text text-anchor="middle" x="951" y="-7.5" font-family="FreeSans.ttf" font-size="10.00" fill="#000000">type_traits</text>
</g>
<!-- Node11&#45;&gt;Node18 -->
<g id="edge23" class="edge">
<title>Node11&#45;&gt;Node18</title>
<path fill="none" stroke="#191970" d="M797.8026,-56.3733C828.8317,-46.9807 876.1754,-32.6496 910.0147,-22.4064"/>
<polygon fill="#191970" stroke="#191970" points="911.0553,-25.7483 919.6124,-19.5011 909.0272,-19.0485 911.0553,-25.7483"/>
</g>
<!-- Node19 -->
<g id="node20" class="node">
<title>Node19</title>
<polygon fill="none" stroke="#bfbfbf" points="853.5,-.5 853.5,-19.5 898.5,-19.5 898.5,-.5 853.5,-.5"/>
<text text-anchor="middle" x="876" y="-7.5" font-family="FreeSans.ttf" font-size="10.00" fill="#000000">utility</text>
</g>
<!-- Node11&#45;&gt;Node19 -->
<g id="edge24" class="edge">
<title>Node11&#45;&gt;Node19</title>
<path fill="none" stroke="#191970" d="M785.1605,-56.2455C802.5111,-47.4125 828.2901,-34.2887 847.9583,-24.2758"/>
<polygon fill="#191970" stroke="#191970" points="849.7353,-27.2986 857.059,-19.6427 846.5595,-21.0605 849.7353,-27.2986"/>
</g>
<!-- Node20&#45;&gt;Node3 -->
<g id="edge27" class="edge">
<title>Node20&#45;&gt;Node3</title>
<path fill="none" stroke="#191970" d="M649.767,-168.2455C665.7095,-159.4928 689.3259,-146.527 707.4989,-136.5496"/>
<polygon fill="#191970" stroke="#191970" points="709.3552,-139.5233 716.4366,-131.6427 705.9863,-133.3873 709.3552,-139.5233"/>
</g>
<!-- Node21 -->
<g id="node22" class="node">
<title>Node21</title>
<g id="a_node22"><a xlink:href="MatrixView_8h.html" target="_top" xlink:title="iDynTree/Core/MatrixView.h">
<polygon fill="none" stroke="#000000" points="850.5,-112.5 850.5,-131.5 1001.5,-131.5 1001.5,-112.5 850.5,-112.5"/>
<text text-anchor="middle" x="926" y="-119.5" font-family="FreeSans.ttf" font-size="10.00" fill="#000000">iDynTree/Core/MatrixView.h</text>
</a>
</g>
</g>
<!-- Node20&#45;&gt;Node21 -->
<g id="edge28" class="edge">
<title>Node20&#45;&gt;Node21</title>
<path fill="none" stroke="#191970" d="M682.2063,-168.4369C733.0507,-158.7522 811.706,-143.7703 865.8513,-133.4569"/>
<polygon fill="#191970" stroke="#191970" points="866.8323,-136.8331 876.0007,-131.5237 865.5224,-129.9567 866.8323,-136.8331"/>
</g>
<!-- Node21&#45;&gt;Node4 -->
<g id="edge32" class="edge">
<title>Node21&#45;&gt;Node4</title>
<path fill="none" stroke="#191970" d="M850.2434,-113.3421C756.1232,-102.5855 596.8366,-84.3813 505.6457,-73.9595"/>
<polygon fill="#191970" stroke="#191970" points="506.0171,-70.4793 495.6843,-72.8211 505.2222,-77.434 506.0171,-70.4793"/>
</g>
<!-- Node21&#45;&gt;Node11 -->
<g id="edge31" class="edge">
<title>Node21&#45;&gt;Node11</title>
<path fill="none" stroke="#191970" d="M898.495,-112.3733C872.1198,-103.1419 832.1149,-89.1402 802.9642,-78.9375"/>
<polygon fill="#191970" stroke="#191970" points="803.7409,-75.5012 793.1461,-75.5011 801.4284,-82.1082 803.7409,-75.5012"/>
</g>
<!-- Node21&#45;&gt;Node12 -->
<g id="edge29" class="edge">
<title>Node21&#45;&gt;Node12</title>
<path fill="none" stroke="#191970" d="M934.867,-112.4509C952.4432,-93.5227 991.9155,-51.014 1014.0955,-27.1279"/>
<polygon fill="#191970" stroke="#191970" points="1016.9157,-29.2344 1021.1555,-19.5249 1011.7861,-24.4713 1016.9157,-29.2344"/>
</g>
<!-- Node21&#45;&gt;Node18 -->
<g id="edge30" class="edge">
<title>Node21&#45;&gt;Node18</title>
<path fill="none" stroke="#191970" d="M928.1315,-112.4509C932.2274,-94.1013 941.2699,-53.5908 946.6765,-29.3693"/>
<polygon fill="#191970" stroke="#191970" points="950.1112,-30.0472 948.8739,-19.5249 943.2794,-28.5222 950.1112,-30.0472"/>
</g>
<!-- Node22&#45;&gt;Node3 -->
<g id="edge62" class="edge">
<title>Node22&#45;&gt;Node3</title>
<path fill="none" stroke="#191970" d="M835.2549,-392.4872C818.3229,-385.1015 797.3642,-373.1937 785,-356 736.7473,-288.9001 732.6799,-184.9232 733.2726,-141.7914"/>
<polygon fill="#191970" stroke="#191970" points="736.7777,-141.6199 733.5226,-131.5375 729.7798,-141.4492 736.7777,-141.6199"/>
</g>
<!-- Node23 -->
<g id="node24" class="node">
<title>Node23</title>
<g id="a_node24"><a xlink:href="Position_8h.html" target="_top" xlink:title="iDynTree/Core/Position.h">
<polygon fill="none" stroke="#000000" points="794,-336.5 794,-355.5 930,-355.5 930,-336.5 794,-336.5"/>
<text text-anchor="middle" x="862" y="-343.5" font-family="FreeSans.ttf" font-size="10.00" fill="#000000">iDynTree/Core/Position.h</text>
</a>
</g>
</g>
<!-- Node22&#45;&gt;Node23 -->
<g id="edge34" class="edge">
<title>Node22&#45;&gt;Node23</title>
<path fill="none" stroke="#191970" d="M862,-392.2455C862,-384.9382 862,-374.6944 862,-365.7046"/>
<polygon fill="#191970" stroke="#191970" points="865.5001,-365.6426 862,-355.6427 858.5001,-365.6427 865.5001,-365.6426"/>
</g>
<!-- Node28 -->
<g id="node29" class="node">
<title>Node28</title>
<g id="a_node29"><a xlink:href="Rotation_8h.html" target="_top" xlink:title="iDynTree/Core/Rotation.h">
<polygon fill="none" stroke="#000000" points="918.5,-280.5 918.5,-299.5 1055.5,-299.5 1055.5,-280.5 918.5,-280.5"/>
<text text-anchor="middle" x="987" y="-287.5" font-family="FreeSans.ttf" font-size="10.00" fill="#000000">iDynTree/Core/Rotation.h</text>
</a>
</g>
</g>
<!-- Node22&#45;&gt;Node28 -->
<g id="edge60" class="edge">
<title>Node22&#45;&gt;Node28</title>
<path fill="none" stroke="#191970" d="M882.7993,-392.4804C899.2195,-384.3149 922.0999,-371.4392 939,-356 954.1283,-342.1795 967.483,-322.9101 976.2397,-308.7593"/>
<polygon fill="#191970" stroke="#191970" points="979.4032,-310.2888 981.5328,-299.9102 973.3958,-306.6955 979.4032,-310.2888"/>
</g>
<!-- Node31 -->
<g id="node32" class="node">
<title>Node31</title>
<g id="a_node32"><a xlink:href="MatrixFixSize_8h.html" target="_top" xlink:title="iDynTree/Core/MatrixFixSize.h">
<polygon fill="none" stroke="#000000" points="1129.5,-168.5 1129.5,-187.5 1290.5,-187.5 1290.5,-168.5 1129.5,-168.5"/>
<text text-anchor="middle" x="1210" y="-175.5" font-family="FreeSans.ttf" font-size="10.00" fill="#000000">iDynTree/Core/MatrixFixSize.h</text>
</a>
</g>
</g>
<!-- Node22&#45;&gt;Node31 -->
<g id="edge61" class="edge">
<title>Node22&#45;&gt;Node31</title>
<path fill="none" stroke="#191970" d="M924.3848,-392.4498C1050.3229,-371.7615 1327.6774,-318.5879 1383,-244 1388.2954,-236.8606 1388.418,-231.0468 1383,-224 1370.9942,-208.3847 1328.4631,-196.9553 1288.5792,-189.3949"/>
<polygon fill="#191970" stroke="#191970" points="1288.9827,-185.9108 1278.5164,-187.556 1287.7243,-192.7968 1288.9827,-185.9108"/>
</g>
<!-- Node23&#45;&gt;Node3 -->
<g id="edge59" class="edge">
<title>Node23&#45;&gt;Node3</title>
<path fill="none" stroke="#191970" d="M851.0353,-336.4933C832.4345,-319.741 794.7926,-283.0245 775,-244 759.2986,-213.0419 768.8408,-200.6302 757,-168 753.6221,-158.6914 748.8542,-148.8147 744.5347,-140.6093"/>
<polygon fill="#191970" stroke="#191970" points="747.4716,-138.6843 739.6118,-131.5798 741.3257,-142.0351 747.4716,-138.6843"/>
</g>
<!-- Node24 -->
<g id="node25" class="node">
<title>Node24</title>
<g id="a_node25"><a xlink:href="PositionRaw_8h.html" target="_top" xlink:title="iDynTree/Core/PositionRaw.h">
<polygon fill="none" stroke="#000000" points="784,-224.5 784,-243.5 940,-243.5 940,-224.5 784,-224.5"/>
<text text-anchor="middle" x="862" y="-231.5" font-family="FreeSans.ttf" font-size="10.00" fill="#000000">iDynTree/Core/PositionRaw.h</text>
</a>
</g>
</g>
<!-- Node23&#45;&gt;Node24 -->
<g id="edge35" class="edge">
<title>Node23&#45;&gt;Node24</title>
<path fill="none" stroke="#191970" d="M862,-336.4509C862,-318.184 862,-277.9553 862,-253.6976"/>
<polygon fill="#191970" stroke="#191970" points="865.5001,-253.5249 862,-243.5249 858.5001,-253.5249 865.5001,-253.5249"/>
</g>
<!-- Node23&#45;&gt;Node28 -->
<g id="edge44" class="edge">
<title>Node23&#45;&gt;Node28</title>
<path fill="none" stroke="#191970" d="M883.4883,-336.3733C903.644,-327.3435 933.988,-313.7494 956.618,-303.6111"/>
<polygon fill="#191970" stroke="#191970" points="958.0971,-306.7838 965.7921,-299.5011 955.2351,-300.3955 958.0971,-306.7838"/>
</g>
<!-- Node24&#45;&gt;Node3 -->
<g id="edge43" class="edge">
<title>Node24&#45;&gt;Node3</title>
<path fill="none" stroke="#191970" d="M852.8341,-224.1929C840.2651,-210.9298 816.7554,-186.7752 795,-168 782.6771,-157.3652 768.1511,-146.3558 756.366,-137.7748"/>
<polygon fill="#191970" stroke="#191970" points="758.1311,-134.733 747.97,-131.7326 754.0423,-140.4147 758.1311,-134.733"/>
</g>
<!-- Node25 -->
<g id="node26" class="node">
<title>Node25</title>
<g id="a_node26"><a xlink:href="VectorFixSize_8h.html" target="_top" xlink:title="iDynTree/Core/VectorFixSize.h">
<polygon fill="none" stroke="#000000" points="950.5,-168.5 950.5,-187.5 1111.5,-187.5 1111.5,-168.5 950.5,-168.5"/>
<text text-anchor="middle" x="1031" y="-175.5" font-family="FreeSans.ttf" font-size="10.00" fill="#000000">iDynTree/Core/VectorFixSize.h</text>
</a>
</g>
</g>
<!-- Node24&#45;&gt;Node25 -->
<g id="edge36" class="edge">
<title>Node24&#45;&gt;Node25</title>
<path fill="none" stroke="#191970" d="M891.0521,-224.3733C919.1543,-215.0613 961.9054,-200.8953 992.7607,-190.671"/>
<polygon fill="#191970" stroke="#191970" points="993.9355,-193.969 1002.327,-187.5011 991.7336,-187.3243 993.9355,-193.969"/>
</g>
<!-- Node25&#45;&gt;Node3 -->
<g id="edge39" class="edge">
<title>Node25&#45;&gt;Node3</title>
<path fill="none" stroke="#191970" d="M966.8347,-168.4612C913.7902,-160.1525 836.6388,-147.0908 770,-132 768.7545,-131.7179 767.4876,-131.4201 766.2101,-131.1106"/>
<polygon fill="#191970" stroke="#191970" points="766.9408,-127.6847 756.3837,-128.5776 765.1935,-134.4631 766.9408,-127.6847"/>
</g>
<!-- Node25&#45;&gt;Node4 -->
<g id="edge37" class="edge">
<title>Node25&#45;&gt;Node4</title>
<path fill="none" stroke="#191970" d="M964.5714,-168.4447C919.6679,-160.9829 859.4178,-149.0044 808,-132 787.9888,-125.3821 785.2142,-117.9692 765,-112 677.7962,-86.2491 573.2219,-74.7691 505.7457,-69.7491"/>
<polygon fill="#191970" stroke="#191970" points="505.8794,-66.2498 495.6547,-69.0261 505.379,-73.2319 505.8794,-66.2498"/>
</g>
<!-- Node25&#45;&gt;Node11 -->
<g id="edge38" class="edge">
<title>Node25&#45;&gt;Node11</title>
<path fill="none" stroke="#191970" d="M957.2243,-168.4278C921.0519,-161.6842 877.7025,-150.4475 842,-132 818.1589,-119.6813 795.5735,-98.3931 781.3159,-83.3286"/>
<polygon fill="#191970" stroke="#191970" points="783.6422,-80.6876 774.2967,-75.6963 778.4898,-85.4261 783.6422,-80.6876"/>
</g>
<!-- Node25&#45;&gt;Node12 -->
<g id="edge41" class="edge">
<title>Node25&#45;&gt;Node12</title>
<path fill="none" stroke="#191970" d="M1030.9434,-168.4862C1030.7853,-141.9293 1030.3367,-66.5651 1030.12,-30.1655"/>
<polygon fill="#191970" stroke="#191970" points="1033.6181,-29.8068 1030.0585,-19.8279 1026.6182,-29.8486 1033.6181,-29.8068"/>
</g>
<!-- Node26 -->
<g id="node27" class="node">
<title>Node26</title>
<polygon fill="none" stroke="#bfbfbf" points="1058,-112.5 1058,-131.5 1114,-131.5 1114,-112.5 1058,-112.5"/>
<text text-anchor="middle" x="1086" y="-119.5" font-family="FreeSans.ttf" font-size="10.00" fill="#000000">sstream</text>
</g>
<!-- Node25&#45;&gt;Node26 -->
<g id="edge40" class="edge">
<title>Node25&#45;&gt;Node26</title>
<path fill="none" stroke="#191970" d="M1040.5803,-168.2455C1048.5458,-160.1352 1060.0641,-148.4075 1069.5079,-138.7919"/>
<polygon fill="#191970" stroke="#191970" points="1072.0195,-141.2297 1076.5295,-131.6427 1067.0253,-136.3247 1072.0195,-141.2297"/>
</g>
<!-- Node27 -->
<g id="node28" class="node">
<title>Node27</title>
<polygon fill="none" stroke="#bfbfbf" points="1132,-112.5 1132,-131.5 1182,-131.5 1182,-112.5 1132,-112.5"/>
<text text-anchor="middle" x="1157" y="-119.5" font-family="FreeSans.ttf" font-size="10.00" fill="#000000">cstring</text>
</g>
<!-- Node25&#45;&gt;Node27 -->
<g id="edge42" class="edge">
<title>Node25&#45;&gt;Node27</title>
<path fill="none" stroke="#191970" d="M1052.6602,-168.3733C1072.9772,-159.3435 1103.564,-145.7494 1126.375,-135.6111"/>
<polygon fill="#191970" stroke="#191970" points="1127.9059,-138.7609 1135.6225,-131.5011 1125.0628,-132.3642 1127.9059,-138.7609"/>
</g>
<!-- Node28&#45;&gt;Node3 -->
<g id="edge45" class="edge">
<title>Node28&#45;&gt;Node3</title>
<path fill="none" stroke="#191970" d="M983.5639,-280.2725C978.1675,-266.2168 966.4835,-240.1472 949,-224 920.4874,-197.6667 818.0122,-155.0426 765.503,-134.2262"/>
<polygon fill="#191970" stroke="#191970" points="766.5932,-130.8938 756.0063,-130.4833 764.0264,-137.4063 766.5932,-130.8938"/>
</g>
<!-- Node28&#45;&gt;Node25 -->
<g id="edge58" class="edge">
<title>Node28&#45;&gt;Node25</title>
<path fill="none" stroke="#191970" d="M990.7514,-280.4509C997.9927,-262.0186 1014.0186,-221.2254 1023.5188,-197.043"/>
<polygon fill="#191970" stroke="#191970" points="1026.8591,-198.1122 1027.2581,-187.5249 1020.3439,-195.5526 1026.8591,-198.1122"/>
</g>
<!-- Node29 -->
<g id="node30" class="node">
<title>Node29</title>
<g id="a_node30"><a xlink:href="GeomVector3_8h.html" target="_top" xlink:title="iDynTree/Core/GeomVector3.h">
<polygon fill="none" stroke="#000000" points="1034.5,-224.5 1034.5,-243.5 1197.5,-243.5 1197.5,-224.5 1034.5,-224.5"/>
<text text-anchor="middle" x="1116" y="-231.5" font-family="FreeSans.ttf" font-size="10.00" fill="#000000">iDynTree/Core/GeomVector3.h</text>
</a>
</g>
</g>
<!-- Node28&#45;&gt;Node29 -->
<g id="edge46" class="edge">
<title>Node28&#45;&gt;Node29</title>
<path fill="none" stroke="#191970" d="M1009.1759,-280.3733C1029.9766,-271.3435 1061.2917,-257.7494 1084.6458,-247.6111"/>
<polygon fill="#191970" stroke="#191970" points="1086.3343,-250.6938 1094.1135,-243.5011 1083.5468,-244.2727 1086.3343,-250.6938"/>
</g>
<!-- Node30 -->
<g id="node31" class="node">
<title>Node30</title>
<g id="a_node31"><a xlink:href="RotationRaw_8h.html" target="_top" xlink:title="iDynTree/Core/RotationRaw.h">
<polygon fill="none" stroke="#000000" points="1216,-224.5 1216,-243.5 1374,-243.5 1374,-224.5 1216,-224.5"/>
<text text-anchor="middle" x="1295" y="-231.5" font-family="FreeSans.ttf" font-size="10.00" fill="#000000">iDynTree/Core/RotationRaw.h</text>
</a>
</g>
</g>
<!-- Node28&#45;&gt;Node30 -->
<g id="edge48" class="edge">
<title>Node28&#45;&gt;Node30</title>
<path fill="none" stroke="#191970" d="M1039.5971,-280.4369C1093.0841,-270.712 1175.9492,-255.6456 1232.6933,-245.3285"/>
<polygon fill="#191970" stroke="#191970" points="1233.4072,-248.7562 1242.6198,-243.5237 1232.155,-241.8691 1233.4072,-248.7562"/>
</g>
<!-- Node29&#45;&gt;Node25 -->
<g id="edge47" class="edge">
<title>Node29&#45;&gt;Node25</title>
<path fill="none" stroke="#191970" d="M1101.1941,-224.2455C1088.2744,-215.7337 1069.3069,-203.2375 1054.3448,-193.3801"/>
<polygon fill="#191970" stroke="#191970" points="1055.9124,-190.2216 1045.6362,-187.6427 1052.0613,-196.067 1055.9124,-190.2216"/>
</g>
<!-- Node30&#45;&gt;Node3 -->
<g id="edge57" class="edge">
<title>Node30&#45;&gt;Node3</title>
<path fill="none" stroke="#191970" d="M1215.847,-224.9433C1119.8748,-213.7657 967.7027,-195.3382 942,-188 921.3444,-182.1028 918.1783,-175.3667 898,-168 894.8298,-166.8426 812.7424,-143.9325 765.932,-130.8904"/>
<polygon fill="#191970" stroke="#191970" points="766.8152,-127.5032 756.2427,-128.1914 764.9368,-134.2465 766.8152,-127.5032"/>
</g>
<!-- Node30&#45;&gt;Node31 -->
<g id="edge49" class="edge">
<title>Node30&#45;&gt;Node31</title>
<path fill="none" stroke="#191970" d="M1280.1941,-224.2455C1267.2744,-215.7337 1248.3069,-203.2375 1233.3448,-193.3801"/>
<polygon fill="#191970" stroke="#191970" points="1234.9124,-190.2216 1224.6362,-187.6427 1231.0613,-196.067 1234.9124,-190.2216"/>
</g>
<!-- Node31&#45;&gt;Node3 -->
<g id="edge54" class="edge">
<title>Node31&#45;&gt;Node3</title>
<path fill="none" stroke="#191970" d="M1129.2531,-168.5004C1022.8198,-155.9788 840.4423,-134.5226 766.5324,-125.8273"/>
<polygon fill="#191970" stroke="#191970" points="766.7771,-122.3321 756.4366,-124.6396 765.9592,-129.2841 766.7771,-122.3321"/>
</g>
<!-- Node31&#45;&gt;Node4 -->
<g id="edge50" class="edge">
<title>Node31&#45;&gt;Node4</title>
<path fill="none" stroke="#191970" d="M1210.3997,-168.0461C1210.3926,-153.2051 1207.9331,-125.5724 1191,-112 1177.7144,-101.3511 690.1612,-77.7535 505.723,-69.1865"/>
<polygon fill="#191970" stroke="#191970" points="505.7439,-65.6838 495.5926,-68.7169 505.4198,-72.6763 505.7439,-65.6838"/>
</g>
<!-- Node31&#45;&gt;Node12 -->
<g id="edge52" class="edge">
<title>Node31&#45;&gt;Node12</title>
<path fill="none" stroke="#191970" d="M1213.088,-168.2574C1216.7876,-154.6406 1221.291,-129.6119 1211,-112 1179.8333,-58.6617 1109.3552,-31.0381 1066.116,-18.5956"/>
<polygon fill="#191970" stroke="#191970" points="1066.8462,-15.1666 1056.2762,-15.8904 1064.9906,-21.9162 1066.8462,-15.1666"/>
</g>
<!-- Node31&#45;&gt;Node21 -->
<g id="edge51" class="edge">
<title>Node31&#45;&gt;Node21</title>
<path fill="none" stroke="#191970" d="M1161.5014,-168.4369C1112.4885,-158.7724 1036.7223,-143.8326 984.4293,-133.5213"/>
<polygon fill="#191970" stroke="#191970" points="984.7868,-130.0244 974.2986,-131.5237 983.4326,-136.8922 984.7868,-130.0244"/>
</g>
<!-- Node31&#45;&gt;Node26 -->
<g id="edge56" class="edge">
<title>Node31&#45;&gt;Node26</title>
<path fill="none" stroke="#191970" d="M1188.6836,-168.3733C1168.7784,-159.3838 1138.8564,-145.8706 1116.44,-135.7471"/>
<polygon fill="#191970" stroke="#191970" points="1117.5925,-132.4272 1107.0382,-131.5011 1114.7113,-138.8068 1117.5925,-132.4272"/>
</g>
<!-- Node31&#45;&gt;Node27 -->
<g id="edge53" class="edge">
<title>Node31&#45;&gt;Node27</title>
<path fill="none" stroke="#191970" d="M1200.7681,-168.2455C1193.1683,-160.2155 1182.2123,-148.6394 1173.1632,-139.0781"/>
<polygon fill="#191970" stroke="#191970" points="1175.542,-136.4998 1166.1261,-131.6427 1170.4579,-141.3115 1175.542,-136.4998"/>
</g>
<!-- Node32 -->
<g id="node33" class="node">
<title>Node32</title>
<polygon fill="none" stroke="#bfbfbf" points="1276,-112.5 1276,-131.5 1336,-131.5 1336,-112.5 1276,-112.5"/>
<text text-anchor="middle" x="1306" y="-119.5" font-family="FreeSans.ttf" font-size="10.00" fill="#000000">iostream</text>
</g>
<!-- Node31&#45;&gt;Node32 -->
<g id="edge55" class="edge">
<title>Node31&#45;&gt;Node32</title>
<path fill="none" stroke="#191970" d="M1226.7219,-168.2455C1241.5889,-159.5731 1263.5466,-146.7645 1280.5858,-136.825"/>
<polygon fill="#191970" stroke="#191970" points="1282.5955,-139.7047 1289.4697,-131.6427 1279.0683,-133.6582 1282.5955,-139.7047"/>
</g>
</g>
</svg>
