<?xml version="1.0" encoding="UTF-8" standalone="no"?>
<!DOCTYPE svg PUBLIC "-//W3C//DTD SVG 1.1//EN"
 "http://www.w3.org/Graphics/SVG/1.1/DTD/svg11.dtd">
<!-- Generated by graphviz version 2.40.1 (20161225.0304)
 -->
<!-- Title: par2urdf.cpp Pages: 1 -->
<svg width="694pt" height="95pt"
 viewBox="0.00 0.00 693.50 95.00" xmlns="http://www.w3.org/2000/svg" xmlns:xlink="http://www.w3.org/1999/xlink">
<g id="graph0" class="graph" transform="scale(1 1) rotate(0) translate(4 91)">
<title>par2urdf.cpp</title>
<!-- Node0 -->
<g id="node1" class="node">
<title>Node0</title>
<polygon fill="#bfbfbf" stroke="#000000" points="404.5,-67.5 404.5,-86.5 481.5,-86.5 481.5,-67.5 404.5,-67.5"/>
<text text-anchor="middle" x="443" y="-74.5" font-family="FreeSans.ttf" font-size="10.00" fill="#000000">par2urdf.cpp</text>
</g>
<!-- Node1 -->
<g id="node2" class="node">
<title>Node1</title>
<polygon fill="none" stroke="#bfbfbf" points="0,-.5 0,-30.5 142,-30.5 142,-.5 0,-.5"/>
<text text-anchor="start" x="8" y="-18.5" font-family="FreeSans.ttf" font-size="10.00" fill="#000000">iDynTree/ModelIO/symoro</text>
<text text-anchor="middle" x="71" y="-7.5" font-family="FreeSans.ttf" font-size="10.00" fill="#000000">_par_model.hpp</text>
</g>
<!-- Node0&#45;&gt;Node1 -->
<g id="edge1" class="edge">
<title>Node0&#45;&gt;Node1</title>
<path fill="none" stroke="#191970" d="M404.1968,-71.3305C350.0486,-63.3216 248.5084,-47.9511 151.9995,-31.142"/>
<polygon fill="#191970" stroke="#191970" points="152.5297,-27.6817 142.076,-29.4053 151.3229,-34.5769 152.5297,-27.6817"/>
</g>
<!-- Node2 -->
<g id="node3" class="node">
<title>Node2</title>
<polygon fill="none" stroke="#bfbfbf" points="160,-.5 160,-30.5 302,-30.5 302,-.5 160,-.5"/>
<text text-anchor="start" x="168" y="-18.5" font-family="FreeSans.ttf" font-size="10.00" fill="#000000">iDynTree/ModelIO/symoro</text>
<text text-anchor="middle" x="231" y="-7.5" font-family="FreeSans.ttf" font-size="10.00" fill="#000000">_par_import.hpp</text>
</g>
<!-- Node0&#45;&gt;Node2 -->
<g id="edge2" class="edge">
<title>Node0&#45;&gt;Node2</title>
<path fill="none" stroke="#191970" d="M409.875,-67.3906C378.6596,-58.3352 331.102,-44.539 292.869,-33.4479"/>
<polygon fill="#191970" stroke="#191970" points="293.4402,-29.9693 282.861,-30.5446 291.4899,-36.6922 293.4402,-29.9693"/>
</g>
<!-- Node3 -->
<g id="node4" class="node">
<title>Node3</title>
<polygon fill="none" stroke="#bfbfbf" points="320.5,-.5 320.5,-30.5 447.5,-30.5 447.5,-.5 320.5,-.5"/>
<text text-anchor="start" x="328.5" y="-18.5" font-family="FreeSans.ttf" font-size="10.00" fill="#000000">iDynTree/ModelIO/impl</text>
<text text-anchor="middle" x="384" y="-7.5" font-family="FreeSans.ttf" font-size="10.00" fill="#000000">/urdf_export.hpp</text>
</g>
<!-- Node0&#45;&gt;Node3 -->
<g id="edge3" class="edge">
<title>Node0&#45;&gt;Node3</title>
<path fill="none" stroke="#191970" d="M433.7813,-67.3906C426.2399,-59.5298 415.2713,-48.0964 405.5482,-37.9612"/>
<polygon fill="#191970" stroke="#191970" points="407.8816,-35.3378 398.433,-30.5446 402.8302,-40.1839 407.8816,-35.3378"/>
</g>
<!-- Node4 -->
<g id="node5" class="node">
<title>Node4</title>
<polygon fill="none" stroke="#bfbfbf" points="465.5,-6 465.5,-25 540.5,-25 540.5,-6 465.5,-6"/>
<text text-anchor="middle" x="503" y="-13" font-family="FreeSans.ttf" font-size="10.00" fill="#000000">kdl/tree.hpp</text>
</g>
<!-- Node0&#45;&gt;Node4 -->
<g id="edge4" class="edge">
<title>Node0&#45;&gt;Node4</title>
<path fill="none" stroke="#191970" d="M452.375,-67.3906C461.4799,-58.0581 475.4974,-43.6902 486.4757,-32.4374"/>
<polygon fill="#191970" stroke="#191970" points="489.0148,-34.8468 493.4928,-25.2449 484.0043,-29.9586 489.0148,-34.8468"/>
</g>
<!-- Node5 -->
<g id="node6" class="node">
<title>Node5</title>
<polygon fill="none" stroke="#bfbfbf" points="558,-6 558,-25 618,-25 618,-6 558,-6"/>
<text text-anchor="middle" x="588" y="-13" font-family="FreeSans.ttf" font-size="10.00" fill="#000000">iostream</text>
</g>
<!-- Node0&#45;&gt;Node5 -->
<g id="edge5" class="edge">
<title>Node0&#45;&gt;Node5</title>
<path fill="none" stroke="#191970" d="M465.6563,-67.3906C489.9174,-57.1005 528.6118,-40.6888 555.98,-29.0809"/>
<polygon fill="#191970" stroke="#191970" points="557.6633,-32.1688 565.5028,-25.0419 554.93,-25.7245 557.6633,-32.1688"/>
</g>
<!-- Node6 -->
<g id="node7" class="node">
<title>Node6</title>
<polygon fill="none" stroke="#bfbfbf" points="636.5,-6 636.5,-25 685.5,-25 685.5,-6 636.5,-6"/>
<text text-anchor="middle" x="661" y="-13" font-family="FreeSans.ttf" font-size="10.00" fill="#000000">cstdlib</text>
</g>
<!-- Node0&#45;&gt;Node6 -->
<g id="edge6" class="edge">
<title>Node0&#45;&gt;Node6</title>
<path fill="none" stroke="#191970" d="M481.6578,-69.4869C519.3106,-61.6689 577.8898,-48.1711 627,-31 628.6419,-30.4259 630.3129,-29.8021 631.9888,-29.1451"/>
<polygon fill="#191970" stroke="#191970" points="633.6241,-32.2539 641.4734,-25.1378 630.8997,-25.8058 633.6241,-32.2539"/>
</g>
</g>
</svg>
