<?xml version="1.0" encoding="UTF-8" standalone="no"?>
<!DOCTYPE svg PUBLIC "-//W3C//DTD SVG 1.1//EN"
 "http://www.w3.org/Graphics/SVG/1.1/DTD/svg11.dtd">
<!-- Generated by graphviz version 2.40.1 (20161225.0304)
 -->
<!-- Title: main.cpp Pages: 1 -->
<svg width="1084pt" height="196pt"
 viewBox="0.00 0.00 1084.00 196.00" xmlns="http://www.w3.org/2000/svg" xmlns:xlink="http://www.w3.org/1999/xlink">
<g id="graph0" class="graph" transform="scale(1 1) rotate(0) translate(4 192)">
<title>main.cpp</title>
<!-- Node0 -->
<g id="node1" class="node">
<title>Node0</title>
<polygon fill="#bfbfbf" stroke="#000000" points="762.5,-168.5 762.5,-187.5 824.5,-187.5 824.5,-168.5 762.5,-168.5"/>
<text text-anchor="middle" x="793.5" y="-175.5" font-family="FreeSans.ttf" font-size="10.00" fill="#000000">main.cpp</text>
</g>
<!-- Node1 -->
<g id="node2" class="node">
<title>Node1</title>
<g id="a_node2"><a xlink:href="ChartsManager_8h.html" target="_top" xlink:title="ChartsManager.h">
<polygon fill="none" stroke="#000000" points="552.5,-112.5 552.5,-131.5 650.5,-131.5 650.5,-112.5 552.5,-112.5"/>
<text text-anchor="middle" x="601.5" y="-119.5" font-family="FreeSans.ttf" font-size="10.00" fill="#000000">ChartsManager.h</text>
</a>
</g>
</g>
<!-- Node0&#45;&gt;Node1 -->
<g id="edge1" class="edge">
<title>Node0&#45;&gt;Node1</title>
<path fill="none" stroke="#191970" d="M762.2246,-168.878C730.0749,-159.501 679.7973,-144.8367 644.0428,-134.4083"/>
<polygon fill="#191970" stroke="#191970" points="644.9504,-131.0273 634.3704,-131.5872 642.9904,-137.7473 644.9504,-131.0273"/>
</g>
<!-- Node13 -->
<g id="node14" class="node">
<title>Node13</title>
<polygon fill="none" stroke="#bfbfbf" points="669,-112.5 669,-131.5 802,-131.5 802,-112.5 669,-112.5"/>
<text text-anchor="middle" x="735.5" y="-119.5" font-family="FreeSans.ttf" font-size="10.00" fill="#000000">QtWidgets/QApplication</text>
</g>
<!-- Node0&#45;&gt;Node13 -->
<g id="edge13" class="edge">
<title>Node0&#45;&gt;Node13</title>
<path fill="none" stroke="#191970" d="M783.3972,-168.2455C774.9972,-160.1352 762.8506,-148.4075 752.8916,-138.7919"/>
<polygon fill="#191970" stroke="#191970" points="755.1122,-136.0707 745.4871,-131.6427 750.25,-141.1066 755.1122,-136.0707"/>
</g>
<!-- Node14 -->
<g id="node15" class="node">
<title>Node14</title>
<polygon fill="none" stroke="#bfbfbf" points="820,-112.5 820,-131.5 883,-131.5 883,-112.5 820,-112.5"/>
<text text-anchor="middle" x="851.5" y="-119.5" font-family="FreeSans.ttf" font-size="10.00" fill="#000000">QWindow</text>
</g>
<!-- Node0&#45;&gt;Node14 -->
<g id="edge14" class="edge">
<title>Node0&#45;&gt;Node14</title>
<path fill="none" stroke="#191970" d="M803.6028,-168.2455C812.0028,-160.1352 824.1494,-148.4075 834.1084,-138.7919"/>
<polygon fill="#191970" stroke="#191970" points="836.75,-141.1066 841.5129,-131.6427 831.8878,-136.0707 836.75,-141.1066"/>
</g>
<!-- Node15 -->
<g id="node16" class="node">
<title>Node15</title>
<polygon fill="none" stroke="#bfbfbf" points="901,-112.5 901,-131.5 1038,-131.5 1038,-112.5 901,-112.5"/>
<text text-anchor="middle" x="969.5" y="-119.5" font-family="FreeSans.ttf" font-size="10.00" fill="#000000">yarp/os/ResourceFinder.h</text>
</g>
<!-- Node0&#45;&gt;Node15 -->
<g id="edge15" class="edge">
<title>Node0&#45;&gt;Node15</title>
<path fill="none" stroke="#191970" d="M823.7555,-168.3733C853.1483,-159.021 897.9292,-144.7725 930.0934,-134.5385"/>
<polygon fill="#191970" stroke="#191970" points="931.1713,-137.8685 939.6393,-131.5011 929.0488,-131.198 931.1713,-137.8685"/>
</g>
<!-- Node2 -->
<g id="node3" class="node">
<title>Node2</title>
<polygon fill="none" stroke="#bfbfbf" points="0,-56.5 0,-75.5 93,-75.5 93,-56.5 0,-56.5"/>
<text text-anchor="middle" x="46.5" y="-63.5" font-family="FreeSans.ttf" font-size="10.00" fill="#000000">ChartsService.h</text>
</g>
<!-- Node1&#45;&gt;Node2 -->
<g id="edge2" class="edge">
<title>Node1&#45;&gt;Node2</title>
<path fill="none" stroke="#191970" d="M552.472,-118.8656C464.5704,-112.9443 274.1718,-98.7482 103.142,-75.9811"/>
<polygon fill="#191970" stroke="#191970" points="103.5814,-72.5088 93.2043,-74.6455 102.649,-79.4464 103.5814,-72.5088"/>
</g>
<!-- Node3 -->
<g id="node4" class="node">
<title>Node3</title>
<polygon fill="none" stroke="#bfbfbf" points="111.5,-56.5 111.5,-75.5 241.5,-75.5 241.5,-56.5 111.5,-56.5"/>
<text text-anchor="middle" x="176.5" y="-63.5" font-family="FreeSans.ttf" font-size="10.00" fill="#000000">RealTimeStreamData.h</text>
</g>
<!-- Node1&#45;&gt;Node3 -->
<g id="edge3" class="edge">
<title>Node1&#45;&gt;Node3</title>
<path fill="none" stroke="#191970" d="M552.3712,-115.6246C486.4762,-107.0595 365.5293,-91.2898 252.1147,-76.2112"/>
<polygon fill="#191970" stroke="#191970" points="252.2423,-72.6974 241.8681,-74.848 251.3191,-79.6362 252.2423,-72.6974"/>
</g>
<!-- Node4 -->
<g id="node5" class="node">
<title>Node4</title>
<polygon fill="none" stroke="#bfbfbf" points="259.5,-56.5 259.5,-75.5 343.5,-75.5 343.5,-56.5 259.5,-56.5"/>
<text text-anchor="middle" x="301.5" y="-63.5" font-family="FreeSans.ttf" font-size="10.00" fill="#000000">yarp/os/Port.h</text>
</g>
<!-- Node1&#45;&gt;Node4 -->
<g id="edge4" class="edge">
<title>Node1&#45;&gt;Node4</title>
<path fill="none" stroke="#191970" d="M552.3351,-113.0812C504.2465,-104.3208 428.6549,-90.4527 353.6187,-76.1984"/>
<polygon fill="#191970" stroke="#191970" points="353.9957,-72.7074 343.5177,-74.2766 352.6872,-79.5841 353.9957,-72.7074"/>
</g>
<!-- Node5 -->
<g id="node6" class="node">
<title>Node5</title>
<polygon fill="none" stroke="#bfbfbf" points="361,-56.5 361,-75.5 486,-75.5 486,-56.5 361,-56.5"/>
<text text-anchor="middle" x="423.5" y="-63.5" font-family="FreeSans.ttf" font-size="10.00" fill="#000000">yarp/os/BufferedPort.h</text>
</g>
<!-- Node1&#45;&gt;Node5 -->
<g id="edge5" class="edge">
<title>Node1&#45;&gt;Node5</title>
<path fill="none" stroke="#191970" d="M570.9007,-112.3733C541.1739,-103.021 495.8841,-88.7725 463.3544,-78.5385"/>
<polygon fill="#191970" stroke="#191970" points="464.2895,-75.1636 453.7,-75.5011 462.1887,-81.8409 464.2895,-75.1636"/>
</g>
<!-- Node6 -->
<g id="node7" class="node">
<title>Node6</title>
<polygon fill="none" stroke="#bfbfbf" points="504.5,-56.5 504.5,-75.5 602.5,-75.5 602.5,-56.5 504.5,-56.5"/>
<text text-anchor="middle" x="553.5" y="-63.5" font-family="FreeSans.ttf" font-size="10.00" fill="#000000">yarp/sig/Vector.h</text>
</g>
<!-- Node1&#45;&gt;Node6 -->
<g id="edge6" class="edge">
<title>Node1&#45;&gt;Node6</title>
<path fill="none" stroke="#191970" d="M593.139,-112.2455C586.325,-104.2958 576.5319,-92.8706 568.3848,-83.3656"/>
<polygon fill="#191970" stroke="#191970" points="570.9305,-80.9575 561.7651,-75.6427 565.6157,-85.513 570.9305,-80.9575"/>
</g>
<!-- Node7 -->
<g id="node8" class="node">
<title>Node7</title>
<polygon fill="none" stroke="#bfbfbf" points="620.5,-56.5 620.5,-75.5 678.5,-75.5 678.5,-56.5 620.5,-56.5"/>
<text text-anchor="middle" x="649.5" y="-63.5" font-family="FreeSans.ttf" font-size="10.00" fill="#000000">memory</text>
</g>
<!-- Node1&#45;&gt;Node7 -->
<g id="edge7" class="edge">
<title>Node1&#45;&gt;Node7</title>
<path fill="none" stroke="#191970" d="M609.861,-112.2455C616.675,-104.2958 626.4681,-92.8706 634.6152,-83.3656"/>
<polygon fill="#191970" stroke="#191970" points="637.3843,-85.513 641.2349,-75.6427 632.0695,-80.9575 637.3843,-85.513"/>
</g>
<!-- Node8 -->
<g id="node9" class="node">
<title>Node8</title>
<polygon fill="none" stroke="#bfbfbf" points="696.5,-56.5 696.5,-75.5 744.5,-75.5 744.5,-56.5 696.5,-56.5"/>
<text text-anchor="middle" x="720.5" y="-63.5" font-family="FreeSans.ttf" font-size="10.00" fill="#000000">mutex</text>
</g>
<!-- Node1&#45;&gt;Node8 -->
<g id="edge8" class="edge">
<title>Node1&#45;&gt;Node8</title>
<path fill="none" stroke="#191970" d="M621.9568,-112.3733C640.9738,-103.4241 669.5175,-89.9917 690.9976,-79.8835"/>
<polygon fill="#191970" stroke="#191970" points="692.7522,-82.926 700.3101,-75.5011 689.7716,-76.5923 692.7522,-82.926"/>
</g>
<!-- Node9 -->
<g id="node10" class="node">
<title>Node9</title>
<polygon fill="none" stroke="#bfbfbf" points="763,-56.5 763,-75.5 856,-75.5 856,-56.5 763,-56.5"/>
<text text-anchor="middle" x="809.5" y="-63.5" font-family="FreeSans.ttf" font-size="10.00" fill="#000000">unordered_map</text>
</g>
<!-- Node1&#45;&gt;Node9 -->
<g id="edge9" class="edge">
<title>Node1&#45;&gt;Node9</title>
<path fill="none" stroke="#191970" d="M637.2565,-112.3733C672.4426,-102.9001 726.2881,-88.4032 764.3956,-78.1435"/>
<polygon fill="#191970" stroke="#191970" points="765.4639,-81.4806 774.2101,-75.5011 763.644,-74.7213 765.4639,-81.4806"/>
</g>
<!-- Node10 -->
<g id="node11" class="node">
<title>Node10</title>
<polygon fill="none" stroke="#bfbfbf" points="874,-56.5 874,-75.5 921,-75.5 921,-56.5 874,-56.5"/>
<text text-anchor="middle" x="897.5" y="-63.5" font-family="FreeSans.ttf" font-size="10.00" fill="#000000">vector</text>
</g>
<!-- Node1&#45;&gt;Node10 -->
<g id="edge10" class="edge">
<title>Node1&#45;&gt;Node10</title>
<path fill="none" stroke="#191970" d="M650.5331,-113.6261C715.9494,-102.4326 827.1307,-83.3252 863.8812,-75.9318"/>
<polygon fill="#191970" stroke="#191970" points="864.7996,-79.3141 873.8307,-73.7743 863.316,-72.4731 864.7996,-79.3141"/>
</g>
<!-- Node11 -->
<g id="node12" class="node">
<title>Node11</title>
<g id="a_node12"><a xlink:href="ChartsManagerWindow_8h.html" target="_top" xlink:title="ChartsManagerWindow.h">
<polygon fill="none" stroke="#000000" points="939,-56.5 939,-75.5 1076,-75.5 1076,-56.5 939,-56.5"/>
<text text-anchor="middle" x="1007.5" y="-63.5" font-family="FreeSans.ttf" font-size="10.00" fill="#000000">ChartsManagerWindow.h</text>
</a>
</g>
</g>
<!-- Node1&#45;&gt;Node11 -->
<g id="edge11" class="edge">
<title>Node1&#45;&gt;Node11</title>
<path fill="none" stroke="#191970" d="M650.7341,-113.5186C654.037,-112.9918 657.3155,-112.4808 660.5,-112 686.3721,-108.0939 834.4839,-88.6241 928.6517,-76.2995"/>
<polygon fill="#191970" stroke="#191970" points="929.2606,-79.7497 938.7219,-74.9818 928.3523,-72.8089 929.2606,-79.7497"/>
</g>
<!-- Node12 -->
<g id="node13" class="node">
<title>Node12</title>
<polygon fill="none" stroke="#bfbfbf" points="964.5,-.5 964.5,-19.5 1050.5,-19.5 1050.5,-.5 964.5,-.5"/>
<text text-anchor="middle" x="1007.5" y="-7.5" font-family="FreeSans.ttf" font-size="10.00" fill="#000000">QMainWindow</text>
</g>
<!-- Node11&#45;&gt;Node12 -->
<g id="edge12" class="edge">
<title>Node11&#45;&gt;Node12</title>
<path fill="none" stroke="#191970" d="M1007.5,-56.2455C1007.5,-48.9382 1007.5,-38.6944 1007.5,-29.7046"/>
<polygon fill="#191970" stroke="#191970" points="1011.0001,-29.6426 1007.5,-19.6427 1004.0001,-29.6427 1011.0001,-29.6426"/>
</g>
</g>
</svg>
