<?xml version="1.0" encoding="UTF-8" standalone="no"?>
<!DOCTYPE svg PUBLIC "-//W3C//DTD SVG 1.1//EN"
 "http://www.w3.org/Graphics/SVG/1.1/DTD/svg11.dtd">
<!-- Generated by graphviz version 2.40.1 (20161225.0304)
 -->
<!-- Title: PositionRaw.h Pages: 1 -->
<svg width="740pt" height="196pt"
 viewBox="0.00 0.00 740.00 196.00" xmlns="http://www.w3.org/2000/svg" xmlns:xlink="http://www.w3.org/1999/xlink">
<g id="graph0" class="graph" transform="scale(1 1) rotate(0) translate(4 192)">
<title>PositionRaw.h</title>
<!-- Node0 -->
<g id="node1" class="node">
<title>Node0</title>
<polygon fill="#bfbfbf" stroke="#000000" points="507.5,-168.5 507.5,-187.5 592.5,-187.5 592.5,-168.5 507.5,-168.5"/>
<text text-anchor="middle" x="550" y="-175.5" font-family="FreeSans.ttf" font-size="10.00" fill="#000000">PositionRaw.h</text>
</g>
<!-- Node1 -->
<g id="node2" class="node">
<title>Node1</title>
<g id="a_node2"><a xlink:href="VectorFixSize_8h.html" target="_top" xlink:title="iDynTree/Core/VectorFixSize.h">
<polygon fill="none" stroke="#000000" points="415.5,-112.5 415.5,-131.5 576.5,-131.5 576.5,-112.5 415.5,-112.5"/>
<text text-anchor="middle" x="496" y="-119.5" font-family="FreeSans.ttf" font-size="10.00" fill="#000000">iDynTree/Core/VectorFixSize.h</text>
</a>
</g>
</g>
<!-- Node0&#45;&gt;Node1 -->
<g id="edge1" class="edge">
<title>Node0&#45;&gt;Node1</title>
<path fill="none" stroke="#191970" d="M540.5939,-168.2455C532.8507,-160.2155 521.688,-148.6394 512.4682,-139.0781"/>
<polygon fill="#191970" stroke="#191970" points="514.7591,-136.4117 505.2983,-131.6427 509.7202,-141.2706 514.7591,-136.4117"/>
</g>
<!-- Node14 -->
<g id="node15" class="node">
<title>Node14</title>
<polygon fill="none" stroke="#bfbfbf" points="677,-56.5 677,-75.5 721,-75.5 721,-56.5 677,-56.5"/>
<text text-anchor="middle" x="699" y="-63.5" font-family="FreeSans.ttf" font-size="10.00" fill="#000000">string</text>
</g>
<!-- Node0&#45;&gt;Node14 -->
<g id="edge19" class="edge">
<title>Node0&#45;&gt;Node14</title>
<path fill="none" stroke="#191970" d="M562.7037,-168.4509C588.4348,-149.1094 646.9211,-105.1465 678.2592,-81.5904"/>
<polygon fill="#191970" stroke="#191970" points="680.4379,-84.3313 686.3285,-75.5249 676.2319,-78.7358 680.4379,-84.3313"/>
</g>
<!-- Node2 -->
<g id="node3" class="node">
<title>Node2</title>
<g id="a_node3"><a xlink:href="Utils_8h.html" target="_top" xlink:title="iDynTree/Core/Utils.h">
<polygon fill="none" stroke="#000000" points="539.5,-56.5 539.5,-75.5 658.5,-75.5 658.5,-56.5 539.5,-56.5"/>
<text text-anchor="middle" x="599" y="-63.5" font-family="FreeSans.ttf" font-size="10.00" fill="#000000">iDynTree/Core/Utils.h</text>
</a>
</g>
</g>
<!-- Node1&#45;&gt;Node2 -->
<g id="edge2" class="edge">
<title>Node1&#45;&gt;Node2</title>
<path fill="none" stroke="#191970" d="M513.9412,-112.2455C530.04,-103.4928 553.8879,-90.527 572.2391,-80.5496"/>
<polygon fill="#191970" stroke="#191970" points="574.1507,-83.4942 581.2644,-75.6427 570.8071,-77.3444 574.1507,-83.4942"/>
</g>
<!-- Node5 -->
<g id="node6" class="node">
<title>Node5</title>
<g id="a_node6"><a xlink:href="Span_8h.html" target="_top" xlink:title="iDynTree/Core/Span.h">
<polygon fill="none" stroke="#000000" points="243.5,-56.5 243.5,-75.5 364.5,-75.5 364.5,-56.5 243.5,-56.5"/>
<text text-anchor="middle" x="304" y="-63.5" font-family="FreeSans.ttf" font-size="10.00" fill="#000000">iDynTree/Core/Span.h</text>
</a>
</g>
</g>
<!-- Node1&#45;&gt;Node5 -->
<g id="edge5" class="edge">
<title>Node1&#45;&gt;Node5</title>
<path fill="none" stroke="#191970" d="M462.994,-112.3733C430.7909,-102.9807 381.6558,-88.6496 346.5361,-78.4064"/>
<polygon fill="#191970" stroke="#191970" points="347.1553,-74.9412 336.5753,-75.5011 345.1953,-81.6612 347.1553,-74.9412"/>
</g>
<!-- Node6 -->
<g id="node7" class="node">
<title>Node6</title>
<polygon fill="none" stroke="#bfbfbf" points="0,-.5 0,-19.5 52,-19.5 52,-.5 0,-.5"/>
<text text-anchor="middle" x="26" y="-7.5" font-family="FreeSans.ttf" font-size="10.00" fill="#000000">cassert</text>
</g>
<!-- Node1&#45;&gt;Node6 -->
<g id="edge17" class="edge">
<title>Node1&#45;&gt;Node6</title>
<path fill="none" stroke="#191970" d="M427.0743,-112.4696C373.9322,-104.5036 298.8117,-91.8969 234,-76 172.6443,-60.9508 102.9682,-37.5041 61.8432,-22.9848"/>
<polygon fill="#191970" stroke="#191970" points="62.8683,-19.6347 52.2736,-19.5851 60.525,-26.2308 62.8683,-19.6347"/>
</g>
<!-- Node1&#45;&gt;Node14 -->
<g id="edge15" class="edge">
<title>Node1&#45;&gt;Node14</title>
<path fill="none" stroke="#191970" d="M533.7328,-112.4959C566.5678,-104.0949 615.6499,-91.2255 666.7827,-76.2639"/>
<polygon fill="#191970" stroke="#191970" points="668.0871,-79.5285 676.6909,-73.3457 666.1094,-72.8137 668.0871,-79.5285"/>
</g>
<!-- Node15 -->
<g id="node16" class="node">
<title>Node15</title>
<polygon fill="none" stroke="#bfbfbf" points="397,-56.5 397,-75.5 453,-75.5 453,-56.5 397,-56.5"/>
<text text-anchor="middle" x="425" y="-63.5" font-family="FreeSans.ttf" font-size="10.00" fill="#000000">sstream</text>
</g>
<!-- Node1&#45;&gt;Node15 -->
<g id="edge16" class="edge">
<title>Node1&#45;&gt;Node15</title>
<path fill="none" stroke="#191970" d="M483.6327,-112.2455C473.0446,-103.8943 457.5936,-91.7076 445.2107,-81.9408"/>
<polygon fill="#191970" stroke="#191970" points="447.2447,-79.0875 437.2255,-75.6427 442.9097,-84.5837 447.2447,-79.0875"/>
</g>
<!-- Node16 -->
<g id="node17" class="node">
<title>Node16</title>
<polygon fill="none" stroke="#bfbfbf" points="471,-56.5 471,-75.5 521,-75.5 521,-56.5 471,-56.5"/>
<text text-anchor="middle" x="496" y="-63.5" font-family="FreeSans.ttf" font-size="10.00" fill="#000000">cstring</text>
</g>
<!-- Node1&#45;&gt;Node16 -->
<g id="edge18" class="edge">
<title>Node1&#45;&gt;Node16</title>
<path fill="none" stroke="#191970" d="M496,-112.2455C496,-104.9382 496,-94.6944 496,-85.7046"/>
<polygon fill="#191970" stroke="#191970" points="499.5001,-85.6426 496,-75.6427 492.5001,-85.6427 499.5001,-85.6426"/>
</g>
<!-- Node3 -->
<g id="node4" class="node">
<title>Node3</title>
<polygon fill="none" stroke="#bfbfbf" points="580.5,-.5 580.5,-19.5 633.5,-19.5 633.5,-.5 580.5,-.5"/>
<text text-anchor="middle" x="607" y="-7.5" font-family="FreeSans.ttf" font-size="10.00" fill="#000000">cstddef</text>
</g>
<!-- Node2&#45;&gt;Node3 -->
<g id="edge3" class="edge">
<title>Node2&#45;&gt;Node3</title>
<path fill="none" stroke="#191970" d="M600.3935,-56.2455C601.4374,-48.9382 602.9008,-38.6944 604.1851,-29.7046"/>
<polygon fill="#191970" stroke="#191970" points="607.673,-30.0372 605.6225,-19.6427 600.7434,-29.0472 607.673,-30.0372"/>
</g>
<!-- Node4 -->
<g id="node5" class="node">
<title>Node4</title>
<polygon fill="none" stroke="#bfbfbf" points="652,-.5 652,-19.5 732,-19.5 732,-.5 652,-.5"/>
<text text-anchor="middle" x="692" y="-7.5" font-family="FreeSans.ttf" font-size="10.00" fill="#000000">CoreExport.h</text>
</g>
<!-- Node2&#45;&gt;Node4 -->
<g id="edge4" class="edge">
<title>Node2&#45;&gt;Node4</title>
<path fill="none" stroke="#191970" d="M615.1994,-56.2455C629.6018,-47.5731 650.8732,-34.7645 667.3799,-24.825"/>
<polygon fill="#191970" stroke="#191970" points="669.225,-27.7996 675.9863,-19.6427 665.614,-21.8028 669.225,-27.7996"/>
</g>
<!-- Node5&#45;&gt;Node3 -->
<g id="edge9" class="edge">
<title>Node5&#45;&gt;Node3</title>
<path fill="none" stroke="#191970" d="M364.5181,-57.3464C416.6288,-49.4922 494.0008,-36.8738 570.5266,-19.9252"/>
<polygon fill="#191970" stroke="#191970" points="571.3461,-23.3284 580.339,-17.7268 569.8157,-16.4978 571.3461,-23.3284"/>
</g>
<!-- Node5&#45;&gt;Node6 -->
<g id="edge6" class="edge">
<title>Node5&#45;&gt;Node6</title>
<path fill="none" stroke="#191970" d="M245.2543,-56.4259C198.1574,-48.3985 130.1956,-36.0294 62.3174,-20.1607"/>
<polygon fill="#191970" stroke="#191970" points="62.8426,-16.6885 52.3056,-17.7941 61.2323,-23.5008 62.8426,-16.6885"/>
</g>
<!-- Node7 -->
<g id="node8" class="node">
<title>Node7</title>
<polygon fill="none" stroke="#bfbfbf" points="498,-.5 498,-19.5 562,-19.5 562,-.5 498,-.5"/>
<text text-anchor="middle" x="530" y="-7.5" font-family="FreeSans.ttf" font-size="10.00" fill="#000000">algorithm</text>
</g>
<!-- Node5&#45;&gt;Node7 -->
<g id="edge7" class="edge">
<title>Node5&#45;&gt;Node7</title>
<path fill="none" stroke="#191970" d="M342.594,-56.4369C383.0083,-46.4227 446.2808,-30.7446 487.9449,-20.4207"/>
<polygon fill="#191970" stroke="#191970" points="488.9206,-23.7849 497.7853,-17.9824 487.237,-16.9904 488.9206,-23.7849"/>
</g>
<!-- Node8 -->
<g id="node9" class="node">
<title>Node8</title>
<polygon fill="none" stroke="#bfbfbf" points="70,-.5 70,-19.5 112,-19.5 112,-.5 70,-.5"/>
<text text-anchor="middle" x="91" y="-7.5" font-family="FreeSans.ttf" font-size="10.00" fill="#000000">array</text>
</g>
<!-- Node5&#45;&gt;Node8 -->
<g id="edge8" class="edge">
<title>Node5&#45;&gt;Node8</title>
<path fill="none" stroke="#191970" d="M262.3318,-56.4731C227.1926,-48.2272 175.3939,-35.579 121.8946,-20.1165"/>
<polygon fill="#191970" stroke="#191970" points="122.823,-16.7415 112.2429,-17.3012 120.8628,-23.4615 122.823,-16.7415"/>
</g>
<!-- Node9 -->
<g id="node10" class="node">
<title>Node9</title>
<polygon fill="none" stroke="#bfbfbf" points="130.5,-.5 130.5,-19.5 183.5,-19.5 183.5,-.5 130.5,-.5"/>
<text text-anchor="middle" x="157" y="-7.5" font-family="FreeSans.ttf" font-size="10.00" fill="#000000">iterator</text>
</g>
<!-- Node5&#45;&gt;Node9 -->
<g id="edge10" class="edge">
<title>Node5&#45;&gt;Node9</title>
<path fill="none" stroke="#191970" d="M278.7298,-56.3733C254.6034,-47.1822 218.0638,-33.2624 191.3123,-23.0713"/>
<polygon fill="#191970" stroke="#191970" points="192.5313,-19.7904 181.9404,-19.5011 190.0393,-26.3318 192.5313,-19.7904"/>
</g>
<!-- Node10 -->
<g id="node11" class="node">
<title>Node10</title>
<polygon fill="none" stroke="#bfbfbf" points="202,-.5 202,-19.5 246,-19.5 246,-.5 202,-.5"/>
<text text-anchor="middle" x="224" y="-7.5" font-family="FreeSans.ttf" font-size="10.00" fill="#000000">limits</text>
</g>
<!-- Node5&#45;&gt;Node10 -->
<g id="edge11" class="edge">
<title>Node5&#45;&gt;Node10</title>
<path fill="none" stroke="#191970" d="M290.0651,-56.2455C277.9053,-47.7337 260.0536,-35.2375 245.9715,-25.3801"/>
<polygon fill="#191970" stroke="#191970" points="247.9747,-22.51 237.7752,-19.6427 243.9605,-28.2447 247.9747,-22.51"/>
</g>
<!-- Node11 -->
<g id="node12" class="node">
<title>Node11</title>
<polygon fill="none" stroke="#bfbfbf" points="264.5,-.5 264.5,-19.5 329.5,-19.5 329.5,-.5 264.5,-.5"/>
<text text-anchor="middle" x="297" y="-7.5" font-family="FreeSans.ttf" font-size="10.00" fill="#000000">stdexcept</text>
</g>
<!-- Node5&#45;&gt;Node11 -->
<g id="edge12" class="edge">
<title>Node5&#45;&gt;Node11</title>
<path fill="none" stroke="#191970" d="M302.7807,-56.2455C301.8673,-48.9382 300.5868,-38.6944 299.4631,-29.7046"/>
<polygon fill="#191970" stroke="#191970" points="302.9187,-29.1313 298.2053,-19.6427 295.9728,-29.9996 302.9187,-29.1313"/>
</g>
<!-- Node12 -->
<g id="node13" class="node">
<title>Node12</title>
<polygon fill="none" stroke="#bfbfbf" points="347.5,-.5 347.5,-19.5 416.5,-19.5 416.5,-.5 347.5,-.5"/>
<text text-anchor="middle" x="382" y="-7.5" font-family="FreeSans.ttf" font-size="10.00" fill="#000000">type_traits</text>
</g>
<!-- Node5&#45;&gt;Node12 -->
<g id="edge13" class="edge">
<title>Node5&#45;&gt;Node12</title>
<path fill="none" stroke="#191970" d="M317.5866,-56.2455C329.3305,-47.814 346.5199,-35.4729 360.1882,-25.6598"/>
<polygon fill="#191970" stroke="#191970" points="362.4871,-28.3179 368.5691,-19.6427 358.4046,-22.6316 362.4871,-28.3179"/>
</g>
<!-- Node13 -->
<g id="node14" class="node">
<title>Node13</title>
<polygon fill="none" stroke="#bfbfbf" points="434.5,-.5 434.5,-19.5 479.5,-19.5 479.5,-.5 434.5,-.5"/>
<text text-anchor="middle" x="457" y="-7.5" font-family="FreeSans.ttf" font-size="10.00" fill="#000000">utility</text>
</g>
<!-- Node5&#45;&gt;Node13 -->
<g id="edge14" class="edge">
<title>Node5&#45;&gt;Node13</title>
<path fill="none" stroke="#191970" d="M330.3016,-56.3733C356.3259,-46.848 396.2268,-32.2438 424.2832,-21.9748"/>
<polygon fill="#191970" stroke="#191970" points="425.8484,-25.129 434.0362,-18.4051 423.4424,-18.5555 425.8484,-25.129"/>
</g>
</g>
</svg>
