<?xml version="1.0" encoding="UTF-8" standalone="no"?>
<!DOCTYPE svg PUBLIC "-//W3C//DTD SVG 1.1//EN"
 "http://www.w3.org/Graphics/SVG/1.1/DTD/svg11.dtd">
<!-- Generated by graphviz version 2.40.1 (20161225.0304)
 -->
<!-- Title: PositionRaw.cpp Pages: 1 -->
<svg width="1071pt" height="543pt"
 viewBox="0.00 0.00 1070.50 543.00" xmlns="http://www.w3.org/2000/svg" xmlns:xlink="http://www.w3.org/1999/xlink">
<g id="graph0" class="graph" transform="scale(1 1) rotate(0) translate(4 539)">
<title>PositionRaw.cpp</title>
<!-- Node0 -->
<g id="node1" class="node">
<title>Node0</title>
<polygon fill="#bfbfbf" stroke="#000000" points="626,-515.5 626,-534.5 722,-534.5 722,-515.5 626,-515.5"/>
<text text-anchor="middle" x="674" y="-522.5" font-family="FreeSans.ttf" font-size="10.00" fill="#000000">PositionRaw.cpp</text>
</g>
<!-- Node1 -->
<g id="node2" class="node">
<title>Node1</title>
<g id="a_node2"><a xlink:href="PositionRaw_8h.html" target="_top" xlink:title="iDynTree/Core/PositionRaw.h">
<polygon fill="none" stroke="#000000" points="250,-280.5 250,-299.5 406,-299.5 406,-280.5 250,-280.5"/>
<text text-anchor="middle" x="328" y="-287.5" font-family="FreeSans.ttf" font-size="10.00" fill="#000000">iDynTree/Core/PositionRaw.h</text>
</a>
</g>
</g>
<!-- Node0&#45;&gt;Node1 -->
<g id="edge1" class="edge">
<title>Node0&#45;&gt;Node1</title>
<path fill="none" stroke="#191970" d="M625.8705,-521.3872C561.7137,-515.7193 452.5766,-502.84 421,-479 364.0318,-435.9897 339.8703,-348.6911 331.6062,-309.6452"/>
<polygon fill="#191970" stroke="#191970" points="335.0286,-308.9098 329.6449,-299.7847 328.163,-310.2754 335.0286,-308.9098"/>
</g>
<!-- Node3 -->
<g id="node4" class="node">
<title>Node3</title>
<g id="a_node4"><a xlink:href="Utils_8h.html" target="_top" xlink:title="iDynTree/Core/Utils.h">
<polygon fill="none" stroke="#000000" points="65.5,-56.5 65.5,-75.5 184.5,-75.5 184.5,-56.5 65.5,-56.5"/>
<text text-anchor="middle" x="125" y="-63.5" font-family="FreeSans.ttf" font-size="10.00" fill="#000000">iDynTree/Core/Utils.h</text>
</a>
</g>
</g>
<!-- Node0&#45;&gt;Node3 -->
<g id="edge57" class="edge">
<title>Node0&#45;&gt;Node3</title>
<path fill="none" stroke="#191970" d="M625.8249,-521.5382C531.3039,-514.4439 324.7714,-497.369 256,-479 173.5111,-456.9671 80,-487.3808 80,-402 80,-402 80,-402 80,-178 80,-142.7698 99.4078,-105.5087 112.7324,-84.0783"/>
<polygon fill="#191970" stroke="#191970" points="115.6822,-85.9621 118.1655,-75.6623 109.8012,-82.1655 115.6822,-85.9621"/>
</g>
<!-- Node16 -->
<g id="node17" class="node">
<title>Node16</title>
<polygon fill="none" stroke="#bfbfbf" points="749,-112.5 749,-131.5 805,-131.5 805,-112.5 749,-112.5"/>
<text text-anchor="middle" x="777" y="-119.5" font-family="FreeSans.ttf" font-size="10.00" fill="#000000">sstream</text>
</g>
<!-- Node0&#45;&gt;Node16 -->
<g id="edge59" class="edge">
<title>Node0&#45;&gt;Node16</title>
<path fill="none" stroke="#191970" d="M706.1156,-515.4241C724.7627,-508.27 747.2212,-496.638 761,-479 782.6998,-451.2225 780,-437.2487 780,-402 780,-402 780,-402 780,-234 780,-201.7 778.7378,-164.1791 777.8508,-141.8005"/>
<polygon fill="#191970" stroke="#191970" points="781.3387,-141.4334 777.4298,-131.5861 774.3447,-141.7217 781.3387,-141.4334"/>
</g>
<!-- Node18 -->
<g id="node19" class="node">
<title>Node18</title>
<g id="a_node19"><a xlink:href="RotationRaw_8h.html" target="_top" xlink:title="iDynTree/Core/RotationRaw.h">
<polygon fill="none" stroke="#000000" points="260,-224.5 260,-243.5 418,-243.5 418,-224.5 260,-224.5"/>
<text text-anchor="middle" x="339" y="-231.5" font-family="FreeSans.ttf" font-size="10.00" fill="#000000">iDynTree/Core/RotationRaw.h</text>
</a>
</g>
</g>
<!-- Node0&#45;&gt;Node18 -->
<g id="edge21" class="edge">
<title>Node0&#45;&gt;Node18</title>
<path fill="none" stroke="#191970" d="M625.6281,-522.1046C509.0244,-513.8056 222,-484.9523 222,-402 222,-402 222,-402 222,-346 222,-315.4754 221.193,-303.2258 241,-280 253.9656,-264.7964 273.0635,-254.2873 290.9644,-247.1955"/>
<polygon fill="#191970" stroke="#191970" points="292.5631,-250.3368 300.7396,-243.5991 290.1461,-243.7673 292.5631,-250.3368"/>
</g>
<!-- Node22 -->
<g id="node23" class="node">
<title>Node22</title>
<g id="a_node23"><a xlink:href="SpatialMotionVector_8h.html" target="_top" xlink:title="iDynTree/Core/SpatialMotion\lVector.h">
<polygon fill="none" stroke="#000000" points="596.5,-448.5 596.5,-478.5 751.5,-478.5 751.5,-448.5 596.5,-448.5"/>
<text text-anchor="start" x="604.5" y="-466.5" font-family="FreeSans.ttf" font-size="10.00" fill="#000000">iDynTree/Core/SpatialMotion</text>
<text text-anchor="middle" x="674" y="-455.5" font-family="FreeSans.ttf" font-size="10.00" fill="#000000">Vector.h</text>
</a>
</g>
</g>
<!-- Node0&#45;&gt;Node22 -->
<g id="edge35" class="edge">
<title>Node0&#45;&gt;Node22</title>
<path fill="none" stroke="#191970" d="M674,-515.3906C674,-508.2234 674,-498.0862 674,-488.671"/>
<polygon fill="#191970" stroke="#191970" points="677.5001,-488.5446 674,-478.5446 670.5001,-488.5446 677.5001,-488.5446"/>
</g>
<!-- Node27 -->
<g id="node28" class="node">
<title>Node27</title>
<g id="a_node28"><a xlink:href="SpatialForceVector_8h.html" target="_top" xlink:title="iDynTree/Core/SpatialForce\lVector.h">
<polygon fill="none" stroke="#000000" points="430,-448.5 430,-478.5 578,-478.5 578,-448.5 430,-448.5"/>
<text text-anchor="start" x="438" y="-466.5" font-family="FreeSans.ttf" font-size="10.00" fill="#000000">iDynTree/Core/SpatialForce</text>
<text text-anchor="middle" x="504" y="-455.5" font-family="FreeSans.ttf" font-size="10.00" fill="#000000">Vector.h</text>
</a>
</g>
</g>
<!-- Node0&#45;&gt;Node27 -->
<g id="edge53" class="edge">
<title>Node0&#45;&gt;Node27</title>
<path fill="none" stroke="#191970" d="M647.4375,-515.3906C622.8323,-506.4893 585.5649,-493.0073 555.1839,-482.0165"/>
<polygon fill="#191970" stroke="#191970" points="556.1809,-478.6553 545.5867,-478.5446 553.7996,-485.2378 556.1809,-478.6553"/>
</g>
<!-- Node28 -->
<g id="node29" class="node">
<title>Node28</title>
<polygon fill="none" stroke="#bfbfbf" points="808,-454 808,-473 854,-473 854,-454 808,-454"/>
<text text-anchor="middle" x="831" y="-461" font-family="FreeSans.ttf" font-size="10.00" fill="#000000">cstdio</text>
</g>
<!-- Node0&#45;&gt;Node28 -->
<g id="edge58" class="edge">
<title>Node0&#45;&gt;Node28</title>
<path fill="none" stroke="#191970" d="M699.8384,-515.3568C724.201,-506.2026 761.6947,-491.9549 794,-479 795.5999,-478.3584 797.2362,-477.696 798.887,-477.0228"/>
<polygon fill="#191970" stroke="#191970" points="800.4384,-480.169 808.347,-473.1189 797.768,-473.6984 800.4384,-480.169"/>
</g>
<!-- Node29 -->
<g id="node30" class="node">
<title>Node29</title>
<polygon fill="none" stroke="#bfbfbf" points="872.5,-454 872.5,-473 949.5,-473 949.5,-454 872.5,-454"/>
<text text-anchor="middle" x="911" y="-461" font-family="FreeSans.ttf" font-size="10.00" fill="#000000">Eigen/Dense</text>
</g>
<!-- Node0&#45;&gt;Node29 -->
<g id="edge60" class="edge">
<title>Node0&#45;&gt;Node29</title>
<path fill="none" stroke="#191970" d="M717.0206,-515.4795C755.4818,-506.7428 813.2804,-493.0576 863,-479 866.2021,-478.0946 869.5113,-477.1165 872.8251,-476.1072"/>
<polygon fill="#191970" stroke="#191970" points="874.1778,-479.3514 882.6781,-473.0273 872.0893,-472.6703 874.1778,-479.3514"/>
</g>
<!-- Node30 -->
<g id="node31" class="node">
<title>Node30</title>
<polygon fill="none" stroke="#bfbfbf" points="967.5,-454 967.5,-473 1062.5,-473 1062.5,-454 967.5,-454"/>
<text text-anchor="middle" x="1015" y="-461" font-family="FreeSans.ttf" font-size="10.00" fill="#000000">Eigen/Geometry</text>
</g>
<!-- Node0&#45;&gt;Node30 -->
<g id="edge61" class="edge">
<title>Node0&#45;&gt;Node30</title>
<path fill="none" stroke="#191970" d="M722.2086,-518.8671C779.1281,-511.2467 876.4934,-497.0195 959,-479 963.6228,-477.9904 968.4316,-476.8304 973.2031,-475.609"/>
<polygon fill="#191970" stroke="#191970" points="974.1046,-478.9909 982.8731,-473.0442 972.31,-472.2249 974.1046,-478.9909"/>
</g>
<!-- Node2 -->
<g id="node3" class="node">
<title>Node2</title>
<g id="a_node3"><a xlink:href="VectorFixSize_8h.html" target="_top" xlink:title="iDynTree/Core/VectorFixSize.h">
<polygon fill="none" stroke="#000000" points="477.5,-168.5 477.5,-187.5 638.5,-187.5 638.5,-168.5 477.5,-168.5"/>
<text text-anchor="middle" x="558" y="-175.5" font-family="FreeSans.ttf" font-size="10.00" fill="#000000">iDynTree/Core/VectorFixSize.h</text>
</a>
</g>
</g>
<!-- Node1&#45;&gt;Node2 -->
<g id="edge2" class="edge">
<title>Node1&#45;&gt;Node2</title>
<path fill="none" stroke="#191970" d="M348.9497,-280.4993C369.0505,-271.3286 400.2179,-256.9647 427,-244 462.9302,-226.6069 503.9741,-205.769 530.3985,-192.2258"/>
<polygon fill="#191970" stroke="#191970" points="532.1382,-195.2671 539.4358,-187.5862 528.9412,-189.0398 532.1382,-195.2671"/>
</g>
<!-- Node15 -->
<g id="node16" class="node">
<title>Node15</title>
<polygon fill="none" stroke="#bfbfbf" points="174,-112.5 174,-131.5 218,-131.5 218,-112.5 174,-112.5"/>
<text text-anchor="middle" x="196" y="-119.5" font-family="FreeSans.ttf" font-size="10.00" fill="#000000">string</text>
</g>
<!-- Node1&#45;&gt;Node15 -->
<g id="edge20" class="edge">
<title>Node1&#45;&gt;Node15</title>
<path fill="none" stroke="#191970" d="M275.5689,-280.4976C237.8289,-272.4668 191.607,-259.7623 180,-244 157.5235,-213.477 173.8932,-166.6527 186.0558,-140.7903"/>
<polygon fill="#191970" stroke="#191970" points="189.2637,-142.1996 190.5762,-131.6864 182.994,-139.0865 189.2637,-142.1996"/>
</g>
<!-- Node2&#45;&gt;Node3 -->
<g id="edge3" class="edge">
<title>Node2&#45;&gt;Node3</title>
<path fill="none" stroke="#191970" d="M540.8683,-168.2773C514.4783,-153.7382 461.9067,-126.4947 414,-112 340.9096,-89.8858 254.0222,-77.8822 194.7347,-71.74"/>
<polygon fill="#191970" stroke="#191970" points="195.0308,-68.2522 184.7302,-70.732 194.329,-75.217 195.0308,-68.2522"/>
</g>
<!-- Node6 -->
<g id="node7" class="node">
<title>Node6</title>
<g id="a_node7"><a xlink:href="Span_8h.html" target="_top" xlink:title="iDynTree/Core/Span.h">
<polygon fill="none" stroke="#000000" points="410.5,-56.5 410.5,-75.5 531.5,-75.5 531.5,-56.5 410.5,-56.5"/>
<text text-anchor="middle" x="471" y="-63.5" font-family="FreeSans.ttf" font-size="10.00" fill="#000000">iDynTree/Core/Span.h</text>
</a>
</g>
</g>
<!-- Node2&#45;&gt;Node6 -->
<g id="edge6" class="edge">
<title>Node2&#45;&gt;Node6</title>
<path fill="none" stroke="#191970" d="M537.0127,-168.3777C522.1516,-160.554 502.8312,-148.1694 491,-132 481.0698,-118.4287 476.0157,-99.8823 473.4763,-85.9051"/>
<polygon fill="#191970" stroke="#191970" points="476.9108,-85.2105 471.9338,-75.8575 469.9918,-86.2728 476.9108,-85.2105"/>
</g>
<!-- Node7 -->
<g id="node8" class="node">
<title>Node7</title>
<polygon fill="none" stroke="#bfbfbf" points="680,-.5 680,-19.5 732,-19.5 732,-.5 680,-.5"/>
<text text-anchor="middle" x="706" y="-7.5" font-family="FreeSans.ttf" font-size="10.00" fill="#000000">cassert</text>
</g>
<!-- Node2&#45;&gt;Node7 -->
<g id="edge18" class="edge">
<title>Node2&#45;&gt;Node7</title>
<path fill="none" stroke="#191970" d="M596.7346,-168.432C617.8791,-161.4481 643.1141,-149.9865 660,-132 687.3843,-102.8307 698.8826,-55.7836 703.3774,-29.4501"/>
<polygon fill="#191970" stroke="#191970" points="706.8399,-29.961 704.9008,-19.5451 699.9212,-28.8968 706.8399,-29.961"/>
</g>
<!-- Node2&#45;&gt;Node15 -->
<g id="edge16" class="edge">
<title>Node2&#45;&gt;Node15</title>
<path fill="none" stroke="#191970" d="M480.7064,-168.491C399.2241,-158.2287 276.3699,-142.014 230,-132 229.3986,-131.8701 228.7923,-131.7351 228.1824,-131.5956"/>
<polygon fill="#191970" stroke="#191970" points="228.7481,-128.1275 218.1922,-129.0348 227.0099,-134.9083 228.7481,-128.1275"/>
</g>
<!-- Node2&#45;&gt;Node16 -->
<g id="edge17" class="edge">
<title>Node2&#45;&gt;Node16</title>
<path fill="none" stroke="#191970" d="M595.6474,-168.3733C635.7833,-158.1102 698.978,-141.9508 739.1799,-131.6709"/>
<polygon fill="#191970" stroke="#191970" points="740.0561,-135.0595 748.8773,-129.1912 738.3219,-128.2777 740.0561,-135.0595"/>
</g>
<!-- Node17 -->
<g id="node18" class="node">
<title>Node17</title>
<polygon fill="none" stroke="#bfbfbf" points="355,-112.5 355,-131.5 405,-131.5 405,-112.5 355,-112.5"/>
<text text-anchor="middle" x="380" y="-119.5" font-family="FreeSans.ttf" font-size="10.00" fill="#000000">cstring</text>
</g>
<!-- Node2&#45;&gt;Node17 -->
<g id="edge19" class="edge">
<title>Node2&#45;&gt;Node17</title>
<path fill="none" stroke="#191970" d="M527.4007,-168.3733C496.0524,-158.5109 447.3971,-143.2036 414.6499,-132.9011"/>
<polygon fill="#191970" stroke="#191970" points="415.6239,-129.5384 405.0344,-129.876 413.5231,-136.2158 415.6239,-129.5384"/>
</g>
<!-- Node4 -->
<g id="node5" class="node">
<title>Node4</title>
<polygon fill="none" stroke="#bfbfbf" points="98.5,-.5 98.5,-19.5 151.5,-19.5 151.5,-.5 98.5,-.5"/>
<text text-anchor="middle" x="125" y="-7.5" font-family="FreeSans.ttf" font-size="10.00" fill="#000000">cstddef</text>
</g>
<!-- Node3&#45;&gt;Node4 -->
<g id="edge4" class="edge">
<title>Node3&#45;&gt;Node4</title>
<path fill="none" stroke="#191970" d="M125,-56.2455C125,-48.9382 125,-38.6944 125,-29.7046"/>
<polygon fill="#191970" stroke="#191970" points="128.5001,-29.6426 125,-19.6427 121.5001,-29.6427 128.5001,-29.6426"/>
</g>
<!-- Node5 -->
<g id="node6" class="node">
<title>Node5</title>
<polygon fill="none" stroke="#bfbfbf" points="0,-.5 0,-19.5 80,-19.5 80,-.5 0,-.5"/>
<text text-anchor="middle" x="40" y="-7.5" font-family="FreeSans.ttf" font-size="10.00" fill="#000000">CoreExport.h</text>
</g>
<!-- Node3&#45;&gt;Node5 -->
<g id="edge5" class="edge">
<title>Node3&#45;&gt;Node5</title>
<path fill="none" stroke="#191970" d="M110.1941,-56.2455C97.2744,-47.7337 78.3069,-35.2375 63.3448,-25.3801"/>
<polygon fill="#191970" stroke="#191970" points="64.9124,-22.2216 54.6362,-19.6427 61.0613,-28.067 64.9124,-22.2216"/>
</g>
<!-- Node6&#45;&gt;Node4 -->
<g id="edge10" class="edge">
<title>Node6&#45;&gt;Node4</title>
<path fill="none" stroke="#191970" d="M410.3067,-59.2457C349.7293,-51.9976 253.8561,-39.1575 161.7025,-19.9248"/>
<polygon fill="#191970" stroke="#191970" points="162.1537,-16.4429 151.6457,-17.797 160.7046,-23.2912 162.1537,-16.4429"/>
</g>
<!-- Node6&#45;&gt;Node7 -->
<g id="edge7" class="edge">
<title>Node6&#45;&gt;Node7</title>
<path fill="none" stroke="#191970" d="M515.6454,-56.4317C554.1412,-48.0242 611.4303,-35.1392 669.8948,-20.1973"/>
<polygon fill="#191970" stroke="#191970" points="670.8544,-23.5645 679.6669,-17.6831 669.1102,-16.7852 670.8544,-23.5645"/>
</g>
<!-- Node8 -->
<g id="node9" class="node">
<title>Node8</title>
<polygon fill="none" stroke="#bfbfbf" points="450,-.5 450,-19.5 514,-19.5 514,-.5 450,-.5"/>
<text text-anchor="middle" x="482" y="-7.5" font-family="FreeSans.ttf" font-size="10.00" fill="#000000">algorithm</text>
</g>
<!-- Node6&#45;&gt;Node8 -->
<g id="edge8" class="edge">
<title>Node6&#45;&gt;Node8</title>
<path fill="none" stroke="#191970" d="M472.9161,-56.2455C474.3514,-48.9382 476.3636,-38.6944 478.1295,-29.7046"/>
<polygon fill="#191970" stroke="#191970" points="481.6127,-30.1298 480.1059,-19.6427 474.744,-28.7805 481.6127,-30.1298"/>
</g>
<!-- Node9 -->
<g id="node10" class="node">
<title>Node9</title>
<polygon fill="none" stroke="#bfbfbf" points="532,-.5 532,-19.5 574,-19.5 574,-.5 532,-.5"/>
<text text-anchor="middle" x="553" y="-7.5" font-family="FreeSans.ttf" font-size="10.00" fill="#000000">array</text>
</g>
<!-- Node6&#45;&gt;Node9 -->
<g id="edge9" class="edge">
<title>Node6&#45;&gt;Node9</title>
<path fill="none" stroke="#191970" d="M485.2833,-56.2455C497.747,-47.7337 516.0451,-35.2375 530.4792,-25.3801"/>
<polygon fill="#191970" stroke="#191970" points="532.5962,-28.1726 538.8804,-19.6427 528.6485,-22.392 532.5962,-28.1726"/>
</g>
<!-- Node10 -->
<g id="node11" class="node">
<title>Node10</title>
<polygon fill="none" stroke="#bfbfbf" points="169.5,-.5 169.5,-19.5 222.5,-19.5 222.5,-.5 169.5,-.5"/>
<text text-anchor="middle" x="196" y="-7.5" font-family="FreeSans.ttf" font-size="10.00" fill="#000000">iterator</text>
</g>
<!-- Node6&#45;&gt;Node10 -->
<g id="edge11" class="edge">
<title>Node6&#45;&gt;Node10</title>
<path fill="none" stroke="#191970" d="M414.7115,-56.4907C368.385,-48.3638 300.814,-35.824 232.7222,-20.0229"/>
<polygon fill="#191970" stroke="#191970" points="233.2094,-16.5423 222.6745,-17.6681 231.612,-23.3577 233.2094,-16.5423"/>
</g>
<!-- Node11 -->
<g id="node12" class="node">
<title>Node11</title>
<polygon fill="none" stroke="#bfbfbf" points="241,-.5 241,-19.5 285,-19.5 285,-.5 241,-.5"/>
<text text-anchor="middle" x="263" y="-7.5" font-family="FreeSans.ttf" font-size="10.00" fill="#000000">limits</text>
</g>
<!-- Node6&#45;&gt;Node11 -->
<g id="edge12" class="edge">
<title>Node6&#45;&gt;Node11</title>
<path fill="none" stroke="#191970" d="M432.4041,-56.4704C396.65,-47.5105 342.0555,-33.4936 295,-20 294.9021,-19.9719 294.804,-19.9438 294.7058,-19.9155"/>
<polygon fill="#191970" stroke="#191970" points="295.922,-16.6258 285.3391,-17.1286 293.9257,-23.3351 295.922,-16.6258"/>
</g>
<!-- Node12 -->
<g id="node13" class="node">
<title>Node12</title>
<polygon fill="none" stroke="#bfbfbf" points="303.5,-.5 303.5,-19.5 368.5,-19.5 368.5,-.5 303.5,-.5"/>
<text text-anchor="middle" x="336" y="-7.5" font-family="FreeSans.ttf" font-size="10.00" fill="#000000">stdexcept</text>
</g>
<!-- Node6&#45;&gt;Node12 -->
<g id="edge13" class="edge">
<title>Node6&#45;&gt;Node12</title>
<path fill="none" stroke="#191970" d="M447.7927,-56.3733C425.8301,-47.2629 392.6668,-33.5062 368.1599,-23.3404"/>
<polygon fill="#191970" stroke="#191970" points="369.4824,-20.0999 358.9045,-19.5011 366.8003,-26.5657 369.4824,-20.0999"/>
</g>
<!-- Node13 -->
<g id="node14" class="node">
<title>Node13</title>
<polygon fill="none" stroke="#bfbfbf" points="592.5,-.5 592.5,-19.5 661.5,-19.5 661.5,-.5 592.5,-.5"/>
<text text-anchor="middle" x="627" y="-7.5" font-family="FreeSans.ttf" font-size="10.00" fill="#000000">type_traits</text>
</g>
<!-- Node6&#45;&gt;Node13 -->
<g id="edge14" class="edge">
<title>Node6&#45;&gt;Node13</title>
<path fill="none" stroke="#191970" d="M497.8174,-56.3733C523.5332,-47.1419 562.538,-33.1402 590.9599,-22.9375"/>
<polygon fill="#191970" stroke="#191970" points="592.3032,-26.174 600.5326,-19.5011 589.9381,-19.5857 592.3032,-26.174"/>
</g>
<!-- Node14 -->
<g id="node15" class="node">
<title>Node14</title>
<polygon fill="none" stroke="#bfbfbf" points="386.5,-.5 386.5,-19.5 431.5,-19.5 431.5,-.5 386.5,-.5"/>
<text text-anchor="middle" x="409" y="-7.5" font-family="FreeSans.ttf" font-size="10.00" fill="#000000">utility</text>
</g>
<!-- Node6&#45;&gt;Node14 -->
<g id="edge15" class="edge">
<title>Node6&#45;&gt;Node14</title>
<path fill="none" stroke="#191970" d="M460.2004,-56.2455C451.1322,-48.0549 437.9794,-36.1749 427.2755,-26.5069"/>
<polygon fill="#191970" stroke="#191970" points="429.4429,-23.7482 419.6758,-19.6427 424.7509,-28.9429 429.4429,-23.7482"/>
</g>
<!-- Node18&#45;&gt;Node15 -->
<g id="edge34" class="edge">
<title>Node18&#45;&gt;Node15</title>
<path fill="none" stroke="#191970" d="M326.8079,-224.4509C302.2185,-205.1921 246.4609,-161.5218 216.2926,-137.8935"/>
<polygon fill="#191970" stroke="#191970" points="218.1921,-134.9355 208.1612,-131.5249 213.8759,-140.4464 218.1921,-134.9355"/>
</g>
<!-- Node19 -->
<g id="node20" class="node">
<title>Node19</title>
<g id="a_node20"><a xlink:href="MatrixFixSize_8h.html" target="_top" xlink:title="iDynTree/Core/MatrixFixSize.h">
<polygon fill="none" stroke="#000000" points="298.5,-168.5 298.5,-187.5 459.5,-187.5 459.5,-168.5 298.5,-168.5"/>
<text text-anchor="middle" x="379" y="-175.5" font-family="FreeSans.ttf" font-size="10.00" fill="#000000">iDynTree/Core/MatrixFixSize.h</text>
</a>
</g>
</g>
<!-- Node18&#45;&gt;Node19 -->
<g id="edge22" class="edge">
<title>Node18&#45;&gt;Node19</title>
<path fill="none" stroke="#191970" d="M345.9675,-224.2455C351.5311,-216.4564 359.478,-205.3308 366.1829,-195.9439"/>
<polygon fill="#191970" stroke="#191970" points="369.148,-197.8144 372.1124,-187.6427 363.4519,-193.7457 369.148,-197.8144"/>
</g>
<!-- Node19&#45;&gt;Node3 -->
<g id="edge23" class="edge">
<title>Node19&#45;&gt;Node3</title>
<path fill="none" stroke="#191970" d="M371.379,-168.3087C359.4462,-153.8106 334.9154,-126.6199 308,-112 273.1536,-93.0722 230.3445,-81.7593 194.8945,-75.0921"/>
<polygon fill="#191970" stroke="#191970" points="195.0871,-71.5708 184.6262,-73.2506 193.8514,-78.4609 195.0871,-71.5708"/>
</g>
<!-- Node19&#45;&gt;Node7 -->
<g id="edge29" class="edge">
<title>Node19&#45;&gt;Node7</title>
<path fill="none" stroke="#191970" d="M459.65,-168.9496C537.1004,-159.5977 644.583,-144.6272 660,-132 691.2445,-106.4093 701.2813,-57.2299 704.4951,-29.772"/>
<polygon fill="#191970" stroke="#191970" points="707.9825,-30.0715 705.4726,-19.7783 701.0157,-29.3901 707.9825,-30.0715"/>
</g>
<!-- Node19&#45;&gt;Node15 -->
<g id="edge31" class="edge">
<title>Node19&#45;&gt;Node15</title>
<path fill="none" stroke="#191970" d="M347.5412,-168.3733C314.1084,-158.1425 261.5282,-142.0523 227.9204,-131.768"/>
<polygon fill="#191970" stroke="#191970" points="228.7282,-128.355 218.1417,-128.7756 226.6798,-135.0486 228.7282,-128.355"/>
</g>
<!-- Node19&#45;&gt;Node16 -->
<g id="edge33" class="edge">
<title>Node19&#45;&gt;Node16</title>
<path fill="none" stroke="#191970" d="M457.8845,-168.4759C545.1464,-157.8009 680.1459,-140.8344 731,-132 733.627,-131.5436 736.3315,-131.0412 739.0511,-130.5118"/>
<polygon fill="#191970" stroke="#191970" points="739.7561,-133.9401 748.8542,-128.511 738.3563,-127.0815 739.7561,-133.9401"/>
</g>
<!-- Node19&#45;&gt;Node17 -->
<g id="edge30" class="edge">
<title>Node19&#45;&gt;Node17</title>
<path fill="none" stroke="#191970" d="M379.1742,-168.2455C379.3047,-160.9382 379.4876,-150.6944 379.6481,-141.7046"/>
<polygon fill="#191970" stroke="#191970" points="383.1486,-141.7036 379.8278,-131.6427 376.1497,-141.5786 383.1486,-141.7036"/>
</g>
<!-- Node20 -->
<g id="node21" class="node">
<title>Node20</title>
<g id="a_node21"><a xlink:href="MatrixView_8h.html" target="_top" xlink:title="iDynTree/Core/MatrixView.h">
<polygon fill="none" stroke="#000000" points="499.5,-112.5 499.5,-131.5 650.5,-131.5 650.5,-112.5 499.5,-112.5"/>
<text text-anchor="middle" x="575" y="-119.5" font-family="FreeSans.ttf" font-size="10.00" fill="#000000">iDynTree/Core/MatrixView.h</text>
</a>
</g>
</g>
<!-- Node19&#45;&gt;Node20 -->
<g id="edge24" class="edge">
<title>Node19&#45;&gt;Node20</title>
<path fill="none" stroke="#191970" d="M412.6936,-168.3733C445.7087,-158.9404 496.1573,-144.5265 532.0386,-134.2747"/>
<polygon fill="#191970" stroke="#191970" points="533.0924,-137.6137 541.7461,-131.5011 531.1693,-130.8831 533.0924,-137.6137"/>
</g>
<!-- Node21 -->
<g id="node22" class="node">
<title>Node21</title>
<polygon fill="none" stroke="#bfbfbf" points="239,-112.5 239,-131.5 299,-131.5 299,-112.5 239,-112.5"/>
<text text-anchor="middle" x="269" y="-119.5" font-family="FreeSans.ttf" font-size="10.00" fill="#000000">iostream</text>
</g>
<!-- Node19&#45;&gt;Node21 -->
<g id="edge32" class="edge">
<title>Node19&#45;&gt;Node21</title>
<path fill="none" stroke="#191970" d="M359.8395,-168.2455C342.4889,-159.4125 316.7099,-146.2887 297.0417,-136.2758"/>
<polygon fill="#191970" stroke="#191970" points="298.4405,-133.0605 287.941,-131.6427 295.2647,-139.2986 298.4405,-133.0605"/>
</g>
<!-- Node20&#45;&gt;Node3 -->
<g id="edge28" class="edge">
<title>Node20&#45;&gt;Node3</title>
<path fill="none" stroke="#191970" d="M499.4265,-112.5953C414.3534,-102.0084 277.2648,-84.9485 194.6856,-74.672"/>
<polygon fill="#191970" stroke="#191970" points="195.0006,-71.1843 184.6449,-73.4225 194.1361,-78.1307 195.0006,-71.1843"/>
</g>
<!-- Node20&#45;&gt;Node6 -->
<g id="edge27" class="edge">
<title>Node20&#45;&gt;Node6</title>
<path fill="none" stroke="#191970" d="M556.8846,-112.2455C540.555,-103.4527 516.329,-90.4079 497.7661,-80.4125"/>
<polygon fill="#191970" stroke="#191970" points="499.3719,-77.3021 488.9078,-75.6427 496.0532,-83.4654 499.3719,-77.3021"/>
</g>
<!-- Node20&#45;&gt;Node7 -->
<g id="edge25" class="edge">
<title>Node20&#45;&gt;Node7</title>
<path fill="none" stroke="#191970" d="M586.169,-112.4509C608.5983,-93.2747 659.3357,-49.8962 687.0532,-26.1988"/>
<polygon fill="#191970" stroke="#191970" points="689.5329,-28.6835 694.8593,-19.5249 684.9841,-23.363 689.5329,-28.6835"/>
</g>
<!-- Node20&#45;&gt;Node13 -->
<g id="edge26" class="edge">
<title>Node20&#45;&gt;Node13</title>
<path fill="none" stroke="#191970" d="M579.4335,-112.4509C588.0297,-93.936 607.1011,-52.8591 618.3092,-28.7187"/>
<polygon fill="#191970" stroke="#191970" points="621.5411,-30.0689 622.5777,-19.5249 615.192,-27.1211 621.5411,-30.0689"/>
</g>
<!-- Node22&#45;&gt;Node2 -->
<g id="edge36" class="edge">
<title>Node22&#45;&gt;Node2</title>
<path fill="none" stroke="#191970" d="M689.7715,-448.4006C709.8594,-427.4631 742,-387.4816 742,-346 742,-346 742,-346 742,-290 742,-256.3717 731.1155,-245.186 705,-224 684.65,-207.4912 658.3405,-196.8809 633.6156,-190.0724"/>
<polygon fill="#191970" stroke="#191970" points="634.4282,-186.6675 623.8708,-187.5571 632.6787,-193.4453 634.4282,-186.6675"/>
</g>
<!-- Node23 -->
<g id="node24" class="node">
<title>Node23</title>
<g id="a_node24"><a xlink:href="GeomVector3_8h.html" target="_top" xlink:title="iDynTree/Core/GeomVector3.h">
<polygon fill="none" stroke="#000000" points="512.5,-224.5 512.5,-243.5 675.5,-243.5 675.5,-224.5 512.5,-224.5"/>
<text text-anchor="middle" x="594" y="-231.5" font-family="FreeSans.ttf" font-size="10.00" fill="#000000">iDynTree/Core/GeomVector3.h</text>
</a>
</g>
</g>
<!-- Node22&#45;&gt;Node23 -->
<g id="edge37" class="edge">
<title>Node22&#45;&gt;Node23</title>
<path fill="none" stroke="#191970" d="M668.751,-448.4419C654.7199,-408.1901 616.3532,-298.1259 600.7419,-253.3409"/>
<polygon fill="#191970" stroke="#191970" points="604.0469,-252.1888 597.4503,-243.8981 597.437,-254.493 604.0469,-252.1888"/>
</g>
<!-- Node24 -->
<g id="node25" class="node">
<title>Node24</title>
<g id="a_node25"><a xlink:href="SpatialVector_8h.html" target="_top" xlink:title="iDynTree/Core/SpatialVector.h">
<polygon fill="none" stroke="#000000" points="400.5,-392.5 400.5,-411.5 561.5,-411.5 561.5,-392.5 400.5,-392.5"/>
<text text-anchor="middle" x="481" y="-399.5" font-family="FreeSans.ttf" font-size="10.00" fill="#000000">iDynTree/Core/SpatialVector.h</text>
</a>
</g>
</g>
<!-- Node22&#45;&gt;Node24 -->
<g id="edge39" class="edge">
<title>Node22&#45;&gt;Node24</title>
<path fill="none" stroke="#191970" d="M626.7869,-448.4554C594.1606,-438.059 551.2596,-424.3884 520.4559,-414.5727"/>
<polygon fill="#191970" stroke="#191970" points="521.4988,-411.2317 510.9081,-411.5303 519.3735,-417.9013 521.4988,-411.2317"/>
</g>
<!-- Node23&#45;&gt;Node2 -->
<g id="edge38" class="edge">
<title>Node23&#45;&gt;Node2</title>
<path fill="none" stroke="#191970" d="M587.7293,-224.2455C582.7736,-216.5367 575.717,-205.5598 569.7224,-196.2348"/>
<polygon fill="#191970" stroke="#191970" points="572.5506,-194.1618 564.1989,-187.6427 566.6624,-197.9471 572.5506,-194.1618"/>
</g>
<!-- Node24&#45;&gt;Node3 -->
<g id="edge49" class="edge">
<title>Node24&#45;&gt;Node3</title>
<path fill="none" stroke="#191970" d="M400.4806,-397.8655C273.7451,-389.1283 42,-363.1506 42,-290 42,-290 42,-290 42,-178 42,-146.7875 47.6447,-137.2449 66,-112 74.9474,-99.6943 88.0599,-89.0188 99.6523,-81.0582"/>
<polygon fill="#191970" stroke="#191970" points="101.672,-83.9195 108.1267,-75.5178 97.8415,-78.0605 101.672,-83.9195"/>
</g>
<!-- Node24&#45;&gt;Node16 -->
<g id="edge52" class="edge">
<title>Node24&#45;&gt;Node16</title>
<path fill="none" stroke="#191970" d="M555.3733,-392.4879C654.6162,-377.6767 818,-344.9486 818,-290 818,-290 818,-290 818,-234 818,-199.3444 800.4755,-162.1312 788.3408,-140.5174"/>
<polygon fill="#191970" stroke="#191970" points="791.2886,-138.6243 783.227,-131.7496 785.2419,-142.1511 791.2886,-138.6243"/>
</g>
<!-- Node24&#45;&gt;Node21 -->
<g id="edge51" class="edge">
<title>Node24&#45;&gt;Node21</title>
<path fill="none" stroke="#191970" d="M407.4935,-392.4596C351.4041,-380.8982 277.7202,-355.5051 241,-300 208.0099,-250.1333 239.8895,-175.5062 258.1634,-140.8888"/>
<polygon fill="#191970" stroke="#191970" points="261.3693,-142.3214 263.1018,-131.8691 255.2293,-138.9596 261.3693,-142.3214"/>
</g>
<!-- Node24&#45;&gt;Node23 -->
<g id="edge50" class="edge">
<title>Node24&#45;&gt;Node23</title>
<path fill="none" stroke="#191970" d="M491.9328,-392.3455C510.5558,-375.3702 548.5876,-338.3264 571,-300 579.5066,-285.4533 585.5524,-267.2664 589.3039,-253.6697"/>
<polygon fill="#191970" stroke="#191970" points="592.7135,-254.464 591.8239,-243.9066 585.9357,-252.7145 592.7135,-254.464"/>
</g>
<!-- Node25 -->
<g id="node26" class="node">
<title>Node25</title>
<g id="a_node26"><a xlink:href="Position_8h.html" target="_top" xlink:title="Position.h">
<polygon fill="none" stroke="#000000" points="384.5,-336.5 384.5,-355.5 449.5,-355.5 449.5,-336.5 384.5,-336.5"/>
<text text-anchor="middle" x="417" y="-343.5" font-family="FreeSans.ttf" font-size="10.00" fill="#000000">Position.h</text>
</a>
</g>
</g>
<!-- Node24&#45;&gt;Node25 -->
<g id="edge40" class="edge">
<title>Node24&#45;&gt;Node25</title>
<path fill="none" stroke="#191970" d="M469.8521,-392.2455C460.4913,-384.0549 446.9142,-372.1749 435.8651,-362.5069"/>
<polygon fill="#191970" stroke="#191970" points="437.8508,-359.5937 428.0202,-355.6427 433.2412,-364.8618 437.8508,-359.5937"/>
</g>
<!-- Node26 -->
<g id="node27" class="node">
<title>Node26</title>
<g id="a_node27"><a xlink:href="Rotation_8h.html" target="_top" xlink:title="iDynTree/Core/Rotation.h">
<polygon fill="none" stroke="#000000" points="424.5,-280.5 424.5,-299.5 561.5,-299.5 561.5,-280.5 424.5,-280.5"/>
<text text-anchor="middle" x="493" y="-287.5" font-family="FreeSans.ttf" font-size="10.00" fill="#000000">iDynTree/Core/Rotation.h</text>
</a>
</g>
</g>
<!-- Node24&#45;&gt;Node26 -->
<g id="edge48" class="edge">
<title>Node24&#45;&gt;Node26</title>
<path fill="none" stroke="#191970" d="M482.0231,-392.4509C483.9803,-374.184 488.2905,-333.9553 490.8895,-309.6976"/>
<polygon fill="#191970" stroke="#191970" points="494.3941,-309.8409 491.9795,-299.5249 487.434,-309.0951 494.3941,-309.8409"/>
</g>
<!-- Node25&#45;&gt;Node1 -->
<g id="edge41" class="edge">
<title>Node25&#45;&gt;Node1</title>
<path fill="none" stroke="#191970" d="M401.4974,-336.2455C387.842,-327.6534 367.7343,-315.0014 352.0011,-305.1018"/>
<polygon fill="#191970" stroke="#191970" points="353.6529,-302.006 343.325,-299.6427 349.9249,-307.9307 353.6529,-302.006"/>
</g>
<!-- Node25&#45;&gt;Node15 -->
<g id="edge47" class="edge">
<title>Node25&#45;&gt;Node15</title>
<path fill="none" stroke="#191970" d="M384.1962,-341.3725C347.8062,-335.3571 288.0253,-322.8161 241,-300 203.8923,-281.9958 185.6947,-280.7647 167,-244 151.6885,-213.8886 156.3743,-200.3803 166,-168 169.0326,-157.7984 175.1244,-147.7475 181.0309,-139.6555"/>
<polygon fill="#191970" stroke="#191970" points="183.823,-141.7667 187.2139,-131.7291 178.3036,-137.4613 183.823,-141.7667"/>
</g>
<!-- Node25&#45;&gt;Node26 -->
<g id="edge42" class="edge">
<title>Node25&#45;&gt;Node26</title>
<path fill="none" stroke="#191970" d="M430.2382,-336.2455C441.681,-327.814 458.4296,-315.4729 471.7475,-305.6598"/>
<polygon fill="#191970" stroke="#191970" points="473.9391,-308.3924 479.9135,-299.6427 469.7867,-302.757 473.9391,-308.3924"/>
</g>
<!-- Node26&#45;&gt;Node2 -->
<g id="edge46" class="edge">
<title>Node26&#45;&gt;Node2</title>
<path fill="none" stroke="#191970" d="M492.604,-280.3636C492.4739,-266.873 493.8124,-241.9933 504,-224 510.9903,-211.6539 522.6247,-201.104 533.3079,-193.234"/>
<polygon fill="#191970" stroke="#191970" points="535.3377,-196.0857 541.5647,-187.5139 531.3514,-190.3316 535.3377,-196.0857"/>
</g>
<!-- Node26&#45;&gt;Node15 -->
<g id="edge43" class="edge">
<title>Node26&#45;&gt;Node15</title>
<path fill="none" stroke="#191970" d="M425.8107,-280.4699C359.0533,-270.4875 264.6863,-254.7886 251,-244 218.4456,-218.3382 204.5532,-169.1867 199.1227,-141.7524"/>
<polygon fill="#191970" stroke="#191970" points="202.5426,-140.9936 197.3333,-131.7679 195.6523,-142.2285 202.5426,-140.9936"/>
</g>
<!-- Node26&#45;&gt;Node18 -->
<g id="edge45" class="edge">
<title>Node26&#45;&gt;Node18</title>
<path fill="none" stroke="#191970" d="M466.5265,-280.3733C441.1403,-271.1419 402.6355,-257.1402 374.578,-246.9375"/>
<polygon fill="#191970" stroke="#191970" points="375.7222,-243.6293 365.1281,-243.5011 373.3299,-250.2079 375.7222,-243.6293"/>
</g>
<!-- Node26&#45;&gt;Node23 -->
<g id="edge44" class="edge">
<title>Node26&#45;&gt;Node23</title>
<path fill="none" stroke="#191970" d="M510.5929,-280.2455C526.379,-271.4928 549.7639,-258.527 567.7587,-248.5496"/>
<polygon fill="#191970" stroke="#191970" points="569.5603,-251.5528 576.6087,-243.6427 566.1659,-245.4308 569.5603,-251.5528"/>
</g>
<!-- Node27&#45;&gt;Node2 -->
<g id="edge54" class="edge">
<title>Node27&#45;&gt;Node2</title>
<path fill="none" stroke="#191970" d="M545.9266,-448.3518C604.573,-425.8511 704,-382.3447 704,-346 704,-346 704,-346 704,-290 704,-259.4754 705.8468,-246.2971 685,-224 669.8607,-207.8075 648.5856,-197.3012 627.7702,-190.4897"/>
<polygon fill="#191970" stroke="#191970" points="628.5261,-187.062 617.9414,-187.5236 626.5037,-193.7635 628.5261,-187.062"/>
</g>
<!-- Node27&#45;&gt;Node23 -->
<g id="edge55" class="edge">
<title>Node27&#45;&gt;Node23</title>
<path fill="none" stroke="#191970" d="M532.861,-448.4777C546.6967,-439.735 562.1488,-427.3881 571,-412 600.3124,-361.0393 598.9112,-288.5107 596.1467,-253.8854"/>
<polygon fill="#191970" stroke="#191970" points="599.6089,-253.3155 595.1993,-243.682 592.6389,-253.9628 599.6089,-253.3155"/>
</g>
<!-- Node27&#45;&gt;Node24 -->
<g id="edge56" class="edge">
<title>Node27&#45;&gt;Node24</title>
<path fill="none" stroke="#191970" d="M498.3146,-448.2977C495.255,-440.1166 491.4502,-429.943 488.1872,-421.2179"/>
<polygon fill="#191970" stroke="#191970" points="491.4638,-419.9873 484.6826,-411.8469 484.9073,-422.4394 491.4638,-419.9873"/>
</g>
</g>
</svg>
