<?xml version="1.0" encoding="UTF-8" standalone="no"?>
<!DOCTYPE svg PUBLIC "-//W3C//DTD SVG 1.1//EN"
 "http://www.w3.org/Graphics/SVG/1.1/DTD/svg11.dtd">
<!-- Generated by graphviz version 2.40.1 (20161225.0304)
 -->
<!-- Title: Position.cpp Pages: 1 -->
<svg width="1343pt" height="599pt"
 viewBox="0.00 0.00 1343.00 599.00" xmlns="http://www.w3.org/2000/svg" xmlns:xlink="http://www.w3.org/1999/xlink">
<g id="graph0" class="graph" transform="scale(1 1) rotate(0) translate(4 595)">
<title>Position.cpp</title>
<!-- Node0 -->
<g id="node1" class="node">
<title>Node0</title>
<polygon fill="#bfbfbf" stroke="#000000" points="637,-571.5 637,-590.5 713,-590.5 713,-571.5 637,-571.5"/>
<text text-anchor="middle" x="675" y="-578.5" font-family="FreeSans.ttf" font-size="10.00" fill="#000000">Position.cpp</text>
</g>
<!-- Node1 -->
<g id="node2" class="node">
<title>Node1</title>
<g id="a_node2"><a xlink:href="Position_8h.html" target="_top" xlink:title="iDynTree/Core/Position.h">
<polygon fill="none" stroke="#000000" points="867,-336.5 867,-355.5 1003,-355.5 1003,-336.5 867,-336.5"/>
<text text-anchor="middle" x="935" y="-343.5" font-family="FreeSans.ttf" font-size="10.00" fill="#000000">iDynTree/Core/Position.h</text>
</a>
</g>
</g>
<!-- Node0&#45;&gt;Node1 -->
<g id="edge1" class="edge">
<title>Node0&#45;&gt;Node1</title>
<path fill="none" stroke="#191970" d="M713.2415,-579.8409C777.6223,-577.0032 903.3524,-567.3565 931,-535 972.3324,-486.628 953.3584,-403.1322 941.7126,-365.4495"/>
<polygon fill="#191970" stroke="#191970" points="944.9652,-364.1339 938.5431,-355.7073 938.3086,-366.2996 944.9652,-364.1339"/>
</g>
<!-- Node4 -->
<g id="node5" class="node">
<title>Node4</title>
<g id="a_node5"><a xlink:href="Utils_8h.html" target="_top" xlink:title="iDynTree/Core/Utils.h">
<polygon fill="none" stroke="#000000" points="292.5,-56.5 292.5,-75.5 411.5,-75.5 411.5,-56.5 292.5,-56.5"/>
<text text-anchor="middle" x="352" y="-63.5" font-family="FreeSans.ttf" font-size="10.00" fill="#000000">iDynTree/Core/Utils.h</text>
</a>
</g>
</g>
<!-- Node0&#45;&gt;Node4 -->
<g id="edge63" class="edge">
<title>Node0&#45;&gt;Node4</title>
<path fill="none" stroke="#191970" d="M636.7925,-580.2501C507.7863,-577.4411 93.556,-566.0659 43,-535 11.4063,-515.5861 0,-500.5818 0,-463.5 0,-463.5 0,-463.5 0,-178 0,-119.3502 179.6941,-87.3343 282.3033,-73.8334"/>
<polygon fill="#191970" stroke="#191970" points="282.8177,-77.2962 292.288,-72.546 281.9225,-70.3536 282.8177,-77.2962"/>
</g>
<!-- Node8 -->
<g id="node9" class="node">
<title>Node8</title>
<polygon fill="none" stroke="#bfbfbf" points="975,-.5 975,-19.5 1027,-19.5 1027,-.5 975,-.5"/>
<text text-anchor="middle" x="1001" y="-7.5" font-family="FreeSans.ttf" font-size="10.00" fill="#000000">cassert</text>
</g>
<!-- Node0&#45;&gt;Node8 -->
<g id="edge82" class="edge">
<title>Node0&#45;&gt;Node8</title>
<path fill="none" stroke="#191970" d="M713.1043,-578.5247C810.5159,-572.0022 1066.8135,-553.5655 1150,-535 1236.0329,-515.7993 1335,-551.6494 1335,-463.5 1335,-463.5 1335,-463.5 1335,-122 1335,-59.7667 1123.9208,-25.6993 1037.3647,-14.3456"/>
<polygon fill="#191970" stroke="#191970" points="1037.5724,-10.8437 1027.2084,-13.0431 1036.6819,-17.7868 1037.5724,-10.8437"/>
</g>
<!-- Node17 -->
<g id="node18" class="node">
<title>Node17</title>
<polygon fill="none" stroke="#bfbfbf" points="446,-112.5 446,-131.5 502,-131.5 502,-112.5 446,-112.5"/>
<text text-anchor="middle" x="474" y="-119.5" font-family="FreeSans.ttf" font-size="10.00" fill="#000000">sstream</text>
</g>
<!-- Node0&#45;&gt;Node17 -->
<g id="edge84" class="edge">
<title>Node0&#45;&gt;Node17</title>
<path fill="none" stroke="#191970" d="M636.816,-579.5766C505.1152,-574.4848 76.8094,-556.3387 57,-535 -5.8331,-467.3162 175.7666,-220.1302 252,-168 281.4547,-147.8581 380.5485,-133.1725 435.8608,-126.3181"/>
<polygon fill="#191970" stroke="#191970" points="436.4735,-129.7696 445.9794,-125.0911 435.6308,-122.8205 436.4735,-129.7696"/>
</g>
<!-- Node19 -->
<g id="node20" class="node">
<title>Node19</title>
<g id="a_node20"><a xlink:href="Rotation_8h.html" target="_top" xlink:title="iDynTree/Core/Rotation.h">
<polygon fill="none" stroke="#000000" points="675.5,-280.5 675.5,-299.5 812.5,-299.5 812.5,-280.5 675.5,-280.5"/>
<text text-anchor="middle" x="744" y="-287.5" font-family="FreeSans.ttf" font-size="10.00" fill="#000000">iDynTree/Core/Rotation.h</text>
</a>
</g>
</g>
<!-- Node0&#45;&gt;Node19 -->
<g id="edge42" class="edge">
<title>Node0&#45;&gt;Node19</title>
<path fill="none" stroke="#191970" d="M713.0137,-578.787C770.447,-574.5607 875.0904,-563.1176 898,-535 963.2155,-454.959 824.486,-345.5423 767.222,-305.4929"/>
<polygon fill="#191970" stroke="#191970" points="768.9959,-302.4649 758.7747,-299.676 765.0258,-308.2302 768.9959,-302.4649"/>
</g>
<!-- Node24 -->
<g id="node25" class="node">
<title>Node24</title>
<polygon fill="none" stroke="#bfbfbf" points="1229,-112.5 1229,-131.5 1289,-131.5 1289,-112.5 1229,-112.5"/>
<text text-anchor="middle" x="1259" y="-119.5" font-family="FreeSans.ttf" font-size="10.00" fill="#000000">iostream</text>
</g>
<!-- Node0&#45;&gt;Node24 -->
<g id="edge83" class="edge">
<title>Node0&#45;&gt;Node24</title>
<path fill="none" stroke="#191970" d="M713.4395,-577.8412C849.0495,-566.1903 1297,-523.1873 1297,-463.5 1297,-463.5 1297,-463.5 1297,-234 1297,-199.6118 1280.7366,-162.2832 1269.489,-140.5791"/>
<polygon fill="#191970" stroke="#191970" points="1272.431,-138.6605 1264.607,-131.5166 1266.2683,-141.9804 1272.431,-138.6605"/>
</g>
<!-- Node25 -->
<g id="node26" class="node">
<title>Node25</title>
<g id="a_node26"><a xlink:href="Twist_8h.html" target="_top" xlink:title="iDynTree/Core/Twist.h">
<polygon fill="none" stroke="#000000" points="767,-515.5 767,-534.5 889,-534.5 889,-515.5 767,-515.5"/>
<text text-anchor="middle" x="828" y="-522.5" font-family="FreeSans.ttf" font-size="10.00" fill="#000000">iDynTree/Core/Twist.h</text>
</a>
</g>
</g>
<!-- Node0&#45;&gt;Node25 -->
<g id="edge43" class="edge">
<title>Node0&#45;&gt;Node25</title>
<path fill="none" stroke="#191970" d="M701.3016,-571.3733C726.4128,-562.1822 764.4438,-548.2624 792.2872,-538.0713"/>
<polygon fill="#191970" stroke="#191970" points="793.8538,-541.2251 802.0416,-534.5011 791.4478,-534.6516 793.8538,-541.2251"/>
</g>
<!-- Node28 -->
<g id="node29" class="node">
<title>Node28</title>
<g id="a_node29"><a xlink:href="Wrench_8h.html" target="_top" xlink:title="iDynTree/Core/Wrench.h">
<polygon fill="none" stroke="#000000" points="270.5,-515.5 270.5,-534.5 403.5,-534.5 403.5,-515.5 270.5,-515.5"/>
<text text-anchor="middle" x="337" y="-522.5" font-family="FreeSans.ttf" font-size="10.00" fill="#000000">iDynTree/Core/Wrench.h</text>
</a>
</g>
</g>
<!-- Node0&#45;&gt;Node28 -->
<g id="edge54" class="edge">
<title>Node0&#45;&gt;Node28</title>
<path fill="none" stroke="#191970" d="M636.8841,-574.6849C580.5241,-565.3472 474.1245,-547.7188 404.406,-536.1679"/>
<polygon fill="#191970" stroke="#191970" points="404.8338,-532.6911 394.3961,-534.5094 403.6896,-539.597 404.8338,-532.6911"/>
</g>
<!-- Node30 -->
<g id="node31" class="node">
<title>Node30</title>
<g id="a_node31"><a xlink:href="SpatialAcc_8h.html" target="_top" xlink:title="iDynTree/Core/SpatialAcc.h">
<polygon fill="none" stroke="#000000" points="601,-515.5 601,-534.5 749,-534.5 749,-515.5 601,-515.5"/>
<text text-anchor="middle" x="675" y="-522.5" font-family="FreeSans.ttf" font-size="10.00" fill="#000000">iDynTree/Core/SpatialAcc.h</text>
</a>
</g>
</g>
<!-- Node0&#45;&gt;Node30 -->
<g id="edge59" class="edge">
<title>Node0&#45;&gt;Node30</title>
<path fill="none" stroke="#191970" d="M675,-571.2455C675,-563.9382 675,-553.6944 675,-544.7046"/>
<polygon fill="#191970" stroke="#191970" points="678.5001,-544.6426 675,-534.6427 671.5001,-544.6427 678.5001,-544.6426"/>
</g>
<!-- Node31 -->
<g id="node32" class="node">
<title>Node31</title>
<g id="a_node32"><a xlink:href="SpatialMomentum_8h.html" target="_top" xlink:title="iDynTree/Core/SpatialMomentum.h">
<polygon fill="none" stroke="#000000" points="66,-515.5 66,-534.5 252,-534.5 252,-515.5 66,-515.5"/>
<text text-anchor="middle" x="159" y="-522.5" font-family="FreeSans.ttf" font-size="10.00" fill="#000000">iDynTree/Core/SpatialMomentum.h</text>
</a>
</g>
</g>
<!-- Node0&#45;&gt;Node31 -->
<g id="edge61" class="edge">
<title>Node0&#45;&gt;Node31</title>
<path fill="none" stroke="#191970" d="M636.6377,-576.8366C557.0589,-568.2002 371.8762,-548.1028 256.8813,-535.6228"/>
<polygon fill="#191970" stroke="#191970" points="256.9852,-532.1136 246.6659,-534.5141 256.2299,-539.0727 256.9852,-532.1136"/>
</g>
<!-- Node32 -->
<g id="node33" class="node">
<title>Node32</title>
<g id="a_node33"><a xlink:href="EigenHelpers_8h.html" target="_top" xlink:title="iDynTree/Core/EigenHelpers.h">
<polygon fill="none" stroke="#000000" points="421.5,-515.5 421.5,-534.5 582.5,-534.5 582.5,-515.5 421.5,-515.5"/>
<text text-anchor="middle" x="502" y="-522.5" font-family="FreeSans.ttf" font-size="10.00" fill="#000000">iDynTree/Core/EigenHelpers.h</text>
</a>
</g>
</g>
<!-- Node0&#45;&gt;Node32 -->
<g id="edge64" class="edge">
<title>Node0&#45;&gt;Node32</title>
<path fill="none" stroke="#191970" d="M645.2602,-571.3733C616.493,-562.0613 572.73,-547.8953 541.1444,-537.671"/>
<polygon fill="#191970" stroke="#191970" points="541.9436,-534.251 531.3517,-534.5011 539.7878,-540.9107 541.9436,-534.251"/>
</g>
<!-- Node2 -->
<g id="node3" class="node">
<title>Node2</title>
<g id="a_node3"><a xlink:href="PositionRaw_8h.html" target="_top" xlink:title="iDynTree/Core/PositionRaw.h">
<polygon fill="none" stroke="#000000" points="709,-224.5 709,-243.5 865,-243.5 865,-224.5 709,-224.5"/>
<text text-anchor="middle" x="787" y="-231.5" font-family="FreeSans.ttf" font-size="10.00" fill="#000000">iDynTree/Core/PositionRaw.h</text>
</a>
</g>
</g>
<!-- Node1&#45;&gt;Node2 -->
<g id="edge2" class="edge">
<title>Node1&#45;&gt;Node2</title>
<path fill="none" stroke="#191970" d="M922.3816,-336.4509C896.8232,-317.1094 838.7293,-273.1465 807.6016,-249.5904"/>
<polygon fill="#191970" stroke="#191970" points="809.6726,-246.7684 799.5865,-243.5249 805.4485,-252.3503 809.6726,-246.7684"/>
</g>
<!-- Node16 -->
<g id="node17" class="node">
<title>Node16</title>
<polygon fill="none" stroke="#bfbfbf" points="721,-112.5 721,-131.5 765,-131.5 765,-112.5 721,-112.5"/>
<text text-anchor="middle" x="743" y="-119.5" font-family="FreeSans.ttf" font-size="10.00" fill="#000000">string</text>
</g>
<!-- Node1&#45;&gt;Node16 -->
<g id="edge41" class="edge">
<title>Node1&#45;&gt;Node16</title>
<path fill="none" stroke="#191970" d="M956.7155,-336.3858C999.3584,-316.2263 1086.8159,-267.7713 1050,-224 989.8922,-152.5364 929.7962,-222.4445 843,-188 826.7272,-181.5422 788.6193,-155.0419 764.4265,-137.6482"/>
<polygon fill="#191970" stroke="#191970" points="766.3633,-134.7296 756.2091,-131.706 762.2615,-140.4019 766.3633,-134.7296"/>
</g>
<!-- Node1&#45;&gt;Node19 -->
<g id="edge22" class="edge">
<title>Node1&#45;&gt;Node19</title>
<path fill="none" stroke="#191970" d="M902.1659,-336.3733C870.1305,-326.9807 821.2513,-312.6496 786.3145,-302.4064"/>
<polygon fill="#191970" stroke="#191970" points="786.9864,-298.9561 776.4056,-299.5011 785.0169,-305.6733 786.9864,-298.9561"/>
</g>
<!-- Node3 -->
<g id="node4" class="node">
<title>Node3</title>
<g id="a_node4"><a xlink:href="VectorFixSize_8h.html" target="_top" xlink:title="iDynTree/Core/VectorFixSize.h">
<polygon fill="none" stroke="#000000" points="491.5,-168.5 491.5,-187.5 652.5,-187.5 652.5,-168.5 491.5,-168.5"/>
<text text-anchor="middle" x="572" y="-175.5" font-family="FreeSans.ttf" font-size="10.00" fill="#000000">iDynTree/Core/VectorFixSize.h</text>
</a>
</g>
</g>
<!-- Node2&#45;&gt;Node3 -->
<g id="edge3" class="edge">
<title>Node2&#45;&gt;Node3</title>
<path fill="none" stroke="#191970" d="M750.0402,-224.3733C713.5925,-214.8799 657.7754,-200.3415 618.3711,-190.0781"/>
<polygon fill="#191970" stroke="#191970" points="619.0369,-186.6348 608.4775,-187.5011 617.2724,-193.4087 619.0369,-186.6348"/>
</g>
<!-- Node2&#45;&gt;Node16 -->
<g id="edge21" class="edge">
<title>Node2&#45;&gt;Node16</title>
<path fill="none" stroke="#191970" d="M782.5324,-224.2028C778.358,-214.9398 772.032,-200.6186 767,-188 760.7994,-172.4509 754.3466,-154.5964 749.6955,-141.3818"/>
<polygon fill="#191970" stroke="#191970" points="752.9902,-140.2 746.391,-131.9113 746.381,-142.5062 752.9902,-140.2"/>
</g>
<!-- Node3&#45;&gt;Node4 -->
<g id="edge4" class="edge">
<title>Node3&#45;&gt;Node4</title>
<path fill="none" stroke="#191970" d="M565.7124,-168.3839C555.7999,-153.984 535.1618,-126.9198 511,-112 484.0979,-95.3881 450.9496,-84.5584 421.8936,-77.6091"/>
<polygon fill="#191970" stroke="#191970" points="422.3315,-74.1192 411.8038,-75.3097 420.7762,-80.9442 422.3315,-74.1192"/>
</g>
<!-- Node7 -->
<g id="node8" class="node">
<title>Node7</title>
<g id="a_node8"><a xlink:href="Span_8h.html" target="_top" xlink:title="iDynTree/Core/Span.h">
<polygon fill="none" stroke="#000000" points="581.5,-56.5 581.5,-75.5 702.5,-75.5 702.5,-56.5 581.5,-56.5"/>
<text text-anchor="middle" x="642" y="-63.5" font-family="FreeSans.ttf" font-size="10.00" fill="#000000">iDynTree/Core/Span.h</text>
</a>
</g>
</g>
<!-- Node3&#45;&gt;Node7 -->
<g id="edge7" class="edge">
<title>Node3&#45;&gt;Node7</title>
<path fill="none" stroke="#191970" d="M577.9682,-168.4509C589.6433,-149.7707 615.6726,-108.1238 630.7024,-84.0761"/>
<polygon fill="#191970" stroke="#191970" points="633.7149,-85.8599 636.0469,-75.5249 627.7789,-82.1499 633.7149,-85.8599"/>
</g>
<!-- Node3&#45;&gt;Node8 -->
<g id="edge19" class="edge">
<title>Node3&#45;&gt;Node8</title>
<path fill="none" stroke="#191970" d="M652.7968,-174.1406C765.4835,-167.9818 958.7262,-154.2991 982,-132 1009.493,-105.6584 1007.9811,-57.1371 1004.4785,-29.8963"/>
<polygon fill="#191970" stroke="#191970" points="1007.8858,-29.0179 1002.9343,-19.6512 1000.9639,-30.0612 1007.8858,-29.0179"/>
</g>
<!-- Node3&#45;&gt;Node16 -->
<g id="edge17" class="edge">
<title>Node3&#45;&gt;Node16</title>
<path fill="none" stroke="#191970" d="M601.3959,-168.3733C631.9848,-158.3559 679.7268,-142.721 711.1848,-132.419"/>
<polygon fill="#191970" stroke="#191970" points="712.3697,-135.7139 720.7838,-129.2755 710.1911,-129.0616 712.3697,-135.7139"/>
</g>
<!-- Node3&#45;&gt;Node17 -->
<g id="edge18" class="edge">
<title>Node3&#45;&gt;Node17</title>
<path fill="none" stroke="#191970" d="M554.9297,-168.2455C539.753,-159.5731 517.3379,-146.7645 499.9437,-136.825"/>
<polygon fill="#191970" stroke="#191970" points="501.2936,-133.5653 490.8747,-131.6427 497.8206,-139.643 501.2936,-133.5653"/>
</g>
<!-- Node18 -->
<g id="node19" class="node">
<title>Node18</title>
<polygon fill="none" stroke="#bfbfbf" points="627,-112.5 627,-131.5 677,-131.5 677,-112.5 627,-112.5"/>
<text text-anchor="middle" x="652" y="-119.5" font-family="FreeSans.ttf" font-size="10.00" fill="#000000">cstring</text>
</g>
<!-- Node3&#45;&gt;Node18 -->
<g id="edge20" class="edge">
<title>Node3&#45;&gt;Node18</title>
<path fill="none" stroke="#191970" d="M585.9349,-168.2455C598.0947,-159.7337 615.9464,-147.2375 630.0285,-137.3801"/>
<polygon fill="#191970" stroke="#191970" points="632.0395,-140.2447 638.2248,-131.6427 628.0253,-134.51 632.0395,-140.2447"/>
</g>
<!-- Node5 -->
<g id="node6" class="node">
<title>Node5</title>
<polygon fill="none" stroke="#bfbfbf" points="368.5,-.5 368.5,-19.5 421.5,-19.5 421.5,-.5 368.5,-.5"/>
<text text-anchor="middle" x="395" y="-7.5" font-family="FreeSans.ttf" font-size="10.00" fill="#000000">cstddef</text>
</g>
<!-- Node4&#45;&gt;Node5 -->
<g id="edge5" class="edge">
<title>Node4&#45;&gt;Node5</title>
<path fill="none" stroke="#191970" d="M359.49,-56.2455C365.5326,-48.3761 374.1903,-37.101 381.4441,-27.6542"/>
<polygon fill="#191970" stroke="#191970" points="384.2815,-29.7058 387.5958,-19.6427 378.7295,-25.4426 384.2815,-29.7058"/>
</g>
<!-- Node6 -->
<g id="node7" class="node">
<title>Node6</title>
<polygon fill="none" stroke="#bfbfbf" points="270,-.5 270,-19.5 350,-19.5 350,-.5 270,-.5"/>
<text text-anchor="middle" x="310" y="-7.5" font-family="FreeSans.ttf" font-size="10.00" fill="#000000">CoreExport.h</text>
</g>
<!-- Node4&#45;&gt;Node6 -->
<g id="edge6" class="edge">
<title>Node4&#45;&gt;Node6</title>
<path fill="none" stroke="#191970" d="M344.6842,-56.2455C338.7821,-48.3761 330.3258,-37.101 323.2406,-27.6542"/>
<polygon fill="#191970" stroke="#191970" points="326.0321,-25.5427 317.232,-19.6427 320.432,-29.7427 326.0321,-25.5427"/>
</g>
<!-- Node7&#45;&gt;Node5 -->
<g id="edge11" class="edge">
<title>Node7&#45;&gt;Node5</title>
<path fill="none" stroke="#191970" d="M594.4758,-56.4366C553.7725,-48.0662 493.3808,-35.2233 431.6144,-20.0496"/>
<polygon fill="#191970" stroke="#191970" points="432.2402,-16.599 421.6922,-17.5946 430.5589,-23.3941 432.2402,-16.599"/>
</g>
<!-- Node7&#45;&gt;Node8 -->
<g id="edge8" class="edge">
<title>Node7&#45;&gt;Node8</title>
<path fill="none" stroke="#191970" d="M702.7369,-56.8833C763.1727,-47.7582 858.5445,-33.2135 941,-20 948.6853,-18.7684 956.9186,-17.4171 964.7474,-16.1171"/>
<polygon fill="#191970" stroke="#191970" points="965.4384,-19.5503 974.726,-14.4521 964.2863,-12.6458 965.4384,-19.5503"/>
</g>
<!-- Node9 -->
<g id="node10" class="node">
<title>Node9</title>
<polygon fill="none" stroke="#bfbfbf" points="440,-.5 440,-19.5 504,-19.5 504,-.5 440,-.5"/>
<text text-anchor="middle" x="472" y="-7.5" font-family="FreeSans.ttf" font-size="10.00" fill="#000000">algorithm</text>
</g>
<!-- Node7&#45;&gt;Node9 -->
<g id="edge9" class="edge">
<title>Node7&#45;&gt;Node9</title>
<path fill="none" stroke="#191970" d="M612.776,-56.3733C584.5075,-47.0613 541.5035,-32.8953 510.4656,-22.671"/>
<polygon fill="#191970" stroke="#191970" points="511.4357,-19.3056 500.8427,-19.5011 509.2456,-25.9542 511.4357,-19.3056"/>
</g>
<!-- Node10 -->
<g id="node11" class="node">
<title>Node10</title>
<polygon fill="none" stroke="#bfbfbf" points="522,-.5 522,-19.5 564,-19.5 564,-.5 522,-.5"/>
<text text-anchor="middle" x="543" y="-7.5" font-family="FreeSans.ttf" font-size="10.00" fill="#000000">array</text>
</g>
<!-- Node7&#45;&gt;Node10 -->
<g id="edge10" class="edge">
<title>Node7&#45;&gt;Node10</title>
<path fill="none" stroke="#191970" d="M624.7555,-56.2455C609.4239,-47.5731 586.7801,-34.7645 569.2084,-24.825"/>
<polygon fill="#191970" stroke="#191970" points="570.4741,-21.5198 560.0469,-19.6427 567.0276,-27.6126 570.4741,-21.5198"/>
</g>
<!-- Node11 -->
<g id="node12" class="node">
<title>Node11</title>
<polygon fill="none" stroke="#bfbfbf" points="582.5,-.5 582.5,-19.5 635.5,-19.5 635.5,-.5 582.5,-.5"/>
<text text-anchor="middle" x="609" y="-7.5" font-family="FreeSans.ttf" font-size="10.00" fill="#000000">iterator</text>
</g>
<!-- Node7&#45;&gt;Node11 -->
<g id="edge12" class="edge">
<title>Node7&#45;&gt;Node11</title>
<path fill="none" stroke="#191970" d="M636.2518,-56.2455C631.7565,-48.617 625.3752,-37.7881 619.9175,-28.5267"/>
<polygon fill="#191970" stroke="#191970" points="622.7747,-26.4811 614.6823,-19.6427 616.7439,-30.035 622.7747,-26.4811"/>
</g>
<!-- Node12 -->
<g id="node13" class="node">
<title>Node12</title>
<polygon fill="none" stroke="#bfbfbf" points="654,-.5 654,-19.5 698,-19.5 698,-.5 654,-.5"/>
<text text-anchor="middle" x="676" y="-7.5" font-family="FreeSans.ttf" font-size="10.00" fill="#000000">limits</text>
</g>
<!-- Node7&#45;&gt;Node12 -->
<g id="edge13" class="edge">
<title>Node7&#45;&gt;Node12</title>
<path fill="none" stroke="#191970" d="M647.9223,-56.2455C652.6027,-48.5367 659.2673,-37.5598 664.9289,-28.2348"/>
<polygon fill="#191970" stroke="#191970" points="667.9475,-30.007 670.1455,-19.6427 661.9639,-26.3741 667.9475,-30.007"/>
</g>
<!-- Node13 -->
<g id="node14" class="node">
<title>Node13</title>
<polygon fill="none" stroke="#bfbfbf" points="716.5,-.5 716.5,-19.5 781.5,-19.5 781.5,-.5 716.5,-.5"/>
<text text-anchor="middle" x="749" y="-7.5" font-family="FreeSans.ttf" font-size="10.00" fill="#000000">stdexcept</text>
</g>
<!-- Node7&#45;&gt;Node13 -->
<g id="edge14" class="edge">
<title>Node7&#45;&gt;Node13</title>
<path fill="none" stroke="#191970" d="M660.638,-56.2455C677.4386,-47.4527 702.3634,-34.4079 721.4618,-24.4125"/>
<polygon fill="#191970" stroke="#191970" points="723.3386,-27.3807 730.5756,-19.6427 720.0927,-21.1787 723.3386,-27.3807"/>
</g>
<!-- Node14 -->
<g id="node15" class="node">
<title>Node14</title>
<polygon fill="none" stroke="#bfbfbf" points="862.5,-.5 862.5,-19.5 931.5,-19.5 931.5,-.5 862.5,-.5"/>
<text text-anchor="middle" x="897" y="-7.5" font-family="FreeSans.ttf" font-size="10.00" fill="#000000">type_traits</text>
</g>
<!-- Node7&#45;&gt;Node14 -->
<g id="edge15" class="edge">
<title>Node7&#45;&gt;Node14</title>
<path fill="none" stroke="#191970" d="M687.1209,-56.4123C727.8877,-47.7042 789.8078,-34.3654 852.2529,-20.3726"/>
<polygon fill="#191970" stroke="#191970" points="853.2862,-23.7278 862.2763,-18.1218 851.7524,-16.8979 853.2862,-23.7278"/>
</g>
<!-- Node15 -->
<g id="node16" class="node">
<title>Node15</title>
<polygon fill="none" stroke="#bfbfbf" points="799.5,-.5 799.5,-19.5 844.5,-19.5 844.5,-.5 799.5,-.5"/>
<text text-anchor="middle" x="822" y="-7.5" font-family="FreeSans.ttf" font-size="10.00" fill="#000000">utility</text>
</g>
<!-- Node7&#45;&gt;Node15 -->
<g id="edge16" class="edge">
<title>Node7&#45;&gt;Node15</title>
<path fill="none" stroke="#191970" d="M673.4295,-56.4227C701.6051,-47.8091 744.3172,-34.6838 789.6212,-20.4128"/>
<polygon fill="#191970" stroke="#191970" points="790.8403,-23.6983 799.3236,-17.3513 788.7339,-17.0227 790.8403,-23.6983"/>
</g>
<!-- Node19&#45;&gt;Node3 -->
<g id="edge40" class="edge">
<title>Node19&#45;&gt;Node3</title>
<path fill="none" stroke="#191970" d="M727.2762,-280.4539C711.5416,-271.3682 687.4142,-257.167 667,-244 641.3579,-227.4611 612.6896,-207.3056 593.6197,-193.6523"/>
<polygon fill="#191970" stroke="#191970" points="595.4944,-190.6895 585.3316,-187.6949 591.4088,-196.3735 595.4944,-190.6895"/>
</g>
<!-- Node19&#45;&gt;Node16 -->
<g id="edge23" class="edge">
<title>Node19&#45;&gt;Node16</title>
<path fill="none" stroke="#191970" d="M730.3664,-280.4516C719.8452,-272.1822 706.0909,-259.1795 700,-244 685.3168,-207.407 710.9988,-163.6237 728.5856,-139.7242"/>
<polygon fill="#191970" stroke="#191970" points="731.5139,-141.6575 734.8285,-131.5945 725.962,-137.3941 731.5139,-141.6575"/>
</g>
<!-- Node20 -->
<g id="node21" class="node">
<title>Node20</title>
<g id="a_node21"><a xlink:href="GeomVector3_8h.html" target="_top" xlink:title="iDynTree/Core/GeomVector3.h">
<polygon fill="none" stroke="#000000" points="413.5,-224.5 413.5,-243.5 576.5,-243.5 576.5,-224.5 413.5,-224.5"/>
<text text-anchor="middle" x="495" y="-231.5" font-family="FreeSans.ttf" font-size="10.00" fill="#000000">iDynTree/Core/GeomVector3.h</text>
</a>
</g>
</g>
<!-- Node19&#45;&gt;Node20 -->
<g id="edge24" class="edge">
<title>Node19&#45;&gt;Node20</title>
<path fill="none" stroke="#191970" d="M701.4783,-280.4369C658.8639,-270.8529 593.1824,-256.0812 547.379,-245.78"/>
<polygon fill="#191970" stroke="#191970" points="547.8706,-242.3032 537.3463,-243.5237 546.3346,-249.1326 547.8706,-242.3032"/>
</g>
<!-- Node21 -->
<g id="node22" class="node">
<title>Node21</title>
<g id="a_node22"><a xlink:href="RotationRaw_8h.html" target="_top" xlink:title="iDynTree/Core/RotationRaw.h">
<polygon fill="none" stroke="#000000" points="883,-224.5 883,-243.5 1041,-243.5 1041,-224.5 883,-224.5"/>
<text text-anchor="middle" x="962" y="-231.5" font-family="FreeSans.ttf" font-size="10.00" fill="#000000">iDynTree/Core/RotationRaw.h</text>
</a>
</g>
</g>
<!-- Node19&#45;&gt;Node21 -->
<g id="edge26" class="edge">
<title>Node19&#45;&gt;Node21</title>
<path fill="none" stroke="#191970" d="M781.4755,-280.3733C818.5103,-270.8598 875.2682,-256.2797 915.2361,-246.0127"/>
<polygon fill="#191970" stroke="#191970" points="916.1988,-249.3792 925.0135,-243.5011 914.4571,-242.5993 916.1988,-249.3792"/>
</g>
<!-- Node20&#45;&gt;Node3 -->
<g id="edge25" class="edge">
<title>Node20&#45;&gt;Node3</title>
<path fill="none" stroke="#191970" d="M508.4124,-224.2455C520.0057,-215.814 536.9748,-203.4729 550.4678,-193.6598"/>
<polygon fill="#191970" stroke="#191970" points="552.7126,-196.355 558.7413,-187.6427 548.5953,-190.6938 552.7126,-196.355"/>
</g>
<!-- Node21&#45;&gt;Node16 -->
<g id="edge39" class="edge">
<title>Node21&#45;&gt;Node16</title>
<path fill="none" stroke="#191970" d="M903.0072,-224.459C872.1745,-217.6183 834.7682,-206.2849 805,-188 784.8099,-175.5984 766.903,-154.9226 755.5891,-140.014"/>
<polygon fill="#191970" stroke="#191970" points="758.1644,-137.6064 749.4351,-131.6021 752.5148,-141.7395 758.1644,-137.6064"/>
</g>
<!-- Node22 -->
<g id="node23" class="node">
<title>Node22</title>
<g id="a_node23"><a xlink:href="MatrixFixSize_8h.html" target="_top" xlink:title="iDynTree/Core/MatrixFixSize.h">
<polygon fill="none" stroke="#000000" points="885.5,-168.5 885.5,-187.5 1046.5,-187.5 1046.5,-168.5 885.5,-168.5"/>
<text text-anchor="middle" x="966" y="-175.5" font-family="FreeSans.ttf" font-size="10.00" fill="#000000">iDynTree/Core/MatrixFixSize.h</text>
</a>
</g>
</g>
<!-- Node21&#45;&gt;Node22 -->
<g id="edge27" class="edge">
<title>Node21&#45;&gt;Node22</title>
<path fill="none" stroke="#191970" d="M962.6967,-224.2455C963.2187,-216.9382 963.9504,-206.6944 964.5925,-197.7046"/>
<polygon fill="#191970" stroke="#191970" points="968.0898,-197.8667 965.3112,-187.6427 961.1076,-197.3679 968.0898,-197.8667"/>
</g>
<!-- Node22&#45;&gt;Node4 -->
<g id="edge28" class="edge">
<title>Node22&#45;&gt;Node4</title>
<path fill="none" stroke="#191970" d="M927.2964,-168.4534C895.9595,-160.2292 850.9487,-147.2873 813,-132 794.9314,-124.7212 792.6595,-117.5929 774,-112 709.9294,-92.7958 524.5573,-77.6986 422.1121,-70.5391"/>
<polygon fill="#191970" stroke="#191970" points="422.0766,-67.0284 411.8588,-69.8297 421.5933,-74.0117 422.0766,-67.0284"/>
</g>
<!-- Node22&#45;&gt;Node8 -->
<g id="edge34" class="edge">
<title>Node22&#45;&gt;Node8</title>
<path fill="none" stroke="#191970" d="M981.618,-168.4791C993.2472,-160.3972 1008.2332,-147.6339 1015,-132 1029.7458,-97.9316 1017.9552,-53.7662 1008.905,-29.0007"/>
<polygon fill="#191970" stroke="#191970" points="1012.161,-27.7164 1005.2795,-19.6606 1005.6354,-30.2495 1012.161,-27.7164"/>
</g>
<!-- Node22&#45;&gt;Node16 -->
<g id="edge36" class="edge">
<title>Node22&#45;&gt;Node16</title>
<path fill="none" stroke="#191970" d="M925.7868,-168.4736C887.8581,-159.402 829.4549,-145.2102 779,-132 777.7293,-131.6673 776.4343,-131.3247 775.127,-130.9757"/>
<polygon fill="#191970" stroke="#191970" points="775.6246,-127.4841 765.0567,-128.2386 773.7885,-134.239 775.6246,-127.4841"/>
</g>
<!-- Node22&#45;&gt;Node17 -->
<g id="edge38" class="edge">
<title>Node22&#45;&gt;Node17</title>
<path fill="none" stroke="#191970" d="M885.3071,-168.8154C777.8157,-156.5807 591.9506,-135.4253 512.1747,-126.3451"/>
<polygon fill="#191970" stroke="#191970" points="512.4194,-122.8504 502.0877,-125.197 511.6277,-129.8055 512.4194,-122.8504"/>
</g>
<!-- Node22&#45;&gt;Node18 -->
<g id="edge35" class="edge">
<title>Node22&#45;&gt;Node18</title>
<path fill="none" stroke="#191970" d="M912.3783,-168.4369C848.0372,-156.9621 741.9974,-138.0505 687.2081,-128.2792"/>
<polygon fill="#191970" stroke="#191970" points="687.7375,-124.8184 677.2783,-126.5082 686.5084,-131.7097 687.7375,-124.8184"/>
</g>
<!-- Node23 -->
<g id="node24" class="node">
<title>Node23</title>
<g id="a_node24"><a xlink:href="MatrixView_8h.html" target="_top" xlink:title="iDynTree/Core/MatrixView.h">
<polygon fill="none" stroke="#000000" points="821.5,-112.5 821.5,-131.5 972.5,-131.5 972.5,-112.5 821.5,-112.5"/>
<text text-anchor="middle" x="897" y="-119.5" font-family="FreeSans.ttf" font-size="10.00" fill="#000000">iDynTree/Core/MatrixView.h</text>
</a>
</g>
</g>
<!-- Node22&#45;&gt;Node23 -->
<g id="edge29" class="edge">
<title>Node22&#45;&gt;Node23</title>
<path fill="none" stroke="#191970" d="M953.9811,-168.2455C943.7902,-159.9746 928.9638,-147.9416 916.9893,-138.2232"/>
<polygon fill="#191970" stroke="#191970" points="918.8514,-135.2268 908.8812,-131.6427 914.4402,-140.662 918.8514,-135.2268"/>
</g>
<!-- Node22&#45;&gt;Node24 -->
<g id="edge37" class="edge">
<title>Node22&#45;&gt;Node24</title>
<path fill="none" stroke="#191970" d="M1016.0356,-168.4369C1073.3438,-157.4838 1166.1042,-139.7548 1218.8846,-129.6671"/>
<polygon fill="#191970" stroke="#191970" points="1219.7202,-133.0708 1228.8853,-127.7557 1218.406,-126.1953 1219.7202,-133.0708"/>
</g>
<!-- Node23&#45;&gt;Node4 -->
<g id="edge33" class="edge">
<title>Node23&#45;&gt;Node4</title>
<path fill="none" stroke="#191970" d="M821.3838,-113.5433C816.5168,-113.0159 811.69,-112.4976 807,-112 670.5393,-97.5212 510.9393,-81.625 421.648,-72.8252"/>
<polygon fill="#191970" stroke="#191970" points="421.9378,-69.3369 411.6429,-71.8399 421.2517,-76.3032 421.9378,-69.3369"/>
</g>
<!-- Node23&#45;&gt;Node7 -->
<g id="edge32" class="edge">
<title>Node23&#45;&gt;Node7</title>
<path fill="none" stroke="#191970" d="M853.4537,-112.4369C809.7207,-102.8328 742.2655,-88.0191 695.3458,-77.7152"/>
<polygon fill="#191970" stroke="#191970" points="695.8847,-74.2502 685.3667,-75.5237 694.3832,-81.0872 695.8847,-74.2502"/>
</g>
<!-- Node23&#45;&gt;Node8 -->
<g id="edge30" class="edge">
<title>Node23&#45;&gt;Node8</title>
<path fill="none" stroke="#191970" d="M905.867,-112.4509C923.4432,-93.5227 962.9155,-51.014 985.0955,-27.1279"/>
<polygon fill="#191970" stroke="#191970" points="987.9157,-29.2344 992.1555,-19.5249 982.7861,-24.4713 987.9157,-29.2344"/>
</g>
<!-- Node23&#45;&gt;Node14 -->
<g id="edge31" class="edge">
<title>Node23&#45;&gt;Node14</title>
<path fill="none" stroke="#191970" d="M897,-112.4509C897,-94.184 897,-53.9553 897,-29.6976"/>
<polygon fill="#191970" stroke="#191970" points="900.5001,-29.5249 897,-19.5249 893.5001,-29.5249 900.5001,-29.5249"/>
</g>
<!-- Node26 -->
<g id="node27" class="node">
<title>Node26</title>
<g id="a_node27"><a xlink:href="SpatialMotionVector_8h.html" target="_top" xlink:title="iDynTree/Core/SpatialMotion\lVector.h">
<polygon fill="none" stroke="#000000" points="561.5,-448.5 561.5,-478.5 716.5,-478.5 716.5,-448.5 561.5,-448.5"/>
<text text-anchor="start" x="569.5" y="-466.5" font-family="FreeSans.ttf" font-size="10.00" fill="#000000">iDynTree/Core/SpatialMotion</text>
<text text-anchor="middle" x="639" y="-455.5" font-family="FreeSans.ttf" font-size="10.00" fill="#000000">Vector.h</text>
</a>
</g>
</g>
<!-- Node25&#45;&gt;Node26 -->
<g id="edge44" class="edge">
<title>Node25&#45;&gt;Node26</title>
<path fill="none" stroke="#191970" d="M798.4688,-515.3906C770.8767,-506.4123 728.9625,-492.7735 695.0289,-481.7316"/>
<polygon fill="#191970" stroke="#191970" points="695.8269,-478.3107 685.2346,-478.5446 693.6608,-484.9672 695.8269,-478.3107"/>
</g>
<!-- Node26&#45;&gt;Node3 -->
<g id="edge45" class="edge">
<title>Node26&#45;&gt;Node3</title>
<path fill="none" stroke="#191970" d="M636.0573,-448.2705C628.6131,-410.2222 608.0494,-308.0303 586,-224 583.7019,-215.2418 580.8378,-205.6471 578.3,-197.4972"/>
<polygon fill="#191970" stroke="#191970" points="581.5863,-196.2814 575.2268,-187.8075 574.9138,-198.3977 581.5863,-196.2814"/>
</g>
<!-- Node26&#45;&gt;Node20 -->
<g id="edge46" class="edge">
<title>Node26&#45;&gt;Node20</title>
<path fill="none" stroke="#191970" d="M629.5518,-448.4419C604.1359,-407.9353 534.3599,-296.7298 506.6069,-252.4985"/>
<polygon fill="#191970" stroke="#191970" points="509.4903,-250.5085 501.2106,-243.8981 503.5608,-254.229 509.4903,-250.5085"/>
</g>
<!-- Node27 -->
<g id="node28" class="node">
<title>Node27</title>
<g id="a_node28"><a xlink:href="SpatialVector_8h.html" target="_top" xlink:title="iDynTree/Core/SpatialVector.h">
<polygon fill="none" stroke="#000000" points="411.5,-392.5 411.5,-411.5 572.5,-411.5 572.5,-392.5 411.5,-392.5"/>
<text text-anchor="middle" x="492" y="-399.5" font-family="FreeSans.ttf" font-size="10.00" fill="#000000">iDynTree/Core/SpatialVector.h</text>
</a>
</g>
</g>
<!-- Node26&#45;&gt;Node27 -->
<g id="edge47" class="edge">
<title>Node26&#45;&gt;Node27</title>
<path fill="none" stroke="#191970" d="M603.0398,-448.4554C578.9427,-438.374 547.487,-425.2139 524.2097,-415.4755"/>
<polygon fill="#191970" stroke="#191970" points="525.3558,-412.1611 514.7798,-411.5303 522.6541,-418.6187 525.3558,-412.1611"/>
</g>
<!-- Node27&#45;&gt;Node1 -->
<g id="edge48" class="edge">
<title>Node27&#45;&gt;Node1</title>
<path fill="none" stroke="#191970" d="M567.3998,-392.4686C647.9317,-382.2885 774.9731,-366.2291 856.6277,-355.9071"/>
<polygon fill="#191970" stroke="#191970" points="857.3665,-359.3417 866.8485,-354.6151 856.4885,-352.3969 857.3665,-359.3417"/>
</g>
<!-- Node27&#45;&gt;Node4 -->
<g id="edge50" class="edge">
<title>Node27&#45;&gt;Node4</title>
<path fill="none" stroke="#191970" d="M472.792,-392.3387C424.5473,-366.8382 298.8007,-292.4343 252,-188 232.1063,-143.6078 287.9628,-102.084 324.0277,-80.8201"/>
<polygon fill="#191970" stroke="#191970" points="326.1999,-83.6106 333.1538,-75.6173 322.733,-77.5295 326.1999,-83.6106"/>
</g>
<!-- Node27&#45;&gt;Node17 -->
<g id="edge53" class="edge">
<title>Node27&#45;&gt;Node17</title>
<path fill="none" stroke="#191970" d="M484.3925,-392.404C466.2599,-368.8421 420.8294,-305.5651 405,-244 402.7865,-235.3911 401.8411,-232.3086 405,-224 412.6077,-203.9902 424.5826,-205.4379 437,-188 447.6865,-172.9928 457.769,-154.6197 464.7019,-141.073"/>
<polygon fill="#191970" stroke="#191970" points="468.0019,-142.2993 469.3473,-131.7903 461.742,-139.1666 468.0019,-142.2993"/>
</g>
<!-- Node27&#45;&gt;Node19 -->
<g id="edge49" class="edge">
<title>Node27&#45;&gt;Node19</title>
<path fill="none" stroke="#191970" d="M513.4854,-392.4509C558.2126,-372.5722 661.4584,-326.6852 713.23,-303.6756"/>
<polygon fill="#191970" stroke="#191970" points="714.8524,-306.7847 722.569,-299.5249 712.0094,-300.388 714.8524,-306.7847"/>
</g>
<!-- Node27&#45;&gt;Node20 -->
<g id="edge51" class="edge">
<title>Node27&#45;&gt;Node20</title>
<path fill="none" stroke="#191970" d="M492.1699,-392.4862C492.6441,-365.9293 493.9899,-290.5651 494.6399,-254.1655"/>
<polygon fill="#191970" stroke="#191970" points="498.1453,-253.8888 494.8245,-243.8279 491.1464,-253.7638 498.1453,-253.8888"/>
</g>
<!-- Node27&#45;&gt;Node24 -->
<g id="edge52" class="edge">
<title>Node27&#45;&gt;Node24</title>
<path fill="none" stroke="#191970" d="M572.7246,-400.1426C698.2066,-396.3705 933.7702,-385.4982 1012,-356 1130.1115,-311.4636 1169.5116,-292.0348 1241,-188 1250.4473,-174.2517 1254.9464,-155.7225 1257.0831,-141.7968"/>
<polygon fill="#191970" stroke="#191970" points="1260.5658,-142.1533 1258.3397,-131.795 1253.6204,-141.2807 1260.5658,-142.1533"/>
</g>
<!-- Node29 -->
<g id="node30" class="node">
<title>Node29</title>
<g id="a_node30"><a xlink:href="SpatialForceVector_8h.html" target="_top" xlink:title="iDynTree/Core/SpatialForce\lVector.h">
<polygon fill="none" stroke="#000000" points="261,-448.5 261,-478.5 409,-478.5 409,-448.5 261,-448.5"/>
<text text-anchor="start" x="269" y="-466.5" font-family="FreeSans.ttf" font-size="10.00" fill="#000000">iDynTree/Core/SpatialForce</text>
<text text-anchor="middle" x="335" y="-455.5" font-family="FreeSans.ttf" font-size="10.00" fill="#000000">Vector.h</text>
</a>
</g>
</g>
<!-- Node28&#45;&gt;Node29 -->
<g id="edge55" class="edge">
<title>Node28&#45;&gt;Node29</title>
<path fill="none" stroke="#191970" d="M336.6875,-515.3906C336.4544,-508.2234 336.1248,-498.0862 335.8186,-488.671"/>
<polygon fill="#191970" stroke="#191970" points="339.3125,-488.4255 335.4893,-478.5446 332.3162,-488.6531 339.3125,-488.4255"/>
</g>
<!-- Node29&#45;&gt;Node3 -->
<g id="edge56" class="edge">
<title>Node29&#45;&gt;Node3</title>
<path fill="none" stroke="#191970" d="M320.1563,-448.2253C301.25,-427.0891 271,-386.8831 271,-346 271,-346 271,-346 271,-290 271,-240.7411 414.3879,-206.1252 503.232,-189.4048"/>
<polygon fill="#191970" stroke="#191970" points="504.0532,-192.8124 513.2496,-187.5515 502.7798,-185.9292 504.0532,-192.8124"/>
</g>
<!-- Node29&#45;&gt;Node20 -->
<g id="edge57" class="edge">
<title>Node29&#45;&gt;Node20</title>
<path fill="none" stroke="#191970" d="M345.498,-448.4419C373.7971,-407.8504 451.5921,-296.2633 482.2968,-252.2212"/>
<polygon fill="#191970" stroke="#191970" points="485.2514,-254.103 488.0993,-243.8981 479.5091,-250.0997 485.2514,-254.103"/>
</g>
<!-- Node29&#45;&gt;Node27 -->
<g id="edge58" class="edge">
<title>Node29&#45;&gt;Node27</title>
<path fill="none" stroke="#191970" d="M373.4065,-448.4554C399.3726,-438.284 433.339,-424.9787 458.263,-415.2155"/>
<polygon fill="#191970" stroke="#191970" points="459.636,-418.4366 467.6706,-411.5303 457.0829,-411.9188 459.636,-418.4366"/>
</g>
<!-- Node30&#45;&gt;Node26 -->
<g id="edge60" class="edge">
<title>Node30&#45;&gt;Node26</title>
<path fill="none" stroke="#191970" d="M669.375,-515.3906C664.9991,-507.9151 658.7319,-497.2087 653.0257,-487.4605"/>
<polygon fill="#191970" stroke="#191970" points="655.879,-485.4066 647.8066,-478.5446 649.8379,-488.9429 655.879,-485.4066"/>
</g>
<!-- Node31&#45;&gt;Node29 -->
<g id="edge62" class="edge">
<title>Node31&#45;&gt;Node29</title>
<path fill="none" stroke="#191970" d="M186.5,-515.3906C212.0839,-506.4508 250.8906,-492.8905 282.4177,-481.8739"/>
<polygon fill="#191970" stroke="#191970" points="283.6599,-485.1475 291.9456,-478.5446 281.3507,-478.5393 283.6599,-485.1475"/>
</g>
<!-- Node32&#45;&gt;Node3 -->
<g id="edge69" class="edge">
<title>Node32&#45;&gt;Node3</title>
<path fill="none" stroke="#191970" d="M488.5763,-515.3836C465.546,-497.9246 419.4015,-458.4867 403,-412 385.0757,-361.1971 257.1976,-415.6419 405,-224 416.8517,-208.633 459.1993,-197.0688 498.2815,-189.3789"/>
<polygon fill="#191970" stroke="#191970" points="498.9563,-192.8134 508.1267,-187.5074 497.649,-185.9366 498.9563,-192.8134"/>
</g>
<!-- Node32&#45;&gt;Node4 -->
<g id="edge81" class="edge">
<title>Node32&#45;&gt;Node4</title>
<path fill="none" stroke="#191970" d="M431.3529,-515.4884C356.4741,-505.0283 246.5983,-488.4532 229,-479 187.7254,-456.8287 157,-448.8525 157,-402 157,-402 157,-402 157,-178 157,-118.3361 226.4927,-89.9935 282.508,-76.8391"/>
<polygon fill="#191970" stroke="#191970" points="283.433,-80.219 292.434,-74.6304 281.9125,-73.3861 283.433,-80.219"/>
</g>
<!-- Node32&#45;&gt;Node22 -->
<g id="edge73" class="edge">
<title>Node32&#45;&gt;Node22</title>
<path fill="none" stroke="#191970" d="M576.1753,-515.4586C752.6756,-492.2586 1183,-432.5612 1183,-402 1183,-402 1183,-402 1183,-290 1183,-229.7601 1116.1493,-201.8876 1056.6573,-189.0101"/>
<polygon fill="#191970" stroke="#191970" points="1057.3012,-185.5694 1046.8028,-186.9958 1055.8993,-192.4276 1057.3012,-185.5694"/>
</g>
<!-- Node32&#45;&gt;Node26 -->
<g id="edge74" class="edge">
<title>Node32&#45;&gt;Node26</title>
<path fill="none" stroke="#191970" d="M523.4063,-515.3906C542.8059,-506.682 571.9729,-493.5888 596.1543,-482.7336"/>
<polygon fill="#191970" stroke="#191970" points="597.7965,-485.833 605.486,-478.5446 594.9297,-479.447 597.7965,-485.833"/>
</g>
<!-- Node32&#45;&gt;Node29 -->
<g id="edge75" class="edge">
<title>Node32&#45;&gt;Node29</title>
<path fill="none" stroke="#191970" d="M475.9063,-515.3906C451.7353,-506.4893 415.1255,-493.0073 385.2806,-482.0165"/>
<polygon fill="#191970" stroke="#191970" points="386.4462,-478.716 375.8528,-478.5446 384.0272,-485.2848 386.4462,-478.716"/>
</g>
<!-- Node33 -->
<g id="node34" class="node">
<title>Node33</title>
<polygon fill="none" stroke="#bfbfbf" points="465.5,-454 465.5,-473 542.5,-473 542.5,-454 465.5,-454"/>
<text text-anchor="middle" x="504" y="-461" font-family="FreeSans.ttf" font-size="10.00" fill="#000000">Eigen/Dense</text>
</g>
<!-- Node32&#45;&gt;Node33 -->
<g id="edge65" class="edge">
<title>Node32&#45;&gt;Node33</title>
<path fill="none" stroke="#191970" d="M502.3125,-515.3906C502.5897,-506.8657 503.0036,-494.1392 503.3521,-483.4235"/>
<polygon fill="#191970" stroke="#191970" points="506.8561,-483.3534 503.6831,-473.2449 499.8598,-483.1258 506.8561,-483.3534"/>
</g>
<!-- Node34 -->
<g id="node35" class="node">
<title>Node34</title>
<g id="a_node35"><a xlink:href="VectorDynSize_8h.html" target="_top" xlink:title="iDynTree/Core/VectorDynSize.h">
<polygon fill="none" stroke="#000000" points="260.5,-168.5 260.5,-187.5 427.5,-187.5 427.5,-168.5 260.5,-168.5"/>
<text text-anchor="middle" x="344" y="-175.5" font-family="FreeSans.ttf" font-size="10.00" fill="#000000">iDynTree/Core/VectorDynSize.h</text>
</a>
</g>
</g>
<!-- Node32&#45;&gt;Node34 -->
<g id="edge66" class="edge">
<title>Node32&#45;&gt;Node34</title>
<path fill="none" stroke="#191970" d="M427.672,-515.4618C358.7049,-505.9523 264.8106,-491.0647 252,-479 226.3395,-454.8337 233,-437.2487 233,-402 233,-402 233,-402 233,-290 233,-244.029 280.7604,-210.1769 313.624,-192.325"/>
<polygon fill="#191970" stroke="#191970" points="315.6111,-195.2362 322.8605,-187.5099 312.3751,-189.0291 315.6111,-195.2362"/>
</g>
<!-- Node35 -->
<g id="node36" class="node">
<title>Node35</title>
<g id="a_node36"><a xlink:href="MatrixDynSize_8h.html" target="_top" xlink:title="iDynTree/Core/MatrixDynSize.h">
<polygon fill="none" stroke="#000000" points="1064.5,-168.5 1064.5,-187.5 1231.5,-187.5 1231.5,-168.5 1064.5,-168.5"/>
<text text-anchor="middle" x="1148" y="-175.5" font-family="FreeSans.ttf" font-size="10.00" fill="#000000">iDynTree/Core/MatrixDynSize.h</text>
</a>
</g>
</g>
<!-- Node32&#45;&gt;Node35 -->
<g id="edge70" class="edge">
<title>Node32&#45;&gt;Node35</title>
<path fill="none" stroke="#191970" d="M582.9494,-515.9719C586.0048,-515.6418 589.0298,-515.3169 592,-515 733.214,-499.9339 1221,-544.0155 1221,-402 1221,-402 1221,-402 1221,-290 1221,-250.8965 1189.3829,-214.7535 1167.7639,-194.6105"/>
<polygon fill="#191970" stroke="#191970" points="1169.8373,-191.7688 1160.0545,-187.7011 1165.1654,-196.9817 1169.8373,-191.7688"/>
</g>
<!-- Node36 -->
<g id="node37" class="node">
<title>Node36</title>
<g id="a_node37"><a xlink:href="Transform_8h.html" target="_top" xlink:title="iDynTree/Core/Transform.h">
<polygon fill="none" stroke="#000000" points="983,-392.5 983,-411.5 1129,-411.5 1129,-392.5 983,-392.5"/>
<text text-anchor="middle" x="1056" y="-399.5" font-family="FreeSans.ttf" font-size="10.00" fill="#000000">iDynTree/Core/Transform.h</text>
</a>
</g>
</g>
<!-- Node32&#45;&gt;Node36 -->
<g id="edge76" class="edge">
<title>Node32&#45;&gt;Node36</title>
<path fill="none" stroke="#191970" d="M550.1438,-515.4996C595.5586,-506.4462 665.505,-492.2668 726,-479 825.957,-457.079 942.4327,-429.398 1006.831,-413.905"/>
<polygon fill="#191970" stroke="#191970" points="1007.8065,-417.2702 1016.7089,-411.5258 1006.1674,-410.4648 1007.8065,-417.2702"/>
</g>
<!-- Node34&#45;&gt;Node7 -->
<g id="edge67" class="edge">
<title>Node34&#45;&gt;Node7</title>
<path fill="none" stroke="#191970" d="M354.5686,-168.3185C370.9648,-153.8332 404.0832,-126.6588 437,-112 479.5436,-93.0541 530.6439,-81.5642 571.1829,-74.8057"/>
<polygon fill="#191970" stroke="#191970" points="571.9323,-78.2303 581.2502,-73.1877 570.8215,-71.3189 571.9323,-78.2303"/>
</g>
<!-- Node34&#45;&gt;Node16 -->
<g id="edge68" class="edge">
<title>Node34&#45;&gt;Node16</title>
<path fill="none" stroke="#191970" d="M421.5493,-168.467C490.9503,-159.722 595.4186,-146.0317 686,-132 694.098,-130.7456 702.8218,-129.2754 710.9507,-127.8543"/>
<polygon fill="#191970" stroke="#191970" points="711.6024,-131.2934 720.8373,-126.1004 710.3796,-124.401 711.6024,-131.2934"/>
</g>
<!-- Node35&#45;&gt;Node16 -->
<g id="edge71" class="edge">
<title>Node35&#45;&gt;Node16</title>
<path fill="none" stroke="#191970" d="M1077.725,-168.4634C1009.9301,-159.2366 904.4217,-144.8067 813,-132 800.588,-130.2613 786.9428,-128.3189 775.0221,-126.6119"/>
<polygon fill="#191970" stroke="#191970" points="775.4602,-123.139 765.0645,-125.1834 774.4661,-130.0681 775.4602,-123.139"/>
</g>
<!-- Node35&#45;&gt;Node23 -->
<g id="edge72" class="edge">
<title>Node35&#45;&gt;Node23</title>
<path fill="none" stroke="#191970" d="M1105.1368,-168.4369C1062.0898,-158.8328 995.6927,-144.0191 949.509,-133.7152"/>
<polygon fill="#191970" stroke="#191970" points="950.2087,-130.2853 939.6865,-131.5237 948.6843,-137.1173 950.2087,-130.2853"/>
</g>
<!-- Node36&#45;&gt;Node1 -->
<g id="edge77" class="edge">
<title>Node36&#45;&gt;Node1</title>
<path fill="none" stroke="#191970" d="M1035.1994,-392.3733C1015.7757,-383.3838 986.5776,-369.8706 964.7036,-359.7471"/>
<polygon fill="#191970" stroke="#191970" points="966.0745,-356.5249 955.5292,-355.5011 963.1344,-362.8776 966.0745,-356.5249"/>
</g>
<!-- Node36&#45;&gt;Node16 -->
<g id="edge80" class="edge">
<title>Node36&#45;&gt;Node16</title>
<path fill="none" stroke="#191970" d="M1060.8487,-392.0971C1074.5126,-362.6088 1109.7128,-274.3094 1068,-224 1012.8639,-157.5009 958.4119,-216.883 877,-188 859.3828,-181.7498 856.6731,-176.4523 840,-168 817.8149,-156.7535 792.3998,-144.7319 773.1512,-135.7996"/>
<polygon fill="#191970" stroke="#191970" points="774.5143,-132.5739 763.9685,-131.5555 771.5774,-138.928 774.5143,-132.5739"/>
</g>
<!-- Node36&#45;&gt;Node19 -->
<g id="edge78" class="edge">
<title>Node36&#45;&gt;Node19</title>
<path fill="none" stroke="#191970" d="M1052.3636,-392.068C1046.3879,-377.2555 1033.0142,-349.6597 1012,-336 981.4578,-316.1469 890.3436,-303.5131 822.7877,-296.6094"/>
<polygon fill="#191970" stroke="#191970" points="822.8795,-293.1013 812.5815,-295.5913 822.1847,-300.0667 822.8795,-293.1013"/>
</g>
<!-- Node36&#45;&gt;Node22 -->
<g id="edge79" class="edge">
<title>Node36&#45;&gt;Node22</title>
<path fill="none" stroke="#191970" d="M1079.1112,-392.4901C1094.0298,-384.9878 1112.2331,-372.9445 1121,-356 1147.9589,-303.8944 1156.0896,-271.0159 1121,-224 1110.0275,-209.2981 1069.8511,-197.6172 1033.1538,-189.7051"/>
<polygon fill="#191970" stroke="#191970" points="1033.4263,-186.1868 1022.9227,-187.5741 1031.9988,-193.0397 1033.4263,-186.1868"/>
</g>
</g>
</svg>
