<?xml version="1.0" encoding="UTF-8" standalone="no"?>
<!DOCTYPE svg PUBLIC "-//W3C//DTD SVG 1.1//EN"
 "http://www.w3.org/Graphics/SVG/1.1/DTD/svg11.dtd">
<!-- Generated by graphviz version 2.40.1 (20161225.0304)
 -->
<!-- Title: PredictSensorsMeasurements.cpp Pages: 1 -->
<svg width="2211pt" height="856pt"
 viewBox="0.00 0.00 2210.93 856.00" xmlns="http://www.w3.org/2000/svg" xmlns:xlink="http://www.w3.org/1999/xlink">
<g id="graph0" class="graph" transform="scale(1 1) rotate(0) translate(4 852)">
<title>PredictSensorsMeasurements.cpp</title>
<!-- Node0 -->
<g id="node1" class="node">
<title>Node0</title>
<polygon fill="#bfbfbf" stroke="#000000" points="1291.5,-828.5 1291.5,-847.5 1472.5,-847.5 1472.5,-828.5 1291.5,-828.5"/>
<text text-anchor="middle" x="1382" y="-835.5" font-family="FreeSans.ttf" font-size="10.00" fill="#000000">PredictSensorsMeasurements.cpp</text>
</g>
<!-- Node1 -->
<g id="node2" class="node">
<title>Node1</title>
<g id="a_node2"><a xlink:href="PredictSensorsMeasurements_8h.html" target="_top" xlink:title="iDynTree/Sensors/Predict\lSensorsMeasurements.h">
<polygon fill="none" stroke="#000000" points="2026.5,-638.5 2026.5,-668.5 2163.5,-668.5 2163.5,-638.5 2026.5,-638.5"/>
<text text-anchor="start" x="2034.5" y="-656.5" font-family="FreeSans.ttf" font-size="10.00" fill="#000000">iDynTree/Sensors/Predict</text>
<text text-anchor="middle" x="2095" y="-645.5" font-family="FreeSans.ttf" font-size="10.00" fill="#000000">SensorsMeasurements.h</text>
</a>
</g>
</g>
<!-- Node0&#45;&gt;Node1 -->
<g id="edge1" class="edge">
<title>Node0&#45;&gt;Node1</title>
<path fill="none" stroke="#191970" d="M1472.8407,-835.2186C1658.2481,-829.1125 2064.6494,-813.3582 2086,-792 2115.4105,-762.579 2109.2458,-709.85 2102.1131,-678.6314"/>
<polygon fill="#191970" stroke="#191970" points="2105.4181,-677.4183 2099.6066,-668.5595 2098.6253,-679.1088 2105.4181,-677.4183"/>
</g>
<!-- Node29 -->
<g id="node22" class="node">
<title>Node29</title>
<g id="a_node22"><a xlink:href="SpatialMotionVector_8h.html" target="_top" xlink:title="iDynTree/Core/SpatialMotion\lVector.h">
<polygon fill="none" stroke="#000000" points="1734.5,-403.5 1734.5,-433.5 1889.5,-433.5 1889.5,-403.5 1734.5,-403.5"/>
<text text-anchor="start" x="1742.5" y="-421.5" font-family="FreeSans.ttf" font-size="10.00" fill="#000000">iDynTree/Core/SpatialMotion</text>
<text text-anchor="middle" x="1812" y="-410.5" font-family="FreeSans.ttf" font-size="10.00" fill="#000000">Vector.h</text>
</a>
</g>
</g>
<!-- Node0&#45;&gt;Node29 -->
<g id="edge61" class="edge">
<title>Node0&#45;&gt;Node29</title>
<path fill="none" stroke="#191970" d="M1472.7816,-836.6416C1661.6128,-833.221 2084.0289,-822.2538 2142,-792 2175.6601,-774.4336 2182.5306,-760.8621 2195,-725 2249.1912,-569.1457 2001.9642,-473.6385 1878.5324,-436.4075"/>
<polygon fill="#191970" stroke="#191970" points="1879.3679,-433.0046 1868.7852,-433.5109 1877.3739,-439.7146 1879.3679,-433.0046"/>
</g>
<!-- Node31 -->
<g id="node24" class="node">
<title>Node31</title>
<g id="a_node24"><a xlink:href="SpatialAcc_8h.html" target="_top" xlink:title="iDynTree/Core/SpatialAcc.h">
<polygon fill="none" stroke="#000000" points="1788,-470.5 1788,-489.5 1936,-489.5 1936,-470.5 1788,-470.5"/>
<text text-anchor="middle" x="1862" y="-477.5" font-family="FreeSans.ttf" font-size="10.00" fill="#000000">iDynTree/Core/SpatialAcc.h</text>
</a>
</g>
</g>
<!-- Node0&#45;&gt;Node31 -->
<g id="edge130" class="edge">
<title>Node0&#45;&gt;Node31</title>
<path fill="none" stroke="#191970" d="M1472.6325,-837.1641C1655.5307,-834.7726 2055.8665,-825.708 2108,-792 2170.3867,-751.6626 2211.8545,-701.3209 2173,-638 2119.229,-550.3699 2000.0082,-509.4805 1925.7894,-491.8763"/>
<polygon fill="#191970" stroke="#191970" points="1926.1564,-488.3697 1915.6269,-489.5444 1924.5908,-495.1923 1926.1564,-488.3697"/>
</g>
<!-- Node38 -->
<g id="node31" class="node">
<title>Node38</title>
<g id="a_node31"><a xlink:href="AccelerometerSensor_8h.html" target="_top" xlink:title="iDynTree/Sensors/Accelerometer\lSensor.h">
<polygon fill="none" stroke="#000000" points="1901.5,-761.5 1901.5,-791.5 2076.5,-791.5 2076.5,-761.5 1901.5,-761.5"/>
<text text-anchor="start" x="1909.5" y="-779.5" font-family="FreeSans.ttf" font-size="10.00" fill="#000000">iDynTree/Sensors/Accelerometer</text>
<text text-anchor="middle" x="1989" y="-768.5" font-family="FreeSans.ttf" font-size="10.00" fill="#000000">Sensor.h</text>
</a>
</g>
</g>
<!-- Node0&#45;&gt;Node38 -->
<g id="edge62" class="edge">
<title>Node0&#45;&gt;Node38</title>
<path fill="none" stroke="#191970" d="M1472.944,-831.3671C1574.185,-823.5991 1742.5801,-809.5346 1887,-792 1888.4725,-791.8212 1889.9565,-791.6378 1891.4496,-791.4502"/>
<polygon fill="#191970" stroke="#191970" points="1891.9473,-794.915 1901.4135,-790.1568 1891.0461,-787.9733 1891.9473,-794.915"/>
</g>
<!-- Node39 -->
<g id="node32" class="node">
<title>Node39</title>
<g id="a_node32"><a xlink:href="Sensors_8h.html" target="_top" xlink:title="iDynTree/Sensors/Sensors.h">
<polygon fill="none" stroke="#000000" points="1163.5,-705.5 1163.5,-724.5 1314.5,-724.5 1314.5,-705.5 1163.5,-705.5"/>
<text text-anchor="middle" x="1239" y="-712.5" font-family="FreeSans.ttf" font-size="10.00" fill="#000000">iDynTree/Sensors/Sensors.h</text>
</a>
</g>
</g>
<!-- Node0&#45;&gt;Node39 -->
<g id="edge104" class="edge">
<title>Node0&#45;&gt;Node39</title>
<path fill="none" stroke="#191970" d="M1373.6361,-828.417C1360.1706,-813.2544 1332.5046,-783.1797 1306,-761 1292.5485,-749.7435 1276.3622,-738.5723 1263.269,-730.0578"/>
<polygon fill="#191970" stroke="#191970" points="1265.0798,-727.0613 1254.7702,-724.6193 1261.3067,-732.9575 1265.0798,-727.0613"/>
</g>
<!-- Node41 -->
<g id="node34" class="node">
<title>Node41</title>
<g id="a_node34"><a xlink:href="Model_8h.html" target="_top" xlink:title="iDynTree/Model/Model.h">
<polygon fill="none" stroke="#000000" points="413.5,-644 413.5,-663 546.5,-663 546.5,-644 413.5,-644"/>
<text text-anchor="middle" x="480" y="-651" font-family="FreeSans.ttf" font-size="10.00" fill="#000000">iDynTree/Model/Model.h</text>
</a>
</g>
</g>
<!-- Node0&#45;&gt;Node41 -->
<g id="edge105" class="edge">
<title>Node0&#45;&gt;Node41</title>
<path fill="none" stroke="#191970" d="M1291.3853,-834.5018C1151.5173,-828.4848 889.6983,-814.5972 799,-792 684.2821,-763.4184 558.4236,-697.5296 505.5841,-668.1276"/>
<polygon fill="#191970" stroke="#191970" points="507.0205,-664.9202 496.5867,-663.0794 503.5952,-671.025 507.0205,-664.9202"/>
</g>
<!-- Node50 -->
<g id="node40" class="node">
<title>Node50</title>
<g id="a_node40"><a xlink:href="GyroscopeSensor_8h.html" target="_top" xlink:title="iDynTree/Sensors/Gyroscope\lSensor.h">
<polygon fill="none" stroke="#000000" points="1141.5,-761.5 1141.5,-791.5 1296.5,-791.5 1296.5,-761.5 1141.5,-761.5"/>
<text text-anchor="start" x="1149.5" y="-779.5" font-family="FreeSans.ttf" font-size="10.00" fill="#000000">iDynTree/Sensors/Gyroscope</text>
<text text-anchor="middle" x="1219" y="-768.5" font-family="FreeSans.ttf" font-size="10.00" fill="#000000">Sensor.h</text>
</a>
</g>
</g>
<!-- Node0&#45;&gt;Node50 -->
<g id="edge93" class="edge">
<title>Node0&#45;&gt;Node50</title>
<path fill="none" stroke="#191970" d="M1356.5313,-828.3906C1333.0414,-819.5279 1297.5155,-806.1239 1268.455,-795.1594"/>
<polygon fill="#191970" stroke="#191970" points="1269.466,-791.8001 1258.8743,-791.5446 1266.9949,-798.3494 1269.466,-791.8001"/>
</g>
<!-- Node51 -->
<g id="node41" class="node">
<title>Node51</title>
<g id="a_node41"><a xlink:href="ThreeAxisAngularAccelerometerSensor_8h.html" target="_top" xlink:title="iDynTree/Sensors/ThreeAxis\lAngularAccelerometerSensor.h">
<polygon fill="none" stroke="#000000" points="1428.5,-761.5 1428.5,-791.5 1595.5,-791.5 1595.5,-761.5 1428.5,-761.5"/>
<text text-anchor="start" x="1436.5" y="-779.5" font-family="FreeSans.ttf" font-size="10.00" fill="#000000">iDynTree/Sensors/ThreeAxis</text>
<text text-anchor="middle" x="1512" y="-768.5" font-family="FreeSans.ttf" font-size="10.00" fill="#000000">AngularAccelerometerSensor.h</text>
</a>
</g>
</g>
<!-- Node0&#45;&gt;Node51 -->
<g id="edge97" class="edge">
<title>Node0&#45;&gt;Node51</title>
<path fill="none" stroke="#191970" d="M1402.3125,-828.3906C1420.6395,-819.7205 1448.1529,-806.7046 1471.0387,-795.8779"/>
<polygon fill="#191970" stroke="#191970" points="1472.6557,-798.9849 1480.1984,-791.5446 1469.6622,-792.6572 1472.6557,-798.9849"/>
</g>
<!-- Node52 -->
<g id="node42" class="node">
<title>Node52</title>
<g id="a_node42"><a xlink:href="SixAxisForceTorqueSensor_8h.html" target="_top" xlink:title="iDynTree/Sensors/SixAxis\lForceTorqueSensor.h">
<polygon fill="none" stroke="#000000" points="927,-761.5 927,-791.5 1067,-791.5 1067,-761.5 927,-761.5"/>
<text text-anchor="start" x="935" y="-779.5" font-family="FreeSans.ttf" font-size="10.00" fill="#000000">iDynTree/Sensors/SixAxis</text>
<text text-anchor="middle" x="997" y="-768.5" font-family="FreeSans.ttf" font-size="10.00" fill="#000000">ForceTorqueSensor.h</text>
</a>
</g>
</g>
<!-- Node0&#45;&gt;Node52 -->
<g id="edge100" class="edge">
<title>Node0&#45;&gt;Node52</title>
<path fill="none" stroke="#191970" d="M1322.2662,-828.4581C1256.5049,-817.9534 1150.4395,-801.0105 1077.408,-789.3444"/>
<polygon fill="#191970" stroke="#191970" points="1077.7567,-785.8558 1067.3298,-787.7345 1076.6525,-792.7682 1077.7567,-785.8558"/>
</g>
<!-- Node53 -->
<g id="node43" class="node">
<title>Node53</title>
<g id="a_node43"><a xlink:href="Traversal_8h.html" target="_top" xlink:title="iDynTree/Model/Traversal.h">
<polygon fill="none" stroke="#000000" points="726,-582.5 726,-601.5 874,-601.5 874,-582.5 726,-582.5"/>
<text text-anchor="middle" x="800" y="-589.5" font-family="FreeSans.ttf" font-size="10.00" fill="#000000">iDynTree/Model/Traversal.h</text>
</a>
</g>
</g>
<!-- Node0&#45;&gt;Node53 -->
<g id="edge106" class="edge">
<title>Node0&#45;&gt;Node53</title>
<path fill="none" stroke="#191970" d="M1291.4525,-833.4136C1165.3227,-826.3617 948.6808,-811.5914 918,-792 850.6269,-748.9784 816.8307,-652.6191 805.0158,-611.355"/>
<polygon fill="#191970" stroke="#191970" points="808.3857,-610.4091 802.3668,-601.69 801.6347,-612.2595 808.3857,-610.4091"/>
</g>
<!-- Node54 -->
<g id="node44" class="node">
<title>Node54</title>
<g id="a_node44"><a xlink:href="ForwardKinematics_8h.html" target="_top" xlink:title="iDynTree/Model/ForwardKinematics.h">
<polygon fill="none" stroke="#000000" points="254.5,-705.5 254.5,-724.5 451.5,-724.5 451.5,-705.5 254.5,-705.5"/>
<text text-anchor="middle" x="353" y="-712.5" font-family="FreeSans.ttf" font-size="10.00" fill="#000000">iDynTree/Model/ForwardKinematics.h</text>
</a>
</g>
</g>
<!-- Node0&#45;&gt;Node54 -->
<g id="edge109" class="edge">
<title>Node0&#45;&gt;Node54</title>
<path fill="none" stroke="#191970" d="M1291.4476,-834.168C1126.8627,-826.8712 784.7991,-810.0883 667,-792 567.6171,-776.7395 453.5698,-745.1328 394.0442,-727.5289"/>
<polygon fill="#191970" stroke="#191970" points="394.8571,-724.1191 384.2741,-724.6201 392.8597,-730.8281 394.8571,-724.1191"/>
</g>
<!-- Node55 -->
<g id="node45" class="node">
<title>Node55</title>
<g id="a_node45"><a xlink:href="FreeFloatingState_8h.html" target="_top" xlink:title="iDynTree/Model/FreeFloating\lState.h">
<polygon fill="none" stroke="#000000" points="1153,-638.5 1153,-668.5 1307,-668.5 1307,-638.5 1153,-638.5"/>
<text text-anchor="start" x="1161" y="-656.5" font-family="FreeSans.ttf" font-size="10.00" fill="#000000">iDynTree/Model/FreeFloating</text>
<text text-anchor="middle" x="1230" y="-645.5" font-family="FreeSans.ttf" font-size="10.00" fill="#000000">State.h</text>
</a>
</g>
</g>
<!-- Node0&#45;&gt;Node55 -->
<g id="edge111" class="edge">
<title>Node0&#45;&gt;Node55</title>
<path fill="none" stroke="#191970" d="M1380.0839,-828.4622C1374.9136,-804.8672 1358.666,-742.9346 1324,-705 1311.8276,-691.6799 1295.3898,-681.0616 1279.6643,-673.0095"/>
<polygon fill="#191970" stroke="#191970" points="1281.0489,-669.7909 1270.5253,-668.564 1277.9869,-676.0857 1281.0489,-669.7909"/>
</g>
<!-- Node57 -->
<g id="node47" class="node">
<title>Node57</title>
<g id="a_node47"><a xlink:href="Dynamics_8h.html" target="_top" xlink:title="iDynTree/Model/Dynamics.h">
<polygon fill="none" stroke="#000000" points="1325,-644 1325,-663 1477,-663 1477,-644 1325,-644"/>
<text text-anchor="middle" x="1401" y="-651" font-family="FreeSans.ttf" font-size="10.00" fill="#000000">iDynTree/Model/Dynamics.h</text>
</a>
</g>
</g>
<!-- Node0&#45;&gt;Node57 -->
<g id="edge123" class="edge">
<title>Node0&#45;&gt;Node57</title>
<path fill="none" stroke="#191970" d="M1382.9948,-828.3402C1385.9831,-799.3223 1394.9232,-712.5088 1398.9701,-673.2113"/>
<polygon fill="#191970" stroke="#191970" points="1402.4722,-673.3701 1400.0151,-663.0641 1395.509,-672.653 1402.4722,-673.3701"/>
</g>
<!-- Node59 -->
<g id="node49" class="node">
<title>Node59</title>
<g id="a_node49"><a xlink:href="EigenHelpers_8h.html" target="_top" xlink:title="iDynTree/Core/EigenHelpers.h">
<polygon fill="none" stroke="#000000" points="1608.5,-470.5 1608.5,-489.5 1769.5,-489.5 1769.5,-470.5 1608.5,-470.5"/>
<text text-anchor="middle" x="1689" y="-477.5" font-family="FreeSans.ttf" font-size="10.00" fill="#000000">iDynTree/Core/EigenHelpers.h</text>
</a>
</g>
</g>
<!-- Node0&#45;&gt;Node59 -->
<g id="edge131" class="edge">
<title>Node0&#45;&gt;Node59</title>
<path fill="none" stroke="#191970" d="M1444.8168,-828.499C1579.5155,-806.3552 1884,-746.0624 1884,-653.5 1884,-653.5 1884,-653.5 1884,-592 1884,-533.8092 1817.8967,-505.4122 1762.6647,-491.8415"/>
<polygon fill="#191970" stroke="#191970" points="1763.3837,-488.4154 1752.8503,-489.5542 1761.7949,-495.2327 1763.3837,-488.4154"/>
</g>
<!-- Node2 -->
<g id="node3" class="node">
<title>Node2</title>
<g id="a_node3"><a xlink:href="LinkState_8h.html" target="_top" xlink:title="iDynTree/Model/LinkState.h">
<polygon fill="none" stroke="#000000" points="1157.5,-582.5 1157.5,-601.5 1306.5,-601.5 1306.5,-582.5 1157.5,-582.5"/>
<text text-anchor="middle" x="1232" y="-589.5" font-family="FreeSans.ttf" font-size="10.00" fill="#000000">iDynTree/Model/LinkState.h</text>
</a>
</g>
</g>
<!-- Node1&#45;&gt;Node2 -->
<g id="edge2" class="edge">
<title>Node1&#45;&gt;Node2</title>
<path fill="none" stroke="#191970" d="M2026.3905,-650.1766C1892.3126,-643.4172 1585.9033,-626.6707 1316.988,-602.0448"/>
<polygon fill="#191970" stroke="#191970" points="1316.9124,-598.5231 1306.6335,-601.0909 1316.2702,-605.4936 1316.9124,-598.5231"/>
</g>
<!-- Node23 -->
<g id="node8" class="node">
<title>Node23</title>
<g id="a_node8"><a xlink:href="GeomVector3_8h.html" target="_top" xlink:title="iDynTree/Core/GeomVector3.h">
<polygon fill="none" stroke="#000000" points="1832.5,-168.5 1832.5,-187.5 1995.5,-187.5 1995.5,-168.5 1832.5,-168.5"/>
<text text-anchor="middle" x="1914" y="-175.5" font-family="FreeSans.ttf" font-size="10.00" fill="#000000">iDynTree/Core/GeomVector3.h</text>
</a>
</g>
</g>
<!-- Node1&#45;&gt;Node23 -->
<g id="edge60" class="edge">
<title>Node1&#45;&gt;Node23</title>
<path fill="none" stroke="#191970" d="M2101.5395,-638.4331C2116.9008,-601.6253 2154,-503.8915 2154,-418.5 2154,-418.5 2154,-418.5 2154,-301 2154,-231.4961 2073.2975,-201.24 2005.4879,-188.085"/>
<polygon fill="#191970" stroke="#191970" points="2006.0559,-184.6309 1995.5879,-186.2656 2004.7906,-191.5156 2006.0559,-184.6309"/>
</g>
<!-- Node3 -->
<g id="node4" class="node">
<title>Node3</title>
<g id="a_node4"><a xlink:href="Transform_8h.html" target="_top" xlink:title="iDynTree/Core/Transform.h">
<polygon fill="none" stroke="#000000" points="873,-409 873,-428 1019,-428 1019,-409 873,-409"/>
<text text-anchor="middle" x="946" y="-416" font-family="FreeSans.ttf" font-size="10.00" fill="#000000">iDynTree/Core/Transform.h</text>
</a>
</g>
</g>
<!-- Node2&#45;&gt;Node3 -->
<g id="edge3" class="edge">
<title>Node2&#45;&gt;Node3</title>
<path fill="none" stroke="#191970" d="M1173.6119,-582.4637C1127.0163,-573.9691 1066.3002,-560.6452 1046,-546 1013.6007,-522.6262 1023.0203,-501.1454 998,-470 987.8542,-457.3704 974.9159,-444.5465 964.4834,-434.8545"/>
<polygon fill="#191970" stroke="#191970" points="966.8304,-432.258 957.0818,-428.1087 962.1151,-437.4316 966.8304,-432.258"/>
</g>
<!-- Node28 -->
<g id="node21" class="node">
<title>Node28</title>
<g id="a_node21"><a xlink:href="Twist_8h.html" target="_top" xlink:title="iDynTree/Core/Twist.h">
<polygon fill="none" stroke="#000000" points="1354,-470.5 1354,-489.5 1476,-489.5 1476,-470.5 1354,-470.5"/>
<text text-anchor="middle" x="1415" y="-477.5" font-family="FreeSans.ttf" font-size="10.00" fill="#000000">iDynTree/Core/Twist.h</text>
</a>
</g>
</g>
<!-- Node2&#45;&gt;Node28 -->
<g id="edge35" class="edge">
<title>Node2&#45;&gt;Node28</title>
<path fill="none" stroke="#191970" d="M1258.8095,-582.3328C1280.2013,-574.0839 1310.531,-561.1679 1335,-546 1358.197,-531.6206 1381.9708,-511.1307 1397.5058,-496.8076"/>
<polygon fill="#191970" stroke="#191970" points="1399.9267,-499.3357 1404.832,-489.9447 1395.1411,-494.227 1399.9267,-499.3357"/>
</g>
<!-- Node2&#45;&gt;Node31 -->
<g id="edge46" class="edge">
<title>Node2&#45;&gt;Node31</title>
<path fill="none" stroke="#191970" d="M1285.4417,-582.4993C1401.0347,-561.9494 1673.874,-513.4446 1798.2337,-491.3362"/>
<polygon fill="#191970" stroke="#191970" points="1799.1301,-494.7318 1808.363,-489.5355 1797.9048,-487.8399 1799.1301,-494.7318"/>
</g>
<!-- Node32 -->
<g id="node25" class="node">
<title>Node32</title>
<g id="a_node25"><a xlink:href="Wrench_8h.html" target="_top" xlink:title="iDynTree/Core/Wrench.h">
<polygon fill="none" stroke="#000000" points="1126.5,-470.5 1126.5,-489.5 1259.5,-489.5 1259.5,-470.5 1126.5,-470.5"/>
<text text-anchor="middle" x="1193" y="-477.5" font-family="FreeSans.ttf" font-size="10.00" fill="#000000">iDynTree/Core/Wrench.h</text>
</a>
</g>
</g>
<!-- Node2&#45;&gt;Node32 -->
<g id="edge48" class="edge">
<title>Node2&#45;&gt;Node32</title>
<path fill="none" stroke="#191970" d="M1202.0542,-582.4983C1184.9946,-575.3713 1165.0676,-563.7417 1155,-546 1145.3649,-529.0204 1159.4862,-509.6711 1173.1648,-496.3345"/>
<polygon fill="#191970" stroke="#191970" points="1175.5268,-498.9174 1180.5648,-489.5971 1170.8142,-493.7414 1175.5268,-498.9174"/>
</g>
<!-- Node34 -->
<g id="node27" class="node">
<title>Node34</title>
<g id="a_node27"><a xlink:href="ArticulatedBodyInertia_8h.html" target="_top" xlink:title="iDynTree/Core/Articulated\lBodyInertia.h">
<polygon fill="none" stroke="#000000" points="668.5,-224.5 668.5,-254.5 809.5,-254.5 809.5,-224.5 668.5,-224.5"/>
<text text-anchor="start" x="676.5" y="-242.5" font-family="FreeSans.ttf" font-size="10.00" fill="#000000">iDynTree/Core/Articulated</text>
<text text-anchor="middle" x="739" y="-231.5" font-family="FreeSans.ttf" font-size="10.00" fill="#000000">BodyInertia.h</text>
</a>
</g>
</g>
<!-- Node2&#45;&gt;Node34 -->
<g id="edge53" class="edge">
<title>Node2&#45;&gt;Node34</title>
<path fill="none" stroke="#191970" d="M1157.2107,-582.9064C1116.3219,-576.1377 1065.4964,-564.7315 1023,-546 943.9043,-511.1364 923.8097,-496.4052 864,-434 812.5358,-380.3025 770.0841,-302.4388 750.5607,-263.5253"/>
<polygon fill="#191970" stroke="#191970" points="753.6716,-261.9202 746.0996,-254.5097 747.3977,-265.0247 753.6716,-261.9202"/>
</g>
<!-- Node35 -->
<g id="node28" class="node">
<title>Node35</title>
<g id="a_node28"><a xlink:href="Indices_8h.html" target="_top" xlink:title="iDynTree/Model/Indices.h">
<polygon fill="none" stroke="#000000" points="535,-526.5 535,-545.5 673,-545.5 673,-526.5 535,-526.5"/>
<text text-anchor="middle" x="604" y="-533.5" font-family="FreeSans.ttf" font-size="10.00" fill="#000000">iDynTree/Model/Indices.h</text>
</a>
</g>
</g>
<!-- Node2&#45;&gt;Node35 -->
<g id="edge56" class="edge">
<title>Node2&#45;&gt;Node35</title>
<path fill="none" stroke="#191970" d="M1157.494,-585.3562C1038.1967,-574.7182 805.3466,-553.9545 683.1652,-543.0593"/>
<polygon fill="#191970" stroke="#191970" points="683.3995,-539.5664 673.1281,-542.1643 682.7777,-546.5387 683.3995,-539.5664"/>
</g>
<!-- Node37 -->
<g id="node30" class="node">
<title>Node37</title>
<polygon fill="none" stroke="#bfbfbf" points="870.5,-526.5 870.5,-545.5 917.5,-545.5 917.5,-526.5 870.5,-526.5"/>
<text text-anchor="middle" x="894" y="-533.5" font-family="FreeSans.ttf" font-size="10.00" fill="#000000">vector</text>
</g>
<!-- Node2&#45;&gt;Node37 -->
<g id="edge59" class="edge">
<title>Node2&#45;&gt;Node37</title>
<path fill="none" stroke="#191970" d="M1174.2798,-582.4369C1103.2795,-570.6735 985.1075,-551.0947 927.5565,-541.5597"/>
<polygon fill="#191970" stroke="#191970" points="927.9786,-538.082 917.541,-539.9003 926.8344,-544.9878 927.9786,-538.082"/>
</g>
<!-- Node4 -->
<g id="node5" class="node">
<title>Node4</title>
<g id="a_node5"><a xlink:href="Position_8h.html" target="_top" xlink:title="iDynTree/Core/Position.h">
<polygon fill="none" stroke="#ff0000" points="906,-291.5 906,-310.5 1042,-310.5 1042,-291.5 906,-291.5"/>
<text text-anchor="middle" x="974" y="-298.5" font-family="FreeSans.ttf" font-size="10.00" fill="#000000">iDynTree/Core/Position.h</text>
</a>
</g>
</g>
<!-- Node3&#45;&gt;Node4 -->
<g id="edge4" class="edge">
<title>Node3&#45;&gt;Node4</title>
<path fill="none" stroke="#191970" d="M948.2914,-408.8845C952.865,-389.6913 963.2084,-346.286 969.2897,-320.7663"/>
<polygon fill="#191970" stroke="#191970" points="972.7635,-321.2874 971.677,-310.7484 965.9542,-319.6646 972.7635,-321.2874"/>
</g>
<!-- Node22 -->
<g id="node6" class="node">
<title>Node22</title>
<g id="a_node6"><a xlink:href="Rotation_8h.html" target="_top" xlink:title="iDynTree/Core/Rotation.h">
<polygon fill="none" stroke="#ff0000" points="942.5,-230 942.5,-249 1079.5,-249 1079.5,-230 942.5,-230"/>
<text text-anchor="middle" x="1011" y="-237" font-family="FreeSans.ttf" font-size="10.00" fill="#000000">iDynTree/Core/Rotation.h</text>
</a>
</g>
</g>
<!-- Node3&#45;&gt;Node22 -->
<g id="edge22" class="edge">
<title>Node3&#45;&gt;Node22</title>
<path fill="none" stroke="#191970" d="M961.1526,-408.863C985.5603,-392.3248 1032.6944,-355.9396 1051,-311 1059.0134,-291.3273 1044.0642,-270.2745 1030.2168,-256.1468"/>
<polygon fill="#191970" stroke="#191970" points="1032.442,-253.4325 1022.7899,-249.0634 1027.6107,-258.4979 1032.442,-253.4325"/>
</g>
<!-- Node19 -->
<g id="node7" class="node">
<title>Node19</title>
<polygon fill="none" stroke="#bfbfbf" points="816,-56.5 816,-75.5 860,-75.5 860,-56.5 816,-56.5"/>
<text text-anchor="middle" x="838" y="-63.5" font-family="FreeSans.ttf" font-size="10.00" fill="#000000">string</text>
</g>
<!-- Node3&#45;&gt;Node19 -->
<g id="edge34" class="edge">
<title>Node3&#45;&gt;Node19</title>
<path fill="none" stroke="#191970" d="M890.5857,-408.9551C802.4049,-392.1744 640,-354.0657 640,-301 640,-301 640,-301 640,-178 640,-102.8681 749.3416,-77.5507 805.5165,-69.5015"/>
<polygon fill="#191970" stroke="#191970" points="806.2201,-72.9388 815.6718,-68.1516 805.2978,-65.9998 806.2201,-72.9388"/>
</g>
<!-- Node25 -->
<g id="node18" class="node">
<title>Node25</title>
<g id="a_node18"><a xlink:href="MatrixFixSize_8h.html" target="_top" xlink:title="iDynTree/Core/MatrixFixSize.h">
<polygon fill="none" stroke="#000000" points="994.5,-168.5 994.5,-187.5 1155.5,-187.5 1155.5,-168.5 994.5,-168.5"/>
<text text-anchor="middle" x="1075" y="-175.5" font-family="FreeSans.ttf" font-size="10.00" fill="#000000">iDynTree/Core/MatrixFixSize.h</text>
</a>
</g>
</g>
<!-- Node3&#45;&gt;Node25 -->
<g id="edge23" class="edge">
<title>Node3&#45;&gt;Node25</title>
<path fill="none" stroke="#191970" d="M939.9107,-408.9187C928.741,-390.7104 905.357,-349.4833 897,-311 888.1197,-270.1068 900.8735,-250.8142 933,-224 952.6715,-207.5813 978.3307,-196.9834 1002.4178,-190.1592"/>
<polygon fill="#191970" stroke="#191970" points="1003.4957,-193.4944 1012.2645,-187.5481 1001.7014,-186.7283 1003.4957,-193.4944"/>
</g>
<!-- Node4&#45;&gt;Node22 -->
<g id="edge5" class="edge">
<title>Node4&#45;&gt;Node22</title>
<path fill="none" stroke="#191970" d="M979.7813,-291.3906C985.126,-282.5068 993.2159,-269.0601 999.8211,-258.0811"/>
<polygon fill="#191970" stroke="#191970" points="1002.9811,-259.618 1005.1372,-249.2449 996.9829,-256.0093 1002.9811,-259.618"/>
</g>
<!-- Node4&#45;&gt;Node19 -->
<g id="edge21" class="edge">
<title>Node4&#45;&gt;Node19</title>
<path fill="none" stroke="#191970" d="M964.0702,-291.401C955.2159,-282.5047 942.2598,-268.6262 933,-255 893.5298,-196.9181 860.0205,-120.1555 845.5888,-85.0249"/>
<polygon fill="#191970" stroke="#191970" points="848.7382,-83.4776 841.737,-75.5257 842.2512,-86.108 848.7382,-83.4776"/>
</g>
<!-- Node22&#45;&gt;Node19 -->
<g id="edge6" class="edge">
<title>Node22&#45;&gt;Node19</title>
<path fill="none" stroke="#191970" d="M997.8248,-229.81C985.1733,-220.1093 965.9742,-204.3159 952,-188 926.0122,-157.6573 931.6012,-140.8829 904,-112 892.4305,-99.8932 877.2208,-89.0366 864.3185,-80.9149"/>
<polygon fill="#191970" stroke="#191970" points="865.78,-77.7074 855.4165,-75.5055 862.1449,-83.6896 865.78,-77.7074"/>
</g>
<!-- Node22&#45;&gt;Node23 -->
<g id="edge7" class="edge">
<title>Node22&#45;&gt;Node23</title>
<path fill="none" stroke="#191970" d="M1079.6129,-234.827C1240.2809,-223.8845 1640.9921,-196.5936 1822.3099,-184.2447"/>
<polygon fill="#191970" stroke="#191970" points="1822.6162,-187.732 1832.3553,-183.5605 1822.1405,-180.7482 1822.6162,-187.732"/>
</g>
<!-- Node6 -->
<g id="node9" class="node">
<title>Node6</title>
<g id="a_node9"><a xlink:href="VectorFixSize_8h.html" target="_top" xlink:title="iDynTree/Core/VectorFixSize.h">
<polygon fill="none" stroke="#000000" points="1262.5,-112.5 1262.5,-131.5 1423.5,-131.5 1423.5,-112.5 1262.5,-112.5"/>
<text text-anchor="middle" x="1343" y="-119.5" font-family="FreeSans.ttf" font-size="10.00" fill="#000000">iDynTree/Core/VectorFixSize.h</text>
</a>
</g>
</g>
<!-- Node22&#45;&gt;Node6 -->
<g id="edge20" class="edge">
<title>Node22&#45;&gt;Node6</title>
<path fill="none" stroke="#191970" d="M1040.1313,-229.969C1070.9769,-219.813 1121.0478,-203.144 1164,-188 1214.395,-170.2319 1272.3628,-148.6465 1308.3439,-135.1119"/>
<polygon fill="#191970" stroke="#191970" points="1309.7606,-138.3184 1317.8848,-131.5178 1307.2929,-131.7677 1309.7606,-138.3184"/>
</g>
<!-- Node23&#45;&gt;Node6 -->
<g id="edge8" class="edge">
<title>Node23&#45;&gt;Node6</title>
<path fill="none" stroke="#191970" d="M1832.2591,-170.567C1738.6767,-161.9702 1580.4883,-147.1736 1434.0233,-132.0931"/>
<polygon fill="#191970" stroke="#191970" points="1434.2533,-128.5984 1423.9468,-131.0532 1433.5346,-135.5614 1434.2533,-128.5984"/>
</g>
<!-- Node6&#45;&gt;Node19 -->
<g id="edge16" class="edge">
<title>Node6&#45;&gt;Node19</title>
<path fill="none" stroke="#191970" d="M1262.4228,-113.0647C1149.3907,-100.5305 948.8238,-78.2894 870.5578,-69.6104"/>
<polygon fill="#191970" stroke="#191970" points="870.6725,-66.1017 860.3476,-68.4782 869.9009,-73.0591 870.6725,-66.1017"/>
</g>
<!-- Node7 -->
<g id="node10" class="node">
<title>Node7</title>
<g id="a_node10"><a xlink:href="Utils_8h.html" target="_top" xlink:title="iDynTree/Core/Utils.h">
<polygon fill="none" stroke="#000000" points="1599.5,-56.5 1599.5,-75.5 1718.5,-75.5 1718.5,-56.5 1599.5,-56.5"/>
<text text-anchor="middle" x="1659" y="-63.5" font-family="FreeSans.ttf" font-size="10.00" fill="#000000">iDynTree/Core/Utils.h</text>
</a>
</g>
</g>
<!-- Node6&#45;&gt;Node7 -->
<g id="edge9" class="edge">
<title>Node6&#45;&gt;Node7</title>
<path fill="none" stroke="#191970" d="M1396.9633,-112.4369C1451.8395,-102.712 1536.857,-87.6456 1595.075,-77.3285"/>
<polygon fill="#191970" stroke="#191970" points="1596.0235,-80.715 1605.2593,-75.5237 1594.8019,-73.8224 1596.0235,-80.715"/>
</g>
<!-- Node10 -->
<g id="node13" class="node">
<title>Node10</title>
<g id="a_node13"><a xlink:href="Span_8h.html" target="_top" xlink:title="iDynTree/Core/Span.h">
<polygon fill="none" stroke="#ff0000" points="1456.5,-56.5 1456.5,-75.5 1577.5,-75.5 1577.5,-56.5 1456.5,-56.5"/>
<text text-anchor="middle" x="1517" y="-63.5" font-family="FreeSans.ttf" font-size="10.00" fill="#000000">iDynTree/Core/Span.h</text>
</a>
</g>
</g>
<!-- Node6&#45;&gt;Node10 -->
<g id="edge12" class="edge">
<title>Node6&#45;&gt;Node10</title>
<path fill="none" stroke="#191970" d="M1372.9117,-112.3733C1401.8452,-103.0613 1445.8611,-88.8953 1477.6293,-78.671"/>
<polygon fill="#191970" stroke="#191970" points="1479.0318,-81.8965 1487.4787,-75.5011 1476.8872,-75.2331 1479.0318,-81.8965"/>
</g>
<!-- Node11 -->
<g id="node14" class="node">
<title>Node11</title>
<polygon fill="none" stroke="#bfbfbf" points="1348,-.5 1348,-19.5 1400,-19.5 1400,-.5 1348,-.5"/>
<text text-anchor="middle" x="1374" y="-7.5" font-family="FreeSans.ttf" font-size="10.00" fill="#000000">cassert</text>
</g>
<!-- Node6&#45;&gt;Node11 -->
<g id="edge18" class="edge">
<title>Node6&#45;&gt;Node11</title>
<path fill="none" stroke="#191970" d="M1345.643,-112.4509C1350.722,-94.1013 1361.9347,-53.5908 1368.6388,-29.3693"/>
<polygon fill="#191970" stroke="#191970" points="1372.0692,-30.0962 1371.3636,-19.5249 1365.3228,-28.2289 1372.0692,-30.0962"/>
</g>
<!-- Node20 -->
<g id="node16" class="node">
<title>Node20</title>
<polygon fill="none" stroke="#bfbfbf" points="1206,-56.5 1206,-75.5 1262,-75.5 1262,-56.5 1206,-56.5"/>
<text text-anchor="middle" x="1234" y="-63.5" font-family="FreeSans.ttf" font-size="10.00" fill="#000000">sstream</text>
</g>
<!-- Node6&#45;&gt;Node20 -->
<g id="edge17" class="edge">
<title>Node6&#45;&gt;Node20</title>
<path fill="none" stroke="#191970" d="M1324.0136,-112.2455C1306.8208,-103.4125 1281.2762,-90.2887 1261.7868,-80.2758"/>
<polygon fill="#191970" stroke="#191970" points="1263.263,-77.0993 1252.7688,-75.6427 1260.0641,-83.3257 1263.263,-77.0993"/>
</g>
<!-- Node21 -->
<g id="node17" class="node">
<title>Node21</title>
<polygon fill="none" stroke="#bfbfbf" points="1104,-56.5 1104,-75.5 1154,-75.5 1154,-56.5 1104,-56.5"/>
<text text-anchor="middle" x="1129" y="-63.5" font-family="FreeSans.ttf" font-size="10.00" fill="#000000">cstring</text>
</g>
<!-- Node6&#45;&gt;Node21 -->
<g id="edge19" class="edge">
<title>Node6&#45;&gt;Node21</title>
<path fill="none" stroke="#191970" d="M1306.2121,-112.3733C1266.3908,-101.9527 1203.3406,-85.4536 1164.1646,-75.2019"/>
<polygon fill="#191970" stroke="#191970" points="1164.828,-71.7578 1154.2676,-72.6121 1163.0558,-78.5297 1164.828,-71.7578"/>
</g>
<!-- Node8 -->
<g id="node11" class="node">
<title>Node8</title>
<polygon fill="none" stroke="#bfbfbf" points="1490.5,-.5 1490.5,-19.5 1543.5,-19.5 1543.5,-.5 1490.5,-.5"/>
<text text-anchor="middle" x="1517" y="-7.5" font-family="FreeSans.ttf" font-size="10.00" fill="#000000">cstddef</text>
</g>
<!-- Node7&#45;&gt;Node8 -->
<g id="edge10" class="edge">
<title>Node7&#45;&gt;Node8</title>
<path fill="none" stroke="#191970" d="M1634.5893,-56.3733C1611.3858,-47.2226 1576.2962,-33.3844 1550.4858,-23.2057"/>
<polygon fill="#191970" stroke="#191970" points="1551.6789,-19.9139 1541.0921,-19.5011 1549.1108,-26.4258 1551.6789,-19.9139"/>
</g>
<!-- Node9 -->
<g id="node12" class="node">
<title>Node9</title>
<polygon fill="none" stroke="#bfbfbf" points="1633,-.5 1633,-19.5 1713,-19.5 1713,-.5 1633,-.5"/>
<text text-anchor="middle" x="1673" y="-7.5" font-family="FreeSans.ttf" font-size="10.00" fill="#000000">CoreExport.h</text>
</g>
<!-- Node7&#45;&gt;Node9 -->
<g id="edge11" class="edge">
<title>Node7&#45;&gt;Node9</title>
<path fill="none" stroke="#191970" d="M1661.4386,-56.2455C1663.2855,-48.8579 1665.8828,-38.4689 1668.1478,-29.4087"/>
<polygon fill="#191970" stroke="#191970" points="1671.5594,-30.193 1670.5893,-19.6427 1664.7684,-28.4952 1671.5594,-30.193"/>
</g>
<!-- Node10&#45;&gt;Node8 -->
<g id="edge14" class="edge">
<title>Node10&#45;&gt;Node8</title>
<path fill="none" stroke="#191970" d="M1517,-56.2455C1517,-48.9382 1517,-38.6944 1517,-29.7046"/>
<polygon fill="#191970" stroke="#191970" points="1520.5001,-29.6426 1517,-19.6427 1513.5001,-29.6427 1520.5001,-29.6426"/>
</g>
<!-- Node10&#45;&gt;Node11 -->
<g id="edge13" class="edge">
<title>Node10&#45;&gt;Node11</title>
<path fill="none" stroke="#191970" d="M1492.4174,-56.3733C1469.0504,-47.2226 1433.7138,-33.3844 1407.7216,-23.2057"/>
<polygon fill="#191970" stroke="#191970" points="1408.8495,-19.8886 1398.2618,-19.5011 1406.297,-26.4066 1408.8495,-19.8886"/>
</g>
<!-- Node14 -->
<g id="node15" class="node">
<title>Node14</title>
<polygon fill="none" stroke="#bfbfbf" points="1561.5,-.5 1561.5,-19.5 1614.5,-19.5 1614.5,-.5 1561.5,-.5"/>
<text text-anchor="middle" x="1588" y="-7.5" font-family="FreeSans.ttf" font-size="10.00" fill="#000000">iterator</text>
</g>
<!-- Node10&#45;&gt;Node14 -->
<g id="edge15" class="edge">
<title>Node10&#45;&gt;Node14</title>
<path fill="none" stroke="#191970" d="M1529.3673,-56.2455C1539.9554,-47.8943 1555.4064,-35.7076 1567.7893,-25.9408"/>
<polygon fill="#191970" stroke="#191970" points="1570.0903,-28.5837 1575.7745,-19.6427 1565.7553,-23.0875 1570.0903,-28.5837"/>
</g>
<!-- Node25&#45;&gt;Node19 -->
<g id="edge31" class="edge">
<title>Node25&#45;&gt;Node19</title>
<path fill="none" stroke="#191970" d="M1063.7018,-168.4819C1046.5724,-154.4528 1012.5675,-128.1449 980,-112 944.0697,-94.1881 899.6887,-81.1013 870.204,-73.5359"/>
<polygon fill="#191970" stroke="#191970" points="870.985,-70.1234 860.4345,-71.0915 869.2859,-76.9141 870.985,-70.1234"/>
</g>
<!-- Node25&#45;&gt;Node7 -->
<g id="edge24" class="edge">
<title>Node25&#45;&gt;Node7</title>
<path fill="none" stroke="#191970" d="M1155.6389,-174.2977C1293.463,-167.4776 1563.2881,-151.7985 1602,-132 1622.5393,-121.4955 1638.822,-100.1133 1648.6386,-84.5242"/>
<polygon fill="#191970" stroke="#191970" points="1651.7764,-86.0961 1653.8955,-75.7153 1645.7654,-82.5089 1651.7764,-86.0961"/>
</g>
<!-- Node25&#45;&gt;Node11 -->
<g id="edge29" class="edge">
<title>Node25&#45;&gt;Node11</title>
<path fill="none" stroke="#191970" d="M1073.257,-168.4411C1069.673,-145.4762 1064.2051,-86.8231 1095,-56 1128.4291,-22.5403 1269.6038,-13.3892 1337.3842,-10.9094"/>
<polygon fill="#191970" stroke="#191970" points="1337.7278,-14.3999 1347.6046,-10.5659 1337.4927,-7.4038 1337.7278,-14.3999"/>
</g>
<!-- Node25&#45;&gt;Node20 -->
<g id="edge33" class="edge">
<title>Node25&#45;&gt;Node20</title>
<path fill="none" stroke="#191970" d="M1082.1016,-168.4095C1092.769,-154.5245 1114.1298,-128.6654 1137,-112 1155.471,-98.5403 1178.5027,-87.4206 1197.488,-79.4875"/>
<polygon fill="#191970" stroke="#191970" points="1199.0471,-82.6322 1207.0016,-75.6339 1196.419,-76.1443 1199.0471,-82.6322"/>
</g>
<!-- Node25&#45;&gt;Node21 -->
<g id="edge30" class="edge">
<title>Node25&#45;&gt;Node21</title>
<path fill="none" stroke="#191970" d="M1078.8848,-168.4866C1084.2315,-155.5564 1094.3017,-131.7777 1104,-112 1108.4871,-102.8495 1113.8394,-92.8903 1118.4383,-84.5861"/>
<polygon fill="#191970" stroke="#191970" points="1121.5572,-86.1801 1123.3939,-75.7457 1115.4511,-82.7572 1121.5572,-86.1801"/>
</g>
<!-- Node26 -->
<g id="node19" class="node">
<title>Node26</title>
<g id="a_node19"><a xlink:href="MatrixView_8h.html" target="_top" xlink:title="iDynTree/Core/MatrixView.h">
<polygon fill="none" stroke="#ff0000" points="1441.5,-112.5 1441.5,-131.5 1592.5,-131.5 1592.5,-112.5 1441.5,-112.5"/>
<text text-anchor="middle" x="1517" y="-119.5" font-family="FreeSans.ttf" font-size="10.00" fill="#000000">iDynTree/Core/MatrixView.h</text>
</a>
</g>
</g>
<!-- Node25&#45;&gt;Node26 -->
<g id="edge25" class="edge">
<title>Node25&#45;&gt;Node26</title>
<path fill="none" stroke="#191970" d="M1150.2296,-168.4686C1228.2164,-158.588 1349.9183,-143.1687 1431.5009,-132.8325"/>
<polygon fill="#191970" stroke="#191970" points="1432.2612,-136.2642 1441.742,-131.535 1431.3813,-129.3197 1432.2612,-136.2642"/>
</g>
<!-- Node27 -->
<g id="node20" class="node">
<title>Node27</title>
<polygon fill="none" stroke="#bfbfbf" points="1146,-112.5 1146,-131.5 1206,-131.5 1206,-112.5 1146,-112.5"/>
<text text-anchor="middle" x="1176" y="-119.5" font-family="FreeSans.ttf" font-size="10.00" fill="#000000">iostream</text>
</g>
<!-- Node25&#45;&gt;Node27 -->
<g id="edge32" class="edge">
<title>Node25&#45;&gt;Node27</title>
<path fill="none" stroke="#191970" d="M1092.5929,-168.2455C1108.379,-159.4928 1131.7639,-146.527 1149.7587,-136.5496"/>
<polygon fill="#191970" stroke="#191970" points="1151.5603,-139.5528 1158.6087,-131.6427 1148.1659,-133.4308 1151.5603,-139.5528"/>
</g>
<!-- Node26&#45;&gt;Node7 -->
<g id="edge28" class="edge">
<title>Node26&#45;&gt;Node7</title>
<path fill="none" stroke="#191970" d="M1541.4107,-112.3733C1564.6142,-103.2226 1599.7038,-89.3844 1625.5142,-79.2057"/>
<polygon fill="#191970" stroke="#191970" points="1626.8892,-82.4258 1634.9079,-75.5011 1624.3211,-75.9139 1626.8892,-82.4258"/>
</g>
<!-- Node26&#45;&gt;Node10 -->
<g id="edge27" class="edge">
<title>Node26&#45;&gt;Node10</title>
<path fill="none" stroke="#191970" d="M1517,-112.2455C1517,-104.9382 1517,-94.6944 1517,-85.7046"/>
<polygon fill="#191970" stroke="#191970" points="1520.5001,-85.6426 1517,-75.6427 1513.5001,-85.6427 1520.5001,-85.6426"/>
</g>
<!-- Node26&#45;&gt;Node11 -->
<g id="edge26" class="edge">
<title>Node26&#45;&gt;Node11</title>
<path fill="none" stroke="#191970" d="M1501.2209,-112.3702C1486.9471,-103.4532 1465.5404,-89.5616 1448,-76 1427.776,-60.3636 1406.1147,-40.6595 1391.4888,-26.8683"/>
<polygon fill="#191970" stroke="#191970" points="1393.7986,-24.2349 1384.1409,-19.8783 1388.9738,-29.3066 1393.7986,-24.2349"/>
</g>
<!-- Node28&#45;&gt;Node29 -->
<g id="edge36" class="edge">
<title>Node28&#45;&gt;Node29</title>
<path fill="none" stroke="#191970" d="M1476.1612,-470.5254C1542.5634,-460.2389 1649.1832,-443.7222 1724.4501,-432.0625"/>
<polygon fill="#191970" stroke="#191970" points="1725.0457,-435.5121 1734.392,-430.5224 1723.9741,-428.5946 1725.0457,-435.5121"/>
</g>
<!-- Node29&#45;&gt;Node23 -->
<g id="edge38" class="edge">
<title>Node29&#45;&gt;Node23</title>
<path fill="none" stroke="#191970" d="M1818.3806,-403.4556C1836.1434,-361.5736 1886.1508,-243.6641 1905.8647,-197.1818"/>
<polygon fill="#191970" stroke="#191970" points="1909.2082,-198.2623 1909.8905,-187.6895 1902.7638,-195.5291 1909.2082,-198.2623"/>
</g>
<!-- Node29&#45;&gt;Node6 -->
<g id="edge37" class="edge">
<title>Node29&#45;&gt;Node6</title>
<path fill="none" stroke="#191970" d="M1793.5523,-403.3857C1742.2128,-361.8245 1592.3384,-243.8811 1454,-168 1430.3681,-155.0375 1402.3142,-143.4415 1380.3223,-135.1348"/>
<polygon fill="#191970" stroke="#191970" points="1381.2752,-131.7552 1370.6822,-131.5566 1378.8392,-138.3177 1381.2752,-131.7552"/>
</g>
<!-- Node30 -->
<g id="node23" class="node">
<title>Node30</title>
<g id="a_node23"><a xlink:href="SpatialVector_8h.html" target="_top" xlink:title="iDynTree/Core/SpatialVector.h">
<polygon fill="none" stroke="#000000" points="1174.5,-347.5 1174.5,-366.5 1335.5,-366.5 1335.5,-347.5 1174.5,-347.5"/>
<text text-anchor="middle" x="1255" y="-354.5" font-family="FreeSans.ttf" font-size="10.00" fill="#000000">iDynTree/Core/SpatialVector.h</text>
</a>
</g>
</g>
<!-- Node29&#45;&gt;Node30 -->
<g id="edge39" class="edge">
<title>Node29&#45;&gt;Node30</title>
<path fill="none" stroke="#191970" d="M1734.3429,-408.659C1718.6752,-406.7331 1702.3153,-404.7648 1687,-403 1569.3385,-389.4416 1433.4776,-375.2085 1346.0171,-366.23"/>
<polygon fill="#191970" stroke="#191970" points="1346.165,-362.7269 1335.8601,-365.1886 1345.4509,-369.6904 1346.165,-362.7269"/>
</g>
<!-- Node30&#45;&gt;Node4 -->
<g id="edge40" class="edge">
<title>Node30&#45;&gt;Node4</title>
<path fill="none" stroke="#191970" d="M1207.0137,-347.4369C1158.5186,-337.7724 1083.5527,-322.8326 1031.8121,-312.5213"/>
<polygon fill="#191970" stroke="#191970" points="1032.2797,-309.0457 1021.7884,-310.5237 1030.9115,-315.9107 1032.2797,-309.0457"/>
</g>
<!-- Node30&#45;&gt;Node22 -->
<g id="edge41" class="edge">
<title>Node30&#45;&gt;Node22</title>
<path fill="none" stroke="#191970" d="M1235.0325,-347.3845C1191.9414,-326.6336 1090.0792,-277.5812 1039.9246,-253.4289"/>
<polygon fill="#191970" stroke="#191970" points="1041.4296,-250.2689 1030.9012,-249.0836 1038.3924,-256.5758 1041.4296,-250.2689"/>
</g>
<!-- Node30&#45;&gt;Node23 -->
<g id="edge43" class="edge">
<title>Node30&#45;&gt;Node23</title>
<path fill="none" stroke="#191970" d="M1283.1233,-347.4633C1352.1744,-324.2627 1535.8207,-263.8589 1692,-224 1745.3618,-210.3814 1806.7096,-197.9082 1851.3735,-189.3965"/>
<polygon fill="#191970" stroke="#191970" points="1852.0358,-192.8334 1861.2103,-187.5345 1850.7338,-185.9556 1852.0358,-192.8334"/>
</g>
<!-- Node30&#45;&gt;Node7 -->
<g id="edge42" class="edge">
<title>Node30&#45;&gt;Node7</title>
<path fill="none" stroke="#191970" d="M1295.4803,-347.4867C1367.1171,-328.72 1517.0362,-280.4932 1606,-188 1634.295,-158.5824 1648.7833,-111.6298 1655.042,-85.3788"/>
<polygon fill="#191970" stroke="#191970" points="1658.483,-86.0285 1657.2367,-75.5072 1651.6498,-84.5093 1658.483,-86.0285"/>
</g>
<!-- Node30&#45;&gt;Node20 -->
<g id="edge45" class="edge">
<title>Node30&#45;&gt;Node20</title>
<path fill="none" stroke="#191970" d="M1254.3013,-347.3179C1251.3118,-305.8919 1239.5627,-143.0833 1235.4396,-85.9482"/>
<polygon fill="#191970" stroke="#191970" points="1238.9121,-85.4406 1234.7013,-75.7185 1231.9303,-85.9445 1238.9121,-85.4406"/>
</g>
<!-- Node30&#45;&gt;Node27 -->
<g id="edge44" class="edge">
<title>Node30&#45;&gt;Node27</title>
<path fill="none" stroke="#191970" d="M1251.8053,-347.4967C1239.9951,-312.3651 1198.6553,-189.3922 1182.5203,-141.3958"/>
<polygon fill="#191970" stroke="#191970" points="1185.7386,-139.985 1179.2345,-131.6216 1179.1035,-142.2156 1185.7386,-139.985"/>
</g>
<!-- Node31&#45;&gt;Node29 -->
<g id="edge47" class="edge">
<title>Node31&#45;&gt;Node29</title>
<path fill="none" stroke="#191970" d="M1854.1875,-470.3906C1847.9219,-462.6839 1838.8645,-451.5434 1830.7471,-441.5589"/>
<polygon fill="#191970" stroke="#191970" points="1833.2554,-439.0959 1824.2314,-433.5446 1827.824,-443.5117 1833.2554,-439.0959"/>
</g>
<!-- Node33 -->
<g id="node26" class="node">
<title>Node33</title>
<g id="a_node26"><a xlink:href="SpatialForceVector_8h.html" target="_top" xlink:title="iDynTree/Core/SpatialForce\lVector.h">
<polygon fill="none" stroke="#000000" points="1136,-403.5 1136,-433.5 1284,-433.5 1284,-403.5 1136,-403.5"/>
<text text-anchor="start" x="1144" y="-421.5" font-family="FreeSans.ttf" font-size="10.00" fill="#000000">iDynTree/Core/SpatialForce</text>
<text text-anchor="middle" x="1210" y="-410.5" font-family="FreeSans.ttf" font-size="10.00" fill="#000000">Vector.h</text>
</a>
</g>
</g>
<!-- Node32&#45;&gt;Node33 -->
<g id="edge49" class="edge">
<title>Node32&#45;&gt;Node33</title>
<path fill="none" stroke="#191970" d="M1195.6563,-470.3906C1197.6587,-463.1463 1200.4999,-452.8679 1203.126,-443.3676"/>
<polygon fill="#191970" stroke="#191970" points="1206.5504,-444.1157 1205.8413,-433.5446 1199.8035,-442.2506 1206.5504,-444.1157"/>
</g>
<!-- Node33&#45;&gt;Node23 -->
<g id="edge51" class="edge">
<title>Node33&#45;&gt;Node23</title>
<path fill="none" stroke="#191970" d="M1264.6875,-403.4629C1335.2581,-383.7429 1461.6131,-347.3625 1568,-311 1684.5224,-271.1732 1820.1598,-216.5786 1881.2379,-191.5433"/>
<polygon fill="#191970" stroke="#191970" points="1882.809,-194.6818 1890.7292,-187.6446 1880.1492,-188.2067 1882.809,-194.6818"/>
</g>
<!-- Node33&#45;&gt;Node6 -->
<g id="edge50" class="edge">
<title>Node33&#45;&gt;Node6</title>
<path fill="none" stroke="#191970" d="M1268.0936,-403.4436C1300.2788,-393.8002 1335.6439,-380.5829 1345,-367 1393.5948,-296.4513 1364.493,-185.2748 1349.8671,-141.0562"/>
<polygon fill="#191970" stroke="#191970" points="1353.1579,-139.8626 1346.5961,-131.5443 1346.5383,-142.139 1353.1579,-139.8626"/>
</g>
<!-- Node33&#45;&gt;Node30 -->
<g id="edge52" class="edge">
<title>Node33&#45;&gt;Node30</title>
<path fill="none" stroke="#191970" d="M1221.1236,-403.2977C1227.3701,-394.7609 1235.204,-384.0545 1241.7647,-375.0883"/>
<polygon fill="#191970" stroke="#191970" points="1244.7144,-376.984 1247.7949,-366.8469 1239.0652,-372.8505 1244.7144,-376.984"/>
</g>
<!-- Node34&#45;&gt;Node19 -->
<g id="edge55" class="edge">
<title>Node34&#45;&gt;Node19</title>
<path fill="none" stroke="#191970" d="M747.6124,-224.4065C765.681,-192.7408 807.5064,-119.4408 827.2773,-84.7918"/>
<polygon fill="#191970" stroke="#191970" points="830.5273,-86.1581 832.4434,-75.738 824.4475,-82.6889 830.5273,-86.1581"/>
</g>
<!-- Node34&#45;&gt;Node25 -->
<g id="edge54" class="edge">
<title>Node34&#45;&gt;Node25</title>
<path fill="none" stroke="#191970" d="M809.8464,-226.5326C869.9662,-215.5285 955.3765,-199.8954 1012.8688,-189.3722"/>
<polygon fill="#191970" stroke="#191970" points="1013.7047,-192.7775 1022.9111,-187.5341 1012.4443,-185.8919 1013.7047,-192.7775"/>
</g>
<!-- Node35&#45;&gt;Node19 -->
<g id="edge57" class="edge">
<title>Node35&#45;&gt;Node19</title>
<path fill="none" stroke="#191970" d="M603.7219,-526.252C603.1724,-506.1209 602,-458.4884 602,-418.5 602,-418.5 602,-418.5 602,-178 602,-140.9295 621.9576,-132.263 653,-112 678.0044,-95.6783 759.6729,-79.5116 805.7019,-71.3904"/>
<polygon fill="#191970" stroke="#191970" points="806.5121,-74.8022 815.7658,-69.6428 805.3144,-67.9054 806.5121,-74.8022"/>
</g>
<!-- Node36 -->
<g id="node29" class="node">
<title>Node36</title>
<polygon fill="none" stroke="#bfbfbf" points="630,-470.5 630,-489.5 716,-489.5 716,-470.5 630,-470.5"/>
<text text-anchor="middle" x="673" y="-477.5" font-family="FreeSans.ttf" font-size="10.00" fill="#000000">ModelExport.h</text>
</g>
<!-- Node35&#45;&gt;Node36 -->
<g id="edge58" class="edge">
<title>Node35&#45;&gt;Node36</title>
<path fill="none" stroke="#191970" d="M616.0189,-526.2455C626.2098,-517.9746 641.0362,-505.9416 653.0107,-496.2232"/>
<polygon fill="#191970" stroke="#191970" points="655.5598,-498.662 661.1188,-489.6427 651.1486,-493.2268 655.5598,-498.662"/>
</g>
<!-- Node38&#45;&gt;Node23 -->
<g id="edge63" class="edge">
<title>Node38&#45;&gt;Node23</title>
<path fill="none" stroke="#191970" d="M1989.3796,-761.3971C1990.629,-734.8667 1995.9071,-678.8378 2018,-638 2028.7667,-618.0983 2042.0526,-621.2162 2054,-602 2086.2342,-550.1544 2096.6736,-530.8701 2092,-470 2083.5307,-359.6946 2125.5486,-308.379 2054,-224 2042.6677,-210.6356 2003.3803,-198.4031 1969.2982,-189.9175"/>
<polygon fill="#191970" stroke="#191970" points="1969.9323,-186.4699 1959.3893,-187.5166 1968.2839,-193.2731 1969.9323,-186.4699"/>
</g>
<!-- Node38&#45;&gt;Node39 -->
<g id="edge64" class="edge">
<title>Node38&#45;&gt;Node39</title>
<path fill="none" stroke="#191970" d="M1901.4976,-769.3248C1756.594,-757.4427 1468.5601,-733.8239 1324.7918,-722.0349"/>
<polygon fill="#191970" stroke="#191970" points="1324.9464,-718.5359 1314.6938,-721.2069 1324.3742,-725.5125 1324.9464,-718.5359"/>
</g>
<!-- Node39&#45;&gt;Node19 -->
<g id="edge66" class="edge">
<title>Node39&#45;&gt;Node19</title>
<path fill="none" stroke="#191970" d="M1163.2915,-714.1571C1016.3662,-711.7862 682.526,-702.8067 404,-669 222.544,-646.9754 0,-774.7877 0,-592 0,-592 0,-592 0,-178 0,-95.2214 650.711,-71.3625 805.3263,-66.8617"/>
<polygon fill="#191970" stroke="#191970" points="805.6889,-70.3529 815.5855,-66.5706 805.4902,-63.3558 805.6889,-70.3529"/>
</g>
<!-- Node39&#45;&gt;Node23 -->
<g id="edge65" class="edge">
<title>Node39&#45;&gt;Node23</title>
<path fill="none" stroke="#191970" d="M1314.536,-712.3088C1500.2265,-703.6466 1964,-668.7268 1964,-536 1964,-536 1964,-536 1964,-301 1964,-261.2909 1941.3594,-219.3275 1926.5485,-196.1244"/>
<polygon fill="#191970" stroke="#191970" points="1929.386,-194.0699 1920.9523,-187.6572 1923.5462,-197.9296 1929.386,-194.0699"/>
</g>
<!-- Node39&#45;&gt;Node14 -->
<g id="edge68" class="edge">
<title>Node39&#45;&gt;Node14</title>
<path fill="none" stroke="#191970" d="M1314.672,-713.7169C1531.2313,-709.7238 2140.0669,-696.1279 2173,-669 2200.2069,-646.5889 2192,-627.2487 2192,-592 2192,-592 2192,-592 2192,-122 2192,3.2356 1769.5494,-46.0592 1624.6121,-19.735"/>
<polygon fill="#191970" stroke="#191970" points="1625.1637,-16.2755 1614.6659,-17.7055 1623.7642,-23.1342 1625.1637,-16.2755"/>
</g>
<!-- Node39&#45;&gt;Node35 -->
<g id="edge92" class="edge">
<title>Node39&#45;&gt;Node35</title>
<path fill="none" stroke="#191970" d="M1163.2255,-708.3123C990.1104,-692.2694 577.3762,-649.3953 537,-602 520.7572,-582.9335 548.0386,-563.0185 572.5148,-550.1181"/>
<polygon fill="#191970" stroke="#191970" points="574.2899,-553.1435 581.6616,-545.5338 571.1533,-546.8855 574.2899,-553.1435"/>
</g>
<!-- Node39&#45;&gt;Node37 -->
<g id="edge67" class="edge">
<title>Node39&#45;&gt;Node37</title>
<path fill="none" stroke="#191970" d="M1218.5048,-705.3521C1199.1896,-696.1946 1169.4879,-681.9447 1144,-669 1061.7455,-627.225 965.7504,-575.2308 920.3554,-550.4454"/>
<polygon fill="#191970" stroke="#191970" points="921.9132,-547.3082 911.4598,-545.5829 918.5557,-553.4505 921.9132,-547.3082"/>
</g>
<!-- Node40 -->
<g id="node33" class="node">
<title>Node40</title>
<g id="a_node33"><a xlink:href="VectorDynSize_8h.html" target="_top" xlink:title="iDynTree/Core/VectorDynSize.h">
<polygon fill="none" stroke="#000000" points="1339.5,-409 1339.5,-428 1506.5,-428 1506.5,-409 1339.5,-409"/>
<text text-anchor="middle" x="1423" y="-416" font-family="FreeSans.ttf" font-size="10.00" fill="#000000">iDynTree/Core/VectorDynSize.h</text>
</a>
</g>
</g>
<!-- Node39&#45;&gt;Node40 -->
<g id="edge69" class="edge">
<title>Node39&#45;&gt;Node40</title>
<path fill="none" stroke="#191970" d="M1314.7506,-708.2486C1364.6765,-702.0348 1430.7874,-690.3955 1486,-669 1538.6701,-648.5897 1566.5348,-651.3597 1594,-602 1635.1162,-528.1071 1515.4611,-460.7313 1455.2833,-432.5035"/>
<polygon fill="#191970" stroke="#191970" points="1456.3721,-429.1521 1445.8239,-428.1588 1453.4504,-435.5132 1456.3721,-429.1521"/>
</g>
<!-- Node39&#45;&gt;Node41 -->
<g id="edge72" class="edge">
<title>Node39&#45;&gt;Node41</title>
<path fill="none" stroke="#191970" d="M1163.4493,-708.8783C1018.5363,-697.1363 702.9825,-671.5678 556.9661,-659.7364"/>
<polygon fill="#191970" stroke="#191970" points="557.0007,-656.2278 546.7506,-658.9086 556.4353,-663.2049 557.0007,-656.2278"/>
</g>
<!-- Node40&#45;&gt;Node19 -->
<g id="edge71" class="edge">
<title>Node40&#45;&gt;Node19</title>
<path fill="none" stroke="#191970" d="M1356.5465,-408.9826C1222.5554,-389.2156 929.8851,-342.9026 897,-311 833.4682,-249.3662 833.5051,-132.1285 836.3142,-85.6706"/>
<polygon fill="#191970" stroke="#191970" points="839.8053,-85.9186 837.0315,-75.6933 832.8233,-85.4166 839.8053,-85.9186"/>
</g>
<!-- Node40&#45;&gt;Node10 -->
<g id="edge70" class="edge">
<title>Node40&#45;&gt;Node10</title>
<path fill="none" stroke="#191970" d="M1432.1875,-408.6211C1463.6565,-374.0186 1567.0853,-253.7766 1602,-132 1604.4498,-123.4554 1606.5501,-119.636 1602,-112 1593.109,-97.0789 1577.5103,-86.7035 1562.0823,-79.6373"/>
<polygon fill="#191970" stroke="#191970" points="1563.1358,-76.2841 1552.5598,-75.6541 1560.4346,-82.742 1563.1358,-76.2841"/>
</g>
<!-- Node41&#45;&gt;Node3 -->
<g id="edge82" class="edge">
<title>Node41&#45;&gt;Node3</title>
<path fill="none" stroke="#191970" d="M413.278,-647.8271C355.9984,-640.1352 286.7882,-622.368 315,-582 377.7196,-492.255 706.1346,-444.7675 862.7515,-426.9297"/>
<polygon fill="#191970" stroke="#191970" points="863.2686,-430.3937 872.8145,-425.7975 862.4859,-423.4376 863.2686,-430.3937"/>
</g>
<!-- Node41&#45;&gt;Node35 -->
<g id="edge83" class="edge">
<title>Node41&#45;&gt;Node35</title>
<path fill="none" stroke="#191970" d="M480.8073,-643.9678C482.5464,-629.0199 487.9019,-599.925 504,-582 517.8092,-566.6237 537.7976,-556.0294 556.28,-548.921"/>
<polygon fill="#191970" stroke="#191970" points="557.5381,-552.1881 565.767,-545.5146 555.1725,-545.5999 557.5381,-552.1881"/>
</g>
<!-- Node41&#45;&gt;Node37 -->
<g id="edge91" class="edge">
<title>Node41&#45;&gt;Node37</title>
<path fill="none" stroke="#191970" d="M529.6522,-643.991C570.5245,-635.3764 629.5696,-621.1073 679,-602 696.8016,-595.1188 699.202,-588.8903 717,-582 765.3724,-563.2732 824.0912,-549.714 860.2501,-542.3536"/>
<polygon fill="#191970" stroke="#191970" points="861.1445,-545.7442 870.267,-540.3561 859.7756,-538.8794 861.1445,-545.7442"/>
</g>
<!-- Node42 -->
<g id="node35" class="node">
<title>Node42</title>
<g id="a_node35"><a xlink:href="IJoint_8h.html" target="_top" xlink:title="iDynTree/Model/IJoint.h">
<polygon fill="none" stroke="#000000" points="324,-582.5 324,-601.5 452,-601.5 452,-582.5 324,-582.5"/>
<text text-anchor="middle" x="388" y="-589.5" font-family="FreeSans.ttf" font-size="10.00" fill="#000000">iDynTree/Model/IJoint.h</text>
</a>
</g>
</g>
<!-- Node41&#45;&gt;Node42 -->
<g id="edge73" class="edge">
<title>Node41&#45;&gt;Node42</title>
<path fill="none" stroke="#191970" d="M465.625,-643.8906C450.9069,-634.0519 427.8168,-618.6167 410.6411,-607.1351"/>
<polygon fill="#191970" stroke="#191970" points="412.5327,-604.1896 402.2741,-601.5419 408.6425,-610.0091 412.5327,-604.1896"/>
</g>
<!-- Node43 -->
<g id="node36" class="node">
<title>Node43</title>
<g id="a_node36"><a xlink:href="Link_8h.html" target="_top" xlink:title="iDynTree/Model/Link.h">
<polygon fill="none" stroke="#000000" points="546,-582.5 546,-601.5 670,-601.5 670,-582.5 546,-582.5"/>
<text text-anchor="middle" x="608" y="-589.5" font-family="FreeSans.ttf" font-size="10.00" fill="#000000">iDynTree/Model/Link.h</text>
</a>
</g>
</g>
<!-- Node41&#45;&gt;Node43 -->
<g id="edge75" class="edge">
<title>Node41&#45;&gt;Node43</title>
<path fill="none" stroke="#191970" d="M500,-643.8906C521.2289,-633.6908 554.9762,-617.4763 579.096,-605.8875"/>
<polygon fill="#191970" stroke="#191970" points="580.6426,-609.0275 588.1404,-601.5419 577.6111,-602.7179 580.6426,-609.0275"/>
</g>
<!-- Node48 -->
<g id="node38" class="node">
<title>Node48</title>
<g id="a_node38"><a xlink:href="SolidShapes_8h.html" target="_top" xlink:title="iDynTree/Model/SolidShapes.h">
<polygon fill="none" stroke="#000000" points="66.5,-582.5 66.5,-601.5 229.5,-601.5 229.5,-582.5 66.5,-582.5"/>
<text text-anchor="middle" x="148" y="-589.5" font-family="FreeSans.ttf" font-size="10.00" fill="#000000">iDynTree/Model/SolidShapes.h</text>
</a>
</g>
</g>
<!-- Node41&#45;&gt;Node48 -->
<g id="edge84" class="edge">
<title>Node41&#45;&gt;Node48</title>
<path fill="none" stroke="#191970" d="M428.4893,-643.9581C369.398,-633.012 272.5687,-615.0752 209.5555,-603.4026"/>
<polygon fill="#191970" stroke="#191970" points="209.8287,-599.8937 199.3584,-601.5137 208.5536,-606.7766 209.8287,-599.8937"/>
</g>
<!-- Node49 -->
<g id="node39" class="node">
<title>Node49</title>
<polygon fill="none" stroke="#bfbfbf" points="92.5,-526.5 92.5,-545.5 141.5,-545.5 141.5,-526.5 92.5,-526.5"/>
<text text-anchor="middle" x="117" y="-533.5" font-family="FreeSans.ttf" font-size="10.00" fill="#000000">cstdlib</text>
</g>
<!-- Node41&#45;&gt;Node49 -->
<g id="edge90" class="edge">
<title>Node41&#45;&gt;Node49</title>
<path fill="none" stroke="#191970" d="M413.4553,-650.1663C300.2721,-643.8093 80.2062,-628.2029 57,-602 41.2086,-584.1694 66.0513,-563.94 88.4014,-550.6307"/>
<polygon fill="#191970" stroke="#191970" points="90.4047,-553.5187 97.3846,-545.548 86.9576,-547.4263 90.4047,-553.5187"/>
</g>
<!-- Node42&#45;&gt;Node35 -->
<g id="edge74" class="edge">
<title>Node42&#45;&gt;Node35</title>
<path fill="none" stroke="#191970" d="M425.1317,-582.3733C461.8267,-572.8598 518.0639,-558.2797 557.6651,-548.0127"/>
<polygon fill="#191970" stroke="#191970" points="558.5512,-551.3988 567.3528,-545.5011 556.7944,-544.6228 558.5512,-551.3988"/>
</g>
<!-- Node43&#45;&gt;Node35 -->
<g id="edge81" class="edge">
<title>Node43&#45;&gt;Node35</title>
<path fill="none" stroke="#191970" d="M607.3033,-582.2455C606.7813,-574.9382 606.0496,-564.6944 605.4075,-555.7046"/>
<polygon fill="#191970" stroke="#191970" points="608.8924,-555.3679 604.6888,-545.6427 601.9102,-555.8667 608.8924,-555.3679"/>
</g>
<!-- Node44 -->
<g id="node37" class="node">
<title>Node44</title>
<g id="a_node37"><a xlink:href="SpatialInertia_8h.html" target="_top" xlink:title="iDynTree/Core/SpatialInertia.h">
<polygon fill="none" stroke="#ff0000" points="1164,-526.5 1164,-545.5 1326,-545.5 1326,-526.5 1164,-526.5"/>
<text text-anchor="middle" x="1245" y="-533.5" font-family="FreeSans.ttf" font-size="10.00" fill="#000000">iDynTree/Core/SpatialInertia.h</text>
</a>
</g>
</g>
<!-- Node43&#45;&gt;Node44 -->
<g id="edge76" class="edge">
<title>Node43&#45;&gt;Node44</title>
<path fill="none" stroke="#191970" d="M670.2483,-586.2395C685.5352,-584.8386 701.858,-583.3542 717,-582 869.9982,-568.3171 1047.9849,-552.9182 1153.3067,-543.8601"/>
<polygon fill="#191970" stroke="#191970" points="1153.9195,-547.3204 1163.5829,-542.9766 1153.3199,-540.3461 1153.9195,-547.3204"/>
</g>
<!-- Node44&#45;&gt;Node6 -->
<g id="edge77" class="edge">
<title>Node44&#45;&gt;Node6</title>
<path fill="none" stroke="#191970" d="M1250.1101,-526.4317C1262.4259,-503.7867 1295.3761,-445.6152 1331,-403 1373.5529,-352.096 1440,-367.3474 1440,-301 1440,-301 1440,-301 1440,-239.5 1440,-194.1921 1396.5778,-156.9133 1367.8382,-137.2017"/>
<polygon fill="#191970" stroke="#191970" points="1369.7267,-134.2544 1359.4547,-131.6588 1365.8661,-140.0936 1369.7267,-134.2544"/>
</g>
<!-- Node44&#45;&gt;Node28 -->
<g id="edge78" class="edge">
<title>Node44&#45;&gt;Node28</title>
<path fill="none" stroke="#191970" d="M1274.224,-526.3733C1302.4925,-517.0613 1345.4965,-502.8953 1376.5344,-492.671"/>
<polygon fill="#191970" stroke="#191970" points="1377.7544,-495.9542 1386.1573,-489.5011 1375.5643,-489.3056 1377.7544,-495.9542"/>
</g>
<!-- Node44&#45;&gt;Node31 -->
<g id="edge79" class="edge">
<title>Node44&#45;&gt;Node31</title>
<path fill="none" stroke="#191970" d="M1326.0494,-529.8797C1428.6105,-521.9415 1610.9698,-507.1832 1777.3722,-490.1396"/>
<polygon fill="#191970" stroke="#191970" points="1778.2132,-493.5716 1787.8023,-489.0661 1777.4965,-486.6084 1778.2132,-493.5716"/>
</g>
<!-- Node44&#45;&gt;Node32 -->
<g id="edge80" class="edge">
<title>Node44&#45;&gt;Node32</title>
<path fill="none" stroke="#191970" d="M1235.9423,-526.2455C1228.4858,-518.2155 1217.7366,-506.6394 1208.8583,-497.0781"/>
<polygon fill="#191970" stroke="#191970" points="1211.3232,-494.589 1201.9539,-489.6427 1206.1937,-499.3522 1211.3232,-494.589"/>
</g>
<!-- Node48&#45;&gt;Node3 -->
<g id="edge88" class="edge">
<title>Node48&#45;&gt;Node3</title>
<path fill="none" stroke="#191970" d="M157.9562,-582.2331C186.381,-554.4504 266.8384,-476.5533 282,-470 334.0437,-447.505 696.1312,-429.2481 862.6091,-421.9405"/>
<polygon fill="#191970" stroke="#191970" points="862.966,-425.4283 872.804,-421.4959 862.661,-418.435 862.966,-425.4283"/>
</g>
<!-- Node48&#45;&gt;Node19 -->
<g id="edge86" class="edge">
<title>Node48&#45;&gt;Node19</title>
<path fill="none" stroke="#191970" d="M152.5742,-582.3613C161.1973,-563.278 179,-519.1405 179,-480 179,-480 179,-480 179,-178 179,-113.7306 672.4476,-76.8251 805.3605,-68.05"/>
<polygon fill="#191970" stroke="#191970" points="805.945,-71.5195 815.6963,-67.3767 805.4899,-64.5343 805.945,-71.5195"/>
</g>
<!-- Node48&#45;&gt;Node35 -->
<g id="edge89" class="edge">
<title>Node48&#45;&gt;Node35</title>
<path fill="none" stroke="#191970" d="M225.6125,-582.4686C309.0428,-572.2228 440.9679,-556.0215 524.9502,-545.7079"/>
<polygon fill="#191970" stroke="#191970" points="525.449,-549.173 534.9478,-544.4801 524.5957,-542.2252 525.449,-549.173"/>
</g>
<!-- Node48&#45;&gt;Node37 -->
<g id="edge87" class="edge">
<title>Node48&#45;&gt;Node37</title>
<path fill="none" stroke="#191970" d="M229.6118,-585.8736C391.8606,-573.6941 748.8976,-546.8924 860.1899,-538.538"/>
<polygon fill="#191970" stroke="#191970" points="860.4683,-542.0271 870.1782,-537.7882 859.9443,-535.0467 860.4683,-542.0271"/>
</g>
<!-- Node48&#45;&gt;Node49 -->
<g id="edge85" class="edge">
<title>Node48&#45;&gt;Node49</title>
<path fill="none" stroke="#191970" d="M142.6002,-582.2455C138.3773,-574.617 132.3827,-563.7881 127.2559,-554.5267"/>
<polygon fill="#191970" stroke="#191970" points="130.2432,-552.6965 122.3379,-545.6427 124.119,-556.0867 130.2432,-552.6965"/>
</g>
<!-- Node50&#45;&gt;Node23 -->
<g id="edge94" class="edge">
<title>Node50&#45;&gt;Node23</title>
<path fill="none" stroke="#191970" d="M1296.5794,-769.3601C1494.3748,-749.0251 2002,-682.5604 2002,-536 2002,-536 2002,-536 2002,-301 2002,-255.5104 1961.6959,-215.2575 1935.6399,-193.9877"/>
<polygon fill="#191970" stroke="#191970" points="1937.7697,-191.2098 1927.75,-187.7664 1933.4354,-196.7066 1937.7697,-191.2098"/>
</g>
<!-- Node50&#45;&gt;Node37 -->
<g id="edge96" class="edge">
<title>Node50&#45;&gt;Node37</title>
<path fill="none" stroke="#191970" d="M1197.5169,-761.3723C1155.1517,-731.4463 1058.0005,-662.355 978,-602 955.8102,-585.2593 930.8114,-565.4987 913.8981,-551.9921"/>
<polygon fill="#191970" stroke="#191970" points="915.8424,-549.0652 905.8483,-545.5482 911.4678,-554.53 915.8424,-549.0652"/>
</g>
<!-- Node50&#45;&gt;Node39 -->
<g id="edge95" class="edge">
<title>Node50&#45;&gt;Node39</title>
<path fill="none" stroke="#191970" d="M1223.9438,-761.2977C1226.5754,-753.2055 1229.841,-743.1639 1232.6576,-734.5029"/>
<polygon fill="#191970" stroke="#191970" points="1236.0335,-735.4391 1235.7977,-724.8469 1229.3766,-733.2743 1236.0335,-735.4391"/>
</g>
<!-- Node51&#45;&gt;Node23 -->
<g id="edge98" class="edge">
<title>Node51&#45;&gt;Node23</title>
<path fill="none" stroke="#191970" d="M1595.7921,-768.8024C1683.1089,-759.9494 1813.5568,-744.1436 1860,-725 1941.6297,-691.3527 1974.7884,-680.0843 2016,-602 2067.0685,-505.2396 2040,-466.4101 2040,-357 2040,-357 2040,-357 2040,-301 2040,-265.154 2039.761,-250.8394 2016,-224 2002.2934,-208.5176 1982.3503,-197.9575 1963.7268,-190.9029"/>
<polygon fill="#191970" stroke="#191970" points="1964.7431,-187.5501 1954.1483,-187.5259 1962.4155,-194.1518 1964.7431,-187.5501"/>
</g>
<!-- Node51&#45;&gt;Node39 -->
<g id="edge99" class="edge">
<title>Node51&#45;&gt;Node39</title>
<path fill="none" stroke="#191970" d="M1445.2167,-761.4554C1397.768,-750.7664 1334.9561,-736.6165 1291.1739,-726.7535"/>
<polygon fill="#191970" stroke="#191970" points="1291.83,-723.3136 1281.3053,-724.5303 1290.2916,-730.1425 1291.83,-723.3136"/>
</g>
<!-- Node52&#45;&gt;Node2 -->
<g id="edge102" class="edge">
<title>Node52&#45;&gt;Node2</title>
<path fill="none" stroke="#191970" d="M1010.4517,-761.3337C1035.0411,-734.2134 1089.7259,-676.6362 1144,-638 1161.6561,-625.4312 1183.1935,-614.1134 1200.5421,-605.8492"/>
<polygon fill="#191970" stroke="#191970" points="1202.1116,-608.9792 1209.698,-601.5835 1199.1554,-602.6341 1202.1116,-608.9792"/>
</g>
<!-- Node52&#45;&gt;Node37 -->
<g id="edge103" class="edge">
<title>Node52&#45;&gt;Node37</title>
<path fill="none" stroke="#191970" d="M990.5569,-761.4556C972.5821,-719.4855 921.9095,-601.1673 902.0897,-554.8892"/>
<polygon fill="#191970" stroke="#191970" points="905.3041,-553.504 898.1497,-545.6895 898.8693,-556.2598 905.3041,-553.504"/>
</g>
<!-- Node52&#45;&gt;Node39 -->
<g id="edge101" class="edge">
<title>Node52&#45;&gt;Node39</title>
<path fill="none" stroke="#191970" d="M1056.1999,-761.4554C1097.8179,-750.8789 1152.7693,-736.914 1191.5195,-727.0663"/>
<polygon fill="#191970" stroke="#191970" points="1192.6687,-730.3856 1201.4986,-724.5303 1190.9446,-723.6012 1192.6687,-730.3856"/>
</g>
<!-- Node53&#45;&gt;Node35 -->
<g id="edge107" class="edge">
<title>Node53&#45;&gt;Node35</title>
<path fill="none" stroke="#191970" d="M766.3064,-582.3733C733.2913,-572.9404 682.8427,-558.5265 646.9614,-548.2747"/>
<polygon fill="#191970" stroke="#191970" points="647.8307,-544.8831 637.2539,-545.5011 645.9076,-551.6137 647.8307,-544.8831"/>
</g>
<!-- Node53&#45;&gt;Node37 -->
<g id="edge108" class="edge">
<title>Node53&#45;&gt;Node37</title>
<path fill="none" stroke="#191970" d="M816.3736,-582.2455C830.9308,-573.5731 852.431,-560.7645 869.1152,-550.825"/>
<polygon fill="#191970" stroke="#191970" points="871.0144,-553.7676 877.8141,-545.6427 867.4317,-547.7539 871.0144,-553.7676"/>
</g>
<!-- Node54&#45;&gt;Node35 -->
<g id="edge110" class="edge">
<title>Node54&#45;&gt;Node35</title>
<path fill="none" stroke="#191970" d="M344.997,-705.3792C326.211,-681.5947 283.1984,-619.2638 315,-582 328.5604,-566.1105 443.9776,-551.6514 524.7801,-543.343"/>
<polygon fill="#191970" stroke="#191970" points="525.3518,-546.803 534.9472,-542.3111 524.6449,-539.8388 525.3518,-546.803"/>
</g>
<!-- Node55&#45;&gt;Node2 -->
<g id="edge116" class="edge">
<title>Node55&#45;&gt;Node2</title>
<path fill="none" stroke="#191970" d="M1230.4944,-638.2977C1230.7518,-630.3834 1231.0698,-620.6043 1231.3471,-612.0759"/>
<polygon fill="#191970" stroke="#191970" points="1234.8528,-611.9554 1231.6798,-601.8469 1227.8565,-611.7279 1234.8528,-611.9554"/>
</g>
<!-- Node55&#45;&gt;Node3 -->
<g id="edge112" class="edge">
<title>Node55&#45;&gt;Node3</title>
<path fill="none" stroke="#191970" d="M1195.697,-638.444C1144.1923,-615.3868 1050.029,-571.3443 1023,-546 989.1947,-514.3018 964.9851,-464.5011 953.503,-437.477"/>
<polygon fill="#191970" stroke="#191970" points="956.6519,-435.9314 949.6107,-428.0149 950.1782,-438.5945 956.6519,-435.9314"/>
</g>
<!-- Node55&#45;&gt;Node28 -->
<g id="edge113" class="edge">
<title>Node55&#45;&gt;Node28</title>
<path fill="none" stroke="#191970" d="M1307.0656,-639.1352C1381.0707,-625.1616 1482.1086,-605.5337 1485,-602 1513.149,-567.5977 1465.8744,-520.4357 1436.2052,-496.0538"/>
<polygon fill="#191970" stroke="#191970" points="1438.025,-493.0285 1428.0232,-489.5335 1433.6624,-498.5029 1438.025,-493.0285"/>
</g>
<!-- Node55&#45;&gt;Node35 -->
<g id="edge115" class="edge">
<title>Node55&#45;&gt;Node35</title>
<path fill="none" stroke="#191970" d="M1161.0298,-638.445C1091.1207,-623.3839 979.765,-599.939 883,-582 812.8761,-568.9999 732.491,-555.9406 676.0739,-547.0759"/>
<polygon fill="#191970" stroke="#191970" points="676.5997,-543.6157 666.1784,-545.5254 675.5161,-550.5313 676.5997,-543.6157"/>
</g>
<!-- Node55&#45;&gt;Node37 -->
<g id="edge122" class="edge">
<title>Node55&#45;&gt;Node37</title>
<path fill="none" stroke="#191970" d="M1188.3205,-638.3642C1147.9141,-623.7465 1084.8535,-601.0802 1030,-582 994.9855,-569.8206 954.7501,-556.266 927.1797,-547.0454"/>
<polygon fill="#191970" stroke="#191970" points="928.2221,-543.7036 917.6284,-543.855 926.0043,-550.343 928.2221,-543.7036"/>
</g>
<!-- Node55&#45;&gt;Node40 -->
<g id="edge114" class="edge">
<title>Node55&#45;&gt;Node40</title>
<path fill="none" stroke="#191970" d="M1307.271,-639.5282C1387.4327,-624.9452 1501.4056,-603.9233 1503,-602 1522.2838,-578.7383 1568.9644,-617.1586 1485,-470 1476.4921,-455.0889 1461.899,-442.6415 1449.0073,-433.7212"/>
<polygon fill="#191970" stroke="#191970" points="1450.7341,-430.6685 1440.4498,-428.1222 1446.9015,-436.5261 1450.7341,-430.6685"/>
</g>
<!-- Node56 -->
<g id="node46" class="node">
<title>Node56</title>
<g id="a_node46"><a xlink:href="JointState_8h.html" target="_top" xlink:title="iDynTree/Model/JointState.h">
<polygon fill="none" stroke="#000000" points="1324.5,-582.5 1324.5,-601.5 1475.5,-601.5 1475.5,-582.5 1324.5,-582.5"/>
<text text-anchor="middle" x="1400" y="-589.5" font-family="FreeSans.ttf" font-size="10.00" fill="#000000">iDynTree/Model/JointState.h</text>
</a>
</g>
</g>
<!-- Node55&#45;&gt;Node56 -->
<g id="edge117" class="edge">
<title>Node55&#45;&gt;Node56</title>
<path fill="none" stroke="#191970" d="M1271.5867,-638.4554C1299.9516,-628.194 1337.1333,-614.7429 1364.1836,-604.9571"/>
<polygon fill="#191970" stroke="#191970" points="1365.4431,-608.2235 1373.656,-601.5303 1363.0618,-601.641 1365.4431,-608.2235"/>
</g>
<!-- Node56&#45;&gt;Node6 -->
<g id="edge118" class="edge">
<title>Node56&#45;&gt;Node6</title>
<path fill="none" stroke="#191970" d="M1332.7233,-582.4635C1254.1688,-571.0683 1133.8753,-552.7011 1126,-546 1105.9833,-528.9678 1111.2793,-515.9317 1107,-490 1080.9751,-332.2956 1257.4764,-185.0213 1320.9051,-137.74"/>
<polygon fill="#191970" stroke="#191970" points="1323.0844,-140.482 1329.0719,-131.7413 1318.9404,-134.8404 1323.0844,-140.482"/>
</g>
<!-- Node56&#45;&gt;Node33 -->
<g id="edge120" class="edge">
<title>Node56&#45;&gt;Node33</title>
<path fill="none" stroke="#191970" d="M1335.408,-582.4979C1267.985,-572.1645 1169.977,-555.8145 1155,-546 1123.4132,-525.301 1097.8262,-502.5352 1117,-470 1125.0711,-456.3045 1138.2389,-445.995 1152.1601,-438.3433"/>
<polygon fill="#191970" stroke="#191970" points="1154.0237,-441.3232 1161.3712,-433.69 1150.8673,-435.0752 1154.0237,-441.3232"/>
</g>
<!-- Node56&#45;&gt;Node37 -->
<g id="edge121" class="edge">
<title>Node56&#45;&gt;Node37</title>
<path fill="none" stroke="#191970" d="M1324.448,-582.9699C1321.596,-582.6404 1318.7724,-582.3161 1316,-582 1171.8286,-565.5611 999.7982,-547.1984 928.0443,-539.5953"/>
<polygon fill="#191970" stroke="#191970" points="928.1169,-536.0835 917.8039,-538.5111 927.3799,-543.0446 928.1169,-536.0835"/>
</g>
<!-- Node56&#45;&gt;Node40 -->
<g id="edge119" class="edge">
<title>Node56&#45;&gt;Node40</title>
<path fill="none" stroke="#191970" d="M1389.4532,-582.2889C1368.0247,-561.3374 1323.2033,-510.5105 1345,-470 1354.0624,-453.1569 1371.3147,-440.9063 1387.2942,-432.5897"/>
<polygon fill="#191970" stroke="#191970" points="1389.0072,-435.6491 1396.4841,-428.1427 1385.958,-429.3481 1389.0072,-435.6491"/>
</g>
<!-- Node57&#45;&gt;Node2 -->
<g id="edge128" class="edge">
<title>Node57&#45;&gt;Node2</title>
<path fill="none" stroke="#191970" d="M1374.5938,-643.8906C1345.8209,-633.42 1299.6304,-616.6111 1267.6534,-604.9745"/>
<polygon fill="#191970" stroke="#191970" points="1268.8149,-601.6726 1258.2208,-601.5419 1266.421,-608.2506 1268.8149,-601.6726"/>
</g>
<!-- Node57&#45;&gt;Node35 -->
<g id="edge127" class="edge">
<title>Node57&#45;&gt;Node35</title>
<path fill="none" stroke="#191970" d="M1350.2544,-643.9844C1338.9878,-641.9448 1327.0973,-639.8489 1316,-638 1086.8589,-599.8232 814.7643,-563.269 683.1417,-546.1386"/>
<polygon fill="#191970" stroke="#191970" points="683.5115,-542.6573 673.1438,-544.8396 682.6095,-549.5989 683.5115,-542.6573"/>
</g>
<!-- Node57&#45;&gt;Node56 -->
<g id="edge129" class="edge">
<title>Node57&#45;&gt;Node56</title>
<path fill="none" stroke="#191970" d="M1400.8438,-643.8906C1400.7051,-635.3657 1400.4982,-622.6392 1400.324,-611.9235"/>
<polygon fill="#191970" stroke="#191970" points="1403.8207,-611.6866 1400.1585,-601.7449 1396.8216,-611.8005 1403.8207,-611.6866"/>
</g>
<!-- Node58 -->
<g id="node48" class="node">
<title>Node58</title>
<g id="a_node48"><a xlink:href="MatrixDynSize_8h.html" target="_top" xlink:title="iDynTree/Core/MatrixDynSize.h">
<polygon fill="none" stroke="#000000" points="1505.5,-347.5 1505.5,-366.5 1672.5,-366.5 1672.5,-347.5 1505.5,-347.5"/>
<text text-anchor="middle" x="1589" y="-354.5" font-family="FreeSans.ttf" font-size="10.00" fill="#000000">iDynTree/Core/MatrixDynSize.h</text>
</a>
</g>
</g>
<!-- Node57&#45;&gt;Node58 -->
<g id="edge124" class="edge">
<title>Node57&#45;&gt;Node58</title>
<path fill="none" stroke="#191970" d="M1434.5246,-643.875C1456.7113,-635.9318 1484.9404,-622.5738 1503,-602 1533.8223,-566.8866 1571.1159,-428.0017 1584.1919,-376.4207"/>
<polygon fill="#191970" stroke="#191970" points="1587.6291,-377.1031 1586.667,-366.552 1580.8394,-375.4002 1587.6291,-377.1031"/>
</g>
<!-- Node58&#45;&gt;Node19 -->
<g id="edge125" class="edge">
<title>Node58&#45;&gt;Node19</title>
<path fill="none" stroke="#191970" d="M1552.4856,-347.4606C1425.4957,-314.1967 1009.4857,-204.4565 985,-188 949.5093,-164.1472 958.8112,-139.422 926,-112 909.147,-97.9151 887.2725,-86.4562 869.5489,-78.4981"/>
<polygon fill="#191970" stroke="#191970" points="870.755,-75.2064 860.1878,-74.4427 867.9724,-81.6295 870.755,-75.2064"/>
</g>
<!-- Node58&#45;&gt;Node26 -->
<g id="edge126" class="edge">
<title>Node58&#45;&gt;Node26</title>
<path fill="none" stroke="#191970" d="M1586.0883,-347.4967C1575.3246,-312.3651 1537.6478,-189.3922 1522.9426,-141.3958"/>
<polygon fill="#191970" stroke="#191970" points="1526.2238,-140.1576 1519.9479,-131.6216 1519.5309,-142.2082 1526.2238,-140.1576"/>
</g>
<!-- Node59&#45;&gt;Node3 -->
<g id="edge139" class="edge">
<title>Node59&#45;&gt;Node3</title>
<path fill="none" stroke="#191970" d="M1608.1005,-474.446C1493.577,-466.4241 1277.6613,-450.7138 1094,-434 1073.1055,-432.0985 1050.5738,-429.8436 1029.5463,-427.6509"/>
<polygon fill="#191970" stroke="#191970" points="1029.6691,-424.1446 1019.3583,-426.5813 1028.9381,-431.1064 1029.6691,-424.1446"/>
</g>
<!-- Node59&#45;&gt;Node6 -->
<g id="edge134" class="edge">
<title>Node59&#45;&gt;Node6</title>
<path fill="none" stroke="#191970" d="M1690.9783,-470.3231C1695.1485,-447.4436 1702.8359,-388.8019 1682,-347 1629.0793,-240.828 1586.6416,-227.4793 1484,-168 1457.3127,-152.5351 1424.7281,-141.4711 1397.6086,-134.0756"/>
<polygon fill="#191970" stroke="#191970" points="1398.4471,-130.6771 1387.8855,-131.5155 1396.6647,-137.4464 1398.4471,-130.6771"/>
</g>
<!-- Node59&#45;&gt;Node7 -->
<g id="edge140" class="edge">
<title>Node59&#45;&gt;Node7</title>
<path fill="none" stroke="#191970" d="M1760.2778,-470.4637C1801.7734,-463.4316 1854.5105,-451.9115 1899,-434 2003.9329,-391.7538 2116,-414.1179 2116,-301 2116,-301 2116,-301 2116,-178 2116,-99.261 1856.8465,-75.5974 1728.8476,-68.7118"/>
<polygon fill="#191970" stroke="#191970" points="1728.9125,-65.2106 1718.7448,-68.1885 1728.5503,-72.2012 1728.9125,-65.2106"/>
</g>
<!-- Node59&#45;&gt;Node25 -->
<g id="edge136" class="edge">
<title>Node59&#45;&gt;Node25</title>
<path fill="none" stroke="#191970" d="M1608.2986,-475.9662C1457.0685,-468.0526 1144.586,-449.8786 1127,-434 1056.5418,-370.3825 1109.5977,-316.4397 1088,-224 1085.952,-215.2344 1083.3056,-205.6386 1080.9357,-197.4898"/>
<polygon fill="#191970" stroke="#191970" points="1084.2598,-196.3889 1078.0529,-187.8026 1077.5506,-198.3855 1084.2598,-196.3889"/>
</g>
<!-- Node59&#45;&gt;Node29 -->
<g id="edge137" class="edge">
<title>Node59&#45;&gt;Node29</title>
<path fill="none" stroke="#191970" d="M1708.2188,-470.3906C1725.4818,-461.7591 1751.3596,-448.8202 1772.9553,-438.0224"/>
<polygon fill="#191970" stroke="#191970" points="1774.5318,-441.1473 1781.9108,-433.5446 1771.4013,-434.8863 1774.5318,-441.1473"/>
</g>
<!-- Node59&#45;&gt;Node33 -->
<g id="edge138" class="edge">
<title>Node59&#45;&gt;Node33</title>
<path fill="none" stroke="#191970" d="M1614.9441,-470.4918C1528.2522,-459.3612 1385.0047,-440.9693 1294.1736,-429.3073"/>
<polygon fill="#191970" stroke="#191970" points="1294.5496,-425.8269 1284.1852,-428.0248 1293.6581,-432.7699 1294.5496,-425.8269"/>
</g>
<!-- Node59&#45;&gt;Node40 -->
<g id="edge133" class="edge">
<title>Node59&#45;&gt;Node40</title>
<path fill="none" stroke="#191970" d="M1647.7294,-470.4581C1601.0391,-459.6632 1524.9425,-442.0694 1474.426,-430.3899"/>
<polygon fill="#191970" stroke="#191970" points="1474.8989,-426.9069 1464.3675,-428.0643 1473.322,-433.727 1474.8989,-426.9069"/>
</g>
<!-- Node59&#45;&gt;Node58 -->
<g id="edge135" class="edge">
<title>Node59&#45;&gt;Node58</title>
<path fill="none" stroke="#191970" d="M1645.8913,-470.4815C1626.0377,-463.751 1604.2188,-452.5099 1592,-434 1580.9815,-417.3084 1581.8091,-393.8522 1584.4047,-377.2247"/>
<polygon fill="#191970" stroke="#191970" points="1587.9248,-377.45 1586.3603,-366.9713 1581.0487,-376.1385 1587.9248,-377.45"/>
</g>
<!-- Node60 -->
<g id="node50" class="node">
<title>Node60</title>
<polygon fill="none" stroke="#bfbfbf" points="1600.5,-409 1600.5,-428 1677.5,-428 1677.5,-409 1600.5,-409"/>
<text text-anchor="middle" x="1639" y="-416" font-family="FreeSans.ttf" font-size="10.00" fill="#000000">Eigen/Dense</text>
</g>
<!-- Node59&#45;&gt;Node60 -->
<g id="edge132" class="edge">
<title>Node59&#45;&gt;Node60</title>
<path fill="none" stroke="#191970" d="M1681.1875,-470.3906C1673.746,-461.2376 1662.3666,-447.2409 1653.3008,-436.09"/>
<polygon fill="#191970" stroke="#191970" points="1655.9467,-433.7962 1646.9226,-428.2449 1650.5153,-438.212 1655.9467,-433.7962"/>
</g>
</g>
</svg>
