<?xml version="1.0" encoding="UTF-8" standalone="no"?>
<!DOCTYPE svg PUBLIC "-//W3C//DTD SVG 1.1//EN"
 "http://www.w3.org/Graphics/SVG/1.1/DTD/svg11.dtd">
<!-- Generated by graphviz version 2.40.1 (20161225.0304)
 -->
<!-- Title: PrivateUtils.h Pages: 1 -->
<svg width="1334pt" height="599pt"
 viewBox="0.00 0.00 1334.00 599.00" xmlns="http://www.w3.org/2000/svg" xmlns:xlink="http://www.w3.org/1999/xlink">
<g id="graph0" class="graph" transform="scale(1 1) rotate(0) translate(4 595)">
<title>PrivateUtils.h</title>
<!-- Node0 -->
<g id="node1" class="node">
<title>Node0</title>
<polygon fill="#bfbfbf" stroke="#000000" points="126,-571.5 126,-590.5 209,-590.5 209,-571.5 126,-571.5"/>
<text text-anchor="middle" x="167.5" y="-578.5" font-family="FreeSans.ttf" font-size="10.00" fill="#000000">PrivateUtils.h</text>
</g>
<!-- Node1 -->
<g id="node2" class="node">
<title>Node1</title>
<polygon fill="none" stroke="#bfbfbf" points="0,-454 0,-473 77,-473 77,-454 0,-454"/>
<text text-anchor="middle" x="38.5" y="-461" font-family="FreeSans.ttf" font-size="10.00" fill="#000000">Eigen/Dense</text>
</g>
<!-- Node0&#45;&gt;Node1 -->
<g id="edge1" class="edge">
<title>Node0&#45;&gt;Node1</title>
<path fill="none" stroke="#191970" d="M156.9434,-571.3845C135.0213,-551.4167 84.3285,-505.243 56.9077,-480.2667"/>
<polygon fill="#191970" stroke="#191970" points="58.9523,-477.3947 49.2025,-473.2484 54.2386,-482.5698 58.9523,-477.3947"/>
</g>
<!-- Node2 -->
<g id="node3" class="node">
<title>Node2</title>
<g id="a_node3"><a xlink:href="EigenHelpers_8h.html" target="_top" xlink:title="iDynTree/Core/EigenHelpers.h">
<polygon fill="none" stroke="#000000" points="197,-515.5 197,-534.5 358,-534.5 358,-515.5 197,-515.5"/>
<text text-anchor="middle" x="277.5" y="-522.5" font-family="FreeSans.ttf" font-size="10.00" fill="#000000">iDynTree/Core/EigenHelpers.h</text>
</a>
</g>
</g>
<!-- Node0&#45;&gt;Node2 -->
<g id="edge2" class="edge">
<title>Node0&#45;&gt;Node2</title>
<path fill="none" stroke="#191970" d="M186.6605,-571.2455C204.0111,-562.4125 229.7901,-549.2887 249.4583,-539.2758"/>
<polygon fill="#191970" stroke="#191970" points="251.2353,-542.2986 258.559,-534.6427 248.0595,-536.0605 251.2353,-542.2986"/>
</g>
<!-- Node2&#45;&gt;Node1 -->
<g id="edge3" class="edge">
<title>Node2&#45;&gt;Node1</title>
<path fill="none" stroke="#191970" d="M236.7352,-515.4401C198.9662,-506.4592 141.2806,-492.4285 91.5,-479 87.8613,-478.0184 84.0902,-476.9728 80.3133,-475.906"/>
<polygon fill="#191970" stroke="#191970" points="80.9662,-472.4522 70.3889,-473.0617 79.0377,-479.1813 80.9662,-472.4522"/>
</g>
<!-- Node3 -->
<g id="node4" class="node">
<title>Node3</title>
<g id="a_node4"><a xlink:href="VectorDynSize_8h.html" target="_top" xlink:title="iDynTree/Core/VectorDynSize.h">
<polygon fill="none" stroke="#000000" points="1159,-168.5 1159,-187.5 1326,-187.5 1326,-168.5 1159,-168.5"/>
<text text-anchor="middle" x="1242.5" y="-175.5" font-family="FreeSans.ttf" font-size="10.00" fill="#000000">iDynTree/Core/VectorDynSize.h</text>
</a>
</g>
</g>
<!-- Node2&#45;&gt;Node3 -->
<g id="edge4" class="edge">
<title>Node2&#45;&gt;Node3</title>
<path fill="none" stroke="#191970" d="M358.2305,-522.7249C584.0072,-515.2971 1205.5,-487.1199 1205.5,-402 1205.5,-402 1205.5,-402 1205.5,-290 1205.5,-255.7041 1221.3354,-218.3471 1232.287,-196.6122"/>
<polygon fill="#191970" stroke="#191970" points="1235.5018,-198.0179 1237.0405,-187.5354 1229.3006,-194.7704 1235.5018,-198.0179"/>
</g>
<!-- Node15 -->
<g id="node16" class="node">
<title>Node15</title>
<g id="a_node16"><a xlink:href="VectorFixSize_8h.html" target="_top" xlink:title="iDynTree/Core/VectorFixSize.h">
<polygon fill="none" stroke="#000000" points="612,-168.5 612,-187.5 773,-187.5 773,-168.5 612,-168.5"/>
<text text-anchor="middle" x="692.5" y="-175.5" font-family="FreeSans.ttf" font-size="10.00" fill="#000000">iDynTree/Core/VectorFixSize.h</text>
</a>
</g>
</g>
<!-- Node2&#45;&gt;Node15 -->
<g id="edge16" class="edge">
<title>Node2&#45;&gt;Node15</title>
<path fill="none" stroke="#191970" d="M279.1974,-515.2182C287.5956,-467.9744 326.1998,-264.054 373.5,-224 382.2462,-216.5937 510.4862,-199.8229 601.6686,-188.7096"/>
<polygon fill="#191970" stroke="#191970" points="602.2535,-192.1644 611.7586,-187.4845 601.4096,-185.2155 602.2535,-192.1644"/>
</g>
<!-- Node16 -->
<g id="node17" class="node">
<title>Node16</title>
<g id="a_node17"><a xlink:href="Utils_8h.html" target="_top" xlink:title="iDynTree/Core/Utils.h">
<polygon fill="none" stroke="#000000" points="87,-56.5 87,-75.5 206,-75.5 206,-56.5 87,-56.5"/>
<text text-anchor="middle" x="146.5" y="-63.5" font-family="FreeSans.ttf" font-size="10.00" fill="#000000">iDynTree/Core/Utils.h</text>
</a>
</g>
</g>
<!-- Node2&#45;&gt;Node16 -->
<g id="edge71" class="edge">
<title>Node2&#45;&gt;Node16</title>
<path fill="none" stroke="#191970" d="M237.6074,-515.4012C186.7969,-500.5187 105.5,-466.6111 105.5,-402 105.5,-402 105.5,-402 105.5,-178 105.5,-143.3444 123.0245,-106.1312 135.1592,-84.5174"/>
<polygon fill="#191970" stroke="#191970" points="138.2581,-86.1511 140.273,-75.7496 132.2114,-82.6243 138.2581,-86.1511"/>
</g>
<!-- Node20 -->
<g id="node21" class="node">
<title>Node20</title>
<g id="a_node21"><a xlink:href="MatrixDynSize_8h.html" target="_top" xlink:title="iDynTree/Core/MatrixDynSize.h">
<polygon fill="none" stroke="#000000" points="389,-168.5 389,-187.5 556,-187.5 556,-168.5 389,-168.5"/>
<text text-anchor="middle" x="472.5" y="-175.5" font-family="FreeSans.ttf" font-size="10.00" fill="#000000">iDynTree/Core/MatrixDynSize.h</text>
</a>
</g>
</g>
<!-- Node2&#45;&gt;Node20 -->
<g id="edge25" class="edge">
<title>Node2&#45;&gt;Node20</title>
<path fill="none" stroke="#191970" d="M272.1762,-515.4744C267.3967,-506.4034 260.6616,-492.2119 257.5,-479 250.5576,-449.9883 254.3893,-441.8175 253.5,-412 250.9191,-325.463 242.4469,-284.3715 304.5,-224 319.1364,-209.7603 365.0869,-197.7425 405.238,-189.5655"/>
<polygon fill="#191970" stroke="#191970" points="406.1703,-192.9488 415.2984,-187.5703 404.8086,-186.0825 406.1703,-192.9488"/>
</g>
<!-- Node22 -->
<g id="node23" class="node">
<title>Node22</title>
<g id="a_node23"><a xlink:href="MatrixFixSize_8h.html" target="_top" xlink:title="iDynTree/Core/MatrixFixSize.h">
<polygon fill="none" stroke="#000000" points="210,-168.5 210,-187.5 371,-187.5 371,-168.5 210,-168.5"/>
<text text-anchor="middle" x="290.5" y="-175.5" font-family="FreeSans.ttf" font-size="10.00" fill="#000000">iDynTree/Core/MatrixFixSize.h</text>
</a>
</g>
</g>
<!-- Node2&#45;&gt;Node22 -->
<g id="edge32" class="edge">
<title>Node2&#45;&gt;Node22</title>
<path fill="none" stroke="#191970" d="M274.8027,-515.2031C269.3436,-494.4832 257.5,-444.6202 257.5,-402 257.5,-402 257.5,-402 257.5,-346 257.5,-291.2265 274.5986,-228.2597 284.18,-197.2752"/>
<polygon fill="#191970" stroke="#191970" points="287.5249,-198.3056 287.2152,-187.7153 280.8531,-196.1873 287.5249,-198.3056"/>
</g>
<!-- Node24 -->
<g id="node25" class="node">
<title>Node24</title>
<g id="a_node25"><a xlink:href="SpatialMotionVector_8h.html" target="_top" xlink:title="iDynTree/Core/SpatialMotion\lVector.h">
<polygon fill="none" stroke="#000000" points="326,-448.5 326,-478.5 481,-478.5 481,-448.5 326,-448.5"/>
<text text-anchor="start" x="334" y="-466.5" font-family="FreeSans.ttf" font-size="10.00" fill="#000000">iDynTree/Core/SpatialMotion</text>
<text text-anchor="middle" x="403.5" y="-455.5" font-family="FreeSans.ttf" font-size="10.00" fill="#000000">Vector.h</text>
</a>
</g>
</g>
<!-- Node2&#45;&gt;Node24 -->
<g id="edge40" class="edge">
<title>Node2&#45;&gt;Node24</title>
<path fill="none" stroke="#191970" d="M297.1875,-515.3906C314.8716,-506.7591 341.3806,-493.8202 363.503,-483.0224"/>
<polygon fill="#191970" stroke="#191970" points="365.2255,-486.0763 372.6769,-478.5446 362.155,-479.7857 365.2255,-486.0763"/>
</g>
<!-- Node31 -->
<g id="node32" class="node">
<title>Node31</title>
<g id="a_node32"><a xlink:href="SpatialForceVector_8h.html" target="_top" xlink:title="iDynTree/Core/SpatialForce\lVector.h">
<polygon fill="none" stroke="#000000" points="508.5,-448.5 508.5,-478.5 656.5,-478.5 656.5,-448.5 508.5,-448.5"/>
<text text-anchor="start" x="516.5" y="-466.5" font-family="FreeSans.ttf" font-size="10.00" fill="#000000">iDynTree/Core/SpatialForce</text>
<text text-anchor="middle" x="582.5" y="-455.5" font-family="FreeSans.ttf" font-size="10.00" fill="#000000">Vector.h</text>
</a>
</g>
</g>
<!-- Node2&#45;&gt;Node31 -->
<g id="edge62" class="edge">
<title>Node2&#45;&gt;Node31</title>
<path fill="none" stroke="#191970" d="M324.8216,-515.4581C371.0701,-506.1326 442.4818,-491.7332 498.4092,-480.456"/>
<polygon fill="#191970" stroke="#191970" points="499.1959,-483.8679 508.3068,-478.4603 497.8122,-477.006 499.1959,-483.8679"/>
</g>
<!-- Node32 -->
<g id="node33" class="node">
<title>Node32</title>
<g id="a_node33"><a xlink:href="Transform_8h.html" target="_top" xlink:title="iDynTree/Core/Transform.h">
<polygon fill="none" stroke="#000000" points="674.5,-392.5 674.5,-411.5 820.5,-411.5 820.5,-392.5 674.5,-392.5"/>
<text text-anchor="middle" x="747.5" y="-399.5" font-family="FreeSans.ttf" font-size="10.00" fill="#000000">iDynTree/Core/Transform.h</text>
</a>
</g>
</g>
<!-- Node2&#45;&gt;Node32 -->
<g id="edge66" class="edge">
<title>Node2&#45;&gt;Node32</title>
<path fill="none" stroke="#191970" d="M358.3289,-521.3495C455.6486,-515.9322 612.6208,-503.6355 665.5,-479 694.4039,-465.5341 719.7955,-437.9213 734.3968,-419.686"/>
<polygon fill="#191970" stroke="#191970" points="737.3104,-421.6399 740.666,-411.5905 731.7759,-417.3539 737.3104,-421.6399"/>
</g>
<!-- Node4 -->
<g id="node5" class="node">
<title>Node4</title>
<g id="a_node5"><a xlink:href="Span_8h.html" target="_top" xlink:title="iDynTree/Core/Span.h">
<polygon fill="none" stroke="#000000" points="341,-56.5 341,-75.5 462,-75.5 462,-56.5 341,-56.5"/>
<text text-anchor="middle" x="401.5" y="-63.5" font-family="FreeSans.ttf" font-size="10.00" fill="#000000">iDynTree/Core/Span.h</text>
</a>
</g>
</g>
<!-- Node3&#45;&gt;Node4 -->
<g id="edge5" class="edge">
<title>Node3&#45;&gt;Node4</title>
<path fill="none" stroke="#191970" d="M1202.1006,-168.4581C1140.1354,-154.1553 1017.7415,-127.216 912.5,-112 756.2605,-89.4106 571.4397,-76.0517 472.4928,-69.9693"/>
<polygon fill="#191970" stroke="#191970" points="472.5094,-66.464 462.3155,-69.3508 472.0847,-73.4511 472.5094,-66.464"/>
</g>
<!-- Node14 -->
<g id="node15" class="node">
<title>Node14</title>
<polygon fill="none" stroke="#bfbfbf" points="859.5,-112.5 859.5,-131.5 903.5,-131.5 903.5,-112.5 859.5,-112.5"/>
<text text-anchor="middle" x="881.5" y="-119.5" font-family="FreeSans.ttf" font-size="10.00" fill="#000000">string</text>
</g>
<!-- Node3&#45;&gt;Node14 -->
<g id="edge15" class="edge">
<title>Node3&#45;&gt;Node14</title>
<path fill="none" stroke="#191970" d="M1180.8521,-168.4369C1103.5333,-156.4428 973.8374,-136.3238 913.7992,-127.0104"/>
<polygon fill="#191970" stroke="#191970" points="914.183,-123.5282 903.7646,-125.4538 913.1099,-130.4454 914.183,-123.5282"/>
</g>
<!-- Node5 -->
<g id="node6" class="node">
<title>Node5</title>
<polygon fill="none" stroke="#bfbfbf" points="701.5,-.5 701.5,-19.5 753.5,-19.5 753.5,-.5 701.5,-.5"/>
<text text-anchor="middle" x="727.5" y="-7.5" font-family="FreeSans.ttf" font-size="10.00" fill="#000000">cassert</text>
</g>
<!-- Node4&#45;&gt;Node5 -->
<g id="edge6" class="edge">
<title>Node4&#45;&gt;Node5</title>
<path fill="none" stroke="#191970" d="M462.0016,-57.3214C529.6097,-47.4773 635.8782,-31.5328 691.1807,-20.0439"/>
<polygon fill="#191970" stroke="#191970" points="692.1764,-23.4097 701.2142,-17.8808 690.7012,-16.5669 692.1764,-23.4097"/>
</g>
<!-- Node6 -->
<g id="node7" class="node">
<title>Node6</title>
<polygon fill="none" stroke="#bfbfbf" points="619.5,-.5 619.5,-19.5 683.5,-19.5 683.5,-.5 619.5,-.5"/>
<text text-anchor="middle" x="651.5" y="-7.5" font-family="FreeSans.ttf" font-size="10.00" fill="#000000">algorithm</text>
</g>
<!-- Node4&#45;&gt;Node6 -->
<g id="edge7" class="edge">
<title>Node4&#45;&gt;Node6</title>
<path fill="none" stroke="#191970" d="M446.4126,-56.4218C486.6296,-47.776 547.4713,-34.5276 609.3503,-20.2323"/>
<polygon fill="#191970" stroke="#191970" points="610.3357,-23.5967 619.2874,-17.9295 608.7554,-16.7774 610.3357,-23.5967"/>
</g>
<!-- Node7 -->
<g id="node8" class="node">
<title>Node7</title>
<polygon fill="none" stroke="#bfbfbf" points="278.5,-.5 278.5,-19.5 320.5,-19.5 320.5,-.5 278.5,-.5"/>
<text text-anchor="middle" x="299.5" y="-7.5" font-family="FreeSans.ttf" font-size="10.00" fill="#000000">array</text>
</g>
<!-- Node4&#45;&gt;Node7 -->
<g id="edge8" class="edge">
<title>Node4&#45;&gt;Node7</title>
<path fill="none" stroke="#191970" d="M383.733,-56.2455C367.7905,-47.4928 344.1741,-34.527 326.0011,-24.5496"/>
<polygon fill="#191970" stroke="#191970" points="327.5137,-21.3873 317.0634,-19.6427 324.1448,-27.5233 327.5137,-21.3873"/>
</g>
<!-- Node8 -->
<g id="node9" class="node">
<title>Node8</title>
<polygon fill="none" stroke="#bfbfbf" points="120,-.5 120,-19.5 173,-19.5 173,-.5 120,-.5"/>
<text text-anchor="middle" x="146.5" y="-7.5" font-family="FreeSans.ttf" font-size="10.00" fill="#000000">cstddef</text>
</g>
<!-- Node4&#45;&gt;Node8 -->
<g id="edge9" class="edge">
<title>Node4&#45;&gt;Node8</title>
<path fill="none" stroke="#191970" d="M350.5837,-56.4363C308.1142,-48.215 245.8035,-35.5892 183.2401,-20.3168"/>
<polygon fill="#191970" stroke="#191970" points="183.7468,-16.837 173.1999,-17.8432 182.0723,-23.6338 183.7468,-16.837"/>
</g>
<!-- Node9 -->
<g id="node10" class="node">
<title>Node9</title>
<polygon fill="none" stroke="#bfbfbf" points="339,-.5 339,-19.5 392,-19.5 392,-.5 339,-.5"/>
<text text-anchor="middle" x="365.5" y="-7.5" font-family="FreeSans.ttf" font-size="10.00" fill="#000000">iterator</text>
</g>
<!-- Node4&#45;&gt;Node9 -->
<g id="edge10" class="edge">
<title>Node4&#45;&gt;Node9</title>
<path fill="none" stroke="#191970" d="M395.2293,-56.2455C390.2736,-48.5367 383.217,-37.5598 377.2224,-28.2348"/>
<polygon fill="#191970" stroke="#191970" points="380.0506,-26.1618 371.6989,-19.6427 374.1624,-29.9471 380.0506,-26.1618"/>
</g>
<!-- Node10 -->
<g id="node11" class="node">
<title>Node10</title>
<polygon fill="none" stroke="#bfbfbf" points="410.5,-.5 410.5,-19.5 454.5,-19.5 454.5,-.5 410.5,-.5"/>
<text text-anchor="middle" x="432.5" y="-7.5" font-family="FreeSans.ttf" font-size="10.00" fill="#000000">limits</text>
</g>
<!-- Node4&#45;&gt;Node10 -->
<g id="edge11" class="edge">
<title>Node4&#45;&gt;Node10</title>
<path fill="none" stroke="#191970" d="M406.8998,-56.2455C411.1227,-48.617 417.1173,-37.7881 422.2441,-28.5267"/>
<polygon fill="#191970" stroke="#191970" points="425.381,-30.0867 427.1621,-19.6427 419.2568,-26.6965 425.381,-30.0867"/>
</g>
<!-- Node11 -->
<g id="node12" class="node">
<title>Node11</title>
<polygon fill="none" stroke="#bfbfbf" points="473,-.5 473,-19.5 538,-19.5 538,-.5 473,-.5"/>
<text text-anchor="middle" x="505.5" y="-7.5" font-family="FreeSans.ttf" font-size="10.00" fill="#000000">stdexcept</text>
</g>
<!-- Node4&#45;&gt;Node11 -->
<g id="edge12" class="edge">
<title>Node4&#45;&gt;Node11</title>
<path fill="none" stroke="#191970" d="M419.6154,-56.2455C435.945,-47.4527 460.171,-34.4079 478.7339,-24.4125"/>
<polygon fill="#191970" stroke="#191970" points="480.4468,-27.4654 487.5922,-19.6427 477.1281,-21.3021 480.4468,-27.4654"/>
</g>
<!-- Node12 -->
<g id="node13" class="node">
<title>Node12</title>
<polygon fill="none" stroke="#bfbfbf" points="191,-.5 191,-19.5 260,-19.5 260,-.5 191,-.5"/>
<text text-anchor="middle" x="225.5" y="-7.5" font-family="FreeSans.ttf" font-size="10.00" fill="#000000">type_traits</text>
</g>
<!-- Node4&#45;&gt;Node12 -->
<g id="edge13" class="edge">
<title>Node4&#45;&gt;Node12</title>
<path fill="none" stroke="#191970" d="M371.2445,-56.3733C341.8517,-47.021 297.0708,-32.7725 264.9066,-22.5385"/>
<polygon fill="#191970" stroke="#191970" points="265.9512,-19.198 255.3607,-19.5011 263.8287,-25.8685 265.9512,-19.198"/>
</g>
<!-- Node13 -->
<g id="node14" class="node">
<title>Node13</title>
<polygon fill="none" stroke="#bfbfbf" points="556,-.5 556,-19.5 601,-19.5 601,-.5 556,-.5"/>
<text text-anchor="middle" x="578.5" y="-7.5" font-family="FreeSans.ttf" font-size="10.00" fill="#000000">utility</text>
</g>
<!-- Node4&#45;&gt;Node13 -->
<g id="edge14" class="edge">
<title>Node4&#45;&gt;Node13</title>
<path fill="none" stroke="#191970" d="M431.999,-56.4572C459.5868,-47.8106 501.5751,-34.6145 546.2493,-20.3866"/>
<polygon fill="#191970" stroke="#191970" points="547.3542,-23.708 555.8188,-17.3362 545.2282,-17.0387 547.3542,-23.708"/>
</g>
<!-- Node15&#45;&gt;Node4 -->
<g id="edge20" class="edge">
<title>Node15&#45;&gt;Node4</title>
<path fill="none" stroke="#191970" d="M693.8594,-168.3699C695.301,-153.9518 695.6106,-126.8641 680.5,-112 651.7544,-83.7234 545.0167,-72.7952 472.2174,-68.5941"/>
<polygon fill="#191970" stroke="#191970" points="472.3584,-65.0967 462.182,-68.0449 471.9758,-72.0862 472.3584,-65.0967"/>
</g>
<!-- Node15&#45;&gt;Node5 -->
<g id="edge23" class="edge">
<title>Node15&#45;&gt;Node5</title>
<path fill="none" stroke="#191970" d="M694.482,-168.4862C700.0387,-141.8144 715.8517,-65.9117 723.3969,-29.695"/>
<polygon fill="#191970" stroke="#191970" points="726.8393,-30.3316 725.4525,-19.8279 719.9865,-28.9038 726.8393,-30.3316"/>
</g>
<!-- Node15&#45;&gt;Node14 -->
<g id="edge21" class="edge">
<title>Node15&#45;&gt;Node14</title>
<path fill="none" stroke="#191970" d="M724.9903,-168.3733C759.9562,-158.013 815.2011,-141.6441 849.8415,-131.3803"/>
<polygon fill="#191970" stroke="#191970" points="850.8645,-134.7277 859.4581,-128.5309 848.8758,-128.0161 850.8645,-134.7277"/>
</g>
<!-- Node15&#45;&gt;Node16 -->
<g id="edge17" class="edge">
<title>Node15&#45;&gt;Node16</title>
<path fill="none" stroke="#191970" d="M611.8735,-170.456C518.7719,-161.3318 371.5061,-145.5144 317.5,-132 313.9982,-131.1237 229.5108,-98.3159 180.6305,-79.2939"/>
<polygon fill="#191970" stroke="#191970" points="181.6615,-75.9395 171.073,-75.5737 179.1223,-82.4628 181.6615,-75.9395"/>
</g>
<!-- Node18 -->
<g id="node19" class="node">
<title>Node18</title>
<polygon fill="none" stroke="#bfbfbf" points="547.5,-112.5 547.5,-131.5 603.5,-131.5 603.5,-112.5 547.5,-112.5"/>
<text text-anchor="middle" x="575.5" y="-119.5" font-family="FreeSans.ttf" font-size="10.00" fill="#000000">sstream</text>
</g>
<!-- Node15&#45;&gt;Node18 -->
<g id="edge22" class="edge">
<title>Node15&#45;&gt;Node18</title>
<path fill="none" stroke="#191970" d="M672.387,-168.3733C653.6897,-159.4241 625.6256,-145.9917 604.5066,-135.8835"/>
<polygon fill="#191970" stroke="#191970" points="605.8817,-132.6614 595.3506,-131.5011 602.8595,-138.9755 605.8817,-132.6614"/>
</g>
<!-- Node19 -->
<g id="node20" class="node">
<title>Node19</title>
<polygon fill="none" stroke="#bfbfbf" points="621.5,-112.5 621.5,-131.5 671.5,-131.5 671.5,-112.5 621.5,-112.5"/>
<text text-anchor="middle" x="646.5" y="-119.5" font-family="FreeSans.ttf" font-size="10.00" fill="#000000">cstring</text>
</g>
<!-- Node15&#45;&gt;Node19 -->
<g id="edge24" class="edge">
<title>Node15&#45;&gt;Node19</title>
<path fill="none" stroke="#191970" d="M684.4874,-168.2455C678.0232,-160.3761 668.7615,-149.101 661.0017,-139.6542"/>
<polygon fill="#191970" stroke="#191970" points="663.4727,-137.1484 654.4208,-131.6427 658.0636,-141.5916 663.4727,-137.1484"/>
</g>
<!-- Node16&#45;&gt;Node8 -->
<g id="edge18" class="edge">
<title>Node16&#45;&gt;Node8</title>
<path fill="none" stroke="#191970" d="M146.5,-56.2455C146.5,-48.9382 146.5,-38.6944 146.5,-29.7046"/>
<polygon fill="#191970" stroke="#191970" points="150.0001,-29.6426 146.5,-19.6427 143.0001,-29.6427 150.0001,-29.6426"/>
</g>
<!-- Node17 -->
<g id="node18" class="node">
<title>Node17</title>
<polygon fill="none" stroke="#bfbfbf" points="21.5,-.5 21.5,-19.5 101.5,-19.5 101.5,-.5 21.5,-.5"/>
<text text-anchor="middle" x="61.5" y="-7.5" font-family="FreeSans.ttf" font-size="10.00" fill="#000000">CoreExport.h</text>
</g>
<!-- Node16&#45;&gt;Node17 -->
<g id="edge19" class="edge">
<title>Node16&#45;&gt;Node17</title>
<path fill="none" stroke="#191970" d="M131.6941,-56.2455C118.7744,-47.7337 99.8069,-35.2375 84.8448,-25.3801"/>
<polygon fill="#191970" stroke="#191970" points="86.4124,-22.2216 76.1362,-19.6427 82.5613,-28.067 86.4124,-22.2216"/>
</g>
<!-- Node20&#45;&gt;Node14 -->
<g id="edge26" class="edge">
<title>Node20&#45;&gt;Node14</title>
<path fill="none" stroke="#191970" d="M542.3449,-168.4369C631.8199,-156.186 783.2045,-135.4586 849.1654,-126.4272"/>
<polygon fill="#191970" stroke="#191970" points="849.9292,-129.8554 859.362,-125.0311 848.9796,-122.9201 849.9292,-129.8554"/>
</g>
<!-- Node21 -->
<g id="node22" class="node">
<title>Node21</title>
<g id="a_node22"><a xlink:href="MatrixView_8h.html" target="_top" xlink:title="iDynTree/Core/MatrixView.h">
<polygon fill="none" stroke="#000000" points="326,-112.5 326,-131.5 477,-131.5 477,-112.5 326,-112.5"/>
<text text-anchor="middle" x="401.5" y="-119.5" font-family="FreeSans.ttf" font-size="10.00" fill="#000000">iDynTree/Core/MatrixView.h</text>
</a>
</g>
</g>
<!-- Node20&#45;&gt;Node21 -->
<g id="edge27" class="edge">
<title>Node20&#45;&gt;Node21</title>
<path fill="none" stroke="#191970" d="M460.1327,-168.2455C449.5446,-159.8943 434.0936,-147.7076 421.7107,-137.9408"/>
<polygon fill="#191970" stroke="#191970" points="423.7447,-135.0875 413.7255,-131.6427 419.4097,-140.5837 423.7447,-135.0875"/>
</g>
<!-- Node21&#45;&gt;Node4 -->
<g id="edge30" class="edge">
<title>Node21&#45;&gt;Node4</title>
<path fill="none" stroke="#191970" d="M401.5,-112.2455C401.5,-104.9382 401.5,-94.6944 401.5,-85.7046"/>
<polygon fill="#191970" stroke="#191970" points="405.0001,-85.6426 401.5,-75.6427 398.0001,-85.6427 405.0001,-85.6426"/>
</g>
<!-- Node21&#45;&gt;Node5 -->
<g id="edge28" class="edge">
<title>Node21&#45;&gt;Node5</title>
<path fill="none" stroke="#191970" d="M414.6817,-112.3349C435.0483,-97.871 475.8616,-70.7243 514.5,-56 586.9758,-28.3809 612.1144,-38.2382 691.2594,-20.1122"/>
<polygon fill="#191970" stroke="#191970" points="692.2631,-23.4713 701.1858,-17.7586 690.6481,-16.6602 692.2631,-23.4713"/>
</g>
<!-- Node21&#45;&gt;Node12 -->
<g id="edge29" class="edge">
<title>Node21&#45;&gt;Node12</title>
<path fill="none" stroke="#191970" d="M386.4943,-112.4509C355.8408,-92.9441 285.8322,-48.3932 249.0571,-24.9909"/>
<polygon fill="#191970" stroke="#191970" points="250.7834,-21.9409 240.4677,-19.5249 247.0252,-27.8465 250.7834,-21.9409"/>
</g>
<!-- Node21&#45;&gt;Node16 -->
<g id="edge31" class="edge">
<title>Node21&#45;&gt;Node16</title>
<path fill="none" stroke="#191970" d="M357.9537,-112.4369C314.2207,-102.8328 246.7655,-88.0191 199.8458,-77.7152"/>
<polygon fill="#191970" stroke="#191970" points="200.3847,-74.2502 189.8667,-75.5237 198.8832,-81.0872 200.3847,-74.2502"/>
</g>
<!-- Node22&#45;&gt;Node5 -->
<g id="edge35" class="edge">
<title>Node22&#45;&gt;Node5</title>
<path fill="none" stroke="#191970" d="M346.8675,-168.4664C386.6058,-160.8583 440.6903,-148.6994 486.5,-132 569.2427,-101.8371 660.2805,-50.2748 702.9159,-24.9414"/>
<polygon fill="#191970" stroke="#191970" points="704.9508,-27.8026 711.7344,-19.6642 701.3562,-21.796 704.9508,-27.8026"/>
</g>
<!-- Node22&#45;&gt;Node14 -->
<g id="edge37" class="edge">
<title>Node22&#45;&gt;Node14</title>
<path fill="none" stroke="#191970" d="M371.4453,-168.9323C374.5018,-168.6133 377.5282,-168.3015 380.5,-168 556.865,-150.107 768.4754,-131.6731 848.5988,-124.8019"/>
<polygon fill="#191970" stroke="#191970" points="849.3495,-128.2505 859.0146,-123.9104 848.7525,-121.276 849.3495,-128.2505"/>
</g>
<!-- Node22&#45;&gt;Node16 -->
<g id="edge33" class="edge">
<title>Node22&#45;&gt;Node16</title>
<path fill="none" stroke="#191970" d="M285.1781,-168.3516C277.0801,-154.3944 260.4763,-128.4463 240.5,-112 223.7355,-98.1979 202.1355,-87.2568 183.8694,-79.5137"/>
<polygon fill="#191970" stroke="#191970" points="184.9727,-76.1839 174.3913,-75.6507 182.3307,-82.6662 184.9727,-76.1839"/>
</g>
<!-- Node22&#45;&gt;Node18 -->
<g id="edge39" class="edge">
<title>Node22&#45;&gt;Node18</title>
<path fill="none" stroke="#191970" d="M344.6928,-168.4889C394.0345,-159.6518 468.8358,-145.8107 533.5,-132 534.737,-131.7358 535.9934,-131.463 537.2612,-131.1839"/>
<polygon fill="#191970" stroke="#191970" points="538.0964,-134.5834 547.0742,-128.9577 536.5476,-127.7569 538.0964,-134.5834"/>
</g>
<!-- Node22&#45;&gt;Node19 -->
<g id="edge36" class="edge">
<title>Node22&#45;&gt;Node19</title>
<path fill="none" stroke="#191970" d="M366.0149,-168.4918C441.4725,-158.7751 553.3407,-143.7332 611.4813,-131.9252"/>
<polygon fill="#191970" stroke="#191970" points="612.2951,-135.3306 621.3533,-129.8351 610.8452,-128.4824 612.2951,-135.3306"/>
</g>
<!-- Node22&#45;&gt;Node21 -->
<g id="edge34" class="edge">
<title>Node22&#45;&gt;Node21</title>
<path fill="none" stroke="#191970" d="M309.5816,-168.3733C327.2402,-159.4644 353.7053,-146.1127 373.7098,-136.0203"/>
<polygon fill="#191970" stroke="#191970" points="375.3158,-139.1303 382.6674,-131.5011 372.1628,-132.8806 375.3158,-139.1303"/>
</g>
<!-- Node23 -->
<g id="node24" class="node">
<title>Node23</title>
<polygon fill="none" stroke="#bfbfbf" points="171.5,-112.5 171.5,-131.5 231.5,-131.5 231.5,-112.5 171.5,-112.5"/>
<text text-anchor="middle" x="201.5" y="-119.5" font-family="FreeSans.ttf" font-size="10.00" fill="#000000">iostream</text>
</g>
<!-- Node22&#45;&gt;Node23 -->
<g id="edge38" class="edge">
<title>Node22&#45;&gt;Node23</title>
<path fill="none" stroke="#191970" d="M274.9974,-168.2455C261.342,-159.6534 241.2343,-147.0014 225.5011,-137.1018"/>
<polygon fill="#191970" stroke="#191970" points="227.1529,-134.006 216.825,-131.6427 223.4249,-139.9307 227.1529,-134.006"/>
</g>
<!-- Node24&#45;&gt;Node15 -->
<g id="edge41" class="edge">
<title>Node24&#45;&gt;Node15</title>
<path fill="none" stroke="#191970" d="M396.3399,-448.2371C377.9013,-406.4253 334.1117,-288.8476 391.5,-224 398.598,-215.9794 517.3668,-199.6755 603.5557,-188.7923"/>
<polygon fill="#191970" stroke="#191970" points="604.1458,-192.2458 613.6312,-187.5259 603.2728,-185.3004 604.1458,-192.2458"/>
</g>
<!-- Node25 -->
<g id="node26" class="node">
<title>Node25</title>
<g id="a_node26"><a xlink:href="GeomVector3_8h.html" target="_top" xlink:title="iDynTree/Core/GeomVector3.h">
<polygon fill="none" stroke="#000000" points="400,-224.5 400,-243.5 563,-243.5 563,-224.5 400,-224.5"/>
<text text-anchor="middle" x="481.5" y="-231.5" font-family="FreeSans.ttf" font-size="10.00" fill="#000000">iDynTree/Core/GeomVector3.h</text>
</a>
</g>
</g>
<!-- Node24&#45;&gt;Node25 -->
<g id="edge42" class="edge">
<title>Node24&#45;&gt;Node25</title>
<path fill="none" stroke="#191970" d="M397.9509,-448.2369C393.4354,-433.6235 388.5536,-411.0466 393.5,-392 407.9568,-336.3327 446.7796,-279.4353 467.6975,-251.5688"/>
<polygon fill="#191970" stroke="#191970" points="470.5125,-253.6496 473.8063,-243.5797 464.9518,-249.3976 470.5125,-253.6496"/>
</g>
<!-- Node26 -->
<g id="node27" class="node">
<title>Node26</title>
<g id="a_node27"><a xlink:href="SpatialVector_8h.html" target="_top" xlink:title="iDynTree/Core/SpatialVector.h">
<polygon fill="none" stroke="#000000" points="402,-392.5 402,-411.5 563,-411.5 563,-392.5 402,-392.5"/>
<text text-anchor="middle" x="482.5" y="-399.5" font-family="FreeSans.ttf" font-size="10.00" fill="#000000">iDynTree/Core/SpatialVector.h</text>
</a>
</g>
</g>
<!-- Node24&#45;&gt;Node26 -->
<g id="edge44" class="edge">
<title>Node24&#45;&gt;Node26</title>
<path fill="none" stroke="#191970" d="M423.0281,-448.2977C434.7937,-439.1384 449.7675,-427.4816 461.7465,-418.1562"/>
<polygon fill="#191970" stroke="#191970" points="464.1103,-420.7516 469.8511,-411.8469 459.8102,-415.228 464.1103,-420.7516"/>
</g>
<!-- Node25&#45;&gt;Node15 -->
<g id="edge43" class="edge">
<title>Node25&#45;&gt;Node15</title>
<path fill="none" stroke="#191970" d="M517.7722,-224.3733C553.4658,-214.9001 608.0879,-200.4032 646.7451,-190.1435"/>
<polygon fill="#191970" stroke="#191970" points="647.9336,-193.4493 656.7011,-187.5011 646.1379,-186.6835 647.9336,-193.4493"/>
</g>
<!-- Node26&#45;&gt;Node16 -->
<g id="edge58" class="edge">
<title>Node26&#45;&gt;Node16</title>
<path fill="none" stroke="#191970" d="M416.2974,-392.4271C380.1908,-385.5133 335.4556,-374.1213 298.5,-356 219.7857,-317.4022 143.5,-321.6683 143.5,-234 143.5,-234 143.5,-234 143.5,-178 143.5,-145.7 144.7622,-108.1791 145.6492,-85.8005"/>
<polygon fill="#191970" stroke="#191970" points="149.1553,-85.7217 146.0702,-75.5861 142.1613,-85.4334 149.1553,-85.7217"/>
</g>
<!-- Node26&#45;&gt;Node18 -->
<g id="edge61" class="edge">
<title>Node26&#45;&gt;Node18</title>
<path fill="none" stroke="#191970" d="M461.0433,-392.3374C405.0458,-365.8686 262.6443,-289.7816 319.5,-224 391.7558,-140.4005 487.1687,-265.9358 565.5,-188 577.415,-176.1452 579.0391,-156.5396 578.2084,-141.7701"/>
<polygon fill="#191970" stroke="#191970" points="581.6737,-141.2422 577.2244,-131.6269 574.7064,-141.9182 581.6737,-141.2422"/>
</g>
<!-- Node26&#45;&gt;Node23 -->
<g id="edge60" class="edge">
<title>Node26&#45;&gt;Node23</title>
<path fill="none" stroke="#191970" d="M440.8439,-392.4433C376.7469,-375.2305 256.0566,-332.2785 205.5,-244 187.1518,-211.9617 191.9245,-167.0274 196.8463,-141.5878"/>
<polygon fill="#191970" stroke="#191970" points="200.2965,-142.1908 198.9667,-131.6797 193.4515,-140.7259 200.2965,-142.1908"/>
</g>
<!-- Node26&#45;&gt;Node25 -->
<g id="edge59" class="edge">
<title>Node26&#45;&gt;Node25</title>
<path fill="none" stroke="#191970" d="M482.4434,-392.4862C482.2853,-365.9293 481.8367,-290.5651 481.62,-254.1655"/>
<polygon fill="#191970" stroke="#191970" points="485.1181,-253.8068 481.5585,-243.8279 478.1182,-253.8486 485.1181,-253.8068"/>
</g>
<!-- Node27 -->
<g id="node28" class="node">
<title>Node27</title>
<g id="a_node28"><a xlink:href="Position_8h.html" target="_top" xlink:title="Position.h">
<polygon fill="none" stroke="#000000" points="776,-336.5 776,-355.5 841,-355.5 841,-336.5 776,-336.5"/>
<text text-anchor="middle" x="808.5" y="-343.5" font-family="FreeSans.ttf" font-size="10.00" fill="#000000">Position.h</text>
</a>
</g>
</g>
<!-- Node26&#45;&gt;Node27 -->
<g id="edge45" class="edge">
<title>Node26&#45;&gt;Node27</title>
<path fill="none" stroke="#191970" d="M538.171,-392.4369C602.6753,-381.3564 707.5477,-363.3415 765.8974,-353.3182"/>
<polygon fill="#191970" stroke="#191970" points="766.6226,-356.745 775.8857,-351.6025 765.4375,-349.8461 766.6226,-356.745"/>
</g>
<!-- Node29 -->
<g id="node30" class="node">
<title>Node29</title>
<g id="a_node30"><a xlink:href="Rotation_8h.html" target="_top" xlink:title="iDynTree/Core/Rotation.h">
<polygon fill="none" stroke="#000000" points="696,-280.5 696,-299.5 833,-299.5 833,-280.5 696,-280.5"/>
<text text-anchor="middle" x="764.5" y="-287.5" font-family="FreeSans.ttf" font-size="10.00" fill="#000000">iDynTree/Core/Rotation.h</text>
</a>
</g>
</g>
<!-- Node26&#45;&gt;Node29 -->
<g id="edge57" class="edge">
<title>Node26&#45;&gt;Node29</title>
<path fill="none" stroke="#191970" d="M506.5432,-392.4509C556.9073,-372.4482 673.5758,-326.1117 731.1442,-303.2477"/>
<polygon fill="#191970" stroke="#191970" points="732.5158,-306.469 740.5177,-299.5249 729.9319,-299.9633 732.5158,-306.469"/>
</g>
<!-- Node27&#45;&gt;Node14 -->
<g id="edge56" class="edge">
<title>Node27&#45;&gt;Node14</title>
<path fill="none" stroke="#191970" d="M841.4577,-338.2773C906.4238,-322.3159 1047.1092,-283.8388 1074.5,-244 1079.536,-236.6753 1079.0877,-231.6135 1074.5,-224 1056.346,-193.8722 963.0459,-153.8074 913.121,-134.0564"/>
<polygon fill="#191970" stroke="#191970" points="914.3372,-130.7739 903.7494,-130.386 911.7844,-137.2918 914.3372,-130.7739"/>
</g>
<!-- Node28 -->
<g id="node29" class="node">
<title>Node28</title>
<g id="a_node29"><a xlink:href="PositionRaw_8h.html" target="_top" xlink:title="iDynTree/Core/PositionRaw.h">
<polygon fill="none" stroke="#000000" points="909.5,-224.5 909.5,-243.5 1065.5,-243.5 1065.5,-224.5 909.5,-224.5"/>
<text text-anchor="middle" x="987.5" y="-231.5" font-family="FreeSans.ttf" font-size="10.00" fill="#000000">iDynTree/Core/PositionRaw.h</text>
</a>
</g>
</g>
<!-- Node27&#45;&gt;Node28 -->
<g id="edge46" class="edge">
<title>Node27&#45;&gt;Node28</title>
<path fill="none" stroke="#191970" d="M823.7614,-336.4509C854.9375,-316.9441 926.1394,-272.3932 963.5414,-248.9909"/>
<polygon fill="#191970" stroke="#191970" points="965.6564,-251.7962 972.2772,-243.5249 961.9434,-245.8621 965.6564,-251.7962"/>
</g>
<!-- Node27&#45;&gt;Node29 -->
<g id="edge49" class="edge">
<title>Node27&#45;&gt;Node29</title>
<path fill="none" stroke="#191970" d="M800.8358,-336.2455C794.6527,-328.3761 785.7937,-317.101 778.3711,-307.6542"/>
<polygon fill="#191970" stroke="#191970" points="781.0068,-305.3435 772.0764,-299.6427 775.5025,-309.6683 781.0068,-305.3435"/>
</g>
<!-- Node28&#45;&gt;Node14 -->
<g id="edge48" class="edge">
<title>Node28&#45;&gt;Node14</title>
<path fill="none" stroke="#191970" d="M978.4625,-224.4509C960.4701,-205.4401 919.9651,-162.6423 897.4152,-138.816"/>
<polygon fill="#191970" stroke="#191970" points="899.9305,-136.382 890.5146,-131.5249 894.8465,-141.1937 899.9305,-136.382"/>
</g>
<!-- Node28&#45;&gt;Node15 -->
<g id="edge47" class="edge">
<title>Node28&#45;&gt;Node15</title>
<path fill="none" stroke="#191970" d="M937.1229,-224.4369C885.9995,-214.7321 806.8545,-199.708 752.5147,-189.3926"/>
<polygon fill="#191970" stroke="#191970" points="753.1467,-185.9502 742.6693,-187.5237 751.8411,-192.8273 753.1467,-185.9502"/>
</g>
<!-- Node29&#45;&gt;Node14 -->
<g id="edge50" class="edge">
<title>Node29&#45;&gt;Node14</title>
<path fill="none" stroke="#191970" d="M805.6386,-280.4652C825.8457,-273.655 848.7473,-262.3478 862.5,-244 885.0107,-213.968 885.6171,-167.9472 883.7518,-141.857"/>
<polygon fill="#191970" stroke="#191970" points="887.2192,-141.3403 882.8243,-131.7 880.2482,-141.9769 887.2192,-141.3403"/>
</g>
<!-- Node29&#45;&gt;Node15 -->
<g id="edge55" class="edge">
<title>Node29&#45;&gt;Node15</title>
<path fill="none" stroke="#191970" d="M733.7809,-280.4362C716.5926,-273.3313 696.6368,-261.7464 686.5,-244 678.4054,-229.8289 681.1229,-211.0995 685.1561,-197.2136"/>
<polygon fill="#191970" stroke="#191970" points="688.487,-198.2886 688.3394,-187.6948 681.8484,-196.0685 688.487,-198.2886"/>
</g>
<!-- Node29&#45;&gt;Node25 -->
<g id="edge51" class="edge">
<title>Node29&#45;&gt;Node25</title>
<path fill="none" stroke="#191970" d="M716.1721,-280.4369C667.3319,-270.7724 591.8324,-255.8326 539.7236,-245.5213"/>
<polygon fill="#191970" stroke="#191970" points="540.1178,-242.0315 529.6285,-243.5237 538.7589,-248.8983 540.1178,-242.0315"/>
</g>
<!-- Node30 -->
<g id="node31" class="node">
<title>Node30</title>
<g id="a_node31"><a xlink:href="RotationRaw_8h.html" target="_top" xlink:title="iDynTree/Core/RotationRaw.h">
<polygon fill="none" stroke="#000000" points="695.5,-224.5 695.5,-243.5 853.5,-243.5 853.5,-224.5 695.5,-224.5"/>
<text text-anchor="middle" x="774.5" y="-231.5" font-family="FreeSans.ttf" font-size="10.00" fill="#000000">iDynTree/Core/RotationRaw.h</text>
</a>
</g>
</g>
<!-- Node29&#45;&gt;Node30 -->
<g id="edge52" class="edge">
<title>Node29&#45;&gt;Node30</title>
<path fill="none" stroke="#191970" d="M766.2419,-280.2455C767.5467,-272.9382 769.376,-262.6944 770.9813,-253.7046"/>
<polygon fill="#191970" stroke="#191970" points="774.4656,-254.1022 772.7781,-243.6427 767.5746,-252.8717 774.4656,-254.1022"/>
</g>
<!-- Node30&#45;&gt;Node14 -->
<g id="edge54" class="edge">
<title>Node30&#45;&gt;Node14</title>
<path fill="none" stroke="#191970" d="M783.6228,-224.4509C801.7849,-205.4401 842.672,-162.6423 865.4347,-138.816"/>
<polygon fill="#191970" stroke="#191970" points="868.0232,-141.1733 872.4003,-131.5249 862.9617,-136.3378 868.0232,-141.1733"/>
</g>
<!-- Node30&#45;&gt;Node22 -->
<g id="edge53" class="edge">
<title>Node30&#45;&gt;Node22</title>
<path fill="none" stroke="#191970" d="M695.3897,-224.8467C609.2333,-214.8782 471.664,-198.9611 381.1995,-188.4942"/>
<polygon fill="#191970" stroke="#191970" points="381.5655,-185.0132 371.2295,-187.3406 380.7609,-191.9668 381.5655,-185.0132"/>
</g>
<!-- Node31&#45;&gt;Node15 -->
<g id="edge63" class="edge">
<title>Node31&#45;&gt;Node15</title>
<path fill="none" stroke="#191970" d="M592.9308,-448.3146C606.7774,-426.6379 629.5,-385.1079 629.5,-346 629.5,-346 629.5,-346 629.5,-290 629.5,-252.3823 656.8316,-215.7298 675.4902,-195.0908"/>
<polygon fill="#191970" stroke="#191970" points="678.0856,-197.4399 682.378,-187.7535 672.9819,-192.649 678.0856,-197.4399"/>
</g>
<!-- Node31&#45;&gt;Node25 -->
<g id="edge64" class="edge">
<title>Node31&#45;&gt;Node25</title>
<path fill="none" stroke="#191970" d="M582.0531,-448.3228C581.2332,-433.5762 578.9314,-410.7303 572.5,-392 553.6694,-337.1588 515.196,-279.9052 494.8308,-251.7694"/>
<polygon fill="#191970" stroke="#191970" points="497.6431,-249.6857 488.9029,-243.6975 492.0011,-253.8292 497.6431,-249.6857"/>
</g>
<!-- Node31&#45;&gt;Node26 -->
<g id="edge65" class="edge">
<title>Node31&#45;&gt;Node26</title>
<path fill="none" stroke="#191970" d="M558.0372,-448.4554C542.3765,-438.8241 522.1468,-426.3828 506.5644,-416.7996"/>
<polygon fill="#191970" stroke="#191970" points="508.348,-413.7876 497.9965,-411.5303 504.681,-419.7503 508.348,-413.7876"/>
</g>
<!-- Node32&#45;&gt;Node14 -->
<g id="edge70" class="edge">
<title>Node32&#45;&gt;Node14</title>
<path fill="none" stroke="#191970" d="M820.6313,-395.662C932.0454,-383.9592 1131.5,-354.0625 1131.5,-290 1131.5,-290 1131.5,-290 1131.5,-234 1131.5,-128.2062 1018.5601,-164.8746 913.0946,-133.3273"/>
<polygon fill="#191970" stroke="#191970" points="914.1602,-129.9935 903.5692,-130.2787 912.0264,-136.6604 914.1602,-129.9935"/>
</g>
<!-- Node32&#45;&gt;Node22 -->
<g id="edge69" class="edge">
<title>Node32&#45;&gt;Node22</title>
<path fill="none" stroke="#191970" d="M741.2845,-392.2136C721.1848,-361.4839 654.4692,-266.4447 572.5,-224 554.9784,-214.9271 450.3071,-199.3633 373.5831,-188.8817"/>
<polygon fill="#191970" stroke="#191970" points="373.8085,-185.3802 363.4283,-187.5016 372.8658,-192.3164 373.8085,-185.3802"/>
</g>
<!-- Node32&#45;&gt;Node27 -->
<g id="edge67" class="edge">
<title>Node32&#45;&gt;Node27</title>
<path fill="none" stroke="#191970" d="M758.1254,-392.2455C767.0473,-384.0549 779.988,-372.1749 790.5192,-362.5069"/>
<polygon fill="#191970" stroke="#191970" points="792.9968,-364.9837 797.9964,-355.6427 788.2629,-359.8271 792.9968,-364.9837"/>
</g>
<!-- Node32&#45;&gt;Node29 -->
<g id="edge68" class="edge">
<title>Node32&#45;&gt;Node29</title>
<path fill="none" stroke="#191970" d="M748.9494,-392.4509C751.7221,-374.184 757.8282,-333.9553 761.5102,-309.6976"/>
<polygon fill="#191970" stroke="#191970" points="765.0139,-309.9369 763.0543,-299.5249 758.0931,-308.8864 765.0139,-309.9369"/>
</g>
</g>
</svg>
