<?xml version="1.0" encoding="UTF-8" standalone="no"?>
<!DOCTYPE svg PUBLIC "-//W3C//DTD SVG 1.1//EN"
 "http://www.w3.org/Graphics/SVG/1.1/DTD/svg11.dtd">
<!-- Generated by graphviz version 2.40.1 (20161225.0304)
 -->
<!-- Title: QuadraticLikeCost.cpp Pages: 1 -->
<svg width="1496pt" height="599pt"
 viewBox="0.00 0.00 1496.00 599.00" xmlns="http://www.w3.org/2000/svg" xmlns:xlink="http://www.w3.org/1999/xlink">
<g id="graph0" class="graph" transform="scale(1 1) rotate(0) translate(4 595)">
<title>QuadraticLikeCost.cpp</title>
<!-- Node0 -->
<g id="node1" class="node">
<title>Node0</title>
<polygon fill="#bfbfbf" stroke="#000000" points="1282.5,-571.5 1282.5,-590.5 1408.5,-590.5 1408.5,-571.5 1282.5,-571.5"/>
<text text-anchor="middle" x="1345.5" y="-578.5" font-family="FreeSans.ttf" font-size="10.00" fill="#000000">QuadraticLikeCost.cpp</text>
</g>
<!-- Node1 -->
<g id="node2" class="node">
<title>Node1</title>
<g id="a_node2"><a xlink:href="QuadraticLikeCost_8h.html" target="_top" xlink:title="iDynTree/QuadraticLikeCost.h">
<polygon fill="none" stroke="#000000" points="90,-515.5 90,-534.5 251,-534.5 251,-515.5 90,-515.5"/>
<text text-anchor="middle" x="170.5" y="-522.5" font-family="FreeSans.ttf" font-size="10.00" fill="#000000">iDynTree/QuadraticLikeCost.h</text>
</a>
</g>
</g>
<!-- Node0&#45;&gt;Node1 -->
<g id="edge1" class="edge">
<title>Node0&#45;&gt;Node1</title>
<path fill="none" stroke="#191970" d="M1282.3269,-577.9892C1086.7954,-568.6702 490.9292,-540.2715 261.6995,-529.3465"/>
<polygon fill="#191970" stroke="#191970" points="261.5481,-525.8354 251.3928,-528.8553 261.2148,-532.8275 261.5481,-525.8354"/>
</g>
<!-- Node5 -->
<g id="node6" class="node">
<title>Node5</title>
<g id="a_node6"><a xlink:href="Utils_8h.html" target="_top" xlink:title="iDynTree/Core/Utils.h">
<polygon fill="none" stroke="#000000" points="965,-56.5 965,-75.5 1084,-75.5 1084,-56.5 965,-56.5"/>
<text text-anchor="middle" x="1024.5" y="-63.5" font-family="FreeSans.ttf" font-size="10.00" fill="#000000">iDynTree/Core/Utils.h</text>
</a>
</g>
</g>
<!-- Node0&#45;&gt;Node5 -->
<g id="edge63" class="edge">
<title>Node0&#45;&gt;Node5</title>
<path fill="none" stroke="#191970" d="M1355.6759,-571.3886C1374.4189,-552.5907 1412.5,-508.8215 1412.5,-463.5 1412.5,-463.5 1412.5,-463.5 1412.5,-178 1412.5,-129.8193 1370.8235,-130.8895 1326.5,-112 1285.8187,-94.6628 1169.9866,-80.3932 1094.1754,-72.5517"/>
<polygon fill="#191970" stroke="#191970" points="1094.5205,-69.0688 1084.2166,-71.5346 1093.8092,-76.0326 1094.5205,-69.0688"/>
</g>
<!-- Node35 -->
<g id="node36" class="node">
<title>Node35</title>
<polygon fill="none" stroke="#bfbfbf" points="1307,-454 1307,-473 1384,-473 1384,-454 1307,-454"/>
<text text-anchor="middle" x="1345.5" y="-461" font-family="FreeSans.ttf" font-size="10.00" fill="#000000">Eigen/Dense</text>
</g>
<!-- Node0&#45;&gt;Node35 -->
<g id="edge64" class="edge">
<title>Node0&#45;&gt;Node35</title>
<path fill="none" stroke="#191970" d="M1345.5,-571.3845C1345.5,-552.1913 1345.5,-508.786 1345.5,-483.2663"/>
<polygon fill="#191970" stroke="#191970" points="1349.0001,-483.2483 1345.5,-473.2484 1342.0001,-483.2484 1349.0001,-483.2483"/>
</g>
<!-- Node36 -->
<g id="node37" class="node">
<title>Node36</title>
<g id="a_node37"><a xlink:href="EigenHelpers_8h.html" target="_top" xlink:title="iDynTree/Core/EigenHelpers.h">
<polygon fill="none" stroke="#000000" points="1051,-515.5 1051,-534.5 1212,-534.5 1212,-515.5 1051,-515.5"/>
<text text-anchor="middle" x="1131.5" y="-522.5" font-family="FreeSans.ttf" font-size="10.00" fill="#000000">iDynTree/Core/EigenHelpers.h</text>
</a>
</g>
</g>
<!-- Node0&#45;&gt;Node36 -->
<g id="edge65" class="edge">
<title>Node0&#45;&gt;Node36</title>
<path fill="none" stroke="#191970" d="M1308.7121,-571.3733C1272.4339,-561.8799 1216.8764,-547.3415 1177.6554,-537.0781"/>
<polygon fill="#191970" stroke="#191970" points="1178.3682,-533.6468 1167.8079,-534.5011 1176.596,-540.4188 1178.3682,-533.6468"/>
</g>
<!-- Node40 -->
<g id="node41" class="node">
<title>Node40</title>
<polygon fill="none" stroke="#bfbfbf" points="1441,-515.5 1441,-534.5 1488,-534.5 1488,-515.5 1441,-515.5"/>
<text text-anchor="middle" x="1464.5" y="-522.5" font-family="FreeSans.ttf" font-size="10.00" fill="#000000">cmath</text>
</g>
<!-- Node0&#45;&gt;Node40 -->
<g id="edge87" class="edge">
<title>Node0&#45;&gt;Node40</title>
<path fill="none" stroke="#191970" d="M1365.9568,-571.3733C1384.9738,-562.4241 1413.5175,-548.9917 1434.9976,-538.8835"/>
<polygon fill="#191970" stroke="#191970" points="1436.7522,-541.926 1444.3101,-534.5011 1433.7716,-535.5923 1436.7522,-541.926"/>
</g>
<!-- Node2 -->
<g id="node3" class="node">
<title>Node2</title>
<g id="a_node3"><a xlink:href="Cost_8h.html" target="_top" xlink:title="iDynTree/Cost.h">
<polygon fill="none" stroke="#000000" points="44,-224.5 44,-243.5 137,-243.5 137,-224.5 44,-224.5"/>
<text text-anchor="middle" x="90.5" y="-231.5" font-family="FreeSans.ttf" font-size="10.00" fill="#000000">iDynTree/Cost.h</text>
</a>
</g>
</g>
<!-- Node1&#45;&gt;Node2 -->
<g id="edge2" class="edge">
<title>Node1&#45;&gt;Node2</title>
<path fill="none" stroke="#191970" d="M158.046,-515.3183C135.1067,-496.2894 88.5,-451.5325 88.5,-402 88.5,-402 88.5,-402 88.5,-346 88.5,-313.7064 89.3415,-276.1836 89.9328,-253.8029"/>
<polygon fill="#191970" stroke="#191970" points="93.4374,-253.6797 90.2134,-243.5873 86.4401,-253.4874 93.4374,-253.6797"/>
</g>
<!-- Node10 -->
<g id="node11" class="node">
<title>Node10</title>
<g id="a_node11"><a xlink:href="TimeVaryingObject_8h.html" target="_top" xlink:title="iDynTree/TimeVaryingObject.h">
<polygon fill="none" stroke="#000000" points="199.5,-454 199.5,-473 363.5,-473 363.5,-454 199.5,-454"/>
<text text-anchor="middle" x="281.5" y="-461" font-family="FreeSans.ttf" font-size="10.00" fill="#000000">iDynTree/TimeVaryingObject.h</text>
</a>
</g>
</g>
<!-- Node1&#45;&gt;Node10 -->
<g id="edge12" class="edge">
<title>Node1&#45;&gt;Node10</title>
<path fill="none" stroke="#191970" d="M187.8438,-515.3906C205.9273,-505.3713 234.4859,-489.5483 255.3165,-478.0071"/>
<polygon fill="#191970" stroke="#191970" points="257.2271,-480.9498 264.278,-473.0419 253.8346,-474.8268 257.2271,-480.9498"/>
</g>
<!-- Node34 -->
<g id="node35" class="node">
<title>Node34</title>
<polygon fill="none" stroke="#bfbfbf" points="2.5,-454 2.5,-473 60.5,-473 60.5,-454 2.5,-454"/>
<text text-anchor="middle" x="31.5" y="-461" font-family="FreeSans.ttf" font-size="10.00" fill="#000000">memory</text>
</g>
<!-- Node1&#45;&gt;Node34 -->
<g id="edge62" class="edge">
<title>Node1&#45;&gt;Node34</title>
<path fill="none" stroke="#191970" d="M148.7813,-515.3906C125.626,-505.1457 88.7559,-488.8326 62.5409,-477.2339"/>
<polygon fill="#191970" stroke="#191970" points="63.6273,-473.8874 53.0662,-473.0419 60.795,-480.2888 63.6273,-473.8874"/>
</g>
<!-- Node3 -->
<g id="node4" class="node">
<title>Node3</title>
<polygon fill="none" stroke="#bfbfbf" points="512.5,-112.5 512.5,-131.5 556.5,-131.5 556.5,-112.5 512.5,-112.5"/>
<text text-anchor="middle" x="534.5" y="-119.5" font-family="FreeSans.ttf" font-size="10.00" fill="#000000">string</text>
</g>
<!-- Node2&#45;&gt;Node3 -->
<g id="edge3" class="edge">
<title>Node2&#45;&gt;Node3</title>
<path fill="none" stroke="#191970" d="M110.4321,-224.4604C141.3983,-210.0355 203.2565,-182.7914 258.5,-168 362.69,-140.1033 393.0078,-154.4759 498.5,-132 499.749,-131.7339 501.0189,-131.4496 502.2989,-131.1514"/>
<polygon fill="#191970" stroke="#191970" points="503.2973,-134.5092 512.136,-128.6674 501.5834,-127.7223 503.2973,-134.5092"/>
</g>
<!-- Node4 -->
<g id="node5" class="node">
<title>Node4</title>
<g id="a_node5"><a xlink:href="SparsityStructure_8h.html" target="_top" xlink:title="iDynTree/SparsityStructure.h">
<polygon fill="none" stroke="#000000" points="13,-168.5 13,-187.5 168,-187.5 168,-168.5 13,-168.5"/>
<text text-anchor="middle" x="90.5" y="-175.5" font-family="FreeSans.ttf" font-size="10.00" fill="#000000">iDynTree/SparsityStructure.h</text>
</a>
</g>
</g>
<!-- Node2&#45;&gt;Node4 -->
<g id="edge4" class="edge">
<title>Node2&#45;&gt;Node4</title>
<path fill="none" stroke="#191970" d="M90.5,-224.2455C90.5,-216.9382 90.5,-206.6944 90.5,-197.7046"/>
<polygon fill="#191970" stroke="#191970" points="94.0001,-197.6426 90.5,-187.6427 87.0001,-197.6427 94.0001,-197.6426"/>
</g>
<!-- Node4&#45;&gt;Node3 -->
<g id="edge11" class="edge">
<title>Node4&#45;&gt;Node3</title>
<path fill="none" stroke="#191970" d="M168.371,-170.7074C268.6134,-161.0613 437.1821,-143.895 498.5,-132 499.7537,-131.7568 501.0275,-131.4919 502.3108,-131.21"/>
<polygon fill="#191970" stroke="#191970" points="503.2824,-134.5755 512.1623,-128.7964 501.6167,-127.7766 503.2824,-134.5755"/>
</g>
<!-- Node4&#45;&gt;Node5 -->
<g id="edge5" class="edge">
<title>Node4&#45;&gt;Node5</title>
<path fill="none" stroke="#191970" d="M168.2951,-169.6332C268.5072,-158.6534 433.124,-139.8579 460.5,-132 480.7591,-126.1849 483.1405,-117.4533 503.5,-112 586.7032,-89.7139 832.7283,-75.1958 954.5451,-69.1721"/>
<polygon fill="#191970" stroke="#191970" points="955.0557,-72.6514 964.8728,-68.6671 954.7137,-65.6598 955.0557,-72.6514"/>
</g>
<!-- Node6 -->
<g id="node7" class="node">
<title>Node6</title>
<polygon fill="none" stroke="#bfbfbf" points="634,-.5 634,-19.5 687,-19.5 687,-.5 634,-.5"/>
<text text-anchor="middle" x="660.5" y="-7.5" font-family="FreeSans.ttf" font-size="10.00" fill="#000000">cstddef</text>
</g>
<!-- Node4&#45;&gt;Node6 -->
<g id="edge9" class="edge">
<title>Node4&#45;&gt;Node6</title>
<path fill="none" stroke="#191970" d="M125.2441,-168.456C189.4401,-150.7489 330.9121,-111.387 449.5,-76 511.0002,-57.6481 582.1802,-35.1121 624.1565,-21.6875"/>
<polygon fill="#191970" stroke="#191970" points="625.4661,-24.9433 633.9222,-18.5602 623.3311,-18.2768 625.4661,-24.9433"/>
</g>
<!-- Node8 -->
<g id="node9" class="node">
<title>Node8</title>
<polygon fill="none" stroke="#bfbfbf" points="0,-112.5 0,-131.5 47,-131.5 47,-112.5 0,-112.5"/>
<text text-anchor="middle" x="23.5" y="-119.5" font-family="FreeSans.ttf" font-size="10.00" fill="#000000">vector</text>
</g>
<!-- Node4&#45;&gt;Node8 -->
<g id="edge8" class="edge">
<title>Node4&#45;&gt;Node8</title>
<path fill="none" stroke="#191970" d="M78.8295,-168.2455C68.9339,-159.9746 54.5373,-147.9416 42.9099,-138.2232"/>
<polygon fill="#191970" stroke="#191970" points="44.9542,-135.3703 35.0368,-131.6427 40.465,-140.7413 44.9542,-135.3703"/>
</g>
<!-- Node9 -->
<g id="node10" class="node">
<title>Node9</title>
<polygon fill="none" stroke="#bfbfbf" points="65.5,-112.5 65.5,-131.5 151.5,-131.5 151.5,-112.5 65.5,-112.5"/>
<text text-anchor="middle" x="108.5" y="-119.5" font-family="FreeSans.ttf" font-size="10.00" fill="#000000">unordered_set</text>
</g>
<!-- Node4&#45;&gt;Node9 -->
<g id="edge10" class="edge">
<title>Node4&#45;&gt;Node9</title>
<path fill="none" stroke="#191970" d="M93.6354,-168.2455C96.01,-160.8579 99.3493,-150.4689 102.2615,-141.4087"/>
<polygon fill="#191970" stroke="#191970" points="105.6725,-142.234 105.4006,-131.6427 99.0083,-140.0919 105.6725,-142.234"/>
</g>
<!-- Node5&#45;&gt;Node6 -->
<g id="edge6" class="edge">
<title>Node5&#45;&gt;Node6</title>
<path fill="none" stroke="#191970" d="M964.921,-58.4268C901.2639,-50.0786 797.4863,-35.7312 708.5,-20 704.8039,-19.3466 700.9571,-18.6216 697.121,-17.8691"/>
<polygon fill="#191970" stroke="#191970" points="697.5984,-14.3948 687.103,-15.843 696.2108,-21.2559 697.5984,-14.3948"/>
</g>
<!-- Node7 -->
<g id="node8" class="node">
<title>Node7</title>
<polygon fill="none" stroke="#bfbfbf" points="984.5,-.5 984.5,-19.5 1064.5,-19.5 1064.5,-.5 984.5,-.5"/>
<text text-anchor="middle" x="1024.5" y="-7.5" font-family="FreeSans.ttf" font-size="10.00" fill="#000000">CoreExport.h</text>
</g>
<!-- Node5&#45;&gt;Node7 -->
<g id="edge7" class="edge">
<title>Node5&#45;&gt;Node7</title>
<path fill="none" stroke="#191970" d="M1024.5,-56.2455C1024.5,-48.9382 1024.5,-38.6944 1024.5,-29.7046"/>
<polygon fill="#191970" stroke="#191970" points="1028.0001,-29.6426 1024.5,-19.6427 1021.0001,-29.6427 1028.0001,-29.6426"/>
</g>
<!-- Node11 -->
<g id="node12" class="node">
<title>Node11</title>
<g id="a_node12"><a xlink:href="VectorDynSize_8h.html" target="_top" xlink:title="iDynTree/Core/VectorDynSize.h">
<polygon fill="none" stroke="#000000" points="116,-280.5 116,-299.5 283,-299.5 283,-280.5 116,-280.5"/>
<text text-anchor="middle" x="199.5" y="-287.5" font-family="FreeSans.ttf" font-size="10.00" fill="#000000">iDynTree/Core/VectorDynSize.h</text>
</a>
</g>
</g>
<!-- Node10&#45;&gt;Node11 -->
<g id="edge13" class="edge">
<title>Node10&#45;&gt;Node11</title>
<path fill="none" stroke="#191970" d="M274.5567,-453.9002C261.6511,-435.661 233.8022,-394.3846 217.5,-356 211.1162,-340.9688 206.3972,-323.0443 203.3963,-309.6708"/>
<polygon fill="#191970" stroke="#191970" points="206.7748,-308.73 201.2809,-299.6709 199.9264,-310.1788 206.7748,-308.73"/>
</g>
<!-- Node21 -->
<g id="node22" class="node">
<title>Node21</title>
<g id="a_node22"><a xlink:href="MatrixDynSize_8h.html" target="_top" xlink:title="iDynTree/Core/MatrixDynSize.h">
<polygon fill="none" stroke="#000000" points="227,-336.5 227,-355.5 394,-355.5 394,-336.5 227,-336.5"/>
<text text-anchor="middle" x="310.5" y="-343.5" font-family="FreeSans.ttf" font-size="10.00" fill="#000000">iDynTree/Core/MatrixDynSize.h</text>
</a>
</g>
</g>
<!-- Node10&#45;&gt;Node21 -->
<g id="edge25" class="edge">
<title>Node10&#45;&gt;Node21</title>
<path fill="none" stroke="#191970" d="M283.8732,-453.8845C288.6102,-434.6913 299.323,-391.286 305.6215,-365.7663"/>
<polygon fill="#191970" stroke="#191970" points="309.0958,-366.2957 308.094,-355.7484 302.2997,-364.6184 309.0958,-366.2957"/>
</g>
<!-- Node23 -->
<g id="node24" class="node">
<title>Node23</title>
<g id="a_node24"><a xlink:href="Transform_8h.html" target="_top" xlink:title="iDynTree/Core/Transform.h">
<polygon fill="none" stroke="#000000" points="463.5,-392.5 463.5,-411.5 609.5,-411.5 609.5,-392.5 463.5,-392.5"/>
<text text-anchor="middle" x="536.5" y="-399.5" font-family="FreeSans.ttf" font-size="10.00" fill="#000000">iDynTree/Core/Transform.h</text>
</a>
</g>
</g>
<!-- Node10&#45;&gt;Node23 -->
<g id="edge32" class="edge">
<title>Node10&#45;&gt;Node23</title>
<path fill="none" stroke="#191970" d="M321.064,-453.9581C365.73,-443.1857 438.4687,-425.6428 486.897,-413.9631"/>
<polygon fill="#191970" stroke="#191970" points="487.9426,-417.3113 496.8432,-411.5643 486.3013,-410.5065 487.9426,-417.3113"/>
</g>
<!-- Node11&#45;&gt;Node3 -->
<g id="edge24" class="edge">
<title>Node11&#45;&gt;Node3</title>
<path fill="none" stroke="#191970" d="M204.0152,-280.4485C215.6531,-256.9736 249.1131,-196.3135 296.5,-168 374.032,-121.6748 408.3145,-151.5079 496.5,-132 498.5295,-131.5511 500.6141,-131.0673 502.7121,-130.5634"/>
<polygon fill="#191970" stroke="#191970" points="503.6221,-133.9437 512.4688,-128.1138 501.9175,-127.1544 503.6221,-133.9437"/>
</g>
<!-- Node12 -->
<g id="node13" class="node">
<title>Node12</title>
<g id="a_node13"><a xlink:href="Span_8h.html" target="_top" xlink:title="iDynTree/Core/Span.h">
<polygon fill="none" stroke="#000000" points="320,-56.5 320,-75.5 441,-75.5 441,-56.5 320,-56.5"/>
<text text-anchor="middle" x="380.5" y="-63.5" font-family="FreeSans.ttf" font-size="10.00" fill="#000000">iDynTree/Core/Span.h</text>
</a>
</g>
</g>
<!-- Node11&#45;&gt;Node12 -->
<g id="edge14" class="edge">
<title>Node11&#45;&gt;Node12</title>
<path fill="none" stroke="#191970" d="M201.8313,-280.1812C205.2222,-266.9048 212.2492,-242.7351 222.5,-224 256.6855,-161.5199 323.1009,-107.3936 357.9356,-81.774"/>
<polygon fill="#191970" stroke="#191970" points="360.4183,-84.298 366.4721,-75.6031 356.3174,-78.625 360.4183,-84.298"/>
</g>
<!-- Node12&#45;&gt;Node6 -->
<g id="edge18" class="edge">
<title>Node12&#45;&gt;Node6</title>
<path fill="none" stroke="#191970" d="M438.4689,-56.494C485.86,-48.3989 554.7809,-35.891 624.0534,-19.9513"/>
<polygon fill="#191970" stroke="#191970" points="624.8801,-23.3526 633.8282,-17.6795 623.2954,-16.5343 624.8801,-23.3526"/>
</g>
<!-- Node13 -->
<g id="node14" class="node">
<title>Node13</title>
<polygon fill="none" stroke="#bfbfbf" points="717.5,-.5 717.5,-19.5 769.5,-19.5 769.5,-.5 717.5,-.5"/>
<text text-anchor="middle" x="743.5" y="-7.5" font-family="FreeSans.ttf" font-size="10.00" fill="#000000">cassert</text>
</g>
<!-- Node12&#45;&gt;Node13 -->
<g id="edge15" class="edge">
<title>Node12&#45;&gt;Node13</title>
<path fill="none" stroke="#191970" d="M441.0619,-58.2609C504.6132,-49.8816 607.3372,-35.6062 695.5,-20 699.3963,-19.3103 703.4602,-18.5413 707.5025,-17.7447"/>
<polygon fill="#191970" stroke="#191970" points="708.2937,-21.1555 717.3979,-15.7366 706.9015,-14.2954 708.2937,-21.1555"/>
</g>
<!-- Node14 -->
<g id="node15" class="node">
<title>Node14</title>
<polygon fill="none" stroke="#bfbfbf" points="211.5,-.5 211.5,-19.5 275.5,-19.5 275.5,-.5 211.5,-.5"/>
<text text-anchor="middle" x="243.5" y="-7.5" font-family="FreeSans.ttf" font-size="10.00" fill="#000000">algorithm</text>
</g>
<!-- Node12&#45;&gt;Node14 -->
<g id="edge16" class="edge">
<title>Node12&#45;&gt;Node14</title>
<path fill="none" stroke="#191970" d="M356.9489,-56.3733C334.6609,-47.2629 301.0063,-33.5062 276.1363,-23.3404"/>
<polygon fill="#191970" stroke="#191970" points="277.3247,-20.0451 266.7438,-19.5011 274.6761,-26.5247 277.3247,-20.0451"/>
</g>
<!-- Node15 -->
<g id="node16" class="node">
<title>Node15</title>
<polygon fill="none" stroke="#bfbfbf" points="293.5,-.5 293.5,-19.5 335.5,-19.5 335.5,-.5 293.5,-.5"/>
<text text-anchor="middle" x="314.5" y="-7.5" font-family="FreeSans.ttf" font-size="10.00" fill="#000000">array</text>
</g>
<!-- Node12&#45;&gt;Node15 -->
<g id="edge17" class="edge">
<title>Node12&#45;&gt;Node15</title>
<path fill="none" stroke="#191970" d="M369.0037,-56.2455C359.2558,-47.9746 345.0741,-35.9416 333.6202,-26.2232"/>
<polygon fill="#191970" stroke="#191970" points="335.7541,-23.4437 325.8646,-19.6427 331.2253,-28.7813 335.7541,-23.4437"/>
</g>
<!-- Node16 -->
<g id="node17" class="node">
<title>Node16</title>
<polygon fill="none" stroke="#bfbfbf" points="354,-.5 354,-19.5 407,-19.5 407,-.5 354,-.5"/>
<text text-anchor="middle" x="380.5" y="-7.5" font-family="FreeSans.ttf" font-size="10.00" fill="#000000">iterator</text>
</g>
<!-- Node12&#45;&gt;Node16 -->
<g id="edge19" class="edge">
<title>Node12&#45;&gt;Node16</title>
<path fill="none" stroke="#191970" d="M380.5,-56.2455C380.5,-48.9382 380.5,-38.6944 380.5,-29.7046"/>
<polygon fill="#191970" stroke="#191970" points="384.0001,-29.6426 380.5,-19.6427 377.0001,-29.6427 384.0001,-29.6426"/>
</g>
<!-- Node17 -->
<g id="node18" class="node">
<title>Node17</title>
<polygon fill="none" stroke="#bfbfbf" points="425.5,-.5 425.5,-19.5 469.5,-19.5 469.5,-.5 425.5,-.5"/>
<text text-anchor="middle" x="447.5" y="-7.5" font-family="FreeSans.ttf" font-size="10.00" fill="#000000">limits</text>
</g>
<!-- Node12&#45;&gt;Node17 -->
<g id="edge20" class="edge">
<title>Node12&#45;&gt;Node17</title>
<path fill="none" stroke="#191970" d="M392.1705,-56.2455C402.0661,-47.9746 416.4627,-35.9416 428.0901,-26.2232"/>
<polygon fill="#191970" stroke="#191970" points="430.535,-28.7413 435.9632,-19.6427 426.0458,-23.3703 430.535,-28.7413"/>
</g>
<!-- Node18 -->
<g id="node19" class="node">
<title>Node18</title>
<polygon fill="none" stroke="#bfbfbf" points="488,-.5 488,-19.5 553,-19.5 553,-.5 488,-.5"/>
<text text-anchor="middle" x="520.5" y="-7.5" font-family="FreeSans.ttf" font-size="10.00" fill="#000000">stdexcept</text>
</g>
<!-- Node12&#45;&gt;Node18 -->
<g id="edge21" class="edge">
<title>Node12&#45;&gt;Node18</title>
<path fill="none" stroke="#191970" d="M404.5669,-56.3733C427.3428,-47.2629 461.7344,-33.5062 487.149,-23.3404"/>
<polygon fill="#191970" stroke="#191970" points="488.7623,-26.4648 496.7472,-19.5011 486.1625,-19.9654 488.7623,-26.4648"/>
</g>
<!-- Node19 -->
<g id="node20" class="node">
<title>Node19</title>
<polygon fill="none" stroke="#bfbfbf" points="124,-.5 124,-19.5 193,-19.5 193,-.5 124,-.5"/>
<text text-anchor="middle" x="158.5" y="-7.5" font-family="FreeSans.ttf" font-size="10.00" fill="#000000">type_traits</text>
</g>
<!-- Node12&#45;&gt;Node19 -->
<g id="edge22" class="edge">
<title>Node12&#45;&gt;Node19</title>
<path fill="none" stroke="#191970" d="M342.5891,-56.4369C303.9197,-46.6824 243.9464,-31.5541 203.0373,-21.2346"/>
<polygon fill="#191970" stroke="#191970" points="203.8819,-17.8381 193.3296,-18.7858 202.1697,-24.6255 203.8819,-17.8381"/>
</g>
<!-- Node20 -->
<g id="node21" class="node">
<title>Node20</title>
<polygon fill="none" stroke="#bfbfbf" points="571,-.5 571,-19.5 616,-19.5 616,-.5 571,-.5"/>
<text text-anchor="middle" x="593.5" y="-7.5" font-family="FreeSans.ttf" font-size="10.00" fill="#000000">utility</text>
</g>
<!-- Node12&#45;&gt;Node20 -->
<g id="edge23" class="edge">
<title>Node12&#45;&gt;Node20</title>
<path fill="none" stroke="#191970" d="M420.5666,-56.4755C455.2705,-48.0788 507.0251,-35.2068 561.0643,-20.0148"/>
<polygon fill="#191970" stroke="#191970" points="562.1508,-23.3448 570.8196,-17.2537 560.2444,-16.6094 562.1508,-23.3448"/>
</g>
<!-- Node21&#45;&gt;Node3 -->
<g id="edge26" class="edge">
<title>Node21&#45;&gt;Node3</title>
<path fill="none" stroke="#191970" d="M308.4196,-336.3468C302.6668,-306.8047 289.7751,-216.6804 334.5,-168 384.4003,-113.6865 424.8227,-149.3885 496.5,-132 498.5199,-131.51 500.5973,-130.9949 502.6899,-130.4678"/>
<polygon fill="#191970" stroke="#191970" points="503.6208,-133.8424 512.4334,-127.9612 501.8767,-127.0631 503.6208,-133.8424"/>
</g>
<!-- Node22 -->
<g id="node23" class="node">
<title>Node22</title>
<g id="a_node23"><a xlink:href="MatrixView_8h.html" target="_top" xlink:title="iDynTree/Core/MatrixView.h">
<polygon fill="none" stroke="#000000" points="575,-112.5 575,-131.5 726,-131.5 726,-112.5 575,-112.5"/>
<text text-anchor="middle" x="650.5" y="-119.5" font-family="FreeSans.ttf" font-size="10.00" fill="#000000">iDynTree/Core/MatrixView.h</text>
</a>
</g>
</g>
<!-- Node21&#45;&gt;Node22 -->
<g id="edge27" class="edge">
<title>Node21&#45;&gt;Node22</title>
<path fill="none" stroke="#191970" d="M321.3107,-336.4726C345.9194,-315.0182 408.4117,-261.8407 465.5,-224 518.3981,-188.9368 584.3079,-154.6725 621.4716,-136.1466"/>
<polygon fill="#191970" stroke="#191970" points="623.3085,-139.1426 630.7162,-131.5678 620.2016,-132.8699 623.3085,-139.1426"/>
</g>
<!-- Node22&#45;&gt;Node5 -->
<g id="edge31" class="edge">
<title>Node22&#45;&gt;Node5</title>
<path fill="none" stroke="#191970" d="M714.3679,-112.4369C781.2813,-102.4178 886.0591,-86.7291 955.0065,-76.4054"/>
<polygon fill="#191970" stroke="#191970" points="955.5389,-79.8648 964.9103,-74.9225 954.5023,-72.942 955.5389,-79.8648"/>
</g>
<!-- Node22&#45;&gt;Node12 -->
<g id="edge30" class="edge">
<title>Node22&#45;&gt;Node12</title>
<path fill="none" stroke="#191970" d="M604.3921,-112.4369C557.8925,-102.7925 486.0641,-87.8948 436.36,-77.5858"/>
<polygon fill="#191970" stroke="#191970" points="436.9201,-74.1275 426.4177,-75.5237 435.4985,-80.9817 436.9201,-74.1275"/>
</g>
<!-- Node22&#45;&gt;Node13 -->
<g id="edge28" class="edge">
<title>Node22&#45;&gt;Node13</title>
<path fill="none" stroke="#191970" d="M658.4291,-112.4509C674.0777,-93.6054 709.1358,-51.3849 729.017,-27.4419"/>
<polygon fill="#191970" stroke="#191970" points="731.8953,-29.4543 735.5909,-19.5249 726.5099,-24.9824 731.8953,-29.4543"/>
</g>
<!-- Node22&#45;&gt;Node19 -->
<g id="edge29" class="edge">
<title>Node22&#45;&gt;Node19</title>
<path fill="none" stroke="#191970" d="M574.6807,-112.8613C482.2858,-101.55 335.3504,-82.9327 310.5,-76 264.7411,-63.2342 214.7717,-39.4766 185.0626,-24.2188"/>
<polygon fill="#191970" stroke="#191970" points="186.6465,-21.0975 176.1597,-19.5883 183.4165,-27.3078 186.6465,-21.0975"/>
</g>
<!-- Node23&#45;&gt;Node3 -->
<g id="edge61" class="edge">
<title>Node23&#45;&gt;Node3</title>
<path fill="none" stroke="#191970" d="M520.5071,-392.4943C507.8457,-384.2496 490.5159,-371.2594 479.5,-356 463.9413,-334.4479 463.2428,-326.1548 458.5,-300 450.1827,-254.133 468.7284,-191.568 482.5,-168 489.4361,-156.1298 500.5145,-145.7054 510.6669,-137.7948"/>
<polygon fill="#191970" stroke="#191970" points="512.8837,-140.5091 518.8658,-131.7646 508.7363,-134.87 512.8837,-140.5091"/>
</g>
<!-- Node24 -->
<g id="node25" class="node">
<title>Node24</title>
<g id="a_node25"><a xlink:href="Position_8h.html" target="_top" xlink:title="iDynTree/Core/Position.h">
<polygon fill="none" stroke="#000000" points="500.5,-336.5 500.5,-355.5 636.5,-355.5 636.5,-336.5 500.5,-336.5"/>
<text text-anchor="middle" x="568.5" y="-343.5" font-family="FreeSans.ttf" font-size="10.00" fill="#000000">iDynTree/Core/Position.h</text>
</a>
</g>
</g>
<!-- Node23&#45;&gt;Node24 -->
<g id="edge33" class="edge">
<title>Node23&#45;&gt;Node24</title>
<path fill="none" stroke="#191970" d="M542.074,-392.2455C546.4331,-384.617 552.6211,-373.7881 557.9133,-364.5267"/>
<polygon fill="#191970" stroke="#191970" points="561.0673,-366.0616 562.9899,-355.6427 554.9896,-362.5886 561.0673,-366.0616"/>
</g>
<!-- Node29 -->
<g id="node30" class="node">
<title>Node29</title>
<g id="a_node30"><a xlink:href="Rotation_8h.html" target="_top" xlink:title="iDynTree/Core/Rotation.h">
<polygon fill="none" stroke="#000000" points="687,-280.5 687,-299.5 824,-299.5 824,-280.5 687,-280.5"/>
<text text-anchor="middle" x="755.5" y="-287.5" font-family="FreeSans.ttf" font-size="10.00" fill="#000000">iDynTree/Core/Rotation.h</text>
</a>
</g>
</g>
<!-- Node23&#45;&gt;Node29 -->
<g id="edge59" class="edge">
<title>Node23&#45;&gt;Node29</title>
<path fill="none" stroke="#191970" d="M562.069,-392.3919C584.4558,-383.7023 617.6632,-370.136 645.5,-356 676.4278,-340.2944 710.4391,-319.2695 732.334,-305.2112"/>
<polygon fill="#191970" stroke="#191970" points="734.4368,-308.0194 740.9314,-299.6486 730.6342,-302.1423 734.4368,-308.0194"/>
</g>
<!-- Node32 -->
<g id="node33" class="node">
<title>Node32</title>
<g id="a_node33"><a xlink:href="MatrixFixSize_8h.html" target="_top" xlink:title="iDynTree/Core/MatrixFixSize.h">
<polygon fill="none" stroke="#000000" points="712,-168.5 712,-187.5 873,-187.5 873,-168.5 712,-168.5"/>
<text text-anchor="middle" x="792.5" y="-175.5" font-family="FreeSans.ttf" font-size="10.00" fill="#000000">iDynTree/Core/MatrixFixSize.h</text>
</a>
</g>
</g>
<!-- Node23&#45;&gt;Node32 -->
<g id="edge60" class="edge">
<title>Node23&#45;&gt;Node32</title>
<path fill="none" stroke="#191970" d="M522.9247,-392.3651C512.378,-384.0454 498.4187,-371.0174 491.5,-356 466.881,-302.5637 443.0614,-268.5422 481.5,-224 495.8421,-207.3805 614.9825,-193.4827 701.5386,-185.4493"/>
<polygon fill="#191970" stroke="#191970" points="702.0189,-188.9201 711.6581,-184.5229 701.3806,-181.9492 702.0189,-188.9201"/>
</g>
<!-- Node24&#45;&gt;Node3 -->
<g id="edge58" class="edge">
<title>Node24&#45;&gt;Node3</title>
<path fill="none" stroke="#191970" d="M555.9008,-336.403C535.6137,-320.0594 496.4705,-284.6205 481.5,-244 467.4888,-205.9825 497.5785,-162.7704 517.9002,-139.3417"/>
<polygon fill="#191970" stroke="#191970" points="520.7404,-141.4188 524.8454,-131.6515 515.5454,-136.7271 520.7404,-141.4188"/>
</g>
<!-- Node25 -->
<g id="node26" class="node">
<title>Node25</title>
<g id="a_node26"><a xlink:href="PositionRaw_8h.html" target="_top" xlink:title="iDynTree/Core/PositionRaw.h">
<polygon fill="none" stroke="#000000" points="490.5,-224.5 490.5,-243.5 646.5,-243.5 646.5,-224.5 490.5,-224.5"/>
<text text-anchor="middle" x="568.5" y="-231.5" font-family="FreeSans.ttf" font-size="10.00" fill="#000000">iDynTree/Core/PositionRaw.h</text>
</a>
</g>
</g>
<!-- Node24&#45;&gt;Node25 -->
<g id="edge34" class="edge">
<title>Node24&#45;&gt;Node25</title>
<path fill="none" stroke="#191970" d="M568.5,-336.4509C568.5,-318.184 568.5,-277.9553 568.5,-253.6976"/>
<polygon fill="#191970" stroke="#191970" points="572.0001,-253.5249 568.5,-243.5249 565.0001,-253.5249 572.0001,-253.5249"/>
</g>
<!-- Node24&#45;&gt;Node29 -->
<g id="edge43" class="edge">
<title>Node24&#45;&gt;Node29</title>
<path fill="none" stroke="#191970" d="M600.6464,-336.3733C632.0109,-326.9807 679.8665,-312.6496 714.0716,-302.4064"/>
<polygon fill="#191970" stroke="#191970" points="715.1975,-305.7229 723.773,-299.5011 713.1893,-299.0171 715.1975,-305.7229"/>
</g>
<!-- Node25&#45;&gt;Node3 -->
<g id="edge42" class="edge">
<title>Node25&#45;&gt;Node3</title>
<path fill="none" stroke="#191970" d="M565.6012,-224.4509C560.0308,-206.1013 547.7329,-165.5908 540.38,-141.3693"/>
<polygon fill="#191970" stroke="#191970" points="543.6455,-140.077 537.3915,-131.5249 536.9473,-142.1104 543.6455,-140.077"/>
</g>
<!-- Node26 -->
<g id="node27" class="node">
<title>Node26</title>
<g id="a_node27"><a xlink:href="VectorFixSize_8h.html" target="_top" xlink:title="iDynTree/Core/VectorFixSize.h">
<polygon fill="none" stroke="#000000" points="891,-168.5 891,-187.5 1052,-187.5 1052,-168.5 891,-168.5"/>
<text text-anchor="middle" x="971.5" y="-175.5" font-family="FreeSans.ttf" font-size="10.00" fill="#000000">iDynTree/Core/VectorFixSize.h</text>
</a>
</g>
</g>
<!-- Node25&#45;&gt;Node26 -->
<g id="edge35" class="edge">
<title>Node25&#45;&gt;Node26</title>
<path fill="none" stroke="#191970" d="M637.3203,-224.4369C708.1742,-214.5912 818.4287,-199.2705 892.7263,-188.9462"/>
<polygon fill="#191970" stroke="#191970" points="893.5405,-192.3668 902.9636,-187.5237 892.577,-185.4334 893.5405,-192.3668"/>
</g>
<!-- Node26&#45;&gt;Node3 -->
<g id="edge38" class="edge">
<title>Node26&#45;&gt;Node3</title>
<path fill="none" stroke="#191970" d="M890.8115,-168.9586C785.913,-157.1919 611.5349,-137.5844 566.7976,-131.3582"/>
<polygon fill="#191970" stroke="#191970" points="567.1329,-127.8675 556.7064,-129.7487 566.0303,-134.7801 567.1329,-127.8675"/>
</g>
<!-- Node26&#45;&gt;Node5 -->
<g id="edge36" class="edge">
<title>Node26&#45;&gt;Node5</title>
<path fill="none" stroke="#191970" d="M973.8524,-168.28C977.2345,-155.1157 984.1128,-131.0726 993.5,-112 998.3096,-102.2282 1004.9197,-92.1127 1010.8009,-83.8643"/>
<polygon fill="#191970" stroke="#191970" points="1013.6641,-85.8786 1016.7768,-75.7513 1008.0281,-81.7271 1013.6641,-85.8786"/>
</g>
<!-- Node26&#45;&gt;Node12 -->
<g id="edge37" class="edge">
<title>Node26&#45;&gt;Node12</title>
<path fill="none" stroke="#191970" d="M961.8031,-168.275C946.089,-153.2078 913.3873,-124.6437 879.5,-112 802.872,-83.4092 569.632,-72.0022 451.1632,-67.9601"/>
<polygon fill="#191970" stroke="#191970" points="451.2148,-64.46 441.1038,-67.6252 450.9818,-71.4561 451.2148,-64.46"/>
</g>
<!-- Node26&#45;&gt;Node13 -->
<g id="edge40" class="edge">
<title>Node26&#45;&gt;Node13</title>
<path fill="none" stroke="#191970" d="M964.108,-168.2349C953.4694,-154.5914 932.7707,-129.5311 911.5,-112 866.613,-75.0046 807.0103,-42.05 772.195,-24.1596"/>
<polygon fill="#191970" stroke="#191970" points="773.5662,-20.9305 763.0654,-19.5223 770.3961,-27.1716 773.5662,-20.9305"/>
</g>
<!-- Node27 -->
<g id="node28" class="node">
<title>Node27</title>
<polygon fill="none" stroke="#bfbfbf" points="1002.5,-112.5 1002.5,-131.5 1058.5,-131.5 1058.5,-112.5 1002.5,-112.5"/>
<text text-anchor="middle" x="1030.5" y="-119.5" font-family="FreeSans.ttf" font-size="10.00" fill="#000000">sstream</text>
</g>
<!-- Node26&#45;&gt;Node27 -->
<g id="edge39" class="edge">
<title>Node26&#45;&gt;Node27</title>
<path fill="none" stroke="#191970" d="M981.777,-168.2455C990.3218,-160.1352 1002.6778,-148.4075 1012.8085,-138.7919"/>
<polygon fill="#191970" stroke="#191970" points="1015.4972,-141.0655 1020.3408,-131.6427 1010.6782,-135.9884 1015.4972,-141.0655"/>
</g>
<!-- Node28 -->
<g id="node29" class="node">
<title>Node28</title>
<polygon fill="none" stroke="#bfbfbf" points="820.5,-112.5 820.5,-131.5 870.5,-131.5 870.5,-112.5 820.5,-112.5"/>
<text text-anchor="middle" x="845.5" y="-119.5" font-family="FreeSans.ttf" font-size="10.00" fill="#000000">cstring</text>
</g>
<!-- Node26&#45;&gt;Node28 -->
<g id="edge41" class="edge">
<title>Node26&#45;&gt;Node28</title>
<path fill="none" stroke="#191970" d="M949.8398,-168.3733C929.5228,-159.3435 898.936,-145.7494 876.125,-135.6111"/>
<polygon fill="#191970" stroke="#191970" points="877.4372,-132.3642 866.8775,-131.5011 874.5941,-138.7609 877.4372,-132.3642"/>
</g>
<!-- Node29&#45;&gt;Node3 -->
<g id="edge44" class="edge">
<title>Node29&#45;&gt;Node3</title>
<path fill="none" stroke="#191970" d="M742.1499,-280.1914C729.5624,-270.9203 710.1905,-256.5936 693.5,-244 643.4475,-206.2335 585.0723,-161.182 554.8951,-137.817"/>
<polygon fill="#191970" stroke="#191970" points="556.8668,-134.917 546.818,-131.5596 552.5797,-140.4507 556.8668,-134.917"/>
</g>
<!-- Node29&#45;&gt;Node26 -->
<g id="edge57" class="edge">
<title>Node29&#45;&gt;Node26</title>
<path fill="none" stroke="#191970" d="M783.3361,-280.459C806.8329,-272.0096 841.0884,-258.7523 869.5,-244 898.688,-228.8446 930.1605,-207.6661 950.3063,-193.424"/>
<polygon fill="#191970" stroke="#191970" points="952.3585,-196.2594 958.4617,-187.599 948.2899,-190.5631 952.3585,-196.2594"/>
</g>
<!-- Node30 -->
<g id="node31" class="node">
<title>Node30</title>
<g id="a_node31"><a xlink:href="GeomVector3_8h.html" target="_top" xlink:title="iDynTree/Core/GeomVector3.h">
<polygon fill="none" stroke="#000000" points="955,-224.5 955,-243.5 1118,-243.5 1118,-224.5 955,-224.5"/>
<text text-anchor="middle" x="1036.5" y="-231.5" font-family="FreeSans.ttf" font-size="10.00" fill="#000000">iDynTree/Core/GeomVector3.h</text>
</a>
</g>
</g>
<!-- Node29&#45;&gt;Node30 -->
<g id="edge45" class="edge">
<title>Node29&#45;&gt;Node30</title>
<path fill="none" stroke="#191970" d="M803.4863,-280.4369C851.9814,-270.7724 926.9473,-255.8326 978.6879,-245.5213"/>
<polygon fill="#191970" stroke="#191970" points="979.5885,-248.9107 988.7116,-243.5237 978.2203,-242.0457 979.5885,-248.9107"/>
</g>
<!-- Node31 -->
<g id="node32" class="node">
<title>Node31</title>
<g id="a_node32"><a xlink:href="RotationRaw_8h.html" target="_top" xlink:title="iDynTree/Core/RotationRaw.h">
<polygon fill="none" stroke="#000000" points="702.5,-224.5 702.5,-243.5 860.5,-243.5 860.5,-224.5 702.5,-224.5"/>
<text text-anchor="middle" x="781.5" y="-231.5" font-family="FreeSans.ttf" font-size="10.00" fill="#000000">iDynTree/Core/RotationRaw.h</text>
</a>
</g>
</g>
<!-- Node29&#45;&gt;Node31 -->
<g id="edge47" class="edge">
<title>Node29&#45;&gt;Node31</title>
<path fill="none" stroke="#191970" d="M760.0289,-280.2455C763.5334,-272.6973 768.4927,-262.0158 772.7623,-252.8197"/>
<polygon fill="#191970" stroke="#191970" points="775.9864,-254.1867 777.023,-243.6427 769.6373,-251.2389 775.9864,-254.1867"/>
</g>
<!-- Node30&#45;&gt;Node26 -->
<g id="edge46" class="edge">
<title>Node30&#45;&gt;Node26</title>
<path fill="none" stroke="#191970" d="M1025.1779,-224.2455C1015.5777,-215.9746 1001.6108,-203.9416 990.3305,-194.2232"/>
<polygon fill="#191970" stroke="#191970" points="992.553,-191.5182 982.6924,-187.6427 987.984,-196.8214 992.553,-191.5182"/>
</g>
<!-- Node31&#45;&gt;Node3 -->
<g id="edge56" class="edge">
<title>Node31&#45;&gt;Node3</title>
<path fill="none" stroke="#191970" d="M765.6898,-224.4949C742.7784,-210.9421 698.784,-185.7441 659.5,-168 628.4305,-153.9663 591.6895,-140.8403 566.1138,-132.2309"/>
<polygon fill="#191970" stroke="#191970" points="567.152,-128.8877 556.5584,-129.0495 564.9407,-135.5293 567.152,-128.8877"/>
</g>
<!-- Node31&#45;&gt;Node32 -->
<g id="edge48" class="edge">
<title>Node31&#45;&gt;Node32</title>
<path fill="none" stroke="#191970" d="M783.4161,-224.2455C784.8514,-216.9382 786.8636,-206.6944 788.6295,-197.7046"/>
<polygon fill="#191970" stroke="#191970" points="792.1127,-198.1298 790.6059,-187.6427 785.244,-196.7805 792.1127,-198.1298"/>
</g>
<!-- Node32&#45;&gt;Node3 -->
<g id="edge53" class="edge">
<title>Node32&#45;&gt;Node3</title>
<path fill="none" stroke="#191970" d="M736.5925,-168.4764C692.6543,-160.5818 629.773,-148.3832 566.5068,-132.0581"/>
<polygon fill="#191970" stroke="#191970" points="567.3231,-128.654 556.763,-129.5114 565.5529,-135.4265 567.3231,-128.654"/>
</g>
<!-- Node32&#45;&gt;Node5 -->
<g id="edge49" class="edge">
<title>Node32&#45;&gt;Node5</title>
<path fill="none" stroke="#191970" d="M792.3706,-168.3583C792.7307,-153.925 795.6452,-126.8176 811.5,-112 832.0783,-92.7679 900.7801,-80.3459 954.6609,-73.3183"/>
<polygon fill="#191970" stroke="#191970" points="955.3952,-76.7534 964.877,-72.0264 954.5169,-69.8087 955.3952,-76.7534"/>
</g>
<!-- Node32&#45;&gt;Node13 -->
<g id="edge51" class="edge">
<title>Node32&#45;&gt;Node13</title>
<path fill="none" stroke="#191970" d="M789.7252,-168.4862C781.9459,-141.8144 759.8076,-65.9117 749.2444,-29.695"/>
<polygon fill="#191970" stroke="#191970" points="752.5265,-28.4479 746.3665,-19.8279 745.8065,-30.4079 752.5265,-28.4479"/>
</g>
<!-- Node32&#45;&gt;Node22 -->
<g id="edge50" class="edge">
<title>Node32&#45;&gt;Node22</title>
<path fill="none" stroke="#191970" d="M768.0893,-168.3733C744.8858,-159.2226 709.7962,-145.3844 683.9858,-135.2057"/>
<polygon fill="#191970" stroke="#191970" points="685.1789,-131.9139 674.5921,-131.5011 682.6108,-138.4258 685.1789,-131.9139"/>
</g>
<!-- Node32&#45;&gt;Node27 -->
<g id="edge55" class="edge">
<title>Node32&#45;&gt;Node27</title>
<path fill="none" stroke="#191970" d="M833.1432,-168.4369C877.76,-157.9388 948.8312,-141.2162 992.4077,-130.9629"/>
<polygon fill="#191970" stroke="#191970" points="993.3977,-134.3256 1002.3303,-128.6282 991.7944,-127.5117 993.3977,-134.3256"/>
</g>
<!-- Node32&#45;&gt;Node28 -->
<g id="edge52" class="edge">
<title>Node32&#45;&gt;Node28</title>
<path fill="none" stroke="#191970" d="M801.7319,-168.2455C809.3317,-160.2155 820.2877,-148.6394 829.3368,-139.0781"/>
<polygon fill="#191970" stroke="#191970" points="832.0421,-141.3115 836.3739,-131.6427 826.958,-136.4998 832.0421,-141.3115"/>
</g>
<!-- Node33 -->
<g id="node34" class="node">
<title>Node33</title>
<polygon fill="none" stroke="#bfbfbf" points="1157.5,-112.5 1157.5,-131.5 1217.5,-131.5 1217.5,-112.5 1157.5,-112.5"/>
<text text-anchor="middle" x="1187.5" y="-119.5" font-family="FreeSans.ttf" font-size="10.00" fill="#000000">iostream</text>
</g>
<!-- Node32&#45;&gt;Node33 -->
<g id="edge54" class="edge">
<title>Node32&#45;&gt;Node33</title>
<path fill="none" stroke="#191970" d="M859.9541,-168.4369C942.3615,-156.7538 1079.1455,-137.3617 1146.8975,-127.7563"/>
<polygon fill="#191970" stroke="#191970" points="1147.7499,-131.1705 1157.1596,-126.3014 1146.7673,-124.2398 1147.7499,-131.1705"/>
</g>
<!-- Node36&#45;&gt;Node5 -->
<g id="edge86" class="edge">
<title>Node36&#45;&gt;Node5</title>
<path fill="none" stroke="#191970" d="M1155.6882,-515.4438C1217.1522,-489.3934 1374.5,-410.8978 1374.5,-290 1374.5,-290 1374.5,-290 1374.5,-178 1374.5,-127.6776 1328.8623,-131.5673 1282.5,-112 1221.9538,-86.4463 1147.5972,-75.0846 1094.2891,-70.0349"/>
<polygon fill="#191970" stroke="#191970" points="1094.5264,-66.5423 1084.2537,-69.1351 1093.9012,-73.5143 1094.5264,-66.5423"/>
</g>
<!-- Node36&#45;&gt;Node11 -->
<g id="edge67" class="edge">
<title>Node36&#45;&gt;Node11</title>
<path fill="none" stroke="#191970" d="M1050.9724,-524.0469C828.515,-521.0222 219.9684,-509.9441 190.5,-479 146.3936,-432.6848 174.5812,-347.4994 190.6108,-309.3564"/>
<polygon fill="#191970" stroke="#191970" points="193.9388,-310.4816 194.7394,-299.917 187.5254,-307.6765 193.9388,-310.4816"/>
</g>
<!-- Node36&#45;&gt;Node21 -->
<g id="edge69" class="edge">
<title>Node36&#45;&gt;Node21</title>
<path fill="none" stroke="#191970" d="M1050.6306,-520.817C961.5293,-515.2283 814.3009,-503.0947 689.5,-479 582.8628,-458.4121 556.3816,-449.6232 454.5,-412 413.0117,-396.679 366.8214,-374.5612 338.2097,-360.2324"/>
<polygon fill="#191970" stroke="#191970" points="339.7173,-357.0728 329.2127,-355.6927 336.5639,-363.3223 339.7173,-357.0728"/>
</g>
<!-- Node36&#45;&gt;Node23 -->
<g id="edge85" class="edge">
<title>Node36&#45;&gt;Node23</title>
<path fill="none" stroke="#191970" d="M1050.7464,-515.9916C986.8233,-508.1923 895.4732,-495.5592 816.5,-479 729.8159,-460.824 630.2446,-431.3329 576.2955,-414.616"/>
<polygon fill="#191970" stroke="#191970" points="577.0372,-411.1812 566.4488,-411.5495 574.9558,-417.8646 577.0372,-411.1812"/>
</g>
<!-- Node36&#45;&gt;Node26 -->
<g id="edge68" class="edge">
<title>Node36&#45;&gt;Node26</title>
<path fill="none" stroke="#191970" d="M1141.1492,-515.4346C1149.15,-506.7723 1159.9262,-493.2221 1164.5,-479 1199.2839,-370.8403 1226.3521,-304.8213 1146.5,-224 1131.8343,-209.1563 1085.262,-197.3308 1043.848,-189.3883"/>
<polygon fill="#191970" stroke="#191970" points="1044.4784,-185.9456 1034.0063,-187.5534 1043.1954,-192.827 1044.4784,-185.9456"/>
</g>
<!-- Node36&#45;&gt;Node32 -->
<g id="edge70" class="edge">
<title>Node36&#45;&gt;Node32</title>
<path fill="none" stroke="#191970" d="M1148.5567,-515.377C1160.8089,-507.4014 1176.3708,-494.8248 1183.5,-479 1219.3878,-399.3385 1314.6849,-392.1532 1126.5,-224 1121.8761,-219.8683 976.9509,-201.0417 879.5427,-188.7909"/>
<polygon fill="#191970" stroke="#191970" points="879.7461,-185.2891 869.388,-187.5159 878.874,-192.2345 879.7461,-185.2891"/>
</g>
<!-- Node36&#45;&gt;Node35 -->
<g id="edge66" class="edge">
<title>Node36&#45;&gt;Node35</title>
<path fill="none" stroke="#191970" d="M1165.1288,-515.4575C1197.7122,-506.1962 1248.5159,-491.715 1292.5,-479 1296.0227,-477.9817 1299.6759,-476.9216 1303.342,-475.855"/>
<polygon fill="#191970" stroke="#191970" points="1304.3749,-479.1997 1312.9957,-473.0406 1302.4157,-472.4794 1304.3749,-479.1997"/>
</g>
<!-- Node37 -->
<g id="node38" class="node">
<title>Node37</title>
<g id="a_node38"><a xlink:href="SpatialMotionVector_8h.html" target="_top" xlink:title="iDynTree/Core/SpatialMotion\lVector.h">
<polygon fill="none" stroke="#000000" points="1001,-448.5 1001,-478.5 1156,-478.5 1156,-448.5 1001,-448.5"/>
<text text-anchor="start" x="1009" y="-466.5" font-family="FreeSans.ttf" font-size="10.00" fill="#000000">iDynTree/Core/SpatialMotion</text>
<text text-anchor="middle" x="1078.5" y="-455.5" font-family="FreeSans.ttf" font-size="10.00" fill="#000000">Vector.h</text>
</a>
</g>
</g>
<!-- Node36&#45;&gt;Node37 -->
<g id="edge71" class="edge">
<title>Node36&#45;&gt;Node37</title>
<path fill="none" stroke="#191970" d="M1123.2188,-515.3906C1116.5108,-507.6068 1106.7841,-496.3202 1098.1141,-486.2597"/>
<polygon fill="#191970" stroke="#191970" points="1100.6448,-483.8349 1091.4653,-478.5446 1095.3422,-488.4046 1100.6448,-483.8349"/>
</g>
<!-- Node39 -->
<g id="node40" class="node">
<title>Node39</title>
<g id="a_node40"><a xlink:href="SpatialForceVector_8h.html" target="_top" xlink:title="iDynTree/Core/SpatialForce\lVector.h">
<polygon fill="none" stroke="#000000" points="825.5,-448.5 825.5,-478.5 973.5,-478.5 973.5,-448.5 825.5,-448.5"/>
<text text-anchor="start" x="833.5" y="-466.5" font-family="FreeSans.ttf" font-size="10.00" fill="#000000">iDynTree/Core/SpatialForce</text>
<text text-anchor="middle" x="899.5" y="-455.5" font-family="FreeSans.ttf" font-size="10.00" fill="#000000">Vector.h</text>
</a>
</g>
</g>
<!-- Node36&#45;&gt;Node39 -->
<g id="edge81" class="edge">
<title>Node36&#45;&gt;Node39</title>
<path fill="none" stroke="#191970" d="M1095.5046,-515.4581C1061.0987,-506.3376 1008.3846,-492.3638 966.2865,-481.2042"/>
<polygon fill="#191970" stroke="#191970" points="966.9442,-477.7577 956.3812,-478.5784 965.1505,-484.524 966.9442,-477.7577"/>
</g>
<!-- Node37&#45;&gt;Node26 -->
<g id="edge72" class="edge">
<title>Node37&#45;&gt;Node26</title>
<path fill="none" stroke="#191970" d="M1088.8731,-448.2677C1115.2156,-407.5213 1179.0039,-294.3491 1126.5,-224 1115.5275,-209.2981 1075.3511,-197.6172 1038.6538,-189.7051"/>
<polygon fill="#191970" stroke="#191970" points="1038.9263,-186.1868 1028.4227,-187.5741 1037.4988,-193.0397 1038.9263,-186.1868"/>
</g>
<!-- Node37&#45;&gt;Node30 -->
<g id="edge73" class="edge">
<title>Node37&#45;&gt;Node30</title>
<path fill="none" stroke="#191970" d="M1083.2275,-448.409C1087.1483,-433.9202 1091.6152,-411.4303 1088.5,-392 1080.1941,-340.194 1057.4856,-282.3389 1045.0017,-253.1156"/>
<polygon fill="#191970" stroke="#191970" points="1048.1085,-251.4831 1040.9106,-243.7088 1041.6893,-254.2749 1048.1085,-251.4831"/>
</g>
<!-- Node38 -->
<g id="node39" class="node">
<title>Node38</title>
<g id="a_node39"><a xlink:href="SpatialVector_8h.html" target="_top" xlink:title="iDynTree/Core/SpatialVector.h">
<polygon fill="none" stroke="#000000" points="919,-392.5 919,-411.5 1080,-411.5 1080,-392.5 919,-392.5"/>
<text text-anchor="middle" x="999.5" y="-399.5" font-family="FreeSans.ttf" font-size="10.00" fill="#000000">iDynTree/Core/SpatialVector.h</text>
</a>
</g>
</g>
<!-- Node37&#45;&gt;Node38 -->
<g id="edge74" class="edge">
<title>Node37&#45;&gt;Node38</title>
<path fill="none" stroke="#191970" d="M1058.9719,-448.2977C1047.2063,-439.1384 1032.2325,-427.4816 1020.2535,-418.1562"/>
<polygon fill="#191970" stroke="#191970" points="1022.1898,-415.228 1012.1489,-411.8469 1017.8897,-420.7516 1022.1898,-415.228"/>
</g>
<!-- Node38&#45;&gt;Node5 -->
<g id="edge77" class="edge">
<title>Node38&#45;&gt;Node5</title>
<path fill="none" stroke="#191970" d="M1072.7434,-392.4621C1135.0989,-383.634 1219.3738,-369.8223 1250.5,-356 1294.5342,-336.4457 1336.5,-338.1807 1336.5,-290 1336.5,-290 1336.5,-290 1336.5,-178 1336.5,-126.8969 1186.3504,-92.7965 1094.3751,-76.7019"/>
<polygon fill="#191970" stroke="#191970" points="1094.736,-73.2127 1084.2876,-74.9678 1093.55,-80.1115 1094.736,-73.2127"/>
</g>
<!-- Node38&#45;&gt;Node24 -->
<g id="edge75" class="edge">
<title>Node38&#45;&gt;Node24</title>
<path fill="none" stroke="#191970" d="M925.8982,-392.4369C848.1975,-382.3412 726.192,-366.489 646.7703,-356.1697"/>
<polygon fill="#191970" stroke="#191970" points="647.1878,-352.6946 636.8202,-354.8769 646.2858,-359.6363 647.1878,-352.6946"/>
</g>
<!-- Node38&#45;&gt;Node27 -->
<g id="edge80" class="edge">
<title>Node38&#45;&gt;Node27</title>
<path fill="none" stroke="#191970" d="M1044.3675,-392.4393C1118.9913,-375.2313 1260.5,-336.4731 1260.5,-290 1260.5,-290 1260.5,-290 1260.5,-234 1260.5,-191.8421 1134.0146,-150.618 1068.6411,-132.1269"/>
<polygon fill="#191970" stroke="#191970" points="1069.275,-128.6702 1058.7025,-129.3577 1067.3961,-135.4134 1069.275,-128.6702"/>
</g>
<!-- Node38&#45;&gt;Node29 -->
<g id="edge76" class="edge">
<title>Node38&#45;&gt;Node29</title>
<path fill="none" stroke="#191970" d="M978.6967,-392.4509C935.4794,-372.6135 835.8366,-326.8758 785.6065,-303.8194"/>
<polygon fill="#191970" stroke="#191970" points="786.7991,-300.5157 776.2506,-299.5249 783.8788,-306.8775 786.7991,-300.5157"/>
</g>
<!-- Node38&#45;&gt;Node30 -->
<g id="edge78" class="edge">
<title>Node38&#45;&gt;Node30</title>
<path fill="none" stroke="#191970" d="M1001.5953,-392.4862C1007.4695,-365.8144 1024.1861,-289.9117 1032.1624,-253.695"/>
<polygon fill="#191970" stroke="#191970" points="1035.6027,-254.3467 1034.3355,-243.8279 1028.7665,-252.841 1035.6027,-254.3467"/>
</g>
<!-- Node38&#45;&gt;Node33 -->
<g id="edge79" class="edge">
<title>Node38&#45;&gt;Node33</title>
<path fill="none" stroke="#191970" d="M1077.9728,-392.426C1117.9861,-385.6325 1166.6861,-374.3523 1207.5,-356 1253.0672,-335.5103 1298.5,-339.962 1298.5,-290 1298.5,-290 1298.5,-290 1298.5,-234 1298.5,-188.029 1250.7396,-154.1769 1217.876,-136.325"/>
<polygon fill="#191970" stroke="#191970" points="1219.1249,-133.0291 1208.6395,-131.5099 1215.8889,-139.2362 1219.1249,-133.0291"/>
</g>
<!-- Node39&#45;&gt;Node26 -->
<g id="edge82" class="edge">
<title>Node39&#45;&gt;Node26</title>
<path fill="none" stroke="#191970" d="M898.3351,-448.3573C897.4918,-433.8311 896.9035,-411.315 899.5,-392 909.8142,-315.2751 916.0065,-295.5767 945.5,-224 949.4187,-214.4899 954.8924,-204.4861 959.8072,-196.2454"/>
<polygon fill="#191970" stroke="#191970" points="962.9206,-197.8648 965.1933,-187.5166 956.9634,-194.1889 962.9206,-197.8648"/>
</g>
<!-- Node39&#45;&gt;Node30 -->
<g id="edge83" class="edge">
<title>Node39&#45;&gt;Node30</title>
<path fill="none" stroke="#191970" d="M899.3133,-448.3624C899.6501,-433.4445 901.5926,-410.2932 909.5,-392 935.046,-332.9016 988.9365,-277.5819 1017.6151,-250.8202"/>
<polygon fill="#191970" stroke="#191970" points="1020.3156,-253.0926 1025.3193,-243.7538 1015.584,-247.9339 1020.3156,-253.0926"/>
</g>
<!-- Node39&#45;&gt;Node38 -->
<g id="edge84" class="edge">
<title>Node39&#45;&gt;Node38</title>
<path fill="none" stroke="#191970" d="M923.9628,-448.4554C939.6235,-438.8241 959.8532,-426.3828 975.4356,-416.7996"/>
<polygon fill="#191970" stroke="#191970" points="977.319,-419.7503 984.0035,-411.5303 973.652,-413.7876 977.319,-419.7503"/>
</g>
</g>
</svg>
