<?xml version="1.0" encoding="UTF-8" standalone="no"?>
<!DOCTYPE svg PUBLIC "-//W3C//DTD SVG 1.1//EN"
 "http://www.w3.org/Graphics/SVG/1.1/DTD/svg11.dtd">
<!-- Generated by graphviz version 2.40.1 (20161225.0304)
 -->
<!-- Title: RobotElement.h Pages: 1 -->
<svg width="1468pt" height="588pt"
 viewBox="0.00 0.00 1468.35 588.00" xmlns="http://www.w3.org/2000/svg" xmlns:xlink="http://www.w3.org/1999/xlink">
<g id="graph0" class="graph" transform="scale(1 1) rotate(0) translate(4 584)">
<title>RobotElement.h</title>
<!-- Node0 -->
<g id="node1" class="node">
<title>Node0</title>
<polygon fill="#bfbfbf" stroke="#000000" points="345.8494,-560.5 345.8494,-579.5 439.8494,-579.5 439.8494,-560.5 345.8494,-560.5"/>
<text text-anchor="middle" x="392.8494" y="-567.5" font-family="FreeSans.ttf" font-size="10.00" fill="#000000">RobotElement.h</text>
</g>
<!-- Node1 -->
<g id="node2" class="node">
<title>Node1</title>
<g id="a_node2"><a xlink:href="XMLElement_8h.html" target="_top" xlink:title="iDynTree/XMLElement.h">
<polygon fill="none" stroke="#000000" points="316.8494,-392.5 316.8494,-411.5 448.8494,-411.5 448.8494,-392.5 316.8494,-392.5"/>
<text text-anchor="middle" x="382.8494" y="-399.5" font-family="FreeSans.ttf" font-size="10.00" fill="#000000">iDynTree/XMLElement.h</text>
</a>
</g>
</g>
<!-- Node0&#45;&gt;Node1 -->
<g id="edge1" class="edge">
<title>Node0&#45;&gt;Node1</title>
<path fill="none" stroke="#191970" d="M392.2831,-560.4862C390.7024,-533.9293 386.2164,-458.5651 384.0497,-422.1655"/>
<polygon fill="#191970" stroke="#191970" points="387.5225,-421.6022 383.4344,-411.8279 380.5349,-422.0182 387.5225,-421.6022"/>
</g>
<!-- Node5 -->
<g id="node6" class="node">
<title>Node5</title>
<polygon fill="none" stroke="#bfbfbf" points="192.3494,-336.5 192.3494,-355.5 285.3494,-355.5 285.3494,-336.5 192.3494,-336.5"/>
<text text-anchor="middle" x="238.8494" y="-343.5" font-family="FreeSans.ttf" font-size="10.00" fill="#000000">unordered_map</text>
</g>
<!-- Node0&#45;&gt;Node5 -->
<g id="edge86" class="edge">
<title>Node0&#45;&gt;Node5</title>
<path fill="none" stroke="#191970" d="M345.8333,-562.2163C296.1224,-551.1058 220.7137,-525.2946 189.8494,-468 170.5797,-432.2288 201.8013,-387.2154 222.6125,-363.1092"/>
<polygon fill="#191970" stroke="#191970" points="225.364,-365.2835 229.4397,-355.504 220.155,-360.6074 225.364,-365.2835"/>
</g>
<!-- Node6 -->
<g id="node7" class="node">
<title>Node6</title>
<polygon fill="none" stroke="#bfbfbf" points="1413.3494,-336.5 1413.3494,-355.5 1460.3494,-355.5 1460.3494,-336.5 1413.3494,-336.5"/>
<text text-anchor="middle" x="1436.8494" y="-343.5" font-family="FreeSans.ttf" font-size="10.00" fill="#000000">vector</text>
</g>
<!-- Node0&#45;&gt;Node6 -->
<g id="edge87" class="edge">
<title>Node0&#45;&gt;Node6</title>
<path fill="none" stroke="#191970" d="M440.0728,-567.9906C570.8331,-561.6601 948.0975,-538.1977 1252.8494,-468 1326.6767,-450.9943 1360.2629,-465.555 1413.8494,-412 1426.1602,-399.6965 1431.896,-380.4604 1434.56,-365.9229"/>
<polygon fill="#191970" stroke="#191970" points="1438.0392,-366.3222 1436.0564,-355.9146 1431.1161,-365.2871 1438.0392,-366.3222"/>
</g>
<!-- Node7 -->
<g id="node8" class="node">
<title>Node7</title>
<g id="a_node8"><a xlink:href="JointElement_8h.html" target="_top" xlink:title="JointElement.h">
<polygon fill="none" stroke="#000000" points="198.8494,-448.5 198.8494,-467.5 286.8494,-467.5 286.8494,-448.5 198.8494,-448.5"/>
<text text-anchor="middle" x="242.8494" y="-455.5" font-family="FreeSans.ttf" font-size="10.00" fill="#000000">JointElement.h</text>
</a>
</g>
</g>
<!-- Node0&#45;&gt;Node7 -->
<g id="edge7" class="edge">
<title>Node0&#45;&gt;Node7</title>
<path fill="none" stroke="#191970" d="M367.5259,-560.4714C348.1481,-552.4667 321.3567,-539.8088 300.8494,-524 282.8411,-510.1176 266.1398,-490.025 255.329,-475.6611"/>
<polygon fill="#191970" stroke="#191970" points="258.132,-473.5647 249.4,-467.5645 252.4844,-477.7005 258.132,-473.5647"/>
</g>
<!-- Node34 -->
<g id="node35" class="node">
<title>Node34</title>
<g id="a_node35"><a xlink:href="MaterialElement_8h.html" target="_top" xlink:title="MaterialElement.h">
<polygon fill="none" stroke="#000000" points="418.8494,-448.5 418.8494,-467.5 524.8494,-467.5 524.8494,-448.5 418.8494,-448.5"/>
<text text-anchor="middle" x="471.8494" y="-455.5" font-family="FreeSans.ttf" font-size="10.00" fill="#000000">MaterialElement.h</text>
</a>
</g>
</g>
<!-- Node0&#45;&gt;Node34 -->
<g id="edge65" class="edge">
<title>Node0&#45;&gt;Node34</title>
<path fill="none" stroke="#191970" d="M399.5849,-560.4509C412.8195,-541.688 442.3974,-499.7548 459.3237,-475.758"/>
<polygon fill="#191970" stroke="#191970" points="462.2271,-477.714 465.131,-467.5249 456.5069,-473.6792 462.2271,-477.714"/>
</g>
<!-- Node35 -->
<g id="node36" class="node">
<title>Node35</title>
<g id="a_node36"><a xlink:href="VisualElement_8h.html" target="_top" xlink:title="VisualElement.h">
<polygon fill="none" stroke="#000000" points="504.8494,-504.5 504.8494,-523.5 600.8494,-523.5 600.8494,-504.5 504.8494,-504.5"/>
<text text-anchor="middle" x="552.8494" y="-511.5" font-family="FreeSans.ttf" font-size="10.00" fill="#000000">VisualElement.h</text>
</a>
</g>
</g>
<!-- Node0&#45;&gt;Node35 -->
<g id="edge70" class="edge">
<title>Node0&#45;&gt;Node35</title>
<path fill="none" stroke="#191970" d="M420.3544,-560.3733C446.7296,-551.1419 486.7346,-537.1402 515.8852,-526.9375"/>
<polygon fill="#191970" stroke="#191970" points="517.421,-530.1082 525.7034,-523.5011 515.1085,-523.5012 517.421,-530.1082"/>
</g>
<!-- Node2 -->
<g id="node3" class="node">
<title>Node2</title>
<polygon fill="none" stroke="#bfbfbf" points="303.3494,-336.5 303.3494,-355.5 368.3494,-355.5 368.3494,-336.5 303.3494,-336.5"/>
<text text-anchor="middle" x="335.8494" y="-343.5" font-family="FreeSans.ttf" font-size="10.00" fill="#000000">functional</text>
</g>
<!-- Node1&#45;&gt;Node2 -->
<g id="edge2" class="edge">
<title>Node1&#45;&gt;Node2</title>
<path fill="none" stroke="#191970" d="M374.6626,-392.2455C367.9906,-384.2958 358.4015,-372.8706 350.4241,-363.3656"/>
<polygon fill="#191970" stroke="#191970" points="353.052,-361.0524 343.9424,-355.6427 347.6902,-365.5525 353.052,-361.0524"/>
</g>
<!-- Node3 -->
<g id="node4" class="node">
<title>Node3</title>
<polygon fill="none" stroke="#bfbfbf" points="424.8494,-336.5 424.8494,-355.5 482.8494,-355.5 482.8494,-336.5 424.8494,-336.5"/>
<text text-anchor="middle" x="453.8494" y="-343.5" font-family="FreeSans.ttf" font-size="10.00" fill="#000000">memory</text>
</g>
<!-- Node1&#45;&gt;Node3 -->
<g id="edge3" class="edge">
<title>Node1&#45;&gt;Node3</title>
<path fill="none" stroke="#191970" d="M395.2167,-392.2455C405.8048,-383.8943 421.2558,-371.7076 433.6387,-361.9408"/>
<polygon fill="#191970" stroke="#191970" points="435.9397,-364.5837 441.6239,-355.6427 431.6047,-359.0875 435.9397,-364.5837"/>
</g>
<!-- Node4 -->
<g id="node5" class="node">
<title>Node4</title>
<polygon fill="none" stroke="#bfbfbf" points="602.8494,-112.5 602.8494,-131.5 646.8494,-131.5 646.8494,-112.5 602.8494,-112.5"/>
<text text-anchor="middle" x="624.8494" y="-119.5" font-family="FreeSans.ttf" font-size="10.00" fill="#000000">string</text>
</g>
<!-- Node1&#45;&gt;Node4 -->
<g id="edge4" class="edge">
<title>Node1&#45;&gt;Node4</title>
<path fill="none" stroke="#191970" d="M384.8553,-392.4619C388.7264,-373.1944 396.8494,-328.2117 396.8494,-290 396.8494,-290 396.8494,-290 396.8494,-234 396.8494,-190.8666 529.968,-148.2584 592.7725,-130.5563"/>
<polygon fill="#191970" stroke="#191970" points="593.8734,-133.8831 602.5727,-127.8356 592.0008,-127.1382 593.8734,-133.8831"/>
</g>
<!-- Node1&#45;&gt;Node5 -->
<g id="edge5" class="edge">
<title>Node1&#45;&gt;Node5</title>
<path fill="none" stroke="#191970" d="M358.0949,-392.3733C334.5646,-383.2226 298.9808,-369.3844 272.8068,-359.2057"/>
<polygon fill="#191970" stroke="#191970" points="273.8695,-355.8636 263.2809,-355.5011 271.3323,-362.3877 273.8695,-355.8636"/>
</g>
<!-- Node1&#45;&gt;Node6 -->
<g id="edge6" class="edge">
<title>Node1&#45;&gt;Node6</title>
<path fill="none" stroke="#191970" d="M449.1811,-398.4757C650.9644,-387.7548 1252.7581,-355.7809 1402.7139,-347.8136"/>
<polygon fill="#191970" stroke="#191970" points="1403.3095,-351.287 1413.1096,-347.2613 1402.938,-344.2969 1403.3095,-351.287"/>
</g>
<!-- Node7&#45;&gt;Node1 -->
<g id="edge8" class="edge">
<title>Node7&#45;&gt;Node1</title>
<path fill="none" stroke="#191970" d="M266.9163,-448.3733C289.6923,-439.2629 324.0838,-425.5062 349.4984,-415.3404"/>
<polygon fill="#191970" stroke="#191970" points="351.1117,-418.4648 359.0966,-411.5011 348.5119,-411.9654 351.1117,-418.4648"/>
</g>
<!-- Node7&#45;&gt;Node3 -->
<g id="edge62" class="edge">
<title>Node7&#45;&gt;Node3</title>
<path fill="none" stroke="#191970" d="M249.7448,-448.4734C260.5626,-434.1906 282.883,-407.2771 307.8494,-392 341.0463,-371.6867 384.04,-359.5607 414.7585,-352.9023"/>
<polygon fill="#191970" stroke="#191970" points="415.5907,-356.3043 424.6736,-350.8499 414.1718,-349.4496 415.5907,-356.3043"/>
</g>
<!-- Node7&#45;&gt;Node4 -->
<g id="edge63" class="edge">
<title>Node7&#45;&gt;Node4</title>
<path fill="none" stroke="#191970" d="M198.6063,-454.2552C141.2049,-448.5138 45.3744,-435.6345 19.8494,-412 -2.5483,-391.2612 .8494,-376.5246 .8494,-346 .8494,-346 .8494,-346 .8494,-234 .8494,-173.3073 464.0858,-134.0561 592.3035,-124.3543"/>
<polygon fill="#191970" stroke="#191970" points="592.9297,-127.8173 602.6409,-123.5815 592.4078,-120.8368 592.9297,-127.8173"/>
</g>
<!-- Node7&#45;&gt;Node5 -->
<g id="edge64" class="edge">
<title>Node7&#45;&gt;Node5</title>
<path fill="none" stroke="#191970" d="M241.1908,-448.1657C239.7135,-438.8764 237.6636,-424.5375 236.8494,-412 235.8496,-396.6049 236.4537,-379.1566 237.2517,-366.0683"/>
<polygon fill="#191970" stroke="#191970" points="240.76,-366.0702 237.9674,-355.8501 233.7771,-365.5811 240.76,-366.0702"/>
</g>
<!-- Node8 -->
<g id="node9" class="node">
<title>Node8</title>
<g id="a_node9"><a xlink:href="Axis_8h.html" target="_top" xlink:title="iDynTree/Core/Axis.h">
<polygon fill="none" stroke="#000000" points="28.8494,-392.5 28.8494,-411.5 146.8494,-411.5 146.8494,-392.5 28.8494,-392.5"/>
<text text-anchor="middle" x="87.8494" y="-399.5" font-family="FreeSans.ttf" font-size="10.00" fill="#000000">iDynTree/Core/Axis.h</text>
</a>
</g>
</g>
<!-- Node7&#45;&gt;Node8 -->
<g id="edge9" class="edge">
<title>Node7&#45;&gt;Node8</title>
<path fill="none" stroke="#191970" d="M216.204,-448.3733C190.653,-439.1419 151.8982,-425.1402 123.6585,-414.9375"/>
<polygon fill="#191970" stroke="#191970" points="124.7415,-411.6074 114.1472,-411.5011 122.3629,-418.1909 124.7415,-411.6074"/>
</g>
<!-- Node33 -->
<g id="node34" class="node">
<title>Node33</title>
<g id="a_node34"><a xlink:href="Transform_8h.html" target="_top" xlink:title="iDynTree/Core/Transform.h">
<polygon fill="none" stroke="#000000" points="830.8494,-392.5 830.8494,-411.5 976.8494,-411.5 976.8494,-392.5 830.8494,-392.5"/>
<text text-anchor="middle" x="903.8494" y="-399.5" font-family="FreeSans.ttf" font-size="10.00" fill="#000000">iDynTree/Core/Transform.h</text>
</a>
</g>
</g>
<!-- Node7&#45;&gt;Node33 -->
<g id="edge57" class="edge">
<title>Node7&#45;&gt;Node33</title>
<path fill="none" stroke="#191970" d="M286.8502,-455.1387C382.1114,-448.8072 614.7844,-432.6045 820.4659,-412.1047"/>
<polygon fill="#191970" stroke="#191970" points="820.9478,-415.574 830.5489,-411.0941 820.2496,-408.6089 820.9478,-415.574"/>
</g>
<!-- Node8&#45;&gt;Node4 -->
<g id="edge10" class="edge">
<title>Node8&#45;&gt;Node4</title>
<path fill="none" stroke="#191970" d="M90.8281,-392.386C100.4175,-362.9565 133.2626,-273.1221 190.8494,-224 243.7244,-178.8972 269.7285,-186.0224 336.8494,-168 427.8915,-143.5546 538.8319,-130.3361 592.5785,-124.9439"/>
<polygon fill="#191970" stroke="#191970" points="593.2354,-128.3964 602.8473,-123.9397 592.5541,-121.4297 593.2354,-128.3964"/>
</g>
<!-- Node9 -->
<g id="node10" class="node">
<title>Node9</title>
<g id="a_node10"><a xlink:href="Direction_8h.html" target="_top" xlink:title="iDynTree/Core/Direction.h">
<polygon fill="none" stroke="#000000" points="200.3494,-224.5 200.3494,-243.5 341.3494,-243.5 341.3494,-224.5 200.3494,-224.5"/>
<text text-anchor="middle" x="270.8494" y="-231.5" font-family="FreeSans.ttf" font-size="10.00" fill="#000000">iDynTree/Core/Direction.h</text>
</a>
</g>
</g>
<!-- Node8&#45;&gt;Node9 -->
<g id="edge11" class="edge">
<title>Node8&#45;&gt;Node9</title>
<path fill="none" stroke="#191970" d="M99.0809,-392.2115C109.6627,-382.9546 125.9266,-368.6375 139.8494,-356 180.9639,-318.681 228.4969,-274.0294 253.4636,-250.4572"/>
<polygon fill="#191970" stroke="#191970" points="255.876,-252.993 260.74,-243.5806 251.068,-247.9054 255.876,-252.993"/>
</g>
<!-- Node11 -->
<g id="node12" class="node">
<title>Node11</title>
<g id="a_node12"><a xlink:href="Utils_8h.html" target="_top" xlink:title="iDynTree/Core/Utils.h">
<polygon fill="none" stroke="#000000" points="702.3494,-56.5 702.3494,-75.5 821.3494,-75.5 821.3494,-56.5 702.3494,-56.5"/>
<text text-anchor="middle" x="761.8494" y="-63.5" font-family="FreeSans.ttf" font-size="10.00" fill="#000000">iDynTree/Core/Utils.h</text>
</a>
</g>
</g>
<!-- Node8&#45;&gt;Node11 -->
<g id="edge56" class="edge">
<title>Node8&#45;&gt;Node11</title>
<path fill="none" stroke="#191970" d="M87.8494,-392.4116C87.8494,-373.0538 87.8494,-327.9167 87.8494,-290 87.8494,-290 87.8494,-290 87.8494,-178 87.8494,-117.2263 519.7927,-81.9793 692.1029,-70.3365"/>
<polygon fill="#191970" stroke="#191970" points="692.5879,-73.8119 702.3321,-69.6525 692.1208,-66.8275 692.5879,-73.8119"/>
</g>
<!-- Node25 -->
<g id="node26" class="node">
<title>Node25</title>
<g id="a_node26"><a xlink:href="Position_8h.html" target="_top" xlink:title="iDynTree/Core/Position.h">
<polygon fill="none" stroke="#000000" points="652.8494,-336.5 652.8494,-355.5 788.8494,-355.5 788.8494,-336.5 652.8494,-336.5"/>
<text text-anchor="middle" x="720.8494" y="-343.5" font-family="FreeSans.ttf" font-size="10.00" fill="#000000">iDynTree/Core/Position.h</text>
</a>
</g>
</g>
<!-- Node8&#45;&gt;Node25 -->
<g id="edge32" class="edge">
<title>Node8&#45;&gt;Node25</title>
<path fill="none" stroke="#191970" d="M147.116,-396.7568C261.8745,-386.6044 514.3868,-364.2653 642.6992,-352.9138"/>
<polygon fill="#191970" stroke="#191970" points="643.1927,-356.3839 652.8453,-352.0162 642.5758,-349.4111 643.1927,-356.3839"/>
</g>
<!-- Node9&#45;&gt;Node4 -->
<g id="edge12" class="edge">
<title>Node9&#45;&gt;Node4</title>
<path fill="none" stroke="#191970" d="M283.8783,-224.2728C304.0175,-209.7279 344.4087,-182.4768 382.8494,-168 454.8814,-140.8727 545.2445,-129.1523 592.5597,-124.5836"/>
<polygon fill="#191970" stroke="#191970" points="593.1661,-128.0427 602.8039,-123.6422 592.5255,-121.072 593.1661,-128.0427"/>
</g>
<!-- Node10 -->
<g id="node11" class="node">
<title>Node10</title>
<g id="a_node11"><a xlink:href="VectorFixSize_8h.html" target="_top" xlink:title="iDynTree/Core/VectorFixSize.h">
<polygon fill="none" stroke="#000000" points="979.3494,-168.5 979.3494,-187.5 1140.3494,-187.5 1140.3494,-168.5 979.3494,-168.5"/>
<text text-anchor="middle" x="1059.8494" y="-175.5" font-family="FreeSans.ttf" font-size="10.00" fill="#000000">iDynTree/Core/VectorFixSize.h</text>
</a>
</g>
</g>
<!-- Node9&#45;&gt;Node10 -->
<g id="edge13" class="edge">
<title>Node9&#45;&gt;Node10</title>
<path fill="none" stroke="#191970" d="M341.5623,-228.9811C484.9828,-218.8017 809.9222,-195.7388 968.8641,-184.4578"/>
<polygon fill="#191970" stroke="#191970" points="969.3625,-187.9313 979.0896,-183.732 968.8669,-180.9489 969.3625,-187.9313"/>
</g>
<!-- Node9&#45;&gt;Node11 -->
<g id="edge31" class="edge">
<title>Node9&#45;&gt;Node11</title>
<path fill="none" stroke="#191970" d="M277.7551,-224.256C288.6144,-209.6891 311.117,-182.4096 336.8494,-168 451.0045,-104.0757 604.1832,-79.9897 692.0332,-71.0763"/>
<polygon fill="#191970" stroke="#191970" points="692.5423,-74.5433 702.1545,-70.0873 691.8615,-67.5765 692.5423,-74.5433"/>
</g>
<!-- Node10&#45;&gt;Node4 -->
<g id="edge27" class="edge">
<title>Node10&#45;&gt;Node4</title>
<path fill="none" stroke="#191970" d="M985.5645,-168.4369C889.5144,-156.0718 726.3856,-135.0713 657.3011,-126.1777"/>
<polygon fill="#191970" stroke="#191970" points="657.4107,-122.663 647.0456,-124.8574 656.5169,-129.6057 657.4107,-122.663"/>
</g>
<!-- Node10&#45;&gt;Node11 -->
<g id="edge14" class="edge">
<title>Node10&#45;&gt;Node11</title>
<path fill="none" stroke="#191970" d="M1034.4421,-168.4509C981.1105,-148.4069 857.4227,-101.9202 796.7215,-79.1063"/>
<polygon fill="#191970" stroke="#191970" points="797.7845,-75.7668 787.1924,-75.5249 795.3218,-82.3193 797.7845,-75.7668"/>
</g>
<!-- Node14 -->
<g id="node15" class="node">
<title>Node14</title>
<g id="a_node15"><a xlink:href="Span_8h.html" target="_top" xlink:title="iDynTree/Core/Span.h">
<polygon fill="none" stroke="#000000" points="987.3494,-56.5 987.3494,-75.5 1108.3494,-75.5 1108.3494,-56.5 987.3494,-56.5"/>
<text text-anchor="middle" x="1047.8494" y="-63.5" font-family="FreeSans.ttf" font-size="10.00" fill="#000000">iDynTree/Core/Span.h</text>
</a>
</g>
</g>
<!-- Node10&#45;&gt;Node14 -->
<g id="edge17" class="edge">
<title>Node10&#45;&gt;Node14</title>
<path fill="none" stroke="#191970" d="M1023.8838,-168.454C1005.4869,-161.5484 984.7279,-150.1556 973.8494,-132 960.8256,-110.264 987.2434,-91.7037 1012.0521,-79.8532"/>
<polygon fill="#191970" stroke="#191970" points="1013.7138,-82.9436 1021.3959,-75.6473 1010.8405,-76.5604 1013.7138,-82.9436"/>
</g>
<!-- Node15 -->
<g id="node16" class="node">
<title>Node15</title>
<polygon fill="none" stroke="#bfbfbf" points="1316.8494,-.5 1316.8494,-19.5 1368.8494,-19.5 1368.8494,-.5 1316.8494,-.5"/>
<text text-anchor="middle" x="1342.8494" y="-7.5" font-family="FreeSans.ttf" font-size="10.00" fill="#000000">cassert</text>
</g>
<!-- Node10&#45;&gt;Node15 -->
<g id="edge29" class="edge">
<title>Node10&#45;&gt;Node15</title>
<path fill="none" stroke="#191970" d="M1140.6317,-168.7019C1213.4276,-159.5604 1310.9725,-145.111 1323.8494,-132 1350.5293,-104.8352 1349.3327,-56.6331 1346.0993,-29.6648"/>
<polygon fill="#191970" stroke="#191970" points="1349.5318,-28.9407 1344.6642,-19.5303 1342.6009,-29.9222 1349.5318,-28.9407"/>
</g>
<!-- Node23 -->
<g id="node24" class="node">
<title>Node23</title>
<polygon fill="none" stroke="#bfbfbf" points="1050.8494,-112.5 1050.8494,-131.5 1106.8494,-131.5 1106.8494,-112.5 1050.8494,-112.5"/>
<text text-anchor="middle" x="1078.8494" y="-119.5" font-family="FreeSans.ttf" font-size="10.00" fill="#000000">sstream</text>
</g>
<!-- Node10&#45;&gt;Node23 -->
<g id="edge28" class="edge">
<title>Node10&#45;&gt;Node23</title>
<path fill="none" stroke="#191970" d="M1063.159,-168.2455C1065.6927,-160.7776 1069.2671,-150.2427 1072.3644,-141.1137"/>
<polygon fill="#191970" stroke="#191970" points="1075.6792,-142.237 1075.5778,-131.6427 1069.0503,-139.9879 1075.6792,-142.237"/>
</g>
<!-- Node24 -->
<g id="node25" class="node">
<title>Node24</title>
<polygon fill="none" stroke="#bfbfbf" points="982.8494,-112.5 982.8494,-131.5 1032.8494,-131.5 1032.8494,-112.5 982.8494,-112.5"/>
<text text-anchor="middle" x="1007.8494" y="-119.5" font-family="FreeSans.ttf" font-size="10.00" fill="#000000">cstring</text>
</g>
<!-- Node10&#45;&gt;Node24 -->
<g id="edge30" class="edge">
<title>Node10&#45;&gt;Node24</title>
<path fill="none" stroke="#191970" d="M1050.7917,-168.2455C1043.3353,-160.2155 1032.586,-148.6394 1023.7077,-139.0781"/>
<polygon fill="#191970" stroke="#191970" points="1026.1727,-136.589 1016.8033,-131.6427 1021.0431,-141.3522 1026.1727,-136.589"/>
</g>
<!-- Node12 -->
<g id="node13" class="node">
<title>Node12</title>
<polygon fill="none" stroke="#bfbfbf" points="735.3494,-.5 735.3494,-19.5 788.3494,-19.5 788.3494,-.5 735.3494,-.5"/>
<text text-anchor="middle" x="761.8494" y="-7.5" font-family="FreeSans.ttf" font-size="10.00" fill="#000000">cstddef</text>
</g>
<!-- Node11&#45;&gt;Node12 -->
<g id="edge15" class="edge">
<title>Node11&#45;&gt;Node12</title>
<path fill="none" stroke="#191970" d="M761.8494,-56.2455C761.8494,-48.9382 761.8494,-38.6944 761.8494,-29.7046"/>
<polygon fill="#191970" stroke="#191970" points="765.3495,-29.6426 761.8494,-19.6427 758.3495,-29.6427 765.3495,-29.6426"/>
</g>
<!-- Node13 -->
<g id="node14" class="node">
<title>Node13</title>
<polygon fill="none" stroke="#bfbfbf" points="636.8494,-.5 636.8494,-19.5 716.8494,-19.5 716.8494,-.5 636.8494,-.5"/>
<text text-anchor="middle" x="676.8494" y="-7.5" font-family="FreeSans.ttf" font-size="10.00" fill="#000000">CoreExport.h</text>
</g>
<!-- Node11&#45;&gt;Node13 -->
<g id="edge16" class="edge">
<title>Node11&#45;&gt;Node13</title>
<path fill="none" stroke="#191970" d="M747.0435,-56.2455C734.1238,-47.7337 715.1563,-35.2375 700.1942,-25.3801"/>
<polygon fill="#191970" stroke="#191970" points="701.7618,-22.2216 691.4856,-19.6427 697.9107,-28.067 701.7618,-22.2216"/>
</g>
<!-- Node14&#45;&gt;Node12 -->
<g id="edge21" class="edge">
<title>Node14&#45;&gt;Node12</title>
<path fill="none" stroke="#191970" d="M987.683,-56.4738C939.1343,-48.4352 868.9034,-36.0161 798.4576,-19.9794"/>
<polygon fill="#191970" stroke="#191970" points="799.0484,-16.524 788.5182,-17.6926 797.4788,-23.3457 799.0484,-16.524"/>
</g>
<!-- Node14&#45;&gt;Node15 -->
<g id="edge18" class="edge">
<title>Node14&#45;&gt;Node15</title>
<path fill="none" stroke="#191970" d="M1108.3614,-57.1065C1159.0111,-49.2505 1233.3447,-36.7658 1306.682,-20.0986"/>
<polygon fill="#191970" stroke="#191970" points="1307.5909,-23.481 1316.5518,-17.8284 1306.0217,-16.6591 1307.5909,-23.481"/>
</g>
<!-- Node16 -->
<g id="node17" class="node">
<title>Node16</title>
<polygon fill="none" stroke="#bfbfbf" points="1015.8494,-.5 1015.8494,-19.5 1079.8494,-19.5 1079.8494,-.5 1015.8494,-.5"/>
<text text-anchor="middle" x="1047.8494" y="-7.5" font-family="FreeSans.ttf" font-size="10.00" fill="#000000">algorithm</text>
</g>
<!-- Node14&#45;&gt;Node16 -->
<g id="edge19" class="edge">
<title>Node14&#45;&gt;Node16</title>
<path fill="none" stroke="#191970" d="M1047.8494,-56.2455C1047.8494,-48.9382 1047.8494,-38.6944 1047.8494,-29.7046"/>
<polygon fill="#191970" stroke="#191970" points="1051.3495,-29.6426 1047.8494,-19.6427 1044.3495,-29.6427 1051.3495,-29.6426"/>
</g>
<!-- Node17 -->
<g id="node18" class="node">
<title>Node17</title>
<polygon fill="none" stroke="#bfbfbf" points="1097.8494,-.5 1097.8494,-19.5 1139.8494,-19.5 1139.8494,-.5 1097.8494,-.5"/>
<text text-anchor="middle" x="1118.8494" y="-7.5" font-family="FreeSans.ttf" font-size="10.00" fill="#000000">array</text>
</g>
<!-- Node14&#45;&gt;Node17 -->
<g id="edge20" class="edge">
<title>Node14&#45;&gt;Node17</title>
<path fill="none" stroke="#191970" d="M1060.2167,-56.2455C1070.8048,-47.8943 1086.2558,-35.7076 1098.6387,-25.9408"/>
<polygon fill="#191970" stroke="#191970" points="1100.9397,-28.5837 1106.6239,-19.6427 1096.6047,-23.0875 1100.9397,-28.5837"/>
</g>
<!-- Node18 -->
<g id="node19" class="node">
<title>Node18</title>
<polygon fill="none" stroke="#bfbfbf" points="1158.3494,-.5 1158.3494,-19.5 1211.3494,-19.5 1211.3494,-.5 1158.3494,-.5"/>
<text text-anchor="middle" x="1184.8494" y="-7.5" font-family="FreeSans.ttf" font-size="10.00" fill="#000000">iterator</text>
</g>
<!-- Node14&#45;&gt;Node18 -->
<g id="edge22" class="edge">
<title>Node14&#45;&gt;Node18</title>
<path fill="none" stroke="#191970" d="M1071.4006,-56.3733C1093.6885,-47.2629 1127.3431,-33.5062 1152.2131,-23.3404"/>
<polygon fill="#191970" stroke="#191970" points="1153.6734,-26.5247 1161.6056,-19.5011 1151.0247,-20.0451 1153.6734,-26.5247"/>
</g>
<!-- Node19 -->
<g id="node20" class="node">
<title>Node19</title>
<polygon fill="none" stroke="#bfbfbf" points="806.8494,-.5 806.8494,-19.5 850.8494,-19.5 850.8494,-.5 806.8494,-.5"/>
<text text-anchor="middle" x="828.8494" y="-7.5" font-family="FreeSans.ttf" font-size="10.00" fill="#000000">limits</text>
</g>
<!-- Node14&#45;&gt;Node19 -->
<g id="edge23" class="edge">
<title>Node14&#45;&gt;Node19</title>
<path fill="none" stroke="#191970" d="M1005.6942,-56.4141C967.6664,-47.5809 910.2819,-33.7896 860.8494,-20 860.7513,-19.9726 860.653,-19.9452 860.5546,-19.9176"/>
<polygon fill="#191970" stroke="#191970" points="861.7575,-16.623 851.1768,-17.1701 859.7893,-23.3406 861.7575,-16.623"/>
</g>
<!-- Node20 -->
<g id="node21" class="node">
<title>Node20</title>
<polygon fill="none" stroke="#bfbfbf" points="869.3494,-.5 869.3494,-19.5 934.3494,-19.5 934.3494,-.5 869.3494,-.5"/>
<text text-anchor="middle" x="901.8494" y="-7.5" font-family="FreeSans.ttf" font-size="10.00" fill="#000000">stdexcept</text>
</g>
<!-- Node14&#45;&gt;Node20 -->
<g id="edge24" class="edge">
<title>Node14&#45;&gt;Node20</title>
<path fill="none" stroke="#191970" d="M1022.7511,-56.3733C998.8939,-47.2226 962.8159,-33.3844 936.2784,-23.2057"/>
<polygon fill="#191970" stroke="#191970" points="937.2104,-19.8145 926.6202,-19.5011 934.7035,-26.3503 937.2104,-19.8145"/>
</g>
<!-- Node21 -->
<g id="node22" class="node">
<title>Node21</title>
<polygon fill="none" stroke="#bfbfbf" points="1229.3494,-.5 1229.3494,-19.5 1298.3494,-19.5 1298.3494,-.5 1229.3494,-.5"/>
<text text-anchor="middle" x="1263.8494" y="-7.5" font-family="FreeSans.ttf" font-size="10.00" fill="#000000">type_traits</text>
</g>
<!-- Node14&#45;&gt;Node21 -->
<g id="edge25" class="edge">
<title>Node14&#45;&gt;Node21</title>
<path fill="none" stroke="#191970" d="M1084.9811,-56.3733C1122.3433,-46.6868 1179.9647,-31.7479 1219.6579,-21.4571"/>
<polygon fill="#191970" stroke="#191970" points="1220.5383,-24.8446 1229.3399,-18.9469 1218.7815,-18.0686 1220.5383,-24.8446"/>
</g>
<!-- Node22 -->
<g id="node23" class="node">
<title>Node22</title>
<polygon fill="none" stroke="#bfbfbf" points="952.3494,-.5 952.3494,-19.5 997.3494,-19.5 997.3494,-.5 952.3494,-.5"/>
<text text-anchor="middle" x="974.8494" y="-7.5" font-family="FreeSans.ttf" font-size="10.00" fill="#000000">utility</text>
</g>
<!-- Node14&#45;&gt;Node22 -->
<g id="edge26" class="edge">
<title>Node14&#45;&gt;Node22</title>
<path fill="none" stroke="#191970" d="M1035.1338,-56.2455C1024.2474,-47.8943 1008.3611,-35.7076 995.6294,-25.9408"/>
<polygon fill="#191970" stroke="#191970" points="997.484,-22.9523 987.4193,-19.6427 993.2233,-28.5063 997.484,-22.9523"/>
</g>
<!-- Node25&#45;&gt;Node4 -->
<g id="edge55" class="edge">
<title>Node25&#45;&gt;Node4</title>
<path fill="none" stroke="#191970" d="M716.7244,-336.375C702.1078,-302.2697 652.6106,-186.7761 632.9737,-140.9567"/>
<polygon fill="#191970" stroke="#191970" points="636.1153,-139.4019 628.959,-131.5891 629.6813,-142.1593 636.1153,-139.4019"/>
</g>
<!-- Node26 -->
<g id="node27" class="node">
<title>Node26</title>
<g id="a_node27"><a xlink:href="PositionRaw_8h.html" target="_top" xlink:title="iDynTree/Core/PositionRaw.h">
<polygon fill="none" stroke="#000000" points="690.8494,-224.5 690.8494,-243.5 846.8494,-243.5 846.8494,-224.5 690.8494,-224.5"/>
<text text-anchor="middle" x="768.8494" y="-231.5" font-family="FreeSans.ttf" font-size="10.00" fill="#000000">iDynTree/Core/PositionRaw.h</text>
</a>
</g>
</g>
<!-- Node25&#45;&gt;Node26 -->
<g id="edge33" class="edge">
<title>Node25&#45;&gt;Node26</title>
<path fill="none" stroke="#191970" d="M724.9419,-336.4509C732.8768,-317.936 750.4812,-276.8591 760.8271,-252.7187"/>
<polygon fill="#191970" stroke="#191970" points="764.0451,-254.0951 764.7673,-243.5249 757.6111,-251.3376 764.0451,-254.0951"/>
</g>
<!-- Node27 -->
<g id="node28" class="node">
<title>Node27</title>
<g id="a_node28"><a xlink:href="Rotation_8h.html" target="_top" xlink:title="iDynTree/Core/Rotation.h">
<polygon fill="none" stroke="#000000" points="903.3494,-280.5 903.3494,-299.5 1040.3494,-299.5 1040.3494,-280.5 903.3494,-280.5"/>
<text text-anchor="middle" x="971.8494" y="-287.5" font-family="FreeSans.ttf" font-size="10.00" fill="#000000">iDynTree/Core/Rotation.h</text>
</a>
</g>
</g>
<!-- Node25&#45;&gt;Node27 -->
<g id="edge36" class="edge">
<title>Node25&#45;&gt;Node27</title>
<path fill="none" stroke="#191970" d="M763.7127,-336.4369C806.7596,-326.8328 873.1567,-312.0191 919.3404,-301.7152"/>
<polygon fill="#191970" stroke="#191970" points="920.1651,-305.1173 929.163,-299.5237 918.6408,-298.2853 920.1651,-305.1173"/>
</g>
<!-- Node26&#45;&gt;Node4 -->
<g id="edge35" class="edge">
<title>Node26&#45;&gt;Node4</title>
<path fill="none" stroke="#191970" d="M756.5721,-224.4509C731.8107,-205.1921 675.6632,-161.5218 645.2839,-137.8935"/>
<polygon fill="#191970" stroke="#191970" points="647.138,-134.9016 637.0957,-131.5249 642.8404,-140.4271 647.138,-134.9016"/>
</g>
<!-- Node26&#45;&gt;Node10 -->
<g id="edge34" class="edge">
<title>Node26&#45;&gt;Node10</title>
<path fill="none" stroke="#191970" d="M818.5435,-224.4369C868.869,-214.7522 946.7217,-199.7703 1000.3145,-189.4569"/>
<polygon fill="#191970" stroke="#191970" points="1001.2019,-192.8504 1010.3603,-187.5237 999.8791,-185.9765 1001.2019,-192.8504"/>
</g>
<!-- Node27&#45;&gt;Node4 -->
<g id="edge37" class="edge">
<title>Node27&#45;&gt;Node4</title>
<path fill="none" stroke="#191970" d="M968.4026,-280.4506C959.3953,-256.9806 932.7634,-196.3308 888.8494,-168 850.9553,-143.5529 719.0615,-129.7529 657.2642,-124.4939"/>
<polygon fill="#191970" stroke="#191970" points="657.1812,-120.9752 646.9266,-123.6385 656.6039,-127.9513 657.1812,-120.9752"/>
</g>
<!-- Node27&#45;&gt;Node10 -->
<g id="edge54" class="edge">
<title>Node27&#45;&gt;Node10</title>
<path fill="none" stroke="#191970" d="M968.6733,-280.2049C964.8689,-266.5256 960.2419,-241.4231 970.8494,-224 980.1494,-208.7246 996.336,-198.2991 1012.377,-191.2919"/>
<polygon fill="#191970" stroke="#191970" points="1013.7616,-194.5078 1021.7518,-187.5503 1011.1668,-188.0065 1013.7616,-194.5078"/>
</g>
<!-- Node28 -->
<g id="node29" class="node">
<title>Node28</title>
<g id="a_node29"><a xlink:href="GeomVector3_8h.html" target="_top" xlink:title="iDynTree/Core/GeomVector3.h">
<polygon fill="none" stroke="#000000" points="979.3494,-224.5 979.3494,-243.5 1142.3494,-243.5 1142.3494,-224.5 979.3494,-224.5"/>
<text text-anchor="middle" x="1060.8494" y="-231.5" font-family="FreeSans.ttf" font-size="10.00" fill="#000000">iDynTree/Core/GeomVector3.h</text>
</a>
</g>
</g>
<!-- Node27&#45;&gt;Node28 -->
<g id="edge38" class="edge">
<title>Node27&#45;&gt;Node28</title>
<path fill="none" stroke="#191970" d="M987.352,-280.2455C1001.0074,-271.6534 1021.1151,-259.0014 1036.8483,-249.1018"/>
<polygon fill="#191970" stroke="#191970" points="1038.9245,-251.9307 1045.5245,-243.6427 1035.1965,-246.006 1038.9245,-251.9307"/>
</g>
<!-- Node29 -->
<g id="node30" class="node">
<title>Node29</title>
<g id="a_node30"><a xlink:href="RotationRaw_8h.html" target="_top" xlink:title="iDynTree/Core/RotationRaw.h">
<polygon fill="none" stroke="#000000" points="1160.8494,-224.5 1160.8494,-243.5 1318.8494,-243.5 1318.8494,-224.5 1160.8494,-224.5"/>
<text text-anchor="middle" x="1239.8494" y="-231.5" font-family="FreeSans.ttf" font-size="10.00" fill="#000000">iDynTree/Core/RotationRaw.h</text>
</a>
</g>
</g>
<!-- Node27&#45;&gt;Node29 -->
<g id="edge40" class="edge">
<title>Node27&#45;&gt;Node29</title>
<path fill="none" stroke="#191970" d="M1017.6157,-280.4369C1063.7709,-270.7925 1135.0672,-255.8948 1184.4032,-245.5858"/>
<polygon fill="#191970" stroke="#191970" points="1185.1992,-248.9951 1194.2719,-243.5237 1183.7674,-242.1431 1185.1992,-248.9951"/>
</g>
<!-- Node28&#45;&gt;Node10 -->
<g id="edge39" class="edge">
<title>Node28&#45;&gt;Node10</title>
<path fill="none" stroke="#191970" d="M1060.6752,-224.2455C1060.5447,-216.9382 1060.3618,-206.6944 1060.2013,-197.7046"/>
<polygon fill="#191970" stroke="#191970" points="1063.6997,-197.5786 1060.0216,-187.6427 1056.7008,-197.7036 1063.6997,-197.5786"/>
</g>
<!-- Node29&#45;&gt;Node4 -->
<g id="edge53" class="edge">
<title>Node29&#45;&gt;Node4</title>
<path fill="none" stroke="#191970" d="M1172.2071,-224.4607C1105.2098,-214.6479 1007.4786,-199.2504 970.8494,-188 950.3152,-181.6931 947.4402,-174.1197 926.8494,-168 831.0917,-139.5402 712.7521,-128.0576 656.9023,-123.9765"/>
<polygon fill="#191970" stroke="#191970" points="657.1253,-120.4837 646.9054,-123.2771 656.6367,-127.4666 657.1253,-120.4837"/>
</g>
<!-- Node30 -->
<g id="node31" class="node">
<title>Node30</title>
<g id="a_node31"><a xlink:href="MatrixFixSize_8h.html" target="_top" xlink:title="iDynTree/Core/MatrixFixSize.h">
<polygon fill="none" stroke="#000000" points="1158.3494,-168.5 1158.3494,-187.5 1319.3494,-187.5 1319.3494,-168.5 1158.3494,-168.5"/>
<text text-anchor="middle" x="1238.8494" y="-175.5" font-family="FreeSans.ttf" font-size="10.00" fill="#000000">iDynTree/Core/MatrixFixSize.h</text>
</a>
</g>
</g>
<!-- Node29&#45;&gt;Node30 -->
<g id="edge41" class="edge">
<title>Node29&#45;&gt;Node30</title>
<path fill="none" stroke="#191970" d="M1239.6752,-224.2455C1239.5447,-216.9382 1239.3618,-206.6944 1239.2013,-197.7046"/>
<polygon fill="#191970" stroke="#191970" points="1242.6997,-197.5786 1239.0216,-187.6427 1235.7008,-197.7036 1242.6997,-197.5786"/>
</g>
<!-- Node30&#45;&gt;Node4 -->
<g id="edge50" class="edge">
<title>Node30&#45;&gt;Node4</title>
<path fill="none" stroke="#191970" d="M1158.3286,-168.8633C1155.4675,-168.5671 1152.6343,-168.2784 1149.8494,-168 963.3928,-149.3592 739.2582,-131.103 657.0695,-124.5467"/>
<polygon fill="#191970" stroke="#191970" points="657.12,-121.0397 646.8738,-123.7354 656.5647,-128.0177 657.12,-121.0397"/>
</g>
<!-- Node30&#45;&gt;Node11 -->
<g id="edge42" class="edge">
<title>Node30&#45;&gt;Node11</title>
<path fill="none" stroke="#191970" d="M1221.433,-168.4397C1188.8471,-150.5828 1121.4301,-113.7929 1115.8494,-112 1064.4839,-95.4979 919.2467,-80.1652 831.5814,-72.0442"/>
<polygon fill="#191970" stroke="#191970" points="831.7267,-68.5429 821.4485,-71.1138 831.0866,-75.5136 831.7267,-68.5429"/>
</g>
<!-- Node30&#45;&gt;Node15 -->
<g id="edge48" class="edge">
<title>Node30&#45;&gt;Node15</title>
<path fill="none" stroke="#191970" d="M1319.3991,-169.7774C1368.4876,-162.9155 1424.6218,-151.1062 1439.8494,-132 1470.6859,-93.3092 1407.9925,-47.6519 1369.6418,-24.7163"/>
<polygon fill="#191970" stroke="#191970" points="1371.3512,-21.6615 1360.9483,-19.6535 1367.8284,-27.7105 1371.3512,-21.6615"/>
</g>
<!-- Node30&#45;&gt;Node23 -->
<g id="edge52" class="edge">
<title>Node30&#45;&gt;Node23</title>
<path fill="none" stroke="#191970" d="M1211.3444,-168.3733C1184.9692,-159.1419 1144.9643,-145.1402 1115.8136,-134.9375"/>
<polygon fill="#191970" stroke="#191970" points="1116.5903,-131.5012 1105.9955,-131.5011 1114.2778,-138.1082 1116.5903,-131.5012"/>
</g>
<!-- Node30&#45;&gt;Node24 -->
<g id="edge49" class="edge">
<title>Node30&#45;&gt;Node24</title>
<path fill="none" stroke="#191970" d="M1194.8569,-168.4769C1157.0061,-160.1155 1100.7237,-147.2851 1043.072,-132.2225"/>
<polygon fill="#191970" stroke="#191970" points="1043.6174,-128.7469 1033.0559,-129.5864 1041.8357,-135.5164 1043.6174,-128.7469"/>
</g>
<!-- Node31 -->
<g id="node32" class="node">
<title>Node31</title>
<g id="a_node32"><a xlink:href="MatrixView_8h.html" target="_top" xlink:title="iDynTree/Core/MatrixView.h">
<polygon fill="none" stroke="#000000" points="1163.3494,-112.5 1163.3494,-131.5 1314.3494,-131.5 1314.3494,-112.5 1163.3494,-112.5"/>
<text text-anchor="middle" x="1238.8494" y="-119.5" font-family="FreeSans.ttf" font-size="10.00" fill="#000000">iDynTree/Core/MatrixView.h</text>
</a>
</g>
</g>
<!-- Node30&#45;&gt;Node31 -->
<g id="edge43" class="edge">
<title>Node30&#45;&gt;Node31</title>
<path fill="none" stroke="#191970" d="M1238.8494,-168.2455C1238.8494,-160.9382 1238.8494,-150.6944 1238.8494,-141.7046"/>
<polygon fill="#191970" stroke="#191970" points="1242.3495,-141.6426 1238.8494,-131.6427 1235.3495,-141.6427 1242.3495,-141.6426"/>
</g>
<!-- Node32 -->
<g id="node33" class="node">
<title>Node32</title>
<polygon fill="none" stroke="#bfbfbf" points="1370.8494,-112.5 1370.8494,-131.5 1430.8494,-131.5 1430.8494,-112.5 1370.8494,-112.5"/>
<text text-anchor="middle" x="1400.8494" y="-119.5" font-family="FreeSans.ttf" font-size="10.00" fill="#000000">iostream</text>
</g>
<!-- Node30&#45;&gt;Node32 -->
<g id="edge51" class="edge">
<title>Node30&#45;&gt;Node32</title>
<path fill="none" stroke="#191970" d="M1266.6982,-168.3733C1293.5197,-159.1016 1334.2621,-145.0178 1363.8092,-134.804"/>
<polygon fill="#191970" stroke="#191970" points="1365.0563,-138.0762 1373.364,-131.5011 1362.7693,-131.4603 1365.0563,-138.0762"/>
</g>
<!-- Node31&#45;&gt;Node11 -->
<g id="edge47" class="edge">
<title>Node31&#45;&gt;Node11</title>
<path fill="none" stroke="#191970" d="M1163.2673,-113.1266C1072.0793,-102.4211 920.0267,-84.5701 831.5529,-74.1832"/>
<polygon fill="#191970" stroke="#191970" points="831.954,-70.7064 821.6141,-73.0164 831.1377,-77.6586 831.954,-70.7064"/>
</g>
<!-- Node31&#45;&gt;Node14 -->
<g id="edge46" class="edge">
<title>Node31&#45;&gt;Node14</title>
<path fill="none" stroke="#191970" d="M1206.0153,-112.3733C1173.98,-102.9807 1125.1007,-88.6496 1090.1639,-78.4064"/>
<polygon fill="#191970" stroke="#191970" points="1090.8358,-74.9561 1080.255,-75.5011 1088.8663,-81.6733 1090.8358,-74.9561"/>
</g>
<!-- Node31&#45;&gt;Node15 -->
<g id="edge44" class="edge">
<title>Node31&#45;&gt;Node15</title>
<path fill="none" stroke="#191970" d="M1247.7164,-112.4509C1265.2926,-93.5227 1304.7649,-51.014 1326.9449,-27.1279"/>
<polygon fill="#191970" stroke="#191970" points="1329.7651,-29.2344 1334.0049,-19.5249 1324.6356,-24.4713 1329.7651,-29.2344"/>
</g>
<!-- Node31&#45;&gt;Node21 -->
<g id="edge45" class="edge">
<title>Node31&#45;&gt;Node21</title>
<path fill="none" stroke="#191970" d="M1240.9809,-112.4509C1245.0768,-94.1013 1254.1193,-53.5908 1259.5259,-29.3693"/>
<polygon fill="#191970" stroke="#191970" points="1262.9607,-30.0472 1261.7233,-19.5249 1256.1288,-28.5222 1262.9607,-30.0472"/>
</g>
<!-- Node33&#45;&gt;Node4 -->
<g id="edge61" class="edge">
<title>Node33&#45;&gt;Node4</title>
<path fill="none" stroke="#191970" d="M904.6177,-392.4734C905.4234,-379.5282 906.0553,-355.7327 901.8494,-336 896.2405,-309.6848 874.6251,-243.2723 855.8494,-224 799.9876,-166.6606 706.2889,-139.2247 657.1518,-128.2058"/>
<polygon fill="#191970" stroke="#191970" points="657.6003,-124.7223 647.0878,-126.0401 656.1276,-131.5656 657.6003,-124.7223"/>
</g>
<!-- Node33&#45;&gt;Node25 -->
<g id="edge58" class="edge">
<title>Node33&#45;&gt;Node25</title>
<path fill="none" stroke="#191970" d="M872.3906,-392.3733C841.8287,-383.021 795.2668,-368.7725 761.8233,-358.5385"/>
<polygon fill="#191970" stroke="#191970" points="762.4842,-355.0806 751.8977,-355.5011 760.4358,-361.7742 762.4842,-355.0806"/>
</g>
<!-- Node33&#45;&gt;Node27 -->
<g id="edge59" class="edge">
<title>Node33&#45;&gt;Node27</title>
<path fill="none" stroke="#191970" d="M910.7384,-392.2823C917.1834,-383.0755 926.9716,-368.7922 934.8494,-356 944.5101,-340.3127 954.6907,-322.0047 961.9221,-308.6559"/>
<polygon fill="#191970" stroke="#191970" points="965.1699,-310.0059 966.8196,-299.5402 959.0035,-306.6929 965.1699,-310.0059"/>
</g>
<!-- Node33&#45;&gt;Node30 -->
<g id="edge60" class="edge">
<title>Node33&#45;&gt;Node30</title>
<path fill="none" stroke="#191970" d="M946.8118,-392.4895C1045.353,-369.7156 1282.6455,-309.0853 1327.8494,-244 1344.0387,-220.6904 1312.0092,-202.3274 1281.9611,-190.9512"/>
<polygon fill="#191970" stroke="#191970" points="1282.9331,-187.5816 1272.3385,-187.5057 1280.5733,-194.1719 1282.9331,-187.5816"/>
</g>
<!-- Node34&#45;&gt;Node1 -->
<g id="edge66" class="edge">
<title>Node34&#45;&gt;Node1</title>
<path fill="none" stroke="#191970" d="M456.3468,-448.2455C442.6915,-439.6534 422.5837,-427.0014 406.8505,-417.1018"/>
<polygon fill="#191970" stroke="#191970" points="408.5023,-414.006 398.1744,-411.6427 404.7743,-419.9307 408.5023,-414.006"/>
</g>
<!-- Node34&#45;&gt;Node3 -->
<g id="edge68" class="edge">
<title>Node34&#45;&gt;Node3</title>
<path fill="none" stroke="#191970" d="M470.3147,-448.4509C467.379,-430.184 460.9137,-389.9553 457.0151,-365.6976"/>
<polygon fill="#191970" stroke="#191970" points="460.4227,-364.8428 455.3802,-355.5249 453.5114,-365.9536 460.4227,-364.8428"/>
</g>
<!-- Node34&#45;&gt;Node4 -->
<g id="edge69" class="edge">
<title>Node34&#45;&gt;Node4</title>
<path fill="none" stroke="#191970" d="M475.7315,-448.3362C485.5961,-422.8778 510.8494,-351.681 510.8494,-290 510.8494,-290 510.8494,-290 510.8494,-234 510.8494,-202.7875 514.1855,-191.3929 534.8494,-168 550.2821,-150.5292 573.9332,-138.8035 593.1176,-131.5649"/>
<polygon fill="#191970" stroke="#191970" points="594.4164,-134.818 602.6755,-128.1819 592.0807,-128.2192 594.4164,-134.818"/>
</g>
<!-- Node34&#45;&gt;Node10 -->
<g id="edge67" class="edge">
<title>Node34&#45;&gt;Node10</title>
<path fill="none" stroke="#191970" d="M524.8867,-455.1343C637.914,-448.7207 899.2481,-432.1774 985.8494,-412 1053.131,-396.324 1068.4273,-385.5977 1130.8494,-356 1221.8541,-312.8497 1277.2018,-331.0553 1327.8494,-244 1332.3194,-236.3168 1333.5786,-230.7963 1327.8494,-224 1321.6706,-216.6703 1215.4077,-200.1187 1138.5745,-189.0013"/>
<polygon fill="#191970" stroke="#191970" points="1138.8121,-185.4995 1128.4153,-187.5381 1137.8141,-192.428 1138.8121,-185.4995"/>
</g>
<!-- Node35&#45;&gt;Node1 -->
<g id="edge71" class="edge">
<title>Node35&#45;&gt;Node1</title>
<path fill="none" stroke="#191970" d="M504.5244,-508.9144C474.0396,-503.4014 435.6854,-491.9172 409.8494,-468 396.6735,-455.8026 389.7609,-436.2426 386.2437,-421.577"/>
<polygon fill="#191970" stroke="#191970" points="389.6171,-420.6056 384.1685,-411.5192 382.7615,-422.0202 389.6171,-420.6056"/>
</g>
<!-- Node35&#45;&gt;Node3 -->
<g id="edge82" class="edge">
<title>Node35&#45;&gt;Node3</title>
<path fill="none" stroke="#191970" d="M551.2419,-504.1663C548.8015,-490.8731 543.404,-466.6844 533.8494,-448 516.9043,-414.8632 488.4673,-381.9732 470.4572,-362.8394"/>
<polygon fill="#191970" stroke="#191970" points="472.8878,-360.3173 463.4408,-355.5209 467.8348,-365.1616 472.8878,-360.3173"/>
</g>
<!-- Node35&#45;&gt;Node4 -->
<g id="edge83" class="edge">
<title>Node35&#45;&gt;Node4</title>
<path fill="none" stroke="#191970" d="M552.7121,-504.1598C552.5294,-491.2624 552.1897,-467.9369 551.8494,-448 550.6507,-377.7754 548.8494,-360.2349 548.8494,-290 548.8494,-290 548.8494,-290 548.8494,-234 548.8494,-194.2361 582.0565,-158.1042 604.5702,-138.177"/>
<polygon fill="#191970" stroke="#191970" points="606.9573,-140.7412 612.2996,-131.5918 602.4177,-135.4128 606.9573,-140.7412"/>
</g>
<!-- Node35&#45;&gt;Node5 -->
<g id="edge84" class="edge">
<title>Node35&#45;&gt;Node5</title>
<path fill="none" stroke="#191970" d="M504.9722,-504.4223C472.2011,-496.8898 428.261,-484.8382 391.8494,-468 351.1241,-449.167 342.8624,-440.0593 307.8494,-412 288.6017,-396.575 268.4182,-376.7839 254.8893,-362.9133"/>
<polygon fill="#191970" stroke="#191970" points="257.2106,-360.2782 247.7501,-355.5085 252.1712,-365.1368 257.2106,-360.2782"/>
</g>
<!-- Node35&#45;&gt;Node6 -->
<g id="edge85" class="edge">
<title>Node35&#45;&gt;Node6</title>
<path fill="none" stroke="#191970" d="M601.0678,-513.1555C758.4769,-509.6335 1254.9169,-492.2646 1389.8494,-412 1408.0971,-401.1454 1421.1656,-380.1471 1428.8189,-364.7399"/>
<polygon fill="#191970" stroke="#191970" points="1432.0324,-366.1297 1433.0661,-355.5854 1425.6825,-363.1836 1432.0324,-366.1297"/>
</g>
<!-- Node35&#45;&gt;Node33 -->
<g id="edge73" class="edge">
<title>Node35&#45;&gt;Node33</title>
<path fill="none" stroke="#191970" d="M600.8525,-510.5093C673.0445,-504.5922 805.5205,-490.9455 846.8494,-468 867.019,-456.802 883.3721,-435.5519 893.3063,-420.1833"/>
<polygon fill="#191970" stroke="#191970" points="896.3793,-421.8677 898.639,-411.5166 890.4175,-418.1993 896.3793,-421.8677"/>
</g>
<!-- Node35&#45;&gt;Node34 -->
<g id="edge72" class="edge">
<title>Node35&#45;&gt;Node34</title>
<path fill="none" stroke="#191970" d="M538.7403,-504.2455C526.4286,-495.7337 508.3536,-483.2375 494.0956,-473.3801"/>
<polygon fill="#191970" stroke="#191970" points="496.0129,-470.4506 485.7969,-467.6427 492.032,-476.2085 496.0129,-470.4506"/>
</g>
<!-- Node36 -->
<g id="node37" class="node">
<title>Node36</title>
<g id="a_node37"><a xlink:href="SolidShapes_8h.html" target="_top" xlink:title="iDynTree/Model/SolidShapes.h">
<polygon fill="none" stroke="#000000" points="674.3494,-448.5 674.3494,-467.5 837.3494,-467.5 837.3494,-448.5 674.3494,-448.5"/>
<text text-anchor="middle" x="755.8494" y="-455.5" font-family="FreeSans.ttf" font-size="10.00" fill="#000000">iDynTree/Model/SolidShapes.h</text>
</a>
</g>
</g>
<!-- Node35&#45;&gt;Node36 -->
<g id="edge74" class="edge">
<title>Node35&#45;&gt;Node36</title>
<path fill="none" stroke="#191970" d="M587.7464,-504.3733C621.9406,-494.9404 674.1909,-480.5265 711.3537,-470.2747"/>
<polygon fill="#191970" stroke="#191970" points="712.6987,-473.5345 721.4078,-467.5011 710.8371,-466.7865 712.6987,-473.5345"/>
</g>
<!-- Node36&#45;&gt;Node4 -->
<g id="edge76" class="edge">
<title>Node36&#45;&gt;Node4</title>
<path fill="none" stroke="#191970" d="M729.4298,-448.4381C710.3482,-440.6444 684.7212,-428.2709 665.8494,-412 616.9253,-369.8186 586.8494,-354.5975 586.8494,-290 586.8494,-290 586.8494,-290 586.8494,-234 586.8494,-199.6118 603.1128,-162.2832 614.3604,-140.5791"/>
<polygon fill="#191970" stroke="#191970" points="617.5811,-141.9804 619.2424,-131.5166 611.4184,-138.6605 617.5811,-141.9804"/>
</g>
<!-- Node36&#45;&gt;Node6 -->
<g id="edge77" class="edge">
<title>Node36&#45;&gt;Node6</title>
<path fill="none" stroke="#191970" d="M837.4186,-454.6499C991.4065,-447.9086 1313.7649,-431.6571 1360.8494,-412 1385.8856,-401.5477 1408.5066,-379.4997 1422.4341,-363.7644"/>
<polygon fill="#191970" stroke="#191970" points="1425.4122,-365.666 1429.2373,-355.7858 1420.0857,-361.1242 1425.4122,-365.666"/>
</g>
<!-- Node36&#45;&gt;Node33 -->
<g id="edge78" class="edge">
<title>Node36&#45;&gt;Node33</title>
<path fill="none" stroke="#191970" d="M781.2915,-448.3733C805.5821,-439.1822 842.3702,-425.2624 869.3037,-415.0713"/>
<polygon fill="#191970" stroke="#191970" points="870.6251,-418.3136 878.7393,-411.5011 868.1478,-411.7666 870.6251,-418.3136"/>
</g>
<!-- Node37 -->
<g id="node38" class="node">
<title>Node37</title>
<polygon fill="none" stroke="#bfbfbf" points="1302.3494,-392.5 1302.3494,-411.5 1351.3494,-411.5 1351.3494,-392.5 1302.3494,-392.5"/>
<text text-anchor="middle" x="1326.8494" y="-399.5" font-family="FreeSans.ttf" font-size="10.00" fill="#000000">cstdlib</text>
</g>
<!-- Node36&#45;&gt;Node37 -->
<g id="edge75" class="edge">
<title>Node36&#45;&gt;Node37</title>
<path fill="none" stroke="#191970" d="M837.4958,-455.1174C942.3736,-450.461 1129.7433,-438.9166 1287.8494,-412 1289.3137,-411.7507 1290.8036,-411.4739 1292.3048,-411.1759"/>
<polygon fill="#191970" stroke="#191970" points="1293.2234,-414.5571 1302.2238,-408.9675 1291.7021,-407.7244 1293.2234,-414.5571"/>
</g>
<!-- Node38 -->
<g id="node39" class="node">
<title>Node38</title>
<g id="a_node39"><a xlink:href="Indices_8h.html" target="_top" xlink:title="iDynTree/Model/Indices.h">
<polygon fill="none" stroke="#000000" points="674.8494,-392.5 674.8494,-411.5 812.8494,-411.5 812.8494,-392.5 674.8494,-392.5"/>
<text text-anchor="middle" x="743.8494" y="-399.5" font-family="FreeSans.ttf" font-size="10.00" fill="#000000">iDynTree/Model/Indices.h</text>
</a>
</g>
</g>
<!-- Node36&#45;&gt;Node38 -->
<g id="edge79" class="edge">
<title>Node36&#45;&gt;Node38</title>
<path fill="none" stroke="#191970" d="M753.7592,-448.2455C752.1933,-440.9382 749.9982,-430.6944 748.0718,-421.7046"/>
<polygon fill="#191970" stroke="#191970" points="751.4334,-420.6873 745.9157,-411.6427 744.5888,-422.1541 751.4334,-420.6873"/>
</g>
<!-- Node38&#45;&gt;Node4 -->
<g id="edge80" class="edge">
<title>Node38&#45;&gt;Node4</title>
<path fill="none" stroke="#191970" d="M704.3234,-392.4226C683.6264,-385.5074 659.4196,-374.1156 643.8494,-356 623.9529,-332.8509 624.8494,-320.5246 624.8494,-290 624.8494,-290 624.8494,-290 624.8494,-234 624.8494,-201.7116 624.8494,-164.1872 624.8494,-141.8048"/>
<polygon fill="#191970" stroke="#191970" points="628.3495,-141.5883 624.8494,-131.5884 621.3495,-141.5884 628.3495,-141.5883"/>
</g>
<!-- Node39 -->
<g id="node40" class="node">
<title>Node39</title>
<polygon fill="none" stroke="#bfbfbf" points="806.8494,-336.5 806.8494,-355.5 892.8494,-355.5 892.8494,-336.5 806.8494,-336.5"/>
<text text-anchor="middle" x="849.8494" y="-343.5" font-family="FreeSans.ttf" font-size="10.00" fill="#000000">ModelExport.h</text>
</g>
<!-- Node38&#45;&gt;Node39 -->
<g id="edge81" class="edge">
<title>Node38&#45;&gt;Node39</title>
<path fill="none" stroke="#191970" d="M762.3132,-392.2455C778.9569,-383.4527 803.6487,-370.4079 822.5686,-360.4125"/>
<polygon fill="#191970" stroke="#191970" points="824.3902,-363.4086 831.5972,-355.6427 821.1203,-357.2193 824.3902,-363.4086"/>
</g>
</g>
</svg>
