<?xml version="1.0" encoding="UTF-8" standalone="no"?>
<!DOCTYPE svg PUBLIC "-//W3C//DTD SVG 1.1//EN"
 "http://www.w3.org/Graphics/SVG/1.1/DTD/svg11.dtd">
<!-- Generated by graphviz version 2.40.1 (20161225.0304)
 -->
<!-- Title: RobotElement.cpp Pages: 1 -->
<svg width="2165pt" height="711pt"
 viewBox="0.00 0.00 2164.62 711.00" xmlns="http://www.w3.org/2000/svg" xmlns:xlink="http://www.w3.org/1999/xlink">
<g id="graph0" class="graph" transform="scale(1 1) rotate(0) translate(4 707)">
<title>RobotElement.cpp</title>
<!-- Node0 -->
<g id="node1" class="node">
<title>Node0</title>
<polygon fill="#bfbfbf" stroke="#000000" points="693.1177,-683.5 693.1177,-702.5 798.1177,-702.5 798.1177,-683.5 693.1177,-683.5"/>
<text text-anchor="middle" x="745.6177" y="-690.5" font-family="FreeSans.ttf" font-size="10.00" fill="#000000">RobotElement.cpp</text>
</g>
<!-- Node1 -->
<g id="node2" class="node">
<title>Node1</title>
<g id="a_node2"><a xlink:href="RobotElement_8h.html" target="_top" xlink:title="RobotElement.h">
<polygon fill="none" stroke="#000000" points="418.6177,-627.5 418.6177,-646.5 512.6177,-646.5 512.6177,-627.5 418.6177,-627.5"/>
<text text-anchor="middle" x="465.6177" y="-634.5" font-family="FreeSans.ttf" font-size="10.00" fill="#000000">RobotElement.h</text>
</a>
</g>
</g>
<!-- Node0&#45;&gt;Node1 -->
<g id="edge1" class="edge">
<title>Node0&#45;&gt;Node1</title>
<path fill="none" stroke="#191970" d="M697.8021,-683.4369C649.3331,-673.7431 574.3275,-658.742 522.756,-648.4277"/>
<polygon fill="#191970" stroke="#191970" points="523.2612,-644.9595 512.7689,-646.4303 521.8883,-651.8235 523.2612,-644.9595"/>
</g>
<!-- Node8 -->
<g id="node9" class="node">
<title>Node8</title>
<g id="a_node9"><a xlink:href="JointElement_8h.html" target="_top" xlink:title="JointElement.h">
<polygon fill="none" stroke="#000000" points="19.6177,-515.5 19.6177,-534.5 107.6177,-534.5 107.6177,-515.5 19.6177,-515.5"/>
<text text-anchor="middle" x="63.6177" y="-522.5" font-family="FreeSans.ttf" font-size="10.00" fill="#000000">JointElement.h</text>
</a>
</g>
</g>
<!-- Node0&#45;&gt;Node8 -->
<g id="edge95" class="edge">
<title>Node0&#45;&gt;Node8</title>
<path fill="none" stroke="#191970" d="M692.8888,-688.2901C563.4139,-676.0778 233.2941,-640.8346 135.6177,-591 112.4224,-579.1658 91.1473,-557.7807 77.835,-542.5613"/>
<polygon fill="#191970" stroke="#191970" points="80.4301,-540.2099 71.2968,-534.8402 75.0881,-544.7335 80.4301,-540.2099"/>
</g>
<!-- Node35 -->
<g id="node31" class="node">
<title>Node35</title>
<g id="a_node31"><a xlink:href="MaterialElement_8h.html" target="_top" xlink:title="MaterialElement.h">
<polygon fill="none" stroke="#000000" points="493.6177,-515.5 493.6177,-534.5 599.6177,-534.5 599.6177,-515.5 493.6177,-515.5"/>
<text text-anchor="middle" x="546.6177" y="-522.5" font-family="FreeSans.ttf" font-size="10.00" fill="#000000">MaterialElement.h</text>
</a>
</g>
</g>
<!-- Node0&#45;&gt;Node35 -->
<g id="edge121" class="edge">
<title>Node0&#45;&gt;Node35</title>
<path fill="none" stroke="#191970" d="M734.3484,-683.4862C701.7336,-655.9521 606.9724,-575.9528 565.9373,-541.31"/>
<polygon fill="#191970" stroke="#191970" points="568.158,-538.6043 558.259,-534.8279 563.6424,-543.9531 568.158,-538.6043"/>
</g>
<!-- Node41 -->
<g id="node37" class="node">
<title>Node41</title>
<g id="a_node37"><a xlink:href="LinkElement_8h.html" target="_top" xlink:title="LinkElement.h">
<polygon fill="none" stroke="#000000" points="540.6177,-627.5 540.6177,-646.5 626.6177,-646.5 626.6177,-627.5 540.6177,-627.5"/>
<text text-anchor="middle" x="583.6177" y="-634.5" font-family="FreeSans.ttf" font-size="10.00" fill="#000000">LinkElement.h</text>
</a>
</g>
</g>
<!-- Node0&#45;&gt;Node41 -->
<g id="edge83" class="edge">
<title>Node0&#45;&gt;Node41</title>
<path fill="none" stroke="#191970" d="M717.7689,-683.3733C690.9473,-674.1016 650.2049,-660.0178 620.6579,-649.804"/>
<polygon fill="#191970" stroke="#191970" points="621.6978,-646.4603 611.103,-646.5011 619.4108,-653.0762 621.6978,-646.4603"/>
</g>
<!-- Node53 -->
<g id="node45" class="node">
<title>Node53</title>
<g id="a_node45"><a xlink:href="SensorElement_8h.html" target="_top" xlink:title="SensorElement.h">
<polygon fill="none" stroke="#000000" points="732.1177,-627.5 732.1177,-646.5 831.1177,-646.5 831.1177,-627.5 732.1177,-627.5"/>
<text text-anchor="middle" x="781.6177" y="-634.5" font-family="FreeSans.ttf" font-size="10.00" fill="#000000">SensorElement.h</text>
</a>
</g>
</g>
<!-- Node0&#45;&gt;Node53 -->
<g id="edge96" class="edge">
<title>Node0&#45;&gt;Node53</title>
<path fill="none" stroke="#191970" d="M751.8884,-683.2455C756.844,-675.5367 763.9006,-664.5598 769.8953,-655.2348"/>
<polygon fill="#191970" stroke="#191970" points="772.9553,-656.9471 775.4188,-646.6427 767.067,-653.1618 772.9553,-656.9471"/>
</g>
<!-- Node54 -->
<g id="node46" class="node">
<title>Node54</title>
<g id="a_node46"><a xlink:href="Sensors_8h.html" target="_top" xlink:title="iDynTree/Sensors/Sensors.h">
<polygon fill="none" stroke="#000000" points="1440.1177,-571.5 1440.1177,-590.5 1591.1177,-590.5 1591.1177,-571.5 1440.1177,-571.5"/>
<text text-anchor="middle" x="1515.6177" y="-578.5" font-family="FreeSans.ttf" font-size="10.00" fill="#000000">iDynTree/Sensors/Sensors.h</text>
</a>
</g>
</g>
<!-- Node0&#45;&gt;Node54 -->
<g id="edge123" class="edge">
<title>Node0&#45;&gt;Node54</title>
<path fill="none" stroke="#191970" d="M798.2541,-684.0166C839.0817,-676.3049 896.7554,-663.7754 945.6177,-647 965.5527,-640.1559 968.2555,-632.4432 988.6177,-627 1069.4966,-605.3797 1302.4571,-591.2237 1429.8672,-584.8657"/>
<polygon fill="#191970" stroke="#191970" points="1430.166,-588.3553 1439.9811,-584.3663 1429.8207,-581.3638 1430.166,-588.3553"/>
</g>
<!-- Node56 -->
<g id="node48" class="node">
<title>Node56</title>
<g id="a_node48"><a xlink:href="Model_8h.html" target="_top" xlink:title="iDynTree/Model/Model.h">
<polygon fill="none" stroke="#000000" points="949.1177,-515.5 949.1177,-534.5 1082.1177,-534.5 1082.1177,-515.5 949.1177,-515.5"/>
<text text-anchor="middle" x="1015.6177" y="-522.5" font-family="FreeSans.ttf" font-size="10.00" fill="#000000">iDynTree/Model/Model.h</text>
</a>
</g>
</g>
<!-- Node0&#45;&gt;Node56 -->
<g id="edge122" class="edge">
<title>Node0&#45;&gt;Node56</title>
<path fill="none" stroke="#191970" d="M768.0151,-683.3631C787.5987,-674.6551 816.5835,-661.0779 840.6177,-647 899.0399,-612.7795 963.2643,-565.219 995.2114,-540.8219"/>
<polygon fill="#191970" stroke="#191970" points="997.5341,-543.4512 1003.3345,-534.5852 993.2712,-537.8989 997.5341,-543.4512"/>
</g>
<!-- Node58 -->
<g id="node50" class="node">
<title>Node58</title>
<polygon fill="none" stroke="#bfbfbf" points="997.6177,-627.5 997.6177,-646.5 1083.6177,-646.5 1083.6177,-627.5 997.6177,-627.5"/>
<text text-anchor="middle" x="1040.6177" y="-634.5" font-family="FreeSans.ttf" font-size="10.00" fill="#000000">unordered_set</text>
</g>
<!-- Node0&#45;&gt;Node58 -->
<g id="edge124" class="edge">
<title>Node0&#45;&gt;Node58</title>
<path fill="none" stroke="#191970" d="M795.9948,-683.4369C849.1764,-673.3414 932.6816,-657.4896 987.0422,-647.1702"/>
<polygon fill="#191970" stroke="#191970" points="988.0018,-650.5507 997.1736,-645.247 986.6963,-643.6735 988.0018,-650.5507"/>
</g>
<!-- Node2 -->
<g id="node3" class="node">
<title>Node2</title>
<g id="a_node3"><a xlink:href="XMLElement_8h.html" target="_top" xlink:title="iDynTree/XMLElement.h">
<polygon fill="none" stroke="#000000" points="277.6177,-459.5 277.6177,-478.5 409.6177,-478.5 409.6177,-459.5 277.6177,-459.5"/>
<text text-anchor="middle" x="343.6177" y="-466.5" font-family="FreeSans.ttf" font-size="10.00" fill="#000000">iDynTree/XMLElement.h</text>
</a>
</g>
</g>
<!-- Node1&#45;&gt;Node2 -->
<g id="edge2" class="edge">
<title>Node1&#45;&gt;Node2</title>
<path fill="none" stroke="#191970" d="M418.544,-633.0741C364.5261,-627.4786 280.8901,-615.1021 261.6177,-591 240.523,-564.6191 244.5482,-544.1474 261.6177,-515 270.2931,-500.186 285.6802,-489.7802 300.8001,-482.6608"/>
<polygon fill="#191970" stroke="#191970" points="302.321,-485.8166 310.1174,-478.6426 299.5489,-479.3888 302.321,-485.8166"/>
</g>
<!-- Node6 -->
<g id="node7" class="node">
<title>Node6</title>
<polygon fill="none" stroke="#bfbfbf" points="148.1177,-403.5 148.1177,-422.5 241.1177,-422.5 241.1177,-403.5 148.1177,-403.5"/>
<text text-anchor="middle" x="194.6177" y="-410.5" font-family="FreeSans.ttf" font-size="10.00" fill="#000000">unordered_map</text>
</g>
<!-- Node1&#45;&gt;Node6 -->
<g id="edge81" class="edge">
<title>Node1&#45;&gt;Node6</title>
<path fill="none" stroke="#191970" d="M418.562,-634.4072C311.3889,-627.3396 54.9598,-603.4539 10.6177,-535 -25.8025,-478.7758 73.2724,-442.457 139.8064,-425.0707"/>
<polygon fill="#191970" stroke="#191970" points="140.9404,-428.394 149.7729,-422.5427 139.2193,-421.6089 140.9404,-428.394"/>
</g>
<!-- Node7 -->
<g id="node8" class="node">
<title>Node7</title>
<polygon fill="none" stroke="#bfbfbf" points="717.1177,-403.5 717.1177,-422.5 764.1177,-422.5 764.1177,-403.5 717.1177,-403.5"/>
<text text-anchor="middle" x="740.6177" y="-410.5" font-family="FreeSans.ttf" font-size="10.00" fill="#000000">vector</text>
</g>
<!-- Node1&#45;&gt;Node7 -->
<g id="edge82" class="edge">
<title>Node1&#45;&gt;Node7</title>
<path fill="none" stroke="#191970" d="M482.9467,-627.4196C498.6344,-618.5359 522.191,-604.6653 541.6177,-591 606.2254,-545.5528 621.9965,-533.0315 679.6177,-479 696.2064,-463.4446 713.6788,-444.2083 725.6515,-430.5245"/>
<polygon fill="#191970" stroke="#191970" points="728.4367,-432.6548 732.3384,-422.8045 723.1456,-428.0717 728.4367,-432.6548"/>
</g>
<!-- Node1&#45;&gt;Node8 -->
<g id="edge8" class="edge">
<title>Node1&#45;&gt;Node8</title>
<path fill="none" stroke="#191970" d="M418.3804,-634.0439C361.7614,-629.417 264.6297,-618.0074 185.6177,-591 148.8043,-578.4167 109.8679,-555.4307 86.1491,-540.183"/>
<polygon fill="#191970" stroke="#191970" points="87.8342,-537.1032 77.5485,-534.5624 84.0048,-542.9628 87.8342,-537.1032"/>
</g>
<!-- Node1&#45;&gt;Node35 -->
<g id="edge60" class="edge">
<title>Node1&#45;&gt;Node35</title>
<path fill="none" stroke="#191970" d="M481.9091,-627.3562C494.5705,-619.1204 511.7521,-606.2108 522.6177,-591 532.5716,-577.0655 538.8274,-558.5544 542.4468,-544.683"/>
<polygon fill="#191970" stroke="#191970" points="545.9053,-545.2668 544.8046,-534.7293 539.0938,-543.6533 545.9053,-545.2668"/>
</g>
<!-- Node36 -->
<g id="node32" class="node">
<title>Node36</title>
<g id="a_node32"><a xlink:href="VisualElement_8h.html" target="_top" xlink:title="VisualElement.h">
<polygon fill="none" stroke="#000000" points="417.6177,-571.5 417.6177,-590.5 513.6177,-590.5 513.6177,-571.5 417.6177,-571.5"/>
<text text-anchor="middle" x="465.6177" y="-578.5" font-family="FreeSans.ttf" font-size="10.00" fill="#000000">VisualElement.h</text>
</a>
</g>
</g>
<!-- Node1&#45;&gt;Node36 -->
<g id="edge65" class="edge">
<title>Node1&#45;&gt;Node36</title>
<path fill="none" stroke="#191970" d="M465.6177,-627.2455C465.6177,-619.9382 465.6177,-609.6944 465.6177,-600.7046"/>
<polygon fill="#191970" stroke="#191970" points="469.1177,-600.6426 465.6177,-590.6427 462.1177,-600.6427 469.1177,-600.6426"/>
</g>
<!-- Node3 -->
<g id="node4" class="node">
<title>Node3</title>
<polygon fill="none" stroke="#bfbfbf" points="306.1177,-403.5 306.1177,-422.5 371.1177,-422.5 371.1177,-403.5 306.1177,-403.5"/>
<text text-anchor="middle" x="338.6177" y="-410.5" font-family="FreeSans.ttf" font-size="10.00" fill="#000000">functional</text>
</g>
<!-- Node2&#45;&gt;Node3 -->
<g id="edge3" class="edge">
<title>Node2&#45;&gt;Node3</title>
<path fill="none" stroke="#191970" d="M342.7467,-459.2455C342.0943,-451.9382 341.1796,-441.6944 340.377,-432.7046"/>
<polygon fill="#191970" stroke="#191970" points="343.8541,-432.2918 339.4786,-422.6427 336.8819,-432.9143 343.8541,-432.2918"/>
</g>
<!-- Node4 -->
<g id="node5" class="node">
<title>Node4</title>
<polygon fill="none" stroke="#bfbfbf" points="427.6177,-403.5 427.6177,-422.5 485.6177,-422.5 485.6177,-403.5 427.6177,-403.5"/>
<text text-anchor="middle" x="456.6177" y="-410.5" font-family="FreeSans.ttf" font-size="10.00" fill="#000000">memory</text>
</g>
<!-- Node2&#45;&gt;Node4 -->
<g id="edge4" class="edge">
<title>Node2&#45;&gt;Node4</title>
<path fill="none" stroke="#191970" d="M363.043,-459.3733C381.0198,-450.4644 407.9617,-437.1127 428.3267,-427.0203"/>
<polygon fill="#191970" stroke="#191970" points="430.0398,-430.0776 437.4457,-422.5011 426.9315,-423.8055 430.0398,-430.0776"/>
</g>
<!-- Node5 -->
<g id="node6" class="node">
<title>Node5</title>
<polygon fill="none" stroke="#bfbfbf" points="819.6177,-112.5 819.6177,-131.5 863.6177,-131.5 863.6177,-112.5 819.6177,-112.5"/>
<text text-anchor="middle" x="841.6177" y="-119.5" font-family="FreeSans.ttf" font-size="10.00" fill="#000000">string</text>
</g>
<!-- Node2&#45;&gt;Node5 -->
<g id="edge5" class="edge">
<title>Node2&#45;&gt;Node5</title>
<path fill="none" stroke="#191970" d="M353.4922,-459.2748C361.8576,-450.51 373.5824,-436.8993 380.6177,-423 395.4666,-393.6632 399.6177,-384.3806 399.6177,-351.5 399.6177,-351.5 399.6177,-351.5 399.6177,-234 399.6177,-149.421 707.5828,-128.0048 809.3851,-123.2359"/>
<polygon fill="#191970" stroke="#191970" points="809.5615,-126.7316 819.3959,-122.7901 809.25,-119.7385 809.5615,-126.7316"/>
</g>
<!-- Node2&#45;&gt;Node6 -->
<g id="edge6" class="edge">
<title>Node2&#45;&gt;Node6</title>
<path fill="none" stroke="#191970" d="M318.0036,-459.3733C293.549,-450.1822 256.5122,-436.2624 229.3968,-426.0713"/>
<polygon fill="#191970" stroke="#191970" points="230.4895,-422.7431 219.8974,-422.5011 228.0268,-429.2956 230.4895,-422.7431"/>
</g>
<!-- Node2&#45;&gt;Node7 -->
<g id="edge7" class="edge">
<title>Node2&#45;&gt;Node7</title>
<path fill="none" stroke="#191970" d="M409.6198,-459.6899C495.0428,-447.6403 640.7151,-427.092 706.5421,-417.8066"/>
<polygon fill="#191970" stroke="#191970" points="707.3562,-421.2265 716.7693,-416.364 706.3784,-414.2951 707.3562,-421.2265"/>
</g>
<!-- Node8&#45;&gt;Node2 -->
<g id="edge9" class="edge">
<title>Node8&#45;&gt;Node2</title>
<path fill="none" stroke="#191970" d="M107.6757,-516.1884C155.8551,-506.5525 233.2435,-491.0748 286.1599,-480.4916"/>
<polygon fill="#191970" stroke="#191970" points="286.9524,-483.9024 296.0718,-478.5092 285.5795,-477.0384 286.9524,-483.9024"/>
</g>
<!-- Node8&#45;&gt;Node4 -->
<g id="edge57" class="edge">
<title>Node8&#45;&gt;Node4</title>
<path fill="none" stroke="#191970" d="M79.4919,-515.3287C103.9609,-500.8567 152.7677,-473.6995 197.6177,-459 237.8214,-445.8233 355.4995,-427.6242 417.4475,-418.5749"/>
<polygon fill="#191970" stroke="#191970" points="418.2201,-421.9996 427.6135,-417.099 417.2143,-415.0722 418.2201,-421.9996"/>
</g>
<!-- Node8&#45;&gt;Node5 -->
<g id="edge58" class="edge">
<title>Node8&#45;&gt;Node5</title>
<path fill="none" stroke="#191970" d="M52.9241,-515.3584C32.0835,-495.3412 -10.8037,-447.4311 2.6177,-403 43.0358,-269.1966 78.7092,-211.2704 211.6177,-168 324.5077,-131.2469 697.0908,-123.7581 809.3366,-122.3224"/>
<polygon fill="#191970" stroke="#191970" points="809.4118,-125.8218 819.3689,-122.2015 809.3274,-118.8223 809.4118,-125.8218"/>
</g>
<!-- Node8&#45;&gt;Node6 -->
<g id="edge59" class="edge">
<title>Node8&#45;&gt;Node6</title>
<path fill="none" stroke="#191970" d="M64.0334,-515.2261C65.1389,-501.1126 69.1484,-474.9717 83.6177,-459 98.0003,-443.1238 118.7063,-432.5827 138.3478,-425.6511"/>
<polygon fill="#191970" stroke="#191970" points="139.4588,-428.9702 147.8721,-422.5307 137.2794,-422.3181 139.4588,-428.9702"/>
</g>
<!-- Node9 -->
<g id="node10" class="node">
<title>Node9</title>
<g id="a_node10"><a xlink:href="Axis_8h.html" target="_top" xlink:title="iDynTree/Core/Axis.h">
<polygon fill="none" stroke="#000000" points="11.6177,-403.5 11.6177,-422.5 129.6177,-422.5 129.6177,-403.5 11.6177,-403.5"/>
<text text-anchor="middle" x="70.6177" y="-410.5" font-family="FreeSans.ttf" font-size="10.00" fill="#000000">iDynTree/Core/Axis.h</text>
</a>
</g>
</g>
<!-- Node8&#45;&gt;Node9 -->
<g id="edge10" class="edge">
<title>Node8&#45;&gt;Node9</title>
<path fill="none" stroke="#191970" d="M57.6934,-515.1881C50.6718,-502.3213 40.5267,-479.0288 45.6177,-459 48.0961,-449.2493 53.105,-439.3309 57.9928,-431.2128"/>
<polygon fill="#191970" stroke="#191970" points="61.049,-432.9312 63.5161,-422.6276 55.1621,-429.1437 61.049,-432.9312"/>
</g>
<!-- Node34 -->
<g id="node30" class="node">
<title>Node34</title>
<g id="a_node30"><a xlink:href="Transform_8h.html" target="_top" xlink:title="iDynTree/Core/Transform.h">
<polygon fill="none" stroke="#000000" points="782.6177,-403.5 782.6177,-422.5 928.6177,-422.5 928.6177,-403.5 782.6177,-403.5"/>
<text text-anchor="middle" x="855.6177" y="-410.5" font-family="FreeSans.ttf" font-size="10.00" fill="#000000">iDynTree/Core/Transform.h</text>
</a>
</g>
</g>
<!-- Node8&#45;&gt;Node34 -->
<g id="edge52" class="edge">
<title>Node8&#45;&gt;Node34</title>
<path fill="none" stroke="#191970" d="M87.1159,-515.3789C124.7225,-500.4543 201.0765,-472.0819 268.6177,-459 486.2901,-416.8394 547.8495,-443.8091 772.2051,-423.0801"/>
<polygon fill="#191970" stroke="#191970" points="772.6939,-426.5496 782.32,-422.1236 772.0349,-419.5806 772.6939,-426.5496"/>
</g>
<!-- Node9&#45;&gt;Node5 -->
<g id="edge11" class="edge">
<title>Node9&#45;&gt;Node5</title>
<path fill="none" stroke="#191970" d="M79.9306,-403.3994C97.9036,-383.8114 135.6177,-337.0975 135.6177,-290 135.6177,-290 135.6177,-290 135.6177,-234 135.6177,-226.7506 118.9447,-209.5531 281.6177,-168 382.7151,-142.1757 705.9105,-127.389 809.4074,-123.2263"/>
<polygon fill="#191970" stroke="#191970" points="809.6969,-126.7177 819.5504,-122.8243 809.4196,-119.7232 809.6969,-126.7177"/>
</g>
<!-- Node10 -->
<g id="node11" class="node">
<title>Node10</title>
<g id="a_node11"><a xlink:href="Direction_8h.html" target="_top" xlink:title="iDynTree/Core/Direction.h">
<polygon fill="none" stroke="#000000" points="164.1177,-224.5 164.1177,-243.5 305.1177,-243.5 305.1177,-224.5 164.1177,-224.5"/>
<text text-anchor="middle" x="234.6177" y="-231.5" font-family="FreeSans.ttf" font-size="10.00" fill="#000000">iDynTree/Core/Direction.h</text>
</a>
</g>
</g>
<!-- Node9&#45;&gt;Node10 -->
<g id="edge12" class="edge">
<title>Node9&#45;&gt;Node10</title>
<path fill="none" stroke="#191970" d="M93.2804,-403.3756C110.1917,-395.3994 133.1264,-382.8225 149.6177,-367 185.2111,-332.85 212.7747,-280.9684 226.003,-253.1749"/>
<polygon fill="#191970" stroke="#191970" points="229.3238,-254.3336 230.3579,-243.7893 222.974,-251.3872 229.3238,-254.3336"/>
</g>
<!-- Node12 -->
<g id="node13" class="node">
<title>Node12</title>
<g id="a_node13"><a xlink:href="Utils_8h.html" target="_top" xlink:title="iDynTree/Core/Utils.h">
<polygon fill="none" stroke="#000000" points="1157.1177,-56.5 1157.1177,-75.5 1276.1177,-75.5 1276.1177,-56.5 1157.1177,-56.5"/>
<text text-anchor="middle" x="1216.6177" y="-63.5" font-family="FreeSans.ttf" font-size="10.00" fill="#000000">iDynTree/Core/Utils.h</text>
</a>
</g>
</g>
<!-- Node9&#45;&gt;Node12 -->
<g id="edge51" class="edge">
<title>Node9&#45;&gt;Node12</title>
<path fill="none" stroke="#191970" d="M63.8044,-403.3219C50.3406,-383.219 21.6177,-335.0531 21.6177,-290 21.6177,-290 21.6177,-290 21.6177,-178 21.6177,-121.1272 890.9542,-79.7931 1146.6724,-68.8648"/>
<polygon fill="#191970" stroke="#191970" points="1147.1063,-72.3496 1156.9486,-68.4279 1146.8089,-65.3559 1147.1063,-72.3496"/>
</g>
<!-- Node26 -->
<g id="node22" class="node">
<title>Node26</title>
<g id="a_node22"><a xlink:href="Position_8h.html" target="_top" xlink:title="iDynTree/Core/Position.h">
<polygon fill="none" stroke="#000000" points="675.6177,-342 675.6177,-361 811.6177,-361 811.6177,-342 675.6177,-342"/>
<text text-anchor="middle" x="743.6177" y="-349" font-family="FreeSans.ttf" font-size="10.00" fill="#000000">iDynTree/Core/Position.h</text>
</a>
</g>
</g>
<!-- Node9&#45;&gt;Node26 -->
<g id="edge28" class="edge">
<title>Node9&#45;&gt;Node26</title>
<path fill="none" stroke="#191970" d="M129.6829,-404.2065C133.0414,-403.7792 136.3709,-403.3734 139.6177,-403 327.8807,-381.3507 550.1281,-364.6774 665.41,-356.691"/>
<polygon fill="#191970" stroke="#191970" points="665.8162,-360.1714 675.5518,-355.9917 665.3347,-353.188 665.8162,-360.1714"/>
</g>
<!-- Node10&#45;&gt;Node5 -->
<g id="edge13" class="edge">
<title>Node10&#45;&gt;Node5</title>
<path fill="none" stroke="#191970" d="M243.4128,-224.2554C257.7066,-209.1615 287.6178,-180.5613 319.6177,-168 409.5986,-132.6785 709.889,-124.3007 809.3275,-122.4735"/>
<polygon fill="#191970" stroke="#191970" points="809.4397,-125.9722 819.3774,-122.2989 809.318,-118.9733 809.4397,-125.9722"/>
</g>
<!-- Node11 -->
<g id="node12" class="node">
<title>Node11</title>
<g id="a_node12"><a xlink:href="VectorFixSize_8h.html" target="_top" xlink:title="iDynTree/Core/VectorFixSize.h">
<polygon fill="none" stroke="#000000" points="1134.1177,-168.5 1134.1177,-187.5 1295.1177,-187.5 1295.1177,-168.5 1134.1177,-168.5"/>
<text text-anchor="middle" x="1214.6177" y="-175.5" font-family="FreeSans.ttf" font-size="10.00" fill="#000000">iDynTree/Core/VectorFixSize.h</text>
</a>
</g>
</g>
<!-- Node10&#45;&gt;Node11 -->
<g id="edge14" class="edge">
<title>Node10&#45;&gt;Node11</title>
<path fill="none" stroke="#191970" d="M305.4911,-229.9501C479.9951,-219.9784 930.2659,-194.2487 1123.8954,-183.1841"/>
<polygon fill="#191970" stroke="#191970" points="1124.2555,-186.6694 1134.0395,-182.6045 1123.8561,-179.6808 1124.2555,-186.6694"/>
</g>
<!-- Node10&#45;&gt;Node12 -->
<g id="edge27" class="edge">
<title>Node10&#45;&gt;Node12</title>
<path fill="none" stroke="#191970" d="M238.3812,-224.3813C244.778,-209.4599 259.2899,-181.0918 281.6177,-168 355.9002,-124.4445 942.5803,-83.4145 1146.8133,-70.3198"/>
<polygon fill="#191970" stroke="#191970" points="1147.0688,-73.8107 1156.8254,-69.6806 1146.6227,-66.8249 1147.0688,-73.8107"/>
</g>
<!-- Node11&#45;&gt;Node5 -->
<g id="edge23" class="edge">
<title>Node11&#45;&gt;Node5</title>
<path fill="none" stroke="#191970" d="M1150.9205,-168.4369C1070.4727,-156.3589 935.1472,-136.042 873.6994,-126.8166"/>
<polygon fill="#191970" stroke="#191970" points="874.2105,-123.3541 863.8016,-125.3306 873.1711,-130.2766 874.2105,-123.3541"/>
</g>
<!-- Node11&#45;&gt;Node12 -->
<g id="edge15" class="edge">
<title>Node11&#45;&gt;Node12</title>
<path fill="none" stroke="#191970" d="M1210.1836,-168.2089C1204.9102,-155.3646 1197.2224,-132.0963 1200.6177,-112 1202.1627,-102.8551 1205.3211,-93.1019 1208.4266,-84.9405"/>
<polygon fill="#191970" stroke="#191970" points="1211.6918,-86.2021 1212.2067,-75.6198 1205.205,-83.5713 1211.6918,-86.2021"/>
</g>
<!-- Node15 -->
<g id="node16" class="node">
<title>Node15</title>
<g id="a_node16"><a xlink:href="Span_8h.html" target="_top" xlink:title="iDynTree/Core/Span.h">
<polygon fill="none" stroke="#ff0000" points="1399.1177,-56.5 1399.1177,-75.5 1520.1177,-75.5 1520.1177,-56.5 1399.1177,-56.5"/>
<text text-anchor="middle" x="1459.6177" y="-63.5" font-family="FreeSans.ttf" font-size="10.00" fill="#000000">iDynTree/Core/Span.h</text>
</a>
</g>
</g>
<!-- Node11&#45;&gt;Node15 -->
<g id="edge18" class="edge">
<title>Node11&#45;&gt;Node15</title>
<path fill="none" stroke="#191970" d="M1218.7966,-168.2151C1225.5647,-153.5947 1240.3461,-126.2464 1261.6177,-112 1282.3539,-98.1121 1340.617,-85.5286 1388.6101,-77.0474"/>
<polygon fill="#191970" stroke="#191970" points="1389.4236,-80.4587 1398.6782,-75.3009 1388.2271,-73.5617 1389.4236,-80.4587"/>
</g>
<!-- Node16 -->
<g id="node17" class="node">
<title>Node16</title>
<polygon fill="none" stroke="#bfbfbf" points="1588.6177,-.5 1588.6177,-19.5 1640.6177,-19.5 1640.6177,-.5 1588.6177,-.5"/>
<text text-anchor="middle" x="1614.6177" y="-7.5" font-family="FreeSans.ttf" font-size="10.00" fill="#000000">cassert</text>
</g>
<!-- Node11&#45;&gt;Node16 -->
<g id="edge25" class="edge">
<title>Node11&#45;&gt;Node16</title>
<path fill="none" stroke="#191970" d="M1295.4313,-168.9499C1414.0143,-155.6585 1621.2795,-132.3786 1621.6177,-132 1646.8227,-103.7858 1633.5157,-55.6796 1623.1205,-29.0854"/>
<polygon fill="#191970" stroke="#191970" points="1626.3017,-27.6198 1619.2317,-19.7289 1619.8378,-30.3064 1626.3017,-27.6198"/>
</g>
<!-- Node24 -->
<g id="node20" class="node">
<title>Node24</title>
<polygon fill="none" stroke="#bfbfbf" points="1280.6177,-112.5 1280.6177,-131.5 1336.6177,-131.5 1336.6177,-112.5 1280.6177,-112.5"/>
<text text-anchor="middle" x="1308.6177" y="-119.5" font-family="FreeSans.ttf" font-size="10.00" fill="#000000">sstream</text>
</g>
<!-- Node11&#45;&gt;Node24 -->
<g id="edge24" class="edge">
<title>Node11&#45;&gt;Node24</title>
<path fill="none" stroke="#191970" d="M1230.9912,-168.2455C1245.5485,-159.5731 1267.0487,-146.7645 1283.7329,-136.825"/>
<polygon fill="#191970" stroke="#191970" points="1285.632,-139.7676 1292.4317,-131.6427 1282.0494,-133.7539 1285.632,-139.7676"/>
</g>
<!-- Node25 -->
<g id="node21" class="node">
<title>Node25</title>
<polygon fill="none" stroke="#bfbfbf" points="1354.6177,-112.5 1354.6177,-131.5 1404.6177,-131.5 1404.6177,-112.5 1354.6177,-112.5"/>
<text text-anchor="middle" x="1379.6177" y="-119.5" font-family="FreeSans.ttf" font-size="10.00" fill="#000000">cstring</text>
</g>
<!-- Node11&#45;&gt;Node25 -->
<g id="edge26" class="edge">
<title>Node11&#45;&gt;Node25</title>
<path fill="none" stroke="#191970" d="M1242.9822,-168.3733C1271.211,-158.7926 1314.5795,-144.0736 1344.862,-133.7959"/>
<polygon fill="#191970" stroke="#191970" points="1346.2446,-137.0228 1354.5892,-130.4945 1343.9949,-130.3941 1346.2446,-137.0228"/>
</g>
<!-- Node13 -->
<g id="node14" class="node">
<title>Node13</title>
<polygon fill="none" stroke="#bfbfbf" points="1329.1177,-.5 1329.1177,-19.5 1382.1177,-19.5 1382.1177,-.5 1329.1177,-.5"/>
<text text-anchor="middle" x="1355.6177" y="-7.5" font-family="FreeSans.ttf" font-size="10.00" fill="#000000">cstddef</text>
</g>
<!-- Node12&#45;&gt;Node13 -->
<g id="edge16" class="edge">
<title>Node12&#45;&gt;Node13</title>
<path fill="none" stroke="#191970" d="M1240.5126,-56.3733C1263.1259,-47.2629 1297.2718,-33.5062 1322.5049,-23.3404"/>
<polygon fill="#191970" stroke="#191970" points="1324.0669,-26.4845 1332.0345,-19.5011 1321.451,-19.9917 1324.0669,-26.4845"/>
</g>
<!-- Node14 -->
<g id="node15" class="node">
<title>Node14</title>
<polygon fill="none" stroke="#bfbfbf" points="1176.6177,-.5 1176.6177,-19.5 1256.6177,-19.5 1256.6177,-.5 1176.6177,-.5"/>
<text text-anchor="middle" x="1216.6177" y="-7.5" font-family="FreeSans.ttf" font-size="10.00" fill="#000000">CoreExport.h</text>
</g>
<!-- Node12&#45;&gt;Node14 -->
<g id="edge17" class="edge">
<title>Node12&#45;&gt;Node14</title>
<path fill="none" stroke="#191970" d="M1216.6177,-56.2455C1216.6177,-48.9382 1216.6177,-38.6944 1216.6177,-29.7046"/>
<polygon fill="#191970" stroke="#191970" points="1220.1177,-29.6426 1216.6177,-19.6427 1213.1177,-29.6427 1220.1177,-29.6426"/>
</g>
<!-- Node15&#45;&gt;Node13 -->
<g id="edge21" class="edge">
<title>Node15&#45;&gt;Node13</title>
<path fill="none" stroke="#191970" d="M1441.5022,-56.2455C1425.1726,-47.4527 1400.9466,-34.4079 1382.3837,-24.4125"/>
<polygon fill="#191970" stroke="#191970" points="1383.9896,-21.3021 1373.5255,-19.6427 1380.6708,-27.4654 1383.9896,-21.3021"/>
</g>
<!-- Node15&#45;&gt;Node16 -->
<g id="edge19" class="edge">
<title>Node15&#45;&gt;Node16</title>
<path fill="none" stroke="#191970" d="M1486.2631,-56.3733C1511.8915,-47.114 1550.8039,-33.0553 1579.065,-22.8448"/>
<polygon fill="#191970" stroke="#191970" points="1580.3622,-26.0977 1588.5779,-19.4079 1577.9836,-19.5142 1580.3622,-26.0977"/>
</g>
<!-- Node17 -->
<g id="node18" class="node">
<title>Node17</title>
<polygon fill="none" stroke="#bfbfbf" points="1427.6177,-.5 1427.6177,-19.5 1491.6177,-19.5 1491.6177,-.5 1427.6177,-.5"/>
<text text-anchor="middle" x="1459.6177" y="-7.5" font-family="FreeSans.ttf" font-size="10.00" fill="#000000">algorithm</text>
</g>
<!-- Node15&#45;&gt;Node17 -->
<g id="edge20" class="edge">
<title>Node15&#45;&gt;Node17</title>
<path fill="none" stroke="#191970" d="M1459.6177,-56.2455C1459.6177,-48.9382 1459.6177,-38.6944 1459.6177,-29.7046"/>
<polygon fill="#191970" stroke="#191970" points="1463.1177,-29.6426 1459.6177,-19.6427 1456.1177,-29.6427 1463.1177,-29.6426"/>
</g>
<!-- Node19 -->
<g id="node19" class="node">
<title>Node19</title>
<polygon fill="none" stroke="#bfbfbf" points="1933.1177,-.5 1933.1177,-19.5 1986.1177,-19.5 1986.1177,-.5 1933.1177,-.5"/>
<text text-anchor="middle" x="1959.6177" y="-7.5" font-family="FreeSans.ttf" font-size="10.00" fill="#000000">iterator</text>
</g>
<!-- Node15&#45;&gt;Node19 -->
<g id="edge22" class="edge">
<title>Node15&#45;&gt;Node19</title>
<path fill="none" stroke="#191970" d="M1520.4276,-59.1893C1625.4833,-47.423 1837.8791,-23.6347 1923.0592,-14.0945"/>
<polygon fill="#191970" stroke="#191970" points="1923.4883,-17.5685 1933.0366,-12.9771 1922.7091,-10.612 1923.4883,-17.5685"/>
</g>
<!-- Node26&#45;&gt;Node5 -->
<g id="edge50" class="edge">
<title>Node26&#45;&gt;Node5</title>
<path fill="none" stroke="#191970" d="M732.7014,-341.6964C709.9576,-320.0395 661.4619,-266.6575 684.6177,-224 711.1657,-175.0933 772.421,-145.982 810.0892,-132.0623"/>
<polygon fill="#191970" stroke="#191970" points="811.3288,-135.3363 819.5808,-128.6913 808.986,-128.7399 811.3288,-135.3363"/>
</g>
<!-- Node27 -->
<g id="node23" class="node">
<title>Node27</title>
<g id="a_node23"><a xlink:href="PositionRaw_8h.html" target="_top" xlink:title="iDynTree/Core/PositionRaw.h">
<polygon fill="none" stroke="#000000" points="693.6177,-224.5 693.6177,-243.5 849.6177,-243.5 849.6177,-224.5 693.6177,-224.5"/>
<text text-anchor="middle" x="771.6177" y="-231.5" font-family="FreeSans.ttf" font-size="10.00" fill="#000000">iDynTree/Core/PositionRaw.h</text>
</a>
</g>
</g>
<!-- Node26&#45;&gt;Node27 -->
<g id="edge29" class="edge">
<title>Node26&#45;&gt;Node27</title>
<path fill="none" stroke="#191970" d="M745.909,-341.8845C750.4827,-322.6913 760.8261,-279.286 766.9074,-253.7663"/>
<polygon fill="#191970" stroke="#191970" points="770.3812,-254.2874 769.2946,-243.7484 763.5718,-252.6646 770.3812,-254.2874"/>
</g>
<!-- Node28 -->
<g id="node24" class="node">
<title>Node28</title>
<g id="a_node24"><a xlink:href="Rotation_8h.html" target="_top" xlink:title="iDynTree/Core/Rotation.h">
<polygon fill="none" stroke="#000000" points="1058.1177,-280.5 1058.1177,-299.5 1195.1177,-299.5 1195.1177,-280.5 1058.1177,-280.5"/>
<text text-anchor="middle" x="1126.6177" y="-287.5" font-family="FreeSans.ttf" font-size="10.00" fill="#000000">iDynTree/Core/Rotation.h</text>
</a>
</g>
</g>
<!-- Node26&#45;&gt;Node28 -->
<g id="edge32" class="edge">
<title>Node26&#45;&gt;Node28</title>
<path fill="none" stroke="#191970" d="M803.0412,-341.9581C871.772,-330.9217 984.7589,-312.7789 1057.3969,-301.1151"/>
<polygon fill="#191970" stroke="#191970" points="1058.0513,-304.5549 1067.3699,-299.5137 1056.9414,-297.6435 1058.0513,-304.5549"/>
</g>
<!-- Node27&#45;&gt;Node5 -->
<g id="edge31" class="edge">
<title>Node27&#45;&gt;Node5</title>
<path fill="none" stroke="#191970" d="M777.5858,-224.4509C789.261,-205.7707 815.2903,-164.1238 830.3201,-140.0761"/>
<polygon fill="#191970" stroke="#191970" points="833.3326,-141.8599 835.6646,-131.5249 827.3966,-138.1499 833.3326,-141.8599"/>
</g>
<!-- Node27&#45;&gt;Node11 -->
<g id="edge30" class="edge">
<title>Node27&#45;&gt;Node11</title>
<path fill="none" stroke="#191970" d="M847.0175,-224.4686C925.2603,-214.5779 1047.4064,-199.1373 1129.1748,-188.8009"/>
<polygon fill="#191970" stroke="#191970" points="1129.7073,-192.2615 1139.1894,-187.535 1128.8293,-185.3168 1129.7073,-192.2615"/>
</g>
<!-- Node28&#45;&gt;Node5 -->
<g id="edge33" class="edge">
<title>Node28&#45;&gt;Node5</title>
<path fill="none" stroke="#191970" d="M1122.9421,-280.246C1113.5961,-256.8478 1086.5776,-197.3054 1043.6177,-168 1016.225,-149.3139 923.5012,-133.6821 873.7665,-126.3985"/>
<polygon fill="#191970" stroke="#191970" points="874.2414,-122.9309 863.8452,-124.9729 873.2457,-129.8597 874.2414,-122.9309"/>
</g>
<!-- Node28&#45;&gt;Node11 -->
<g id="edge49" class="edge">
<title>Node28&#45;&gt;Node11</title>
<path fill="none" stroke="#191970" d="M1125.4278,-280.1177C1124.2927,-266.3348 1124.1734,-241.1101 1135.6177,-224 1145.336,-209.4702 1161.3152,-198.9281 1176.369,-191.632"/>
<polygon fill="#191970" stroke="#191970" points="1177.872,-194.7938 1185.5583,-187.5019 1175.0024,-188.409 1177.872,-194.7938"/>
</g>
<!-- Node29 -->
<g id="node25" class="node">
<title>Node29</title>
<g id="a_node25"><a xlink:href="GeomVector3_8h.html" target="_top" xlink:title="iDynTree/Core/GeomVector3.h">
<polygon fill="none" stroke="#000000" points="1321.1177,-224.5 1321.1177,-243.5 1484.1177,-243.5 1484.1177,-224.5 1321.1177,-224.5"/>
<text text-anchor="middle" x="1402.6177" y="-231.5" font-family="FreeSans.ttf" font-size="10.00" fill="#000000">iDynTree/Core/GeomVector3.h</text>
</a>
</g>
</g>
<!-- Node28&#45;&gt;Node29 -->
<g id="edge34" class="edge">
<title>Node28&#45;&gt;Node29</title>
<path fill="none" stroke="#191970" d="M1173.7501,-280.4369C1221.3823,-270.7724 1295.0143,-255.8326 1345.8342,-245.5213"/>
<polygon fill="#191970" stroke="#191970" points="1346.5752,-248.9423 1355.6796,-243.5237 1345.1833,-242.0821 1346.5752,-248.9423"/>
</g>
<!-- Node30 -->
<g id="node26" class="node">
<title>Node30</title>
<g id="a_node26"><a xlink:href="RotationRaw_8h.html" target="_top" xlink:title="iDynTree/Core/RotationRaw.h">
<polygon fill="none" stroke="#000000" points="1144.6177,-224.5 1144.6177,-243.5 1302.6177,-243.5 1302.6177,-224.5 1144.6177,-224.5"/>
<text text-anchor="middle" x="1223.6177" y="-231.5" font-family="FreeSans.ttf" font-size="10.00" fill="#000000">iDynTree/Core/RotationRaw.h</text>
</a>
</g>
</g>
<!-- Node28&#45;&gt;Node30 -->
<g id="edge36" class="edge">
<title>Node28&#45;&gt;Node30</title>
<path fill="none" stroke="#191970" d="M1143.5138,-280.2455C1158.5356,-271.5731 1180.722,-258.7645 1197.9387,-248.825"/>
<polygon fill="#191970" stroke="#191970" points="1200.0047,-251.6737 1206.9152,-243.6427 1196.5048,-245.6114 1200.0047,-251.6737"/>
</g>
<!-- Node29&#45;&gt;Node11 -->
<g id="edge35" class="edge">
<title>Node29&#45;&gt;Node11</title>
<path fill="none" stroke="#191970" d="M1370.2993,-224.3733C1338.7671,-214.9807 1290.6556,-200.6496 1256.2675,-190.4064"/>
<polygon fill="#191970" stroke="#191970" points="1257.0973,-187.0016 1246.5143,-187.5011 1255.0989,-193.7103 1257.0973,-187.0016"/>
</g>
<!-- Node30&#45;&gt;Node5 -->
<g id="edge48" class="edge">
<title>Node30&#45;&gt;Node5</title>
<path fill="none" stroke="#191970" d="M1203.217,-224.4396C1164.6848,-206.3929 1084.7545,-169.0125 1081.6177,-168 1009.327,-144.6657 920.7533,-131.4696 874.0383,-125.6449"/>
<polygon fill="#191970" stroke="#191970" points="874.2599,-122.1462 863.9112,-124.4166 873.417,-129.0953 874.2599,-122.1462"/>
</g>
<!-- Node31 -->
<g id="node27" class="node">
<title>Node31</title>
<g id="a_node27"><a xlink:href="MatrixFixSize_8h.html" target="_top" xlink:title="iDynTree/Core/MatrixFixSize.h">
<polygon fill="none" stroke="#000000" points="1498.1177,-168.5 1498.1177,-187.5 1659.1177,-187.5 1659.1177,-168.5 1498.1177,-168.5"/>
<text text-anchor="middle" x="1578.6177" y="-175.5" font-family="FreeSans.ttf" font-size="10.00" fill="#000000">iDynTree/Core/MatrixFixSize.h</text>
</a>
</g>
</g>
<!-- Node30&#45;&gt;Node31 -->
<g id="edge37" class="edge">
<title>Node30&#45;&gt;Node31</title>
<path fill="none" stroke="#191970" d="M1284.241,-224.4369C1346.2728,-214.6516 1442.5878,-199.4582 1508.0183,-189.1368"/>
<polygon fill="#191970" stroke="#191970" points="1508.9119,-192.5392 1518.2444,-187.5237 1507.8211,-185.6247 1508.9119,-192.5392"/>
</g>
<!-- Node31&#45;&gt;Node5 -->
<g id="edge45" class="edge">
<title>Node31&#45;&gt;Node5</title>
<path fill="none" stroke="#191970" d="M1498.1025,-168.8036C1495.2399,-168.5243 1492.4047,-168.2554 1489.6177,-168 1253.5918,-146.3718 968.3999,-129.2544 873.816,-123.8167"/>
<polygon fill="#191970" stroke="#191970" points="873.9271,-120.3175 863.7434,-123.2405 873.5272,-127.306 873.9271,-120.3175"/>
</g>
<!-- Node31&#45;&gt;Node12 -->
<g id="edge38" class="edge">
<title>Node31&#45;&gt;Node12</title>
<path fill="none" stroke="#191970" d="M1549.4422,-168.4955C1523.6436,-159.8212 1485.1597,-146.2192 1452.6177,-132 1434.7676,-124.2004 1431.9054,-118.7092 1413.6177,-112 1371.5455,-96.5651 1322.4724,-85.0888 1283.8293,-77.4594"/>
<polygon fill="#191970" stroke="#191970" points="1284.2147,-73.9691 1273.7319,-75.5061 1282.8852,-80.8417 1284.2147,-73.9691"/>
</g>
<!-- Node31&#45;&gt;Node16 -->
<g id="edge43" class="edge">
<title>Node31&#45;&gt;Node16</title>
<path fill="none" stroke="#191970" d="M1637.8335,-168.4607C1677.7783,-160.6782 1725.3583,-148.3088 1737.6177,-132 1770.5026,-88.2525 1694.4951,-45.0579 1647.7813,-23.7328"/>
<polygon fill="#191970" stroke="#191970" points="1649.1481,-20.5102 1638.5888,-19.6437 1646.3031,-26.906 1649.1481,-20.5102"/>
</g>
<!-- Node31&#45;&gt;Node24 -->
<g id="edge47" class="edge">
<title>Node31&#45;&gt;Node24</title>
<path fill="none" stroke="#191970" d="M1524.7165,-168.4503C1479.567,-160.2037 1413.2249,-147.5129 1346.6676,-132.1337"/>
<polygon fill="#191970" stroke="#191970" points="1347.3821,-128.7065 1336.8486,-129.8454 1345.7932,-135.5238 1347.3821,-128.7065"/>
</g>
<!-- Node31&#45;&gt;Node25 -->
<g id="edge44" class="edge">
<title>Node31&#45;&gt;Node25</title>
<path fill="none" stroke="#191970" d="M1544.4083,-168.3733C1508.1453,-158.1686 1451.1671,-142.1345 1414.6094,-131.8469"/>
<polygon fill="#191970" stroke="#191970" points="1415.4482,-128.4471 1404.874,-129.1073 1413.552,-135.1854 1415.4482,-128.4471"/>
</g>
<!-- Node32 -->
<g id="node28" class="node">
<title>Node32</title>
<g id="a_node28"><a xlink:href="MatrixView_8h.html" target="_top" xlink:title="iDynTree/Core/MatrixView.h">
<polygon fill="none" stroke="#ff0000" points="1461.1177,-112.5 1461.1177,-131.5 1612.1177,-131.5 1612.1177,-112.5 1461.1177,-112.5"/>
<text text-anchor="middle" x="1536.6177" y="-119.5" font-family="FreeSans.ttf" font-size="10.00" fill="#000000">iDynTree/Core/MatrixView.h</text>
</a>
</g>
</g>
<!-- Node31&#45;&gt;Node32 -->
<g id="edge39" class="edge">
<title>Node31&#45;&gt;Node32</title>
<path fill="none" stroke="#191970" d="M1571.3018,-168.2455C1565.3997,-160.3761 1556.9434,-149.101 1549.8583,-139.6542"/>
<polygon fill="#191970" stroke="#191970" points="1552.6497,-137.5427 1543.8497,-131.6427 1547.0497,-141.7427 1552.6497,-137.5427"/>
</g>
<!-- Node33 -->
<g id="node29" class="node">
<title>Node33</title>
<polygon fill="none" stroke="#bfbfbf" points="1668.6177,-112.5 1668.6177,-131.5 1728.6177,-131.5 1728.6177,-112.5 1668.6177,-112.5"/>
<text text-anchor="middle" x="1698.6177" y="-119.5" font-family="FreeSans.ttf" font-size="10.00" fill="#000000">iostream</text>
</g>
<!-- Node31&#45;&gt;Node33 -->
<g id="edge46" class="edge">
<title>Node31&#45;&gt;Node33</title>
<path fill="none" stroke="#191970" d="M1599.2464,-168.3733C1618.5095,-159.3838 1647.4663,-145.8706 1669.1596,-135.7471"/>
<polygon fill="#191970" stroke="#191970" points="1670.6764,-138.9017 1678.2581,-131.5011 1667.7161,-132.5584 1670.6764,-138.9017"/>
</g>
<!-- Node32&#45;&gt;Node12 -->
<g id="edge42" class="edge">
<title>Node32&#45;&gt;Node12</title>
<path fill="none" stroke="#191970" d="M1481.9713,-112.4369C1426.2853,-102.6918 1339.9502,-87.5832 1280.986,-77.2645"/>
<polygon fill="#191970" stroke="#191970" points="1281.4923,-73.7999 1271.0386,-75.5237 1280.2856,-80.6952 1281.4923,-73.7999"/>
</g>
<!-- Node32&#45;&gt;Node15 -->
<g id="edge41" class="edge">
<title>Node32&#45;&gt;Node15</title>
<path fill="none" stroke="#191970" d="M1523.2053,-112.2455C1511.6119,-103.814 1494.6429,-91.4729 1481.1498,-81.6598"/>
<polygon fill="#191970" stroke="#191970" points="1483.0223,-78.6938 1472.8763,-75.6427 1478.9051,-84.355 1483.0223,-78.6938"/>
</g>
<!-- Node32&#45;&gt;Node16 -->
<g id="edge40" class="edge">
<title>Node32&#45;&gt;Node16</title>
<path fill="none" stroke="#191970" d="M1543.2679,-112.4509C1556.3349,-93.688 1585.5384,-51.7548 1602.2505,-27.758"/>
<polygon fill="#191970" stroke="#191970" points="1605.1414,-29.7312 1607.9842,-19.5249 1599.3971,-25.7307 1605.1414,-29.7312"/>
</g>
<!-- Node34&#45;&gt;Node5 -->
<g id="edge56" class="edge">
<title>Node34&#45;&gt;Node5</title>
<path fill="none" stroke="#191970" d="M856.4559,-403.1394C858.6953,-375.0705 864.2747,-292.3531 858.6177,-224 856.2313,-195.1668 850.1125,-162.2139 845.9062,-141.7544"/>
<polygon fill="#191970" stroke="#191970" points="849.2907,-140.8412 843.802,-131.7789 842.4414,-142.286 849.2907,-140.8412"/>
</g>
<!-- Node34&#45;&gt;Node26 -->
<g id="edge53" class="edge">
<title>Node34&#45;&gt;Node26</title>
<path fill="none" stroke="#191970" d="M838.1177,-403.3906C819.8711,-393.3713 791.0553,-377.5483 770.0371,-366.0071"/>
<polygon fill="#191970" stroke="#191970" points="771.4449,-362.7872 760.9948,-361.0419 768.0756,-368.923 771.4449,-362.7872"/>
</g>
<!-- Node34&#45;&gt;Node28 -->
<g id="edge54" class="edge">
<title>Node34&#45;&gt;Node28</title>
<path fill="none" stroke="#191970" d="M868.5014,-403.2447C890.0701,-387.2967 935.2962,-355.4723 977.6177,-336 1009.0783,-321.5248 1046.3007,-310.0303 1075.6717,-302.1518"/>
<polygon fill="#191970" stroke="#191970" points="1076.927,-305.441 1085.7109,-299.517 1075.1499,-298.6703 1076.927,-305.441"/>
</g>
<!-- Node34&#45;&gt;Node31 -->
<g id="edge55" class="edge">
<title>Node34&#45;&gt;Node31</title>
<path fill="none" stroke="#191970" d="M878.1981,-403.4094C921.5482,-385.0946 1015.1033,-346.0647 1048.6177,-336 1242.044,-277.9122 1310.2156,-328.5673 1493.6177,-244 1519.9129,-231.8752 1545.5235,-210.2411 1561.6408,-195.0556"/>
<polygon fill="#191970" stroke="#191970" points="1564.4016,-197.2546 1569.1571,-187.7869 1559.5355,-192.2227 1564.4016,-197.2546"/>
</g>
<!-- Node35&#45;&gt;Node2 -->
<g id="edge61" class="edge">
<title>Node35&#45;&gt;Node2</title>
<path fill="none" stroke="#191970" d="M511.7207,-515.3733C477.5265,-505.9404 425.2762,-491.5265 388.1134,-481.2747"/>
<polygon fill="#191970" stroke="#191970" points="388.6299,-477.7865 378.0592,-478.5011 386.7684,-484.5345 388.6299,-477.7865"/>
</g>
<!-- Node35&#45;&gt;Node4 -->
<g id="edge63" class="edge">
<title>Node35&#45;&gt;Node4</title>
<path fill="none" stroke="#191970" d="M538.9443,-515.4509C523.8005,-496.6054 489.8733,-454.3849 470.6334,-430.4419"/>
<polygon fill="#191970" stroke="#191970" points="473.2638,-428.1276 464.2716,-422.5249 467.8072,-432.5124 473.2638,-428.1276"/>
</g>
<!-- Node35&#45;&gt;Node5 -->
<g id="edge64" class="edge">
<title>Node35&#45;&gt;Node5</title>
<path fill="none" stroke="#191970" d="M553.1484,-515.2931C565.1775,-496.4432 589.6177,-453.1986 589.6177,-413 589.6177,-413 589.6177,-413 589.6177,-234 589.6177,-202.7875 589.9585,-188.3585 613.6177,-168 642.6607,-143.0087 753.9328,-129.7915 809.5639,-124.6254"/>
<polygon fill="#191970" stroke="#191970" points="809.9426,-128.1056 819.5898,-123.7258 809.317,-121.1336 809.9426,-128.1056"/>
</g>
<!-- Node35&#45;&gt;Node11 -->
<g id="edge62" class="edge">
<title>Node35&#45;&gt;Node11</title>
<path fill="none" stroke="#191970" d="M558.8401,-515.4223C593.7082,-488.1525 692.207,-411.5068 708.6177,-403 755.0376,-378.9373 772.0447,-386.352 820.6177,-367 893.9499,-337.7836 1108.4109,-231.1775 1186.0995,-192.3061"/>
<polygon fill="#191970" stroke="#191970" points="1187.9207,-195.3085 1195.2954,-187.7016 1184.7866,-189.0493 1187.9207,-195.3085"/>
</g>
<!-- Node36&#45;&gt;Node2 -->
<g id="edge66" class="edge">
<title>Node36&#45;&gt;Node2</title>
<path fill="none" stroke="#191970" d="M454.3683,-571.2311C443.774,-561.988 427.5015,-547.6803 413.6177,-535 395.6788,-518.6162 375.5271,-499.5437 361.4682,-486.127"/>
<polygon fill="#191970" stroke="#191970" points="363.6036,-483.3262 353.9574,-478.9441 358.7654,-488.3851 363.6036,-483.3262"/>
</g>
<!-- Node36&#45;&gt;Node4 -->
<g id="edge77" class="edge">
<title>Node36&#45;&gt;Node4</title>
<path fill="none" stroke="#191970" d="M461.7553,-571.3228C458.3138,-562.1446 453.5344,-547.8807 451.6177,-535 446.2846,-499.1604 450.3023,-456.7911 453.5614,-432.5896"/>
<polygon fill="#191970" stroke="#191970" points="457.045,-432.9544 455.0127,-422.5563 450.1171,-431.9523 457.045,-432.9544"/>
</g>
<!-- Node36&#45;&gt;Node5 -->
<g id="edge78" class="edge">
<title>Node36&#45;&gt;Node5</title>
<path fill="none" stroke="#191970" d="M418.5565,-571.4029C371.3197,-558.9915 301.044,-532.3044 268.6177,-479 246.9355,-443.3576 181.0044,-536.2434 385.6177,-224 403.4272,-196.8224 403.9828,-183.3573 432.6177,-168 497.7604,-133.0628 724.7635,-124.5515 809.4426,-122.5718"/>
<polygon fill="#191970" stroke="#191970" points="809.5818,-126.0697 819.5029,-122.352 809.4288,-119.0713 809.5818,-126.0697"/>
</g>
<!-- Node36&#45;&gt;Node6 -->
<g id="edge79" class="edge">
<title>Node36&#45;&gt;Node6</title>
<path fill="none" stroke="#191970" d="M417.3211,-573.5375C382.9896,-566.852 336.5999,-554.9439 299.6177,-535 266.3507,-517.0597 260.0796,-507.8124 235.6177,-479 223.1127,-464.2712 211.766,-445.3628 204.1961,-431.5628"/>
<polygon fill="#191970" stroke="#191970" points="207.1832,-429.7262 199.3889,-422.5499 201.0068,-433.0205 207.1832,-429.7262"/>
</g>
<!-- Node36&#45;&gt;Node7 -->
<g id="edge80" class="edge">
<title>Node36&#45;&gt;Node7</title>
<path fill="none" stroke="#191970" d="M465.8375,-571.2092C466.6696,-557.0746 470.2097,-530.9077 484.6177,-515 544.2346,-449.1776 651.9916,-425.1824 706.7315,-416.9639"/>
<polygon fill="#191970" stroke="#191970" points="707.5299,-420.386 716.9427,-415.5229 706.5517,-413.4547 707.5299,-420.386"/>
</g>
<!-- Node36&#45;&gt;Node34 -->
<g id="edge68" class="edge">
<title>Node36&#45;&gt;Node34</title>
<path fill="none" stroke="#191970" d="M500.2179,-571.4278C529.4986,-562.9592 572.3623,-549.6915 608.6177,-535 691.4169,-501.4478 784.89,-451.9053 829.3772,-427.5711"/>
<polygon fill="#191970" stroke="#191970" points="831.2766,-430.5211 838.3552,-422.638 827.9056,-424.3862 831.2766,-430.5211"/>
</g>
<!-- Node36&#45;&gt;Node35 -->
<g id="edge67" class="edge">
<title>Node36&#45;&gt;Node35</title>
<path fill="none" stroke="#191970" d="M479.7268,-571.2455C492.0385,-562.7337 510.1134,-550.2375 524.3715,-540.3801"/>
<polygon fill="#191970" stroke="#191970" points="526.435,-543.2085 532.6702,-534.6427 522.4542,-537.4506 526.435,-543.2085"/>
</g>
<!-- Node37 -->
<g id="node33" class="node">
<title>Node37</title>
<g id="a_node33"><a xlink:href="SolidShapes_8h.html" target="_top" xlink:title="iDynTree/Model/SolidShapes.h">
<polygon fill="none" stroke="#000000" points="960.1177,-459.5 960.1177,-478.5 1123.1177,-478.5 1123.1177,-459.5 960.1177,-459.5"/>
<text text-anchor="middle" x="1041.6177" y="-466.5" font-family="FreeSans.ttf" font-size="10.00" fill="#000000">iDynTree/Model/SolidShapes.h</text>
</a>
</g>
</g>
<!-- Node36&#45;&gt;Node37 -->
<g id="edge69" class="edge">
<title>Node36&#45;&gt;Node37</title>
<path fill="none" stroke="#191970" d="M513.7364,-571.6436C618.7207,-551.23 868.064,-502.7465 982.4358,-480.5076"/>
<polygon fill="#191970" stroke="#191970" points="983.2668,-483.9116 992.4149,-478.5672 981.9307,-477.0403 983.2668,-483.9116"/>
</g>
<!-- Node37&#45;&gt;Node5 -->
<g id="edge71" class="edge">
<title>Node37&#45;&gt;Node5</title>
<path fill="none" stroke="#191970" d="M1028.1334,-459.4401C995.6289,-435.1621 915.6177,-367.5269 915.6177,-290 915.6177,-290 915.6177,-290 915.6177,-234 915.6177,-194.563 883.2844,-158.3258 861.3632,-138.2897"/>
<polygon fill="#191970" stroke="#191970" points="863.6561,-135.6451 853.8372,-131.665 859.031,-140.8995 863.6561,-135.6451"/>
</g>
<!-- Node37&#45;&gt;Node7 -->
<g id="edge72" class="edge">
<title>Node37&#45;&gt;Node7</title>
<path fill="none" stroke="#191970" d="M972.0092,-459.4775C919.9676,-451.8007 846.9479,-439.8545 774.1211,-422.8822"/>
<polygon fill="#191970" stroke="#191970" points="774.8517,-419.4585 764.3148,-420.5657 773.2423,-426.271 774.8517,-419.4585"/>
</g>
<!-- Node37&#45;&gt;Node34 -->
<g id="edge73" class="edge">
<title>Node37&#45;&gt;Node34</title>
<path fill="none" stroke="#191970" d="M1009.6431,-459.3733C978.4464,-449.9807 930.8467,-435.6496 896.8245,-425.4064"/>
<polygon fill="#191970" stroke="#191970" points="897.7594,-422.0327 887.175,-422.5011 895.7413,-428.7355 897.7594,-422.0327"/>
</g>
<!-- Node38 -->
<g id="node34" class="node">
<title>Node38</title>
<polygon fill="none" stroke="#bfbfbf" points="1035.1177,-403.5 1035.1177,-422.5 1084.1177,-422.5 1084.1177,-403.5 1035.1177,-403.5"/>
<text text-anchor="middle" x="1059.6177" y="-410.5" font-family="FreeSans.ttf" font-size="10.00" fill="#000000">cstdlib</text>
</g>
<!-- Node37&#45;&gt;Node38 -->
<g id="edge70" class="edge">
<title>Node37&#45;&gt;Node38</title>
<path fill="none" stroke="#191970" d="M1044.753,-459.2455C1047.1276,-451.8579 1050.4669,-441.4689 1053.3791,-432.4087"/>
<polygon fill="#191970" stroke="#191970" points="1056.7902,-433.234 1056.5182,-422.6427 1050.126,-431.0919 1056.7902,-433.234"/>
</g>
<!-- Node39 -->
<g id="node35" class="node">
<title>Node39</title>
<g id="a_node35"><a xlink:href="Indices_8h.html" target="_top" xlink:title="iDynTree/Model/Indices.h">
<polygon fill="none" stroke="#000000" points="1120.6177,-403.5 1120.6177,-422.5 1258.6177,-422.5 1258.6177,-403.5 1120.6177,-403.5"/>
<text text-anchor="middle" x="1189.6177" y="-410.5" font-family="FreeSans.ttf" font-size="10.00" fill="#000000">iDynTree/Model/Indices.h</text>
</a>
</g>
</g>
<!-- Node37&#45;&gt;Node39 -->
<g id="edge74" class="edge">
<title>Node37&#45;&gt;Node39</title>
<path fill="none" stroke="#191970" d="M1067.0598,-459.3733C1091.3503,-450.1822 1128.1385,-436.2624 1155.0719,-426.0713"/>
<polygon fill="#191970" stroke="#191970" points="1156.3933,-429.3136 1164.5075,-422.5011 1153.916,-422.7666 1156.3933,-429.3136"/>
</g>
<!-- Node39&#45;&gt;Node5 -->
<g id="edge75" class="edge">
<title>Node39&#45;&gt;Node5</title>
<path fill="none" stroke="#191970" d="M1130.1779,-403.4924C1103.1014,-396.824 1071.9624,-385.6324 1048.6177,-367 968.0747,-302.7156 1004.5429,-238.7521 929.6177,-168 913.5428,-152.8205 891.4882,-141.3052 873.4797,-133.5924"/>
<polygon fill="#191970" stroke="#191970" points="874.5358,-130.2431 863.9549,-129.6996 871.8875,-136.7228 874.5358,-130.2431"/>
</g>
<!-- Node40 -->
<g id="node36" class="node">
<title>Node40</title>
<polygon fill="none" stroke="#bfbfbf" points="1057.6177,-342 1057.6177,-361 1143.6177,-361 1143.6177,-342 1057.6177,-342"/>
<text text-anchor="middle" x="1100.6177" y="-349" font-family="FreeSans.ttf" font-size="10.00" fill="#000000">ModelExport.h</text>
</g>
<!-- Node39&#45;&gt;Node40 -->
<g id="edge76" class="edge">
<title>Node39&#45;&gt;Node40</title>
<path fill="none" stroke="#191970" d="M1175.7114,-403.3906C1161.6038,-393.6421 1139.5452,-378.3994 1122.9792,-366.9521"/>
<polygon fill="#191970" stroke="#191970" points="1124.6429,-363.8474 1114.4262,-361.0419 1120.6635,-369.6063 1124.6429,-363.8474"/>
</g>
<!-- Node41&#45;&gt;Node2 -->
<g id="edge84" class="edge">
<title>Node41&#45;&gt;Node2</title>
<path fill="none" stroke="#191970" d="M540.3448,-629.6276C470.6282,-617.6509 340.8616,-594.9068 337.6177,-591 313.5664,-562.0345 325.7606,-514.5679 335.4945,-488.1928"/>
<polygon fill="#191970" stroke="#191970" points="338.8664,-489.1827 339.2766,-478.5958 332.3538,-486.6162 338.8664,-489.1827"/>
</g>
<!-- Node41&#45;&gt;Node36 -->
<g id="edge85" class="edge">
<title>Node41&#45;&gt;Node36</title>
<path fill="none" stroke="#191970" d="M563.3327,-627.3733C544.4756,-618.4241 516.1717,-604.9917 494.8722,-594.8835"/>
<polygon fill="#191970" stroke="#191970" points="496.1728,-591.6266 485.6379,-590.5011 493.1715,-597.9506 496.1728,-591.6266"/>
</g>
<!-- Node42 -->
<g id="node38" class="node">
<title>Node42</title>
<g id="a_node38"><a xlink:href="Link_8h.html" target="_top" xlink:title="iDynTree/Model/Link.h">
<polygon fill="none" stroke="#000000" points="1363.6177,-459.5 1363.6177,-478.5 1487.6177,-478.5 1487.6177,-459.5 1363.6177,-459.5"/>
<text text-anchor="middle" x="1425.6177" y="-466.5" font-family="FreeSans.ttf" font-size="10.00" fill="#000000">iDynTree/Model/Link.h</text>
</a>
</g>
</g>
<!-- Node41&#45;&gt;Node42 -->
<g id="edge86" class="edge">
<title>Node41&#45;&gt;Node42</title>
<path fill="none" stroke="#191970" d="M626.8217,-628.3797C766.9397,-600.4227 1208.8711,-512.2463 1367.8952,-480.5171"/>
<polygon fill="#191970" stroke="#191970" points="1368.8327,-483.8991 1377.9545,-478.51 1367.4629,-477.0344 1368.8327,-483.8991"/>
</g>
<!-- Node42&#45;&gt;Node39 -->
<g id="edge94" class="edge">
<title>Node42&#45;&gt;Node39</title>
<path fill="none" stroke="#191970" d="M1385.316,-459.4369C1345.0112,-449.8731 1282.9356,-435.1432 1239.5359,-424.845"/>
<polygon fill="#191970" stroke="#191970" points="1240.291,-421.4271 1229.7531,-422.5237 1238.6749,-428.238 1240.291,-421.4271"/>
</g>
<!-- Node43 -->
<g id="node39" class="node">
<title>Node43</title>
<g id="a_node39"><a xlink:href="SpatialInertia_8h.html" target="_top" xlink:title="iDynTree/Core/SpatialInertia.h">
<polygon fill="none" stroke="#000000" points="1536.6177,-403.5 1536.6177,-422.5 1698.6177,-422.5 1698.6177,-403.5 1536.6177,-403.5"/>
<text text-anchor="middle" x="1617.6177" y="-410.5" font-family="FreeSans.ttf" font-size="10.00" fill="#000000">iDynTree/Core/SpatialInertia.h</text>
</a>
</g>
</g>
<!-- Node42&#45;&gt;Node43 -->
<g id="edge87" class="edge">
<title>Node42&#45;&gt;Node43</title>
<path fill="none" stroke="#191970" d="M1458.6236,-459.3733C1490.8267,-449.9807 1539.9619,-435.6496 1575.0816,-425.4064"/>
<polygon fill="#191970" stroke="#191970" points="1576.4224,-428.6612 1585.0424,-422.5011 1574.4623,-421.9412 1576.4224,-428.6612"/>
</g>
<!-- Node43&#45;&gt;Node11 -->
<g id="edge89" class="edge">
<title>Node43&#45;&gt;Node11</title>
<path fill="none" stroke="#191970" d="M1699.0343,-409.4924C1811.338,-403.8055 2002.4132,-390.7426 2023.6177,-367 2032.7952,-356.7239 2032.2946,-346.7022 2023.6177,-336 1978.2181,-280.004 1503.0944,-214.2723 1302.8408,-188.8214"/>
<polygon fill="#191970" stroke="#191970" points="1303.0089,-185.3148 1292.6483,-187.5306 1302.1294,-192.2593 1303.0089,-185.3148"/>
</g>
<!-- Node44 -->
<g id="node40" class="node">
<title>Node44</title>
<g id="a_node40"><a xlink:href="SpatialInertiaRaw_8h.html" target="_top" xlink:title="iDynTree/Core/SpatialInertia\lRaw.h">
<polygon fill="none" stroke="#ff0000" points="1861.1177,-336.5 1861.1177,-366.5 2014.1177,-366.5 2014.1177,-336.5 1861.1177,-336.5"/>
<text text-anchor="start" x="1869.1177" y="-354.5" font-family="FreeSans.ttf" font-size="10.00" fill="#000000">iDynTree/Core/SpatialInertia</text>
<text text-anchor="middle" x="1937.6177" y="-343.5" font-family="FreeSans.ttf" font-size="10.00" fill="#000000">Raw.h</text>
</a>
</g>
</g>
<!-- Node43&#45;&gt;Node44 -->
<g id="edge88" class="edge">
<title>Node43&#45;&gt;Node44</title>
<path fill="none" stroke="#191970" d="M1667.2665,-403.4581C1716.2219,-394.0495 1792.0506,-379.4762 1850.9558,-368.1553"/>
<polygon fill="#191970" stroke="#191970" points="1851.841,-371.5493 1861.0007,-366.2248 1850.5198,-364.6751 1851.841,-371.5493"/>
</g>
<!-- Node46 -->
<g id="node41" class="node">
<title>Node46</title>
<g id="a_node41"><a xlink:href="Twist_8h.html" target="_top" xlink:title="iDynTree/Core/Twist.h">
<polygon fill="none" stroke="#ff0000" points="1199.6177,-342 1199.6177,-361 1321.6177,-361 1321.6177,-342 1199.6177,-342"/>
<text text-anchor="middle" x="1260.6177" y="-349" font-family="FreeSans.ttf" font-size="10.00" fill="#000000">iDynTree/Core/Twist.h</text>
</a>
</g>
</g>
<!-- Node43&#45;&gt;Node46 -->
<g id="edge90" class="edge">
<title>Node43&#45;&gt;Node46</title>
<path fill="none" stroke="#191970" d="M1551.0209,-403.4637C1492.728,-394.8455 1405.8389,-381.3433 1330.6177,-367 1324.4393,-365.8219 1317.9726,-364.505 1311.5723,-363.1499"/>
<polygon fill="#191970" stroke="#191970" points="1312.1331,-359.6905 1301.62,-361.0037 1310.6574,-366.5332 1312.1331,-359.6905"/>
</g>
<!-- Node49 -->
<g id="node42" class="node">
<title>Node49</title>
<g id="a_node42"><a xlink:href="SpatialMomentum_8h.html" target="_top" xlink:title="iDynTree/Core/SpatialMomentum.h">
<polygon fill="none" stroke="#ff0000" points="1339.6177,-342 1339.6177,-361 1525.6177,-361 1525.6177,-342 1339.6177,-342"/>
<text text-anchor="middle" x="1432.6177" y="-349" font-family="FreeSans.ttf" font-size="10.00" fill="#000000">iDynTree/Core/SpatialMomentum.h</text>
</a>
</g>
</g>
<!-- Node43&#45;&gt;Node49 -->
<g id="edge91" class="edge">
<title>Node43&#45;&gt;Node49</title>
<path fill="none" stroke="#191970" d="M1588.7114,-403.3906C1557.0787,-392.8749 1506.2147,-375.966 1471.1947,-364.3243"/>
<polygon fill="#191970" stroke="#191970" points="1471.9144,-360.8753 1461.3209,-361.0419 1469.7062,-367.5178 1471.9144,-360.8753"/>
</g>
<!-- Node51 -->
<g id="node43" class="node">
<title>Node51</title>
<g id="a_node43"><a xlink:href="SpatialAcc_8h.html" target="_top" xlink:title="iDynTree/Core/SpatialAcc.h">
<polygon fill="none" stroke="#ff0000" points="1543.6177,-342 1543.6177,-361 1691.6177,-361 1691.6177,-342 1543.6177,-342"/>
<text text-anchor="middle" x="1617.6177" y="-349" font-family="FreeSans.ttf" font-size="10.00" fill="#000000">iDynTree/Core/SpatialAcc.h</text>
</a>
</g>
</g>
<!-- Node43&#45;&gt;Node51 -->
<g id="edge92" class="edge">
<title>Node43&#45;&gt;Node51</title>
<path fill="none" stroke="#191970" d="M1617.6177,-403.3906C1617.6177,-394.8657 1617.6177,-382.1392 1617.6177,-371.4235"/>
<polygon fill="#191970" stroke="#191970" points="1621.1177,-371.2448 1617.6177,-361.2449 1614.1177,-371.2449 1621.1177,-371.2448"/>
</g>
<!-- Node52 -->
<g id="node44" class="node">
<title>Node52</title>
<g id="a_node44"><a xlink:href="Wrench_8h.html" target="_top" xlink:title="iDynTree/Core/Wrench.h">
<polygon fill="none" stroke="#ff0000" points="1710.1177,-342 1710.1177,-361 1843.1177,-361 1843.1177,-342 1710.1177,-342"/>
<text text-anchor="middle" x="1776.6177" y="-349" font-family="FreeSans.ttf" font-size="10.00" fill="#000000">iDynTree/Core/Wrench.h</text>
</a>
</g>
</g>
<!-- Node43&#45;&gt;Node52 -->
<g id="edge93" class="edge">
<title>Node43&#45;&gt;Node52</title>
<path fill="none" stroke="#191970" d="M1642.4614,-403.3906C1669.2984,-393.0103 1712.241,-376.4004 1742.2929,-364.7766"/>
<polygon fill="#191970" stroke="#191970" points="1743.8843,-367.9138 1751.9484,-361.0419 1741.3591,-361.3851 1743.8843,-367.9138"/>
</g>
<!-- Node53&#45;&gt;Node2 -->
<g id="edge97" class="edge">
<title>Node53&#45;&gt;Node2</title>
<path fill="none" stroke="#191970" d="M731.9077,-633.4218C636.4936,-626.1854 434.7671,-608.9661 408.6177,-591 372.9943,-566.5248 355.3239,-516.108 347.9769,-488.3617"/>
<polygon fill="#191970" stroke="#191970" points="351.3687,-487.4974 345.579,-478.6245 344.5718,-489.1713 351.3687,-487.4974"/>
</g>
<!-- Node53&#45;&gt;Node4 -->
<g id="edge117" class="edge">
<title>Node53&#45;&gt;Node4</title>
<path fill="none" stroke="#191970" d="M768.2328,-627.4021C739.2724,-606.6705 668.5684,-556.2456 608.6177,-515 563.2984,-483.8207 509.7735,-448.1731 479.8582,-428.3541"/>
<polygon fill="#191970" stroke="#191970" points="481.638,-425.3349 471.3674,-422.734 477.7744,-431.1721 481.638,-425.3349"/>
</g>
<!-- Node53&#45;&gt;Node5 -->
<g id="edge118" class="edge">
<title>Node53&#45;&gt;Node5</title>
<path fill="none" stroke="#191970" d="M772.4454,-627.0589C739.2921,-590.7069 627.6177,-464.4402 627.6177,-413 627.6177,-413 627.6177,-413 627.6177,-234 627.6177,-152.9054 749.7402,-130.4179 809.4766,-124.2689"/>
<polygon fill="#191970" stroke="#191970" points="809.8915,-127.7455 819.5219,-123.3289 809.2393,-120.776 809.8915,-127.7455"/>
</g>
<!-- Node53&#45;&gt;Node6 -->
<g id="edge119" class="edge">
<title>Node53&#45;&gt;Node6</title>
<path fill="none" stroke="#191970" d="M732.0577,-633.3243C640.2339,-626.1774 447.1383,-609.4793 382.6177,-591 297.0578,-566.4949 260.4678,-556.4477 216.6177,-479 208.3534,-464.4037 202.5812,-446.221 199.0294,-432.6385"/>
<polygon fill="#191970" stroke="#191970" points="202.4213,-431.7743 196.6518,-422.8882 195.6206,-433.4327 202.4213,-431.7743"/>
</g>
<!-- Node53&#45;&gt;Node7 -->
<g id="edge120" class="edge">
<title>Node53&#45;&gt;Node7</title>
<path fill="none" stroke="#191970" d="M798.0354,-627.2212C809.8252,-619.1641 824.7924,-606.5536 831.6177,-591 835.1895,-582.8603 833.9138,-579.5872 831.6177,-571 816.6397,-514.9838 776.5056,-458.2368 754.8838,-430.4841"/>
<polygon fill="#191970" stroke="#191970" points="757.5283,-428.1861 748.5695,-422.53 752.0458,-432.5384 757.5283,-428.1861"/>
</g>
<!-- Node53&#45;&gt;Node34 -->
<g id="edge98" class="edge">
<title>Node53&#45;&gt;Node34</title>
<path fill="none" stroke="#191970" d="M804.4579,-627.3455C819.2555,-619.7787 837.4256,-607.7177 846.6177,-591 874.7456,-539.8437 866.3015,-467.4078 859.9143,-432.8449"/>
<polygon fill="#191970" stroke="#191970" points="863.2715,-431.783 857.8829,-422.6609 856.4068,-433.1524 863.2715,-431.783"/>
</g>
<!-- Node53&#45;&gt;Node54 -->
<g id="edge99" class="edge">
<title>Node53&#45;&gt;Node54</title>
<path fill="none" stroke="#191970" d="M831.2039,-633.2169C954.2963,-623.8256 1275.0245,-599.3559 1429.7124,-587.5541"/>
<polygon fill="#191970" stroke="#191970" points="1430.4031,-591.0116 1440.1079,-586.761 1429.8705,-584.0319 1430.4031,-591.0116"/>
</g>
<!-- Node54&#45;&gt;Node5 -->
<g id="edge101" class="edge">
<title>Node54&#45;&gt;Node5</title>
<path fill="none" stroke="#191970" d="M1520.5761,-571.4444C1524.9957,-562.352 1531.1371,-548.1462 1533.6177,-535 1540.0353,-500.9877 1541.332,-483.2328 1516.6177,-459 1409.1221,-353.5989 1324.1755,-436.4765 1190.6177,-367 1171.2815,-356.9414 1171.6371,-346.6454 1152.6177,-336 1110.3017,-312.3153 1088.6812,-328.734 1049.6177,-300 990.7585,-256.7049 1009.1553,-213.0365 951.6177,-168 928.3312,-149.773 896.779,-137.5639 873.4381,-130.3324"/>
<polygon fill="#191970" stroke="#191970" points="874.2508,-126.923 863.6688,-127.4456 872.267,-133.636 874.2508,-126.923"/>
</g>
<!-- Node54&#45;&gt;Node7 -->
<g id="edge102" class="edge">
<title>Node54&#45;&gt;Node7</title>
<path fill="none" stroke="#191970" d="M1440.0373,-579.2966C1305.8096,-575.5532 1031.408,-564.462 940.6177,-535 867.816,-511.3754 793.9741,-456.5594 759.9604,-429.1748"/>
<polygon fill="#191970" stroke="#191970" points="761.7848,-426.1459 751.8252,-422.5324 757.3576,-431.5681 761.7848,-426.1459"/>
</g>
<!-- Node54&#45;&gt;Node19 -->
<g id="edge103" class="edge">
<title>Node54&#45;&gt;Node19</title>
<path fill="none" stroke="#191970" d="M1591.3466,-576.3455C1706.1134,-568.8425 1918.5622,-553.0734 1992.6177,-535 2068.9473,-516.3716 2156.6177,-547.5699 2156.6177,-469 2156.6177,-469 2156.6177,-469 2156.6177,-122 2156.6177,-49.0368 2053.229,-23.0094 1996.2497,-14.2055"/>
<polygon fill="#191970" stroke="#191970" points="1996.5831,-10.7175 1986.1859,-12.7547 1995.5842,-17.6459 1996.5831,-10.7175"/>
</g>
<!-- Node54&#45;&gt;Node29 -->
<g id="edge100" class="edge">
<title>Node54&#45;&gt;Node29</title>
<path fill="none" stroke="#191970" d="M1591.1239,-572.7202C1736.8441,-555.7149 2042.6177,-514.599 2042.6177,-469 2042.6177,-469 2042.6177,-469 2042.6177,-413 2042.6177,-377.7513 2049.5085,-359.9193 2023.6177,-336 1985.2482,-300.5524 1657.6331,-261.1422 1494.3502,-243.4729"/>
<polygon fill="#191970" stroke="#191970" points="1494.6318,-239.983 1484.3144,-242.3919 1493.8821,-246.9428 1494.6318,-239.983"/>
</g>
<!-- Node54&#45;&gt;Node39 -->
<g id="edge116" class="edge">
<title>Node54&#45;&gt;Node39</title>
<path fill="none" stroke="#191970" d="M1517.4797,-571.4228C1521.3421,-548.4173 1527.4759,-489.6808 1496.6177,-459 1480.6259,-443.1002 1354.3161,-428.328 1268.7761,-420.0055"/>
<polygon fill="#191970" stroke="#191970" points="1269.1058,-416.5211 1258.8166,-419.0476 1268.4356,-423.489 1269.1058,-416.5211"/>
</g>
<!-- Node55 -->
<g id="node47" class="node">
<title>Node55</title>
<g id="a_node47"><a xlink:href="VectorDynSize_8h.html" target="_top" xlink:title="iDynTree/Core/VectorDynSize.h">
<polygon fill="none" stroke="#000000" points="1313.1177,-168.5 1313.1177,-187.5 1480.1177,-187.5 1480.1177,-168.5 1313.1177,-168.5"/>
<text text-anchor="middle" x="1396.6177" y="-175.5" font-family="FreeSans.ttf" font-size="10.00" fill="#000000">iDynTree/Core/VectorDynSize.h</text>
</a>
</g>
</g>
<!-- Node54&#45;&gt;Node55 -->
<g id="edge104" class="edge">
<title>Node54&#45;&gt;Node55</title>
<path fill="none" stroke="#191970" d="M1591.3774,-574.7479C1753.3308,-560.3631 2118.6177,-522.0393 2118.6177,-469 2118.6177,-469 2118.6177,-469 2118.6177,-351.5 2118.6177,-286.1892 1666.204,-215.5598 1477.6272,-188.9566"/>
<polygon fill="#191970" stroke="#191970" points="1477.8804,-185.4579 1467.4909,-187.5332 1476.907,-192.3898 1477.8804,-185.4579"/>
</g>
<!-- Node54&#45;&gt;Node56 -->
<g id="edge107" class="edge">
<title>Node54&#45;&gt;Node56</title>
<path fill="none" stroke="#191970" d="M1439.95,-572.5252C1346.0465,-562.008 1186.8002,-544.1724 1092.3884,-533.5983"/>
<polygon fill="#191970" stroke="#191970" points="1092.6601,-530.107 1082.3326,-532.4721 1091.8809,-537.0635 1092.6601,-530.107"/>
</g>
<!-- Node55&#45;&gt;Node5 -->
<g id="edge106" class="edge">
<title>Node55&#45;&gt;Node5</title>
<path fill="none" stroke="#191970" d="M1312.8842,-168.8653C1310.0958,-168.5717 1307.3343,-168.2826 1304.6177,-168 1143.038,-151.1922 949.5905,-132.4038 874.0623,-125.1194"/>
<polygon fill="#191970" stroke="#191970" points="874.0819,-121.6051 863.7923,-124.1297 873.4104,-128.5729 874.0819,-121.6051"/>
</g>
<!-- Node55&#45;&gt;Node15 -->
<g id="edge105" class="edge">
<title>Node55&#45;&gt;Node15</title>
<path fill="none" stroke="#191970" d="M1338.8096,-168.4148C1296.0255,-158.7577 1248.8153,-141.0543 1271.6177,-112 1286.2579,-93.3457 1341.9025,-81.2782 1388.8862,-74.2048"/>
<polygon fill="#191970" stroke="#191970" points="1389.675,-77.6271 1399.069,-72.7278 1388.6702,-70.6996 1389.675,-77.6271"/>
</g>
<!-- Node56&#45;&gt;Node7 -->
<g id="edge115" class="edge">
<title>Node56&#45;&gt;Node7</title>
<path fill="none" stroke="#191970" d="M992.1713,-515.4509C943.1589,-495.4895 829.7547,-449.3031 773.4942,-426.3897"/>
<polygon fill="#191970" stroke="#191970" points="774.5862,-423.0554 764.0047,-422.5249 771.9458,-429.5383 774.5862,-423.0554"/>
</g>
<!-- Node56&#45;&gt;Node34 -->
<g id="edge111" class="edge">
<title>Node56&#45;&gt;Node34</title>
<path fill="none" stroke="#191970" d="M1001.9761,-515.4509C974.2273,-496.0268 911.0038,-451.7703 877.4598,-428.2895"/>
<polygon fill="#191970" stroke="#191970" points="879.4241,-425.3922 869.2246,-422.5249 875.4098,-431.1269 879.4241,-425.3922"/>
</g>
<!-- Node56&#45;&gt;Node37 -->
<g id="edge113" class="edge">
<title>Node56&#45;&gt;Node37</title>
<path fill="none" stroke="#191970" d="M1020.1465,-515.2455C1023.651,-507.6973 1028.6103,-497.0158 1032.8799,-487.8197"/>
<polygon fill="#191970" stroke="#191970" points="1036.1041,-489.1867 1037.1407,-478.6427 1029.755,-486.2389 1036.1041,-489.1867"/>
</g>
<!-- Node56&#45;&gt;Node38 -->
<g id="edge114" class="edge">
<title>Node56&#45;&gt;Node38</title>
<path fill="none" stroke="#191970" d="M1052.3311,-515.44C1082.9993,-506.6241 1123.1854,-492.8435 1132.6177,-479 1147.1835,-457.6221 1118.9853,-438.4451 1093.512,-426.3435"/>
<polygon fill="#191970" stroke="#191970" points="1094.8902,-423.1257 1084.3346,-422.2141 1092.0178,-429.5092 1094.8902,-423.1257"/>
</g>
<!-- Node56&#45;&gt;Node39 -->
<g id="edge112" class="edge">
<title>Node56&#45;&gt;Node39</title>
<path fill="none" stroke="#191970" d="M1067.1751,-515.4906C1093.3383,-508.6873 1124.4052,-497.3787 1147.6177,-479 1163.3636,-466.533 1174.9326,-446.4469 1181.8963,-431.7037"/>
<polygon fill="#191970" stroke="#191970" points="1185.1191,-433.0699 1185.9763,-422.5098 1178.7208,-430.2305 1185.1191,-433.0699"/>
</g>
<!-- Node56&#45;&gt;Node42 -->
<g id="edge110" class="edge">
<title>Node56&#45;&gt;Node42</title>
<path fill="none" stroke="#191970" d="M1082.207,-516.0654C1148.3708,-507.1649 1253.0294,-493.0243 1353.283,-479.1797"/>
<polygon fill="#191970" stroke="#191970" points="1353.8554,-482.634 1363.2821,-477.7978 1352.897,-475.6999 1353.8554,-482.634"/>
</g>
<!-- Node57 -->
<g id="node49" class="node">
<title>Node57</title>
<g id="a_node49"><a xlink:href="IJoint_8h.html" target="_top" xlink:title="iDynTree/Model/IJoint.h">
<polygon fill="none" stroke="#000000" points="1217.6177,-459.5 1217.6177,-478.5 1345.6177,-478.5 1345.6177,-459.5 1217.6177,-459.5"/>
<text text-anchor="middle" x="1281.6177" y="-466.5" font-family="FreeSans.ttf" font-size="10.00" fill="#000000">iDynTree/Model/IJoint.h</text>
</a>
</g>
</g>
<!-- Node56&#45;&gt;Node57 -->
<g id="edge108" class="edge">
<title>Node56&#45;&gt;Node57</title>
<path fill="none" stroke="#191970" d="M1061.0424,-515.4369C1106.8532,-505.7925 1177.6174,-490.8948 1226.5852,-480.5858"/>
<polygon fill="#191970" stroke="#191970" points="1227.3158,-484.0088 1236.3802,-478.5237 1225.8737,-477.1589 1227.3158,-484.0088"/>
</g>
<!-- Node57&#45;&gt;Node39 -->
<g id="edge109" class="edge">
<title>Node57&#45;&gt;Node39</title>
<path fill="none" stroke="#191970" d="M1265.5925,-459.2455C1251.4768,-450.6534 1230.6913,-438.0014 1214.4278,-428.1018"/>
<polygon fill="#191970" stroke="#191970" points="1215.821,-424.8525 1205.4592,-422.6427 1212.1814,-430.8319 1215.821,-424.8525"/>
</g>
</g>
</svg>
