<?xml version="1.0" encoding="UTF-8" standalone="no"?>
<!DOCTYPE svg PUBLIC "-//W3C//DTD SVG 1.1//EN"
 "http://www.w3.org/Graphics/SVG/1.1/DTD/svg11.dtd">
<!-- Generated by graphviz version 2.40.1 (20161225.0304)
 -->
<!-- Title: RotationRaw.h Pages: 1 -->
<svg width="740pt" height="252pt"
 viewBox="0.00 0.00 740.00 252.00" xmlns="http://www.w3.org/2000/svg" xmlns:xlink="http://www.w3.org/1999/xlink">
<g id="graph0" class="graph" transform="scale(1 1) rotate(0) translate(4 248)">
<title>RotationRaw.h</title>
<!-- Node0 -->
<g id="node1" class="node">
<title>Node0</title>
<polygon fill="#bfbfbf" stroke="#000000" points="541,-224.5 541,-243.5 627,-243.5 627,-224.5 541,-224.5"/>
<text text-anchor="middle" x="584" y="-231.5" font-family="FreeSans.ttf" font-size="10.00" fill="#000000">RotationRaw.h</text>
</g>
<!-- Node1 -->
<g id="node2" class="node">
<title>Node1</title>
<g id="a_node2"><a xlink:href="MatrixFixSize_8h.html" target="_top" xlink:title="iDynTree/Core/MatrixFixSize.h">
<polygon fill="none" stroke="#000000" points="449.5,-168.5 449.5,-187.5 610.5,-187.5 610.5,-168.5 449.5,-168.5"/>
<text text-anchor="middle" x="530" y="-175.5" font-family="FreeSans.ttf" font-size="10.00" fill="#000000">iDynTree/Core/MatrixFixSize.h</text>
</a>
</g>
</g>
<!-- Node0&#45;&gt;Node1 -->
<g id="edge1" class="edge">
<title>Node0&#45;&gt;Node1</title>
<path fill="none" stroke="#191970" d="M574.5939,-224.2455C566.8507,-216.2155 555.688,-204.6394 546.4682,-195.0781"/>
<polygon fill="#191970" stroke="#191970" points="548.7591,-192.4117 539.2983,-187.6427 543.7202,-197.2706 548.7591,-192.4117"/>
</g>
<!-- Node16 -->
<g id="node17" class="node">
<title>Node16</title>
<polygon fill="none" stroke="#bfbfbf" points="678,-112.5 678,-131.5 722,-131.5 722,-112.5 678,-112.5"/>
<text text-anchor="middle" x="700" y="-119.5" font-family="FreeSans.ttf" font-size="10.00" fill="#000000">string</text>
</g>
<!-- Node0&#45;&gt;Node16 -->
<g id="edge24" class="edge">
<title>Node0&#45;&gt;Node16</title>
<path fill="none" stroke="#191970" d="M593.8901,-224.4509C613.6656,-205.3574 658.2921,-162.2697 682.9041,-138.5063"/>
<polygon fill="#191970" stroke="#191970" points="685.372,-140.9888 690.1349,-131.5249 680.5098,-135.9529 685.372,-140.9888"/>
</g>
<!-- Node2 -->
<g id="node3" class="node">
<title>Node2</title>
<g id="a_node3"><a xlink:href="Utils_8h.html" target="_top" xlink:title="iDynTree/Core/Utils.h">
<polygon fill="none" stroke="#000000" points="109.5,-56.5 109.5,-75.5 228.5,-75.5 228.5,-56.5 109.5,-56.5"/>
<text text-anchor="middle" x="169" y="-63.5" font-family="FreeSans.ttf" font-size="10.00" fill="#000000">iDynTree/Core/Utils.h</text>
</a>
</g>
</g>
<!-- Node1&#45;&gt;Node2 -->
<g id="edge2" class="edge">
<title>Node1&#45;&gt;Node2</title>
<path fill="none" stroke="#191970" d="M456.2397,-168.4924C411.1225,-161.3518 352.7164,-149.7101 303,-132 285.0214,-125.5956 282.0532,-120.5695 265,-112 242.9623,-100.9256 217.8127,-88.8967 198.7845,-79.918"/>
<polygon fill="#191970" stroke="#191970" points="200.2473,-76.7382 189.7088,-75.6476 197.267,-83.0721 200.2473,-76.7382"/>
</g>
<!-- Node5 -->
<g id="node6" class="node">
<title>Node5</title>
<g id="a_node6"><a xlink:href="MatrixView_8h.html" target="_top" xlink:title="iDynTree/Core/MatrixView.h">
<polygon fill="none" stroke="#000000" points="312.5,-112.5 312.5,-131.5 463.5,-131.5 463.5,-112.5 312.5,-112.5"/>
<text text-anchor="middle" x="388" y="-119.5" font-family="FreeSans.ttf" font-size="10.00" fill="#000000">iDynTree/Core/MatrixView.h</text>
</a>
</g>
</g>
<!-- Node1&#45;&gt;Node5 -->
<g id="edge5" class="edge">
<title>Node1&#45;&gt;Node5</title>
<path fill="none" stroke="#191970" d="M505.5893,-168.3733C482.3858,-159.2226 447.2962,-145.3844 421.4858,-135.2057"/>
<polygon fill="#191970" stroke="#191970" points="422.6789,-131.9139 412.0921,-131.5011 420.1108,-138.4258 422.6789,-131.9139"/>
</g>
<!-- Node6 -->
<g id="node7" class="node">
<title>Node6</title>
<polygon fill="none" stroke="#bfbfbf" points="680,-.5 680,-19.5 732,-19.5 732,-.5 680,-.5"/>
<text text-anchor="middle" x="706" y="-7.5" font-family="FreeSans.ttf" font-size="10.00" fill="#000000">cassert</text>
</g>
<!-- Node1&#45;&gt;Node6 -->
<g id="edge19" class="edge">
<title>Node1&#45;&gt;Node6</title>
<path fill="none" stroke="#191970" d="M525.5531,-168.2776C520.0534,-154.6848 512.611,-129.6844 523,-112 539.7623,-83.4668 625.1528,-43.9626 673.1413,-23.4995"/>
<polygon fill="#191970" stroke="#191970" points="674.6414,-26.6654 682.4924,-19.5512 671.9184,-20.2167 674.6414,-26.6654"/>
</g>
<!-- Node15 -->
<g id="node16" class="node">
<title>Node15</title>
<polygon fill="none" stroke="#bfbfbf" points="532,-112.5 532,-131.5 582,-131.5 582,-112.5 532,-112.5"/>
<text text-anchor="middle" x="557" y="-119.5" font-family="FreeSans.ttf" font-size="10.00" fill="#000000">cstring</text>
</g>
<!-- Node1&#45;&gt;Node15 -->
<g id="edge20" class="edge">
<title>Node1&#45;&gt;Node15</title>
<path fill="none" stroke="#191970" d="M534.703,-168.2455C538.3424,-160.6973 543.4924,-150.0158 547.9262,-140.8197"/>
<polygon fill="#191970" stroke="#191970" points="551.1605,-142.1704 552.3509,-131.6427 544.8551,-139.1303 551.1605,-142.1704"/>
</g>
<!-- Node1&#45;&gt;Node16 -->
<g id="edge21" class="edge">
<title>Node1&#45;&gt;Node16</title>
<path fill="none" stroke="#191970" d="M559.224,-168.3733C589.634,-158.3559 637.0969,-142.721 668.3708,-132.419"/>
<polygon fill="#191970" stroke="#191970" points="669.5108,-135.7286 677.9137,-129.2755 667.3207,-129.08 669.5108,-135.7286"/>
</g>
<!-- Node17 -->
<g id="node18" class="node">
<title>Node17</title>
<polygon fill="none" stroke="#bfbfbf" points="600,-112.5 600,-131.5 660,-131.5 660,-112.5 600,-112.5"/>
<text text-anchor="middle" x="630" y="-119.5" font-family="FreeSans.ttf" font-size="10.00" fill="#000000">iostream</text>
</g>
<!-- Node1&#45;&gt;Node17 -->
<g id="edge22" class="edge">
<title>Node1&#45;&gt;Node17</title>
<path fill="none" stroke="#191970" d="M547.4187,-168.2455C563.0485,-159.4928 586.2019,-146.527 604.0185,-136.5496"/>
<polygon fill="#191970" stroke="#191970" points="605.766,-139.5825 612.7809,-131.6427 602.3457,-133.475 605.766,-139.5825"/>
</g>
<!-- Node18 -->
<g id="node19" class="node">
<title>Node18</title>
<polygon fill="none" stroke="#bfbfbf" points="200,-112.5 200,-131.5 256,-131.5 256,-112.5 200,-112.5"/>
<text text-anchor="middle" x="228" y="-119.5" font-family="FreeSans.ttf" font-size="10.00" fill="#000000">sstream</text>
</g>
<!-- Node1&#45;&gt;Node18 -->
<g id="edge23" class="edge">
<title>Node1&#45;&gt;Node18</title>
<path fill="none" stroke="#191970" d="M470.4342,-168.4818C417.6126,-159.7987 338.4502,-146.1913 270,-132 268.7615,-131.7432 267.5037,-131.4768 266.2347,-131.2033"/>
<polygon fill="#191970" stroke="#191970" points="266.9393,-127.7744 256.4161,-129.004 265.4093,-134.6052 266.9393,-127.7744"/>
</g>
<!-- Node3 -->
<g id="node4" class="node">
<title>Node3</title>
<polygon fill="none" stroke="#bfbfbf" points="98.5,-.5 98.5,-19.5 151.5,-19.5 151.5,-.5 98.5,-.5"/>
<text text-anchor="middle" x="125" y="-7.5" font-family="FreeSans.ttf" font-size="10.00" fill="#000000">cstddef</text>
</g>
<!-- Node2&#45;&gt;Node3 -->
<g id="edge3" class="edge">
<title>Node2&#45;&gt;Node3</title>
<path fill="none" stroke="#191970" d="M161.3358,-56.2455C155.1527,-48.3761 146.2937,-37.101 138.8711,-27.6542"/>
<polygon fill="#191970" stroke="#191970" points="141.5068,-25.3435 132.5764,-19.6427 136.0025,-29.6683 141.5068,-25.3435"/>
</g>
<!-- Node4 -->
<g id="node5" class="node">
<title>Node4</title>
<polygon fill="none" stroke="#bfbfbf" points="0,-.5 0,-19.5 80,-19.5 80,-.5 0,-.5"/>
<text text-anchor="middle" x="40" y="-7.5" font-family="FreeSans.ttf" font-size="10.00" fill="#000000">CoreExport.h</text>
</g>
<!-- Node2&#45;&gt;Node4 -->
<g id="edge4" class="edge">
<title>Node2&#45;&gt;Node4</title>
<path fill="none" stroke="#191970" d="M146.8241,-56.3733C126.0234,-47.3435 94.7083,-33.7494 71.3542,-23.6111"/>
<polygon fill="#191970" stroke="#191970" points="72.4532,-20.2727 61.8865,-19.5011 69.6657,-26.6938 72.4532,-20.2727"/>
</g>
<!-- Node5&#45;&gt;Node2 -->
<g id="edge18" class="edge">
<title>Node5&#45;&gt;Node2</title>
<path fill="none" stroke="#191970" d="M350.3526,-112.3733C313.148,-102.8598 256.1297,-88.2797 215.9784,-78.0127"/>
<polygon fill="#191970" stroke="#191970" points="216.7116,-74.5877 206.1562,-75.5011 214.9773,-81.3695 216.7116,-74.5877"/>
</g>
<!-- Node5&#45;&gt;Node6 -->
<g id="edge6" class="edge">
<title>Node5&#45;&gt;Node6</title>
<path fill="none" stroke="#191970" d="M399.4265,-112.4995C417.4786,-97.9999 454.2315,-70.5075 490,-56 563.0373,-26.3765 589.2268,-38.2487 669.6098,-20.1307"/>
<polygon fill="#191970" stroke="#191970" points="670.7511,-23.4582 679.688,-17.7678 669.1531,-16.643 670.7511,-23.4582"/>
</g>
<!-- Node7 -->
<g id="node8" class="node">
<title>Node7</title>
<polygon fill="none" stroke="#bfbfbf" points="169.5,-.5 169.5,-19.5 238.5,-19.5 238.5,-.5 169.5,-.5"/>
<text text-anchor="middle" x="204" y="-7.5" font-family="FreeSans.ttf" font-size="10.00" fill="#000000">type_traits</text>
</g>
<!-- Node5&#45;&gt;Node7 -->
<g id="edge7" class="edge">
<title>Node5&#45;&gt;Node7</title>
<path fill="none" stroke="#191970" d="M370.4635,-112.3954C353.9512,-103.2685 328.5972,-89.0393 307,-76 279.1257,-59.1708 247.6966,-38.8277 226.9677,-25.2154"/>
<polygon fill="#191970" stroke="#191970" points="228.7909,-22.2252 218.5144,-19.6476 224.9405,-28.0711 228.7909,-22.2252"/>
</g>
<!-- Node8 -->
<g id="node9" class="node">
<title>Node8</title>
<g id="a_node9"><a xlink:href="Span_8h.html" target="_top" xlink:title="iDynTree/Core/Span.h">
<polygon fill="none" stroke="#000000" points="316.5,-56.5 316.5,-75.5 437.5,-75.5 437.5,-56.5 316.5,-56.5"/>
<text text-anchor="middle" x="377" y="-63.5" font-family="FreeSans.ttf" font-size="10.00" fill="#000000">iDynTree/Core/Span.h</text>
</a>
</g>
</g>
<!-- Node5&#45;&gt;Node8 -->
<g id="edge8" class="edge">
<title>Node5&#45;&gt;Node8</title>
<path fill="none" stroke="#191970" d="M386.0839,-112.2455C384.6486,-104.9382 382.6364,-94.6944 380.8705,-85.7046"/>
<polygon fill="#191970" stroke="#191970" points="384.256,-84.7805 378.8941,-75.6427 377.3873,-86.1298 384.256,-84.7805"/>
</g>
<!-- Node8&#45;&gt;Node3 -->
<g id="edge12" class="edge">
<title>Node8&#45;&gt;Node3</title>
<path fill="none" stroke="#191970" d="M327.2195,-56.4689C285.3319,-48.2187 223.6513,-35.5348 161.652,-20.3019"/>
<polygon fill="#191970" stroke="#191970" points="162.2501,-16.8443 151.7018,-17.8355 160.566,-23.6387 162.2501,-16.8443"/>
</g>
<!-- Node8&#45;&gt;Node6 -->
<g id="edge9" class="edge">
<title>Node8&#45;&gt;Node6</title>
<path fill="none" stroke="#191970" d="M437.8082,-57.3873C506.2342,-47.5466 614.1495,-31.5432 669.9281,-19.9886"/>
<polygon fill="#191970" stroke="#191970" points="670.6738,-23.4083 679.7152,-17.8853 669.203,-16.5646 670.6738,-23.4083"/>
</g>
<!-- Node8&#45;&gt;Node7 -->
<g id="edge16" class="edge">
<title>Node8&#45;&gt;Node7</title>
<path fill="none" stroke="#191970" d="M347.2602,-56.3733C318.493,-47.0613 274.73,-32.8953 243.1444,-22.671"/>
<polygon fill="#191970" stroke="#191970" points="243.9436,-19.251 233.3517,-19.5011 241.7878,-25.9107 243.9436,-19.251"/>
</g>
<!-- Node9 -->
<g id="node10" class="node">
<title>Node9</title>
<polygon fill="none" stroke="#bfbfbf" points="598,-.5 598,-19.5 662,-19.5 662,-.5 598,-.5"/>
<text text-anchor="middle" x="630" y="-7.5" font-family="FreeSans.ttf" font-size="10.00" fill="#000000">algorithm</text>
</g>
<!-- Node8&#45;&gt;Node9 -->
<g id="edge10" class="edge">
<title>Node8&#45;&gt;Node9</title>
<path fill="none" stroke="#191970" d="M421.9208,-56.4666C464.6751,-47.3316 530.7929,-33.045 588,-20 588.1005,-19.9771 588.2011,-19.9541 588.3018,-19.9311"/>
<polygon fill="#191970" stroke="#191970" points="588.958,-23.3719 597.9111,-17.7068 587.3794,-16.5522 588.958,-23.3719"/>
</g>
<!-- Node10 -->
<g id="node11" class="node">
<title>Node10</title>
<polygon fill="none" stroke="#bfbfbf" points="257,-.5 257,-19.5 299,-19.5 299,-.5 257,-.5"/>
<text text-anchor="middle" x="278" y="-7.5" font-family="FreeSans.ttf" font-size="10.00" fill="#000000">array</text>
</g>
<!-- Node8&#45;&gt;Node10 -->
<g id="edge11" class="edge">
<title>Node8&#45;&gt;Node10</title>
<path fill="none" stroke="#191970" d="M359.7555,-56.2455C344.4239,-47.5731 321.7801,-34.7645 304.2084,-24.825"/>
<polygon fill="#191970" stroke="#191970" points="305.4741,-21.5198 295.0469,-19.6427 302.0276,-27.6126 305.4741,-21.5198"/>
</g>
<!-- Node11 -->
<g id="node12" class="node">
<title>Node11</title>
<polygon fill="none" stroke="#bfbfbf" points="317.5,-.5 317.5,-19.5 370.5,-19.5 370.5,-.5 317.5,-.5"/>
<text text-anchor="middle" x="344" y="-7.5" font-family="FreeSans.ttf" font-size="10.00" fill="#000000">iterator</text>
</g>
<!-- Node8&#45;&gt;Node11 -->
<g id="edge13" class="edge">
<title>Node8&#45;&gt;Node11</title>
<path fill="none" stroke="#191970" d="M371.2518,-56.2455C366.7565,-48.617 360.3752,-37.7881 354.9175,-28.5267"/>
<polygon fill="#191970" stroke="#191970" points="357.7747,-26.4811 349.6823,-19.6427 351.7439,-30.035 357.7747,-26.4811"/>
</g>
<!-- Node12 -->
<g id="node13" class="node">
<title>Node12</title>
<polygon fill="none" stroke="#bfbfbf" points="389,-.5 389,-19.5 433,-19.5 433,-.5 389,-.5"/>
<text text-anchor="middle" x="411" y="-7.5" font-family="FreeSans.ttf" font-size="10.00" fill="#000000">limits</text>
</g>
<!-- Node8&#45;&gt;Node12 -->
<g id="edge14" class="edge">
<title>Node8&#45;&gt;Node12</title>
<path fill="none" stroke="#191970" d="M382.9223,-56.2455C387.6027,-48.5367 394.2673,-37.5598 399.9289,-28.2348"/>
<polygon fill="#191970" stroke="#191970" points="402.9475,-30.007 405.1455,-19.6427 396.9639,-26.3741 402.9475,-30.007"/>
</g>
<!-- Node13 -->
<g id="node14" class="node">
<title>Node13</title>
<polygon fill="none" stroke="#bfbfbf" points="451.5,-.5 451.5,-19.5 516.5,-19.5 516.5,-.5 451.5,-.5"/>
<text text-anchor="middle" x="484" y="-7.5" font-family="FreeSans.ttf" font-size="10.00" fill="#000000">stdexcept</text>
</g>
<!-- Node8&#45;&gt;Node13 -->
<g id="edge15" class="edge">
<title>Node8&#45;&gt;Node13</title>
<path fill="none" stroke="#191970" d="M395.638,-56.2455C412.4386,-47.4527 437.3634,-34.4079 456.4618,-24.4125"/>
<polygon fill="#191970" stroke="#191970" points="458.3386,-27.3807 465.5756,-19.6427 455.0927,-21.1787 458.3386,-27.3807"/>
</g>
<!-- Node14 -->
<g id="node15" class="node">
<title>Node14</title>
<polygon fill="none" stroke="#bfbfbf" points="534.5,-.5 534.5,-19.5 579.5,-19.5 579.5,-.5 534.5,-.5"/>
<text text-anchor="middle" x="557" y="-7.5" font-family="FreeSans.ttf" font-size="10.00" fill="#000000">utility</text>
</g>
<!-- Node8&#45;&gt;Node14 -->
<g id="edge17" class="edge">
<title>Node8&#45;&gt;Node14</title>
<path fill="none" stroke="#191970" d="M407.617,-56.499C435.6198,-47.8059 478.4418,-34.504 524.6753,-20.0981"/>
<polygon fill="#191970" stroke="#191970" points="525.77,-23.423 534.2757,-17.1061 523.6872,-16.74 525.77,-23.423"/>
</g>
</g>
</svg>
