<?xml version="1.0" encoding="UTF-8" standalone="no"?>
<!DOCTYPE svg PUBLIC "-//W3C//DTD SVG 1.1//EN"
 "http://www.w3.org/Graphics/SVG/1.1/DTD/svg11.dtd">
<!-- Generated by graphviz version 2.40.1 (20161225.0304)
 -->
<!-- Title: SixAxisForceTorqueSensor.h Pages: 1 -->
<svg width="1587pt" height="151pt"
 viewBox="0.00 0.00 1586.50 151.00" xmlns="http://www.w3.org/2000/svg" xmlns:xlink="http://www.w3.org/1999/xlink">
<g id="graph0" class="graph" transform="scale(1 1) rotate(0) translate(4 147)">
<title>SixAxisForceTorqueSensor.h</title>
<!-- Node48 -->
<g id="node1" class="node">
<title>Node48</title>
<polygon fill="#bfbfbf" stroke="#000000" points="726.5,-123.5 726.5,-142.5 878.5,-142.5 878.5,-123.5 726.5,-123.5"/>
<text text-anchor="middle" x="802.5" y="-130.5" font-family="FreeSans.ttf" font-size="10.00" fill="#000000">SixAxisForceTorqueSensor.h</text>
</g>
<!-- Node49 -->
<g id="node2" class="node">
<title>Node49</title>
<g id="a_node2"><a xlink:href="ExternalWrenchesEstimation_8cpp.html" target="_top" xlink:title="ExternalWrenchesEstimation.cpp">
<polygon fill="none" stroke="#000000" points="0,-62 0,-81 177,-81 177,-62 0,-62"/>
<text text-anchor="middle" x="88.5" y="-69" font-family="FreeSans.ttf" font-size="10.00" fill="#000000">ExternalWrenchesEstimation.cpp</text>
</a>
</g>
</g>
<!-- Node48&#45;&gt;Node49 -->
<g id="edge1" class="edge">
<title>Node48&#45;&gt;Node49</title>
<path fill="none" stroke="#191970" d="M716.1297,-128.8557C596.6125,-122.5984 374.1732,-109.0681 185.5,-87 171.6952,-85.3853 156.8489,-83.2278 143.0235,-81.0367"/>
<polygon fill="#191970" stroke="#191970" points="716.1463,-132.3611 726.3143,-129.3843 716.5092,-125.3705 716.1463,-132.3611"/>
</g>
<!-- Node50 -->
<g id="node3" class="node">
<title>Node50</title>
<g id="a_node3"><a xlink:href="ExtWrenchesAndJointTorquesEstimator_8cpp.html" target="_top" xlink:title="ExtWrenchesAndJointTorques\lEstimator.cpp">
<polygon fill="none" stroke="#000000" points="194.5,-56.5 194.5,-86.5 352.5,-86.5 352.5,-56.5 194.5,-56.5"/>
<text text-anchor="start" x="202.5" y="-74.5" font-family="FreeSans.ttf" font-size="10.00" fill="#000000">ExtWrenchesAndJointTorques</text>
<text text-anchor="middle" x="273.5" y="-63.5" font-family="FreeSans.ttf" font-size="10.00" fill="#000000">Estimator.cpp</text>
</a>
</g>
</g>
<!-- Node48&#45;&gt;Node50 -->
<g id="edge2" class="edge">
<title>Node48&#45;&gt;Node50</title>
<path fill="none" stroke="#191970" d="M716.1607,-125.805C627.0964,-117.9587 484.2698,-104.1933 361.5,-87 358.581,-86.5912 355.6106,-86.1577 352.6124,-85.7054"/>
<polygon fill="#191970" stroke="#191970" points="715.9472,-129.2996 726.2145,-126.6857 716.5581,-122.3263 715.9472,-129.2996"/>
</g>
<!-- Node51 -->
<g id="node4" class="node">
<title>Node51</title>
<g id="a_node4"><a xlink:href="ForceTorqueSensorElement_8cpp.html" target="_top" xlink:title="ForceTorqueSensorElement.cpp">
<polygon fill="none" stroke="#000000" points="370,-62 370,-81 539,-81 539,-62 370,-62"/>
<text text-anchor="middle" x="454.5" y="-69" font-family="FreeSans.ttf" font-size="10.00" fill="#000000">ForceTorqueSensorElement.cpp</text>
</a>
</g>
</g>
<!-- Node48&#45;&gt;Node51 -->
<g id="edge3" class="edge">
<title>Node48&#45;&gt;Node51</title>
<path fill="none" stroke="#191970" d="M738.6236,-121.7115C672.5344,-110.0319 570.4596,-91.9929 508.3335,-81.0137"/>
<polygon fill="#191970" stroke="#191970" points="738.0503,-125.1643 748.5068,-123.4581 739.2685,-118.2712 738.0503,-125.1643"/>
</g>
<!-- Node52 -->
<g id="node5" class="node">
<title>Node52</title>
<g id="a_node5"><a xlink:href="URDFDocument_8cpp.html" target="_top" xlink:title="URDFDocument.cpp">
<polygon fill="none" stroke="#000000" points="557.5,-62 557.5,-81 671.5,-81 671.5,-62 557.5,-62"/>
<text text-anchor="middle" x="614.5" y="-69" font-family="FreeSans.ttf" font-size="10.00" fill="#000000">URDFDocument.cpp</text>
</a>
</g>
</g>
<!-- Node48&#45;&gt;Node52 -->
<g id="edge4" class="edge">
<title>Node48&#45;&gt;Node52</title>
<path fill="none" stroke="#191970" d="M763.5267,-120.2507C727.8558,-108.5818 675.8681,-91.5752 643.6687,-81.0419"/>
<polygon fill="#191970" stroke="#191970" points="762.5324,-123.6079 773.125,-123.3906 764.7088,-116.9549 762.5324,-123.6079"/>
</g>
<!-- Node53 -->
<g id="node6" class="node">
<title>Node53</title>
<g id="a_node6"><a xlink:href="AllSensorsTypes_8h.html" target="_top" xlink:title="AllSensorsTypes.h">
<polygon fill="none" stroke="#000000" points="689.5,-62 689.5,-81 793.5,-81 793.5,-62 689.5,-62"/>
<text text-anchor="middle" x="741.5" y="-69" font-family="FreeSans.ttf" font-size="10.00" fill="#000000">AllSensorsTypes.h</text>
</a>
</g>
</g>
<!-- Node48&#45;&gt;Node53 -->
<g id="edge5" class="edge">
<title>Node48&#45;&gt;Node53</title>
<path fill="none" stroke="#191970" d="M785.8617,-116.2253C774.7304,-105.0028 760.4703,-90.6258 751.1656,-81.2449"/>
<polygon fill="#191970" stroke="#191970" points="783.4416,-118.7555 792.9688,-123.3906 788.4115,-113.826 783.4416,-118.7555"/>
</g>
<!-- Node55 -->
<g id="node8" class="node">
<title>Node55</title>
<g id="a_node8"><a xlink:href="SixAxisFTSensor_8h.html" target="_top" xlink:title="SixAxisFTSensor.h">
<polygon fill="none" stroke="#000000" points="812,-62 812,-81 917,-81 917,-62 812,-62"/>
<text text-anchor="middle" x="864.5" y="-69" font-family="FreeSans.ttf" font-size="10.00" fill="#000000">SixAxisFTSensor.h</text>
</a>
</g>
</g>
<!-- Node48&#45;&gt;Node55 -->
<g id="edge7" class="edge">
<title>Node48&#45;&gt;Node55</title>
<path fill="none" stroke="#191970" d="M819.411,-116.2253C830.7248,-105.0028 845.2187,-90.6258 854.6759,-81.2449"/>
<polygon fill="#191970" stroke="#191970" points="816.8223,-113.8633 812.1875,-123.3906 821.752,-118.8331 816.8223,-113.8633"/>
</g>
<!-- Node56 -->
<g id="node9" class="node">
<title>Node56</title>
<g id="a_node9"><a xlink:href="ModelSensorsTransformers_8cpp.html" target="_top" xlink:title="ModelSensorsTransformers.cpp">
<polygon fill="none" stroke="#000000" points="935.5,-62 935.5,-81 1103.5,-81 1103.5,-62 935.5,-62"/>
<text text-anchor="middle" x="1019.5" y="-69" font-family="FreeSans.ttf" font-size="10.00" fill="#000000">ModelSensorsTransformers.cpp</text>
</a>
</g>
</g>
<!-- Node48&#45;&gt;Node56 -->
<g id="edge8" class="edge">
<title>Node48&#45;&gt;Node56</title>
<path fill="none" stroke="#191970" d="M846.172,-120.6229C887.3737,-108.9459 948.2684,-91.6877 985.8318,-81.0419"/>
<polygon fill="#191970" stroke="#191970" points="845.073,-117.2965 836.4063,-123.3906 846.9817,-124.0312 845.073,-117.2965"/>
</g>
<!-- Node57 -->
<g id="node10" class="node">
<title>Node57</title>
<g id="a_node10"><a xlink:href="PredictSensorsMeasurements_8cpp.html" target="_top" xlink:title="PredictSensorsMeasurements.cpp">
<polygon fill="none" stroke="#000000" points="1122,-62 1122,-81 1303,-81 1303,-62 1122,-62"/>
<text text-anchor="middle" x="1212.5" y="-69" font-family="FreeSans.ttf" font-size="10.00" fill="#000000">PredictSensorsMeasurements.cpp</text>
</a>
</g>
</g>
<!-- Node48&#45;&gt;Node57 -->
<g id="edge9" class="edge">
<title>Node48&#45;&gt;Node57</title>
<path fill="none" stroke="#191970" d="M877.7442,-121.9736C940.5345,-112.7389 1032.3708,-99.155 1112.5,-87 1125.093,-85.0897 1138.5737,-83.0183 1151.4292,-81.0302"/>
<polygon fill="#191970" stroke="#191970" points="876.9193,-118.5572 867.5347,-123.4745 877.9374,-125.4828 876.9193,-118.5572"/>
</g>
<!-- Node58 -->
<g id="node11" class="node">
<title>Node58</title>
<g id="a_node11"><a xlink:href="Sensors_8cpp.html" target="_top" xlink:title="Sensors.cpp">
<polygon fill="none" stroke="#000000" points="1321,-62 1321,-81 1396,-81 1396,-62 1321,-62"/>
<text text-anchor="middle" x="1358.5" y="-69" font-family="FreeSans.ttf" font-size="10.00" fill="#000000">Sensors.cpp</text>
</a>
</g>
</g>
<!-- Node48&#45;&gt;Node58 -->
<g id="edge10" class="edge">
<title>Node48&#45;&gt;Node58</title>
<path fill="none" stroke="#191970" d="M889.0746,-127.6599C1012.8282,-119.6041 1234.019,-103.521 1312.5,-87 1319.4271,-85.5418 1326.7609,-83.3717 1333.4888,-81.1139"/>
<polygon fill="#191970" stroke="#191970" points="888.6269,-124.1814 878.8739,-128.3201 889.0791,-131.1668 888.6269,-124.1814"/>
</g>
<!-- Node59 -->
<g id="node12" class="node">
<title>Node59</title>
<g id="a_node12"><a xlink:href="SixAxisForceTorqueSensor_8cpp.html" target="_top" xlink:title="SixAxisForceTorqueSensor.cpp">
<polygon fill="none" stroke="#000000" points="1414.5,-62 1414.5,-81 1578.5,-81 1578.5,-62 1414.5,-62"/>
<text text-anchor="middle" x="1496.5" y="-69" font-family="FreeSans.ttf" font-size="10.00" fill="#000000">SixAxisForceTorqueSensor.cpp</text>
</a>
</g>
</g>
<!-- Node48&#45;&gt;Node59 -->
<g id="edge11" class="edge">
<title>Node48&#45;&gt;Node59</title>
<path fill="none" stroke="#191970" d="M888.8767,-128.929C1006.1714,-122.8267 1222.229,-109.5496 1405.5,-87 1418.5431,-85.3952 1432.5671,-83.2282 1445.6053,-81.0237"/>
<polygon fill="#191970" stroke="#191970" points="888.6823,-125.4343 878.8757,-129.4443 889.0426,-132.425 888.6823,-125.4343"/>
</g>
<!-- Node54 -->
<g id="node7" class="node">
<title>Node54</title>
<g id="a_node7"><a xlink:href="BerdyHelper_8cpp.html" target="_top" xlink:title="BerdyHelper.cpp">
<polygon fill="none" stroke="#000000" points="693,-.5 693,-19.5 790,-19.5 790,-.5 693,-.5"/>
<text text-anchor="middle" x="741.5" y="-7.5" font-family="FreeSans.ttf" font-size="10.00" fill="#000000">BerdyHelper.cpp</text>
</a>
</g>
</g>
<!-- Node53&#45;&gt;Node54 -->
<g id="edge6" class="edge">
<title>Node53&#45;&gt;Node54</title>
<path fill="none" stroke="#191970" d="M741.5,-51.7462C741.5,-41.0519 741.5,-28.314 741.5,-19.7449"/>
<polygon fill="#191970" stroke="#191970" points="738.0001,-51.8906 741.5,-61.8906 745.0001,-51.8907 738.0001,-51.8906"/>
</g>
</g>
</svg>
