<?xml version="1.0" encoding="UTF-8" standalone="no"?>
<!DOCTYPE svg PUBLIC "-//W3C//DTD SVG 1.1//EN"
 "http://www.w3.org/Graphics/SVG/1.1/DTD/svg11.dtd">
<!-- Generated by graphviz version 2.40.1 (20161225.0304)
 -->
<!-- Title: SolidShapes.h Pages: 1 -->
<svg width="908pt" height="476pt"
 viewBox="0.00 0.00 907.57 476.00" xmlns="http://www.w3.org/2000/svg" xmlns:xlink="http://www.w3.org/1999/xlink">
<g id="graph0" class="graph" transform="scale(1 1) rotate(0) translate(4 472)">
<title>SolidShapes.h</title>
<!-- Node0 -->
<g id="node1" class="node">
<title>Node0</title>
<polygon fill="#bfbfbf" stroke="#000000" points="647.5,-448.5 647.5,-467.5 732.5,-467.5 732.5,-448.5 647.5,-448.5"/>
<text text-anchor="middle" x="690" y="-455.5" font-family="FreeSans.ttf" font-size="10.00" fill="#000000">SolidShapes.h</text>
</g>
<!-- Node1 -->
<g id="node2" class="node">
<title>Node1</title>
<polygon fill="none" stroke="#bfbfbf" points="434.5,-392.5 434.5,-411.5 483.5,-411.5 483.5,-392.5 434.5,-392.5"/>
<text text-anchor="middle" x="459" y="-399.5" font-family="FreeSans.ttf" font-size="10.00" fill="#000000">cstdlib</text>
</g>
<!-- Node0&#45;&gt;Node1 -->
<g id="edge1" class="edge">
<title>Node0&#45;&gt;Node1</title>
<path fill="none" stroke="#191970" d="M647.1716,-448.734C609.2601,-440.3673 552.2202,-427.3802 493.6329,-412.0611"/>
<polygon fill="#191970" stroke="#191970" points="494.3986,-408.6435 483.8369,-409.4814 492.6159,-415.4127 494.3986,-408.6435"/>
</g>
<!-- Node2 -->
<g id="node3" class="node">
<title>Node2</title>
<polygon fill="none" stroke="#bfbfbf" points="596,-112.5 596,-131.5 640,-131.5 640,-112.5 596,-112.5"/>
<text text-anchor="middle" x="618" y="-119.5" font-family="FreeSans.ttf" font-size="10.00" fill="#000000">string</text>
</g>
<!-- Node0&#45;&gt;Node2 -->
<g id="edge2" class="edge">
<title>Node0&#45;&gt;Node2</title>
<path fill="none" stroke="#191970" d="M732.5976,-452.5927C781.6446,-445.5388 858.1474,-431.7265 879,-412 901.2661,-390.9364 899,-376.6506 899,-346 899,-346 899,-346 899,-234 899,-180.9414 723.9356,-141.8653 650.1658,-127.7544"/>
<polygon fill="#191970" stroke="#191970" points="650.5238,-124.2606 640.0496,-125.855 649.2319,-131.1403 650.5238,-124.2606"/>
</g>
<!-- Node3 -->
<g id="node4" class="node">
<title>Node3</title>
<polygon fill="none" stroke="#bfbfbf" points="666.5,-392.5 666.5,-411.5 713.5,-411.5 713.5,-392.5 666.5,-392.5"/>
<text text-anchor="middle" x="690" y="-399.5" font-family="FreeSans.ttf" font-size="10.00" fill="#000000">vector</text>
</g>
<!-- Node0&#45;&gt;Node3 -->
<g id="edge3" class="edge">
<title>Node0&#45;&gt;Node3</title>
<path fill="none" stroke="#191970" d="M690,-448.2455C690,-440.9382 690,-430.6944 690,-421.7046"/>
<polygon fill="#191970" stroke="#191970" points="693.5001,-421.6426 690,-411.6427 686.5001,-421.6427 693.5001,-421.6426"/>
</g>
<!-- Node4 -->
<g id="node5" class="node">
<title>Node4</title>
<g id="a_node5"><a xlink:href="Transform_8h.html" target="_top" xlink:title="iDynTree/Core/Transform.h">
<polygon fill="none" stroke="#000000" points="502,-392.5 502,-411.5 648,-411.5 648,-392.5 502,-392.5"/>
<text text-anchor="middle" x="575" y="-399.5" font-family="FreeSans.ttf" font-size="10.00" fill="#000000">iDynTree/Core/Transform.h</text>
</a>
</g>
</g>
<!-- Node0&#45;&gt;Node4 -->
<g id="edge4" class="edge">
<title>Node0&#45;&gt;Node4</title>
<path fill="none" stroke="#191970" d="M670.2308,-448.3733C651.8531,-439.4241 624.2688,-425.9917 603.5107,-415.8835"/>
<polygon fill="#191970" stroke="#191970" points="605.0343,-412.7325 594.5112,-411.5011 601.9696,-419.026 605.0343,-412.7325"/>
</g>
<!-- Node28 -->
<g id="node29" class="node">
<title>Node28</title>
<g id="a_node29"><a xlink:href="Indices_8h.html" target="_top" xlink:title="iDynTree/Model/Indices.h">
<polygon fill="none" stroke="#000000" points="732,-392.5 732,-411.5 870,-411.5 870,-392.5 732,-392.5"/>
<text text-anchor="middle" x="801" y="-399.5" font-family="FreeSans.ttf" font-size="10.00" fill="#000000">iDynTree/Model/Indices.h</text>
</a>
</g>
</g>
<!-- Node0&#45;&gt;Node28 -->
<g id="edge49" class="edge">
<title>Node0&#45;&gt;Node28</title>
<path fill="none" stroke="#191970" d="M709.0816,-448.3733C726.7402,-439.4644 753.2053,-426.1127 773.2098,-416.0203"/>
<polygon fill="#191970" stroke="#191970" points="774.8158,-419.1303 782.1674,-411.5011 771.6628,-412.8806 774.8158,-419.1303"/>
</g>
<!-- Node4&#45;&gt;Node2 -->
<g id="edge48" class="edge">
<title>Node4&#45;&gt;Node2</title>
<path fill="none" stroke="#191970" d="M608.0365,-392.4779C650.5502,-377.958 719,-345.9003 719,-290 719,-290 719,-290 719,-234 719,-189.8652 675.2112,-155.2933 645.2988,-136.8258"/>
<polygon fill="#191970" stroke="#191970" points="646.9108,-133.7126 636.525,-131.6188 643.3383,-139.7323 646.9108,-133.7126"/>
</g>
<!-- Node5 -->
<g id="node6" class="node">
<title>Node5</title>
<g id="a_node6"><a xlink:href="Position_8h.html" target="_top" xlink:title="iDynTree/Core/Position.h">
<polygon fill="none" stroke="#000000" points="507,-336.5 507,-355.5 643,-355.5 643,-336.5 507,-336.5"/>
<text text-anchor="middle" x="575" y="-343.5" font-family="FreeSans.ttf" font-size="10.00" fill="#000000">iDynTree/Core/Position.h</text>
</a>
</g>
</g>
<!-- Node4&#45;&gt;Node5 -->
<g id="edge5" class="edge">
<title>Node4&#45;&gt;Node5</title>
<path fill="none" stroke="#191970" d="M575,-392.2455C575,-384.9382 575,-374.6944 575,-365.7046"/>
<polygon fill="#191970" stroke="#191970" points="578.5001,-365.6426 575,-355.6427 571.5001,-365.6427 578.5001,-365.6426"/>
</g>
<!-- Node22 -->
<g id="node23" class="node">
<title>Node22</title>
<g id="a_node23"><a xlink:href="Rotation_8h.html" target="_top" xlink:title="iDynTree/Core/Rotation.h">
<polygon fill="none" stroke="#000000" points="322.5,-280.5 322.5,-299.5 459.5,-299.5 459.5,-280.5 322.5,-280.5"/>
<text text-anchor="middle" x="391" y="-287.5" font-family="FreeSans.ttf" font-size="10.00" fill="#000000">iDynTree/Core/Rotation.h</text>
</a>
</g>
</g>
<!-- Node4&#45;&gt;Node22 -->
<g id="edge46" class="edge">
<title>Node4&#45;&gt;Node22</title>
<path fill="none" stroke="#191970" d="M558.7363,-392.3746C543.1243,-383.1137 518.8984,-368.6868 498,-356 469.4311,-338.6567 436.7568,-318.4477 415.1095,-305.0063"/>
<polygon fill="#191970" stroke="#191970" points="416.8924,-301.9935 406.5514,-299.6881 413.1977,-307.939 416.8924,-301.9935"/>
</g>
<!-- Node25 -->
<g id="node26" class="node">
<title>Node25</title>
<g id="a_node26"><a xlink:href="MatrixFixSize_8h.html" target="_top" xlink:title="iDynTree/Core/MatrixFixSize.h">
<polygon fill="none" stroke="#000000" points="241.5,-168.5 241.5,-187.5 402.5,-187.5 402.5,-168.5 241.5,-168.5"/>
<text text-anchor="middle" x="322" y="-175.5" font-family="FreeSans.ttf" font-size="10.00" fill="#000000">iDynTree/Core/MatrixFixSize.h</text>
</a>
</g>
</g>
<!-- Node4&#45;&gt;Node25 -->
<g id="edge47" class="edge">
<title>Node4&#45;&gt;Node25</title>
<path fill="none" stroke="#191970" d="M527.7435,-392.4613C471.7909,-379.2982 378.0107,-351.1742 313,-300 283.168,-276.5173 259.099,-258.9191 274,-224 279.1156,-212.0122 289.0575,-201.6498 298.5727,-193.8114"/>
<polygon fill="#191970" stroke="#191970" points="300.8797,-196.4532 306.6926,-187.5954 296.6246,-190.8949 300.8797,-196.4532"/>
</g>
<!-- Node5&#45;&gt;Node2 -->
<g id="edge45" class="edge">
<title>Node5&#45;&gt;Node2</title>
<path fill="none" stroke="#191970" d="M587.5992,-336.403C607.8863,-320.0594 647.0295,-284.6205 662,-244 675.6702,-206.9075 649.8943,-163.3098 632.3485,-139.5763"/>
<polygon fill="#191970" stroke="#191970" points="635.0047,-137.2892 626.1263,-131.5077 629.4615,-141.5639 635.0047,-137.2892"/>
</g>
<!-- Node6 -->
<g id="node7" class="node">
<title>Node6</title>
<g id="a_node7"><a xlink:href="PositionRaw_8h.html" target="_top" xlink:title="iDynTree/Core/PositionRaw.h">
<polygon fill="none" stroke="#000000" points="497,-224.5 497,-243.5 653,-243.5 653,-224.5 497,-224.5"/>
<text text-anchor="middle" x="575" y="-231.5" font-family="FreeSans.ttf" font-size="10.00" fill="#000000">iDynTree/Core/PositionRaw.h</text>
</a>
</g>
</g>
<!-- Node5&#45;&gt;Node6 -->
<g id="edge6" class="edge">
<title>Node5&#45;&gt;Node6</title>
<path fill="none" stroke="#191970" d="M575,-336.4509C575,-318.184 575,-277.9553 575,-253.6976"/>
<polygon fill="#191970" stroke="#191970" points="578.5001,-253.5249 575,-243.5249 571.5001,-253.5249 578.5001,-253.5249"/>
</g>
<!-- Node5&#45;&gt;Node22 -->
<g id="edge26" class="edge">
<title>Node5&#45;&gt;Node22</title>
<path fill="none" stroke="#191970" d="M543.3693,-336.3733C512.6404,-327.021 465.824,-312.7725 432.1978,-302.5385"/>
<polygon fill="#191970" stroke="#191970" points="432.8038,-299.0644 422.218,-299.5011 430.7656,-305.7612 432.8038,-299.0644"/>
</g>
<!-- Node6&#45;&gt;Node2 -->
<g id="edge25" class="edge">
<title>Node6&#45;&gt;Node2</title>
<path fill="none" stroke="#191970" d="M578.6662,-224.4509C585.7428,-206.0186 601.4045,-165.2254 610.6888,-141.043"/>
<polygon fill="#191970" stroke="#191970" points="614.0263,-142.115 614.3431,-131.5249 607.4914,-139.606 614.0263,-142.115"/>
</g>
<!-- Node7 -->
<g id="node8" class="node">
<title>Node7</title>
<g id="a_node8"><a xlink:href="VectorFixSize_8h.html" target="_top" xlink:title="iDynTree/Core/VectorFixSize.h">
<polygon fill="none" stroke="#000000" points="62.5,-168.5 62.5,-187.5 223.5,-187.5 223.5,-168.5 62.5,-168.5"/>
<text text-anchor="middle" x="143" y="-175.5" font-family="FreeSans.ttf" font-size="10.00" fill="#000000">iDynTree/Core/VectorFixSize.h</text>
</a>
</g>
</g>
<!-- Node6&#45;&gt;Node7 -->
<g id="edge7" class="edge">
<title>Node6&#45;&gt;Node7</title>
<path fill="none" stroke="#191970" d="M501.2274,-224.4369C424.9641,-214.5509 306.1189,-199.145 226.4669,-188.8198"/>
<polygon fill="#191970" stroke="#191970" points="226.8353,-185.3383 216.4683,-187.5237 225.9354,-192.2803 226.8353,-185.3383"/>
</g>
<!-- Node7&#45;&gt;Node2 -->
<g id="edge21" class="edge">
<title>Node7&#45;&gt;Node2</title>
<path fill="none" stroke="#191970" d="M223.9689,-168.8915C337.8002,-156.0768 533.1265,-134.049 549,-132 561.0404,-130.4458 574.2374,-128.5745 585.8367,-126.8731"/>
<polygon fill="#191970" stroke="#191970" points="586.5822,-130.3009 595.9609,-125.3723 585.5558,-123.3766 586.5822,-130.3009"/>
</g>
<!-- Node8 -->
<g id="node9" class="node">
<title>Node8</title>
<g id="a_node9"><a xlink:href="Utils_8h.html" target="_top" xlink:title="iDynTree/Core/Utils.h">
<polygon fill="none" stroke="#000000" points="508.5,-56.5 508.5,-75.5 627.5,-75.5 627.5,-56.5 508.5,-56.5"/>
<text text-anchor="middle" x="568" y="-63.5" font-family="FreeSans.ttf" font-size="10.00" fill="#000000">iDynTree/Core/Utils.h</text>
</a>
</g>
</g>
<!-- Node7&#45;&gt;Node8 -->
<g id="edge8" class="edge">
<title>Node7&#45;&gt;Node8</title>
<path fill="none" stroke="#191970" d="M220.5161,-168.4633C292.3846,-159.1137 393.7889,-144.4869 432,-132 450.5161,-125.9492 453.5308,-120.6189 471,-112 493.4488,-100.9243 519.0417,-88.8087 538.3005,-79.7929"/>
<polygon fill="#191970" stroke="#191970" points="539.8943,-82.9115 547.4738,-75.5086 536.9321,-76.5691 539.8943,-82.9115"/>
</g>
<!-- Node11 -->
<g id="node12" class="node">
<title>Node11</title>
<g id="a_node12"><a xlink:href="Span_8h.html" target="_top" xlink:title="iDynTree/Core/Span.h">
<polygon fill="none" stroke="#000000" points="299.5,-56.5 299.5,-75.5 420.5,-75.5 420.5,-56.5 299.5,-56.5"/>
<text text-anchor="middle" x="360" y="-63.5" font-family="FreeSans.ttf" font-size="10.00" fill="#000000">iDynTree/Core/Span.h</text>
</a>
</g>
</g>
<!-- Node7&#45;&gt;Node11 -->
<g id="edge11" class="edge">
<title>Node7&#45;&gt;Node11</title>
<path fill="none" stroke="#191970" d="M123.113,-168.3499C99.5573,-155.6579 65.5776,-132.5543 83,-112 96.2544,-96.363 211.6675,-81.4164 289.2762,-73.0033"/>
<polygon fill="#191970" stroke="#191970" points="289.9176,-76.4547 299.4883,-71.9101 289.1725,-69.4944 289.9176,-76.4547"/>
</g>
<!-- Node12 -->
<g id="node13" class="node">
<title>Node12</title>
<polygon fill="none" stroke="#bfbfbf" points="0,-.5 0,-19.5 52,-19.5 52,-.5 0,-.5"/>
<text text-anchor="middle" x="26" y="-7.5" font-family="FreeSans.ttf" font-size="10.00" fill="#000000">cassert</text>
</g>
<!-- Node7&#45;&gt;Node12 -->
<g id="edge23" class="edge">
<title>Node7&#45;&gt;Node12</title>
<path fill="none" stroke="#191970" d="M122.7431,-168.4617C107.7937,-160.5305 87.8893,-147.9724 75,-132 49.9024,-100.8991 36.2143,-55.2716 30.0689,-29.5367"/>
<polygon fill="#191970" stroke="#191970" points="33.4282,-28.5212 27.8237,-19.5301 26.598,-30.0538 33.4282,-28.5212"/>
</g>
<!-- Node20 -->
<g id="node21" class="node">
<title>Node20</title>
<polygon fill="none" stroke="#bfbfbf" points="160,-112.5 160,-131.5 216,-131.5 216,-112.5 160,-112.5"/>
<text text-anchor="middle" x="188" y="-119.5" font-family="FreeSans.ttf" font-size="10.00" fill="#000000">sstream</text>
</g>
<!-- Node7&#45;&gt;Node20 -->
<g id="edge22" class="edge">
<title>Node7&#45;&gt;Node20</title>
<path fill="none" stroke="#191970" d="M150.8384,-168.2455C157.162,-160.3761 166.2224,-149.101 173.8136,-139.6542"/>
<polygon fill="#191970" stroke="#191970" points="176.7158,-141.6302 180.2514,-131.6427 171.2592,-137.2454 176.7158,-141.6302"/>
</g>
<!-- Node21 -->
<g id="node22" class="node">
<title>Node21</title>
<polygon fill="none" stroke="#bfbfbf" points="92,-112.5 92,-131.5 142,-131.5 142,-112.5 92,-112.5"/>
<text text-anchor="middle" x="117" y="-119.5" font-family="FreeSans.ttf" font-size="10.00" fill="#000000">cstring</text>
</g>
<!-- Node7&#45;&gt;Node21 -->
<g id="edge24" class="edge">
<title>Node7&#45;&gt;Node21</title>
<path fill="none" stroke="#191970" d="M138.4711,-168.2455C134.9666,-160.6973 130.0073,-150.0158 125.7377,-140.8197"/>
<polygon fill="#191970" stroke="#191970" points="128.8627,-139.2389 121.477,-131.6427 122.5136,-142.1867 128.8627,-139.2389"/>
</g>
<!-- Node9 -->
<g id="node10" class="node">
<title>Node9</title>
<polygon fill="none" stroke="#bfbfbf" points="580.5,-.5 580.5,-19.5 633.5,-19.5 633.5,-.5 580.5,-.5"/>
<text text-anchor="middle" x="607" y="-7.5" font-family="FreeSans.ttf" font-size="10.00" fill="#000000">cstddef</text>
</g>
<!-- Node8&#45;&gt;Node9 -->
<g id="edge9" class="edge">
<title>Node8&#45;&gt;Node9</title>
<path fill="none" stroke="#191970" d="M574.7933,-56.2455C580.2178,-48.4564 587.9661,-37.3308 594.5033,-27.9439"/>
<polygon fill="#191970" stroke="#191970" points="597.4417,-29.849 600.2846,-19.6427 591.6975,-25.8485 597.4417,-29.849"/>
</g>
<!-- Node10 -->
<g id="node11" class="node">
<title>Node10</title>
<polygon fill="none" stroke="#bfbfbf" points="652,-.5 652,-19.5 732,-19.5 732,-.5 652,-.5"/>
<text text-anchor="middle" x="692" y="-7.5" font-family="FreeSans.ttf" font-size="10.00" fill="#000000">CoreExport.h</text>
</g>
<!-- Node8&#45;&gt;Node10 -->
<g id="edge10" class="edge">
<title>Node8&#45;&gt;Node10</title>
<path fill="none" stroke="#191970" d="M589.3164,-56.3733C609.2216,-47.3838 639.1436,-33.8706 661.56,-23.7471"/>
<polygon fill="#191970" stroke="#191970" points="663.2887,-26.8068 670.9618,-19.5011 660.4075,-20.4272 663.2887,-26.8068"/>
</g>
<!-- Node11&#45;&gt;Node9 -->
<g id="edge15" class="edge">
<title>Node11&#45;&gt;Node9</title>
<path fill="none" stroke="#191970" d="M407.5242,-56.4366C448.2275,-48.0662 508.6192,-35.2233 570.3856,-20.0496"/>
<polygon fill="#191970" stroke="#191970" points="571.4411,-23.3941 580.3078,-17.5946 569.7598,-16.599 571.4411,-23.3941"/>
</g>
<!-- Node11&#45;&gt;Node12 -->
<g id="edge12" class="edge">
<title>Node11&#45;&gt;Node12</title>
<path fill="none" stroke="#191970" d="M299.4444,-57.6022C229.9516,-47.8135 119.198,-31.7139 62.2653,-20.022"/>
<polygon fill="#191970" stroke="#191970" points="62.7933,-16.556 52.2832,-17.8927 61.333,-23.4019 62.7933,-16.556"/>
</g>
<!-- Node13 -->
<g id="node14" class="node">
<title>Node13</title>
<polygon fill="none" stroke="#bfbfbf" points="217,-.5 217,-19.5 281,-19.5 281,-.5 217,-.5"/>
<text text-anchor="middle" x="249" y="-7.5" font-family="FreeSans.ttf" font-size="10.00" fill="#000000">algorithm</text>
</g>
<!-- Node11&#45;&gt;Node13 -->
<g id="edge13" class="edge">
<title>Node11&#45;&gt;Node13</title>
<path fill="none" stroke="#191970" d="M340.9184,-56.3733C323.2598,-47.4644 296.7947,-34.1127 276.7902,-24.0203"/>
<polygon fill="#191970" stroke="#191970" points="278.3372,-20.8806 267.8326,-19.5011 275.1842,-27.1303 278.3372,-20.8806"/>
</g>
<!-- Node14 -->
<g id="node15" class="node">
<title>Node14</title>
<polygon fill="none" stroke="#bfbfbf" points="299,-.5 299,-19.5 341,-19.5 341,-.5 299,-.5"/>
<text text-anchor="middle" x="320" y="-7.5" font-family="FreeSans.ttf" font-size="10.00" fill="#000000">array</text>
</g>
<!-- Node11&#45;&gt;Node14 -->
<g id="edge14" class="edge">
<title>Node11&#45;&gt;Node14</title>
<path fill="none" stroke="#191970" d="M353.0325,-56.2455C347.4689,-48.4564 339.522,-37.3308 332.8171,-27.9439"/>
<polygon fill="#191970" stroke="#191970" points="335.5481,-25.7457 326.8876,-19.6427 329.852,-29.8144 335.5481,-25.7457"/>
</g>
<!-- Node15 -->
<g id="node16" class="node">
<title>Node15</title>
<polygon fill="none" stroke="#bfbfbf" points="359.5,-.5 359.5,-19.5 412.5,-19.5 412.5,-.5 359.5,-.5"/>
<text text-anchor="middle" x="386" y="-7.5" font-family="FreeSans.ttf" font-size="10.00" fill="#000000">iterator</text>
</g>
<!-- Node11&#45;&gt;Node15 -->
<g id="edge16" class="edge">
<title>Node11&#45;&gt;Node15</title>
<path fill="none" stroke="#191970" d="M364.5289,-56.2455C368.0334,-48.6973 372.9927,-38.0158 377.2623,-28.8197"/>
<polygon fill="#191970" stroke="#191970" points="380.4864,-30.1867 381.523,-19.6427 374.1373,-27.2389 380.4864,-30.1867"/>
</g>
<!-- Node16 -->
<g id="node17" class="node">
<title>Node16</title>
<polygon fill="none" stroke="#bfbfbf" points="431,-.5 431,-19.5 475,-19.5 475,-.5 431,-.5"/>
<text text-anchor="middle" x="453" y="-7.5" font-family="FreeSans.ttf" font-size="10.00" fill="#000000">limits</text>
</g>
<!-- Node11&#45;&gt;Node16 -->
<g id="edge17" class="edge">
<title>Node11&#45;&gt;Node16</title>
<path fill="none" stroke="#191970" d="M376.1994,-56.2455C390.6018,-47.5731 411.8732,-34.7645 428.3799,-24.825"/>
<polygon fill="#191970" stroke="#191970" points="430.225,-27.7996 436.9863,-19.6427 426.614,-21.8028 430.225,-27.7996"/>
</g>
<!-- Node17 -->
<g id="node18" class="node">
<title>Node17</title>
<polygon fill="none" stroke="#bfbfbf" points="70.5,-.5 70.5,-19.5 135.5,-19.5 135.5,-.5 70.5,-.5"/>
<text text-anchor="middle" x="103" y="-7.5" font-family="FreeSans.ttf" font-size="10.00" fill="#000000">stdexcept</text>
</g>
<!-- Node11&#45;&gt;Node17 -->
<g id="edge18" class="edge">
<title>Node11&#45;&gt;Node17</title>
<path fill="none" stroke="#191970" d="M313.1428,-56.4355C271.5566,-47.8537 208.8891,-34.6953 145.7821,-20.3653"/>
<polygon fill="#191970" stroke="#191970" points="146.1811,-16.8665 135.6532,-18.0559 144.6249,-23.6913 146.1811,-16.8665"/>
</g>
<!-- Node18 -->
<g id="node19" class="node">
<title>Node18</title>
<polygon fill="none" stroke="#bfbfbf" points="493.5,-.5 493.5,-19.5 562.5,-19.5 562.5,-.5 493.5,-.5"/>
<text text-anchor="middle" x="528" y="-7.5" font-family="FreeSans.ttf" font-size="10.00" fill="#000000">type_traits</text>
</g>
<!-- Node11&#45;&gt;Node18 -->
<g id="edge19" class="edge">
<title>Node11&#45;&gt;Node18</title>
<path fill="none" stroke="#191970" d="M388.8802,-56.3733C416.8161,-47.0613 459.3142,-32.8953 489.9869,-22.671"/>
<polygon fill="#191970" stroke="#191970" points="491.1166,-25.9839 499.4966,-19.5011 488.903,-19.3431 491.1166,-25.9839"/>
</g>
<!-- Node19 -->
<g id="node20" class="node">
<title>Node19</title>
<polygon fill="none" stroke="#bfbfbf" points="153.5,-.5 153.5,-19.5 198.5,-19.5 198.5,-.5 153.5,-.5"/>
<text text-anchor="middle" x="176" y="-7.5" font-family="FreeSans.ttf" font-size="10.00" fill="#000000">utility</text>
</g>
<!-- Node11&#45;&gt;Node19 -->
<g id="edge20" class="edge">
<title>Node11&#45;&gt;Node19</title>
<path fill="none" stroke="#191970" d="M328.2422,-56.4799C299.4568,-47.8308 255.6173,-34.6089 208.4991,-20.1352"/>
<polygon fill="#191970" stroke="#191970" points="209.3048,-16.7213 198.7178,-17.127 207.2471,-23.412 209.3048,-16.7213"/>
</g>
<!-- Node22&#45;&gt;Node2 -->
<g id="edge27" class="edge">
<title>Node22&#45;&gt;Node2</title>
<path fill="none" stroke="#191970" d="M403.8549,-280.4862C441.3022,-252.772 550.5708,-171.9036 596.873,-137.6358"/>
<polygon fill="#191970" stroke="#191970" points="599.0487,-140.3799 605.0047,-131.6177 594.8845,-134.7532 599.0487,-140.3799"/>
</g>
<!-- Node22&#45;&gt;Node7 -->
<g id="edge44" class="edge">
<title>Node22&#45;&gt;Node7</title>
<path fill="none" stroke="#191970" d="M364.6916,-280.4483C340.7893,-271.5839 304.6819,-257.7255 274,-244 237.3542,-227.6065 196.1664,-206.3762 169.926,-192.4822"/>
<polygon fill="#191970" stroke="#191970" points="171.4431,-189.3249 160.9709,-187.7178 168.1553,-195.5047 171.4431,-189.3249"/>
</g>
<!-- Node23 -->
<g id="node24" class="node">
<title>Node23</title>
<g id="a_node24"><a xlink:href="GeomVector3_8h.html" target="_top" xlink:title="iDynTree/Core/GeomVector3.h">
<polygon fill="none" stroke="#000000" points="25.5,-224.5 25.5,-243.5 188.5,-243.5 188.5,-224.5 25.5,-224.5"/>
<text text-anchor="middle" x="107" y="-231.5" font-family="FreeSans.ttf" font-size="10.00" fill="#000000">iDynTree/Core/GeomVector3.h</text>
</a>
</g>
</g>
<!-- Node22&#45;&gt;Node23 -->
<g id="edge28" class="edge">
<title>Node22&#45;&gt;Node23</title>
<path fill="none" stroke="#191970" d="M342.5014,-280.4369C293.4885,-270.7724 217.7223,-255.8326 165.4293,-245.5213"/>
<polygon fill="#191970" stroke="#191970" points="165.7868,-242.0244 155.2986,-243.5237 164.4326,-248.8922 165.7868,-242.0244"/>
</g>
<!-- Node24 -->
<g id="node25" class="node">
<title>Node24</title>
<g id="a_node25"><a xlink:href="RotationRaw_8h.html" target="_top" xlink:title="iDynTree/Core/RotationRaw.h">
<polygon fill="none" stroke="#000000" points="283,-224.5 283,-243.5 441,-243.5 441,-224.5 283,-224.5"/>
<text text-anchor="middle" x="362" y="-231.5" font-family="FreeSans.ttf" font-size="10.00" fill="#000000">iDynTree/Core/RotationRaw.h</text>
</a>
</g>
</g>
<!-- Node22&#45;&gt;Node24 -->
<g id="edge30" class="edge">
<title>Node22&#45;&gt;Node24</title>
<path fill="none" stroke="#191970" d="M385.9486,-280.2455C381.9981,-272.617 376.3903,-261.7881 371.5942,-252.5267"/>
<polygon fill="#191970" stroke="#191970" points="374.7001,-250.9131 366.9935,-243.6427 368.4841,-254.1321 374.7001,-250.9131"/>
</g>
<!-- Node23&#45;&gt;Node7 -->
<g id="edge29" class="edge">
<title>Node23&#45;&gt;Node7</title>
<path fill="none" stroke="#191970" d="M113.2707,-224.2455C118.2264,-216.5367 125.283,-205.5598 131.2776,-196.2348"/>
<polygon fill="#191970" stroke="#191970" points="134.3376,-197.9471 136.8011,-187.6427 128.4494,-194.1618 134.3376,-197.9471"/>
</g>
<!-- Node24&#45;&gt;Node2 -->
<g id="edge43" class="edge">
<title>Node24&#45;&gt;Node2</title>
<path fill="none" stroke="#191970" d="M372.9455,-224.3061C389.5678,-210.0527 422.672,-183.4619 455,-168 478.1208,-156.9417 545.3367,-139.6135 585.8727,-129.6823"/>
<polygon fill="#191970" stroke="#191970" points="586.9161,-133.0306 595.8053,-127.2659 585.2614,-126.229 586.9161,-133.0306"/>
</g>
<!-- Node24&#45;&gt;Node25 -->
<g id="edge31" class="edge">
<title>Node24&#45;&gt;Node25</title>
<path fill="none" stroke="#191970" d="M355.0325,-224.2455C349.4689,-216.4564 341.522,-205.3308 334.8171,-195.9439"/>
<polygon fill="#191970" stroke="#191970" points="337.5481,-193.7457 328.8876,-187.6427 331.852,-197.8144 337.5481,-193.7457"/>
</g>
<!-- Node25&#45;&gt;Node2 -->
<g id="edge40" class="edge">
<title>Node25&#45;&gt;Node2</title>
<path fill="none" stroke="#191970" d="M385.6514,-168.4851C438.4996,-160.1677 515.502,-147.0819 582,-132 583.2454,-131.7175 584.5122,-131.4194 585.7897,-131.1096"/>
<polygon fill="#191970" stroke="#191970" points="586.8068,-134.4619 595.6158,-128.5753 585.0585,-127.6837 586.8068,-134.4619"/>
</g>
<!-- Node25&#45;&gt;Node8 -->
<g id="edge32" class="edge">
<title>Node25&#45;&gt;Node8</title>
<path fill="none" stroke="#191970" d="M386.2092,-168.4612C449.037,-158.5787 537.0128,-143.0606 549,-132 561.7094,-120.273 566.1165,-100.6504 567.5491,-85.8422"/>
<polygon fill="#191970" stroke="#191970" points="571.0543,-85.857 568.153,-75.6672 564.0666,-85.4422 571.0543,-85.857"/>
</g>
<!-- Node25&#45;&gt;Node12 -->
<g id="edge38" class="edge">
<title>Node25&#45;&gt;Node12</title>
<path fill="none" stroke="#191970" d="M308.847,-168.2798C290.506,-154.906 256.0049,-130.3983 225,-112 166.8286,-77.481 95.6596,-42.701 56.1316,-24.0052"/>
<polygon fill="#191970" stroke="#191970" points="57.3294,-20.7007 46.791,-19.6085 54.3481,-27.0341 57.3294,-20.7007"/>
</g>
<!-- Node25&#45;&gt;Node20 -->
<g id="edge42" class="edge">
<title>Node25&#45;&gt;Node20</title>
<path fill="none" stroke="#191970" d="M298.9646,-168.3733C277.2612,-159.3032 244.5382,-145.6279 220.245,-135.4755"/>
<polygon fill="#191970" stroke="#191970" points="221.3111,-132.1278 210.7348,-131.5011 218.6119,-138.5865 221.3111,-132.1278"/>
</g>
<!-- Node25&#45;&gt;Node21 -->
<g id="edge39" class="edge">
<title>Node25&#45;&gt;Node21</title>
<path fill="none" stroke="#191970" d="M285.5724,-168.4634C252.9383,-159.8615 203.528,-146.6946 151.8954,-132.2111"/>
<polygon fill="#191970" stroke="#191970" points="152.8064,-128.8315 142.2322,-129.4921 150.9104,-135.5699 152.8064,-128.8315"/>
</g>
<!-- Node26 -->
<g id="node27" class="node">
<title>Node26</title>
<g id="a_node27"><a xlink:href="MatrixView_8h.html" target="_top" xlink:title="iDynTree/Core/MatrixView.h">
<polygon fill="none" stroke="#000000" points="272.5,-112.5 272.5,-131.5 423.5,-131.5 423.5,-112.5 272.5,-112.5"/>
<text text-anchor="middle" x="348" y="-119.5" font-family="FreeSans.ttf" font-size="10.00" fill="#000000">iDynTree/Core/MatrixView.h</text>
</a>
</g>
</g>
<!-- Node25&#45;&gt;Node26 -->
<g id="edge33" class="edge">
<title>Node25&#45;&gt;Node26</title>
<path fill="none" stroke="#191970" d="M326.5289,-168.2455C330.0334,-160.6973 334.9927,-150.0158 339.2623,-140.8197"/>
<polygon fill="#191970" stroke="#191970" points="342.4864,-142.1867 343.523,-131.6427 336.1373,-139.2389 342.4864,-142.1867"/>
</g>
<!-- Node27 -->
<g id="node28" class="node">
<title>Node27</title>
<polygon fill="none" stroke="#bfbfbf" points="480,-112.5 480,-131.5 540,-131.5 540,-112.5 480,-112.5"/>
<text text-anchor="middle" x="510" y="-119.5" font-family="FreeSans.ttf" font-size="10.00" fill="#000000">iostream</text>
</g>
<!-- Node25&#45;&gt;Node27 -->
<g id="edge41" class="edge">
<title>Node25&#45;&gt;Node27</title>
<path fill="none" stroke="#191970" d="M354.3184,-168.3733C386.4239,-158.8099 435.717,-144.1268 470.212,-133.8517"/>
<polygon fill="#191970" stroke="#191970" points="471.3793,-137.1561 479.9639,-130.9469 469.3809,-130.4474 471.3793,-137.1561"/>
</g>
<!-- Node26&#45;&gt;Node8 -->
<g id="edge37" class="edge">
<title>Node26&#45;&gt;Node8</title>
<path fill="none" stroke="#191970" d="M385.8193,-112.3733C423.1938,-102.8598 480.4724,-88.2797 520.8071,-78.0127"/>
<polygon fill="#191970" stroke="#191970" points="521.8466,-81.3598 530.6742,-75.5011 520.1198,-74.5761 521.8466,-81.3598"/>
</g>
<!-- Node26&#45;&gt;Node11 -->
<g id="edge36" class="edge">
<title>Node26&#45;&gt;Node11</title>
<path fill="none" stroke="#191970" d="M350.0902,-112.2455C351.6561,-104.9382 353.8512,-94.6944 355.7776,-85.7046"/>
<polygon fill="#191970" stroke="#191970" points="359.2607,-86.1541 357.9337,-75.6427 352.416,-84.6873 359.2607,-86.1541"/>
</g>
<!-- Node26&#45;&gt;Node12 -->
<g id="edge34" class="edge">
<title>Node26&#45;&gt;Node12</title>
<path fill="none" stroke="#191970" d="M336.712,-112.4723C318.8723,-97.9363 282.5263,-70.3959 247,-56 171.8586,-25.5514 144.8981,-38.5203 62.1323,-20.061"/>
<polygon fill="#191970" stroke="#191970" points="62.8407,-16.6325 52.3084,-17.7825 61.259,-23.4515 62.8407,-16.6325"/>
</g>
<!-- Node26&#45;&gt;Node18 -->
<g id="edge35" class="edge">
<title>Node26&#45;&gt;Node18</title>
<path fill="none" stroke="#191970" d="M365.591,-112.4849C382.1419,-103.4211 407.5219,-89.2347 429,-76 455.8409,-59.4608 485.8661,-39.1833 505.7383,-25.5038"/>
<polygon fill="#191970" stroke="#191970" points="507.8701,-28.2851 514.1064,-19.72 503.8901,-22.5266 507.8701,-28.2851"/>
</g>
<!-- Node28&#45;&gt;Node2 -->
<g id="edge50" class="edge">
<title>Node28&#45;&gt;Node2</title>
<path fill="none" stroke="#191970" d="M794.3173,-392.3152C782.0085,-373.5029 757,-330.3199 757,-290 757,-290 757,-290 757,-234 757,-179.173 690.6173,-146.636 649.6017,-131.7652"/>
<polygon fill="#191970" stroke="#191970" points="650.6198,-128.4138 640.025,-128.4445 648.3264,-135.0275 650.6198,-128.4138"/>
</g>
<!-- Node29 -->
<g id="node30" class="node">
<title>Node29</title>
<polygon fill="none" stroke="#bfbfbf" points="785,-336.5 785,-355.5 871,-355.5 871,-336.5 785,-336.5"/>
<text text-anchor="middle" x="828" y="-343.5" font-family="FreeSans.ttf" font-size="10.00" fill="#000000">ModelExport.h</text>
</g>
<!-- Node28&#45;&gt;Node29 -->
<g id="edge51" class="edge">
<title>Node28&#45;&gt;Node29</title>
<path fill="none" stroke="#191970" d="M805.703,-392.2455C809.3424,-384.6973 814.4924,-374.0158 818.9262,-364.8197"/>
<polygon fill="#191970" stroke="#191970" points="822.1605,-366.1704 823.3509,-355.6427 815.8551,-363.1303 822.1605,-366.1704"/>
</g>
</g>
</svg>
