<?xml version="1.0" encoding="UTF-8" standalone="no"?>
<!DOCTYPE svg PUBLIC "-//W3C//DTD SVG 1.1//EN"
 "http://www.w3.org/Graphics/SVG/1.1/DTD/svg11.dtd">
<!-- Generated by graphviz version 2.40.1 (20161225.0304)
 -->
<!-- Title: Span.h Pages: 1 -->
<svg width="3982pt" height="375pt"
 viewBox="0.00 0.00 3982.44 375.00" xmlns="http://www.w3.org/2000/svg" xmlns:xlink="http://www.w3.org/1999/xlink">
<g id="graph0" class="graph" transform="scale(1 1) rotate(0) translate(4 371)">
<title>Span.h</title>
<!-- Node10 -->
<g id="node1" class="node">
<title>Node10</title>
<polygon fill="#bfbfbf" stroke="#000000" points="1025.5769,-347.5 1025.5769,-366.5 1075.5769,-366.5 1075.5769,-347.5 1025.5769,-347.5"/>
<text text-anchor="middle" x="1050.5769" y="-354.5" font-family="FreeSans.ttf" font-size="10.00" fill="#000000">Span.h</text>
</g>
<!-- Node11 -->
<g id="node2" class="node">
<title>Node11</title>
<g id="a_node2"><a xlink:href="MatrixView_8h.html" target="_top" xlink:title="MatrixView.h">
<polygon fill="none" stroke="#000000" points="1010.5769,-291.5 1010.5769,-310.5 1090.5769,-310.5 1090.5769,-291.5 1010.5769,-291.5"/>
<text text-anchor="middle" x="1050.5769" y="-298.5" font-family="FreeSans.ttf" font-size="10.00" fill="#000000">MatrixView.h</text>
</a>
</g>
</g>
<!-- Node10&#45;&gt;Node11 -->
<g id="edge1" class="edge">
<title>Node10&#45;&gt;Node11</title>
<path fill="none" stroke="#191970" d="M1050.5769,-337.1575C1050.5769,-328.155 1050.5769,-317.9199 1050.5769,-310.6427"/>
<polygon fill="#191970" stroke="#191970" points="1047.077,-337.2455 1050.5769,-347.2455 1054.077,-337.2456 1047.077,-337.2455"/>
</g>
<!-- Node66 -->
<g id="node13" class="node">
<title>Node66</title>
<g id="a_node13"><a xlink:href="L2NormCost_8cpp.html" target="_top" xlink:title="L2NormCost.cpp">
<polygon fill="none" stroke="#000000" points="2273.0769,-118 2273.0769,-137 2370.0769,-137 2370.0769,-118 2273.0769,-118"/>
<text text-anchor="middle" x="2321.5769" y="-125" font-family="FreeSans.ttf" font-size="10.00" fill="#000000">L2NormCost.cpp</text>
</a>
</g>
</g>
<!-- Node10&#45;&gt;Node66 -->
<g id="edge120" class="edge">
<title>Node10&#45;&gt;Node66</title>
<path fill="none" stroke="#191970" d="M1085.9247,-355.8982C1367.5476,-346.9546 3238.9177,-284.4017 3318.5769,-199 3324.6399,-192.4999 3324.698,-185.4455 3318.5769,-179 3285.5868,-144.2619 2565.7289,-131.1112 2370.208,-128.1728"/>
<polygon fill="#191970" stroke="#191970" points="1085.741,-352.4022 1075.8566,-356.2165 1085.9623,-359.3987 1085.741,-352.4022"/>
</g>
<!-- Node103 -->
<g id="node22" class="node">
<title>Node103</title>
<g id="a_node22"><a xlink:href="KinDynComputations_8h.html" target="_top" xlink:title="KinDynComputations.h">
<polygon fill="none" stroke="#ff0000" points="21.0769,-179.5 21.0769,-198.5 150.0769,-198.5 150.0769,-179.5 21.0769,-179.5"/>
<text text-anchor="middle" x="85.5769" y="-186.5" font-family="FreeSans.ttf" font-size="10.00" fill="#000000">KinDynComputations.h</text>
</a>
</g>
</g>
<!-- Node10&#45;&gt;Node103 -->
<g id="edge119" class="edge">
<title>Node10&#45;&gt;Node103</title>
<path fill="none" stroke="#191970" d="M1015.4496,-354.4194C907.0398,-345.9965 568.5066,-316.2545 294.5769,-255 226.9933,-239.8874 149.8698,-212.9045 110.9299,-198.5678"/>
<polygon fill="#191970" stroke="#191970" points="1015.2648,-357.9154 1025.5032,-355.1903 1015.8001,-350.9359 1015.2648,-357.9154"/>
</g>
<!-- Node262 -->
<g id="node35" class="node">
<title>Node262</title>
<g id="a_node35"><a xlink:href="VectorDynSize_8h.html" target="_top" xlink:title="VectorDynSize.h">
<polygon fill="none" stroke="#000000" points="2101.5769,-235.5 2101.5769,-254.5 2197.5769,-254.5 2197.5769,-235.5 2101.5769,-235.5"/>
<text text-anchor="middle" x="2149.5769" y="-242.5" font-family="FreeSans.ttf" font-size="10.00" fill="#000000">VectorDynSize.h</text>
</a>
</g>
</g>
<!-- Node10&#45;&gt;Node262 -->
<g id="edge54" class="edge">
<title>Node10&#45;&gt;Node262</title>
<path fill="none" stroke="#191970" d="M1085.9168,-353.3985C1247.4612,-336.9354 1915.714,-268.8332 2101.4757,-249.902"/>
<polygon fill="#191970" stroke="#191970" points="1085.1895,-349.9544 1075.5959,-354.4503 1085.8993,-356.9183 1085.1895,-349.9544"/>
</g>
<!-- Node276 -->
<g id="node50" class="node">
<title>Node276</title>
<g id="a_node50"><a xlink:href="VectorFixSize_8h.html" target="_top" xlink:title="VectorFixSize.h">
<polygon fill="none" stroke="#ff0000" points="425.5769,-235.5 425.5769,-254.5 515.5769,-254.5 515.5769,-235.5 425.5769,-235.5"/>
<text text-anchor="middle" x="470.5769" y="-242.5" font-family="FreeSans.ttf" font-size="10.00" fill="#000000">VectorFixSize.h</text>
</a>
</g>
</g>
<!-- Node10&#45;&gt;Node276 -->
<g id="edge109" class="edge">
<title>Node10&#45;&gt;Node276</title>
<path fill="none" stroke="#191970" d="M1015.3479,-350.1972C915.0122,-330.822 627.7886,-275.3581 515.9332,-253.7585"/>
<polygon fill="#191970" stroke="#191970" points="1014.7998,-353.6559 1025.2821,-352.1155 1016.1271,-346.7829 1014.7998,-353.6559"/>
</g>
<!-- Node12 -->
<g id="node3" class="node">
<title>Node12</title>
<g id="a_node3"><a xlink:href="MatrixDynSize_8h.html" target="_top" xlink:title="MatrixDynSize.h">
<polygon fill="none" stroke="#ff0000" points="1002.5769,-235.5 1002.5769,-254.5 1098.5769,-254.5 1098.5769,-235.5 1002.5769,-235.5"/>
<text text-anchor="middle" x="1050.5769" y="-242.5" font-family="FreeSans.ttf" font-size="10.00" fill="#000000">MatrixDynSize.h</text>
</a>
</g>
</g>
<!-- Node11&#45;&gt;Node12 -->
<g id="edge2" class="edge">
<title>Node11&#45;&gt;Node12</title>
<path fill="none" stroke="#191970" d="M1050.5769,-281.1575C1050.5769,-272.155 1050.5769,-261.9199 1050.5769,-254.6427"/>
<polygon fill="#191970" stroke="#191970" points="1047.077,-281.2455 1050.5769,-291.2455 1054.077,-281.2456 1047.077,-281.2455"/>
</g>
<!-- Node11&#45;&gt;Node103 -->
<g id="edge53" class="edge">
<title>Node11&#45;&gt;Node103</title>
<path fill="none" stroke="#191970" d="M1000.1013,-299.4701C892.4433,-295.7397 632.4823,-284.2424 416.5769,-255 310.3155,-240.6079 186.8332,-213.0659 125.0502,-198.5286"/>
<polygon fill="#191970" stroke="#191970" points="1000.2294,-302.9764 1010.3423,-299.8173 1000.4667,-295.9804 1000.2294,-302.9764"/>
</g>
<!-- Node145 -->
<g id="node34" class="node">
<title>Node145</title>
<g id="a_node34"><a xlink:href="MatrixFixSize_8h.html" target="_top" xlink:title="MatrixFixSize.h">
<polygon fill="none" stroke="#ff0000" points="1343.5769,-235.5 1343.5769,-254.5 1433.5769,-254.5 1433.5769,-235.5 1343.5769,-235.5"/>
<text text-anchor="middle" x="1388.5769" y="-242.5" font-family="FreeSans.ttf" font-size="10.00" fill="#000000">MatrixFixSize.h</text>
</a>
</g>
</g>
<!-- Node11&#45;&gt;Node145 -->
<g id="edge51" class="edge">
<title>Node11&#45;&gt;Node145</title>
<path fill="none" stroke="#191970" d="M1100.7799,-292.6823C1166.4092,-281.8088 1280.3975,-262.9232 1343.4268,-252.4805"/>
<polygon fill="#191970" stroke="#191970" points="1099.9706,-289.2686 1090.6772,-294.3562 1101.1149,-296.1745 1099.9706,-289.2686"/>
</g>
<!-- Node13 -->
<g id="node4" class="node">
<title>Node13</title>
<g id="a_node4"><a xlink:href="EigenHelpers_8h.html" target="_top" xlink:title="EigenHelpers.h">
<polygon fill="none" stroke="#ff0000" points="1570.5769,-179.5 1570.5769,-198.5 1660.5769,-198.5 1660.5769,-179.5 1570.5769,-179.5"/>
<text text-anchor="middle" x="1615.5769" y="-186.5" font-family="FreeSans.ttf" font-size="10.00" fill="#000000">EigenHelpers.h</text>
</a>
</g>
</g>
<!-- Node12&#45;&gt;Node13 -->
<g id="edge3" class="edge">
<title>Node12&#45;&gt;Node13</title>
<path fill="none" stroke="#191970" d="M1108.9353,-239.2158C1221.9643,-228.0129 1468.5532,-203.5723 1570.2919,-193.4884"/>
<polygon fill="#191970" stroke="#191970" points="1108.3545,-235.7561 1098.7485,-240.2255 1109.045,-242.722 1108.3545,-235.7561"/>
</g>
<!-- Node39 -->
<g id="node5" class="node">
<title>Node39</title>
<g id="a_node5"><a xlink:href="KalmanFilter_8h.html" target="_top" xlink:title="KalmanFilter.h">
<polygon fill="none" stroke="#ff0000" points="1062.5769,-118 1062.5769,-137 1148.5769,-137 1148.5769,-118 1062.5769,-118"/>
<text text-anchor="middle" x="1105.5769" y="-125" font-family="FreeSans.ttf" font-size="10.00" fill="#000000">KalmanFilter.h</text>
</a>
</g>
</g>
<!-- Node12&#45;&gt;Node39 -->
<g id="edge22" class="edge">
<title>Node12&#45;&gt;Node39</title>
<path fill="none" stroke="#191970" d="M992.1033,-243.7717C875.909,-240.287 630.749,-227.1883 674.5769,-179 731.5004,-116.4133 970.5333,-159.1602 1053.5769,-143 1061.3442,-141.4885 1069.6129,-139.3001 1077.2176,-137.0417"/>
<polygon fill="#191970" stroke="#191970" points="992.1642,-247.2747 1002.26,-244.0616 992.364,-240.2776 992.1642,-247.2747"/>
</g>
<!-- Node47 -->
<g id="node7" class="node">
<title>Node47</title>
<g id="a_node7"><a xlink:href="KinDynComputations_8cpp.html" target="_top" xlink:title="KinDynComputations.cpp">
<polygon fill="none" stroke="#000000" points="492.5769,-56.5 492.5769,-75.5 632.5769,-75.5 632.5769,-56.5 492.5769,-56.5"/>
<text text-anchor="middle" x="562.5769" y="-63.5" font-family="FreeSans.ttf" font-size="10.00" fill="#000000">KinDynComputations.cpp</text>
</a>
</g>
</g>
<!-- Node12&#45;&gt;Node47 -->
<g id="edge27" class="edge">
<title>Node12&#45;&gt;Node47</title>
<path fill="none" stroke="#191970" d="M992.1561,-243.7087C815.6059,-239.5244 298.156,-225.0773 273.5769,-199 203.3983,-124.5438 386.12,-88.2008 492.4768,-73.7996"/>
<polygon fill="#191970" stroke="#191970" points="992.2151,-247.211 1002.2945,-243.9466 992.3793,-240.2129 992.2151,-247.211"/>
</g>
<!-- Node59 -->
<g id="node9" class="node">
<title>Node59</title>
<g id="a_node9"><a xlink:href="AlglibInterface_8cpp.html" target="_top" xlink:title="AlglibInterface.cpp">
<polygon fill="none" stroke="#000000" points="1290.5769,-118 1290.5769,-137 1398.5769,-137 1398.5769,-118 1290.5769,-118"/>
<text text-anchor="middle" x="1344.5769" y="-125" font-family="FreeSans.ttf" font-size="10.00" fill="#000000">AlglibInterface.cpp</text>
</a>
</g>
</g>
<!-- Node12&#45;&gt;Node59 -->
<g id="edge44" class="edge">
<title>Node12&#45;&gt;Node59</title>
<path fill="none" stroke="#191970" d="M992.2417,-239.779C938.8207,-233.6465 865.4272,-221.3478 847.5769,-199 842.0293,-192.0547 841.5569,-185.54 847.5769,-179 880.3475,-143.3985 1233.8226,-150.8046 1281.5769,-143 1290.9145,-141.4739 1300.9073,-139.2805 1310.1199,-137.022"/>
<polygon fill="#191970" stroke="#191970" points="991.9779,-243.271 1002.3015,-240.8889 992.7456,-236.3132 991.9779,-243.271"/>
</g>
<!-- Node60 -->
<g id="node10" class="node">
<title>Node60</title>
<g id="a_node10"><a xlink:href="ConstraintsGroup_8cpp.html" target="_top" xlink:title="ConstraintsGroup.cpp">
<polygon fill="none" stroke="#000000" points="2018.5769,-118 2018.5769,-137 2140.5769,-137 2140.5769,-118 2018.5769,-118"/>
<text text-anchor="middle" x="2079.5769" y="-125" font-family="FreeSans.ttf" font-size="10.00" fill="#000000">ConstraintsGroup.cpp</text>
</a>
</g>
</g>
<!-- Node12&#45;&gt;Node60 -->
<g id="edge45" class="edge">
<title>Node12&#45;&gt;Node60</title>
<path fill="none" stroke="#191970" d="M1108.9682,-243.0551C1285.9807,-236.9807 1809.0575,-217.6521 1883.5769,-199 1904.0233,-193.8823 1907.0034,-186.8184 1926.5769,-179 1967.8303,-162.5219 2016.6506,-146.7065 2047.8541,-137.0499"/>
<polygon fill="#191970" stroke="#191970" points="1108.6827,-239.5627 1098.808,-243.4022 1108.9217,-246.5587 1108.6827,-239.5627"/>
</g>
<!-- Node65 -->
<g id="node12" class="node">
<title>Node65</title>
<g id="a_node12"><a xlink:href="IpoptInterface_8cpp.html" target="_top" xlink:title="IpoptInterface.cpp">
<polygon fill="none" stroke="#000000" points="1531.0769,-118 1531.0769,-137 1636.0769,-137 1636.0769,-118 1531.0769,-118"/>
<text text-anchor="middle" x="1583.5769" y="-125" font-family="FreeSans.ttf" font-size="10.00" fill="#000000">IpoptInterface.cpp</text>
</a>
</g>
</g>
<!-- Node12&#45;&gt;Node65 -->
<g id="edge46" class="edge">
<title>Node12&#45;&gt;Node65</title>
<path fill="none" stroke="#191970" d="M1050.7062,-224.7912C1051.9657,-209.7858 1056.2969,-190.0766 1069.5769,-179 1073.9889,-175.32 1400.9376,-144.5093 1531.0311,-132.3793"/>
<polygon fill="#191970" stroke="#191970" points="1047.1942,-224.982 1050.2444,-235.1283 1054.1873,-225.2945 1047.1942,-224.982"/>
</g>
<!-- Node12&#45;&gt;Node66 -->
<g id="edge47" class="edge">
<title>Node12&#45;&gt;Node66</title>
<path fill="none" stroke="#191970" d="M1108.8432,-243.1155C1281.7076,-237.3532 1789.8661,-219.1326 1954.5769,-199 2075.2289,-184.2527 2215.7297,-152.8257 2282.4924,-137.0096"/>
<polygon fill="#191970" stroke="#191970" points="1108.5531,-239.6231 1098.6747,-243.4529 1108.7853,-246.6192 1108.5531,-239.6231"/>
</g>
<!-- Node68 -->
<g id="node14" class="node">
<title>Node68</title>
<g id="a_node14"><a xlink:href="LinearSystem_8cpp.html" target="_top" xlink:title="LinearSystem.cpp">
<polygon fill="none" stroke="#000000" points="940.5769,-118 940.5769,-137 1044.5769,-137 1044.5769,-118 940.5769,-118"/>
<text text-anchor="middle" x="992.5769" y="-125" font-family="FreeSans.ttf" font-size="10.00" fill="#000000">LinearSystem.cpp</text>
</a>
</g>
</g>
<!-- Node12&#45;&gt;Node68 -->
<g id="edge48" class="edge">
<title>Node12&#45;&gt;Node68</title>
<path fill="none" stroke="#191970" d="M992.366,-242.2329C890.0867,-236.7704 686.8814,-223.0015 665.5769,-199 659.6761,-192.3522 659.7282,-185.6936 665.5769,-179 704.8256,-134.0816 873.0193,-154.3636 931.5769,-143 940.1583,-141.3347 949.3333,-139.1966 957.8929,-137.0437"/>
<polygon fill="#191970" stroke="#191970" points="992.3656,-245.7376 1002.5353,-242.7664 992.7324,-238.7473 992.3656,-245.7376"/>
</g>
<!-- Node70 -->
<g id="node16" class="node">
<title>Node70</title>
<g id="a_node16"><a xlink:href="OptimalControlProblem_8cpp.html" target="_top" xlink:title="OptimalControlProblem.cpp">
<polygon fill="none" stroke="#000000" points="3071.5769,-56.5 3071.5769,-75.5 3223.5769,-75.5 3223.5769,-56.5 3071.5769,-56.5"/>
<text text-anchor="middle" x="3147.5769" y="-63.5" font-family="FreeSans.ttf" font-size="10.00" fill="#000000">OptimalControlProblem.cpp</text>
</a>
</g>
</g>
<!-- Node12&#45;&gt;Node70 -->
<g id="edge49" class="edge">
<title>Node12&#45;&gt;Node70</title>
<path fill="none" stroke="#191970" d="M1109.0133,-242.6278C1297.5421,-234.8796 1879.7233,-210.1734 1918.5769,-199 1936.1673,-193.9414 1937.351,-185.1872 1954.5769,-179 2037.5201,-149.2085 2063.6266,-162.485 2149.5769,-143 2201.2025,-131.2964 2212.298,-120.3122 2264.5769,-112 2419.0216,-87.4437 2886.9619,-72.8372 3071.5428,-67.8977"/>
<polygon fill="#191970" stroke="#191970" points="1108.5971,-239.1419 1098.749,-243.0489 1108.8841,-246.136 1108.5971,-239.1419"/>
</g>
<!-- Node71 -->
<g id="node17" class="node">
<title>Node71</title>
<g id="a_node17"><a xlink:href="OsqpInterface_8cpp.html" target="_top" xlink:title="OsqpInterface.cpp">
<polygon fill="none" stroke="#000000" points="1167.0769,-118 1167.0769,-137 1272.0769,-137 1272.0769,-118 1167.0769,-118"/>
<text text-anchor="middle" x="1219.5769" y="-125" font-family="FreeSans.ttf" font-size="10.00" fill="#000000">OsqpInterface.cpp</text>
</a>
</g>
</g>
<!-- Node12&#45;&gt;Node71 -->
<g id="edge50" class="edge">
<title>Node12&#45;&gt;Node71</title>
<path fill="none" stroke="#191970" d="M992.1925,-241.3073C899.2011,-234.8247 725.9988,-220.0574 707.5769,-199 701.7241,-192.3099 701.5473,-185.5312 707.5769,-179 741.6016,-142.1446 1108.0772,-151.1104 1157.5769,-143 1166.7742,-141.493 1176.6111,-139.3062 1185.6775,-137.0479"/>
<polygon fill="#191970" stroke="#191970" points="992.0836,-244.808 1002.2999,-242.0013 992.5632,-237.8245 992.0836,-244.808"/>
</g>
<!-- Node95 -->
<g id="node19" class="node">
<title>Node95</title>
<g id="a_node19"><a xlink:href="BerdyHelper_8h.html" target="_top" xlink:title="BerdyHelper.h">
<polygon fill="none" stroke="#ff0000" points="1018.5769,-56.5 1018.5769,-75.5 1104.5769,-75.5 1104.5769,-56.5 1018.5769,-56.5"/>
<text text-anchor="middle" x="1061.5769" y="-63.5" font-family="FreeSans.ttf" font-size="10.00" fill="#000000">BerdyHelper.h</text>
</a>
</g>
</g>
<!-- Node12&#45;&gt;Node95 -->
<g id="edge18" class="edge">
<title>Node12&#45;&gt;Node95</title>
<path fill="none" stroke="#191970" d="M992.2681,-242.3801C888.2377,-237.1039 679.4245,-223.554 657.5769,-199 651.6681,-192.3593 653.4515,-186.8736 657.5769,-179 670.6225,-154.1015 687.1135,-159.8974 709.5769,-143 726.9951,-129.8977 727.63,-120.7855 747.5769,-112 795.2884,-90.9858 944.0594,-75.9023 1018.3974,-69.4652"/>
<polygon fill="#191970" stroke="#191970" points="992.1395,-245.8779 1002.3013,-242.8798 992.4878,-238.8866 992.1395,-245.8779"/>
</g>
<!-- Node96 -->
<g id="node20" class="node">
<title>Node96</title>
<g id="a_node20"><a xlink:href="ExtendedKalmanFilter_8h.html" target="_top" xlink:title="ExtendedKalmanFilter.h">
<polygon fill="none" stroke="#ff0000" points="1078.5769,-179.5 1078.5769,-198.5 1210.5769,-198.5 1210.5769,-179.5 1078.5769,-179.5"/>
<text text-anchor="middle" x="1144.5769" y="-186.5" font-family="FreeSans.ttf" font-size="10.00" fill="#000000">ExtendedKalmanFilter.h</text>
</a>
</g>
</g>
<!-- Node12&#45;&gt;Node96 -->
<g id="edge20" class="edge">
<title>Node12&#45;&gt;Node96</title>
<path fill="none" stroke="#191970" d="M1075.6774,-230.0465C1092.4029,-220.0824 1113.8937,-207.2794 1128.391,-198.6427"/>
<polygon fill="#191970" stroke="#191970" points="1073.7501,-227.1206 1066.9504,-235.2455 1077.3328,-233.1343 1073.7501,-227.1206"/>
</g>
<!-- Node98 -->
<g id="node21" class="node">
<title>Node98</title>
<g id="a_node21"><a xlink:href="ExternalWrenchesEstimation_8h.html" target="_top" xlink:title="ExternalWrenchesEstimation.h">
<polygon fill="none" stroke="#ff0000" points="856.5769,-179.5 856.5769,-198.5 1022.5769,-198.5 1022.5769,-179.5 856.5769,-179.5"/>
<text text-anchor="middle" x="939.5769" y="-186.5" font-family="FreeSans.ttf" font-size="10.00" fill="#000000">ExternalWrenchesEstimation.h</text>
</a>
</g>
</g>
<!-- Node12&#45;&gt;Node98 -->
<g id="edge21" class="edge">
<title>Node12&#45;&gt;Node98</title>
<path fill="none" stroke="#191970" d="M1022.5035,-230.8368C1002.4384,-220.7139 975.9847,-207.3679 958.4095,-198.5011"/>
<polygon fill="#191970" stroke="#191970" points="1020.9907,-233.9938 1031.4953,-235.3733 1024.1437,-227.7441 1020.9907,-233.9938"/>
</g>
<!-- Node12&#45;&gt;Node103 -->
<g id="edge23" class="edge">
<title>Node12&#45;&gt;Node103</title>
<path fill="none" stroke="#191970" d="M992.1852,-241.8385C858.9297,-234.5897 522.1601,-216.0786 240.5769,-199 210.9691,-197.2042 178.1876,-195.1054 150.4264,-193.2955"/>
<polygon fill="#191970" stroke="#191970" points="992.0057,-245.3338 1002.181,-242.3819 992.3857,-238.3441 992.0057,-245.3338"/>
</g>
<!-- Node104 -->
<g id="node23" class="node">
<title>Node104</title>
<g id="a_node23"><a xlink:href="InverseKinematicsData_8h.html" target="_top" xlink:title="InverseKinematicsData.h">
<polygon fill="none" stroke="#ff0000" points="374.5769,-118 374.5769,-137 514.5769,-137 514.5769,-118 374.5769,-118"/>
<text text-anchor="middle" x="444.5769" y="-125" font-family="FreeSans.ttf" font-size="10.00" fill="#000000">InverseKinematicsData.h</text>
</a>
</g>
</g>
<!-- Node12&#45;&gt;Node104 -->
<g id="edge35" class="edge">
<title>Node12&#45;&gt;Node104</title>
<path fill="none" stroke="#191970" d="M991.9997,-244.1953C851.4149,-241.7353 503.5622,-232.3141 463.5769,-199 445.2226,-183.708 443.5094,-152.8928 443.9448,-137.1841"/>
<polygon fill="#191970" stroke="#191970" points="992.0989,-247.6974 1002.1567,-244.3672 992.2174,-240.6984 992.0989,-247.6974"/>
</g>
<!-- Node114 -->
<g id="node25" class="node">
<title>Node114</title>
<g id="a_node25"><a xlink:href="BoundingBoxHelpers_8h.html" target="_top" xlink:title="BoundingBoxHelpers.h">
<polygon fill="none" stroke="#ff0000" points="1738.5769,-118 1738.5769,-137 1866.5769,-137 1866.5769,-118 1738.5769,-118"/>
<text text-anchor="middle" x="1802.5769" y="-125" font-family="FreeSans.ttf" font-size="10.00" fill="#000000">BoundingBoxHelpers.h</text>
</a>
</g>
</g>
<!-- Node12&#45;&gt;Node114 -->
<g id="edge28" class="edge">
<title>Node12&#45;&gt;Node114</title>
<path fill="none" stroke="#191970" d="M1109.4721,-242.024C1253.7042,-234.5363 1616.7161,-214.4136 1669.5769,-199 1716.8915,-185.2036 1766.4405,-153.1102 1789.4251,-137.0341"/>
<polygon fill="#191970" stroke="#191970" points="1108.8691,-238.5504 1099.0631,-242.5621 1109.2305,-245.541 1108.8691,-238.5504"/>
</g>
<!-- Node115 -->
<g id="node26" class="node">
<title>Node115</title>
<g id="a_node26"><a xlink:href="ConvexHullHelpers_8h.html" target="_top" xlink:title="ConvexHullHelpers.h">
<polygon fill="none" stroke="#ff0000" points="1755.0769,-179.5 1755.0769,-198.5 1874.0769,-198.5 1874.0769,-179.5 1755.0769,-179.5"/>
<text text-anchor="middle" x="1814.5769" y="-186.5" font-family="FreeSans.ttf" font-size="10.00" fill="#000000">ConvexHullHelpers.h</text>
</a>
</g>
</g>
<!-- Node12&#45;&gt;Node115 -->
<g id="edge29" class="edge">
<title>Node12&#45;&gt;Node115</title>
<path fill="none" stroke="#191970" d="M1109.1195,-241.2364C1223.3065,-233.8143 1483.7437,-216.4874 1702.5769,-199 1719.6042,-197.6393 1738.0761,-196.0405 1755.016,-194.5254"/>
<polygon fill="#191970" stroke="#191970" points="1108.6109,-237.762 1098.8585,-241.9023 1109.0642,-244.7473 1108.6109,-237.762"/>
</g>
<!-- Node120 -->
<g id="node28" class="node">
<title>Node120</title>
<g id="a_node28"><a xlink:href="InverseKinematicsNLP_8h.html" target="_top" xlink:title="InverseKinematicsNLP.h">
<polygon fill="none" stroke="#ff0000" points="282.5769,-179.5 282.5769,-198.5 416.5769,-198.5 416.5769,-179.5 282.5769,-179.5"/>
<text text-anchor="middle" x="349.5769" y="-186.5" font-family="FreeSans.ttf" font-size="10.00" fill="#000000">InverseKinematicsNLP.h</text>
</a>
</g>
</g>
<!-- Node12&#45;&gt;Node120 -->
<g id="edge33" class="edge">
<title>Node12&#45;&gt;Node120</title>
<path fill="none" stroke="#191970" d="M992.0478,-241.6123C881.9628,-235.0287 636.6068,-219.3487 430.5769,-199 426.0647,-198.5543 421.4149,-198.0639 416.7324,-197.5467"/>
<polygon fill="#191970" stroke="#191970" points="992.0827,-245.1205 1002.2731,-242.2209 992.4987,-238.1329 992.0827,-245.1205"/>
</g>
<!-- Node126 -->
<g id="node29" class="node">
<title>Node126</title>
<g id="a_node29"><a xlink:href="Integrator_8h.html" target="_top" xlink:title="Integrator.h">
<polygon fill="none" stroke="#ff0000" points="3584.0769,-179.5 3584.0769,-198.5 3657.0769,-198.5 3657.0769,-179.5 3584.0769,-179.5"/>
<text text-anchor="middle" x="3620.5769" y="-186.5" font-family="FreeSans.ttf" font-size="10.00" fill="#000000">Integrator.h</text>
</a>
</g>
</g>
<!-- Node12&#45;&gt;Node126 -->
<g id="edge36" class="edge">
<title>Node12&#45;&gt;Node126</title>
<path fill="none" stroke="#191970" d="M1109.1402,-242.6204C1166.5564,-240.3623 1256.5749,-237.0219 1334.5769,-235 2296.1647,-210.0744 2537.8305,-246.3159 3498.5769,-199 3527.3379,-197.5835 3559.8317,-194.865 3584.0491,-192.6196"/>
<polygon fill="#191970" stroke="#191970" points="1108.6629,-239.1364 1098.809,-243.0288 1108.9395,-246.1309 1108.6629,-239.1364"/>
</g>
<!-- Node132 -->
<g id="node32" class="node">
<title>Node132</title>
<g id="a_node32"><a xlink:href="QuadraticCost_8h.html" target="_top" xlink:title="QuadraticCost.h">
<polygon fill="none" stroke="#ff0000" points="3147.0769,-118 3147.0769,-137 3242.0769,-137 3242.0769,-118 3147.0769,-118"/>
<text text-anchor="middle" x="3194.5769" y="-125" font-family="FreeSans.ttf" font-size="10.00" fill="#000000">QuadraticCost.h</text>
</a>
</g>
</g>
<!-- Node12&#45;&gt;Node132 -->
<g id="edge40" class="edge">
<title>Node12&#45;&gt;Node132</title>
<path fill="none" stroke="#191970" d="M1109.1418,-242.6794C1166.5592,-240.4652 1256.5786,-237.1566 1334.5769,-235 1434.1145,-232.2479 3035.465,-239.1738 3126.5769,-199 3156.0451,-186.0066 3178.9047,-153.5369 3188.9697,-137.204"/>
<polygon fill="#191970" stroke="#191970" points="1108.6674,-239.195 1098.8104,-243.0795 1108.9384,-246.1898 1108.6674,-239.195"/>
</g>
<!-- Node133 -->
<g id="node33" class="node">
<title>Node133</title>
<g id="a_node33"><a xlink:href="TimeVaryingObject_8h.html" target="_top" xlink:title="TimeVaryingObject.h">
<polygon fill="none" stroke="#ff0000" points="3174.0769,-179.5 3174.0769,-198.5 3293.0769,-198.5 3293.0769,-179.5 3174.0769,-179.5"/>
<text text-anchor="middle" x="3233.5769" y="-186.5" font-family="FreeSans.ttf" font-size="10.00" fill="#000000">TimeVaryingObject.h</text>
</a>
</g>
</g>
<!-- Node12&#45;&gt;Node133 -->
<g id="edge42" class="edge">
<title>Node12&#45;&gt;Node133</title>
<path fill="none" stroke="#191970" d="M1109.1417,-242.6731C1166.5589,-240.4544 1256.5782,-237.1424 1334.5769,-235 2145.5399,-212.7253 2350.7132,-261.4242 3159.5769,-199 3164.2301,-198.6409 3169.038,-198.185 3173.865,-197.6667"/>
<polygon fill="#191970" stroke="#191970" points="1108.6669,-239.1888 1098.8103,-243.0742 1108.9385,-246.1836 1108.6669,-239.1888"/>
</g>
<!-- Node13&#45;&gt;Node39 -->
<g id="edge4" class="edge">
<title>Node13&#45;&gt;Node39</title>
<path fill="none" stroke="#191970" d="M1560.2701,-184.767C1455.8494,-176.5561 1233.3564,-157.959 1157.5769,-143 1149.8136,-141.4675 1141.5464,-139.2719 1133.9417,-137.0133"/>
<polygon fill="#191970" stroke="#191970" points="1560.0564,-188.2609 1570.2991,-185.5522 1560.6028,-181.2822 1560.0564,-188.2609"/>
</g>
<!-- Node42 -->
<g id="node6" class="node">
<title>Node42</title>
<g id="a_node6"><a xlink:href="BerdySparseMAPSolver_8cpp.html" target="_top" xlink:title="BerdySparseMAPSolver.cpp">
<polygon fill="none" stroke="#000000" points="1390.0769,-.5 1390.0769,-19.5 1539.0769,-19.5 1539.0769,-.5 1390.0769,-.5"/>
<text text-anchor="middle" x="1464.5769" y="-7.5" font-family="FreeSans.ttf" font-size="10.00" fill="#000000">BerdySparseMAPSolver.cpp</text>
</a>
</g>
</g>
<!-- Node13&#45;&gt;Node42 -->
<g id="edge5" class="edge">
<title>Node13&#45;&gt;Node42</title>
<path fill="none" stroke="#191970" d="M1565.6747,-176.2141C1546.5924,-169.1501 1525.9788,-158.552 1511.5769,-143 1477.632,-106.3444 1467.9413,-43.6524 1465.405,-19.6961"/>
<polygon fill="#191970" stroke="#191970" points="1564.5833,-179.5399 1575.178,-179.4987 1566.87,-172.924 1564.5833,-179.5399"/>
</g>
<!-- Node13&#45;&gt;Node47 -->
<g id="edge6" class="edge">
<title>Node13&#45;&gt;Node47</title>
<path fill="none" stroke="#191970" d="M1560.3659,-178.7236C1527.4522,-171.3638 1485.4297,-159.7611 1450.5769,-143 1429.3448,-132.7893 1429.7918,-119.846 1407.5769,-112 1335.4969,-86.5424 822.1146,-72.0746 632.6184,-67.5536"/>
<polygon fill="#191970" stroke="#191970" points="1559.7553,-182.1725 1570.27,-180.8725 1561.2396,-175.3317 1559.7553,-182.1725"/>
</g>
<!-- Node57 -->
<g id="node8" class="node">
<title>Node57</title>
<g id="a_node8"><a xlink:href="Model_8cpp.html" target="_top" xlink:title="Model.cpp">
<polygon fill="none" stroke="#000000" points="1654.5769,-118 1654.5769,-137 1720.5769,-137 1720.5769,-118 1654.5769,-118"/>
<text text-anchor="middle" x="1687.5769" y="-125" font-family="FreeSans.ttf" font-size="10.00" fill="#000000">Model.cpp</text>
</a>
</g>
</g>
<!-- Node13&#45;&gt;Node57 -->
<g id="edge7" class="edge">
<title>Node13&#45;&gt;Node57</title>
<path fill="none" stroke="#191970" d="M1634.4617,-172.8692C1647.7045,-161.5576 1664.9745,-146.8062 1676.1683,-137.2449"/>
<polygon fill="#191970" stroke="#191970" points="1632.1574,-170.2344 1626.8269,-179.3906 1636.7039,-175.557 1632.1574,-170.2344"/>
</g>
<!-- Node13&#45;&gt;Node59 -->
<g id="edge8" class="edge">
<title>Node13&#45;&gt;Node59</title>
<path fill="none" stroke="#191970" d="M1563.4227,-177.201C1522.4163,-167.9194 1463.8492,-154.6527 1412.5769,-143 1404.0757,-141.0679 1394.9775,-138.9966 1386.2906,-137.0171"/>
<polygon fill="#191970" stroke="#191970" points="1562.6679,-180.6186 1573.1938,-179.4125 1564.2131,-173.7913 1562.6679,-180.6186"/>
</g>
<!-- Node13&#45;&gt;Node60 -->
<g id="edge9" class="edge">
<title>Node13&#45;&gt;Node60</title>
<path fill="none" stroke="#191970" d="M1671.0449,-184.3168C1747.5427,-177.4506 1889.5897,-163.2347 2009.5769,-143 2019.396,-141.3441 2029.914,-139.2095 2039.7354,-137.057"/>
<polygon fill="#191970" stroke="#191970" points="1670.3457,-180.865 1660.6949,-185.2367 1670.9655,-187.8375 1670.3457,-180.865"/>
</g>
<!-- Node62 -->
<g id="node11" class="node">
<title>Node62</title>
<g id="a_node11"><a xlink:href="ForwardEuler_8cpp.html" target="_top" xlink:title="ForwardEuler.cpp">
<polygon fill="none" stroke="#000000" points="3685.5769,-118 3685.5769,-137 3785.5769,-137 3785.5769,-118 3685.5769,-118"/>
<text text-anchor="middle" x="3735.5769" y="-125" font-family="FreeSans.ttf" font-size="10.00" fill="#000000">ForwardEuler.cpp</text>
</a>
</g>
</g>
<!-- Node13&#45;&gt;Node62 -->
<g id="edge10" class="edge">
<title>Node13&#45;&gt;Node62</title>
<path fill="none" stroke="#191970" d="M1670.7818,-184.0819C1694.1455,-182.1833 1721.6696,-180.1865 1746.5769,-179 2587.1092,-138.959 2801.4629,-218.251 3639.5769,-143 3654.5421,-141.6563 3670.7049,-139.3735 3685.4237,-136.967"/>
<polygon fill="#191970" stroke="#191970" points="1670.3823,-180.6029 1660.7049,-184.9154 1670.9594,-187.5791 1670.3823,-180.6029"/>
</g>
<!-- Node13&#45;&gt;Node65 -->
<g id="edge11" class="edge">
<title>Node13&#45;&gt;Node65</title>
<path fill="none" stroke="#191970" d="M1605.8224,-170.253C1600.1547,-159.3606 1593.2469,-146.0846 1588.6474,-137.2449"/>
<polygon fill="#191970" stroke="#191970" points="1602.8562,-172.1352 1610.5769,-179.3906 1609.0659,-168.9041 1602.8562,-172.1352"/>
</g>
<!-- Node13&#45;&gt;Node66 -->
<g id="edge12" class="edge">
<title>Node13&#45;&gt;Node66</title>
<path fill="none" stroke="#191970" d="M1670.7368,-184.3206C1767.6343,-176.0843 1974.734,-158.4087 2149.5769,-143 2191.2405,-139.3282 2238.5709,-135.0556 2273.0206,-131.9272"/>
<polygon fill="#191970" stroke="#191970" points="1670.2583,-180.8485 1660.5906,-185.1827 1670.851,-187.8234 1670.2583,-180.8485"/>
</g>
<!-- Node13&#45;&gt;Node68 -->
<g id="edge13" class="edge">
<title>Node13&#45;&gt;Node68</title>
<path fill="none" stroke="#191970" d="M1559.9416,-185.635C1437.9176,-178.0608 1149.9846,-159.078 1053.5769,-143 1044.5234,-141.4901 1034.8436,-139.3023 1025.9233,-137.044"/>
<polygon fill="#191970" stroke="#191970" points="1559.9824,-189.1441 1570.1793,-186.2678 1560.4144,-182.1574 1559.9824,-189.1441"/>
</g>
<!-- Node69 -->
<g id="node15" class="node">
<title>Node69</title>
<g id="a_node15"><a xlink:href="MultipleShootingSolver_8cpp.html" target="_top" xlink:title="MultipleShootingSolver.cpp">
<polygon fill="none" stroke="#000000" points="3481.0769,-118 3481.0769,-137 3630.0769,-137 3630.0769,-118 3481.0769,-118"/>
<text text-anchor="middle" x="3555.5769" y="-125" font-family="FreeSans.ttf" font-size="10.00" fill="#000000">MultipleShootingSolver.cpp</text>
</a>
</g>
</g>
<!-- Node13&#45;&gt;Node69 -->
<g id="edge14" class="edge">
<title>Node13&#45;&gt;Node69</title>
<path fill="none" stroke="#191970" d="M1670.7829,-184.1045C1694.1468,-182.2095 1721.6707,-180.2094 1746.5769,-179 2129.7644,-160.3926 3090.9608,-182.3448 3472.5769,-143 3485.4086,-141.677 3499.2262,-139.4321 3511.8355,-137.0553"/>
<polygon fill="#191970" stroke="#191970" points="1670.3842,-180.6254 1660.7058,-184.9359 1670.9598,-187.6017 1670.3842,-180.6254"/>
</g>
<!-- Node13&#45;&gt;Node70 -->
<g id="edge15" class="edge">
<title>Node13&#45;&gt;Node70</title>
<path fill="none" stroke="#191970" d="M1564.8017,-175.6855C1548.4511,-168.7334 1532.1096,-158.3501 1522.5769,-143 1515.3082,-131.2956 1512.9734,-121.8792 1522.5769,-112 1536.2477,-97.9368 2752.3231,-73.596 3071.5446,-67.4445"/>
<polygon fill="#191970" stroke="#191970" points="1563.7892,-179.0466 1574.3784,-179.3939 1566.317,-172.519 1563.7892,-179.0466"/>
</g>
<!-- Node13&#45;&gt;Node71 -->
<g id="edge16" class="edge">
<title>Node13&#45;&gt;Node71</title>
<path fill="none" stroke="#191970" d="M1560.2365,-183.2337C1493.7403,-175.8783 1378.9513,-161.8201 1281.5769,-143 1272.862,-141.3156 1263.5393,-139.1703 1254.8396,-137.0167"/>
<polygon fill="#191970" stroke="#191970" points="1560.1623,-186.7465 1570.484,-184.3564 1560.9247,-179.7881 1560.1623,-186.7465"/>
</g>
<!-- Node80 -->
<g id="node18" class="node">
<title>Node80</title>
<g id="a_node18"><a xlink:href="InertialParametersSolidShapesHelpers_8cpp.html" target="_top" xlink:title="InertialParametersSolidShapes\lHelpers.cpp">
<polygon fill="none" stroke="#000000" points="756.5769,-112.5 756.5769,-142.5 922.5769,-142.5 922.5769,-112.5 756.5769,-112.5"/>
<text text-anchor="start" x="764.5769" y="-130.5" font-family="FreeSans.ttf" font-size="10.00" fill="#000000">InertialParametersSolidShapes</text>
<text text-anchor="middle" x="839.5769" y="-119.5" font-family="FreeSans.ttf" font-size="10.00" fill="#000000">Helpers.cpp</text>
</a>
</g>
</g>
<!-- Node13&#45;&gt;Node80 -->
<g id="edge17" class="edge">
<title>Node13&#45;&gt;Node80</title>
<path fill="none" stroke="#191970" d="M1560.1209,-185.9874C1419.755,-178.2467 1052.9494,-157.2695 931.5769,-143 928.6813,-142.6596 925.7381,-142.2904 922.7683,-141.8982"/>
<polygon fill="#191970" stroke="#191970" points="1560.0489,-189.4886 1570.2261,-186.5433 1560.4334,-182.4992 1560.0489,-189.4886"/>
</g>
<!-- Node95&#45;&gt;Node42 -->
<g id="edge19" class="edge">
<title>Node95&#45;&gt;Node42</title>
<path fill="none" stroke="#191970" d="M1114.9515,-58.5832C1187.2839,-48.532 1316.5017,-30.5762 1395.9638,-19.5343"/>
<polygon fill="#191970" stroke="#191970" points="1114.128,-55.1639 1104.705,-60.007 1115.0915,-62.0973 1114.128,-55.1639"/>
</g>
<!-- Node103&#45;&gt;Node47 -->
<g id="edge24" class="edge">
<title>Node103&#45;&gt;Node47</title>
<path fill="none" stroke="#191970" d="M67.4185,-171.9386C51.6547,-155.0968 33.6599,-129.4082 49.5769,-112 78.8794,-79.9524 359.0784,-70.0545 492.5476,-67.1442"/>
<polygon fill="#191970" stroke="#191970" points="65.2987,-174.7725 74.8195,-179.4207 70.2753,-169.8498 65.2987,-174.7725"/>
</g>
<!-- Node103&#45;&gt;Node104 -->
<g id="edge25" class="edge">
<title>Node103&#45;&gt;Node104</title>
<path fill="none" stroke="#191970" d="M151.4724,-177.7115C219.6506,-166.0319 324.9519,-147.9929 389.0418,-137.0137"/>
<polygon fill="#191970" stroke="#191970" points="150.5422,-174.3198 141.2767,-179.4581 151.7242,-181.2193 150.5422,-174.3198"/>
</g>
<!-- Node111 -->
<g id="node24" class="node">
<title>Node111</title>
<g id="a_node24"><a xlink:href="robotstatepublisher_8h.html" target="_top" xlink:title="robotstatepublisher.h">
<polygon fill="none" stroke="#ff0000" points="58.5769,-118 58.5769,-137 178.5769,-137 178.5769,-118 58.5769,-118"/>
<text text-anchor="middle" x="118.5769" y="-125" font-family="FreeSans.ttf" font-size="10.00" fill="#000000">robotstatepublisher.h</text>
</a>
</g>
</g>
<!-- Node103&#45;&gt;Node111 -->
<g id="edge26" class="edge">
<title>Node103&#45;&gt;Node111</title>
<path fill="none" stroke="#191970" d="M95.6362,-170.253C101.481,-159.3606 108.6047,-146.0846 113.3479,-137.2449"/>
<polygon fill="#191970" stroke="#191970" points="92.3773,-168.9241 90.7331,-179.3906 98.5454,-172.2339 92.3773,-168.9241"/>
</g>
<!-- Node115&#45;&gt;Node104 -->
<g id="edge31" class="edge">
<title>Node115&#45;&gt;Node104</title>
<path fill="none" stroke="#191970" d="M1744.9565,-183.6913C1721.0695,-182.0048 1694.1633,-180.2542 1669.5769,-179 1186.3849,-154.3521 1064.1132,-178.2238 581.5769,-143 559.8525,-141.4142 536.2618,-138.9972 514.8766,-136.5404"/>
<polygon fill="#191970" stroke="#191970" points="1744.7693,-187.1868 1754.9934,-184.4086 1745.2683,-180.2046 1744.7693,-187.1868"/>
</g>
<!-- Node115&#45;&gt;Node114 -->
<g id="edge30" class="edge">
<title>Node115&#45;&gt;Node114</title>
<path fill="none" stroke="#191970" d="M1810.7225,-169.2462C1808.6358,-158.5519 1806.1504,-145.814 1804.4783,-137.2449"/>
<polygon fill="#191970" stroke="#191970" points="1807.3515,-170.246 1812.7019,-179.3906 1814.2219,-168.9054 1807.3515,-170.246"/>
</g>
<!-- Node107 -->
<g id="node27" class="node">
<title>Node107</title>
<g id="a_node27"><a xlink:href="ObserverThread_8cpp.html" target="_top" xlink:title="ObserverThread.cpp">
<polygon fill="none" stroke="#000000" points="1885.0769,-118 1885.0769,-137 2000.0769,-137 2000.0769,-118 1885.0769,-118"/>
<text text-anchor="middle" x="1942.5769" y="-125" font-family="FreeSans.ttf" font-size="10.00" fill="#000000">ObserverThread.cpp</text>
</a>
</g>
</g>
<!-- Node115&#45;&gt;Node107 -->
<g id="edge32" class="edge">
<title>Node115&#45;&gt;Node107</title>
<path fill="none" stroke="#191970" d="M1843.6408,-175.0357C1867.803,-163.4265 1901.5438,-147.2151 1922.7173,-137.0419"/>
<polygon fill="#191970" stroke="#191970" points="1842.0747,-171.9051 1834.5769,-179.3906 1845.1063,-178.2146 1842.0747,-171.9051"/>
</g>
<!-- Node120&#45;&gt;Node104 -->
<g id="edge34" class="edge">
<title>Node120&#45;&gt;Node104</title>
<path fill="none" stroke="#191970" d="M373.0781,-173.786C390.8418,-162.2864 414.6789,-146.855 429.8374,-137.0419"/>
<polygon fill="#191970" stroke="#191970" points="370.9131,-171.0182 364.4206,-179.3906 374.7172,-176.8943 370.9131,-171.0182"/>
</g>
<!-- Node126&#45;&gt;Node69 -->
<g id="edge39" class="edge">
<title>Node126&#45;&gt;Node69</title>
<path fill="none" stroke="#191970" d="M3602.8476,-172.2253C3590.9864,-161.0028 3575.7912,-146.6258 3565.8763,-137.2449"/>
<polygon fill="#191970" stroke="#191970" points="3600.7512,-175.0602 3610.4206,-179.3906 3605.5622,-169.9754 3600.7512,-175.0602"/>
</g>
<!-- Node127 -->
<g id="node30" class="node">
<title>Node127</title>
<g id="a_node30"><a xlink:href="FixedStepIntegrator_8h.html" target="_top" xlink:title="FixedStepIntegrator.h">
<polygon fill="none" stroke="#ff0000" points="3841.5769,-118 3841.5769,-137 3961.5769,-137 3961.5769,-118 3841.5769,-118"/>
<text text-anchor="middle" x="3901.5769" y="-125" font-family="FreeSans.ttf" font-size="10.00" fill="#000000">FixedStepIntegrator.h</text>
</a>
</g>
</g>
<!-- Node126&#45;&gt;Node127 -->
<g id="edge37" class="edge">
<title>Node126&#45;&gt;Node127</title>
<path fill="none" stroke="#191970" d="M3667.1358,-178.8101C3720.1569,-167.2058 3806.1187,-148.3921 3857.9068,-137.0577"/>
<polygon fill="#191970" stroke="#191970" points="3666.3332,-175.4028 3657.3127,-180.9599 3667.8298,-182.2409 3666.3332,-175.4028"/>
</g>
<!-- Node130 -->
<g id="node31" class="node">
<title>Node130</title>
<g id="a_node31"><a xlink:href="RK4_8h.html" target="_top" xlink:title="RK4.h">
<polygon fill="none" stroke="#ff0000" points="3923.0769,-56.5 3923.0769,-75.5 3968.0769,-75.5 3968.0769,-56.5 3923.0769,-56.5"/>
<text text-anchor="middle" x="3945.5769" y="-63.5" font-family="FreeSans.ttf" font-size="10.00" fill="#000000">RK4.h</text>
</a>
</g>
</g>
<!-- Node127&#45;&gt;Node130 -->
<g id="edge38" class="edge">
<title>Node127&#45;&gt;Node130</title>
<path fill="none" stroke="#191970" d="M3914.2786,-109.7465C3922.1978,-98.6775 3932.087,-84.8552 3938.605,-75.7449"/>
<polygon fill="#191970" stroke="#191970" points="3911.4241,-107.7212 3908.4519,-117.8906 3917.1171,-111.7943 3911.4241,-107.7212"/>
</g>
<!-- Node132&#45;&gt;Node70 -->
<g id="edge41" class="edge">
<title>Node132&#45;&gt;Node70</title>
<path fill="none" stroke="#191970" d="M3181.0092,-109.7465C3172.55,-98.6775 3161.9866,-84.8552 3155.0242,-75.7449"/>
<polygon fill="#191970" stroke="#191970" points="3178.3801,-112.0704 3187.2331,-117.8906 3183.9419,-107.8199 3178.3801,-112.0704"/>
</g>
<!-- Node133&#45;&gt;Node132 -->
<g id="edge43" class="edge">
<title>Node133&#45;&gt;Node132</title>
<path fill="none" stroke="#191970" d="M3222.1096,-170.9169C3215.126,-159.9043 3206.4767,-146.265 3200.7566,-137.2449"/>
<polygon fill="#191970" stroke="#191970" points="3219.1719,-172.8199 3227.4831,-179.3906 3225.0835,-169.0711 3219.1719,-172.8199"/>
</g>
<!-- Node145&#45;&gt;Node13 -->
<g id="edge52" class="edge">
<title>Node145&#45;&gt;Node13</title>
<path fill="none" stroke="#191970" d="M1437.2927,-232.982C1479.0602,-222.6781 1538.425,-208.0331 1576.972,-198.5237"/>
<polygon fill="#191970" stroke="#191970" points="1436.2123,-229.6435 1427.3417,-235.4369 1437.8889,-236.4398 1436.2123,-229.6435"/>
</g>
<!-- Node262&#45;&gt;Node13 -->
<g id="edge56" class="edge">
<title>Node262&#45;&gt;Node13</title>
<path fill="none" stroke="#191970" d="M2091.2416,-238.8824C1983.928,-227.6286 1757.3684,-203.8695 1660.761,-193.7384"/>
<polygon fill="#191970" stroke="#191970" points="2090.9356,-242.3695 2101.2461,-239.9316 2091.6657,-235.4076 2090.9356,-242.3695"/>
</g>
<!-- Node262&#45;&gt;Node39 -->
<g id="edge63" class="edge">
<title>Node262&#45;&gt;Node39</title>
<path fill="none" stroke="#191970" d="M2091.4055,-244.0768C1950.595,-241.349 1594.6188,-231.3695 1480.5769,-199 1462.2169,-193.7887 1460.7809,-184.7323 1442.5769,-179 1320.7987,-140.6528 1282.5069,-169.3238 1157.5769,-143 1150.0182,-141.4073 1141.9666,-139.2447 1134.5134,-137.0405"/>
<polygon fill="#191970" stroke="#191970" points="2091.5013,-247.5792 2101.5654,-244.2682 2091.6332,-240.5804 2091.5013,-247.5792"/>
</g>
<!-- Node262&#45;&gt;Node42 -->
<g id="edge64" class="edge">
<title>Node262&#45;&gt;Node42</title>
<path fill="none" stroke="#191970" d="M2164.546,-227.3445C2170.4525,-219.2525 2176.5443,-209.2016 2179.5769,-199 2186.8051,-174.6849 2181.8253,-123.361 2170.5769,-112 2126.5477,-67.5303 1711.9314,-29.697 1539.3701,-15.7425"/>
<polygon fill="#191970" stroke="#191970" points="2161.7539,-225.2333 2158.363,-235.2709 2167.2733,-229.5387 2161.7539,-225.2333"/>
</g>
<!-- Node262&#45;&gt;Node47 -->
<g id="edge65" class="edge">
<title>Node262&#45;&gt;Node47</title>
<path fill="none" stroke="#191970" d="M2091.3781,-243.1727C1916.2088,-237.4728 1401.46,-219.1886 1328.5769,-199 1310.1842,-193.9052 1308.9828,-184.0466 1290.5769,-179 1214.5052,-158.1425 642.4221,-193.1977 581.5769,-143 561.5032,-126.4391 560.7134,-92.3618 561.675,-75.6589"/>
<polygon fill="#191970" stroke="#191970" points="2091.3279,-246.6728 2101.436,-243.4983 2091.5545,-239.6765 2091.3279,-246.6728"/>
</g>
<!-- Node262&#45;&gt;Node57 -->
<g id="edge75" class="edge">
<title>Node262&#45;&gt;Node57</title>
<path fill="none" stroke="#191970" d="M2101.9035,-232.9644C2048.7092,-219.5833 1960.0603,-197.4273 1883.5769,-179 1815.2426,-162.5361 1796.8995,-163.2067 1729.5769,-143 1723.7704,-141.2572 1717.6031,-139.1375 1711.8341,-137.0323"/>
<polygon fill="#191970" stroke="#191970" points="2101.182,-236.3919 2111.7339,-235.4389 2102.8908,-229.6037 2101.182,-236.3919"/>
</g>
<!-- Node262&#45;&gt;Node59 -->
<g id="edge90" class="edge">
<title>Node262&#45;&gt;Node59</title>
<path fill="none" stroke="#191970" d="M2091.3833,-243.0804C1963.3029,-238.4287 1660.5365,-224.9774 1561.5769,-199 1541.1904,-193.6485 1538.2914,-186.4557 1518.5769,-179 1472.7558,-161.6713 1418.4009,-146.3928 1382.7857,-137.0674"/>
<polygon fill="#191970" stroke="#191970" points="2091.2783,-246.5788 2101.3972,-243.439 2091.5289,-239.5833 2091.2783,-246.5788"/>
</g>
<!-- Node262&#45;&gt;Node60 -->
<g id="edge91" class="edge">
<title>Node262&#45;&gt;Node60</title>
<path fill="none" stroke="#191970" d="M2138.711,-226.7608C2123.6845,-201.5378 2097.0912,-156.899 2085.3844,-137.2484"/>
<polygon fill="#191970" stroke="#191970" points="2135.7235,-228.5848 2143.8485,-235.3845 2141.7373,-225.0021 2135.7235,-228.5848"/>
</g>
<!-- Node262&#45;&gt;Node62 -->
<g id="edge92" class="edge">
<title>Node262&#45;&gt;Node62</title>
<path fill="none" stroke="#191970" d="M2208.1486,-244.0779C2486.9585,-239.5879 3667.5404,-219.3996 3699.5769,-199 3721.4988,-185.041 3730.6032,-153.3239 3733.9185,-137.2405"/>
<polygon fill="#191970" stroke="#191970" points="2207.7875,-240.5832 2197.845,-244.2433 2207.8999,-247.5822 2207.7875,-240.5832"/>
</g>
<!-- Node262&#45;&gt;Node65 -->
<g id="edge93" class="edge">
<title>Node262&#45;&gt;Node65</title>
<path fill="none" stroke="#191970" d="M2091.2887,-240.5062C1995.7572,-232.779 1810.1255,-216.1446 1746.5769,-199 1690.7859,-183.9483 1629.5278,-152.7349 1600.5589,-137.0024"/>
<polygon fill="#191970" stroke="#191970" points="2091.1142,-244.0034 2101.3623,-241.315 2091.6745,-237.0259 2091.1142,-244.0034"/>
</g>
<!-- Node262&#45;&gt;Node66 -->
<g id="edge94" class="edge">
<title>Node262&#45;&gt;Node66</title>
<path fill="none" stroke="#191970" d="M2208.1052,-243.7561C2440.1013,-238.6896 3283.4277,-218.9284 3302.5769,-199 3308.7357,-192.5905 3308.6953,-185.448 3302.5769,-179 3270.1659,-144.8429 2563.415,-131.2896 2370.0827,-128.2134"/>
<polygon fill="#191970" stroke="#191970" points="2207.7682,-240.2625 2197.8467,-243.9793 2207.9205,-247.2609 2207.7682,-240.2625"/>
</g>
<!-- Node262&#45;&gt;Node68 -->
<g id="edge95" class="edge">
<title>Node262&#45;&gt;Node68</title>
<path fill="none" stroke="#191970" d="M2091.1944,-244.3253C1944.5813,-242.1319 1563.9729,-233.2157 1442.5769,-199 1424.2073,-193.8225 1422.8469,-184.5186 1404.5769,-179 1254.4574,-133.6554 1207.9859,-170.3836 1053.5769,-143 1044.7546,-141.4354 1035.3254,-139.2828 1026.5834,-137.0795"/>
<polygon fill="#191970" stroke="#191970" points="2091.2899,-247.8269 2101.3394,-244.4718 2091.3911,-240.8276 2091.2899,-247.8269"/>
</g>
<!-- Node262&#45;&gt;Node69 -->
<g id="edge96" class="edge">
<title>Node262&#45;&gt;Node69</title>
<path fill="none" stroke="#191970" d="M2207.9942,-244.6105C2461.713,-242.7181 3457.8804,-233.1334 3514.5769,-199 3537.6239,-185.1249 3548.9322,-153.0684 3553.3136,-137.0174"/>
<polygon fill="#191970" stroke="#191970" points="2207.8499,-241.1114 2197.8759,-244.6848 2207.9014,-248.1112 2207.8499,-241.1114"/>
</g>
<!-- Node262&#45;&gt;Node70 -->
<g id="edge97" class="edge">
<title>Node262&#45;&gt;Node70</title>
<path fill="none" stroke="#191970" d="M2208.033,-244.3307C2483.6044,-241.0398 3640.7219,-225.6509 3666.5769,-199 3689.0249,-175.861 3681.3317,-143.1189 3639.5769,-112 3607.0106,-87.729 3353.3915,-74.1945 3223.5866,-68.7935"/>
<polygon fill="#191970" stroke="#191970" points="2207.8019,-240.8331 2197.8442,-244.4516 2207.8851,-247.8326 2207.8019,-240.8331"/>
</g>
<!-- Node262&#45;&gt;Node71 -->
<g id="edge100" class="edge">
<title>Node262&#45;&gt;Node71</title>
<path fill="none" stroke="#191970" d="M2091.406,-243.7954C1956.4068,-240.5113 1625.2298,-229.5098 1518.5769,-199 1500.2277,-193.7509 1498.6217,-185.2156 1480.5769,-179 1395.5969,-149.7285 1369.4452,-161.9099 1281.5769,-143 1273.2248,-141.2026 1264.288,-139.0841 1255.8737,-137.0004"/>
<polygon fill="#191970" stroke="#191970" points="2091.4698,-247.2978 2101.5502,-244.0366 2091.6362,-240.2998 2091.4698,-247.2978"/>
</g>
<!-- Node262&#45;&gt;Node80 -->
<g id="edge105" class="edge">
<title>Node262&#45;&gt;Node80</title>
<path fill="none" stroke="#191970" d="M2091.2492,-244.553C1939.1706,-242.8856 1533.4206,-235.0851 1404.5769,-199 1386.1988,-193.8529 1384.9002,-184.3389 1366.5769,-179 1180.3277,-124.7319 1124.0638,-167.1363 931.5769,-143 928.684,-142.6373 925.7431,-142.2489 922.7753,-141.8403"/>
<polygon fill="#191970" stroke="#191970" points="2091.2878,-248.0535 2101.324,-244.6585 2091.3612,-241.0539 2091.2878,-248.0535"/>
</g>
<!-- Node262&#45;&gt;Node95 -->
<g id="edge60" class="edge">
<title>Node262&#45;&gt;Node95</title>
<path fill="none" stroke="#191970" d="M2156.9017,-225.5837C2166.4195,-196.6278 2178.6226,-142.2997 2149.5769,-112 2112.8219,-73.6581 1302.016,-67.1842 1104.6131,-66.175"/>
<polygon fill="#191970" stroke="#191970" points="2153.4881,-224.7413 2153.477,-235.3361 2160.0927,-227.0606 2153.4881,-224.7413"/>
</g>
<!-- Node262&#45;&gt;Node96 -->
<g id="edge61" class="edge">
<title>Node262&#45;&gt;Node96</title>
<path fill="none" stroke="#191970" d="M2091.2511,-243.6116C1945.102,-239.804 1551.5074,-227.5221 1224.5769,-199 1220.1148,-198.6107 1215.5182,-198.1625 1210.8905,-197.6762"/>
<polygon fill="#191970" stroke="#191970" points="2091.2552,-247.1127 2101.3419,-243.8712 2091.4353,-240.1151 2091.2552,-247.1127"/>
</g>
<!-- Node262&#45;&gt;Node98 -->
<g id="edge62" class="edge">
<title>Node262&#45;&gt;Node98</title>
<path fill="none" stroke="#191970" d="M2091.1389,-243.2142C1928.9245,-238.1052 1459.3423,-222.2847 1069.5769,-199 1054.4377,-198.0956 1038.3183,-196.9796 1022.7689,-195.8247"/>
<polygon fill="#191970" stroke="#191970" points="2091.2702,-246.72 2101.375,-243.5352 2091.4897,-239.7234 2091.2702,-246.72"/>
</g>
<!-- Node262&#45;&gt;Node104 -->
<g id="edge69" class="edge">
<title>Node262&#45;&gt;Node104</title>
<path fill="none" stroke="#191970" d="M2091.4873,-244.4154C1925.5332,-242.3396 1451.578,-233.4746 1300.5769,-199 1278.0455,-193.8559 1275.116,-184.1098 1252.5769,-179 947.0329,-109.7301 860.3244,-174.1281 548.5769,-143 533.3186,-141.4764 516.8763,-139.2839 501.6698,-137.0254"/>
<polygon fill="#191970" stroke="#191970" points="2091.4585,-247.9152 2101.5003,-244.537 2091.5436,-240.9157 2091.4585,-247.9152"/>
</g>
<!-- Node262&#45;&gt;Node111 -->
<g id="edge107" class="edge">
<title>Node262&#45;&gt;Node111</title>
<path fill="none" stroke="#191970" d="M2091.3892,-243.6672C1905.319,-239.1763 1332.3066,-223.4931 1252.5769,-199 1236.183,-193.9638 1235.9936,-183.9615 1219.5769,-179 1037.753,-124.0483 555.2625,-152.9487 365.5769,-143 301.7523,-139.6525 228.7056,-134.962 178.7026,-131.6194"/>
<polygon fill="#191970" stroke="#191970" points="2091.4406,-247.1693 2101.5216,-243.9099 2091.6083,-240.1713 2091.4406,-247.1693"/>
</g>
<!-- Node262&#45;&gt;Node114 -->
<g id="edge66" class="edge">
<title>Node262&#45;&gt;Node114</title>
<path fill="none" stroke="#191970" d="M2112.6003,-231.9605C2088.8758,-223.2882 2057.5712,-211.2715 2030.5769,-199 2013.2027,-191.1017 2010.3388,-185.983 1992.5769,-179 1944.867,-160.243 1887.8359,-145.7857 1848.7866,-137.0292"/>
<polygon fill="#191970" stroke="#191970" points="2111.675,-235.3479 2122.2692,-235.4635 2114.0595,-228.7665 2111.675,-235.3479"/>
</g>
<!-- Node262&#45;&gt;Node115 -->
<g id="edge67" class="edge">
<title>Node262&#45;&gt;Node115</title>
<path fill="none" stroke="#191970" d="M2091.2555,-235.2507C2029.5519,-224.9361 1932.8217,-208.7663 1871.6108,-198.534"/>
<polygon fill="#191970" stroke="#191970" points="2090.7825,-238.7202 2101.2228,-236.9169 2091.9367,-231.816 2090.7825,-238.7202"/>
</g>
<!-- Node262&#45;&gt;Node107 -->
<g id="edge106" class="edge">
<title>Node262&#45;&gt;Node107</title>
<path fill="none" stroke="#191970" d="M2123.9012,-230.4256C2080.9449,-206.0422 1995.6623,-157.633 1959.4603,-137.0836"/>
<polygon fill="#191970" stroke="#191970" points="2122.2128,-233.4918 2132.6372,-235.3845 2125.6684,-227.4041 2122.2128,-233.4918"/>
</g>
<!-- Node262&#45;&gt;Node120 -->
<g id="edge68" class="edge">
<title>Node262&#45;&gt;Node120</title>
<path fill="none" stroke="#191970" d="M2091.2721,-243.8817C1833.0088,-238.8552 790.4806,-217.7803 463.5769,-199 448.4031,-198.1283 432.1181,-196.8846 416.7409,-195.569"/>
<polygon fill="#191970" stroke="#191970" points="2091.4896,-247.3864 2101.5557,-244.0814 2091.6256,-240.3878 2091.4896,-247.3864"/>
</g>
<!-- Node262&#45;&gt;Node126 -->
<g id="edge85" class="edge">
<title>Node262&#45;&gt;Node126</title>
<path fill="none" stroke="#191970" d="M2207.9889,-244.3647C2440.3074,-241.6432 3299.2378,-229.6797 3569.5769,-199 3574.2388,-198.4709 3579.1111,-197.7442 3583.9159,-196.9219"/>
<polygon fill="#191970" stroke="#191970" points="2207.6843,-240.8679 2197.7256,-244.4837 2207.7655,-247.8674 2207.6843,-240.8679"/>
</g>
<!-- Node262&#45;&gt;Node127 -->
<g id="edge86" class="edge">
<title>Node262&#45;&gt;Node127</title>
<path fill="none" stroke="#191970" d="M2208.0251,-244.3482C2505.8738,-240.9157 3842.1414,-224.1354 3876.5769,-199 3896.4392,-184.502 3900.6235,-153.0334 3901.4362,-137.123"/>
<polygon fill="#191970" stroke="#191970" points="2207.8307,-240.8501 2197.8716,-244.4647 2207.9111,-247.8496 2207.8307,-240.8501"/>
</g>
<!-- Node262&#45;&gt;Node130 -->
<g id="edge87" class="edge">
<title>Node262&#45;&gt;Node130</title>
<path fill="none" stroke="#191970" d="M2207.9562,-244.4765C2502.6858,-241.7053 3816.3129,-227.7772 3897.5769,-199 3936.1227,-185.3502 3952.4888,-179.6731 3970.5769,-143 3981.8921,-120.0586 3964.4827,-90.8188 3953.4724,-75.8314"/>
<polygon fill="#191970" stroke="#191970" points="2207.8721,-240.977 2197.9052,-244.5703 2207.9375,-247.9767 2207.8721,-240.977"/>
</g>
<!-- Node262&#45;&gt;Node132 -->
<g id="edge88" class="edge">
<title>Node262&#45;&gt;Node132</title>
<path fill="none" stroke="#191970" d="M2207.7846,-243.7956C2441.3731,-238.8273 3299.1256,-219.2317 3318.5769,-199 3346.9084,-169.5317 3287.6291,-148.4119 3241.6343,-137.0792"/>
<polygon fill="#191970" stroke="#191970" points="2207.7091,-240.2963 2197.7855,-244.0075 2207.8574,-247.2948 2207.7091,-240.2963"/>
</g>
<!-- Node262&#45;&gt;Node133 -->
<g id="edge89" class="edge">
<title>Node262&#45;&gt;Node133</title>
<path fill="none" stroke="#191970" d="M2208.0314,-244.1518C2363.2885,-241.5065 2798.7785,-231.5297 3159.5769,-199 3164.2251,-198.5809 3169.0293,-198.0819 3173.8539,-197.5338"/>
<polygon fill="#191970" stroke="#191970" points="2207.7178,-240.6564 2197.7776,-244.3227 2207.8345,-247.6555 2207.7178,-240.6564"/>
</g>
<!-- Node263 -->
<g id="node36" class="node">
<title>Node263</title>
<g id="a_node36"><a xlink:href="CubicSpline_8h.html" target="_top" xlink:title="CubicSpline.h">
<polygon fill="none" stroke="#ff0000" points="717.0769,-179.5 717.0769,-198.5 800.0769,-198.5 800.0769,-179.5 717.0769,-179.5"/>
<text text-anchor="middle" x="758.5769" y="-186.5" font-family="FreeSans.ttf" font-size="10.00" fill="#000000">CubicSpline.h</text>
</a>
</g>
</g>
<!-- Node262&#45;&gt;Node263 -->
<g id="edge55" class="edge">
<title>Node262&#45;&gt;Node263</title>
<path fill="none" stroke="#191970" d="M2091.0929,-244.5284C1907.5922,-242.7069 1326.9134,-234.3444 847.5769,-199 832.0704,-197.8566 815.098,-196.0806 800.1711,-194.3407"/>
<polygon fill="#191970" stroke="#191970" points="2091.2935,-248.0304 2101.3269,-244.6272 2091.3612,-241.0307 2091.2935,-248.0304"/>
</g>
<!-- Node264 -->
<g id="node37" class="node">
<title>Node264</title>
<g id="a_node37"><a xlink:href="SparseMatrix_8h.html" target="_top" xlink:title="SparseMatrix.h">
<polygon fill="none" stroke="#ff0000" points="2314.0769,-56.5 2314.0769,-75.5 2403.0769,-75.5 2403.0769,-56.5 2314.0769,-56.5"/>
<text text-anchor="middle" x="2358.5769" y="-63.5" font-family="FreeSans.ttf" font-size="10.00" fill="#000000">SparseMatrix.h</text>
</a>
</g>
</g>
<!-- Node262&#45;&gt;Node264 -->
<g id="edge57" class="edge">
<title>Node262&#45;&gt;Node264</title>
<path fill="none" stroke="#191970" d="M2172.494,-229.851C2195.1642,-215.3527 2231.2093,-193.5899 2264.5769,-179 2313.648,-157.5438 2347.8638,-186.1582 2379.5769,-143 2394.6738,-122.4547 2377.2203,-91.665 2366.2085,-75.9709"/>
<polygon fill="#191970" stroke="#191970" points="2170.423,-227.0222 2163.9274,-235.3922 2174.2249,-232.8998 2170.423,-227.0222"/>
</g>
<!-- Node267 -->
<g id="node38" class="node">
<title>Node267</title>
<g id="a_node38"><a xlink:href="VectorDynSize_8cpp.html" target="_top" xlink:title="VectorDynSize.cpp">
<polygon fill="none" stroke="#000000" points="2273.0769,-179.5 2273.0769,-198.5 2380.0769,-198.5 2380.0769,-179.5 2273.0769,-179.5"/>
<text text-anchor="middle" x="2326.5769" y="-186.5" font-family="FreeSans.ttf" font-size="10.00" fill="#000000">VectorDynSize.cpp</text>
</a>
</g>
</g>
<!-- Node262&#45;&gt;Node267 -->
<g id="edge59" class="edge">
<title>Node262&#45;&gt;Node267</title>
<path fill="none" stroke="#191970" d="M2189.6437,-232.3235C2222.1039,-222.0536 2267.1262,-207.8093 2296.5466,-198.5011"/>
<polygon fill="#191970" stroke="#191970" points="2188.4827,-229.0197 2180.0043,-235.3733 2190.5943,-235.6937 2188.4827,-229.0197"/>
</g>
<!-- Node151 -->
<g id="node39" class="node">
<title>Node151</title>
<g id="a_node39"><a xlink:href="FreeFloatingState_8h.html" target="_top" xlink:title="FreeFloatingState.h">
<polygon fill="none" stroke="#ff0000" points="590.5769,-118 590.5769,-137 700.5769,-137 700.5769,-118 590.5769,-118"/>
<text text-anchor="middle" x="645.5769" y="-125" font-family="FreeSans.ttf" font-size="10.00" fill="#000000">FreeFloatingState.h</text>
</a>
</g>
</g>
<!-- Node262&#45;&gt;Node151 -->
<g id="edge70" class="edge">
<title>Node262&#45;&gt;Node151</title>
<path fill="none" stroke="#191970" d="M2091.224,-242.9973C1921.5018,-236.9727 1435.6808,-218.2426 1366.5769,-199 1348.1911,-193.8803 1346.9544,-184.1491 1328.5769,-179 1079.4533,-109.1992 1004.8328,-170.4615 747.5769,-143 732.349,-141.3745 715.9152,-139.1058 700.7796,-136.8049"/>
<polygon fill="#191970" stroke="#191970" points="2091.3448,-246.5036 2101.4621,-243.3589 2091.5919,-239.508 2091.3448,-246.5036"/>
</g>
<!-- Node240 -->
<g id="node40" class="node">
<title>Node240</title>
<g id="a_node40"><a xlink:href="JointState_8h.html" target="_top" xlink:title="JointState.h">
<polygon fill="none" stroke="#ff0000" points="473.0769,-179.5 473.0769,-198.5 546.0769,-198.5 546.0769,-179.5 473.0769,-179.5"/>
<text text-anchor="middle" x="509.5769" y="-186.5" font-family="FreeSans.ttf" font-size="10.00" fill="#000000">JointState.h</text>
</a>
</g>
</g>
<!-- Node262&#45;&gt;Node240 -->
<g id="edge73" class="edge">
<title>Node262&#45;&gt;Node240</title>
<path fill="none" stroke="#191970" d="M2091.2723,-243.5288C1895.7013,-238.5109 1245.0951,-221.1452 707.5769,-199 651.3498,-196.6835 586.1795,-193.2469 546.4247,-191.0659"/>
<polygon fill="#191970" stroke="#191970" points="2091.2435,-247.0291 2101.3299,-243.7862 2091.4227,-240.0314 2091.2435,-247.0291"/>
</g>
<!-- Node157 -->
<g id="node41" class="node">
<title>Node157</title>
<g id="a_node41"><a xlink:href="PrismaticJoint_8cpp.html" target="_top" xlink:title="PrismaticJoint.cpp">
<polygon fill="none" stroke="#000000" points="2398.5769,-179.5 2398.5769,-198.5 2502.5769,-198.5 2502.5769,-179.5 2398.5769,-179.5"/>
<text text-anchor="middle" x="2450.5769" y="-186.5" font-family="FreeSans.ttf" font-size="10.00" fill="#000000">PrismaticJoint.cpp</text>
</a>
</g>
</g>
<!-- Node262&#45;&gt;Node157 -->
<g id="edge76" class="edge">
<title>Node262&#45;&gt;Node157</title>
<path fill="none" stroke="#191970" d="M2207.6518,-234.1954C2263.2457,-223.8523 2346.2966,-208.401 2399.4488,-198.5122"/>
<polygon fill="#191970" stroke="#191970" points="2206.7952,-230.7946 2197.6041,-236.0647 2208.0756,-237.6765 2206.7952,-230.7946"/>
</g>
<!-- Node158 -->
<g id="node42" class="node">
<title>Node158</title>
<g id="a_node42"><a xlink:href="RevoluteJoint_8cpp.html" target="_top" xlink:title="RevoluteJoint.cpp">
<polygon fill="none" stroke="#000000" points="2521.0769,-179.5 2521.0769,-198.5 2622.0769,-198.5 2622.0769,-179.5 2521.0769,-179.5"/>
<text text-anchor="middle" x="2571.5769" y="-186.5" font-family="FreeSans.ttf" font-size="10.00" fill="#000000">RevoluteJoint.cpp</text>
</a>
</g>
</g>
<!-- Node262&#45;&gt;Node158 -->
<g id="edge77" class="edge">
<title>Node262&#45;&gt;Node158</title>
<path fill="none" stroke="#191970" d="M2207.8425,-238.3007C2279.4554,-229.9044 2404.6378,-214.7 2511.5769,-199 2514.6069,-198.5552 2517.7204,-198.0828 2520.8596,-197.5948"/>
<polygon fill="#191970" stroke="#191970" points="2207.1999,-234.8519 2197.6739,-239.4894 2208.0127,-241.8046 2207.1999,-234.8519"/>
</g>
<!-- Node268 -->
<g id="node43" class="node">
<title>Node268</title>
<g id="a_node43"><a xlink:href="Constraint_8h.html" target="_top" xlink:title="Constraint.h">
<polygon fill="none" stroke="#ff0000" points="3041.5769,-179.5 3041.5769,-198.5 3117.5769,-198.5 3117.5769,-179.5 3041.5769,-179.5"/>
<text text-anchor="middle" x="3079.5769" y="-186.5" font-family="FreeSans.ttf" font-size="10.00" fill="#000000">Constraint.h</text>
</a>
</g>
</g>
<!-- Node262&#45;&gt;Node268 -->
<g id="edge78" class="edge">
<title>Node262&#45;&gt;Node268</title>
<path fill="none" stroke="#191970" d="M2207.6869,-243.1704C2377.7028,-237.6273 2872.2434,-220.0992 3032.5769,-199 3035.4718,-198.619 3038.4536,-198.1553 3041.4445,-197.6386"/>
<polygon fill="#191970" stroke="#191970" points="2207.5606,-239.6725 2197.6793,-243.495 2207.7876,-246.6688 2207.5606,-239.6725"/>
</g>
<!-- Node269 -->
<g id="node44" class="node">
<title>Node269</title>
<g id="a_node44"><a xlink:href="DynamicalSystem_8h.html" target="_top" xlink:title="DynamicalSystem.h">
<polygon fill="none" stroke="#ff0000" points="3752.0769,-179.5 3752.0769,-198.5 3867.0769,-198.5 3867.0769,-179.5 3752.0769,-179.5"/>
<text text-anchor="middle" x="3809.5769" y="-186.5" font-family="FreeSans.ttf" font-size="10.00" fill="#000000">DynamicalSystem.h</text>
</a>
</g>
</g>
<!-- Node262&#45;&gt;Node269 -->
<g id="edge81" class="edge">
<title>Node262&#45;&gt;Node269</title>
<path fill="none" stroke="#191970" d="M2208.1519,-244.1601C2457.5003,-240.4526 3431.7335,-224.5921 3737.5769,-199 3742.23,-198.6106 3747.0421,-198.1249 3751.8701,-197.5789"/>
<polygon fill="#191970" stroke="#191970" points="2207.8072,-240.6647 2197.8601,-244.3123 2207.9108,-247.664 2207.8072,-240.6647"/>
</g>
<!-- Node141 -->
<g id="node45" class="node">
<title>Node141</title>
<g id="a_node45"><a xlink:href="OptimalControlSolver_8cpp.html" target="_top" xlink:title="OptimalControlSolver.cpp">
<polygon fill="none" stroke="#000000" points="2640.0769,-179.5 2640.0769,-198.5 2781.0769,-198.5 2781.0769,-179.5 2640.0769,-179.5"/>
<text text-anchor="middle" x="2710.5769" y="-186.5" font-family="FreeSans.ttf" font-size="10.00" fill="#000000">OptimalControlSolver.cpp</text>
</a>
</g>
</g>
<!-- Node262&#45;&gt;Node141 -->
<g id="edge98" class="edge">
<title>Node262&#45;&gt;Node141</title>
<path fill="none" stroke="#191970" d="M2207.9411,-240.0135C2298.6529,-232.1317 2478.9279,-215.9413 2631.5769,-199 2634.325,-198.695 2637.1258,-198.3766 2639.9545,-198.0488"/>
<polygon fill="#191970" stroke="#191970" points="2207.5194,-236.5369 2197.859,-240.8874 2208.1239,-243.5107 2207.5194,-236.5369"/>
</g>
<!-- Node275 -->
<g id="node46" class="node">
<title>Node275</title>
<g id="a_node46"><a xlink:href="Optimizer_8cpp.html" target="_top" xlink:title="Optimizer.cpp">
<polygon fill="none" stroke="#000000" points="2799.5769,-179.5 2799.5769,-198.5 2883.5769,-198.5 2883.5769,-179.5 2799.5769,-179.5"/>
<text text-anchor="middle" x="2841.5769" y="-186.5" font-family="FreeSans.ttf" font-size="10.00" fill="#000000">Optimizer.cpp</text>
</a>
</g>
</g>
<!-- Node262&#45;&gt;Node275 -->
<g id="edge99" class="edge">
<title>Node262&#45;&gt;Node275</title>
<path fill="none" stroke="#191970" d="M2207.7692,-243.2009C2320.6176,-239.1872 2576.8951,-227.5082 2790.5769,-199 2793.4388,-198.6182 2796.3821,-198.1756 2799.3418,-197.6933"/>
<polygon fill="#191970" stroke="#191970" points="2207.4972,-239.7082 2197.6253,-243.5547 2207.7413,-246.7039 2207.4972,-239.7082"/>
</g>
<!-- Node207 -->
<g id="node47" class="node">
<title>Node207</title>
<g id="a_node47"><a xlink:href="Sensors_8h.html" target="_top" xlink:title="Sensors.h">
<polygon fill="none" stroke="#ff0000" points="3425.5769,-179.5 3425.5769,-198.5 3489.5769,-198.5 3489.5769,-179.5 3425.5769,-179.5"/>
<text text-anchor="middle" x="3457.5769" y="-186.5" font-family="FreeSans.ttf" font-size="10.00" fill="#000000">Sensors.h</text>
</a>
</g>
</g>
<!-- Node262&#45;&gt;Node207 -->
<g id="edge101" class="edge">
<title>Node262&#45;&gt;Node207</title>
<path fill="none" stroke="#191970" d="M2207.8121,-244.251C2423.1314,-241.2677 3174.0144,-228.9106 3411.5769,-199 3416.1177,-198.4283 3420.8731,-197.6282 3425.5319,-196.727"/>
<polygon fill="#191970" stroke="#191970" points="2207.6197,-240.7532 2197.6687,-244.39 2207.7158,-247.7525 2207.6197,-240.7532"/>
</g>
<!-- Node167 -->
<g id="node48" class="node">
<title>Node167</title>
<g id="a_node48"><a xlink:href="Sensors_8cpp.html" target="_top" xlink:title="Sensors.cpp">
<polygon fill="none" stroke="#000000" points="3388.0769,-118 3388.0769,-137 3463.0769,-137 3463.0769,-118 3388.0769,-118"/>
<text text-anchor="middle" x="3425.5769" y="-125" font-family="FreeSans.ttf" font-size="10.00" fill="#000000">Sensors.cpp</text>
</a>
</g>
</g>
<!-- Node262&#45;&gt;Node167 -->
<g id="edge104" class="edge">
<title>Node262&#45;&gt;Node167</title>
<path fill="none" stroke="#191970" d="M2208.0909,-244.1036C2464.3376,-240.0422 3475.8256,-222.5404 3498.5769,-199 3520.5216,-176.2943 3476.6569,-150.5963 3447.8896,-137.0445"/>
<polygon fill="#191970" stroke="#191970" points="2207.8186,-240.6074 2197.8751,-244.2647 2207.929,-247.6065 2207.8186,-240.6074"/>
</g>
<!-- Node238 -->
<g id="node49" class="node">
<title>Node238</title>
<g id="a_node49"><a xlink:href="YARPConversions_8cpp.html" target="_top" xlink:title="YARPConversions.cpp">
<polygon fill="none" stroke="#000000" points="2901.5769,-179.5 2901.5769,-198.5 3023.5769,-198.5 3023.5769,-179.5 2901.5769,-179.5"/>
<text text-anchor="middle" x="2962.5769" y="-186.5" font-family="FreeSans.ttf" font-size="10.00" fill="#000000">YARPConversions.cpp</text>
</a>
</g>
</g>
<!-- Node262&#45;&gt;Node238 -->
<g id="edge108" class="edge">
<title>Node262&#45;&gt;Node238</title>
<path fill="none" stroke="#191970" d="M2208.0948,-242.9715C2333.707,-238.2672 2638.4036,-224.9812 2892.5769,-199 2895.5079,-198.7004 2898.5046,-198.3691 2901.5288,-198.0146"/>
<polygon fill="#191970" stroke="#191970" points="2207.7942,-239.4802 2197.9307,-243.348 2208.0534,-246.4754 2207.7942,-239.4802"/>
</g>
<!-- Node264&#45;&gt;Node42 -->
<g id="edge58" class="edge">
<title>Node264&#45;&gt;Node42</title>
<path fill="none" stroke="#191970" d="M2303.8585,-60.1113C2289.1645,-58.6439 2273.2745,-57.1601 2258.5769,-56 1994.2885,-35.139 1679.8077,-19.6945 1539.0853,-13.2761"/>
<polygon fill="#191970" stroke="#191970" points="2303.5087,-63.5937 2313.8108,-61.1203 2304.2149,-56.6294 2303.5087,-63.5937"/>
</g>
<!-- Node151&#45;&gt;Node47 -->
<g id="edge72" class="edge">
<title>Node151&#45;&gt;Node47</title>
<path fill="none" stroke="#191970" d="M624.1846,-111.6491C608.7627,-100.222 588.4553,-85.1749 575.4546,-75.5419"/>
<polygon fill="#191970" stroke="#191970" points="622.4897,-114.7493 632.6081,-117.8906 626.6571,-109.125 622.4897,-114.7493"/>
</g>
<!-- Node151&#45;&gt;Node95 -->
<g id="edge71" class="edge">
<title>Node151&#45;&gt;Node95</title>
<path fill="none" stroke="#191970" d="M695.2775,-115.7806C701.7522,-114.4171 708.3104,-113.1169 714.5769,-112 823.3129,-92.6194 952.5557,-77.5717 1018.3795,-70.4732"/>
<polygon fill="#191970" stroke="#191970" points="694.2577,-112.4202 685.2254,-117.958 695.7397,-119.2616 694.2577,-112.4202"/>
</g>
<!-- Node240&#45;&gt;Node151 -->
<g id="edge74" class="edge">
<title>Node240&#45;&gt;Node151</title>
<path fill="none" stroke="#191970" d="M540.1171,-175.1895C565.8121,-163.5701 601.8797,-147.2601 624.4761,-137.0419"/>
<polygon fill="#191970" stroke="#191970" points="538.4964,-172.0811 530.8269,-179.3906 541.3807,-178.4593 538.4964,-172.0811"/>
</g>
<!-- Node268&#45;&gt;Node60 -->
<g id="edge79" class="edge">
<title>Node268&#45;&gt;Node60</title>
<path fill="none" stroke="#191970" d="M3031.3319,-179.0462C2691.9296,-135.8796 2602.2287,-165.0511 2264.5769,-143 2223.2486,-140.301 2176.798,-136.4062 2140.7804,-133.1961"/>
<polygon fill="#191970" stroke="#191970" points="3031.0824,-182.5428 3041.4467,-180.3445 3031.9737,-175.5998 3031.0824,-182.5428"/>
</g>
<!-- Node268&#45;&gt;Node70 -->
<g id="edge80" class="edge">
<title>Node268&#45;&gt;Node70</title>
<path fill="none" stroke="#191970" d="M3089.9175,-170.2956C3104.6169,-143.7071 3131.0165,-95.9549 3142.2658,-75.6068"/>
<polygon fill="#191970" stroke="#191970" points="3086.688,-168.9033 3084.9127,-179.3484 3092.8142,-172.2902 3086.688,-168.9033"/>
</g>
<!-- Node269&#45;&gt;Node62 -->
<g id="edge82" class="edge">
<title>Node269&#45;&gt;Node62</title>
<path fill="none" stroke="#191970" d="M3790.1675,-172.8692C3776.5568,-161.5576 3758.8071,-146.8062 3747.3024,-137.2449"/>
<polygon fill="#191970" stroke="#191970" points="3788.0866,-175.6907 3798.0144,-179.3906 3792.5607,-170.3072 3788.0866,-175.6907"/>
</g>
<!-- Node269&#45;&gt;Node69 -->
<g id="edge83" class="edge">
<title>Node269&#45;&gt;Node69</title>
<path fill="none" stroke="#191970" d="M3760.2686,-177.0612C3712.0638,-165.3895 3639.6077,-147.846 3595.0782,-137.0643"/>
<polygon fill="#191970" stroke="#191970" points="3759.6252,-180.5065 3770.1681,-179.4581 3761.2726,-173.7031 3759.6252,-180.5065"/>
</g>
<!-- Node269&#45;&gt;Node70 -->
<g id="edge84" class="edge">
<title>Node269&#45;&gt;Node70</title>
<path fill="none" stroke="#191970" d="M3811.7837,-169.3023C3812.5684,-151.5235 3810.4613,-126.0641 3794.5769,-112 3773.499,-93.3376 3390.4578,-75.759 3223.886,-68.9614"/>
<polygon fill="#191970" stroke="#191970" points="3808.2809,-169.2025 3810.9926,-179.4444 3815.2597,-169.7469 3808.2809,-169.2025"/>
</g>
<!-- Node207&#45;&gt;Node95 -->
<g id="edge102" class="edge">
<title>Node207&#45;&gt;Node95</title>
<path fill="none" stroke="#191970" d="M3429.4904,-175.0167C3390.637,-156.4938 3317.7759,-124.687 3251.5769,-112 3142.3296,-91.0628 1403.0326,-69.9679 1104.8977,-66.4969"/>
<polygon fill="#191970" stroke="#191970" points="3428.0838,-178.2241 3438.611,-179.42 3431.1273,-171.9203 3428.0838,-178.2241"/>
</g>
<!-- Node207&#45;&gt;Node167 -->
<g id="edge103" class="edge">
<title>Node207&#45;&gt;Node167</title>
<path fill="none" stroke="#191970" d="M3447.8224,-170.253C3442.1547,-159.3606 3435.2469,-146.0846 3430.6474,-137.2449"/>
<polygon fill="#191970" stroke="#191970" points="3444.8562,-172.1352 3452.5769,-179.3906 3451.0659,-168.9041 3444.8562,-172.1352"/>
</g>
<!-- Node276&#45;&gt;Node13 -->
<g id="edge111" class="edge">
<title>Node276&#45;&gt;Node13</title>
<path fill="none" stroke="#191970" d="M525.9539,-242.2916C723.3429,-232.6376 1390.3142,-200.0172 1570.4296,-191.2081"/>
<polygon fill="#191970" stroke="#191970" points="525.632,-238.8031 515.8149,-242.7875 525.974,-245.7947 525.632,-238.8031"/>
</g>
<!-- Node276&#45;&gt;Node42 -->
<g id="edge114" class="edge">
<title>Node276&#45;&gt;Node42</title>
<path fill="none" stroke="#191970" d="M415.1352,-243.5279C298.9046,-239.8683 38.2101,-228.4357 11.5769,-199 -10.1917,-174.9408 1.3009,-141.1099 39.5769,-112 147.5415,-29.89 1111.4699,-13.6287 1389.7022,-10.6349"/>
<polygon fill="#191970" stroke="#191970" points="415.1513,-247.0299 425.254,-243.8382 415.366,-240.0332 415.1513,-247.0299"/>
</g>
<!-- Node276&#45;&gt;Node80 -->
<g id="edge118" class="edge">
<title>Node276&#45;&gt;Node80</title>
<path fill="none" stroke="#191970" d="M415.4599,-239.7128C363.4858,-233.4526 291.0232,-220.9894 273.5769,-199 268.0521,-192.0366 267.5557,-185.5389 273.5769,-179 306.5043,-143.2418 661.213,-147.8783 709.5769,-143 724.7286,-141.4717 740.854,-139.6817 756.4054,-137.8716"/>
<polygon fill="#191970" stroke="#191970" points="415.2227,-243.2087 425.5591,-240.8831 416.0285,-236.2552 415.2227,-243.2087"/>
</g>
<!-- Node276&#45;&gt;Node95 -->
<g id="edge112" class="edge">
<title>Node276&#45;&gt;Node95</title>
<path fill="none" stroke="#191970" d="M415.0082,-240.2325C360.8343,-234.2965 283.993,-222.0064 265.5769,-199 260.022,-192.0606 261.3916,-186.8419 265.5769,-179 290.7659,-131.8032 314.9337,-129.242 365.5769,-112 427.1933,-91.022 876.2283,-72.835 1018.4794,-67.5475"/>
<polygon fill="#191970" stroke="#191970" points="414.8672,-243.7369 425.1785,-241.3022 415.5995,-236.7753 414.8672,-243.7369"/>
</g>
<!-- Node276&#45;&gt;Node98 -->
<g id="edge113" class="edge">
<title>Node276&#45;&gt;Node98</title>
<path fill="none" stroke="#191970" d="M525.9304,-238.3906C608.6582,-228.5127 764.963,-209.8494 859.949,-198.5078"/>
<polygon fill="#191970" stroke="#191970" points="525.4872,-234.9186 515.9727,-239.5796 526.3172,-241.8692 525.4872,-234.9186"/>
</g>
<!-- Node276&#45;&gt;Node103 -->
<g id="edge115" class="edge">
<title>Node276&#45;&gt;Node103</title>
<path fill="none" stroke="#191970" d="M415.3166,-236.9621C345.2182,-226.766 224.5368,-209.2123 150.2338,-198.4046"/>
<polygon fill="#191970" stroke="#191970" points="414.8807,-240.4355 425.2804,-238.4114 415.8883,-233.5084 414.8807,-240.4355"/>
</g>
<!-- Node276&#45;&gt;Node120 -->
<g id="edge116" class="edge">
<title>Node276&#45;&gt;Node120</title>
<path fill="none" stroke="#191970" d="M440.5665,-231.1109C418.6244,-220.9559 389.4381,-207.4482 370.1061,-198.5011"/>
<polygon fill="#191970" stroke="#191970" points="439.231,-234.3494 449.7763,-235.3733 442.1711,-227.9968 439.231,-234.3494"/>
</g>
<!-- Node276&#45;&gt;Node263 -->
<g id="edge110" class="edge">
<title>Node276&#45;&gt;Node263</title>
<path fill="none" stroke="#191970" d="M525.9514,-234.2327C581.703,-223.3921 666.4557,-206.9125 716.7978,-197.1237"/>
<polygon fill="#191970" stroke="#191970" points="525.0418,-230.844 515.8937,-236.1884 526.3779,-237.7153 525.0418,-230.844"/>
</g>
<!-- Node276&#45;&gt;Node240 -->
<g id="edge117" class="edge">
<title>Node276&#45;&gt;Node240</title>
<path fill="none" stroke="#191970" d="M483.1677,-226.9209C489.7164,-217.5176 497.4593,-206.3997 502.8615,-198.6427"/>
<polygon fill="#191970" stroke="#191970" points="480.213,-225.0392 477.3702,-235.2455 485.9573,-229.0397 480.213,-225.0392"/>
</g>
</g>
</svg>
