<?xml version="1.0" encoding="UTF-8" standalone="no"?>
<!DOCTYPE svg PUBLIC "-//W3C//DTD SVG 1.1//EN"
 "http://www.w3.org/Graphics/SVG/1.1/DTD/svg11.dtd">
<!-- Generated by graphviz version 2.40.1 (20161225.0304)
 -->
<!-- Title: SparsityStructure.h Pages: 1 -->
<svg width="412pt" height="140pt"
 viewBox="0.00 0.00 411.50 140.00" xmlns="http://www.w3.org/2000/svg" xmlns:xlink="http://www.w3.org/1999/xlink">
<g id="graph0" class="graph" transform="scale(1 1) rotate(0) translate(4 136)">
<title>SparsityStructure.h</title>
<!-- Node0 -->
<g id="node1" class="node">
<title>Node0</title>
<polygon fill="#bfbfbf" stroke="#000000" points="158.5,-112.5 158.5,-131.5 268.5,-131.5 268.5,-112.5 158.5,-112.5"/>
<text text-anchor="middle" x="213.5" y="-119.5" font-family="FreeSans.ttf" font-size="10.00" fill="#000000">SparsityStructure.h</text>
</g>
<!-- Node1 -->
<g id="node2" class="node">
<title>Node1</title>
<g id="a_node2"><a xlink:href="Utils_8h.html" target="_top" xlink:title="iDynTree/Core/Utils.h">
<polygon fill="none" stroke="#000000" points="53,-56.5 53,-75.5 172,-75.5 172,-56.5 53,-56.5"/>
<text text-anchor="middle" x="112.5" y="-63.5" font-family="FreeSans.ttf" font-size="10.00" fill="#000000">iDynTree/Core/Utils.h</text>
</a>
</g>
</g>
<!-- Node0&#45;&gt;Node1 -->
<g id="edge1" class="edge">
<title>Node0&#45;&gt;Node1</title>
<path fill="none" stroke="#191970" d="M195.9071,-112.2455C180.121,-103.4928 156.7361,-90.527 138.7413,-80.5496"/>
<polygon fill="#191970" stroke="#191970" points="140.3341,-77.4308 129.8913,-75.6427 136.9397,-83.5528 140.3341,-77.4308"/>
</g>
<!-- Node2 -->
<g id="node3" class="node">
<title>Node2</title>
<polygon fill="none" stroke="#bfbfbf" points="0,-.5 0,-19.5 53,-19.5 53,-.5 0,-.5"/>
<text text-anchor="middle" x="26.5" y="-7.5" font-family="FreeSans.ttf" font-size="10.00" fill="#000000">cstddef</text>
</g>
<!-- Node0&#45;&gt;Node2 -->
<g id="edge5" class="edge">
<title>Node0&#45;&gt;Node2</title>
<path fill="none" stroke="#191970" d="M158.4875,-113.2619C115.211,-105.3023 59.6161,-92.3133 43.5,-76 31.4397,-63.7921 27.5881,-44.2334 26.5152,-29.571"/>
<polygon fill="#191970" stroke="#191970" points="30.0107,-29.3808 26.1464,-19.5159 23.0154,-29.6375 30.0107,-29.3808"/>
</g>
<!-- Node4 -->
<g id="node5" class="node">
<title>Node4</title>
<polygon fill="none" stroke="#bfbfbf" points="190,-56.5 190,-75.5 237,-75.5 237,-56.5 190,-56.5"/>
<text text-anchor="middle" x="213.5" y="-63.5" font-family="FreeSans.ttf" font-size="10.00" fill="#000000">vector</text>
</g>
<!-- Node0&#45;&gt;Node4 -->
<g id="edge4" class="edge">
<title>Node0&#45;&gt;Node4</title>
<path fill="none" stroke="#191970" d="M213.5,-112.2455C213.5,-104.9382 213.5,-94.6944 213.5,-85.7046"/>
<polygon fill="#191970" stroke="#191970" points="217.0001,-85.6426 213.5,-75.6427 210.0001,-85.6427 217.0001,-85.6426"/>
</g>
<!-- Node5 -->
<g id="node6" class="node">
<title>Node5</title>
<polygon fill="none" stroke="#bfbfbf" points="255.5,-56.5 255.5,-75.5 341.5,-75.5 341.5,-56.5 255.5,-56.5"/>
<text text-anchor="middle" x="298.5" y="-63.5" font-family="FreeSans.ttf" font-size="10.00" fill="#000000">unordered_set</text>
</g>
<!-- Node0&#45;&gt;Node5 -->
<g id="edge6" class="edge">
<title>Node0&#45;&gt;Node5</title>
<path fill="none" stroke="#191970" d="M228.3059,-112.2455C241.2256,-103.7337 260.1931,-91.2375 275.1552,-81.3801"/>
<polygon fill="#191970" stroke="#191970" points="277.4387,-84.067 283.8638,-75.6427 273.5876,-78.2216 277.4387,-84.067"/>
</g>
<!-- Node6 -->
<g id="node7" class="node">
<title>Node6</title>
<polygon fill="none" stroke="#bfbfbf" points="359.5,-56.5 359.5,-75.5 403.5,-75.5 403.5,-56.5 359.5,-56.5"/>
<text text-anchor="middle" x="381.5" y="-63.5" font-family="FreeSans.ttf" font-size="10.00" fill="#000000">string</text>
</g>
<!-- Node0&#45;&gt;Node6 -->
<g id="edge7" class="edge">
<title>Node0&#45;&gt;Node6</title>
<path fill="none" stroke="#191970" d="M242.3802,-112.3733C272.218,-102.4273 318.6685,-86.9438 349.5791,-76.6403"/>
<polygon fill="#191970" stroke="#191970" points="351.0396,-79.8429 359.4196,-73.3601 348.8259,-73.2021 351.0396,-79.8429"/>
</g>
<!-- Node1&#45;&gt;Node2 -->
<g id="edge2" class="edge">
<title>Node1&#45;&gt;Node2</title>
<path fill="none" stroke="#191970" d="M97.5199,-56.2455C84.3249,-47.6534 64.8949,-35.0014 49.6921,-25.1018"/>
<polygon fill="#191970" stroke="#191970" points="51.5983,-22.1665 41.3084,-19.6427 47.7785,-28.0325 51.5983,-22.1665"/>
</g>
<!-- Node3 -->
<g id="node4" class="node">
<title>Node3</title>
<polygon fill="none" stroke="#bfbfbf" points="72.5,-.5 72.5,-19.5 152.5,-19.5 152.5,-.5 72.5,-.5"/>
<text text-anchor="middle" x="112.5" y="-7.5" font-family="FreeSans.ttf" font-size="10.00" fill="#000000">CoreExport.h</text>
</g>
<!-- Node1&#45;&gt;Node3 -->
<g id="edge3" class="edge">
<title>Node1&#45;&gt;Node3</title>
<path fill="none" stroke="#191970" d="M112.5,-56.2455C112.5,-48.9382 112.5,-38.6944 112.5,-29.7046"/>
<polygon fill="#191970" stroke="#191970" points="116.0001,-29.6426 112.5,-19.6427 109.0001,-29.6427 116.0001,-29.6426"/>
</g>
</g>
</svg>
