<?xml version="1.0" encoding="UTF-8" standalone="no"?>
<!DOCTYPE svg PUBLIC "-//W3C//DTD SVG 1.1//EN"
 "http://www.w3.org/Graphics/SVG/1.1/DTD/svg11.dtd">
<!-- Generated by graphviz version 2.40.1 (20161225.0304)
 -->
<!-- Title: SpatialForceVector.cpp Pages: 1 -->
<svg width="1464pt" height="599pt"
 viewBox="0.00 0.00 1463.50 599.00" xmlns="http://www.w3.org/2000/svg" xmlns:xlink="http://www.w3.org/1999/xlink">
<g id="graph0" class="graph" transform="scale(1 1) rotate(0) translate(4 595)">
<title>SpatialForceVector.cpp</title>
<!-- Node0 -->
<g id="node1" class="node">
<title>Node0</title>
<polygon fill="#bfbfbf" stroke="#000000" points="44.5,-571.5 44.5,-590.5 171.5,-590.5 171.5,-571.5 44.5,-571.5"/>
<text text-anchor="middle" x="108" y="-578.5" font-family="FreeSans.ttf" font-size="10.00" fill="#000000">SpatialForceVector.cpp</text>
</g>
<!-- Node1 -->
<g id="node2" class="node">
<title>Node1</title>
<g id="a_node2"><a xlink:href="SpatialForceVector_8h.html" target="_top" xlink:title="iDynTree/Core/SpatialForce\lVector.h">
<polygon fill="none" stroke="#000000" points="104,-448.5 104,-478.5 252,-478.5 252,-448.5 104,-448.5"/>
<text text-anchor="start" x="112" y="-466.5" font-family="FreeSans.ttf" font-size="10.00" fill="#000000">iDynTree/Core/SpatialForce</text>
<text text-anchor="middle" x="178" y="-455.5" font-family="FreeSans.ttf" font-size="10.00" fill="#000000">Vector.h</text>
</a>
</g>
</g>
<!-- Node0&#45;&gt;Node1 -->
<g id="edge1" class="edge">
<title>Node0&#45;&gt;Node1</title>
<path fill="none" stroke="#191970" d="M113.7284,-571.3845C124.5466,-553.2254 148.2765,-513.393 163.6781,-487.5404"/>
<polygon fill="#191970" stroke="#191970" points="166.8249,-489.0967 168.9362,-478.7143 160.8112,-485.514 166.8249,-489.0967"/>
</g>
<!-- Node3 -->
<g id="node4" class="node">
<title>Node3</title>
<g id="a_node4"><a xlink:href="Utils_8h.html" target="_top" xlink:title="iDynTree/Core/Utils.h">
<polygon fill="none" stroke="#000000" points="90.5,-56.5 90.5,-75.5 209.5,-75.5 209.5,-56.5 90.5,-56.5"/>
<text text-anchor="middle" x="150" y="-63.5" font-family="FreeSans.ttf" font-size="10.00" fill="#000000">iDynTree/Core/Utils.h</text>
</a>
</g>
</g>
<!-- Node0&#45;&gt;Node3 -->
<g id="edge51" class="edge">
<title>Node0&#45;&gt;Node3</title>
<path fill="none" stroke="#191970" d="M88.9404,-571.4226C57.9357,-554.3339 0,-515.4512 0,-463.5 0,-463.5 0,-463.5 0,-178 0,-125.275 60.2388,-94.3967 104.3682,-78.85"/>
<polygon fill="#191970" stroke="#191970" points="105.711,-82.091 114.0713,-75.5829 103.4772,-75.457 105.711,-82.091"/>
</g>
<!-- Node16 -->
<g id="node17" class="node">
<title>Node16</title>
<polygon fill="none" stroke="#bfbfbf" points="189,-112.5 189,-131.5 245,-131.5 245,-112.5 189,-112.5"/>
<text text-anchor="middle" x="217" y="-119.5" font-family="FreeSans.ttf" font-size="10.00" fill="#000000">sstream</text>
</g>
<!-- Node0&#45;&gt;Node16 -->
<g id="edge73" class="edge">
<title>Node0&#45;&gt;Node16</title>
<path fill="none" stroke="#191970" d="M97.3685,-571.4806C77.7862,-552.8398 38,-509.3277 38,-463.5 38,-463.5 38,-463.5 38,-346 38,-248.2894 143.23,-168.73 192.3237,-136.9293"/>
<polygon fill="#191970" stroke="#191970" points="194.2292,-139.8654 200.7992,-131.5536 190.4799,-133.9541 194.2292,-139.8654"/>
</g>
<!-- Node27 -->
<g id="node28" class="node">
<title>Node27</title>
<g id="a_node28"><a xlink:href="EigenHelpers_8h.html" target="_top" xlink:title="iDynTree/Core/EigenHelpers.h">
<polygon fill="none" stroke="#000000" points="336.5,-515.5 336.5,-534.5 497.5,-534.5 497.5,-515.5 336.5,-515.5"/>
<text text-anchor="middle" x="417" y="-522.5" font-family="FreeSans.ttf" font-size="10.00" fill="#000000">iDynTree/Core/EigenHelpers.h</text>
</a>
</g>
</g>
<!-- Node0&#45;&gt;Node27 -->
<g id="edge52" class="edge">
<title>Node0&#45;&gt;Node27</title>
<path fill="none" stroke="#191970" d="M160.7679,-571.4369C214.4285,-561.712 297.5627,-546.6456 354.491,-536.3285"/>
<polygon fill="#191970" stroke="#191970" points="355.2342,-539.7509 364.4497,-534.5237 353.9859,-532.8631 355.2342,-539.7509"/>
</g>
<!-- Node2 -->
<g id="node3" class="node">
<title>Node2</title>
<g id="a_node3"><a xlink:href="VectorFixSize_8h.html" target="_top" xlink:title="iDynTree/Core/VectorFixSize.h">
<polygon fill="none" stroke="#000000" points="328.5,-168.5 328.5,-187.5 489.5,-187.5 489.5,-168.5 328.5,-168.5"/>
<text text-anchor="middle" x="409" y="-175.5" font-family="FreeSans.ttf" font-size="10.00" fill="#000000">iDynTree/Core/VectorFixSize.h</text>
</a>
</g>
</g>
<!-- Node1&#45;&gt;Node2 -->
<g id="edge2" class="edge">
<title>Node1&#45;&gt;Node2</title>
<path fill="none" stroke="#191970" d="M176.87,-448.4942C174.5395,-405.2488 174.4802,-279.8921 246,-224 262.3925,-211.1894 310.4671,-198.4861 350.1895,-189.6857"/>
<polygon fill="#191970" stroke="#191970" points="351.0559,-193.0791 360.0842,-187.5347 349.5689,-186.2389 351.0559,-193.0791"/>
</g>
<!-- Node18 -->
<g id="node19" class="node">
<title>Node18</title>
<g id="a_node19"><a xlink:href="GeomVector3_8h.html" target="_top" xlink:title="iDynTree/Core/GeomVector3.h">
<polygon fill="none" stroke="#000000" points="288.5,-224.5 288.5,-243.5 451.5,-243.5 451.5,-224.5 288.5,-224.5"/>
<text text-anchor="middle" x="370" y="-231.5" font-family="FreeSans.ttf" font-size="10.00" fill="#000000">iDynTree/Core/GeomVector3.h</text>
</a>
</g>
</g>
<!-- Node1&#45;&gt;Node18 -->
<g id="edge20" class="edge">
<title>Node1&#45;&gt;Node18</title>
<path fill="none" stroke="#191970" d="M190.5977,-448.4419C224.6986,-407.6806 318.6927,-295.3282 355.2157,-251.6719"/>
<polygon fill="#191970" stroke="#191970" points="357.987,-253.8139 361.7192,-243.8981 352.6181,-249.3222 357.987,-253.8139"/>
</g>
<!-- Node19 -->
<g id="node20" class="node">
<title>Node19</title>
<g id="a_node20"><a xlink:href="SpatialVector_8h.html" target="_top" xlink:title="iDynTree/Core/SpatialVector.h">
<polygon fill="none" stroke="#000000" points="294.5,-392.5 294.5,-411.5 455.5,-411.5 455.5,-392.5 294.5,-392.5"/>
<text text-anchor="middle" x="375" y="-399.5" font-family="FreeSans.ttf" font-size="10.00" fill="#000000">iDynTree/Core/SpatialVector.h</text>
</a>
</g>
</g>
<!-- Node1&#45;&gt;Node19 -->
<g id="edge22" class="edge">
<title>Node1&#45;&gt;Node19</title>
<path fill="none" stroke="#191970" d="M226.1916,-448.4554C259.4941,-438.059 303.2843,-424.3884 334.7264,-414.5727"/>
<polygon fill="#191970" stroke="#191970" points="335.9693,-417.8514 344.472,-411.5303 333.8833,-411.1694 335.9693,-417.8514"/>
</g>
<!-- Node2&#45;&gt;Node3 -->
<g id="edge3" class="edge">
<title>Node2&#45;&gt;Node3</title>
<path fill="none" stroke="#191970" d="M386.9178,-168.4509C340.8526,-148.5308 234.3929,-102.4942 181.2936,-79.5323"/>
<polygon fill="#191970" stroke="#191970" points="182.5941,-76.2816 172.0263,-75.5249 179.8157,-82.7066 182.5941,-76.2816"/>
</g>
<!-- Node6 -->
<g id="node7" class="node">
<title>Node6</title>
<g id="a_node7"><a xlink:href="Span_8h.html" target="_top" xlink:title="iDynTree/Core/Span.h">
<polygon fill="none" stroke="#000000" points="348.5,-56.5 348.5,-75.5 469.5,-75.5 469.5,-56.5 348.5,-56.5"/>
<text text-anchor="middle" x="409" y="-63.5" font-family="FreeSans.ttf" font-size="10.00" fill="#000000">iDynTree/Core/Span.h</text>
</a>
</g>
</g>
<!-- Node2&#45;&gt;Node6 -->
<g id="edge6" class="edge">
<title>Node2&#45;&gt;Node6</title>
<path fill="none" stroke="#191970" d="M409,-168.4509C409,-150.184 409,-109.9553 409,-85.6976"/>
<polygon fill="#191970" stroke="#191970" points="412.5001,-85.5249 409,-75.5249 405.5001,-85.5249 412.5001,-85.5249"/>
</g>
<!-- Node7 -->
<g id="node8" class="node">
<title>Node7</title>
<polygon fill="none" stroke="#bfbfbf" points="652,-.5 652,-19.5 704,-19.5 704,-.5 652,-.5"/>
<text text-anchor="middle" x="678" y="-7.5" font-family="FreeSans.ttf" font-size="10.00" fill="#000000">cassert</text>
</g>
<!-- Node2&#45;&gt;Node7 -->
<g id="edge18" class="edge">
<title>Node2&#45;&gt;Node7</title>
<path fill="none" stroke="#191970" d="M417.1353,-168.056C428.8427,-154.1997 451.6171,-128.8884 475,-112 529.466,-72.6616 601.3292,-40.5132 643.3216,-23.4039"/>
<polygon fill="#191970" stroke="#191970" points="644.8493,-26.562 652.8208,-19.5831 642.237,-20.0677 644.8493,-26.562"/>
</g>
<!-- Node15 -->
<g id="node16" class="node">
<title>Node15</title>
<polygon fill="none" stroke="#bfbfbf" points="714,-112.5 714,-131.5 758,-131.5 758,-112.5 714,-112.5"/>
<text text-anchor="middle" x="736" y="-119.5" font-family="FreeSans.ttf" font-size="10.00" fill="#000000">string</text>
</g>
<!-- Node2&#45;&gt;Node15 -->
<g id="edge16" class="edge">
<title>Node2&#45;&gt;Node15</title>
<path fill="none" stroke="#191970" d="M464.8418,-168.4369C533.7316,-156.6392 648.5244,-136.9805 704.0209,-127.4765"/>
<polygon fill="#191970" stroke="#191970" points="704.7183,-130.9082 713.984,-125.7703 703.5367,-124.0086 704.7183,-130.9082"/>
</g>
<!-- Node2&#45;&gt;Node16 -->
<g id="edge17" class="edge">
<title>Node2&#45;&gt;Node16</title>
<path fill="none" stroke="#191970" d="M375.994,-168.3733C342.4247,-158.5822 290.4563,-143.4247 255.1443,-133.1254"/>
<polygon fill="#191970" stroke="#191970" points="255.7878,-129.6673 245.2078,-130.2273 253.8277,-136.3873 255.7878,-129.6673"/>
</g>
<!-- Node17 -->
<g id="node18" class="node">
<title>Node17</title>
<polygon fill="none" stroke="#bfbfbf" points="484,-112.5 484,-131.5 534,-131.5 534,-112.5 484,-112.5"/>
<text text-anchor="middle" x="509" y="-119.5" font-family="FreeSans.ttf" font-size="10.00" fill="#000000">cstring</text>
</g>
<!-- Node2&#45;&gt;Node17 -->
<g id="edge19" class="edge">
<title>Node2&#45;&gt;Node17</title>
<path fill="none" stroke="#191970" d="M426.4187,-168.2455C442.0485,-159.4928 465.2019,-146.527 483.0185,-136.5496"/>
<polygon fill="#191970" stroke="#191970" points="484.766,-139.5825 491.7809,-131.6427 481.3457,-133.475 484.766,-139.5825"/>
</g>
<!-- Node4 -->
<g id="node5" class="node">
<title>Node4</title>
<polygon fill="none" stroke="#bfbfbf" points="157.5,-.5 157.5,-19.5 210.5,-19.5 210.5,-.5 157.5,-.5"/>
<text text-anchor="middle" x="184" y="-7.5" font-family="FreeSans.ttf" font-size="10.00" fill="#000000">cstddef</text>
</g>
<!-- Node3&#45;&gt;Node4 -->
<g id="edge4" class="edge">
<title>Node3&#45;&gt;Node4</title>
<path fill="none" stroke="#191970" d="M155.9223,-56.2455C160.6027,-48.5367 167.2673,-37.5598 172.9289,-28.2348"/>
<polygon fill="#191970" stroke="#191970" points="175.9475,-30.007 178.1455,-19.6427 169.9639,-26.3741 175.9475,-30.007"/>
</g>
<!-- Node5 -->
<g id="node6" class="node">
<title>Node5</title>
<polygon fill="none" stroke="#bfbfbf" points="59,-.5 59,-19.5 139,-19.5 139,-.5 59,-.5"/>
<text text-anchor="middle" x="99" y="-7.5" font-family="FreeSans.ttf" font-size="10.00" fill="#000000">CoreExport.h</text>
</g>
<!-- Node3&#45;&gt;Node5 -->
<g id="edge5" class="edge">
<title>Node3&#45;&gt;Node5</title>
<path fill="none" stroke="#191970" d="M141.1165,-56.2455C133.8034,-48.2155 123.2609,-36.6394 114.5533,-27.0781"/>
<polygon fill="#191970" stroke="#191970" points="117.1028,-24.6795 107.7817,-19.6427 111.9273,-29.3928 117.1028,-24.6795"/>
</g>
<!-- Node6&#45;&gt;Node4 -->
<g id="edge10" class="edge">
<title>Node6&#45;&gt;Node4</title>
<path fill="none" stroke="#191970" d="M367.9809,-56.4188C331.73,-47.8614 277.1887,-34.7684 220.557,-20.0862"/>
<polygon fill="#191970" stroke="#191970" points="221.2698,-16.6551 210.7105,-17.5226 219.5061,-23.4293 221.2698,-16.6551"/>
</g>
<!-- Node6&#45;&gt;Node7 -->
<g id="edge7" class="edge">
<title>Node6&#45;&gt;Node7</title>
<path fill="none" stroke="#191970" d="M464.6021,-56.4313C509.9634,-48.3158 575.8855,-35.8211 641.9446,-20.1146"/>
<polygon fill="#191970" stroke="#191970" points="642.7835,-23.5128 651.6896,-17.7741 641.1487,-16.7063 642.7835,-23.5128"/>
</g>
<!-- Node8 -->
<g id="node9" class="node">
<title>Node8</title>
<polygon fill="none" stroke="#bfbfbf" points="229,-.5 229,-19.5 293,-19.5 293,-.5 229,-.5"/>
<text text-anchor="middle" x="261" y="-7.5" font-family="FreeSans.ttf" font-size="10.00" fill="#000000">algorithm</text>
</g>
<!-- Node6&#45;&gt;Node8 -->
<g id="edge8" class="edge">
<title>Node6&#45;&gt;Node8</title>
<path fill="none" stroke="#191970" d="M383.5579,-56.3733C359.2674,-47.1822 322.4792,-33.2624 295.5457,-23.0713"/>
<polygon fill="#191970" stroke="#191970" points="296.7016,-19.7666 286.1101,-19.5011 294.2243,-26.3136 296.7016,-19.7666"/>
</g>
<!-- Node9 -->
<g id="node10" class="node">
<title>Node9</title>
<polygon fill="none" stroke="#bfbfbf" points="311,-.5 311,-19.5 353,-19.5 353,-.5 311,-.5"/>
<text text-anchor="middle" x="332" y="-7.5" font-family="FreeSans.ttf" font-size="10.00" fill="#000000">array</text>
</g>
<!-- Node6&#45;&gt;Node9 -->
<g id="edge9" class="edge">
<title>Node6&#45;&gt;Node9</title>
<path fill="none" stroke="#191970" d="M395.5876,-56.2455C383.9943,-47.814 367.0252,-35.4729 353.5322,-25.6598"/>
<polygon fill="#191970" stroke="#191970" points="355.4047,-22.6938 345.2587,-19.6427 351.2874,-28.355 355.4047,-22.6938"/>
</g>
<!-- Node10 -->
<g id="node11" class="node">
<title>Node10</title>
<polygon fill="none" stroke="#bfbfbf" points="371.5,-.5 371.5,-19.5 424.5,-19.5 424.5,-.5 371.5,-.5"/>
<text text-anchor="middle" x="398" y="-7.5" font-family="FreeSans.ttf" font-size="10.00" fill="#000000">iterator</text>
</g>
<!-- Node6&#45;&gt;Node10 -->
<g id="edge11" class="edge">
<title>Node6&#45;&gt;Node10</title>
<path fill="none" stroke="#191970" d="M407.0839,-56.2455C405.6486,-48.9382 403.6364,-38.6944 401.8705,-29.7046"/>
<polygon fill="#191970" stroke="#191970" points="405.256,-28.7805 399.8941,-19.6427 398.3873,-30.1298 405.256,-28.7805"/>
</g>
<!-- Node11 -->
<g id="node12" class="node">
<title>Node11</title>
<polygon fill="none" stroke="#bfbfbf" points="443,-.5 443,-19.5 487,-19.5 487,-.5 443,-.5"/>
<text text-anchor="middle" x="465" y="-7.5" font-family="FreeSans.ttf" font-size="10.00" fill="#000000">limits</text>
</g>
<!-- Node6&#45;&gt;Node11 -->
<g id="edge12" class="edge">
<title>Node6&#45;&gt;Node11</title>
<path fill="none" stroke="#191970" d="M418.7545,-56.2455C426.8648,-48.1352 438.5925,-36.4075 448.2081,-26.7919"/>
<polygon fill="#191970" stroke="#191970" points="450.7611,-29.1887 455.3573,-19.6427 445.8113,-24.2389 450.7611,-29.1887"/>
</g>
<!-- Node12 -->
<g id="node13" class="node">
<title>Node12</title>
<polygon fill="none" stroke="#bfbfbf" points="505.5,-.5 505.5,-19.5 570.5,-19.5 570.5,-.5 505.5,-.5"/>
<text text-anchor="middle" x="538" y="-7.5" font-family="FreeSans.ttf" font-size="10.00" fill="#000000">stdexcept</text>
</g>
<!-- Node6&#45;&gt;Node12 -->
<g id="edge13" class="edge">
<title>Node6&#45;&gt;Node12</title>
<path fill="none" stroke="#191970" d="M431.1759,-56.3733C451.9766,-47.3435 483.2917,-33.7494 506.6458,-23.6111"/>
<polygon fill="#191970" stroke="#191970" points="508.3343,-26.6938 516.1135,-19.5011 505.5468,-20.2727 508.3343,-26.6938"/>
</g>
<!-- Node13 -->
<g id="node14" class="node">
<title>Node13</title>
<polygon fill="none" stroke="#bfbfbf" points="784.5,-.5 784.5,-19.5 853.5,-19.5 853.5,-.5 784.5,-.5"/>
<text text-anchor="middle" x="819" y="-7.5" font-family="FreeSans.ttf" font-size="10.00" fill="#000000">type_traits</text>
</g>
<!-- Node6&#45;&gt;Node13 -->
<g id="edge14" class="edge">
<title>Node6&#45;&gt;Node13</title>
<path fill="none" stroke="#191970" d="M469.9384,-57.6767C553.0714,-46.322 700.117,-26.2377 773.9905,-16.1476"/>
<polygon fill="#191970" stroke="#191970" points="774.9082,-19.5549 784.3426,-14.7337 773.9609,-12.6193 774.9082,-19.5549"/>
</g>
<!-- Node14 -->
<g id="node15" class="node">
<title>Node14</title>
<polygon fill="none" stroke="#bfbfbf" points="588.5,-.5 588.5,-19.5 633.5,-19.5 633.5,-.5 588.5,-.5"/>
<text text-anchor="middle" x="611" y="-7.5" font-family="FreeSans.ttf" font-size="10.00" fill="#000000">utility</text>
</g>
<!-- Node6&#45;&gt;Node14 -->
<g id="edge15" class="edge">
<title>Node6&#45;&gt;Node14</title>
<path fill="none" stroke="#191970" d="M446.5097,-56.4771C479.1513,-48.064 527.9465,-35.1864 578.5503,-20.3416"/>
<polygon fill="#191970" stroke="#191970" points="579.7533,-23.6359 588.3531,-17.4476 577.7713,-16.9223 579.7533,-23.6359"/>
</g>
<!-- Node18&#45;&gt;Node2 -->
<g id="edge21" class="edge">
<title>Node18&#45;&gt;Node2</title>
<path fill="none" stroke="#191970" d="M376.7933,-224.2455C382.2178,-216.4564 389.9661,-205.3308 396.5033,-195.9439"/>
<polygon fill="#191970" stroke="#191970" points="399.4417,-197.849 402.2846,-187.6427 393.6975,-193.8485 399.4417,-197.849"/>
</g>
<!-- Node19&#45;&gt;Node3 -->
<g id="edge47" class="edge">
<title>Node19&#45;&gt;Node3</title>
<path fill="none" stroke="#191970" d="M357.4192,-392.4588C342.7506,-384.0092 321.7721,-370.7518 306,-356 219.8394,-275.4133 171.2195,-136.3111 155.6034,-85.394"/>
<polygon fill="#191970" stroke="#191970" points="158.9137,-84.2475 152.6971,-75.6682 152.2068,-86.2517 158.9137,-84.2475"/>
</g>
<!-- Node19&#45;&gt;Node16 -->
<g id="edge50" class="edge">
<title>Node19&#45;&gt;Node16</title>
<path fill="none" stroke="#191970" d="M364.4328,-392.4353C339.6891,-369.4276 277.6947,-308.1273 246,-244 229.3535,-210.3194 221.9719,-166.6086 218.9286,-141.6953"/>
<polygon fill="#191970" stroke="#191970" points="222.3984,-141.2285 217.8179,-131.675 215.441,-141.9997 222.3984,-141.2285"/>
</g>
<!-- Node19&#45;&gt;Node18 -->
<g id="edge48" class="edge">
<title>Node19&#45;&gt;Node18</title>
<path fill="none" stroke="#191970" d="M374.7169,-392.4862C373.9265,-365.9293 371.6835,-290.5651 370.6002,-254.1655"/>
<polygon fill="#191970" stroke="#191970" points="374.0885,-253.7193 370.2925,-243.8279 367.0916,-253.9276 374.0885,-253.7193"/>
</g>
<!-- Node20 -->
<g id="node21" class="node">
<title>Node20</title>
<g id="a_node21"><a xlink:href="Position_8h.html" target="_top" xlink:title="Position.h">
<polygon fill="none" stroke="#000000" points="740.5,-336.5 740.5,-355.5 805.5,-355.5 805.5,-336.5 740.5,-336.5"/>
<text text-anchor="middle" x="773" y="-343.5" font-family="FreeSans.ttf" font-size="10.00" fill="#000000">Position.h</text>
</a>
</g>
</g>
<!-- Node19&#45;&gt;Node20 -->
<g id="edge23" class="edge">
<title>Node19&#45;&gt;Node20</title>
<path fill="none" stroke="#191970" d="M442.9664,-392.4369C525.3258,-380.8486 661.5891,-361.6759 730.4133,-351.9921"/>
<polygon fill="#191970" stroke="#191970" points="731.0482,-355.4373 740.463,-350.5781 730.0728,-348.5056 731.0482,-355.4373"/>
</g>
<!-- Node22 -->
<g id="node23" class="node">
<title>Node22</title>
<g id="a_node23"><a xlink:href="Rotation_8h.html" target="_top" xlink:title="iDynTree/Core/Rotation.h">
<polygon fill="none" stroke="#000000" points="660.5,-280.5 660.5,-299.5 797.5,-299.5 797.5,-280.5 660.5,-280.5"/>
<text text-anchor="middle" x="729" y="-287.5" font-family="FreeSans.ttf" font-size="10.00" fill="#000000">iDynTree/Core/Rotation.h</text>
</a>
</g>
</g>
<!-- Node19&#45;&gt;Node22 -->
<g id="edge46" class="edge">
<title>Node19&#45;&gt;Node22</title>
<path fill="none" stroke="#191970" d="M405.1818,-392.4509C469.058,-372.2415 617.8959,-325.1516 689.3435,-302.5467"/>
<polygon fill="#191970" stroke="#191970" points="690.4161,-305.8784 698.8946,-299.5249 688.3046,-299.2045 690.4161,-305.8784"/>
</g>
<!-- Node26 -->
<g id="node27" class="node">
<title>Node26</title>
<polygon fill="none" stroke="#bfbfbf" points="552,-112.5 552,-131.5 612,-131.5 612,-112.5 552,-112.5"/>
<text text-anchor="middle" x="582" y="-119.5" font-family="FreeSans.ttf" font-size="10.00" fill="#000000">iostream</text>
</g>
<!-- Node19&#45;&gt;Node26 -->
<g id="edge49" class="edge">
<title>Node19&#45;&gt;Node26</title>
<path fill="none" stroke="#191970" d="M381.0163,-392.2553C401.4372,-359.4361 470.5885,-250.3794 538,-168 546.2519,-157.9158 556.2362,-147.3628 564.6066,-138.912"/>
<polygon fill="#191970" stroke="#191970" points="567.1202,-141.3484 571.744,-131.8157 562.1848,-136.3843 567.1202,-141.3484"/>
</g>
<!-- Node20&#45;&gt;Node15 -->
<g id="edge45" class="edge">
<title>Node20&#45;&gt;Node15</title>
<path fill="none" stroke="#191970" d="M805.5664,-343.6529C889.1346,-336.3614 1100.4189,-309.2142 1039,-224 965.3154,-121.7681 888.9567,-172.1745 767.6536,-133.4572"/>
<polygon fill="#191970" stroke="#191970" points="768.6747,-130.1081 758.0807,-130.2454 766.448,-136.7445 768.6747,-130.1081"/>
</g>
<!-- Node21 -->
<g id="node22" class="node">
<title>Node21</title>
<g id="a_node22"><a xlink:href="PositionRaw_8h.html" target="_top" xlink:title="iDynTree/Core/PositionRaw.h">
<polygon fill="none" stroke="#000000" points="698,-224.5 698,-243.5 854,-243.5 854,-224.5 698,-224.5"/>
<text text-anchor="middle" x="776" y="-231.5" font-family="FreeSans.ttf" font-size="10.00" fill="#000000">iDynTree/Core/PositionRaw.h</text>
</a>
</g>
</g>
<!-- Node20&#45;&gt;Node21 -->
<g id="edge24" class="edge">
<title>Node20&#45;&gt;Node21</title>
<path fill="none" stroke="#191970" d="M782.9362,-336.4913C791.176,-327.8654 802.2767,-314.3368 807,-300 812.654,-282.8382 802.3662,-264.2964 792.1559,-251.2485"/>
<polygon fill="#191970" stroke="#191970" points="794.7592,-248.9067 785.6258,-243.5372 789.4173,-253.4304 794.7592,-248.9067"/>
</g>
<!-- Node20&#45;&gt;Node22 -->
<g id="edge27" class="edge">
<title>Node20&#45;&gt;Node22</title>
<path fill="none" stroke="#191970" d="M765.3358,-336.2455C759.1527,-328.3761 750.2937,-317.101 742.8711,-307.6542"/>
<polygon fill="#191970" stroke="#191970" points="745.5068,-305.3435 736.5764,-299.6427 740.0025,-309.6683 745.5068,-305.3435"/>
</g>
<!-- Node21&#45;&gt;Node2 -->
<g id="edge25" class="edge">
<title>Node21&#45;&gt;Node2</title>
<path fill="none" stroke="#191970" d="M713.3275,-224.4369C649.0668,-214.6314 549.2182,-199.3957 481.5686,-189.0731"/>
<polygon fill="#191970" stroke="#191970" points="481.8276,-185.5722 471.4141,-187.5237 480.7717,-192.4921 481.8276,-185.5722"/>
</g>
<!-- Node21&#45;&gt;Node15 -->
<g id="edge26" class="edge">
<title>Node21&#45;&gt;Node15</title>
<path fill="none" stroke="#191970" d="M772.5896,-224.4509C766.0067,-206.0186 751.4376,-165.2254 742.8011,-141.043"/>
<polygon fill="#191970" stroke="#191970" points="746.0613,-139.7651 739.4017,-131.5249 739.4691,-142.1195 746.0613,-139.7651"/>
</g>
<!-- Node22&#45;&gt;Node2 -->
<g id="edge44" class="edge">
<title>Node22&#45;&gt;Node2</title>
<path fill="none" stroke="#191970" d="M701.717,-280.4509C644.3301,-260.3655 511.081,-213.7284 446.0442,-190.9655"/>
<polygon fill="#191970" stroke="#191970" points="446.8088,-187.5249 436.214,-187.5249 444.4963,-194.132 446.8088,-187.5249"/>
</g>
<!-- Node22&#45;&gt;Node15 -->
<g id="edge28" class="edge">
<title>Node22&#45;&gt;Node15</title>
<path fill="none" stroke="#191970" d="M716.5788,-280.18C706.9984,-271.7529 694.4865,-258.6707 689,-244 685.8864,-235.6743 686.1152,-232.4078 689,-224 695.5783,-204.8274 707.808,-206.0657 717,-188 724.4349,-173.3877 729.3643,-155.4321 732.3349,-141.9401"/>
<polygon fill="#191970" stroke="#191970" points="735.8281,-142.3236 734.3814,-131.828 728.9672,-140.935 735.8281,-142.3236"/>
</g>
<!-- Node22&#45;&gt;Node18 -->
<g id="edge29" class="edge">
<title>Node22&#45;&gt;Node18</title>
<path fill="none" stroke="#191970" d="M667.6936,-280.4369C604.8337,-270.6314 507.1617,-255.3957 440.9868,-245.0731"/>
<polygon fill="#191970" stroke="#191970" points="441.4735,-241.6068 431.0535,-243.5237 440.3946,-248.5232 441.4735,-241.6068"/>
</g>
<!-- Node23 -->
<g id="node24" class="node">
<title>Node23</title>
<g id="a_node24"><a xlink:href="RotationRaw_8h.html" target="_top" xlink:title="iDynTree/Core/RotationRaw.h">
<polygon fill="none" stroke="#000000" points="872,-224.5 872,-243.5 1030,-243.5 1030,-224.5 872,-224.5"/>
<text text-anchor="middle" x="951" y="-231.5" font-family="FreeSans.ttf" font-size="10.00" fill="#000000">iDynTree/Core/RotationRaw.h</text>
</a>
</g>
</g>
<!-- Node22&#45;&gt;Node23 -->
<g id="edge30" class="edge">
<title>Node22&#45;&gt;Node23</title>
<path fill="none" stroke="#191970" d="M766.9109,-280.4369C804.665,-270.9133 862.7265,-256.2672 903.5264,-245.9753"/>
<polygon fill="#191970" stroke="#191970" points="904.4053,-249.3633 913.2454,-243.5237 902.6931,-242.576 904.4053,-249.3633"/>
</g>
<!-- Node23&#45;&gt;Node15 -->
<g id="edge43" class="edge">
<title>Node23&#45;&gt;Node15</title>
<path fill="none" stroke="#191970" d="M932.6692,-224.4509C894.8264,-204.7375 807.884,-159.4465 763.3632,-136.2543"/>
<polygon fill="#191970" stroke="#191970" points="764.7702,-133.0409 754.2844,-131.5249 761.5362,-139.249 764.7702,-133.0409"/>
</g>
<!-- Node24 -->
<g id="node25" class="node">
<title>Node24</title>
<g id="a_node25"><a xlink:href="MatrixFixSize_8h.html" target="_top" xlink:title="iDynTree/Core/MatrixFixSize.h">
<polygon fill="none" stroke="#000000" points="546.5,-168.5 546.5,-187.5 707.5,-187.5 707.5,-168.5 546.5,-168.5"/>
<text text-anchor="middle" x="627" y="-175.5" font-family="FreeSans.ttf" font-size="10.00" fill="#000000">iDynTree/Core/MatrixFixSize.h</text>
</a>
</g>
</g>
<!-- Node23&#45;&gt;Node24 -->
<g id="edge31" class="edge">
<title>Node23&#45;&gt;Node24</title>
<path fill="none" stroke="#191970" d="M895.6706,-224.4369C839.2885,-214.6918 751.8742,-199.5832 692.173,-189.2645"/>
<polygon fill="#191970" stroke="#191970" points="692.5513,-185.778 682.1012,-187.5237 691.359,-192.6758 692.5513,-185.778"/>
</g>
<!-- Node24&#45;&gt;Node3 -->
<g id="edge32" class="edge">
<title>Node24&#45;&gt;Node3</title>
<path fill="none" stroke="#191970" d="M629.485,-168.368C632.5641,-153.9474 635.7573,-126.8564 621,-112 607.065,-97.9714 347.6723,-79.0248 219.9184,-70.493"/>
<polygon fill="#191970" stroke="#191970" points="220.0464,-66.9938 209.8363,-69.823 219.5822,-73.9784 220.0464,-66.9938"/>
</g>
<!-- Node24&#45;&gt;Node7 -->
<g id="edge38" class="edge">
<title>Node24&#45;&gt;Node7</title>
<path fill="none" stroke="#191970" d="M629.8881,-168.4862C637.9849,-141.8144 661.0268,-65.9117 672.0212,-29.695"/>
<polygon fill="#191970" stroke="#191970" points="675.4607,-30.4134 675.0165,-19.8279 668.7626,-28.38 675.4607,-30.4134"/>
</g>
<!-- Node24&#45;&gt;Node15 -->
<g id="edge40" class="edge">
<title>Node24&#45;&gt;Node15</title>
<path fill="none" stroke="#191970" d="M645.9864,-168.2455C663.1792,-159.4125 688.7238,-146.2887 708.2132,-136.2758"/>
<polygon fill="#191970" stroke="#191970" points="709.9359,-139.3257 717.2312,-131.6427 706.737,-133.0993 709.9359,-139.3257"/>
</g>
<!-- Node24&#45;&gt;Node16 -->
<g id="edge42" class="edge">
<title>Node24&#45;&gt;Node16</title>
<path fill="none" stroke="#191970" d="M556.9843,-168.4369C469.7488,-156.5218 323.8074,-136.5883 255.0401,-127.1957"/>
<polygon fill="#191970" stroke="#191970" points="255.4599,-123.7206 245.0782,-125.8351 254.5125,-130.6562 255.4599,-123.7206"/>
</g>
<!-- Node24&#45;&gt;Node17 -->
<g id="edge39" class="edge">
<title>Node24&#45;&gt;Node17</title>
<path fill="none" stroke="#191970" d="M606.7151,-168.3733C587.8579,-159.4241 559.554,-145.9917 538.2545,-135.8835"/>
<polygon fill="#191970" stroke="#191970" points="539.5551,-132.6266 529.0202,-131.5011 536.5539,-138.9506 539.5551,-132.6266"/>
</g>
<!-- Node25 -->
<g id="node26" class="node">
<title>Node25</title>
<g id="a_node26"><a xlink:href="MatrixView_8h.html" target="_top" xlink:title="iDynTree/Core/MatrixView.h">
<polygon fill="none" stroke="#000000" points="814.5,-112.5 814.5,-131.5 965.5,-131.5 965.5,-112.5 814.5,-112.5"/>
<text text-anchor="middle" x="890" y="-119.5" font-family="FreeSans.ttf" font-size="10.00" fill="#000000">iDynTree/Core/MatrixView.h</text>
</a>
</g>
</g>
<!-- Node24&#45;&gt;Node25 -->
<g id="edge33" class="edge">
<title>Node24&#45;&gt;Node25</title>
<path fill="none" stroke="#191970" d="M671.9125,-168.4369C717.112,-158.8127 786.8807,-143.957 835.2847,-133.6504"/>
<polygon fill="#191970" stroke="#191970" points="836.221,-137.0296 845.2728,-131.5237 834.7631,-130.1831 836.221,-137.0296"/>
</g>
<!-- Node24&#45;&gt;Node26 -->
<g id="edge41" class="edge">
<title>Node24&#45;&gt;Node26</title>
<path fill="none" stroke="#191970" d="M619.1616,-168.2455C612.838,-160.3761 603.7776,-149.101 596.1864,-139.6542"/>
<polygon fill="#191970" stroke="#191970" points="598.7408,-137.2454 589.7486,-131.6427 593.2842,-141.6302 598.7408,-137.2454"/>
</g>
<!-- Node25&#45;&gt;Node3 -->
<g id="edge37" class="edge">
<title>Node25&#45;&gt;Node3</title>
<path fill="none" stroke="#191970" d="M814.2228,-115.759C798.6084,-114.4955 782.2723,-113.1901 767,-112 568.4493,-96.5276 333.8665,-79.3387 219.5863,-71.0352"/>
<polygon fill="#191970" stroke="#191970" points="219.7993,-67.5415 209.572,-70.3079 219.2922,-74.5232 219.7993,-67.5415"/>
</g>
<!-- Node25&#45;&gt;Node6 -->
<g id="edge36" class="edge">
<title>Node25&#45;&gt;Node6</title>
<path fill="none" stroke="#191970" d="M814.3146,-113.1884C722.6063,-102.5113 569.2918,-84.6618 479.8264,-74.2459"/>
<polygon fill="#191970" stroke="#191970" points="480.1119,-70.7556 469.7742,-73.0756 479.3024,-77.7086 480.1119,-70.7556"/>
</g>
<!-- Node25&#45;&gt;Node7 -->
<g id="edge34" class="edge">
<title>Node25&#45;&gt;Node7</title>
<path fill="none" stroke="#191970" d="M871.925,-112.4509C834.6102,-92.7375 748.881,-47.4465 704.9814,-24.2543"/>
<polygon fill="#191970" stroke="#191970" points="706.5061,-21.1015 696.0293,-19.5249 703.2363,-27.2908 706.5061,-21.1015"/>
</g>
<!-- Node25&#45;&gt;Node13 -->
<g id="edge35" class="edge">
<title>Node25&#45;&gt;Node13</title>
<path fill="none" stroke="#191970" d="M883.9466,-112.4509C872.1046,-93.7707 845.7035,-52.1238 830.459,-28.0761"/>
<polygon fill="#191970" stroke="#191970" points="833.3483,-26.0969 825.0381,-19.5249 827.4362,-29.8448 833.3483,-26.0969"/>
</g>
<!-- Node27&#45;&gt;Node1 -->
<g id="edge66" class="edge">
<title>Node27&#45;&gt;Node1</title>
<path fill="none" stroke="#191970" d="M379.9185,-515.4581C344.3998,-506.3183 289.9407,-492.3048 246.5273,-481.1336"/>
<polygon fill="#191970" stroke="#191970" points="247.1542,-477.681 236.5974,-478.5784 245.4097,-484.4601 247.1542,-477.681"/>
</g>
<!-- Node27&#45;&gt;Node2 -->
<g id="edge57" class="edge">
<title>Node27&#45;&gt;Node2</title>
<path fill="none" stroke="#191970" d="M366.329,-515.419C344.0035,-508.7433 319.2146,-497.5666 303,-479 265.9594,-436.5865 280.6343,-279.5309 280,-244 279.8413,-235.1125 274.8778,-231.2647 280,-224 289.3035,-210.8051 325.0381,-198.6647 356.5433,-190.1731"/>
<polygon fill="#191970" stroke="#191970" points="357.7955,-193.4635 366.5849,-187.5476 356.0247,-186.6911 357.7955,-193.4635"/>
</g>
<!-- Node27&#45;&gt;Node3 -->
<g id="edge72" class="edge">
<title>Node27&#45;&gt;Node3</title>
<path fill="none" stroke="#191970" d="M336.4428,-518.1818C246.9571,-509.8821 112.6668,-494.9825 95,-479 68.8606,-455.3526 76,-437.2487 76,-402 76,-402 76,-402 76,-346 76,-244.99 121.5709,-130.0834 141.1898,-85.2951"/>
<polygon fill="#191970" stroke="#191970" points="144.4949,-86.4771 145.371,-75.9185 138.1017,-83.6262 144.4949,-86.4771"/>
</g>
<!-- Node27&#45;&gt;Node24 -->
<g id="edge61" class="edge">
<title>Node27&#45;&gt;Node24</title>
<path fill="none" stroke="#191970" d="M466.7327,-515.4825C505.8737,-507.0474 556.202,-493.798 571,-479 596.2552,-453.7448 594,-437.7163 594,-402 594,-402 594,-402 594,-290 594,-256.051 608.1235,-218.5869 617.8911,-196.7366"/>
<polygon fill="#191970" stroke="#191970" points="621.0937,-198.1501 622.1307,-187.6061 614.7448,-195.202 621.0937,-198.1501"/>
</g>
<!-- Node28 -->
<g id="node29" class="node">
<title>Node28</title>
<polygon fill="none" stroke="#bfbfbf" points="311.5,-454 311.5,-473 388.5,-473 388.5,-454 311.5,-454"/>
<text text-anchor="middle" x="350" y="-461" font-family="FreeSans.ttf" font-size="10.00" fill="#000000">Eigen/Dense</text>
</g>
<!-- Node27&#45;&gt;Node28 -->
<g id="edge53" class="edge">
<title>Node27&#45;&gt;Node28</title>
<path fill="none" stroke="#191970" d="M406.5313,-515.3906C396.2663,-505.9683 380.4097,-491.4134 368.0994,-480.1137"/>
<polygon fill="#191970" stroke="#191970" points="370.3501,-477.4287 360.6163,-473.2449 365.6166,-482.5856 370.3501,-477.4287"/>
</g>
<!-- Node29 -->
<g id="node30" class="node">
<title>Node29</title>
<g id="a_node30"><a xlink:href="VectorDynSize_8h.html" target="_top" xlink:title="iDynTree/Core/VectorDynSize.h">
<polygon fill="none" stroke="#000000" points="1103.5,-168.5 1103.5,-187.5 1270.5,-187.5 1270.5,-168.5 1103.5,-168.5"/>
<text text-anchor="middle" x="1187" y="-175.5" font-family="FreeSans.ttf" font-size="10.00" fill="#000000">iDynTree/Core/VectorDynSize.h</text>
</a>
</g>
</g>
<!-- Node27&#45;&gt;Node29 -->
<g id="edge54" class="edge">
<title>Node27&#45;&gt;Node29</title>
<path fill="none" stroke="#191970" d="M497.8341,-520.1647C692.0577,-507.4685 1169,-469.4268 1169,-402 1169,-402 1169,-402 1169,-290 1169,-257.1472 1176.6431,-219.5528 1181.9684,-197.3462"/>
<polygon fill="#191970" stroke="#191970" points="1185.3987,-198.0551 1184.421,-187.5055 1178.6065,-196.3622 1185.3987,-198.0551"/>
</g>
<!-- Node30 -->
<g id="node31" class="node">
<title>Node30</title>
<g id="a_node31"><a xlink:href="MatrixDynSize_8h.html" target="_top" xlink:title="iDynTree/Core/MatrixDynSize.h">
<polygon fill="none" stroke="#000000" points="1288.5,-168.5 1288.5,-187.5 1455.5,-187.5 1455.5,-168.5 1288.5,-168.5"/>
<text text-anchor="middle" x="1372" y="-175.5" font-family="FreeSans.ttf" font-size="10.00" fill="#000000">iDynTree/Core/MatrixDynSize.h</text>
</a>
</g>
</g>
<!-- Node27&#45;&gt;Node30 -->
<g id="edge58" class="edge">
<title>Node27&#45;&gt;Node30</title>
<path fill="none" stroke="#191970" d="M497.8011,-521.8988C712.3376,-512.595 1280,-480.5552 1280,-402 1280,-402 1280,-402 1280,-290 1280,-247.5397 1319.9701,-212.3942 1347.219,-193.3678"/>
<polygon fill="#191970" stroke="#191970" points="1349.2043,-196.2506 1355.5522,-187.768 1345.3,-190.4405 1349.2043,-196.2506"/>
</g>
<!-- Node31 -->
<g id="node32" class="node">
<title>Node31</title>
<g id="a_node32"><a xlink:href="SpatialMotionVector_8h.html" target="_top" xlink:title="iDynTree/Core/SpatialMotion\lVector.h">
<polygon fill="none" stroke="#000000" points="406.5,-448.5 406.5,-478.5 561.5,-478.5 561.5,-448.5 406.5,-448.5"/>
<text text-anchor="start" x="414.5" y="-466.5" font-family="FreeSans.ttf" font-size="10.00" fill="#000000">iDynTree/Core/SpatialMotion</text>
<text text-anchor="middle" x="484" y="-455.5" font-family="FreeSans.ttf" font-size="10.00" fill="#000000">Vector.h</text>
</a>
</g>
</g>
<!-- Node27&#45;&gt;Node31 -->
<g id="edge62" class="edge">
<title>Node27&#45;&gt;Node31</title>
<path fill="none" stroke="#191970" d="M427.4688,-515.3906C436.2005,-507.3756 448.9785,-495.6466 460.1779,-485.3666"/>
<polygon fill="#191970" stroke="#191970" points="462.6097,-487.8853 467.61,-478.5446 457.8762,-482.7284 462.6097,-487.8853"/>
</g>
<!-- Node32 -->
<g id="node33" class="node">
<title>Node32</title>
<g id="a_node33"><a xlink:href="Transform_8h.html" target="_top" xlink:title="iDynTree/Core/Transform.h">
<polygon fill="none" stroke="#000000" points="639,-392.5 639,-411.5 785,-411.5 785,-392.5 639,-392.5"/>
<text text-anchor="middle" x="712" y="-399.5" font-family="FreeSans.ttf" font-size="10.00" fill="#000000">iDynTree/Core/Transform.h</text>
</a>
</g>
</g>
<!-- Node27&#45;&gt;Node32 -->
<g id="edge67" class="edge">
<title>Node27&#45;&gt;Node32</title>
<path fill="none" stroke="#191970" d="M485.0607,-515.4441C522.5536,-508.5184 569.2142,-497.1095 608,-479 641.4858,-463.3651 674.8794,-436.0297 694.4728,-418.4865"/>
<polygon fill="#191970" stroke="#191970" points="696.9583,-420.9566 701.9851,-411.6302 692.2394,-415.7863 696.9583,-420.9566"/>
</g>
<!-- Node29&#45;&gt;Node6 -->
<g id="edge55" class="edge">
<title>Node29&#45;&gt;Node6</title>
<path fill="none" stroke="#191970" d="M1103.1989,-168.6396C995.339,-156.4805 820.0359,-136.2958 806,-132 787.3732,-126.2992 785.6049,-117.7719 767,-112 714.918,-95.8423 568.1844,-80.3931 479.57,-72.1571"/>
<polygon fill="#191970" stroke="#191970" points="479.8713,-68.6702 469.5922,-71.2374 479.2287,-75.6406 479.8713,-68.6702"/>
</g>
<!-- Node29&#45;&gt;Node15 -->
<g id="edge56" class="edge">
<title>Node29&#45;&gt;Node15</title>
<path fill="none" stroke="#191970" d="M1103.2235,-169.0619C986.6784,-156.577 788.0146,-135.0911 772,-132 770.7461,-131.758 769.4721,-131.494 768.1886,-131.213"/>
<polygon fill="#191970" stroke="#191970" points="768.8817,-127.7794 758.3364,-128.803 767.2184,-134.5789 768.8817,-127.7794"/>
</g>
<!-- Node30&#45;&gt;Node15 -->
<g id="edge59" class="edge">
<title>Node30&#45;&gt;Node15</title>
<path fill="none" stroke="#191970" d="M1288.2747,-168.7828C1285.4839,-168.5128 1282.7197,-168.251 1280,-168 1069.6208,-148.5824 1016.023,-154.9518 806,-132 793.541,-130.6384 779.8863,-128.7724 767.9711,-127.0209"/>
<polygon fill="#191970" stroke="#191970" points="768.4307,-123.5507 758.0217,-125.5266 767.391,-130.4731 768.4307,-123.5507"/>
</g>
<!-- Node30&#45;&gt;Node25 -->
<g id="edge60" class="edge">
<title>Node30&#45;&gt;Node25</title>
<path fill="none" stroke="#191970" d="M1289.9623,-168.4686C1202.5013,-158.3072 1064.6216,-142.288 975.7609,-131.9639"/>
<polygon fill="#191970" stroke="#191970" points="976.0482,-128.4738 965.7111,-130.7963 975.2403,-135.4271 976.0482,-128.4738"/>
</g>
<!-- Node31&#45;&gt;Node2 -->
<g id="edge63" class="edge">
<title>Node31&#45;&gt;Node2</title>
<path fill="none" stroke="#191970" d="M486.3055,-448.37C491.5769,-408.8108 501.1509,-300.1069 461,-224 454.585,-211.8403 443.5634,-201.3843 433.3138,-193.5278"/>
<polygon fill="#191970" stroke="#191970" points="435.1676,-190.5501 425.0037,-187.5593 431.0842,-196.2356 435.1676,-190.5501"/>
</g>
<!-- Node31&#45;&gt;Node18 -->
<g id="edge64" class="edge">
<title>Node31&#45;&gt;Node18</title>
<path fill="none" stroke="#191970" d="M481.2574,-448.3038C478.2957,-433.5433 472.9128,-410.6873 465,-392 442.1395,-338.0112 403.3553,-280.3902 383.1394,-251.9763"/>
<polygon fill="#191970" stroke="#191970" points="385.9525,-249.8933 377.272,-243.8189 380.2698,-253.9808 385.9525,-249.8933"/>
</g>
<!-- Node31&#45;&gt;Node19 -->
<g id="edge65" class="edge">
<title>Node31&#45;&gt;Node19</title>
<path fill="none" stroke="#191970" d="M457.3356,-448.4554C440.1059,-438.734 417.8025,-426.15 400.7554,-416.5317"/>
<polygon fill="#191970" stroke="#191970" points="402.3204,-413.3961 391.8911,-411.5303 398.8806,-419.4926 402.3204,-413.3961"/>
</g>
<!-- Node32&#45;&gt;Node15 -->
<g id="edge71" class="edge">
<title>Node32&#45;&gt;Node15</title>
<path fill="none" stroke="#191970" d="M759.8102,-392.457C840.0246,-375.5793 996.8821,-338.5864 1037,-300 1056.0479,-281.6793 1052.4894,-270.0408 1057,-244 1064.0283,-203.4241 1040.5152,-187.038 1004,-168 910.876,-119.4479 870.3704,-156.5504 768.0486,-133.0396"/>
<polygon fill="#191970" stroke="#191970" points="768.8261,-129.6267 758.2814,-130.656 767.1665,-136.4271 768.8261,-129.6267"/>
</g>
<!-- Node32&#45;&gt;Node20 -->
<g id="edge68" class="edge">
<title>Node32&#45;&gt;Node20</title>
<path fill="none" stroke="#191970" d="M722.6254,-392.2455C731.5473,-384.0549 744.488,-372.1749 755.0192,-362.5069"/>
<polygon fill="#191970" stroke="#191970" points="757.4968,-364.9837 762.4964,-355.6427 752.7629,-359.8271 757.4968,-364.9837"/>
</g>
<!-- Node32&#45;&gt;Node22 -->
<g id="edge69" class="edge">
<title>Node32&#45;&gt;Node22</title>
<path fill="none" stroke="#191970" d="M713.4494,-392.4509C716.2221,-374.184 722.3282,-333.9553 726.0102,-309.6976"/>
<polygon fill="#191970" stroke="#191970" points="729.5139,-309.9369 727.5543,-299.5249 722.5931,-308.8864 729.5139,-309.9369"/>
</g>
<!-- Node32&#45;&gt;Node24 -->
<g id="edge70" class="edge">
<title>Node32&#45;&gt;Node24</title>
<path fill="none" stroke="#191970" d="M704.8846,-392.4224C692.2712,-374.9737 666.0037,-336.4369 652,-300 638.7422,-265.5038 632.0433,-222.6839 629.0552,-198.0347"/>
<polygon fill="#191970" stroke="#191970" points="632.4994,-197.342 627.9034,-187.796 625.5433,-198.1246 632.4994,-197.342"/>
</g>
</g>
</svg>
