<?xml version="1.0" encoding="UTF-8" standalone="no"?>
<!DOCTYPE svg PUBLIC "-//W3C//DTD SVG 1.1//EN"
 "http://www.w3.org/Graphics/SVG/1.1/DTD/svg11.dtd">
<!-- Generated by graphviz version 2.40.1 (20161225.0304)
 -->
<!-- Title: SpatialInertia.h Pages: 1 -->
<svg width="988pt" height="621pt"
 viewBox="0.00 0.00 987.50 621.00" xmlns="http://www.w3.org/2000/svg" xmlns:xlink="http://www.w3.org/1999/xlink">
<g id="graph0" class="graph" transform="scale(1 1) rotate(0) translate(4 617)">
<title>SpatialInertia.h</title>
<!-- Node0 -->
<g id="node1" class="node">
<title>Node0</title>
<polygon fill="#bfbfbf" stroke="#000000" points="568.5,-593.5 568.5,-612.5 659.5,-612.5 659.5,-593.5 568.5,-593.5"/>
<text text-anchor="middle" x="614" y="-600.5" font-family="FreeSans.ttf" font-size="10.00" fill="#000000">SpatialInertia.h</text>
</g>
<!-- Node1 -->
<g id="node2" class="node">
<title>Node1</title>
<g id="a_node2"><a xlink:href="SpatialInertiaRaw_8h.html" target="_top" xlink:title="iDynTree/Core/SpatialInertia\lRaw.h">
<polygon fill="none" stroke="#000000" points="826.5,-526.5 826.5,-556.5 979.5,-556.5 979.5,-526.5 826.5,-526.5"/>
<text text-anchor="start" x="834.5" y="-544.5" font-family="FreeSans.ttf" font-size="10.00" fill="#000000">iDynTree/Core/SpatialInertia</text>
<text text-anchor="middle" x="903" y="-533.5" font-family="FreeSans.ttf" font-size="10.00" fill="#000000">Raw.h</text>
</a>
</g>
</g>
<!-- Node0&#45;&gt;Node1 -->
<g id="edge1" class="edge">
<title>Node0&#45;&gt;Node1</title>
<path fill="none" stroke="#191970" d="M658.8392,-593.4581C702.4056,-584.187 769.5374,-569.9012 822.3905,-558.6539"/>
<polygon fill="#191970" stroke="#191970" points="823.369,-562.0242 832.4214,-556.5193 821.9119,-555.1775 823.369,-562.0242"/>
</g>
<!-- Node21 -->
<g id="node22" class="node">
<title>Node21</title>
<g id="a_node22"><a xlink:href="VectorFixSize_8h.html" target="_top" xlink:title="iDynTree/Core/VectorFixSize.h">
<polygon fill="none" stroke="#000000" points="428.5,-168.5 428.5,-187.5 589.5,-187.5 589.5,-168.5 428.5,-168.5"/>
<text text-anchor="middle" x="509" y="-175.5" font-family="FreeSans.ttf" font-size="10.00" fill="#000000">iDynTree/Core/VectorFixSize.h</text>
</a>
</g>
</g>
<!-- Node0&#45;&gt;Node21 -->
<g id="edge26" class="edge">
<title>Node0&#45;&gt;Node21</title>
<path fill="none" stroke="#191970" d="M659.7622,-595.4783C702.3648,-587.5646 761.6754,-573.9168 778,-557 804.1988,-529.8508 798,-512.2287 798,-474.5 798,-474.5 798,-474.5 798,-290 798,-248.8295 769.1741,-243.6582 733,-224 708.0837,-210.4597 641.2204,-197.7067 586.9854,-189.0788"/>
<polygon fill="#191970" stroke="#191970" points="587.4399,-185.6074 577.0185,-187.5165 586.3558,-192.5229 587.4399,-185.6074"/>
</g>
<!-- Node22 -->
<g id="node23" class="node">
<title>Node22</title>
<g id="a_node23"><a xlink:href="Twist_8h.html" target="_top" xlink:title="iDynTree/Core/Twist.h">
<polygon fill="none" stroke="#000000" points="126,-532 126,-551 248,-551 248,-532 126,-532"/>
<text text-anchor="middle" x="187" y="-539" font-family="FreeSans.ttf" font-size="10.00" fill="#000000">iDynTree/Core/Twist.h</text>
</a>
</g>
</g>
<!-- Node0&#45;&gt;Node22 -->
<g id="edge33" class="edge">
<title>Node0&#45;&gt;Node22</title>
<path fill="none" stroke="#191970" d="M568.4373,-598.4537C500.382,-591.3642 368.2668,-576.4469 257,-557 250.6433,-555.889 243.9904,-554.5923 237.422,-553.2307"/>
<polygon fill="#191970" stroke="#191970" points="237.7346,-549.7187 227.2244,-551.0549 236.2739,-556.5646 237.7346,-549.7187"/>
</g>
<!-- Node30 -->
<g id="node31" class="node">
<title>Node30</title>
<g id="a_node31"><a xlink:href="SpatialMomentum_8h.html" target="_top" xlink:title="iDynTree/Core/SpatialMomentum.h">
<polygon fill="none" stroke="#000000" points="432,-532 432,-551 618,-551 618,-532 432,-532"/>
<text text-anchor="middle" x="525" y="-539" font-family="FreeSans.ttf" font-size="10.00" fill="#000000">iDynTree/Core/SpatialMomentum.h</text>
</a>
</g>
</g>
<!-- Node0&#45;&gt;Node30 -->
<g id="edge56" class="edge">
<title>Node0&#45;&gt;Node30</title>
<path fill="none" stroke="#191970" d="M600.0938,-593.3906C585.9862,-583.6421 563.9276,-568.3994 547.3615,-556.9521"/>
<polygon fill="#191970" stroke="#191970" points="549.0253,-553.8474 538.8086,-551.0419 545.0458,-559.6063 549.0253,-553.8474"/>
</g>
<!-- Node32 -->
<g id="node33" class="node">
<title>Node32</title>
<g id="a_node33"><a xlink:href="SpatialAcc_8h.html" target="_top" xlink:title="iDynTree/Core/SpatialAcc.h">
<polygon fill="none" stroke="#000000" points="266,-532 266,-551 414,-551 414,-532 266,-532"/>
<text text-anchor="middle" x="340" y="-539" font-family="FreeSans.ttf" font-size="10.00" fill="#000000">iDynTree/Core/SpatialAcc.h</text>
</a>
</g>
</g>
<!-- Node0&#45;&gt;Node32 -->
<g id="edge61" class="edge">
<title>Node0&#45;&gt;Node32</title>
<path fill="none" stroke="#191970" d="M571.4881,-593.4581C523.2932,-582.6406 444.681,-564.9959 392.6471,-553.3168"/>
<polygon fill="#191970" stroke="#191970" points="393.1354,-549.8394 382.6116,-551.0643 391.6023,-556.6694 393.1354,-549.8394"/>
</g>
<!-- Node33 -->
<g id="node34" class="node">
<title>Node33</title>
<g id="a_node34"><a xlink:href="Wrench_8h.html" target="_top" xlink:title="iDynTree/Core/Wrench.h">
<polygon fill="none" stroke="#000000" points="636.5,-532 636.5,-551 769.5,-551 769.5,-532 636.5,-532"/>
<text text-anchor="middle" x="703" y="-539" font-family="FreeSans.ttf" font-size="10.00" fill="#000000">iDynTree/Core/Wrench.h</text>
</a>
</g>
</g>
<!-- Node0&#45;&gt;Node33 -->
<g id="edge63" class="edge">
<title>Node0&#45;&gt;Node33</title>
<path fill="none" stroke="#191970" d="M627.9063,-593.3906C642.0138,-583.6421 664.0724,-568.3994 680.6385,-556.9521"/>
<polygon fill="#191970" stroke="#191970" points="682.9542,-559.6063 689.1914,-551.0419 678.9747,-553.8474 682.9542,-559.6063"/>
</g>
<!-- Node2 -->
<g id="node3" class="node">
<title>Node2</title>
<g id="a_node3"><a xlink:href="RotationalInertiaRaw_8h.html" target="_top" xlink:title="iDynTree/Core/Rotational\lInertiaRaw.h">
<polygon fill="none" stroke="#000000" points="830.5,-392.5 830.5,-422.5 967.5,-422.5 967.5,-392.5 830.5,-392.5"/>
<text text-anchor="start" x="838.5" y="-410.5" font-family="FreeSans.ttf" font-size="10.00" fill="#000000">iDynTree/Core/Rotational</text>
<text text-anchor="middle" x="899" y="-399.5" font-family="FreeSans.ttf" font-size="10.00" fill="#000000">InertiaRaw.h</text>
</a>
</g>
</g>
<!-- Node1&#45;&gt;Node2 -->
<g id="edge2" class="edge">
<title>Node1&#45;&gt;Node2</title>
<path fill="none" stroke="#191970" d="M902.5489,-526.389C901.8707,-503.6691 900.5802,-460.438 899.7564,-432.8405"/>
<polygon fill="#191970" stroke="#191970" points="903.2525,-432.6525 899.4556,-422.7614 896.2556,-432.8614 903.2525,-432.6525"/>
</g>
<!-- Node3 -->
<g id="node4" class="node">
<title>Node3</title>
<g id="a_node4"><a xlink:href="MatrixFixSize_8h.html" target="_top" xlink:title="iDynTree/Core/MatrixFixSize.h">
<polygon fill="none" stroke="#000000" points="676.5,-168.5 676.5,-187.5 837.5,-187.5 837.5,-168.5 676.5,-168.5"/>
<text text-anchor="middle" x="757" y="-175.5" font-family="FreeSans.ttf" font-size="10.00" fill="#000000">iDynTree/Core/MatrixFixSize.h</text>
</a>
</g>
</g>
<!-- Node2&#45;&gt;Node3 -->
<g id="edge3" class="edge">
<title>Node2&#45;&gt;Node3</title>
<path fill="none" stroke="#191970" d="M894.2045,-392.0128C883.4005,-358.7888 854.718,-279.2124 812,-224 802.9842,-212.3472 790.5483,-201.6366 779.7822,-193.4878"/>
<polygon fill="#191970" stroke="#191970" points="781.7475,-190.5894 771.6031,-187.5329 777.6273,-196.2484 781.7475,-190.5894"/>
</g>
<!-- Node4 -->
<g id="node5" class="node">
<title>Node4</title>
<g id="a_node5"><a xlink:href="Utils_8h.html" target="_top" xlink:title="iDynTree/Core/Utils.h">
<polygon fill="none" stroke="#000000" points="263.5,-56.5 263.5,-75.5 382.5,-75.5 382.5,-56.5 263.5,-56.5"/>
<text text-anchor="middle" x="323" y="-63.5" font-family="FreeSans.ttf" font-size="10.00" fill="#000000">iDynTree/Core/Utils.h</text>
</a>
</g>
</g>
<!-- Node3&#45;&gt;Node4 -->
<g id="edge4" class="edge">
<title>Node3&#45;&gt;Node4</title>
<path fill="none" stroke="#191970" d="M735.1598,-168.4846C714.589,-159.4207 682.9874,-145.2342 656,-132 638.8642,-123.5969 636.1189,-117.996 618,-112 543.3378,-87.2924 453.5553,-75.7138 392.8005,-70.3807"/>
<polygon fill="#191970" stroke="#191970" points="392.8152,-66.8696 382.5563,-69.5165 392.2267,-73.8448 392.8152,-66.8696"/>
</g>
<!-- Node7 -->
<g id="node8" class="node">
<title>Node7</title>
<g id="a_node8"><a xlink:href="MatrixView_8h.html" target="_top" xlink:title="iDynTree/Core/MatrixView.h">
<polygon fill="none" stroke="#000000" points="665.5,-112.5 665.5,-131.5 816.5,-131.5 816.5,-112.5 665.5,-112.5"/>
<text text-anchor="middle" x="741" y="-119.5" font-family="FreeSans.ttf" font-size="10.00" fill="#000000">iDynTree/Core/MatrixView.h</text>
</a>
</g>
</g>
<!-- Node3&#45;&gt;Node7 -->
<g id="edge7" class="edge">
<title>Node3&#45;&gt;Node7</title>
<path fill="none" stroke="#191970" d="M754.213,-168.2455C752.1023,-160.8579 749.134,-150.4689 746.5453,-141.4087"/>
<polygon fill="#191970" stroke="#191970" points="749.8677,-140.2964 743.755,-131.6427 743.137,-142.2195 749.8677,-140.2964"/>
</g>
<!-- Node8 -->
<g id="node9" class="node">
<title>Node8</title>
<polygon fill="none" stroke="#bfbfbf" points="838,-.5 838,-19.5 890,-19.5 890,-.5 838,-.5"/>
<text text-anchor="middle" x="864" y="-7.5" font-family="FreeSans.ttf" font-size="10.00" fill="#000000">cassert</text>
</g>
<!-- Node3&#45;&gt;Node8 -->
<g id="edge21" class="edge">
<title>Node3&#45;&gt;Node8</title>
<path fill="none" stroke="#191970" d="M804.0988,-168.4429C824.4526,-161.7724 846.4417,-150.593 859,-132 879.7745,-101.2425 874.4707,-55.4886 869.0429,-29.6395"/>
<polygon fill="#191970" stroke="#191970" points="872.3795,-28.5345 866.7092,-19.5847 865.5608,-30.1171 872.3795,-28.5345"/>
</g>
<!-- Node17 -->
<g id="node18" class="node">
<title>Node17</title>
<polygon fill="none" stroke="#bfbfbf" points="559,-112.5 559,-131.5 609,-131.5 609,-112.5 559,-112.5"/>
<text text-anchor="middle" x="584" y="-119.5" font-family="FreeSans.ttf" font-size="10.00" fill="#000000">cstring</text>
</g>
<!-- Node3&#45;&gt;Node17 -->
<g id="edge22" class="edge">
<title>Node3&#45;&gt;Node17</title>
<path fill="none" stroke="#191970" d="M727.2602,-168.3733C697.1854,-158.638 650.7206,-143.5974 618.9153,-133.3021"/>
<polygon fill="#191970" stroke="#191970" points="619.7353,-129.8887 609.1434,-130.1389 617.5795,-136.5485 619.7353,-129.8887"/>
</g>
<!-- Node18 -->
<g id="node19" class="node">
<title>Node18</title>
<polygon fill="none" stroke="#bfbfbf" points="236,-112.5 236,-131.5 280,-131.5 280,-112.5 236,-112.5"/>
<text text-anchor="middle" x="258" y="-119.5" font-family="FreeSans.ttf" font-size="10.00" fill="#000000">string</text>
</g>
<!-- Node3&#45;&gt;Node18 -->
<g id="edge23" class="edge">
<title>Node3&#45;&gt;Node18</title>
<path fill="none" stroke="#191970" d="M676.2724,-168.9404C564.5719,-156.4049 367.9098,-134.3346 290.5579,-125.6538"/>
<polygon fill="#191970" stroke="#191970" points="290.7843,-122.1573 280.4563,-124.5201 290.0035,-129.1136 290.7843,-122.1573"/>
</g>
<!-- Node19 -->
<g id="node20" class="node">
<title>Node19</title>
<polygon fill="none" stroke="#bfbfbf" points="911,-112.5 911,-131.5 971,-131.5 971,-112.5 911,-112.5"/>
<text text-anchor="middle" x="941" y="-119.5" font-family="FreeSans.ttf" font-size="10.00" fill="#000000">iostream</text>
</g>
<!-- Node3&#45;&gt;Node19 -->
<g id="edge24" class="edge">
<title>Node3&#45;&gt;Node19</title>
<path fill="none" stroke="#191970" d="M788.6307,-168.3733C819.6389,-158.936 867.0285,-144.5131 900.716,-134.2604"/>
<polygon fill="#191970" stroke="#191970" points="902.1498,-137.4825 910.6975,-131.2225 900.1117,-130.7858 902.1498,-137.4825"/>
</g>
<!-- Node20 -->
<g id="node21" class="node">
<title>Node20</title>
<polygon fill="none" stroke="#bfbfbf" points="485,-112.5 485,-131.5 541,-131.5 541,-112.5 485,-112.5"/>
<text text-anchor="middle" x="513" y="-119.5" font-family="FreeSans.ttf" font-size="10.00" fill="#000000">sstream</text>
</g>
<!-- Node3&#45;&gt;Node20 -->
<g id="edge25" class="edge">
<title>Node3&#45;&gt;Node20</title>
<path fill="none" stroke="#191970" d="M711.2287,-168.4509C671.326,-159.9861 611.6693,-146.9956 550.9919,-132.1705"/>
<polygon fill="#191970" stroke="#191970" points="551.794,-128.7635 541.2476,-129.7758 550.1234,-135.5613 551.794,-128.7635"/>
</g>
<!-- Node5 -->
<g id="node6" class="node">
<title>Node5</title>
<polygon fill="none" stroke="#bfbfbf" points="256.5,-.5 256.5,-19.5 309.5,-19.5 309.5,-.5 256.5,-.5"/>
<text text-anchor="middle" x="283" y="-7.5" font-family="FreeSans.ttf" font-size="10.00" fill="#000000">cstddef</text>
</g>
<!-- Node4&#45;&gt;Node5 -->
<g id="edge5" class="edge">
<title>Node4&#45;&gt;Node5</title>
<path fill="none" stroke="#191970" d="M316.0325,-56.2455C310.4689,-48.4564 302.522,-37.3308 295.8171,-27.9439"/>
<polygon fill="#191970" stroke="#191970" points="298.5481,-25.7457 289.8876,-19.6427 292.852,-29.8144 298.5481,-25.7457"/>
</g>
<!-- Node6 -->
<g id="node7" class="node">
<title>Node6</title>
<polygon fill="none" stroke="#bfbfbf" points="158,-.5 158,-19.5 238,-19.5 238,-.5 158,-.5"/>
<text text-anchor="middle" x="198" y="-7.5" font-family="FreeSans.ttf" font-size="10.00" fill="#000000">CoreExport.h</text>
</g>
<!-- Node4&#45;&gt;Node6 -->
<g id="edge6" class="edge">
<title>Node4&#45;&gt;Node6</title>
<path fill="none" stroke="#191970" d="M301.5117,-56.3733C281.356,-47.3435 251.012,-33.7494 228.382,-23.6111"/>
<polygon fill="#191970" stroke="#191970" points="229.7649,-20.3955 219.2079,-19.5011 226.9029,-26.7838 229.7649,-20.3955"/>
</g>
<!-- Node7&#45;&gt;Node4 -->
<g id="edge20" class="edge">
<title>Node7&#45;&gt;Node4</title>
<path fill="none" stroke="#191970" d="M669.6182,-112.4369C592.183,-102.0628 469.3769,-85.6103 392.6331,-75.3288"/>
<polygon fill="#191970" stroke="#191970" points="392.9592,-71.8413 382.583,-73.9824 392.0297,-78.7794 392.9592,-71.8413"/>
</g>
<!-- Node7&#45;&gt;Node8 -->
<g id="edge8" class="edge">
<title>Node7&#45;&gt;Node8</title>
<path fill="none" stroke="#191970" d="M751.4869,-112.4509C772.4557,-93.3574 819.7752,-50.2697 845.8725,-26.5063"/>
<polygon fill="#191970" stroke="#191970" points="848.5021,-28.8455 853.5396,-19.5249 843.7892,-23.6697 848.5021,-28.8455"/>
</g>
<!-- Node9 -->
<g id="node10" class="node">
<title>Node9</title>
<polygon fill="none" stroke="#bfbfbf" points="750.5,-.5 750.5,-19.5 819.5,-19.5 819.5,-.5 750.5,-.5"/>
<text text-anchor="middle" x="785" y="-7.5" font-family="FreeSans.ttf" font-size="10.00" fill="#000000">type_traits</text>
</g>
<!-- Node7&#45;&gt;Node9 -->
<g id="edge9" class="edge">
<title>Node7&#45;&gt;Node9</title>
<path fill="none" stroke="#191970" d="M744.7514,-112.4509C751.9927,-94.0186 768.0186,-53.2254 777.5188,-29.043"/>
<polygon fill="#191970" stroke="#191970" points="780.8591,-30.1122 781.2581,-19.5249 774.3439,-27.5526 780.8591,-30.1122"/>
</g>
<!-- Node10 -->
<g id="node11" class="node">
<title>Node10</title>
<g id="a_node11"><a xlink:href="Span_8h.html" target="_top" xlink:title="iDynTree/Core/Span.h">
<polygon fill="none" stroke="#000000" points="516.5,-56.5 516.5,-75.5 637.5,-75.5 637.5,-56.5 516.5,-56.5"/>
<text text-anchor="middle" x="577" y="-63.5" font-family="FreeSans.ttf" font-size="10.00" fill="#000000">iDynTree/Core/Span.h</text>
</a>
</g>
</g>
<!-- Node7&#45;&gt;Node10 -->
<g id="edge10" class="edge">
<title>Node7&#45;&gt;Node10</title>
<path fill="none" stroke="#191970" d="M712.8074,-112.3733C685.6547,-103.1016 644.4093,-89.0178 614.4975,-78.804"/>
<polygon fill="#191970" stroke="#191970" points="615.4192,-75.4204 604.8247,-75.5011 613.1572,-82.0449 615.4192,-75.4204"/>
</g>
<!-- Node10&#45;&gt;Node5 -->
<g id="edge14" class="edge">
<title>Node10&#45;&gt;Node5</title>
<path fill="none" stroke="#191970" d="M516.4614,-57.0479C466.0094,-49.1781 392.0973,-36.7032 319.4543,-20.1779"/>
<polygon fill="#191970" stroke="#191970" points="320.21,-16.7604 309.6797,-17.9276 318.6395,-23.582 320.21,-16.7604"/>
</g>
<!-- Node10&#45;&gt;Node8 -->
<g id="edge11" class="edge">
<title>Node10&#45;&gt;Node8</title>
<path fill="none" stroke="#191970" d="M637.6796,-56.6327C686.635,-48.6861 757.4381,-36.3188 827.7788,-20.1234"/>
<polygon fill="#191970" stroke="#191970" points="828.7535,-23.4901 837.6988,-17.8128 827.1655,-16.6726 828.7535,-23.4901"/>
</g>
<!-- Node10&#45;&gt;Node9 -->
<g id="edge18" class="edge">
<title>Node10&#45;&gt;Node9</title>
<path fill="none" stroke="#191970" d="M612.7565,-56.3733C648.1559,-46.8426 702.4414,-32.2273 740.5867,-21.9574"/>
<polygon fill="#191970" stroke="#191970" points="741.655,-25.2945 750.4013,-19.315 739.8352,-18.5352 741.655,-25.2945"/>
</g>
<!-- Node11 -->
<g id="node12" class="node">
<title>Node11</title>
<polygon fill="none" stroke="#bfbfbf" points="474,-.5 474,-19.5 538,-19.5 538,-.5 474,-.5"/>
<text text-anchor="middle" x="506" y="-7.5" font-family="FreeSans.ttf" font-size="10.00" fill="#000000">algorithm</text>
</g>
<!-- Node10&#45;&gt;Node11 -->
<g id="edge12" class="edge">
<title>Node10&#45;&gt;Node11</title>
<path fill="none" stroke="#191970" d="M564.6327,-56.2455C554.0446,-47.8943 538.5936,-35.7076 526.2107,-25.9408"/>
<polygon fill="#191970" stroke="#191970" points="528.2447,-23.0875 518.2255,-19.6427 523.9097,-28.5837 528.2447,-23.0875"/>
</g>
<!-- Node12 -->
<g id="node13" class="node">
<title>Node12</title>
<polygon fill="none" stroke="#bfbfbf" points="556,-.5 556,-19.5 598,-19.5 598,-.5 556,-.5"/>
<text text-anchor="middle" x="577" y="-7.5" font-family="FreeSans.ttf" font-size="10.00" fill="#000000">array</text>
</g>
<!-- Node10&#45;&gt;Node12 -->
<g id="edge13" class="edge">
<title>Node10&#45;&gt;Node12</title>
<path fill="none" stroke="#191970" d="M577,-56.2455C577,-48.9382 577,-38.6944 577,-29.7046"/>
<polygon fill="#191970" stroke="#191970" points="580.5001,-29.6426 577,-19.6427 573.5001,-29.6427 580.5001,-29.6426"/>
</g>
<!-- Node13 -->
<g id="node14" class="node">
<title>Node13</title>
<polygon fill="none" stroke="#bfbfbf" points="616.5,-.5 616.5,-19.5 669.5,-19.5 669.5,-.5 616.5,-.5"/>
<text text-anchor="middle" x="643" y="-7.5" font-family="FreeSans.ttf" font-size="10.00" fill="#000000">iterator</text>
</g>
<!-- Node10&#45;&gt;Node13 -->
<g id="edge15" class="edge">
<title>Node10&#45;&gt;Node13</title>
<path fill="none" stroke="#191970" d="M588.4963,-56.2455C598.2442,-47.9746 612.4259,-35.9416 623.8798,-26.2232"/>
<polygon fill="#191970" stroke="#191970" points="626.2747,-28.7813 631.6354,-19.6427 621.7459,-23.4437 626.2747,-28.7813"/>
</g>
<!-- Node14 -->
<g id="node15" class="node">
<title>Node14</title>
<polygon fill="none" stroke="#bfbfbf" points="688,-.5 688,-19.5 732,-19.5 732,-.5 688,-.5"/>
<text text-anchor="middle" x="710" y="-7.5" font-family="FreeSans.ttf" font-size="10.00" fill="#000000">limits</text>
</g>
<!-- Node10&#45;&gt;Node14 -->
<g id="edge16" class="edge">
<title>Node10&#45;&gt;Node14</title>
<path fill="none" stroke="#191970" d="M599.8635,-56.3733C621.5355,-47.2482 654.2779,-33.462 678.4331,-23.2913"/>
<polygon fill="#191970" stroke="#191970" points="680.0186,-26.4214 687.8768,-19.315 677.3022,-19.9699 680.0186,-26.4214"/>
</g>
<!-- Node15 -->
<g id="node16" class="node">
<title>Node15</title>
<polygon fill="none" stroke="#bfbfbf" points="327.5,-.5 327.5,-19.5 392.5,-19.5 392.5,-.5 327.5,-.5"/>
<text text-anchor="middle" x="360" y="-7.5" font-family="FreeSans.ttf" font-size="10.00" fill="#000000">stdexcept</text>
</g>
<!-- Node10&#45;&gt;Node15 -->
<g id="edge17" class="edge">
<title>Node10&#45;&gt;Node15</title>
<path fill="none" stroke="#191970" d="M539.6964,-56.3733C501.491,-46.5138 442.1991,-31.2127 402.2773,-20.9103"/>
<polygon fill="#191970" stroke="#191970" points="403.127,-17.5149 392.5696,-18.4051 401.3778,-24.2929 403.127,-17.5149"/>
</g>
<!-- Node16 -->
<g id="node17" class="node">
<title>Node16</title>
<polygon fill="none" stroke="#bfbfbf" points="410.5,-.5 410.5,-19.5 455.5,-19.5 455.5,-.5 410.5,-.5"/>
<text text-anchor="middle" x="433" y="-7.5" font-family="FreeSans.ttf" font-size="10.00" fill="#000000">utility</text>
</g>
<!-- Node10&#45;&gt;Node16 -->
<g id="edge19" class="edge">
<title>Node10&#45;&gt;Node16</title>
<path fill="none" stroke="#191970" d="M552.2455,-56.3733C528.1447,-47.0007 491.399,-32.7107 465.0707,-22.472"/>
<polygon fill="#191970" stroke="#191970" points="466.127,-19.1274 455.5383,-18.7649 463.5898,-25.6514 466.127,-19.1274"/>
</g>
<!-- Node21&#45;&gt;Node4 -->
<g id="edge27" class="edge">
<title>Node21&#45;&gt;Node4</title>
<path fill="none" stroke="#191970" d="M493.1417,-168.4509C460.6092,-148.8615 386.1324,-104.0152 347.4034,-80.6945"/>
<polygon fill="#191970" stroke="#191970" points="349.1904,-77.6851 338.8181,-75.5249 345.5794,-83.6818 349.1904,-77.6851"/>
</g>
<!-- Node21&#45;&gt;Node8 -->
<g id="edge31" class="edge">
<title>Node21&#45;&gt;Node8</title>
<path fill="none" stroke="#191970" d="M589.7165,-170.7669C677.6546,-162.1897 808.2601,-147.1396 826,-132 855.9734,-106.4202 862.647,-57.6036 863.9239,-30.1105"/>
<polygon fill="#191970" stroke="#191970" points="867.4317,-29.8508 864.1929,-19.7632 860.4341,-29.6688 867.4317,-29.8508"/>
</g>
<!-- Node21&#45;&gt;Node10 -->
<g id="edge28" class="edge">
<title>Node21&#45;&gt;Node10</title>
<path fill="none" stroke="#191970" d="M497.7721,-168.2475C483.9729,-155.0463 463.8004,-130.9615 476,-112 486.1157,-96.2774 503.0731,-85.8649 520.2324,-78.996"/>
<polygon fill="#191970" stroke="#191970" points="521.5447,-82.243 529.744,-75.5332 519.15,-75.6653 521.5447,-82.243"/>
</g>
<!-- Node21&#45;&gt;Node17 -->
<g id="edge32" class="edge">
<title>Node21&#45;&gt;Node17</title>
<path fill="none" stroke="#191970" d="M522.064,-168.2455C533.3562,-159.814 549.8845,-147.4729 563.0271,-137.6598"/>
<polygon fill="#191970" stroke="#191970" points="565.1669,-140.4301 571.0857,-131.6427 560.9789,-134.8211 565.1669,-140.4301"/>
</g>
<!-- Node21&#45;&gt;Node18 -->
<g id="edge29" class="edge">
<title>Node21&#45;&gt;Node18</title>
<path fill="none" stroke="#191970" d="M466.1368,-168.4369C416.2312,-157.3026 334.942,-139.1663 290.1493,-129.1728"/>
<polygon fill="#191970" stroke="#191970" points="290.6373,-125.6956 280.1151,-126.934 289.113,-132.5277 290.6373,-125.6956"/>
</g>
<!-- Node21&#45;&gt;Node20 -->
<g id="edge30" class="edge">
<title>Node21&#45;&gt;Node20</title>
<path fill="none" stroke="#191970" d="M509.6967,-168.2455C510.2187,-160.9382 510.9504,-150.6944 511.5925,-141.7046"/>
<polygon fill="#191970" stroke="#191970" points="515.0898,-141.8667 512.3112,-131.6427 508.1076,-141.3679 515.0898,-141.8667"/>
</g>
<!-- Node23 -->
<g id="node24" class="node">
<title>Node23</title>
<g id="a_node24"><a xlink:href="SpatialMotionVector_8h.html" target="_top" xlink:title="iDynTree/Core/SpatialMotion\lVector.h">
<polygon fill="none" stroke="#000000" points="262.5,-459.5 262.5,-489.5 417.5,-489.5 417.5,-459.5 262.5,-459.5"/>
<text text-anchor="start" x="270.5" y="-477.5" font-family="FreeSans.ttf" font-size="10.00" fill="#000000">iDynTree/Core/SpatialMotion</text>
<text text-anchor="middle" x="340" y="-466.5" font-family="FreeSans.ttf" font-size="10.00" fill="#000000">Vector.h</text>
</a>
</g>
</g>
<!-- Node22&#45;&gt;Node23 -->
<g id="edge34" class="edge">
<title>Node22&#45;&gt;Node23</title>
<path fill="none" stroke="#191970" d="M208.9212,-531.9005C231.6376,-521.9528 267.7515,-506.1382 296.3255,-493.6254"/>
<polygon fill="#191970" stroke="#191970" points="297.9403,-496.7392 305.6966,-489.5218 295.1324,-490.3271 297.9403,-496.7392"/>
</g>
<!-- Node23&#45;&gt;Node21 -->
<g id="edge35" class="edge">
<title>Node23&#45;&gt;Node21</title>
<path fill="none" stroke="#191970" d="M270.3359,-459.4772C181.148,-438.1941 38,-396.2131 38,-346 38,-346 38,-346 38,-290 38,-212.6648 281.372,-188.6391 418.2309,-181.2423"/>
<polygon fill="#191970" stroke="#191970" points="418.4957,-184.7334 428.3,-180.7177 418.1314,-177.7428 418.4957,-184.7334"/>
</g>
<!-- Node24 -->
<g id="node25" class="node">
<title>Node24</title>
<g id="a_node25"><a xlink:href="GeomVector3_8h.html" target="_top" xlink:title="iDynTree/Core/GeomVector3.h">
<polygon fill="none" stroke="#000000" points="530.5,-224.5 530.5,-243.5 693.5,-243.5 693.5,-224.5 530.5,-224.5"/>
<text text-anchor="middle" x="612" y="-231.5" font-family="FreeSans.ttf" font-size="10.00" fill="#000000">iDynTree/Core/GeomVector3.h</text>
</a>
</g>
</g>
<!-- Node23&#45;&gt;Node24 -->
<g id="edge36" class="edge">
<title>Node23&#45;&gt;Node24</title>
<path fill="none" stroke="#191970" d="M357.0148,-459.4556C405.3796,-416.6919 543.3884,-294.6658 593.5171,-250.3424"/>
<polygon fill="#191970" stroke="#191970" points="595.8683,-252.9355 601.0414,-243.6895 591.2315,-247.6914 595.8683,-252.9355"/>
</g>
<!-- Node25 -->
<g id="node26" class="node">
<title>Node25</title>
<g id="a_node26"><a xlink:href="SpatialVector_8h.html" target="_top" xlink:title="iDynTree/Core/SpatialVector.h">
<polygon fill="none" stroke="#000000" points="524.5,-398 524.5,-417 685.5,-417 685.5,-398 524.5,-398"/>
<text text-anchor="middle" x="605" y="-405" font-family="FreeSans.ttf" font-size="10.00" fill="#000000">iDynTree/Core/SpatialVector.h</text>
</a>
</g>
</g>
<!-- Node23&#45;&gt;Node25 -->
<g id="edge38" class="edge">
<title>Node23&#45;&gt;Node25</title>
<path fill="none" stroke="#191970" d="M399.4712,-459.4639C447.1808,-447.4015 513.2611,-430.6944 557.4865,-419.5128"/>
<polygon fill="#191970" stroke="#191970" points="558.5675,-422.8498 567.4045,-417.0053 556.8516,-416.0633 558.5675,-422.8498"/>
</g>
<!-- Node24&#45;&gt;Node21 -->
<g id="edge37" class="edge">
<title>Node24&#45;&gt;Node21</title>
<path fill="none" stroke="#191970" d="M594.0588,-224.2455C577.96,-215.4928 554.1121,-202.527 535.7609,-192.5496"/>
<polygon fill="#191970" stroke="#191970" points="537.1929,-189.3444 526.7356,-187.6427 533.8493,-195.4942 537.1929,-189.3444"/>
</g>
<!-- Node25&#45;&gt;Node4 -->
<g id="edge52" class="edge">
<title>Node25&#45;&gt;Node4</title>
<path fill="none" stroke="#191970" d="M524.348,-401.3363C359.6332,-386.5234 0,-341.8343 0,-234 0,-234 0,-234 0,-178 0,-124.8148 158.3048,-91.205 253.2634,-75.8285"/>
<polygon fill="#191970" stroke="#191970" points="254.0539,-79.2469 263.3804,-74.2202 252.9549,-72.3337 254.0539,-79.2469"/>
</g>
<!-- Node25&#45;&gt;Node19 -->
<g id="edge54" class="edge">
<title>Node25&#45;&gt;Node19</title>
<path fill="none" stroke="#191970" d="M616.7054,-397.6405C628.9939,-387.2846 648.8718,-370.5175 666,-356 762.3665,-274.3217 877.4168,-176.2401 922.0261,-138.1887"/>
<polygon fill="#191970" stroke="#191970" points="924.4132,-140.7529 929.7496,-131.6 919.8701,-135.4273 924.4132,-140.7529"/>
</g>
<!-- Node25&#45;&gt;Node20 -->
<g id="edge55" class="edge">
<title>Node25&#45;&gt;Node20</title>
<path fill="none" stroke="#191970" d="M612.8249,-397.9079C639.1758,-365.0802 721.9406,-257.4208 702,-224 684.6267,-194.8821 596.5436,-155.6545 546.9911,-135.379"/>
<polygon fill="#191970" stroke="#191970" points="548.2092,-132.0962 537.6267,-131.5852 545.5808,-138.584 548.2092,-132.0962"/>
</g>
<!-- Node25&#45;&gt;Node24 -->
<g id="edge53" class="edge">
<title>Node25&#45;&gt;Node24</title>
<path fill="none" stroke="#191970" d="M605.3863,-397.9248C606.4928,-370.499 609.6909,-291.232 611.1973,-253.8964"/>
<polygon fill="#191970" stroke="#191970" points="614.7002,-253.8925 611.6062,-243.7595 607.7059,-253.6103 614.7002,-253.8925"/>
</g>
<!-- Node26 -->
<g id="node27" class="node">
<title>Node26</title>
<g id="a_node27"><a xlink:href="Position_8h.html" target="_top" xlink:title="Position.h">
<polygon fill="none" stroke="#000000" points="243.5,-336.5 243.5,-355.5 308.5,-355.5 308.5,-336.5 243.5,-336.5"/>
<text text-anchor="middle" x="276" y="-343.5" font-family="FreeSans.ttf" font-size="10.00" fill="#000000">Position.h</text>
</a>
</g>
</g>
<!-- Node25&#45;&gt;Node26 -->
<g id="edge39" class="edge">
<title>Node25&#45;&gt;Node26</title>
<path fill="none" stroke="#191970" d="M553.9547,-397.9581C489.2906,-385.8704 379.0226,-365.258 318.6367,-353.9701"/>
<polygon fill="#191970" stroke="#191970" points="319.1487,-350.5052 308.6758,-352.1081 317.8624,-357.3861 319.1487,-350.5052"/>
</g>
<!-- Node28 -->
<g id="node29" class="node">
<title>Node28</title>
<g id="a_node29"><a xlink:href="Rotation_8h.html" target="_top" xlink:title="iDynTree/Core/Rotation.h">
<polygon fill="none" stroke="#000000" points="327.5,-280.5 327.5,-299.5 464.5,-299.5 464.5,-280.5 327.5,-280.5"/>
<text text-anchor="middle" x="396" y="-287.5" font-family="FreeSans.ttf" font-size="10.00" fill="#000000">iDynTree/Core/Rotation.h</text>
</a>
</g>
</g>
<!-- Node25&#45;&gt;Node28 -->
<g id="edge51" class="edge">
<title>Node25&#45;&gt;Node28</title>
<path fill="none" stroke="#191970" d="M587.8967,-397.8845C551.2936,-377.3062 465.1836,-328.8951 421.8565,-304.5365"/>
<polygon fill="#191970" stroke="#191970" points="423.4787,-301.4334 413.0466,-299.5836 420.0482,-307.5352 423.4787,-301.4334"/>
</g>
<!-- Node26&#45;&gt;Node18 -->
<g id="edge50" class="edge">
<title>Node26&#45;&gt;Node18</title>
<path fill="none" stroke="#191970" d="M246.6651,-336.4955C209.6442,-322.73 147.5961,-293.3401 121,-244 109.2764,-222.2508 131.24,-176.2225 139,-168 161.9498,-143.6823 199.2135,-132.0486 225.9292,-126.5958"/>
<polygon fill="#191970" stroke="#191970" points="226.7588,-130.0017 235.9524,-124.7358 225.4816,-123.1192 226.7588,-130.0017"/>
</g>
<!-- Node27 -->
<g id="node28" class="node">
<title>Node27</title>
<g id="a_node28"><a xlink:href="PositionRaw_8h.html" target="_top" xlink:title="iDynTree/Core/PositionRaw.h">
<polygon fill="none" stroke="#000000" points="142,-224.5 142,-243.5 298,-243.5 298,-224.5 142,-224.5"/>
<text text-anchor="middle" x="220" y="-231.5" font-family="FreeSans.ttf" font-size="10.00" fill="#000000">iDynTree/Core/PositionRaw.h</text>
</a>
</g>
</g>
<!-- Node26&#45;&gt;Node27 -->
<g id="edge40" class="edge">
<title>Node26&#45;&gt;Node27</title>
<path fill="none" stroke="#191970" d="M271.2255,-336.4509C261.968,-317.936 241.4295,-276.8591 229.3593,-252.7187"/>
<polygon fill="#191970" stroke="#191970" points="232.3651,-250.9039 224.7624,-243.5249 226.1041,-254.0344 232.3651,-250.9039"/>
</g>
<!-- Node26&#45;&gt;Node28 -->
<g id="edge43" class="edge">
<title>Node26&#45;&gt;Node28</title>
<path fill="none" stroke="#191970" d="M296.6287,-336.3733C315.8919,-327.3838 344.8486,-313.8706 366.5419,-303.7471"/>
<polygon fill="#191970" stroke="#191970" points="368.0587,-306.9017 375.6405,-299.5011 365.0985,-300.5584 368.0587,-306.9017"/>
</g>
<!-- Node27&#45;&gt;Node18 -->
<g id="edge42" class="edge">
<title>Node27&#45;&gt;Node18</title>
<path fill="none" stroke="#191970" d="M223.2399,-224.4509C229.4937,-206.0186 243.3342,-165.2254 251.539,-141.043"/>
<polygon fill="#191970" stroke="#191970" points="254.8697,-142.1192 254.7683,-131.5249 248.2409,-139.8701 254.8697,-142.1192"/>
</g>
<!-- Node27&#45;&gt;Node21 -->
<g id="edge41" class="edge">
<title>Node27&#45;&gt;Node21</title>
<path fill="none" stroke="#191970" d="M269.3525,-224.4369C319.3322,-214.7522 396.6498,-199.7703 449.8742,-189.4569"/>
<polygon fill="#191970" stroke="#191970" points="450.6995,-192.8622 459.8511,-187.5237 449.3678,-185.99 450.6995,-192.8622"/>
</g>
<!-- Node28&#45;&gt;Node18 -->
<g id="edge44" class="edge">
<title>Node28&#45;&gt;Node18</title>
<path fill="none" stroke="#191970" d="M327.3514,-287.686C257.8947,-283.7287 157.3775,-273.0113 133,-244 96.8635,-200.9944 178.4701,-156.3489 226.3453,-134.9534"/>
<polygon fill="#191970" stroke="#191970" points="227.9423,-138.0754 235.7103,-130.8706 225.1448,-131.6587 227.9423,-138.0754"/>
</g>
<!-- Node28&#45;&gt;Node21 -->
<g id="edge49" class="edge">
<title>Node28&#45;&gt;Node21</title>
<path fill="none" stroke="#191970" d="M425.628,-280.4058C444.2681,-273.0422 467.621,-261.1901 483,-244 494.7782,-230.8348 501.5201,-211.7026 505.1718,-197.4231"/>
<polygon fill="#191970" stroke="#191970" points="508.5945,-198.1553 507.3941,-187.6287 501.768,-196.6063 508.5945,-198.1553"/>
</g>
<!-- Node28&#45;&gt;Node24 -->
<g id="edge45" class="edge">
<title>Node28&#45;&gt;Node24</title>
<path fill="none" stroke="#191970" d="M433.1317,-280.3733C469.8267,-270.8598 526.0639,-256.2797 565.6651,-246.0127"/>
<polygon fill="#191970" stroke="#191970" points="566.5512,-249.3988 575.3528,-243.5011 564.7944,-242.6228 566.5512,-249.3988"/>
</g>
<!-- Node29 -->
<g id="node30" class="node">
<title>Node29</title>
<g id="a_node30"><a xlink:href="RotationRaw_8h.html" target="_top" xlink:title="iDynTree/Core/RotationRaw.h">
<polygon fill="none" stroke="#000000" points="316,-224.5 316,-243.5 474,-243.5 474,-224.5 316,-224.5"/>
<text text-anchor="middle" x="395" y="-231.5" font-family="FreeSans.ttf" font-size="10.00" fill="#000000">iDynTree/Core/RotationRaw.h</text>
</a>
</g>
</g>
<!-- Node28&#45;&gt;Node29 -->
<g id="edge46" class="edge">
<title>Node28&#45;&gt;Node29</title>
<path fill="none" stroke="#191970" d="M395.8258,-280.2455C395.6953,-272.9382 395.5124,-262.6944 395.3519,-253.7046"/>
<polygon fill="#191970" stroke="#191970" points="398.8503,-253.5786 395.1722,-243.6427 391.8514,-253.7036 398.8503,-253.5786"/>
</g>
<!-- Node29&#45;&gt;Node3 -->
<g id="edge47" class="edge">
<title>Node29&#45;&gt;Node3</title>
<path fill="none" stroke="#191970" d="M456.8187,-224.4369C520.2039,-214.6314 618.6921,-199.3957 685.42,-189.0731"/>
<polygon fill="#191970" stroke="#191970" points="686.0889,-192.5114 695.4363,-187.5237 685.0187,-185.5937 686.0889,-192.5114"/>
</g>
<!-- Node29&#45;&gt;Node18 -->
<g id="edge48" class="edge">
<title>Node29&#45;&gt;Node18</title>
<path fill="none" stroke="#191970" d="M383.3195,-224.4509C359.7617,-205.1921 306.3437,-161.5218 277.4411,-137.8935"/>
<polygon fill="#191970" stroke="#191970" points="279.6084,-135.1445 269.651,-131.5249 275.1778,-140.564 279.6084,-135.1445"/>
</g>
<!-- Node31 -->
<g id="node32" class="node">
<title>Node31</title>
<g id="a_node32"><a xlink:href="SpatialForceVector_8h.html" target="_top" xlink:title="iDynTree/Core/SpatialForce\lVector.h">
<polygon fill="none" stroke="#000000" points="622,-459.5 622,-489.5 770,-489.5 770,-459.5 622,-459.5"/>
<text text-anchor="start" x="630" y="-477.5" font-family="FreeSans.ttf" font-size="10.00" fill="#000000">iDynTree/Core/SpatialForce</text>
<text text-anchor="middle" x="696" y="-466.5" font-family="FreeSans.ttf" font-size="10.00" fill="#000000">Vector.h</text>
</a>
</g>
</g>
<!-- Node30&#45;&gt;Node31 -->
<g id="edge57" class="edge">
<title>Node30&#45;&gt;Node31</title>
<path fill="none" stroke="#191970" d="M549.5001,-531.9005C575.1098,-521.8663 615.9548,-505.8627 648.0186,-493.2997"/>
<polygon fill="#191970" stroke="#191970" points="649.6269,-496.4287 657.6609,-489.5218 647.0732,-489.9111 649.6269,-496.4287"/>
</g>
<!-- Node31&#45;&gt;Node21 -->
<g id="edge58" class="edge">
<title>Node31&#45;&gt;Node21</title>
<path fill="none" stroke="#191970" d="M709.2608,-459.4903C728.0068,-436.6681 760,-391.1104 760,-346 760,-346 760,-346 760,-290 760,-250.9495 735.4557,-244.1409 702,-224 671.2463,-205.4857 633.548,-194.4222 599.6556,-187.8114"/>
<polygon fill="#191970" stroke="#191970" points="600.2096,-184.3546 589.7403,-185.9809 598.9388,-191.2383 600.2096,-184.3546"/>
</g>
<!-- Node31&#45;&gt;Node24 -->
<g id="edge59" class="edge">
<title>Node31&#45;&gt;Node24</title>
<path fill="none" stroke="#191970" d="M697.6514,-459.3169C699.0129,-442.5499 699.8825,-414.8962 694,-392 679.9743,-337.408 644.3134,-280.4077 624.9634,-252.1394"/>
<polygon fill="#191970" stroke="#191970" points="627.6705,-249.9022 619.0814,-243.6992 621.9275,-253.9046 627.6705,-249.9022"/>
</g>
<!-- Node31&#45;&gt;Node25 -->
<g id="edge60" class="edge">
<title>Node31&#45;&gt;Node25</title>
<path fill="none" stroke="#191970" d="M675.3507,-459.2967C660.6219,-448.4524 640.8814,-433.9182 626.0604,-423.006"/>
<polygon fill="#191970" stroke="#191970" points="628.1056,-420.1655 617.9776,-417.055 623.9553,-425.8025 628.1056,-420.1655"/>
</g>
<!-- Node32&#45;&gt;Node23 -->
<g id="edge62" class="edge">
<title>Node32&#45;&gt;Node23</title>
<path fill="none" stroke="#191970" d="M340,-531.9005C340,-523.5099 340,-510.9451 340,-499.7085"/>
<polygon fill="#191970" stroke="#191970" points="343.5001,-499.5217 340,-489.5218 336.5001,-499.5218 343.5001,-499.5217"/>
</g>
<!-- Node33&#45;&gt;Node31 -->
<g id="edge64" class="edge">
<title>Node33&#45;&gt;Node31</title>
<path fill="none" stroke="#191970" d="M701.9971,-531.9005C701.1204,-523.5099 699.8077,-510.9451 698.6337,-499.7085"/>
<polygon fill="#191970" stroke="#191970" points="702.0897,-499.1039 697.5694,-489.5218 695.1276,-499.8314 702.0897,-499.1039"/>
</g>
</g>
</svg>
