<?xml version="1.0" encoding="UTF-8" standalone="no"?>
<!DOCTYPE svg PUBLIC "-//W3C//DTD SVG 1.1//EN"
 "http://www.w3.org/Graphics/SVG/1.1/DTD/svg11.dtd">
<!-- Generated by graphviz version 2.40.1 (20161225.0304)
 -->
<!-- Title: iDynTree::ThreeAxisAngularAccelerometerSensor::ThreeAxisAngularAccelerometerPrivateAttributes Pages: 1 -->
<svg width="278pt" height="298pt"
 viewBox="0.00 0.00 278.00 298.00" xmlns="http://www.w3.org/2000/svg" xmlns:xlink="http://www.w3.org/1999/xlink">
<g id="graph0" class="graph" transform="scale(1 1) rotate(0) translate(4 294)">
<title>iDynTree::ThreeAxisAngularAccelerometerSensor::ThreeAxisAngularAccelerometerPrivateAttributes</title>
<!-- Node1 -->
<g id="node1" class="node">
<title>Node1</title>
<polygon fill="#bfbfbf" stroke="#000000" points="35.5,-.5 35.5,-41.5 243.5,-41.5 243.5,-.5 35.5,-.5"/>
<text text-anchor="start" x="43.5" y="-29.5" font-family="FreeSans.ttf" font-size="10.00" fill="#000000">iDynTree::ThreeAxisAngular</text>
<text text-anchor="start" x="43.5" y="-18.5" font-family="FreeSans.ttf" font-size="10.00" fill="#000000">AccelerometerSensor::ThreeAxis</text>
<text text-anchor="middle" x="139.5" y="-7.5" font-family="FreeSans.ttf" font-size="10.00" fill="#000000">AngularAccelerometerPrivateAttributes</text>
</g>
<!-- Node2 -->
<g id="node2" class="node">
<title>Node2</title>
<g id="a_node2"><a xlink:href="classiDynTree_1_1Transform.html" target="_top" xlink:title="Class representation the relative displacement between two different frames. ">
<polygon fill="none" stroke="#000000" points="82.5,-89.5 82.5,-108.5 196.5,-108.5 196.5,-89.5 82.5,-89.5"/>
<text text-anchor="middle" x="139.5" y="-96.5" font-family="FreeSans.ttf" font-size="10.00" fill="#000000">iDynTree::Transform</text>
</a>
</g>
</g>
<!-- Node2&#45;&gt;Node1 -->
<g id="edge1" class="edge">
<title>Node2&#45;&gt;Node1</title>
<path fill="none" stroke="#9a32cd" stroke-dasharray="5,2" d="M139.5,-79.1881C139.5,-67.7521 139.5,-53.3843 139.5,-41.7873"/>
<polygon fill="#9a32cd" stroke="#9a32cd" points="136.0001,-79.4356 139.5,-89.4357 143.0001,-79.4357 136.0001,-79.4356"/>
<text text-anchor="middle" x="175.5" y="-63" font-family="FreeSans.ttf" font-size="10.00" fill="#000000"> link_H_sensor</text>
</g>
<!-- Node3 -->
<g id="node3" class="node">
<title>Node3</title>
<g id="a_node3"><a xlink:href="classiDynTree_1_1Rotation.html" target="_top" xlink:title="Class representation the rotation of an orientation frame with respect to a reference orientation fra...">
<polygon fill="none" stroke="#000000" points="25.5,-156.5 25.5,-175.5 131.5,-175.5 131.5,-156.5 25.5,-156.5"/>
<text text-anchor="middle" x="78.5" y="-163.5" font-family="FreeSans.ttf" font-size="10.00" fill="#000000">iDynTree::Rotation</text>
</a>
</g>
</g>
<!-- Node3&#45;&gt;Node2 -->
<g id="edge2" class="edge">
<title>Node3&#45;&gt;Node2</title>
<path fill="none" stroke="#9a32cd" stroke-dasharray="5,2" d="M94.2374,-148.7147C105.8671,-135.941 121.2707,-119.0224 130.7764,-108.5817"/>
<polygon fill="#9a32cd" stroke="#9a32cd" points="91.384,-146.6498 87.2398,-156.4005 96.5601,-151.3624 91.384,-146.6498"/>
<text text-anchor="middle" x="122" y="-130" font-family="FreeSans.ttf" font-size="10.00" fill="#000000"> rot</text>
</g>
<!-- Node4 -->
<g id="node4" class="node">
<title>Node4</title>
<g id="a_node4"><a xlink:href="classiDynTree_1_1RotationRaw.html" target="_top" xlink:title="Class providing the raw coordinates for iDynTree::Rotation class. ">
<polygon fill="none" stroke="#000000" points="0,-213.5 0,-232.5 127,-232.5 127,-213.5 0,-213.5"/>
<text text-anchor="middle" x="63.5" y="-220.5" font-family="FreeSans.ttf" font-size="10.00" fill="#000000">iDynTree::RotationRaw</text>
</a>
</g>
</g>
<!-- Node4&#45;&gt;Node3 -->
<g id="edge3" class="edge">
<title>Node4&#45;&gt;Node3</title>
<path fill="none" stroke="#191970" d="M68.6211,-203.5397C71.1095,-194.0839 73.9876,-183.147 75.993,-175.5265"/>
<polygon fill="#191970" stroke="#191970" points="65.2048,-202.7692 66.0445,-213.3307 71.9743,-204.5507 65.2048,-202.7692"/>
</g>
<!-- Node5 -->
<g id="node5" class="node">
<title>Node5</title>
<g id="a_node5"><a xlink:href="classiDynTree_1_1MatrixFixSize.html" target="_top" xlink:title="Class providing a simple form of matrix with dynamic size. ">
<polygon fill="none" stroke="#000000" points="31,-270.5 31,-289.5 96,-289.5 96,-270.5 31,-270.5"/>
<text text-anchor="middle" x="63.5" y="-277.5" font-family="FreeSans.ttf" font-size="10.00" fill="#000000">Matrix3x3</text>
</a>
</g>
</g>
<!-- Node5&#45;&gt;Node4 -->
<g id="edge4" class="edge">
<title>Node5&#45;&gt;Node4</title>
<path fill="none" stroke="#191970" d="M63.5,-260.2342C63.5,-250.8491 63.5,-240.0651 63.5,-232.5265"/>
<polygon fill="#191970" stroke="#191970" points="60.0001,-260.3307 63.5,-270.3307 67.0001,-260.3308 60.0001,-260.3307"/>
</g>
<!-- Node6 -->
<g id="node6" class="node">
<title>Node6</title>
<g id="a_node6"><a xlink:href="classiDynTree_1_1Position.html" target="_top" xlink:title="Class representation the coordinates of the Position of a point with respect to another point...">
<polygon fill="none" stroke="#000000" points="152.5,-156.5 152.5,-175.5 256.5,-175.5 256.5,-156.5 152.5,-156.5"/>
<text text-anchor="middle" x="204.5" y="-163.5" font-family="FreeSans.ttf" font-size="10.00" fill="#000000">iDynTree::Position</text>
</a>
</g>
</g>
<!-- Node6&#45;&gt;Node2 -->
<g id="edge5" class="edge">
<title>Node6&#45;&gt;Node2</title>
<path fill="none" stroke="#9a32cd" stroke-dasharray="5,2" d="M188.0837,-149.0785C175.6515,-136.2639 159.0212,-119.1218 148.7956,-108.5817"/>
<polygon fill="#9a32cd" stroke="#9a32cd" points="185.7118,-151.6602 195.1871,-156.4005 190.736,-146.786 185.7118,-151.6602"/>
<text text-anchor="middle" x="187" y="-130" font-family="FreeSans.ttf" font-size="10.00" fill="#000000"> pos</text>
</g>
<!-- Node7 -->
<g id="node7" class="node">
<title>Node7</title>
<g id="a_node7"><a xlink:href="classiDynTree_1_1PositionRaw.html" target="_top" xlink:title="Class providing the raw coordinates for iDynTree::Position class. ">
<polygon fill="none" stroke="#000000" points="145,-213.5 145,-232.5 270,-232.5 270,-213.5 145,-213.5"/>
<text text-anchor="middle" x="207.5" y="-220.5" font-family="FreeSans.ttf" font-size="10.00" fill="#000000">iDynTree::PositionRaw</text>
</a>
</g>
</g>
<!-- Node7&#45;&gt;Node6 -->
<g id="edge6" class="edge">
<title>Node7&#45;&gt;Node6</title>
<path fill="none" stroke="#191970" d="M206.4597,-203.2342C205.9657,-193.8491 205.3982,-183.0651 205.0014,-175.5265"/>
<polygon fill="#191970" stroke="#191970" points="202.9702,-203.5285 206.9911,-213.3307 209.9606,-203.1606 202.9702,-203.5285"/>
</g>
<!-- Node8 -->
<g id="node8" class="node">
<title>Node8</title>
<g id="a_node8"><a xlink:href="classiDynTree_1_1VectorFixSize.html" target="_top" xlink:title="Class providing a simple vector of N elements. ">
<polygon fill="none" stroke="#000000" points="181,-270.5 181,-289.5 234,-289.5 234,-270.5 181,-270.5"/>
<text text-anchor="middle" x="207.5" y="-277.5" font-family="FreeSans.ttf" font-size="10.00" fill="#000000">Vector3</text>
</a>
</g>
</g>
<!-- Node8&#45;&gt;Node7 -->
<g id="edge7" class="edge">
<title>Node8&#45;&gt;Node7</title>
<path fill="none" stroke="#191970" d="M207.5,-260.2342C207.5,-250.8491 207.5,-240.0651 207.5,-232.5265"/>
<polygon fill="#191970" stroke="#191970" points="204.0001,-260.3307 207.5,-270.3307 211.0001,-260.3308 204.0001,-260.3307"/>
</g>
</g>
</svg>
