<?xml version="1.0" encoding="UTF-8" standalone="no"?>
<!DOCTYPE svg PUBLIC "-//W3C//DTD SVG 1.1//EN"
 "http://www.w3.org/Graphics/SVG/1.1/DTD/svg11.dtd">
<!-- Generated by graphviz version 2.40.1 (20161225.0304)
 -->
<!-- Title: TestUtils.cpp Pages: 1 -->
<svg width="1599pt" height="677pt"
 viewBox="0.00 0.00 1598.78 677.00" xmlns="http://www.w3.org/2000/svg" xmlns:xlink="http://www.w3.org/1999/xlink">
<g id="graph0" class="graph" transform="scale(1 1) rotate(0) translate(4 673)">
<title>TestUtils.cpp</title>
<!-- Node0 -->
<g id="node1" class="node">
<title>Node0</title>
<polygon fill="#bfbfbf" stroke="#000000" points="1047.7846,-649.5 1047.7846,-668.5 1126.7846,-668.5 1126.7846,-649.5 1047.7846,-649.5"/>
<text text-anchor="middle" x="1087.2846" y="-656.5" font-family="FreeSans.ttf" font-size="10.00" fill="#000000">TestUtils.cpp</text>
</g>
<!-- Node1 -->
<g id="node2" class="node">
<title>Node1</title>
<g id="a_node2"><a xlink:href="SpatialForceVector_8h.html" target="_top" xlink:title="iDynTree/Core/SpatialForce\lVector.h">
<polygon fill="none" stroke="#000000" points="131.2846,-459.5 131.2846,-489.5 279.2846,-489.5 279.2846,-459.5 131.2846,-459.5"/>
<text text-anchor="start" x="139.2846" y="-477.5" font-family="FreeSans.ttf" font-size="10.00" fill="#000000">iDynTree/Core/SpatialForce</text>
<text text-anchor="middle" x="205.2846" y="-466.5" font-family="FreeSans.ttf" font-size="10.00" fill="#000000">Vector.h</text>
</a>
</g>
</g>
<!-- Node0&#45;&gt;Node1 -->
<g id="edge1" class="edge">
<title>Node0&#45;&gt;Node1</title>
<path fill="none" stroke="#191970" d="M1047.7674,-658.3962C862.8321,-655.1584 88.9557,-636.883 21.2846,-557 -12.9752,-516.5577 57.6444,-495.0957 121.0733,-484.3091"/>
<polygon fill="#191970" stroke="#191970" points="121.8649,-487.7264 131.1744,-482.6683 120.7425,-480.817 121.8649,-487.7264"/>
</g>
<!-- Node26 -->
<g id="node27" class="node">
<title>Node26</title>
<polygon fill="none" stroke="#bfbfbf" points="1106.2846,-112.5 1106.2846,-131.5 1166.2846,-131.5 1166.2846,-112.5 1106.2846,-112.5"/>
<text text-anchor="middle" x="1136.2846" y="-119.5" font-family="FreeSans.ttf" font-size="10.00" fill="#000000">iostream</text>
</g>
<!-- Node0&#45;&gt;Node26 -->
<g id="edge93" class="edge">
<title>Node0&#45;&gt;Node26</title>
<path fill="none" stroke="#191970" d="M1116.0855,-649.3809C1156.7994,-633.7494 1226.2846,-598.6938 1226.2846,-541.5 1226.2846,-541.5 1226.2846,-541.5 1226.2846,-290 1226.2846,-228.5643 1178.9417,-167.8715 1152.9297,-139.1611"/>
<polygon fill="#191970" stroke="#191970" points="1155.2907,-136.5604 1145.9162,-131.6238 1150.166,-141.329 1155.2907,-136.5604"/>
</g>
<!-- Node27 -->
<g id="node28" class="node">
<title>Node27</title>
<g id="a_node28"><a xlink:href="SpatialMotionVector_8h.html" target="_top" xlink:title="iDynTree/Core/SpatialMotion\lVector.h">
<polygon fill="none" stroke="#000000" points="328.7846,-459.5 328.7846,-489.5 483.7846,-489.5 483.7846,-459.5 328.7846,-459.5"/>
<text text-anchor="start" x="336.7846" y="-477.5" font-family="FreeSans.ttf" font-size="10.00" fill="#000000">iDynTree/Core/SpatialMotion</text>
<text text-anchor="middle" x="406.2846" y="-466.5" font-family="FreeSans.ttf" font-size="10.00" fill="#000000">Vector.h</text>
</a>
</g>
</g>
<!-- Node0&#45;&gt;Node27 -->
<g id="edge51" class="edge">
<title>Node0&#45;&gt;Node27</title>
<path fill="none" stroke="#191970" d="M1060.3653,-649.3401C1038.0588,-640.9135 1005.8273,-627.7506 979.2846,-613 920.4383,-580.2974 918.2202,-549.9052 855.2846,-526 791.2686,-501.6844 605.8077,-486.5849 494.275,-479.4381"/>
<polygon fill="#191970" stroke="#191970" points="494.2523,-475.9298 484.0514,-478.792 493.8107,-482.9158 494.2523,-475.9298"/>
</g>
<!-- Node28 -->
<g id="node29" class="node">
<title>Node28</title>
<g id="a_node29"><a xlink:href="Axis_8h.html" target="_top" xlink:title="iDynTree/Core/Axis.h">
<polygon fill="none" stroke="#000000" points="1028.2846,-403.5 1028.2846,-422.5 1146.2846,-422.5 1146.2846,-403.5 1028.2846,-403.5"/>
<text text-anchor="middle" x="1087.2846" y="-410.5" font-family="FreeSans.ttf" font-size="10.00" fill="#000000">iDynTree/Core/Axis.h</text>
</a>
</g>
</g>
<!-- Node0&#45;&gt;Node28 -->
<g id="edge55" class="edge">
<title>Node0&#45;&gt;Node28</title>
<path fill="none" stroke="#191970" d="M1087.2846,-649.3565C1087.2846,-612.8479 1087.2846,-482.6569 1087.2846,-432.7066"/>
<polygon fill="#191970" stroke="#191970" points="1090.7847,-432.5768 1087.2846,-422.5768 1083.7847,-432.5769 1090.7847,-432.5768"/>
</g>
<!-- Node30 -->
<g id="node31" class="node">
<title>Node30</title>
<g id="a_node31"><a xlink:href="SpatialInertia_8h.html" target="_top" xlink:title="iDynTree/Core/SpatialInertia.h">
<polygon fill="none" stroke="#000000" points="366.2846,-593.5 366.2846,-612.5 528.2846,-612.5 528.2846,-593.5 366.2846,-593.5"/>
<text text-anchor="middle" x="447.2846" y="-600.5" font-family="FreeSans.ttf" font-size="10.00" fill="#000000">iDynTree/Core/SpatialInertia.h</text>
</a>
</g>
</g>
<!-- Node0&#45;&gt;Node30 -->
<g id="edge63" class="edge">
<title>Node0&#45;&gt;Node30</title>
<path fill="none" stroke="#191970" d="M1047.7327,-655.5392C947.2646,-646.7482 680.1822,-623.3785 538.5044,-610.9817"/>
<polygon fill="#191970" stroke="#191970" points="538.7914,-607.4936 528.5243,-610.1085 538.1811,-614.4669 538.7914,-607.4936"/>
</g>
<!-- Node37 -->
<g id="node38" class="node">
<title>Node37</title>
<g id="a_node38"><a xlink:href="TestUtils_8h.html" target="_top" xlink:title="iDynTree/Core/TestUtils.h">
<polygon fill="none" stroke="#000000" points="1269.7846,-224.5 1269.7846,-243.5 1408.7846,-243.5 1408.7846,-224.5 1269.7846,-224.5"/>
<text text-anchor="middle" x="1339.2846" y="-231.5" font-family="FreeSans.ttf" font-size="10.00" fill="#000000">iDynTree/Core/TestUtils.h</text>
</a>
</g>
</g>
<!-- Node0&#45;&gt;Node37 -->
<g id="edge76" class="edge">
<title>Node0&#45;&gt;Node37</title>
<path fill="none" stroke="#191970" d="M1127.1963,-654.3884C1187.3481,-644.9706 1294.2846,-617.5353 1294.2846,-541.5 1294.2846,-541.5 1294.2846,-541.5 1294.2846,-351.5 1294.2846,-314.3948 1314.0967,-274.7986 1327.4292,-252.3534"/>
<polygon fill="#191970" stroke="#191970" points="1330.5696,-253.9287 1332.8372,-243.5793 1324.6106,-250.2557 1330.5696,-253.9287"/>
</g>
<!-- Node41 -->
<g id="node42" class="node">
<title>Node41</title>
<polygon fill="none" stroke="#bfbfbf" points="1476.7846,-168.5 1476.7846,-187.5 1525.7846,-187.5 1525.7846,-168.5 1476.7846,-168.5"/>
<text text-anchor="middle" x="1501.2846" y="-175.5" font-family="FreeSans.ttf" font-size="10.00" fill="#000000">cstdlib</text>
</g>
<!-- Node0&#45;&gt;Node41 -->
<g id="edge94" class="edge">
<title>Node0&#45;&gt;Node41</title>
<path fill="none" stroke="#191970" d="M1126.9551,-655.0575C1223.2085,-644.3976 1461.2846,-611.0059 1461.2846,-541.5 1461.2846,-541.5 1461.2846,-541.5 1461.2846,-290 1461.2846,-255.4432 1478.3816,-218.1996 1490.2204,-196.5529"/>
<polygon fill="#191970" stroke="#191970" points="1493.3133,-198.1941 1495.2095,-187.7703 1487.2268,-194.7365 1493.3133,-198.1941"/>
</g>
<!-- Node42 -->
<g id="node43" class="node">
<title>Node42</title>
<polygon fill="none" stroke="#bfbfbf" points="1543.7846,-168.5 1543.7846,-187.5 1590.7846,-187.5 1590.7846,-168.5 1543.7846,-168.5"/>
<text text-anchor="middle" x="1567.2846" y="-175.5" font-family="FreeSans.ttf" font-size="10.00" fill="#000000">cmath</text>
</g>
<!-- Node0&#45;&gt;Node42 -->
<g id="edge95" class="edge">
<title>Node0&#45;&gt;Node42</title>
<path fill="none" stroke="#191970" d="M1126.9267,-656.8425C1234.7444,-649.8998 1525.2846,-623.5764 1525.2846,-541.5 1525.2846,-541.5 1525.2846,-541.5 1525.2846,-290 1525.2846,-255.2434 1543.2365,-218.0613 1555.6671,-196.4811"/>
<polygon fill="#191970" stroke="#191970" points="1558.7733,-198.1065 1560.9057,-187.7285 1552.7669,-194.5116 1558.7733,-198.1065"/>
</g>
<!-- Node43 -->
<g id="node44" class="node">
<title>Node43</title>
<g id="a_node44"><a xlink:href="Transform_8h.html" target="_top" xlink:title="iDynTree/Core/Transform.h">
<polygon fill="none" stroke="#000000" points="697.2846,-403.5 697.2846,-422.5 843.2846,-422.5 843.2846,-403.5 697.2846,-403.5"/>
<text text-anchor="middle" x="770.2846" y="-410.5" font-family="FreeSans.ttf" font-size="10.00" fill="#000000">iDynTree/Core/Transform.h</text>
</a>
</g>
</g>
<!-- Node0&#45;&gt;Node43 -->
<g id="edge88" class="edge">
<title>Node0&#45;&gt;Node43</title>
<path fill="none" stroke="#191970" d="M1074.8578,-649.3565C1026.5246,-611.8487 850.7723,-475.4605 790.631,-428.7893"/>
<polygon fill="#191970" stroke="#191970" points="792.6715,-425.9426 782.6255,-422.5768 788.3799,-431.4727 792.6715,-425.9426"/>
</g>
<!-- Node2 -->
<g id="node3" class="node">
<title>Node2</title>
<g id="a_node3"><a xlink:href="VectorFixSize_8h.html" target="_top" xlink:title="iDynTree/Core/VectorFixSize.h">
<polygon fill="none" stroke="#000000" points="184.7846,-168.5 184.7846,-187.5 345.7846,-187.5 345.7846,-168.5 184.7846,-168.5"/>
<text text-anchor="middle" x="265.2846" y="-175.5" font-family="FreeSans.ttf" font-size="10.00" fill="#000000">iDynTree/Core/VectorFixSize.h</text>
</a>
</g>
</g>
<!-- Node1&#45;&gt;Node2 -->
<g id="edge2" class="edge">
<title>Node1&#45;&gt;Node2</title>
<path fill="none" stroke="#191970" d="M152.1693,-459.3734C103.9346,-441.9992 40.2846,-408.3096 40.2846,-351.5 40.2846,-351.5 40.2846,-351.5 40.2846,-290 40.2846,-226.8366 112.2253,-199.2945 174.7487,-187.2851"/>
<polygon fill="#191970" stroke="#191970" points="175.4721,-190.7111 184.69,-185.4879 174.2268,-183.8227 175.4721,-190.7111"/>
</g>
<!-- Node18 -->
<g id="node19" class="node">
<title>Node18</title>
<g id="a_node19"><a xlink:href="GeomVector3_8h.html" target="_top" xlink:title="iDynTree/Core/GeomVector3.h">
<polygon fill="none" stroke="#000000" points="144.7846,-224.5 144.7846,-243.5 307.7846,-243.5 307.7846,-224.5 144.7846,-224.5"/>
<text text-anchor="middle" x="226.2846" y="-231.5" font-family="FreeSans.ttf" font-size="10.00" fill="#000000">iDynTree/Core/GeomVector3.h</text>
</a>
</g>
</g>
<!-- Node1&#45;&gt;Node18 -->
<g id="edge20" class="edge">
<title>Node1&#45;&gt;Node18</title>
<path fill="none" stroke="#191970" d="M206.5982,-459.4556C210.2399,-417.75 220.4644,-300.6556 224.5581,-253.7727"/>
<polygon fill="#191970" stroke="#191970" points="228.0553,-253.956 225.4385,-243.6895 221.0818,-253.3471 228.0553,-253.956"/>
</g>
<!-- Node19 -->
<g id="node20" class="node">
<title>Node19</title>
<g id="a_node20"><a xlink:href="SpatialVector_8h.html" target="_top" xlink:title="iDynTree/Core/SpatialVector.h">
<polygon fill="none" stroke="#000000" points="304.7846,-403.5 304.7846,-422.5 465.7846,-422.5 465.7846,-403.5 304.7846,-403.5"/>
<text text-anchor="middle" x="385.2846" y="-410.5" font-family="FreeSans.ttf" font-size="10.00" fill="#000000">iDynTree/Core/SpatialVector.h</text>
</a>
</g>
</g>
<!-- Node1&#45;&gt;Node19 -->
<g id="edge22" class="edge">
<title>Node1&#45;&gt;Node19</title>
<path fill="none" stroke="#191970" d="M249.3176,-459.4554C279.4827,-449.149 319.0654,-435.6249 347.7376,-425.8286"/>
<polygon fill="#191970" stroke="#191970" points="349.0597,-429.0756 357.391,-422.5303 346.7964,-422.4515 349.0597,-429.0756"/>
</g>
<!-- Node3 -->
<g id="node4" class="node">
<title>Node3</title>
<g id="a_node4"><a xlink:href="Utils_8h.html" target="_top" xlink:title="iDynTree/Core/Utils.h">
<polygon fill="none" stroke="#000000" points="686.7846,-56.5 686.7846,-75.5 805.7846,-75.5 805.7846,-56.5 686.7846,-56.5"/>
<text text-anchor="middle" x="746.2846" y="-63.5" font-family="FreeSans.ttf" font-size="10.00" fill="#000000">iDynTree/Core/Utils.h</text>
</a>
</g>
</g>
<!-- Node2&#45;&gt;Node3 -->
<g id="edge3" class="edge">
<title>Node2&#45;&gt;Node3</title>
<path fill="none" stroke="#191970" d="M345.8948,-169.0922C425.3558,-159.8232 540.9785,-144.8893 584.2846,-132 604.486,-125.9874 607.8886,-120.2487 627.2846,-112 654.9288,-100.2435 686.6821,-88.0329 710.4316,-79.1491"/>
<polygon fill="#191970" stroke="#191970" points="711.9334,-82.3247 720.0846,-75.5564 709.4918,-75.7643 711.9334,-82.3247"/>
</g>
<!-- Node6 -->
<g id="node7" class="node">
<title>Node6</title>
<g id="a_node7"><a xlink:href="Span_8h.html" target="_top" xlink:title="iDynTree/Core/Span.h">
<polygon fill="none" stroke="#000000" points="461.7846,-56.5 461.7846,-75.5 582.7846,-75.5 582.7846,-56.5 461.7846,-56.5"/>
<text text-anchor="middle" x="522.2846" y="-63.5" font-family="FreeSans.ttf" font-size="10.00" fill="#000000">iDynTree/Core/Span.h</text>
</a>
</g>
</g>
<!-- Node2&#45;&gt;Node6 -->
<g id="edge6" class="edge">
<title>Node2&#45;&gt;Node6</title>
<path fill="none" stroke="#191970" d="M268.8459,-168.1799C274.6957,-153.5136 287.7781,-126.106 308.2846,-112 331.3007,-96.1677 398.4649,-83.3484 451.4759,-75.3033"/>
<polygon fill="#191970" stroke="#191970" points="452.157,-78.7405 461.5335,-73.8077 451.1274,-71.8167 452.157,-78.7405"/>
</g>
<!-- Node7 -->
<g id="node8" class="node">
<title>Node7</title>
<polygon fill="none" stroke="#bfbfbf" points="222.2846,-.5 222.2846,-19.5 274.2846,-19.5 274.2846,-.5 222.2846,-.5"/>
<text text-anchor="middle" x="248.2846" y="-7.5" font-family="FreeSans.ttf" font-size="10.00" fill="#000000">cassert</text>
</g>
<!-- Node2&#45;&gt;Node7 -->
<g id="edge18" class="edge">
<title>Node2&#45;&gt;Node7</title>
<path fill="none" stroke="#191970" d="M239.7584,-168.3698C224.1425,-160.9914 205.4557,-149.1364 196.2846,-132 176.9582,-95.8884 209.6001,-51.054 231.3183,-27.0566"/>
<polygon fill="#191970" stroke="#191970" points="233.8773,-29.4444 238.174,-19.7599 228.7758,-24.6512 233.8773,-29.4444"/>
</g>
<!-- Node15 -->
<g id="node16" class="node">
<title>Node15</title>
<polygon fill="none" stroke="#bfbfbf" points="757.2846,-112.5 757.2846,-131.5 801.2846,-131.5 801.2846,-112.5 757.2846,-112.5"/>
<text text-anchor="middle" x="779.2846" y="-119.5" font-family="FreeSans.ttf" font-size="10.00" fill="#000000">string</text>
</g>
<!-- Node2&#45;&gt;Node15 -->
<g id="edge16" class="edge">
<title>Node2&#45;&gt;Node15</title>
<path fill="none" stroke="#191970" d="M345.8796,-169.2192C460.8315,-156.6953 666.7742,-134.2579 746.5058,-125.5712"/>
<polygon fill="#191970" stroke="#191970" points="747.3339,-129.0018 756.896,-124.4392 746.5757,-122.043 747.3339,-129.0018"/>
</g>
<!-- Node16 -->
<g id="node17" class="node">
<title>Node16</title>
<polygon fill="none" stroke="#bfbfbf" points="205.2846,-112.5 205.2846,-131.5 261.2846,-131.5 261.2846,-112.5 205.2846,-112.5"/>
<text text-anchor="middle" x="233.2846" y="-119.5" font-family="FreeSans.ttf" font-size="10.00" fill="#000000">sstream</text>
</g>
<!-- Node2&#45;&gt;Node16 -->
<g id="edge17" class="edge">
<title>Node2&#45;&gt;Node16</title>
<path fill="none" stroke="#191970" d="M259.7106,-168.2455C255.3515,-160.617 249.1635,-149.7881 243.8713,-140.5267"/>
<polygon fill="#191970" stroke="#191970" points="246.795,-138.5886 238.7947,-131.6427 240.7173,-142.0616 246.795,-138.5886"/>
</g>
<!-- Node17 -->
<g id="node18" class="node">
<title>Node17</title>
<polygon fill="none" stroke="#bfbfbf" points="317.2846,-112.5 317.2846,-131.5 367.2846,-131.5 367.2846,-112.5 317.2846,-112.5"/>
<text text-anchor="middle" x="342.2846" y="-119.5" font-family="FreeSans.ttf" font-size="10.00" fill="#000000">cstring</text>
</g>
<!-- Node2&#45;&gt;Node17 -->
<g id="edge19" class="edge">
<title>Node2&#45;&gt;Node17</title>
<path fill="none" stroke="#191970" d="M278.697,-168.2455C290.2903,-159.814 307.2593,-147.4729 320.7524,-137.6598"/>
<polygon fill="#191970" stroke="#191970" points="322.9972,-140.355 329.0259,-131.6427 318.8799,-134.6938 322.9972,-140.355"/>
</g>
<!-- Node4 -->
<g id="node5" class="node">
<title>Node4</title>
<polygon fill="none" stroke="#bfbfbf" points="719.7846,-.5 719.7846,-19.5 772.7846,-19.5 772.7846,-.5 719.7846,-.5"/>
<text text-anchor="middle" x="746.2846" y="-7.5" font-family="FreeSans.ttf" font-size="10.00" fill="#000000">cstddef</text>
</g>
<!-- Node3&#45;&gt;Node4 -->
<g id="edge4" class="edge">
<title>Node3&#45;&gt;Node4</title>
<path fill="none" stroke="#191970" d="M746.2846,-56.2455C746.2846,-48.9382 746.2846,-38.6944 746.2846,-29.7046"/>
<polygon fill="#191970" stroke="#191970" points="749.7847,-29.6426 746.2846,-19.6427 742.7847,-29.6427 749.7847,-29.6426"/>
</g>
<!-- Node5 -->
<g id="node6" class="node">
<title>Node5</title>
<polygon fill="none" stroke="#bfbfbf" points="873.2846,-.5 873.2846,-19.5 953.2846,-19.5 953.2846,-.5 873.2846,-.5"/>
<text text-anchor="middle" x="913.2846" y="-7.5" font-family="FreeSans.ttf" font-size="10.00" fill="#000000">CoreExport.h</text>
</g>
<!-- Node3&#45;&gt;Node5 -->
<g id="edge5" class="edge">
<title>Node3&#45;&gt;Node5</title>
<path fill="none" stroke="#191970" d="M774.9929,-56.3733C802.6423,-47.1016 844.6422,-33.0178 875.1012,-22.804"/>
<polygon fill="#191970" stroke="#191970" points="876.5825,-25.9989 884.9509,-19.5011 874.357,-19.3621 876.5825,-25.9989"/>
</g>
<!-- Node6&#45;&gt;Node4 -->
<g id="edge10" class="edge">
<title>Node6&#45;&gt;Node4</title>
<path fill="none" stroke="#191970" d="M563.6971,-56.4183C599.895,-47.9319 654.1053,-34.9562 709.5626,-20.3926"/>
<polygon fill="#191970" stroke="#191970" points="710.7863,-23.6895 719.5616,-17.7528 708.9994,-16.9214 710.7863,-23.6895"/>
</g>
<!-- Node6&#45;&gt;Node7 -->
<g id="edge7" class="edge">
<title>Node6&#45;&gt;Node7</title>
<path fill="none" stroke="#191970" d="M464.9997,-56.4373C418.6721,-48.3713 351.5848,-35.943 284.4892,-20.1412"/>
<polygon fill="#191970" stroke="#191970" points="285.131,-16.6962 274.5923,-17.7854 283.51,-23.506 285.131,-16.6962"/>
</g>
<!-- Node8 -->
<g id="node9" class="node">
<title>Node8</title>
<polygon fill="none" stroke="#bfbfbf" points="791.2846,-.5 791.2846,-19.5 855.2846,-19.5 855.2846,-.5 791.2846,-.5"/>
<text text-anchor="middle" x="823.2846" y="-7.5" font-family="FreeSans.ttf" font-size="10.00" fill="#000000">algorithm</text>
</g>
<!-- Node6&#45;&gt;Node8 -->
<g id="edge8" class="edge">
<title>Node6&#45;&gt;Node8</title>
<path fill="none" stroke="#191970" d="M582.3901,-56.4889C632.9526,-48.2322 707.3676,-35.4856 781.1658,-20.139"/>
<polygon fill="#191970" stroke="#191970" points="782.031,-23.5338 791.1001,-18.0564 780.5947,-16.6828 782.031,-23.5338"/>
</g>
<!-- Node9 -->
<g id="node10" class="node">
<title>Node9</title>
<polygon fill="none" stroke="#bfbfbf" points="501.2846,-.5 501.2846,-19.5 543.2846,-19.5 543.2846,-.5 501.2846,-.5"/>
<text text-anchor="middle" x="522.2846" y="-7.5" font-family="FreeSans.ttf" font-size="10.00" fill="#000000">array</text>
</g>
<!-- Node6&#45;&gt;Node9 -->
<g id="edge9" class="edge">
<title>Node6&#45;&gt;Node9</title>
<path fill="none" stroke="#191970" d="M522.2846,-56.2455C522.2846,-48.9382 522.2846,-38.6944 522.2846,-29.7046"/>
<polygon fill="#191970" stroke="#191970" points="525.7847,-29.6426 522.2846,-19.6427 518.7847,-29.6427 525.7847,-29.6426"/>
</g>
<!-- Node10 -->
<g id="node11" class="node">
<title>Node10</title>
<polygon fill="none" stroke="#bfbfbf" points="561.7846,-.5 561.7846,-19.5 614.7846,-19.5 614.7846,-.5 561.7846,-.5"/>
<text text-anchor="middle" x="588.2846" y="-7.5" font-family="FreeSans.ttf" font-size="10.00" fill="#000000">iterator</text>
</g>
<!-- Node6&#45;&gt;Node10 -->
<g id="edge11" class="edge">
<title>Node6&#45;&gt;Node10</title>
<path fill="none" stroke="#191970" d="M533.7809,-56.2455C543.5288,-47.9746 557.7105,-35.9416 569.1644,-26.2232"/>
<polygon fill="#191970" stroke="#191970" points="571.5593,-28.7813 576.92,-19.6427 567.0305,-23.4437 571.5593,-28.7813"/>
</g>
<!-- Node11 -->
<g id="node12" class="node">
<title>Node11</title>
<polygon fill="none" stroke="#bfbfbf" points="292.2846,-.5 292.2846,-19.5 336.2846,-19.5 336.2846,-.5 292.2846,-.5"/>
<text text-anchor="middle" x="314.2846" y="-7.5" font-family="FreeSans.ttf" font-size="10.00" fill="#000000">limits</text>
</g>
<!-- Node6&#45;&gt;Node11 -->
<g id="edge12" class="edge">
<title>Node6&#45;&gt;Node11</title>
<path fill="none" stroke="#191970" d="M482.7379,-56.4173C448.8573,-48.0527 398.5575,-35.2689 346.3543,-20.2037"/>
<polygon fill="#191970" stroke="#191970" points="347.1677,-16.7954 336.5882,-17.3647 345.2136,-23.5171 347.1677,-16.7954"/>
</g>
<!-- Node12 -->
<g id="node13" class="node">
<title>Node12</title>
<polygon fill="none" stroke="#bfbfbf" points="354.7846,-.5 354.7846,-19.5 419.7846,-19.5 419.7846,-.5 354.7846,-.5"/>
<text text-anchor="middle" x="387.2846" y="-7.5" font-family="FreeSans.ttf" font-size="10.00" fill="#000000">stdexcept</text>
</g>
<!-- Node6&#45;&gt;Node12 -->
<g id="edge13" class="edge">
<title>Node6&#45;&gt;Node12</title>
<path fill="none" stroke="#191970" d="M499.0773,-56.3733C477.1147,-47.2629 443.9514,-33.5062 419.4445,-23.3404"/>
<polygon fill="#191970" stroke="#191970" points="420.767,-20.0999 410.1891,-19.5011 418.0849,-26.5657 420.767,-20.0999"/>
</g>
<!-- Node13 -->
<g id="node14" class="node">
<title>Node13</title>
<polygon fill="none" stroke="#bfbfbf" points="632.7846,-.5 632.7846,-19.5 701.7846,-19.5 701.7846,-.5 632.7846,-.5"/>
<text text-anchor="middle" x="667.2846" y="-7.5" font-family="FreeSans.ttf" font-size="10.00" fill="#000000">type_traits</text>
</g>
<!-- Node6&#45;&gt;Node13 -->
<g id="edge14" class="edge">
<title>Node6&#45;&gt;Node13</title>
<path fill="none" stroke="#191970" d="M547.211,-56.3733C570.9048,-47.2226 606.7357,-33.3844 633.0914,-23.2057"/>
<polygon fill="#191970" stroke="#191970" points="634.616,-26.3689 642.6835,-19.5011 632.094,-19.8389 634.616,-26.3689"/>
</g>
<!-- Node14 -->
<g id="node15" class="node">
<title>Node14</title>
<polygon fill="none" stroke="#bfbfbf" points="437.7846,-.5 437.7846,-19.5 482.7846,-19.5 482.7846,-.5 437.7846,-.5"/>
<text text-anchor="middle" x="460.2846" y="-7.5" font-family="FreeSans.ttf" font-size="10.00" fill="#000000">utility</text>
</g>
<!-- Node6&#45;&gt;Node14 -->
<g id="edge15" class="edge">
<title>Node6&#45;&gt;Node14</title>
<path fill="none" stroke="#191970" d="M511.485,-56.2455C502.4168,-48.0549 489.264,-36.1749 478.5601,-26.5069"/>
<polygon fill="#191970" stroke="#191970" points="480.7275,-23.7482 470.9604,-19.6427 476.0355,-28.9429 480.7275,-23.7482"/>
</g>
<!-- Node18&#45;&gt;Node2 -->
<g id="edge21" class="edge">
<title>Node18&#45;&gt;Node2</title>
<path fill="none" stroke="#191970" d="M233.0779,-224.2455C238.5024,-216.4564 246.2507,-205.3308 252.7879,-195.9439"/>
<polygon fill="#191970" stroke="#191970" points="255.7263,-197.849 258.5692,-187.6427 249.9821,-193.8485 255.7263,-197.849"/>
</g>
<!-- Node19&#45;&gt;Node3 -->
<g id="edge47" class="edge">
<title>Node19&#45;&gt;Node3</title>
<path fill="none" stroke="#191970" d="M383.8465,-403.4568C380.8649,-382.8144 374.2846,-332.45 374.2846,-290 374.2846,-290 374.2846,-290 374.2846,-234 374.2846,-203.4754 370.4214,-188.2244 393.2846,-168 469.4669,-100.6105 523.1456,-165.2022 619.2846,-132 636.5853,-126.0251 639.114,-120.5747 655.2846,-112 675.8702,-101.0841 699.3441,-89.2327 717.2941,-80.2935"/>
<polygon fill="#191970" stroke="#191970" points="719.2441,-83.233 726.6446,-75.6513 716.1313,-76.9632 719.2441,-83.233"/>
</g>
<!-- Node19&#45;&gt;Node16 -->
<g id="edge50" class="edge">
<title>Node19&#45;&gt;Node16</title>
<path fill="none" stroke="#191970" d="M334.2452,-403.4958C246.9484,-385.7703 78.2846,-344.4746 78.2846,-290 78.2846,-290 78.2846,-290 78.2846,-234 78.2846,-176.3152 149.6859,-145.3402 195.5663,-131.3911"/>
<polygon fill="#191970" stroke="#191970" points="196.5865,-134.7395 205.2153,-128.5917 194.636,-128.0167 196.5865,-134.7395"/>
</g>
<!-- Node19&#45;&gt;Node18 -->
<g id="edge48" class="edge">
<title>Node19&#45;&gt;Node18</title>
<path fill="none" stroke="#191970" d="M378.6355,-403.4895C362.698,-380.9697 320.5663,-323.0489 279.2846,-280 269.1389,-269.4199 256.8233,-258.6244 246.6183,-250.1527"/>
<polygon fill="#191970" stroke="#191970" points="248.597,-247.2499 238.6365,-243.6389 244.1711,-252.6732 248.597,-247.2499"/>
</g>
<!-- Node20 -->
<g id="node21" class="node">
<title>Node20</title>
<g id="a_node21"><a xlink:href="Position_8h.html" target="_top" xlink:title="Position.h">
<polygon fill="none" stroke="#000000" points="737.7846,-342 737.7846,-361 802.7846,-361 802.7846,-342 737.7846,-342"/>
<text text-anchor="middle" x="770.2846" y="-349" font-family="FreeSans.ttf" font-size="10.00" fill="#000000">Position.h</text>
</a>
</g>
</g>
<!-- Node19&#45;&gt;Node20 -->
<g id="edge23" class="edge">
<title>Node19&#45;&gt;Node20</title>
<path fill="none" stroke="#191970" d="M445.0184,-403.4581C523.3681,-390.9425 658.9294,-369.2879 727.6711,-358.3071"/>
<polygon fill="#191970" stroke="#191970" points="728.3899,-361.7367 737.7126,-356.7031 727.2857,-354.8244 728.3899,-361.7367"/>
</g>
<!-- Node22 -->
<g id="node23" class="node">
<title>Node22</title>
<g id="a_node23"><a xlink:href="Rotation_8h.html" target="_top" xlink:title="iDynTree/Core/Rotation.h">
<polygon fill="none" stroke="#000000" points="485.7846,-280.5 485.7846,-299.5 622.7846,-299.5 622.7846,-280.5 485.7846,-280.5"/>
<text text-anchor="middle" x="554.2846" y="-287.5" font-family="FreeSans.ttf" font-size="10.00" fill="#000000">iDynTree/Core/Rotation.h</text>
</a>
</g>
</g>
<!-- Node19&#45;&gt;Node22 -->
<g id="edge46" class="edge">
<title>Node19&#45;&gt;Node22</title>
<path fill="none" stroke="#191970" d="M446.0207,-403.462C487.0517,-395.6802 536.065,-383.3111 549.2846,-367 562.2234,-351.0353 561.4513,-326.5558 558.754,-309.4981"/>
<polygon fill="#191970" stroke="#191970" points="562.1607,-308.6796 556.8283,-299.5245 555.2877,-310.0068 562.1607,-308.6796"/>
</g>
<!-- Node19&#45;&gt;Node26 -->
<g id="edge49" class="edge">
<title>Node19&#45;&gt;Node26</title>
<path fill="none" stroke="#191970" d="M466.1916,-407.2379C571.3353,-399.2391 748.9656,-383.8412 812.2846,-367 944.0334,-331.9582 1000.5038,-343.887 1093.2846,-244 1120.1782,-215.0465 1130.4165,-168.2568 1134.1897,-141.8292"/>
<polygon fill="#191970" stroke="#191970" points="1137.7061,-141.915 1135.4731,-131.5582 1130.7601,-141.0471 1137.7061,-141.915"/>
</g>
<!-- Node20&#45;&gt;Node15 -->
<g id="edge45" class="edge">
<title>Node20&#45;&gt;Node15</title>
<path fill="none" stroke="#191970" d="M780.5228,-341.8542C798.6866,-324.1755 836.5822,-284.6497 857.2846,-244 868.9779,-221.0399 868.9225,-213.546 872.2846,-188 873.4445,-179.1871 876.974,-175.5513 872.2846,-168 858.9946,-146.5995 832.4703,-134.8528 811.1377,-128.599"/>
<polygon fill="#191970" stroke="#191970" points="812.0299,-125.2147 801.4661,-126.0245 810.2293,-131.9792 812.0299,-125.2147"/>
</g>
<!-- Node21 -->
<g id="node22" class="node">
<title>Node21</title>
<g id="a_node22"><a xlink:href="PositionRaw_8h.html" target="_top" xlink:title="iDynTree/Core/PositionRaw.h">
<polygon fill="none" stroke="#000000" points="692.2846,-224.5 692.2846,-243.5 848.2846,-243.5 848.2846,-224.5 692.2846,-224.5"/>
<text text-anchor="middle" x="770.2846" y="-231.5" font-family="FreeSans.ttf" font-size="10.00" fill="#000000">iDynTree/Core/PositionRaw.h</text>
</a>
</g>
</g>
<!-- Node20&#45;&gt;Node21 -->
<g id="edge24" class="edge">
<title>Node20&#45;&gt;Node21</title>
<path fill="none" stroke="#191970" d="M770.2846,-341.8845C770.2846,-322.6913 770.2846,-279.286 770.2846,-253.7663"/>
<polygon fill="#191970" stroke="#191970" points="773.7847,-253.7483 770.2846,-243.7484 766.7847,-253.7484 773.7847,-253.7483"/>
</g>
<!-- Node20&#45;&gt;Node22 -->
<g id="edge27" class="edge">
<title>Node20&#45;&gt;Node22</title>
<path fill="none" stroke="#191970" d="M737.4788,-342.1595C700.0821,-331.5118 638.8059,-314.0651 597.532,-302.3135"/>
<polygon fill="#191970" stroke="#191970" points="598.3313,-298.902 587.7551,-299.5298 596.4144,-305.6345 598.3313,-298.902"/>
</g>
<!-- Node21&#45;&gt;Node2 -->
<g id="edge25" class="edge">
<title>Node21&#45;&gt;Node2</title>
<path fill="none" stroke="#191970" d="M692.2089,-225.3421C601.4284,-215.2754 451.8247,-198.6856 355.9739,-188.0566"/>
<polygon fill="#191970" stroke="#191970" points="356.3294,-184.5747 346.0046,-186.9511 355.5579,-191.532 356.3294,-184.5747"/>
</g>
<!-- Node21&#45;&gt;Node15 -->
<g id="edge26" class="edge">
<title>Node21&#45;&gt;Node15</title>
<path fill="none" stroke="#191970" d="M739.4084,-224.4054C709.7045,-213.4252 671.4598,-193.6051 687.2846,-168 700.2741,-146.9825 726.0964,-135.2468 747.0858,-128.8991"/>
<polygon fill="#191970" stroke="#191970" points="748.2071,-132.2208 756.924,-126.1987 746.3543,-125.4705 748.2071,-132.2208"/>
</g>
<!-- Node22&#45;&gt;Node2 -->
<g id="edge44" class="edge">
<title>Node22&#45;&gt;Node2</title>
<path fill="none" stroke="#191970" d="M529.6446,-280.4509C478.0303,-260.4482 358.4658,-214.1117 299.4684,-191.2477"/>
<polygon fill="#191970" stroke="#191970" points="300.4513,-187.875 289.8622,-187.5249 297.9217,-194.402 300.4513,-187.875"/>
</g>
<!-- Node22&#45;&gt;Node15 -->
<g id="edge28" class="edge">
<title>Node22&#45;&gt;Node15</title>
<path fill="none" stroke="#191970" d="M585.0017,-280.4755C604.3866,-273.1405 628.791,-261.2941 645.2846,-244 670.8232,-217.222 653.2563,-194.3024 679.2846,-168 697.967,-149.1208 725.8398,-137.1823 747.4166,-130.2129"/>
<polygon fill="#191970" stroke="#191970" points="748.5781,-133.5182 757.1328,-127.2677 746.5475,-126.8192 748.5781,-133.5182"/>
</g>
<!-- Node22&#45;&gt;Node18 -->
<g id="edge29" class="edge">
<title>Node22&#45;&gt;Node18</title>
<path fill="none" stroke="#191970" d="M498.2721,-280.4369C441.194,-270.6918 352.7004,-255.5832 292.2622,-245.2645"/>
<polygon fill="#191970" stroke="#191970" points="292.5125,-241.7566 282.0661,-243.5237 291.3344,-248.6568 292.5125,-241.7566"/>
</g>
<!-- Node23 -->
<g id="node24" class="node">
<title>Node23</title>
<g id="a_node24"><a xlink:href="RotationRaw_8h.html" target="_top" xlink:title="iDynTree/Core/RotationRaw.h">
<polygon fill="none" stroke="#000000" points="478.2846,-224.5 478.2846,-243.5 636.2846,-243.5 636.2846,-224.5 478.2846,-224.5"/>
<text text-anchor="middle" x="557.2846" y="-231.5" font-family="FreeSans.ttf" font-size="10.00" fill="#000000">iDynTree/Core/RotationRaw.h</text>
</a>
</g>
</g>
<!-- Node22&#45;&gt;Node23 -->
<g id="edge30" class="edge">
<title>Node22&#45;&gt;Node23</title>
<path fill="none" stroke="#191970" d="M554.8072,-280.2455C555.1986,-272.9382 555.7474,-262.6944 556.229,-253.7046"/>
<polygon fill="#191970" stroke="#191970" points="559.728,-253.8156 556.768,-243.6427 552.738,-253.4411 559.728,-253.8156"/>
</g>
<!-- Node23&#45;&gt;Node15 -->
<g id="edge43" class="edge">
<title>Node23&#45;&gt;Node15</title>
<path fill="none" stroke="#191970" d="M563.2767,-224.3578C572.7474,-209.9238 592.5584,-182.8156 616.2846,-168 638.1272,-154.3606 706.3863,-137.8512 747.3198,-128.7843"/>
<polygon fill="#191970" stroke="#191970" points="748.0723,-132.2025 757.093,-126.6458 746.576,-125.3643 748.0723,-132.2025"/>
</g>
<!-- Node24 -->
<g id="node25" class="node">
<title>Node24</title>
<g id="a_node25"><a xlink:href="MatrixFixSize_8h.html" target="_top" xlink:title="iDynTree/Core/MatrixFixSize.h">
<polygon fill="none" stroke="#000000" points="402.7846,-168.5 402.7846,-187.5 563.7846,-187.5 563.7846,-168.5 402.7846,-168.5"/>
<text text-anchor="middle" x="483.2846" y="-175.5" font-family="FreeSans.ttf" font-size="10.00" fill="#000000">iDynTree/Core/MatrixFixSize.h</text>
</a>
</g>
</g>
<!-- Node23&#45;&gt;Node24 -->
<g id="edge31" class="edge">
<title>Node23&#45;&gt;Node24</title>
<path fill="none" stroke="#191970" d="M544.3948,-224.2455C533.3592,-215.8943 517.2554,-203.7076 504.3493,-193.9408"/>
<polygon fill="#191970" stroke="#191970" points="506.1128,-190.8862 496.0267,-187.6427 501.8887,-196.4681 506.1128,-190.8862"/>
</g>
<!-- Node24&#45;&gt;Node3 -->
<g id="edge32" class="edge">
<title>Node24&#45;&gt;Node3</title>
<path fill="none" stroke="#191970" d="M539.3255,-168.4246C573.8676,-161.2235 618.4459,-149.5417 655.2846,-132 682.8444,-118.8767 710.6962,-97.1529 728.1958,-82.2364"/>
<polygon fill="#191970" stroke="#191970" points="730.6601,-84.7318 735.9083,-75.5281 726.0661,-79.4501 730.6601,-84.7318"/>
</g>
<!-- Node24&#45;&gt;Node7 -->
<g id="edge38" class="edge">
<title>Node24&#45;&gt;Node7</title>
<path fill="none" stroke="#191970" d="M468.6156,-168.4997C454.5569,-159.3292 432.7999,-144.9655 414.2846,-132 361.262,-94.8706 300.2423,-49.2635 269.0339,-25.7232"/>
<polygon fill="#191970" stroke="#191970" points="271.1423,-22.9295 261.0535,-19.6942 266.9227,-28.5148 271.1423,-22.9295"/>
</g>
<!-- Node24&#45;&gt;Node15 -->
<g id="edge40" class="edge">
<title>Node24&#45;&gt;Node15</title>
<path fill="none" stroke="#191970" d="M533.8325,-168.4369C595.0053,-156.8636 696.1638,-137.7256 747.413,-128.0298"/>
<polygon fill="#191970" stroke="#191970" points="748.0901,-131.4638 757.2651,-126.1658 746.7888,-124.5858 748.0901,-131.4638"/>
</g>
<!-- Node24&#45;&gt;Node16 -->
<g id="edge42" class="edge">
<title>Node24&#45;&gt;Node16</title>
<path fill="none" stroke="#191970" d="M440.5921,-168.4369C393.0094,-157.7784 316.7825,-140.7035 271.2189,-130.4973"/>
<polygon fill="#191970" stroke="#191970" points="271.9561,-127.0758 261.4328,-128.3052 270.426,-133.9065 271.9561,-127.0758"/>
</g>
<!-- Node24&#45;&gt;Node17 -->
<g id="edge39" class="edge">
<title>Node24&#45;&gt;Node17</title>
<path fill="none" stroke="#191970" d="M459.0458,-168.3733C436.0057,-159.2226 401.1632,-145.3844 375.5345,-135.2057"/>
<polygon fill="#191970" stroke="#191970" points="376.7928,-131.9395 366.2071,-131.5011 374.209,-138.4452 376.7928,-131.9395"/>
</g>
<!-- Node25 -->
<g id="node26" class="node">
<title>Node25</title>
<g id="a_node26"><a xlink:href="MatrixView_8h.html" target="_top" xlink:title="iDynTree/Core/MatrixView.h">
<polygon fill="none" stroke="#000000" points="423.7846,-112.5 423.7846,-131.5 574.7846,-131.5 574.7846,-112.5 423.7846,-112.5"/>
<text text-anchor="middle" x="499.2846" y="-119.5" font-family="FreeSans.ttf" font-size="10.00" fill="#000000">iDynTree/Core/MatrixView.h</text>
</a>
</g>
</g>
<!-- Node24&#45;&gt;Node25 -->
<g id="edge33" class="edge">
<title>Node24&#45;&gt;Node25</title>
<path fill="none" stroke="#191970" d="M486.0716,-168.2455C488.1823,-160.8579 491.1506,-150.4689 493.7393,-141.4087"/>
<polygon fill="#191970" stroke="#191970" points="497.1476,-142.2195 496.5295,-131.6427 490.4169,-140.2964 497.1476,-142.2195"/>
</g>
<!-- Node24&#45;&gt;Node26 -->
<g id="edge41" class="edge">
<title>Node24&#45;&gt;Node26</title>
<path fill="none" stroke="#191970" d="M564.0102,-171.0771C704.8782,-158.9966 990.6251,-134.4915 1096.0416,-125.4512"/>
<polygon fill="#191970" stroke="#191970" points="1096.587,-128.9173 1106.2514,-124.5756 1095.9889,-121.9429 1096.587,-128.9173"/>
</g>
<!-- Node25&#45;&gt;Node3 -->
<g id="edge37" class="edge">
<title>Node25&#45;&gt;Node3</title>
<path fill="none" stroke="#191970" d="M541.4648,-112.4369C583.7369,-102.8529 648.8908,-88.0812 694.3263,-77.78"/>
<polygon fill="#191970" stroke="#191970" points="695.2998,-81.1482 704.2784,-75.5237 693.752,-74.3215 695.2998,-81.1482"/>
</g>
<!-- Node25&#45;&gt;Node6 -->
<g id="edge36" class="edge">
<title>Node25&#45;&gt;Node6</title>
<path fill="none" stroke="#191970" d="M503.2909,-112.2455C506.3581,-104.7776 510.6849,-94.2427 514.4343,-85.1137"/>
<polygon fill="#191970" stroke="#191970" points="517.7625,-86.2226 518.3242,-75.6427 511.2874,-83.5631 517.7625,-86.2226"/>
</g>
<!-- Node25&#45;&gt;Node7 -->
<g id="edge34" class="edge">
<title>Node25&#45;&gt;Node7</title>
<path fill="none" stroke="#191970" d="M488.7462,-112.2976C472.7289,-98.0333 440.7792,-71.4288 409.2846,-56 409.1939,-55.9556 331.5237,-33.7713 284.1107,-20.2308"/>
<polygon fill="#191970" stroke="#191970" points="285.068,-16.8644 274.4913,-17.4837 283.1457,-23.5953 285.068,-16.8644"/>
</g>
<!-- Node25&#45;&gt;Node13 -->
<g id="edge35" class="edge">
<title>Node25&#45;&gt;Node13</title>
<path fill="none" stroke="#191970" d="M522.7595,-112.4411C542.1431,-104.0747 569.9902,-90.9434 592.2846,-76 613.9229,-61.4964 635.9858,-41.2944 650.5275,-27.0721"/>
<polygon fill="#191970" stroke="#191970" points="653.1577,-29.3926 657.782,-19.8602 648.2225,-24.4283 653.1577,-29.3926"/>
</g>
<!-- Node27&#45;&gt;Node2 -->
<g id="edge52" class="edge">
<title>Node27&#45;&gt;Node2</title>
<path fill="none" stroke="#191970" d="M336.4533,-459.4585C250.6426,-438.9174 116.2846,-399.1474 116.2846,-351.5 116.2846,-351.5 116.2846,-351.5 116.2846,-290 116.2846,-259.4754 114.3553,-246.2198 135.2846,-224 150.5871,-207.754 171.9835,-197.2401 193.0065,-190.4379"/>
<polygon fill="#191970" stroke="#191970" points="194.0368,-193.783 202.6161,-187.5665 192.0327,-187.076 194.0368,-193.783"/>
</g>
<!-- Node27&#45;&gt;Node18 -->
<g id="edge53" class="edge">
<title>Node27&#45;&gt;Node18</title>
<path fill="none" stroke="#191970" d="M352.8806,-459.4792C332.5807,-451.4796 310.6658,-439.7368 295.2846,-423 271.6928,-397.3291 242.9381,-296.7714 231.4173,-253.7262"/>
<polygon fill="#191970" stroke="#191970" points="234.7541,-252.6537 228.8153,-243.8799 227.9865,-254.4422 234.7541,-252.6537"/>
</g>
<!-- Node27&#45;&gt;Node19 -->
<g id="edge54" class="edge">
<title>Node27&#45;&gt;Node19</title>
<path fill="none" stroke="#191970" d="M401.0936,-459.2977C398.3304,-451.2055 394.9015,-441.1639 391.9441,-432.5029"/>
<polygon fill="#191970" stroke="#191970" points="395.1907,-431.1794 388.647,-422.8469 388.5662,-433.4415 395.1907,-431.1794"/>
</g>
<!-- Node28&#45;&gt;Node3 -->
<g id="edge62" class="edge">
<title>Node28&#45;&gt;Node3</title>
<path fill="none" stroke="#191970" d="M1095.8038,-403.2398C1130.5649,-362.2376 1256.0659,-201.9063 1175.2846,-112 1151.7759,-85.8358 931.8177,-73.3022 816.3415,-68.4824"/>
<polygon fill="#191970" stroke="#191970" points="816.3143,-64.9785 806.1797,-68.0669 816.0283,-71.9726 816.3143,-64.9785"/>
</g>
<!-- Node28&#45;&gt;Node15 -->
<g id="edge56" class="edge">
<title>Node28&#45;&gt;Node15</title>
<path fill="none" stroke="#191970" d="M1091.1087,-403.3462C1102.1767,-373.694 1131.1227,-282.4132 1093.2846,-224 1089.1475,-217.6134 975.4836,-170.4656 968.2846,-168 914.4051,-149.5469 849.4925,-135.4436 811.4656,-127.9672"/>
<polygon fill="#191970" stroke="#191970" points="811.9674,-124.4995 801.4846,-126.0361 810.6376,-131.372 811.9674,-124.4995"/>
</g>
<!-- Node28&#45;&gt;Node20 -->
<g id="edge61" class="edge">
<title>Node28&#45;&gt;Node20</title>
<path fill="none" stroke="#191970" d="M1038.1012,-403.4581C976.4165,-391.4909 871.6628,-371.168 813.1198,-359.8103"/>
<polygon fill="#191970" stroke="#191970" points="813.5775,-356.3339 803.0939,-357.8652 812.2443,-363.2058 813.5775,-356.3339"/>
</g>
<!-- Node29 -->
<g id="node30" class="node">
<title>Node29</title>
<g id="a_node30"><a xlink:href="Direction_8h.html" target="_top" xlink:title="iDynTree/Core/Direction.h">
<polygon fill="none" stroke="#000000" points="942.7846,-224.5 942.7846,-243.5 1083.7846,-243.5 1083.7846,-224.5 942.7846,-224.5"/>
<text text-anchor="middle" x="1013.2846" y="-231.5" font-family="FreeSans.ttf" font-size="10.00" fill="#000000">iDynTree/Core/Direction.h</text>
</a>
</g>
</g>
<!-- Node28&#45;&gt;Node29 -->
<g id="edge57" class="edge">
<title>Node28&#45;&gt;Node29</title>
<path fill="none" stroke="#191970" d="M1083.306,-403.3762C1071.5614,-374.9669 1036.8831,-291.0828 1021.1753,-253.0871"/>
<polygon fill="#191970" stroke="#191970" points="1024.3379,-251.5756 1017.2828,-243.6714 1017.8689,-254.25 1024.3379,-251.5756"/>
</g>
<!-- Node29&#45;&gt;Node2 -->
<g id="edge59" class="edge">
<title>Node29&#45;&gt;Node2</title>
<path fill="none" stroke="#191970" d="M942.612,-228.8469C827.5082,-220.4337 592.3873,-203.1635 393.2846,-188 381.1838,-187.0784 368.4405,-186.0965 355.8753,-185.1216"/>
<polygon fill="#191970" stroke="#191970" points="356.0933,-181.6281 345.8522,-184.3426 355.5509,-188.6071 356.0933,-181.6281"/>
</g>
<!-- Node29&#45;&gt;Node3 -->
<g id="edge60" class="edge">
<title>Node29&#45;&gt;Node3</title>
<path fill="none" stroke="#191970" d="M1008.7829,-224.2629C1001.8535,-210.1952 987.3525,-184.1108 968.2846,-168 915.0491,-123.0205 838.6951,-93.7603 790.8309,-78.5707"/>
<polygon fill="#191970" stroke="#191970" points="791.6562,-75.1622 781.0682,-75.5423 789.5823,-81.8479 791.6562,-75.1622"/>
</g>
<!-- Node29&#45;&gt;Node15 -->
<g id="edge58" class="edge">
<title>Node29&#45;&gt;Node15</title>
<path fill="none" stroke="#191970" d="M1005.6102,-224.4054C993.6075,-210.0338 968.9868,-183.0058 942.2846,-168 900.3538,-144.4361 845.4571,-132.2044 811.2843,-126.4438"/>
<polygon fill="#191970" stroke="#191970" points="811.8092,-122.9833 801.3816,-124.8584 810.7025,-129.8953 811.8092,-122.9833"/>
</g>
<!-- Node30&#45;&gt;Node2 -->
<g id="edge67" class="edge">
<title>Node30&#45;&gt;Node2</title>
<path fill="none" stroke="#191970" d="M365.9812,-599.2483C249.5485,-593.1269 46.492,-579.3777 21.2846,-557 -6.8538,-532.0203 2.2846,-512.1265 2.2846,-474.5 2.2846,-474.5 2.2846,-474.5 2.2846,-290 2.2846,-252.0995 23.9905,-243.8377 56.2846,-224 78.6179,-210.2811 139.8199,-197.7113 190.2618,-189.1913"/>
<polygon fill="#191970" stroke="#191970" points="190.9005,-192.6333 200.192,-187.5422 189.7537,-185.7279 190.9005,-192.6333"/>
</g>
<!-- Node31 -->
<g id="node32" class="node">
<title>Node31</title>
<g id="a_node32"><a xlink:href="SpatialInertiaRaw_8h.html" target="_top" xlink:title="iDynTree/Core/SpatialInertia\lRaw.h">
<polygon fill="none" stroke="#000000" points="692.7846,-526.5 692.7846,-556.5 845.7846,-556.5 845.7846,-526.5 692.7846,-526.5"/>
<text text-anchor="start" x="700.7846" y="-544.5" font-family="FreeSans.ttf" font-size="10.00" fill="#000000">iDynTree/Core/SpatialInertia</text>
<text text-anchor="middle" x="769.2846" y="-533.5" font-family="FreeSans.ttf" font-size="10.00" fill="#000000">Raw.h</text>
</a>
</g>
</g>
<!-- Node30&#45;&gt;Node31 -->
<g id="edge64" class="edge">
<title>Node30&#45;&gt;Node31</title>
<path fill="none" stroke="#191970" d="M497.2438,-593.4581C546.5886,-584.0335 623.0665,-569.4268 682.3824,-558.0978"/>
<polygon fill="#191970" stroke="#191970" points="683.3302,-561.4801 692.496,-556.1661 682.0169,-554.6044 683.3302,-561.4801"/>
</g>
<!-- Node33 -->
<g id="node34" class="node">
<title>Node33</title>
<g id="a_node34"><a xlink:href="Twist_8h.html" target="_top" xlink:title="iDynTree/Core/Twist.h">
<polygon fill="none" stroke="#000000" points="386.2846,-532 386.2846,-551 508.2846,-551 508.2846,-532 386.2846,-532"/>
<text text-anchor="middle" x="447.2846" y="-539" font-family="FreeSans.ttf" font-size="10.00" fill="#000000">iDynTree/Core/Twist.h</text>
</a>
</g>
</g>
<!-- Node30&#45;&gt;Node33 -->
<g id="edge68" class="edge">
<title>Node30&#45;&gt;Node33</title>
<path fill="none" stroke="#191970" d="M447.2846,-593.3906C447.2846,-584.8657 447.2846,-572.1392 447.2846,-561.4235"/>
<polygon fill="#191970" stroke="#191970" points="450.7847,-561.2448 447.2846,-551.2449 443.7847,-561.2449 450.7847,-561.2448"/>
</g>
<!-- Node34 -->
<g id="node35" class="node">
<title>Node34</title>
<g id="a_node35"><a xlink:href="SpatialMomentum_8h.html" target="_top" xlink:title="iDynTree/Core/SpatialMomentum.h">
<polygon fill="none" stroke="#000000" points="182.2846,-532 182.2846,-551 368.2846,-551 368.2846,-532 182.2846,-532"/>
<text text-anchor="middle" x="275.2846" y="-539" font-family="FreeSans.ttf" font-size="10.00" fill="#000000">iDynTree/Core/SpatialMomentum.h</text>
</a>
</g>
</g>
<!-- Node30&#45;&gt;Node34 -->
<g id="edge70" class="edge">
<title>Node30&#45;&gt;Node34</title>
<path fill="none" stroke="#191970" d="M420.4096,-593.3906C391.126,-582.92 344.1155,-566.1111 311.5709,-554.4745"/>
<polygon fill="#191970" stroke="#191970" points="312.5655,-551.1131 301.9709,-551.0419 310.2086,-557.7045 312.5655,-551.1131"/>
</g>
<!-- Node35 -->
<g id="node36" class="node">
<title>Node35</title>
<g id="a_node36"><a xlink:href="SpatialAcc_8h.html" target="_top" xlink:title="iDynTree/Core/SpatialAcc.h">
<polygon fill="none" stroke="#000000" points="526.2846,-532 526.2846,-551 674.2846,-551 674.2846,-532 526.2846,-532"/>
<text text-anchor="middle" x="600.2846" y="-539" font-family="FreeSans.ttf" font-size="10.00" fill="#000000">iDynTree/Core/SpatialAcc.h</text>
</a>
</g>
</g>
<!-- Node30&#45;&gt;Node35 -->
<g id="edge72" class="edge">
<title>Node30&#45;&gt;Node35</title>
<path fill="none" stroke="#191970" d="M471.1908,-593.3906C497.0151,-583.0103 538.3372,-566.4004 567.2551,-554.7766"/>
<polygon fill="#191970" stroke="#191970" points="568.5731,-558.019 576.5462,-551.0419 565.9624,-551.5241 568.5731,-558.019"/>
</g>
<!-- Node36 -->
<g id="node37" class="node">
<title>Node36</title>
<g id="a_node37"><a xlink:href="Wrench_8h.html" target="_top" xlink:title="iDynTree/Core/Wrench.h">
<polygon fill="none" stroke="#000000" points="30.7846,-532 30.7846,-551 163.7846,-551 163.7846,-532 30.7846,-532"/>
<text text-anchor="middle" x="97.2846" y="-539" font-family="FreeSans.ttf" font-size="10.00" fill="#000000">iDynTree/Core/Wrench.h</text>
</a>
</g>
</g>
<!-- Node30&#45;&gt;Node36 -->
<g id="edge74" class="edge">
<title>Node30&#45;&gt;Node36</title>
<path fill="none" stroke="#191970" d="M386.7751,-593.4625C331.1836,-584.5529 246.5532,-570.6175 173.2846,-557 166.6132,-555.7601 159.6236,-554.4077 152.6994,-553.0353"/>
<polygon fill="#191970" stroke="#191970" points="153.1391,-549.5539 142.6463,-551.0208 151.7637,-556.4174 153.1391,-549.5539"/>
</g>
<!-- Node32 -->
<g id="node33" class="node">
<title>Node32</title>
<g id="a_node33"><a xlink:href="RotationalInertiaRaw_8h.html" target="_top" xlink:title="iDynTree/Core/Rotational\lInertiaRaw.h">
<polygon fill="none" stroke="#000000" points="402.7846,-336.5 402.7846,-366.5 539.7846,-366.5 539.7846,-336.5 402.7846,-336.5"/>
<text text-anchor="start" x="410.7846" y="-354.5" font-family="FreeSans.ttf" font-size="10.00" fill="#000000">iDynTree/Core/Rotational</text>
<text text-anchor="middle" x="471.2846" y="-343.5" font-family="FreeSans.ttf" font-size="10.00" fill="#000000">InertiaRaw.h</text>
</a>
</g>
</g>
<!-- Node31&#45;&gt;Node32 -->
<g id="edge65" class="edge">
<title>Node31&#45;&gt;Node32</title>
<path fill="none" stroke="#191970" d="M745.6519,-526.4322C692.6209,-492.6204 564.0725,-410.6601 503.6646,-372.145"/>
<polygon fill="#191970" stroke="#191970" points="505.2333,-368.9943 494.9197,-366.5693 501.47,-374.8967 505.2333,-368.9943"/>
</g>
<!-- Node32&#45;&gt;Node24 -->
<g id="edge66" class="edge">
<title>Node32&#45;&gt;Node24</title>
<path fill="none" stroke="#191970" d="M460.651,-336.1558C445.1561,-311.7667 419.9121,-262.9334 436.2846,-224 441.2824,-212.1153 451.016,-201.765 460.3349,-193.908"/>
<polygon fill="#191970" stroke="#191970" points="462.5803,-196.5951 468.2881,-187.6692 458.2598,-191.0874 462.5803,-196.5951"/>
</g>
<!-- Node33&#45;&gt;Node27 -->
<g id="edge69" class="edge">
<title>Node33&#45;&gt;Node27</title>
<path fill="none" stroke="#191970" d="M441.4103,-531.9005C436.064,-523.1638 427.9484,-509.9018 420.8644,-498.3256"/>
<polygon fill="#191970" stroke="#191970" points="423.6821,-496.2246 415.477,-489.5218 417.7113,-499.8783 423.6821,-496.2246"/>
</g>
<!-- Node34&#45;&gt;Node1 -->
<g id="edge71" class="edge">
<title>Node34&#45;&gt;Node1</title>
<path fill="none" stroke="#191970" d="M265.2553,-531.9005C255.6755,-522.7313 240.8881,-508.5776 228.3945,-496.6195"/>
<polygon fill="#191970" stroke="#191970" points="230.6233,-493.9079 220.979,-489.5218 225.7831,-498.9648 230.6233,-493.9079"/>
</g>
<!-- Node35&#45;&gt;Node27 -->
<g id="edge73" class="edge">
<title>Node35&#45;&gt;Node27</title>
<path fill="none" stroke="#191970" d="M572.4891,-531.9005C543.0591,-521.7366 495.8948,-505.4479 459.3136,-492.8141"/>
<polygon fill="#191970" stroke="#191970" points="460.3752,-489.478 449.7805,-489.5218 458.0901,-496.0945 460.3752,-489.478"/>
</g>
<!-- Node36&#45;&gt;Node1 -->
<g id="edge75" class="edge">
<title>Node36&#45;&gt;Node1</title>
<path fill="none" stroke="#191970" d="M112.7584,-531.9005C128.2357,-522.2988 152.5237,-507.2313 172.3322,-494.9427"/>
<polygon fill="#191970" stroke="#191970" points="174.4179,-497.7677 181.0704,-489.5218 170.7277,-491.8193 174.4179,-497.7677"/>
</g>
<!-- Node37&#45;&gt;Node3 -->
<g id="edge80" class="edge">
<title>Node37&#45;&gt;Node3</title>
<path fill="none" stroke="#191970" d="M1356.5187,-224.3041C1376.9323,-211.5627 1406.3799,-188.4056 1391.2846,-168 1340.7,-99.6205 1291.6773,-128.7397 1208.2846,-112 1070.9317,-84.4286 907.1338,-73.0919 816.1076,-68.6543"/>
<polygon fill="#191970" stroke="#191970" points="816.0677,-65.1486 805.9133,-68.1715 815.7364,-72.1408 816.0677,-65.1486"/>
</g>
<!-- Node37&#45;&gt;Node8 -->
<g id="edge81" class="edge">
<title>Node37&#45;&gt;Node8</title>
<path fill="none" stroke="#191970" d="M1362.6149,-224.4812C1387.6691,-212.7863 1422.0257,-191.5742 1407.2846,-168 1377.1441,-119.7988 1346.0209,-130.5529 1292.2846,-112 1111.4238,-49.5562 1055.77,-63.0241 865.2588,-20.1639"/>
<polygon fill="#191970" stroke="#191970" points="866.0208,-16.7479 855.4937,-17.9445 864.4693,-23.5738 866.0208,-16.7479"/>
</g>
<!-- Node37&#45;&gt;Node15 -->
<g id="edge84" class="edge">
<title>Node37&#45;&gt;Node15</title>
<path fill="none" stroke="#191970" d="M1293.8708,-224.4743C1231.7142,-211.4797 1116.6329,-187.5742 1018.2846,-168 944.2742,-153.2697 857.2124,-136.705 811.327,-128.034"/>
<polygon fill="#191970" stroke="#191970" points="811.8552,-124.5719 801.3795,-126.156 810.5566,-131.4504 811.8552,-124.5719"/>
</g>
<!-- Node37&#45;&gt;Node26 -->
<g id="edge83" class="edge">
<title>Node37&#45;&gt;Node26</title>
<path fill="none" stroke="#191970" d="M1320.8658,-224.4718C1303.1954,-215.2811 1275.8015,-200.9033 1252.2846,-188 1220.862,-170.759 1185.0601,-150.2561 1161.6441,-136.7282"/>
<polygon fill="#191970" stroke="#191970" points="1163.123,-133.5402 1152.7147,-131.5606 1159.6167,-139.5988 1163.123,-133.5402"/>
</g>
<!-- Node38 -->
<g id="node39" class="node">
<title>Node38</title>
<g id="a_node39"><a xlink:href="MatrixDynSize_8h.html" target="_top" xlink:title="iDynTree/Core/MatrixDynSize.h">
<polygon fill="none" stroke="#000000" points="695.7846,-168.5 695.7846,-187.5 862.7846,-187.5 862.7846,-168.5 695.7846,-168.5"/>
<text text-anchor="middle" x="779.2846" y="-175.5" font-family="FreeSans.ttf" font-size="10.00" fill="#000000">iDynTree/Core/MatrixDynSize.h</text>
</a>
</g>
</g>
<!-- Node37&#45;&gt;Node38 -->
<g id="edge77" class="edge">
<title>Node37&#45;&gt;Node38</title>
<path fill="none" stroke="#191970" d="M1269.7744,-227.049C1169.7891,-217.0504 985.1128,-198.5828 873.1109,-187.3826"/>
<polygon fill="#191970" stroke="#191970" points="873.1373,-183.8679 862.8386,-186.3554 872.4407,-190.8332 873.1373,-183.8679"/>
</g>
<!-- Node39 -->
<g id="node40" class="node">
<title>Node39</title>
<polygon fill="none" stroke="#bfbfbf" points="1326.2846,-168.5 1326.2846,-187.5 1382.2846,-187.5 1382.2846,-168.5 1326.2846,-168.5"/>
<text text-anchor="middle" x="1354.2846" y="-175.5" font-family="FreeSans.ttf" font-size="10.00" fill="#000000">iomanip</text>
</g>
<!-- Node37&#45;&gt;Node39 -->
<g id="edge82" class="edge">
<title>Node37&#45;&gt;Node39</title>
<path fill="none" stroke="#191970" d="M1341.8974,-224.2455C1343.8762,-216.8579 1346.659,-206.4689 1349.0858,-197.4087"/>
<polygon fill="#191970" stroke="#191970" points="1352.4951,-198.2078 1351.7017,-187.6427 1345.7335,-196.3966 1352.4951,-198.2078"/>
</g>
<!-- Node40 -->
<g id="node41" class="node">
<title>Node40</title>
<polygon fill="none" stroke="#bfbfbf" points="1260.7846,-168.5 1260.7846,-187.5 1307.7846,-187.5 1307.7846,-168.5 1260.7846,-168.5"/>
<text text-anchor="middle" x="1284.2846" y="-175.5" font-family="FreeSans.ttf" font-size="10.00" fill="#000000">vector</text>
</g>
<!-- Node37&#45;&gt;Node40 -->
<g id="edge85" class="edge">
<title>Node37&#45;&gt;Node40</title>
<path fill="none" stroke="#191970" d="M1329.7043,-224.2455C1321.7388,-216.1352 1310.2205,-204.4075 1300.7767,-194.7919"/>
<polygon fill="#191970" stroke="#191970" points="1303.2593,-192.3247 1293.7551,-187.6427 1298.2651,-197.2297 1303.2593,-192.3247"/>
</g>
<!-- Node37&#45;&gt;Node41 -->
<g id="edge86" class="edge">
<title>Node37&#45;&gt;Node41</title>
<path fill="none" stroke="#191970" d="M1367.1334,-224.3733C1394.849,-214.7926 1437.429,-200.0736 1467.1608,-189.7959"/>
<polygon fill="#191970" stroke="#191970" points="1468.4035,-193.0696 1476.7112,-186.4945 1466.1165,-186.4537 1468.4035,-193.0696"/>
</g>
<!-- Node37&#45;&gt;Node42 -->
<g id="edge87" class="edge">
<title>Node37&#45;&gt;Node42</title>
<path fill="none" stroke="#191970" d="M1383.8862,-224.4973C1421.583,-216.2493 1477.2028,-203.5753 1533.7544,-188.2964"/>
<polygon fill="#191970" stroke="#191970" points="1534.848,-191.6261 1543.5752,-185.6189 1533.0067,-184.8726 1534.848,-191.6261"/>
</g>
<!-- Node38&#45;&gt;Node15 -->
<g id="edge78" class="edge">
<title>Node38&#45;&gt;Node15</title>
<path fill="none" stroke="#191970" d="M779.2846,-168.2455C779.2846,-160.9382 779.2846,-150.6944 779.2846,-141.7046"/>
<polygon fill="#191970" stroke="#191970" points="782.7847,-141.6426 779.2846,-131.6427 775.7847,-141.6427 782.7847,-141.6426"/>
</g>
<!-- Node38&#45;&gt;Node25 -->
<g id="edge79" class="edge">
<title>Node38&#45;&gt;Node25</title>
<path fill="none" stroke="#191970" d="M731.469,-168.4369C683.1465,-158.7724 608.4474,-143.8326 556.891,-133.5213"/>
<polygon fill="#191970" stroke="#191970" points="557.3952,-130.0529 546.9029,-131.5237 556.0223,-136.9169 557.3952,-130.0529"/>
</g>
<!-- Node43&#45;&gt;Node15 -->
<g id="edge92" class="edge">
<title>Node43&#45;&gt;Node15</title>
<path fill="none" stroke="#191970" d="M780.4522,-403.4276C789.5195,-394.5492 802.7897,-380.682 812.2846,-367 861.4622,-296.1356 878.1974,-273.7766 887.2846,-188 888.221,-179.1606 892.1861,-175.4153 887.2846,-168 870.5922,-142.7469 836.912,-131.3124 811.5767,-126.1624"/>
<polygon fill="#191970" stroke="#191970" points="812.1086,-122.7019 801.6462,-124.3719 810.8664,-129.5909 812.1086,-122.7019"/>
</g>
<!-- Node43&#45;&gt;Node20 -->
<g id="edge89" class="edge">
<title>Node43&#45;&gt;Node20</title>
<path fill="none" stroke="#191970" d="M770.2846,-403.3906C770.2846,-394.8657 770.2846,-382.1392 770.2846,-371.4235"/>
<polygon fill="#191970" stroke="#191970" points="773.7847,-371.2448 770.2846,-361.2449 766.7847,-371.2449 773.7847,-371.2448"/>
</g>
<!-- Node43&#45;&gt;Node22 -->
<g id="edge90" class="edge">
<title>Node43&#45;&gt;Node22</title>
<path fill="none" stroke="#191970" d="M728.7923,-403.4231C701.5322,-396.0104 665.7768,-384.0965 637.2846,-367 610.1993,-350.7476 584.4119,-324.5569 568.9664,-307.3099"/>
<polygon fill="#191970" stroke="#191970" points="571.4753,-304.8622 562.2544,-299.6444 566.2088,-309.4736 571.4753,-304.8622"/>
</g>
<!-- Node43&#45;&gt;Node24 -->
<g id="edge91" class="edge">
<title>Node43&#45;&gt;Node24</title>
<path fill="none" stroke="#191970" d="M761.5013,-403.2596C736.2121,-375.4304 663.0757,-296.5092 632.2846,-280 566.8996,-244.9428 515.7451,-301.8413 469.2846,-244 458.5568,-230.6443 464.6555,-211.0081 471.8564,-196.6262"/>
<polygon fill="#191970" stroke="#191970" points="475.0439,-198.0948 476.8245,-187.6507 468.9195,-194.7048 475.0439,-198.0948"/>
</g>
</g>
</svg>
