<?xml version="1.0" encoding="UTF-8" standalone="no"?>
<!DOCTYPE svg PUBLIC "-//W3C//DTD SVG 1.1//EN"
 "http://www.w3.org/Graphics/SVG/1.1/DTD/svg11.dtd">
<!-- Generated by graphviz version 2.40.1 (20161225.0304)
 -->
<!-- Title: TimeVaryingObject.h Pages: 1 -->
<svg width="1091pt" height="476pt"
 viewBox="0.00 0.00 1090.50 476.00" xmlns="http://www.w3.org/2000/svg" xmlns:xlink="http://www.w3.org/1999/xlink">
<g id="graph0" class="graph" transform="scale(1 1) rotate(0) translate(4 472)">
<title>TimeVaryingObject.h</title>
<!-- Node0 -->
<g id="node1" class="node">
<title>Node0</title>
<polygon fill="#bfbfbf" stroke="#000000" points="209,-448.5 209,-467.5 328,-467.5 328,-448.5 209,-448.5"/>
<text text-anchor="middle" x="268.5" y="-455.5" font-family="FreeSans.ttf" font-size="10.00" fill="#000000">TimeVaryingObject.h</text>
</g>
<!-- Node1 -->
<g id="node2" class="node">
<title>Node1</title>
<g id="a_node2"><a xlink:href="VectorDynSize_8h.html" target="_top" xlink:title="iDynTree/Core/VectorDynSize.h">
<polygon fill="none" stroke="#000000" points="0,-168.5 0,-187.5 167,-187.5 167,-168.5 0,-168.5"/>
<text text-anchor="middle" x="83.5" y="-175.5" font-family="FreeSans.ttf" font-size="10.00" fill="#000000">iDynTree/Core/VectorDynSize.h</text>
</a>
</g>
</g>
<!-- Node0&#45;&gt;Node1 -->
<g id="edge1" class="edge">
<title>Node0&#45;&gt;Node1</title>
<path fill="none" stroke="#191970" d="M247.3605,-448.4901C215.1548,-432.3882 157.5,-396.5089 157.5,-346 157.5,-346 157.5,-346 157.5,-290 157.5,-250.563 125.1668,-214.3258 103.2456,-194.2897"/>
<polygon fill="#191970" stroke="#191970" points="105.5384,-191.6451 95.7196,-187.665 100.9133,-196.8995 105.5384,-191.6451"/>
</g>
<!-- Node13 -->
<g id="node14" class="node">
<title>Node13</title>
<g id="a_node14"><a xlink:href="MatrixDynSize_8h.html" target="_top" xlink:title="iDynTree/Core/MatrixDynSize.h">
<polygon fill="none" stroke="#000000" points="185,-168.5 185,-187.5 352,-187.5 352,-168.5 185,-168.5"/>
<text text-anchor="middle" x="268.5" y="-175.5" font-family="FreeSans.ttf" font-size="10.00" fill="#000000">iDynTree/Core/MatrixDynSize.h</text>
</a>
</g>
</g>
<!-- Node0&#45;&gt;Node13 -->
<g id="edge13" class="edge">
<title>Node0&#45;&gt;Node13</title>
<path fill="none" stroke="#191970" d="M268.5,-448.4116C268.5,-429.0538 268.5,-383.9167 268.5,-346 268.5,-346 268.5,-346 268.5,-290 268.5,-257.7116 268.5,-220.1872 268.5,-197.8048"/>
<polygon fill="#191970" stroke="#191970" points="272.0001,-197.5883 268.5,-187.5884 265.0001,-197.5884 272.0001,-197.5883"/>
</g>
<!-- Node17 -->
<g id="node18" class="node">
<title>Node17</title>
<g id="a_node18"><a xlink:href="Transform_8h.html" target="_top" xlink:title="iDynTree/Core/Transform.h">
<polygon fill="none" stroke="#000000" points="450.5,-392.5 450.5,-411.5 596.5,-411.5 596.5,-392.5 450.5,-392.5"/>
<text text-anchor="middle" x="523.5" y="-399.5" font-family="FreeSans.ttf" font-size="10.00" fill="#000000">iDynTree/Core/Transform.h</text>
</a>
</g>
</g>
<!-- Node0&#45;&gt;Node17 -->
<g id="edge22" class="edge">
<title>Node0&#45;&gt;Node17</title>
<path fill="none" stroke="#191970" d="M312.0463,-448.4369C355.7793,-438.8328 423.2345,-424.0191 470.1542,-413.7152"/>
<polygon fill="#191970" stroke="#191970" points="471.1168,-417.0872 480.1333,-411.5237 469.6153,-410.2502 471.1168,-417.0872"/>
</g>
<!-- Node2 -->
<g id="node3" class="node">
<title>Node2</title>
<g id="a_node3"><a xlink:href="Span_8h.html" target="_top" xlink:title="iDynTree/Core/Span.h">
<polygon fill="none" stroke="#000000" points="448,-56.5 448,-75.5 569,-75.5 569,-56.5 448,-56.5"/>
<text text-anchor="middle" x="508.5" y="-63.5" font-family="FreeSans.ttf" font-size="10.00" fill="#000000">iDynTree/Core/Span.h</text>
</a>
</g>
</g>
<!-- Node1&#45;&gt;Node2 -->
<g id="edge2" class="edge">
<title>Node1&#45;&gt;Node2</title>
<path fill="none" stroke="#191970" d="M119.7353,-168.4509C196.8932,-148.1176 377.3087,-100.5728 462.458,-78.1334"/>
<polygon fill="#191970" stroke="#191970" points="463.5785,-81.4577 472.3565,-75.5249 461.7947,-74.6888 463.5785,-81.4577"/>
</g>
<!-- Node12 -->
<g id="node13" class="node">
<title>Node12</title>
<polygon fill="none" stroke="#bfbfbf" points="458.5,-112.5 458.5,-131.5 502.5,-131.5 502.5,-112.5 458.5,-112.5"/>
<text text-anchor="middle" x="480.5" y="-119.5" font-family="FreeSans.ttf" font-size="10.00" fill="#000000">string</text>
</g>
<!-- Node1&#45;&gt;Node12 -->
<g id="edge12" class="edge">
<title>Node1&#45;&gt;Node12</title>
<path fill="none" stroke="#191970" d="M151.2956,-168.4369C237.7259,-156.2452 383.6701,-135.6586 448.1804,-126.5589"/>
<polygon fill="#191970" stroke="#191970" points="448.7598,-130.0119 458.1729,-125.1494 447.782,-123.0806 448.7598,-130.0119"/>
</g>
<!-- Node3 -->
<g id="node4" class="node">
<title>Node3</title>
<polygon fill="none" stroke="#bfbfbf" points="758.5,-.5 758.5,-19.5 810.5,-19.5 810.5,-.5 758.5,-.5"/>
<text text-anchor="middle" x="784.5" y="-7.5" font-family="FreeSans.ttf" font-size="10.00" fill="#000000">cassert</text>
</g>
<!-- Node2&#45;&gt;Node3 -->
<g id="edge3" class="edge">
<title>Node2&#45;&gt;Node3</title>
<path fill="none" stroke="#191970" d="M566.2678,-56.4737C612.9852,-48.4289 680.635,-36.0127 748.2241,-20.1544"/>
<polygon fill="#191970" stroke="#191970" points="749.2711,-23.5033 758.1933,-17.7898 747.6555,-16.6923 749.2711,-23.5033"/>
</g>
<!-- Node4 -->
<g id="node5" class="node">
<title>Node4</title>
<polygon fill="none" stroke="#bfbfbf" points="177.5,-.5 177.5,-19.5 241.5,-19.5 241.5,-.5 177.5,-.5"/>
<text text-anchor="middle" x="209.5" y="-7.5" font-family="FreeSans.ttf" font-size="10.00" fill="#000000">algorithm</text>
</g>
<!-- Node2&#45;&gt;Node4 -->
<g id="edge4" class="edge">
<title>Node2&#45;&gt;Node4</title>
<path fill="none" stroke="#191970" d="M448.86,-56.4583C398.6885,-48.1828 324.8471,-35.4247 251.5523,-20.1279"/>
<polygon fill="#191970" stroke="#191970" points="252.1917,-16.6859 241.6854,-18.0523 250.7507,-23.536 252.1917,-16.6859"/>
</g>
<!-- Node5 -->
<g id="node6" class="node">
<title>Node5</title>
<polygon fill="none" stroke="#bfbfbf" points="259.5,-.5 259.5,-19.5 301.5,-19.5 301.5,-.5 259.5,-.5"/>
<text text-anchor="middle" x="280.5" y="-7.5" font-family="FreeSans.ttf" font-size="10.00" fill="#000000">array</text>
</g>
<!-- Node2&#45;&gt;Node5 -->
<g id="edge5" class="edge">
<title>Node2&#45;&gt;Node5</title>
<path fill="none" stroke="#191970" d="M461.7797,-56.4358C423.6631,-48.343 368.2549,-35.9226 311.5757,-20.1246"/>
<polygon fill="#191970" stroke="#191970" points="312.3037,-16.6935 301.7292,-17.3491 310.4045,-23.431 312.3037,-16.6935"/>
</g>
<!-- Node6 -->
<g id="node7" class="node">
<title>Node6</title>
<polygon fill="none" stroke="#bfbfbf" points="687,-.5 687,-19.5 740,-19.5 740,-.5 687,-.5"/>
<text text-anchor="middle" x="713.5" y="-7.5" font-family="FreeSans.ttf" font-size="10.00" fill="#000000">cstddef</text>
</g>
<!-- Node2&#45;&gt;Node6 -->
<g id="edge6" class="edge">
<title>Node2&#45;&gt;Node6</title>
<path fill="none" stroke="#191970" d="M543.796,-56.4501C575.9919,-47.7262 625.1384,-34.3777 677.0468,-20.1151"/>
<polygon fill="#191970" stroke="#191970" points="678.0537,-23.4682 686.7679,-17.4422 676.1978,-16.7187 678.0537,-23.4682"/>
</g>
<!-- Node7 -->
<g id="node8" class="node">
<title>Node7</title>
<polygon fill="none" stroke="#bfbfbf" points="320,-.5 320,-19.5 373,-19.5 373,-.5 320,-.5"/>
<text text-anchor="middle" x="346.5" y="-7.5" font-family="FreeSans.ttf" font-size="10.00" fill="#000000">iterator</text>
</g>
<!-- Node2&#45;&gt;Node7 -->
<g id="edge7" class="edge">
<title>Node2&#45;&gt;Node7</title>
<path fill="none" stroke="#191970" d="M480.6512,-56.3733C453.5859,-47.0173 412.3454,-32.7614 382.7372,-22.5264"/>
<polygon fill="#191970" stroke="#191970" points="383.7741,-19.1817 373.1794,-19.2225 381.4871,-25.7976 383.7741,-19.1817"/>
</g>
<!-- Node8 -->
<g id="node9" class="node">
<title>Node8</title>
<polygon fill="none" stroke="#bfbfbf" points="391.5,-.5 391.5,-19.5 435.5,-19.5 435.5,-.5 391.5,-.5"/>
<text text-anchor="middle" x="413.5" y="-7.5" font-family="FreeSans.ttf" font-size="10.00" fill="#000000">limits</text>
</g>
<!-- Node2&#45;&gt;Node8 -->
<g id="edge8" class="edge">
<title>Node2&#45;&gt;Node8</title>
<path fill="none" stroke="#191970" d="M491.9523,-56.2455C477.2401,-47.5731 455.5112,-34.7645 438.6495,-24.825"/>
<polygon fill="#191970" stroke="#191970" points="440.2502,-21.7057 429.8581,-19.6427 436.6954,-27.736 440.2502,-21.7057"/>
</g>
<!-- Node9 -->
<g id="node10" class="node">
<title>Node9</title>
<polygon fill="none" stroke="#bfbfbf" points="454,-.5 454,-19.5 519,-19.5 519,-.5 454,-.5"/>
<text text-anchor="middle" x="486.5" y="-7.5" font-family="FreeSans.ttf" font-size="10.00" fill="#000000">stdexcept</text>
</g>
<!-- Node2&#45;&gt;Node9 -->
<g id="edge9" class="edge">
<title>Node2&#45;&gt;Node9</title>
<path fill="none" stroke="#191970" d="M504.6679,-56.2455C501.7341,-48.7776 497.5953,-38.2427 494.009,-29.1137"/>
<polygon fill="#191970" stroke="#191970" points="497.2024,-27.6704 490.2882,-19.6427 490.6871,-30.23 497.2024,-27.6704"/>
</g>
<!-- Node10 -->
<g id="node11" class="node">
<title>Node10</title>
<polygon fill="none" stroke="#bfbfbf" points="600,-.5 600,-19.5 669,-19.5 669,-.5 600,-.5"/>
<text text-anchor="middle" x="634.5" y="-7.5" font-family="FreeSans.ttf" font-size="10.00" fill="#000000">type_traits</text>
</g>
<!-- Node2&#45;&gt;Node10 -->
<g id="edge10" class="edge">
<title>Node2&#45;&gt;Node10</title>
<path fill="none" stroke="#191970" d="M530.1602,-56.3733C550.4772,-47.3435 581.064,-33.7494 603.875,-23.6111"/>
<polygon fill="#191970" stroke="#191970" points="605.4059,-26.7609 613.1225,-19.5011 602.5628,-20.3642 605.4059,-26.7609"/>
</g>
<!-- Node11 -->
<g id="node12" class="node">
<title>Node11</title>
<polygon fill="none" stroke="#bfbfbf" points="537,-.5 537,-19.5 582,-19.5 582,-.5 537,-.5"/>
<text text-anchor="middle" x="559.5" y="-7.5" font-family="FreeSans.ttf" font-size="10.00" fill="#000000">utility</text>
</g>
<!-- Node2&#45;&gt;Node11 -->
<g id="edge11" class="edge">
<title>Node2&#45;&gt;Node11</title>
<path fill="none" stroke="#191970" d="M517.3835,-56.2455C524.6966,-48.2155 535.2391,-36.6394 543.9467,-27.0781"/>
<polygon fill="#191970" stroke="#191970" points="546.5727,-29.3928 550.7183,-19.6427 541.3972,-24.6795 546.5727,-29.3928"/>
</g>
<!-- Node13&#45;&gt;Node12 -->
<g id="edge14" class="edge">
<title>Node13&#45;&gt;Node12</title>
<path fill="none" stroke="#191970" d="M304.9441,-168.3733C345.3074,-157.7112 409.7617,-140.6856 448.3237,-130.4994"/>
<polygon fill="#191970" stroke="#191970" points="449.6975,-133.7566 458.472,-127.8187 447.9098,-126.9888 449.6975,-133.7566"/>
</g>
<!-- Node14 -->
<g id="node15" class="node">
<title>Node14</title>
<g id="a_node15"><a xlink:href="MatrixView_8h.html" target="_top" xlink:title="iDynTree/Core/MatrixView.h">
<polygon fill="none" stroke="#000000" points="559,-112.5 559,-131.5 710,-131.5 710,-112.5 559,-112.5"/>
<text text-anchor="middle" x="634.5" y="-119.5" font-family="FreeSans.ttf" font-size="10.00" fill="#000000">iDynTree/Core/MatrixView.h</text>
</a>
</g>
</g>
<!-- Node13&#45;&gt;Node14 -->
<g id="edge15" class="edge">
<title>Node13&#45;&gt;Node14</title>
<path fill="none" stroke="#191970" d="M331.0018,-168.4369C395.0874,-158.6314 494.6639,-143.3957 562.1291,-133.0731"/>
<polygon fill="#191970" stroke="#191970" points="562.9004,-136.4959 572.256,-131.5237 561.8417,-129.5765 562.9004,-136.4959"/>
</g>
<!-- Node14&#45;&gt;Node2 -->
<g id="edge18" class="edge">
<title>Node14&#45;&gt;Node2</title>
<path fill="none" stroke="#191970" d="M612.8398,-112.3733C592.5228,-103.3435 561.936,-89.7494 539.125,-79.6111"/>
<polygon fill="#191970" stroke="#191970" points="540.4372,-76.3642 529.8775,-75.5011 537.5941,-82.7609 540.4372,-76.3642"/>
</g>
<!-- Node14&#45;&gt;Node3 -->
<g id="edge16" class="edge">
<title>Node14&#45;&gt;Node3</title>
<path fill="none" stroke="#191970" d="M647.2889,-112.4509C673.1927,-93.1094 732.0716,-49.1465 763.62,-25.5904"/>
<polygon fill="#191970" stroke="#191970" points="765.8247,-28.3123 771.7435,-19.5249 761.6366,-22.7033 765.8247,-28.3123"/>
</g>
<!-- Node14&#45;&gt;Node10 -->
<g id="edge17" class="edge">
<title>Node14&#45;&gt;Node10</title>
<path fill="none" stroke="#191970" d="M634.5,-112.4509C634.5,-94.184 634.5,-53.9553 634.5,-29.6976"/>
<polygon fill="#191970" stroke="#191970" points="638.0001,-29.5249 634.5,-19.5249 631.0001,-29.5249 638.0001,-29.5249"/>
</g>
<!-- Node15 -->
<g id="node16" class="node">
<title>Node15</title>
<g id="a_node16"><a xlink:href="Utils_8h.html" target="_top" xlink:title="iDynTree/Core/Utils.h">
<polygon fill="none" stroke="#000000" points="767,-56.5 767,-75.5 886,-75.5 886,-56.5 767,-56.5"/>
<text text-anchor="middle" x="826.5" y="-63.5" font-family="FreeSans.ttf" font-size="10.00" fill="#000000">iDynTree/Core/Utils.h</text>
</a>
</g>
</g>
<!-- Node14&#45;&gt;Node15 -->
<g id="edge19" class="edge">
<title>Node14&#45;&gt;Node15</title>
<path fill="none" stroke="#191970" d="M667.506,-112.3733C699.7091,-102.9807 748.8442,-88.6496 783.9639,-78.4064"/>
<polygon fill="#191970" stroke="#191970" points="785.3047,-81.6612 793.9247,-75.5011 783.3447,-74.9412 785.3047,-81.6612"/>
</g>
<!-- Node15&#45;&gt;Node6 -->
<g id="edge20" class="edge">
<title>Node15&#45;&gt;Node6</title>
<path fill="none" stroke="#191970" d="M807.0746,-56.3733C789.0979,-47.4644 762.1559,-34.1127 741.791,-24.0203"/>
<polygon fill="#191970" stroke="#191970" points="743.1861,-20.8055 732.6719,-19.5011 740.0778,-27.0776 743.1861,-20.8055"/>
</g>
<!-- Node16 -->
<g id="node17" class="node">
<title>Node16</title>
<polygon fill="none" stroke="#bfbfbf" points="828.5,-.5 828.5,-19.5 908.5,-19.5 908.5,-.5 828.5,-.5"/>
<text text-anchor="middle" x="868.5" y="-7.5" font-family="FreeSans.ttf" font-size="10.00" fill="#000000">CoreExport.h</text>
</g>
<!-- Node15&#45;&gt;Node16 -->
<g id="edge21" class="edge">
<title>Node15&#45;&gt;Node16</title>
<path fill="none" stroke="#191970" d="M833.8158,-56.2455C839.7179,-48.3761 848.1742,-37.101 855.2594,-27.6542"/>
<polygon fill="#191970" stroke="#191970" points="858.068,-29.7427 861.268,-19.6427 852.4679,-25.5427 858.068,-29.7427"/>
</g>
<!-- Node17&#45;&gt;Node12 -->
<g id="edge51" class="edge">
<title>Node17&#45;&gt;Node12</title>
<path fill="none" stroke="#191970" d="M490.4635,-392.4779C447.9498,-377.958 379.5,-345.9003 379.5,-290 379.5,-290 379.5,-290 379.5,-234 379.5,-189.8652 423.2888,-155.2933 453.2012,-136.8258"/>
<polygon fill="#191970" stroke="#191970" points="455.1617,-139.7323 461.975,-131.6188 451.5892,-133.7126 455.1617,-139.7323"/>
</g>
<!-- Node18 -->
<g id="node19" class="node">
<title>Node18</title>
<g id="a_node19"><a xlink:href="Position_8h.html" target="_top" xlink:title="iDynTree/Core/Position.h">
<polygon fill="none" stroke="#000000" points="455.5,-336.5 455.5,-355.5 591.5,-355.5 591.5,-336.5 455.5,-336.5"/>
<text text-anchor="middle" x="523.5" y="-343.5" font-family="FreeSans.ttf" font-size="10.00" fill="#000000">iDynTree/Core/Position.h</text>
</a>
</g>
</g>
<!-- Node17&#45;&gt;Node18 -->
<g id="edge23" class="edge">
<title>Node17&#45;&gt;Node18</title>
<path fill="none" stroke="#191970" d="M523.5,-392.2455C523.5,-384.9382 523.5,-374.6944 523.5,-365.7046"/>
<polygon fill="#191970" stroke="#191970" points="527.0001,-365.6426 523.5,-355.6427 520.0001,-365.6427 527.0001,-365.6426"/>
</g>
<!-- Node23 -->
<g id="node24" class="node">
<title>Node23</title>
<g id="a_node24"><a xlink:href="Rotation_8h.html" target="_top" xlink:title="iDynTree/Core/Rotation.h">
<polygon fill="none" stroke="#000000" points="580,-280.5 580,-299.5 717,-299.5 717,-280.5 580,-280.5"/>
<text text-anchor="middle" x="648.5" y="-287.5" font-family="FreeSans.ttf" font-size="10.00" fill="#000000">iDynTree/Core/Rotation.h</text>
</a>
</g>
</g>
<!-- Node17&#45;&gt;Node23 -->
<g id="edge49" class="edge">
<title>Node17&#45;&gt;Node23</title>
<path fill="none" stroke="#191970" d="M544.2993,-392.4804C560.7195,-384.3149 583.5999,-371.4392 600.5,-356 615.6283,-342.1795 628.983,-322.9101 637.7397,-308.7593"/>
<polygon fill="#191970" stroke="#191970" points="640.9032,-310.2888 643.0328,-299.9102 634.8958,-306.6955 640.9032,-310.2888"/>
</g>
<!-- Node26 -->
<g id="node27" class="node">
<title>Node26</title>
<g id="a_node27"><a xlink:href="MatrixFixSize_8h.html" target="_top" xlink:title="iDynTree/Core/MatrixFixSize.h">
<polygon fill="none" stroke="#000000" points="876,-168.5 876,-187.5 1037,-187.5 1037,-168.5 876,-168.5"/>
<text text-anchor="middle" x="956.5" y="-175.5" font-family="FreeSans.ttf" font-size="10.00" fill="#000000">iDynTree/Core/MatrixFixSize.h</text>
</a>
</g>
</g>
<!-- Node17&#45;&gt;Node26 -->
<g id="edge50" class="edge">
<title>Node17&#45;&gt;Node26</title>
<path fill="none" stroke="#191970" d="M585.8848,-392.4498C711.8229,-371.7615 989.1774,-318.5879 1044.5,-244 1061.3872,-221.2321 1029.1056,-202.6779 998.9965,-191.1056"/>
<polygon fill="#191970" stroke="#191970" points="999.9563,-187.7303 989.3623,-187.5972 997.561,-194.3077 999.9563,-187.7303"/>
</g>
<!-- Node18&#45;&gt;Node12 -->
<g id="edge48" class="edge">
<title>Node18&#45;&gt;Node12</title>
<path fill="none" stroke="#191970" d="M510.9008,-336.403C490.6137,-320.0594 451.4705,-284.6205 436.5,-244 422.8298,-206.9075 448.6057,-163.3098 466.1515,-139.5763"/>
<polygon fill="#191970" stroke="#191970" points="469.0385,-141.5639 472.3737,-131.5077 463.4953,-137.2892 469.0385,-141.5639"/>
</g>
<!-- Node19 -->
<g id="node20" class="node">
<title>Node19</title>
<g id="a_node20"><a xlink:href="PositionRaw_8h.html" target="_top" xlink:title="iDynTree/Core/PositionRaw.h">
<polygon fill="none" stroke="#000000" points="445.5,-224.5 445.5,-243.5 601.5,-243.5 601.5,-224.5 445.5,-224.5"/>
<text text-anchor="middle" x="523.5" y="-231.5" font-family="FreeSans.ttf" font-size="10.00" fill="#000000">iDynTree/Core/PositionRaw.h</text>
</a>
</g>
</g>
<!-- Node18&#45;&gt;Node19 -->
<g id="edge24" class="edge">
<title>Node18&#45;&gt;Node19</title>
<path fill="none" stroke="#191970" d="M523.5,-336.4509C523.5,-318.184 523.5,-277.9553 523.5,-253.6976"/>
<polygon fill="#191970" stroke="#191970" points="527.0001,-253.5249 523.5,-243.5249 520.0001,-253.5249 527.0001,-253.5249"/>
</g>
<!-- Node18&#45;&gt;Node23 -->
<g id="edge33" class="edge">
<title>Node18&#45;&gt;Node23</title>
<path fill="none" stroke="#191970" d="M544.9883,-336.3733C565.144,-327.3435 595.488,-313.7494 618.118,-303.6111"/>
<polygon fill="#191970" stroke="#191970" points="619.5971,-306.7838 627.2921,-299.5011 616.7351,-300.3955 619.5971,-306.7838"/>
</g>
<!-- Node19&#45;&gt;Node12 -->
<g id="edge32" class="edge">
<title>Node19&#45;&gt;Node12</title>
<path fill="none" stroke="#191970" d="M519.8338,-224.4509C512.7572,-206.0186 497.0955,-165.2254 487.8112,-141.043"/>
<polygon fill="#191970" stroke="#191970" points="491.0086,-139.606 484.1569,-131.5249 484.4737,-142.115 491.0086,-139.606"/>
</g>
<!-- Node20 -->
<g id="node21" class="node">
<title>Node20</title>
<g id="a_node21"><a xlink:href="VectorFixSize_8h.html" target="_top" xlink:title="iDynTree/Core/VectorFixSize.h">
<polygon fill="none" stroke="#000000" points="696,-168.5 696,-187.5 857,-187.5 857,-168.5 696,-168.5"/>
<text text-anchor="middle" x="776.5" y="-175.5" font-family="FreeSans.ttf" font-size="10.00" fill="#000000">iDynTree/Core/VectorFixSize.h</text>
</a>
</g>
</g>
<!-- Node19&#45;&gt;Node20 -->
<g id="edge25" class="edge">
<title>Node19&#45;&gt;Node20</title>
<path fill="none" stroke="#191970" d="M566.7048,-224.4369C610.0947,-214.8328 677.0209,-200.0191 723.5726,-189.7152"/>
<polygon fill="#191970" stroke="#191970" points="724.4662,-193.1022 733.4734,-187.5237 722.9533,-186.2676 724.4662,-193.1022"/>
</g>
<!-- Node20&#45;&gt;Node2 -->
<g id="edge27" class="edge">
<title>Node20&#45;&gt;Node2</title>
<path fill="none" stroke="#191970" d="M695.7849,-168.4935C640.4585,-160.7095 572.9839,-148.3237 549.5,-132 533.121,-120.6149 521.984,-100.3609 515.4981,-85.2828"/>
<polygon fill="#191970" stroke="#191970" points="518.6918,-83.842 511.7437,-75.8436 512.1874,-86.4291 518.6918,-83.842"/>
</g>
<!-- Node20&#45;&gt;Node3 -->
<g id="edge30" class="edge">
<title>Node20&#45;&gt;Node3</title>
<path fill="none" stroke="#191970" d="M772.4861,-168.3638C764.381,-147.5578 747.7157,-96.9968 758.5,-56 761.1112,-46.0734 766.4067,-36.0366 771.5412,-27.8822"/>
<polygon fill="#191970" stroke="#191970" points="774.4463,-29.8342 777.1181,-19.5817 768.636,-25.9303 774.4463,-29.8342"/>
</g>
<!-- Node20&#45;&gt;Node12 -->
<g id="edge28" class="edge">
<title>Node20&#45;&gt;Node12</title>
<path fill="none" stroke="#191970" d="M712.8486,-168.4851C660.0004,-160.1677 582.998,-147.0819 516.5,-132 515.2546,-131.7175 513.9878,-131.4194 512.7103,-131.1096"/>
<polygon fill="#191970" stroke="#191970" points="513.4415,-127.6837 502.8842,-128.5753 511.6932,-134.4619 513.4415,-127.6837"/>
</g>
<!-- Node20&#45;&gt;Node15 -->
<g id="edge26" class="edge">
<title>Node20&#45;&gt;Node15</title>
<path fill="none" stroke="#191970" d="M778.3066,-168.2637C780.9727,-155.0807 786.625,-131.0167 795.5,-112 800.106,-102.1306 806.6925,-92.0038 812.6106,-83.7731"/>
<polygon fill="#191970" stroke="#191970" points="815.4685,-85.7956 818.6448,-75.6881 809.8586,-81.6087 815.4685,-85.7956"/>
</g>
<!-- Node21 -->
<g id="node22" class="node">
<title>Node21</title>
<polygon fill="none" stroke="#bfbfbf" points="804.5,-112.5 804.5,-131.5 860.5,-131.5 860.5,-112.5 804.5,-112.5"/>
<text text-anchor="middle" x="832.5" y="-119.5" font-family="FreeSans.ttf" font-size="10.00" fill="#000000">sstream</text>
</g>
<!-- Node20&#45;&gt;Node21 -->
<g id="edge29" class="edge">
<title>Node20&#45;&gt;Node21</title>
<path fill="none" stroke="#191970" d="M786.2545,-168.2455C794.3648,-160.1352 806.0925,-148.4075 815.7081,-138.7919"/>
<polygon fill="#191970" stroke="#191970" points="818.2611,-141.1887 822.8573,-131.6427 813.3113,-136.2389 818.2611,-141.1887"/>
</g>
<!-- Node22 -->
<g id="node23" class="node">
<title>Node22</title>
<polygon fill="none" stroke="#bfbfbf" points="878.5,-112.5 878.5,-131.5 928.5,-131.5 928.5,-112.5 878.5,-112.5"/>
<text text-anchor="middle" x="903.5" y="-119.5" font-family="FreeSans.ttf" font-size="10.00" fill="#000000">cstring</text>
</g>
<!-- Node20&#45;&gt;Node22 -->
<g id="edge31" class="edge">
<title>Node20&#45;&gt;Node22</title>
<path fill="none" stroke="#191970" d="M798.3321,-168.3733C818.8103,-159.3435 849.6399,-145.7494 872.6319,-135.6111"/>
<polygon fill="#191970" stroke="#191970" points="874.215,-138.7383 881.9528,-131.5011 871.3907,-132.3333 874.215,-138.7383"/>
</g>
<!-- Node23&#45;&gt;Node12 -->
<g id="edge34" class="edge">
<title>Node23&#45;&gt;Node12</title>
<path fill="none" stroke="#191970" d="M644.3587,-280.3062C638.2627,-266.7474 625.9113,-241.7871 610.5,-224 579.108,-187.7686 533.3053,-155.3756 505.2821,-137.2483"/>
<polygon fill="#191970" stroke="#191970" points="506.8221,-134.0798 496.5067,-131.6628 503.0634,-139.9851 506.8221,-134.0798"/>
</g>
<!-- Node23&#45;&gt;Node20 -->
<g id="edge47" class="edge">
<title>Node23&#45;&gt;Node20</title>
<path fill="none" stroke="#191970" d="M651.9996,-280.3403C657.4752,-266.369 669.2567,-240.4035 686.5,-224 701.4109,-209.8153 721.549,-198.9729 738.9953,-191.3874"/>
<polygon fill="#191970" stroke="#191970" points="740.4613,-194.5686 748.3604,-187.5078 737.7822,-188.1016 740.4613,-194.5686"/>
</g>
<!-- Node24 -->
<g id="node25" class="node">
<title>Node24</title>
<g id="a_node25"><a xlink:href="GeomVector3_8h.html" target="_top" xlink:title="iDynTree/Core/GeomVector3.h">
<polygon fill="none" stroke="#000000" points="696,-224.5 696,-243.5 859,-243.5 859,-224.5 696,-224.5"/>
<text text-anchor="middle" x="777.5" y="-231.5" font-family="FreeSans.ttf" font-size="10.00" fill="#000000">iDynTree/Core/GeomVector3.h</text>
</a>
</g>
</g>
<!-- Node23&#45;&gt;Node24 -->
<g id="edge35" class="edge">
<title>Node23&#45;&gt;Node24</title>
<path fill="none" stroke="#191970" d="M670.6759,-280.3733C691.4766,-271.3435 722.7917,-257.7494 746.1458,-247.6111"/>
<polygon fill="#191970" stroke="#191970" points="747.8343,-250.6938 755.6135,-243.5011 745.0468,-244.2727 747.8343,-250.6938"/>
</g>
<!-- Node25 -->
<g id="node26" class="node">
<title>Node25</title>
<g id="a_node26"><a xlink:href="RotationRaw_8h.html" target="_top" xlink:title="iDynTree/Core/RotationRaw.h">
<polygon fill="none" stroke="#000000" points="877.5,-224.5 877.5,-243.5 1035.5,-243.5 1035.5,-224.5 877.5,-224.5"/>
<text text-anchor="middle" x="956.5" y="-231.5" font-family="FreeSans.ttf" font-size="10.00" fill="#000000">iDynTree/Core/RotationRaw.h</text>
</a>
</g>
</g>
<!-- Node23&#45;&gt;Node25 -->
<g id="edge37" class="edge">
<title>Node23&#45;&gt;Node25</title>
<path fill="none" stroke="#191970" d="M701.0971,-280.4369C754.5841,-270.712 837.4492,-255.6456 894.1933,-245.3285"/>
<polygon fill="#191970" stroke="#191970" points="894.9072,-248.7562 904.1198,-243.5237 893.655,-241.8691 894.9072,-248.7562"/>
</g>
<!-- Node24&#45;&gt;Node20 -->
<g id="edge36" class="edge">
<title>Node24&#45;&gt;Node20</title>
<path fill="none" stroke="#191970" d="M777.3258,-224.2455C777.1953,-216.9382 777.0124,-206.6944 776.8519,-197.7046"/>
<polygon fill="#191970" stroke="#191970" points="780.3503,-197.5786 776.6722,-187.6427 773.3514,-197.7036 780.3503,-197.5786"/>
</g>
<!-- Node25&#45;&gt;Node12 -->
<g id="edge46" class="edge">
<title>Node25&#45;&gt;Node12</title>
<path fill="none" stroke="#191970" d="M888.2738,-224.4925C821.02,-214.7401 723.1587,-199.4223 686.5,-188 666.377,-181.73 663.2614,-175.3303 643.5,-168 599.0961,-151.5289 546.0427,-137.5746 512.8015,-129.4904"/>
<polygon fill="#191970" stroke="#191970" points="513.2818,-126.0064 502.7412,-127.0762 511.6483,-132.8131 513.2818,-126.0064"/>
</g>
<!-- Node25&#45;&gt;Node26 -->
<g id="edge38" class="edge">
<title>Node25&#45;&gt;Node26</title>
<path fill="none" stroke="#191970" d="M956.5,-224.2455C956.5,-216.9382 956.5,-206.6944 956.5,-197.7046"/>
<polygon fill="#191970" stroke="#191970" points="960.0001,-197.6426 956.5,-187.6427 953.0001,-197.6427 960.0001,-197.6426"/>
</g>
<!-- Node26&#45;&gt;Node3 -->
<g id="edge41" class="edge">
<title>Node26&#45;&gt;Node3</title>
<path fill="none" stroke="#191970" d="M958.877,-168.1013C961.571,-154.7344 964.6135,-130.4625 956.5,-112 941.6932,-78.3068 926.5286,-75.7913 895.5,-56 872.0604,-41.0493 842.9414,-29.1979 820.4096,-21.2709"/>
<polygon fill="#191970" stroke="#191970" points="821.4738,-17.9359 810.8792,-18.0123 819.209,-24.5594 821.4738,-17.9359"/>
</g>
<!-- Node26&#45;&gt;Node12 -->
<g id="edge43" class="edge">
<title>Node26&#45;&gt;Node12</title>
<path fill="none" stroke="#191970" d="M875.8352,-169.0209C766.4304,-156.8213 580.9721,-136.0581 549.5,-132 537.4594,-130.4475 524.2623,-128.5765 512.663,-126.8749"/>
<polygon fill="#191970" stroke="#191970" points="512.9441,-123.3784 502.5389,-125.3738 511.9174,-130.3027 512.9441,-123.3784"/>
</g>
<!-- Node26&#45;&gt;Node14 -->
<g id="edge40" class="edge">
<title>Node26&#45;&gt;Node14</title>
<path fill="none" stroke="#191970" d="M901.5121,-168.4369C845.4781,-158.6918 758.6034,-143.5832 699.2707,-133.2645"/>
<polygon fill="#191970" stroke="#191970" points="699.7129,-129.7889 689.2611,-131.5237 698.5135,-136.6854 699.7129,-129.7889"/>
</g>
<!-- Node26&#45;&gt;Node15 -->
<g id="edge39" class="edge">
<title>Node26&#45;&gt;Node15</title>
<path fill="none" stroke="#191970" d="M956.2512,-168.2352C955.3831,-154.133 951.7986,-128.0061 937.5,-112 923.3526,-96.1631 902.9041,-85.6475 883.4031,-78.7254"/>
<polygon fill="#191970" stroke="#191970" points="884.228,-75.3124 873.6351,-75.5163 882.0431,-81.9627 884.228,-75.3124"/>
</g>
<!-- Node26&#45;&gt;Node21 -->
<g id="edge45" class="edge">
<title>Node26&#45;&gt;Node21</title>
<path fill="none" stroke="#191970" d="M935.1836,-168.3733C915.2784,-159.3838 885.3564,-145.8706 862.94,-135.7471"/>
<polygon fill="#191970" stroke="#191970" points="864.0925,-132.4272 853.5382,-131.5011 861.2113,-138.8068 864.0925,-132.4272"/>
</g>
<!-- Node26&#45;&gt;Node22 -->
<g id="edge42" class="edge">
<title>Node26&#45;&gt;Node22</title>
<path fill="none" stroke="#191970" d="M947.2681,-168.2455C939.6683,-160.2155 928.7123,-148.6394 919.6632,-139.0781"/>
<polygon fill="#191970" stroke="#191970" points="922.042,-136.4998 912.6261,-131.6427 916.9579,-141.3115 922.042,-136.4998"/>
</g>
<!-- Node27 -->
<g id="node28" class="node">
<title>Node27</title>
<polygon fill="none" stroke="#bfbfbf" points="1022.5,-112.5 1022.5,-131.5 1082.5,-131.5 1082.5,-112.5 1022.5,-112.5"/>
<text text-anchor="middle" x="1052.5" y="-119.5" font-family="FreeSans.ttf" font-size="10.00" fill="#000000">iostream</text>
</g>
<!-- Node26&#45;&gt;Node27 -->
<g id="edge44" class="edge">
<title>Node26&#45;&gt;Node27</title>
<path fill="none" stroke="#191970" d="M973.2219,-168.2455C988.0889,-159.5731 1010.0466,-146.7645 1027.0858,-136.825"/>
<polygon fill="#191970" stroke="#191970" points="1029.0955,-139.7047 1035.9697,-131.6427 1025.5683,-133.6582 1029.0955,-139.7047"/>
</g>
</g>
</svg>
