<?xml version="1.0" encoding="UTF-8" standalone="no"?>
<!DOCTYPE svg PUBLIC "-//W3C//DTD SVG 1.1//EN"
 "http://www.w3.org/Graphics/SVG/1.1/DTD/svg11.dtd">
<!-- Generated by graphviz version 2.40.1 (20161225.0304)
 -->
<!-- Title: TransformConstraint.cpp Pages: 1 -->
<svg width="1215pt" height="644pt"
 viewBox="0.00 0.00 1215.00 644.00" xmlns="http://www.w3.org/2000/svg" xmlns:xlink="http://www.w3.org/1999/xlink">
<g id="graph0" class="graph" transform="scale(1 1) rotate(0) translate(4 640)">
<title>TransformConstraint.cpp</title>
<!-- Node0 -->
<g id="node1" class="node">
<title>Node0</title>
<polygon fill="#bfbfbf" stroke="#000000" points="551.5,-616.5 551.5,-635.5 687.5,-635.5 687.5,-616.5 551.5,-616.5"/>
<text text-anchor="middle" x="619.5" y="-623.5" font-family="FreeSans.ttf" font-size="10.00" fill="#000000">TransformConstraint.cpp</text>
</g>
<!-- Node1 -->
<g id="node2" class="node">
<title>Node1</title>
<g id="a_node2"><a xlink:href="TransformConstraint_8h.html" target="_top" xlink:title="TransformConstraint.h">
<polygon fill="none" stroke="#000000" points="512,-560.5 512,-579.5 637,-579.5 637,-560.5 512,-560.5"/>
<text text-anchor="middle" x="574.5" y="-567.5" font-family="FreeSans.ttf" font-size="10.00" fill="#000000">TransformConstraint.h</text>
</a>
</g>
</g>
<!-- Node0&#45;&gt;Node1 -->
<g id="edge1" class="edge">
<title>Node0&#45;&gt;Node1</title>
<path fill="none" stroke="#191970" d="M611.6616,-616.2455C605.338,-608.3761 596.2776,-597.101 588.6864,-587.6542"/>
<polygon fill="#191970" stroke="#191970" points="591.2408,-585.2454 582.2486,-579.6427 585.7842,-589.6302 591.2408,-585.2454"/>
</g>
<!-- Node2 -->
<g id="node3" class="node">
<title>Node2</title>
<g id="a_node3"><a xlink:href="Transform_8h.html" target="_top" xlink:title="iDynTree/Core/Transform.h">
<polygon fill="none" stroke="#000000" points="576.5,-392.5 576.5,-411.5 722.5,-411.5 722.5,-392.5 576.5,-392.5"/>
<text text-anchor="middle" x="649.5" y="-399.5" font-family="FreeSans.ttf" font-size="10.00" fill="#000000">iDynTree/Core/Transform.h</text>
</a>
</g>
</g>
<!-- Node0&#45;&gt;Node2 -->
<g id="edge65" class="edge">
<title>Node0&#45;&gt;Node2</title>
<path fill="none" stroke="#191970" d="M626.766,-616.3867C633.0334,-607.4807 641.6628,-593.5961 645.5,-580 661.1967,-524.3831 656.1002,-455.0659 652.2093,-421.7218"/>
<polygon fill="#191970" stroke="#191970" points="655.645,-420.9918 650.9194,-411.5092 648.7002,-421.869 655.645,-420.9918"/>
</g>
<!-- Node1&#45;&gt;Node2 -->
<g id="edge2" class="edge">
<title>Node1&#45;&gt;Node2</title>
<path fill="none" stroke="#191970" d="M583.0258,-560.3708C590.5646,-551.4541 601.433,-537.5627 608.5,-524 626.3185,-489.8037 638.745,-446.2724 644.952,-421.531"/>
<polygon fill="#191970" stroke="#191970" points="648.4082,-422.1297 647.3633,-411.5865 641.6053,-420.4801 648.4082,-422.1297"/>
</g>
<!-- Node27 -->
<g id="node28" class="node">
<title>Node27</title>
<g id="a_node28"><a xlink:href="InverseKinematics_8h.html" target="_top" xlink:title="iDynTree/InverseKinematics.h">
<polygon fill="none" stroke="#000000" points="437.5,-504.5 437.5,-523.5 599.5,-523.5 599.5,-504.5 437.5,-504.5"/>
<text text-anchor="middle" x="518.5" y="-511.5" font-family="FreeSans.ttf" font-size="10.00" fill="#000000">iDynTree/InverseKinematics.h</text>
</a>
</g>
</g>
<!-- Node1&#45;&gt;Node27 -->
<g id="edge47" class="edge">
<title>Node1&#45;&gt;Node27</title>
<path fill="none" stroke="#191970" d="M564.7455,-560.2455C556.6352,-552.1352 544.9075,-540.4075 535.2919,-530.7919"/>
<polygon fill="#191970" stroke="#191970" points="537.6887,-528.2389 528.1427,-523.6427 532.7389,-533.1887 537.6887,-528.2389"/>
</g>
<!-- Node3 -->
<g id="node4" class="node">
<title>Node3</title>
<g id="a_node4"><a xlink:href="Position_8h.html" target="_top" xlink:title="iDynTree/Core/Position.h">
<polygon fill="none" stroke="#000000" points="318.5,-336.5 318.5,-355.5 454.5,-355.5 454.5,-336.5 318.5,-336.5"/>
<text text-anchor="middle" x="386.5" y="-343.5" font-family="FreeSans.ttf" font-size="10.00" fill="#000000">iDynTree/Core/Position.h</text>
</a>
</g>
</g>
<!-- Node2&#45;&gt;Node3 -->
<g id="edge3" class="edge">
<title>Node2&#45;&gt;Node3</title>
<path fill="none" stroke="#191970" d="M604.5875,-392.4369C559.388,-382.8127 489.6193,-367.957 441.2153,-357.6504"/>
<polygon fill="#191970" stroke="#191970" points="441.7369,-354.1831 431.2272,-355.5237 440.279,-361.0296 441.7369,-354.1831"/>
</g>
<!-- Node18 -->
<g id="node19" class="node">
<title>Node18</title>
<polygon fill="none" stroke="#bfbfbf" points="490.5,-112.5 490.5,-131.5 534.5,-131.5 534.5,-112.5 490.5,-112.5"/>
<text text-anchor="middle" x="512.5" y="-119.5" font-family="FreeSans.ttf" font-size="10.00" fill="#000000">string</text>
</g>
<!-- Node2&#45;&gt;Node18 -->
<g id="edge46" class="edge">
<title>Node2&#45;&gt;Node18</title>
<path fill="none" stroke="#191970" d="M642.1722,-392.4093C620.4417,-363.4222 556.0347,-273.4589 526.5,-188 521.2391,-172.7777 517.5908,-154.8674 515.3404,-141.548"/>
<polygon fill="#191970" stroke="#191970" points="518.7869,-140.9333 513.7742,-131.5992 511.872,-142.0219 518.7869,-140.9333"/>
</g>
<!-- Node21 -->
<g id="node22" class="node">
<title>Node21</title>
<g id="a_node22"><a xlink:href="Rotation_8h.html" target="_top" xlink:title="iDynTree/Core/Rotation.h">
<polygon fill="none" stroke="#000000" points="591,-280.5 591,-299.5 728,-299.5 728,-280.5 591,-280.5"/>
<text text-anchor="middle" x="659.5" y="-287.5" font-family="FreeSans.ttf" font-size="10.00" fill="#000000">iDynTree/Core/Rotation.h</text>
</a>
</g>
</g>
<!-- Node2&#45;&gt;Node21 -->
<g id="edge44" class="edge">
<title>Node2&#45;&gt;Node21</title>
<path fill="none" stroke="#191970" d="M650.3526,-392.4509C651.9836,-374.184 655.5754,-333.9553 657.7413,-309.6976"/>
<polygon fill="#191970" stroke="#191970" points="661.2463,-309.7966 658.6496,-299.5249 654.274,-309.174 661.2463,-309.7966"/>
</g>
<!-- Node24 -->
<g id="node25" class="node">
<title>Node24</title>
<g id="a_node25"><a xlink:href="MatrixFixSize_8h.html" target="_top" xlink:title="iDynTree/Core/MatrixFixSize.h">
<polygon fill="none" stroke="#000000" points="999,-168.5 999,-187.5 1160,-187.5 1160,-168.5 999,-168.5"/>
<text text-anchor="middle" x="1079.5" y="-175.5" font-family="FreeSans.ttf" font-size="10.00" fill="#000000">iDynTree/Core/MatrixFixSize.h</text>
</a>
</g>
</g>
<!-- Node2&#45;&gt;Node24 -->
<g id="edge45" class="edge">
<title>Node2&#45;&gt;Node24</title>
<path fill="none" stroke="#191970" d="M667.9766,-392.375C735.7898,-357.0491 971.2227,-234.4049 1052.0264,-192.3118"/>
<polygon fill="#191970" stroke="#191970" points="1053.8405,-195.3133 1061.0923,-187.5891 1050.6064,-189.1051 1053.8405,-195.3133"/>
</g>
<!-- Node4 -->
<g id="node5" class="node">
<title>Node4</title>
<g id="a_node5"><a xlink:href="PositionRaw_8h.html" target="_top" xlink:title="iDynTree/Core/PositionRaw.h">
<polygon fill="none" stroke="#000000" points="298.5,-224.5 298.5,-243.5 454.5,-243.5 454.5,-224.5 298.5,-224.5"/>
<text text-anchor="middle" x="376.5" y="-231.5" font-family="FreeSans.ttf" font-size="10.00" fill="#000000">iDynTree/Core/PositionRaw.h</text>
</a>
</g>
</g>
<!-- Node3&#45;&gt;Node4 -->
<g id="edge4" class="edge">
<title>Node3&#45;&gt;Node4</title>
<path fill="none" stroke="#191970" d="M385.6474,-336.4509C384.0164,-318.184 380.4246,-277.9553 378.2587,-253.6976"/>
<polygon fill="#191970" stroke="#191970" points="381.726,-253.174 377.3504,-243.5249 374.7537,-253.7966 381.726,-253.174"/>
</g>
<!-- Node3&#45;&gt;Node18 -->
<g id="edge43" class="edge">
<title>Node3&#45;&gt;Node18</title>
<path fill="none" stroke="#191970" d="M368.2895,-336.3905C332.925,-316.4324 260.8395,-268.6255 289.5,-224 332.0271,-157.7835 429.4095,-134.0115 480.2544,-125.9126"/>
<polygon fill="#191970" stroke="#191970" points="480.9835,-129.3428 490.3613,-124.4126 479.9558,-122.4187 480.9835,-129.3428"/>
</g>
<!-- Node3&#45;&gt;Node21 -->
<g id="edge24" class="edge">
<title>Node3&#45;&gt;Node21</title>
<path fill="none" stroke="#191970" d="M433.1202,-336.4369C480.1365,-326.7925 552.7629,-311.8948 603.0193,-301.5858"/>
<polygon fill="#191970" stroke="#191970" points="603.9794,-304.9618 613.0721,-299.5237 602.5727,-298.1046 603.9794,-304.9618"/>
</g>
<!-- Node5 -->
<g id="node6" class="node">
<title>Node5</title>
<g id="a_node6"><a xlink:href="VectorFixSize_8h.html" target="_top" xlink:title="iDynTree/Core/VectorFixSize.h">
<polygon fill="none" stroke="#000000" points="820,-168.5 820,-187.5 981,-187.5 981,-168.5 820,-168.5"/>
<text text-anchor="middle" x="900.5" y="-175.5" font-family="FreeSans.ttf" font-size="10.00" fill="#000000">iDynTree/Core/VectorFixSize.h</text>
</a>
</g>
</g>
<!-- Node4&#45;&gt;Node5 -->
<g id="edge5" class="edge">
<title>Node4&#45;&gt;Node5</title>
<path fill="none" stroke="#191970" d="M454.5212,-225.8506C539.202,-216.9783 678.716,-202.2818 809.3578,-188.1197"/>
<polygon fill="#191970" stroke="#191970" points="809.985,-191.5723 819.5491,-187.0141 809.2299,-184.6132 809.985,-191.5723"/>
</g>
<!-- Node4&#45;&gt;Node18 -->
<g id="edge23" class="edge">
<title>Node4&#45;&gt;Node18</title>
<path fill="none" stroke="#191970" d="M388.0953,-224.4509C411.481,-205.1921 464.5092,-161.5218 493.2008,-137.8935"/>
<polygon fill="#191970" stroke="#191970" points="495.4397,-140.5838 500.9341,-131.5249 490.9898,-135.1802 495.4397,-140.5838"/>
</g>
<!-- Node6 -->
<g id="node7" class="node">
<title>Node6</title>
<g id="a_node7"><a xlink:href="Utils_8h.html" target="_top" xlink:title="iDynTree/Core/Utils.h">
<polygon fill="none" stroke="#000000" points="1088,-56.5 1088,-75.5 1207,-75.5 1207,-56.5 1088,-56.5"/>
<text text-anchor="middle" x="1147.5" y="-63.5" font-family="FreeSans.ttf" font-size="10.00" fill="#000000">iDynTree/Core/Utils.h</text>
</a>
</g>
</g>
<!-- Node5&#45;&gt;Node6 -->
<g id="edge6" class="edge">
<title>Node5&#45;&gt;Node6</title>
<path fill="none" stroke="#191970" d="M896.586,-168.1968C891.6518,-154.0468 885.3009,-127.8608 898.5,-112 920.9213,-85.0573 1012.0298,-73.8315 1077.5514,-69.1965"/>
<polygon fill="#191970" stroke="#191970" points="1078.0893,-72.6684 1087.833,-68.5077 1077.6214,-65.684 1078.0893,-72.6684"/>
</g>
<!-- Node9 -->
<g id="node10" class="node">
<title>Node9</title>
<g id="a_node10"><a xlink:href="Span_8h.html" target="_top" xlink:title="iDynTree/Core/Span.h">
<polygon fill="none" stroke="#000000" points="597,-56.5 597,-75.5 718,-75.5 718,-56.5 597,-56.5"/>
<text text-anchor="middle" x="657.5" y="-63.5" font-family="FreeSans.ttf" font-size="10.00" fill="#000000">iDynTree/Core/Span.h</text>
</a>
</g>
</g>
<!-- Node5&#45;&gt;Node9 -->
<g id="edge9" class="edge">
<title>Node5&#45;&gt;Node9</title>
<path fill="none" stroke="#191970" d="M821.8658,-168.4811C753.4103,-159.3858 663.437,-145.1521 652.5,-132 641.8579,-119.2025 644.859,-99.7583 649.4715,-85.2855"/>
<polygon fill="#191970" stroke="#191970" points="652.7958,-86.3857 652.9429,-75.7919 646.2215,-83.9817 652.7958,-86.3857"/>
</g>
<!-- Node10 -->
<g id="node11" class="node">
<title>Node10</title>
<polygon fill="none" stroke="#bfbfbf" points="881.5,-.5 881.5,-19.5 933.5,-19.5 933.5,-.5 881.5,-.5"/>
<text text-anchor="middle" x="907.5" y="-7.5" font-family="FreeSans.ttf" font-size="10.00" fill="#000000">cassert</text>
</g>
<!-- Node5&#45;&gt;Node10 -->
<g id="edge21" class="edge">
<title>Node5&#45;&gt;Node10</title>
<path fill="none" stroke="#191970" d="M896.6376,-168.3228C893.1962,-159.1446 888.4167,-144.8807 886.5,-132 881.096,-95.6837 892.2563,-53.5073 900.2799,-29.4647"/>
<polygon fill="#191970" stroke="#191970" points="903.6695,-30.3751 903.6748,-19.7803 897.0636,-28.0593 903.6695,-30.3751"/>
</g>
<!-- Node5&#45;&gt;Node18 -->
<g id="edge19" class="edge">
<title>Node5&#45;&gt;Node18</title>
<path fill="none" stroke="#191970" d="M834.2413,-168.4369C750.1492,-156.2999 608.4127,-135.8431 544.9398,-126.682"/>
<polygon fill="#191970" stroke="#191970" points="545.1334,-123.1738 534.7359,-125.2093 544.1334,-130.102 545.1334,-123.1738"/>
</g>
<!-- Node19 -->
<g id="node20" class="node">
<title>Node19</title>
<polygon fill="none" stroke="#bfbfbf" points="975.5,-112.5 975.5,-131.5 1031.5,-131.5 1031.5,-112.5 975.5,-112.5"/>
<text text-anchor="middle" x="1003.5" y="-119.5" font-family="FreeSans.ttf" font-size="10.00" fill="#000000">sstream</text>
</g>
<!-- Node5&#45;&gt;Node19 -->
<g id="edge20" class="edge">
<title>Node5&#45;&gt;Node19</title>
<path fill="none" stroke="#191970" d="M918.4412,-168.2455C934.54,-159.4928 958.3879,-146.527 976.7391,-136.5496"/>
<polygon fill="#191970" stroke="#191970" points="978.6507,-139.4942 985.7644,-131.6427 975.3071,-133.3444 978.6507,-139.4942"/>
</g>
<!-- Node20 -->
<g id="node21" class="node">
<title>Node20</title>
<polygon fill="none" stroke="#bfbfbf" points="907.5,-112.5 907.5,-131.5 957.5,-131.5 957.5,-112.5 907.5,-112.5"/>
<text text-anchor="middle" x="932.5" y="-119.5" font-family="FreeSans.ttf" font-size="10.00" fill="#000000">cstring</text>
</g>
<!-- Node5&#45;&gt;Node20 -->
<g id="edge22" class="edge">
<title>Node5&#45;&gt;Node20</title>
<path fill="none" stroke="#191970" d="M906.074,-168.2455C910.4331,-160.617 916.6211,-149.7881 921.9133,-140.5267"/>
<polygon fill="#191970" stroke="#191970" points="925.0673,-142.0616 926.9899,-131.6427 918.9896,-138.5886 925.0673,-142.0616"/>
</g>
<!-- Node7 -->
<g id="node8" class="node">
<title>Node7</title>
<polygon fill="none" stroke="#bfbfbf" points="999,-.5 999,-19.5 1052,-19.5 1052,-.5 999,-.5"/>
<text text-anchor="middle" x="1025.5" y="-7.5" font-family="FreeSans.ttf" font-size="10.00" fill="#000000">cstddef</text>
</g>
<!-- Node6&#45;&gt;Node7 -->
<g id="edge7" class="edge">
<title>Node6&#45;&gt;Node7</title>
<path fill="none" stroke="#191970" d="M1126.5275,-56.3733C1106.9433,-47.3838 1077.5039,-33.8706 1055.449,-23.7471"/>
<polygon fill="#191970" stroke="#191970" points="1056.7473,-20.4919 1046.1989,-19.5011 1053.8271,-26.8538 1056.7473,-20.4919"/>
</g>
<!-- Node8 -->
<g id="node9" class="node">
<title>Node8</title>
<polygon fill="none" stroke="#bfbfbf" points="1107.5,-.5 1107.5,-19.5 1187.5,-19.5 1187.5,-.5 1107.5,-.5"/>
<text text-anchor="middle" x="1147.5" y="-7.5" font-family="FreeSans.ttf" font-size="10.00" fill="#000000">CoreExport.h</text>
</g>
<!-- Node6&#45;&gt;Node8 -->
<g id="edge8" class="edge">
<title>Node6&#45;&gt;Node8</title>
<path fill="none" stroke="#191970" d="M1147.5,-56.2455C1147.5,-48.9382 1147.5,-38.6944 1147.5,-29.7046"/>
<polygon fill="#191970" stroke="#191970" points="1151.0001,-29.6426 1147.5,-19.6427 1144.0001,-29.6427 1151.0001,-29.6426"/>
</g>
<!-- Node9&#45;&gt;Node7 -->
<g id="edge13" class="edge">
<title>Node9&#45;&gt;Node7</title>
<path fill="none" stroke="#191970" d="M718.2677,-56.7527C795.2328,-45.0407 925.4365,-25.227 988.7428,-15.5935"/>
<polygon fill="#191970" stroke="#191970" points="989.3133,-19.0471 998.6729,-14.0824 988.2601,-12.1267 989.3133,-19.0471"/>
</g>
<!-- Node9&#45;&gt;Node10 -->
<g id="edge10" class="edge">
<title>Node9&#45;&gt;Node10</title>
<path fill="none" stroke="#191970" d="M706.8171,-56.4338C748.3158,-48.162 809.4261,-35.4646 871.252,-20.1985"/>
<polygon fill="#191970" stroke="#191970" points="872.3201,-23.5395 881.1779,-17.7266 870.6285,-16.7469 872.3201,-23.5395"/>
</g>
<!-- Node11 -->
<g id="node12" class="node">
<title>Node11</title>
<polygon fill="none" stroke="#bfbfbf" points="521.5,-.5 521.5,-19.5 585.5,-19.5 585.5,-.5 521.5,-.5"/>
<text text-anchor="middle" x="553.5" y="-7.5" font-family="FreeSans.ttf" font-size="10.00" fill="#000000">algorithm</text>
</g>
<!-- Node9&#45;&gt;Node11 -->
<g id="edge11" class="edge">
<title>Node9&#45;&gt;Node11</title>
<path fill="none" stroke="#191970" d="M639.3846,-56.2455C623.055,-47.4527 598.829,-34.4079 580.2661,-24.4125"/>
<polygon fill="#191970" stroke="#191970" points="581.8719,-21.3021 571.4078,-19.6427 578.5532,-27.4654 581.8719,-21.3021"/>
</g>
<!-- Node12 -->
<g id="node13" class="node">
<title>Node12</title>
<polygon fill="none" stroke="#bfbfbf" points="603.5,-.5 603.5,-19.5 645.5,-19.5 645.5,-.5 603.5,-.5"/>
<text text-anchor="middle" x="624.5" y="-7.5" font-family="FreeSans.ttf" font-size="10.00" fill="#000000">array</text>
</g>
<!-- Node9&#45;&gt;Node12 -->
<g id="edge12" class="edge">
<title>Node9&#45;&gt;Node12</title>
<path fill="none" stroke="#191970" d="M651.7518,-56.2455C647.2565,-48.617 640.8752,-37.7881 635.4175,-28.5267"/>
<polygon fill="#191970" stroke="#191970" points="638.2747,-26.4811 630.1823,-19.6427 632.2439,-30.035 638.2747,-26.4811"/>
</g>
<!-- Node13 -->
<g id="node14" class="node">
<title>Node13</title>
<polygon fill="none" stroke="#bfbfbf" points="664,-.5 664,-19.5 717,-19.5 717,-.5 664,-.5"/>
<text text-anchor="middle" x="690.5" y="-7.5" font-family="FreeSans.ttf" font-size="10.00" fill="#000000">iterator</text>
</g>
<!-- Node9&#45;&gt;Node13 -->
<g id="edge14" class="edge">
<title>Node9&#45;&gt;Node13</title>
<path fill="none" stroke="#191970" d="M663.2482,-56.2455C667.7435,-48.617 674.1248,-37.7881 679.5825,-28.5267"/>
<polygon fill="#191970" stroke="#191970" points="682.7561,-30.035 684.8177,-19.6427 676.7253,-26.4811 682.7561,-30.035"/>
</g>
<!-- Node14 -->
<g id="node15" class="node">
<title>Node14</title>
<polygon fill="none" stroke="#bfbfbf" points="735.5,-.5 735.5,-19.5 779.5,-19.5 779.5,-.5 735.5,-.5"/>
<text text-anchor="middle" x="757.5" y="-7.5" font-family="FreeSans.ttf" font-size="10.00" fill="#000000">limits</text>
</g>
<!-- Node9&#45;&gt;Node14 -->
<g id="edge15" class="edge">
<title>Node9&#45;&gt;Node14</title>
<path fill="none" stroke="#191970" d="M674.9187,-56.2455C690.5485,-47.4928 713.7019,-34.527 731.5185,-24.5496"/>
<polygon fill="#191970" stroke="#191970" points="733.266,-27.5825 740.2809,-19.6427 729.8457,-21.475 733.266,-27.5825"/>
</g>
<!-- Node15 -->
<g id="node16" class="node">
<title>Node15</title>
<polygon fill="none" stroke="#bfbfbf" points="798,-.5 798,-19.5 863,-19.5 863,-.5 798,-.5"/>
<text text-anchor="middle" x="830.5" y="-7.5" font-family="FreeSans.ttf" font-size="10.00" fill="#000000">stdexcept</text>
</g>
<!-- Node9&#45;&gt;Node15 -->
<g id="edge16" class="edge">
<title>Node9&#45;&gt;Node15</title>
<path fill="none" stroke="#191970" d="M687.2398,-56.3733C716.007,-47.0613 759.77,-32.8953 791.3556,-22.671"/>
<polygon fill="#191970" stroke="#191970" points="792.7122,-25.9107 801.1483,-19.5011 790.5564,-19.251 792.7122,-25.9107"/>
</g>
<!-- Node16 -->
<g id="node17" class="node">
<title>Node16</title>
<polygon fill="none" stroke="#bfbfbf" points="371,-.5 371,-19.5 440,-19.5 440,-.5 371,-.5"/>
<text text-anchor="middle" x="405.5" y="-7.5" font-family="FreeSans.ttf" font-size="10.00" fill="#000000">type_traits</text>
</g>
<!-- Node9&#45;&gt;Node16 -->
<g id="edge17" class="edge">
<title>Node9&#45;&gt;Node16</title>
<path fill="none" stroke="#191970" d="M613.4307,-56.4594C573.2591,-47.7269 512.0059,-34.3232 450.1544,-20.3584"/>
<polygon fill="#191970" stroke="#191970" points="450.7514,-16.9051 440.2257,-18.1129 449.2073,-23.7327 450.7514,-16.9051"/>
</g>
<!-- Node17 -->
<g id="node18" class="node">
<title>Node17</title>
<polygon fill="none" stroke="#bfbfbf" points="458,-.5 458,-19.5 503,-19.5 503,-.5 458,-.5"/>
<text text-anchor="middle" x="480.5" y="-7.5" font-family="FreeSans.ttf" font-size="10.00" fill="#000000">utility</text>
</g>
<!-- Node9&#45;&gt;Node17 -->
<g id="edge18" class="edge">
<title>Node9&#45;&gt;Node17</title>
<path fill="none" stroke="#191970" d="M627.0726,-56.3733C595.3213,-46.3276 545.7147,-30.6329 513.1568,-20.3321"/>
<polygon fill="#191970" stroke="#191970" points="513.8193,-16.8708 503.2293,-17.1912 511.7078,-23.5447 513.8193,-16.8708"/>
</g>
<!-- Node21&#45;&gt;Node5 -->
<g id="edge42" class="edge">
<title>Node21&#45;&gt;Node5</title>
<path fill="none" stroke="#191970" d="M728.1811,-283.1733C805.5131,-274.7801 922.1945,-259.7066 935.5,-244 948.1615,-229.0536 933.7012,-208.771 919.714,-194.6508"/>
<polygon fill="#191970" stroke="#191970" points="921.8376,-191.8418 912.1673,-187.5132 917.0276,-196.9275 921.8376,-191.8418"/>
</g>
<!-- Node21&#45;&gt;Node18 -->
<g id="edge25" class="edge">
<title>Node21&#45;&gt;Node18</title>
<path fill="none" stroke="#191970" d="M634.4696,-280.4506C616.8376,-272.734 593.597,-260.4501 577.5,-244 547.8478,-213.6973 528.1667,-167.1196 518.8157,-141.1594"/>
<polygon fill="#191970" stroke="#191970" points="522.1196,-140.0039 515.5398,-131.6998 515.505,-142.2946 522.1196,-140.0039"/>
</g>
<!-- Node22 -->
<g id="node23" class="node">
<title>Node22</title>
<g id="a_node23"><a xlink:href="GeomVector3_8h.html" target="_top" xlink:title="iDynTree/Core/GeomVector3.h">
<polygon fill="none" stroke="#000000" points="587,-224.5 587,-243.5 750,-243.5 750,-224.5 587,-224.5"/>
<text text-anchor="middle" x="668.5" y="-231.5" font-family="FreeSans.ttf" font-size="10.00" fill="#000000">iDynTree/Core/GeomVector3.h</text>
</a>
</g>
</g>
<!-- Node21&#45;&gt;Node22 -->
<g id="edge26" class="edge">
<title>Node21&#45;&gt;Node22</title>
<path fill="none" stroke="#191970" d="M661.0677,-280.2455C662.2421,-272.9382 663.8884,-262.6944 665.3332,-253.7046"/>
<polygon fill="#191970" stroke="#191970" points="668.8191,-254.0714 666.9503,-243.6427 661.9078,-252.9606 668.8191,-254.0714"/>
</g>
<!-- Node23 -->
<g id="node24" class="node">
<title>Node23</title>
<g id="a_node24"><a xlink:href="RotationRaw_8h.html" target="_top" xlink:title="iDynTree/Core/RotationRaw.h">
<polygon fill="none" stroke="#000000" points="768.5,-224.5 768.5,-243.5 926.5,-243.5 926.5,-224.5 768.5,-224.5"/>
<text text-anchor="middle" x="847.5" y="-231.5" font-family="FreeSans.ttf" font-size="10.00" fill="#000000">iDynTree/Core/RotationRaw.h</text>
</a>
</g>
</g>
<!-- Node21&#45;&gt;Node23 -->
<g id="edge28" class="edge">
<title>Node21&#45;&gt;Node23</title>
<path fill="none" stroke="#191970" d="M691.8184,-280.3733C723.3506,-270.9807 771.4621,-256.6496 805.8501,-246.4064"/>
<polygon fill="#191970" stroke="#191970" points="807.0187,-249.7103 815.6034,-243.5011 805.0203,-243.0016 807.0187,-249.7103"/>
</g>
<!-- Node22&#45;&gt;Node5 -->
<g id="edge27" class="edge">
<title>Node22&#45;&gt;Node5</title>
<path fill="none" stroke="#191970" d="M708.1186,-224.4369C747.6568,-214.8932 808.5069,-200.2052 851.1582,-189.9101"/>
<polygon fill="#191970" stroke="#191970" points="852.1452,-193.2724 861.0448,-187.5237 850.5027,-186.4679 852.1452,-193.2724"/>
</g>
<!-- Node23&#45;&gt;Node18 -->
<g id="edge41" class="edge">
<title>Node23&#45;&gt;Node18</title>
<path fill="none" stroke="#191970" d="M771.4285,-224.4874C708.4577,-215.8335 624.489,-202.2661 593.5,-188 567.9625,-176.2436 543.6582,-154.5318 528.4539,-139.2277"/>
<polygon fill="#191970" stroke="#191970" points="530.8382,-136.6582 521.3742,-131.8954 525.8024,-141.5204 530.8382,-136.6582"/>
</g>
<!-- Node23&#45;&gt;Node24 -->
<g id="edge29" class="edge">
<title>Node23&#45;&gt;Node24</title>
<path fill="none" stroke="#191970" d="M887.1186,-224.4369C926.6568,-214.8932 987.5069,-200.2052 1030.1582,-189.9101"/>
<polygon fill="#191970" stroke="#191970" points="1031.1452,-193.2724 1040.0448,-187.5237 1029.5027,-186.4679 1031.1452,-193.2724"/>
</g>
<!-- Node24&#45;&gt;Node6 -->
<g id="edge30" class="edge">
<title>Node24&#45;&gt;Node6</title>
<path fill="none" stroke="#191970" d="M1109.4458,-168.4983C1126.5054,-161.3713 1146.4324,-149.7417 1156.5,-132 1164.5956,-117.7335 1160.957,-99.0144 1156.1021,-85.1567"/>
<polygon fill="#191970" stroke="#191970" points="1159.2739,-83.6607 1152.3267,-75.6615 1152.7692,-86.2471 1159.2739,-83.6607"/>
</g>
<!-- Node24&#45;&gt;Node10 -->
<g id="edge36" class="edge">
<title>Node24&#45;&gt;Node10</title>
<path fill="none" stroke="#191970" d="M1075.2206,-168.2904C1068.9297,-154.7127 1056.2124,-129.7303 1040.5,-112 1008.1087,-75.4488 961.023,-42.9822 932.4329,-24.955"/>
<polygon fill="#191970" stroke="#191970" points="934.1845,-21.9228 923.8424,-19.6225 930.4927,-27.8702 934.1845,-21.9228"/>
</g>
<!-- Node24&#45;&gt;Node18 -->
<g id="edge38" class="edge">
<title>Node24&#45;&gt;Node18</title>
<path fill="none" stroke="#191970" d="M998.976,-168.8941C996.1159,-168.5892 993.2837,-168.2903 990.5,-168 823.0029,-150.5317 622.2266,-131.9902 544.9755,-124.9451"/>
<polygon fill="#191970" stroke="#191970" points="545.1874,-121.45 534.9112,-124.0287 544.5526,-128.4212 545.1874,-121.45"/>
</g>
<!-- Node24&#45;&gt;Node19 -->
<g id="edge40" class="edge">
<title>Node24&#45;&gt;Node19</title>
<path fill="none" stroke="#191970" d="M1066.2618,-168.2455C1054.819,-159.814 1038.0704,-147.4729 1024.7525,-137.6598"/>
<polygon fill="#191970" stroke="#191970" points="1026.7133,-134.757 1016.5865,-131.6427 1022.5609,-140.3924 1026.7133,-134.757"/>
</g>
<!-- Node24&#45;&gt;Node20 -->
<g id="edge37" class="edge">
<title>Node24&#45;&gt;Node20</title>
<path fill="none" stroke="#191970" d="M1054.2298,-168.3733C1030.1034,-159.1822 993.5638,-145.2624 966.8123,-135.0713"/>
<polygon fill="#191970" stroke="#191970" points="968.0313,-131.7904 957.4404,-131.5011 965.5393,-138.3318 968.0313,-131.7904"/>
</g>
<!-- Node25 -->
<g id="node26" class="node">
<title>Node25</title>
<g id="a_node26"><a xlink:href="MatrixView_8h.html" target="_top" xlink:title="iDynTree/Core/MatrixView.h">
<polygon fill="none" stroke="#000000" points="662,-112.5 662,-131.5 813,-131.5 813,-112.5 662,-112.5"/>
<text text-anchor="middle" x="737.5" y="-119.5" font-family="FreeSans.ttf" font-size="10.00" fill="#000000">iDynTree/Core/MatrixView.h</text>
</a>
</g>
</g>
<!-- Node24&#45;&gt;Node25 -->
<g id="edge31" class="edge">
<title>Node24&#45;&gt;Node25</title>
<path fill="none" stroke="#191970" d="M1021.0967,-168.4369C961.4594,-158.6717 868.9302,-143.5207 805.9035,-133.2006"/>
<polygon fill="#191970" stroke="#191970" points="806.0966,-129.6857 795.6624,-131.5237 804.9654,-136.5937 806.0966,-129.6857"/>
</g>
<!-- Node26 -->
<g id="node27" class="node">
<title>Node26</title>
<polygon fill="none" stroke="#bfbfbf" points="1087.5,-112.5 1087.5,-131.5 1147.5,-131.5 1147.5,-112.5 1087.5,-112.5"/>
<text text-anchor="middle" x="1117.5" y="-119.5" font-family="FreeSans.ttf" font-size="10.00" fill="#000000">iostream</text>
</g>
<!-- Node24&#45;&gt;Node26 -->
<g id="edge39" class="edge">
<title>Node24&#45;&gt;Node26</title>
<path fill="none" stroke="#191970" d="M1086.1191,-168.2455C1091.4046,-160.4564 1098.9541,-149.3308 1105.3238,-139.9439"/>
<polygon fill="#191970" stroke="#191970" points="1108.2379,-141.8827 1110.9568,-131.6427 1102.4455,-137.9522 1108.2379,-141.8827"/>
</g>
<!-- Node25&#45;&gt;Node6 -->
<g id="edge35" class="edge">
<title>Node25&#45;&gt;Node6</title>
<path fill="none" stroke="#191970" d="M807.5157,-112.4369C882.8769,-102.1436 1002.0499,-85.8664 1077.4316,-75.5703"/>
<polygon fill="#191970" stroke="#191970" points="1078.3342,-78.9796 1087.7685,-74.1584 1077.3868,-72.044 1078.3342,-78.9796"/>
</g>
<!-- Node25&#45;&gt;Node9 -->
<g id="edge34" class="edge">
<title>Node25&#45;&gt;Node9</title>
<path fill="none" stroke="#191970" d="M723.5651,-112.2455C711.4053,-103.7337 693.5536,-91.2375 679.4715,-81.3801"/>
<polygon fill="#191970" stroke="#191970" points="681.4747,-78.51 671.2752,-75.6427 677.4605,-84.2447 681.4747,-78.51"/>
</g>
<!-- Node25&#45;&gt;Node10 -->
<g id="edge32" class="edge">
<title>Node25&#45;&gt;Node10</title>
<path fill="none" stroke="#191970" d="M749.7123,-112.3709C766.7395,-99.1028 798.7621,-74.7171 827.5,-56 844.7321,-44.7767 864.7962,-33.2435 880.5201,-24.5328"/>
<polygon fill="#191970" stroke="#191970" points="882.6033,-27.382 889.6854,-19.502 879.235,-21.2456 882.6033,-27.382"/>
</g>
<!-- Node25&#45;&gt;Node16 -->
<g id="edge33" class="edge">
<title>Node25&#45;&gt;Node16</title>
<path fill="none" stroke="#191970" d="M704.5759,-112.4221C674.0832,-103.4289 627.5404,-89.3902 587.5,-76 535.9289,-58.7538 476.85,-36.9454 440.3509,-23.2296"/>
<polygon fill="#191970" stroke="#191970" points="441.2719,-19.8365 430.6801,-19.5861 438.804,-26.387 441.2719,-19.8365"/>
</g>
<!-- Node27&#45;&gt;Node18 -->
<g id="edge48" class="edge">
<title>Node27&#45;&gt;Node18</title>
<path fill="none" stroke="#191970" d="M456.4955,-504.4251C419.1999,-497.2941 371.3849,-485.6859 331.5,-468 240.2397,-427.533 194.5,-389.83 194.5,-290 194.5,-290 194.5,-290 194.5,-234 194.5,-191.8832 225.0693,-187.3073 262.5,-168 300.0691,-148.6213 421.4138,-132.4856 480.1087,-125.5916"/>
<polygon fill="#191970" stroke="#191970" points="480.7729,-129.0382 490.3049,-124.4132 479.9691,-122.0845 480.7729,-129.0382"/>
</g>
<!-- Node28 -->
<g id="node29" class="node">
<title>Node28</title>
<polygon fill="none" stroke="#bfbfbf" points="511,-392.5 511,-411.5 558,-411.5 558,-392.5 511,-392.5"/>
<text text-anchor="middle" x="534.5" y="-399.5" font-family="FreeSans.ttf" font-size="10.00" fill="#000000">vector</text>
</g>
<!-- Node27&#45;&gt;Node28 -->
<g id="edge49" class="edge">
<title>Node27&#45;&gt;Node28</title>
<path fill="none" stroke="#191970" d="M519.8642,-504.4509C522.4737,-486.184 528.2207,-445.9553 531.6861,-421.6976"/>
<polygon fill="#191970" stroke="#191970" points="535.1898,-421.9194 533.1393,-411.5249 528.2602,-420.9294 535.1898,-421.9194"/>
</g>
<!-- Node29 -->
<g id="node30" class="node">
<title>Node29</title>
<g id="a_node30"><a xlink:href="ConvexHullHelpers_8h.html" target="_top" xlink:title="iDynTree/ConvexHullHelpers.h">
<polygon fill="none" stroke="#000000" points="341,-448.5 341,-467.5 506,-467.5 506,-448.5 341,-448.5"/>
<text text-anchor="middle" x="423.5" y="-455.5" font-family="FreeSans.ttf" font-size="10.00" fill="#000000">iDynTree/ConvexHullHelpers.h</text>
</a>
</g>
</g>
<!-- Node27&#45;&gt;Node29 -->
<g id="edge50" class="edge">
<title>Node27&#45;&gt;Node29</title>
<path fill="none" stroke="#191970" d="M501.9523,-504.2455C487.2401,-495.5731 465.5112,-482.7645 448.6495,-472.825"/>
<polygon fill="#191970" stroke="#191970" points="450.2502,-469.7057 439.8581,-467.6427 446.6954,-475.736 450.2502,-469.7057"/>
</g>
<!-- Node32 -->
<g id="node33" class="node">
<title>Node32</title>
<g id="a_node33"><a xlink:href="Direction_8h.html" target="_top" xlink:title="iDynTree/Core/Direction.h">
<polygon fill="none" stroke="#000000" points="1021,-224.5 1021,-243.5 1162,-243.5 1162,-224.5 1021,-224.5"/>
<text text-anchor="middle" x="1091.5" y="-231.5" font-family="FreeSans.ttf" font-size="10.00" fill="#000000">iDynTree/Core/Direction.h</text>
</a>
</g>
</g>
<!-- Node27&#45;&gt;Node32 -->
<g id="edge61" class="edge">
<title>Node27&#45;&gt;Node32</title>
<path fill="none" stroke="#191970" d="M599.6429,-505.544C750.8427,-488.6841 1060.5,-448.4812 1060.5,-402 1060.5,-402 1060.5,-402 1060.5,-346 1060.5,-312.3636 1073.6477,-275.0368 1082.8184,-253.0922"/>
<polygon fill="#191970" stroke="#191970" points="1086.1509,-254.2051 1086.9258,-243.6387 1079.7307,-251.4156 1086.1509,-254.2051"/>
</g>
<!-- Node29&#45;&gt;Node2 -->
<g id="edge57" class="edge">
<title>Node29&#45;&gt;Node2</title>
<path fill="none" stroke="#191970" d="M462.094,-448.4369C500.5284,-438.9133 559.636,-424.2672 601.171,-413.9753"/>
<polygon fill="#191970" stroke="#191970" points="602.2006,-417.3261 611.0652,-411.5237 600.5169,-410.5316 602.2006,-417.3261"/>
</g>
<!-- Node29&#45;&gt;Node3 -->
<g id="edge56" class="edge">
<title>Node29&#45;&gt;Node3</title>
<path fill="none" stroke="#191970" d="M420.3454,-448.4509C414.2562,-430.0186 400.7798,-389.2254 392.791,-365.043"/>
<polygon fill="#191970" stroke="#191970" points="396.1069,-363.9223 389.6466,-355.5249 389.4602,-366.1181 396.1069,-363.9223"/>
</g>
<!-- Node29&#45;&gt;Node18 -->
<g id="edge51" class="edge">
<title>Node29&#45;&gt;Node18</title>
<path fill="none" stroke="#191970" d="M362.804,-448.4504C306.8764,-435.7896 232.5,-407.4083 232.5,-346 232.5,-346 232.5,-346 232.5,-234 232.5,-185.1111 276.2537,-188.7939 320.5,-168 373.3544,-143.1607 440.9009,-131.009 480.1714,-125.6592"/>
<polygon fill="#191970" stroke="#191970" points="480.7601,-129.1123 490.2267,-124.3547 479.8595,-122.1704 480.7601,-129.1123"/>
</g>
<!-- Node29&#45;&gt;Node28 -->
<g id="edge52" class="edge">
<title>Node29&#45;&gt;Node28</title>
<path fill="none" stroke="#191970" d="M442.5816,-448.3733C460.2402,-439.4644 486.7053,-426.1127 506.7098,-416.0203"/>
<polygon fill="#191970" stroke="#191970" points="508.3158,-419.1303 515.6674,-411.5011 505.1628,-412.8806 508.3158,-419.1303"/>
</g>
<!-- Node30 -->
<g id="node31" class="node">
<title>Node30</title>
<g id="a_node31"><a xlink:href="MatrixDynSize_8h.html" target="_top" xlink:title="iDynTree/Core/MatrixDynSize.h">
<polygon fill="none" stroke="#000000" points="635,-168.5 635,-187.5 802,-187.5 802,-168.5 635,-168.5"/>
<text text-anchor="middle" x="718.5" y="-175.5" font-family="FreeSans.ttf" font-size="10.00" fill="#000000">iDynTree/Core/MatrixDynSize.h</text>
</a>
</g>
</g>
<!-- Node29&#45;&gt;Node30 -->
<g id="edge53" class="edge">
<title>Node29&#45;&gt;Node30</title>
<path fill="none" stroke="#191970" d="M432.7188,-448.4119C449.3125,-430.0983 482.5,-388.1966 482.5,-346 482.5,-346 482.5,-346 482.5,-290 482.5,-248.665 602.1561,-209.4093 671.0656,-190.2294"/>
<polygon fill="#191970" stroke="#191970" points="672.1261,-193.5679 680.8441,-187.5474 670.2745,-186.8172 672.1261,-193.5679"/>
</g>
<!-- Node31 -->
<g id="node32" class="node">
<title>Node31</title>
<g id="a_node32"><a xlink:href="VectorDynSize_8h.html" target="_top" xlink:title="iDynTree/Core/VectorDynSize.h">
<polygon fill="none" stroke="#000000" points="0,-168.5 0,-187.5 167,-187.5 167,-168.5 0,-168.5"/>
<text text-anchor="middle" x="83.5" y="-175.5" font-family="FreeSans.ttf" font-size="10.00" fill="#000000">iDynTree/Core/VectorDynSize.h</text>
</a>
</g>
</g>
<!-- Node29&#45;&gt;Node31 -->
<g id="edge58" class="edge">
<title>Node29&#45;&gt;Node31</title>
<path fill="none" stroke="#191970" d="M353.838,-448.4749C303.176,-440.4318 239.8769,-427.7217 218.5,-412 142.4071,-356.0372 102.4879,-243.3051 88.9202,-197.7592"/>
<polygon fill="#191970" stroke="#191970" points="92.2221,-196.5769 86.096,-187.9328 85.4945,-198.5105 92.2221,-196.5769"/>
</g>
<!-- Node30&#45;&gt;Node18 -->
<g id="edge54" class="edge">
<title>Node30&#45;&gt;Node18</title>
<path fill="none" stroke="#191970" d="M683.0873,-168.3733C644.1818,-157.797 582.2422,-140.959 544.6746,-130.7465"/>
<polygon fill="#191970" stroke="#191970" points="545.3323,-127.2983 534.7643,-128.0524 543.496,-134.0532 545.3323,-127.2983"/>
</g>
<!-- Node30&#45;&gt;Node25 -->
<g id="edge55" class="edge">
<title>Node30&#45;&gt;Node25</title>
<path fill="none" stroke="#191970" d="M721.8095,-168.2455C724.3433,-160.7776 727.9177,-150.2427 731.015,-141.1137"/>
<polygon fill="#191970" stroke="#191970" points="734.3298,-142.237 734.2284,-131.6427 727.7009,-139.9879 734.3298,-142.237"/>
</g>
<!-- Node31&#45;&gt;Node9 -->
<g id="edge59" class="edge">
<title>Node31&#45;&gt;Node9</title>
<path fill="none" stroke="#191970" d="M132.4389,-168.4509C237.7066,-147.9109 485.2815,-99.6036 598.7822,-77.4571"/>
<polygon fill="#191970" stroke="#191970" points="599.5404,-80.8753 608.685,-75.5249 598.1997,-74.0049 599.5404,-80.8753"/>
</g>
<!-- Node31&#45;&gt;Node18 -->
<g id="edge60" class="edge">
<title>Node31&#45;&gt;Node18</title>
<path fill="none" stroke="#191970" d="M156.7603,-168.4369C251.2584,-156.1015 411.5931,-135.172 480.0042,-126.2419"/>
<polygon fill="#191970" stroke="#191970" points="480.7075,-129.6799 490.1703,-124.9148 479.8014,-122.7387 480.7075,-129.6799"/>
</g>
<!-- Node32&#45;&gt;Node5 -->
<g id="edge63" class="edge">
<title>Node32&#45;&gt;Node5</title>
<path fill="none" stroke="#191970" d="M1058.6659,-224.3733C1026.6305,-214.9807 977.7513,-200.6496 942.8145,-190.4064"/>
<polygon fill="#191970" stroke="#191970" points="943.4864,-186.9561 932.9056,-187.5011 941.5169,-193.6733 943.4864,-186.9561"/>
</g>
<!-- Node32&#45;&gt;Node6 -->
<g id="edge64" class="edge">
<title>Node32&#45;&gt;Node6</title>
<path fill="none" stroke="#191970" d="M1121.4833,-224.3993C1138.6361,-217.236 1158.8104,-205.6032 1169.5,-188 1187.0459,-159.1061 1180.8276,-144.7623 1172.5,-112 1170.0215,-102.2493 1165.0127,-92.3309 1160.1249,-84.2128"/>
<polygon fill="#191970" stroke="#191970" points="1162.9556,-82.1437 1154.6015,-75.6276 1157.0687,-85.9312 1162.9556,-82.1437"/>
</g>
<!-- Node32&#45;&gt;Node18 -->
<g id="edge62" class="edge">
<title>Node32&#45;&gt;Node18</title>
<path fill="none" stroke="#191970" d="M1020.5876,-228.6753C899.653,-219.3433 662.991,-199.8972 626.5,-188 609.8319,-182.5657 607.6549,-176.8141 592.5,-168 574.4938,-157.5276 554.1425,-145.8275 538.4726,-136.8479"/>
<polygon fill="#191970" stroke="#191970" points="539.8009,-133.5754 529.3836,-131.6437 536.3226,-139.6501 539.8009,-133.5754"/>
</g>
</g>
</svg>
