<?xml version="1.0" encoding="UTF-8" standalone="no"?>
<!DOCTYPE svg PUBLIC "-//W3C//DTD SVG 1.1//EN"
 "http://www.w3.org/Graphics/SVG/1.1/DTD/svg11.dtd">
<!-- Generated by graphviz version 2.40.1 (20161225.0304)
 -->
<!-- Title: TransformConstraint.h Pages: 1 -->
<svg width="477pt" height="84pt"
 viewBox="0.00 0.00 476.50 84.00" xmlns="http://www.w3.org/2000/svg" xmlns:xlink="http://www.w3.org/1999/xlink">
<g id="graph0" class="graph" transform="scale(1 1) rotate(0) translate(4 80)">
<title>TransformConstraint.h</title>
<!-- Node32 -->
<g id="node1" class="node">
<title>Node32</title>
<polygon fill="#bfbfbf" stroke="#000000" points="179,-56.5 179,-75.5 304,-75.5 304,-56.5 179,-56.5"/>
<text text-anchor="middle" x="241.5" y="-63.5" font-family="FreeSans.ttf" font-size="10.00" fill="#000000">TransformConstraint.h</text>
</g>
<!-- Node33 -->
<g id="node2" class="node">
<title>Node33</title>
<g id="a_node2"><a xlink:href="InverseKinematicsData_8cpp.html" target="_top" xlink:title="InverseKinematicsData.cpp">
<polygon fill="none" stroke="#000000" points="0,-.5 0,-19.5 151,-19.5 151,-.5 0,-.5"/>
<text text-anchor="middle" x="75.5" y="-7.5" font-family="FreeSans.ttf" font-size="10.00" fill="#000000">InverseKinematicsData.cpp</text>
</a>
</g>
</g>
<!-- Node32&#45;&gt;Node33 -->
<g id="edge1" class="edge">
<title>Node32&#45;&gt;Node33</title>
<path fill="none" stroke="#191970" d="M203.1333,-53.057C172.7534,-42.8084 131.0181,-28.729 103.664,-19.5011"/>
<polygon fill="#191970" stroke="#191970" points="202.3694,-56.4931 212.9636,-56.3733 204.607,-49.8603 202.3694,-56.4931"/>
</g>
<!-- Node34 -->
<g id="node3" class="node">
<title>Node34</title>
<g id="a_node3"><a xlink:href="InverseKinematicsNLP_8cpp.html" target="_top" xlink:title="InverseKinematicsNLP.cpp">
<polygon fill="none" stroke="#000000" points="169,-.5 169,-19.5 314,-19.5 314,-.5 169,-.5"/>
<text text-anchor="middle" x="241.5" y="-7.5" font-family="FreeSans.ttf" font-size="10.00" fill="#000000">InverseKinematicsNLP.cpp</text>
</a>
</g>
</g>
<!-- Node32&#45;&gt;Node34 -->
<g id="edge2" class="edge">
<title>Node32&#45;&gt;Node34</title>
<path fill="none" stroke="#191970" d="M241.5,-46.1575C241.5,-37.155 241.5,-26.9199 241.5,-19.6427"/>
<polygon fill="#191970" stroke="#191970" points="238.0001,-46.2455 241.5,-56.2455 245.0001,-46.2456 238.0001,-46.2455"/>
</g>
<!-- Node35 -->
<g id="node4" class="node">
<title>Node35</title>
<g id="a_node4"><a xlink:href="TransformConstraint_8cpp.html" target="_top" xlink:title="TransformConstraint.cpp">
<polygon fill="none" stroke="#000000" points="332.5,-.5 332.5,-19.5 468.5,-19.5 468.5,-.5 332.5,-.5"/>
<text text-anchor="middle" x="400.5" y="-7.5" font-family="FreeSans.ttf" font-size="10.00" fill="#000000">TransformConstraint.cpp</text>
</a>
</g>
</g>
<!-- Node32&#45;&gt;Node35 -->
<g id="edge3" class="edge">
<title>Node32&#45;&gt;Node35</title>
<path fill="none" stroke="#191970" d="M278.629,-52.9231C307.695,-42.686 347.4369,-28.6889 373.5236,-19.5011"/>
<polygon fill="#191970" stroke="#191970" points="277.1025,-49.75 268.8331,-56.3733 279.4279,-56.3524 277.1025,-49.75"/>
</g>
</g>
</svg>
