<?xml version="1.0" encoding="UTF-8" standalone="no"?>
<!DOCTYPE svg PUBLIC "-//W3C//DTD SVG 1.1//EN"
 "http://www.w3.org/Graphics/SVG/1.1/DTD/svg11.dtd">
<!-- Generated by graphviz version 2.40.1 (20161225.0304)
 -->
<!-- Title: TransformConstraint.h Pages: 1 -->
<svg width="1169pt" height="588pt"
 viewBox="0.00 0.00 1168.91 588.00" xmlns="http://www.w3.org/2000/svg" xmlns:xlink="http://www.w3.org/1999/xlink">
<g id="graph0" class="graph" transform="scale(1 1) rotate(0) translate(4 584)">
<title>TransformConstraint.h</title>
<!-- Node0 -->
<g id="node1" class="node">
<title>Node0</title>
<polygon fill="#bfbfbf" stroke="#000000" points="363.9054,-560.5 363.9054,-579.5 488.9054,-579.5 488.9054,-560.5 363.9054,-560.5"/>
<text text-anchor="middle" x="426.4054" y="-567.5" font-family="FreeSans.ttf" font-size="10.00" fill="#000000">TransformConstraint.h</text>
</g>
<!-- Node1 -->
<g id="node2" class="node">
<title>Node1</title>
<g id="a_node2"><a xlink:href="Transform_8h.html" target="_top" xlink:title="iDynTree/Core/Transform.h">
<polygon fill="none" stroke="#000000" points="545.4054,-392.5 545.4054,-411.5 691.4054,-411.5 691.4054,-392.5 545.4054,-392.5"/>
<text text-anchor="middle" x="618.4054" y="-399.5" font-family="FreeSans.ttf" font-size="10.00" fill="#000000">iDynTree/Core/Transform.h</text>
</a>
</g>
</g>
<!-- Node0&#45;&gt;Node1 -->
<g id="edge1" class="edge">
<title>Node0&#45;&gt;Node1</title>
<path fill="none" stroke="#191970" d="M437.2783,-560.4862C468.6801,-533.0096 559.7922,-453.2866 599.5167,-418.5276"/>
<polygon fill="#191970" stroke="#191970" points="601.9526,-421.047 607.1736,-411.8279 597.343,-415.7789 601.9526,-421.047"/>
</g>
<!-- Node26 -->
<g id="node27" class="node">
<title>Node26</title>
<g id="a_node27"><a xlink:href="InverseKinematics_8h.html" target="_top" xlink:title="iDynTree/InverseKinematics.h">
<polygon fill="none" stroke="#000000" points="724.4054,-504.5 724.4054,-523.5 886.4054,-523.5 886.4054,-504.5 724.4054,-504.5"/>
<text text-anchor="middle" x="805.4054" y="-511.5" font-family="FreeSans.ttf" font-size="10.00" fill="#000000">iDynTree/InverseKinematics.h</text>
</a>
</g>
</g>
<!-- Node0&#45;&gt;Node26 -->
<g id="edge46" class="edge">
<title>Node0&#45;&gt;Node26</title>
<path fill="none" stroke="#191970" d="M488.9896,-560.7527C555.3193,-550.952 660.0431,-535.4783 730.6617,-525.0439"/>
<polygon fill="#191970" stroke="#191970" points="731.4438,-528.4665 740.8247,-523.5423 730.4205,-521.5416 731.4438,-528.4665"/>
</g>
<!-- Node2 -->
<g id="node3" class="node">
<title>Node2</title>
<g id="a_node3"><a xlink:href="Position_8h.html" target="_top" xlink:title="iDynTree/Core/Position.h">
<polygon fill="none" stroke="#000000" points="716.4054,-336.5 716.4054,-355.5 852.4054,-355.5 852.4054,-336.5 716.4054,-336.5"/>
<text text-anchor="middle" x="784.4054" y="-343.5" font-family="FreeSans.ttf" font-size="10.00" fill="#000000">iDynTree/Core/Position.h</text>
</a>
</g>
</g>
<!-- Node1&#45;&gt;Node2 -->
<g id="edge2" class="edge">
<title>Node1&#45;&gt;Node2</title>
<path fill="none" stroke="#191970" d="M646.9418,-392.3733C674.4256,-383.1016 716.174,-369.0178 746.4506,-358.804"/>
<polygon fill="#191970" stroke="#191970" points="747.8848,-362.0141 756.2414,-355.5011 745.6472,-355.3813 747.8848,-362.0141"/>
</g>
<!-- Node17 -->
<g id="node18" class="node">
<title>Node17</title>
<polygon fill="none" stroke="#bfbfbf" points="626.4054,-112.5 626.4054,-131.5 670.4054,-131.5 670.4054,-112.5 626.4054,-112.5"/>
<text text-anchor="middle" x="648.4054" y="-119.5" font-family="FreeSans.ttf" font-size="10.00" fill="#000000">string</text>
</g>
<!-- Node1&#45;&gt;Node17 -->
<g id="edge45" class="edge">
<title>Node1&#45;&gt;Node17</title>
<path fill="none" stroke="#191970" d="M627.7804,-392.4412C644.6554,-374.1765 678.4054,-332.353 678.4054,-290 678.4054,-290 678.4054,-290 678.4054,-234 678.4054,-200.4397 665.6818,-163.0899 656.807,-141.12"/>
<polygon fill="#191970" stroke="#191970" points="659.9309,-139.5191 652.832,-131.6542 653.4768,-142.2294 659.9309,-139.5191"/>
</g>
<!-- Node20 -->
<g id="node21" class="node">
<title>Node20</title>
<g id="a_node21"><a xlink:href="Rotation_8h.html" target="_top" xlink:title="iDynTree/Core/Rotation.h">
<polygon fill="none" stroke="#000000" points="488.9054,-280.5 488.9054,-299.5 625.9054,-299.5 625.9054,-280.5 488.9054,-280.5"/>
<text text-anchor="middle" x="557.4054" y="-287.5" font-family="FreeSans.ttf" font-size="10.00" fill="#000000">iDynTree/Core/Rotation.h</text>
</a>
</g>
</g>
<!-- Node1&#45;&gt;Node20 -->
<g id="edge43" class="edge">
<title>Node1&#45;&gt;Node20</title>
<path fill="none" stroke="#191970" d="M613.2046,-392.4509C603.0756,-373.8533 580.5483,-332.4919 567.4249,-308.3964"/>
<polygon fill="#191970" stroke="#191970" points="570.4499,-306.6328 562.5931,-299.5249 564.3025,-309.9809 570.4499,-306.6328"/>
</g>
<!-- Node23 -->
<g id="node24" class="node">
<title>Node23</title>
<g id="a_node24"><a xlink:href="MatrixFixSize_8h.html" target="_top" xlink:title="iDynTree/Core/MatrixFixSize.h">
<polygon fill="none" stroke="#000000" points="11.9054,-168.5 11.9054,-187.5 172.9054,-187.5 172.9054,-168.5 11.9054,-168.5"/>
<text text-anchor="middle" x="92.4054" y="-175.5" font-family="FreeSans.ttf" font-size="10.00" fill="#000000">iDynTree/Core/MatrixFixSize.h</text>
</a>
</g>
</g>
<!-- Node1&#45;&gt;Node23 -->
<g id="edge44" class="edge">
<title>Node1&#45;&gt;Node23</title>
<path fill="none" stroke="#191970" d="M545.3007,-393.4596C401.5585,-375.004 90.5886,-326.2938 27.4054,-244 12.5341,-224.6306 38.1723,-205.019 61.4963,-192.2669"/>
<polygon fill="#191970" stroke="#191970" points="63.2945,-195.2771 70.5621,-187.5678 60.0732,-189.0623 63.2945,-195.2771"/>
</g>
<!-- Node3 -->
<g id="node4" class="node">
<title>Node3</title>
<g id="a_node4"><a xlink:href="PositionRaw_8h.html" target="_top" xlink:title="iDynTree/Core/PositionRaw.h">
<polygon fill="none" stroke="#000000" points="706.4054,-224.5 706.4054,-243.5 862.4054,-243.5 862.4054,-224.5 706.4054,-224.5"/>
<text text-anchor="middle" x="784.4054" y="-231.5" font-family="FreeSans.ttf" font-size="10.00" fill="#000000">iDynTree/Core/PositionRaw.h</text>
</a>
</g>
</g>
<!-- Node2&#45;&gt;Node3 -->
<g id="edge3" class="edge">
<title>Node2&#45;&gt;Node3</title>
<path fill="none" stroke="#191970" d="M784.4054,-336.4509C784.4054,-318.184 784.4054,-277.9553 784.4054,-253.6976"/>
<polygon fill="#191970" stroke="#191970" points="787.9055,-253.5249 784.4054,-243.5249 780.9055,-253.5249 787.9055,-253.5249"/>
</g>
<!-- Node2&#45;&gt;Node17 -->
<g id="edge42" class="edge">
<title>Node2&#45;&gt;Node17</title>
<path fill="none" stroke="#191970" d="M800.5517,-336.4178C832.6512,-316.1219 899.0997,-267.1211 871.4054,-224 828.8783,-157.7835 731.4959,-134.0115 680.651,-125.9126"/>
<polygon fill="#191970" stroke="#191970" points="680.9496,-122.4187 670.5441,-124.4126 679.922,-129.3428 680.9496,-122.4187"/>
</g>
<!-- Node2&#45;&gt;Node20 -->
<g id="edge23" class="edge">
<title>Node2&#45;&gt;Node20</title>
<path fill="none" stroke="#191970" d="M745.6407,-336.4369C707.0362,-326.9133 647.667,-312.2672 605.9482,-301.9753"/>
<polygon fill="#191970" stroke="#191970" points="606.5576,-298.5208 596.0103,-299.5237 604.8809,-305.317 606.5576,-298.5208"/>
</g>
<!-- Node4 -->
<g id="node5" class="node">
<title>Node4</title>
<g id="a_node5"><a xlink:href="VectorFixSize_8h.html" target="_top" xlink:title="iDynTree/Core/VectorFixSize.h">
<polygon fill="none" stroke="#000000" points="190.9054,-168.5 190.9054,-187.5 351.9054,-187.5 351.9054,-168.5 190.9054,-168.5"/>
<text text-anchor="middle" x="271.4054" y="-175.5" font-family="FreeSans.ttf" font-size="10.00" fill="#000000">iDynTree/Core/VectorFixSize.h</text>
</a>
</g>
</g>
<!-- Node3&#45;&gt;Node4 -->
<g id="edge4" class="edge">
<title>Node3&#45;&gt;Node4</title>
<path fill="none" stroke="#191970" d="M706.2127,-225.4643C613.7008,-215.3656 459.941,-198.5809 362.2356,-187.9152"/>
<polygon fill="#191970" stroke="#191970" points="362.3991,-184.4123 352.0783,-186.8064 361.6394,-191.371 362.3991,-184.4123"/>
</g>
<!-- Node3&#45;&gt;Node17 -->
<g id="edge22" class="edge">
<title>Node3&#45;&gt;Node17</title>
<path fill="none" stroke="#191970" d="M772.8101,-224.4509C749.4244,-205.1921 696.3962,-161.5218 667.7047,-137.8935"/>
<polygon fill="#191970" stroke="#191970" points="669.9157,-135.1802 659.9714,-131.5249 665.4657,-140.5838 669.9157,-135.1802"/>
</g>
<!-- Node5 -->
<g id="node6" class="node">
<title>Node5</title>
<g id="a_node6"><a xlink:href="Utils_8h.html" target="_top" xlink:title="iDynTree/Core/Utils.h">
<polygon fill="none" stroke="#000000" points="173.9054,-56.5 173.9054,-75.5 292.9054,-75.5 292.9054,-56.5 173.9054,-56.5"/>
<text text-anchor="middle" x="233.4054" y="-63.5" font-family="FreeSans.ttf" font-size="10.00" fill="#000000">iDynTree/Core/Utils.h</text>
</a>
</g>
</g>
<!-- Node4&#45;&gt;Node5 -->
<g id="edge5" class="edge">
<title>Node4&#45;&gt;Node5</title>
<path fill="none" stroke="#191970" d="M277.1333,-168.199C284.0806,-154.9428 293.8731,-130.7961 285.4054,-112 279.8358,-99.6369 269.1191,-89.2563 258.8548,-81.5033"/>
<polygon fill="#191970" stroke="#191970" points="260.6604,-78.4948 250.4621,-75.623 256.6436,-84.2277 260.6604,-78.4948"/>
</g>
<!-- Node8 -->
<g id="node9" class="node">
<title>Node8</title>
<g id="a_node9"><a xlink:href="Span_8h.html" target="_top" xlink:title="iDynTree/Core/Span.h">
<polygon fill="none" stroke="#000000" points="526.9054,-56.5 526.9054,-75.5 647.9054,-75.5 647.9054,-56.5 526.9054,-56.5"/>
<text text-anchor="middle" x="587.4054" y="-63.5" font-family="FreeSans.ttf" font-size="10.00" fill="#000000">iDynTree/Core/Span.h</text>
</a>
</g>
</g>
<!-- Node4&#45;&gt;Node8 -->
<g id="edge8" class="edge">
<title>Node4&#45;&gt;Node8</title>
<path fill="none" stroke="#191970" d="M339.0982,-168.4532C410.4827,-158.0012 514.9073,-141.4714 531.4054,-132 551.0475,-120.7238 566.972,-99.8482 576.748,-84.585"/>
<polygon fill="#191970" stroke="#191970" points="579.7999,-86.3027 582.0186,-75.9428 573.8236,-82.658 579.7999,-86.3027"/>
</g>
<!-- Node9 -->
<g id="node10" class="node">
<title>Node9</title>
<polygon fill="none" stroke="#bfbfbf" points="270.4054,-.5 270.4054,-19.5 322.4054,-19.5 322.4054,-.5 270.4054,-.5"/>
<text text-anchor="middle" x="296.4054" y="-7.5" font-family="FreeSans.ttf" font-size="10.00" fill="#000000">cassert</text>
</g>
<!-- Node4&#45;&gt;Node9 -->
<g id="edge20" class="edge">
<title>Node4&#45;&gt;Node9</title>
<path fill="none" stroke="#191970" d="M279.7816,-168.1824C286.7463,-159.3584 296.1771,-145.7127 300.4054,-132 311.1272,-97.2283 305.6671,-54.2176 300.9086,-29.6623"/>
<polygon fill="#191970" stroke="#191970" points="304.3127,-28.842 298.8323,-19.7747 297.4622,-30.2806 304.3127,-28.842"/>
</g>
<!-- Node4&#45;&gt;Node17 -->
<g id="edge18" class="edge">
<title>Node4&#45;&gt;Node17</title>
<path fill="none" stroke="#191970" d="M342.9086,-168.4704C408.0312,-159.6208 506.8066,-145.7718 592.4054,-132 600.2021,-130.7456 608.5917,-129.2992 616.4431,-127.9031"/>
<polygon fill="#191970" stroke="#191970" points="617.1381,-131.3344 626.3594,-126.1172 615.8973,-124.4452 617.1381,-131.3344"/>
</g>
<!-- Node18 -->
<g id="node19" class="node">
<title>Node18</title>
<polygon fill="none" stroke="#bfbfbf" points="220.4054,-112.5 220.4054,-131.5 276.4054,-131.5 276.4054,-112.5 220.4054,-112.5"/>
<text text-anchor="middle" x="248.4054" y="-119.5" font-family="FreeSans.ttf" font-size="10.00" fill="#000000">sstream</text>
</g>
<!-- Node4&#45;&gt;Node18 -->
<g id="edge19" class="edge">
<title>Node4&#45;&gt;Node18</title>
<path fill="none" stroke="#191970" d="M267.3991,-168.2455C264.332,-160.7776 260.0051,-150.2427 256.2557,-141.1137"/>
<polygon fill="#191970" stroke="#191970" points="259.4026,-139.5631 252.3658,-131.6427 252.9275,-142.2226 259.4026,-139.5631"/>
</g>
<!-- Node19 -->
<g id="node20" class="node">
<title>Node19</title>
<polygon fill="none" stroke="#bfbfbf" points="152.4054,-112.5 152.4054,-131.5 202.4054,-131.5 202.4054,-112.5 152.4054,-112.5"/>
<text text-anchor="middle" x="177.4054" y="-119.5" font-family="FreeSans.ttf" font-size="10.00" fill="#000000">cstring</text>
</g>
<!-- Node4&#45;&gt;Node19 -->
<g id="edge21" class="edge">
<title>Node4&#45;&gt;Node19</title>
<path fill="none" stroke="#191970" d="M255.0319,-168.2455C240.4746,-159.5731 218.9744,-146.7645 202.2902,-136.825"/>
<polygon fill="#191970" stroke="#191970" points="203.9737,-133.7539 193.5913,-131.6427 200.391,-139.7676 203.9737,-133.7539"/>
</g>
<!-- Node6 -->
<g id="node7" class="node">
<title>Node6</title>
<polygon fill="none" stroke="#bfbfbf" points="340.9054,-.5 340.9054,-19.5 393.9054,-19.5 393.9054,-.5 340.9054,-.5"/>
<text text-anchor="middle" x="367.4054" y="-7.5" font-family="FreeSans.ttf" font-size="10.00" fill="#000000">cstddef</text>
</g>
<!-- Node5&#45;&gt;Node6 -->
<g id="edge6" class="edge">
<title>Node5&#45;&gt;Node6</title>
<path fill="none" stroke="#191970" d="M256.4409,-56.3733C278.1443,-47.3032 310.8673,-33.6279 335.1604,-23.4755"/>
<polygon fill="#191970" stroke="#191970" points="336.7935,-26.5865 344.6706,-19.5011 334.0943,-20.1278 336.7935,-26.5865"/>
</g>
<!-- Node7 -->
<g id="node8" class="node">
<title>Node7</title>
<polygon fill="none" stroke="#bfbfbf" points="172.4054,-.5 172.4054,-19.5 252.4054,-19.5 252.4054,-.5 172.4054,-.5"/>
<text text-anchor="middle" x="212.4054" y="-7.5" font-family="FreeSans.ttf" font-size="10.00" fill="#000000">CoreExport.h</text>
</g>
<!-- Node5&#45;&gt;Node7 -->
<g id="edge7" class="edge">
<title>Node5&#45;&gt;Node7</title>
<path fill="none" stroke="#191970" d="M229.7475,-56.2455C226.947,-48.7776 222.9964,-38.2427 219.5731,-29.1137"/>
<polygon fill="#191970" stroke="#191970" points="222.8099,-27.777 216.0214,-19.6427 216.2556,-30.2349 222.8099,-27.777"/>
</g>
<!-- Node8&#45;&gt;Node6 -->
<g id="edge12" class="edge">
<title>Node8&#45;&gt;Node6</title>
<path fill="none" stroke="#191970" d="M547.8473,-56.4252C512.6477,-47.835 459.5175,-34.6982 404.1203,-20.1409"/>
<polygon fill="#191970" stroke="#191970" points="404.6828,-16.6696 394.1208,-17.504 402.8979,-23.4382 404.6828,-16.6696"/>
</g>
<!-- Node8&#45;&gt;Node9 -->
<g id="edge9" class="edge">
<title>Node8&#45;&gt;Node9</title>
<path fill="none" stroke="#191970" d="M526.8049,-56.6883C474.9365,-48.3323 398.4063,-35.0858 332.4054,-20 332.3066,-19.9774 332.2077,-19.9547 332.1086,-19.932"/>
<polygon fill="#191970" stroke="#191970" points="333.2278,-16.6034 322.68,-17.6007 331.5476,-23.3987 333.2278,-16.6034"/>
</g>
<!-- Node10 -->
<g id="node11" class="node">
<title>Node10</title>
<polygon fill="none" stroke="#bfbfbf" points="645.4054,-.5 645.4054,-19.5 709.4054,-19.5 709.4054,-.5 645.4054,-.5"/>
<text text-anchor="middle" x="677.4054" y="-7.5" font-family="FreeSans.ttf" font-size="10.00" fill="#000000">algorithm</text>
</g>
<!-- Node8&#45;&gt;Node10 -->
<g id="edge10" class="edge">
<title>Node8&#45;&gt;Node10</title>
<path fill="none" stroke="#191970" d="M603.0822,-56.2455C616.891,-47.6534 637.2247,-35.0014 653.1347,-25.1018"/>
<polygon fill="#191970" stroke="#191970" points="655.2668,-27.8974 661.9083,-19.6427 651.5686,-21.954 655.2668,-27.8974"/>
</g>
<!-- Node11 -->
<g id="node12" class="node">
<title>Node11</title>
<polygon fill="none" stroke="#bfbfbf" points="727.4054,-.5 727.4054,-19.5 769.4054,-19.5 769.4054,-.5 727.4054,-.5"/>
<text text-anchor="middle" x="748.4054" y="-7.5" font-family="FreeSans.ttf" font-size="10.00" fill="#000000">array</text>
</g>
<!-- Node8&#45;&gt;Node11 -->
<g id="edge11" class="edge">
<title>Node8&#45;&gt;Node11</title>
<path fill="none" stroke="#191970" d="M615.0823,-56.3733C643.5526,-46.4706 687.8052,-31.0784 717.4273,-20.775"/>
<polygon fill="#191970" stroke="#191970" points="718.9499,-23.9512 727.245,-17.3601 716.6502,-17.3397 718.9499,-23.9512"/>
</g>
<!-- Node12 -->
<g id="node13" class="node">
<title>Node12</title>
<polygon fill="none" stroke="#bfbfbf" points="787.9054,-.5 787.9054,-19.5 840.9054,-19.5 840.9054,-.5 787.9054,-.5"/>
<text text-anchor="middle" x="814.4054" y="-7.5" font-family="FreeSans.ttf" font-size="10.00" fill="#000000">iterator</text>
</g>
<!-- Node8&#45;&gt;Node12 -->
<g id="edge13" class="edge">
<title>Node8&#45;&gt;Node12</title>
<path fill="none" stroke="#191970" d="M628.865,-56.4514C665.5037,-47.9155 720.6251,-34.8372 777.7632,-20.103"/>
<polygon fill="#191970" stroke="#191970" points="778.894,-23.4257 787.6968,-17.5298 777.1386,-16.6494 778.894,-23.4257"/>
</g>
<!-- Node13 -->
<g id="node14" class="node">
<title>Node13</title>
<polygon fill="none" stroke="#bfbfbf" points="859.4054,-.5 859.4054,-19.5 903.4054,-19.5 903.4054,-.5 859.4054,-.5"/>
<text text-anchor="middle" x="881.4054" y="-7.5" font-family="FreeSans.ttf" font-size="10.00" fill="#000000">limits</text>
</g>
<!-- Node8&#45;&gt;Node13 -->
<g id="edge14" class="edge">
<title>Node8&#45;&gt;Node13</title>
<path fill="none" stroke="#191970" d="M647.9635,-57.8498C699.2881,-50.3894 774.9446,-38.0948 849.1737,-20.0495"/>
<polygon fill="#191970" stroke="#191970" points="850.2912,-23.3788 859.1609,-17.5841 848.6135,-16.5828 850.2912,-23.3788"/>
</g>
<!-- Node14 -->
<g id="node15" class="node">
<title>Node14</title>
<polygon fill="none" stroke="#bfbfbf" points="498.9054,-.5 498.9054,-19.5 563.9054,-19.5 563.9054,-.5 498.9054,-.5"/>
<text text-anchor="middle" x="531.4054" y="-7.5" font-family="FreeSans.ttf" font-size="10.00" fill="#000000">stdexcept</text>
</g>
<!-- Node8&#45;&gt;Node14 -->
<g id="edge15" class="edge">
<title>Node8&#45;&gt;Node14</title>
<path fill="none" stroke="#191970" d="M577.651,-56.2455C569.5407,-48.1352 557.8129,-36.4075 548.1973,-26.7919"/>
<polygon fill="#191970" stroke="#191970" points="550.5941,-24.2389 541.0481,-19.6427 545.6443,-29.1887 550.5941,-24.2389"/>
</g>
<!-- Node15 -->
<g id="node16" class="node">
<title>Node15</title>
<polygon fill="none" stroke="#bfbfbf" points="411.9054,-.5 411.9054,-19.5 480.9054,-19.5 480.9054,-.5 411.9054,-.5"/>
<text text-anchor="middle" x="446.4054" y="-7.5" font-family="FreeSans.ttf" font-size="10.00" fill="#000000">type_traits</text>
</g>
<!-- Node8&#45;&gt;Node15 -->
<g id="edge16" class="edge">
<title>Node8&#45;&gt;Node15</title>
<path fill="none" stroke="#191970" d="M563.1667,-56.3733C540.1265,-47.2226 505.284,-33.3844 479.6554,-23.2057"/>
<polygon fill="#191970" stroke="#191970" points="480.9137,-19.9395 470.3279,-19.5011 478.3298,-26.4452 480.9137,-19.9395"/>
</g>
<!-- Node16 -->
<g id="node17" class="node">
<title>Node16</title>
<polygon fill="none" stroke="#bfbfbf" points="581.9054,-.5 581.9054,-19.5 626.9054,-19.5 626.9054,-.5 581.9054,-.5"/>
<text text-anchor="middle" x="604.4054" y="-7.5" font-family="FreeSans.ttf" font-size="10.00" fill="#000000">utility</text>
</g>
<!-- Node8&#45;&gt;Node16 -->
<g id="edge17" class="edge">
<title>Node8&#45;&gt;Node16</title>
<path fill="none" stroke="#191970" d="M590.3666,-56.2455C592.6093,-48.8579 595.7631,-38.4689 598.5135,-29.4087"/>
<polygon fill="#191970" stroke="#191970" points="601.9224,-30.2282 601.4782,-19.6427 595.2242,-28.1948 601.9224,-30.2282"/>
</g>
<!-- Node20&#45;&gt;Node4 -->
<g id="edge41" class="edge">
<title>Node20&#45;&gt;Node4</title>
<path fill="none" stroke="#191970" d="M488.5984,-283.9137C406.3438,-275.9289 277.8907,-260.9279 263.4054,-244 252.5359,-231.2976 256.5273,-211.8409 262.0426,-197.3393"/>
<polygon fill="#191970" stroke="#191970" points="265.3998,-198.3923 266.1373,-187.8231 258.9698,-195.6255 265.3998,-198.3923"/>
</g>
<!-- Node20&#45;&gt;Node17 -->
<g id="edge24" class="edge">
<title>Node20&#45;&gt;Node17</title>
<path fill="none" stroke="#191970" d="M577.8155,-280.4102C592.1913,-272.6027 610.7133,-260.224 621.4054,-244 642.1091,-212.5848 647.1525,-167.7394 648.2522,-142.0809"/>
<polygon fill="#191970" stroke="#191970" points="651.7594,-141.8472 648.522,-131.7591 644.7618,-141.6642 651.7594,-141.8472"/>
</g>
<!-- Node21 -->
<g id="node22" class="node">
<title>Node21</title>
<g id="a_node22"><a xlink:href="GeomVector3_8h.html" target="_top" xlink:title="iDynTree/Core/GeomVector3.h">
<polygon fill="none" stroke="#000000" points="272.9054,-224.5 272.9054,-243.5 435.9054,-243.5 435.9054,-224.5 272.9054,-224.5"/>
<text text-anchor="middle" x="354.4054" y="-231.5" font-family="FreeSans.ttf" font-size="10.00" fill="#000000">iDynTree/Core/GeomVector3.h</text>
</a>
</g>
</g>
<!-- Node20&#45;&gt;Node21 -->
<g id="edge25" class="edge">
<title>Node20&#45;&gt;Node21</title>
<path fill="none" stroke="#191970" d="M522.5085,-280.3733C488.3143,-270.9404 436.064,-256.5265 398.9012,-246.2747"/>
<polygon fill="#191970" stroke="#191970" points="399.4177,-242.7865 388.847,-243.5011 397.5562,-249.5345 399.4177,-242.7865"/>
</g>
<!-- Node22 -->
<g id="node23" class="node">
<title>Node22</title>
<g id="a_node23"><a xlink:href="RotationRaw_8h.html" target="_top" xlink:title="iDynTree/Core/RotationRaw.h">
<polygon fill="none" stroke="#000000" points="454.4054,-224.5 454.4054,-243.5 612.4054,-243.5 612.4054,-224.5 454.4054,-224.5"/>
<text text-anchor="middle" x="533.4054" y="-231.5" font-family="FreeSans.ttf" font-size="10.00" fill="#000000">iDynTree/Core/RotationRaw.h</text>
</a>
</g>
</g>
<!-- Node20&#45;&gt;Node22 -->
<g id="edge27" class="edge">
<title>Node20&#45;&gt;Node22</title>
<path fill="none" stroke="#191970" d="M553.225,-280.2455C550.0244,-272.7776 545.5094,-262.2427 541.597,-253.1137"/>
<polygon fill="#191970" stroke="#191970" points="544.6943,-251.4554 537.538,-243.6427 538.2602,-254.2129 544.6943,-251.4554"/>
</g>
<!-- Node21&#45;&gt;Node4 -->
<g id="edge26" class="edge">
<title>Node21&#45;&gt;Node4</title>
<path fill="none" stroke="#191970" d="M339.9479,-224.2455C327.3322,-215.7337 308.811,-203.2375 294.2009,-193.3801"/>
<polygon fill="#191970" stroke="#191970" points="295.9445,-190.3343 285.6973,-187.6427 292.0293,-196.1371 295.9445,-190.3343"/>
</g>
<!-- Node22&#45;&gt;Node17 -->
<g id="edge40" class="edge">
<title>Node22&#45;&gt;Node17</title>
<path fill="none" stroke="#191970" d="M544.5431,-224.3377C555.0077,-215.17 571.0172,-200.9132 584.4054,-188 601.1492,-171.8503 619.5725,-152.6963 632.3355,-139.1938"/>
<polygon fill="#191970" stroke="#191970" points="635.1821,-141.2759 639.4852,-131.5943 630.0838,-136.4794 635.1821,-141.2759"/>
</g>
<!-- Node22&#45;&gt;Node23 -->
<g id="edge28" class="edge">
<title>Node22&#45;&gt;Node23</title>
<path fill="none" stroke="#191970" d="M458.346,-224.4686C380.5356,-214.588 259.1091,-199.1687 177.7111,-188.8325"/>
<polygon fill="#191970" stroke="#191970" points="177.8544,-185.3226 167.4932,-187.535 176.9726,-192.2669 177.8544,-185.3226"/>
</g>
<!-- Node23&#45;&gt;Node5 -->
<g id="edge29" class="edge">
<title>Node23&#45;&gt;Node5</title>
<path fill="none" stroke="#191970" d="M82.6904,-168.2316C70.3132,-154.5841 52.0382,-129.5193 65.4054,-112 77.6915,-95.8977 123.1188,-84.0519 163.6403,-76.4169"/>
<polygon fill="#191970" stroke="#191970" points="164.3309,-79.8488 173.5422,-74.6142 163.077,-72.962 164.3309,-79.8488"/>
</g>
<!-- Node23&#45;&gt;Node9 -->
<g id="edge35" class="edge">
<title>Node23&#45;&gt;Node9</title>
<path fill="none" stroke="#191970" d="M80.8247,-168.4135C66.5606,-155.4003 45.5849,-131.528 57.4054,-112 85.2,-66.0822 115.1523,-77.3335 164.4054,-56 196.1972,-42.2297 233.5812,-29.5124 260.4334,-20.9559"/>
<polygon fill="#191970" stroke="#191970" points="261.6893,-24.2299 270.1755,-17.8868 259.5859,-17.5534 261.6893,-24.2299"/>
</g>
<!-- Node23&#45;&gt;Node17 -->
<g id="edge37" class="edge">
<title>Node23&#45;&gt;Node17</title>
<path fill="none" stroke="#191970" d="M172.9303,-168.9022C175.7902,-168.595 178.6221,-168.2934 181.4054,-168 344.3438,-150.8222 539.4838,-132.2451 615.6753,-125.0683"/>
<polygon fill="#191970" stroke="#191970" points="616.4074,-128.515 626.0356,-124.0937 615.7517,-121.5458 616.4074,-128.515"/>
</g>
<!-- Node23&#45;&gt;Node18 -->
<g id="edge39" class="edge">
<title>Node23&#45;&gt;Node18</title>
<path fill="none" stroke="#191970" d="M119.2228,-168.3733C144.9386,-159.1419 183.9434,-145.1402 212.3653,-134.9375"/>
<polygon fill="#191970" stroke="#191970" points="213.7086,-138.174 221.938,-131.5011 211.3435,-131.5857 213.7086,-138.174"/>
</g>
<!-- Node23&#45;&gt;Node19 -->
<g id="edge36" class="edge">
<title>Node23&#45;&gt;Node19</title>
<path fill="none" stroke="#191970" d="M107.2113,-168.2455C120.131,-159.7337 139.0985,-147.2375 154.0607,-137.3801"/>
<polygon fill="#191970" stroke="#191970" points="156.3442,-140.067 162.7692,-131.6427 152.493,-134.2216 156.3442,-140.067"/>
</g>
<!-- Node24 -->
<g id="node25" class="node">
<title>Node24</title>
<g id="a_node25"><a xlink:href="MatrixView_8h.html" target="_top" xlink:title="iDynTree/Core/MatrixView.h">
<polygon fill="none" stroke="#000000" points="370.9054,-112.5 370.9054,-131.5 521.9054,-131.5 521.9054,-112.5 370.9054,-112.5"/>
<text text-anchor="middle" x="446.4054" y="-119.5" font-family="FreeSans.ttf" font-size="10.00" fill="#000000">iDynTree/Core/MatrixView.h</text>
</a>
</g>
</g>
<!-- Node23&#45;&gt;Node24 -->
<g id="edge30" class="edge">
<title>Node23&#45;&gt;Node24</title>
<path fill="none" stroke="#191970" d="M152.858,-168.4369C214.7151,-158.6516 310.7587,-143.4582 376.005,-133.1368"/>
<polygon fill="#191970" stroke="#191970" points="376.872,-136.5433 386.2022,-131.5237 375.7782,-129.6292 376.872,-136.5433"/>
</g>
<!-- Node25 -->
<g id="node26" class="node">
<title>Node25</title>
<polygon fill="none" stroke="#bfbfbf" points="74.4054,-112.5 74.4054,-131.5 134.4054,-131.5 134.4054,-112.5 74.4054,-112.5"/>
<text text-anchor="middle" x="104.4054" y="-119.5" font-family="FreeSans.ttf" font-size="10.00" fill="#000000">iostream</text>
</g>
<!-- Node23&#45;&gt;Node25 -->
<g id="edge38" class="edge">
<title>Node23&#45;&gt;Node25</title>
<path fill="none" stroke="#191970" d="M94.4957,-168.2455C96.0615,-160.9382 98.2566,-150.6944 100.183,-141.7046"/>
<polygon fill="#191970" stroke="#191970" points="103.6661,-142.1541 102.3391,-131.6427 96.8215,-140.6873 103.6661,-142.1541"/>
</g>
<!-- Node24&#45;&gt;Node5 -->
<g id="edge34" class="edge">
<title>Node24&#45;&gt;Node5</title>
<path fill="none" stroke="#191970" d="M409.7894,-112.3733C373.7575,-102.9001 318.6176,-88.4032 279.594,-78.1435"/>
<polygon fill="#191970" stroke="#191970" points="280.1049,-74.6589 269.5436,-75.5011 278.325,-81.4289 280.1049,-74.6589"/>
</g>
<!-- Node24&#45;&gt;Node8 -->
<g id="edge33" class="edge">
<title>Node24&#45;&gt;Node8</title>
<path fill="none" stroke="#191970" d="M470.6442,-112.3733C493.6844,-103.2226 528.5268,-89.3844 554.1555,-79.2057"/>
<polygon fill="#191970" stroke="#191970" points="555.4811,-82.4452 563.483,-75.5011 552.8972,-75.9395 555.4811,-82.4452"/>
</g>
<!-- Node24&#45;&gt;Node9 -->
<g id="edge31" class="edge">
<title>Node24&#45;&gt;Node9</title>
<path fill="none" stroke="#191970" d="M433.6165,-112.4509C407.7127,-93.1094 348.8338,-49.1465 317.2854,-25.5904"/>
<polygon fill="#191970" stroke="#191970" points="319.2688,-22.7033 309.162,-19.5249 315.0808,-28.3123 319.2688,-22.7033"/>
</g>
<!-- Node24&#45;&gt;Node15 -->
<g id="edge32" class="edge">
<title>Node24&#45;&gt;Node15</title>
<path fill="none" stroke="#191970" d="M446.4054,-112.4509C446.4054,-94.184 446.4054,-53.9553 446.4054,-29.6976"/>
<polygon fill="#191970" stroke="#191970" points="449.9055,-29.5249 446.4054,-19.5249 442.9055,-29.5249 449.9055,-29.5249"/>
</g>
<!-- Node26&#45;&gt;Node17 -->
<g id="edge47" class="edge">
<title>Node26&#45;&gt;Node17</title>
<path fill="none" stroke="#191970" d="M872.5003,-504.4525C930.2722,-491.9965 1004.4054,-463.9447 1004.4054,-402 1004.4054,-402 1004.4054,-402 1004.4054,-346 1004.4054,-245.6254 950.5362,-221.1772 865.4054,-168 834.9249,-148.9602 733.5447,-133.2321 680.848,-126.1073"/>
<polygon fill="#191970" stroke="#191970" points="681.0625,-122.6052 670.6889,-124.759 680.1415,-129.5443 681.0625,-122.6052"/>
</g>
<!-- Node27 -->
<g id="node28" class="node">
<title>Node27</title>
<polygon fill="none" stroke="#bfbfbf" points="928.9054,-392.5 928.9054,-411.5 975.9054,-411.5 975.9054,-392.5 928.9054,-392.5"/>
<text text-anchor="middle" x="952.4054" y="-399.5" font-family="FreeSans.ttf" font-size="10.00" fill="#000000">vector</text>
</g>
<!-- Node26&#45;&gt;Node27 -->
<g id="edge48" class="edge">
<title>Node26&#45;&gt;Node27</title>
<path fill="none" stroke="#191970" d="M831.2502,-504.4578C850.6577,-496.5245 877.2473,-483.9656 897.4054,-468 914.67,-454.3262 930.316,-434.4693 940.4671,-420.1109"/>
<polygon fill="#191970" stroke="#191970" points="943.5407,-421.8172 946.3061,-411.5896 937.7663,-417.8604 943.5407,-421.8172"/>
</g>
<!-- Node28 -->
<g id="node29" class="node">
<title>Node28</title>
<g id="a_node29"><a xlink:href="ConvexHullHelpers_8h.html" target="_top" xlink:title="iDynTree/ConvexHullHelpers.h">
<polygon fill="none" stroke="#000000" points="722.9054,-448.5 722.9054,-467.5 887.9054,-467.5 887.9054,-448.5 722.9054,-448.5"/>
<text text-anchor="middle" x="805.4054" y="-455.5" font-family="FreeSans.ttf" font-size="10.00" fill="#000000">iDynTree/ConvexHullHelpers.h</text>
</a>
</g>
</g>
<!-- Node26&#45;&gt;Node28 -->
<g id="edge49" class="edge">
<title>Node26&#45;&gt;Node28</title>
<path fill="none" stroke="#191970" d="M805.4054,-504.2455C805.4054,-496.9382 805.4054,-486.6944 805.4054,-477.7046"/>
<polygon fill="#191970" stroke="#191970" points="808.9055,-477.6426 805.4054,-467.6427 801.9055,-477.6427 808.9055,-477.6426"/>
</g>
<!-- Node31 -->
<g id="node32" class="node">
<title>Node31</title>
<g id="a_node32"><a xlink:href="Direction_8h.html" target="_top" xlink:title="iDynTree/Core/Direction.h">
<polygon fill="none" stroke="#000000" points="36.9054,-224.5 36.9054,-243.5 177.9054,-243.5 177.9054,-224.5 36.9054,-224.5"/>
<text text-anchor="middle" x="107.4054" y="-231.5" font-family="FreeSans.ttf" font-size="10.00" fill="#000000">iDynTree/Core/Direction.h</text>
</a>
</g>
</g>
<!-- Node26&#45;&gt;Node31 -->
<g id="edge60" class="edge">
<title>Node26&#45;&gt;Node31</title>
<path fill="none" stroke="#191970" d="M724.3123,-509.3608C540.3819,-497.7548 107.4054,-463.8639 107.4054,-402 107.4054,-402 107.4054,-402 107.4054,-346 107.4054,-313.7116 107.4054,-276.1872 107.4054,-253.8048"/>
<polygon fill="#191970" stroke="#191970" points="110.9055,-253.5883 107.4054,-243.5884 103.9055,-253.5884 110.9055,-253.5883"/>
</g>
<!-- Node28&#45;&gt;Node1 -->
<g id="edge56" class="edge">
<title>Node28&#45;&gt;Node1</title>
<path fill="none" stroke="#191970" d="M773.259,-448.3733C741.8945,-438.9807 694.0389,-424.6496 659.8338,-414.4064"/>
<polygon fill="#191970" stroke="#191970" points="660.7162,-411.0171 650.1324,-411.5011 658.708,-417.7229 660.7162,-411.0171"/>
</g>
<!-- Node28&#45;&gt;Node2 -->
<g id="edge55" class="edge">
<title>Node28&#45;&gt;Node2</title>
<path fill="none" stroke="#191970" d="M803.615,-448.4509C800.1744,-430.1013 792.5787,-389.5908 788.0372,-365.3693"/>
<polygon fill="#191970" stroke="#191970" points="791.4744,-364.7086 786.1913,-355.5249 784.5943,-365.9986 791.4744,-364.7086"/>
</g>
<!-- Node28&#45;&gt;Node17 -->
<g id="edge50" class="edge">
<title>Node28&#45;&gt;Node17</title>
<path fill="none" stroke="#191970" d="M814.0636,-448.1177C841.3327,-415.7437 921.7067,-310.0236 888.4054,-224 876.2525,-192.6067 866.3579,-185.1752 837.4054,-168 787.7869,-138.5653 720.2247,-127.9308 680.7644,-124.1127"/>
<polygon fill="#191970" stroke="#191970" points="680.9226,-120.6132 670.6548,-123.2252 680.3104,-127.5864 680.9226,-120.6132"/>
</g>
<!-- Node28&#45;&gt;Node27 -->
<g id="edge51" class="edge">
<title>Node28&#45;&gt;Node27</title>
<path fill="none" stroke="#191970" d="M830.6756,-448.3733C855.0945,-439.0708 892.2293,-424.9242 919.0616,-414.7024"/>
<polygon fill="#191970" stroke="#191970" points="920.3395,-417.961 928.4384,-411.1303 917.8475,-411.4196 920.3395,-417.961"/>
</g>
<!-- Node29 -->
<g id="node30" class="node">
<title>Node29</title>
<g id="a_node30"><a xlink:href="MatrixDynSize_8h.html" target="_top" xlink:title="iDynTree/Core/MatrixDynSize.h">
<polygon fill="none" stroke="#000000" points="407.9054,-168.5 407.9054,-187.5 574.9054,-187.5 574.9054,-168.5 407.9054,-168.5"/>
<text text-anchor="middle" x="491.4054" y="-175.5" font-family="FreeSans.ttf" font-size="10.00" fill="#000000">iDynTree/Core/MatrixDynSize.h</text>
</a>
</g>
</g>
<!-- Node28&#45;&gt;Node29 -->
<g id="edge52" class="edge">
<title>Node28&#45;&gt;Node29</title>
<path fill="none" stroke="#191970" d="M722.7459,-451.0271C558.4245,-436.0494 206.4054,-397.9058 206.4054,-346 206.4054,-346 206.4054,-346 206.4054,-290 206.4054,-251.2415 229.9401,-243.5522 263.4054,-224 287.7767,-209.761 353.5229,-197.3557 408.1873,-189.0277"/>
<polygon fill="#191970" stroke="#191970" points="408.8815,-192.4628 418.2529,-187.5206 407.8449,-185.54 408.8815,-192.4628"/>
</g>
<!-- Node30 -->
<g id="node31" class="node">
<title>Node30</title>
<g id="a_node31"><a xlink:href="VectorDynSize_8h.html" target="_top" xlink:title="iDynTree/Core/VectorDynSize.h">
<polygon fill="none" stroke="#000000" points="993.9054,-168.5 993.9054,-187.5 1160.9054,-187.5 1160.9054,-168.5 993.9054,-168.5"/>
<text text-anchor="middle" x="1077.4054" y="-175.5" font-family="FreeSans.ttf" font-size="10.00" fill="#000000">iDynTree/Core/VectorDynSize.h</text>
</a>
</g>
</g>
<!-- Node28&#45;&gt;Node30 -->
<g id="edge57" class="edge">
<title>Node28&#45;&gt;Node30</title>
<path fill="none" stroke="#191970" d="M823.0105,-448.4961C838.002,-439.9728 859.7028,-426.5904 876.4054,-412 957.3996,-341.2484 1035.0057,-237.5102 1064.7017,-196.0713"/>
<polygon fill="#191970" stroke="#191970" points="1067.6552,-197.9574 1070.5981,-187.7795 1061.9505,-193.9007 1067.6552,-197.9574"/>
</g>
<!-- Node29&#45;&gt;Node17 -->
<g id="edge53" class="edge">
<title>Node29&#45;&gt;Node17</title>
<path fill="none" stroke="#191970" d="M518.3947,-168.3733C545.6871,-158.6384 587.8524,-143.5985 616.716,-133.3032"/>
<polygon fill="#191970" stroke="#191970" points="618.0816,-136.5322 626.3245,-129.876 615.7299,-129.939 618.0816,-136.5322"/>
</g>
<!-- Node29&#45;&gt;Node24 -->
<g id="edge54" class="edge">
<title>Node29&#45;&gt;Node24</title>
<path fill="none" stroke="#191970" d="M483.567,-168.2455C477.2434,-160.3761 468.183,-149.101 460.5918,-139.6542"/>
<polygon fill="#191970" stroke="#191970" points="463.1462,-137.2454 454.154,-131.6427 457.6897,-141.6302 463.1462,-137.2454"/>
</g>
<!-- Node30&#45;&gt;Node8 -->
<g id="edge58" class="edge">
<title>Node30&#45;&gt;Node8</title>
<path fill="none" stroke="#191970" d="M1035.6283,-168.4509C946.2177,-148.0142 736.5443,-100.0889 639.0012,-77.7933"/>
<polygon fill="#191970" stroke="#191970" points="639.6053,-74.3412 629.0768,-75.5249 638.0455,-81.1652 639.6053,-74.3412"/>
</g>
<!-- Node30&#45;&gt;Node17 -->
<g id="edge59" class="edge">
<title>Node30&#45;&gt;Node17</title>
<path fill="none" stroke="#191970" d="M1004.1451,-168.4369C909.647,-156.1015 749.3123,-135.172 680.9013,-126.2419"/>
<polygon fill="#191970" stroke="#191970" points="681.1041,-122.7387 670.7351,-124.9148 680.1979,-129.6799 681.1041,-122.7387"/>
</g>
<!-- Node31&#45;&gt;Node4 -->
<g id="edge62" class="edge">
<title>Node31&#45;&gt;Node4</title>
<path fill="none" stroke="#191970" d="M135.598,-224.3733C162.7507,-215.1016 203.9961,-201.0178 233.9079,-190.804"/>
<polygon fill="#191970" stroke="#191970" points="235.2482,-194.0449 243.5807,-187.5011 232.9862,-187.4204 235.2482,-194.0449"/>
</g>
<!-- Node31&#45;&gt;Node5 -->
<g id="edge63" class="edge">
<title>Node31&#45;&gt;Node5</title>
<path fill="none" stroke="#191970" d="M60.6697,-224.42C27.3221,-214.9457 -9.6565,-197.4952 2.4054,-168 15.6102,-135.7103 27.2188,-129.4858 57.4054,-112 89.7253,-93.2786 129.7453,-82.0374 163.4532,-75.3607"/>
<polygon fill="#191970" stroke="#191970" points="164.5165,-78.7221 173.6961,-73.432 163.2211,-71.843 164.5165,-78.7221"/>
</g>
<!-- Node31&#45;&gt;Node17 -->
<g id="edge61" class="edge">
<title>Node31&#45;&gt;Node17</title>
<path fill="none" stroke="#191970" d="M172.8802,-224.4627C236.197,-214.8222 327.4035,-199.7157 361.4054,-188 379.4496,-181.7827 381.3722,-174.249 399.4054,-168 474.5151,-141.9724 567.7499,-129.7633 616.0307,-124.8372"/>
<polygon fill="#191970" stroke="#191970" points="616.5757,-128.3006 626.1865,-123.8416 615.8927,-121.334 616.5757,-128.3006"/>
</g>
</g>
</svg>
