<?xml version="1.0" encoding="UTF-8" standalone="no"?>
<!DOCTYPE svg PUBLIC "-//W3C//DTD SVG 1.1//EN"
 "http://www.w3.org/Graphics/SVG/1.1/DTD/svg11.dtd">
<!-- Generated by graphviz version 2.40.1 (20161225.0304)
 -->
<!-- Title: TransformDerivative.cpp Pages: 1 -->
<svg width="1673pt" height="610pt"
 viewBox="0.00 0.00 1673.00 610.00" xmlns="http://www.w3.org/2000/svg" xmlns:xlink="http://www.w3.org/1999/xlink">
<g id="graph0" class="graph" transform="scale(1 1) rotate(0) translate(4 606)">
<title>TransformDerivative.cpp</title>
<!-- Node0 -->
<g id="node1" class="node">
<title>Node0</title>
<polygon fill="#bfbfbf" stroke="#000000" points="827,-582.5 827,-601.5 964,-601.5 964,-582.5 827,-582.5"/>
<text text-anchor="middle" x="895.5" y="-589.5" font-family="FreeSans.ttf" font-size="10.00" fill="#000000">TransformDerivative.cpp</text>
</g>
<!-- Node1 -->
<g id="node2" class="node">
<title>Node1</title>
<g id="a_node2"><a xlink:href="ArticulatedBodyInertia_8h.html" target="_top" xlink:title="iDynTree/Core/Articulated\lBodyInertia.h">
<polygon fill="none" stroke="#000000" points="224,-224.5 224,-254.5 365,-254.5 365,-224.5 224,-224.5"/>
<text text-anchor="start" x="232" y="-242.5" font-family="FreeSans.ttf" font-size="10.00" fill="#000000">iDynTree/Core/Articulated</text>
<text text-anchor="middle" x="294.5" y="-231.5" font-family="FreeSans.ttf" font-size="10.00" fill="#000000">BodyInertia.h</text>
</a>
</g>
</g>
<!-- Node0&#45;&gt;Node1 -->
<g id="edge1" class="edge">
<title>Node0&#45;&gt;Node1</title>
<path fill="none" stroke="#191970" d="M826.8381,-586.9664C657.4904,-573.6345 233.5,-534.286 233.5,-474.5 233.5,-474.5 233.5,-474.5 233.5,-357 233.5,-320.9261 256.4281,-284.92 274.1707,-262.4576"/>
<polygon fill="#191970" stroke="#191970" points="277.0275,-264.4933 280.6582,-254.54 271.613,-260.0568 277.0275,-264.4933"/>
</g>
<!-- Node20 -->
<g id="node21" class="node">
<title>Node20</title>
<g id="a_node21"><a xlink:href="TransformDerivative_8h.html" target="_top" xlink:title="iDynTree/Core/TransformDerivative.h">
<polygon fill="none" stroke="#000000" points="924,-230 924,-249 1121,-249 1121,-230 924,-230"/>
<text text-anchor="middle" x="1022.5" y="-237" font-family="FreeSans.ttf" font-size="10.00" fill="#000000">iDynTree/Core/TransformDerivative.h</text>
</a>
</g>
</g>
<!-- Node0&#45;&gt;Node20 -->
<g id="edge26" class="edge">
<title>Node0&#45;&gt;Node20</title>
<path fill="none" stroke="#191970" d="M895.5,-582.2511C895.5,-562.1182 895.5,-514.4826 895.5,-474.5 895.5,-474.5 895.5,-474.5 895.5,-357 895.5,-306.0483 951.2575,-271.0309 988.883,-253.2013"/>
<polygon fill="#191970" stroke="#191970" points="990.3656,-256.372 998.0131,-249.0394 987.4621,-250.0025 990.3656,-256.372"/>
</g>
<!-- Node22 -->
<g id="node23" class="node">
<title>Node22</title>
<g id="a_node23"><a xlink:href="Transform_8h.html" target="_top" xlink:title="iDynTree/Core/Transform.h">
<polygon fill="none" stroke="#000000" points="601.5,-403.5 601.5,-422.5 747.5,-422.5 747.5,-403.5 601.5,-403.5"/>
<text text-anchor="middle" x="674.5" y="-410.5" font-family="FreeSans.ttf" font-size="10.00" fill="#000000">iDynTree/Core/Transform.h</text>
</a>
</g>
</g>
<!-- Node0&#45;&gt;Node22 -->
<g id="edge35" class="edge">
<title>Node0&#45;&gt;Node22</title>
<path fill="none" stroke="#191970" d="M883.6181,-582.3762C847.5686,-553.1777 739.1699,-465.3797 694.2902,-429.0291"/>
<polygon fill="#191970" stroke="#191970" points="696.4144,-426.2457 686.4407,-422.6714 692.0086,-431.6852 696.4144,-426.2457"/>
</g>
<!-- Node28 -->
<g id="node29" class="node">
<title>Node28</title>
<polygon fill="none" stroke="#bfbfbf" points="1588,-465 1588,-484 1665,-484 1665,-465 1588,-465"/>
<text text-anchor="middle" x="1626.5" y="-472" font-family="FreeSans.ttf" font-size="10.00" fill="#000000">Eigen/Dense</text>
</g>
<!-- Node0&#45;&gt;Node28 -->
<g id="edge52" class="edge">
<title>Node0&#45;&gt;Node28</title>
<path fill="none" stroke="#191970" d="M964.3894,-584.7552C1087.549,-571.1125 1353.2188,-538.5474 1573.5,-490 1577.713,-489.0715 1582.0825,-487.9905 1586.4233,-486.8393"/>
<polygon fill="#191970" stroke="#191970" points="1587.7143,-490.1133 1596.4127,-484.0645 1585.8407,-483.3687 1587.7143,-490.1133"/>
</g>
<!-- Node29 -->
<g id="node30" class="node">
<title>Node29</title>
<g id="a_node30"><a xlink:href="EigenHelpers_8h.html" target="_top" xlink:title="iDynTree/Core/EigenHelpers.h">
<polygon fill="none" stroke="#000000" points="983,-526.5 983,-545.5 1144,-545.5 1144,-526.5 983,-526.5"/>
<text text-anchor="middle" x="1063.5" y="-533.5" font-family="FreeSans.ttf" font-size="10.00" fill="#000000">iDynTree/Core/EigenHelpers.h</text>
</a>
</g>
</g>
<!-- Node0&#45;&gt;Node29 -->
<g id="edge53" class="edge">
<title>Node0&#45;&gt;Node29</title>
<path fill="none" stroke="#191970" d="M924.3802,-582.3733C952.3161,-573.0613 994.8142,-558.8953 1025.4869,-548.671"/>
<polygon fill="#191970" stroke="#191970" points="1026.6166,-551.9839 1034.9966,-545.5011 1024.403,-545.3431 1026.6166,-551.9839"/>
</g>
<!-- Node2 -->
<g id="node3" class="node">
<title>Node2</title>
<g id="a_node3"><a xlink:href="MatrixFixSize_8h.html" target="_top" xlink:title="iDynTree/Core/MatrixFixSize.h">
<polygon fill="none" stroke="#000000" points="769,-168.5 769,-187.5 930,-187.5 930,-168.5 769,-168.5"/>
<text text-anchor="middle" x="849.5" y="-175.5" font-family="FreeSans.ttf" font-size="10.00" fill="#000000">iDynTree/Core/MatrixFixSize.h</text>
</a>
</g>
</g>
<!-- Node1&#45;&gt;Node2 -->
<g id="edge2" class="edge">
<title>Node1&#45;&gt;Node2</title>
<path fill="none" stroke="#191970" d="M365.0728,-231.6798C465.1553,-220.5895 648.3749,-200.2868 758.5425,-188.0791"/>
<polygon fill="#191970" stroke="#191970" points="759.0883,-191.5401 768.642,-186.9599 758.3173,-184.5827 759.0883,-191.5401"/>
</g>
<!-- Node17 -->
<g id="node18" class="node">
<title>Node17</title>
<polygon fill="none" stroke="#bfbfbf" points="428.5,-112.5 428.5,-131.5 472.5,-131.5 472.5,-112.5 428.5,-112.5"/>
<text text-anchor="middle" x="450.5" y="-119.5" font-family="FreeSans.ttf" font-size="10.00" fill="#000000">string</text>
</g>
<!-- Node1&#45;&gt;Node17 -->
<g id="edge25" class="edge">
<title>Node1&#45;&gt;Node17</title>
<path fill="none" stroke="#191970" d="M311.2473,-224.3393C328.0339,-209.4038 354.8544,-186.2396 379.5,-168 394.511,-156.8907 412.1255,-145.4693 426.0543,-136.7863"/>
<polygon fill="#191970" stroke="#191970" points="427.9385,-139.7364 434.6109,-131.5066 424.2626,-133.7792 427.9385,-139.7364"/>
</g>
<!-- Node3 -->
<g id="node4" class="node">
<title>Node3</title>
<g id="a_node4"><a xlink:href="Utils_8h.html" target="_top" xlink:title="iDynTree/Core/Utils.h">
<polygon fill="none" stroke="#000000" points="1073,-56.5 1073,-75.5 1192,-75.5 1192,-56.5 1073,-56.5"/>
<text text-anchor="middle" x="1132.5" y="-63.5" font-family="FreeSans.ttf" font-size="10.00" fill="#000000">iDynTree/Core/Utils.h</text>
</a>
</g>
</g>
<!-- Node2&#45;&gt;Node3 -->
<g id="edge3" class="edge">
<title>Node2&#45;&gt;Node3</title>
<path fill="none" stroke="#191970" d="M854.9297,-168.1307C863.5822,-153.4002 881.9521,-125.9099 905.5,-112 931.7101,-96.5175 1006.3221,-83.258 1062.9138,-75.0078"/>
<polygon fill="#191970" stroke="#191970" points="1063.496,-78.4603 1072.8981,-73.5766 1062.5026,-71.5311 1063.496,-78.4603"/>
</g>
<!-- Node6 -->
<g id="node7" class="node">
<title>Node6</title>
<g id="a_node7"><a xlink:href="MatrixView_8h.html" target="_top" xlink:title="iDynTree/Core/MatrixView.h">
<polygon fill="none" stroke="#000000" points="657,-112.5 657,-131.5 808,-131.5 808,-112.5 657,-112.5"/>
<text text-anchor="middle" x="732.5" y="-119.5" font-family="FreeSans.ttf" font-size="10.00" fill="#000000">iDynTree/Core/MatrixView.h</text>
</a>
</g>
</g>
<!-- Node2&#45;&gt;Node6 -->
<g id="edge6" class="edge">
<title>Node2&#45;&gt;Node6</title>
<path fill="none" stroke="#191970" d="M829.387,-168.3733C810.6897,-159.4241 782.6256,-145.9917 761.5066,-135.8835"/>
<polygon fill="#191970" stroke="#191970" points="762.8817,-132.6614 752.3506,-131.5011 759.8595,-138.9755 762.8817,-132.6614"/>
</g>
<!-- Node7 -->
<g id="node8" class="node">
<title>Node7</title>
<polygon fill="none" stroke="#bfbfbf" points="908.5,-.5 908.5,-19.5 960.5,-19.5 960.5,-.5 908.5,-.5"/>
<text text-anchor="middle" x="934.5" y="-7.5" font-family="FreeSans.ttf" font-size="10.00" fill="#000000">cassert</text>
</g>
<!-- Node2&#45;&gt;Node7 -->
<g id="edge20" class="edge">
<title>Node2&#45;&gt;Node7</title>
<path fill="none" stroke="#191970" d="M853.3724,-168.4805C858.7052,-155.5434 868.7595,-131.7569 878.5,-112 893.1628,-82.259 912.0446,-48.7236 923.7073,-28.4863"/>
<polygon fill="#191970" stroke="#191970" points="926.8163,-30.1018 928.8025,-19.6947 920.76,-26.5917 926.8163,-30.1018"/>
</g>
<!-- Node16 -->
<g id="node17" class="node">
<title>Node16</title>
<polygon fill="none" stroke="#bfbfbf" points="914.5,-112.5 914.5,-131.5 964.5,-131.5 964.5,-112.5 914.5,-112.5"/>
<text text-anchor="middle" x="939.5" y="-119.5" font-family="FreeSans.ttf" font-size="10.00" fill="#000000">cstring</text>
</g>
<!-- Node2&#45;&gt;Node16 -->
<g id="edge21" class="edge">
<title>Node2&#45;&gt;Node16</title>
<path fill="none" stroke="#191970" d="M865.1768,-168.2455C878.9856,-159.6534 899.3193,-147.0014 915.2292,-137.1018"/>
<polygon fill="#191970" stroke="#191970" points="917.3613,-139.8974 924.0028,-131.6427 913.6632,-133.954 917.3613,-139.8974"/>
</g>
<!-- Node2&#45;&gt;Node17 -->
<g id="edge22" class="edge">
<title>Node2&#45;&gt;Node17</title>
<path fill="none" stroke="#191970" d="M781.3628,-168.4369C694.2863,-156.2156 547.1053,-135.5586 482.5117,-126.4929"/>
<polygon fill="#191970" stroke="#191970" points="482.9058,-123.014 472.5164,-125.09 481.9329,-129.946 482.9058,-123.014"/>
</g>
<!-- Node18 -->
<g id="node19" class="node">
<title>Node18</title>
<polygon fill="none" stroke="#bfbfbf" points="1058.5,-112.5 1058.5,-131.5 1118.5,-131.5 1118.5,-112.5 1058.5,-112.5"/>
<text text-anchor="middle" x="1088.5" y="-119.5" font-family="FreeSans.ttf" font-size="10.00" fill="#000000">iostream</text>
</g>
<!-- Node2&#45;&gt;Node18 -->
<g id="edge23" class="edge">
<title>Node2&#45;&gt;Node18</title>
<path fill="none" stroke="#191970" d="M890.314,-168.4369C934.5943,-158.0616 1004.8225,-141.6064 1048.7013,-131.3252"/>
<polygon fill="#191970" stroke="#191970" points="1049.513,-134.7299 1058.4508,-129.0408 1047.916,-127.9145 1049.513,-134.7299"/>
</g>
<!-- Node19 -->
<g id="node20" class="node">
<title>Node19</title>
<polygon fill="none" stroke="#bfbfbf" points="1174.5,-112.5 1174.5,-131.5 1230.5,-131.5 1230.5,-112.5 1174.5,-112.5"/>
<text text-anchor="middle" x="1202.5" y="-119.5" font-family="FreeSans.ttf" font-size="10.00" fill="#000000">sstream</text>
</g>
<!-- Node2&#45;&gt;Node19 -->
<g id="edge24" class="edge">
<title>Node2&#45;&gt;Node19</title>
<path fill="none" stroke="#191970" d="M909.7818,-168.4369C982.5653,-156.8905 1102.8134,-137.8143 1164.0646,-128.0974"/>
<polygon fill="#191970" stroke="#191970" points="1164.754,-131.5319 1174.0821,-126.5082 1163.6572,-124.6183 1164.754,-131.5319"/>
</g>
<!-- Node4 -->
<g id="node5" class="node">
<title>Node4</title>
<polygon fill="none" stroke="#bfbfbf" points="1007,-.5 1007,-19.5 1060,-19.5 1060,-.5 1007,-.5"/>
<text text-anchor="middle" x="1033.5" y="-7.5" font-family="FreeSans.ttf" font-size="10.00" fill="#000000">cstddef</text>
</g>
<!-- Node3&#45;&gt;Node4 -->
<g id="edge4" class="edge">
<title>Node3&#45;&gt;Node4</title>
<path fill="none" stroke="#191970" d="M1115.2555,-56.2455C1099.9239,-47.5731 1077.2801,-34.7645 1059.7084,-24.825"/>
<polygon fill="#191970" stroke="#191970" points="1060.9741,-21.5198 1050.5469,-19.6427 1057.5276,-27.6126 1060.9741,-21.5198"/>
</g>
<!-- Node5 -->
<g id="node6" class="node">
<title>Node5</title>
<polygon fill="none" stroke="#bfbfbf" points="1092.5,-.5 1092.5,-19.5 1172.5,-19.5 1172.5,-.5 1092.5,-.5"/>
<text text-anchor="middle" x="1132.5" y="-7.5" font-family="FreeSans.ttf" font-size="10.00" fill="#000000">CoreExport.h</text>
</g>
<!-- Node3&#45;&gt;Node5 -->
<g id="edge5" class="edge">
<title>Node3&#45;&gt;Node5</title>
<path fill="none" stroke="#191970" d="M1132.5,-56.2455C1132.5,-48.9382 1132.5,-38.6944 1132.5,-29.7046"/>
<polygon fill="#191970" stroke="#191970" points="1136.0001,-29.6426 1132.5,-19.6427 1129.0001,-29.6427 1136.0001,-29.6426"/>
</g>
<!-- Node6&#45;&gt;Node3 -->
<g id="edge19" class="edge">
<title>Node6&#45;&gt;Node3</title>
<path fill="none" stroke="#191970" d="M800.808,-112.4369C873.9049,-102.2033 989.2509,-86.0549 1062.8573,-75.75"/>
<polygon fill="#191970" stroke="#191970" points="1063.5396,-79.1887 1072.9577,-74.3359 1062.569,-72.2563 1063.5396,-79.1887"/>
</g>
<!-- Node6&#45;&gt;Node7 -->
<g id="edge7" class="edge">
<title>Node6&#45;&gt;Node7</title>
<path fill="none" stroke="#191970" d="M745.9747,-112.3904C765.1394,-98.9314 801.6011,-74.0892 834.5,-56 856.5177,-43.8938 882.2979,-32.0887 902.1676,-23.469"/>
<polygon fill="#191970" stroke="#191970" points="903.5946,-26.6653 911.4046,-19.506 900.8347,-20.2324 903.5946,-26.6653"/>
</g>
<!-- Node8 -->
<g id="node9" class="node">
<title>Node8</title>
<polygon fill="none" stroke="#bfbfbf" points="399,-.5 399,-19.5 468,-19.5 468,-.5 399,-.5"/>
<text text-anchor="middle" x="433.5" y="-7.5" font-family="FreeSans.ttf" font-size="10.00" fill="#000000">type_traits</text>
</g>
<!-- Node6&#45;&gt;Node8 -->
<g id="edge8" class="edge">
<title>Node6&#45;&gt;Node8</title>
<path fill="none" stroke="#191970" d="M707.0074,-112.4509C653.4969,-92.4069 529.394,-45.9202 468.4891,-23.1063"/>
<polygon fill="#191970" stroke="#191970" points="469.5204,-19.7551 458.928,-19.5249 467.0649,-26.3104 469.5204,-19.7551"/>
</g>
<!-- Node9 -->
<g id="node10" class="node">
<title>Node9</title>
<g id="a_node10"><a xlink:href="Span_8h.html" target="_top" xlink:title="iDynTree/Core/Span.h">
<polygon fill="none" stroke="#000000" points="661,-56.5 661,-75.5 782,-75.5 782,-56.5 661,-56.5"/>
<text text-anchor="middle" x="721.5" y="-63.5" font-family="FreeSans.ttf" font-size="10.00" fill="#000000">iDynTree/Core/Span.h</text>
</a>
</g>
</g>
<!-- Node6&#45;&gt;Node9 -->
<g id="edge9" class="edge">
<title>Node6&#45;&gt;Node9</title>
<path fill="none" stroke="#191970" d="M730.5839,-112.2455C729.1486,-104.9382 727.1364,-94.6944 725.3705,-85.7046"/>
<polygon fill="#191970" stroke="#191970" points="728.756,-84.7805 723.3941,-75.6427 721.8873,-86.1298 728.756,-84.7805"/>
</g>
<!-- Node9&#45;&gt;Node4 -->
<g id="edge13" class="edge">
<title>Node9&#45;&gt;Node4</title>
<path fill="none" stroke="#191970" d="M774.7802,-56.4369C838.0574,-45.0794 941.9244,-26.4367 996.8294,-16.5819"/>
<polygon fill="#191970" stroke="#191970" points="997.5867,-20.002 1006.8111,-14.7903 996.35,-13.1121 997.5867,-20.002"/>
</g>
<!-- Node9&#45;&gt;Node7 -->
<g id="edge10" class="edge">
<title>Node9&#45;&gt;Node7</title>
<path fill="none" stroke="#191970" d="M759.4224,-56.4968C793.3949,-47.9174 844.8295,-34.7664 898.1688,-20.3189"/>
<polygon fill="#191970" stroke="#191970" points="899.4148,-23.6073 908.1468,-17.607 897.5788,-16.8524 899.4148,-23.6073"/>
</g>
<!-- Node9&#45;&gt;Node8 -->
<g id="edge17" class="edge">
<title>Node9&#45;&gt;Node8</title>
<path fill="none" stroke="#191970" d="M666.8746,-56.4365C619.3702,-47.9627 548.448,-34.9363 478.1223,-20.2837"/>
<polygon fill="#191970" stroke="#191970" points="478.7107,-16.8311 468.2054,-18.2057 477.275,-23.6823 478.7107,-16.8311"/>
</g>
<!-- Node10 -->
<g id="node11" class="node">
<title>Node10</title>
<polygon fill="none" stroke="#bfbfbf" points="632.5,-.5 632.5,-19.5 696.5,-19.5 696.5,-.5 632.5,-.5"/>
<text text-anchor="middle" x="664.5" y="-7.5" font-family="FreeSans.ttf" font-size="10.00" fill="#000000">algorithm</text>
</g>
<!-- Node9&#45;&gt;Node10 -->
<g id="edge11" class="edge">
<title>Node9&#45;&gt;Node10</title>
<path fill="none" stroke="#191970" d="M711.5714,-56.2455C703.3162,-48.1352 691.3791,-36.4075 681.5918,-26.7919"/>
<polygon fill="#191970" stroke="#191970" points="683.9011,-24.1542 674.3149,-19.6427 678.9954,-29.1476 683.9011,-24.1542"/>
</g>
<!-- Node11 -->
<g id="node12" class="node">
<title>Node11</title>
<polygon fill="none" stroke="#bfbfbf" points="714.5,-.5 714.5,-19.5 756.5,-19.5 756.5,-.5 714.5,-.5"/>
<text text-anchor="middle" x="735.5" y="-7.5" font-family="FreeSans.ttf" font-size="10.00" fill="#000000">array</text>
</g>
<!-- Node9&#45;&gt;Node11 -->
<g id="edge12" class="edge">
<title>Node9&#45;&gt;Node11</title>
<path fill="none" stroke="#191970" d="M723.9386,-56.2455C725.7855,-48.8579 728.3828,-38.4689 730.6478,-29.4087"/>
<polygon fill="#191970" stroke="#191970" points="734.0594,-30.193 733.0893,-19.6427 727.2684,-28.4952 734.0594,-30.193"/>
</g>
<!-- Node12 -->
<g id="node13" class="node">
<title>Node12</title>
<polygon fill="none" stroke="#bfbfbf" points="775,-.5 775,-19.5 828,-19.5 828,-.5 775,-.5"/>
<text text-anchor="middle" x="801.5" y="-7.5" font-family="FreeSans.ttf" font-size="10.00" fill="#000000">iterator</text>
</g>
<!-- Node9&#45;&gt;Node12 -->
<g id="edge14" class="edge">
<title>Node9&#45;&gt;Node12</title>
<path fill="none" stroke="#191970" d="M735.4349,-56.2455C747.5947,-47.7337 765.4464,-35.2375 779.5285,-25.3801"/>
<polygon fill="#191970" stroke="#191970" points="781.5395,-28.2447 787.7248,-19.6427 777.5253,-22.51 781.5395,-28.2447"/>
</g>
<!-- Node13 -->
<g id="node14" class="node">
<title>Node13</title>
<polygon fill="none" stroke="#bfbfbf" points="846.5,-.5 846.5,-19.5 890.5,-19.5 890.5,-.5 846.5,-.5"/>
<text text-anchor="middle" x="868.5" y="-7.5" font-family="FreeSans.ttf" font-size="10.00" fill="#000000">limits</text>
</g>
<!-- Node9&#45;&gt;Node13 -->
<g id="edge15" class="edge">
<title>Node9&#45;&gt;Node13</title>
<path fill="none" stroke="#191970" d="M746.7702,-56.3733C771.7739,-46.848 810.1101,-32.2438 837.0662,-21.9748"/>
<polygon fill="#191970" stroke="#191970" points="838.3378,-25.2358 846.4367,-18.4051 835.8458,-18.6944 838.3378,-25.2358"/>
</g>
<!-- Node14 -->
<g id="node15" class="node">
<title>Node14</title>
<polygon fill="none" stroke="#bfbfbf" points="486,-.5 486,-19.5 551,-19.5 551,-.5 486,-.5"/>
<text text-anchor="middle" x="518.5" y="-7.5" font-family="FreeSans.ttf" font-size="10.00" fill="#000000">stdexcept</text>
</g>
<!-- Node9&#45;&gt;Node14 -->
<g id="edge16" class="edge">
<title>Node9&#45;&gt;Node14</title>
<path fill="none" stroke="#191970" d="M686.6031,-56.3733C651.8908,-46.7975 598.5711,-32.0886 561.317,-21.8116"/>
<polygon fill="#191970" stroke="#191970" points="561.835,-18.3238 551.2643,-19.0384 559.9735,-25.0718 561.835,-18.3238"/>
</g>
<!-- Node15 -->
<g id="node16" class="node">
<title>Node15</title>
<polygon fill="none" stroke="#bfbfbf" points="569,-.5 569,-19.5 614,-19.5 614,-.5 569,-.5"/>
<text text-anchor="middle" x="591.5" y="-7.5" font-family="FreeSans.ttf" font-size="10.00" fill="#000000">utility</text>
</g>
<!-- Node9&#45;&gt;Node15 -->
<g id="edge18" class="edge">
<title>Node9&#45;&gt;Node15</title>
<path fill="none" stroke="#191970" d="M699.1522,-56.3733C678.0967,-47.3032 646.3505,-33.6279 622.7825,-23.4755"/>
<polygon fill="#191970" stroke="#191970" points="624.125,-20.243 613.5562,-19.5011 621.3556,-26.6719 624.125,-20.243"/>
</g>
<!-- Node20&#45;&gt;Node2 -->
<g id="edge34" class="edge">
<title>Node20&#45;&gt;Node2</title>
<path fill="none" stroke="#191970" d="M995.4688,-229.8906C966.0149,-219.42 918.7311,-202.6111 885.9973,-190.9745"/>
<polygon fill="#191970" stroke="#191970" points="886.9361,-187.5937 876.3414,-187.5419 884.5914,-194.1893 886.9361,-187.5937"/>
</g>
<!-- Node21 -->
<g id="node22" class="node">
<title>Node21</title>
<g id="a_node22"><a xlink:href="VectorFixSize_8h.html" target="_top" xlink:title="iDynTree/Core/VectorFixSize.h">
<polygon fill="none" stroke="#000000" points="950,-168.5 950,-187.5 1111,-187.5 1111,-168.5 950,-168.5"/>
<text text-anchor="middle" x="1030.5" y="-175.5" font-family="FreeSans.ttf" font-size="10.00" fill="#000000">iDynTree/Core/VectorFixSize.h</text>
</a>
</g>
</g>
<!-- Node20&#45;&gt;Node21 -->
<g id="edge27" class="edge">
<title>Node20&#45;&gt;Node21</title>
<path fill="none" stroke="#191970" d="M1023.75,-229.8906C1024.8589,-221.3657 1026.5144,-208.6392 1027.9083,-197.9235"/>
<polygon fill="#191970" stroke="#191970" points="1031.4131,-198.1128 1029.2324,-187.7449 1024.4716,-197.2098 1031.4131,-198.1128"/>
</g>
<!-- Node21&#45;&gt;Node3 -->
<g id="edge28" class="edge">
<title>Node21&#45;&gt;Node3</title>
<path fill="none" stroke="#191970" d="M1072.8206,-168.4562C1092.7335,-161.6961 1114.8383,-150.4364 1127.5,-132 1136.6371,-118.6957 1137.2532,-100.1233 1135.9479,-86.0682"/>
<polygon fill="#191970" stroke="#191970" points="1139.3914,-85.409 1134.6153,-75.9517 1132.4514,-86.3232 1139.3914,-85.409"/>
</g>
<!-- Node21&#45;&gt;Node7 -->
<g id="edge32" class="edge">
<title>Node21&#45;&gt;Node7</title>
<path fill="none" stroke="#191970" d="M1026.26,-168.4359C1020.4131,-155.4482 1009.3609,-131.6046 998.5,-112 981.7956,-81.8475 960.059,-48.222 946.7024,-28.1062"/>
<polygon fill="#191970" stroke="#191970" points="949.5064,-26.0028 941.0403,-19.6328 943.6862,-29.892 949.5064,-26.0028"/>
</g>
<!-- Node21&#45;&gt;Node9 -->
<g id="edge29" class="edge">
<title>Node21&#45;&gt;Node9</title>
<path fill="none" stroke="#191970" d="M1024.9611,-168.0729C1016.1381,-153.2669 997.4196,-125.6794 973.5,-112 943.2219,-94.6842 855.4385,-81.3181 791.9875,-73.5625"/>
<polygon fill="#191970" stroke="#191970" points="792.3714,-70.0836 782.0254,-72.3662 791.5368,-77.0336 792.3714,-70.0836"/>
</g>
<!-- Node21&#45;&gt;Node16 -->
<g id="edge33" class="edge">
<title>Node21&#45;&gt;Node16</title>
<path fill="none" stroke="#191970" d="M1014.649,-168.2455C1000.6868,-159.6534 980.1272,-147.0014 964.0404,-137.1018"/>
<polygon fill="#191970" stroke="#191970" points="965.5203,-133.9029 955.1693,-131.6427 961.8516,-139.8645 965.5203,-133.9029"/>
</g>
<!-- Node21&#45;&gt;Node17 -->
<g id="edge30" class="edge">
<title>Node21&#45;&gt;Node17</title>
<path fill="none" stroke="#191970" d="M949.7307,-169.1548C945.9348,-168.7598 942.1764,-168.3731 938.5,-168 767.0772,-150.6051 561.5455,-131.9505 483.0954,-124.9104"/>
<polygon fill="#191970" stroke="#191970" points="483.1585,-121.4021 472.886,-123.9954 482.5336,-128.3742 483.1585,-121.4021"/>
</g>
<!-- Node21&#45;&gt;Node19 -->
<g id="edge31" class="edge">
<title>Node21&#45;&gt;Node19</title>
<path fill="none" stroke="#191970" d="M1060.0679,-168.3733C1089.0155,-158.9484 1133.2358,-144.5511 1164.7184,-134.301"/>
<polygon fill="#191970" stroke="#191970" points="1166.0318,-137.5543 1174.4569,-131.1303 1163.8646,-130.8982 1166.0318,-137.5543"/>
</g>
<!-- Node22&#45;&gt;Node2 -->
<g id="edge50" class="edge">
<title>Node22&#45;&gt;Node2</title>
<path fill="none" stroke="#191970" d="M691.4655,-403.2659C718.0103,-387.2372 769.4298,-352.8558 799.5,-311 825.1795,-275.2559 839.3512,-224.7327 845.5824,-197.3929"/>
<polygon fill="#191970" stroke="#191970" points="849.0264,-198.0254 847.715,-187.5121 842.1839,-196.5485 849.0264,-198.0254"/>
</g>
<!-- Node22&#45;&gt;Node17 -->
<g id="edge51" class="edge">
<title>Node22&#45;&gt;Node17</title>
<path fill="none" stroke="#191970" d="M625.1379,-403.492C516.7259,-381.5031 263.5611,-323.7259 214.5,-255 158.781,-176.9476 341.5535,-138.8547 418.2415,-126.5841"/>
<polygon fill="#191970" stroke="#191970" points="418.9762,-130.0122 428.3226,-125.0226 417.9047,-123.0947 418.9762,-130.0122"/>
</g>
<!-- Node23 -->
<g id="node24" class="node">
<title>Node23</title>
<g id="a_node24"><a xlink:href="Position_8h.html" target="_top" xlink:title="iDynTree/Core/Position.h">
<polygon fill="none" stroke="#000000" points="558.5,-347.5 558.5,-366.5 694.5,-366.5 694.5,-347.5 558.5,-347.5"/>
<text text-anchor="middle" x="626.5" y="-354.5" font-family="FreeSans.ttf" font-size="10.00" fill="#000000">iDynTree/Core/Position.h</text>
</a>
</g>
</g>
<!-- Node22&#45;&gt;Node23 -->
<g id="edge36" class="edge">
<title>Node22&#45;&gt;Node23</title>
<path fill="none" stroke="#191970" d="M666.139,-403.2455C659.325,-395.2958 649.5319,-383.8706 641.3848,-374.3656"/>
<polygon fill="#191970" stroke="#191970" points="643.9305,-371.9575 634.7651,-366.6427 638.6157,-376.513 643.9305,-371.9575"/>
</g>
<!-- Node25 -->
<g id="node26" class="node">
<title>Node25</title>
<g id="a_node26"><a xlink:href="Rotation_8h.html" target="_top" xlink:title="iDynTree/Core/Rotation.h">
<polygon fill="none" stroke="#000000" points="654,-291.5 654,-310.5 791,-310.5 791,-291.5 654,-291.5"/>
<text text-anchor="middle" x="722.5" y="-298.5" font-family="FreeSans.ttf" font-size="10.00" fill="#000000">iDynTree/Core/Rotation.h</text>
</a>
</g>
</g>
<!-- Node22&#45;&gt;Node25 -->
<g id="edge49" class="edge">
<title>Node22&#45;&gt;Node25</title>
<path fill="none" stroke="#191970" d="M681.8106,-403.2298C688.2667,-394.2183 697.5532,-380.2668 703.5,-367 710.2062,-352.0392 715.1897,-334.1095 718.3664,-320.7161"/>
<polygon fill="#191970" stroke="#191970" points="721.8401,-321.2203 720.6081,-310.6973 715.009,-319.6918 721.8401,-321.2203"/>
</g>
<!-- Node23&#45;&gt;Node17 -->
<g id="edge48" class="edge">
<title>Node23&#45;&gt;Node17</title>
<path fill="none" stroke="#191970" d="M582.1515,-347.4561C535.8786,-334.9042 465.5586,-307.9299 432.5,-255 410.2815,-219.4262 428.2078,-168.1231 440.8089,-140.7984"/>
<polygon fill="#191970" stroke="#191970" points="444.0641,-142.1073 445.2829,-131.5828 437.767,-139.0502 444.0641,-142.1073"/>
</g>
<!-- Node24 -->
<g id="node25" class="node">
<title>Node24</title>
<g id="a_node25"><a xlink:href="PositionRaw_8h.html" target="_top" xlink:title="iDynTree/Core/PositionRaw.h">
<polygon fill="none" stroke="#000000" points="635.5,-230 635.5,-249 791.5,-249 791.5,-230 635.5,-230"/>
<text text-anchor="middle" x="713.5" y="-237" font-family="FreeSans.ttf" font-size="10.00" fill="#000000">iDynTree/Core/PositionRaw.h</text>
</a>
</g>
</g>
<!-- Node23&#45;&gt;Node24 -->
<g id="edge37" class="edge">
<title>Node23&#45;&gt;Node24</title>
<path fill="none" stroke="#191970" d="M627.1803,-347.2187C628.5456,-333.5558 632.5991,-308.4728 644.5,-291 654.8541,-275.7982 671.1956,-263.3121 685.3767,-254.4431"/>
<polygon fill="#191970" stroke="#191970" points="687.4877,-257.2602 694.2991,-249.145 683.9137,-251.2413 687.4877,-257.2602"/>
</g>
<!-- Node23&#45;&gt;Node25 -->
<g id="edge40" class="edge">
<title>Node23&#45;&gt;Node25</title>
<path fill="none" stroke="#191970" d="M643.2219,-347.2455C658.0889,-338.5731 680.0466,-325.7645 697.0858,-315.825"/>
<polygon fill="#191970" stroke="#191970" points="699.0955,-318.7047 705.9697,-310.6427 695.5683,-312.6582 699.0955,-318.7047"/>
</g>
<!-- Node24&#45;&gt;Node17 -->
<g id="edge39" class="edge">
<title>Node24&#45;&gt;Node17</title>
<path fill="none" stroke="#191970" d="M710.8135,-229.8896C705.9283,-214.2869 694.0491,-183.6206 672.5,-168 642.5487,-146.2889 536.8948,-131.6608 482.8556,-125.4193"/>
<polygon fill="#191970" stroke="#191970" points="483.1027,-121.9251 472.7736,-124.2833 482.3188,-128.8811 483.1027,-121.9251"/>
</g>
<!-- Node24&#45;&gt;Node21 -->
<g id="edge38" class="edge">
<title>Node24&#45;&gt;Node21</title>
<path fill="none" stroke="#191970" d="M762.6834,-229.9581C818.9886,-219.0345 911.1783,-201.1492 971.353,-189.4749"/>
<polygon fill="#191970" stroke="#191970" points="972.3117,-192.8542 981.462,-187.5137 970.9784,-185.9824 972.3117,-192.8542"/>
</g>
<!-- Node25&#45;&gt;Node17 -->
<g id="edge41" class="edge">
<title>Node25&#45;&gt;Node17</title>
<path fill="none" stroke="#191970" d="M653.7958,-293.9901C577.5784,-285.507 463.5415,-270.4322 450.5,-255 423.5401,-223.0979 434.6802,-169.8746 443.5378,-141.3898"/>
<polygon fill="#191970" stroke="#191970" points="446.8991,-142.3736 446.7366,-131.78 440.2574,-140.1628 446.8991,-142.3736"/>
</g>
<!-- Node25&#45;&gt;Node21 -->
<g id="edge47" class="edge">
<title>Node25&#45;&gt;Node21</title>
<path fill="none" stroke="#191970" d="M746.1349,-291.4872C782.3569,-276.916 853.7863,-248.2123 914.5,-224 942.1445,-212.9755 973.5234,-200.5367 996.6682,-191.3761"/>
<polygon fill="#191970" stroke="#191970" points="998.0375,-194.5984 1006.0483,-187.6646 995.462,-188.0894 998.0375,-194.5984"/>
</g>
<!-- Node26 -->
<g id="node27" class="node">
<title>Node26</title>
<g id="a_node27"><a xlink:href="GeomVector3_8h.html" target="_top" xlink:title="iDynTree/Core/GeomVector3.h">
<polygon fill="none" stroke="#000000" points="1216,-230 1216,-249 1379,-249 1379,-230 1216,-230"/>
<text text-anchor="middle" x="1297.5" y="-237" font-family="FreeSans.ttf" font-size="10.00" fill="#000000">iDynTree/Core/GeomVector3.h</text>
</a>
</g>
</g>
<!-- Node25&#45;&gt;Node26 -->
<g id="edge42" class="edge">
<title>Node25&#45;&gt;Node26</title>
<path fill="none" stroke="#191970" d="M791.0024,-293.6732C894.1985,-282.6357 1089.7319,-261.7222 1205.3327,-249.3579"/>
<polygon fill="#191970" stroke="#191970" points="1206.0054,-252.806 1215.5765,-248.2623 1205.2609,-245.8457 1206.0054,-252.806"/>
</g>
<!-- Node27 -->
<g id="node28" class="node">
<title>Node27</title>
<g id="a_node28"><a xlink:href="RotationRaw_8h.html" target="_top" xlink:title="iDynTree/Core/RotationRaw.h">
<polygon fill="none" stroke="#000000" points="459.5,-230 459.5,-249 617.5,-249 617.5,-230 459.5,-230"/>
<text text-anchor="middle" x="538.5" y="-237" font-family="FreeSans.ttf" font-size="10.00" fill="#000000">iDynTree/Core/RotationRaw.h</text>
</a>
</g>
</g>
<!-- Node25&#45;&gt;Node27 -->
<g id="edge44" class="edge">
<title>Node25&#45;&gt;Node27</title>
<path fill="none" stroke="#191970" d="M693.75,-291.3906C662.2883,-280.8749 611.6992,-263.966 576.8686,-252.3243"/>
<polygon fill="#191970" stroke="#191970" points="577.6419,-248.8925 567.0481,-249.0419 575.4228,-255.5315 577.6419,-248.8925"/>
</g>
<!-- Node26&#45;&gt;Node21 -->
<g id="edge43" class="edge">
<title>Node26&#45;&gt;Node21</title>
<path fill="none" stroke="#191970" d="M1256.0742,-229.9581C1209.1106,-219.1406 1132.5067,-201.4959 1081.8021,-189.8168"/>
<polygon fill="#191970" stroke="#191970" points="1082.5535,-186.3983 1072.023,-187.5643 1080.9822,-193.2196 1082.5535,-186.3983"/>
</g>
<!-- Node27&#45;&gt;Node2 -->
<g id="edge45" class="edge">
<title>Node27&#45;&gt;Node2</title>
<path fill="none" stroke="#191970" d="M586.7525,-229.9581C641.992,-219.0345 732.4368,-201.1492 791.4725,-189.4749"/>
<polygon fill="#191970" stroke="#191970" points="792.2591,-192.8872 801.3902,-187.5137 790.9011,-186.0202 792.2591,-192.8872"/>
</g>
<!-- Node27&#45;&gt;Node17 -->
<g id="edge46" class="edge">
<title>Node27&#45;&gt;Node17</title>
<path fill="none" stroke="#191970" d="M527.4746,-229.9886C516.5087,-220.1768 499.6158,-204.0795 487.5,-188 476.4131,-173.2861 466.3689,-154.8849 459.5526,-141.2529"/>
<polygon fill="#191970" stroke="#191970" points="462.525,-139.3618 455.0055,-131.8981 456.2293,-142.422 462.525,-139.3618"/>
</g>
<!-- Node29&#45;&gt;Node2 -->
<g id="edge62" class="edge">
<title>Node29&#45;&gt;Node2</title>
<path fill="none" stroke="#191970" d="M1057.776,-526.4244C1028.9462,-478.1951 899.4944,-261.6355 860.5914,-196.5548"/>
<polygon fill="#191970" stroke="#191970" points="863.477,-194.5605 855.3419,-187.773 857.4686,-198.1522 863.477,-194.5605"/>
</g>
<!-- Node29&#45;&gt;Node3 -->
<g id="edge78" class="edge">
<title>Node29&#45;&gt;Node3</title>
<path fill="none" stroke="#191970" d="M1144.1159,-533.4742C1248.6695,-529.1217 1424.5216,-517.8191 1482.5,-490 1526.1346,-469.0633 1559.5,-461.3975 1559.5,-413 1559.5,-413 1559.5,-413 1559.5,-178 1559.5,-129.4659 1517.3575,-130.53 1472.5,-112 1425.0197,-92.3866 1287.1681,-78.3203 1202.2816,-71.2302"/>
<polygon fill="#191970" stroke="#191970" points="1202.4553,-67.7327 1192.2018,-70.4002 1201.8808,-74.7091 1202.4553,-67.7327"/>
</g>
<!-- Node29&#45;&gt;Node21 -->
<g id="edge58" class="edge">
<title>Node29&#45;&gt;Node21</title>
<path fill="none" stroke="#191970" d="M1070.2427,-526.4316C1097.7399,-486.136 1196.8524,-327.5579 1130.5,-224 1120.453,-208.3194 1103.5639,-197.9113 1086.4979,-191.0336"/>
<polygon fill="#191970" stroke="#191970" points="1087.6345,-187.7226 1077.0409,-187.5649 1085.224,-194.2945 1087.6345,-187.7226"/>
</g>
<!-- Node29&#45;&gt;Node22 -->
<g id="edge77" class="edge">
<title>Node29&#45;&gt;Node22</title>
<path fill="none" stroke="#191970" d="M1033.2995,-526.4507C963.8531,-504.4921 792.7915,-450.4032 714.6298,-425.6888"/>
<polygon fill="#191970" stroke="#191970" points="715.2712,-422.2209 704.6813,-422.5432 713.1608,-428.8952 715.2712,-422.2209"/>
</g>
<!-- Node29&#45;&gt;Node28 -->
<g id="edge54" class="edge">
<title>Node29&#45;&gt;Node28</title>
<path fill="none" stroke="#191970" d="M1144.1091,-533.5677C1245.2036,-529.4121 1423.481,-518.4218 1573.5,-490 1578.1979,-489.11 1583.0769,-487.9784 1587.8882,-486.7332"/>
<polygon fill="#191970" stroke="#191970" points="1588.8791,-490.0907 1597.5892,-484.0587 1587.0186,-483.3425 1588.8791,-490.0907"/>
</g>
<!-- Node30 -->
<g id="node31" class="node">
<title>Node30</title>
<g id="a_node31"><a xlink:href="VectorDynSize_8h.html" target="_top" xlink:title="iDynTree/Core/VectorDynSize.h">
<polygon fill="none" stroke="#000000" points="0,-168.5 0,-187.5 167,-187.5 167,-168.5 0,-168.5"/>
<text text-anchor="middle" x="83.5" y="-175.5" font-family="FreeSans.ttf" font-size="10.00" fill="#000000">iDynTree/Core/VectorDynSize.h</text>
</a>
</g>
</g>
<!-- Node29&#45;&gt;Node30 -->
<g id="edge55" class="edge">
<title>Node29&#45;&gt;Node30</title>
<path fill="none" stroke="#191970" d="M982.6848,-530.9151C905.5944,-524.9515 786.579,-512.8341 685.5,-490 526.7143,-454.1298 486.8734,-438.2347 340.5,-367 241.4698,-318.8055 141.2186,-231.4441 101.3967,-194.8437"/>
<polygon fill="#191970" stroke="#191970" points="103.5515,-192.0685 93.8386,-187.8364 98.7923,-197.2018 103.5515,-192.0685"/>
</g>
<!-- Node31 -->
<g id="node32" class="node">
<title>Node31</title>
<g id="a_node32"><a xlink:href="MatrixDynSize_8h.html" target="_top" xlink:title="iDynTree/Core/MatrixDynSize.h">
<polygon fill="none" stroke="#000000" points="497,-168.5 497,-187.5 664,-187.5 664,-168.5 497,-168.5"/>
<text text-anchor="middle" x="580.5" y="-175.5" font-family="FreeSans.ttf" font-size="10.00" fill="#000000">iDynTree/Core/MatrixDynSize.h</text>
</a>
</g>
</g>
<!-- Node29&#45;&gt;Node31 -->
<g id="edge59" class="edge">
<title>Node29&#45;&gt;Node31</title>
<path fill="none" stroke="#191970" d="M1006.3868,-526.4526C830.6535,-495.745 304.4435,-393.4017 214.5,-255 206.9923,-243.4474 205.3853,-234.332 214.5,-224 232.2844,-203.8405 384.1912,-190.337 486.6297,-183.4307"/>
<polygon fill="#191970" stroke="#191970" points="486.9457,-186.9175 496.6918,-182.7627 486.4819,-179.9329 486.9457,-186.9175"/>
</g>
<!-- Node32 -->
<g id="node33" class="node">
<title>Node32</title>
<g id="a_node33"><a xlink:href="SpatialMotionVector_8h.html" target="_top" xlink:title="iDynTree/Core/SpatialMotion\lVector.h">
<polygon fill="none" stroke="#000000" points="1318,-459.5 1318,-489.5 1473,-489.5 1473,-459.5 1318,-459.5"/>
<text text-anchor="start" x="1326" y="-477.5" font-family="FreeSans.ttf" font-size="10.00" fill="#000000">iDynTree/Core/SpatialMotion</text>
<text text-anchor="middle" x="1395.5" y="-466.5" font-family="FreeSans.ttf" font-size="10.00" fill="#000000">Vector.h</text>
</a>
</g>
</g>
<!-- Node29&#45;&gt;Node32 -->
<g id="edge63" class="edge">
<title>Node29&#45;&gt;Node32</title>
<path fill="none" stroke="#191970" d="M1115.0107,-526.4581C1166.4245,-516.9342 1246.4069,-502.1182 1307.8275,-490.7405"/>
<polygon fill="#191970" stroke="#191970" points="1308.7095,-494.1368 1317.9047,-488.8738 1307.4345,-487.2539 1308.7095,-494.1368"/>
</g>
<!-- Node34 -->
<g id="node35" class="node">
<title>Node34</title>
<g id="a_node35"><a xlink:href="SpatialForceVector_8h.html" target="_top" xlink:title="iDynTree/Core/SpatialForce\lVector.h">
<polygon fill="none" stroke="#000000" points="1151.5,-459.5 1151.5,-489.5 1299.5,-489.5 1299.5,-459.5 1151.5,-459.5"/>
<text text-anchor="start" x="1159.5" y="-477.5" font-family="FreeSans.ttf" font-size="10.00" fill="#000000">iDynTree/Core/SpatialForce</text>
<text text-anchor="middle" x="1225.5" y="-466.5" font-family="FreeSans.ttf" font-size="10.00" fill="#000000">Vector.h</text>
</a>
</g>
</g>
<!-- Node29&#45;&gt;Node34 -->
<g id="edge73" class="edge">
<title>Node29&#45;&gt;Node34</title>
<path fill="none" stroke="#191970" d="M1088.8125,-526.3906C1112.1583,-517.5279 1147.4662,-504.1239 1176.3484,-493.1594"/>
<polygon fill="#191970" stroke="#191970" points="1177.7636,-496.366 1185.8703,-489.5446 1175.2791,-489.8217 1177.7636,-496.366"/>
</g>
<!-- Node30&#45;&gt;Node9 -->
<g id="edge56" class="edge">
<title>Node30&#45;&gt;Node9</title>
<path fill="none" stroke="#191970" d="M128.765,-168.4692C193.1907,-155.0499 315.1076,-130.1947 419.5,-112 498.5641,-98.2198 589.6804,-84.6578 650.9739,-75.871"/>
<polygon fill="#191970" stroke="#191970" points="651.5218,-79.3284 660.9261,-74.4487 650.5314,-72.3988 651.5218,-79.3284"/>
</g>
<!-- Node30&#45;&gt;Node17 -->
<g id="edge57" class="edge">
<title>Node30&#45;&gt;Node17</title>
<path fill="none" stroke="#191970" d="M146.1725,-168.4369C224.9696,-156.4134 357.2761,-136.2249 418.1126,-126.942"/>
<polygon fill="#191970" stroke="#191970" points="418.9131,-130.3604 428.2707,-125.3919 417.8571,-123.4405 418.9131,-130.3604"/>
</g>
<!-- Node31&#45;&gt;Node6 -->
<g id="edge61" class="edge">
<title>Node31&#45;&gt;Node6</title>
<path fill="none" stroke="#191970" d="M606.6297,-168.3733C631.5768,-159.1822 669.3592,-145.2624 697.0206,-135.0713"/>
<polygon fill="#191970" stroke="#191970" points="698.5378,-138.2424 706.7112,-131.5011 696.1178,-131.674 698.5378,-138.2424"/>
</g>
<!-- Node31&#45;&gt;Node17 -->
<g id="edge60" class="edge">
<title>Node31&#45;&gt;Node17</title>
<path fill="none" stroke="#191970" d="M558.1522,-168.3733C537.0967,-159.3032 505.3505,-145.6279 481.7825,-135.4755"/>
<polygon fill="#191970" stroke="#191970" points="483.125,-132.243 472.5562,-131.5011 480.3556,-138.6719 483.125,-132.243"/>
</g>
<!-- Node32&#45;&gt;Node21 -->
<g id="edge64" class="edge">
<title>Node32&#45;&gt;Node21</title>
<path fill="none" stroke="#191970" d="M1425.8986,-459.4946C1439.765,-450.8907 1454.7848,-438.6614 1462.5,-423 1496.602,-353.7751 1616.7031,-398.668 1388.5,-224 1367.633,-208.0283 1220.4119,-193.2378 1121.3779,-184.9377"/>
<polygon fill="#191970" stroke="#191970" points="1121.6072,-181.4448 1111.3519,-184.1057 1121.0282,-188.4208 1121.6072,-181.4448"/>
</g>
<!-- Node32&#45;&gt;Node26 -->
<g id="edge65" class="edge">
<title>Node32&#45;&gt;Node26</title>
<path fill="none" stroke="#191970" d="M1331.6341,-459.4458C1312.9139,-451.7445 1294.5276,-440.2083 1283.5,-423 1250.5363,-371.561 1274.628,-294.5861 1288.9317,-258.9227"/>
<polygon fill="#191970" stroke="#191970" points="1292.346,-259.8308 1292.9826,-249.2551 1285.8899,-257.1255 1292.346,-259.8308"/>
</g>
<!-- Node33 -->
<g id="node34" class="node">
<title>Node33</title>
<g id="a_node34"><a xlink:href="SpatialVector_8h.html" target="_top" xlink:title="iDynTree/Core/SpatialVector.h">
<polygon fill="none" stroke="#000000" points="1292,-403.5 1292,-422.5 1453,-422.5 1453,-403.5 1292,-403.5"/>
<text text-anchor="middle" x="1372.5" y="-410.5" font-family="FreeSans.ttf" font-size="10.00" fill="#000000">iDynTree/Core/SpatialVector.h</text>
</a>
</g>
</g>
<!-- Node32&#45;&gt;Node33 -->
<g id="edge66" class="edge">
<title>Node32&#45;&gt;Node33</title>
<path fill="none" stroke="#191970" d="M1389.8146,-459.2977C1386.755,-451.1166 1382.9502,-440.943 1379.6872,-432.2179"/>
<polygon fill="#191970" stroke="#191970" points="1382.9638,-430.9873 1376.1826,-422.8469 1376.4073,-433.4394 1382.9638,-430.9873"/>
</g>
<!-- Node33&#45;&gt;Node3 -->
<g id="edge69" class="edge">
<title>Node33&#45;&gt;Node3</title>
<path fill="none" stroke="#191970" d="M1407.8109,-403.4663C1451.8722,-389.1751 1521.5,-357.632 1521.5,-301 1521.5,-301 1521.5,-301 1521.5,-178 1521.5,-112.3198 1314.1247,-82.8435 1202.1984,-71.7176"/>
<polygon fill="#191970" stroke="#191970" points="1202.2954,-68.2107 1192.0042,-70.7287 1201.6195,-75.178 1202.2954,-68.2107"/>
</g>
<!-- Node33&#45;&gt;Node18 -->
<g id="edge71" class="edge">
<title>Node33&#45;&gt;Node18</title>
<path fill="none" stroke="#191970" d="M1377.358,-403.1994C1391.5007,-373.1243 1429.1497,-280.7558 1388.5,-224 1357.601,-180.8582 1202.8927,-144.8115 1128.5332,-129.6678"/>
<polygon fill="#191970" stroke="#191970" points="1129.0888,-126.2095 1118.5953,-127.6711 1127.7099,-133.0724 1129.0888,-126.2095"/>
</g>
<!-- Node33&#45;&gt;Node19 -->
<g id="edge72" class="edge">
<title>Node33&#45;&gt;Node19</title>
<path fill="none" stroke="#191970" d="M1393.6395,-403.4901C1425.8452,-387.3882 1483.5,-351.5089 1483.5,-301 1483.5,-301 1483.5,-301 1483.5,-239.5 1483.5,-205.9798 1484.876,-189.9012 1459.5,-168 1427.3203,-140.2268 1304.3418,-128.458 1240.8855,-124.1503"/>
<polygon fill="#191970" stroke="#191970" points="1241.0731,-120.6552 1230.867,-123.4988 1240.6187,-127.6404 1241.0731,-120.6552"/>
</g>
<!-- Node33&#45;&gt;Node23 -->
<g id="edge67" class="edge">
<title>Node33&#45;&gt;Node23</title>
<path fill="none" stroke="#191970" d="M1291.9561,-406.9538C1147.7291,-396.1271 847.1661,-373.5647 704.6726,-362.8682"/>
<polygon fill="#191970" stroke="#191970" points="704.9245,-359.3773 694.6905,-362.1189 704.4004,-366.3577 704.9245,-359.3773"/>
</g>
<!-- Node33&#45;&gt;Node25 -->
<g id="edge68" class="edge">
<title>Node33&#45;&gt;Node25</title>
<path fill="none" stroke="#191970" d="M1317.3618,-403.4993C1197.9794,-382.9288 916.0329,-334.3472 787.9046,-312.2697"/>
<polygon fill="#191970" stroke="#191970" points="788.2888,-308.7844 777.8397,-310.5355 787.1001,-315.6828 788.2888,-308.7844"/>
</g>
<!-- Node33&#45;&gt;Node26 -->
<g id="edge70" class="edge">
<title>Node33&#45;&gt;Node26</title>
<path fill="none" stroke="#191970" d="M1368.3608,-403.4248C1356.4031,-375.7625 1321.6476,-295.3614 1305.6874,-258.4403"/>
<polygon fill="#191970" stroke="#191970" points="1308.8995,-257.0498 1301.7188,-249.2595 1302.4741,-259.8274 1308.8995,-257.0498"/>
</g>
<!-- Node34&#45;&gt;Node21 -->
<g id="edge74" class="edge">
<title>Node34&#45;&gt;Node21</title>
<path fill="none" stroke="#191970" d="M1217.2546,-459.42C1206.0785,-437.5326 1187.5,-395.3768 1187.5,-357 1187.5,-357 1187.5,-357 1187.5,-301 1187.5,-265.154 1188.4531,-249.7348 1163.5,-224 1147.7186,-207.7242 1125.9045,-197.2037 1104.5041,-190.4047"/>
<polygon fill="#191970" stroke="#191970" points="1105.3046,-186.9921 1094.7237,-187.5353 1103.334,-193.709 1105.3046,-186.9921"/>
</g>
<!-- Node34&#45;&gt;Node26 -->
<g id="edge75" class="edge">
<title>Node34&#45;&gt;Node26</title>
<path fill="none" stroke="#191970" d="M1224.4637,-459.3731C1222.8613,-426.8491 1222.3954,-348.5522 1249.5,-291 1255.9102,-277.389 1267.2536,-264.9604 1277.3041,-255.724"/>
<polygon fill="#191970" stroke="#191970" points="1279.7325,-258.2501 1284.9682,-249.0393 1275.1313,-252.9748 1279.7325,-258.2501"/>
</g>
<!-- Node34&#45;&gt;Node33 -->
<g id="edge76" class="edge">
<title>Node34&#45;&gt;Node33</title>
<path fill="none" stroke="#191970" d="M1261.4602,-459.4554C1285.5573,-449.374 1317.013,-436.2139 1340.2903,-426.4755"/>
<polygon fill="#191970" stroke="#191970" points="1341.8459,-429.6187 1349.7202,-422.5303 1339.1442,-423.1611 1341.8459,-429.6187"/>
</g>
</g>
</svg>
