<?xml version="1.0" encoding="UTF-8" standalone="no"?>
<!DOCTYPE svg PUBLIC "-//W3C//DTD SVG 1.1//EN"
 "http://www.w3.org/Graphics/SVG/1.1/DTD/svg11.dtd">
<!-- Generated by graphviz version 2.40.1 (20161225.0304)
 -->
<!-- Title: Twist.h Pages: 1 -->
<svg width="1108pt" height="543pt"
 viewBox="0.00 0.00 1107.50 543.00" xmlns="http://www.w3.org/2000/svg" xmlns:xlink="http://www.w3.org/1999/xlink">
<g id="graph0" class="graph" transform="scale(1 1) rotate(0) translate(4 539)">
<title>Twist.h</title>
<!-- Node0 -->
<g id="node1" class="node">
<title>Node0</title>
<polygon fill="#bfbfbf" stroke="#000000" points="564.5,-515.5 564.5,-534.5 614.5,-534.5 614.5,-515.5 564.5,-515.5"/>
<text text-anchor="middle" x="589.5" y="-522.5" font-family="FreeSans.ttf" font-size="10.00" fill="#000000">Twist.h</text>
</g>
<!-- Node1 -->
<g id="node2" class="node">
<title>Node1</title>
<g id="a_node2"><a xlink:href="SpatialMotionVector_8h.html" target="_top" xlink:title="iDynTree/Core/SpatialMotion\lVector.h">
<polygon fill="none" stroke="#000000" points="512,-448.5 512,-478.5 667,-478.5 667,-448.5 512,-448.5"/>
<text text-anchor="start" x="520" y="-466.5" font-family="FreeSans.ttf" font-size="10.00" fill="#000000">iDynTree/Core/SpatialMotion</text>
<text text-anchor="middle" x="589.5" y="-455.5" font-family="FreeSans.ttf" font-size="10.00" fill="#000000">Vector.h</text>
</a>
</g>
</g>
<!-- Node0&#45;&gt;Node1 -->
<g id="edge1" class="edge">
<title>Node0&#45;&gt;Node1</title>
<path fill="none" stroke="#191970" d="M589.5,-515.3906C589.5,-508.2234 589.5,-498.0862 589.5,-488.671"/>
<polygon fill="#191970" stroke="#191970" points="593.0001,-488.5446 589.5,-478.5446 586.0001,-488.5446 593.0001,-488.5446"/>
</g>
<!-- Node2 -->
<g id="node3" class="node">
<title>Node2</title>
<g id="a_node3"><a xlink:href="VectorFixSize_8h.html" target="_top" xlink:title="iDynTree/Core/VectorFixSize.h">
<polygon fill="none" stroke="#000000" points="584,-168.5 584,-187.5 745,-187.5 745,-168.5 584,-168.5"/>
<text text-anchor="middle" x="664.5" y="-175.5" font-family="FreeSans.ttf" font-size="10.00" fill="#000000">iDynTree/Core/VectorFixSize.h</text>
</a>
</g>
</g>
<!-- Node1&#45;&gt;Node2 -->
<g id="edge2" class="edge">
<title>Node1&#45;&gt;Node2</title>
<path fill="none" stroke="#191970" d="M651.7765,-448.4968C728.6952,-428.1127 849.5,-389.2187 849.5,-346 849.5,-346 849.5,-346 849.5,-290 849.5,-232.652 783.641,-203.8663 730.5129,-189.9749"/>
<polygon fill="#191970" stroke="#191970" points="731.3086,-186.5663 720.7596,-187.5509 729.6201,-193.3596 731.3086,-186.5663"/>
</g>
<!-- Node18 -->
<g id="node19" class="node">
<title>Node18</title>
<g id="a_node19"><a xlink:href="GeomVector3_8h.html" target="_top" xlink:title="iDynTree/Core/GeomVector3.h">
<polygon fill="none" stroke="#000000" points="406,-224.5 406,-243.5 569,-243.5 569,-224.5 406,-224.5"/>
<text text-anchor="middle" x="487.5" y="-231.5" font-family="FreeSans.ttf" font-size="10.00" fill="#000000">iDynTree/Core/GeomVector3.h</text>
</a>
</g>
</g>
<!-- Node1&#45;&gt;Node18 -->
<g id="edge20" class="edge">
<title>Node1&#45;&gt;Node18</title>
<path fill="none" stroke="#191970" d="M545.3817,-448.3711C528.4968,-440.2751 510.8289,-428.4908 500.5,-412 469.3335,-362.2404 477.1834,-288.6188 483.3657,-253.724"/>
<polygon fill="#191970" stroke="#191970" points="486.8161,-254.315 485.2628,-243.8347 479.9414,-252.9962 486.8161,-254.315"/>
</g>
<!-- Node19 -->
<g id="node20" class="node">
<title>Node19</title>
<g id="a_node20"><a xlink:href="SpatialVector_8h.html" target="_top" xlink:title="iDynTree/Core/SpatialVector.h">
<polygon fill="none" stroke="#000000" points="509,-392.5 509,-411.5 670,-411.5 670,-392.5 509,-392.5"/>
<text text-anchor="middle" x="589.5" y="-399.5" font-family="FreeSans.ttf" font-size="10.00" fill="#000000">iDynTree/Core/SpatialVector.h</text>
</a>
</g>
</g>
<!-- Node1&#45;&gt;Node19 -->
<g id="edge22" class="edge">
<title>Node1&#45;&gt;Node19</title>
<path fill="none" stroke="#191970" d="M589.5,-448.2977C589.5,-440.3834 589.5,-430.6043 589.5,-422.0759"/>
<polygon fill="#191970" stroke="#191970" points="593.0001,-421.8469 589.5,-411.8469 586.0001,-421.847 593.0001,-421.8469"/>
</g>
<!-- Node3 -->
<g id="node4" class="node">
<title>Node3</title>
<g id="a_node4"><a xlink:href="Utils_8h.html" target="_top" xlink:title="iDynTree/Core/Utils.h">
<polygon fill="none" stroke="#000000" points="535,-56.5 535,-75.5 654,-75.5 654,-56.5 535,-56.5"/>
<text text-anchor="middle" x="594.5" y="-63.5" font-family="FreeSans.ttf" font-size="10.00" fill="#000000">iDynTree/Core/Utils.h</text>
</a>
</g>
</g>
<!-- Node2&#45;&gt;Node3 -->
<g id="edge3" class="edge">
<title>Node2&#45;&gt;Node3</title>
<path fill="none" stroke="#191970" d="M670.567,-168.3481C678.208,-154.839 689.1281,-129.9374 678.5,-112 669.6564,-97.0742 654.0668,-86.6736 638.6998,-79.589"/>
<polygon fill="#191970" stroke="#191970" points="639.7971,-76.2534 629.2227,-75.5956 637.0789,-82.7041 639.7971,-76.2534"/>
</g>
<!-- Node6 -->
<g id="node7" class="node">
<title>Node6</title>
<g id="a_node7"><a xlink:href="Span_8h.html" target="_top" xlink:title="iDynTree/Core/Span.h">
<polygon fill="none" stroke="#000000" points="259,-56.5 259,-75.5 380,-75.5 380,-56.5 259,-56.5"/>
<text text-anchor="middle" x="319.5" y="-63.5" font-family="FreeSans.ttf" font-size="10.00" fill="#000000">iDynTree/Core/Span.h</text>
</a>
</g>
</g>
<!-- Node2&#45;&gt;Node6 -->
<g id="edge6" class="edge">
<title>Node2&#45;&gt;Node6</title>
<path fill="none" stroke="#191970" d="M664.7615,-168.2118C664.5738,-153.5871 661.8816,-126.2332 645.5,-112 626.5707,-95.5533 480.4046,-80.0393 390.3372,-71.9076"/>
<polygon fill="#191970" stroke="#191970" points="390.4559,-68.4044 380.1842,-71.0007 389.8331,-75.3766 390.4559,-68.4044"/>
</g>
<!-- Node7 -->
<g id="node8" class="node">
<title>Node7</title>
<polygon fill="none" stroke="#bfbfbf" points="581.5,-.5 581.5,-19.5 633.5,-19.5 633.5,-.5 581.5,-.5"/>
<text text-anchor="middle" x="607.5" y="-7.5" font-family="FreeSans.ttf" font-size="10.00" fill="#000000">cassert</text>
</g>
<!-- Node2&#45;&gt;Node7 -->
<g id="edge18" class="edge">
<title>Node2&#45;&gt;Node7</title>
<path fill="none" stroke="#191970" d="M673.2861,-168.2709C680.5686,-159.5036 690.3705,-145.8915 694.5,-132 697.0329,-123.4796 696.7232,-120.6064 694.5,-112 687.385,-84.4562 681.7035,-77.8613 663.5,-56 653.971,-44.5563 641.2828,-33.8614 630.3935,-25.6692"/>
<polygon fill="#191970" stroke="#191970" points="632.2874,-22.7188 622.1409,-19.6692 628.171,-28.3806 632.2874,-22.7188"/>
</g>
<!-- Node15 -->
<g id="node16" class="node">
<title>Node15</title>
<polygon fill="none" stroke="#bfbfbf" points="779.5,-112.5 779.5,-131.5 823.5,-131.5 823.5,-112.5 779.5,-112.5"/>
<text text-anchor="middle" x="801.5" y="-119.5" font-family="FreeSans.ttf" font-size="10.00" fill="#000000">string</text>
</g>
<!-- Node2&#45;&gt;Node15 -->
<g id="edge16" class="edge">
<title>Node2&#45;&gt;Node15</title>
<path fill="none" stroke="#191970" d="M688.0511,-168.3733C710.6092,-159.1524 744.8112,-145.1721 769.7642,-134.9723"/>
<polygon fill="#191970" stroke="#191970" points="771.2311,-138.1539 779.1634,-131.1303 768.5825,-131.6743 771.2311,-138.1539"/>
</g>
<!-- Node16 -->
<g id="node17" class="node">
<title>Node16</title>
<polygon fill="none" stroke="#bfbfbf" points="512.5,-112.5 512.5,-131.5 568.5,-131.5 568.5,-112.5 512.5,-112.5"/>
<text text-anchor="middle" x="540.5" y="-119.5" font-family="FreeSans.ttf" font-size="10.00" fill="#000000">sstream</text>
</g>
<!-- Node2&#45;&gt;Node16 -->
<g id="edge17" class="edge">
<title>Node2&#45;&gt;Node16</title>
<path fill="none" stroke="#191970" d="M643.1836,-168.3733C623.2784,-159.3838 593.3564,-145.8706 570.94,-135.7471"/>
<polygon fill="#191970" stroke="#191970" points="572.0925,-132.4272 561.5382,-131.5011 569.2113,-138.8068 572.0925,-132.4272"/>
</g>
<!-- Node17 -->
<g id="node18" class="node">
<title>Node17</title>
<polygon fill="none" stroke="#bfbfbf" points="586.5,-112.5 586.5,-131.5 636.5,-131.5 636.5,-112.5 586.5,-112.5"/>
<text text-anchor="middle" x="611.5" y="-119.5" font-family="FreeSans.ttf" font-size="10.00" fill="#000000">cstring</text>
</g>
<!-- Node2&#45;&gt;Node17 -->
<g id="edge19" class="edge">
<title>Node2&#45;&gt;Node17</title>
<path fill="none" stroke="#191970" d="M655.2681,-168.2455C647.6683,-160.2155 636.7123,-148.6394 627.6632,-139.0781"/>
<polygon fill="#191970" stroke="#191970" points="630.042,-136.4998 620.6261,-131.6427 624.9579,-141.3115 630.042,-136.4998"/>
</g>
<!-- Node4 -->
<g id="node5" class="node">
<title>Node4</title>
<polygon fill="none" stroke="#bfbfbf" points="510,-.5 510,-19.5 563,-19.5 563,-.5 510,-.5"/>
<text text-anchor="middle" x="536.5" y="-7.5" font-family="FreeSans.ttf" font-size="10.00" fill="#000000">cstddef</text>
</g>
<!-- Node3&#45;&gt;Node4 -->
<g id="edge4" class="edge">
<title>Node3&#45;&gt;Node4</title>
<path fill="none" stroke="#191970" d="M584.3972,-56.2455C575.9972,-48.1352 563.8506,-36.4075 553.8916,-26.7919"/>
<polygon fill="#191970" stroke="#191970" points="556.1122,-24.0707 546.4871,-19.6427 551.25,-29.1066 556.1122,-24.0707"/>
</g>
<!-- Node5 -->
<g id="node6" class="node">
<title>Node5</title>
<polygon fill="none" stroke="#bfbfbf" points="651.5,-.5 651.5,-19.5 731.5,-19.5 731.5,-.5 651.5,-.5"/>
<text text-anchor="middle" x="691.5" y="-7.5" font-family="FreeSans.ttf" font-size="10.00" fill="#000000">CoreExport.h</text>
</g>
<!-- Node3&#45;&gt;Node5 -->
<g id="edge5" class="edge">
<title>Node3&#45;&gt;Node5</title>
<path fill="none" stroke="#191970" d="M611.3961,-56.2455C626.418,-47.5731 648.6043,-34.7645 665.821,-24.825"/>
<polygon fill="#191970" stroke="#191970" points="667.8871,-27.6737 674.7975,-19.6427 664.3872,-21.6114 667.8871,-27.6737"/>
</g>
<!-- Node6&#45;&gt;Node4 -->
<g id="edge10" class="edge">
<title>Node6&#45;&gt;Node4</title>
<path fill="none" stroke="#191970" d="M358.6433,-56.4756C393.4704,-47.919 446.0302,-34.8055 500.0315,-20.3467"/>
<polygon fill="#191970" stroke="#191970" points="501.0221,-23.7047 509.7705,-17.7284 499.2047,-16.9447 501.0221,-23.7047"/>
</g>
<!-- Node6&#45;&gt;Node7 -->
<g id="edge7" class="edge">
<title>Node6&#45;&gt;Node7</title>
<path fill="none" stroke="#191970" d="M380.1643,-56.6926C429.3201,-48.7588 500.5358,-36.3807 571.2298,-20.133"/>
<polygon fill="#191970" stroke="#191970" points="572.2518,-23.4888 581.1992,-17.8148 570.6663,-16.6708 572.2518,-23.4888"/>
</g>
<!-- Node8 -->
<g id="node9" class="node">
<title>Node8</title>
<polygon fill="none" stroke="#bfbfbf" points="150.5,-.5 150.5,-19.5 214.5,-19.5 214.5,-.5 150.5,-.5"/>
<text text-anchor="middle" x="182.5" y="-7.5" font-family="FreeSans.ttf" font-size="10.00" fill="#000000">algorithm</text>
</g>
<!-- Node6&#45;&gt;Node8 -->
<g id="edge8" class="edge">
<title>Node6&#45;&gt;Node8</title>
<path fill="none" stroke="#191970" d="M295.9489,-56.3733C273.6609,-47.2629 240.0063,-33.5062 215.1363,-23.3404"/>
<polygon fill="#191970" stroke="#191970" points="216.3247,-20.0451 205.7438,-19.5011 213.6761,-26.5247 216.3247,-20.0451"/>
</g>
<!-- Node9 -->
<g id="node10" class="node">
<title>Node9</title>
<polygon fill="none" stroke="#bfbfbf" points="232.5,-.5 232.5,-19.5 274.5,-19.5 274.5,-.5 232.5,-.5"/>
<text text-anchor="middle" x="253.5" y="-7.5" font-family="FreeSans.ttf" font-size="10.00" fill="#000000">array</text>
</g>
<!-- Node6&#45;&gt;Node9 -->
<g id="edge9" class="edge">
<title>Node6&#45;&gt;Node9</title>
<path fill="none" stroke="#191970" d="M308.0037,-56.2455C298.2558,-47.9746 284.0741,-35.9416 272.6202,-26.2232"/>
<polygon fill="#191970" stroke="#191970" points="274.7541,-23.4437 264.8646,-19.6427 270.2253,-28.7813 274.7541,-23.4437"/>
</g>
<!-- Node10 -->
<g id="node11" class="node">
<title>Node10</title>
<polygon fill="none" stroke="#bfbfbf" points="293,-.5 293,-19.5 346,-19.5 346,-.5 293,-.5"/>
<text text-anchor="middle" x="319.5" y="-7.5" font-family="FreeSans.ttf" font-size="10.00" fill="#000000">iterator</text>
</g>
<!-- Node6&#45;&gt;Node10 -->
<g id="edge11" class="edge">
<title>Node6&#45;&gt;Node10</title>
<path fill="none" stroke="#191970" d="M319.5,-56.2455C319.5,-48.9382 319.5,-38.6944 319.5,-29.7046"/>
<polygon fill="#191970" stroke="#191970" points="323.0001,-29.6426 319.5,-19.6427 316.0001,-29.6427 323.0001,-29.6426"/>
</g>
<!-- Node11 -->
<g id="node12" class="node">
<title>Node11</title>
<polygon fill="none" stroke="#bfbfbf" points="364.5,-.5 364.5,-19.5 408.5,-19.5 408.5,-.5 364.5,-.5"/>
<text text-anchor="middle" x="386.5" y="-7.5" font-family="FreeSans.ttf" font-size="10.00" fill="#000000">limits</text>
</g>
<!-- Node6&#45;&gt;Node11 -->
<g id="edge12" class="edge">
<title>Node6&#45;&gt;Node11</title>
<path fill="none" stroke="#191970" d="M331.1705,-56.2455C341.0661,-47.9746 355.4627,-35.9416 367.0901,-26.2232"/>
<polygon fill="#191970" stroke="#191970" points="369.535,-28.7413 374.9632,-19.6427 365.0458,-23.3703 369.535,-28.7413"/>
</g>
<!-- Node12 -->
<g id="node13" class="node">
<title>Node12</title>
<polygon fill="none" stroke="#bfbfbf" points="427,-.5 427,-19.5 492,-19.5 492,-.5 427,-.5"/>
<text text-anchor="middle" x="459.5" y="-7.5" font-family="FreeSans.ttf" font-size="10.00" fill="#000000">stdexcept</text>
</g>
<!-- Node6&#45;&gt;Node12 -->
<g id="edge13" class="edge">
<title>Node6&#45;&gt;Node12</title>
<path fill="none" stroke="#191970" d="M343.5669,-56.3733C366.3428,-47.2629 400.7344,-33.5062 426.149,-23.3404"/>
<polygon fill="#191970" stroke="#191970" points="427.7623,-26.4648 435.7472,-19.5011 425.1625,-19.9654 427.7623,-26.4648"/>
</g>
<!-- Node13 -->
<g id="node14" class="node">
<title>Node13</title>
<polygon fill="none" stroke="#bfbfbf" points="0,-.5 0,-19.5 69,-19.5 69,-.5 0,-.5"/>
<text text-anchor="middle" x="34.5" y="-7.5" font-family="FreeSans.ttf" font-size="10.00" fill="#000000">type_traits</text>
</g>
<!-- Node6&#45;&gt;Node13 -->
<g id="edge14" class="edge">
<title>Node6&#45;&gt;Node13</title>
<path fill="none" stroke="#191970" d="M266.0269,-56.4804C219.1137,-47.9826 148.8122,-34.8965 79.0452,-20.2724"/>
<polygon fill="#191970" stroke="#191970" points="79.7137,-16.8364 69.2069,-18.1989 78.2701,-23.686 79.7137,-16.8364"/>
</g>
<!-- Node14 -->
<g id="node15" class="node">
<title>Node14</title>
<polygon fill="none" stroke="#bfbfbf" points="87,-.5 87,-19.5 132,-19.5 132,-.5 87,-.5"/>
<text text-anchor="middle" x="109.5" y="-7.5" font-family="FreeSans.ttf" font-size="10.00" fill="#000000">utility</text>
</g>
<!-- Node6&#45;&gt;Node14 -->
<g id="edge15" class="edge">
<title>Node6&#45;&gt;Node14</title>
<path fill="none" stroke="#191970" d="M280.1078,-56.4203C245.9856,-47.9882 195.0933,-35.0926 141.8049,-19.9867"/>
<polygon fill="#191970" stroke="#191970" points="142.7601,-16.6196 132.1836,-17.2424 140.84,-23.3511 142.7601,-16.6196"/>
</g>
<!-- Node18&#45;&gt;Node2 -->
<g id="edge21" class="edge">
<title>Node18&#45;&gt;Node2</title>
<path fill="none" stroke="#191970" d="M517.9274,-224.3733C547.4872,-215.021 592.5226,-200.7725 624.8695,-190.5385"/>
<polygon fill="#191970" stroke="#191970" points="625.9913,-193.8546 634.4697,-187.5011 623.8797,-187.1807 625.9913,-193.8546"/>
</g>
<!-- Node19&#45;&gt;Node3 -->
<g id="edge47" class="edge">
<title>Node19&#45;&gt;Node3</title>
<path fill="none" stroke="#191970" d="M670.3423,-395.2456C763.6551,-386.8944 911.1277,-371.8333 964.5,-356 1028.5285,-337.0054 1099.5,-356.7866 1099.5,-290 1099.5,-290 1099.5,-290 1099.5,-178 1099.5,-133.9752 803.198,-91.6808 664.5212,-74.2968"/>
<polygon fill="#191970" stroke="#191970" points="664.769,-70.8007 654.4132,-73.0389 663.9044,-77.7471 664.769,-70.8007"/>
</g>
<!-- Node19&#45;&gt;Node16 -->
<g id="edge50" class="edge">
<title>Node19&#45;&gt;Node16</title>
<path fill="none" stroke="#191970" d="M568.4357,-392.4846C526.5044,-372.2161 433.5326,-320.3163 397.5,-244 364.417,-173.9308 481.7858,-227.8039 521.5,-188 533.7142,-175.7582 538.1872,-156.204 539.77,-141.5519"/>
<polygon fill="#191970" stroke="#191970" points="543.266,-141.7318 540.4973,-131.5052 536.2843,-141.2263 543.266,-141.7318"/>
</g>
<!-- Node19&#45;&gt;Node18 -->
<g id="edge48" class="edge">
<title>Node19&#45;&gt;Node18</title>
<path fill="none" stroke="#191970" d="M583.7238,-392.4862C567.3906,-365.5845 520.6496,-288.5994 498.8944,-252.7673"/>
<polygon fill="#191970" stroke="#191970" points="501.6485,-250.5593 493.4669,-243.8279 495.665,-254.1922 501.6485,-250.5593"/>
</g>
<!-- Node20 -->
<g id="node21" class="node">
<title>Node20</title>
<g id="a_node21"><a xlink:href="Position_8h.html" target="_top" xlink:title="Position.h">
<polygon fill="none" stroke="#000000" points="890,-336.5 890,-355.5 955,-355.5 955,-336.5 890,-336.5"/>
<text text-anchor="middle" x="922.5" y="-343.5" font-family="FreeSans.ttf" font-size="10.00" fill="#000000">Position.h</text>
</a>
</g>
</g>
<!-- Node19&#45;&gt;Node20 -->
<g id="edge23" class="edge">
<title>Node19&#45;&gt;Node20</title>
<path fill="none" stroke="#191970" d="M646.3664,-392.4369C712.431,-381.3269 819.9502,-363.2456 879.4572,-353.2384"/>
<polygon fill="#191970" stroke="#191970" points="880.3562,-356.6365 889.6373,-351.5265 879.1953,-349.7334 880.3562,-356.6365"/>
</g>
<!-- Node22 -->
<g id="node23" class="node">
<title>Node22</title>
<g id="a_node23"><a xlink:href="Rotation_8h.html" target="_top" xlink:title="iDynTree/Core/Rotation.h">
<polygon fill="none" stroke="#000000" points="651,-280.5 651,-299.5 788,-299.5 788,-280.5 651,-280.5"/>
<text text-anchor="middle" x="719.5" y="-287.5" font-family="FreeSans.ttf" font-size="10.00" fill="#000000">iDynTree/Core/Rotation.h</text>
</a>
</g>
</g>
<!-- Node19&#45;&gt;Node22 -->
<g id="edge46" class="edge">
<title>Node19&#45;&gt;Node22</title>
<path fill="none" stroke="#191970" d="M600.5837,-392.4509C622.8418,-373.2747 673.1919,-329.8962 700.6978,-306.1988"/>
<polygon fill="#191970" stroke="#191970" points="703.1527,-308.7036 708.4443,-299.5249 698.5837,-303.4004 703.1527,-308.7036"/>
</g>
<!-- Node26 -->
<g id="node27" class="node">
<title>Node26</title>
<polygon fill="none" stroke="#bfbfbf" points="188.5,-112.5 188.5,-131.5 248.5,-131.5 248.5,-112.5 188.5,-112.5"/>
<text text-anchor="middle" x="218.5" y="-119.5" font-family="FreeSans.ttf" font-size="10.00" fill="#000000">iostream</text>
</g>
<!-- Node19&#45;&gt;Node26 -->
<g id="edge49" class="edge">
<title>Node19&#45;&gt;Node26</title>
<path fill="none" stroke="#191970" d="M523.403,-392.4715C429.9659,-377.1131 270.5,-343.1201 270.5,-290 270.5,-290 270.5,-290 270.5,-234 270.5,-197.9842 248.1055,-161.0048 232.7092,-139.8372"/>
<polygon fill="#191970" stroke="#191970" points="235.4451,-137.6522 226.625,-131.7823 229.8595,-141.8714 235.4451,-137.6522"/>
</g>
<!-- Node20&#45;&gt;Node15 -->
<g id="edge45" class="edge">
<title>Node20&#45;&gt;Node15</title>
<path fill="none" stroke="#191970" d="M945.8085,-336.4527C989.0073,-317.334 1074.3367,-272.0452 1042.5,-224 995.4445,-152.9879 888.0355,-131.2804 833.924,-124.7478"/>
<polygon fill="#191970" stroke="#191970" points="834.1701,-121.2537 823.846,-123.6335 833.4007,-128.2113 834.1701,-121.2537"/>
</g>
<!-- Node21 -->
<g id="node22" class="node">
<title>Node21</title>
<g id="a_node22"><a xlink:href="PositionRaw_8h.html" target="_top" xlink:title="iDynTree/Core/PositionRaw.h">
<polygon fill="none" stroke="#000000" points="877.5,-224.5 877.5,-243.5 1033.5,-243.5 1033.5,-224.5 877.5,-224.5"/>
<text text-anchor="middle" x="955.5" y="-231.5" font-family="FreeSans.ttf" font-size="10.00" fill="#000000">iDynTree/Core/PositionRaw.h</text>
</a>
</g>
</g>
<!-- Node20&#45;&gt;Node21 -->
<g id="edge24" class="edge">
<title>Node20&#45;&gt;Node21</title>
<path fill="none" stroke="#191970" d="M925.3136,-336.4509C930.7202,-318.1013 942.6563,-277.5908 949.793,-253.3693"/>
<polygon fill="#191970" stroke="#191970" points="953.2245,-254.1064 952.6936,-243.5249 946.5099,-252.128 953.2245,-254.1064"/>
</g>
<!-- Node20&#45;&gt;Node22 -->
<g id="edge27" class="edge">
<title>Node20&#45;&gt;Node22</title>
<path fill="none" stroke="#191970" d="M889.8845,-337.0026C855.7273,-327.58 801.8638,-312.7211 763.8567,-302.2363"/>
<polygon fill="#191970" stroke="#191970" points="764.6434,-298.8227 754.0727,-299.5373 762.7819,-305.5706 764.6434,-298.8227"/>
</g>
<!-- Node21&#45;&gt;Node2 -->
<g id="edge25" class="edge">
<title>Node21&#45;&gt;Node2</title>
<path fill="none" stroke="#191970" d="M905.806,-224.4369C855.4804,-214.7522 777.6277,-199.7703 724.0349,-189.4569"/>
<polygon fill="#191970" stroke="#191970" points="724.4703,-185.9765 713.9891,-187.5237 723.1475,-192.8504 724.4703,-185.9765"/>
</g>
<!-- Node21&#45;&gt;Node15 -->
<g id="edge26" class="edge">
<title>Node21&#45;&gt;Node15</title>
<path fill="none" stroke="#191970" d="M942.37,-224.4509C915.7755,-205.1094 855.3265,-161.1465 822.9368,-137.5904"/>
<polygon fill="#191970" stroke="#191970" points="824.7427,-134.5761 814.5967,-131.5249 820.6255,-140.2372 824.7427,-134.5761"/>
</g>
<!-- Node22&#45;&gt;Node2 -->
<g id="edge44" class="edge">
<title>Node22&#45;&gt;Node2</title>
<path fill="none" stroke="#191970" d="M731.1083,-280.3967C745.4038,-267.3644 766.4148,-243.4706 754.5,-224 745.1591,-208.7354 728.9772,-198.3326 712.8874,-191.3404"/>
<polygon fill="#191970" stroke="#191970" points="714.0629,-188.0414 703.477,-187.6067 711.4813,-194.548 714.0629,-188.0414"/>
</g>
<!-- Node22&#45;&gt;Node15 -->
<g id="edge28" class="edge">
<title>Node22&#45;&gt;Node15</title>
<path fill="none" stroke="#191970" d="M733.8819,-280.3329C745.1932,-271.9946 760.4981,-258.9571 769.5,-244 789.0836,-211.461 796.8196,-167.0146 799.7725,-141.7302"/>
<polygon fill="#191970" stroke="#191970" points="803.2756,-141.8789 800.8181,-131.5731 796.3124,-141.1621 803.2756,-141.8789"/>
</g>
<!-- Node22&#45;&gt;Node18 -->
<g id="edge29" class="edge">
<title>Node22&#45;&gt;Node18</title>
<path fill="none" stroke="#191970" d="M679.8814,-280.4369C640.3432,-270.8932 579.4931,-256.2052 536.8418,-245.9101"/>
<polygon fill="#191970" stroke="#191970" points="537.4973,-242.4679 526.9552,-243.5237 535.8548,-249.2724 537.4973,-242.4679"/>
</g>
<!-- Node23 -->
<g id="node24" class="node">
<title>Node23</title>
<g id="a_node24"><a xlink:href="RotationRaw_8h.html" target="_top" xlink:title="iDynTree/Core/RotationRaw.h">
<polygon fill="none" stroke="#000000" points="587.5,-224.5 587.5,-243.5 745.5,-243.5 745.5,-224.5 587.5,-224.5"/>
<text text-anchor="middle" x="666.5" y="-231.5" font-family="FreeSans.ttf" font-size="10.00" fill="#000000">iDynTree/Core/RotationRaw.h</text>
</a>
</g>
</g>
<!-- Node22&#45;&gt;Node23 -->
<g id="edge30" class="edge">
<title>Node22&#45;&gt;Node23</title>
<path fill="none" stroke="#191970" d="M710.2681,-280.2455C702.6683,-272.2155 691.7123,-260.6394 682.6632,-251.0781"/>
<polygon fill="#191970" stroke="#191970" points="685.042,-248.4998 675.6261,-243.6427 679.9579,-253.3115 685.042,-248.4998"/>
</g>
<!-- Node23&#45;&gt;Node15 -->
<g id="edge43" class="edge">
<title>Node23&#45;&gt;Node15</title>
<path fill="none" stroke="#191970" d="M691.9377,-224.4914C710.6345,-216.6514 735.9149,-204.1962 754.5,-188 770.0097,-174.4839 783.1378,-154.8705 791.5435,-140.5377"/>
<polygon fill="#191970" stroke="#191970" points="794.7206,-142.029 796.5797,-131.5985 788.6218,-138.593 794.7206,-142.029"/>
</g>
<!-- Node24 -->
<g id="node25" class="node">
<title>Node24</title>
<g id="a_node25"><a xlink:href="MatrixFixSize_8h.html" target="_top" xlink:title="iDynTree/Core/MatrixFixSize.h">
<polygon fill="none" stroke="#000000" points="351,-168.5 351,-187.5 512,-187.5 512,-168.5 351,-168.5"/>
<text text-anchor="middle" x="431.5" y="-175.5" font-family="FreeSans.ttf" font-size="10.00" fill="#000000">iDynTree/Core/MatrixFixSize.h</text>
</a>
</g>
</g>
<!-- Node23&#45;&gt;Node24 -->
<g id="edge31" class="edge">
<title>Node23&#45;&gt;Node24</title>
<path fill="none" stroke="#191970" d="M626.3691,-224.4369C586.2351,-214.8731 524.4225,-200.1432 481.2067,-189.845"/>
<polygon fill="#191970" stroke="#191970" points="482.0044,-186.4372 471.4654,-187.5237 480.3817,-193.2465 482.0044,-186.4372"/>
</g>
<!-- Node24&#45;&gt;Node3 -->
<g id="edge32" class="edge">
<title>Node24&#45;&gt;Node3</title>
<path fill="none" stroke="#191970" d="M440.5649,-168.1336C453.5624,-154.3695 478.6737,-129.1671 503.5,-112 521.8051,-99.3423 544.0776,-88.0229 562.0063,-79.7801"/>
<polygon fill="#191970" stroke="#191970" points="563.7805,-82.82 571.467,-75.5283 560.911,-76.4352 563.7805,-82.82"/>
</g>
<!-- Node24&#45;&gt;Node7 -->
<g id="edge38" class="edge">
<title>Node24&#45;&gt;Node7</title>
<path fill="none" stroke="#191970" d="M436.9348,-168.2148C444.4614,-154.9765 458.8007,-130.8499 473.5,-112 494.5729,-84.9768 499.5273,-77.1375 526.5,-56 542.2064,-43.6915 561.5898,-32.5616 577.4567,-24.3336"/>
<polygon fill="#191970" stroke="#191970" points="579.4724,-27.2365 586.8174,-19.601 576.314,-20.9896 579.4724,-27.2365"/>
</g>
<!-- Node24&#45;&gt;Node15 -->
<g id="edge40" class="edge">
<title>Node24&#45;&gt;Node15</title>
<path fill="none" stroke="#191970" d="M494.6849,-168.4369C574.3207,-156.3839 708.1682,-136.1259 769.2975,-126.8739"/>
<polygon fill="#191970" stroke="#191970" points="770.1308,-130.2877 779.4944,-125.3306 769.0832,-123.3665 770.1308,-130.2877"/>
</g>
<!-- Node24&#45;&gt;Node16 -->
<g id="edge42" class="edge">
<title>Node24&#45;&gt;Node16</title>
<path fill="none" stroke="#191970" d="M450.4864,-168.2455C467.6792,-159.4125 493.2238,-146.2887 512.7132,-136.2758"/>
<polygon fill="#191970" stroke="#191970" points="514.4359,-139.3257 521.7312,-131.6427 511.237,-133.0993 514.4359,-139.3257"/>
</g>
<!-- Node24&#45;&gt;Node17 -->
<g id="edge39" class="edge">
<title>Node24&#45;&gt;Node17</title>
<path fill="none" stroke="#191970" d="M462.4431,-168.3733C494.2347,-158.4825 543.6286,-143.1156 576.7459,-132.8124"/>
<polygon fill="#191970" stroke="#191970" points="577.9548,-136.1018 586.4636,-129.7891 575.8753,-129.4178 577.9548,-136.1018"/>
</g>
<!-- Node25 -->
<g id="node26" class="node">
<title>Node25</title>
<g id="a_node26"><a xlink:href="MatrixView_8h.html" target="_top" xlink:title="iDynTree/Core/MatrixView.h">
<polygon fill="none" stroke="#000000" points="267,-112.5 267,-131.5 418,-131.5 418,-112.5 267,-112.5"/>
<text text-anchor="middle" x="342.5" y="-119.5" font-family="FreeSans.ttf" font-size="10.00" fill="#000000">iDynTree/Core/MatrixView.h</text>
</a>
</g>
</g>
<!-- Node24&#45;&gt;Node25 -->
<g id="edge33" class="edge">
<title>Node24&#45;&gt;Node25</title>
<path fill="none" stroke="#191970" d="M415.9974,-168.2455C402.342,-159.6534 382.2343,-147.0014 366.5011,-137.1018"/>
<polygon fill="#191970" stroke="#191970" points="368.1529,-134.006 357.825,-131.6427 364.4249,-139.9307 368.1529,-134.006"/>
</g>
<!-- Node24&#45;&gt;Node26 -->
<g id="edge41" class="edge">
<title>Node24&#45;&gt;Node26</title>
<path fill="none" stroke="#191970" d="M394.884,-168.3733C356.9152,-158.3909 297.7292,-142.8302 258.5409,-132.5272"/>
<polygon fill="#191970" stroke="#191970" points="259.3502,-129.1211 248.7889,-129.9633 257.5702,-135.891 259.3502,-129.1211"/>
</g>
<!-- Node25&#45;&gt;Node3 -->
<g id="edge37" class="edge">
<title>Node25&#45;&gt;Node3</title>
<path fill="none" stroke="#191970" d="M385.534,-112.4369C428.7525,-102.8328 495.4141,-88.0191 541.7818,-77.7152"/>
<polygon fill="#191970" stroke="#191970" points="542.6409,-81.1097 551.6435,-75.5237 541.1223,-74.2764 542.6409,-81.1097"/>
</g>
<!-- Node25&#45;&gt;Node6 -->
<g id="edge36" class="edge">
<title>Node25&#45;&gt;Node6</title>
<path fill="none" stroke="#191970" d="M338.4937,-112.2455C335.4265,-104.7776 331.0997,-94.2427 327.3503,-85.1137"/>
<polygon fill="#191970" stroke="#191970" points="330.4972,-83.5631 323.4604,-75.6427 324.0221,-86.2226 330.4972,-83.5631"/>
</g>
<!-- Node25&#45;&gt;Node7 -->
<g id="edge34" class="edge">
<title>Node25&#45;&gt;Node7</title>
<path fill="none" stroke="#191970" d="M352.7234,-112.4269C368.585,-98.0832 400.6278,-71.0913 432.5,-56 487.7309,-29.8484 508.4589,-36.0993 571.1508,-20.2357"/>
<polygon fill="#191970" stroke="#191970" points="572.3646,-23.5357 581.1477,-17.6104 570.5866,-16.7652 572.3646,-23.5357"/>
</g>
<!-- Node25&#45;&gt;Node13 -->
<g id="edge35" class="edge">
<title>Node25&#45;&gt;Node13</title>
<path fill="none" stroke="#191970" d="M316.2401,-112.4509C261.0052,-92.3655 132.753,-45.7284 70.1551,-22.9655"/>
<polygon fill="#191970" stroke="#191970" points="71.2875,-19.6531 60.6934,-19.5249 68.8953,-26.2317 71.2875,-19.6531"/>
</g>
</g>
</svg>
