<?xml version="1.0" encoding="UTF-8" standalone="no"?>
<!DOCTYPE svg PUBLIC "-//W3C//DTD SVG 1.1//EN"
 "http://www.w3.org/Graphics/SVG/1.1/DTD/svg11.dtd">
<!-- Generated by graphviz version 2.40.1 (20161225.0304)
 -->
<!-- Title: URDFDocument.cpp Pages: 1 -->
<svg width="3288pt" height="755pt"
 viewBox="0.00 0.00 3288.00 755.00" xmlns="http://www.w3.org/2000/svg" xmlns:xlink="http://www.w3.org/1999/xlink">
<g id="graph0" class="graph" transform="scale(1 1) rotate(0) translate(4 751)">
<title>URDFDocument.cpp</title>
<!-- Node0 -->
<g id="node1" class="node">
<title>Node0</title>
<polygon fill="#bfbfbf" stroke="#000000" points="2612,-727.5 2612,-746.5 2726,-746.5 2726,-727.5 2612,-727.5"/>
<text text-anchor="middle" x="2669" y="-734.5" font-family="FreeSans.ttf" font-size="10.00" fill="#000000">URDFDocument.cpp</text>
</g>
<!-- Node1 -->
<g id="node2" class="node">
<title>Node1</title>
<g id="a_node2"><a xlink:href="URDFDocument_8h.html" target="_top" xlink:title="URDFDocument.h">
<polygon fill="none" stroke="#000000" points="915.5,-671.5 915.5,-690.5 1018.5,-690.5 1018.5,-671.5 915.5,-671.5"/>
<text text-anchor="middle" x="967" y="-678.5" font-family="FreeSans.ttf" font-size="10.00" fill="#000000">URDFDocument.h</text>
</a>
</g>
</g>
<!-- Node0&#45;&gt;Node1 -->
<g id="edge1" class="edge">
<title>Node0&#45;&gt;Node1</title>
<path fill="none" stroke="#191970" d="M2611.8847,-735.1208C2353.7417,-726.6272 1296.9984,-691.8578 1029.0102,-683.0403"/>
<polygon fill="#191970" stroke="#191970" points="1028.8053,-679.5317 1018.6956,-682.7009 1028.5751,-686.528 1028.8053,-679.5317"/>
</g>
<!-- Node18 -->
<g id="node16" class="node">
<title>Node18</title>
<polygon fill="none" stroke="#bfbfbf" points="2349,-.5 2349,-19.5 2413,-19.5 2413,-.5 2349,-.5"/>
<text text-anchor="middle" x="2381" y="-7.5" font-family="FreeSans.ttf" font-size="10.00" fill="#000000">algorithm</text>
</g>
<!-- Node0&#45;&gt;Node18 -->
<g id="edge145" class="edge">
<title>Node0&#45;&gt;Node18</title>
<path fill="none" stroke="#191970" d="M2716.0331,-727.4755C2796.0269,-709.9133 2950,-669.6019 2950,-619.5 2950,-619.5 2950,-619.5 2950,-122 2950,-37.2089 2853.4541,-75.77 2771,-56 2646.6721,-26.1899 2495.2184,-15.3698 2423.0938,-11.7143"/>
<polygon fill="#191970" stroke="#191970" points="2423.199,-8.2153 2413.0408,-11.2255 2422.859,-15.2071 2423.199,-8.2153"/>
</g>
<!-- Node59 -->
<g id="node37" class="node">
<title>Node59</title>
<g id="a_node37"><a xlink:href="RobotElement_8h.html" target="_top" xlink:title="RobotElement.h">
<polygon fill="none" stroke="#000000" points="464,-610 464,-629 558,-629 558,-610 464,-610"/>
<text text-anchor="middle" x="511" y="-617" font-family="FreeSans.ttf" font-size="10.00" fill="#000000">RobotElement.h</text>
</a>
</g>
</g>
<!-- Node0&#45;&gt;Node59 -->
<g id="edge101" class="edge">
<title>Node0&#45;&gt;Node59</title>
<path fill="none" stroke="#191970" d="M2611.9444,-736.5824C2348.6485,-734.4911 1249.2964,-723.9157 907,-691 756.7383,-676.5506 719.725,-666.0593 572,-635 566.9175,-633.9314 561.6194,-632.7253 556.3611,-631.4695"/>
<polygon fill="#191970" stroke="#191970" points="556.9112,-628.0007 546.3652,-629.0166 555.2429,-634.7991 556.9112,-628.0007"/>
</g>
<!-- Node60 -->
<g id="node38" class="node">
<title>Node60</title>
<g id="a_node38"><a xlink:href="PrismaticJoint_8h.html" target="_top" xlink:title="iDynTree/Model/Prismatic\lJoint.h">
<polygon fill="none" stroke="#000000" points="2723,-537.5 2723,-567.5 2863,-567.5 2863,-537.5 2723,-537.5"/>
<text text-anchor="start" x="2731" y="-555.5" font-family="FreeSans.ttf" font-size="10.00" fill="#000000">iDynTree/Model/Prismatic</text>
<text text-anchor="middle" x="2793" y="-544.5" font-family="FreeSans.ttf" font-size="10.00" fill="#000000">Joint.h</text>
</a>
</g>
</g>
<!-- Node0&#45;&gt;Node60 -->
<g id="edge108" class="edge">
<title>Node0&#45;&gt;Node60</title>
<path fill="none" stroke="#191970" d="M2675.4922,-727.3402C2694.3477,-699.285 2749.5122,-617.2056 2777.0207,-576.2757"/>
<polygon fill="#191970" stroke="#191970" points="2780.0866,-577.9884 2782.7599,-567.7363 2774.2768,-574.0837 2780.0866,-577.9884"/>
</g>
<!-- Node62 -->
<g id="node42" class="node">
<title>Node62</title>
<g id="a_node42"><a xlink:href="RevoluteJoint_8h.html" target="_top" xlink:title="iDynTree/Model/RevoluteJoint.h">
<polygon fill="none" stroke="#000000" points="2534,-543 2534,-562 2702,-562 2702,-543 2534,-543"/>
<text text-anchor="middle" x="2618" y="-550" font-family="FreeSans.ttf" font-size="10.00" fill="#000000">iDynTree/Model/RevoluteJoint.h</text>
</a>
</g>
</g>
<!-- Node0&#45;&gt;Node62 -->
<g id="edge123" class="edge">
<title>Node0&#45;&gt;Node62</title>
<path fill="none" stroke="#191970" d="M2666.3298,-727.3402C2658.2742,-698.1978 2634.1051,-610.7626 2623.3095,-571.708"/>
<polygon fill="#191970" stroke="#191970" points="2626.6816,-570.7701 2620.6437,-562.0641 2619.9346,-572.6352 2626.6816,-570.7701"/>
</g>
<!-- Node63 -->
<g id="node43" class="node">
<title>Node63</title>
<g id="a_node43"><a xlink:href="ModelTransformers_8h.html" target="_top" xlink:title="Collection of function to modify model in various ways. ">
<polygon fill="none" stroke="#000000" points="2978.5,-671.5 2978.5,-690.5 3175.5,-690.5 3175.5,-671.5 2978.5,-671.5"/>
<text text-anchor="middle" x="3077" y="-678.5" font-family="FreeSans.ttf" font-size="10.00" fill="#000000">iDynTree/Model/ModelTransformers.h</text>
</a>
</g>
</g>
<!-- Node0&#45;&gt;Node63 -->
<g id="edge129" class="edge">
<title>Node0&#45;&gt;Node63</title>
<path fill="none" stroke="#191970" d="M2726.1603,-729.1545C2796.9316,-719.4408 2917.8605,-702.8427 2997.6081,-691.8969"/>
<polygon fill="#191970" stroke="#191970" points="2998.1762,-695.3519 3007.6074,-690.5245 2997.2243,-688.4169 2998.1762,-695.3519"/>
</g>
<!-- Node64 -->
<g id="node44" class="node">
<title>Node64</title>
<g id="a_node44"><a xlink:href="SixAxisForceTorqueSensor_8h.html" target="_top" xlink:title="iDynTree/Sensors/SixAxis\lForceTorqueSensor.h">
<polygon fill="none" stroke="#000000" points="1518,-604.5 1518,-634.5 1658,-634.5 1658,-604.5 1518,-604.5"/>
<text text-anchor="start" x="1526" y="-622.5" font-family="FreeSans.ttf" font-size="10.00" fill="#000000">iDynTree/Sensors/SixAxis</text>
<text text-anchor="middle" x="1588" y="-611.5" font-family="FreeSans.ttf" font-size="10.00" fill="#000000">ForceTorqueSensor.h</text>
</a>
</g>
</g>
<!-- Node0&#45;&gt;Node64 -->
<g id="edge130" class="edge">
<title>Node0&#45;&gt;Node64</title>
<path fill="none" stroke="#191970" d="M2611.644,-730.7656C2431.4871,-711.1834 1876.5746,-650.8668 1668.188,-628.2161"/>
<polygon fill="#191970" stroke="#191970" points="1668.5514,-624.7351 1658.2317,-627.1339 1667.7949,-631.6941 1668.5514,-624.7351"/>
</g>
<!-- Node67 -->
<g id="node50" class="node">
<title>Node67</title>
<polygon fill="none" stroke="#bfbfbf" points="3194,-671.5 3194,-690.5 3280,-690.5 3280,-671.5 3194,-671.5"/>
<text text-anchor="middle" x="3237" y="-678.5" font-family="FreeSans.ttf" font-size="10.00" fill="#000000">unordered_set</text>
</g>
<!-- Node0&#45;&gt;Node67 -->
<g id="edge146" class="edge">
<title>Node0&#45;&gt;Node67</title>
<path fill="none" stroke="#191970" d="M2726.0991,-733.8018C2819.664,-728.146 3011.6254,-714.8046 3183.9151,-691.0276"/>
<polygon fill="#191970" stroke="#191970" points="3184.5053,-694.4793 3193.9258,-689.6311 3183.5381,-687.5464 3184.5053,-694.4793"/>
</g>
<!-- Node2 -->
<g id="node3" class="node">
<title>Node2</title>
<g id="a_node3"><a xlink:href="XMLDocument_8h.html" target="_top" xlink:title="iDynTree/XMLDocument.h">
<polygon fill="none" stroke="#000000" points="0,-409 0,-428 142,-428 142,-409 0,-409"/>
<text text-anchor="middle" x="71" y="-416" font-family="FreeSans.ttf" font-size="10.00" fill="#000000">iDynTree/XMLDocument.h</text>
</a>
</g>
</g>
<!-- Node1&#45;&gt;Node2 -->
<g id="edge2" class="edge">
<title>Node1&#45;&gt;Node2</title>
<path fill="none" stroke="#191970" d="M915.4445,-679.6003C741.7136,-674.6859 186.8059,-657.3042 156,-635 90.709,-587.7277 75.5584,-482.5357 72.0519,-438.497"/>
<polygon fill="#191970" stroke="#191970" points="75.5404,-438.207 71.3755,-428.4652 68.5562,-438.678 75.5404,-438.207"/>
</g>
<!-- Node4 -->
<g id="node5" class="node">
<title>Node4</title>
<polygon fill="none" stroke="#bfbfbf" points="1715,-56.5 1715,-75.5 1759,-75.5 1759,-56.5 1715,-56.5"/>
<text text-anchor="middle" x="1737" y="-63.5" font-family="FreeSans.ttf" font-size="10.00" fill="#000000">string</text>
</g>
<!-- Node1&#45;&gt;Node4 -->
<g id="edge98" class="edge">
<title>Node1&#45;&gt;Node4</title>
<path fill="none" stroke="#191970" d="M1018.6727,-679.3303C1176.4683,-674.0064 1642.8392,-656.513 1667,-635 1760.8169,-551.4647 1718,-482.6175 1718,-357 1718,-357 1718,-357 1718,-183.5 1718,-148.6936 1726.2253,-108.8226 1731.8521,-85.6197"/>
<polygon fill="#191970" stroke="#191970" points="1735.3113,-86.2152 1734.3581,-75.6633 1728.523,-84.5065 1735.3113,-86.2152"/>
</g>
<!-- Node5 -->
<g id="node6" class="node">
<title>Node5</title>
<g id="a_node6"><a xlink:href="JointElement_8h.html" target="_top" xlink:title="JointElement.h">
<polygon fill="none" stroke="#000000" points="346,-476 346,-495 434,-495 434,-476 346,-476"/>
<text text-anchor="middle" x="390" y="-483" font-family="FreeSans.ttf" font-size="10.00" fill="#000000">JointElement.h</text>
</a>
</g>
</g>
<!-- Node1&#45;&gt;Node5 -->
<g id="edge5" class="edge">
<title>Node1&#45;&gt;Node5</title>
<path fill="none" stroke="#191970" d="M915.1106,-679.111C792.5945,-674.26 492.7943,-659.9606 455,-635 410.6363,-605.7008 396.3807,-538.9017 391.9348,-505.4136"/>
<polygon fill="#191970" stroke="#191970" points="395.3646,-504.6049 390.738,-495.0737 388.4111,-505.4098 395.3646,-504.6049"/>
</g>
<!-- Node8 -->
<g id="node9" class="node">
<title>Node8</title>
<polygon fill="none" stroke="#bfbfbf" points="237.5,-347.5 237.5,-366.5 330.5,-366.5 330.5,-347.5 237.5,-347.5"/>
<text text-anchor="middle" x="284" y="-354.5" font-family="FreeSans.ttf" font-size="10.00" fill="#000000">unordered_map</text>
</g>
<!-- Node1&#45;&gt;Node8 -->
<g id="edge100" class="edge">
<title>Node1&#45;&gt;Node8</title>
<path fill="none" stroke="#191970" d="M915.195,-678.1831C797.8468,-671.5513 514.6821,-654.0689 421,-635 305.9326,-611.5781 170,-669.9269 170,-552.5 170,-552.5 170,-552.5 170,-485.5 170,-433.4335 223.0205,-392.6189 256.744,-371.9249"/>
<polygon fill="#191970" stroke="#191970" points="258.8641,-374.7371 265.6839,-366.6291 255.2963,-368.7145 258.8641,-374.7371"/>
</g>
<!-- Node9 -->
<g id="node10" class="node">
<title>Node9</title>
<polygon fill="none" stroke="#bfbfbf" points="1094.5,-347.5 1094.5,-366.5 1141.5,-366.5 1141.5,-347.5 1094.5,-347.5"/>
<text text-anchor="middle" x="1118" y="-354.5" font-family="FreeSans.ttf" font-size="10.00" fill="#000000">vector</text>
</g>
<!-- Node1&#45;&gt;Node9 -->
<g id="edge99" class="edge">
<title>Node1&#45;&gt;Node9</title>
<path fill="none" stroke="#191970" d="M1018.5164,-674.4441C1064.5332,-667.4052 1126.9415,-654.5283 1142,-635 1173.1302,-594.6295 1136.8513,-432.7339 1122.9617,-376.4226"/>
<polygon fill="#191970" stroke="#191970" points="1126.335,-375.4846 1120.5089,-366.6354 1119.545,-377.1863 1126.335,-375.4846"/>
</g>
<!-- Node36 -->
<g id="node24" class="node">
<title>Node36</title>
<g id="a_node24"><a xlink:href="MaterialElement_8h.html" target="_top" xlink:title="MaterialElement.h">
<polygon fill="none" stroke="#000000" points="490,-476 490,-495 596,-495 596,-476 490,-476"/>
<text text-anchor="middle" x="543" y="-483" font-family="FreeSans.ttf" font-size="10.00" fill="#000000">MaterialElement.h</text>
</a>
</g>
</g>
<!-- Node1&#45;&gt;Node36 -->
<g id="edge43" class="edge">
<title>Node1&#45;&gt;Node36</title>
<path fill="none" stroke="#191970" d="M915.4954,-676.4702C840.0792,-667.4843 698.4422,-641.4229 605,-568 582.4302,-550.2656 563.8277,-522.4179 553.0661,-504.0603"/>
<polygon fill="#191970" stroke="#191970" points="556.0194,-502.1726 548.046,-495.1958 549.9283,-505.6221 556.0194,-502.1726"/>
</g>
<!-- Node37 -->
<g id="node25" class="node">
<title>Node37</title>
<g id="a_node25"><a xlink:href="SensorElement_8h.html" target="_top" xlink:title="SensorElement.h">
<polygon fill="none" stroke="#000000" points="839.5,-610 839.5,-629 938.5,-629 938.5,-610 839.5,-610"/>
<text text-anchor="middle" x="889" y="-617" font-family="FreeSans.ttf" font-size="10.00" fill="#000000">SensorElement.h</text>
</a>
</g>
</g>
<!-- Node1&#45;&gt;Node37 -->
<g id="edge48" class="edge">
<title>Node1&#45;&gt;Node37</title>
<path fill="none" stroke="#191970" d="M954.8125,-671.3906C942.563,-661.7324 923.4737,-646.6812 909.0023,-635.271"/>
<polygon fill="#191970" stroke="#191970" points="911.1217,-632.485 901.1019,-629.0419 906.7876,-637.9819 911.1217,-632.485"/>
</g>
<!-- Node38 -->
<g id="node26" class="node">
<title>Node38</title>
<g id="a_node26"><a xlink:href="Sensors_8h.html" target="_top" xlink:title="iDynTree/Sensors/Sensors.h">
<polygon fill="none" stroke="#000000" points="1310.5,-543 1310.5,-562 1461.5,-562 1461.5,-543 1310.5,-543"/>
<text text-anchor="middle" x="1386" y="-550" font-family="FreeSans.ttf" font-size="10.00" fill="#000000">iDynTree/Sensors/Sensors.h</text>
</a>
</g>
</g>
<!-- Node1&#45;&gt;Node38 -->
<g id="edge97" class="edge">
<title>Node1&#45;&gt;Node38</title>
<path fill="none" stroke="#191970" d="M1018.5313,-678.9932C1077.4195,-675.2984 1175.8681,-664.8039 1255,-635 1297.7868,-618.885 1341.5534,-587.7589 1366.1053,-568.6867"/>
<polygon fill="#191970" stroke="#191970" points="1368.5679,-571.2017 1374.244,-562.2556 1364.2279,-565.7094 1368.5679,-571.2017"/>
</g>
<!-- Node40 -->
<g id="node28" class="node">
<title>Node40</title>
<g id="a_node28"><a xlink:href="Model_8h.html" target="_top" xlink:title="iDynTree/Model/Model.h">
<polygon fill="none" stroke="#000000" points="1324.5,-476 1324.5,-495 1457.5,-495 1457.5,-476 1324.5,-476"/>
<text text-anchor="middle" x="1391" y="-483" font-family="FreeSans.ttf" font-size="10.00" fill="#000000">iDynTree/Model/Model.h</text>
</a>
</g>
</g>
<!-- Node1&#45;&gt;Node40 -->
<g id="edge96" class="edge">
<title>Node1&#45;&gt;Node40</title>
<path fill="none" stroke="#191970" d="M1018.6047,-675.9585C1061.9739,-670.254 1124.748,-658.5003 1175,-635 1239.5825,-604.7981 1242.7931,-576.7191 1302,-537 1322.1989,-523.4495 1346.1076,-509.7347 1364.0556,-499.8689"/>
<polygon fill="#191970" stroke="#191970" points="1365.7381,-502.938 1372.8466,-495.0818 1362.3905,-496.7904 1365.7381,-502.938"/>
</g>
<!-- Node57 -->
<g id="node35" class="node">
<title>Node57</title>
<g id="a_node35"><a xlink:href="VisualElement_8h.html" target="_top" xlink:title="VisualElement.h">
<polygon fill="none" stroke="#000000" points="614,-543 614,-562 710,-562 710,-543 614,-543"/>
<text text-anchor="middle" x="662" y="-550" font-family="FreeSans.ttf" font-size="10.00" fill="#000000">VisualElement.h</text>
</a>
</g>
</g>
<!-- Node1&#45;&gt;Node57 -->
<g id="edge81" class="edge">
<title>Node1&#45;&gt;Node57</title>
<path fill="none" stroke="#191970" d="M934.9743,-671.442C907.1425,-662.8352 865.9239,-649.3616 831,-635 779.6064,-613.8657 721.8497,-584.3672 688.9074,-566.9679"/>
<polygon fill="#191970" stroke="#191970" points="690.3809,-563.7875 679.9074,-562.1886 687.0979,-569.9699 690.3809,-563.7875"/>
</g>
<!-- Node58 -->
<g id="node36" class="node">
<title>Node58</title>
<g id="a_node36"><a xlink:href="ModelLoader_8h.html" target="_top" xlink:title="iDynTree/ModelIO/ModelLoader.h">
<polygon fill="none" stroke="#000000" points="957,-610 957,-629 1133,-629 1133,-610 957,-610"/>
<text text-anchor="middle" x="1045" y="-617" font-family="FreeSans.ttf" font-size="10.00" fill="#000000">iDynTree/ModelIO/ModelLoader.h</text>
</a>
</g>
</g>
<!-- Node1&#45;&gt;Node58 -->
<g id="edge90" class="edge">
<title>Node1&#45;&gt;Node58</title>
<path fill="none" stroke="#191970" d="M979.1875,-671.3906C991.437,-661.7324 1010.5263,-646.6812 1024.9977,-635.271"/>
<polygon fill="#191970" stroke="#191970" points="1027.2124,-637.9819 1032.8981,-629.0419 1022.8783,-632.485 1027.2124,-637.9819"/>
</g>
<!-- Node3 -->
<g id="node4" class="node">
<title>Node3</title>
<polygon fill="none" stroke="#bfbfbf" points="607,-347.5 607,-366.5 665,-366.5 665,-347.5 607,-347.5"/>
<text text-anchor="middle" x="636" y="-354.5" font-family="FreeSans.ttf" font-size="10.00" fill="#000000">memory</text>
</g>
<!-- Node2&#45;&gt;Node3 -->
<g id="edge3" class="edge">
<title>Node2&#45;&gt;Node3</title>
<path fill="none" stroke="#191970" d="M142.3301,-411.5719C237.6107,-402.1839 411.6473,-384.5691 560,-367 571.9593,-365.5837 584.96,-363.9191 596.7716,-362.3588"/>
<polygon fill="#191970" stroke="#191970" points="597.3396,-365.8142 606.7894,-361.0234 596.4145,-358.8756 597.3396,-365.8142"/>
</g>
<!-- Node2&#45;&gt;Node4 -->
<g id="edge4" class="edge">
<title>Node2&#45;&gt;Node4</title>
<path fill="none" stroke="#191970" d="M78.3777,-408.7305C92.286,-389.3102 121,-344.0087 121,-301 121,-301 121,-301 121,-183.5 121,-138.0856 152.2133,-129.786 194,-112 265.954,-81.3737 1489.6507,-68.3529 1704.8235,-66.2953"/>
<polygon fill="#191970" stroke="#191970" points="1704.882,-69.7951 1714.8484,-66.2005 1704.8157,-62.7954 1704.882,-69.7951"/>
</g>
<!-- Node5&#45;&gt;Node3 -->
<g id="edge40" class="edge">
<title>Node5&#45;&gt;Node3</title>
<path fill="none" stroke="#191970" d="M394.7951,-475.9148C403.9869,-458.5598 425.7954,-421.975 455,-403 478.1909,-387.9322 550.8525,-372.5188 596.7518,-363.9118"/>
<polygon fill="#191970" stroke="#191970" points="597.476,-367.3373 606.6737,-362.0788 596.2043,-360.4538 597.476,-367.3373"/>
</g>
<!-- Node5&#45;&gt;Node4 -->
<g id="edge41" class="edge">
<title>Node5&#45;&gt;Node4</title>
<path fill="none" stroke="#191970" d="M386.078,-475.6859C377.9462,-454.423 360,-402.3597 360,-357 360,-357 360,-357 360,-183.5 360,-127.4079 410.7414,-129.6023 464,-112 584.8894,-72.0454 1518.4082,-66.7503 1704.7122,-66.0897"/>
<polygon fill="#191970" stroke="#191970" points="1704.9558,-69.589 1714.944,-66.0555 1704.9324,-62.5891 1704.9558,-69.589"/>
</g>
<!-- Node6 -->
<g id="node7" class="node">
<title>Node6</title>
<g id="a_node7"><a xlink:href="XMLElement_8h.html" target="_top" xlink:title="iDynTree/XMLElement.h">
<polygon fill="none" stroke="#000000" points="464,-409 464,-428 596,-428 596,-409 464,-409"/>
<text text-anchor="middle" x="530" y="-416" font-family="FreeSans.ttf" font-size="10.00" fill="#000000">iDynTree/XMLElement.h</text>
</a>
</g>
</g>
<!-- Node5&#45;&gt;Node6 -->
<g id="edge6" class="edge">
<title>Node5&#45;&gt;Node6</title>
<path fill="none" stroke="#191970" d="M410.0586,-475.9005C433.8656,-464.5072 473.7539,-445.4178 500.9396,-432.4075"/>
<polygon fill="#191970" stroke="#191970" points="502.4693,-435.5556 509.9786,-428.0817 499.4474,-429.2415 502.4693,-435.5556"/>
</g>
<!-- Node5&#45;&gt;Node8 -->
<g id="edge42" class="edge">
<title>Node5&#45;&gt;Node8</title>
<path fill="none" stroke="#191970" d="M381.4791,-475.6994C372.5519,-465.3914 358.1628,-448.663 346,-434 329.3293,-413.9024 310.5755,-390.497 298.1025,-374.8138"/>
<polygon fill="#191970" stroke="#191970" points="300.506,-372.2121 291.5476,-366.5555 295.0232,-376.564 300.506,-372.2121"/>
</g>
<!-- Node10 -->
<g id="node11" class="node">
<title>Node10</title>
<g id="a_node11"><a xlink:href="Axis_8h.html" target="_top" xlink:title="iDynTree/Core/Axis.h">
<polygon fill="none" stroke="#000000" points="2649,-347.5 2649,-366.5 2767,-366.5 2767,-347.5 2649,-347.5"/>
<text text-anchor="middle" x="2708" y="-354.5" font-family="FreeSans.ttf" font-size="10.00" fill="#000000">iDynTree/Core/Axis.h</text>
</a>
</g>
</g>
<!-- Node5&#45;&gt;Node10 -->
<g id="edge12" class="edge">
<title>Node5&#45;&gt;Node10</title>
<path fill="none" stroke="#191970" d="M434.2736,-476.7626C449.0742,-474.1619 465.6968,-471.5857 481,-470 902.1584,-426.3586 1010.2481,-457.6616 1433,-434 1618.9969,-423.5897 1665.0451,-414.1355 1851,-403 2198.0674,-382.2166 2288.8564,-400.2289 2638.5476,-367.049"/>
<polygon fill="#191970" stroke="#191970" points="2639.0831,-370.5138 2648.7046,-366.0778 2638.4168,-363.5456 2639.0831,-370.5138"/>
</g>
<!-- Node35 -->
<g id="node22" class="node">
<title>Node35</title>
<g id="a_node22"><a xlink:href="Transform_8h.html" target="_top" xlink:title="iDynTree/Core/Transform.h">
<polygon fill="none" stroke="#000000" points="1784,-347.5 1784,-366.5 1930,-366.5 1930,-347.5 1784,-347.5"/>
<text text-anchor="middle" x="1857" y="-354.5" font-family="FreeSans.ttf" font-size="10.00" fill="#000000">iDynTree/Core/Transform.h</text>
</a>
</g>
</g>
<!-- Node5&#45;&gt;Node35 -->
<g id="edge32" class="edge">
<title>Node5&#45;&gt;Node35</title>
<path fill="none" stroke="#191970" d="M434.3244,-477.2003C449.1283,-474.6288 465.7402,-471.9593 481,-470 968.7037,-407.3812 1558.3543,-372.5584 1773.3969,-361.1934"/>
<polygon fill="#191970" stroke="#191970" points="1773.8563,-364.6742 1783.6587,-360.6539 1773.4887,-357.6839 1773.8563,-364.6742"/>
</g>
<!-- Node6&#45;&gt;Node3 -->
<g id="edge8" class="edge">
<title>Node6&#45;&gt;Node3</title>
<path fill="none" stroke="#191970" d="M546.5625,-408.8906C563.7537,-398.9165 590.8582,-383.1908 610.7266,-371.6633"/>
<polygon fill="#191970" stroke="#191970" points="612.6606,-374.5877 619.5538,-366.5419 609.1477,-368.533 612.6606,-374.5877"/>
</g>
<!-- Node6&#45;&gt;Node4 -->
<g id="edge9" class="edge">
<title>Node6&#45;&gt;Node4</title>
<path fill="none" stroke="#191970" d="M537.2301,-408.7075C550.8603,-389.2469 579,-343.8779 579,-301 579,-301 579,-301 579,-183.5 579,-14.704 784.4992,-132.8707 952,-112 1242.4324,-75.812 1596.9578,-67.9744 1704.54,-66.3826"/>
<polygon fill="#191970" stroke="#191970" points="1704.7878,-69.8796 1714.7378,-66.2398 1704.6898,-62.8803 1704.7878,-69.8796"/>
</g>
<!-- Node7 -->
<g id="node8" class="node">
<title>Node7</title>
<polygon fill="none" stroke="#bfbfbf" points="485.5,-347.5 485.5,-366.5 550.5,-366.5 550.5,-347.5 485.5,-347.5"/>
<text text-anchor="middle" x="518" y="-354.5" font-family="FreeSans.ttf" font-size="10.00" fill="#000000">functional</text>
</g>
<!-- Node6&#45;&gt;Node7 -->
<g id="edge7" class="edge">
<title>Node6&#45;&gt;Node7</title>
<path fill="none" stroke="#191970" d="M528.125,-408.8906C526.4441,-400.276 523.926,-387.3708 521.8216,-376.5858"/>
<polygon fill="#191970" stroke="#191970" points="525.2518,-375.8895 519.9014,-366.7449 518.3814,-377.2301 525.2518,-375.8895"/>
</g>
<!-- Node6&#45;&gt;Node8 -->
<g id="edge10" class="edge">
<title>Node6&#45;&gt;Node8</title>
<path fill="none" stroke="#191970" d="M491.8324,-408.9581C448.833,-398.2082 378.8649,-380.7162 332.1458,-369.0365"/>
<polygon fill="#191970" stroke="#191970" points="332.8075,-365.5942 322.2571,-366.5643 331.1097,-372.3852 332.8075,-365.5942"/>
</g>
<!-- Node6&#45;&gt;Node9 -->
<g id="edge11" class="edge">
<title>Node6&#45;&gt;Node9</title>
<path fill="none" stroke="#191970" d="M596.0236,-411.5945C721.3977,-398.4814 989.8428,-370.4042 1084.2876,-360.526"/>
<polygon fill="#191970" stroke="#191970" points="1084.8321,-363.9883 1094.4137,-359.4669 1084.1039,-357.0263 1084.8321,-363.9883"/>
</g>
<!-- Node10&#45;&gt;Node4 -->
<g id="edge13" class="edge">
<title>Node10&#45;&gt;Node4</title>
<path fill="none" stroke="#191970" d="M2697.682,-347.1668C2663.6413,-315.3471 2550.5811,-214.554 2437,-168 2348.9742,-131.9205 2317.7349,-157.199 2226,-132 2202.1229,-125.4411 2198.0751,-117.7902 2174,-112 2025.844,-76.3673 1842.841,-68.3351 1769.5681,-66.5256"/>
<polygon fill="#191970" stroke="#191970" points="1769.2466,-63.0177 1759.1709,-66.2933 1769.0901,-70.0159 1769.2466,-63.0177"/>
</g>
<!-- Node11 -->
<g id="node12" class="node">
<title>Node11</title>
<g id="a_node12"><a xlink:href="Direction_8h.html" target="_top" xlink:title="iDynTree/Core/Direction.h">
<polygon fill="none" stroke="#000000" points="2631.5,-174 2631.5,-193 2772.5,-193 2772.5,-174 2631.5,-174"/>
<text text-anchor="middle" x="2702" y="-181" font-family="FreeSans.ttf" font-size="10.00" fill="#000000">iDynTree/Core/Direction.h</text>
</a>
</g>
</g>
<!-- Node10&#45;&gt;Node11 -->
<g id="edge14" class="edge">
<title>Node10&#45;&gt;Node11</title>
<path fill="none" stroke="#191970" d="M2707.6689,-347.4248C2706.7204,-319.999 2703.9792,-240.732 2702.6881,-203.3964"/>
<polygon fill="#191970" stroke="#191970" points="2706.1811,-203.1326 2702.3375,-193.2595 2699.1853,-203.3746 2706.1811,-203.1326"/>
</g>
<!-- Node13 -->
<g id="node14" class="node">
<title>Node13</title>
<g id="a_node14"><a xlink:href="Utils_8h.html" target="_top" xlink:title="iDynTree/Core/Utils.h">
<polygon fill="none" stroke="#ff0000" points="2642.5,-56.5 2642.5,-75.5 2761.5,-75.5 2761.5,-56.5 2642.5,-56.5"/>
<text text-anchor="middle" x="2702" y="-63.5" font-family="FreeSans.ttf" font-size="10.00" fill="#000000">iDynTree/Core/Utils.h</text>
</a>
</g>
</g>
<!-- Node10&#45;&gt;Node13 -->
<g id="edge31" class="edge">
<title>Node10&#45;&gt;Node13</title>
<path fill="none" stroke="#191970" d="M2750.2764,-347.4623C2772.1431,-340.5917 2797.7853,-329.2296 2815,-311 2836.4299,-288.3068 2839,-276.2125 2839,-245 2839,-245 2839,-245 2839,-183.5 2839,-149.9798 2837.9472,-136.4342 2815,-112 2800.1089,-96.144 2778.9807,-85.6068 2759.0156,-78.6728"/>
<polygon fill="#191970" stroke="#191970" points="2759.9322,-75.2909 2749.3405,-75.5508 2757.7824,-81.9527 2759.9322,-75.2909"/>
</g>
<!-- Node27 -->
<g id="node19" class="node">
<title>Node27</title>
<g id="a_node19"><a xlink:href="Position_8h.html" target="_top" xlink:title="iDynTree/Core/Position.h">
<polygon fill="none" stroke="#ff0000" points="2348,-291.5 2348,-310.5 2484,-310.5 2484,-291.5 2348,-291.5"/>
<text text-anchor="middle" x="2416" y="-298.5" font-family="FreeSans.ttf" font-size="10.00" fill="#000000">iDynTree/Core/Position.h</text>
</a>
</g>
</g>
<!-- Node10&#45;&gt;Node27 -->
<g id="edge24" class="edge">
<title>Node10&#45;&gt;Node27</title>
<path fill="none" stroke="#191970" d="M2658.1352,-347.4369C2607.6367,-337.7522 2529.5165,-322.7703 2475.7395,-312.4569"/>
<polygon fill="#191970" stroke="#191970" points="2476.1394,-308.9699 2465.6591,-310.5237 2474.8209,-315.8446 2476.1394,-308.9699"/>
</g>
<!-- Node11&#45;&gt;Node4 -->
<g id="edge15" class="edge">
<title>Node11&#45;&gt;Node4</title>
<path fill="none" stroke="#191970" d="M2690.5536,-173.8581C2670.4966,-157.6192 2627.0277,-125.2871 2584,-112 2544.448,-99.7862 1920.8353,-73.5362 1769.7679,-67.3332"/>
<polygon fill="#191970" stroke="#191970" points="1769.4658,-63.8179 1759.3309,-66.9057 1769.1792,-70.8121 1769.4658,-63.8179"/>
</g>
<!-- Node12 -->
<g id="node13" class="node">
<title>Node12</title>
<g id="a_node13"><a xlink:href="VectorFixSize_8h.html" target="_top" xlink:title="iDynTree/Core/VectorFixSize.h">
<polygon fill="none" stroke="#ff0000" points="2413.5,-112.5 2413.5,-131.5 2574.5,-131.5 2574.5,-112.5 2413.5,-112.5"/>
<text text-anchor="middle" x="2494" y="-119.5" font-family="FreeSans.ttf" font-size="10.00" fill="#000000">iDynTree/Core/VectorFixSize.h</text>
</a>
</g>
</g>
<!-- Node11&#45;&gt;Node12 -->
<g id="edge16" class="edge">
<title>Node11&#45;&gt;Node12</title>
<path fill="none" stroke="#191970" d="M2669.5,-173.8906C2633.553,-163.2621 2575.5173,-146.1025 2536.112,-134.4514"/>
<polygon fill="#191970" stroke="#191970" points="2536.8538,-131.021 2526.2718,-131.5419 2534.869,-137.7337 2536.8538,-131.021"/>
</g>
<!-- Node11&#45;&gt;Node13 -->
<g id="edge23" class="edge">
<title>Node11&#45;&gt;Node13</title>
<path fill="none" stroke="#191970" d="M2702,-173.8845C2702,-154.6913 2702,-111.286 2702,-85.7663"/>
<polygon fill="#191970" stroke="#191970" points="2705.5001,-85.7483 2702,-75.7484 2698.5001,-85.7484 2705.5001,-85.7483"/>
</g>
<!-- Node12&#45;&gt;Node4 -->
<g id="edge21" class="edge">
<title>Node12&#45;&gt;Node4</title>
<path fill="none" stroke="#191970" d="M2413.4856,-112.7959C2410.6227,-112.5188 2407.7873,-112.2524 2405,-112 2160.8973,-89.892 1865.7544,-72.9972 1769.2323,-67.7251"/>
<polygon fill="#191970" stroke="#191970" points="1769.403,-64.2293 1759.2278,-67.1815 1769.0231,-71.219 1769.403,-64.2293"/>
</g>
<!-- Node12&#45;&gt;Node13 -->
<g id="edge17" class="edge">
<title>Node12&#45;&gt;Node13</title>
<path fill="none" stroke="#191970" d="M2529.7565,-112.3733C2564.9426,-102.9001 2618.7881,-88.4032 2656.8956,-78.1435"/>
<polygon fill="#191970" stroke="#191970" points="2657.9639,-81.4806 2666.7101,-75.5011 2656.144,-74.7213 2657.9639,-81.4806"/>
</g>
<!-- Node16 -->
<g id="node15" class="node">
<title>Node16</title>
<g id="a_node15"><a xlink:href="Span_8h.html" target="_top" xlink:title="iDynTree/Core/Span.h">
<polygon fill="none" stroke="#ff0000" points="2066.5,-56.5 2066.5,-75.5 2187.5,-75.5 2187.5,-56.5 2066.5,-56.5"/>
<text text-anchor="middle" x="2127" y="-63.5" font-family="FreeSans.ttf" font-size="10.00" fill="#000000">iDynTree/Core/Span.h</text>
</a>
</g>
</g>
<!-- Node12&#45;&gt;Node16 -->
<g id="edge18" class="edge">
<title>Node12&#45;&gt;Node16</title>
<path fill="none" stroke="#191970" d="M2431.3275,-112.4369C2366.4826,-102.5423 2265.3998,-87.1182 2197.7317,-76.7928"/>
<polygon fill="#191970" stroke="#191970" points="2197.9977,-73.293 2187.5841,-75.2444 2196.9417,-80.2129 2197.9977,-73.293"/>
</g>
<!-- Node25 -->
<g id="node18" class="node">
<title>Node25</title>
<polygon fill="none" stroke="#bfbfbf" points="2466,-56.5 2466,-75.5 2522,-75.5 2522,-56.5 2466,-56.5"/>
<text text-anchor="middle" x="2494" y="-63.5" font-family="FreeSans.ttf" font-size="10.00" fill="#000000">sstream</text>
</g>
<!-- Node12&#45;&gt;Node25 -->
<g id="edge22" class="edge">
<title>Node12&#45;&gt;Node25</title>
<path fill="none" stroke="#191970" d="M2494,-112.2455C2494,-104.9382 2494,-94.6944 2494,-85.7046"/>
<polygon fill="#191970" stroke="#191970" points="2497.5001,-85.6426 2494,-75.6427 2490.5001,-85.6427 2497.5001,-85.6426"/>
</g>
<!-- Node16&#45;&gt;Node18 -->
<g id="edge19" class="edge">
<title>Node16&#45;&gt;Node18</title>
<path fill="none" stroke="#191970" d="M2170.3756,-56.4369C2217.5011,-46.047 2292.2807,-29.5602 2338.9,-19.2819"/>
<polygon fill="#191970" stroke="#191970" points="2339.6733,-22.6955 2348.6852,-17.1245 2338.1661,-15.8597 2339.6733,-22.6955"/>
</g>
<!-- Node20 -->
<g id="node17" class="node">
<title>Node20</title>
<polygon fill="none" stroke="#bfbfbf" points="1846.5,-.5 1846.5,-19.5 1899.5,-19.5 1899.5,-.5 1846.5,-.5"/>
<text text-anchor="middle" x="1873" y="-7.5" font-family="FreeSans.ttf" font-size="10.00" fill="#000000">iterator</text>
</g>
<!-- Node16&#45;&gt;Node20 -->
<g id="edge20" class="edge">
<title>Node16&#45;&gt;Node20</title>
<path fill="none" stroke="#191970" d="M2083.6244,-56.4369C2034.6217,-45.6331 1955.7182,-28.2371 1909.6667,-18.084"/>
<polygon fill="#191970" stroke="#191970" points="1910.328,-14.6458 1899.809,-15.9106 1908.8209,-21.4817 1910.328,-14.6458"/>
</g>
<!-- Node27&#45;&gt;Node4 -->
<g id="edge30" class="edge">
<title>Node27&#45;&gt;Node4</title>
<path fill="none" stroke="#191970" d="M2397.0713,-291.4106C2327.9903,-256.5436 2089.2651,-137.2248 2008,-112 1924.1767,-85.9811 1820.9215,-73.6052 1769.4199,-68.6987"/>
<polygon fill="#191970" stroke="#191970" points="1769.5196,-65.1932 1759.2412,-67.7628 1768.8787,-72.1638 1769.5196,-65.1932"/>
</g>
<!-- Node29 -->
<g id="node20" class="node">
<title>Node29</title>
<g id="a_node20"><a xlink:href="Rotation_8h.html" target="_top" xlink:title="iDynTree/Core/Rotation.h">
<polygon fill="none" stroke="#ff0000" points="2348.5,-235.5 2348.5,-254.5 2485.5,-254.5 2485.5,-235.5 2348.5,-235.5"/>
<text text-anchor="middle" x="2417" y="-242.5" font-family="FreeSans.ttf" font-size="10.00" fill="#000000">iDynTree/Core/Rotation.h</text>
</a>
</g>
</g>
<!-- Node27&#45;&gt;Node29 -->
<g id="edge25" class="edge">
<title>Node27&#45;&gt;Node29</title>
<path fill="none" stroke="#191970" d="M2416.1742,-291.2455C2416.3047,-283.9382 2416.4876,-273.6944 2416.6481,-264.7046"/>
<polygon fill="#191970" stroke="#191970" points="2420.1486,-264.7036 2416.8278,-254.6427 2413.1497,-264.5786 2420.1486,-264.7036"/>
</g>
<!-- Node29&#45;&gt;Node4 -->
<g id="edge26" class="edge">
<title>Node29&#45;&gt;Node4</title>
<path fill="none" stroke="#191970" d="M2365.0948,-235.4582C2332.5908,-228.2208 2290.4818,-216.4879 2256,-199 2199.7851,-170.4899 2202.3821,-135.7587 2144,-112 2076.0111,-84.3318 1852.9854,-71.3731 1769.1982,-67.3932"/>
<polygon fill="#191970" stroke="#191970" points="1769.159,-63.8877 1759.0077,-66.9211 1768.835,-70.8802 1769.159,-63.8877"/>
</g>
<!-- Node29&#45;&gt;Node12 -->
<g id="edge29" class="edge">
<title>Node29&#45;&gt;Node12</title>
<path fill="none" stroke="#191970" d="M2423.0421,-235.3484C2435.8617,-214.8703 2465.9657,-166.782 2482.5463,-140.2962"/>
<polygon fill="#191970" stroke="#191970" points="2485.6464,-141.9401 2487.986,-131.6068 2479.7131,-138.2257 2485.6464,-141.9401"/>
</g>
<!-- Node30 -->
<g id="node21" class="node">
<title>Node30</title>
<g id="a_node21"><a xlink:href="GeomVector3_8h.html" target="_top" xlink:title="iDynTree/Core/GeomVector3.h">
<polygon fill="none" stroke="#000000" points="2264.5,-174 2264.5,-193 2427.5,-193 2427.5,-174 2264.5,-174"/>
<text text-anchor="middle" x="2346" y="-181" font-family="FreeSans.ttf" font-size="10.00" fill="#000000">iDynTree/Core/GeomVector3.h</text>
</a>
</g>
</g>
<!-- Node29&#45;&gt;Node30 -->
<g id="edge27" class="edge">
<title>Node29&#45;&gt;Node30</title>
<path fill="none" stroke="#191970" d="M2405.9063,-235.3906C2395.0285,-225.9683 2378.2252,-211.4134 2365.18,-200.1137"/>
<polygon fill="#191970" stroke="#191970" points="2367.1004,-197.1466 2357.2502,-193.2449 2362.5173,-202.4377 2367.1004,-197.1466"/>
</g>
<!-- Node30&#45;&gt;Node12 -->
<g id="edge28" class="edge">
<title>Node30&#45;&gt;Node12</title>
<path fill="none" stroke="#191970" d="M2369.125,-173.8906C2393.9967,-163.5554 2433.7298,-147.0447 2461.6844,-135.4284"/>
<polygon fill="#191970" stroke="#191970" points="2463.146,-138.6113 2471.0374,-131.5419 2460.4598,-132.1472 2463.146,-138.6113"/>
</g>
<!-- Node35&#45;&gt;Node4 -->
<g id="edge39" class="edge">
<title>Node35&#45;&gt;Node4</title>
<path fill="none" stroke="#191970" d="M1853.0074,-347.3179C1835.8532,-305.719 1768.2254,-141.7216 1744.9332,-85.2381"/>
<polygon fill="#191970" stroke="#191970" points="1748.0556,-83.6289 1741.0076,-75.7185 1741.5843,-86.2976 1748.0556,-83.6289"/>
</g>
<!-- Node35&#45;&gt;Node27 -->
<g id="edge33" class="edge">
<title>Node35&#45;&gt;Node27</title>
<path fill="none" stroke="#191970" d="M1930.0795,-349.679C2035.4404,-339.124 2229.2208,-319.7113 2337.5148,-308.8626"/>
<polygon fill="#191970" stroke="#191970" points="2338.1209,-312.3195 2347.7222,-307.84 2337.4231,-305.3543 2338.1209,-312.3195"/>
</g>
<!-- Node35&#45;&gt;Node29 -->
<g id="edge34" class="edge">
<title>Node35&#45;&gt;Node29</title>
<path fill="none" stroke="#191970" d="M1894.9661,-347.4613C1966.6706,-329.4526 2115.3854,-292.1357 2121,-291 2194.2425,-276.1854 2278.5162,-263.5095 2338.364,-255.2385"/>
<polygon fill="#191970" stroke="#191970" points="2339.0674,-258.6749 2348.4987,-253.8477 2338.1157,-251.7399 2339.0674,-258.6749"/>
</g>
<!-- Node32 -->
<g id="node23" class="node">
<title>Node32</title>
<g id="a_node23"><a xlink:href="MatrixFixSize_8h.html" target="_top" xlink:title="iDynTree/Core/MatrixFixSize.h">
<polygon fill="none" stroke="#ff0000" points="2234.5,-112.5 2234.5,-131.5 2395.5,-131.5 2395.5,-112.5 2234.5,-112.5"/>
<text text-anchor="middle" x="2315" y="-119.5" font-family="FreeSans.ttf" font-size="10.00" fill="#000000">iDynTree/Core/MatrixFixSize.h</text>
</a>
</g>
</g>
<!-- Node35&#45;&gt;Node32 -->
<g id="edge35" class="edge">
<title>Node35&#45;&gt;Node32</title>
<path fill="none" stroke="#191970" d="M1871.9132,-347.4654C1918.1439,-318.1561 2063.6623,-227.7573 2192,-168 2219.4295,-155.2281 2251.4762,-143.3358 2275.981,-134.8436"/>
<polygon fill="#191970" stroke="#191970" points="2277.3212,-138.0842 2285.6483,-131.5337 2275.0537,-131.4616 2277.3212,-138.0842"/>
</g>
<!-- Node32&#45;&gt;Node4 -->
<g id="edge37" class="edge">
<title>Node32&#45;&gt;Node4</title>
<path fill="none" stroke="#191970" d="M2234.4123,-113.4612C2229.5361,-112.9619 2224.7029,-112.4715 2220,-112 2050.2973,-94.9876 1846.8926,-76.1104 1769.2567,-68.9606"/>
<polygon fill="#191970" stroke="#191970" points="1769.4319,-65.462 1759.1532,-68.0309 1768.7905,-72.4325 1769.4319,-65.462"/>
</g>
<!-- Node32&#45;&gt;Node13 -->
<g id="edge36" class="edge">
<title>Node32&#45;&gt;Node13</title>
<path fill="none" stroke="#191970" d="M2381.0879,-112.4369C2450.9445,-102.3284 2560.6833,-86.4489 2631.9902,-76.1306"/>
<polygon fill="#191970" stroke="#191970" points="2632.8271,-79.5461 2642.2228,-74.6499 2631.8246,-72.6182 2632.8271,-79.5461"/>
</g>
<!-- Node32&#45;&gt;Node25 -->
<g id="edge38" class="edge">
<title>Node32&#45;&gt;Node25</title>
<path fill="none" stroke="#191970" d="M2345.7712,-112.3733C2376.3897,-102.7943 2423.4267,-88.0788 2456.2778,-77.8014"/>
<polygon fill="#191970" stroke="#191970" points="2457.4848,-81.0911 2465.9836,-74.7649 2455.3947,-74.4104 2457.4848,-81.0911"/>
</g>
<!-- Node36&#45;&gt;Node3 -->
<g id="edge46" class="edge">
<title>Node36&#45;&gt;Node3</title>
<path fill="none" stroke="#191970" d="M558.3684,-475.9592C572.1859,-466.7061 592.2186,-451.5229 605,-434 617.696,-416.5943 626.1356,-393.258 630.9604,-376.8538"/>
<polygon fill="#191970" stroke="#191970" points="634.4584,-377.3326 633.731,-366.7627 627.7082,-375.4792 634.4584,-377.3326"/>
</g>
<!-- Node36&#45;&gt;Node4 -->
<g id="edge47" class="edge">
<title>Node36&#45;&gt;Node4</title>
<path fill="none" stroke="#191970" d="M515.1397,-475.9378C495.4742,-467.7805 470.0439,-454.1376 455,-434 433.904,-405.7612 436,-392.2487 436,-357 436,-357 436,-357 436,-183.5 436,-109.647 514.3056,-129.7254 586,-112 697.1242,-84.5261 1530.141,-69.4008 1704.8997,-66.5118"/>
<polygon fill="#191970" stroke="#191970" points="1705.057,-70.0098 1714.9983,-66.3464 1704.9423,-63.0107 1705.057,-70.0098"/>
</g>
<!-- Node36&#45;&gt;Node6 -->
<g id="edge44" class="edge">
<title>Node36&#45;&gt;Node6</title>
<path fill="none" stroke="#191970" d="M541.1374,-475.9005C539.226,-466.0495 536.1983,-450.4451 533.7819,-437.9912"/>
<polygon fill="#191970" stroke="#191970" points="537.1999,-437.2319 531.8591,-428.0817 530.3281,-438.5653 537.1999,-437.2319"/>
</g>
<!-- Node36&#45;&gt;Node12 -->
<g id="edge45" class="edge">
<title>Node36&#45;&gt;Node12</title>
<path fill="none" stroke="#191970" d="M575.8027,-475.9692C659.9548,-451.7737 890.6216,-387.0576 1086,-347 1504.1774,-261.2628 1613.6074,-267.2021 2035,-199 2175.3577,-176.2832 2339.6293,-148.415 2428.6222,-133.2106"/>
<polygon fill="#191970" stroke="#191970" points="2429.303,-136.6451 2438.5703,-131.5101 2428.1235,-129.7452 2429.303,-136.6451"/>
</g>
<!-- Node37&#45;&gt;Node3 -->
<g id="edge77" class="edge">
<title>Node37&#45;&gt;Node3</title>
<path fill="none" stroke="#191970" d="M884.2085,-609.9315C871.3863,-584.9384 834.2409,-516.4227 790,-470 750.4374,-428.4863 694.0528,-391.4952 661.6257,-371.8597"/>
<polygon fill="#191970" stroke="#191970" points="663.1421,-368.6887 652.7624,-366.5646 659.552,-374.698 663.1421,-368.6887"/>
</g>
<!-- Node37&#45;&gt;Node4 -->
<g id="edge78" class="edge">
<title>Node37&#45;&gt;Node4</title>
<path fill="none" stroke="#191970" d="M892.5086,-609.8143C907.5721,-567.3341 966,-393.0217 966,-245 966,-245 966,-245 966,-183.5 966,-155.7998 880.4119,-170.5943 1122,-112 1234.2795,-84.768 1594.3223,-70.7588 1704.5935,-67.0316"/>
<polygon fill="#191970" stroke="#191970" points="1704.8822,-70.524 1714.7602,-66.6933 1704.6493,-63.5279 1704.8822,-70.524"/>
</g>
<!-- Node37&#45;&gt;Node6 -->
<g id="edge49" class="edge">
<title>Node37&#45;&gt;Node6</title>
<path fill="none" stroke="#191970" d="M859.5215,-609.9753C833.1306,-600.8889 793.8066,-585.9488 762,-568 746.1689,-559.0664 646.431,-479.6081 631,-470 608.2099,-455.8097 581.0331,-442.1208 560.6138,-432.4274"/>
<polygon fill="#191970" stroke="#191970" points="562.0049,-429.2141 551.465,-428.1365 559.0324,-435.5517 562.0049,-429.2141"/>
</g>
<!-- Node37&#45;&gt;Node8 -->
<g id="edge79" class="edge">
<title>Node37&#45;&gt;Node8</title>
<path fill="none" stroke="#191970" d="M879.8738,-609.5774C846.8661,-574.4032 729.0815,-454.9989 605,-403 558.4756,-383.503 419.7896,-368.7614 340.7693,-361.6714"/>
<polygon fill="#191970" stroke="#191970" points="340.7698,-358.1579 330.5003,-360.763 340.1529,-365.1307 340.7698,-358.1579"/>
</g>
<!-- Node37&#45;&gt;Node9 -->
<g id="edge80" class="edge">
<title>Node37&#45;&gt;Node9</title>
<path fill="none" stroke="#191970" d="M896.3846,-609.6667C908.218,-594.0162 932.306,-562.5939 954,-537 1006.1932,-475.4241 1071.7617,-405.5684 1101.7189,-374.0381"/>
<polygon fill="#191970" stroke="#191970" points="1104.5006,-376.1922 1108.8619,-366.5366 1099.4312,-371.365 1104.5006,-376.1922"/>
</g>
<!-- Node37&#45;&gt;Node35 -->
<g id="edge50" class="edge">
<title>Node37&#45;&gt;Node35</title>
<path fill="none" stroke="#191970" d="M912.2209,-609.9812C975.8207,-584.2155 1158.5832,-512.2163 1316,-470 1399.0135,-447.7373 1423.6908,-458.7398 1506,-434 1540.149,-423.7358 1545.7368,-412.8761 1580,-403 1643.8306,-384.6013 1718.1931,-372.756 1773.7893,-365.7006"/>
<polygon fill="#191970" stroke="#191970" points="1774.4532,-369.1451 1783.9452,-364.4385 1773.5899,-362.1986 1774.4532,-369.1451"/>
</g>
<!-- Node37&#45;&gt;Node38 -->
<g id="edge51" class="edge">
<title>Node37&#45;&gt;Node38</title>
<path fill="none" stroke="#191970" d="M921.8917,-609.9894C930.3471,-607.7847 939.467,-605.6143 948,-604 1069.3358,-581.0452 1211.6357,-566.5728 1300.3236,-559.0059"/>
<polygon fill="#191970" stroke="#191970" points="1300.664,-562.4897 1310.3345,-558.1617 1300.0757,-555.5145 1300.664,-562.4897"/>
</g>
<!-- Node38&#45;&gt;Node4 -->
<g id="edge53" class="edge">
<title>Node38&#45;&gt;Node4</title>
<path fill="none" stroke="#191970" d="M1436.5404,-542.9911C1520.5993,-523.9272 1680,-472.5436 1680,-357 1680,-357 1680,-357 1680,-183.5 1680,-144.841 1705.2862,-105.5543 1722.175,-83.6259"/>
<polygon fill="#191970" stroke="#191970" points="1725.0817,-85.595 1728.5895,-75.5977 1719.6129,-81.2255 1725.0817,-85.595"/>
</g>
<!-- Node38&#45;&gt;Node9 -->
<g id="edge54" class="edge">
<title>Node38&#45;&gt;Node9</title>
<path fill="none" stroke="#191970" d="M1320.8055,-542.9792C1287.6229,-535.6705 1248.0591,-522.9456 1218,-501 1172.2822,-467.6223 1140.2137,-406.743 1126.0909,-375.9358"/>
<polygon fill="#191970" stroke="#191970" points="1129.2562,-374.4399 1121.9956,-366.7241 1122.8599,-377.2836 1129.2562,-374.4399"/>
</g>
<!-- Node38&#45;&gt;Node20 -->
<g id="edge55" class="edge">
<title>Node38&#45;&gt;Node20</title>
<path fill="none" stroke="#191970" d="M1371.9582,-542.8954C1357.5609,-532.8814 1334.6937,-516.5109 1316,-501 1238.8021,-436.9461 1234.3553,-402.8061 1151,-347 1060.436,-286.3677 928,-353.9868 928,-245 928,-245 928,-245 928,-122 928,-28.8508 1661.4206,-12.9008 1836.0201,-10.4235"/>
<polygon fill="#191970" stroke="#191970" points="1836.2886,-13.9203 1846.2402,-10.285 1836.1937,-6.9209 1836.2886,-13.9203"/>
</g>
<!-- Node38&#45;&gt;Node30 -->
<g id="edge52" class="edge">
<title>Node38&#45;&gt;Node30</title>
<path fill="none" stroke="#191970" d="M1461.7549,-545.5639C1546.1529,-537.0198 1676.6997,-521.1317 1722,-501 1741.9176,-492.1485 1740.0877,-478.8635 1760,-470 1855.7288,-427.3885 1901.1961,-484.5154 1993,-434 2037.9823,-409.2484 2034.6391,-385.1494 2069,-347 2091.7306,-321.7631 2093.6374,-311.1213 2121,-291 2180.9124,-246.9429 2261.7303,-213.6083 2308.421,-196.4438"/>
<polygon fill="#191970" stroke="#191970" points="2309.6371,-199.7259 2317.8465,-193.0285 2307.2523,-193.1446 2309.6371,-199.7259"/>
</g>
<!-- Node39 -->
<g id="node27" class="node">
<title>Node39</title>
<g id="a_node27"><a xlink:href="VectorDynSize_8h.html" target="_top" xlink:title="iDynTree/Core/VectorDynSize.h">
<polygon fill="none" stroke="#000000" points="1783.5,-112.5 1783.5,-131.5 1950.5,-131.5 1950.5,-112.5 1783.5,-112.5"/>
<text text-anchor="middle" x="1867" y="-119.5" font-family="FreeSans.ttf" font-size="10.00" fill="#000000">iDynTree/Core/VectorDynSize.h</text>
</a>
</g>
</g>
<!-- Node38&#45;&gt;Node39 -->
<g id="edge56" class="edge">
<title>Node38&#45;&gt;Node39</title>
<path fill="none" stroke="#191970" d="M1461.8125,-547.1539C1538.2348,-540.4237 1649.6564,-526.5244 1684,-501 1741.4301,-458.3176 1756,-428.5542 1756,-357 1756,-357 1756,-357 1756,-301 1756,-232.1879 1815.98,-167.8177 1847.7584,-138.5424"/>
<polygon fill="#191970" stroke="#191970" points="1850.4363,-140.8418 1855.5391,-131.5567 1845.7598,-135.633 1850.4363,-140.8418"/>
</g>
<!-- Node38&#45;&gt;Node40 -->
<g id="edge59" class="edge">
<title>Node38&#45;&gt;Node40</title>
<path fill="none" stroke="#191970" d="M1386.7164,-542.9005C1387.4441,-533.149 1388.5926,-517.7597 1389.5172,-505.3695"/>
<polygon fill="#191970" stroke="#191970" points="1393.031,-505.3144 1390.285,-495.0817 1386.0504,-504.7934 1393.031,-505.3144"/>
</g>
<!-- Node42 -->
<g id="node30" class="node">
<title>Node42</title>
<g id="a_node30"><a xlink:href="Indices_8h.html" target="_top" xlink:title="iDynTree/Model/Indices.h">
<polygon fill="none" stroke="#000000" points="2078,-347.5 2078,-366.5 2216,-366.5 2216,-347.5 2078,-347.5"/>
<text text-anchor="middle" x="2147" y="-354.5" font-family="FreeSans.ttf" font-size="10.00" fill="#000000">iDynTree/Model/Indices.h</text>
</a>
</g>
</g>
<!-- Node38&#45;&gt;Node42 -->
<g id="edge76" class="edge">
<title>Node38&#45;&gt;Node42</title>
<path fill="none" stroke="#191970" d="M1461.852,-543.8625C1537.6089,-534.8116 1657.251,-519.3665 1760,-501 1777.0244,-497.9569 2048.6795,-442.0232 2064,-434 2078.9876,-426.1511 2111.3505,-394.0392 2130.9431,-373.8451"/>
<polygon fill="#191970" stroke="#191970" points="2133.584,-376.1485 2137.9999,-366.5178 2128.542,-371.2927 2133.584,-376.1485"/>
</g>
<!-- Node39&#45;&gt;Node4 -->
<g id="edge58" class="edge">
<title>Node39&#45;&gt;Node4</title>
<path fill="none" stroke="#191970" d="M1844.6522,-112.3733C1823.5967,-103.3032 1791.8505,-89.6279 1768.2825,-79.4755"/>
<polygon fill="#191970" stroke="#191970" points="1769.625,-76.243 1759.0562,-75.5011 1766.8556,-82.6719 1769.625,-76.243"/>
</g>
<!-- Node39&#45;&gt;Node16 -->
<g id="edge57" class="edge">
<title>Node39&#45;&gt;Node16</title>
<path fill="none" stroke="#191970" d="M1911.4002,-112.4369C1956.0841,-102.8127 2025.057,-87.957 2072.9088,-77.6504"/>
<polygon fill="#191970" stroke="#191970" points="2073.7441,-81.0508 2082.783,-75.5237 2072.2702,-74.2078 2073.7441,-81.0508"/>
</g>
<!-- Node40&#45;&gt;Node9 -->
<g id="edge75" class="edge">
<title>Node40&#45;&gt;Node9</title>
<path fill="none" stroke="#191970" d="M1360.8565,-475.9526C1332.2972,-466.5306 1288.4702,-451.0888 1252,-434 1211.7926,-415.16 1167.5721,-388.5009 1141.329,-372.0046"/>
<polygon fill="#191970" stroke="#191970" points="1143.1531,-369.017 1132.8322,-366.623 1139.4075,-374.9307 1143.1531,-369.017"/>
</g>
<!-- Node40&#45;&gt;Node35 -->
<g id="edge66" class="edge">
<title>Node40&#45;&gt;Node35</title>
<path fill="none" stroke="#191970" d="M1425.645,-475.9466C1508.9002,-452.9889 1720.1439,-394.7382 1812.5638,-369.2533"/>
<polygon fill="#191970" stroke="#191970" points="1813.7338,-372.5614 1822.4436,-366.529 1811.8729,-365.8133 1813.7338,-372.5614"/>
</g>
<!-- Node41 -->
<g id="node29" class="node">
<title>Node41</title>
<g id="a_node29"><a xlink:href="IJoint_8h.html" target="_top" xlink:title="iDynTree/Model/IJoint.h">
<polygon fill="none" stroke="#000000" points="2192,-409 2192,-428 2320,-428 2320,-409 2192,-409"/>
<text text-anchor="middle" x="2256" y="-416" font-family="FreeSans.ttf" font-size="10.00" fill="#000000">iDynTree/Model/IJoint.h</text>
</a>
</g>
</g>
<!-- Node40&#45;&gt;Node41 -->
<g id="edge60" class="edge">
<title>Node40&#45;&gt;Node41</title>
<path fill="none" stroke="#191970" d="M1457.7967,-480.3262C1616.55,-468.0297 2015.5488,-437.1245 2181.6428,-424.2595"/>
<polygon fill="#191970" stroke="#191970" points="2182.0649,-427.7373 2191.7647,-423.4754 2181.5243,-420.7582 2182.0649,-427.7373"/>
</g>
<!-- Node40&#45;&gt;Node42 -->
<g id="edge67" class="edge">
<title>Node40&#45;&gt;Node42</title>
<path fill="none" stroke="#191970" d="M1457.6242,-482.9636C1592.5863,-477.3086 1893.8615,-461.9177 1993,-434 2042.3296,-420.1087 2094.6567,-390.2884 2123.8417,-372.1051"/>
<polygon fill="#191970" stroke="#191970" points="2125.8918,-374.9497 2132.471,-366.6452 2122.149,-369.0343 2125.8918,-374.9497"/>
</g>
<!-- Node44 -->
<g id="node32" class="node">
<title>Node44</title>
<g id="a_node32"><a xlink:href="Link_8h.html" target="_top" xlink:title="iDynTree/Model/Link.h">
<polygon fill="none" stroke="#ff0000" points="1860,-409 1860,-428 1984,-428 1984,-409 1860,-409"/>
<text text-anchor="middle" x="1922" y="-416" font-family="FreeSans.ttf" font-size="10.00" fill="#000000">iDynTree/Model/Link.h</text>
</a>
</g>
</g>
<!-- Node40&#45;&gt;Node44 -->
<g id="edge64" class="edge">
<title>Node40&#45;&gt;Node44</title>
<path fill="none" stroke="#191970" d="M1457.8372,-477.5014C1540.2194,-467.5835 1684.48,-450.024 1808,-434 1821.5482,-432.2424 1835.9948,-430.3175 1849.8925,-428.4402"/>
<polygon fill="#191970" stroke="#191970" points="1850.4551,-431.8961 1859.8944,-427.0847 1849.515,-424.9595 1850.4551,-431.8961"/>
</g>
<!-- Node55 -->
<g id="node33" class="node">
<title>Node55</title>
<g id="a_node33"><a xlink:href="SolidShapes_8h.html" target="_top" xlink:title="iDynTree/Model/SolidShapes.h">
<polygon fill="none" stroke="#000000" points="1260.5,-409 1260.5,-428 1423.5,-428 1423.5,-409 1260.5,-409"/>
<text text-anchor="middle" x="1342" y="-416" font-family="FreeSans.ttf" font-size="10.00" fill="#000000">iDynTree/Model/SolidShapes.h</text>
</a>
</g>
</g>
<!-- Node40&#45;&gt;Node55 -->
<g id="edge68" class="edge">
<title>Node40&#45;&gt;Node55</title>
<path fill="none" stroke="#191970" d="M1383.9795,-475.9005C1376.4839,-465.6515 1364.4337,-449.1747 1355.1624,-436.4976"/>
<polygon fill="#191970" stroke="#191970" points="1357.7358,-434.0873 1349.0075,-428.0817 1352.0856,-438.2195 1357.7358,-434.0873"/>
</g>
<!-- Node56 -->
<g id="node34" class="node">
<title>Node56</title>
<polygon fill="none" stroke="#bfbfbf" points="1486.5,-347.5 1486.5,-366.5 1535.5,-366.5 1535.5,-347.5 1486.5,-347.5"/>
<text text-anchor="middle" x="1511" y="-354.5" font-family="FreeSans.ttf" font-size="10.00" fill="#000000">cstdlib</text>
</g>
<!-- Node40&#45;&gt;Node56 -->
<g id="edge74" class="edge">
<title>Node40&#45;&gt;Node56</title>
<path fill="none" stroke="#191970" d="M1400.0195,-475.8416C1420.1733,-454.2602 1469.0975,-401.8706 1494.7273,-374.4254"/>
<polygon fill="#191970" stroke="#191970" points="1497.6086,-376.468 1501.8758,-366.7705 1492.4926,-371.6903 1497.6086,-376.468"/>
</g>
<!-- Node41&#45;&gt;Node42 -->
<g id="edge61" class="edge">
<title>Node41&#45;&gt;Node42</title>
<path fill="none" stroke="#191970" d="M2238.9688,-408.8906C2221.211,-398.8713 2193.167,-383.0483 2172.7118,-371.5071"/>
<polygon fill="#191970" stroke="#191970" points="2174.3409,-368.4077 2163.9117,-366.5419 2170.9011,-374.5042 2174.3409,-368.4077"/>
</g>
<!-- Node42&#45;&gt;Node4 -->
<g id="edge62" class="edge">
<title>Node42&#45;&gt;Node4</title>
<path fill="none" stroke="#191970" d="M2107.609,-347.4408C2045.3653,-329.9709 1926.1911,-286.3614 1876,-199 1869.1365,-187.0535 1868.4155,-179.5023 1876,-168 1898.3595,-134.0909 1937.6405,-165.9091 1960,-132 1964.8933,-124.5792 1965.6147,-118.8911 1960,-112 1936.3077,-82.9217 1825.201,-71.6768 1769.2973,-67.8047"/>
<polygon fill="#191970" stroke="#191970" points="1769.4217,-64.3055 1759.2146,-67.1451 1768.9647,-71.2905 1769.4217,-64.3055"/>
</g>
<!-- Node43 -->
<g id="node31" class="node">
<title>Node43</title>
<polygon fill="none" stroke="#bfbfbf" points="2130,-291.5 2130,-310.5 2216,-310.5 2216,-291.5 2130,-291.5"/>
<text text-anchor="middle" x="2173" y="-298.5" font-family="FreeSans.ttf" font-size="10.00" fill="#000000">ModelExport.h</text>
</g>
<!-- Node42&#45;&gt;Node43 -->
<g id="edge63" class="edge">
<title>Node42&#45;&gt;Node43</title>
<path fill="none" stroke="#191970" d="M2151.5289,-347.2455C2155.0334,-339.6973 2159.9927,-329.0158 2164.2623,-319.8197"/>
<polygon fill="#191970" stroke="#191970" points="2167.4864,-321.1867 2168.523,-310.6427 2161.1373,-318.2389 2167.4864,-321.1867"/>
</g>
<!-- Node44&#45;&gt;Node42 -->
<g id="edge65" class="edge">
<title>Node44&#45;&gt;Node42</title>
<path fill="none" stroke="#191970" d="M1957.1563,-408.8906C1996.2889,-398.1944 2059.621,-380.8836 2102.2582,-369.2294"/>
<polygon fill="#191970" stroke="#191970" points="2103.3673,-372.5547 2112.0906,-366.5419 2101.5216,-365.8024 2103.3673,-372.5547"/>
</g>
<!-- Node55&#45;&gt;Node4 -->
<g id="edge70" class="edge">
<title>Node55&#45;&gt;Node4</title>
<path fill="none" stroke="#191970" d="M1350.5581,-408.9284C1366.6918,-389.855 1400,-345.1334 1400,-301 1400,-301 1400,-301 1400,-183.5 1400,-119.3266 1620.6381,-82.0754 1704.8587,-70.1937"/>
<polygon fill="#191970" stroke="#191970" points="1705.4615,-73.6438 1714.8885,-68.8083 1704.5036,-66.7096 1705.4615,-73.6438"/>
</g>
<!-- Node55&#45;&gt;Node9 -->
<g id="edge71" class="edge">
<title>Node55&#45;&gt;Node9</title>
<path fill="none" stroke="#191970" d="M1307,-408.8906C1264.4859,-397.2182 1193.282,-377.6689 1151.4703,-366.1894"/>
<polygon fill="#191970" stroke="#191970" points="1152.3297,-362.7959 1141.7599,-363.5234 1150.4763,-369.5461 1152.3297,-362.7959"/>
</g>
<!-- Node55&#45;&gt;Node35 -->
<g id="edge72" class="edge">
<title>Node55&#45;&gt;Node35</title>
<path fill="none" stroke="#191970" d="M1398.0219,-408.9645C1411.1211,-406.8711 1425.0346,-404.7572 1438,-403 1554.1988,-387.2512 1689.0903,-373.1956 1773.7497,-364.8837"/>
<polygon fill="#191970" stroke="#191970" points="1774.2086,-368.3556 1783.8204,-363.8988 1773.5272,-361.3888 1774.2086,-368.3556"/>
</g>
<!-- Node55&#45;&gt;Node42 -->
<g id="edge73" class="edge">
<title>Node55&#45;&gt;Node42</title>
<path fill="none" stroke="#191970" d="M1423.6177,-412.2646C1578.7406,-400.4136 1914.3066,-374.7772 2067.6511,-363.0621"/>
<polygon fill="#191970" stroke="#191970" points="2068.224,-366.5286 2077.9283,-362.2769 2067.6907,-359.5489 2068.224,-366.5286"/>
</g>
<!-- Node55&#45;&gt;Node56 -->
<g id="edge69" class="edge">
<title>Node55&#45;&gt;Node56</title>
<path fill="none" stroke="#191970" d="M1368.4063,-408.8906C1397.6839,-398.2363 1444.9957,-381.0193 1477.0163,-369.3668"/>
<polygon fill="#191970" stroke="#191970" points="1478.2257,-372.6514 1486.4259,-365.9426 1475.8319,-366.0734 1478.2257,-372.6514"/>
</g>
<!-- Node57&#45;&gt;Node3 -->
<g id="edge86" class="edge">
<title>Node57&#45;&gt;Node3</title>
<path fill="none" stroke="#191970" d="M660.7107,-542.8051C656.6559,-512.3163 644.1078,-417.9646 638.6173,-376.6804"/>
<polygon fill="#191970" stroke="#191970" points="642.085,-376.2047 637.2971,-366.7534 635.1461,-377.1276 642.085,-376.2047"/>
</g>
<!-- Node57&#45;&gt;Node4 -->
<g id="edge87" class="edge">
<title>Node57&#45;&gt;Node4</title>
<path fill="none" stroke="#191970" d="M613.97,-548.7342C530.3673,-541.6493 361.87,-524.8719 308,-501 255.3231,-477.6569 208,-476.1173 208,-418.5 208,-418.5 208,-418.5 208,-183.5 208,-95.765 306.0561,-129.6373 392,-112 524.179,-84.8744 1513.0128,-69.2469 1704.8252,-66.4541"/>
<polygon fill="#191970" stroke="#191970" points="1704.89,-69.9536 1714.8383,-66.3094 1704.7888,-62.9543 1704.89,-69.9536"/>
</g>
<!-- Node57&#45;&gt;Node6 -->
<g id="edge82" class="edge">
<title>Node57&#45;&gt;Node6</title>
<path fill="none" stroke="#191970" d="M656.8337,-542.7604C647.8412,-526.4119 628.0528,-492.9866 605,-470 590.6432,-455.6845 571.8281,-442.7773 556.6349,-433.4651"/>
<polygon fill="#191970" stroke="#191970" points="558.0976,-430.2625 547.7152,-428.1511 554.5148,-436.2762 558.0976,-430.2625"/>
</g>
<!-- Node57&#45;&gt;Node8 -->
<g id="edge88" class="edge">
<title>Node57&#45;&gt;Node8</title>
<path fill="none" stroke="#191970" d="M613.8539,-550.7285C533.9054,-546.8501 378.4412,-535.0389 337,-501 298.8652,-469.6769 288.1684,-408.2818 285.1686,-376.7391"/>
<polygon fill="#191970" stroke="#191970" points="288.6433,-376.2768 284.3752,-366.5797 281.6645,-376.822 288.6433,-376.2768"/>
</g>
<!-- Node57&#45;&gt;Node9 -->
<g id="edge89" class="edge">
<title>Node57&#45;&gt;Node9</title>
<path fill="none" stroke="#191970" d="M677.8062,-542.8634C720.5944,-517.1099 842.8168,-445.7449 952,-403 996.6691,-385.5122 1050.5335,-371.8795 1084.5323,-364.1368"/>
<polygon fill="#191970" stroke="#191970" points="1085.4196,-367.5249 1094.4137,-361.9252 1083.8907,-360.6938 1085.4196,-367.5249"/>
</g>
<!-- Node57&#45;&gt;Node35 -->
<g id="edge84" class="edge">
<title>Node57&#45;&gt;Node35</title>
<path fill="none" stroke="#191970" d="M710.0161,-545.4534C776.6825,-535.6422 901.047,-517.2398 1007,-501 1196.4483,-471.9625 1245.3689,-473.0946 1433,-434 1486.5049,-422.8518 1498.4602,-413.9794 1552,-403 1626.5383,-387.7144 1712.294,-375.2259 1773.8521,-367.1385"/>
<polygon fill="#191970" stroke="#191970" points="1774.4379,-370.5918 1783.9018,-365.829 1773.5334,-363.6505 1774.4379,-370.5918"/>
</g>
<!-- Node57&#45;&gt;Node36 -->
<g id="edge83" class="edge">
<title>Node57&#45;&gt;Node36</title>
<path fill="none" stroke="#191970" d="M644.9502,-542.9005C625.0677,-531.7062 591.9895,-513.0823 568.922,-500.0947"/>
<polygon fill="#191970" stroke="#191970" points="570.4491,-496.938 560.0182,-495.0817 567.0148,-503.0376 570.4491,-496.938"/>
</g>
<!-- Node57&#45;&gt;Node55 -->
<g id="edge85" class="edge">
<title>Node57&#45;&gt;Node55</title>
<path fill="none" stroke="#191970" d="M707.3902,-542.9694C782.0939,-527.3427 935.6717,-495.4644 1066,-470 1139.1835,-455.7009 1223.4597,-440.101 1279.438,-429.8611"/>
<polygon fill="#191970" stroke="#191970" points="1280.344,-433.2536 1289.552,-428.013 1279.0857,-426.3676 1280.344,-433.2536"/>
</g>
<!-- Node58&#45;&gt;Node3 -->
<g id="edge93" class="edge">
<title>Node58&#45;&gt;Node3</title>
<path fill="none" stroke="#191970" d="M1033.5362,-609.8665C994.6986,-577.5487 863.7779,-471.193 743,-403 720.3516,-390.2124 693.4493,-378.6619 672.2859,-370.3338"/>
<polygon fill="#191970" stroke="#191970" points="673.2917,-366.9702 662.7024,-366.6273 670.7666,-373.4989 673.2917,-366.9702"/>
</g>
<!-- Node58&#45;&gt;Node4 -->
<g id="edge94" class="edge">
<title>Node58&#45;&gt;Node4</title>
<path fill="none" stroke="#191970" d="M1041.5044,-609.6072C1031.5894,-580.6332 1004,-493.2903 1004,-418.5 1004,-418.5 1004,-418.5 1004,-183.5 1004,-111.5102 1562.3466,-75.6785 1704.4232,-67.7261"/>
<polygon fill="#191970" stroke="#191970" points="1704.8706,-71.2068 1714.6625,-67.1612 1704.4849,-64.2175 1704.8706,-71.2068"/>
</g>
<!-- Node58&#45;&gt;Node9 -->
<g id="edge95" class="edge">
<title>Node58&#45;&gt;Node9</title>
<path fill="none" stroke="#191970" d="M1047.4886,-609.9758C1055.432,-579.6623 1081.0084,-482.7307 1104,-403 1106.5088,-394.2998 1109.405,-384.714 1111.9099,-376.555"/>
<polygon fill="#191970" stroke="#191970" points="1115.3018,-377.4333 1114.912,-366.8456 1108.6142,-375.3655 1115.3018,-377.4333"/>
</g>
<!-- Node58&#45;&gt;Node38 -->
<g id="edge92" class="edge">
<title>Node58&#45;&gt;Node38</title>
<path fill="none" stroke="#191970" d="M1093.4948,-609.9717C1155.146,-597.8584 1261.4896,-576.9639 1327.5527,-563.9838"/>
<polygon fill="#191970" stroke="#191970" points="1328.2591,-567.412 1337.3967,-562.0496 1326.9095,-560.5433 1328.2591,-567.412"/>
</g>
<!-- Node58&#45;&gt;Node40 -->
<g id="edge91" class="edge">
<title>Node58&#45;&gt;Node40</title>
<path fill="none" stroke="#191970" d="M1064.0673,-609.9269C1096.8494,-593.6798 1166.2361,-560.2145 1227,-537 1266.7913,-521.798 1313.1933,-507.5382 1346.4645,-497.8957"/>
<polygon fill="#191970" stroke="#191970" points="1347.7025,-501.1817 1356.3466,-495.0556 1345.7688,-494.454 1347.7025,-501.1817"/>
</g>
<!-- Node59&#45;&gt;Node5 -->
<g id="edge103" class="edge">
<title>Node59&#45;&gt;Node5</title>
<path fill="none" stroke="#191970" d="M497.054,-609.8228C483.6357,-600.1315 463.2003,-584.3449 448,-568 429.1875,-547.7708 411.5323,-521.1385 400.754,-503.6803"/>
<polygon fill="#191970" stroke="#191970" points="403.685,-501.7635 395.51,-495.0241 397.698,-505.3906 403.685,-501.7635"/>
</g>
<!-- Node59&#45;&gt;Node6 -->
<g id="edge102" class="edge">
<title>Node59&#45;&gt;Node6</title>
<path fill="none" stroke="#191970" d="M505.3084,-609.7079C491.9073,-585.3057 460.9558,-520.1458 481,-470 486.5662,-456.0746 497.8885,-443.7656 508.2482,-434.676"/>
<polygon fill="#191970" stroke="#191970" points="510.7291,-437.167 516.2218,-428.1072 506.2781,-431.7643 510.7291,-437.167"/>
</g>
<!-- Node59&#45;&gt;Node8 -->
<g id="edge106" class="edge">
<title>Node59&#45;&gt;Node8</title>
<path fill="none" stroke="#191970" d="M481.2512,-609.8758C437.12,-594.1073 354.5271,-558.6295 308,-501 278.9181,-464.9784 279.1188,-407.0476 281.6204,-376.813"/>
<polygon fill="#191970" stroke="#191970" points="285.1208,-376.984 282.6356,-366.6847 278.1557,-376.2858 285.1208,-376.984"/>
</g>
<!-- Node59&#45;&gt;Node9 -->
<g id="edge107" class="edge">
<title>Node59&#45;&gt;Node9</title>
<path fill="none" stroke="#191970" d="M558.2567,-611.2164C601.0768,-602.9145 665.4751,-588.4271 719,-568 796.2281,-538.5269 1017.1597,-414.3248 1092.4827,-371.5489"/>
<polygon fill="#191970" stroke="#191970" points="1094.3625,-374.5063 1101.3256,-366.521 1090.9026,-368.4211 1094.3625,-374.5063"/>
</g>
<!-- Node59&#45;&gt;Node36 -->
<g id="edge104" class="edge">
<title>Node59&#45;&gt;Node36</title>
<path fill="none" stroke="#191970" d="M513.3014,-609.8631C518.5368,-587.9398 531.4213,-533.9858 538.3737,-504.8727"/>
<polygon fill="#191970" stroke="#191970" points="541.8009,-505.5891 540.7195,-495.0496 534.9924,-503.9631 541.8009,-505.5891"/>
</g>
<!-- Node59&#45;&gt;Node57 -->
<g id="edge105" class="edge">
<title>Node59&#45;&gt;Node57</title>
<path fill="none" stroke="#191970" d="M532.6346,-609.9005C558.4243,-598.4574 601.7106,-579.2509 631.0397,-566.2374"/>
<polygon fill="#191970" stroke="#191970" points="632.6844,-569.3367 640.4055,-562.0817 629.8454,-562.9383 632.6844,-569.3367"/>
</g>
<!-- Node60&#45;&gt;Node10 -->
<g id="edge119" class="edge">
<title>Node60&#45;&gt;Node10</title>
<path fill="none" stroke="#191970" d="M2807.7876,-537.2281C2833.6211,-508.6603 2881.3671,-446.1331 2850,-403 2839.8042,-388.9797 2801.4796,-377.0498 2767.213,-368.8547"/>
<polygon fill="#191970" stroke="#191970" points="2767.7469,-365.3858 2757.215,-366.5386 2766.1671,-372.2052 2767.7469,-365.3858"/>
</g>
<!-- Node60&#45;&gt;Node35 -->
<g id="edge109" class="edge">
<title>Node60&#45;&gt;Node35</title>
<path fill="none" stroke="#191970" d="M2775.9617,-537.2621C2764.5929,-527.0563 2749.3397,-513.2897 2736,-501 2721.2003,-487.3652 2720.98,-479.0364 2703,-470 2570.2307,-403.2725 2126.2415,-371.7422 1940.1652,-361.2151"/>
<polygon fill="#191970" stroke="#191970" points="1940.3399,-357.7194 1930.16,-360.6552 1939.9488,-364.7085 1940.3399,-357.7194"/>
</g>
<!-- Node60&#45;&gt;Node42 -->
<g id="edge120" class="edge">
<title>Node60&#45;&gt;Node42</title>
<path fill="none" stroke="#191970" d="M2786.0409,-537.3651C2776.9326,-519.0798 2759.3414,-488.4769 2736,-470 2701.573,-442.7478 2682.6713,-454.795 2644,-434 2622.9313,-422.6706 2622.4094,-411.3706 2600,-403 2582.8034,-396.5765 2352.0023,-375.251 2226.6754,-364.0348"/>
<polygon fill="#191970" stroke="#191970" points="2226.6347,-360.5173 2216.3629,-363.1134 2226.0117,-367.4896 2226.6347,-360.5173"/>
</g>
<!-- Node49 -->
<g id="node39" class="node">
<title>Node49</title>
<g id="a_node39"><a xlink:href="SpatialMotionVector_8h.html" target="_top" xlink:title="iDynTree/Core/SpatialMotion\lVector.h">
<polygon fill="none" stroke="#000000" points="2652.5,-403.5 2652.5,-433.5 2807.5,-433.5 2807.5,-403.5 2652.5,-403.5"/>
<text text-anchor="start" x="2660.5" y="-421.5" font-family="FreeSans.ttf" font-size="10.00" fill="#000000">iDynTree/Core/SpatialMotion</text>
<text text-anchor="middle" x="2730" y="-410.5" font-family="FreeSans.ttf" font-size="10.00" fill="#000000">Vector.h</text>
</a>
</g>
</g>
<!-- Node60&#45;&gt;Node49 -->
<g id="edge110" class="edge">
<title>Node60&#45;&gt;Node49</title>
<path fill="none" stroke="#191970" d="M2802.5985,-537.3082C2812.1716,-520.0444 2823.8753,-491.4815 2812,-470 2804.6648,-456.7312 2792.3207,-446.4197 2779.4074,-438.6286"/>
<polygon fill="#191970" stroke="#191970" points="2780.8709,-435.4376 2770.431,-433.6321 2777.4663,-441.5539 2780.8709,-435.4376"/>
</g>
<!-- Node61 -->
<g id="node41" class="node">
<title>Node61</title>
<g id="a_node41"><a xlink:href="MovableJointImpl_8h.html" target="_top" xlink:title="iDynTree/Model/MovableJoint\lImpl.h">
<polygon fill="none" stroke="#000000" points="2536,-470.5 2536,-500.5 2694,-500.5 2694,-470.5 2536,-470.5"/>
<text text-anchor="start" x="2544" y="-488.5" font-family="FreeSans.ttf" font-size="10.00" fill="#000000">iDynTree/Model/MovableJoint</text>
<text text-anchor="middle" x="2615" y="-477.5" font-family="FreeSans.ttf" font-size="10.00" fill="#000000">Impl.h</text>
</a>
</g>
</g>
<!-- Node60&#45;&gt;Node61 -->
<g id="edge121" class="edge">
<title>Node60&#45;&gt;Node61</title>
<path fill="none" stroke="#191970" d="M2753.0533,-537.4639C2726.9217,-527.6278 2692.5851,-514.7034 2664.6936,-504.2049"/>
<polygon fill="#191970" stroke="#191970" points="2665.7129,-500.8489 2655.1209,-500.6017 2663.2469,-507.4001 2665.7129,-500.8489"/>
</g>
<!-- Node49&#45;&gt;Node12 -->
<g id="edge111" class="edge">
<title>Node49&#45;&gt;Node12</title>
<path fill="none" stroke="#191970" d="M2652.3135,-405.5258C2646.7953,-404.6547 2641.3149,-403.8046 2636,-403 2520.2209,-385.4727 2478.0697,-422.5755 2375,-367 2294.4614,-323.5733 2281.2251,-286.9548 2256,-199 2252.2017,-185.7561 2247.2306,-178.6266 2256,-168 2266.0114,-155.8683 2345.4988,-142.2181 2409.9009,-132.9604"/>
<polygon fill="#191970" stroke="#191970" points="2410.6858,-136.3842 2420.0946,-131.5133 2409.7019,-129.4537 2410.6858,-136.3842"/>
</g>
<!-- Node49&#45;&gt;Node30 -->
<g id="edge112" class="edge">
<title>Node49&#45;&gt;Node30</title>
<path fill="none" stroke="#191970" d="M2652.2008,-405.748C2585.8398,-394.4769 2495.8142,-378.1421 2461,-367 2404.1776,-348.8143 2371.2071,-361.2216 2339,-311 2317.7533,-277.8693 2329.343,-229.3694 2338.443,-202.7523"/>
<polygon fill="#191970" stroke="#191970" points="2341.8273,-203.688 2341.9702,-193.0941 2335.2521,-201.2867 2341.8273,-203.688"/>
</g>
<!-- Node50 -->
<g id="node40" class="node">
<title>Node50</title>
<g id="a_node40"><a xlink:href="SpatialVector_8h.html" target="_top" xlink:title="iDynTree/Core/SpatialVector.h">
<polygon fill="none" stroke="#ff0000" points="2469.5,-347.5 2469.5,-366.5 2630.5,-366.5 2630.5,-347.5 2469.5,-347.5"/>
<text text-anchor="middle" x="2550" y="-354.5" font-family="FreeSans.ttf" font-size="10.00" fill="#000000">iDynTree/Core/SpatialVector.h</text>
</a>
</g>
</g>
<!-- Node49&#45;&gt;Node50 -->
<g id="edge113" class="edge">
<title>Node49&#45;&gt;Node50</title>
<path fill="none" stroke="#191970" d="M2685.967,-403.4554C2655.8019,-393.149 2616.2192,-379.6249 2587.547,-369.8286"/>
<polygon fill="#191970" stroke="#191970" points="2588.4882,-366.4515 2577.8936,-366.5303 2586.2249,-373.0756 2588.4882,-366.4515"/>
</g>
<!-- Node50&#45;&gt;Node13 -->
<g id="edge116" class="edge">
<title>Node50&#45;&gt;Node13</title>
<path fill="none" stroke="#191970" d="M2591.7293,-347.4756C2663.1022,-329.964 2801,-290.2723 2801,-245 2801,-245 2801,-245 2801,-183.5 2801,-137.8112 2756.6825,-100.6611 2727.3503,-81.0765"/>
<polygon fill="#191970" stroke="#191970" points="2729.0977,-78.039 2718.794,-75.5724 2725.3107,-83.9261 2729.0977,-78.039"/>
</g>
<!-- Node50&#45;&gt;Node25 -->
<g id="edge118" class="edge">
<title>Node50&#45;&gt;Node25</title>
<path fill="none" stroke="#191970" d="M2555.5134,-347.2083C2574.39,-312.2554 2632.639,-191.4838 2584,-112 2572.6126,-93.3911 2551.0583,-82.0076 2531.8982,-75.2205"/>
<polygon fill="#191970" stroke="#191970" points="2532.7552,-71.8194 2522.1635,-72.0764 2530.6037,-78.4805 2532.7552,-71.8194"/>
</g>
<!-- Node50&#45;&gt;Node27 -->
<g id="edge114" class="edge">
<title>Node50&#45;&gt;Node27</title>
<path fill="none" stroke="#191970" d="M2526.9646,-347.3733C2505.2612,-338.3032 2472.5382,-324.6279 2448.245,-314.4755"/>
<polygon fill="#191970" stroke="#191970" points="2449.3111,-311.1278 2438.7348,-310.5011 2446.6119,-317.5865 2449.3111,-311.1278"/>
</g>
<!-- Node50&#45;&gt;Node29 -->
<g id="edge115" class="edge">
<title>Node50&#45;&gt;Node29</title>
<path fill="none" stroke="#191970" d="M2543.0838,-347.1954C2533.1032,-333.5049 2513.5883,-308.3892 2493,-291 2478.4613,-278.7204 2460.2815,-267.5915 2445.3482,-259.3569"/>
<polygon fill="#191970" stroke="#191970" points="2446.9968,-256.2695 2436.5312,-254.6192 2443.6835,-262.4357 2446.9968,-256.2695"/>
</g>
<!-- Node50&#45;&gt;Node30 -->
<g id="edge117" class="edge">
<title>Node50&#45;&gt;Node30</title>
<path fill="none" stroke="#191970" d="M2548.3169,-347.2293C2543.8649,-324.3103 2529.6567,-266.6461 2495,-235 2473.4893,-215.3579 2444.1111,-203.1466 2417.125,-195.5824"/>
<polygon fill="#191970" stroke="#191970" points="2417.8714,-192.1597 2407.31,-193.0007 2416.0907,-198.9295 2417.8714,-192.1597"/>
</g>
<!-- Node61&#45;&gt;Node41 -->
<g id="edge122" class="edge">
<title>Node61&#45;&gt;Node41</title>
<path fill="none" stroke="#191970" d="M2535.7715,-470.7136C2469.8931,-458.4188 2377.4834,-441.1724 2317.1874,-429.9194"/>
<polygon fill="#191970" stroke="#191970" points="2317.529,-426.4228 2307.0565,-428.0287 2316.2447,-433.304 2317.529,-426.4228"/>
</g>
<!-- Node62&#45;&gt;Node10 -->
<g id="edge126" class="edge">
<title>Node62&#45;&gt;Node10</title>
<path fill="none" stroke="#191970" d="M2656.357,-542.983C2704.6383,-528.6396 2785.1113,-496.2759 2817,-434 2823.2796,-421.7365 2824.6164,-414.4812 2817,-403 2806.5095,-387.1864 2789.3939,-376.7957 2771.8016,-369.9732"/>
<polygon fill="#191970" stroke="#191970" points="2772.6129,-366.5486 2762.018,-366.5383 2770.2939,-373.1534 2772.6129,-366.5486"/>
</g>
<!-- Node62&#45;&gt;Node35 -->
<g id="edge124" class="edge">
<title>Node62&#45;&gt;Node35</title>
<path fill="none" stroke="#191970" d="M2533.9989,-546.2167C2426.4936,-537.5426 2246.5543,-520.7161 2183,-501 2154.7086,-492.2233 2150.2977,-483.6332 2124,-470 2065.9426,-439.9021 2053.2468,-428.4336 1993,-403 1962.2209,-390.0064 1926.3891,-378.0087 1899.2337,-369.5261"/>
<polygon fill="#191970" stroke="#191970" points="1900.2346,-366.1722 1889.6471,-366.5647 1898.1685,-372.8604 1900.2346,-366.1722"/>
</g>
<!-- Node62&#45;&gt;Node42 -->
<g id="edge127" class="edge">
<title>Node62&#45;&gt;Node42</title>
<path fill="none" stroke="#191970" d="M2547.1161,-542.9897C2488.9697,-534.0602 2412.2716,-519.3439 2387,-501 2346.0409,-471.269 2369.5357,-433.3057 2329,-403 2310.7774,-389.3763 2258.2931,-376.93 2214.3408,-368.4293"/>
<polygon fill="#191970" stroke="#191970" points="2214.7222,-364.9394 2204.2453,-366.516 2213.4187,-371.817 2214.7222,-364.9394"/>
</g>
<!-- Node62&#45;&gt;Node49 -->
<g id="edge125" class="edge">
<title>Node62&#45;&gt;Node49</title>
<path fill="none" stroke="#191970" d="M2643.3074,-542.8998C2662.2379,-534.5119 2687.4408,-520.5919 2703,-501 2716.117,-484.4834 2722.9616,-461.3688 2726.4717,-443.8068"/>
<polygon fill="#191970" stroke="#191970" points="2729.9644,-444.1537 2728.2525,-433.698 2723.0705,-442.9391 2729.9644,-444.1537"/>
</g>
<!-- Node62&#45;&gt;Node61 -->
<g id="edge128" class="edge">
<title>Node62&#45;&gt;Node61</title>
<path fill="none" stroke="#191970" d="M2617.5702,-542.9005C2617.1945,-534.5099 2616.6319,-521.9451 2616.1287,-510.7085"/>
<polygon fill="#191970" stroke="#191970" points="2619.6165,-510.3552 2615.6726,-500.5218 2612.6235,-510.6683 2619.6165,-510.3552"/>
</g>
<!-- Node64&#45;&gt;Node9 -->
<g id="edge144" class="edge">
<title>Node64&#45;&gt;Node9</title>
<path fill="none" stroke="#191970" d="M1582.1192,-604.2134C1565.6244,-563.6129 1514.7155,-452.7894 1433,-403 1386.3121,-374.553 1223.6501,-362.6012 1152.1547,-358.639"/>
<polygon fill="#191970" stroke="#191970" points="1152.0654,-355.1293 1141.8929,-358.0908 1151.692,-362.1194 1152.0654,-355.1293"/>
</g>
<!-- Node64&#45;&gt;Node38 -->
<g id="edge131" class="edge">
<title>Node64&#45;&gt;Node38</title>
<path fill="none" stroke="#191970" d="M1542.6673,-604.4639C1506.989,-592.63 1457.833,-576.3258 1424.1518,-565.1543"/>
<polygon fill="#191970" stroke="#191970" points="1425.2511,-561.8315 1414.6577,-562.0053 1423.0474,-568.4756 1425.2511,-561.8315"/>
</g>
<!-- Node65 -->
<g id="node45" class="node">
<title>Node65</title>
<g id="a_node45"><a xlink:href="LinkState_8h.html" target="_top" xlink:title="iDynTree/Model/LinkState.h">
<polygon fill="none" stroke="#000000" points="1909.5,-543 1909.5,-562 2058.5,-562 2058.5,-543 1909.5,-543"/>
<text text-anchor="middle" x="1984" y="-550" font-family="FreeSans.ttf" font-size="10.00" fill="#000000">iDynTree/Model/LinkState.h</text>
</a>
</g>
</g>
<!-- Node64&#45;&gt;Node65 -->
<g id="edge132" class="edge">
<title>Node64&#45;&gt;Node65</title>
<path fill="none" stroke="#191970" d="M1658.3406,-607.5989C1731.6361,-595.1979 1845.6181,-575.9131 1917.4658,-563.7571"/>
<polygon fill="#191970" stroke="#191970" points="1918.4747,-567.1362 1927.7506,-562.0169 1917.3069,-560.2343 1918.4747,-567.1362"/>
</g>
<!-- Node65&#45;&gt;Node9 -->
<g id="edge143" class="edge">
<title>Node65&#45;&gt;Node9</title>
<path fill="none" stroke="#191970" d="M1959.1913,-542.9879C1888.9405,-516.4449 1682.1874,-441.0303 1504,-403 1375.5677,-375.5889 1219.3604,-363.2713 1151.8079,-358.9391"/>
<polygon fill="#191970" stroke="#191970" points="1151.9437,-355.4408 1141.7451,-358.3113 1151.5078,-362.4273 1151.9437,-355.4408"/>
</g>
<!-- Node65&#45;&gt;Node35 -->
<g id="edge133" class="edge">
<title>Node65&#45;&gt;Node35</title>
<path fill="none" stroke="#191970" d="M2022.8091,-542.9226C2068.9799,-529.745 2136.3508,-503.7671 2107,-470 2031.6242,-383.2828 1926.3758,-520.7172 1851,-434 1837.3779,-418.3283 1842.4319,-393.4404 1848.5517,-376.2212"/>
<polygon fill="#191970" stroke="#191970" points="1851.9173,-377.228 1852.3423,-366.6417 1845.4083,-374.6523 1851.9173,-377.228"/>
</g>
<!-- Node65&#45;&gt;Node42 -->
<g id="edge142" class="edge">
<title>Node65&#45;&gt;Node42</title>
<path fill="none" stroke="#191970" d="M1967.4891,-542.8974C1942.7221,-527.3025 1900.9859,-495.6331 1922,-470 1973.7235,-406.9074 2035.5839,-481.3805 2102,-434 2121.8216,-419.8595 2134.2713,-394.0367 2140.9266,-376.2196"/>
<polygon fill="#191970" stroke="#191970" points="2144.3031,-377.1644 2144.2618,-366.5697 2137.6871,-374.8778 2144.3031,-377.1644"/>
</g>
<!-- Node48 -->
<g id="node46" class="node">
<title>Node48</title>
<g id="a_node46"><a xlink:href="Twist_8h.html" target="_top" xlink:title="iDynTree/Core/Twist.h">
<polygon fill="none" stroke="#000000" points="2396,-476 2396,-495 2518,-495 2518,-476 2396,-476"/>
<text text-anchor="middle" x="2457" y="-483" font-family="FreeSans.ttf" font-size="10.00" fill="#000000">iDynTree/Core/Twist.h</text>
</a>
</g>
</g>
<!-- Node65&#45;&gt;Node48 -->
<g id="edge134" class="edge">
<title>Node65&#45;&gt;Node48</title>
<path fill="none" stroke="#191970" d="M2051.9505,-542.9616C2125.2564,-532.66 2245.4107,-515.7415 2349,-501 2360.8672,-499.3112 2373.4667,-497.5102 2385.7114,-495.7557"/>
<polygon fill="#191970" stroke="#191970" points="2386.4875,-499.1803 2395.8895,-494.2963 2385.4939,-492.2511 2386.4875,-499.1803"/>
</g>
<!-- Node53 -->
<g id="node47" class="node">
<title>Node53</title>
<g id="a_node47"><a xlink:href="SpatialAcc_8h.html" target="_top" xlink:title="iDynTree/Core/SpatialAcc.h">
<polygon fill="none" stroke="#000000" points="2192,-476 2192,-495 2340,-495 2340,-476 2192,-476"/>
<text text-anchor="middle" x="2266" y="-483" font-family="FreeSans.ttf" font-size="10.00" fill="#000000">iDynTree/Core/SpatialAcc.h</text>
</a>
</g>
</g>
<!-- Node65&#45;&gt;Node53 -->
<g id="edge136" class="edge">
<title>Node65&#45;&gt;Node53</title>
<path fill="none" stroke="#191970" d="M2024.1042,-542.9717C2074.4934,-530.9998 2160.9848,-510.4504 2215.7389,-497.4415"/>
<polygon fill="#191970" stroke="#191970" points="2216.6574,-500.8207 2225.5775,-495.1039 2215.0393,-494.0103 2216.6574,-500.8207"/>
</g>
<!-- Node54 -->
<g id="node48" class="node">
<title>Node54</title>
<g id="a_node48"><a xlink:href="Wrench_8h.html" target="_top" xlink:title="iDynTree/Core/Wrench.h">
<polygon fill="none" stroke="#ff0000" points="1964.5,-476 1964.5,-495 2097.5,-495 2097.5,-476 1964.5,-476"/>
<text text-anchor="middle" x="2031" y="-483" font-family="FreeSans.ttf" font-size="10.00" fill="#000000">iDynTree/Core/Wrench.h</text>
</a>
</g>
</g>
<!-- Node65&#45;&gt;Node54 -->
<g id="edge138" class="edge">
<title>Node65&#45;&gt;Node54</title>
<path fill="none" stroke="#191970" d="M1990.734,-542.9005C1997.9236,-532.6515 2009.4819,-516.1747 2018.3748,-503.4976"/>
<polygon fill="#191970" stroke="#191970" points="2021.401,-505.2783 2024.2785,-495.0817 2015.6704,-501.2582 2021.401,-505.2783"/>
</g>
<!-- Node66 -->
<g id="node49" class="node">
<title>Node66</title>
<g id="a_node49"><a xlink:href="ArticulatedBodyInertia_8h.html" target="_top" xlink:title="iDynTree/Core/Articulated\lBodyInertia.h">
<polygon fill="none" stroke="#000000" points="1884.5,-168.5 1884.5,-198.5 2025.5,-198.5 2025.5,-168.5 1884.5,-168.5"/>
<text text-anchor="start" x="1892.5" y="-186.5" font-family="FreeSans.ttf" font-size="10.00" fill="#000000">iDynTree/Core/Articulated</text>
<text text-anchor="middle" x="1955" y="-175.5" font-family="FreeSans.ttf" font-size="10.00" fill="#000000">BodyInertia.h</text>
</a>
</g>
</g>
<!-- Node65&#45;&gt;Node66 -->
<g id="edge139" class="edge">
<title>Node65&#45;&gt;Node66</title>
<path fill="none" stroke="#191970" d="M1975.301,-542.8537C1961.202,-526.0447 1936.7815,-491.1627 1956,-470 2011.9838,-408.3528 2273.0162,-495.6472 2329,-434 2356.2907,-403.9485 2285.5309,-332.4704 2225,-291 2162.4396,-248.1392 2080.267,-218.5506 2023.0777,-201.4242"/>
<polygon fill="#191970" stroke="#191970" points="2023.9932,-198.0453 2013.4117,-198.5769 2022.0151,-204.76 2023.9932,-198.0453"/>
</g>
<!-- Node48&#45;&gt;Node49 -->
<g id="edge135" class="edge">
<title>Node48&#45;&gt;Node49</title>
<path fill="none" stroke="#191970" d="M2495.8243,-475.9717C2538.1426,-465.5859 2606.7635,-448.7449 2658.81,-435.9715"/>
<polygon fill="#191970" stroke="#191970" points="2659.7775,-439.338 2668.6551,-433.5553 2658.109,-432.5398 2659.7775,-439.338"/>
</g>
<!-- Node53&#45;&gt;Node49 -->
<g id="edge137" class="edge">
<title>Node53&#45;&gt;Node49</title>
<path fill="none" stroke="#191970" d="M2331.9871,-475.9717C2413.3783,-464.2191 2552.0154,-444.2004 2642.2984,-431.1638"/>
<polygon fill="#191970" stroke="#191970" points="2642.8452,-434.6212 2652.2424,-429.7279 2641.8448,-427.6931 2642.8452,-434.6212"/>
</g>
<!-- Node66&#45;&gt;Node4 -->
<g id="edge141" class="edge">
<title>Node66&#45;&gt;Node4</title>
<path fill="none" stroke="#191970" d="M1972.4659,-168.4022C1988.0757,-153.0948 2006.4304,-129.2665 1992,-112 1963.9796,-78.4727 1831.6482,-69.3406 1769.4504,-66.8858"/>
<polygon fill="#191970" stroke="#191970" points="1769.5133,-63.3859 1759.3937,-66.5234 1769.2611,-70.3814 1769.5133,-63.3859"/>
</g>
<!-- Node66&#45;&gt;Node32 -->
<g id="edge140" class="edge">
<title>Node66&#45;&gt;Node32</title>
<path fill="none" stroke="#191970" d="M2025.9473,-170.4824C2030.7017,-169.6348 2035.4194,-168.8007 2040,-168 2110.2519,-155.7197 2190.7254,-142.3386 2246.3871,-133.1911"/>
<polygon fill="#191970" stroke="#191970" points="2247.1827,-136.6074 2256.4836,-131.5335 2246.0486,-129.6999 2247.1827,-136.6074"/>
</g>
</g>
</svg>
