<?xml version="1.0" encoding="UTF-8" standalone="no"?>
<!DOCTYPE svg PUBLIC "-//W3C//DTD SVG 1.1//EN"
 "http://www.w3.org/Graphics/SVG/1.1/DTD/svg11.dtd">
<!-- Generated by graphviz version 2.40.1 (20161225.0304)
 -->
<!-- Title: urdf2dh.cpp Pages: 1 -->
<svg width="2771pt" height="632pt"
 viewBox="0.00 0.00 2770.55 632.00" xmlns="http://www.w3.org/2000/svg" xmlns:xlink="http://www.w3.org/1999/xlink">
<g id="graph0" class="graph" transform="scale(1 1) rotate(0) translate(4 628)">
<title>urdf2dh.cpp</title>
<!-- Node0 -->
<g id="node1" class="node">
<title>Node0</title>
<polygon fill="#bfbfbf" stroke="#000000" points="1166,-604.5 1166,-623.5 1240,-623.5 1240,-604.5 1166,-604.5"/>
<text text-anchor="middle" x="1203" y="-611.5" font-family="FreeSans.ttf" font-size="10.00" fill="#000000">urdf2dh.cpp</text>
</g>
<!-- Node1 -->
<g id="node2" class="node">
<title>Node1</title>
<polygon fill="none" stroke="#bfbfbf" points="122,-112.5 122,-131.5 182,-131.5 182,-112.5 122,-112.5"/>
<text text-anchor="middle" x="152" y="-119.5" font-family="FreeSans.ttf" font-size="10.00" fill="#000000">iostream</text>
</g>
<!-- Node0&#45;&gt;Node1 -->
<g id="edge1" class="edge">
<title>Node0&#45;&gt;Node1</title>
<path fill="none" stroke="#191970" d="M1165.9455,-612.7099C1023.9874,-607.6559 514.7054,-588.473 354,-568 194.7764,-547.7157 0,-657.0105 0,-496.5 0,-496.5 0,-496.5 0,-362.5 0,-264.5348 91.2361,-174.0096 132.3379,-138.1985"/>
<polygon fill="#191970" stroke="#191970" points="134.7423,-140.7478 140.0728,-131.5915 130.1959,-135.4251 134.7423,-140.7478"/>
</g>
<!-- Node2 -->
<g id="node3" class="node">
<title>Node2</title>
<polygon fill="none" stroke="#bfbfbf" points="363.5,-548.5 363.5,-567.5 418.5,-567.5 418.5,-548.5 363.5,-548.5"/>
<text text-anchor="middle" x="391" y="-555.5" font-family="FreeSans.ttf" font-size="10.00" fill="#000000">fstream</text>
</g>
<!-- Node0&#45;&gt;Node2 -->
<g id="edge2" class="edge">
<title>Node0&#45;&gt;Node2</title>
<path fill="none" stroke="#191970" d="M1165.7678,-612.6363C1032.1481,-607.6079 577.0724,-589.2893 433,-568 431.707,-567.8089 430.3953,-567.5975 429.0734,-567.3694"/>
<polygon fill="#191970" stroke="#191970" points="429.3714,-563.8606 418.8824,-565.3541 428.0134,-570.7276 429.3714,-563.8606"/>
</g>
<!-- Node3 -->
<g id="node4" class="node">
<title>Node3</title>
<g id="a_node4"><a xlink:href="TestUtils_8h.html" target="_top" xlink:title="iDynTree/Core/TestUtils.h">
<polygon fill="none" stroke="#000000" points="200.5,-353 200.5,-372 339.5,-372 339.5,-353 200.5,-353"/>
<text text-anchor="middle" x="270" y="-360" font-family="FreeSans.ttf" font-size="10.00" fill="#000000">iDynTree/Core/TestUtils.h</text>
</a>
</g>
</g>
<!-- Node0&#45;&gt;Node3 -->
<g id="edge3" class="edge">
<title>Node0&#45;&gt;Node3</title>
<path fill="none" stroke="#191970" d="M1165.6514,-608.0766C1055.7747,-590.1042 724.7893,-532.043 461,-445 401.488,-425.3627 334.9139,-394.45 298.184,-376.5645"/>
<polygon fill="#191970" stroke="#191970" points="299.5982,-373.3599 289.0786,-372.0991 296.5159,-379.6448 299.5982,-373.3599"/>
</g>
<!-- Node23 -->
<g id="node18" class="node">
<title>Node23</title>
<g id="a_node18"><a xlink:href="DenavitHartenberg_8h.html" target="_top" xlink:title="iDynTree/Model/DenavitHartenberg.h">
<polygon fill="none" stroke="#000000" points="1709.5,-487 1709.5,-506 1906.5,-506 1906.5,-487 1709.5,-487"/>
<text text-anchor="middle" x="1808" y="-494" font-family="FreeSans.ttf" font-size="10.00" fill="#000000">iDynTree/Model/DenavitHartenberg.h</text>
</a>
</g>
</g>
<!-- Node0&#45;&gt;Node23 -->
<g id="edge23" class="edge">
<title>Node0&#45;&gt;Node23</title>
<path fill="none" stroke="#191970" d="M1240.3889,-606.7385C1342.2496,-586.9557 1625.2832,-531.9863 1748.9288,-507.9725"/>
<polygon fill="#191970" stroke="#191970" points="1749.8221,-511.3645 1758.9713,-506.0221 1748.4874,-504.4929 1749.8221,-511.3645"/>
</g>
<!-- Node50 -->
<g id="node30" class="node">
<title>Node50</title>
<g id="a_node30"><a xlink:href="ModelTestUtils_8h.html" target="_top" xlink:title="iDynTree/Model/ModelTest\lUtils.h">
<polygon fill="none" stroke="#000000" points="1108.5,-481.5 1108.5,-511.5 1251.5,-511.5 1251.5,-481.5 1108.5,-481.5"/>
<text text-anchor="start" x="1116.5" y="-499.5" font-family="FreeSans.ttf" font-size="10.00" fill="#000000">iDynTree/Model/ModelTest</text>
<text text-anchor="middle" x="1180" y="-488.5" font-family="FreeSans.ttf" font-size="10.00" fill="#000000">Utils.h</text>
</a>
</g>
</g>
<!-- Node0&#45;&gt;Node50 -->
<g id="edge61" class="edge">
<title>Node0&#45;&gt;Node50</title>
<path fill="none" stroke="#191970" d="M1201.1178,-604.3845C1197.61,-586.4644 1189.9707,-547.4375 1184.9069,-521.5681"/>
<polygon fill="#191970" stroke="#191970" points="1188.334,-520.8557 1182.9781,-511.7143 1181.4644,-522.2004 1188.334,-520.8557"/>
</g>
<!-- Node61 -->
<g id="node43" class="node">
<title>Node61</title>
<g id="a_node43"><a xlink:href="ModelLoader_8h.html" target="_top" xlink:title="iDynTree/ModelIO/ModelLoader.h">
<polygon fill="none" stroke="#000000" points="1847,-548.5 1847,-567.5 2023,-567.5 2023,-548.5 1847,-548.5"/>
<text text-anchor="middle" x="1935" y="-555.5" font-family="FreeSans.ttf" font-size="10.00" fill="#000000">iDynTree/ModelIO/ModelLoader.h</text>
</a>
</g>
</g>
<!-- Node0&#45;&gt;Node61 -->
<g id="edge103" class="edge">
<title>Node0&#45;&gt;Node61</title>
<path fill="none" stroke="#191970" d="M1240.0536,-611.1653C1349.2247,-602.8134 1672.2687,-578.0997 1836.602,-565.5277"/>
<polygon fill="#191970" stroke="#191970" points="1837.008,-569.007 1846.7119,-564.7543 1836.474,-562.0274 1837.008,-569.007"/>
</g>
<!-- Node64 -->
<g id="node46" class="node">
<title>Node64</title>
<g id="a_node46"><a xlink:href="KinDynComputations_8h.html" target="_top" xlink:title="iDynTree/KinDynComputations.h">
<polygon fill="none" stroke="#000000" points="513.5,-420 513.5,-439 688.5,-439 688.5,-420 513.5,-420"/>
<text text-anchor="middle" x="601" y="-427" font-family="FreeSans.ttf" font-size="10.00" fill="#000000">iDynTree/KinDynComputations.h</text>
</a>
</g>
</g>
<!-- Node0&#45;&gt;Node64 -->
<g id="edge114" class="edge">
<title>Node0&#45;&gt;Node64</title>
<path fill="none" stroke="#191970" d="M1171.9015,-604.469C1071.4048,-573.6689 755.3363,-476.8007 641.9726,-442.0572"/>
<polygon fill="#191970" stroke="#191970" points="642.8604,-438.6687 632.2737,-439.0847 640.8092,-445.3614 642.8604,-438.6687"/>
</g>
<!-- Node66 -->
<g id="node48" class="node">
<title>Node66</title>
<g id="a_node48"><a xlink:href="iKinConversions_8h.html" target="_top" xlink:title="iDynTree/iKinConversions.h">
<polygon fill="none" stroke="#000000" points="1250,-548.5 1250,-567.5 1400,-567.5 1400,-548.5 1250,-548.5"/>
<text text-anchor="middle" x="1325" y="-555.5" font-family="FreeSans.ttf" font-size="10.00" fill="#000000">iDynTree/iKinConversions.h</text>
</a>
</g>
</g>
<!-- Node0&#45;&gt;Node66 -->
<g id="edge126" class="edge">
<title>Node0&#45;&gt;Node66</title>
<path fill="none" stroke="#191970" d="M1223.9725,-604.3733C1243.5567,-595.3838 1272.9961,-581.8706 1295.051,-571.7471"/>
<polygon fill="#191970" stroke="#191970" points="1296.6729,-574.8538 1304.3011,-567.5011 1293.7527,-568.4919 1296.6729,-574.8538"/>
</g>
<!-- Node67 -->
<g id="node49" class="node">
<title>Node67</title>
<polygon fill="none" stroke="#bfbfbf" points="1270,-487 1270,-506 1380,-506 1380,-487 1270,-487"/>
<text text-anchor="middle" x="1325" y="-494" font-family="FreeSans.ttf" font-size="10.00" fill="#000000">iCub/iKin/iKinFwd.h</text>
</g>
<!-- Node0&#45;&gt;Node67 -->
<g id="edge129" class="edge">
<title>Node0&#45;&gt;Node67</title>
<path fill="none" stroke="#191970" d="M1206.863,-604.0507C1212.6284,-590.1883 1224.5895,-564.8696 1241,-548 1256.1967,-532.3781 1277.0728,-519.5498 1294.2113,-510.6038"/>
<polygon fill="#191970" stroke="#191970" points="1295.9262,-513.6592 1303.2883,-506.0401 1292.7818,-507.4051 1295.9262,-513.6592"/>
</g>
<!-- Node68 -->
<g id="node50" class="node">
<title>Node68</title>
<polygon fill="none" stroke="#bfbfbf" points="2041,-548.5 2041,-567.5 2145,-567.5 2145,-548.5 2041,-548.5"/>
<text text-anchor="middle" x="2093" y="-555.5" font-family="FreeSans.ttf" font-size="10.00" fill="#000000">yarp/os/Property.h</text>
</g>
<!-- Node0&#45;&gt;Node68 -->
<g id="edge130" class="edge">
<title>Node0&#45;&gt;Node68</title>
<path fill="none" stroke="#191970" d="M1240.2986,-613.3521C1356.0578,-611.0405 1719.5842,-601.5171 2030.6911,-568.0327"/>
<polygon fill="#191970" stroke="#191970" points="2031.2437,-571.4933 2040.807,-566.9334 2030.4873,-564.5343 2031.2437,-571.4933"/>
</g>
<!-- Node3&#45;&gt;Node1 -->
<g id="edge18" class="edge">
<title>Node3&#45;&gt;Node1</title>
<path fill="none" stroke="#191970" d="M230.5085,-352.9839C194.2488,-343.3527 144.4634,-327.5559 133,-311 123.503,-297.2842 140.8905,-187.1662 148.5952,-141.615"/>
<polygon fill="#191970" stroke="#191970" points="152.0852,-141.9706 150.3232,-131.5233 145.1856,-140.7892 152.0852,-141.9706"/>
</g>
<!-- Node4 -->
<g id="node5" class="node">
<title>Node4</title>
<g id="a_node5"><a xlink:href="MatrixDynSize_8h.html" target="_top" xlink:title="iDynTree/Core/MatrixDynSize.h">
<polygon fill="none" stroke="#000000" points="471.5,-291.5 471.5,-310.5 638.5,-310.5 638.5,-291.5 471.5,-291.5"/>
<text text-anchor="middle" x="555" y="-298.5" font-family="FreeSans.ttf" font-size="10.00" fill="#000000">iDynTree/Core/MatrixDynSize.h</text>
</a>
</g>
</g>
<!-- Node3&#45;&gt;Node4 -->
<g id="edge4" class="edge">
<title>Node3&#45;&gt;Node4</title>
<path fill="none" stroke="#191970" d="M314.2185,-352.9581C364.4527,-342.1181 446.4573,-324.4224 500.5772,-312.7439"/>
<polygon fill="#191970" stroke="#191970" points="501.641,-316.095 510.6777,-310.5643 500.1644,-309.2524 501.641,-316.095"/>
</g>
<!-- Node5 -->
<g id="node6" class="node">
<title>Node5</title>
<polygon fill="none" stroke="#bfbfbf" points="2155,-56.5 2155,-75.5 2199,-75.5 2199,-56.5 2155,-56.5"/>
<text text-anchor="middle" x="2177" y="-63.5" font-family="FreeSans.ttf" font-size="10.00" fill="#000000">string</text>
</g>
<!-- Node3&#45;&gt;Node5 -->
<g id="edge19" class="edge">
<title>Node3&#45;&gt;Node5</title>
<path fill="none" stroke="#191970" d="M283.9781,-352.8954C319.4788,-328.8029 416.5135,-264.8168 504,-224 512.487,-220.0404 654.1434,-171.0444 663,-168 737.0323,-142.5519 752.9645,-125.9259 830,-112 962.9787,-87.9611 1952.7975,-69.8495 2144.7946,-66.5423"/>
<polygon fill="#191970" stroke="#191970" points="2144.8788,-70.0415 2154.8173,-66.3707 2144.7589,-63.0425 2144.8788,-70.0415"/>
</g>
<!-- Node10 -->
<g id="node10" class="node">
<title>Node10</title>
<polygon fill="none" stroke="#bfbfbf" points="422,-.5 422,-19.5 486,-19.5 486,-.5 422,-.5"/>
<text text-anchor="middle" x="454" y="-7.5" font-family="FreeSans.ttf" font-size="10.00" fill="#000000">algorithm</text>
</g>
<!-- Node3&#45;&gt;Node10 -->
<g id="edge16" class="edge">
<title>Node3&#45;&gt;Node10</title>
<path fill="none" stroke="#191970" d="M200.3924,-355.0164C132.0553,-343.3557 38,-313.809 38,-239.5 38,-239.5 38,-239.5 38,-122 38,-110.4444 51.0482,-115.6862 62,-112 95.4786,-100.7316 317.889,-44.3164 412.0305,-20.5656"/>
<polygon fill="#191970" stroke="#191970" points="412.9544,-23.9423 421.795,-18.1032 411.2427,-17.1548 412.9544,-23.9423"/>
</g>
<!-- Node17 -->
<g id="node12" class="node">
<title>Node17</title>
<g id="a_node12"><a xlink:href="Utils_8h.html" target="_top" xlink:title="iDynTree/Core/Utils.h">
<polygon fill="none" stroke="#000000" points="333.5,-56.5 333.5,-75.5 452.5,-75.5 452.5,-56.5 333.5,-56.5"/>
<text text-anchor="middle" x="393" y="-63.5" font-family="FreeSans.ttf" font-size="10.00" fill="#000000">iDynTree/Core/Utils.h</text>
</a>
</g>
</g>
<!-- Node3&#45;&gt;Node17 -->
<g id="edge15" class="edge">
<title>Node3&#45;&gt;Node17</title>
<path fill="none" stroke="#191970" d="M272.967,-352.7214C278.9721,-332.0362 292,-282.2353 292,-239.5 292,-239.5 292,-239.5 292,-178 292,-146.7875 296.1193,-136.062 316,-112 327.3093,-98.3121 343.8199,-87.6918 358.6547,-80.1219"/>
<polygon fill="#191970" stroke="#191970" points="360.5935,-83.0734 368.0898,-75.5863 357.5607,-76.7644 360.5935,-83.0734"/>
</g>
<!-- Node19 -->
<g id="node14" class="node">
<title>Node19</title>
<polygon fill="none" stroke="#bfbfbf" points="142,-291.5 142,-310.5 198,-310.5 198,-291.5 142,-291.5"/>
<text text-anchor="middle" x="170" y="-298.5" font-family="FreeSans.ttf" font-size="10.00" fill="#000000">iomanip</text>
</g>
<!-- Node3&#45;&gt;Node19 -->
<g id="edge17" class="edge">
<title>Node3&#45;&gt;Node19</title>
<path fill="none" stroke="#191970" d="M254.375,-352.8906C238.2302,-342.9616 212.8178,-327.333 194.0977,-315.8201"/>
<polygon fill="#191970" stroke="#191970" points="195.8669,-312.7992 185.5153,-310.5419 192.1998,-318.7619 195.8669,-312.7992"/>
</g>
<!-- Node20 -->
<g id="node15" class="node">
<title>Node20</title>
<polygon fill="none" stroke="#bfbfbf" points="1552.5,-291.5 1552.5,-310.5 1599.5,-310.5 1599.5,-291.5 1552.5,-291.5"/>
<text text-anchor="middle" x="1576" y="-298.5" font-family="FreeSans.ttf" font-size="10.00" fill="#000000">vector</text>
</g>
<!-- Node3&#45;&gt;Node20 -->
<g id="edge20" class="edge">
<title>Node3&#45;&gt;Node20</title>
<path fill="none" stroke="#191970" d="M339.7156,-357.2543C385.5338,-353.9468 446.8094,-349.789 501,-347 946.9188,-324.0505 1060.2142,-350.19 1505,-311 1517.276,-309.9184 1530.6754,-308.1778 1542.4935,-306.4497"/>
<polygon fill="#191970" stroke="#191970" points="1543.0397,-309.907 1552.404,-304.9511 1541.9931,-302.9856 1543.0397,-309.907"/>
</g>
<!-- Node21 -->
<g id="node16" class="node">
<title>Node21</title>
<polygon fill="none" stroke="#bfbfbf" points="2156.5,-291.5 2156.5,-310.5 2205.5,-310.5 2205.5,-291.5 2156.5,-291.5"/>
<text text-anchor="middle" x="2181" y="-298.5" font-family="FreeSans.ttf" font-size="10.00" fill="#000000">cstdlib</text>
</g>
<!-- Node3&#45;&gt;Node21 -->
<g id="edge21" class="edge">
<title>Node3&#45;&gt;Node21</title>
<path fill="none" stroke="#191970" d="M339.7068,-357.074C385.5213,-353.6925 446.7962,-349.5199 501,-347 1117.8744,-318.3221 1272.7397,-329.6046 1890,-311 1982.6078,-308.2087 2091.7708,-304.2885 2146.3155,-302.2866"/>
<polygon fill="#191970" stroke="#191970" points="2146.6107,-305.7782 2156.4752,-301.9127 2146.3532,-298.7829 2146.6107,-305.7782"/>
</g>
<!-- Node22 -->
<g id="node17" class="node">
<title>Node22</title>
<polygon fill="none" stroke="#bfbfbf" points="216.5,-291.5 216.5,-310.5 263.5,-310.5 263.5,-291.5 216.5,-291.5"/>
<text text-anchor="middle" x="240" y="-298.5" font-family="FreeSans.ttf" font-size="10.00" fill="#000000">cmath</text>
</g>
<!-- Node3&#45;&gt;Node22 -->
<g id="edge22" class="edge">
<title>Node3&#45;&gt;Node22</title>
<path fill="none" stroke="#191970" d="M265.3125,-352.8906C261.0227,-344.0965 254.5518,-330.8312 249.2266,-319.9145"/>
<polygon fill="#191970" stroke="#191970" points="252.2836,-318.1981 244.7536,-310.7449 245.9922,-321.2671 252.2836,-318.1981"/>
</g>
<!-- Node4&#45;&gt;Node5 -->
<g id="edge5" class="edge">
<title>Node4&#45;&gt;Node5</title>
<path fill="none" stroke="#191970" d="M582.9354,-291.4661C654.4893,-266.86 849.9213,-198.4813 1009,-132 1028.4472,-123.8727 1031.5175,-116.9714 1052,-112 1160.499,-85.6658 1971.359,-69.6981 2144.524,-66.568"/>
<polygon fill="#191970" stroke="#191970" points="2144.6142,-70.067 2154.5498,-66.3883 2144.4887,-63.0682 2144.6142,-70.067"/>
</g>
<!-- Node6 -->
<g id="node7" class="node">
<title>Node6</title>
<g id="a_node7"><a xlink:href="MatrixView_8h.html" target="_top" xlink:title="iDynTree/Core/MatrixView.h">
<polygon fill="none" stroke="#ff0000" points="435.5,-112.5 435.5,-131.5 586.5,-131.5 586.5,-112.5 435.5,-112.5"/>
<text text-anchor="middle" x="511" y="-119.5" font-family="FreeSans.ttf" font-size="10.00" fill="#000000">iDynTree/Core/MatrixView.h</text>
</a>
</g>
</g>
<!-- Node4&#45;&gt;Node6 -->
<g id="edge6" class="edge">
<title>Node4&#45;&gt;Node6</title>
<path fill="none" stroke="#191970" d="M535.8422,-291.3621C505.6161,-274.9357 447.9426,-238.3408 425,-188 413.8988,-163.6418 441.6793,-145.9771 468.5638,-135.0871"/>
<polygon fill="#191970" stroke="#191970" points="469.8626,-138.3378 477.9706,-131.5178 467.3793,-131.7931 469.8626,-138.3378"/>
</g>
<!-- Node7 -->
<g id="node8" class="node">
<title>Node7</title>
<polygon fill="none" stroke="#bfbfbf" points="632,-.5 632,-19.5 684,-19.5 684,-.5 632,-.5"/>
<text text-anchor="middle" x="658" y="-7.5" font-family="FreeSans.ttf" font-size="10.00" fill="#000000">cassert</text>
</g>
<!-- Node6&#45;&gt;Node7 -->
<g id="edge7" class="edge">
<title>Node6&#45;&gt;Node7</title>
<path fill="none" stroke="#191970" d="M535.7992,-112.4156C554.7698,-104.3809 580.985,-91.7098 601,-76 618.5852,-62.1973 634.8474,-42.3602 645.4625,-28.0416"/>
<polygon fill="#191970" stroke="#191970" points="648.5756,-29.708 651.5799,-19.548 642.8955,-25.6169 648.5756,-29.708"/>
</g>
<!-- Node9 -->
<g id="node9" class="node">
<title>Node9</title>
<g id="a_node9"><a xlink:href="Span_8h.html" target="_top" xlink:title="iDynTree/Core/Span.h">
<polygon fill="none" stroke="#ff0000" points="470.5,-56.5 470.5,-75.5 591.5,-75.5 591.5,-56.5 470.5,-56.5"/>
<text text-anchor="middle" x="531" y="-63.5" font-family="FreeSans.ttf" font-size="10.00" fill="#000000">iDynTree/Core/Span.h</text>
</a>
</g>
</g>
<!-- Node6&#45;&gt;Node9 -->
<g id="edge8" class="edge">
<title>Node6&#45;&gt;Node9</title>
<path fill="none" stroke="#191970" d="M514.4837,-112.2455C517.1508,-104.7776 520.9133,-94.2427 524.1737,-85.1137"/>
<polygon fill="#191970" stroke="#191970" points="527.4889,-86.2373 527.5562,-75.6427 520.8967,-83.8829 527.4889,-86.2373"/>
</g>
<!-- Node6&#45;&gt;Node17 -->
<g id="edge12" class="edge">
<title>Node6&#45;&gt;Node17</title>
<path fill="none" stroke="#191970" d="M490.7151,-112.3733C471.8579,-103.4241 443.554,-89.9917 422.2545,-79.8835"/>
<polygon fill="#191970" stroke="#191970" points="423.5551,-76.6266 413.0202,-75.5011 420.5539,-82.9506 423.5551,-76.6266"/>
</g>
<!-- Node9&#45;&gt;Node7 -->
<g id="edge9" class="edge">
<title>Node9&#45;&gt;Node7</title>
<path fill="none" stroke="#191970" d="M552.8321,-56.3733C573.3103,-47.3435 604.1399,-33.7494 627.1319,-23.6111"/>
<polygon fill="#191970" stroke="#191970" points="628.715,-26.7383 636.4528,-19.5011 625.8907,-20.3333 628.715,-26.7383"/>
</g>
<!-- Node9&#45;&gt;Node10 -->
<g id="edge10" class="edge">
<title>Node9&#45;&gt;Node10</title>
<path fill="none" stroke="#191970" d="M517.5876,-56.2455C505.9943,-47.814 489.0252,-35.4729 475.5322,-25.6598"/>
<polygon fill="#191970" stroke="#191970" points="477.4047,-22.6938 467.2587,-19.6427 473.2874,-28.355 477.4047,-22.6938"/>
</g>
<!-- Node12 -->
<g id="node11" class="node">
<title>Node12</title>
<polygon fill="none" stroke="#bfbfbf" points="504.5,-.5 504.5,-19.5 557.5,-19.5 557.5,-.5 504.5,-.5"/>
<text text-anchor="middle" x="531" y="-7.5" font-family="FreeSans.ttf" font-size="10.00" fill="#000000">cstddef</text>
</g>
<!-- Node9&#45;&gt;Node12 -->
<g id="edge11" class="edge">
<title>Node9&#45;&gt;Node12</title>
<path fill="none" stroke="#191970" d="M531,-56.2455C531,-48.9382 531,-38.6944 531,-29.7046"/>
<polygon fill="#191970" stroke="#191970" points="534.5001,-29.6426 531,-19.6427 527.5001,-29.6427 534.5001,-29.6426"/>
</g>
<!-- Node17&#45;&gt;Node12 -->
<g id="edge13" class="edge">
<title>Node17&#45;&gt;Node12</title>
<path fill="none" stroke="#191970" d="M416.723,-56.3733C439.1737,-47.2629 473.0739,-33.5062 498.1255,-23.3404"/>
<polygon fill="#191970" stroke="#191970" points="499.6365,-26.5045 507.5865,-19.5011 497.0043,-20.0182 499.6365,-26.5045"/>
</g>
<!-- Node18 -->
<g id="node13" class="node">
<title>Node18</title>
<polygon fill="none" stroke="#bfbfbf" points="324,-.5 324,-19.5 404,-19.5 404,-.5 324,-.5"/>
<text text-anchor="middle" x="364" y="-7.5" font-family="FreeSans.ttf" font-size="10.00" fill="#000000">CoreExport.h</text>
</g>
<!-- Node17&#45;&gt;Node18 -->
<g id="edge14" class="edge">
<title>Node17&#45;&gt;Node18</title>
<path fill="none" stroke="#191970" d="M387.9486,-56.2455C383.9981,-48.617 378.3903,-37.7881 373.5942,-28.5267"/>
<polygon fill="#191970" stroke="#191970" points="376.7001,-26.9131 368.9935,-19.6427 370.4841,-30.1321 376.7001,-26.9131"/>
</g>
<!-- Node23&#45;&gt;Node20 -->
<g id="edge60" class="edge">
<title>Node23&#45;&gt;Node20</title>
<path fill="none" stroke="#191970" d="M1709.1973,-488.6623C1634.6238,-481.0879 1539.8898,-467.4044 1508,-445 1469.7753,-418.145 1444.3723,-386.0582 1470,-347 1478.4293,-334.1531 1514.726,-320.2099 1542.5206,-311.0825"/>
<polygon fill="#191970" stroke="#191970" points="1543.8522,-314.3313 1552.3087,-307.9486 1541.7177,-307.6646 1543.8522,-314.3313"/>
</g>
<!-- Node24 -->
<g id="node19" class="node">
<title>Node24</title>
<g id="a_node19"><a xlink:href="Indices_8h.html" target="_top" xlink:title="iDynTree/Model/Indices.h">
<polygon fill="none" stroke="#000000" points="1748,-230 1748,-249 1886,-249 1886,-230 1748,-230"/>
<text text-anchor="middle" x="1817" y="-237" font-family="FreeSans.ttf" font-size="10.00" fill="#000000">iDynTree/Model/Indices.h</text>
</a>
</g>
</g>
<!-- Node23&#45;&gt;Node24 -->
<g id="edge24" class="edge">
<title>Node23&#45;&gt;Node24</title>
<path fill="none" stroke="#191970" d="M1857.4493,-486.9615C1898.7782,-477.866 1952.993,-462.9202 1966,-445 2008.6049,-386.3019 1962.4305,-343.1287 1912,-291 1895.8194,-274.2745 1873.0149,-261.6662 1853.8046,-253.112"/>
<polygon fill="#191970" stroke="#191970" points="1854.9971,-249.8158 1844.4249,-249.1232 1852.2576,-256.2576 1854.9971,-249.8158"/>
</g>
<!-- Node26 -->
<g id="node21" class="node">
<title>Node26</title>
<g id="a_node21"><a xlink:href="Model_8h.html" target="_top" xlink:title="iDynTree/Model/Model.h">
<polygon fill="none" stroke="#000000" points="2048.5,-420 2048.5,-439 2181.5,-439 2181.5,-420 2048.5,-420"/>
<text text-anchor="middle" x="2115" y="-427" font-family="FreeSans.ttf" font-size="10.00" fill="#000000">iDynTree/Model/Model.h</text>
</a>
</g>
</g>
<!-- Node23&#45;&gt;Node26 -->
<g id="edge27" class="edge">
<title>Node23&#45;&gt;Node26</title>
<path fill="none" stroke="#191970" d="M1851.6596,-486.9717C1906.7435,-474.9501 2001.457,-454.2797 2061.0234,-441.2799"/>
<polygon fill="#191970" stroke="#191970" points="2061.9702,-444.6557 2070.994,-439.1039 2060.4776,-437.8167 2061.9702,-444.6557"/>
</g>
<!-- Node48 -->
<g id="node24" class="node">
<title>Node48</title>
<g id="a_node24"><a xlink:href="Transform_8h.html" target="_top" xlink:title="iDynTree/Core/Transform.h">
<polygon fill="none" stroke="#000000" points="2262,-291.5 2262,-310.5 2408,-310.5 2408,-291.5 2262,-291.5"/>
<text text-anchor="middle" x="2335" y="-298.5" font-family="FreeSans.ttf" font-size="10.00" fill="#000000">iDynTree/Core/Transform.h</text>
</a>
</g>
</g>
<!-- Node23&#45;&gt;Node48 -->
<g id="edge59" class="edge">
<title>Node23&#45;&gt;Node48</title>
<path fill="none" stroke="#191970" d="M1890.0326,-486.977C1967.7363,-477.6003 2087.5926,-462.2144 2191,-445 2341.6362,-419.9234 2431.1167,-496.0412 2528,-378 2536.741,-367.3501 2536.5386,-357.8129 2528,-347 2514.0287,-329.3074 2463.8871,-317.6815 2418.2164,-310.5438"/>
<polygon fill="#191970" stroke="#191970" points="2418.6608,-307.0714 2408.2514,-309.0445 2417.6193,-313.9935 2418.6608,-307.0714"/>
</g>
<!-- Node24&#45;&gt;Node5 -->
<g id="edge25" class="edge">
<title>Node24&#45;&gt;Node5</title>
<path fill="none" stroke="#191970" d="M1836.868,-229.9248C1896.9814,-200.9534 2077.1266,-114.1334 2147.9495,-80.0007"/>
<polygon fill="#191970" stroke="#191970" points="2149.7046,-83.0402 2157.1935,-75.5457 2146.6655,-76.7343 2149.7046,-83.0402"/>
</g>
<!-- Node25 -->
<g id="node20" class="node">
<title>Node25</title>
<polygon fill="none" stroke="#bfbfbf" points="1774,-168.5 1774,-187.5 1860,-187.5 1860,-168.5 1774,-168.5"/>
<text text-anchor="middle" x="1817" y="-175.5" font-family="FreeSans.ttf" font-size="10.00" fill="#000000">ModelExport.h</text>
</g>
<!-- Node24&#45;&gt;Node25 -->
<g id="edge26" class="edge">
<title>Node24&#45;&gt;Node25</title>
<path fill="none" stroke="#191970" d="M1817,-229.8906C1817,-221.3657 1817,-208.6392 1817,-197.9235"/>
<polygon fill="#191970" stroke="#191970" points="1820.5001,-197.7448 1817,-187.7449 1813.5001,-197.7449 1820.5001,-197.7448"/>
</g>
<!-- Node26&#45;&gt;Node20 -->
<g id="edge58" class="edge">
<title>Node26&#45;&gt;Node20</title>
<path fill="none" stroke="#191970" d="M2048.2606,-422.404C2022.5551,-419.7112 1992.9173,-416.6552 1966,-414 1923.133,-409.7715 1609.8264,-409.078 1580,-378 1565.7056,-363.1058 1567.1819,-338.2128 1570.6154,-320.7732"/>
<polygon fill="#191970" stroke="#191970" points="1574.1327,-321.1041 1573.0083,-310.5691 1567.3176,-319.5059 1574.1327,-321.1041"/>
</g>
<!-- Node26&#45;&gt;Node21 -->
<g id="edge57" class="edge">
<title>Node26&#45;&gt;Node21</title>
<path fill="none" stroke="#191970" d="M2157.5955,-419.9215C2180.0071,-412.4837 2205.5588,-399.6549 2219,-378 2231.3637,-358.081 2214.1962,-333.5764 2199.1147,-317.6374"/>
<polygon fill="#191970" stroke="#191970" points="2201.5692,-315.1422 2192.0171,-310.5585 2196.6259,-320.0985 2201.5692,-315.1422"/>
</g>
<!-- Node26&#45;&gt;Node24 -->
<g id="edge50" class="edge">
<title>Node26&#45;&gt;Node24</title>
<path fill="none" stroke="#191970" d="M2107.1815,-419.9856C2099.0969,-409.9111 2086.3682,-393.3707 2077,-378 2054.5526,-341.1698 2067.7436,-317.8648 2034,-291 2027.5527,-285.867 1933.6841,-264.7792 1871.5379,-251.2312"/>
<polygon fill="#191970" stroke="#191970" points="1871.9897,-247.7477 1861.4743,-249.0427 1870.5021,-254.5878 1871.9897,-247.7477"/>
</g>
<!-- Node27 -->
<g id="node22" class="node">
<title>Node27</title>
<g id="a_node22"><a xlink:href="IJoint_8h.html" target="_top" xlink:title="iDynTree/Model/IJoint.h">
<polygon fill="none" stroke="#000000" points="1753,-291.5 1753,-310.5 1881,-310.5 1881,-291.5 1753,-291.5"/>
<text text-anchor="middle" x="1817" y="-298.5" font-family="FreeSans.ttf" font-size="10.00" fill="#000000">iDynTree/Model/IJoint.h</text>
</a>
</g>
</g>
<!-- Node26&#45;&gt;Node27 -->
<g id="edge28" class="edge">
<title>Node26&#45;&gt;Node27</title>
<path fill="none" stroke="#191970" d="M2093.0791,-419.9225C2057.7355,-404.4939 1985.9514,-373.2129 1925,-347 1899.5103,-336.0379 1870.586,-323.7249 1849.0898,-314.5986"/>
<polygon fill="#191970" stroke="#191970" points="1850.3476,-311.3303 1839.7749,-310.6459 1847.6132,-317.7741 1850.3476,-311.3303"/>
</g>
<!-- Node28 -->
<g id="node23" class="node">
<title>Node28</title>
<g id="a_node23"><a xlink:href="Link_8h.html" target="_top" xlink:title="iDynTree/Model/Link.h">
<polygon fill="none" stroke="#ff0000" points="2086,-353 2086,-372 2210,-372 2210,-353 2086,-353"/>
<text text-anchor="middle" x="2148" y="-360" font-family="FreeSans.ttf" font-size="10.00" fill="#000000">iDynTree/Model/Link.h</text>
</a>
</g>
</g>
<!-- Node26&#45;&gt;Node28 -->
<g id="edge30" class="edge">
<title>Node26&#45;&gt;Node28</title>
<path fill="none" stroke="#191970" d="M2119.7281,-419.9005C2124.6781,-409.8505 2132.5776,-393.8122 2138.7697,-381.2403"/>
<polygon fill="#191970" stroke="#191970" points="2142.0019,-382.5991 2143.2807,-372.0817 2135.7223,-379.5061 2142.0019,-382.5991"/>
</g>
<!-- Node26&#45;&gt;Node48 -->
<g id="edge32" class="edge">
<title>Node26&#45;&gt;Node48</title>
<path fill="none" stroke="#191970" d="M2181.8273,-425.5311C2288.8078,-418.4886 2488.7247,-402.2293 2510,-378 2542.6753,-340.7879 2477.8271,-320.7969 2418.0289,-310.5933"/>
<polygon fill="#191970" stroke="#191970" points="2418.539,-307.1303 2408.1067,-308.9789 2417.4148,-314.0394 2418.539,-307.1303"/>
</g>
<!-- Node49 -->
<g id="node29" class="node">
<title>Node49</title>
<g id="a_node29"><a xlink:href="SolidShapes_8h.html" target="_top" xlink:title="iDynTree/Model/SolidShapes.h">
<polygon fill="none" stroke="#000000" points="2266.5,-353 2266.5,-372 2429.5,-372 2429.5,-353 2266.5,-353"/>
<text text-anchor="middle" x="2348" y="-360" font-family="FreeSans.ttf" font-size="10.00" fill="#000000">iDynTree/Model/SolidShapes.h</text>
</a>
</g>
</g>
<!-- Node26&#45;&gt;Node49 -->
<g id="edge51" class="edge">
<title>Node26&#45;&gt;Node49</title>
<path fill="none" stroke="#191970" d="M2148.3832,-419.9005C2189.5621,-408.0594 2259.6498,-387.9054 2304.8689,-374.9025"/>
<polygon fill="#191970" stroke="#191970" points="2306.0354,-378.209 2314.6787,-372.0817 2304.1009,-371.4816 2306.0354,-378.209"/>
</g>
<!-- Node27&#45;&gt;Node24 -->
<g id="edge29" class="edge">
<title>Node27&#45;&gt;Node24</title>
<path fill="none" stroke="#191970" d="M1817,-291.3906C1817,-282.8657 1817,-270.1392 1817,-259.4235"/>
<polygon fill="#191970" stroke="#191970" points="1820.5001,-259.2448 1817,-249.2449 1813.5001,-259.2449 1820.5001,-259.2448"/>
</g>
<!-- Node28&#45;&gt;Node24 -->
<g id="edge31" class="edge">
<title>Node28&#45;&gt;Node24</title>
<path fill="none" stroke="#191970" d="M2140.7745,-352.8564C2128.4893,-337.206 2101.9327,-306.4727 2072,-291 2063.3423,-286.5247 1950.4046,-264.6665 1877.7637,-250.9043"/>
<polygon fill="#191970" stroke="#191970" points="1878.2725,-247.4386 1867.7962,-249.0188 1876.9714,-254.3166 1878.2725,-247.4386"/>
</g>
<!-- Node48&#45;&gt;Node5 -->
<g id="edge49" class="edge">
<title>Node48&#45;&gt;Node5</title>
<path fill="none" stroke="#191970" d="M2324.9253,-291.4972C2315.9734,-282.6656 2302.9555,-268.8281 2294,-255 2270.9661,-219.4333 2276.6817,-204.4069 2255,-168 2236.1212,-136.2997 2209.0507,-102.9547 2192.2716,-83.3418"/>
<polygon fill="#191970" stroke="#191970" points="2194.7497,-80.8568 2185.5586,-75.5867 2189.4571,-85.4382 2194.7497,-80.8568"/>
</g>
<!-- Node40 -->
<g id="node25" class="node">
<title>Node40</title>
<g id="a_node25"><a xlink:href="Position_8h.html" target="_top" xlink:title="Position.h">
<polygon fill="none" stroke="#ff0000" points="2302.5,-230 2302.5,-249 2367.5,-249 2367.5,-230 2302.5,-230"/>
<text text-anchor="middle" x="2335" y="-237" font-family="FreeSans.ttf" font-size="10.00" fill="#000000">Position.h</text>
</a>
</g>
</g>
<!-- Node48&#45;&gt;Node40 -->
<g id="edge33" class="edge">
<title>Node48&#45;&gt;Node40</title>
<path fill="none" stroke="#191970" d="M2335,-291.3906C2335,-282.8657 2335,-270.1392 2335,-259.4235"/>
<polygon fill="#191970" stroke="#191970" points="2338.5001,-259.2448 2335,-249.2449 2331.5001,-259.2449 2338.5001,-259.2448"/>
</g>
<!-- Node42 -->
<g id="node26" class="node">
<title>Node42</title>
<g id="a_node26"><a xlink:href="Rotation_8h.html" target="_top" xlink:title="iDynTree/Core/Rotation.h">
<polygon fill="none" stroke="#ff0000" points="2108.5,-168.5 2108.5,-187.5 2245.5,-187.5 2245.5,-168.5 2108.5,-168.5"/>
<text text-anchor="middle" x="2177" y="-175.5" font-family="FreeSans.ttf" font-size="10.00" fill="#000000">iDynTree/Core/Rotation.h</text>
</a>
</g>
</g>
<!-- Node48&#45;&gt;Node42 -->
<g id="edge42" class="edge">
<title>Node48&#45;&gt;Node42</title>
<path fill="none" stroke="#191970" d="M2317.0813,-291.3411C2301.469,-282.6189 2278.4967,-269.0333 2260,-255 2235.2393,-236.2142 2209.4003,-211.2582 2193.2619,-194.9215"/>
<polygon fill="#191970" stroke="#191970" points="2195.6579,-192.3656 2186.1659,-187.6589 2190.6511,-197.2576 2195.6579,-192.3656"/>
</g>
<!-- Node32 -->
<g id="node28" class="node">
<title>Node32</title>
<g id="a_node28"><a xlink:href="MatrixFixSize_8h.html" target="_top" xlink:title="iDynTree/Core/MatrixFixSize.h">
<polygon fill="none" stroke="#ff0000" points="434.5,-168.5 434.5,-187.5 595.5,-187.5 595.5,-168.5 434.5,-168.5"/>
<text text-anchor="middle" x="515" y="-175.5" font-family="FreeSans.ttf" font-size="10.00" fill="#000000">iDynTree/Core/MatrixFixSize.h</text>
</a>
</g>
</g>
<!-- Node48&#45;&gt;Node32 -->
<g id="edge43" class="edge">
<title>Node48&#45;&gt;Node32</title>
<path fill="none" stroke="#191970" d="M2261.6843,-292.621C2147.481,-279.5532 1939.875,-255.7272 1938,-255 1916.0346,-246.4805 1917.2963,-231.6116 1895,-224 1834.08,-203.2029 903.5988,-184.9169 605.8768,-179.573"/>
<polygon fill="#191970" stroke="#191970" points="605.6164,-176.0679 595.5553,-179.3884 605.4911,-183.0667 605.6164,-176.0679"/>
</g>
<!-- Node40&#45;&gt;Node5 -->
<g id="edge41" class="edge">
<title>Node40&#45;&gt;Node5</title>
<path fill="none" stroke="#191970" d="M2334.0577,-229.8081C2331.2943,-206.4692 2321.185,-146.5293 2288,-112 2266.8782,-90.0226 2233.7037,-78.1472 2209.1178,-72.0019"/>
<polygon fill="#191970" stroke="#191970" points="2209.6978,-68.5438 2199.1669,-69.7063 2208.1242,-75.3647 2209.6978,-68.5438"/>
</g>
<!-- Node40&#45;&gt;Node42 -->
<g id="edge34" class="edge">
<title>Node40&#45;&gt;Node42</title>
<path fill="none" stroke="#191970" d="M2310.3125,-229.8906C2283.6443,-219.5103 2240.9718,-202.9004 2211.1089,-191.2766"/>
<polygon fill="#191970" stroke="#191970" points="2212.1027,-187.9076 2201.5141,-187.5419 2209.5635,-194.4309 2212.1027,-187.9076"/>
</g>
<!-- Node42&#45;&gt;Node5 -->
<g id="edge35" class="edge">
<title>Node42&#45;&gt;Node5</title>
<path fill="none" stroke="#191970" d="M2177,-168.4509C2177,-150.184 2177,-109.9553 2177,-85.6976"/>
<polygon fill="#191970" stroke="#191970" points="2180.5001,-85.5249 2177,-75.5249 2173.5001,-85.5249 2180.5001,-85.5249"/>
</g>
<!-- Node35 -->
<g id="node27" class="node">
<title>Node35</title>
<g id="a_node27"><a xlink:href="VectorFixSize_8h.html" target="_top" xlink:title="iDynTree/Core/VectorFixSize.h">
<polygon fill="none" stroke="#ff0000" points="838.5,-112.5 838.5,-131.5 999.5,-131.5 999.5,-112.5 838.5,-112.5"/>
<text text-anchor="middle" x="919" y="-119.5" font-family="FreeSans.ttf" font-size="10.00" fill="#000000">iDynTree/Core/VectorFixSize.h</text>
</a>
</g>
</g>
<!-- Node42&#45;&gt;Node35 -->
<g id="edge36" class="edge">
<title>Node42&#45;&gt;Node35</title>
<path fill="none" stroke="#191970" d="M2108.102,-174.7917C2065.4456,-172.8136 2009.5429,-170.2361 1960,-168 1608.589,-152.1389 1190.4228,-133.8336 1009.6545,-125.9481"/>
<polygon fill="#191970" stroke="#191970" points="1009.8016,-122.4513 999.6585,-125.5122 1009.4965,-129.4447 1009.8016,-122.4513"/>
</g>
<!-- Node35&#45;&gt;Node5 -->
<g id="edge39" class="edge">
<title>Node35&#45;&gt;Node5</title>
<path fill="none" stroke="#191970" d="M999.561,-113.1521C1004.4439,-112.73 1009.2858,-112.341 1014,-112 1461.3976,-79.6396 2007.3811,-68.8123 2144.5608,-66.5065"/>
<polygon fill="#191970" stroke="#191970" points="2144.8554,-70.0022 2154.7962,-66.3377 2144.7398,-63.0032 2144.8554,-70.0022"/>
</g>
<!-- Node35&#45;&gt;Node7 -->
<g id="edge40" class="edge">
<title>Node35&#45;&gt;Node7</title>
<path fill="none" stroke="#191970" d="M896.7473,-112.4509C850.3263,-92.5308 743.0446,-46.4942 689.5352,-23.5323"/>
<polygon fill="#191970" stroke="#191970" points="690.7663,-20.252 680.1964,-19.5249 688.0058,-26.6848 690.7663,-20.252"/>
</g>
<!-- Node35&#45;&gt;Node9 -->
<g id="edge38" class="edge">
<title>Node35&#45;&gt;Node9</title>
<path fill="none" stroke="#191970" d="M852.7413,-112.4369C782.9105,-102.3582 673.3296,-86.5424 601.8234,-76.2219"/>
<polygon fill="#191970" stroke="#191970" points="601.9563,-72.7049 591.5588,-74.7404 600.9563,-79.6331 601.9563,-72.7049"/>
</g>
<!-- Node35&#45;&gt;Node17 -->
<g id="edge37" class="edge">
<title>Node35&#45;&gt;Node17</title>
<path fill="none" stroke="#191970" d="M838.41,-113.4844C833.5344,-112.9793 828.7019,-112.4813 824,-112 666.4563,-95.8747 624.2087,-95.6043 463.0955,-76.0879"/>
<polygon fill="#191970" stroke="#191970" points="463.167,-72.5709 452.8172,-74.8365 462.3208,-79.5196 463.167,-72.5709"/>
</g>
<!-- Node32&#45;&gt;Node1 -->
<g id="edge48" class="edge">
<title>Node32&#45;&gt;Node1</title>
<path fill="none" stroke="#191970" d="M453.0105,-168.4369C378.3941,-156.9258 255.2668,-137.931 192.104,-128.1868"/>
<polygon fill="#191970" stroke="#191970" points="192.5482,-124.714 182.1314,-126.6484 191.4808,-131.6322 192.5482,-124.714"/>
</g>
<!-- Node32&#45;&gt;Node5 -->
<g id="edge47" class="edge">
<title>Node32&#45;&gt;Node5</title>
<path fill="none" stroke="#191970" d="M546.4957,-168.4615C602.3677,-151.7062 716.8208,-118.1734 758,-112 899.1451,-90.8403 1946.4211,-70.3151 2144.6661,-66.5967"/>
<polygon fill="#191970" stroke="#191970" points="2144.8025,-70.0949 2154.7353,-66.4086 2144.6717,-63.0961 2144.8025,-70.0949"/>
</g>
<!-- Node32&#45;&gt;Node6 -->
<g id="edge45" class="edge">
<title>Node32&#45;&gt;Node6</title>
<path fill="none" stroke="#191970" d="M514.3033,-168.2455C513.7813,-160.9382 513.0496,-150.6944 512.4075,-141.7046"/>
<polygon fill="#191970" stroke="#191970" points="515.8924,-141.3679 511.6888,-131.6427 508.9102,-141.8667 515.8924,-141.3679"/>
</g>
<!-- Node32&#45;&gt;Node7 -->
<g id="edge46" class="edge">
<title>Node32&#45;&gt;Node7</title>
<path fill="none" stroke="#191970" d="M539.7805,-168.4399C557.2243,-160.718 580.1908,-148.4323 596,-132 624.9704,-101.8876 643.3979,-55.5682 652.095,-29.5231"/>
<polygon fill="#191970" stroke="#191970" points="655.5212,-30.2994 655.229,-19.7086 648.8529,-28.1701 655.5212,-30.2994"/>
</g>
<!-- Node32&#45;&gt;Node17 -->
<g id="edge44" class="edge">
<title>Node32&#45;&gt;Node17</title>
<path fill="none" stroke="#191970" d="M486.0347,-168.4171C467.0484,-160.9433 442.7362,-148.9619 426,-132 413.0939,-118.9198 404.2904,-99.7774 399.0439,-85.4725"/>
<polygon fill="#191970" stroke="#191970" points="402.2417,-84.0036 395.7162,-75.6569 395.6123,-86.2512 402.2417,-84.0036"/>
</g>
<!-- Node49&#45;&gt;Node5 -->
<g id="edge53" class="edge">
<title>Node49&#45;&gt;Node5</title>
<path fill="none" stroke="#191970" d="M2429.5266,-354.3957C2490.7885,-346.6685 2567.9461,-332.9096 2591,-311 2614.8341,-288.3489 2610,-272.3806 2610,-239.5 2610,-239.5 2610,-239.5 2610,-178 2610,-95.2158 2309.5955,-72.6359 2209.2192,-67.4018"/>
<polygon fill="#191970" stroke="#191970" points="2209.2294,-63.8981 2199.0678,-66.8967 2208.8815,-70.8895 2209.2294,-63.8981"/>
</g>
<!-- Node49&#45;&gt;Node20 -->
<g id="edge54" class="edge">
<title>Node49&#45;&gt;Node20</title>
<path fill="none" stroke="#191970" d="M2274.0514,-352.9945C2256.0556,-350.8527 2236.851,-348.71 2219,-347 2098.9326,-335.4986 1725.2117,-310.7543 1610.0991,-303.2213"/>
<polygon fill="#191970" stroke="#191970" points="1609.9907,-299.7068 1599.7836,-302.5471 1609.534,-306.6919 1609.9907,-299.7068"/>
</g>
<!-- Node49&#45;&gt;Node21 -->
<g id="edge52" class="edge">
<title>Node49&#45;&gt;Node21</title>
<path fill="none" stroke="#191970" d="M2321.9063,-352.8906C2293.1825,-342.3127 2246.8929,-325.2659 2215.2646,-313.6184"/>
<polygon fill="#191970" stroke="#191970" points="2216.1451,-310.2129 2205.5517,-310.0415 2213.7261,-316.7817 2216.1451,-310.2129"/>
</g>
<!-- Node49&#45;&gt;Node24 -->
<g id="edge56" class="edge">
<title>Node49&#45;&gt;Node24</title>
<path fill="none" stroke="#191970" d="M2330.2837,-352.8641C2294.7886,-333.5734 2218.0724,-291.9623 2215,-291 2080.5301,-248.8829 2039.3457,-275.9469 1900,-255 1891.769,-253.7627 1883.106,-252.3117 1874.6077,-250.8027"/>
<polygon fill="#191970" stroke="#191970" points="1875.2067,-247.3544 1864.7427,-249.014 1873.9577,-254.242 1875.2067,-247.3544"/>
</g>
<!-- Node49&#45;&gt;Node48 -->
<g id="edge55" class="edge">
<title>Node49&#45;&gt;Node48</title>
<path fill="none" stroke="#191970" d="M2345.9688,-352.8906C2344.1478,-344.276 2341.4198,-331.3708 2339.1401,-320.5858"/>
<polygon fill="#191970" stroke="#191970" points="2342.5524,-319.8048 2337.0599,-310.7449 2335.7038,-321.2525 2342.5524,-319.8048"/>
</g>
<!-- Node50&#45;&gt;Node3 -->
<g id="edge100" class="edge">
<title>Node50&#45;&gt;Node3</title>
<path fill="none" stroke="#191970" d="M1108.3327,-495.822C957.9711,-493.6244 614.4292,-484.3209 505,-445 482.4876,-436.9107 482.6577,-424.1582 461,-414 421.0398,-395.2573 373.0653,-382.3538 335.1938,-374.1504"/>
<polygon fill="#191970" stroke="#191970" points="335.803,-370.702 325.2959,-372.0629 334.3584,-377.5513 335.803,-370.702"/>
</g>
<!-- Node50&#45;&gt;Node7 -->
<g id="edge101" class="edge">
<title>Node50&#45;&gt;Node7</title>
<path fill="none" stroke="#191970" d="M1108.3012,-490.3377C1032.7207,-482.7538 919.6252,-467.9833 883,-445 726.432,-346.7492 673.5218,-101.6666 661.1251,-29.988"/>
<polygon fill="#191970" stroke="#191970" points="664.5058,-28.979 659.4205,-19.6844 657.5997,-30.1216 664.5058,-28.979"/>
</g>
<!-- Node50&#45;&gt;Node26 -->
<g id="edge62" class="edge">
<title>Node50&#45;&gt;Node26</title>
<path fill="none" stroke="#191970" d="M1251.908,-482.2061C1254.9745,-481.7654 1258.0149,-481.3601 1261,-481 1572.4836,-443.427 1653.1962,-469.2396 1966,-445 1989.4909,-443.1797 2015.0154,-440.7066 2038.1924,-438.2707"/>
<polygon fill="#191970" stroke="#191970" points="2038.7397,-441.7323 2048.3133,-437.194 2037.9991,-434.7716 2038.7397,-441.7323"/>
</g>
<!-- Node50&#45;&gt;Node27 -->
<g id="edge102" class="edge">
<title>Node50&#45;&gt;Node27</title>
<path fill="none" stroke="#191970" d="M1215.5136,-481.4471C1256.032,-464.4345 1324.3987,-436.2196 1384,-414 1470.2607,-381.8417 1491.047,-370.7155 1580,-347 1634.898,-332.3638 1698.1077,-320.3302 1745.4348,-312.2466"/>
<polygon fill="#191970" stroke="#191970" points="1746.3094,-315.6486 1755.5866,-310.5316 1745.1432,-308.7464 1746.3094,-315.6486"/>
</g>
<!-- Node51 -->
<g id="node31" class="node">
<title>Node51</title>
<g id="a_node31"><a xlink:href="FixedJoint_8h.html" target="_top" xlink:title="iDynTree/Model/FixedJoint.h">
<polygon fill="none" stroke="#000000" points="1588.5,-353 1588.5,-372 1739.5,-372 1739.5,-353 1588.5,-353"/>
<text text-anchor="middle" x="1664" y="-360" font-family="FreeSans.ttf" font-size="10.00" fill="#000000">iDynTree/Model/FixedJoint.h</text>
</a>
</g>
</g>
<!-- Node50&#45;&gt;Node51 -->
<g id="edge63" class="edge">
<title>Node50&#45;&gt;Node51</title>
<path fill="none" stroke="#191970" d="M1242.2126,-481.4663C1282.7051,-471.5159 1336.6097,-457.9581 1384,-445 1469.5946,-421.5956 1569.0934,-391.6109 1623.431,-374.9972"/>
<polygon fill="#191970" stroke="#191970" points="1624.501,-378.3301 1633.0379,-372.0553 1622.4513,-371.6369 1624.501,-378.3301"/>
</g>
<!-- Node52 -->
<g id="node32" class="node">
<title>Node52</title>
<g id="a_node32"><a xlink:href="RevoluteJoint_8h.html" target="_top" xlink:title="iDynTree/Model/RevoluteJoint.h">
<polygon fill="none" stroke="#000000" points="1789,-420 1789,-439 1957,-439 1957,-420 1789,-420"/>
<text text-anchor="middle" x="1873" y="-427" font-family="FreeSans.ttf" font-size="10.00" fill="#000000">iDynTree/Model/RevoluteJoint.h</text>
</a>
</g>
</g>
<!-- Node50&#45;&gt;Node52 -->
<g id="edge67" class="edge">
<title>Node50&#45;&gt;Node52</title>
<path fill="none" stroke="#191970" d="M1251.924,-482.3302C1254.9862,-481.8555 1258.0213,-481.4092 1261,-481 1443.1895,-455.9732 1657.677,-441.2927 1778.2464,-434.3771"/>
<polygon fill="#191970" stroke="#191970" points="1778.7607,-437.8536 1788.5461,-433.7922 1778.3637,-430.8649 1778.7607,-437.8536"/>
</g>
<!-- Node56 -->
<g id="node36" class="node">
<title>Node56</title>
<g id="a_node36"><a xlink:href="FreeFloatingState_8h.html" target="_top" xlink:title="iDynTree/Model/FreeFloating\lState.h">
<polygon fill="none" stroke="#000000" points="1012,-414.5 1012,-444.5 1166,-444.5 1166,-414.5 1012,-414.5"/>
<text text-anchor="start" x="1020" y="-432.5" font-family="FreeSans.ttf" font-size="10.00" fill="#000000">iDynTree/Model/FreeFloating</text>
<text text-anchor="middle" x="1089" y="-421.5" font-family="FreeSans.ttf" font-size="10.00" fill="#000000">State.h</text>
</a>
</g>
</g>
<!-- Node50&#45;&gt;Node56 -->
<g id="edge78" class="edge">
<title>Node50&#45;&gt;Node56</title>
<path fill="none" stroke="#191970" d="M1159.3507,-481.2967C1147.0177,-472.2163 1131.1708,-460.5488 1117.6406,-450.587"/>
<polygon fill="#191970" stroke="#191970" points="1119.6955,-447.7537 1109.5676,-444.6432 1115.5452,-453.3907 1119.6955,-447.7537"/>
</g>
<!-- Node58 -->
<g id="node39" class="node">
<title>Node58</title>
<g id="a_node39"><a xlink:href="LinkState_8h.html" target="_top" xlink:title="iDynTree/Model/LinkState.h">
<polygon fill="none" stroke="#ff0000" points="1117.5,-353 1117.5,-372 1266.5,-372 1266.5,-353 1117.5,-353"/>
<text text-anchor="middle" x="1192" y="-360" font-family="FreeSans.ttf" font-size="10.00" fill="#000000">iDynTree/Model/LinkState.h</text>
</a>
</g>
</g>
<!-- Node50&#45;&gt;Node58 -->
<g id="edge99" class="edge">
<title>Node50&#45;&gt;Node58</title>
<path fill="none" stroke="#191970" d="M1181.3532,-481.389C1183.5307,-457.0735 1187.8121,-409.2644 1190.2296,-382.2698"/>
<polygon fill="#191970" stroke="#191970" points="1193.7339,-382.3765 1191.1399,-372.1042 1186.7618,-381.7521 1193.7339,-382.3765"/>
</g>
<!-- Node51&#45;&gt;Node24 -->
<g id="edge65" class="edge">
<title>Node51&#45;&gt;Node24</title>
<path fill="none" stroke="#191970" d="M1674.0274,-352.855C1688.8679,-338.7405 1717.7577,-311.8707 1744,-291 1760.1848,-278.1281 1779.312,-264.6948 1793.9268,-254.7762"/>
<polygon fill="#191970" stroke="#191970" points="1796.0335,-257.5773 1802.3767,-249.0912 1792.1259,-251.7694 1796.0335,-257.5773"/>
</g>
<!-- Node51&#45;&gt;Node27 -->
<g id="edge66" class="edge">
<title>Node51&#45;&gt;Node27</title>
<path fill="none" stroke="#191970" d="M1687.9063,-352.8906C1713.7305,-342.5103 1755.0527,-325.9004 1783.9705,-314.2766"/>
<polygon fill="#191970" stroke="#191970" points="1785.2885,-317.519 1793.2616,-310.5419 1782.6778,-311.0241 1785.2885,-317.519"/>
</g>
<!-- Node51&#45;&gt;Node48 -->
<g id="edge64" class="edge">
<title>Node51&#45;&gt;Node48</title>
<path fill="none" stroke="#191970" d="M1711.5177,-352.9406C1723.6967,-350.7369 1736.8015,-348.5791 1749,-347 1955.0093,-320.3318 2007.9382,-327.6255 2215,-311 2226.803,-310.0523 2239.2575,-309.0344 2251.4973,-308.0239"/>
<polygon fill="#191970" stroke="#191970" points="2252.0322,-311.4916 2261.7093,-307.1784 2251.4546,-304.5155 2252.0322,-311.4916"/>
</g>
<!-- Node52&#45;&gt;Node24 -->
<g id="edge75" class="edge">
<title>Node52&#45;&gt;Node24</title>
<path fill="none" stroke="#191970" d="M1888.0926,-419.7328C1900.6279,-410.6386 1917.5661,-395.8251 1925,-378 1930.3033,-365.2838 1928.7983,-360.2439 1925,-347 1916.9087,-318.7872 1910.1667,-312.3245 1890,-291 1876.3207,-276.5353 1858.0064,-263.6285 1843.1443,-254.3539"/>
<polygon fill="#191970" stroke="#191970" points="1844.7763,-251.2505 1834.4089,-249.067 1841.1518,-257.2391 1844.7763,-251.2505"/>
</g>
<!-- Node52&#45;&gt;Node48 -->
<g id="edge68" class="edge">
<title>Node52&#45;&gt;Node48</title>
<path fill="none" stroke="#191970" d="M1957.0866,-421.54C1983.6095,-419.0709 2013.025,-416.3757 2040,-414 2087.9807,-409.7743 2439.3861,-413.4448 2472,-378 2500.6907,-346.819 2444.1531,-325.1322 2395.2349,-312.8956"/>
<polygon fill="#191970" stroke="#191970" points="2395.8042,-309.4329 2385.2633,-310.5011 2394.1696,-316.2394 2395.8042,-309.4329"/>
</g>
<!-- Node37 -->
<g id="node33" class="node">
<title>Node37</title>
<g id="a_node33"><a xlink:href="SpatialMotionVector_8h.html" target="_top" xlink:title="iDynTree/Core/SpatialMotion\lVector.h">
<polygon fill="none" stroke="#ff0000" points="1086.5,-224.5 1086.5,-254.5 1241.5,-254.5 1241.5,-224.5 1086.5,-224.5"/>
<text text-anchor="start" x="1094.5" y="-242.5" font-family="FreeSans.ttf" font-size="10.00" fill="#000000">iDynTree/Core/SpatialMotion</text>
<text text-anchor="middle" x="1164" y="-231.5" font-family="FreeSans.ttf" font-size="10.00" fill="#000000">Vector.h</text>
</a>
</g>
</g>
<!-- Node52&#45;&gt;Node37 -->
<g id="edge69" class="edge">
<title>Node52&#45;&gt;Node37</title>
<path fill="none" stroke="#191970" d="M1788.9597,-426.398C1712.0301,-421.5812 1606.2769,-409.2983 1580,-378 1571.141,-367.448 1575.4175,-359.9934 1580,-347 1589.3222,-320.5675 1627.6449,-311.9272 1609,-291 1585.695,-264.8423 1374.7436,-249.9935 1251.8394,-243.4927"/>
<polygon fill="#191970" stroke="#191970" points="1251.8574,-239.989 1241.6889,-242.9642 1251.4934,-246.9795 1251.8574,-239.989"/>
</g>
<!-- Node53 -->
<g id="node34" class="node">
<title>Node53</title>
<g id="a_node34"><a xlink:href="Axis_8h.html" target="_top" xlink:title="iDynTree/Core/Axis.h">
<polygon fill="none" stroke="#ff0000" points="2464,-291.5 2464,-310.5 2582,-310.5 2582,-291.5 2464,-291.5"/>
<text text-anchor="middle" x="2523" y="-298.5" font-family="FreeSans.ttf" font-size="10.00" fill="#000000">iDynTree/Core/Axis.h</text>
</a>
</g>
</g>
<!-- Node52&#45;&gt;Node53 -->
<g id="edge71" class="edge">
<title>Node52&#45;&gt;Node53</title>
<path fill="none" stroke="#191970" d="M1957.0821,-421.4885C1983.6048,-419.0171 2013.0213,-416.3335 2040,-414 2089.8628,-409.6872 2448.1935,-406.9781 2489,-378 2507.747,-364.6871 2516.2932,-338.6513 2520.096,-320.5614"/>
<polygon fill="#191970" stroke="#191970" points="2523.5784,-320.9704 2521.8996,-310.5094 2516.6885,-319.7341 2523.5784,-320.9704"/>
</g>
<!-- Node55 -->
<g id="node35" class="node">
<title>Node55</title>
<g id="a_node35"><a xlink:href="MovableJointImpl_8h.html" target="_top" xlink:title="iDynTree/Model/MovableJoint\lImpl.h">
<polygon fill="none" stroke="#000000" points="1758,-347.5 1758,-377.5 1916,-377.5 1916,-347.5 1758,-347.5"/>
<text text-anchor="start" x="1766" y="-365.5" font-family="FreeSans.ttf" font-size="10.00" fill="#000000">iDynTree/Model/MovableJoint</text>
<text text-anchor="middle" x="1837" y="-354.5" font-family="FreeSans.ttf" font-size="10.00" fill="#000000">Impl.h</text>
</a>
</g>
</g>
<!-- Node52&#45;&gt;Node55 -->
<g id="edge76" class="edge">
<title>Node52&#45;&gt;Node55</title>
<path fill="none" stroke="#191970" d="M1867.8421,-419.9005C1863.1942,-411.2503 1856.1627,-398.164 1849.9868,-386.6699"/>
<polygon fill="#191970" stroke="#191970" points="1852.8877,-384.6741 1845.0714,-377.5218 1846.7215,-387.9873 1852.8877,-384.6741"/>
</g>
<!-- Node37&#45;&gt;Node35 -->
<g id="edge70" class="edge">
<title>Node37&#45;&gt;Node35</title>
<path fill="none" stroke="#191970" d="M1132.4721,-224.3795C1084.6919,-201.4645 994.6104,-158.2622 948.2296,-136.0183"/>
<polygon fill="#191970" stroke="#191970" points="949.5568,-132.7731 939.0266,-131.6046 946.5298,-139.0848 949.5568,-132.7731"/>
</g>
<!-- Node53&#45;&gt;Node5 -->
<g id="edge72" class="edge">
<title>Node53&#45;&gt;Node5</title>
<path fill="none" stroke="#191970" d="M2514.6283,-291.3071C2487.7604,-260.7517 2400.128,-165.318 2309,-112 2277.2391,-93.4171 2236.794,-80.7098 2209.0943,-73.4371"/>
<polygon fill="#191970" stroke="#191970" points="2209.7004,-69.9801 2199.1469,-70.915 2207.98,-76.7654 2209.7004,-69.9801"/>
</g>
<!-- Node53&#45;&gt;Node17 -->
<g id="edge74" class="edge">
<title>Node53&#45;&gt;Node17</title>
<path fill="none" stroke="#191970" d="M2475.1823,-291.4479C2428.8475,-282.1795 2356.5939,-267.6934 2294,-255 2105.0403,-216.6811 2060.4589,-190.7511 1869,-168 1410.1732,-113.4775 1290.0895,-174.5714 830,-132 694.5445,-119.4665 537.1118,-92.6378 453.1107,-77.3256"/>
<polygon fill="#191970" stroke="#191970" points="453.704,-73.8762 443.237,-75.5171 452.4428,-80.7616 453.704,-73.8762"/>
</g>
<!-- Node53&#45;&gt;Node40 -->
<g id="edge73" class="edge">
<title>Node53&#45;&gt;Node40</title>
<path fill="none" stroke="#191970" d="M2493.625,-291.3906C2461.3414,-280.8298 2409.3465,-263.8208 2373.7453,-252.1747"/>
<polygon fill="#191970" stroke="#191970" points="2374.7613,-248.8246 2364.1687,-249.0419 2372.5849,-255.4776 2374.7613,-248.8246"/>
</g>
<!-- Node55&#45;&gt;Node27 -->
<g id="edge77" class="edge">
<title>Node55&#45;&gt;Node27</title>
<path fill="none" stroke="#191970" d="M1832.0562,-347.2977C1829.4246,-339.2055 1826.159,-329.1639 1823.3424,-320.5029"/>
<polygon fill="#191970" stroke="#191970" points="1826.6234,-319.2743 1820.2023,-310.8469 1819.9665,-321.4391 1826.6234,-319.2743"/>
</g>
<!-- Node56&#45;&gt;Node20 -->
<g id="edge98" class="edge">
<title>Node56&#45;&gt;Node20</title>
<path fill="none" stroke="#191970" d="M1166.0321,-418.0497C1208.9541,-410.041 1262.7141,-397.2642 1308,-378 1331.3691,-368.059 1332.4573,-356.5225 1356,-347 1432.44,-316.0817 1457.6463,-329.5012 1538,-311 1539.4542,-310.6652 1540.9374,-310.3145 1542.4339,-309.9533"/>
<polygon fill="#191970" stroke="#191970" points="1543.4913,-313.2966 1552.3395,-307.469 1541.7884,-306.5068 1543.4913,-313.2966"/>
</g>
<!-- Node56&#45;&gt;Node24 -->
<g id="edge85" class="edge">
<title>Node56&#45;&gt;Node24</title>
<path fill="none" stroke="#191970" d="M1088.0727,-414.2807C1087.8337,-395.6174 1090.5041,-364.3341 1109,-347 1176.816,-283.4436 1226.8759,-340.5393 1315,-311 1333.4696,-304.809 1335.3467,-296.6134 1354,-291 1423.7512,-270.0095 1624.5683,-253.061 1737.4776,-244.8584"/>
<polygon fill="#191970" stroke="#191970" points="1738.0657,-248.3252 1747.7885,-244.1159 1737.5629,-241.3433 1738.0657,-248.3252"/>
</g>
<!-- Node56&#45;&gt;Node48 -->
<g id="edge79" class="edge">
<title>Node56&#45;&gt;Node48</title>
<path fill="none" stroke="#191970" d="M1166.4734,-427.9842C1450.1393,-422.2536 2416.7999,-401.0632 2439,-378 2448.5549,-368.0737 2446.518,-358.5459 2439,-347 2428.7287,-331.2257 2411.6825,-320.8207 2394.3325,-313.9735"/>
<polygon fill="#191970" stroke="#191970" points="2395.298,-310.6016 2384.7035,-310.524 2392.9372,-317.1915 2395.298,-310.6016"/>
</g>
<!-- Node36 -->
<g id="node37" class="node">
<title>Node36</title>
<g id="a_node37"><a xlink:href="Twist_8h.html" target="_top" xlink:title="iDynTree/Core/Twist.h">
<polygon fill="none" stroke="#000000" points="1018,-291.5 1018,-310.5 1140,-310.5 1140,-291.5 1018,-291.5"/>
<text text-anchor="middle" x="1079" y="-298.5" font-family="FreeSans.ttf" font-size="10.00" fill="#000000">iDynTree/Core/Twist.h</text>
</a>
</g>
</g>
<!-- Node56&#45;&gt;Node36 -->
<g id="edge80" class="edge">
<title>Node56&#45;&gt;Node36</title>
<path fill="none" stroke="#191970" d="M1084.128,-414.3647C1081.1188,-404.2023 1077.5465,-390.4454 1076,-378 1074.301,-364.3274 1075.5514,-360.7705 1076,-347 1076.283,-338.3113 1076.866,-328.714 1077.4434,-320.5436"/>
<polygon fill="#191970" stroke="#191970" points="1080.9384,-320.7404 1078.1987,-310.5059 1073.9582,-320.2151 1080.9384,-320.7404"/>
</g>
<!-- Node57 -->
<g id="node38" class="node">
<title>Node57</title>
<g id="a_node38"><a xlink:href="VectorDynSize_8h.html" target="_top" xlink:title="iDynTree/Core/VectorDynSize.h">
<polygon fill="none" stroke="#000000" points="795.5,-291.5 795.5,-310.5 962.5,-310.5 962.5,-291.5 795.5,-291.5"/>
<text text-anchor="middle" x="879" y="-298.5" font-family="FreeSans.ttf" font-size="10.00" fill="#000000">iDynTree/Core/VectorDynSize.h</text>
</a>
</g>
</g>
<!-- Node56&#45;&gt;Node57 -->
<g id="edge82" class="edge">
<title>Node56&#45;&gt;Node57</title>
<path fill="none" stroke="#191970" d="M1011.9351,-422.0434C954.3074,-414.6873 882.4193,-401.1116 864,-378 850.8021,-361.4399 859.1693,-336.5914 867.7745,-319.6314"/>
<polygon fill="#191970" stroke="#191970" points="870.9466,-321.127 872.7074,-310.6795 864.8158,-317.7486 870.9466,-321.127"/>
</g>
<!-- Node56&#45;&gt;Node58 -->
<g id="edge86" class="edge">
<title>Node56&#45;&gt;Node58</title>
<path fill="none" stroke="#191970" d="M1112.1152,-414.4639C1128.9302,-403.526 1151.6163,-388.769 1168.5162,-377.7759"/>
<polygon fill="#191970" stroke="#191970" points="1170.7616,-380.4906 1177.2358,-372.1039 1166.9447,-374.6228 1170.7616,-380.4906"/>
</g>
<!-- Node60 -->
<g id="node42" class="node">
<title>Node60</title>
<g id="a_node42"><a xlink:href="JointState_8h.html" target="_top" xlink:title="iDynTree/Model/JointState.h">
<polygon fill="none" stroke="#ff0000" points="872.5,-353 872.5,-372 1023.5,-372 1023.5,-353 872.5,-353"/>
<text text-anchor="middle" x="948" y="-360" font-family="FreeSans.ttf" font-size="10.00" fill="#000000">iDynTree/Model/JointState.h</text>
</a>
</g>
</g>
<!-- Node56&#45;&gt;Node60 -->
<g id="edge94" class="edge">
<title>Node56&#45;&gt;Node60</title>
<path fill="none" stroke="#191970" d="M1057.3568,-414.4639C1033.3792,-403.0702 1000.6807,-387.5327 977.2983,-376.4219"/>
<polygon fill="#191970" stroke="#191970" points="978.7456,-373.2346 968.2112,-372.1039 975.7412,-379.5571 978.7456,-373.2346"/>
</g>
<!-- Node36&#45;&gt;Node37 -->
<g id="edge81" class="edge">
<title>Node36&#45;&gt;Node37</title>
<path fill="none" stroke="#191970" d="M1092.2813,-291.3906C1103.6784,-283.1444 1120.5092,-270.9669 1135.0023,-260.4807"/>
<polygon fill="#191970" stroke="#191970" points="1137.1565,-263.2421 1143.2067,-254.5446 1133.0532,-257.5709 1137.1565,-263.2421"/>
</g>
<!-- Node57&#45;&gt;Node5 -->
<g id="edge84" class="edge">
<title>Node57&#45;&gt;Node5</title>
<path fill="none" stroke="#191970" d="M899.1197,-291.4509C934.4823,-275.0718 1010.4462,-241.6811 1078,-224 1490.6391,-115.9987 2011.0368,-76.656 2144.6071,-67.9708"/>
<polygon fill="#191970" stroke="#191970" points="2145.1876,-71.4409 2154.9439,-67.3101 2144.741,-64.4552 2145.1876,-71.4409"/>
</g>
<!-- Node57&#45;&gt;Node9 -->
<g id="edge83" class="edge">
<title>Node57&#45;&gt;Node9</title>
<path fill="none" stroke="#191970" d="M864.927,-291.4967C811.3691,-255.3297 619.9502,-126.067 553.7333,-81.3515"/>
<polygon fill="#191970" stroke="#191970" points="555.4943,-78.3174 545.2481,-75.6216 551.5768,-84.1186 555.4943,-78.3174"/>
</g>
<!-- Node58&#45;&gt;Node20 -->
<g id="edge93" class="edge">
<title>Node58&#45;&gt;Node20</title>
<path fill="none" stroke="#191970" d="M1244.5312,-352.931C1256.1957,-350.8946 1268.5075,-348.8133 1280,-347 1394.3627,-328.9554 1424.4841,-333.7724 1538,-311 1539.4631,-310.7065 1540.9537,-310.3901 1542.4562,-310.0569"/>
<polygon fill="#191970" stroke="#191970" points="1543.4752,-313.4119 1552.3846,-307.6784 1541.8443,-306.6046 1543.4752,-313.4119"/>
</g>
<!-- Node58&#45;&gt;Node24 -->
<g id="edge92" class="edge">
<title>Node58&#45;&gt;Node24</title>
<path fill="none" stroke="#191970" d="M1245.4937,-352.9395C1256.8778,-350.9437 1268.8322,-348.8768 1280,-347 1379.8714,-330.2159 1408.7504,-342.4964 1505,-311 1523.5136,-304.9417 1525.5724,-297.3151 1544,-291 1607.3564,-269.2881 1682.3018,-255.9779 1737.624,-248.343"/>
<polygon fill="#191970" stroke="#191970" points="1738.2753,-251.7869 1747.7183,-246.9826 1737.3404,-244.8496 1738.2753,-251.7869"/>
</g>
<!-- Node58&#45;&gt;Node48 -->
<g id="edge87" class="edge">
<title>Node58&#45;&gt;Node48</title>
<path fill="none" stroke="#191970" d="M1266.814,-359.5763C1435.8871,-352.7845 1860.355,-334.6973 2215,-311 2226.8147,-310.2105 2239.2756,-309.2809 2251.5185,-308.3118"/>
<polygon fill="#191970" stroke="#191970" points="2252.0449,-311.7808 2261.7323,-307.4906 2251.4839,-304.8033 2252.0449,-311.7808"/>
</g>
<!-- Node58&#45;&gt;Node36 -->
<g id="edge88" class="edge">
<title>Node58&#45;&gt;Node36</title>
<path fill="none" stroke="#191970" d="M1174.3438,-352.8906C1155.8514,-342.8262 1126.599,-326.9057 1105.3692,-315.3514"/>
<polygon fill="#191970" stroke="#191970" points="1106.9888,-312.2481 1096.5323,-310.5419 1103.6425,-318.3965 1106.9888,-312.2481"/>
</g>
<!-- Node46 -->
<g id="node40" class="node">
<title>Node46</title>
<g id="a_node40"><a xlink:href="SpatialAcc_8h.html" target="_top" xlink:title="iDynTree/Core/SpatialAcc.h">
<polygon fill="none" stroke="#000000" points="1158,-291.5 1158,-310.5 1306,-310.5 1306,-291.5 1158,-291.5"/>
<text text-anchor="middle" x="1232" y="-298.5" font-family="FreeSans.ttf" font-size="10.00" fill="#000000">iDynTree/Core/SpatialAcc.h</text>
</a>
</g>
</g>
<!-- Node58&#45;&gt;Node46 -->
<g id="edge89" class="edge">
<title>Node58&#45;&gt;Node46</title>
<path fill="none" stroke="#191970" d="M1198.25,-352.8906C1204.0865,-343.917 1212.9509,-330.2879 1220.1306,-319.2491"/>
<polygon fill="#191970" stroke="#191970" points="1223.1436,-321.0361 1225.6619,-310.7449 1217.2755,-317.2194 1223.1436,-321.0361"/>
</g>
<!-- Node47 -->
<g id="node41" class="node">
<title>Node47</title>
<g id="a_node41"><a xlink:href="Wrench_8h.html" target="_top" xlink:title="iDynTree/Core/Wrench.h">
<polygon fill="none" stroke="#ff0000" points="1362.5,-291.5 1362.5,-310.5 1495.5,-310.5 1495.5,-291.5 1362.5,-291.5"/>
<text text-anchor="middle" x="1429" y="-298.5" font-family="FreeSans.ttf" font-size="10.00" fill="#000000">iDynTree/Core/Wrench.h</text>
</a>
</g>
</g>
<!-- Node58&#45;&gt;Node47 -->
<g id="edge91" class="edge">
<title>Node58&#45;&gt;Node47</title>
<path fill="none" stroke="#191970" d="M1228.7712,-352.9581C1270.1106,-342.2308 1337.3233,-324.7895 1382.3322,-313.11"/>
<polygon fill="#191970" stroke="#191970" points="1383.3422,-316.4639 1392.1425,-310.5643 1381.584,-309.6883 1383.3422,-316.4639"/>
</g>
<!-- Node46&#45;&gt;Node37 -->
<g id="edge90" class="edge">
<title>Node46&#45;&gt;Node37</title>
<path fill="none" stroke="#191970" d="M1221.375,-291.3906C1212.5129,-283.3756 1199.5442,-271.6466 1188.1777,-261.3666"/>
<polygon fill="#191970" stroke="#191970" points="1190.3991,-258.6565 1180.6347,-254.5446 1185.7036,-263.8482 1190.3991,-258.6565"/>
</g>
<!-- Node60&#45;&gt;Node20 -->
<g id="edge97" class="edge">
<title>Node60&#45;&gt;Node20</title>
<path fill="none" stroke="#191970" d="M1023.7521,-355.1234C1050.6658,-352.5248 1081.1813,-349.6036 1109,-347 1284.9568,-330.5321 1329.4475,-331.33 1505,-311 1517.2418,-309.5823 1530.6334,-307.7656 1542.4549,-306.0705"/>
<polygon fill="#191970" stroke="#191970" points="1542.9802,-309.531 1552.3708,-304.6253 1541.9705,-302.6042 1542.9802,-309.531"/>
</g>
<!-- Node60&#45;&gt;Node35 -->
<g id="edge95" class="edge">
<title>Node60&#45;&gt;Node35</title>
<path fill="none" stroke="#191970" d="M954.1534,-352.7057C960.0644,-342.6739 968.5858,-326.409 972,-311 973.9229,-302.3216 973.3455,-299.7865 972,-291 963.4233,-234.9901 939.7326,-172.0488 927.1305,-141.1756"/>
<polygon fill="#191970" stroke="#191970" points="930.2454,-139.5502 923.1784,-131.6567 923.7805,-142.2344 930.2454,-139.5502"/>
</g>
<!-- Node60&#45;&gt;Node57 -->
<g id="edge96" class="edge">
<title>Node60&#45;&gt;Node57</title>
<path fill="none" stroke="#191970" d="M937.2188,-352.8906C926.6474,-343.4683 910.3175,-328.9134 897.6397,-317.6137"/>
<polygon fill="#191970" stroke="#191970" points="899.7272,-314.7858 889.9333,-310.7449 895.0696,-320.0114 899.7272,-314.7858"/>
</g>
<!-- Node61&#45;&gt;Node5 -->
<g id="edge112" class="edge">
<title>Node61&#45;&gt;Node5</title>
<path fill="none" stroke="#191970" d="M2023.0105,-548.726C2026.0427,-548.4705 2029.0461,-548.2274 2032,-548 2110.3146,-541.9705 2676.4007,-560.7346 2738,-512 2767.9476,-488.3068 2762,-467.6867 2762,-429.5 2762,-429.5 2762,-429.5 2762,-178 2762,-146.7875 2762.8115,-130.9371 2738,-112 2695.8576,-79.8354 2322.0694,-69.1479 2209.1589,-66.638"/>
<polygon fill="#191970" stroke="#191970" points="2209.1395,-63.1369 2199.0663,-66.4202 2208.9884,-70.1353 2209.1395,-63.1369"/>
</g>
<!-- Node61&#45;&gt;Node20 -->
<g id="edge113" class="edge">
<title>Node61&#45;&gt;Node20</title>
<path fill="none" stroke="#191970" d="M1849.1444,-548.4967C1729.0531,-533.3876 1519.8799,-499.8549 1469,-445 1439.0796,-412.7421 1430.0209,-383.2194 1455,-347 1460.2548,-339.3806 1508.8531,-322.5187 1542.8351,-311.4648"/>
<polygon fill="#191970" stroke="#191970" points="1543.9721,-314.7757 1552.4154,-308.3756 1541.8238,-308.1135 1543.9721,-314.7757"/>
</g>
<!-- Node61&#45;&gt;Node26 -->
<g id="edge104" class="edge">
<title>Node61&#45;&gt;Node26</title>
<path fill="none" stroke="#191970" d="M1934.5653,-548.3339C1934.385,-532.2269 1936.4197,-499.8121 1954,-481 1968.5774,-465.4012 2018.5944,-450.8973 2059.0561,-441.2829"/>
<polygon fill="#191970" stroke="#191970" points="2059.8973,-444.6808 2068.8445,-439.0066 2058.3116,-437.8627 2059.8973,-444.6808"/>
</g>
<!-- Node62 -->
<g id="node44" class="node">
<title>Node62</title>
<g id="a_node44"><a xlink:href="Sensors_8h.html" target="_top" xlink:title="iDynTree/Sensors/Sensors.h">
<polygon fill="none" stroke="#ff0000" points="2039.5,-487 2039.5,-506 2190.5,-506 2190.5,-487 2039.5,-487"/>
<text text-anchor="middle" x="2115" y="-494" font-family="FreeSans.ttf" font-size="10.00" fill="#000000">iDynTree/Sensors/Sensors.h</text>
</a>
</g>
</g>
<!-- Node61&#45;&gt;Node62 -->
<g id="edge105" class="edge">
<title>Node61&#45;&gt;Node62</title>
<path fill="none" stroke="#191970" d="M1963.125,-548.3906C1993.9028,-537.8749 2043.3921,-520.966 2077.4655,-509.3243"/>
<polygon fill="#191970" stroke="#191970" points="2078.7412,-512.5871 2087.0725,-506.0419 2076.478,-505.9631 2078.7412,-512.5871"/>
</g>
<!-- Node63 -->
<g id="node45" class="node">
<title>Node63</title>
<polygon fill="none" stroke="#bfbfbf" points="1963,-487 1963,-506 2021,-506 2021,-487 1963,-487"/>
<text text-anchor="middle" x="1992" y="-494" font-family="FreeSans.ttf" font-size="10.00" fill="#000000">memory</text>
</g>
<!-- Node61&#45;&gt;Node63 -->
<g id="edge111" class="edge">
<title>Node61&#45;&gt;Node63</title>
<path fill="none" stroke="#191970" d="M1943.9063,-548.3906C1952.4728,-539.1478 1965.6169,-524.966 1976.0003,-513.7628"/>
<polygon fill="#191970" stroke="#191970" points="1978.7375,-515.9584 1982.9682,-506.2449 1973.6035,-511.2 1978.7375,-515.9584"/>
</g>
<!-- Node62&#45;&gt;Node5 -->
<g id="edge106" class="edge">
<title>Node62&#45;&gt;Node5</title>
<path fill="none" stroke="#191970" d="M2190.5297,-494.47C2345.7172,-488.2426 2686,-463.1159 2686,-362.5 2686,-362.5 2686,-362.5 2686,-178 2686,-114.7826 2620.3748,-130.7438 2560,-112 2494.6376,-91.7078 2289.5123,-74.4963 2209.4568,-68.381"/>
<polygon fill="#191970" stroke="#191970" points="2209.2534,-64.8557 2199.0182,-67.5926 2208.7262,-71.8359 2209.2534,-64.8557"/>
</g>
<!-- Node62&#45;&gt;Node20 -->
<g id="edge107" class="edge">
<title>Node62&#45;&gt;Node20</title>
<path fill="none" stroke="#191970" d="M2064.2637,-486.9278C2052.9966,-484.8915 2041.1035,-482.8112 2030,-481 1820.6568,-446.8524 1689.8207,-548.7623 1564,-378 1551.6383,-361.2228 1558.4966,-336.7589 1565.9213,-319.932"/>
<polygon fill="#191970" stroke="#191970" points="1569.2423,-321.1045 1570.4507,-310.5788 1562.9422,-318.0535 1569.2423,-321.1045"/>
</g>
<!-- Node62&#45;&gt;Node24 -->
<g id="edge110" class="edge">
<title>Node62&#45;&gt;Node24</title>
<path fill="none" stroke="#191970" d="M2190.8773,-487.0595C2303.002,-471.3232 2504.1334,-435.6434 2545,-378 2552.9684,-366.7603 2552.7242,-358.4089 2545,-347 2520.8474,-311.3258 2494.1146,-329.0569 2455,-311 2437.672,-303.0007 2435.3433,-296.2697 2417,-291 2211.81,-232.053 2150.3968,-276.5705 1938,-255 1924.436,-253.6225 1910.0424,-251.9576 1896.0941,-250.237"/>
<polygon fill="#191970" stroke="#191970" points="1896.3919,-246.7471 1886.0345,-248.9777 1895.5222,-253.6929 1896.3919,-246.7471"/>
</g>
<!-- Node62&#45;&gt;Node26 -->
<g id="edge109" class="edge">
<title>Node62&#45;&gt;Node26</title>
<path fill="none" stroke="#191970" d="M2115,-486.9005C2115,-477.149 2115,-461.7597 2115,-449.3695"/>
<polygon fill="#191970" stroke="#191970" points="2118.5001,-449.0816 2115,-439.0817 2111.5001,-449.0817 2118.5001,-449.0816"/>
</g>
<!-- Node62&#45;&gt;Node57 -->
<g id="edge108" class="edge">
<title>Node62&#45;&gt;Node57</title>
<path fill="none" stroke="#191970" d="M2069.7417,-486.9878C2056.9475,-484.6424 2042.9746,-482.4029 2030,-481 1802.9609,-456.4517 1225.4752,-496.5185 1003,-445 931.8675,-428.5279 892.73,-439.2592 853,-378 841.0806,-359.6217 853.1803,-335.2155 864.5502,-318.8517"/>
<polygon fill="#191970" stroke="#191970" points="867.4713,-320.7891 870.6346,-310.6775 861.8561,-316.6094 867.4713,-320.7891"/>
</g>
<!-- Node64&#45;&gt;Node4 -->
<g id="edge118" class="edge">
<title>Node64&#45;&gt;Node4</title>
<path fill="none" stroke="#191970" d="M561.2697,-419.9314C539.4055,-412.4166 514.1158,-399.5076 501,-378 493.8266,-366.2369 495.2237,-359.5085 501,-347 506.8259,-334.384 518.0069,-323.9528 528.6905,-316.2314"/>
<polygon fill="#191970" stroke="#191970" points="530.6856,-319.1076 537.0401,-310.6299 526.7858,-313.2946 530.6856,-319.1076"/>
</g>
<!-- Node64&#45;&gt;Node5 -->
<g id="edge115" class="edge">
<title>Node64&#45;&gt;Node5</title>
<path fill="none" stroke="#191970" d="M616.2507,-419.8452C631.2785,-410.0482 654.5958,-394.0748 673,-378 713.0191,-343.0461 709.7455,-318.8449 755,-291 844.2279,-236.0984 879.5378,-250.1002 981,-224 1093.796,-194.9843 1122.7415,-190.5796 1237,-168 1377.356,-140.263 1412.033,-129.7347 1554,-112 1779.1538,-83.8735 2052.3946,-70.9965 2144.7439,-67.2293"/>
<polygon fill="#191970" stroke="#191970" points="2144.9966,-70.722 2154.8484,-66.8243 2144.7162,-63.7277 2144.9966,-70.722"/>
</g>
<!-- Node64&#45;&gt;Node6 -->
<g id="edge119" class="edge">
<title>Node64&#45;&gt;Node6</title>
<path fill="none" stroke="#191970" d="M546.054,-419.9782C501.7657,-411.0888 444.5485,-396.4373 430,-378 372.1049,-304.6299 369.8645,-247.5029 419,-168 428.4961,-152.6351 444.8505,-142.2306 461.1612,-135.2655"/>
<polygon fill="#191970" stroke="#191970" points="462.6576,-138.4389 470.7075,-131.5505 460.1189,-131.9155 462.6576,-138.4389"/>
</g>
<!-- Node64&#45;&gt;Node9 -->
<g id="edge121" class="edge">
<title>Node64&#45;&gt;Node9</title>
<path fill="none" stroke="#191970" d="M540.7383,-419.969C491.0066,-410.9778 425.5505,-396.1826 406,-378 382.9459,-356.5589 388.4588,-342.0066 383,-311 367.311,-221.8848 363.2629,-177.2052 426,-112 440.8734,-96.5415 461.8367,-85.9455 481.1248,-78.8579"/>
<polygon fill="#191970" stroke="#191970" points="482.401,-82.1203 490.72,-75.5595 480.1253,-75.5005 482.401,-82.1203"/>
</g>
<!-- Node64&#45;&gt;Node17 -->
<g id="edge120" class="edge">
<title>Node64&#45;&gt;Node17</title>
<path fill="none" stroke="#191970" d="M513.4224,-426.007C364.0518,-417.6392 76,-389.9686 76,-301 76,-301 76,-301 76,-178 76,-144.3717 85.4624,-131.3015 113,-112 146.0184,-88.857 251.3005,-76.5023 322.9272,-70.6019"/>
<polygon fill="#191970" stroke="#191970" points="323.549,-74.0635 333.2383,-69.7777 322.9912,-67.0857 323.549,-74.0635"/>
</g>
<!-- Node64&#45;&gt;Node20 -->
<g id="edge116" class="edge">
<title>Node64&#45;&gt;Node20</title>
<path fill="none" stroke="#191970" d="M688.8113,-426.126C859.4547,-419.0855 1223.7511,-401.511 1276,-378 1294.0575,-369.8745 1290.2779,-355.8333 1308,-347 1400.6015,-300.8443 1436.727,-332.1934 1538,-311 1539.4606,-310.6943 1540.9491,-310.3679 1542.45,-310.0264"/>
<polygon fill="#191970" stroke="#191970" points="1543.4805,-313.378 1552.372,-307.6168 1541.8284,-306.5757 1543.4805,-313.378"/>
</g>
<!-- Node64&#45;&gt;Node24 -->
<g id="edge122" class="edge">
<title>Node64&#45;&gt;Node24</title>
<path fill="none" stroke="#191970" d="M627.0777,-419.8381C649.2746,-410.9077 681.3822,-396.2735 706,-378 748.4212,-346.5111 739.1009,-313.2888 787,-291 829.8618,-271.0552 1503.2644,-248.961 1737.4619,-241.8439"/>
<polygon fill="#191970" stroke="#191970" points="1737.7227,-245.3377 1747.6121,-241.5365 1737.5107,-238.3409 1737.7227,-245.3377"/>
</g>
<!-- Node64&#45;&gt;Node35 -->
<g id="edge117" class="edge">
<title>Node64&#45;&gt;Node35</title>
<path fill="none" stroke="#191970" d="M565.6754,-419.9913C542.1895,-412.1 512.0845,-398.7563 492,-378 463.6575,-348.7094 439.7199,-324.4555 463,-291 510.5822,-222.6205 755.7707,-159.2394 865.6389,-133.7831"/>
<polygon fill="#191970" stroke="#191970" points="866.5613,-137.1624 875.5229,-131.5108 864.9929,-130.3403 866.5613,-137.1624"/>
</g>
<!-- Node64&#45;&gt;Node58 -->
<g id="edge125" class="edge">
<title>Node64&#45;&gt;Node58</title>
<path fill="none" stroke="#191970" d="M685.0483,-419.9717C797.1856,-407.259 994.6371,-384.8745 1107.1696,-372.117"/>
<polygon fill="#191970" stroke="#191970" points="1107.5799,-375.593 1117.1219,-370.9887 1106.7913,-368.6375 1107.5799,-375.593"/>
</g>
<!-- Node65 -->
<g id="node47" class="node">
<title>Node65</title>
<g id="a_node47"><a xlink:href="FreeFloatingMatrices_8h.html" target="_top" xlink:title="iDynTree/Model/FreeFloating\lMatrices.h">
<polygon fill="none" stroke="#000000" points="510,-347.5 510,-377.5 664,-377.5 664,-347.5 510,-347.5"/>
<text text-anchor="start" x="518" y="-365.5" font-family="FreeSans.ttf" font-size="10.00" fill="#000000">iDynTree/Model/FreeFloating</text>
<text text-anchor="middle" x="587" y="-354.5" font-family="FreeSans.ttf" font-size="10.00" fill="#000000">Matrices.h</text>
</a>
</g>
</g>
<!-- Node64&#45;&gt;Node65 -->
<g id="edge123" class="edge">
<title>Node64&#45;&gt;Node65</title>
<path fill="none" stroke="#191970" d="M598.9941,-419.9005C597.2228,-411.4234 594.5612,-398.6856 592.1949,-387.3614"/>
<polygon fill="#191970" stroke="#191970" points="595.6103,-386.5944 590.1389,-377.5218 588.7583,-388.0263 595.6103,-386.5944"/>
</g>
<!-- Node65&#45;&gt;Node4 -->
<g id="edge124" class="edge">
<title>Node65&#45;&gt;Node4</title>
<path fill="none" stroke="#191970" d="M579.0899,-347.2977C574.7868,-339.0277 569.4242,-328.7215 564.8518,-319.9339"/>
<polygon fill="#191970" stroke="#191970" points="567.8443,-318.1024 560.1236,-310.8469 561.6346,-321.3335 567.8443,-318.1024"/>
</g>
<!-- Node66&#45;&gt;Node5 -->
<g id="edge127" class="edge">
<title>Node66&#45;&gt;Node5</title>
<path fill="none" stroke="#191970" d="M1400.1143,-556.6718C1551.7161,-553.4134 1904.9803,-542.8951 2200,-512 2317.2377,-499.7226 2724,-547.3788 2724,-429.5 2724,-429.5 2724,-429.5 2724,-178 2724,-124.0041 2672.929,-129.9384 2622,-112 2545.5328,-85.0664 2297.8504,-71.47 2209.0506,-67.3695"/>
<polygon fill="#191970" stroke="#191970" points="2209.1792,-63.8718 2199.0312,-66.9162 2208.8628,-70.8647 2209.1792,-63.8718"/>
</g>
<!-- Node66&#45;&gt;Node67 -->
<g id="edge128" class="edge">
<title>Node66&#45;&gt;Node67</title>
<path fill="none" stroke="#191970" d="M1325,-548.3906C1325,-539.8657 1325,-527.1392 1325,-516.4235"/>
<polygon fill="#191970" stroke="#191970" points="1328.5001,-516.2448 1325,-506.2449 1321.5001,-516.2449 1328.5001,-516.2448"/>
</g>
</g>
</svg>
