<?xml version="1.0" encoding="UTF-8" standalone="no"?>
<!DOCTYPE svg PUBLIC "-//W3C//DTD SVG 1.1//EN"
 "http://www.w3.org/Graphics/SVG/1.1/DTD/svg11.dtd">
<!-- Generated by graphviz version 2.40.1 (20161225.0304)
 -->
<!-- Title: VectorDynSize.cpp Pages: 1 -->
<svg width="718pt" height="196pt"
 viewBox="0.00 0.00 718.00 196.00" xmlns="http://www.w3.org/2000/svg" xmlns:xlink="http://www.w3.org/1999/xlink">
<g id="graph0" class="graph" transform="scale(1 1) rotate(0) translate(4 192)">
<title>VectorDynSize.cpp</title>
<!-- Node0 -->
<g id="node1" class="node">
<title>Node0</title>
<polygon fill="#bfbfbf" stroke="#000000" points="454.5,-168.5 454.5,-187.5 561.5,-187.5 561.5,-168.5 454.5,-168.5"/>
<text text-anchor="middle" x="508" y="-175.5" font-family="FreeSans.ttf" font-size="10.00" fill="#000000">VectorDynSize.cpp</text>
</g>
<!-- Node1 -->
<g id="node2" class="node">
<title>Node1</title>
<g id="a_node2"><a xlink:href="VectorDynSize_8h.html" target="_top" xlink:title="iDynTree/Core/VectorDynSize.h">
<polygon fill="none" stroke="#000000" points="263.5,-112.5 263.5,-131.5 430.5,-131.5 430.5,-112.5 263.5,-112.5"/>
<text text-anchor="middle" x="347" y="-119.5" font-family="FreeSans.ttf" font-size="10.00" fill="#000000">iDynTree/Core/VectorDynSize.h</text>
</a>
</g>
</g>
<!-- Node0&#45;&gt;Node1 -->
<g id="edge1" class="edge">
<title>Node0&#45;&gt;Node1</title>
<path fill="none" stroke="#191970" d="M480.3231,-168.3733C453.6672,-159.1016 413.1762,-145.0178 383.8116,-134.804"/>
<polygon fill="#191970" stroke="#191970" points="384.9105,-131.4807 374.3157,-131.5011 382.6109,-138.0921 384.9105,-131.4807"/>
</g>
<!-- Node3 -->
<g id="node4" class="node">
<title>Node3</title>
<polygon fill="none" stroke="#bfbfbf" points="0,-.5 0,-19.5 52,-19.5 52,-.5 0,-.5"/>
<text text-anchor="middle" x="26" y="-7.5" font-family="FreeSans.ttf" font-size="10.00" fill="#000000">cassert</text>
</g>
<!-- Node0&#45;&gt;Node3 -->
<g id="edge17" class="edge">
<title>Node0&#45;&gt;Node3</title>
<path fill="none" stroke="#191970" d="M454.2273,-173.1793C401.9475,-167.3578 320.8652,-155.2953 254,-132 174.1582,-104.1838 88.3958,-51.2677 48.6346,-25.2361"/>
<polygon fill="#191970" stroke="#191970" points="50.4778,-22.259 40.2049,-19.6669 46.6191,-28.0995 50.4778,-22.259"/>
</g>
<!-- Node13 -->
<g id="node14" class="node">
<title>Node13</title>
<g id="a_node14"><a xlink:href="Utils_8h.html" target="_top" xlink:title="iDynTree/Core/Utils.h">
<polygon fill="none" stroke="#000000" points="448.5,-112.5 448.5,-131.5 567.5,-131.5 567.5,-112.5 448.5,-112.5"/>
<text text-anchor="middle" x="508" y="-119.5" font-family="FreeSans.ttf" font-size="10.00" fill="#000000">iDynTree/Core/Utils.h</text>
</a>
</g>
</g>
<!-- Node0&#45;&gt;Node13 -->
<g id="edge13" class="edge">
<title>Node0&#45;&gt;Node13</title>
<path fill="none" stroke="#191970" d="M508,-168.2455C508,-160.9382 508,-150.6944 508,-141.7046"/>
<polygon fill="#191970" stroke="#191970" points="511.5001,-141.6426 508,-131.6427 504.5001,-141.6427 511.5001,-141.6426"/>
</g>
<!-- Node15 -->
<g id="node16" class="node">
<title>Node15</title>
<polygon fill="none" stroke="#bfbfbf" points="586,-112.5 586,-131.5 642,-131.5 642,-112.5 586,-112.5"/>
<text text-anchor="middle" x="614" y="-119.5" font-family="FreeSans.ttf" font-size="10.00" fill="#000000">sstream</text>
</g>
<!-- Node0&#45;&gt;Node15 -->
<g id="edge16" class="edge">
<title>Node0&#45;&gt;Node15</title>
<path fill="none" stroke="#191970" d="M526.4638,-168.2455C543.1074,-159.4527 567.7993,-146.4079 586.7192,-136.4125"/>
<polygon fill="#191970" stroke="#191970" points="588.5408,-139.4086 595.7478,-131.6427 585.2709,-133.2193 588.5408,-139.4086"/>
</g>
<!-- Node16 -->
<g id="node17" class="node">
<title>Node16</title>
<polygon fill="none" stroke="#bfbfbf" points="660,-112.5 660,-131.5 710,-131.5 710,-112.5 660,-112.5"/>
<text text-anchor="middle" x="685" y="-119.5" font-family="FreeSans.ttf" font-size="10.00" fill="#000000">cstring</text>
</g>
<!-- Node0&#45;&gt;Node16 -->
<g id="edge18" class="edge">
<title>Node0&#45;&gt;Node16</title>
<path fill="none" stroke="#191970" d="M538.4274,-168.3733C569.51,-158.5392 617.7036,-143.2915 650.2637,-132.99"/>
<polygon fill="#191970" stroke="#191970" points="651.352,-136.3168 659.8304,-129.9633 649.2404,-129.6428 651.352,-136.3168"/>
</g>
<!-- Node2 -->
<g id="node3" class="node">
<title>Node2</title>
<g id="a_node3"><a xlink:href="Span_8h.html" target="_top" xlink:title="iDynTree/Core/Span.h">
<polygon fill="none" stroke="#000000" points="236.5,-56.5 236.5,-75.5 357.5,-75.5 357.5,-56.5 236.5,-56.5"/>
<text text-anchor="middle" x="297" y="-63.5" font-family="FreeSans.ttf" font-size="10.00" fill="#000000">iDynTree/Core/Span.h</text>
</a>
</g>
</g>
<!-- Node1&#45;&gt;Node2 -->
<g id="edge2" class="edge">
<title>Node1&#45;&gt;Node2</title>
<path fill="none" stroke="#191970" d="M338.2907,-112.2455C331.1927,-104.2958 320.9916,-92.8706 312.505,-83.3656"/>
<polygon fill="#191970" stroke="#191970" points="314.8805,-80.771 305.6095,-75.6427 309.6589,-85.4331 314.8805,-80.771"/>
</g>
<!-- Node12 -->
<g id="node13" class="node">
<title>Node12</title>
<polygon fill="none" stroke="#bfbfbf" points="376,-56.5 376,-75.5 420,-75.5 420,-56.5 376,-56.5"/>
<text text-anchor="middle" x="398" y="-63.5" font-family="FreeSans.ttf" font-size="10.00" fill="#000000">string</text>
</g>
<!-- Node1&#45;&gt;Node12 -->
<g id="edge12" class="edge">
<title>Node1&#45;&gt;Node12</title>
<path fill="none" stroke="#191970" d="M355.8835,-112.2455C363.1966,-104.2155 373.7391,-92.6394 382.4467,-83.0781"/>
<polygon fill="#191970" stroke="#191970" points="385.0727,-85.3928 389.2183,-75.6427 379.8972,-80.6795 385.0727,-85.3928"/>
</g>
<!-- Node2&#45;&gt;Node3 -->
<g id="edge3" class="edge">
<title>Node2&#45;&gt;Node3</title>
<path fill="none" stroke="#191970" d="M240.9188,-56.4675C195.1676,-48.3733 128.6809,-35.8909 62.1268,-20.128"/>
<polygon fill="#191970" stroke="#191970" points="62.8493,-16.7022 52.3093,-17.7787 61.2201,-23.51 62.8493,-16.7022"/>
</g>
<!-- Node4 -->
<g id="node5" class="node">
<title>Node4</title>
<polygon fill="none" stroke="#bfbfbf" points="498,-.5 498,-19.5 562,-19.5 562,-.5 498,-.5"/>
<text text-anchor="middle" x="530" y="-7.5" font-family="FreeSans.ttf" font-size="10.00" fill="#000000">algorithm</text>
</g>
<!-- Node2&#45;&gt;Node4 -->
<g id="edge4" class="edge">
<title>Node2&#45;&gt;Node4</title>
<path fill="none" stroke="#191970" d="M336.7894,-56.4369C378.9046,-46.3148 445.0966,-30.406 488.0234,-20.0888"/>
<polygon fill="#191970" stroke="#191970" points="488.9695,-23.4612 497.8746,-17.7211 487.3336,-16.655 488.9695,-23.4612"/>
</g>
<!-- Node5 -->
<g id="node6" class="node">
<title>Node5</title>
<polygon fill="none" stroke="#bfbfbf" points="70,-.5 70,-19.5 112,-19.5 112,-.5 70,-.5"/>
<text text-anchor="middle" x="91" y="-7.5" font-family="FreeSans.ttf" font-size="10.00" fill="#000000">array</text>
</g>
<!-- Node2&#45;&gt;Node5 -->
<g id="edge5" class="edge">
<title>Node2&#45;&gt;Node5</title>
<path fill="none" stroke="#191970" d="M257.2992,-56.42C223.5896,-48.1081 173.7399,-35.4008 121.9414,-20.1526"/>
<polygon fill="#191970" stroke="#191970" points="122.8328,-16.7663 112.2503,-17.2763 120.8411,-23.477 122.8328,-16.7663"/>
</g>
<!-- Node6 -->
<g id="node7" class="node">
<title>Node6</title>
<polygon fill="none" stroke="#bfbfbf" points="580.5,-.5 580.5,-19.5 633.5,-19.5 633.5,-.5 580.5,-.5"/>
<text text-anchor="middle" x="607" y="-7.5" font-family="FreeSans.ttf" font-size="10.00" fill="#000000">cstddef</text>
</g>
<!-- Node2&#45;&gt;Node6 -->
<g id="edge6" class="edge">
<title>Node2&#45;&gt;Node6</title>
<path fill="none" stroke="#191970" d="M357.5474,-56.5934C421.2444,-46.5715 518.2993,-30.9141 570.5189,-19.8815"/>
<polygon fill="#191970" stroke="#191970" points="571.317,-23.2898 580.3418,-17.7397 569.8257,-16.4504 571.317,-23.2898"/>
</g>
<!-- Node7 -->
<g id="node8" class="node">
<title>Node7</title>
<polygon fill="none" stroke="#bfbfbf" points="130.5,-.5 130.5,-19.5 183.5,-19.5 183.5,-.5 130.5,-.5"/>
<text text-anchor="middle" x="157" y="-7.5" font-family="FreeSans.ttf" font-size="10.00" fill="#000000">iterator</text>
</g>
<!-- Node2&#45;&gt;Node7 -->
<g id="edge7" class="edge">
<title>Node2&#45;&gt;Node7</title>
<path fill="none" stroke="#191970" d="M272.9331,-56.3733C250.1572,-47.2629 215.7656,-33.5062 190.351,-23.3404"/>
<polygon fill="#191970" stroke="#191970" points="191.3375,-19.9654 180.7528,-19.5011 188.7377,-26.4648 191.3375,-19.9654"/>
</g>
<!-- Node8 -->
<g id="node9" class="node">
<title>Node8</title>
<polygon fill="none" stroke="#bfbfbf" points="202,-.5 202,-19.5 246,-19.5 246,-.5 202,-.5"/>
<text text-anchor="middle" x="224" y="-7.5" font-family="FreeSans.ttf" font-size="10.00" fill="#000000">limits</text>
</g>
<!-- Node2&#45;&gt;Node8 -->
<g id="edge8" class="edge">
<title>Node2&#45;&gt;Node8</title>
<path fill="none" stroke="#191970" d="M284.2844,-56.2455C273.398,-47.8943 257.5117,-35.7076 244.78,-25.9408"/>
<polygon fill="#191970" stroke="#191970" points="246.6346,-22.9523 236.5699,-19.6427 242.3739,-28.5063 246.6346,-22.9523"/>
</g>
<!-- Node9 -->
<g id="node10" class="node">
<title>Node9</title>
<polygon fill="none" stroke="#bfbfbf" points="264.5,-.5 264.5,-19.5 329.5,-19.5 329.5,-.5 264.5,-.5"/>
<text text-anchor="middle" x="297" y="-7.5" font-family="FreeSans.ttf" font-size="10.00" fill="#000000">stdexcept</text>
</g>
<!-- Node2&#45;&gt;Node9 -->
<g id="edge9" class="edge">
<title>Node2&#45;&gt;Node9</title>
<path fill="none" stroke="#191970" d="M297,-56.2455C297,-48.9382 297,-38.6944 297,-29.7046"/>
<polygon fill="#191970" stroke="#191970" points="300.5001,-29.6426 297,-19.6427 293.5001,-29.6427 300.5001,-29.6426"/>
</g>
<!-- Node10 -->
<g id="node11" class="node">
<title>Node10</title>
<polygon fill="none" stroke="#bfbfbf" points="347.5,-.5 347.5,-19.5 416.5,-19.5 416.5,-.5 347.5,-.5"/>
<text text-anchor="middle" x="382" y="-7.5" font-family="FreeSans.ttf" font-size="10.00" fill="#000000">type_traits</text>
</g>
<!-- Node2&#45;&gt;Node10 -->
<g id="edge10" class="edge">
<title>Node2&#45;&gt;Node10</title>
<path fill="none" stroke="#191970" d="M311.8059,-56.2455C324.7256,-47.7337 343.6931,-35.2375 358.6552,-25.3801"/>
<polygon fill="#191970" stroke="#191970" points="360.9387,-28.067 367.3638,-19.6427 357.0876,-22.2216 360.9387,-28.067"/>
</g>
<!-- Node11 -->
<g id="node12" class="node">
<title>Node11</title>
<polygon fill="none" stroke="#bfbfbf" points="434.5,-.5 434.5,-19.5 479.5,-19.5 479.5,-.5 434.5,-.5"/>
<text text-anchor="middle" x="457" y="-7.5" font-family="FreeSans.ttf" font-size="10.00" fill="#000000">utility</text>
</g>
<!-- Node2&#45;&gt;Node11 -->
<g id="edge11" class="edge">
<title>Node2&#45;&gt;Node11</title>
<path fill="none" stroke="#191970" d="M324.505,-56.3733C352.3188,-46.6384 395.2899,-31.5985 424.7051,-21.3032"/>
<polygon fill="#191970" stroke="#191970" points="426.2148,-24.4831 434.4972,-17.876 423.9023,-17.8761 426.2148,-24.4831"/>
</g>
<!-- Node13&#45;&gt;Node6 -->
<g id="edge14" class="edge">
<title>Node13&#45;&gt;Node6</title>
<path fill="none" stroke="#191970" d="M519.414,-112.2734C529.6908,-103.2912 544.9816,-89.3582 557,-76 570.749,-60.7182 584.7392,-41.9153 594.411,-28.2933"/>
<polygon fill="#191970" stroke="#191970" points="597.4913,-29.9962 600.3609,-19.7974 591.7576,-25.9807 597.4913,-29.9962"/>
</g>
<!-- Node14 -->
<g id="node15" class="node">
<title>Node14</title>
<polygon fill="none" stroke="#bfbfbf" points="468,-56.5 468,-75.5 548,-75.5 548,-56.5 468,-56.5"/>
<text text-anchor="middle" x="508" y="-63.5" font-family="FreeSans.ttf" font-size="10.00" fill="#000000">CoreExport.h</text>
</g>
<!-- Node13&#45;&gt;Node14 -->
<g id="edge15" class="edge">
<title>Node13&#45;&gt;Node14</title>
<path fill="none" stroke="#191970" d="M508,-112.2455C508,-104.9382 508,-94.6944 508,-85.7046"/>
<polygon fill="#191970" stroke="#191970" points="511.5001,-85.6426 508,-75.6427 504.5001,-85.6427 511.5001,-85.6426"/>
</g>
</g>
</svg>
