<?xml version="1.0" encoding="UTF-8" standalone="no"?>
<!DOCTYPE svg PUBLIC "-//W3C//DTD SVG 1.1//EN"
 "http://www.w3.org/Graphics/SVG/1.1/DTD/svg11.dtd">
<!-- Generated by graphviz version 2.40.1 (20161225.0304)
 -->
<!-- Title: WorhpInterface.cpp Pages: 1 -->
<svg width="1911pt" height="610pt"
 viewBox="0.00 0.00 1910.50 610.00" xmlns="http://www.w3.org/2000/svg" xmlns:xlink="http://www.w3.org/1999/xlink">
<g id="graph0" class="graph" transform="scale(1 1) rotate(0) translate(4 606)">
<title>WorhpInterface.cpp</title>
<!-- Node0 -->
<g id="node1" class="node">
<title>Node0</title>
<polygon fill="#bfbfbf" stroke="#000000" points="1580.5,-582.5 1580.5,-601.5 1691.5,-601.5 1691.5,-582.5 1580.5,-582.5"/>
<text text-anchor="middle" x="1636" y="-589.5" font-family="FreeSans.ttf" font-size="10.00" fill="#000000">WorhpInterface.cpp</text>
</g>
<!-- Node1 -->
<g id="node2" class="node">
<title>Node1</title>
<g id="a_node2"><a xlink:href="WorhpInterface_8h.html" target="_top" xlink:title="iDynTree/Optimizers\l/WorhpInterface.h">
<polygon fill="none" stroke="#000000" points="202,-280.5 202,-310.5 318,-310.5 318,-280.5 202,-280.5"/>
<text text-anchor="start" x="210" y="-298.5" font-family="FreeSans.ttf" font-size="10.00" fill="#000000">iDynTree/Optimizers</text>
<text text-anchor="middle" x="260" y="-287.5" font-family="FreeSans.ttf" font-size="10.00" fill="#000000">/WorhpInterface.h</text>
</a>
</g>
</g>
<!-- Node0&#45;&gt;Node1 -->
<g id="edge1" class="edge">
<title>Node0&#45;&gt;Node1</title>
<path fill="none" stroke="#191970" d="M1580.3921,-591.2525C1351.7957,-588.0009 494.126,-573.9774 444,-546 410.5788,-527.3463 396,-512.7745 396,-474.5 396,-474.5 396,-474.5 396,-413 396,-365.9142 348.7447,-333.5118 309.9444,-314.8428"/>
<polygon fill="#191970" stroke="#191970" points="311.3501,-311.6368 300.8045,-310.6172 308.4125,-317.9906 311.3501,-311.6368"/>
</g>
<!-- Node8 -->
<g id="node9" class="node">
<title>Node8</title>
<g id="a_node9"><a xlink:href="Utils_8h.html" target="_top" xlink:title="iDynTree/Core/Utils.h">
<polygon fill="none" stroke="#000000" points="1121.5,-56.5 1121.5,-75.5 1240.5,-75.5 1240.5,-56.5 1121.5,-56.5"/>
<text text-anchor="middle" x="1181" y="-63.5" font-family="FreeSans.ttf" font-size="10.00" fill="#000000">iDynTree/Core/Utils.h</text>
</a>
</g>
</g>
<!-- Node0&#45;&gt;Node8 -->
<g id="edge10" class="edge">
<title>Node0&#45;&gt;Node8</title>
<path fill="none" stroke="#191970" d="M1636,-582.2511C1636,-562.1182 1636,-514.4826 1636,-474.5 1636,-474.5 1636,-474.5 1636,-178 1636,-99.685 1378.6318,-75.8182 1251.0252,-68.7978"/>
<polygon fill="#191970" stroke="#191970" points="1251.1225,-65.2981 1240.9512,-68.2638 1250.7518,-72.2883 1251.1225,-65.2981"/>
</g>
<!-- Node10 -->
<g id="node11" class="node">
<title>Node10</title>
<g id="a_node11"><a xlink:href="EigenHelpers_8h.html" target="_top" xlink:title="iDynTree/Core/EigenHelpers.h">
<polygon fill="none" stroke="#000000" points="1196.5,-526.5 1196.5,-545.5 1357.5,-545.5 1357.5,-526.5 1196.5,-526.5"/>
<text text-anchor="middle" x="1277" y="-533.5" font-family="FreeSans.ttf" font-size="10.00" fill="#000000">iDynTree/Core/EigenHelpers.h</text>
</a>
</g>
</g>
<!-- Node0&#45;&gt;Node10 -->
<g id="edge13" class="edge">
<title>Node0&#45;&gt;Node10</title>
<path fill="none" stroke="#191970" d="M1580.3001,-583.3114C1517.8257,-573.5661 1416.3409,-557.7356 1348.1657,-547.1011"/>
<polygon fill="#191970" stroke="#191970" points="1348.3595,-543.589 1337.9396,-545.5059 1347.2806,-550.5054 1348.3595,-543.589"/>
</g>
<!-- Node15 -->
<g id="node16" class="node">
<title>Node15</title>
<polygon fill="none" stroke="#bfbfbf" points="1465,-.5 1465,-19.5 1529,-19.5 1529,-.5 1465,-.5"/>
<text text-anchor="middle" x="1497" y="-7.5" font-family="FreeSans.ttf" font-size="10.00" fill="#000000">algorithm</text>
</g>
<!-- Node0&#45;&gt;Node15 -->
<g id="edge87" class="edge">
<title>Node0&#45;&gt;Node15</title>
<path fill="none" stroke="#191970" d="M1641.4445,-582.2863C1651.9518,-562.599 1674,-516.3072 1674,-474.5 1674,-474.5 1674,-474.5 1674,-122 1674,-58.4192 1591.4355,-29.4434 1539.0868,-17.4617"/>
<polygon fill="#191970" stroke="#191970" points="1539.5679,-13.9847 1529.0534,-15.2867 1538.0849,-20.8258 1539.5679,-13.9847"/>
</g>
<!-- Node38 -->
<g id="node39" class="node">
<title>Node38</title>
<g id="a_node39"><a xlink:href="Triplets_8h.html" target="_top" xlink:title="iDynTree/Core/Triplets.h">
<polygon fill="none" stroke="#000000" points="251,-168.5 251,-187.5 383,-187.5 383,-168.5 251,-168.5"/>
<text text-anchor="middle" x="317" y="-175.5" font-family="FreeSans.ttf" font-size="10.00" fill="#000000">iDynTree/Core/Triplets.h</text>
</a>
</g>
</g>
<!-- Node0&#45;&gt;Node38 -->
<g id="edge81" class="edge">
<title>Node0&#45;&gt;Node38</title>
<path fill="none" stroke="#191970" d="M1580.3695,-589.408C1346.868,-578.1684 458,-531.6306 458,-474.5 458,-474.5 458,-474.5 458,-295.5 458,-242.1406 397.6689,-208.3128 355.935,-191.2957"/>
<polygon fill="#191970" stroke="#191970" points="357.146,-188.0112 346.5582,-187.6239 354.5935,-194.5293 357.146,-188.0112"/>
</g>
<!-- Node39 -->
<g id="node40" class="node">
<title>Node39</title>
<polygon fill="none" stroke="#bfbfbf" points="1702.5,-526.5 1702.5,-545.5 1791.5,-545.5 1791.5,-526.5 1702.5,-526.5"/>
<text text-anchor="middle" x="1747" y="-533.5" font-family="FreeSans.ttf" font-size="10.00" fill="#000000">worhp/worhp.h</text>
</g>
<!-- Node0&#45;&gt;Node39 -->
<g id="edge86" class="edge">
<title>Node0&#45;&gt;Node39</title>
<path fill="none" stroke="#191970" d="M1655.0816,-582.3733C1672.7402,-573.4644 1699.2053,-560.1127 1719.2098,-550.0203"/>
<polygon fill="#191970" stroke="#191970" points="1720.8158,-553.1303 1728.1674,-545.5011 1717.6628,-546.8806 1720.8158,-553.1303"/>
</g>
<!-- Node40 -->
<g id="node41" class="node">
<title>Node40</title>
<polygon fill="none" stroke="#bfbfbf" points="1809.5,-526.5 1809.5,-545.5 1902.5,-545.5 1902.5,-526.5 1809.5,-526.5"/>
<text text-anchor="middle" x="1856" y="-533.5" font-family="FreeSans.ttf" font-size="10.00" fill="#000000">unordered_map</text>
</g>
<!-- Node0&#45;&gt;Node40 -->
<g id="edge88" class="edge">
<title>Node0&#45;&gt;Node40</title>
<path fill="none" stroke="#191970" d="M1673.8193,-582.3733C1711.1938,-572.8598 1768.4724,-558.2797 1808.8071,-548.0127"/>
<polygon fill="#191970" stroke="#191970" points="1809.8466,-551.3598 1818.6742,-545.5011 1808.1198,-544.5761 1809.8466,-551.3598"/>
</g>
<!-- Node2 -->
<g id="node3" class="node">
<title>Node2</title>
<g id="a_node3"><a xlink:href="Optimizer_8h.html" target="_top" xlink:title="iDynTree/Optimizer.h">
<polygon fill="none" stroke="#000000" points="85.5,-224.5 85.5,-243.5 204.5,-243.5 204.5,-224.5 85.5,-224.5"/>
<text text-anchor="middle" x="145" y="-231.5" font-family="FreeSans.ttf" font-size="10.00" fill="#000000">iDynTree/Optimizer.h</text>
</a>
</g>
</g>
<!-- Node1&#45;&gt;Node2 -->
<g id="edge2" class="edge">
<title>Node1&#45;&gt;Node2</title>
<path fill="none" stroke="#191970" d="M231.8678,-280.4554C213.5214,-270.644 189.7223,-257.9167 171.6749,-248.2653"/>
<polygon fill="#191970" stroke="#191970" points="173.2897,-245.1598 162.8209,-243.5303 169.9886,-251.3326 173.2897,-245.1598"/>
</g>
<!-- Node3 -->
<g id="node4" class="node">
<title>Node3</title>
<polygon fill="none" stroke="#bfbfbf" points="0,-112.5 0,-131.5 58,-131.5 58,-112.5 0,-112.5"/>
<text text-anchor="middle" x="29" y="-119.5" font-family="FreeSans.ttf" font-size="10.00" fill="#000000">memory</text>
</g>
<!-- Node1&#45;&gt;Node3 -->
<g id="edge8" class="edge">
<title>Node1&#45;&gt;Node3</title>
<path fill="none" stroke="#191970" d="M201.9996,-289.098C163.5645,-282.6091 113.5054,-269.6644 76,-244 50.3247,-226.4307 44.9467,-217.1216 34,-188 28.4405,-173.21 27.4107,-155.2676 27.6485,-141.8259"/>
<polygon fill="#191970" stroke="#191970" points="31.1484,-141.9006 28.0749,-131.7614 24.1547,-141.6043 31.1484,-141.9006"/>
</g>
<!-- Node7 -->
<g id="node8" class="node">
<title>Node7</title>
<polygon fill="none" stroke="#bfbfbf" points="688,-112.5 688,-131.5 732,-131.5 732,-112.5 688,-112.5"/>
<text text-anchor="middle" x="710" y="-119.5" font-family="FreeSans.ttf" font-size="10.00" fill="#000000">string</text>
</g>
<!-- Node1&#45;&gt;Node7 -->
<g id="edge9" class="edge">
<title>Node1&#45;&gt;Node7</title>
<path fill="none" stroke="#191970" d="M311.2847,-280.4266C374.6209,-261.2845 485.2325,-226.1288 577,-188 597.3655,-179.5383 649.9247,-152.9024 682.543,-136.1677"/>
<polygon fill="#191970" stroke="#191970" points="684.2754,-139.2127 691.5695,-131.5284 681.0755,-132.9868 684.2754,-139.2127"/>
</g>
<!-- Node2&#45;&gt;Node3 -->
<g id="edge3" class="edge">
<title>Node2&#45;&gt;Node3</title>
<path fill="none" stroke="#191970" d="M107.6046,-224.4732C87.3159,-217.5026 63.3236,-206.0407 48,-188 37.0364,-175.0924 32.3898,-156.1916 30.4254,-141.9209"/>
<polygon fill="#191970" stroke="#191970" points="33.8749,-141.2543 29.3557,-131.6717 26.9128,-141.9811 33.8749,-141.2543"/>
</g>
<!-- Node4 -->
<g id="node5" class="node">
<title>Node4</title>
<g id="a_node5"><a xlink:href="OptimizationProblem_8h.html" target="_top" xlink:title="iDynTree/OptimizationProblem.h">
<polygon fill="none" stroke="#000000" points="57.5,-168.5 57.5,-187.5 232.5,-187.5 232.5,-168.5 57.5,-168.5"/>
<text text-anchor="middle" x="145" y="-175.5" font-family="FreeSans.ttf" font-size="10.00" fill="#000000">iDynTree/OptimizationProblem.h</text>
</a>
</g>
</g>
<!-- Node2&#45;&gt;Node4 -->
<g id="edge4" class="edge">
<title>Node2&#45;&gt;Node4</title>
<path fill="none" stroke="#191970" d="M145,-224.2455C145,-216.9382 145,-206.6944 145,-197.7046"/>
<polygon fill="#191970" stroke="#191970" points="148.5001,-197.6426 145,-187.6427 141.5001,-197.6427 148.5001,-197.6426"/>
</g>
<!-- Node4&#45;&gt;Node3 -->
<g id="edge6" class="edge">
<title>Node4&#45;&gt;Node3</title>
<path fill="none" stroke="#191970" d="M125.0589,-168.3733C106.5214,-159.4241 78.6972,-145.9917 57.7587,-135.8835"/>
<polygon fill="#191970" stroke="#191970" points="59.2081,-132.6967 48.6809,-131.5011 56.1648,-139.0006 59.2081,-132.6967"/>
</g>
<!-- Node5 -->
<g id="node6" class="node">
<title>Node5</title>
<polygon fill="none" stroke="#bfbfbf" points="472.5,-112.5 472.5,-131.5 519.5,-131.5 519.5,-112.5 472.5,-112.5"/>
<text text-anchor="middle" x="496" y="-119.5" font-family="FreeSans.ttf" font-size="10.00" fill="#000000">vector</text>
</g>
<!-- Node4&#45;&gt;Node5 -->
<g id="edge5" class="edge">
<title>Node4&#45;&gt;Node5</title>
<path fill="none" stroke="#191970" d="M227.1548,-168.4677C290.5419,-160.5007 380.2425,-147.8936 458,-132 459.462,-131.7012 460.9517,-131.3804 462.4535,-131.0436"/>
<polygon fill="#191970" stroke="#191970" points="463.4776,-134.3971 472.3791,-128.6514 461.8374,-127.5919 463.4776,-134.3971"/>
</g>
<!-- Node6 -->
<g id="node7" class="node">
<title>Node6</title>
<polygon fill="none" stroke="#bfbfbf" points="948.5,-.5 948.5,-19.5 1001.5,-19.5 1001.5,-.5 948.5,-.5"/>
<text text-anchor="middle" x="975" y="-7.5" font-family="FreeSans.ttf" font-size="10.00" fill="#000000">cstddef</text>
</g>
<!-- Node4&#45;&gt;Node6 -->
<g id="edge7" class="edge">
<title>Node4&#45;&gt;Node6</title>
<path fill="none" stroke="#191970" d="M184.0346,-168.4465C243.9106,-154.1284 362.1941,-127.1695 464,-112 636.6072,-86.2809 688.1444,-127.1264 855,-76 891.9273,-64.6851 930.3064,-41.1565 953.4273,-25.4695"/>
<polygon fill="#191970" stroke="#191970" points="955.5571,-28.2521 961.789,-19.684 951.5741,-22.4957 955.5571,-28.2521"/>
</g>
<!-- Node8&#45;&gt;Node6 -->
<g id="edge11" class="edge">
<title>Node8&#45;&gt;Node6</title>
<path fill="none" stroke="#191970" d="M1145.491,-56.4658C1113.1018,-47.7527 1063.6624,-34.4121 1011.4991,-20.1245"/>
<polygon fill="#191970" stroke="#191970" points="1012.3004,-16.7151 1001.7308,-17.4466 1010.4496,-23.4661 1012.3004,-16.7151"/>
</g>
<!-- Node9 -->
<g id="node10" class="node">
<title>Node9</title>
<polygon fill="none" stroke="#bfbfbf" points="1141,-.5 1141,-19.5 1221,-19.5 1221,-.5 1141,-.5"/>
<text text-anchor="middle" x="1181" y="-7.5" font-family="FreeSans.ttf" font-size="10.00" fill="#000000">CoreExport.h</text>
</g>
<!-- Node8&#45;&gt;Node9 -->
<g id="edge12" class="edge">
<title>Node8&#45;&gt;Node9</title>
<path fill="none" stroke="#191970" d="M1181,-56.2455C1181,-48.9382 1181,-38.6944 1181,-29.7046"/>
<polygon fill="#191970" stroke="#191970" points="1184.5001,-29.6426 1181,-19.6427 1177.5001,-29.6427 1184.5001,-29.6426"/>
</g>
<!-- Node10&#45;&gt;Node8 -->
<g id="edge80" class="edge">
<title>Node10&#45;&gt;Node8</title>
<path fill="none" stroke="#191970" d="M1357.7969,-529.0948C1442.3017,-521.0362 1564.678,-506.6687 1579,-490 1587.9789,-479.5498 1581.8343,-472.4831 1579,-459 1544.1399,-293.1675 1557.5075,-212.406 1421,-112 1394.4131,-92.4444 1311.4921,-79.6678 1250.5337,-72.6535"/>
<polygon fill="#191970" stroke="#191970" points="1250.8987,-69.1726 1240.5707,-71.5355 1250.118,-76.129 1250.8987,-69.1726"/>
</g>
<!-- Node11 -->
<g id="node12" class="node">
<title>Node11</title>
<polygon fill="none" stroke="#bfbfbf" points="1492.5,-465 1492.5,-484 1569.5,-484 1569.5,-465 1492.5,-465"/>
<text text-anchor="middle" x="1531" y="-472" font-family="FreeSans.ttf" font-size="10.00" fill="#000000">Eigen/Dense</text>
</g>
<!-- Node10&#45;&gt;Node11 -->
<g id="edge14" class="edge">
<title>Node10&#45;&gt;Node11</title>
<path fill="none" stroke="#191970" d="M1322.2905,-526.4419C1363.1514,-517.6273 1424.8235,-503.8476 1478,-490 1481.8052,-489.0091 1485.7515,-487.9378 1489.6962,-486.8374"/>
<polygon fill="#191970" stroke="#191970" points="1490.7565,-490.1747 1499.4165,-484.0711 1488.8403,-483.4421 1490.7565,-490.1747"/>
</g>
<!-- Node12 -->
<g id="node13" class="node">
<title>Node12</title>
<g id="a_node13"><a xlink:href="VectorDynSize_8h.html" target="_top" xlink:title="iDynTree/Core/VectorDynSize.h">
<polygon fill="none" stroke="#000000" points="401.5,-168.5 401.5,-187.5 568.5,-187.5 568.5,-168.5 401.5,-168.5"/>
<text text-anchor="middle" x="485" y="-175.5" font-family="FreeSans.ttf" font-size="10.00" fill="#000000">iDynTree/Core/VectorDynSize.h</text>
</a>
</g>
</g>
<!-- Node10&#45;&gt;Node12 -->
<g id="edge15" class="edge">
<title>Node10&#45;&gt;Node12</title>
<path fill="none" stroke="#191970" d="M1196.2645,-535.0931C1045.4457,-532.6158 726.7165,-523.4664 622,-490 559.486,-470.0211 496,-478.629 496,-413 496,-413 496,-413 496,-295.5 496,-260.9897 491.238,-221.0252 487.9804,-197.7236"/>
<polygon fill="#191970" stroke="#191970" points="491.4287,-197.1142 486.5295,-187.7201 484.5012,-198.119 491.4287,-197.1142"/>
</g>
<!-- Node22 -->
<g id="node23" class="node">
<title>Node22</title>
<g id="a_node23"><a xlink:href="VectorFixSize_8h.html" target="_top" xlink:title="iDynTree/Core/VectorFixSize.h">
<polygon fill="none" stroke="#000000" points="1177.5,-168.5 1177.5,-187.5 1338.5,-187.5 1338.5,-168.5 1177.5,-168.5"/>
<text text-anchor="middle" x="1258" y="-175.5" font-family="FreeSans.ttf" font-size="10.00" fill="#000000">iDynTree/Core/VectorFixSize.h</text>
</a>
</g>
</g>
<!-- Node10&#45;&gt;Node22 -->
<g id="edge27" class="edge">
<title>Node10&#45;&gt;Node22</title>
<path fill="none" stroke="#191970" d="M1209.7247,-526.4206C1167.5875,-518.8872 1118.9051,-506.8354 1106,-490 1032.963,-394.7192 1073.2708,-313.7557 1153,-224 1166.9073,-208.3437 1187.1211,-197.7864 1206.1075,-190.7814"/>
<polygon fill="#191970" stroke="#191970" points="1207.2667,-194.084 1215.5893,-187.5276 1204.9946,-187.463 1207.2667,-194.084"/>
</g>
<!-- Node25 -->
<g id="node26" class="node">
<title>Node25</title>
<g id="a_node26"><a xlink:href="MatrixDynSize_8h.html" target="_top" xlink:title="iDynTree/Core/MatrixDynSize.h">
<polygon fill="none" stroke="#000000" points="775.5,-168.5 775.5,-187.5 942.5,-187.5 942.5,-168.5 775.5,-168.5"/>
<text text-anchor="middle" x="859" y="-175.5" font-family="FreeSans.ttf" font-size="10.00" fill="#000000">iDynTree/Core/MatrixDynSize.h</text>
</a>
</g>
</g>
<!-- Node10&#45;&gt;Node25 -->
<g id="edge34" class="edge">
<title>Node10&#45;&gt;Node25</title>
<path fill="none" stroke="#191970" d="M1196.4261,-531.0193C1004.0792,-518.054 534,-479.5592 534,-413 534,-413 534,-413 534,-295.5 534,-242.1885 690.6144,-206.2708 786.405,-189.2882"/>
<polygon fill="#191970" stroke="#191970" points="787.0866,-192.7222 796.3367,-187.5564 785.8841,-185.8263 787.0866,-192.7222"/>
</g>
<!-- Node27 -->
<g id="node28" class="node">
<title>Node27</title>
<g id="a_node28"><a xlink:href="MatrixFixSize_8h.html" target="_top" xlink:title="iDynTree/Core/MatrixFixSize.h">
<polygon fill="none" stroke="#000000" points="998.5,-168.5 998.5,-187.5 1159.5,-187.5 1159.5,-168.5 998.5,-168.5"/>
<text text-anchor="middle" x="1079" y="-175.5" font-family="FreeSans.ttf" font-size="10.00" fill="#000000">iDynTree/Core/MatrixFixSize.h</text>
</a>
</g>
</g>
<!-- Node10&#45;&gt;Node27 -->
<g id="edge41" class="edge">
<title>Node10&#45;&gt;Node27</title>
<path fill="none" stroke="#191970" d="M1342.2097,-526.4278C1383.8179,-518.8343 1432.2512,-506.7087 1445,-490 1474.9345,-450.7674 1530.1779,-368.5719 1351,-224 1336.7828,-212.5287 1242.8964,-198.3916 1169.3551,-188.8408"/>
<polygon fill="#191970" stroke="#191970" points="1169.4884,-185.3292 1159.1235,-187.5244 1168.5951,-192.272 1169.4884,-185.3292"/>
</g>
<!-- Node29 -->
<g id="node30" class="node">
<title>Node29</title>
<g id="a_node30"><a xlink:href="SpatialMotionVector_8h.html" target="_top" xlink:title="iDynTree/Core/SpatialMotion\lVector.h">
<polygon fill="none" stroke="#000000" points="1114.5,-459.5 1114.5,-489.5 1269.5,-489.5 1269.5,-459.5 1114.5,-459.5"/>
<text text-anchor="start" x="1122.5" y="-477.5" font-family="FreeSans.ttf" font-size="10.00" fill="#000000">iDynTree/Core/SpatialMotion</text>
<text text-anchor="middle" x="1192" y="-466.5" font-family="FreeSans.ttf" font-size="10.00" fill="#000000">Vector.h</text>
</a>
</g>
</g>
<!-- Node10&#45;&gt;Node29 -->
<g id="edge49" class="edge">
<title>Node10&#45;&gt;Node29</title>
<path fill="none" stroke="#191970" d="M1263.7188,-526.3906C1252.3216,-518.1444 1235.4908,-505.9669 1220.9977,-495.4807"/>
<polygon fill="#191970" stroke="#191970" points="1222.9468,-492.5709 1212.7933,-489.5446 1218.8435,-498.2421 1222.9468,-492.5709"/>
</g>
<!-- Node36 -->
<g id="node37" class="node">
<title>Node36</title>
<g id="a_node37"><a xlink:href="SpatialForceVector_8h.html" target="_top" xlink:title="iDynTree/Core/SpatialForce\lVector.h">
<polygon fill="none" stroke="#000000" points="1288,-459.5 1288,-489.5 1436,-489.5 1436,-459.5 1288,-459.5"/>
<text text-anchor="start" x="1296" y="-477.5" font-family="FreeSans.ttf" font-size="10.00" fill="#000000">iDynTree/Core/SpatialForce</text>
<text text-anchor="middle" x="1362" y="-466.5" font-family="FreeSans.ttf" font-size="10.00" fill="#000000">Vector.h</text>
</a>
</g>
</g>
<!-- Node10&#45;&gt;Node36 -->
<g id="edge71" class="edge">
<title>Node10&#45;&gt;Node36</title>
<path fill="none" stroke="#191970" d="M1290.2813,-526.3906C1301.6784,-518.1444 1318.5092,-505.9669 1333.0023,-495.4807"/>
<polygon fill="#191970" stroke="#191970" points="1335.1565,-498.2421 1341.2067,-489.5446 1331.0532,-492.5709 1335.1565,-498.2421"/>
</g>
<!-- Node37 -->
<g id="node38" class="node">
<title>Node37</title>
<g id="a_node38"><a xlink:href="Transform_8h.html" target="_top" xlink:title="iDynTree/Core/Transform.h">
<polygon fill="none" stroke="#000000" points="738,-403.5 738,-422.5 884,-422.5 884,-403.5 738,-403.5"/>
<text text-anchor="middle" x="811" y="-410.5" font-family="FreeSans.ttf" font-size="10.00" fill="#000000">iDynTree/Core/Transform.h</text>
</a>
</g>
</g>
<!-- Node10&#45;&gt;Node37 -->
<g id="edge75" class="edge">
<title>Node10&#45;&gt;Node37</title>
<path fill="none" stroke="#191970" d="M1230.3815,-526.4577C1188.6932,-517.7067 1126.0193,-504.0127 1072,-490 992.9018,-469.4818 901.5399,-441.5385 850.5961,-425.5707"/>
<polygon fill="#191970" stroke="#191970" points="851.5512,-422.2022 840.9618,-422.5426 849.4522,-428.8801 851.5512,-422.2022"/>
</g>
<!-- Node12&#45;&gt;Node7 -->
<g id="edge26" class="edge">
<title>Node12&#45;&gt;Node7</title>
<path fill="none" stroke="#191970" d="M523.4232,-168.4369C566.9525,-157.6029 637.117,-140.1398 677.8611,-129.999"/>
<polygon fill="#191970" stroke="#191970" points="678.9368,-133.3381 687.7954,-127.5265 677.2461,-126.5454 678.9368,-133.3381"/>
</g>
<!-- Node13 -->
<g id="node14" class="node">
<title>Node13</title>
<g id="a_node14"><a xlink:href="Span_8h.html" target="_top" xlink:title="iDynTree/Core/Span.h">
<polygon fill="none" stroke="#000000" points="724.5,-56.5 724.5,-75.5 845.5,-75.5 845.5,-56.5 724.5,-56.5"/>
<text text-anchor="middle" x="785" y="-63.5" font-family="FreeSans.ttf" font-size="10.00" fill="#000000">iDynTree/Core/Span.h</text>
</a>
</g>
</g>
<!-- Node12&#45;&gt;Node13 -->
<g id="edge16" class="edge">
<title>Node12&#45;&gt;Node13</title>
<path fill="none" stroke="#191970" d="M510.5778,-168.4509C564.2674,-148.4069 688.7853,-101.9202 749.8939,-79.1063"/>
<polygon fill="#191970" stroke="#191970" points="751.3427,-82.3014 759.4869,-75.5249 748.8943,-75.7435 751.3427,-82.3014"/>
</g>
<!-- Node13&#45;&gt;Node6 -->
<g id="edge20" class="edge">
<title>Node13&#45;&gt;Node6</title>
<path fill="none" stroke="#191970" d="M817.6622,-56.3733C851.2681,-46.4684 903.5074,-31.0715 938.4653,-20.7681"/>
<polygon fill="#191970" stroke="#191970" points="939.6753,-24.0604 948.2779,-17.876 937.6963,-17.346 939.6753,-24.0604"/>
</g>
<!-- Node14 -->
<g id="node15" class="node">
<title>Node14</title>
<polygon fill="none" stroke="#bfbfbf" points="1020,-.5 1020,-19.5 1072,-19.5 1072,-.5 1020,-.5"/>
<text text-anchor="middle" x="1046" y="-7.5" font-family="FreeSans.ttf" font-size="10.00" fill="#000000">cassert</text>
</g>
<!-- Node13&#45;&gt;Node14 -->
<g id="edge17" class="edge">
<title>Node13&#45;&gt;Node14</title>
<path fill="none" stroke="#191970" d="M837.7723,-56.4576C881.4947,-48.2804 945.451,-35.6964 1009.7781,-20.1693"/>
<polygon fill="#191970" stroke="#191970" points="1010.798,-23.5233 1019.685,-17.755 1009.1406,-16.7223 1010.798,-23.5233"/>
</g>
<!-- Node13&#45;&gt;Node15 -->
<g id="edge18" class="edge">
<title>Node13&#45;&gt;Node15</title>
<path fill="none" stroke="#191970" d="M845.7047,-61.2255C986.7267,-50.1339 1333.6423,-22.8484 1454.5859,-13.3359"/>
<polygon fill="#191970" stroke="#191970" points="1455.2124,-16.7976 1464.9072,-12.5242 1454.6635,-9.8191 1455.2124,-16.7976"/>
</g>
<!-- Node16 -->
<g id="node17" class="node">
<title>Node16</title>
<polygon fill="none" stroke="#bfbfbf" points="826,-.5 826,-19.5 868,-19.5 868,-.5 826,-.5"/>
<text text-anchor="middle" x="847" y="-7.5" font-family="FreeSans.ttf" font-size="10.00" fill="#000000">array</text>
</g>
<!-- Node13&#45;&gt;Node16 -->
<g id="edge19" class="edge">
<title>Node13&#45;&gt;Node16</title>
<path fill="none" stroke="#191970" d="M795.7996,-56.2455C804.8678,-48.0549 818.0206,-36.1749 828.7245,-26.5069"/>
<polygon fill="#191970" stroke="#191970" points="831.2491,-28.9429 836.3242,-19.6427 826.5571,-23.7482 831.2491,-28.9429"/>
</g>
<!-- Node17 -->
<g id="node18" class="node">
<title>Node17</title>
<polygon fill="none" stroke="#bfbfbf" points="521.5,-.5 521.5,-19.5 574.5,-19.5 574.5,-.5 521.5,-.5"/>
<text text-anchor="middle" x="548" y="-7.5" font-family="FreeSans.ttf" font-size="10.00" fill="#000000">iterator</text>
</g>
<!-- Node13&#45;&gt;Node17 -->
<g id="edge21" class="edge">
<title>Node13&#45;&gt;Node17</title>
<path fill="none" stroke="#191970" d="M740.5495,-56.4421C701.8793,-47.9892 644.1078,-35.031 584.6438,-20.079"/>
<polygon fill="#191970" stroke="#191970" points="585.2529,-16.6229 574.7,-17.5637 583.5363,-23.4092 585.2529,-16.6229"/>
</g>
<!-- Node18 -->
<g id="node19" class="node">
<title>Node18</title>
<polygon fill="none" stroke="#bfbfbf" points="886,-.5 886,-19.5 930,-19.5 930,-.5 886,-.5"/>
<text text-anchor="middle" x="908" y="-7.5" font-family="FreeSans.ttf" font-size="10.00" fill="#000000">limits</text>
</g>
<!-- Node13&#45;&gt;Node18 -->
<g id="edge22" class="edge">
<title>Node13&#45;&gt;Node18</title>
<path fill="none" stroke="#191970" d="M806.1445,-56.3733C825.8892,-47.3838 855.5698,-33.8706 877.8055,-23.7471"/>
<polygon fill="#191970" stroke="#191970" points="879.4806,-26.8302 887.1315,-19.5011 876.58,-20.4594 879.4806,-26.8302"/>
</g>
<!-- Node19 -->
<g id="node20" class="node">
<title>Node19</title>
<polygon fill="none" stroke="#bfbfbf" points="679.5,-.5 679.5,-19.5 744.5,-19.5 744.5,-.5 679.5,-.5"/>
<text text-anchor="middle" x="712" y="-7.5" font-family="FreeSans.ttf" font-size="10.00" fill="#000000">stdexcept</text>
</g>
<!-- Node13&#45;&gt;Node19 -->
<g id="edge23" class="edge">
<title>Node13&#45;&gt;Node19</title>
<path fill="none" stroke="#191970" d="M772.2844,-56.2455C761.398,-47.8943 745.5117,-35.7076 732.78,-25.9408"/>
<polygon fill="#191970" stroke="#191970" points="734.6346,-22.9523 724.5699,-19.6427 730.3739,-28.5063 734.6346,-22.9523"/>
</g>
<!-- Node20 -->
<g id="node21" class="node">
<title>Node20</title>
<polygon fill="none" stroke="#bfbfbf" points="592.5,-.5 592.5,-19.5 661.5,-19.5 661.5,-.5 592.5,-.5"/>
<text text-anchor="middle" x="627" y="-7.5" font-family="FreeSans.ttf" font-size="10.00" fill="#000000">type_traits</text>
</g>
<!-- Node13&#45;&gt;Node20 -->
<g id="edge24" class="edge">
<title>Node13&#45;&gt;Node20</title>
<path fill="none" stroke="#191970" d="M757.8388,-56.3733C731.7933,-47.1419 692.2884,-33.1402 663.5021,-22.9375"/>
<polygon fill="#191970" stroke="#191970" points="664.4015,-19.5429 653.8067,-19.5011 662.063,-26.1408 664.4015,-19.5429"/>
</g>
<!-- Node21 -->
<g id="node22" class="node">
<title>Node21</title>
<polygon fill="none" stroke="#bfbfbf" points="762.5,-.5 762.5,-19.5 807.5,-19.5 807.5,-.5 762.5,-.5"/>
<text text-anchor="middle" x="785" y="-7.5" font-family="FreeSans.ttf" font-size="10.00" fill="#000000">utility</text>
</g>
<!-- Node13&#45;&gt;Node21 -->
<g id="edge25" class="edge">
<title>Node13&#45;&gt;Node21</title>
<path fill="none" stroke="#191970" d="M785,-56.2455C785,-48.9382 785,-38.6944 785,-29.7046"/>
<polygon fill="#191970" stroke="#191970" points="788.5001,-29.6426 785,-19.6427 781.5001,-29.6427 788.5001,-29.6426"/>
</g>
<!-- Node22&#45;&gt;Node7 -->
<g id="edge30" class="edge">
<title>Node22&#45;&gt;Node7</title>
<path fill="none" stroke="#191970" d="M1177.4745,-168.9084C1174.6148,-168.5994 1171.7831,-168.2958 1169,-168 1009.2198,-151.0178 817.9591,-132.4001 742.702,-125.1413"/>
<polygon fill="#191970" stroke="#191970" points="742.7474,-121.6295 732.4578,-124.1543 742.076,-128.5973 742.7474,-121.6295"/>
</g>
<!-- Node22&#45;&gt;Node8 -->
<g id="edge28" class="edge">
<title>Node22&#45;&gt;Node8</title>
<path fill="none" stroke="#191970" d="M1251.435,-168.4509C1238.5923,-149.7707 1209.9601,-108.1238 1193.4274,-84.0761"/>
<polygon fill="#191970" stroke="#191970" points="1196.0978,-81.7825 1187.5484,-75.5249 1190.3295,-85.7482 1196.0978,-81.7825"/>
</g>
<!-- Node22&#45;&gt;Node13 -->
<g id="edge29" class="edge">
<title>Node22&#45;&gt;Node13</title>
<path fill="none" stroke="#191970" d="M1248.9014,-168.3743C1234.1389,-153.4432 1203.346,-125.0623 1171,-112 1115.4521,-89.5681 951.3133,-76.1263 855.9091,-69.9935"/>
<polygon fill="#191970" stroke="#191970" points="855.9635,-66.49 845.7626,-69.3521 855.5219,-73.4761 855.9635,-66.49"/>
</g>
<!-- Node22&#45;&gt;Node14 -->
<g id="edge32" class="edge">
<title>Node22&#45;&gt;Node14</title>
<path fill="none" stroke="#191970" d="M1333.7894,-168.4047C1377.6021,-159.4479 1420.234,-142.6647 1399,-112 1362.3884,-59.128 1164.475,-26.2678 1082.0544,-14.6942"/>
<polygon fill="#191970" stroke="#191970" points="1082.5189,-11.2252 1072.1345,-13.3261 1081.5625,-18.1595 1082.5189,-11.2252"/>
</g>
<!-- Node23 -->
<g id="node24" class="node">
<title>Node23</title>
<polygon fill="none" stroke="#bfbfbf" points="1334,-112.5 1334,-131.5 1390,-131.5 1390,-112.5 1334,-112.5"/>
<text text-anchor="middle" x="1362" y="-119.5" font-family="FreeSans.ttf" font-size="10.00" fill="#000000">sstream</text>
</g>
<!-- Node22&#45;&gt;Node23 -->
<g id="edge31" class="edge">
<title>Node22&#45;&gt;Node23</title>
<path fill="none" stroke="#191970" d="M1276.1154,-168.2455C1292.445,-159.4527 1316.671,-146.4079 1335.2339,-136.4125"/>
<polygon fill="#191970" stroke="#191970" points="1336.9468,-139.4654 1344.0922,-131.6427 1333.6281,-133.3021 1336.9468,-139.4654"/>
</g>
<!-- Node24 -->
<g id="node25" class="node">
<title>Node24</title>
<polygon fill="none" stroke="#bfbfbf" points="1112,-112.5 1112,-131.5 1162,-131.5 1162,-112.5 1112,-112.5"/>
<text text-anchor="middle" x="1137" y="-119.5" font-family="FreeSans.ttf" font-size="10.00" fill="#000000">cstring</text>
</g>
<!-- Node22&#45;&gt;Node24 -->
<g id="edge33" class="edge">
<title>Node22&#45;&gt;Node24</title>
<path fill="none" stroke="#191970" d="M1237.1994,-168.3733C1217.7757,-159.3838 1188.5776,-145.8706 1166.7036,-135.7471"/>
<polygon fill="#191970" stroke="#191970" points="1168.0745,-132.5249 1157.5292,-131.5011 1165.1344,-138.8776 1168.0745,-132.5249"/>
</g>
<!-- Node25&#45;&gt;Node7 -->
<g id="edge35" class="edge">
<title>Node25&#45;&gt;Node7</title>
<path fill="none" stroke="#191970" d="M833.386,-168.3733C808.0421,-158.848 769.1844,-144.2438 741.8615,-133.9748"/>
<polygon fill="#191970" stroke="#191970" points="742.9555,-130.647 732.3635,-130.4051 740.4928,-137.1995 742.9555,-130.647"/>
</g>
<!-- Node26 -->
<g id="node27" class="node">
<title>Node26</title>
<g id="a_node27"><a xlink:href="MatrixView_8h.html" target="_top" xlink:title="iDynTree/Core/MatrixView.h">
<polygon fill="none" stroke="#000000" points="827.5,-112.5 827.5,-131.5 978.5,-131.5 978.5,-112.5 827.5,-112.5"/>
<text text-anchor="middle" x="903" y="-119.5" font-family="FreeSans.ttf" font-size="10.00" fill="#000000">iDynTree/Core/MatrixView.h</text>
</a>
</g>
</g>
<!-- Node25&#45;&gt;Node26 -->
<g id="edge36" class="edge">
<title>Node25&#45;&gt;Node26</title>
<path fill="none" stroke="#191970" d="M866.6642,-168.2455C872.8473,-160.3761 881.7063,-149.101 889.1289,-139.6542"/>
<polygon fill="#191970" stroke="#191970" points="891.9975,-141.6683 895.4236,-131.6427 886.4932,-137.3435 891.9975,-141.6683"/>
</g>
<!-- Node26&#45;&gt;Node8 -->
<g id="edge40" class="edge">
<title>Node26&#45;&gt;Node8</title>
<path fill="none" stroke="#191970" d="M950.474,-112.4369C998.4514,-102.7724 1072.617,-87.8326 1123.8051,-77.5213"/>
<polygon fill="#191970" stroke="#191970" points="1124.6099,-80.9296 1133.7218,-75.5237 1123.2275,-74.0674 1124.6099,-80.9296"/>
</g>
<!-- Node26&#45;&gt;Node13 -->
<g id="edge39" class="edge">
<title>Node26&#45;&gt;Node13</title>
<path fill="none" stroke="#191970" d="M882.7151,-112.3733C863.8579,-103.4241 835.554,-89.9917 814.2545,-79.8835"/>
<polygon fill="#191970" stroke="#191970" points="815.5551,-76.6266 805.0202,-75.5011 812.5539,-82.9506 815.5551,-76.6266"/>
</g>
<!-- Node26&#45;&gt;Node14 -->
<g id="edge37" class="edge">
<title>Node26&#45;&gt;Node14</title>
<path fill="none" stroke="#191970" d="M915.1921,-112.4509C939.7815,-93.1921 995.5391,-49.5218 1025.7074,-25.8935"/>
<polygon fill="#191970" stroke="#191970" points="1028.1241,-28.4464 1033.8388,-19.5249 1023.8079,-22.9355 1028.1241,-28.4464"/>
</g>
<!-- Node26&#45;&gt;Node20 -->
<g id="edge38" class="edge">
<title>Node26&#45;&gt;Node20</title>
<path fill="none" stroke="#191970" d="M837.673,-112.4969C800.7448,-105.5339 754.4222,-94.0717 716,-76 688.7742,-63.1945 661.5949,-41.4002 644.5679,-26.3808"/>
<polygon fill="#191970" stroke="#191970" points="646.8401,-23.7168 637.069,-19.6208 642.1531,-28.9162 646.8401,-23.7168"/>
</g>
<!-- Node27&#45;&gt;Node7 -->
<g id="edge46" class="edge">
<title>Node27&#45;&gt;Node7</title>
<path fill="none" stroke="#191970" d="M1015.9859,-168.4369C936.7595,-156.4134 803.7319,-136.2249 742.5639,-126.942"/>
<polygon fill="#191970" stroke="#191970" points="742.7624,-123.4321 732.3505,-125.3919 741.7121,-130.3528 742.7624,-123.4321"/>
</g>
<!-- Node27&#45;&gt;Node8 -->
<g id="edge42" class="edge">
<title>Node27&#45;&gt;Node8</title>
<path fill="none" stroke="#191970" d="M1080.3811,-168.466C1082.8066,-154.6513 1088.9735,-128.8789 1103,-112 1114.566,-98.0819 1131.5009,-87.3799 1146.6381,-79.8158"/>
<polygon fill="#191970" stroke="#191970" points="1148.215,-82.9419 1155.7668,-75.5108 1145.2292,-76.6106 1148.215,-82.9419"/>
</g>
<!-- Node27&#45;&gt;Node14 -->
<g id="edge44" class="edge">
<title>Node27&#45;&gt;Node14</title>
<path fill="none" stroke="#191970" d="M1077.1312,-168.4862C1071.8921,-141.8144 1056.9827,-65.9117 1049.8687,-29.695"/>
<polygon fill="#191970" stroke="#191970" points="1053.2924,-28.9657 1047.9305,-19.8279 1046.4236,-30.315 1053.2924,-28.9657"/>
</g>
<!-- Node27&#45;&gt;Node23 -->
<g id="edge48" class="edge">
<title>Node27&#45;&gt;Node23</title>
<path fill="none" stroke="#191970" d="M1137.4214,-168.4159C1185.1876,-160.2747 1254.6657,-147.7402 1323.9963,-132.102"/>
<polygon fill="#191970" stroke="#191970" points="1324.8027,-135.508 1333.7759,-129.8749 1323.2483,-128.6828 1324.8027,-135.508"/>
</g>
<!-- Node27&#45;&gt;Node24 -->
<g id="edge45" class="edge">
<title>Node27&#45;&gt;Node24</title>
<path fill="none" stroke="#191970" d="M1089.1028,-168.2455C1097.5028,-160.1352 1109.6494,-148.4075 1119.6084,-138.7919"/>
<polygon fill="#191970" stroke="#191970" points="1122.25,-141.1066 1127.0129,-131.6427 1117.3878,-136.0707 1122.25,-141.1066"/>
</g>
<!-- Node27&#45;&gt;Node26 -->
<g id="edge43" class="edge">
<title>Node27&#45;&gt;Node26</title>
<path fill="none" stroke="#191970" d="M1048.7445,-168.3733C1019.3517,-159.021 974.5708,-144.7725 942.4066,-134.5385"/>
<polygon fill="#191970" stroke="#191970" points="943.4512,-131.198 932.8607,-131.5011 941.3287,-137.8685 943.4512,-131.198"/>
</g>
<!-- Node28 -->
<g id="node29" class="node">
<title>Node28</title>
<polygon fill="none" stroke="#bfbfbf" points="1256,-112.5 1256,-131.5 1316,-131.5 1316,-112.5 1256,-112.5"/>
<text text-anchor="middle" x="1286" y="-119.5" font-family="FreeSans.ttf" font-size="10.00" fill="#000000">iostream</text>
</g>
<!-- Node27&#45;&gt;Node28 -->
<g id="edge47" class="edge">
<title>Node27&#45;&gt;Node28</title>
<path fill="none" stroke="#191970" d="M1114.5846,-168.3733C1151.1932,-158.4695 1208.098,-143.0749 1246.1837,-132.7716"/>
<polygon fill="#191970" stroke="#191970" points="1247.1761,-136.129 1255.9151,-130.1389 1245.3481,-129.3719 1247.1761,-136.129"/>
</g>
<!-- Node29&#45;&gt;Node22 -->
<g id="edge50" class="edge">
<title>Node29&#45;&gt;Node22</title>
<path fill="none" stroke="#191970" d="M1182.6788,-459.1622C1170.3053,-437.3044 1150,-395.5607 1150,-357 1150,-357 1150,-357 1150,-295.5 1150,-262.5024 1149.2272,-249.6385 1170,-224 1181.8843,-209.332 1199.7037,-198.7957 1216.206,-191.5403"/>
<polygon fill="#191970" stroke="#191970" points="1217.7907,-194.6734 1225.7152,-187.6411 1215.1349,-188.1967 1217.7907,-194.6734"/>
</g>
<!-- Node30 -->
<g id="node31" class="node">
<title>Node30</title>
<g id="a_node31"><a xlink:href="GeomVector3_8h.html" target="_top" xlink:title="iDynTree/Core/GeomVector3.h">
<polygon fill="none" stroke="#000000" points="1178.5,-224.5 1178.5,-243.5 1341.5,-243.5 1341.5,-224.5 1178.5,-224.5"/>
<text text-anchor="middle" x="1260" y="-231.5" font-family="FreeSans.ttf" font-size="10.00" fill="#000000">iDynTree/Core/GeomVector3.h</text>
</a>
</g>
</g>
<!-- Node29&#45;&gt;Node30 -->
<g id="edge51" class="edge">
<title>Node29&#45;&gt;Node30</title>
<path fill="none" stroke="#191970" d="M1195.322,-459.3693C1198.5743,-444.8519 1203.7872,-422.3419 1209,-403 1223.6962,-348.4711 1243.6602,-284.8786 1253.6937,-253.5244"/>
<polygon fill="#191970" stroke="#191970" points="1257.0765,-254.4374 1256.8036,-243.8461 1250.4121,-252.2959 1257.0765,-254.4374"/>
</g>
<!-- Node31 -->
<g id="node32" class="node">
<title>Node31</title>
<g id="a_node32"><a xlink:href="SpatialVector_8h.html" target="_top" xlink:title="iDynTree/Core/SpatialVector.h">
<polygon fill="none" stroke="#000000" points="1217.5,-403.5 1217.5,-422.5 1378.5,-422.5 1378.5,-403.5 1217.5,-403.5"/>
<text text-anchor="middle" x="1298" y="-410.5" font-family="FreeSans.ttf" font-size="10.00" fill="#000000">iDynTree/Core/SpatialVector.h</text>
</a>
</g>
</g>
<!-- Node29&#45;&gt;Node31 -->
<g id="edge53" class="edge">
<title>Node29&#45;&gt;Node31</title>
<path fill="none" stroke="#191970" d="M1217.9305,-459.4554C1234.5309,-449.8241 1255.9744,-437.3828 1272.4917,-427.7996"/>
<polygon fill="#191970" stroke="#191970" points="1274.6806,-430.5761 1281.5738,-422.5303 1271.1677,-424.5214 1274.6806,-430.5761"/>
</g>
<!-- Node30&#45;&gt;Node22 -->
<g id="edge52" class="edge">
<title>Node30&#45;&gt;Node22</title>
<path fill="none" stroke="#191970" d="M1259.6516,-224.2455C1259.3907,-216.9382 1259.0248,-206.6944 1258.7037,-197.7046"/>
<polygon fill="#191970" stroke="#191970" points="1262.1992,-197.5113 1258.3444,-187.6427 1255.2036,-197.7613 1262.1992,-197.5113"/>
</g>
<!-- Node31&#45;&gt;Node8 -->
<g id="edge67" class="edge">
<title>Node31&#45;&gt;Node8</title>
<path fill="none" stroke="#191970" d="M1330.2575,-403.3707C1350.3171,-396.0472 1375.5268,-384.2525 1393,-367 1412.8011,-347.4491 1414.6068,-338.0822 1421,-311 1441.4442,-224.3971 1460.3731,-176.4311 1399,-112 1378.8763,-90.8736 1306.7649,-78.6722 1250.9268,-72.2134"/>
<polygon fill="#191970" stroke="#191970" points="1251.0325,-68.7036 1240.7062,-71.0734 1250.2565,-75.6604 1251.0325,-68.7036"/>
</g>
<!-- Node31&#45;&gt;Node23 -->
<g id="edge70" class="edge">
<title>Node31&#45;&gt;Node23</title>
<path fill="none" stroke="#191970" d="M1317.6658,-403.3817C1349.3057,-386.3645 1408,-347.7542 1408,-295.5 1408,-295.5 1408,-295.5 1408,-234 1408,-198.66 1388.1609,-161.4332 1374.5403,-140.0395"/>
<polygon fill="#191970" stroke="#191970" points="1377.4212,-138.0507 1368.9864,-131.6394 1371.5821,-141.9114 1377.4212,-138.0507"/>
</g>
<!-- Node31&#45;&gt;Node28 -->
<g id="edge69" class="edge">
<title>Node31&#45;&gt;Node28</title>
<path fill="none" stroke="#191970" d="M1309.25,-403.2534C1329.5,-384.5613 1370,-341.435 1370,-295.5 1370,-295.5 1370,-295.5 1370,-234 1370,-203.08 1366.1442,-193.0367 1348,-168 1338.9123,-155.46 1325.3974,-144.8688 1313.3032,-137.0219"/>
<polygon fill="#191970" stroke="#191970" points="1314.781,-133.8221 1304.4284,-131.5694 1311.1166,-139.7864 1314.781,-133.8221"/>
</g>
<!-- Node31&#45;&gt;Node30 -->
<g id="edge68" class="edge">
<title>Node31&#45;&gt;Node30</title>
<path fill="none" stroke="#191970" d="M1295.957,-403.3762C1289.9517,-375.0883 1272.2701,-291.7987 1264.1559,-253.5767"/>
<polygon fill="#191970" stroke="#191970" points="1267.5536,-252.7266 1262.0531,-243.6714 1260.7061,-254.1803 1267.5536,-252.7266"/>
</g>
<!-- Node32 -->
<g id="node33" class="node">
<title>Node32</title>
<g id="a_node33"><a xlink:href="Position_8h.html" target="_top" xlink:title="Position.h">
<polygon fill="none" stroke="#000000" points="778.5,-347.5 778.5,-366.5 843.5,-366.5 843.5,-347.5 778.5,-347.5"/>
<text text-anchor="middle" x="811" y="-354.5" font-family="FreeSans.ttf" font-size="10.00" fill="#000000">Position.h</text>
</a>
</g>
</g>
<!-- Node31&#45;&gt;Node32 -->
<g id="edge54" class="edge">
<title>Node31&#45;&gt;Node32</title>
<path fill="none" stroke="#191970" d="M1217.3087,-403.7213C1113.0526,-391.7329 935.3092,-371.2943 853.9521,-361.9391"/>
<polygon fill="#191970" stroke="#191970" points="853.9265,-358.4131 843.5921,-360.7478 853.1268,-365.3673 853.9265,-358.4131"/>
</g>
<!-- Node34 -->
<g id="node35" class="node">
<title>Node34</title>
<g id="a_node35"><a xlink:href="Rotation_8h.html" target="_top" xlink:title="iDynTree/Core/Rotation.h">
<polygon fill="none" stroke="#000000" points="898.5,-286 898.5,-305 1035.5,-305 1035.5,-286 898.5,-286"/>
<text text-anchor="middle" x="967" y="-293" font-family="FreeSans.ttf" font-size="10.00" fill="#000000">iDynTree/Core/Rotation.h</text>
</a>
</g>
</g>
<!-- Node31&#45;&gt;Node34 -->
<g id="edge66" class="edge">
<title>Node31&#45;&gt;Node34</title>
<path fill="none" stroke="#191970" d="M1271.1933,-403.484C1212.1978,-382.5415 1071.0341,-332.4305 1003.8049,-308.5652"/>
<polygon fill="#191970" stroke="#191970" points="1004.6517,-305.1518 994.0569,-305.1048 1002.3099,-311.7485 1004.6517,-305.1518"/>
</g>
<!-- Node32&#45;&gt;Node7 -->
<g id="edge65" class="edge">
<title>Node32&#45;&gt;Node7</title>
<path fill="none" stroke="#191970" d="M788.7555,-347.4321C755.0916,-331.5683 692.4376,-296.2961 667,-244 649.6773,-208.3869 676.6235,-163.9479 695.0697,-139.7409"/>
<polygon fill="#191970" stroke="#191970" points="697.9045,-141.7992 701.3833,-131.7918 692.4231,-137.4455 697.9045,-141.7992"/>
</g>
<!-- Node33 -->
<g id="node34" class="node">
<title>Node33</title>
<g id="a_node34"><a xlink:href="PositionRaw_8h.html" target="_top" xlink:title="iDynTree/Core/PositionRaw.h">
<polygon fill="none" stroke="#000000" points="676,-224.5 676,-243.5 832,-243.5 832,-224.5 676,-224.5"/>
<text text-anchor="middle" x="754" y="-231.5" font-family="FreeSans.ttf" font-size="10.00" fill="#000000">iDynTree/Core/PositionRaw.h</text>
</a>
</g>
</g>
<!-- Node32&#45;&gt;Node33 -->
<g id="edge55" class="edge">
<title>Node32&#45;&gt;Node33</title>
<path fill="none" stroke="#191970" d="M806.5273,-347.3484C797.1207,-327.0499 775.1426,-279.6235 762.804,-252.9981"/>
<polygon fill="#191970" stroke="#191970" points="765.8322,-251.2083 758.4519,-243.6068 759.481,-254.1515 765.8322,-251.2083"/>
</g>
<!-- Node32&#45;&gt;Node34 -->
<g id="edge58" class="edge">
<title>Node32&#45;&gt;Node34</title>
<path fill="none" stroke="#191970" d="M835.375,-347.3906C861.7056,-337.0103 903.838,-320.4004 933.3229,-308.7766"/>
<polygon fill="#191970" stroke="#191970" points="934.7767,-311.9657 942.7962,-305.0419 932.2093,-305.4534 934.7767,-311.9657"/>
</g>
<!-- Node33&#45;&gt;Node7 -->
<g id="edge57" class="edge">
<title>Node33&#45;&gt;Node7</title>
<path fill="none" stroke="#191970" d="M749.5324,-224.2028C745.358,-214.9398 739.032,-200.6186 734,-188 727.7994,-172.4509 721.3466,-154.5964 716.6955,-141.3818"/>
<polygon fill="#191970" stroke="#191970" points="719.9902,-140.2 713.391,-131.9113 713.381,-142.5062 719.9902,-140.2"/>
</g>
<!-- Node33&#45;&gt;Node22 -->
<g id="edge56" class="edge">
<title>Node33&#45;&gt;Node22</title>
<path fill="none" stroke="#191970" d="M832.021,-225.3871C913.2353,-216.4137 1044.4282,-201.8957 1167.4913,-188.1672"/>
<polygon fill="#191970" stroke="#191970" points="1167.9202,-191.6412 1177.4704,-187.0537 1167.1439,-184.6844 1167.9202,-191.6412"/>
</g>
<!-- Node34&#45;&gt;Node7 -->
<g id="edge59" class="edge">
<title>Node34&#45;&gt;Node7</title>
<path fill="none" stroke="#191970" d="M950.8715,-285.9117C927.0799,-271.8678 881.0631,-245.0851 841,-224 808.6345,-206.9661 795.9916,-210.2972 767,-188 749.2795,-174.3713 733.0381,-154.5075 722.4648,-140.1351"/>
<polygon fill="#191970" stroke="#191970" points="725.0345,-137.7107 716.3765,-131.6041 719.3367,-141.777 725.0345,-137.7107"/>
</g>
<!-- Node34&#45;&gt;Node22 -->
<g id="edge64" class="edge">
<title>Node34&#45;&gt;Node22</title>
<path fill="none" stroke="#191970" d="M982.1823,-285.7691C1006.0455,-270.8121 1054.141,-242.0173 1098,-224 1132.8595,-209.6797 1173.7158,-198.0138 1205.417,-190.0132"/>
<polygon fill="#191970" stroke="#191970" points="1206.505,-193.3495 1215.3687,-187.5457 1204.8203,-186.5552 1206.505,-193.3495"/>
</g>
<!-- Node34&#45;&gt;Node30 -->
<g id="edge60" class="edge">
<title>Node34&#45;&gt;Node30</title>
<path fill="none" stroke="#191970" d="M1012.4598,-285.9581C1064.2114,-275.0956 1148.7612,-257.3488 1204.3962,-245.6711"/>
<polygon fill="#191970" stroke="#191970" points="1205.3658,-249.0439 1214.4336,-243.5643 1203.9278,-242.1932 1205.3658,-249.0439"/>
</g>
<!-- Node35 -->
<g id="node36" class="node">
<title>Node35</title>
<g id="a_node36"><a xlink:href="RotationRaw_8h.html" target="_top" xlink:title="iDynTree/Core/RotationRaw.h">
<polygon fill="none" stroke="#000000" points="888,-224.5 888,-243.5 1046,-243.5 1046,-224.5 888,-224.5"/>
<text text-anchor="middle" x="967" y="-231.5" font-family="FreeSans.ttf" font-size="10.00" fill="#000000">iDynTree/Core/RotationRaw.h</text>
</a>
</g>
</g>
<!-- Node34&#45;&gt;Node35 -->
<g id="edge61" class="edge">
<title>Node34&#45;&gt;Node35</title>
<path fill="none" stroke="#191970" d="M967,-285.8906C967,-277.3657 967,-264.6392 967,-253.9235"/>
<polygon fill="#191970" stroke="#191970" points="970.5001,-253.7448 967,-243.7449 963.5001,-253.7449 970.5001,-253.7448"/>
</g>
<!-- Node35&#45;&gt;Node7 -->
<g id="edge63" class="edge">
<title>Node35&#45;&gt;Node7</title>
<path fill="none" stroke="#191970" d="M967.8222,-224.3665C968.4784,-209.9439 967.3892,-182.8503 952,-168 937.018,-153.5426 804.7992,-134.4629 742.3723,-126.1587"/>
<polygon fill="#191970" stroke="#191970" points="742.6463,-122.6646 732.2749,-124.8286 741.7321,-129.6046 742.6463,-122.6646"/>
</g>
<!-- Node35&#45;&gt;Node27 -->
<g id="edge62" class="edge">
<title>Node35&#45;&gt;Node27</title>
<path fill="none" stroke="#191970" d="M986.2535,-224.3733C1004.0712,-215.4644 1030.7747,-202.1127 1050.9594,-192.0203"/>
<polygon fill="#191970" stroke="#191970" points="1052.6187,-195.1038 1059.9978,-187.5011 1049.4882,-188.8428 1052.6187,-195.1038"/>
</g>
<!-- Node36&#45;&gt;Node22 -->
<g id="edge72" class="edge">
<title>Node36&#45;&gt;Node22</title>
<path fill="none" stroke="#191970" d="M1378.0635,-459.4715C1386.988,-449.9853 1397.2284,-436.9224 1402,-423 1431.602,-336.6292 1411.2211,-292.6266 1351,-224 1337.8679,-209.0349 1318.7387,-198.4173 1301.2392,-191.1828"/>
<polygon fill="#191970" stroke="#191970" points="1302.3226,-187.8492 1291.7333,-187.5055 1299.797,-194.3777 1302.3226,-187.8492"/>
</g>
<!-- Node36&#45;&gt;Node30 -->
<g id="edge73" class="edge">
<title>Node36&#45;&gt;Node30</title>
<path fill="none" stroke="#191970" d="M1373.8063,-459.2346C1383.4718,-444.8103 1394.562,-422.5323 1388,-403 1366.2504,-338.2606 1308.7829,-278.5832 1278.8023,-250.6417"/>
<polygon fill="#191970" stroke="#191970" points="1280.8696,-247.7893 1271.1277,-243.6245 1276.146,-252.9554 1280.8696,-247.7893"/>
</g>
<!-- Node36&#45;&gt;Node31 -->
<g id="edge74" class="edge">
<title>Node36&#45;&gt;Node31</title>
<path fill="none" stroke="#191970" d="M1346.1798,-459.2977C1336.9258,-450.4052 1325.2219,-439.1586 1315.667,-429.9769"/>
<polygon fill="#191970" stroke="#191970" points="1317.8828,-427.2521 1308.2472,-422.8469 1313.0326,-432.2995 1317.8828,-427.2521"/>
</g>
<!-- Node37&#45;&gt;Node7 -->
<g id="edge79" class="edge">
<title>Node37&#45;&gt;Node7</title>
<path fill="none" stroke="#191970" d="M772.6138,-403.4722C751.235,-396.463 725.485,-384.963 708,-367 666.7217,-324.5933 668.5558,-302.0404 657,-244 652.9637,-223.7274 660.5808,-172.9898 663,-168 668.7017,-156.2399 678.7015,-145.7995 688.0157,-137.85"/>
<polygon fill="#191970" stroke="#191970" points="690.2828,-140.5185 695.8991,-131.5347 685.9063,-135.0553 690.2828,-140.5185"/>
</g>
<!-- Node37&#45;&gt;Node27 -->
<g id="edge78" class="edge">
<title>Node37&#45;&gt;Node27</title>
<path fill="none" stroke="#191970" d="M793.4838,-403.3442C743.7819,-374.7919 609.106,-288.7177 667,-224 677.6075,-212.1422 870.17,-194.7156 988.2351,-185.0727"/>
<polygon fill="#191970" stroke="#191970" points="988.6785,-188.5483 998.3622,-184.2497 988.1115,-181.5713 988.6785,-188.5483"/>
</g>
<!-- Node37&#45;&gt;Node32 -->
<g id="edge76" class="edge">
<title>Node37&#45;&gt;Node32</title>
<path fill="none" stroke="#191970" d="M811,-403.2455C811,-395.9382 811,-385.6944 811,-376.7046"/>
<polygon fill="#191970" stroke="#191970" points="814.5001,-376.6426 811,-366.6427 807.5001,-376.6427 814.5001,-376.6426"/>
</g>
<!-- Node37&#45;&gt;Node34 -->
<g id="edge77" class="edge">
<title>Node37&#45;&gt;Node34</title>
<path fill="none" stroke="#191970" d="M823.7661,-403.3845C850.6193,-383.1585 913.1707,-336.0445 946.0117,-311.3085"/>
<polygon fill="#191970" stroke="#191970" points="948.1755,-314.0605 954.0575,-305.2484 943.964,-308.4691 948.1755,-314.0605"/>
</g>
<!-- Node38&#45;&gt;Node5 -->
<g id="edge85" class="edge">
<title>Node38&#45;&gt;Node5</title>
<path fill="none" stroke="#191970" d="M347.7712,-168.3733C379.8391,-158.3408 429.9166,-142.6741 462.8444,-132.3727"/>
<polygon fill="#191970" stroke="#191970" points="463.975,-135.6863 472.4738,-129.3601 461.8849,-129.0056 463.975,-135.6863"/>
</g>
<!-- Node38&#45;&gt;Node7 -->
<g id="edge84" class="edge">
<title>Node38&#45;&gt;Node7</title>
<path fill="none" stroke="#191970" d="M383.3156,-169.2771C466.1989,-158.3174 603.3252,-139.9796 654,-132 661.8008,-130.7716 670.1919,-129.335 678.0435,-127.9401"/>
<polygon fill="#191970" stroke="#191970" points="678.7396,-131.3711 687.9594,-126.1513 677.4969,-124.4823 678.7396,-131.3711"/>
</g>
<!-- Node38&#45;&gt;Node8 -->
<g id="edge82" class="edge">
<title>Node38&#45;&gt;Node8</title>
<path fill="none" stroke="#191970" d="M367.866,-168.4662C460.1843,-151.2016 648.6186,-116.1532 679,-112 832.677,-90.9922 1014.1699,-77.025 1111.3114,-70.4186"/>
<polygon fill="#191970" stroke="#191970" points="1111.5609,-73.9098 1121.3028,-69.7448 1111.0899,-66.9256 1111.5609,-73.9098"/>
</g>
<!-- Node38&#45;&gt;Node17 -->
<g id="edge83" class="edge">
<title>Node38&#45;&gt;Node17</title>
<path fill="none" stroke="#191970" d="M377.2548,-168.4839C436.1677,-158.62 518.5221,-143.117 529,-132 554.9866,-104.4284 554.1465,-56.7727 551.136,-29.9095"/>
<polygon fill="#191970" stroke="#191970" points="554.5775,-29.2377 549.7848,-19.7888 547.639,-30.1641 554.5775,-29.2377"/>
</g>
</g>
</svg>
