<?xml version="1.0" encoding="UTF-8" standalone="no"?>
<!DOCTYPE svg PUBLIC "-//W3C//DTD SVG 1.1//EN"
 "http://www.w3.org/Graphics/SVG/1.1/DTD/svg11.dtd">
<!-- Generated by graphviz version 2.40.1 (20161225.0304)
 -->
<!-- Title: WorhpInterfaceNotImplemented.cpp Pages: 1 -->
<svg width="356pt" height="263pt"
 viewBox="0.00 0.00 355.50 263.00" xmlns="http://www.w3.org/2000/svg" xmlns:xlink="http://www.w3.org/1999/xlink">
<g id="graph0" class="graph" transform="scale(1 1) rotate(0) translate(4 259)">
<title>WorhpInterfaceNotImplemented.cpp</title>
<!-- Node0 -->
<g id="node1" class="node">
<title>Node0</title>
<polygon fill="#bfbfbf" stroke="#000000" points="78,-235.5 78,-254.5 272,-254.5 272,-235.5 78,-235.5"/>
<text text-anchor="middle" x="175" y="-242.5" font-family="FreeSans.ttf" font-size="10.00" fill="#000000">WorhpInterfaceNotImplemented.cpp</text>
</g>
<!-- Node1 -->
<g id="node2" class="node">
<title>Node1</title>
<g id="a_node2"><a xlink:href="WorhpInterface_8h.html" target="_top" xlink:title="iDynTree/Optimizers\l/WorhpInterface.h">
<polygon fill="none" stroke="#000000" points="49,-168.5 49,-198.5 165,-198.5 165,-168.5 49,-168.5"/>
<text text-anchor="start" x="57" y="-186.5" font-family="FreeSans.ttf" font-size="10.00" fill="#000000">iDynTree/Optimizers</text>
<text text-anchor="middle" x="107" y="-175.5" font-family="FreeSans.ttf" font-size="10.00" fill="#000000">/WorhpInterface.h</text>
</a>
</g>
</g>
<!-- Node0&#45;&gt;Node1 -->
<g id="edge1" class="edge">
<title>Node0&#45;&gt;Node1</title>
<path fill="none" stroke="#191970" d="M164.375,-235.3906C155.5129,-227.3756 142.5442,-215.6466 131.1777,-205.3666"/>
<polygon fill="#191970" stroke="#191970" points="133.3991,-202.6565 123.6347,-198.5446 128.7036,-207.8482 133.3991,-202.6565"/>
</g>
<!-- Node8 -->
<g id="node9" class="node">
<title>Node8</title>
<g id="a_node9"><a xlink:href="Utils_8h.html" target="_top" xlink:title="iDynTree/Core/Utils.h">
<polygon fill="none" stroke="#000000" points="218.5,-174 218.5,-193 337.5,-193 337.5,-174 218.5,-174"/>
<text text-anchor="middle" x="278" y="-181" font-family="FreeSans.ttf" font-size="10.00" fill="#000000">iDynTree/Core/Utils.h</text>
</a>
</g>
</g>
<!-- Node0&#45;&gt;Node8 -->
<g id="edge10" class="edge">
<title>Node0&#45;&gt;Node8</title>
<path fill="none" stroke="#191970" d="M191.0938,-235.3906C207.7228,-225.4616 233.8976,-209.833 253.1794,-198.3201"/>
<polygon fill="#191970" stroke="#191970" points="255.2276,-201.1736 262.0193,-193.0419 251.639,-195.1634 255.2276,-201.1736"/>
</g>
<!-- Node2 -->
<g id="node3" class="node">
<title>Node2</title>
<g id="a_node3"><a xlink:href="Optimizer_8h.html" target="_top" xlink:title="iDynTree/Optimizer.h">
<polygon fill="none" stroke="#000000" points="100.5,-112.5 100.5,-131.5 219.5,-131.5 219.5,-112.5 100.5,-112.5"/>
<text text-anchor="middle" x="160" y="-119.5" font-family="FreeSans.ttf" font-size="10.00" fill="#000000">iDynTree/Optimizer.h</text>
</a>
</g>
</g>
<!-- Node1&#45;&gt;Node2 -->
<g id="edge2" class="edge">
<title>Node1&#45;&gt;Node2</title>
<path fill="none" stroke="#191970" d="M120.1011,-168.2977C127.6113,-159.5831 137.07,-148.6075 144.8927,-139.5302"/>
<polygon fill="#191970" stroke="#191970" points="147.6371,-141.707 151.514,-131.8469 142.3345,-137.1372 147.6371,-141.707"/>
</g>
<!-- Node3 -->
<g id="node4" class="node">
<title>Node3</title>
<polygon fill="none" stroke="#bfbfbf" points="83,-.5 83,-19.5 141,-19.5 141,-.5 83,-.5"/>
<text text-anchor="middle" x="112" y="-7.5" font-family="FreeSans.ttf" font-size="10.00" fill="#000000">memory</text>
</g>
<!-- Node1&#45;&gt;Node3 -->
<g id="edge8" class="edge">
<title>Node1&#45;&gt;Node3</title>
<path fill="none" stroke="#191970" d="M101.0084,-168.4593C97.3067,-158.3368 92.9105,-144.5889 91,-132 85.491,-95.6995 96.6865,-53.5178 104.745,-29.4699"/>
<polygon fill="#191970" stroke="#191970" points="108.1358,-30.378 108.1555,-19.7832 101.5331,-28.0532 108.1358,-30.378"/>
</g>
<!-- Node7 -->
<g id="node8" class="node">
<title>Node7</title>
<polygon fill="none" stroke="#bfbfbf" points="0,-112.5 0,-131.5 44,-131.5 44,-112.5 0,-112.5"/>
<text text-anchor="middle" x="22" y="-119.5" font-family="FreeSans.ttf" font-size="10.00" fill="#000000">string</text>
</g>
<!-- Node1&#45;&gt;Node7 -->
<g id="edge9" class="edge">
<title>Node1&#45;&gt;Node7</title>
<path fill="none" stroke="#191970" d="M85.9888,-168.2977C73.2066,-159.0495 56.9054,-147.2551 43.9552,-137.8853"/>
<polygon fill="#191970" stroke="#191970" points="45.763,-134.8732 35.6096,-131.8469 41.6597,-140.5445 45.763,-134.8732"/>
</g>
<!-- Node2&#45;&gt;Node3 -->
<g id="edge3" class="edge">
<title>Node2&#45;&gt;Node3</title>
<path fill="none" stroke="#191970" d="M152.6894,-112.2298C146.2333,-103.2183 136.9468,-89.2668 131,-76 124.2938,-61.0392 119.3103,-43.1095 116.1336,-29.7161"/>
<polygon fill="#191970" stroke="#191970" points="119.491,-28.6918 113.8919,-19.6973 112.6599,-30.2203 119.491,-28.6918"/>
</g>
<!-- Node4 -->
<g id="node5" class="node">
<title>Node4</title>
<g id="a_node5"><a xlink:href="OptimizationProblem_8h.html" target="_top" xlink:title="iDynTree/OptimizationProblem.h">
<polygon fill="none" stroke="#000000" points="140.5,-56.5 140.5,-75.5 315.5,-75.5 315.5,-56.5 140.5,-56.5"/>
<text text-anchor="middle" x="228" y="-63.5" font-family="FreeSans.ttf" font-size="10.00" fill="#000000">iDynTree/OptimizationProblem.h</text>
</a>
</g>
</g>
<!-- Node2&#45;&gt;Node4 -->
<g id="edge4" class="edge">
<title>Node2&#45;&gt;Node4</title>
<path fill="none" stroke="#191970" d="M171.8447,-112.2455C181.888,-103.9746 196.4995,-91.9416 208.3004,-82.2232"/>
<polygon fill="#191970" stroke="#191970" points="210.7967,-84.7015 216.291,-75.6427 206.3467,-79.298 210.7967,-84.7015"/>
</g>
<!-- Node4&#45;&gt;Node3 -->
<g id="edge6" class="edge">
<title>Node4&#45;&gt;Node3</title>
<path fill="none" stroke="#191970" d="M208.0589,-56.3733C189.5214,-47.4241 161.6972,-33.9917 140.7587,-23.8835"/>
<polygon fill="#191970" stroke="#191970" points="142.2081,-20.6967 131.6809,-19.5011 139.1648,-27.0006 142.2081,-20.6967"/>
</g>
<!-- Node5 -->
<g id="node6" class="node">
<title>Node5</title>
<polygon fill="none" stroke="#bfbfbf" points="204.5,-.5 204.5,-19.5 251.5,-19.5 251.5,-.5 204.5,-.5"/>
<text text-anchor="middle" x="228" y="-7.5" font-family="FreeSans.ttf" font-size="10.00" fill="#000000">vector</text>
</g>
<!-- Node4&#45;&gt;Node5 -->
<g id="edge5" class="edge">
<title>Node4&#45;&gt;Node5</title>
<path fill="none" stroke="#191970" d="M228,-56.2455C228,-48.9382 228,-38.6944 228,-29.7046"/>
<polygon fill="#191970" stroke="#191970" points="231.5001,-29.6426 228,-19.6427 224.5001,-29.6427 231.5001,-29.6426"/>
</g>
<!-- Node6 -->
<g id="node7" class="node">
<title>Node6</title>
<polygon fill="none" stroke="#bfbfbf" points="294.5,-.5 294.5,-19.5 347.5,-19.5 347.5,-.5 294.5,-.5"/>
<text text-anchor="middle" x="321" y="-7.5" font-family="FreeSans.ttf" font-size="10.00" fill="#000000">cstddef</text>
</g>
<!-- Node4&#45;&gt;Node6 -->
<g id="edge7" class="edge">
<title>Node4&#45;&gt;Node6</title>
<path fill="none" stroke="#191970" d="M244.1994,-56.2455C258.6018,-47.5731 279.8732,-34.7645 296.3799,-24.825"/>
<polygon fill="#191970" stroke="#191970" points="298.225,-27.7996 304.9863,-19.6427 294.614,-21.8028 298.225,-27.7996"/>
</g>
<!-- Node8&#45;&gt;Node6 -->
<g id="edge11" class="edge">
<title>Node8&#45;&gt;Node6</title>
<path fill="none" stroke="#191970" d="M291.7782,-173.8928C303.6466,-164.7 319.9457,-149.6481 327,-132 340.583,-98.0186 333.1268,-54.4125 326.8243,-29.5995"/>
<polygon fill="#191970" stroke="#191970" points="330.1089,-28.3422 324.0895,-19.6234 323.3579,-30.1929 330.1089,-28.3422"/>
</g>
<!-- Node9 -->
<g id="node10" class="node">
<title>Node9</title>
<polygon fill="none" stroke="#bfbfbf" points="238,-112.5 238,-131.5 318,-131.5 318,-112.5 238,-112.5"/>
<text text-anchor="middle" x="278" y="-119.5" font-family="FreeSans.ttf" font-size="10.00" fill="#000000">CoreExport.h</text>
</g>
<!-- Node8&#45;&gt;Node9 -->
<g id="edge12" class="edge">
<title>Node8&#45;&gt;Node9</title>
<path fill="none" stroke="#191970" d="M278,-173.8906C278,-165.3657 278,-152.6392 278,-141.9235"/>
<polygon fill="#191970" stroke="#191970" points="281.5001,-141.7448 278,-131.7449 274.5001,-141.7449 281.5001,-141.7448"/>
</g>
</g>
</svg>
