<?xml version="1.0" encoding="UTF-8" standalone="no"?>
<!DOCTYPE svg PUBLIC "-//W3C//DTD SVG 1.1//EN"
 "http://www.w3.org/Graphics/SVG/1.1/DTD/svg11.dtd">
<!-- Generated by graphviz version 2.40.1 (20161225.0304)
 -->
<!-- Title: YARPConfigurationsLoader.h Pages: 1 -->
<svg width="915pt" height="364pt"
 viewBox="0.00 0.00 915.00 364.00" xmlns="http://www.w3.org/2000/svg" xmlns:xlink="http://www.w3.org/1999/xlink">
<g id="graph0" class="graph" transform="scale(1 1) rotate(0) translate(4 360)">
<title>YARPConfigurationsLoader.h</title>
<!-- Node0 -->
<g id="node1" class="node">
<title>Node0</title>
<polygon fill="#bfbfbf" stroke="#000000" points="637.5,-336.5 637.5,-355.5 790.5,-355.5 790.5,-336.5 637.5,-336.5"/>
<text text-anchor="middle" x="714" y="-343.5" font-family="FreeSans.ttf" font-size="10.00" fill="#000000">YARPConfigurationsLoader.h</text>
</g>
<!-- Node1 -->
<g id="node2" class="node">
<title>Node1</title>
<polygon fill="none" stroke="#bfbfbf" points="508.5,-280.5 508.5,-299.5 627.5,-299.5 627.5,-280.5 508.5,-280.5"/>
<text text-anchor="middle" x="568" y="-287.5" font-family="FreeSans.ttf" font-size="10.00" fill="#000000">yarp/os/Searchable.h</text>
</g>
<!-- Node0&#45;&gt;Node1 -->
<g id="edge1" class="edge">
<title>Node0&#45;&gt;Node1</title>
<path fill="none" stroke="#191970" d="M688.9017,-336.3733C665.0445,-327.2226 628.9665,-313.3844 602.429,-303.2057"/>
<polygon fill="#191970" stroke="#191970" points="603.361,-299.8145 592.7708,-299.5011 600.8541,-306.3503 603.361,-299.8145"/>
</g>
<!-- Node2 -->
<g id="node3" class="node">
<title>Node2</title>
<g id="a_node3"><a xlink:href="Rotation_8h.html" target="_top" xlink:title="iDynTree/Core/Rotation.h">
<polygon fill="none" stroke="#000000" points="645.5,-280.5 645.5,-299.5 782.5,-299.5 782.5,-280.5 645.5,-280.5"/>
<text text-anchor="middle" x="714" y="-287.5" font-family="FreeSans.ttf" font-size="10.00" fill="#000000">iDynTree/Core/Rotation.h</text>
</a>
</g>
</g>
<!-- Node0&#45;&gt;Node2 -->
<g id="edge2" class="edge">
<title>Node0&#45;&gt;Node2</title>
<path fill="none" stroke="#191970" d="M714,-336.2455C714,-328.9382 714,-318.6944 714,-309.7046"/>
<polygon fill="#191970" stroke="#191970" points="717.5001,-309.6426 714,-299.6427 710.5001,-309.6427 717.5001,-309.6426"/>
</g>
<!-- Node3 -->
<g id="node4" class="node">
<title>Node3</title>
<polygon fill="none" stroke="#bfbfbf" points="863,-112.5 863,-131.5 907,-131.5 907,-112.5 863,-112.5"/>
<text text-anchor="middle" x="885" y="-119.5" font-family="FreeSans.ttf" font-size="10.00" fill="#000000">string</text>
</g>
<!-- Node0&#45;&gt;Node3 -->
<g id="edge38" class="edge">
<title>Node0&#45;&gt;Node3</title>
<path fill="none" stroke="#191970" d="M735.9015,-336.3539C752.5625,-328.286 775.3786,-315.6004 792,-300 835.8627,-258.8317 843.2431,-242.8257 868,-188 874.6956,-173.1722 879.1029,-155.2326 881.7485,-141.8015"/>
<polygon fill="#191970" stroke="#191970" points="885.2312,-142.2106 883.568,-131.7472 878.3431,-140.9641 885.2312,-142.2106"/>
</g>
<!-- Node2&#45;&gt;Node3 -->
<g id="edge3" class="edge">
<title>Node2&#45;&gt;Node3</title>
<path fill="none" stroke="#191970" d="M739.934,-280.4433C758.642,-272.6522 783.7182,-260.2796 802,-244 835.9482,-213.7699 862.7117,-166.8325 875.9402,-140.8731"/>
<polygon fill="#191970" stroke="#191970" points="879.1663,-142.2457 880.4778,-131.7323 872.8963,-139.1331 879.1663,-142.2457"/>
</g>
<!-- Node4 -->
<g id="node5" class="node">
<title>Node4</title>
<g id="a_node5"><a xlink:href="GeomVector3_8h.html" target="_top" xlink:title="iDynTree/Core/GeomVector3.h">
<polygon fill="none" stroke="#000000" points="414.5,-224.5 414.5,-243.5 577.5,-243.5 577.5,-224.5 414.5,-224.5"/>
<text text-anchor="middle" x="496" y="-231.5" font-family="FreeSans.ttf" font-size="10.00" fill="#000000">iDynTree/Core/GeomVector3.h</text>
</a>
</g>
</g>
<!-- Node2&#45;&gt;Node4 -->
<g id="edge4" class="edge">
<title>Node2&#45;&gt;Node4</title>
<path fill="none" stroke="#191970" d="M676.5245,-280.3733C639.4897,-270.8598 582.7318,-256.2797 542.7639,-246.0127"/>
<polygon fill="#191970" stroke="#191970" points="543.5429,-242.5993 532.9865,-243.5011 541.8012,-249.3792 543.5429,-242.5993"/>
</g>
<!-- Node5 -->
<g id="node6" class="node">
<title>Node5</title>
<g id="a_node6"><a xlink:href="VectorFixSize_8h.html" target="_top" xlink:title="iDynTree/Core/VectorFixSize.h">
<polygon fill="none" stroke="#000000" points="372.5,-168.5 372.5,-187.5 533.5,-187.5 533.5,-168.5 372.5,-168.5"/>
<text text-anchor="middle" x="453" y="-175.5" font-family="FreeSans.ttf" font-size="10.00" fill="#000000">iDynTree/Core/VectorFixSize.h</text>
</a>
</g>
</g>
<!-- Node2&#45;&gt;Node5 -->
<g id="edge37" class="edge">
<title>Node2&#45;&gt;Node5</title>
<path fill="none" stroke="#191970" d="M695.8136,-280.4393C663.1704,-263.3059 597.0038,-228.7112 586,-224 555.9268,-211.1244 520.9288,-199.1338 494.3843,-190.6246"/>
<polygon fill="#191970" stroke="#191970" points="495.2428,-187.2252 484.6526,-187.5393 493.1272,-193.8978 495.2428,-187.2252"/>
</g>
<!-- Node20 -->
<g id="node21" class="node">
<title>Node20</title>
<g id="a_node21"><a xlink:href="RotationRaw_8h.html" target="_top" xlink:title="iDynTree/Core/RotationRaw.h">
<polygon fill="none" stroke="#000000" points="635,-224.5 635,-243.5 793,-243.5 793,-224.5 635,-224.5"/>
<text text-anchor="middle" x="714" y="-231.5" font-family="FreeSans.ttf" font-size="10.00" fill="#000000">iDynTree/Core/RotationRaw.h</text>
</a>
</g>
</g>
<!-- Node2&#45;&gt;Node20 -->
<g id="edge23" class="edge">
<title>Node2&#45;&gt;Node20</title>
<path fill="none" stroke="#191970" d="M714,-280.2455C714,-272.9382 714,-262.6944 714,-253.7046"/>
<polygon fill="#191970" stroke="#191970" points="717.5001,-253.6426 714,-243.6427 710.5001,-253.6427 717.5001,-253.6426"/>
</g>
<!-- Node4&#45;&gt;Node5 -->
<g id="edge5" class="edge">
<title>Node4&#45;&gt;Node5</title>
<path fill="none" stroke="#191970" d="M488.51,-224.2455C482.4674,-216.3761 473.8097,-205.101 466.5559,-195.6542"/>
<polygon fill="#191970" stroke="#191970" points="469.2705,-193.4426 460.4042,-187.6427 463.7185,-197.7058 469.2705,-193.4426"/>
</g>
<!-- Node5&#45;&gt;Node3 -->
<g id="edge19" class="edge">
<title>Node5&#45;&gt;Node3</title>
<path fill="none" stroke="#191970" d="M531.298,-168.488C604.8509,-159.4553 717.9601,-145.3151 816,-132 828.0298,-130.3662 841.2246,-128.4776 852.825,-126.7847"/>
<polygon fill="#191970" stroke="#191970" points="853.5656,-130.2136 862.9511,-125.2979 852.5487,-123.2878 853.5656,-130.2136"/>
</g>
<!-- Node6 -->
<g id="node7" class="node">
<title>Node6</title>
<g id="a_node7"><a xlink:href="Utils_8h.html" target="_top" xlink:title="iDynTree/Core/Utils.h">
<polygon fill="none" stroke="#000000" points="474.5,-56.5 474.5,-75.5 593.5,-75.5 593.5,-56.5 474.5,-56.5"/>
<text text-anchor="middle" x="534" y="-63.5" font-family="FreeSans.ttf" font-size="10.00" fill="#000000">iDynTree/Core/Utils.h</text>
</a>
</g>
</g>
<!-- Node5&#45;&gt;Node6 -->
<g id="edge6" class="edge">
<title>Node5&#45;&gt;Node6</title>
<path fill="none" stroke="#191970" d="M430.8819,-168.3377C406.2017,-156.1743 371.7363,-134.176 388,-112 398.4872,-97.7005 437.7166,-85.8089 472.8716,-77.7008"/>
<polygon fill="#191970" stroke="#191970" points="473.6558,-81.1119 482.6518,-75.5153 472.1292,-74.2804 473.6558,-81.1119"/>
</g>
<!-- Node9 -->
<g id="node10" class="node">
<title>Node9</title>
<g id="a_node10"><a xlink:href="Span_8h.html" target="_top" xlink:title="iDynTree/Core/Span.h">
<polygon fill="none" stroke="#000000" points="196.5,-56.5 196.5,-75.5 317.5,-75.5 317.5,-56.5 196.5,-56.5"/>
<text text-anchor="middle" x="257" y="-63.5" font-family="FreeSans.ttf" font-size="10.00" fill="#000000">iDynTree/Core/Span.h</text>
</a>
</g>
</g>
<!-- Node5&#45;&gt;Node9 -->
<g id="edge9" class="edge">
<title>Node5&#45;&gt;Node9</title>
<path fill="none" stroke="#191970" d="M406.2966,-168.4357C378.7585,-161.3307 344.1113,-149.7457 317,-132 297.6864,-119.3583 280.5218,-99.0615 269.5518,-84.3105"/>
<polygon fill="#191970" stroke="#191970" points="272.2327,-82.0434 263.558,-75.9606 266.5461,-86.1254 272.2327,-82.0434"/>
</g>
<!-- Node10 -->
<g id="node11" class="node">
<title>Node10</title>
<polygon fill="none" stroke="#bfbfbf" points="680,-.5 680,-19.5 732,-19.5 732,-.5 680,-.5"/>
<text text-anchor="middle" x="706" y="-7.5" font-family="FreeSans.ttf" font-size="10.00" fill="#000000">cassert</text>
</g>
<!-- Node5&#45;&gt;Node10 -->
<g id="edge21" class="edge">
<title>Node5&#45;&gt;Node10</title>
<path fill="none" stroke="#191970" d="M426.8172,-168.3183C400.8206,-157.0625 366.6302,-136.819 380,-112 444.1289,7.0451 538.1108,-49.8244 670,-20 670.0989,-19.9776 670.1978,-19.9552 670.297,-19.9326"/>
<polygon fill="#191970" stroke="#191970" points="670.8528,-23.4003 679.7286,-17.615 669.1823,-16.6025 670.8528,-23.4003"/>
</g>
<!-- Node18 -->
<g id="node19" class="node">
<title>Node18</title>
<polygon fill="none" stroke="#bfbfbf" points="397,-112.5 397,-131.5 453,-131.5 453,-112.5 397,-112.5"/>
<text text-anchor="middle" x="425" y="-119.5" font-family="FreeSans.ttf" font-size="10.00" fill="#000000">sstream</text>
</g>
<!-- Node5&#45;&gt;Node18 -->
<g id="edge20" class="edge">
<title>Node5&#45;&gt;Node18</title>
<path fill="none" stroke="#191970" d="M448.1228,-168.2455C444.3487,-160.6973 439.0079,-150.0158 434.4099,-140.8197"/>
<polygon fill="#191970" stroke="#191970" points="437.424,-139.0217 429.8213,-131.6427 431.163,-142.1522 437.424,-139.0217"/>
</g>
<!-- Node19 -->
<g id="node20" class="node">
<title>Node19</title>
<polygon fill="none" stroke="#bfbfbf" points="471,-112.5 471,-131.5 521,-131.5 521,-112.5 471,-112.5"/>
<text text-anchor="middle" x="496" y="-119.5" font-family="FreeSans.ttf" font-size="10.00" fill="#000000">cstring</text>
</g>
<!-- Node5&#45;&gt;Node19 -->
<g id="edge22" class="edge">
<title>Node5&#45;&gt;Node19</title>
<path fill="none" stroke="#191970" d="M460.49,-168.2455C466.5326,-160.3761 475.1903,-149.101 482.4441,-139.6542"/>
<polygon fill="#191970" stroke="#191970" points="485.2815,-141.7058 488.5958,-131.6427 479.7295,-137.4426 485.2815,-141.7058"/>
</g>
<!-- Node7 -->
<g id="node8" class="node">
<title>Node7</title>
<polygon fill="none" stroke="#bfbfbf" points="422.5,-.5 422.5,-19.5 475.5,-19.5 475.5,-.5 422.5,-.5"/>
<text text-anchor="middle" x="449" y="-7.5" font-family="FreeSans.ttf" font-size="10.00" fill="#000000">cstddef</text>
</g>
<!-- Node6&#45;&gt;Node7 -->
<g id="edge7" class="edge">
<title>Node6&#45;&gt;Node7</title>
<path fill="none" stroke="#191970" d="M519.1941,-56.2455C506.2744,-47.7337 487.3069,-35.2375 472.3448,-25.3801"/>
<polygon fill="#191970" stroke="#191970" points="473.9124,-22.2216 463.6362,-19.6427 470.0613,-28.067 473.9124,-22.2216"/>
</g>
<!-- Node8 -->
<g id="node9" class="node">
<title>Node8</title>
<polygon fill="none" stroke="#bfbfbf" points="494,-.5 494,-19.5 574,-19.5 574,-.5 494,-.5"/>
<text text-anchor="middle" x="534" y="-7.5" font-family="FreeSans.ttf" font-size="10.00" fill="#000000">CoreExport.h</text>
</g>
<!-- Node6&#45;&gt;Node8 -->
<g id="edge8" class="edge">
<title>Node6&#45;&gt;Node8</title>
<path fill="none" stroke="#191970" d="M534,-56.2455C534,-48.9382 534,-38.6944 534,-29.7046"/>
<polygon fill="#191970" stroke="#191970" points="537.5001,-29.6426 534,-19.6427 530.5001,-29.6427 537.5001,-29.6426"/>
</g>
<!-- Node9&#45;&gt;Node7 -->
<g id="edge13" class="edge">
<title>Node9&#45;&gt;Node7</title>
<path fill="none" stroke="#191970" d="M290.006,-56.3733C324.0632,-46.4399 377.0583,-30.983 412.3848,-20.6794"/>
<polygon fill="#191970" stroke="#191970" points="413.6746,-23.9492 422.2945,-17.7891 411.7145,-17.2292 413.6746,-23.9492"/>
</g>
<!-- Node9&#45;&gt;Node10 -->
<g id="edge10" class="edge">
<title>Node9&#45;&gt;Node10</title>
<path fill="none" stroke="#191970" d="M317.5648,-57.785C322.4467,-57.1654 327.3046,-56.563 332,-56 481.9976,-38.0153 521.6049,-48.3128 670,-20 670.0996,-19.981 670.1992,-19.9619 670.299,-19.9426"/>
<polygon fill="#191970" stroke="#191970" points="670.7772,-23.4222 679.7722,-17.8238 669.2493,-16.591 670.7772,-23.4222"/>
</g>
<!-- Node11 -->
<g id="node12" class="node">
<title>Node11</title>
<polygon fill="none" stroke="#bfbfbf" points="0,-.5 0,-19.5 64,-19.5 64,-.5 0,-.5"/>
<text text-anchor="middle" x="32" y="-7.5" font-family="FreeSans.ttf" font-size="10.00" fill="#000000">algorithm</text>
</g>
<!-- Node9&#45;&gt;Node11 -->
<g id="edge11" class="edge">
<title>Node9&#45;&gt;Node11</title>
<path fill="none" stroke="#191970" d="M218.5768,-56.4369C178.3413,-46.4227 115.3488,-30.7446 73.869,-20.4207"/>
<polygon fill="#191970" stroke="#191970" points="74.6215,-17.0013 64.0722,-17.9824 72.9308,-23.7941 74.6215,-17.0013"/>
</g>
<!-- Node12 -->
<g id="node13" class="node">
<title>Node12</title>
<polygon fill="none" stroke="#bfbfbf" points="82,-.5 82,-19.5 124,-19.5 124,-.5 82,-.5"/>
<text text-anchor="middle" x="103" y="-7.5" font-family="FreeSans.ttf" font-size="10.00" fill="#000000">array</text>
</g>
<!-- Node9&#45;&gt;Node12 -->
<g id="edge12" class="edge">
<title>Node9&#45;&gt;Node12</title>
<path fill="none" stroke="#191970" d="M230.5265,-56.3733C203.6018,-46.5825 161.9201,-31.4255 133.597,-21.1262"/>
<polygon fill="#191970" stroke="#191970" points="134.7761,-17.8308 124.182,-17.7026 132.3838,-24.4093 134.7761,-17.8308"/>
</g>
<!-- Node13 -->
<g id="node14" class="node">
<title>Node13</title>
<polygon fill="none" stroke="#bfbfbf" points="142.5,-.5 142.5,-19.5 195.5,-19.5 195.5,-.5 142.5,-.5"/>
<text text-anchor="middle" x="169" y="-7.5" font-family="FreeSans.ttf" font-size="10.00" fill="#000000">iterator</text>
</g>
<!-- Node9&#45;&gt;Node13 -->
<g id="edge14" class="edge">
<title>Node9&#45;&gt;Node13</title>
<path fill="none" stroke="#191970" d="M241.6716,-56.2455C228.1697,-47.6534 208.2878,-35.0014 192.7314,-25.1018"/>
<polygon fill="#191970" stroke="#191970" points="194.4685,-22.0587 184.1528,-19.6427 190.7103,-27.9643 194.4685,-22.0587"/>
</g>
<!-- Node14 -->
<g id="node15" class="node">
<title>Node14</title>
<polygon fill="none" stroke="#bfbfbf" points="214,-.5 214,-19.5 258,-19.5 258,-.5 214,-.5"/>
<text text-anchor="middle" x="236" y="-7.5" font-family="FreeSans.ttf" font-size="10.00" fill="#000000">limits</text>
</g>
<!-- Node9&#45;&gt;Node14 -->
<g id="edge15" class="edge">
<title>Node9&#45;&gt;Node14</title>
<path fill="none" stroke="#191970" d="M253.3421,-56.2455C250.5416,-48.7776 246.591,-38.2427 243.1676,-29.1137"/>
<polygon fill="#191970" stroke="#191970" points="246.4045,-27.777 239.616,-19.6427 239.8501,-30.2349 246.4045,-27.777"/>
</g>
<!-- Node15 -->
<g id="node16" class="node">
<title>Node15</title>
<polygon fill="none" stroke="#bfbfbf" points="276.5,-.5 276.5,-19.5 341.5,-19.5 341.5,-.5 276.5,-.5"/>
<text text-anchor="middle" x="309" y="-7.5" font-family="FreeSans.ttf" font-size="10.00" fill="#000000">stdexcept</text>
</g>
<!-- Node9&#45;&gt;Node15 -->
<g id="edge16" class="edge">
<title>Node9&#45;&gt;Node15</title>
<path fill="none" stroke="#191970" d="M266.0577,-56.2455C273.5142,-48.2155 284.2634,-36.6394 293.1417,-27.0781"/>
<polygon fill="#191970" stroke="#191970" points="295.8063,-29.3522 300.0461,-19.6427 290.6768,-24.589 295.8063,-29.3522"/>
</g>
<!-- Node16 -->
<g id="node17" class="node">
<title>Node16</title>
<polygon fill="none" stroke="#bfbfbf" points="592.5,-.5 592.5,-19.5 661.5,-19.5 661.5,-.5 592.5,-.5"/>
<text text-anchor="middle" x="627" y="-7.5" font-family="FreeSans.ttf" font-size="10.00" fill="#000000">type_traits</text>
</g>
<!-- Node9&#45;&gt;Node16 -->
<g id="edge17" class="edge">
<title>Node9&#45;&gt;Node16</title>
<path fill="none" stroke="#191970" d="M317.6368,-57.7225C398.0762,-46.7023 534.6278,-27.8461 582.5136,-19.8734"/>
<polygon fill="#191970" stroke="#191970" points="583.2207,-23.3029 592.4689,-18.1337 582.0157,-16.4074 583.2207,-23.3029"/>
</g>
<!-- Node17 -->
<g id="node18" class="node">
<title>Node17</title>
<polygon fill="none" stroke="#bfbfbf" points="359.5,-.5 359.5,-19.5 404.5,-19.5 404.5,-.5 359.5,-.5"/>
<text text-anchor="middle" x="382" y="-7.5" font-family="FreeSans.ttf" font-size="10.00" fill="#000000">utility</text>
</g>
<!-- Node9&#45;&gt;Node17 -->
<g id="edge18" class="edge">
<title>Node9&#45;&gt;Node17</title>
<path fill="none" stroke="#191970" d="M278.4883,-56.3733C298.644,-47.3435 328.988,-33.7494 351.618,-23.6111"/>
<polygon fill="#191970" stroke="#191970" points="353.0971,-26.7838 360.7921,-19.5011 350.2351,-20.3955 353.0971,-26.7838"/>
</g>
<!-- Node20&#45;&gt;Node3 -->
<g id="edge36" class="edge">
<title>Node20&#45;&gt;Node3</title>
<path fill="none" stroke="#191970" d="M726.7016,-224.4684C744.3919,-211.3134 777.5922,-187.0583 807,-168 823.9344,-157.0253 843.4965,-145.4915 858.7938,-136.7183"/>
<polygon fill="#191970" stroke="#191970" points="860.7487,-139.6328 867.7058,-131.6422 857.2842,-133.5502 860.7487,-139.6328"/>
</g>
<!-- Node21 -->
<g id="node22" class="node">
<title>Node21</title>
<g id="a_node22"><a xlink:href="MatrixFixSize_8h.html" target="_top" xlink:title="iDynTree/Core/MatrixFixSize.h">
<polygon fill="none" stroke="#000000" points="575.5,-168.5 575.5,-187.5 736.5,-187.5 736.5,-168.5 575.5,-168.5"/>
<text text-anchor="middle" x="656" y="-175.5" font-family="FreeSans.ttf" font-size="10.00" fill="#000000">iDynTree/Core/MatrixFixSize.h</text>
</a>
</g>
</g>
<!-- Node20&#45;&gt;Node21 -->
<g id="edge24" class="edge">
<title>Node20&#45;&gt;Node21</title>
<path fill="none" stroke="#191970" d="M703.8972,-224.2455C695.4972,-216.1352 683.3506,-204.4075 673.3916,-194.7919"/>
<polygon fill="#191970" stroke="#191970" points="675.6122,-192.0707 665.9871,-187.6427 670.75,-197.1066 675.6122,-192.0707"/>
</g>
<!-- Node21&#45;&gt;Node3 -->
<g id="edge33" class="edge">
<title>Node21&#45;&gt;Node3</title>
<path fill="none" stroke="#191970" d="M697.9,-168.4841C737.0684,-159.4771 797.1351,-145.3794 849,-132 850.2719,-131.6719 851.5678,-131.3331 852.8761,-130.9874"/>
<polygon fill="#191970" stroke="#191970" points="854.21,-134.2525 862.9499,-128.2639 852.383,-127.4951 854.21,-134.2525"/>
</g>
<!-- Node21&#45;&gt;Node6 -->
<g id="edge25" class="edge">
<title>Node21&#45;&gt;Node6</title>
<path fill="none" stroke="#191970" d="M627.836,-168.444C609.0333,-160.9211 584.7718,-148.8722 568,-132 554.9659,-118.8879 545.864,-99.7493 540.3797,-85.4539"/>
<polygon fill="#191970" stroke="#191970" points="543.5387,-83.8918 536.8858,-75.6463 536.9447,-86.241 543.5387,-83.8918"/>
</g>
<!-- Node21&#45;&gt;Node10 -->
<g id="edge31" class="edge">
<title>Node21&#45;&gt;Node10</title>
<path fill="none" stroke="#191970" d="M716.0085,-168.4287C756.1142,-160.6663 803.6993,-148.3355 816,-132 847.2598,-90.4868 778.2874,-46.2601 735.934,-24.2153"/>
<polygon fill="#191970" stroke="#191970" points="737.3383,-21.0032 726.8361,-19.605 734.1741,-27.2473 737.3383,-21.0032"/>
</g>
<!-- Node21&#45;&gt;Node18 -->
<g id="edge35" class="edge">
<title>Node21&#45;&gt;Node18</title>
<path fill="none" stroke="#191970" d="M613.9014,-168.4162C576.6953,-159.857 520.7136,-146.7628 463.2437,-132.2642"/>
<polygon fill="#191970" stroke="#191970" points="463.8113,-128.7975 453.258,-129.7345 462.0922,-135.5832 463.8113,-128.7975"/>
</g>
<!-- Node21&#45;&gt;Node19 -->
<g id="edge32" class="edge">
<title>Node21&#45;&gt;Node19</title>
<path fill="none" stroke="#191970" d="M628.495,-168.3733C601.4804,-158.9181 560.1672,-144.4585 530.8636,-134.2023"/>
<polygon fill="#191970" stroke="#191970" points="531.6374,-130.765 521.0426,-130.7649 529.3249,-137.372 531.6374,-130.765"/>
</g>
<!-- Node22 -->
<g id="node23" class="node">
<title>Node22</title>
<g id="a_node23"><a xlink:href="MatrixView_8h.html" target="_top" xlink:title="iDynTree/Core/MatrixView.h">
<polygon fill="none" stroke="#000000" points="577.5,-112.5 577.5,-131.5 728.5,-131.5 728.5,-112.5 577.5,-112.5"/>
<text text-anchor="middle" x="653" y="-119.5" font-family="FreeSans.ttf" font-size="10.00" fill="#000000">iDynTree/Core/MatrixView.h</text>
</a>
</g>
</g>
<!-- Node21&#45;&gt;Node22 -->
<g id="edge26" class="edge">
<title>Node21&#45;&gt;Node22</title>
<path fill="none" stroke="#191970" d="M655.4774,-168.2455C655.086,-160.9382 654.5372,-150.6944 654.0556,-141.7046"/>
<polygon fill="#191970" stroke="#191970" points="657.5466,-141.4411 653.5166,-131.6427 650.5566,-141.8156 657.5466,-141.4411"/>
</g>
<!-- Node23 -->
<g id="node24" class="node">
<title>Node23</title>
<polygon fill="none" stroke="#bfbfbf" points="747,-112.5 747,-131.5 807,-131.5 807,-112.5 747,-112.5"/>
<text text-anchor="middle" x="777" y="-119.5" font-family="FreeSans.ttf" font-size="10.00" fill="#000000">iostream</text>
</g>
<!-- Node21&#45;&gt;Node23 -->
<g id="edge34" class="edge">
<title>Node21&#45;&gt;Node23</title>
<path fill="none" stroke="#191970" d="M676.8006,-168.3733C696.2243,-159.3838 725.4224,-145.8706 747.2964,-135.7471"/>
<polygon fill="#191970" stroke="#191970" points="748.8656,-138.8776 756.4708,-131.5011 745.9255,-132.5249 748.8656,-138.8776"/>
</g>
<!-- Node22&#45;&gt;Node6 -->
<g id="edge30" class="edge">
<title>Node22&#45;&gt;Node6</title>
<path fill="none" stroke="#191970" d="M632.5432,-112.3733C613.5262,-103.4241 584.9825,-89.9917 563.5024,-79.8835"/>
<polygon fill="#191970" stroke="#191970" points="564.7284,-76.5923 554.1899,-75.5011 561.7478,-82.926 564.7284,-76.5923"/>
</g>
<!-- Node22&#45;&gt;Node9 -->
<g id="edge29" class="edge">
<title>Node22&#45;&gt;Node9</title>
<path fill="none" stroke="#191970" d="M585.3751,-112.4369C513.5366,-102.2779 400.479,-86.29 327.5462,-75.9762"/>
<polygon fill="#191970" stroke="#191970" points="327.9214,-72.4946 317.5298,-74.5598 326.9412,-79.4256 327.9214,-72.4946"/>
</g>
<!-- Node22&#45;&gt;Node10 -->
<g id="edge27" class="edge">
<title>Node22&#45;&gt;Node10</title>
<path fill="none" stroke="#191970" d="M657.5188,-112.4509C666.2803,-93.936 685.7185,-52.8591 697.1421,-28.7187"/>
<polygon fill="#191970" stroke="#191970" points="700.3789,-30.061 701.4927,-19.5249 694.0516,-27.0668 700.3789,-30.061"/>
</g>
<!-- Node22&#45;&gt;Node16 -->
<g id="edge28" class="edge">
<title>Node22&#45;&gt;Node16</title>
<path fill="none" stroke="#191970" d="M650.7833,-112.4509C646.5235,-94.1013 637.1193,-53.5908 631.4965,-29.3693"/>
<polygon fill="#191970" stroke="#191970" points="634.8818,-28.4744 629.2111,-19.5249 628.0632,-30.0573 634.8818,-28.4744"/>
</g>
</g>
</svg>
